<?xml version="1.0" encoding="UTF-8" standalone="no"?>
<!DOCTYPE svg PUBLIC "-//W3C//DTD SVG 1.1//EN"
 "http://www.w3.org/Graphics/SVG/1.1/DTD/svg11.dtd">
<!-- Generated by graphviz version 2.43.0 (0)
 -->
<!-- Title: iccFromCube Pages: 1 -->
<svg width="1200pt" height="476pt"
 viewBox="0.00 0.00 1200.02 476.00" xmlns="http://www.w3.org/2000/svg" xmlns:xlink="http://www.w3.org/1999/xlink">
<g id="graph0" class="graph" transform="scale(1 1) rotate(0) translate(4 472)">
<title>iccFromCube</title>
<polygon fill="white" stroke="transparent" points="-4,4 -4,-472 1196.02,-472 1196.02,4 -4,4"/>
<g id="clust1" class="cluster">
<title>cluster_legend</title>
<polygon fill="none" stroke="black" stroke-dasharray="5,2" points="62.3,-390 62.3,-460 428.3,-460 428.3,-390 62.3,-390"/>
<text text-anchor="middle" x="245.3" y="-448.8" font-family="Times,serif" font-size="9.00">Legend</text>
</g>
<g id="clust2" class="cluster">
<title>cluster_cli</title>
<path fill="none" stroke="black" d="M39.3,-307C39.3,-307 289.3,-307 289.3,-307 295.3,-307 301.3,-313 301.3,-319 301.3,-319 301.3,-370 301.3,-370 301.3,-376 295.3,-382 289.3,-382 289.3,-382 39.3,-382 39.3,-382 33.3,-382 27.3,-376 27.3,-370 27.3,-370 27.3,-319 27.3,-319 27.3,-313 33.3,-307 39.3,-307"/>
<text text-anchor="middle" x="164.3" y="-366.8" font-family="Times,serif" font-size="14.00">Phase 1: CLI Args</text>
</g>
<g id="clust3" class="cluster">
<title>cluster_parse</title>
<path fill="none" stroke="red" d="M679.3,-235C679.3,-235 1153.3,-235 1153.3,-235 1159.3,-235 1165.3,-241 1165.3,-247 1165.3,-247 1165.3,-370 1165.3,-370 1165.3,-376 1159.3,-382 1153.3,-382 1153.3,-382 679.3,-382 679.3,-382 673.3,-382 667.3,-376 667.3,-370 667.3,-370 667.3,-247 667.3,-247 667.3,-241 673.3,-235 679.3,-235"/>
<text text-anchor="middle" x="916.3" y="-366.8" font-family="Times,serif" font-size="14.00">Phase 2: CUBE Parsing (Attack Surface)</text>
</g>
<g id="clust4" class="cluster">
<title>cluster_profile</title>
<path fill="none" stroke="black" d="M321.3,-80C321.3,-80 647.3,-80 647.3,-80 653.3,-80 659.3,-86 659.3,-92 659.3,-92 659.3,-370 659.3,-370 659.3,-376 653.3,-382 647.3,-382 647.3,-382 321.3,-382 321.3,-382 315.3,-382 309.3,-376 309.3,-370 309.3,-370 309.3,-92 309.3,-92 309.3,-86 315.3,-80 321.3,-80"/>
<text text-anchor="middle" x="484.3" y="-366.8" font-family="Times,serif" font-size="14.00">Phase 3: ICC Profile Construction</text>
</g>
<g id="clust5" class="cluster">
<title>cluster_output</title>
<path fill="none" stroke="black" d="M679.3,-8C679.3,-8 877.3,-8 877.3,-8 883.3,-8 889.3,-14 889.3,-20 889.3,-20 889.3,-215 889.3,-215 889.3,-221 883.3,-227 877.3,-227 877.3,-227 679.3,-227 679.3,-227 673.3,-227 667.3,-221 667.3,-215 667.3,-215 667.3,-20 667.3,-20 667.3,-14 673.3,-8 679.3,-8"/>
<text text-anchor="middle" x="778.3" y="-211.8" font-family="Times,serif" font-size="14.00">Phase 4: Metadata &amp; Output</text>
</g>
<!-- leg_both -->
<g id="node1" class="node">
<title>leg_both</title>
<polygon fill="#90ee90" stroke="black" points="420.3,-434 326.3,-434 326.3,-398 420.3,-398 420.3,-434"/>
<text text-anchor="middle" x="373.3" y="-413.5" font-family="Helvetica,sans-Serif" font-size="10.00">In Tool + Fuzzer</text>
</g>
<!-- leg_tool -->
<g id="node2" class="node">
<title>leg_tool</title>
<polygon fill="#add8e6" stroke="black" points="308.3,-434 246.3,-434 246.3,-398 308.3,-398 308.3,-434"/>
<text text-anchor="middle" x="277.3" y="-413.5" font-family="Helvetica,sans-Serif" font-size="10.00">Tool Only</text>
</g>
<!-- leg_cli -->
<g id="node3" class="node">
<title>leg_cli</title>
<polygon fill="#d3d3d3" stroke="black" points="227.8,-434 170.8,-434 170.8,-398 227.8,-398 227.8,-434"/>
<text text-anchor="middle" x="199.3" y="-413.5" font-family="Helvetica,sans-Serif" font-size="10.00">CLI Only</text>
</g>
<!-- leg_hot -->
<g id="node4" class="node">
<title>leg_hot</title>
<polygon fill="#ff6347" stroke="black" points="152.3,-434 70.3,-434 70.3,-398 152.3,-398 152.3,-434"/>
<text text-anchor="middle" x="111.3" y="-413.5" font-family="Helvetica,sans-Serif" font-size="10.00">Alloc Hotspot</text>
</g>
<!-- tool -->
<g id="node5" class="node">
<title>tool</title>
<ellipse fill="#ff6b6b" stroke="black" cx="579.3" cy="-416" rx="70.92" ry="21.43"/>
<text text-anchor="middle" x="579.3" y="-419" font-family="Helvetica,sans-Serif" font-size="10.00">main()</text>
<text text-anchor="middle" x="579.3" y="-408" font-family="Helvetica,sans-Serif" font-size="10.00">iccFromCube.cpp</text>
</g>
<!-- usage -->
<g id="node7" class="node">
<title>usage</title>
<polygon fill="#d3d3d3" stroke="black" points="188.8,-351 133.8,-351 133.8,-315 188.8,-315 188.8,-351"/>
<text text-anchor="middle" x="161.3" y="-330.5" font-family="Helvetica,sans-Serif" font-size="10.00">Usage()</text>
</g>
<!-- tool&#45;&gt;usage -->
<g id="edge1" class="edge">
<title>tool&#45;&gt;usage</title>
<path fill="none" stroke="black" stroke-dasharray="5,2" d="M521.95,-403.41C494.88,-398.41 462.05,-393.02 432.3,-390 406.42,-387.37 221.45,-393.88 198.3,-382 188.86,-377.15 181.11,-368.66 175.18,-360.16"/>
<polygon fill="black" stroke="black" points="177.98,-358.03 169.68,-351.45 172.06,-361.77 177.98,-358.03"/>
</g>
<!-- argv1 -->
<g id="node8" class="node">
<title>argv1</title>
<polygon fill="#d3d3d3" stroke="black" points="115.3,-351 35.3,-351 35.3,-315 115.3,-315 115.3,-351"/>
<text text-anchor="middle" x="75.3" y="-330.5" font-family="Helvetica,sans-Serif" font-size="10.00">argv[1] input</text>
</g>
<!-- tool&#45;&gt;argv1 -->
<g id="edge2" class="edge">
<title>tool&#45;&gt;argv1</title>
<path fill="none" stroke="black" stroke-dasharray="5,2" d="M522.31,-403.36C495.18,-398.32 462.19,-392.92 432.3,-390 398.34,-386.69 156.79,-395.15 125.3,-382 113.45,-377.05 102.79,-367.89 94.39,-358.88"/>
<polygon fill="black" stroke="black" points="96.83,-356.35 87.61,-351.12 91.55,-360.95 96.83,-356.35"/>
</g>
<!-- argv2 -->
<g id="node9" class="node">
<title>argv2</title>
<polygon fill="#d3d3d3" stroke="black" points="293.3,-351 207.3,-351 207.3,-315 293.3,-315 293.3,-351"/>
<text text-anchor="middle" x="250.3" y="-330.5" font-family="Helvetica,sans-Serif" font-size="10.00">argv[2] output</text>
</g>
<!-- tool&#45;&gt;argv2 -->
<g id="edge10" class="edge">
<title>tool&#45;&gt;argv2</title>
<path fill="none" stroke="black" stroke-dasharray="5,2" d="M521.56,-403.73C494.54,-398.83 461.88,-393.44 432.3,-390 404.22,-386.74 331.46,-392.76 305.3,-382 292.85,-376.88 281.26,-367.74 271.96,-358.8"/>
<polygon fill="black" stroke="black" points="274.23,-356.11 264.72,-351.43 269.23,-361.02 274.23,-356.11"/>
</g>
<!-- cubefile -->
<g id="node10" class="node">
<title>cubefile</title>
<polygon fill="#90ee90" stroke="black" points="888.8,-351 779.8,-351 779.8,-315 888.8,-315 888.8,-351"/>
<text text-anchor="middle" x="834.3" y="-330.5" font-family="Helvetica,sans-Serif" font-size="10.00">CubeFile(filename)</text>
</g>
<!-- tool&#45;&gt;cubefile -->
<g id="edge3" class="edge">
<title>tool&#45;&gt;cubefile</title>
<path fill="none" stroke="black" d="M638.77,-404.49C664.46,-399.99 694.85,-394.69 722.3,-390 743.62,-386.36 750.42,-390.51 770.3,-382 784.04,-376.12 797.53,-366.71 808.56,-357.77"/>
<polygon fill="black" stroke="black" points="811.09,-360.21 816.48,-351.09 806.58,-354.86 811.09,-360.21"/>
</g>
<!-- parseheader -->
<g id="node11" class="node">
<title>parseheader</title>
<polygon fill="#90ee90" stroke="black" stroke-width="3" points="761.3,-351 675.3,-351 675.3,-315 761.3,-315 761.3,-351"/>
<text text-anchor="middle" x="718.3" y="-336" font-family="Helvetica,sans-Serif" font-size="10.00">parseHeader()</text>
<text text-anchor="middle" x="718.3" y="-325" font-family="Helvetica,sans-Serif" font-size="10.00">MAIN ENTRY</text>
</g>
<!-- tool&#45;&gt;parseheader -->
<g id="edge4" class="edge">
<title>tool&#45;&gt;parseheader</title>
<path fill="none" stroke="black" stroke-width="2" d="M626,-399.93C638.53,-395.02 651.79,-389 663.3,-382 674.19,-375.38 685.02,-366.56 694.14,-358.28"/>
<polygon fill="black" stroke="black" stroke-width="2" points="696.78,-360.61 701.68,-351.22 691.99,-355.5 696.78,-360.61"/>
</g>
<!-- sizelut -->
<g id="node17" class="node">
<title>sizelut</title>
<polygon fill="#90ee90" stroke="black" points="1087.3,-351 1015.3,-351 1015.3,-315 1087.3,-315 1087.3,-351"/>
<text text-anchor="middle" x="1051.3" y="-330.5" font-family="Helvetica,sans-Serif" font-size="10.00">sizeLut3D()</text>
</g>
<!-- tool&#45;&gt;sizelut -->
<g id="edge5" class="edge">
<title>tool&#45;&gt;sizelut</title>
<path fill="none" stroke="black" d="M635.76,-403.19C661.96,-398.21 693.59,-392.9 722.3,-390 753.71,-386.83 977.52,-394.96 1006.3,-382 1017.31,-377.05 1026.9,-368.01 1034.36,-359.1"/>
<polygon fill="black" stroke="black" points="1037.22,-361.11 1040.6,-351.07 1031.7,-356.82 1037.22,-361.11"/>
</g>
<!-- parse3d -->
<g id="node18" class="node">
<title>parse3d</title>
<polygon fill="#90ee90" stroke="black" stroke-width="2" points="997.3,-351 907.3,-351 907.3,-315 997.3,-315 997.3,-351"/>
<text text-anchor="middle" x="952.3" y="-336" font-family="Helvetica,sans-Serif" font-size="10.00">parse3DTable()</text>
<text text-anchor="middle" x="952.3" y="-325" font-family="Helvetica,sans-Serif" font-size="10.00">N³ float parse</text>
</g>
<!-- tool&#45;&gt;parse3d -->
<g id="edge8" class="edge">
<title>tool&#45;&gt;parse3d</title>
<path fill="none" stroke="black" stroke-width="2" d="M636.13,-403.35C662.26,-398.43 693.74,-393.13 722.3,-390 761.22,-385.73 862.03,-396.74 898.3,-382 910.83,-376.91 922.39,-367.59 931.56,-358.51"/>
<polygon fill="black" stroke="black" stroke-width="2" points="934.32,-360.69 938.68,-351.04 929.25,-355.87 934.32,-360.69"/>
</g>
<!-- initheader -->
<g id="node19" class="node">
<title>initheader</title>
<polygon fill="#90ee90" stroke="black" points="651.8,-351 576.8,-351 576.8,-315 651.8,-315 651.8,-351"/>
<text text-anchor="middle" x="614.3" y="-330.5" font-family="Helvetica,sans-Serif" font-size="10.00">InitHeader()</text>
</g>
<!-- tool&#45;&gt;initheader -->
<g id="edge6" class="edge">
<title>tool&#45;&gt;initheader</title>
<path fill="none" stroke="black" d="M588.14,-394.56C592.62,-384.19 598.11,-371.48 602.9,-360.38"/>
<polygon fill="black" stroke="black" points="606.14,-361.72 606.9,-351.15 599.72,-358.94 606.14,-361.72"/>
</g>
<!-- mpe_tag -->
<g id="node20" class="node">
<title>mpe_tag</title>
<polygon fill="#90ee90" stroke="black" points="558.8,-351 461.8,-351 461.8,-315 558.8,-315 558.8,-351"/>
<text text-anchor="middle" x="510.3" y="-330.5" font-family="Helvetica,sans-Serif" font-size="10.00">CIccTagMPE(3,3)</text>
</g>
<!-- tool&#45;&gt;mpe_tag -->
<g id="edge7" class="edge">
<title>tool&#45;&gt;mpe_tag</title>
<path fill="none" stroke="black" d="M562.25,-394.98C552.91,-384.01 541.26,-370.34 531.36,-358.71"/>
<polygon fill="black" stroke="black" points="533.98,-356.4 524.83,-351.05 528.65,-360.94 533.98,-356.4"/>
</g>
<!-- save -->
<g id="node29" class="node">
<title>save</title>
<polygon fill="#90ee90" stroke="black" points="767.3,-52 675.3,-52 675.3,-16 767.3,-16 767.3,-52"/>
<text text-anchor="middle" x="721.3" y="-31.5" font-family="Helvetica,sans-Serif" font-size="10.00">SaveIccProfile()</text>
</g>
<!-- tool&#45;&gt;save -->
<g id="edge9" class="edge">
<title>tool&#45;&gt;save</title>
<path fill="none" stroke="black" d="M522.32,-403.28C495.19,-398.22 462.2,-392.82 432.3,-390 420.99,-388.93 31.78,-389.57 23.3,-382 -16.83,-346.16 7.3,-315.81 7.3,-262 7.3,-262 7.3,-262 7.3,-177 7.3,-43.07 496.67,-33.57 665.13,-34.27"/>
<polygon fill="black" stroke="black" points="665.26,-37.77 675.28,-34.33 665.3,-30.77 665.26,-37.77"/>
</g>
<!-- fuzzer -->
<g id="node6" class="node">
<title>fuzzer</title>
<ellipse fill="#ff6b6b" stroke="black" cx="834.3" cy="-416" rx="102.56" ry="21.43"/>
<text text-anchor="middle" x="834.3" y="-419" font-family="Helvetica,sans-Serif" font-size="10.00">LLVMFuzzerTestOneInput()</text>
<text text-anchor="middle" x="834.3" y="-408" font-family="Helvetica,sans-Serif" font-size="10.00">icc_fromcube_fuzzer.cpp</text>
</g>
<!-- fuzzer&#45;&gt;cubefile -->
<g id="edge11" class="edge">
<title>fuzzer&#45;&gt;cubefile</title>
<path fill="none" stroke="green" d="M834.3,-394.56C834.3,-384.51 834.3,-372.25 834.3,-361.4"/>
<polygon fill="green" stroke="green" points="837.8,-361.15 834.3,-351.15 830.8,-361.15 837.8,-361.15"/>
</g>
<!-- fuzzer&#45;&gt;parseheader -->
<g id="edge12" class="edge">
<title>fuzzer&#45;&gt;parseheader</title>
<path fill="none" stroke="green" stroke-width="2" d="M794.75,-396.25C786.77,-391.92 778.59,-387.09 771.3,-382 761.23,-374.97 751.02,-366.2 742.28,-358.08"/>
<polygon fill="green" stroke="green" stroke-width="2" points="744.69,-355.54 735.03,-351.18 739.86,-360.61 744.69,-355.54"/>
</g>
<!-- fuzzer&#45;&gt;sizelut -->
<g id="edge13" class="edge">
<title>fuzzer&#45;&gt;sizelut</title>
<path fill="none" stroke="green" d="M929.03,-407.7C955.22,-402.85 982.87,-394.91 1006.3,-382 1016.46,-376.4 1025.64,-367.69 1033.02,-359.22"/>
<polygon fill="green" stroke="green" points="1035.9,-361.24 1039.52,-351.28 1030.48,-356.8 1035.9,-361.24"/>
</g>
<!-- fuzzer&#45;&gt;parse3d -->
<g id="edge16" class="edge">
<title>fuzzer&#45;&gt;parse3d</title>
<path fill="none" stroke="green" stroke-width="2" d="M874.12,-396.43C882.34,-392.06 890.78,-387.16 898.3,-382 908.54,-374.97 918.94,-366.2 927.84,-358.09"/>
<polygon fill="green" stroke="green" stroke-width="2" points="930.31,-360.57 935.23,-351.19 925.53,-355.45 930.31,-360.57"/>
</g>
<!-- fuzzer&#45;&gt;initheader -->
<g id="edge14" class="edge">
<title>fuzzer&#45;&gt;initheader</title>
<path fill="none" stroke="green" d="M740.92,-407.06C714.75,-402.2 687,-394.42 663.3,-382 652.48,-376.33 642.47,-367.49 634.35,-358.94"/>
<polygon fill="green" stroke="green" points="636.74,-356.37 627.45,-351.27 631.53,-361.04 636.74,-356.37"/>
</g>
<!-- fuzzer&#45;&gt;mpe_tag -->
<g id="edge15" class="edge">
<title>fuzzer&#45;&gt;mpe_tag</title>
<path fill="none" stroke="green" d="M754.27,-402.64C724.5,-398.28 690.4,-393.59 659.3,-390 639.14,-387.67 587.08,-389.71 568.3,-382 555.33,-376.67 543.04,-367.38 533.14,-358.38"/>
<polygon fill="green" stroke="green" points="535.39,-355.69 525.75,-351.3 530.55,-360.75 535.39,-355.69"/>
</g>
<!-- fuzzer&#45;&gt;save -->
<g id="edge17" class="edge">
<title>fuzzer&#45;&gt;save</title>
<path fill="none" stroke="green" d="M934.51,-411.35C1027.02,-406.99 1152.57,-398.17 1169.3,-382 1208,-344.61 1185.3,-315.81 1185.3,-262 1185.3,-262 1185.3,-262 1185.3,-177 1185.3,-92.6 901.06,-53.33 777.52,-40.25"/>
<polygon fill="green" stroke="green" points="777.8,-36.76 767.49,-39.2 777.08,-43.72 777.8,-36.76"/>
</g>
<!-- getnextline -->
<g id="node12" class="node">
<title>getnextline</title>
<polygon fill="#90ee90" stroke="black" points="763.3,-279 675.3,-279 675.3,-243 763.3,-243 763.3,-279"/>
<text text-anchor="middle" x="719.3" y="-264" font-family="Helvetica,sans-Serif" font-size="10.00">getNextLine()</text>
<text text-anchor="middle" x="719.3" y="-253" font-family="Helvetica,sans-Serif" font-size="10.00">(255&#45;byte cap)</text>
</g>
<!-- parseheader&#45;&gt;getnextline -->
<g id="edge18" class="edge">
<title>parseheader&#45;&gt;getnextline</title>
<path fill="none" stroke="black" d="M718.55,-314.7C718.66,-306.98 718.79,-297.71 718.92,-289.11"/>
<polygon fill="black" stroke="black" points="722.42,-289.15 719.06,-279.1 715.42,-289.05 722.42,-289.15"/>
</g>
<!-- gettitle -->
<g id="node13" class="node">
<title>gettitle</title>
<polygon fill="#90ee90" stroke="black" points="843.3,-279 781.3,-279 781.3,-243 843.3,-243 843.3,-279"/>
<text text-anchor="middle" x="812.3" y="-258.5" font-family="Helvetica,sans-Serif" font-size="10.00">getTitle()</text>
</g>
<!-- parseheader&#45;&gt;gettitle -->
<g id="edge19" class="edge">
<title>parseheader&#45;&gt;gettitle</title>
<path fill="none" stroke="black" d="M741.54,-314.7C753.49,-305.8 768.23,-294.82 781.15,-285.2"/>
<polygon fill="black" stroke="black" points="783.41,-287.88 789.34,-279.1 779.22,-282.27 783.41,-287.88"/>
</g>
<!-- getnext -->
<g id="node14" class="node">
<title>getnext</title>
<polygon fill="#90ee90" stroke="black" points="924.8,-279 861.8,-279 861.8,-243 924.8,-243 924.8,-279"/>
<text text-anchor="middle" x="893.3" y="-258.5" font-family="Helvetica,sans-Serif" font-size="10.00">getNext()</text>
</g>
<!-- parseheader&#45;&gt;getnext -->
<g id="edge20" class="edge">
<title>parseheader&#45;&gt;getnext</title>
<path fill="none" stroke="black" d="M753.13,-314.92C759.14,-312.16 765.37,-309.42 771.3,-307 803.96,-293.7 815.06,-292.62 852.15,-278.92"/>
<polygon fill="black" stroke="black" points="853.47,-282.16 861.6,-275.37 851,-275.61 853.47,-282.16"/>
</g>
<!-- atoll_size -->
<g id="node15" class="node">
<title>atoll_size</title>
<polygon fill="#90ee90" stroke="black" points="1053.3,-279 943.3,-279 943.3,-243 1053.3,-243 1053.3,-279"/>
<text text-anchor="middle" x="998.3" y="-264" font-family="Helvetica,sans-Serif" font-size="10.00">atoll(LUT_3D_SIZE)</text>
<text text-anchor="middle" x="998.3" y="-253" font-family="Helvetica,sans-Serif" font-size="10.00">overflow check</text>
</g>
<!-- parseheader&#45;&gt;atoll_size -->
<g id="edge21" class="edge">
<title>parseheader&#45;&gt;atoll_size</title>
<path fill="none" stroke="black" d="M750.83,-314.98C757.47,-311.98 764.51,-309.14 771.3,-307 838.4,-285.85 860.59,-293.89 933.14,-279.1"/>
<polygon fill="black" stroke="black" points="934.16,-282.46 943.22,-276.97 932.71,-275.61 934.16,-282.46"/>
</g>
<!-- atof_domain -->
<g id="node16" class="node">
<title>atof_domain</title>
<polygon fill="#90ee90" stroke="black" points="1156.8,-279 1071.8,-279 1071.8,-243 1156.8,-243 1156.8,-279"/>
<text text-anchor="middle" x="1114.3" y="-258.5" font-family="Helvetica,sans-Serif" font-size="10.00">atof(DOMAIN)</text>
</g>
<!-- parseheader&#45;&gt;atof_domain -->
<g id="edge22" class="edge">
<title>parseheader&#45;&gt;atof_domain</title>
<path fill="none" stroke="black" d="M749.86,-314.96C756.76,-311.85 764.14,-308.97 771.3,-307 893.53,-273.39 933.19,-304 1061.83,-278.77"/>
<polygon fill="black" stroke="black" points="1062.56,-282.19 1071.66,-276.77 1061.16,-275.33 1062.56,-282.19"/>
</g>
<!-- curveset -->
<g id="node21" class="node">
<title>curveset</title>
<polygon fill="#90ee90" stroke="black" points="433.3,-279 317.3,-279 317.3,-243 433.3,-243 433.3,-279"/>
<text text-anchor="middle" x="375.3" y="-258.5" font-family="Helvetica,sans-Serif" font-size="10.00">CIccMpeCurveSet(3)</text>
</g>
<!-- mpe_tag&#45;&gt;curveset -->
<g id="edge23" class="edge">
<title>mpe_tag&#45;&gt;curveset</title>
<path fill="none" stroke="black" d="M477.28,-314.88C459.22,-305.51 436.66,-293.81 417.35,-283.8"/>
<polygon fill="black" stroke="black" points="418.94,-280.69 408.46,-279.19 415.72,-286.9 418.94,-280.69"/>
</g>
<!-- mpeclut -->
<g id="node23" class="node">
<title>mpeclut</title>
<polygon fill="#90ee90" stroke="black" points="534.8,-279 451.8,-279 451.8,-243 534.8,-243 534.8,-279"/>
<text text-anchor="middle" x="493.3" y="-258.5" font-family="Helvetica,sans-Serif" font-size="10.00">CIccMpeCLUT</text>
</g>
<!-- mpe_tag&#45;&gt;mpeclut -->
<g id="edge25" class="edge">
<title>mpe_tag&#45;&gt;mpeclut</title>
<path fill="none" stroke="black" d="M506.1,-314.7C504.21,-306.9 501.93,-297.51 499.82,-288.83"/>
<polygon fill="black" stroke="black" points="503.22,-288 497.46,-279.1 496.42,-289.65 503.22,-288"/>
</g>
<!-- attach_a2b -->
<g id="node26" class="node">
<title>attach_a2b</title>
<polygon fill="#90ee90" stroke="black" points="651.3,-279 553.3,-279 553.3,-243 651.3,-243 651.3,-279"/>
<text text-anchor="middle" x="602.3" y="-258.5" font-family="Helvetica,sans-Serif" font-size="10.00">AttachTag(A2B0)</text>
</g>
<!-- mpe_tag&#45;&gt;attach_a2b -->
<g id="edge28" class="edge">
<title>mpe_tag&#45;&gt;attach_a2b</title>
<path fill="none" stroke="black" d="M533.05,-314.7C544.74,-305.8 559.17,-294.82 571.81,-285.2"/>
<polygon fill="black" stroke="black" points="573.99,-287.94 579.82,-279.1 569.75,-282.37 573.99,-287.94"/>
</g>
<!-- curves -->
<g id="node22" class="node">
<title>curves</title>
<polygon fill="#90ee90" stroke="black" points="435.3,-196 317.3,-196 317.3,-160 435.3,-160 435.3,-196"/>
<text text-anchor="middle" x="376.3" y="-181" font-family="Helvetica,sans-Serif" font-size="10.00">SingleSampledCurve</text>
<text text-anchor="middle" x="376.3" y="-170" font-family="Helvetica,sans-Serif" font-size="10.00">(per channel)</text>
</g>
<!-- curveset&#45;&gt;curves -->
<g id="edge24" class="edge">
<title>curveset&#45;&gt;curves</title>
<path fill="none" stroke="black" d="M375.52,-242.82C375.65,-232.19 375.82,-218.31 375.97,-206.2"/>
<polygon fill="black" stroke="black" points="379.47,-206.2 376.09,-196.15 372.47,-206.11 379.47,-206.2"/>
</g>
<!-- clut -->
<g id="node24" class="node">
<title>clut</title>
<polygon fill="#90ee90" stroke="black" points="538.8,-196 453.8,-196 453.8,-160 538.8,-160 538.8,-196"/>
<text text-anchor="middle" x="496.3" y="-175.5" font-family="Helvetica,sans-Serif" font-size="10.00">CIccCLUT(3,3)</text>
</g>
<!-- mpeclut&#45;&gt;clut -->
<g id="edge26" class="edge">
<title>mpeclut&#45;&gt;clut</title>
<path fill="none" stroke="black" d="M493.94,-242.82C494.33,-232.19 494.85,-218.31 495.3,-206.2"/>
<polygon fill="black" stroke="black" points="498.8,-206.28 495.67,-196.15 491.8,-206.02 498.8,-206.28"/>
</g>
<!-- clut_init -->
<g id="node25" class="node">
<title>clut_init</title>
<polygon fill="#ff6347" stroke="black" stroke-width="3" points="545.3,-124 447.3,-124 447.3,-88 545.3,-88 545.3,-124"/>
<text text-anchor="middle" x="496.3" y="-109" font-family="Helvetica,sans-Serif" font-size="10.00">pCLUT&#45;&gt;Init()</text>
<text text-anchor="middle" x="496.3" y="-98" font-family="Helvetica,sans-Serif" font-size="10.00">ALLOC HOTSPOT</text>
</g>
<!-- clut&#45;&gt;clut_init -->
<g id="edge27" class="edge">
<title>clut&#45;&gt;clut_init</title>
<path fill="none" stroke="red" stroke-width="2" d="M496.3,-159.7C496.3,-151.98 496.3,-142.71 496.3,-134.11"/>
<polygon fill="red" stroke="red" stroke-width="2" points="499.8,-134.1 496.3,-124.1 492.8,-134.1 499.8,-134.1"/>
</g>
<!-- desc_tag -->
<g id="node27" class="node">
<title>desc_tag</title>
<polygon fill="#90ee90" stroke="black" points="767.3,-196 675.3,-196 675.3,-160 767.3,-160 767.3,-196"/>
<text text-anchor="middle" x="721.3" y="-175.5" font-family="Helvetica,sans-Serif" font-size="10.00">Description Tag</text>
</g>
<!-- attach_a2b&#45;&gt;desc_tag -->
<g id="edge29" class="edge">
<title>attach_a2b&#45;&gt;desc_tag</title>
<path fill="none" stroke="black" d="M636.56,-242.99C645.47,-238.16 654.92,-232.66 663.3,-227 674.05,-219.75 685.18,-210.9 694.78,-202.8"/>
<polygon fill="black" stroke="black" points="697.15,-205.38 702.45,-196.21 692.58,-200.07 697.15,-205.38"/>
</g>
<!-- copy_tag -->
<g id="node28" class="node">
<title>copy_tag</title>
<polygon fill="#90ee90" stroke="black" points="762.8,-124 679.8,-124 679.8,-88 762.8,-88 762.8,-124"/>
<text text-anchor="middle" x="721.3" y="-103.5" font-family="Helvetica,sans-Serif" font-size="10.00">Copyright Tag</text>
</g>
<!-- desc_tag&#45;&gt;copy_tag -->
<g id="edge30" class="edge">
<title>desc_tag&#45;&gt;copy_tag</title>
<path fill="none" stroke="black" d="M721.3,-159.7C721.3,-151.98 721.3,-142.71 721.3,-134.11"/>
<polygon fill="black" stroke="black" points="724.8,-134.1 721.3,-124.1 717.8,-134.1 724.8,-134.1"/>
</g>
<!-- copy_tag&#45;&gt;save -->
<g id="edge31" class="edge">
<title>copy_tag&#45;&gt;save</title>
<path fill="none" stroke="black" d="M721.3,-87.7C721.3,-79.98 721.3,-70.71 721.3,-62.11"/>
<polygon fill="black" stroke="black" points="724.8,-62.1 721.3,-52.1 717.8,-62.1 724.8,-62.1"/>
</g>
</g>
</svg>
