<?xml version="1.0" encoding="UTF-8" standalone="no"?>
<!DOCTYPE svg PUBLIC "-//W3C//DTD SVG 1.1//EN"
 "http://www.w3.org/Graphics/SVG/1.1/DTD/svg11.dtd">
<!-- Generated by graphviz version 2.43.0 (0)
 -->
<!-- Title: iccToXml Pages: 1 -->
<svg width="1450pt" height="337pt"
 viewBox="0.00 0.00 1450.00 337.00" xmlns="http://www.w3.org/2000/svg" xmlns:xlink="http://www.w3.org/1999/xlink">
<g id="graph0" class="graph" transform="scale(1 1) rotate(0) translate(4 333)">
<title>iccToXml</title>
<polygon fill="white" stroke="transparent" points="-4,4 -4,-333 1446,-333 1446,4 -4,4"/>
<g id="clust1" class="cluster">
<title>cluster_legend</title>
<polygon fill="none" stroke="black" stroke-dasharray="5,2" points="8,-251 8,-321 274,-321 274,-251 8,-251"/>
<text text-anchor="middle" x="141" y="-309.8" font-family="Times,serif" font-size="9.00">Legend</text>
</g>
<g id="clust2" class="cluster">
<title>cluster_init</title>
<path fill="none" stroke="black" d="M159,-165.5C159,-165.5 365,-165.5 365,-165.5 371,-165.5 377,-171.5 377,-177.5 377,-177.5 377,-228.5 377,-228.5 377,-234.5 371,-240.5 365,-240.5 365,-240.5 159,-240.5 159,-240.5 153,-240.5 147,-234.5 147,-228.5 147,-228.5 147,-177.5 147,-177.5 147,-171.5 153,-165.5 159,-165.5"/>
<text text-anchor="middle" x="262" y="-225.3" font-family="Times,serif" font-size="14.00">Phase 1: Factory Init</text>
</g>
<g id="clust3" class="cluster">
<title>cluster_cli</title>
<path fill="none" stroke="black" d="M1339,-165.5C1339,-165.5 1422,-165.5 1422,-165.5 1428,-165.5 1434,-171.5 1434,-177.5 1434,-177.5 1434,-228.5 1434,-228.5 1434,-234.5 1428,-240.5 1422,-240.5 1422,-240.5 1339,-240.5 1339,-240.5 1333,-240.5 1327,-234.5 1327,-228.5 1327,-228.5 1327,-177.5 1327,-177.5 1327,-171.5 1333,-165.5 1339,-165.5"/>
<text text-anchor="middle" x="1380.5" y="-225.3" font-family="Times,serif" font-size="14.00">Phase 2: CLI</text>
</g>
<g id="clust4" class="cluster">
<title>cluster_load</title>
<path fill="none" stroke="red" d="M397,-163C397,-163 621,-163 621,-163 627,-163 633,-169 633,-175 633,-175 633,-231 633,-231 633,-237 627,-243 621,-243 621,-243 397,-243 397,-243 391,-243 385,-237 385,-231 385,-231 385,-175 385,-175 385,-169 391,-163 397,-163"/>
<text text-anchor="middle" x="509" y="-227.8" font-family="Times,serif" font-size="14.00">Phase 3: Profile Loading</text>
</g>
<g id="clust5" class="cluster">
<title>cluster_convert</title>
<path fill="none" stroke="red" d="M653,-165.5C653,-165.5 949,-165.5 949,-165.5 955,-165.5 961,-171.5 961,-177.5 961,-177.5 961,-228.5 961,-228.5 961,-234.5 955,-240.5 949,-240.5 949,-240.5 653,-240.5 653,-240.5 647,-240.5 641,-234.5 641,-228.5 641,-228.5 641,-177.5 641,-177.5 641,-171.5 647,-165.5 653,-165.5"/>
<text text-anchor="middle" x="801" y="-225.3" font-family="Times,serif" font-size="14.00">Phase 4: XML Conversion (Attack Surface)</text>
</g>
<g id="clust6" class="cluster">
<title>cluster_output</title>
<path fill="none" stroke="black" d="M981,-165.5C981,-165.5 1307,-165.5 1307,-165.5 1313,-165.5 1319,-171.5 1319,-177.5 1319,-177.5 1319,-228.5 1319,-228.5 1319,-234.5 1313,-240.5 1307,-240.5 1307,-240.5 981,-240.5 981,-240.5 975,-240.5 969,-234.5 969,-228.5 969,-228.5 969,-177.5 969,-177.5 969,-171.5 975,-165.5 981,-165.5"/>
<text text-anchor="middle" x="1144" y="-225.3" font-family="Times,serif" font-size="14.00">Phase 5: Output Writing</text>
</g>
<g id="clust7" class="cluster">
<title>cluster_deep</title>
<path fill="none" stroke="red" d="M399,-8C399,-8 763,-8 763,-8 769,-8 775,-14 775,-20 775,-20 775,-143 775,-143 775,-149 769,-155 763,-155 763,-155 399,-155 399,-155 393,-155 387,-149 387,-143 387,-143 387,-20 387,-20 387,-14 393,-8 399,-8"/>
<text text-anchor="middle" x="581" y="-139.8" font-family="Times,serif" font-size="14.00">Phase 6: Deep Call Chains</text>
</g>
<!-- leg_both -->
<g id="node1" class="node">
<title>leg_both</title>
<polygon fill="#90ee90" stroke="black" points="266,-295 172,-295 172,-259 266,-259 266,-295"/>
<text text-anchor="middle" x="219" y="-274.5" font-family="Helvetica,sans-Serif" font-size="10.00">In Tool + Fuzzer</text>
</g>
<!-- leg_tool -->
<g id="node2" class="node">
<title>leg_tool</title>
<polygon fill="#add8e6" stroke="black" points="154,-295 92,-295 92,-259 154,-259 154,-295"/>
<text text-anchor="middle" x="123" y="-274.5" font-family="Helvetica,sans-Serif" font-size="10.00">Tool Only</text>
</g>
<!-- leg_cli -->
<g id="node3" class="node">
<title>leg_cli</title>
<polygon fill="#d3d3d3" stroke="black" points="73.5,-295 16.5,-295 16.5,-259 73.5,-259 73.5,-295"/>
<text text-anchor="middle" x="45" y="-274.5" font-family="Helvetica,sans-Serif" font-size="10.00">CLI Only</text>
</g>
<!-- tool -->
<g id="node4" class="node">
<title>tool</title>
<ellipse fill="#ff6b6b" stroke="black" cx="778" cy="-277" rx="56.64" ry="21.43"/>
<text text-anchor="middle" x="778" y="-280" font-family="Helvetica,sans-Serif" font-size="10.00">main()</text>
<text text-anchor="middle" x="778" y="-269" font-family="Helvetica,sans-Serif" font-size="10.00">IccToXml.cpp</text>
</g>
<!-- tag_factory -->
<g id="node6" class="node">
<title>tag_factory</title>
<polygon fill="#90ee90" stroke="black" points="368.5,-209.5 273.5,-209.5 273.5,-173.5 368.5,-173.5 368.5,-209.5"/>
<text text-anchor="middle" x="321" y="-194.5" font-family="Helvetica,sans-Serif" font-size="10.00">PushFactory</text>
<text text-anchor="middle" x="321" y="-183.5" font-family="Helvetica,sans-Serif" font-size="10.00">(TagXmlFactory)</text>
</g>
<!-- tool&#45;&gt;tag_factory -->
<g id="edge1" class="edge">
<title>tool&#45;&gt;tag_factory</title>
<path fill="none" stroke="black" d="M723.76,-270.79C667.56,-265.47 577.18,-257.15 499,-251 472.8,-248.94 405.37,-252.84 381,-243 366.91,-237.31 353.71,-226.99 343.3,-217.16"/>
<polygon fill="black" stroke="black" points="345.47,-214.38 335.91,-209.81 340.53,-219.35 345.47,-214.38"/>
</g>
<!-- mpe_factory -->
<g id="node7" class="node">
<title>mpe_factory</title>
<polygon fill="#90ee90" stroke="black" points="255,-209.5 155,-209.5 155,-173.5 255,-173.5 255,-209.5"/>
<text text-anchor="middle" x="205" y="-194.5" font-family="Helvetica,sans-Serif" font-size="10.00">PushFactory</text>
<text text-anchor="middle" x="205" y="-183.5" font-family="Helvetica,sans-Serif" font-size="10.00">(MpeXmlFactory)</text>
</g>
<!-- tool&#45;&gt;mpe_factory -->
<g id="edge2" class="edge">
<title>tool&#45;&gt;mpe_factory</title>
<path fill="none" stroke="black" d="M724.32,-270.3C668.19,-264.55 577.51,-255.85 499,-251 472.92,-249.39 288.35,-252.47 264,-243 249.98,-237.55 236.98,-227.26 226.76,-217.38"/>
<polygon fill="black" stroke="black" points="229.03,-214.69 219.53,-209.99 224.03,-219.59 229.03,-214.69"/>
</g>
<!-- usage -->
<g id="node8" class="node">
<title>usage</title>
<polygon fill="#d3d3d3" stroke="black" points="1415,-209.5 1335,-209.5 1335,-173.5 1415,-173.5 1415,-209.5"/>
<text text-anchor="middle" x="1375" y="-189" font-family="Helvetica,sans-Serif" font-size="10.00">printf(usage)</text>
</g>
<!-- tool&#45;&gt;usage -->
<g id="edge3" class="edge">
<title>tool&#45;&gt;usage</title>
<path fill="none" stroke="black" stroke-dasharray="5,2" d="M834.67,-274.79C965.2,-271.7 1279.21,-262.33 1323,-243 1335.72,-237.39 1347.14,-227.21 1356.02,-217.46"/>
<polygon fill="black" stroke="black" points="1358.72,-219.7 1362.57,-209.83 1353.41,-215.14 1358.72,-219.7"/>
</g>
<!-- fileio_open -->
<g id="node9" class="node">
<title>fileio_open</title>
<polygon fill="#add8e6" stroke="black" points="625,-209.5 529,-209.5 529,-173.5 625,-173.5 625,-209.5"/>
<text text-anchor="middle" x="577" y="-194.5" font-family="Helvetica,sans-Serif" font-size="10.00">CIccFileIO::Open</text>
<text text-anchor="middle" x="577" y="-183.5" font-family="Helvetica,sans-Serif" font-size="10.00">L26</text>
</g>
<!-- tool&#45;&gt;fileio_open -->
<g id="edge4" class="edge">
<title>tool&#45;&gt;fileio_open</title>
<path fill="none" stroke="black" stroke-dasharray="5,2" d="M724.75,-269.58C697.45,-264.82 664.31,-256.69 637,-243 623.81,-236.39 611.03,-226.32 600.69,-216.91"/>
<polygon fill="black" stroke="black" points="602.95,-214.24 593.28,-209.92 598.14,-219.33 602.95,-214.24"/>
</g>
<!-- profile_read -->
<g id="node10" class="node">
<title>profile_read</title>
<polygon fill="#90ee90" stroke="black" stroke-width="3" points="511,-212 393,-212 393,-171 511,-171 511,-212"/>
<text text-anchor="middle" x="452" y="-200" font-family="Helvetica,sans-Serif" font-size="10.00">CIccProfileXml::Read</text>
<text text-anchor="middle" x="452" y="-189" font-family="Helvetica,sans-Serif" font-size="10.00">L31</text>
<text text-anchor="middle" x="452" y="-178" font-family="Helvetica,sans-Serif" font-size="10.00">MAIN ENTRY</text>
</g>
<!-- tool&#45;&gt;profile_read -->
<g id="edge5" class="edge">
<title>tool&#45;&gt;profile_read</title>
<path fill="none" stroke="black" stroke-width="2" d="M722.84,-272.23C658.29,-267.25 555.71,-257.39 520,-243 505.84,-237.3 491.98,-227.91 480.51,-218.78"/>
<polygon fill="black" stroke="black" stroke-width="2" points="482.54,-215.91 472.61,-212.22 478.07,-221.3 482.54,-215.91"/>
</g>
<!-- reserve -->
<g id="node11" class="node">
<title>reserve</title>
<polygon fill="#add8e6" stroke="black" points="885.5,-209.5 798.5,-209.5 798.5,-173.5 885.5,-173.5 885.5,-209.5"/>
<text text-anchor="middle" x="842" y="-194.5" font-family="Helvetica,sans-Serif" font-size="10.00">string::reserve</text>
<text text-anchor="middle" x="842" y="-183.5" font-family="Helvetica,sans-Serif" font-size="10.00">(40MB)</text>
</g>
<!-- tool&#45;&gt;reserve -->
<g id="edge6" class="edge">
<title>tool&#45;&gt;reserve</title>
<path fill="none" stroke="black" stroke-dasharray="5,2" d="M793.17,-256.21C802,-244.69 813.22,-230.05 822.68,-217.71"/>
<polygon fill="black" stroke="black" points="825.59,-219.67 828.89,-209.6 820.03,-215.41 825.59,-219.67"/>
</g>
<!-- toxml -->
<g id="node12" class="node">
<title>toxml</title>
<polygon fill="#90ee90" stroke="black" stroke-width="3" points="780.5,-209.5 649.5,-209.5 649.5,-173.5 780.5,-173.5 780.5,-209.5"/>
<text text-anchor="middle" x="715" y="-194.5" font-family="Helvetica,sans-Serif" font-size="10.00">CIccProfileXml::ToXml</text>
<text text-anchor="middle" x="715" y="-183.5" font-family="Helvetica,sans-Serif" font-size="10.00">MAIN ATTACK SURFACE</text>
</g>
<!-- tool&#45;&gt;toxml -->
<g id="edge7" class="edge">
<title>tool&#45;&gt;toxml</title>
<path fill="none" stroke="black" stroke-width="2" d="M763.07,-256.21C754.38,-244.69 743.33,-230.05 734.02,-217.71"/>
<polygon fill="black" stroke="black" stroke-width="2" points="736.72,-215.48 727.9,-209.6 731.13,-219.69 736.72,-215.48"/>
</g>
<!-- dst_open -->
<g id="node13" class="node">
<title>dst_open</title>
<polygon fill="#add8e6" stroke="black" points="1073,-209.5 977,-209.5 977,-173.5 1073,-173.5 1073,-209.5"/>
<text text-anchor="middle" x="1025" y="-194.5" font-family="Helvetica,sans-Serif" font-size="10.00">CIccFileIO::Open</text>
<text text-anchor="middle" x="1025" y="-183.5" font-family="Helvetica,sans-Serif" font-size="10.00">(dst)</text>
</g>
<!-- tool&#45;&gt;dst_open -->
<g id="edge8" class="edge">
<title>tool&#45;&gt;dst_open</title>
<path fill="none" stroke="black" stroke-dasharray="5,2" d="M834.29,-273.71C872.66,-270.35 923.78,-262.26 965,-243 978.56,-236.66 991.55,-226.45 1001.94,-216.86"/>
<polygon fill="black" stroke="black" points="1004.58,-219.18 1009.36,-209.73 999.73,-214.14 1004.58,-219.18"/>
</g>
<!-- write8 -->
<g id="node14" class="node">
<title>write8</title>
<polygon fill="#add8e6" stroke="black" points="1310.5,-209.5 1207.5,-209.5 1207.5,-173.5 1310.5,-173.5 1310.5,-209.5"/>
<text text-anchor="middle" x="1259" y="-189" font-family="Helvetica,sans-Serif" font-size="10.00">CIccFileIO::Write8</text>
</g>
<!-- tool&#45;&gt;write8 -->
<g id="edge9" class="edge">
<title>tool&#45;&gt;write8</title>
<path fill="none" stroke="black" stroke-dasharray="5,2" d="M834.51,-275.75C933.44,-274.63 1133.6,-269.09 1198,-243 1212.35,-237.18 1225.89,-226.71 1236.54,-216.8"/>
<polygon fill="black" stroke="black" points="1239.05,-219.24 1243.76,-209.76 1234.16,-214.23 1239.05,-219.24"/>
</g>
<!-- close -->
<g id="node15" class="node">
<title>close</title>
<polygon fill="#add8e6" stroke="black" points="1189,-209.5 1091,-209.5 1091,-173.5 1189,-173.5 1189,-209.5"/>
<text text-anchor="middle" x="1140" y="-189" font-family="Helvetica,sans-Serif" font-size="10.00">CIccFileIO::Close</text>
</g>
<!-- tool&#45;&gt;close -->
<g id="edge10" class="edge">
<title>tool&#45;&gt;close</title>
<path fill="none" stroke="black" stroke-dasharray="5,2" d="M834.05,-273.92C909.38,-270.44 1038.83,-261.88 1082,-243 1095.65,-237.03 1108.41,-226.67 1118.48,-216.89"/>
<polygon fill="black" stroke="black" points="1121.12,-219.19 1125.62,-209.6 1116.12,-214.29 1121.12,-219.19"/>
</g>
<!-- fuzzer -->
<g id="node5" class="node">
<title>fuzzer</title>
<ellipse fill="#ff6b6b" stroke="black" cx="387" cy="-277" rx="102.56" ry="21.43"/>
<text text-anchor="middle" x="387" y="-280" font-family="Helvetica,sans-Serif" font-size="10.00">LLVMFuzzerTestOneInput()</text>
<text text-anchor="middle" x="387" y="-269" font-family="Helvetica,sans-Serif" font-size="10.00">icc_toxml_fuzzer.cpp</text>
</g>
<!-- fuzzer&#45;&gt;tag_factory -->
<g id="edge11" class="edge">
<title>fuzzer&#45;&gt;tag_factory</title>
<path fill="none" stroke="green" stroke-dasharray="1,5" d="M371.02,-255.79C361.97,-244.34 350.57,-229.91 340.94,-217.72"/>
<polygon fill="green" stroke="green" points="343.55,-215.38 334.6,-209.71 338.06,-219.72 343.55,-215.38"/>
</g>
<!-- fuzzer&#45;&gt;mpe_factory -->
<g id="edge12" class="edge">
<title>fuzzer&#45;&gt;mpe_factory</title>
<path fill="none" stroke="green" stroke-dasharray="1,5" d="M313.75,-262.08C296.86,-257.32 279.35,-251.09 264,-243 251.07,-236.19 238.52,-226.09 228.34,-216.72"/>
<polygon fill="green" stroke="green" points="230.69,-214.13 221.04,-209.75 225.86,-219.19 230.69,-214.13"/>
</g>
<!-- fuzzer&#45;&gt;profile_read -->
<g id="edge13" class="edge">
<title>fuzzer&#45;&gt;profile_read</title>
<path fill="none" stroke="green" stroke-width="2" d="M402.73,-255.79C411.02,-245.15 421.3,-231.93 430.33,-220.34"/>
<polygon fill="green" stroke="green" stroke-width="2" points="433.25,-222.28 436.63,-212.24 427.73,-217.98 433.25,-222.28"/>
</g>
<!-- fuzzer&#45;&gt;toxml -->
<g id="edge14" class="edge">
<title>fuzzer&#45;&gt;toxml</title>
<path fill="none" stroke="green" stroke-width="2" d="M487.68,-272.86C534.27,-268.86 589.65,-260.44 637,-243 654.43,-236.58 671.95,-225.73 685.96,-215.72"/>
<polygon fill="green" stroke="green" stroke-width="2" points="688.23,-218.4 694.2,-209.65 684.07,-212.76 688.23,-218.4"/>
</g>
<!-- read_hdr -->
<g id="node16" class="node">
<title>read_hdr</title>
<polygon fill="#90ee90" stroke="black" points="583,-124 497,-124 497,-88 583,-88 583,-124"/>
<text text-anchor="middle" x="540" y="-103.5" font-family="Helvetica,sans-Serif" font-size="10.00">Read (header)</text>
</g>
<!-- profile_read&#45;&gt;read_hdr -->
<g id="edge15" class="edge">
<title>profile_read&#45;&gt;read_hdr</title>
<path fill="none" stroke="black" stroke-width="2" d="M472.85,-170.71C485.35,-158.86 501.32,-143.71 514.55,-131.15"/>
<polygon fill="black" stroke="black" stroke-width="2" points="517.13,-133.53 521.97,-124.1 512.31,-128.45 517.13,-133.53"/>
</g>
<!-- read_tags -->
<g id="node17" class="node">
<title>read_tags</title>
<polygon fill="#90ee90" stroke="black" points="478.5,-124 395.5,-124 395.5,-88 478.5,-88 478.5,-124"/>
<text text-anchor="middle" x="437" y="-103.5" font-family="Helvetica,sans-Serif" font-size="10.00">Read (tag dir)</text>
</g>
<!-- profile_read&#45;&gt;read_tags -->
<g id="edge16" class="edge">
<title>profile_read&#45;&gt;read_tags</title>
<path fill="none" stroke="black" stroke-width="2" d="M448.45,-170.71C446.48,-159.75 444,-145.95 441.85,-134.01"/>
<polygon fill="black" stroke="black" stroke-width="2" points="445.29,-133.33 440.07,-124.1 438.4,-134.57 445.29,-133.33"/>
</g>
<!-- tag_toxml -->
<g id="node18" class="node">
<title>tag_toxml</title>
<polygon fill="#90ee90" stroke="black" points="767,-124 693,-124 693,-88 767,-88 767,-124"/>
<text text-anchor="middle" x="730" y="-109" font-family="Helvetica,sans-Serif" font-size="10.00">Tag::ToXml</text>
<text text-anchor="middle" x="730" y="-98" font-family="Helvetica,sans-Serif" font-size="10.00">(50+ types)</text>
</g>
<!-- toxml&#45;&gt;tag_toxml -->
<g id="edge17" class="edge">
<title>toxml&#45;&gt;tag_toxml</title>
<path fill="none" stroke="black" stroke-width="2" d="M718.11,-173.2C720.12,-162 722.78,-147.19 725.08,-134.41"/>
<polygon fill="black" stroke="black" stroke-width="2" points="728.57,-134.74 726.9,-124.28 721.68,-133.5 728.57,-134.74"/>
</g>
<!-- mpe_toxml -->
<g id="node19" class="node">
<title>mpe_toxml</title>
<polygon fill="#90ee90" stroke="black" points="675,-124 601,-124 601,-88 675,-88 675,-124"/>
<text text-anchor="middle" x="638" y="-103.5" font-family="Helvetica,sans-Serif" font-size="10.00">MPE::ToXml</text>
</g>
<!-- toxml&#45;&gt;mpe_toxml -->
<g id="edge18" class="edge">
<title>toxml&#45;&gt;mpe_toxml</title>
<path fill="none" stroke="black" d="M699.05,-173.2C688,-161.22 673.13,-145.09 660.83,-131.76"/>
<polygon fill="black" stroke="black" points="663.29,-129.26 653.93,-124.28 658.14,-134 663.29,-129.26"/>
</g>
<!-- icfixxml -->
<g id="node20" class="node">
<title>icfixxml</title>
<polygon fill="#90ee90" stroke="black" points="759.5,-52 700.5,-52 700.5,-16 759.5,-16 759.5,-52"/>
<text text-anchor="middle" x="730" y="-31.5" font-family="Helvetica,sans-Serif" font-size="10.00">icFixXml</text>
</g>
<!-- tag_toxml&#45;&gt;icfixxml -->
<g id="edge19" class="edge">
<title>tag_toxml&#45;&gt;icfixxml</title>
<path fill="none" stroke="black" d="M730,-87.7C730,-79.98 730,-70.71 730,-62.11"/>
<polygon fill="black" stroke="black" points="733.5,-62.1 730,-52.1 726.5,-62.1 733.5,-62.1"/>
</g>
</g>
</svg>
