<?xml version="1.0" encoding="UTF-8" standalone="no"?>
<!DOCTYPE svg PUBLIC "-//W3C//DTD SVG 1.1//EN"
 "http://www.w3.org/Graphics/SVG/1.1/DTD/svg11.dtd">
<!-- Generated by graphviz version 2.43.0 (0)
 -->
<!-- Title: iccFromXml Pages: 1 -->
<svg width="1056pt" height="332pt"
 viewBox="0.00 0.00 1056.00 332.00" xmlns="http://www.w3.org/2000/svg" xmlns:xlink="http://www.w3.org/1999/xlink">
<g id="graph0" class="graph" transform="scale(1 1) rotate(0) translate(4 328)">
<title>iccFromXml</title>
<polygon fill="white" stroke="transparent" points="-4,4 -4,-328 1052,-328 1052,4 -4,4"/>
<g id="clust1" class="cluster">
<title>cluster_legend</title>
<polygon fill="none" stroke="black" stroke-dasharray="5,2" points="8,-246 8,-316 374,-316 374,-246 8,-246"/>
<text text-anchor="middle" x="191" y="-304.8" font-family="Times,serif" font-size="9.00">Legend</text>
</g>
<g id="clust2" class="cluster">
<title>cluster_init</title>
<path fill="none" stroke="black" d="M102,-163C102,-163 308,-163 308,-163 314,-163 320,-169 320,-175 320,-175 320,-226 320,-226 320,-232 314,-238 308,-238 308,-238 102,-238 102,-238 96,-238 90,-232 90,-226 90,-226 90,-175 90,-175 90,-169 96,-163 102,-163"/>
<text text-anchor="middle" x="205" y="-222.8" font-family="Times,serif" font-size="14.00">Phase 1: Factory Init</text>
</g>
<g id="clust3" class="cluster">
<title>cluster_cli</title>
<path fill="none" stroke="black" d="M854,-163C854,-163 1028,-163 1028,-163 1034,-163 1040,-169 1040,-175 1040,-175 1040,-226 1040,-226 1040,-232 1034,-238 1028,-238 1028,-238 854,-238 854,-238 848,-238 842,-232 842,-226 842,-226 842,-175 842,-175 842,-169 848,-163 854,-163"/>
<text text-anchor="middle" x="941" y="-222.8" font-family="Times,serif" font-size="14.00">Phase 2: CLI Args</text>
</g>
<g id="clust4" class="cluster">
<title>cluster_parse</title>
<path fill="none" stroke="red" d="M340,-163C340,-163 609,-163 609,-163 615,-163 621,-169 621,-175 621,-175 621,-226 621,-226 621,-232 615,-238 609,-238 609,-238 340,-238 340,-238 334,-238 328,-232 328,-226 328,-226 328,-175 328,-175 328,-169 334,-163 340,-163"/>
<text text-anchor="middle" x="474.5" y="-222.8" font-family="Times,serif" font-size="14.00">Phase 3: XML Parsing (Attack Surface)</text>
</g>
<g id="clust5" class="cluster">
<title>cluster_output</title>
<path fill="none" stroke="black" d="M641,-163C641,-163 822,-163 822,-163 828,-163 834,-169 834,-175 834,-175 834,-226 834,-226 834,-232 828,-238 822,-238 822,-238 641,-238 641,-238 635,-238 629,-232 629,-226 629,-226 629,-175 629,-175 629,-169 635,-163 641,-163"/>
<text text-anchor="middle" x="731.5" y="-222.8" font-family="Times,serif" font-size="14.00">Phase 4: Output</text>
</g>
<g id="clust6" class="cluster">
<title>cluster_deep</title>
<path fill="none" stroke="red" d="M303,-8C303,-8 729,-8 729,-8 735,-8 741,-14 741,-20 741,-20 741,-143 741,-143 741,-149 735,-155 729,-155 729,-155 303,-155 303,-155 297,-155 291,-149 291,-143 291,-143 291,-20 291,-20 291,-14 297,-8 303,-8"/>
<text text-anchor="middle" x="516" y="-139.8" font-family="Times,serif" font-size="14.00">Phase 6: Deep Call Chains (OOM Surface)</text>
</g>
<!-- leg_both -->
<g id="node1" class="node">
<title>leg_both</title>
<polygon fill="#90ee90" stroke="black" points="366,-290 272,-290 272,-254 366,-254 366,-290"/>
<text text-anchor="middle" x="319" y="-269.5" font-family="Helvetica,sans-Serif" font-size="10.00">In Tool + Fuzzer</text>
</g>
<!-- leg_tool -->
<g id="node2" class="node">
<title>leg_tool</title>
<polygon fill="#add8e6" stroke="black" points="254,-290 192,-290 192,-254 254,-254 254,-290"/>
<text text-anchor="middle" x="223" y="-269.5" font-family="Helvetica,sans-Serif" font-size="10.00">Tool Only</text>
</g>
<!-- leg_cli -->
<g id="node3" class="node">
<title>leg_cli</title>
<polygon fill="#d3d3d3" stroke="black" points="173.5,-290 116.5,-290 116.5,-254 173.5,-254 173.5,-290"/>
<text text-anchor="middle" x="145" y="-269.5" font-family="Helvetica,sans-Serif" font-size="10.00">CLI Only</text>
</g>
<!-- leg_oom -->
<g id="node4" class="node">
<title>leg_oom</title>
<polygon fill="#ff6347" stroke="black" points="98,-290 16,-290 16,-254 98,-254 98,-290"/>
<text text-anchor="middle" x="57" y="-269.5" font-family="Helvetica,sans-Serif" font-size="10.00">OOM Hotspot</text>
</g>
<!-- tool -->
<g id="node5" class="node">
<title>tool</title>
<ellipse fill="#ff6b6b" stroke="black" cx="678" cy="-272" rx="67.35" ry="21.43"/>
<text text-anchor="middle" x="678" y="-275" font-family="Helvetica,sans-Serif" font-size="10.00">main()</text>
<text text-anchor="middle" x="678" y="-264" font-family="Helvetica,sans-Serif" font-size="10.00">IccFromXml.cpp</text>
</g>
<!-- tag_factory -->
<g id="node7" class="node">
<title>tag_factory</title>
<polygon fill="#90ee90" stroke="black" points="311.5,-207 216.5,-207 216.5,-171 311.5,-171 311.5,-207"/>
<text text-anchor="middle" x="264" y="-192" font-family="Helvetica,sans-Serif" font-size="10.00">PushFactory</text>
<text text-anchor="middle" x="264" y="-181" font-family="Helvetica,sans-Serif" font-size="10.00">(TagXmlFactory)</text>
</g>
<!-- tool&#45;&gt;tag_factory -->
<g id="edge1" class="edge">
<title>tool&#45;&gt;tag_factory</title>
<path fill="none" stroke="black" d="M635.89,-255.3C624.12,-251.57 611.2,-248.07 599,-246 568.86,-240.9 352.7,-248.54 324,-238 310.23,-232.94 297.22,-223.37 286.85,-214.1"/>
<polygon fill="black" stroke="black" points="289.15,-211.46 279.48,-207.15 284.35,-216.55 289.15,-211.46"/>
</g>
<!-- mpe_factory -->
<g id="node8" class="node">
<title>mpe_factory</title>
<polygon fill="#90ee90" stroke="black" points="198,-207 98,-207 98,-171 198,-171 198,-207"/>
<text text-anchor="middle" x="148" y="-192" font-family="Helvetica,sans-Serif" font-size="10.00">PushFactory</text>
<text text-anchor="middle" x="148" y="-181" font-family="Helvetica,sans-Serif" font-size="10.00">(MpeXmlFactory)</text>
</g>
<!-- tool&#45;&gt;mpe_factory -->
<g id="edge2" class="edge">
<title>tool&#45;&gt;mpe_factory</title>
<path fill="none" stroke="black" d="M636.32,-255.36C624.43,-251.58 611.35,-248.04 599,-246 556.02,-238.91 247.9,-253.01 207,-238 193.37,-233 180.56,-223.44 170.38,-214.15"/>
<polygon fill="black" stroke="black" points="172.78,-211.6 163.15,-207.19 167.93,-216.65 172.78,-211.6"/>
</g>
<!-- noid -->
<g id="node9" class="node">
<title>noid</title>
<polygon fill="#d3d3d3" stroke="black" points="1032,-207 970,-207 970,-171 1032,-171 1032,-207"/>
<text text-anchor="middle" x="1001" y="-186.5" font-family="Helvetica,sans-Serif" font-size="10.00">&#45;noid flag</text>
</g>
<!-- tool&#45;&gt;noid -->
<g id="edge3" class="edge">
<title>tool&#45;&gt;noid</title>
<path fill="none" stroke="black" stroke-dasharray="5,2" d="M744.63,-268.89C816.29,-265.64 924.84,-257.57 961,-238 970.73,-232.73 979.06,-224.04 985.55,-215.49"/>
<polygon fill="black" stroke="black" points="988.55,-217.32 991.43,-207.12 982.82,-213.3 988.55,-217.32"/>
</g>
<!-- schema -->
<g id="node10" class="node">
<title>schema</title>
<polygon fill="#d3d3d3" stroke="black" points="951.5,-207 850.5,-207 850.5,-171 951.5,-171 951.5,-207"/>
<text text-anchor="middle" x="901" y="-186.5" font-family="Helvetica,sans-Serif" font-size="10.00">RelaxNG schema</text>
</g>
<!-- tool&#45;&gt;schema -->
<g id="edge4" class="edge">
<title>tool&#45;&gt;schema</title>
<path fill="none" stroke="black" stroke-dasharray="5,2" d="M741.19,-264.6C771.47,-259.89 807.67,-251.81 838,-238 851.36,-231.92 864.54,-222.56 875.36,-213.71"/>
<polygon fill="black" stroke="black" points="877.78,-216.25 883.14,-207.11 873.25,-210.91 877.78,-216.25"/>
</g>
<!-- loadxml -->
<g id="node11" class="node">
<title>loadxml</title>
<polygon fill="#90ee90" stroke="black" stroke-width="3" points="612.5,-207 535.5,-207 535.5,-171 612.5,-171 612.5,-207"/>
<text text-anchor="middle" x="574" y="-192" font-family="Helvetica,sans-Serif" font-size="10.00">LoadXml()</text>
<text text-anchor="middle" x="574" y="-181" font-family="Helvetica,sans-Serif" font-size="10.00">MAIN ENTRY</text>
</g>
<!-- tool&#45;&gt;loadxml -->
<g id="edge5" class="edge">
<title>tool&#45;&gt;loadxml</title>
<path fill="none" stroke="black" stroke-width="2" d="M647.04,-253.15C639.62,-248.5 631.87,-243.29 625,-238 615.71,-230.85 606.17,-222.27 597.9,-214.35"/>
<polygon fill="black" stroke="black" stroke-width="2" points="600.31,-211.81 590.71,-207.33 595.42,-216.82 600.31,-211.81"/>
</g>
<!-- validate -->
<g id="node12" class="node">
<title>validate</title>
<polygon fill="#90ee90" stroke="black" points="517,-207 453,-207 453,-171 517,-171 517,-207"/>
<text text-anchor="middle" x="485" y="-186.5" font-family="Helvetica,sans-Serif" font-size="10.00">Validate()</text>
</g>
<!-- tool&#45;&gt;validate -->
<g id="edge6" class="edge">
<title>tool&#45;&gt;validate</title>
<path fill="none" stroke="black" d="M634.95,-255.69C623.39,-252.04 610.82,-248.49 599,-246 567.06,-239.27 554.85,-253.26 526,-238 516.12,-232.77 507.6,-224.09 500.93,-215.54"/>
<polygon fill="black" stroke="black" points="503.58,-213.23 494.9,-207.16 497.9,-217.32 503.58,-213.23"/>
</g>
<!-- save_valid -->
<g id="node13" class="node">
<title>save_valid</title>
<polygon fill="#90ee90" stroke="black" points="825.5,-207 740.5,-207 740.5,-171 825.5,-171 825.5,-207"/>
<text text-anchor="middle" x="783" y="-192" font-family="Helvetica,sans-Serif" font-size="10.00">SaveIccProfile</text>
<text text-anchor="middle" x="783" y="-181" font-family="Helvetica,sans-Serif" font-size="10.00">(valid)</text>
</g>
<!-- tool&#45;&gt;save_valid -->
<g id="edge7" class="edge">
<title>tool&#45;&gt;save_valid</title>
<path fill="none" stroke="black" d="M709.57,-253.21C717.12,-248.55 725.01,-243.33 732,-238 741.32,-230.88 750.86,-222.32 759.13,-214.4"/>
<polygon fill="black" stroke="black" points="761.62,-216.86 766.32,-207.37 756.73,-211.86 761.62,-216.86"/>
</g>
<!-- save_invalid -->
<g id="node14" class="node">
<title>save_invalid</title>
<polygon fill="#90ee90" stroke="black" points="722.5,-207 637.5,-207 637.5,-171 722.5,-171 722.5,-207"/>
<text text-anchor="middle" x="680" y="-192" font-family="Helvetica,sans-Serif" font-size="10.00">SaveIccProfile</text>
<text text-anchor="middle" x="680" y="-181" font-family="Helvetica,sans-Serif" font-size="10.00">(invalid)</text>
</g>
<!-- tool&#45;&gt;save_invalid -->
<g id="edge8" class="edge">
<title>tool&#45;&gt;save_invalid</title>
<path fill="none" stroke="black" d="M678.5,-250.56C678.75,-240.51 679.06,-228.25 679.32,-217.4"/>
<polygon fill="black" stroke="black" points="682.83,-217.23 679.58,-207.15 675.83,-217.06 682.83,-217.23"/>
</g>
<!-- fuzzer -->
<g id="node6" class="node">
<title>fuzzer</title>
<ellipse fill="#ff6b6b" stroke="black" cx="487" cy="-272" rx="102.56" ry="21.43"/>
<text text-anchor="middle" x="487" y="-275" font-family="Helvetica,sans-Serif" font-size="10.00">LLVMFuzzerTestOneInput()</text>
<text text-anchor="middle" x="487" y="-264" font-family="Helvetica,sans-Serif" font-size="10.00">icc_fromxml_fuzzer.cpp</text>
</g>
<!-- fuzzer&#45;&gt;tag_factory -->
<g id="edge9" class="edge">
<title>fuzzer&#45;&gt;tag_factory</title>
<path fill="none" stroke="green" stroke-dasharray="1,5" d="M422.91,-255.42C408.2,-252.09 392.6,-248.75 378,-246 354.16,-241.51 346.24,-247.69 324,-238 310.97,-232.32 298.4,-223.06 288.16,-214.18"/>
<polygon fill="green" stroke="green" points="290.23,-211.34 280.48,-207.21 285.53,-216.52 290.23,-211.34"/>
</g>
<!-- fuzzer&#45;&gt;mpe_factory -->
<g id="edge10" class="edge">
<title>fuzzer&#45;&gt;mpe_factory</title>
<path fill="none" stroke="green" stroke-dasharray="1,5" d="M425.67,-254.92C410.21,-251.42 393.58,-248.13 378,-246 340.31,-240.84 242.54,-251.57 207,-238 193.43,-232.82 180.64,-223.23 170.45,-213.98"/>
<polygon fill="green" stroke="green" points="172.85,-211.43 163.2,-207.05 168.01,-216.49 172.85,-211.43"/>
</g>
<!-- fuzzer&#45;&gt;loadxml -->
<g id="edge11" class="edge">
<title>fuzzer&#45;&gt;loadxml</title>
<path fill="none" stroke="green" stroke-width="2" d="M511.2,-251.06C516.16,-246.83 521.3,-242.32 526,-238 534.07,-230.58 542.61,-222.21 550.21,-214.57"/>
<polygon fill="green" stroke="green" stroke-width="2" points="552.92,-216.81 557.45,-207.23 547.94,-211.89 552.92,-216.81"/>
</g>
<!-- fuzzer&#45;&gt;validate -->
<g id="edge12" class="edge">
<title>fuzzer&#45;&gt;validate</title>
<path fill="none" stroke="green" stroke-dasharray="1,5" d="M486.5,-250.56C486.25,-240.51 485.94,-228.25 485.68,-217.4"/>
<polygon fill="green" stroke="green" points="489.17,-217.06 485.42,-207.15 482.17,-217.23 489.17,-217.06"/>
</g>
<!-- fuzzer&#45;&gt;save_valid -->
<g id="edge13" class="edge">
<title>fuzzer&#45;&gt;save_valid</title>
<path fill="none" stroke="green" stroke-dasharray="1,5" d="M550.86,-255.31C567.43,-251.73 585.3,-248.31 602,-246 630.67,-242.03 705.44,-249.49 732,-238 743.74,-232.92 754.44,-223.91 762.98,-215.06"/>
<polygon fill="green" stroke="green" points="765.77,-217.19 769.89,-207.43 760.59,-212.49 765.77,-217.19"/>
</g>
<!-- fuzzer&#45;&gt;save_invalid -->
<g id="edge14" class="edge">
<title>fuzzer&#45;&gt;save_invalid</title>
<path fill="none" stroke="green" stroke-dasharray="1,5" d="M555.36,-256.17C586.67,-249.1 618.32,-241.44 625,-238 636.79,-231.92 648.14,-222.78 657.43,-214.11"/>
<polygon fill="green" stroke="green" points="660,-216.5 664.72,-207.01 655.11,-211.48 660,-216.5"/>
</g>
<!-- xmlparse -->
<g id="node15" class="node">
<title>xmlparse</title>
<polygon fill="#90ee90" stroke="black" points="724.5,-124 645.5,-124 645.5,-88 724.5,-88 724.5,-124"/>
<text text-anchor="middle" x="685" y="-109" font-family="Helvetica,sans-Serif" font-size="10.00">xmlParseFile</text>
<text text-anchor="middle" x="685" y="-98" font-family="Helvetica,sans-Serif" font-size="10.00">(libxml2)</text>
</g>
<!-- loadxml&#45;&gt;xmlparse -->
<g id="edge15" class="edge">
<title>loadxml&#45;&gt;xmlparse</title>
<path fill="none" stroke="black" stroke-width="2" d="M608.78,-170.94C620.46,-164.96 631.83,-158.8 637,-155 646.12,-148.3 655.14,-139.87 662.87,-131.96"/>
<polygon fill="black" stroke="black" stroke-width="2" points="665.79,-133.97 670.12,-124.3 660.7,-129.16 665.79,-133.97"/>
</g>
<!-- parsehdr -->
<g id="node16" class="node">
<title>parsehdr</title>
<polygon fill="#90ee90" stroke="black" points="627.5,-124 520.5,-124 520.5,-88 627.5,-88 627.5,-124"/>
<text text-anchor="middle" x="574" y="-103.5" font-family="Helvetica,sans-Serif" font-size="10.00">icXmlParseProfHdr</text>
</g>
<!-- loadxml&#45;&gt;parsehdr -->
<g id="edge16" class="edge">
<title>loadxml&#45;&gt;parsehdr</title>
<path fill="none" stroke="black" d="M574,-170.82C574,-160.19 574,-146.31 574,-134.2"/>
<polygon fill="black" stroke="black" points="577.5,-134.15 574,-124.15 570.5,-134.15 577.5,-134.15"/>
</g>
<!-- parsetags -->
<g id="node17" class="node">
<title>parsetags</title>
<polygon fill="#90ee90" stroke="black" points="502.5,-124 417.5,-124 417.5,-88 502.5,-88 502.5,-124"/>
<text text-anchor="middle" x="460" y="-109" font-family="Helvetica,sans-Serif" font-size="10.00">Tag::ParseXml</text>
<text text-anchor="middle" x="460" y="-98" font-family="Helvetica,sans-Serif" font-size="10.00">(50+ types)</text>
</g>
<!-- loadxml&#45;&gt;parsetags -->
<g id="edge17" class="edge">
<title>loadxml&#45;&gt;parsetags</title>
<path fill="none" stroke="black" stroke-width="2" d="M540.9,-170.84C527.66,-163.89 514.86,-157.03 512,-155 502.18,-148.03 492.26,-139.36 483.75,-131.32"/>
<polygon fill="black" stroke="black" stroke-width="2" points="486,-128.62 476.38,-124.17 481.13,-133.65 486,-128.62"/>
</g>
<!-- mluc -->
<g id="node18" class="node">
<title>mluc</title>
<polygon fill="#ff6347" stroke="black" stroke-width="3" points="389,-52 299,-52 299,-16 389,-16 389,-52"/>
<text text-anchor="middle" x="344" y="-37" font-family="Helvetica,sans-Serif" font-size="10.00">mluc ParseXml</text>
<text text-anchor="middle" x="344" y="-26" font-family="Helvetica,sans-Serif" font-size="10.00">OOM HOTSPOT</text>
</g>
<!-- parsetags&#45;&gt;mluc -->
<g id="edge18" class="edge">
<title>parsetags&#45;&gt;mluc</title>
<path fill="none" stroke="red" stroke-width="2" d="M431.62,-87.88C416.46,-78.72 397.59,-67.34 381.26,-57.48"/>
<polygon fill="red" stroke="red" stroke-width="2" points="382.86,-54.36 372.49,-52.19 379.24,-60.35 382.86,-54.36"/>
</g>
<!-- profseq -->
<g id="node19" class="node">
<title>profseq</title>
<polygon fill="#ff6347" stroke="black" stroke-width="3" points="497,-52 407,-52 407,-16 497,-16 497,-52"/>
<text text-anchor="middle" x="452" y="-37" font-family="Helvetica,sans-Serif" font-size="10.00">ProfileSeqDesc</text>
<text text-anchor="middle" x="452" y="-26" font-family="Helvetica,sans-Serif" font-size="10.00">OOM HOTSPOT</text>
</g>
<!-- parsetags&#45;&gt;profseq -->
<g id="edge19" class="edge">
<title>parsetags&#45;&gt;profseq</title>
<path fill="none" stroke="red" stroke-width="2" d="M458.02,-87.7C457.14,-79.98 456.08,-70.71 455.1,-62.11"/>
<polygon fill="red" stroke="red" stroke-width="2" points="458.57,-61.64 453.95,-52.1 451.61,-62.44 458.57,-61.64"/>
</g>
<!-- icfixxml -->
<g id="node20" class="node">
<title>icfixxml</title>
<polygon fill="#ff6347" stroke="black" stroke-width="3" points="629,-52 515,-52 515,-16 629,-16 629,-52"/>
<text text-anchor="middle" x="572" y="-37" font-family="Helvetica,sans-Serif" font-size="10.00">icFixXml</text>
<text text-anchor="middle" x="572" y="-26" font-family="Helvetica,sans-Serif" font-size="10.00">BUFFER OVERFLOW</text>
</g>
<!-- parsetags&#45;&gt;icfixxml -->
<g id="edge20" class="edge">
<title>parsetags&#45;&gt;icfixxml</title>
<path fill="none" stroke="red" stroke-width="2" d="M487.4,-87.88C501.91,-78.81 519.92,-67.55 535.59,-57.76"/>
<polygon fill="red" stroke="red" stroke-width="2" points="537.87,-60.46 544.5,-52.19 534.16,-54.52 537.87,-60.46"/>
</g>
<!-- mpe_parse -->
<g id="node21" class="node">
<title>mpe_parse</title>
<polygon fill="#90ee90" stroke="black" points="733,-52 647,-52 647,-16 733,-16 733,-52"/>
<text text-anchor="middle" x="690" y="-31.5" font-family="Helvetica,sans-Serif" font-size="10.00">MPE ParseXml</text>
</g>
<!-- parsetags&#45;&gt;mpe_parse -->
<g id="edge21" class="edge">
<title>parsetags&#45;&gt;mpe_parse</title>
<path fill="none" stroke="black" d="M502.53,-90.95C505.73,-89.94 508.91,-88.95 512,-88 564.75,-71.85 580.65,-69.29 637.09,-52.22"/>
<polygon fill="black" stroke="black" points="638.36,-55.49 646.91,-49.23 636.32,-48.79 638.36,-55.49"/>
</g>
</g>
</svg>
