<?xml version="1.0" encoding="UTF-8" standalone="no"?>
<!DOCTYPE svg PUBLIC "-//W3C//DTD SVG 1.1//EN"
 "http://www.w3.org/Graphics/SVG/1.1/DTD/svg11.dtd">
<!-- Generated by graphviz version 2.43.0 (0)
 -->
<!-- Title: iccApplyToLink Pages: 1 -->
<svg width="3271pt" height="177pt"
 viewBox="0.00 0.00 3271.00 177.00" xmlns="http://www.w3.org/2000/svg" xmlns:xlink="http://www.w3.org/1999/xlink">
<g id="graph0" class="graph" transform="scale(1 1) rotate(0) translate(4 173)">
<title>iccApplyToLink</title>
<polygon fill="white" stroke="transparent" points="-4,4 -4,-173 3267,-173 3267,4 -4,4"/>
<g id="clust1" class="cluster">
<title>cluster_legend</title>
<polygon fill="none" stroke="black" stroke-dasharray="5,2" points="554,-91 554,-161 915,-161 915,-91 554,-91"/>
<text text-anchor="middle" x="734.5" y="-149.8" font-family="Times,serif" font-size="9.00">Legend</text>
</g>
<g id="clust2" class="cluster">
<title>cluster_cli</title>
<path fill="none" stroke="black" d="M616,-8C616,-8 911,-8 911,-8 917,-8 923,-14 923,-20 923,-20 923,-71 923,-71 923,-77 917,-83 911,-83 911,-83 616,-83 616,-83 610,-83 604,-77 604,-71 604,-71 604,-20 604,-20 604,-14 610,-8 616,-8"/>
<text text-anchor="middle" x="763.5" y="-67.8" font-family="Times,serif" font-size="14.00">Phase 1: CLI Parsing</text>
</g>
<g id="clust3" class="cluster">
<title>cluster_cmm</title>
<path fill="none" stroke="black" d="M943,-8C943,-8 2095,-8 2095,-8 2101,-8 2107,-14 2107,-20 2107,-20 2107,-71 2107,-71 2107,-77 2101,-83 2095,-83 2095,-83 943,-83 943,-83 937,-83 931,-77 931,-71 931,-71 931,-20 931,-20 931,-14 937,-8 943,-8"/>
<text text-anchor="middle" x="1519" y="-67.8" font-family="Times,serif" font-size="14.00">Phase 2: CMM Construction</text>
</g>
<g id="clust4" class="cluster">
<title>cluster_exec</title>
<path fill="none" stroke="black" d="M2127,-8C2127,-8 2963,-8 2963,-8 2969,-8 2975,-14 2975,-20 2975,-20 2975,-71 2975,-71 2975,-77 2969,-83 2963,-83 2963,-83 2127,-83 2127,-83 2121,-83 2115,-77 2115,-71 2115,-71 2115,-20 2115,-20 2115,-14 2121,-8 2127,-8"/>
<text text-anchor="middle" x="2545" y="-67.8" font-family="Times,serif" font-size="14.00">Phase 3: CMM Execution</text>
</g>
<g id="clust5" class="cluster">
<title>cluster_output</title>
<path fill="none" stroke="black" d="M20,-8C20,-8 584,-8 584,-8 590,-8 596,-14 596,-20 596,-20 596,-71 596,-71 596,-77 590,-83 584,-83 584,-83 20,-83 20,-83 14,-83 8,-77 8,-71 8,-71 8,-20 8,-20 8,-14 14,-8 20,-8"/>
<text text-anchor="middle" x="302" y="-67.8" font-family="Times,serif" font-size="14.00">Phase 4: Output Writing</text>
</g>
<g id="clust6" class="cluster">
<title>cluster_fuzzer</title>
<path fill="none" stroke="black" d="M2995,-8C2995,-8 3243,-8 3243,-8 3249,-8 3255,-14 3255,-20 3255,-20 3255,-71 3255,-71 3255,-77 3249,-83 3243,-83 3243,-83 2995,-83 2995,-83 2989,-83 2983,-77 2983,-71 2983,-71 2983,-20 2983,-20 2983,-14 2989,-8 2995,-8"/>
<text text-anchor="middle" x="3119" y="-67.8" font-family="Times,serif" font-size="14.00">Phase 5: Fuzzer Extras</text>
</g>
<!-- leg_both -->
<g id="node1" class="node">
<title>leg_both</title>
<polygon fill="#90ee90" stroke="black" points="907,-135 813,-135 813,-99 907,-99 907,-135"/>
<text text-anchor="middle" x="860" y="-114.5" font-family="Helvetica,sans-Serif" font-size="10.00">In Tool + Fuzzer</text>
</g>
<!-- leg_tool -->
<g id="node2" class="node">
<title>leg_tool</title>
<polygon fill="#add8e6" stroke="black" points="795,-135 733,-135 733,-99 795,-99 795,-135"/>
<text text-anchor="middle" x="764" y="-114.5" font-family="Helvetica,sans-Serif" font-size="10.00">Tool Only</text>
</g>
<!-- leg_cli -->
<g id="node3" class="node">
<title>leg_cli</title>
<polygon fill="#d3d3d3" stroke="black" points="714.5,-135 657.5,-135 657.5,-99 714.5,-99 714.5,-135"/>
<text text-anchor="middle" x="686" y="-114.5" font-family="Helvetica,sans-Serif" font-size="10.00">CLI Only</text>
</g>
<!-- leg_fuzzer -->
<g id="node4" class="node">
<title>leg_fuzzer</title>
<polygon fill="#ffd700" stroke="black" points="639.5,-135 562.5,-135 562.5,-99 639.5,-99 639.5,-135"/>
<text text-anchor="middle" x="601" y="-114.5" font-family="Helvetica,sans-Serif" font-size="10.00">Fuzzer Extra</text>
</g>
<!-- main -->
<g id="node5" class="node">
<title>main</title>
<ellipse fill="#ff6b6b" stroke="black" cx="1477" cy="-117" rx="77.15" ry="21.43"/>
<text text-anchor="middle" x="1477" y="-120" font-family="Helvetica,sans-Serif" font-size="10.00">main()</text>
<text text-anchor="middle" x="1477" y="-109" font-family="Helvetica,sans-Serif" font-size="10.00">iccApplyToLink.cpp</text>
</g>
<!-- n0 -->
<g id="node7" class="node">
<title>n0</title>
<polygon fill="#d3d3d3" stroke="black" points="915,-52 845,-52 845,-16 915,-16 915,-52"/>
<text text-anchor="middle" x="880" y="-37" font-family="Helvetica,sans-Serif" font-size="10.00">printUsage</text>
<text text-anchor="middle" x="880" y="-26" font-family="Helvetica,sans-Serif" font-size="10.00">L590</text>
</g>
<!-- main&#45;&gt;n0 -->
<g id="edge1" class="edge">
<title>main&#45;&gt;n0</title>
<path fill="none" stroke="black" stroke-dasharray="5,2" d="M1400.27,-114.45C1259.14,-111.15 968.91,-102.12 927,-83 915.95,-77.96 906.11,-69.08 898.33,-60.32"/>
<polygon fill="black" stroke="black" points="900.86,-57.88 891.79,-52.41 895.47,-62.35 900.86,-57.88"/>
</g>
<!-- n1 -->
<g id="node8" class="node">
<title>n1</title>
<polygon fill="#d3d3d3" stroke="black" points="826.5,-52 707.5,-52 707.5,-16 826.5,-16 826.5,-52"/>
<text text-anchor="middle" x="767" y="-37" font-family="Helvetica,sans-Serif" font-size="10.00">atoi(bFirstTransform)</text>
<text text-anchor="middle" x="767" y="-26" font-family="Helvetica,sans-Serif" font-size="10.00">L691</text>
</g>
<!-- main&#45;&gt;n1 -->
<g id="edge2" class="edge">
<title>main&#45;&gt;n1</title>
<path fill="none" stroke="black" stroke-dasharray="5,2" d="M1401.54,-112.66C1234.92,-105.2 849.21,-87.52 836,-83 820.52,-77.7 805.36,-67.84 793.22,-58.42"/>
<polygon fill="black" stroke="black" points="795.3,-55.61 785.32,-52.04 790.9,-61.05 795.3,-55.61"/>
</g>
<!-- n2 -->
<g id="node9" class="node">
<title>n2</title>
<polygon fill="#d3d3d3" stroke="black" points="689.5,-52 612.5,-52 612.5,-16 689.5,-16 689.5,-52"/>
<text text-anchor="middle" x="651" y="-37" font-family="Helvetica,sans-Serif" font-size="10.00">atoi(nInterp)</text>
<text text-anchor="middle" x="651" y="-26" font-family="Helvetica,sans-Serif" font-size="10.00">L692</text>
</g>
<!-- main&#45;&gt;n2 -->
<g id="edge3" class="edge">
<title>main&#45;&gt;n2</title>
<path fill="none" stroke="black" stroke-dasharray="5,2" d="M1401.65,-112.42C1294.44,-107.38 1091.71,-98.01 919,-91 894.56,-90.01 721.42,-92.77 699,-83 687.47,-77.98 677.21,-68.8 669.16,-59.8"/>
<polygon fill="black" stroke="black" points="671.79,-57.48 662.69,-52.05 666.42,-61.97 671.79,-57.48"/>
</g>
<!-- n3 -->
<g id="node10" class="node">
<title>n3</title>
<polygon fill="#90ee90" stroke="black" points="1725,-52 1609,-52 1609,-16 1725,-16 1725,-52"/>
<text text-anchor="middle" x="1667" y="-37" font-family="Helvetica,sans-Serif" font-size="10.00">CIccCmm::CIccCmm</text>
<text text-anchor="middle" x="1667" y="-26" font-family="Helvetica,sans-Serif" font-size="10.00">L699</text>
</g>
<!-- main&#45;&gt;n3 -->
<g id="edge4" class="edge">
<title>main&#45;&gt;n3</title>
<path fill="none" stroke="black" stroke-width="2" d="M1538.6,-104.08C1558.72,-98.99 1580.81,-92.08 1600,-83 1613.74,-76.5 1627.61,-67.13 1639.14,-58.39"/>
<polygon fill="black" stroke="black" stroke-width="2" points="1641.36,-61.1 1647.09,-52.19 1637.05,-55.58 1641.36,-61.1"/>
</g>
<!-- n4 -->
<g id="node11" class="node">
<title>n4</title>
<polygon fill="#90ee90" stroke="black" points="1591,-52 1505,-52 1505,-16 1591,-16 1591,-52"/>
<text text-anchor="middle" x="1548" y="-37" font-family="Helvetica,sans-Serif" font-size="10.00">ReadIccProfile</text>
<text text-anchor="middle" x="1548" y="-26" font-family="Helvetica,sans-Serif" font-size="10.00">L770</text>
</g>
<!-- main&#45;&gt;n4 -->
<g id="edge5" class="edge">
<title>main&#45;&gt;n4</title>
<path fill="none" stroke="black" stroke-width="2" d="M1494.55,-95.98C1504.16,-85.01 1516.15,-71.34 1526.34,-59.71"/>
<polygon fill="black" stroke="black" stroke-width="2" points="1529.09,-61.88 1533.05,-52.05 1523.83,-57.27 1529.09,-61.88"/>
</g>
<!-- n5 -->
<g id="node12" class="node">
<title>n5</title>
<polygon fill="#add8e6" stroke="black" points="1185,-52 1075,-52 1075,-16 1185,-16 1185,-52"/>
<text text-anchor="middle" x="1130" y="-37" font-family="Helvetica,sans-Serif" font-size="10.00">OpenIccProfile(pcc)</text>
<text text-anchor="middle" x="1130" y="-26" font-family="Helvetica,sans-Serif" font-size="10.00">L754</text>
</g>
<!-- main&#45;&gt;n5 -->
<g id="edge6" class="edge">
<title>main&#45;&gt;n5</title>
<path fill="none" stroke="black" stroke-dasharray="5,2" d="M1402.3,-111.7C1331.48,-106.84 1230.64,-97.62 1194,-83 1180.02,-77.42 1166.41,-67.96 1155.36,-58.91"/>
<polygon fill="black" stroke="black" points="1157.31,-55.98 1147.44,-52.14 1152.76,-61.3 1157.31,-55.98"/>
</g>
<!-- n6 -->
<g id="node13" class="node">
<title>n6</title>
<polygon fill="#90ee90" stroke="black" points="1487,-52 1325,-52 1325,-16 1487,-16 1487,-52"/>
<text text-anchor="middle" x="1406" y="-37" font-family="Helvetica,sans-Serif" font-size="10.00">CIccCreateXformHintManager</text>
<text text-anchor="middle" x="1406" y="-26" font-family="Helvetica,sans-Serif" font-size="10.00">L736</text>
</g>
<!-- main&#45;&gt;n6 -->
<g id="edge7" class="edge">
<title>main&#45;&gt;n6</title>
<path fill="none" stroke="black" stroke-width="2" d="M1459.45,-95.98C1449.84,-85.01 1437.85,-71.34 1427.66,-59.71"/>
<polygon fill="black" stroke="black" stroke-width="2" points="1430.17,-57.27 1420.95,-52.05 1424.91,-61.88 1430.17,-57.27"/>
</g>
<!-- n7 -->
<g id="node14" class="node">
<title>n7</title>
<polygon fill="#90ee90" stroke="black" points="1307,-52 1203,-52 1203,-16 1307,-16 1307,-52"/>
<text text-anchor="middle" x="1255" y="-37" font-family="Helvetica,sans-Serif" font-size="10.00">CIccApplyBPCHint</text>
<text text-anchor="middle" x="1255" y="-26" font-family="Helvetica,sans-Serif" font-size="10.00">L744</text>
</g>
<!-- main&#45;&gt;n7 -->
<g id="edge8" class="edge">
<title>main&#45;&gt;n7</title>
<path fill="none" stroke="black" stroke-width="2" d="M1405.81,-108.67C1376.97,-103.87 1343.95,-95.97 1316,-83 1302.95,-76.94 1290.17,-67.59 1279.71,-58.74"/>
<polygon fill="black" stroke="black" stroke-width="2" points="1282.02,-56.11 1272.2,-52.14 1277.4,-61.37 1282.02,-56.11"/>
</g>
<!-- n8 -->
<g id="node15" class="node">
<title>n8</title>
<polygon fill="#90ee90" stroke="black" points="2098.5,-52 1943.5,-52 1943.5,-16 2098.5,-16 2098.5,-52"/>
<text text-anchor="middle" x="2021" y="-37" font-family="Helvetica,sans-Serif" font-size="10.00">CIccLuminanceMatchingHint</text>
<text text-anchor="middle" x="2021" y="-26" font-family="Helvetica,sans-Serif" font-size="10.00">L749</text>
</g>
<!-- main&#45;&gt;n8 -->
<g id="edge9" class="edge">
<title>main&#45;&gt;n8</title>
<path fill="none" stroke="black" stroke-width="2" d="M1553.92,-114.43C1665.11,-111.48 1864.98,-103.46 1934,-83 1952.94,-77.39 1972.35,-67.19 1988.01,-57.63"/>
<polygon fill="black" stroke="black" stroke-width="2" points="1990.17,-60.41 1996.77,-52.12 1986.44,-54.48 1990.17,-60.41"/>
</g>
<!-- n9 -->
<g id="node16" class="node">
<title>n9</title>
<polygon fill="#add8e6" stroke="black" points="1056.5,-52 939.5,-52 939.5,-16 1056.5,-16 1056.5,-52"/>
<text text-anchor="middle" x="998" y="-37" font-family="Helvetica,sans-Serif" font-size="10.00">CIccCmmEnvVarHint</text>
<text text-anchor="middle" x="998" y="-26" font-family="Helvetica,sans-Serif" font-size="10.00">L766</text>
</g>
<!-- main&#45;&gt;n9 -->
<g id="edge10" class="edge">
<title>main&#45;&gt;n9</title>
<path fill="none" stroke="black" stroke-dasharray="5,2" d="M1400.32,-114.66C1298.75,-112.07 1125.48,-104.54 1066,-83 1050.88,-77.52 1036.05,-67.73 1024.12,-58.42"/>
<polygon fill="black" stroke="black" points="1026.32,-55.7 1016.35,-52.1 1021.9,-61.13 1026.32,-55.7"/>
</g>
<!-- n10 -->
<g id="node17" class="node">
<title>n10</title>
<polygon fill="#90ee90" stroke="black" points="1925,-52 1743,-52 1743,-16 1925,-16 1925,-52"/>
<text text-anchor="middle" x="1834" y="-37" font-family="Helvetica,sans-Serif" font-size="10.00">CIccCmm::AddXform(CIccProfile*)</text>
<text text-anchor="middle" x="1834" y="-26" font-family="Helvetica,sans-Serif" font-size="10.00">L771</text>
</g>
<!-- main&#45;&gt;n10 -->
<g id="edge11" class="edge">
<title>main&#45;&gt;n10</title>
<path fill="none" stroke="black" stroke-width="2" d="M1552.53,-112.65C1604.44,-108.82 1674.47,-100.61 1734,-83 1755.23,-76.72 1777.56,-66.4 1795.72,-56.94"/>
<polygon fill="black" stroke="black" stroke-width="2" points="1797.63,-59.88 1804.81,-52.09 1794.33,-53.71 1797.63,-59.88"/>
</g>
<!-- n11 -->
<g id="node18" class="node">
<title>n11</title>
<polygon fill="#90ee90" stroke="black" points="2697.5,-52 2600.5,-52 2600.5,-16 2697.5,-16 2697.5,-52"/>
<text text-anchor="middle" x="2649" y="-37" font-family="Helvetica,sans-Serif" font-size="10.00">CIccCmm::Begin</text>
<text text-anchor="middle" x="2649" y="-26" font-family="Helvetica,sans-Serif" font-size="10.00">L783</text>
</g>
<!-- main&#45;&gt;n11 -->
<g id="edge12" class="edge">
<title>main&#45;&gt;n11</title>
<path fill="none" stroke="black" stroke-width="2" d="M1552.6,-112.76C1677.97,-107.49 1936.82,-97.05 2156,-91 2180.22,-90.33 2569.32,-91.51 2592,-83 2605.19,-78.05 2617.47,-68.63 2627.23,-59.43"/>
<polygon fill="black" stroke="black" stroke-width="2" points="2629.88,-61.73 2634.49,-52.19 2624.93,-56.78 2629.88,-61.73"/>
</g>
<!-- n12 -->
<g id="node19" class="node">
<title>n12</title>
<polygon fill="#90ee90" stroke="black" points="2582.5,-52 2433.5,-52 2433.5,-16 2582.5,-16 2582.5,-52"/>
<text text-anchor="middle" x="2508" y="-37" font-family="Helvetica,sans-Serif" font-size="10.00">CIccCmm::GetSourceSpace</text>
<text text-anchor="middle" x="2508" y="-26" font-family="Helvetica,sans-Serif" font-size="10.00">L804</text>
</g>
<!-- main&#45;&gt;n12 -->
<g id="edge13" class="edge">
<title>main&#45;&gt;n12</title>
<path fill="none" stroke="black" stroke-width="2" d="M1552.86,-113.03C1678.33,-108.17 1937.01,-98.3 2156,-91 2185.77,-90.01 2395.32,-91.08 2424,-83 2442.65,-77.75 2461.55,-67.48 2476.69,-57.79"/>
<polygon fill="black" stroke="black" stroke-width="2" points="2478.73,-60.63 2485.13,-52.19 2474.86,-54.8 2478.73,-60.63"/>
</g>
<!-- n13 -->
<g id="node20" class="node">
<title>n13</title>
<polygon fill="#90ee90" stroke="black" points="2415,-52 2277,-52 2277,-16 2415,-16 2415,-52"/>
<text text-anchor="middle" x="2346" y="-37" font-family="Helvetica,sans-Serif" font-size="10.00">CIccCmm::GetDestSpace</text>
<text text-anchor="middle" x="2346" y="-26" font-family="Helvetica,sans-Serif" font-size="10.00">L808</text>
</g>
<!-- main&#45;&gt;n13 -->
<g id="edge14" class="edge">
<title>main&#45;&gt;n13</title>
<path fill="none" stroke="black" stroke-width="2" d="M1553.09,-113.33C1747.98,-106.43 2251.06,-88.18 2268,-83 2285.38,-77.69 2302.78,-67.55 2316.73,-57.96"/>
<polygon fill="black" stroke="black" stroke-width="2" points="2318.83,-60.76 2324.94,-52.1 2314.76,-55.06 2318.83,-60.76"/>
</g>
<!-- n14 -->
<g id="node21" class="node">
<title>n14</title>
<polygon fill="#90ee90" stroke="black" points="2258.5,-52 2123.5,-52 2123.5,-16 2258.5,-16 2258.5,-52"/>
<text text-anchor="middle" x="2191" y="-37" font-family="Helvetica,sans-Serif" font-size="10.00">icGetSpaceSamples(src)</text>
<text text-anchor="middle" x="2191" y="-26" font-family="Helvetica,sans-Serif" font-size="10.00">L805</text>
</g>
<!-- main&#45;&gt;n14 -->
<g id="edge15" class="edge">
<title>main&#45;&gt;n14</title>
<path fill="none" stroke="black" stroke-width="2" d="M1554.24,-116.63C1699.78,-117.04 2009.14,-114.09 2111,-83 2128.7,-77.6 2146.54,-67.45 2160.87,-57.88"/>
<polygon fill="black" stroke="black" stroke-width="2" points="2163.08,-60.61 2169.3,-52.03 2159.09,-54.85 2163.08,-60.61"/>
</g>
<!-- n15 -->
<g id="node22" class="node">
<title>n15</title>
<polygon fill="#90ee90" stroke="black" points="2967,-52 2831,-52 2831,-16 2967,-16 2967,-52"/>
<text text-anchor="middle" x="2899" y="-37" font-family="Helvetica,sans-Serif" font-size="10.00">icGetSpaceSamples(dst)</text>
<text text-anchor="middle" x="2899" y="-26" font-family="Helvetica,sans-Serif" font-size="10.00">L809</text>
</g>
<!-- main&#45;&gt;n15 -->
<g id="edge16" class="edge">
<title>main&#45;&gt;n15</title>
<path fill="none" stroke="black" stroke-width="2" d="M1552.59,-112.6C1677.96,-107.11 1936.8,-96.35 2156,-91 2192.99,-90.1 2786.49,-93.39 2822,-83 2839.4,-77.91 2856.72,-67.69 2870.52,-57.99"/>
<polygon fill="black" stroke="black" stroke-width="2" points="2872.61,-60.79 2878.62,-52.06 2868.48,-55.14 2872.61,-60.79"/>
</g>
<!-- n16 -->
<g id="node23" class="node">
<title>n16</title>
<polygon fill="#90ee90" stroke="black" points="2812.5,-52 2715.5,-52 2715.5,-16 2812.5,-16 2812.5,-52"/>
<text text-anchor="middle" x="2764" y="-37" font-family="Helvetica,sans-Serif" font-size="10.00">CIccCmm::Apply</text>
<text text-anchor="middle" x="2764" y="-26" font-family="Helvetica,sans-Serif" font-size="10.00">L834</text>
</g>
<!-- main&#45;&gt;n16 -->
<g id="edge17" class="edge">
<title>main&#45;&gt;n16</title>
<path fill="none" stroke="black" stroke-width="2" d="M1552.59,-112.67C1677.96,-107.26 1936.81,-96.63 2156,-91 2186.6,-90.21 2678.32,-93.7 2707,-83 2720.2,-78.07 2732.48,-68.65 2742.24,-59.45"/>
<polygon fill="black" stroke="black" stroke-width="2" points="2744.89,-61.76 2749.49,-52.21 2739.94,-56.8 2744.89,-61.76"/>
</g>
<!-- n17 -->
<g id="node24" class="node">
<title>n17</title>
<polygon fill="#add8e6" stroke="black" points="467.5,-52 364.5,-52 364.5,-16 467.5,-16 467.5,-52"/>
<text text-anchor="middle" x="416" y="-37" font-family="Helvetica,sans-Serif" font-size="10.00">ILinkWriter::begin</text>
<text text-anchor="middle" x="416" y="-26" font-family="Helvetica,sans-Serif" font-size="10.00">L798</text>
</g>
<!-- main&#45;&gt;n17 -->
<g id="edge18" class="edge">
<title>main&#45;&gt;n17</title>
<path fill="none" stroke="black" stroke-dasharray="5,2" d="M1401.66,-111.99C1294.47,-106.42 1091.77,-96.43 919,-91 894.45,-90.23 500.13,-91.25 477,-83 463.04,-78.02 449.82,-68.47 439.28,-59.18"/>
<polygon fill="black" stroke="black" points="441.48,-56.45 431.77,-52.21 436.72,-61.58 441.48,-56.45"/>
</g>
<!-- n18 -->
<g id="node25" class="node">
<title>n18</title>
<polygon fill="#add8e6" stroke="black" points="346,-52 232,-52 232,-16 346,-16 346,-52"/>
<text text-anchor="middle" x="289" y="-37" font-family="Helvetica,sans-Serif" font-size="10.00">ILinkWriter::setPixel</text>
<text text-anchor="middle" x="289" y="-26" font-family="Helvetica,sans-Serif" font-size="10.00">L835</text>
</g>
<!-- main&#45;&gt;n18 -->
<g id="edge19" class="edge">
<title>main&#45;&gt;n18</title>
<path fill="none" stroke="black" stroke-dasharray="5,2" d="M1402.12,-111.92C1295.05,-106.24 1092.02,-96.1 919,-91 887.68,-90.08 384.73,-92.9 355,-83 339.96,-77.99 325.47,-68.2 313.91,-58.75"/>
<polygon fill="black" stroke="black" points="315.92,-55.87 306.05,-52.01 311.36,-61.18 315.92,-55.87"/>
</g>
<!-- n19 -->
<g id="node26" class="node">
<title>n19</title>
<polygon fill="#add8e6" stroke="black" points="588,-52 486,-52 486,-16 588,-16 588,-52"/>
<text text-anchor="middle" x="537" y="-37" font-family="Helvetica,sans-Serif" font-size="10.00">ILinkWriter::finish</text>
<text text-anchor="middle" x="537" y="-26" font-family="Helvetica,sans-Serif" font-size="10.00">L862</text>
</g>
<!-- main&#45;&gt;n19 -->
<g id="edge20" class="edge">
<title>main&#45;&gt;n19</title>
<path fill="none" stroke="black" stroke-dasharray="5,2" d="M1401.66,-112.15C1294.46,-106.79 1091.75,-97.04 919,-91 901.28,-90.38 616.72,-88.88 600,-83 585.59,-77.94 571.83,-68.23 560.87,-58.87"/>
<polygon fill="black" stroke="black" points="563.19,-56.25 553.41,-52.18 558.52,-61.46 563.19,-56.25"/>
</g>
<!-- fuzzer -->
<g id="node6" class="node">
<title>fuzzer</title>
<ellipse fill="#ff6b6b" stroke="black" cx="2268" cy="-117" rx="102.56" ry="21.43"/>
<text text-anchor="middle" x="2268" y="-120" font-family="Helvetica,sans-Serif" font-size="10.00">LLVMFuzzerTestOneInput()</text>
<text text-anchor="middle" x="2268" y="-109" font-family="Helvetica,sans-Serif" font-size="10.00">icc_link_fuzzer.cpp</text>
</g>
<!-- fuzzer&#45;&gt;n3 -->
<g id="edge23" class="edge">
<title>fuzzer&#45;&gt;n3</title>
<path fill="none" stroke="green" stroke-dasharray="1,5" d="M2165.3,-116.36C2032.95,-115.68 1810.74,-110.29 1734,-83 1719.14,-77.71 1704.65,-68.08 1692.97,-58.82"/>
<polygon fill="green" stroke="green" points="1694.93,-55.9 1685,-52.21 1690.47,-61.29 1694.93,-55.9"/>
</g>
<!-- fuzzer&#45;&gt;n4 -->
<g id="edge24" class="edge">
<title>fuzzer&#45;&gt;n4</title>
<path fill="none" stroke="green" stroke-dasharray="1,5" d="M2165.77,-114.78C1991.48,-112.12 1650.66,-104.26 1600,-83 1587.79,-77.87 1576.64,-68.55 1567.82,-59.48"/>
<polygon fill="green" stroke="green" points="1570.33,-57.03 1560.99,-52.01 1565.16,-61.75 1570.33,-57.03"/>
</g>
<!-- fuzzer&#45;&gt;n6 -->
<g id="edge25" class="edge">
<title>fuzzer&#45;&gt;n6</title>
<path fill="none" stroke="green" stroke-dasharray="1,5" d="M2167.04,-112.87C1965.06,-106.46 1527.77,-91.67 1496,-83 1476.11,-77.57 1455.69,-67.15 1439.34,-57.4"/>
<polygon fill="green" stroke="green" points="1441.06,-54.35 1430.71,-52.09 1437.39,-60.31 1441.06,-54.35"/>
</g>
<!-- fuzzer&#45;&gt;n7 -->
<g id="edge26" class="edge">
<title>fuzzer&#45;&gt;n7</title>
<path fill="none" stroke="green" stroke-dasharray="1,5" d="M2167.89,-112.35C2031.22,-107.4 1778.58,-98.31 1563,-91 1535.56,-90.07 1341.8,-92.4 1316,-83 1302.08,-77.92 1288.86,-68.35 1278.31,-59.08"/>
<polygon fill="green" stroke="green" points="1280.51,-56.35 1270.8,-52.13 1275.76,-61.49 1280.51,-56.35"/>
</g>
<!-- fuzzer&#45;&gt;n8 -->
<g id="edge27" class="edge">
<title>fuzzer&#45;&gt;n8</title>
<path fill="none" stroke="green" stroke-dasharray="1,5" d="M2187.71,-103.66C2162.72,-98.62 2135.35,-91.85 2111,-83 2092.5,-76.28 2073.09,-66.34 2057.05,-57.25"/>
<polygon fill="green" stroke="green" points="2058.44,-54.01 2048.03,-52.02 2054.93,-60.06 2058.44,-54.01"/>
</g>
<!-- fuzzer&#45;&gt;n10 -->
<g id="edge28" class="edge">
<title>fuzzer&#45;&gt;n10</title>
<path fill="none" stroke="green" stroke-dasharray="1,5" d="M2165.79,-114.93C2099.03,-112.04 2010.56,-104.01 1935,-83 1913.24,-76.95 1890.4,-66.48 1871.95,-56.87"/>
<polygon fill="green" stroke="green" points="1873.47,-53.71 1863,-52.09 1870.18,-59.89 1873.47,-53.71"/>
</g>
<!-- fuzzer&#45;&gt;n11 -->
<g id="edge29" class="edge">
<title>fuzzer&#45;&gt;n11</title>
<path fill="none" stroke="green" stroke-dasharray="1,5" d="M2368.16,-112.24C2448.08,-108.06 2552.89,-99.57 2592,-83 2604.78,-77.58 2616.87,-68.27 2626.59,-59.29"/>
<polygon fill="green" stroke="green" points="2629.12,-61.71 2633.85,-52.23 2624.24,-56.69 2629.12,-61.71"/>
</g>
<!-- fuzzer&#45;&gt;n12 -->
<g id="edge30" class="edge">
<title>fuzzer&#45;&gt;n12</title>
<path fill="none" stroke="green" stroke-dasharray="1,5" d="M2348.73,-103.88C2373.36,-98.87 2400.2,-92.06 2424,-83 2441.29,-76.42 2459.25,-66.61 2474.1,-57.58"/>
<polygon fill="green" stroke="green" points="2476.28,-60.35 2482.92,-52.09 2472.58,-54.41 2476.28,-60.35"/>
</g>
<!-- fuzzer&#45;&gt;n13 -->
<g id="edge31" class="edge">
<title>fuzzer&#45;&gt;n13</title>
<path fill="none" stroke="green" stroke-dasharray="1,5" d="M2287.28,-95.98C2297.94,-84.91 2311.26,-71.07 2322.52,-59.38"/>
<polygon fill="green" stroke="green" points="2325.16,-61.69 2329.58,-52.05 2320.12,-56.83 2325.16,-61.69"/>
</g>
<!-- fuzzer&#45;&gt;n14 -->
<g id="edge32" class="edge">
<title>fuzzer&#45;&gt;n14</title>
<path fill="none" stroke="green" stroke-dasharray="1,5" d="M2248.97,-95.98C2238.44,-84.91 2225.29,-71.07 2214.17,-59.38"/>
<polygon fill="green" stroke="green" points="2216.64,-56.89 2207.21,-52.05 2211.57,-61.71 2216.64,-56.89"/>
</g>
<!-- fuzzer&#45;&gt;n15 -->
<g id="edge33" class="edge">
<title>fuzzer&#45;&gt;n15</title>
<path fill="none" stroke="green" stroke-dasharray="1,5" d="M2370.5,-115.91C2507.02,-114.75 2740.75,-108.89 2822,-83 2838.87,-77.63 2855.77,-67.72 2869.42,-58.3"/>
<polygon fill="green" stroke="green" points="2871.79,-60.9 2877.88,-52.23 2867.72,-55.21 2871.79,-60.9"/>
</g>
<!-- fuzzer&#45;&gt;n16 -->
<g id="edge34" class="edge">
<title>fuzzer&#45;&gt;n16</title>
<path fill="none" stroke="green" stroke-dasharray="1,5" d="M2370.35,-115.53C2480.61,-113.75 2648.18,-107.01 2707,-83 2719.85,-77.75 2731.95,-68.47 2741.66,-59.46"/>
<polygon fill="green" stroke="green" points="2744.2,-61.87 2748.91,-52.37 2739.31,-56.86 2744.2,-61.87"/>
</g>
<!-- n22 -->
<g id="node29" class="node">
<title>n22</title>
<polygon fill="#ffd700" stroke="black" points="3246.5,-52 3101.5,-52 3101.5,-16 3246.5,-16 3246.5,-52"/>
<text text-anchor="middle" x="3174" y="-31.5" font-family="Helvetica,sans-Serif" font-size="10.00">CIccCmm::GetNumXforms</text>
</g>
<!-- fuzzer&#45;&gt;n22 -->
<g id="edge21" class="edge">
<title>fuzzer&#45;&gt;n22</title>
<path fill="none" stroke="orange" stroke-width="2" d="M2370.04,-114.72C2575.54,-111.72 3025.47,-102.97 3093,-83 3110.91,-77.7 3128.98,-67.57 3143.48,-57.97"/>
<polygon fill="orange" stroke="orange" stroke-width="2" points="3145.76,-60.66 3152.02,-52.12 3141.8,-54.89 3145.76,-60.66"/>
</g>
<!-- n23 -->
<g id="node30" class="node">
<title>n23</title>
<polygon fill="#ffd700" stroke="black" points="3083.5,-52 2990.5,-52 2990.5,-16 3083.5,-16 3083.5,-52"/>
<text text-anchor="middle" x="3037" y="-31.5" font-family="Helvetica,sans-Serif" font-size="10.00">CIccCmm::Valid</text>
</g>
<!-- fuzzer&#45;&gt;n23 -->
<g id="edge22" class="edge">
<title>fuzzer&#45;&gt;n23</title>
<path fill="none" stroke="orange" stroke-width="2" d="M2370.15,-114.83C2553.34,-112.21 2923.82,-104.33 2979,-83 2992.28,-77.87 3004.75,-68.42 3014.71,-59.25"/>
<polygon fill="orange" stroke="orange" stroke-width="2" points="3017.38,-61.53 3022.12,-52.05 3012.5,-56.51 3017.38,-61.53"/>
</g>
<!-- n20 -->
<g id="node27" class="node">
<title>n20</title>
<polygon fill="#add8e6" stroke="black" points="213.5,-52 128.5,-52 128.5,-16 213.5,-16 213.5,-52"/>
<text text-anchor="middle" x="171" y="-37" font-family="Helvetica,sans-Serif" font-size="10.00">SaveIccProfile</text>
<text text-anchor="middle" x="171" y="-26" font-family="Helvetica,sans-Serif" font-size="10.00">L540</text>
</g>
<!-- n21 -->
<g id="node28" class="node">
<title>n21</title>
<polygon fill="#add8e6" stroke="black" points="110,-52 16,-52 16,-16 110,-16 110,-52"/>
<text text-anchor="middle" x="63" y="-37" font-family="Helvetica,sans-Serif" font-size="10.00">CIccProfile::new</text>
<text text-anchor="middle" x="63" y="-26" font-family="Helvetica,sans-Serif" font-size="10.00">L328</text>
</g>
</g>
</svg>
