<?xml version="1.0" encoding="UTF-8" standalone="no"?>
<!DOCTYPE svg PUBLIC "-//W3C//DTD SVG 1.1//EN"
 "http://www.w3.org/Graphics/SVG/1.1/DTD/svg11.dtd">
<!-- Generated by graphviz version 2.43.0 (0)
 -->
<!-- Title: Call graph: /home/h02332/po/research/call&#45;graph/iccdev/xml/IccIoXml.ll Pages: 1 -->
<svg width="1648pt" height="287pt"
 viewBox="0.00 0.00 1648.00 287.00" xmlns="http://www.w3.org/2000/svg" xmlns:xlink="http://www.w3.org/1999/xlink">
<g id="graph0" class="graph" transform="scale(1 1) rotate(0) translate(4 283)">
<title>Call graph: /home/h02332/po/research/call&#45;graph/iccdev/xml/IccIoXml.ll</title>
<polygon fill="white" stroke="transparent" points="-4,4 -4,-283 1644,-283 1644,4 -4,4"/>
<text text-anchor="middle" x="820" y="-7.8" font-family="Times,serif" font-size="14.00">Call graph: /home/h02332/po/research/call&#45;graph/iccdev/xml/IccIoXml.ll</text>
<!-- Node0x5edd6242c4f0 -->
<g id="node1" class="node">
<title>Node0x5edd6242c4f0</title>
<polygon fill="none" stroke="black" points="38.5,-242.5 38.5,-278.5 379.5,-278.5 379.5,-242.5 38.5,-242.5"/>
<text text-anchor="middle" x="209" y="-256.8" font-family="Times,serif" font-size="14.00">_ZN18CIccStandardFileIO8OpenFileEPKcS1_</text>
</g>
<!-- Node0x5edd6242af00 -->
<g id="node2" class="node">
<title>Node0x5edd6242af00</title>
<polygon fill="none" stroke="black" points="0,-169.5 0,-205.5 68,-205.5 68,-169.5 0,-169.5"/>
<text text-anchor="middle" x="34" y="-183.8" font-family="Times,serif" font-size="14.00">_Znwm</text>
</g>
<!-- Node0x5edd6242c4f0&#45;&gt;Node0x5edd6242af00 -->
<g id="edge1" class="edge">
<title>Node0x5edd6242c4f0&#45;&gt;Node0x5edd6242af00</title>
<path fill="none" stroke="black" d="M166.79,-242.41C143,-232.77 112.51,-220.42 77.7,-206.28"/>
<polygon fill="black" stroke="black" points="78.85,-202.97 68.27,-202.45 76.21,-209.46 78.85,-202.97"/>
</g>
<!-- Node0x5edd6241b000 -->
<g id="node3" class="node">
<title>Node0x5edd6241b000</title>
<polygon fill="none" stroke="black" points="86,-169.5 86,-205.5 262,-205.5 262,-169.5 86,-169.5"/>
<text text-anchor="middle" x="174" y="-183.8" font-family="Times,serif" font-size="14.00">_ZN10CIccFileIOC1Ev</text>
</g>
<!-- Node0x5edd6242c4f0&#45;&gt;Node0x5edd6241b000 -->
<g id="edge2" class="edge">
<title>Node0x5edd6242c4f0&#45;&gt;Node0x5edd6241b000</title>
<path fill="none" stroke="black" d="M200.53,-242.31C196.44,-234.03 191.46,-223.91 186.91,-214.69"/>
<polygon fill="black" stroke="black" points="189.96,-212.95 182.39,-205.53 183.68,-216.05 189.96,-212.95"/>
</g>
<!-- Node0x5edd62424ed0 -->
<g id="node4" class="node">
<title>Node0x5edd62424ed0</title>
<polygon fill="none" stroke="black" points="280,-169.5 280,-205.5 528,-205.5 528,-169.5 280,-169.5"/>
<text text-anchor="middle" x="404" y="-183.8" font-family="Times,serif" font-size="14.00">_ZN10CIccFileIO4OpenEPKcS1_</text>
</g>
<!-- Node0x5edd6242c4f0&#45;&gt;Node0x5edd62424ed0 -->
<g id="edge3" class="edge">
<title>Node0x5edd6242c4f0&#45;&gt;Node0x5edd62424ed0</title>
<path fill="none" stroke="black" d="M255.71,-242.49C283.24,-232.47 318.28,-219.71 347.38,-209.12"/>
<polygon fill="black" stroke="black" points="348.8,-212.32 357,-205.61 346.4,-205.75 348.8,-212.32"/>
</g>
<!-- Node0x5edd6241d4d0 -->
<g id="node5" class="node">
<title>Node0x5edd6241d4d0</title>
<polygon fill="none" stroke="black" points="546.5,-169.5 546.5,-205.5 611.5,-205.5 611.5,-169.5 546.5,-169.5"/>
<text text-anchor="middle" x="579" y="-183.8" font-family="Times,serif" font-size="14.00">_ZdlPv</text>
</g>
<!-- Node0x5edd6242c4f0&#45;&gt;Node0x5edd6241d4d0 -->
<g id="edge4" class="edge">
<title>Node0x5edd6242c4f0&#45;&gt;Node0x5edd6241d4d0</title>
<path fill="none" stroke="black" d="M359.61,-242.44C413.16,-234.52 473.76,-223.43 536.56,-205.77"/>
<polygon fill="black" stroke="black" points="537.59,-209.11 546.24,-203 535.67,-202.38 537.59,-209.11"/>
</g>
<!-- Node0x5edd6241ead0 -->
<g id="node6" class="node">
<title>Node0x5edd6241ead0</title>
<polygon fill="none" stroke="black" points="466.5,-242.5 466.5,-278.5 633.5,-278.5 633.5,-242.5 466.5,-242.5"/>
<text text-anchor="middle" x="550" y="-256.8" font-family="Times,serif" font-size="14.00">__gxx_personality_v0</text>
</g>
<!-- Node0x5edd62423120 -->
<g id="node7" class="node">
<title>Node0x5edd62423120</title>
<polygon fill="none" stroke="black" points="720.5,-169.5 720.5,-205.5 885.5,-205.5 885.5,-169.5 720.5,-169.5"/>
<text text-anchor="middle" x="803" y="-183.8" font-family="Times,serif" font-size="14.00">__cxx_global_var_init</text>
</g>
<!-- Node0x5edd62423520 -->
<g id="node8" class="node">
<title>Node0x5edd62423520</title>
<polygon fill="none" stroke="black" points="682,-96.5 682,-132.5 924,-132.5 924,-96.5 682,-96.5"/>
<text text-anchor="middle" x="803" y="-110.8" font-family="Times,serif" font-size="14.00">_ZN18CIccStandardFileIOC2Ev</text>
</g>
<!-- Node0x5edd62423120&#45;&gt;Node0x5edd62423520 -->
<g id="edge5" class="edge">
<title>Node0x5edd62423120&#45;&gt;Node0x5edd62423520</title>
<path fill="none" stroke="black" d="M803,-169.31C803,-161.29 803,-151.55 803,-142.57"/>
<polygon fill="black" stroke="black" points="806.5,-142.53 803,-132.53 799.5,-142.53 806.5,-142.53"/>
</g>
<!-- Node0x5edd624269c0 -->
<g id="node9" class="node">
<title>Node0x5edd624269c0</title>
<polygon fill="none" stroke="black" points="699,-23.5 699,-59.5 907,-59.5 907,-23.5 699,-23.5"/>
<text text-anchor="middle" x="803" y="-37.8" font-family="Times,serif" font-size="14.00">_ZN14IIccOpenFileIOC2Ev</text>
</g>
<!-- Node0x5edd62423520&#45;&gt;Node0x5edd624269c0 -->
<g id="edge6" class="edge">
<title>Node0x5edd62423520&#45;&gt;Node0x5edd624269c0</title>
<path fill="none" stroke="black" d="M803,-96.31C803,-88.29 803,-78.55 803,-69.57"/>
<polygon fill="black" stroke="black" points="806.5,-69.53 803,-59.53 799.5,-69.53 806.5,-69.53"/>
</g>
<!-- Node0x5edd624233a0 -->
<g id="node10" class="node">
<title>Node0x5edd624233a0</title>
<polygon fill="none" stroke="black" points="938,-242.5 938,-278.5 1144,-278.5 1144,-242.5 938,-242.5"/>
<text text-anchor="middle" x="1041" y="-256.8" font-family="Times,serif" font-size="14.00">_Z13IccOpenFileIOPKcS0_</text>
</g>
<!-- Node0x5edd62425200 -->
<g id="node11" class="node">
<title>Node0x5edd62425200</title>
<polygon fill="none" stroke="black" points="1162.5,-242.5 1162.5,-278.5 1473.5,-278.5 1473.5,-242.5 1162.5,-242.5"/>
<text text-anchor="middle" x="1318" y="-256.8" font-family="Times,serif" font-size="14.00">_Z16IccSetOpenFileIOP14IIccOpenFileIO</text>
</g>
<!-- Node0x5edd62418bc0 -->
<g id="node12" class="node">
<title>Node0x5edd62418bc0</title>
<polygon fill="none" stroke="black" points="1492,-242.5 1492,-278.5 1640,-278.5 1640,-242.5 1492,-242.5"/>
<text text-anchor="middle" x="1566" y="-256.8" font-family="Times,serif" font-size="14.00">__cxa_pure_virtual</text>
</g>
<!-- Node0x5edd6242c690 -->
<g id="node13" class="node">
<title>Node0x5edd6242c690</title>
<polygon fill="none" stroke="black" points="686.5,-242.5 686.5,-278.5 919.5,-278.5 919.5,-242.5 686.5,-242.5"/>
<text text-anchor="middle" x="803" y="-256.8" font-family="Times,serif" font-size="14.00">_GLOBAL__sub_I_IccIoXml.cpp</text>
</g>
<!-- Node0x5edd6242c690&#45;&gt;Node0x5edd62423120 -->
<g id="edge7" class="edge">
<title>Node0x5edd6242c690&#45;&gt;Node0x5edd62423120</title>
<path fill="none" stroke="black" d="M803,-242.31C803,-234.29 803,-224.55 803,-215.57"/>
<polygon fill="black" stroke="black" points="806.5,-215.53 803,-205.53 799.5,-215.53 806.5,-215.53"/>
</g>
</g>
</svg>
