<?xml version="1.0" encoding="UTF-8" standalone="no"?>
<!DOCTYPE svg PUBLIC "-//W3C//DTD SVG 1.1//EN"
 "http://www.w3.org/Graphics/SVG/1.1/DTD/svg11.dtd">
<!-- Generated by graphviz version 2.43.0 (0)
 -->
<!-- Title: Call graph: /home/h02332/po/research/call&#45;graph/iccdev/xml/IccIoXml.ll Pages: 1 -->
<svg width="505pt" height="369pt"
 viewBox="0.00 0.00 505.20 369.20" xmlns="http://www.w3.org/2000/svg" xmlns:xlink="http://www.w3.org/1999/xlink">
<g id="graph0" class="graph" transform="scale(1 1) rotate(0) translate(21.6 347.6)">
<title>Call graph: /home/h02332/po/research/call&#45;graph/iccdev/xml/IccIoXml.ll</title>
<polygon fill="white" stroke="transparent" points="-21.6,21.6 -21.6,-347.6 483.6,-347.6 483.6,21.6 -21.6,21.6"/>
<!-- Node0x5d6e411354f0 -->
<g id="node1" class="node">
<title>Node0x5d6e411354f0</title>
<path fill="#f0f4ff" stroke="black" d="M184.5,-65C184.5,-65 38.5,-65 38.5,-65 32.5,-65 26.5,-59 26.5,-53 26.5,-53 26.5,-41 26.5,-41 26.5,-35 32.5,-29 38.5,-29 38.5,-29 184.5,-29 184.5,-29 190.5,-29 196.5,-35 196.5,-41 196.5,-41 196.5,-53 196.5,-53 196.5,-59 190.5,-65 184.5,-65"/>
<text text-anchor="middle" x="111.5" y="-44.8" font-family="Courier,monospace" font-size="9.00">CIccStandardFileIO::OpenFile()</text>
</g>
<!-- Node0x5d6e4111e770 -->
<g id="node2" class="node">
<title>Node0x5d6e4111e770</title>
<path fill="#f0f4ff" stroke="black" d="M429,-94C429,-94 314,-94 314,-94 308,-94 302,-88 302,-82 302,-82 302,-70 302,-70 302,-64 308,-58 314,-58 314,-58 429,-58 429,-58 435,-58 441,-64 441,-70 441,-70 441,-82 441,-82 441,-88 435,-94 429,-94"/>
<text text-anchor="middle" x="371.5" y="-73.8" font-family="Courier,monospace" font-size="9.00">CIccFileIO::CIccFileIO()</text>
</g>
<!-- Node0x5d6e411354f0&#45;&gt;Node0x5d6e4111e770 -->
<g id="edge1" class="edge">
<title>Node0x5d6e411354f0&#45;&gt;Node0x5d6e4111e770</title>
<path fill="none" stroke="#4a6fa5" d="M196.62,-56.46C228.61,-60.05 264.79,-64.12 295.84,-67.61"/>
<polygon fill="#4a6fa5" stroke="#4a6fa5" points="295.78,-69.71 301.98,-68.3 296.25,-65.54 295.78,-69.71"/>
</g>
<!-- Node0x5d6e41126170 -->
<g id="node3" class="node">
<title>Node0x5d6e41126170</title>
<path fill="#f0f4ff" stroke="black" d="M413,-36C413,-36 330,-36 330,-36 324,-36 318,-30 318,-24 318,-24 318,-12 318,-12 318,-6 324,0 330,0 330,0 413,0 413,0 419,0 425,-6 425,-12 425,-12 425,-24 425,-24 425,-30 419,-36 413,-36"/>
<text text-anchor="middle" x="371.5" y="-15.8" font-family="Courier,monospace" font-size="9.00">CIccFileIO::Open()</text>
</g>
<!-- Node0x5d6e411354f0&#45;&gt;Node0x5d6e41126170 -->
<g id="edge2" class="edge">
<title>Node0x5d6e411354f0&#45;&gt;Node0x5d6e41126170</title>
<path fill="none" stroke="#4a6fa5" d="M196.62,-37.54C234.14,-33.33 277.44,-28.46 311.44,-24.64"/>
<polygon fill="#4a6fa5" stroke="#4a6fa5" points="311.95,-26.69 317.68,-23.94 311.48,-22.52 311.95,-26.69"/>
</g>
<!-- Node0x5d6e4112f480 -->
<g id="node4" class="node">
<title>Node0x5d6e4112f480</title>
<path fill="#f0f4ff" stroke="black" d="M211,-152C211,-152 12,-152 12,-152 6,-152 0,-146 0,-140 0,-140 0,-128 0,-128 0,-122 6,-116 12,-116 12,-116 211,-116 211,-116 217,-116 223,-122 223,-128 223,-128 223,-140 223,-140 223,-146 217,-152 211,-152"/>
<text text-anchor="middle" x="111.5" y="-131.8" font-family="Courier,monospace" font-size="9.00">CIccStandardFileIO::CIccStandardFileIO()</text>
</g>
<!-- Node0x5d6e41135c20 -->
<g id="node5" class="node">
<title>Node0x5d6e41135c20</title>
<path fill="#f0f4ff" stroke="black" d="M450,-152C450,-152 293,-152 293,-152 287,-152 281,-146 281,-140 281,-140 281,-128 281,-128 281,-122 287,-116 293,-116 293,-116 450,-116 450,-116 456,-116 462,-122 462,-128 462,-128 462,-140 462,-140 462,-146 456,-152 450,-152"/>
<text text-anchor="middle" x="371.5" y="-131.8" font-family="Courier,monospace" font-size="9.00">IIccOpenFileIO::IIccOpenFileIO()</text>
</g>
<!-- Node0x5d6e4112f480&#45;&gt;Node0x5d6e41135c20 -->
<g id="edge3" class="edge">
<title>Node0x5d6e4112f480&#45;&gt;Node0x5d6e41135c20</title>
<path fill="none" stroke="#4a6fa5" d="M223.04,-134C240.21,-134 257.83,-134 274.65,-134"/>
<polygon fill="#4a6fa5" stroke="#4a6fa5" points="274.81,-136.1 280.81,-134 274.81,-131.9 274.81,-136.1"/>
</g>
<!-- Node0x5d6e4112c3a0 -->
<g id="node6" class="node">
<title>Node0x5d6e4112c3a0</title>
<path fill="#f0f4ff" stroke="black" d="M145,-210C145,-210 78,-210 78,-210 72,-210 66,-204 66,-198 66,-198 66,-186 66,-186 66,-180 72,-174 78,-174 78,-174 145,-174 145,-174 151,-174 157,-180 157,-186 157,-186 157,-198 157,-198 157,-204 151,-210 145,-210"/>
<text text-anchor="middle" x="111.5" y="-189.8" font-family="Courier,monospace" font-size="9.00">IccOpenFileIO()</text>
</g>
<!-- Node0x5d6e4112e200 -->
<g id="node7" class="node">
<title>Node0x5d6e4112e200</title>
<path fill="#f0f4ff" stroke="black" d="M153,-268C153,-268 70,-268 70,-268 64,-268 58,-262 58,-256 58,-256 58,-244 58,-244 58,-238 64,-232 70,-232 70,-232 153,-232 153,-232 159,-232 165,-238 165,-244 165,-244 165,-256 165,-256 165,-262 159,-268 153,-268"/>
<text text-anchor="middle" x="111.5" y="-247.8" font-family="Courier,monospace" font-size="9.00">IccSetOpenFileIO()</text>
</g>
<!-- Node0x5d6e41135690 -->
<g id="node8" class="node">
<title>Node0x5d6e41135690</title>
<path fill="#f0f4ff" stroke="black" d="M176.5,-326C176.5,-326 46.5,-326 46.5,-326 40.5,-326 34.5,-320 34.5,-314 34.5,-314 34.5,-302 34.5,-302 34.5,-296 40.5,-290 46.5,-290 46.5,-290 176.5,-290 176.5,-290 182.5,-290 188.5,-296 188.5,-302 188.5,-302 188.5,-314 188.5,-314 188.5,-320 182.5,-326 176.5,-326"/>
<text text-anchor="middle" x="111.5" y="-305.8" font-family="Courier,monospace" font-size="9.00">_GLOBAL__sub_I_IccIoXml.cpp</text>
</g>
</g>
</svg>
