<?xml version="1.0" encoding="UTF-8" standalone="no"?>
<!DOCTYPE svg PUBLIC "-//W3C//DTD SVG 1.1//EN"
 "http://www.w3.org/Graphics/SVG/1.1/DTD/svg11.dtd">
<!-- Generated by graphviz version 2.43.0 (0)
 -->
<!-- Title: Call graph: /home/h02332/po/research/call&#45;graph/iccdev/xml/IccMpeXmlFactory.ll Pages: 1 -->
<svg width="1392pt" height="2167pt"
 viewBox="0.00 0.00 1392.20 2167.20" xmlns="http://www.w3.org/2000/svg" xmlns:xlink="http://www.w3.org/1999/xlink">
<g id="graph0" class="graph" transform="scale(1 1) rotate(0) translate(21.6 2145.6)">
<title>Call graph: /home/h02332/po/research/call&#45;graph/iccdev/xml/IccMpeXmlFactory.ll</title>
<polygon fill="white" stroke="transparent" points="-21.6,21.6 -21.6,-2145.6 1370.6,-2145.6 1370.6,21.6 -21.6,21.6"/>
<!-- Node0x63b0ae180c80 -->
<g id="node1" class="node">
<title>Node0x63b0ae180c80</title>
<path fill="#f0f4ff" stroke="black" d="M216,-645C216,-645 49,-645 49,-645 43,-645 37,-639 37,-633 37,-633 37,-621 37,-621 37,-615 43,-609 49,-609 49,-609 216,-609 216,-609 222,-609 228,-615 228,-621 228,-621 228,-633 228,-633 228,-639 222,-645 216,-645"/>
<text text-anchor="middle" x="132.5" y="-624.8" font-family="Courier,monospace" font-size="9.00">CIccMpeXmlFactory::CreateElement()</text>
</g>
<!-- Node0x63b0ae183f60 -->
<g id="node2" class="node">
<title>Node0x63b0ae183f60</title>
<path fill="#f0f4ff" stroke="black" d="M576,-1138C576,-1138 398,-1138 398,-1138 392,-1138 386,-1132 386,-1126 386,-1126 386,-1114 386,-1114 386,-1108 392,-1102 398,-1102 398,-1102 576,-1102 576,-1102 582,-1102 588,-1108 588,-1114 588,-1114 588,-1126 588,-1126 588,-1132 582,-1138 576,-1138"/>
<text text-anchor="middle" x="487" y="-1117.8" font-family="Courier,monospace" font-size="9.00">CIccMpeXmlMatrix::CIccMpeXmlMatrix()</text>
</g>
<!-- Node0x63b0ae180c80&#45;&gt;Node0x63b0ae183f60 -->
<g id="edge1" class="edge">
<title>Node0x63b0ae180c80&#45;&gt;Node0x63b0ae183f60</title>
<path fill="none" stroke="#4a6fa5" d="M142.48,-645.04C164.77,-690.2 223.83,-812.01 265,-917 294.76,-992.89 261.32,-1037.71 323,-1091 338.94,-1104.77 359.1,-1113.03 379.77,-1117.81"/>
<polygon fill="#4a6fa5" stroke="#4a6fa5" points="379.59,-1119.92 385.9,-1119.13 380.48,-1115.81 379.59,-1119.92"/>
</g>
<!-- Node0x63b0ae026d00 -->
<g id="node3" class="node">
<title>Node0x63b0ae026d00</title>
<path fill="#f0f4ff" stroke="black" d="M581,-1080C581,-1080 393,-1080 393,-1080 387,-1080 381,-1074 381,-1068 381,-1068 381,-1056 381,-1056 381,-1050 387,-1044 393,-1044 393,-1044 581,-1044 581,-1044 587,-1044 593,-1050 593,-1056 593,-1056 593,-1068 593,-1068 593,-1074 587,-1080 581,-1080"/>
<text text-anchor="middle" x="487" y="-1059.8" font-family="Courier,monospace" font-size="9.00">CIccMpeXmlUnknown::CIccMpeXmlUnknown()</text>
</g>
<!-- Node0x63b0ae180c80&#45;&gt;Node0x63b0ae026d00 -->
<g id="edge2" class="edge">
<title>Node0x63b0ae180c80&#45;&gt;Node0x63b0ae026d00</title>
<path fill="none" stroke="#4a6fa5" d="M141.71,-645.17C176.99,-723.22 314.4,-1026.4 323,-1033 337.95,-1044.48 355.94,-1051.99 374.43,-1056.8"/>
<polygon fill="#4a6fa5" stroke="#4a6fa5" points="374.38,-1058.95 380.71,-1058.33 375.38,-1054.87 374.38,-1058.95"/>
</g>
<!-- Node0x63b0ae027970 -->
<g id="node4" class="node">
<title>Node0x63b0ae027970</title>
<path fill="#f0f4ff" stroke="black" d="M565.5,-1022C565.5,-1022 408.5,-1022 408.5,-1022 402.5,-1022 396.5,-1016 396.5,-1010 396.5,-1010 396.5,-998 396.5,-998 396.5,-992 402.5,-986 408.5,-986 408.5,-986 565.5,-986 565.5,-986 571.5,-986 577.5,-992 577.5,-998 577.5,-998 577.5,-1010 577.5,-1010 577.5,-1016 571.5,-1022 565.5,-1022"/>
<text text-anchor="middle" x="487" y="-1001.8" font-family="Courier,monospace" font-size="9.00">CIccMpeXmlEAcs::CIccMpeXmlEAcs()</text>
</g>
<!-- Node0x63b0ae180c80&#45;&gt;Node0x63b0ae027970 -->
<g id="edge3" class="edge">
<title>Node0x63b0ae180c80&#45;&gt;Node0x63b0ae027970</title>
<path fill="none" stroke="#4a6fa5" d="M140.95,-645.28C167.95,-710.65 262.29,-931.28 323,-975 342.46,-989.01 366.55,-996.97 390.18,-1001.34"/>
<polygon fill="#4a6fa5" stroke="#4a6fa5" points="389.91,-1003.42 396.18,-1002.37 390.62,-999.28 389.91,-1003.42"/>
</g>
<!-- Node0x63b0ae05f390 -->
<g id="node5" class="node">
<title>Node0x63b0ae05f390</title>
<path fill="#f0f4ff" stroke="black" d="M586.5,-964C586.5,-964 387.5,-964 387.5,-964 381.5,-964 375.5,-958 375.5,-952 375.5,-952 375.5,-940 375.5,-940 375.5,-934 381.5,-928 387.5,-928 387.5,-928 586.5,-928 586.5,-928 592.5,-928 598.5,-934 598.5,-940 598.5,-940 598.5,-952 598.5,-952 598.5,-958 592.5,-964 586.5,-964"/>
<text text-anchor="middle" x="487" y="-943.8" font-family="Courier,monospace" font-size="9.00">CIccMpeXmlCurveSet::CIccMpeXmlCurveSet()</text>
</g>
<!-- Node0x63b0ae180c80&#45;&gt;Node0x63b0ae05f390 -->
<g id="edge4" class="edge">
<title>Node0x63b0ae180c80&#45;&gt;Node0x63b0ae05f390</title>
<path fill="none" stroke="#4a6fa5" d="M139.58,-645.35C157.9,-697.54 217.89,-847.52 323,-917 336.88,-926.17 352.82,-932.68 369.18,-937.26"/>
<polygon fill="#4a6fa5" stroke="#4a6fa5" points="368.88,-939.36 375.22,-938.86 369.96,-935.3 368.88,-939.36"/>
</g>
<!-- Node0x63b0ae12da40 -->
<g id="node6" class="node">
<title>Node0x63b0ae12da40</title>
<path fill="#f0f4ff" stroke="black" d="M565.5,-906C565.5,-906 408.5,-906 408.5,-906 402.5,-906 396.5,-900 396.5,-894 396.5,-894 396.5,-882 396.5,-882 396.5,-876 402.5,-870 408.5,-870 408.5,-870 565.5,-870 565.5,-870 571.5,-870 577.5,-876 577.5,-882 577.5,-882 577.5,-894 577.5,-894 577.5,-900 571.5,-906 565.5,-906"/>
<text text-anchor="middle" x="487" y="-885.8" font-family="Courier,monospace" font-size="9.00">CIccMpeXmlBAcs::CIccMpeXmlBAcs()</text>
</g>
<!-- Node0x63b0ae180c80&#45;&gt;Node0x63b0ae12da40 -->
<g id="edge5" class="edge">
<title>Node0x63b0ae180c80&#45;&gt;Node0x63b0ae12da40</title>
<path fill="none" stroke="#4a6fa5" d="M142.46,-645.18C165.5,-689.85 231.51,-805.28 323,-859 343.14,-870.82 366.91,-878.06 389.98,-882.44"/>
<polygon fill="#4a6fa5" stroke="#4a6fa5" points="389.87,-884.55 396.14,-883.54 390.61,-880.42 389.87,-884.55"/>
</g>
<!-- Node0x63b0ae14a720 -->
<g id="node7" class="node">
<title>Node0x63b0ae14a720</title>
<path fill="#f0f4ff" stroke="black" d="M639,-848C639,-848 335,-848 335,-848 329,-848 323,-842 323,-836 323,-836 323,-824 323,-824 323,-818 329,-812 335,-812 335,-812 639,-812 639,-812 645,-812 651,-818 651,-824 651,-824 651,-836 651,-836 651,-842 645,-848 639,-848"/>
<text text-anchor="middle" x="487" y="-827.8" font-family="Courier,monospace" font-size="9.00">CIccMpeXmlReflectanceObserver::CIccMpeXmlReflectanceObser...</text>
</g>
<!-- Node0x63b0ae180c80&#45;&gt;Node0x63b0ae14a720 -->
<g id="edge6" class="edge">
<title>Node0x63b0ae180c80&#45;&gt;Node0x63b0ae14a720</title>
<path fill="none" stroke="#4a6fa5" d="M147.14,-645.07C175.49,-681.22 244.74,-762.28 323,-801 329.64,-804.29 336.6,-807.2 343.74,-809.8"/>
<polygon fill="#4a6fa5" stroke="#4a6fa5" points="343.42,-811.91 349.78,-811.9 344.8,-807.94 343.42,-811.91"/>
</g>
<!-- Node0x63b0ae14dcd0 -->
<g id="node8" class="node">
<title>Node0x63b0ae14dcd0</title>
<path fill="#f0f4ff" stroke="black" d="M628.5,-790C628.5,-790 345.5,-790 345.5,-790 339.5,-790 333.5,-784 333.5,-778 333.5,-778 333.5,-766 333.5,-766 333.5,-760 339.5,-754 345.5,-754 345.5,-754 628.5,-754 628.5,-754 634.5,-754 640.5,-760 640.5,-766 640.5,-766 640.5,-778 640.5,-778 640.5,-784 634.5,-790 628.5,-790"/>
<text text-anchor="middle" x="487" y="-769.8" font-family="Courier,monospace" font-size="9.00">CIccMpeXmlEmissionObserver::CIccMpeXmlEmissionObserver()</text>
</g>
<!-- Node0x63b0ae180c80&#45;&gt;Node0x63b0ae14dcd0 -->
<g id="edge7" class="edge">
<title>Node0x63b0ae180c80&#45;&gt;Node0x63b0ae14dcd0</title>
<path fill="none" stroke="#4a6fa5" d="M156.52,-645.09C190.77,-671.03 258.08,-718.37 323,-743 332.32,-746.54 342.11,-749.65 352.07,-752.38"/>
<polygon fill="#4a6fa5" stroke="#4a6fa5" points="351.61,-754.44 357.95,-753.95 352.69,-750.38 351.61,-754.44"/>
</g>
<!-- Node0x63b0ae18a0a0 -->
<g id="node9" class="node">
<title>Node0x63b0ae18a0a0</title>
<path fill="#f0f4ff" stroke="black" d="M565.5,-732C565.5,-732 408.5,-732 408.5,-732 402.5,-732 396.5,-726 396.5,-720 396.5,-720 396.5,-708 396.5,-708 396.5,-702 402.5,-696 408.5,-696 408.5,-696 565.5,-696 565.5,-696 571.5,-696 577.5,-702 577.5,-708 577.5,-708 577.5,-720 577.5,-720 577.5,-726 571.5,-732 565.5,-732"/>
<text text-anchor="middle" x="487" y="-711.8" font-family="Courier,monospace" font-size="9.00">CIccMpeXmlCLUT::CIccMpeXmlCLUT()</text>
</g>
<!-- Node0x63b0ae180c80&#45;&gt;Node0x63b0ae18a0a0 -->
<g id="edge8" class="edge">
<title>Node0x63b0ae180c80&#45;&gt;Node0x63b0ae18a0a0</title>
<path fill="none" stroke="#4a6fa5" d="M186.53,-645.11C224.26,-657.54 276.34,-673.75 323,-685 344.67,-690.22 368.18,-694.95 390.42,-698.99"/>
<polygon fill="#4a6fa5" stroke="#4a6fa5" points="390.07,-701.06 396.34,-700.06 390.81,-696.93 390.07,-701.06"/>
</g>
<!-- Node0x63b0ae1783c0 -->
<g id="node10" class="node">
<title>Node0x63b0ae1783c0</title>
<path fill="#f0f4ff" stroke="black" d="M623,-674C623,-674 351,-674 351,-674 345,-674 339,-668 339,-662 339,-662 339,-650 339,-650 339,-644 345,-638 351,-638 351,-638 623,-638 623,-638 629,-638 635,-644 635,-650 635,-650 635,-662 635,-662 635,-668 629,-674 623,-674"/>
<text text-anchor="middle" x="487" y="-653.8" font-family="Courier,monospace" font-size="9.00">CIccMpeXmlReflectanceCLUT::CIccMpeXmlReflectanceCLUT()</text>
</g>
<!-- Node0x63b0ae180c80&#45;&gt;Node0x63b0ae1783c0 -->
<g id="edge9" class="edge">
<title>Node0x63b0ae180c80&#45;&gt;Node0x63b0ae1783c0</title>
<path fill="none" stroke="#4a6fa5" d="M228.43,-634.81C260.52,-637.45 297.23,-640.47 332.67,-643.39"/>
<polygon fill="#4a6fa5" stroke="#4a6fa5" points="332.66,-645.49 338.81,-643.89 333,-641.31 332.66,-645.49"/>
</g>
<!-- Node0x63b0ae0c8270 -->
<g id="node11" class="node">
<title>Node0x63b0ae0c8270</title>
<path fill="#f0f4ff" stroke="black" d="M607.5,-616C607.5,-616 366.5,-616 366.5,-616 360.5,-616 354.5,-610 354.5,-604 354.5,-604 354.5,-592 354.5,-592 354.5,-586 360.5,-580 366.5,-580 366.5,-580 607.5,-580 607.5,-580 613.5,-580 619.5,-586 619.5,-592 619.5,-592 619.5,-604 619.5,-604 619.5,-610 613.5,-616 607.5,-616"/>
<text text-anchor="middle" x="487" y="-595.8" font-family="Courier,monospace" font-size="9.00">CIccMpeXmlEmissionCLUT::CIccMpeXmlEmissionCLUT()</text>
</g>
<!-- Node0x63b0ae180c80&#45;&gt;Node0x63b0ae0c8270 -->
<g id="edge10" class="edge">
<title>Node0x63b0ae180c80&#45;&gt;Node0x63b0ae0c8270</title>
<path fill="none" stroke="#4a6fa5" d="M228.43,-619.19C265.2,-616.16 308.03,-612.64 348.08,-609.35"/>
<polygon fill="#4a6fa5" stroke="#4a6fa5" points="348.68,-611.4 354.49,-608.82 348.33,-607.22 348.68,-611.4"/>
</g>
<!-- Node0x63b0ae0d9930 -->
<g id="node12" class="node">
<title>Node0x63b0ae0d9930</title>
<path fill="#f0f4ff" stroke="black" d="M633.5,-558C633.5,-558 340.5,-558 340.5,-558 334.5,-558 328.5,-552 328.5,-546 328.5,-546 328.5,-534 328.5,-534 328.5,-528 334.5,-522 340.5,-522 340.5,-522 633.5,-522 633.5,-522 639.5,-522 645.5,-528 645.5,-534 645.5,-534 645.5,-546 645.5,-546 645.5,-552 639.5,-558 633.5,-558"/>
<text text-anchor="middle" x="487" y="-537.8" font-family="Courier,monospace" font-size="9.00">CIccMpeXmlInvEmissionMatrix::CIccMpeXmlInvEmissionMatrix()</text>
</g>
<!-- Node0x63b0ae180c80&#45;&gt;Node0x63b0ae0d9930 -->
<g id="edge11" class="edge">
<title>Node0x63b0ae180c80&#45;&gt;Node0x63b0ae0d9930</title>
<path fill="none" stroke="#4a6fa5" d="M186.53,-608.89C224.26,-596.46 276.34,-580.25 323,-569 337.55,-565.49 352.93,-562.21 368.2,-559.21"/>
<polygon fill="#4a6fa5" stroke="#4a6fa5" points="368.78,-561.24 374.27,-558.03 367.98,-557.11 368.78,-561.24"/>
</g>
<!-- Node0x63b0ae18ae80 -->
<g id="node13" class="node">
<title>Node0x63b0ae18ae80</title>
<path fill="#f0f4ff" stroke="black" d="M581,-442C581,-442 393,-442 393,-442 387,-442 381,-436 381,-430 381,-430 381,-418 381,-418 381,-412 387,-406 393,-406 393,-406 581,-406 581,-406 587,-406 593,-412 593,-418 593,-418 593,-430 593,-430 593,-436 587,-442 581,-442"/>
<text text-anchor="middle" x="487" y="-421.8" font-family="Courier,monospace" font-size="9.00">CIccMpeXmlExtCLUT::CIccMpeXmlExtCLUT()</text>
</g>
<!-- Node0x63b0ae180c80&#45;&gt;Node0x63b0ae18ae80 -->
<g id="edge12" class="edge">
<title>Node0x63b0ae180c80&#45;&gt;Node0x63b0ae18ae80</title>
<path fill="none" stroke="#4a6fa5" d="M147.14,-608.93C175.49,-572.78 244.74,-491.72 323,-453 338.97,-445.1 356.76,-439.32 374.56,-435.11"/>
<polygon fill="#4a6fa5" stroke="#4a6fa5" points="375.21,-437.11 380.6,-433.74 374.28,-433.02 375.21,-437.11"/>
</g>
<!-- Node0x63b0ae0f81b0 -->
<g id="node14" class="node">
<title>Node0x63b0ae0f81b0</title>
<path fill="#f0f4ff" stroke="black" d="M618,-500C618,-500 356,-500 356,-500 350,-500 344,-494 344,-488 344,-488 344,-476 344,-476 344,-470 350,-464 356,-464 356,-464 618,-464 618,-464 624,-464 630,-470 630,-476 630,-476 630,-488 630,-488 630,-494 624,-500 618,-500"/>
<text text-anchor="middle" x="487" y="-479.8" font-family="Courier,monospace" font-size="9.00">CIccMpeXmlEmissionMatrix::CIccMpeXmlEmissionMatrix()</text>
</g>
<!-- Node0x63b0ae180c80&#45;&gt;Node0x63b0ae0f81b0 -->
<g id="edge13" class="edge">
<title>Node0x63b0ae180c80&#45;&gt;Node0x63b0ae0f81b0</title>
<path fill="none" stroke="#4a6fa5" d="M156.52,-608.91C190.77,-582.97 258.08,-535.63 323,-511 332.32,-507.46 342.11,-504.35 352.07,-501.62"/>
<polygon fill="#4a6fa5" stroke="#4a6fa5" points="352.69,-503.62 357.95,-500.05 351.61,-499.56 352.69,-503.62"/>
</g>
<!-- Node0x63b0ae12a3d0 -->
<g id="node15" class="node">
<title>Node0x63b0ae12a3d0</title>
<path fill="#f0f4ff" stroke="black" d="M586.5,-384C586.5,-384 387.5,-384 387.5,-384 381.5,-384 375.5,-378 375.5,-372 375.5,-372 375.5,-360 375.5,-360 375.5,-354 381.5,-348 387.5,-348 387.5,-348 586.5,-348 586.5,-348 592.5,-348 598.5,-354 598.5,-360 598.5,-360 598.5,-372 598.5,-372 598.5,-378 592.5,-384 586.5,-384"/>
<text text-anchor="middle" x="487" y="-363.8" font-family="Courier,monospace" font-size="9.00">CIccMpeXmlJabToXYZ::CIccMpeXmlJabToXYZ()</text>
</g>
<!-- Node0x63b0ae180c80&#45;&gt;Node0x63b0ae12a3d0 -->
<g id="edge14" class="edge">
<title>Node0x63b0ae180c80&#45;&gt;Node0x63b0ae12a3d0</title>
<path fill="none" stroke="#4a6fa5" d="M142.46,-608.82C165.5,-564.15 231.51,-448.72 323,-395 337.13,-386.7 353.04,-380.66 369.25,-376.29"/>
<polygon fill="#4a6fa5" stroke="#4a6fa5" points="369.95,-378.28 375.24,-374.75 368.9,-374.21 369.95,-378.28"/>
</g>
<!-- Node0x63b0ae0c9340 -->
<g id="node16" class="node">
<title>Node0x63b0ae0c9340</title>
<path fill="#f0f4ff" stroke="black" d="M597,-326C597,-326 377,-326 377,-326 371,-326 365,-320 365,-314 365,-314 365,-302 365,-302 365,-296 371,-290 377,-290 377,-290 597,-290 597,-290 603,-290 609,-296 609,-302 609,-302 609,-314 609,-314 609,-320 603,-326 597,-326"/>
<text text-anchor="middle" x="487" y="-305.8" font-family="Courier,monospace" font-size="9.00">CIccMpeXmlCalculator::CIccMpeXmlCalculator()</text>
</g>
<!-- Node0x63b0ae180c80&#45;&gt;Node0x63b0ae0c9340 -->
<g id="edge15" class="edge">
<title>Node0x63b0ae180c80&#45;&gt;Node0x63b0ae0c9340</title>
<path fill="none" stroke="#4a6fa5" d="M139.58,-608.65C157.9,-556.46 217.89,-406.48 323,-337 333.92,-329.78 346.11,-324.22 358.77,-319.94"/>
<polygon fill="#4a6fa5" stroke="#4a6fa5" points="359.55,-321.9 364.62,-318.07 358.26,-317.9 359.55,-321.9"/>
</g>
<!-- Node0x63b0ae092160 -->
<g id="node17" class="node">
<title>Node0x63b0ae092160</title>
<path fill="#f0f4ff" stroke="black" d="M586.5,-268C586.5,-268 387.5,-268 387.5,-268 381.5,-268 375.5,-262 375.5,-256 375.5,-256 375.5,-244 375.5,-244 375.5,-238 381.5,-232 387.5,-232 387.5,-232 586.5,-232 586.5,-232 592.5,-232 598.5,-238 598.5,-244 598.5,-244 598.5,-256 598.5,-256 598.5,-262 592.5,-268 586.5,-268"/>
<text text-anchor="middle" x="487" y="-247.8" font-family="Courier,monospace" font-size="9.00">CIccMpeXmlXYZToJab::CIccMpeXmlXYZToJab()</text>
</g>
<!-- Node0x63b0ae180c80&#45;&gt;Node0x63b0ae092160 -->
<g id="edge16" class="edge">
<title>Node0x63b0ae180c80&#45;&gt;Node0x63b0ae092160</title>
<path fill="none" stroke="#4a6fa5" d="M137.48,-608.92C151.38,-550.41 203.54,-365.03 323,-279 336.71,-269.13 352.72,-262.26 369.25,-257.54"/>
<polygon fill="#4a6fa5" stroke="#4a6fa5" points="370.11,-259.48 375.36,-255.89 369.02,-255.42 370.11,-259.48"/>
</g>
<!-- Node0x63b0ae098190 -->
<g id="node18" class="node">
<title>Node0x63b0ae098190</title>
<path fill="#f0f4ff" stroke="black" d="M581,-210C581,-210 393,-210 393,-210 387,-210 381,-204 381,-198 381,-198 381,-186 381,-186 381,-180 387,-174 393,-174 393,-174 581,-174 581,-174 587,-174 593,-180 593,-186 593,-186 593,-198 593,-198 593,-204 587,-210 581,-210"/>
<text text-anchor="middle" x="487" y="-189.8" font-family="Courier,monospace" font-size="9.00">CIccMpeXmlToneMap::CIccMpeXmlToneMap()</text>
</g>
<!-- Node0x63b0ae180c80&#45;&gt;Node0x63b0ae098190 -->
<g id="edge17" class="edge">
<title>Node0x63b0ae180c80&#45;&gt;Node0x63b0ae098190</title>
<path fill="none" stroke="#4a6fa5" d="M136.03,-608.76C146.06,-544.05 189.15,-323.83 323,-221 337.95,-209.52 355.94,-202.01 374.43,-197.2"/>
<polygon fill="#4a6fa5" stroke="#4a6fa5" points="375.38,-199.13 380.71,-195.67 374.38,-195.05 375.38,-199.13"/>
</g>
<!-- Node0x63b0ae0b2bb0 -->
<g id="node19" class="node">
<title>Node0x63b0ae0b2bb0</title>
<path fill="#f0f4ff" stroke="black" d="M591.5,-152C591.5,-152 382.5,-152 382.5,-152 376.5,-152 370.5,-146 370.5,-140 370.5,-140 370.5,-128 370.5,-128 370.5,-122 376.5,-116 382.5,-116 382.5,-116 591.5,-116 591.5,-116 597.5,-116 603.5,-122 603.5,-128 603.5,-128 603.5,-140 603.5,-140 603.5,-146 597.5,-152 591.5,-152"/>
<text text-anchor="middle" x="487" y="-131.8" font-family="Courier,monospace" font-size="9.00">CIccMpeXmlTintArray::CIccMpeXmlTintArray()</text>
</g>
<!-- Node0x63b0ae180c80&#45;&gt;Node0x63b0ae0b2bb0 -->
<g id="edge18" class="edge">
<title>Node0x63b0ae180c80&#45;&gt;Node0x63b0ae0b2bb0</title>
<path fill="none" stroke="#4a6fa5" d="M134.9,-608.71C141.32,-538.35 174.43,-283.03 323,-163 335.04,-153.27 349.23,-146.35 364.13,-141.49"/>
<polygon fill="#4a6fa5" stroke="#4a6fa5" points="364.97,-143.43 370.09,-139.67 363.74,-139.42 364.97,-143.43"/>
</g>
<!-- Node0x63b0ae02ad40 -->
<g id="node20" class="node">
<title>Node0x63b0ae02ad40</title>
<path fill="#f0f4ff" stroke="black" d="M935.5,-1196C935.5,-1196 789.5,-1196 789.5,-1196 783.5,-1196 777.5,-1190 777.5,-1184 777.5,-1184 777.5,-1172 777.5,-1172 777.5,-1166 783.5,-1160 789.5,-1160 789.5,-1160 935.5,-1160 935.5,-1160 941.5,-1160 947.5,-1166 947.5,-1172 947.5,-1172 947.5,-1184 947.5,-1184 947.5,-1190 941.5,-1196 935.5,-1196"/>
<text text-anchor="middle" x="862.5" y="-1175.8" font-family="Courier,monospace" font-size="9.00">CIccMpeMatrix::CIccMpeMatrix()</text>
</g>
<!-- Node0x63b0ae183f60&#45;&gt;Node0x63b0ae02ad40 -->
<g id="edge19" class="edge">
<title>Node0x63b0ae183f60&#45;&gt;Node0x63b0ae02ad40</title>
<path fill="none" stroke="#4a6fa5" d="M588.09,-1135.54C645.11,-1144.4 715.98,-1155.4 771.28,-1163.99"/>
<polygon fill="#4a6fa5" stroke="#4a6fa5" points="771.01,-1166.07 777.26,-1164.92 771.66,-1161.92 771.01,-1166.07"/>
</g>
<!-- Node0x63b0ae02ac30 -->
<g id="node21" class="node">
<title>Node0x63b0ae02ac30</title>
<path fill="#f0f4ff" stroke="black" d="M920,-616C920,-616 805,-616 805,-616 799,-616 793,-610 793,-604 793,-604 793,-592 793,-592 793,-586 799,-580 805,-580 805,-580 920,-580 920,-580 926,-580 932,-586 932,-592 932,-592 932,-604 932,-604 932,-610 926,-616 920,-616"/>
<text text-anchor="middle" x="862.5" y="-595.8" font-family="Courier,monospace" font-size="9.00">CIccMpeXml::CIccMpeXml()</text>
</g>
<!-- Node0x63b0ae183f60&#45;&gt;Node0x63b0ae02ac30 -->
<g id="edge20" class="edge">
<title>Node0x63b0ae183f60&#45;&gt;Node0x63b0ae02ac30</title>
<path fill="none" stroke="#4a6fa5" d="M588.2,-1121.87C611.66,-1117.43 634.57,-1108.3 651,-1091 794.11,-940.29 566.79,-778.55 709,-627 728.8,-605.9 758.81,-597.4 786.99,-594.64"/>
<polygon fill="#4a6fa5" stroke="#4a6fa5" points="787.17,-596.73 792.97,-594.13 786.82,-592.54 787.17,-596.73"/>
</g>
<!-- Node0x63b0ae026d00&#45;&gt;Node0x63b0ae02ac30 -->
<g id="edge56" class="edge">
<title>Node0x63b0ae026d00&#45;&gt;Node0x63b0ae02ac30</title>
<path fill="none" stroke="#4a6fa5" d="M593.07,-1062.64C614.75,-1057.88 635.62,-1048.91 651,-1033 777.67,-901.93 583.11,-758.82 709,-627 728.81,-606.25 758.52,-597.75 786.46,-594.89"/>
<polygon fill="#4a6fa5" stroke="#4a6fa5" points="786.97,-596.95 792.77,-594.33 786.6,-592.77 786.97,-596.95"/>
</g>
<!-- Node0x63b0ae1932a0 -->
<g id="node40" class="node">
<title>Node0x63b0ae1932a0</title>
<path fill="#f0f4ff" stroke="black" d="M941,-1138C941,-1138 784,-1138 784,-1138 778,-1138 772,-1132 772,-1126 772,-1126 772,-1114 772,-1114 772,-1108 778,-1102 784,-1102 784,-1102 941,-1102 941,-1102 947,-1102 953,-1108 953,-1114 953,-1114 953,-1126 953,-1126 953,-1132 947,-1138 941,-1138"/>
<text text-anchor="middle" x="862.5" y="-1117.8" font-family="Courier,monospace" font-size="9.00">CIccMpeUnknown::CIccMpeUnknown()</text>
</g>
<!-- Node0x63b0ae026d00&#45;&gt;Node0x63b0ae1932a0 -->
<g id="edge55" class="edge">
<title>Node0x63b0ae026d00&#45;&gt;Node0x63b0ae1932a0</title>
<path fill="none" stroke="#4a6fa5" d="M593.03,-1078.31C647.26,-1086.73 712.93,-1096.93 765.75,-1105.13"/>
<polygon fill="#4a6fa5" stroke="#4a6fa5" points="765.55,-1107.23 771.8,-1106.07 766.2,-1103.08 765.55,-1107.23"/>
</g>
<!-- Node0x63b0ae027970&#45;&gt;Node0x63b0ae02ac30 -->
<g id="edge54" class="edge">
<title>Node0x63b0ae027970&#45;&gt;Node0x63b0ae02ac30</title>
<path fill="none" stroke="#4a6fa5" d="M577.53,-1007.05C604.4,-1003.41 631.8,-994.41 651,-975 761.27,-863.52 599.4,-739.13 709,-627 728.97,-606.57 758.54,-598.09 786.34,-595.16"/>
<polygon fill="#4a6fa5" stroke="#4a6fa5" points="786.83,-597.23 792.61,-594.59 786.45,-593.04 786.83,-597.23"/>
</g>
<!-- Node0x63b0ae1a8530 -->
<g id="node39" class="node">
<title>Node0x63b0ae1a8530</title>
<path fill="#f0f4ff" stroke="black" d="M925,-1080C925,-1080 800,-1080 800,-1080 794,-1080 788,-1074 788,-1068 788,-1068 788,-1056 788,-1056 788,-1050 794,-1044 800,-1044 800,-1044 925,-1044 925,-1044 931,-1044 937,-1050 937,-1056 937,-1056 937,-1068 937,-1068 937,-1074 931,-1080 925,-1080"/>
<text text-anchor="middle" x="862.5" y="-1059.8" font-family="Courier,monospace" font-size="9.00">CIccMpeEAcs::CIccMpeEAcs()</text>
</g>
<!-- Node0x63b0ae027970&#45;&gt;Node0x63b0ae1a8530 -->
<g id="edge53" class="edge">
<title>Node0x63b0ae027970&#45;&gt;Node0x63b0ae1a8530</title>
<path fill="none" stroke="#4a6fa5" d="M577.94,-1017.97C640.02,-1027.61 721.84,-1040.31 781.63,-1049.6"/>
<polygon fill="#4a6fa5" stroke="#4a6fa5" points="781.46,-1051.7 787.71,-1050.54 782.1,-1047.54 781.46,-1051.7"/>
</g>
<!-- Node0x63b0ae05f390&#45;&gt;Node0x63b0ae02ac30 -->
<g id="edge22" class="edge">
<title>Node0x63b0ae05f390&#45;&gt;Node0x63b0ae02ac30</title>
<path fill="none" stroke="#4a6fa5" d="M598.75,-944.5C618.19,-939.5 636.72,-930.97 651,-917 744.93,-825.05 615.62,-719.5 709,-627 729.29,-606.9 758.92,-598.47 786.68,-595.5"/>
<polygon fill="#4a6fa5" stroke="#4a6fa5" points="787.16,-597.56 792.94,-594.91 786.77,-593.38 787.16,-597.56"/>
</g>
<!-- Node0x63b0ae027890 -->
<g id="node22" class="node">
<title>Node0x63b0ae027890</title>
<path fill="#f0f4ff" stroke="black" d="M946,-1022C946,-1022 779,-1022 779,-1022 773,-1022 767,-1016 767,-1010 767,-1010 767,-998 767,-998 767,-992 773,-986 779,-986 779,-986 946,-986 946,-986 952,-986 958,-992 958,-998 958,-998 958,-1010 958,-1010 958,-1016 952,-1022 946,-1022"/>
<text text-anchor="middle" x="862.5" y="-1001.8" font-family="Courier,monospace" font-size="9.00">CIccMpeCurveSet::CIccMpeCurveSet()</text>
</g>
<!-- Node0x63b0ae05f390&#45;&gt;Node0x63b0ae027890 -->
<g id="edge21" class="edge">
<title>Node0x63b0ae05f390&#45;&gt;Node0x63b0ae027890</title>
<path fill="none" stroke="#4a6fa5" d="M598.55,-963.17C649.91,-971.14 710.56,-980.56 760.67,-988.34"/>
<polygon fill="#4a6fa5" stroke="#4a6fa5" points="760.47,-990.44 766.72,-989.28 761.11,-986.29 760.47,-990.44"/>
</g>
<!-- Node0x63b0ae12da40&#45;&gt;Node0x63b0ae02ac30 -->
<g id="edge52" class="edge">
<title>Node0x63b0ae12da40&#45;&gt;Node0x63b0ae02ac30</title>
<path fill="none" stroke="#4a6fa5" d="M577.9,-889.95C604.31,-886.15 631.35,-877.34 651,-859 728.7,-786.48 631.73,-699.98 709,-627 729.58,-607.56 758.95,-599.19 786.43,-596.08"/>
<polygon fill="#4a6fa5" stroke="#4a6fa5" points="786.87,-598.15 792.63,-595.46 786.45,-593.97 786.87,-598.15"/>
</g>
<!-- Node0x63b0ae1a8820 -->
<g id="node38" class="node">
<title>Node0x63b0ae1a8820</title>
<path fill="#f0f4ff" stroke="black" d="M925,-964C925,-964 800,-964 800,-964 794,-964 788,-958 788,-952 788,-952 788,-940 788,-940 788,-934 794,-928 800,-928 800,-928 925,-928 925,-928 931,-928 937,-934 937,-940 937,-940 937,-952 937,-952 937,-958 931,-964 925,-964"/>
<text text-anchor="middle" x="862.5" y="-943.8" font-family="Courier,monospace" font-size="9.00">CIccMpeBAcs::CIccMpeBAcs()</text>
</g>
<!-- Node0x63b0ae12da40&#45;&gt;Node0x63b0ae1a8820 -->
<g id="edge51" class="edge">
<title>Node0x63b0ae12da40&#45;&gt;Node0x63b0ae1a8820</title>
<path fill="none" stroke="#4a6fa5" d="M577.94,-901.97C640.02,-911.61 721.84,-924.31 781.63,-933.6"/>
<polygon fill="#4a6fa5" stroke="#4a6fa5" points="781.46,-935.7 787.71,-934.54 782.1,-931.54 781.46,-935.7"/>
</g>
<!-- Node0x63b0ae14a720&#45;&gt;Node0x63b0ae02ac30 -->
<g id="edge50" class="edge">
<title>Node0x63b0ae14a720&#45;&gt;Node0x63b0ae02ac30</title>
<path fill="none" stroke="#4a6fa5" d="M635.6,-811.97C641.05,-808.77 646.22,-805.13 651,-801 712.68,-747.71 647.63,-680.66 709,-627 730.22,-608.45 759.56,-600.21 786.83,-596.96"/>
<polygon fill="#4a6fa5" stroke="#4a6fa5" points="787.24,-599.03 792.98,-596.31 786.79,-594.85 787.24,-599.03"/>
</g>
<!-- Node0x63b0ae1a8bc0 -->
<g id="node37" class="node">
<title>Node0x63b0ae1a8bc0</title>
<path fill="#f0f4ff" stroke="black" d="M1004,-906C1004,-906 721,-906 721,-906 715,-906 709,-900 709,-894 709,-894 709,-882 709,-882 709,-876 715,-870 721,-870 721,-870 1004,-870 1004,-870 1010,-870 1016,-876 1016,-882 1016,-882 1016,-894 1016,-894 1016,-900 1010,-906 1004,-906"/>
<text text-anchor="middle" x="862.5" y="-885.8" font-family="Courier,monospace" font-size="9.00">CIccMpeReflectanceObserver::CIccMpeReflectanceObserver()</text>
</g>
<!-- Node0x63b0ae14a720&#45;&gt;Node0x63b0ae1a8bc0 -->
<g id="edge49" class="edge">
<title>Node0x63b0ae14a720&#45;&gt;Node0x63b0ae1a8bc0</title>
<path fill="none" stroke="#4a6fa5" d="M604.13,-848.03C647.08,-854.7 695.88,-862.28 739.34,-869.03"/>
<polygon fill="#4a6fa5" stroke="#4a6fa5" points="739.19,-871.13 745.44,-869.98 739.83,-866.98 739.19,-871.13"/>
</g>
<!-- Node0x63b0ae14dcd0&#45;&gt;Node0x63b0ae02ac30 -->
<g id="edge48" class="edge">
<title>Node0x63b0ae14dcd0&#45;&gt;Node0x63b0ae02ac30</title>
<path fill="none" stroke="#4a6fa5" d="M633.35,-753.89C639.55,-750.74 645.47,-747.13 651,-743 697.18,-708.5 663.03,-661.77 709,-627 731.08,-610.3 760,-602.33 786.71,-598.78"/>
<polygon fill="#4a6fa5" stroke="#4a6fa5" points="787.03,-600.86 792.73,-598.05 786.52,-596.69 787.03,-600.86"/>
</g>
<!-- Node0x63b0ae1a47d0 -->
<g id="node36" class="node">
<title>Node0x63b0ae1a47d0</title>
<path fill="#f0f4ff" stroke="black" d="M988,-848C988,-848 737,-848 737,-848 731,-848 725,-842 725,-836 725,-836 725,-824 725,-824 725,-818 731,-812 737,-812 737,-812 988,-812 988,-812 994,-812 1000,-818 1000,-824 1000,-824 1000,-836 1000,-836 1000,-842 994,-848 988,-848"/>
<text text-anchor="middle" x="862.5" y="-827.8" font-family="Courier,monospace" font-size="9.00">CIccMpeEmissionObserver::CIccMpeEmissionObserver()</text>
</g>
<!-- Node0x63b0ae14dcd0&#45;&gt;Node0x63b0ae1a47d0 -->
<g id="edge47" class="edge">
<title>Node0x63b0ae14dcd0&#45;&gt;Node0x63b0ae1a47d0</title>
<path fill="none" stroke="#4a6fa5" d="M604.13,-790.03C647.08,-796.7 695.88,-804.28 739.34,-811.03"/>
<polygon fill="#4a6fa5" stroke="#4a6fa5" points="739.19,-813.13 745.44,-811.98 739.83,-808.98 739.19,-813.13"/>
</g>
<!-- Node0x63b0ae18a0a0&#45;&gt;Node0x63b0ae02ac30 -->
<g id="edge24" class="edge">
<title>Node0x63b0ae18a0a0&#45;&gt;Node0x63b0ae02ac30</title>
<path fill="none" stroke="#4a6fa5" d="M577.91,-707.96C602.6,-703.7 628.7,-696.63 651,-685 683.32,-668.14 676.78,-644.05 709,-627 732.71,-614.46 761.03,-607.28 786.8,-603.2"/>
<polygon fill="#4a6fa5" stroke="#4a6fa5" points="787.32,-605.24 792.94,-602.28 786.69,-601.09 787.32,-605.24"/>
</g>
<!-- Node0x63b0ae029b00 -->
<g id="node23" class="node">
<title>Node0x63b0ae029b00</title>
<path fill="#f0f4ff" stroke="black" d="M925,-790C925,-790 800,-790 800,-790 794,-790 788,-784 788,-778 788,-778 788,-766 788,-766 788,-760 794,-754 800,-754 800,-754 925,-754 925,-754 931,-754 937,-760 937,-766 937,-766 937,-778 937,-778 937,-784 931,-790 925,-790"/>
<text text-anchor="middle" x="862.5" y="-769.8" font-family="Courier,monospace" font-size="9.00">CIccMpeCLUT::CIccMpeCLUT()</text>
</g>
<!-- Node0x63b0ae18a0a0&#45;&gt;Node0x63b0ae029b00 -->
<g id="edge23" class="edge">
<title>Node0x63b0ae18a0a0&#45;&gt;Node0x63b0ae029b00</title>
<path fill="none" stroke="#4a6fa5" d="M577.94,-727.97C640.02,-737.61 721.84,-750.31 781.63,-759.6"/>
<polygon fill="#4a6fa5" stroke="#4a6fa5" points="781.46,-761.7 787.71,-760.54 782.1,-757.54 781.46,-761.7"/>
</g>
<!-- Node0x63b0ae1783c0&#45;&gt;Node0x63b0ae02ac30 -->
<g id="edge46" class="edge">
<title>Node0x63b0ae1783c0&#45;&gt;Node0x63b0ae02ac30</title>
<path fill="none" stroke="#4a6fa5" d="M604.13,-637.97C663.72,-628.71 734.56,-617.71 786.82,-609.6"/>
<polygon fill="#4a6fa5" stroke="#4a6fa5" points="787.17,-611.67 792.78,-608.67 786.53,-607.52 787.17,-611.67"/>
</g>
<!-- Node0x63b0ae1a5490 -->
<g id="node35" class="node">
<title>Node0x63b0ae1a5490</title>
<path fill="#f0f4ff" stroke="black" d="M983,-732C983,-732 742,-732 742,-732 736,-732 730,-726 730,-720 730,-720 730,-708 730,-708 730,-702 736,-696 742,-696 742,-696 983,-696 983,-696 989,-696 995,-702 995,-708 995,-708 995,-720 995,-720 995,-726 989,-732 983,-732"/>
<text text-anchor="middle" x="862.5" y="-711.8" font-family="Courier,monospace" font-size="9.00">CIccMpeReflectanceCLUT::CIccMpeReflectanceCLUT()</text>
</g>
<!-- Node0x63b0ae1783c0&#45;&gt;Node0x63b0ae1a5490 -->
<g id="edge45" class="edge">
<title>Node0x63b0ae1783c0&#45;&gt;Node0x63b0ae1a5490</title>
<path fill="none" stroke="#4a6fa5" d="M604.13,-674.03C647.08,-680.7 695.88,-688.28 739.34,-695.03"/>
<polygon fill="#4a6fa5" stroke="#4a6fa5" points="739.19,-697.13 745.44,-695.98 739.83,-692.98 739.19,-697.13"/>
</g>
<!-- Node0x63b0ae0c8270&#45;&gt;Node0x63b0ae02ac30 -->
<g id="edge44" class="edge">
<title>Node0x63b0ae0c8270&#45;&gt;Node0x63b0ae02ac30</title>
<path fill="none" stroke="#4a6fa5" d="M619.68,-598C675.78,-598 739.15,-598 786.94,-598"/>
<polygon fill="#4a6fa5" stroke="#4a6fa5" points="786.99,-600.1 792.99,-598 786.99,-595.9 786.99,-600.1"/>
</g>
<!-- Node0x63b0ae1a6150 -->
<g id="node34" class="node">
<title>Node0x63b0ae1a6150</title>
<path fill="#f0f4ff" stroke="black" d="M967,-674C967,-674 758,-674 758,-674 752,-674 746,-668 746,-662 746,-662 746,-650 746,-650 746,-644 752,-638 758,-638 758,-638 967,-638 967,-638 973,-638 979,-644 979,-650 979,-650 979,-662 979,-662 979,-668 973,-674 967,-674"/>
<text text-anchor="middle" x="862.5" y="-653.8" font-family="Courier,monospace" font-size="9.00">CIccMpeEmissionCLUT::CIccMpeEmissionCLUT()</text>
</g>
<!-- Node0x63b0ae0c8270&#45;&gt;Node0x63b0ae1a6150 -->
<g id="edge43" class="edge">
<title>Node0x63b0ae0c8270&#45;&gt;Node0x63b0ae1a6150</title>
<path fill="none" stroke="#4a6fa5" d="M604.13,-616.03C647.18,-622.72 696.11,-630.32 739.65,-637.08"/>
<polygon fill="#4a6fa5" stroke="#4a6fa5" points="739.51,-639.18 745.76,-638.03 740.16,-635.03 739.51,-639.18"/>
</g>
<!-- Node0x63b0ae0d9930&#45;&gt;Node0x63b0ae02ac30 -->
<g id="edge42" class="edge">
<title>Node0x63b0ae0d9930&#45;&gt;Node0x63b0ae02ac30</title>
<path fill="none" stroke="#4a6fa5" d="M604.13,-558.03C663.72,-567.29 734.56,-578.29 786.82,-586.4"/>
<polygon fill="#4a6fa5" stroke="#4a6fa5" points="786.53,-588.48 792.78,-587.33 787.17,-584.33 786.53,-588.48"/>
</g>
<!-- Node0x63b0ae195ff0 -->
<g id="node33" class="node">
<title>Node0x63b0ae195ff0</title>
<path fill="#f0f4ff" stroke="black" d="M993.5,-558C993.5,-558 731.5,-558 731.5,-558 725.5,-558 719.5,-552 719.5,-546 719.5,-546 719.5,-534 719.5,-534 719.5,-528 725.5,-522 731.5,-522 731.5,-522 993.5,-522 993.5,-522 999.5,-522 1005.5,-528 1005.5,-534 1005.5,-534 1005.5,-546 1005.5,-546 1005.5,-552 999.5,-558 993.5,-558"/>
<text text-anchor="middle" x="862.5" y="-537.8" font-family="Courier,monospace" font-size="9.00">CIccMpeInvEmissionMatrix::CIccMpeInvEmissionMatrix()</text>
</g>
<!-- Node0x63b0ae0d9930&#45;&gt;Node0x63b0ae195ff0 -->
<g id="edge41" class="edge">
<title>Node0x63b0ae0d9930&#45;&gt;Node0x63b0ae195ff0</title>
<path fill="none" stroke="#4a6fa5" d="M645.59,-540C667.99,-540 690.96,-540 713.17,-540"/>
<polygon fill="#4a6fa5" stroke="#4a6fa5" points="713.42,-542.1 719.42,-540 713.42,-537.9 713.42,-542.1"/>
</g>
<!-- Node0x63b0ae18ae80&#45;&gt;Node0x63b0ae02ac30 -->
<g id="edge26" class="edge">
<title>Node0x63b0ae18ae80&#45;&gt;Node0x63b0ae02ac30</title>
<path fill="none" stroke="#4a6fa5" d="M593.03,-428.02C613.71,-432.69 634.19,-440.44 651,-453 697.18,-487.5 663.03,-534.23 709,-569 731.08,-585.7 760,-593.67 786.71,-597.22"/>
<polygon fill="#4a6fa5" stroke="#4a6fa5" points="786.52,-599.31 792.73,-597.95 787.03,-595.14 786.52,-599.31"/>
</g>
<!-- Node0x63b0ae026bb0 -->
<g id="node24" class="node">
<title>Node0x63b0ae026bb0</title>
<path fill="#f0f4ff" stroke="black" d="M941,-442C941,-442 784,-442 784,-442 778,-442 772,-436 772,-430 772,-430 772,-418 772,-418 772,-412 778,-406 784,-406 784,-406 941,-406 941,-406 947,-406 953,-412 953,-418 953,-418 953,-430 953,-430 953,-436 947,-442 941,-442"/>
<text text-anchor="middle" x="862.5" y="-421.8" font-family="Courier,monospace" font-size="9.00">CIccMpeExtCLUT::CIccMpeExtCLUT()</text>
</g>
<!-- Node0x63b0ae18ae80&#45;&gt;Node0x63b0ae026bb0 -->
<g id="edge25" class="edge">
<title>Node0x63b0ae18ae80&#45;&gt;Node0x63b0ae026bb0</title>
<path fill="none" stroke="#4a6fa5" d="M593.03,-424C647.26,-424 712.93,-424 765.75,-424"/>
<polygon fill="#4a6fa5" stroke="#4a6fa5" points="765.8,-426.1 771.8,-424 765.8,-421.9 765.8,-426.1"/>
</g>
<!-- Node0x63b0ae0f81b0&#45;&gt;Node0x63b0ae02ac30 -->
<g id="edge40" class="edge">
<title>Node0x63b0ae0f81b0&#45;&gt;Node0x63b0ae02ac30</title>
<path fill="none" stroke="#4a6fa5" d="M625.68,-500.13C634.45,-503.22 642.97,-506.81 651,-511 683.32,-527.86 676.78,-551.95 709,-569 732.71,-581.54 761.03,-588.72 786.8,-592.8"/>
<polygon fill="#4a6fa5" stroke="#4a6fa5" points="786.69,-594.91 792.94,-593.72 787.32,-590.76 786.69,-594.91"/>
</g>
<!-- Node0x63b0ae1938e0 -->
<g id="node32" class="node">
<title>Node0x63b0ae1938e0</title>
<path fill="#f0f4ff" stroke="black" d="M977.5,-500C977.5,-500 747.5,-500 747.5,-500 741.5,-500 735.5,-494 735.5,-488 735.5,-488 735.5,-476 735.5,-476 735.5,-470 741.5,-464 747.5,-464 747.5,-464 977.5,-464 977.5,-464 983.5,-464 989.5,-470 989.5,-476 989.5,-476 989.5,-488 989.5,-488 989.5,-494 983.5,-500 977.5,-500"/>
<text text-anchor="middle" x="862.5" y="-479.8" font-family="Courier,monospace" font-size="9.00">CIccMpeEmissionMatrix::CIccMpeEmissionMatrix()</text>
</g>
<!-- Node0x63b0ae0f81b0&#45;&gt;Node0x63b0ae1938e0 -->
<g id="edge39" class="edge">
<title>Node0x63b0ae0f81b0&#45;&gt;Node0x63b0ae1938e0</title>
<path fill="none" stroke="#4a6fa5" d="M630,-482C662.49,-482 696.9,-482 728.97,-482"/>
<polygon fill="#4a6fa5" stroke="#4a6fa5" points="729.35,-484.1 735.35,-482 729.35,-479.9 729.35,-484.1"/>
</g>
<!-- Node0x63b0ae12a3d0&#45;&gt;Node0x63b0ae02ac30 -->
<g id="edge38" class="edge">
<title>Node0x63b0ae12a3d0&#45;&gt;Node0x63b0ae02ac30</title>
<path fill="none" stroke="#4a6fa5" d="M598.68,-369.27C617.78,-374.19 636.21,-382.22 651,-395 712.68,-448.29 647.63,-515.34 709,-569 730.22,-587.55 759.56,-595.79 786.83,-599.04"/>
<polygon fill="#4a6fa5" stroke="#4a6fa5" points="786.79,-601.15 792.98,-599.69 787.24,-596.97 786.79,-601.15"/>
</g>
<!-- Node0x63b0ae194030 -->
<g id="node31" class="node">
<title>Node0x63b0ae194030</title>
<path fill="#f0f4ff" stroke="black" d="M946,-384C946,-384 779,-384 779,-384 773,-384 767,-378 767,-372 767,-372 767,-360 767,-360 767,-354 773,-348 779,-348 779,-348 946,-348 946,-348 952,-348 958,-354 958,-360 958,-360 958,-372 958,-372 958,-378 952,-384 946,-384"/>
<text text-anchor="middle" x="862.5" y="-363.8" font-family="Courier,monospace" font-size="9.00">CIccMpeJabToXYZ::CIccMpeJabToXYZ()</text>
</g>
<!-- Node0x63b0ae12a3d0&#45;&gt;Node0x63b0ae194030 -->
<g id="edge37" class="edge">
<title>Node0x63b0ae12a3d0&#45;&gt;Node0x63b0ae194030</title>
<path fill="none" stroke="#4a6fa5" d="M598.55,-366C649.91,-366 710.56,-366 760.67,-366"/>
<polygon fill="#4a6fa5" stroke="#4a6fa5" points="760.72,-368.1 766.72,-366 760.72,-363.9 760.72,-368.1"/>
</g>
<!-- Node0x63b0ae0c9340&#45;&gt;Node0x63b0ae02ac30 -->
<g id="edge28" class="edge">
<title>Node0x63b0ae0c9340&#45;&gt;Node0x63b0ae02ac30</title>
<path fill="none" stroke="#4a6fa5" d="M609.06,-313.2C624.56,-318.32 639.13,-325.92 651,-337 728.7,-409.52 631.73,-496.02 709,-569 729.58,-588.44 758.95,-596.81 786.43,-599.92"/>
<polygon fill="#4a6fa5" stroke="#4a6fa5" points="786.45,-602.03 792.63,-600.54 786.87,-597.85 786.45,-602.03"/>
</g>
<!-- Node0x63b0ae026aa0 -->
<g id="node25" class="node">
<title>Node0x63b0ae026aa0</title>
<path fill="#f0f4ff" stroke="black" d="M956.5,-326C956.5,-326 768.5,-326 768.5,-326 762.5,-326 756.5,-320 756.5,-314 756.5,-314 756.5,-302 756.5,-302 756.5,-296 762.5,-290 768.5,-290 768.5,-290 956.5,-290 956.5,-290 962.5,-290 968.5,-296 968.5,-302 968.5,-302 968.5,-314 968.5,-314 968.5,-320 962.5,-326 956.5,-326"/>
<text text-anchor="middle" x="862.5" y="-305.8" font-family="Courier,monospace" font-size="9.00">CIccMpeCalculator::CIccMpeCalculator()</text>
</g>
<!-- Node0x63b0ae0c9340&#45;&gt;Node0x63b0ae026aa0 -->
<g id="edge27" class="edge">
<title>Node0x63b0ae0c9340&#45;&gt;Node0x63b0ae026aa0</title>
<path fill="none" stroke="#4a6fa5" d="M609.01,-308C654.39,-308 705.7,-308 750.17,-308"/>
<polygon fill="#4a6fa5" stroke="#4a6fa5" points="750.39,-310.1 756.39,-308 750.39,-305.9 750.39,-310.1"/>
</g>
<!-- Node0x63b0ae193aa0 -->
<g id="node26" class="node">
<title>Node0x63b0ae193aa0</title>
<path fill="#f0f4ff" stroke="black" d="M959,-268C959,-268 766,-268 766,-268 760,-268 754,-262 754,-256 754,-256 754,-244 754,-244 754,-238 760,-232 766,-232 766,-232 959,-232 959,-232 965,-232 971,-238 971,-244 971,-244 971,-256 971,-256 971,-262 965,-268 959,-268"/>
<text text-anchor="middle" x="862.5" y="-247.8" font-family="Courier,monospace" font-size="9.00">CIccMpeCalculator::~CIccMpeCalculator()</text>
</g>
<!-- Node0x63b0ae0c9340&#45;&gt;Node0x63b0ae193aa0 -->
<g id="edge29" class="edge">
<title>Node0x63b0ae0c9340&#45;&gt;Node0x63b0ae193aa0</title>
<path fill="none" stroke="#4a6fa5" d="M604.13,-289.97C649.83,-282.87 702.15,-274.74 747.63,-267.68"/>
<polygon fill="#4a6fa5" stroke="#4a6fa5" points="748.11,-269.73 753.72,-266.74 747.46,-265.58 748.11,-269.73"/>
</g>
<!-- Node0x63b0ae193d20 -->
<g id="node27" class="node">
<title>Node0x63b0ae193d20</title>
<path fill="#f0f4ff" stroke="black" d="M922.5,-210C922.5,-210 802.5,-210 802.5,-210 796.5,-210 790.5,-204 790.5,-198 790.5,-198 790.5,-186 790.5,-186 790.5,-180 796.5,-174 802.5,-174 802.5,-174 922.5,-174 922.5,-174 928.5,-174 934.5,-180 934.5,-186 934.5,-186 934.5,-198 934.5,-198 934.5,-204 928.5,-210 922.5,-210"/>
<text text-anchor="middle" x="862.5" y="-189.8" font-family="Courier,monospace" font-size="9.00">CIccMpeXml::~CIccMpeXml()</text>
</g>
<!-- Node0x63b0ae0c9340&#45;&gt;Node0x63b0ae193d20 -->
<g id="edge30" class="edge">
<title>Node0x63b0ae0c9340&#45;&gt;Node0x63b0ae193d20</title>
<path fill="none" stroke="#4a6fa5" d="M609.17,-295.03C623.71,-291.01 638,-285.78 651,-279 683.32,-262.14 676.78,-238.05 709,-221 731.94,-208.86 759.19,-201.76 784.27,-197.61"/>
<polygon fill="#4a6fa5" stroke="#4a6fa5" points="784.66,-199.67 790.26,-196.67 784,-195.52 784.66,-199.67"/>
</g>
<!-- Node0x63b0ae092160&#45;&gt;Node0x63b0ae02ac30 -->
<g id="edge36" class="edge">
<title>Node0x63b0ae092160&#45;&gt;Node0x63b0ae02ac30</title>
<path fill="none" stroke="#4a6fa5" d="M598.75,-251.5C618.19,-256.5 636.72,-265.03 651,-279 744.93,-370.95 615.62,-476.5 709,-569 729.29,-589.1 758.92,-597.53 786.68,-600.5"/>
<polygon fill="#4a6fa5" stroke="#4a6fa5" points="786.77,-602.62 792.94,-601.09 787.16,-598.44 786.77,-602.62"/>
</g>
<!-- Node0x63b0ae1992d0 -->
<g id="node30" class="node">
<title>Node0x63b0ae1992d0</title>
<path fill="#f0f4ff" stroke="black" d="M946,-152C946,-152 779,-152 779,-152 773,-152 767,-146 767,-140 767,-140 767,-128 767,-128 767,-122 773,-116 779,-116 779,-116 946,-116 946,-116 952,-116 958,-122 958,-128 958,-128 958,-140 958,-140 958,-146 952,-152 946,-152"/>
<text text-anchor="middle" x="862.5" y="-131.8" font-family="Courier,monospace" font-size="9.00">CIccMpeXYZToJab::CIccMpeXYZToJab()</text>
</g>
<!-- Node0x63b0ae092160&#45;&gt;Node0x63b0ae1992d0 -->
<g id="edge35" class="edge">
<title>Node0x63b0ae092160&#45;&gt;Node0x63b0ae1992d0</title>
<path fill="none" stroke="#4a6fa5" d="M598.87,-239.68C616.92,-235.38 634.94,-229.37 651,-221 683.32,-204.14 676.78,-180.05 709,-163 724.94,-154.56 742.98,-148.56 760.91,-144.28"/>
<polygon fill="#4a6fa5" stroke="#4a6fa5" points="761.61,-146.28 766.99,-142.9 760.67,-142.19 761.61,-146.28"/>
</g>
<!-- Node0x63b0ae098190&#45;&gt;Node0x63b0ae02ac30 -->
<g id="edge34" class="edge">
<title>Node0x63b0ae098190&#45;&gt;Node0x63b0ae02ac30</title>
<path fill="none" stroke="#4a6fa5" d="M593.23,-191.72C614.76,-196.49 635.54,-205.37 651,-221 761.27,-332.48 599.4,-456.87 709,-569 728.97,-589.43 758.54,-597.91 786.34,-600.84"/>
<polygon fill="#4a6fa5" stroke="#4a6fa5" points="786.45,-602.96 792.61,-601.41 786.83,-598.77 786.45,-602.96"/>
</g>
<!-- Node0x63b0ae1a2d70 -->
<g id="node29" class="node">
<title>Node0x63b0ae1a2d70</title>
<path fill="#f0f4ff" stroke="black" d="M941,-94C941,-94 784,-94 784,-94 778,-94 772,-88 772,-82 772,-82 772,-70 772,-70 772,-64 778,-58 784,-58 784,-58 941,-58 941,-58 947,-58 953,-64 953,-70 953,-70 953,-82 953,-82 953,-88 947,-94 941,-94"/>
<text text-anchor="middle" x="862.5" y="-73.8" font-family="Courier,monospace" font-size="9.00">CIccMpeToneMap::CIccMpeToneMap()</text>
</g>
<!-- Node0x63b0ae098190&#45;&gt;Node0x63b0ae1a2d70 -->
<g id="edge33" class="edge">
<title>Node0x63b0ae098190&#45;&gt;Node0x63b0ae1a2d70</title>
<path fill="none" stroke="#4a6fa5" d="M593.28,-182.96C613.18,-178.6 633.29,-172.24 651,-163 683.32,-146.14 676.78,-122.05 709,-105 726.38,-95.81 746.24,-89.5 765.75,-85.17"/>
<polygon fill="#4a6fa5" stroke="#4a6fa5" points="766.36,-87.19 771.79,-83.9 765.49,-83.08 766.36,-87.19"/>
</g>
<!-- Node0x63b0ae0b2bb0&#45;&gt;Node0x63b0ae02ac30 -->
<g id="edge32" class="edge">
<title>Node0x63b0ae0b2bb0&#45;&gt;Node0x63b0ae02ac30</title>
<path fill="none" stroke="#4a6fa5" d="M603.54,-136.03C621.38,-141.21 638.12,-149.67 651,-163 777.67,-294.07 583.11,-437.18 709,-569 728.81,-589.75 758.52,-598.25 786.46,-601.11"/>
<polygon fill="#4a6fa5" stroke="#4a6fa5" points="786.6,-603.23 792.77,-601.67 786.97,-599.05 786.6,-603.23"/>
</g>
<!-- Node0x63b0ae193820 -->
<g id="node28" class="node">
<title>Node0x63b0ae193820</title>
<path fill="#f0f4ff" stroke="black" d="M951.5,-36C951.5,-36 773.5,-36 773.5,-36 767.5,-36 761.5,-30 761.5,-24 761.5,-24 761.5,-12 761.5,-12 761.5,-6 767.5,0 773.5,0 773.5,0 951.5,0 951.5,0 957.5,0 963.5,-6 963.5,-12 963.5,-12 963.5,-24 963.5,-24 963.5,-30 957.5,-36 951.5,-36"/>
<text text-anchor="middle" x="862.5" y="-15.8" font-family="Courier,monospace" font-size="9.00">CIccMpeTintArray::CIccMpeTintArray()</text>
</g>
<!-- Node0x63b0ae0b2bb0&#45;&gt;Node0x63b0ae193820 -->
<g id="edge31" class="edge">
<title>Node0x63b0ae0b2bb0&#45;&gt;Node0x63b0ae193820</title>
<path fill="none" stroke="#4a6fa5" d="M527.54,-115.82C571.17,-96.39 643.84,-65.84 709,-47 723.74,-42.74 739.47,-38.94 755.02,-35.6"/>
<polygon fill="#4a6fa5" stroke="#4a6fa5" points="755.76,-37.59 761.2,-34.3 754.89,-33.48 755.76,-37.59"/>
</g>
<!-- Node0x63b0ae1ac630 -->
<g id="node45" class="node">
<title>Node0x63b0ae1ac630</title>
<path fill="#f0f4ff" stroke="black" d="M1300.5,-616C1300.5,-616 1122.5,-616 1122.5,-616 1116.5,-616 1110.5,-610 1110.5,-604 1110.5,-604 1110.5,-592 1110.5,-592 1110.5,-586 1116.5,-580 1122.5,-580 1122.5,-580 1300.5,-580 1300.5,-580 1306.5,-580 1312.5,-586 1312.5,-592 1312.5,-592 1312.5,-604 1312.5,-604 1312.5,-610 1306.5,-616 1300.5,-616"/>
<text text-anchor="middle" x="1211.5" y="-595.8" font-family="Courier,monospace" font-size="9.00">IIccExtensionMpe::IIccExtensionMpe()</text>
</g>
<!-- Node0x63b0ae02ac30&#45;&gt;Node0x63b0ae1ac630 -->
<g id="edge59" class="edge">
<title>Node0x63b0ae02ac30&#45;&gt;Node0x63b0ae1ac630</title>
<path fill="none" stroke="#4a6fa5" d="M932.06,-598C981.13,-598 1048.14,-598 1104.13,-598"/>
<polygon fill="#4a6fa5" stroke="#4a6fa5" points="1104.2,-600.1 1110.2,-598 1104.2,-595.9 1104.2,-600.1"/>
</g>
<!-- Node0x63b0ae1ed780 -->
<g id="node57" class="node">
<title>Node0x63b0ae1ed780</title>
<path fill="#f0f4ff" stroke="black" d="M1326.5,-529C1326.5,-529 1096.5,-529 1096.5,-529 1090.5,-529 1084.5,-523 1084.5,-517 1084.5,-517 1084.5,-505 1084.5,-505 1084.5,-499 1090.5,-493 1096.5,-493 1096.5,-493 1326.5,-493 1326.5,-493 1332.5,-493 1338.5,-499 1338.5,-505 1338.5,-505 1338.5,-517 1338.5,-517 1338.5,-523 1332.5,-529 1326.5,-529"/>
<text text-anchor="middle" x="1211.5" y="-508.8" font-family="Courier,monospace" font-size="9.00">CIccMpeSpectralMatrix::CIccMpeSpectralMatrix()</text>
</g>
<!-- Node0x63b0ae1938e0&#45;&gt;Node0x63b0ae1ed780 -->
<g id="edge63" class="edge">
<title>Node0x63b0ae1938e0&#45;&gt;Node0x63b0ae1ed780</title>
<path fill="none" stroke="#4a6fa5" d="M989.76,-492.55C1018.52,-494.96 1049.16,-497.52 1078.17,-499.94"/>
<polygon fill="#4a6fa5" stroke="#4a6fa5" points="1078.18,-502.05 1084.34,-500.46 1078.53,-497.86 1078.18,-502.05"/>
</g>
<!-- Node0x63b0ae195ff0&#45;&gt;Node0x63b0ae1ed780 -->
<g id="edge61" class="edge">
<title>Node0x63b0ae195ff0&#45;&gt;Node0x63b0ae1ed780</title>
<path fill="none" stroke="#4a6fa5" d="M1005.64,-528.12C1029.71,-526.11 1054.61,-524.03 1078.41,-522.04"/>
<polygon fill="#4a6fa5" stroke="#4a6fa5" points="1078.63,-524.13 1084.44,-521.54 1078.28,-519.94 1078.63,-524.13"/>
</g>
<!-- Node0x63b0ae1d45a0 -->
<g id="node58" class="node">
<title>Node0x63b0ae1d45a0</title>
<path fill="#f0f4ff" stroke="black" d="M1316,-703C1316,-703 1107,-703 1107,-703 1101,-703 1095,-697 1095,-691 1095,-691 1095,-679 1095,-679 1095,-673 1101,-667 1107,-667 1107,-667 1316,-667 1316,-667 1322,-667 1328,-673 1328,-679 1328,-679 1328,-691 1328,-691 1328,-697 1322,-703 1316,-703"/>
<text text-anchor="middle" x="1211.5" y="-682.8" font-family="Courier,monospace" font-size="9.00">CIccMpeSpectralCLUT::CIccMpeSpectralCLUT()</text>
</g>
<!-- Node0x63b0ae1a6150&#45;&gt;Node0x63b0ae1d45a0 -->
<g id="edge62" class="edge">
<title>Node0x63b0ae1a6150&#45;&gt;Node0x63b0ae1d45a0</title>
<path fill="none" stroke="#4a6fa5" d="M979.05,-665.66C1014.27,-668.6 1053.09,-671.85 1088.72,-674.82"/>
<polygon fill="#4a6fa5" stroke="#4a6fa5" points="1088.71,-676.93 1094.87,-675.34 1089.06,-672.74 1088.71,-676.93"/>
</g>
<!-- Node0x63b0ae1a5490&#45;&gt;Node0x63b0ae1d45a0 -->
<g id="edge64" class="edge">
<title>Node0x63b0ae1a5490&#45;&gt;Node0x63b0ae1d45a0</title>
<path fill="none" stroke="#4a6fa5" d="M995.18,-702.99C1025.92,-700.43 1058.51,-697.7 1088.8,-695.17"/>
<polygon fill="#4a6fa5" stroke="#4a6fa5" points="1089.02,-697.26 1094.82,-694.67 1088.67,-693.07 1089.02,-697.26"/>
</g>
<!-- Node0x63b0ae1c52d0 -->
<g id="node64" class="node">
<title>Node0x63b0ae1c52d0</title>
<path fill="#f0f4ff" stroke="black" d="M1337,-877C1337,-877 1086,-877 1086,-877 1080,-877 1074,-871 1074,-865 1074,-865 1074,-853 1074,-853 1074,-847 1080,-841 1086,-841 1086,-841 1337,-841 1337,-841 1343,-841 1349,-847 1349,-853 1349,-853 1349,-865 1349,-865 1349,-871 1343,-877 1337,-877"/>
<text text-anchor="middle" x="1211.5" y="-856.8" font-family="Courier,monospace" font-size="9.00">CIccMpeSpectralObserver::CIccMpeSpectralObserver()</text>
</g>
<!-- Node0x63b0ae1a47d0&#45;&gt;Node0x63b0ae1c52d0 -->
<g id="edge65" class="edge">
<title>Node0x63b0ae1a47d0&#45;&gt;Node0x63b0ae1c52d0</title>
<path fill="none" stroke="#4a6fa5" d="M1000.15,-841.42C1022.43,-843.28 1045.56,-845.22 1067.99,-847.09"/>
<polygon fill="#4a6fa5" stroke="#4a6fa5" points="1067.82,-849.18 1073.98,-847.59 1068.17,-845 1067.82,-849.18"/>
</g>
<!-- Node0x63b0ae1a8bc0&#45;&gt;Node0x63b0ae1c52d0 -->
<g id="edge66" class="edge">
<title>Node0x63b0ae1a8bc0&#45;&gt;Node0x63b0ae1c52d0</title>
<path fill="none" stroke="#4a6fa5" d="M1016.2,-875.24C1033.29,-873.81 1050.65,-872.36 1067.6,-870.94"/>
<polygon fill="#4a6fa5" stroke="#4a6fa5" points="1068.02,-873.01 1073.83,-870.42 1067.67,-868.83 1068.02,-873.01"/>
</g>
<!-- Node0x63b0ae1ac060 -->
<g id="node41" class="node">
<title>Node0x63b0ae1ac060</title>
<path fill="#f0f4ff" stroke="black" d="M226.5,-964C226.5,-964 38.5,-964 38.5,-964 32.5,-964 26.5,-958 26.5,-952 26.5,-952 26.5,-940 26.5,-940 26.5,-934 32.5,-928 38.5,-928 38.5,-928 226.5,-928 226.5,-928 232.5,-928 238.5,-934 238.5,-940 238.5,-940 238.5,-952 238.5,-952 238.5,-958 232.5,-964 226.5,-964"/>
<text text-anchor="middle" x="132.5" y="-943.8" font-family="Courier,monospace" font-size="9.00">CIccMpeXmlFactory::GetElementSigName()</text>
</g>
<!-- Node0x63b0ae1a24d0 -->
<g id="node42" class="node">
<title>Node0x63b0ae1a24d0</title>
<path fill="#f0f4ff" stroke="black" d="M583.5,-1254C583.5,-1254 390.5,-1254 390.5,-1254 384.5,-1254 378.5,-1248 378.5,-1242 378.5,-1242 378.5,-1230 378.5,-1230 378.5,-1224 384.5,-1218 390.5,-1218 390.5,-1218 583.5,-1218 583.5,-1218 589.5,-1218 595.5,-1224 595.5,-1230 595.5,-1230 595.5,-1242 595.5,-1242 595.5,-1248 589.5,-1254 583.5,-1254"/>
<text text-anchor="middle" x="487" y="-1233.8" font-family="Courier,monospace" font-size="9.00">CIccMpeXmlFactory::~CIccMpeXmlFactory()</text>
</g>
<!-- Node0x63b0ae1a9cc0 -->
<g id="node43" class="node">
<title>Node0x63b0ae1a9cc0</title>
<path fill="#f0f4ff" stroke="black" d="M943.5,-1254C943.5,-1254 781.5,-1254 781.5,-1254 775.5,-1254 769.5,-1248 769.5,-1242 769.5,-1242 769.5,-1230 769.5,-1230 769.5,-1224 775.5,-1218 781.5,-1218 781.5,-1218 943.5,-1218 943.5,-1218 949.5,-1218 955.5,-1224 955.5,-1230 955.5,-1230 955.5,-1242 955.5,-1242 955.5,-1248 949.5,-1254 943.5,-1254"/>
<text text-anchor="middle" x="862.5" y="-1233.8" font-family="Courier,monospace" font-size="9.00">IIccMpeFactory::~IIccMpeFactory()</text>
</g>
<!-- Node0x63b0ae1a24d0&#45;&gt;Node0x63b0ae1a9cc0 -->
<g id="edge57" class="edge">
<title>Node0x63b0ae1a24d0&#45;&gt;Node0x63b0ae1a9cc0</title>
<path fill="none" stroke="#4a6fa5" d="M595.53,-1236C648.34,-1236 711.52,-1236 763.05,-1236"/>
<polygon fill="#4a6fa5" stroke="#4a6fa5" points="763.27,-1238.1 769.27,-1236 763.27,-1233.9 763.27,-1238.1"/>
</g>
<!-- Node0x63b0ae1a92b0 -->
<g id="node44" class="node">
<title>Node0x63b0ae1a92b0</title>
<path fill="#f0f4ff" stroke="black" d="M229,-1254C229,-1254 36,-1254 36,-1254 30,-1254 24,-1248 24,-1242 24,-1242 24,-1230 24,-1230 24,-1224 30,-1218 36,-1218 36,-1218 229,-1218 229,-1218 235,-1218 241,-1224 241,-1230 241,-1230 241,-1242 241,-1242 241,-1248 235,-1254 229,-1254"/>
<text text-anchor="middle" x="132.5" y="-1233.8" font-family="Courier,monospace" font-size="9.00">CIccMpeXmlFactory::~CIccMpeXmlFactory()</text>
</g>
<!-- Node0x63b0ae1a92b0&#45;&gt;Node0x63b0ae1a24d0 -->
<g id="edge58" class="edge">
<title>Node0x63b0ae1a92b0&#45;&gt;Node0x63b0ae1a24d0</title>
<path fill="none" stroke="#4a6fa5" d="M241.18,-1236C282.67,-1236 330.16,-1236 372.21,-1236"/>
<polygon fill="#4a6fa5" stroke="#4a6fa5" points="372.38,-1238.1 378.38,-1236 372.38,-1233.9 372.38,-1238.1"/>
</g>
<!-- Node0x63b0ae1acd60 -->
<g id="node46" class="node">
<title>Node0x63b0ae1acd60</title>
<path fill="#f0f4ff" stroke="black" d="M203,-1312C203,-1312 62,-1312 62,-1312 56,-1312 50,-1306 50,-1300 50,-1300 50,-1288 50,-1288 50,-1282 56,-1276 62,-1276 62,-1276 203,-1276 203,-1276 209,-1276 215,-1282 215,-1288 215,-1288 215,-1300 215,-1300 215,-1306 209,-1312 203,-1312"/>
<text text-anchor="middle" x="132.5" y="-1291.8" font-family="Courier,monospace" font-size="9.00">CIccMpeXml::GetExtClassName()</text>
</g>
<!-- Node0x63b0ae1acae0 -->
<g id="node47" class="node">
<title>Node0x63b0ae1acae0</title>
<path fill="#f0f4ff" stroke="black" d="M192.5,-1370C192.5,-1370 72.5,-1370 72.5,-1370 66.5,-1370 60.5,-1364 60.5,-1358 60.5,-1358 60.5,-1346 60.5,-1346 60.5,-1340 66.5,-1334 72.5,-1334 72.5,-1334 192.5,-1334 192.5,-1334 198.5,-1334 204.5,-1340 204.5,-1346 204.5,-1346 204.5,-1358 204.5,-1358 204.5,-1364 198.5,-1370 192.5,-1370"/>
<text text-anchor="middle" x="132.5" y="-1349.8" font-family="Courier,monospace" font-size="9.00">CIccMpeXml::~CIccMpeXml()</text>
</g>
<!-- Node0x63b0ae19c1b0 -->
<g id="node48" class="node">
<title>Node0x63b0ae19c1b0</title>
<path fill="#f0f4ff" stroke="black" d="M182,-1428C182,-1428 83,-1428 83,-1428 77,-1428 71,-1422 71,-1416 71,-1416 71,-1404 71,-1404 71,-1398 77,-1392 83,-1392 83,-1392 182,-1392 182,-1392 188,-1392 194,-1398 194,-1404 194,-1404 194,-1416 194,-1416 194,-1422 188,-1428 182,-1428"/>
<text text-anchor="middle" x="132.5" y="-1407.8" font-family="Courier,monospace" font-size="9.00">true::_Rb_tree_impl()</text>
</g>
<!-- Node0x63b0ae1d4e10 -->
<g id="node49" class="node">
<title>Node0x63b0ae1d4e10</title>
<path fill="#f0f4ff" stroke="black" d="M218.5,-1486C218.5,-1486 46.5,-1486 46.5,-1486 40.5,-1486 34.5,-1480 34.5,-1474 34.5,-1474 34.5,-1462 34.5,-1462 34.5,-1456 40.5,-1450 46.5,-1450 46.5,-1450 218.5,-1450 218.5,-1450 224.5,-1450 230.5,-1456 230.5,-1462 230.5,-1462 230.5,-1474 230.5,-1474 230.5,-1480 224.5,-1486 218.5,-1486"/>
<text text-anchor="middle" x="132.5" y="-1465.8" font-family="Courier,monospace" font-size="9.00">CIccTempDeclVar::~CIccTempDeclVar()</text>
</g>
<!-- Node0x63b0ae1bd180 -->
<g id="node50" class="node">
<title>Node0x63b0ae1bd180</title>
<path fill="#f0f4ff" stroke="black" d="M182,-1544C182,-1544 83,-1544 83,-1544 77,-1544 71,-1538 71,-1532 71,-1532 71,-1520 71,-1520 71,-1514 77,-1508 83,-1508 83,-1508 182,-1508 182,-1508 188,-1508 194,-1514 194,-1520 194,-1520 194,-1532 194,-1532 194,-1538 188,-1544 182,-1544"/>
<text text-anchor="middle" x="132.5" y="-1523.8" font-family="Courier,monospace" font-size="9.00">true::_Rb_tree_impl()</text>
</g>
<!-- Node0x63b0ae1bcfd0 -->
<g id="node51" class="node">
<title>Node0x63b0ae1bcfd0</title>
<path fill="#f0f4ff" stroke="black" d="M182,-1602C182,-1602 83,-1602 83,-1602 77,-1602 71,-1596 71,-1590 71,-1590 71,-1578 71,-1578 71,-1572 77,-1566 83,-1566 83,-1566 182,-1566 182,-1566 188,-1566 194,-1572 194,-1578 194,-1578 194,-1590 194,-1590 194,-1596 188,-1602 182,-1602"/>
<text text-anchor="middle" x="132.5" y="-1581.8" font-family="Courier,monospace" font-size="9.00">true::_Rb_tree_impl()</text>
</g>
<!-- Node0x63b0ae1bced0 -->
<g id="node52" class="node">
<title>Node0x63b0ae1bced0</title>
<path fill="#f0f4ff" stroke="black" d="M182,-1660C182,-1660 83,-1660 83,-1660 77,-1660 71,-1654 71,-1648 71,-1648 71,-1636 71,-1636 71,-1630 77,-1624 83,-1624 83,-1624 182,-1624 182,-1624 188,-1624 194,-1630 194,-1636 194,-1636 194,-1648 194,-1648 194,-1654 188,-1660 182,-1660"/>
<text text-anchor="middle" x="132.5" y="-1639.8" font-family="Courier,monospace" font-size="9.00">true::_Rb_tree_impl()</text>
</g>
<!-- Node0x63b0ae19e510 -->
<g id="node53" class="node">
<title>Node0x63b0ae19e510</title>
<path fill="#f0f4ff" stroke="black" d="M253,-1718C253,-1718 12,-1718 12,-1718 6,-1718 0,-1712 0,-1706 0,-1706 0,-1694 0,-1694 0,-1688 6,-1682 12,-1682 12,-1682 253,-1682 253,-1682 259,-1682 265,-1688 265,-1694 265,-1694 265,-1706 265,-1706 265,-1712 259,-1718 253,-1718"/>
<text text-anchor="middle" x="132.5" y="-1697.8" font-family="Courier,monospace" font-size="9.00">__detail::_List_node_header::_List_node_header()</text>
</g>
<!-- Node0x63b0ae19e010 -->
<g id="node54" class="node">
<title>Node0x63b0ae19e010</title>
<path fill="#f0f4ff" stroke="black" d="M581,-1718C581,-1718 393,-1718 393,-1718 387,-1718 381,-1712 381,-1706 381,-1706 381,-1694 381,-1694 381,-1688 387,-1682 393,-1682 393,-1682 581,-1682 581,-1682 587,-1682 593,-1688 593,-1694 593,-1694 593,-1706 593,-1706 593,-1712 587,-1718 581,-1718"/>
<text text-anchor="middle" x="487" y="-1697.8" font-family="Courier,monospace" font-size="9.00">__detail::_List_node_header::_M_init()</text>
</g>
<!-- Node0x63b0ae19e510&#45;&gt;Node0x63b0ae19e010 -->
<g id="edge60" class="edge">
<title>Node0x63b0ae19e510&#45;&gt;Node0x63b0ae19e010</title>
<path fill="none" stroke="#4a6fa5" d="M265.01,-1700C301.17,-1700 340.01,-1700 374.9,-1700"/>
<polygon fill="#4a6fa5" stroke="#4a6fa5" points="374.91,-1702.1 380.91,-1700 374.91,-1697.9 374.91,-1702.1"/>
</g>
<!-- Node0x63b0ae19e090 -->
<g id="node55" class="node">
<title>Node0x63b0ae19e090</title>
<path fill="#f0f4ff" stroke="black" d="M182,-1776C182,-1776 83,-1776 83,-1776 77,-1776 71,-1770 71,-1764 71,-1764 71,-1752 71,-1752 71,-1746 77,-1740 83,-1740 83,-1740 182,-1740 182,-1740 188,-1740 194,-1746 194,-1752 194,-1752 194,-1764 194,-1764 194,-1770 188,-1776 182,-1776"/>
<text text-anchor="middle" x="132.5" y="-1755.8" font-family="Courier,monospace" font-size="9.00">true::_Rb_tree_impl()</text>
</g>
<!-- Node0x63b0ae1c83d0 -->
<g id="node56" class="node">
<title>Node0x63b0ae1c83d0</title>
<path fill="#f0f4ff" stroke="black" d="M184.5,-1834C184.5,-1834 80.5,-1834 80.5,-1834 74.5,-1834 68.5,-1828 68.5,-1822 68.5,-1822 68.5,-1810 68.5,-1810 68.5,-1804 74.5,-1798 80.5,-1798 80.5,-1798 184.5,-1798 184.5,-1798 190.5,-1798 196.5,-1804 196.5,-1810 196.5,-1810 196.5,-1822 196.5,-1822 196.5,-1828 190.5,-1834 184.5,-1834"/>
<text text-anchor="middle" x="132.5" y="-1813.8" font-family="Courier,monospace" font-size="9.00">true::~_Rb_tree_impl()</text>
</g>
<!-- Node0x63b0ae1d8890 -->
<g id="node59" class="node">
<title>Node0x63b0ae1d8890</title>
<path fill="#f0f4ff" stroke="black" d="M197.5,-1892C197.5,-1892 67.5,-1892 67.5,-1892 61.5,-1892 55.5,-1886 55.5,-1880 55.5,-1880 55.5,-1868 55.5,-1868 55.5,-1862 61.5,-1856 67.5,-1856 67.5,-1856 197.5,-1856 197.5,-1856 203.5,-1856 209.5,-1862 209.5,-1868 209.5,-1868 209.5,-1880 209.5,-1880 209.5,-1886 203.5,-1892 197.5,-1892"/>
<text text-anchor="middle" x="132.5" y="-1871.8" font-family="Courier,monospace" font-size="9.00">CIccTempVar::~CIccTempVar()</text>
</g>
<!-- Node0x63b0ae1deaa0 -->
<g id="node60" class="node">
<title>Node0x63b0ae1deaa0</title>
<path fill="#f0f4ff" stroke="black" d="M184.5,-1950C184.5,-1950 80.5,-1950 80.5,-1950 74.5,-1950 68.5,-1944 68.5,-1938 68.5,-1938 68.5,-1926 68.5,-1926 68.5,-1920 74.5,-1914 80.5,-1914 80.5,-1914 184.5,-1914 184.5,-1914 190.5,-1914 196.5,-1920 196.5,-1926 196.5,-1926 196.5,-1938 196.5,-1938 196.5,-1944 190.5,-1950 184.5,-1950"/>
<text text-anchor="middle" x="132.5" y="-1929.8" font-family="Courier,monospace" font-size="9.00">true::~_Rb_tree_impl()</text>
</g>
<!-- Node0x63b0ae1ee980 -->
<g id="node61" class="node">
<title>Node0x63b0ae1ee980</title>
<path fill="#f0f4ff" stroke="black" d="M184.5,-2008C184.5,-2008 80.5,-2008 80.5,-2008 74.5,-2008 68.5,-2002 68.5,-1996 68.5,-1996 68.5,-1984 68.5,-1984 68.5,-1978 74.5,-1972 80.5,-1972 80.5,-1972 184.5,-1972 184.5,-1972 190.5,-1972 196.5,-1978 196.5,-1984 196.5,-1984 196.5,-1996 196.5,-1996 196.5,-2002 190.5,-2008 184.5,-2008"/>
<text text-anchor="middle" x="132.5" y="-1987.8" font-family="Courier,monospace" font-size="9.00">true::~_Rb_tree_impl()</text>
</g>
<!-- Node0x63b0ae1f4c70 -->
<g id="node62" class="node">
<title>Node0x63b0ae1f4c70</title>
<path fill="#f0f4ff" stroke="black" d="M184.5,-2066C184.5,-2066 80.5,-2066 80.5,-2066 74.5,-2066 68.5,-2060 68.5,-2054 68.5,-2054 68.5,-2042 68.5,-2042 68.5,-2036 74.5,-2030 80.5,-2030 80.5,-2030 184.5,-2030 184.5,-2030 190.5,-2030 196.5,-2036 196.5,-2042 196.5,-2042 196.5,-2054 196.5,-2054 196.5,-2060 190.5,-2066 184.5,-2066"/>
<text text-anchor="middle" x="132.5" y="-2045.8" font-family="Courier,monospace" font-size="9.00">true::~_Rb_tree_impl()</text>
</g>
<!-- Node0x63b0ae209930 -->
<g id="node63" class="node">
<title>Node0x63b0ae209930</title>
<path fill="#f0f4ff" stroke="black" d="M184.5,-2124C184.5,-2124 80.5,-2124 80.5,-2124 74.5,-2124 68.5,-2118 68.5,-2112 68.5,-2112 68.5,-2100 68.5,-2100 68.5,-2094 74.5,-2088 80.5,-2088 80.5,-2088 184.5,-2088 184.5,-2088 190.5,-2088 196.5,-2094 196.5,-2100 196.5,-2100 196.5,-2112 196.5,-2112 196.5,-2118 190.5,-2124 184.5,-2124"/>
<text text-anchor="middle" x="132.5" y="-2103.8" font-family="Courier,monospace" font-size="9.00">true::~_Rb_tree_impl()</text>
</g>
</g>
</svg>
