<?xml version="1.0" encoding="UTF-8" standalone="no"?>
<!DOCTYPE svg PUBLIC "-//W3C//DTD SVG 1.1//EN"
 "http://www.w3.org/Graphics/SVG/1.1/DTD/svg11.dtd">
<!-- Generated by graphviz version 2.43.0 (0)
 -->
<!-- Title: Call graph: /home/h02332/po/research/call&#45;graph/iccdev/xml/IccProfileXml.ll Pages: 1 -->
<svg width="976pt" height="2167pt"
 viewBox="0.00 0.00 976.20 2167.20" xmlns="http://www.w3.org/2000/svg" xmlns:xlink="http://www.w3.org/1999/xlink">
<g id="graph0" class="graph" transform="scale(1 1) rotate(0) translate(21.6 2145.6)">
<title>Call graph: /home/h02332/po/research/call&#45;graph/iccdev/xml/IccProfileXml.ll</title>
<polygon fill="white" stroke="transparent" points="-21.6,21.6 -21.6,-2145.6 954.6,-2145.6 954.6,21.6 -21.6,21.6"/>
<!-- Node0x6044a7db41e0 -->
<g id="node1" class="node">
<title>Node0x6044a7db41e0</title>
<path fill="#f0f4ff" stroke="black" d="M826.5,-616C826.5,-616 759.5,-616 759.5,-616 753.5,-616 747.5,-610 747.5,-604 747.5,-604 747.5,-592 747.5,-592 747.5,-586 753.5,-580 759.5,-580 759.5,-580 826.5,-580 826.5,-580 832.5,-580 838.5,-586 838.5,-592 838.5,-592 838.5,-604 838.5,-604 838.5,-610 832.5,-616 826.5,-616"/>
<text text-anchor="middle" x="793" y="-595.8" font-family="Courier,monospace" font-size="9.00">__isoc23_sscanf</text>
</g>
<!-- Node0x6044a816cf10 -->
<g id="node2" class="node">
<title>Node0x6044a816cf10</title>
<path fill="#f0f4ff" stroke="black" d="M331,-1428C331,-1428 222,-1428 222,-1428 216,-1428 210,-1422 210,-1416 210,-1416 210,-1404 210,-1404 210,-1398 216,-1392 222,-1392 222,-1392 331,-1392 331,-1392 337,-1392 343,-1398 343,-1404 343,-1404 343,-1416 343,-1416 343,-1422 337,-1428 331,-1428"/>
<text text-anchor="middle" x="276.5" y="-1407.8" font-family="Courier,monospace" font-size="9.00">CIccProfileXml::ToXml()</text>
</g>
<!-- Node0x6044a8175a10 -->
<g id="node3" class="node">
<title>Node0x6044a8175a10</title>
<path fill="#f0f4ff" stroke="black" d="M840,-1428C840,-1428 746,-1428 746,-1428 740,-1428 734,-1422 734,-1416 734,-1416 734,-1404 734,-1404 734,-1398 740,-1392 746,-1392 746,-1392 840,-1392 840,-1392 846,-1392 852,-1398 852,-1404 852,-1404 852,-1416 852,-1416 852,-1422 846,-1428 840,-1428"/>
<text text-anchor="middle" x="793" y="-1407.8" font-family="Courier,monospace" font-size="9.00">CIccInfo::CIccInfo()</text>
</g>
<!-- Node0x6044a816cf10&#45;&gt;Node0x6044a8175a10 -->
<g id="edge1" class="edge">
<title>Node0x6044a816cf10&#45;&gt;Node0x6044a8175a10</title>
<path fill="none" stroke="#4a6fa5" d="M343.18,-1410C442.42,-1410 629.41,-1410 727.78,-1410"/>
<polygon fill="#4a6fa5" stroke="#4a6fa5" points="727.84,-1412.1 733.84,-1410 727.84,-1407.9 727.84,-1412.1"/>
</g>
<!-- Node0x6044a7e0b400 -->
<g id="node4" class="node">
<title>Node0x6044a7e0b400</title>
<path fill="#f0f4ff" stroke="black" d="M583,-1660C583,-1660 421,-1660 421,-1660 415,-1660 409,-1654 409,-1648 409,-1648 409,-1636 409,-1636 409,-1630 415,-1624 421,-1624 421,-1624 583,-1624 583,-1624 589,-1624 595,-1630 595,-1636 595,-1636 595,-1648 595,-1648 595,-1654 589,-1660 583,-1660"/>
<text text-anchor="middle" x="502" y="-1639.8" font-family="Courier,monospace" font-size="9.00">CIccProfileXml::ToXmlWithBlanks()</text>
</g>
<!-- Node0x6044a816cf10&#45;&gt;Node0x6044a7e0b400 -->
<g id="edge2" class="edge">
<title>Node0x6044a816cf10&#45;&gt;Node0x6044a7e0b400</title>
<path fill="none" stroke="#4a6fa5" d="M333.5,-1428.19C339.69,-1431.31 345.67,-1434.9 351,-1439 416.88,-1489.61 467.45,-1576.59 489.25,-1618.32"/>
<polygon fill="#4a6fa5" stroke="#4a6fa5" points="487.52,-1619.53 492.14,-1623.9 491.25,-1617.6 487.52,-1619.53"/>
</g>
<!-- Node0x6044a7e60da0 -->
<g id="node5" class="node">
<title>Node0x6044a7e60da0</title>
<path fill="#f0f4ff" stroke="black" d="M842.5,-1370C842.5,-1370 743.5,-1370 743.5,-1370 737.5,-1370 731.5,-1364 731.5,-1358 731.5,-1358 731.5,-1346 731.5,-1346 731.5,-1340 737.5,-1334 743.5,-1334 743.5,-1334 842.5,-1334 842.5,-1334 848.5,-1334 854.5,-1340 854.5,-1346 854.5,-1346 854.5,-1358 854.5,-1358 854.5,-1364 848.5,-1370 842.5,-1370"/>
<text text-anchor="middle" x="793" y="-1349.8" font-family="Courier,monospace" font-size="9.00">CIccInfo::~CIccInfo()</text>
</g>
<!-- Node0x6044a816cf10&#45;&gt;Node0x6044a7e60da0 -->
<g id="edge3" class="edge">
<title>Node0x6044a816cf10&#45;&gt;Node0x6044a7e60da0</title>
<path fill="none" stroke="#4a6fa5" d="M343.18,-1402.6C441.5,-1391.51 625.92,-1370.72 725,-1359.55"/>
<polygon fill="#4a6fa5" stroke="#4a6fa5" points="725.38,-1361.62 731.11,-1358.86 724.91,-1357.45 725.38,-1361.62"/>
</g>
<!-- Node0x6044a7e0b400&#45;&gt;Node0x6044a8175a10 -->
<g id="edge4" class="edge">
<title>Node0x6044a7e0b400&#45;&gt;Node0x6044a8175a10</title>
<path fill="none" stroke="#4a6fa5" d="M510.8,-1623.9C529.17,-1583.59 579.22,-1486.3 653,-1439 675,-1424.9 702.62,-1417.5 727.43,-1413.68"/>
<polygon fill="#4a6fa5" stroke="#4a6fa5" points="728.03,-1415.71 733.67,-1412.78 727.43,-1411.55 728.03,-1415.71"/>
</g>
<!-- Node0x6044a7e0b400&#45;&gt;Node0x6044a7e60da0 -->
<g id="edge5" class="edge">
<title>Node0x6044a7e0b400&#45;&gt;Node0x6044a7e60da0</title>
<path fill="none" stroke="#4a6fa5" d="M507.76,-1623.95C521.4,-1575.96 565.42,-1444.51 653,-1381 673.79,-1365.92 700.68,-1358.32 725.25,-1354.59"/>
<polygon fill="#4a6fa5" stroke="#4a6fa5" points="725.8,-1356.64 731.45,-1353.73 725.22,-1352.48 725.8,-1356.64"/>
</g>
<!-- Node0x6044a7ec8df0 -->
<g id="node6" class="node">
<title>Node0x6044a7ec8df0</title>
<path fill="#f0f4ff" stroke="black" d="M834.5,-1486C834.5,-1486 751.5,-1486 751.5,-1486 745.5,-1486 739.5,-1480 739.5,-1474 739.5,-1474 739.5,-1462 739.5,-1462 739.5,-1456 745.5,-1450 751.5,-1450 751.5,-1450 834.5,-1450 834.5,-1450 840.5,-1450 846.5,-1456 846.5,-1462 846.5,-1462 846.5,-1474 846.5,-1474 846.5,-1480 840.5,-1486 834.5,-1486"/>
<text text-anchor="middle" x="793" y="-1465.8" font-family="Courier,monospace" font-size="9.00">icGetColorSigStr()</text>
</g>
<!-- Node0x6044a7e0b400&#45;&gt;Node0x6044a7ec8df0 -->
<g id="edge6" class="edge">
<title>Node0x6044a7e0b400&#45;&gt;Node0x6044a7ec8df0</title>
<path fill="none" stroke="#4a6fa5" d="M516.01,-1623.99C539.58,-1592.8 592.51,-1529.04 653,-1497 677.6,-1483.97 707.56,-1476.79 733.35,-1472.84"/>
<polygon fill="#4a6fa5" stroke="#4a6fa5" points="733.83,-1474.89 739.46,-1471.95 733.22,-1470.73 733.83,-1474.89"/>
</g>
<!-- Node0x6044a7f77290 -->
<g id="node7" class="node">
<title>Node0x6044a7f77290</title>
<path fill="#f0f4ff" stroke="black" d="M813.5,-2124C813.5,-2124 772.5,-2124 772.5,-2124 766.5,-2124 760.5,-2118 760.5,-2112 760.5,-2112 760.5,-2100 760.5,-2100 760.5,-2094 766.5,-2088 772.5,-2088 772.5,-2088 813.5,-2088 813.5,-2088 819.5,-2088 825.5,-2094 825.5,-2100 825.5,-2100 825.5,-2112 825.5,-2112 825.5,-2118 819.5,-2124 813.5,-2124"/>
<text text-anchor="middle" x="793" y="-2103.8" font-family="Courier,monospace" font-size="9.00">icFixXml()</text>
</g>
<!-- Node0x6044a7e0b400&#45;&gt;Node0x6044a7f77290 -->
<g id="edge7" class="edge">
<title>Node0x6044a7e0b400&#45;&gt;Node0x6044a7f77290</title>
<path fill="none" stroke="#4a6fa5" d="M503.3,-1660.3C505.43,-1727.38 522.33,-1961.88 653,-2077 680.54,-2101.27 723.07,-2107.11 753.84,-2107.76"/>
<polygon fill="#4a6fa5" stroke="#4a6fa5" points="754.19,-2109.86 760.21,-2107.82 754.24,-2105.66 754.19,-2109.86"/>
</g>
<!-- Node0x6044a80eec30 -->
<g id="node8" class="node">
<title>Node0x6044a80eec30</title>
<path fill="#f0f4ff" stroke="black" d="M821.5,-2066C821.5,-2066 764.5,-2066 764.5,-2066 758.5,-2066 752.5,-2060 752.5,-2054 752.5,-2054 752.5,-2042 752.5,-2042 752.5,-2036 758.5,-2030 764.5,-2030 764.5,-2030 821.5,-2030 821.5,-2030 827.5,-2030 833.5,-2036 833.5,-2042 833.5,-2042 833.5,-2054 833.5,-2054 833.5,-2060 827.5,-2066 821.5,-2066"/>
<text text-anchor="middle" x="793" y="-2045.8" font-family="Courier,monospace" font-size="9.00">icGetSigStr()</text>
</g>
<!-- Node0x6044a7e0b400&#45;&gt;Node0x6044a80eec30 -->
<g id="edge8" class="edge">
<title>Node0x6044a7e0b400&#45;&gt;Node0x6044a80eec30</title>
<path fill="none" stroke="#4a6fa5" d="M504.39,-1660.41C510.06,-1721.88 537.06,-1921.56 653,-2019 678.72,-2040.62 716.46,-2047.44 746.12,-2049.09"/>
<polygon fill="#4a6fa5" stroke="#4a6fa5" points="746.24,-2051.19 752.33,-2049.36 746.42,-2047 746.24,-2051.19"/>
</g>
<!-- Node0x6044a7efd000 -->
<g id="node9" class="node">
<title>Node0x6044a7efd000</title>
<path fill="#f0f4ff" stroke="black" d="M855.5,-2008C855.5,-2008 730.5,-2008 730.5,-2008 724.5,-2008 718.5,-2002 718.5,-1996 718.5,-1996 718.5,-1984 718.5,-1984 718.5,-1978 724.5,-1972 730.5,-1972 730.5,-1972 855.5,-1972 855.5,-1972 861.5,-1972 867.5,-1978 867.5,-1984 867.5,-1984 867.5,-1996 867.5,-1996 867.5,-2002 861.5,-2008 855.5,-2008"/>
<text text-anchor="middle" x="793" y="-1987.8" font-family="Courier,monospace" font-size="9.00">CIccInfo::GetVersionName()</text>
</g>
<!-- Node0x6044a7e0b400&#45;&gt;Node0x6044a7efd000 -->
<g id="edge9" class="edge">
<title>Node0x6044a7e0b400&#45;&gt;Node0x6044a7efd000</title>
<path fill="none" stroke="#4a6fa5" d="M505.81,-1660.29C515.3,-1715.37 551.42,-1880.78 653,-1961 669.89,-1974.34 691.42,-1981.95 712.47,-1986.19"/>
<polygon fill="#4a6fa5" stroke="#4a6fa5" points="712.1,-1988.26 718.39,-1987.3 712.87,-1984.13 712.1,-1988.26"/>
</g>
<!-- Node0x6044a7fe2ac0 -->
<g id="node10" class="node">
<title>Node0x6044a7fe2ac0</title>
<path fill="#f0f4ff" stroke="black" d="M876.5,-1950C876.5,-1950 709.5,-1950 709.5,-1950 703.5,-1950 697.5,-1944 697.5,-1938 697.5,-1938 697.5,-1926 697.5,-1926 697.5,-1920 703.5,-1914 709.5,-1914 709.5,-1914 876.5,-1914 876.5,-1914 882.5,-1914 888.5,-1920 888.5,-1926 888.5,-1926 888.5,-1938 888.5,-1938 888.5,-1944 882.5,-1950 876.5,-1950"/>
<text text-anchor="middle" x="793" y="-1929.8" font-family="Courier,monospace" font-size="9.00">CIccInfo::GetSubClassVersionName()</text>
</g>
<!-- Node0x6044a7e0b400&#45;&gt;Node0x6044a7fe2ac0 -->
<g id="edge10" class="edge">
<title>Node0x6044a7e0b400&#45;&gt;Node0x6044a7fe2ac0</title>
<path fill="none" stroke="#4a6fa5" d="M507.76,-1660.05C521.4,-1708.04 565.42,-1839.49 653,-1903 664.44,-1911.29 677.72,-1917.33 691.45,-1921.7"/>
<polygon fill="#4a6fa5" stroke="#4a6fa5" points="691.01,-1923.76 697.36,-1923.47 692.21,-1919.74 691.01,-1923.76"/>
</g>
<!-- Node0x6044a817de00 -->
<g id="node11" class="node">
<title>Node0x6044a817de00</title>
<path fill="#f0f4ff" stroke="black" d="M853,-1892C853,-1892 733,-1892 733,-1892 727,-1892 721,-1886 721,-1880 721,-1880 721,-1868 721,-1868 721,-1862 727,-1856 733,-1856 733,-1856 853,-1856 853,-1856 859,-1856 865,-1862 865,-1868 865,-1868 865,-1880 865,-1880 865,-1886 859,-1892 853,-1892"/>
<text text-anchor="middle" x="793" y="-1871.8" font-family="Courier,monospace" font-size="9.00">CIccInfo::GetTagSigName()</text>
</g>
<!-- Node0x6044a7e0b400&#45;&gt;Node0x6044a817de00 -->
<g id="edge11" class="edge">
<title>Node0x6044a7e0b400&#45;&gt;Node0x6044a817de00</title>
<path fill="none" stroke="#4a6fa5" d="M510.8,-1660.1C529.17,-1700.41 579.22,-1797.7 653,-1845 671.31,-1856.73 693.5,-1863.83 714.73,-1868.08"/>
<polygon fill="#4a6fa5" stroke="#4a6fa5" points="714.4,-1870.16 720.69,-1869.21 715.18,-1866.03 714.4,-1870.16"/>
</g>
<!-- Node0x6044a7da99a0 -->
<g id="node12" class="node">
<title>Node0x6044a7da99a0</title>
<path fill="#f0f4ff" stroke="black" d="M842.5,-1834C842.5,-1834 743.5,-1834 743.5,-1834 737.5,-1834 731.5,-1828 731.5,-1822 731.5,-1822 731.5,-1810 731.5,-1810 731.5,-1804 737.5,-1798 743.5,-1798 743.5,-1798 842.5,-1798 842.5,-1798 848.5,-1798 854.5,-1804 854.5,-1810 854.5,-1810 854.5,-1822 854.5,-1822 854.5,-1828 848.5,-1834 842.5,-1834"/>
<text text-anchor="middle" x="793" y="-1813.8" font-family="Courier,monospace" font-size="9.00">icGetTagSigTypeName()</text>
</g>
<!-- Node0x6044a7e0b400&#45;&gt;Node0x6044a7da99a0 -->
<g id="edge12" class="edge">
<title>Node0x6044a7e0b400&#45;&gt;Node0x6044a7da99a0</title>
<path fill="none" stroke="#4a6fa5" d="M516.01,-1660.01C539.58,-1691.2 592.51,-1754.96 653,-1787 675.09,-1798.7 701.49,-1805.68 725.32,-1809.85"/>
<polygon fill="#4a6fa5" stroke="#4a6fa5" points="725.06,-1811.93 731.32,-1810.85 725.75,-1807.79 725.06,-1811.93"/>
</g>
<!-- Node0x6044a817dfe0 -->
<g id="node13" class="node">
<title>Node0x6044a817dfe0</title>
<path fill="#f0f4ff" stroke="black" d="M845,-1196C845,-1196 741,-1196 741,-1196 735,-1196 729,-1190 729,-1184 729,-1184 729,-1172 729,-1172 729,-1166 735,-1160 741,-1160 741,-1160 845,-1160 845,-1160 851,-1160 857,-1166 857,-1172 857,-1172 857,-1184 857,-1184 857,-1190 851,-1196 845,-1196"/>
<text text-anchor="middle" x="793" y="-1175.8" font-family="Courier,monospace" font-size="9.00">CIccProfile::FindTag()</text>
</g>
<!-- Node0x6044a7e0b400&#45;&gt;Node0x6044a817dfe0 -->
<g id="edge13" class="edge">
<title>Node0x6044a7e0b400&#45;&gt;Node0x6044a817dfe0</title>
<path fill="none" stroke="#4a6fa5" d="M503.3,-1623.7C505.43,-1556.62 522.33,-1322.12 653,-1207 672.01,-1190.25 698.17,-1182.28 722.66,-1178.73"/>
<polygon fill="#4a6fa5" stroke="#4a6fa5" points="723.17,-1180.78 728.85,-1177.92 722.63,-1176.62 723.17,-1180.78"/>
</g>
<!-- Node0x6044a7d9e220 -->
<g id="node14" class="node">
<title>Node0x6044a7d9e220</title>
<path fill="#f0f4ff" stroke="black" d="M813.5,-1776C813.5,-1776 772.5,-1776 772.5,-1776 766.5,-1776 760.5,-1770 760.5,-1764 760.5,-1764 760.5,-1752 760.5,-1752 760.5,-1746 766.5,-1740 772.5,-1740 772.5,-1740 813.5,-1740 813.5,-1740 819.5,-1740 825.5,-1746 825.5,-1752 825.5,-1752 825.5,-1764 825.5,-1764 825.5,-1770 819.5,-1776 813.5,-1776"/>
<text text-anchor="middle" x="793" y="-1755.8" font-family="Courier,monospace" font-size="9.00">icF16toF()</text>
</g>
<!-- Node0x6044a7e0b400&#45;&gt;Node0x6044a7d9e220 -->
<g id="edge14" class="edge">
<title>Node0x6044a7e0b400&#45;&gt;Node0x6044a7d9e220</title>
<path fill="none" stroke="#4a6fa5" d="M528.28,-1660.07C557.11,-1679.86 606.33,-1711.13 653,-1729 685.96,-1741.62 725.53,-1749.19 754.01,-1753.42"/>
<polygon fill="#4a6fa5" stroke="#4a6fa5" points="754.03,-1755.54 760.27,-1754.32 754.63,-1751.39 754.03,-1755.54"/>
</g>
<!-- Node0x6044a7d9e460 -->
<g id="node15" class="node">
<title>Node0x6044a7d9e460</title>
<path fill="#f0f4ff" stroke="black" d="M808,-790C808,-790 778,-790 778,-790 772,-790 766,-784 766,-778 766,-778 766,-766 766,-766 766,-760 772,-754 778,-754 778,-754 808,-754 808,-754 814,-754 820,-760 820,-766 820,-766 820,-778 820,-778 820,-784 814,-790 808,-790"/>
<text text-anchor="middle" x="793" y="-769.8" font-family="Courier,monospace" font-size="9.00">c_str()</text>
</g>
<!-- Node0x6044a7e0b400&#45;&gt;Node0x6044a7d9e460 -->
<g id="edge15" class="edge">
<title>Node0x6044a7e0b400&#45;&gt;Node0x6044a7d9e460</title>
<path fill="none" stroke="#4a6fa5" d="M503.57,-1623.75C507.44,-1512.3 533.39,-924.15 653,-801 680.53,-772.65 728.09,-768.43 759.8,-769.24"/>
<polygon fill="#4a6fa5" stroke="#4a6fa5" points="759.84,-771.35 765.92,-769.47 760,-767.15 759.84,-771.35"/>
</g>
<!-- Node0x6044a7d9f8f0 -->
<g id="node16" class="node">
<title>Node0x6044a7d9f8f0</title>
<path fill="#f0f4ff" stroke="black" d="M808.5,-1718C808.5,-1718 777.5,-1718 777.5,-1718 771.5,-1718 765.5,-1712 765.5,-1706 765.5,-1706 765.5,-1694 765.5,-1694 765.5,-1688 771.5,-1682 777.5,-1682 777.5,-1682 808.5,-1682 808.5,-1682 814.5,-1682 820.5,-1688 820.5,-1694 820.5,-1694 820.5,-1706 820.5,-1706 820.5,-1712 814.5,-1718 808.5,-1718"/>
<text text-anchor="middle" x="793" y="-1697.8" font-family="Courier,monospace" font-size="9.00">icFtoD()</text>
</g>
<!-- Node0x6044a7e0b400&#45;&gt;Node0x6044a7d9f8f0 -->
<g id="edge16" class="edge">
<title>Node0x6044a7e0b400&#45;&gt;Node0x6044a7d9f8f0</title>
<path fill="none" stroke="#4a6fa5" d="M592.86,-1660.03C649.32,-1671.37 718.84,-1685.32 759.02,-1693.38"/>
<polygon fill="#4a6fa5" stroke="#4a6fa5" points="758.92,-1695.5 765.21,-1694.62 759.75,-1691.38 758.92,-1695.5"/>
</g>
<!-- Node0x6044a7d9ef40 -->
<g id="node17" class="node">
<title>Node0x6044a7d9ef40</title>
<path fill="#f0f4ff" stroke="black" d="M876.5,-1660C876.5,-1660 709.5,-1660 709.5,-1660 703.5,-1660 697.5,-1654 697.5,-1648 697.5,-1648 697.5,-1636 697.5,-1636 697.5,-1630 703.5,-1624 709.5,-1624 709.5,-1624 876.5,-1624 876.5,-1624 882.5,-1624 888.5,-1630 888.5,-1636 888.5,-1636 888.5,-1648 888.5,-1648 888.5,-1654 882.5,-1660 876.5,-1660"/>
<text text-anchor="middle" x="793" y="-1639.8" font-family="Courier,monospace" font-size="9.00">CIccInfo::GetRenderingIntentName()</text>
</g>
<!-- Node0x6044a7e0b400&#45;&gt;Node0x6044a7d9ef40 -->
<g id="edge17" class="edge">
<title>Node0x6044a7e0b400&#45;&gt;Node0x6044a7d9ef40</title>
<path fill="none" stroke="#4a6fa5" d="M595.24,-1642C625.74,-1642 659.85,-1642 690.98,-1642"/>
<polygon fill="#4a6fa5" stroke="#4a6fa5" points="691.16,-1644.1 697.16,-1642 691.16,-1639.9 691.16,-1644.1"/>
</g>
<!-- Node0x6044a80f3090 -->
<g id="node18" class="node">
<title>Node0x6044a80f3090</title>
<path fill="#f0f4ff" stroke="black" d="M918.5,-1602C918.5,-1602 667.5,-1602 667.5,-1602 661.5,-1602 655.5,-1596 655.5,-1590 655.5,-1590 655.5,-1578 655.5,-1578 655.5,-1572 661.5,-1566 667.5,-1566 667.5,-1566 918.5,-1566 918.5,-1566 924.5,-1566 930.5,-1572 930.5,-1578 930.5,-1578 930.5,-1590 930.5,-1590 930.5,-1596 924.5,-1602 918.5,-1602"/>
<text text-anchor="middle" x="793" y="-1581.8" font-family="Courier,monospace" font-size="9.00">icGetDeviceAttrName[abi:cxx11](unsigned long long)</text>
</g>
<!-- Node0x6044a7e0b400&#45;&gt;Node0x6044a80f3090 -->
<g id="edge18" class="edge">
<title>Node0x6044a7e0b400&#45;&gt;Node0x6044a80f3090</title>
<path fill="none" stroke="#4a6fa5" d="M592.86,-1623.97C625.61,-1617.39 662.77,-1609.94 696.03,-1603.26"/>
<polygon fill="#4a6fa5" stroke="#4a6fa5" points="696.73,-1605.26 702.2,-1602.02 695.9,-1601.14 696.73,-1605.26"/>
</g>
<!-- Node0x6044a7f7d7a0 -->
<g id="node19" class="node">
<title>Node0x6044a7f7d7a0</title>
<path fill="#f0f4ff" stroke="black" d="M921,-1544C921,-1544 665,-1544 665,-1544 659,-1544 653,-1538 653,-1532 653,-1532 653,-1520 653,-1520 653,-1514 659,-1508 665,-1508 665,-1508 921,-1508 921,-1508 927,-1508 933,-1514 933,-1520 933,-1520 933,-1532 933,-1532 933,-1538 927,-1544 921,-1544"/>
<text text-anchor="middle" x="793" y="-1523.8" font-family="Courier,monospace" font-size="9.00">icGetHeaderFlagsName[abi:cxx11](unsigned int, bool)</text>
</g>
<!-- Node0x6044a7e0b400&#45;&gt;Node0x6044a7f7d7a0 -->
<g id="edge19" class="edge">
<title>Node0x6044a7e0b400&#45;&gt;Node0x6044a7f7d7a0</title>
<path fill="none" stroke="#4a6fa5" d="M528.28,-1623.93C557.11,-1604.14 606.33,-1572.87 653,-1555 662.06,-1551.53 671.61,-1548.45 681.3,-1545.71"/>
<polygon fill="#4a6fa5" stroke="#4a6fa5" points="682.11,-1547.66 687.34,-1544.04 681,-1543.61 682.11,-1547.66"/>
</g>
<!-- Node0x6044a7daff40 -->
<g id="node20" class="node">
<title>Node0x6044a7daff40</title>
<path fill="#f0f4ff" stroke="black" d="M570,-877C570,-877 434,-877 434,-877 428,-877 422,-871 422,-865 422,-865 422,-853 422,-853 422,-847 428,-841 434,-841 434,-841 570,-841 570,-841 576,-841 582,-847 582,-853 582,-853 582,-865 582,-865 582,-871 576,-877 570,-877"/>
<text text-anchor="middle" x="502" y="-856.8" font-family="Courier,monospace" font-size="9.00">CIccProfileXml::ParseBasic()</text>
</g>
<!-- Node0x6044a7daff40&#45;&gt;Node0x6044a7db41e0 -->
<g id="edge31" class="edge">
<title>Node0x6044a7daff40&#45;&gt;Node0x6044a7db41e0</title>
<path fill="none" stroke="#4a6fa5" d="M509.18,-840.7C525.2,-796.25 572.51,-682.21 653,-627 678.7,-609.37 712.92,-602.08 740.98,-599.22"/>
<polygon fill="#4a6fa5" stroke="#4a6fa5" points="741.45,-601.28 747.23,-598.64 741.06,-597.1 741.45,-601.28"/>
</g>
<!-- Node0x6044a7daff40&#45;&gt;Node0x6044a7d9e460 -->
<g id="edge21" class="edge">
<title>Node0x6044a7daff40&#45;&gt;Node0x6044a7d9e460</title>
<path fill="none" stroke="#4a6fa5" d="M544.39,-840.89C574.17,-828.38 615.51,-812.08 653,-801 688.94,-790.38 731.2,-782.15 759.61,-777.21"/>
<polygon fill="#4a6fa5" stroke="#4a6fa5" points="760.25,-779.23 765.81,-776.15 759.54,-775.09 760.25,-779.23"/>
</g>
<!-- Node0x6044a7db54b0 -->
<g id="node21" class="node">
<title>Node0x6044a7db54b0</title>
<path fill="#f0f4ff" stroke="black" d="M832,-1138C832,-1138 754,-1138 754,-1138 748,-1138 742,-1132 742,-1126 742,-1126 742,-1114 742,-1114 742,-1108 748,-1102 754,-1102 754,-1102 832,-1102 832,-1102 838,-1102 844,-1108 844,-1114 844,-1114 844,-1126 844,-1126 844,-1132 838,-1138 832,-1138"/>
<text text-anchor="middle" x="793" y="-1117.8" font-family="Courier,monospace" font-size="9.00">icXmlGetHexData()</text>
</g>
<!-- Node0x6044a7daff40&#45;&gt;Node0x6044a7db54b0 -->
<g id="edge20" class="edge">
<title>Node0x6044a7daff40&#45;&gt;Node0x6044a7db54b0</title>
<path fill="none" stroke="#4a6fa5" d="M509.18,-877.3C525.2,-921.75 572.51,-1035.79 653,-1091 677.1,-1107.53 708.68,-1114.97 735.65,-1118.19"/>
<polygon fill="#4a6fa5" stroke="#4a6fa5" points="735.49,-1120.29 741.68,-1118.85 735.95,-1116.11 735.49,-1120.29"/>
</g>
<!-- Node0x6044a7db1160 -->
<g id="node22" class="node">
<title>Node0x6044a7db1160</title>
<path fill="#f0f4ff" stroke="black" d="M824,-1080C824,-1080 762,-1080 762,-1080 756,-1080 750,-1074 750,-1068 750,-1068 750,-1056 750,-1056 750,-1050 756,-1044 762,-1044 762,-1044 824,-1044 824,-1044 830,-1044 836,-1050 836,-1056 836,-1056 836,-1068 836,-1068 836,-1074 830,-1080 824,-1080"/>
<text text-anchor="middle" x="793" y="-1059.8" font-family="Courier,monospace" font-size="9.00">parseVersion()</text>
</g>
<!-- Node0x6044a7daff40&#45;&gt;Node0x6044a7db1160 -->
<g id="edge22" class="edge">
<title>Node0x6044a7daff40&#45;&gt;Node0x6044a7db1160</title>
<path fill="none" stroke="#4a6fa5" d="M513.08,-877.2C534.04,-913.23 586,-993.51 653,-1033 680.45,-1049.17 715.6,-1056.41 743.69,-1059.61"/>
<polygon fill="#4a6fa5" stroke="#4a6fa5" points="743.75,-1061.72 749.94,-1060.27 744.19,-1057.55 743.75,-1061.72"/>
</g>
<!-- Node0x6044a7db3de0 -->
<g id="node23" class="node">
<title>Node0x6044a7db3de0</title>
<path fill="#f0f4ff" stroke="black" d="M842.5,-1312C842.5,-1312 743.5,-1312 743.5,-1312 737.5,-1312 731.5,-1306 731.5,-1300 731.5,-1300 731.5,-1288 731.5,-1288 731.5,-1282 737.5,-1276 743.5,-1276 743.5,-1276 842.5,-1276 842.5,-1276 848.5,-1276 854.5,-1282 854.5,-1288 854.5,-1288 854.5,-1300 854.5,-1300 854.5,-1306 848.5,-1312 842.5,-1312"/>
<text text-anchor="middle" x="793" y="-1291.8" font-family="Courier,monospace" font-size="9.00">icXmlGetChildSigVal()</text>
</g>
<!-- Node0x6044a7daff40&#45;&gt;Node0x6044a7db3de0 -->
<g id="edge23" class="edge">
<title>Node0x6044a7daff40&#45;&gt;Node0x6044a7db3de0</title>
<path fill="none" stroke="#4a6fa5" d="M503.81,-877.43C507.69,-941.85 529.76,-1158.8 653,-1265 672.88,-1282.13 700.27,-1290.03 725.48,-1293.41"/>
<polygon fill="#4a6fa5" stroke="#4a6fa5" points="725.28,-1295.5 731.49,-1294.14 725.79,-1291.33 725.28,-1295.5"/>
</g>
<!-- Node0x6044a7db4420 -->
<g id="node24" class="node">
<title>Node0x6044a7db4420</title>
<path fill="#f0f4ff" stroke="black" d="M829.5,-558C829.5,-558 756.5,-558 756.5,-558 750.5,-558 744.5,-552 744.5,-546 744.5,-546 744.5,-534 744.5,-534 744.5,-528 750.5,-522 756.5,-522 756.5,-522 829.5,-522 829.5,-522 835.5,-522 841.5,-528 841.5,-534 841.5,-534 841.5,-546 841.5,-546 841.5,-552 835.5,-558 829.5,-558"/>
<text text-anchor="middle" x="793" y="-537.8" font-family="Courier,monospace" font-size="9.00">icXmlAttrValue()</text>
</g>
<!-- Node0x6044a7daff40&#45;&gt;Node0x6044a7db4420 -->
<g id="edge24" class="edge">
<title>Node0x6044a7daff40&#45;&gt;Node0x6044a7db4420</title>
<path fill="none" stroke="#4a6fa5" d="M506.69,-840.88C518.19,-789.31 558.43,-640.83 653,-569 677.18,-550.63 710.28,-543.23 738.11,-540.49"/>
<polygon fill="#4a6fa5" stroke="#4a6fa5" points="738.53,-542.56 744.32,-539.94 738.16,-538.37 738.53,-542.56"/>
</g>
<!-- Node0x6044a7db4d70 -->
<g id="node25" class="node">
<title>Node0x6044a7db4d70</title>
<path fill="#f0f4ff" stroke="black" d="M813.5,-1254C813.5,-1254 772.5,-1254 772.5,-1254 766.5,-1254 760.5,-1248 760.5,-1242 760.5,-1242 760.5,-1230 760.5,-1230 760.5,-1224 766.5,-1218 772.5,-1218 772.5,-1218 813.5,-1218 813.5,-1218 819.5,-1218 825.5,-1224 825.5,-1230 825.5,-1230 825.5,-1242 825.5,-1242 825.5,-1248 819.5,-1254 813.5,-1254"/>
<text text-anchor="middle" x="793" y="-1233.8" font-family="Courier,monospace" font-size="9.00">icFtoF16()</text>
</g>
<!-- Node0x6044a7daff40&#45;&gt;Node0x6044a7db4d70 -->
<g id="edge25" class="edge">
<title>Node0x6044a7daff40&#45;&gt;Node0x6044a7db4d70</title>
<path fill="none" stroke="#4a6fa5" d="M505.03,-877.24C512.55,-935.46 544.2,-1118.16 653,-1207 681.34,-1230.14 723.55,-1236.2 754.02,-1237.2"/>
<polygon fill="#4a6fa5" stroke="#4a6fa5" points="754.29,-1239.31 760.33,-1237.34 754.38,-1235.11 754.29,-1239.31"/>
</g>
<!-- Node0x6044a7db5030 -->
<g id="node26" class="node">
<title>Node0x6044a7db5030</title>
<path fill="#f0f4ff" stroke="black" d="M808,-1022C808,-1022 778,-1022 778,-1022 772,-1022 766,-1016 766,-1010 766,-1010 766,-998 766,-998 766,-992 772,-986 778,-986 778,-986 808,-986 808,-986 814,-986 820,-992 820,-998 820,-998 820,-1010 820,-1010 820,-1016 814,-1022 808,-1022"/>
<text text-anchor="middle" x="793" y="-1001.8" font-family="Courier,monospace" font-size="9.00">atof</text>
</g>
<!-- Node0x6044a7daff40&#45;&gt;Node0x6044a7db5030 -->
<g id="edge26" class="edge">
<title>Node0x6044a7daff40&#45;&gt;Node0x6044a7db5030</title>
<path fill="none" stroke="#4a6fa5" d="M520.58,-877.04C546.89,-902.92 599.19,-950.19 653,-975 687.49,-990.9 730.8,-998.16 759.83,-1001.43"/>
<polygon fill="#4a6fa5" stroke="#4a6fa5" points="759.61,-1003.52 765.8,-1002.07 760.06,-999.34 759.61,-1003.52"/>
</g>
<!-- Node0x6044a7db4680 -->
<g id="node27" class="node">
<title>Node0x6044a7db4680</title>
<path fill="#f0f4ff" stroke="black" d="M826.5,-674C826.5,-674 759.5,-674 759.5,-674 753.5,-674 747.5,-668 747.5,-662 747.5,-662 747.5,-650 747.5,-650 747.5,-644 753.5,-638 759.5,-638 759.5,-638 826.5,-638 826.5,-638 832.5,-638 838.5,-644 838.5,-650 838.5,-650 838.5,-662 838.5,-662 838.5,-668 832.5,-674 826.5,-674"/>
<text text-anchor="middle" x="793" y="-653.8" font-family="Courier,monospace" font-size="9.00">icXmlFindAttr()</text>
</g>
<!-- Node0x6044a7daff40&#45;&gt;Node0x6044a7db4680 -->
<g id="edge27" class="edge">
<title>Node0x6044a7daff40&#45;&gt;Node0x6044a7db4680</title>
<path fill="none" stroke="#4a6fa5" d="M513.08,-840.8C534.04,-804.77 586,-724.49 653,-685 679.66,-669.29 713.58,-662.02 741.25,-658.68"/>
<polygon fill="#4a6fa5" stroke="#4a6fa5" points="741.68,-660.74 747.41,-657.99 741.21,-656.57 741.68,-660.74"/>
</g>
<!-- Node0x6044a7db5270 -->
<g id="node28" class="node">
<title>Node0x6044a7db5270</title>
<path fill="#f0f4ff" stroke="black" d="M826.5,-732C826.5,-732 759.5,-732 759.5,-732 753.5,-732 747.5,-726 747.5,-720 747.5,-720 747.5,-708 747.5,-708 747.5,-702 753.5,-696 759.5,-696 759.5,-696 826.5,-696 826.5,-696 832.5,-696 838.5,-702 838.5,-708 838.5,-708 838.5,-720 838.5,-720 838.5,-726 832.5,-732 826.5,-732"/>
<text text-anchor="middle" x="793" y="-711.8" font-family="Courier,monospace" font-size="9.00">icXmlFindNode()</text>
</g>
<!-- Node0x6044a7daff40&#45;&gt;Node0x6044a7db5270 -->
<g id="edge28" class="edge">
<title>Node0x6044a7daff40&#45;&gt;Node0x6044a7db5270</title>
<path fill="none" stroke="#4a6fa5" d="M520.58,-840.96C546.89,-815.08 599.19,-767.81 653,-743 680.68,-730.24 714.05,-723.04 741.15,-719.01"/>
<polygon fill="#4a6fa5" stroke="#4a6fa5" points="741.55,-721.07 747.19,-718.14 740.95,-716.91 741.55,-721.07"/>
</g>
<!-- Node0x6044a7db4b30 -->
<g id="node29" class="node">
<title>Node0x6044a7db4b30</title>
<path fill="#f0f4ff" stroke="black" d="M808.5,-964C808.5,-964 777.5,-964 777.5,-964 771.5,-964 765.5,-958 765.5,-952 765.5,-952 765.5,-940 765.5,-940 765.5,-934 771.5,-928 777.5,-928 777.5,-928 808.5,-928 808.5,-928 814.5,-928 820.5,-934 820.5,-940 820.5,-940 820.5,-952 820.5,-952 820.5,-958 814.5,-964 808.5,-964"/>
<text text-anchor="middle" x="793" y="-943.8" font-family="Courier,monospace" font-size="9.00">icDtoF()</text>
</g>
<!-- Node0x6044a7daff40&#45;&gt;Node0x6044a7db4b30 -->
<g id="edge29" class="edge">
<title>Node0x6044a7daff40&#45;&gt;Node0x6044a7db4b30</title>
<path fill="none" stroke="#4a6fa5" d="M544.39,-877.11C574.17,-889.62 615.51,-905.92 653,-917 688.72,-927.55 730.68,-935.75 759.09,-940.7"/>
<polygon fill="#4a6fa5" stroke="#4a6fa5" points="759.02,-942.82 765.29,-941.76 759.73,-938.68 759.02,-942.82"/>
</g>
<!-- Node0x6044a7db48c0 -->
<g id="node30" class="node">
<title>Node0x6044a7db48c0</title>
<path fill="#f0f4ff" stroke="black" d="M845,-906C845,-906 741,-906 741,-906 735,-906 729,-900 729,-894 729,-894 729,-882 729,-882 729,-876 735,-870 741,-870 741,-870 845,-870 845,-870 851,-870 857,-876 857,-882 857,-882 857,-894 857,-894 857,-900 851,-906 845,-906"/>
<text text-anchor="middle" x="793" y="-885.8" font-family="Courier,monospace" font-size="9.00">icGetDeviceAttrValue()</text>
</g>
<!-- Node0x6044a7daff40&#45;&gt;Node0x6044a7db48c0 -->
<g id="edge30" class="edge">
<title>Node0x6044a7daff40&#45;&gt;Node0x6044a7db48c0</title>
<path fill="none" stroke="#4a6fa5" d="M582.35,-866.96C626.31,-871.37 680.44,-876.81 722.69,-881.04"/>
<polygon fill="#4a6fa5" stroke="#4a6fa5" points="722.65,-883.15 728.83,-881.66 723.07,-878.97 722.65,-883.15"/>
</g>
<!-- Node0x6044a7db3fa0 -->
<g id="node31" class="node">
<title>Node0x6044a7db3fa0</title>
<path fill="#f0f4ff" stroke="black" d="M840,-848C840,-848 746,-848 746,-848 740,-848 734,-842 734,-836 734,-836 734,-824 734,-824 734,-818 740,-812 746,-812 746,-812 840,-812 840,-812 846,-812 852,-818 852,-824 852,-824 852,-836 852,-836 852,-842 846,-848 840,-848"/>
<text text-anchor="middle" x="793" y="-827.8" font-family="Courier,monospace" font-size="9.00">icGetDateTimeValue()</text>
</g>
<!-- Node0x6044a7daff40&#45;&gt;Node0x6044a7db3fa0 -->
<g id="edge32" class="edge">
<title>Node0x6044a7daff40&#45;&gt;Node0x6044a7db3fa0</title>
<path fill="none" stroke="#4a6fa5" d="M582.35,-851.04C628.06,-846.45 684.77,-840.76 727.68,-836.45"/>
<polygon fill="#4a6fa5" stroke="#4a6fa5" points="728.15,-838.52 733.91,-835.83 727.73,-834.34 728.15,-838.52"/>
</g>
<!-- Node0x6044a8183a00 -->
<g id="node32" class="node">
<title>Node0x6044a8183a00</title>
<path fill="#f0f4ff" stroke="black" d="M564.5,-500C564.5,-500 439.5,-500 439.5,-500 433.5,-500 427.5,-494 427.5,-488 427.5,-488 427.5,-476 427.5,-476 427.5,-470 433.5,-464 439.5,-464 439.5,-464 564.5,-464 564.5,-464 570.5,-464 576.5,-470 576.5,-476 576.5,-476 576.5,-488 576.5,-488 576.5,-494 570.5,-500 564.5,-500"/>
<text text-anchor="middle" x="502" y="-479.8" font-family="Courier,monospace" font-size="9.00">CIccProfileXml::ParseTag()</text>
</g>
<!-- Node0x6044a8183a00&#45;&gt;Node0x6044a7db41e0 -->
<g id="edge42" class="edge">
<title>Node0x6044a8183a00&#45;&gt;Node0x6044a7db41e0</title>
<path fill="none" stroke="#4a6fa5" d="M528.28,-500.07C557.11,-519.86 606.33,-551.13 653,-569 681.36,-579.86 714.61,-586.98 741.48,-591.45"/>
<polygon fill="#4a6fa5" stroke="#4a6fa5" points="741.2,-593.53 747.46,-592.42 741.87,-589.39 741.2,-593.53"/>
</g>
<!-- Node0x6044a8183a00&#45;&gt;Node0x6044a8175a10 -->
<g id="edge47" class="edge">
<title>Node0x6044a8183a00&#45;&gt;Node0x6044a8175a10</title>
<path fill="none" stroke="#4a6fa5" d="M508.9,-500.26C525.24,-551.6 571.46,-701.85 595,-830 617.24,-951.09 570.44,-1289.66 653,-1381 671.67,-1401.66 700.93,-1409.73 727.79,-1412.3"/>
<polygon fill="#4a6fa5" stroke="#4a6fa5" points="727.69,-1414.4 733.84,-1412.8 728.03,-1410.22 727.69,-1414.4"/>
</g>
<!-- Node0x6044a8183a00&#45;&gt;Node0x6044a7e60da0 -->
<g id="edge39" class="edge">
<title>Node0x6044a8183a00&#45;&gt;Node0x6044a7e60da0</title>
<path fill="none" stroke="#4a6fa5" d="M508.81,-500.28C524.95,-551.66 570.68,-701.99 595,-830 615.59,-938.37 578.53,-1241.62 653,-1323 671.18,-1342.87 699.16,-1351.06 725.26,-1353.92"/>
<polygon fill="#4a6fa5" stroke="#4a6fa5" points="725.32,-1356.04 731.49,-1354.51 725.72,-1351.86 725.32,-1356.04"/>
</g>
<!-- Node0x6044a8183a00&#45;&gt;Node0x6044a817dfe0 -->
<g id="edge44" class="edge">
<title>Node0x6044a8183a00&#45;&gt;Node0x6044a817dfe0</title>
<path fill="none" stroke="#4a6fa5" d="M508.4,-500.36C523.46,-551.96 566.67,-702.82 595,-830 626.33,-970.66 552.43,-1045.8 653,-1149 671.08,-1167.55 697.73,-1175.76 722.88,-1178.99"/>
<polygon fill="#4a6fa5" stroke="#4a6fa5" points="722.69,-1181.08 728.89,-1179.67 723.17,-1176.91 722.69,-1181.08"/>
</g>
<!-- Node0x6044a8183a00&#45;&gt;Node0x6044a7d9e460 -->
<g id="edge35" class="edge">
<title>Node0x6044a8183a00&#45;&gt;Node0x6044a7d9e460</title>
<path fill="none" stroke="#4a6fa5" d="M507.76,-500.05C521.4,-548.04 565.42,-679.49 653,-743 684.3,-765.7 729.42,-771.47 759.68,-772.53"/>
<polygon fill="#4a6fa5" stroke="#4a6fa5" points="759.85,-774.64 765.9,-772.69 759.96,-770.44 759.85,-774.64"/>
</g>
<!-- Node0x6044a8183a00&#45;&gt;Node0x6044a7db4420 -->
<g id="edge43" class="edge">
<title>Node0x6044a8183a00&#45;&gt;Node0x6044a7db4420</title>
<path fill="none" stroke="#4a6fa5" d="M576.67,-496.79C627.09,-506.9 692.79,-520.09 738.29,-529.22"/>
<polygon fill="#4a6fa5" stroke="#4a6fa5" points="738,-531.3 744.29,-530.43 738.82,-527.19 738,-531.3"/>
</g>
<!-- Node0x6044a8183a00&#45;&gt;Node0x6044a7db4680 -->
<g id="edge45" class="edge">
<title>Node0x6044a8183a00&#45;&gt;Node0x6044a7db4680</title>
<path fill="none" stroke="#4a6fa5" d="M516.01,-500.01C539.58,-531.2 592.51,-594.96 653,-627 680.14,-641.37 713.78,-648.63 741.17,-652.28"/>
<polygon fill="#4a6fa5" stroke="#4a6fa5" points="741.06,-654.39 747.27,-653.05 741.58,-650.22 741.06,-654.39"/>
</g>
<!-- Node0x6044a7db78b0 -->
<g id="node33" class="node">
<title>Node0x6044a7db78b0</title>
<path fill="#f0f4ff" stroke="black" d="M884.5,-268C884.5,-268 701.5,-268 701.5,-268 695.5,-268 689.5,-262 689.5,-256 689.5,-256 689.5,-244 689.5,-244 689.5,-238 695.5,-232 701.5,-232 701.5,-232 884.5,-232 884.5,-232 890.5,-232 896.5,-238 896.5,-244 896.5,-244 896.5,-256 896.5,-256 896.5,-262 890.5,-268 884.5,-268"/>
<text text-anchor="middle" x="793" y="-247.8" font-family="Courier,monospace" font-size="9.00">CIccArrayNamedColor::SetColorSpaces()</text>
</g>
<!-- Node0x6044a8183a00&#45;&gt;Node0x6044a7db78b0 -->
<g id="edge33" class="edge">
<title>Node0x6044a8183a00&#45;&gt;Node0x6044a7db78b0</title>
<path fill="none" stroke="#4a6fa5" d="M510.8,-463.9C529.17,-423.59 579.22,-326.3 653,-279 662.28,-273.05 672.56,-268.29 683.21,-264.5"/>
<polygon fill="#4a6fa5" stroke="#4a6fa5" points="684.15,-266.4 689.16,-262.48 682.8,-262.42 684.15,-266.4"/>
</g>
<!-- Node0x6044a8183f20 -->
<g id="node34" class="node">
<title>Node0x6044a8183f20</title>
<path fill="#f0f4ff" stroke="black" d="M845,-210C845,-210 741,-210 741,-210 735,-210 729,-204 729,-198 729,-198 729,-186 729,-186 729,-180 735,-174 741,-174 741,-174 845,-174 845,-174 851,-174 857,-180 857,-186 857,-186 857,-198 857,-198 857,-204 851,-210 845,-210"/>
<text text-anchor="middle" x="793" y="-189.8" font-family="Courier,monospace" font-size="9.00">icGetTagArrayHandler()</text>
</g>
<!-- Node0x6044a8183a00&#45;&gt;Node0x6044a8183f20 -->
<g id="edge34" class="edge">
<title>Node0x6044a8183a00&#45;&gt;Node0x6044a8183f20</title>
<path fill="none" stroke="#4a6fa5" d="M507.76,-463.95C521.4,-415.96 565.42,-284.51 653,-221 673.05,-206.46 698.78,-198.86 722.64,-195"/>
<polygon fill="#4a6fa5" stroke="#4a6fa5" points="723.03,-197.07 728.66,-194.1 722.41,-192.91 723.03,-197.07"/>
</g>
<!-- Node0x6044a7db5430 -->
<g id="node35" class="node">
<title>Node0x6044a7db5430</title>
<path fill="#f0f4ff" stroke="black" d="M832,-152C832,-152 754,-152 754,-152 748,-152 742,-146 742,-140 742,-140 742,-128 742,-128 742,-122 748,-116 754,-116 754,-116 832,-116 832,-116 838,-116 844,-122 844,-128 844,-128 844,-140 844,-140 844,-146 838,-152 832,-152"/>
<text text-anchor="middle" x="793" y="-131.8" font-family="Courier,monospace" font-size="9.00">icGetTagNameSig()</text>
</g>
<!-- Node0x6044a8183a00&#45;&gt;Node0x6044a7db5430 -->
<g id="edge36" class="edge">
<title>Node0x6044a8183a00&#45;&gt;Node0x6044a7db5430</title>
<path fill="none" stroke="#4a6fa5" d="M505.81,-463.71C515.3,-408.63 551.42,-243.22 653,-163 676.2,-144.68 708.17,-137.16 735.6,-134.34"/>
<polygon fill="#4a6fa5" stroke="#4a6fa5" points="735.96,-136.42 741.74,-133.78 735.57,-132.23 735.96,-136.42"/>
</g>
<!-- Node0x6044a7db7650 -->
<g id="node36" class="node">
<title>Node0x6044a7db7650</title>
<path fill="#f0f4ff" stroke="black" d="M829.5,-94C829.5,-94 756.5,-94 756.5,-94 750.5,-94 744.5,-88 744.5,-82 744.5,-82 744.5,-70 744.5,-70 744.5,-64 750.5,-58 756.5,-58 756.5,-58 829.5,-58 829.5,-58 835.5,-58 841.5,-64 841.5,-70 841.5,-70 841.5,-82 841.5,-82 841.5,-88 835.5,-94 829.5,-94"/>
<text text-anchor="middle" x="793" y="-73.8" font-family="Courier,monospace" font-size="9.00">icXmlAttrValue()</text>
</g>
<!-- Node0x6044a8183a00&#45;&gt;Node0x6044a7db7650 -->
<g id="edge37" class="edge">
<title>Node0x6044a8183a00&#45;&gt;Node0x6044a7db7650</title>
<path fill="none" stroke="#4a6fa5" d="M504.39,-463.59C510.06,-402.12 537.06,-202.44 653,-105 676.42,-85.32 709.81,-77.9 737.99,-75.49"/>
<polygon fill="#4a6fa5" stroke="#4a6fa5" points="738.45,-77.56 744.28,-75.02 738.14,-73.37 738.45,-77.56"/>
</g>
<!-- Node0x6044a7db7410 -->
<g id="node37" class="node">
<title>Node0x6044a7db7410</title>
<path fill="#f0f4ff" stroke="black" d="M821.5,-36C821.5,-36 764.5,-36 764.5,-36 758.5,-36 752.5,-30 752.5,-24 752.5,-24 752.5,-12 752.5,-12 752.5,-6 758.5,0 764.5,0 764.5,0 821.5,0 821.5,0 827.5,0 833.5,-6 833.5,-12 833.5,-12 833.5,-24 833.5,-24 833.5,-30 827.5,-36 821.5,-36"/>
<text text-anchor="middle" x="793" y="-15.8" font-family="Courier,monospace" font-size="9.00">icGetSigVal()</text>
</g>
<!-- Node0x6044a8183a00&#45;&gt;Node0x6044a7db7410 -->
<g id="edge38" class="edge">
<title>Node0x6044a8183a00&#45;&gt;Node0x6044a7db7410</title>
<path fill="none" stroke="#4a6fa5" d="M503.3,-463.7C505.43,-396.62 522.33,-162.12 653,-47 678.3,-24.71 716.24,-17.96 746.1,-16.51"/>
<polygon fill="#4a6fa5" stroke="#4a6fa5" points="746.42,-18.6 752.34,-16.27 746.26,-14.4 746.42,-18.6"/>
</g>
<!-- Node0x6044a7db6cd0 -->
<g id="node38" class="node">
<title>Node0x6044a7db6cd0</title>
<path fill="#f0f4ff" stroke="black" d="M863.5,-500C863.5,-500 722.5,-500 722.5,-500 716.5,-500 710.5,-494 710.5,-488 710.5,-488 710.5,-476 710.5,-476 710.5,-470 716.5,-464 722.5,-464 722.5,-464 863.5,-464 863.5,-464 869.5,-464 875.5,-470 875.5,-476 875.5,-476 875.5,-488 875.5,-488 875.5,-494 869.5,-500 863.5,-500"/>
<text text-anchor="middle" x="793" y="-479.8" font-family="Courier,monospace" font-size="9.00">CIccInfo::GetTagTypeSigName()</text>
</g>
<!-- Node0x6044a8183a00&#45;&gt;Node0x6044a7db6cd0 -->
<g id="edge40" class="edge">
<title>Node0x6044a8183a00&#45;&gt;Node0x6044a7db6cd0</title>
<path fill="none" stroke="#4a6fa5" d="M576.67,-482C615.49,-482 663.36,-482 704.1,-482"/>
<polygon fill="#4a6fa5" stroke="#4a6fa5" points="704.31,-484.1 710.31,-482 704.31,-479.9 704.31,-484.1"/>
</g>
<!-- Node0x6044a7db71d0 -->
<g id="node39" class="node">
<title>Node0x6044a7db71d0</title>
<path fill="#f0f4ff" stroke="black" d="M850.5,-442C850.5,-442 735.5,-442 735.5,-442 729.5,-442 723.5,-436 723.5,-430 723.5,-430 723.5,-418 723.5,-418 723.5,-412 729.5,-406 735.5,-406 735.5,-406 850.5,-406 850.5,-406 856.5,-406 862.5,-412 862.5,-418 862.5,-418 862.5,-430 862.5,-430 862.5,-436 856.5,-442 850.5,-442"/>
<text text-anchor="middle" x="793" y="-421.8" font-family="Courier,monospace" font-size="9.00">CIccProfile::AttachTag()</text>
</g>
<!-- Node0x6044a8183a00&#45;&gt;Node0x6044a7db71d0 -->
<g id="edge41" class="edge">
<title>Node0x6044a8183a00&#45;&gt;Node0x6044a7db71d0</title>
<path fill="none" stroke="#4a6fa5" d="M576.67,-467.21C619.8,-458.56 674.11,-447.66 717.39,-438.97"/>
<polygon fill="#4a6fa5" stroke="#4a6fa5" points="717.95,-441 723.42,-437.76 717.13,-436.88 717.95,-441"/>
</g>
<!-- Node0x6044a7db7a70 -->
<g id="node40" class="node">
<title>Node0x6044a7db7a70</title>
<path fill="#f0f4ff" stroke="black" d="M832,-384C832,-384 754,-384 754,-384 748,-384 742,-378 742,-372 742,-372 742,-360 742,-360 742,-354 748,-348 754,-348 754,-348 832,-348 832,-348 838,-348 844,-354 844,-360 844,-360 844,-372 844,-372 844,-378 838,-384 832,-384"/>
<text text-anchor="middle" x="793" y="-363.8" font-family="Courier,monospace" font-size="9.00">CIccTag::Create()</text>
</g>
<!-- Node0x6044a8183a00&#45;&gt;Node0x6044a7db7a70 -->
<g id="edge46" class="edge">
<title>Node0x6044a8183a00&#45;&gt;Node0x6044a7db7a70</title>
<path fill="none" stroke="#4a6fa5" d="M528.28,-463.93C557.11,-444.14 606.33,-412.87 653,-395 679.32,-384.92 709.86,-378.06 735.59,-373.56"/>
<polygon fill="#4a6fa5" stroke="#4a6fa5" points="736.12,-375.6 741.69,-372.52 735.42,-371.45 736.12,-375.6"/>
</g>
<!-- Node0x6044a7db6f90 -->
<g id="node41" class="node">
<title>Node0x6044a7db6f90</title>
<path fill="#f0f4ff" stroke="black" d="M842.5,-326C842.5,-326 743.5,-326 743.5,-326 737.5,-326 731.5,-320 731.5,-314 731.5,-314 731.5,-302 731.5,-302 731.5,-296 737.5,-290 743.5,-290 743.5,-290 842.5,-290 842.5,-290 848.5,-290 854.5,-296 854.5,-302 854.5,-302 854.5,-314 854.5,-314 854.5,-320 848.5,-326 842.5,-326"/>
<text text-anchor="middle" x="793" y="-305.8" font-family="Courier,monospace" font-size="9.00">icGetTypeNameTagSig()</text>
</g>
<!-- Node0x6044a8183a00&#45;&gt;Node0x6044a7db6f90 -->
<g id="edge48" class="edge">
<title>Node0x6044a8183a00&#45;&gt;Node0x6044a7db6f90</title>
<path fill="none" stroke="#4a6fa5" d="M516.01,-463.99C539.58,-432.8 592.51,-369.04 653,-337 675.09,-325.3 701.49,-318.32 725.32,-314.15"/>
<polygon fill="#4a6fa5" stroke="#4a6fa5" points="725.75,-316.21 731.32,-313.15 725.06,-312.07 725.75,-316.21"/>
</g>
<!-- Node0x6044a7db8630 -->
<g id="node42" class="node">
<title>Node0x6044a7db8630</title>
<path fill="#f0f4ff" stroke="black" d="M339,-732C339,-732 214,-732 214,-732 208,-732 202,-726 202,-720 202,-720 202,-708 202,-708 202,-702 208,-696 214,-696 214,-696 339,-696 339,-696 345,-696 351,-702 351,-708 351,-708 351,-720 351,-720 351,-726 345,-732 339,-732"/>
<text text-anchor="middle" x="276.5" y="-711.8" font-family="Courier,monospace" font-size="9.00">CIccProfileXml::ParseXml()</text>
</g>
<!-- Node0x6044a7db8630&#45;&gt;Node0x6044a7daff40 -->
<g id="edge50" class="edge">
<title>Node0x6044a7db8630&#45;&gt;Node0x6044a7daff40</title>
<path fill="none" stroke="#4a6fa5" d="M305.35,-732.07C346.62,-758.84 423.86,-808.96 467.94,-837.55"/>
<polygon fill="#4a6fa5" stroke="#4a6fa5" points="466.97,-839.43 473.15,-840.93 469.26,-835.9 466.97,-839.43"/>
</g>
<!-- Node0x6044a7db8630&#45;&gt;Node0x6044a7db5270 -->
<g id="edge49" class="edge">
<title>Node0x6044a7db8630&#45;&gt;Node0x6044a7db5270</title>
<path fill="none" stroke="#4a6fa5" d="M351.22,-714C457.15,-714 649.71,-714 741.16,-714"/>
<polygon fill="#4a6fa5" stroke="#4a6fa5" points="741.3,-716.1 747.3,-714 741.3,-711.9 741.3,-716.1"/>
</g>
<!-- Node0x6044a7db8630&#45;&gt;Node0x6044a8183a00 -->
<g id="edge51" class="edge">
<title>Node0x6044a7db8630&#45;&gt;Node0x6044a8183a00</title>
<path fill="none" stroke="#4a6fa5" d="M295.04,-695.8C335.43,-653.87 434.94,-550.57 479.19,-504.64"/>
<polygon fill="#4a6fa5" stroke="#4a6fa5" points="480.89,-505.9 483.54,-500.12 477.87,-502.98 480.89,-505.9"/>
</g>
<!-- Node0x6044a7db8130 -->
<g id="node43" class="node">
<title>Node0x6044a7db8130</title>
<path fill="#f0f4ff" stroke="black" d="M132,-732C132,-732 12,-732 12,-732 6,-732 0,-726 0,-720 0,-720 0,-708 0,-708 0,-702 6,-696 12,-696 12,-696 132,-696 132,-696 138,-696 144,-702 144,-708 144,-708 144,-720 144,-720 144,-726 138,-732 132,-732"/>
<text text-anchor="middle" x="72" y="-711.8" font-family="Courier,monospace" font-size="9.00">CIccProfileXml::LoadXml()</text>
</g>
<!-- Node0x6044a7db8130&#45;&gt;Node0x6044a7db8630 -->
<g id="edge52" class="edge">
<title>Node0x6044a7db8130&#45;&gt;Node0x6044a7db8630</title>
<path fill="none" stroke="#4a6fa5" d="M144.11,-714C160.75,-714 178.6,-714 195.6,-714"/>
<polygon fill="#4a6fa5" stroke="#4a6fa5" points="195.82,-716.1 201.82,-714 195.82,-711.9 195.82,-716.1"/>
</g>
<!-- Node0x6044a817f980 -->
<g id="node44" class="node">
<title>Node0x6044a817f980</title>
<path fill="#f0f4ff" stroke="black" d="M87.5,-796C87.5,-796 56.5,-796 56.5,-796 50.5,-796 44.5,-790 44.5,-784 44.5,-784 44.5,-772 44.5,-772 44.5,-766 50.5,-760 56.5,-760 56.5,-760 87.5,-760 87.5,-760 93.5,-760 99.5,-766 99.5,-772 99.5,-772 99.5,-784 99.5,-784 99.5,-790 93.5,-796 87.5,-796"/>
<text text-anchor="middle" x="72" y="-775.8" font-family="Courier,monospace" font-size="9.00">length()</text>
</g>
<!-- Node0x6044a818dcd0 -->
<g id="node45" class="node">
<title>Node0x6044a818dcd0</title>
<path fill="#f0f4ff" stroke="black" d="M108.5,-1028C108.5,-1028 35.5,-1028 35.5,-1028 29.5,-1028 23.5,-1022 23.5,-1016 23.5,-1016 23.5,-1004 23.5,-1004 23.5,-998 29.5,-992 35.5,-992 35.5,-992 108.5,-992 108.5,-992 114.5,-992 120.5,-998 120.5,-1004 120.5,-1004 120.5,-1016 120.5,-1016 120.5,-1022 114.5,-1028 108.5,-1028"/>
<text text-anchor="middle" x="72" y="-1007.8" font-family="Courier,monospace" font-size="9.00">_Guard::_Guard()</text>
</g>
<!-- Node0x6044a818ea90 -->
<g id="node46" class="node">
<title>Node0x6044a818ea90</title>
<path fill="#f0f4ff" stroke="black" d="M111,-1173C111,-1173 33,-1173 33,-1173 27,-1173 21,-1167 21,-1161 21,-1161 21,-1149 21,-1149 21,-1143 27,-1137 33,-1137 33,-1137 111,-1137 111,-1137 117,-1137 123,-1143 123,-1149 123,-1149 123,-1161 123,-1161 123,-1167 117,-1173 111,-1173"/>
<text text-anchor="middle" x="72" y="-1152.8" font-family="Courier,monospace" font-size="9.00">_Guard::~_Guard()</text>
</g>
<!-- Node0x6044a7dac1c0 -->
<g id="node47" class="node">
<title>Node0x6044a7dac1c0</title>
<path fill="#f0f4ff" stroke="black" d="M105.5,-1274C105.5,-1274 38.5,-1274 38.5,-1274 32.5,-1274 26.5,-1268 26.5,-1262 26.5,-1262 26.5,-1250 26.5,-1250 26.5,-1244 32.5,-1238 38.5,-1238 38.5,-1238 105.5,-1238 105.5,-1238 111.5,-1238 117.5,-1244 117.5,-1250 117.5,-1250 117.5,-1262 117.5,-1262 117.5,-1268 111.5,-1274 105.5,-1274"/>
<text text-anchor="middle" x="72" y="-1253.8" font-family="Courier,monospace" font-size="9.00">get_allocator()</text>
</g>
<!-- Node0x6044a818e1d0 -->
<g id="node48" class="node">
<title>Node0x6044a818e1d0</title>
<path fill="#f0f4ff" stroke="black" d="M90,-1354C90,-1354 54,-1354 54,-1354 48,-1354 42,-1348 42,-1342 42,-1342 42,-1330 42,-1330 42,-1324 48,-1318 54,-1318 54,-1318 90,-1318 90,-1318 96,-1318 102,-1324 102,-1330 102,-1330 102,-1342 102,-1342 102,-1348 96,-1354 90,-1354"/>
<text text-anchor="middle" x="72" y="-1333.8" font-family="Courier,monospace" font-size="9.00">reserve()</text>
</g>
<!-- Node0x6044a818cef0 -->
<g id="node49" class="node">
<title>Node0x6044a818cef0</title>
<path fill="#f0f4ff" stroke="black" d="M87.5,-1423C87.5,-1423 56.5,-1423 56.5,-1423 50.5,-1423 44.5,-1417 44.5,-1411 44.5,-1411 44.5,-1399 44.5,-1399 44.5,-1393 50.5,-1387 56.5,-1387 56.5,-1387 87.5,-1387 87.5,-1387 93.5,-1387 99.5,-1393 99.5,-1399 99.5,-1399 99.5,-1411 99.5,-1411 99.5,-1417 93.5,-1423 87.5,-1423"/>
<text text-anchor="middle" x="72" y="-1402.8" font-family="Courier,monospace" font-size="9.00">append()</text>
</g>
<!-- Node0x6044a7daf8f0 -->
<g id="node50" class="node">
<title>Node0x6044a7daf8f0</title>
<path fill="#f0f4ff" stroke="black" d="M100.5,-1486C100.5,-1486 43.5,-1486 43.5,-1486 37.5,-1486 31.5,-1480 31.5,-1474 31.5,-1474 31.5,-1462 31.5,-1462 31.5,-1456 37.5,-1450 43.5,-1450 43.5,-1450 100.5,-1450 100.5,-1450 106.5,-1450 112.5,-1456 112.5,-1462 112.5,-1462 112.5,-1474 112.5,-1474 112.5,-1480 106.5,-1486 100.5,-1486"/>
<text text-anchor="middle" x="72" y="-1465.8" font-family="Courier,monospace" font-size="9.00">lower_bound()</text>
</g>
<!-- Node0x6044a8199150 -->
<g id="node51" class="node">
<title>Node0x6044a8199150</title>
<path fill="#f0f4ff" stroke="black" d="M305,-1486C305,-1486 248,-1486 248,-1486 242,-1486 236,-1480 236,-1474 236,-1474 236,-1462 236,-1462 236,-1456 242,-1450 248,-1450 248,-1450 305,-1450 305,-1450 311,-1450 317,-1456 317,-1462 317,-1462 317,-1474 317,-1474 317,-1480 311,-1486 305,-1486"/>
<text text-anchor="middle" x="276.5" y="-1465.8" font-family="Courier,monospace" font-size="9.00">lower_bound()</text>
</g>
<!-- Node0x6044a7daf8f0&#45;&gt;Node0x6044a8199150 -->
<g id="edge53" class="edge">
<title>Node0x6044a7daf8f0&#45;&gt;Node0x6044a8199150</title>
<path fill="none" stroke="#4a6fa5" d="M112.52,-1468C146.01,-1468 194.05,-1468 229.3,-1468"/>
<polygon fill="#4a6fa5" stroke="#4a6fa5" points="229.73,-1470.1 235.73,-1468 229.73,-1465.9 229.73,-1470.1"/>
</g>
<!-- Node0x6044a81816d0 -->
<g id="node52" class="node">
<title>Node0x6044a81816d0</title>
<path fill="#f0f4ff" stroke="black" d="M92.5,-1544C92.5,-1544 51.5,-1544 51.5,-1544 45.5,-1544 39.5,-1538 39.5,-1532 39.5,-1532 39.5,-1520 39.5,-1520 39.5,-1514 45.5,-1508 51.5,-1508 51.5,-1508 92.5,-1508 92.5,-1508 98.5,-1508 104.5,-1514 104.5,-1520 104.5,-1520 104.5,-1532 104.5,-1532 104.5,-1538 98.5,-1544 92.5,-1544"/>
<text text-anchor="middle" x="72" y="-1523.8" font-family="Courier,monospace" font-size="9.00">key_comp()</text>
</g>
<!-- Node0x6044a8198890 -->
<g id="node53" class="node">
<title>Node0x6044a8198890</title>
<path fill="#f0f4ff" stroke="black" d="M297,-1544C297,-1544 256,-1544 256,-1544 250,-1544 244,-1538 244,-1532 244,-1532 244,-1520 244,-1520 244,-1514 250,-1508 256,-1508 256,-1508 297,-1508 297,-1508 303,-1508 309,-1514 309,-1520 309,-1520 309,-1532 309,-1532 309,-1538 303,-1544 297,-1544"/>
<text text-anchor="middle" x="276.5" y="-1523.8" font-family="Courier,monospace" font-size="9.00">key_comp()</text>
</g>
<!-- Node0x6044a81816d0&#45;&gt;Node0x6044a8198890 -->
<g id="edge54" class="edge">
<title>Node0x6044a81816d0&#45;&gt;Node0x6044a8198890</title>
<path fill="none" stroke="#4a6fa5" d="M104.64,-1526C140.5,-1526 198.93,-1526 237.3,-1526"/>
<polygon fill="#4a6fa5" stroke="#4a6fa5" points="237.75,-1528.1 243.75,-1526 237.75,-1523.9 237.75,-1528.1"/>
</g>
<!-- Node0x6044a7db8870 -->
<g id="node54" class="node">
<title>Node0x6044a7db8870</title>
<path fill="#f0f4ff" stroke="black" d="M90,-1602C90,-1602 54,-1602 54,-1602 48,-1602 42,-1596 42,-1590 42,-1590 42,-1578 42,-1578 42,-1572 48,-1566 54,-1566 54,-1566 90,-1566 90,-1566 96,-1566 102,-1572 102,-1578 102,-1578 102,-1590 102,-1590 102,-1596 96,-1602 90,-1602"/>
<text text-anchor="middle" x="72" y="-1581.8" font-family="Courier,monospace" font-size="9.00">compare()</text>
</g>
</g>
</svg>
