<?xml version="1.0" encoding="UTF-8" standalone="no"?>
<!DOCTYPE svg PUBLIC "-//W3C//DTD SVG 1.1//EN"
 "http://www.w3.org/Graphics/SVG/1.1/DTD/svg11.dtd">
<!-- Generated by graphviz version 2.43.0 (0)
 -->
<!-- Title: Call graph: /home/h02332/po/research/call&#45;graph/iccdev/tools/iccFromCube.ll Pages: 1 -->
<svg width="4001pt" height="14400pt"
 viewBox="0.00 0.00 4001.11 14400.00" xmlns="http://www.w3.org/2000/svg" xmlns:xlink="http://www.w3.org/1999/xlink">
<g id="graph0" class="graph" transform="scale(1.82 1.82) rotate(0) translate(36 7871)">
<title>Call graph: /home/h02332/po/research/call&#45;graph/iccdev/tools/iccFromCube.ll</title>
<polygon fill="white" stroke="transparent" points="-36,36 -36,-7871 2161,-7871 2161,36 -36,36"/>
<!-- Node0x5c540373a5e0 -->
<g id="node1" class="node">
<title>Node0x5c540373a5e0</title>
<path fill="#f0f4ff" stroke="black" d="M80,-1206C80,-1206 50,-1206 50,-1206 44,-1206 38,-1200 38,-1194 38,-1194 38,-1182 38,-1182 38,-1176 44,-1170 50,-1170 50,-1170 80,-1170 80,-1170 86,-1170 92,-1176 92,-1182 92,-1182 92,-1194 92,-1194 92,-1200 86,-1206 80,-1206"/>
<text text-anchor="middle" x="65" y="-1185.8" font-family="Courier,monospace" font-size="9.00">{main}</text>
</g>
<!-- Node0x5c540372f5a0 -->
<g id="node2" class="node">
<title>Node0x5c540372f5a0</title>
<path fill="#f0f4ff" stroke="black" d="M908,-2768C908,-2768 875,-2768 875,-2768 869,-2768 863,-2762 863,-2756 863,-2756 863,-2744 863,-2744 863,-2738 869,-2732 875,-2732 875,-2732 908,-2732 908,-2732 914,-2732 920,-2738 920,-2744 920,-2744 920,-2756 920,-2756 920,-2762 914,-2768 908,-2768"/>
<text text-anchor="middle" x="891.5" y="-2747.8" font-family="Courier,monospace" font-size="9.00">{printf}</text>
</g>
<!-- Node0x5c540373a5e0&#45;&gt;Node0x5c540372f5a0 -->
<g id="edge1" class="edge">
<title>Node0x5c540373a5e0&#45;&gt;Node0x5c540372f5a0</title>
<path fill="none" stroke="#4a6fa5" d="M66.25,-1206.16C68.38,-1339.95 86.75,-2173.76 216,-2383 350.55,-2600.82 460.44,-2600.37 695,-2703 748.59,-2726.45 815.79,-2739.34 855.82,-2745.44"/>
<polygon fill="#4a6fa5" stroke="#4a6fa5" points="855.68,-2747.9 862.97,-2746.51 856.4,-2743.05 855.68,-2747.9"/>
</g>
<!-- Node0x5c5403742550 -->
<g id="node3" class="node">
<title>Node0x5c5403742550</title>
<path fill="#f0f4ff" stroke="black" d="M468,-3460C468,-3460 357,-3460 357,-3460 351,-3460 345,-3454 345,-3448 345,-3448 345,-3436 345,-3436 345,-3430 351,-3424 357,-3424 357,-3424 468,-3424 468,-3424 474,-3424 480,-3430 480,-3436 480,-3436 480,-3448 480,-3448 480,-3454 474,-3460 468,-3460"/>
<text text-anchor="middle" x="412.5" y="-3439.8" font-family="Courier,monospace" font-size="9.00">{CubeFile::~CubeFile()}</text>
</g>
<!-- Node0x5c540373a5e0&#45;&gt;Node0x5c5403742550 -->
<g id="edge2" class="edge">
<title>Node0x5c540373a5e0&#45;&gt;Node0x5c5403742550</title>
<path fill="none" stroke="#4a6fa5" d="M65.92,-1206.18C65.23,-1407.96 63.26,-3225.4 216,-3401 245.58,-3435.01 295.52,-3445.05 337.52,-3446.7"/>
<polygon fill="#4a6fa5" stroke="#4a6fa5" points="337.66,-3449.16 344.73,-3446.91 337.8,-3444.26 337.66,-3449.16"/>
</g>
<!-- Node0x5c540372fbf0 -->
<g id="node4" class="node">
<title>Node0x5c540372fbf0</title>
<path fill="#f0f4ff" stroke="black" d="M944.5,-2892C944.5,-2892 838.5,-2892 838.5,-2892 832.5,-2892 826.5,-2886 826.5,-2880 826.5,-2880 826.5,-2868 826.5,-2868 826.5,-2862 832.5,-2856 838.5,-2856 838.5,-2856 944.5,-2856 944.5,-2856 950.5,-2856 956.5,-2862 956.5,-2868 956.5,-2868 956.5,-2880 956.5,-2880 956.5,-2886 950.5,-2892 944.5,-2892"/>
<text text-anchor="middle" x="891.5" y="-2871.8" font-family="Courier,monospace" font-size="9.00">{CubeFile::CubeFile()}</text>
</g>
<!-- Node0x5c540373a5e0&#45;&gt;Node0x5c540372fbf0 -->
<g id="edge3" class="edge">
<title>Node0x5c540373a5e0&#45;&gt;Node0x5c540372fbf0</title>
<path fill="none" stroke="#4a6fa5" d="M66.97,-1206.44C75.22,-1360.51 135.24,-2430.62 216,-2546 361.84,-2754.37 677.8,-2835.72 819.37,-2862.57"/>
<polygon fill="#4a6fa5" stroke="#4a6fa5" points="819.06,-2865.01 826.39,-2863.89 819.96,-2860.19 819.06,-2865.01"/>
</g>
<!-- Node0x5c540363a040 -->
<g id="node5" class="node">
<title>Node0x5c540363a040</title>
<path fill="#f0f4ff" stroke="black" d="M473.5,-1965C473.5,-1965 351.5,-1965 351.5,-1965 345.5,-1965 339.5,-1959 339.5,-1953 339.5,-1953 339.5,-1941 339.5,-1941 339.5,-1935 345.5,-1929 351.5,-1929 351.5,-1929 473.5,-1929 473.5,-1929 479.5,-1929 485.5,-1935 485.5,-1941 485.5,-1941 485.5,-1953 485.5,-1953 485.5,-1959 479.5,-1965 473.5,-1965"/>
<text text-anchor="middle" x="412.5" y="-1944.8" font-family="Courier,monospace" font-size="9.00">{CubeFile::parseHeader()}</text>
</g>
<!-- Node0x5c540373a5e0&#45;&gt;Node0x5c540363a040 -->
<g id="edge4" class="edge">
<title>Node0x5c540373a5e0&#45;&gt;Node0x5c540363a040</title>
<path fill="none" stroke="#4a6fa5" d="M66.51,-1206.21C69.47,-1282.95 89.01,-1585.16 216,-1786 255.5,-1848.47 327.41,-1898.32 372.15,-1925.18"/>
<polygon fill="#4a6fa5" stroke="#4a6fa5" points="371,-1927.35 378.27,-1928.82 373.51,-1923.14 371,-1927.35"/>
</g>
<!-- Node0x5c54036126c0 -->
<g id="node6" class="node">
<title>Node0x5c54036126c0</title>
<path fill="#f0f4ff" stroke="black" d="M484,-1661C484,-1661 341,-1661 341,-1661 335,-1661 329,-1655 329,-1649 329,-1649 329,-1637 329,-1637 329,-1631 335,-1625 341,-1625 341,-1625 484,-1625 484,-1625 490,-1625 496,-1631 496,-1637 496,-1637 496,-1649 496,-1649 496,-1655 490,-1661 484,-1661"/>
<text text-anchor="middle" x="412.5" y="-1640.8" font-family="Courier,monospace" font-size="9.00">{CIccProfile::~CIccProfile()}</text>
</g>
<!-- Node0x5c540373a5e0&#45;&gt;Node0x5c54036126c0 -->
<g id="edge5" class="edge">
<title>Node0x5c540373a5e0&#45;&gt;Node0x5c54036126c0</title>
<path fill="none" stroke="#4a6fa5" d="M66.33,-1206.45C68.61,-1272.98 85.96,-1502.33 216,-1611 245.07,-1635.29 285.32,-1644.61 321.75,-1647.33"/>
<polygon fill="#4a6fa5" stroke="#4a6fa5" points="321.84,-1649.79 328.98,-1647.79 322.15,-1644.9 321.84,-1649.79"/>
</g>
<!-- Node0x5c54036f25b0 -->
<g id="node7" class="node">
<title>Node0x5c54036f25b0</title>
<path fill="#f0f4ff" stroke="black" d="M468,-1596C468,-1596 357,-1596 357,-1596 351,-1596 345,-1590 345,-1584 345,-1584 345,-1572 345,-1572 345,-1566 351,-1560 357,-1560 357,-1560 468,-1560 468,-1560 474,-1560 480,-1566 480,-1572 480,-1572 480,-1584 480,-1584 480,-1590 474,-1596 468,-1596"/>
<text text-anchor="middle" x="412.5" y="-1575.8" font-family="Courier,monospace" font-size="9.00">{CubeFile::sizeLut3D()}</text>
</g>
<!-- Node0x5c540373a5e0&#45;&gt;Node0x5c54036f25b0 -->
<g id="edge6" class="edge">
<title>Node0x5c540373a5e0&#45;&gt;Node0x5c54036f25b0</title>
<path fill="none" stroke="#4a6fa5" d="M67.6,-1206.11C73.9,-1265.63 102.53,-1456.45 216,-1546 249.93,-1572.78 297.66,-1580.98 337.47,-1582.38"/>
<polygon fill="#4a6fa5" stroke="#4a6fa5" points="337.74,-1584.84 344.8,-1582.57 337.87,-1579.94 337.74,-1584.84"/>
</g>
<!-- Node0x5c5403611b50 -->
<g id="node8" class="node">
<title>Node0x5c5403611b50</title>
<path fill="#f0f4ff" stroke="black" d="M1502.5,-2743C1502.5,-2743 1217.5,-2743 1217.5,-2743 1211.5,-2743 1205.5,-2737 1205.5,-2731 1205.5,-2731 1205.5,-2719 1205.5,-2719 1205.5,-2713 1211.5,-2707 1217.5,-2707 1217.5,-2707 1502.5,-2707 1502.5,-2707 1508.5,-2707 1514.5,-2713 1514.5,-2719 1514.5,-2719 1514.5,-2731 1514.5,-2731 1514.5,-2737 1508.5,-2743 1502.5,-2743"/>
<text text-anchor="middle" x="1360" y="-2722.8" font-family="Courier,monospace" font-size="9.00">{basic_string&lt;char, std::char_traits &gt;::~basic_string()}</text>
</g>
<!-- Node0x5c540373a5e0&#45;&gt;Node0x5c5403611b50 -->
<g id="edge7" class="edge">
<title>Node0x5c540373a5e0&#45;&gt;Node0x5c5403611b50</title>
<path fill="none" stroke="#4a6fa5" d="M66.7,-1206.17C73.12,-1368.77 123.51,-2570.94 216,-2698 333.27,-2859.11 908.89,-2994.32 1088,-2907 1143.78,-2879.81 1124.19,-2834.02 1174,-2797 1205.51,-2773.58 1245.6,-2756.75 1280.4,-2745.28"/>
<polygon fill="#4a6fa5" stroke="#4a6fa5" points="1281.38,-2747.54 1287.29,-2743.05 1279.88,-2742.87 1281.38,-2747.54"/>
</g>
<!-- Node0x5c540364f050 -->
<g id="node9" class="node">
<title>Node0x5c540364f050</title>
<path fill="#f0f4ff" stroke="black" d="M481.5,-1531C481.5,-1531 343.5,-1531 343.5,-1531 337.5,-1531 331.5,-1525 331.5,-1519 331.5,-1519 331.5,-1507 331.5,-1507 331.5,-1501 337.5,-1495 343.5,-1495 343.5,-1495 481.5,-1495 481.5,-1495 487.5,-1495 493.5,-1501 493.5,-1507 493.5,-1507 493.5,-1519 493.5,-1519 493.5,-1525 487.5,-1531 481.5,-1531"/>
<text text-anchor="middle" x="412.5" y="-1510.8" font-family="Courier,monospace" font-size="9.00">{CIccProfile::CIccProfile()}</text>
</g>
<!-- Node0x5c540373a5e0&#45;&gt;Node0x5c540364f050 -->
<g id="edge8" class="edge">
<title>Node0x5c540373a5e0&#45;&gt;Node0x5c540364f050</title>
<path fill="none" stroke="#4a6fa5" d="M69.4,-1206.13C80.21,-1258.43 119.03,-1410.3 216,-1481 246.87,-1503.51 287.77,-1512.51 324.17,-1515.48"/>
<polygon fill="#4a6fa5" stroke="#4a6fa5" points="324.23,-1517.94 331.39,-1516 324.58,-1513.06 324.23,-1517.94"/>
</g>
<!-- Node0x5c5403680710 -->
<g id="node10" class="node">
<title>Node0x5c5403680710</title>
<path fill="#f0f4ff" stroke="black" d="M478.5,-1466C478.5,-1466 346.5,-1466 346.5,-1466 340.5,-1466 334.5,-1460 334.5,-1454 334.5,-1454 334.5,-1442 334.5,-1442 334.5,-1436 340.5,-1430 346.5,-1430 346.5,-1430 478.5,-1430 478.5,-1430 484.5,-1430 490.5,-1436 490.5,-1442 490.5,-1442 490.5,-1454 490.5,-1454 490.5,-1460 484.5,-1466 478.5,-1466"/>
<text text-anchor="middle" x="412.5" y="-1445.8" font-family="Courier,monospace" font-size="9.00">{CIccProfile::InitHeader()}</text>
</g>
<!-- Node0x5c540373a5e0&#45;&gt;Node0x5c5403680710 -->
<g id="edge9" class="edge">
<title>Node0x5c540373a5e0&#45;&gt;Node0x5c5403680710</title>
<path fill="none" stroke="#4a6fa5" d="M72.13,-1206.21C88.04,-1250.4 135.11,-1363.52 216,-1416 248.59,-1437.15 290.49,-1445.86 327.13,-1449"/>
<polygon fill="#4a6fa5" stroke="#4a6fa5" points="327.22,-1451.46 334.39,-1449.55 327.6,-1446.58 327.22,-1451.46"/>
</g>
<!-- Node0x5c5403728bb0 -->
<g id="node11" class="node">
<title>Node0x5c5403728bb0</title>
<path fill="#f0f4ff" stroke="black" d="M427.5,-1401C427.5,-1401 397.5,-1401 397.5,-1401 391.5,-1401 385.5,-1395 385.5,-1389 385.5,-1389 385.5,-1377 385.5,-1377 385.5,-1371 391.5,-1365 397.5,-1365 397.5,-1365 427.5,-1365 427.5,-1365 433.5,-1365 439.5,-1371 439.5,-1377 439.5,-1377 439.5,-1389 439.5,-1389 439.5,-1395 433.5,-1401 427.5,-1401"/>
<text text-anchor="middle" x="412.5" y="-1380.8" font-family="Courier,monospace" font-size="9.00">{new()}</text>
</g>
<!-- Node0x5c540373a5e0&#45;&gt;Node0x5c5403728bb0 -->
<g id="edge10" class="edge">
<title>Node0x5c540373a5e0&#45;&gt;Node0x5c5403728bb0</title>
<path fill="none" stroke="#4a6fa5" d="M76.74,-1206.09C98.32,-1240.63 150.5,-1315.68 216,-1351 267.72,-1378.89 337.49,-1383.81 378.18,-1383.99"/>
<polygon fill="#4a6fa5" stroke="#4a6fa5" points="378.43,-1386.44 385.43,-1383.98 378.42,-1381.54 378.43,-1386.44"/>
</g>
<!-- Node0x5c540360d440 -->
<g id="node12" class="node">
<title>Node0x5c540360d440</title>
<path fill="#f0f4ff" stroke="black" d="M560,-1336C560,-1336 265,-1336 265,-1336 259,-1336 253,-1330 253,-1324 253,-1324 253,-1312 253,-1312 253,-1306 259,-1300 265,-1300 265,-1300 560,-1300 560,-1300 566,-1300 572,-1306 572,-1312 572,-1312 572,-1324 572,-1324 572,-1330 566,-1336 560,-1336"/>
<text text-anchor="middle" x="412.5" y="-1315.8" font-family="Courier,monospace" font-size="9.00">{CIccTagMultiProcessElement::CIccTagMultiProcessElement()}</text>
</g>
<!-- Node0x5c540373a5e0&#45;&gt;Node0x5c540360d440 -->
<g id="edge11" class="edge">
<title>Node0x5c540373a5e0&#45;&gt;Node0x5c540360d440</title>
<path fill="none" stroke="#4a6fa5" d="M87.26,-1206.08C114.97,-1228.61 165.84,-1266.52 216,-1286 228.22,-1290.75 241.13,-1294.79 254.26,-1298.23"/>
<polygon fill="#4a6fa5" stroke="#4a6fa5" points="253.75,-1300.63 261.14,-1299.98 254.96,-1295.88 253.75,-1300.63"/>
</g>
<!-- Node0x5c540360d9b0 -->
<g id="node13" class="node">
<title>Node0x5c540360d9b0</title>
<path fill="#f0f4ff" stroke="black" d="M492,-1271C492,-1271 333,-1271 333,-1271 327,-1271 321,-1265 321,-1259 321,-1259 321,-1247 321,-1247 321,-1241 327,-1235 333,-1235 333,-1235 492,-1235 492,-1235 498,-1235 504,-1241 504,-1247 504,-1247 504,-1259 504,-1259 504,-1265 498,-1271 492,-1271"/>
<text text-anchor="middle" x="412.5" y="-1250.8" font-family="Courier,monospace" font-size="9.00">{CubeFile::isCustomInputRange()}</text>
</g>
<!-- Node0x5c540373a5e0&#45;&gt;Node0x5c540360d9b0 -->
<g id="edge12" class="edge">
<title>Node0x5c540373a5e0&#45;&gt;Node0x5c540360d9b0</title>
<path fill="none" stroke="#4a6fa5" d="M92.19,-1194.22C122.06,-1201.2 172.4,-1212.64 216,-1221 247.72,-1227.08 282.47,-1233 313.76,-1238.07"/>
<polygon fill="#4a6fa5" stroke="#4a6fa5" points="313.5,-1240.51 320.8,-1239.2 314.28,-1235.67 313.5,-1240.51"/>
</g>
<!-- Node0x5c540360d260 -->
<g id="node14" class="node">
<title>Node0x5c540360d260</title>
<path fill="#f0f4ff" stroke="black" d="M473.5,-1206C473.5,-1206 351.5,-1206 351.5,-1206 345.5,-1206 339.5,-1200 339.5,-1194 339.5,-1194 339.5,-1182 339.5,-1182 339.5,-1176 345.5,-1170 351.5,-1170 351.5,-1170 473.5,-1170 473.5,-1170 479.5,-1170 485.5,-1176 485.5,-1182 485.5,-1182 485.5,-1194 485.5,-1194 485.5,-1200 479.5,-1206 473.5,-1206"/>
<text text-anchor="middle" x="412.5" y="-1185.8" font-family="Courier,monospace" font-size="9.00">{CubeFile::getMinInput()}</text>
</g>
<!-- Node0x5c540373a5e0&#45;&gt;Node0x5c540360d260 -->
<g id="edge13" class="edge">
<title>Node0x5c540373a5e0&#45;&gt;Node0x5c540360d260</title>
<path fill="none" stroke="#4a6fa5" d="M92.25,-1188C142.67,-1188 254.87,-1188 331.87,-1188"/>
<polygon fill="#4a6fa5" stroke="#4a6fa5" points="332.21,-1190.45 339.21,-1188 332.21,-1185.55 332.21,-1190.45"/>
</g>
<!-- Node0x5c540373ec90 -->
<g id="node15" class="node">
<title>Node0x5c540373ec90</title>
<path fill="#f0f4ff" stroke="black" d="M473.5,-1141C473.5,-1141 351.5,-1141 351.5,-1141 345.5,-1141 339.5,-1135 339.5,-1129 339.5,-1129 339.5,-1117 339.5,-1117 339.5,-1111 345.5,-1105 351.5,-1105 351.5,-1105 473.5,-1105 473.5,-1105 479.5,-1105 485.5,-1111 485.5,-1117 485.5,-1117 485.5,-1129 485.5,-1129 485.5,-1135 479.5,-1141 473.5,-1141"/>
<text text-anchor="middle" x="412.5" y="-1120.8" font-family="Courier,monospace" font-size="9.00">{CubeFile::getMaxInput()}</text>
</g>
<!-- Node0x5c540373a5e0&#45;&gt;Node0x5c540373ec90 -->
<g id="edge14" class="edge">
<title>Node0x5c540373a5e0&#45;&gt;Node0x5c540373ec90</title>
<path fill="none" stroke="#4a6fa5" d="M92.21,-1182.05C122.1,-1175.35 172.45,-1164.32 216,-1156 254.19,-1148.71 296.75,-1141.42 332.38,-1135.56"/>
<polygon fill="#4a6fa5" stroke="#4a6fa5" points="332.9,-1137.96 339.41,-1134.41 332.11,-1133.12 332.9,-1137.96"/>
</g>
<!-- Node0x5c5403612980 -->
<g id="node16" class="node">
<title>Node0x5c5403612980</title>
<path fill="#f0f4ff" stroke="black" d="M455,-1076C455,-1076 370,-1076 370,-1076 364,-1076 358,-1070 358,-1064 358,-1064 358,-1052 358,-1052 358,-1046 364,-1040 370,-1040 370,-1040 455,-1040 455,-1040 461,-1040 467,-1046 467,-1052 467,-1052 467,-1064 467,-1064 467,-1070 461,-1076 455,-1076"/>
<text text-anchor="middle" x="412.5" y="-1055.8" font-family="Courier,monospace" font-size="9.00">{SaveIccProfile()}</text>
</g>
<!-- Node0x5c540373a5e0&#45;&gt;Node0x5c5403612980 -->
<g id="edge15" class="edge">
<title>Node0x5c540373a5e0&#45;&gt;Node0x5c5403612980</title>
<path fill="none" stroke="#4a6fa5" d="M87.79,-1169.76C115.66,-1147.47 166.28,-1110.32 216,-1091 259.19,-1074.22 311.02,-1065.96 350.46,-1061.9"/>
<polygon fill="#4a6fa5" stroke="#4a6fa5" points="350.95,-1064.32 357.67,-1061.19 350.47,-1059.44 350.95,-1064.32"/>
</g>
<!-- Node0x5c540373fa90 -->
<g id="node17" class="node">
<title>Node0x5c540373fa90</title>
<path fill="#f0f4ff" stroke="black" d="M502.5,-1011C502.5,-1011 322.5,-1011 322.5,-1011 316.5,-1011 310.5,-1005 310.5,-999 310.5,-999 310.5,-987 310.5,-987 310.5,-981 316.5,-975 322.5,-975 322.5,-975 502.5,-975 502.5,-975 508.5,-975 514.5,-981 514.5,-987 514.5,-987 514.5,-999 514.5,-999 514.5,-1005 508.5,-1011 502.5,-1011"/>
<text text-anchor="middle" x="412.5" y="-990.8" font-family="Courier,monospace" font-size="9.00">{CIccMpeCurveSet::CIccMpeCurveSet()}</text>
</g>
<!-- Node0x5c540373a5e0&#45;&gt;Node0x5c540373fa90 -->
<g id="edge16" class="edge">
<title>Node0x5c540373a5e0&#45;&gt;Node0x5c540373fa90</title>
<path fill="none" stroke="#4a6fa5" d="M76.96,-1169.79C98.71,-1135.39 150.92,-1061.18 216,-1026 242.49,-1011.68 273.71,-1003.29 303.33,-998.46"/>
<polygon fill="#4a6fa5" stroke="#4a6fa5" points="303.87,-1000.85 310.42,-997.36 303.12,-996.01 303.87,-1000.85"/>
</g>
<!-- Node0x5c54036109a0 -->
<g id="node18" class="node">
<title>Node0x5c54036109a0</title>
<path fill="#f0f4ff" stroke="black" d="M434,-946C434,-946 391,-946 391,-946 385,-946 379,-940 379,-934 379,-934 379,-922 379,-922 379,-916 385,-910 391,-910 391,-910 434,-910 434,-910 440,-910 446,-916 446,-922 446,-922 446,-934 446,-934 446,-940 440,-946 434,-946"/>
<text text-anchor="middle" x="412.5" y="-925.8" font-family="Courier,monospace" font-size="9.00">{delete()}</text>
</g>
<!-- Node0x5c540373a5e0&#45;&gt;Node0x5c54036109a0 -->
<g id="edge17" class="edge">
<title>Node0x5c540373a5e0&#45;&gt;Node0x5c54036109a0</title>
<path fill="none" stroke="#4a6fa5" d="M72.17,-1169.89C88.17,-1125.95 135.44,-1013.44 216,-961 263.18,-930.29 329.86,-925.35 371.88,-925.79"/>
<polygon fill="#4a6fa5" stroke="#4a6fa5" points="371.87,-928.24 378.91,-925.91 371.96,-923.34 371.87,-928.24"/>
</g>
<!-- Node0x5c5403610750 -->
<g id="node19" class="node">
<title>Node0x5c5403610750</title>
<path fill="#f0f4ff" stroke="black" d="M539,-881C539,-881 286,-881 286,-881 280,-881 274,-875 274,-869 274,-869 274,-857 274,-857 274,-851 280,-845 286,-845 286,-845 539,-845 539,-845 545,-845 551,-851 551,-857 551,-857 551,-869 551,-869 551,-875 545,-881 539,-881"/>
<text text-anchor="middle" x="412.5" y="-860.8" font-family="Courier,monospace" font-size="9.00">{CIccSingleSampledCurve::CIccSingleSampledCurve()}</text>
</g>
<!-- Node0x5c540373a5e0&#45;&gt;Node0x5c5403610750 -->
<g id="edge18" class="edge">
<title>Node0x5c540373a5e0&#45;&gt;Node0x5c5403610750</title>
<path fill="none" stroke="#4a6fa5" d="M69.43,-1169.95C80.35,-1117.89 119.42,-966.68 216,-896 231.15,-884.91 248.73,-877.05 267,-871.54"/>
<polygon fill="#4a6fa5" stroke="#4a6fa5" points="267.7,-873.89 273.76,-869.62 266.35,-869.18 267.7,-873.89"/>
</g>
<!-- Node0x5c5403741150 -->
<g id="node20" class="node">
<title>Node0x5c5403741150</title>
<path fill="#f0f4ff" stroke="black" d="M476,-816C476,-816 349,-816 349,-816 343,-816 337,-810 337,-804 337,-804 337,-792 337,-792 337,-786 343,-780 349,-780 349,-780 476,-780 476,-780 482,-780 488,-786 488,-792 488,-792 488,-804 488,-804 488,-810 482,-816 476,-816"/>
<text text-anchor="middle" x="412.5" y="-795.8" font-family="Courier,monospace" font-size="9.00">{CIccProfile::AttachTag()}</text>
</g>
<!-- Node0x5c540373a5e0&#45;&gt;Node0x5c5403741150 -->
<g id="edge19" class="edge">
<title>Node0x5c540373a5e0&#45;&gt;Node0x5c5403741150</title>
<path fill="none" stroke="#4a6fa5" d="M67.64,-1169.96C74.05,-1110.67 102.98,-920.56 216,-831 247.75,-805.84 291.62,-796.84 329.75,-794.46"/>
<polygon fill="#4a6fa5" stroke="#4a6fa5" points="329.94,-796.9 336.8,-794.09 329.69,-792.01 329.94,-796.9"/>
</g>
<!-- Node0x5c5403611bd0 -->
<g id="node21" class="node">
<title>Node0x5c5403611bd0</title>
<path fill="#f0f4ff" stroke="black" d="M515.5,-751C515.5,-751 309.5,-751 309.5,-751 303.5,-751 297.5,-745 297.5,-739 297.5,-739 297.5,-727 297.5,-727 297.5,-721 303.5,-715 309.5,-715 309.5,-715 515.5,-715 515.5,-715 521.5,-715 527.5,-721 527.5,-727 527.5,-727 527.5,-739 527.5,-739 527.5,-745 521.5,-751 515.5,-751"/>
<text text-anchor="middle" x="412.5" y="-730.8" font-family="Courier,monospace" font-size="9.00">{CIccTagMultiLocalizedUnicode::SetText()}</text>
</g>
<!-- Node0x5c540373a5e0&#45;&gt;Node0x5c5403611bd0 -->
<g id="edge20" class="edge">
<title>Node0x5c540373a5e0&#45;&gt;Node0x5c5403611bd0</title>
<path fill="none" stroke="#4a6fa5" d="M66.37,-1169.61C68.76,-1103.32 86.46,-874.72 216,-766 236.81,-748.53 263.38,-738.7 290.18,-733.45"/>
<polygon fill="#4a6fa5" stroke="#4a6fa5" points="290.91,-735.81 297.36,-732.15 290.04,-730.99 290.91,-735.81"/>
</g>
<!-- Node0x5c5403610510 -->
<g id="node22" class="node">
<title>Node0x5c5403610510</title>
<path fill="#f0f4ff" stroke="black" d="M484,-686C484,-686 341,-686 341,-686 335,-686 329,-680 329,-674 329,-674 329,-662 329,-662 329,-656 335,-650 341,-650 341,-650 484,-650 484,-650 490,-650 496,-656 496,-662 496,-662 496,-674 496,-674 496,-680 490,-686 484,-686"/>
<text text-anchor="middle" x="412.5" y="-665.8" font-family="Courier,monospace" font-size="9.00">{CIccMpeCurveSet::SetCurve()}</text>
</g>
<!-- Node0x5c540373a5e0&#45;&gt;Node0x5c5403610510 -->
<g id="edge21" class="edge">
<title>Node0x5c540373a5e0&#45;&gt;Node0x5c5403610510</title>
<path fill="none" stroke="#4a6fa5" d="M65.39,-1169.92C64.03,-1097.96 69.29,-829.57 216,-701 244.64,-675.9 285.03,-666.33 321.67,-663.56"/>
<polygon fill="#4a6fa5" stroke="#4a6fa5" points="322.12,-665.99 328.95,-663.09 321.8,-661.1 322.12,-665.99"/>
</g>
<!-- Node0x5c5403741c60 -->
<g id="node23" class="node">
<title>Node0x5c5403741c60</title>
<path fill="#f0f4ff" stroke="black" d="M1481.5,-1398C1481.5,-1398 1238.5,-1398 1238.5,-1398 1232.5,-1398 1226.5,-1392 1226.5,-1386 1226.5,-1386 1226.5,-1374 1226.5,-1374 1226.5,-1368 1232.5,-1362 1238.5,-1362 1238.5,-1362 1481.5,-1362 1481.5,-1362 1487.5,-1362 1493.5,-1368 1493.5,-1374 1493.5,-1374 1493.5,-1386 1493.5,-1386 1493.5,-1392 1487.5,-1398 1481.5,-1398"/>
<text text-anchor="middle" x="1360" y="-1377.8" font-family="Courier,monospace" font-size="9.00">{basic_string&lt;char, std::char_traits &gt;::c_str()}</text>
</g>
<!-- Node0x5c540373a5e0&#45;&gt;Node0x5c5403741c60 -->
<g id="edge22" class="edge">
<title>Node0x5c540373a5e0&#45;&gt;Node0x5c5403741c60</title>
<path fill="none" stroke="#4a6fa5" d="M68.7,-1206.2C81.2,-1287.63 136.16,-1617.01 216,-1676 286.24,-1727.9 539.71,-1729.17 609,-1676 726.18,-1586.09 577.82,-1444.91 695,-1355 780.05,-1289.74 1091.6,-1332.42 1255.94,-1360.7"/>
<polygon fill="#4a6fa5" stroke="#4a6fa5" points="1255.85,-1363.17 1263.17,-1361.95 1256.69,-1358.35 1255.85,-1363.17"/>
</g>
<!-- Node0x5c540360f750 -->
<g id="node24" class="node">
<title>Node0x5c540360f750</title>
<path fill="#f0f4ff" stroke="black" d="M505,-556C505,-556 320,-556 320,-556 314,-556 308,-550 308,-544 308,-544 308,-532 308,-532 308,-526 314,-520 320,-520 320,-520 505,-520 505,-520 511,-520 517,-526 517,-532 517,-532 517,-544 517,-544 517,-550 511,-556 505,-556"/>
<text text-anchor="middle" x="412.5" y="-535.8" font-family="Courier,monospace" font-size="9.00">{CubeFile::getCopyright[abi:cxx11]()}</text>
</g>
<!-- Node0x5c540373a5e0&#45;&gt;Node0x5c540360f750 -->
<g id="edge23" class="edge">
<title>Node0x5c540373a5e0&#45;&gt;Node0x5c540360f750</title>
<path fill="none" stroke="#4a6fa5" d="M67.75,-1169.94C77.11,-1077.29 124.23,-656.45 216,-571 238.89,-549.68 270.17,-539.34 300.99,-534.87"/>
<polygon fill="#4a6fa5" stroke="#4a6fa5" points="301.35,-537.29 307.97,-533.95 300.71,-532.44 301.35,-537.29"/>
</g>
<!-- Node0x5c54037413a0 -->
<g id="node25" class="node">
<title>Node0x5c54037413a0</title>
<path fill="#f0f4ff" stroke="black" d="M570.5,-491C570.5,-491 254.5,-491 254.5,-491 248.5,-491 242.5,-485 242.5,-479 242.5,-479 242.5,-467 242.5,-467 242.5,-461 248.5,-455 254.5,-455 254.5,-455 570.5,-455 570.5,-455 576.5,-455 582.5,-461 582.5,-467 582.5,-467 582.5,-479 582.5,-479 582.5,-485 576.5,-491 570.5,-491"/>
<text text-anchor="middle" x="412.5" y="-470.8" font-family="Courier,monospace" font-size="9.00">{CIccTagMultiLocalizedUnicode::CIccTagMultiLocalizedUnicode()}</text>
</g>
<!-- Node0x5c540373a5e0&#45;&gt;Node0x5c54037413a0 -->
<g id="edge24" class="edge">
<title>Node0x5c540373a5e0&#45;&gt;Node0x5c54037413a0</title>
<path fill="none" stroke="#4a6fa5" d="M67.32,-1169.71C74.85,-1070.89 115.57,-601.6 216,-506 222.14,-500.16 228.9,-495.14 236.11,-490.83"/>
<polygon fill="#4a6fa5" stroke="#4a6fa5" points="237.36,-492.94 242.27,-487.38 234.97,-488.66 237.36,-492.94"/>
</g>
<!-- Node0x5c5403741710 -->
<g id="node26" class="node">
<title>Node0x5c5403741710</title>
<path fill="#f0f4ff" stroke="black" d="M1478.5,-1947C1478.5,-1947 1241.5,-1947 1241.5,-1947 1235.5,-1947 1229.5,-1941 1229.5,-1935 1229.5,-1935 1229.5,-1923 1229.5,-1923 1229.5,-1917 1235.5,-1911 1241.5,-1911 1241.5,-1911 1478.5,-1911 1478.5,-1911 1484.5,-1911 1490.5,-1917 1490.5,-1923 1490.5,-1923 1490.5,-1935 1490.5,-1935 1490.5,-1941 1484.5,-1947 1478.5,-1947"/>
<text text-anchor="middle" x="1360" y="-1926.8" font-family="Courier,monospace" font-size="9.00">{basic_string&lt;char, std::char_traits &gt;::size()}</text>
</g>
<!-- Node0x5c540373a5e0&#45;&gt;Node0x5c5403741710 -->
<g id="edge25" class="edge">
<title>Node0x5c540373a5e0&#45;&gt;Node0x5c5403741710</title>
<path fill="none" stroke="#4a6fa5" d="M68.26,-1206.26C79.27,-1291.88 130.23,-1652.17 216,-1717 355.34,-1822.32 466.88,-1818.54 609,-1717 704.95,-1648.45 599.05,-1534.55 695,-1466 837.12,-1364.46 950.58,-1358.18 1088,-1466 1214.36,-1565.14 1078.94,-1687.54 1174,-1817 1205.85,-1860.38 1260.03,-1890.29 1301.55,-1908.22"/>
<polygon fill="#4a6fa5" stroke="#4a6fa5" points="1300.7,-1910.52 1308.1,-1910.99 1302.61,-1906.01 1300.7,-1910.52"/>
</g>
<!-- Node0x5c5403612240 -->
<g id="node27" class="node">
<title>Node0x5c5403612240</title>
<path fill="#f0f4ff" stroke="black" d="M1481.5,-3432C1481.5,-3432 1238.5,-3432 1238.5,-3432 1232.5,-3432 1226.5,-3426 1226.5,-3420 1226.5,-3420 1226.5,-3408 1226.5,-3408 1226.5,-3402 1232.5,-3396 1238.5,-3396 1238.5,-3396 1481.5,-3396 1481.5,-3396 1487.5,-3396 1493.5,-3402 1493.5,-3408 1493.5,-3408 1493.5,-3420 1493.5,-3420 1493.5,-3426 1487.5,-3432 1481.5,-3432"/>
<text text-anchor="middle" x="1360" y="-3411.8" font-family="Courier,monospace" font-size="9.00">{std::__new_allocator&lt;char&gt;::~__new_allocator()}</text>
</g>
<!-- Node0x5c540373a5e0&#45;&gt;Node0x5c5403612240 -->
<g id="edge26" class="edge">
<title>Node0x5c540373a5e0&#45;&gt;Node0x5c5403612240</title>
<path fill="none" stroke="#4a6fa5" d="M66.37,-1206.01C70.3,-1390.23 106.32,-2928.9 216,-3096 432.39,-3425.68 964.42,-3440.1 1218.94,-3426.42"/>
<polygon fill="#4a6fa5" stroke="#4a6fa5" points="1219.16,-3428.86 1226.01,-3426.03 1218.89,-3423.97 1219.16,-3428.86"/>
</g>
<!-- Node0x5c5403611910 -->
<g id="node28" class="node">
<title>Node0x5c5403611910</title>
<path fill="#f0f4ff" stroke="black" d="M597,-426C597,-426 228,-426 228,-426 222,-426 216,-420 216,-414 216,-414 216,-402 216,-402 216,-396 222,-390 228,-390 228,-390 597,-390 597,-390 603,-390 609,-396 609,-402 609,-402 609,-414 609,-414 609,-420 603,-426 597,-426"/>
<text text-anchor="middle" x="412.5" y="-405.8" font-family="Courier,monospace" font-size="9.00">{std::basic_string&lt;char, std::char_traits &gt; std::operator+&lt;char, std...}</text>
</g>
<!-- Node0x5c540373a5e0&#45;&gt;Node0x5c5403611910 -->
<g id="edge27" class="edge">
<title>Node0x5c540373a5e0&#45;&gt;Node0x5c5403611910</title>
<path fill="none" stroke="#4a6fa5" d="M66.95,-1169.73C72.74,-1065.48 106.79,-546.89 216,-441 220.17,-436.96 224.64,-433.3 229.35,-430.01"/>
<polygon fill="#4a6fa5" stroke="#4a6fa5" points="230.93,-431.9 235.45,-426.02 228.25,-427.8 230.93,-431.9"/>
</g>
<!-- Node0x5c54036114b0 -->
<g id="node29" class="node">
<title>Node0x5c54036114b0</title>
<path fill="#f0f4ff" stroke="black" d="M534,-3081C534,-3081 291,-3081 291,-3081 285,-3081 279,-3075 279,-3069 279,-3069 279,-3057 279,-3057 279,-3051 285,-3045 291,-3045 291,-3045 534,-3045 534,-3045 540,-3045 546,-3051 546,-3057 546,-3057 546,-3069 546,-3069 546,-3075 540,-3081 534,-3081"/>
<text text-anchor="middle" x="412.5" y="-3060.8" font-family="Courier,monospace" font-size="9.00">{char_traits &gt;::basic_string&lt;std::allocator &gt;()}</text>
</g>
<!-- Node0x5c540373a5e0&#45;&gt;Node0x5c54036114b0 -->
<g id="edge28" class="edge">
<title>Node0x5c540373a5e0&#45;&gt;Node0x5c54036114b0</title>
<path fill="none" stroke="#4a6fa5" d="M66.49,-1206.07C71.46,-1383 114.41,-2803.35 216,-2958 243.71,-3000.18 294.25,-3026.68 337,-3042.51"/>
<polygon fill="#4a6fa5" stroke="#4a6fa5" points="336.37,-3044.89 343.79,-3044.96 338.03,-3040.28 336.37,-3044.89"/>
</g>
<!-- Node0x5c5403611010 -->
<g id="node30" class="node">
<title>Node0x5c5403611010</title>
<path fill="#f0f4ff" stroke="black" d="M510,-621C510,-621 315,-621 315,-621 309,-621 303,-615 303,-609 303,-609 303,-597 303,-597 303,-591 309,-585 315,-585 315,-585 510,-585 510,-585 516,-585 522,-591 522,-597 522,-597 522,-609 522,-609 522,-615 516,-621 510,-621"/>
<text text-anchor="middle" x="412.5" y="-600.8" font-family="Courier,monospace" font-size="9.00">{CubeFile::getDescription[abi:cxx11]()}</text>
</g>
<!-- Node0x5c540373a5e0&#45;&gt;Node0x5c5403611010 -->
<g id="edge29" class="edge">
<title>Node0x5c540373a5e0&#45;&gt;Node0x5c5403611010</title>
<path fill="none" stroke="#4a6fa5" d="M68.31,-1169.85C79.73,-1083.05 132.95,-711.28 216,-636 237.84,-616.2 266.94,-605.96 296.01,-601.09"/>
<polygon fill="#4a6fa5" stroke="#4a6fa5" points="296.45,-603.5 303,-600.02 295.71,-598.66 296.45,-603.5"/>
</g>
<!-- Node0x5c5403611760 -->
<g id="node31" class="node">
<title>Node0x5c5403611760</title>
<path fill="#f0f4ff" stroke="black" d="M936.5,-3556C936.5,-3556 846.5,-3556 846.5,-3556 840.5,-3556 834.5,-3550 834.5,-3544 834.5,-3544 834.5,-3532 834.5,-3532 834.5,-3526 840.5,-3520 846.5,-3520 846.5,-3520 936.5,-3520 936.5,-3520 942.5,-3520 948.5,-3526 948.5,-3532 948.5,-3532 948.5,-3544 948.5,-3544 948.5,-3550 942.5,-3556 936.5,-3556"/>
<text text-anchor="middle" x="891.5" y="-3535.8" font-family="Courier,monospace" font-size="9.00">{CubeFile::close()}</text>
</g>
<!-- Node0x5c540373a5e0&#45;&gt;Node0x5c5403611760 -->
<g id="edge30" class="edge">
<title>Node0x5c540373a5e0&#45;&gt;Node0x5c5403611760</title>
<path fill="none" stroke="#4a6fa5" d="M66.52,-1206.01C72.59,-1415.76 131.94,-3388.59 216,-3475 378.34,-3641.89 692.93,-3588.35 827.24,-3555.49"/>
<polygon fill="#4a6fa5" stroke="#4a6fa5" points="828.07,-3557.81 834.27,-3553.75 826.89,-3553.05 828.07,-3557.81"/>
</g>
<!-- Node0x5c5403610040 -->
<g id="node32" class="node">
<title>Node0x5c5403610040</title>
<path fill="#f0f4ff" stroke="black" d="M471,-361C471,-361 354,-361 354,-361 348,-361 342,-355 342,-349 342,-349 342,-337 342,-337 342,-331 348,-325 354,-325 354,-325 471,-325 471,-325 477,-325 483,-331 483,-337 483,-337 483,-349 483,-349 483,-355 477,-361 471,-361"/>
<text text-anchor="middle" x="412.5" y="-340.8" font-family="Courier,monospace" font-size="9.00">{CIccMpeCLUT::SetCLUT()}</text>
</g>
<!-- Node0x5c540373a5e0&#45;&gt;Node0x5c5403610040 -->
<g id="edge31" class="edge">
<title>Node0x5c540373a5e0&#45;&gt;Node0x5c5403610040</title>
<path fill="none" stroke="#4a6fa5" d="M66.62,-1169.96C70.76,-1061.07 97.89,-492.3 216,-376 246.66,-345.81 293.98,-337.24 334.39,-336.37"/>
<polygon fill="#4a6fa5" stroke="#4a6fa5" points="334.62,-338.81 341.59,-336.29 334.57,-333.91 334.62,-338.81"/>
</g>
<!-- Node0x5c5403610b70 -->
<g id="node33" class="node">
<title>Node0x5c5403610b70</title>
<path fill="#f0f4ff" stroke="black" d="M476,-2368C476,-2368 349,-2368 349,-2368 343,-2368 337,-2362 337,-2356 337,-2356 337,-2344 337,-2344 337,-2338 343,-2332 349,-2332 349,-2332 476,-2332 476,-2332 482,-2332 488,-2338 488,-2344 488,-2344 488,-2356 488,-2356 488,-2362 482,-2368 476,-2368"/>
<text text-anchor="middle" x="412.5" y="-2347.8" font-family="Courier,monospace" font-size="9.00">{CubeFile::parse3DTable()}</text>
</g>
<!-- Node0x5c540373a5e0&#45;&gt;Node0x5c5403610b70 -->
<g id="edge32" class="edge">
<title>Node0x5c540373a5e0&#45;&gt;Node0x5c5403610b70</title>
<path fill="none" stroke="#4a6fa5" d="M67.42,-1206.07C74.69,-1293.64 111.65,-1681.81 216,-1980 264.39,-2118.28 357.85,-2268.29 395.35,-2325.75"/>
<polygon fill="#4a6fa5" stroke="#4a6fa5" points="393.34,-2327.15 399.22,-2331.66 397.43,-2324.46 393.34,-2327.15"/>
</g>
<!-- Node0x5c54036112e0 -->
<g id="node34" class="node">
<title>Node0x5c54036112e0</title>
<path fill="#f0f4ff" stroke="black" d="M468,-296C468,-296 357,-296 357,-296 351,-296 345,-290 345,-284 345,-284 345,-272 345,-272 345,-266 351,-260 357,-260 357,-260 468,-260 468,-260 474,-260 480,-266 480,-272 480,-272 480,-284 480,-284 480,-290 474,-296 468,-296"/>
<text text-anchor="middle" x="412.5" y="-275.8" font-family="Courier,monospace" font-size="9.00">{CIccCLUT::NumPoints()}</text>
</g>
<!-- Node0x5c540373a5e0&#45;&gt;Node0x5c54036112e0 -->
<g id="edge33" class="edge">
<title>Node0x5c540373a5e0&#45;&gt;Node0x5c54036112e0</title>
<path fill="none" stroke="#4a6fa5" d="M66.36,-1169.66C69.02,-1055 89.16,-437.56 216,-311 247.33,-279.74 296.49,-271.56 337.68,-271.15"/>
<polygon fill="#4a6fa5" stroke="#4a6fa5" points="337.74,-273.6 344.75,-271.16 337.75,-268.7 337.74,-273.6"/>
</g>
<!-- Node0x5c5403610e40 -->
<g id="node35" class="node">
<title>Node0x5c5403610e40</title>
<path fill="#f0f4ff" stroke="black" d="M463,-231C463,-231 362,-231 362,-231 356,-231 350,-225 350,-219 350,-219 350,-207 350,-207 350,-201 356,-195 362,-195 362,-195 463,-195 463,-195 469,-195 475,-201 475,-207 475,-207 475,-219 475,-219 475,-225 469,-231 463,-231"/>
<text text-anchor="middle" x="412.5" y="-210.8" font-family="Courier,monospace" font-size="9.00">{CIccCLUT::GetData()}</text>
</g>
<!-- Node0x5c540373a5e0&#45;&gt;Node0x5c5403610e40 -->
<g id="edge34" class="edge">
<title>Node0x5c540373a5e0&#45;&gt;Node0x5c5403610e40</title>
<path fill="none" stroke="#4a6fa5" d="M66.13,-1169.87C67.34,-1050.96 80.22,-383.05 216,-246 248.4,-213.29 300.32,-205.75 342.51,-206.01"/>
<polygon fill="#4a6fa5" stroke="#4a6fa5" points="342.69,-208.47 349.73,-206.13 342.77,-203.57 342.69,-208.47"/>
</g>
<!-- Node0x5c540373fe50 -->
<g id="node36" class="node">
<title>Node0x5c540373fe50</title>
<path fill="#f0f4ff" stroke="black" d="M455,-166C455,-166 370,-166 370,-166 364,-166 358,-160 358,-154 358,-154 358,-142 358,-142 358,-136 364,-130 370,-130 370,-130 455,-130 455,-130 461,-130 467,-136 467,-142 467,-142 467,-154 467,-154 467,-160 461,-166 455,-166"/>
<text text-anchor="middle" x="412.5" y="-145.8" font-family="Courier,monospace" font-size="9.00">{CIccCLUT::Init()}</text>
</g>
<!-- Node0x5c540373a5e0&#45;&gt;Node0x5c540373fe50 -->
<g id="edge35" class="edge">
<title>Node0x5c540373a5e0&#45;&gt;Node0x5c540373fe50</title>
<path fill="none" stroke="#4a6fa5" d="M65.92,-1169.84C65.8,-1046.2 71.34,-328.48 216,-181 250.36,-145.97 307.08,-139.72 350.6,-141.06"/>
<polygon fill="#4a6fa5" stroke="#4a6fa5" points="350.65,-143.51 357.74,-141.35 350.85,-138.62 350.65,-143.51"/>
</g>
<!-- Node0x5c54036106d0 -->
<g id="node37" class="node">
<title>Node0x5c54036106d0</title>
<path fill="#f0f4ff" stroke="black" d="M465.5,-101C465.5,-101 359.5,-101 359.5,-101 353.5,-101 347.5,-95 347.5,-89 347.5,-89 347.5,-77 347.5,-77 347.5,-71 353.5,-65 359.5,-65 359.5,-65 465.5,-65 465.5,-65 471.5,-65 477.5,-71 477.5,-77 477.5,-77 477.5,-89 477.5,-89 477.5,-95 471.5,-101 465.5,-101"/>
<text text-anchor="middle" x="412.5" y="-80.8" font-family="Courier,monospace" font-size="9.00">{CIccCLUT::CIccCLUT()}</text>
</g>
<!-- Node0x5c540373a5e0&#45;&gt;Node0x5c54036106d0 -->
<g id="edge36" class="edge">
<title>Node0x5c540373a5e0&#45;&gt;Node0x5c54036106d0</title>
<path fill="none" stroke="#4a6fa5" d="M65.75,-1169.93C64.34,-1042.04 62.41,-273.99 216,-116 247.53,-83.57 298.2,-75.74 340.05,-75.8"/>
<polygon fill="#4a6fa5" stroke="#4a6fa5" points="340.19,-78.25 347.22,-75.88 340.25,-73.35 340.19,-78.25"/>
</g>
<!-- Node0x5c540360fce0 -->
<g id="node38" class="node">
<title>Node0x5c540360fce0</title>
<path fill="#f0f4ff" stroke="black" d="M481.5,-36C481.5,-36 343.5,-36 343.5,-36 337.5,-36 331.5,-30 331.5,-24 331.5,-24 331.5,-12 331.5,-12 331.5,-6 337.5,0 343.5,0 343.5,0 481.5,0 481.5,0 487.5,0 493.5,-6 493.5,-12 493.5,-12 493.5,-24 493.5,-24 493.5,-30 487.5,-36 481.5,-36"/>
<text text-anchor="middle" x="412.5" y="-15.8" font-family="Courier,monospace" font-size="9.00">{CIccMpeCLUT::CIccMpeCLUT()}</text>
</g>
<!-- Node0x5c540373a5e0&#45;&gt;Node0x5c540360fce0 -->
<g id="edge37" class="edge">
<title>Node0x5c540373a5e0&#45;&gt;Node0x5c540360fce0</title>
<path fill="none" stroke="#4a6fa5" d="M67.11,-1169.81C75.78,-1030.49 134.45,-135.55 216,-51 243.56,-22.43 285.96,-12.9 324.24,-11.06"/>
<polygon fill="#4a6fa5" stroke="#4a6fa5" points="324.43,-13.51 331.34,-10.8 324.25,-8.61 324.43,-13.51"/>
</g>
<!-- Node0x5c5403742550&#45;&gt;Node0x5c5403611b50 -->
<g id="edge91" class="edge">
<title>Node0x5c5403742550&#45;&gt;Node0x5c5403611b50</title>
<path fill="none" stroke="#4a6fa5" d="M429.79,-3423.85C469.98,-3380.37 579.04,-3270.18 695,-3220 857.1,-3149.86 958.03,-3280.6 1088,-3161 1210.32,-3048.43 1064.91,-2922.43 1174,-2797 1195.45,-2772.34 1226.39,-2756.07 1256.85,-2745.36"/>
<polygon fill="#4a6fa5" stroke="#4a6fa5" points="1257.9,-2747.59 1263.75,-2743.02 1256.33,-2742.95 1257.9,-2747.59"/>
</g>
<!-- Node0x5c5403742550&#45;&gt;Node0x5c5403611760 -->
<g id="edge90" class="edge">
<title>Node0x5c5403742550&#45;&gt;Node0x5c5403611760</title>
<path fill="none" stroke="#4a6fa5" d="M480.08,-3455.4C572.21,-3473.94 737.41,-3507.19 827.57,-3525.33"/>
<polygon fill="#4a6fa5" stroke="#4a6fa5" points="827.11,-3527.74 834.46,-3526.72 828.08,-3522.94 827.11,-3527.74"/>
</g>
<!-- Node0x5c540374d2d0 -->
<g id="node77" class="node">
<title>Node0x5c540374d2d0</title>
<path fill="#f0f4ff" stroke="black" d="M1837,-3430C1837,-3430 1720,-3430 1720,-3430 1714,-3430 1708,-3424 1708,-3418 1708,-3418 1708,-3406 1708,-3406 1708,-3400 1714,-3394 1720,-3394 1720,-3394 1837,-3394 1837,-3394 1843,-3394 1849,-3400 1849,-3406 1849,-3406 1849,-3418 1849,-3418 1849,-3424 1843,-3430 1837,-3430"/>
<text text-anchor="middle" x="1778.5" y="-3409.8" font-family="Courier,monospace" font-size="9.00">{__clang_call_terminate}</text>
</g>
<!-- Node0x5c5403742550&#45;&gt;Node0x5c540374d2d0 -->
<g id="edge92" class="edge">
<title>Node0x5c5403742550&#45;&gt;Node0x5c540374d2d0</title>
<path fill="none" stroke="#4a6fa5" d="M480.01,-3445.97C654.91,-3455.62 1142.11,-3477.36 1546,-3447 1597.94,-3443.1 1655.89,-3434.33 1700.81,-3426.55"/>
<polygon fill="#4a6fa5" stroke="#4a6fa5" points="1701.44,-3428.93 1707.91,-3425.31 1700.59,-3424.1 1701.44,-3428.93"/>
</g>
<!-- Node0x5c540372fbf0&#45;&gt;Node0x5c5403611b50 -->
<g id="edge39" class="edge">
<title>Node0x5c540372fbf0&#45;&gt;Node0x5c5403611b50</title>
<path fill="none" stroke="#4a6fa5" d="M956.73,-2864.27C995.29,-2857.59 1045.03,-2847.48 1088,-2834 1127.7,-2821.54 1135.49,-2812.77 1174,-2797 1217.69,-2779.11 1267.59,-2759.75 1304.54,-2745.62"/>
<polygon fill="#4a6fa5" stroke="#4a6fa5" points="1305.62,-2747.83 1311.29,-2743.04 1303.88,-2743.25 1305.62,-2747.83"/>
</g>
<!-- Node0x5c5403612bc0 -->
<g id="node39" class="node">
<title>Node0x5c5403612bc0</title>
<path fill="#f0f4ff" stroke="black" d="M1499.5,-2678C1499.5,-2678 1220.5,-2678 1220.5,-2678 1214.5,-2678 1208.5,-2672 1208.5,-2666 1208.5,-2666 1208.5,-2654 1208.5,-2654 1208.5,-2648 1214.5,-2642 1220.5,-2642 1220.5,-2642 1499.5,-2642 1499.5,-2642 1505.5,-2642 1511.5,-2648 1511.5,-2654 1511.5,-2654 1511.5,-2666 1511.5,-2666 1511.5,-2672 1505.5,-2678 1499.5,-2678"/>
<text text-anchor="middle" x="1360" y="-2657.8" font-family="Courier,monospace" font-size="9.00">{basic_string&lt;char, std::char_traits &gt;::basic_string()}</text>
</g>
<!-- Node0x5c540372fbf0&#45;&gt;Node0x5c5403612bc0 -->
<g id="edge38" class="edge">
<title>Node0x5c540372fbf0&#45;&gt;Node0x5c5403612bc0</title>
<path fill="none" stroke="#4a6fa5" d="M956.59,-2873.66C997.46,-2870.54 1049.73,-2860.89 1088,-2834 1148.06,-2791.8 1113.41,-2734.44 1174,-2693 1182.53,-2687.16 1191.79,-2682.27 1201.46,-2678.17"/>
<polygon fill="#4a6fa5" stroke="#4a6fa5" points="1202.63,-2680.34 1208.21,-2675.45 1200.8,-2675.79 1202.63,-2680.34"/>
</g>
<!-- Node0x5c5403612d80 -->
<g id="node40" class="node">
<title>Node0x5c5403612d80</title>
<path fill="#f0f4ff" stroke="black" d="M1534,-2847C1534,-2847 1186,-2847 1186,-2847 1180,-2847 1174,-2841 1174,-2835 1174,-2835 1174,-2823 1174,-2823 1174,-2817 1180,-2811 1186,-2811 1186,-2811 1534,-2811 1534,-2811 1540,-2811 1546,-2817 1546,-2823 1546,-2823 1546,-2835 1546,-2835 1546,-2841 1540,-2847 1534,-2847"/>
<text text-anchor="middle" x="1360" y="-2826.8" font-family="Courier,monospace" font-size="9.00">{std::basic_string&lt;char, std::char_traits &gt;::operator=(char const*)}</text>
</g>
<!-- Node0x5c540372fbf0&#45;&gt;Node0x5c5403612d80 -->
<g id="edge40" class="edge">
<title>Node0x5c540372fbf0&#45;&gt;Node0x5c5403612d80</title>
<path fill="none" stroke="#4a6fa5" d="M956.88,-2867.79C1011.17,-2862.55 1091.79,-2854.78 1166.61,-2847.56"/>
<polygon fill="#4a6fa5" stroke="#4a6fa5" points="1167.1,-2849.97 1173.84,-2846.86 1166.63,-2845.09 1167.1,-2849.97"/>
</g>
<!-- Node0x5c540363a040&#45;&gt;Node0x5c540372f5a0 -->
<g id="edge48" class="edge">
<title>Node0x5c540363a040&#45;&gt;Node0x5c540372f5a0</title>
<path fill="none" stroke="#4a6fa5" d="M425.06,-1965.19C458.09,-2017.85 554.01,-2175.73 609,-2318 664.11,-2460.57 599.2,-2531.89 695,-2651 736.53,-2702.64 812.05,-2729.84 856.08,-2741.95"/>
<polygon fill="#4a6fa5" stroke="#4a6fa5" points="855.47,-2744.32 862.87,-2743.77 856.74,-2739.59 855.47,-2744.32"/>
</g>
<!-- Node0x5c540363a040&#45;&gt;Node0x5c5403611b50 -->
<g id="edge44" class="edge">
<title>Node0x5c540363a040&#45;&gt;Node0x5c5403611b50</title>
<path fill="none" stroke="#4a6fa5" d="M424.76,-1965.31C456.98,-2018.3 550.94,-2176.95 609,-2318 658.88,-2439.17 594.63,-2515.77 695,-2600 762.4,-2656.56 1003.99,-2621.85 1088,-2648 1129.19,-2660.82 1133.14,-2679.16 1174,-2693 1188.05,-2697.76 1202.96,-2701.84 1217.97,-2705.33"/>
<polygon fill="#4a6fa5" stroke="#4a6fa5" points="1217.51,-2707.74 1224.87,-2706.9 1218.59,-2702.96 1217.51,-2707.74"/>
</g>
<!-- Node0x5c540363a040&#45;&gt;Node0x5c5403741c60 -->
<g id="edge49" class="edge">
<title>Node0x5c540363a040&#45;&gt;Node0x5c5403741c60</title>
<path fill="none" stroke="#4a6fa5" d="M434.56,-1928.84C474.11,-1893.68 559.92,-1812.24 609,-1727 669.94,-1621.15 600.85,-1543.8 695,-1466 850.74,-1337.29 1101.1,-1343.71 1245.79,-1361.1"/>
<polygon fill="#4a6fa5" stroke="#4a6fa5" points="1245.78,-1363.57 1253.03,-1361.99 1246.38,-1358.71 1245.78,-1363.57"/>
</g>
<!-- Node0x5c540363a040&#45;&gt;Node0x5c5403741710 -->
<g id="edge52" class="edge">
<title>Node0x5c540363a040&#45;&gt;Node0x5c5403741710</title>
<path fill="none" stroke="#4a6fa5" d="M485.62,-1957.8C542.36,-1965.74 623.53,-1975.82 695,-1980 869.37,-1990.19 914.09,-1996.22 1088,-1980 1151.98,-1974.03 1223.37,-1960.3 1276.81,-1948.59"/>
<polygon fill="#4a6fa5" stroke="#4a6fa5" points="1277.59,-1950.93 1283.89,-1947.03 1276.53,-1946.14 1277.59,-1950.93"/>
</g>
<!-- Node0x5c54036131f0 -->
<g id="node41" class="node">
<title>Node0x5c54036131f0</title>
<path fill="#f0f4ff" stroke="black" d="M934,-1274C934,-1274 849,-1274 849,-1274 843,-1274 837,-1268 837,-1262 837,-1262 837,-1250 837,-1250 837,-1244 843,-1238 849,-1238 849,-1238 934,-1238 934,-1238 940,-1238 946,-1244 946,-1250 946,-1250 946,-1262 946,-1262 946,-1268 940,-1274 934,-1274"/>
<text text-anchor="middle" x="891.5" y="-1253.8" font-family="Courier,monospace" font-size="9.00">{CubeFile::open()}</text>
</g>
<!-- Node0x5c540363a040&#45;&gt;Node0x5c54036131f0 -->
<g id="edge41" class="edge">
<title>Node0x5c540363a040&#45;&gt;Node0x5c54036131f0</title>
<path fill="none" stroke="#4a6fa5" d="M429.64,-1928.93C466.19,-1887.17 556.21,-1779.65 609,-1676 664.62,-1566.79 625.38,-1514.86 695,-1414 736.67,-1353.63 807.91,-1304.42 851.92,-1277.74"/>
<polygon fill="#4a6fa5" stroke="#4a6fa5" points="853.2,-1279.83 857.94,-1274.13 850.68,-1275.63 853.2,-1279.83"/>
</g>
<!-- Node0x5c5403612b40 -->
<g id="node42" class="node">
<title>Node0x5c5403612b40</title>
<path fill="#f0f4ff" stroke="black" d="M1013,-1516C1013,-1516 770,-1516 770,-1516 764,-1516 758,-1510 758,-1504 758,-1504 758,-1492 758,-1492 758,-1486 764,-1480 770,-1480 770,-1480 1013,-1480 1013,-1480 1019,-1480 1025,-1486 1025,-1492 1025,-1492 1025,-1504 1025,-1504 1025,-1510 1019,-1516 1013,-1516"/>
<text text-anchor="middle" x="891.5" y="-1495.8" font-family="Courier,monospace" font-size="9.00">{basic_string&lt;char, std::char_traits &gt;::clear()}</text>
</g>
<!-- Node0x5c540363a040&#45;&gt;Node0x5c5403612b40 -->
<g id="edge42" class="edge">
<title>Node0x5c540363a040&#45;&gt;Node0x5c5403612b40</title>
<path fill="none" stroke="#4a6fa5" d="M444.88,-1928.99C487.85,-1902.81 564.7,-1850.26 609,-1786 676.89,-1687.53 604.01,-1608.63 695,-1531 711,-1517.35 730.49,-1508.34 750.91,-1502.52"/>
<polygon fill="#4a6fa5" stroke="#4a6fa5" points="751.73,-1504.84 757.86,-1500.67 750.47,-1500.1 751.73,-1504.84"/>
</g>
<!-- Node0x5c5403612fc0 -->
<g id="node43" class="node">
<title>Node0x5c5403612fc0</title>
<path fill="#f0f4ff" stroke="black" d="M1405,-2359C1405,-2359 1315,-2359 1315,-2359 1309,-2359 1303,-2353 1303,-2347 1303,-2347 1303,-2335 1303,-2335 1303,-2329 1309,-2323 1315,-2323 1315,-2323 1405,-2323 1405,-2323 1411,-2323 1417,-2329 1417,-2335 1417,-2335 1417,-2347 1417,-2347 1417,-2353 1411,-2359 1405,-2359"/>
<text text-anchor="middle" x="1360" y="-2338.8" font-family="Courier,monospace" font-size="9.00">{CubeFile::isEOF()}</text>
</g>
<!-- Node0x5c540363a040&#45;&gt;Node0x5c5403612fc0 -->
<g id="edge43" class="edge">
<title>Node0x5c540363a040&#45;&gt;Node0x5c5403612fc0</title>
<path fill="none" stroke="#4a6fa5" d="M485.7,-1962.93C654.13,-2000.23 1060.89,-2091.11 1088,-2105 1196.86,-2160.75 1297.91,-2269.5 1339.27,-2317.39"/>
<polygon fill="#4a6fa5" stroke="#4a6fa5" points="1337.6,-2319.21 1344.02,-2322.92 1341.32,-2316.02 1337.6,-2319.21"/>
</g>
<!-- Node0x5c5403743870 -->
<g id="node44" class="node">
<title>Node0x5c5403743870</title>
<path fill="#f0f4ff" stroke="black" d="M906.5,-1646C906.5,-1646 876.5,-1646 876.5,-1646 870.5,-1646 864.5,-1640 864.5,-1634 864.5,-1634 864.5,-1622 864.5,-1622 864.5,-1616 870.5,-1610 876.5,-1610 876.5,-1610 906.5,-1610 906.5,-1610 912.5,-1610 918.5,-1616 918.5,-1622 918.5,-1622 918.5,-1634 918.5,-1634 918.5,-1640 912.5,-1646 906.5,-1646"/>
<text text-anchor="middle" x="891.5" y="-1625.8" font-family="Courier,monospace" font-size="9.00">{ftell}</text>
</g>
<!-- Node0x5c540363a040&#45;&gt;Node0x5c5403743870 -->
<g id="edge45" class="edge">
<title>Node0x5c540363a040&#45;&gt;Node0x5c5403743870</title>
<path fill="none" stroke="#4a6fa5" d="M439.63,-1928.79C478.87,-1900.73 554.26,-1844.07 609,-1786 653.51,-1738.78 640.41,-1703.1 695,-1668 745.03,-1635.83 815.89,-1628.82 857.13,-1627.69"/>
<polygon fill="#4a6fa5" stroke="#4a6fa5" points="857.28,-1630.14 864.23,-1627.55 857.18,-1625.24 857.28,-1630.14"/>
</g>
<!-- Node0x5c5403744a10 -->
<g id="node45" class="node">
<title>Node0x5c5403744a10</title>
<path fill="#f0f4ff" stroke="black" d="M981.5,-2520C981.5,-2520 801.5,-2520 801.5,-2520 795.5,-2520 789.5,-2514 789.5,-2508 789.5,-2508 789.5,-2496 789.5,-2496 789.5,-2490 795.5,-2484 801.5,-2484 801.5,-2484 981.5,-2484 981.5,-2484 987.5,-2484 993.5,-2490 993.5,-2496 993.5,-2496 993.5,-2508 993.5,-2508 993.5,-2514 987.5,-2520 981.5,-2520"/>
<text text-anchor="middle" x="891.5" y="-2499.8" font-family="Courier,monospace" font-size="9.00">{CubeFile::getNextLine[abi:cxx11]()}</text>
</g>
<!-- Node0x5c540363a040&#45;&gt;Node0x5c5403744a10 -->
<g id="edge46" class="edge">
<title>Node0x5c540363a040&#45;&gt;Node0x5c5403744a10</title>
<path fill="none" stroke="#4a6fa5" d="M423.3,-1965C456.26,-2024.58 568.21,-2219.1 695,-2352 744.96,-2404.37 814.27,-2453.03 855.53,-2480.01"/>
<polygon fill="#4a6fa5" stroke="#4a6fa5" points="854.21,-2482.07 861.41,-2483.84 856.88,-2477.97 854.21,-2482.07"/>
</g>
<!-- Node0x5c54037445d0 -->
<g id="node46" class="node">
<title>Node0x5c54037445d0</title>
<path fill="#f0f4ff" stroke="black" d="M1073,-2337C1073,-2337 710,-2337 710,-2337 704,-2337 698,-2331 698,-2325 698,-2325 698,-2313 698,-2313 698,-2307 704,-2301 710,-2301 710,-2301 1073,-2301 1073,-2301 1079,-2301 1085,-2307 1085,-2313 1085,-2313 1085,-2325 1085,-2325 1085,-2331 1079,-2337 1073,-2337"/>
<text text-anchor="middle" x="891.5" y="-2316.8" font-family="Courier,monospace" font-size="9.00">{std::basic_string&lt;char, std::char_traits &gt;::operator[](unsigned long)}</text>
</g>
<!-- Node0x5c540363a040&#45;&gt;Node0x5c54037445d0 -->
<g id="edge47" class="edge">
<title>Node0x5c540363a040&#45;&gt;Node0x5c54037445d0</title>
<path fill="none" stroke="#4a6fa5" d="M422.46,-1965.27C452.08,-2023.49 553.07,-2205.6 695,-2287 702.46,-2291.28 710.32,-2295.03 718.45,-2298.31"/>
<polygon fill="#4a6fa5" stroke="#4a6fa5" points="717.92,-2300.73 725.33,-2300.95 719.67,-2296.15 717.92,-2300.73"/>
</g>
<!-- Node0x5c5403745f20 -->
<g id="node47" class="node">
<title>Node0x5c5403745f20</title>
<path fill="#f0f4ff" stroke="black" d="M1076,-1770C1076,-1770 707,-1770 707,-1770 701,-1770 695,-1764 695,-1758 695,-1758 695,-1746 695,-1746 695,-1740 701,-1734 707,-1734 707,-1734 1076,-1734 1076,-1734 1082,-1734 1088,-1740 1088,-1746 1088,-1746 1088,-1758 1088,-1758 1088,-1764 1082,-1770 1076,-1770"/>
<text text-anchor="middle" x="891.5" y="-1749.8" font-family="Courier,monospace" font-size="9.00">{bool std::operator==&lt;char, std::char_traits &gt;(std::basic_string&lt;cha...}</text>
</g>
<!-- Node0x5c540363a040&#45;&gt;Node0x5c5403745f20 -->
<g id="edge50" class="edge">
<title>Node0x5c540363a040&#45;&gt;Node0x5c5403745f20</title>
<path fill="none" stroke="#4a6fa5" d="M438.01,-1928.81C485.15,-1894.8 592.84,-1821.68 695,-1785 709.54,-1779.78 724.99,-1775.38 740.58,-1771.66"/>
<polygon fill="#4a6fa5" stroke="#4a6fa5" points="741.48,-1773.97 747.75,-1770 740.38,-1769.19 741.48,-1773.97"/>
</g>
<!-- Node0x5c54037433a0 -->
<g id="node48" class="node">
<title>Node0x5c54037433a0</title>
<path fill="#f0f4ff" stroke="black" d="M1375,-1212C1375,-1212 1345,-1212 1345,-1212 1339,-1212 1333,-1206 1333,-1200 1333,-1200 1333,-1188 1333,-1188 1333,-1182 1339,-1176 1345,-1176 1345,-1176 1375,-1176 1375,-1176 1381,-1176 1387,-1182 1387,-1188 1387,-1188 1387,-1200 1387,-1200 1387,-1206 1381,-1212 1375,-1212"/>
<text text-anchor="middle" x="1360" y="-1191.8" font-family="Courier,monospace" font-size="9.00">{fseek}</text>
</g>
<!-- Node0x5c540363a040&#45;&gt;Node0x5c54037433a0 -->
<g id="edge51" class="edge">
<title>Node0x5c540363a040&#45;&gt;Node0x5c54037433a0</title>
<path fill="none" stroke="#4a6fa5" d="M431.18,-1928.76C470.07,-1887.5 563.24,-1782.31 609,-1676 689.85,-1488.17 540.45,-1357.91 695,-1224 790.03,-1141.66 1204.49,-1177.77 1325.63,-1190.33"/>
<polygon fill="#4a6fa5" stroke="#4a6fa5" points="1325.63,-1192.79 1332.85,-1191.09 1326.14,-1187.92 1325.63,-1192.79"/>
</g>
<!-- Node0x5c5403744f10 -->
<g id="node49" class="node">
<title>Node0x5c5403744f10</title>
<path fill="#f0f4ff" stroke="black" d="M1015.5,-1965C1015.5,-1965 767.5,-1965 767.5,-1965 761.5,-1965 755.5,-1959 755.5,-1953 755.5,-1953 755.5,-1941 755.5,-1941 755.5,-1935 761.5,-1929 767.5,-1929 767.5,-1929 1015.5,-1929 1015.5,-1929 1021.5,-1929 1027.5,-1935 1027.5,-1941 1027.5,-1941 1027.5,-1953 1027.5,-1953 1027.5,-1959 1021.5,-1965 1015.5,-1965"/>
<text text-anchor="middle" x="891.5" y="-1944.8" font-family="Courier,monospace" font-size="9.00">{basic_string&lt;char, std::char_traits &gt;::substr()}</text>
</g>
<!-- Node0x5c540363a040&#45;&gt;Node0x5c5403744f10 -->
<g id="edge53" class="edge">
<title>Node0x5c540363a040&#45;&gt;Node0x5c5403744f10</title>
<path fill="none" stroke="#4a6fa5" d="M485.69,-1947C554.97,-1947 661.54,-1947 747.95,-1947"/>
<polygon fill="#4a6fa5" stroke="#4a6fa5" points="748.18,-1949.45 755.18,-1947 748.18,-1944.55 748.18,-1949.45"/>
</g>
<!-- Node0x5c5403746420 -->
<g id="node50" class="node">
<title>Node0x5c5403746420</title>
<path fill="#f0f4ff" stroke="black" d="M906.5,-2207C906.5,-2207 876.5,-2207 876.5,-2207 870.5,-2207 864.5,-2201 864.5,-2195 864.5,-2195 864.5,-2183 864.5,-2183 864.5,-2177 870.5,-2171 876.5,-2171 876.5,-2171 906.5,-2171 906.5,-2171 912.5,-2171 918.5,-2177 918.5,-2183 918.5,-2183 918.5,-2195 918.5,-2195 918.5,-2201 912.5,-2207 906.5,-2207"/>
<text text-anchor="middle" x="891.5" y="-2186.8" font-family="Courier,monospace" font-size="9.00">{atof}</text>
</g>
<!-- Node0x5c540363a040&#45;&gt;Node0x5c5403746420 -->
<g id="edge54" class="edge">
<title>Node0x5c540363a040&#45;&gt;Node0x5c5403746420</title>
<path fill="none" stroke="#4a6fa5" d="M432.52,-1965.15C475.51,-2005.11 585.04,-2100.93 695,-2149 748.94,-2172.58 817.41,-2182.48 857.35,-2186.47"/>
<polygon fill="#4a6fa5" stroke="#4a6fa5" points="857.27,-2188.93 864.47,-2187.15 857.73,-2184.05 857.27,-2188.93"/>
</g>
<!-- Node0x5c5403747900 -->
<g id="node51" class="node">
<title>Node0x5c5403747900</title>
<path fill="#f0f4ff" stroke="black" d="M942,-2272C942,-2272 841,-2272 841,-2272 835,-2272 829,-2266 829,-2260 829,-2260 829,-2248 829,-2248 829,-2242 835,-2236 841,-2236 841,-2236 942,-2236 942,-2236 948,-2236 954,-2242 954,-2248 954,-2248 954,-2260 954,-2260 954,-2266 948,-2272 942,-2272"/>
<text text-anchor="middle" x="891.5" y="-2251.8" font-family="Courier,monospace" font-size="9.00">{CubeFile::getNext()}</text>
</g>
<!-- Node0x5c540363a040&#45;&gt;Node0x5c5403747900 -->
<g id="edge55" class="edge">
<title>Node0x5c540363a040&#45;&gt;Node0x5c5403747900</title>
<path fill="none" stroke="#4a6fa5" d="M425.85,-1965.25C461.09,-2015.74 567.87,-2157.74 695,-2222 734.15,-2241.79 782.83,-2249.8 821.81,-2252.86"/>
<polygon fill="#4a6fa5" stroke="#4a6fa5" points="821.82,-2255.32 828.98,-2253.38 822.17,-2250.43 821.82,-2255.32"/>
</g>
<!-- Node0x5c54037466a0 -->
<g id="node52" class="node">
<title>Node0x5c54037466a0</title>
<path fill="#f0f4ff" stroke="black" d="M906.5,-1900C906.5,-1900 876.5,-1900 876.5,-1900 870.5,-1900 864.5,-1894 864.5,-1888 864.5,-1888 864.5,-1876 864.5,-1876 864.5,-1870 870.5,-1864 876.5,-1864 876.5,-1864 906.5,-1864 906.5,-1864 912.5,-1864 918.5,-1870 918.5,-1876 918.5,-1876 918.5,-1888 918.5,-1888 918.5,-1894 912.5,-1900 906.5,-1900"/>
<text text-anchor="middle" x="891.5" y="-1879.8" font-family="Courier,monospace" font-size="9.00">{atoll}</text>
</g>
<!-- Node0x5c540363a040&#45;&gt;Node0x5c54037466a0 -->
<g id="edge56" class="edge">
<title>Node0x5c540363a040&#45;&gt;Node0x5c54037466a0</title>
<path fill="none" stroke="#4a6fa5" d="M485.69,-1937.16C590.52,-1922.88 780.72,-1896.96 857.27,-1886.53"/>
<polygon fill="#4a6fa5" stroke="#4a6fa5" points="857.71,-1888.94 864.31,-1885.57 857.05,-1884.09 857.71,-1888.94"/>
</g>
<!-- Node0x5c54037472c0 -->
<g id="node53" class="node">
<title>Node0x5c54037472c0</title>
<path fill="#f0f4ff" stroke="black" d="M1518,-2489C1518,-2489 1202,-2489 1202,-2489 1196,-2489 1190,-2483 1190,-2477 1190,-2477 1190,-2465 1190,-2465 1190,-2459 1196,-2453 1202,-2453 1202,-2453 1518,-2453 1518,-2453 1524,-2453 1530,-2459 1530,-2465 1530,-2465 1530,-2477 1530,-2477 1530,-2483 1524,-2489 1518,-2489"/>
<text text-anchor="middle" x="1360" y="-2468.8" font-family="Courier,monospace" font-size="9.00">{std::basic_string&lt;char, std::char_traits &gt;::operator+=(char)}</text>
</g>
<!-- Node0x5c540363a040&#45;&gt;Node0x5c54037472c0 -->
<g id="edge57" class="edge">
<title>Node0x5c540363a040&#45;&gt;Node0x5c54037472c0</title>
<path fill="none" stroke="#4a6fa5" d="M445.38,-1965.1C496.5,-1993.38 600.64,-2048.02 695,-2079 864.19,-2134.54 955.94,-2037.54 1088,-2157 1185.17,-2244.9 1075.75,-2352.3 1174,-2439 1178.21,-2442.72 1182.69,-2446.08 1187.39,-2449.11"/>
<polygon fill="#4a6fa5" stroke="#4a6fa5" points="1186.19,-2451.25 1193.45,-2452.79 1188.73,-2447.06 1186.19,-2451.25"/>
</g>
<!-- Node0x5c5403745ca0 -->
<g id="node54" class="node">
<title>Node0x5c5403745ca0</title>
<path fill="#f0f4ff" stroke="black" d="M1068,-1835C1068,-1835 715,-1835 715,-1835 709,-1835 703,-1829 703,-1823 703,-1823 703,-1811 703,-1811 703,-1805 709,-1799 715,-1799 715,-1799 1068,-1799 1068,-1799 1074,-1799 1080,-1805 1080,-1811 1080,-1811 1080,-1823 1080,-1823 1080,-1829 1074,-1835 1068,-1835"/>
<text text-anchor="middle" x="891.5" y="-1814.8" font-family="Courier,monospace" font-size="9.00">{std::basic_string&lt;char, std::char_traits &gt;::operator+=(char const*)}</text>
</g>
<!-- Node0x5c540363a040&#45;&gt;Node0x5c5403745ca0 -->
<g id="edge58" class="edge">
<title>Node0x5c540363a040&#45;&gt;Node0x5c5403745ca0</title>
<path fill="none" stroke="#4a6fa5" d="M458.63,-1928.86C513.65,-1907.36 609.85,-1871.7 695,-1850 715.15,-1844.86 736.68,-1840.31 757.82,-1836.36"/>
<polygon fill="#4a6fa5" stroke="#4a6fa5" points="758.53,-1838.72 764.97,-1835.04 757.64,-1833.9 758.53,-1838.72"/>
</g>
<!-- Node0x5c54037461a0 -->
<g id="node55" class="node">
<title>Node0x5c54037461a0</title>
<path fill="#f0f4ff" stroke="black" d="M1076,-1581C1076,-1581 707,-1581 707,-1581 701,-1581 695,-1575 695,-1569 695,-1569 695,-1557 695,-1557 695,-1551 701,-1545 707,-1545 707,-1545 1076,-1545 1076,-1545 1082,-1545 1088,-1551 1088,-1557 1088,-1557 1088,-1569 1088,-1569 1088,-1575 1082,-1581 1076,-1581"/>
<text text-anchor="middle" x="891.5" y="-1560.8" font-family="Courier,monospace" font-size="9.00">{std::basic_string&lt;char, std::char_traits &gt;::operator+=(std::basic_s...}</text>
</g>
<!-- Node0x5c540363a040&#45;&gt;Node0x5c54037461a0 -->
<g id="edge59" class="edge">
<title>Node0x5c540363a040&#45;&gt;Node0x5c54037461a0</title>
<path fill="none" stroke="#4a6fa5" d="M443.28,-1928.8C485.06,-1902.01 561.29,-1848.32 609,-1786 665.35,-1712.4 621.57,-1652.57 695,-1596 700.62,-1591.67 706.61,-1587.82 712.86,-1584.4"/>
<polygon fill="#4a6fa5" stroke="#4a6fa5" points="714.11,-1586.52 719.2,-1581.13 711.86,-1582.16 714.11,-1586.52"/>
</g>
<!-- Node0x5c5403745410 -->
<g id="node56" class="node">
<title>Node0x5c5403745410</title>
<path fill="#f0f4ff" stroke="black" d="M1002.5,-2585C1002.5,-2585 780.5,-2585 780.5,-2585 774.5,-2585 768.5,-2579 768.5,-2573 768.5,-2573 768.5,-2561 768.5,-2561 768.5,-2555 774.5,-2549 780.5,-2549 780.5,-2549 1002.5,-2549 1002.5,-2549 1008.5,-2549 1014.5,-2555 1014.5,-2561 1014.5,-2561 1014.5,-2573 1014.5,-2573 1014.5,-2579 1008.5,-2585 1002.5,-2585"/>
<text text-anchor="middle" x="891.5" y="-2564.8" font-family="Courier,monospace" font-size="9.00">{CubeFile::getTitle[abi:cxx11](char const*)}</text>
</g>
<!-- Node0x5c540363a040&#45;&gt;Node0x5c5403745410 -->
<g id="edge60" class="edge">
<title>Node0x5c540363a040&#45;&gt;Node0x5c5403745410</title>
<path fill="none" stroke="#4a6fa5" d="M423.98,-1965.18C454.48,-2018.43 545.1,-2179.1 609,-2318 652.36,-2412.25 614.19,-2469.94 695,-2535 713.96,-2550.26 737.37,-2559.53 761.33,-2564.96"/>
<polygon fill="#4a6fa5" stroke="#4a6fa5" points="761.08,-2567.41 768.44,-2566.45 762.09,-2562.61 761.08,-2567.41"/>
</g>
<!-- Node0x5c54037481c0 -->
<g id="node58" class="node">
<title>Node0x5c54037481c0</title>
<path fill="#f0f4ff" stroke="black" d="M918.5,-1150C918.5,-1150 864.5,-1150 864.5,-1150 858.5,-1150 852.5,-1144 852.5,-1138 852.5,-1138 852.5,-1126 852.5,-1126 852.5,-1120 858.5,-1114 864.5,-1114 864.5,-1114 918.5,-1114 918.5,-1114 924.5,-1114 930.5,-1120 930.5,-1126 930.5,-1126 930.5,-1138 930.5,-1138 930.5,-1144 924.5,-1150 918.5,-1150"/>
<text text-anchor="middle" x="891.5" y="-1129.8" font-family="Courier,monospace" font-size="9.00">{icIsNear()}</text>
</g>
<!-- Node0x5c540360d9b0&#45;&gt;Node0x5c54037481c0 -->
<g id="edge61" class="edge">
<title>Node0x5c540360d9b0&#45;&gt;Node0x5c54037481c0</title>
<path fill="none" stroke="#4a6fa5" d="M504.23,-1244.96C537.8,-1240.23 575.77,-1232.76 609,-1221 650.47,-1206.33 653.83,-1187.49 695,-1172 744.71,-1153.3 804.98,-1142.65 845.35,-1137.12"/>
<polygon fill="#4a6fa5" stroke="#4a6fa5" points="845.79,-1139.53 852.4,-1136.18 845.14,-1134.68 845.79,-1139.53"/>
</g>
<!-- Node0x5c5403747b80 -->
<g id="node71" class="node">
<title>Node0x5c5403747b80</title>
<path fill="#f0f4ff" stroke="black" d="M1031,-589C1031,-589 752,-589 752,-589 746,-589 740,-583 740,-577 740,-577 740,-565 740,-565 740,-559 746,-553 752,-553 752,-553 1031,-553 1031,-553 1037,-553 1043,-559 1043,-565 1043,-565 1043,-577 1043,-577 1043,-583 1037,-589 1031,-589"/>
<text text-anchor="middle" x="891.5" y="-568.8" font-family="Courier,monospace" font-size="9.00">{basic_string&lt;char, std::char_traits &gt;::basic_string()}</text>
</g>
<!-- Node0x5c540360f750&#45;&gt;Node0x5c5403747b80 -->
<g id="edge89" class="edge">
<title>Node0x5c540360f750&#45;&gt;Node0x5c5403747b80</title>
<path fill="none" stroke="#4a6fa5" d="M517,-545.16C579.92,-549.51 661.52,-555.16 732.4,-560.06"/>
<polygon fill="#4a6fa5" stroke="#4a6fa5" points="732.51,-562.53 739.66,-560.56 732.84,-557.64 732.51,-562.53"/>
</g>
<!-- Node0x5c540374adb0 -->
<g id="node72" class="node">
<title>Node0x5c540374adb0</title>
<path fill="#f0f4ff" stroke="black" d="M1015.5,-459C1015.5,-459 767.5,-459 767.5,-459 761.5,-459 755.5,-453 755.5,-447 755.5,-447 755.5,-435 755.5,-435 755.5,-429 761.5,-423 767.5,-423 767.5,-423 1015.5,-423 1015.5,-423 1021.5,-423 1027.5,-429 1027.5,-435 1027.5,-435 1027.5,-447 1027.5,-447 1027.5,-453 1021.5,-459 1015.5,-459"/>
<text text-anchor="middle" x="891.5" y="-438.8" font-family="Courier,monospace" font-size="9.00">{basic_string&lt;char, std::char_traits &gt;::append()}</text>
</g>
<!-- Node0x5c5403611910&#45;&gt;Node0x5c540374adb0 -->
<g id="edge81" class="edge">
<title>Node0x5c5403611910&#45;&gt;Node0x5c540374adb0</title>
<path fill="none" stroke="#4a6fa5" d="M609.23,-421.54C655.76,-424.76 704.52,-428.13 748.13,-431.15"/>
<polygon fill="#4a6fa5" stroke="#4a6fa5" points="748.22,-433.61 755.37,-431.65 748.55,-428.72 748.22,-433.61"/>
</g>
<!-- Node0x5c540374bc50 -->
<g id="node73" class="node">
<title>Node0x5c540374bc50</title>
<path fill="#f0f4ff" stroke="black" d="M1031,-394C1031,-394 752,-394 752,-394 746,-394 740,-388 740,-382 740,-382 740,-370 740,-370 740,-364 746,-358 752,-358 752,-358 1031,-358 1031,-358 1037,-358 1043,-364 1043,-370 1043,-370 1043,-382 1043,-382 1043,-388 1037,-394 1031,-394"/>
<text text-anchor="middle" x="891.5" y="-373.8" font-family="Courier,monospace" font-size="9.00">{basic_string&lt;char, std::char_traits &gt;::basic_string()}</text>
</g>
<!-- Node0x5c5403611910&#45;&gt;Node0x5c540374bc50 -->
<g id="edge82" class="edge">
<title>Node0x5c5403611910&#45;&gt;Node0x5c540374bc50</title>
<path fill="none" stroke="#4a6fa5" d="M609.23,-394.87C650.26,-392.12 693.04,-389.25 732.48,-386.6"/>
<polygon fill="#4a6fa5" stroke="#4a6fa5" points="732.99,-389.02 739.81,-386.11 732.66,-384.13 732.99,-389.02"/>
</g>
<!-- Node0x5c540374b750 -->
<g id="node59" class="node">
<title>Node0x5c540374b750</title>
<path fill="#f0f4ff" stroke="black" d="M1005,-3081C1005,-3081 778,-3081 778,-3081 772,-3081 766,-3075 766,-3069 766,-3069 766,-3057 766,-3057 766,-3051 772,-3045 778,-3045 778,-3045 1005,-3045 1005,-3045 1011,-3045 1017,-3051 1017,-3057 1017,-3057 1017,-3069 1017,-3069 1017,-3075 1011,-3081 1005,-3081"/>
<text text-anchor="middle" x="891.5" y="-3060.8" font-family="Courier,monospace" font-size="9.00">{char_traits &gt;::_Alloc_hider::_Alloc_hider()}</text>
</g>
<!-- Node0x5c54036114b0&#45;&gt;Node0x5c540374b750 -->
<g id="edge84" class="edge">
<title>Node0x5c54036114b0&#45;&gt;Node0x5c540374b750</title>
<path fill="none" stroke="#4a6fa5" d="M546.05,-3063C612.42,-3063 692.52,-3063 758.78,-3063"/>
<polygon fill="#4a6fa5" stroke="#4a6fa5" points="758.96,-3065.45 765.96,-3063 758.96,-3060.55 758.96,-3065.45"/>
</g>
<!-- Node0x5c540374b610 -->
<g id="node60" class="node">
<title>Node0x5c540374b610</title>
<path fill="#f0f4ff" stroke="black" d="M960.5,-3016C960.5,-3016 822.5,-3016 822.5,-3016 816.5,-3016 810.5,-3010 810.5,-3004 810.5,-3004 810.5,-2992 810.5,-2992 810.5,-2986 816.5,-2980 822.5,-2980 822.5,-2980 960.5,-2980 960.5,-2980 966.5,-2980 972.5,-2986 972.5,-2992 972.5,-2992 972.5,-3004 972.5,-3004 972.5,-3010 966.5,-3016 960.5,-3016"/>
<text text-anchor="middle" x="891.5" y="-2995.8" font-family="Courier,monospace" font-size="9.00">{std::__throw_logic_error()}</text>
</g>
<!-- Node0x5c54036114b0&#45;&gt;Node0x5c540374b610 -->
<g id="edge85" class="edge">
<title>Node0x5c54036114b0&#45;&gt;Node0x5c540374b610</title>
<path fill="none" stroke="#4a6fa5" d="M545.74,-3044.98C627.84,-3033.79 731.06,-3019.73 803.06,-3009.92"/>
<polygon fill="#4a6fa5" stroke="#4a6fa5" points="803.76,-3012.29 810.36,-3008.92 803.1,-3007.44 803.76,-3012.29"/>
</g>
<!-- Node0x5c540374d410 -->
<g id="node61" class="node">
<title>Node0x5c540374d410</title>
<path fill="#f0f4ff" stroke="black" d="M1065.5,-3270C1065.5,-3270 717.5,-3270 717.5,-3270 711.5,-3270 705.5,-3264 705.5,-3258 705.5,-3258 705.5,-3246 705.5,-3246 705.5,-3240 711.5,-3234 717.5,-3234 717.5,-3234 1065.5,-3234 1065.5,-3234 1071.5,-3234 1077.5,-3240 1077.5,-3246 1077.5,-3246 1077.5,-3258 1077.5,-3258 1077.5,-3264 1071.5,-3270 1065.5,-3270"/>
<text text-anchor="middle" x="891.5" y="-3249.8" font-family="Courier,monospace" font-size="9.00">{basic_string&lt;char, std::char_traits &gt;::_M_construct&lt;char const*&gt;()}</text>
</g>
<!-- Node0x5c54036114b0&#45;&gt;Node0x5c540374d410 -->
<g id="edge88" class="edge">
<title>Node0x5c54036114b0&#45;&gt;Node0x5c540374d410</title>
<path fill="none" stroke="#4a6fa5" d="M459.24,-3081.12C548.27,-3116.4 744.37,-3194.1 838.32,-3231.32"/>
<polygon fill="#4a6fa5" stroke="#4a6fa5" points="837.49,-3233.63 844.9,-3233.93 839.3,-3229.08 837.49,-3233.63"/>
</g>
<!-- Node0x5c540374bb10 -->
<g id="node74" class="node">
<title>Node0x5c540374bb10</title>
<path fill="#f0f4ff" stroke="black" d="M1034,-3146C1034,-3146 749,-3146 749,-3146 743,-3146 737,-3140 737,-3134 737,-3134 737,-3122 737,-3122 737,-3116 743,-3110 749,-3110 749,-3110 1034,-3110 1034,-3110 1040,-3110 1046,-3116 1046,-3122 1046,-3122 1046,-3134 1046,-3134 1046,-3140 1040,-3146 1034,-3146"/>
<text text-anchor="middle" x="891.5" y="-3125.8" font-family="Courier,monospace" font-size="9.00">{basic_string&lt;char, std::char_traits &gt;::_M_local_data()}</text>
</g>
<!-- Node0x5c54036114b0&#45;&gt;Node0x5c540374bb10 -->
<g id="edge83" class="edge">
<title>Node0x5c54036114b0&#45;&gt;Node0x5c540374bb10</title>
<path fill="none" stroke="#4a6fa5" d="M545.74,-3081.02C609.58,-3089.72 686.2,-3100.16 750.97,-3108.99"/>
<polygon fill="#4a6fa5" stroke="#4a6fa5" points="750.74,-3111.43 758.01,-3109.95 751.4,-3106.57 750.74,-3111.43"/>
</g>
<!-- Node0x5c540374c8d0 -->
<g id="node75" class="node">
<title>Node0x5c540374c8d0</title>
<path fill="#f0f4ff" stroke="black" d="M1007.5,-3335C1007.5,-3335 775.5,-3335 775.5,-3335 769.5,-3335 763.5,-3329 763.5,-3323 763.5,-3323 763.5,-3311 763.5,-3311 763.5,-3305 769.5,-3299 775.5,-3299 775.5,-3299 1007.5,-3299 1007.5,-3299 1013.5,-3299 1019.5,-3305 1019.5,-3311 1019.5,-3311 1019.5,-3323 1019.5,-3323 1019.5,-3329 1013.5,-3335 1007.5,-3335"/>
<text text-anchor="middle" x="891.5" y="-3314.8" font-family="Courier,monospace" font-size="9.00">{char_traits &gt;::_Alloc_hider::~_Alloc_hider()}</text>
</g>
<!-- Node0x5c54036114b0&#45;&gt;Node0x5c540374c8d0 -->
<g id="edge86" class="edge">
<title>Node0x5c54036114b0&#45;&gt;Node0x5c540374c8d0</title>
<path fill="none" stroke="#4a6fa5" d="M429.83,-3081.06C470.12,-3124.31 579.38,-3234.06 695,-3285 714.24,-3293.48 735.44,-3299.73 756.57,-3304.34"/>
<polygon fill="#4a6fa5" stroke="#4a6fa5" points="756.07,-3306.74 763.42,-3305.78 757.07,-3301.94 756.07,-3306.74"/>
</g>
<!-- Node0x5c540374da50 -->
<g id="node76" class="node">
<title>Node0x5c540374da50</title>
<path fill="#f0f4ff" stroke="black" d="M1444.5,-2613C1444.5,-2613 1275.5,-2613 1275.5,-2613 1269.5,-2613 1263.5,-2607 1263.5,-2601 1263.5,-2601 1263.5,-2589 1263.5,-2589 1263.5,-2583 1269.5,-2577 1275.5,-2577 1275.5,-2577 1444.5,-2577 1444.5,-2577 1450.5,-2577 1456.5,-2583 1456.5,-2589 1456.5,-2589 1456.5,-2601 1456.5,-2601 1456.5,-2607 1450.5,-2613 1444.5,-2613"/>
<text text-anchor="middle" x="1360" y="-2592.8" font-family="Courier,monospace" font-size="9.00">{std::char_traits&lt;char&gt;::length()}</text>
</g>
<!-- Node0x5c54036114b0&#45;&gt;Node0x5c540374da50 -->
<g id="edge87" class="edge">
<title>Node0x5c54036114b0&#45;&gt;Node0x5c540374da50</title>
<path fill="none" stroke="#4a6fa5" d="M429.81,-3044.93C470.04,-3001.65 579.19,-2891.96 695,-2842 857.18,-2772.03 942.89,-2883.69 1088,-2783 1152.73,-2738.09 1109.9,-2673.8 1174,-2628 1197.74,-2611.04 1227.46,-2601.9 1256.1,-2597.19"/>
<polygon fill="#4a6fa5" stroke="#4a6fa5" points="1256.8,-2599.56 1263.35,-2596.09 1256.06,-2594.72 1256.8,-2599.56"/>
</g>
<!-- Node0x5c5403611010&#45;&gt;Node0x5c5403747b80 -->
<g id="edge80" class="edge">
<title>Node0x5c5403611010&#45;&gt;Node0x5c5403747b80</title>
<path fill="none" stroke="#4a6fa5" d="M522.04,-595.72C584.36,-591.54 663.74,-586.21 732.85,-581.58"/>
<polygon fill="#4a6fa5" stroke="#4a6fa5" points="733.11,-584.01 739.93,-581.1 732.78,-579.13 733.11,-584.01"/>
</g>
<!-- Node0x5c5403748000 -->
<g id="node70" class="node">
<title>Node0x5c5403748000</title>
<path fill="#f0f4ff" stroke="black" d="M1376.5,-3556C1376.5,-3556 1343.5,-3556 1343.5,-3556 1337.5,-3556 1331.5,-3550 1331.5,-3544 1331.5,-3544 1331.5,-3532 1331.5,-3532 1331.5,-3526 1337.5,-3520 1343.5,-3520 1343.5,-3520 1376.5,-3520 1376.5,-3520 1382.5,-3520 1388.5,-3526 1388.5,-3532 1388.5,-3532 1388.5,-3544 1388.5,-3544 1388.5,-3550 1382.5,-3556 1376.5,-3556"/>
<text text-anchor="middle" x="1360" y="-3535.8" font-family="Courier,monospace" font-size="9.00">{fclose}</text>
</g>
<!-- Node0x5c5403611760&#45;&gt;Node0x5c5403748000 -->
<g id="edge79" class="edge">
<title>Node0x5c5403611760&#45;&gt;Node0x5c5403748000</title>
<path fill="none" stroke="#4a6fa5" d="M948.77,-3538C1046.2,-3538 1243.55,-3538 1323.84,-3538"/>
<polygon fill="#4a6fa5" stroke="#4a6fa5" points="1324.24,-3540.45 1331.24,-3538 1324.24,-3535.55 1324.24,-3540.45"/>
</g>
<!-- Node0x5c5403610b70&#45;&gt;Node0x5c540372f5a0 -->
<g id="edge69" class="edge">
<title>Node0x5c5403610b70&#45;&gt;Node0x5c540372f5a0</title>
<path fill="none" stroke="#4a6fa5" d="M430.99,-2368.06C466.47,-2405.13 548.68,-2493.1 609,-2574 651.75,-2631.33 636.15,-2669.36 695,-2710 743.54,-2743.52 814,-2750.15 855.75,-2750.82"/>
<polygon fill="#4a6fa5" stroke="#4a6fa5" points="855.92,-2753.28 862.94,-2750.89 855.96,-2748.38 855.92,-2753.28"/>
</g>
<!-- Node0x5c5403610b70&#45;&gt;Node0x5c5403611b50 -->
<g id="edge66" class="edge">
<title>Node0x5c5403610b70&#45;&gt;Node0x5c5403611b50</title>
<path fill="none" stroke="#4a6fa5" d="M429.07,-2368.05C482.99,-2430.36 660.38,-2633.64 695,-2651 780.3,-2693.79 1030.29,-2712.14 1198.01,-2719.8"/>
<polygon fill="#4a6fa5" stroke="#4a6fa5" points="1198.33,-2722.26 1205.43,-2720.13 1198.55,-2717.37 1198.33,-2722.26"/>
</g>
<!-- Node0x5c5403610b70&#45;&gt;Node0x5c5403741c60 -->
<g id="edge67" class="edge">
<title>Node0x5c5403610b70&#45;&gt;Node0x5c5403741c60</title>
<path fill="none" stroke="#4a6fa5" d="M424.6,-2331.67C456.4,-2278.66 549.34,-2120.03 609,-1980 656.71,-1868.03 601.92,-1798.43 695,-1720 830.07,-1606.19 931.03,-1741.98 1088,-1661 1209.51,-1598.32 1307.79,-1459.94 1344.01,-1404.08"/>
<polygon fill="#4a6fa5" stroke="#4a6fa5" points="1346.19,-1405.22 1347.91,-1398 1342.07,-1402.57 1346.19,-1405.22"/>
</g>
<!-- Node0x5c5403610b70&#45;&gt;Node0x5c5403741710 -->
<g id="edge65" class="edge">
<title>Node0x5c5403610b70&#45;&gt;Node0x5c5403741710</title>
<path fill="none" stroke="#4a6fa5" d="M488.05,-2359.06C641.49,-2376.29 986.74,-2407.39 1088,-2352 1250.34,-2263.21 1329.73,-2031.07 1352.16,-1954.16"/>
<polygon fill="#4a6fa5" stroke="#4a6fa5" points="1354.58,-1954.61 1354.15,-1947.21 1349.87,-1953.26 1354.58,-1954.61"/>
</g>
<!-- Node0x5c5403610b70&#45;&gt;Node0x5c5403612fc0 -->
<g id="edge62" class="edge">
<title>Node0x5c5403610b70&#45;&gt;Node0x5c5403612fc0</title>
<path fill="none" stroke="#4a6fa5" d="M488.23,-2368C544.66,-2380.63 624.19,-2396.39 695,-2403 868.91,-2419.23 915.64,-2431.28 1088,-2403 1127.8,-2396.47 1134.93,-2384.01 1174,-2374 1214,-2363.75 1259.66,-2355.57 1295.62,-2349.92"/>
<polygon fill="#4a6fa5" stroke="#4a6fa5" points="1296.13,-2352.32 1302.67,-2348.82 1295.38,-2347.47 1296.13,-2352.32"/>
</g>
<!-- Node0x5c5403610b70&#45;&gt;Node0x5c5403744a10 -->
<g id="edge63" class="edge">
<title>Node0x5c5403610b70&#45;&gt;Node0x5c5403744a10</title>
<path fill="none" stroke="#4a6fa5" d="M452.35,-2368.01C505.94,-2392.26 606.05,-2435.43 695,-2462 723.04,-2470.38 753.87,-2477.58 782.58,-2483.47"/>
<polygon fill="#4a6fa5" stroke="#4a6fa5" points="782.1,-2485.87 789.44,-2484.86 783.07,-2481.07 782.1,-2485.87"/>
</g>
<!-- Node0x5c5403610b70&#45;&gt;Node0x5c54037445d0 -->
<g id="edge64" class="edge">
<title>Node0x5c5403610b70&#45;&gt;Node0x5c54037445d0</title>
<path fill="none" stroke="#4a6fa5" d="M488.03,-2345.16C542.43,-2341.62 618.89,-2336.65 690.58,-2331.99"/>
<polygon fill="#4a6fa5" stroke="#4a6fa5" points="691.12,-2334.41 697.95,-2331.51 690.8,-2329.52 691.12,-2334.41"/>
</g>
<!-- Node0x5c5403610b70&#45;&gt;Node0x5c5403746420 -->
<g id="edge68" class="edge">
<title>Node0x5c5403610b70&#45;&gt;Node0x5c5403746420</title>
<path fill="none" stroke="#4a6fa5" d="M445.78,-2331.95C497.01,-2304.1 600.8,-2250.83 695,-2222 750.62,-2204.98 817.99,-2196.05 857.37,-2191.95"/>
<polygon fill="#4a6fa5" stroke="#4a6fa5" points="857.67,-2194.38 864.39,-2191.24 857.18,-2189.5 857.67,-2194.38"/>
</g>
<!-- Node0x5c5403610b70&#45;&gt;Node0x5c5403747900 -->
<g id="edge70" class="edge">
<title>Node0x5c5403610b70&#45;&gt;Node0x5c5403747900</title>
<path fill="none" stroke="#4a6fa5" d="M488.25,-2332.14C544.85,-2318.89 624.6,-2300.81 695,-2287 736.8,-2278.8 783.87,-2270.82 821.35,-2264.76"/>
<polygon fill="#4a6fa5" stroke="#4a6fa5" points="822.19,-2267.1 828.71,-2263.57 821.41,-2262.27 822.19,-2267.1"/>
</g>
<!-- Node0x5c54036131f0&#45;&gt;Node0x5c5403741c60 -->
<g id="edge93" class="edge">
<title>Node0x5c54036131f0&#45;&gt;Node0x5c5403741c60</title>
<path fill="none" stroke="#4a6fa5" d="M946.35,-1265.54C985.8,-1272.88 1040.52,-1283.82 1088,-1296 1161.55,-1314.87 1244.79,-1341.48 1299.38,-1359.66"/>
<polygon fill="#4a6fa5" stroke="#4a6fa5" points="1298.81,-1362.05 1306.22,-1361.94 1300.36,-1357.4 1298.81,-1362.05"/>
</g>
<!-- Node0x5c54036131f0&#45;&gt;Node0x5c54037433a0 -->
<g id="edge95" class="edge">
<title>Node0x5c54036131f0&#45;&gt;Node0x5c54037433a0</title>
<path fill="none" stroke="#4a6fa5" d="M946.01,-1248.89C1043.16,-1235.98 1245.84,-1209.04 1325.66,-1198.43"/>
<polygon fill="#4a6fa5" stroke="#4a6fa5" points="1326.38,-1200.81 1333,-1197.46 1325.74,-1195.95 1326.38,-1200.81"/>
</g>
<!-- Node0x5c540374cc90 -->
<g id="node78" class="node">
<title>Node0x5c540374cc90</title>
<path fill="#f0f4ff" stroke="black" d="M1375,-1277C1375,-1277 1345,-1277 1345,-1277 1339,-1277 1333,-1271 1333,-1265 1333,-1265 1333,-1253 1333,-1253 1333,-1247 1339,-1241 1345,-1241 1345,-1241 1375,-1241 1375,-1241 1381,-1241 1387,-1247 1387,-1253 1387,-1253 1387,-1265 1387,-1265 1387,-1271 1381,-1277 1375,-1277"/>
<text text-anchor="middle" x="1360" y="-1256.8" font-family="Courier,monospace" font-size="9.00">{fopen}</text>
</g>
<!-- Node0x5c54036131f0&#45;&gt;Node0x5c540374cc90 -->
<g id="edge94" class="edge">
<title>Node0x5c54036131f0&#45;&gt;Node0x5c540374cc90</title>
<path fill="none" stroke="#4a6fa5" d="M946.01,-1256.34C1043.16,-1256.97 1245.84,-1258.27 1325.66,-1258.79"/>
<polygon fill="#4a6fa5" stroke="#4a6fa5" points="1325.98,-1261.24 1333,-1258.83 1326.01,-1256.34 1325.98,-1261.24"/>
</g>
<!-- Node0x5c540374fb50 -->
<g id="node79" class="node">
<title>Node0x5c540374fb50</title>
<path fill="#f0f4ff" stroke="black" d="M1793.5,-2453C1793.5,-2453 1763.5,-2453 1763.5,-2453 1757.5,-2453 1751.5,-2447 1751.5,-2441 1751.5,-2441 1751.5,-2429 1751.5,-2429 1751.5,-2423 1757.5,-2417 1763.5,-2417 1763.5,-2417 1793.5,-2417 1793.5,-2417 1799.5,-2417 1805.5,-2423 1805.5,-2429 1805.5,-2429 1805.5,-2441 1805.5,-2441 1805.5,-2447 1799.5,-2453 1793.5,-2453"/>
<text text-anchor="middle" x="1778.5" y="-2432.8" font-family="Courier,monospace" font-size="9.00">{feof}</text>
</g>
<!-- Node0x5c5403612fc0&#45;&gt;Node0x5c540374fb50 -->
<g id="edge96" class="edge">
<title>Node0x5c5403612fc0&#45;&gt;Node0x5c540374fb50</title>
<path fill="none" stroke="#4a6fa5" d="M1417.09,-2349.79C1453.9,-2355.86 1502.99,-2364.51 1546,-2374 1617.27,-2389.72 1699.7,-2412.58 1744.43,-2425.38"/>
<polygon fill="#4a6fa5" stroke="#4a6fa5" points="1743.88,-2427.77 1751.28,-2427.35 1745.23,-2423.06 1743.88,-2427.77"/>
</g>
<!-- Node0x5c5403744a10&#45;&gt;Node0x5c5403611b50 -->
<g id="edge101" class="edge">
<title>Node0x5c5403744a10&#45;&gt;Node0x5c5403611b50</title>
<path fill="none" stroke="#4a6fa5" d="M993.61,-2501.93C1026.17,-2506.17 1060.82,-2515.61 1088,-2535 1153.08,-2581.44 1109.01,-2646.43 1174,-2693 1181.6,-2698.45 1189.82,-2703.07 1198.43,-2707"/>
<polygon fill="#4a6fa5" stroke="#4a6fa5" points="1197.68,-2709.35 1205.08,-2709.86 1199.62,-2704.84 1197.68,-2709.35"/>
</g>
<!-- Node0x5c5403744a10&#45;&gt;Node0x5c5403612bc0 -->
<g id="edge97" class="edge">
<title>Node0x5c5403744a10&#45;&gt;Node0x5c5403612bc0</title>
<path fill="none" stroke="#4a6fa5" d="M993.59,-2506.35C1025.26,-2510.98 1059.39,-2519.52 1088,-2535 1137.52,-2561.79 1124.54,-2601.11 1174,-2628 1182.73,-2632.74 1191.99,-2636.81 1201.55,-2640.3"/>
<polygon fill="#4a6fa5" stroke="#4a6fa5" points="1200.8,-2642.63 1208.22,-2642.62 1202.41,-2638 1200.8,-2642.63"/>
</g>
<!-- Node0x5c5403744a10&#45;&gt;Node0x5c5403612fc0 -->
<g id="edge98" class="edge">
<title>Node0x5c5403744a10&#45;&gt;Node0x5c5403612fc0</title>
<path fill="none" stroke="#4a6fa5" d="M993.68,-2493C1025.28,-2487.18 1059.34,-2477.64 1088,-2462 1136.01,-2435.81 1125.66,-2399.58 1174,-2374 1211.31,-2354.26 1258.16,-2346.04 1295.37,-2342.74"/>
<polygon fill="#4a6fa5" stroke="#4a6fa5" points="1295.9,-2345.16 1302.68,-2342.15 1295.51,-2340.28 1295.9,-2345.16"/>
</g>
<!-- Node0x5c5403744a10&#45;&gt;Node0x5c54037472c0 -->
<g id="edge102" class="edge">
<title>Node0x5c5403744a10&#45;&gt;Node0x5c54037472c0</title>
<path fill="none" stroke="#4a6fa5" d="M993.72,-2495.27C1048.81,-2491.61 1118.55,-2486.98 1182.3,-2482.74"/>
<polygon fill="#4a6fa5" stroke="#4a6fa5" points="1182.81,-2485.16 1189.64,-2482.25 1182.49,-2480.27 1182.81,-2485.16"/>
</g>
<!-- Node0x5c5403744a10&#45;&gt;Node0x5c540374fb50 -->
<g id="edge100" class="edge">
<title>Node0x5c5403744a10&#45;&gt;Node0x5c540374fb50</title>
<path fill="none" stroke="#4a6fa5" d="M993.63,-2511.49C1122.62,-2521.5 1352.2,-2532.27 1546,-2504 1618.68,-2493.4 1700.26,-2465.01 1744.55,-2448.13"/>
<polygon fill="#4a6fa5" stroke="#4a6fa5" points="1745.67,-2450.33 1751.33,-2445.53 1743.92,-2445.75 1745.67,-2450.33"/>
</g>
<!-- Node0x5c5403750b90 -->
<g id="node80" class="node">
<title>Node0x5c5403750b90</title>
<path fill="#f0f4ff" stroke="black" d="M1375,-2424C1375,-2424 1345,-2424 1345,-2424 1339,-2424 1333,-2418 1333,-2412 1333,-2412 1333,-2400 1333,-2400 1333,-2394 1339,-2388 1345,-2388 1345,-2388 1375,-2388 1375,-2388 1381,-2388 1387,-2394 1387,-2400 1387,-2400 1387,-2412 1387,-2412 1387,-2418 1381,-2424 1375,-2424"/>
<text text-anchor="middle" x="1360" y="-2403.8" font-family="Courier,monospace" font-size="9.00">{fgetc}</text>
</g>
<!-- Node0x5c5403744a10&#45;&gt;Node0x5c5403750b90 -->
<g id="edge99" class="edge">
<title>Node0x5c5403744a10&#45;&gt;Node0x5c5403750b90</title>
<path fill="none" stroke="#4a6fa5" d="M986.72,-2483.9C1018.93,-2477.4 1055.12,-2469.75 1088,-2462 1126.51,-2452.92 1135.38,-2447.59 1174,-2439 1226.7,-2427.28 1288.56,-2416.92 1325.73,-2411.06"/>
<polygon fill="#4a6fa5" stroke="#4a6fa5" points="1326.28,-2413.46 1332.82,-2409.95 1325.52,-2408.62 1326.28,-2413.46"/>
</g>
<!-- Node0x5c5403745f20&#45;&gt;Node0x5c5403741710 -->
<g id="edge103" class="edge">
<title>Node0x5c5403745f20&#45;&gt;Node0x5c5403741710</title>
<path fill="none" stroke="#4a6fa5" d="M1032.7,-1770.04C1051.53,-1774.09 1070.4,-1779.02 1088,-1785 1179.18,-1816.01 1276.72,-1875.03 1326.17,-1907.04"/>
<polygon fill="#4a6fa5" stroke="#4a6fa5" points="1325.04,-1909.23 1332.24,-1910.99 1327.71,-1905.12 1325.04,-1909.23"/>
</g>
<!-- Node0x5c5403745f20&#45;&gt;Node0x5c540374da50 -->
<g id="edge104" class="edge">
<title>Node0x5c5403745f20&#45;&gt;Node0x5c540374da50</title>
<path fill="none" stroke="#4a6fa5" d="M1069.98,-1770.01C1076.48,-1774.3 1082.54,-1779.27 1088,-1785 1310.02,-2017.99 987.96,-2241.39 1174,-2504 1198.54,-2538.64 1240.06,-2560.72 1277.55,-2574.44"/>
<polygon fill="#4a6fa5" stroke="#4a6fa5" points="1277.08,-2576.87 1284.5,-2576.9 1278.72,-2572.25 1277.08,-2576.87"/>
</g>
<!-- Node0x5c54037507d0 -->
<g id="node81" class="node">
<title>Node0x5c54037507d0</title>
<path fill="#f0f4ff" stroke="black" d="M1478.5,-1802C1478.5,-1802 1241.5,-1802 1241.5,-1802 1235.5,-1802 1229.5,-1796 1229.5,-1790 1229.5,-1790 1229.5,-1778 1229.5,-1778 1229.5,-1772 1235.5,-1766 1241.5,-1766 1241.5,-1766 1478.5,-1766 1478.5,-1766 1484.5,-1766 1490.5,-1772 1490.5,-1778 1490.5,-1778 1490.5,-1790 1490.5,-1790 1490.5,-1796 1484.5,-1802 1478.5,-1802"/>
<text text-anchor="middle" x="1360" y="-1781.8" font-family="Courier,monospace" font-size="9.00">{basic_string&lt;char, std::char_traits &gt;::data()}</text>
</g>
<!-- Node0x5c5403745f20&#45;&gt;Node0x5c54037507d0 -->
<g id="edge105" class="edge">
<title>Node0x5c5403745f20&#45;&gt;Node0x5c54037507d0</title>
<path fill="none" stroke="#4a6fa5" d="M1088.31,-1765.43C1133.33,-1768.52 1180.26,-1771.74 1222.16,-1774.61"/>
<polygon fill="#4a6fa5" stroke="#4a6fa5" points="1222.22,-1777.07 1229.37,-1775.11 1222.56,-1772.18 1222.22,-1777.07"/>
</g>
<!-- Node0x5c5403750190 -->
<g id="node82" class="node">
<title>Node0x5c5403750190</title>
<path fill="#f0f4ff" stroke="black" d="M1447,-1737C1447,-1737 1273,-1737 1273,-1737 1267,-1737 1261,-1731 1261,-1725 1261,-1725 1261,-1713 1261,-1713 1261,-1707 1267,-1701 1273,-1701 1273,-1701 1447,-1701 1447,-1701 1453,-1701 1459,-1707 1459,-1713 1459,-1713 1459,-1725 1459,-1725 1459,-1731 1453,-1737 1447,-1737"/>
<text text-anchor="middle" x="1360" y="-1716.8" font-family="Courier,monospace" font-size="9.00">{std::char_traits&lt;char&gt;::compare()}</text>
</g>
<!-- Node0x5c5403745f20&#45;&gt;Node0x5c5403750190 -->
<g id="edge106" class="edge">
<title>Node0x5c5403745f20&#45;&gt;Node0x5c5403750190</title>
<path fill="none" stroke="#4a6fa5" d="M1088.31,-1738.15C1144.99,-1734.14 1204.7,-1729.92 1253.57,-1726.46"/>
<polygon fill="#4a6fa5" stroke="#4a6fa5" points="1253.9,-1728.89 1260.71,-1725.95 1253.55,-1724 1253.9,-1728.89"/>
</g>
<!-- Node0x5c5403745410&#45;&gt;Node0x5c5403611b50 -->
<g id="edge109" class="edge">
<title>Node0x5c5403745410&#45;&gt;Node0x5c5403611b50</title>
<path fill="none" stroke="#4a6fa5" d="M1014.72,-2580.61C1039.91,-2586.5 1065.58,-2594.94 1088,-2607 1135.6,-2632.61 1126.01,-2668.12 1174,-2693 1182.5,-2697.41 1191.48,-2701.22 1200.73,-2704.53"/>
<polygon fill="#4a6fa5" stroke="#4a6fa5" points="1200.09,-2706.9 1207.5,-2706.84 1201.67,-2702.26 1200.09,-2706.9"/>
</g>
<!-- Node0x5c5403745410&#45;&gt;Node0x5c5403612bc0 -->
<g id="edge107" class="edge">
<title>Node0x5c5403745410&#45;&gt;Node0x5c5403612bc0</title>
<path fill="none" stroke="#4a6fa5" d="M984.15,-2585.01C1016.97,-2591.66 1054.2,-2599.42 1088,-2607 1126.39,-2615.61 1135.48,-2619.98 1174,-2628 1195.31,-2632.44 1218.09,-2636.74 1240.12,-2640.67"/>
<polygon fill="#4a6fa5" stroke="#4a6fa5" points="1239.92,-2643.12 1247.24,-2641.93 1240.78,-2638.3 1239.92,-2643.12"/>
</g>
<!-- Node0x5c5403745410&#45;&gt;Node0x5c54037472c0 -->
<g id="edge108" class="edge">
<title>Node0x5c5403745410&#45;&gt;Node0x5c54037472c0</title>
<path fill="none" stroke="#4a6fa5" d="M1010.85,-2548.99C1036.36,-2544.73 1063.13,-2539.97 1088,-2535 1153.69,-2521.88 1227.67,-2504.21 1281.72,-2490.76"/>
<polygon fill="#4a6fa5" stroke="#4a6fa5" points="1282.34,-2493.13 1288.54,-2489.06 1281.16,-2488.38 1282.34,-2493.13"/>
</g>
<!-- Node0x5c5403748bc0 -->
<g id="node57" class="node">
<title>Node0x5c5403748bc0</title>
<path fill="#f0f4ff" stroke="black" d="M118,-7835C118,-7835 12,-7835 12,-7835 6,-7835 0,-7829 0,-7823 0,-7823 0,-7811 0,-7811 0,-7805 6,-7799 12,-7799 12,-7799 118,-7799 118,-7799 124,-7799 130,-7805 130,-7811 130,-7811 130,-7823 130,-7823 130,-7829 124,-7835 118,-7835"/>
<text text-anchor="middle" x="65" y="-7814.8" font-family="Courier,monospace" font-size="9.00">{__gxx_personality_v0}</text>
</g>
<!-- Node0x5c54037603b0 -->
<g id="node62" class="node">
<title>Node0x5c54037603b0</title>
<path fill="#f0f4ff" stroke="black" d="M1492,-3237C1492,-3237 1228,-3237 1228,-3237 1222,-3237 1216,-3231 1216,-3225 1216,-3225 1216,-3213 1216,-3213 1216,-3207 1222,-3201 1228,-3201 1228,-3201 1492,-3201 1492,-3201 1498,-3201 1504,-3207 1504,-3213 1504,-3213 1504,-3225 1504,-3225 1504,-3231 1498,-3237 1492,-3237"/>
<text text-anchor="middle" x="1360" y="-3216.8" font-family="Courier,monospace" font-size="9.00">{basic_string&lt;char, std::char_traits &gt;::_M_create()}</text>
</g>
<!-- Node0x5c540374d410&#45;&gt;Node0x5c54037603b0 -->
<g id="edge71" class="edge">
<title>Node0x5c540374d410&#45;&gt;Node0x5c54037603b0</title>
<path fill="none" stroke="#4a6fa5" d="M1077.54,-3238.91C1121.07,-3235.83 1166.94,-3232.59 1208.72,-3229.63"/>
<polygon fill="#4a6fa5" stroke="#4a6fa5" points="1209.12,-3232.06 1215.93,-3229.12 1208.77,-3227.17 1209.12,-3232.06"/>
</g>
<!-- Node0x5c5403752cd0 -->
<g id="node63" class="node">
<title>Node0x5c5403752cd0</title>
<path fill="#f0f4ff" stroke="black" d="M1486.5,-3172C1486.5,-3172 1233.5,-3172 1233.5,-3172 1227.5,-3172 1221.5,-3166 1221.5,-3160 1221.5,-3160 1221.5,-3148 1221.5,-3148 1221.5,-3142 1227.5,-3136 1233.5,-3136 1233.5,-3136 1486.5,-3136 1486.5,-3136 1492.5,-3136 1498.5,-3142 1498.5,-3148 1498.5,-3148 1498.5,-3160 1498.5,-3160 1498.5,-3166 1492.5,-3172 1486.5,-3172"/>
<text text-anchor="middle" x="1360" y="-3151.8" font-family="Courier,monospace" font-size="9.00">{basic_string&lt;char, std::char_traits &gt;::_M_data()}</text>
</g>
<!-- Node0x5c540374d410&#45;&gt;Node0x5c5403752cd0 -->
<g id="edge72" class="edge">
<title>Node0x5c540374d410&#45;&gt;Node0x5c5403752cd0</title>
<path fill="none" stroke="#4a6fa5" d="M988.8,-3233.91C1020.52,-3227.52 1055.88,-3219.94 1088,-3212 1126.64,-3202.45 1135.24,-3196.06 1174,-3187 1195.07,-3182.07 1217.64,-3177.48 1239.52,-3173.39"/>
<polygon fill="#4a6fa5" stroke="#4a6fa5" points="1240.16,-3175.76 1246.59,-3172.08 1239.26,-3170.94 1240.16,-3175.76"/>
</g>
<!-- Node0x5c540375bbc0 -->
<g id="node64" class="node">
<title>Node0x5c540375bbc0</title>
<path fill="#f0f4ff" stroke="black" d="M1497,-3107C1497,-3107 1223,-3107 1223,-3107 1217,-3107 1211,-3101 1211,-3095 1211,-3095 1211,-3083 1211,-3083 1211,-3077 1217,-3071 1223,-3071 1223,-3071 1497,-3071 1497,-3071 1503,-3071 1509,-3077 1509,-3083 1509,-3083 1509,-3095 1509,-3095 1509,-3101 1503,-3107 1497,-3107"/>
<text text-anchor="middle" x="1360" y="-3086.8" font-family="Courier,monospace" font-size="9.00">{basic_string&lt;char, std::char_traits &gt;::_M_capacity()}</text>
</g>
<!-- Node0x5c540374d410&#45;&gt;Node0x5c540375bbc0 -->
<g id="edge73" class="edge">
<title>Node0x5c540374d410&#45;&gt;Node0x5c540375bbc0</title>
<path fill="none" stroke="#4a6fa5" d="M1033.45,-3233.94C1052.45,-3228.45 1071.17,-3221.3 1088,-3212 1136.42,-3185.23 1125.24,-3148.15 1174,-3122 1183.43,-3116.94 1193.49,-3112.63 1203.85,-3108.97"/>
<polygon fill="#4a6fa5" stroke="#4a6fa5" points="1204.85,-3111.22 1210.7,-3106.66 1203.28,-3106.58 1204.85,-3111.22"/>
</g>
<!-- Node0x5c54037527d0 -->
<g id="node65" class="node">
<title>Node0x5c54037527d0</title>
<path fill="#f0f4ff" stroke="black" d="M1534,-3042C1534,-3042 1186,-3042 1186,-3042 1180,-3042 1174,-3036 1174,-3030 1174,-3030 1174,-3018 1174,-3018 1174,-3012 1180,-3006 1186,-3006 1186,-3006 1534,-3006 1534,-3006 1540,-3006 1546,-3012 1546,-3018 1546,-3018 1546,-3030 1546,-3030 1546,-3036 1540,-3042 1534,-3042"/>
<text text-anchor="middle" x="1360" y="-3021.8" font-family="Courier,monospace" font-size="9.00">{basic_string&lt;char, std::char_traits &gt;::_M_construct&lt;char const*&gt;()}</text>
</g>
<!-- Node0x5c540374d410&#45;&gt;Node0x5c54037527d0 -->
<g id="edge74" class="edge">
<title>Node0x5c540374d410&#45;&gt;Node0x5c54037527d0</title>
<path fill="none" stroke="#4a6fa5" d="M1046.88,-3233.88C1061.55,-3228.28 1075.57,-3221.12 1088,-3212 1151.52,-3165.39 1109.9,-3102.8 1174,-3057 1180.3,-3052.5 1187.02,-3048.55 1194.03,-3045.08"/>
<polygon fill="#4a6fa5" stroke="#4a6fa5" points="1195.25,-3047.22 1200.55,-3042.04 1193.17,-3042.78 1195.25,-3047.22"/>
</g>
<!-- Node0x5c54037657c0 -->
<g id="node66" class="node">
<title>Node0x5c54037657c0</title>
<path fill="#f0f4ff" stroke="black" d="M1486.5,-2977C1486.5,-2977 1233.5,-2977 1233.5,-2977 1227.5,-2977 1221.5,-2971 1221.5,-2965 1221.5,-2965 1221.5,-2953 1221.5,-2953 1221.5,-2947 1227.5,-2941 1233.5,-2941 1233.5,-2941 1486.5,-2941 1486.5,-2941 1492.5,-2941 1498.5,-2947 1498.5,-2953 1498.5,-2953 1498.5,-2965 1498.5,-2965 1498.5,-2971 1492.5,-2977 1486.5,-2977"/>
<text text-anchor="middle" x="1360" y="-2956.8" font-family="Courier,monospace" font-size="9.00">{basic_string&lt;char, std::char_traits &gt;::_M_data()}</text>
</g>
<!-- Node0x5c540374d410&#45;&gt;Node0x5c54037657c0 -->
<g id="edge75" class="edge">
<title>Node0x5c540374d410&#45;&gt;Node0x5c54037657c0</title>
<path fill="none" stroke="#4a6fa5" d="M1052.06,-3233.9C1065.04,-3228.22 1077.27,-3221.04 1088,-3212 1168.3,-3144.37 1092.85,-3058.61 1174,-2992 1185.92,-2982.22 1199.74,-2974.92 1214.36,-2969.53"/>
<polygon fill="#4a6fa5" stroke="#4a6fa5" points="1215.32,-2971.79 1221.13,-2967.18 1213.71,-2967.16 1215.32,-2971.79"/>
</g>
<!-- Node0x5c54037651b0 -->
<g id="node67" class="node">
<title>Node0x5c54037651b0</title>
<path fill="#f0f4ff" stroke="black" d="M1502.5,-2912C1502.5,-2912 1217.5,-2912 1217.5,-2912 1211.5,-2912 1205.5,-2906 1205.5,-2900 1205.5,-2900 1205.5,-2888 1205.5,-2888 1205.5,-2882 1211.5,-2876 1217.5,-2876 1217.5,-2876 1502.5,-2876 1502.5,-2876 1508.5,-2876 1514.5,-2882 1514.5,-2888 1514.5,-2888 1514.5,-2900 1514.5,-2900 1514.5,-2906 1508.5,-2912 1502.5,-2912"/>
<text text-anchor="middle" x="1360" y="-2891.8" font-family="Courier,monospace" font-size="9.00">{basic_string&lt;char, std::char_traits &gt;::_S_copy_chars()}</text>
</g>
<!-- Node0x5c540374d410&#45;&gt;Node0x5c54037651b0 -->
<g id="edge76" class="edge">
<title>Node0x5c540374d410&#45;&gt;Node0x5c54037651b0</title>
<path fill="none" stroke="#4a6fa5" d="M1054.73,-3233.91C1066.84,-3228.18 1078.15,-3220.99 1088,-3212 1185.73,-3122.81 1075.15,-3014.95 1174,-2927 1181.45,-2920.37 1189.77,-2914.85 1198.62,-2910.27"/>
<polygon fill="#4a6fa5" stroke="#4a6fa5" points="1199.94,-2912.36 1205.17,-2907.11 1197.8,-2907.95 1199.94,-2912.36"/>
</g>
<!-- Node0x5c54037644a0 -->
<g id="node68" class="node">
<title>Node0x5c54037644a0</title>
<path fill="#f0f4ff" stroke="black" d="M1502.5,-3367C1502.5,-3367 1217.5,-3367 1217.5,-3367 1211.5,-3367 1205.5,-3361 1205.5,-3355 1205.5,-3355 1205.5,-3343 1205.5,-3343 1205.5,-3337 1211.5,-3331 1217.5,-3331 1217.5,-3331 1502.5,-3331 1502.5,-3331 1508.5,-3331 1514.5,-3337 1514.5,-3343 1514.5,-3343 1514.5,-3355 1514.5,-3355 1514.5,-3361 1508.5,-3367 1502.5,-3367"/>
<text text-anchor="middle" x="1360" y="-3346.8" font-family="Courier,monospace" font-size="9.00">{basic_string&lt;char, std::char_traits &gt;::_M_set_length()}</text>
</g>
<!-- Node0x5c540374d410&#45;&gt;Node0x5c54037644a0 -->
<g id="edge77" class="edge">
<title>Node0x5c540374d410&#45;&gt;Node0x5c54037644a0</title>
<path fill="none" stroke="#4a6fa5" d="M1020.5,-3270.03C1043.15,-3274.23 1066.39,-3279.21 1088,-3285 1127.39,-3295.55 1134.63,-3306.37 1174,-3317 1191.5,-3321.73 1210.13,-3325.91 1228.57,-3329.56"/>
<polygon fill="#4a6fa5" stroke="#4a6fa5" points="1228.56,-3332.06 1235.9,-3330.99 1229.5,-3327.25 1228.56,-3332.06"/>
</g>
<!-- Node0x5c5403767680 -->
<g id="node69" class="node">
<title>Node0x5c5403767680</title>
<path fill="#f0f4ff" stroke="black" d="M1534,-3302C1534,-3302 1186,-3302 1186,-3302 1180,-3302 1174,-3296 1174,-3290 1174,-3290 1174,-3278 1174,-3278 1174,-3272 1180,-3266 1186,-3266 1186,-3266 1534,-3266 1534,-3266 1540,-3266 1546,-3272 1546,-3278 1546,-3278 1546,-3290 1546,-3290 1546,-3296 1540,-3302 1534,-3302"/>
<text text-anchor="middle" x="1360" y="-3281.8" font-family="Courier,monospace" font-size="9.00">{basic_string&lt;char, std::char_traits &gt;::_M_construct&lt;char const*&gt;()}</text>
</g>
<!-- Node0x5c540374d410&#45;&gt;Node0x5c5403767680 -->
<g id="edge78" class="edge">
<title>Node0x5c540374d410&#45;&gt;Node0x5c5403767680</title>
<path fill="none" stroke="#4a6fa5" d="M1077.54,-3264.69C1106.86,-3266.7 1137.25,-3268.79 1166.73,-3270.81"/>
<polygon fill="#4a6fa5" stroke="#4a6fa5" points="1166.65,-3273.26 1173.8,-3271.3 1166.98,-3268.37 1166.65,-3273.26"/>
</g>
<!-- Node0x5c5403767680&#45;&gt;Node0x5c540374d2d0 -->
<g id="edge116" class="edge">
<title>Node0x5c5403767680&#45;&gt;Node0x5c540374d2d0</title>
<path fill="none" stroke="#4a6fa5" d="M1483.26,-3302.01C1504.36,-3306.19 1525.95,-3311.17 1546,-3317 1613.39,-3336.6 1687.92,-3369.29 1733.74,-3390.75"/>
<polygon fill="#4a6fa5" stroke="#4a6fa5" points="1732.91,-3393.07 1740.29,-3393.83 1735,-3388.64 1732.91,-3393.07"/>
</g>
<!-- Node0x5c540376c350 -->
<g id="node87" class="node">
<title>Node0x5c540376c350</title>
<path fill="#f0f4ff" stroke="black" d="M1913,-3302C1913,-3302 1644,-3302 1644,-3302 1638,-3302 1632,-3296 1632,-3290 1632,-3290 1632,-3278 1632,-3278 1632,-3272 1638,-3266 1644,-3266 1644,-3266 1913,-3266 1913,-3266 1919,-3266 1925,-3272 1925,-3278 1925,-3278 1925,-3290 1925,-3290 1925,-3296 1919,-3302 1913,-3302"/>
<text text-anchor="middle" x="1778.5" y="-3281.8" font-family="Courier,monospace" font-size="9.00">{basic_string&lt;char, std::char_traits &gt;::_M_dispose()}</text>
</g>
<!-- Node0x5c5403767680&#45;&gt;Node0x5c540376c350 -->
<g id="edge115" class="edge">
<title>Node0x5c5403767680&#45;&gt;Node0x5c540376c350</title>
<path fill="none" stroke="#4a6fa5" d="M1546.11,-3284C1572.32,-3284 1599.03,-3284 1624.55,-3284"/>
<polygon fill="#4a6fa5" stroke="#4a6fa5" points="1624.71,-3286.45 1631.71,-3284 1624.71,-3281.55 1624.71,-3286.45"/>
</g>
<!-- Node0x5c540374c8d0&#45;&gt;Node0x5c5403612240 -->
<g id="edge114" class="edge">
<title>Node0x5c540374c8d0&#45;&gt;Node0x5c5403612240</title>
<path fill="none" stroke="#4a6fa5" d="M988.8,-3335.09C1020.52,-3341.48 1055.88,-3349.06 1088,-3357 1126.64,-3366.55 1135.22,-3373.04 1174,-3382 1193.83,-3386.58 1214.99,-3390.83 1235.66,-3394.64"/>
<polygon fill="#4a6fa5" stroke="#4a6fa5" points="1235.32,-3397.07 1242.65,-3395.92 1236.2,-3392.25 1235.32,-3397.07"/>
</g>
<!-- Node0x5c540374ff10 -->
<g id="node83" class="node">
<title>Node0x5c540374ff10</title>
<path fill="#f0f4ff" stroke="black" d="M1795,-2613C1795,-2613 1762,-2613 1762,-2613 1756,-2613 1750,-2607 1750,-2601 1750,-2601 1750,-2589 1750,-2589 1750,-2583 1756,-2577 1762,-2577 1762,-2577 1795,-2577 1795,-2577 1801,-2577 1807,-2583 1807,-2589 1807,-2589 1807,-2601 1807,-2601 1807,-2607 1801,-2613 1795,-2613"/>
<text text-anchor="middle" x="1778.5" y="-2592.8" font-family="Courier,monospace" font-size="9.00">{strlen}</text>
</g>
<!-- Node0x5c540374da50&#45;&gt;Node0x5c540374ff10 -->
<g id="edge110" class="edge">
<title>Node0x5c540374da50&#45;&gt;Node0x5c540374ff10</title>
<path fill="none" stroke="#4a6fa5" d="M1456.55,-2595C1547.71,-2595 1680.1,-2595 1742.49,-2595"/>
<polygon fill="#4a6fa5" stroke="#4a6fa5" points="1742.74,-2597.45 1749.74,-2595 1742.74,-2592.55 1742.74,-2597.45"/>
</g>
<!-- Node0x5c54037617c0 -->
<g id="node85" class="node">
<title>Node0x5c54037617c0</title>
<path fill="#f0f4ff" stroke="black" d="M2113,-3462C2113,-3462 2023,-3462 2023,-3462 2017,-3462 2011,-3456 2011,-3450 2011,-3450 2011,-3438 2011,-3438 2011,-3432 2017,-3426 2023,-3426 2023,-3426 2113,-3426 2113,-3426 2119,-3426 2125,-3432 2125,-3438 2125,-3438 2125,-3450 2125,-3450 2125,-3456 2119,-3462 2113,-3462"/>
<text text-anchor="middle" x="2068" y="-3441.8" font-family="Courier,monospace" font-size="9.00">{__cxa_begin_catch}</text>
</g>
<!-- Node0x5c540374d2d0&#45;&gt;Node0x5c54037617c0 -->
<g id="edge112" class="edge">
<title>Node0x5c540374d2d0&#45;&gt;Node0x5c54037617c0</title>
<path fill="none" stroke="#4a6fa5" d="M1849.1,-3419.75C1896.1,-3424.98 1957.68,-3431.83 2003.38,-3436.92"/>
<polygon fill="#4a6fa5" stroke="#4a6fa5" points="2003.35,-3439.38 2010.57,-3437.72 2003.89,-3434.51 2003.35,-3439.38"/>
</g>
<!-- Node0x5c54037604f0 -->
<g id="node86" class="node">
<title>Node0x5c54037604f0</title>
<path fill="#f0f4ff" stroke="black" d="M2110.5,-3397C2110.5,-3397 2025.5,-3397 2025.5,-3397 2019.5,-3397 2013.5,-3391 2013.5,-3385 2013.5,-3385 2013.5,-3373 2013.5,-3373 2013.5,-3367 2019.5,-3361 2025.5,-3361 2025.5,-3361 2110.5,-3361 2110.5,-3361 2116.5,-3361 2122.5,-3367 2122.5,-3373 2122.5,-3373 2122.5,-3385 2122.5,-3385 2122.5,-3391 2116.5,-3397 2110.5,-3397"/>
<text text-anchor="middle" x="2068" y="-3376.8" font-family="Courier,monospace" font-size="9.00">{std::terminate()}</text>
</g>
<!-- Node0x5c540374d2d0&#45;&gt;Node0x5c54037604f0 -->
<g id="edge113" class="edge">
<title>Node0x5c540374d2d0&#45;&gt;Node0x5c54037604f0</title>
<path fill="none" stroke="#4a6fa5" d="M1849.1,-3404.01C1897.05,-3398.51 1960.17,-3391.26 2006.12,-3385.99"/>
<polygon fill="#4a6fa5" stroke="#4a6fa5" points="2006.67,-3388.39 2013.34,-3385.16 2006.11,-3383.52 2006.67,-3388.39"/>
</g>
<!-- Node0x5c54037516d0 -->
<g id="node84" class="node">
<title>Node0x5c54037516d0</title>
<path fill="#f0f4ff" stroke="black" d="M1795,-1737C1795,-1737 1762,-1737 1762,-1737 1756,-1737 1750,-1731 1750,-1725 1750,-1725 1750,-1713 1750,-1713 1750,-1707 1756,-1701 1762,-1701 1762,-1701 1795,-1701 1795,-1701 1801,-1701 1807,-1707 1807,-1713 1807,-1713 1807,-1725 1807,-1725 1807,-1731 1801,-1737 1795,-1737"/>
<text text-anchor="middle" x="1778.5" y="-1716.8" font-family="Courier,monospace" font-size="9.00">{memcmp}</text>
</g>
<!-- Node0x5c5403750190&#45;&gt;Node0x5c54037516d0 -->
<g id="edge111" class="edge">
<title>Node0x5c5403750190&#45;&gt;Node0x5c54037516d0</title>
<path fill="none" stroke="#4a6fa5" d="M1459.18,-1719C1550.23,-1719 1680.69,-1719 1742.48,-1719"/>
<polygon fill="#4a6fa5" stroke="#4a6fa5" points="1742.67,-1721.45 1749.67,-1719 1742.67,-1716.55 1742.67,-1721.45"/>
</g>
</g>
</svg>
