<?xml version="1.0" encoding="UTF-8" standalone="no"?>
<!DOCTYPE svg PUBLIC "-//W3C//DTD SVG 1.1//EN"
 "http://www.w3.org/Graphics/SVG/1.1/DTD/svg11.dtd">
<!-- Generated by graphviz version 2.43.0 (0)
 -->
<!-- Title: Call graph: /home/h02332/po/research/call&#45;graph/iccdev/tools/iccJpegDump.ll Pages: 1 -->
<svg width="624pt" height="1326pt"
 viewBox="0.00 0.00 624.20 1326.20" xmlns="http://www.w3.org/2000/svg" xmlns:xlink="http://www.w3.org/1999/xlink">
<g id="graph0" class="graph" transform="scale(1 1) rotate(0) translate(21.6 1304.6)">
<title>Call graph: /home/h02332/po/research/call&#45;graph/iccdev/tools/iccJpegDump.ll</title>
<polygon fill="white" stroke="transparent" points="-21.6,21.6 -21.6,-1304.6 602.6,-1304.6 602.6,21.6 -21.6,21.6"/>
<!-- Node0x5bcff0c31d60 -->
<g id="node1" class="node">
<title>Node0x5bcff0c31d60</title>
<path fill="#f0f4ff" stroke="black" d="M244,-413C244,-413 214,-413 214,-413 208,-413 202,-407 202,-401 202,-401 202,-389 202,-389 202,-383 208,-377 214,-377 214,-377 244,-377 244,-377 250,-377 256,-383 256,-389 256,-389 256,-401 256,-401 256,-407 250,-413 244,-413"/>
<text text-anchor="middle" x="229" y="-392.8" font-family="Courier,monospace" font-size="9.00">Usage()</text>
</g>
<!-- Node0x5bcff0c33050 -->
<g id="node2" class="node">
<title>Node0x5bcff0c33050</title>
<path fill="#f0f4ff" stroke="black" d="M276,-355C276,-355 182,-355 182,-355 176,-355 170,-349 170,-343 170,-343 170,-331 170,-331 170,-325 176,-319 182,-319 182,-319 276,-319 276,-319 282,-319 288,-325 288,-331 288,-331 288,-343 288,-343 288,-349 282,-355 276,-355"/>
<text text-anchor="middle" x="229" y="-334.8" font-family="Courier,monospace" font-size="9.00">ExtractIccFromJpeg()</text>
</g>
<!-- Node0x5bcff0c67200 -->
<g id="node3" class="node">
<title>Node0x5bcff0c67200</title>
<path fill="#f0f4ff" stroke="black" d="M422.5,-500C422.5,-500 392.5,-500 392.5,-500 386.5,-500 380.5,-494 380.5,-488 380.5,-488 380.5,-476 380.5,-476 380.5,-470 386.5,-464 392.5,-464 392.5,-464 422.5,-464 422.5,-464 428.5,-464 434.5,-470 434.5,-476 434.5,-476 434.5,-488 434.5,-488 434.5,-494 428.5,-500 422.5,-500"/>
<text text-anchor="middle" x="407.5" y="-479.8" font-family="Courier,monospace" font-size="9.00">ntohs</text>
</g>
<!-- Node0x5bcff0c33050&#45;&gt;Node0x5bcff0c67200 -->
<g id="edge1" class="edge">
<title>Node0x5bcff0c33050&#45;&gt;Node0x5bcff0c67200</title>
<path fill="none" stroke="#4a6fa5" d="M272.83,-355.16C278.23,-358.36 283.44,-361.98 288,-366 322.84,-396.75 310.91,-422.54 346,-453 354.31,-460.21 364.72,-466.05 374.56,-470.55"/>
<polygon fill="#4a6fa5" stroke="#4a6fa5" points="373.92,-472.56 380.26,-473.04 375.6,-468.71 373.92,-472.56"/>
</g>
<!-- Node0x5bcff0c2e2a0 -->
<g id="node4" class="node">
<title>Node0x5bcff0c2e2a0</title>
<path fill="#f0f4ff" stroke="black" d="M444,-384C444,-384 371,-384 371,-384 365,-384 359,-378 359,-372 359,-372 359,-360 359,-360 359,-354 365,-348 371,-348 371,-348 444,-348 444,-348 450,-348 456,-354 456,-360 456,-360 456,-372 456,-372 456,-378 450,-384 444,-384"/>
<text text-anchor="middle" x="407.5" y="-363.8" font-family="Courier,monospace" font-size="9.00">basic_ifstream()</text>
</g>
<!-- Node0x5bcff0c33050&#45;&gt;Node0x5bcff0c2e2a0 -->
<g id="edge2" class="edge">
<title>Node0x5bcff0c33050&#45;&gt;Node0x5bcff0c2e2a0</title>
<path fill="none" stroke="#4a6fa5" d="M288.28,-346.58C309.12,-350 332.48,-353.84 352.91,-357.19"/>
<polygon fill="#4a6fa5" stroke="#4a6fa5" points="352.6,-359.27 358.86,-358.17 353.28,-355.13 352.6,-359.27"/>
</g>
<!-- Node0x5bcff0babc40 -->
<g id="node5" class="node">
<title>Node0x5bcff0babc40</title>
<path fill="#f0f4ff" stroke="black" d="M457,-268C457,-268 358,-268 358,-268 352,-268 346,-262 346,-256 346,-256 346,-244 346,-244 346,-238 352,-232 358,-232 358,-232 457,-232 457,-232 463,-232 469,-238 469,-244 469,-244 469,-256 469,-256 469,-262 463,-268 457,-268"/>
<text text-anchor="middle" x="407.5" y="-247.8" font-family="Courier,monospace" font-size="9.00">istreambuf_iterator()</text>
</g>
<!-- Node0x5bcff0c33050&#45;&gt;Node0x5bcff0babc40 -->
<g id="edge3" class="edge">
<title>Node0x5bcff0c33050&#45;&gt;Node0x5bcff0babc40</title>
<path fill="none" stroke="#4a6fa5" d="M265.72,-318.95C288.62,-307.42 319,-292.22 346,-279 351.49,-276.31 357.28,-273.51 363,-270.74"/>
<polygon fill="#4a6fa5" stroke="#4a6fa5" points="364.2,-272.5 368.69,-268 362.38,-268.71 364.2,-272.5"/>
</g>
<!-- Node0x5bcff0bce140 -->
<g id="node6" class="node">
<title>Node0x5bcff0bce140</title>
<path fill="#f0f4ff" stroke="black" d="M457,-326C457,-326 358,-326 358,-326 352,-326 346,-320 346,-314 346,-314 346,-302 346,-302 346,-296 352,-290 358,-290 358,-290 457,-290 457,-290 463,-290 469,-296 469,-302 469,-302 469,-314 469,-314 469,-320 463,-326 457,-326"/>
<text text-anchor="middle" x="407.5" y="-305.8" font-family="Courier,monospace" font-size="9.00">istreambuf_iterator()</text>
</g>
<!-- Node0x5bcff0c33050&#45;&gt;Node0x5bcff0bce140 -->
<g id="edge4" class="edge">
<title>Node0x5bcff0c33050&#45;&gt;Node0x5bcff0bce140</title>
<path fill="none" stroke="#4a6fa5" d="M288.28,-327.42C304.74,-324.72 322.77,-321.76 339.68,-318.98"/>
<polygon fill="#4a6fa5" stroke="#4a6fa5" points="340.28,-321.01 345.86,-317.96 339.6,-316.86 340.28,-321.01"/>
</g>
<!-- Node0x5bcff0a56b30 -->
<g id="node7" class="node">
<title>Node0x5bcff0a56b30</title>
<path fill="#f0f4ff" stroke="black" d="M444,-442C444,-442 371,-442 371,-442 365,-442 359,-436 359,-430 359,-430 359,-418 359,-418 359,-412 365,-406 371,-406 371,-406 444,-406 444,-406 450,-406 456,-412 456,-418 456,-418 456,-430 456,-430 456,-436 450,-442 444,-442"/>
<text text-anchor="middle" x="407.5" y="-421.8" font-family="Courier,monospace" font-size="9.00">basic_ifstream()</text>
</g>
<!-- Node0x5bcff0c33050&#45;&gt;Node0x5bcff0a56b30 -->
<g id="edge5" class="edge">
<title>Node0x5bcff0c33050&#45;&gt;Node0x5bcff0a56b30</title>
<path fill="none" stroke="#4a6fa5" d="M266.16,-355.09C299.45,-371.74 343.98,-394.01 346,-395 351.49,-397.69 357.28,-400.49 363,-403.26"/>
<polygon fill="#4a6fa5" stroke="#4a6fa5" points="362.38,-405.29 368.69,-406 364.2,-401.5 362.38,-405.29"/>
</g>
<!-- Node0x5bcff09e00b0 -->
<g id="node10" class="node">
<title>Node0x5bcff09e00b0</title>
<path fill="#f0f4ff" stroke="black" d="M569,-268C569,-268 539,-268 539,-268 533,-268 527,-262 527,-256 527,-256 527,-244 527,-244 527,-238 533,-232 539,-232 539,-232 569,-232 569,-232 575,-232 581,-238 581,-244 581,-244 581,-256 581,-256 581,-262 575,-268 569,-268"/>
<text text-anchor="middle" x="554" y="-247.8" font-family="Courier,monospace" font-size="9.00">eof()</text>
</g>
<!-- Node0x5bcff0babc40&#45;&gt;Node0x5bcff09e00b0 -->
<g id="edge8" class="edge">
<title>Node0x5bcff0babc40&#45;&gt;Node0x5bcff09e00b0</title>
<path fill="none" stroke="#4a6fa5" d="M469.36,-250C486.91,-250 505.38,-250 520.48,-250"/>
<polygon fill="#4a6fa5" stroke="#4a6fa5" points="520.74,-252.1 526.74,-250 520.74,-247.9 520.74,-252.1"/>
</g>
<!-- Node0x5bcff09df840 -->
<g id="node9" class="node">
<title>Node0x5bcff09df840</title>
<path fill="#f0f4ff" stroke="black" d="M569,-326C569,-326 539,-326 539,-326 533,-326 527,-320 527,-314 527,-314 527,-302 527,-302 527,-296 533,-290 539,-290 539,-290 569,-290 569,-290 575,-290 581,-296 581,-302 581,-302 581,-314 581,-314 581,-320 575,-326 569,-326"/>
<text text-anchor="middle" x="554" y="-305.8" font-family="Courier,monospace" font-size="9.00">rdbuf()</text>
</g>
<!-- Node0x5bcff0bce140&#45;&gt;Node0x5bcff09df840 -->
<g id="edge6" class="edge">
<title>Node0x5bcff0bce140&#45;&gt;Node0x5bcff09df840</title>
<path fill="none" stroke="#4a6fa5" d="M469.36,-308C486.91,-308 505.38,-308 520.48,-308"/>
<polygon fill="#4a6fa5" stroke="#4a6fa5" points="520.74,-310.1 526.74,-308 520.74,-305.9 520.74,-310.1"/>
</g>
<!-- Node0x5bcff0bce140&#45;&gt;Node0x5bcff09e00b0 -->
<g id="edge7" class="edge">
<title>Node0x5bcff0bce140&#45;&gt;Node0x5bcff09e00b0</title>
<path fill="none" stroke="#4a6fa5" d="M453.43,-289.97C475.3,-281.19 501.08,-270.84 520.93,-262.87"/>
<polygon fill="#4a6fa5" stroke="#4a6fa5" points="521.84,-264.77 526.63,-260.59 520.27,-260.87 521.84,-264.77"/>
</g>
<!-- Node0x5bcff0c972c0 -->
<g id="node8" class="node">
<title>Node0x5bcff0c972c0</title>
<path fill="#f0f4ff" stroke="black" d="M273,-471C273,-471 185,-471 185,-471 179,-471 173,-465 173,-459 173,-459 173,-447 173,-447 173,-441 179,-435 185,-435 185,-435 273,-435 273,-435 279,-435 285,-441 285,-447 285,-447 285,-459 285,-459 285,-465 279,-471 273,-471"/>
<text text-anchor="middle" x="229" y="-450.8" font-family="Courier,monospace" font-size="9.00">__normal_iterator()</text>
</g>
<!-- Node0x5bcff0c6fa10 -->
<g id="node11" class="node">
<title>Node0x5bcff0c6fa10</title>
<path fill="#f0f4ff" stroke="black" d="M273,-268C273,-268 185,-268 185,-268 179,-268 173,-262 173,-256 173,-256 173,-244 173,-244 173,-238 179,-232 185,-232 185,-232 273,-232 273,-232 279,-232 285,-238 285,-244 285,-244 285,-256 285,-256 285,-262 279,-268 273,-268"/>
<text text-anchor="middle" x="229" y="-247.8" font-family="Courier,monospace" font-size="9.00">InjectIccIntoJpeg()</text>
</g>
<!-- Node0x5bcff0c6fa10&#45;&gt;Node0x5bcff0c2e2a0 -->
<g id="edge9" class="edge">
<title>Node0x5bcff0c6fa10&#45;&gt;Node0x5bcff0c2e2a0</title>
<path fill="none" stroke="#4a6fa5" d="M251.33,-268.02C273.94,-286.63 311.13,-315.85 346,-337 350.61,-339.79 355.53,-342.53 360.49,-345.13"/>
<polygon fill="#4a6fa5" stroke="#4a6fa5" points="359.59,-347.02 365.89,-347.89 361.51,-343.29 359.59,-347.02"/>
</g>
<!-- Node0x5bcff0c6fa10&#45;&gt;Node0x5bcff0babc40 -->
<g id="edge13" class="edge">
<title>Node0x5bcff0c6fa10&#45;&gt;Node0x5bcff0babc40</title>
<path fill="none" stroke="#4a6fa5" d="M285.36,-250C302.62,-250 321.83,-250 339.78,-250"/>
<polygon fill="#4a6fa5" stroke="#4a6fa5" points="339.82,-252.1 345.82,-250 339.82,-247.9 339.82,-252.1"/>
</g>
<!-- Node0x5bcff0c6fa10&#45;&gt;Node0x5bcff0bce140 -->
<g id="edge12" class="edge">
<title>Node0x5bcff0c6fa10&#45;&gt;Node0x5bcff0bce140</title>
<path fill="none" stroke="#4a6fa5" d="M284.88,-268.03C304.22,-274.39 326.07,-281.57 345.86,-288.07"/>
<polygon fill="#4a6fa5" stroke="#4a6fa5" points="345.3,-290.1 351.66,-289.98 346.61,-286.11 345.3,-290.1"/>
</g>
<!-- Node0x5bcff0c6fa10&#45;&gt;Node0x5bcff0a56b30 -->
<g id="edge10" class="edge">
<title>Node0x5bcff0c6fa10&#45;&gt;Node0x5bcff0a56b30</title>
<path fill="none" stroke="#4a6fa5" d="M250.06,-268.17C261.72,-279.18 276.35,-293.79 288,-308 317.46,-343.94 310.91,-364.54 346,-395 349.13,-397.72 352.56,-400.24 356.15,-402.57"/>
<polygon fill="#4a6fa5" stroke="#4a6fa5" points="355.29,-404.51 361.5,-405.85 357.48,-400.92 355.29,-404.51"/>
</g>
<!-- Node0x5bcff09e0820 -->
<g id="node12" class="node">
<title>Node0x5bcff09e0820</title>
<path fill="#f0f4ff" stroke="black" d="M425.5,-36C425.5,-36 389.5,-36 389.5,-36 383.5,-36 377.5,-30 377.5,-24 377.5,-24 377.5,-12 377.5,-12 377.5,-6 383.5,0 389.5,0 389.5,0 425.5,0 425.5,0 431.5,0 437.5,-6 437.5,-12 437.5,-12 437.5,-24 437.5,-24 437.5,-30 431.5,-36 425.5,-36"/>
<text text-anchor="middle" x="407.5" y="-15.8" font-family="Courier,monospace" font-size="9.00">is_open()</text>
</g>
<!-- Node0x5bcff0c6fa10&#45;&gt;Node0x5bcff09e0820 -->
<g id="edge11" class="edge">
<title>Node0x5bcff0c6fa10&#45;&gt;Node0x5bcff09e0820</title>
<path fill="none" stroke="#4a6fa5" d="M236.1,-231.89C249.94,-193.24 287.16,-101.74 346,-47 353.34,-40.17 362.6,-34.65 371.64,-30.34"/>
<polygon fill="#4a6fa5" stroke="#4a6fa5" points="372.62,-32.19 377.22,-27.8 370.89,-28.37 372.62,-32.19"/>
</g>
<!-- Node0x5bcff09e1380 -->
<g id="node13" class="node">
<title>Node0x5bcff09e1380</title>
<path fill="#f0f4ff" stroke="black" d="M422.5,-210C422.5,-210 392.5,-210 392.5,-210 386.5,-210 380.5,-204 380.5,-198 380.5,-198 380.5,-186 380.5,-186 380.5,-180 386.5,-174 392.5,-174 392.5,-174 422.5,-174 422.5,-174 428.5,-174 434.5,-180 434.5,-186 434.5,-186 434.5,-198 434.5,-198 434.5,-204 428.5,-210 422.5,-210"/>
<text text-anchor="middle" x="407.5" y="-189.8" font-family="Courier,monospace" font-size="9.00">htons</text>
</g>
<!-- Node0x5bcff0c6fa10&#45;&gt;Node0x5bcff09e1380 -->
<g id="edge14" class="edge">
<title>Node0x5bcff0c6fa10&#45;&gt;Node0x5bcff09e1380</title>
<path fill="none" stroke="#4a6fa5" d="M284.88,-231.97C314.3,-222.3 349.51,-210.73 374.46,-202.53"/>
<polygon fill="#4a6fa5" stroke="#4a6fa5" points="375.21,-204.49 380.26,-200.62 373.9,-200.5 375.21,-204.49"/>
</g>
<!-- Node0x5bcff0c6ff90 -->
<g id="node14" class="node">
<title>Node0x5bcff0c6ff90</title>
<path fill="#f0f4ff" stroke="black" d="M422.5,-152C422.5,-152 392.5,-152 392.5,-152 386.5,-152 380.5,-146 380.5,-140 380.5,-140 380.5,-128 380.5,-128 380.5,-122 386.5,-116 392.5,-116 392.5,-116 422.5,-116 422.5,-116 428.5,-116 434.5,-122 434.5,-128 434.5,-128 434.5,-140 434.5,-140 434.5,-146 428.5,-152 422.5,-152"/>
<text text-anchor="middle" x="407.5" y="-131.8" font-family="Courier,monospace" font-size="9.00">fputc</text>
</g>
<!-- Node0x5bcff0c6fa10&#45;&gt;Node0x5bcff0c6ff90 -->
<g id="edge15" class="edge">
<title>Node0x5bcff0c6fa10&#45;&gt;Node0x5bcff0c6ff90</title>
<path fill="none" stroke="#4a6fa5" d="M251.33,-231.98C273.94,-213.37 311.13,-184.15 346,-163 355.07,-157.5 365.35,-152.24 374.83,-147.74"/>
<polygon fill="#4a6fa5" stroke="#4a6fa5" points="375.75,-149.63 380.3,-145.19 373.98,-145.82 375.75,-149.63"/>
</g>
<!-- Node0x5bcff09e1660 -->
<g id="node15" class="node">
<title>Node0x5bcff09e1660</title>
<path fill="#f0f4ff" stroke="black" d="M422.5,-94C422.5,-94 392.5,-94 392.5,-94 386.5,-94 380.5,-88 380.5,-82 380.5,-82 380.5,-70 380.5,-70 380.5,-64 386.5,-58 392.5,-58 392.5,-58 422.5,-58 422.5,-58 428.5,-58 434.5,-64 434.5,-70 434.5,-70 434.5,-82 434.5,-82 434.5,-88 428.5,-94 422.5,-94"/>
<text text-anchor="middle" x="407.5" y="-73.8" font-family="Courier,monospace" font-size="9.00">c_str()</text>
</g>
<!-- Node0x5bcff0c6fa10&#45;&gt;Node0x5bcff09e1660 -->
<g id="edge16" class="edge">
<title>Node0x5bcff0c6fa10&#45;&gt;Node0x5bcff09e1660</title>
<path fill="none" stroke="#4a6fa5" d="M240.75,-231.77C259.09,-201.95 299.06,-142.31 346,-105 354.54,-98.22 364.92,-92.51 374.66,-88.01"/>
<polygon fill="#4a6fa5" stroke="#4a6fa5" points="375.68,-89.86 380.3,-85.5 373.97,-86.02 375.68,-89.86"/>
</g>
<!-- Node0x5bcff09e2a50 -->
<g id="node16" class="node">
<title>Node0x5bcff09e2a50</title>
<path fill="#f0f4ff" stroke="black" d="M71,-355C71,-355 41,-355 41,-355 35,-355 29,-349 29,-343 29,-343 29,-331 29,-331 29,-325 35,-319 41,-319 41,-319 71,-319 71,-319 77,-319 83,-325 83,-331 83,-331 83,-343 83,-343 83,-349 77,-355 71,-355"/>
<text text-anchor="middle" x="56" y="-334.8" font-family="Courier,monospace" font-size="9.00">main</text>
</g>
<!-- Node0x5bcff09e2a50&#45;&gt;Node0x5bcff0c31d60 -->
<g id="edge17" class="edge">
<title>Node0x5bcff09e2a50&#45;&gt;Node0x5bcff0c31d60</title>
<path fill="none" stroke="#4a6fa5" d="M83.34,-345.94C113.68,-356.23 163.51,-373.13 196.04,-384.16"/>
<polygon fill="#4a6fa5" stroke="#4a6fa5" points="195.55,-386.21 201.91,-386.15 196.9,-382.23 195.55,-386.21"/>
</g>
<!-- Node0x5bcff09e2a50&#45;&gt;Node0x5bcff0c33050 -->
<g id="edge19" class="edge">
<title>Node0x5bcff09e2a50&#45;&gt;Node0x5bcff0c33050</title>
<path fill="none" stroke="#4a6fa5" d="M83.34,-337C104.68,-337 135.66,-337 163.49,-337"/>
<polygon fill="#4a6fa5" stroke="#4a6fa5" points="163.74,-339.1 169.74,-337 163.74,-334.9 163.74,-339.1"/>
</g>
<!-- Node0x5bcff09e2a50&#45;&gt;Node0x5bcff0c6fa10 -->
<g id="edge18" class="edge">
<title>Node0x5bcff09e2a50&#45;&gt;Node0x5bcff0c6fa10</title>
<path fill="none" stroke="#4a6fa5" d="M83.34,-323.6C110.98,-309.54 154.77,-287.26 186.95,-270.89"/>
<polygon fill="#4a6fa5" stroke="#4a6fa5" points="188.01,-272.7 192.41,-268.11 186.11,-268.96 188.01,-272.7"/>
</g>
<!-- Node0x5bcff09df0b0 -->
<g id="node17" class="node">
<title>Node0x5bcff09df0b0</title>
<path fill="#f0f4ff" stroke="black" d="M100,-529C100,-529 12,-529 12,-529 6,-529 0,-523 0,-517 0,-517 0,-505 0,-505 0,-499 6,-493 12,-493 12,-493 100,-493 100,-493 106,-493 112,-499 112,-505 112,-505 112,-517 112,-517 112,-523 106,-529 100,-529"/>
<text text-anchor="middle" x="56" y="-508.8" font-family="Courier,monospace" font-size="9.00">__normal_iterator()</text>
</g>
<!-- Node0x5bcff09de800 -->
<g id="node18" class="node">
<title>Node0x5bcff09de800</title>
<path fill="#f0f4ff" stroke="black" d="M71.5,-471C71.5,-471 40.5,-471 40.5,-471 34.5,-471 28.5,-465 28.5,-459 28.5,-459 28.5,-447 28.5,-447 28.5,-441 34.5,-435 40.5,-435 40.5,-435 71.5,-435 71.5,-435 77.5,-435 83.5,-441 83.5,-447 83.5,-447 83.5,-459 83.5,-459 83.5,-465 77.5,-471 71.5,-471"/>
<text text-anchor="middle" x="56" y="-450.8" font-family="Courier,monospace" font-size="9.00">cbegin()</text>
</g>
<!-- Node0x5bcff09de800&#45;&gt;Node0x5bcff0c972c0 -->
<g id="edge20" class="edge">
<title>Node0x5bcff09de800&#45;&gt;Node0x5bcff0c972c0</title>
<path fill="none" stroke="#4a6fa5" d="M83.72,-453C105.91,-453 138.33,-453 166.82,-453"/>
<polygon fill="#4a6fa5" stroke="#4a6fa5" points="166.84,-455.1 172.84,-453 166.84,-450.9 166.84,-455.1"/>
</g>
<!-- Node0x5bcff0c97340 -->
<g id="node19" class="node">
<title>Node0x5bcff0c97340</title>
<path fill="#f0f4ff" stroke="black" d="M71,-587C71,-587 41,-587 41,-587 35,-587 29,-581 29,-575 29,-575 29,-563 29,-563 29,-557 35,-551 41,-551 41,-551 71,-551 71,-551 77,-551 83,-557 83,-563 83,-563 83,-575 83,-575 83,-581 77,-587 71,-587"/>
<text text-anchor="middle" x="56" y="-566.8" font-family="Courier,monospace" font-size="9.00">base()</text>
</g>
<!-- Node0x5bcff0c6da70 -->
<g id="node20" class="node">
<title>Node0x5bcff0c6da70</title>
<path fill="#f0f4ff" stroke="black" d="M71,-645C71,-645 41,-645 41,-645 35,-645 29,-639 29,-633 29,-633 29,-621 29,-621 29,-615 35,-609 41,-609 41,-609 71,-609 71,-609 77,-609 83,-615 83,-621 83,-621 83,-633 83,-633 83,-639 77,-645 71,-645"/>
<text text-anchor="middle" x="56" y="-624.8" font-family="Courier,monospace" font-size="9.00">base()</text>
</g>
<!-- Node0x5bcff0c7f7b0 -->
<g id="node21" class="node">
<title>Node0x5bcff0c7f7b0</title>
<path fill="#f0f4ff" stroke="black" d="M76.5,-703C76.5,-703 35.5,-703 35.5,-703 29.5,-703 23.5,-697 23.5,-691 23.5,-691 23.5,-679 23.5,-679 23.5,-673 29.5,-667 35.5,-667 35.5,-667 76.5,-667 76.5,-667 82.5,-667 88.5,-673 88.5,-679 88.5,-679 88.5,-691 88.5,-691 88.5,-697 82.5,-703 76.5,-703"/>
<text text-anchor="middle" x="56" y="-682.8" font-family="Courier,monospace" font-size="9.00">decltype()</text>
</g>
<!-- Node0x5bcff0c802f0 -->
<g id="node22" class="node">
<title>Node0x5bcff0c802f0</title>
<path fill="#f0f4ff" stroke="black" d="M244,-703C244,-703 214,-703 214,-703 208,-703 202,-697 202,-691 202,-691 202,-679 202,-679 202,-673 208,-667 214,-667 214,-667 244,-667 244,-667 250,-667 256,-673 256,-679 256,-679 256,-691 256,-691 256,-697 250,-703 244,-703"/>
<text text-anchor="middle" x="229" y="-682.8" font-family="Courier,monospace" font-size="9.00">base()</text>
</g>
<!-- Node0x5bcff0c7f7b0&#45;&gt;Node0x5bcff0c802f0 -->
<g id="edge21" class="edge">
<title>Node0x5bcff0c7f7b0&#45;&gt;Node0x5bcff0c802f0</title>
<path fill="none" stroke="#4a6fa5" d="M88.76,-685C119.24,-685 165.04,-685 195.7,-685"/>
<polygon fill="#4a6fa5" stroke="#4a6fa5" points="196,-687.1 202,-685 196,-682.9 196,-687.1"/>
</g>
<!-- Node0x5bcff0c7b130 -->
<g id="node23" class="node">
<title>Node0x5bcff0c7b130</title>
<path fill="#f0f4ff" stroke="black" d="M89.5,-761C89.5,-761 22.5,-761 22.5,-761 16.5,-761 10.5,-755 10.5,-749 10.5,-749 10.5,-737 10.5,-737 10.5,-731 16.5,-725 22.5,-725 22.5,-725 89.5,-725 89.5,-725 95.5,-725 101.5,-731 101.5,-737 101.5,-737 101.5,-749 101.5,-749 101.5,-755 95.5,-761 89.5,-761"/>
<text text-anchor="middle" x="56" y="-740.8" font-family="Courier,monospace" font-size="9.00">move_iterator()</text>
</g>
<!-- Node0x5bcff0c79ab0 -->
<g id="node24" class="node">
<title>Node0x5bcff0c79ab0</title>
<path fill="#f0f4ff" stroke="black" d="M76.5,-819C76.5,-819 35.5,-819 35.5,-819 29.5,-819 23.5,-813 23.5,-807 23.5,-807 23.5,-795 23.5,-795 23.5,-789 29.5,-783 35.5,-783 35.5,-783 76.5,-783 76.5,-783 82.5,-783 88.5,-789 88.5,-795 88.5,-795 88.5,-807 88.5,-807 88.5,-813 82.5,-819 76.5,-819"/>
<text text-anchor="middle" x="56" y="-798.8" font-family="Courier,monospace" font-size="9.00">max_size()</text>
</g>
<!-- Node0x5bcff0cbf020 -->
<g id="node25" class="node">
<title>Node0x5bcff0cbf020</title>
<path fill="#f0f4ff" stroke="black" d="M71,-877C71,-877 41,-877 41,-877 35,-877 29,-871 29,-865 29,-865 29,-853 29,-853 29,-847 35,-841 41,-841 41,-841 71,-841 71,-841 77,-841 83,-847 83,-853 83,-853 83,-865 83,-865 83,-871 77,-877 71,-877"/>
<text text-anchor="middle" x="56" y="-856.8" font-family="Courier,monospace" font-size="9.00">equal()</text>
</g>
<!-- Node0x5bcff0cbf740 -->
<g id="node26" class="node">
<title>Node0x5bcff0cbf740</title>
<path fill="#f0f4ff" stroke="black" d="M84.5,-935C84.5,-935 27.5,-935 27.5,-935 21.5,-935 15.5,-929 15.5,-923 15.5,-923 15.5,-911 15.5,-911 15.5,-905 21.5,-899 27.5,-899 27.5,-899 84.5,-899 84.5,-899 90.5,-899 96.5,-905 96.5,-911 96.5,-911 96.5,-923 96.5,-923 96.5,-929 90.5,-935 84.5,-935"/>
<text text-anchor="middle" x="56" y="-914.8" font-family="Courier,monospace" font-size="9.00">eq_int_type()</text>
</g>
<!-- Node0x5bcff0cc2a00 -->
<g id="node27" class="node">
<title>Node0x5bcff0cc2a00</title>
<path fill="#f0f4ff" stroke="black" d="M71,-993C71,-993 41,-993 41,-993 35,-993 29,-987 29,-981 29,-981 29,-969 29,-969 29,-963 35,-957 41,-957 41,-957 71,-957 71,-957 77,-957 83,-963 83,-969 83,-969 83,-981 83,-981 83,-987 77,-993 71,-993"/>
<text text-anchor="middle" x="56" y="-972.8" font-family="Courier,monospace" font-size="9.00">sgetc()</text>
</g>
<!-- Node0x5bcff0cbf600 -->
<g id="node28" class="node">
<title>Node0x5bcff0cbf600</title>
<path fill="#f0f4ff" stroke="black" d="M87,-1051C87,-1051 25,-1051 25,-1051 19,-1051 13,-1045 13,-1039 13,-1039 13,-1027 13,-1027 13,-1021 19,-1015 25,-1015 25,-1015 87,-1015 87,-1015 93,-1015 99,-1021 99,-1027 99,-1027 99,-1039 99,-1039 99,-1045 93,-1051 87,-1051"/>
<text text-anchor="middle" x="56" y="-1030.8" font-family="Courier,monospace" font-size="9.00">to_char_type()</text>
</g>
<!-- Node0x5bcff0cbfbe0 -->
<g id="node29" class="node">
<title>Node0x5bcff0cbfbe0</title>
<path fill="#f0f4ff" stroke="black" d="M71.5,-1109C71.5,-1109 40.5,-1109 40.5,-1109 34.5,-1109 28.5,-1103 28.5,-1097 28.5,-1097 28.5,-1085 28.5,-1085 28.5,-1079 34.5,-1073 40.5,-1073 40.5,-1073 71.5,-1073 71.5,-1073 77.5,-1073 83.5,-1079 83.5,-1085 83.5,-1085 83.5,-1097 83.5,-1097 83.5,-1103 77.5,-1109 71.5,-1109"/>
<text text-anchor="middle" x="56" y="-1088.8" font-family="Courier,monospace" font-size="9.00">sbumpc()</text>
</g>
<!-- Node0x5bcff0c70d50 -->
<g id="node30" class="node">
<title>Node0x5bcff0c70d50</title>
<path fill="#f0f4ff" stroke="black" d="M71.5,-1167C71.5,-1167 40.5,-1167 40.5,-1167 34.5,-1167 28.5,-1161 28.5,-1155 28.5,-1155 28.5,-1143 28.5,-1143 28.5,-1137 34.5,-1131 40.5,-1131 40.5,-1131 71.5,-1131 71.5,-1131 77.5,-1131 83.5,-1137 83.5,-1143 83.5,-1143 83.5,-1155 83.5,-1155 83.5,-1161 77.5,-1167 71.5,-1167"/>
<text text-anchor="middle" x="56" y="-1146.8" font-family="Courier,monospace" font-size="9.00">length()</text>
</g>
<!-- Node0x5bcff0cacb30 -->
<g id="node31" class="node">
<title>Node0x5bcff0cacb30</title>
<path fill="#f0f4ff" stroke="black" d="M92.5,-1225C92.5,-1225 19.5,-1225 19.5,-1225 13.5,-1225 7.5,-1219 7.5,-1213 7.5,-1213 7.5,-1201 7.5,-1201 7.5,-1195 13.5,-1189 19.5,-1189 19.5,-1189 92.5,-1189 92.5,-1189 98.5,-1189 104.5,-1195 104.5,-1201 104.5,-1201 104.5,-1213 104.5,-1213 104.5,-1219 98.5,-1225 92.5,-1225"/>
<text text-anchor="middle" x="56" y="-1204.8" font-family="Courier,monospace" font-size="9.00">_Guard::_Guard()</text>
</g>
<!-- Node0x5bcff0cb00b0 -->
<g id="node32" class="node">
<title>Node0x5bcff0cb00b0</title>
<path fill="#f0f4ff" stroke="black" d="M95,-1283C95,-1283 17,-1283 17,-1283 11,-1283 5,-1277 5,-1271 5,-1271 5,-1259 5,-1259 5,-1253 11,-1247 17,-1247 17,-1247 95,-1247 95,-1247 101,-1247 107,-1253 107,-1259 107,-1259 107,-1271 107,-1271 107,-1277 101,-1283 95,-1283"/>
<text text-anchor="middle" x="56" y="-1262.8" font-family="Courier,monospace" font-size="9.00">_Guard::~_Guard()</text>
</g>
</g>
</svg>
