<?xml version="1.0" encoding="UTF-8" standalone="no"?>
<!DOCTYPE svg PUBLIC "-//W3C//DTD SVG 1.1//EN"
 "http://www.w3.org/Graphics/SVG/1.1/DTD/svg11.dtd">
<!-- Generated by graphviz version 2.43.0 (0)
 -->
<!-- Title: Call graph: /home/h02332/po/research/call&#45;graph/iccdev/tools/iccPngDump.ll Pages: 1 -->
<svg width="687pt" height="1065pt"
 viewBox="0.00 0.00 687.20 1065.20" xmlns="http://www.w3.org/2000/svg" xmlns:xlink="http://www.w3.org/1999/xlink">
<g id="graph0" class="graph" transform="scale(1 1) rotate(0) translate(21.6 1043.6)">
<title>Call graph: /home/h02332/po/research/call&#45;graph/iccdev/tools/iccPngDump.ll</title>
<polygon fill="white" stroke="transparent" points="-21.6,21.6 -21.6,-1043.6 665.6,-1043.6 665.6,21.6 -21.6,21.6"/>
<!-- Node0x5d15ac6e41d0 -->
<g id="node1" class="node">
<title>Node0x5d15ac6e41d0</title>
<path fill="#f0f4ff" stroke="black" d="M478,-326C478,-326 405,-326 405,-326 399,-326 393,-320 393,-314 393,-314 393,-302 393,-302 393,-296 399,-290 405,-290 405,-290 478,-290 478,-290 484,-290 490,-296 490,-302 490,-302 490,-314 490,-314 490,-320 484,-326 478,-326"/>
<text text-anchor="middle" x="441.5" y="-305.8" font-family="Courier,monospace" font-size="9.00">basic_ifstream()</text>
</g>
<!-- Node0x5d15ac8537e0 -->
<g id="node2" class="node">
<title>Node0x5d15ac8537e0</title>
<path fill="#f0f4ff" stroke="black" d="M491,-268C491,-268 392,-268 392,-268 386,-268 380,-262 380,-256 380,-256 380,-244 380,-244 380,-238 386,-232 392,-232 392,-232 491,-232 491,-232 497,-232 503,-238 503,-244 503,-244 503,-256 503,-256 503,-262 497,-268 491,-268"/>
<text text-anchor="middle" x="441.5" y="-247.8" font-family="Courier,monospace" font-size="9.00">istreambuf_iterator()</text>
</g>
<!-- Node0x5d15ac6eb4b0 -->
<g id="node3" class="node">
<title>Node0x5d15ac6eb4b0</title>
<path fill="#f0f4ff" stroke="black" d="M632,-268C632,-268 602,-268 602,-268 596,-268 590,-262 590,-256 590,-256 590,-244 590,-244 590,-238 596,-232 602,-232 602,-232 632,-232 632,-232 638,-232 644,-238 644,-244 644,-244 644,-256 644,-256 644,-262 638,-268 632,-268"/>
<text text-anchor="middle" x="617" y="-247.8" font-family="Courier,monospace" font-size="9.00">rdbuf()</text>
</g>
<!-- Node0x5d15ac8537e0&#45;&gt;Node0x5d15ac6eb4b0 -->
<g id="edge1" class="edge">
<title>Node0x5d15ac8537e0&#45;&gt;Node0x5d15ac6eb4b0</title>
<path fill="none" stroke="#4a6fa5" d="M503.18,-250C530.34,-250 561.25,-250 583.84,-250"/>
<polygon fill="#4a6fa5" stroke="#4a6fa5" points="583.98,-252.1 589.98,-250 583.98,-247.9 583.98,-252.1"/>
</g>
<!-- Node0x5d15ac6eab10 -->
<g id="node4" class="node">
<title>Node0x5d15ac6eab10</title>
<path fill="#f0f4ff" stroke="black" d="M632,-181C632,-181 602,-181 602,-181 596,-181 590,-175 590,-169 590,-169 590,-157 590,-157 590,-151 596,-145 602,-145 602,-145 632,-145 632,-145 638,-145 644,-151 644,-157 644,-157 644,-169 644,-169 644,-175 638,-181 632,-181"/>
<text text-anchor="middle" x="617" y="-160.8" font-family="Courier,monospace" font-size="9.00">eof()</text>
</g>
<!-- Node0x5d15ac8537e0&#45;&gt;Node0x5d15ac6eab10 -->
<g id="edge2" class="edge">
<title>Node0x5d15ac8537e0&#45;&gt;Node0x5d15ac6eab10</title>
<path fill="none" stroke="#4a6fa5" d="M503.15,-233.01C512.99,-229.5 522.92,-225.49 532,-221 551.99,-211.13 572.61,-196.95 588.42,-185.09"/>
<polygon fill="#4a6fa5" stroke="#4a6fa5" points="590.08,-186.47 593.59,-181.17 587.54,-183.12 590.08,-186.47"/>
</g>
<!-- Node0x5d15ac81a450 -->
<g id="node5" class="node">
<title>Node0x5d15ac81a450</title>
<path fill="#f0f4ff" stroke="black" d="M71,-384C71,-384 41,-384 41,-384 35,-384 29,-378 29,-372 29,-372 29,-360 29,-360 29,-354 35,-348 41,-348 41,-348 71,-348 71,-348 77,-348 83,-354 83,-360 83,-360 83,-372 83,-372 83,-378 77,-384 71,-384"/>
<text text-anchor="middle" x="56" y="-363.8" font-family="Courier,monospace" font-size="9.00">main</text>
</g>
<!-- Node0x5d15ac8486d0 -->
<g id="node6" class="node">
<title>Node0x5d15ac8486d0</title>
<path fill="#f0f4ff" stroke="black" d="M246.5,-500C246.5,-500 216.5,-500 216.5,-500 210.5,-500 204.5,-494 204.5,-488 204.5,-488 204.5,-476 204.5,-476 204.5,-470 210.5,-464 216.5,-464 216.5,-464 246.5,-464 246.5,-464 252.5,-464 258.5,-470 258.5,-476 258.5,-476 258.5,-488 258.5,-488 258.5,-494 252.5,-500 246.5,-500"/>
<text text-anchor="middle" x="231.5" y="-479.8" font-family="Courier,monospace" font-size="9.00">Usage()</text>
</g>
<!-- Node0x5d15ac81a450&#45;&gt;Node0x5d15ac8486d0 -->
<g id="edge3" class="edge">
<title>Node0x5d15ac81a450&#45;&gt;Node0x5d15ac8486d0</title>
<path fill="none" stroke="#4a6fa5" d="M83.14,-377.76C92.61,-382.53 103.14,-388.47 112,-395 141.34,-416.63 140.25,-431.93 170,-453 178.82,-459.25 189.19,-464.77 198.84,-469.28"/>
<polygon fill="#4a6fa5" stroke="#4a6fa5" points="198.08,-471.25 204.41,-471.82 199.82,-467.42 198.08,-471.25"/>
</g>
<!-- Node0x5d15ac6e3ab0 -->
<g id="node7" class="node">
<title>Node0x5d15ac6e3ab0</title>
<path fill="#f0f4ff" stroke="black" d="M281,-442C281,-442 182,-442 182,-442 176,-442 170,-436 170,-430 170,-430 170,-418 170,-418 170,-412 176,-406 182,-406 182,-406 281,-406 281,-406 287,-406 293,-412 293,-418 293,-418 293,-430 293,-430 293,-436 287,-442 281,-442"/>
<text text-anchor="middle" x="231.5" y="-421.8" font-family="Courier,monospace" font-size="9.00">PrintIccProfileInfo()</text>
</g>
<!-- Node0x5d15ac81a450&#45;&gt;Node0x5d15ac6e3ab0 -->
<g id="edge4" class="edge">
<title>Node0x5d15ac81a450&#45;&gt;Node0x5d15ac6e3ab0</title>
<path fill="none" stroke="#4a6fa5" d="M83.35,-374.81C106.46,-382.53 140.91,-394.05 170.68,-404"/>
<polygon fill="#4a6fa5" stroke="#4a6fa5" points="170.21,-406.06 176.56,-405.97 171.54,-402.07 170.21,-406.06"/>
</g>
<!-- Node0x5d15ac852f20 -->
<g id="node8" class="node">
<title>Node0x5d15ac852f20</title>
<path fill="#f0f4ff" stroke="black" d="M275.5,-384C275.5,-384 187.5,-384 187.5,-384 181.5,-384 175.5,-378 175.5,-372 175.5,-372 175.5,-360 175.5,-360 175.5,-354 181.5,-348 187.5,-348 187.5,-348 275.5,-348 275.5,-348 281.5,-348 287.5,-354 287.5,-360 287.5,-360 287.5,-372 287.5,-372 287.5,-378 281.5,-384 275.5,-384"/>
<text text-anchor="middle" x="231.5" y="-363.8" font-family="Courier,monospace" font-size="9.00">ExtractIccProfile()</text>
</g>
<!-- Node0x5d15ac81a450&#45;&gt;Node0x5d15ac852f20 -->
<g id="edge5" class="edge">
<title>Node0x5d15ac81a450&#45;&gt;Node0x5d15ac852f20</title>
<path fill="none" stroke="#4a6fa5" d="M83.35,-366C106.1,-366 139.84,-366 169.28,-366"/>
<polygon fill="#4a6fa5" stroke="#4a6fa5" points="169.49,-368.1 175.49,-366 169.49,-363.9 169.49,-368.1"/>
</g>
<!-- Node0x5d15ac6dfbb0 -->
<g id="node9" class="node">
<title>Node0x5d15ac6dfbb0</title>
<path fill="#f0f4ff" stroke="black" d="M262.5,-326C262.5,-326 200.5,-326 200.5,-326 194.5,-326 188.5,-320 188.5,-314 188.5,-314 188.5,-302 188.5,-302 188.5,-296 194.5,-290 200.5,-290 200.5,-290 262.5,-290 262.5,-290 268.5,-290 274.5,-296 274.5,-302 274.5,-302 274.5,-314 274.5,-314 274.5,-320 268.5,-326 262.5,-326"/>
<text text-anchor="middle" x="231.5" y="-305.8" font-family="Courier,monospace" font-size="9.00">PrintPngInfo()</text>
</g>
<!-- Node0x5d15ac81a450&#45;&gt;Node0x5d15ac6dfbb0 -->
<g id="edge6" class="edge">
<title>Node0x5d15ac81a450&#45;&gt;Node0x5d15ac6dfbb0</title>
<path fill="none" stroke="#4a6fa5" d="M83.35,-357.19C109.59,-348.42 150.46,-334.76 182.48,-324.05"/>
<polygon fill="#4a6fa5" stroke="#4a6fa5" points="183.32,-325.99 188.34,-322.09 181.99,-322 183.32,-325.99"/>
</g>
<!-- Node0x5d15ac7512c0 -->
<g id="node10" class="node">
<title>Node0x5d15ac7512c0</title>
<path fill="#f0f4ff" stroke="black" d="M273,-210C273,-210 190,-210 190,-210 184,-210 178,-204 178,-198 178,-198 178,-186 178,-186 178,-180 184,-174 190,-174 190,-174 273,-174 273,-174 279,-174 285,-180 285,-186 285,-186 285,-198 285,-198 285,-204 279,-210 273,-210"/>
<text text-anchor="middle" x="231.5" y="-189.8" font-family="Courier,monospace" font-size="9.00">InjectIccProfile()</text>
</g>
<!-- Node0x5d15ac81a450&#45;&gt;Node0x5d15ac7512c0 -->
<g id="edge7" class="edge">
<title>Node0x5d15ac81a450&#45;&gt;Node0x5d15ac7512c0</title>
<path fill="none" stroke="#4a6fa5" d="M75.24,-347.71C107.21,-315.64 173.28,-249.39 208.02,-214.54"/>
<polygon fill="#4a6fa5" stroke="#4a6fa5" points="209.76,-215.78 212.5,-210.05 206.78,-212.81 209.76,-215.78"/>
</g>
<!-- Node0x5d15ac6eb050 -->
<g id="node15" class="node">
<title>Node0x5d15ac6eb050</title>
<path fill="#f0f4ff" stroke="black" d="M491,-558C491,-558 392,-558 392,-558 386,-558 380,-552 380,-546 380,-546 380,-534 380,-534 380,-528 386,-522 392,-522 392,-522 491,-522 491,-522 497,-522 503,-528 503,-534 503,-534 503,-546 503,-546 503,-552 497,-558 491,-558"/>
<text text-anchor="middle" x="441.5" y="-537.8" font-family="Courier,monospace" font-size="9.00">CIccInfo::~CIccInfo()</text>
</g>
<!-- Node0x5d15ac6e3ab0&#45;&gt;Node0x5d15ac6eb050 -->
<g id="edge14" class="edge">
<title>Node0x5d15ac6e3ab0&#45;&gt;Node0x5d15ac6eb050</title>
<path fill="none" stroke="#4a6fa5" d="M274.88,-442.03C281.15,-445.35 287.39,-449.03 293,-453 322.75,-474.07 319.91,-491.96 351,-511 357.99,-515.28 365.69,-519 373.53,-522.21"/>
<polygon fill="#4a6fa5" stroke="#4a6fa5" points="373.2,-524.34 379.56,-524.57 374.73,-520.42 373.2,-524.34"/>
</g>
<!-- Node0x5d15ac6eadf0 -->
<g id="node16" class="node">
<title>Node0x5d15ac6eadf0</title>
<path fill="#f0f4ff" stroke="black" d="M478,-500C478,-500 405,-500 405,-500 399,-500 393,-494 393,-488 393,-488 393,-476 393,-476 393,-470 399,-464 405,-464 405,-464 478,-464 478,-464 484,-464 490,-470 490,-476 490,-476 490,-488 490,-488 490,-494 484,-500 478,-500"/>
<text text-anchor="middle" x="441.5" y="-479.8" font-family="Courier,monospace" font-size="9.00">OpenIccProfile()</text>
</g>
<!-- Node0x5d15ac6e3ab0&#45;&gt;Node0x5d15ac6eadf0 -->
<g id="edge15" class="edge">
<title>Node0x5d15ac6e3ab0&#45;&gt;Node0x5d15ac6eadf0</title>
<path fill="none" stroke="#4a6fa5" d="M293.22,-440.93C322.89,-449.2 358.27,-459.07 386.92,-467.06"/>
<polygon fill="#4a6fa5" stroke="#4a6fa5" points="386.58,-469.15 392.93,-468.73 387.71,-465.1 386.58,-469.15"/>
</g>
<!-- Node0x5d15ac6ea200 -->
<g id="node17" class="node">
<title>Node0x5d15ac6ea200</title>
<path fill="#f0f4ff" stroke="black" d="M488.5,-442C488.5,-442 394.5,-442 394.5,-442 388.5,-442 382.5,-436 382.5,-430 382.5,-430 382.5,-418 382.5,-418 382.5,-412 388.5,-406 394.5,-406 394.5,-406 488.5,-406 488.5,-406 494.5,-406 500.5,-412 500.5,-418 500.5,-418 500.5,-430 500.5,-430 500.5,-436 494.5,-442 488.5,-442"/>
<text text-anchor="middle" x="441.5" y="-421.8" font-family="Courier,monospace" font-size="9.00">CIccInfo::CIccInfo()</text>
</g>
<!-- Node0x5d15ac6e3ab0&#45;&gt;Node0x5d15ac6ea200 -->
<g id="edge16" class="edge">
<title>Node0x5d15ac6e3ab0&#45;&gt;Node0x5d15ac6ea200</title>
<path fill="none" stroke="#4a6fa5" d="M293.22,-424C319.2,-424 349.56,-424 375.94,-424"/>
<polygon fill="#4a6fa5" stroke="#4a6fa5" points="376.21,-426.1 382.21,-424 376.21,-421.9 376.21,-426.1"/>
</g>
<!-- Node0x5d15ac8575c0 -->
<g id="node18" class="node">
<title>Node0x5d15ac8575c0</title>
<path fill="#f0f4ff" stroke="black" d="M520,-384C520,-384 363,-384 363,-384 357,-384 351,-378 351,-372 351,-372 351,-360 351,-360 351,-354 357,-348 363,-348 363,-348 520,-348 520,-348 526,-348 532,-354 532,-360 532,-360 532,-372 532,-372 532,-378 526,-384 520,-384"/>
<text text-anchor="middle" x="441.5" y="-363.8" font-family="Courier,monospace" font-size="9.00">CIccInfo::GetColorSpaceSigName()</text>
</g>
<!-- Node0x5d15ac6e3ab0&#45;&gt;Node0x5d15ac8575c0 -->
<g id="edge17" class="edge">
<title>Node0x5d15ac6e3ab0&#45;&gt;Node0x5d15ac8575c0</title>
<path fill="none" stroke="#4a6fa5" d="M293.22,-407.07C317.2,-400.38 344.91,-392.65 369.79,-385.72"/>
<polygon fill="#4a6fa5" stroke="#4a6fa5" points="370.5,-387.7 375.71,-384.07 369.37,-383.65 370.5,-387.7"/>
</g>
<!-- Node0x5d15ac7512c0&#45;&gt;Node0x5d15ac6e41d0 -->
<g id="edge8" class="edge">
<title>Node0x5d15ac7512c0&#45;&gt;Node0x5d15ac6e41d0</title>
<path fill="none" stroke="#4a6fa5" d="M252.98,-210.24C275.59,-229.58 313.75,-259.92 351,-279 362.24,-284.76 374.86,-289.68 387,-293.76"/>
<polygon fill="#4a6fa5" stroke="#4a6fa5" points="386.56,-295.82 392.91,-295.69 387.86,-291.83 386.56,-295.82"/>
</g>
<!-- Node0x5d15ac7512c0&#45;&gt;Node0x5d15ac8537e0 -->
<g id="edge10" class="edge">
<title>Node0x5d15ac7512c0&#45;&gt;Node0x5d15ac8537e0</title>
<path fill="none" stroke="#4a6fa5" d="M285.26,-206.71C312.11,-214.2 345.04,-223.38 373.66,-231.36"/>
<polygon fill="#4a6fa5" stroke="#4a6fa5" points="373.35,-233.46 379.69,-233.04 374.48,-229.41 373.35,-233.46"/>
</g>
<!-- Node0x5d15ac6e3f40 -->
<g id="node11" class="node">
<title>Node0x5d15ac6e3f40</title>
<path fill="#f0f4ff" stroke="black" d="M459.5,-210C459.5,-210 423.5,-210 423.5,-210 417.5,-210 411.5,-204 411.5,-198 411.5,-198 411.5,-186 411.5,-186 411.5,-180 417.5,-174 423.5,-174 423.5,-174 459.5,-174 459.5,-174 465.5,-174 471.5,-180 471.5,-186 471.5,-186 471.5,-198 471.5,-198 471.5,-204 465.5,-210 459.5,-210"/>
<text text-anchor="middle" x="441.5" y="-189.8" font-family="Courier,monospace" font-size="9.00">is_open()</text>
</g>
<!-- Node0x5d15ac7512c0&#45;&gt;Node0x5d15ac6e3f40 -->
<g id="edge9" class="edge">
<title>Node0x5d15ac7512c0&#45;&gt;Node0x5d15ac6e3f40</title>
<path fill="none" stroke="#4a6fa5" d="M285.26,-192C322.72,-192 372,-192 404.89,-192"/>
<polygon fill="#4a6fa5" stroke="#4a6fa5" points="405.24,-194.1 411.24,-192 405.24,-189.9 405.24,-194.1"/>
</g>
<!-- Node0x5d15ac853650 -->
<g id="node12" class="node">
<title>Node0x5d15ac853650</title>
<path fill="#f0f4ff" stroke="black" d="M491,-152C491,-152 392,-152 392,-152 386,-152 380,-146 380,-140 380,-140 380,-128 380,-128 380,-122 386,-116 392,-116 392,-116 491,-116 491,-116 497,-116 503,-122 503,-128 503,-128 503,-140 503,-140 503,-146 497,-152 491,-152"/>
<text text-anchor="middle" x="441.5" y="-131.8" font-family="Courier,monospace" font-size="9.00">istreambuf_iterator()</text>
</g>
<!-- Node0x5d15ac7512c0&#45;&gt;Node0x5d15ac853650 -->
<g id="edge11" class="edge">
<title>Node0x5d15ac7512c0&#45;&gt;Node0x5d15ac853650</title>
<path fill="none" stroke="#4a6fa5" d="M285.26,-177.29C312.11,-169.8 345.04,-160.62 373.66,-152.64"/>
<polygon fill="#4a6fa5" stroke="#4a6fa5" points="374.48,-154.59 379.69,-150.96 373.35,-150.54 374.48,-154.59"/>
</g>
<!-- Node0x5d15ac6e4b20 -->
<g id="node13" class="node">
<title>Node0x5d15ac6e4b20</title>
<path fill="#f0f4ff" stroke="black" d="M456.5,-94C456.5,-94 426.5,-94 426.5,-94 420.5,-94 414.5,-88 414.5,-82 414.5,-82 414.5,-70 414.5,-70 414.5,-64 420.5,-58 426.5,-58 426.5,-58 456.5,-58 456.5,-58 462.5,-58 468.5,-64 468.5,-70 468.5,-70 468.5,-82 468.5,-82 468.5,-88 462.5,-94 456.5,-94"/>
<text text-anchor="middle" x="441.5" y="-73.8" font-family="Courier,monospace" font-size="9.00">c_str()</text>
</g>
<!-- Node0x5d15ac7512c0&#45;&gt;Node0x5d15ac6e4b20 -->
<g id="edge12" class="edge">
<title>Node0x5d15ac7512c0&#45;&gt;Node0x5d15ac6e4b20</title>
<path fill="none" stroke="#4a6fa5" d="M252.98,-173.76C275.59,-154.42 313.75,-124.08 351,-105 369,-95.78 390.52,-88.7 407.95,-83.84"/>
<polygon fill="#4a6fa5" stroke="#4a6fa5" points="408.93,-85.75 414.17,-82.15 407.83,-81.7 408.93,-85.75"/>
</g>
<!-- Node0x5d15ac855db0 -->
<g id="node14" class="node">
<title>Node0x5d15ac855db0</title>
<path fill="#f0f4ff" stroke="black" d="M478,-36C478,-36 405,-36 405,-36 399,-36 393,-30 393,-24 393,-24 393,-12 393,-12 393,-6 399,0 405,0 405,0 478,0 478,0 484,0 490,-6 490,-12 490,-12 490,-24 490,-24 490,-30 484,-36 478,-36"/>
<text text-anchor="middle" x="441.5" y="-15.8" font-family="Courier,monospace" font-size="9.00">basic_ifstream()</text>
</g>
<!-- Node0x5d15ac7512c0&#45;&gt;Node0x5d15ac855db0 -->
<g id="edge13" class="edge">
<title>Node0x5d15ac7512c0&#45;&gt;Node0x5d15ac855db0</title>
<path fill="none" stroke="#4a6fa5" d="M242.75,-173.55C260.71,-142.86 300.81,-81.3 351,-47 361.66,-39.71 374.27,-34.16 386.62,-29.97"/>
<polygon fill="#4a6fa5" stroke="#4a6fa5" points="387.58,-31.86 392.64,-28.02 386.29,-27.87 387.58,-31.86"/>
</g>
<!-- Node0x5d15ac853650&#45;&gt;Node0x5d15ac6eab10 -->
<g id="edge18" class="edge">
<title>Node0x5d15ac853650&#45;&gt;Node0x5d15ac6eab10</title>
<path fill="none" stroke="#4a6fa5" d="M503.18,-144.14C530.34,-148.68 561.25,-153.85 583.84,-157.62"/>
<polygon fill="#4a6fa5" stroke="#4a6fa5" points="583.71,-159.73 589.98,-158.65 584.41,-155.59 583.71,-159.73"/>
</g>
<!-- Node0x5d15ac856330 -->
<g id="node19" class="node">
<title>Node0x5d15ac856330</title>
<path fill="#f0f4ff" stroke="black" d="M71.5,-442C71.5,-442 40.5,-442 40.5,-442 34.5,-442 28.5,-436 28.5,-430 28.5,-430 28.5,-418 28.5,-418 28.5,-412 34.5,-406 40.5,-406 40.5,-406 71.5,-406 71.5,-406 77.5,-406 83.5,-412 83.5,-418 83.5,-418 83.5,-430 83.5,-430 83.5,-436 77.5,-442 71.5,-442"/>
<text text-anchor="middle" x="56" y="-421.8" font-family="Courier,monospace" font-size="9.00">length()</text>
</g>
<!-- Node0x5d15ac85cbc0 -->
<g id="node20" class="node">
<title>Node0x5d15ac85cbc0</title>
<path fill="#f0f4ff" stroke="black" d="M92.5,-500C92.5,-500 19.5,-500 19.5,-500 13.5,-500 7.5,-494 7.5,-488 7.5,-488 7.5,-476 7.5,-476 7.5,-470 13.5,-464 19.5,-464 19.5,-464 92.5,-464 92.5,-464 98.5,-464 104.5,-470 104.5,-476 104.5,-476 104.5,-488 104.5,-488 104.5,-494 98.5,-500 92.5,-500"/>
<text text-anchor="middle" x="56" y="-479.8" font-family="Courier,monospace" font-size="9.00">_Guard::_Guard()</text>
</g>
<!-- Node0x5d15ac85d8c0 -->
<g id="node21" class="node">
<title>Node0x5d15ac85d8c0</title>
<path fill="#f0f4ff" stroke="black" d="M95,-558C95,-558 17,-558 17,-558 11,-558 5,-552 5,-546 5,-546 5,-534 5,-534 5,-528 11,-522 17,-522 17,-522 95,-522 95,-522 101,-522 107,-528 107,-534 107,-534 107,-546 107,-546 107,-552 101,-558 95,-558"/>
<text text-anchor="middle" x="56" y="-537.8" font-family="Courier,monospace" font-size="9.00">_Guard::~_Guard()</text>
</g>
<!-- Node0x5d15ac871900 -->
<g id="node22" class="node">
<title>Node0x5d15ac871900</title>
<path fill="#f0f4ff" stroke="black" d="M71,-616C71,-616 41,-616 41,-616 35,-616 29,-610 29,-604 29,-604 29,-592 29,-592 29,-586 35,-580 41,-580 41,-580 71,-580 71,-580 77,-580 83,-586 83,-592 83,-592 83,-604 83,-604 83,-610 77,-616 71,-616"/>
<text text-anchor="middle" x="56" y="-595.8" font-family="Courier,monospace" font-size="9.00">equal()</text>
</g>
<!-- Node0x5d15ac87e920 -->
<g id="node23" class="node">
<title>Node0x5d15ac87e920</title>
<path fill="#f0f4ff" stroke="black" d="M84.5,-674C84.5,-674 27.5,-674 27.5,-674 21.5,-674 15.5,-668 15.5,-662 15.5,-662 15.5,-650 15.5,-650 15.5,-644 21.5,-638 27.5,-638 27.5,-638 84.5,-638 84.5,-638 90.5,-638 96.5,-644 96.5,-650 96.5,-650 96.5,-662 96.5,-662 96.5,-668 90.5,-674 84.5,-674"/>
<text text-anchor="middle" x="56" y="-653.8" font-family="Courier,monospace" font-size="9.00">eq_int_type()</text>
</g>
<!-- Node0x5d15ac87d5e0 -->
<g id="node24" class="node">
<title>Node0x5d15ac87d5e0</title>
<path fill="#f0f4ff" stroke="black" d="M71,-732C71,-732 41,-732 41,-732 35,-732 29,-726 29,-720 29,-720 29,-708 29,-708 29,-702 35,-696 41,-696 41,-696 71,-696 71,-696 77,-696 83,-702 83,-708 83,-708 83,-720 83,-720 83,-726 77,-732 71,-732"/>
<text text-anchor="middle" x="56" y="-711.8" font-family="Courier,monospace" font-size="9.00">sgetc()</text>
</g>
<!-- Node0x5d15ac87ab30 -->
<g id="node25" class="node">
<title>Node0x5d15ac87ab30</title>
<path fill="#f0f4ff" stroke="black" d="M71,-790C71,-790 41,-790 41,-790 35,-790 29,-784 29,-778 29,-778 29,-766 29,-766 29,-760 35,-754 41,-754 41,-754 71,-754 71,-754 77,-754 83,-760 83,-766 83,-766 83,-778 83,-778 83,-784 77,-790 71,-790"/>
<text text-anchor="middle" x="56" y="-769.8" font-family="Courier,monospace" font-size="9.00">base()</text>
</g>
<!-- Node0x5d15ac882590 -->
<g id="node26" class="node">
<title>Node0x5d15ac882590</title>
<path fill="#f0f4ff" stroke="black" d="M76.5,-848C76.5,-848 35.5,-848 35.5,-848 29.5,-848 23.5,-842 23.5,-836 23.5,-836 23.5,-824 23.5,-824 23.5,-818 29.5,-812 35.5,-812 35.5,-812 76.5,-812 76.5,-812 82.5,-812 88.5,-818 88.5,-824 88.5,-824 88.5,-836 88.5,-836 88.5,-842 82.5,-848 76.5,-848"/>
<text text-anchor="middle" x="56" y="-827.8" font-family="Courier,monospace" font-size="9.00">max_size()</text>
</g>
<!-- Node0x5d15ac882d50 -->
<g id="node27" class="node">
<title>Node0x5d15ac882d50</title>
<path fill="#f0f4ff" stroke="black" d="M100,-906C100,-906 12,-906 12,-906 6,-906 0,-900 0,-894 0,-894 0,-882 0,-882 0,-876 6,-870 12,-870 12,-870 100,-870 100,-870 106,-870 112,-876 112,-882 112,-882 112,-894 112,-894 112,-900 106,-906 100,-906"/>
<text text-anchor="middle" x="56" y="-885.8" font-family="Courier,monospace" font-size="9.00">__normal_iterator()</text>
</g>
<!-- Node0x5d15ac8750e0 -->
<g id="node28" class="node">
<title>Node0x5d15ac8750e0</title>
<path fill="#f0f4ff" stroke="black" d="M87,-964C87,-964 25,-964 25,-964 19,-964 13,-958 13,-952 13,-952 13,-940 13,-940 13,-934 19,-928 25,-928 25,-928 87,-928 87,-928 93,-928 99,-934 99,-940 99,-940 99,-952 99,-952 99,-958 93,-964 87,-964"/>
<text text-anchor="middle" x="56" y="-943.8" font-family="Courier,monospace" font-size="9.00">to_char_type()</text>
</g>
<!-- Node0x5d15ac873a70 -->
<g id="node29" class="node">
<title>Node0x5d15ac873a70</title>
<path fill="#f0f4ff" stroke="black" d="M71.5,-1022C71.5,-1022 40.5,-1022 40.5,-1022 34.5,-1022 28.5,-1016 28.5,-1010 28.5,-1010 28.5,-998 28.5,-998 28.5,-992 34.5,-986 40.5,-986 40.5,-986 71.5,-986 71.5,-986 77.5,-986 83.5,-992 83.5,-998 83.5,-998 83.5,-1010 83.5,-1010 83.5,-1016 77.5,-1022 71.5,-1022"/>
<text text-anchor="middle" x="56" y="-1001.8" font-family="Courier,monospace" font-size="9.00">sbumpc()</text>
</g>
</g>
</svg>
