<?xml version="1.0" encoding="UTF-8" standalone="no"?>
<!DOCTYPE svg PUBLIC "-//W3C//DTD SVG 1.1//EN"
 "http://www.w3.org/Graphics/SVG/1.1/DTD/svg11.dtd">
<!-- Generated by graphviz version 2.43.0 (0)
 -->
<!-- Title: Call graph: /home/h02332/po/research/call&#45;graph/iccdev/tools/iccRoundTrip.ll Pages: 1 -->
<svg width="3881pt" height="141pt"
 viewBox="0.00 0.00 3880.50 141.00" xmlns="http://www.w3.org/2000/svg" xmlns:xlink="http://www.w3.org/1999/xlink">
<g id="graph0" class="graph" transform="scale(1 1) rotate(0) translate(4 137)">
<title>Call graph: /home/h02332/po/research/call&#45;graph/iccdev/tools/iccRoundTrip.ll</title>
<polygon fill="white" stroke="transparent" points="-4,4 -4,-137 3876.5,-137 3876.5,4 -4,4"/>
<text text-anchor="middle" x="1936.25" y="-7.8" font-family="Times,serif" font-size="14.00">Call graph: /home/h02332/po/research/call&#45;graph/iccdev/tools/iccRoundTrip.ll</text>
<!-- Node0x5ca80d1a9200 -->
<g id="node1" class="node">
<title>Node0x5ca80d1a9200</title>
<polygon fill="none" stroke="black" points="144,-96.5 144,-132.5 366,-132.5 366,-96.5 144,-96.5"/>
<text text-anchor="middle" x="255" y="-110.8" font-family="Times,serif" font-size="14.00">_ZN14CIccMinMaxEvalC2Ev</text>
</g>
<!-- Node0x5ca80d1558e0 -->
<g id="node2" class="node">
<title>Node0x5ca80d1558e0</title>
<polygon fill="none" stroke="black" points="0,-23.5 0,-59.5 228,-59.5 228,-23.5 0,-23.5"/>
<text text-anchor="middle" x="114" y="-37.8" font-family="Times,serif" font-size="14.00">_ZN15CIccEvalCompareC2Ev</text>
</g>
<!-- Node0x5ca80d1a9200&#45;&gt;Node0x5ca80d1558e0 -->
<g id="edge1" class="edge">
<title>Node0x5ca80d1a9200&#45;&gt;Node0x5ca80d1558e0</title>
<path fill="none" stroke="black" d="M221.23,-96.49C202.01,-86.82 177.74,-74.6 157.15,-64.23"/>
<polygon fill="black" stroke="black" points="158.49,-60.99 147.99,-59.61 155.34,-67.24 158.49,-60.99"/>
</g>
<!-- Node0x5ca80d1a8e70 -->
<g id="node3" class="node">
<title>Node0x5ca80d1a8e70</title>
<polygon fill="none" stroke="black" points="246,-23.5 246,-59.5 404,-59.5 404,-23.5 246,-23.5"/>
<text text-anchor="middle" x="325" y="-37.8" font-family="Times,serif" font-size="14.00">llvm.memset.p0.i64</text>
</g>
<!-- Node0x5ca80d1a9200&#45;&gt;Node0x5ca80d1a8e70 -->
<g id="edge2" class="edge">
<title>Node0x5ca80d1a9200&#45;&gt;Node0x5ca80d1a8e70</title>
<path fill="none" stroke="black" d="M271.95,-96.31C280.72,-87.42 291.57,-76.41 301.17,-66.67"/>
<polygon fill="black" stroke="black" points="303.68,-69.11 308.21,-59.53 298.7,-64.19 303.68,-69.11"/>
</g>
<!-- Node0x5ca80d155610 -->
<g id="node4" class="node">
<title>Node0x5ca80d155610</title>
<polygon fill="none" stroke="black" points="455.5,-96.5 455.5,-132.5 814.5,-132.5 814.5,-96.5 455.5,-96.5"/>
<text text-anchor="middle" x="635" y="-110.8" font-family="Times,serif" font-size="14.00">_ZN14CIccMinMaxEval7CompareEPfS0_S0_S0_</text>
</g>
<!-- Node0x5ca80d1551b0 -->
<g id="node5" class="node">
<title>Node0x5ca80d1551b0</title>
<polygon fill="none" stroke="black" points="489,-23.5 489,-59.5 643,-59.5 643,-23.5 489,-23.5"/>
<text text-anchor="middle" x="566" y="-37.8" font-family="Times,serif" font-size="14.00">_Z8icDeltaEPKfS0_</text>
</g>
<!-- Node0x5ca80d155610&#45;&gt;Node0x5ca80d1551b0 -->
<g id="edge3" class="edge">
<title>Node0x5ca80d155610&#45;&gt;Node0x5ca80d1551b0</title>
<path fill="none" stroke="black" d="M618.3,-96.31C609.74,-87.5 599.16,-76.63 589.77,-66.96"/>
<polygon fill="black" stroke="black" points="592.03,-64.26 582.55,-59.53 587.01,-69.14 592.03,-64.26"/>
</g>
<!-- Node0x5ca80d155d60 -->
<g id="node6" class="node">
<title>Node0x5ca80d155d60</title>
<polygon fill="none" stroke="black" points="661,-23.5 661,-59.5 843,-59.5 843,-23.5 661,-23.5"/>
<text text-anchor="middle" x="752" y="-37.8" font-family="Times,serif" font-size="14.00">llvm.memcpy.p0.p0.i64</text>
</g>
<!-- Node0x5ca80d155610&#45;&gt;Node0x5ca80d155d60 -->
<g id="edge4" class="edge">
<title>Node0x5ca80d155610&#45;&gt;Node0x5ca80d155d60</title>
<path fill="none" stroke="black" d="M663.02,-96.49C678.54,-87.08 698.02,-75.26 714.8,-65.07"/>
<polygon fill="black" stroke="black" points="717.07,-67.79 723.8,-59.61 713.43,-61.81 717.07,-67.79"/>
</g>
<!-- Node0x5ca80d1a9810 -->
<g id="node7" class="node">
<title>Node0x5ca80d1a9810</title>
<polygon fill="none" stroke="black" points="1839,-96.5 1839,-132.5 1893,-132.5 1893,-96.5 1839,-96.5"/>
<text text-anchor="middle" x="1866" y="-110.8" font-family="Times,serif" font-size="14.00">main</text>
</g>
<!-- Node0x5ca80d1a9640 -->
<g id="node8" class="node">
<title>Node0x5ca80d1a9640</title>
<polygon fill="none" stroke="black" points="861.5,-23.5 861.5,-59.5 918.5,-59.5 918.5,-23.5 861.5,-23.5"/>
<text text-anchor="middle" x="890" y="-37.8" font-family="Times,serif" font-size="14.00">printf</text>
</g>
<!-- Node0x5ca80d1a9810&#45;&gt;Node0x5ca80d1a9640 -->
<g id="edge5" class="edge">
<title>Node0x5ca80d1a9810&#45;&gt;Node0x5ca80d1a9640</title>
<path fill="none" stroke="black" d="M1838.64,-113.31C1705.83,-112.2 1126.91,-104.92 928.36,-59.38"/>
<polygon fill="black" stroke="black" points="929.18,-55.97 918.64,-57.04 927.54,-62.78 929.18,-55.97"/>
</g>
<!-- Node0x5ca80d1aa000 -->
<g id="node9" class="node">
<title>Node0x5ca80d1aa000</title>
<polygon fill="none" stroke="black" points="937,-23.5 937,-59.5 1089,-59.5 1089,-23.5 937,-23.5"/>
<text text-anchor="middle" x="1013" y="-37.8" font-family="Times,serif" font-size="14.00">_ZN8CIccInfoD1Ev</text>
</g>
<!-- Node0x5ca80d1a9810&#45;&gt;Node0x5ca80d1aa000 -->
<g id="edge6" class="edge">
<title>Node0x5ca80d1a9810&#45;&gt;Node0x5ca80d1aa000</title>
<path fill="none" stroke="black" d="M1839,-112.92C1740.92,-110.55 1394.25,-99.79 1099.4,-60.09"/>
<polygon fill="black" stroke="black" points="1099.75,-56.61 1089.37,-58.73 1098.81,-63.54 1099.75,-56.61"/>
</g>
<!-- Node0x5ca80d1563b0 -->
<g id="node10" class="node">
<title>Node0x5ca80d1563b0</title>
<polygon fill="none" stroke="black" points="1107,-23.5 1107,-59.5 1393,-59.5 1393,-23.5 1107,-23.5"/>
<text text-anchor="middle" x="1250" y="-37.8" font-family="Times,serif" font-size="14.00">_ZN14CIccMinMaxEval8GetMean2Ev</text>
</g>
<!-- Node0x5ca80d1a9810&#45;&gt;Node0x5ca80d1563b0 -->
<g id="edge7" class="edge">
<title>Node0x5ca80d1a9810&#45;&gt;Node0x5ca80d1563b0</title>
<path fill="none" stroke="black" d="M1838.74,-110.36C1763.97,-101.74 1551.4,-77.24 1403.29,-60.17"/>
<polygon fill="black" stroke="black" points="1403.52,-56.67 1393.19,-59 1402.72,-63.63 1403.52,-56.67"/>
</g>
<!-- Node0x5ca80d155ce0 -->
<g id="node11" class="node">
<title>Node0x5ca80d155ce0</title>
<polygon fill="none" stroke="black" points="1411,-23.5 1411,-59.5 1465,-59.5 1465,-23.5 1411,-23.5"/>
<text text-anchor="middle" x="1438" y="-37.8" font-family="Times,serif" font-size="14.00">atoi</text>
</g>
<!-- Node0x5ca80d1a9810&#45;&gt;Node0x5ca80d155ce0 -->
<g id="edge8" class="edge">
<title>Node0x5ca80d1a9810&#45;&gt;Node0x5ca80d155ce0</title>
<path fill="none" stroke="black" d="M1838.76,-112.73C1775.54,-110.33 1614.25,-100.66 1474.74,-59.68"/>
<polygon fill="black" stroke="black" points="1475.74,-56.33 1465.15,-56.8 1473.73,-63.03 1475.74,-56.33"/>
</g>
<!-- Node0x5ca80d157500 -->
<g id="node12" class="node">
<title>Node0x5ca80d157500</title>
<polygon fill="none" stroke="black" points="1483,-23.5 1483,-59.5 1769,-59.5 1769,-23.5 1483,-23.5"/>
<text text-anchor="middle" x="1626" y="-37.8" font-family="Times,serif" font-size="14.00">_ZN14CIccMinMaxEval8GetMean1Ev</text>
</g>
<!-- Node0x5ca80d1a9810&#45;&gt;Node0x5ca80d157500 -->
<g id="edge9" class="edge">
<title>Node0x5ca80d1a9810&#45;&gt;Node0x5ca80d157500</title>
<path fill="none" stroke="black" d="M1838.94,-105.49C1803.96,-95.15 1741.83,-76.77 1693.68,-62.52"/>
<polygon fill="black" stroke="black" points="1694.52,-59.12 1683.94,-59.64 1692.53,-65.83 1694.52,-59.12"/>
</g>
<!-- Node0x5ca80d155860 -->
<g id="node13" class="node">
<title>Node0x5ca80d155860</title>
<polygon fill="none" stroke="black" points="1787.5,-23.5 1787.5,-59.5 2426.5,-59.5 2426.5,-23.5 1787.5,-23.5"/>
<text text-anchor="middle" x="2107" y="-37.8" font-family="Times,serif" font-size="14.00">_ZN15CIccEvalCompare15EvaluateProfileEPKch17icRenderingIntent13icXformInterpb</text>
</g>
<!-- Node0x5ca80d1a9810&#45;&gt;Node0x5ca80d155860 -->
<g id="edge10" class="edge">
<title>Node0x5ca80d1a9810&#45;&gt;Node0x5ca80d155860</title>
<path fill="none" stroke="black" d="M1893.24,-99.93C1896.49,-98.51 1899.79,-97.17 1903,-96 1939.95,-82.55 1981.81,-70.97 2017.94,-62.05"/>
<polygon fill="black" stroke="black" points="2019.09,-65.38 2027.98,-59.61 2017.43,-58.58 2019.09,-65.38"/>
</g>
<!-- Node0x5ca80d155f30 -->
<g id="node14" class="node">
<title>Node0x5ca80d155f30</title>
<polygon fill="none" stroke="black" points="2444.5,-23.5 2444.5,-59.5 2927.5,-59.5 2927.5,-23.5 2444.5,-23.5"/>
<text text-anchor="middle" x="2686" y="-37.8" font-family="Times,serif" font-size="14.00">_ZN8CIccInfo22GetRenderingIntentNameE17icRenderingIntentb</text>
</g>
<!-- Node0x5ca80d1a9810&#45;&gt;Node0x5ca80d155f30 -->
<g id="edge11" class="edge">
<title>Node0x5ca80d1a9810&#45;&gt;Node0x5ca80d155f30</title>
<path fill="none" stroke="black" d="M1893.05,-99.32C1896.34,-98.01 1899.7,-96.86 1903,-96 2129.52,-37.04 2197.22,-75.17 2433.88,-60.12"/>
<polygon fill="black" stroke="black" points="2434.44,-63.59 2444.19,-59.44 2433.98,-56.6 2434.44,-63.59"/>
</g>
<!-- Node0x5ca80d156e30 -->
<g id="node15" class="node">
<title>Node0x5ca80d156e30</title>
<polygon fill="none" stroke="black" points="2945.5,-23.5 2945.5,-59.5 3114.5,-59.5 3114.5,-23.5 2945.5,-23.5"/>
<text text-anchor="middle" x="3030" y="-37.8" font-family="Times,serif" font-size="14.00">_ZN8CIccPRMGC1Ev</text>
</g>
<!-- Node0x5ca80d1a9810&#45;&gt;Node0x5ca80d156e30 -->
<g id="edge12" class="edge">
<title>Node0x5ca80d1a9810&#45;&gt;Node0x5ca80d156e30</title>
<path fill="none" stroke="black" d="M1893.02,-99.21C1896.31,-97.92 1899.69,-96.81 1903,-96 2123.26,-42.5 2692.07,-84.12 2935.16,-60.05"/>
<polygon fill="black" stroke="black" points="2935.85,-63.5 2945.43,-58.97 2935.12,-56.54 2935.85,-63.5"/>
</g>
<!-- Node0x5ca80d156bf0 -->
<g id="node16" class="node">
<title>Node0x5ca80d156bf0</title>
<polygon fill="none" stroke="black" points="3132.5,-23.5 3132.5,-59.5 3703.5,-59.5 3703.5,-23.5 3132.5,-23.5"/>
<text text-anchor="middle" x="3418" y="-37.8" font-family="Times,serif" font-size="14.00">_ZN8CIccPRMG15EvaluateProfileEPKc17icRenderingIntent13icXformInterpb</text>
</g>
<!-- Node0x5ca80d1a9810&#45;&gt;Node0x5ca80d156bf0 -->
<g id="edge13" class="edge">
<title>Node0x5ca80d1a9810&#45;&gt;Node0x5ca80d156bf0</title>
<path fill="none" stroke="black" d="M1893.02,-99.19C1896.31,-97.91 1899.68,-96.8 1903,-96 2034.98,-64.31 2988.41,-66.03 3124,-60 3124.22,-59.99 3124.45,-59.98 3124.67,-59.97"/>
<polygon fill="black" stroke="black" points="3124.97,-63.46 3134.8,-59.51 3124.65,-56.47 3124.97,-63.46"/>
</g>
<!-- Node0x5ca80d156810 -->
<g id="node17" class="node">
<title>Node0x5ca80d156810</title>
<polygon fill="none" stroke="black" points="3721.5,-23.5 3721.5,-59.5 3872.5,-59.5 3872.5,-23.5 3721.5,-23.5"/>
<text text-anchor="middle" x="3797" y="-37.8" font-family="Times,serif" font-size="14.00">_ZN8CIccInfoC1Ev</text>
</g>
<!-- Node0x5ca80d1a9810&#45;&gt;Node0x5ca80d156810 -->
<g id="edge14" class="edge">
<title>Node0x5ca80d1a9810&#45;&gt;Node0x5ca80d156810</title>
<path fill="none" stroke="black" d="M1893.01,-99.16C1896.3,-97.88 1899.68,-96.78 1903,-96 2095.85,-50.67 3470.59,-81.64 3710.83,-60.01"/>
<polygon fill="black" stroke="black" points="3711.5,-63.46 3721.1,-58.97 3710.8,-56.49 3711.5,-63.46"/>
</g>
<!-- Node0x5ca80d157070 -->
<g id="node18" class="node">
<title>Node0x5ca80d157070</title>
<polygon fill="none" stroke="black" points="1911.5,-96.5 1911.5,-132.5 2078.5,-132.5 2078.5,-96.5 1911.5,-96.5"/>
<text text-anchor="middle" x="1995" y="-110.8" font-family="Times,serif" font-size="14.00">__gxx_personality_v0</text>
</g>
<!-- Node0x5ca80d158830 -->
<g id="node19" class="node">
<title>Node0x5ca80d158830</title>
<polygon fill="none" stroke="black" points="2097,-96.5 2097,-132.5 2245,-132.5 2245,-96.5 2097,-96.5"/>
<text text-anchor="middle" x="2171" y="-110.8" font-family="Times,serif" font-size="14.00">__cxa_pure_virtual</text>
</g>
</g>
</svg>
