<?xml version="1.0" encoding="UTF-8" standalone="no"?>
<!DOCTYPE svg PUBLIC "-//W3C//DTD SVG 1.1//EN"
 "http://www.w3.org/Graphics/SVG/1.1/DTD/svg11.dtd">
<!-- Generated by graphviz version 2.43.0 (0)
 -->
<!-- Title: IccSpecSepToTiff Pages: 1 -->
<svg width="222pt" height="422pt"
 viewBox="0.00 0.00 222.00 422.00" xmlns="http://www.w3.org/2000/svg" xmlns:xlink="http://www.w3.org/1999/xlink">
<g id="graph0" class="graph" transform="scale(1 1) rotate(0) translate(4 418)">
<title>IccSpecSepToTiff</title>
<polygon fill="white" stroke="transparent" points="-4,4 -4,-418 218,-418 218,4 -4,4"/>
<!-- Close -->
<g id="node1" class="node">
<title>Close</title>
<path fill="#2d2d2d" stroke="black" d="M169,-414C169,-414 135,-414 135,-414 129,-414 123,-408 123,-402 123,-402 123,-390 123,-390 123,-384 129,-378 135,-378 135,-378 169,-378 169,-378 175,-378 181,-384 181,-390 181,-390 181,-402 181,-402 181,-408 175,-414 169,-414"/>
<text text-anchor="middle" x="152" y="-392.3" font-family="Consolas" font-size="14.00" fill="white">Close</text>
</g>
<!-- GetLength -->
<g id="node2" class="node">
<title>GetLength</title>
<path fill="#2d2d2d" stroke="black" d="M185.5,-360C185.5,-360 118.5,-360 118.5,-360 112.5,-360 106.5,-354 106.5,-348 106.5,-348 106.5,-336 106.5,-336 106.5,-330 112.5,-324 118.5,-324 118.5,-324 185.5,-324 185.5,-324 191.5,-324 197.5,-330 197.5,-336 197.5,-336 197.5,-348 197.5,-348 197.5,-354 191.5,-360 185.5,-360"/>
<text text-anchor="middle" x="152" y="-338.3" font-family="Consolas" font-size="14.00" fill="white">GetLength</text>
</g>
<!-- Read8 -->
<g id="node3" class="node">
<title>Read8</title>
<path fill="#2d2d2d" stroke="black" d="M169,-306C169,-306 135,-306 135,-306 129,-306 123,-300 123,-294 123,-294 123,-282 123,-282 123,-276 129,-270 135,-270 135,-270 169,-270 169,-270 175,-270 181,-276 181,-282 181,-282 181,-294 181,-294 181,-300 175,-306 169,-306"/>
<text text-anchor="middle" x="152" y="-284.3" font-family="Consolas" font-size="14.00" fill="white">Read8</text>
</g>
<!-- SetIccProfile -->
<g id="node4" class="node">
<title>SetIccProfile</title>
<path fill="#2d2d2d" stroke="black" d="M202,-252C202,-252 102,-252 102,-252 96,-252 90,-246 90,-240 90,-240 90,-228 90,-228 90,-222 96,-216 102,-216 102,-216 202,-216 202,-216 208,-216 214,-222 214,-228 214,-228 214,-240 214,-240 214,-246 208,-252 202,-252"/>
<text text-anchor="middle" x="152" y="-230.3" font-family="Consolas" font-size="14.00" fill="white">SetIccProfile</text>
</g>
<!-- Usage -->
<g id="node5" class="node">
<title>Usage</title>
<path fill="#2d2d2d" stroke="black" d="M169,-198C169,-198 135,-198 135,-198 129,-198 123,-192 123,-186 123,-186 123,-174 123,-174 123,-168 129,-162 135,-162 135,-162 169,-162 169,-162 175,-162 181,-168 181,-174 181,-174 181,-186 181,-186 181,-192 175,-198 169,-198"/>
<text text-anchor="middle" x="152" y="-176.3" font-family="Consolas" font-size="14.00" fill="white">Usage</text>
</g>
<!-- get -->
<g id="node6" class="node">
<title>get</title>
<path fill="#2d2d2d" stroke="black" d="M167,-144C167,-144 137,-144 137,-144 131,-144 125,-138 125,-132 125,-132 125,-120 125,-120 125,-114 131,-108 137,-108 137,-108 167,-108 167,-108 173,-108 179,-114 179,-120 179,-120 179,-132 179,-132 179,-138 173,-144 167,-144"/>
<text text-anchor="middle" x="152" y="-122.3" font-family="Consolas" font-size="14.00" fill="white">get</text>
</g>
<!-- if -->
<g id="node7" class="node">
<title>if</title>
<path fill="#2d2d2d" stroke="black" d="M42,-225C42,-225 12,-225 12,-225 6,-225 0,-219 0,-213 0,-213 0,-201 0,-201 0,-195 6,-189 12,-189 12,-189 42,-189 42,-189 48,-189 54,-195 54,-201 54,-201 54,-213 54,-213 54,-219 48,-225 42,-225"/>
<text text-anchor="middle" x="27" y="-203.3" font-family="Consolas" font-size="14.00" fill="white">if</text>
</g>
<!-- if&#45;&gt;Close -->
<g id="edge8" class="edge">
<title>if&#45;&gt;Close</title>
<path fill="none" stroke="#666666" d="M30.34,-225.22C35.45,-258.01 50.49,-327.41 90,-369 96.5,-375.84 105.05,-381.07 113.68,-385.01"/>
<polygon fill="#666666" stroke="#666666" points="112.4,-388.27 122.98,-388.8 115.04,-381.78 112.4,-388.27"/>
</g>
<!-- if&#45;&gt;GetLength -->
<g id="edge3" class="edge">
<title>if&#45;&gt;GetLength</title>
<path fill="none" stroke="#666666" d="M34.4,-225.39C43.45,-248.98 62.05,-289.82 90,-315 92.33,-317.1 94.86,-319.06 97.51,-320.89"/>
<polygon fill="#666666" stroke="#666666" points="95.95,-324.03 106.3,-326.26 99.59,-318.06 95.95,-324.03"/>
</g>
<!-- if&#45;&gt;Read8 -->
<g id="edge5" class="edge">
<title>if&#45;&gt;Read8</title>
<path fill="none" stroke="#666666" d="M45.83,-225.11C57.63,-236.42 73.86,-250.73 90,-261 97.3,-265.65 105.54,-269.88 113.55,-273.55"/>
<polygon fill="#666666" stroke="#666666" points="112.21,-276.78 122.77,-277.59 115.01,-270.37 112.21,-276.78"/>
</g>
<!-- if&#45;&gt;SetIccProfile -->
<g id="edge7" class="edge">
<title>if&#45;&gt;SetIccProfile</title>
<path fill="none" stroke="#666666" d="M54.09,-212.73C61.8,-214.42 70.65,-216.36 79.78,-218.37"/>
<polygon fill="#666666" stroke="#666666" points="79.26,-221.84 89.78,-220.56 80.76,-215 79.26,-221.84"/>
</g>
<!-- if&#45;&gt;Usage -->
<g id="edge2" class="edge">
<title>if&#45;&gt;Usage</title>
<path fill="none" stroke="#666666" d="M54.09,-201.27C71.18,-197.52 93.82,-192.55 112.91,-188.36"/>
<polygon fill="#666666" stroke="#666666" points="113.79,-191.75 122.81,-186.19 112.29,-184.91 113.79,-191.75"/>
</g>
<!-- if&#45;&gt;get -->
<g id="edge6" class="edge">
<title>if&#45;&gt;get</title>
<path fill="none" stroke="#666666" d="M45.83,-188.89C57.63,-177.58 73.86,-163.27 90,-153 97.88,-147.99 106.85,-143.45 115.44,-139.59"/>
<polygon fill="#666666" stroke="#666666" points="117.09,-142.69 124.9,-135.53 114.33,-136.26 117.09,-142.69"/>
</g>
<!-- reset -->
<g id="node8" class="node">
<title>reset</title>
<path fill="#2d2d2d" stroke="black" d="M169,-90C169,-90 135,-90 135,-90 129,-90 123,-84 123,-78 123,-78 123,-66 123,-66 123,-60 129,-54 135,-54 135,-54 169,-54 169,-54 175,-54 181,-60 181,-66 181,-66 181,-78 181,-78 181,-84 175,-90 169,-90"/>
<text text-anchor="middle" x="152" y="-68.3" font-family="Consolas" font-size="14.00" fill="white">reset</text>
</g>
<!-- if&#45;&gt;reset -->
<g id="edge4" class="edge">
<title>if&#45;&gt;reset</title>
<path fill="none" stroke="#666666" d="M34.4,-188.61C43.45,-165.02 62.05,-124.18 90,-99 96.75,-92.92 105.1,-88.03 113.42,-84.17"/>
<polygon fill="#666666" stroke="#666666" points="114.87,-87.36 122.73,-80.25 112.15,-80.91 114.87,-87.36"/>
</g>
<!-- strrchr -->
<g id="node9" class="node">
<title>strrchr</title>
<path fill="#2d2d2d" stroke="black" d="M177,-36C177,-36 127,-36 127,-36 121,-36 115,-30 115,-24 115,-24 115,-12 115,-12 115,-6 121,0 127,0 127,0 177,0 177,0 183,0 189,-6 189,-12 189,-12 189,-24 189,-24 189,-30 183,-36 177,-36"/>
<text text-anchor="middle" x="152" y="-14.3" font-family="Consolas" font-size="14.00" fill="white">strrchr</text>
</g>
<!-- if&#45;&gt;strrchr -->
<g id="edge1" class="edge">
<title>if&#45;&gt;strrchr</title>
<path fill="none" stroke="#666666" d="M30.34,-188.78C35.45,-155.99 50.49,-86.59 90,-45 94.45,-40.32 99.86,-36.39 105.59,-33.12"/>
<polygon fill="#666666" stroke="#666666" points="107.42,-36.11 114.78,-28.49 104.28,-29.86 107.42,-36.11"/>
</g>
</g>
</svg>
