<?xml version="1.0" encoding="UTF-8" standalone="no"?>
<!DOCTYPE svg PUBLIC "-//W3C//DTD SVG 1.1//EN"
 "http://www.w3.org/Graphics/SVG/1.1/DTD/svg11.dtd">
<!-- Generated by graphviz version 2.43.0 (0)
 -->
<!-- Title: IccSpecSepToTiff Pages: 1 -->
<svg width="236pt" height="485pt"
 viewBox="0.00 0.00 236.20 485.20" xmlns="http://www.w3.org/2000/svg" xmlns:xlink="http://www.w3.org/1999/xlink">
<g id="graph0" class="graph" transform="scale(1 1) rotate(0) translate(21.6 463.6)">
<title>IccSpecSepToTiff</title>
<polygon fill="white" stroke="transparent" points="-21.6,21.6 -21.6,-463.6 214.6,-463.6 214.6,21.6 -21.6,21.6"/>
<!-- Close -->
<g id="node1" class="node">
<title>Close</title>
<path fill="#2d2d2d" stroke="black" d="M167.5,-442C167.5,-442 137.5,-442 137.5,-442 131.5,-442 125.5,-436 125.5,-430 125.5,-430 125.5,-418 125.5,-418 125.5,-412 131.5,-406 137.5,-406 137.5,-406 167.5,-406 167.5,-406 173.5,-406 179.5,-412 179.5,-418 179.5,-418 179.5,-430 179.5,-430 179.5,-436 173.5,-442 167.5,-442"/>
<text text-anchor="middle" x="152.5" y="-421.8" font-family="Consolas" font-size="9.00" fill="white">Close</text>
</g>
<!-- GetLength -->
<g id="node2" class="node">
<title>GetLength</title>
<path fill="#2d2d2d" stroke="black" d="M170.5,-384C170.5,-384 134.5,-384 134.5,-384 128.5,-384 122.5,-378 122.5,-372 122.5,-372 122.5,-360 122.5,-360 122.5,-354 128.5,-348 134.5,-348 134.5,-348 170.5,-348 170.5,-348 176.5,-348 182.5,-354 182.5,-360 182.5,-360 182.5,-372 182.5,-372 182.5,-378 176.5,-384 170.5,-384"/>
<text text-anchor="middle" x="152.5" y="-363.8" font-family="Consolas" font-size="9.00" fill="white">GetLength</text>
</g>
<!-- Read8 -->
<g id="node3" class="node">
<title>Read8</title>
<path fill="#2d2d2d" stroke="black" d="M167.5,-326C167.5,-326 137.5,-326 137.5,-326 131.5,-326 125.5,-320 125.5,-314 125.5,-314 125.5,-302 125.5,-302 125.5,-296 131.5,-290 137.5,-290 137.5,-290 167.5,-290 167.5,-290 173.5,-290 179.5,-296 179.5,-302 179.5,-302 179.5,-314 179.5,-314 179.5,-320 173.5,-326 167.5,-326"/>
<text text-anchor="middle" x="152.5" y="-305.8" font-family="Consolas" font-size="9.00" fill="white">Read8</text>
</g>
<!-- SetIccProfile -->
<g id="node4" class="node">
<title>SetIccProfile</title>
<path fill="#2d2d2d" stroke="black" d="M181,-268C181,-268 124,-268 124,-268 118,-268 112,-262 112,-256 112,-256 112,-244 112,-244 112,-238 118,-232 124,-232 124,-232 181,-232 181,-232 187,-232 193,-238 193,-244 193,-244 193,-256 193,-256 193,-262 187,-268 181,-268"/>
<text text-anchor="middle" x="152.5" y="-247.8" font-family="Consolas" font-size="9.00" fill="white">SetIccProfile</text>
</g>
<!-- Usage -->
<g id="node5" class="node">
<title>Usage</title>
<path fill="#2d2d2d" stroke="black" d="M167.5,-210C167.5,-210 137.5,-210 137.5,-210 131.5,-210 125.5,-204 125.5,-198 125.5,-198 125.5,-186 125.5,-186 125.5,-180 131.5,-174 137.5,-174 137.5,-174 167.5,-174 167.5,-174 173.5,-174 179.5,-180 179.5,-186 179.5,-186 179.5,-198 179.5,-198 179.5,-204 173.5,-210 167.5,-210"/>
<text text-anchor="middle" x="152.5" y="-189.8" font-family="Consolas" font-size="9.00" fill="white">Usage</text>
</g>
<!-- get -->
<g id="node6" class="node">
<title>get</title>
<path fill="#2d2d2d" stroke="black" d="M167.5,-152C167.5,-152 137.5,-152 137.5,-152 131.5,-152 125.5,-146 125.5,-140 125.5,-140 125.5,-128 125.5,-128 125.5,-122 131.5,-116 137.5,-116 137.5,-116 167.5,-116 167.5,-116 173.5,-116 179.5,-122 179.5,-128 179.5,-128 179.5,-140 179.5,-140 179.5,-146 173.5,-152 167.5,-152"/>
<text text-anchor="middle" x="152.5" y="-131.8" font-family="Consolas" font-size="9.00" fill="white">get</text>
</g>
<!-- if -->
<g id="node7" class="node">
<title>if</title>
<path fill="#2d2d2d" stroke="black" d="M42,-239C42,-239 12,-239 12,-239 6,-239 0,-233 0,-227 0,-227 0,-215 0,-215 0,-209 6,-203 12,-203 12,-203 42,-203 42,-203 48,-203 54,-209 54,-215 54,-215 54,-227 54,-227 54,-233 48,-239 42,-239"/>
<text text-anchor="middle" x="27" y="-218.8" font-family="Consolas" font-size="9.00" fill="white">if</text>
</g>
<!-- if&#45;&gt;Close -->
<g id="edge8" class="edge">
<title>if&#45;&gt;Close</title>
<path fill="none" stroke="#666666" d="M33.49,-239.16C44.3,-272.74 70.93,-345.61 112,-395 114.5,-398.01 117.37,-400.87 120.41,-403.54"/>
<polygon fill="#666666" stroke="#666666" points="119.31,-405.36 125.27,-407.57 121.99,-402.13 119.31,-405.36"/>
</g>
<!-- if&#45;&gt;GetLength -->
<g id="edge3" class="edge">
<title>if&#45;&gt;GetLength</title>
<path fill="none" stroke="#666666" d="M38.7,-239.22C53.34,-263.26 81.33,-306.13 112,-337 114.32,-339.34 116.85,-341.63 119.46,-343.84"/>
<polygon fill="#666666" stroke="#666666" points="118.25,-345.57 124.23,-347.73 120.9,-342.31 118.25,-345.57"/>
</g>
<!-- if&#45;&gt;Read8 -->
<g id="edge5" class="edge">
<title>if&#45;&gt;Read8</title>
<path fill="none" stroke="#666666" d="M53.59,-239.03C73.13,-252.79 100.13,-271.81 120.83,-286.39"/>
<polygon fill="#666666" stroke="#666666" points="119.83,-288.26 125.94,-290 122.25,-284.82 119.83,-288.26"/>
</g>
<!-- if&#45;&gt;SetIccProfile -->
<g id="edge7" class="edge">
<title>if&#45;&gt;SetIccProfile</title>
<path fill="none" stroke="#666666" d="M54.19,-227.15C69.07,-230.64 88.14,-235.12 105.44,-239.18"/>
<polygon fill="#666666" stroke="#666666" points="105.4,-241.33 111.72,-240.66 106.36,-237.24 105.4,-241.33"/>
</g>
<!-- if&#45;&gt;Usage -->
<g id="edge2" class="edge">
<title>if&#45;&gt;Usage</title>
<path fill="none" stroke="#666666" d="M54.19,-214.85C73.18,-210.39 98.99,-204.33 119.25,-199.57"/>
<polygon fill="#666666" stroke="#666666" points="119.99,-201.56 125.35,-198.14 119.03,-197.47 119.99,-201.56"/>
</g>
<!-- if&#45;&gt;get -->
<g id="edge6" class="edge">
<title>if&#45;&gt;get</title>
<path fill="none" stroke="#666666" d="M53.59,-202.97C73.13,-189.21 100.13,-170.19 120.83,-155.61"/>
<polygon fill="#666666" stroke="#666666" points="122.25,-157.18 125.94,-152 119.83,-153.74 122.25,-157.18"/>
</g>
<!-- reset -->
<g id="node8" class="node">
<title>reset</title>
<path fill="#2d2d2d" stroke="black" d="M167.5,-94C167.5,-94 137.5,-94 137.5,-94 131.5,-94 125.5,-88 125.5,-82 125.5,-82 125.5,-70 125.5,-70 125.5,-64 131.5,-58 137.5,-58 137.5,-58 167.5,-58 167.5,-58 173.5,-58 179.5,-64 179.5,-70 179.5,-70 179.5,-82 179.5,-82 179.5,-88 173.5,-94 167.5,-94"/>
<text text-anchor="middle" x="152.5" y="-73.8" font-family="Consolas" font-size="9.00" fill="white">reset</text>
</g>
<!-- if&#45;&gt;reset -->
<g id="edge4" class="edge">
<title>if&#45;&gt;reset</title>
<path fill="none" stroke="#666666" d="M38.7,-202.78C53.34,-178.74 81.33,-135.87 112,-105 114.68,-102.31 117.62,-99.67 120.65,-97.16"/>
<polygon fill="#666666" stroke="#666666" points="122.1,-98.69 125.48,-93.31 119.48,-95.41 122.1,-98.69"/>
</g>
<!-- strrchr -->
<g id="node9" class="node">
<title>strrchr</title>
<path fill="#2d2d2d" stroke="black" d="M167.5,-36C167.5,-36 137.5,-36 137.5,-36 131.5,-36 125.5,-30 125.5,-24 125.5,-24 125.5,-12 125.5,-12 125.5,-6 131.5,0 137.5,0 137.5,0 167.5,0 167.5,0 173.5,0 179.5,-6 179.5,-12 179.5,-12 179.5,-24 179.5,-24 179.5,-30 173.5,-36 167.5,-36"/>
<text text-anchor="middle" x="152.5" y="-15.8" font-family="Consolas" font-size="9.00" fill="white">strrchr</text>
</g>
<!-- if&#45;&gt;strrchr -->
<g id="edge1" class="edge">
<title>if&#45;&gt;strrchr</title>
<path fill="none" stroke="#666666" d="M33.49,-202.84C44.3,-169.26 70.93,-96.39 112,-47 114.5,-43.99 117.37,-41.13 120.41,-38.46"/>
<polygon fill="#666666" stroke="#666666" points="121.99,-39.87 125.27,-34.43 119.31,-36.64 121.99,-39.87"/>
</g>
</g>
</svg>
