<?xml version="1.0" encoding="UTF-8" standalone="no"?>
<!DOCTYPE svg PUBLIC "-//W3C//DTD SVG 1.1//EN"
 "http://www.w3.org/Graphics/SVG/1.1/DTD/svg11.dtd">
<!-- Generated by graphviz version 2.43.0 (0)
 -->
<!-- Title: Call graph: /home/h02332/po/research/call&#45;graph/iccdev/tools/iccSpecSepToTiff.ll Pages: 1 -->
<svg width="502pt" height="1645pt"
 viewBox="0.00 0.00 502.20 1645.20" xmlns="http://www.w3.org/2000/svg" xmlns:xlink="http://www.w3.org/1999/xlink">
<g id="graph0" class="graph" transform="scale(1 1) rotate(0) translate(21.6 1623.6)">
<title>Call graph: /home/h02332/po/research/call&#45;graph/iccdev/tools/iccSpecSepToTiff.ll</title>
<polygon fill="white" stroke="transparent" points="-21.6,21.6 -21.6,-1623.6 480.6,-1623.6 480.6,21.6 -21.6,21.6"/>
<!-- Node0x55ca5ae12650 -->
<g id="node1" class="node">
<title>Node0x55ca5ae12650</title>
<path fill="#f0f4ff" stroke="black" d="M255,-1486C255,-1486 225,-1486 225,-1486 219,-1486 213,-1480 213,-1474 213,-1474 213,-1462 213,-1462 213,-1456 219,-1450 225,-1450 225,-1450 255,-1450 255,-1450 261,-1450 267,-1456 267,-1462 267,-1462 267,-1474 267,-1474 267,-1480 261,-1486 255,-1486"/>
<text text-anchor="middle" x="240" y="-1465.8" font-family="Courier,monospace" font-size="9.00">Usage()</text>
</g>
<!-- Node0x55ca5ae43330 -->
<g id="node2" class="node">
<title>Node0x55ca5ae43330</title>
<path fill="#f0f4ff" stroke="black" d="M66,-761C66,-761 36,-761 36,-761 30,-761 24,-755 24,-749 24,-749 24,-737 24,-737 24,-731 30,-725 36,-725 36,-725 66,-725 66,-725 72,-725 78,-731 78,-737 78,-737 78,-749 78,-749 78,-755 72,-761 66,-761"/>
<text text-anchor="middle" x="51" y="-740.8" font-family="Courier,monospace" font-size="9.00">main</text>
</g>
<!-- Node0x55ca5ae43330&#45;&gt;Node0x55ca5ae12650 -->
<g id="edge1" class="edge">
<title>Node0x55ca5ae43330&#45;&gt;Node0x55ca5ae12650</title>
<path fill="none" stroke="#4a6fa5" d="M52.4,-761.3C54.9,-860.26 71.36,-1330.82 160,-1439 171.46,-1452.99 190.31,-1460.23 206.73,-1463.98"/>
<polygon fill="#4a6fa5" stroke="#4a6fa5" points="206.34,-1466.04 212.64,-1465.21 207.2,-1461.93 206.34,-1466.04"/>
</g>
<!-- Node0x55ca5ae11130 -->
<g id="node3" class="node">
<title>Node0x55ca5ae11130</title>
<path fill="#f0f4ff" stroke="black" d="M266,-1428C266,-1428 214,-1428 214,-1428 208,-1428 202,-1422 202,-1416 202,-1416 202,-1404 202,-1404 202,-1398 208,-1392 214,-1392 214,-1392 266,-1392 266,-1392 272,-1392 278,-1398 278,-1404 278,-1404 278,-1416 278,-1416 278,-1422 272,-1428 266,-1428"/>
<text text-anchor="middle" x="240" y="-1407.8" font-family="Courier,monospace" font-size="9.00">unique_ptr()</text>
</g>
<!-- Node0x55ca5ae43330&#45;&gt;Node0x55ca5ae11130 -->
<g id="edge2" class="edge">
<title>Node0x55ca5ae43330&#45;&gt;Node0x55ca5ae11130</title>
<path fill="none" stroke="#4a6fa5" d="M52.68,-761.31C56.52,-855.26 78.33,-1282.72 160,-1381 168.99,-1391.82 182.39,-1398.6 195.61,-1402.85"/>
<polygon fill="#4a6fa5" stroke="#4a6fa5" points="195.3,-1404.95 201.65,-1404.63 196.49,-1400.92 195.3,-1404.95"/>
</g>
<!-- Node0x55ca5ae10ed0 -->
<g id="node4" class="node">
<title>Node0x55ca5ae10ed0</title>
<path fill="#f0f4ff" stroke="black" d="M289.5,-1370C289.5,-1370 190.5,-1370 190.5,-1370 184.5,-1370 178.5,-1364 178.5,-1358 178.5,-1358 178.5,-1346 178.5,-1346 178.5,-1340 184.5,-1334 190.5,-1334 190.5,-1334 289.5,-1334 289.5,-1334 295.5,-1334 301.5,-1340 301.5,-1346 301.5,-1346 301.5,-1358 301.5,-1358 301.5,-1364 295.5,-1370 289.5,-1370"/>
<text text-anchor="middle" x="240" y="-1349.8" font-family="Courier,monospace" font-size="9.00">CTiffImg::~CTiffImg()</text>
</g>
<!-- Node0x55ca5ae43330&#45;&gt;Node0x55ca5ae10ed0 -->
<g id="edge3" class="edge">
<title>Node0x55ca5ae43330&#45;&gt;Node0x55ca5ae10ed0</title>
<path fill="none" stroke="#4a6fa5" d="M53.01,-761.09C58.26,-849.4 85.22,-1234.49 160,-1323 163.67,-1327.34 168.05,-1331.04 172.84,-1334.18"/>
<polygon fill="#4a6fa5" stroke="#4a6fa5" points="171.96,-1336.1 178.18,-1337.37 174.11,-1332.49 171.96,-1336.1"/>
</g>
<!-- Node0x55ca5ae113a0 -->
<g id="node5" class="node">
<title>Node0x55ca5ae113a0</title>
<path fill="#f0f4ff" stroke="black" d="M279,-1312C279,-1312 201,-1312 201,-1312 195,-1312 189,-1306 189,-1300 189,-1300 189,-1288 189,-1288 189,-1282 195,-1276 201,-1276 201,-1276 279,-1276 279,-1276 285,-1276 291,-1282 291,-1288 291,-1288 291,-1300 291,-1300 291,-1306 285,-1312 279,-1312"/>
<text text-anchor="middle" x="240" y="-1291.8" font-family="Courier,monospace" font-size="9.00">CTiffImg::Close()</text>
</g>
<!-- Node0x55ca5ae43330&#45;&gt;Node0x55ca5ae113a0 -->
<g id="edge4" class="edge">
<title>Node0x55ca5ae43330&#45;&gt;Node0x55ca5ae113a0</title>
<path fill="none" stroke="#4a6fa5" d="M53.42,-761.19C60.25,-844.2 92.17,-1186.32 160,-1265 166.24,-1272.24 174.45,-1277.67 183.22,-1281.75"/>
<polygon fill="#4a6fa5" stroke="#4a6fa5" points="182.39,-1283.68 188.73,-1284.12 184.05,-1279.82 182.39,-1283.68"/>
</g>
<!-- Node0x55ca5ae10760 -->
<g id="node6" class="node">
<title>Node0x55ca5ae10760</title>
<path fill="#f0f4ff" stroke="black" d="M289.5,-1254C289.5,-1254 190.5,-1254 190.5,-1254 184.5,-1254 178.5,-1248 178.5,-1242 178.5,-1242 178.5,-1230 178.5,-1230 178.5,-1224 184.5,-1218 190.5,-1218 190.5,-1218 289.5,-1218 289.5,-1218 295.5,-1218 301.5,-1224 301.5,-1230 301.5,-1230 301.5,-1242 301.5,-1242 301.5,-1248 295.5,-1254 289.5,-1254"/>
<text text-anchor="middle" x="240" y="-1233.8" font-family="Courier,monospace" font-size="9.00">CTiffImg::WriteLine()</text>
</g>
<!-- Node0x55ca5ae43330&#45;&gt;Node0x55ca5ae10760 -->
<g id="edge5" class="edge">
<title>Node0x55ca5ae43330&#45;&gt;Node0x55ca5ae10760</title>
<path fill="none" stroke="#4a6fa5" d="M53.93,-761.22C62.47,-838.45 99.06,-1138.06 160,-1207 163.77,-1211.26 168.21,-1214.9 173.05,-1218"/>
<polygon fill="#4a6fa5" stroke="#4a6fa5" points="172.19,-1219.93 178.43,-1221.16 174.32,-1216.31 172.19,-1219.93"/>
</g>
<!-- Node0x55ca5ae0a700 -->
<g id="node7" class="node">
<title>Node0x55ca5ae0a700</title>
<path fill="#f0f4ff" stroke="black" d="M276.5,-1196C276.5,-1196 203.5,-1196 203.5,-1196 197.5,-1196 191.5,-1190 191.5,-1184 191.5,-1184 191.5,-1172 191.5,-1172 191.5,-1166 197.5,-1160 203.5,-1160 203.5,-1160 276.5,-1160 276.5,-1160 282.5,-1160 288.5,-1166 288.5,-1172 288.5,-1172 288.5,-1184 288.5,-1184 288.5,-1190 282.5,-1196 276.5,-1196"/>
<text text-anchor="middle" x="240" y="-1175.8" font-family="Courier,monospace" font-size="9.00">CTiffImg::Open()</text>
</g>
<!-- Node0x55ca5ae43330&#45;&gt;Node0x55ca5ae0a700 -->
<g id="edge6" class="edge">
<title>Node0x55ca5ae43330&#45;&gt;Node0x55ca5ae0a700</title>
<path fill="none" stroke="#4a6fa5" d="M51.31,-761.11C49.94,-823.59 53.83,-1032.6 160,-1149 166.91,-1156.58 175.98,-1162.18 185.49,-1166.32"/>
<polygon fill="#4a6fa5" stroke="#4a6fa5" points="184.79,-1168.3 191.14,-1168.6 186.35,-1164.41 184.79,-1168.3"/>
</g>
<!-- Node0x55ca5af0d390 -->
<g id="node8" class="node">
<title>Node0x55ca5af0d390</title>
<path fill="#f0f4ff" stroke="black" d="M287,-1138C287,-1138 193,-1138 193,-1138 187,-1138 181,-1132 181,-1126 181,-1126 181,-1114 181,-1114 181,-1108 187,-1102 193,-1102 193,-1102 287,-1102 287,-1102 293,-1102 299,-1108 299,-1114 299,-1114 299,-1126 299,-1126 299,-1132 293,-1138 287,-1138"/>
<text text-anchor="middle" x="240" y="-1117.8" font-family="Courier,monospace" font-size="9.00">CTiffImg::GetWidth()</text>
</g>
<!-- Node0x55ca5ae43330&#45;&gt;Node0x55ca5af0d390 -->
<g id="edge7" class="edge">
<title>Node0x55ca5ae43330&#45;&gt;Node0x55ca5af0d390</title>
<path fill="none" stroke="#4a6fa5" d="M52.27,-761.29C54.11,-818.1 67.4,-993.56 160,-1091 164.47,-1095.7 169.77,-1099.65 175.47,-1102.95"/>
<polygon fill="#4a6fa5" stroke="#4a6fa5" points="174.52,-1104.83 180.8,-1105.81 176.51,-1101.13 174.52,-1104.83"/>
</g>
<!-- Node0x55ca5ae10a20 -->
<g id="node9" class="node">
<title>Node0x55ca5ae10a20</title>
<path fill="#f0f4ff" stroke="black" d="M287,-1080C287,-1080 193,-1080 193,-1080 187,-1080 181,-1074 181,-1068 181,-1068 181,-1056 181,-1056 181,-1050 187,-1044 193,-1044 193,-1044 287,-1044 287,-1044 293,-1044 299,-1050 299,-1056 299,-1056 299,-1068 299,-1068 299,-1074 293,-1080 287,-1080"/>
<text text-anchor="middle" x="240" y="-1059.8" font-family="Courier,monospace" font-size="9.00">CTiffImg::ReadLine()</text>
</g>
<!-- Node0x55ca5ae43330&#45;&gt;Node0x55ca5ae10a20 -->
<g id="edge8" class="edge">
<title>Node0x55ca5ae43330&#45;&gt;Node0x55ca5ae10a20</title>
<path fill="none" stroke="#4a6fa5" d="M53.57,-761.09C58.9,-811.31 80.61,-953.98 160,-1033 164.43,-1037.41 169.58,-1041.15 175.09,-1044.33"/>
<polygon fill="#4a6fa5" stroke="#4a6fa5" points="174.42,-1046.35 180.71,-1047.32 176.4,-1042.65 174.42,-1046.35"/>
</g>
<!-- Node0x55ca5af0d210 -->
<g id="node10" class="node">
<title>Node0x55ca5af0d210</title>
<path fill="#f0f4ff" stroke="black" d="M289.5,-1022C289.5,-1022 190.5,-1022 190.5,-1022 184.5,-1022 178.5,-1016 178.5,-1010 178.5,-1010 178.5,-998 178.5,-998 178.5,-992 184.5,-986 190.5,-986 190.5,-986 289.5,-986 289.5,-986 295.5,-986 301.5,-992 301.5,-998 301.5,-998 301.5,-1010 301.5,-1010 301.5,-1016 295.5,-1022 289.5,-1022"/>
<text text-anchor="middle" x="240" y="-1001.8" font-family="Courier,monospace" font-size="9.00">CTiffImg::GetHeight()</text>
</g>
<!-- Node0x55ca5ae43330&#45;&gt;Node0x55ca5af0d210 -->
<g id="edge9" class="edge">
<title>Node0x55ca5ae43330&#45;&gt;Node0x55ca5af0d210</title>
<path fill="none" stroke="#4a6fa5" d="M55.5,-761.18C64.74,-804.38 93.77,-914.11 160,-975 163.87,-978.55 168.2,-981.68 172.8,-984.43"/>
<polygon fill="#4a6fa5" stroke="#4a6fa5" points="172.04,-986.41 178.31,-987.49 174.08,-982.74 172.04,-986.41"/>
</g>
<!-- Node0x55ca5ae0b040 -->
<g id="node11" class="node">
<title>Node0x55ca5ae0b040</title>
<path fill="#f0f4ff" stroke="black" d="M292,-964C292,-964 188,-964 188,-964 182,-964 176,-958 176,-952 176,-952 176,-940 176,-940 176,-934 182,-928 188,-928 188,-928 292,-928 292,-928 298,-928 304,-934 304,-940 304,-940 304,-952 304,-952 304,-958 298,-964 292,-964"/>
<text text-anchor="middle" x="240" y="-943.8" font-family="Courier,monospace" font-size="9.00">CTiffImg::GetSamples()</text>
</g>
<!-- Node0x55ca5ae43330&#45;&gt;Node0x55ca5ae0b040 -->
<g id="edge10" class="edge">
<title>Node0x55ca5ae43330&#45;&gt;Node0x55ca5ae0b040</title>
<path fill="none" stroke="#4a6fa5" d="M58.53,-761.01C72.07,-795.98 106.52,-873.44 160,-917 163.58,-919.92 167.49,-922.56 171.58,-924.95"/>
<polygon fill="#4a6fa5" stroke="#4a6fa5" points="170.58,-926.79 176.85,-927.84 172.6,-923.11 170.58,-926.79"/>
</g>
<!-- Node0x55ca5af0f630 -->
<g id="node12" class="node">
<title>Node0x55ca5af0f630</title>
<path fill="#f0f4ff" stroke="black" d="M300,-906C300,-906 180,-906 180,-906 174,-906 168,-900 168,-894 168,-894 168,-882 168,-882 168,-876 174,-870 180,-870 180,-870 300,-870 300,-870 306,-870 312,-876 312,-882 312,-882 312,-894 312,-894 312,-900 306,-906 300,-906"/>
<text text-anchor="middle" x="240" y="-885.8" font-family="Courier,monospace" font-size="9.00">CIccFileIO::~CIccFileIO()</text>
</g>
<!-- Node0x55ca5ae43330&#45;&gt;Node0x55ca5af0f630 -->
<g id="edge11" class="edge">
<title>Node0x55ca5ae43330&#45;&gt;Node0x55ca5af0f630</title>
<path fill="none" stroke="#4a6fa5" d="M64.61,-761.2C82.93,-786.4 119.21,-831.89 160,-859 164.56,-862.03 169.47,-864.79 174.54,-867.3"/>
<polygon fill="#4a6fa5" stroke="#4a6fa5" points="173.77,-869.26 180.1,-869.93 175.57,-865.46 173.77,-869.26"/>
</g>
<!-- Node0x55ca5af0f0b0 -->
<g id="node13" class="node">
<title>Node0x55ca5af0f0b0</title>
<path fill="#f0f4ff" stroke="black" d="M284,-848C284,-848 196,-848 196,-848 190,-848 184,-842 184,-836 184,-836 184,-824 184,-824 184,-818 190,-812 196,-812 196,-812 284,-812 284,-812 290,-812 296,-818 296,-824 296,-824 296,-836 296,-836 296,-842 290,-848 284,-848"/>
<text text-anchor="middle" x="240" y="-827.8" font-family="Courier,monospace" font-size="9.00">CIccFileIO::Close()</text>
</g>
<!-- Node0x55ca5ae43330&#45;&gt;Node0x55ca5af0f0b0 -->
<g id="edge12" class="edge">
<title>Node0x55ca5ae43330&#45;&gt;Node0x55ca5af0f0b0</title>
<path fill="none" stroke="#4a6fa5" d="M78.11,-758.36C99.66,-770.72 131.27,-788.09 160,-801 166.66,-803.99 173.74,-806.93 180.81,-809.7"/>
<polygon fill="#4a6fa5" stroke="#4a6fa5" points="180.38,-811.79 186.74,-812 181.9,-807.87 180.38,-811.79"/>
</g>
<!-- Node0x55ca5af0d500 -->
<g id="node14" class="node">
<title>Node0x55ca5af0d500</title>
<path fill="#f0f4ff" stroke="black" d="M287,-790C287,-790 193,-790 193,-790 187,-790 181,-784 181,-778 181,-778 181,-766 181,-766 181,-760 187,-754 193,-754 193,-754 287,-754 287,-754 293,-754 299,-760 299,-766 299,-766 299,-778 299,-778 299,-784 293,-790 287,-790"/>
<text text-anchor="middle" x="240" y="-769.8" font-family="Courier,monospace" font-size="9.00">CTiffImg::GetPhoto()</text>
</g>
<!-- Node0x55ca5ae43330&#45;&gt;Node0x55ca5af0d500 -->
<g id="edge13" class="edge">
<title>Node0x55ca5ae43330&#45;&gt;Node0x55ca5af0d500</title>
<path fill="none" stroke="#4a6fa5" d="M78,-747.03C102.94,-750.9 141.61,-756.9 174.79,-762.04"/>
<polygon fill="#4a6fa5" stroke="#4a6fa5" points="174.67,-764.15 180.92,-762.99 175.31,-760 174.67,-764.15"/>
</g>
<!-- Node0x55ca5af0eb60 -->
<g id="node15" class="node">
<title>Node0x55ca5af0eb60</title>
<path fill="#f0f4ff" stroke="black" d="M300,-732C300,-732 180,-732 180,-732 174,-732 168,-726 168,-720 168,-720 168,-708 168,-708 168,-702 174,-696 180,-696 180,-696 300,-696 300,-696 306,-696 312,-702 312,-708 312,-708 312,-720 312,-720 312,-726 306,-732 300,-732"/>
<text text-anchor="middle" x="240" y="-711.8" font-family="Courier,monospace" font-size="9.00">CTiffImg::SetIccProfile()</text>
</g>
<!-- Node0x55ca5ae43330&#45;&gt;Node0x55ca5af0eb60 -->
<g id="edge14" class="edge">
<title>Node0x55ca5ae43330&#45;&gt;Node0x55ca5af0eb60</title>
<path fill="none" stroke="#4a6fa5" d="M78,-738.97C99.73,-735.6 131.89,-730.61 161.76,-725.98"/>
<polygon fill="#4a6fa5" stroke="#4a6fa5" points="162.09,-728.05 167.69,-725.06 161.44,-723.9 162.09,-728.05"/>
</g>
<!-- Node0x55ca5af0e020 -->
<g id="node16" class="node">
<title>Node0x55ca5af0e020</title>
<path fill="#f0f4ff" stroke="black" d="M255,-674C255,-674 225,-674 225,-674 219,-674 213,-668 213,-662 213,-662 213,-650 213,-650 213,-644 219,-638 225,-638 225,-638 255,-638 255,-638 261,-638 267,-644 267,-650 267,-650 267,-662 267,-662 267,-668 261,-674 255,-674"/>
<text text-anchor="middle" x="240" y="-653.8" font-family="Courier,monospace" font-size="9.00">get()</text>
</g>
<!-- Node0x55ca5ae43330&#45;&gt;Node0x55ca5af0e020 -->
<g id="edge15" class="edge">
<title>Node0x55ca5ae43330&#45;&gt;Node0x55ca5af0e020</title>
<path fill="none" stroke="#4a6fa5" d="M78.11,-727.64C99.66,-715.28 131.27,-697.91 160,-685 175.04,-678.24 192.18,-671.8 206.64,-666.72"/>
<polygon fill="#4a6fa5" stroke="#4a6fa5" points="207.68,-668.58 212.66,-664.63 206.3,-664.61 207.68,-668.58"/>
</g>
<!-- Node0x55ca5ae0fbd0 -->
<g id="node17" class="node">
<title>Node0x55ca5ae0fbd0</title>
<path fill="#f0f4ff" stroke="black" d="M284,-616C284,-616 196,-616 196,-616 190,-616 184,-610 184,-604 184,-604 184,-592 184,-592 184,-586 190,-580 196,-580 196,-580 284,-580 284,-580 290,-580 296,-586 296,-592 296,-592 296,-604 296,-604 296,-610 290,-616 284,-616"/>
<text text-anchor="middle" x="240" y="-595.8" font-family="Courier,monospace" font-size="9.00">CIccFileIO::Read8()</text>
</g>
<!-- Node0x55ca5ae43330&#45;&gt;Node0x55ca5ae0fbd0 -->
<g id="edge16" class="edge">
<title>Node0x55ca5ae43330&#45;&gt;Node0x55ca5ae0fbd0</title>
<path fill="none" stroke="#4a6fa5" d="M64.61,-724.8C82.93,-699.6 119.21,-654.11 160,-627 165.59,-623.29 171.72,-619.97 178.01,-617.03"/>
<polygon fill="#4a6fa5" stroke="#4a6fa5" points="179.2,-618.8 183.82,-614.44 177.49,-614.96 179.2,-618.8"/>
</g>
<!-- Node0x55ca5ae10590 -->
<g id="node18" class="node">
<title>Node0x55ca5ae10590</title>
<path fill="#f0f4ff" stroke="black" d="M255,-558C255,-558 225,-558 225,-558 219,-558 213,-552 213,-546 213,-546 213,-534 213,-534 213,-528 219,-522 225,-522 225,-522 255,-522 255,-522 261,-522 267,-528 267,-534 267,-534 267,-546 267,-546 267,-552 261,-558 255,-558"/>
<text text-anchor="middle" x="240" y="-537.8" font-family="Courier,monospace" font-size="9.00">reset()</text>
</g>
<!-- Node0x55ca5ae43330&#45;&gt;Node0x55ca5ae10590 -->
<g id="edge17" class="edge">
<title>Node0x55ca5ae43330&#45;&gt;Node0x55ca5ae10590</title>
<path fill="none" stroke="#4a6fa5" d="M58.53,-724.99C72.07,-690.02 106.52,-612.56 160,-569 173.5,-558 191.55,-550.96 206.99,-546.57"/>
<polygon fill="#4a6fa5" stroke="#4a6fa5" points="207.74,-548.55 212.99,-544.96 206.65,-544.49 207.74,-548.55"/>
</g>
<!-- Node0x55ca5ae0fe80 -->
<g id="node19" class="node">
<title>Node0x55ca5ae0fe80</title>
<path fill="#f0f4ff" stroke="black" d="M294.5,-500C294.5,-500 185.5,-500 185.5,-500 179.5,-500 173.5,-494 173.5,-488 173.5,-488 173.5,-476 173.5,-476 173.5,-470 179.5,-464 185.5,-464 185.5,-464 294.5,-464 294.5,-464 300.5,-464 306.5,-470 306.5,-476 306.5,-476 306.5,-488 306.5,-488 306.5,-494 300.5,-500 294.5,-500"/>
<text text-anchor="middle" x="240" y="-479.8" font-family="Courier,monospace" font-size="9.00">CIccFileIO::GetLength()</text>
</g>
<!-- Node0x55ca5ae43330&#45;&gt;Node0x55ca5ae0fe80 -->
<g id="edge18" class="edge">
<title>Node0x55ca5ae43330&#45;&gt;Node0x55ca5ae0fe80</title>
<path fill="none" stroke="#4a6fa5" d="M55.5,-724.82C64.74,-681.62 93.77,-571.89 160,-511 162.96,-508.27 166.21,-505.8 169.63,-503.55"/>
<polygon fill="#4a6fa5" stroke="#4a6fa5" points="171.11,-505.11 175.15,-500.21 168.93,-501.52 171.11,-505.11"/>
</g>
<!-- Node0x55ca5ae0fa00 -->
<g id="node20" class="node">
<title>Node0x55ca5ae0fa00</title>
<path fill="#f0f4ff" stroke="black" d="M281.5,-442C281.5,-442 198.5,-442 198.5,-442 192.5,-442 186.5,-436 186.5,-430 186.5,-430 186.5,-418 186.5,-418 186.5,-412 192.5,-406 198.5,-406 198.5,-406 281.5,-406 281.5,-406 287.5,-406 293.5,-412 293.5,-418 293.5,-418 293.5,-430 293.5,-430 293.5,-436 287.5,-442 281.5,-442"/>
<text text-anchor="middle" x="240" y="-421.8" font-family="Courier,monospace" font-size="9.00">CIccFileIO::Open()</text>
</g>
<!-- Node0x55ca5ae43330&#45;&gt;Node0x55ca5ae0fa00 -->
<g id="edge19" class="edge">
<title>Node0x55ca5ae43330&#45;&gt;Node0x55ca5ae0fa00</title>
<path fill="none" stroke="#4a6fa5" d="M53.57,-724.91C58.9,-674.69 80.61,-532.02 160,-453 165.86,-447.17 172.99,-442.5 180.54,-438.76"/>
<polygon fill="#4a6fa5" stroke="#4a6fa5" points="181.8,-440.49 186.38,-436.08 180.05,-436.67 181.8,-440.49"/>
</g>
<!-- Node0x55ca5af0e5e0 -->
<g id="node21" class="node">
<title>Node0x55ca5af0e5e0</title>
<path fill="#f0f4ff" stroke="black" d="M297.5,-384C297.5,-384 182.5,-384 182.5,-384 176.5,-384 170.5,-378 170.5,-372 170.5,-372 170.5,-360 170.5,-360 170.5,-354 176.5,-348 182.5,-348 182.5,-348 297.5,-348 297.5,-348 303.5,-348 309.5,-354 309.5,-360 309.5,-360 309.5,-372 309.5,-372 309.5,-378 303.5,-384 297.5,-384"/>
<text text-anchor="middle" x="240" y="-363.8" font-family="Courier,monospace" font-size="9.00">CIccFileIO::CIccFileIO()</text>
</g>
<!-- Node0x55ca5ae43330&#45;&gt;Node0x55ca5af0e5e0 -->
<g id="edge20" class="edge">
<title>Node0x55ca5ae43330&#45;&gt;Node0x55ca5af0e5e0</title>
<path fill="none" stroke="#4a6fa5" d="M52.27,-724.71C54.11,-667.9 67.4,-492.44 160,-395 162.64,-392.22 165.57,-389.71 168.71,-387.43"/>
<polygon fill="#4a6fa5" stroke="#4a6fa5" points="169.95,-389.12 173.78,-384.05 167.62,-385.63 169.95,-389.12"/>
</g>
<!-- Node0x55ca5af0e270 -->
<g id="node22" class="node">
<title>Node0x55ca5af0e270</title>
<path fill="#f0f4ff" stroke="black" d="M281.5,-326C281.5,-326 198.5,-326 198.5,-326 192.5,-326 186.5,-320 186.5,-314 186.5,-314 186.5,-302 186.5,-302 186.5,-296 192.5,-290 198.5,-290 198.5,-290 281.5,-290 281.5,-290 287.5,-290 293.5,-296 293.5,-302 293.5,-302 293.5,-314 293.5,-314 293.5,-320 287.5,-326 281.5,-326"/>
<text text-anchor="middle" x="240" y="-305.8" font-family="Courier,monospace" font-size="9.00">CTiffImg::Create()</text>
</g>
<!-- Node0x55ca5ae43330&#45;&gt;Node0x55ca5af0e270 -->
<g id="edge21" class="edge">
<title>Node0x55ca5ae43330&#45;&gt;Node0x55ca5af0e270</title>
<path fill="none" stroke="#4a6fa5" d="M51.31,-724.89C49.94,-662.41 53.83,-453.4 160,-337 165.65,-330.81 172.73,-325.93 180.33,-322.1"/>
<polygon fill="#4a6fa5" stroke="#4a6fa5" points="181.66,-323.79 186.22,-319.36 179.89,-319.99 181.66,-323.79"/>
</g>
<!-- Node0x55ca5ae0e800 -->
<g id="node23" class="node">
<title>Node0x55ca5ae0e800</title>
<path fill="#f0f4ff" stroke="black" d="M308,-268C308,-268 172,-268 172,-268 166,-268 160,-262 160,-256 160,-256 160,-244 160,-244 160,-238 166,-232 172,-232 172,-232 308,-232 308,-232 314,-232 320,-238 320,-244 320,-244 320,-256 320,-256 320,-262 314,-268 308,-268"/>
<text text-anchor="middle" x="240" y="-247.8" font-family="Courier,monospace" font-size="9.00">CTiffImg::GetBitsPerSample()</text>
</g>
<!-- Node0x55ca5ae43330&#45;&gt;Node0x55ca5ae0e800 -->
<g id="edge22" class="edge">
<title>Node0x55ca5ae43330&#45;&gt;Node0x55ca5ae0e800</title>
<path fill="none" stroke="#4a6fa5" d="M53.93,-724.78C62.47,-647.55 99.06,-347.94 160,-279 162.3,-276.4 164.85,-274.03 167.59,-271.88"/>
<polygon fill="#4a6fa5" stroke="#4a6fa5" points="169.04,-273.42 172.7,-268.22 166.6,-270 169.04,-273.42"/>
</g>
<!-- Node0x55ca5ae0f530 -->
<g id="node24" class="node">
<title>Node0x55ca5ae0f530</title>
<path fill="#f0f4ff" stroke="black" d="M287,-210C287,-210 193,-210 193,-210 187,-210 181,-204 181,-198 181,-198 181,-186 181,-186 181,-180 187,-174 193,-174 193,-174 287,-174 287,-174 293,-174 299,-180 299,-186 299,-186 299,-198 299,-198 299,-204 293,-210 287,-210"/>
<text text-anchor="middle" x="240" y="-189.8" font-family="Courier,monospace" font-size="9.00">CTiffImg::CTiffImg()</text>
</g>
<!-- Node0x55ca5ae43330&#45;&gt;Node0x55ca5ae0f530 -->
<g id="edge23" class="edge">
<title>Node0x55ca5ae43330&#45;&gt;Node0x55ca5ae0f530</title>
<path fill="none" stroke="#4a6fa5" d="M53.42,-724.81C60.25,-641.8 92.17,-299.68 160,-221 164.31,-216 169.56,-211.86 175.28,-208.44"/>
<polygon fill="#4a6fa5" stroke="#4a6fa5" points="176.4,-210.22 180.65,-205.49 174.38,-206.54 176.4,-210.22"/>
</g>
<!-- Node0x55ca5ae0f0c0 -->
<g id="node25" class="node">
<title>Node0x55ca5ae0f0c0</title>
<path fill="#f0f4ff" stroke="black" d="M284,-152C284,-152 196,-152 196,-152 190,-152 184,-146 184,-140 184,-140 184,-128 184,-128 184,-122 190,-116 196,-116 196,-116 284,-116 284,-116 290,-116 296,-122 296,-128 296,-128 296,-140 296,-140 296,-146 290,-152 284,-152"/>
<text text-anchor="middle" x="240" y="-131.8" font-family="Courier,monospace" font-size="9.00">CTiffImg::GetYRes()</text>
</g>
<!-- Node0x55ca5ae43330&#45;&gt;Node0x55ca5ae0f0c0 -->
<g id="edge24" class="edge">
<title>Node0x55ca5ae43330&#45;&gt;Node0x55ca5ae0f0c0</title>
<path fill="none" stroke="#4a6fa5" d="M53.01,-724.91C58.26,-636.6 85.22,-251.51 160,-163 165.03,-157.04 171.41,-152.31 178.34,-148.55"/>
<polygon fill="#4a6fa5" stroke="#4a6fa5" points="179.3,-150.41 183.73,-145.85 177.43,-146.65 179.3,-150.41"/>
</g>
<!-- Node0x55ca5af0dad0 -->
<g id="node26" class="node">
<title>Node0x55ca5af0dad0</title>
<path fill="#f0f4ff" stroke="black" d="M284,-94C284,-94 196,-94 196,-94 190,-94 184,-88 184,-82 184,-82 184,-70 184,-70 184,-64 190,-58 196,-58 196,-58 284,-58 284,-58 290,-58 296,-64 296,-70 296,-70 296,-82 296,-82 296,-88 290,-94 284,-94"/>
<text text-anchor="middle" x="240" y="-73.8" font-family="Courier,monospace" font-size="9.00">CTiffImg::GetXRes()</text>
</g>
<!-- Node0x55ca5ae43330&#45;&gt;Node0x55ca5af0dad0 -->
<g id="edge25" class="edge">
<title>Node0x55ca5ae43330&#45;&gt;Node0x55ca5af0dad0</title>
<path fill="none" stroke="#4a6fa5" d="M52.68,-724.69C56.52,-630.74 78.33,-203.28 160,-105 164.99,-99 171.33,-94.24 178.24,-90.47"/>
<polygon fill="#4a6fa5" stroke="#4a6fa5" points="179.21,-92.33 183.63,-87.77 177.33,-88.58 179.21,-92.33"/>
</g>
<!-- Node0x55ca5ae0eeb0 -->
<g id="node27" class="node">
<title>Node0x55ca5ae0eeb0</title>
<path fill="#f0f4ff" stroke="black" d="M305,-36C305,-36 175,-36 175,-36 169,-36 163,-30 163,-24 163,-24 163,-12 163,-12 163,-6 169,0 175,0 175,0 305,0 305,0 311,0 317,-6 317,-12 317,-12 317,-24 317,-24 317,-30 311,-36 305,-36"/>
<text text-anchor="middle" x="240" y="-15.8" font-family="Courier,monospace" font-size="9.00">CTiffImg::GetBytesPerLine()</text>
</g>
<!-- Node0x55ca5ae43330&#45;&gt;Node0x55ca5ae0eeb0 -->
<g id="edge26" class="edge">
<title>Node0x55ca5ae43330&#45;&gt;Node0x55ca5ae0eeb0</title>
<path fill="none" stroke="#4a6fa5" d="M52.4,-724.7C54.9,-625.74 71.36,-155.18 160,-47 162.14,-44.39 164.54,-42.01 167.13,-39.85"/>
<polygon fill="#4a6fa5" stroke="#4a6fa5" points="168.47,-41.47 172,-36.18 165.94,-38.11 168.47,-41.47"/>
</g>
<!-- Node0x55ca5af20f10 -->
<g id="node29" class="node">
<title>Node0x55ca5af20f10</title>
<path fill="#f0f4ff" stroke="black" d="M447,-1428C447,-1428 390,-1428 390,-1428 384,-1428 378,-1422 378,-1416 378,-1416 378,-1404 378,-1404 378,-1398 384,-1392 390,-1392 390,-1392 447,-1392 447,-1392 453,-1392 459,-1398 459,-1404 459,-1404 459,-1416 459,-1416 459,-1422 453,-1428 447,-1428"/>
<text text-anchor="middle" x="418.5" y="-1407.8" font-family="Courier,monospace" font-size="9.00">get_deleter()</text>
</g>
<!-- Node0x55ca5ae11130&#45;&gt;Node0x55ca5af20f10 -->
<g id="edge28" class="edge">
<title>Node0x55ca5ae11130&#45;&gt;Node0x55ca5af20f10</title>
<path fill="none" stroke="#4a6fa5" d="M278,-1410C305.27,-1410 342.54,-1410 371.7,-1410"/>
<polygon fill="#4a6fa5" stroke="#4a6fa5" points="371.79,-1412.1 377.79,-1410 371.79,-1407.9 371.79,-1412.1"/>
</g>
<!-- Node0x55ca5af21b60 -->
<g id="node28" class="node">
<title>Node0x55ca5af21b60</title>
<path fill="#f0f4ff" stroke="black" d="M433.5,-558C433.5,-558 403.5,-558 403.5,-558 397.5,-558 391.5,-552 391.5,-546 391.5,-546 391.5,-534 391.5,-534 391.5,-528 397.5,-522 403.5,-522 403.5,-522 433.5,-522 433.5,-522 439.5,-522 445.5,-528 445.5,-534 445.5,-534 445.5,-546 445.5,-546 445.5,-552 439.5,-558 433.5,-558"/>
<text text-anchor="middle" x="418.5" y="-537.8" font-family="Courier,monospace" font-size="9.00">reset()</text>
</g>
<!-- Node0x55ca5ae10590&#45;&gt;Node0x55ca5af21b60 -->
<g id="edge27" class="edge">
<title>Node0x55ca5ae10590&#45;&gt;Node0x55ca5af21b60</title>
<path fill="none" stroke="#4a6fa5" d="M267.04,-540C298.46,-540 351.27,-540 385.24,-540"/>
<polygon fill="#4a6fa5" stroke="#4a6fa5" points="385.35,-542.1 391.35,-540 385.35,-537.9 385.35,-542.1"/>
</g>
<!-- Node0x55ca5af21c60 -->
<g id="node30" class="node">
<title>Node0x55ca5af21c60</title>
<path fill="#f0f4ff" stroke="black" d="M90,-1544C90,-1544 12,-1544 12,-1544 6,-1544 0,-1538 0,-1532 0,-1532 0,-1520 0,-1520 0,-1514 6,-1508 12,-1508 12,-1508 90,-1508 90,-1508 96,-1508 102,-1514 102,-1520 102,-1520 102,-1532 102,-1532 102,-1538 96,-1544 90,-1544"/>
<text text-anchor="middle" x="51" y="-1523.8" font-family="Courier,monospace" font-size="9.00">__uniq_ptr_data()</text>
</g>
<!-- Node0x55ca5af21000 -->
<g id="node31" class="node">
<title>Node0x55ca5af21000</title>
<path fill="#f0f4ff" stroke="black" d="M279,-1544C279,-1544 201,-1544 201,-1544 195,-1544 189,-1538 189,-1532 189,-1532 189,-1520 189,-1520 189,-1514 195,-1508 201,-1508 201,-1508 279,-1508 279,-1508 285,-1508 291,-1514 291,-1520 291,-1520 291,-1532 291,-1532 291,-1538 285,-1544 279,-1544"/>
<text text-anchor="middle" x="240" y="-1523.8" font-family="Courier,monospace" font-size="9.00">__uniq_ptr_impl()</text>
</g>
<!-- Node0x55ca5af21c60&#45;&gt;Node0x55ca5af21000 -->
<g id="edge29" class="edge">
<title>Node0x55ca5af21c60&#45;&gt;Node0x55ca5af21000</title>
<path fill="none" stroke="#4a6fa5" d="M102.11,-1526C126.95,-1526 157.04,-1526 182.67,-1526"/>
<polygon fill="#4a6fa5" stroke="#4a6fa5" points="182.75,-1528.1 188.75,-1526 182.75,-1523.9 182.75,-1528.1"/>
</g>
<!-- Node0x55ca5af10860 -->
<g id="node32" class="node">
<title>Node0x55ca5af10860</title>
<path fill="#f0f4ff" stroke="black" d="M90,-1602C90,-1602 12,-1602 12,-1602 6,-1602 0,-1596 0,-1590 0,-1590 0,-1578 0,-1578 0,-1572 6,-1566 12,-1566 12,-1566 90,-1566 90,-1566 96,-1566 102,-1572 102,-1578 102,-1578 102,-1590 102,-1590 102,-1596 96,-1602 90,-1602"/>
<text text-anchor="middle" x="51" y="-1581.8" font-family="Courier,monospace" font-size="9.00">__uniq_ptr_impl()</text>
</g>
<!-- Node0x55ca5af36b20 -->
<g id="node33" class="node">
<title>Node0x55ca5af36b20</title>
<path fill="#f0f4ff" stroke="black" d="M279,-1602C279,-1602 201,-1602 201,-1602 195,-1602 189,-1596 189,-1590 189,-1590 189,-1578 189,-1578 189,-1572 195,-1566 201,-1566 201,-1566 279,-1566 279,-1566 285,-1566 291,-1572 291,-1578 291,-1578 291,-1590 291,-1590 291,-1596 285,-1602 279,-1602"/>
<text text-anchor="middle" x="240" y="-1581.8" font-family="Courier,monospace" font-size="9.00">__uniq_ptr_impl()</text>
</g>
<!-- Node0x55ca5af10860&#45;&gt;Node0x55ca5af36b20 -->
<g id="edge30" class="edge">
<title>Node0x55ca5af10860&#45;&gt;Node0x55ca5af36b20</title>
<path fill="none" stroke="#4a6fa5" d="M102.11,-1584C126.95,-1584 157.04,-1584 182.67,-1584"/>
<polygon fill="#4a6fa5" stroke="#4a6fa5" points="182.75,-1586.1 188.75,-1584 182.75,-1581.9 182.75,-1586.1"/>
</g>
</g>
</svg>
