<?xml version="1.0" encoding="UTF-8" standalone="no"?>
<!DOCTYPE svg PUBLIC "-//W3C//DTD SVG 1.1//EN"
 "http://www.w3.org/Graphics/SVG/1.1/DTD/svg11.dtd">
<!-- Generated by graphviz version 2.43.0 (0)
 -->
<!-- Title: IccTiffDump Pages: 1 -->
<svg width="288pt" height="717pt"
 viewBox="0.00 0.00 288.20 717.20" xmlns="http://www.w3.org/2000/svg" xmlns:xlink="http://www.w3.org/1999/xlink">
<g id="graph0" class="graph" transform="scale(1 1) rotate(0) translate(21.6 695.6)">
<title>IccTiffDump</title>
<polygon fill="white" stroke="transparent" points="-21.6,21.6 -21.6,-695.6 266.6,-695.6 266.6,21.6 -21.6,21.6"/>
<!-- DumpProfileInfo -->
<g id="node1" class="node">
<title>DumpProfileInfo</title>
<path fill="#2d2d2d" stroke="black" d="M212,-674C212,-674 145,-674 145,-674 139,-674 133,-668 133,-662 133,-662 133,-650 133,-650 133,-644 139,-638 145,-638 145,-638 212,-638 212,-638 218,-638 224,-644 224,-650 224,-650 224,-662 224,-662 224,-668 218,-674 212,-674"/>
<text text-anchor="middle" x="178.5" y="-653.8" font-family="Consolas" font-size="9.00" fill="white">DumpProfileInfo</text>
</g>
<!-- GetProfile -->
<g id="node2" class="node">
<title>GetProfile</title>
<path fill="#2d2d2d" stroke="black" d="M199,-616C199,-616 158,-616 158,-616 152,-616 146,-610 146,-604 146,-604 146,-592 146,-592 146,-586 152,-580 158,-580 158,-580 199,-580 199,-580 205,-580 211,-586 211,-592 211,-592 211,-604 211,-604 211,-610 205,-616 199,-616"/>
<text text-anchor="middle" x="178.5" y="-595.8" font-family="Consolas" font-size="9.00" fill="white">GetProfile</text>
</g>
<!-- GetSpectralColorSigName -->
<g id="node3" class="node">
<title>GetSpectralColorSigName</title>
<path fill="#2d2d2d" stroke="black" d="M233,-558C233,-558 124,-558 124,-558 118,-558 112,-552 112,-546 112,-546 112,-534 112,-534 112,-528 118,-522 124,-522 124,-522 233,-522 233,-522 239,-522 245,-528 245,-534 245,-534 245,-546 245,-546 245,-552 239,-558 233,-558"/>
<text text-anchor="middle" x="178.5" y="-537.8" font-family="Consolas" font-size="9.00" fill="white">GetSpectralColorSigName</text>
</g>
<!-- GetText -->
<g id="node4" class="node">
<title>GetText</title>
<path fill="#2d2d2d" stroke="black" d="M193.5,-500C193.5,-500 163.5,-500 163.5,-500 157.5,-500 151.5,-494 151.5,-488 151.5,-488 151.5,-476 151.5,-476 151.5,-470 157.5,-464 163.5,-464 163.5,-464 193.5,-464 193.5,-464 199.5,-464 205.5,-470 205.5,-476 205.5,-476 205.5,-488 205.5,-488 205.5,-494 199.5,-500 193.5,-500"/>
<text text-anchor="middle" x="178.5" y="-479.8" font-family="Consolas" font-size="9.00" fill="white">GetText</text>
</g>
<!-- ReadTags -->
<g id="node5" class="node">
<title>ReadTags</title>
<path fill="#2d2d2d" stroke="black" d="M194,-442C194,-442 163,-442 163,-442 157,-442 151,-436 151,-430 151,-430 151,-418 151,-418 151,-412 157,-406 163,-406 163,-406 194,-406 194,-406 200,-406 206,-412 206,-418 206,-418 206,-430 206,-430 206,-436 200,-442 194,-442"/>
<text text-anchor="middle" x="178.5" y="-421.8" font-family="Consolas" font-size="9.00" fill="white">ReadTags</text>
</g>
<!-- Usage -->
<g id="node6" class="node">
<title>Usage</title>
<path fill="#2d2d2d" stroke="black" d="M193.5,-384C193.5,-384 163.5,-384 163.5,-384 157.5,-384 151.5,-378 151.5,-372 151.5,-372 151.5,-360 151.5,-360 151.5,-354 157.5,-348 163.5,-348 163.5,-348 193.5,-348 193.5,-348 199.5,-348 205.5,-354 205.5,-360 205.5,-360 205.5,-372 205.5,-372 205.5,-378 199.5,-384 193.5,-384"/>
<text text-anchor="middle" x="178.5" y="-363.8" font-family="Consolas" font-size="9.00" fill="white">Usage</text>
</g>
<!-- begin -->
<g id="node7" class="node">
<title>begin</title>
<path fill="#2d2d2d" stroke="black" d="M193.5,-326C193.5,-326 163.5,-326 163.5,-326 157.5,-326 151.5,-320 151.5,-314 151.5,-314 151.5,-302 151.5,-302 151.5,-296 157.5,-290 163.5,-290 163.5,-290 193.5,-290 193.5,-290 199.5,-290 205.5,-296 205.5,-302 205.5,-302 205.5,-314 205.5,-314 205.5,-320 199.5,-326 193.5,-326"/>
<text text-anchor="middle" x="178.5" y="-305.8" font-family="Consolas" font-size="9.00" fill="white">begin</text>
</g>
<!-- c_str -->
<g id="node8" class="node">
<title>c_str</title>
<path fill="#2d2d2d" stroke="black" d="M193.5,-268C193.5,-268 163.5,-268 163.5,-268 157.5,-268 151.5,-262 151.5,-256 151.5,-256 151.5,-244 151.5,-244 151.5,-238 157.5,-232 163.5,-232 163.5,-232 193.5,-232 193.5,-232 199.5,-232 205.5,-238 205.5,-244 205.5,-244 205.5,-256 205.5,-256 205.5,-262 199.5,-268 193.5,-268"/>
<text text-anchor="middle" x="178.5" y="-247.8" font-family="Consolas" font-size="9.00" fill="white">c_str</text>
</g>
<!-- fclose -->
<g id="node9" class="node">
<title>fclose</title>
<path fill="#2d2d2d" stroke="black" d="M193.5,-210C193.5,-210 163.5,-210 163.5,-210 157.5,-210 151.5,-204 151.5,-198 151.5,-198 151.5,-186 151.5,-186 151.5,-180 157.5,-174 163.5,-174 163.5,-174 193.5,-174 193.5,-174 199.5,-174 205.5,-180 205.5,-186 205.5,-186 205.5,-198 205.5,-198 205.5,-204 199.5,-210 193.5,-210"/>
<text text-anchor="middle" x="178.5" y="-189.8" font-family="Consolas" font-size="9.00" fill="white">fclose</text>
</g>
<!-- fopen -->
<g id="node10" class="node">
<title>fopen</title>
<path fill="#2d2d2d" stroke="black" d="M193.5,-152C193.5,-152 163.5,-152 163.5,-152 157.5,-152 151.5,-146 151.5,-140 151.5,-140 151.5,-128 151.5,-128 151.5,-122 157.5,-116 163.5,-116 163.5,-116 193.5,-116 193.5,-116 199.5,-116 205.5,-122 205.5,-128 205.5,-128 205.5,-140 205.5,-140 205.5,-146 199.5,-152 193.5,-152"/>
<text text-anchor="middle" x="178.5" y="-131.8" font-family="Consolas" font-size="9.00" fill="white">fopen</text>
</g>
<!-- fwrite -->
<g id="node11" class="node">
<title>fwrite</title>
<path fill="#2d2d2d" stroke="black" d="M193.5,-94C193.5,-94 163.5,-94 163.5,-94 157.5,-94 151.5,-88 151.5,-82 151.5,-82 151.5,-70 151.5,-70 151.5,-64 157.5,-58 163.5,-58 163.5,-58 193.5,-58 193.5,-58 199.5,-58 205.5,-64 205.5,-70 205.5,-70 205.5,-82 205.5,-82 205.5,-88 199.5,-94 193.5,-94"/>
<text text-anchor="middle" x="178.5" y="-73.8" font-family="Consolas" font-size="9.00" fill="white">fwrite</text>
</g>
<!-- icF16toF -->
<g id="node12" class="node">
<title>icF16toF</title>
<path fill="#2d2d2d" stroke="black" d="M194,-36C194,-36 163,-36 163,-36 157,-36 151,-30 151,-24 151,-24 151,-12 151,-12 151,-6 157,0 163,0 163,0 194,0 194,0 200,0 206,-6 206,-12 206,-12 206,-24 206,-24 206,-30 200,-36 194,-36"/>
<text text-anchor="middle" x="178.5" y="-15.8" font-family="Consolas" font-size="9.00" fill="white">icF16toF</text>
</g>
<!-- if -->
<g id="node13" class="node">
<title>if</title>
<path fill="#2d2d2d" stroke="black" d="M42,-355C42,-355 12,-355 12,-355 6,-355 0,-349 0,-343 0,-343 0,-331 0,-331 0,-325 6,-319 12,-319 12,-319 42,-319 42,-319 48,-319 54,-325 54,-331 54,-331 54,-343 54,-343 54,-349 48,-355 42,-355"/>
<text text-anchor="middle" x="27" y="-334.8" font-family="Consolas" font-size="9.00" fill="white">if</text>
</g>
<!-- if&#45;&gt;DumpProfileInfo -->
<g id="edge6" class="edge">
<title>if&#45;&gt;DumpProfileInfo</title>
<path fill="none" stroke="#666666" d="M28.19,-355.1C29.65,-404.76 40.28,-544.89 112,-627 116.32,-631.95 121.65,-636.09 127.38,-639.54"/>
<polygon fill="#666666" stroke="#666666" points="126.48,-641.45 132.75,-642.53 128.53,-637.78 126.48,-641.45"/>
</g>
<!-- if&#45;&gt;GetProfile -->
<g id="edge7" class="edge">
<title>if&#45;&gt;GetProfile</title>
<path fill="none" stroke="#666666" d="M29.76,-355.17C34.8,-397.86 52.97,-505.73 112,-569 119.66,-577.21 130.06,-583.24 140.32,-587.6"/>
<polygon fill="#666666" stroke="#666666" points="139.64,-589.58 145.99,-589.85 141.19,-585.68 139.64,-589.58"/>
</g>
<!-- if&#45;&gt;GetSpectralColorSigName -->
<g id="edge2" class="edge">
<title>if&#45;&gt;GetSpectralColorSigName</title>
<path fill="none" stroke="#666666" d="M32.3,-355.25C41.36,-389.95 65.47,-465.98 112,-511 114.82,-513.72 117.93,-516.22 121.23,-518.49"/>
<polygon fill="#666666" stroke="#666666" points="120.36,-520.43 126.54,-521.9 122.62,-516.89 120.36,-520.43"/>
</g>
<!-- if&#45;&gt;GetText -->
<g id="edge4" class="edge">
<title>if&#45;&gt;GetText</title>
<path fill="none" stroke="#666666" d="M37.29,-355.41C50.73,-380.46 77.79,-425.31 112,-453 121.8,-460.93 134.1,-467.12 145.39,-471.72"/>
<polygon fill="#666666" stroke="#666666" points="144.83,-473.75 151.19,-473.97 146.36,-469.84 144.83,-473.75"/>
</g>
<!-- if&#45;&gt;ReadTags -->
<g id="edge12" class="edge">
<title>if&#45;&gt;ReadTags</title>
<path fill="none" stroke="#666666" d="M51.85,-355.26C68.25,-367.36 90.82,-383.14 112,-395 122.53,-400.9 134.5,-406.49 145.29,-411.17"/>
<polygon fill="#666666" stroke="#666666" points="144.47,-413.1 150.82,-413.53 146.12,-409.24 144.47,-413.1"/>
</g>
<!-- if&#45;&gt;Usage -->
<g id="edge8" class="edge">
<title>if&#45;&gt;Usage</title>
<path fill="none" stroke="#666666" d="M54.04,-342.05C79.4,-346.97 117.99,-354.46 145.27,-359.75"/>
<polygon fill="#666666" stroke="#666666" points="144.97,-361.83 151.26,-360.91 145.77,-357.7 144.97,-361.83"/>
</g>
<!-- if&#45;&gt;begin -->
<g id="edge5" class="edge">
<title>if&#45;&gt;begin</title>
<path fill="none" stroke="#666666" d="M54.04,-331.95C79.4,-327.03 117.99,-319.54 145.27,-314.25"/>
<polygon fill="#666666" stroke="#666666" points="145.77,-316.3 151.26,-313.09 144.97,-312.17 145.77,-316.3"/>
</g>
<!-- if&#45;&gt;c_str -->
<g id="edge1" class="edge">
<title>if&#45;&gt;c_str</title>
<path fill="none" stroke="#666666" d="M51.85,-318.74C68.25,-306.64 90.82,-290.86 112,-279 122.72,-273 134.92,-267.31 145.86,-262.59"/>
<polygon fill="#666666" stroke="#666666" points="146.75,-264.49 151.45,-260.21 145.11,-260.62 146.75,-264.49"/>
</g>
<!-- if&#45;&gt;fclose -->
<g id="edge11" class="edge">
<title>if&#45;&gt;fclose</title>
<path fill="none" stroke="#666666" d="M37.29,-318.59C50.73,-293.54 77.79,-248.69 112,-221 121.8,-213.07 134.1,-206.88 145.39,-202.28"/>
<polygon fill="#666666" stroke="#666666" points="146.36,-204.16 151.19,-200.03 144.83,-200.25 146.36,-204.16"/>
</g>
<!-- if&#45;&gt;fopen -->
<g id="edge9" class="edge">
<title>if&#45;&gt;fopen</title>
<path fill="none" stroke="#666666" d="M32.3,-318.75C41.36,-284.05 65.47,-208.02 112,-163 121.37,-153.93 134.05,-147.43 145.76,-142.91"/>
<polygon fill="#666666" stroke="#666666" points="146.49,-144.88 151.41,-140.85 145.05,-140.93 146.49,-144.88"/>
</g>
<!-- if&#45;&gt;fwrite -->
<g id="edge10" class="edge">
<title>if&#45;&gt;fwrite</title>
<path fill="none" stroke="#666666" d="M29.76,-318.83C34.8,-276.14 52.97,-168.27 112,-105 120.97,-95.39 133.7,-88.77 145.55,-84.31"/>
<polygon fill="#666666" stroke="#666666" points="146.32,-86.27 151.28,-82.29 144.92,-82.31 146.32,-86.27"/>
</g>
<!-- if&#45;&gt;icF16toF -->
<g id="edge3" class="edge">
<title>if&#45;&gt;icF16toF</title>
<path fill="none" stroke="#666666" d="M28.19,-318.9C29.65,-269.24 40.28,-129.11 112,-47 120.65,-37.1 133.32,-30.43 145.22,-26.01"/>
<polygon fill="#666666" stroke="#666666" points="146,-27.97 150.98,-24.02 144.62,-24 146,-27.97"/>
</g>
</g>
</svg>
