<?xml version="1.0" encoding="UTF-8" standalone="no"?>
<!DOCTYPE svg PUBLIC "-//W3C//DTD SVG 1.1//EN"
 "http://www.w3.org/Graphics/SVG/1.1/DTD/svg11.dtd">
<!-- Generated by graphviz version 2.43.0 (0)
 -->
<!-- Title: Call graph: /home/h02332/po/research/call&#45;graph/iccdev/tools/TiffImg.ll Pages: 1 -->
<svg width="2707pt" height="214pt"
 viewBox="0.00 0.00 2707.00 214.00" xmlns="http://www.w3.org/2000/svg" xmlns:xlink="http://www.w3.org/1999/xlink">
<g id="graph0" class="graph" transform="scale(1 1) rotate(0) translate(4 210)">
<title>Call graph: /home/h02332/po/research/call&#45;graph/iccdev/tools/TiffImg.ll</title>
<polygon fill="white" stroke="transparent" points="-4,4 -4,-210 2703,-210 2703,4 -4,4"/>
<text text-anchor="middle" x="1349.5" y="-7.8" font-family="Times,serif" font-size="14.00">Call graph: /home/h02332/po/research/call&#45;graph/iccdev/tools/TiffImg.ll</text>
<!-- Node0x5684c2e8f640 -->
<g id="node1" class="node">
<title>Node0x5684c2e8f640</title>
<polygon fill="none" stroke="black" points="46,-169.5 46,-205.5 200,-205.5 200,-169.5 46,-169.5"/>
<text text-anchor="middle" x="123" y="-183.8" font-family="Times,serif" font-size="14.00">_ZN8CTiffImgC2Ev</text>
</g>
<!-- Node0x5684c2dc83e0 -->
<g id="node2" class="node">
<title>Node0x5684c2dc83e0</title>
<polygon fill="none" stroke="black" points="218.5,-169.5 218.5,-205.5 373.5,-205.5 373.5,-169.5 218.5,-169.5"/>
<text text-anchor="middle" x="296" y="-183.8" font-family="Times,serif" font-size="14.00">_ZN8CTiffImgD2Ev</text>
</g>
<!-- Node0x5684c2e88de0 -->
<g id="node3" class="node">
<title>Node0x5684c2e88de0</title>
<polygon fill="none" stroke="black" points="306,-96.5 306,-132.5 488,-132.5 488,-96.5 306,-96.5"/>
<text text-anchor="middle" x="397" y="-110.8" font-family="Times,serif" font-size="14.00">_ZN8CTiffImg5CloseEv</text>
</g>
<!-- Node0x5684c2dc83e0&#45;&gt;Node0x5684c2e88de0 -->
<g id="edge1" class="edge">
<title>Node0x5684c2dc83e0&#45;&gt;Node0x5684c2e88de0</title>
<path fill="none" stroke="black" d="M320.19,-169.49C333.34,-160.25 349.78,-148.69 364.08,-138.64"/>
<polygon fill="black" stroke="black" points="366.49,-141.23 372.66,-132.61 362.46,-135.5 366.49,-141.23"/>
</g>
<!-- Node0x5684c2e90b60 -->
<g id="node4" class="node">
<title>Node0x5684c2e90b60</title>
<polygon fill="none" stroke="black" points="110.5,-96.5 110.5,-132.5 287.5,-132.5 287.5,-96.5 110.5,-96.5"/>
<text text-anchor="middle" x="199" y="-110.8" font-family="Times,serif" font-size="14.00">__clang_call_terminate</text>
</g>
<!-- Node0x5684c2dc83e0&#45;&gt;Node0x5684c2e90b60 -->
<g id="edge2" class="edge">
<title>Node0x5684c2dc83e0&#45;&gt;Node0x5684c2e90b60</title>
<path fill="none" stroke="black" d="M272.52,-169.31C259.89,-160.07 244.14,-148.54 230.47,-138.53"/>
<polygon fill="black" stroke="black" points="232.4,-135.61 222.26,-132.53 228.27,-141.26 232.4,-135.61"/>
</g>
<!-- Node0x5684c2e9e3d0 -->
<g id="node5" class="node">
<title>Node0x5684c2e9e3d0</title>
<polygon fill="none" stroke="black" points="352.5,-23.5 352.5,-59.5 441.5,-59.5 441.5,-23.5 352.5,-23.5"/>
<text text-anchor="middle" x="397" y="-37.8" font-family="Times,serif" font-size="14.00">TIFFClose</text>
</g>
<!-- Node0x5684c2e88de0&#45;&gt;Node0x5684c2e9e3d0 -->
<g id="edge3" class="edge">
<title>Node0x5684c2e88de0&#45;&gt;Node0x5684c2e9e3d0</title>
<path fill="none" stroke="black" d="M397,-96.31C397,-88.29 397,-78.55 397,-69.57"/>
<polygon fill="black" stroke="black" points="400.5,-69.53 397,-59.53 393.5,-69.53 400.5,-69.53"/>
</g>
<!-- Node0x5684c2e91d40 -->
<g id="node6" class="node">
<title>Node0x5684c2e91d40</title>
<polygon fill="none" stroke="black" points="475,-23.5 475,-59.5 529,-59.5 529,-23.5 475,-23.5"/>
<text text-anchor="middle" x="502" y="-37.8" font-family="Times,serif" font-size="14.00">free</text>
</g>
<!-- Node0x5684c2e88de0&#45;&gt;Node0x5684c2e91d40 -->
<g id="edge4" class="edge">
<title>Node0x5684c2e88de0&#45;&gt;Node0x5684c2e91d40</title>
<path fill="none" stroke="black" d="M422.15,-96.49C435.95,-87.17 453.24,-75.47 468.2,-65.36"/>
<polygon fill="black" stroke="black" points="470.37,-68.11 476.69,-59.61 466.45,-62.32 470.37,-68.11"/>
</g>
<!-- Node0x5684c2e9e780 -->
<g id="node8" class="node">
<title>Node0x5684c2e9e780</title>
<polygon fill="none" stroke="black" points="0,-23.5 0,-59.5 146,-59.5 146,-23.5 0,-23.5"/>
<text text-anchor="middle" x="73" y="-37.8" font-family="Times,serif" font-size="14.00">__cxa_begin_catch</text>
</g>
<!-- Node0x5684c2e90b60&#45;&gt;Node0x5684c2e9e780 -->
<g id="edge5" class="edge">
<title>Node0x5684c2e90b60&#45;&gt;Node0x5684c2e9e780</title>
<path fill="none" stroke="black" d="M168.82,-96.49C151.96,-86.99 130.74,-75.04 112.56,-64.79"/>
<polygon fill="black" stroke="black" points="113.8,-61.47 103.37,-59.61 110.36,-67.57 113.8,-61.47"/>
</g>
<!-- Node0x5684c2ea0030 -->
<g id="node9" class="node">
<title>Node0x5684c2ea0030</title>
<polygon fill="none" stroke="black" points="164.5,-23.5 164.5,-59.5 301.5,-59.5 301.5,-23.5 164.5,-23.5"/>
<text text-anchor="middle" x="233" y="-37.8" font-family="Times,serif" font-size="14.00">_ZSt9terminatev</text>
</g>
<!-- Node0x5684c2e90b60&#45;&gt;Node0x5684c2ea0030 -->
<g id="edge6" class="edge">
<title>Node0x5684c2e90b60&#45;&gt;Node0x5684c2ea0030</title>
<path fill="none" stroke="black" d="M207.23,-96.31C211.2,-88.03 216.04,-77.91 220.46,-68.69"/>
<polygon fill="black" stroke="black" points="223.68,-70.06 224.85,-59.53 217.37,-67.04 223.68,-70.06"/>
</g>
<!-- Node0x5684c2dbb0c0 -->
<g id="node7" class="node">
<title>Node0x5684c2dbb0c0</title>
<polygon fill="none" stroke="black" points="1574.5,-169.5 1574.5,-205.5 1741.5,-205.5 1741.5,-169.5 1574.5,-169.5"/>
<text text-anchor="middle" x="1658" y="-183.8" font-family="Times,serif" font-size="14.00">__gxx_personality_v0</text>
</g>
<!-- Node0x5684c2e9ffb0 -->
<g id="node10" class="node">
<title>Node0x5684c2e9ffb0</title>
<polygon fill="none" stroke="black" points="1759.5,-169.5 1759.5,-205.5 1914.5,-205.5 1914.5,-169.5 1759.5,-169.5"/>
<text text-anchor="middle" x="1837" y="-183.8" font-family="Times,serif" font-size="14.00">_ZN8CTiffImgD0Ev</text>
</g>
<!-- Node0x5684c2e9ed60 -->
<g id="node11" class="node">
<title>Node0x5684c2e9ed60</title>
<polygon fill="none" stroke="black" points="1804.5,-96.5 1804.5,-132.5 1869.5,-132.5 1869.5,-96.5 1804.5,-96.5"/>
<text text-anchor="middle" x="1837" y="-110.8" font-family="Times,serif" font-size="14.00">_ZdlPv</text>
</g>
<!-- Node0x5684c2e9ffb0&#45;&gt;Node0x5684c2e9ed60 -->
<g id="edge7" class="edge">
<title>Node0x5684c2e9ffb0&#45;&gt;Node0x5684c2e9ed60</title>
<path fill="none" stroke="black" d="M1837,-169.31C1837,-161.29 1837,-151.55 1837,-142.57"/>
<polygon fill="black" stroke="black" points="1840.5,-142.53 1837,-132.53 1833.5,-142.53 1840.5,-142.53"/>
</g>
<!-- Node0x5684c2e9f3a0 -->
<g id="node12" class="node">
<title>Node0x5684c2e9f3a0</title>
<polygon fill="none" stroke="black" points="497,-169.5 497,-205.5 763,-205.5 763,-169.5 497,-169.5"/>
<text text-anchor="middle" x="630" y="-183.8" font-family="Times,serif" font-size="14.00">_ZN8CTiffImg6CreateEPKcjjjjjjffbb</text>
</g>
<!-- Node0x5684c2e9f3a0&#45;&gt;Node0x5684c2e88de0 -->
<g id="edge8" class="edge">
<title>Node0x5684c2e9f3a0&#45;&gt;Node0x5684c2e88de0</title>
<path fill="none" stroke="black" d="M574.19,-169.49C540.72,-159.29 497.97,-146.27 462.85,-135.57"/>
<polygon fill="black" stroke="black" points="463.75,-132.18 453.16,-132.61 461.71,-138.88 463.75,-132.18"/>
</g>
<!-- Node0x5684c2e9f3a0&#45;&gt;Node0x5684c2e91d40 -->
<g id="edge14" class="edge">
<title>Node0x5684c2e9f3a0&#45;&gt;Node0x5684c2e91d40</title>
<path fill="none" stroke="black" d="M585.21,-169.4C567.56,-160.76 548.35,-148.73 535,-133 519.66,-114.93 511.19,-89.12 506.69,-69.69"/>
<polygon fill="black" stroke="black" points="510.05,-68.7 504.57,-59.64 503.2,-70.14 510.05,-68.7"/>
</g>
<!-- Node0x5684c2ea14e0 -->
<g id="node13" class="node">
<title>Node0x5684c2ea14e0</title>
<polygon fill="none" stroke="black" points="620,-96.5 620,-132.5 708,-132.5 708,-96.5 620,-96.5"/>
<text text-anchor="middle" x="664" y="-110.8" font-family="Times,serif" font-size="14.00">TIFFOpen</text>
</g>
<!-- Node0x5684c2e9f3a0&#45;&gt;Node0x5684c2ea14e0 -->
<g id="edge9" class="edge">
<title>Node0x5684c2e9f3a0&#45;&gt;Node0x5684c2ea14e0</title>
<path fill="none" stroke="black" d="M638.23,-169.31C642.2,-161.03 647.04,-150.91 651.46,-141.69"/>
<polygon fill="black" stroke="black" points="654.68,-143.06 655.85,-132.53 648.37,-140.04 654.68,-143.06"/>
</g>
<!-- Node0x5684c2ea1b90 -->
<g id="node14" class="node">
<title>Node0x5684c2ea1b90</title>
<polygon fill="none" stroke="black" points="725.5,-96.5 725.5,-132.5 814.5,-132.5 814.5,-96.5 725.5,-96.5"/>
<text text-anchor="middle" x="770" y="-110.8" font-family="Times,serif" font-size="14.00">TIFFError</text>
</g>
<!-- Node0x5684c2e9f3a0&#45;&gt;Node0x5684c2ea1b90 -->
<g id="edge10" class="edge">
<title>Node0x5684c2e9f3a0&#45;&gt;Node0x5684c2ea1b90</title>
<path fill="none" stroke="black" d="M663.53,-169.49C682.61,-159.82 706.71,-147.6 727.15,-137.23"/>
<polygon fill="black" stroke="black" points="728.92,-140.26 736.25,-132.61 725.75,-134.02 728.92,-140.26"/>
</g>
<!-- Node0x5684c2ea1930 -->
<g id="node15" class="node">
<title>Node0x5684c2ea1930</title>
<polygon fill="none" stroke="black" points="1065,-96.5 1065,-132.5 1175,-132.5 1175,-96.5 1065,-96.5"/>
<text text-anchor="middle" x="1120" y="-110.8" font-family="Times,serif" font-size="14.00">TIFFSetField</text>
</g>
<!-- Node0x5684c2e9f3a0&#45;&gt;Node0x5684c2ea1930 -->
<g id="edge11" class="edge">
<title>Node0x5684c2e9f3a0&#45;&gt;Node0x5684c2ea1930</title>
<path fill="none" stroke="black" d="M763.25,-169.57C871.74,-155.69 1011.18,-137.61 1038,-133 1043.47,-132.06 1049.13,-131.01 1054.8,-129.91"/>
<polygon fill="black" stroke="black" points="1055.86,-133.26 1064.98,-127.87 1054.49,-126.4 1055.86,-133.26"/>
</g>
<!-- Node0x5684c2ea1ee0 -->
<g id="node16" class="node">
<title>Node0x5684c2ea1ee0</title>
<polygon fill="none" stroke="black" points="832,-96.5 832,-132.5 948,-132.5 948,-96.5 832,-96.5"/>
<text text-anchor="middle" x="890" y="-110.8" font-family="Times,serif" font-size="14.00">TIFFStripSize</text>
</g>
<!-- Node0x5684c2e9f3a0&#45;&gt;Node0x5684c2ea1ee0 -->
<g id="edge12" class="edge">
<title>Node0x5684c2e9f3a0&#45;&gt;Node0x5684c2ea1ee0</title>
<path fill="none" stroke="black" d="M692.28,-169.49C731.41,-158.81 781.92,-145.02 822.08,-134.05"/>
<polygon fill="black" stroke="black" points="823.07,-137.41 831.8,-131.39 821.23,-130.65 823.07,-137.41"/>
</g>
<!-- Node0x5684c2ea4910 -->
<g id="node17" class="node">
<title>Node0x5684c2ea4910</title>
<polygon fill="none" stroke="black" points="966.5,-96.5 966.5,-132.5 1029.5,-132.5 1029.5,-96.5 966.5,-96.5"/>
<text text-anchor="middle" x="998" y="-110.8" font-family="Times,serif" font-size="14.00">malloc</text>
</g>
<!-- Node0x5684c2e9f3a0&#45;&gt;Node0x5684c2ea4910 -->
<g id="edge13" class="edge">
<title>Node0x5684c2e9f3a0&#45;&gt;Node0x5684c2ea4910</title>
<path fill="none" stroke="black" d="M753.43,-169.45C829.5,-158.33 919.44,-143.92 957,-133 957.1,-132.97 957.2,-132.94 957.29,-132.91"/>
<polygon fill="black" stroke="black" points="958.12,-136.33 966.49,-129.84 955.9,-129.69 958.12,-136.33"/>
</g>
<!-- Node0x5684c2ea1730 -->
<g id="node18" class="node">
<title>Node0x5684c2ea1730</title>
<polygon fill="none" stroke="black" points="544.5,-96.5 544.5,-132.5 601.5,-132.5 601.5,-96.5 544.5,-96.5"/>
<text text-anchor="middle" x="573" y="-110.8" font-family="Times,serif" font-size="14.00">calloc</text>
</g>
<!-- Node0x5684c2e9f3a0&#45;&gt;Node0x5684c2ea1730 -->
<g id="edge15" class="edge">
<title>Node0x5684c2e9f3a0&#45;&gt;Node0x5684c2ea1730</title>
<path fill="none" stroke="black" d="M616.2,-169.31C609.27,-160.68 600.74,-150.06 593.1,-140.53"/>
<polygon fill="black" stroke="black" points="595.66,-138.14 586.67,-132.53 590.2,-142.52 595.66,-138.14"/>
</g>
<!-- Node0x5684c2e9f550 -->
<g id="node19" class="node">
<title>Node0x5684c2e9f550</title>
<polygon fill="none" stroke="black" points="781,-169.5 781,-205.5 981,-205.5 981,-169.5 781,-169.5"/>
<text text-anchor="middle" x="881" y="-183.8" font-family="Times,serif" font-size="14.00">_ZN8CTiffImg4OpenEPKc</text>
</g>
<!-- Node0x5684c2e9f550&#45;&gt;Node0x5684c2e88de0 -->
<g id="edge16" class="edge">
<title>Node0x5684c2e9f550&#45;&gt;Node0x5684c2e88de0</title>
<path fill="none" stroke="black" d="M780.93,-170.36C777.92,-169.9 774.94,-169.45 772,-169 679.44,-154.97 573.86,-140 498.36,-129.47"/>
<polygon fill="black" stroke="black" points="498.77,-126 488.38,-128.08 497.8,-132.93 498.77,-126"/>
</g>
<!-- Node0x5684c2e9f550&#45;&gt;Node0x5684c2ea14e0 -->
<g id="edge17" class="edge">
<title>Node0x5684c2e9f550&#45;&gt;Node0x5684c2ea14e0</title>
<path fill="none" stroke="black" d="M827.82,-169.42C797.8,-159.74 759.36,-147.29 717.97,-133.64"/>
<polygon fill="black" stroke="black" points="718.84,-130.24 708.24,-130.43 716.64,-136.89 718.84,-130.24"/>
</g>
<!-- Node0x5684c2e9f550&#45;&gt;Node0x5684c2ea1b90 -->
<g id="edge18" class="edge">
<title>Node0x5684c2e9f550&#45;&gt;Node0x5684c2ea1b90</title>
<path fill="none" stroke="black" d="M854.41,-169.49C839.69,-160.08 821.21,-148.26 805.29,-138.07"/>
<polygon fill="black" stroke="black" points="807.07,-135.05 796.76,-132.61 803.29,-140.95 807.07,-135.05"/>
</g>
<!-- Node0x5684c2e9f550&#45;&gt;Node0x5684c2ea1ee0 -->
<g id="edge21" class="edge">
<title>Node0x5684c2e9f550&#45;&gt;Node0x5684c2ea1ee0</title>
<path fill="none" stroke="black" d="M883.18,-169.31C884.2,-161.29 885.43,-151.55 886.57,-142.57"/>
<polygon fill="black" stroke="black" points="890.06,-142.89 887.84,-132.53 883.11,-142.01 890.06,-142.89"/>
</g>
<!-- Node0x5684c2e9f550&#45;&gt;Node0x5684c2ea4910 -->
<g id="edge20" class="edge">
<title>Node0x5684c2e9f550&#45;&gt;Node0x5684c2ea4910</title>
<path fill="none" stroke="black" d="M909.02,-169.49C924.54,-160.08 944.02,-148.26 960.8,-138.07"/>
<polygon fill="black" stroke="black" points="963.07,-140.79 969.8,-132.61 959.43,-134.81 963.07,-140.79"/>
</g>
<!-- Node0x5684c2ea3aa0 -->
<g id="node20" class="node">
<title>Node0x5684c2ea3aa0</title>
<polygon fill="none" stroke="black" points="1281,-96.5 1281,-132.5 1393,-132.5 1393,-96.5 1281,-96.5"/>
<text text-anchor="middle" x="1337" y="-110.8" font-family="Times,serif" font-size="14.00">TIFFGetField</text>
</g>
<!-- Node0x5684c2e9f550&#45;&gt;Node0x5684c2ea3aa0 -->
<g id="edge19" class="edge">
<title>Node0x5684c2e9f550&#45;&gt;Node0x5684c2ea3aa0</title>
<path fill="none" stroke="black" d="M981.08,-170.41C984.09,-169.93 987.07,-169.46 990,-169 1087.71,-153.62 1200.97,-136.25 1270.81,-125.58"/>
<polygon fill="black" stroke="black" points="1271.43,-129.03 1280.79,-124.06 1270.38,-122.11 1271.43,-129.03"/>
</g>
<!-- Node0x5684c2ea20b0 -->
<g id="node21" class="node">
<title>Node0x5684c2ea20b0</title>
<polygon fill="none" stroke="black" points="1957.5,-169.5 1957.5,-205.5 2178.5,-205.5 2178.5,-169.5 1957.5,-169.5"/>
<text text-anchor="middle" x="2068" y="-183.8" font-family="Times,serif" font-size="14.00">_ZN8CTiffImg8ReadLineEPh</text>
</g>
<!-- Node0x5684c2ea76f0 -->
<g id="node22" class="node">
<title>Node0x5684c2ea76f0</title>
<polygon fill="none" stroke="black" points="1888,-96.5 1888,-132.5 2072,-132.5 2072,-96.5 1888,-96.5"/>
<text text-anchor="middle" x="1980" y="-110.8" font-family="Times,serif" font-size="14.00">TIFFReadEncodedStrip</text>
</g>
<!-- Node0x5684c2ea20b0&#45;&gt;Node0x5684c2ea76f0 -->
<g id="edge22" class="edge">
<title>Node0x5684c2ea20b0&#45;&gt;Node0x5684c2ea76f0</title>
<path fill="none" stroke="black" d="M2046.7,-169.31C2035.35,-160.16 2021.22,-148.76 2008.9,-138.82"/>
<polygon fill="black" stroke="black" points="2011.09,-136.08 2001.11,-132.53 2006.69,-141.53 2011.09,-136.08"/>
</g>
<!-- Node0x5684c2ea7160 -->
<g id="node23" class="node">
<title>Node0x5684c2ea7160</title>
<polygon fill="none" stroke="black" points="2090,-96.5 2090,-132.5 2272,-132.5 2272,-96.5 2090,-96.5"/>
<text text-anchor="middle" x="2181" y="-110.8" font-family="Times,serif" font-size="14.00">llvm.memcpy.p0.p0.i64</text>
</g>
<!-- Node0x5684c2ea20b0&#45;&gt;Node0x5684c2ea7160 -->
<g id="edge23" class="edge">
<title>Node0x5684c2ea20b0&#45;&gt;Node0x5684c2ea7160</title>
<path fill="none" stroke="black" d="M2095.07,-169.49C2110.05,-160.08 2128.87,-148.26 2145.07,-138.07"/>
<polygon fill="black" stroke="black" points="2147.16,-140.9 2153.76,-132.61 2143.43,-134.97 2147.16,-140.9"/>
</g>
<!-- Node0x5684c2ea6c50 -->
<g id="node24" class="node">
<title>Node0x5684c2ea6c50</title>
<polygon fill="none" stroke="black" points="2247,-169.5 2247,-205.5 2471,-205.5 2471,-169.5 2247,-169.5"/>
<text text-anchor="middle" x="2359" y="-183.8" font-family="Times,serif" font-size="14.00">_ZN8CTiffImg9WriteLineEPh</text>
</g>
<!-- Node0x5684c2ea6c50&#45;&gt;Node0x5684c2ea7160 -->
<g id="edge24" class="edge">
<title>Node0x5684c2ea6c50&#45;&gt;Node0x5684c2ea7160</title>
<path fill="none" stroke="black" d="M2316.36,-169.49C2291.45,-159.56 2259.81,-146.93 2233.38,-136.39"/>
<polygon fill="black" stroke="black" points="2234.49,-133.07 2223.9,-132.61 2231.9,-139.57 2234.49,-133.07"/>
</g>
<!-- Node0x5684c2ea6a80 -->
<g id="node25" class="node">
<title>Node0x5684c2ea6a80</title>
<polygon fill="none" stroke="black" points="2290.5,-96.5 2290.5,-132.5 2477.5,-132.5 2477.5,-96.5 2290.5,-96.5"/>
<text text-anchor="middle" x="2384" y="-110.8" font-family="Times,serif" font-size="14.00">TIFFWriteEncodedStrip</text>
</g>
<!-- Node0x5684c2ea6c50&#45;&gt;Node0x5684c2ea6a80 -->
<g id="edge25" class="edge">
<title>Node0x5684c2ea6c50&#45;&gt;Node0x5684c2ea6a80</title>
<path fill="none" stroke="black" d="M2365.05,-169.31C2367.94,-161.12 2371.46,-151.12 2374.67,-141.98"/>
<polygon fill="black" stroke="black" points="2377.98,-143.12 2378,-132.53 2371.38,-140.8 2377.98,-143.12"/>
</g>
<!-- Node0x5684c2ea6870 -->
<g id="node26" class="node">
<title>Node0x5684c2ea6870</title>
<polygon fill="none" stroke="black" points="2489,-169.5 2489,-205.5 2699,-205.5 2699,-169.5 2489,-169.5"/>
<text text-anchor="middle" x="2594" y="-183.8" font-family="Times,serif" font-size="14.00">_ZN8CTiffImg8GetPhotoEv</text>
</g>
<!-- Node0x5684c2e9c9c0 -->
<g id="node27" class="node">
<title>Node0x5684c2e9c9c0</title>
<polygon fill="none" stroke="black" points="1275.5,-169.5 1275.5,-205.5 1556.5,-205.5 1556.5,-169.5 1275.5,-169.5"/>
<text text-anchor="middle" x="1416" y="-183.8" font-family="Times,serif" font-size="14.00">_ZN8CTiffImg13GetIccProfileERPhRj</text>
</g>
<!-- Node0x5684c2e9c9c0&#45;&gt;Node0x5684c2ea3aa0 -->
<g id="edge26" class="edge">
<title>Node0x5684c2e9c9c0&#45;&gt;Node0x5684c2ea3aa0</title>
<path fill="none" stroke="black" d="M1396.88,-169.31C1386.88,-160.33 1374.49,-149.19 1363.58,-139.39"/>
<polygon fill="black" stroke="black" points="1365.72,-136.61 1355.95,-132.53 1361.05,-141.82 1365.72,-136.61"/>
</g>
<!-- Node0x5684c2ea9b40 -->
<g id="node28" class="node">
<title>Node0x5684c2ea9b40</title>
<polygon fill="none" stroke="black" points="999,-169.5 999,-205.5 1257,-205.5 1257,-169.5 999,-169.5"/>
<text text-anchor="middle" x="1128" y="-183.8" font-family="Times,serif" font-size="14.00">_ZN8CTiffImg13SetIccProfileEPhj</text>
</g>
<!-- Node0x5684c2ea9b40&#45;&gt;Node0x5684c2ea1930 -->
<g id="edge27" class="edge">
<title>Node0x5684c2ea9b40&#45;&gt;Node0x5684c2ea1930</title>
<path fill="none" stroke="black" d="M1126.06,-169.31C1125.16,-161.29 1124.06,-151.55 1123.05,-142.57"/>
<polygon fill="black" stroke="black" points="1126.52,-142.07 1121.92,-132.53 1119.56,-142.86 1126.52,-142.07"/>
</g>
</g>
</svg>
