<?xml version="1.0" encoding="UTF-8" standalone="no"?>
<!DOCTYPE svg PUBLIC "-//W3C//DTD SVG 1.1//EN"
 "http://www.w3.org/Graphics/SVG/1.1/DTD/svg11.dtd">
<!-- Generated by graphviz version 2.43.0 (0)
 -->
<!-- Title: Call graph: /home/h02332/po/research/call&#45;graph/iccdev/tools/TiffImg.ll Pages: 1 -->
<svg width="1285pt" height="14400pt"
 viewBox="0.00 0.00 1284.84 14400.00" xmlns="http://www.w3.org/2000/svg" xmlns:xlink="http://www.w3.org/1999/xlink">
<g id="graph0" class="graph" transform="scale(1.96 1.96) rotate(0) translate(36 7305)">
<title>Call graph: /home/h02332/po/research/call&#45;graph/iccdev/tools/TiffImg.ll</title>
<polygon fill="white" stroke="transparent" points="-36,36 -36,-7305 619,-7305 619,36 -36,36"/>
<!-- Node0x5684c2e8f640 -->
<g id="node1" class="node">
<title>Node0x5684c2e8f640</title>
<path fill="#f0f4ff" stroke="black" d="M131,-36C131,-36 25,-36 25,-36 19,-36 13,-30 13,-24 13,-24 13,-12 13,-12 13,-6 19,0 25,0 25,0 131,0 131,0 137,0 143,-6 143,-12 143,-12 143,-24 143,-24 143,-30 137,-36 131,-36"/>
<text text-anchor="middle" x="78" y="-15.8" font-family="Courier,monospace" font-size="9.00">{CTiffImg::CTiffImg()}</text>
</g>
<!-- Node0x5684c2dc83e0 -->
<g id="node2" class="node">
<title>Node0x5684c2dc83e0</title>
<path fill="#f0f4ff" stroke="black" d="M133.5,-3872C133.5,-3872 22.5,-3872 22.5,-3872 16.5,-3872 10.5,-3866 10.5,-3860 10.5,-3860 10.5,-3848 10.5,-3848 10.5,-3842 16.5,-3836 22.5,-3836 22.5,-3836 133.5,-3836 133.5,-3836 139.5,-3836 145.5,-3842 145.5,-3848 145.5,-3848 145.5,-3860 145.5,-3860 145.5,-3866 139.5,-3872 133.5,-3872"/>
<text text-anchor="middle" x="78" y="-3851.8" font-family="Courier,monospace" font-size="9.00">{CTiffImg::~CTiffImg()}</text>
</g>
<!-- Node0x5684c2e88de0 -->
<g id="node3" class="node">
<title>Node0x5684c2e88de0</title>
<path fill="#f0f4ff" stroke="black" d="M357.5,-3856C357.5,-3856 267.5,-3856 267.5,-3856 261.5,-3856 255.5,-3850 255.5,-3844 255.5,-3844 255.5,-3832 255.5,-3832 255.5,-3826 261.5,-3820 267.5,-3820 267.5,-3820 357.5,-3820 357.5,-3820 363.5,-3820 369.5,-3826 369.5,-3832 369.5,-3832 369.5,-3844 369.5,-3844 369.5,-3850 363.5,-3856 357.5,-3856"/>
<text text-anchor="middle" x="312.5" y="-3835.8" font-family="Courier,monospace" font-size="9.00">{CTiffImg::Close()}</text>
</g>
<!-- Node0x5684c2dc83e0&#45;&gt;Node0x5684c2e88de0 -->
<g id="edge1" class="edge">
<title>Node0x5684c2dc83e0&#45;&gt;Node0x5684c2e88de0</title>
<path fill="none" stroke="#4a6fa5" d="M145.63,-3849.42C177.94,-3847.19 216.54,-3844.53 248.38,-3842.34"/>
<polygon fill="#4a6fa5" stroke="#4a6fa5" points="248.66,-3844.78 255.48,-3841.86 248.33,-3839.89 248.66,-3844.78"/>
</g>
<!-- Node0x5684c2e90b60 -->
<g id="node4" class="node">
<title>Node0x5684c2e90b60</title>
<path fill="#f0f4ff" stroke="black" d="M371,-4045C371,-4045 254,-4045 254,-4045 248,-4045 242,-4039 242,-4033 242,-4033 242,-4021 242,-4021 242,-4015 248,-4009 254,-4009 254,-4009 371,-4009 371,-4009 377,-4009 383,-4015 383,-4021 383,-4021 383,-4033 383,-4033 383,-4039 377,-4045 371,-4045"/>
<text text-anchor="middle" x="312.5" y="-4024.8" font-family="Courier,monospace" font-size="9.00">{__clang_call_terminate}</text>
</g>
<!-- Node0x5684c2dc83e0&#45;&gt;Node0x5684c2e90b60 -->
<g id="edge2" class="edge">
<title>Node0x5684c2dc83e0&#45;&gt;Node0x5684c2e90b60</title>
<path fill="none" stroke="#4a6fa5" d="M99.25,-3872.34C129.27,-3899.1 187.86,-3949.7 242,-3987 251.22,-3993.35 261.5,-3999.66 271.27,-4005.32"/>
<polygon fill="#4a6fa5" stroke="#4a6fa5" points="270.3,-4007.59 277.6,-4008.94 272.74,-4003.34 270.3,-4007.59"/>
</g>
<!-- Node0x5684c2e9e3d0 -->
<g id="node5" class="node">
<title>Node0x5684c2e9e3d0</title>
<path fill="#f0f4ff" stroke="black" d="M550,-3856C550,-3856 502,-3856 502,-3856 496,-3856 490,-3850 490,-3844 490,-3844 490,-3832 490,-3832 490,-3826 496,-3820 502,-3820 502,-3820 550,-3820 550,-3820 556,-3820 562,-3826 562,-3832 562,-3832 562,-3844 562,-3844 562,-3850 556,-3856 550,-3856"/>
<text text-anchor="middle" x="526" y="-3835.8" font-family="Courier,monospace" font-size="9.00">{TIFFClose}</text>
</g>
<!-- Node0x5684c2e88de0&#45;&gt;Node0x5684c2e9e3d0 -->
<g id="edge3" class="edge">
<title>Node0x5684c2e88de0&#45;&gt;Node0x5684c2e9e3d0</title>
<path fill="none" stroke="#4a6fa5" d="M369.62,-3838C405.12,-3838 450.27,-3838 482.74,-3838"/>
<polygon fill="#4a6fa5" stroke="#4a6fa5" points="482.87,-3840.45 489.87,-3838 482.87,-3835.55 482.87,-3840.45"/>
</g>
<!-- Node0x5684c2e91d40 -->
<g id="node6" class="node">
<title>Node0x5684c2e91d40</title>
<path fill="#f0f4ff" stroke="black" d="M541,-3950C541,-3950 511,-3950 511,-3950 505,-3950 499,-3944 499,-3938 499,-3938 499,-3926 499,-3926 499,-3920 505,-3914 511,-3914 511,-3914 541,-3914 541,-3914 547,-3914 553,-3920 553,-3926 553,-3926 553,-3938 553,-3938 553,-3944 547,-3950 541,-3950"/>
<text text-anchor="middle" x="526" y="-3929.8" font-family="Courier,monospace" font-size="9.00">{free}</text>
</g>
<!-- Node0x5684c2e88de0&#45;&gt;Node0x5684c2e91d40 -->
<g id="edge4" class="edge">
<title>Node0x5684c2e88de0&#45;&gt;Node0x5684c2e91d40</title>
<path fill="none" stroke="#4a6fa5" d="M354.28,-3856.12C394.4,-3873.95 454.88,-3900.84 492.05,-3917.35"/>
<polygon fill="#4a6fa5" stroke="#4a6fa5" points="491.32,-3919.71 498.71,-3920.31 493.31,-3915.23 491.32,-3919.71"/>
</g>
<!-- Node0x5684c2e9e780 -->
<g id="node8" class="node">
<title>Node0x5684c2e9e780</title>
<path fill="#f0f4ff" stroke="black" d="M571,-4095C571,-4095 481,-4095 481,-4095 475,-4095 469,-4089 469,-4083 469,-4083 469,-4071 469,-4071 469,-4065 475,-4059 481,-4059 481,-4059 571,-4059 571,-4059 577,-4059 583,-4065 583,-4071 583,-4071 583,-4083 583,-4083 583,-4089 577,-4095 571,-4095"/>
<text text-anchor="middle" x="526" y="-4074.8" font-family="Courier,monospace" font-size="9.00">{__cxa_begin_catch}</text>
</g>
<!-- Node0x5684c2e90b60&#45;&gt;Node0x5684c2e9e780 -->
<g id="edge5" class="edge">
<title>Node0x5684c2e90b60&#45;&gt;Node0x5684c2e9e780</title>
<path fill="none" stroke="#4a6fa5" d="M383.05,-4043.44C408.47,-4049.45 437.06,-4056.21 461.89,-4062.08"/>
<polygon fill="#4a6fa5" stroke="#4a6fa5" points="461.42,-4064.49 468.79,-4063.71 462.54,-4059.72 461.42,-4064.49"/>
</g>
<!-- Node0x5684c2ea0030 -->
<g id="node9" class="node">
<title>Node0x5684c2ea0030</title>
<path fill="#f0f4ff" stroke="black" d="M568.5,-4030C568.5,-4030 483.5,-4030 483.5,-4030 477.5,-4030 471.5,-4024 471.5,-4018 471.5,-4018 471.5,-4006 471.5,-4006 471.5,-4000 477.5,-3994 483.5,-3994 483.5,-3994 568.5,-3994 568.5,-3994 574.5,-3994 580.5,-4000 580.5,-4006 580.5,-4006 580.5,-4018 580.5,-4018 580.5,-4024 574.5,-4030 568.5,-4030"/>
<text text-anchor="middle" x="526" y="-4009.8" font-family="Courier,monospace" font-size="9.00">{std::terminate()}</text>
</g>
<!-- Node0x5684c2e90b60&#45;&gt;Node0x5684c2ea0030 -->
<g id="edge6" class="edge">
<title>Node0x5684c2e90b60&#45;&gt;Node0x5684c2ea0030</title>
<path fill="none" stroke="#4a6fa5" d="M383.05,-4022.07C409.24,-4020.21 438.8,-4018.11 464.14,-4016.32"/>
<polygon fill="#4a6fa5" stroke="#4a6fa5" points="464.36,-4018.76 471.17,-4015.82 464.01,-4013.87 464.36,-4018.76"/>
</g>
<!-- Node0x5684c2dbb0c0 -->
<g id="node7" class="node">
<title>Node0x5684c2dbb0c0</title>
<path fill="#f0f4ff" stroke="black" d="M131,-4816C131,-4816 25,-4816 25,-4816 19,-4816 13,-4810 13,-4804 13,-4804 13,-4792 13,-4792 13,-4786 19,-4780 25,-4780 25,-4780 131,-4780 131,-4780 137,-4780 143,-4786 143,-4792 143,-4792 143,-4804 143,-4804 143,-4810 137,-4816 131,-4816"/>
<text text-anchor="middle" x="78" y="-4795.8" font-family="Courier,monospace" font-size="9.00">{__gxx_personality_v0}</text>
</g>
<!-- Node0x5684c2e9ffb0 -->
<g id="node10" class="node">
<title>Node0x5684c2e9ffb0</title>
<path fill="#f0f4ff" stroke="black" d="M133.5,-4943C133.5,-4943 22.5,-4943 22.5,-4943 16.5,-4943 10.5,-4937 10.5,-4931 10.5,-4931 10.5,-4919 10.5,-4919 10.5,-4913 16.5,-4907 22.5,-4907 22.5,-4907 133.5,-4907 133.5,-4907 139.5,-4907 145.5,-4913 145.5,-4919 145.5,-4919 145.5,-4931 145.5,-4931 145.5,-4937 139.5,-4943 133.5,-4943"/>
<text text-anchor="middle" x="78" y="-4922.8" font-family="Courier,monospace" font-size="9.00">{CTiffImg::~CTiffImg()}</text>
</g>
<!-- Node0x5684c2e9ed60 -->
<g id="node11" class="node">
<title>Node0x5684c2e9ed60</title>
<path fill="#f0f4ff" stroke="black" d="M334,-4943C334,-4943 291,-4943 291,-4943 285,-4943 279,-4937 279,-4931 279,-4931 279,-4919 279,-4919 279,-4913 285,-4907 291,-4907 291,-4907 334,-4907 334,-4907 340,-4907 346,-4913 346,-4919 346,-4919 346,-4931 346,-4931 346,-4937 340,-4943 334,-4943"/>
<text text-anchor="middle" x="312.5" y="-4922.8" font-family="Courier,monospace" font-size="9.00">{delete()}</text>
</g>
<!-- Node0x5684c2e9ffb0&#45;&gt;Node0x5684c2e9ed60 -->
<g id="edge7" class="edge">
<title>Node0x5684c2e9ffb0&#45;&gt;Node0x5684c2e9ed60</title>
<path fill="none" stroke="#4a6fa5" d="M145.63,-4925C186.34,-4925 237.05,-4925 271.61,-4925"/>
<polygon fill="#4a6fa5" stroke="#4a6fa5" points="271.73,-4927.45 278.73,-4925 271.73,-4922.55 271.73,-4927.45"/>
</g>
<!-- Node0x5684c2e9f3a0 -->
<g id="node12" class="node">
<title>Node0x5684c2e9f3a0</title>
<path fill="#f0f4ff" stroke="black" d="M126,-3775C126,-3775 30,-3775 30,-3775 24,-3775 18,-3769 18,-3763 18,-3763 18,-3751 18,-3751 18,-3745 24,-3739 30,-3739 30,-3739 126,-3739 126,-3739 132,-3739 138,-3745 138,-3751 138,-3751 138,-3763 138,-3763 138,-3769 132,-3775 126,-3775"/>
<text text-anchor="middle" x="78" y="-3754.8" font-family="Courier,monospace" font-size="9.00">{CTiffImg::Create()}</text>
</g>
<!-- Node0x5684c2e9f3a0&#45;&gt;Node0x5684c2e88de0 -->
<g id="edge8" class="edge">
<title>Node0x5684c2e9f3a0&#45;&gt;Node0x5684c2e88de0</title>
<path fill="none" stroke="#4a6fa5" d="M130.89,-3775.08C167.05,-3787.67 215.34,-3804.5 252.89,-3817.58"/>
<polygon fill="#4a6fa5" stroke="#4a6fa5" points="252.35,-3819.99 259.77,-3819.98 253.97,-3815.36 252.35,-3819.99"/>
</g>
<!-- Node0x5684c2e9f3a0&#45;&gt;Node0x5684c2e91d40 -->
<g id="edge14" class="edge">
<title>Node0x5684c2e9f3a0&#45;&gt;Node0x5684c2e91d40</title>
<path fill="none" stroke="#4a6fa5" d="M103.11,-3775.07C118.93,-3787.46 139.64,-3804.72 156,-3822 199.63,-3868.09 185.19,-3907.7 242,-3936 323.87,-3976.79 436.3,-3956.15 491.57,-3941.84"/>
<polygon fill="#4a6fa5" stroke="#4a6fa5" points="492.52,-3944.12 498.66,-3939.96 491.27,-3939.39 492.52,-3944.12"/>
</g>
<!-- Node0x5684c2ea14e0 -->
<g id="node13" class="node">
<title>Node0x5684c2ea14e0</title>
<path fill="#f0f4ff" stroke="black" d="M334,-3791C334,-3791 291,-3791 291,-3791 285,-3791 279,-3785 279,-3779 279,-3779 279,-3767 279,-3767 279,-3761 285,-3755 291,-3755 291,-3755 334,-3755 334,-3755 340,-3755 346,-3761 346,-3767 346,-3767 346,-3779 346,-3779 346,-3785 340,-3791 334,-3791"/>
<text text-anchor="middle" x="312.5" y="-3770.8" font-family="Courier,monospace" font-size="9.00">{TIFFOpen}</text>
</g>
<!-- Node0x5684c2e9f3a0&#45;&gt;Node0x5684c2ea14e0 -->
<g id="edge9" class="edge">
<title>Node0x5684c2e9f3a0&#45;&gt;Node0x5684c2ea14e0</title>
<path fill="none" stroke="#4a6fa5" d="M138.27,-3761.08C180.15,-3763.96 235.13,-3767.74 271.8,-3770.27"/>
<polygon fill="#4a6fa5" stroke="#4a6fa5" points="271.73,-3772.72 278.88,-3770.76 272.07,-3767.83 271.73,-3772.72"/>
</g>
<!-- Node0x5684c2ea1b90 -->
<g id="node14" class="node">
<title>Node0x5684c2ea1b90</title>
<path fill="#f0f4ff" stroke="black" d="M336.5,-3726C336.5,-3726 288.5,-3726 288.5,-3726 282.5,-3726 276.5,-3720 276.5,-3714 276.5,-3714 276.5,-3702 276.5,-3702 276.5,-3696 282.5,-3690 288.5,-3690 288.5,-3690 336.5,-3690 336.5,-3690 342.5,-3690 348.5,-3696 348.5,-3702 348.5,-3702 348.5,-3714 348.5,-3714 348.5,-3720 342.5,-3726 336.5,-3726"/>
<text text-anchor="middle" x="312.5" y="-3705.8" font-family="Courier,monospace" font-size="9.00">{TIFFError}</text>
</g>
<!-- Node0x5684c2e9f3a0&#45;&gt;Node0x5684c2ea1b90 -->
<g id="edge10" class="edge">
<title>Node0x5684c2e9f3a0&#45;&gt;Node0x5684c2ea1b90</title>
<path fill="none" stroke="#4a6fa5" d="M138.27,-3744.51C179.14,-3735.9 232.48,-3724.65 269.12,-3716.93"/>
<polygon fill="#4a6fa5" stroke="#4a6fa5" points="269.87,-3719.28 276.22,-3715.44 268.86,-3714.48 269.87,-3719.28"/>
</g>
<!-- Node0x5684c2ea1930 -->
<g id="node15" class="node">
<title>Node0x5684c2ea1930</title>
<path fill="#f0f4ff" stroke="black" d="M344.5,-3531C344.5,-3531 280.5,-3531 280.5,-3531 274.5,-3531 268.5,-3525 268.5,-3519 268.5,-3519 268.5,-3507 268.5,-3507 268.5,-3501 274.5,-3495 280.5,-3495 280.5,-3495 344.5,-3495 344.5,-3495 350.5,-3495 356.5,-3501 356.5,-3507 356.5,-3507 356.5,-3519 356.5,-3519 356.5,-3525 350.5,-3531 344.5,-3531"/>
<text text-anchor="middle" x="312.5" y="-3510.8" font-family="Courier,monospace" font-size="9.00">{TIFFSetField}</text>
</g>
<!-- Node0x5684c2e9f3a0&#45;&gt;Node0x5684c2ea1930 -->
<g id="edge11" class="edge">
<title>Node0x5684c2e9f3a0&#45;&gt;Node0x5684c2ea1930</title>
<path fill="none" stroke="#4a6fa5" d="M109.57,-3738.77C124.78,-3728.67 142.71,-3715.11 156,-3700 207.78,-3641.14 184.77,-3599.57 242,-3546 247.82,-3540.55 254.71,-3535.85 261.85,-3531.84"/>
<polygon fill="#4a6fa5" stroke="#4a6fa5" points="263.41,-3533.78 268.46,-3528.35 261.12,-3529.45 263.41,-3533.78"/>
</g>
<!-- Node0x5684c2ea1ee0 -->
<g id="node16" class="node">
<title>Node0x5684c2ea1ee0</title>
<path fill="#f0f4ff" stroke="black" d="M347,-3661C347,-3661 278,-3661 278,-3661 272,-3661 266,-3655 266,-3649 266,-3649 266,-3637 266,-3637 266,-3631 272,-3625 278,-3625 278,-3625 347,-3625 347,-3625 353,-3625 359,-3631 359,-3637 359,-3637 359,-3649 359,-3649 359,-3655 353,-3661 347,-3661"/>
<text text-anchor="middle" x="312.5" y="-3640.8" font-family="Courier,monospace" font-size="9.00">{TIFFStripSize}</text>
</g>
<!-- Node0x5684c2e9f3a0&#45;&gt;Node0x5684c2ea1ee0 -->
<g id="edge12" class="edge">
<title>Node0x5684c2e9f3a0&#45;&gt;Node0x5684c2ea1ee0</title>
<path fill="none" stroke="#4a6fa5" d="M114.84,-3738.96C147.81,-3722.42 198.09,-3697.33 242,-3676 249.88,-3672.17 258.29,-3668.13 266.44,-3664.25"/>
<polygon fill="#4a6fa5" stroke="#4a6fa5" points="267.94,-3666.25 273.2,-3661.03 265.83,-3661.83 267.94,-3666.25"/>
</g>
<!-- Node0x5684c2ea4910 -->
<g id="node17" class="node">
<title>Node0x5684c2ea4910</title>
<path fill="#f0f4ff" stroke="black" d="M329,-3596C329,-3596 296,-3596 296,-3596 290,-3596 284,-3590 284,-3584 284,-3584 284,-3572 284,-3572 284,-3566 290,-3560 296,-3560 296,-3560 329,-3560 329,-3560 335,-3560 341,-3566 341,-3572 341,-3572 341,-3584 341,-3584 341,-3590 335,-3596 329,-3596"/>
<text text-anchor="middle" x="312.5" y="-3575.8" font-family="Courier,monospace" font-size="9.00">{malloc}</text>
</g>
<!-- Node0x5684c2e9f3a0&#45;&gt;Node0x5684c2ea4910 -->
<g id="edge13" class="edge">
<title>Node0x5684c2e9f3a0&#45;&gt;Node0x5684c2ea4910</title>
<path fill="none" stroke="#4a6fa5" d="M105.85,-3738.77C121.04,-3728.06 140.12,-3713.93 156,-3700 197.36,-3663.73 197.33,-3643.09 242,-3611 252.7,-3603.31 265.47,-3596.65 277.13,-3591.36"/>
<polygon fill="#4a6fa5" stroke="#4a6fa5" points="278.42,-3593.47 283.85,-3588.41 276.45,-3588.99 278.42,-3593.47"/>
</g>
<!-- Node0x5684c2ea1730 -->
<g id="node18" class="node">
<title>Node0x5684c2ea1730</title>
<path fill="#f0f4ff" stroke="black" d="M329,-3921C329,-3921 296,-3921 296,-3921 290,-3921 284,-3915 284,-3909 284,-3909 284,-3897 284,-3897 284,-3891 290,-3885 296,-3885 296,-3885 329,-3885 329,-3885 335,-3885 341,-3891 341,-3897 341,-3897 341,-3909 341,-3909 341,-3915 335,-3921 329,-3921"/>
<text text-anchor="middle" x="312.5" y="-3900.8" font-family="Courier,monospace" font-size="9.00">{calloc}</text>
</g>
<!-- Node0x5684c2e9f3a0&#45;&gt;Node0x5684c2ea1730 -->
<g id="edge15" class="edge">
<title>Node0x5684c2e9f3a0&#45;&gt;Node0x5684c2ea1730</title>
<path fill="none" stroke="#4a6fa5" d="M102.15,-3775.19C132.98,-3798.94 189.73,-3841.01 242,-3871 253.17,-3877.41 265.85,-3883.56 277.3,-3888.72"/>
<polygon fill="#4a6fa5" stroke="#4a6fa5" points="276.48,-3891.03 283.87,-3891.64 278.47,-3886.56 276.48,-3891.03"/>
</g>
<!-- Node0x5684c2e9f550 -->
<g id="node19" class="node">
<title>Node0x5684c2e9f550</title>
<path fill="#f0f4ff" stroke="black" d="M120.5,-3685C120.5,-3685 35.5,-3685 35.5,-3685 29.5,-3685 23.5,-3679 23.5,-3673 23.5,-3673 23.5,-3661 23.5,-3661 23.5,-3655 29.5,-3649 35.5,-3649 35.5,-3649 120.5,-3649 120.5,-3649 126.5,-3649 132.5,-3655 132.5,-3661 132.5,-3661 132.5,-3673 132.5,-3673 132.5,-3679 126.5,-3685 120.5,-3685"/>
<text text-anchor="middle" x="78" y="-3664.8" font-family="Courier,monospace" font-size="9.00">{CTiffImg::Open()}</text>
</g>
<!-- Node0x5684c2e9f550&#45;&gt;Node0x5684c2e88de0 -->
<g id="edge16" class="edge">
<title>Node0x5684c2e9f550&#45;&gt;Node0x5684c2e88de0</title>
<path fill="none" stroke="#4a6fa5" d="M104.51,-3685.13C119.77,-3696.24 139.37,-3710.98 156,-3725 196.14,-3758.85 198.47,-3776.64 242,-3806 247.7,-3809.84 253.93,-3813.44 260.25,-3816.74"/>
<polygon fill="#4a6fa5" stroke="#4a6fa5" points="259.23,-3818.97 266.59,-3819.93 261.44,-3814.59 259.23,-3818.97"/>
</g>
<!-- Node0x5684c2e9f550&#45;&gt;Node0x5684c2ea14e0 -->
<g id="edge17" class="edge">
<title>Node0x5684c2e9f550&#45;&gt;Node0x5684c2ea14e0</title>
<path fill="none" stroke="#4a6fa5" d="M118.7,-3685.1C161.63,-3704.67 229.64,-3735.68 272.35,-3755.15"/>
<polygon fill="#4a6fa5" stroke="#4a6fa5" points="271.34,-3757.38 278.72,-3758.06 273.37,-3752.92 271.34,-3757.38"/>
</g>
<!-- Node0x5684c2e9f550&#45;&gt;Node0x5684c2ea1b90 -->
<g id="edge18" class="edge">
<title>Node0x5684c2e9f550&#45;&gt;Node0x5684c2ea1b90</title>
<path fill="none" stroke="#4a6fa5" d="M132.63,-3676.46C174.17,-3683.78 230.91,-3693.79 269.25,-3700.55"/>
<polygon fill="#4a6fa5" stroke="#4a6fa5" points="268.87,-3702.97 276.19,-3701.77 269.72,-3698.15 268.87,-3702.97"/>
</g>
<!-- Node0x5684c2e9f550&#45;&gt;Node0x5684c2ea1ee0 -->
<g id="edge21" class="edge">
<title>Node0x5684c2e9f550&#45;&gt;Node0x5684c2ea1ee0</title>
<path fill="none" stroke="#4a6fa5" d="M132.63,-3661.46C170.48,-3657.56 220.94,-3652.35 258.61,-3648.46"/>
<polygon fill="#4a6fa5" stroke="#4a6fa5" points="259.26,-3650.86 265.97,-3647.7 258.76,-3645.98 259.26,-3650.86"/>
</g>
<!-- Node0x5684c2e9f550&#45;&gt;Node0x5684c2ea4910 -->
<g id="edge20" class="edge">
<title>Node0x5684c2e9f550&#45;&gt;Node0x5684c2ea4910</title>
<path fill="none" stroke="#4a6fa5" d="M126.05,-3648.99C170.83,-3631.85 237.15,-3606.46 277.16,-3591.15"/>
<polygon fill="#4a6fa5" stroke="#4a6fa5" points="278.16,-3593.38 283.83,-3588.59 276.41,-3588.81 278.16,-3593.38"/>
</g>
<!-- Node0x5684c2ea3aa0 -->
<g id="node20" class="node">
<title>Node0x5684c2ea3aa0</title>
<path fill="#f0f4ff" stroke="black" d="M344.5,-3466C344.5,-3466 280.5,-3466 280.5,-3466 274.5,-3466 268.5,-3460 268.5,-3454 268.5,-3454 268.5,-3442 268.5,-3442 268.5,-3436 274.5,-3430 280.5,-3430 280.5,-3430 344.5,-3430 344.5,-3430 350.5,-3430 356.5,-3436 356.5,-3442 356.5,-3442 356.5,-3454 356.5,-3454 356.5,-3460 350.5,-3466 344.5,-3466"/>
<text text-anchor="middle" x="312.5" y="-3445.8" font-family="Courier,monospace" font-size="9.00">{TIFFGetField}</text>
</g>
<!-- Node0x5684c2e9f550&#45;&gt;Node0x5684c2ea3aa0 -->
<g id="edge19" class="edge">
<title>Node0x5684c2e9f550&#45;&gt;Node0x5684c2ea3aa0</title>
<path fill="none" stroke="#4a6fa5" d="M90.98,-3648.95C115.59,-3612.98 175.21,-3531.49 242,-3481 248.12,-3476.38 254.99,-3472.16 261.97,-3468.42"/>
<polygon fill="#4a6fa5" stroke="#4a6fa5" points="263.29,-3470.49 268.39,-3465.1 261.04,-3466.14 263.29,-3470.49"/>
</g>
<!-- Node0x5684c2ea20b0 -->
<g id="node21" class="node">
<title>Node0x5684c2ea20b0</title>
<path fill="#f0f4ff" stroke="black" d="M131,-5538C131,-5538 25,-5538 25,-5538 19,-5538 13,-5532 13,-5526 13,-5526 13,-5514 13,-5514 13,-5508 19,-5502 25,-5502 25,-5502 131,-5502 131,-5502 137,-5502 143,-5508 143,-5514 143,-5514 143,-5526 143,-5526 143,-5532 137,-5538 131,-5538"/>
<text text-anchor="middle" x="78" y="-5517.8" font-family="Courier,monospace" font-size="9.00">{CTiffImg::ReadLine()}</text>
</g>
<!-- Node0x5684c2ea76f0 -->
<g id="node22" class="node">
<title>Node0x5684c2ea76f0</title>
<path fill="#f0f4ff" stroke="black" d="M365.5,-5555C365.5,-5555 259.5,-5555 259.5,-5555 253.5,-5555 247.5,-5549 247.5,-5543 247.5,-5543 247.5,-5531 247.5,-5531 247.5,-5525 253.5,-5519 259.5,-5519 259.5,-5519 365.5,-5519 365.5,-5519 371.5,-5519 377.5,-5525 377.5,-5531 377.5,-5531 377.5,-5543 377.5,-5543 377.5,-5549 371.5,-5555 365.5,-5555"/>
<text text-anchor="middle" x="312.5" y="-5534.8" font-family="Courier,monospace" font-size="9.00">{TIFFReadEncodedStrip}</text>
</g>
<!-- Node0x5684c2ea20b0&#45;&gt;Node0x5684c2ea76f0 -->
<g id="edge22" class="edge">
<title>Node0x5684c2ea20b0&#45;&gt;Node0x5684c2ea76f0</title>
<path fill="none" stroke="#4a6fa5" d="M143.15,-5524.69C173.14,-5526.88 208.96,-5529.5 239.83,-5531.76"/>
<polygon fill="#4a6fa5" stroke="#4a6fa5" points="240,-5534.23 247.16,-5532.3 240.36,-5529.34 240,-5534.23"/>
</g>
<!-- Node0x5684c2ea7160 -->
<g id="node23" class="node">
<title>Node0x5684c2ea7160</title>
<path fill="#f0f4ff" stroke="black" d="M368,-5490C368,-5490 257,-5490 257,-5490 251,-5490 245,-5484 245,-5478 245,-5478 245,-5466 245,-5466 245,-5460 251,-5454 257,-5454 257,-5454 368,-5454 368,-5454 374,-5454 380,-5460 380,-5466 380,-5466 380,-5478 380,-5478 380,-5484 374,-5490 368,-5490"/>
<text text-anchor="middle" x="312.5" y="-5469.8" font-family="Courier,monospace" font-size="9.00">{llvm.memcpy.p0.p0.i64}</text>
</g>
<!-- Node0x5684c2ea20b0&#45;&gt;Node0x5684c2ea7160 -->
<g id="edge23" class="edge">
<title>Node0x5684c2ea20b0&#45;&gt;Node0x5684c2ea7160</title>
<path fill="none" stroke="#4a6fa5" d="M143.15,-5506.76C172.39,-5500.72 207.18,-5493.54 237.52,-5487.27"/>
<polygon fill="#4a6fa5" stroke="#4a6fa5" points="238.37,-5489.6 244.73,-5485.79 237.37,-5484.8 238.37,-5489.6"/>
</g>
<!-- Node0x5684c2ea6c50 -->
<g id="node24" class="node">
<title>Node0x5684c2ea6c50</title>
<path fill="#f0f4ff" stroke="black" d="M133.5,-5441C133.5,-5441 22.5,-5441 22.5,-5441 16.5,-5441 10.5,-5435 10.5,-5429 10.5,-5429 10.5,-5417 10.5,-5417 10.5,-5411 16.5,-5405 22.5,-5405 22.5,-5405 133.5,-5405 133.5,-5405 139.5,-5405 145.5,-5411 145.5,-5417 145.5,-5417 145.5,-5429 145.5,-5429 145.5,-5435 139.5,-5441 133.5,-5441"/>
<text text-anchor="middle" x="78" y="-5420.8" font-family="Courier,monospace" font-size="9.00">{CTiffImg::WriteLine()}</text>
</g>
<!-- Node0x5684c2ea6c50&#45;&gt;Node0x5684c2ea7160 -->
<g id="edge24" class="edge">
<title>Node0x5684c2ea6c50&#45;&gt;Node0x5684c2ea7160</title>
<path fill="none" stroke="#4a6fa5" d="M145.63,-5437.04C174.45,-5443.12 208.28,-5450.25 237.84,-5456.48"/>
<polygon fill="#4a6fa5" stroke="#4a6fa5" points="237.51,-5458.91 244.87,-5457.96 238.52,-5454.12 237.51,-5458.91"/>
</g>
<!-- Node0x5684c2ea6a80 -->
<g id="node25" class="node">
<title>Node0x5684c2ea6a80</title>
<path fill="#f0f4ff" stroke="black" d="M368,-5425C368,-5425 257,-5425 257,-5425 251,-5425 245,-5419 245,-5413 245,-5413 245,-5401 245,-5401 245,-5395 251,-5389 257,-5389 257,-5389 368,-5389 368,-5389 374,-5389 380,-5395 380,-5401 380,-5401 380,-5413 380,-5413 380,-5419 374,-5425 368,-5425"/>
<text text-anchor="middle" x="312.5" y="-5404.8" font-family="Courier,monospace" font-size="9.00">{TIFFWriteEncodedStrip}</text>
</g>
<!-- Node0x5684c2ea6c50&#45;&gt;Node0x5684c2ea6a80 -->
<g id="edge25" class="edge">
<title>Node0x5684c2ea6c50&#45;&gt;Node0x5684c2ea6a80</title>
<path fill="none" stroke="#4a6fa5" d="M145.63,-5418.42C174.45,-5416.43 208.28,-5414.1 237.84,-5412.07"/>
<polygon fill="#4a6fa5" stroke="#4a6fa5" points="238.05,-5414.51 244.87,-5411.59 237.71,-5409.62 238.05,-5414.51"/>
</g>
<!-- Node0x5684c2ea6870 -->
<g id="node26" class="node">
<title>Node0x5684c2ea6870</title>
<path fill="#f0f4ff" stroke="black" d="M131,-7269C131,-7269 25,-7269 25,-7269 19,-7269 13,-7263 13,-7257 13,-7257 13,-7245 13,-7245 13,-7239 19,-7233 25,-7233 25,-7233 131,-7233 131,-7233 137,-7233 143,-7239 143,-7245 143,-7245 143,-7257 143,-7257 143,-7263 137,-7269 131,-7269"/>
<text text-anchor="middle" x="78" y="-7248.8" font-family="Courier,monospace" font-size="9.00">{CTiffImg::GetPhoto()}</text>
</g>
<!-- Node0x5684c2e9c9c0 -->
<g id="node27" class="node">
<title>Node0x5684c2e9c9c0</title>
<path fill="#f0f4ff" stroke="black" d="M144,-3466C144,-3466 12,-3466 12,-3466 6,-3466 0,-3460 0,-3454 0,-3454 0,-3442 0,-3442 0,-3436 6,-3430 12,-3430 12,-3430 144,-3430 144,-3430 150,-3430 156,-3436 156,-3442 156,-3442 156,-3454 156,-3454 156,-3460 150,-3466 144,-3466"/>
<text text-anchor="middle" x="78" y="-3445.8" font-family="Courier,monospace" font-size="9.00">{CTiffImg::GetIccProfile()}</text>
</g>
<!-- Node0x5684c2e9c9c0&#45;&gt;Node0x5684c2ea3aa0 -->
<g id="edge26" class="edge">
<title>Node0x5684c2e9c9c0&#45;&gt;Node0x5684c2ea3aa0</title>
<path fill="none" stroke="#4a6fa5" d="M156.1,-3448C190.73,-3448 230.61,-3448 261.3,-3448"/>
<polygon fill="#4a6fa5" stroke="#4a6fa5" points="261.5,-3450.45 268.5,-3448 261.5,-3445.55 261.5,-3450.45"/>
</g>
<!-- Node0x5684c2ea9b40 -->
<g id="node28" class="node">
<title>Node0x5684c2ea9b40</title>
<path fill="#f0f4ff" stroke="black" d="M144,-3531C144,-3531 12,-3531 12,-3531 6,-3531 0,-3525 0,-3519 0,-3519 0,-3507 0,-3507 0,-3501 6,-3495 12,-3495 12,-3495 144,-3495 144,-3495 150,-3495 156,-3501 156,-3507 156,-3507 156,-3519 156,-3519 156,-3525 150,-3531 144,-3531"/>
<text text-anchor="middle" x="78" y="-3510.8" font-family="Courier,monospace" font-size="9.00">{CTiffImg::SetIccProfile()}</text>
</g>
<!-- Node0x5684c2ea9b40&#45;&gt;Node0x5684c2ea1930 -->
<g id="edge27" class="edge">
<title>Node0x5684c2ea9b40&#45;&gt;Node0x5684c2ea1930</title>
<path fill="none" stroke="#4a6fa5" d="M156.1,-3513C190.73,-3513 230.61,-3513 261.3,-3513"/>
<polygon fill="#4a6fa5" stroke="#4a6fa5" points="261.5,-3515.45 268.5,-3513 261.5,-3510.55 261.5,-3515.45"/>
</g>
</g>
</svg>
