<?xml version="1.0" encoding="UTF-8" standalone="no"?>
<!DOCTYPE svg PUBLIC "-//W3C//DTD SVG 1.1//EN"
 "http://www.w3.org/Graphics/SVG/1.1/DTD/svg11.dtd">
<!-- Generated by graphviz version 2.43.0 (0)
 -->
<!-- Title: Call graph: /home/h02332/po/research/call&#45;graph/iccdev/tools/TiffImg.ll Pages: 1 -->
<svg width="347pt" height="601pt"
 viewBox="0.00 0.00 347.20 601.20" xmlns="http://www.w3.org/2000/svg" xmlns:xlink="http://www.w3.org/1999/xlink">
<g id="graph0" class="graph" transform="scale(1 1) rotate(0) translate(21.6 579.6)">
<title>Call graph: /home/h02332/po/research/call&#45;graph/iccdev/tools/TiffImg.ll</title>
<polygon fill="white" stroke="transparent" points="-21.6,21.6 -21.6,-579.6 325.6,-579.6 325.6,21.6 -21.6,21.6"/>
<!-- Node0x5dae3477b1b0 -->
<g id="node1" class="node">
<title>Node0x5dae3477b1b0</title>
<path fill="#f0f4ff" stroke="black" d="M119,-36C119,-36 25,-36 25,-36 19,-36 13,-30 13,-24 13,-24 13,-12 13,-12 13,-6 19,0 25,0 25,0 119,0 119,0 125,0 131,-6 131,-12 131,-12 131,-24 131,-24 131,-30 125,-36 119,-36"/>
<text text-anchor="middle" x="72" y="-15.8" font-family="Courier,monospace" font-size="9.00">CTiffImg::CTiffImg()</text>
</g>
<!-- Node0x5dae347751c0 -->
<g id="node2" class="node">
<title>Node0x5dae347751c0</title>
<path fill="#f0f4ff" stroke="black" d="M121.5,-210C121.5,-210 22.5,-210 22.5,-210 16.5,-210 10.5,-204 10.5,-198 10.5,-198 10.5,-186 10.5,-186 10.5,-180 16.5,-174 22.5,-174 22.5,-174 121.5,-174 121.5,-174 127.5,-174 133.5,-180 133.5,-186 133.5,-186 133.5,-198 133.5,-198 133.5,-204 127.5,-210 121.5,-210"/>
<text text-anchor="middle" x="72" y="-189.8" font-family="Courier,monospace" font-size="9.00">CTiffImg::~CTiffImg()</text>
</g>
<!-- Node0x5dae34781270 -->
<g id="node3" class="node">
<title>Node0x5dae34781270</title>
<path fill="#f0f4ff" stroke="black" d="M292,-152C292,-152 214,-152 214,-152 208,-152 202,-146 202,-140 202,-140 202,-128 202,-128 202,-122 208,-116 214,-116 214,-116 292,-116 292,-116 298,-116 304,-122 304,-128 304,-128 304,-140 304,-140 304,-146 298,-152 292,-152"/>
<text text-anchor="middle" x="253" y="-131.8" font-family="Courier,monospace" font-size="9.00">CTiffImg::Close()</text>
</g>
<!-- Node0x5dae347751c0&#45;&gt;Node0x5dae34781270 -->
<g id="edge1" class="edge">
<title>Node0x5dae347751c0&#45;&gt;Node0x5dae34781270</title>
<path fill="none" stroke="#4a6fa5" d="M128.66,-173.97C150.04,-167.04 174.46,-159.13 195.89,-152.18"/>
<polygon fill="#4a6fa5" stroke="#4a6fa5" points="196.79,-154.1 201.85,-150.25 195.49,-150.1 196.79,-154.1"/>
</g>
<!-- Node0x5dae34796d30 -->
<g id="node4" class="node">
<title>Node0x5dae34796d30</title>
<path fill="#f0f4ff" stroke="black" d="M121.5,-268C121.5,-268 22.5,-268 22.5,-268 16.5,-268 10.5,-262 10.5,-256 10.5,-256 10.5,-244 10.5,-244 10.5,-238 16.5,-232 22.5,-232 22.5,-232 121.5,-232 121.5,-232 127.5,-232 133.5,-238 133.5,-244 133.5,-244 133.5,-256 133.5,-256 133.5,-262 127.5,-268 121.5,-268"/>
<text text-anchor="middle" x="72" y="-247.8" font-family="Courier,monospace" font-size="9.00">CTiffImg::~CTiffImg()</text>
</g>
<!-- Node0x5dae3478a8e0 -->
<g id="node5" class="node">
<title>Node0x5dae3478a8e0</title>
<path fill="#f0f4ff" stroke="black" d="M113.5,-152C113.5,-152 30.5,-152 30.5,-152 24.5,-152 18.5,-146 18.5,-140 18.5,-140 18.5,-128 18.5,-128 18.5,-122 24.5,-116 30.5,-116 30.5,-116 113.5,-116 113.5,-116 119.5,-116 125.5,-122 125.5,-128 125.5,-128 125.5,-140 125.5,-140 125.5,-146 119.5,-152 113.5,-152"/>
<text text-anchor="middle" x="72" y="-131.8" font-family="Courier,monospace" font-size="9.00">CTiffImg::Create()</text>
</g>
<!-- Node0x5dae3478a8e0&#45;&gt;Node0x5dae34781270 -->
<g id="edge2" class="edge">
<title>Node0x5dae3478a8e0&#45;&gt;Node0x5dae34781270</title>
<path fill="none" stroke="#4a6fa5" d="M125.74,-134C147.7,-134 173.24,-134 195.58,-134"/>
<polygon fill="#4a6fa5" stroke="#4a6fa5" points="195.79,-136.1 201.79,-134 195.79,-131.9 195.79,-136.1"/>
</g>
<!-- Node0x5dae3479a660 -->
<g id="node6" class="node">
<title>Node0x5dae3479a660</title>
<path fill="#f0f4ff" stroke="black" d="M108.5,-94C108.5,-94 35.5,-94 35.5,-94 29.5,-94 23.5,-88 23.5,-82 23.5,-82 23.5,-70 23.5,-70 23.5,-64 29.5,-58 35.5,-58 35.5,-58 108.5,-58 108.5,-58 114.5,-58 120.5,-64 120.5,-70 120.5,-70 120.5,-82 120.5,-82 120.5,-88 114.5,-94 108.5,-94"/>
<text text-anchor="middle" x="72" y="-73.8" font-family="Courier,monospace" font-size="9.00">CTiffImg::Open()</text>
</g>
<!-- Node0x5dae3479a660&#45;&gt;Node0x5dae34781270 -->
<g id="edge3" class="edge">
<title>Node0x5dae3479a660&#45;&gt;Node0x5dae34781270</title>
<path fill="none" stroke="#4a6fa5" d="M120.97,-91.54C144.07,-99.03 171.92,-108.05 196,-115.85"/>
<polygon fill="#4a6fa5" stroke="#4a6fa5" points="195.35,-117.85 201.71,-117.7 196.65,-113.86 195.35,-117.85"/>
</g>
<!-- Node0x5dae3479f200 -->
<g id="node7" class="node">
<title>Node0x5dae3479f200</title>
<path fill="#f0f4ff" stroke="black" d="M119,-326C119,-326 25,-326 25,-326 19,-326 13,-320 13,-314 13,-314 13,-302 13,-302 13,-296 19,-290 25,-290 25,-290 119,-290 119,-290 125,-290 131,-296 131,-302 131,-302 131,-314 131,-314 131,-320 125,-326 119,-326"/>
<text text-anchor="middle" x="72" y="-305.8" font-family="Courier,monospace" font-size="9.00">CTiffImg::ReadLine()</text>
</g>
<!-- Node0x5dae3479ec40 -->
<g id="node8" class="node">
<title>Node0x5dae3479ec40</title>
<path fill="#f0f4ff" stroke="black" d="M121.5,-384C121.5,-384 22.5,-384 22.5,-384 16.5,-384 10.5,-378 10.5,-372 10.5,-372 10.5,-360 10.5,-360 10.5,-354 16.5,-348 22.5,-348 22.5,-348 121.5,-348 121.5,-348 127.5,-348 133.5,-354 133.5,-360 133.5,-360 133.5,-372 133.5,-372 133.5,-378 127.5,-384 121.5,-384"/>
<text text-anchor="middle" x="72" y="-363.8" font-family="Courier,monospace" font-size="9.00">CTiffImg::WriteLine()</text>
</g>
<!-- Node0x5dae34792b30 -->
<g id="node9" class="node">
<title>Node0x5dae34792b30</title>
<path fill="#f0f4ff" stroke="black" d="M119,-442C119,-442 25,-442 25,-442 19,-442 13,-436 13,-430 13,-430 13,-418 13,-418 13,-412 19,-406 25,-406 25,-406 119,-406 119,-406 125,-406 131,-412 131,-418 131,-418 131,-430 131,-430 131,-436 125,-442 119,-442"/>
<text text-anchor="middle" x="72" y="-421.8" font-family="Courier,monospace" font-size="9.00">CTiffImg::GetPhoto()</text>
</g>
<!-- Node0x5dae347a05b0 -->
<g id="node10" class="node">
<title>Node0x5dae347a05b0</title>
<path fill="#f0f4ff" stroke="black" d="M132,-500C132,-500 12,-500 12,-500 6,-500 0,-494 0,-488 0,-488 0,-476 0,-476 0,-470 6,-464 12,-464 12,-464 132,-464 132,-464 138,-464 144,-470 144,-476 144,-476 144,-488 144,-488 144,-494 138,-500 132,-500"/>
<text text-anchor="middle" x="72" y="-479.8" font-family="Courier,monospace" font-size="9.00">CTiffImg::GetIccProfile()</text>
</g>
<!-- Node0x5dae347a03d0 -->
<g id="node11" class="node">
<title>Node0x5dae347a03d0</title>
<path fill="#f0f4ff" stroke="black" d="M132,-558C132,-558 12,-558 12,-558 6,-558 0,-552 0,-546 0,-546 0,-534 0,-534 0,-528 6,-522 12,-522 12,-522 132,-522 132,-522 138,-522 144,-528 144,-534 144,-534 144,-546 144,-546 144,-552 138,-558 132,-558"/>
<text text-anchor="middle" x="72" y="-537.8" font-family="Courier,monospace" font-size="9.00">CTiffImg::SetIccProfile()</text>
</g>
</g>
</svg>
