<?xml version="1.0" encoding="UTF-8" standalone="no"?>
<!DOCTYPE svg PUBLIC "-//W3C//DTD SVG 1.1//EN"
 "http://www.w3.org/Graphics/SVG/1.1/DTD/svg11.dtd">
<!-- Generated by graphviz version 2.43.0 (0)
 -->
<!-- Title: iccRoundTrip Pages: 1 -->
<svg width="1454pt" height="332pt"
 viewBox="0.00 0.00 1454.00 332.00" xmlns="http://www.w3.org/2000/svg" xmlns:xlink="http://www.w3.org/1999/xlink">
<g id="graph0" class="graph" transform="scale(1 1) rotate(0) translate(4 328)">
<title>iccRoundTrip</title>
<polygon fill="white" stroke="transparent" points="-4,4 -4,-328 1450,-328 1450,4 -4,4"/>
<g id="clust1" class="cluster">
<title>cluster_legend</title>
<polygon fill="none" stroke="black" stroke-dasharray="5,2" points="211,-246 211,-316 477,-316 477,-246 211,-246"/>
<text text-anchor="middle" x="344" y="-304.8" font-family="Times,serif" font-size="9.00">Legend</text>
</g>
<g id="clust2" class="cluster">
<title>cluster_cli</title>
<path fill="none" stroke="black" d="M20,-163C20,-163 288,-163 288,-163 294,-163 300,-169 300,-175 300,-175 300,-226 300,-226 300,-232 294,-238 288,-238 288,-238 20,-238 20,-238 14,-238 8,-232 8,-226 8,-226 8,-175 8,-175 8,-169 14,-163 20,-163"/>
<text text-anchor="middle" x="154" y="-222.8" font-family="Times,serif" font-size="14.00">Phase 1: CLI Parsing</text>
</g>
<g id="clust3" class="cluster">
<title>cluster_eval</title>
<path fill="none" stroke="red" d="M320,-163C320,-163 658,-163 658,-163 664,-163 670,-169 670,-175 670,-175 670,-226 670,-226 670,-232 664,-238 658,-238 658,-238 320,-238 320,-238 314,-238 308,-232 308,-226 308,-226 308,-175 308,-175 308,-169 314,-163 320,-163"/>
<text text-anchor="middle" x="489" y="-222.8" font-family="Times,serif" font-size="14.00">Phase 2: Round&#45;Trip Evaluation (Attack Surface)</text>
</g>
<g id="clust4" class="cluster">
<title>cluster_prmg</title>
<path fill="none" stroke="red" d="M690,-163C690,-163 920,-163 920,-163 926,-163 932,-169 932,-175 932,-175 932,-226 932,-226 932,-232 926,-238 920,-238 920,-238 690,-238 690,-238 684,-238 678,-232 678,-226 678,-226 678,-175 678,-175 678,-169 684,-163 690,-163"/>
<text text-anchor="middle" x="805" y="-222.8" font-family="Times,serif" font-size="14.00">Phase 3: PRMG Analysis</text>
</g>
<g id="clust5" class="cluster">
<title>cluster_results</title>
<path fill="none" stroke="black" d="M952,-163C952,-163 1426,-163 1426,-163 1432,-163 1438,-169 1438,-175 1438,-175 1438,-226 1438,-226 1438,-232 1432,-238 1426,-238 1426,-238 952,-238 952,-238 946,-238 940,-232 940,-226 940,-226 940,-175 940,-175 940,-169 946,-163 952,-163"/>
<text text-anchor="middle" x="1189" y="-222.8" font-family="Times,serif" font-size="14.00">Phase 4: Result Access</text>
</g>
<g id="clust6" class="cluster">
<title>cluster_deep</title>
<path fill="none" stroke="red" d="M233,-8C233,-8 707,-8 707,-8 713,-8 719,-14 719,-20 719,-20 719,-143 719,-143 719,-149 713,-155 707,-155 707,-155 233,-155 233,-155 227,-155 221,-149 221,-143 221,-143 221,-20 221,-20 221,-14 227,-8 233,-8"/>
<text text-anchor="middle" x="470" y="-139.8" font-family="Times,serif" font-size="14.00">Phase 5: Internal CMM Pipeline</text>
</g>
<!-- leg_both -->
<g id="node1" class="node">
<title>leg_both</title>
<polygon fill="#90ee90" stroke="black" points="469,-290 375,-290 375,-254 469,-254 469,-290"/>
<text text-anchor="middle" x="422" y="-269.5" font-family="Helvetica,sans-Serif" font-size="10.00">In Tool + Fuzzer</text>
</g>
<!-- leg_tool -->
<g id="node2" class="node">
<title>leg_tool</title>
<polygon fill="#add8e6" stroke="black" points="357,-290 295,-290 295,-254 357,-254 357,-290"/>
<text text-anchor="middle" x="326" y="-269.5" font-family="Helvetica,sans-Serif" font-size="10.00">Tool Only</text>
</g>
<!-- leg_cli -->
<g id="node3" class="node">
<title>leg_cli</title>
<polygon fill="#d3d3d3" stroke="black" points="276.5,-290 219.5,-290 219.5,-254 276.5,-254 276.5,-290"/>
<text text-anchor="middle" x="248" y="-269.5" font-family="Helvetica,sans-Serif" font-size="10.00">CLI Only</text>
</g>
<!-- tool -->
<g id="node4" class="node">
<title>tool</title>
<ellipse fill="#ff6b6b" stroke="black" cx="759" cy="-272" rx="69.09" ry="21.43"/>
<text text-anchor="middle" x="759" y="-275" font-family="Helvetica,sans-Serif" font-size="10.00">main()</text>
<text text-anchor="middle" x="759" y="-264" font-family="Helvetica,sans-Serif" font-size="10.00">iccRoundTrip.cpp</text>
</g>
<!-- usage -->
<g id="node6" class="node">
<title>usage</title>
<polygon fill="#d3d3d3" stroke="black" points="186,-207 106,-207 106,-171 186,-171 186,-207"/>
<text text-anchor="middle" x="146" y="-186.5" font-family="Helvetica,sans-Serif" font-size="10.00">printf(usage)</text>
</g>
<!-- tool&#45;&gt;usage -->
<g id="edge1" class="edge">
<title>tool&#45;&gt;usage</title>
<path fill="none" stroke="black" stroke-dasharray="5,2" d="M694.49,-264.06C638.19,-258.28 554.29,-250.32 481,-246 449.26,-244.13 224.26,-250.42 195,-238 183.3,-233.03 172.84,-223.86 164.62,-214.86"/>
<polygon fill="black" stroke="black" points="167.15,-212.43 157.99,-207.1 161.82,-216.98 167.15,-212.43"/>
</g>
<!-- parse_intent -->
<g id="node7" class="node">
<title>parse_intent</title>
<polygon fill="#d3d3d3" stroke="black" points="87.5,-207 16.5,-207 16.5,-171 87.5,-171 87.5,-207"/>
<text text-anchor="middle" x="52" y="-186.5" font-family="Helvetica,sans-Serif" font-size="10.00">atoi(intent)</text>
</g>
<!-- tool&#45;&gt;parse_intent -->
<g id="edge2" class="edge">
<title>tool&#45;&gt;parse_intent</title>
<path fill="none" stroke="black" stroke-dasharray="5,2" d="M694.77,-263.96C638.48,-258.09 554.42,-250.06 481,-246 459.69,-244.82 116.49,-246.69 97,-238 85.98,-233.09 76.39,-224.05 68.93,-215.14"/>
<polygon fill="black" stroke="black" points="71.59,-212.86 62.69,-207.1 66.06,-217.15 71.59,-212.86"/>
</g>
<!-- parse_mpe -->
<g id="node8" class="node">
<title>parse_mpe</title>
<polygon fill="#d3d3d3" stroke="black" points="291.5,-207 204.5,-207 204.5,-171 291.5,-171 291.5,-207"/>
<text text-anchor="middle" x="248" y="-186.5" font-family="Helvetica,sans-Serif" font-size="10.00">atoi(use_mpe)</text>
</g>
<!-- tool&#45;&gt;parse_mpe -->
<g id="edge3" class="edge">
<title>tool&#45;&gt;parse_mpe</title>
<path fill="none" stroke="black" stroke-dasharray="5,2" d="M694.19,-264.35C637.89,-258.77 554.13,-250.94 481,-246 461.36,-244.67 322.3,-245.25 304,-238 291.04,-232.87 278.97,-223.42 269.38,-214.25"/>
<polygon fill="black" stroke="black" points="271.77,-211.69 262.25,-207.05 266.8,-216.62 271.77,-211.69"/>
</g>
<!-- eval_ctor -->
<g id="node9" class="node">
<title>eval_ctor</title>
<polygon fill="#90ee90" stroke="black" points="662,-207 558,-207 558,-171 662,-171 662,-207"/>
<text text-anchor="middle" x="610" y="-186.5" font-family="Helvetica,sans-Serif" font-size="10.00">CIccMinMaxEval()</text>
</g>
<!-- tool&#45;&gt;eval_ctor -->
<g id="edge4" class="edge">
<title>tool&#45;&gt;eval_ctor</title>
<path fill="none" stroke="black" d="M713.4,-255.92C700.34,-250.91 686.32,-244.84 674,-238 661.42,-231.01 648.54,-221.82 637.67,-213.35"/>
<polygon fill="black" stroke="black" points="639.78,-210.56 629.78,-207.07 635.42,-216.04 639.78,-210.56"/>
</g>
<!-- eval_profile -->
<g id="node10" class="node">
<title>eval_profile</title>
<polygon fill="#90ee90" stroke="black" stroke-width="3" points="540,-207 442,-207 442,-171 540,-171 540,-207"/>
<text text-anchor="middle" x="491" y="-192" font-family="Helvetica,sans-Serif" font-size="10.00">EvaluateProfile()</text>
<text text-anchor="middle" x="491" y="-181" font-family="Helvetica,sans-Serif" font-size="10.00">MAIN ENTRY</text>
</g>
<!-- tool&#45;&gt;eval_profile -->
<g id="edge5" class="edge">
<title>tool&#45;&gt;eval_profile</title>
<path fill="none" stroke="black" stroke-width="2" d="M690.18,-269.37C647.85,-266.17 593.41,-258.02 549,-238 536.4,-232.32 524.32,-223.14 514.47,-214.33"/>
<polygon fill="black" stroke="black" stroke-width="2" points="516.77,-211.69 507.08,-207.41 511.99,-216.8 516.77,-211.69"/>
</g>
<!-- prmg_ctor -->
<g id="node11" class="node">
<title>prmg_ctor</title>
<polygon fill="#90ee90" stroke="black" points="924,-207 850,-207 850,-171 924,-171 924,-207"/>
<text text-anchor="middle" x="887" y="-186.5" font-family="Helvetica,sans-Serif" font-size="10.00">CIccPRMG()</text>
</g>
<!-- tool&#45;&gt;prmg_ctor -->
<g id="edge6" class="edge">
<title>tool&#45;&gt;prmg_ctor</title>
<path fill="none" stroke="black" d="M805.85,-256.11C817.82,-251.26 830.32,-245.22 841,-238 850.42,-231.63 859.4,-223.05 866.89,-214.91"/>
<polygon fill="black" stroke="black" points="869.59,-217.15 873.57,-207.33 864.33,-212.52 869.59,-217.15"/>
</g>
<!-- prmg_eval -->
<g id="node12" class="node">
<title>prmg_eval</title>
<polygon fill="#90ee90" stroke="black" stroke-width="3" points="832,-207 686,-207 686,-171 832,-171 832,-207"/>
<text text-anchor="middle" x="759" y="-186.5" font-family="Helvetica,sans-Serif" font-size="10.00">CIccPRMG::EvaluateProfile</text>
</g>
<!-- tool&#45;&gt;prmg_eval -->
<g id="edge7" class="edge">
<title>tool&#45;&gt;prmg_eval</title>
<path fill="none" stroke="black" stroke-width="2" d="M759,-250.56C759,-240.51 759,-228.25 759,-217.4"/>
<polygon fill="black" stroke="black" stroke-width="2" points="762.5,-217.15 759,-207.15 755.5,-217.15 762.5,-217.15"/>
</g>
<!-- get_mean -->
<g id="node13" class="node">
<title>get_mean</title>
<polygon fill="#90ee90" stroke="black" points="1174,-207 1054,-207 1054,-171 1174,-171 1174,-207"/>
<text text-anchor="middle" x="1114" y="-186.5" font-family="Helvetica,sans-Serif" font-size="10.00">GetMean1/GetMean2</text>
</g>
<!-- tool&#45;&gt;get_mean -->
<g id="edge8" class="edge">
<title>tool&#45;&gt;get_mean</title>
<path fill="none" stroke="black" d="M807.19,-256.73C823.22,-252.55 841.25,-248.45 858,-246 899.16,-239.99 1005.59,-251.29 1045,-238 1060.5,-232.77 1075.66,-222.91 1087.81,-213.49"/>
<polygon fill="black" stroke="black" points="1090.13,-216.11 1095.7,-207.09 1085.72,-210.67 1090.13,-216.11"/>
</g>
<!-- get_minmax -->
<g id="node14" class="node">
<title>get_minmax</title>
<polygon fill="#90ee90" stroke="black" points="1035.5,-207 948.5,-207 948.5,-171 1035.5,-171 1035.5,-207"/>
<text text-anchor="middle" x="992" y="-186.5" font-family="Helvetica,sans-Serif" font-size="10.00">minDE/maxDE</text>
</g>
<!-- tool&#45;&gt;get_minmax -->
<g id="edge9" class="edge">
<title>tool&#45;&gt;get_minmax</title>
<path fill="none" stroke="black" d="M808.3,-257.05C824.07,-252.99 841.68,-248.88 858,-246 892.32,-239.94 903.98,-251.74 936,-238 948.63,-232.58 960.51,-223.27 970.05,-214.28"/>
<polygon fill="black" stroke="black" points="972.53,-216.75 977.17,-207.23 967.6,-211.78 972.53,-216.75"/>
</g>
<!-- get_lab -->
<g id="node15" class="node">
<title>get_lab</title>
<polygon fill="#90ee90" stroke="black" points="1430,-207 1320,-207 1320,-171 1430,-171 1430,-207"/>
<text text-anchor="middle" x="1375" y="-186.5" font-family="Helvetica,sans-Serif" font-size="10.00">maxLab1/maxLab2</text>
</g>
<!-- tool&#45;&gt;get_lab -->
<g id="edge10" class="edge">
<title>tool&#45;&gt;get_lab</title>
<path fill="none" stroke="black" d="M806.91,-256.54C822.99,-252.33 841.13,-248.25 858,-246 907.9,-239.35 1263.38,-254.34 1311,-238 1325.59,-232.99 1339.56,-223.3 1350.71,-213.93"/>
<polygon fill="black" stroke="black" points="1353.12,-216.47 1358.3,-207.23 1348.48,-211.22 1353.12,-216.47"/>
</g>
<!-- prmg_results -->
<g id="node16" class="node">
<title>prmg_results</title>
<polygon fill="#90ee90" stroke="black" points="1302,-207 1192,-207 1192,-171 1302,-171 1302,-207"/>
<text text-anchor="middle" x="1247" y="-192" font-family="Helvetica,sans-Serif" font-size="10.00">PRMG DE bins</text>
<text text-anchor="middle" x="1247" y="-181" font-family="Helvetica,sans-Serif" font-size="10.00">m_nDE1..m_nDE10</text>
</g>
<!-- tool&#45;&gt;prmg_results -->
<g id="edge11" class="edge">
<title>tool&#45;&gt;prmg_results</title>
<path fill="none" stroke="black" d="M806.92,-256.61C823,-252.4 841.14,-248.31 858,-246 893.79,-241.1 1148.87,-249.84 1183,-238 1197.57,-232.94 1211.54,-223.24 1222.69,-213.88"/>
<polygon fill="black" stroke="black" points="1225.1,-216.43 1230.28,-207.19 1220.47,-211.17 1225.1,-216.43"/>
</g>
<!-- fuzzer -->
<g id="node5" class="node">
<title>fuzzer</title>
<ellipse fill="#ff6b6b" stroke="black" cx="970" cy="-272" rx="102.56" ry="21.43"/>
<text text-anchor="middle" x="970" y="-275" font-family="Helvetica,sans-Serif" font-size="10.00">LLVMFuzzerTestOneInput()</text>
<text text-anchor="middle" x="970" y="-264" font-family="Helvetica,sans-Serif" font-size="10.00">icc_roundtrip_fuzzer.cpp</text>
</g>
<!-- fuzzer&#45;&gt;eval_ctor -->
<g id="edge12" class="edge">
<title>fuzzer&#45;&gt;eval_ctor</title>
<path fill="none" stroke="green" stroke-dasharray="1,5" d="M901.25,-256.22C880.67,-252.3 858,-248.48 837,-246 800.98,-241.75 708.11,-250.31 674,-238 659.49,-232.77 645.53,-223.04 634.37,-213.71"/>
<polygon fill="green" stroke="green" points="636.59,-211 626.77,-207.05 631.98,-216.27 636.59,-211"/>
</g>
<!-- fuzzer&#45;&gt;eval_profile -->
<g id="edge13" class="edge">
<title>fuzzer&#45;&gt;eval_profile</title>
<path fill="none" stroke="green" stroke-width="2" d="M901.96,-256.07C881.21,-252.1 858.26,-248.28 837,-246 805.17,-242.59 578.97,-249.26 549,-238 535.68,-232.99 523.19,-223.56 513.25,-214.37"/>
<polygon fill="green" stroke="green" stroke-width="2" points="515.45,-211.63 505.85,-207.15 510.56,-216.64 515.45,-211.63"/>
</g>
<!-- fuzzer&#45;&gt;prmg_ctor -->
<g id="edge14" class="edge">
<title>fuzzer&#45;&gt;prmg_ctor</title>
<path fill="none" stroke="green" stroke-dasharray="1,5" d="M949.49,-251.12C945.04,-246.8 940.36,-242.25 936,-238 928.2,-230.39 919.71,-222.09 912.03,-214.56"/>
<polygon fill="green" stroke="green" points="914.26,-211.85 904.67,-207.35 909.36,-216.85 914.26,-211.85"/>
</g>
<!-- fuzzer&#45;&gt;prmg_eval -->
<g id="edge15" class="edge">
<title>fuzzer&#45;&gt;prmg_eval</title>
<path fill="none" stroke="green" stroke-width="2" d="M898.88,-256.58C879.74,-251.69 859.28,-245.51 841,-238 824.32,-231.14 806.94,-221.39 792.49,-212.47"/>
<polygon fill="green" stroke="green" stroke-width="2" points="794.23,-209.43 783.9,-207.05 790.49,-215.35 794.23,-209.43"/>
</g>
<!-- fuzzer&#45;&gt;get_mean -->
<g id="edge16" class="edge">
<title>fuzzer&#45;&gt;get_mean</title>
<path fill="none" stroke="green" stroke-dasharray="1,5" d="M1015.11,-252.84C1025.13,-248.35 1035.57,-243.29 1045,-238 1058.11,-230.65 1071.84,-221.44 1083.57,-213.06"/>
<polygon fill="green" stroke="green" points="1085.68,-215.85 1091.72,-207.15 1081.57,-210.19 1085.68,-215.85"/>
</g>
<!-- fuzzer&#45;&gt;get_minmax -->
<g id="edge17" class="edge">
<title>fuzzer&#45;&gt;get_minmax</title>
<path fill="none" stroke="green" stroke-dasharray="1,5" d="M975.55,-250.56C978.31,-240.4 981.68,-227.99 984.65,-217.06"/>
<polygon fill="green" stroke="green" points="988.1,-217.71 987.34,-207.15 981.34,-215.88 988.1,-217.71"/>
</g>
<!-- fuzzer&#45;&gt;get_lab -->
<g id="edge18" class="edge">
<title>fuzzer&#45;&gt;get_lab</title>
<path fill="none" stroke="green" stroke-dasharray="1,5" d="M1070.17,-267.28C1154.69,-263.06 1268.51,-254.48 1311,-238 1325.28,-232.46 1339.12,-222.79 1350.27,-213.58"/>
<polygon fill="green" stroke="green" points="1352.59,-216.2 1357.87,-207.01 1348.01,-210.9 1352.59,-216.2"/>
</g>
<!-- fuzzer&#45;&gt;prmg_results -->
<g id="edge19" class="edge">
<title>fuzzer&#45;&gt;prmg_results</title>
<path fill="none" stroke="green" stroke-dasharray="1,5" d="M1068.44,-265.86C1105.46,-261.34 1147.22,-253.07 1183,-238 1196.77,-232.2 1210.27,-222.8 1221.29,-213.85"/>
<polygon fill="green" stroke="green" points="1223.83,-216.29 1229.2,-207.16 1219.31,-210.94 1223.83,-216.29"/>
</g>
<!-- open_profile -->
<g id="node17" class="node">
<title>open_profile</title>
<polygon fill="#90ee90" stroke="black" points="711,-124 625,-124 625,-88 711,-88 711,-124"/>
<text text-anchor="middle" x="668" y="-103.5" font-family="Helvetica,sans-Serif" font-size="10.00">OpenIccProfile</text>
</g>
<!-- eval_profile&#45;&gt;open_profile -->
<g id="edge20" class="edge">
<title>eval_profile&#45;&gt;open_profile</title>
<path fill="none" stroke="black" stroke-width="2" d="M526.31,-170.87C533.67,-167.85 541.48,-165.02 549,-163 577.96,-155.21 588.77,-167.56 616,-155 627.85,-149.53 638.83,-140.34 647.61,-131.45"/>
<polygon fill="black" stroke="black" stroke-width="2" points="650.16,-133.84 654.44,-124.14 645.05,-129.05 650.16,-133.84"/>
</g>
<!-- add_fwd -->
<g id="node18" class="node">
<title>add_fwd</title>
<polygon fill="#90ee90" stroke="black" points="606.5,-124 541.5,-124 541.5,-88 606.5,-88 606.5,-124"/>
<text text-anchor="middle" x="574" y="-109" font-family="Helvetica,sans-Serif" font-size="10.00">AddXform</text>
<text text-anchor="middle" x="574" y="-98" font-family="Helvetica,sans-Serif" font-size="10.00">(forward)</text>
</g>
<!-- eval_profile&#45;&gt;add_fwd -->
<g id="edge21" class="edge">
<title>eval_profile&#45;&gt;add_fwd</title>
<path fill="none" stroke="black" stroke-width="2" d="M513.73,-170.87C519.84,-165.95 526.33,-160.44 532,-155 539.39,-147.91 546.93,-139.67 553.54,-132.04"/>
<polygon fill="black" stroke="black" stroke-width="2" points="556.49,-133.98 560.3,-124.09 551.15,-129.44 556.49,-133.98"/>
</g>
<!-- add_inv -->
<g id="node19" class="node">
<title>add_inv</title>
<polygon fill="#90ee90" stroke="black" points="523.5,-124 458.5,-124 458.5,-88 523.5,-88 523.5,-124"/>
<text text-anchor="middle" x="491" y="-109" font-family="Helvetica,sans-Serif" font-size="10.00">AddXform</text>
<text text-anchor="middle" x="491" y="-98" font-family="Helvetica,sans-Serif" font-size="10.00">(inverse)</text>
</g>
<!-- eval_profile&#45;&gt;add_inv -->
<g id="edge22" class="edge">
<title>eval_profile&#45;&gt;add_inv</title>
<path fill="none" stroke="black" stroke-width="2" d="M491,-170.82C491,-160.19 491,-146.31 491,-134.2"/>
<polygon fill="black" stroke="black" stroke-width="2" points="494.5,-134.15 491,-124.15 487.5,-134.15 494.5,-134.15"/>
</g>
<!-- cmm_begin -->
<g id="node20" class="node">
<title>cmm_begin</title>
<polygon fill="#90ee90" stroke="black" points="440.5,-124 343.5,-124 343.5,-88 440.5,-88 440.5,-124"/>
<text text-anchor="middle" x="392" y="-103.5" font-family="Helvetica,sans-Serif" font-size="10.00">CIccCmm::Begin</text>
</g>
<!-- eval_profile&#45;&gt;cmm_begin -->
<g id="edge23" class="edge">
<title>eval_profile&#45;&gt;cmm_begin</title>
<path fill="none" stroke="black" stroke-width="2" d="M468.66,-170.67C462.27,-165.66 455.33,-160.15 449,-155 439.38,-147.17 428.96,-138.47 419.7,-130.65"/>
<polygon fill="black" stroke="black" stroke-width="2" points="421.8,-127.84 411.91,-124.05 417.28,-133.18 421.8,-127.84"/>
</g>
<!-- cmm_apply -->
<g id="node21" class="node">
<title>cmm_apply</title>
<polygon fill="#90ee90" stroke="black" points="325.5,-124 228.5,-124 228.5,-88 325.5,-88 325.5,-124"/>
<text text-anchor="middle" x="277" y="-103.5" font-family="Helvetica,sans-Serif" font-size="10.00">CIccCmm::Apply</text>
</g>
<!-- eval_profile&#45;&gt;cmm_apply -->
<g id="edge24" class="edge">
<title>eval_profile&#45;&gt;cmm_apply</title>
<path fill="none" stroke="black" stroke-width="2" d="M441.94,-183.94C409.92,-179.81 367.92,-171.54 334,-155 321.7,-149.01 309.84,-139.78 300.15,-131"/>
<polygon fill="black" stroke="black" stroke-width="2" points="302.55,-128.46 292.88,-124.14 297.75,-133.55 302.55,-128.46"/>
</g>
<!-- compare -->
<g id="node22" class="node">
<title>compare</title>
<polygon fill="#90ee90" stroke="black" points="311,-52 243,-52 243,-16 311,-16 311,-52"/>
<text text-anchor="middle" x="277" y="-37" font-family="Helvetica,sans-Serif" font-size="10.00">Compare()</text>
<text text-anchor="middle" x="277" y="-26" font-family="Helvetica,sans-Serif" font-size="10.00">icDeltaE</text>
</g>
<!-- cmm_apply&#45;&gt;compare -->
<g id="edge25" class="edge">
<title>cmm_apply&#45;&gt;compare</title>
<path fill="none" stroke="red" stroke-width="2" d="M277,-87.7C277,-79.98 277,-70.71 277,-62.11"/>
<polygon fill="red" stroke="red" stroke-width="2" points="280.5,-62.1 277,-52.1 273.5,-62.1 280.5,-62.1"/>
</g>
</g>
</svg>
