<?xml version="1.0" encoding="UTF-8" standalone="no"?>
<!DOCTYPE svg PUBLIC "-//W3C//DTD SVG 1.1//EN"
 "http://www.w3.org/Graphics/SVG/1.1/DTD/svg11.dtd">
<!-- Generated by graphviz version 2.43.0 (0)
 -->
<!-- Title: iccSpecSepToTiff Pages: 1 -->
<svg width="1462pt" height="321pt"
 viewBox="0.00 0.00 1462.00 321.00" xmlns="http://www.w3.org/2000/svg" xmlns:xlink="http://www.w3.org/1999/xlink">
<g id="graph0" class="graph" transform="scale(1 1) rotate(0) translate(4 317)">
<title>iccSpecSepToTiff</title>
<polygon fill="white" stroke="transparent" points="-4,4 -4,-317 1458,-317 1458,4 -4,4"/>
<g id="clust1" class="cluster">
<title>cluster_legend</title>
<polygon fill="none" stroke="black" stroke-dasharray="5,2" points="22,-235 22,-305 377,-305 377,-235 22,-235"/>
<text text-anchor="middle" x="199.5" y="-293.8" font-family="Times,serif" font-size="9.00">Legend</text>
</g>
<g id="clust2" class="cluster">
<title>cluster_cli</title>
<path fill="none" stroke="black" d="M20,-152C20,-152 289,-152 289,-152 295,-152 301,-158 301,-164 301,-164 301,-215 301,-215 301,-221 295,-227 289,-227 289,-227 20,-227 20,-227 14,-227 8,-221 8,-215 8,-215 8,-164 8,-164 8,-158 14,-152 20,-152"/>
<text text-anchor="middle" x="154.5" y="-211.8" font-family="Times,serif" font-size="14.00">Phase 1: CLI Args</text>
</g>
<g id="clust3" class="cluster">
<title>cluster_input</title>
<path fill="none" stroke="red" d="M768,-80C768,-80 1208,-80 1208,-80 1214,-80 1220,-86 1220,-92 1220,-92 1220,-215 1220,-215 1220,-221 1214,-227 1208,-227 1208,-227 768,-227 768,-227 762,-227 756,-221 756,-215 756,-215 756,-92 756,-92 756,-86 762,-80 768,-80"/>
<text text-anchor="middle" x="988" y="-211.8" font-family="Times,serif" font-size="14.00">Phase 2: Input TIFF Validation</text>
</g>
<g id="clust4" class="cluster">
<title>cluster_alloc</title>
<path fill="none" stroke="black" d="M321,-152C321,-152 521,-152 521,-152 527,-152 533,-158 533,-164 533,-164 533,-215 533,-215 533,-221 527,-227 521,-227 521,-227 321,-227 321,-227 315,-227 309,-221 309,-215 309,-215 309,-164 309,-164 309,-158 315,-152 321,-152"/>
<text text-anchor="middle" x="421" y="-211.8" font-family="Times,serif" font-size="14.00">Phase 3: Buffer Allocation</text>
</g>
<g id="clust5" class="cluster">
<title>cluster_output</title>
<path fill="none" stroke="black" d="M1240,-8C1240,-8 1434,-8 1434,-8 1440,-8 1446,-14 1446,-20 1446,-20 1446,-215 1446,-215 1446,-221 1440,-227 1434,-227 1434,-227 1240,-227 1240,-227 1234,-227 1228,-221 1228,-215 1228,-215 1228,-20 1228,-20 1228,-14 1234,-8 1240,-8"/>
<text text-anchor="middle" x="1337" y="-211.8" font-family="Times,serif" font-size="14.00">Phase 4: Output TIFF + ICC</text>
</g>
<g id="clust6" class="cluster">
<title>cluster_scanline</title>
<path fill="none" stroke="red" d="M553,-8C553,-8 736,-8 736,-8 742,-8 748,-14 748,-20 748,-20 748,-215 748,-215 748,-221 742,-227 736,-227 736,-227 553,-227 553,-227 547,-227 541,-221 541,-215 541,-215 541,-20 541,-20 541,-14 547,-8 553,-8"/>
<text text-anchor="middle" x="644.5" y="-211.8" font-family="Times,serif" font-size="14.00">Phase 5: Scanline I/O Loop</text>
</g>
<!-- leg_both -->
<g id="node1" class="node">
<title>leg_both</title>
<polygon fill="#90ee90" stroke="black" points="369,-279 275,-279 275,-243 369,-243 369,-279"/>
<text text-anchor="middle" x="322" y="-258.5" font-family="Helvetica,sans-Serif" font-size="10.00">In Tool + Fuzzer</text>
</g>
<!-- leg_tool -->
<g id="node2" class="node">
<title>leg_tool</title>
<polygon fill="#add8e6" stroke="black" points="257,-279 195,-279 195,-243 257,-243 257,-279"/>
<text text-anchor="middle" x="226" y="-258.5" font-family="Helvetica,sans-Serif" font-size="10.00">Tool Only</text>
</g>
<!-- leg_cli -->
<g id="node3" class="node">
<title>leg_cli</title>
<polygon fill="#d3d3d3" stroke="black" points="176.5,-279 119.5,-279 119.5,-243 176.5,-243 176.5,-279"/>
<text text-anchor="middle" x="148" y="-258.5" font-family="Helvetica,sans-Serif" font-size="10.00">CLI Only</text>
</g>
<!-- leg_hot -->
<g id="node4" class="node">
<title>leg_hot</title>
<polygon fill="#ff6347" stroke="black" points="101.5,-279 30.5,-279 30.5,-243 101.5,-243 101.5,-279"/>
<text text-anchor="middle" x="66" y="-258.5" font-family="Helvetica,sans-Serif" font-size="10.00">I/O Hotspot</text>
</g>
<!-- tool -->
<g id="node5" class="node">
<title>tool</title>
<ellipse fill="#ff6b6b" stroke="black" cx="474" cy="-261" rx="83.38" ry="21.43"/>
<text text-anchor="middle" x="474" y="-264" font-family="Helvetica,sans-Serif" font-size="10.00">main()</text>
<text text-anchor="middle" x="474" y="-253" font-family="Helvetica,sans-Serif" font-size="10.00">iccSpecSepToTiff.cpp</text>
</g>
<!-- usage -->
<g id="node7" class="node">
<title>usage</title>
<polygon fill="#d3d3d3" stroke="black" points="71.5,-196 16.5,-196 16.5,-160 71.5,-160 71.5,-196"/>
<text text-anchor="middle" x="44" y="-175.5" font-family="Helvetica,sans-Serif" font-size="10.00">Usage()</text>
</g>
<!-- tool&#45;&gt;usage -->
<g id="edge1" class="edge">
<title>tool&#45;&gt;usage</title>
<path fill="none" stroke="black" stroke-dasharray="5,2" d="M423.29,-244.05C409.69,-240.41 394.9,-237.02 381,-235 364.45,-232.59 94.86,-234.68 80,-227 70.66,-222.17 63.09,-213.69 57.34,-205.19"/>
<polygon fill="black" stroke="black" points="60.22,-203.18 52.02,-196.47 54.24,-206.82 60.22,-203.18"/>
</g>
<!-- argv_parse -->
<g id="node8" class="node">
<title>argv_parse</title>
<polygon fill="#d3d3d3" stroke="black" points="293,-196 205,-196 205,-160 293,-160 293,-196"/>
<text text-anchor="middle" x="249" y="-175.5" font-family="Helvetica,sans-Serif" font-size="10.00">atoi(argv[2&#45;7])</text>
</g>
<!-- tool&#45;&gt;argv_parse -->
<g id="edge2" class="edge">
<title>tool&#45;&gt;argv_parse</title>
<path fill="none" stroke="black" stroke-dasharray="5,2" d="M421.71,-244.39C408.51,-240.89 394.31,-237.47 381,-235 347.61,-228.79 336.19,-240.44 305,-227 292.38,-221.56 280.5,-212.25 270.96,-203.27"/>
<polygon fill="black" stroke="black" points="273.4,-200.76 263.84,-196.21 268.48,-205.74 273.4,-200.76"/>
</g>
<!-- snprintf_fn -->
<g id="node9" class="node">
<title>snprintf_fn</title>
<polygon fill="#d3d3d3" stroke="black" points="186.5,-196 89.5,-196 89.5,-160 186.5,-160 186.5,-196"/>
<text text-anchor="middle" x="138" y="-175.5" font-family="Helvetica,sans-Serif" font-size="10.00">snprintf(argv[4])</text>
</g>
<!-- tool&#45;&gt;snprintf_fn -->
<g id="edge3" class="edge">
<title>tool&#45;&gt;snprintf_fn</title>
<path fill="none" stroke="black" stroke-dasharray="5,2" d="M422.78,-244.08C409.31,-240.48 394.71,-237.11 381,-235 340.33,-228.73 234.41,-241.78 196,-227 182.72,-221.89 170.24,-212.44 160.29,-203.27"/>
<polygon fill="black" stroke="black" points="162.49,-200.53 152.88,-196.07 157.61,-205.55 162.49,-200.53"/>
</g>
<!-- tiff_open -->
<g id="node10" class="node">
<title>tiff_open</title>
<polygon fill="#90ee90" stroke="black" stroke-width="3" points="923.5,-196 826.5,-196 826.5,-160 923.5,-160 923.5,-196"/>
<text text-anchor="middle" x="875" y="-181" font-family="Helvetica,sans-Serif" font-size="10.00">CTiffImg::Open()</text>
<text text-anchor="middle" x="875" y="-170" font-family="Helvetica,sans-Serif" font-size="10.00">N input files</text>
</g>
<!-- tool&#45;&gt;tiff_open -->
<g id="edge4" class="edge">
<title>tool&#45;&gt;tiff_open</title>
<path fill="none" stroke="black" stroke-width="2" d="M524.66,-244.07C537.98,-240.48 552.43,-237.11 566,-235 647.76,-222.29 671.03,-244.05 752,-227 779.21,-221.27 808.24,-210.2 831.27,-200.13"/>
<polygon fill="black" stroke="black" stroke-width="2" points="832.72,-203.31 840.42,-196.04 829.86,-196.92 832.72,-203.31"/>
</g>
<!-- inbuf -->
<g id="node15" class="node">
<title>inbuf</title>
<polygon fill="#90ee90" stroke="black" points="525,-196 427,-196 427,-160 525,-160 525,-196"/>
<text text-anchor="middle" x="476" y="-181" font-family="Helvetica,sans-Serif" font-size="10.00">inbuffer</text>
<text text-anchor="middle" x="476" y="-170" font-family="Helvetica,sans-Serif" font-size="10.00">[bytePerLine×N]</text>
</g>
<!-- tool&#45;&gt;inbuf -->
<g id="edge5" class="edge">
<title>tool&#45;&gt;inbuf</title>
<path fill="none" stroke="black" d="M474.5,-239.56C474.75,-229.51 475.06,-217.25 475.32,-206.4"/>
<polygon fill="black" stroke="black" points="478.83,-206.23 475.58,-196.15 471.83,-206.06 478.83,-206.23"/>
</g>
<!-- outbuf -->
<g id="node16" class="node">
<title>outbuf</title>
<polygon fill="#90ee90" stroke="black" points="409,-196 317,-196 317,-160 409,-160 409,-196"/>
<text text-anchor="middle" x="363" y="-181" font-family="Helvetica,sans-Serif" font-size="10.00">outbuffer</text>
<text text-anchor="middle" x="363" y="-170" font-family="Helvetica,sans-Serif" font-size="10.00">[width×bps×N]</text>
</g>
<!-- tool&#45;&gt;outbuf -->
<g id="edge6" class="edge">
<title>tool&#45;&gt;outbuf</title>
<path fill="none" stroke="black" d="M440.19,-241.44C432.72,-236.97 424.96,-232.02 418,-227 407.98,-219.77 397.62,-211.09 388.63,-203.11"/>
<polygon fill="black" stroke="black" points="390.89,-200.44 381.13,-196.33 386.2,-205.63 390.89,-200.44"/>
</g>
<!-- tiff_create -->
<g id="node17" class="node">
<title>tiff_create</title>
<polygon fill="#90ee90" stroke="black" stroke-width="2" points="1340,-196 1236,-196 1236,-160 1340,-160 1340,-196"/>
<text text-anchor="middle" x="1288" y="-181" font-family="Helvetica,sans-Serif" font-size="10.00">CTiffImg::Create()</text>
<text text-anchor="middle" x="1288" y="-170" font-family="Helvetica,sans-Serif" font-size="10.00">output TIFF</text>
</g>
<!-- tool&#45;&gt;tiff_create -->
<g id="edge7" class="edge">
<title>tool&#45;&gt;tiff_create</title>
<path fill="none" stroke="black" d="M524.14,-243.91C537.59,-240.28 552.23,-236.92 566,-235 602.21,-229.94 1189.39,-238.77 1224,-227 1238.71,-222 1252.78,-212.2 1263.97,-202.76"/>
<polygon fill="black" stroke="black" points="1266.41,-205.27 1271.57,-196.02 1261.76,-200.03 1266.41,-205.27"/>
</g>
<!-- readline -->
<g id="node20" class="node">
<title>readline</title>
<polygon fill="#ff6347" stroke="black" stroke-width="3" points="724.5,-196 629.5,-196 629.5,-160 724.5,-160 724.5,-196"/>
<text text-anchor="middle" x="677" y="-181" font-family="Helvetica,sans-Serif" font-size="10.00">ReadLine()</text>
<text text-anchor="middle" x="677" y="-170" font-family="Helvetica,sans-Serif" font-size="10.00">per&#45;file, per&#45;row</text>
</g>
<!-- tool&#45;&gt;readline -->
<g id="edge8" class="edge">
<title>tool&#45;&gt;readline</title>
<path fill="none" stroke="black" stroke-width="2" d="M527.27,-244.46C539.9,-241.07 553.37,-237.7 566,-235 588.44,-230.21 596.01,-236.25 617,-227 630,-221.27 642.57,-212 652.82,-203.12"/>
<polygon fill="black" stroke="black" stroke-width="2" points="655.44,-205.47 660.5,-196.16 650.74,-200.28 655.44,-205.47"/>
</g>
<!-- close_out -->
<g id="node23" class="node">
<title>close_out</title>
<polygon fill="#90ee90" stroke="black" points="608,-196 554,-196 554,-160 608,-160 608,-196"/>
<text text-anchor="middle" x="581" y="-175.5" font-family="Helvetica,sans-Serif" font-size="10.00">Close()</text>
</g>
<!-- tool&#45;&gt;close_out -->
<g id="edge9" class="edge">
<title>tool&#45;&gt;close_out</title>
<path fill="none" stroke="black" d="M513.27,-242.12C521.44,-237.68 529.76,-232.57 537,-227 545.6,-220.38 553.94,-211.98 561,-204.06"/>
<polygon fill="black" stroke="black" points="563.74,-206.25 567.6,-196.38 558.43,-201.68 563.74,-206.25"/>
</g>
<!-- fuzzer -->
<g id="node6" class="node">
<title>fuzzer</title>
<ellipse fill="#ff6b6b" stroke="black" cx="678" cy="-261" rx="102.56" ry="21.43"/>
<text text-anchor="middle" x="678" y="-264" font-family="Helvetica,sans-Serif" font-size="10.00">LLVMFuzzerTestOneInput()</text>
<text text-anchor="middle" x="678" y="-253" font-family="Helvetica,sans-Serif" font-size="10.00">icc_specsep_fuzzer.cpp</text>
</g>
<!-- fuzzer&#45;&gt;tiff_open -->
<g id="edge10" class="edge">
<title>fuzzer&#45;&gt;tiff_open</title>
<path fill="none" stroke="green" stroke-width="2" d="M722.21,-241.82C752.44,-229.39 792.58,-212.89 824.13,-199.91"/>
<polygon fill="green" stroke="green" stroke-width="2" points="825.71,-203.05 833.63,-196.01 823.05,-196.58 825.71,-203.05"/>
</g>
<!-- fuzzer&#45;&gt;inbuf -->
<g id="edge11" class="edge">
<title>fuzzer&#45;&gt;inbuf</title>
<path fill="none" stroke="green" d="M610.62,-244.9C576.15,-237.06 540.64,-228.75 537,-227 524.26,-220.87 511.71,-211.7 501.34,-203.01"/>
<polygon fill="green" stroke="green" points="503.37,-200.14 493.53,-196.21 498.77,-205.42 503.37,-200.14"/>
</g>
<!-- fuzzer&#45;&gt;outbuf -->
<g id="edge12" class="edge">
<title>fuzzer&#45;&gt;outbuf</title>
<path fill="none" stroke="green" d="M615.54,-244.14C599.49,-240.59 582.18,-237.23 566,-235 533.37,-230.51 448.52,-239.39 418,-227 405.52,-221.93 393.93,-212.8 384.63,-203.86"/>
<polygon fill="green" stroke="green" points="386.9,-201.17 377.4,-196.48 381.9,-206.07 386.9,-201.17"/>
</g>
<!-- fuzzer&#45;&gt;tiff_create -->
<g id="edge13" class="edge">
<title>fuzzer&#45;&gt;tiff_create</title>
<path fill="none" stroke="green" d="M780.79,-260.79C915.93,-260.62 1145.39,-255.87 1224,-227 1238.37,-221.72 1252.24,-212.09 1263.36,-202.83"/>
<polygon fill="green" stroke="green" points="1265.71,-205.43 1270.95,-196.22 1261.11,-200.15 1265.71,-205.43"/>
</g>
<!-- icc_embed -->
<g id="node18" class="node">
<title>icc_embed</title>
<polygon fill="#90ee90" stroke="black" points="1370,-124 1286,-124 1286,-88 1370,-88 1370,-124"/>
<text text-anchor="middle" x="1328" y="-109" font-family="Helvetica,sans-Serif" font-size="10.00">SetIccProfile()</text>
<text text-anchor="middle" x="1328" y="-98" font-family="Helvetica,sans-Serif" font-size="10.00">optional ICC</text>
</g>
<!-- fuzzer&#45;&gt;icc_embed -->
<g id="edge14" class="edge">
<title>fuzzer&#45;&gt;icc_embed</title>
<path fill="none" stroke="green" d="M779.94,-258.63C962.87,-255.68 1329.72,-247.25 1349,-227 1372.74,-202.06 1357.79,-160.31 1343.76,-133.22"/>
<polygon fill="green" stroke="green" points="1346.76,-131.4 1338.9,-124.3 1340.61,-134.75 1346.76,-131.4"/>
</g>
<!-- fuzzer&#45;&gt;readline -->
<g id="edge15" class="edge">
<title>fuzzer&#45;&gt;readline</title>
<path fill="none" stroke="green" stroke-width="2" d="M677.75,-239.56C677.62,-229.51 677.47,-217.25 677.34,-206.4"/>
<polygon fill="green" stroke="green" stroke-width="2" points="680.83,-206.1 677.21,-196.15 673.84,-206.19 680.83,-206.1"/>
</g>
<!-- fuzzer&#45;&gt;close_out -->
<g id="edge16" class="edge">
<title>fuzzer&#45;&gt;close_out</title>
<path fill="none" stroke="green" d="M640.13,-241.17C633.12,-236.95 626.1,-232.17 620,-227 612.3,-220.48 605,-212.27 598.84,-204.5"/>
<polygon fill="green" stroke="green" points="601.47,-202.18 592.64,-196.34 595.9,-206.42 601.47,-202.18"/>
</g>
<!-- get_samples -->
<g id="node11" class="node">
<title>get_samples</title>
<polygon fill="#90ee90" stroke="black" points="876,-124 764,-124 764,-88 876,-88 876,-124"/>
<text text-anchor="middle" x="820" y="-103.5" font-family="Helvetica,sans-Serif" font-size="10.00">GetSamples() == 1</text>
</g>
<!-- tiff_open&#45;&gt;get_samples -->
<g id="edge17" class="edge">
<title>tiff_open&#45;&gt;get_samples</title>
<path fill="none" stroke="black" d="M861.4,-159.7C854.88,-151.39 846.93,-141.28 839.75,-132.14"/>
<polygon fill="black" stroke="black" points="842.37,-129.81 833.44,-124.1 836.87,-134.13 842.37,-129.81"/>
</g>
<!-- get_photo -->
<g id="node12" class="node">
<title>get_photo</title>
<polygon fill="#90ee90" stroke="black" points="967.5,-124 894.5,-124 894.5,-88 967.5,-88 967.5,-124"/>
<text text-anchor="middle" x="931" y="-109" font-family="Helvetica,sans-Serif" font-size="10.00">GetPhoto()</text>
<text text-anchor="middle" x="931" y="-98" font-family="Helvetica,sans-Serif" font-size="10.00">!= PALETTE</text>
</g>
<!-- tiff_open&#45;&gt;get_photo -->
<g id="edge18" class="edge">
<title>tiff_open&#45;&gt;get_photo</title>
<path fill="none" stroke="black" d="M888.84,-159.7C895.49,-151.39 903.58,-141.28 910.89,-132.14"/>
<polygon fill="black" stroke="black" points="913.8,-134.1 917.32,-124.1 908.34,-129.73 913.8,-134.1"/>
</g>
<!-- format_check -->
<g id="node13" class="node">
<title>format_check</title>
<polygon fill="#90ee90" stroke="black" points="1088,-124 986,-124 986,-88 1088,-88 1088,-124"/>
<text text-anchor="middle" x="1037" y="-109" font-family="Helvetica,sans-Serif" font-size="10.00">Width/Height/BPS</text>
<text text-anchor="middle" x="1037" y="-98" font-family="Helvetica,sans-Serif" font-size="10.00">consistency</text>
</g>
<!-- tiff_open&#45;&gt;format_check -->
<g id="edge19" class="edge">
<title>tiff_open&#45;&gt;format_check</title>
<path fill="none" stroke="black" d="M914.63,-159.88C936.78,-150.31 964.56,-138.3 988.06,-128.15"/>
<polygon fill="black" stroke="black" points="989.71,-131.25 997.5,-124.07 986.93,-124.82 989.71,-131.25"/>
</g>
<!-- get_bytesperline -->
<g id="node14" class="node">
<title>get_bytesperline</title>
<polygon fill="#90ee90" stroke="black" points="1211.5,-124 1106.5,-124 1106.5,-88 1211.5,-88 1211.5,-124"/>
<text text-anchor="middle" x="1159" y="-103.5" font-family="Helvetica,sans-Serif" font-size="10.00">GetBytesPerLine()</text>
</g>
<!-- tiff_open&#45;&gt;get_bytesperline -->
<g id="edge20" class="edge">
<title>tiff_open&#45;&gt;get_bytesperline</title>
<path fill="none" stroke="black" d="M923.62,-165.88C966.47,-155.97 1030.84,-140.82 1096.2,-124.16"/>
<polygon fill="black" stroke="black" points="1097.45,-127.46 1106.27,-121.59 1095.71,-120.68 1097.45,-127.46"/>
</g>
<!-- tiff_create&#45;&gt;icc_embed -->
<g id="edge21" class="edge">
<title>tiff_create&#45;&gt;icc_embed</title>
<path fill="none" stroke="black" d="M1297.89,-159.7C1302.49,-151.64 1308.06,-141.89 1313.15,-132.98"/>
<polygon fill="black" stroke="black" points="1316.3,-134.52 1318.23,-124.1 1310.23,-131.05 1316.3,-134.52"/>
</g>
<!-- fileio -->
<g id="node19" class="node">
<title>fileio</title>
<polygon fill="#90ee90" stroke="black" points="1380,-52 1276,-52 1276,-16 1380,-16 1380,-52"/>
<text text-anchor="middle" x="1328" y="-37" font-family="Helvetica,sans-Serif" font-size="10.00">CIccFileIO::Open</text>
<text text-anchor="middle" x="1328" y="-26" font-family="Helvetica,sans-Serif" font-size="10.00">Read8, GetLength</text>
</g>
<!-- icc_embed&#45;&gt;fileio -->
<g id="edge22" class="edge">
<title>icc_embed&#45;&gt;fileio</title>
<path fill="none" stroke="black" d="M1328,-87.7C1328,-79.98 1328,-70.71 1328,-62.11"/>
<polygon fill="black" stroke="black" points="1331.5,-62.1 1328,-52.1 1324.5,-62.1 1331.5,-62.1"/>
</g>
<!-- interleave -->
<g id="node21" class="node">
<title>interleave</title>
<polygon fill="#90ee90" stroke="black" points="733,-124 621,-124 621,-88 733,-88 733,-124"/>
<text text-anchor="middle" x="677" y="-109" font-family="Helvetica,sans-Serif" font-size="10.00">memcpy interleave</text>
<text text-anchor="middle" x="677" y="-98" font-family="Helvetica,sans-Serif" font-size="10.00">pixel&#45;by&#45;pixel</text>
</g>
<!-- readline&#45;&gt;interleave -->
<g id="edge23" class="edge">
<title>readline&#45;&gt;interleave</title>
<path fill="none" stroke="black" d="M677,-159.7C677,-151.98 677,-142.71 677,-134.11"/>
<polygon fill="black" stroke="black" points="680.5,-134.1 677,-124.1 673.5,-134.1 680.5,-134.1"/>
</g>
<!-- writeline -->
<g id="node22" class="node">
<title>writeline</title>
<polygon fill="#90ee90" stroke="black" points="712.5,-52 641.5,-52 641.5,-16 712.5,-16 712.5,-52"/>
<text text-anchor="middle" x="677" y="-37" font-family="Helvetica,sans-Serif" font-size="10.00">WriteLine()</text>
<text text-anchor="middle" x="677" y="-26" font-family="Helvetica,sans-Serif" font-size="10.00">output row</text>
</g>
<!-- interleave&#45;&gt;writeline -->
<g id="edge24" class="edge">
<title>interleave&#45;&gt;writeline</title>
<path fill="none" stroke="black" d="M677,-87.7C677,-79.98 677,-70.71 677,-62.11"/>
<polygon fill="black" stroke="black" points="680.5,-62.1 677,-52.1 673.5,-62.1 680.5,-62.1"/>
</g>
</g>
</svg>
