<?xml version="1.0" encoding="UTF-8" standalone="no"?>
<!DOCTYPE svg PUBLIC "-//W3C//DTD SVG 1.1//EN"
 "http://www.w3.org/Graphics/SVG/1.1/DTD/svg11.dtd">
<!-- Generated by graphviz version 2.43.0 (0)
 -->
<!-- Title: iccTiffDump Pages: 1 -->
<svg width="1801pt" height="473pt"
 viewBox="0.00 0.00 1800.53 473.00" xmlns="http://www.w3.org/2000/svg" xmlns:xlink="http://www.w3.org/1999/xlink">
<g id="graph0" class="graph" transform="scale(1 1) rotate(0) translate(4 469)">
<title>iccTiffDump</title>
<polygon fill="white" stroke="transparent" points="-4,4 -4,-469 1796.53,-469 1796.53,4 -4,4"/>
<g id="clust1" class="cluster">
<title>cluster_legend</title>
<polygon fill="none" stroke="black" stroke-dasharray="5,2" points="8,-387 8,-457 380,-457 380,-387 8,-387"/>
<text text-anchor="middle" x="194" y="-445.8" font-family="Times,serif" font-size="9.00">Legend</text>
</g>
<g id="clust2" class="cluster">
<title>cluster_cli</title>
<path fill="none" stroke="black" d="M190,-304C190,-304 481,-304 481,-304 487,-304 493,-310 493,-316 493,-316 493,-367 493,-367 493,-373 487,-379 481,-379 481,-379 190,-379 190,-379 184,-379 178,-373 178,-367 178,-367 178,-316 178,-316 178,-310 184,-304 190,-304"/>
<text text-anchor="middle" x="335.5" y="-363.8" font-family="Times,serif" font-size="14.00">Phase 1: CLI</text>
</g>
<g id="clust3" class="cluster">
<title>cluster_tiff</title>
<path fill="none" stroke="black" d="M1554,-152C1554,-152 1751,-152 1751,-152 1757,-152 1763,-158 1763,-164 1763,-164 1763,-367 1763,-367 1763,-373 1757,-379 1751,-379 1751,-379 1554,-379 1554,-379 1548,-379 1542,-373 1542,-367 1542,-367 1542,-164 1542,-164 1542,-158 1548,-152 1554,-152"/>
<text text-anchor="middle" x="1652.5" y="-363.8" font-family="Times,serif" font-size="14.00">Phase 2: TIFF Header Fields</text>
</g>
<g id="clust4" class="cluster">
<title>cluster_meta</title>
<path fill="none" stroke="black" d="M513,-304C513,-304 721,-304 721,-304 727,-304 733,-310 733,-316 733,-316 733,-367 733,-367 733,-373 727,-379 721,-379 721,-379 513,-379 513,-379 507,-379 501,-373 501,-367 501,-367 501,-316 501,-316 501,-310 507,-304 513,-304"/>
<text text-anchor="middle" x="617" y="-363.8" font-family="Times,serif" font-size="14.00">Phase 3: Metadata (Tool Only)</text>
</g>
<g id="clust5" class="cluster">
<title>cluster_icc</title>
<path fill="none" stroke="red" d="M753,-80C753,-80 1281,-80 1281,-80 1287,-80 1293,-86 1293,-92 1293,-92 1293,-367 1293,-367 1293,-373 1287,-379 1281,-379 1281,-379 753,-379 753,-379 747,-379 741,-373 741,-367 741,-367 741,-92 741,-92 741,-86 747,-80 753,-80"/>
<text text-anchor="middle" x="1017" y="-363.8" font-family="Times,serif" font-size="14.00">Phase 4: ICC Profile Extraction</text>
</g>
<g id="clust6" class="cluster">
<title>cluster_embedded</title>
<path fill="none" stroke="red" d="M1313,-8C1313,-8 1522,-8 1522,-8 1528,-8 1534,-14 1534,-20 1534,-20 1534,-215 1534,-215 1534,-221 1528,-227 1522,-227 1522,-227 1313,-227 1313,-227 1307,-227 1301,-221 1301,-215 1301,-215 1301,-20 1301,-20 1301,-14 1307,-8 1313,-8"/>
<text text-anchor="middle" x="1417.5" y="-211.8" font-family="Times,serif" font-size="14.00">Phase 5: Embedded V5 Profile</text>
</g>
<!-- leg_both -->
<g id="node1" class="node">
<title>leg_both</title>
<polygon fill="#90ee90" stroke="black" points="372,-431 278,-431 278,-395 372,-395 372,-431"/>
<text text-anchor="middle" x="325" y="-410.5" font-family="Helvetica,sans-Serif" font-size="10.00">In Tool + Fuzzer</text>
</g>
<!-- leg_tool -->
<g id="node2" class="node">
<title>leg_tool</title>
<polygon fill="#add8e6" stroke="black" points="260,-431 198,-431 198,-395 260,-395 260,-431"/>
<text text-anchor="middle" x="229" y="-410.5" font-family="Helvetica,sans-Serif" font-size="10.00">Tool Only</text>
</g>
<!-- leg_cli -->
<g id="node3" class="node">
<title>leg_cli</title>
<polygon fill="#d3d3d3" stroke="black" points="179.5,-431 122.5,-431 122.5,-395 179.5,-395 179.5,-431"/>
<text text-anchor="middle" x="151" y="-410.5" font-family="Helvetica,sans-Serif" font-size="10.00">CLI Only</text>
</g>
<!-- leg_hot -->
<g id="node4" class="node">
<title>leg_hot</title>
<polygon fill="#ff6347" stroke="black" points="104,-431 16,-431 16,-395 104,-395 104,-431"/>
<text text-anchor="middle" x="60" y="-410.5" font-family="Helvetica,sans-Serif" font-size="10.00">Attack Surface</text>
</g>
<!-- tool -->
<g id="node5" class="node">
<title>tool</title>
<ellipse fill="#ff6b6b" stroke="black" cx="457" cy="-413" rx="67.35" ry="21.43"/>
<text text-anchor="middle" x="457" y="-416" font-family="Helvetica,sans-Serif" font-size="10.00">main()</text>
<text text-anchor="middle" x="457" y="-405" font-family="Helvetica,sans-Serif" font-size="10.00">iccTiffDump.cpp</text>
</g>
<!-- usage -->
<g id="node7" class="node">
<title>usage</title>
<polygon fill="#d3d3d3" stroke="black" points="484.5,-348 429.5,-348 429.5,-312 484.5,-312 484.5,-348"/>
<text text-anchor="middle" x="457" y="-327.5" font-family="Helvetica,sans-Serif" font-size="10.00">Usage()</text>
</g>
<!-- tool&#45;&gt;usage -->
<g id="edge1" class="edge">
<title>tool&#45;&gt;usage</title>
<path fill="none" stroke="black" stroke-dasharray="5,2" d="M457,-391.56C457,-381.51 457,-369.25 457,-358.4"/>
<polygon fill="black" stroke="black" points="460.5,-358.15 457,-348.15 453.5,-358.15 460.5,-358.15"/>
</g>
<!-- open_file -->
<g id="node8" class="node">
<title>open_file</title>
<polygon fill="#d3d3d3" stroke="black" points="411,-348 279,-348 279,-312 411,-312 411,-348"/>
<text text-anchor="middle" x="345" y="-327.5" font-family="Helvetica,sans-Serif" font-size="10.00">CTiffImg::Open(argv[1])</text>
</g>
<!-- tool&#45;&gt;open_file -->
<g id="edge2" class="edge">
<title>tool&#45;&gt;open_file</title>
<path fill="none" stroke="black" stroke-dasharray="5,2" d="M431.02,-393.21C414.96,-381.59 394.2,-366.59 377.11,-354.22"/>
<polygon fill="black" stroke="black" points="378.7,-351.05 368.55,-348.03 374.6,-356.73 378.7,-351.05"/>
</g>
<!-- export_icc -->
<g id="node9" class="node">
<title>export_icc</title>
<polygon fill="#d3d3d3" stroke="black" points="260.5,-348 185.5,-348 185.5,-312 260.5,-312 260.5,-348"/>
<text text-anchor="middle" x="223" y="-333" font-family="Helvetica,sans-Serif" font-size="10.00">fopen/fwrite</text>
<text text-anchor="middle" x="223" y="-322" font-family="Helvetica,sans-Serif" font-size="10.00">ICC export</text>
</g>
<!-- tool&#45;&gt;export_icc -->
<g id="edge5" class="edge">
<title>tool&#45;&gt;export_icc</title>
<path fill="none" stroke="black" stroke-dasharray="5,2" d="M416.21,-395.95C405.85,-392.45 394.63,-389.16 384,-387 359.11,-381.95 293.05,-389.66 270,-379 258.98,-373.9 249.15,-365.01 241.36,-356.26"/>
<polygon fill="black" stroke="black" points="243.89,-353.82 234.81,-348.37 238.5,-358.3 243.89,-353.82"/>
</g>
<!-- getid -->
<g id="node14" class="node">
<title>getid</title>
<polygon fill="#add8e6" stroke="black" points="637,-348 509,-348 509,-312 637,-312 637,-348"/>
<text text-anchor="middle" x="573" y="-333" font-family="Helvetica,sans-Serif" font-size="10.00">GetId() lookups</text>
<text text-anchor="middle" x="573" y="-322" font-family="Helvetica,sans-Serif" font-size="10.00">planar/photo/compress</text>
</g>
<!-- tool&#45;&gt;getid -->
<g id="edge3" class="edge">
<title>tool&#45;&gt;getid</title>
<path fill="none" stroke="black" d="M483.61,-393.42C500.4,-381.7 522.2,-366.47 540.07,-353.99"/>
<polygon fill="black" stroke="black" points="542.3,-356.71 548.49,-348.11 538.29,-350.97 542.3,-356.71"/>
</g>
<!-- get_icc -->
<g id="node15" class="node">
<title>get_icc</title>
<polygon fill="#90ee90" stroke="black" points="1151,-348 1065,-348 1065,-312 1151,-312 1151,-348"/>
<text text-anchor="middle" x="1108" y="-333" font-family="Helvetica,sans-Serif" font-size="10.00">GetIccProfile()</text>
<text text-anchor="middle" x="1108" y="-322" font-family="Helvetica,sans-Serif" font-size="10.00">/ TIFFGetField</text>
</g>
<!-- tool&#45;&gt;get_icc -->
<g id="edge4" class="edge">
<title>tool&#45;&gt;get_icc</title>
<path fill="none" stroke="black" stroke-width="2" d="M519.3,-404.86C576.06,-398.31 662.19,-388.25 737,-379 850.19,-365.01 982.67,-347.62 1054.71,-338.09"/>
<polygon fill="black" stroke="black" stroke-width="2" points="1055.44,-341.52 1064.89,-336.74 1054.52,-334.58 1055.44,-341.52"/>
</g>
<!-- fuzzer -->
<g id="node6" class="node">
<title>fuzzer</title>
<ellipse fill="#ff6b6b" stroke="black" cx="1690" cy="-413" rx="102.56" ry="21.43"/>
<text text-anchor="middle" x="1690" y="-416" font-family="Helvetica,sans-Serif" font-size="10.00">LLVMFuzzerTestOneInput()</text>
<text text-anchor="middle" x="1690" y="-405" font-family="Helvetica,sans-Serif" font-size="10.00">icc_tiffdump_fuzzer.cpp</text>
</g>
<!-- clientopen -->
<g id="node10" class="node">
<title>clientopen</title>
<polygon fill="#90ee90" stroke="black" stroke-width="2" points="1739.5,-348 1640.5,-348 1640.5,-312 1739.5,-312 1739.5,-348"/>
<text text-anchor="middle" x="1690" y="-333" font-family="Helvetica,sans-Serif" font-size="10.00">TIFFClientOpen()</text>
<text text-anchor="middle" x="1690" y="-322" font-family="Helvetica,sans-Serif" font-size="10.00">in&#45;memory I/O</text>
</g>
<!-- fuzzer&#45;&gt;clientopen -->
<g id="edge6" class="edge">
<title>fuzzer&#45;&gt;clientopen</title>
<path fill="none" stroke="green" stroke-width="2" d="M1690,-391.56C1690,-381.51 1690,-369.25 1690,-358.4"/>
<polygon fill="green" stroke="green" stroke-width="2" points="1693.5,-358.15 1690,-348.15 1686.5,-358.15 1693.5,-358.15"/>
</g>
<!-- getfield -->
<g id="node11" class="node">
<title>getfield</title>
<polygon fill="#90ee90" stroke="black" points="1755,-276 1633,-276 1633,-235 1755,-235 1755,-276"/>
<text text-anchor="middle" x="1694" y="-264" font-family="Helvetica,sans-Serif" font-size="10.00">TIFFGetField × 8</text>
<text text-anchor="middle" x="1694" y="-253" font-family="Helvetica,sans-Serif" font-size="10.00">width,height,spp,bps</text>
<text text-anchor="middle" x="1694" y="-242" font-family="Helvetica,sans-Serif" font-size="10.00">photo,rows,fmt,orient</text>
</g>
<!-- fuzzer&#45;&gt;getfield -->
<g id="edge7" class="edge">
<title>fuzzer&#45;&gt;getfield</title>
<path fill="none" stroke="green" d="M1735.11,-393.85C1740.64,-389.78 1745.56,-384.87 1749,-379 1765.86,-350.25 1762.87,-334.31 1749,-304 1745.38,-296.08 1739.71,-288.98 1733.37,-282.84"/>
<polygon fill="green" stroke="green" points="1735.51,-280.06 1725.69,-276.06 1730.87,-285.3 1735.51,-280.06"/>
</g>
<!-- readdir -->
<g id="node12" class="node">
<title>readdir</title>
<polygon fill="#90ee90" stroke="black" points="1752.5,-196 1637.5,-196 1637.5,-160 1752.5,-160 1752.5,-196"/>
<text text-anchor="middle" x="1695" y="-181" font-family="Helvetica,sans-Serif" font-size="10.00">TIFFReadDirectory()</text>
<text text-anchor="middle" x="1695" y="-170" font-family="Helvetica,sans-Serif" font-size="10.00">multi&#45;page</text>
</g>
<!-- fuzzer&#45;&gt;readdir -->
<g id="edge8" class="edge">
<title>fuzzer&#45;&gt;readdir</title>
<path fill="none" stroke="green" d="M1750.11,-395.61C1757.16,-391.3 1763.45,-385.86 1768,-379 1803.37,-325.63 1793.19,-291.98 1764,-235 1757.32,-221.96 1746.1,-210.89 1734.63,-202.12"/>
<polygon fill="green" stroke="green" points="1736.47,-199.13 1726.3,-196.15 1732.39,-204.82 1736.47,-199.13"/>
</g>
<!-- tiffclose -->
<g id="node13" class="node">
<title>tiffclose</title>
<polygon fill="#90ee90" stroke="black" points="1622,-348 1550,-348 1550,-312 1622,-312 1622,-348"/>
<text text-anchor="middle" x="1586" y="-327.5" font-family="Helvetica,sans-Serif" font-size="10.00">TIFFClose()</text>
</g>
<!-- fuzzer&#45;&gt;tiffclose -->
<g id="edge10" class="edge">
<title>fuzzer&#45;&gt;tiffclose</title>
<path fill="none" stroke="green" d="M1653.07,-393.13C1645.84,-388.85 1638.49,-384.06 1632,-379 1623.26,-372.19 1614.61,-363.74 1607.2,-355.83"/>
<polygon fill="green" stroke="green" points="1609.58,-353.24 1600.26,-348.19 1604.39,-357.94 1609.58,-353.24"/>
</g>
<!-- fuzzer&#45;&gt;get_icc -->
<g id="edge9" class="edge">
<title>fuzzer&#45;&gt;get_icc</title>
<path fill="none" stroke="green" stroke-width="2" d="M1606.92,-400.44C1485.47,-383.53 1262.85,-352.55 1161.18,-338.4"/>
<polygon fill="green" stroke="green" stroke-width="2" points="1161.53,-334.92 1151.14,-337 1160.57,-341.85 1161.53,-334.92"/>
</g>
<!-- clientopen&#45;&gt;getfield -->
<g id="edge21" class="edge">
<title>clientopen&#45;&gt;getfield</title>
<path fill="none" stroke="black" d="M1690.95,-311.82C1691.37,-304.2 1691.88,-295 1692.35,-286.32"/>
<polygon fill="black" stroke="black" points="1695.86,-286.3 1692.92,-276.12 1688.87,-285.91 1695.86,-286.3"/>
</g>
<!-- getfield&#45;&gt;readdir -->
<g id="edge22" class="edge">
<title>getfield&#45;&gt;readdir</title>
<path fill="none" stroke="black" d="M1694.26,-234.66C1694.38,-226.03 1694.51,-215.77 1694.64,-206.42"/>
<polygon fill="black" stroke="black" points="1698.14,-206.44 1694.77,-196.39 1691.14,-206.35 1698.14,-206.44"/>
</g>
<!-- open_icc -->
<g id="node16" class="node">
<title>open_icc</title>
<polygon fill="#ff6347" stroke="black" stroke-width="3" points="1173.5,-273.5 1042.5,-273.5 1042.5,-237.5 1173.5,-237.5 1173.5,-273.5"/>
<text text-anchor="middle" x="1108" y="-258.5" font-family="Helvetica,sans-Serif" font-size="10.00">OpenIccProfile()</text>
<text text-anchor="middle" x="1108" y="-247.5" font-family="Helvetica,sans-Serif" font-size="10.00">MAIN ATTACK SURFACE</text>
</g>
<!-- get_icc&#45;&gt;open_icc -->
<g id="edge11" class="edge">
<title>get_icc&#45;&gt;open_icc</title>
<path fill="none" stroke="red" stroke-width="2" d="M1108,-311.82C1108,-303.42 1108,-293.12 1108,-283.69"/>
<polygon fill="red" stroke="red" stroke-width="2" points="1111.5,-283.56 1108,-273.56 1104.5,-283.56 1111.5,-283.56"/>
</g>
<!-- get_version -->
<g id="node17" class="node">
<title>get_version</title>
<polygon fill="#90ee90" stroke="black" points="855.5,-196 748.5,-196 748.5,-160 855.5,-160 855.5,-196"/>
<text text-anchor="middle" x="802" y="-175.5" font-family="Helvetica,sans-Serif" font-size="10.00">GetVersionName()</text>
</g>
<!-- open_icc&#45;&gt;get_version -->
<g id="edge12" class="edge">
<title>open_icc&#45;&gt;get_version</title>
<path fill="none" stroke="black" d="M1042.4,-251.01C981.66,-247.07 896.17,-239.52 865,-227 851.17,-221.45 837.76,-211.99 826.89,-202.94"/>
<polygon fill="black" stroke="black" points="828.95,-200.09 819.11,-196.16 824.35,-205.37 828.95,-200.09"/>
</g>
<!-- get_colorspace -->
<g id="node18" class="node">
<title>get_colorspace</title>
<polygon fill="#90ee90" stroke="black" points="1014,-196 874,-196 874,-160 1014,-160 1014,-196"/>
<text text-anchor="middle" x="944" y="-175.5" font-family="Helvetica,sans-Serif" font-size="10.00">GetColorSpaceSigName()</text>
</g>
<!-- open_icc&#45;&gt;get_colorspace -->
<g id="edge13" class="edge">
<title>open_icc&#45;&gt;get_colorspace</title>
<path fill="none" stroke="black" d="M1049.24,-237.48C1040.32,-234.32 1031.32,-230.81 1023,-227 1007.44,-219.87 991.13,-210.36 977.41,-201.67"/>
<polygon fill="black" stroke="black" points="979.09,-198.6 968.79,-196.12 975.3,-204.48 979.09,-198.6"/>
</g>
<!-- get_spectral -->
<g id="node19" class="node">
<title>get_spectral</title>
<polygon fill="#90ee90" stroke="black" points="1183.5,-196 1032.5,-196 1032.5,-160 1183.5,-160 1183.5,-196"/>
<text text-anchor="middle" x="1108" y="-175.5" font-family="Helvetica,sans-Serif" font-size="10.00">GetSpectralColorSigName()</text>
</g>
<!-- open_icc&#45;&gt;get_spectral -->
<g id="edge14" class="edge">
<title>open_icc&#45;&gt;get_spectral</title>
<path fill="none" stroke="black" d="M1108,-237.37C1108,-228.2 1108,-216.69 1108,-206.31"/>
<polygon fill="black" stroke="black" points="1111.5,-206.06 1108,-196.06 1104.5,-206.06 1111.5,-206.06"/>
</g>
<!-- find_desc -->
<g id="node21" class="node">
<title>find_desc</title>
<polygon fill="#90ee90" stroke="black" points="1284.5,-196 1201.5,-196 1201.5,-160 1284.5,-160 1284.5,-196"/>
<text text-anchor="middle" x="1243" y="-175.5" font-family="Helvetica,sans-Serif" font-size="10.00">FindTag(desc)</text>
</g>
<!-- open_icc&#45;&gt;find_desc -->
<g id="edge16" class="edge">
<title>open_icc&#45;&gt;find_desc</title>
<path fill="none" stroke="black" d="M1170.82,-237.35C1178.18,-234.35 1185.4,-230.92 1192,-227 1202.67,-220.66 1212.95,-211.75 1221.44,-203.32"/>
<polygon fill="black" stroke="black" points="1223.97,-205.73 1228.41,-196.11 1218.94,-200.86 1223.97,-205.73"/>
</g>
<!-- find_embedded -->
<g id="node23" class="node">
<title>find_embedded</title>
<polygon fill="#90ee90" stroke="black" points="1434.5,-196 1309.5,-196 1309.5,-160 1434.5,-160 1434.5,-196"/>
<text text-anchor="middle" x="1372" y="-175.5" font-family="Helvetica,sans-Serif" font-size="10.00">FindTag(embeddedV5)</text>
</g>
<!-- open_icc&#45;&gt;find_embedded -->
<g id="edge18" class="edge">
<title>open_icc&#45;&gt;find_embedded</title>
<path fill="none" stroke="black" d="M1173.55,-251.8C1210.72,-248.6 1257.54,-241.71 1297,-227 1313.04,-221.02 1329.24,-211.23 1342.46,-202.05"/>
<polygon fill="black" stroke="black" points="1344.59,-204.82 1350.68,-196.15 1340.51,-199.13 1344.59,-204.82"/>
</g>
<!-- f16tof -->
<g id="node20" class="node">
<title>f16tof</title>
<polygon fill="#90ee90" stroke="black" points="1154,-124 1062,-124 1062,-88 1154,-88 1154,-124"/>
<text text-anchor="middle" x="1108" y="-109" font-family="Helvetica,sans-Serif" font-size="10.00">icF16toF()</text>
<text text-anchor="middle" x="1108" y="-98" font-family="Helvetica,sans-Serif" font-size="10.00">spectral ranges</text>
</g>
<!-- get_spectral&#45;&gt;f16tof -->
<g id="edge15" class="edge">
<title>get_spectral&#45;&gt;f16tof</title>
<path fill="none" stroke="black" d="M1108,-159.7C1108,-151.98 1108,-142.71 1108,-134.11"/>
<polygon fill="black" stroke="black" points="1111.5,-134.1 1108,-124.1 1104.5,-134.1 1111.5,-134.1"/>
</g>
<!-- get_text -->
<g id="node22" class="node">
<title>get_text</title>
<polygon fill="#90ee90" stroke="black" points="1280,-124 1206,-124 1206,-88 1280,-88 1280,-124"/>
<text text-anchor="middle" x="1243" y="-109" font-family="Helvetica,sans-Serif" font-size="10.00">GetText()</text>
<text text-anchor="middle" x="1243" y="-98" font-family="Helvetica,sans-Serif" font-size="10.00">v2/v4 types</text>
</g>
<!-- find_desc&#45;&gt;get_text -->
<g id="edge17" class="edge">
<title>find_desc&#45;&gt;get_text</title>
<path fill="none" stroke="black" d="M1243,-159.7C1243,-151.98 1243,-142.71 1243,-134.11"/>
<polygon fill="black" stroke="black" points="1246.5,-134.1 1243,-124.1 1239.5,-134.1 1246.5,-134.1"/>
</g>
<!-- get_subprofile -->
<g id="node24" class="node">
<title>get_subprofile</title>
<polygon fill="#ff6347" stroke="black" stroke-width="2" points="1408,-124 1336,-124 1336,-88 1408,-88 1408,-124"/>
<text text-anchor="middle" x="1372" y="-109" font-family="Helvetica,sans-Serif" font-size="10.00">GetProfile()</text>
<text text-anchor="middle" x="1372" y="-98" font-family="Helvetica,sans-Serif" font-size="10.00">recursive</text>
</g>
<!-- find_embedded&#45;&gt;get_subprofile -->
<g id="edge19" class="edge">
<title>find_embedded&#45;&gt;get_subprofile</title>
<path fill="none" stroke="red" d="M1372,-159.7C1372,-151.98 1372,-142.71 1372,-134.11"/>
<polygon fill="red" stroke="red" points="1375.5,-134.1 1372,-124.1 1368.5,-134.1 1375.5,-134.1"/>
</g>
<!-- readtags -->
<g id="node25" class="node">
<title>readtags</title>
<polygon fill="#90ee90" stroke="black" points="1407.5,-52 1336.5,-52 1336.5,-16 1407.5,-16 1407.5,-52"/>
<text text-anchor="middle" x="1372" y="-31.5" font-family="Helvetica,sans-Serif" font-size="10.00">ReadTags()</text>
</g>
<!-- get_subprofile&#45;&gt;readtags -->
<g id="edge20" class="edge">
<title>get_subprofile&#45;&gt;readtags</title>
<path fill="none" stroke="black" d="M1372,-87.7C1372,-79.98 1372,-70.71 1372,-62.11"/>
<polygon fill="black" stroke="black" points="1375.5,-62.1 1372,-52.1 1368.5,-62.1 1375.5,-62.1"/>
</g>
</g>
</svg>
