<?xml version="1.0" encoding="UTF-8" standalone="no"?>
<!DOCTYPE svg PUBLIC "-//W3C//DTD SVG 1.1//EN"
 "http://www.w3.org/Graphics/SVG/1.1/DTD/svg11.dtd">
<!-- Generated by graphviz version 2.43.0 (0)
 -->
<!-- Title: iccDumpProfile Pages: 1 -->
<svg width="9903pt" height="445pt"
 viewBox="0.00 0.00 9902.71 444.96" xmlns="http://www.w3.org/2000/svg" xmlns:xlink="http://www.w3.org/1999/xlink">
<g id="graph0" class="graph" transform="scale(1 1) rotate(0) translate(4 440.96)">
<title>iccDumpProfile</title>
<polygon fill="white" stroke="transparent" points="-4,4 -4,-440.96 9898.71,-440.96 9898.71,4 -4,4"/>
<!-- DumpTagCore -->
<g id="node1" class="node">
<title>DumpTagCore</title>
<polygon fill="lightyellow" stroke="black" points="923.71,-245.35 789.71,-245.35 789.71,-207.35 923.71,-207.35 923.71,-245.35"/>
<text text-anchor="middle" x="856.71" y="-230.15" font-family="Helvetica,sans-Serif" font-size="14.00">DumpTagCore()</text>
<text text-anchor="middle" x="856.71" y="-215.15" font-family="Helvetica,sans-Serif" font-size="14.00">L93&#45;114 (8 calls)</text>
</g>
<!-- Fmt_GetTagSigName -->
<g id="node6" class="node">
<title>Fmt_GetTagSigName</title>
<ellipse fill="lightblue" stroke="black" cx="1283.71" cy="-126.61" rx="125.32" ry="26.74"/>
<text text-anchor="middle" x="1283.71" y="-130.41" font-family="Helvetica,sans-Serif" font-size="14.00">Fmt.GetTagSigName</text>
<text text-anchor="middle" x="1283.71" y="-115.41" font-family="Helvetica,sans-Serif" font-size="14.00">L102,334,391,414,422</text>
</g>
<!-- DumpTagCore&#45;&gt;Fmt_GetTagSigName -->
<g id="edge1" class="edge">
<title>DumpTagCore&#45;&gt;Fmt_GetTagSigName</title>
<path fill="none" stroke="red" stroke-width="2" d="M910.49,-207.27C919.53,-204.49 928.85,-201.78 937.71,-199.48 976.76,-189.33 987.18,-189.62 1026.71,-181.48 1079.65,-170.58 1138.69,-158.22 1186.82,-148.09"/>
<polygon fill="red" stroke="red" stroke-width="2" points="1187.54,-151.51 1196.6,-146.03 1186.1,-144.66 1187.54,-151.51"/>
<text text-anchor="middle" x="1100.21" y="-174.28" font-family="Helvetica,sans-Serif" font-size="9.00">pTag != NULL</text>
</g>
<!-- icGetSig -->
<g id="node7" class="node">
<title>icGetSig</title>
<ellipse fill="salmon" stroke="black" cx="169.71" cy="-26.87" rx="169.91" ry="26.74"/>
<text text-anchor="middle" x="169.71" y="-30.67" font-family="Helvetica,sans-Serif" font-size="14.00">icGetSig</text>
<text text-anchor="middle" x="169.71" y="-15.67" font-family="Helvetica,sans-Serif" font-size="14.00">L102,107,112,249,250,258,335</text>
</g>
<!-- DumpTagCore&#45;&gt;icGetSig -->
<g id="edge2" class="edge">
<title>DumpTagCore&#45;&gt;icGetSig</title>
<path fill="none" stroke="red" stroke-width="2" d="M810.22,-207.3C800.59,-204.2 790.42,-201.37 780.71,-199.48 698.31,-183.49 84.09,-214.73 26.71,-153.48 10.38,-136.05 14.17,-120.07 26.71,-99.74 38.84,-80.07 58.19,-65.59 78.78,-55.01"/>
<polygon fill="red" stroke="red" stroke-width="2" points="80.5,-58.06 87.98,-50.56 77.46,-51.76 80.5,-58.06"/>
<text text-anchor="middle" x="58.21" y="-124.41" font-family="Helvetica,sans-Serif" font-size="9.00">pTag != NULL</text>
</g>
<!-- pTag__IsArrayType -->
<g id="node8" class="node">
<title>pTag__IsArrayType</title>
<ellipse fill="lightblue" stroke="black" cx="362.71" cy="-126.61" rx="103.89" ry="26.74"/>
<text text-anchor="middle" x="362.71" y="-130.41" font-family="Helvetica,sans-Serif" font-size="14.00">pTag&#45;&gt;IsArrayType</text>
<text text-anchor="middle" x="362.71" y="-115.41" font-family="Helvetica,sans-Serif" font-size="14.00">L104</text>
</g>
<!-- DumpTagCore&#45;&gt;pTag__IsArrayType -->
<g id="edge3" class="edge">
<title>DumpTagCore&#45;&gt;pTag__IsArrayType</title>
<path fill="none" stroke="red" stroke-width="2" d="M808.03,-207.35C799.02,-204.43 789.64,-201.66 780.71,-199.48 772.38,-197.45 484.12,-155.08 475.71,-153.48 466.39,-151.71 456.67,-149.72 447.02,-147.64"/>
<polygon fill="red" stroke="red" stroke-width="2" points="447.51,-144.17 437,-145.46 446.02,-151.01 447.51,-144.17"/>
<text text-anchor="middle" x="687.21" y="-174.28" font-family="Helvetica,sans-Serif" font-size="9.00">pTag != NULL</text>
</g>
<!-- Fmt_GetTagTypeSigName -->
<g id="node9" class="node">
<title>Fmt_GetTagTypeSigName</title>
<ellipse fill="lightblue" stroke="black" cx="618.71" cy="-126.61" rx="133.79" ry="26.74"/>
<text text-anchor="middle" x="618.71" y="-130.41" font-family="Helvetica,sans-Serif" font-size="14.00">Fmt.GetTagTypeSigName</text>
<text text-anchor="middle" x="618.71" y="-115.41" font-family="Helvetica,sans-Serif" font-size="14.00">L107</text>
</g>
<!-- DumpTagCore&#45;&gt;Fmt_GetTagTypeSigName -->
<g id="edge4" class="edge">
<title>DumpTagCore&#45;&gt;Fmt_GetTagTypeSigName</title>
<path fill="none" stroke="red" stroke-width="2" d="M812.78,-207.31C777.01,-192.62 725.96,-171.66 685.2,-154.92"/>
<polygon fill="red" stroke="red" stroke-width="2" points="686.45,-151.65 675.87,-151.09 683.79,-158.12 686.45,-151.65"/>
<text text-anchor="middle" x="777.21" y="-174.28" font-family="Helvetica,sans-Serif" font-size="9.00">pTag != NULL</text>
</g>
<!-- pTag__GetType -->
<g id="node10" class="node">
<title>pTag__GetType</title>
<ellipse fill="lightblue" stroke="black" cx="856.71" cy="-126.61" rx="86.03" ry="26.74"/>
<text text-anchor="middle" x="856.71" y="-130.41" font-family="Helvetica,sans-Serif" font-size="14.00">pTag&#45;&gt;GetType</text>
<text text-anchor="middle" x="856.71" y="-115.41" font-family="Helvetica,sans-Serif" font-size="14.00">L107</text>
</g>
<!-- DumpTagCore&#45;&gt;pTag__GetType -->
<g id="edge5" class="edge">
<title>DumpTagCore&#45;&gt;pTag__GetType</title>
<path fill="none" stroke="red" stroke-width="2" d="M856.71,-206.97C856.71,-194.86 856.71,-178.61 856.71,-163.96"/>
<polygon fill="red" stroke="red" stroke-width="2" points="860.21,-163.66 856.71,-153.66 853.21,-163.66 860.21,-163.66"/>
<text text-anchor="middle" x="888.21" y="-174.28" font-family="Helvetica,sans-Serif" font-size="9.00">pTag != NULL</text>
</g>
<!-- pTag__Describe -->
<g id="node11" class="node">
<title>pTag__Describe</title>
<ellipse fill="lightblue" stroke="black" cx="1050.71" cy="-126.61" rx="89.61" ry="26.74"/>
<text text-anchor="middle" x="1050.71" y="-130.41" font-family="Helvetica,sans-Serif" font-size="14.00">pTag&#45;&gt;Describe</text>
<text text-anchor="middle" x="1050.71" y="-115.41" font-family="Helvetica,sans-Serif" font-size="14.00">L108</text>
</g>
<!-- DumpTagCore&#45;&gt;pTag__Describe -->
<g id="edge6" class="edge">
<title>DumpTagCore&#45;&gt;pTag__Describe</title>
<path fill="none" stroke="red" stroke-width="2" d="M892.74,-207.2C921.99,-192.46 963.67,-171.46 996.87,-154.73"/>
<polygon fill="red" stroke="red" stroke-width="2" points="998.64,-157.76 1006,-150.14 995.49,-151.51 998.64,-157.76"/>
<text text-anchor="middle" x="991.21" y="-174.28" font-family="Helvetica,sans-Serif" font-size="9.00">pTag != NULL</text>
</g>
<!-- gate_0 -->
<g id="node37" class="node">
<title>gate_0</title>
<polygon fill="orange" stroke="black" points="169.71,-152.61 98.71,-126.61 169.71,-100.61 240.71,-126.61 169.71,-152.61"/>
<text text-anchor="middle" x="169.71" y="-129.21" font-family="Helvetica,sans-Serif" font-size="8.00">GATE L101</text>
<text text-anchor="middle" x="169.71" y="-120.21" font-family="Helvetica,sans-Serif" font-size="8.00">pTag != NULL</text>
</g>
<!-- DumpTagCore&#45;&gt;gate_0 -->
<g id="edge39" class="edge">
<title>DumpTagCore&#45;&gt;gate_0</title>
<path fill="none" stroke="gray" stroke-dasharray="5,2" d="M809.36,-207.27C799.98,-204.25 790.12,-201.46 780.71,-199.48 722.75,-187.29 307.75,-165.22 249.71,-153.48 237.63,-151.04 224.83,-147.4 213.09,-143.61"/>
<polygon fill="gray" stroke="gray" points="214.1,-140.26 203.51,-140.42 211.89,-146.9 214.1,-140.26"/>
</g>
<!-- DumpTagSig -->
<g id="node2" class="node">
<title>DumpTagSig</title>
<polygon fill="lightyellow" stroke="black" points="928.21,-345.09 785.21,-345.09 785.21,-307.09 928.21,-307.09 928.21,-345.09"/>
<text text-anchor="middle" x="856.71" y="-329.89" font-family="Helvetica,sans-Serif" font-size="14.00">DumpTagSig()</text>
<text text-anchor="middle" x="856.71" y="-314.89" font-family="Helvetica,sans-Serif" font-size="14.00">L117&#45;121 (2 calls)</text>
</g>
<!-- DumpTagSig&#45;&gt;DumpTagCore -->
<g id="edge8" class="edge">
<title>DumpTagSig&#45;&gt;DumpTagCore</title>
<path fill="none" stroke="black" d="M856.71,-306.71C856.71,-292.37 856.71,-272.21 856.71,-255.8"/>
<polygon fill="black" stroke="black" points="860.21,-255.65 856.71,-245.65 853.21,-255.65 860.21,-255.65"/>
</g>
<!-- pIcc__FindTag_sig_ -->
<g id="node12" class="node">
<title>pIcc__FindTag_sig_</title>
<ellipse fill="lightblue" stroke="black" cx="668.71" cy="-226.35" rx="102.56" ry="26.74"/>
<text text-anchor="middle" x="668.71" y="-230.15" font-family="Helvetica,sans-Serif" font-size="14.00">pIcc&#45;&gt;FindTag(sig)</text>
<text text-anchor="middle" x="668.71" y="-215.15" font-family="Helvetica,sans-Serif" font-size="14.00">L119</text>
</g>
<!-- DumpTagSig&#45;&gt;pIcc__FindTag_sig_ -->
<g id="edge7" class="edge">
<title>DumpTagSig&#45;&gt;pIcc__FindTag_sig_</title>
<path fill="none" stroke="black" d="M821.78,-306.94C793.95,-292.46 754.49,-271.95 722.61,-255.37"/>
<polygon fill="black" stroke="black" points="723.9,-252.1 713.41,-250.59 720.67,-258.31 723.9,-252.1"/>
</g>
<!-- DumpTagEntry -->
<g id="node3" class="node">
<title>DumpTagEntry</title>
<ellipse fill="lightblue" stroke="black" cx="1060.71" cy="-326.09" rx="84.29" ry="26.74"/>
<text text-anchor="middle" x="1060.71" y="-329.89" font-family="Helvetica,sans-Serif" font-size="14.00">DumpTagEntry</text>
<text text-anchor="middle" x="1060.71" y="-314.89" font-family="Helvetica,sans-Serif" font-size="14.00">L443</text>
</g>
<!-- DumpTagEntry&#45;&gt;DumpTagCore -->
<g id="edge10" class="edge">
<title>DumpTagEntry&#45;&gt;DumpTagCore</title>
<path fill="none" stroke="black" d="M1015.43,-303.4C982.17,-287.46 937.11,-265.87 903.5,-249.77"/>
<polygon fill="black" stroke="black" points="904.87,-246.55 894.34,-245.38 901.84,-252.86 904.87,-246.55"/>
</g>
<!-- pIcc__FindTag_entry_ -->
<g id="node13" class="node">
<title>pIcc__FindTag_entry_</title>
<ellipse fill="lightblue" stroke="black" cx="1060.71" cy="-226.35" rx="113.69" ry="26.74"/>
<text text-anchor="middle" x="1060.71" y="-230.15" font-family="Helvetica,sans-Serif" font-size="14.00">pIcc&#45;&gt;FindTag(entry)</text>
<text text-anchor="middle" x="1060.71" y="-215.15" font-family="Helvetica,sans-Serif" font-size="14.00">L126</text>
</g>
<!-- DumpTagEntry&#45;&gt;pIcc__FindTag_entry_ -->
<g id="edge9" class="edge">
<title>DumpTagEntry&#45;&gt;pIcc__FindTag_entry_</title>
<path fill="none" stroke="black" d="M1060.71,-299.15C1060.71,-288.22 1060.71,-275.3 1060.71,-263.46"/>
<polygon fill="black" stroke="black" points="1064.21,-263.41 1060.71,-253.41 1057.21,-263.41 1064.21,-263.41"/>
</g>
<!-- printUsage -->
<g id="node4" class="node">
<title>printUsage</title>
<polygon fill="lightgray" stroke="black" points="1408.21,-345.09 1265.21,-345.09 1265.21,-307.09 1408.21,-307.09 1408.21,-345.09"/>
<text text-anchor="middle" x="1336.71" y="-329.89" font-family="Helvetica,sans-Serif" font-size="14.00">printUsage()</text>
<text text-anchor="middle" x="1336.71" y="-314.89" font-family="Helvetica,sans-Serif" font-size="14.00">L130&#45;136 (0 calls)</text>
</g>
<!-- main -->
<g id="node5" class="node">
<title>main</title>
<polygon fill="lightgreen" stroke="black" points="4989.71,-436.96 4837.71,-436.96 4837.71,-398.96 4989.71,-398.96 4989.71,-436.96"/>
<text text-anchor="middle" x="4913.71" y="-421.76" font-family="Helvetica,sans-Serif" font-size="14.00">main()</text>
<text text-anchor="middle" x="4913.71" y="-406.76" font-family="Helvetica,sans-Serif" font-size="14.00">L139&#45;496 (42 calls)</text>
</g>
<!-- main&#45;&gt;DumpTagSig -->
<g id="edge38" class="edge">
<title>main&#45;&gt;DumpTagSig</title>
<path fill="none" stroke="gray" stroke-dasharray="5,2" d="M4837.32,-416.97C4292.77,-416.97 1018.29,-415.5 922.71,-380.96 906.39,-375.06 891.17,-363.26 879.46,-352.2"/>
<polygon fill="gray" stroke="gray" points="881.87,-349.66 872.3,-345.11 876.95,-354.63 881.87,-349.66"/>
<text text-anchor="middle" x="993.71" y="-373.76" font-family="Helvetica,sans-Serif" font-size="9.00">argv has tag arg &amp;&amp; arg!=&#39;ALL&#39;</text>
</g>
<!-- main&#45;&gt;DumpTagEntry -->
<g id="edge36" class="edge">
<title>main&#45;&gt;DumpTagEntry</title>
<path fill="none" stroke="black" d="M4837.46,-416.86C4301.12,-416.1 1115.68,-410.33 1076.71,-380.96 1070.76,-376.48 1066.94,-369.88 1064.5,-362.83"/>
<polygon fill="black" stroke="black" points="1067.87,-361.88 1061.97,-353.09 1061.1,-363.65 1067.87,-361.88"/>
<text text-anchor="middle" x="1149.71" y="-373.76" font-family="Helvetica,sans-Serif" font-size="9.00">argv has tag arg &amp;&amp; arg==&#39;ALL&#39;</text>
</g>
<!-- main&#45;&gt;printUsage -->
<g id="edge11" class="edge">
<title>main&#45;&gt;printUsage</title>
<path fill="none" stroke="gray" stroke-dasharray="5,2" d="M4837.52,-417.14C4329.83,-418.24 1454.06,-422.61 1374.71,-380.96 1363.58,-375.12 1355,-364.37 1348.84,-354.01"/>
<polygon fill="gray" stroke="gray" points="1351.87,-352.26 1344.04,-345.13 1345.72,-355.59 1351.87,-352.26"/>
<text text-anchor="middle" x="1398.71" y="-373.76" font-family="Helvetica,sans-Serif" font-size="9.00">argc &lt;= 1</text>
</g>
<!-- main&#45;&gt;Fmt_GetTagSigName -->
<g id="edge33" class="edge">
<title>main&#45;&gt;Fmt_GetTagSigName</title>
<path fill="none" stroke="black" d="M4837.47,-416.75C4336.94,-415.3 1535.8,-406.11 1357.71,-380.96 1311.58,-374.45 1284.9,-390.04 1256.71,-352.96 1214.44,-297.39 1243.62,-210.79 1265.59,-162.73"/>
<polygon fill="black" stroke="black" points="1268.77,-164.19 1269.86,-153.66 1262.43,-161.21 1268.77,-164.19"/>
<text text-anchor="middle" x="1262.71" y="-274.02" font-family="Helvetica,sans-Serif" font-size="9.00">tag iteration</text>
</g>
<!-- main&#45;&gt;icGetSig -->
<g id="edge20" class="edge">
<title>main&#45;&gt;icGetSig</title>
<path fill="none" stroke="red" stroke-width="2" d="M4837.42,-416.9C4373.5,-416.45 1940.1,-412.57 1609.71,-380.96 1529.54,-373.29 1436.71,-407.62 1436.71,-327.09 1436.71,-327.09 1436.71,-327.09 1436.71,-125.61 1436.71,-111.34 1430.24,-106.55 1417.71,-99.74 1326.32,-50.12 672.19,-34.51 349.21,-29.8"/>
<polygon fill="red" stroke="red" stroke-width="2" points="348.86,-26.3 338.81,-29.65 348.76,-33.3 348.86,-26.3"/>
<text text-anchor="middle" x="1467.21" y="-224.15" font-family="Helvetica,sans-Serif" font-size="9.00">pIcc != NULL</text>
</g>
<!-- strncmp -->
<g id="node14" class="node">
<title>strncmp</title>
<ellipse fill="lightgray" stroke="black" cx="1516.71" cy="-326.09" rx="52.15" ry="26.74"/>
<text text-anchor="middle" x="1516.71" y="-329.89" font-family="Helvetica,sans-Serif" font-size="14.00">strncmp</text>
<text text-anchor="middle" x="1516.71" y="-314.89" font-family="Helvetica,sans-Serif" font-size="14.00">L172</text>
</g>
<!-- main&#45;&gt;strncmp -->
<g id="edge12" class="edge">
<title>main&#45;&gt;strncmp</title>
<path fill="none" stroke="gray" stroke-dasharray="5,2" d="M4837.61,-416.91C4361.65,-416.53 1809.05,-412.96 1647.71,-380.96 1617.65,-375 1585.83,-362.08 1561.07,-350.39"/>
<polygon fill="gray" stroke="gray" points="1562.47,-347.18 1551.95,-345.99 1559.43,-353.49 1562.47,-347.18"/>
</g>
<!-- strtol -->
<g id="node15" class="node">
<title>strtol</title>
<ellipse fill="lightgray" stroke="black" cx="1645.71" cy="-326.09" rx="58.88" ry="26.74"/>
<text text-anchor="middle" x="1645.71" y="-329.89" font-family="Helvetica,sans-Serif" font-size="14.00">strtol</text>
<text text-anchor="middle" x="1645.71" y="-314.89" font-family="Helvetica,sans-Serif" font-size="14.00">L181,204</text>
</g>
<!-- main&#45;&gt;strtol -->
<g id="edge13" class="edge">
<title>main&#45;&gt;strtol</title>
<path fill="none" stroke="gray" stroke-dasharray="5,2" d="M4837.69,-416.75C4351.08,-415.3 1692.05,-406.26 1659.71,-380.96 1654.03,-376.52 1650.47,-370.1 1648.28,-363.22"/>
<polygon fill="gray" stroke="gray" points="1651.59,-361.98 1645.96,-353 1644.76,-363.53 1651.59,-361.98"/>
<text text-anchor="middle" x="1693.21" y="-373.76" font-family="Helvetica,sans-Serif" font-size="9.00">&#45;v flag present</text>
</g>
<!-- ValidateIccProfile -->
<g id="node16" class="node">
<title>ValidateIccProfile</title>
<ellipse fill="salmon" stroke="black" cx="1793.71" cy="-226.35" rx="94.51" ry="26.74"/>
<text text-anchor="middle" x="1793.71" y="-230.15" font-family="Helvetica,sans-Serif" font-size="14.00">ValidateIccProfile</text>
<text text-anchor="middle" x="1793.71" y="-215.15" font-family="Helvetica,sans-Serif" font-size="14.00">L198</text>
</g>
<!-- main&#45;&gt;ValidateIccProfile -->
<g id="edge14" class="edge">
<title>main&#45;&gt;ValidateIccProfile</title>
<path fill="none" stroke="black" d="M4837.6,-416.55C4450.29,-414.39 2695.33,-403.5 2150.71,-380.96 1972.2,-373.57 1871.56,-483.62 1749.71,-352.96 1726,-327.54 1745.35,-288.62 1765.34,-260.84"/>
<polygon fill="black" stroke="black" points="1768.31,-262.71 1771.51,-252.61 1762.71,-258.51 1768.31,-262.71"/>
<text text-anchor="middle" x="1783.21" y="-323.89" font-family="Helvetica,sans-Serif" font-size="9.00">&#45;v flag present</text>
</g>
<!-- OpenIccProfile -->
<g id="node17" class="node">
<title>OpenIccProfile</title>
<ellipse fill="salmon" stroke="black" cx="2113.71" cy="-326.09" rx="82.05" ry="26.74"/>
<text text-anchor="middle" x="2113.71" y="-329.89" font-family="Helvetica,sans-Serif" font-size="14.00">OpenIccProfile</text>
<text text-anchor="middle" x="2113.71" y="-314.89" font-family="Helvetica,sans-Serif" font-size="14.00">L218</text>
</g>
<!-- main&#45;&gt;OpenIccProfile -->
<g id="edge15" class="edge">
<title>main&#45;&gt;OpenIccProfile</title>
<path fill="none" stroke="black" d="M4837.42,-416.43C4486.18,-413.9 3022.42,-402.25 2564.71,-380.96 2404.4,-373.51 2362.67,-381.27 2204.71,-352.96 2197.09,-351.6 2189.19,-349.86 2181.38,-347.93"/>
<polygon fill="black" stroke="black" points="2182.11,-344.5 2171.56,-345.4 2180.37,-351.28 2182.11,-344.5"/>
<text text-anchor="middle" x="2596.21" y="-373.76" font-family="Helvetica,sans-Serif" font-size="9.00">&#45;v flag absent</text>
</g>
<!-- Fmt_IsProfileIDCalculated -->
<g id="node18" class="node">
<title>Fmt_IsProfileIDCalculated</title>
<ellipse fill="lightblue" stroke="black" cx="2348.71" cy="-326.09" rx="135.11" ry="26.74"/>
<text text-anchor="middle" x="2348.71" y="-329.89" font-family="Helvetica,sans-Serif" font-size="14.00">Fmt.IsProfileIDCalculated</text>
<text text-anchor="middle" x="2348.71" y="-314.89" font-family="Helvetica,sans-Serif" font-size="14.00">L236</text>
</g>
<!-- main&#45;&gt;Fmt_IsProfileIDCalculated -->
<g id="edge16" class="edge">
<title>main&#45;&gt;Fmt_IsProfileIDCalculated</title>
<path fill="none" stroke="red" stroke-width="2" d="M4837.54,-416.57C4505.03,-414.74 3178.86,-405.97 2762.71,-380.96 2642.28,-373.72 2612.16,-369.86 2492.71,-352.96 2480.08,-351.17 2466.87,-349.09 2453.79,-346.9"/>
<polygon fill="red" stroke="red" stroke-width="2" points="2454.26,-343.43 2443.82,-345.21 2453.09,-350.34 2454.26,-343.43"/>
<text text-anchor="middle" x="2793.21" y="-373.76" font-family="Helvetica,sans-Serif" font-size="9.00">pIcc != NULL</text>
</g>
<!-- Fmt_GetProfileID -->
<g id="node19" class="node">
<title>Fmt_GetProfileID</title>
<ellipse fill="lightblue" stroke="black" cx="2593.71" cy="-326.09" rx="91.85" ry="26.74"/>
<text text-anchor="middle" x="2593.71" y="-329.89" font-family="Helvetica,sans-Serif" font-size="14.00">Fmt.GetProfileID</text>
<text text-anchor="middle" x="2593.71" y="-314.89" font-family="Helvetica,sans-Serif" font-size="14.00">L237</text>
</g>
<!-- main&#45;&gt;Fmt_GetProfileID -->
<g id="edge17" class="edge">
<title>main&#45;&gt;Fmt_GetProfileID</title>
<path fill="none" stroke="black" d="M4837.33,-417.36C4580.44,-418.3 3724.15,-418.24 3017.71,-380.96 2873.81,-373.37 2836.76,-377.14 2694.71,-352.96 2686.08,-351.49 2677.12,-349.66 2668.25,-347.65"/>
<polygon fill="black" stroke="black" points="2668.83,-344.19 2658.29,-345.31 2667.23,-351 2668.83,-344.19"/>
<text text-anchor="middle" x="3081.21" y="-373.76" font-family="Helvetica,sans-Serif" font-size="9.00">pIcc &amp;&amp; profileID calculated</text>
</g>
<!-- Fmt_GetDeviceAttrName -->
<g id="node20" class="node">
<title>Fmt_GetDeviceAttrName</title>
<ellipse fill="lightblue" stroke="black" cx="2834.71" cy="-326.09" rx="130.63" ry="26.74"/>
<text text-anchor="middle" x="2834.71" y="-329.89" font-family="Helvetica,sans-Serif" font-size="14.00">Fmt.GetDeviceAttrName</text>
<text text-anchor="middle" x="2834.71" y="-314.89" font-family="Helvetica,sans-Serif" font-size="14.00">L244</text>
</g>
<!-- main&#45;&gt;Fmt_GetDeviceAttrName -->
<g id="edge18" class="edge">
<title>main&#45;&gt;Fmt_GetDeviceAttrName</title>
<path fill="none" stroke="red" stroke-width="2" d="M4837.62,-416.59C4611.16,-415.19 3921.72,-408.78 3350.71,-380.96 3183.33,-372.81 3140.9,-374.44 2974.71,-352.96 2962.11,-351.33 2948.92,-349.31 2935.9,-347.13"/>
<polygon fill="red" stroke="red" stroke-width="2" points="2936.43,-343.67 2925.98,-345.43 2935.25,-350.57 2936.43,-343.67"/>
<text text-anchor="middle" x="3381.21" y="-373.76" font-family="Helvetica,sans-Serif" font-size="9.00">pIcc != NULL</text>
</g>
<!-- Fmt_GetCmmSigName -->
<g id="node21" class="node">
<title>Fmt_GetCmmSigName</title>
<ellipse fill="lightblue" stroke="black" cx="3104.71" cy="-326.09" rx="120.83" ry="26.74"/>
<text text-anchor="middle" x="3104.71" y="-329.89" font-family="Helvetica,sans-Serif" font-size="14.00">Fmt.GetCmmSigName</text>
<text text-anchor="middle" x="3104.71" y="-314.89" font-family="Helvetica,sans-Serif" font-size="14.00">L245</text>
</g>
<!-- main&#45;&gt;Fmt_GetCmmSigName -->
<g id="edge19" class="edge">
<title>main&#45;&gt;Fmt_GetCmmSigName</title>
<path fill="none" stroke="red" stroke-width="2" d="M4837.35,-415.68C4642.85,-412.21 4112.91,-401.48 3671.71,-380.96 3477.3,-371.92 3427.68,-378.23 3234.71,-352.96 3223.03,-351.43 3210.83,-349.48 3198.78,-347.34"/>
<polygon fill="red" stroke="red" stroke-width="2" points="3199.17,-343.85 3188.7,-345.5 3197.91,-350.74 3199.17,-343.85"/>
<text text-anchor="middle" x="3702.21" y="-373.76" font-family="Helvetica,sans-Serif" font-size="9.00">pIcc != NULL</text>
</g>
<!-- Fmt_GetColorSpaceSigName -->
<g id="node22" class="node">
<title>Fmt_GetColorSpaceSigName</title>
<ellipse fill="lightblue" stroke="black" cx="3393.71" cy="-326.09" rx="149.81" ry="26.74"/>
<text text-anchor="middle" x="3393.71" y="-329.89" font-family="Helvetica,sans-Serif" font-size="14.00">Fmt.GetColorSpaceSigName</text>
<text text-anchor="middle" x="3393.71" y="-314.89" font-family="Helvetica,sans-Serif" font-size="14.00">L251,253,291</text>
</g>
<!-- main&#45;&gt;Fmt_GetColorSpaceSigName -->
<g id="edge21" class="edge">
<title>main&#45;&gt;Fmt_GetColorSpaceSigName</title>
<path fill="none" stroke="red" stroke-width="2" d="M4837.42,-417.04C4630.18,-416.46 4039.67,-409.54 3552.71,-352.96 3538.26,-351.28 3523.12,-349.22 3508.17,-346.99"/>
<polygon fill="red" stroke="red" stroke-width="2" points="3508.27,-343.47 3497.86,-345.43 3507.22,-350.39 3508.27,-343.47"/>
<text text-anchor="middle" x="3842.21" y="-373.76" font-family="Helvetica,sans-Serif" font-size="9.00">pIcc != NULL</text>
</g>
<!-- Fmt_GetProfileFlagsName -->
<g id="node23" class="node">
<title>Fmt_GetProfileFlagsName</title>
<ellipse fill="lightblue" stroke="black" cx="3697.71" cy="-326.09" rx="135.53" ry="26.74"/>
<text text-anchor="middle" x="3697.71" y="-329.89" font-family="Helvetica,sans-Serif" font-size="14.00">Fmt.GetProfileFlagsName</text>
<text text-anchor="middle" x="3697.71" y="-314.89" font-family="Helvetica,sans-Serif" font-size="14.00">L252</text>
</g>
<!-- main&#45;&gt;Fmt_GetProfileFlagsName -->
<g id="edge22" class="edge">
<title>main&#45;&gt;Fmt_GetProfileFlagsName</title>
<path fill="none" stroke="red" stroke-width="2" d="M4837.43,-415.75C4661.48,-412.23 4213.79,-399.08 3842.71,-352.96 3829.53,-351.32 3815.74,-349.29 3802.13,-347.08"/>
<polygon fill="red" stroke="red" stroke-width="2" points="3802.69,-343.63 3792.25,-345.45 3801.55,-350.53 3802.69,-343.63"/>
<text text-anchor="middle" x="4136.21" y="-373.76" font-family="Helvetica,sans-Serif" font-size="9.00">pIcc != NULL</text>
</g>
<!-- Fmt_GetPlatformSigName -->
<g id="node24" class="node">
<title>Fmt_GetPlatformSigName</title>
<ellipse fill="lightblue" stroke="black" cx="3987.71" cy="-326.09" rx="135.53" ry="26.74"/>
<text text-anchor="middle" x="3987.71" y="-329.89" font-family="Helvetica,sans-Serif" font-size="14.00">Fmt.GetPlatformSigName</text>
<text text-anchor="middle" x="3987.71" y="-314.89" font-family="Helvetica,sans-Serif" font-size="14.00">L254</text>
</g>
<!-- main&#45;&gt;Fmt_GetPlatformSigName -->
<g id="edge23" class="edge">
<title>main&#45;&gt;Fmt_GetPlatformSigName</title>
<path fill="none" stroke="red" stroke-width="2" d="M4837.51,-413.12C4697.5,-405.53 4390.05,-386.39 4132.71,-352.96 4119.77,-351.28 4106.24,-349.24 4092.86,-347.06"/>
<polygon fill="red" stroke="red" stroke-width="2" points="4093.1,-343.55 4082.66,-345.36 4091.95,-350.46 4093.1,-343.55"/>
<text text-anchor="middle" x="4419.21" y="-373.76" font-family="Helvetica,sans-Serif" font-size="9.00">pIcc != NULL</text>
</g>
<!-- Fmt_GetRenderingIntentName -->
<g id="node25" class="node">
<title>Fmt_GetRenderingIntentName</title>
<ellipse fill="lightblue" stroke="black" cx="4300.71" cy="-326.09" rx="159.2" ry="26.74"/>
<text text-anchor="middle" x="4300.71" y="-329.89" font-family="Helvetica,sans-Serif" font-size="14.00">Fmt.GetRenderingIntentName</text>
<text text-anchor="middle" x="4300.71" y="-314.89" font-family="Helvetica,sans-Serif" font-size="14.00">L255</text>
</g>
<!-- main&#45;&gt;Fmt_GetRenderingIntentName -->
<g id="edge24" class="edge">
<title>main&#45;&gt;Fmt_GetRenderingIntentName</title>
<path fill="none" stroke="red" stroke-width="2" d="M4837.69,-406.26C4749.07,-393.74 4598.21,-372.24 4468.71,-352.96 4454.59,-350.86 4439.82,-348.63 4425.14,-346.39"/>
<polygon fill="red" stroke="red" stroke-width="2" points="4425.41,-342.9 4415,-344.85 4424.36,-349.81 4425.41,-342.9"/>
<text text-anchor="middle" x="4682.21" y="-373.76" font-family="Helvetica,sans-Serif" font-size="9.00">pIcc != NULL</text>
</g>
<!-- Fmt_GetProfileClassSigName -->
<g id="node26" class="node">
<title>Fmt_GetProfileClassSigName</title>
<ellipse fill="lightblue" stroke="black" cx="4628.71" cy="-326.09" rx="151.14" ry="26.74"/>
<text text-anchor="middle" x="4628.71" y="-329.89" font-family="Helvetica,sans-Serif" font-size="14.00">Fmt.GetProfileClassSigName</text>
<text text-anchor="middle" x="4628.71" y="-314.89" font-family="Helvetica,sans-Serif" font-size="14.00">L256</text>
</g>
<!-- main&#45;&gt;Fmt_GetProfileClassSigName -->
<g id="edge25" class="edge">
<title>main&#45;&gt;Fmt_GetProfileClassSigName</title>
<path fill="none" stroke="red" stroke-width="2" d="M4856.37,-398.88C4814.49,-385.67 4757.1,-367.58 4710.42,-352.86"/>
<polygon fill="red" stroke="red" stroke-width="2" points="4711.22,-349.44 4700.63,-349.77 4709.12,-356.12 4711.22,-349.44"/>
<text text-anchor="middle" x="4827.21" y="-373.76" font-family="Helvetica,sans-Serif" font-size="9.00">pIcc != NULL</text>
</g>
<!-- Fmt_GetVersionName -->
<g id="node27" class="node">
<title>Fmt_GetVersionName</title>
<ellipse fill="lightblue" stroke="black" cx="4913.71" cy="-326.09" rx="115.93" ry="26.74"/>
<text text-anchor="middle" x="4913.71" y="-329.89" font-family="Helvetica,sans-Serif" font-size="14.00">Fmt.GetVersionName</text>
<text text-anchor="middle" x="4913.71" y="-314.89" font-family="Helvetica,sans-Serif" font-size="14.00">L261,461</text>
</g>
<!-- main&#45;&gt;Fmt_GetVersionName -->
<g id="edge26" class="edge">
<title>main&#45;&gt;Fmt_GetVersionName</title>
<path fill="none" stroke="red" stroke-width="2" d="M4913.71,-398.77C4913.71,-388.62 4913.71,-375.6 4913.71,-363.45"/>
<polygon fill="red" stroke="red" stroke-width="2" points="4917.21,-363.08 4913.71,-353.08 4910.21,-363.08 4917.21,-363.08"/>
<text text-anchor="middle" x="4944.21" y="-373.76" font-family="Helvetica,sans-Serif" font-size="9.00">pIcc != NULL</text>
</g>
<!-- Fmt_GetSubClassVersionName -->
<g id="node28" class="node">
<title>Fmt_GetSubClassVersionName</title>
<ellipse fill="lightblue" stroke="black" cx="5207.71" cy="-326.09" rx="160.53" ry="26.74"/>
<text text-anchor="middle" x="5207.71" y="-329.89" font-family="Helvetica,sans-Serif" font-size="14.00">Fmt.GetSubClassVersionName</text>
<text text-anchor="middle" x="5207.71" y="-314.89" font-family="Helvetica,sans-Serif" font-size="14.00">L263</text>
</g>
<!-- main&#45;&gt;Fmt_GetSubClassVersionName -->
<g id="edge27" class="edge">
<title>main&#45;&gt;Fmt_GetSubClassVersionName</title>
<path fill="none" stroke="black" d="M4972.85,-398.88C5015.99,-385.69 5075.07,-367.63 5123.19,-352.93"/>
<polygon fill="black" stroke="black" points="5124.43,-356.21 5132.97,-349.94 5122.38,-349.51 5124.43,-356.21"/>
<text text-anchor="middle" x="5137.71" y="-373.76" font-family="Helvetica,sans-Serif" font-size="9.00">version &gt;= v5 &amp;&amp; deviceSubClass</text>
</g>
<!-- icFtoD -->
<g id="node29" class="node">
<title>icFtoD</title>
<ellipse fill="lightblue" stroke="black" cx="5428.71" cy="-326.09" rx="42.35" ry="26.74"/>
<text text-anchor="middle" x="5428.71" y="-329.89" font-family="Helvetica,sans-Serif" font-size="14.00">icFtoD</text>
<text text-anchor="middle" x="5428.71" y="-314.89" font-family="Helvetica,sans-Serif" font-size="14.00">L266</text>
</g>
<!-- main&#45;&gt;icFtoD -->
<g id="edge28" class="edge">
<title>main&#45;&gt;icFtoD</title>
<path fill="none" stroke="red" stroke-width="2" d="M4989.98,-415.01C5083.55,-410.69 5245.99,-396.89 5377.71,-352.96 5381.26,-351.78 5384.87,-350.38 5388.45,-348.86"/>
<polygon fill="red" stroke="red" stroke-width="2" points="5390.13,-351.94 5397.77,-344.6 5387.22,-345.57 5390.13,-351.94"/>
<text text-anchor="middle" x="5334.21" y="-373.76" font-family="Helvetica,sans-Serif" font-size="9.00">pIcc != NULL</text>
</g>
<!-- Fmt_GetSpectralColorSigName -->
<g id="node30" class="node">
<title>Fmt_GetSpectralColorSigName</title>
<ellipse fill="lightblue" stroke="black" cx="5649.71" cy="-326.09" rx="160.53" ry="26.74"/>
<text text-anchor="middle" x="5649.71" y="-329.89" font-family="Helvetica,sans-Serif" font-size="14.00">Fmt.GetSpectralColorSigName</text>
<text text-anchor="middle" x="5649.71" y="-314.89" font-family="Helvetica,sans-Serif" font-size="14.00">L269</text>
</g>
<!-- main&#45;&gt;Fmt_GetSpectralColorSigName -->
<g id="edge29" class="edge">
<title>main&#45;&gt;Fmt_GetSpectralColorSigName</title>
<path fill="none" stroke="red" stroke-width="2" d="M4990.06,-413.5C5080.67,-408.8 5236.19,-398.85 5368.71,-380.96 5427.44,-373.03 5492.46,-360.79 5545.15,-349.98"/>
<polygon fill="red" stroke="red" stroke-width="2" points="5546.1,-353.36 5555.18,-347.91 5544.68,-346.51 5546.1,-353.36"/>
<text text-anchor="middle" x="5460.21" y="-373.76" font-family="Helvetica,sans-Serif" font-size="9.00">pIcc != NULL</text>
</g>
<!-- icF16toF -->
<g id="node31" class="node">
<title>icF16toF</title>
<ellipse fill="lightblue" stroke="black" cx="5886.71" cy="-326.09" rx="58.88" ry="26.74"/>
<text text-anchor="middle" x="5886.71" y="-329.89" font-family="Helvetica,sans-Serif" font-size="14.00">icF16toF</text>
<text text-anchor="middle" x="5886.71" y="-314.89" font-family="Helvetica,sans-Serif" font-size="14.00">L272,281</text>
</g>
<!-- main&#45;&gt;icF16toF -->
<g id="edge30" class="edge">
<title>main&#45;&gt;icF16toF</title>
<path fill="none" stroke="black" d="M4989.88,-414.64C5178.36,-408.41 5662.62,-389.28 5819.71,-352.96 5824.94,-351.75 5830.32,-350.21 5835.64,-348.49"/>
<polygon fill="black" stroke="black" points="5836.79,-351.8 5845.1,-345.23 5834.51,-345.18 5836.79,-351.8"/>
<text text-anchor="middle" x="5742.21" y="-373.76" font-family="Helvetica,sans-Serif" font-size="9.00">spectralRange defined</text>
</g>
<!-- std__sort -->
<g id="node32" class="node">
<title>std__sort</title>
<ellipse fill="lightblue" stroke="black" cx="6015.71" cy="-326.09" rx="52.15" ry="26.74"/>
<text text-anchor="middle" x="6015.71" y="-329.89" font-family="Helvetica,sans-Serif" font-size="14.00">std::sort</text>
<text text-anchor="middle" x="6015.71" y="-314.89" font-family="Helvetica,sans-Serif" font-size="14.00">L315</text>
</g>
<!-- main&#45;&gt;std__sort -->
<g id="edge31" class="edge">
<title>main&#45;&gt;std__sort</title>
<path fill="none" stroke="red" stroke-width="2" d="M4989.94,-417.33C5143.35,-417.31 5500.14,-413.4 5797.71,-380.96 5868.17,-373.28 5886.76,-373.15 5954.71,-352.96 5959.22,-351.62 5963.86,-350.04 5968.45,-348.34"/>
<polygon fill="red" stroke="red" stroke-width="2" points="5969.74,-351.6 5977.79,-344.72 5967.2,-345.08 5969.74,-351.6"/>
<text text-anchor="middle" x="5910.21" y="-373.76" font-family="Helvetica,sans-Serif" font-size="9.00">pIcc != NULL</text>
</g>
<!-- std__upper_bound -->
<g id="node33" class="node">
<title>std__upper_bound</title>
<ellipse fill="lightblue" stroke="black" cx="6184.71" cy="-326.09" rx="98.99" ry="26.74"/>
<text text-anchor="middle" x="6184.71" y="-329.89" font-family="Helvetica,sans-Serif" font-size="14.00">std::upper_bound</text>
<text text-anchor="middle" x="6184.71" y="-314.89" font-family="Helvetica,sans-Serif" font-size="14.00">L323,403</text>
</g>
<!-- main&#45;&gt;std__upper_bound -->
<g id="edge32" class="edge">
<title>main&#45;&gt;std__upper_bound</title>
<path fill="none" stroke="black" d="M4989.72,-416.02C5195.43,-413.21 5759.93,-403.61 5944.71,-380.96 5999.91,-374.19 6061.06,-360.37 6107.82,-348.42"/>
<polygon fill="black" stroke="black" points="6108.76,-351.79 6117.57,-345.9 6107.01,-345.01 6108.76,-351.79"/>
<text text-anchor="middle" x="6031.71" y="-373.76" font-family="Helvetica,sans-Serif" font-size="9.00">tag iteration</text>
</g>
<!-- unordered_map__find -->
<g id="node34" class="node">
<title>unordered_map__find</title>
<ellipse fill="lightblue" stroke="black" cx="6415.71" cy="-326.09" rx="113.69" ry="26.74"/>
<text text-anchor="middle" x="6415.71" y="-329.89" font-family="Helvetica,sans-Serif" font-size="14.00">unordered_map::find</text>
<text text-anchor="middle" x="6415.71" y="-314.89" font-family="Helvetica,sans-Serif" font-size="14.00">L346</text>
</g>
<!-- main&#45;&gt;unordered_map__find -->
<g id="edge34" class="edge">
<title>main&#45;&gt;unordered_map__find</title>
<path fill="none" stroke="black" d="M4989.86,-416.95C5174.37,-416.41 5659.9,-411.9 6063.71,-380.96 6165.94,-373.13 6191.55,-369.75 6292.71,-352.96 6303.17,-351.22 6314.1,-349.21 6324.93,-347.1"/>
<polygon fill="black" stroke="black" points="6325.72,-350.51 6334.84,-345.13 6324.35,-343.64 6325.72,-350.51"/>
<text text-anchor="middle" x="6198.71" y="-373.76" font-family="Helvetica,sans-Serif" font-size="9.00">tag iteration</text>
</g>
<!-- icMaxStatus -->
<g id="node35" class="node">
<title>icMaxStatus</title>
<ellipse fill="lightblue" stroke="black" cx="6627.71" cy="-326.09" rx="80.72" ry="26.74"/>
<text text-anchor="middle" x="6627.71" y="-329.89" font-family="Helvetica,sans-Serif" font-size="14.00">icMaxStatus</text>
<text text-anchor="middle" x="6627.71" y="-314.89" font-family="Helvetica,sans-Serif" font-size="14.00">L349,380,436</text>
</g>
<!-- main&#45;&gt;icMaxStatus -->
<g id="edge35" class="edge">
<title>main&#45;&gt;icMaxStatus</title>
<path fill="none" stroke="black" d="M4989.86,-416.56C5192.12,-415.15 5759.48,-408.79 6230.71,-380.96 6367.92,-372.86 6403.64,-378.48 6538.71,-352.96 6546.07,-351.57 6553.7,-349.83 6561.26,-347.91"/>
<polygon fill="black" stroke="black" points="6562.35,-351.24 6571.13,-345.3 6560.56,-344.47 6562.35,-351.24"/>
<text text-anchor="middle" x="6460.71" y="-373.76" font-family="Helvetica,sans-Serif" font-size="9.00">duplicate sig found</text>
</g>
<!-- icGetSigVal -->
<g id="node36" class="node">
<title>icGetSigVal</title>
<ellipse fill="lightgray" stroke="black" cx="6792.71" cy="-326.09" rx="66.44" ry="26.74"/>
<text text-anchor="middle" x="6792.71" y="-329.89" font-family="Helvetica,sans-Serif" font-size="14.00">icGetSigVal</text>
<text text-anchor="middle" x="6792.71" y="-314.89" font-family="Helvetica,sans-Serif" font-size="14.00">L447</text>
</g>
<!-- main&#45;&gt;icGetSigVal -->
<g id="edge37" class="edge">
<title>main&#45;&gt;icGetSigVal</title>
<path fill="none" stroke="gray" stroke-dasharray="5,2" d="M4989.75,-416.36C5264.89,-414.02 6208.06,-404.42 6508.71,-380.96 6602.14,-373.67 6626.51,-374.57 6717.71,-352.96 6723.46,-351.6 6729.39,-349.96 6735.28,-348.19"/>
<polygon fill="gray" stroke="gray" points="6736.63,-351.44 6745.11,-345.09 6734.52,-344.76 6736.63,-351.44"/>
<text text-anchor="middle" x="6694.71" y="-373.76" font-family="Helvetica,sans-Serif" font-size="9.00">argv has tag arg &amp;&amp; arg!=&#39;ALL&#39;</text>
</g>
<!-- gate_3 -->
<g id="node38" class="node">
<title>gate_3</title>
<polygon fill="orange" stroke="black" points="1919.71,-352.09 1825.71,-326.09 1919.71,-300.09 2013.71,-326.09 1919.71,-352.09"/>
<text text-anchor="middle" x="1919.71" y="-328.69" font-family="Helvetica,sans-Serif" font-size="8.00">GATE L172</text>
<text text-anchor="middle" x="1919.71" y="-319.69" font-family="Helvetica,sans-Serif" font-size="8.00">&#45;V/&#45;v flag in argv[1]</text>
</g>
<!-- main&#45;&gt;gate_3 -->
<g id="edge41" class="edge">
<title>main&#45;&gt;gate_3</title>
<path fill="none" stroke="gray" stroke-dasharray="5,2" d="M4837.69,-416.69C4466,-415.24 2837.36,-407.48 2330.71,-380.96 2193.44,-373.78 2158.22,-375.99 2022.71,-352.96 2006.83,-350.26 1989.79,-346.39 1974.23,-342.46"/>
<polygon fill="gray" stroke="gray" points="1974.81,-339 1964.25,-339.89 1973.06,-345.78 1974.81,-339"/>
</g>
<!-- gate_5 -->
<g id="node39" class="node">
<title>gate_5</title>
<polygon fill="orange" stroke="black" points="6944.71,-352.09 6876.71,-326.09 6944.71,-300.09 7012.71,-326.09 6944.71,-352.09"/>
<text text-anchor="middle" x="6944.71" y="-328.69" font-family="Helvetica,sans-Serif" font-size="8.00">GATE L226</text>
<text text-anchor="middle" x="6944.71" y="-319.69" font-family="Helvetica,sans-Serif" font-size="8.00">pIcc != NULL</text>
</g>
<!-- main&#45;&gt;gate_5 -->
<g id="edge43" class="edge">
<title>main&#45;&gt;gate_5</title>
<path fill="none" stroke="gray" stroke-dasharray="5,2" d="M4989.97,-416.65C5316.99,-415.14 6592.12,-407.59 6769.71,-380.96 6816.69,-373.92 6868.46,-356.74 6903.41,-343.66"/>
<polygon fill="gray" stroke="gray" points="6904.7,-346.91 6912.81,-340.09 6902.21,-340.37 6904.7,-346.91"/>
</g>
<!-- gate_9 -->
<g id="node40" class="node">
<title>gate_9</title>
<polygon fill="orange" stroke="black" points="7191.71,-352.09 7030.71,-326.09 7191.71,-300.09 7352.71,-326.09 7191.71,-352.09"/>
<text text-anchor="middle" x="7191.71" y="-328.69" font-family="Helvetica,sans-Serif" font-size="8.00">GATE L270</text>
<text text-anchor="middle" x="7191.71" y="-319.69" font-family="Helvetica,sans-Serif" font-size="8.00">spectralRange.start || .end || .steps</text>
</g>
<!-- main&#45;&gt;gate_9 -->
<g id="edge44" class="edge">
<title>main&#45;&gt;gate_9</title>
<path fill="none" stroke="gray" stroke-dasharray="5,2" d="M4989.83,-416.63C5296.69,-415.13 6443.67,-407.79 6805.71,-380.96 6910.32,-373.21 7029.8,-355.09 7107.77,-342"/>
<polygon fill="gray" stroke="gray" points="7108.73,-345.39 7118.01,-340.27 7107.57,-338.48 7108.73,-345.39"/>
</g>
<!-- gate_10 -->
<g id="node41" class="node">
<title>gate_10</title>
<polygon fill="orange" stroke="black" points="7488.71,-352.09 7370.71,-326.09 7488.71,-300.09 7606.71,-326.09 7488.71,-352.09"/>
<text text-anchor="middle" x="7488.71" y="-328.69" font-family="Helvetica,sans-Serif" font-size="8.00">GATE L280</text>
<text text-anchor="middle" x="7488.71" y="-319.69" font-family="Helvetica,sans-Serif" font-size="8.00">biSpectralRange defined</text>
</g>
<!-- main&#45;&gt;gate_10 -->
<g id="edge45" class="edge">
<title>main&#45;&gt;gate_10</title>
<path fill="none" stroke="gray" stroke-dasharray="5,2" d="M4990.05,-416.6C5251.7,-415.13 6136.41,-408.34 6866.71,-380.96 7086.9,-372.71 7143.18,-381.25 7361.71,-352.96 7382.13,-350.32 7404.19,-346.26 7424.1,-342.13"/>
<polygon fill="gray" stroke="gray" points="7424.93,-345.53 7433.98,-340.04 7423.48,-338.68 7424.93,-345.53"/>
</g>
<!-- gate_12 -->
<g id="node42" class="node">
<title>gate_12</title>
<polygon fill="orange" stroke="black" points="7739.71,-352.09 7624.71,-326.09 7739.71,-300.09 7854.71,-326.09 7739.71,-352.09"/>
<text text-anchor="middle" x="7739.71" y="-328.69" font-family="Helvetica,sans-Serif" font-size="8.00">GATE L324</text>
<text text-anchor="middle" x="7739.71" y="-319.69" font-family="Helvetica,sans-Serif" font-size="8.00">upper_bound == cend()</text>
</g>
<!-- main&#45;&gt;gate_12 -->
<g id="edge46" class="edge">
<title>main&#45;&gt;gate_12</title>
<path fill="none" stroke="gray" stroke-dasharray="5,2" d="M4989.92,-416.53C5265.62,-414.81 6236.91,-407.14 7037.71,-380.96 7294.76,-372.56 7360.59,-385.55 7615.71,-352.96 7635.58,-350.42 7657.02,-346.41 7676.39,-342.3"/>
<polygon fill="gray" stroke="gray" points="7677.27,-345.69 7686.31,-340.15 7675.79,-338.85 7677.27,-345.69"/>
</g>
<!-- gate_14 -->
<g id="node43" class="node">
<title>gate_14</title>
<polygon fill="orange" stroke="black" points="7958.71,-352.09 7872.71,-326.09 7958.71,-300.09 8044.71,-326.09 7958.71,-352.09"/>
<text text-anchor="middle" x="7958.71" y="-328.69" font-family="Helvetica,sans-Serif" font-size="8.00">GATE L369</text>
<text text-anchor="middle" x="7958.71" y="-319.69" font-family="Helvetica,sans-Serif" font-size="8.00">bDumpValidation</text>
</g>
<!-- main&#45;&gt;gate_14 -->
<g id="edge47" class="edge">
<title>main&#45;&gt;gate_14</title>
<path fill="none" stroke="gray" stroke-dasharray="5,2" d="M4989.88,-416.62C5282.44,-415.15 6361.96,-408.1 7250.71,-380.96 7523.31,-372.64 7594.28,-395.27 7863.71,-352.96 7878.52,-350.63 7894.35,-346.86 7908.74,-342.91"/>
<polygon fill="gray" stroke="gray" points="7909.78,-346.25 7918.45,-340.16 7907.87,-339.52 7909.78,-346.25"/>
</g>
<!-- gate_15 -->
<g id="node44" class="node">
<title>gate_15</title>
<polygon fill="orange" stroke="black" points="8256.71,-352.09 8062.71,-326.09 8256.71,-300.09 8450.71,-326.09 8256.71,-352.09"/>
<text text-anchor="middle" x="8256.71" y="-328.69" font-family="Helvetica,sans-Serif" font-size="8.00">GATE L377</text>
<text text-anchor="middle" x="8256.71" y="-319.69" font-family="Helvetica,sans-Serif" font-size="8.00">version &gt;= v4.2 &amp;&amp; size % 4 != 0 &#160;(depth 1)</text>
</g>
<!-- main&#45;&gt;gate_15 -->
<g id="edge48" class="edge">
<title>main&#45;&gt;gate_15</title>
<path fill="none" stroke="gray" stroke-dasharray="5,2" d="M4989.89,-416.92C5301.29,-416.53 6507.93,-412.92 7499.71,-380.96 7746.11,-373.02 7808.14,-374.78 8053.71,-352.96 8087.3,-349.98 8123.89,-345.65 8156.64,-341.38"/>
<polygon fill="gray" stroke="gray" points="8157.22,-344.84 8166.67,-340.06 8156.3,-337.9 8157.22,-344.84"/>
</g>
<!-- gate_16 -->
<g id="node45" class="node">
<title>gate_16</title>
<polygon fill="orange" stroke="black" points="8635.71,-352.09 8468.71,-326.09 8635.71,-300.09 8802.71,-326.09 8635.71,-352.09"/>
<text text-anchor="middle" x="8635.71" y="-328.69" font-family="Helvetica,sans-Serif" font-size="8.00">GATE L388</text>
<text text-anchor="middle" x="8635.71" y="-319.69" font-family="Helvetica,sans-Serif" font-size="8.00">offset + size &gt; pHdr&#45;&gt;size &#160;(depth 1)</text>
</g>
<!-- main&#45;&gt;gate_16 -->
<g id="edge49" class="edge">
<title>main&#45;&gt;gate_16</title>
<path fill="none" stroke="gray" stroke-dasharray="5,2" d="M4989.91,-416.57C5313.03,-414.81 6601.88,-406.45 7660.71,-380.96 8015.93,-372.41 8105.83,-385.07 8459.71,-352.96 8489.01,-350.3 8520.87,-346.04 8549.34,-341.73"/>
<polygon fill="gray" stroke="gray" points="8549.9,-345.19 8559.26,-340.21 8548.84,-338.27 8549.9,-345.19"/>
</g>
<!-- gate_17 -->
<g id="node46" class="node">
<title>gate_17</title>
<polygon fill="orange" stroke="black" points="9038.71,-352.09 8820.71,-326.09 9038.71,-300.09 9256.71,-326.09 9038.71,-352.09"/>
<text text-anchor="middle" x="9038.71" y="-328.69" font-family="Helvetica,sans-Serif" font-size="8.00">GATE L411</text>
<text text-anchor="middle" x="9038.71" y="-319.69" font-family="Helvetica,sans-Serif" font-size="8.00">closest &lt; offset+size &amp;&amp; closest &lt; EOF &#160;(depth 1)</text>
</g>
<!-- main&#45;&gt;gate_17 -->
<g id="edge50" class="edge">
<title>main&#45;&gt;gate_17</title>
<path fill="none" stroke="gray" stroke-dasharray="5,2" d="M4989.8,-416.63C5332.4,-415 6766.28,-406.9 7942.71,-380.96 8329.03,-372.44 8426.31,-381.08 8811.71,-352.96 8849.85,-350.18 8891.47,-345.82 8928.53,-341.47"/>
<polygon fill="gray" stroke="gray" points="8929.34,-344.9 8938.86,-340.24 8928.52,-337.95 8929.34,-344.9"/>
</g>
<!-- gate_19 -->
<g id="node47" class="node">
<title>gate_19</title>
<polygon fill="orange" stroke="black" points="9462.71,-352.09 9274.71,-326.09 9462.71,-300.09 9650.71,-326.09 9462.71,-352.09"/>
<text text-anchor="middle" x="9462.71" y="-328.69" font-family="Helvetica,sans-Serif" font-size="8.00">GATE L431</text>
<text text-anchor="middle" x="9462.71" y="-319.69" font-family="Helvetica,sans-Serif" font-size="8.00">smallest_offset &gt; expected_first &#160;(depth 1)</text>
</g>
<!-- main&#45;&gt;gate_19 -->
<g id="edge51" class="edge">
<title>main&#45;&gt;gate_19</title>
<path fill="none" stroke="gray" stroke-dasharray="5,2" d="M4989.99,-416.59C5352.27,-414.74 6935.3,-405.58 8232.71,-380.96 8691.9,-372.25 8807.85,-389.13 9265.71,-352.96 9298.75,-350.35 9334.75,-346.05 9366.82,-341.71"/>
<polygon fill="gray" stroke="gray" points="9367.66,-345.12 9377.09,-340.29 9366.71,-338.19 9367.66,-345.12"/>
</g>
<!-- gate_21 -->
<g id="node48" class="node">
<title>gate_21</title>
<polygon fill="orange" stroke="black" points="9781.71,-352.09 9668.71,-326.09 9781.71,-300.09 9894.71,-326.09 9781.71,-352.09"/>
<text text-anchor="middle" x="9781.71" y="-328.69" font-family="Helvetica,sans-Serif" font-size="8.00">GATE L441</text>
<text text-anchor="middle" x="9781.71" y="-319.69" font-family="Helvetica,sans-Serif" font-size="8.00">stricmp(arg, &#39;ALL&#39;) == 0</text>
</g>
<!-- main&#45;&gt;gate_21 -->
<g id="edge52" class="edge">
<title>main&#45;&gt;gate_21</title>
<path fill="none" stroke="gray" stroke-dasharray="5,2" d="M4989.88,-416.7C5376.02,-415.28 7155.92,-407.53 8612.71,-380.96 9078.13,-372.47 9197.43,-407.69 9659.71,-352.96 9679.48,-350.62 9700.79,-346.62 9719.98,-342.46"/>
<polygon fill="gray" stroke="gray" points="9720.81,-345.86 9729.81,-340.28 9719.29,-339.03 9720.81,-345.86"/>
</g>
<!-- gate_0&#45;&gt;icGetSig -->
<g id="edge40" class="edge">
<title>gate_0&#45;&gt;icGetSig</title>
<path fill="none" stroke="darkgreen" stroke-dasharray="5,2" d="M169.71,-100.44C169.71,-89.42 169.71,-76.27 169.71,-64.21"/>
<polygon fill="darkgreen" stroke="darkgreen" points="173.21,-63.98 169.71,-53.98 166.21,-63.98 173.21,-63.98"/>
<text text-anchor="middle" x="179.21" y="-74.54" font-family="Helvetica,sans-Serif" font-size="9.00">true</text>
</g>
<!-- gate_3&#45;&gt;ValidateIccProfile -->
<g id="edge42" class="edge">
<title>gate_3&#45;&gt;ValidateIccProfile</title>
<path fill="none" stroke="darkgreen" stroke-dasharray="5,2" d="M1895.71,-306.48C1878.06,-292.79 1853.68,-273.87 1833.18,-257.97"/>
<polygon fill="darkgreen" stroke="darkgreen" points="1835.29,-255.18 1825.24,-251.81 1831,-260.71 1835.29,-255.18"/>
<text text-anchor="middle" x="1869.21" y="-274.02" font-family="Helvetica,sans-Serif" font-size="9.00">true</text>
</g>
</g>
</svg>
