<?xml version="1.0" encoding="UTF-8" standalone="no"?>
<!DOCTYPE svg PUBLIC "-//W3C//DTD SVG 1.1//EN"
 "http://www.w3.org/Graphics/SVG/1.1/DTD/svg11.dtd">
<!-- Generated by graphviz version 2.43.0 (0)
 -->
<!-- Title: iccV5DspObsToV4Dsp Pages: 1 -->
<svg width="2246pt" height="332pt"
 viewBox="0.00 0.00 2245.97 332.00" xmlns="http://www.w3.org/2000/svg" xmlns:xlink="http://www.w3.org/1999/xlink">
<g id="graph0" class="graph" transform="scale(1 1) rotate(0) translate(4 328)">
<title>iccV5DspObsToV4Dsp</title>
<polygon fill="white" stroke="transparent" points="-4,4 -4,-328 2241.97,-328 2241.97,4 -4,4"/>
<g id="clust1" class="cluster">
<title>cluster_legend</title>
<polygon fill="none" stroke="black" stroke-dasharray="5,2" points="190.65,-246 190.65,-316 456.65,-316 456.65,-246 190.65,-246"/>
<text text-anchor="middle" x="323.65" y="-304.8" font-family="Times,serif" font-size="9.00">Legend</text>
</g>
<g id="clust2" class="cluster">
<title>cluster_load</title>
<path fill="none" stroke="black" d="M1302.65,-163C1302.65,-163 1901.65,-163 1901.65,-163 1907.65,-163 1913.65,-169 1913.65,-175 1913.65,-175 1913.65,-226 1913.65,-226 1913.65,-232 1907.65,-238 1901.65,-238 1901.65,-238 1302.65,-238 1302.65,-238 1296.65,-238 1290.65,-232 1290.65,-226 1290.65,-226 1290.65,-175 1290.65,-175 1290.65,-169 1296.65,-163 1302.65,-163"/>
<text text-anchor="middle" x="1602.15" y="-222.8" font-family="Times,serif" font-size="14.00">Phase 1&#45;2: Load &amp; Validate Profiles</text>
</g>
<g id="clust3" class="cluster">
<title>cluster_mpe_val</title>
<path fill="none" stroke="red" d="M1736.65,-8C1736.65,-8 1978.65,-8 1978.65,-8 1984.65,-8 1990.65,-14 1990.65,-20 1990.65,-20 1990.65,-143 1990.65,-143 1990.65,-149 1984.65,-155 1978.65,-155 1978.65,-155 1736.65,-155 1736.65,-155 1730.65,-155 1724.65,-149 1724.65,-143 1724.65,-143 1724.65,-20 1724.65,-20 1724.65,-14 1730.65,-8 1736.65,-8"/>
<text text-anchor="middle" x="1857.65" y="-139.8" font-family="Times,serif" font-size="14.00">Phase 3: MPE Structure Validation</text>
</g>
<g id="clust4" class="cluster">
<title>cluster_mpe_init</title>
<path fill="none" stroke="red" d="M845.65,-163C845.65,-163 1270.65,-163 1270.65,-163 1276.65,-163 1282.65,-169 1282.65,-175 1282.65,-175 1282.65,-226 1282.65,-226 1282.65,-232 1276.65,-238 1270.65,-238 1270.65,-238 845.65,-238 845.65,-238 839.65,-238 833.65,-232 833.65,-226 833.65,-226 833.65,-175 833.65,-175 833.65,-169 839.65,-163 845.65,-163"/>
<text text-anchor="middle" x="1058.15" y="-222.8" font-family="Times,serif" font-size="14.00">Phase 5: MPE Pipeline Init</text>
</g>
<g id="clust5" class="cluster">
<title>cluster_trc</title>
<path fill="none" stroke="red" d="M1179.65,-8C1179.65,-8 1398.65,-8 1398.65,-8 1404.65,-8 1410.65,-14 1410.65,-20 1410.65,-20 1410.65,-143 1410.65,-143 1410.65,-149 1404.65,-155 1398.65,-155 1398.65,-155 1179.65,-155 1179.65,-155 1173.65,-155 1167.65,-149 1167.65,-143 1167.65,-143 1167.65,-20 1167.65,-20 1167.65,-14 1173.65,-8 1179.65,-8"/>
<text text-anchor="middle" x="1289.15" y="-139.8" font-family="Times,serif" font-size="14.00">Phase 7: TRC Curve Generation</text>
</g>
<g id="clust6" class="cluster">
<title>cluster_colorant</title>
<path fill="none" stroke="red" d="M95.65,-8C95.65,-8 453.65,-8 453.65,-8 459.65,-8 465.65,-14 465.65,-20 465.65,-20 465.65,-226 465.65,-226 465.65,-232 459.65,-238 453.65,-238 453.65,-238 95.65,-238 95.65,-238 89.65,-238 83.65,-232 83.65,-226 83.65,-226 83.65,-20 83.65,-20 83.65,-14 89.65,-8 95.65,-8"/>
<text text-anchor="middle" x="274.65" y="-222.8" font-family="Times,serif" font-size="14.00">Phase 8: Colorant XYZ Computation</text>
</g>
<g id="clust7" class="cluster">
<title>cluster_output</title>
<path fill="none" stroke="black" d="M705.65,-163C705.65,-163 813.65,-163 813.65,-163 819.65,-163 825.65,-169 825.65,-175 825.65,-175 825.65,-226 825.65,-226 825.65,-232 819.65,-238 813.65,-238 813.65,-238 705.65,-238 705.65,-238 699.65,-238 693.65,-232 693.65,-226 693.65,-226 693.65,-175 693.65,-175 693.65,-169 699.65,-163 705.65,-163"/>
<text text-anchor="middle" x="759.65" y="-222.8" font-family="Times,serif" font-size="14.00">Phase 9: Output</text>
</g>
<!-- leg_both -->
<g id="node1" class="node">
<title>leg_both</title>
<polygon fill="#90ee90" stroke="black" points="448.65,-290 354.65,-290 354.65,-254 448.65,-254 448.65,-290"/>
<text text-anchor="middle" x="401.65" y="-269.5" font-family="Helvetica,sans-Serif" font-size="10.00">In Tool + Fuzzer</text>
</g>
<!-- leg_tool -->
<g id="node2" class="node">
<title>leg_tool</title>
<polygon fill="#add8e6" stroke="black" points="336.65,-290 274.65,-290 274.65,-254 336.65,-254 336.65,-290"/>
<text text-anchor="middle" x="305.65" y="-269.5" font-family="Helvetica,sans-Serif" font-size="10.00">Tool Only</text>
</g>
<!-- leg_cli -->
<g id="node3" class="node">
<title>leg_cli</title>
<polygon fill="#d3d3d3" stroke="black" points="256.15,-290 199.15,-290 199.15,-254 256.15,-254 256.15,-290"/>
<text text-anchor="middle" x="227.65" y="-269.5" font-family="Helvetica,sans-Serif" font-size="10.00">CLI Only</text>
</g>
<!-- tool -->
<g id="node4" class="node">
<title>tool</title>
<ellipse fill="#ff6b6b" stroke="black" cx="1703.65" cy="-272" rx="101.23" ry="21.43"/>
<text text-anchor="middle" x="1703.65" y="-275" font-family="Helvetica,sans-Serif" font-size="10.00">main()</text>
<text text-anchor="middle" x="1703.65" y="-264" font-family="Helvetica,sans-Serif" font-size="10.00">IccV5DspObsToV4Dsp.cpp</text>
</g>
<!-- read_dsp -->
<g id="node6" class="node">
<title>read_dsp</title>
<polygon fill="#90ee90" stroke="black" points="1484.65,-207 1398.65,-207 1398.65,-171 1484.65,-171 1484.65,-207"/>
<text text-anchor="middle" x="1441.65" y="-192" font-family="Helvetica,sans-Serif" font-size="10.00">ReadIccProfile</text>
<text text-anchor="middle" x="1441.65" y="-181" font-family="Helvetica,sans-Serif" font-size="10.00">(display V5)</text>
</g>
<!-- tool&#45;&gt;read_dsp -->
<g id="edge1" class="edge">
<title>tool&#45;&gt;read_dsp</title>
<path fill="none" stroke="black" stroke-width="2" d="M1604.97,-267.16C1568.88,-262.78 1528.61,-254.25 1494.65,-238 1482.92,-232.39 1471.92,-223.34 1463.02,-214.61"/>
<polygon fill="black" stroke="black" stroke-width="2" points="1465.53,-212.17 1456.06,-207.42 1460.5,-217.04 1465.53,-212.17"/>
</g>
<!-- validate_dsp -->
<g id="node7" class="node">
<title>validate_dsp</title>
<polygon fill="#90ee90" stroke="black" points="1380.65,-207 1298.65,-207 1298.65,-171 1380.65,-171 1380.65,-207"/>
<text text-anchor="middle" x="1339.65" y="-192" font-family="Helvetica,sans-Serif" font-size="10.00">Version/Class</text>
<text text-anchor="middle" x="1339.65" y="-181" font-family="Helvetica,sans-Serif" font-size="10.00">check</text>
</g>
<!-- tool&#45;&gt;validate_dsp -->
<g id="edge2" class="edge">
<title>tool&#45;&gt;validate_dsp</title>
<path fill="none" stroke="black" d="M1604.74,-267.56C1527.31,-263.59 1426.74,-255.23 1389.65,-238 1378.17,-232.67 1367.68,-223.61 1359.31,-214.8"/>
<polygon fill="black" stroke="black" points="1361.8,-212.33 1352.52,-207.21 1356.58,-217 1361.8,-212.33"/>
</g>
<!-- find_atob1 -->
<g id="node8" class="node">
<title>find_atob1</title>
<polygon fill="#90ee90" stroke="black" points="1905.15,-207 1818.15,-207 1818.15,-171 1905.15,-171 1905.15,-207"/>
<text text-anchor="middle" x="1861.65" y="-192" font-family="Helvetica,sans-Serif" font-size="10.00">FindTagOfType</text>
<text text-anchor="middle" x="1861.65" y="-181" font-family="Helvetica,sans-Serif" font-size="10.00">(AToB1 MPE)</text>
</g>
<!-- tool&#45;&gt;find_atob1 -->
<g id="edge3" class="edge">
<title>tool&#45;&gt;find_atob1</title>
<path fill="none" stroke="black" d="M1767.96,-255.61C1781.86,-250.98 1796.13,-245.17 1808.65,-238 1819.64,-231.7 1830.3,-222.79 1839.14,-214.36"/>
<polygon fill="black" stroke="black" points="1841.77,-216.67 1846.4,-207.14 1836.83,-211.71 1841.77,-216.67"/>
</g>
<!-- read_pcc -->
<g id="node9" class="node">
<title>read_pcc</title>
<polygon fill="#90ee90" stroke="black" points="1799.65,-207 1713.65,-207 1713.65,-171 1799.65,-171 1799.65,-207"/>
<text text-anchor="middle" x="1756.65" y="-192" font-family="Helvetica,sans-Serif" font-size="10.00">ReadIccProfile</text>
<text text-anchor="middle" x="1756.65" y="-181" font-family="Helvetica,sans-Serif" font-size="10.00">(observer V5)</text>
</g>
<!-- tool&#45;&gt;read_pcc -->
<g id="edge4" class="edge">
<title>tool&#45;&gt;read_pcc</title>
<path fill="none" stroke="black" stroke-width="2" d="M1717.02,-250.56C1723.94,-239.98 1732.46,-226.97 1739.82,-215.71"/>
<polygon fill="black" stroke="black" stroke-width="2" points="1742.88,-217.43 1745.43,-207.15 1737.02,-213.6 1742.88,-217.43"/>
</g>
<!-- find_svcn -->
<g id="node10" class="node">
<title>find_svcn</title>
<polygon fill="#90ee90" stroke="black" points="1695.15,-207 1608.15,-207 1608.15,-171 1695.15,-171 1695.15,-207"/>
<text text-anchor="middle" x="1651.65" y="-192" font-family="Helvetica,sans-Serif" font-size="10.00">FindTagOfType</text>
<text text-anchor="middle" x="1651.65" y="-181" font-family="Helvetica,sans-Serif" font-size="10.00">(svcn)</text>
</g>
<!-- tool&#45;&gt;find_svcn -->
<g id="edge5" class="edge">
<title>tool&#45;&gt;find_svcn</title>
<path fill="none" stroke="black" d="M1690.52,-250.56C1683.73,-239.98 1675.38,-226.97 1668.15,-215.71"/>
<polygon fill="black" stroke="black" points="1671,-213.67 1662.65,-207.15 1665.11,-217.45 1671,-213.67"/>
</g>
<!-- find_c2s -->
<g id="node11" class="node">
<title>find_c2s</title>
<polygon fill="#90ee90" stroke="black" points="1590.15,-207 1503.15,-207 1503.15,-171 1590.15,-171 1590.15,-207"/>
<text text-anchor="middle" x="1546.65" y="-192" font-family="Helvetica,sans-Serif" font-size="10.00">FindTagOfType</text>
<text text-anchor="middle" x="1546.65" y="-181" font-family="Helvetica,sans-Serif" font-size="10.00">(c2sp MPE)</text>
</g>
<!-- tool&#45;&gt;find_c2s -->
<g id="edge6" class="edge">
<title>tool&#45;&gt;find_c2s</title>
<path fill="none" stroke="black" d="M1639.67,-255.45C1625.99,-250.84 1611.96,-245.08 1599.65,-238 1588.66,-231.68 1578,-222.77 1569.17,-214.34"/>
<polygon fill="black" stroke="black" points="1571.47,-211.69 1561.9,-207.13 1566.53,-216.66 1571.47,-211.69"/>
</g>
<!-- num_elem -->
<g id="node12" class="node">
<title>num_elem</title>
<polygon fill="#90ee90" stroke="black" points="1915.65,-124 1807.65,-124 1807.65,-88 1915.65,-88 1915.65,-124"/>
<text text-anchor="middle" x="1861.65" y="-103.5" font-family="Helvetica,sans-Serif" font-size="10.00">NumElements==2</text>
</g>
<!-- tool&#45;&gt;num_elem -->
<g id="edge7" class="edge">
<title>tool&#45;&gt;num_elem</title>
<path fill="none" stroke="black" d="M1804.78,-271.1C1935.93,-270.15 2150.93,-264.51 2175.65,-238 2198.38,-213.62 2197.05,-188.56 2175.65,-163 2144.42,-125.71 2008.19,-113.23 1925.77,-109.07"/>
<polygon fill="black" stroke="black" points="1925.9,-105.57 1915.75,-108.59 1925.57,-112.56 1925.9,-105.57"/>
</g>
<!-- get_curve -->
<g id="node13" class="node">
<title>get_curve</title>
<polygon fill="#90ee90" stroke="black" points="1846.65,-52 1758.65,-52 1758.65,-16 1846.65,-16 1846.65,-52"/>
<text text-anchor="middle" x="1802.65" y="-37" font-family="Helvetica,sans-Serif" font-size="10.00">GetElement(0)</text>
<text text-anchor="middle" x="1802.65" y="-26" font-family="Helvetica,sans-Serif" font-size="10.00">CurveSet</text>
</g>
<!-- tool&#45;&gt;get_curve -->
<g id="edge8" class="edge">
<title>tool&#45;&gt;get_curve</title>
<path fill="none" stroke="black" d="M1804.85,-271.46C1941.61,-271 2171.44,-266.01 2197.65,-238 2220.42,-213.66 2217.25,-189.96 2197.65,-163 2196.99,-162.1 1964.35,-87.08 1856.45,-52.32"/>
<polygon fill="black" stroke="black" points="1857.31,-48.93 1846.72,-49.19 1855.17,-55.59 1857.31,-48.93"/>
</g>
<!-- get_matrix -->
<g id="node14" class="node">
<title>get_matrix</title>
<polygon fill="#90ee90" stroke="black" points="1956.65,-52 1864.65,-52 1864.65,-16 1956.65,-16 1956.65,-52"/>
<text text-anchor="middle" x="1910.65" y="-37" font-family="Helvetica,sans-Serif" font-size="10.00">GetElement(1)</text>
<text text-anchor="middle" x="1910.65" y="-26" font-family="Helvetica,sans-Serif" font-size="10.00">EmissionMatrix</text>
</g>
<!-- tool&#45;&gt;get_matrix -->
<g id="edge9" class="edge">
<title>tool&#45;&gt;get_matrix</title>
<path fill="none" stroke="black" d="M1804.98,-271.78C1946.98,-271.79 2191.03,-267.45 2218.65,-238 2304.68,-146.28 2077.5,-75.83 1967,-47.98"/>
<polygon fill="black" stroke="black" points="1967.55,-44.51 1957,-45.5 1965.86,-51.31 1967.55,-44.51"/>
</g>
<!-- mpe_begin -->
<g id="node15" class="node">
<title>mpe_begin</title>
<polygon fill="#90ee90" stroke="black" stroke-width="3" points="1274.15,-207 1183.15,-207 1183.15,-171 1274.15,-171 1274.15,-207"/>
<text text-anchor="middle" x="1228.65" y="-192" font-family="Helvetica,sans-Serif" font-size="10.00">pTagIn&#45;&gt;Begin</text>
<text text-anchor="middle" x="1228.65" y="-181" font-family="Helvetica,sans-Serif" font-size="10.00">(dspIcc, pccIcc)</text>
</g>
<!-- tool&#45;&gt;mpe_begin -->
<g id="edge10" class="edge">
<title>tool&#45;&gt;mpe_begin</title>
<path fill="none" stroke="black" stroke-width="2" d="M1602.65,-269.96C1497.92,-267.65 1341.92,-260.41 1286.65,-238 1273.65,-232.73 1261.35,-223.44 1251.46,-214.43"/>
<polygon fill="black" stroke="black" stroke-width="2" points="1253.71,-211.74 1244.07,-207.35 1248.87,-216.8 1253.71,-211.74"/>
</g>
<!-- mpe_apply_ctx -->
<g id="node16" class="node">
<title>mpe_apply_ctx</title>
<polygon fill="#90ee90" stroke="black" points="1165.15,-207 1082.15,-207 1082.15,-171 1165.15,-171 1165.15,-207"/>
<text text-anchor="middle" x="1123.65" y="-192" font-family="Helvetica,sans-Serif" font-size="10.00">GetNewApply</text>
<text text-anchor="middle" x="1123.65" y="-181" font-family="Helvetica,sans-Serif" font-size="10.00">GetList</text>
</g>
<!-- tool&#45;&gt;mpe_apply_ctx -->
<g id="edge11" class="edge">
<title>tool&#45;&gt;mpe_apply_ctx</title>
<path fill="none" stroke="black" d="M1603.88,-268.42C1461.48,-264.19 1212.86,-254.55 1174.65,-238 1162.91,-232.92 1152.21,-223.91 1143.67,-215.06"/>
<polygon fill="black" stroke="black" points="1146.06,-212.48 1136.76,-207.42 1140.88,-217.18 1146.06,-212.48"/>
</g>
<!-- c2s_begin -->
<g id="node17" class="node">
<title>c2s_begin</title>
<polygon fill="#90ee90" stroke="black" points="1063.65,-207 965.65,-207 965.65,-171 1063.65,-171 1063.65,-207"/>
<text text-anchor="middle" x="1014.65" y="-192" font-family="Helvetica,sans-Serif" font-size="10.00">pTagC2S&#45;&gt;Begin</text>
<text text-anchor="middle" x="1014.65" y="-181" font-family="Helvetica,sans-Serif" font-size="10.00">(pccIcc)</text>
</g>
<!-- tool&#45;&gt;c2s_begin -->
<g id="edge12" class="edge">
<title>tool&#45;&gt;c2s_begin</title>
<path fill="none" stroke="black" d="M1603.42,-269.15C1438.09,-265.6 1121.62,-256.48 1073.65,-238 1060.1,-232.78 1047.3,-223.19 1037.11,-213.94"/>
<polygon fill="black" stroke="black" points="1039.51,-211.39 1029.86,-207.02 1034.67,-216.46 1039.51,-211.39"/>
</g>
<!-- c2s_apply_ctx -->
<g id="node18" class="node">
<title>c2s_apply_ctx</title>
<polygon fill="#90ee90" stroke="black" points="947.15,-207 842.15,-207 842.15,-171 947.15,-171 947.15,-207"/>
<text text-anchor="middle" x="894.65" y="-186.5" font-family="Helvetica,sans-Serif" font-size="10.00">C2S GetNewApply</text>
</g>
<!-- tool&#45;&gt;c2s_apply_ctx -->
<g id="edge13" class="edge">
<title>tool&#45;&gt;c2s_apply_ctx</title>
<path fill="none" stroke="black" d="M1602.72,-269.93C1412.73,-267.42 1015.64,-259.63 956.65,-238 942.59,-232.85 929.17,-223.26 918.43,-214.01"/>
<polygon fill="black" stroke="black" points="920.54,-211.19 910.78,-207.07 915.84,-216.38 920.54,-211.19"/>
</g>
<!-- curve_alloc -->
<g id="node19" class="node">
<title>curve_alloc</title>
<polygon fill="#90ee90" stroke="black" points="1380.65,-124 1298.65,-124 1298.65,-88 1380.65,-88 1380.65,-124"/>
<text text-anchor="middle" x="1339.65" y="-109" font-family="Helvetica,sans-Serif" font-size="10.00">CIccTagCurve</text>
<text text-anchor="middle" x="1339.65" y="-98" font-family="Helvetica,sans-Serif" font-size="10.00">(2048)</text>
</g>
<!-- tool&#45;&gt;curve_alloc -->
<g id="edge14" class="edge">
<title>tool&#45;&gt;curve_alloc</title>
<path fill="none" stroke="black" d="M1804.41,-269.55C1915.13,-266.89 2080,-259.35 2099.65,-238 2122.22,-213.47 2123.08,-186.7 2099.65,-163 2085.88,-149.07 1412.94,-161.98 1394.65,-155 1381.75,-150.08 1369.88,-140.66 1360.49,-131.46"/>
<polygon fill="black" stroke="black" points="1362.97,-129 1353.51,-124.22 1357.93,-133.85 1362.97,-129"/>
</g>
<!-- curve_apply -->
<g id="node20" class="node">
<title>curve_apply</title>
<polygon fill="#90ee90" stroke="black" stroke-width="3" points="1280.65,-124 1176.65,-124 1176.65,-88 1280.65,-88 1280.65,-124"/>
<text text-anchor="middle" x="1228.65" y="-109" font-family="Helvetica,sans-Serif" font-size="10.00">curveMpe&#45;&gt;Apply</text>
<text text-anchor="middle" x="1228.65" y="-98" font-family="Helvetica,sans-Serif" font-size="10.00">×2048</text>
</g>
<!-- tool&#45;&gt;curve_apply -->
<g id="edge15" class="edge">
<title>tool&#45;&gt;curve_apply</title>
<path fill="none" stroke="black" stroke-width="2" d="M1803.81,-268.56C1903.62,-265.06 2044.48,-256.82 2061.65,-238 2084.11,-213.37 2085.09,-186.69 2061.65,-163 2046.56,-147.76 1309.87,-162.12 1289.65,-155 1275.67,-150.08 1262.44,-140.53 1251.9,-131.23"/>
<polygon fill="black" stroke="black" stroke-width="2" points="1254.11,-128.5 1244.4,-124.26 1249.34,-133.63 1254.11,-128.5"/>
</g>
<!-- attach_trc -->
<g id="node21" class="node">
<title>attach_trc</title>
<polygon fill="#90ee90" stroke="black" points="1265.65,-52 1191.65,-52 1191.65,-16 1265.65,-16 1265.65,-52"/>
<text text-anchor="middle" x="1228.65" y="-37" font-family="Helvetica,sans-Serif" font-size="10.00">AttachTag</text>
<text text-anchor="middle" x="1228.65" y="-26" font-family="Helvetica,sans-Serif" font-size="10.00">(R/G/B TRC)</text>
</g>
<!-- tool&#45;&gt;attach_trc -->
<g id="edge16" class="edge">
<title>tool&#45;&gt;attach_trc</title>
<path fill="none" stroke="black" d="M1804.56,-270.06C1921.38,-267.89 2100.54,-260.84 2121.65,-238 2144.27,-213.52 2144.98,-186.8 2121.65,-163 2113.85,-155.04 1731.69,-156.44 1720.65,-155 1554.18,-133.31 1362.33,-77.22 1275.57,-50.11"/>
<polygon fill="black" stroke="black" points="1276.36,-46.69 1265.77,-47.03 1274.26,-53.37 1276.36,-46.69"/>
</g>
<!-- mtx_apply_r -->
<g id="node22" class="node">
<title>mtx_apply_r</title>
<polygon fill="#90ee90" stroke="black" points="457.65,-207 347.65,-207 347.65,-171 457.65,-171 457.65,-207"/>
<text text-anchor="middle" x="402.65" y="-192" font-family="Helvetica,sans-Serif" font-size="10.00">matrixMpe&#45;&gt;Apply</text>
<text text-anchor="middle" x="402.65" y="-181" font-family="Helvetica,sans-Serif" font-size="10.00">(red RGB)</text>
</g>
<!-- tool&#45;&gt;mtx_apply_r -->
<g id="edge17" class="edge">
<title>tool&#45;&gt;mtx_apply_r</title>
<path fill="none" stroke="black" d="M1603.23,-269.43C1383.27,-265.73 864.59,-255.4 689.65,-238 613.06,-230.38 525.98,-214.83 468.02,-203.49"/>
<polygon fill="black" stroke="black" points="468.4,-199.99 457.91,-201.49 467.04,-206.86 468.4,-199.99"/>
</g>
<!-- c2s_apply_r -->
<g id="node23" class="node">
<title>c2s_apply_r</title>
<polygon fill="#90ee90" stroke="black" points="440.15,-124 365.15,-124 365.15,-88 440.15,-88 440.15,-124"/>
<text text-anchor="middle" x="402.65" y="-109" font-family="Helvetica,sans-Serif" font-size="10.00">C2S&#45;&gt;Apply</text>
<text text-anchor="middle" x="402.65" y="-98" font-family="Helvetica,sans-Serif" font-size="10.00">(red→XYZ)</text>
</g>
<!-- tool&#45;&gt;c2s_apply_r -->
<g id="edge18" class="edge">
<title>tool&#45;&gt;c2s_apply_r</title>
<path fill="none" stroke="black" d="M1800.81,-265.92C1877.39,-260.88 1973.28,-251.9 1985.65,-238 2007.8,-213.1 2009.11,-186.68 1985.65,-163 1977.33,-154.6 1146.46,-155.44 1134.65,-155 876.14,-145.32 567.03,-120.78 450.35,-111.06"/>
<polygon fill="black" stroke="black" points="450.58,-107.57 440.32,-110.22 449.99,-114.54 450.58,-107.57"/>
</g>
<!-- mtx_apply_g -->
<g id="node24" class="node">
<title>mtx_apply_g</title>
<polygon fill="#90ee90" stroke="black" points="201.65,-207 91.65,-207 91.65,-171 201.65,-171 201.65,-207"/>
<text text-anchor="middle" x="146.65" y="-192" font-family="Helvetica,sans-Serif" font-size="10.00">matrixMpe&#45;&gt;Apply</text>
<text text-anchor="middle" x="146.65" y="-181" font-family="Helvetica,sans-Serif" font-size="10.00">(green RGB)</text>
</g>
<!-- tool&#45;&gt;mtx_apply_g -->
<g id="edge19" class="edge">
<title>tool&#45;&gt;mtx_apply_g</title>
<path fill="none" stroke="black" d="M1604.37,-267.94C1433.6,-262.77 1073.26,-252.26 768.65,-246 737.65,-245.36 239.99,-248.01 210.65,-238 195.94,-232.98 181.87,-223.19 170.69,-213.74"/>
<polygon fill="black" stroke="black" points="172.89,-211.02 163.08,-207.01 168.24,-216.26 172.89,-211.02"/>
</g>
<!-- c2s_apply_g -->
<g id="node25" class="node">
<title>c2s_apply_g</title>
<polygon fill="#90ee90" stroke="black" points="186.65,-124 106.65,-124 106.65,-88 186.65,-88 186.65,-124"/>
<text text-anchor="middle" x="146.65" y="-109" font-family="Helvetica,sans-Serif" font-size="10.00">C2S&#45;&gt;Apply</text>
<text text-anchor="middle" x="146.65" y="-98" font-family="Helvetica,sans-Serif" font-size="10.00">(green→XYZ)</text>
</g>
<!-- tool&#45;&gt;c2s_apply_g -->
<g id="edge20" class="edge">
<title>tool&#45;&gt;c2s_apply_g</title>
<path fill="none" stroke="black" d="M1802.97,-267.88C1851.38,-264.05 1902.41,-255.76 1917.65,-238 1939.35,-212.7 1941.16,-186.63 1917.65,-163 1909.37,-154.69 239.96,-158.1 228.65,-155 210.16,-149.94 191.56,-139.58 176.76,-129.78"/>
<polygon fill="black" stroke="black" points="178.74,-126.9 168.52,-124.12 174.78,-132.67 178.74,-126.9"/>
</g>
<!-- mtx_apply_b -->
<g id="node26" class="node">
<title>mtx_apply_b</title>
<polygon fill="#90ee90" stroke="black" points="329.65,-207 219.65,-207 219.65,-171 329.65,-171 329.65,-207"/>
<text text-anchor="middle" x="274.65" y="-192" font-family="Helvetica,sans-Serif" font-size="10.00">matrixMpe&#45;&gt;Apply</text>
<text text-anchor="middle" x="274.65" y="-181" font-family="Helvetica,sans-Serif" font-size="10.00">(blue RGB)</text>
</g>
<!-- tool&#45;&gt;mtx_apply_b -->
<g id="edge21" class="edge">
<title>tool&#45;&gt;mtx_apply_b</title>
<path fill="none" stroke="black" d="M1604.02,-268.07C1433.12,-263.1 1073.04,-252.9 768.65,-246 744.76,-245.46 361.24,-245.77 338.65,-238 324.06,-232.99 310.09,-223.29 298.94,-213.92"/>
<polygon fill="black" stroke="black" points="301.16,-211.22 291.35,-207.22 296.53,-216.46 301.16,-211.22"/>
</g>
<!-- c2s_apply_b -->
<g id="node27" class="node">
<title>c2s_apply_b</title>
<polygon fill="#90ee90" stroke="black" points="312.15,-124 237.15,-124 237.15,-88 312.15,-88 312.15,-124"/>
<text text-anchor="middle" x="274.65" y="-109" font-family="Helvetica,sans-Serif" font-size="10.00">C2S&#45;&gt;Apply</text>
<text text-anchor="middle" x="274.65" y="-98" font-family="Helvetica,sans-Serif" font-size="10.00">(blue→XYZ)</text>
</g>
<!-- tool&#45;&gt;c2s_apply_b -->
<g id="edge22" class="edge">
<title>tool&#45;&gt;c2s_apply_b</title>
<path fill="none" stroke="black" d="M1804.56,-270.34C1863.08,-267.57 1928.84,-259.53 1947.65,-238 1969.58,-212.9 1971.16,-186.63 1947.65,-163 1932.06,-147.34 377.96,-160.84 356.65,-155 338.16,-149.94 319.56,-139.58 304.76,-129.78"/>
<polygon fill="black" stroke="black" points="306.74,-126.89 296.52,-124.12 302.78,-132.66 306.74,-126.89"/>
</g>
<!-- attach_xyz -->
<g id="node28" class="node">
<title>attach_xyz</title>
<polygon fill="#90ee90" stroke="black" points="450.15,-52 355.15,-52 355.15,-16 450.15,-16 450.15,-52"/>
<text text-anchor="middle" x="402.65" y="-37" font-family="Helvetica,sans-Serif" font-size="10.00">AttachTag</text>
<text text-anchor="middle" x="402.65" y="-26" font-family="Helvetica,sans-Serif" font-size="10.00">(R/G/B Colorant)</text>
</g>
<!-- tool&#45;&gt;attach_xyz -->
<g id="edge23" class="edge">
<title>tool&#45;&gt;attach_xyz</title>
<path fill="none" stroke="black" d="M1801.85,-266.79C1885.36,-262.18 1993.91,-253.31 2007.65,-238 2029.91,-213.19 2031.1,-186.68 2007.65,-163 1999.4,-154.67 1175.33,-155.97 1163.65,-155 898.9,-132.99 586.87,-72.9 460.3,-47.07"/>
<polygon fill="black" stroke="black" points="460.93,-43.62 450.43,-45.04 459.52,-50.48 460.93,-43.62"/>
</g>
<!-- save_profile -->
<g id="node29" class="node">
<title>save_profile</title>
<polygon fill="#90ee90" stroke="black" points="803.15,-207 718.15,-207 718.15,-171 803.15,-171 803.15,-207"/>
<text text-anchor="middle" x="760.65" y="-192" font-family="Helvetica,sans-Serif" font-size="10.00">SaveIccProfile</text>
<text text-anchor="middle" x="760.65" y="-181" font-family="Helvetica,sans-Serif" font-size="10.00">(V4 output)</text>
</g>
<!-- tool&#45;&gt;save_profile -->
<g id="edge24" class="edge">
<title>tool&#45;&gt;save_profile</title>
<path fill="none" stroke="black" d="M1602.8,-270.38C1388.45,-268.59 901.2,-261.93 829.65,-238 814.13,-232.81 798.97,-222.96 786.83,-213.52"/>
<polygon fill="black" stroke="black" points="788.91,-210.71 778.94,-207.12 784.5,-216.14 788.91,-210.71"/>
</g>
<!-- fuzzer -->
<g id="node5" class="node">
<title>fuzzer</title>
<ellipse fill="#ff6b6b" stroke="black" cx="656.65" cy="-272" rx="102.56" ry="21.43"/>
<text text-anchor="middle" x="656.65" y="-275" font-family="Helvetica,sans-Serif" font-size="10.00">LLVMFuzzerTestOneInput()</text>
<text text-anchor="middle" x="656.65" y="-264" font-family="Helvetica,sans-Serif" font-size="10.00">icc_v5dspobs_fuzzer.cpp</text>
</g>
<!-- fuzzer&#45;&gt;read_dsp -->
<g id="edge25" class="edge">
<title>fuzzer&#45;&gt;read_dsp</title>
<path fill="none" stroke="green" stroke-width="2" d="M759.13,-270.27C947.11,-268.37 1333.07,-261.6 1389.65,-238 1401.87,-232.9 1413.02,-223.58 1421.83,-214.5"/>
<polygon fill="green" stroke="green" stroke-width="2" points="1424.5,-216.78 1428.66,-207.03 1419.33,-212.06 1424.5,-216.78"/>
</g>
<!-- fuzzer&#45;&gt;validate_dsp -->
<g id="edge26" class="edge">
<title>fuzzer&#45;&gt;validate_dsp</title>
<path fill="none" stroke="green" stroke-dasharray="1,5" d="M758.64,-269.39C924.58,-266.22 1239.34,-257.68 1286.65,-238 1299,-232.86 1310.35,-223.54 1319.35,-214.46"/>
<polygon fill="green" stroke="green" points="1322.06,-216.7 1326.33,-207 1316.94,-211.92 1322.06,-216.7"/>
</g>
<!-- fuzzer&#45;&gt;find_atob1 -->
<g id="edge27" class="edge">
<title>fuzzer&#45;&gt;find_atob1</title>
<path fill="none" stroke="green" stroke-dasharray="1,5" d="M757.76,-268.33C1037.68,-260.91 1802.58,-240.44 1808.65,-238 1821.06,-233.01 1832.42,-223.71 1841.41,-214.61"/>
<polygon fill="green" stroke="green" points="1844.13,-216.83 1848.38,-207.12 1839,-212.06 1844.13,-216.83"/>
</g>
<!-- fuzzer&#45;&gt;read_pcc -->
<g id="edge28" class="edge">
<title>fuzzer&#45;&gt;read_pcc</title>
<path fill="none" stroke="green" stroke-width="2" d="M758.01,-268.74C1016.76,-262.86 1682.94,-246.88 1704.65,-238 1716.9,-232.98 1728.06,-223.68 1736.87,-214.59"/>
<polygon fill="green" stroke="green" stroke-width="2" points="1739.54,-216.85 1743.69,-207.1 1734.37,-212.14 1739.54,-216.85"/>
</g>
<!-- fuzzer&#45;&gt;find_svcn -->
<g id="edge29" class="edge">
<title>fuzzer&#45;&gt;find_svcn</title>
<path fill="none" stroke="green" stroke-dasharray="1,5" d="M759.26,-271.42C987.61,-271.79 1523.66,-269.25 1599.65,-238 1611.9,-232.96 1623.05,-223.65 1631.86,-214.57"/>
<polygon fill="green" stroke="green" points="1634.53,-216.83 1638.68,-207.08 1629.36,-212.12 1634.53,-216.83"/>
</g>
<!-- fuzzer&#45;&gt;find_c2s -->
<g id="edge30" class="edge">
<title>fuzzer&#45;&gt;find_c2s</title>
<path fill="none" stroke="green" stroke-dasharray="1,5" d="M759.36,-270.86C968.01,-270.02 1427.38,-265.06 1493.65,-238 1506.04,-232.94 1517.39,-223.63 1526.38,-214.54"/>
<polygon fill="green" stroke="green" points="1529.1,-216.77 1533.35,-207.07 1523.98,-212 1529.1,-216.77"/>
</g>
<!-- fuzzer&#45;&gt;num_elem -->
<g id="edge31" class="edge">
<title>fuzzer&#45;&gt;num_elem</title>
<path fill="none" stroke="green" stroke-dasharray="1,5" d="M656.24,-250.71C656.96,-225.49 662.48,-183.31 689.65,-163 698.64,-156.27 1487.44,-155.79 1498.65,-155 1603.87,-147.55 1725.21,-129.59 1797.55,-117.87"/>
<polygon fill="green" stroke="green" points="1798.12,-121.33 1807.43,-116.27 1797,-114.42 1798.12,-121.33"/>
</g>
<!-- fuzzer&#45;&gt;get_curve -->
<g id="edge32" class="edge">
<title>fuzzer&#45;&gt;get_curve</title>
<path fill="none" stroke="green" stroke-dasharray="1,5" d="M632.15,-251.24C628.69,-247.25 625.63,-242.79 623.65,-238 610.89,-207.2 600.2,-186.69 623.65,-163 639.1,-147.38 1394.79,-164.41 1414.65,-155 1449.72,-138.39 1436.9,-107.16 1470.65,-88 1517.07,-61.64 1666.66,-45.89 1748.28,-39.05"/>
<polygon fill="green" stroke="green" points="1748.69,-42.52 1758.37,-38.22 1748.12,-35.55 1748.69,-42.52"/>
</g>
<!-- fuzzer&#45;&gt;get_matrix -->
<g id="edge33" class="edge">
<title>fuzzer&#45;&gt;get_matrix</title>
<path fill="none" stroke="green" stroke-dasharray="1,5" d="M648.15,-250.73C639.44,-226.33 630.07,-185.8 652.65,-163 660.5,-155.06 1445.57,-156.46 1456.65,-155 1603.2,-135.65 1769.91,-83.51 1854.7,-54.74"/>
<polygon fill="green" stroke="green" points="1856.04,-57.98 1864.38,-51.43 1853.78,-51.35 1856.04,-57.98"/>
</g>
<!-- fuzzer&#45;&gt;mpe_begin -->
<g id="edge34" class="edge">
<title>fuzzer&#45;&gt;mpe_begin</title>
<path fill="none" stroke="green" stroke-width="2" d="M757.48,-268.1C897.34,-263.54 1137.3,-253.58 1174.65,-238 1186.95,-232.87 1198.34,-223.73 1207.46,-214.79"/>
<polygon fill="green" stroke="green" stroke-width="2" points="1210.14,-217.06 1214.55,-207.42 1205.09,-212.2 1210.14,-217.06"/>
</g>
<!-- fuzzer&#45;&gt;mpe_apply_ctx -->
<g id="edge35" class="edge">
<title>fuzzer&#45;&gt;mpe_apply_ctx</title>
<path fill="none" stroke="green" stroke-dasharray="1,5" d="M759.12,-270.59C863.83,-268.8 1018.5,-262 1072.65,-238 1084.34,-232.82 1095.03,-223.79 1103.58,-214.95"/>
<polygon fill="green" stroke="green" points="1106.36,-217.09 1110.5,-207.34 1101.18,-212.38 1106.36,-217.09"/>
</g>
<!-- fuzzer&#45;&gt;c2s_begin -->
<g id="edge36" class="edge">
<title>fuzzer&#45;&gt;c2s_begin</title>
<path fill="none" stroke="green" stroke-dasharray="1,5" d="M755.33,-266.24C828.48,-261.58 921.36,-252.94 956.65,-238 969.56,-232.53 981.84,-223.21 991.75,-214.23"/>
<polygon fill="green" stroke="green" points="994.32,-216.62 999.15,-207.19 989.5,-211.55 994.32,-216.62"/>
</g>
<!-- fuzzer&#45;&gt;c2s_apply_ctx -->
<g id="edge37" class="edge">
<title>fuzzer&#45;&gt;c2s_apply_ctx</title>
<path fill="none" stroke="green" stroke-dasharray="1,5" d="M746.5,-261.68C773.96,-256.78 803.73,-249.33 829.65,-238 843.37,-232 856.95,-222.65 868.13,-213.8"/>
<polygon fill="green" stroke="green" points="870.67,-216.24 876.16,-207.18 866.22,-210.83 870.67,-216.24"/>
</g>
<!-- fuzzer&#45;&gt;curve_alloc -->
<g id="edge38" class="edge">
<title>fuzzer&#45;&gt;curve_alloc</title>
<path fill="none" stroke="green" stroke-dasharray="1,5" d="M602.19,-254.02C595.64,-249.79 589.81,-244.53 585.65,-238 567.72,-209.9 562.21,-186.7 585.65,-163 599.4,-149.09 1271.54,-162.4 1289.65,-155 1301.53,-150.14 1312.2,-140.99 1320.6,-131.97"/>
<polygon fill="green" stroke="green" points="1323.44,-134.03 1327.37,-124.19 1318.16,-129.43 1323.44,-134.03"/>
</g>
<!-- fuzzer&#45;&gt;curve_apply -->
<g id="edge39" class="edge">
<title>fuzzer&#45;&gt;curve_apply</title>
<path fill="none" stroke="green" stroke-width="2" d="M574.7,-259.09C564.13,-254.17 554.6,-247.37 547.65,-238 527.78,-211.23 525.06,-187.52 547.65,-163 589.11,-117.99 1006.17,-109.16 1166.4,-107.42"/>
<polygon fill="green" stroke="green" stroke-width="2" points="1166.61,-110.92 1176.58,-107.32 1166.54,-103.92 1166.61,-110.92"/>
</g>
<!-- fuzzer&#45;&gt;attach_trc -->
<g id="edge40" class="edge">
<title>fuzzer&#45;&gt;attach_trc</title>
<path fill="none" stroke="green" stroke-dasharray="1,5" d="M576.44,-258.71C554.29,-253.6 534.45,-246.76 527.65,-238 507.2,-211.67 506.3,-188.6 527.65,-163 611.61,-62.31 1037.04,-40.61 1180.97,-36.12"/>
<polygon fill="green" stroke="green" points="1181.35,-39.61 1191.24,-35.82 1181.14,-32.62 1181.35,-39.61"/>
</g>
<!-- fuzzer&#45;&gt;mtx_apply_r -->
<g id="edge41" class="edge">
<title>fuzzer&#45;&gt;mtx_apply_r</title>
<path fill="none" stroke="green" stroke-dasharray="1,5" d="M564.57,-262.54C534.19,-257.68 500.74,-250.03 471.65,-238 457.11,-231.99 442.57,-222.52 430.62,-213.58"/>
<polygon fill="green" stroke="green" points="432.46,-210.58 422.41,-207.22 428.17,-216.11 432.46,-210.58"/>
</g>
<!-- fuzzer&#45;&gt;c2s_apply_r -->
<g id="edge42" class="edge">
<title>fuzzer&#45;&gt;c2s_apply_r</title>
<path fill="none" stroke="green" stroke-dasharray="1,5" d="M576.26,-258.8C540.89,-253.94 498.79,-248.83 460.65,-246 450.17,-245.22 89.99,-245.5 82.65,-238 59.33,-214.18 59.47,-186.96 82.65,-163 91.88,-153.45 308.89,-158.73 321.65,-155 339.58,-149.76 357.64,-139.64 372.15,-130.03"/>
<polygon fill="green" stroke="green" points="374.42,-132.71 380.68,-124.16 370.46,-126.94 374.42,-132.71"/>
</g>
<!-- fuzzer&#45;&gt;mtx_apply_g -->
<g id="edge43" class="edge">
<title>fuzzer&#45;&gt;mtx_apply_g</title>
<path fill="none" stroke="green" stroke-dasharray="1,5" d="M575.77,-258.93C540.49,-254.12 498.6,-249.02 460.65,-246 432.94,-243.79 236.87,-247.21 210.65,-238 196.09,-232.89 182.12,-223.18 170.97,-213.82"/>
<polygon fill="green" stroke="green" points="173.2,-211.12 163.38,-207.15 168.57,-216.38 173.2,-211.12"/>
</g>
<!-- fuzzer&#45;&gt;c2s_apply_g -->
<g id="edge44" class="edge">
<title>fuzzer&#45;&gt;c2s_apply_g</title>
<path fill="none" stroke="green" stroke-dasharray="1,5" d="M576.26,-258.76C540.89,-253.89 498.79,-248.79 460.65,-246 448.95,-245.15 46.86,-246.37 38.65,-238 15.3,-214.21 21.33,-191.48 38.65,-163 51.45,-141.93 75.03,-128.44 96.9,-119.98"/>
<polygon fill="green" stroke="green" points="98.23,-123.23 106.46,-116.56 95.86,-116.64 98.23,-123.23"/>
</g>
<!-- fuzzer&#45;&gt;mtx_apply_b -->
<g id="edge45" class="edge">
<title>fuzzer&#45;&gt;mtx_apply_b</title>
<path fill="none" stroke="green" stroke-dasharray="1,5" d="M574.28,-259.35C539.3,-254.7 498.03,-249.61 460.65,-246 433.6,-243.39 364.13,-247.43 338.65,-238 324.29,-232.69 310.43,-223.05 299.3,-213.79"/>
<polygon fill="green" stroke="green" points="301.55,-211.11 291.71,-207.19 296.96,-216.4 301.55,-211.11"/>
</g>
<!-- fuzzer&#45;&gt;c2s_apply_b -->
<g id="edge46" class="edge">
<title>fuzzer&#45;&gt;c2s_apply_b</title>
<path fill="none" stroke="green" stroke-dasharray="1,5" d="M576.26,-258.78C540.89,-253.91 498.79,-248.81 460.65,-246 449.56,-245.18 68.43,-245.94 60.65,-238 37.31,-214.2 37.78,-187.26 60.65,-163 70.95,-152.07 181.3,-159.48 195.65,-155 213.03,-149.57 230.52,-139.53 244.61,-130.03"/>
<polygon fill="green" stroke="green" points="246.72,-132.82 252.91,-124.23 242.71,-127.08 246.72,-132.82"/>
</g>
<!-- fuzzer&#45;&gt;attach_xyz -->
<g id="edge47" class="edge">
<title>fuzzer&#45;&gt;attach_xyz</title>
<path fill="none" stroke="green" stroke-dasharray="1,5" d="M576.26,-258.74C540.89,-253.87 498.79,-248.77 460.65,-246 448.43,-245.11 28.23,-246.74 19.65,-238 -33,-184.39 30.62,-121.96 97.65,-88 176.9,-47.85 280.96,-37.45 344.76,-35.13"/>
<polygon fill="green" stroke="green" points="345.14,-38.62 355.03,-34.81 344.93,-31.62 345.14,-38.62"/>
</g>
<!-- fuzzer&#45;&gt;save_profile -->
<g id="edge48" class="edge">
<title>fuzzer&#45;&gt;save_profile</title>
<path fill="none" stroke="green" stroke-dasharray="1,5" d="M681.82,-251.39C696.43,-240.01 714.93,-225.61 730.33,-213.61"/>
<polygon fill="green" stroke="green" points="732.79,-216.13 738.53,-207.23 728.49,-210.61 732.79,-216.13"/>
</g>
<!-- find_atob1&#45;&gt;num_elem -->
<g id="edge49" class="edge">
<title>find_atob1&#45;&gt;num_elem</title>
<path fill="none" stroke="black" d="M1861.65,-170.82C1861.65,-160.19 1861.65,-146.31 1861.65,-134.2"/>
<polygon fill="black" stroke="black" points="1865.15,-134.15 1861.65,-124.15 1858.15,-134.15 1865.15,-134.15"/>
</g>
<!-- num_elem&#45;&gt;get_curve -->
<g id="edge50" class="edge">
<title>num_elem&#45;&gt;get_curve</title>
<path fill="none" stroke="black" d="M1847.06,-87.7C1839.99,-79.3 1831.36,-69.07 1823.6,-59.86"/>
<polygon fill="black" stroke="black" points="1826.18,-57.49 1817.06,-52.1 1820.83,-62.01 1826.18,-57.49"/>
</g>
<!-- num_elem&#45;&gt;get_matrix -->
<g id="edge51" class="edge">
<title>num_elem&#45;&gt;get_matrix</title>
<path fill="none" stroke="black" d="M1873.76,-87.7C1879.51,-79.47 1886.51,-69.48 1892.85,-60.42"/>
<polygon fill="black" stroke="black" points="1895.81,-62.3 1898.67,-52.1 1890.07,-58.29 1895.81,-62.3"/>
</g>
<!-- mpe_begin&#45;&gt;curve_apply -->
<g id="edge52" class="edge">
<title>mpe_begin&#45;&gt;curve_apply</title>
<path fill="none" stroke="black" d="M1228.65,-170.82C1228.65,-160.19 1228.65,-146.31 1228.65,-134.2"/>
<polygon fill="black" stroke="black" points="1232.15,-134.15 1228.65,-124.15 1225.15,-134.15 1232.15,-134.15"/>
</g>
<!-- mpe_begin&#45;&gt;mtx_apply_r -->
<g id="edge53" class="edge">
<title>mpe_begin&#45;&gt;mtx_apply_r</title>
<path fill="none" stroke="black" d="M1215.29,-207.27C1203.92,-220.81 1186.2,-237.64 1165.65,-242 1140.27,-247.39 724.49,-244.3 698.65,-242 618.52,-234.88 527.61,-217.13 467.93,-204.13"/>
<polygon fill="black" stroke="black" points="468.41,-200.65 457.9,-201.92 466.91,-207.49 468.41,-200.65"/>
</g>
<!-- curve_apply&#45;&gt;attach_trc -->
<g id="edge54" class="edge">
<title>curve_apply&#45;&gt;attach_trc</title>
<path fill="none" stroke="black" d="M1228.65,-87.7C1228.65,-79.98 1228.65,-70.71 1228.65,-62.11"/>
<polygon fill="black" stroke="black" points="1232.15,-62.1 1228.65,-52.1 1225.15,-62.1 1232.15,-62.1"/>
</g>
<!-- mtx_apply_r&#45;&gt;c2s_apply_r -->
<g id="edge55" class="edge">
<title>mtx_apply_r&#45;&gt;c2s_apply_r</title>
<path fill="none" stroke="black" d="M402.65,-170.82C402.65,-160.19 402.65,-146.31 402.65,-134.2"/>
<polygon fill="black" stroke="black" points="406.15,-134.15 402.65,-124.15 399.15,-134.15 406.15,-134.15"/>
</g>
<!-- c2s_apply_r&#45;&gt;attach_xyz -->
<g id="edge58" class="edge">
<title>c2s_apply_r&#45;&gt;attach_xyz</title>
<path fill="none" stroke="black" d="M402.65,-87.7C402.65,-79.98 402.65,-70.71 402.65,-62.11"/>
<polygon fill="black" stroke="black" points="406.15,-62.1 402.65,-52.1 399.15,-62.1 406.15,-62.1"/>
</g>
<!-- mtx_apply_g&#45;&gt;c2s_apply_g -->
<g id="edge56" class="edge">
<title>mtx_apply_g&#45;&gt;c2s_apply_g</title>
<path fill="none" stroke="black" d="M146.65,-170.82C146.65,-160.19 146.65,-146.31 146.65,-134.2"/>
<polygon fill="black" stroke="black" points="150.15,-134.15 146.65,-124.15 143.15,-134.15 150.15,-134.15"/>
</g>
<!-- mtx_apply_b&#45;&gt;c2s_apply_b -->
<g id="edge57" class="edge">
<title>mtx_apply_b&#45;&gt;c2s_apply_b</title>
<path fill="none" stroke="black" d="M274.65,-170.82C274.65,-160.19 274.65,-146.31 274.65,-134.2"/>
<polygon fill="black" stroke="black" points="278.15,-134.15 274.65,-124.15 271.15,-134.15 278.15,-134.15"/>
</g>
</g>
</svg>
