<?xml version="1.0" encoding="UTF-8" standalone="no"?>
<!DOCTYPE svg PUBLIC "-//W3C//DTD SVG 1.1//EN"
 "http://www.w3.org/Graphics/SVG/1.1/DTD/svg11.dtd">
<!-- Generated by graphviz version 2.43.0 (0)
 -->
<!-- Title: Call graph: /home/h02332/po/research/call&#45;graph/analyzer/IccAnalyzerInspect.ll Pages: 1 -->
<svg width="3245pt" height="14400pt"
 viewBox="0.00 0.00 3245.07 14400.00" xmlns="http://www.w3.org/2000/svg" xmlns:xlink="http://www.w3.org/1999/xlink">
<g id="graph0" class="graph" transform="scale(1.79 1.79) rotate(0) translate(36 7987)">
<title>Call graph: /home/h02332/po/research/call&#45;graph/analyzer/IccAnalyzerInspect.ll</title>
<polygon fill="white" stroke="transparent" points="-36,36 -36,-7987 1772,-7987 1772,36 -36,36"/>
<!-- Node0x5af0449d97f0 -->
<g id="node1" class="node">
<title>Node0x5af0449d97f0</title>
<path fill="#f0f4ff" stroke="black" d="M450,-1058C450,-1058 375,-1058 375,-1058 369,-1058 363,-1052 363,-1046 363,-1046 363,-1034 363,-1034 363,-1028 369,-1022 375,-1022 375,-1022 450,-1022 450,-1022 456,-1022 462,-1028 462,-1034 462,-1034 462,-1046 462,-1046 462,-1052 456,-1058 450,-1058"/>
<text text-anchor="middle" x="412.5" y="-1037.8" font-family="Courier,monospace" font-size="9.00">{PrintHexDump()}</text>
</g>
<!-- Node0x5af0449c59a0 -->
<g id="node2" class="node">
<title>Node0x5af0449c59a0</title>
<path fill="#f0f4ff" stroke="black" d="M855.5,-1121C855.5,-1121 822.5,-1121 822.5,-1121 816.5,-1121 810.5,-1115 810.5,-1109 810.5,-1109 810.5,-1097 810.5,-1097 810.5,-1091 816.5,-1085 822.5,-1085 822.5,-1085 855.5,-1085 855.5,-1085 861.5,-1085 867.5,-1091 867.5,-1097 867.5,-1097 867.5,-1109 867.5,-1109 867.5,-1115 861.5,-1121 855.5,-1121"/>
<text text-anchor="middle" x="839" y="-1100.8" font-family="Courier,monospace" font-size="9.00">{printf}</text>
</g>
<!-- Node0x5af0449d97f0&#45;&gt;Node0x5af0449c59a0 -->
<g id="edge1" class="edge">
<title>Node0x5af0449d97f0&#45;&gt;Node0x5af0449c59a0</title>
<path fill="none" stroke="#4a6fa5" d="M462.2,-1047.23C548.91,-1060.1 728.02,-1086.68 803.38,-1097.86"/>
<polygon fill="#4a6fa5" stroke="#4a6fa5" points="803.06,-1100.29 810.35,-1098.9 803.78,-1095.44 803.06,-1100.29"/>
</g>
<!-- Node0x5af0449f7920 -->
<g id="node3" class="node">
<title>Node0x5af0449f7920</title>
<path fill="#f0f4ff" stroke="black" d="M115.5,-1375C115.5,-1375 14.5,-1375 14.5,-1375 8.5,-1375 2.5,-1369 2.5,-1363 2.5,-1363 2.5,-1351 2.5,-1351 2.5,-1345 8.5,-1339 14.5,-1339 14.5,-1339 115.5,-1339 115.5,-1339 121.5,-1339 127.5,-1345 127.5,-1351 127.5,-1351 127.5,-1363 127.5,-1363 127.5,-1369 121.5,-1375 115.5,-1375"/>
<text text-anchor="middle" x="65" y="-1354.8" font-family="Courier,monospace" font-size="9.00">{DumpProfileHeader()}</text>
</g>
<!-- Node0x5af0449f7920&#45;&gt;Node0x5af0449d97f0 -->
<g id="edge5" class="edge">
<title>Node0x5af0449f7920&#45;&gt;Node0x5af0449d97f0</title>
<path fill="none" stroke="#4a6fa5" d="M69.76,-1338.7C81.35,-1287.36 121.56,-1141.29 216,-1073 256.34,-1043.83 313.5,-1037.09 355.6,-1036.74"/>
<polygon fill="#4a6fa5" stroke="#4a6fa5" points="355.75,-1039.19 362.75,-1036.74 355.75,-1034.29 355.75,-1039.19"/>
</g>
<!-- Node0x5af0449f7920&#45;&gt;Node0x5af0449c59a0 -->
<g id="edge2" class="edge">
<title>Node0x5af0449f7920&#45;&gt;Node0x5af0449c59a0</title>
<path fill="none" stroke="#4a6fa5" d="M113.66,-1375.02C211.98,-1409.1 442.09,-1472.7 609,-1392 725.85,-1335.5 801.26,-1187.21 827.57,-1127.97"/>
<polygon fill="#4a6fa5" stroke="#4a6fa5" points="829.97,-1128.59 830.53,-1121.2 825.48,-1126.63 829.97,-1128.59"/>
</g>
<!-- Node0x5af044977170 -->
<g id="node4" class="node">
<title>Node0x5af044977170</title>
<path fill="#f0f4ff" stroke="black" d="M468,-1312C468,-1312 357,-1312 357,-1312 351,-1312 345,-1306 345,-1300 345,-1300 345,-1288 345,-1288 345,-1282 351,-1276 357,-1276 357,-1276 468,-1276 468,-1276 474,-1276 480,-1282 480,-1288 480,-1288 480,-1300 480,-1300 480,-1306 474,-1312 468,-1312"/>
<text text-anchor="middle" x="412.5" y="-1291.8" font-family="Courier,monospace" font-size="9.00">{CIccInfo::~CIccInfo()}</text>
</g>
<!-- Node0x5af0449f7920&#45;&gt;Node0x5af044977170 -->
<g id="edge3" class="edge">
<title>Node0x5af0449f7920&#45;&gt;Node0x5af044977170</title>
<path fill="none" stroke="#4a6fa5" d="M127.59,-1344.25C154.67,-1338.75 186.88,-1332.37 216,-1327 256.14,-1319.6 301.05,-1311.97 337.69,-1305.92"/>
<polygon fill="#4a6fa5" stroke="#4a6fa5" points="338.4,-1308.29 344.9,-1304.73 337.6,-1303.45 338.4,-1308.29"/>
</g>
<!-- Node0x5af0449770f0 -->
<g id="node5" class="node">
<title>Node0x5af0449770f0</title>
<path fill="#f0f4ff" stroke="black" d="M497,-1501C497,-1501 328,-1501 328,-1501 322,-1501 316,-1495 316,-1489 316,-1489 316,-1477 316,-1477 316,-1471 322,-1465 328,-1465 328,-1465 497,-1465 497,-1465 503,-1465 509,-1471 509,-1477 509,-1477 509,-1489 509,-1489 509,-1495 503,-1501 497,-1501"/>
<text text-anchor="middle" x="412.5" y="-1480.8" font-family="Courier,monospace" font-size="9.00">{CIccInfo::GetColorSpaceSigName()}</text>
</g>
<!-- Node0x5af0449f7920&#45;&gt;Node0x5af0449770f0 -->
<g id="edge4" class="edge">
<title>Node0x5af0449f7920&#45;&gt;Node0x5af0449770f0</title>
<path fill="none" stroke="#4a6fa5" d="M91.56,-1375.06C120.45,-1394.64 169.53,-1425.44 216,-1443 245.25,-1454.05 278.18,-1462.28 308.56,-1468.31"/>
<polygon fill="#4a6fa5" stroke="#4a6fa5" points="308.47,-1470.79 315.81,-1469.71 309.41,-1465.98 308.47,-1470.79"/>
</g>
<!-- Node0x5af044977500 -->
<g id="node6" class="node">
<title>Node0x5af044977500</title>
<path fill="#f0f4ff" stroke="black" d="M502.5,-1566C502.5,-1566 322.5,-1566 322.5,-1566 316.5,-1566 310.5,-1560 310.5,-1554 310.5,-1554 310.5,-1542 310.5,-1542 310.5,-1536 316.5,-1530 322.5,-1530 322.5,-1530 502.5,-1530 502.5,-1530 508.5,-1530 514.5,-1536 514.5,-1542 514.5,-1542 514.5,-1554 514.5,-1554 514.5,-1560 508.5,-1566 502.5,-1566"/>
<text text-anchor="middle" x="412.5" y="-1545.8" font-family="Courier,monospace" font-size="9.00">{CIccInfo::GetProfileClassSigName()}</text>
</g>
<!-- Node0x5af0449f7920&#45;&gt;Node0x5af044977500 -->
<g id="edge6" class="edge">
<title>Node0x5af0449f7920&#45;&gt;Node0x5af044977500</title>
<path fill="none" stroke="#4a6fa5" d="M77.2,-1375.17C99.18,-1409.09 151.49,-1481.72 216,-1516 242.5,-1530.08 273.65,-1538.28 303.2,-1542.97"/>
<polygon fill="#4a6fa5" stroke="#4a6fa5" points="302.98,-1545.42 310.27,-1544.03 303.71,-1540.57 302.98,-1545.42"/>
</g>
<!-- Node0x5af044977cd0 -->
<g id="node7" class="node">
<title>Node0x5af044977cd0</title>
<path fill="#f0f4ff" stroke="black" d="M465.5,-1123C465.5,-1123 359.5,-1123 359.5,-1123 353.5,-1123 347.5,-1117 347.5,-1111 347.5,-1111 347.5,-1099 347.5,-1099 347.5,-1093 353.5,-1087 359.5,-1087 359.5,-1087 465.5,-1087 465.5,-1087 471.5,-1087 477.5,-1093 477.5,-1099 477.5,-1099 477.5,-1111 477.5,-1111 477.5,-1117 471.5,-1123 465.5,-1123"/>
<text text-anchor="middle" x="412.5" y="-1102.8" font-family="Courier,monospace" font-size="9.00">{CIccInfo::CIccInfo()}</text>
</g>
<!-- Node0x5af0449f7920&#45;&gt;Node0x5af044977cd0 -->
<g id="edge7" class="edge">
<title>Node0x5af0449f7920&#45;&gt;Node0x5af044977cd0</title>
<path fill="none" stroke="#4a6fa5" d="M79.29,-1338.81C103.49,-1306.72 157.64,-1239.44 216,-1197 258.39,-1166.18 312.74,-1141.59 353.38,-1125.62"/>
<polygon fill="#4a6fa5" stroke="#4a6fa5" points="354.39,-1127.85 360.03,-1123.03 352.62,-1123.29 354.39,-1127.85"/>
</g>
<!-- Node0x5af0449772d0 -->
<g id="node8" class="node">
<title>Node0x5af0449772d0</title>
<path fill="#f0f4ff" stroke="black" d="M118,-7951C118,-7951 12,-7951 12,-7951 6,-7951 0,-7945 0,-7939 0,-7939 0,-7927 0,-7927 0,-7921 6,-7915 12,-7915 12,-7915 118,-7915 118,-7915 124,-7915 130,-7921 130,-7927 130,-7927 130,-7939 130,-7939 130,-7945 124,-7951 118,-7951"/>
<text text-anchor="middle" x="65" y="-7930.8" font-family="Courier,monospace" font-size="9.00">{__gxx_personality_v0}</text>
</g>
<!-- Node0x5af0449fdf60 -->
<g id="node9" class="node">
<title>Node0x5af0449fdf60</title>
<path fill="#f0f4ff" stroke="black" d="M102.5,-576C102.5,-576 27.5,-576 27.5,-576 21.5,-576 15.5,-570 15.5,-564 15.5,-564 15.5,-552 15.5,-552 15.5,-546 21.5,-540 27.5,-540 27.5,-540 102.5,-540 102.5,-540 108.5,-540 114.5,-546 114.5,-552 114.5,-552 114.5,-564 114.5,-564 114.5,-570 108.5,-576 102.5,-576"/>
<text text-anchor="middle" x="65" y="-555.8" font-family="Courier,monospace" font-size="9.00">{DumpTagTable()}</text>
</g>
<!-- Node0x5af0449fdf60&#45;&gt;Node0x5af0449d97f0 -->
<g id="edge18" class="edge">
<title>Node0x5af0449fdf60&#45;&gt;Node0x5af0449d97f0</title>
<path fill="none" stroke="#4a6fa5" d="M68.1,-576.08C76.04,-636.6 109.36,-834.7 216,-949 253.58,-989.28 312.53,-1013.31 355.89,-1026.48"/>
<polygon fill="#4a6fa5" stroke="#4a6fa5" points="355.3,-1028.86 362.71,-1028.5 356.69,-1024.16 355.3,-1028.86"/>
</g>
<!-- Node0x5af0449fdf60&#45;&gt;Node0x5af0449c59a0 -->
<g id="edge8" class="edge">
<title>Node0x5af0449fdf60&#45;&gt;Node0x5af0449c59a0</title>
<path fill="none" stroke="#4a6fa5" d="M98.62,-539.91C189.98,-491.94 451.98,-373.13 609,-494 727.4,-585.14 642,-679.3 695,-819 733.04,-919.27 795.7,-1030.92 823.7,-1078.92"/>
<polygon fill="#4a6fa5" stroke="#4a6fa5" points="821.61,-1080.19 827.26,-1084.99 825.84,-1077.72 821.61,-1080.19"/>
</g>
<!-- Node0x5af0449fdf60&#45;&gt;Node0x5af044977170 -->
<g id="edge10" class="edge">
<title>Node0x5af0449fdf60&#45;&gt;Node0x5af044977170</title>
<path fill="none" stroke="#4a6fa5" d="M70.02,-576.16C80.2,-622.14 107.73,-746.88 130,-851 169.02,-1033.5 81.17,-1132.97 216,-1262 247.83,-1292.46 296.75,-1300.45 337.69,-1300.83"/>
<polygon fill="#4a6fa5" stroke="#4a6fa5" points="337.71,-1303.28 344.71,-1300.82 337.71,-1298.38 337.71,-1303.28"/>
</g>
<!-- Node0x5af0449fdf60&#45;&gt;Node0x5af044977cd0 -->
<g id="edge22" class="edge">
<title>Node0x5af0449fdf60&#45;&gt;Node0x5af044977cd0</title>
<path fill="none" stroke="#4a6fa5" d="M70.07,-576.12C89.86,-663.45 176.61,-1038.12 216,-1073 249.47,-1102.64 299.35,-1110.43 340.35,-1110.92"/>
<polygon fill="#4a6fa5" stroke="#4a6fa5" points="340.36,-1113.37 347.37,-1110.93 340.37,-1108.47 340.36,-1113.37"/>
</g>
<!-- Node0x5af044977e00 -->
<g id="node10" class="node">
<title>Node0x5af044977e00</title>
<path fill="#f0f4ff" stroke="black" d="M494.5,-101C494.5,-101 330.5,-101 330.5,-101 324.5,-101 318.5,-95 318.5,-89 318.5,-89 318.5,-77 318.5,-77 318.5,-71 324.5,-65 330.5,-65 330.5,-65 494.5,-65 494.5,-65 500.5,-65 506.5,-71 506.5,-77 506.5,-77 506.5,-89 506.5,-89 506.5,-95 500.5,-101 494.5,-101"/>
<text text-anchor="middle" x="412.5" y="-80.8" font-family="Courier,monospace" font-size="9.00">{std::list&lt;IccTagEntry &gt;::size()}</text>
</g>
<!-- Node0x5af0449fdf60&#45;&gt;Node0x5af044977e00 -->
<g id="edge9" class="edge">
<title>Node0x5af0449fdf60&#45;&gt;Node0x5af044977e00</title>
<path fill="none" stroke="#4a6fa5" d="M66.04,-539.72C67.23,-471.62 81.2,-230.8 216,-116 242.18,-93.71 277.69,-83.79 311.27,-79.98"/>
<polygon fill="#4a6fa5" stroke="#4a6fa5" points="311.69,-82.4 318.41,-79.26 311.2,-77.52 311.69,-82.4"/>
</g>
<!-- Node0x5af0449fc890 -->
<g id="node11" class="node">
<title>Node0x5af0449fc890</title>
<path fill="#f0f4ff" stroke="black" d="M455,-166C455,-166 370,-166 370,-166 364,-166 358,-160 358,-154 358,-154 358,-142 358,-142 358,-136 364,-130 370,-130 370,-130 455,-130 455,-130 461,-130 467,-136 467,-142 467,-142 467,-154 467,-154 467,-160 461,-166 455,-166"/>
<text text-anchor="middle" x="412.5" y="-145.8" font-family="Courier,monospace" font-size="9.00">{CIccIO::Read32()}</text>
</g>
<!-- Node0x5af0449fdf60&#45;&gt;Node0x5af0449fc890 -->
<g id="edge11" class="edge">
<title>Node0x5af0449fdf60&#45;&gt;Node0x5af0449fc890</title>
<path fill="none" stroke="#4a6fa5" d="M67.21,-539.84C72.35,-478.34 97.93,-276.41 216,-181 253.46,-150.73 308.36,-143.69 350.46,-143.53"/>
<polygon fill="#4a6fa5" stroke="#4a6fa5" points="350.62,-145.98 357.63,-143.57 350.64,-141.08 350.62,-145.98"/>
</g>
<!-- Node0x5af04497a610 -->
<g id="node12" class="node">
<title>Node0x5af04497a610</title>
<path fill="#f0f4ff" stroke="black" d="M476,-674C476,-674 349,-674 349,-674 343,-674 337,-668 337,-662 337,-662 337,-650 337,-650 337,-644 343,-638 349,-638 349,-638 476,-638 476,-638 482,-638 488,-644 488,-650 488,-650 488,-662 488,-662 488,-668 482,-674 476,-674"/>
<text text-anchor="middle" x="412.5" y="-653.8" font-family="Courier,monospace" font-size="9.00">{operator delete[](void*)}</text>
</g>
<!-- Node0x5af0449fdf60&#45;&gt;Node0x5af04497a610 -->
<g id="edge12" class="edge">
<title>Node0x5af0449fdf60&#45;&gt;Node0x5af04497a610</title>
<path fill="none" stroke="#4a6fa5" d="M100.22,-576.04C130.03,-591.02 174.81,-611.78 216,-624 252.63,-634.87 294.29,-642.33 329.71,-647.29"/>
<polygon fill="#4a6fa5" stroke="#4a6fa5" points="329.44,-649.73 336.7,-648.25 330.1,-644.87 329.44,-649.73"/>
</g>
<!-- Node0x5af0449fb370 -->
<g id="node13" class="node">
<title>Node0x5af0449fb370</title>
<path fill="#f0f4ff" stroke="black" d="M549.5,-609C549.5,-609 275.5,-609 275.5,-609 269.5,-609 263.5,-603 263.5,-597 263.5,-597 263.5,-585 263.5,-585 263.5,-579 269.5,-573 275.5,-573 275.5,-573 549.5,-573 549.5,-573 555.5,-573 561.5,-579 561.5,-585 561.5,-585 561.5,-597 561.5,-597 561.5,-603 555.5,-609 549.5,-609"/>
<text text-anchor="middle" x="412.5" y="-588.8" font-family="Courier,monospace" font-size="9.00">{operator new[](unsigned long, std::nothrow_t const&amp;)}</text>
</g>
<!-- Node0x5af0449fdf60&#45;&gt;Node0x5af0449fb370 -->
<g id="edge13" class="edge">
<title>Node0x5af0449fdf60&#45;&gt;Node0x5af0449fb370</title>
<path fill="none" stroke="#4a6fa5" d="M114.77,-562.66C151.81,-566.2 204.92,-571.27 256.01,-576.15"/>
<polygon fill="#4a6fa5" stroke="#4a6fa5" points="256,-578.61 263.2,-576.84 256.46,-573.73 256,-578.61"/>
</g>
<!-- Node0x5af0449fed50 -->
<g id="node14" class="node">
<title>Node0x5af0449fed50</title>
<path fill="#f0f4ff" stroke="black" d="M541.5,-420C541.5,-420 283.5,-420 283.5,-420 277.5,-420 271.5,-414 271.5,-408 271.5,-408 271.5,-396 271.5,-396 271.5,-390 277.5,-384 283.5,-384 283.5,-384 541.5,-384 541.5,-384 547.5,-384 553.5,-390 553.5,-396 553.5,-396 553.5,-408 553.5,-408 553.5,-414 547.5,-420 541.5,-420"/>
<text text-anchor="middle" x="412.5" y="-399.8" font-family="Courier,monospace" font-size="9.00">{std::_List_iterator&lt;IccTagEntry&gt;::operator++(int)}</text>
</g>
<!-- Node0x5af0449fdf60&#45;&gt;Node0x5af0449fed50 -->
<g id="edge14" class="edge">
<title>Node0x5af0449fdf60&#45;&gt;Node0x5af0449fed50</title>
<path fill="none" stroke="#4a6fa5" d="M83.57,-539.93C109.86,-514.02 162.14,-466.7 216,-442 234.25,-433.63 254.25,-427 274.28,-421.75"/>
<polygon fill="#4a6fa5" stroke="#4a6fa5" points="274.89,-424.12 281.07,-420.02 273.69,-419.37 274.89,-424.12"/>
</g>
<!-- Node0x5af04497a350 -->
<g id="node15" class="node">
<title>Node0x5af04497a350</title>
<path fill="#f0f4ff" stroke="black" d="M481.5,-36C481.5,-36 343.5,-36 343.5,-36 337.5,-36 331.5,-30 331.5,-24 331.5,-24 331.5,-12 331.5,-12 331.5,-6 337.5,0 343.5,0 343.5,0 481.5,0 481.5,0 487.5,0 493.5,-6 493.5,-12 493.5,-12 493.5,-24 493.5,-24 493.5,-30 487.5,-36 481.5,-36"/>
<text text-anchor="middle" x="412.5" y="-15.8" font-family="Courier,monospace" font-size="9.00">{HasNonPrintableSignature()}</text>
</g>
<!-- Node0x5af0449fdf60&#45;&gt;Node0x5af04497a350 -->
<g id="edge15" class="edge">
<title>Node0x5af0449fdf60&#45;&gt;Node0x5af04497a350</title>
<path fill="none" stroke="#4a6fa5" d="M68.75,-539.96C81.67,-457.73 138.89,-119.34 216,-51 245.1,-25.21 286.59,-15.75 323.86,-13.24"/>
<polygon fill="#4a6fa5" stroke="#4a6fa5" points="324.4,-15.66 331.26,-12.83 324.13,-10.77 324.4,-15.66"/>
</g>
<!-- Node0x5af044979880 -->
<g id="node16" class="node">
<title>Node0x5af044979880</title>
<path fill="#f0f4ff" stroke="black" d="M478.5,-544C478.5,-544 346.5,-544 346.5,-544 340.5,-544 334.5,-538 334.5,-532 334.5,-532 334.5,-520 334.5,-520 334.5,-514 340.5,-508 346.5,-508 346.5,-508 478.5,-508 478.5,-508 484.5,-508 490.5,-514 490.5,-520 490.5,-520 490.5,-532 490.5,-532 490.5,-538 484.5,-544 478.5,-544"/>
<text text-anchor="middle" x="412.5" y="-523.8" font-family="Courier,monospace" font-size="9.00">{CIccInfo::GetTagSigName()}</text>
</g>
<!-- Node0x5af0449fdf60&#45;&gt;Node0x5af044979880 -->
<g id="edge16" class="edge">
<title>Node0x5af0449fdf60&#45;&gt;Node0x5af044979880</title>
<path fill="none" stroke="#4a6fa5" d="M114.77,-553.48C169.87,-548.38 260.53,-539.98 327.16,-533.81"/>
<polygon fill="#4a6fa5" stroke="#4a6fa5" points="327.6,-536.23 334.35,-533.15 327.15,-531.35 327.6,-536.23"/>
</g>
<!-- Node0x5af044979ce0 -->
<g id="node17" class="node">
<title>Node0x5af044979ce0</title>
<path fill="#f0f4ff" stroke="black" d="M463,-231C463,-231 362,-231 362,-231 356,-231 350,-225 350,-219 350,-219 350,-207 350,-207 350,-201 356,-195 362,-195 362,-195 463,-195 463,-195 469,-195 475,-201 475,-207 475,-207 475,-219 475,-219 475,-225 469,-231 463,-231"/>
<text text-anchor="middle" x="412.5" y="-210.8" font-family="Courier,monospace" font-size="9.00">{SignatureToFourCC()}</text>
</g>
<!-- Node0x5af0449fdf60&#45;&gt;Node0x5af044979ce0 -->
<g id="edge17" class="edge">
<title>Node0x5af0449fdf60&#45;&gt;Node0x5af044979ce0</title>
<path fill="none" stroke="#4a6fa5" d="M68.81,-539.92C78.3,-485.52 114.42,-322.41 216,-246 251.94,-218.96 302.12,-210.93 342.64,-209.54"/>
<polygon fill="#4a6fa5" stroke="#4a6fa5" points="342.89,-211.99 349.83,-209.36 342.77,-207.09 342.89,-211.99"/>
</g>
<!-- Node0x5af044979f10 -->
<g id="node18" class="node">
<title>Node0x5af044979f10</title>
<path fill="#f0f4ff" stroke="black" d="M547,-296C547,-296 278,-296 278,-296 272,-296 266,-290 266,-284 266,-284 266,-272 266,-272 266,-266 272,-260 278,-260 278,-260 547,-260 547,-260 553,-260 559,-266 559,-272 559,-272 559,-284 559,-284 559,-290 553,-296 547,-296"/>
<text text-anchor="middle" x="412.5" y="-275.8" font-family="Courier,monospace" font-size="9.00">{std::_List_iterator&lt;IccTagEntry&gt;::operator*() const}</text>
</g>
<!-- Node0x5af0449fdf60&#45;&gt;Node0x5af044979f10 -->
<g id="edge19" class="edge">
<title>Node0x5af0449fdf60&#45;&gt;Node0x5af044979f10</title>
<path fill="none" stroke="#4a6fa5" d="M71.75,-539.73C87.07,-494.21 133.47,-375.32 216,-318 229.13,-308.88 243.89,-301.75 259.25,-296.18"/>
<polygon fill="#4a6fa5" stroke="#4a6fa5" points="260.05,-298.5 265.87,-293.89 258.45,-293.87 260.05,-298.5"/>
</g>
<!-- Node0x5af04497a140 -->
<g id="node19" class="node">
<title>Node0x5af04497a140</title>
<path fill="#f0f4ff" stroke="black" d="M597,-934C597,-934 228,-934 228,-934 222,-934 216,-928 216,-922 216,-922 216,-910 216,-910 216,-904 222,-898 228,-898 228,-898 597,-898 597,-898 603,-898 609,-904 609,-910 609,-910 609,-922 609,-922 609,-928 603,-934 597,-934"/>
<text text-anchor="middle" x="412.5" y="-913.8" font-family="Courier,monospace" font-size="9.00">{std::operator!=(std::_List_iterator&lt;IccTagEntry&gt; const&amp;, std::_List...}</text>
</g>
<!-- Node0x5af0449fdf60&#45;&gt;Node0x5af04497a140 -->
<g id="edge20" class="edge">
<title>Node0x5af0449fdf60&#45;&gt;Node0x5af04497a140</title>
<path fill="none" stroke="#4a6fa5" d="M68.4,-576.09C76.85,-632.12 110.68,-803.78 216,-884 221.12,-887.9 226.54,-891.41 232.19,-894.55"/>
<polygon fill="#4a6fa5" stroke="#4a6fa5" points="231.07,-896.72 238.4,-897.81 233.35,-892.39 231.07,-896.72"/>
</g>
<!-- Node0x5af044979420 -->
<g id="node20" class="node">
<title>Node0x5af044979420</title>
<path fill="#f0f4ff" stroke="black" d="M492,-739C492,-739 333,-739 333,-739 327,-739 321,-733 321,-727 321,-727 321,-715 321,-715 321,-709 327,-703 333,-703 333,-703 492,-703 492,-703 498,-703 504,-709 504,-715 504,-715 504,-727 504,-727 504,-733 498,-739 492,-739"/>
<text text-anchor="middle" x="412.5" y="-718.8" font-family="Courier,monospace" font-size="9.00">{std::list&lt;IccTagEntry &gt;::end()}</text>
</g>
<!-- Node0x5af0449fdf60&#45;&gt;Node0x5af044979420 -->
<g id="edge21" class="edge">
<title>Node0x5af0449fdf60&#45;&gt;Node0x5af044979420</title>
<path fill="none" stroke="#4a6fa5" d="M80.86,-576.35C105.57,-605.47 158.13,-661.75 216,-689 246.09,-703.17 281.33,-711.2 313.55,-715.7"/>
<polygon fill="#4a6fa5" stroke="#4a6fa5" points="313.54,-718.17 320.8,-716.67 314.19,-713.32 313.54,-718.17"/>
</g>
<!-- Node0x5af0449fe7f0 -->
<g id="node21" class="node">
<title>Node0x5af0449fe7f0</title>
<path fill="#f0f4ff" stroke="black" d="M544.5,-804C544.5,-804 280.5,-804 280.5,-804 274.5,-804 268.5,-798 268.5,-792 268.5,-792 268.5,-780 268.5,-780 268.5,-774 274.5,-768 280.5,-768 280.5,-768 544.5,-768 544.5,-768 550.5,-768 556.5,-774 556.5,-780 556.5,-780 556.5,-792 556.5,-792 556.5,-798 550.5,-804 544.5,-804"/>
<text text-anchor="middle" x="412.5" y="-783.8" font-family="Courier,monospace" font-size="9.00">{std::_List_iterator&lt;IccTagEntry&gt;::_List_iterator()}</text>
</g>
<!-- Node0x5af0449fdf60&#45;&gt;Node0x5af0449fe7f0 -->
<g id="edge23" class="edge">
<title>Node0x5af0449fdf60&#45;&gt;Node0x5af0449fe7f0</title>
<path fill="none" stroke="#4a6fa5" d="M73.98,-576.01C92.54,-615.57 142.68,-710.06 216,-754 230,-762.39 245.54,-768.77 261.55,-773.6"/>
<polygon fill="#4a6fa5" stroke="#4a6fa5" points="261.03,-776 268.44,-775.57 262.38,-771.29 261.03,-776"/>
</g>
<!-- Node0x5af0449fe660 -->
<g id="node22" class="node">
<title>Node0x5af0449fe660</title>
<path fill="#f0f4ff" stroke="black" d="M497,-869C497,-869 328,-869 328,-869 322,-869 316,-863 316,-857 316,-857 316,-845 316,-845 316,-839 322,-833 328,-833 328,-833 497,-833 497,-833 503,-833 509,-839 509,-845 509,-845 509,-857 509,-857 509,-863 503,-869 497,-869"/>
<text text-anchor="middle" x="412.5" y="-848.8" font-family="Courier,monospace" font-size="9.00">{std::list&lt;IccTagEntry &gt;::begin()}</text>
</g>
<!-- Node0x5af0449fdf60&#45;&gt;Node0x5af0449fe660 -->
<g id="edge24" class="edge">
<title>Node0x5af0449fdf60&#45;&gt;Node0x5af0449fe660</title>
<path fill="none" stroke="#4a6fa5" d="M70.61,-576.26C83.88,-624.77 127.06,-757.41 216,-819 242.81,-837.57 276.59,-846.77 308.48,-851"/>
<polygon fill="#4a6fa5" stroke="#4a6fa5" points="308.44,-853.46 315.69,-851.88 309.03,-848.6 308.44,-853.46"/>
</g>
<!-- Node0x5af044979b30 -->
<g id="node23" class="node">
<title>Node0x5af044979b30</title>
<path fill="#f0f4ff" stroke="black" d="M894.5,-420C894.5,-420 783.5,-420 783.5,-420 777.5,-420 771.5,-414 771.5,-408 771.5,-408 771.5,-396 771.5,-396 771.5,-390 777.5,-384 783.5,-384 783.5,-384 894.5,-384 894.5,-384 900.5,-384 906.5,-390 906.5,-396 906.5,-396 906.5,-408 906.5,-408 906.5,-414 900.5,-420 894.5,-420"/>
<text text-anchor="middle" x="839" y="-399.8" font-family="Courier,monospace" font-size="9.00">{llvm.memcpy.p0.p0.i64}</text>
</g>
<!-- Node0x5af0449fdf60&#45;&gt;Node0x5af044979b30 -->
<g id="edge25" class="edge">
<title>Node0x5af0449fdf60&#45;&gt;Node0x5af044979b30</title>
<path fill="none" stroke="#4a6fa5" d="M73.73,-539.85C91.77,-500.12 140.94,-406.13 216,-370 405.66,-278.69 666.56,-344.76 780.67,-381.65"/>
<polygon fill="#4a6fa5" stroke="#4a6fa5" points="780.23,-384.08 787.64,-383.93 781.75,-379.43 780.23,-384.08"/>
</g>
<!-- Node0x5af0449fe9e0 -->
<g id="node24" class="node">
<title>Node0x5af0449fe9e0</title>
<path fill="#f0f4ff" stroke="black" d="M944.5,-101C944.5,-101 733.5,-101 733.5,-101 727.5,-101 721.5,-95 721.5,-89 721.5,-89 721.5,-77 721.5,-77 721.5,-71 727.5,-65 733.5,-65 733.5,-65 944.5,-65 944.5,-65 950.5,-65 956.5,-71 956.5,-77 956.5,-77 956.5,-89 956.5,-89 956.5,-95 950.5,-101 944.5,-101"/>
<text text-anchor="middle" x="839" y="-80.8" font-family="Courier,monospace" font-size="9.00">{std::list&lt;IccTagEntry &gt;::_M_node_count()}</text>
</g>
<!-- Node0x5af044977e00&#45;&gt;Node0x5af0449fe9e0 -->
<g id="edge26" class="edge">
<title>Node0x5af044977e00&#45;&gt;Node0x5af0449fe9e0</title>
<path fill="none" stroke="#4a6fa5" d="M506.66,-83C567.53,-83 647.72,-83 713.97,-83"/>
<polygon fill="#4a6fa5" stroke="#4a6fa5" points="714.15,-85.45 721.15,-83 714.15,-80.55 714.15,-85.45"/>
</g>
<!-- Node0x5af04497aa20 -->
<g id="node25" class="node">
<title>Node0x5af04497aa20</title>
<path fill="#f0f4ff" stroke="black" d="M897.5,-199C897.5,-199 780.5,-199 780.5,-199 774.5,-199 768.5,-193 768.5,-187 768.5,-187 768.5,-175 768.5,-175 768.5,-169 774.5,-163 780.5,-163 780.5,-163 897.5,-163 897.5,-163 903.5,-163 909.5,-169 909.5,-175 909.5,-175 909.5,-187 909.5,-187 909.5,-193 903.5,-199 897.5,-199"/>
<text text-anchor="middle" x="839" y="-178.8" font-family="Courier,monospace" font-size="9.00">{__clang_call_terminate}</text>
</g>
<!-- Node0x5af044977e00&#45;&gt;Node0x5af04497aa20 -->
<g id="edge27" class="edge">
<title>Node0x5af044977e00&#45;&gt;Node0x5af04497aa20</title>
<path fill="none" stroke="#4a6fa5" d="M506.89,-96.63C539.36,-101.93 575.93,-108.54 609,-116 665.37,-128.72 728.48,-146.93 774.15,-160.85"/>
<polygon fill="#4a6fa5" stroke="#4a6fa5" points="773.63,-163.25 781.04,-162.95 775.06,-158.56 773.63,-163.25"/>
</g>
<!-- Node0x5af0449fed50&#45;&gt;Node0x5af044979b30 -->
<g id="edge32" class="edge">
<title>Node0x5af0449fed50&#45;&gt;Node0x5af044979b30</title>
<path fill="none" stroke="#4a6fa5" d="M553.67,-402C623.96,-402 706.22,-402 764.12,-402"/>
<polygon fill="#4a6fa5" stroke="#4a6fa5" points="764.41,-404.45 771.41,-402 764.41,-399.55 764.41,-404.45"/>
</g>
<!-- Node0x5af044979f10&#45;&gt;Node0x5af04497aa20 -->
<g id="edge31" class="edge">
<title>Node0x5af044979f10&#45;&gt;Node0x5af04497aa20</title>
<path fill="none" stroke="#4a6fa5" d="M536.97,-259.99C560.96,-255.87 585.84,-251.17 609,-246 665.4,-233.42 728.5,-215.19 774.16,-201.24"/>
<polygon fill="#4a6fa5" stroke="#4a6fa5" points="775.08,-203.52 781.06,-199.13 773.64,-198.84 775.08,-203.52"/>
</g>
<!-- Node0x5af04497a7d0 -->
<g id="node27" class="node">
<title>Node0x5af04497a7d0</title>
<path fill="#f0f4ff" stroke="black" d="M947,-296C947,-296 731,-296 731,-296 725,-296 719,-290 719,-284 719,-284 719,-272 719,-272 719,-266 725,-260 731,-260 731,-260 947,-260 947,-260 953,-260 959,-266 959,-272 959,-272 959,-284 959,-284 959,-290 953,-296 947,-296"/>
<text text-anchor="middle" x="839" y="-275.8" font-family="Courier,monospace" font-size="9.00">{std::_List_node&lt;IccTagEntry&gt;::_M_valptr()}</text>
</g>
<!-- Node0x5af044979f10&#45;&gt;Node0x5af04497a7d0 -->
<g id="edge30" class="edge">
<title>Node0x5af044979f10&#45;&gt;Node0x5af04497a7d0</title>
<path fill="none" stroke="#4a6fa5" d="M559.29,-278C608.91,-278 663.93,-278 711.88,-278"/>
<polygon fill="#4a6fa5" stroke="#4a6fa5" points="711.9,-280.45 718.9,-278 711.9,-275.55 711.9,-280.45"/>
</g>
<!-- Node0x5af04497b1a0 -->
<g id="node26" class="node">
<title>Node0x5af04497b1a0</title>
<path fill="#f0f4ff" stroke="black" d="M971,-804C971,-804 707,-804 707,-804 701,-804 695,-798 695,-792 695,-792 695,-780 695,-780 695,-774 701,-768 707,-768 707,-768 971,-768 971,-768 977,-768 983,-774 983,-780 983,-780 983,-792 983,-792 983,-798 977,-804 971,-804"/>
<text text-anchor="middle" x="839" y="-783.8" font-family="Courier,monospace" font-size="9.00">{std::_List_iterator&lt;IccTagEntry&gt;::_List_iterator()}</text>
</g>
<!-- Node0x5af044979420&#45;&gt;Node0x5af04497b1a0 -->
<g id="edge29" class="edge">
<title>Node0x5af044979420&#45;&gt;Node0x5af04497b1a0</title>
<path fill="none" stroke="#4a6fa5" d="M504.05,-734.86C564.89,-744.18 645.9,-756.59 712.89,-766.84"/>
<polygon fill="#4a6fa5" stroke="#4a6fa5" points="712.86,-769.32 720.16,-767.96 713.61,-764.47 712.86,-769.32"/>
</g>
<!-- Node0x5af0449fe660&#45;&gt;Node0x5af04497b1a0 -->
<g id="edge28" class="edge">
<title>Node0x5af0449fe660&#45;&gt;Node0x5af04497b1a0</title>
<path fill="none" stroke="#4a6fa5" d="M509.03,-836.37C569.3,-827.14 647.8,-815.12 712.99,-805.14"/>
<polygon fill="#4a6fa5" stroke="#4a6fa5" points="713.52,-807.54 720.07,-804.06 712.78,-802.7 713.52,-807.54"/>
</g>
<!-- Node0x5af04497c240 -->
<g id="node31" class="node">
<title>Node0x5af04497c240</title>
<path fill="#f0f4ff" stroke="black" d="M1329,-101C1329,-101 1097,-101 1097,-101 1091,-101 1085,-95 1085,-89 1085,-89 1085,-77 1085,-77 1085,-71 1091,-65 1097,-65 1097,-65 1329,-65 1329,-65 1335,-65 1341,-71 1341,-77 1341,-77 1341,-89 1341,-89 1341,-95 1335,-101 1329,-101"/>
<text text-anchor="middle" x="1213" y="-80.8" font-family="Courier,monospace" font-size="9.00">{std::_List_base&lt;IccTagEntry &gt;::_M_get_size()}</text>
</g>
<!-- Node0x5af0449fe9e0&#45;&gt;Node0x5af04497c240 -->
<g id="edge49" class="edge">
<title>Node0x5af0449fe9e0&#45;&gt;Node0x5af04497c240</title>
<path fill="none" stroke="#4a6fa5" d="M956.68,-83C995,-83 1037.89,-83 1077.42,-83"/>
<polygon fill="#4a6fa5" stroke="#4a6fa5" points="1077.76,-85.45 1084.76,-83 1077.76,-80.55 1077.76,-85.45"/>
</g>
<!-- Node0x5af04497ba20 -->
<g id="node32" class="node">
<title>Node0x5af04497ba20</title>
<path fill="#f0f4ff" stroke="black" d="M1258,-166C1258,-166 1168,-166 1168,-166 1162,-166 1156,-160 1156,-154 1156,-154 1156,-142 1156,-142 1156,-136 1162,-130 1168,-130 1168,-130 1258,-130 1258,-130 1264,-130 1270,-136 1270,-142 1270,-142 1270,-154 1270,-154 1270,-160 1264,-166 1258,-166"/>
<text text-anchor="middle" x="1213" y="-145.8" font-family="Courier,monospace" font-size="9.00">{__cxa_begin_catch}</text>
</g>
<!-- Node0x5af04497aa20&#45;&gt;Node0x5af04497ba20 -->
<g id="edge50" class="edge">
<title>Node0x5af04497aa20&#45;&gt;Node0x5af04497ba20</title>
<path fill="none" stroke="#4a6fa5" d="M909.53,-174.83C978.22,-168.74 1082.35,-159.5 1148.76,-153.61"/>
<polygon fill="#4a6fa5" stroke="#4a6fa5" points="1149.11,-156.04 1155.86,-152.98 1148.68,-151.16 1149.11,-156.04"/>
</g>
<!-- Node0x5af044a00000 -->
<g id="node33" class="node">
<title>Node0x5af044a00000</title>
<path fill="#f0f4ff" stroke="black" d="M1255.5,-231C1255.5,-231 1170.5,-231 1170.5,-231 1164.5,-231 1158.5,-225 1158.5,-219 1158.5,-219 1158.5,-207 1158.5,-207 1158.5,-201 1164.5,-195 1170.5,-195 1170.5,-195 1255.5,-195 1255.5,-195 1261.5,-195 1267.5,-201 1267.5,-207 1267.5,-207 1267.5,-219 1267.5,-219 1267.5,-225 1261.5,-231 1255.5,-231"/>
<text text-anchor="middle" x="1213" y="-210.8" font-family="Courier,monospace" font-size="9.00">{std::terminate()}</text>
</g>
<!-- Node0x5af04497aa20&#45;&gt;Node0x5af044a00000 -->
<g id="edge51" class="edge">
<title>Node0x5af04497aa20&#45;&gt;Node0x5af044a00000</title>
<path fill="none" stroke="#4a6fa5" d="M909.53,-186.98C979.13,-192.97 1085.12,-202.09 1151.39,-207.79"/>
<polygon fill="#4a6fa5" stroke="#4a6fa5" points="1151.28,-210.24 1158.47,-208.4 1151.7,-205.35 1151.28,-210.24"/>
</g>
<!-- Node0x5af04497b360 -->
<g id="node34" class="node">
<title>Node0x5af04497b360</title>
<path fill="#f0f4ff" stroke="black" d="M1345,-296C1345,-296 1081,-296 1081,-296 1075,-296 1069,-290 1069,-284 1069,-284 1069,-272 1069,-272 1069,-266 1075,-260 1081,-260 1081,-260 1345,-260 1345,-260 1351,-260 1357,-266 1357,-272 1357,-272 1357,-284 1357,-284 1357,-290 1351,-296 1345,-296"/>
<text text-anchor="middle" x="1213" y="-275.8" font-family="Courier,monospace" font-size="9.00">{__gnu_cxx::__aligned_membuf&lt;IccTagEntry&gt;::_M_ptr()}</text>
</g>
<!-- Node0x5af04497a7d0&#45;&gt;Node0x5af04497b360 -->
<g id="edge52" class="edge">
<title>Node0x5af04497a7d0&#45;&gt;Node0x5af04497b360</title>
<path fill="none" stroke="#4a6fa5" d="M959.24,-278C991.78,-278 1027.46,-278 1061.49,-278"/>
<polygon fill="#4a6fa5" stroke="#4a6fa5" points="1061.73,-280.45 1068.73,-278 1061.73,-275.55 1061.73,-280.45"/>
</g>
<!-- Node0x5af0449787c0 -->
<g id="node28" class="node">
<title>Node0x5af0449787c0</title>
<path fill="#f0f4ff" stroke="black" d="M99.5,-901C99.5,-901 30.5,-901 30.5,-901 24.5,-901 18.5,-895 18.5,-889 18.5,-889 18.5,-877 18.5,-877 18.5,-871 24.5,-865 30.5,-865 30.5,-865 99.5,-865 99.5,-865 105.5,-865 111.5,-871 111.5,-877 111.5,-877 111.5,-889 111.5,-889 111.5,-895 105.5,-901 99.5,-901"/>
<text text-anchor="middle" x="65" y="-880.8" font-family="Courier,monospace" font-size="9.00">{DumpTagData()}</text>
</g>
<!-- Node0x5af0449787c0&#45;&gt;Node0x5af0449d97f0 -->
<g id="edge46" class="edge">
<title>Node0x5af0449787c0&#45;&gt;Node0x5af0449d97f0</title>
<path fill="none" stroke="#4a6fa5" d="M83.54,-901.23C109.79,-927.37 162.02,-975.1 216,-1000 260.52,-1020.53 315.55,-1030.59 355.88,-1035.47"/>
<polygon fill="#4a6fa5" stroke="#4a6fa5" points="355.74,-1037.92 362.97,-1036.3 356.3,-1033.06 355.74,-1037.92"/>
</g>
<!-- Node0x5af0449787c0&#45;&gt;Node0x5af0449c59a0 -->
<g id="edge34" class="edge">
<title>Node0x5af0449787c0&#45;&gt;Node0x5af0449c59a0</title>
<path fill="none" stroke="#4a6fa5" d="M70.15,-901.29C82.4,-950.42 123.49,-1085.09 216,-1138 412.89,-1250.61 704.62,-1155.23 803.67,-1117.06"/>
<polygon fill="#4a6fa5" stroke="#4a6fa5" points="804.83,-1119.24 810.46,-1114.42 803.05,-1114.67 804.83,-1119.24"/>
</g>
<!-- Node0x5af0449787c0&#45;&gt;Node0x5af044977170 -->
<g id="edge44" class="edge">
<title>Node0x5af0449787c0&#45;&gt;Node0x5af044977170</title>
<path fill="none" stroke="#4a6fa5" d="M67.16,-901.27C72.13,-963.16 97.24,-1166.34 216,-1262 249.66,-1289.11 297.39,-1297.32 337.26,-1298.65"/>
<polygon fill="#4a6fa5" stroke="#4a6fa5" points="337.55,-1301.1 344.61,-1298.82 337.67,-1296.2 337.55,-1301.1"/>
</g>
<!-- Node0x5af0449787c0&#45;&gt;Node0x5af044977cd0 -->
<g id="edge42" class="edge">
<title>Node0x5af0449787c0&#45;&gt;Node0x5af044977cd0</title>
<path fill="none" stroke="#4a6fa5" d="M74.42,-901.04C93.53,-939.74 144.12,-1030.66 216,-1073 253.24,-1094.94 301.04,-1103.05 340.04,-1105.62"/>
<polygon fill="#4a6fa5" stroke="#4a6fa5" points="340.09,-1108.08 347.22,-1106.04 340.38,-1103.19 340.09,-1108.08"/>
</g>
<!-- Node0x5af0449787c0&#45;&gt;Node0x5af04497a610 -->
<g id="edge45" class="edge">
<title>Node0x5af0449787c0&#45;&gt;Node0x5af04497a610</title>
<path fill="none" stroke="#4a6fa5" d="M74.19,-864.91C93,-825.62 143.33,-732.55 216,-689 249.91,-668.68 292.74,-659.95 329.66,-656.5"/>
<polygon fill="#4a6fa5" stroke="#4a6fa5" points="330.19,-658.91 336.96,-655.88 329.78,-654.03 330.19,-658.91"/>
</g>
<!-- Node0x5af0449787c0&#45;&gt;Node0x5af0449fb370 -->
<g id="edge47" class="edge">
<title>Node0x5af0449787c0&#45;&gt;Node0x5af0449fb370</title>
<path fill="none" stroke="#4a6fa5" d="M70.67,-864.9C84.1,-816.81 127.62,-685.31 216,-624 228.39,-615.41 242.25,-608.79 256.74,-603.72"/>
<polygon fill="#4a6fa5" stroke="#4a6fa5" points="257.56,-606.03 263.43,-601.5 256.02,-601.38 257.56,-606.03"/>
</g>
<!-- Node0x5af0449787c0&#45;&gt;Node0x5af0449fed50 -->
<g id="edge41" class="edge">
<title>Node0x5af0449787c0&#45;&gt;Node0x5af0449fed50</title>
<path fill="none" stroke="#4a6fa5" d="M68.21,-864.61C76.4,-803.95 110.23,-607.65 216,-494 248.13,-459.48 295.85,-436.67 336.11,-422.4"/>
<polygon fill="#4a6fa5" stroke="#4a6fa5" points="337.2,-424.62 343.01,-420.01 335.6,-419.99 337.2,-424.62"/>
</g>
<!-- Node0x5af0449787c0&#45;&gt;Node0x5af044979880 -->
<g id="edge43" class="edge">
<title>Node0x5af0449787c0&#45;&gt;Node0x5af044979880</title>
<path fill="none" stroke="#4a6fa5" d="M68.51,-864.64C77.23,-808.61 111.56,-638.76 216,-559 247.29,-535.1 289.64,-525.97 326.93,-523.18"/>
<polygon fill="#4a6fa5" stroke="#4a6fa5" points="327.49,-525.6 334.31,-522.71 327.17,-520.71 327.49,-525.6"/>
</g>
<!-- Node0x5af0449787c0&#45;&gt;Node0x5af044979f10 -->
<g id="edge40" class="edge">
<title>Node0x5af0449787c0&#45;&gt;Node0x5af044979f10</title>
<path fill="none" stroke="#4a6fa5" d="M70.36,-864.87C91.31,-778.33 181.95,-409.79 216,-370 245.85,-335.11 291.86,-312.55 331.74,-298.51"/>
<polygon fill="#4a6fa5" stroke="#4a6fa5" points="332.78,-300.74 338.6,-296.15 331.18,-296.11 332.78,-300.74"/>
</g>
<!-- Node0x5af0449787c0&#45;&gt;Node0x5af04497a140 -->
<g id="edge39" class="edge">
<title>Node0x5af0449787c0&#45;&gt;Node0x5af04497a140</title>
<path fill="none" stroke="#4a6fa5" d="M111.52,-887.35C139.12,-889.98 176.45,-893.55 215.38,-897.27"/>
<polygon fill="#4a6fa5" stroke="#4a6fa5" points="215.47,-899.74 222.67,-897.96 215.93,-894.86 215.47,-899.74"/>
</g>
<!-- Node0x5af0449787c0&#45;&gt;Node0x5af044979420 -->
<g id="edge38" class="edge">
<title>Node0x5af0449787c0&#45;&gt;Node0x5af044979420</title>
<path fill="none" stroke="#4a6fa5" d="M80.94,-864.97C105.76,-836.34 158.48,-780.99 216,-754 246.13,-739.86 281.39,-731.7 313.6,-727.01"/>
<polygon fill="#4a6fa5" stroke="#4a6fa5" points="314.26,-729.39 320.85,-726 313.58,-724.54 314.26,-729.39"/>
</g>
<!-- Node0x5af0449787c0&#45;&gt;Node0x5af0449fe7f0 -->
<g id="edge35" class="edge">
<title>Node0x5af0449787c0&#45;&gt;Node0x5af0449fe7f0</title>
<path fill="none" stroke="#4a6fa5" d="M101.79,-864.88C131.64,-850.47 175.65,-830.83 216,-819 233.87,-813.76 252.92,-809.26 271.85,-805.42"/>
<polygon fill="#4a6fa5" stroke="#4a6fa5" points="272.43,-807.81 278.82,-804.04 271.48,-803 272.43,-807.81"/>
</g>
<!-- Node0x5af0449787c0&#45;&gt;Node0x5af0449fe660 -->
<g id="edge36" class="edge">
<title>Node0x5af0449787c0&#45;&gt;Node0x5af0449fe660</title>
<path fill="none" stroke="#4a6fa5" d="M111.52,-878.78C161.47,-874.16 243.25,-866.58 308.82,-860.51"/>
<polygon fill="#4a6fa5" stroke="#4a6fa5" points="309.18,-862.94 315.92,-859.85 308.72,-858.06 309.18,-862.94"/>
</g>
<!-- Node0x5af0449787c0&#45;&gt;Node0x5af044979b30 -->
<g id="edge37" class="edge">
<title>Node0x5af0449787c0&#45;&gt;Node0x5af044979b30</title>
<path fill="none" stroke="#4a6fa5" d="M99.75,-901.13C190.71,-947.27 445.15,-1058.03 609,-949 620.94,-941.06 785.63,-532.41 828.08,-426.73"/>
<polygon fill="#4a6fa5" stroke="#4a6fa5" points="830.36,-427.63 830.7,-420.22 825.81,-425.8 830.36,-427.63"/>
</g>
<!-- Node0x5af04497a590 -->
<g id="node29" class="node">
<title>Node0x5af04497a590</title>
<path fill="#f0f4ff" stroke="black" d="M471,-1377C471,-1377 354,-1377 354,-1377 348,-1377 342,-1371 342,-1365 342,-1365 342,-1353 342,-1353 342,-1347 348,-1341 354,-1341 354,-1341 471,-1341 471,-1341 477,-1341 483,-1347 483,-1353 483,-1353 483,-1365 483,-1365 483,-1371 477,-1377 471,-1377"/>
<text text-anchor="middle" x="412.5" y="-1356.8" font-family="Courier,monospace" font-size="9.00">{CIccProfile::FindTag()}</text>
</g>
<!-- Node0x5af0449787c0&#45;&gt;Node0x5af04497a590 -->
<g id="edge33" class="edge">
<title>Node0x5af0449787c0&#45;&gt;Node0x5af04497a590</title>
<path fill="none" stroke="#4a6fa5" d="M65.99,-901.39C67.01,-969.85 80.44,-1211.98 216,-1327 248.34,-1354.44 294.89,-1362.87 334.46,-1364.24"/>
<polygon fill="#4a6fa5" stroke="#4a6fa5" points="334.7,-1366.69 341.76,-1364.41 334.82,-1361.79 334.7,-1366.69"/>
</g>
<!-- Node0x5af04497bce0 -->
<g id="node30" class="node">
<title>Node0x5af04497bce0</title>
<path fill="#f0f4ff" stroke="black" d="M489,-1247C489,-1247 336,-1247 336,-1247 330,-1247 324,-1241 324,-1235 324,-1235 324,-1223 324,-1223 324,-1217 330,-1211 336,-1211 336,-1211 489,-1211 489,-1211 495,-1211 501,-1217 501,-1223 501,-1223 501,-1235 501,-1235 501,-1241 495,-1247 489,-1247"/>
<text text-anchor="middle" x="412.5" y="-1226.8" font-family="Courier,monospace" font-size="9.00">{CIccInfo::GetTagTypeSigName()}</text>
</g>
<!-- Node0x5af0449787c0&#45;&gt;Node0x5af04497bce0 -->
<g id="edge48" class="edge">
<title>Node0x5af0449787c0&#45;&gt;Node0x5af04497bce0</title>
<path fill="none" stroke="#4a6fa5" d="M69.2,-901.34C79.57,-955.02 117.49,-1112.8 216,-1189 244.4,-1210.97 281.84,-1221.7 316.35,-1226.7"/>
<polygon fill="#4a6fa5" stroke="#4a6fa5" points="316.4,-1229.18 323.67,-1227.68 317.05,-1224.33 316.4,-1229.18"/>
</g>
<!-- Node0x5af04497d600 -->
<g id="node35" class="node">
<title>Node0x5af04497d600</title>
<path fill="#f0f4ff" stroke="black" d="M1724,-296C1724,-296 1455,-296 1455,-296 1449,-296 1443,-290 1443,-284 1443,-284 1443,-272 1443,-272 1443,-266 1449,-260 1455,-260 1455,-260 1724,-260 1724,-260 1730,-260 1736,-266 1736,-272 1736,-272 1736,-284 1736,-284 1736,-290 1730,-296 1724,-296"/>
<text text-anchor="middle" x="1589.5" y="-275.8" font-family="Courier,monospace" font-size="9.00">{__gnu_cxx::__aligned_membuf&lt;IccTagEntry&gt;::_M_addr()}</text>
</g>
<!-- Node0x5af04497b360&#45;&gt;Node0x5af04497d600 -->
<g id="edge53" class="edge">
<title>Node0x5af04497b360&#45;&gt;Node0x5af04497d600</title>
<path fill="none" stroke="#4a6fa5" d="M1357.19,-278C1382.85,-278 1409.7,-278 1435.63,-278"/>
<polygon fill="#4a6fa5" stroke="#4a6fa5" points="1435.91,-280.45 1442.91,-278 1435.91,-275.55 1435.91,-280.45"/>
</g>
</g>
</svg>
