<?xml version="1.0" encoding="UTF-8" standalone="no"?>
<!DOCTYPE svg PUBLIC "-//W3C//DTD SVG 1.1//EN"
 "http://www.w3.org/Graphics/SVG/1.1/DTD/svg11.dtd">
<!-- Generated by graphviz version 2.43.0 (0)
 -->
<!-- Title: Call graph: /home/h02332/po/research/call&#45;graph/analyzer/IccAnalyzerTagDetails.ll Pages: 1 -->
<svg width="798pt" height="2399pt"
 viewBox="0.00 0.00 798.20 2399.20" xmlns="http://www.w3.org/2000/svg" xmlns:xlink="http://www.w3.org/1999/xlink">
<g id="graph0" class="graph" transform="scale(1 1) rotate(0) translate(21.6 2377.6)">
<title>Call graph: /home/h02332/po/research/call&#45;graph/analyzer/IccAnalyzerTagDetails.ll</title>
<polygon fill="white" stroke="transparent" points="-21.6,21.6 -21.6,-2377.6 776.6,-2377.6 776.6,21.6 -21.6,21.6"/>
<!-- Node0x5ff0a1f65e70 -->
<g id="node1" class="node">
<title>Node0x5ff0a1f65e70</title>
<path fill="#f0f4ff" stroke="black" d="M95,-1254C95,-1254 12,-1254 12,-1254 6,-1254 0,-1248 0,-1242 0,-1242 0,-1230 0,-1230 0,-1224 6,-1218 12,-1218 12,-1218 95,-1218 95,-1218 101,-1218 107,-1224 107,-1230 107,-1230 107,-1242 107,-1242 107,-1248 101,-1254 95,-1254"/>
<text text-anchor="middle" x="53.5" y="-1233.8" font-family="Courier,monospace" font-size="9.00">TagDetailAnalyze()</text>
</g>
<!-- Node0x5ff0a1f481a0 -->
<g id="node2" class="node">
<title>Node0x5ff0a1f481a0</title>
<path fill="#f0f4ff" stroke="black" d="M263,-1892C263,-1892 190,-1892 190,-1892 184,-1892 178,-1886 178,-1880 178,-1880 178,-1868 178,-1868 178,-1862 184,-1856 190,-1856 190,-1856 263,-1856 263,-1856 269,-1856 275,-1862 275,-1868 275,-1868 275,-1880 275,-1880 275,-1886 269,-1892 263,-1892"/>
<text text-anchor="middle" x="226.5" y="-1871.8" font-family="Courier,monospace" font-size="9.00">AnalyzeLutTags()</text>
</g>
<!-- Node0x5ff0a1f65e70&#45;&gt;Node0x5ff0a1f481a0 -->
<g id="edge1" class="edge">
<title>Node0x5ff0a1f65e70&#45;&gt;Node0x5ff0a1f481a0</title>
<path fill="none" stroke="#4a6fa5" d="M59.34,-1254.07C83.54,-1344.34 191.28,-1746.31 218.98,-1849.69"/>
<polygon fill="#4a6fa5" stroke="#4a6fa5" points="217.04,-1850.54 220.62,-1855.79 221.09,-1849.45 217.04,-1850.54"/>
</g>
<!-- Node0x5ff0a1e179c0 -->
<g id="node3" class="node">
<title>Node0x5ff0a1e179c0</title>
<path fill="#f0f4ff" stroke="black" d="M265.5,-1428C265.5,-1428 187.5,-1428 187.5,-1428 181.5,-1428 175.5,-1422 175.5,-1416 175.5,-1416 175.5,-1404 175.5,-1404 175.5,-1398 181.5,-1392 187.5,-1392 187.5,-1392 265.5,-1392 265.5,-1392 271.5,-1392 277.5,-1398 277.5,-1404 277.5,-1404 277.5,-1416 277.5,-1416 277.5,-1422 271.5,-1428 265.5,-1428"/>
<text text-anchor="middle" x="226.5" y="-1407.8" font-family="Courier,monospace" font-size="9.00">AnalyzeTagSizes()</text>
</g>
<!-- Node0x5ff0a1f65e70&#45;&gt;Node0x5ff0a1e179c0 -->
<g id="edge2" class="edge">
<title>Node0x5ff0a1f65e70&#45;&gt;Node0x5ff0a1e179c0</title>
<path fill="none" stroke="#4a6fa5" d="M72.48,-1254.29C103.99,-1286.36 169.1,-1352.61 203.34,-1387.46"/>
<polygon fill="#4a6fa5" stroke="#4a6fa5" points="202.06,-1389.15 207.76,-1391.95 205.06,-1386.2 202.06,-1389.15"/>
</g>
<!-- Node0x5ff0a1f65de0 -->
<g id="node4" class="node">
<title>Node0x5ff0a1f65de0</title>
<path fill="#f0f4ff" stroke="black" d="M263,-1486C263,-1486 190,-1486 190,-1486 184,-1486 178,-1480 178,-1474 178,-1474 178,-1462 178,-1462 178,-1456 184,-1450 190,-1450 190,-1450 263,-1450 263,-1450 269,-1450 275,-1456 275,-1462 275,-1462 275,-1474 275,-1474 275,-1480 269,-1486 263,-1486"/>
<text text-anchor="middle" x="226.5" y="-1465.8" font-family="Courier,monospace" font-size="9.00">AnalyzeMpeTags()</text>
</g>
<!-- Node0x5ff0a1f65e70&#45;&gt;Node0x5ff0a1f65de0 -->
<g id="edge3" class="edge">
<title>Node0x5ff0a1f65e70&#45;&gt;Node0x5ff0a1f65de0</title>
<path fill="none" stroke="#4a6fa5" d="M60.07,-1254.11C72.8,-1292.77 107.39,-1384.29 165,-1439 167.83,-1441.68 170.95,-1444.16 174.24,-1446.44"/>
<polygon fill="#4a6fa5" stroke="#4a6fa5" points="173.35,-1448.37 179.53,-1449.86 175.63,-1444.84 173.35,-1448.37"/>
</g>
<!-- Node0x5ff0a1e16100 -->
<g id="node5" class="node">
<title>Node0x5ff0a1e16100</title>
<path fill="#f0f4ff" stroke="black" d="M268,-1283C268,-1283 185,-1283 185,-1283 179,-1283 173,-1277 173,-1271 173,-1271 173,-1259 173,-1259 173,-1253 179,-1247 185,-1247 185,-1247 268,-1247 268,-1247 274,-1247 280,-1253 280,-1259 280,-1259 280,-1271 280,-1271 280,-1277 274,-1283 268,-1283"/>
<text text-anchor="middle" x="226.5" y="-1262.8" font-family="Courier,monospace" font-size="9.00">AnalyzeProfileID()</text>
</g>
<!-- Node0x5ff0a1f65e70&#45;&gt;Node0x5ff0a1e16100 -->
<g id="edge4" class="edge">
<title>Node0x5ff0a1f65e70&#45;&gt;Node0x5ff0a1e16100</title>
<path fill="none" stroke="#4a6fa5" d="M107.2,-1244.94C126.14,-1248.15 147.62,-1251.79 167.02,-1255.08"/>
<polygon fill="#4a6fa5" stroke="#4a6fa5" points="166.71,-1257.16 172.97,-1256.09 167.41,-1253.02 166.71,-1257.16"/>
</g>
<!-- Node0x5ff0a1e17a40 -->
<g id="node6" class="node">
<title>Node0x5ff0a1e17a40</title>
<path fill="#f0f4ff" stroke="black" d="M268,-1022C268,-1022 185,-1022 185,-1022 179,-1022 173,-1016 173,-1010 173,-1010 173,-998 173,-998 173,-992 179,-986 185,-986 185,-986 268,-986 268,-986 274,-986 280,-992 280,-998 280,-998 280,-1010 280,-1010 280,-1016 274,-1022 268,-1022"/>
<text text-anchor="middle" x="226.5" y="-1001.8" font-family="Courier,monospace" font-size="9.00">AnalyzeCurveTags()</text>
</g>
<!-- Node0x5ff0a1f65e70&#45;&gt;Node0x5ff0a1e17a40 -->
<g id="edge5" class="edge">
<title>Node0x5ff0a1f65e70&#45;&gt;Node0x5ff0a1e17a40</title>
<path fill="none" stroke="#4a6fa5" d="M67.92,-1217.8C98.7,-1176.04 174.34,-1073.4 208.4,-1027.2"/>
<polygon fill="#4a6fa5" stroke="#4a6fa5" points="210.27,-1028.2 212.14,-1022.12 206.89,-1025.7 210.27,-1028.2"/>
</g>
<!-- Node0x5ff0a1e167e0 -->
<g id="node7" class="node">
<title>Node0x5ff0a1e167e0</title>
<path fill="#f0f4ff" stroke="black" d="M276,-384C276,-384 177,-384 177,-384 171,-384 165,-378 165,-372 165,-372 165,-360 165,-360 165,-354 171,-348 177,-348 177,-348 276,-348 276,-348 282,-348 288,-354 288,-360 288,-360 288,-372 288,-372 288,-378 282,-384 276,-384"/>
<text text-anchor="middle" x="226.5" y="-363.8" font-family="Courier,monospace" font-size="9.00">AnalyzeSpectralTags()</text>
</g>
<!-- Node0x5ff0a1f65e70&#45;&gt;Node0x5ff0a1e167e0 -->
<g id="edge6" class="edge">
<title>Node0x5ff0a1f65e70&#45;&gt;Node0x5ff0a1e167e0</title>
<path fill="none" stroke="#4a6fa5" d="M58.07,-1217.83C79.96,-1106.49 195.81,-517.04 220.76,-390.1"/>
<polygon fill="#4a6fa5" stroke="#4a6fa5" points="222.85,-390.36 221.95,-384.07 218.73,-389.55 222.85,-390.36"/>
</g>
<!-- Node0x5ff0a1e16d30 -->
<g id="node8" class="node">
<title>Node0x5ff0a1e16d30</title>
<path fill="#f0f4ff" stroke="black" d="M273.5,-1196C273.5,-1196 179.5,-1196 179.5,-1196 173.5,-1196 167.5,-1190 167.5,-1184 167.5,-1184 167.5,-1172 167.5,-1172 167.5,-1166 173.5,-1160 179.5,-1160 179.5,-1160 273.5,-1160 273.5,-1160 279.5,-1160 285.5,-1166 285.5,-1172 285.5,-1172 285.5,-1184 285.5,-1184 285.5,-1190 279.5,-1196 273.5,-1196"/>
<text text-anchor="middle" x="226.5" y="-1175.8" font-family="Courier,monospace" font-size="9.00">AnalyzeNamedColors()</text>
</g>
<!-- Node0x5ff0a1f65e70&#45;&gt;Node0x5ff0a1e16d30 -->
<g id="edge7" class="edge">
<title>Node0x5ff0a1f65e70&#45;&gt;Node0x5ff0a1e16d30</title>
<path fill="none" stroke="#4a6fa5" d="M107.2,-1218.12C125.97,-1211.76 147.21,-1204.55 166.48,-1198.02"/>
<polygon fill="#4a6fa5" stroke="#4a6fa5" points="167.38,-1199.93 172.38,-1196.02 166.03,-1195.95 167.38,-1199.93"/>
</g>
<!-- Node0x5ff0a1f16bb0 -->
<g id="node9" class="node">
<title>Node0x5ff0a1f16bb0</title>
<path fill="#f0f4ff" stroke="black" d="M263,-964C263,-964 190,-964 190,-964 184,-964 178,-958 178,-952 178,-952 178,-940 178,-940 178,-934 184,-928 190,-928 190,-928 263,-928 263,-928 269,-928 275,-934 275,-940 275,-940 275,-952 275,-952 275,-958 269,-964 263,-964"/>
<text text-anchor="middle" x="226.5" y="-943.8" font-family="Courier,monospace" font-size="9.00">AnalyzeXYZTags()</text>
</g>
<!-- Node0x5ff0a1f65e70&#45;&gt;Node0x5ff0a1f16bb0 -->
<g id="edge8" class="edge">
<title>Node0x5ff0a1f65e70&#45;&gt;Node0x5ff0a1f16bb0</title>
<path fill="none" stroke="#4a6fa5" d="M57.62,-1217.74C66.39,-1171.44 95.35,-1047.97 165,-975 167.59,-972.29 170.48,-969.8 173.56,-967.53"/>
<polygon fill="#4a6fa5" stroke="#4a6fa5" points="174.77,-969.24 178.53,-964.12 172.39,-965.78 174.77,-969.24"/>
</g>
<!-- Node0x5ff0a1e16010 -->
<g id="node10" class="node">
<title>Node0x5ff0a1e16010</title>
<path fill="#f0f4ff" stroke="black" d="M541,-1022C541,-1022 437,-1022 437,-1022 431,-1022 425,-1016 425,-1010 425,-1010 425,-998 425,-998 425,-992 431,-986 437,-986 437,-986 541,-986 541,-986 547,-986 553,-992 553,-998 553,-998 553,-1010 553,-1010 553,-1016 547,-1022 541,-1022"/>
<text text-anchor="middle" x="489" y="-1001.8" font-family="Courier,monospace" font-size="9.00">CIccProfile::FindTag()</text>
</g>
<!-- Node0x5ff0a1f481a0&#45;&gt;Node0x5ff0a1e16010 -->
<g id="edge9" class="edge">
<title>Node0x5ff0a1f481a0&#45;&gt;Node0x5ff0a1e16010</title>
<path fill="none" stroke="#4a6fa5" d="M230.62,-1855.98C239.95,-1801.79 268.24,-1635.47 288,-1497 302.68,-1394.13 275.41,-1109.26 346,-1033 364.36,-1013.17 392.3,-1004.87 418.56,-1001.93"/>
<polygon fill="#4a6fa5" stroke="#4a6fa5" points="419.07,-1003.99 424.83,-1001.32 418.66,-999.81 419.07,-1003.99"/>
</g>
<!-- Node0x5ff0a1f71ac0 -->
<g id="node11" class="node">
<title>Node0x5ff0a1f71ac0</title>
<path fill="#f0f4ff" stroke="black" d="M520,-964C520,-964 458,-964 458,-964 452,-964 446,-958 446,-952 446,-952 446,-940 446,-940 446,-934 452,-928 458,-928 458,-928 520,-928 520,-928 526,-928 532,-934 532,-940 532,-940 532,-952 532,-952 532,-958 526,-964 520,-964"/>
<text text-anchor="middle" x="489" y="-943.8" font-family="Courier,monospace" font-size="9.00">__dynamic_cast</text>
</g>
<!-- Node0x5ff0a1f481a0&#45;&gt;Node0x5ff0a1f71ac0 -->
<g id="edge10" class="edge">
<title>Node0x5ff0a1f481a0&#45;&gt;Node0x5ff0a1f71ac0</title>
<path fill="none" stroke="#4a6fa5" d="M230.71,-1856C240.29,-1801.84 269.19,-1635.6 288,-1497 303.7,-1381.35 267.3,-1061.19 346,-975 369.3,-949.48 408.47,-943 439.78,-942.47"/>
<polygon fill="#4a6fa5" stroke="#4a6fa5" points="439.94,-944.57 445.93,-942.44 439.92,-940.37 439.94,-944.57"/>
</g>
<!-- Node0x5ff0a1e1a9c0 -->
<g id="node12" class="node">
<title>Node0x5ff0a1e1a9c0</title>
<path fill="#f0f4ff" stroke="black" d="M546.5,-2182C546.5,-2182 431.5,-2182 431.5,-2182 425.5,-2182 419.5,-2176 419.5,-2170 419.5,-2170 419.5,-2158 419.5,-2158 419.5,-2152 425.5,-2146 431.5,-2146 431.5,-2146 546.5,-2146 546.5,-2146 552.5,-2146 558.5,-2152 558.5,-2158 558.5,-2158 558.5,-2170 558.5,-2170 558.5,-2176 552.5,-2182 546.5,-2182"/>
<text text-anchor="middle" x="489" y="-2161.8" font-family="Courier,monospace" font-size="9.00">CIccMBB::InputChannels()</text>
</g>
<!-- Node0x5ff0a1f481a0&#45;&gt;Node0x5ff0a1e1a9c0 -->
<g id="edge11" class="edge">
<title>Node0x5ff0a1f481a0&#45;&gt;Node0x5ff0a1e1a9c0</title>
<path fill="none" stroke="#4a6fa5" d="M230.07,-1892.32C237.82,-1940.4 265.65,-2070.94 346,-2135 364.95,-2150.11 389.75,-2157.95 413.31,-2161.86"/>
<polygon fill="#4a6fa5" stroke="#4a6fa5" points="413.02,-2163.94 419.27,-2162.77 413.66,-2159.79 413.02,-2163.94"/>
</g>
<!-- Node0x5ff0a1f73ea0 -->
<g id="node13" class="node">
<title>Node0x5ff0a1f73ea0</title>
<path fill="#f0f4ff" stroke="black" d="M549,-2124C549,-2124 429,-2124 429,-2124 423,-2124 417,-2118 417,-2112 417,-2112 417,-2100 417,-2100 417,-2094 423,-2088 429,-2088 429,-2088 549,-2088 549,-2088 555,-2088 561,-2094 561,-2100 561,-2100 561,-2112 561,-2112 561,-2118 555,-2124 549,-2124"/>
<text text-anchor="middle" x="489" y="-2103.8" font-family="Courier,monospace" font-size="9.00">CIccMBB::OutputChannels()</text>
</g>
<!-- Node0x5ff0a1f481a0&#45;&gt;Node0x5ff0a1f73ea0 -->
<g id="edge12" class="edge">
<title>Node0x5ff0a1f481a0&#45;&gt;Node0x5ff0a1f73ea0</title>
<path fill="none" stroke="#4a6fa5" d="M232.51,-1892.07C244.65,-1932.3 279.67,-2029.45 346,-2077 364.77,-2090.46 388.34,-2097.99 410.85,-2102.12"/>
<polygon fill="#4a6fa5" stroke="#4a6fa5" points="410.59,-2104.21 416.86,-2103.15 411.3,-2100.07 410.59,-2104.21"/>
</g>
<!-- Node0x5ff0a1f72fe0 -->
<g id="node14" class="node">
<title>Node0x5ff0a1f72fe0</title>
<path fill="#f0f4ff" stroke="black" d="M512,-1080C512,-1080 466,-1080 466,-1080 460,-1080 454,-1074 454,-1068 454,-1068 454,-1056 454,-1056 454,-1050 460,-1044 466,-1044 466,-1044 512,-1044 512,-1044 518,-1044 524,-1050 524,-1056 524,-1056 524,-1068 524,-1068 524,-1074 518,-1080 512,-1080"/>
<text text-anchor="middle" x="489" y="-1059.8" font-family="Courier,monospace" font-size="9.00">ColorInfo()</text>
</g>
<!-- Node0x5ff0a1f481a0&#45;&gt;Node0x5ff0a1f72fe0 -->
<g id="edge13" class="edge">
<title>Node0x5ff0a1f481a0&#45;&gt;Node0x5ff0a1f72fe0</title>
<path fill="none" stroke="#4a6fa5" d="M230.51,-1855.97C239.53,-1801.73 267.03,-1635.29 288,-1497 301.67,-1406.89 283.5,-1157.33 346,-1091 371.64,-1063.79 415.36,-1058.39 447.53,-1058.66"/>
<polygon fill="#4a6fa5" stroke="#4a6fa5" points="447.76,-1060.76 453.8,-1058.78 447.84,-1056.57 447.76,-1060.76"/>
</g>
<!-- Node0x5ff0a1f74190 -->
<g id="node15" class="node">
<title>Node0x5ff0a1f74190</title>
<path fill="#f0f4ff" stroke="black" d="M515,-1312C515,-1312 463,-1312 463,-1312 457,-1312 451,-1306 451,-1300 451,-1300 451,-1288 451,-1288 451,-1282 457,-1276 463,-1276 463,-1276 515,-1276 515,-1276 521,-1276 527,-1282 527,-1288 527,-1288 527,-1300 527,-1300 527,-1306 521,-1312 515,-1312"/>
<text text-anchor="middle" x="489" y="-1291.8" font-family="Courier,monospace" font-size="9.00">ColorReset()</text>
</g>
<!-- Node0x5ff0a1f481a0&#45;&gt;Node0x5ff0a1f74190 -->
<g id="edge14" class="edge">
<title>Node0x5ff0a1f481a0&#45;&gt;Node0x5ff0a1f74190</title>
<path fill="none" stroke="#4a6fa5" d="M230.2,-1855.89C243.89,-1765.08 306.53,-1362.06 346,-1323 371.65,-1297.61 413.14,-1291.57 444.66,-1291.16"/>
<polygon fill="#4a6fa5" stroke="#4a6fa5" points="444.83,-1293.26 450.82,-1291.15 444.82,-1289.06 444.83,-1293.26"/>
</g>
<!-- Node0x5ff0a1e1ade0 -->
<g id="node16" class="node">
<title>Node0x5ff0a1e1ade0</title>
<path fill="#f0f4ff" stroke="black" d="M520,-1486C520,-1486 458,-1486 458,-1486 452,-1486 446,-1480 446,-1474 446,-1474 446,-1462 446,-1462 446,-1456 452,-1450 458,-1450 458,-1450 520,-1450 520,-1450 526,-1450 532,-1456 532,-1462 532,-1462 532,-1474 532,-1474 532,-1480 526,-1486 520,-1486"/>
<text text-anchor="middle" x="489" y="-1465.8" font-family="Courier,monospace" font-size="9.00">ColorWarning()</text>
</g>
<!-- Node0x5ff0a1f481a0&#45;&gt;Node0x5ff0a1e1ade0 -->
<g id="edge15" class="edge">
<title>Node0x5ff0a1f481a0&#45;&gt;Node0x5ff0a1e1ade0</title>
<path fill="none" stroke="#4a6fa5" d="M227.22,-1855.69C227.33,-1794.56 236.46,-1595.79 346,-1497 371.12,-1474.35 409.02,-1467.49 439.34,-1466.08"/>
<polygon fill="#4a6fa5" stroke="#4a6fa5" points="439.77,-1468.17 445.69,-1465.86 439.62,-1463.97 439.77,-1468.17"/>
</g>
<!-- Node0x5ff0a1f76d60 -->
<g id="node17" class="node">
<title>Node0x5ff0a1f76d60</title>
<path fill="#f0f4ff" stroke="black" d="M522.5,-1254C522.5,-1254 455.5,-1254 455.5,-1254 449.5,-1254 443.5,-1248 443.5,-1242 443.5,-1242 443.5,-1230 443.5,-1230 443.5,-1224 449.5,-1218 455.5,-1218 455.5,-1218 522.5,-1218 522.5,-1218 528.5,-1218 534.5,-1224 534.5,-1230 534.5,-1230 534.5,-1242 534.5,-1242 534.5,-1248 528.5,-1254 522.5,-1254"/>
<text text-anchor="middle" x="489" y="-1233.8" font-family="Courier,monospace" font-size="9.00">ColorCritical()</text>
</g>
<!-- Node0x5ff0a1f481a0&#45;&gt;Node0x5ff0a1f76d60 -->
<g id="edge16" class="edge">
<title>Node0x5ff0a1f481a0&#45;&gt;Node0x5ff0a1f76d60</title>
<path fill="none" stroke="#4a6fa5" d="M230.45,-1855.84C246.6,-1756.93 324.3,-1286.9 346,-1265 369.39,-1241.39 406.46,-1234.42 436.85,-1233.21"/>
<polygon fill="#4a6fa5" stroke="#4a6fa5" points="437.29,-1235.3 443.23,-1233.04 437.17,-1231.1 437.29,-1235.3"/>
</g>
<!-- Node0x5ff0a1f763a0 -->
<g id="node18" class="node">
<title>Node0x5ff0a1f763a0</title>
<path fill="#f0f4ff" stroke="black" d="M512,-2066C512,-2066 466,-2066 466,-2066 460,-2066 454,-2060 454,-2054 454,-2054 454,-2042 454,-2042 454,-2036 460,-2030 466,-2030 466,-2030 512,-2030 512,-2030 518,-2030 524,-2036 524,-2042 524,-2042 524,-2054 524,-2054 524,-2060 518,-2066 512,-2066"/>
<text text-anchor="middle" x="489" y="-2045.8" font-family="Courier,monospace" font-size="9.00">SafeMul64()</text>
</g>
<!-- Node0x5ff0a1f481a0&#45;&gt;Node0x5ff0a1f763a0 -->
<g id="edge17" class="edge">
<title>Node0x5ff0a1f481a0&#45;&gt;Node0x5ff0a1f763a0</title>
<path fill="none" stroke="#4a6fa5" d="M236.8,-1892.07C253.88,-1923.33 293.41,-1987.22 346,-2019 376.86,-2037.65 417.67,-2044.51 447.62,-2046.93"/>
<polygon fill="#4a6fa5" stroke="#4a6fa5" points="447.7,-2049.04 453.83,-2047.38 448,-2044.85 447.7,-2049.04"/>
</g>
<!-- Node0x5ff0a1e1ae60 -->
<g id="node19" class="node">
<title>Node0x5ff0a1e1ae60</title>
<path fill="#f0f4ff" stroke="black" d="M538.5,-2008C538.5,-2008 439.5,-2008 439.5,-2008 433.5,-2008 427.5,-2002 427.5,-1996 427.5,-1996 427.5,-1984 427.5,-1984 427.5,-1978 433.5,-1972 439.5,-1972 439.5,-1972 538.5,-1972 538.5,-1972 544.5,-1972 550.5,-1978 550.5,-1984 550.5,-1984 550.5,-1996 550.5,-1996 550.5,-2002 544.5,-2008 538.5,-2008"/>
<text text-anchor="middle" x="489" y="-1987.8" font-family="Courier,monospace" font-size="9.00">CIccMBB::GetCurvesB()</text>
</g>
<!-- Node0x5ff0a1f481a0&#45;&gt;Node0x5ff0a1e1ae60 -->
<g id="edge18" class="edge">
<title>Node0x5ff0a1f481a0&#45;&gt;Node0x5ff0a1e1ae60</title>
<path fill="none" stroke="#4a6fa5" d="M246.78,-1892.33C268.94,-1912.34 307.27,-1943.83 346,-1961 369.43,-1971.39 396.7,-1978.1 421.04,-1982.42"/>
<polygon fill="#4a6fa5" stroke="#4a6fa5" points="420.89,-1984.53 427.16,-1983.47 421.6,-1980.39 420.89,-1984.53"/>
</g>
<!-- Node0x5ff0a1f771a0 -->
<g id="node20" class="node">
<title>Node0x5ff0a1f771a0</title>
<path fill="#f0f4ff" stroke="black" d="M559.5,-1950C559.5,-1950 418.5,-1950 418.5,-1950 412.5,-1950 406.5,-1944 406.5,-1938 406.5,-1938 406.5,-1926 406.5,-1926 406.5,-1920 412.5,-1914 418.5,-1914 418.5,-1914 559.5,-1914 559.5,-1914 565.5,-1914 571.5,-1920 571.5,-1926 571.5,-1926 571.5,-1938 571.5,-1938 571.5,-1944 565.5,-1950 559.5,-1950"/>
<text text-anchor="middle" x="489" y="-1929.8" font-family="Courier,monospace" font-size="9.00">CIccCLUT::GetOutputChannels()</text>
</g>
<!-- Node0x5ff0a1f481a0&#45;&gt;Node0x5ff0a1f771a0 -->
<g id="edge19" class="edge">
<title>Node0x5ff0a1f481a0&#45;&gt;Node0x5ff0a1f771a0</title>
<path fill="none" stroke="#4a6fa5" d="M275.26,-1886.13C296.82,-1891.5 322.65,-1897.76 346,-1903 363.54,-1906.93 382.34,-1910.93 400.34,-1914.65"/>
<polygon fill="#4a6fa5" stroke="#4a6fa5" points="400.11,-1916.75 406.41,-1915.9 400.96,-1912.63 400.11,-1916.75"/>
</g>
<!-- Node0x5ff0a1f743a0 -->
<g id="node21" class="node">
<title>Node0x5ff0a1f743a0</title>
<path fill="#f0f4ff" stroke="black" d="M538.5,-1892C538.5,-1892 439.5,-1892 439.5,-1892 433.5,-1892 427.5,-1886 427.5,-1880 427.5,-1880 427.5,-1868 427.5,-1868 427.5,-1862 433.5,-1856 439.5,-1856 439.5,-1856 538.5,-1856 538.5,-1856 544.5,-1856 550.5,-1862 550.5,-1868 550.5,-1868 550.5,-1880 550.5,-1880 550.5,-1886 544.5,-1892 538.5,-1892"/>
<text text-anchor="middle" x="489" y="-1871.8" font-family="Courier,monospace" font-size="9.00">CIccMBB::GetCurvesM()</text>
</g>
<!-- Node0x5ff0a1f481a0&#45;&gt;Node0x5ff0a1f743a0 -->
<g id="edge20" class="edge">
<title>Node0x5ff0a1f481a0&#45;&gt;Node0x5ff0a1f743a0</title>
<path fill="none" stroke="#4a6fa5" d="M275.28,-1874C316.19,-1874 375.53,-1874 421.15,-1874"/>
<polygon fill="#4a6fa5" stroke="#4a6fa5" points="421.21,-1876.1 427.21,-1874 421.21,-1871.9 421.21,-1876.1"/>
</g>
<!-- Node0x5ff0a1e1ab90 -->
<g id="node22" class="node">
<title>Node0x5ff0a1e1ab90</title>
<path fill="#f0f4ff" stroke="black" d="M538.5,-1834C538.5,-1834 439.5,-1834 439.5,-1834 433.5,-1834 427.5,-1828 427.5,-1822 427.5,-1822 427.5,-1810 427.5,-1810 427.5,-1804 433.5,-1798 439.5,-1798 439.5,-1798 538.5,-1798 538.5,-1798 544.5,-1798 550.5,-1804 550.5,-1810 550.5,-1810 550.5,-1822 550.5,-1822 550.5,-1828 544.5,-1834 538.5,-1834"/>
<text text-anchor="middle" x="489" y="-1813.8" font-family="Courier,monospace" font-size="9.00">CIccCLUT::GridPoint()</text>
</g>
<!-- Node0x5ff0a1f481a0&#45;&gt;Node0x5ff0a1e1ab90 -->
<g id="edge21" class="edge">
<title>Node0x5ff0a1f481a0&#45;&gt;Node0x5ff0a1e1ab90</title>
<path fill="none" stroke="#4a6fa5" d="M275.26,-1861.87C296.82,-1856.5 322.65,-1850.24 346,-1845 370.56,-1839.49 397.6,-1833.86 421.44,-1829.04"/>
<polygon fill="#4a6fa5" stroke="#4a6fa5" points="421.96,-1831.08 427.43,-1827.83 421.13,-1826.96 421.96,-1831.08"/>
</g>
<!-- Node0x5ff0a1e1a4a0 -->
<g id="node23" class="node">
<title>Node0x5ff0a1e1a4a0</title>
<path fill="#f0f4ff" stroke="black" d="M538.5,-2356C538.5,-2356 439.5,-2356 439.5,-2356 433.5,-2356 427.5,-2350 427.5,-2344 427.5,-2344 427.5,-2332 427.5,-2332 427.5,-2326 433.5,-2320 439.5,-2320 439.5,-2320 538.5,-2320 538.5,-2320 544.5,-2320 550.5,-2326 550.5,-2332 550.5,-2332 550.5,-2344 550.5,-2344 550.5,-2350 544.5,-2356 538.5,-2356"/>
<text text-anchor="middle" x="489" y="-2335.8" font-family="Courier,monospace" font-size="9.00">CIccMBB::GetCurvesA()</text>
</g>
<!-- Node0x5ff0a1f481a0&#45;&gt;Node0x5ff0a1e1a4a0 -->
<g id="edge22" class="edge">
<title>Node0x5ff0a1f481a0&#45;&gt;Node0x5ff0a1e1a4a0</title>
<path fill="none" stroke="#4a6fa5" d="M229.9,-1892.09C240.15,-1966.73 282.69,-2249.64 346,-2309 365.97,-2327.72 394.61,-2335.77 420.94,-2338.83"/>
<polygon fill="#4a6fa5" stroke="#4a6fa5" points="421.04,-2340.95 427.22,-2339.48 421.47,-2336.77 421.04,-2340.95"/>
</g>
<!-- Node0x5ff0a1e1b030 -->
<g id="node24" class="node">
<title>Node0x5ff0a1e1b030</title>
<path fill="#f0f4ff" stroke="black" d="M533,-2298C533,-2298 445,-2298 445,-2298 439,-2298 433,-2292 433,-2286 433,-2286 433,-2274 433,-2274 433,-2268 439,-2262 445,-2262 445,-2262 533,-2262 533,-2262 539,-2262 545,-2268 545,-2274 545,-2274 545,-2286 545,-2286 545,-2292 539,-2298 533,-2298"/>
<text text-anchor="middle" x="489" y="-2277.8" font-family="Courier,monospace" font-size="9.00">CIccCLUT::GetData()</text>
</g>
<!-- Node0x5ff0a1f481a0&#45;&gt;Node0x5ff0a1e1b030 -->
<g id="edge23" class="edge">
<title>Node0x5ff0a1f481a0&#45;&gt;Node0x5ff0a1e1b030</title>
<path fill="none" stroke="#4a6fa5" d="M227.22,-1892.31C227.33,-1953.44 236.46,-2152.21 346,-2251 367.71,-2270.58 398.98,-2278.36 426.64,-2281.02"/>
<polygon fill="#4a6fa5" stroke="#4a6fa5" points="426.7,-2283.13 432.85,-2281.54 427.05,-2278.95 426.7,-2283.13"/>
</g>
<!-- Node0x5ff0a1f74730 -->
<g id="node25" class="node">
<title>Node0x5ff0a1f74730</title>
<path fill="#f0f4ff" stroke="black" d="M530.5,-2240C530.5,-2240 447.5,-2240 447.5,-2240 441.5,-2240 435.5,-2234 435.5,-2228 435.5,-2228 435.5,-2216 435.5,-2216 435.5,-2210 441.5,-2204 447.5,-2204 447.5,-2204 530.5,-2204 530.5,-2204 536.5,-2204 542.5,-2210 542.5,-2216 542.5,-2216 542.5,-2228 542.5,-2228 542.5,-2234 536.5,-2240 530.5,-2240"/>
<text text-anchor="middle" x="489" y="-2219.8" font-family="Courier,monospace" font-size="9.00">CIccMBB::GetCLUT()</text>
</g>
<!-- Node0x5ff0a1f481a0&#45;&gt;Node0x5ff0a1f74730 -->
<g id="edge24" class="edge">
<title>Node0x5ff0a1f481a0&#45;&gt;Node0x5ff0a1f74730</title>
<path fill="none" stroke="#4a6fa5" d="M228.39,-1892.2C232.12,-1947 251.1,-2111.71 346,-2193 368.74,-2212.48 401.02,-2220.11 429.06,-2222.71"/>
<polygon fill="#4a6fa5" stroke="#4a6fa5" points="429.2,-2224.83 435.35,-2223.21 429.53,-2220.64 429.2,-2224.83"/>
</g>
<!-- Node0x5ff0a1e179c0&#45;&gt;Node0x5ff0a1f74190 -->
<g id="edge81" class="edge">
<title>Node0x5ff0a1e179c0&#45;&gt;Node0x5ff0a1f74190</title>
<path fill="none" stroke="#4a6fa5" d="M246.78,-1391.67C268.94,-1371.66 307.27,-1340.17 346,-1323 377.46,-1309.05 415.84,-1301.73 444.76,-1297.93"/>
<polygon fill="#4a6fa5" stroke="#4a6fa5" points="445.09,-1300.01 450.78,-1297.18 444.57,-1295.84 445.09,-1300.01"/>
</g>
<!-- Node0x5ff0a1e179c0&#45;&gt;Node0x5ff0a1e1ade0 -->
<g id="edge80" class="edge">
<title>Node0x5ff0a1e179c0&#45;&gt;Node0x5ff0a1e1ade0</title>
<path fill="none" stroke="#4a6fa5" d="M277.56,-1422.7C298.65,-1427.94 323.47,-1433.95 346,-1439 377.16,-1445.99 412.32,-1453.18 439.86,-1458.65"/>
<polygon fill="#4a6fa5" stroke="#4a6fa5" points="439.68,-1460.75 445.97,-1459.86 440.49,-1456.63 439.68,-1460.75"/>
</g>
<!-- Node0x5ff0a1f77920 -->
<g id="node29" class="node">
<title>Node0x5ff0a1f77920</title>
<path fill="#f0f4ff" stroke="black" d="M509.5,-1544C509.5,-1544 468.5,-1544 468.5,-1544 462.5,-1544 456.5,-1538 456.5,-1532 456.5,-1532 456.5,-1520 456.5,-1520 456.5,-1514 462.5,-1508 468.5,-1508 468.5,-1508 509.5,-1508 509.5,-1508 515.5,-1508 521.5,-1514 521.5,-1520 521.5,-1520 521.5,-1532 521.5,-1532 521.5,-1538 515.5,-1544 509.5,-1544"/>
<text text-anchor="middle" x="489" y="-1523.8" font-family="Courier,monospace" font-size="9.00">SigToStr()</text>
</g>
<!-- Node0x5ff0a1e179c0&#45;&gt;Node0x5ff0a1f77920 -->
<g id="edge79" class="edge">
<title>Node0x5ff0a1e179c0&#45;&gt;Node0x5ff0a1f77920</title>
<path fill="none" stroke="#4a6fa5" d="M269.88,-1428.03C276.15,-1431.35 282.39,-1435.03 288,-1439 317.75,-1460.07 313.89,-1479.73 346,-1497 378.48,-1514.47 420.32,-1521.44 450.15,-1524.21"/>
<polygon fill="#4a6fa5" stroke="#4a6fa5" points="450.17,-1526.32 456.33,-1524.74 450.53,-1522.13 450.17,-1526.32"/>
</g>
<!-- Node0x5ff0a1f7d700 -->
<g id="node49" class="node">
<title>Node0x5ff0a1f7d700</title>
<path fill="#f0f4ff" stroke="black" d="M520,-1428C520,-1428 458,-1428 458,-1428 452,-1428 446,-1422 446,-1416 446,-1416 446,-1404 446,-1404 446,-1398 452,-1392 458,-1392 458,-1392 520,-1392 520,-1392 526,-1392 532,-1398 532,-1404 532,-1404 532,-1416 532,-1416 532,-1422 526,-1428 520,-1428"/>
<text text-anchor="middle" x="489" y="-1407.8" font-family="Courier,monospace" font-size="9.00">ColorSuccess()</text>
</g>
<!-- Node0x5ff0a1e179c0&#45;&gt;Node0x5ff0a1f7d700 -->
<g id="edge82" class="edge">
<title>Node0x5ff0a1e179c0&#45;&gt;Node0x5ff0a1f7d700</title>
<path fill="none" stroke="#4a6fa5" d="M277.73,-1410C324.42,-1410 393.52,-1410 439.61,-1410"/>
<polygon fill="#4a6fa5" stroke="#4a6fa5" points="439.68,-1412.1 445.68,-1410 439.68,-1407.9 439.68,-1412.1"/>
</g>
<!-- Node0x5ff0a1f65de0&#45;&gt;Node0x5ff0a1e16010 -->
<g id="edge25" class="edge">
<title>Node0x5ff0a1f65de0&#45;&gt;Node0x5ff0a1e16010</title>
<path fill="none" stroke="#4a6fa5" d="M275.29,-1451.01C280.15,-1447.66 284.56,-1443.7 288,-1439 395.81,-1292.02 221.01,-1165.67 346,-1033 364.45,-1013.42 392.26,-1005.13 418.39,-1002.13"/>
<polygon fill="#4a6fa5" stroke="#4a6fa5" points="418.88,-1004.19 424.64,-1001.5 418.46,-1000.01 418.88,-1004.19"/>
</g>
<!-- Node0x5ff0a1f65de0&#45;&gt;Node0x5ff0a1f71ac0 -->
<g id="edge26" class="edge">
<title>Node0x5ff0a1f65de0&#45;&gt;Node0x5ff0a1f71ac0</title>
<path fill="none" stroke="#4a6fa5" d="M275.08,-1451.27C280.04,-1447.87 284.53,-1443.82 288,-1439 409.44,-1270.35 204.82,-1127.51 346,-975 369.4,-949.73 408.37,-943.19 439.57,-942.58"/>
<polygon fill="#4a6fa5" stroke="#4a6fa5" points="439.72,-944.68 445.7,-942.53 439.68,-940.48 439.72,-944.68"/>
</g>
<!-- Node0x5ff0a1f65de0&#45;&gt;Node0x5ff0a1f72fe0 -->
<g id="edge28" class="edge">
<title>Node0x5ff0a1f65de0&#45;&gt;Node0x5ff0a1f72fe0</title>
<path fill="none" stroke="#4a6fa5" d="M275.18,-1450.93C280.06,-1447.6 284.5,-1443.66 288,-1439 382.2,-1313.65 237.16,-1203.87 346,-1091 371.95,-1064.09 415.62,-1058.65 447.69,-1058.82"/>
<polygon fill="#4a6fa5" stroke="#4a6fa5" points="447.91,-1060.92 453.94,-1058.92 447.98,-1056.72 447.91,-1060.92"/>
</g>
<!-- Node0x5ff0a1f65de0&#45;&gt;Node0x5ff0a1f74190 -->
<g id="edge29" class="edge">
<title>Node0x5ff0a1f65de0&#45;&gt;Node0x5ff0a1f74190</title>
<path fill="none" stroke="#4a6fa5" d="M273.91,-1449.82C279.01,-1446.68 283.85,-1443.08 288,-1439 329.1,-1398.58 300.26,-1358.08 346,-1323 374.05,-1301.48 414.09,-1294.85 444.5,-1293.24"/>
<polygon fill="#4a6fa5" stroke="#4a6fa5" points="444.93,-1295.33 450.84,-1292.97 444.75,-1291.13 444.93,-1295.33"/>
</g>
<!-- Node0x5ff0a1f65de0&#45;&gt;Node0x5ff0a1e1ade0 -->
<g id="edge31" class="edge">
<title>Node0x5ff0a1f65de0&#45;&gt;Node0x5ff0a1e1ade0</title>
<path fill="none" stroke="#4a6fa5" d="M275.28,-1468C321.95,-1468 392.62,-1468 439.52,-1468"/>
<polygon fill="#4a6fa5" stroke="#4a6fa5" points="439.69,-1470.1 445.69,-1468 439.69,-1465.9 439.69,-1470.1"/>
</g>
<!-- Node0x5ff0a1f75890 -->
<g id="node26" class="node">
<title>Node0x5ff0a1f75890</title>
<path fill="#f0f4ff" stroke="black" d="M591,-1602C591,-1602 387,-1602 387,-1602 381,-1602 375,-1596 375,-1590 375,-1590 375,-1578 375,-1578 375,-1572 381,-1566 387,-1566 387,-1566 591,-1566 591,-1566 597,-1566 603,-1572 603,-1578 603,-1578 603,-1590 603,-1590 603,-1596 597,-1602 591,-1602"/>
<text text-anchor="middle" x="489" y="-1581.8" font-family="Courier,monospace" font-size="9.00">CIccTagMultiProcessElement::NumElements()</text>
</g>
<!-- Node0x5ff0a1f65de0&#45;&gt;Node0x5ff0a1f75890 -->
<g id="edge27" class="edge">
<title>Node0x5ff0a1f65de0&#45;&gt;Node0x5ff0a1f75890</title>
<path fill="none" stroke="#4a6fa5" d="M246.78,-1486.33C268.94,-1506.34 307.27,-1537.83 346,-1555 353.76,-1558.44 361.93,-1561.48 370.28,-1564.16"/>
<polygon fill="#4a6fa5" stroke="#4a6fa5" points="369.74,-1566.18 376.09,-1565.95 370.98,-1562.17 369.74,-1566.18"/>
</g>
<!-- Node0x5ff0a1f776a0 -->
<g id="node27" class="node">
<title>Node0x5ff0a1f776a0</title>
<path fill="#f0f4ff" stroke="black" d="M604,-1776C604,-1776 374,-1776 374,-1776 368,-1776 362,-1770 362,-1764 362,-1764 362,-1752 362,-1752 362,-1746 368,-1740 374,-1740 374,-1740 604,-1740 604,-1740 610,-1740 616,-1746 616,-1752 616,-1752 616,-1764 616,-1764 616,-1770 610,-1776 604,-1776"/>
<text text-anchor="middle" x="489" y="-1755.8" font-family="Courier,monospace" font-size="9.00">CIccTagMultiProcessElement::NumInputChannels()</text>
</g>
<!-- Node0x5ff0a1f65de0&#45;&gt;Node0x5ff0a1f776a0 -->
<g id="edge30" class="edge">
<title>Node0x5ff0a1f65de0&#45;&gt;Node0x5ff0a1f776a0</title>
<path fill="none" stroke="#4a6fa5" d="M230.07,-1486.32C237.82,-1534.4 265.65,-1664.94 346,-1729 349.58,-1731.86 353.38,-1734.46 357.33,-1736.82"/>
<polygon fill="#4a6fa5" stroke="#4a6fa5" points="356.56,-1738.79 362.82,-1739.89 358.61,-1735.13 356.56,-1738.79"/>
</g>
<!-- Node0x5ff0a1f77e20 -->
<g id="node28" class="node">
<title>Node0x5ff0a1f77e20</title>
<path fill="#f0f4ff" stroke="black" d="M606.5,-1718C606.5,-1718 371.5,-1718 371.5,-1718 365.5,-1718 359.5,-1712 359.5,-1706 359.5,-1706 359.5,-1694 359.5,-1694 359.5,-1688 365.5,-1682 371.5,-1682 371.5,-1682 606.5,-1682 606.5,-1682 612.5,-1682 618.5,-1688 618.5,-1694 618.5,-1694 618.5,-1706 618.5,-1706 618.5,-1712 612.5,-1718 606.5,-1718"/>
<text text-anchor="middle" x="489" y="-1697.8" font-family="Courier,monospace" font-size="9.00">CIccTagMultiProcessElement::NumOutputChannels()</text>
</g>
<!-- Node0x5ff0a1f65de0&#45;&gt;Node0x5ff0a1f77e20 -->
<g id="edge32" class="edge">
<title>Node0x5ff0a1f65de0&#45;&gt;Node0x5ff0a1f77e20</title>
<path fill="none" stroke="#4a6fa5" d="M232.51,-1486.07C244.65,-1526.3 279.67,-1623.45 346,-1671 350.19,-1674 354.62,-1676.71 359.22,-1679.15"/>
<polygon fill="#4a6fa5" stroke="#4a6fa5" points="358.39,-1681.09 364.7,-1681.9 360.27,-1677.33 358.39,-1681.09"/>
</g>
<!-- Node0x5ff0a1f65de0&#45;&gt;Node0x5ff0a1f77920 -->
<g id="edge33" class="edge">
<title>Node0x5ff0a1f65de0&#45;&gt;Node0x5ff0a1f77920</title>
<path fill="none" stroke="#4a6fa5" d="M275.26,-1480.13C296.82,-1485.5 322.65,-1491.76 346,-1497 381.3,-1504.92 421.74,-1513.09 450.41,-1518.73"/>
<polygon fill="#4a6fa5" stroke="#4a6fa5" points="450.05,-1520.8 456.34,-1519.9 450.86,-1516.68 450.05,-1520.8"/>
</g>
<!-- Node0x5ff0a1f77ba0 -->
<g id="node30" class="node">
<title>Node0x5ff0a1f77ba0</title>
<path fill="#f0f4ff" stroke="black" d="M588.5,-1660C588.5,-1660 389.5,-1660 389.5,-1660 383.5,-1660 377.5,-1654 377.5,-1648 377.5,-1648 377.5,-1636 377.5,-1636 377.5,-1630 383.5,-1624 389.5,-1624 389.5,-1624 588.5,-1624 588.5,-1624 594.5,-1624 600.5,-1630 600.5,-1636 600.5,-1636 600.5,-1648 600.5,-1648 600.5,-1654 594.5,-1660 588.5,-1660"/>
<text text-anchor="middle" x="489" y="-1639.8" font-family="Courier,monospace" font-size="9.00">CIccTagMultiProcessElement::GetElement()</text>
</g>
<!-- Node0x5ff0a1f65de0&#45;&gt;Node0x5ff0a1f77ba0 -->
<g id="edge34" class="edge">
<title>Node0x5ff0a1f65de0&#45;&gt;Node0x5ff0a1f77ba0</title>
<path fill="none" stroke="#4a6fa5" d="M236.8,-1486.07C253.88,-1517.33 293.41,-1581.22 346,-1613 353.95,-1617.8 362.56,-1621.82 371.47,-1625.19"/>
<polygon fill="#4a6fa5" stroke="#4a6fa5" points="371.01,-1627.26 377.37,-1627.31 372.43,-1623.3 371.01,-1627.26"/>
</g>
<!-- Node0x5ff0a1e16100&#45;&gt;Node0x5ff0a1f72fe0 -->
<g id="edge74" class="edge">
<title>Node0x5ff0a1e16100&#45;&gt;Node0x5ff0a1f72fe0</title>
<path fill="none" stroke="#4a6fa5" d="M249.75,-1246.99C262.06,-1236.27 277.04,-1221.88 288,-1207 322.19,-1160.6 300.26,-1126.08 346,-1091 375.11,-1068.68 417.11,-1062.37 447.88,-1061.08"/>
<polygon fill="#4a6fa5" stroke="#4a6fa5" points="447.95,-1063.18 453.88,-1060.89 447.82,-1058.98 447.95,-1063.18"/>
</g>
<!-- Node0x5ff0a1e16100&#45;&gt;Node0x5ff0a1f74190 -->
<g id="edge75" class="edge">
<title>Node0x5ff0a1e16100&#45;&gt;Node0x5ff0a1f74190</title>
<path fill="none" stroke="#4a6fa5" d="M280.22,-1270.87C328.64,-1276.26 399.53,-1284.15 444.71,-1289.18"/>
<polygon fill="#4a6fa5" stroke="#4a6fa5" points="444.72,-1291.29 450.91,-1289.87 445.18,-1287.12 444.72,-1291.29"/>
</g>
<!-- Node0x5ff0a1e16100&#45;&gt;Node0x5ff0a1f76d60 -->
<g id="edge76" class="edge">
<title>Node0x5ff0a1e16100&#45;&gt;Node0x5ff0a1f76d60</title>
<path fill="none" stroke="#4a6fa5" d="M280.22,-1259.13C326.03,-1254.03 391.97,-1246.69 437.21,-1241.65"/>
<polygon fill="#4a6fa5" stroke="#4a6fa5" points="437.44,-1243.74 443.17,-1240.99 436.98,-1239.57 437.44,-1243.74"/>
</g>
<!-- Node0x5ff0a1e16100&#45;&gt;Node0x5ff0a1f7d700 -->
<g id="edge77" class="edge">
<title>Node0x5ff0a1e16100&#45;&gt;Node0x5ff0a1f7d700</title>
<path fill="none" stroke="#4a6fa5" d="M240.53,-1283.18C260.24,-1309.22 300.23,-1356.7 346,-1381 374.94,-1396.37 411.19,-1403.6 439.82,-1407.01"/>
<polygon fill="#4a6fa5" stroke="#4a6fa5" points="439.61,-1409.1 445.8,-1407.68 440.07,-1404.92 439.61,-1409.1"/>
</g>
<!-- Node0x5ff0a1f7d200 -->
<g id="node50" class="node">
<title>Node0x5ff0a1f7d200</title>
<path fill="#f0f4ff" stroke="black" d="M522.5,-1370C522.5,-1370 455.5,-1370 455.5,-1370 449.5,-1370 443.5,-1364 443.5,-1358 443.5,-1358 443.5,-1346 443.5,-1346 443.5,-1340 449.5,-1334 455.5,-1334 455.5,-1334 522.5,-1334 522.5,-1334 528.5,-1334 534.5,-1340 534.5,-1346 534.5,-1346 534.5,-1358 534.5,-1358 534.5,-1364 528.5,-1370 522.5,-1370"/>
<text text-anchor="middle" x="489" y="-1349.8" font-family="Courier,monospace" font-size="9.00">CalcProfileID()</text>
</g>
<!-- Node0x5ff0a1e16100&#45;&gt;Node0x5ff0a1f7d200 -->
<g id="edge78" class="edge">
<title>Node0x5ff0a1e16100&#45;&gt;Node0x5ff0a1f7d200</title>
<path fill="none" stroke="#4a6fa5" d="M258.75,-1283.02C282.12,-1295.81 315.21,-1312.51 346,-1323 375.56,-1333.07 409.84,-1340.19 437.3,-1344.86"/>
<polygon fill="#4a6fa5" stroke="#4a6fa5" points="437.15,-1346.96 443.42,-1345.87 437.84,-1342.82 437.15,-1346.96"/>
</g>
<!-- Node0x5ff0a1e17a40&#45;&gt;Node0x5ff0a1e16010 -->
<g id="edge35" class="edge">
<title>Node0x5ff0a1e17a40&#45;&gt;Node0x5ff0a1e16010</title>
<path fill="none" stroke="#4a6fa5" d="M280.22,-1004C320.12,-1004 375.28,-1004 418.74,-1004"/>
<polygon fill="#4a6fa5" stroke="#4a6fa5" points="418.79,-1006.1 424.79,-1004 418.79,-1001.9 418.79,-1006.1"/>
</g>
<!-- Node0x5ff0a1e17a40&#45;&gt;Node0x5ff0a1f71ac0 -->
<g id="edge36" class="edge">
<title>Node0x5ff0a1e17a40&#45;&gt;Node0x5ff0a1f71ac0</title>
<path fill="none" stroke="#4a6fa5" d="M280.19,-990.64C300.69,-985.57 324.4,-979.85 346,-975 377.16,-968.01 412.32,-960.82 439.86,-955.35"/>
<polygon fill="#4a6fa5" stroke="#4a6fa5" points="440.49,-957.37 445.97,-954.14 439.68,-953.25 440.49,-957.37"/>
</g>
<!-- Node0x5ff0a1e17a40&#45;&gt;Node0x5ff0a1f72fe0 -->
<g id="edge40" class="edge">
<title>Node0x5ff0a1e17a40&#45;&gt;Node0x5ff0a1f72fe0</title>
<path fill="none" stroke="#4a6fa5" d="M280.19,-1017.36C300.69,-1022.43 324.4,-1028.15 346,-1033 380.27,-1040.69 419.38,-1048.61 447.87,-1054.23"/>
<polygon fill="#4a6fa5" stroke="#4a6fa5" points="447.48,-1056.3 453.78,-1055.4 448.3,-1052.18 447.48,-1056.3"/>
</g>
<!-- Node0x5ff0a1e17a40&#45;&gt;Node0x5ff0a1f74190 -->
<g id="edge39" class="edge">
<title>Node0x5ff0a1e17a40&#45;&gt;Node0x5ff0a1f74190</title>
<path fill="none" stroke="#4a6fa5" d="M235.18,-1022.1C259.78,-1079.89 335.59,-1256.7 346,-1265 373.74,-1287.11 413.99,-1293.66 444.56,-1295.09"/>
<polygon fill="#4a6fa5" stroke="#4a6fa5" points="444.85,-1297.2 450.92,-1295.32 445,-1293 444.85,-1297.2"/>
</g>
<!-- Node0x5ff0a1e17a40&#45;&gt;Node0x5ff0a1e1ade0 -->
<g id="edge38" class="edge">
<title>Node0x5ff0a1e17a40&#45;&gt;Node0x5ff0a1e1ade0</title>
<path fill="none" stroke="#4a6fa5" d="M236.54,-1022.33C249.58,-1049.43 273.66,-1102.04 288,-1149 326.38,-1274.71 253.25,-1345.87 346,-1439 370.22,-1463.32 408.95,-1469.96 439.84,-1470.85"/>
<polygon fill="#4a6fa5" stroke="#4a6fa5" points="439.87,-1472.95 445.91,-1470.95 439.95,-1468.75 439.87,-1472.95"/>
</g>
<!-- Node0x5ff0a1e17a40&#45;&gt;Node0x5ff0a1f76d60 -->
<g id="edge43" class="edge">
<title>Node0x5ff0a1e17a40&#45;&gt;Node0x5ff0a1f76d60</title>
<path fill="none" stroke="#4a6fa5" d="M232.51,-1022.07C244.65,-1062.3 279.67,-1159.45 346,-1207 372.35,-1225.89 408.14,-1233.11 437.2,-1235.62"/>
<polygon fill="#4a6fa5" stroke="#4a6fa5" points="437.15,-1237.72 443.29,-1236.09 437.47,-1233.54 437.15,-1237.72"/>
</g>
<!-- Node0x5ff0a1f780a0 -->
<g id="node31" class="node">
<title>Node0x5ff0a1f780a0</title>
<path fill="#f0f4ff" stroke="black" d="M543.5,-732C543.5,-732 434.5,-732 434.5,-732 428.5,-732 422.5,-726 422.5,-720 422.5,-720 422.5,-708 422.5,-708 422.5,-702 428.5,-696 434.5,-696 434.5,-696 543.5,-696 543.5,-696 549.5,-696 555.5,-702 555.5,-708 555.5,-708 555.5,-720 555.5,-720 555.5,-726 549.5,-732 543.5,-732"/>
<text text-anchor="middle" x="489" y="-711.8" font-family="Courier,monospace" font-size="9.00">CIccTagCurve::GetSize()</text>
</g>
<!-- Node0x5ff0a1e17a40&#45;&gt;Node0x5ff0a1f780a0 -->
<g id="edge37" class="edge">
<title>Node0x5ff0a1e17a40&#45;&gt;Node0x5ff0a1f780a0</title>
<path fill="none" stroke="#4a6fa5" d="M276,-985.85C280.49,-982.75 284.61,-979.15 288,-975 355.19,-892.65 269.23,-816.5 346,-743 364.68,-725.12 391.24,-716.92 416.35,-713.51"/>
<polygon fill="#4a6fa5" stroke="#4a6fa5" points="416.65,-715.59 422.36,-712.78 416.15,-711.42 416.65,-715.59"/>
</g>
<!-- Node0x5ff0a1f78820 -->
<g id="node32" class="node">
<title>Node0x5ff0a1f78820</title>
<path fill="#f0f4ff" stroke="black" d="M583,-674C583,-674 395,-674 395,-674 389,-674 383,-668 383,-662 383,-662 383,-650 383,-650 383,-644 389,-638 395,-638 395,-638 583,-638 583,-638 589,-638 595,-644 595,-650 595,-650 595,-662 595,-662 595,-668 589,-674 583,-674"/>
<text text-anchor="middle" x="489" y="-653.8" font-family="Courier,monospace" font-size="9.00">CIccTagCurve::operator[](unsigned int)</text>
</g>
<!-- Node0x5ff0a1e17a40&#45;&gt;Node0x5ff0a1f78820 -->
<g id="edge41" class="edge">
<title>Node0x5ff0a1e17a40&#45;&gt;Node0x5ff0a1f78820</title>
<path fill="none" stroke="#4a6fa5" d="M276.49,-985.81C280.83,-982.72 284.78,-979.14 288,-975 368.65,-871.21 253.25,-778.13 346,-685 354.77,-676.19 365.45,-669.7 376.97,-664.97"/>
<polygon fill="#4a6fa5" stroke="#4a6fa5" points="377.83,-666.88 382.69,-662.78 376.33,-662.96 377.83,-666.88"/>
</g>
<!-- Node0x5ff0a1f78fa0 -->
<g id="node33" class="node">
<title>Node0x5ff0a1f78fa0</title>
<path fill="#f0f4ff" stroke="black" d="M575,-906C575,-906 403,-906 403,-906 397,-906 391,-900 391,-894 391,-894 391,-882 391,-882 391,-876 397,-870 403,-870 403,-870 575,-870 575,-870 581,-870 587,-876 587,-882 587,-882 587,-894 587,-894 587,-900 581,-906 575,-906"/>
<text text-anchor="middle" x="489" y="-885.8" font-family="Courier,monospace" font-size="9.00">CIccTagParametricCurve::GetParams()</text>
</g>
<!-- Node0x5ff0a1e17a40&#45;&gt;Node0x5ff0a1f78fa0 -->
<g id="edge42" class="edge">
<title>Node0x5ff0a1e17a40&#45;&gt;Node0x5ff0a1f78fa0</title>
<path fill="none" stroke="#4a6fa5" d="M269.88,-985.97C276.15,-982.65 282.39,-978.97 288,-975 317.75,-953.93 313.89,-934.27 346,-917 358.12,-910.48 371.54,-905.43 385.15,-901.5"/>
<polygon fill="#4a6fa5" stroke="#4a6fa5" points="385.77,-903.51 391,-899.89 384.66,-899.46 385.77,-903.51"/>
</g>
<!-- Node0x5ff0a1f79220 -->
<g id="node34" class="node">
<title>Node0x5ff0a1f79220</title>
<path fill="#f0f4ff" stroke="black" d="M580.5,-848C580.5,-848 397.5,-848 397.5,-848 391.5,-848 385.5,-842 385.5,-836 385.5,-836 385.5,-824 385.5,-824 385.5,-818 391.5,-812 397.5,-812 397.5,-812 580.5,-812 580.5,-812 586.5,-812 592.5,-818 592.5,-824 592.5,-824 592.5,-836 592.5,-836 592.5,-842 586.5,-848 580.5,-848"/>
<text text-anchor="middle" x="489" y="-827.8" font-family="Courier,monospace" font-size="9.00">CIccTagParametricCurve::GetNumParam()</text>
</g>
<!-- Node0x5ff0a1e17a40&#45;&gt;Node0x5ff0a1f79220 -->
<g id="edge44" class="edge">
<title>Node0x5ff0a1e17a40&#45;&gt;Node0x5ff0a1f79220</title>
<path fill="none" stroke="#4a6fa5" d="M273.91,-985.82C279.01,-982.68 283.85,-979.08 288,-975 329.1,-934.58 300.26,-894.08 346,-859 355.95,-851.37 367.41,-845.61 379.41,-841.28"/>
<polygon fill="#4a6fa5" stroke="#4a6fa5" points="380.34,-843.18 385.35,-839.27 378.99,-839.21 380.34,-843.18"/>
</g>
<!-- Node0x5ff0a1f796c0 -->
<g id="node35" class="node">
<title>Node0x5ff0a1f796c0</title>
<path fill="#f0f4ff" stroke="black" d="M591,-790C591,-790 387,-790 387,-790 381,-790 375,-784 375,-778 375,-778 375,-766 375,-766 375,-760 381,-754 387,-754 387,-754 591,-754 591,-754 597,-754 603,-760 603,-766 603,-766 603,-778 603,-778 603,-784 597,-790 591,-790"/>
<text text-anchor="middle" x="489" y="-769.8" font-family="Courier,monospace" font-size="9.00">CIccTagParametricCurve::GetFunctionType()</text>
</g>
<!-- Node0x5ff0a1e17a40&#45;&gt;Node0x5ff0a1f796c0 -->
<g id="edge45" class="edge">
<title>Node0x5ff0a1e17a40&#45;&gt;Node0x5ff0a1f796c0</title>
<path fill="none" stroke="#4a6fa5" d="M275.09,-985.98C279.86,-982.83 284.3,-979.19 288,-975 341.92,-913.87 285,-855.07 346,-801 352.88,-794.9 360.7,-789.95 369.04,-785.94"/>
<polygon fill="#4a6fa5" stroke="#4a6fa5" points="370.27,-787.69 374.89,-783.32 368.55,-783.86 370.27,-787.69"/>
</g>
<!-- Node0x5ff0a1e167e0&#45;&gt;Node0x5ff0a1e16010 -->
<g id="edge62" class="edge">
<title>Node0x5ff0a1e167e0&#45;&gt;Node0x5ff0a1e16010</title>
<path fill="none" stroke="#4a6fa5" d="M228.39,-384.03C233.27,-475.58 259.86,-888.06 346,-975 364.85,-994.03 392.59,-1002.25 418.55,-1005.35"/>
<polygon fill="#4a6fa5" stroke="#4a6fa5" points="418.57,-1007.47 424.76,-1006.01 419.01,-1003.29 418.57,-1007.47"/>
</g>
<!-- Node0x5ff0a1e167e0&#45;&gt;Node0x5ff0a1f71ac0 -->
<g id="edge63" class="edge">
<title>Node0x5ff0a1e167e0&#45;&gt;Node0x5ff0a1f71ac0</title>
<path fill="none" stroke="#4a6fa5" d="M228.78,-384.01C235.3,-470.16 267.5,-839.31 346,-917 370.31,-941.06 408.84,-947.75 439.64,-948.72"/>
<polygon fill="#4a6fa5" stroke="#4a6fa5" points="439.65,-950.82 445.69,-948.85 439.73,-946.62 439.65,-950.82"/>
</g>
<!-- Node0x5ff0a1e167e0&#45;&gt;Node0x5ff0a1f72fe0 -->
<g id="edge66" class="edge">
<title>Node0x5ff0a1e167e0&#45;&gt;Node0x5ff0a1f72fe0</title>
<path fill="none" stroke="#4a6fa5" d="M228.06,-384.11C231.44,-480.93 252.21,-936.78 346,-1033 372.01,-1059.69 415.46,-1065.2 447.46,-1065.11"/>
<polygon fill="#4a6fa5" stroke="#4a6fa5" points="447.73,-1067.21 453.7,-1065.02 447.67,-1063.01 447.73,-1067.21"/>
</g>
<!-- Node0x5ff0a1e167e0&#45;&gt;Node0x5ff0a1f74190 -->
<g id="edge65" class="edge">
<title>Node0x5ff0a1e167e0&#45;&gt;Node0x5ff0a1f74190</title>
<path fill="none" stroke="#4a6fa5" d="M229.58,-384C244.11,-509.41 330.29,-1248.14 346,-1265 370.77,-1291.58 412.76,-1297.4 444.68,-1297.43"/>
<polygon fill="#4a6fa5" stroke="#4a6fa5" points="444.94,-1299.52 450.92,-1297.36 444.89,-1295.32 444.94,-1299.52"/>
</g>
<!-- Node0x5ff0a1f7bb00 -->
<g id="node41" class="node">
<title>Node0x5ff0a1f7bb00</title>
<path fill="#f0f4ff" stroke="black" d="M509.5,-268C509.5,-268 468.5,-268 468.5,-268 462.5,-268 456.5,-262 456.5,-256 456.5,-256 456.5,-244 456.5,-244 456.5,-238 462.5,-232 468.5,-232 468.5,-232 509.5,-232 509.5,-232 515.5,-232 521.5,-238 521.5,-244 521.5,-244 521.5,-256 521.5,-256 521.5,-262 515.5,-268 509.5,-268"/>
<text text-anchor="middle" x="489" y="-247.8" font-family="Courier,monospace" font-size="9.00">icF16toF()</text>
</g>
<!-- Node0x5ff0a1e167e0&#45;&gt;Node0x5ff0a1f7bb00 -->
<g id="edge64" class="edge">
<title>Node0x5ff0a1e167e0&#45;&gt;Node0x5ff0a1f7bb00</title>
<path fill="none" stroke="#4a6fa5" d="M246.78,-347.67C268.94,-327.66 307.27,-296.17 346,-279 379.5,-264.15 420.84,-256.81 450.26,-253.24"/>
<polygon fill="#4a6fa5" stroke="#4a6fa5" points="450.63,-255.31 456.35,-252.53 450.15,-251.14 450.63,-255.31"/>
</g>
<!-- Node0x5ff0a1f7cd00 -->
<g id="node42" class="node">
<title>Node0x5ff0a1f7cd00</title>
<path fill="#f0f4ff" stroke="black" d="M538.5,-210C538.5,-210 439.5,-210 439.5,-210 433.5,-210 427.5,-204 427.5,-198 427.5,-198 427.5,-186 427.5,-186 427.5,-180 433.5,-174 439.5,-174 439.5,-174 538.5,-174 538.5,-174 544.5,-174 550.5,-180 550.5,-186 550.5,-186 550.5,-198 550.5,-198 550.5,-204 544.5,-210 538.5,-210"/>
<text text-anchor="middle" x="489" y="-189.8" font-family="Courier,monospace" font-size="9.00">CIccInfo::~CIccInfo()</text>
</g>
<!-- Node0x5ff0a1e167e0&#45;&gt;Node0x5ff0a1f7cd00 -->
<g id="edge67" class="edge">
<title>Node0x5ff0a1e167e0&#45;&gt;Node0x5ff0a1f7cd00</title>
<path fill="none" stroke="#4a6fa5" d="M236.8,-347.93C253.88,-316.67 293.41,-252.78 346,-221 368.53,-207.39 396.36,-200.06 421.39,-196.15"/>
<polygon fill="#4a6fa5" stroke="#4a6fa5" points="421.72,-198.22 427.36,-195.27 421.11,-194.07 421.72,-198.22"/>
</g>
<!-- Node0x5ff0a1f7c000 -->
<g id="node43" class="node">
<title>Node0x5ff0a1f7c000</title>
<path fill="#f0f4ff" stroke="black" d="M620,-152C620,-152 358,-152 358,-152 352,-152 346,-146 346,-140 346,-140 346,-128 346,-128 346,-122 352,-116 358,-116 358,-116 620,-116 620,-116 626,-116 632,-122 632,-128 632,-128 632,-140 632,-140 632,-146 626,-152 620,-152"/>
<text text-anchor="middle" x="489" y="-131.8" font-family="Courier,monospace" font-size="9.00">CIccTagSpectralViewingConditions::getIlluminantCCT()</text>
</g>
<!-- Node0x5ff0a1e167e0&#45;&gt;Node0x5ff0a1f7c000 -->
<g id="edge68" class="edge">
<title>Node0x5ff0a1e167e0&#45;&gt;Node0x5ff0a1f7c000</title>
<path fill="none" stroke="#4a6fa5" d="M232.51,-347.93C244.65,-307.7 279.67,-210.55 346,-163 350.19,-160 354.62,-157.29 359.22,-154.85"/>
<polygon fill="#4a6fa5" stroke="#4a6fa5" points="360.27,-156.67 364.7,-152.1 358.39,-152.91 360.27,-156.67"/>
</g>
<!-- Node0x5ff0a1f7c800 -->
<g id="node44" class="node">
<title>Node0x5ff0a1f7c800</title>
<path fill="#f0f4ff" stroke="black" d="M559.5,-94C559.5,-94 418.5,-94 418.5,-94 412.5,-94 406.5,-88 406.5,-82 406.5,-82 406.5,-70 406.5,-70 406.5,-64 412.5,-58 418.5,-58 418.5,-58 559.5,-58 559.5,-58 565.5,-58 571.5,-64 571.5,-70 571.5,-70 571.5,-82 571.5,-82 571.5,-88 565.5,-94 559.5,-94"/>
<text text-anchor="middle" x="489" y="-73.8" font-family="Courier,monospace" font-size="9.00">CIccInfo::GetIlluminantName()</text>
</g>
<!-- Node0x5ff0a1e167e0&#45;&gt;Node0x5ff0a1f7c800 -->
<g id="edge69" class="edge">
<title>Node0x5ff0a1e167e0&#45;&gt;Node0x5ff0a1f7c800</title>
<path fill="none" stroke="#4a6fa5" d="M230.07,-347.68C237.82,-299.6 265.65,-169.06 346,-105 361.51,-92.63 380.94,-85.13 400.4,-80.68"/>
<polygon fill="#4a6fa5" stroke="#4a6fa5" points="401,-82.69 406.43,-79.39 400.13,-78.59 401,-82.69"/>
</g>
<!-- Node0x5ff0a1f7ca80 -->
<g id="node45" class="node">
<title>Node0x5ff0a1f7ca80</title>
<path fill="#f0f4ff" stroke="black" d="M617,-36C617,-36 361,-36 361,-36 355,-36 349,-30 349,-24 349,-24 349,-12 349,-12 349,-6 355,0 361,0 361,0 617,0 617,0 623,0 629,-6 629,-12 629,-12 629,-24 629,-24 629,-30 623,-36 617,-36"/>
<text text-anchor="middle" x="489" y="-15.8" font-family="Courier,monospace" font-size="9.00">CIccTagSpectralViewingConditions::getStdIllumiant()</text>
</g>
<!-- Node0x5ff0a1e167e0&#45;&gt;Node0x5ff0a1f7ca80 -->
<g id="edge70" class="edge">
<title>Node0x5ff0a1e167e0&#45;&gt;Node0x5ff0a1f7ca80</title>
<path fill="none" stroke="#4a6fa5" d="M228.39,-347.8C232.12,-293 251.1,-128.29 346,-47 349.35,-44.13 352.91,-41.52 356.63,-39.14"/>
<polygon fill="#4a6fa5" stroke="#4a6fa5" points="357.73,-40.93 361.8,-36.04 355.57,-37.33 357.73,-40.93"/>
</g>
<!-- Node0x5ff0a1f7bd80 -->
<g id="node46" class="node">
<title>Node0x5ff0a1f7bd80</title>
<path fill="#f0f4ff" stroke="black" d="M575,-442C575,-442 403,-442 403,-442 397,-442 391,-436 391,-430 391,-430 391,-418 391,-418 391,-412 397,-406 403,-406 403,-406 575,-406 575,-406 581,-406 587,-412 587,-418 587,-418 587,-430 587,-430 587,-436 581,-442 575,-442"/>
<text text-anchor="middle" x="489" y="-421.8" font-family="Courier,monospace" font-size="9.00">CIccInfo::GetStandardObserverName()</text>
</g>
<!-- Node0x5ff0a1e167e0&#45;&gt;Node0x5ff0a1f7bd80 -->
<g id="edge71" class="edge">
<title>Node0x5ff0a1e167e0&#45;&gt;Node0x5ff0a1f7bd80</title>
<path fill="none" stroke="#4a6fa5" d="M288.29,-381.35C306.78,-385.9 327.19,-390.78 346,-395 360.52,-398.26 375.91,-401.56 391,-404.71"/>
<polygon fill="#4a6fa5" stroke="#4a6fa5" points="390.68,-406.79 396.99,-405.95 391.54,-402.68 390.68,-406.79"/>
</g>
<!-- Node0x5ff0a1f7b880 -->
<g id="node47" class="node">
<title>Node0x5ff0a1f7b880</title>
<path fill="#f0f4ff" stroke="black" d="M536,-384C536,-384 442,-384 442,-384 436,-384 430,-378 430,-372 430,-372 430,-360 430,-360 430,-354 436,-348 442,-348 442,-348 536,-348 536,-348 542,-348 548,-354 548,-360 548,-360 548,-372 548,-372 548,-378 542,-384 536,-384"/>
<text text-anchor="middle" x="489" y="-363.8" font-family="Courier,monospace" font-size="9.00">CIccInfo::CIccInfo()</text>
</g>
<!-- Node0x5ff0a1e167e0&#45;&gt;Node0x5ff0a1f7b880 -->
<g id="edge72" class="edge">
<title>Node0x5ff0a1e167e0&#45;&gt;Node0x5ff0a1f7b880</title>
<path fill="none" stroke="#4a6fa5" d="M288.25,-366C328.94,-366 382.44,-366 423.83,-366"/>
<polygon fill="#4a6fa5" stroke="#4a6fa5" points="423.85,-368.1 429.85,-366 423.85,-363.9 423.85,-368.1"/>
</g>
<!-- Node0x5ff0a1f7ae80 -->
<g id="node48" class="node">
<title>Node0x5ff0a1f7ae80</title>
<path fill="#f0f4ff" stroke="black" d="M614.5,-326C614.5,-326 363.5,-326 363.5,-326 357.5,-326 351.5,-320 351.5,-314 351.5,-314 351.5,-302 351.5,-302 351.5,-296 357.5,-290 363.5,-290 363.5,-290 614.5,-290 614.5,-290 620.5,-290 626.5,-296 626.5,-302 626.5,-302 626.5,-314 626.5,-314 626.5,-320 620.5,-326 614.5,-326"/>
<text text-anchor="middle" x="489" y="-305.8" font-family="Courier,monospace" font-size="9.00">CIccTagSpectralViewingConditions::getStdObserver()</text>
</g>
<!-- Node0x5ff0a1e167e0&#45;&gt;Node0x5ff0a1f7ae80 -->
<g id="edge73" class="edge">
<title>Node0x5ff0a1e167e0&#45;&gt;Node0x5ff0a1f7ae80</title>
<path fill="none" stroke="#4a6fa5" d="M288.29,-350.65C306.78,-346.1 327.19,-341.22 346,-337 360.52,-333.74 375.91,-330.44 391,-327.29"/>
<polygon fill="#4a6fa5" stroke="#4a6fa5" points="391.54,-329.32 396.99,-326.05 390.68,-325.21 391.54,-329.32"/>
</g>
<!-- Node0x5ff0a1e16d30&#45;&gt;Node0x5ff0a1e16010 -->
<g id="edge46" class="edge">
<title>Node0x5ff0a1e16d30&#45;&gt;Node0x5ff0a1e16010</title>
<path fill="none" stroke="#4a6fa5" d="M236.8,-1159.93C253.88,-1128.67 293.41,-1064.78 346,-1033 367.74,-1019.86 394.41,-1012.58 418.75,-1008.57"/>
<polygon fill="#4a6fa5" stroke="#4a6fa5" points="419.27,-1010.62 424.88,-1007.62 418.63,-1006.47 419.27,-1010.62"/>
</g>
<!-- Node0x5ff0a1e16d30&#45;&gt;Node0x5ff0a1f71ac0 -->
<g id="edge50" class="edge">
<title>Node0x5ff0a1e16d30&#45;&gt;Node0x5ff0a1f71ac0</title>
<path fill="none" stroke="#4a6fa5" d="M232.51,-1159.93C244.65,-1119.7 279.67,-1022.55 346,-975 373.11,-955.57 410.22,-948.48 439.71,-946.17"/>
<polygon fill="#4a6fa5" stroke="#4a6fa5" points="440.04,-948.25 445.88,-945.75 439.75,-944.06 440.04,-948.25"/>
</g>
<!-- Node0x5ff0a1e16d30&#45;&gt;Node0x5ff0a1f72fe0 -->
<g id="edge47" class="edge">
<title>Node0x5ff0a1e16d30&#45;&gt;Node0x5ff0a1f72fe0</title>
<path fill="none" stroke="#4a6fa5" d="M246.78,-1159.67C268.94,-1139.66 307.27,-1108.17 346,-1091 378.53,-1076.57 418.46,-1069.24 447.69,-1065.56"/>
<polygon fill="#4a6fa5" stroke="#4a6fa5" points="448.05,-1067.63 453.75,-1064.83 447.54,-1063.46 448.05,-1067.63"/>
</g>
<!-- Node0x5ff0a1e16d30&#45;&gt;Node0x5ff0a1f74190 -->
<g id="edge48" class="edge">
<title>Node0x5ff0a1e16d30&#45;&gt;Node0x5ff0a1f74190</title>
<path fill="none" stroke="#4a6fa5" d="M246.78,-1196.33C268.94,-1216.34 307.27,-1247.83 346,-1265 377.46,-1278.95 415.84,-1286.27 444.76,-1290.07"/>
<polygon fill="#4a6fa5" stroke="#4a6fa5" points="444.57,-1292.16 450.78,-1290.82 445.09,-1287.99 444.57,-1292.16"/>
</g>
<!-- Node0x5ff0a1e16d30&#45;&gt;Node0x5ff0a1e1ade0 -->
<g id="edge49" class="edge">
<title>Node0x5ff0a1e16d30&#45;&gt;Node0x5ff0a1e1ade0</title>
<path fill="none" stroke="#4a6fa5" d="M251.74,-1196.03C264.2,-1206.46 278.69,-1220.55 288,-1236 336.44,-1316.37 277.15,-1375.25 346,-1439 370.91,-1462.06 409,-1468.87 439.46,-1470.15"/>
<polygon fill="#4a6fa5" stroke="#4a6fa5" points="439.77,-1472.26 445.84,-1470.35 439.9,-1468.07 439.77,-1472.26"/>
</g>
<!-- Node0x5ff0a1e16d30&#45;&gt;Node0x5ff0a1f76d60 -->
<g id="edge51" class="edge">
<title>Node0x5ff0a1e16d30&#45;&gt;Node0x5ff0a1f76d60</title>
<path fill="none" stroke="#4a6fa5" d="M285.56,-1192.68C304.76,-1197.41 326.26,-1202.57 346,-1207 376.24,-1213.79 410.26,-1220.76 437.42,-1226.16"/>
<polygon fill="#4a6fa5" stroke="#4a6fa5" points="437.16,-1228.25 443.45,-1227.36 437.98,-1224.13 437.16,-1228.25"/>
</g>
<!-- Node0x5ff0a1f7a0c0 -->
<g id="node36" class="node">
<title>Node0x5ff0a1f7a0c0</title>
<path fill="#f0f4ff" stroke="black" d="M580.5,-1196C580.5,-1196 397.5,-1196 397.5,-1196 391.5,-1196 385.5,-1190 385.5,-1184 385.5,-1184 385.5,-1172 385.5,-1172 385.5,-1166 391.5,-1160 397.5,-1160 397.5,-1160 580.5,-1160 580.5,-1160 586.5,-1160 592.5,-1166 592.5,-1172 592.5,-1172 592.5,-1184 592.5,-1184 592.5,-1190 586.5,-1196 580.5,-1196"/>
<text text-anchor="middle" x="489" y="-1175.8" font-family="Courier,monospace" font-size="9.00">CIccTagNamedColor2::GetDeviceCoords()</text>
</g>
<!-- Node0x5ff0a1e16d30&#45;&gt;Node0x5ff0a1f7a0c0 -->
<g id="edge52" class="edge">
<title>Node0x5ff0a1e16d30&#45;&gt;Node0x5ff0a1f7a0c0</title>
<path fill="none" stroke="#4a6fa5" d="M285.64,-1178C313.19,-1178 347.03,-1178 379.1,-1178"/>
<polygon fill="#4a6fa5" stroke="#4a6fa5" points="379.48,-1180.1 385.48,-1178 379.48,-1175.9 379.48,-1180.1"/>
</g>
<!-- Node0x5ff0a1f79940 -->
<g id="node37" class="node">
<title>Node0x5ff0a1f79940</title>
<path fill="#f0f4ff" stroke="black" d="M559.5,-1138C559.5,-1138 418.5,-1138 418.5,-1138 412.5,-1138 406.5,-1132 406.5,-1126 406.5,-1126 406.5,-1114 406.5,-1114 406.5,-1108 412.5,-1102 418.5,-1102 418.5,-1102 559.5,-1102 559.5,-1102 565.5,-1102 571.5,-1108 571.5,-1114 571.5,-1114 571.5,-1126 571.5,-1126 571.5,-1132 565.5,-1138 559.5,-1138"/>
<text text-anchor="middle" x="489" y="-1117.8" font-family="Courier,monospace" font-size="9.00">CIccTagNamedColor2::GetSize()</text>
</g>
<!-- Node0x5ff0a1e16d30&#45;&gt;Node0x5ff0a1f79940 -->
<g id="edge53" class="edge">
<title>Node0x5ff0a1e16d30&#45;&gt;Node0x5ff0a1f79940</title>
<path fill="none" stroke="#4a6fa5" d="M285.56,-1163.32C304.76,-1158.59 326.26,-1153.43 346,-1149 363.54,-1145.07 382.34,-1141.07 400.34,-1137.35"/>
<polygon fill="#4a6fa5" stroke="#4a6fa5" points="400.96,-1139.37 406.41,-1136.1 400.11,-1135.25 400.96,-1139.37"/>
</g>
<!-- Node0x5ff0a1f16bb0&#45;&gt;Node0x5ff0a1e16010 -->
<g id="edge54" class="edge">
<title>Node0x5ff0a1f16bb0&#45;&gt;Node0x5ff0a1e16010</title>
<path fill="none" stroke="#4a6fa5" d="M275.26,-958.13C296.82,-963.5 322.65,-969.76 346,-975 369.66,-980.31 395.64,-985.73 418.83,-990.43"/>
<polygon fill="#4a6fa5" stroke="#4a6fa5" points="418.68,-992.54 424.98,-991.67 419.51,-988.43 418.68,-992.54"/>
</g>
<!-- Node0x5ff0a1f16bb0&#45;&gt;Node0x5ff0a1f71ac0 -->
<g id="edge55" class="edge">
<title>Node0x5ff0a1f16bb0&#45;&gt;Node0x5ff0a1f71ac0</title>
<path fill="none" stroke="#4a6fa5" d="M275.28,-946C321.95,-946 392.62,-946 439.52,-946"/>
<polygon fill="#4a6fa5" stroke="#4a6fa5" points="439.69,-948.1 445.69,-946 439.69,-943.9 439.69,-948.1"/>
</g>
<!-- Node0x5ff0a1f16bb0&#45;&gt;Node0x5ff0a1f72fe0 -->
<g id="edge60" class="edge">
<title>Node0x5ff0a1f16bb0&#45;&gt;Node0x5ff0a1f72fe0</title>
<path fill="none" stroke="#4a6fa5" d="M269.88,-964.03C276.15,-967.35 282.39,-971.03 288,-975 317.75,-996.07 313.89,-1015.73 346,-1033 377.55,-1049.97 417.93,-1057.03 447.56,-1059.96"/>
<polygon fill="#4a6fa5" stroke="#4a6fa5" points="447.54,-1062.07 453.71,-1060.52 447.92,-1057.89 447.54,-1062.07"/>
</g>
<!-- Node0x5ff0a1f16bb0&#45;&gt;Node0x5ff0a1f74190 -->
<g id="edge59" class="edge">
<title>Node0x5ff0a1f16bb0&#45;&gt;Node0x5ff0a1f74190</title>
<path fill="none" stroke="#4a6fa5" d="M275.04,-963.18C279.94,-966.49 284.43,-970.4 288,-975 368.65,-1078.79 253.25,-1171.87 346,-1265 371.47,-1290.57 412.98,-1296.59 444.55,-1296.94"/>
<polygon fill="#4a6fa5" stroke="#4a6fa5" points="444.73,-1299.04 450.73,-1296.94 444.73,-1294.84 444.73,-1299.04"/>
</g>
<!-- Node0x5ff0a1f16bb0&#45;&gt;Node0x5ff0a1f76d60 -->
<g id="edge61" class="edge">
<title>Node0x5ff0a1f16bb0&#45;&gt;Node0x5ff0a1f76d60</title>
<path fill="none" stroke="#4a6fa5" d="M275.12,-963.55C279.95,-966.79 284.39,-970.58 288,-975 355.19,-1057.35 269.23,-1133.5 346,-1207 369.92,-1229.91 406.79,-1236.92 436.96,-1238.33"/>
<polygon fill="#4a6fa5" stroke="#4a6fa5" points="437.22,-1240.44 443.29,-1238.55 437.37,-1236.25 437.22,-1240.44"/>
</g>
<!-- Node0x5ff0a1f79e40 -->
<g id="node38" class="node">
<title>Node0x5ff0a1f79e40</title>
<path fill="#f0f4ff" stroke="black" d="M538.5,-616C538.5,-616 439.5,-616 439.5,-616 433.5,-616 427.5,-610 427.5,-604 427.5,-604 427.5,-592 427.5,-592 427.5,-586 433.5,-580 439.5,-580 439.5,-580 538.5,-580 538.5,-580 544.5,-580 550.5,-586 550.5,-592 550.5,-592 550.5,-604 550.5,-604 550.5,-610 544.5,-616 538.5,-616"/>
<text text-anchor="middle" x="489" y="-595.8" font-family="Courier,monospace" font-size="9.00">CIccTagXYZ::GetSize()</text>
</g>
<!-- Node0x5ff0a1f16bb0&#45;&gt;Node0x5ff0a1f79e40 -->
<g id="edge56" class="edge">
<title>Node0x5ff0a1f16bb0&#45;&gt;Node0x5ff0a1f79e40</title>
<path fill="none" stroke="#4a6fa5" d="M228.39,-927.8C232.12,-873 251.1,-708.29 346,-627 366.61,-609.35 395.06,-601.42 421.08,-598.16"/>
<polygon fill="#4a6fa5" stroke="#4a6fa5" points="421.56,-600.22 427.29,-597.46 421.09,-596.04 421.56,-600.22"/>
</g>
<!-- Node0x5ff0a1f79bc0 -->
<g id="node39" class="node">
<title>Node0x5ff0a1f79bc0</title>
<path fill="#f0f4ff" stroke="black" d="M593.5,-558C593.5,-558 384.5,-558 384.5,-558 378.5,-558 372.5,-552 372.5,-546 372.5,-546 372.5,-534 372.5,-534 372.5,-528 378.5,-522 384.5,-522 384.5,-522 593.5,-522 593.5,-522 599.5,-522 605.5,-528 605.5,-534 605.5,-534 605.5,-546 605.5,-546 605.5,-552 599.5,-558 593.5,-558"/>
<text text-anchor="middle" x="489" y="-537.8" font-family="Courier,monospace" font-size="9.00">CIccTagXYZ::operator[](unsigned int) const</text>
</g>
<!-- Node0x5ff0a1f16bb0&#45;&gt;Node0x5ff0a1f79bc0 -->
<g id="edge57" class="edge">
<title>Node0x5ff0a1f16bb0&#45;&gt;Node0x5ff0a1f79bc0</title>
<path fill="none" stroke="#4a6fa5" d="M227.22,-927.69C227.33,-866.56 236.46,-667.79 346,-569 352.18,-563.43 359.13,-558.81 366.55,-554.99"/>
<polygon fill="#4a6fa5" stroke="#4a6fa5" points="367.82,-556.72 372.32,-552.23 366,-552.93 367.82,-556.72"/>
</g>
<!-- Node0x5ff0a1f7a340 -->
<g id="node40" class="node">
<title>Node0x5ff0a1f7a340</title>
<path fill="#f0f4ff" stroke="black" d="M504.5,-500C504.5,-500 473.5,-500 473.5,-500 467.5,-500 461.5,-494 461.5,-488 461.5,-488 461.5,-476 461.5,-476 461.5,-470 467.5,-464 473.5,-464 473.5,-464 504.5,-464 504.5,-464 510.5,-464 516.5,-470 516.5,-476 516.5,-476 516.5,-488 516.5,-488 516.5,-494 510.5,-500 504.5,-500"/>
<text text-anchor="middle" x="489" y="-479.8" font-family="Courier,monospace" font-size="9.00">icFtoD()</text>
</g>
<!-- Node0x5ff0a1f16bb0&#45;&gt;Node0x5ff0a1f7a340 -->
<g id="edge58" class="edge">
<title>Node0x5ff0a1f16bb0&#45;&gt;Node0x5ff0a1f7a340</title>
<path fill="none" stroke="#4a6fa5" d="M229.9,-927.91C240.15,-853.27 282.69,-570.36 346,-511 375.26,-483.57 423.12,-479.06 455.09,-479.55"/>
<polygon fill="#4a6fa5" stroke="#4a6fa5" points="455.2,-481.66 461.26,-479.71 455.31,-477.46 455.2,-481.66"/>
</g>
<!-- Node0x5ff0a1f7fb40 -->
<g id="node51" class="node">
<title>Node0x5ff0a1f7fb40</title>
<path fill="#f0f4ff" stroke="black" d="M743,-1312C743,-1312 702,-1312 702,-1312 696,-1312 690,-1306 690,-1300 690,-1300 690,-1288 690,-1288 690,-1282 696,-1276 702,-1276 702,-1276 743,-1276 743,-1276 749,-1276 755,-1282 755,-1288 755,-1288 755,-1300 755,-1300 755,-1306 749,-1312 743,-1312"/>
<text text-anchor="middle" x="722.5" y="-1291.8" font-family="Courier,monospace" font-size="9.00">GetColor()</text>
</g>
<!-- Node0x5ff0a1f72fe0&#45;&gt;Node0x5ff0a1f7fb40 -->
<g id="edge83" class="edge">
<title>Node0x5ff0a1f72fe0&#45;&gt;Node0x5ff0a1f7fb40</title>
<path fill="none" stroke="#4a6fa5" d="M524.09,-1060.54C555.4,-1060.98 601.44,-1066.36 632,-1091 689.02,-1136.97 710.71,-1226.64 718.1,-1269.74"/>
<polygon fill="#4a6fa5" stroke="#4a6fa5" points="716.04,-1270.17 719.09,-1275.75 720.19,-1269.49 716.04,-1270.17"/>
</g>
<!-- Node0x5ff0a1f74190&#45;&gt;Node0x5ff0a1f7fb40 -->
<g id="edge84" class="edge">
<title>Node0x5ff0a1f74190&#45;&gt;Node0x5ff0a1f7fb40</title>
<path fill="none" stroke="#4a6fa5" d="M527.19,-1294C570.2,-1294 640.59,-1294 683.8,-1294"/>
<polygon fill="#4a6fa5" stroke="#4a6fa5" points="683.98,-1296.1 689.98,-1294 683.98,-1291.9 683.98,-1296.1"/>
</g>
<!-- Node0x5ff0a1e1ade0&#45;&gt;Node0x5ff0a1f7fb40 -->
<g id="edge85" class="edge">
<title>Node0x5ff0a1e1ade0&#45;&gt;Node0x5ff0a1f7fb40</title>
<path fill="none" stroke="#4a6fa5" d="M532.29,-1468.02C562.51,-1466.1 602.81,-1459.39 632,-1439 675.15,-1408.86 701.56,-1350.57 713.65,-1317.82"/>
<polygon fill="#4a6fa5" stroke="#4a6fa5" points="715.68,-1318.38 715.74,-1312.02 711.73,-1316.95 715.68,-1318.38"/>
</g>
<!-- Node0x5ff0a1f76d60&#45;&gt;Node0x5ff0a1f7fb40 -->
<g id="edge86" class="edge">
<title>Node0x5ff0a1f76d60&#45;&gt;Node0x5ff0a1f7fb40</title>
<path fill="none" stroke="#4a6fa5" d="M534.75,-1243.81C562.85,-1249.04 599.76,-1256.51 632,-1265 649.3,-1269.55 668.19,-1275.52 684.13,-1280.86"/>
<polygon fill="#4a6fa5" stroke="#4a6fa5" points="683.5,-1282.86 689.86,-1282.79 684.85,-1278.88 683.5,-1282.86"/>
</g>
<!-- Node0x5ff0a1f7d700&#45;&gt;Node0x5ff0a1f7fb40 -->
<g id="edge87" class="edge">
<title>Node0x5ff0a1f7d700&#45;&gt;Node0x5ff0a1f7fb40</title>
<path fill="none" stroke="#4a6fa5" d="M532.18,-1407.64C561.59,-1404.54 600.97,-1397.41 632,-1381 661.49,-1365.41 687.88,-1337.1 704.23,-1317.02"/>
<polygon fill="#4a6fa5" stroke="#4a6fa5" points="706.06,-1318.1 708.17,-1312.1 702.78,-1315.47 706.06,-1318.1"/>
</g>
</g>
</svg>
