<?xml version="1.0" encoding="UTF-8" standalone="no"?>
<!DOCTYPE svg PUBLIC "-//W3C//DTD SVG 1.1//EN"
 "http://www.w3.org/Graphics/SVG/1.1/DTD/svg11.dtd">
<!-- Generated by graphviz version 2.43.0 (0)
 -->
<!-- Title: Call graph: /home/h02332/po/research/call&#45;graph/analyzer/IccAnalyzerErrors.ll Pages: 1 -->
<svg width="9360pt" height="14400pt"
 viewBox="0.00 0.00 9360.00 14400.00" xmlns="http://www.w3.org/2000/svg" xmlns:xlink="http://www.w3.org/1999/xlink">
<g id="graph0" class="graph" transform="scale(21.82 21.82) rotate(0) translate(36 624)">
<title>Call graph: /home/h02332/po/research/call&#45;graph/analyzer/IccAnalyzerErrors.ll</title>
<polygon fill="white" stroke="transparent" points="-36,36 -36,-624 393,-624 393,36 -36,36"/>
<!-- Node0x57dbc26e9c30 -->
<g id="node1" class="node">
<title>Node0x57dbc26e9c30</title>
<path fill="#f0f4ff" stroke="black" d="M139,-361C139,-361 12,-361 12,-361 6,-361 0,-355 0,-349 0,-349 0,-337 0,-337 0,-331 6,-325 12,-325 12,-325 139,-325 139,-325 145,-325 151,-331 151,-337 151,-337 151,-349 151,-349 151,-355 145,-361 139,-361"/>
<text text-anchor="middle" x="75.5" y="-340.8" font-family="Courier,monospace" font-size="9.00">{ErrorOutputDirRequired()}</text>
</g>
<!-- Node0x57dbc26e8f30 -->
<g id="node2" class="node">
<title>Node0x57dbc26e8f30</title>
<path fill="#f0f4ff" stroke="black" d="M316,-296C316,-296 278,-296 278,-296 272,-296 266,-290 266,-284 266,-284 266,-272 266,-272 266,-266 272,-260 278,-260 278,-260 316,-260 316,-260 322,-260 328,-266 328,-272 328,-272 328,-284 328,-284 328,-290 322,-296 316,-296"/>
<text text-anchor="middle" x="297" y="-275.8" font-family="Courier,monospace" font-size="9.00">{fprintf}</text>
</g>
<!-- Node0x57dbc26e9c30&#45;&gt;Node0x57dbc26e8f30 -->
<g id="edge1" class="edge">
<title>Node0x57dbc26e9c30&#45;&gt;Node0x57dbc26e8f30</title>
<path fill="none" stroke="#4a6fa5" d="M137.35,-324.98C176.44,-313.41 225.93,-298.75 259.15,-288.91"/>
<polygon fill="#4a6fa5" stroke="#4a6fa5" points="259.97,-291.23 265.98,-286.89 258.58,-286.53 259.97,-291.23"/>
</g>
<!-- Node0x57dbc2699320 -->
<g id="node3" class="node">
<title>Node0x57dbc2699320</title>
<path fill="#f0f4ff" stroke="black" d="M128.5,-296C128.5,-296 22.5,-296 22.5,-296 16.5,-296 10.5,-290 10.5,-284 10.5,-284 10.5,-272 10.5,-272 10.5,-266 16.5,-260 22.5,-260 22.5,-260 128.5,-260 128.5,-260 134.5,-260 140.5,-266 140.5,-272 140.5,-272 140.5,-284 140.5,-284 140.5,-290 134.5,-296 128.5,-296"/>
<text text-anchor="middle" x="75.5" y="-275.8" font-family="Courier,monospace" font-size="9.00">{ErrorInvalidFormat()}</text>
</g>
<!-- Node0x57dbc2699320&#45;&gt;Node0x57dbc26e8f30 -->
<g id="edge2" class="edge">
<title>Node0x57dbc2699320&#45;&gt;Node0x57dbc26e8f30</title>
<path fill="none" stroke="#4a6fa5" d="M140.58,-278C179.05,-278 226.63,-278 258.94,-278"/>
<polygon fill="#4a6fa5" stroke="#4a6fa5" points="259,-280.45 266,-278 259,-275.55 259,-280.45"/>
</g>
<!-- Node0x57dbc26e9240 -->
<g id="node4" class="node">
<title>Node0x57dbc26e9240</title>
<path fill="#f0f4ff" stroke="black" d="M126,-556C126,-556 25,-556 25,-556 19,-556 13,-550 13,-544 13,-544 13,-532 13,-532 13,-526 19,-520 25,-520 25,-520 126,-520 126,-520 132,-520 138,-526 138,-532 138,-532 138,-544 138,-544 138,-550 132,-556 126,-556"/>
<text text-anchor="middle" x="75.5" y="-535.8" font-family="Courier,monospace" font-size="9.00">{ErrorFileNotFound()}</text>
</g>
<!-- Node0x57dbc26e9240&#45;&gt;Node0x57dbc26e8f30 -->
<g id="edge3" class="edge">
<title>Node0x57dbc26e9240&#45;&gt;Node0x57dbc26e8f30</title>
<path fill="none" stroke="#4a6fa5" d="M129.72,-519.88C137.31,-515.98 144.67,-511.38 151,-506 219.47,-447.73 266.69,-348.92 286.1,-302.92"/>
<polygon fill="#4a6fa5" stroke="#4a6fa5" points="288.44,-303.68 288.87,-296.27 283.92,-301.79 288.44,-303.68"/>
</g>
<!-- Node0x57dbc26993a0 -->
<g id="node5" class="node">
<title>Node0x57dbc26993a0</title>
<path fill="#f0f4ff" stroke="black" d="M345,-588C345,-588 249,-588 249,-588 243,-588 237,-582 237,-576 237,-576 237,-564 237,-564 237,-558 243,-552 249,-552 249,-552 345,-552 345,-552 351,-552 357,-558 357,-564 357,-564 357,-576 357,-576 357,-582 351,-588 345,-588"/>
<text text-anchor="middle" x="297" y="-567.8" font-family="Courier,monospace" font-size="9.00">{llvm.memset.p0.i64}</text>
</g>
<!-- Node0x57dbc26e9240&#45;&gt;Node0x57dbc26993a0 -->
<g id="edge4" class="edge">
<title>Node0x57dbc26e9240&#45;&gt;Node0x57dbc26993a0</title>
<path fill="none" stroke="#4a6fa5" d="M138.23,-547C166.63,-551.14 200.38,-556.06 229.37,-560.29"/>
<polygon fill="#4a6fa5" stroke="#4a6fa5" points="229.35,-562.76 236.63,-561.34 230.05,-557.91 229.35,-562.76"/>
</g>
<!-- Node0x57dbc2699a90 -->
<g id="node6" class="node">
<title>Node0x57dbc2699a90</title>
<path fill="#f0f4ff" stroke="black" d="M313.5,-523C313.5,-523 280.5,-523 280.5,-523 274.5,-523 268.5,-517 268.5,-511 268.5,-511 268.5,-499 268.5,-499 268.5,-493 274.5,-487 280.5,-487 280.5,-487 313.5,-487 313.5,-487 319.5,-487 325.5,-493 325.5,-499 325.5,-499 325.5,-511 325.5,-511 325.5,-517 319.5,-523 313.5,-523"/>
<text text-anchor="middle" x="297" y="-502.8" font-family="Courier,monospace" font-size="9.00">{getcwd}</text>
</g>
<!-- Node0x57dbc26e9240&#45;&gt;Node0x57dbc2699a90 -->
<g id="edge5" class="edge">
<title>Node0x57dbc26e9240&#45;&gt;Node0x57dbc2699a90</title>
<path fill="none" stroke="#4a6fa5" d="M138.23,-528.72C177.95,-522.75 228.14,-515.2 261.11,-510.25"/>
<polygon fill="#4a6fa5" stroke="#4a6fa5" points="261.72,-512.63 268.28,-509.17 260.99,-507.79 261.72,-512.63"/>
</g>
<!-- Node0x57dbc2699790 -->
<g id="node7" class="node">
<title>Node0x57dbc2699790</title>
<path fill="#f0f4ff" stroke="black" d="M131,-231C131,-231 20,-231 20,-231 14,-231 8,-225 8,-219 8,-219 8,-207 8,-207 8,-201 14,-195 20,-195 20,-195 131,-195 131,-195 137,-195 143,-201 143,-207 143,-207 143,-219 143,-219 143,-225 137,-231 131,-231"/>
<text text-anchor="middle" x="75.5" y="-210.8" font-family="Courier,monospace" font-size="9.00">{ErrorPatternNoMatch()}</text>
</g>
<!-- Node0x57dbc2699790&#45;&gt;Node0x57dbc26e8f30 -->
<g id="edge6" class="edge">
<title>Node0x57dbc2699790&#45;&gt;Node0x57dbc26e8f30</title>
<path fill="none" stroke="#4a6fa5" d="M137.35,-231.02C176.44,-242.59 225.93,-257.25 259.15,-267.09"/>
<polygon fill="#4a6fa5" stroke="#4a6fa5" points="258.58,-269.47 265.98,-269.11 259.97,-264.77 258.58,-269.47"/>
</g>
<!-- Node0x57dbc2699cc0 -->
<g id="node8" class="node">
<title>Node0x57dbc2699cc0</title>
<path fill="#f0f4ff" stroke="black" d="M136.5,-491C136.5,-491 14.5,-491 14.5,-491 8.5,-491 2.5,-485 2.5,-479 2.5,-479 2.5,-467 2.5,-467 2.5,-461 8.5,-455 14.5,-455 14.5,-455 136.5,-455 136.5,-455 142.5,-455 148.5,-461 148.5,-467 148.5,-467 148.5,-479 148.5,-479 148.5,-485 142.5,-491 136.5,-491"/>
<text text-anchor="middle" x="75.5" y="-470.8" font-family="Courier,monospace" font-size="9.00">{ErrorWatchDirNotFound()}</text>
</g>
<!-- Node0x57dbc2699cc0&#45;&gt;Node0x57dbc26e8f30 -->
<g id="edge7" class="edge">
<title>Node0x57dbc2699cc0&#45;&gt;Node0x57dbc26e8f30</title>
<path fill="none" stroke="#4a6fa5" d="M127.03,-454.89C135.38,-450.9 143.69,-446.27 151,-441 206.24,-401.17 255.41,-336.88 279.79,-302.14"/>
<polygon fill="#4a6fa5" stroke="#4a6fa5" points="282.07,-303.15 284.05,-296.01 278.05,-300.36 282.07,-303.15"/>
</g>
<!-- Node0x57dbc26ea190 -->
<g id="node9" class="node">
<title>Node0x57dbc26ea190</title>
<path fill="#f0f4ff" stroke="black" d="M139,-166C139,-166 12,-166 12,-166 6,-166 0,-160 0,-154 0,-154 0,-142 0,-142 0,-136 6,-130 12,-130 12,-130 139,-130 139,-130 145,-130 151,-136 151,-142 151,-142 151,-154 151,-154 151,-160 145,-166 139,-166"/>
<text text-anchor="middle" x="75.5" y="-145.8" font-family="Courier,monospace" font-size="9.00">{ErrorIccProfileInvalid()}</text>
</g>
<!-- Node0x57dbc26ea190&#45;&gt;Node0x57dbc26e8f30 -->
<g id="edge8" class="edge">
<title>Node0x57dbc26ea190&#45;&gt;Node0x57dbc26e8f30</title>
<path fill="none" stroke="#4a6fa5" d="M120.84,-166.13C130.92,-170.67 141.46,-175.75 151,-181 192.37,-203.77 237.13,-234.79 265.81,-255.56"/>
<polygon fill="#4a6fa5" stroke="#4a6fa5" points="264.57,-257.69 271.68,-259.83 267.46,-253.73 264.57,-257.69"/>
</g>
<!-- Node0x57dbc2699560 -->
<g id="node10" class="node">
<title>Node0x57dbc2699560</title>
<path fill="#f0f4ff" stroke="black" d="M312,-101C312,-101 282,-101 282,-101 276,-101 270,-95 270,-89 270,-89 270,-77 270,-77 270,-71 276,-65 282,-65 282,-65 312,-65 312,-65 318,-65 324,-71 324,-77 324,-77 324,-89 324,-89 324,-95 318,-101 312,-101"/>
<text text-anchor="middle" x="297" y="-80.8" font-family="Courier,monospace" font-size="9.00">{stat}</text>
</g>
<!-- Node0x57dbc26ea190&#45;&gt;Node0x57dbc2699560 -->
<g id="edge9" class="edge">
<title>Node0x57dbc26ea190&#45;&gt;Node0x57dbc2699560</title>
<path fill="none" stroke="#4a6fa5" d="M137.35,-129.98C177.98,-117.95 229.85,-102.59 263,-92.77"/>
<polygon fill="#4a6fa5" stroke="#4a6fa5" points="263.76,-95.1 269.78,-90.76 262.37,-90.4 263.76,-95.1"/>
</g>
<!-- Node0x57dbc26eaad0 -->
<g id="node11" class="node">
<title>Node0x57dbc26eaad0</title>
<path fill="#f0f4ff" stroke="black" d="M136.5,-101C136.5,-101 14.5,-101 14.5,-101 8.5,-101 2.5,-95 2.5,-89 2.5,-89 2.5,-77 2.5,-77 2.5,-71 8.5,-65 14.5,-65 14.5,-65 136.5,-65 136.5,-65 142.5,-65 148.5,-71 148.5,-77 148.5,-77 148.5,-89 148.5,-89 148.5,-95 142.5,-101 136.5,-101"/>
<text text-anchor="middle" x="75.5" y="-80.8" font-family="Courier,monospace" font-size="9.00">{ErrorPermissionDenied()}</text>
</g>
<!-- Node0x57dbc26eaad0&#45;&gt;Node0x57dbc26e8f30 -->
<g id="edge10" class="edge">
<title>Node0x57dbc26eaad0&#45;&gt;Node0x57dbc26e8f30</title>
<path fill="none" stroke="#4a6fa5" d="M125.44,-101.1C134.32,-105.36 143.22,-110.34 151,-116 205.74,-155.82 254.95,-219.35 279.51,-253.83"/>
<polygon fill="#4a6fa5" stroke="#4a6fa5" points="277.76,-255.61 283.8,-259.92 281.77,-252.79 277.76,-255.61"/>
</g>
<!-- Node0x57dbc26eaad0&#45;&gt;Node0x57dbc2699560 -->
<g id="edge11" class="edge">
<title>Node0x57dbc26eaad0&#45;&gt;Node0x57dbc2699560</title>
<path fill="none" stroke="#4a6fa5" d="M148.68,-83C187.04,-83 232.36,-83 262.5,-83"/>
<polygon fill="#4a6fa5" stroke="#4a6fa5" points="262.83,-85.45 269.83,-83 262.83,-80.55 262.83,-85.45"/>
</g>
<!-- Node0x57dbc26ea9d0 -->
<g id="node12" class="node">
<title>Node0x57dbc26ea9d0</title>
<path fill="#f0f4ff" stroke="black" d="M136.5,-426C136.5,-426 14.5,-426 14.5,-426 8.5,-426 2.5,-420 2.5,-414 2.5,-414 2.5,-402 2.5,-402 2.5,-396 8.5,-390 14.5,-390 14.5,-390 136.5,-390 136.5,-390 142.5,-390 148.5,-396 148.5,-402 148.5,-402 148.5,-414 148.5,-414 148.5,-420 142.5,-426 136.5,-426"/>
<text text-anchor="middle" x="75.5" y="-405.8" font-family="Courier,monospace" font-size="9.00">{ErrorDatabaseNotFound()}</text>
</g>
<!-- Node0x57dbc26ea9d0&#45;&gt;Node0x57dbc26e8f30 -->
<g id="edge12" class="edge">
<title>Node0x57dbc26ea9d0&#45;&gt;Node0x57dbc26e8f30</title>
<path fill="none" stroke="#4a6fa5" d="M122.46,-389.87C132.05,-385.65 141.98,-380.93 151,-376 192.82,-353.15 237.82,-321.51 266.41,-300.43"/>
<polygon fill="#4a6fa5" stroke="#4a6fa5" points="268.09,-302.24 272.26,-296.1 265.18,-298.3 268.09,-302.24"/>
</g>
<!-- Node0x57dbc26eb070 -->
<g id="node13" class="node">
<title>Node0x57dbc26eb070</title>
<path fill="#f0f4ff" stroke="black" d="M139,-36C139,-36 12,-36 12,-36 6,-36 0,-30 0,-24 0,-24 0,-12 0,-12 0,-6 6,0 12,0 12,0 139,0 139,0 145,0 151,-6 151,-12 151,-12 151,-24 151,-24 151,-30 145,-36 139,-36"/>
<text text-anchor="middle" x="75.5" y="-15.8" font-family="Courier,monospace" font-size="9.00">{ErrorDatabaseCorrupted()}</text>
</g>
<!-- Node0x57dbc26eb070&#45;&gt;Node0x57dbc26e8f30 -->
<g id="edge13" class="edge">
<title>Node0x57dbc26eb070&#45;&gt;Node0x57dbc26e8f30</title>
<path fill="none" stroke="#4a6fa5" d="M128.16,-36.09C136.29,-40.25 144.24,-45.19 151,-51 218.99,-109.4 266.45,-207.59 286.01,-253.26"/>
<polygon fill="#4a6fa5" stroke="#4a6fa5" points="283.82,-254.37 288.8,-259.86 288.33,-252.46 283.82,-254.37"/>
</g>
<!-- Node0x57dbc26eb070&#45;&gt;Node0x57dbc2699560 -->
<g id="edge14" class="edge">
<title>Node0x57dbc26eb070&#45;&gt;Node0x57dbc2699560</title>
<path fill="none" stroke="#4a6fa5" d="M137.35,-36.02C177.98,-48.05 229.85,-63.41 263,-73.23"/>
<polygon fill="#4a6fa5" stroke="#4a6fa5" points="262.37,-75.6 269.78,-75.24 263.76,-70.9 262.37,-75.6"/>
</g>
</g>
</svg>
