<?xml version="1.0" encoding="UTF-8" standalone="no"?>
<!DOCTYPE svg PUBLIC "-//W3C//DTD SVG 1.1//EN"
 "http://www.w3.org/Graphics/SVG/1.1/DTD/svg11.dtd">
<!-- Generated by graphviz version 2.43.0 (0)
 -->
<!-- Title: Call graph: /home/h02332/po/research/call&#45;graph/analyzer/iccAnalyzer&#45;lite.ll Pages: 1 -->
<svg width="695pt" height="2677pt"
 viewBox="0.00 0.00 695.20 2677.20" xmlns="http://www.w3.org/2000/svg" xmlns:xlink="http://www.w3.org/1999/xlink">
<g id="graph0" class="graph" transform="scale(1 1) rotate(0) translate(21.6 2655.6)">
<title>Call graph: /home/h02332/po/research/call&#45;graph/analyzer/iccAnalyzer&#45;lite.ll</title>
<polygon fill="white" stroke="transparent" points="-21.6,21.6 -21.6,-2655.6 673.6,-2655.6 673.6,21.6 -21.6,21.6"/>
<!-- Node0x5ccabdbdd740 -->
<g id="node1" class="node">
<title>Node0x5ccabdbdd740</title>
<path fill="#f0f4ff" stroke="black" d="M89.5,-749C89.5,-749 43.5,-749 43.5,-749 37.5,-749 31.5,-743 31.5,-737 31.5,-737 31.5,-725 31.5,-725 31.5,-719 37.5,-713 43.5,-713 43.5,-713 89.5,-713 89.5,-713 95.5,-713 101.5,-719 101.5,-725 101.5,-725 101.5,-737 101.5,-737 101.5,-743 95.5,-749 89.5,-749"/>
<text text-anchor="middle" x="66.5" y="-728.8" font-family="Courier,monospace" font-size="9.00">icRealloc()</text>
</g>
<!-- Node0x5ccabdb695f0 -->
<g id="node2" class="node">
<title>Node0x5ccabdb695f0</title>
<path fill="#f0f4ff" stroke="black" d="M640,-1300C640,-1300 562,-1300 562,-1300 556,-1300 550,-1294 550,-1288 550,-1288 550,-1276 550,-1276 550,-1270 556,-1264 562,-1264 562,-1264 640,-1264 640,-1264 646,-1264 652,-1270 652,-1276 652,-1276 652,-1288 652,-1288 652,-1294 646,-1300 640,-1300"/>
<text text-anchor="middle" x="601" y="-1279.8" font-family="Courier,monospace" font-size="9.00">ResetAllocGuard()</text>
</g>
<!-- Node0x5ccabdb58cb0 -->
<g id="node3" class="node">
<title>Node0x5ccabdb58cb0</title>
<path fill="#f0f4ff" stroke="black" d="M118.5,-1039C118.5,-1039 14.5,-1039 14.5,-1039 8.5,-1039 2.5,-1033 2.5,-1027 2.5,-1027 2.5,-1015 2.5,-1015 2.5,-1009 8.5,-1003 14.5,-1003 14.5,-1003 118.5,-1003 118.5,-1003 124.5,-1003 130.5,-1009 130.5,-1015 130.5,-1015 130.5,-1027 130.5,-1027 130.5,-1033 124.5,-1039 118.5,-1039"/>
<text text-anchor="middle" x="66.5" y="-1018.8" font-family="Courier,monospace" font-size="9.00">__asan_default_options</text>
</g>
<!-- Node0x5ccabdba6770 -->
<g id="node4" class="node">
<title>Node0x5ccabdba6770</title>
<path fill="#f0f4ff" stroke="black" d="M121,-1445C121,-1445 12,-1445 12,-1445 6,-1445 0,-1439 0,-1433 0,-1433 0,-1421 0,-1421 0,-1415 6,-1409 12,-1409 12,-1409 121,-1409 121,-1409 127,-1409 133,-1415 133,-1421 133,-1421 133,-1433 133,-1433 133,-1439 127,-1445 121,-1445"/>
<text text-anchor="middle" x="66.5" y="-1424.8" font-family="Courier,monospace" font-size="9.00">__ubsan_default_options</text>
</g>
<!-- Node0x5ccabd94eff0 -->
<g id="node5" class="node">
<title>Node0x5ccabd94eff0</title>
<path fill="#f0f4ff" stroke="black" d="M367.5,-894C367.5,-894 315.5,-894 315.5,-894 309.5,-894 303.5,-888 303.5,-882 303.5,-882 303.5,-870 303.5,-870 303.5,-864 309.5,-858 315.5,-858 315.5,-858 367.5,-858 367.5,-858 373.5,-858 379.5,-864 379.5,-870 379.5,-870 379.5,-882 379.5,-882 379.5,-888 373.5,-894 367.5,-894"/>
<text text-anchor="middle" x="341.5" y="-873.8" font-family="Courier,monospace" font-size="9.00">PrintUsage()</text>
</g>
<!-- Node0x5ccabdbc73e0 -->
<g id="node6" class="node">
<title>Node0x5ccabdbc73e0</title>
<path fill="#f0f4ff" stroke="black" d="M81.5,-807C81.5,-807 51.5,-807 51.5,-807 45.5,-807 39.5,-801 39.5,-795 39.5,-795 39.5,-783 39.5,-783 39.5,-777 45.5,-771 51.5,-771 51.5,-771 81.5,-771 81.5,-771 87.5,-771 93.5,-777 93.5,-783 93.5,-783 93.5,-795 93.5,-795 93.5,-801 87.5,-807 81.5,-807"/>
<text text-anchor="middle" x="66.5" y="-786.8" font-family="Courier,monospace" font-size="9.00">main</text>
</g>
<!-- Node0x5ccabdbc73e0&#45;&gt;Node0x5ccabd94eff0 -->
<g id="edge2" class="edge">
<title>Node0x5ccabdbc73e0&#45;&gt;Node0x5ccabd94eff0</title>
<path fill="none" stroke="#4a6fa5" d="M93.7,-803.64C118.18,-816.75 156.09,-835.61 191,-847 225.85,-858.37 266.8,-865.93 297.02,-870.47"/>
<polygon fill="#4a6fa5" stroke="#4a6fa5" points="297.06,-872.6 303.3,-871.39 297.67,-868.44 297.06,-872.6"/>
</g>
<!-- Node0x5ccabd94e970 -->
<g id="node7" class="node">
<title>Node0x5ccabd94e970</title>
<path fill="#f0f4ff" stroke="black" d="M393.5,-836C393.5,-836 289.5,-836 289.5,-836 283.5,-836 277.5,-830 277.5,-824 277.5,-824 277.5,-812 277.5,-812 277.5,-806 283.5,-800 289.5,-800 289.5,-800 393.5,-800 393.5,-800 399.5,-800 405.5,-806 405.5,-812 405.5,-812 405.5,-824 405.5,-824 405.5,-830 399.5,-836 393.5,-836"/>
<text text-anchor="middle" x="341.5" y="-815.8" font-family="Courier,monospace" font-size="9.00">InstallCrashRecovery()</text>
</g>
<!-- Node0x5ccabdbc73e0&#45;&gt;Node0x5ccabd94e970 -->
<g id="edge1" class="edge">
<title>Node0x5ccabdbc73e0&#45;&gt;Node0x5ccabd94e970</title>
<path fill="none" stroke="#4a6fa5" d="M93.68,-791.78C134.17,-796.08 213.36,-804.49 271.16,-810.63"/>
<polygon fill="#4a6fa5" stroke="#4a6fa5" points="271.2,-812.75 277.39,-811.3 271.65,-808.57 271.2,-812.75"/>
</g>
<!-- Node0x5ccabdc05400 -->
<g id="node8" class="node">
<title>Node0x5ccabdc05400</title>
<path fill="#f0f4ff" stroke="black" d="M356.5,-778C356.5,-778 326.5,-778 326.5,-778 320.5,-778 314.5,-772 314.5,-766 314.5,-766 314.5,-754 314.5,-754 314.5,-748 320.5,-742 326.5,-742 326.5,-742 356.5,-742 356.5,-742 362.5,-742 368.5,-748 368.5,-754 368.5,-754 368.5,-766 368.5,-766 368.5,-772 362.5,-778 356.5,-778"/>
<text text-anchor="middle" x="341.5" y="-757.8" font-family="Courier,monospace" font-size="9.00">c_str()</text>
</g>
<!-- Node0x5ccabdbc73e0&#45;&gt;Node0x5ccabdc05400 -->
<g id="edge3" class="edge">
<title>Node0x5ccabdbc73e0&#45;&gt;Node0x5ccabdc05400</title>
<path fill="none" stroke="#4a6fa5" d="M93.68,-786.22C143.92,-780.88 253.73,-769.22 308.34,-763.42"/>
<polygon fill="#4a6fa5" stroke="#4a6fa5" points="308.66,-765.49 314.4,-762.77 308.21,-761.32 308.66,-765.49"/>
</g>
<!-- Node0x5ccabd94fd50 -->
<g id="node9" class="node">
<title>Node0x5ccabd94fd50</title>
<path fill="#f0f4ff" stroke="black" d="M391,-674C391,-674 292,-674 292,-674 286,-674 280,-668 280,-662 280,-662 280,-650 280,-650 280,-644 286,-638 292,-638 292,-638 391,-638 391,-638 397,-638 403,-644 403,-650 403,-650 403,-662 403,-662 403,-668 397,-674 391,-674"/>
<text text-anchor="middle" x="341.5" y="-653.8" font-family="Courier,monospace" font-size="9.00">ValidateProfilePath()</text>
</g>
<!-- Node0x5ccabdbc73e0&#45;&gt;Node0x5ccabd94fd50 -->
<g id="edge4" class="edge">
<title>Node0x5ccabdbc73e0&#45;&gt;Node0x5ccabd94fd50</title>
<path fill="none" stroke="#4a6fa5" d="M93.53,-780.61C106.18,-775.78 121.17,-768.89 133,-760 165.03,-735.94 156.86,-711.97 191,-691 215.71,-675.82 246.41,-667.22 273.55,-662.35"/>
<polygon fill="#4a6fa5" stroke="#4a6fa5" points="274.08,-664.39 279.64,-661.31 273.37,-660.25 274.08,-664.39"/>
</g>
<!-- Node0x5ccabdc0c0a0 -->
<g id="node10" class="node">
<title>Node0x5ccabdc0c0a0</title>
<path fill="#f0f4ff" stroke="black" d="M435.5,-616C435.5,-616 247.5,-616 247.5,-616 241.5,-616 235.5,-610 235.5,-604 235.5,-604 235.5,-592 235.5,-592 235.5,-586 241.5,-580 247.5,-580 247.5,-580 435.5,-580 435.5,-580 441.5,-580 447.5,-586 447.5,-592 447.5,-592 447.5,-604 447.5,-604 447.5,-610 441.5,-616 435.5,-616"/>
<text text-anchor="middle" x="341.5" y="-595.8" font-family="Courier,monospace" font-size="9.00">SanitizeForLog[abi:cxx11](char const*)</text>
</g>
<!-- Node0x5ccabdbc73e0&#45;&gt;Node0x5ccabdc0c0a0 -->
<g id="edge5" class="edge">
<title>Node0x5ccabdbc73e0&#45;&gt;Node0x5ccabdc0c0a0</title>
<path fill="none" stroke="#4a6fa5" d="M93.76,-782.32C106.92,-777.85 122.3,-770.76 133,-760 178.47,-714.27 140.68,-667.33 191,-627 202.28,-617.96 215.57,-611.46 229.48,-606.82"/>
<polygon fill="#4a6fa5" stroke="#4a6fa5" points="230.38,-608.74 235.48,-604.95 229.13,-604.73 230.38,-608.74"/>
</g>
<!-- Node0x5ccabd950b40 -->
<g id="node11" class="node">
<title>Node0x5ccabd950b40</title>
<path fill="#f0f4ff" stroke="black" d="M475,-1242C475,-1242 208,-1242 208,-1242 202,-1242 196,-1236 196,-1230 196,-1230 196,-1218 196,-1218 196,-1212 202,-1206 208,-1206 208,-1206 475,-1206 475,-1206 481,-1206 487,-1212 487,-1218 487,-1218 487,-1230 487,-1230 487,-1236 481,-1242 475,-1242"/>
<text text-anchor="middle" x="341.5" y="-1221.8" font-family="Courier,monospace" font-size="9.00">int RecoverableRun&lt;main::$_0&gt;(char const*, main::$_0)</text>
</g>
<!-- Node0x5ccabdbc73e0&#45;&gt;Node0x5ccabd950b40 -->
<g id="edge6" class="edge">
<title>Node0x5ccabdbc73e0&#45;&gt;Node0x5ccabd950b40</title>
<path fill="none" stroke="#4a6fa5" d="M73.58,-807.13C85.4,-842.55 112.15,-923.44 133,-992 160.3,-1081.77 121.84,-1131.59 191,-1195 193.94,-1197.7 197.06,-1200.18 200.31,-1202.46"/>
<polygon fill="#4a6fa5" stroke="#4a6fa5" points="199.37,-1204.35 205.54,-1205.87 201.67,-1200.83 199.37,-1204.35"/>
</g>
<!-- Node0x5ccabdc0aca0 -->
<g id="node12" class="node">
<title>Node0x5ccabdc0aca0</title>
<path fill="#f0f4ff" stroke="black" d="M383,-558C383,-558 300,-558 300,-558 294,-558 288,-552 288,-546 288,-546 288,-534 288,-534 288,-528 294,-522 300,-522 300,-522 383,-522 383,-522 389,-522 395,-528 395,-534 395,-534 395,-546 395,-546 395,-552 389,-558 383,-558"/>
<text text-anchor="middle" x="341.5" y="-537.8" font-family="Courier,monospace" font-size="9.00">SeverityToString()</text>
</g>
<!-- Node0x5ccabdbc73e0&#45;&gt;Node0x5ccabdc0aca0 -->
<g id="edge7" class="edge">
<title>Node0x5ccabdbc73e0&#45;&gt;Node0x5ccabdc0aca0</title>
<path fill="none" stroke="#4a6fa5" d="M93.63,-783.03C107.09,-778.71 122.78,-771.55 133,-760 191.79,-693.56 125.12,-628.41 191,-569 215.39,-547.01 251.31,-539.53 281.83,-537.66"/>
<polygon fill="#4a6fa5" stroke="#4a6fa5" points="281.97,-539.75 287.85,-537.36 281.76,-535.56 281.97,-539.75"/>
</g>
<!-- Node0x5ccabdbeb010 -->
<g id="node13" class="node">
<title>Node0x5ccabdbeb010</title>
<path fill="#f0f4ff" stroke="black" d="M475,-1184C475,-1184 208,-1184 208,-1184 202,-1184 196,-1178 196,-1172 196,-1172 196,-1160 196,-1160 196,-1154 202,-1148 208,-1148 208,-1148 475,-1148 475,-1148 481,-1148 487,-1154 487,-1160 487,-1160 487,-1172 487,-1172 487,-1178 481,-1184 475,-1184"/>
<text text-anchor="middle" x="341.5" y="-1163.8" font-family="Courier,monospace" font-size="9.00">int RecoverableRun&lt;main::$_1&gt;(char const*, main::$_1)</text>
</g>
<!-- Node0x5ccabdbc73e0&#45;&gt;Node0x5ccabdbeb010 -->
<g id="edge8" class="edge">
<title>Node0x5ccabdbc73e0&#45;&gt;Node0x5ccabdbeb010</title>
<path fill="none" stroke="#4a6fa5" d="M73.35,-807.03C96.03,-876.76 177.64,-1125.5 191,-1137 194.16,-1139.72 197.49,-1142.21 200.97,-1144.49"/>
<polygon fill="#4a6fa5" stroke="#4a6fa5" points="200.33,-1146.57 206.54,-1147.92 202.53,-1142.99 200.33,-1146.57"/>
</g>
<!-- Node0x5ccabdc09040 -->
<g id="node14" class="node">
<title>Node0x5ccabdc09040</title>
<path fill="#f0f4ff" stroke="black" d="M375,-500C375,-500 308,-500 308,-500 302,-500 296,-494 296,-488 296,-488 296,-476 296,-476 296,-470 302,-464 308,-464 308,-464 375,-464 375,-464 381,-464 387,-470 387,-476 387,-476 387,-488 387,-488 387,-494 381,-500 375,-500"/>
<text text-anchor="middle" x="341.5" y="-479.8" font-family="Courier,monospace" font-size="9.00">PhaseToString()</text>
</g>
<!-- Node0x5ccabdbc73e0&#45;&gt;Node0x5ccabdc09040 -->
<g id="edge9" class="edge">
<title>Node0x5ccabdbc73e0&#45;&gt;Node0x5ccabdc09040</title>
<path fill="none" stroke="#4a6fa5" d="M93.61,-783.4C107.24,-779.17 123.09,-771.98 133,-760 205.45,-672.47 109.17,-589.84 191,-511 216.79,-486.15 257.15,-479.48 289.44,-478.71"/>
<polygon fill="#4a6fa5" stroke="#4a6fa5" points="289.81,-480.8 295.78,-478.63 289.76,-476.6 289.81,-480.8"/>
</g>
<!-- Node0x5ccabdbed530 -->
<g id="node15" class="node">
<title>Node0x5ccabdbed530</title>
<path fill="#f0f4ff" stroke="black" d="M475,-1126C475,-1126 208,-1126 208,-1126 202,-1126 196,-1120 196,-1114 196,-1114 196,-1102 196,-1102 196,-1096 202,-1090 208,-1090 208,-1090 475,-1090 475,-1090 481,-1090 487,-1096 487,-1102 487,-1102 487,-1114 487,-1114 487,-1120 481,-1126 475,-1126"/>
<text text-anchor="middle" x="341.5" y="-1105.8" font-family="Courier,monospace" font-size="9.00">int RecoverableRun&lt;main::$_2&gt;(char const*, main::$_2)</text>
</g>
<!-- Node0x5ccabdbc73e0&#45;&gt;Node0x5ccabdbed530 -->
<g id="edge10" class="edge">
<title>Node0x5ccabdbc73e0&#45;&gt;Node0x5ccabdbed530</title>
<path fill="none" stroke="#4a6fa5" d="M72.83,-807.29C90.02,-865.1 145.57,-1042.27 191,-1079 194.53,-1081.86 198.27,-1084.46 202.16,-1086.83"/>
<polygon fill="#4a6fa5" stroke="#4a6fa5" points="201.3,-1088.77 207.55,-1089.93 203.39,-1085.12 201.3,-1088.77"/>
</g>
<!-- Node0x5ccabdc09240 -->
<g id="node16" class="node">
<title>Node0x5ccabdc09240</title>
<path fill="#f0f4ff" stroke="black" d="M393.5,-442C393.5,-442 289.5,-442 289.5,-442 283.5,-442 277.5,-436 277.5,-430 277.5,-430 277.5,-418 277.5,-418 277.5,-412 283.5,-406 289.5,-406 289.5,-406 393.5,-406 393.5,-406 399.5,-406 405.5,-412 405.5,-418 405.5,-418 405.5,-430 405.5,-430 405.5,-436 399.5,-442 393.5,-442"/>
<text text-anchor="middle" x="341.5" y="-421.8" font-family="Courier,monospace" font-size="9.00">ComputeRegistryStats()</text>
</g>
<!-- Node0x5ccabdbc73e0&#45;&gt;Node0x5ccabdc09240 -->
<g id="edge11" class="edge">
<title>Node0x5ccabdbc73e0&#45;&gt;Node0x5ccabdc09240</title>
<path fill="none" stroke="#4a6fa5" d="M93.81,-783.56C107.5,-779.38 123.34,-772.18 133,-760 219.27,-651.19 93.05,-551.43 191,-453 211.81,-432.09 242.87,-423.9 271.3,-421.31"/>
<polygon fill="#4a6fa5" stroke="#4a6fa5" points="271.5,-423.4 277.32,-420.84 271.18,-419.21 271.5,-423.4"/>
</g>
<!-- Node0x5ccabdbedad0 -->
<g id="node17" class="node">
<title>Node0x5ccabdbedad0</title>
<path fill="#f0f4ff" stroke="black" d="M475,-1068C475,-1068 208,-1068 208,-1068 202,-1068 196,-1062 196,-1056 196,-1056 196,-1044 196,-1044 196,-1038 202,-1032 208,-1032 208,-1032 475,-1032 475,-1032 481,-1032 487,-1038 487,-1044 487,-1044 487,-1056 487,-1056 487,-1062 481,-1068 475,-1068"/>
<text text-anchor="middle" x="341.5" y="-1047.8" font-family="Courier,monospace" font-size="9.00">int RecoverableRun&lt;main::$_3&gt;(char const*, main::$_3)</text>
</g>
<!-- Node0x5ccabdbc73e0&#45;&gt;Node0x5ccabdbedad0 -->
<g id="edge12" class="edge">
<title>Node0x5ccabdbc73e0&#45;&gt;Node0x5ccabdbedad0</title>
<path fill="none" stroke="#4a6fa5" d="M71.53,-807.31C82.34,-851.76 116.33,-965.8 191,-1021 194.96,-1023.93 199.14,-1026.58 203.48,-1028.99"/>
<polygon fill="#4a6fa5" stroke="#4a6fa5" points="202.77,-1030.99 209.06,-1031.91 204.71,-1027.27 202.77,-1030.99"/>
</g>
<!-- Node0x5ccabdc0aa20 -->
<g id="node18" class="node">
<title>Node0x5ccabdc0aa20</title>
<path fill="#f0f4ff" stroke="black" d="M441,-384C441,-384 242,-384 242,-384 236,-384 230,-378 230,-372 230,-372 230,-360 230,-360 230,-354 236,-348 242,-348 242,-348 441,-348 441,-348 447,-348 453,-354 453,-360 453,-360 453,-372 453,-372 453,-378 447,-384 441,-384"/>
<text text-anchor="middle" x="341.5" y="-363.8" font-family="Courier,monospace" font-size="9.00">IccAnalyzerXMLExport::RunWithXMLOutput()</text>
</g>
<!-- Node0x5ccabdbc73e0&#45;&gt;Node0x5ccabdc0aa20 -->
<g id="edge13" class="edge">
<title>Node0x5ccabdbc73e0&#45;&gt;Node0x5ccabdc0aa20</title>
<path fill="none" stroke="#4a6fa5" d="M93.63,-783.77C107.43,-779.64 123.44,-772.42 133,-760 233.16,-629.81 76.84,-513.11 191,-395 200.24,-385.44 211.62,-378.51 223.95,-373.56"/>
<polygon fill="#4a6fa5" stroke="#4a6fa5" points="224.79,-375.49 229.67,-371.42 223.31,-371.56 224.79,-375.49"/>
</g>
<!-- Node0x5ccabdbecd70 -->
<g id="node19" class="node">
<title>Node0x5ccabdbecd70</title>
<path fill="#f0f4ff" stroke="black" d="M383,-326C383,-326 300,-326 300,-326 294,-326 288,-320 288,-314 288,-314 288,-302 288,-302 288,-296 294,-290 300,-290 300,-290 383,-290 383,-290 389,-290 395,-296 395,-302 395,-302 395,-314 395,-314 395,-320 389,-326 383,-326"/>
<text text-anchor="middle" x="341.5" y="-305.8" font-family="Courier,monospace" font-size="9.00">DetectFileFormat()</text>
</g>
<!-- Node0x5ccabdbc73e0&#45;&gt;Node0x5ccabdbecd70 -->
<g id="edge14" class="edge">
<title>Node0x5ccabdbc73e0&#45;&gt;Node0x5ccabdbecd70</title>
<path fill="none" stroke="#4a6fa5" d="M93.73,-783.85C107.56,-779.74 123.58,-772.52 133,-760 247.1,-608.38 60.58,-474.84 191,-337 213.91,-312.78 250.52,-305.39 281.78,-304.12"/>
<polygon fill="#4a6fa5" stroke="#4a6fa5" points="282.02,-306.21 287.95,-303.94 281.9,-302.01 282.02,-306.21"/>
</g>
<!-- Node0x5ccabdbee3f0 -->
<g id="node20" class="node">
<title>Node0x5ccabdbee3f0</title>
<path fill="#f0f4ff" stroke="black" d="M475,-1010C475,-1010 208,-1010 208,-1010 202,-1010 196,-1004 196,-998 196,-998 196,-986 196,-986 196,-980 202,-974 208,-974 208,-974 475,-974 475,-974 481,-974 487,-980 487,-986 487,-986 487,-998 487,-998 487,-1004 481,-1010 475,-1010"/>
<text text-anchor="middle" x="341.5" y="-989.8" font-family="Courier,monospace" font-size="9.00">int RecoverableRun&lt;main::$_4&gt;(char const*, main::$_4)</text>
</g>
<!-- Node0x5ccabdbc73e0&#45;&gt;Node0x5ccabdbee3f0 -->
<g id="edge15" class="edge">
<title>Node0x5ccabdbc73e0&#45;&gt;Node0x5ccabdbee3f0</title>
<path fill="none" stroke="#4a6fa5" d="M74.85,-807.26C90.41,-843.39 130.29,-923.86 191,-963 195.81,-966.1 200.88,-968.89 206.13,-971.39"/>
<polygon fill="#4a6fa5" stroke="#4a6fa5" points="205.56,-973.43 211.89,-973.99 207.29,-969.61 205.56,-973.43"/>
</g>
<!-- Node0x5ccabdbec360 -->
<g id="node21" class="node">
<title>Node0x5ccabdbec360</title>
<path fill="#f0f4ff" stroke="black" d="M475,-952C475,-952 208,-952 208,-952 202,-952 196,-946 196,-940 196,-940 196,-928 196,-928 196,-922 202,-916 208,-916 208,-916 475,-916 475,-916 481,-916 487,-922 487,-928 487,-928 487,-940 487,-940 487,-946 481,-952 475,-952"/>
<text text-anchor="middle" x="341.5" y="-931.8" font-family="Courier,monospace" font-size="9.00">int RecoverableRun&lt;main::$_5&gt;(char const*, main::$_5)</text>
</g>
<!-- Node0x5ccabdbc73e0&#45;&gt;Node0x5ccabdbec360 -->
<g id="edge16" class="edge">
<title>Node0x5ccabdbc73e0&#45;&gt;Node0x5ccabdbec360</title>
<path fill="none" stroke="#4a6fa5" d="M81.23,-807.22C101.95,-833.33 143.86,-880.89 191,-905 197.44,-908.29 204.2,-911.21 211.16,-913.8"/>
<polygon fill="#4a6fa5" stroke="#4a6fa5" points="210.68,-915.86 217.04,-915.9 212.09,-911.91 210.68,-915.86"/>
</g>
<!-- Node0x5ccabdbeefd0 -->
<g id="node22" class="node">
<title>Node0x5ccabdbeefd0</title>
<path fill="#f0f4ff" stroke="black" d="M475,-1590C475,-1590 208,-1590 208,-1590 202,-1590 196,-1584 196,-1578 196,-1578 196,-1566 196,-1566 196,-1560 202,-1554 208,-1554 208,-1554 475,-1554 475,-1554 481,-1554 487,-1560 487,-1566 487,-1566 487,-1578 487,-1578 487,-1584 481,-1590 475,-1590"/>
<text text-anchor="middle" x="341.5" y="-1569.8" font-family="Courier,monospace" font-size="9.00">int RecoverableRun&lt;main::$_6&gt;(char const*, main::$_6)</text>
</g>
<!-- Node0x5ccabdbc73e0&#45;&gt;Node0x5ccabdbeefd0 -->
<g id="edge17" class="edge">
<title>Node0x5ccabdbc73e0&#45;&gt;Node0x5ccabdbeefd0</title>
<path fill="none" stroke="#4a6fa5" d="M74.76,-807.13C88.49,-842.2 118.21,-922.08 133,-992 158.48,-1112.45 107.8,-1452.25 191,-1543 193.35,-1545.56 195.84,-1547.93 198.47,-1550.13"/>
<polygon fill="#4a6fa5" stroke="#4a6fa5" points="197.31,-1551.88 203.34,-1553.9 199.88,-1548.56 197.31,-1551.88"/>
</g>
<!-- Node0x5ccabdbeec50 -->
<g id="node23" class="node">
<title>Node0x5ccabdbeec50</title>
<path fill="#f0f4ff" stroke="black" d="M475,-1532C475,-1532 208,-1532 208,-1532 202,-1532 196,-1526 196,-1520 196,-1520 196,-1508 196,-1508 196,-1502 202,-1496 208,-1496 208,-1496 475,-1496 475,-1496 481,-1496 487,-1502 487,-1508 487,-1508 487,-1520 487,-1520 487,-1526 481,-1532 475,-1532"/>
<text text-anchor="middle" x="341.5" y="-1511.8" font-family="Courier,monospace" font-size="9.00">int RecoverableRun&lt;main::$_7&gt;(char const*, main::$_7)</text>
</g>
<!-- Node0x5ccabdbc73e0&#45;&gt;Node0x5ccabdbeec50 -->
<g id="edge18" class="edge">
<title>Node0x5ccabdbc73e0&#45;&gt;Node0x5ccabdbeec50</title>
<path fill="none" stroke="#4a6fa5" d="M74.68,-807.14C88.28,-842.25 117.78,-922.17 133,-992 156.49,-1099.78 115.96,-1404.15 191,-1485 193.36,-1487.54 195.87,-1489.9 198.51,-1492.09"/>
<polygon fill="#4a6fa5" stroke="#4a6fa5" points="197.36,-1493.85 203.4,-1495.84 199.92,-1490.52 197.36,-1493.85"/>
</g>
<!-- Node0x5ccabdbefd00 -->
<g id="node24" class="node">
<title>Node0x5ccabdbefd00</title>
<path fill="#f0f4ff" stroke="black" d="M475,-1474C475,-1474 208,-1474 208,-1474 202,-1474 196,-1468 196,-1462 196,-1462 196,-1450 196,-1450 196,-1444 202,-1438 208,-1438 208,-1438 475,-1438 475,-1438 481,-1438 487,-1444 487,-1450 487,-1450 487,-1462 487,-1462 487,-1468 481,-1474 475,-1474"/>
<text text-anchor="middle" x="341.5" y="-1453.8" font-family="Courier,monospace" font-size="9.00">int RecoverableRun&lt;main::$_8&gt;(char const*, main::$_8)</text>
</g>
<!-- Node0x5ccabdbc73e0&#45;&gt;Node0x5ccabdbefd00 -->
<g id="edge19" class="edge">
<title>Node0x5ccabdbc73e0&#45;&gt;Node0x5ccabdbefd00</title>
<path fill="none" stroke="#4a6fa5" d="M74.58,-807.17C88.01,-842.31 117.24,-922.29 133,-992 154.5,-1087.12 124.11,-1356.04 191,-1427 193.44,-1429.59 196.03,-1431.98 198.76,-1434.19"/>
<polygon fill="#4a6fa5" stroke="#4a6fa5" points="197.74,-1436.06 203.8,-1437.99 200.27,-1432.71 197.74,-1436.06"/>
</g>
<!-- Node0x5ccabdc0d710 -->
<g id="node25" class="node">
<title>Node0x5ccabdc0d710</title>
<path fill="#f0f4ff" stroke="black" d="M372.5,-268C372.5,-268 310.5,-268 310.5,-268 304.5,-268 298.5,-262 298.5,-256 298.5,-256 298.5,-244 298.5,-244 298.5,-238 304.5,-232 310.5,-232 310.5,-232 372.5,-232 372.5,-232 378.5,-232 384.5,-238 384.5,-244 384.5,-244 384.5,-256 384.5,-256 384.5,-262 378.5,-268 372.5,-268"/>
<text text-anchor="middle" x="341.5" y="-247.8" font-family="Courier,monospace" font-size="9.00">__xpg_basename</text>
</g>
<!-- Node0x5ccabdbc73e0&#45;&gt;Node0x5ccabdc0d710 -->
<g id="edge20" class="edge">
<title>Node0x5ccabdbc73e0&#45;&gt;Node0x5ccabdc0d710</title>
<path fill="none" stroke="#4a6fa5" d="M93.81,-783.91C107.67,-779.82 123.68,-772.6 133,-760 261.07,-586.9 44.29,-436.61 191,-279 216.35,-251.76 259.01,-245.71 292.29,-245.78"/>
<polygon fill="#4a6fa5" stroke="#4a6fa5" points="292.36,-247.88 298.39,-245.86 292.42,-243.68 292.36,-247.88"/>
</g>
<!-- Node0x5ccabdbfbff0 -->
<g id="node26" class="node">
<title>Node0x5ccabdbfbff0</title>
<path fill="#f0f4ff" stroke="black" d="M475,-1416C475,-1416 208,-1416 208,-1416 202,-1416 196,-1410 196,-1404 196,-1404 196,-1392 196,-1392 196,-1386 202,-1380 208,-1380 208,-1380 475,-1380 475,-1380 481,-1380 487,-1386 487,-1392 487,-1392 487,-1404 487,-1404 487,-1410 481,-1416 475,-1416"/>
<text text-anchor="middle" x="341.5" y="-1395.8" font-family="Courier,monospace" font-size="9.00">int RecoverableRun&lt;main::$_9&gt;(char const*, main::$_9)</text>
</g>
<!-- Node0x5ccabdbc73e0&#45;&gt;Node0x5ccabdbfbff0 -->
<g id="edge21" class="edge">
<title>Node0x5ccabdbc73e0&#45;&gt;Node0x5ccabdbfbff0</title>
<path fill="none" stroke="#4a6fa5" d="M74.46,-807.19C87.67,-842.39 116.54,-922.45 133,-992 152.52,-1074.49 132.24,-1307.91 191,-1369 193.46,-1371.56 196.08,-1373.93 198.83,-1376.13"/>
<polygon fill="#4a6fa5" stroke="#4a6fa5" points="197.83,-1378.01 203.91,-1379.89 200.34,-1374.63 197.83,-1378.01"/>
</g>
<!-- Node0x5ccabdbecbc0 -->
<g id="node27" class="node">
<title>Node0x5ccabdbecbc0</title>
<path fill="#f0f4ff" stroke="black" d="M480,-1358C480,-1358 203,-1358 203,-1358 197,-1358 191,-1352 191,-1346 191,-1346 191,-1334 191,-1334 191,-1328 197,-1322 203,-1322 203,-1322 480,-1322 480,-1322 486,-1322 492,-1328 492,-1334 492,-1334 492,-1346 492,-1346 492,-1352 486,-1358 480,-1358"/>
<text text-anchor="middle" x="341.5" y="-1337.8" font-family="Courier,monospace" font-size="9.00">int RecoverableRun&lt;main::$_10&gt;(char const*, main::$_10)</text>
</g>
<!-- Node0x5ccabdbc73e0&#45;&gt;Node0x5ccabdbecbc0 -->
<g id="edge22" class="edge">
<title>Node0x5ccabdbc73e0&#45;&gt;Node0x5ccabdbecbc0</title>
<path fill="none" stroke="#4a6fa5" d="M74.29,-807.24C87.21,-842.5 115.6,-922.68 133,-992 168.09,-1131.76 89.7,-1208.51 191,-1311 193.56,-1313.59 196.27,-1315.98 199.11,-1318.19"/>
<polygon fill="#4a6fa5" stroke="#4a6fa5" points="198.27,-1320.17 204.37,-1321.98 200.73,-1316.76 198.27,-1320.17"/>
</g>
<!-- Node0x5ccabdc08280 -->
<g id="node28" class="node">
<title>Node0x5ccabdc08280</title>
<path fill="#f0f4ff" stroke="black" d="M616.5,-697C616.5,-697 585.5,-697 585.5,-697 579.5,-697 573.5,-691 573.5,-685 573.5,-685 573.5,-673 573.5,-673 573.5,-667 579.5,-661 585.5,-661 585.5,-661 616.5,-661 616.5,-661 622.5,-661 628.5,-667 628.5,-673 628.5,-673 628.5,-685 628.5,-685 628.5,-691 622.5,-697 616.5,-697"/>
<text text-anchor="middle" x="601" y="-676.8" font-family="Courier,monospace" font-size="9.00">realpath</text>
</g>
<!-- Node0x5ccabdbc73e0&#45;&gt;Node0x5ccabdc08280 -->
<g id="edge23" class="edge">
<title>Node0x5ccabdbc73e0&#45;&gt;Node0x5ccabdc08280</title>
<path fill="none" stroke="#4a6fa5" d="M93.76,-777.71C105.78,-772.45 120.17,-766.04 133,-760 159.07,-747.72 163.43,-739.38 191,-731 261.49,-709.58 483.07,-688.98 567.18,-681.74"/>
<polygon fill="#4a6fa5" stroke="#4a6fa5" points="567.43,-683.82 573.23,-681.22 567.07,-679.64 567.43,-683.82"/>
</g>
<!-- Node0x5ccabdbefec0 -->
<g id="node29" class="node">
<title>Node0x5ccabdbefec0</title>
<path fill="#f0f4ff" stroke="black" d="M383,-210C383,-210 300,-210 300,-210 294,-210 288,-204 288,-198 288,-198 288,-186 288,-186 288,-180 294,-174 300,-174 300,-174 383,-174 383,-174 389,-174 395,-180 395,-186 395,-186 395,-198 395,-198 395,-204 389,-210 383,-210"/>
<text text-anchor="middle" x="341.5" y="-189.8" font-family="Courier,monospace" font-size="9.00">RunCallGraphMode()</text>
</g>
<!-- Node0x5ccabdbc73e0&#45;&gt;Node0x5ccabdbefec0 -->
<g id="edge24" class="edge">
<title>Node0x5ccabdbc73e0&#45;&gt;Node0x5ccabdbefec0</title>
<path fill="none" stroke="#4a6fa5" d="M93.54,-784.05C107.49,-779.99 123.69,-772.76 133,-760 204.03,-662.7 109.49,-309.7 191,-221 213.56,-196.45 250.16,-189.05 281.51,-187.86"/>
<polygon fill="#4a6fa5" stroke="#4a6fa5" points="281.75,-189.96 287.7,-187.7 281.65,-185.76 281.75,-189.96"/>
</g>
<!-- Node0x5ccabdc08340 -->
<g id="node30" class="node">
<title>Node0x5ccabdc08340</title>
<path fill="#f0f4ff" stroke="black" d="M356.5,-152C356.5,-152 326.5,-152 326.5,-152 320.5,-152 314.5,-146 314.5,-140 314.5,-140 314.5,-128 314.5,-128 314.5,-122 320.5,-116 326.5,-116 326.5,-116 356.5,-116 356.5,-116 362.5,-116 368.5,-122 368.5,-128 368.5,-128 368.5,-140 368.5,-140 368.5,-146 362.5,-152 356.5,-152"/>
<text text-anchor="middle" x="341.5" y="-131.8" font-family="Courier,monospace" font-size="9.00">dirname</text>
</g>
<!-- Node0x5ccabdbc73e0&#45;&gt;Node0x5ccabdc08340 -->
<g id="edge25" class="edge">
<title>Node0x5ccabdbc73e0&#45;&gt;Node0x5ccabdc08340</title>
<path fill="none" stroke="#4a6fa5" d="M93.59,-784.08C107.56,-780.04 123.75,-772.8 133,-760 211.03,-651.94 101.32,-261.61 191,-163 220.31,-130.78 273.81,-128.02 308.23,-130.14"/>
<polygon fill="#4a6fa5" stroke="#4a6fa5" points="308.28,-132.25 314.42,-130.59 308.59,-128.06 308.28,-132.25"/>
</g>
<!-- Node0x5ccabdbef650 -->
<g id="node31" class="node">
<title>Node0x5ccabdbef650</title>
<path fill="#f0f4ff" stroke="black" d="M438,-94C438,-94 245,-94 245,-94 239,-94 233,-88 233,-82 233,-82 233,-70 233,-70 233,-64 239,-58 245,-58 245,-58 438,-58 438,-58 444,-58 450,-64 450,-70 450,-70 450,-82 450,-82 450,-88 444,-94 438,-94"/>
<text text-anchor="middle" x="341.5" y="-73.8" font-family="Courier,monospace" font-size="9.00">IccAnalyzerSecurity::ValidateFilePath()</text>
</g>
<!-- Node0x5ccabdbc73e0&#45;&gt;Node0x5ccabdbef650 -->
<g id="edge26" class="edge">
<title>Node0x5ccabdbc73e0&#45;&gt;Node0x5ccabdbef650</title>
<path fill="none" stroke="#4a6fa5" d="M93.63,-784.11C107.62,-780.08 123.81,-772.84 133,-760 218.04,-641.17 93.15,-213.52 191,-105 200.76,-94.18 213.25,-86.67 226.84,-81.55"/>
<polygon fill="#4a6fa5" stroke="#4a6fa5" points="227.75,-83.46 232.73,-79.5 226.37,-79.49 227.75,-83.46"/>
</g>
<!-- Node0x5ccabdc03d90 -->
<g id="node32" class="node">
<title>Node0x5ccabdc03d90</title>
<path fill="#f0f4ff" stroke="black" d="M462,-36C462,-36 221,-36 221,-36 215,-36 209,-30 209,-24 209,-24 209,-12 209,-12 209,-6 215,0 221,0 221,0 462,0 462,0 468,0 474,-6 474,-12 474,-12 474,-24 474,-24 474,-30 468,-36 462,-36"/>
<text text-anchor="middle" x="341.5" y="-15.8" font-family="Courier,monospace" font-size="9.00">IccAnalyzerSecurity::GetValidationErrorMessage()</text>
</g>
<!-- Node0x5ccabdbc73e0&#45;&gt;Node0x5ccabdc03d90 -->
<g id="edge27" class="edge">
<title>Node0x5ccabdbc73e0&#45;&gt;Node0x5ccabdc03d90</title>
<path fill="none" stroke="#4a6fa5" d="M93.67,-784.14C107.66,-780.11 123.85,-772.88 133,-760 225.05,-630.4 84.97,-165.44 191,-47 194.82,-42.73 199.06,-38.98 203.63,-35.68"/>
<polygon fill="#4a6fa5" stroke="#4a6fa5" points="204.9,-37.37 208.72,-32.29 202.56,-33.88 204.9,-37.37"/>
</g>
<!-- Node0x5ccabdc0cb70 -->
<g id="node33" class="node">
<title>Node0x5ccabdc0cb70</title>
<path fill="#f0f4ff" stroke="black" d="M480,-1300C480,-1300 203,-1300 203,-1300 197,-1300 191,-1294 191,-1288 191,-1288 191,-1276 191,-1276 191,-1270 197,-1264 203,-1264 203,-1264 480,-1264 480,-1264 486,-1264 492,-1270 492,-1276 492,-1276 492,-1288 492,-1288 492,-1294 486,-1300 480,-1300"/>
<text text-anchor="middle" x="341.5" y="-1279.8" font-family="Courier,monospace" font-size="9.00">int RecoverableRun&lt;main::$_11&gt;(char const*, main::$_11)</text>
</g>
<!-- Node0x5ccabdbc73e0&#45;&gt;Node0x5ccabdc0cb70 -->
<g id="edge28" class="edge">
<title>Node0x5ccabdbc73e0&#45;&gt;Node0x5ccabdc0cb70</title>
<path fill="none" stroke="#4a6fa5" d="M73.95,-807.03C86.4,-842.26 114.21,-922.85 133,-992 164.17,-1106.67 105.85,-1170.12 191,-1253 193.8,-1255.72 196.77,-1258.23 199.89,-1260.53"/>
<polygon fill="#4a6fa5" stroke="#4a6fa5" points="198.77,-1262.31 204.9,-1263.99 201.15,-1258.85 198.77,-1262.31"/>
</g>
<!-- Node0x5ccabdc0b920 -->
<g id="node34" class="node">
<title>Node0x5ccabdc0b920</title>
<path fill="#f0f4ff" stroke="black" d="M624,-807C624,-807 578,-807 578,-807 572,-807 566,-801 566,-795 566,-795 566,-783 566,-783 566,-777 572,-771 578,-771 578,-771 624,-771 624,-771 630,-771 636,-777 636,-783 636,-783 636,-795 636,-795 636,-801 630,-807 624,-807"/>
<text text-anchor="middle" x="601" y="-786.8" font-family="Courier,monospace" font-size="9.00">sigaltstack</text>
</g>
<!-- Node0x5ccabd94e970&#45;&gt;Node0x5ccabdc0b920 -->
<g id="edge29" class="edge">
<title>Node0x5ccabd94e970&#45;&gt;Node0x5ccabdc0b920</title>
<path fill="none" stroke="#4a6fa5" d="M405.82,-810.87C453.84,-805.46 518.39,-798.19 559.61,-793.55"/>
<polygon fill="#4a6fa5" stroke="#4a6fa5" points="560.04,-795.61 565.76,-792.86 559.57,-791.44 560.04,-795.61"/>
</g>
<!-- Node0x5ccabdc0af20 -->
<g id="node35" class="node">
<title>Node0x5ccabdc0af20</title>
<path fill="#f0f4ff" stroke="black" d="M624,-865C624,-865 578,-865 578,-865 572,-865 566,-859 566,-853 566,-853 566,-841 566,-841 566,-835 572,-829 578,-829 578,-829 624,-829 624,-829 630,-829 636,-835 636,-841 636,-841 636,-853 636,-853 636,-859 630,-865 624,-865"/>
<text text-anchor="middle" x="601" y="-844.8" font-family="Courier,monospace" font-size="9.00">sigemptyset</text>
</g>
<!-- Node0x5ccabd94e970&#45;&gt;Node0x5ccabdc0af20 -->
<g id="edge30" class="edge">
<title>Node0x5ccabd94e970&#45;&gt;Node0x5ccabdc0af20</title>
<path fill="none" stroke="#4a6fa5" d="M405.82,-825.13C453.84,-830.54 518.39,-837.81 559.61,-842.45"/>
<polygon fill="#4a6fa5" stroke="#4a6fa5" points="559.57,-844.56 565.76,-843.14 560.04,-840.39 559.57,-844.56"/>
</g>
<!-- Node0x5ccabd94fd50&#45;&gt;Node0x5ccabdc08280 -->
<g id="edge31" class="edge">
<title>Node0x5ccabd94fd50&#45;&gt;Node0x5ccabdc08280</title>
<path fill="none" stroke="#4a6fa5" d="M403.2,-661.42C454.54,-666.01 526.13,-672.4 567.32,-676.08"/>
<polygon fill="#4a6fa5" stroke="#4a6fa5" points="567.25,-678.18 573.41,-676.63 567.62,-674 567.25,-678.18"/>
</g>
<!-- Node0x5ccabd950b40&#45;&gt;Node0x5ccabdb695f0 -->
<g id="edge35" class="edge">
<title>Node0x5ccabd950b40&#45;&gt;Node0x5ccabdb695f0</title>
<path fill="none" stroke="#4a6fa5" d="M440.82,-1242.04C457.93,-1245.48 475.51,-1249.19 492,-1253 508.93,-1256.91 527.23,-1261.63 543.86,-1266.12"/>
<polygon fill="#4a6fa5" stroke="#4a6fa5" points="543.57,-1268.21 549.91,-1267.76 544.67,-1264.16 543.57,-1268.21"/>
</g>
<!-- Node0x5ccabdc125c0 -->
<g id="node36" class="node">
<title>Node0x5ccabdc125c0</title>
<path fill="#f0f4ff" stroke="black" d="M624,-1242C624,-1242 578,-1242 578,-1242 572,-1242 566,-1236 566,-1230 566,-1230 566,-1218 566,-1218 566,-1212 572,-1206 578,-1206 578,-1206 624,-1206 624,-1206 630,-1206 636,-1212 636,-1218 636,-1218 636,-1230 636,-1230 636,-1236 630,-1242 624,-1242"/>
<text text-anchor="middle" x="601" y="-1221.8" font-family="Courier,monospace" font-size="9.00">__sigsetjmp</text>
</g>
<!-- Node0x5ccabd950b40&#45;&gt;Node0x5ccabdc125c0 -->
<g id="edge32" class="edge">
<title>Node0x5ccabd950b40&#45;&gt;Node0x5ccabdc125c0</title>
<path fill="none" stroke="#4a6fa5" d="M487.06,-1224C513.65,-1224 539.34,-1224 559.47,-1224"/>
<polygon fill="#4a6fa5" stroke="#4a6fa5" points="559.54,-1226.1 565.54,-1224 559.54,-1221.9 559.54,-1226.1"/>
</g>
<!-- Node0x5ccabdc142b0 -->
<g id="node37" class="node">
<title>Node0x5ccabdc142b0</title>
<path fill="#f0f4ff" stroke="black" d="M634.5,-1184C634.5,-1184 567.5,-1184 567.5,-1184 561.5,-1184 555.5,-1178 555.5,-1172 555.5,-1172 555.5,-1160 555.5,-1160 555.5,-1154 561.5,-1148 567.5,-1148 567.5,-1148 634.5,-1148 634.5,-1148 640.5,-1148 646.5,-1154 646.5,-1160 646.5,-1160 646.5,-1172 646.5,-1172 646.5,-1178 640.5,-1184 634.5,-1184"/>
<text text-anchor="middle" x="601" y="-1163.8" font-family="Courier,monospace" font-size="9.00">NormalizeExit()</text>
</g>
<!-- Node0x5ccabd950b40&#45;&gt;Node0x5ccabdc142b0 -->
<g id="edge33" class="edge">
<title>Node0x5ccabd950b40&#45;&gt;Node0x5ccabdc142b0</title>
<path fill="none" stroke="#4a6fa5" d="M440.82,-1205.96C457.93,-1202.52 475.51,-1198.81 492,-1195 510.78,-1190.66 531.24,-1185.33 549.24,-1180.42"/>
<polygon fill="#4a6fa5" stroke="#4a6fa5" points="550.02,-1182.39 555.25,-1178.78 548.91,-1178.34 550.02,-1182.39"/>
</g>
<!-- Node0x5ccabdc13230 -->
<g id="node38" class="node">
<title>Node0x5ccabdc13230</title>
<path fill="#f0f4ff" stroke="black" d="M627,-1358C627,-1358 575,-1358 575,-1358 569,-1358 563,-1352 563,-1346 563,-1346 563,-1334 563,-1334 563,-1328 569,-1322 575,-1322 575,-1322 627,-1322 627,-1322 633,-1322 639,-1328 639,-1334 639,-1334 639,-1346 639,-1346 639,-1352 633,-1358 627,-1358"/>
<text text-anchor="middle" x="601" y="-1337.8" font-family="Courier,monospace" font-size="9.00">SignalName()</text>
</g>
<!-- Node0x5ccabd950b40&#45;&gt;Node0x5ccabdc13230 -->
<g id="edge34" class="edge">
<title>Node0x5ccabd950b40&#45;&gt;Node0x5ccabdc13230</title>
<path fill="none" stroke="#4a6fa5" d="M466.88,-1242.08C475.6,-1245.17 484.06,-1248.78 492,-1253 524.19,-1270.11 521.1,-1288.78 550,-1311 553.45,-1313.65 557.16,-1316.23 560.94,-1318.7"/>
<polygon fill="#4a6fa5" stroke="#4a6fa5" points="559.94,-1320.55 566.14,-1321.98 562.19,-1317 559.94,-1320.55"/>
</g>
<!-- Node0x5ccabdbeb010&#45;&gt;Node0x5ccabdb695f0 -->
<g id="edge39" class="edge">
<title>Node0x5ccabdbeb010&#45;&gt;Node0x5ccabdb695f0</title>
<path fill="none" stroke="#4a6fa5" d="M466.88,-1184.08C475.6,-1187.17 484.06,-1190.78 492,-1195 524.19,-1212.11 521.1,-1230.78 550,-1253 553.45,-1255.65 557.16,-1258.23 560.94,-1260.7"/>
<polygon fill="#4a6fa5" stroke="#4a6fa5" points="559.94,-1262.55 566.14,-1263.98 562.19,-1259 559.94,-1262.55"/>
</g>
<!-- Node0x5ccabdbeb010&#45;&gt;Node0x5ccabdc125c0 -->
<g id="edge36" class="edge">
<title>Node0x5ccabdbeb010&#45;&gt;Node0x5ccabdc125c0</title>
<path fill="none" stroke="#4a6fa5" d="M440.82,-1184.04C457.93,-1187.48 475.51,-1191.19 492,-1195 514.55,-1200.21 539.53,-1206.86 559.77,-1212.47"/>
<polygon fill="#4a6fa5" stroke="#4a6fa5" points="559.28,-1214.51 565.62,-1214.1 560.41,-1210.47 559.28,-1214.51"/>
</g>
<!-- Node0x5ccabdbeb010&#45;&gt;Node0x5ccabdc142b0 -->
<g id="edge37" class="edge">
<title>Node0x5ccabdbeb010&#45;&gt;Node0x5ccabdc142b0</title>
<path fill="none" stroke="#4a6fa5" d="M487.06,-1166C509.41,-1166 531.11,-1166 549.42,-1166"/>
<polygon fill="#4a6fa5" stroke="#4a6fa5" points="549.5,-1168.1 555.5,-1166 549.5,-1163.9 549.5,-1168.1"/>
</g>
<!-- Node0x5ccabdbeb010&#45;&gt;Node0x5ccabdc13230 -->
<g id="edge38" class="edge">
<title>Node0x5ccabdbeb010&#45;&gt;Node0x5ccabdc13230</title>
<path fill="none" stroke="#4a6fa5" d="M474.43,-1184.1C480.62,-1187.23 486.53,-1190.84 492,-1195 537.91,-1229.85 510.52,-1269 550,-1311 552.36,-1313.51 554.99,-1315.87 557.77,-1318.08"/>
<polygon fill="#4a6fa5" stroke="#4a6fa5" points="556.85,-1320.01 562.92,-1321.88 559.34,-1316.63 556.85,-1320.01"/>
</g>
<!-- Node0x5ccabdbed530&#45;&gt;Node0x5ccabdb695f0 -->
<g id="edge43" class="edge">
<title>Node0x5ccabdbed530&#45;&gt;Node0x5ccabdb695f0</title>
<path fill="none" stroke="#4a6fa5" d="M474.43,-1126.1C480.62,-1129.23 486.53,-1132.84 492,-1137 537.91,-1171.85 510.52,-1211 550,-1253 552.36,-1255.51 554.99,-1257.87 557.77,-1260.08"/>
<polygon fill="#4a6fa5" stroke="#4a6fa5" points="556.85,-1262.01 562.92,-1263.88 559.34,-1258.63 556.85,-1262.01"/>
</g>
<!-- Node0x5ccabdbed530&#45;&gt;Node0x5ccabdc125c0 -->
<g id="edge40" class="edge">
<title>Node0x5ccabdbed530&#45;&gt;Node0x5ccabdc125c0</title>
<path fill="none" stroke="#4a6fa5" d="M466.88,-1126.08C475.6,-1129.17 484.06,-1132.78 492,-1137 524.19,-1154.11 521.1,-1172.78 550,-1195 553.45,-1197.65 557.16,-1200.23 560.94,-1202.7"/>
<polygon fill="#4a6fa5" stroke="#4a6fa5" points="559.94,-1204.55 566.14,-1205.98 562.19,-1201 559.94,-1204.55"/>
</g>
<!-- Node0x5ccabdbed530&#45;&gt;Node0x5ccabdc142b0 -->
<g id="edge41" class="edge">
<title>Node0x5ccabdbed530&#45;&gt;Node0x5ccabdc142b0</title>
<path fill="none" stroke="#4a6fa5" d="M440.82,-1126.04C457.93,-1129.48 475.51,-1133.19 492,-1137 510.78,-1141.34 531.24,-1146.67 549.24,-1151.58"/>
<polygon fill="#4a6fa5" stroke="#4a6fa5" points="548.91,-1153.66 555.25,-1153.22 550.02,-1149.61 548.91,-1153.66"/>
</g>
<!-- Node0x5ccabdbed530&#45;&gt;Node0x5ccabdc13230 -->
<g id="edge42" class="edge">
<title>Node0x5ccabdbed530&#45;&gt;Node0x5ccabdc13230</title>
<path fill="none" stroke="#4a6fa5" d="M476.9,-1126.17C482.26,-1129.31 487.33,-1132.9 492,-1137 553.27,-1190.77 498.52,-1247.79 550,-1311 552.37,-1313.91 555.12,-1316.59 558.08,-1319.04"/>
<polygon fill="#4a6fa5" stroke="#4a6fa5" points="556.84,-1320.74 562.88,-1322.71 559.39,-1317.4 556.84,-1320.74"/>
</g>
<!-- Node0x5ccabdbfeeb0 -->
<g id="node39" class="node">
<title>Node0x5ccabdbfeeb0</title>
<path fill="#f0f4ff" stroke="black" d="M616.5,-413C616.5,-413 585.5,-413 585.5,-413 579.5,-413 573.5,-407 573.5,-401 573.5,-401 573.5,-389 573.5,-389 573.5,-383 579.5,-377 585.5,-377 585.5,-377 616.5,-377 616.5,-377 622.5,-377 628.5,-383 628.5,-389 628.5,-389 628.5,-401 628.5,-401 628.5,-407 622.5,-413 616.5,-413"/>
<text text-anchor="middle" x="601" y="-392.8" font-family="Courier,monospace" font-size="9.00">substr()</text>
</g>
<!-- Node0x5ccabdc09240&#45;&gt;Node0x5ccabdbfeeb0 -->
<g id="edge80" class="edge">
<title>Node0x5ccabdc09240&#45;&gt;Node0x5ccabdbfeeb0</title>
<path fill="none" stroke="#4a6fa5" d="M405.82,-416.87C456.95,-411.11 526.84,-403.24 567.32,-398.68"/>
<polygon fill="#4a6fa5" stroke="#4a6fa5" points="567.59,-400.76 573.32,-398 567.12,-396.59 567.59,-400.76"/>
</g>
<!-- Node0x5ccabdbfe230 -->
<g id="node40" class="node">
<title>Node0x5ccabdbfe230</title>
<path fill="#f0f4ff" stroke="black" d="M619,-471C619,-471 583,-471 583,-471 577,-471 571,-465 571,-459 571,-459 571,-447 571,-447 571,-441 577,-435 583,-435 583,-435 619,-435 619,-435 625,-435 631,-441 631,-447 631,-447 631,-459 631,-459 631,-465 625,-471 619,-471"/>
<text text-anchor="middle" x="601" y="-450.8" font-family="Courier,monospace" font-size="9.00">compare()</text>
</g>
<!-- Node0x5ccabdc09240&#45;&gt;Node0x5ccabdbfe230 -->
<g id="edge81" class="edge">
<title>Node0x5ccabdc09240&#45;&gt;Node0x5ccabdbfe230</title>
<path fill="none" stroke="#4a6fa5" d="M405.82,-431.13C455.96,-436.78 524.14,-444.46 564.94,-449.05"/>
<polygon fill="#4a6fa5" stroke="#4a6fa5" points="564.8,-451.15 571,-449.73 565.27,-446.98 564.8,-451.15"/>
</g>
<!-- Node0x5ccabdbedad0&#45;&gt;Node0x5ccabdb695f0 -->
<g id="edge47" class="edge">
<title>Node0x5ccabdbedad0&#45;&gt;Node0x5ccabdb695f0</title>
<path fill="none" stroke="#4a6fa5" d="M476.9,-1068.17C482.26,-1071.31 487.33,-1074.9 492,-1079 553.27,-1132.77 498.52,-1189.79 550,-1253 552.06,-1255.53 554.4,-1257.88 556.92,-1260.07"/>
<polygon fill="#4a6fa5" stroke="#4a6fa5" points="555.63,-1261.72 561.63,-1263.81 558.24,-1258.43 555.63,-1261.72"/>
</g>
<!-- Node0x5ccabdbedad0&#45;&gt;Node0x5ccabdc125c0 -->
<g id="edge44" class="edge">
<title>Node0x5ccabdbedad0&#45;&gt;Node0x5ccabdc125c0</title>
<path fill="none" stroke="#4a6fa5" d="M474.43,-1068.1C480.62,-1071.23 486.53,-1074.84 492,-1079 537.91,-1113.85 510.52,-1153 550,-1195 553.19,-1198.39 556.87,-1201.51 560.75,-1204.34"/>
<polygon fill="#4a6fa5" stroke="#4a6fa5" points="559.62,-1206.11 565.75,-1207.76 561.99,-1202.64 559.62,-1206.11"/>
</g>
<!-- Node0x5ccabdbedad0&#45;&gt;Node0x5ccabdc142b0 -->
<g id="edge45" class="edge">
<title>Node0x5ccabdbedad0&#45;&gt;Node0x5ccabdc142b0</title>
<path fill="none" stroke="#4a6fa5" d="M463.27,-1068.07C473.19,-1071.15 482.89,-1074.77 492,-1079 525.9,-1094.75 558.41,-1123.39 578.74,-1143.5"/>
<polygon fill="#4a6fa5" stroke="#4a6fa5" points="577.41,-1145.15 583.14,-1147.91 580.39,-1142.18 577.41,-1145.15"/>
</g>
<!-- Node0x5ccabdbedad0&#45;&gt;Node0x5ccabdc13230 -->
<g id="edge46" class="edge">
<title>Node0x5ccabdbedad0&#45;&gt;Node0x5ccabdc13230</title>
<path fill="none" stroke="#4a6fa5" d="M477.96,-1068.15C482.97,-1071.31 487.68,-1074.91 492,-1079 569.13,-1152.12 486.09,-1226.07 550,-1311 552.3,-1314.05 555.02,-1316.84 557.98,-1319.37"/>
<polygon fill="#4a6fa5" stroke="#4a6fa5" points="556.79,-1321.11 562.82,-1323.14 559.38,-1317.79 556.79,-1321.11"/>
</g>
<!-- Node0x5ccabdbee3f0&#45;&gt;Node0x5ccabdb695f0 -->
<g id="edge51" class="edge">
<title>Node0x5ccabdbee3f0&#45;&gt;Node0x5ccabdb695f0</title>
<path fill="none" stroke="#4a6fa5" d="M477.96,-1010.15C482.97,-1013.31 487.68,-1016.91 492,-1021 569.13,-1094.12 486.09,-1168.07 550,-1253 551.79,-1255.38 553.84,-1257.6 556.06,-1259.66"/>
<polygon fill="#4a6fa5" stroke="#4a6fa5" points="554.89,-1261.42 560.84,-1263.67 557.6,-1258.21 554.89,-1261.42"/>
</g>
<!-- Node0x5ccabdbee3f0&#45;&gt;Node0x5ccabdc125c0 -->
<g id="edge48" class="edge">
<title>Node0x5ccabdbee3f0&#45;&gt;Node0x5ccabdc125c0</title>
<path fill="none" stroke="#4a6fa5" d="M476.9,-1010.17C482.26,-1013.31 487.33,-1016.9 492,-1021 553.27,-1074.77 498.52,-1131.79 550,-1195 553.07,-1198.77 556.78,-1202.16 560.77,-1205.17"/>
<polygon fill="#4a6fa5" stroke="#4a6fa5" points="559.82,-1207.07 565.94,-1208.78 562.22,-1203.62 559.82,-1207.07"/>
</g>
<!-- Node0x5ccabdbee3f0&#45;&gt;Node0x5ccabdc142b0 -->
<g id="edge49" class="edge">
<title>Node0x5ccabdbee3f0&#45;&gt;Node0x5ccabdc142b0</title>
<path fill="none" stroke="#4a6fa5" d="M470.62,-1010.03C478.09,-1013.15 485.28,-1016.78 492,-1021 539.48,-1050.84 573.29,-1109.66 589.39,-1142.47"/>
<polygon fill="#4a6fa5" stroke="#4a6fa5" points="587.5,-1143.4 592,-1147.89 591.29,-1141.57 587.5,-1143.4"/>
</g>
<!-- Node0x5ccabdbee3f0&#45;&gt;Node0x5ccabdc13230 -->
<g id="edge50" class="edge">
<title>Node0x5ccabdbee3f0&#45;&gt;Node0x5ccabdc13230</title>
<path fill="none" stroke="#4a6fa5" d="M478.54,-1010.12C483.36,-1013.29 487.88,-1016.9 492,-1021 585.21,-1113.67 473.49,-1204.12 550,-1311 552.22,-1314.11 554.89,-1316.93 557.82,-1319.49"/>
<polygon fill="#4a6fa5" stroke="#4a6fa5" points="556.61,-1321.2 562.62,-1323.28 559.22,-1317.91 556.61,-1321.2"/>
</g>
<!-- Node0x5ccabdbec360&#45;&gt;Node0x5ccabdb695f0 -->
<g id="edge55" class="edge">
<title>Node0x5ccabdbec360&#45;&gt;Node0x5ccabdb695f0</title>
<path fill="none" stroke="#4a6fa5" d="M478.54,-952.12C483.36,-955.29 487.88,-958.9 492,-963 585.21,-1055.67 473.49,-1146.12 550,-1253 551.73,-1255.42 553.74,-1257.67 555.93,-1259.76"/>
<polygon fill="#4a6fa5" stroke="#4a6fa5" points="554.73,-1261.5 560.65,-1263.81 557.46,-1258.31 554.73,-1261.5"/>
</g>
<!-- Node0x5ccabdbec360&#45;&gt;Node0x5ccabdc125c0 -->
<g id="edge52" class="edge">
<title>Node0x5ccabdbec360&#45;&gt;Node0x5ccabdc125c0</title>
<path fill="none" stroke="#4a6fa5" d="M477.96,-952.15C482.97,-955.31 487.68,-958.91 492,-963 569.13,-1036.12 486.09,-1110.07 550,-1195 553.04,-1199.03 556.81,-1202.6 560.91,-1205.73"/>
<polygon fill="#4a6fa5" stroke="#4a6fa5" points="559.74,-1207.48 565.86,-1209.21 562.16,-1204.04 559.74,-1207.48"/>
</g>
<!-- Node0x5ccabdbec360&#45;&gt;Node0x5ccabdc142b0 -->
<g id="edge53" class="edge">
<title>Node0x5ccabdbec360&#45;&gt;Node0x5ccabdc142b0</title>
<path fill="none" stroke="#4a6fa5" d="M473.94,-952.09C480.3,-955.22 486.37,-958.83 492,-963 553.19,-1008.25 583.13,-1098.67 594.44,-1141.9"/>
<polygon fill="#4a6fa5" stroke="#4a6fa5" points="592.46,-1142.63 595.97,-1147.92 596.53,-1141.59 592.46,-1142.63"/>
</g>
<!-- Node0x5ccabdbec360&#45;&gt;Node0x5ccabdc13230 -->
<g id="edge54" class="edge">
<title>Node0x5ccabdbec360&#45;&gt;Node0x5ccabdc13230</title>
<path fill="none" stroke="#4a6fa5" d="M479.03,-952.17C483.68,-955.34 488.03,-958.93 492,-963 601.4,-1075.33 460.79,-1182.05 550,-1311 552.25,-1314.25 554.99,-1317.19 558.01,-1319.83"/>
<polygon fill="#4a6fa5" stroke="#4a6fa5" points="556.96,-1321.67 562.98,-1323.74 559.56,-1318.38 556.96,-1321.67"/>
</g>
<!-- Node0x5ccabdbeefd0&#45;&gt;Node0x5ccabdb695f0 -->
<g id="edge59" class="edge">
<title>Node0x5ccabdbeefd0&#45;&gt;Node0x5ccabdb695f0</title>
<path fill="none" stroke="#4a6fa5" d="M477.96,-1553.85C482.97,-1550.69 487.68,-1547.09 492,-1543 569.13,-1469.88 486.09,-1395.93 550,-1311 551.79,-1308.62 553.84,-1306.4 556.06,-1304.34"/>
<polygon fill="#4a6fa5" stroke="#4a6fa5" points="557.6,-1305.79 560.84,-1300.33 554.89,-1302.58 557.6,-1305.79"/>
</g>
<!-- Node0x5ccabdbeefd0&#45;&gt;Node0x5ccabdc125c0 -->
<g id="edge56" class="edge">
<title>Node0x5ccabdbeefd0&#45;&gt;Node0x5ccabdc125c0</title>
<path fill="none" stroke="#4a6fa5" d="M478.54,-1553.88C483.36,-1550.71 487.88,-1547.1 492,-1543 585.21,-1450.33 473.49,-1359.88 550,-1253 552.98,-1248.84 556.76,-1245.18 560.9,-1241.99"/>
<polygon fill="#4a6fa5" stroke="#4a6fa5" points="562.21,-1243.64 565.9,-1238.47 559.79,-1240.21 562.21,-1243.64"/>
</g>
<!-- Node0x5ccabdbeefd0&#45;&gt;Node0x5ccabdc142b0 -->
<g id="edge57" class="edge">
<title>Node0x5ccabdbeefd0&#45;&gt;Node0x5ccabdc142b0</title>
<path fill="none" stroke="#4a6fa5" d="M479.03,-1553.83C483.68,-1550.66 488.03,-1547.07 492,-1543 601.4,-1430.67 460.79,-1323.95 550,-1195 551.69,-1192.55 553.67,-1190.28 555.83,-1188.18"/>
<polygon fill="#4a6fa5" stroke="#4a6fa5" points="557.37,-1189.62 560.52,-1184.1 554.62,-1186.45 557.37,-1189.62"/>
</g>
<!-- Node0x5ccabdbeefd0&#45;&gt;Node0x5ccabdc13230 -->
<g id="edge58" class="edge">
<title>Node0x5ccabdbeefd0&#45;&gt;Node0x5ccabdc13230</title>
<path fill="none" stroke="#4a6fa5" d="M473.94,-1553.91C480.3,-1550.78 486.37,-1547.17 492,-1543 553.19,-1497.75 583.13,-1407.33 594.44,-1364.1"/>
<polygon fill="#4a6fa5" stroke="#4a6fa5" points="596.53,-1364.41 595.97,-1358.08 592.46,-1363.37 596.53,-1364.41"/>
</g>
<!-- Node0x5ccabdbeec50&#45;&gt;Node0x5ccabdb695f0 -->
<g id="edge63" class="edge">
<title>Node0x5ccabdbeec50&#45;&gt;Node0x5ccabdb695f0</title>
<path fill="none" stroke="#4a6fa5" d="M476.9,-1495.83C482.26,-1492.69 487.33,-1489.1 492,-1485 553.27,-1431.23 498.52,-1374.21 550,-1311 552.06,-1308.47 554.4,-1306.12 556.92,-1303.93"/>
<polygon fill="#4a6fa5" stroke="#4a6fa5" points="558.24,-1305.57 561.63,-1300.19 555.63,-1302.28 558.24,-1305.57"/>
</g>
<!-- Node0x5ccabdbeec50&#45;&gt;Node0x5ccabdc125c0 -->
<g id="edge60" class="edge">
<title>Node0x5ccabdbeec50&#45;&gt;Node0x5ccabdc125c0</title>
<path fill="none" stroke="#4a6fa5" d="M477.96,-1495.85C482.97,-1492.69 487.68,-1489.09 492,-1485 569.13,-1411.88 486.09,-1337.93 550,-1253 553.04,-1248.97 556.81,-1245.4 560.91,-1242.27"/>
<polygon fill="#4a6fa5" stroke="#4a6fa5" points="562.16,-1243.96 565.86,-1238.79 559.74,-1240.52 562.16,-1243.96"/>
</g>
<!-- Node0x5ccabdbeec50&#45;&gt;Node0x5ccabdc142b0 -->
<g id="edge61" class="edge">
<title>Node0x5ccabdbeec50&#45;&gt;Node0x5ccabdc142b0</title>
<path fill="none" stroke="#4a6fa5" d="M478.54,-1495.88C483.36,-1492.71 487.88,-1489.1 492,-1485 585.21,-1392.33 473.49,-1301.88 550,-1195 551.73,-1192.58 553.74,-1190.33 555.93,-1188.24"/>
<polygon fill="#4a6fa5" stroke="#4a6fa5" points="557.46,-1189.69 560.65,-1184.19 554.73,-1186.5 557.46,-1189.69"/>
</g>
<!-- Node0x5ccabdbeec50&#45;&gt;Node0x5ccabdc13230 -->
<g id="edge62" class="edge">
<title>Node0x5ccabdbeec50&#45;&gt;Node0x5ccabdc13230</title>
<path fill="none" stroke="#4a6fa5" d="M470.62,-1495.97C478.09,-1492.85 485.28,-1489.22 492,-1485 539.48,-1455.16 573.29,-1396.34 589.39,-1363.53"/>
<polygon fill="#4a6fa5" stroke="#4a6fa5" points="591.29,-1364.43 592,-1358.11 587.5,-1362.6 591.29,-1364.43"/>
</g>
<!-- Node0x5ccabdbefd00&#45;&gt;Node0x5ccabdb695f0 -->
<g id="edge67" class="edge">
<title>Node0x5ccabdbefd00&#45;&gt;Node0x5ccabdb695f0</title>
<path fill="none" stroke="#4a6fa5" d="M474.43,-1437.9C480.62,-1434.77 486.53,-1431.16 492,-1427 537.91,-1392.15 510.52,-1353 550,-1311 552.36,-1308.49 554.99,-1306.13 557.77,-1303.92"/>
<polygon fill="#4a6fa5" stroke="#4a6fa5" points="559.34,-1305.37 562.92,-1300.12 556.85,-1301.99 559.34,-1305.37"/>
</g>
<!-- Node0x5ccabdbefd00&#45;&gt;Node0x5ccabdc125c0 -->
<g id="edge64" class="edge">
<title>Node0x5ccabdbefd00&#45;&gt;Node0x5ccabdc125c0</title>
<path fill="none" stroke="#4a6fa5" d="M476.9,-1437.83C482.26,-1434.69 487.33,-1431.1 492,-1427 553.27,-1373.23 498.52,-1316.21 550,-1253 553.07,-1249.23 556.78,-1245.84 560.77,-1242.83"/>
<polygon fill="#4a6fa5" stroke="#4a6fa5" points="562.22,-1244.38 565.94,-1239.22 559.82,-1240.93 562.22,-1244.38"/>
</g>
<!-- Node0x5ccabdbefd00&#45;&gt;Node0x5ccabdc142b0 -->
<g id="edge65" class="edge">
<title>Node0x5ccabdbefd00&#45;&gt;Node0x5ccabdc142b0</title>
<path fill="none" stroke="#4a6fa5" d="M477.96,-1437.85C482.97,-1434.69 487.68,-1431.09 492,-1427 569.13,-1353.88 486.09,-1279.93 550,-1195 551.79,-1192.62 553.84,-1190.4 556.06,-1188.34"/>
<polygon fill="#4a6fa5" stroke="#4a6fa5" points="557.6,-1189.79 560.84,-1184.33 554.89,-1186.58 557.6,-1189.79"/>
</g>
<!-- Node0x5ccabdbefd00&#45;&gt;Node0x5ccabdc13230 -->
<g id="edge66" class="edge">
<title>Node0x5ccabdbefd00&#45;&gt;Node0x5ccabdc13230</title>
<path fill="none" stroke="#4a6fa5" d="M463.27,-1437.93C473.19,-1434.85 482.89,-1431.23 492,-1427 525.9,-1411.25 558.41,-1382.61 578.74,-1362.5"/>
<polygon fill="#4a6fa5" stroke="#4a6fa5" points="580.39,-1363.82 583.14,-1358.09 577.41,-1360.85 580.39,-1363.82"/>
</g>
<!-- Node0x5ccabdbfbff0&#45;&gt;Node0x5ccabdb695f0 -->
<g id="edge71" class="edge">
<title>Node0x5ccabdbfbff0&#45;&gt;Node0x5ccabdb695f0</title>
<path fill="none" stroke="#4a6fa5" d="M466.88,-1379.92C475.6,-1376.83 484.06,-1373.22 492,-1369 524.19,-1351.89 521.1,-1333.22 550,-1311 553.45,-1308.35 557.16,-1305.77 560.94,-1303.3"/>
<polygon fill="#4a6fa5" stroke="#4a6fa5" points="562.19,-1305 566.14,-1300.02 559.94,-1301.45 562.19,-1305"/>
</g>
<!-- Node0x5ccabdbfbff0&#45;&gt;Node0x5ccabdc125c0 -->
<g id="edge68" class="edge">
<title>Node0x5ccabdbfbff0&#45;&gt;Node0x5ccabdc125c0</title>
<path fill="none" stroke="#4a6fa5" d="M474.43,-1379.9C480.62,-1376.77 486.53,-1373.16 492,-1369 537.91,-1334.15 510.52,-1295 550,-1253 553.19,-1249.61 556.87,-1246.49 560.75,-1243.66"/>
<polygon fill="#4a6fa5" stroke="#4a6fa5" points="561.99,-1245.36 565.75,-1240.24 559.62,-1241.89 561.99,-1245.36"/>
</g>
<!-- Node0x5ccabdbfbff0&#45;&gt;Node0x5ccabdc142b0 -->
<g id="edge69" class="edge">
<title>Node0x5ccabdbfbff0&#45;&gt;Node0x5ccabdc142b0</title>
<path fill="none" stroke="#4a6fa5" d="M476.9,-1379.83C482.26,-1376.69 487.33,-1373.1 492,-1369 553.27,-1315.23 498.52,-1258.21 550,-1195 552.06,-1192.47 554.4,-1190.12 556.92,-1187.93"/>
<polygon fill="#4a6fa5" stroke="#4a6fa5" points="558.24,-1189.57 561.63,-1184.19 555.63,-1186.28 558.24,-1189.57"/>
</g>
<!-- Node0x5ccabdbfbff0&#45;&gt;Node0x5ccabdc13230 -->
<g id="edge70" class="edge">
<title>Node0x5ccabdbfbff0&#45;&gt;Node0x5ccabdc13230</title>
<path fill="none" stroke="#4a6fa5" d="M440.82,-1379.96C457.93,-1376.52 475.51,-1372.81 492,-1369 513.43,-1364.05 537.04,-1357.8 556.71,-1352.38"/>
<polygon fill="#4a6fa5" stroke="#4a6fa5" points="557.46,-1354.35 562.68,-1350.72 556.33,-1350.3 557.46,-1354.35"/>
</g>
<!-- Node0x5ccabdbecbc0&#45;&gt;Node0x5ccabdb695f0 -->
<g id="edge75" class="edge">
<title>Node0x5ccabdbecbc0&#45;&gt;Node0x5ccabdb695f0</title>
<path fill="none" stroke="#4a6fa5" d="M440.82,-1321.96C457.93,-1318.52 475.51,-1314.81 492,-1311 508.93,-1307.09 527.23,-1302.37 543.86,-1297.88"/>
<polygon fill="#4a6fa5" stroke="#4a6fa5" points="544.67,-1299.84 549.91,-1296.24 543.57,-1295.79 544.67,-1299.84"/>
</g>
<!-- Node0x5ccabdbecbc0&#45;&gt;Node0x5ccabdc125c0 -->
<g id="edge72" class="edge">
<title>Node0x5ccabdbecbc0&#45;&gt;Node0x5ccabdc125c0</title>
<path fill="none" stroke="#4a6fa5" d="M466.88,-1321.92C475.6,-1318.83 484.06,-1315.22 492,-1311 524.19,-1293.89 521.1,-1275.22 550,-1253 553.45,-1250.35 557.16,-1247.77 560.94,-1245.3"/>
<polygon fill="#4a6fa5" stroke="#4a6fa5" points="562.19,-1247 566.14,-1242.02 559.94,-1243.45 562.19,-1247"/>
</g>
<!-- Node0x5ccabdbecbc0&#45;&gt;Node0x5ccabdc142b0 -->
<g id="edge73" class="edge">
<title>Node0x5ccabdbecbc0&#45;&gt;Node0x5ccabdc142b0</title>
<path fill="none" stroke="#4a6fa5" d="M474.43,-1321.9C480.62,-1318.77 486.53,-1315.16 492,-1311 537.91,-1276.15 510.52,-1237 550,-1195 552.36,-1192.49 554.99,-1190.13 557.77,-1187.92"/>
<polygon fill="#4a6fa5" stroke="#4a6fa5" points="559.34,-1189.37 562.92,-1184.12 556.85,-1185.99 559.34,-1189.37"/>
</g>
<!-- Node0x5ccabdbecbc0&#45;&gt;Node0x5ccabdc13230 -->
<g id="edge74" class="edge">
<title>Node0x5ccabdbecbc0&#45;&gt;Node0x5ccabdc13230</title>
<path fill="none" stroke="#4a6fa5" d="M492.29,-1340C515.75,-1340 538.25,-1340 556.56,-1340"/>
<polygon fill="#4a6fa5" stroke="#4a6fa5" points="556.61,-1342.1 562.61,-1340 556.61,-1337.9 556.61,-1342.1"/>
</g>
<!-- Node0x5ccabdc0cb70&#45;&gt;Node0x5ccabdb695f0 -->
<g id="edge79" class="edge">
<title>Node0x5ccabdc0cb70&#45;&gt;Node0x5ccabdb695f0</title>
<path fill="none" stroke="#4a6fa5" d="M492.29,-1282C510.55,-1282 528.24,-1282 543.82,-1282"/>
<polygon fill="#4a6fa5" stroke="#4a6fa5" points="543.91,-1284.1 549.91,-1282 543.91,-1279.9 543.91,-1284.1"/>
</g>
<!-- Node0x5ccabdc0cb70&#45;&gt;Node0x5ccabdc125c0 -->
<g id="edge76" class="edge">
<title>Node0x5ccabdc0cb70&#45;&gt;Node0x5ccabdc125c0</title>
<path fill="none" stroke="#4a6fa5" d="M440.82,-1263.96C457.93,-1260.52 475.51,-1256.81 492,-1253 514.55,-1247.79 539.53,-1241.14 559.77,-1235.53"/>
<polygon fill="#4a6fa5" stroke="#4a6fa5" points="560.41,-1237.53 565.62,-1233.9 559.28,-1233.49 560.41,-1237.53"/>
</g>
<!-- Node0x5ccabdc0cb70&#45;&gt;Node0x5ccabdc142b0 -->
<g id="edge77" class="edge">
<title>Node0x5ccabdc0cb70&#45;&gt;Node0x5ccabdc142b0</title>
<path fill="none" stroke="#4a6fa5" d="M466.88,-1263.92C475.6,-1260.83 484.06,-1257.22 492,-1253 524.19,-1235.89 521.1,-1217.22 550,-1195 553.45,-1192.35 557.16,-1189.77 560.94,-1187.3"/>
<polygon fill="#4a6fa5" stroke="#4a6fa5" points="562.19,-1189 566.14,-1184.02 559.94,-1185.45 562.19,-1189"/>
</g>
<!-- Node0x5ccabdc0cb70&#45;&gt;Node0x5ccabdc13230 -->
<g id="edge78" class="edge">
<title>Node0x5ccabdc0cb70&#45;&gt;Node0x5ccabdc13230</title>
<path fill="none" stroke="#4a6fa5" d="M440.82,-1300.04C457.93,-1303.48 475.51,-1307.19 492,-1311 513.43,-1315.95 537.04,-1322.2 556.71,-1327.62"/>
<polygon fill="#4a6fa5" stroke="#4a6fa5" points="556.33,-1329.7 562.68,-1329.28 557.46,-1325.65 556.33,-1329.7"/>
</g>
<!-- Node0x5ccabdc2d080 -->
<g id="node41" class="node">
<title>Node0x5ccabdc2d080</title>
<path fill="#f0f4ff" stroke="black" d="M118.5,-1648C118.5,-1648 14.5,-1648 14.5,-1648 8.5,-1648 2.5,-1642 2.5,-1636 2.5,-1636 2.5,-1624 2.5,-1624 2.5,-1618 8.5,-1612 14.5,-1612 14.5,-1612 118.5,-1612 118.5,-1612 124.5,-1612 130.5,-1618 130.5,-1624 130.5,-1624 130.5,-1636 130.5,-1636 130.5,-1642 124.5,-1648 118.5,-1648"/>
<text text-anchor="middle" x="66.5" y="-1627.8" font-family="Courier,monospace" font-size="9.00">CrashRecoveryHandler()</text>
</g>
<!-- Node0x5ccabdc31720 -->
<g id="node42" class="node">
<title>Node0x5ccabdc31720</title>
<path fill="#f0f4ff" stroke="black" d="M356.5,-1648C356.5,-1648 326.5,-1648 326.5,-1648 320.5,-1648 314.5,-1642 314.5,-1636 314.5,-1636 314.5,-1624 314.5,-1624 314.5,-1618 320.5,-1612 326.5,-1612 326.5,-1612 356.5,-1612 356.5,-1612 362.5,-1612 368.5,-1618 368.5,-1624 368.5,-1624 368.5,-1636 368.5,-1636 368.5,-1642 362.5,-1648 356.5,-1648"/>
<text text-anchor="middle" x="341.5" y="-1627.8" font-family="Courier,monospace" font-size="9.00">raise</text>
</g>
<!-- Node0x5ccabdc2d080&#45;&gt;Node0x5ccabdc31720 -->
<g id="edge82" class="edge">
<title>Node0x5ccabdc2d080&#45;&gt;Node0x5ccabdc31720</title>
<path fill="none" stroke="#4a6fa5" d="M130.82,-1630C186.22,-1630 264.45,-1630 308,-1630"/>
<polygon fill="#4a6fa5" stroke="#4a6fa5" points="308.17,-1632.1 314.17,-1630 308.17,-1627.9 308.17,-1632.1"/>
</g>
<!-- Node0x5ccabdc37f60 -->
<g id="node43" class="node">
<title>Node0x5ccabdc37f60</title>
<path fill="#f0f4ff" stroke="black" d="M116,-1706C116,-1706 17,-1706 17,-1706 11,-1706 5,-1700 5,-1694 5,-1694 5,-1682 5,-1682 5,-1676 11,-1670 17,-1670 17,-1670 116,-1670 116,-1670 122,-1670 128,-1676 128,-1682 128,-1682 128,-1694 128,-1694 128,-1700 122,-1706 116,-1706"/>
<text text-anchor="middle" x="66.5" y="-1685.8" font-family="Courier,monospace" font-size="9.00">true::_Rb_tree_impl()</text>
</g>
<!-- Node0x5ccabdc28840 -->
<g id="node44" class="node">
<title>Node0x5ccabdc28840</title>
<path fill="#f0f4ff" stroke="black" d="M84.5,-1764C84.5,-1764 48.5,-1764 48.5,-1764 42.5,-1764 36.5,-1758 36.5,-1752 36.5,-1752 36.5,-1740 36.5,-1740 36.5,-1734 42.5,-1728 48.5,-1728 48.5,-1728 84.5,-1728 84.5,-1728 90.5,-1728 96.5,-1734 96.5,-1740 96.5,-1740 96.5,-1752 96.5,-1752 96.5,-1758 90.5,-1764 84.5,-1764"/>
<text text-anchor="middle" x="66.5" y="-1743.8" font-family="Courier,monospace" font-size="9.00">compare()</text>
</g>
<!-- Node0x5ccabdc4a2f0 -->
<g id="node45" class="node">
<title>Node0x5ccabdc4a2f0</title>
<path fill="#f0f4ff" stroke="black" d="M118.5,-1822C118.5,-1822 14.5,-1822 14.5,-1822 8.5,-1822 2.5,-1816 2.5,-1810 2.5,-1810 2.5,-1798 2.5,-1798 2.5,-1792 8.5,-1786 14.5,-1786 14.5,-1786 118.5,-1786 118.5,-1786 124.5,-1786 130.5,-1792 130.5,-1798 130.5,-1798 130.5,-1810 130.5,-1810 130.5,-1816 124.5,-1822 118.5,-1822"/>
<text text-anchor="middle" x="66.5" y="-1801.8" font-family="Courier,monospace" font-size="9.00">true::~_Rb_tree_impl()</text>
</g>
<!-- Node0x5ccabdbf74f0 -->
<g id="node46" class="node">
<title>Node0x5ccabdbf74f0</title>
<path fill="#f0f4ff" stroke="black" d="M82,-1880C82,-1880 51,-1880 51,-1880 45,-1880 39,-1874 39,-1868 39,-1868 39,-1856 39,-1856 39,-1850 45,-1844 51,-1844 51,-1844 82,-1844 82,-1844 88,-1844 94,-1850 94,-1856 94,-1856 94,-1868 94,-1868 94,-1874 88,-1880 82,-1880"/>
<text text-anchor="middle" x="66.5" y="-1859.8" font-family="Courier,monospace" font-size="9.00">length()</text>
</g>
<!-- Node0x5ccabdc54800 -->
<g id="node47" class="node">
<title>Node0x5ccabdc54800</title>
<path fill="#f0f4ff" stroke="black" d="M103,-1938C103,-1938 30,-1938 30,-1938 24,-1938 18,-1932 18,-1926 18,-1926 18,-1914 18,-1914 18,-1908 24,-1902 30,-1902 30,-1902 103,-1902 103,-1902 109,-1902 115,-1908 115,-1914 115,-1914 115,-1926 115,-1926 115,-1932 109,-1938 103,-1938"/>
<text text-anchor="middle" x="66.5" y="-1917.8" font-family="Courier,monospace" font-size="9.00">_Guard::_Guard()</text>
</g>
<!-- Node0x5ccabdc541a0 -->
<g id="node48" class="node">
<title>Node0x5ccabdc541a0</title>
<path fill="#f0f4ff" stroke="black" d="M105.5,-1996C105.5,-1996 27.5,-1996 27.5,-1996 21.5,-1996 15.5,-1990 15.5,-1984 15.5,-1984 15.5,-1972 15.5,-1972 15.5,-1966 21.5,-1960 27.5,-1960 27.5,-1960 105.5,-1960 105.5,-1960 111.5,-1960 117.5,-1966 117.5,-1972 117.5,-1972 117.5,-1984 117.5,-1984 117.5,-1990 111.5,-1996 105.5,-1996"/>
<text text-anchor="middle" x="66.5" y="-1975.8" font-family="Courier,monospace" font-size="9.00">_Guard::~_Guard()</text>
</g>
<!-- Node0x5ccabdc57bc0 -->
<g id="node49" class="node">
<title>Node0x5ccabdc57bc0</title>
<path fill="#f0f4ff" stroke="black" d="M108,-2054C108,-2054 25,-2054 25,-2054 19,-2054 13,-2048 13,-2042 13,-2042 13,-2030 13,-2030 13,-2024 19,-2018 25,-2018 25,-2018 108,-2018 108,-2018 114,-2018 120,-2024 120,-2030 120,-2030 120,-2042 120,-2042 120,-2048 114,-2054 108,-2054"/>
<text text-anchor="middle" x="66.5" y="-2033.8" font-family="Courier,monospace" font-size="9.00">HeuristicAnalyze()</text>
</g>
<!-- Node0x5ccabdc57140 -->
<g id="node50" class="node">
<title>Node0x5ccabdc57140</title>
<path fill="#f0f4ff" stroke="black" d="M108,-2112C108,-2112 25,-2112 25,-2112 19,-2112 13,-2106 13,-2100 13,-2100 13,-2088 13,-2088 13,-2082 19,-2076 25,-2076 25,-2076 108,-2076 108,-2076 114,-2076 120,-2082 120,-2088 120,-2088 120,-2100 120,-2100 120,-2106 114,-2112 108,-2112"/>
<text text-anchor="middle" x="66.5" y="-2091.8" font-family="Courier,monospace" font-size="9.00">RoundTripAnalyze()</text>
</g>
<!-- Node0x5ccabdc55e80 -->
<g id="node51" class="node">
<title>Node0x5ccabdc55e80</title>
<path fill="#f0f4ff" stroke="black" d="M110.5,-2170C110.5,-2170 22.5,-2170 22.5,-2170 16.5,-2170 10.5,-2164 10.5,-2158 10.5,-2158 10.5,-2146 10.5,-2146 10.5,-2140 16.5,-2134 22.5,-2134 22.5,-2134 110.5,-2134 110.5,-2134 116.5,-2134 122.5,-2140 122.5,-2146 122.5,-2146 122.5,-2158 122.5,-2158 122.5,-2164 116.5,-2170 110.5,-2170"/>
<text text-anchor="middle" x="66.5" y="-2149.8" font-family="Courier,monospace" font-size="9.00">RunWithJsonOutput()</text>
</g>
<!-- Node0x5ccabdc21b60 -->
<g id="node52" class="node">
<title>Node0x5ccabdc21b60</title>
<path fill="#f0f4ff" stroke="black" d="M116,-2228C116,-2228 17,-2228 17,-2228 11,-2228 5,-2222 5,-2216 5,-2216 5,-2204 5,-2204 5,-2198 11,-2192 17,-2192 17,-2192 116,-2192 116,-2192 122,-2192 128,-2198 128,-2204 128,-2204 128,-2216 128,-2216 128,-2222 122,-2228 116,-2228"/>
<text text-anchor="middle" x="66.5" y="-2207.8" font-family="Courier,monospace" font-size="9.00">RunWithReportOutput()</text>
</g>
<!-- Node0x5ccabdc21be0 -->
<g id="node53" class="node">
<title>Node0x5ccabdc21be0</title>
<path fill="#f0f4ff" stroke="black" d="M108,-2286C108,-2286 25,-2286 25,-2286 19,-2286 13,-2280 13,-2274 13,-2274 13,-2262 13,-2262 13,-2256 19,-2250 25,-2250 25,-2250 108,-2250 108,-2250 114,-2250 120,-2256 120,-2262 120,-2262 120,-2274 120,-2274 120,-2280 114,-2286 108,-2286"/>
<text text-anchor="middle" x="66.5" y="-2265.8" font-family="Courier,monospace" font-size="9.00">AnalyzeTiffImage()</text>
</g>
<!-- Node0x5ccabdc685d0 -->
<g id="node54" class="node">
<title>Node0x5ccabdc685d0</title>
<path fill="#f0f4ff" stroke="black" d="M105.5,-2344C105.5,-2344 27.5,-2344 27.5,-2344 21.5,-2344 15.5,-2338 15.5,-2332 15.5,-2332 15.5,-2320 15.5,-2320 15.5,-2314 21.5,-2308 27.5,-2308 27.5,-2308 105.5,-2308 105.5,-2308 111.5,-2308 117.5,-2314 117.5,-2320 117.5,-2320 117.5,-2332 117.5,-2332 117.5,-2338 111.5,-2344 105.5,-2344"/>
<text text-anchor="middle" x="66.5" y="-2323.8" font-family="Courier,monospace" font-size="9.00">AnalyzePngImage()</text>
</g>
<!-- Node0x5ccabdc68350 -->
<g id="node55" class="node">
<title>Node0x5ccabdc68350</title>
<path fill="#f0f4ff" stroke="black" d="M108,-2402C108,-2402 25,-2402 25,-2402 19,-2402 13,-2396 13,-2390 13,-2390 13,-2378 13,-2378 13,-2372 19,-2366 25,-2366 25,-2366 108,-2366 108,-2366 114,-2366 120,-2372 120,-2378 120,-2378 120,-2390 120,-2390 120,-2396 114,-2402 108,-2402"/>
<text text-anchor="middle" x="66.5" y="-2381.8" font-family="Courier,monospace" font-size="9.00">AnalyzeJpegImage()</text>
</g>
<!-- Node0x5ccabdc6a370 -->
<g id="node56" class="node">
<title>Node0x5ccabdc6a370</title>
<path fill="#f0f4ff" stroke="black" d="M118.5,-2460C118.5,-2460 14.5,-2460 14.5,-2460 8.5,-2460 2.5,-2454 2.5,-2448 2.5,-2448 2.5,-2436 2.5,-2436 2.5,-2430 8.5,-2424 14.5,-2424 14.5,-2424 118.5,-2424 118.5,-2424 124.5,-2424 130.5,-2430 130.5,-2436 130.5,-2436 130.5,-2448 130.5,-2448 130.5,-2454 124.5,-2460 118.5,-2460"/>
<text text-anchor="middle" x="66.5" y="-2439.8" font-family="Courier,monospace" font-size="9.00">ComprehensiveAnalyze()</text>
</g>
<!-- Node0x5ccabdc3bdb0 -->
<g id="node57" class="node">
<title>Node0x5ccabdc3bdb0</title>
<path fill="#f0f4ff" stroke="black" d="M108,-2518C108,-2518 25,-2518 25,-2518 19,-2518 13,-2512 13,-2506 13,-2506 13,-2494 13,-2494 13,-2488 19,-2482 25,-2482 25,-2482 108,-2482 108,-2482 114,-2482 120,-2488 120,-2494 120,-2494 120,-2506 120,-2506 120,-2512 114,-2518 108,-2518"/>
<text text-anchor="middle" x="66.5" y="-2497.8" font-family="Courier,monospace" font-size="9.00">AnalyzeImageFile()</text>
</g>
<!-- Node0x5ccabdc3bc40 -->
<g id="node58" class="node">
<title>Node0x5ccabdc3bc40</title>
<path fill="#f0f4ff" stroke="black" d="M108,-2576C108,-2576 25,-2576 25,-2576 19,-2576 13,-2570 13,-2564 13,-2564 13,-2552 13,-2552 13,-2546 19,-2540 25,-2540 25,-2540 108,-2540 108,-2540 114,-2540 120,-2546 120,-2552 120,-2552 120,-2564 120,-2564 120,-2570 114,-2576 108,-2576"/>
<text text-anchor="middle" x="66.5" y="-2555.8" font-family="Courier,monospace" font-size="9.00">NinjaModeAnalyze()</text>
</g>
<!-- Node0x5ccabd9583d0 -->
<g id="node59" class="node">
<title>Node0x5ccabd9583d0</title>
<path fill="#f0f4ff" stroke="black" d="M103,-2634C103,-2634 30,-2634 30,-2634 24,-2634 18,-2628 18,-2622 18,-2622 18,-2610 18,-2610 18,-2604 24,-2598 30,-2598 30,-2598 103,-2598 103,-2598 109,-2598 115,-2604 115,-2610 115,-2610 115,-2622 115,-2622 115,-2628 109,-2634 103,-2634"/>
<text text-anchor="middle" x="66.5" y="-2613.8" font-family="Courier,monospace" font-size="9.00">ExtractLutData()</text>
</g>
</g>
</svg>
