<?xml version="1.0" encoding="UTF-8" standalone="no"?>
<!DOCTYPE svg PUBLIC "-//W3C//DTD SVG 1.1//EN"
 "http://www.w3.org/Graphics/SVG/1.1/DTD/svg11.dtd">
<!-- Generated by graphviz version 2.43.0 (0)
 -->
<!-- Title: Call graph: /home/h02332/po/research/call&#45;graph/analyzer/IccAnalyzerSignatures.ll Pages: 1 -->
<svg width="3406pt" height="14400pt"
 viewBox="0.00 0.00 3405.97 14400.00" xmlns="http://www.w3.org/2000/svg" xmlns:xlink="http://www.w3.org/1999/xlink">
<g id="graph0" class="graph" transform="scale(1.88 1.88) rotate(0) translate(36 7608)">
<title>Call graph: /home/h02332/po/research/call&#45;graph/analyzer/IccAnalyzerSignatures.ll</title>
<polygon fill="white" stroke="transparent" points="-36,36 -36,-7608 1772,-7608 1772,36 -36,36"/>
<!-- Node0x644d32391030 -->
<g id="node1" class="node">
<title>Node0x644d32391030</title>
<path fill="#f0f4ff" stroke="black" d="M463,-1265C463,-1265 362,-1265 362,-1265 356,-1265 350,-1259 350,-1253 350,-1253 350,-1241 350,-1241 350,-1235 356,-1229 362,-1229 362,-1229 463,-1229 463,-1229 469,-1229 475,-1235 475,-1241 475,-1241 475,-1253 475,-1253 475,-1259 469,-1265 463,-1265"/>
<text text-anchor="middle" x="412.5" y="-1244.8" font-family="Courier,monospace" font-size="9.00">{SignatureToFourCC()}</text>
</g>
<!-- Node0x644d323921e0 -->
<g id="node2" class="node">
<title>Node0x644d323921e0</title>
<path fill="#f0f4ff" stroke="black" d="M481.5,-1200C481.5,-1200 343.5,-1200 343.5,-1200 337.5,-1200 331.5,-1194 331.5,-1188 331.5,-1188 331.5,-1176 331.5,-1176 331.5,-1170 337.5,-1164 343.5,-1164 343.5,-1164 481.5,-1164 481.5,-1164 487.5,-1164 493.5,-1170 493.5,-1176 493.5,-1176 493.5,-1188 493.5,-1188 493.5,-1194 487.5,-1200 481.5,-1200"/>
<text text-anchor="middle" x="412.5" y="-1179.8" font-family="Courier,monospace" font-size="9.00">{HasNonPrintableSignature()}</text>
</g>
<!-- Node0x644d32391180 -->
<g id="node3" class="node">
<title>Node0x644d32391180</title>
<path fill="#f0f4ff" stroke="black" d="M115.5,-647C115.5,-647 14.5,-647 14.5,-647 8.5,-647 2.5,-641 2.5,-635 2.5,-635 2.5,-623 2.5,-623 2.5,-617 8.5,-611 14.5,-611 14.5,-611 115.5,-611 115.5,-611 121.5,-611 127.5,-617 127.5,-623 127.5,-623 127.5,-635 127.5,-635 127.5,-641 121.5,-647 115.5,-647"/>
<text text-anchor="middle" x="65" y="-626.8" font-family="Courier,monospace" font-size="9.00">{AnalyzeSignatures()}</text>
</g>
<!-- Node0x644d32391180&#45;&gt;Node0x644d32391030 -->
<g id="edge10" class="edge">
<title>Node0x644d32391180&#45;&gt;Node0x644d32391030</title>
<path fill="none" stroke="#4a6fa5" d="M67.99,-647.05C78.25,-736.89 128.17,-1134.61 216,-1215 249.69,-1245.84 301.05,-1253.29 342.67,-1253.33"/>
<polygon fill="#4a6fa5" stroke="#4a6fa5" points="342.81,-1255.78 349.79,-1253.26 342.77,-1250.88 342.81,-1255.78"/>
</g>
<!-- Node0x644d32391180&#45;&gt;Node0x644d323921e0 -->
<g id="edge7" class="edge">
<title>Node0x644d32391180&#45;&gt;Node0x644d323921e0</title>
<path fill="none" stroke="#4a6fa5" d="M68.62,-647.25C81.08,-731.28 136.92,-1079.75 216,-1150 245.05,-1175.8 286.53,-1185.07 323.81,-1187.36"/>
<polygon fill="#4a6fa5" stroke="#4a6fa5" points="324.1,-1189.83 331.21,-1187.73 324.34,-1184.93 324.1,-1189.83"/>
</g>
<!-- Node0x644d32323690 -->
<g id="node4" class="node">
<title>Node0x644d32323690</title>
<path fill="#f0f4ff" stroke="black" d="M429,-1135C429,-1135 396,-1135 396,-1135 390,-1135 384,-1129 384,-1123 384,-1123 384,-1111 384,-1111 384,-1105 390,-1099 396,-1099 396,-1099 429,-1099 429,-1099 435,-1099 441,-1105 441,-1111 441,-1111 441,-1123 441,-1123 441,-1129 435,-1135 429,-1135"/>
<text text-anchor="middle" x="412.5" y="-1114.8" font-family="Courier,monospace" font-size="9.00">{printf}</text>
</g>
<!-- Node0x644d32391180&#45;&gt;Node0x644d32323690 -->
<g id="edge1" class="edge">
<title>Node0x644d32391180&#45;&gt;Node0x644d32323690</title>
<path fill="none" stroke="#4a6fa5" d="M65.8,-647.39C66.13,-716.99 77.31,-966.36 216,-1085 260.97,-1123.46 333.79,-1124.68 376.72,-1121.34"/>
<polygon fill="#4a6fa5" stroke="#4a6fa5" points="377.1,-1123.77 383.86,-1120.72 376.68,-1118.89 377.1,-1123.77"/>
</g>
<!-- Node0x644d32322180 -->
<g id="node5" class="node">
<title>Node0x644d32322180</title>
<path fill="#f0f4ff" stroke="black" d="M465.5,-1070C465.5,-1070 359.5,-1070 359.5,-1070 353.5,-1070 347.5,-1064 347.5,-1058 347.5,-1058 347.5,-1046 347.5,-1046 347.5,-1040 353.5,-1034 359.5,-1034 359.5,-1034 465.5,-1034 465.5,-1034 471.5,-1034 477.5,-1040 477.5,-1046 477.5,-1046 477.5,-1058 477.5,-1058 477.5,-1064 471.5,-1070 465.5,-1070"/>
<text text-anchor="middle" x="412.5" y="-1049.8" font-family="Courier,monospace" font-size="9.00">{CIccInfo::CIccInfo()}</text>
</g>
<!-- Node0x644d32391180&#45;&gt;Node0x644d32322180 -->
<g id="edge2" class="edge">
<title>Node0x644d32391180&#45;&gt;Node0x644d32322180</title>
<path fill="none" stroke="#4a6fa5" d="M66.92,-647.39C71.16,-710.65 94.22,-920.84 216,-1020 250.34,-1047.96 299.6,-1055.89 340.08,-1056.87"/>
<polygon fill="#4a6fa5" stroke="#4a6fa5" points="340.24,-1059.32 347.27,-1056.97 340.31,-1054.42 340.24,-1059.32"/>
</g>
<!-- Node0x644d32322bc0 -->
<g id="node6" class="node">
<title>Node0x644d32322bc0</title>
<path fill="#f0f4ff" stroke="black" d="M431.5,-1005C431.5,-1005 393.5,-1005 393.5,-1005 387.5,-1005 381.5,-999 381.5,-993 381.5,-993 381.5,-981 381.5,-981 381.5,-975 387.5,-969 393.5,-969 393.5,-969 431.5,-969 431.5,-969 437.5,-969 443.5,-975 443.5,-981 443.5,-981 443.5,-993 443.5,-993 443.5,-999 437.5,-1005 431.5,-1005"/>
<text text-anchor="middle" x="412.5" y="-984.8" font-family="Courier,monospace" font-size="9.00">{fprintf}</text>
</g>
<!-- Node0x644d32391180&#45;&gt;Node0x644d32322bc0 -->
<g id="edge3" class="edge">
<title>Node0x644d32391180&#45;&gt;Node0x644d32322bc0</title>
<path fill="none" stroke="#4a6fa5" d="M68.4,-647.09C76.85,-703.12 110.68,-874.78 216,-955 261.91,-989.97 331.62,-992.84 374.22,-990.67"/>
<polygon fill="#4a6fa5" stroke="#4a6fa5" points="374.48,-993.11 381.33,-990.25 374.19,-988.22 374.48,-993.11"/>
</g>
<!-- Node0x644d32321f80 -->
<g id="node7" class="node">
<title>Node0x644d32321f80</title>
<path fill="#f0f4ff" stroke="black" d="M468,-940C468,-940 357,-940 357,-940 351,-940 345,-934 345,-928 345,-928 345,-916 345,-916 345,-910 351,-904 357,-904 357,-904 468,-904 468,-904 474,-904 480,-910 480,-916 480,-916 480,-928 480,-928 480,-934 474,-940 468,-940"/>
<text text-anchor="middle" x="412.5" y="-919.8" font-family="Courier,monospace" font-size="9.00">{CIccInfo::~CIccInfo()}</text>
</g>
<!-- Node0x644d32391180&#45;&gt;Node0x644d32321f80 -->
<g id="edge4" class="edge">
<title>Node0x644d32391180&#45;&gt;Node0x644d32321f80</title>
<path fill="none" stroke="#4a6fa5" d="M70.61,-647.26C83.88,-695.77 127.06,-828.41 216,-890 251.13,-914.33 298.22,-922.58 337.38,-924.63"/>
<polygon fill="#4a6fa5" stroke="#4a6fa5" points="337.5,-927.09 344.6,-924.94 337.71,-922.19 337.5,-927.09"/>
</g>
<!-- Node0x644d32391e30 -->
<g id="node8" class="node">
<title>Node0x644d32391e30</title>
<path fill="#f0f4ff" stroke="black" d="M427.5,-875C427.5,-875 397.5,-875 397.5,-875 391.5,-875 385.5,-869 385.5,-863 385.5,-863 385.5,-851 385.5,-851 385.5,-845 391.5,-839 397.5,-839 397.5,-839 427.5,-839 427.5,-839 433.5,-839 439.5,-845 439.5,-851 439.5,-851 439.5,-863 439.5,-863 439.5,-869 433.5,-875 427.5,-875"/>
<text text-anchor="middle" x="412.5" y="-854.8" font-family="Courier,monospace" font-size="9.00">{fputc}</text>
</g>
<!-- Node0x644d32391180&#45;&gt;Node0x644d32391e30 -->
<g id="edge5" class="edge">
<title>Node0x644d32391180&#45;&gt;Node0x644d32391e30</title>
<path fill="none" stroke="#4a6fa5" d="M73.98,-647.01C92.54,-686.57 142.68,-781.06 216,-825 266.65,-855.35 337.3,-859.39 378.34,-858.75"/>
<polygon fill="#4a6fa5" stroke="#4a6fa5" points="378.45,-861.2 385.4,-858.59 378.34,-856.3 378.45,-861.2"/>
</g>
<!-- Node0x644d3239ef60 -->
<g id="node9" class="node">
<title>Node0x644d3239ef60</title>
<path fill="#f0f4ff" stroke="black" d="M541.5,-810C541.5,-810 283.5,-810 283.5,-810 277.5,-810 271.5,-804 271.5,-798 271.5,-798 271.5,-786 271.5,-786 271.5,-780 277.5,-774 283.5,-774 283.5,-774 541.5,-774 541.5,-774 547.5,-774 553.5,-780 553.5,-786 553.5,-786 553.5,-798 553.5,-798 553.5,-804 547.5,-810 541.5,-810"/>
<text text-anchor="middle" x="412.5" y="-789.8" font-family="Courier,monospace" font-size="9.00">{std::_List_iterator&lt;IccTagEntry&gt;::operator++(int)}</text>
</g>
<!-- Node0x644d32391180&#45;&gt;Node0x644d3239ef60 -->
<g id="edge6" class="edge">
<title>Node0x644d32391180&#45;&gt;Node0x644d3239ef60</title>
<path fill="none" stroke="#4a6fa5" d="M80.86,-647.35C105.57,-676.47 158.13,-732.75 216,-760 231.11,-767.11 247.52,-772.68 264.2,-777.03"/>
<polygon fill="#4a6fa5" stroke="#4a6fa5" points="263.98,-779.5 271.36,-778.82 265.16,-774.75 263.98,-779.5"/>
</g>
<!-- Node0x644d32325020 -->
<g id="node10" class="node">
<title>Node0x644d32325020</title>
<path fill="#f0f4ff" stroke="black" d="M489,-745C489,-745 336,-745 336,-745 330,-745 324,-739 324,-733 324,-733 324,-721 324,-721 324,-715 330,-709 336,-709 336,-709 489,-709 489,-709 495,-709 501,-715 501,-721 501,-721 501,-733 501,-733 501,-739 495,-745 489,-745"/>
<text text-anchor="middle" x="412.5" y="-724.8" font-family="Courier,monospace" font-size="9.00">{CIccInfo::GetTagTypeSigName()}</text>
</g>
<!-- Node0x644d32391180&#45;&gt;Node0x644d32325020 -->
<g id="edge8" class="edge">
<title>Node0x644d32391180&#45;&gt;Node0x644d32325020</title>
<path fill="none" stroke="#4a6fa5" d="M100.22,-647.04C130.03,-662.02 174.81,-682.78 216,-695 248.19,-704.55 284.25,-711.47 316.56,-716.37"/>
<polygon fill="#4a6fa5" stroke="#4a6fa5" points="316.54,-718.85 323.82,-717.45 317.26,-714 316.54,-718.85"/>
</g>
<!-- Node0x644d32324ba0 -->
<g id="node11" class="node">
<title>Node0x644d32324ba0</title>
<path fill="#f0f4ff" stroke="black" d="M478.5,-680C478.5,-680 346.5,-680 346.5,-680 340.5,-680 334.5,-674 334.5,-668 334.5,-668 334.5,-656 334.5,-656 334.5,-650 340.5,-644 346.5,-644 346.5,-644 478.5,-644 478.5,-644 484.5,-644 490.5,-650 490.5,-656 490.5,-656 490.5,-668 490.5,-668 490.5,-674 484.5,-680 478.5,-680"/>
<text text-anchor="middle" x="412.5" y="-659.8" font-family="Courier,monospace" font-size="9.00">{CIccInfo::GetTagSigName()}</text>
</g>
<!-- Node0x644d32391180&#45;&gt;Node0x644d32324ba0 -->
<g id="edge9" class="edge">
<title>Node0x644d32391180&#45;&gt;Node0x644d32324ba0</title>
<path fill="none" stroke="#4a6fa5" d="M127.77,-634.9C183.37,-640.21 265.57,-648.06 327.2,-653.95"/>
<polygon fill="#4a6fa5" stroke="#4a6fa5" points="327.03,-656.39 334.23,-654.62 327.5,-651.52 327.03,-656.39"/>
</g>
<!-- Node0x644d3239e7c0 -->
<g id="node12" class="node">
<title>Node0x644d3239e7c0</title>
<path fill="#f0f4ff" stroke="black" d="M460.5,-615C460.5,-615 364.5,-615 364.5,-615 358.5,-615 352.5,-609 352.5,-603 352.5,-603 352.5,-591 352.5,-591 352.5,-585 358.5,-579 364.5,-579 364.5,-579 460.5,-579 460.5,-579 466.5,-579 472.5,-585 472.5,-591 472.5,-591 472.5,-603 472.5,-603 472.5,-609 466.5,-615 460.5,-615"/>
<text text-anchor="middle" x="412.5" y="-594.8" font-family="Courier,monospace" font-size="9.00">{llvm.memset.p0.i64}</text>
</g>
<!-- Node0x644d32391180&#45;&gt;Node0x644d3239e7c0 -->
<g id="edge11" class="edge">
<title>Node0x644d32391180&#45;&gt;Node0x644d3239e7c0</title>
<path fill="none" stroke="#4a6fa5" d="M127.77,-623.28C188.98,-617.61 282.42,-608.96 345.17,-603.14"/>
<polygon fill="#4a6fa5" stroke="#4a6fa5" points="345.54,-605.57 352.29,-602.48 345.09,-600.69 345.54,-605.57"/>
</g>
<!-- Node0x644d323246a0 -->
<g id="node13" class="node">
<title>Node0x644d323246a0</title>
<path fill="#f0f4ff" stroke="black" d="M471,-550C471,-550 354,-550 354,-550 348,-550 342,-544 342,-538 342,-538 342,-526 342,-526 342,-520 348,-514 354,-514 354,-514 471,-514 471,-514 477,-514 483,-520 483,-526 483,-526 483,-538 483,-538 483,-544 477,-550 471,-550"/>
<text text-anchor="middle" x="412.5" y="-529.8" font-family="Courier,monospace" font-size="9.00">{CIccProfile::FindTag()}</text>
</g>
<!-- Node0x644d32391180&#45;&gt;Node0x644d323246a0 -->
<g id="edge12" class="edge">
<title>Node0x644d32391180&#45;&gt;Node0x644d323246a0</title>
<path fill="none" stroke="#4a6fa5" d="M101.79,-610.88C131.64,-596.47 175.65,-576.83 216,-565 254.4,-553.74 298.24,-545.9 334.66,-540.7"/>
<polygon fill="#4a6fa5" stroke="#4a6fa5" points="335.24,-543.09 341.84,-539.69 334.57,-538.24 335.24,-543.09"/>
</g>
<!-- Node0x644d32324960 -->
<g id="node14" class="node">
<title>Node0x644d32324960</title>
<path fill="#f0f4ff" stroke="black" d="M547,-361C547,-361 278,-361 278,-361 272,-361 266,-355 266,-349 266,-349 266,-337 266,-337 266,-331 272,-325 278,-325 278,-325 547,-325 547,-325 553,-325 559,-331 559,-337 559,-337 559,-349 559,-349 559,-355 553,-361 547,-361"/>
<text text-anchor="middle" x="412.5" y="-340.8" font-family="Courier,monospace" font-size="9.00">{std::_List_iterator&lt;IccTagEntry&gt;::operator*() const}</text>
</g>
<!-- Node0x644d32391180&#45;&gt;Node0x644d32324960 -->
<g id="edge13" class="edge">
<title>Node0x644d32391180&#45;&gt;Node0x644d32324960</title>
<path fill="none" stroke="#4a6fa5" d="M70.9,-610.97C84.78,-563.69 129.06,-435.66 216,-376 228.98,-367.09 243.57,-360.31 258.77,-355.19"/>
<polygon fill="#4a6fa5" stroke="#4a6fa5" points="259.87,-357.41 265.79,-352.95 258.38,-352.74 259.87,-357.41"/>
</g>
<!-- Node0x644d3239e080 -->
<g id="node15" class="node">
<title>Node0x644d3239e080</title>
<path fill="#f0f4ff" stroke="black" d="M597,-426C597,-426 228,-426 228,-426 222,-426 216,-420 216,-414 216,-414 216,-402 216,-402 216,-396 222,-390 228,-390 228,-390 597,-390 597,-390 603,-390 609,-396 609,-402 609,-402 609,-414 609,-414 609,-420 603,-426 597,-426"/>
<text text-anchor="middle" x="412.5" y="-405.8" font-family="Courier,monospace" font-size="9.00">{std::operator!=(std::_List_iterator&lt;IccTagEntry&gt; const&amp;, std::_List...}</text>
</g>
<!-- Node0x644d32391180&#45;&gt;Node0x644d3239e080 -->
<g id="edge14" class="edge">
<title>Node0x644d32391180&#45;&gt;Node0x644d3239e080</title>
<path fill="none" stroke="#4a6fa5" d="M75.4,-610.9C95.66,-573.82 147.23,-489.25 216,-448 229.4,-439.96 244.14,-433.52 259.34,-428.35"/>
<polygon fill="#4a6fa5" stroke="#4a6fa5" points="260.46,-430.56 266.35,-426.07 258.94,-425.91 260.46,-430.56"/>
</g>
<!-- Node0x644d3239e1f0 -->
<g id="node16" class="node">
<title>Node0x644d3239e1f0</title>
<path fill="#f0f4ff" stroke="black" d="M492,-296C492,-296 333,-296 333,-296 327,-296 321,-290 321,-284 321,-284 321,-272 321,-272 321,-266 327,-260 333,-260 333,-260 492,-260 492,-260 498,-260 504,-266 504,-272 504,-272 504,-284 504,-284 504,-290 498,-296 492,-296"/>
<text text-anchor="middle" x="412.5" y="-275.8" font-family="Courier,monospace" font-size="9.00">{std::list&lt;IccTagEntry &gt;::end()}</text>
</g>
<!-- Node0x644d32391180&#45;&gt;Node0x644d3239e1f0 -->
<g id="edge15" class="edge">
<title>Node0x644d32391180&#45;&gt;Node0x644d3239e1f0</title>
<path fill="none" stroke="#4a6fa5" d="M68.63,-610.98C77.68,-555.95 112.87,-389.18 216,-311 243.66,-290.03 279.86,-280.46 313.58,-276.57"/>
<polygon fill="#4a6fa5" stroke="#4a6fa5" points="314.02,-278.98 320.73,-275.82 313.51,-274.11 314.02,-278.98"/>
</g>
<!-- Node0x644d32324240 -->
<g id="node17" class="node">
<title>Node0x644d32324240</title>
<path fill="#f0f4ff" stroke="black" d="M894.5,-649C894.5,-649 783.5,-649 783.5,-649 777.5,-649 771.5,-643 771.5,-637 771.5,-637 771.5,-625 771.5,-625 771.5,-619 777.5,-613 783.5,-613 783.5,-613 894.5,-613 894.5,-613 900.5,-613 906.5,-619 906.5,-625 906.5,-625 906.5,-637 906.5,-637 906.5,-643 900.5,-649 894.5,-649"/>
<text text-anchor="middle" x="839" y="-628.8" font-family="Courier,monospace" font-size="9.00">{llvm.memcpy.p0.p0.i64}</text>
</g>
<!-- Node0x644d32391180&#45;&gt;Node0x644d32324240 -->
<g id="edge16" class="edge">
<title>Node0x644d32391180&#45;&gt;Node0x644d32324240</title>
<path fill="none" stroke="#4a6fa5" d="M79.69,-610.8C103.5,-580.87 155.78,-522.33 216,-500 379.77,-439.27 440.2,-455.13 609,-500 688.32,-521.08 768.79,-576.83 809.94,-608.39"/>
<polygon fill="#4a6fa5" stroke="#4a6fa5" points="808.69,-610.52 815.73,-612.86 811.69,-606.64 808.69,-610.52"/>
</g>
<!-- Node0x644d3239df00 -->
<g id="node18" class="node">
<title>Node0x644d3239df00</title>
<path fill="#f0f4ff" stroke="black" d="M497,-231C497,-231 328,-231 328,-231 322,-231 316,-225 316,-219 316,-219 316,-207 316,-207 316,-201 322,-195 328,-195 328,-195 497,-195 497,-195 503,-195 509,-201 509,-207 509,-207 509,-219 509,-219 509,-225 503,-231 497,-231"/>
<text text-anchor="middle" x="412.5" y="-210.8" font-family="Courier,monospace" font-size="9.00">{std::list&lt;IccTagEntry &gt;::begin()}</text>
</g>
<!-- Node0x644d32391180&#45;&gt;Node0x644d3239df00 -->
<g id="edge17" class="edge">
<title>Node0x644d32391180&#45;&gt;Node0x644d3239df00</title>
<path fill="none" stroke="#4a6fa5" d="M67.07,-610.99C71.8,-549.06 96.29,-343.27 216,-246 241.83,-225.01 276.03,-215.17 308.61,-211.05"/>
<polygon fill="#4a6fa5" stroke="#4a6fa5" points="309.29,-213.44 315.96,-210.21 308.73,-208.57 309.29,-213.44"/>
</g>
<!-- Node0x644d32322510 -->
<g id="node19" class="node">
<title>Node0x644d32322510</title>
<path fill="#f0f4ff" stroke="black" d="M544.5,-166C544.5,-166 280.5,-166 280.5,-166 274.5,-166 268.5,-160 268.5,-154 268.5,-154 268.5,-142 268.5,-142 268.5,-136 274.5,-130 280.5,-130 280.5,-130 544.5,-130 544.5,-130 550.5,-130 556.5,-136 556.5,-142 556.5,-142 556.5,-154 556.5,-154 556.5,-160 550.5,-166 544.5,-166"/>
<text text-anchor="middle" x="412.5" y="-145.8" font-family="Courier,monospace" font-size="9.00">{std::_List_iterator&lt;IccTagEntry&gt;::_List_iterator()}</text>
</g>
<!-- Node0x644d32391180&#45;&gt;Node0x644d32322510 -->
<g id="edge18" class="edge">
<title>Node0x644d32391180&#45;&gt;Node0x644d32322510</title>
<path fill="none" stroke="#4a6fa5" d="M65.94,-610.95C66.76,-542.6 79.48,-297.74 216,-181 229.28,-169.64 244.98,-161.49 261.62,-155.73"/>
<polygon fill="#4a6fa5" stroke="#4a6fa5" points="262.39,-158.05 268.29,-153.55 260.87,-153.39 262.39,-158.05"/>
</g>
<!-- Node0x644d3239d040 -->
<g id="node20" class="node">
<title>Node0x644d3239d040</title>
<path fill="#f0f4ff" stroke="black" d="M502.5,-101C502.5,-101 322.5,-101 322.5,-101 316.5,-101 310.5,-95 310.5,-89 310.5,-89 310.5,-77 310.5,-77 310.5,-71 316.5,-65 322.5,-65 322.5,-65 502.5,-65 502.5,-65 508.5,-65 514.5,-71 514.5,-77 514.5,-77 514.5,-89 514.5,-89 514.5,-95 508.5,-101 502.5,-101"/>
<text text-anchor="middle" x="412.5" y="-80.8" font-family="Courier,monospace" font-size="9.00">{CIccInfo::GetProfileClassSigName()}</text>
</g>
<!-- Node0x644d32391180&#45;&gt;Node0x644d3239d040 -->
<g id="edge19" class="edge">
<title>Node0x644d32391180&#45;&gt;Node0x644d3239d040</title>
<path fill="none" stroke="#4a6fa5" d="M68.72,-610.75C81.49,-527.55 138.16,-185.21 216,-116 239.8,-94.84 271.92,-84.67 303.25,-80.3"/>
<polygon fill="#4a6fa5" stroke="#4a6fa5" points="303.7,-82.71 310.34,-79.41 303.09,-77.85 303.7,-82.71"/>
</g>
<!-- Node0x644d3239bb20 -->
<g id="node21" class="node">
<title>Node0x644d3239bb20</title>
<path fill="#f0f4ff" stroke="black" d="M497,-36C497,-36 328,-36 328,-36 322,-36 316,-30 316,-24 316,-24 316,-12 316,-12 316,-6 322,0 328,0 328,0 497,0 497,0 503,0 509,-6 509,-12 509,-12 509,-24 509,-24 509,-30 503,-36 497,-36"/>
<text text-anchor="middle" x="412.5" y="-15.8" font-family="Courier,monospace" font-size="9.00">{CIccInfo::GetColorSpaceSigName()}</text>
</g>
<!-- Node0x644d32391180&#45;&gt;Node0x644d3239bb20 -->
<g id="edge20" class="edge">
<title>Node0x644d32391180&#45;&gt;Node0x644d3239bb20</title>
<path fill="none" stroke="#4a6fa5" d="M68.07,-610.9C78.63,-521.75 129.46,-130.34 216,-51 240.99,-28.09 275.69,-17.92 308.93,-14.09"/>
<polygon fill="#4a6fa5" stroke="#4a6fa5" points="309.28,-16.51 315.99,-13.36 308.78,-11.64 309.28,-16.51"/>
</g>
<!-- Node0x644d3239ef60&#45;&gt;Node0x644d32324240 -->
<g id="edge25" class="edge">
<title>Node0x644d3239ef60&#45;&gt;Node0x644d32324240</title>
<path fill="none" stroke="#4a6fa5" d="M553.58,-775.22C572.47,-771.18 591.4,-766.18 609,-760 684.71,-733.42 764.46,-682.49 806.98,-653.2"/>
<polygon fill="#4a6fa5" stroke="#4a6fa5" points="808.62,-655.04 812.98,-649.04 805.83,-651.02 808.62,-655.04"/>
</g>
<!-- Node0x644d32325ea0 -->
<g id="node24" class="node">
<title>Node0x644d32325ea0</title>
<path fill="#f0f4ff" stroke="black" d="M947,-393C947,-393 731,-393 731,-393 725,-393 719,-387 719,-381 719,-381 719,-369 719,-369 719,-363 725,-357 731,-357 731,-357 947,-357 947,-357 953,-357 959,-363 959,-369 959,-369 959,-381 959,-381 959,-387 953,-393 947,-393"/>
<text text-anchor="middle" x="839" y="-372.8" font-family="Courier,monospace" font-size="9.00">{std::_List_node&lt;IccTagEntry&gt;::_M_valptr()}</text>
</g>
<!-- Node0x644d32324960&#45;&gt;Node0x644d32325ea0 -->
<g id="edge23" class="edge">
<title>Node0x644d32324960&#45;&gt;Node0x644d32325ea0</title>
<path fill="none" stroke="#4a6fa5" d="M559.29,-353.99C608.91,-357.73 663.93,-361.88 711.88,-365.49"/>
<polygon fill="#4a6fa5" stroke="#4a6fa5" points="711.73,-367.94 718.9,-366.02 712.1,-363.05 711.73,-367.94"/>
</g>
<!-- Node0x644d323264d0 -->
<g id="node25" class="node">
<title>Node0x644d323264d0</title>
<path fill="#f0f4ff" stroke="black" d="M897.5,-328C897.5,-328 780.5,-328 780.5,-328 774.5,-328 768.5,-322 768.5,-316 768.5,-316 768.5,-304 768.5,-304 768.5,-298 774.5,-292 780.5,-292 780.5,-292 897.5,-292 897.5,-292 903.5,-292 909.5,-298 909.5,-304 909.5,-304 909.5,-316 909.5,-316 909.5,-322 903.5,-328 897.5,-328"/>
<text text-anchor="middle" x="839" y="-307.8" font-family="Courier,monospace" font-size="9.00">{__clang_call_terminate}</text>
</g>
<!-- Node0x644d32324960&#45;&gt;Node0x644d323264d0 -->
<g id="edge24" class="edge">
<title>Node0x644d32324960&#45;&gt;Node0x644d323264d0</title>
<path fill="none" stroke="#4a6fa5" d="M559.29,-331.67C627.17,-326.39 705.12,-320.33 761.3,-315.96"/>
<polygon fill="#4a6fa5" stroke="#4a6fa5" points="761.6,-318.4 768.38,-315.41 761.22,-313.51 761.6,-318.4"/>
</g>
<!-- Node0x644d3239ed10 -->
<g id="node23" class="node">
<title>Node0x644d3239ed10</title>
<path fill="#f0f4ff" stroke="black" d="M971,-247C971,-247 707,-247 707,-247 701,-247 695,-241 695,-235 695,-235 695,-223 695,-223 695,-217 701,-211 707,-211 707,-211 971,-211 971,-211 977,-211 983,-217 983,-223 983,-223 983,-235 983,-235 983,-241 977,-247 971,-247"/>
<text text-anchor="middle" x="839" y="-226.8" font-family="Courier,monospace" font-size="9.00">{std::_List_iterator&lt;IccTagEntry&gt;::_List_iterator()}</text>
</g>
<!-- Node0x644d3239e1f0&#45;&gt;Node0x644d3239ed10 -->
<g id="edge22" class="edge">
<title>Node0x644d3239e1f0&#45;&gt;Node0x644d3239ed10</title>
<path fill="none" stroke="#4a6fa5" d="M504.05,-267.55C557.5,-261.38 626.52,-253.41 687.92,-246.32"/>
<polygon fill="#4a6fa5" stroke="#4a6fa5" points="688.31,-248.75 694.98,-245.51 687.75,-243.88 688.31,-248.75"/>
</g>
<!-- Node0x644d3239df00&#45;&gt;Node0x644d3239ed10 -->
<g id="edge21" class="edge">
<title>Node0x644d3239df00&#45;&gt;Node0x644d3239ed10</title>
<path fill="none" stroke="#4a6fa5" d="M509.03,-216.6C561.66,-218.58 628.18,-221.09 687.61,-223.33"/>
<polygon fill="#4a6fa5" stroke="#4a6fa5" points="687.73,-225.79 694.82,-223.6 687.92,-220.89 687.73,-225.79"/>
</g>
<!-- Node0x644d32324d60 -->
<g id="node22" class="node">
<title>Node0x644d32324d60</title>
<path fill="#f0f4ff" stroke="black" d="M118,-7572C118,-7572 12,-7572 12,-7572 6,-7572 0,-7566 0,-7560 0,-7560 0,-7548 0,-7548 0,-7542 6,-7536 12,-7536 12,-7536 118,-7536 118,-7536 124,-7536 130,-7542 130,-7548 130,-7548 130,-7560 130,-7560 130,-7566 124,-7572 118,-7572"/>
<text text-anchor="middle" x="65" y="-7551.8" font-family="Courier,monospace" font-size="9.00">{__gxx_personality_v0}</text>
</g>
<!-- Node0x644d3239f820 -->
<g id="node26" class="node">
<title>Node0x644d3239f820</title>
<path fill="#f0f4ff" stroke="black" d="M1345,-393C1345,-393 1081,-393 1081,-393 1075,-393 1069,-387 1069,-381 1069,-381 1069,-369 1069,-369 1069,-363 1075,-357 1081,-357 1081,-357 1345,-357 1345,-357 1351,-357 1357,-363 1357,-369 1357,-369 1357,-381 1357,-381 1357,-387 1351,-393 1345,-393"/>
<text text-anchor="middle" x="1213" y="-372.8" font-family="Courier,monospace" font-size="9.00">{__gnu_cxx::__aligned_membuf&lt;IccTagEntry&gt;::_M_ptr()}</text>
</g>
<!-- Node0x644d32325ea0&#45;&gt;Node0x644d3239f820 -->
<g id="edge26" class="edge">
<title>Node0x644d32325ea0&#45;&gt;Node0x644d3239f820</title>
<path fill="none" stroke="#4a6fa5" d="M959.24,-375C991.78,-375 1027.46,-375 1061.49,-375"/>
<polygon fill="#4a6fa5" stroke="#4a6fa5" points="1061.73,-377.45 1068.73,-375 1061.73,-372.55 1061.73,-377.45"/>
</g>
<!-- Node0x644d323260f0 -->
<g id="node27" class="node">
<title>Node0x644d323260f0</title>
<path fill="#f0f4ff" stroke="black" d="M1258,-263C1258,-263 1168,-263 1168,-263 1162,-263 1156,-257 1156,-251 1156,-251 1156,-239 1156,-239 1156,-233 1162,-227 1168,-227 1168,-227 1258,-227 1258,-227 1264,-227 1270,-233 1270,-239 1270,-239 1270,-251 1270,-251 1270,-257 1264,-263 1258,-263"/>
<text text-anchor="middle" x="1213" y="-242.8" font-family="Courier,monospace" font-size="9.00">{__cxa_begin_catch}</text>
</g>
<!-- Node0x644d323264d0&#45;&gt;Node0x644d323260f0 -->
<g id="edge27" class="edge">
<title>Node0x644d323264d0&#45;&gt;Node0x644d323260f0</title>
<path fill="none" stroke="#4a6fa5" d="M909.53,-297.85C978.22,-285.85 1082.35,-267.65 1148.76,-256.05"/>
<polygon fill="#4a6fa5" stroke="#4a6fa5" points="1149.39,-258.43 1155.86,-254.81 1148.55,-253.6 1149.39,-258.43"/>
</g>
<!-- Node0x644d323251e0 -->
<g id="node28" class="node">
<title>Node0x644d323251e0</title>
<path fill="#f0f4ff" stroke="black" d="M1255.5,-328C1255.5,-328 1170.5,-328 1170.5,-328 1164.5,-328 1158.5,-322 1158.5,-316 1158.5,-316 1158.5,-304 1158.5,-304 1158.5,-298 1164.5,-292 1170.5,-292 1170.5,-292 1255.5,-292 1255.5,-292 1261.5,-292 1267.5,-298 1267.5,-304 1267.5,-304 1267.5,-316 1267.5,-316 1267.5,-322 1261.5,-328 1255.5,-328"/>
<text text-anchor="middle" x="1213" y="-307.8" font-family="Courier,monospace" font-size="9.00">{std::terminate()}</text>
</g>
<!-- Node0x644d323264d0&#45;&gt;Node0x644d323251e0 -->
<g id="edge28" class="edge">
<title>Node0x644d323264d0&#45;&gt;Node0x644d323251e0</title>
<path fill="none" stroke="#4a6fa5" d="M909.53,-310C979.13,-310 1085.12,-310 1151.39,-310"/>
<polygon fill="#4a6fa5" stroke="#4a6fa5" points="1151.47,-312.45 1158.47,-310 1151.47,-307.55 1151.47,-312.45"/>
</g>
<!-- Node0x644d32326680 -->
<g id="node29" class="node">
<title>Node0x644d32326680</title>
<path fill="#f0f4ff" stroke="black" d="M1724,-393C1724,-393 1455,-393 1455,-393 1449,-393 1443,-387 1443,-381 1443,-381 1443,-369 1443,-369 1443,-363 1449,-357 1455,-357 1455,-357 1724,-357 1724,-357 1730,-357 1736,-363 1736,-369 1736,-369 1736,-381 1736,-381 1736,-387 1730,-393 1724,-393"/>
<text text-anchor="middle" x="1589.5" y="-372.8" font-family="Courier,monospace" font-size="9.00">{__gnu_cxx::__aligned_membuf&lt;IccTagEntry&gt;::_M_addr()}</text>
</g>
<!-- Node0x644d3239f820&#45;&gt;Node0x644d32326680 -->
<g id="edge29" class="edge">
<title>Node0x644d3239f820&#45;&gt;Node0x644d32326680</title>
<path fill="none" stroke="#4a6fa5" d="M1357.19,-375C1382.85,-375 1409.7,-375 1435.63,-375"/>
<polygon fill="#4a6fa5" stroke="#4a6fa5" points="1435.91,-377.45 1442.91,-375 1435.91,-372.55 1435.91,-377.45"/>
</g>
</g>
</svg>
