<?xml version="1.0" encoding="UTF-8" standalone="no"?>
<!DOCTYPE svg PUBLIC "-//W3C//DTD SVG 1.1//EN"
 "http://www.w3.org/Graphics/SVG/1.1/DTD/svg11.dtd">
<!-- Generated by graphviz version 2.43.0 (0)
 -->
<!-- Title: Call graph: /home/h02332/po/research/call&#45;graph/analyzer/IccAnalyzerSecurity.ll Pages: 1 -->
<svg width="680pt" height="3675pt"
 viewBox="0.00 0.00 680.20 3675.20" xmlns="http://www.w3.org/2000/svg" xmlns:xlink="http://www.w3.org/1999/xlink">
<g id="graph0" class="graph" transform="scale(1 1) rotate(0) translate(21.6 3653.6)">
<title>Call graph: /home/h02332/po/research/call&#45;graph/analyzer/IccAnalyzerSecurity.ll</title>
<polygon fill="white" stroke="transparent" points="-21.6,21.6 -21.6,-3653.6 658.6,-3653.6 658.6,21.6 -21.6,21.6"/>
<!-- Node0x59063510daa0 -->
<g id="node1" class="node">
<title>Node0x59063510daa0</title>
<path fill="#f0f4ff" stroke="black" d="M105.5,-1834C105.5,-1834 22.5,-1834 22.5,-1834 16.5,-1834 10.5,-1828 10.5,-1822 10.5,-1822 10.5,-1810 10.5,-1810 10.5,-1804 16.5,-1798 22.5,-1798 22.5,-1798 105.5,-1798 105.5,-1798 111.5,-1798 117.5,-1804 117.5,-1810 117.5,-1810 117.5,-1822 117.5,-1822 117.5,-1828 111.5,-1834 105.5,-1834"/>
<text text-anchor="middle" x="64" y="-1813.8" font-family="Courier,monospace" font-size="9.00">HeuristicAnalyze()</text>
</g>
<!-- Node0x590634f599f0 -->
<g id="node2" class="node">
<title>Node0x590634f599f0</title>
<path fill="#f0f4ff" stroke="black" d="M410,-3632C410,-3632 290,-3632 290,-3632 284,-3632 278,-3626 278,-3620 278,-3620 278,-3608 278,-3608 278,-3602 284,-3596 290,-3596 290,-3596 410,-3596 410,-3596 416,-3596 422,-3602 422,-3608 422,-3608 422,-3620 422,-3620 422,-3626 416,-3632 410,-3632"/>
<text text-anchor="middle" x="350" y="-3611.8" font-family="Courier,monospace" font-size="9.00">CIccFileIO::~CIccFileIO()</text>
</g>
<!-- Node0x59063510daa0&#45;&gt;Node0x590634f599f0 -->
<g id="edge1" class="edge">
<title>Node0x59063510daa0&#45;&gt;Node0x590634f599f0</title>
<path fill="none" stroke="#4a6fa5" d="M117.6,-1834.08C121.63,-1837.18 125.2,-1840.79 128,-1845 235.04,-2006.13 59.32,-3438.81 186,-3585 206.91,-3609.13 240.37,-3617.78 271.55,-3619.84"/>
<polygon fill="#4a6fa5" stroke="#4a6fa5" points="271.65,-3621.95 277.75,-3620.17 271.87,-3617.75 271.65,-3621.95"/>
</g>
<!-- Node0x590635128f00 -->
<g id="node3" class="node">
<title>Node0x590635128f00</title>
<path fill="#f0f4ff" stroke="black" d="M376,-3400C376,-3400 324,-3400 324,-3400 318,-3400 312,-3394 312,-3388 312,-3388 312,-3376 312,-3376 312,-3370 318,-3364 324,-3364 324,-3364 376,-3364 376,-3364 382,-3364 388,-3370 388,-3376 388,-3376 388,-3388 388,-3388 388,-3394 382,-3400 376,-3400"/>
<text text-anchor="middle" x="350" y="-3379.8" font-family="Courier,monospace" font-size="9.00">ColorReset()</text>
</g>
<!-- Node0x59063510daa0&#45;&gt;Node0x590635128f00 -->
<g id="edge2" class="edge">
<title>Node0x59063510daa0&#45;&gt;Node0x590635128f00</title>
<path fill="none" stroke="#4a6fa5" d="M117.58,-1834.1C121.61,-1837.19 125.19,-1840.79 128,-1845 221.14,-1984.43 75.87,-3226.56 186,-3353 215,-3386.29 267.89,-3390.07 305.55,-3387.77"/>
<polygon fill="#4a6fa5" stroke="#4a6fa5" points="306.09,-3389.84 311.93,-3387.31 305.79,-3385.65 306.09,-3389.84"/>
</g>
<!-- Node0x590635133a50 -->
<g id="node4" class="node">
<title>Node0x590635133a50</title>
<path fill="#f0f4ff" stroke="black" d="M373,-3342C373,-3342 327,-3342 327,-3342 321,-3342 315,-3336 315,-3330 315,-3330 315,-3318 315,-3318 315,-3312 321,-3306 327,-3306 327,-3306 373,-3306 373,-3306 379,-3306 385,-3312 385,-3318 385,-3318 385,-3330 385,-3330 385,-3336 379,-3342 373,-3342"/>
<text text-anchor="middle" x="350" y="-3321.8" font-family="Courier,monospace" font-size="9.00">ColorInfo()</text>
</g>
<!-- Node0x59063510daa0&#45;&gt;Node0x590635133a50 -->
<g id="edge3" class="edge">
<title>Node0x59063510daa0&#45;&gt;Node0x590635133a50</title>
<path fill="none" stroke="#4a6fa5" d="M117.57,-1834.1C121.6,-1837.19 125.19,-1840.8 128,-1845 217.67,-1979.01 80,-3173.5 186,-3295 215.74,-3329.09 270.53,-3332.22 308.32,-3329.58"/>
<polygon fill="#4a6fa5" stroke="#4a6fa5" points="308.88,-3331.64 314.7,-3329.07 308.55,-3327.45 308.88,-3331.64"/>
</g>
<!-- Node0x5906351334d0 -->
<g id="node5" class="node">
<title>Node0x5906351334d0</title>
<path fill="#f0f4ff" stroke="black" d="M402,-3052C402,-3052 298,-3052 298,-3052 292,-3052 286,-3046 286,-3040 286,-3040 286,-3028 286,-3028 286,-3022 292,-3016 298,-3016 298,-3016 402,-3016 402,-3016 408,-3016 414,-3022 414,-3028 414,-3028 414,-3040 414,-3040 414,-3046 408,-3052 402,-3052"/>
<text text-anchor="middle" x="350" y="-3031.8" font-family="Courier,monospace" font-size="9.00">ComputeRegistryStats()</text>
</g>
<!-- Node0x59063510daa0&#45;&gt;Node0x5906351334d0 -->
<g id="edge4" class="edge">
<title>Node0x59063510daa0&#45;&gt;Node0x5906351334d0</title>
<path fill="none" stroke="#4a6fa5" d="M117.53,-1834.13C121.57,-1837.22 125.17,-1840.81 128,-1845 200.3,-1951.9 100.68,-2908.18 186,-3005 208.9,-3030.99 246.36,-3038.93 279.59,-3040.07"/>
<polygon fill="#4a6fa5" stroke="#4a6fa5" points="279.7,-3042.17 285.74,-3040.2 279.79,-3037.97 279.7,-3042.17"/>
</g>
<!-- Node0x590634f58b70 -->
<g id="node6" class="node">
<title>Node0x590634f58b70</title>
<path fill="#f0f4ff" stroke="black" d="M381,-3168C381,-3168 319,-3168 319,-3168 313,-3168 307,-3162 307,-3156 307,-3156 307,-3144 307,-3144 307,-3138 313,-3132 319,-3132 319,-3132 381,-3132 381,-3132 387,-3132 393,-3138 393,-3144 393,-3144 393,-3156 393,-3156 393,-3162 387,-3168 381,-3168"/>
<text text-anchor="middle" x="350" y="-3147.8" font-family="Courier,monospace" font-size="9.00">ColorWarning()</text>
</g>
<!-- Node0x59063510daa0&#45;&gt;Node0x590634f58b70 -->
<g id="edge5" class="edge">
<title>Node0x59063510daa0&#45;&gt;Node0x590634f58b70</title>
<path fill="none" stroke="#4a6fa5" d="M117.55,-1834.12C121.58,-1837.21 125.18,-1840.8 128,-1845 207.24,-1962.74 92.41,-3014.31 186,-3121 213.86,-3152.76 263.47,-3157.61 300.66,-3155.98"/>
<polygon fill="#4a6fa5" stroke="#4a6fa5" points="301.11,-3158.06 306.99,-3155.64 300.88,-3153.87 301.11,-3158.06"/>
</g>
<!-- Node0x590634f592b0 -->
<g id="node7" class="node">
<title>Node0x590634f592b0</title>
<path fill="#f0f4ff" stroke="black" d="M383.5,-3574C383.5,-3574 316.5,-3574 316.5,-3574 310.5,-3574 304.5,-3568 304.5,-3562 304.5,-3562 304.5,-3550 304.5,-3550 304.5,-3544 310.5,-3538 316.5,-3538 316.5,-3538 383.5,-3538 383.5,-3538 389.5,-3538 395.5,-3544 395.5,-3550 395.5,-3550 395.5,-3562 395.5,-3562 395.5,-3568 389.5,-3574 383.5,-3574"/>
<text text-anchor="middle" x="350" y="-3553.8" font-family="Courier,monospace" font-size="9.00">ColorCritical()</text>
</g>
<!-- Node0x59063510daa0&#45;&gt;Node0x590634f592b0 -->
<g id="edge6" class="edge">
<title>Node0x59063510daa0&#45;&gt;Node0x590634f592b0</title>
<path fill="none" stroke="#4a6fa5" d="M117.6,-1834.09C121.62,-1837.18 125.2,-1840.79 128,-1845 231.56,-2000.7 63.46,-3385.75 186,-3527 213.06,-3558.2 261.1,-3563.51 298.04,-3562.17"/>
<polygon fill="#4a6fa5" stroke="#4a6fa5" points="298.43,-3564.25 304.33,-3561.87 298.24,-3560.05 298.43,-3564.25"/>
</g>
<!-- Node0x590635112f50 -->
<g id="node8" class="node">
<title>Node0x590635112f50</title>
<path fill="#f0f4ff" stroke="black" d="M407.5,-3284C407.5,-3284 292.5,-3284 292.5,-3284 286.5,-3284 280.5,-3278 280.5,-3272 280.5,-3272 280.5,-3260 280.5,-3260 280.5,-3254 286.5,-3248 292.5,-3248 292.5,-3248 407.5,-3248 407.5,-3248 413.5,-3248 419.5,-3254 419.5,-3260 419.5,-3260 419.5,-3272 419.5,-3272 419.5,-3278 413.5,-3284 407.5,-3284"/>
<text text-anchor="middle" x="350" y="-3263.8" font-family="Courier,monospace" font-size="9.00">CIccFileIO::CIccFileIO()</text>
</g>
<!-- Node0x59063510daa0&#45;&gt;Node0x590635112f50 -->
<g id="edge7" class="edge">
<title>Node0x59063510daa0&#45;&gt;Node0x590635112f50</title>
<path fill="none" stroke="#4a6fa5" d="M117.57,-1834.11C121.6,-1837.2 125.18,-1840.8 128,-1845 214.19,-1973.59 84.14,-3120.43 186,-3237 207.54,-3261.65 242.19,-3270.11 274.01,-3271.9"/>
<polygon fill="#4a6fa5" stroke="#4a6fa5" points="274.24,-3274.01 280.33,-3272.17 274.42,-3269.82 274.24,-3274.01"/>
</g>
<!-- Node0x59063510d2d0 -->
<g id="node9" class="node">
<title>Node0x59063510d2d0</title>
<path fill="#f0f4ff" stroke="black" d="M391.5,-3226C391.5,-3226 308.5,-3226 308.5,-3226 302.5,-3226 296.5,-3220 296.5,-3214 296.5,-3214 296.5,-3202 296.5,-3202 296.5,-3196 302.5,-3190 308.5,-3190 308.5,-3190 391.5,-3190 391.5,-3190 397.5,-3190 403.5,-3196 403.5,-3202 403.5,-3202 403.5,-3214 403.5,-3214 403.5,-3220 397.5,-3226 391.5,-3226"/>
<text text-anchor="middle" x="350" y="-3205.8" font-family="Courier,monospace" font-size="9.00">CIccFileIO::Open()</text>
</g>
<!-- Node0x59063510daa0&#45;&gt;Node0x59063510d2d0 -->
<g id="edge8" class="edge">
<title>Node0x59063510daa0&#45;&gt;Node0x59063510d2d0</title>
<path fill="none" stroke="#4a6fa5" d="M117.56,-1834.11C121.59,-1837.2 125.18,-1840.8 128,-1845 210.72,-1968.16 88.27,-3067.37 186,-3179 211.33,-3207.93 254.69,-3214.54 290.32,-3214.27"/>
<polygon fill="#4a6fa5" stroke="#4a6fa5" points="290.46,-3216.36 296.42,-3214.15 290.39,-3212.16 290.46,-3216.36"/>
</g>
<!-- Node0x590634f58e30 -->
<g id="node10" class="node">
<title>Node0x590634f58e30</title>
<path fill="#f0f4ff" stroke="black" d="M381,-3516C381,-3516 319,-3516 319,-3516 313,-3516 307,-3510 307,-3504 307,-3504 307,-3492 307,-3492 307,-3486 313,-3480 319,-3480 319,-3480 381,-3480 381,-3480 387,-3480 393,-3486 393,-3492 393,-3492 393,-3504 393,-3504 393,-3510 387,-3516 381,-3516"/>
<text text-anchor="middle" x="350" y="-3495.8" font-family="Courier,monospace" font-size="9.00">ColorSuccess()</text>
</g>
<!-- Node0x59063510daa0&#45;&gt;Node0x590634f58e30 -->
<g id="edge9" class="edge">
<title>Node0x59063510daa0&#45;&gt;Node0x590634f58e30</title>
<path fill="none" stroke="#4a6fa5" d="M117.59,-1834.09C121.62,-1837.18 125.2,-1840.79 128,-1845 228.09,-1995.28 67.59,-3332.69 186,-3469 213.71,-3500.9 263.34,-3505.73 300.58,-3504.05"/>
<polygon fill="#4a6fa5" stroke="#4a6fa5" points="301.04,-3506.13 306.91,-3503.7 300.81,-3501.94 301.04,-3506.13"/>
</g>
<!-- Node0x5906351099d0 -->
<g id="node11" class="node">
<title>Node0x5906351099d0</title>
<path fill="#f0f4ff" stroke="black" d="M386.5,-3110C386.5,-3110 313.5,-3110 313.5,-3110 307.5,-3110 301.5,-3104 301.5,-3098 301.5,-3098 301.5,-3086 301.5,-3086 301.5,-3080 307.5,-3074 313.5,-3074 313.5,-3074 386.5,-3074 386.5,-3074 392.5,-3074 398.5,-3080 398.5,-3086 398.5,-3086 398.5,-3098 398.5,-3098 398.5,-3104 392.5,-3110 386.5,-3110"/>
<text text-anchor="middle" x="350" y="-3089.8" font-family="Courier,monospace" font-size="9.00">CIccIO::Read32()</text>
</g>
<!-- Node0x59063510daa0&#45;&gt;Node0x5906351099d0 -->
<g id="edge10" class="edge">
<title>Node0x59063510daa0&#45;&gt;Node0x5906351099d0</title>
<path fill="none" stroke="#4a6fa5" d="M117.54,-1834.13C121.58,-1837.21 125.17,-1840.81 128,-1845 203.77,-1957.32 96.54,-2961.24 186,-3063 212.55,-3093.2 258.76,-3099.05 295.22,-3098.15"/>
<polygon fill="#4a6fa5" stroke="#4a6fa5" points="295.52,-3100.24 301.44,-3097.93 295.37,-3096.04 295.52,-3100.24"/>
</g>
<!-- Node0x590635128a40 -->
<g id="node12" class="node">
<title>Node0x590635128a40</title>
<path fill="#f0f4ff" stroke="black" d="M378.5,-3458C378.5,-3458 321.5,-3458 321.5,-3458 315.5,-3458 309.5,-3452 309.5,-3446 309.5,-3446 309.5,-3434 309.5,-3434 309.5,-3428 315.5,-3422 321.5,-3422 321.5,-3422 378.5,-3422 378.5,-3422 384.5,-3422 390.5,-3428 390.5,-3434 390.5,-3434 390.5,-3446 390.5,-3446 390.5,-3452 384.5,-3458 378.5,-3458"/>
<text text-anchor="middle" x="350" y="-3437.8" font-family="Courier,monospace" font-size="9.00">ColorHeader()</text>
</g>
<!-- Node0x59063510daa0&#45;&gt;Node0x590635128a40 -->
<g id="edge11" class="edge">
<title>Node0x59063510daa0&#45;&gt;Node0x590635128a40</title>
<path fill="none" stroke="#4a6fa5" d="M117.59,-1834.09C121.61,-1837.19 125.19,-1840.79 128,-1845 224.61,-1989.86 71.73,-3279.62 186,-3411 214.35,-3443.6 265.6,-3447.91 303.09,-3445.92"/>
<polygon fill="#4a6fa5" stroke="#4a6fa5" points="303.59,-3447.99 309.45,-3445.52 303.33,-3443.8 303.59,-3447.99"/>
</g>
<!-- Node0x590634f589c0 -->
<g id="node13" class="node">
<title>Node0x590634f589c0</title>
<path fill="#f0f4ff" stroke="black" d="M473,-2994C473,-2994 227,-2994 227,-2994 221,-2994 215,-2988 215,-2982 215,-2982 215,-2970 215,-2970 215,-2964 221,-2958 227,-2958 227,-2958 473,-2958 473,-2958 479,-2958 485,-2964 485,-2970 485,-2970 485,-2982 485,-2982 485,-2988 479,-2994 473,-2994"/>
<text text-anchor="middle" x="350" y="-2973.8" font-family="Courier,monospace" font-size="9.00">RunHeuristic_H136_ResponseCurveMeasurementCount()</text>
</g>
<!-- Node0x59063510daa0&#45;&gt;Node0x590634f589c0 -->
<g id="edge12" class="edge">
<title>Node0x59063510daa0&#45;&gt;Node0x590634f589c0</title>
<path fill="none" stroke="#4a6fa5" d="M117.52,-1834.14C121.56,-1837.22 125.16,-1840.81 128,-1845 196.83,-1946.47 104.81,-2855.11 186,-2947 192.7,-2954.58 200.64,-2960.63 209.34,-2965.41"/>
<polygon fill="#4a6fa5" stroke="#4a6fa5" points="208.56,-2967.37 214.86,-2968.23 210.48,-2963.63 208.56,-2967.37"/>
</g>
<!-- Node0x590635132f80 -->
<g id="node14" class="node">
<title>Node0x590635132f80</title>
<path fill="#f0f4ff" stroke="black" d="M420.5,-2936C420.5,-2936 279.5,-2936 279.5,-2936 273.5,-2936 267.5,-2930 267.5,-2924 267.5,-2924 267.5,-2912 267.5,-2912 267.5,-2906 273.5,-2900 279.5,-2900 279.5,-2900 420.5,-2900 420.5,-2900 426.5,-2900 432.5,-2906 432.5,-2912 432.5,-2912 432.5,-2924 432.5,-2924 432.5,-2930 426.5,-2936 420.5,-2936"/>
<text text-anchor="middle" x="350" y="-2915.8" font-family="Courier,monospace" font-size="9.00">RunRawPostLibraryHeuristics()</text>
</g>
<!-- Node0x59063510daa0&#45;&gt;Node0x590635132f80 -->
<g id="edge13" class="edge">
<title>Node0x59063510daa0&#45;&gt;Node0x590635132f80</title>
<path fill="none" stroke="#4a6fa5" d="M117.51,-1834.15C121.55,-1837.23 125.16,-1840.82 128,-1845 258.71,-2037.11 31.9,-2715.1 186,-2889 204.7,-2910.1 232.99,-2919.29 260.79,-2922.6"/>
<polygon fill="#4a6fa5" stroke="#4a6fa5" points="260.9,-2924.72 267.08,-2923.25 261.33,-2920.54 260.9,-2924.72"/>
</g>
<!-- Node0x590634f57590 -->
<g id="node15" class="node">
<title>Node0x590634f57590</title>
<path fill="#f0f4ff" stroke="black" d="M412.5,-2878C412.5,-2878 287.5,-2878 287.5,-2878 281.5,-2878 275.5,-2872 275.5,-2866 275.5,-2866 275.5,-2854 275.5,-2854 275.5,-2848 281.5,-2842 287.5,-2842 287.5,-2842 412.5,-2842 412.5,-2842 418.5,-2842 424.5,-2848 424.5,-2854 424.5,-2854 424.5,-2866 424.5,-2866 424.5,-2872 418.5,-2878 412.5,-2878"/>
<text text-anchor="middle" x="350" y="-2857.8" font-family="Courier,monospace" font-size="9.00">RunRawFallbackHeuristics()</text>
</g>
<!-- Node0x59063510daa0&#45;&gt;Node0x590634f57590 -->
<g id="edge14" class="edge">
<title>Node0x59063510daa0&#45;&gt;Node0x590634f57590</title>
<path fill="none" stroke="#4a6fa5" d="M117.49,-1834.16C121.54,-1837.24 125.15,-1840.82 128,-1845 251.77,-2026.27 40.16,-2666.97 186,-2831 206.59,-2854.16 238.75,-2862.96 269.08,-2865.38"/>
<polygon fill="#4a6fa5" stroke="#4a6fa5" points="268.99,-2867.48 275.11,-2865.78 269.27,-2863.29 268.99,-2867.48"/>
</g>
<!-- Node0x59063510a880 -->
<g id="node16" class="node">
<title>Node0x59063510a880</title>
<path fill="#f0f4ff" stroke="black" d="M386.5,-2820C386.5,-2820 313.5,-2820 313.5,-2820 307.5,-2820 301.5,-2814 301.5,-2808 301.5,-2808 301.5,-2796 301.5,-2796 301.5,-2790 307.5,-2784 313.5,-2784 313.5,-2784 386.5,-2784 386.5,-2784 392.5,-2784 398.5,-2790 398.5,-2796 398.5,-2796 398.5,-2808 398.5,-2808 398.5,-2814 392.5,-2820 386.5,-2820"/>
<text text-anchor="middle" x="350" y="-2799.8" font-family="Courier,monospace" font-size="9.00">CIccIO::Read16()</text>
</g>
<!-- Node0x59063510daa0&#45;&gt;Node0x59063510a880 -->
<g id="edge15" class="edge">
<title>Node0x59063510daa0&#45;&gt;Node0x59063510a880</title>
<path fill="none" stroke="#4a6fa5" d="M117.48,-1834.17C121.52,-1837.25 125.14,-1840.83 128,-1845 244.82,-2015.43 48.43,-2618.83 186,-2773 212.68,-2802.9 258.66,-2808.83 294.99,-2808.04"/>
<polygon fill="#4a6fa5" stroke="#4a6fa5" points="295.26,-2810.13 301.19,-2807.83 295.13,-2805.93 295.26,-2810.13"/>
</g>
<!-- Node0x590634f58470 -->
<g id="node17" class="node">
<title>Node0x590634f58470</title>
<path fill="#f0f4ff" stroke="black" d="M457,-2762C457,-2762 243,-2762 243,-2762 237,-2762 231,-2756 231,-2750 231,-2750 231,-2738 231,-2738 231,-2732 237,-2726 243,-2726 243,-2726 457,-2726 457,-2726 463,-2726 469,-2732 469,-2738 469,-2738 469,-2750 469,-2750 469,-2756 463,-2762 457,-2762"/>
<text text-anchor="middle" x="350" y="-2741.8" font-family="Courier,monospace" font-size="9.00">RunHeuristic_H145_XmlCurveTypeConsistency()</text>
</g>
<!-- Node0x59063510daa0&#45;&gt;Node0x590634f58470 -->
<g id="edge16" class="edge">
<title>Node0x59063510daa0&#45;&gt;Node0x590634f58470</title>
<path fill="none" stroke="#4a6fa5" d="M117.46,-1834.18C121.51,-1837.26 125.13,-1840.83 128,-1845 237.88,-2004.59 56.69,-2570.7 186,-2715 196.58,-2726.81 210.18,-2734.88 224.99,-2740.27"/>
<polygon fill="#4a6fa5" stroke="#4a6fa5" points="224.59,-2742.35 230.95,-2742.27 225.93,-2738.37 224.59,-2742.35"/>
</g>
<!-- Node0x590634f57a90 -->
<g id="node18" class="node">
<title>Node0x590634f57a90</title>
<path fill="#f0f4ff" stroke="black" d="M470.5,-2704C470.5,-2704 229.5,-2704 229.5,-2704 223.5,-2704 217.5,-2698 217.5,-2692 217.5,-2692 217.5,-2680 217.5,-2680 217.5,-2674 223.5,-2668 229.5,-2668 229.5,-2668 470.5,-2668 470.5,-2668 476.5,-2668 482.5,-2674 482.5,-2680 482.5,-2680 482.5,-2692 482.5,-2692 482.5,-2698 476.5,-2704 470.5,-2704"/>
<text text-anchor="middle" x="350" y="-2683.8" font-family="Courier,monospace" font-size="9.00">RunHeuristic_H144_XmlStringTerminationPrecheck()</text>
</g>
<!-- Node0x59063510daa0&#45;&gt;Node0x590634f57a90 -->
<g id="edge17" class="edge">
<title>Node0x59063510daa0&#45;&gt;Node0x590634f57a90</title>
<path fill="none" stroke="#4a6fa5" d="M117.44,-1834.2C121.49,-1837.27 125.12,-1840.84 128,-1845 230.94,-1993.76 64.95,-2522.56 186,-2657 193.38,-2665.2 202.22,-2671.59 211.9,-2676.54"/>
<polygon fill="#4a6fa5" stroke="#4a6fa5" points="211.05,-2678.46 217.37,-2679.14 212.85,-2674.66 211.05,-2678.46"/>
</g>
<!-- Node0x590634f57cd0 -->
<g id="node19" class="node">
<title>Node0x590634f57cd0</title>
<path fill="#f0f4ff" stroke="black" d="M454.5,-2646C454.5,-2646 245.5,-2646 245.5,-2646 239.5,-2646 233.5,-2640 233.5,-2634 233.5,-2634 233.5,-2622 233.5,-2622 233.5,-2616 239.5,-2610 245.5,-2610 245.5,-2610 454.5,-2610 454.5,-2610 460.5,-2610 466.5,-2616 466.5,-2622 466.5,-2622 466.5,-2634 466.5,-2634 466.5,-2640 460.5,-2646 454.5,-2646"/>
<text text-anchor="middle" x="350" y="-2625.8" font-family="Courier,monospace" font-size="9.00">RunHeuristic_H143_XmlArrayBoundsPrecheck()</text>
</g>
<!-- Node0x59063510daa0&#45;&gt;Node0x590634f57cd0 -->
<g id="edge18" class="edge">
<title>Node0x59063510daa0&#45;&gt;Node0x590634f57cd0</title>
<path fill="none" stroke="#4a6fa5" d="M117.41,-1834.21C121.47,-1837.28 125.11,-1840.85 128,-1845 224.01,-1982.93 73.21,-2474.42 186,-2599 197.17,-2611.34 211.62,-2619.57 227.3,-2624.94"/>
<polygon fill="#4a6fa5" stroke="#4a6fa5" points="226.77,-2626.98 233.13,-2626.79 228.04,-2622.97 226.77,-2626.98"/>
</g>
<!-- Node0x590634f57f10 -->
<g id="node20" class="node">
<title>Node0x590634f57f10</title>
<path fill="#f0f4ff" stroke="black" d="M454.5,-2588C454.5,-2588 245.5,-2588 245.5,-2588 239.5,-2588 233.5,-2582 233.5,-2576 233.5,-2576 233.5,-2564 233.5,-2564 233.5,-2558 239.5,-2552 245.5,-2552 245.5,-2552 454.5,-2552 454.5,-2552 460.5,-2552 466.5,-2558 466.5,-2564 466.5,-2564 466.5,-2576 466.5,-2576 466.5,-2582 460.5,-2588 454.5,-2588"/>
<text text-anchor="middle" x="350" y="-2567.8" font-family="Courier,monospace" font-size="9.00">RunHeuristic_H142_XmlSerializationSafety()</text>
</g>
<!-- Node0x59063510daa0&#45;&gt;Node0x590634f57f10 -->
<g id="edge19" class="edge">
<title>Node0x59063510daa0&#45;&gt;Node0x590634f57f10</title>
<path fill="none" stroke="#4a6fa5" d="M117.09,-1834.01C121.28,-1837.13 125.03,-1840.76 128,-1845 217.07,-1972.1 81.47,-2426.28 186,-2541 197.21,-2553.3 211.68,-2561.52 227.37,-2566.88"/>
<polygon fill="#4a6fa5" stroke="#4a6fa5" points="226.85,-2568.91 233.2,-2568.72 228.12,-2564.91 226.85,-2568.91"/>
</g>
<!-- Node0x590634f57850 -->
<g id="node21" class="node">
<title>Node0x590634f57850</title>
<path fill="#f0f4ff" stroke="black" d="M460,-2530C460,-2530 240,-2530 240,-2530 234,-2530 228,-2524 228,-2518 228,-2518 228,-2506 228,-2506 228,-2500 234,-2494 240,-2494 240,-2494 460,-2494 460,-2494 466,-2494 472,-2500 472,-2506 472,-2506 472,-2518 472,-2518 472,-2524 466,-2530 460,-2530"/>
<text text-anchor="middle" x="350" y="-2509.8" font-family="Courier,monospace" font-size="9.00">RunHeuristic_H138_CalculatorBranchingDepth()</text>
</g>
<!-- Node0x59063510daa0&#45;&gt;Node0x590634f57850 -->
<g id="edge20" class="edge">
<title>Node0x59063510daa0&#45;&gt;Node0x590634f57850</title>
<path fill="none" stroke="#4a6fa5" d="M117.06,-1834.04C121.25,-1837.14 125.01,-1840.77 128,-1845 210.14,-1961.28 89.72,-2378.13 186,-2483 195.95,-2493.84 208.44,-2501.5 222.05,-2506.83"/>
<polygon fill="#4a6fa5" stroke="#4a6fa5" points="221.59,-2508.89 227.95,-2508.97 223.03,-2504.95 221.59,-2508.89"/>
</g>
<!-- Node0x590635106ba0 -->
<g id="node22" class="node">
<title>Node0x590635106ba0</title>
<path fill="#f0f4ff" stroke="black" d="M394,-2472C394,-2472 306,-2472 306,-2472 300,-2472 294,-2466 294,-2460 294,-2460 294,-2448 294,-2448 294,-2442 300,-2436 306,-2436 306,-2436 394,-2436 394,-2436 400,-2436 406,-2442 406,-2448 406,-2448 406,-2460 406,-2460 406,-2466 400,-2472 394,-2472"/>
<text text-anchor="middle" x="350" y="-2451.8" font-family="Courier,monospace" font-size="9.00">CIccFileIO::Read8()</text>
</g>
<!-- Node0x59063510daa0&#45;&gt;Node0x590635106ba0 -->
<g id="edge21" class="edge">
<title>Node0x59063510daa0&#45;&gt;Node0x590635106ba0</title>
<path fill="none" stroke="#4a6fa5" d="M117.02,-1834.07C121.22,-1837.17 124.99,-1840.78 128,-1845 203.21,-1950.46 97.97,-2329.98 186,-2425 211.28,-2452.29 252.67,-2459.4 287.42,-2459.76"/>
<polygon fill="#4a6fa5" stroke="#4a6fa5" points="287.82,-2461.86 293.82,-2459.75 287.82,-2457.66 287.82,-2461.86"/>
</g>
<!-- Node0x590634f573d0 -->
<g id="node23" class="node">
<title>Node0x590634f573d0</title>
<path fill="#f0f4ff" stroke="black" d="M473,-2414C473,-2414 227,-2414 227,-2414 221,-2414 215,-2408 215,-2402 215,-2402 215,-2390 215,-2390 215,-2384 221,-2378 227,-2378 227,-2378 473,-2378 473,-2378 479,-2378 485,-2384 485,-2390 485,-2390 485,-2402 485,-2402 485,-2408 479,-2414 473,-2414"/>
<text text-anchor="middle" x="350" y="-2393.8" font-family="Courier,monospace" font-size="9.00">RunHeuristic_H137_HighDimensionalGridComplexity()</text>
</g>
<!-- Node0x59063510daa0&#45;&gt;Node0x590634f573d0 -->
<g id="edge22" class="edge">
<title>Node0x59063510daa0&#45;&gt;Node0x590634f573d0</title>
<path fill="none" stroke="#4a6fa5" d="M116.97,-1834.1C121.18,-1837.19 124.97,-1840.8 128,-1845 264.58,-2034.3 26.43,-2196.63 186,-2367 192.75,-2374.21 200.63,-2380.01 209.21,-2384.64"/>
<polygon fill="#4a6fa5" stroke="#4a6fa5" points="208.33,-2386.55 214.64,-2387.38 210.22,-2382.8 208.33,-2386.55"/>
</g>
<!-- Node0x590635132a30 -->
<g id="node24" class="node">
<title>Node0x590635132a30</title>
<path fill="#f0f4ff" stroke="black" d="M454.5,-2356C454.5,-2356 245.5,-2356 245.5,-2356 239.5,-2356 233.5,-2350 233.5,-2344 233.5,-2344 233.5,-2332 233.5,-2332 233.5,-2326 239.5,-2320 245.5,-2320 245.5,-2320 454.5,-2320 454.5,-2320 460.5,-2320 466.5,-2326 466.5,-2332 466.5,-2332 466.5,-2344 466.5,-2344 466.5,-2350 460.5,-2356 454.5,-2356"/>
<text text-anchor="middle" x="350" y="-2335.8" font-family="Courier,monospace" font-size="9.00">RunHeuristic_H135_DuplicateTagSignatures()</text>
</g>
<!-- Node0x59063510daa0&#45;&gt;Node0x590635132a30 -->
<g id="edge23" class="edge">
<title>Node0x59063510daa0&#45;&gt;Node0x590635132a30</title>
<path fill="none" stroke="#4a6fa5" d="M116.91,-1834.14C121.13,-1837.23 124.94,-1840.82 128,-1845 250.75,-2012.7 42.89,-2158.29 186,-2309 197.37,-2320.97 211.84,-2329.03 227.46,-2334.33"/>
<polygon fill="#4a6fa5" stroke="#4a6fa5" points="226.9,-2336.36 233.26,-2336.16 228.17,-2332.36 226.9,-2336.36"/>
</g>
<!-- Node0x590634f56d40 -->
<g id="node25" class="node">
<title>Node0x590634f56d40</title>
<path fill="#f0f4ff" stroke="black" d="M449.5,-2298C449.5,-2298 250.5,-2298 250.5,-2298 244.5,-2298 238.5,-2292 238.5,-2286 238.5,-2286 238.5,-2274 238.5,-2274 238.5,-2268 244.5,-2262 250.5,-2262 250.5,-2262 449.5,-2262 449.5,-2262 455.5,-2262 461.5,-2268 461.5,-2274 461.5,-2274 461.5,-2286 461.5,-2286 461.5,-2292 455.5,-2298 449.5,-2298"/>
<text text-anchor="middle" x="350" y="-2277.8" font-family="Courier,monospace" font-size="9.00">RunHeuristic_H134_TagTypeReservedBytes()</text>
</g>
<!-- Node0x59063510daa0&#45;&gt;Node0x590634f56d40 -->
<g id="edge24" class="edge">
<title>Node0x59063510daa0&#45;&gt;Node0x590634f56d40</title>
<path fill="none" stroke="#4a6fa5" d="M116.84,-1834.2C121.07,-1837.27 124.91,-1840.85 128,-1845 236.95,-1991.13 59.33,-2119.93 186,-2251 198.65,-2264.09 215.02,-2272.48 232.49,-2277.69"/>
<polygon fill="#4a6fa5" stroke="#4a6fa5" points="232.12,-2279.77 238.46,-2279.34 233.23,-2275.72 232.12,-2279.77"/>
</g>
<!-- Node0x590634f56690 -->
<g id="node26" class="node">
<title>Node0x590634f56690</title>
<path fill="#f0f4ff" stroke="black" d="M441.5,-2240C441.5,-2240 258.5,-2240 258.5,-2240 252.5,-2240 246.5,-2234 246.5,-2228 246.5,-2228 246.5,-2216 246.5,-2216 246.5,-2210 252.5,-2204 258.5,-2204 258.5,-2204 441.5,-2204 441.5,-2204 447.5,-2204 453.5,-2210 453.5,-2216 453.5,-2216 453.5,-2228 453.5,-2228 453.5,-2234 447.5,-2240 441.5,-2240"/>
<text text-anchor="middle" x="350" y="-2219.8" font-family="Courier,monospace" font-size="9.00">RunHeuristic_H133_FlagsReservedBits()</text>
</g>
<!-- Node0x59063510daa0&#45;&gt;Node0x590634f56690 -->
<g id="edge25" class="edge">
<title>Node0x59063510daa0&#45;&gt;Node0x590634f56690</title>
<path fill="none" stroke="#4a6fa5" d="M116.44,-1834.06C120.81,-1837.17 124.78,-1840.79 128,-1845 223.18,-1969.61 75.73,-2081.52 186,-2193 200.63,-2207.79 220.01,-2216.53 240.28,-2221.47"/>
<polygon fill="#4a6fa5" stroke="#4a6fa5" points="240,-2223.56 246.31,-2222.82 240.92,-2219.46 240,-2223.56"/>
</g>
<!-- Node0x590635122210 -->
<g id="node27" class="node">
<title>Node0x590635122210</title>
<path fill="#f0f4ff" stroke="black" d="M386.5,-2182C386.5,-2182 313.5,-2182 313.5,-2182 307.5,-2182 301.5,-2176 301.5,-2170 301.5,-2170 301.5,-2158 301.5,-2158 301.5,-2152 307.5,-2146 313.5,-2146 313.5,-2146 386.5,-2146 386.5,-2146 392.5,-2146 398.5,-2152 398.5,-2158 398.5,-2158 398.5,-2170 398.5,-2170 398.5,-2176 392.5,-2182 386.5,-2182"/>
<text text-anchor="middle" x="350" y="-2161.8" font-family="Courier,monospace" font-size="9.00">CIccIO::Read64()</text>
</g>
<!-- Node0x59063510daa0&#45;&gt;Node0x590635122210 -->
<g id="edge26" class="edge">
<title>Node0x59063510daa0&#45;&gt;Node0x590635122210</title>
<path fill="none" stroke="#4a6fa5" d="M116.3,-1834.17C120.7,-1837.26 124.72,-1840.84 128,-1845 209.46,-1948.16 92.07,-2043.05 186,-2135 214.35,-2162.75 259.51,-2169.01 295.11,-2168.88"/>
<polygon fill="#4a6fa5" stroke="#4a6fa5" points="295.22,-2170.98 301.19,-2168.8 295.16,-2166.78 295.22,-2170.98"/>
</g>
<!-- Node0x590634f56940 -->
<g id="node28" class="node">
<title>Node0x590634f56940</title>
<path fill="#f0f4ff" stroke="black" d="M436,-2124C436,-2124 264,-2124 264,-2124 258,-2124 252,-2118 252,-2112 252,-2112 252,-2100 252,-2100 252,-2094 258,-2088 264,-2088 264,-2088 436,-2088 436,-2088 442,-2088 448,-2094 448,-2100 448,-2100 448,-2112 448,-2112 448,-2118 442,-2124 436,-2124"/>
<text text-anchor="middle" x="350" y="-2103.8" font-family="Courier,monospace" font-size="9.00">RunHeuristic_H132_ChadDeterminant()</text>
</g>
<!-- Node0x59063510daa0&#45;&gt;Node0x590634f56940 -->
<g id="edge27" class="edge">
<title>Node0x59063510daa0&#45;&gt;Node0x590634f56940</title>
<path fill="none" stroke="#4a6fa5" d="M115.8,-1834.13C120.35,-1837.23 124.54,-1840.83 128,-1845 195.83,-1926.82 108.3,-2004.48 186,-2077 202.4,-2092.3 223.94,-2100.97 245.97,-2105.63"/>
<polygon fill="#4a6fa5" stroke="#4a6fa5" points="245.59,-2107.69 251.88,-2106.78 246.4,-2103.57 245.59,-2107.69"/>
</g>
<!-- Node0x590634f56b80 -->
<g id="node29" class="node">
<title>Node0x590634f56b80</title>
<path fill="#f0f4ff" stroke="black" d="M428.5,-2066C428.5,-2066 271.5,-2066 271.5,-2066 265.5,-2066 259.5,-2060 259.5,-2054 259.5,-2054 259.5,-2042 259.5,-2042 259.5,-2036 265.5,-2030 271.5,-2030 271.5,-2030 428.5,-2030 428.5,-2030 434.5,-2030 440.5,-2036 440.5,-2042 440.5,-2042 440.5,-2054 440.5,-2054 440.5,-2060 434.5,-2066 428.5,-2066"/>
<text text-anchor="middle" x="350" y="-2045.8" font-family="Courier,monospace" font-size="9.00">RunHeuristic_H131_ProfileIdMD5()</text>
</g>
<!-- Node0x59063510daa0&#45;&gt;Node0x590634f56b80 -->
<g id="edge28" class="edge">
<title>Node0x59063510daa0&#45;&gt;Node0x590634f56b80</title>
<path fill="none" stroke="#4a6fa5" d="M115.17,-1834.2C119.9,-1837.3 124.3,-1840.87 128,-1845 182.4,-1905.71 124.32,-1965.71 186,-2019 204.55,-2035.02 228.82,-2043.59 252.95,-2047.89"/>
<polygon fill="#4a6fa5" stroke="#4a6fa5" points="252.82,-2050 259.08,-2048.89 253.5,-2045.85 252.82,-2050"/>
</g>
<!-- Node0x590635132540 -->
<g id="node30" class="node">
<title>Node0x590635132540</title>
<path fill="#f0f4ff" stroke="black" d="M428.5,-2008C428.5,-2008 271.5,-2008 271.5,-2008 265.5,-2008 259.5,-2002 259.5,-1996 259.5,-1996 259.5,-1984 259.5,-1984 259.5,-1978 265.5,-1972 271.5,-1972 271.5,-1972 428.5,-1972 428.5,-1972 434.5,-1972 440.5,-1978 440.5,-1984 440.5,-1984 440.5,-1996 440.5,-1996 440.5,-2002 434.5,-2008 428.5,-2008"/>
<text text-anchor="middle" x="350" y="-1987.8" font-family="Courier,monospace" font-size="9.00">RunHeuristic_H130_TagAlignment()</text>
</g>
<!-- Node0x59063510daa0&#45;&gt;Node0x590635132540 -->
<g id="edge29" class="edge">
<title>Node0x59063510daa0&#45;&gt;Node0x590635132540</title>
<path fill="none" stroke="#4a6fa5" d="M113.65,-1834.17C118.84,-1837.3 123.76,-1840.9 128,-1845 169.41,-1885.1 139.82,-1926.5 186,-1961 205.32,-1975.43 229.48,-1983.52 253.23,-1987.87"/>
<polygon fill="#4a6fa5" stroke="#4a6fa5" points="252.99,-1989.96 259.26,-1988.9 253.7,-1985.82 252.99,-1989.96"/>
</g>
<!-- Node0x590634f56210 -->
<g id="node31" class="node">
<title>Node0x590634f56210</title>
<path fill="#f0f4ff" stroke="black" d="M439,-1950C439,-1950 261,-1950 261,-1950 255,-1950 249,-1944 249,-1938 249,-1938 249,-1926 249,-1926 249,-1920 255,-1914 261,-1914 261,-1914 439,-1914 439,-1914 445,-1914 451,-1920 451,-1926 451,-1926 451,-1938 451,-1938 451,-1944 445,-1950 439,-1950"/>
<text text-anchor="middle" x="350" y="-1929.8" font-family="Courier,monospace" font-size="9.00">RunHeuristic_H129_PCSIlluminantD50()</text>
</g>
<!-- Node0x59063510daa0&#45;&gt;Node0x590634f56210 -->
<g id="edge30" class="edge">
<title>Node0x59063510daa0&#45;&gt;Node0x590634f56210</title>
<path fill="none" stroke="#4a6fa5" d="M109.48,-1834.05C115.9,-1837.34 122.27,-1841.01 128,-1845 157.91,-1865.84 153.68,-1886.14 186,-1903 203.44,-1912.09 223.2,-1918.4 242.79,-1922.76"/>
<polygon fill="#4a6fa5" stroke="#4a6fa5" points="242.56,-1924.85 248.87,-1924.05 243.43,-1920.74 242.56,-1924.85"/>
</g>
<!-- Node0x590634f559d0 -->
<g id="node32" class="node">
<title>Node0x590634f559d0</title>
<path fill="#f0f4ff" stroke="black" d="M423,-1892C423,-1892 277,-1892 277,-1892 271,-1892 265,-1886 265,-1880 265,-1880 265,-1868 265,-1868 265,-1862 271,-1856 277,-1856 277,-1856 423,-1856 423,-1856 429,-1856 435,-1862 435,-1868 435,-1868 435,-1880 435,-1880 435,-1886 429,-1892 423,-1892"/>
<text text-anchor="middle" x="350" y="-1871.8" font-family="Courier,monospace" font-size="9.00">RunHeuristic_H128_VersionBCD()</text>
</g>
<!-- Node0x59063510daa0&#45;&gt;Node0x590634f559d0 -->
<g id="edge31" class="edge">
<title>Node0x59063510daa0&#45;&gt;Node0x590634f559d0</title>
<path fill="none" stroke="#4a6fa5" d="M117.56,-1829.31C138.75,-1834.49 163.48,-1840.3 186,-1845 209.47,-1849.9 234.96,-1854.68 258.65,-1858.91"/>
<polygon fill="#4a6fa5" stroke="#4a6fa5" points="258.36,-1860.99 264.64,-1859.97 259.1,-1856.85 258.36,-1860.99"/>
</g>
<!-- Node0x590634f564e0 -->
<g id="node33" class="node">
<title>Node0x590634f564e0</title>
<path fill="#f0f4ff" stroke="black" d="M444,-1834C444,-1834 256,-1834 256,-1834 250,-1834 244,-1828 244,-1822 244,-1822 244,-1810 244,-1810 244,-1804 250,-1798 256,-1798 256,-1798 444,-1798 444,-1798 450,-1798 456,-1804 456,-1810 456,-1810 456,-1822 456,-1822 456,-1828 450,-1834 444,-1834"/>
<text text-anchor="middle" x="350" y="-1813.8" font-family="Courier,monospace" font-size="9.00">RunHeuristic_H127_PrivateTagRegistry()</text>
</g>
<!-- Node0x59063510daa0&#45;&gt;Node0x590634f564e0 -->
<g id="edge32" class="edge">
<title>Node0x59063510daa0&#45;&gt;Node0x590634f564e0</title>
<path fill="none" stroke="#4a6fa5" d="M117.75,-1816C151.47,-1816 196.46,-1816 237.8,-1816"/>
<polygon fill="#4a6fa5" stroke="#4a6fa5" points="237.88,-1818.1 243.88,-1816 237.88,-1813.9 237.88,-1818.1"/>
</g>
<!-- Node0x590635131ff0 -->
<g id="node34" class="node">
<title>Node0x590635131ff0</title>
<path fill="#f0f4ff" stroke="black" d="M441.5,-1776C441.5,-1776 258.5,-1776 258.5,-1776 252.5,-1776 246.5,-1770 246.5,-1764 246.5,-1764 246.5,-1752 246.5,-1752 246.5,-1746 252.5,-1740 258.5,-1740 258.5,-1740 441.5,-1740 441.5,-1740 447.5,-1740 453.5,-1746 453.5,-1752 453.5,-1752 453.5,-1764 453.5,-1764 453.5,-1770 447.5,-1776 441.5,-1776"/>
<text text-anchor="middle" x="350" y="-1755.8" font-family="Courier,monospace" font-size="9.00">RunHeuristic_H126_PrivateTagMalware()</text>
</g>
<!-- Node0x59063510daa0&#45;&gt;Node0x590635131ff0 -->
<g id="edge33" class="edge">
<title>Node0x59063510daa0&#45;&gt;Node0x590635131ff0</title>
<path fill="none" stroke="#4a6fa5" d="M117.56,-1802.69C138.75,-1797.51 163.48,-1791.7 186,-1787 203.44,-1783.36 222,-1779.78 240.1,-1776.45"/>
<polygon fill="#4a6fa5" stroke="#4a6fa5" points="240.7,-1778.48 246.22,-1775.33 239.94,-1774.35 240.7,-1778.48"/>
</g>
<!-- Node0x590635131a70 -->
<g id="node35" class="node">
<title>Node0x590635131a70</title>
<path fill="#f0f4ff" stroke="black" d="M446.5,-1718C446.5,-1718 253.5,-1718 253.5,-1718 247.5,-1718 241.5,-1712 241.5,-1706 241.5,-1706 241.5,-1694 241.5,-1694 241.5,-1688 247.5,-1682 253.5,-1682 253.5,-1682 446.5,-1682 446.5,-1682 452.5,-1682 458.5,-1688 458.5,-1694 458.5,-1694 458.5,-1706 458.5,-1706 458.5,-1712 452.5,-1718 446.5,-1718"/>
<text text-anchor="middle" x="350" y="-1697.8" font-family="Courier,monospace" font-size="9.00">RunHeuristic_H125_TransformSmoothness()</text>
</g>
<!-- Node0x59063510daa0&#45;&gt;Node0x590635131a70 -->
<g id="edge34" class="edge">
<title>Node0x59063510daa0&#45;&gt;Node0x590635131a70</title>
<path fill="none" stroke="#4a6fa5" d="M84.27,-1797.86C106.83,-1777.71 146.2,-1745.82 186,-1729 201.45,-1722.47 218.32,-1717.42 235.16,-1713.5"/>
<polygon fill="#4a6fa5" stroke="#4a6fa5" points="235.97,-1715.47 241.36,-1712.1 235.05,-1711.37 235.97,-1715.47"/>
</g>
<!-- Node0x5906351314f0 -->
<g id="node36" class="node">
<title>Node0x5906351314f0</title>
<path fill="#f0f4ff" stroke="black" d="M425.5,-1660C425.5,-1660 274.5,-1660 274.5,-1660 268.5,-1660 262.5,-1654 262.5,-1648 262.5,-1648 262.5,-1636 262.5,-1636 262.5,-1630 268.5,-1624 274.5,-1624 274.5,-1624 425.5,-1624 425.5,-1624 431.5,-1624 437.5,-1630 437.5,-1636 437.5,-1636 437.5,-1648 437.5,-1648 437.5,-1654 431.5,-1660 425.5,-1660"/>
<text text-anchor="middle" x="350" y="-1639.8" font-family="Courier,monospace" font-size="9.00">RunHeuristic_H124_VersionTags()</text>
</g>
<!-- Node0x59063510daa0&#45;&gt;Node0x5906351314f0 -->
<g id="edge35" class="edge">
<title>Node0x59063510daa0&#45;&gt;Node0x5906351314f0</title>
<path fill="none" stroke="#4a6fa5" d="M74.51,-1797.79C91.99,-1766.31 132.4,-1702.1 186,-1671 207.09,-1658.77 232.09,-1651.46 256.1,-1647.15"/>
<polygon fill="#4a6fa5" stroke="#4a6fa5" points="256.62,-1649.19 262.18,-1646.12 255.92,-1645.05 256.62,-1649.19"/>
</g>
<!-- Node0x590634f554e0 -->
<g id="node37" class="node">
<title>Node0x590634f554e0</title>
<path fill="#f0f4ff" stroke="black" d="M436,-1602C436,-1602 264,-1602 264,-1602 258,-1602 252,-1596 252,-1590 252,-1590 252,-1578 252,-1578 252,-1572 258,-1566 264,-1566 264,-1566 436,-1566 436,-1566 442,-1566 448,-1572 448,-1578 448,-1578 448,-1590 448,-1590 448,-1596 442,-1602 436,-1602"/>
<text text-anchor="middle" x="350" y="-1581.8" font-family="Courier,monospace" font-size="9.00">RunHeuristic_H123_NonRequiredTags()</text>
</g>
<!-- Node0x59063510daa0&#45;&gt;Node0x590634f554e0 -->
<g id="edge36" class="edge">
<title>Node0x59063510daa0&#45;&gt;Node0x590634f554e0</title>
<path fill="none" stroke="#4a6fa5" d="M70.15,-1797.8C82.61,-1757.31 118.49,-1659.65 186,-1613 203.62,-1600.83 224.78,-1593.28 245.94,-1588.7"/>
<polygon fill="#4a6fa5" stroke="#4a6fa5" points="246.45,-1590.75 251.91,-1587.49 245.61,-1586.63 246.45,-1590.75"/>
</g>
<!-- Node0x590634f55cd0 -->
<g id="node38" class="node">
<title>Node0x590634f55cd0</title>
<path fill="#f0f4ff" stroke="black" d="M425.5,-1544C425.5,-1544 274.5,-1544 274.5,-1544 268.5,-1544 262.5,-1538 262.5,-1532 262.5,-1532 262.5,-1520 262.5,-1520 262.5,-1514 268.5,-1508 274.5,-1508 274.5,-1508 425.5,-1508 425.5,-1508 431.5,-1508 437.5,-1514 437.5,-1520 437.5,-1520 437.5,-1532 437.5,-1532 437.5,-1538 431.5,-1544 425.5,-1544"/>
<text text-anchor="middle" x="350" y="-1523.8" font-family="Courier,monospace" font-size="9.00">RunHeuristic_H122_TagEncoding()</text>
</g>
<!-- Node0x59063510daa0&#45;&gt;Node0x590634f55cd0 -->
<g id="edge37" class="edge">
<title>Node0x59063510daa0&#45;&gt;Node0x590634f55cd0</title>
<path fill="none" stroke="#4a6fa5" d="M67.6,-1797.91C75.53,-1749.8 104.1,-1618.09 186,-1555 206.03,-1539.57 231.53,-1531.32 256.39,-1527.14"/>
<polygon fill="#4a6fa5" stroke="#4a6fa5" points="256.74,-1529.21 262.35,-1526.21 256.1,-1525.06 256.74,-1529.21"/>
</g>
<!-- Node0x590634f557e0 -->
<g id="node39" class="node">
<title>Node0x590634f557e0</title>
<path fill="#f0f4ff" stroke="black" d="M441.5,-1486C441.5,-1486 258.5,-1486 258.5,-1486 252.5,-1486 246.5,-1480 246.5,-1474 246.5,-1474 246.5,-1462 246.5,-1462 246.5,-1456 252.5,-1450 258.5,-1450 258.5,-1450 441.5,-1450 441.5,-1450 447.5,-1450 453.5,-1456 453.5,-1462 453.5,-1462 453.5,-1474 453.5,-1474 453.5,-1480 447.5,-1486 441.5,-1486"/>
<text text-anchor="middle" x="350" y="-1465.8" font-family="Courier,monospace" font-size="9.00">RunHeuristic_H121_CharDataRoundTrip()</text>
</g>
<!-- Node0x59063510daa0&#45;&gt;Node0x590634f557e0 -->
<g id="edge38" class="edge">
<title>Node0x59063510daa0&#45;&gt;Node0x590634f557e0</title>
<path fill="none" stroke="#4a6fa5" d="M65.95,-1797.68C69.88,-1742.53 89.55,-1576.95 186,-1497 201.51,-1484.14 220.74,-1476.15 240.5,-1471.33"/>
<polygon fill="#4a6fa5" stroke="#4a6fa5" points="240.98,-1473.37 246.36,-1469.99 240.04,-1469.28 240.98,-1473.37"/>
</g>
<!-- Node0x590635130f30 -->
<g id="node40" class="node">
<title>Node0x590635130f30</title>
<path fill="#f0f4ff" stroke="black" d="M444,-1428C444,-1428 256,-1428 256,-1428 250,-1428 244,-1422 244,-1416 244,-1416 244,-1404 244,-1404 244,-1398 250,-1392 256,-1392 256,-1392 444,-1392 444,-1392 450,-1392 456,-1398 456,-1404 456,-1404 456,-1416 456,-1416 456,-1422 450,-1428 444,-1428"/>
<text text-anchor="middle" x="350" y="-1407.8" font-family="Courier,monospace" font-size="9.00">RunHeuristic_H120_CurveInvertibility()</text>
</g>
<!-- Node0x59063510daa0&#45;&gt;Node0x590635130f30 -->
<g id="edge39" class="edge">
<title>Node0x59063510daa0&#45;&gt;Node0x590635130f30</title>
<path fill="none" stroke="#4a6fa5" d="M64.75,-1798C64.96,-1736.99 74.45,-1536.47 186,-1439 200.61,-1426.23 218.86,-1418.18 237.8,-1413.25"/>
<polygon fill="#4a6fa5" stroke="#4a6fa5" points="238.36,-1415.27 243.69,-1411.81 237.37,-1411.19 238.36,-1415.27"/>
</g>
<!-- Node0x590634f55020 -->
<g id="node41" class="node">
<title>Node0x590634f55020</title>
<path fill="#f0f4ff" stroke="black" d="M436,-1370C436,-1370 264,-1370 264,-1370 258,-1370 252,-1364 252,-1358 252,-1358 252,-1346 252,-1346 252,-1340 258,-1334 264,-1334 264,-1334 436,-1334 436,-1334 442,-1334 448,-1340 448,-1346 448,-1346 448,-1358 448,-1358 448,-1364 442,-1370 436,-1370"/>
<text text-anchor="middle" x="350" y="-1349.8" font-family="Courier,monospace" font-size="9.00">RunHeuristic_H119_RoundTripDeltaE()</text>
</g>
<!-- Node0x59063510daa0&#45;&gt;Node0x590634f55020 -->
<g id="edge40" class="edge">
<title>Node0x59063510daa0&#45;&gt;Node0x590634f55020</title>
<path fill="none" stroke="#4a6fa5" d="M67.46,-1797.86C78,-1723.03 121.69,-1439.46 186,-1381 202.43,-1366.07 223.78,-1357.5 245.59,-1352.83"/>
<polygon fill="#4a6fa5" stroke="#4a6fa5" points="246.27,-1354.83 251.75,-1351.61 245.46,-1350.71 246.27,-1354.83"/>
</g>
<!-- Node0x590635131180 -->
<g id="node42" class="node">
<title>Node0x590635131180</title>
<path fill="#f0f4ff" stroke="black" d="M439,-1312C439,-1312 261,-1312 261,-1312 255,-1312 249,-1306 249,-1300 249,-1300 249,-1288 249,-1288 249,-1282 255,-1276 261,-1276 261,-1276 439,-1276 439,-1276 445,-1276 451,-1282 451,-1288 451,-1288 451,-1300 451,-1300 451,-1306 445,-1312 439,-1312"/>
<text text-anchor="middle" x="350" y="-1291.8" font-family="Courier,monospace" font-size="9.00">RunHeuristic_H118_CalcCostEstimate()</text>
</g>
<!-- Node0x59063510daa0&#45;&gt;Node0x590635131180 -->
<g id="edge41" class="edge">
<title>Node0x59063510daa0&#45;&gt;Node0x590635131180</title>
<path fill="none" stroke="#4a6fa5" d="M66.82,-1797.98C75.36,-1717.33 113.99,-1390.51 186,-1323 201.62,-1308.36 221.95,-1299.78 242.93,-1294.98"/>
<polygon fill="#4a6fa5" stroke="#4a6fa5" points="243.43,-1297.02 248.87,-1293.72 242.56,-1292.91 243.43,-1297.02"/>
</g>
<!-- Node0x590634f552f0 -->
<g id="node43" class="node">
<title>Node0x590634f552f0</title>
<path fill="#f0f4ff" stroke="black" d="M433.5,-1254C433.5,-1254 266.5,-1254 266.5,-1254 260.5,-1254 254.5,-1248 254.5,-1242 254.5,-1242 254.5,-1230 254.5,-1230 254.5,-1224 260.5,-1218 266.5,-1218 266.5,-1218 433.5,-1218 433.5,-1218 439.5,-1218 445.5,-1224 445.5,-1230 445.5,-1230 445.5,-1242 445.5,-1242 445.5,-1248 439.5,-1254 433.5,-1254"/>
<text text-anchor="middle" x="350" y="-1233.8" font-family="Courier,monospace" font-size="9.00">RunHeuristic_H117_TagTypeAllowed()</text>
</g>
<!-- Node0x59063510daa0&#45;&gt;Node0x590634f552f0 -->
<g id="edge42" class="edge">
<title>Node0x59063510daa0&#45;&gt;Node0x590634f552f0</title>
<path fill="none" stroke="#4a6fa5" d="M66.33,-1797.95C73.07,-1711.58 106.28,-1341.59 186,-1265 202.74,-1248.91 225.15,-1240.09 247.98,-1235.55"/>
<polygon fill="#4a6fa5" stroke="#4a6fa5" points="248.58,-1237.58 254.11,-1234.44 247.83,-1233.45 248.58,-1237.58"/>
</g>
<!-- Node0x590634f54e70 -->
<g id="node44" class="node">
<title>Node0x590634f54e70</title>
<path fill="#f0f4ff" stroke="black" d="M439,-1196C439,-1196 261,-1196 261,-1196 255,-1196 249,-1190 249,-1184 249,-1184 249,-1172 249,-1172 249,-1166 255,-1160 261,-1160 261,-1160 439,-1160 439,-1160 445,-1160 451,-1166 451,-1172 451,-1172 451,-1184 451,-1184 451,-1190 445,-1196 439,-1196"/>
<text text-anchor="middle" x="350" y="-1175.8" font-family="Courier,monospace" font-size="9.00">RunHeuristic_H116_CprtDescEncoding()</text>
</g>
<!-- Node0x59063510daa0&#45;&gt;Node0x590634f54e70 -->
<g id="edge43" class="edge">
<title>Node0x59063510daa0&#45;&gt;Node0x590634f54e70</title>
<path fill="none" stroke="#4a6fa5" d="M65.93,-1797.93C71,-1706.15 98.53,-1292.74 186,-1207 201.39,-1191.92 221.74,-1183.18 242.82,-1178.37"/>
<polygon fill="#4a6fa5" stroke="#4a6fa5" points="243.35,-1180.41 248.79,-1177.11 242.48,-1176.3 243.35,-1180.41"/>
</g>
<!-- Node0x590635125070 -->
<g id="node45" class="node">
<title>Node0x590635125070</title>
<path fill="#f0f4ff" stroke="black" d="M394,-1138C394,-1138 306,-1138 306,-1138 300,-1138 294,-1132 294,-1126 294,-1126 294,-1114 294,-1114 294,-1108 300,-1102 306,-1102 306,-1102 394,-1102 394,-1102 400,-1102 406,-1108 406,-1114 406,-1114 406,-1126 406,-1126 406,-1132 400,-1138 394,-1138"/>
<text text-anchor="middle" x="350" y="-1117.8" font-family="Courier,monospace" font-size="9.00">CIccFileIO::Close()</text>
</g>
<!-- Node0x59063510daa0&#45;&gt;Node0x590635125070 -->
<g id="edge44" class="edge">
<title>Node0x59063510daa0&#45;&gt;Node0x590635125070</title>
<path fill="none" stroke="#4a6fa5" d="M65.59,-1797.85C69.14,-1700.79 90.76,-1243.92 186,-1149 212.16,-1122.93 253.13,-1115.72 287.45,-1115.01"/>
<polygon fill="#4a6fa5" stroke="#4a6fa5" points="287.79,-1117.11 293.77,-1114.95 287.75,-1112.91 287.79,-1117.11"/>
</g>
<!-- Node0x59063511f700 -->
<g id="node46" class="node">
<title>Node0x59063511f700</title>
<path fill="#f0f4ff" stroke="black" d="M391.5,-1080C391.5,-1080 308.5,-1080 308.5,-1080 302.5,-1080 296.5,-1074 296.5,-1068 296.5,-1068 296.5,-1056 296.5,-1056 296.5,-1050 302.5,-1044 308.5,-1044 308.5,-1044 391.5,-1044 391.5,-1044 397.5,-1044 403.5,-1050 403.5,-1056 403.5,-1056 403.5,-1068 403.5,-1068 403.5,-1074 397.5,-1080 391.5,-1080"/>
<text text-anchor="middle" x="350" y="-1059.8" font-family="Courier,monospace" font-size="9.00">CIccFileIO::Seek()</text>
</g>
<!-- Node0x59063510daa0&#45;&gt;Node0x59063511f700 -->
<g id="edge45" class="edge">
<title>Node0x59063510daa0&#45;&gt;Node0x59063511f700</title>
<path fill="none" stroke="#4a6fa5" d="M65.3,-1797.98C67.4,-1696.31 82.9,-1195.21 186,-1091 212.64,-1064.07 255.06,-1057.18 289.94,-1056.84"/>
<polygon fill="#4a6fa5" stroke="#4a6fa5" points="290.36,-1058.94 296.36,-1056.85 290.36,-1054.74 290.36,-1058.94"/>
</g>
<!-- Node0x5906351309e0 -->
<g id="node47" class="node">
<title>Node0x5906351309e0</title>
<path fill="#f0f4ff" stroke="black" d="M449.5,-1022C449.5,-1022 250.5,-1022 250.5,-1022 244.5,-1022 238.5,-1016 238.5,-1010 238.5,-1010 238.5,-998 238.5,-998 238.5,-992 244.5,-986 250.5,-986 250.5,-986 449.5,-986 449.5,-986 455.5,-986 461.5,-992 461.5,-998 461.5,-998 461.5,-1010 461.5,-1010 461.5,-1016 455.5,-1022 449.5,-1022"/>
<text text-anchor="middle" x="350" y="-1001.8" font-family="Courier,monospace" font-size="9.00">RunHeuristic_H115_CharacterizationData()</text>
</g>
<!-- Node0x59063510daa0&#45;&gt;Node0x5906351309e0 -->
<g id="edge46" class="edge">
<title>Node0x59063510daa0&#45;&gt;Node0x5906351309e0</title>
<path fill="none" stroke="#4a6fa5" d="M65.06,-1797.96C65.81,-1691.55 75.07,-1146.49 186,-1033 198.64,-1020.07 214.9,-1011.75 232.25,-1006.54"/>
<polygon fill="#4a6fa5" stroke="#4a6fa5" points="232.95,-1008.53 238.17,-1004.9 231.83,-1004.48 232.95,-1008.53"/>
</g>
<!-- Node0x590634f54b80 -->
<g id="node48" class="node">
<title>Node0x590634f54b80</title>
<path fill="#f0f4ff" stroke="black" d="M436,-964C436,-964 264,-964 264,-964 258,-964 252,-958 252,-952 252,-952 252,-940 252,-940 252,-934 258,-928 264,-928 264,-928 436,-928 436,-928 442,-928 448,-934 448,-940 448,-940 448,-952 448,-952 448,-958 442,-964 436,-964"/>
<text text-anchor="middle" x="350" y="-943.8" font-family="Courier,monospace" font-size="9.00">RunHeuristic_H114_CurveSmoothness()</text>
</g>
<!-- Node0x59063510daa0&#45;&gt;Node0x590634f54b80 -->
<g id="edge47" class="edge">
<title>Node0x59063510daa0&#45;&gt;Node0x590634f54b80</title>
<path fill="none" stroke="#4a6fa5" d="M64.85,-1797.74C64.33,-1686.22 67.29,-1097.72 186,-975 201.87,-958.6 223.57,-949.58 245.97,-944.94"/>
<polygon fill="#4a6fa5" stroke="#4a6fa5" points="246.48,-946.98 251.99,-943.8 245.7,-942.86 246.48,-946.98"/>
</g>
<!-- Node0x590635130650 -->
<g id="node49" class="node">
<title>Node0x590635130650</title>
<path fill="#f0f4ff" stroke="black" d="M441.5,-906C441.5,-906 258.5,-906 258.5,-906 252.5,-906 246.5,-900 246.5,-894 246.5,-894 246.5,-882 246.5,-882 246.5,-876 252.5,-870 258.5,-870 258.5,-870 441.5,-870 441.5,-870 447.5,-870 453.5,-876 453.5,-882 453.5,-882 453.5,-894 453.5,-894 453.5,-900 447.5,-906 441.5,-906"/>
<text text-anchor="middle" x="350" y="-885.8" font-family="Courier,monospace" font-size="9.00">RunHeuristic_H113_RoundTripFidelity()</text>
</g>
<!-- Node0x59063510daa0&#45;&gt;Node0x590635130650 -->
<g id="edge48" class="edge">
<title>Node0x59063510daa0&#45;&gt;Node0x590635130650</title>
<path fill="none" stroke="#4a6fa5" d="M64.66,-1797.63C62.93,-1681.43 59.45,-1049.02 186,-917 200.48,-901.89 219.91,-893.03 240.3,-888.09"/>
<polygon fill="#4a6fa5" stroke="#4a6fa5" points="240.97,-890.09 246.37,-886.74 240.05,-885.99 240.97,-890.09"/>
</g>
<!-- Node0x590634f549f0 -->
<g id="node50" class="node">
<title>Node0x590634f549f0</title>
<path fill="#f0f4ff" stroke="black" d="M433.5,-848C433.5,-848 266.5,-848 266.5,-848 260.5,-848 254.5,-842 254.5,-836 254.5,-836 254.5,-824 254.5,-824 254.5,-818 260.5,-812 266.5,-812 266.5,-812 433.5,-812 433.5,-812 439.5,-812 445.5,-818 445.5,-824 445.5,-824 445.5,-836 445.5,-836 445.5,-842 439.5,-848 433.5,-848"/>
<text text-anchor="middle" x="350" y="-827.8" font-family="Courier,monospace" font-size="9.00">RunHeuristic_H112_WtptValidation()</text>
</g>
<!-- Node0x59063510daa0&#45;&gt;Node0x590634f549f0 -->
<g id="edge49" class="edge">
<title>Node0x59063510daa0&#45;&gt;Node0x590634f549f0</title>
<path fill="none" stroke="#4a6fa5" d="M66.01,-1797.99C73.2,-1672.37 118.42,-930.07 186,-859 202.34,-841.81 225.08,-832.69 248.4,-828.23"/>
<polygon fill="#4a6fa5" stroke="#4a6fa5" points="248.79,-830.29 254.33,-827.19 248.06,-826.15 248.79,-830.29"/>
</g>
<!-- Node0x590635130440 -->
<g id="node51" class="node">
<title>Node0x590635130440</title>
<path fill="#f0f4ff" stroke="black" d="M431,-790C431,-790 269,-790 269,-790 263,-790 257,-784 257,-778 257,-778 257,-766 257,-766 257,-760 263,-754 269,-754 269,-754 431,-754 431,-754 437,-754 443,-760 443,-766 443,-766 443,-778 443,-778 443,-784 437,-790 431,-790"/>
<text text-anchor="middle" x="350" y="-769.8" font-family="Courier,monospace" font-size="9.00">RunHeuristic_H111_ReservedBytes()</text>
</g>
<!-- Node0x59063510daa0&#45;&gt;Node0x590635130440 -->
<g id="edge50" class="edge">
<title>Node0x59063510daa0&#45;&gt;Node0x590635130440</title>
<path fill="none" stroke="#4a6fa5" d="M65.88,-1797.75C72.38,-1667.06 114.5,-876.73 186,-801 202.83,-783.18 226.53,-774.01 250.66,-769.71"/>
<polygon fill="#4a6fa5" stroke="#4a6fa5" points="251.21,-771.75 256.8,-768.72 250.54,-767.6 251.21,-771.75"/>
</g>
<!-- Node0x590634f544b0 -->
<g id="node52" class="node">
<title>Node0x590634f544b0</title>
<path fill="#f0f4ff" stroke="black" d="M444,-732C444,-732 256,-732 256,-732 250,-732 244,-726 244,-720 244,-720 244,-708 244,-708 244,-702 250,-696 256,-696 256,-696 444,-696 444,-696 450,-696 456,-702 456,-708 456,-708 456,-720 456,-720 456,-726 450,-732 444,-732"/>
<text text-anchor="middle" x="350" y="-711.8" font-family="Courier,monospace" font-size="9.00">RunHeuristic_H110_ClassTagValidation()</text>
</g>
<!-- Node0x59063510daa0&#45;&gt;Node0x590634f544b0 -->
<g id="edge51" class="edge">
<title>Node0x59063510daa0&#45;&gt;Node0x590634f544b0</title>
<path fill="none" stroke="#4a6fa5" d="M65.77,-1797.58C71.59,-1662.14 110.56,-823.41 186,-743 199.72,-728.37 218.08,-719.56 237.52,-714.49"/>
<polygon fill="#4a6fa5" stroke="#4a6fa5" points="238.24,-716.48 243.58,-713.03 237.25,-712.39 238.24,-716.48"/>
</g>
<!-- Node0x590635130150 -->
<g id="node53" class="node">
<title>Node0x590635130150</title>
<path fill="#f0f4ff" stroke="black" d="M441.5,-674C441.5,-674 258.5,-674 258.5,-674 252.5,-674 246.5,-668 246.5,-662 246.5,-662 246.5,-650 246.5,-650 246.5,-644 252.5,-638 258.5,-638 258.5,-638 441.5,-638 441.5,-638 447.5,-638 453.5,-644 453.5,-650 453.5,-650 453.5,-662 453.5,-662 453.5,-668 447.5,-674 441.5,-674"/>
<text text-anchor="middle" x="350" y="-653.8" font-family="Courier,monospace" font-size="9.00">RunHeuristic_H109_ShellcodePatterns()</text>
</g>
<!-- Node0x59063510daa0&#45;&gt;Node0x590635130150 -->
<g id="edge52" class="edge">
<title>Node0x59063510daa0&#45;&gt;Node0x590635130150</title>
<path fill="none" stroke="#4a6fa5" d="M65.64,-1797.93C70.75,-1659.5 106.53,-770.2 186,-685 200.36,-669.6 219.86,-660.64 240.37,-655.69"/>
<polygon fill="#4a6fa5" stroke="#4a6fa5" points="241.06,-657.69 246.47,-654.35 240.16,-653.59 241.06,-657.69"/>
</g>
<!-- Node0x59063512d9c0 -->
<g id="node54" class="node">
<title>Node0x59063512d9c0</title>
<path fill="#f0f4ff" stroke="black" d="M425.5,-616C425.5,-616 274.5,-616 274.5,-616 268.5,-616 262.5,-610 262.5,-604 262.5,-604 262.5,-592 262.5,-592 262.5,-586 268.5,-580 274.5,-580 274.5,-580 425.5,-580 425.5,-580 431.5,-580 437.5,-586 437.5,-592 437.5,-592 437.5,-604 437.5,-604 437.5,-610 431.5,-616 425.5,-616"/>
<text text-anchor="middle" x="350" y="-595.8" font-family="Courier,monospace" font-size="9.00">RunHeuristic_H108_PrivateTags()</text>
</g>
<!-- Node0x59063510daa0&#45;&gt;Node0x59063512d9c0 -->
<g id="edge53" class="edge">
<title>Node0x59063510daa0&#45;&gt;Node0x59063512d9c0</title>
<path fill="none" stroke="#4a6fa5" d="M65.55,-1797.92C70.02,-1655.46 102.55,-716.92 186,-627 203.92,-607.69 229.9,-598.49 255.87,-594.63"/>
<polygon fill="#4a6fa5" stroke="#4a6fa5" points="256.44,-596.68 262.12,-593.81 255.89,-592.51 256.44,-596.68"/>
</g>
<!-- Node0x59063512f5d0 -->
<g id="node55" class="node">
<title>Node0x59063512f5d0</title>
<path fill="#f0f4ff" stroke="black" d="M441.5,-558C441.5,-558 258.5,-558 258.5,-558 252.5,-558 246.5,-552 246.5,-546 246.5,-546 246.5,-534 246.5,-534 246.5,-528 252.5,-522 258.5,-522 258.5,-522 441.5,-522 441.5,-522 447.5,-522 453.5,-528 453.5,-534 453.5,-534 453.5,-546 453.5,-546 453.5,-552 447.5,-558 441.5,-558"/>
<text text-anchor="middle" x="350" y="-537.8" font-family="Courier,monospace" font-size="9.00">RunHeuristic_H107_ChannelCrossCheck()</text>
</g>
<!-- Node0x59063510daa0&#45;&gt;Node0x59063512f5d0 -->
<g id="edge54" class="edge">
<title>Node0x59063510daa0&#45;&gt;Node0x59063512f5d0</title>
<path fill="none" stroke="#4a6fa5" d="M65.46,-1797.98C69.31,-1651.82 98.56,-663.67 186,-569 200.29,-553.53 219.75,-544.54 240.25,-539.59"/>
<polygon fill="#4a6fa5" stroke="#4a6fa5" points="240.95,-541.58 246.35,-538.24 240.04,-537.48 240.95,-541.58"/>
</g>
<!-- Node0x590634f54530 -->
<g id="node56" class="node">
<title>Node0x590634f54530</title>
<path fill="#f0f4ff" stroke="black" d="M412.5,-500C412.5,-500 287.5,-500 287.5,-500 281.5,-500 275.5,-494 275.5,-488 275.5,-488 275.5,-476 275.5,-476 275.5,-470 281.5,-464 287.5,-464 287.5,-464 412.5,-464 412.5,-464 418.5,-464 424.5,-470 424.5,-476 424.5,-476 424.5,-488 424.5,-488 424.5,-494 418.5,-500 412.5,-500"/>
<text text-anchor="middle" x="350" y="-479.8" font-family="Courier,monospace" font-size="9.00">RunHeuristic_H106_EnvVar()</text>
</g>
<!-- Node0x59063510daa0&#45;&gt;Node0x590634f54530 -->
<g id="edge55" class="edge">
<title>Node0x59063510daa0&#45;&gt;Node0x590634f54530</title>
<path fill="none" stroke="#4a6fa5" d="M65.38,-1797.62C68.69,-1646.39 94.64,-610.33 186,-511 206.98,-488.19 239.2,-479.45 269.47,-476.97"/>
<polygon fill="#4a6fa5" stroke="#4a6fa5" points="269.65,-479.07 275.49,-476.56 269.36,-474.88 269.65,-479.07"/>
</g>
<!-- Node0x5906351298b0 -->
<g id="node57" class="node">
<title>Node0x5906351298b0</title>
<path fill="#f0f4ff" stroke="black" d="M502,-442C502,-442 198,-442 198,-442 192,-442 186,-436 186,-430 186,-430 186,-418 186,-418 186,-412 192,-406 198,-406 198,-406 502,-406 502,-406 508,-406 514,-412 514,-418 514,-418 514,-430 514,-430 514,-436 508,-442 502,-442"/>
<text text-anchor="middle" x="350" y="-421.8" font-family="Courier,monospace" font-size="9.00">RunExternalTool[abi:cxx11](char const*, char const*, char...</text>
</g>
<!-- Node0x59063510daa0&#45;&gt;Node0x5906351298b0 -->
<g id="edge56" class="edge">
<title>Node0x59063510daa0&#45;&gt;Node0x5906351298b0</title>
<path fill="none" stroke="#4a6fa5" d="M65.3,-1797.79C68.04,-1643.44 90.62,-557.12 186,-453 188.31,-450.48 190.75,-448.14 193.31,-445.95"/>
<polygon fill="#4a6fa5" stroke="#4a6fa5" points="194.65,-447.57 198.05,-442.19 192.04,-444.28 194.65,-447.57"/>
</g>
<!-- Node0x590634f4ebe0 -->
<g id="node58" class="node">
<title>Node0x590634f4ebe0</title>
<path fill="#f0f4ff" stroke="black" d="M365,-384C365,-384 335,-384 335,-384 329,-384 323,-378 323,-372 323,-372 323,-360 323,-360 323,-354 329,-348 335,-348 335,-348 365,-348 365,-348 371,-348 377,-354 377,-360 377,-360 377,-372 377,-372 377,-378 371,-384 365,-384"/>
<text text-anchor="middle" x="350" y="-363.8" font-family="Courier,monospace" font-size="9.00">c_str()</text>
</g>
<!-- Node0x59063510daa0&#45;&gt;Node0x590634f4ebe0 -->
<g id="edge57" class="edge">
<title>Node0x59063510daa0&#45;&gt;Node0x590634f4ebe0</title>
<path fill="none" stroke="#4a6fa5" d="M65.24,-1797.53C67.45,-1638.5 86.68,-503.81 186,-395 218.7,-359.18 279.11,-357.98 316.49,-361.33"/>
<polygon fill="#4a6fa5" stroke="#4a6fa5" points="316.56,-363.44 322.74,-361.95 316.98,-359.26 316.56,-363.44"/>
</g>
<!-- Node0x590634f4c840 -->
<g id="node59" class="node">
<title>Node0x590634f4c840</title>
<path fill="#f0f4ff" stroke="black" d="M420.5,-326C420.5,-326 279.5,-326 279.5,-326 273.5,-326 267.5,-320 267.5,-314 267.5,-314 267.5,-302 267.5,-302 267.5,-296 273.5,-290 279.5,-290 279.5,-290 420.5,-290 420.5,-290 426.5,-290 432.5,-296 432.5,-302 432.5,-302 432.5,-314 432.5,-314 432.5,-320 426.5,-326 420.5,-326"/>
<text text-anchor="middle" x="350" y="-305.8" font-family="Courier,monospace" font-size="9.00">RunHeuristic_H105_MatrixTRC()</text>
</g>
<!-- Node0x59063510daa0&#45;&gt;Node0x590634f4c840 -->
<g id="edge58" class="edge">
<title>Node0x59063510daa0&#45;&gt;Node0x590634f4c840</title>
<path fill="none" stroke="#4a6fa5" d="M65.17,-1797.8C66.84,-1636.24 82.63,-450.63 186,-337 204.97,-316.15 233.33,-307.02 261.1,-303.69"/>
<polygon fill="#4a6fa5" stroke="#4a6fa5" points="261.64,-305.74 267.39,-303.03 261.2,-301.56 261.64,-305.74"/>
</g>
<!-- Node0x590634f4ec90 -->
<g id="node60" class="node">
<title>Node0x590634f4ec90</title>
<path fill="#f0f4ff" stroke="black" d="M407.5,-268C407.5,-268 292.5,-268 292.5,-268 286.5,-268 280.5,-262 280.5,-256 280.5,-256 280.5,-244 280.5,-244 280.5,-238 286.5,-232 292.5,-232 292.5,-232 407.5,-232 407.5,-232 413.5,-232 419.5,-238 419.5,-244 419.5,-244 419.5,-256 419.5,-256 419.5,-262 413.5,-268 407.5,-268"/>
<text text-anchor="middle" x="350" y="-247.8" font-family="Courier,monospace" font-size="9.00">RunHeuristic_H104_PRMG()</text>
</g>
<!-- Node0x59063510daa0&#45;&gt;Node0x590634f4ec90 -->
<g id="edge59" class="edge">
<title>Node0x59063510daa0&#45;&gt;Node0x590634f4ec90</title>
<path fill="none" stroke="#4a6fa5" d="M65.11,-1797.88C66.28,-1633.09 78.61,-397.4 186,-279 207.9,-254.85 242.4,-246.41 274.03,-244.49"/>
<polygon fill="#4a6fa5" stroke="#4a6fa5" points="274.42,-246.58 280.31,-244.2 274.22,-242.38 274.42,-246.58"/>
</g>
<!-- Node0x590634f4e170 -->
<g id="node61" class="node">
<title>Node0x590634f4e170</title>
<path fill="#f0f4ff" stroke="black" d="M404.5,-210C404.5,-210 295.5,-210 295.5,-210 289.5,-210 283.5,-204 283.5,-198 283.5,-198 283.5,-186 283.5,-186 283.5,-180 289.5,-174 295.5,-174 295.5,-174 404.5,-174 404.5,-174 410.5,-174 416.5,-180 416.5,-186 416.5,-186 416.5,-198 416.5,-198 416.5,-204 410.5,-210 404.5,-210"/>
<text text-anchor="middle" x="350" y="-189.8" font-family="Courier,monospace" font-size="9.00">RunHeuristic_H103_PCC()</text>
</g>
<!-- Node0x59063510daa0&#45;&gt;Node0x590634f4e170 -->
<g id="edge60" class="edge">
<title>Node0x59063510daa0&#45;&gt;Node0x590634f4e170</title>
<path fill="none" stroke="#4a6fa5" d="M65.06,-1797.99C65.74,-1630.23 74.59,-344.2 186,-221 208.6,-196.01 244.67,-187.83 277.14,-186.3"/>
<polygon fill="#4a6fa5" stroke="#4a6fa5" points="277.24,-188.39 283.16,-186.09 277.09,-184.2 277.24,-188.39"/>
</g>
<!-- Node0x590634f4d970 -->
<g id="node62" class="node">
<title>Node0x590634f4d970</title>
<path fill="#f0f4ff" stroke="black" d="M410,-152C410,-152 290,-152 290,-152 284,-152 278,-146 278,-140 278,-140 278,-128 278,-128 278,-122 284,-116 290,-116 290,-116 410,-116 410,-116 416,-116 422,-122 422,-128 422,-128 422,-140 422,-140 422,-146 416,-152 410,-152"/>
<text text-anchor="middle" x="350" y="-131.8" font-family="Courier,monospace" font-size="9.00">RunLibraryAPIHeuristics()</text>
</g>
<!-- Node0x59063510daa0&#45;&gt;Node0x590634f4d970 -->
<g id="edge61" class="edge">
<title>Node0x59063510daa0&#45;&gt;Node0x590634f4d970</title>
<path fill="none" stroke="#4a6fa5" d="M65.01,-1797.88C65.22,-1626.28 70.61,-290.94 186,-163 207.3,-139.39 240.63,-130.77 271.61,-128.59"/>
<polygon fill="#4a6fa5" stroke="#4a6fa5" points="271.9,-130.68 277.77,-128.24 271.66,-126.49 271.9,-130.68"/>
</g>
<!-- Node0x590634f4e970 -->
<g id="node63" class="node">
<title>Node0x590634f4e970</title>
<path fill="#f0f4ff" stroke="black" d="M386.5,-94C386.5,-94 313.5,-94 313.5,-94 307.5,-94 301.5,-88 301.5,-82 301.5,-82 301.5,-70 301.5,-70 301.5,-64 307.5,-58 313.5,-58 313.5,-58 386.5,-58 386.5,-58 392.5,-58 398.5,-64 398.5,-70 398.5,-70 398.5,-82 398.5,-82 398.5,-88 392.5,-94 386.5,-94"/>
<text text-anchor="middle" x="350" y="-73.8" font-family="Courier,monospace" font-size="9.00">OpenIccProfile()</text>
</g>
<!-- Node0x59063510daa0&#45;&gt;Node0x590634f4e970 -->
<g id="edge62" class="edge">
<title>Node0x59063510daa0&#45;&gt;Node0x590634f4e970</title>
<path fill="none" stroke="#4a6fa5" d="M64.96,-1797.8C64.72,-1622.52 66.62,-237.69 186,-105 212.81,-75.21 258.77,-69.26 295.06,-70.03"/>
<polygon fill="#4a6fa5" stroke="#4a6fa5" points="295.2,-72.14 301.26,-70.23 295.33,-67.94 295.2,-72.14"/>
</g>
<!-- Node0x59063511e280 -->
<g id="node64" class="node">
<title>Node0x59063511e280</title>
<path fill="#f0f4ff" stroke="black" d="M399.5,-36C399.5,-36 300.5,-36 300.5,-36 294.5,-36 288.5,-30 288.5,-24 288.5,-24 288.5,-12 288.5,-12 288.5,-6 294.5,0 300.5,0 300.5,0 399.5,0 399.5,0 405.5,0 411.5,-6 411.5,-12 411.5,-12 411.5,-24 411.5,-24 411.5,-30 405.5,-36 399.5,-36"/>
<text text-anchor="middle" x="350" y="-15.8" font-family="Courier,monospace" font-size="9.00">RunHeaderHeuristics()</text>
</g>
<!-- Node0x59063510daa0&#45;&gt;Node0x59063511e280 -->
<g id="edge63" class="edge">
<title>Node0x59063510daa0&#45;&gt;Node0x59063511e280</title>
<path fill="none" stroke="#4a6fa5" d="M64.91,-1797.74C64.23,-1618.97 62.62,-184.45 186,-47 209.68,-20.62 248.37,-12.93 282.12,-12.04"/>
<polygon fill="#4a6fa5" stroke="#4a6fa5" points="282.39,-14.13 288.35,-11.95 282.33,-9.94 282.39,-14.13"/>
</g>
<!-- Node0x590634f58ff0 -->
<g id="node65" class="node">
<title>Node0x590634f58ff0</title>
<path fill="#f0f4ff" stroke="black" d="M625,-3429C625,-3429 584,-3429 584,-3429 578,-3429 572,-3423 572,-3417 572,-3417 572,-3405 572,-3405 572,-3399 578,-3393 584,-3393 584,-3393 625,-3393 625,-3393 631,-3393 637,-3399 637,-3405 637,-3405 637,-3417 637,-3417 637,-3423 631,-3429 625,-3429"/>
<text text-anchor="middle" x="604.5" y="-3408.8" font-family="Courier,monospace" font-size="9.00">GetColor()</text>
</g>
<!-- Node0x590635128f00&#45;&gt;Node0x590634f58ff0 -->
<g id="edge70" class="edge">
<title>Node0x590635128f00&#45;&gt;Node0x590634f58ff0</title>
<path fill="none" stroke="#4a6fa5" d="M388.26,-3386.28C435.78,-3391.74 517.54,-3401.13 565.45,-3406.63"/>
<polygon fill="#4a6fa5" stroke="#4a6fa5" points="565.49,-3408.75 571.69,-3407.35 565.97,-3404.58 565.49,-3408.75"/>
</g>
<!-- Node0x590635133a50&#45;&gt;Node0x590634f58ff0 -->
<g id="edge74" class="edge">
<title>Node0x590635133a50&#45;&gt;Node0x590634f58ff0</title>
<path fill="none" stroke="#4a6fa5" d="M385.16,-3326.12C418.9,-3329.11 471.48,-3336.24 514,-3353 536.32,-3361.8 558.98,-3376.55 575.91,-3388.98"/>
<polygon fill="#4a6fa5" stroke="#4a6fa5" points="574.91,-3390.85 580.98,-3392.75 577.42,-3387.48 574.91,-3390.85"/>
</g>
<!-- Node0x590634f60fe0 -->
<g id="node66" class="node">
<title>Node0x590634f60fe0</title>
<path fill="#f0f4ff" stroke="black" d="M620,-3081C620,-3081 589,-3081 589,-3081 583,-3081 577,-3075 577,-3069 577,-3069 577,-3057 577,-3057 577,-3051 583,-3045 589,-3045 589,-3045 620,-3045 620,-3045 626,-3045 632,-3051 632,-3057 632,-3057 632,-3069 632,-3069 632,-3075 626,-3081 620,-3081"/>
<text text-anchor="middle" x="604.5" y="-3060.8" font-family="Courier,monospace" font-size="9.00">substr()</text>
</g>
<!-- Node0x5906351334d0&#45;&gt;Node0x590634f60fe0 -->
<g id="edge67" class="edge">
<title>Node0x5906351334d0&#45;&gt;Node0x590634f60fe0</title>
<path fill="none" stroke="#4a6fa5" d="M414.07,-3041.24C463.84,-3046.96 531.27,-3054.7 570.81,-3059.25"/>
<polygon fill="#4a6fa5" stroke="#4a6fa5" points="570.71,-3061.35 576.91,-3059.95 571.19,-3057.18 570.71,-3061.35"/>
</g>
<!-- Node0x590634f60f60 -->
<g id="node67" class="node">
<title>Node0x590634f60f60</title>
<path fill="#f0f4ff" stroke="black" d="M622.5,-3023C622.5,-3023 586.5,-3023 586.5,-3023 580.5,-3023 574.5,-3017 574.5,-3011 574.5,-3011 574.5,-2999 574.5,-2999 574.5,-2993 580.5,-2987 586.5,-2987 586.5,-2987 622.5,-2987 622.5,-2987 628.5,-2987 634.5,-2993 634.5,-2999 634.5,-2999 634.5,-3011 634.5,-3011 634.5,-3017 628.5,-3023 622.5,-3023"/>
<text text-anchor="middle" x="604.5" y="-3002.8" font-family="Courier,monospace" font-size="9.00">compare()</text>
</g>
<!-- Node0x5906351334d0&#45;&gt;Node0x590634f60f60 -->
<g id="edge68" class="edge">
<title>Node0x5906351334d0&#45;&gt;Node0x590634f60f60</title>
<path fill="none" stroke="#4a6fa5" d="M414.07,-3026.76C462.73,-3021.17 528.28,-3013.64 568.13,-3009.06"/>
<polygon fill="#4a6fa5" stroke="#4a6fa5" points="568.57,-3011.13 574.3,-3008.35 568.09,-3006.95 568.57,-3011.13"/>
</g>
<!-- Node0x590634f58b70&#45;&gt;Node0x590634f58ff0 -->
<g id="edge66" class="edge">
<title>Node0x590634f58b70&#45;&gt;Node0x590634f58ff0</title>
<path fill="none" stroke="#4a6fa5" d="M393.15,-3146.71C429.14,-3146.2 480.29,-3151.21 514,-3179 578.88,-3232.48 596.84,-3338.86 601.72,-3386.7"/>
<polygon fill="#4a6fa5" stroke="#4a6fa5" points="599.64,-3387.01 602.31,-3392.78 603.82,-3386.61 599.64,-3387.01"/>
</g>
<!-- Node0x590634f592b0&#45;&gt;Node0x590634f58ff0 -->
<g id="edge65" class="edge">
<title>Node0x590634f592b0&#45;&gt;Node0x590634f58ff0</title>
<path fill="none" stroke="#4a6fa5" d="M395.54,-3556.59C430.14,-3555.12 478.11,-3548.75 514,-3527 550.56,-3504.85 577.68,-3461.79 592.01,-3434.82"/>
<polygon fill="#4a6fa5" stroke="#4a6fa5" points="593.96,-3435.62 594.87,-3429.33 590.24,-3433.68 593.96,-3435.62"/>
</g>
<!-- Node0x590634f58e30&#45;&gt;Node0x590634f58ff0 -->
<g id="edge64" class="edge">
<title>Node0x590634f58e30&#45;&gt;Node0x590634f58ff0</title>
<path fill="none" stroke="#4a6fa5" d="M393.11,-3495.13C426.78,-3491.76 474.69,-3484.5 514,-3469 536.32,-3460.2 558.98,-3445.45 575.91,-3433.02"/>
<polygon fill="#4a6fa5" stroke="#4a6fa5" points="577.42,-3434.52 580.98,-3429.25 574.91,-3431.15 577.42,-3434.52"/>
</g>
<!-- Node0x590635128a40&#45;&gt;Node0x590634f58ff0 -->
<g id="edge69" class="edge">
<title>Node0x590635128a40&#45;&gt;Node0x590634f58ff0</title>
<path fill="none" stroke="#4a6fa5" d="M390.73,-3435.44C438.71,-3429.93 518.82,-3420.73 565.85,-3415.32"/>
<polygon fill="#4a6fa5" stroke="#4a6fa5" points="566.26,-3417.39 571.98,-3414.62 565.78,-3413.22 566.26,-3417.39"/>
</g>
<!-- Node0x590634f59c60 -->
<g id="node68" class="node">
<title>Node0x590634f59c60</title>
<path fill="#f0f4ff" stroke="black" d="M619.5,-500C619.5,-500 589.5,-500 589.5,-500 583.5,-500 577.5,-494 577.5,-488 577.5,-488 577.5,-476 577.5,-476 577.5,-470 583.5,-464 589.5,-464 589.5,-464 619.5,-464 619.5,-464 625.5,-464 631.5,-470 631.5,-476 631.5,-476 631.5,-488 631.5,-488 631.5,-494 625.5,-500 619.5,-500"/>
<text text-anchor="middle" x="604.5" y="-479.8" font-family="Courier,monospace" font-size="9.00">strpbrk</text>
</g>
<!-- Node0x5906351298b0&#45;&gt;Node0x590634f59c60 -->
<g id="edge71" class="edge">
<title>Node0x5906351298b0&#45;&gt;Node0x590634f59c60</title>
<path fill="none" stroke="#4a6fa5" d="M464.1,-442.05C480.91,-445.33 497.97,-449 514,-453 533.19,-457.79 554.26,-464.54 571.13,-470.32"/>
<polygon fill="#4a6fa5" stroke="#4a6fa5" points="570.79,-472.43 577.15,-472.41 572.16,-468.46 570.79,-472.43"/>
</g>
<!-- Node0x5906351349f0 -->
<g id="node69" class="node">
<title>Node0x5906351349f0</title>
<path fill="#f0f4ff" stroke="black" d="M619.5,-442C619.5,-442 589.5,-442 589.5,-442 583.5,-442 577.5,-436 577.5,-430 577.5,-430 577.5,-418 577.5,-418 577.5,-412 583.5,-406 589.5,-406 589.5,-406 619.5,-406 619.5,-406 625.5,-406 631.5,-412 631.5,-418 631.5,-418 631.5,-430 631.5,-430 631.5,-436 625.5,-442 619.5,-442"/>
<text text-anchor="middle" x="604.5" y="-421.8" font-family="Courier,monospace" font-size="9.00">pclose</text>
</g>
<!-- Node0x5906351298b0&#45;&gt;Node0x5906351349f0 -->
<g id="edge72" class="edge">
<title>Node0x5906351298b0&#45;&gt;Node0x5906351349f0</title>
<path fill="none" stroke="#4a6fa5" d="M514.12,-424C535.6,-424 555.51,-424 571.06,-424"/>
<polygon fill="#4a6fa5" stroke="#4a6fa5" points="571.45,-426.1 577.45,-424 571.45,-421.9 571.45,-426.1"/>
</g>
<!-- Node0x590634f59480 -->
<g id="node70" class="node">
<title>Node0x590634f59480</title>
<path fill="#f0f4ff" stroke="black" d="M619.5,-384C619.5,-384 589.5,-384 589.5,-384 583.5,-384 577.5,-378 577.5,-372 577.5,-372 577.5,-360 577.5,-360 577.5,-354 583.5,-348 589.5,-348 589.5,-348 619.5,-348 619.5,-348 625.5,-348 631.5,-354 631.5,-360 631.5,-360 631.5,-372 631.5,-372 631.5,-378 625.5,-384 619.5,-384"/>
<text text-anchor="middle" x="604.5" y="-363.8" font-family="Courier,monospace" font-size="9.00">popen</text>
</g>
<!-- Node0x5906351298b0&#45;&gt;Node0x590634f59480 -->
<g id="edge73" class="edge">
<title>Node0x5906351298b0&#45;&gt;Node0x590634f59480</title>
<path fill="none" stroke="#4a6fa5" d="M464.1,-405.95C480.91,-402.67 497.97,-399 514,-395 533.19,-390.21 554.26,-383.46 571.13,-377.68"/>
<polygon fill="#4a6fa5" stroke="#4a6fa5" points="572.16,-379.54 577.15,-375.59 570.79,-375.57 572.16,-379.54"/>
</g>
<!-- Node0x590634f621a0 -->
<g id="node71" class="node">
<title>Node0x590634f621a0</title>
<path fill="#f0f4ff" stroke="black" d="M79.5,-1892C79.5,-1892 48.5,-1892 48.5,-1892 42.5,-1892 36.5,-1886 36.5,-1880 36.5,-1880 36.5,-1868 36.5,-1868 36.5,-1862 42.5,-1856 48.5,-1856 48.5,-1856 79.5,-1856 79.5,-1856 85.5,-1856 91.5,-1862 91.5,-1868 91.5,-1868 91.5,-1880 91.5,-1880 91.5,-1886 85.5,-1892 79.5,-1892"/>
<text text-anchor="middle" x="64" y="-1871.8" font-family="Courier,monospace" font-size="9.00">length()</text>
</g>
<!-- Node0x590634f63c90 -->
<g id="node72" class="node">
<title>Node0x590634f63c90</title>
<path fill="#f0f4ff" stroke="black" d="M100.5,-1950C100.5,-1950 27.5,-1950 27.5,-1950 21.5,-1950 15.5,-1944 15.5,-1938 15.5,-1938 15.5,-1926 15.5,-1926 15.5,-1920 21.5,-1914 27.5,-1914 27.5,-1914 100.5,-1914 100.5,-1914 106.5,-1914 112.5,-1920 112.5,-1926 112.5,-1926 112.5,-1938 112.5,-1938 112.5,-1944 106.5,-1950 100.5,-1950"/>
<text text-anchor="middle" x="64" y="-1929.8" font-family="Courier,monospace" font-size="9.00">_Guard::_Guard()</text>
</g>
<!-- Node0x590634f64940 -->
<g id="node73" class="node">
<title>Node0x590634f64940</title>
<path fill="#f0f4ff" stroke="black" d="M103,-2008C103,-2008 25,-2008 25,-2008 19,-2008 13,-2002 13,-1996 13,-1996 13,-1984 13,-1984 13,-1978 19,-1972 25,-1972 25,-1972 103,-1972 103,-1972 109,-1972 115,-1978 115,-1984 115,-1984 115,-1996 115,-1996 115,-2002 109,-2008 103,-2008"/>
<text text-anchor="middle" x="64" y="-1987.8" font-family="Courier,monospace" font-size="9.00">_Guard::~_Guard()</text>
</g>
<!-- Node0x590635140ce0 -->
<g id="node74" class="node">
<title>Node0x590635140ce0</title>
<path fill="#f0f4ff" stroke="black" d="M113.5,-2066C113.5,-2066 14.5,-2066 14.5,-2066 8.5,-2066 2.5,-2060 2.5,-2054 2.5,-2054 2.5,-2042 2.5,-2042 2.5,-2036 8.5,-2030 14.5,-2030 14.5,-2030 113.5,-2030 113.5,-2030 119.5,-2030 125.5,-2036 125.5,-2042 125.5,-2042 125.5,-2054 125.5,-2054 125.5,-2060 119.5,-2066 113.5,-2066"/>
<text text-anchor="middle" x="64" y="-2045.8" font-family="Courier,monospace" font-size="9.00">true::_Rb_tree_impl()</text>
</g>
<!-- Node0x59063515cc20 -->
<g id="node75" class="node">
<title>Node0x59063515cc20</title>
<path fill="#f0f4ff" stroke="black" d="M82,-2124C82,-2124 46,-2124 46,-2124 40,-2124 34,-2118 34,-2112 34,-2112 34,-2100 34,-2100 34,-2094 40,-2088 46,-2088 46,-2088 82,-2088 82,-2088 88,-2088 94,-2094 94,-2100 94,-2100 94,-2112 94,-2112 94,-2118 88,-2124 82,-2124"/>
<text text-anchor="middle" x="64" y="-2103.8" font-family="Courier,monospace" font-size="9.00">compare()</text>
</g>
<!-- Node0x590635145ee0 -->
<g id="node76" class="node">
<title>Node0x590635145ee0</title>
<path fill="#f0f4ff" stroke="black" d="M116,-2182C116,-2182 12,-2182 12,-2182 6,-2182 0,-2176 0,-2170 0,-2170 0,-2158 0,-2158 0,-2152 6,-2146 12,-2146 12,-2146 116,-2146 116,-2146 122,-2146 128,-2152 128,-2158 128,-2158 128,-2170 128,-2170 128,-2176 122,-2182 116,-2182"/>
<text text-anchor="middle" x="64" y="-2161.8" font-family="Courier,monospace" font-size="9.00">true::~_Rb_tree_impl()</text>
</g>
</g>
</svg>
