<?xml version="1.0" encoding="UTF-8" standalone="no"?>
<!DOCTYPE svg PUBLIC "-//W3C//DTD SVG 1.1//EN"
 "http://www.w3.org/Graphics/SVG/1.1/DTD/svg11.dtd">
<!-- Generated by graphviz version 2.43.0 (0)
 -->
<!-- Title: Call graph: /home/h02332/po/research/call&#45;graph/analyzer/IccAnalyzerValidation.ll Pages: 1 -->
<svg width="724pt" height="755pt"
 viewBox="0.00 0.00 724.20 755.20" xmlns="http://www.w3.org/2000/svg" xmlns:xlink="http://www.w3.org/1999/xlink">
<g id="graph0" class="graph" transform="scale(1 1) rotate(0) translate(21.6 733.6)">
<title>Call graph: /home/h02332/po/research/call&#45;graph/analyzer/IccAnalyzerValidation.ll</title>
<polygon fill="white" stroke="transparent" points="-21.6,21.6 -21.6,-733.6 702.6,-733.6 702.6,21.6 -21.6,21.6"/>
<!-- Node0x60476c89e050 -->
<g id="node1" class="node">
<title>Node0x60476c89e050</title>
<path fill="#f0f4ff" stroke="black" d="M95,-364C95,-364 12,-364 12,-364 6,-364 0,-358 0,-352 0,-352 0,-340 0,-340 0,-334 6,-328 12,-328 12,-328 95,-328 95,-328 101,-328 107,-334 107,-340 107,-340 107,-352 107,-352 107,-358 101,-364 95,-364"/>
<text text-anchor="middle" x="53.5" y="-343.8" font-family="Courier,monospace" font-size="9.00">RoundTripAnalyze()</text>
</g>
<!-- Node0x60476c956740 -->
<g id="node2" class="node">
<title>Node0x60476c956740</title>
<path fill="#f0f4ff" stroke="black" d="M299.5,-442C299.5,-442 179.5,-442 179.5,-442 173.5,-442 167.5,-436 167.5,-430 167.5,-430 167.5,-418 167.5,-418 167.5,-412 173.5,-406 179.5,-406 179.5,-406 299.5,-406 299.5,-406 305.5,-406 311.5,-412 311.5,-418 311.5,-418 311.5,-430 311.5,-430 311.5,-436 305.5,-442 299.5,-442"/>
<text text-anchor="middle" x="239.5" y="-421.8" font-family="Courier,monospace" font-size="9.00">CIccFileIO::~CIccFileIO()</text>
</g>
<!-- Node0x60476c89e050&#45;&gt;Node0x60476c956740 -->
<g id="edge1" class="edge">
<title>Node0x60476c89e050&#45;&gt;Node0x60476c956740</title>
<path fill="none" stroke="#4a6fa5" d="M94.22,-364.09C115.18,-373.52 141.38,-385.11 165,-395 171.72,-397.82 178.82,-400.71 185.85,-403.53"/>
<polygon fill="#4a6fa5" stroke="#4a6fa5" points="185.37,-405.6 191.72,-405.88 186.93,-401.7 185.37,-405.6"/>
</g>
<!-- Node0x60476c944ea0 -->
<g id="node3" class="node">
<title>Node0x60476c944ea0</title>
<path fill="#f0f4ff" stroke="black" d="M297,-384C297,-384 182,-384 182,-384 176,-384 170,-378 170,-372 170,-372 170,-360 170,-360 170,-354 176,-348 182,-348 182,-348 297,-348 297,-348 303,-348 309,-354 309,-360 309,-360 309,-372 309,-372 309,-378 303,-384 297,-384"/>
<text text-anchor="middle" x="239.5" y="-363.8" font-family="Courier,monospace" font-size="9.00">CIccFileIO::CIccFileIO()</text>
</g>
<!-- Node0x60476c89e050&#45;&gt;Node0x60476c944ea0 -->
<g id="edge2" class="edge">
<title>Node0x60476c89e050&#45;&gt;Node0x60476c944ea0</title>
<path fill="none" stroke="#4a6fa5" d="M107.23,-351.73C124.78,-353.64 144.69,-355.8 163.59,-357.86"/>
<polygon fill="#4a6fa5" stroke="#4a6fa5" points="163.77,-359.99 169.96,-358.55 164.22,-355.81 163.77,-359.99"/>
</g>
<!-- Node0x60476c94a850 -->
<g id="node4" class="node">
<title>Node0x60476c94a850</title>
<path fill="#f0f4ff" stroke="black" d="M281,-326C281,-326 198,-326 198,-326 192,-326 186,-320 186,-314 186,-314 186,-302 186,-302 186,-296 192,-290 198,-290 198,-290 281,-290 281,-290 287,-290 293,-296 293,-302 293,-302 293,-314 293,-314 293,-320 287,-326 281,-326"/>
<text text-anchor="middle" x="239.5" y="-305.8" font-family="Courier,monospace" font-size="9.00">CIccFileIO::Open()</text>
</g>
<!-- Node0x60476c89e050&#45;&gt;Node0x60476c94a850 -->
<g id="edge3" class="edge">
<title>Node0x60476c89e050&#45;&gt;Node0x60476c94a850</title>
<path fill="none" stroke="#4a6fa5" d="M107.23,-335.11C129.84,-330.44 156.36,-324.96 179.61,-320.16"/>
<polygon fill="#4a6fa5" stroke="#4a6fa5" points="180.31,-322.16 185.77,-318.89 179.46,-318.05 180.31,-322.16"/>
</g>
<!-- Node0x60476c893970 -->
<g id="node5" class="node">
<title>Node0x60476c893970</title>
<path fill="#f0f4ff" stroke="black" d="M302,-268C302,-268 177,-268 177,-268 171,-268 165,-262 165,-256 165,-256 165,-244 165,-244 165,-238 171,-232 177,-232 177,-232 302,-232 302,-232 308,-232 314,-238 314,-244 314,-244 314,-256 314,-256 314,-262 308,-268 302,-268"/>
<text text-anchor="middle" x="239.5" y="-247.8" font-family="Courier,monospace" font-size="9.00">CIccProfile::CIccProfile()</text>
</g>
<!-- Node0x60476c89e050&#45;&gt;Node0x60476c893970 -->
<g id="edge4" class="edge">
<title>Node0x60476c89e050&#45;&gt;Node0x60476c893970</title>
<path fill="none" stroke="#4a6fa5" d="M81.47,-327.87C103.41,-313.57 135.46,-293.65 165,-279 170.93,-276.06 177.23,-273.2 183.56,-270.49"/>
<polygon fill="#4a6fa5" stroke="#4a6fa5" points="184.65,-272.31 189.36,-268.05 183.02,-268.44 184.65,-272.31"/>
</g>
<!-- Node0x60476c955650 -->
<g id="node6" class="node">
<title>Node0x60476c955650</title>
<path fill="#f0f4ff" stroke="black" d="M289,-210C289,-210 190,-210 190,-210 184,-210 178,-204 178,-198 178,-198 178,-186 178,-186 178,-180 184,-174 190,-174 190,-174 289,-174 289,-174 295,-174 301,-180 301,-186 301,-186 301,-198 301,-198 301,-204 295,-210 289,-210"/>
<text text-anchor="middle" x="239.5" y="-189.8" font-family="Courier,monospace" font-size="9.00">HasRoundTripSupport()</text>
</g>
<!-- Node0x60476c89e050&#45;&gt;Node0x60476c955650 -->
<g id="edge5" class="edge">
<title>Node0x60476c89e050&#45;&gt;Node0x60476c955650</title>
<path fill="none" stroke="#4a6fa5" d="M75.47,-327.91C85.4,-318.98 97.21,-307.81 107,-297 135.52,-265.5 131.11,-246.63 165,-221 168.85,-218.09 173.02,-215.43 177.37,-213.02"/>
<polygon fill="#4a6fa5" stroke="#4a6fa5" points="178.61,-214.73 182.94,-210.08 176.66,-211.02 178.61,-214.73"/>
</g>
<!-- Node0x60476c893bb0 -->
<g id="node7" class="node">
<title>Node0x60476c893bb0</title>
<path fill="#f0f4ff" stroke="black" d="M283.5,-152C283.5,-152 195.5,-152 195.5,-152 189.5,-152 183.5,-146 183.5,-140 183.5,-140 183.5,-128 183.5,-128 183.5,-122 189.5,-116 195.5,-116 195.5,-116 283.5,-116 283.5,-116 289.5,-116 295.5,-122 295.5,-128 295.5,-128 295.5,-140 295.5,-140 295.5,-146 289.5,-152 283.5,-152"/>
<text text-anchor="middle" x="239.5" y="-131.8" font-family="Courier,monospace" font-size="9.00">CIccFileIO::Close()</text>
</g>
<!-- Node0x60476c89e050&#45;&gt;Node0x60476c893bb0 -->
<g id="edge6" class="edge">
<title>Node0x60476c89e050&#45;&gt;Node0x60476c893bb0</title>
<path fill="none" stroke="#4a6fa5" d="M77.74,-327.99C87.7,-319.41 98.88,-308.51 107,-297 144.4,-243.96 118.37,-208.13 165,-163 168.91,-159.22 173.37,-155.91 178.12,-153.02"/>
<polygon fill="#4a6fa5" stroke="#4a6fa5" points="179.18,-154.83 183.37,-150.05 177.12,-151.18 179.18,-154.83"/>
</g>
<!-- Node0x60476c896fd0 -->
<g id="node8" class="node">
<title>Node0x60476c896fd0</title>
<path fill="#f0f4ff" stroke="black" d="M283.5,-500C283.5,-500 195.5,-500 195.5,-500 189.5,-500 183.5,-494 183.5,-488 183.5,-488 183.5,-476 183.5,-476 183.5,-470 189.5,-464 195.5,-464 195.5,-464 283.5,-464 283.5,-464 289.5,-464 295.5,-470 295.5,-476 295.5,-476 295.5,-488 295.5,-488 295.5,-494 289.5,-500 283.5,-500"/>
<text text-anchor="middle" x="239.5" y="-479.8" font-family="Courier,monospace" font-size="9.00">CIccProfile::Read()</text>
</g>
<!-- Node0x60476c89e050&#45;&gt;Node0x60476c896fd0 -->
<g id="edge7" class="edge">
<title>Node0x60476c89e050&#45;&gt;Node0x60476c896fd0</title>
<path fill="none" stroke="#4a6fa5" d="M91.97,-364.08C97.27,-367.37 102.45,-371.03 107,-375 139.53,-403.42 130.7,-426.73 165,-453 168.99,-456.06 173.35,-458.83 177.88,-461.35"/>
<polygon fill="#4a6fa5" stroke="#4a6fa5" points="176.99,-463.25 183.27,-464.18 178.94,-459.53 176.99,-463.25"/>
</g>
<!-- Node0x60476c956450 -->
<g id="node9" class="node">
<title>Node0x60476c956450</title>
<path fill="#f0f4ff" stroke="black" d="M475,-481C475,-481 392,-481 392,-481 386,-481 380,-475 380,-469 380,-469 380,-457 380,-457 380,-451 386,-445 392,-445 392,-445 475,-445 475,-445 481,-445 487,-451 487,-457 487,-457 487,-469 487,-469 487,-475 481,-481 475,-481"/>
<text text-anchor="middle" x="433.5" y="-460.8" font-family="Courier,monospace" font-size="9.00">RoundTripAnalyze()</text>
</g>
<!-- Node0x60476c89e050&#45;&gt;Node0x60476c956450 -->
<g id="edge8" class="edge">
<title>Node0x60476c89e050&#45;&gt;Node0x60476c956450</title>
<path fill="none" stroke="#4a6fa5" d="M94.2,-364.06C98.88,-367.26 103.3,-370.9 107,-375 151.05,-423.76 110.17,-474.78 165,-511 237.12,-558.65 343.02,-513.51 397.41,-483.99"/>
<polygon fill="#4a6fa5" stroke="#4a6fa5" points="398.58,-485.74 402.83,-481.01 396.56,-482.06 398.58,-485.74"/>
</g>
<!-- Node0x60476c897220 -->
<g id="node13" class="node">
<title>Node0x60476c897220</title>
<path fill="#f0f4ff" stroke="black" d="M483,-281C483,-281 384,-281 384,-281 378,-281 372,-275 372,-269 372,-269 372,-257 372,-257 372,-251 378,-245 384,-245 384,-245 483,-245 483,-245 489,-245 495,-251 495,-257 495,-257 495,-269 495,-269 495,-275 489,-281 483,-281"/>
<text text-anchor="middle" x="433.5" y="-260.8" font-family="Courier,monospace" font-size="9.00">HasRoundTripSupport()</text>
</g>
<!-- Node0x60476c955650&#45;&gt;Node0x60476c897220 -->
<g id="edge10" class="edge">
<title>Node0x60476c955650&#45;&gt;Node0x60476c897220</title>
<path fill="none" stroke="#4a6fa5" d="M289.45,-210.1C316.42,-220.07 349.97,-232.48 377.8,-242.77"/>
<polygon fill="#4a6fa5" stroke="#4a6fa5" points="377.29,-244.82 383.64,-244.93 378.74,-240.88 377.29,-244.82"/>
</g>
<!-- Node0x60476c956b00 -->
<g id="node12" class="node">
<title>Node0x60476c956b00</title>
<path fill="#f0f4ff" stroke="black" d="M669,-381C669,-381 565,-381 565,-381 559,-381 553,-375 553,-369 553,-369 553,-357 553,-357 553,-351 559,-345 565,-345 565,-345 669,-345 669,-345 675,-345 681,-351 681,-357 681,-357 681,-369 681,-369 681,-375 675,-381 669,-381"/>
<text text-anchor="middle" x="617" y="-360.8" font-family="Courier,monospace" font-size="9.00">CIccProfile::FindTag()</text>
</g>
<!-- Node0x60476c956450&#45;&gt;Node0x60476c956b00 -->
<g id="edge9" class="edge">
<title>Node0x60476c956450&#45;&gt;Node0x60476c956b00</title>
<path fill="none" stroke="#4a6fa5" d="M467.37,-444.89C498.37,-427.81 544.83,-402.21 577.54,-384.19"/>
<polygon fill="#4a6fa5" stroke="#4a6fa5" points="578.83,-385.88 583.07,-381.14 576.8,-382.2 578.83,-385.88"/>
</g>
<!-- Node0x60476c899710 -->
<g id="node10" class="node">
<title>Node0x60476c899710</title>
<path fill="#f0f4ff" stroke="black" d="M74,-422C74,-422 33,-422 33,-422 27,-422 21,-416 21,-410 21,-410 21,-398 21,-398 21,-392 27,-386 33,-386 33,-386 74,-386 74,-386 80,-386 86,-392 86,-398 86,-398 86,-410 86,-410 86,-416 80,-422 74,-422"/>
<text text-anchor="middle" x="53.5" y="-401.8" font-family="Courier,monospace" font-size="9.00">capacity()</text>
</g>
<!-- Node0x60476c899970 -->
<g id="node11" class="node">
<title>Node0x60476c899970</title>
<path fill="#f0f4ff" stroke="black" d="M69,-480C69,-480 38,-480 38,-480 32,-480 26,-474 26,-468 26,-468 26,-456 26,-456 26,-450 32,-444 38,-444 38,-444 69,-444 69,-444 75,-444 81,-450 81,-456 81,-456 81,-468 81,-468 81,-474 75,-480 69,-480"/>
<text text-anchor="middle" x="53.5" y="-459.8" font-family="Courier,monospace" font-size="9.00">append()</text>
</g>
<!-- Node0x60476c897220&#45;&gt;Node0x60476c956b00 -->
<g id="edge21" class="edge">
<title>Node0x60476c897220&#45;&gt;Node0x60476c956b00</title>
<path fill="none" stroke="#4a6fa5" d="M467.37,-281.11C498.37,-298.19 544.83,-323.79 577.54,-341.81"/>
<polygon fill="#4a6fa5" stroke="#4a6fa5" points="576.8,-343.8 583.07,-344.86 578.83,-340.12 576.8,-343.8"/>
</g>
<!-- Node0x60476c956840 -->
<g id="node14" class="node">
<title>Node0x60476c956840</title>
<path fill="#f0f4ff" stroke="black" d="M87,-268C87,-268 20,-268 20,-268 14,-268 8,-262 8,-256 8,-256 8,-244 8,-244 8,-238 14,-232 20,-232 20,-232 87,-232 87,-232 93,-232 99,-238 99,-244 99,-244 99,-256 99,-256 99,-262 93,-268 87,-268"/>
<text text-anchor="middle" x="53.5" y="-247.8" font-family="Courier,monospace" font-size="9.00">RecursiveScan()</text>
</g>
<!-- Node0x60476c956840&#45;&gt;Node0x60476c956740 -->
<g id="edge11" class="edge">
<title>Node0x60476c956840&#45;&gt;Node0x60476c956740</title>
<path fill="none" stroke="#4a6fa5" d="M68.89,-268.1C79.51,-281.53 94.27,-300.32 107,-317 133.21,-351.34 130.7,-368.73 165,-395 168.83,-397.93 172.99,-400.61 177.33,-403.04"/>
<polygon fill="#4a6fa5" stroke="#4a6fa5" points="176.61,-405.03 182.89,-405.99 178.58,-401.32 176.61,-405.03"/>
</g>
<!-- Node0x60476c956840&#45;&gt;Node0x60476c944ea0 -->
<g id="edge18" class="edge">
<title>Node0x60476c956840&#45;&gt;Node0x60476c944ea0</title>
<path fill="none" stroke="#4a6fa5" d="M73.99,-268.25C95.13,-287.33 130.49,-317.18 165,-337 170.17,-339.97 175.71,-342.77 181.34,-345.37"/>
<polygon fill="#4a6fa5" stroke="#4a6fa5" points="180.66,-347.37 186.99,-347.9 182.37,-343.53 180.66,-347.37"/>
</g>
<!-- Node0x60476c956840&#45;&gt;Node0x60476c94a850 -->
<g id="edge17" class="edge">
<title>Node0x60476c956840&#45;&gt;Node0x60476c94a850</title>
<path fill="none" stroke="#4a6fa5" d="M99.04,-264.04C123.37,-271.71 153.79,-281.3 180,-289.56"/>
<polygon fill="#4a6fa5" stroke="#4a6fa5" points="179.52,-291.61 185.87,-291.41 180.78,-287.6 179.52,-291.61"/>
</g>
<!-- Node0x60476c956840&#45;&gt;Node0x60476c893970 -->
<g id="edge16" class="edge">
<title>Node0x60476c956840&#45;&gt;Node0x60476c893970</title>
<path fill="none" stroke="#4a6fa5" d="M99.04,-250C117.05,-250 138.39,-250 158.9,-250"/>
<polygon fill="#4a6fa5" stroke="#4a6fa5" points="158.94,-252.1 164.94,-250 158.94,-247.9 158.94,-252.1"/>
</g>
<!-- Node0x60476c956840&#45;&gt;Node0x60476c955650 -->
<g id="edge13" class="edge">
<title>Node0x60476c956840&#45;&gt;Node0x60476c955650</title>
<path fill="none" stroke="#4a6fa5" d="M99.04,-235.96C121.88,-228.76 150.1,-219.86 175.17,-211.96"/>
<polygon fill="#4a6fa5" stroke="#4a6fa5" points="176.04,-213.89 181.13,-210.08 174.78,-209.88 176.04,-213.89"/>
</g>
<!-- Node0x60476c956840&#45;&gt;Node0x60476c893bb0 -->
<g id="edge14" class="edge">
<title>Node0x60476c956840&#45;&gt;Node0x60476c893bb0</title>
<path fill="none" stroke="#4a6fa5" d="M73.99,-231.75C95.13,-212.67 130.49,-182.82 165,-163 170.17,-160.03 175.71,-157.23 181.34,-154.63"/>
<polygon fill="#4a6fa5" stroke="#4a6fa5" points="182.37,-156.47 186.99,-152.1 180.66,-152.63 182.37,-156.47"/>
</g>
<!-- Node0x60476c956840&#45;&gt;Node0x60476c896fd0 -->
<g id="edge15" class="edge">
<title>Node0x60476c956840&#45;&gt;Node0x60476c896fd0</title>
<path fill="none" stroke="#4a6fa5" d="M70.82,-268.11C81.97,-281.08 96.55,-299.32 107,-317 140.44,-373.57 117.9,-407.17 165,-453 168.9,-456.79 173.35,-460.11 178.1,-463"/>
<polygon fill="#4a6fa5" stroke="#4a6fa5" points="177.09,-464.84 183.35,-465.98 179.16,-461.19 177.09,-464.84"/>
</g>
<!-- Node0x60476c956840&#45;&gt;Node0x60476c956840 -->
<g id="edge20" class="edge">
<title>Node0x60476c956840&#45;&gt;Node0x60476c956840</title>
<path fill="none" stroke="#4a6fa5" d="M21.09,-268.1C13.27,-279.32 24.07,-290 53.5,-290 77.87,-290 89.47,-282.68 88.29,-273.79"/>
<polygon fill="#4a6fa5" stroke="#4a6fa5" points="90.17,-272.82 85.91,-268.1 86.29,-274.45 90.17,-272.82"/>
</g>
<!-- Node0x60476c957870 -->
<g id="node15" class="node">
<title>Node0x60476c957870</title>
<path fill="#f0f4ff" stroke="black" d="M254.5,-94C254.5,-94 224.5,-94 224.5,-94 218.5,-94 212.5,-88 212.5,-82 212.5,-82 212.5,-70 212.5,-70 212.5,-64 218.5,-58 224.5,-58 224.5,-58 254.5,-58 254.5,-58 260.5,-58 266.5,-64 266.5,-70 266.5,-70 266.5,-82 266.5,-82 266.5,-88 260.5,-94 254.5,-94"/>
<text text-anchor="middle" x="239.5" y="-73.8" font-family="Courier,monospace" font-size="9.00">c_str()</text>
</g>
<!-- Node0x60476c956840&#45;&gt;Node0x60476c957870 -->
<g id="edge12" class="edge">
<title>Node0x60476c956840&#45;&gt;Node0x60476c957870</title>
<path fill="none" stroke="#4a6fa5" d="M63.97,-231.86C80.6,-201.62 117.8,-140.71 165,-105 177.25,-95.73 192.85,-89.02 206.53,-84.41"/>
<polygon fill="#4a6fa5" stroke="#4a6fa5" points="207.19,-86.4 212.25,-82.55 205.9,-82.4 207.19,-86.4"/>
</g>
<!-- Node0x60476c909630 -->
<g id="node16" class="node">
<title>Node0x60476c909630</title>
<path fill="#f0f4ff" stroke="black" d="M260,-36C260,-36 219,-36 219,-36 213,-36 207,-30 207,-24 207,-24 207,-12 207,-12 207,-6 213,0 219,0 219,0 260,0 260,0 266,0 272,-6 272,-12 272,-12 272,-24 272,-24 272,-30 266,-36 260,-36"/>
<text text-anchor="middle" x="239.5" y="-15.8" font-family="Courier,monospace" font-size="9.00">strcasecmp</text>
</g>
<!-- Node0x60476c956840&#45;&gt;Node0x60476c909630 -->
<g id="edge19" class="edge">
<title>Node0x60476c956840&#45;&gt;Node0x60476c909630</title>
<path fill="none" stroke="#4a6fa5" d="M59.69,-231.86C71.76,-192.75 105.33,-99.76 165,-47 175.25,-37.94 188.67,-31.54 201.23,-27.1"/>
<polygon fill="#4a6fa5" stroke="#4a6fa5" points="201.9,-29.08 206.93,-25.19 200.57,-25.1 201.9,-29.08"/>
</g>
<!-- Node0x60476c89ad10 -->
<g id="node17" class="node">
<title>Node0x60476c89ad10</title>
<path fill="#f0f4ff" stroke="black" d="M69,-538C69,-538 38,-538 38,-538 32,-538 26,-532 26,-526 26,-526 26,-514 26,-514 26,-508 32,-502 38,-502 38,-502 69,-502 69,-502 75,-502 81,-508 81,-514 81,-514 81,-526 81,-526 81,-532 75,-538 69,-538"/>
<text text-anchor="middle" x="53.5" y="-517.8" font-family="Courier,monospace" font-size="9.00">length()</text>
</g>
<!-- Node0x60476c95af80 -->
<g id="node18" class="node">
<title>Node0x60476c95af80</title>
<path fill="#f0f4ff" stroke="black" d="M90,-596C90,-596 17,-596 17,-596 11,-596 5,-590 5,-584 5,-584 5,-572 5,-572 5,-566 11,-560 17,-560 17,-560 90,-560 90,-560 96,-560 102,-566 102,-572 102,-572 102,-584 102,-584 102,-590 96,-596 90,-596"/>
<text text-anchor="middle" x="53.5" y="-575.8" font-family="Courier,monospace" font-size="9.00">_Guard::_Guard()</text>
</g>
<!-- Node0x60476c89c950 -->
<g id="node19" class="node">
<title>Node0x60476c89c950</title>
<path fill="#f0f4ff" stroke="black" d="M92.5,-654C92.5,-654 14.5,-654 14.5,-654 8.5,-654 2.5,-648 2.5,-642 2.5,-642 2.5,-630 2.5,-630 2.5,-624 8.5,-618 14.5,-618 14.5,-618 92.5,-618 92.5,-618 98.5,-618 104.5,-624 104.5,-630 104.5,-630 104.5,-642 104.5,-642 104.5,-648 98.5,-654 92.5,-654"/>
<text text-anchor="middle" x="53.5" y="-633.8" font-family="Courier,monospace" font-size="9.00">_Guard::~_Guard()</text>
</g>
<!-- Node0x60476c899db0 -->
<g id="node20" class="node">
<title>Node0x60476c899db0</title>
<path fill="#f0f4ff" stroke="black" d="M69,-712C69,-712 38,-712 38,-712 32,-712 26,-706 26,-700 26,-700 26,-688 26,-688 26,-682 32,-676 38,-676 38,-676 69,-676 69,-676 75,-676 81,-682 81,-688 81,-688 81,-700 81,-700 81,-706 75,-712 69,-712"/>
<text text-anchor="middle" x="53.5" y="-691.8" font-family="Courier,monospace" font-size="9.00">append()</text>
</g>
</g>
</svg>
