<?xml version="1.0" encoding="UTF-8" standalone="no"?>
<!DOCTYPE svg PUBLIC "-//W3C//DTD SVG 1.1//EN"
 "http://www.w3.org/Graphics/SVG/1.1/DTD/svg11.dtd">
<!-- Generated by graphviz version 2.43.0 (0)
 -->
<!-- Title: Call graph: /home/h02332/po/research/call&#45;graph/analyzer/IccAnalyzerComprehensive.ll Pages: 1 -->
<svg width="1177pt" height="14400pt"
 viewBox="0.00 0.00 1176.93 14400.00" xmlns="http://www.w3.org/2000/svg" xmlns:xlink="http://www.w3.org/1999/xlink">
<g id="graph0" class="graph" transform="scale(1.88 1.88) rotate(0) translate(36 7611)">
<title>Call graph: /home/h02332/po/research/call&#45;graph/analyzer/IccAnalyzerComprehensive.ll</title>
<polygon fill="white" stroke="transparent" points="-36,36 -36,-7611 589,-7611 589,36 -36,36"/>
<!-- Node0x5fdaf301be10 -->
<g id="node1" class="node">
<title>Node0x5fdaf301be10</title>
<path fill="#f0f4ff" stroke="black" d="M129,-686C129,-686 12,-686 12,-686 6,-686 0,-680 0,-674 0,-674 0,-662 0,-662 0,-656 6,-650 12,-650 12,-650 129,-650 129,-650 135,-650 141,-656 141,-662 141,-662 141,-674 141,-674 141,-680 135,-686 129,-686"/>
<text text-anchor="middle" x="70.5" y="-665.8" font-family="Courier,monospace" font-size="9.00">{ComprehensiveAnalyze()}</text>
</g>
<!-- Node0x5fdaf301bca0 -->
<g id="node2" class="node">
<title>Node0x5fdaf301bca0</title>
<path fill="#f0f4ff" stroke="black" d="M324.5,-1336C324.5,-1336 291.5,-1336 291.5,-1336 285.5,-1336 279.5,-1330 279.5,-1324 279.5,-1324 279.5,-1312 279.5,-1312 279.5,-1306 285.5,-1300 291.5,-1300 291.5,-1300 324.5,-1300 324.5,-1300 330.5,-1300 336.5,-1306 336.5,-1312 336.5,-1312 336.5,-1324 336.5,-1324 336.5,-1330 330.5,-1336 324.5,-1336"/>
<text text-anchor="middle" x="308" y="-1315.8" font-family="Courier,monospace" font-size="9.00">{printf}</text>
</g>
<!-- Node0x5fdaf301be10&#45;&gt;Node0x5fdaf301bca0 -->
<g id="edge1" class="edge">
<title>Node0x5fdaf301be10&#45;&gt;Node0x5fdaf301bca0</title>
<path fill="none" stroke="#4a6fa5" d="M73.81,-686.05C85.88,-777.76 144.26,-1191.36 227,-1286 238.53,-1299.18 256.24,-1307 272.07,-1311.6"/>
<polygon fill="#4a6fa5" stroke="#4a6fa5" points="271.79,-1314.07 279.19,-1313.5 273.05,-1309.33 271.79,-1314.07"/>
</g>
<!-- Node0x5fdaf2fe3a30 -->
<g id="node3" class="node">
<title>Node0x5fdaf2fe3a30</title>
<path fill="#f0f4ff" stroke="black" d="M374,-1271C374,-1271 242,-1271 242,-1271 236,-1271 230,-1265 230,-1259 230,-1259 230,-1247 230,-1247 230,-1241 236,-1235 242,-1235 242,-1235 374,-1235 374,-1235 380,-1235 386,-1241 386,-1247 386,-1247 386,-1259 386,-1259 386,-1265 380,-1271 374,-1271"/>
<text text-anchor="middle" x="308" y="-1250.8" font-family="Courier,monospace" font-size="9.00">{CIccFileIO::~CIccFileIO()}</text>
</g>
<!-- Node0x5fdaf301be10&#45;&gt;Node0x5fdaf2fe3a30 -->
<g id="edge2" class="edge">
<title>Node0x5fdaf301be10&#45;&gt;Node0x5fdaf2fe3a30</title>
<path fill="none" stroke="#4a6fa5" d="M71.17,-686.21C70.77,-762.06 79.16,-1056.53 227,-1221 230.44,-1224.82 234.39,-1228.2 238.67,-1231.17"/>
<polygon fill="#4a6fa5" stroke="#4a6fa5" points="237.45,-1233.3 244.68,-1234.99 240.08,-1229.17 237.45,-1233.3"/>
</g>
<!-- Node0x5fdaf2fe25d0 -->
<g id="node4" class="node">
<title>Node0x5fdaf2fe25d0</title>
<path fill="#f0f4ff" stroke="black" d="M342.5,-1206C342.5,-1206 273.5,-1206 273.5,-1206 267.5,-1206 261.5,-1200 261.5,-1194 261.5,-1194 261.5,-1182 261.5,-1182 261.5,-1176 267.5,-1170 273.5,-1170 273.5,-1170 342.5,-1170 342.5,-1170 348.5,-1170 354.5,-1176 354.5,-1182 354.5,-1182 354.5,-1194 354.5,-1194 354.5,-1200 348.5,-1206 342.5,-1206"/>
<text text-anchor="middle" x="308" y="-1185.8" font-family="Courier,monospace" font-size="9.00">{ColorHeader()}</text>
</g>
<!-- Node0x5fdaf301be10&#45;&gt;Node0x5fdaf2fe25d0 -->
<g id="edge3" class="edge">
<title>Node0x5fdaf301be10&#45;&gt;Node0x5fdaf2fe25d0</title>
<path fill="none" stroke="#4a6fa5" d="M71.97,-686.22C74.77,-756.49 94.05,-1013.11 227,-1156 234.52,-1164.09 244.36,-1170.17 254.55,-1174.73"/>
<polygon fill="#4a6fa5" stroke="#4a6fa5" points="253.87,-1177.1 261.28,-1177.52 255.75,-1172.58 253.87,-1177.1"/>
</g>
<!-- Node0x5fdaf301ba20 -->
<g id="node5" class="node">
<title>Node0x5fdaf301ba20</title>
<path fill="#f0f4ff" stroke="black" d="M340,-1141C340,-1141 276,-1141 276,-1141 270,-1141 264,-1135 264,-1129 264,-1129 264,-1117 264,-1117 264,-1111 270,-1105 276,-1105 276,-1105 340,-1105 340,-1105 346,-1105 352,-1111 352,-1117 352,-1117 352,-1129 352,-1129 352,-1135 346,-1141 340,-1141"/>
<text text-anchor="middle" x="308" y="-1120.8" font-family="Courier,monospace" font-size="9.00">{ColorReset()}</text>
</g>
<!-- Node0x5fdaf301be10&#45;&gt;Node0x5fdaf301ba20 -->
<g id="edge4" class="edge">
<title>Node0x5fdaf301be10&#45;&gt;Node0x5fdaf301ba20</title>
<path fill="none" stroke="#4a6fa5" d="M73.03,-686.43C79.35,-750.98 108.92,-969.54 227,-1091 235.2,-1099.44 245.92,-1105.71 256.83,-1110.36"/>
<polygon fill="#4a6fa5" stroke="#4a6fa5" points="256.22,-1112.75 263.63,-1113.04 258.02,-1108.19 256.22,-1112.75"/>
</g>
<!-- Node0x5fdaf2fe47b0 -->
<g id="node6" class="node">
<title>Node0x5fdaf2fe47b0</title>
<path fill="#f0f4ff" stroke="black" d="M345.5,-1076C345.5,-1076 270.5,-1076 270.5,-1076 264.5,-1076 258.5,-1070 258.5,-1064 258.5,-1064 258.5,-1052 258.5,-1052 258.5,-1046 264.5,-1040 270.5,-1040 270.5,-1040 345.5,-1040 345.5,-1040 351.5,-1040 357.5,-1046 357.5,-1052 357.5,-1052 357.5,-1064 357.5,-1064 357.5,-1070 351.5,-1076 345.5,-1076"/>
<text text-anchor="middle" x="308" y="-1055.8" font-family="Courier,monospace" font-size="9.00">{ColorWarning()}</text>
</g>
<!-- Node0x5fdaf301be10&#45;&gt;Node0x5fdaf2fe47b0 -->
<g id="edge5" class="edge">
<title>Node0x5fdaf301be10&#45;&gt;Node0x5fdaf2fe47b0</title>
<path fill="none" stroke="#4a6fa5" d="M74.42,-686.4C84.57,-744.38 123.46,-925.44 227,-1026 233.99,-1032.79 242.61,-1038.2 251.58,-1042.49"/>
<polygon fill="#4a6fa5" stroke="#4a6fa5" points="250.75,-1044.8 258.14,-1045.42 252.75,-1040.33 250.75,-1044.8"/>
</g>
<!-- Node0x5fdaf2fe2550 -->
<g id="node7" class="node">
<title>Node0x5fdaf2fe2550</title>
<path fill="#f0f4ff" stroke="black" d="M348,-1011C348,-1011 268,-1011 268,-1011 262,-1011 256,-1005 256,-999 256,-999 256,-987 256,-987 256,-981 262,-975 268,-975 268,-975 348,-975 348,-975 354,-975 360,-981 360,-987 360,-987 360,-999 360,-999 360,-1005 354,-1011 348,-1011"/>
<text text-anchor="middle" x="308" y="-990.8" font-family="Courier,monospace" font-size="9.00">{ColorCritical()}</text>
</g>
<!-- Node0x5fdaf301be10&#45;&gt;Node0x5fdaf2fe2550 -->
<g id="edge6" class="edge">
<title>Node0x5fdaf301be10&#45;&gt;Node0x5fdaf2fe2550</title>
<path fill="none" stroke="#4a6fa5" d="M76.35,-686.23C90.7,-736.87 137.66,-880.78 227,-961 233.43,-966.78 241.04,-971.58 248.97,-975.55"/>
<polygon fill="#4a6fa5" stroke="#4a6fa5" points="248.3,-977.94 255.68,-978.69 250.38,-973.5 248.3,-977.94"/>
</g>
<!-- Node0x5fdaf301c0d0 -->
<g id="node8" class="node">
<title>Node0x5fdaf301c0d0</title>
<path fill="#f0f4ff" stroke="black" d="M337.5,-946C337.5,-946 278.5,-946 278.5,-946 272.5,-946 266.5,-940 266.5,-934 266.5,-934 266.5,-922 266.5,-922 266.5,-916 272.5,-910 278.5,-910 278.5,-910 337.5,-910 337.5,-910 343.5,-910 349.5,-916 349.5,-922 349.5,-922 349.5,-934 349.5,-934 349.5,-940 343.5,-946 337.5,-946"/>
<text text-anchor="middle" x="308" y="-925.8" font-family="Courier,monospace" font-size="9.00">{ColorInfo()}</text>
</g>
<!-- Node0x5fdaf301be10&#45;&gt;Node0x5fdaf301c0d0 -->
<g id="edge7" class="edge">
<title>Node0x5fdaf301be10&#45;&gt;Node0x5fdaf301c0d0</title>
<path fill="none" stroke="#4a6fa5" d="M79.26,-686.07C98.34,-728.48 151.52,-835.42 227,-896 236.56,-903.67 248.19,-909.71 259.59,-914.37"/>
<polygon fill="#4a6fa5" stroke="#4a6fa5" points="258.85,-916.71 266.26,-916.96 260.62,-912.15 258.85,-916.71"/>
</g>
<!-- Node0x5fdaf301c670 -->
<g id="node9" class="node">
<title>Node0x5fdaf301c670</title>
<path fill="#f0f4ff" stroke="black" d="M345.5,-881C345.5,-881 270.5,-881 270.5,-881 264.5,-881 258.5,-875 258.5,-869 258.5,-869 258.5,-857 258.5,-857 258.5,-851 264.5,-845 270.5,-845 270.5,-845 345.5,-845 345.5,-845 351.5,-845 357.5,-851 357.5,-857 357.5,-857 357.5,-869 357.5,-869 357.5,-875 351.5,-881 345.5,-881"/>
<text text-anchor="middle" x="308" y="-860.8" font-family="Courier,monospace" font-size="9.00">{ColorSuccess()}</text>
</g>
<!-- Node0x5fdaf301be10&#45;&gt;Node0x5fdaf301c670 -->
<g id="edge8" class="edge">
<title>Node0x5fdaf301be10&#45;&gt;Node0x5fdaf301c670</title>
<path fill="none" stroke="#4a6fa5" d="M84.52,-686.09C109.02,-719.01 165.13,-789.15 227,-831 234.6,-836.14 243.16,-840.66 251.77,-844.55"/>
<polygon fill="#4a6fa5" stroke="#4a6fa5" points="250.96,-846.87 258.35,-847.41 252.91,-842.37 250.96,-846.87"/>
</g>
<!-- Node0x5fdaf2fe42e0 -->
<g id="node10" class="node">
<title>Node0x5fdaf2fe42e0</title>
<path fill="#f0f4ff" stroke="black" d="M356,-816C356,-816 260,-816 260,-816 254,-816 248,-810 248,-804 248,-804 248,-792 248,-792 248,-786 254,-780 260,-780 260,-780 356,-780 356,-780 362,-780 368,-786 368,-792 368,-792 368,-804 368,-804 368,-810 362,-816 356,-816"/>
<text text-anchor="middle" x="308" y="-795.8" font-family="Courier,monospace" font-size="9.00">{TagDetailAnalyze()}</text>
</g>
<!-- Node0x5fdaf301be10&#45;&gt;Node0x5fdaf2fe42e0 -->
<g id="edge9" class="edge">
<title>Node0x5fdaf301be10&#45;&gt;Node0x5fdaf2fe42e0</title>
<path fill="none" stroke="#4a6fa5" d="M97.06,-686.15C127.2,-707.06 179.24,-741.65 227,-766 234.6,-769.87 242.79,-773.61 250.92,-777.08"/>
<polygon fill="#4a6fa5" stroke="#4a6fa5" points="250.32,-779.48 257.72,-779.92 252.21,-774.96 250.32,-779.48"/>
</g>
<!-- Node0x5fdaf301d1b0 -->
<g id="node11" class="node">
<title>Node0x5fdaf301d1b0</title>
<path fill="#f0f4ff" stroke="black" d="M358.5,-751C358.5,-751 257.5,-751 257.5,-751 251.5,-751 245.5,-745 245.5,-739 245.5,-739 245.5,-727 245.5,-727 245.5,-721 251.5,-715 257.5,-715 257.5,-715 358.5,-715 358.5,-715 364.5,-715 370.5,-721 370.5,-727 370.5,-727 370.5,-739 370.5,-739 370.5,-745 364.5,-751 358.5,-751"/>
<text text-anchor="middle" x="308" y="-730.8" font-family="Courier,monospace" font-size="9.00">{CIccFileIO::Close()}</text>
</g>
<!-- Node0x5fdaf301be10&#45;&gt;Node0x5fdaf301d1b0 -->
<g id="edge10" class="edge">
<title>Node0x5fdaf301be10&#45;&gt;Node0x5fdaf301d1b0</title>
<path fill="none" stroke="#4a6fa5" d="M136.79,-686.02C168.3,-694.72 206.11,-705.15 238.08,-713.98"/>
<polygon fill="#4a6fa5" stroke="#4a6fa5" points="237.83,-716.45 245.23,-715.95 239.14,-711.73 237.83,-716.45"/>
</g>
<!-- Node0x5fdaf301d730 -->
<g id="node12" class="node">
<title>Node0x5fdaf301d730</title>
<path fill="#f0f4ff" stroke="black" d="M345.5,-686C345.5,-686 270.5,-686 270.5,-686 264.5,-686 258.5,-680 258.5,-674 258.5,-674 258.5,-662 258.5,-662 258.5,-656 264.5,-650 270.5,-650 270.5,-650 345.5,-650 345.5,-650 351.5,-650 357.5,-656 357.5,-662 357.5,-662 357.5,-674 357.5,-674 357.5,-680 351.5,-686 345.5,-686"/>
<text text-anchor="middle" x="308" y="-665.8" font-family="Courier,monospace" font-size="9.00">{DumpTagTable()}</text>
</g>
<!-- Node0x5fdaf301be10&#45;&gt;Node0x5fdaf301d730 -->
<g id="edge11" class="edge">
<title>Node0x5fdaf301be10&#45;&gt;Node0x5fdaf301d730</title>
<path fill="none" stroke="#4a6fa5" d="M141.2,-668C176.26,-668 218.17,-668 251.08,-668"/>
<polygon fill="#4a6fa5" stroke="#4a6fa5" points="251.39,-670.45 258.39,-668 251.39,-665.55 251.39,-670.45"/>
</g>
<!-- Node0x5fdaf2fe3750 -->
<g id="node13" class="node">
<title>Node0x5fdaf2fe3750</title>
<path fill="#f0f4ff" stroke="black" d="M358.5,-621C358.5,-621 257.5,-621 257.5,-621 251.5,-621 245.5,-615 245.5,-609 245.5,-609 245.5,-597 245.5,-597 245.5,-591 251.5,-585 257.5,-585 257.5,-585 358.5,-585 358.5,-585 364.5,-585 370.5,-591 370.5,-597 370.5,-597 370.5,-609 370.5,-609 370.5,-615 364.5,-621 358.5,-621"/>
<text text-anchor="middle" x="308" y="-600.8" font-family="Courier,monospace" font-size="9.00">{DumpProfileHeader()}</text>
</g>
<!-- Node0x5fdaf301be10&#45;&gt;Node0x5fdaf2fe3750 -->
<g id="edge12" class="edge">
<title>Node0x5fdaf301be10&#45;&gt;Node0x5fdaf2fe3750</title>
<path fill="none" stroke="#4a6fa5" d="M136.79,-649.98C168.3,-641.28 206.11,-630.85 238.08,-622.02"/>
<polygon fill="#4a6fa5" stroke="#4a6fa5" points="239.14,-624.27 245.23,-620.05 237.83,-619.55 239.14,-624.27"/>
</g>
<!-- Node0x5fdaf2fe3100 -->
<g id="node14" class="node">
<title>Node0x5fdaf2fe3100</title>
<path fill="#f0f4ff" stroke="black" d="M356,-556C356,-556 260,-556 260,-556 254,-556 248,-550 248,-544 248,-544 248,-532 248,-532 248,-526 254,-520 260,-520 260,-520 356,-520 356,-520 362,-520 368,-526 368,-532 368,-532 368,-544 368,-544 368,-550 362,-556 356,-556"/>
<text text-anchor="middle" x="308" y="-535.8" font-family="Courier,monospace" font-size="9.00">{CIccFileIO::Open()}</text>
</g>
<!-- Node0x5fdaf301be10&#45;&gt;Node0x5fdaf2fe3100 -->
<g id="edge13" class="edge">
<title>Node0x5fdaf301be10&#45;&gt;Node0x5fdaf2fe3100</title>
<path fill="none" stroke="#4a6fa5" d="M97.41,-649.97C127.65,-629.36 179.59,-595.35 227,-571 235.2,-566.79 244.07,-562.7 252.81,-558.92"/>
<polygon fill="#4a6fa5" stroke="#4a6fa5" points="253.97,-561.08 259.45,-556.09 252.05,-556.58 253.97,-561.08"/>
</g>
<!-- Node0x5fdaf2fe2ca0 -->
<g id="node15" class="node">
<title>Node0x5fdaf2fe2ca0</title>
<path fill="#f0f4ff" stroke="black" d="M356,-491C356,-491 260,-491 260,-491 254,-491 248,-485 248,-479 248,-479 248,-467 248,-467 248,-461 254,-455 260,-455 260,-455 356,-455 356,-455 362,-455 368,-461 368,-467 368,-467 368,-479 368,-479 368,-485 362,-491 356,-491"/>
<text text-anchor="middle" x="308" y="-470.8" font-family="Courier,monospace" font-size="9.00">{HeuristicAnalyze()}</text>
</g>
<!-- Node0x5fdaf301be10&#45;&gt;Node0x5fdaf2fe2ca0 -->
<g id="edge14" class="edge">
<title>Node0x5fdaf301be10&#45;&gt;Node0x5fdaf2fe2ca0</title>
<path fill="none" stroke="#4a6fa5" d="M84.78,-649.83C109.5,-617.12 165.64,-547.85 227,-506 233.37,-501.66 240.39,-497.73 247.56,-494.23"/>
<polygon fill="#4a6fa5" stroke="#4a6fa5" points="248.87,-496.32 254.17,-491.13 246.79,-491.88 248.87,-496.32"/>
</g>
<!-- Node0x5fdaf301cbf0 -->
<g id="node16" class="node">
<title>Node0x5fdaf301cbf0</title>
<path fill="#f0f4ff" stroke="black" d="M371.5,-426C371.5,-426 244.5,-426 244.5,-426 238.5,-426 232.5,-420 232.5,-414 232.5,-414 232.5,-402 232.5,-402 232.5,-396 238.5,-390 244.5,-390 244.5,-390 371.5,-390 371.5,-390 377.5,-390 383.5,-396 383.5,-402 383.5,-402 383.5,-414 383.5,-414 383.5,-420 377.5,-426 371.5,-426"/>
<text text-anchor="middle" x="308" y="-405.8" font-family="Courier,monospace" font-size="9.00">{CIccFileIO::CIccFileIO()}</text>
</g>
<!-- Node0x5fdaf301be10&#45;&gt;Node0x5fdaf301cbf0 -->
<g id="edge15" class="edge">
<title>Node0x5fdaf301be10&#45;&gt;Node0x5fdaf301cbf0</title>
<path fill="none" stroke="#4a6fa5" d="M79.47,-649.75C98.81,-607.43 152.2,-501.58 227,-441 232.43,-436.6 238.53,-432.71 244.87,-429.3"/>
<polygon fill="#4a6fa5" stroke="#4a6fa5" points="246.15,-431.39 251.28,-426.03 243.93,-427.03 246.15,-431.39"/>
</g>
<!-- Node0x5fdaf2fe32d0 -->
<g id="node17" class="node">
<title>Node0x5fdaf2fe32d0</title>
<path fill="#f0f4ff" stroke="black" d="M358.5,-361C358.5,-361 257.5,-361 257.5,-361 251.5,-361 245.5,-355 245.5,-349 245.5,-349 245.5,-337 245.5,-337 245.5,-331 251.5,-325 257.5,-325 257.5,-325 358.5,-325 358.5,-325 364.5,-325 370.5,-331 370.5,-337 370.5,-337 370.5,-349 370.5,-349 370.5,-355 364.5,-361 358.5,-361"/>
<text text-anchor="middle" x="308" y="-340.8" font-family="Courier,monospace" font-size="9.00">{AnalyzeSignatures()}</text>
</g>
<!-- Node0x5fdaf301be10&#45;&gt;Node0x5fdaf2fe32d0 -->
<g id="edge16" class="edge">
<title>Node0x5fdaf301be10&#45;&gt;Node0x5fdaf2fe32d0</title>
<path fill="none" stroke="#4a6fa5" d="M76.41,-649.88C90.93,-599.54 138.27,-456.42 227,-376 231.74,-371.7 237.12,-367.92 242.79,-364.6"/>
<polygon fill="#4a6fa5" stroke="#4a6fa5" points="244.08,-366.69 249.05,-361.18 241.73,-362.39 244.08,-366.69"/>
</g>
<!-- Node0x5fdaf301ce40 -->
<g id="node18" class="node">
<title>Node0x5fdaf301ce40</title>
<path fill="#f0f4ff" stroke="black" d="M358.5,-296C358.5,-296 257.5,-296 257.5,-296 251.5,-296 245.5,-290 245.5,-284 245.5,-284 245.5,-272 245.5,-272 245.5,-266 251.5,-260 257.5,-260 257.5,-260 358.5,-260 358.5,-260 364.5,-260 370.5,-266 370.5,-272 370.5,-272 370.5,-284 370.5,-284 370.5,-290 364.5,-296 358.5,-296"/>
<text text-anchor="middle" x="308" y="-275.8" font-family="Courier,monospace" font-size="9.00">{CIccProfile::Read()}</text>
</g>
<!-- Node0x5fdaf301be10&#45;&gt;Node0x5fdaf301ce40 -->
<g id="edge17" class="edge">
<title>Node0x5fdaf301be10&#45;&gt;Node0x5fdaf301ce40</title>
<path fill="none" stroke="#4a6fa5" d="M74.49,-649.7C84.81,-592.01 124.19,-411.82 227,-311 231.32,-306.77 236.26,-303.05 241.51,-299.79"/>
<polygon fill="#4a6fa5" stroke="#4a6fa5" points="242.96,-301.78 247.81,-296.17 240.52,-297.53 242.96,-301.78"/>
</g>
<!-- Node0x5fdaf2fe35a0 -->
<g id="node19" class="node">
<title>Node0x5fdaf2fe35a0</title>
<path fill="#f0f4ff" stroke="black" d="M329.5,-231C329.5,-231 286.5,-231 286.5,-231 280.5,-231 274.5,-225 274.5,-219 274.5,-219 274.5,-207 274.5,-207 274.5,-201 280.5,-195 286.5,-195 286.5,-195 329.5,-195 329.5,-195 335.5,-195 341.5,-201 341.5,-207 341.5,-207 341.5,-219 341.5,-219 341.5,-225 335.5,-231 329.5,-231"/>
<text text-anchor="middle" x="308" y="-210.8" font-family="Courier,monospace" font-size="9.00">{delete()}</text>
</g>
<!-- Node0x5fdaf301be10&#45;&gt;Node0x5fdaf2fe35a0 -->
<g id="edge18" class="edge">
<title>Node0x5fdaf301be10&#45;&gt;Node0x5fdaf2fe35a0</title>
<path fill="none" stroke="#4a6fa5" d="M73.09,-649.66C79.61,-585.4 109.77,-367.79 227,-246 237.83,-234.74 253.07,-227.19 267.34,-222.18"/>
<polygon fill="#4a6fa5" stroke="#4a6fa5" points="268.35,-224.43 274.24,-219.93 266.82,-219.77 268.35,-224.43"/>
</g>
<!-- Node0x5fdaf2fe2e30 -->
<g id="node20" class="node">
<title>Node0x5fdaf2fe2e30</title>
<path fill="#f0f4ff" stroke="black" d="M377,-166C377,-166 239,-166 239,-166 233,-166 227,-160 227,-154 227,-154 227,-142 227,-142 227,-136 233,-130 239,-130 239,-130 377,-130 377,-130 383,-130 389,-136 389,-142 389,-142 389,-154 389,-154 389,-160 383,-166 377,-166"/>
<text text-anchor="middle" x="308" y="-145.8" font-family="Courier,monospace" font-size="9.00">{CIccProfile::CIccProfile()}</text>
</g>
<!-- Node0x5fdaf301be10&#45;&gt;Node0x5fdaf2fe2e30 -->
<g id="edge19" class="edge">
<title>Node0x5fdaf301be10&#45;&gt;Node0x5fdaf2fe2e30</title>
<path fill="none" stroke="#4a6fa5" d="M72.03,-649.86C75.05,-579.89 95.02,-324.3 227,-181 230.86,-176.8 235.34,-173.13 240.17,-169.91"/>
<polygon fill="#4a6fa5" stroke="#4a6fa5" points="241.75,-171.81 246.44,-166.07 239.19,-167.63 241.75,-171.81"/>
</g>
<!-- Node0x5fdaf2fe29a0 -->
<g id="node21" class="node">
<title>Node0x5fdaf2fe29a0</title>
<path fill="#f0f4ff" stroke="black" d="M323,-101C323,-101 293,-101 293,-101 287,-101 281,-95 281,-89 281,-89 281,-77 281,-77 281,-71 287,-65 293,-65 293,-65 323,-65 323,-65 329,-65 335,-71 335,-77 335,-77 335,-89 335,-89 335,-95 329,-101 323,-101"/>
<text text-anchor="middle" x="308" y="-80.8" font-family="Courier,monospace" font-size="9.00">{new()}</text>
</g>
<!-- Node0x5fdaf301be10&#45;&gt;Node0x5fdaf2fe29a0 -->
<g id="edge20" class="edge">
<title>Node0x5fdaf301be10&#45;&gt;Node0x5fdaf2fe29a0</title>
<path fill="none" stroke="#4a6fa5" d="M71.23,-649.86C71.06,-574.31 80.25,-280.95 227,-116 239.15,-102.35 257.81,-94.22 274.05,-89.45"/>
<polygon fill="#4a6fa5" stroke="#4a6fa5" points="274.73,-91.8 280.84,-87.6 273.44,-87.07 274.73,-91.8"/>
</g>
<!-- Node0x5fdaf301c2e0 -->
<g id="node22" class="node">
<title>Node0x5fdaf301c2e0</title>
<path fill="#f0f4ff" stroke="black" d="M356,-36C356,-36 260,-36 260,-36 254,-36 248,-30 248,-24 248,-24 248,-12 248,-12 248,-6 254,0 260,0 260,0 356,0 356,0 362,0 368,-6 368,-12 368,-12 368,-24 368,-24 368,-30 362,-36 356,-36"/>
<text text-anchor="middle" x="308" y="-15.8" font-family="Courier,monospace" font-size="9.00">{RoundTripAnalyze()}</text>
</g>
<!-- Node0x5fdaf301be10&#45;&gt;Node0x5fdaf301c2e0 -->
<g id="edge21" class="edge">
<title>Node0x5fdaf301be10&#45;&gt;Node0x5fdaf301c2e0</title>
<path fill="none" stroke="#4a6fa5" d="M73.84,-649.99C86.02,-558.52 144.88,-145.92 227,-51 231.19,-46.16 236.2,-42.02 241.64,-38.47"/>
<polygon fill="#4a6fa5" stroke="#4a6fa5" points="242.94,-40.55 247.69,-34.86 240.42,-36.34 242.94,-40.55"/>
</g>
<!-- Node0x5fdaf301df70 -->
<g id="node23" class="node">
<title>Node0x5fdaf301df70</title>
<path fill="#f0f4ff" stroke="black" d="M541,-1043C541,-1043 487,-1043 487,-1043 481,-1043 475,-1037 475,-1031 475,-1031 475,-1019 475,-1019 475,-1013 481,-1007 487,-1007 487,-1007 541,-1007 541,-1007 547,-1007 553,-1013 553,-1019 553,-1019 553,-1031 553,-1031 553,-1037 547,-1043 541,-1043"/>
<text text-anchor="middle" x="514" y="-1022.8" font-family="Courier,monospace" font-size="9.00">{GetColor()}</text>
</g>
<!-- Node0x5fdaf2fe25d0&#45;&gt;Node0x5fdaf301df70 -->
<g id="edge22" class="edge">
<title>Node0x5fdaf2fe25d0&#45;&gt;Node0x5fdaf301df70</title>
<path fill="none" stroke="#4a6fa5" d="M354.74,-1173.64C366.42,-1168.93 378.61,-1163.06 389,-1156 433.26,-1125.94 473.67,-1077.65 495.66,-1048.86"/>
<polygon fill="#4a6fa5" stroke="#4a6fa5" points="497.8,-1050.09 500.07,-1043.03 493.89,-1047.14 497.8,-1050.09"/>
</g>
<!-- Node0x5fdaf301ba20&#45;&gt;Node0x5fdaf301df70 -->
<g id="edge23" class="edge">
<title>Node0x5fdaf301ba20&#45;&gt;Node0x5fdaf301df70</title>
<path fill="none" stroke="#4a6fa5" d="M352.13,-1106.74C364.18,-1101.93 377.2,-1096.48 389,-1091 418.44,-1077.33 450.79,-1060.03 475.06,-1046.57"/>
<polygon fill="#4a6fa5" stroke="#4a6fa5" points="476.44,-1048.61 481.37,-1043.06 474.06,-1044.33 476.44,-1048.61"/>
</g>
<!-- Node0x5fdaf2fe47b0&#45;&gt;Node0x5fdaf301df70 -->
<g id="edge27" class="edge">
<title>Node0x5fdaf2fe47b0&#45;&gt;Node0x5fdaf301df70</title>
<path fill="none" stroke="#4a6fa5" d="M357.6,-1050.14C391.02,-1044.73 435.09,-1037.6 467.76,-1032.32"/>
<polygon fill="#4a6fa5" stroke="#4a6fa5" points="468.44,-1034.69 474.96,-1031.15 467.66,-1029.85 468.44,-1034.69"/>
</g>
<!-- Node0x5fdaf2fe2550&#45;&gt;Node0x5fdaf301df70 -->
<g id="edge25" class="edge">
<title>Node0x5fdaf2fe2550&#45;&gt;Node0x5fdaf301df70</title>
<path fill="none" stroke="#4a6fa5" d="M360.21,-1001.03C393.35,-1006.23 436.09,-1012.94 467.94,-1017.93"/>
<polygon fill="#4a6fa5" stroke="#4a6fa5" points="467.67,-1020.37 474.96,-1019.03 468.43,-1015.53 467.67,-1020.37"/>
</g>
<!-- Node0x5fdaf301c0d0&#45;&gt;Node0x5fdaf301df70 -->
<g id="edge24" class="edge">
<title>Node0x5fdaf301c0d0&#45;&gt;Node0x5fdaf301df70</title>
<path fill="none" stroke="#4a6fa5" d="M349.58,-943.96C362.3,-949.17 376.32,-955.13 389,-961 417.75,-974.32 449.5,-990.74 473.67,-1003.61"/>
<polygon fill="#4a6fa5" stroke="#4a6fa5" points="472.63,-1005.83 479.96,-1006.97 474.94,-1001.51 472.63,-1005.83"/>
</g>
<!-- Node0x5fdaf301c670&#45;&gt;Node0x5fdaf301df70 -->
<g id="edge26" class="edge">
<title>Node0x5fdaf301c670&#45;&gt;Node0x5fdaf301df70</title>
<path fill="none" stroke="#4a6fa5" d="M357.62,-879.28C368.39,-883.9 379.44,-889.49 389,-896 432.62,-925.73 472.96,-972.82 495.16,-1001.13"/>
<polygon fill="#4a6fa5" stroke="#4a6fa5" points="493.39,-1002.85 499.62,-1006.88 497.26,-999.84 493.39,-1002.85"/>
</g>
<!-- Node0x5fdaf2fe4560 -->
<g id="node24" class="node">
<title>Node0x5fdaf2fe4560</title>
<path fill="#f0f4ff" stroke="black" d="M123.5,-7575C123.5,-7575 17.5,-7575 17.5,-7575 11.5,-7575 5.5,-7569 5.5,-7563 5.5,-7563 5.5,-7551 5.5,-7551 5.5,-7545 11.5,-7539 17.5,-7539 17.5,-7539 123.5,-7539 123.5,-7539 129.5,-7539 135.5,-7545 135.5,-7551 135.5,-7551 135.5,-7563 135.5,-7563 135.5,-7569 129.5,-7575 123.5,-7575"/>
<text text-anchor="middle" x="70.5" y="-7554.8" font-family="Courier,monospace" font-size="9.00">{__gxx_personality_v0}</text>
</g>
</g>
</svg>
