<?xml version="1.0" encoding="UTF-8" standalone="no"?>
<!DOCTYPE svg PUBLIC "-//W3C//DTD SVG 1.1//EN"
 "http://www.w3.org/Graphics/SVG/1.1/DTD/svg11.dtd">
<!-- Generated by graphviz version 2.43.0 (0)
 -->
<!-- Title: Call graph: /home/h02332/po/research/call&#45;graph/analyzer/IccAnalyzerErrors.ll Pages: 1 -->
<svg width="294pt" height="543pt"
 viewBox="0.00 0.00 294.20 543.20" xmlns="http://www.w3.org/2000/svg" xmlns:xlink="http://www.w3.org/1999/xlink">
<g id="graph0" class="graph" transform="scale(1 1) rotate(0) translate(21.6 521.6)">
<title>Call graph: /home/h02332/po/research/call&#45;graph/analyzer/IccAnalyzerErrors.ll</title>
<polygon fill="white" stroke="transparent" points="-21.6,21.6 -21.6,-521.6 272.6,-521.6 272.6,21.6 -21.6,21.6"/>
<!-- Node0x5b47ad800c30 -->
<g id="node1" class="node">
<title>Node0x5b47ad800c30</title>
<path fill="#f0f4ff" stroke="black" d="M127,-36C127,-36 12,-36 12,-36 6,-36 0,-30 0,-24 0,-24 0,-12 0,-12 0,-6 6,0 12,0 12,0 127,0 127,0 133,0 139,-6 139,-12 139,-12 139,-24 139,-24 139,-30 133,-36 127,-36"/>
<text text-anchor="middle" x="69.5" y="-15.8" font-family="Courier,monospace" font-size="9.00">ErrorOutputDirRequired()</text>
</g>
<!-- Node0x5b47ad7b0320 -->
<g id="node2" class="node">
<title>Node0x5b47ad7b0320</title>
<path fill="#f0f4ff" stroke="black" d="M116.5,-94C116.5,-94 22.5,-94 22.5,-94 16.5,-94 10.5,-88 10.5,-82 10.5,-82 10.5,-70 10.5,-70 10.5,-64 16.5,-58 22.5,-58 22.5,-58 116.5,-58 116.5,-58 122.5,-58 128.5,-64 128.5,-70 128.5,-70 128.5,-82 128.5,-82 128.5,-88 122.5,-94 116.5,-94"/>
<text text-anchor="middle" x="69.5" y="-73.8" font-family="Courier,monospace" font-size="9.00">ErrorInvalidFormat()</text>
</g>
<!-- Node0x5b47ad800240 -->
<g id="node3" class="node">
<title>Node0x5b47ad800240</title>
<path fill="#f0f4ff" stroke="black" d="M113.5,-152C113.5,-152 25.5,-152 25.5,-152 19.5,-152 13.5,-146 13.5,-140 13.5,-140 13.5,-128 13.5,-128 13.5,-122 19.5,-116 25.5,-116 25.5,-116 113.5,-116 113.5,-116 119.5,-116 125.5,-122 125.5,-128 125.5,-128 125.5,-140 125.5,-140 125.5,-146 119.5,-152 113.5,-152"/>
<text text-anchor="middle" x="69.5" y="-131.8" font-family="Courier,monospace" font-size="9.00">ErrorFileNotFound()</text>
</g>
<!-- Node0x5b47ad7b0a90 -->
<g id="node4" class="node">
<title>Node0x5b47ad7b0a90</title>
<path fill="#f0f4ff" stroke="black" d="M239,-152C239,-152 209,-152 209,-152 203,-152 197,-146 197,-140 197,-140 197,-128 197,-128 197,-122 203,-116 209,-116 209,-116 239,-116 239,-116 245,-116 251,-122 251,-128 251,-128 251,-140 251,-140 251,-146 245,-152 239,-152"/>
<text text-anchor="middle" x="224" y="-131.8" font-family="Courier,monospace" font-size="9.00">getcwd</text>
</g>
<!-- Node0x5b47ad800240&#45;&gt;Node0x5b47ad7b0a90 -->
<g id="edge1" class="edge">
<title>Node0x5b47ad800240&#45;&gt;Node0x5b47ad7b0a90</title>
<path fill="none" stroke="#4a6fa5" d="M125.56,-134C147.32,-134 171.6,-134 190.47,-134"/>
<polygon fill="#4a6fa5" stroke="#4a6fa5" points="190.65,-136.1 196.65,-134 190.65,-131.9 190.65,-136.1"/>
</g>
<!-- Node0x5b47ad7b0790 -->
<g id="node5" class="node">
<title>Node0x5b47ad7b0790</title>
<path fill="#f0f4ff" stroke="black" d="M119,-210C119,-210 20,-210 20,-210 14,-210 8,-204 8,-198 8,-198 8,-186 8,-186 8,-180 14,-174 20,-174 20,-174 119,-174 119,-174 125,-174 131,-180 131,-186 131,-186 131,-198 131,-198 131,-204 125,-210 119,-210"/>
<text text-anchor="middle" x="69.5" y="-189.8" font-family="Courier,monospace" font-size="9.00">ErrorPatternNoMatch()</text>
</g>
<!-- Node0x5b47ad7b0cc0 -->
<g id="node6" class="node">
<title>Node0x5b47ad7b0cc0</title>
<path fill="#f0f4ff" stroke="black" d="M124,-268C124,-268 15,-268 15,-268 9,-268 3,-262 3,-256 3,-256 3,-244 3,-244 3,-238 9,-232 15,-232 15,-232 124,-232 124,-232 130,-232 136,-238 136,-244 136,-244 136,-256 136,-256 136,-262 130,-268 124,-268"/>
<text text-anchor="middle" x="69.5" y="-247.8" font-family="Courier,monospace" font-size="9.00">ErrorWatchDirNotFound()</text>
</g>
<!-- Node0x5b47ad801190 -->
<g id="node7" class="node">
<title>Node0x5b47ad801190</title>
<path fill="#f0f4ff" stroke="black" d="M127,-326C127,-326 12,-326 12,-326 6,-326 0,-320 0,-314 0,-314 0,-302 0,-302 0,-296 6,-290 12,-290 12,-290 127,-290 127,-290 133,-290 139,-296 139,-302 139,-302 139,-314 139,-314 139,-320 133,-326 127,-326"/>
<text text-anchor="middle" x="69.5" y="-305.8" font-family="Courier,monospace" font-size="9.00">ErrorIccProfileInvalid()</text>
</g>
<!-- Node0x5b47ad801ad0 -->
<g id="node8" class="node">
<title>Node0x5b47ad801ad0</title>
<path fill="#f0f4ff" stroke="black" d="M124,-384C124,-384 15,-384 15,-384 9,-384 3,-378 3,-372 3,-372 3,-360 3,-360 3,-354 9,-348 15,-348 15,-348 124,-348 124,-348 130,-348 136,-354 136,-360 136,-360 136,-372 136,-372 136,-378 130,-384 124,-384"/>
<text text-anchor="middle" x="69.5" y="-363.8" font-family="Courier,monospace" font-size="9.00">ErrorPermissionDenied()</text>
</g>
<!-- Node0x5b47ad8019d0 -->
<g id="node9" class="node">
<title>Node0x5b47ad8019d0</title>
<path fill="#f0f4ff" stroke="black" d="M124,-442C124,-442 15,-442 15,-442 9,-442 3,-436 3,-430 3,-430 3,-418 3,-418 3,-412 9,-406 15,-406 15,-406 124,-406 124,-406 130,-406 136,-412 136,-418 136,-418 136,-430 136,-430 136,-436 130,-442 124,-442"/>
<text text-anchor="middle" x="69.5" y="-421.8" font-family="Courier,monospace" font-size="9.00">ErrorDatabaseNotFound()</text>
</g>
<!-- Node0x5b47ad802070 -->
<g id="node10" class="node">
<title>Node0x5b47ad802070</title>
<path fill="#f0f4ff" stroke="black" d="M127,-500C127,-500 12,-500 12,-500 6,-500 0,-494 0,-488 0,-488 0,-476 0,-476 0,-470 6,-464 12,-464 12,-464 127,-464 127,-464 133,-464 139,-470 139,-476 139,-476 139,-488 139,-488 139,-494 133,-500 127,-500"/>
<text text-anchor="middle" x="69.5" y="-479.8" font-family="Courier,monospace" font-size="9.00">ErrorDatabaseCorrupted()</text>
</g>
</g>
</svg>
