<?xml version="1.0" encoding="UTF-8" standalone="no"?>
<!DOCTYPE svg PUBLIC "-//W3C//DTD SVG 1.1//EN"
 "http://www.w3.org/Graphics/SVG/1.1/DTD/svg11.dtd">
<!-- Generated by graphviz version 2.43.0 (0)
 -->
<!-- Title: Call graph: /home/h02332/po/research/call&#45;graph/analyzer/IccAnalyzerPathValidation.ll Pages: 1 -->
<svg width="743pt" height="1244pt"
 viewBox="0.00 0.00 743.20 1244.24" xmlns="http://www.w3.org/2000/svg" xmlns:xlink="http://www.w3.org/1999/xlink">
<g id="graph0" class="graph" transform="scale(1 1) rotate(0) translate(21.6 1222.64)">
<title>Call graph: /home/h02332/po/research/call&#45;graph/analyzer/IccAnalyzerPathValidation.ll</title>
<polygon fill="white" stroke="transparent" points="-21.6,21.6 -21.6,-1222.64 721.6,-1222.64 721.6,21.6 -21.6,21.6"/>
<!-- Node0x5658dea4d5f0 -->
<g id="node1" class="node">
<title>Node0x5658dea4d5f0</title>
<path fill="#f0f4ff" stroke="black" d="M538.5,-198.04C538.5,-198.04 381.5,-198.04 381.5,-198.04 375.5,-198.04 369.5,-192.04 369.5,-186.04 369.5,-186.04 369.5,-174.04 369.5,-174.04 369.5,-168.04 375.5,-162.04 381.5,-162.04 381.5,-162.04 538.5,-162.04 538.5,-162.04 544.5,-162.04 550.5,-168.04 550.5,-174.04 550.5,-174.04 550.5,-186.04 550.5,-186.04 550.5,-192.04 544.5,-198.04 538.5,-198.04"/>
<text text-anchor="middle" x="460" y="-177.84" font-family="Courier,monospace" font-size="9.00">IccAnalyzerSecurity::IsSymlink()</text>
</g>
<!-- Node0x5658dea82de0 -->
<g id="node2" class="node">
<title>Node0x5658dea82de0</title>
<path fill="#f0f4ff" stroke="black" d="M685,-224.04C685,-224.04 655,-224.04 655,-224.04 649,-224.04 643,-218.04 643,-212.04 643,-212.04 643,-200.04 643,-200.04 643,-194.04 649,-188.04 655,-188.04 655,-188.04 685,-188.04 685,-188.04 691,-188.04 697,-194.04 697,-200.04 697,-200.04 697,-212.04 697,-212.04 697,-218.04 691,-224.04 685,-224.04"/>
<text text-anchor="middle" x="670" y="-203.84" font-family="Courier,monospace" font-size="9.00">c_str()</text>
</g>
<!-- Node0x5658dea4d5f0&#45;&gt;Node0x5658dea82de0 -->
<g id="edge1" class="edge">
<title>Node0x5658dea4d5f0&#45;&gt;Node0x5658dea82de0</title>
<path fill="none" stroke="#4a6fa5" d="M550.72,-191.25C581.4,-195.09 613.78,-199.13 636.88,-202.02"/>
<polygon fill="#4a6fa5" stroke="#4a6fa5" points="636.63,-204.11 642.85,-202.77 637.15,-199.94 636.63,-204.11"/>
</g>
<!-- Node0x5658deb78bd0 -->
<g id="node3" class="node">
<title>Node0x5658deb78bd0</title>
<path fill="#f0f4ff" stroke="black" d="M570,-82.04C570,-82.04 350,-82.04 350,-82.04 344,-82.04 338,-76.04 338,-70.04 338,-70.04 338,-58.04 338,-58.04 338,-52.04 344,-46.04 350,-46.04 350,-46.04 570,-46.04 570,-46.04 576,-46.04 582,-52.04 582,-58.04 582,-58.04 582,-70.04 582,-70.04 582,-76.04 576,-82.04 570,-82.04"/>
<text text-anchor="middle" x="460" y="-61.84" font-family="Courier,monospace" font-size="9.00">IccAnalyzerSecurity::ContainsPathTraversal()</text>
</g>
<!-- Node0x5658deaae960 -->
<g id="node4" class="node">
<title>Node0x5658deaae960</title>
<path fill="#f0f4ff" stroke="black" d="M685,-82.04C685,-82.04 655,-82.04 655,-82.04 649,-82.04 643,-76.04 643,-70.04 643,-70.04 643,-58.04 643,-58.04 643,-52.04 649,-46.04 655,-46.04 655,-46.04 685,-46.04 685,-46.04 691,-46.04 697,-52.04 697,-58.04 697,-58.04 697,-70.04 697,-70.04 697,-76.04 691,-82.04 685,-82.04"/>
<text text-anchor="middle" x="670" y="-61.84" font-family="Courier,monospace" font-size="9.00">rfind()</text>
</g>
<!-- Node0x5658deb78bd0&#45;&gt;Node0x5658deaae960 -->
<g id="edge2" class="edge">
<title>Node0x5658deb78bd0&#45;&gt;Node0x5658deaae960</title>
<path fill="none" stroke="#4a6fa5" d="M582.3,-64.04C602.26,-64.04 621.35,-64.04 636.51,-64.04"/>
<polygon fill="#4a6fa5" stroke="#4a6fa5" points="636.76,-66.14 642.76,-64.04 636.76,-61.94 636.76,-66.14"/>
</g>
<!-- Node0x5658deaa8610 -->
<g id="node5" class="node">
<title>Node0x5658deaa8610</title>
<path fill="#f0f4ff" stroke="black" d="M546,-418.04C546,-418.04 374,-418.04 374,-418.04 368,-418.04 362,-412.04 362,-406.04 362,-406.04 362,-394.04 362,-394.04 362,-388.04 368,-382.04 374,-382.04 374,-382.04 546,-382.04 546,-382.04 552,-382.04 558,-388.04 558,-394.04 558,-394.04 558,-406.04 558,-406.04 558,-412.04 552,-418.04 546,-418.04"/>
<text text-anchor="middle" x="460" y="-397.84" font-family="Courier,monospace" font-size="9.00">IccAnalyzerSecurity::SanitizePath()</text>
</g>
<!-- Node0x5658deaa8610&#45;&gt;Node0x5658dea82de0 -->
<g id="edge3" class="edge">
<title>Node0x5658deaa8610&#45;&gt;Node0x5658dea82de0</title>
<path fill="none" stroke="#4a6fa5" d="M558.28,-384.79C566.76,-381.12 574.83,-376.6 582,-371.04 628.66,-334.79 653,-266.41 663.14,-230.1"/>
<polygon fill="#4a6fa5" stroke="#4a6fa5" points="665.21,-230.47 664.75,-224.13 661.16,-229.37 665.21,-230.47"/>
</g>
<!-- Node0x5658dea8c110 -->
<g id="node6" class="node">
<title>Node0x5658dea8c110</title>
<path fill="#f0f4ff" stroke="black" d="M685.5,-418.04C685.5,-418.04 654.5,-418.04 654.5,-418.04 648.5,-418.04 642.5,-412.04 642.5,-406.04 642.5,-406.04 642.5,-394.04 642.5,-394.04 642.5,-388.04 648.5,-382.04 654.5,-382.04 654.5,-382.04 685.5,-382.04 685.5,-382.04 691.5,-382.04 697.5,-388.04 697.5,-394.04 697.5,-394.04 697.5,-406.04 697.5,-406.04 697.5,-412.04 691.5,-418.04 685.5,-418.04"/>
<text text-anchor="middle" x="670" y="-397.84" font-family="Courier,monospace" font-size="9.00">realpath</text>
</g>
<!-- Node0x5658deaa8610&#45;&gt;Node0x5658dea8c110 -->
<g id="edge4" class="edge">
<title>Node0x5658deaa8610&#45;&gt;Node0x5658dea8c110</title>
<path fill="none" stroke="#4a6fa5" d="M558.3,-400.04C586.4,-400.04 615.16,-400.04 636.31,-400.04"/>
<polygon fill="#4a6fa5" stroke="#4a6fa5" points="636.35,-402.14 642.35,-400.04 636.35,-397.94 636.35,-402.14"/>
</g>
<!-- Node0x5658dea36b90 -->
<g id="node7" class="node">
<title>Node0x5658dea36b90</title>
<path fill="#f0f4ff" stroke="black" d="M236.5,-389.04C236.5,-389.04 43.5,-389.04 43.5,-389.04 37.5,-389.04 31.5,-383.04 31.5,-377.04 31.5,-377.04 31.5,-365.04 31.5,-365.04 31.5,-359.04 37.5,-353.04 43.5,-353.04 43.5,-353.04 236.5,-353.04 236.5,-353.04 242.5,-353.04 248.5,-359.04 248.5,-365.04 248.5,-365.04 248.5,-377.04 248.5,-377.04 248.5,-383.04 242.5,-389.04 236.5,-389.04"/>
<text text-anchor="middle" x="140" y="-368.84" font-family="Courier,monospace" font-size="9.00">IccAnalyzerSecurity::IsWithinBoundary()</text>
</g>
<!-- Node0x5658dea36b90&#45;&gt;Node0x5658deaa8610 -->
<g id="edge5" class="edge">
<title>Node0x5658dea36b90&#45;&gt;Node0x5658deaa8610</title>
<path fill="none" stroke="#4a6fa5" d="M248.66,-380.86C283.18,-384 321.31,-387.48 355.53,-390.6"/>
<polygon fill="#4a6fa5" stroke="#4a6fa5" points="355.7,-392.73 361.87,-391.18 356.08,-388.54 355.7,-392.73"/>
</g>
<!-- Node0x5658deb7f900 -->
<g id="node8" class="node">
<title>Node0x5658deb7f900</title>
<path fill="#f0f4ff" stroke="black" d="M475,-360.04C475,-360.04 445,-360.04 445,-360.04 439,-360.04 433,-354.04 433,-348.04 433,-348.04 433,-336.04 433,-336.04 433,-330.04 439,-324.04 445,-324.04 445,-324.04 475,-324.04 475,-324.04 481,-324.04 487,-330.04 487,-336.04 487,-336.04 487,-348.04 487,-348.04 487,-354.04 481,-360.04 475,-360.04"/>
<text text-anchor="middle" x="460" y="-339.84" font-family="Courier,monospace" font-size="9.00">rfind()</text>
</g>
<!-- Node0x5658dea36b90&#45;&gt;Node0x5658deb7f900 -->
<g id="edge6" class="edge">
<title>Node0x5658dea36b90&#45;&gt;Node0x5658deb7f900</title>
<path fill="none" stroke="#4a6fa5" d="M248.66,-361.22C311.04,-355.53 385.24,-348.76 426.75,-344.98"/>
<polygon fill="#4a6fa5" stroke="#4a6fa5" points="427.09,-347.06 432.88,-344.42 426.71,-342.87 427.09,-347.06"/>
</g>
<!-- Node0x5658dea37230 -->
<g id="node9" class="node">
<title>Node0x5658dea37230</title>
<path fill="#f0f4ff" stroke="black" d="M236.5,-198.04C236.5,-198.04 43.5,-198.04 43.5,-198.04 37.5,-198.04 31.5,-192.04 31.5,-186.04 31.5,-186.04 31.5,-174.04 31.5,-174.04 31.5,-168.04 37.5,-162.04 43.5,-162.04 43.5,-162.04 236.5,-162.04 236.5,-162.04 242.5,-162.04 248.5,-168.04 248.5,-174.04 248.5,-174.04 248.5,-186.04 248.5,-186.04 248.5,-192.04 242.5,-198.04 236.5,-198.04"/>
<text text-anchor="middle" x="140" y="-177.84" font-family="Courier,monospace" font-size="9.00">IccAnalyzerSecurity::ValidateFilePath()</text>
</g>
<!-- Node0x5658dea37230&#45;&gt;Node0x5658dea4d5f0 -->
<g id="edge10" class="edge">
<title>Node0x5658dea37230&#45;&gt;Node0x5658dea4d5f0</title>
<path fill="none" stroke="#4a6fa5" d="M248.66,-180.04C285.79,-180.04 327.11,-180.04 363.23,-180.04"/>
<polygon fill="#4a6fa5" stroke="#4a6fa5" points="363.44,-182.14 369.44,-180.04 363.44,-177.94 363.44,-182.14"/>
</g>
<!-- Node0x5658dea37230&#45;&gt;Node0x5658dea82de0 -->
<g id="edge9" class="edge">
<title>Node0x5658dea37230&#45;&gt;Node0x5658dea82de0</title>
<path fill="none" stroke="#4a6fa5" d="M243.7,-198.05C273.97,-202.58 307.23,-206.78 338,-209.04 446.15,-216.96 473.57,-210.91 582,-209.04 600.01,-208.73 620.11,-208.06 636.44,-207.43"/>
<polygon fill="#4a6fa5" stroke="#4a6fa5" points="636.82,-209.51 642.74,-207.18 636.66,-205.32 636.82,-209.51"/>
</g>
<!-- Node0x5658dea37230&#45;&gt;Node0x5658deb78bd0 -->
<g id="edge8" class="edge">
<title>Node0x5658dea37230&#45;&gt;Node0x5658deb78bd0</title>
<path fill="none" stroke="#4a6fa5" d="M186.41,-162C213.73,-150.93 249.09,-136.19 280,-122.04 306.2,-110.04 310.92,-102.91 338,-93.04 347.33,-89.64 357.21,-86.52 367.15,-83.7"/>
<polygon fill="#4a6fa5" stroke="#4a6fa5" points="367.78,-85.71 373,-82.07 366.66,-81.66 367.78,-85.71"/>
</g>
<!-- Node0x5658dea37950 -->
<g id="node10" class="node">
<title>Node0x5658dea37950</title>
<path fill="#f0f4ff" stroke="black" d="M475.5,-140.04C475.5,-140.04 444.5,-140.04 444.5,-140.04 438.5,-140.04 432.5,-134.04 432.5,-128.04 432.5,-128.04 432.5,-116.04 432.5,-116.04 432.5,-110.04 438.5,-104.04 444.5,-104.04 444.5,-104.04 475.5,-104.04 475.5,-104.04 481.5,-104.04 487.5,-110.04 487.5,-116.04 487.5,-116.04 487.5,-128.04 487.5,-128.04 487.5,-134.04 481.5,-140.04 475.5,-140.04"/>
<text text-anchor="middle" x="460" y="-119.84" font-family="Courier,monospace" font-size="9.00">length()</text>
</g>
<!-- Node0x5658dea37230&#45;&gt;Node0x5658dea37950 -->
<g id="edge7" class="edge">
<title>Node0x5658dea37230&#45;&gt;Node0x5658dea37950</title>
<path fill="none" stroke="#4a6fa5" d="M239.87,-162C303.78,-150.35 382.89,-135.92 426.43,-127.98"/>
<polygon fill="#4a6fa5" stroke="#4a6fa5" points="426.8,-130.04 432.33,-126.9 426.05,-125.91 426.8,-130.04"/>
</g>
<!-- Node0x5658dea38f50 -->
<g id="node11" class="node">
<title>Node0x5658dea38f50</title>
<path fill="#f0f4ff" stroke="black" d="M478,-302.04C478,-302.04 442,-302.04 442,-302.04 436,-302.04 430,-296.04 430,-290.04 430,-290.04 430,-278.04 430,-278.04 430,-272.04 436,-266.04 442,-266.04 442,-266.04 478,-266.04 478,-266.04 484,-266.04 490,-272.04 490,-278.04 490,-278.04 490,-290.04 490,-290.04 490,-296.04 484,-302.04 478,-302.04"/>
<text text-anchor="middle" x="460" y="-281.84" font-family="Courier,monospace" font-size="9.00">compare()</text>
</g>
<!-- Node0x5658dea37230&#45;&gt;Node0x5658dea38f50 -->
<g id="edge11" class="edge">
<title>Node0x5658dea37230&#45;&gt;Node0x5658dea38f50</title>
<path fill="none" stroke="#4a6fa5" d="M190.13,-198.1C229.83,-212.48 287.26,-232.83 338,-249.04 366.61,-258.18 399.36,-267.59 423.56,-274.34"/>
<polygon fill="#4a6fa5" stroke="#4a6fa5" points="423.18,-276.42 429.52,-276 424.3,-272.37 423.18,-276.42"/>
</g>
<!-- Node0x5658dea3ab40 -->
<g id="node12" class="node">
<title>Node0x5658dea3ab40</title>
<path fill="#f0f4ff" stroke="black" d="M250,-111.04C250,-111.04 30,-111.04 30,-111.04 24,-111.04 18,-105.04 18,-99.04 18,-99.04 18,-87.04 18,-87.04 18,-81.04 24,-75.04 30,-75.04 30,-75.04 250,-75.04 250,-75.04 256,-75.04 262,-81.04 262,-87.04 262,-87.04 262,-99.04 262,-99.04 262,-105.04 256,-111.04 250,-111.04"/>
<text text-anchor="middle" x="140" y="-90.84" font-family="Courier,monospace" font-size="9.00">IccAnalyzerSecurity::ValidateDirectoryPath()</text>
</g>
<!-- Node0x5658dea3ab40&#45;&gt;Node0x5658dea4d5f0 -->
<g id="edge15" class="edge">
<title>Node0x5658dea3ab40&#45;&gt;Node0x5658dea4d5f0</title>
<path fill="none" stroke="#4a6fa5" d="M199.4,-111.08C238.48,-122.95 291.15,-138.54 338,-151.04 349.93,-154.22 362.56,-157.43 374.99,-160.49"/>
<polygon fill="#4a6fa5" stroke="#4a6fa5" points="374.74,-162.59 381.07,-161.98 375.74,-158.51 374.74,-162.59"/>
</g>
<!-- Node0x5658dea3ab40&#45;&gt;Node0x5658dea82de0 -->
<g id="edge14" class="edge">
<title>Node0x5658dea3ab40&#45;&gt;Node0x5658dea82de0</title>
<path fill="none" stroke="#4a6fa5" d="M175,-74.92C253.28,-35.93 449.68,46.1 582,-35.04 634.83,-67.43 656.82,-143.06 664.9,-181.97"/>
<polygon fill="#4a6fa5" stroke="#4a6fa5" points="662.84,-182.41 666.07,-187.89 666.96,-181.59 662.84,-182.41"/>
</g>
<!-- Node0x5658dea3ab40&#45;&gt;Node0x5658deb78bd0 -->
<g id="edge13" class="edge">
<title>Node0x5658dea3ab40&#45;&gt;Node0x5658deb78bd0</title>
<path fill="none" stroke="#4a6fa5" d="M262.13,-81.99C284.93,-79.91 308.83,-77.73 331.81,-75.64"/>
<polygon fill="#4a6fa5" stroke="#4a6fa5" points="332.16,-77.71 337.94,-75.08 331.78,-73.53 332.16,-77.71"/>
</g>
<!-- Node0x5658dea3ab40&#45;&gt;Node0x5658dea37950 -->
<g id="edge12" class="edge">
<title>Node0x5658dea3ab40&#45;&gt;Node0x5658dea37950</title>
<path fill="none" stroke="#4a6fa5" d="M262.13,-104.08C321.03,-109.46 387.3,-115.5 425.97,-119.03"/>
<polygon fill="#4a6fa5" stroke="#4a6fa5" points="426.23,-121.16 432.4,-119.61 426.61,-116.98 426.23,-121.16"/>
</g>
<!-- Node0x5658deb82840 -->
<g id="node13" class="node">
<title>Node0x5658deb82840</title>
<path fill="#f0f4ff" stroke="black" d="M260.5,-447.04C260.5,-447.04 19.5,-447.04 19.5,-447.04 13.5,-447.04 7.5,-441.04 7.5,-435.04 7.5,-435.04 7.5,-423.04 7.5,-423.04 7.5,-417.04 13.5,-411.04 19.5,-411.04 19.5,-411.04 260.5,-411.04 260.5,-411.04 266.5,-411.04 272.5,-417.04 272.5,-423.04 272.5,-423.04 272.5,-435.04 272.5,-435.04 272.5,-441.04 266.5,-447.04 260.5,-447.04"/>
<text text-anchor="middle" x="140" y="-426.84" font-family="Courier,monospace" font-size="9.00">IccAnalyzerSecurity::GetValidationErrorMessage()</text>
</g>
<!-- Node0x5658deb83f50 -->
<g id="node14" class="node">
<title>Node0x5658deb83f50</title>
<path fill="#f0f4ff" stroke="black" d="M268,-505.04C268,-505.04 12,-505.04 12,-505.04 6,-505.04 0,-499.04 0,-493.04 0,-493.04 0,-481.04 0,-481.04 0,-475.04 6,-469.04 12,-469.04 12,-469.04 268,-469.04 268,-469.04 274,-469.04 280,-475.04 280,-481.04 280,-481.04 280,-493.04 280,-493.04 280,-499.04 274,-505.04 268,-505.04"/>
<text text-anchor="middle" x="140" y="-484.84" font-family="Courier,monospace" font-size="9.00">IccAnalyzerSecurity::ValidateBinaryDatabaseFormat()</text>
</g>
<!-- Node0x5658deb9a280 -->
<g id="node15" class="node">
<title>Node0x5658deb9a280</title>
<path fill="#f0f4ff" stroke="black" d="M496.5,-563.04C496.5,-563.04 423.5,-563.04 423.5,-563.04 417.5,-563.04 411.5,-557.04 411.5,-551.04 411.5,-551.04 411.5,-539.04 411.5,-539.04 411.5,-533.04 417.5,-527.04 423.5,-527.04 423.5,-527.04 496.5,-527.04 496.5,-527.04 502.5,-527.04 508.5,-533.04 508.5,-539.04 508.5,-539.04 508.5,-551.04 508.5,-551.04 508.5,-557.04 502.5,-563.04 496.5,-563.04"/>
<text text-anchor="middle" x="460" y="-542.84" font-family="Courier,monospace" font-size="9.00">SanitizeForLog()</text>
</g>
<!-- Node0x5658deb9a380 -->
<g id="node16" class="node">
<title>Node0x5658deb9a380</title>
<path fill="#f0f4ff" stroke="black" d="M688,-592.04C688,-592.04 652,-592.04 652,-592.04 646,-592.04 640,-586.04 640,-580.04 640,-580.04 640,-568.04 640,-568.04 640,-562.04 646,-556.04 652,-556.04 652,-556.04 688,-556.04 688,-556.04 694,-556.04 700,-562.04 700,-568.04 700,-568.04 700,-580.04 700,-580.04 700,-586.04 694,-592.04 688,-592.04"/>
<text text-anchor="middle" x="670" y="-571.84" font-family="Courier,monospace" font-size="9.00">reserve()</text>
</g>
<!-- Node0x5658deb9a280&#45;&gt;Node0x5658deb9a380 -->
<g id="edge16" class="edge">
<title>Node0x5658deb9a280&#45;&gt;Node0x5658deb9a380</title>
<path fill="none" stroke="#4a6fa5" d="M508.72,-551.69C546.77,-557 599.21,-564.31 633.59,-569.1"/>
<polygon fill="#4a6fa5" stroke="#4a6fa5" points="633.56,-571.22 639.79,-569.97 634.14,-567.06 633.56,-571.22"/>
</g>
<!-- Node0x5658deb857d0 -->
<g id="node17" class="node">
<title>Node0x5658deb857d0</title>
<path fill="#f0f4ff" stroke="black" d="M234,-563.04C234,-563.04 46,-563.04 46,-563.04 40,-563.04 34,-557.04 34,-551.04 34,-551.04 34,-539.04 34,-539.04 34,-533.04 40,-527.04 46,-527.04 46,-527.04 234,-527.04 234,-527.04 240,-527.04 246,-533.04 246,-539.04 246,-539.04 246,-551.04 246,-551.04 246,-557.04 240,-563.04 234,-563.04"/>
<text text-anchor="middle" x="140" y="-542.84" font-family="Courier,monospace" font-size="9.00">SanitizeForLog[abi:cxx11](char const*)</text>
</g>
<!-- Node0x5658deb857d0&#45;&gt;Node0x5658deb9a280 -->
<g id="edge17" class="edge">
<title>Node0x5658deb857d0&#45;&gt;Node0x5658deb9a280</title>
<path fill="none" stroke="#4a6fa5" d="M246.01,-545.04C299.4,-545.04 362,-545.04 405.46,-545.04"/>
<polygon fill="#4a6fa5" stroke="#4a6fa5" points="405.47,-547.14 411.47,-545.04 405.47,-542.94 405.47,-547.14"/>
</g>
<!-- Node0x5658deba18e0 -->
<g id="node18" class="node">
<title>Node0x5658deba18e0</title>
<path fill="#f0f4ff" stroke="black" d="M496.5,-621.04C496.5,-621.04 423.5,-621.04 423.5,-621.04 417.5,-621.04 411.5,-615.04 411.5,-609.04 411.5,-609.04 411.5,-597.04 411.5,-597.04 411.5,-591.04 417.5,-585.04 423.5,-585.04 423.5,-585.04 496.5,-585.04 496.5,-585.04 502.5,-585.04 508.5,-591.04 508.5,-597.04 508.5,-597.04 508.5,-609.04 508.5,-609.04 508.5,-615.04 502.5,-621.04 496.5,-621.04"/>
<text text-anchor="middle" x="460" y="-600.84" font-family="Courier,monospace" font-size="9.00">SanitizeForDOT()</text>
</g>
<!-- Node0x5658deba18e0&#45;&gt;Node0x5658deb9a380 -->
<g id="edge18" class="edge">
<title>Node0x5658deba18e0&#45;&gt;Node0x5658deb9a380</title>
<path fill="none" stroke="#4a6fa5" d="M508.72,-596.38C546.77,-591.08 599.21,-583.77 633.59,-578.97"/>
<polygon fill="#4a6fa5" stroke="#4a6fa5" points="634.14,-581.02 639.79,-578.11 633.56,-576.86 634.14,-581.02"/>
</g>
<!-- Node0x5658dea36560 -->
<g id="node19" class="node">
<title>Node0x5658dea36560</title>
<path fill="#f0f4ff" stroke="black" d="M155.5,-621.04C155.5,-621.04 124.5,-621.04 124.5,-621.04 118.5,-621.04 112.5,-615.04 112.5,-609.04 112.5,-609.04 112.5,-597.04 112.5,-597.04 112.5,-591.04 118.5,-585.04 124.5,-585.04 124.5,-585.04 155.5,-585.04 155.5,-585.04 161.5,-585.04 167.5,-591.04 167.5,-597.04 167.5,-597.04 167.5,-609.04 167.5,-609.04 167.5,-615.04 161.5,-621.04 155.5,-621.04"/>
<text text-anchor="middle" x="140" y="-600.84" font-family="Courier,monospace" font-size="9.00">length()</text>
</g>
<!-- Node0x5658deb9fe70 -->
<g id="node20" class="node">
<title>Node0x5658deb9fe70</title>
<path fill="#f0f4ff" stroke="black" d="M176.5,-679.04C176.5,-679.04 103.5,-679.04 103.5,-679.04 97.5,-679.04 91.5,-673.04 91.5,-667.04 91.5,-667.04 91.5,-655.04 91.5,-655.04 91.5,-649.04 97.5,-643.04 103.5,-643.04 103.5,-643.04 176.5,-643.04 176.5,-643.04 182.5,-643.04 188.5,-649.04 188.5,-655.04 188.5,-655.04 188.5,-667.04 188.5,-667.04 188.5,-673.04 182.5,-679.04 176.5,-679.04"/>
<text text-anchor="middle" x="140" y="-658.84" font-family="Courier,monospace" font-size="9.00">_Guard::_Guard()</text>
</g>
<!-- Node0x5658debab030 -->
<g id="node21" class="node">
<title>Node0x5658debab030</title>
<path fill="#f0f4ff" stroke="black" d="M179,-737.04C179,-737.04 101,-737.04 101,-737.04 95,-737.04 89,-731.04 89,-725.04 89,-725.04 89,-713.04 89,-713.04 89,-707.04 95,-701.04 101,-701.04 101,-701.04 179,-701.04 179,-701.04 185,-701.04 191,-707.04 191,-713.04 191,-713.04 191,-725.04 191,-725.04 191,-731.04 185,-737.04 179,-737.04"/>
<text text-anchor="middle" x="140" y="-716.84" font-family="Courier,monospace" font-size="9.00">_Guard::~_Guard()</text>
</g>
<!-- Node0x5658dea38c70 -->
<g id="node22" class="node">
<title>Node0x5658dea38c70</title>
<path fill="#f0f4ff" stroke="black" d="M155,-795.04C155,-795.04 125,-795.04 125,-795.04 119,-795.04 113,-789.04 113,-783.04 113,-783.04 113,-771.04 113,-771.04 113,-765.04 119,-759.04 125,-759.04 125,-759.04 155,-759.04 155,-759.04 161,-759.04 167,-765.04 167,-771.04 167,-771.04 167,-783.04 167,-783.04 167,-789.04 161,-795.04 155,-795.04"/>
<text text-anchor="middle" x="140" y="-774.84" font-family="Courier,monospace" font-size="9.00">base()</text>
</g>
<!-- Node0x5658dea3a690 -->
<g id="node23" class="node">
<title>Node0x5658dea3a690</title>
<path fill="#f0f4ff" stroke="black" d="M155,-853.04C155,-853.04 125,-853.04 125,-853.04 119,-853.04 113,-847.04 113,-841.04 113,-841.04 113,-829.04 113,-829.04 113,-823.04 119,-817.04 125,-817.04 125,-817.04 155,-817.04 155,-817.04 161,-817.04 167,-823.04 167,-829.04 167,-829.04 167,-841.04 167,-841.04 167,-847.04 161,-853.04 155,-853.04"/>
<text text-anchor="middle" x="140" y="-832.84" font-family="Courier,monospace" font-size="9.00">base()</text>
</g>
<!-- Node0x5658deb81d70 -->
<g id="node24" class="node">
<title>Node0x5658deb81d70</title>
<path fill="#f0f4ff" stroke="black" d="M184,-911.04C184,-911.04 96,-911.04 96,-911.04 90,-911.04 84,-905.04 84,-899.04 84,-899.04 84,-887.04 84,-887.04 84,-881.04 90,-875.04 96,-875.04 96,-875.04 184,-875.04 184,-875.04 190,-875.04 196,-881.04 196,-887.04 196,-887.04 196,-899.04 196,-899.04 196,-905.04 190,-911.04 184,-911.04"/>
<text text-anchor="middle" x="140" y="-890.84" font-family="Courier,monospace" font-size="9.00">__normal_iterator()</text>
</g>
<!-- Node0x5658dea3b430 -->
<g id="node25" class="node">
<title>Node0x5658dea3b430</title>
<path fill="#f0f4ff" stroke="black" d="M155.5,-969.04C155.5,-969.04 124.5,-969.04 124.5,-969.04 118.5,-969.04 112.5,-963.04 112.5,-957.04 112.5,-957.04 112.5,-945.04 112.5,-945.04 112.5,-939.04 118.5,-933.04 124.5,-933.04 124.5,-933.04 155.5,-933.04 155.5,-933.04 161.5,-933.04 167.5,-939.04 167.5,-945.04 167.5,-945.04 167.5,-957.04 167.5,-957.04 167.5,-963.04 161.5,-969.04 155.5,-969.04"/>
<text text-anchor="middle" x="140" y="-948.84" font-family="Courier,monospace" font-size="9.00">append()</text>
</g>
<!-- Node0x5658dea3bea0 -->
<g id="node26" class="node">
<title>Node0x5658dea3bea0</title>
<path fill="#f0f4ff" stroke="black" d="M173.5,-1027.04C173.5,-1027.04 106.5,-1027.04 106.5,-1027.04 100.5,-1027.04 94.5,-1021.04 94.5,-1015.04 94.5,-1015.04 94.5,-1003.04 94.5,-1003.04 94.5,-997.04 100.5,-991.04 106.5,-991.04 106.5,-991.04 173.5,-991.04 173.5,-991.04 179.5,-991.04 185.5,-997.04 185.5,-1003.04 185.5,-1003.04 185.5,-1015.04 185.5,-1015.04 185.5,-1021.04 179.5,-1027.04 173.5,-1027.04"/>
<text text-anchor="middle" x="140" y="-1006.84" font-family="Courier,monospace" font-size="9.00">get_allocator()</text>
</g>
<!-- Node0x5658debadb20 -->
<g id="node27" class="node">
<title>Node0x5658debadb20</title>
<path fill="#f0f4ff" stroke="black" d="M155.5,-1085.04C155.5,-1085.04 124.5,-1085.04 124.5,-1085.04 118.5,-1085.04 112.5,-1079.04 112.5,-1073.04 112.5,-1073.04 112.5,-1061.04 112.5,-1061.04 112.5,-1055.04 118.5,-1049.04 124.5,-1049.04 124.5,-1049.04 155.5,-1049.04 155.5,-1049.04 161.5,-1049.04 167.5,-1055.04 167.5,-1061.04 167.5,-1061.04 167.5,-1073.04 167.5,-1073.04 167.5,-1079.04 161.5,-1085.04 155.5,-1085.04"/>
<text text-anchor="middle" x="140" y="-1064.84" font-family="Courier,monospace" font-size="9.00">append()</text>
</g>
<!-- Node0x5658deb953a0 -->
<g id="node28" class="node">
<title>Node0x5658deb953a0</title>
<path fill="#f0f4ff" stroke="black" d="M160.5,-1143.04C160.5,-1143.04 119.5,-1143.04 119.5,-1143.04 113.5,-1143.04 107.5,-1137.04 107.5,-1131.04 107.5,-1131.04 107.5,-1119.04 107.5,-1119.04 107.5,-1113.04 113.5,-1107.04 119.5,-1107.04 119.5,-1107.04 160.5,-1107.04 160.5,-1107.04 166.5,-1107.04 172.5,-1113.04 172.5,-1119.04 172.5,-1119.04 172.5,-1131.04 172.5,-1131.04 172.5,-1137.04 166.5,-1143.04 160.5,-1143.04"/>
<text text-anchor="middle" x="140" y="-1122.84" font-family="Courier,monospace" font-size="9.00">capacity()</text>
</g>
<!-- Node0x5658deb996f0 -->
<g id="node29" class="node">
<title>Node0x5658deb996f0</title>
<path fill="#f0f4ff" stroke="black" d="M155.5,-1201.04C155.5,-1201.04 124.5,-1201.04 124.5,-1201.04 118.5,-1201.04 112.5,-1195.04 112.5,-1189.04 112.5,-1189.04 112.5,-1177.04 112.5,-1177.04 112.5,-1171.04 118.5,-1165.04 124.5,-1165.04 124.5,-1165.04 155.5,-1165.04 155.5,-1165.04 161.5,-1165.04 167.5,-1171.04 167.5,-1177.04 167.5,-1177.04 167.5,-1189.04 167.5,-1189.04 167.5,-1195.04 161.5,-1201.04 155.5,-1201.04"/>
<text text-anchor="middle" x="140" y="-1180.84" font-family="Courier,monospace" font-size="9.00">append()</text>
</g>
</g>
</svg>
