<?xml version="1.0" encoding="UTF-8" standalone="no"?>
<!DOCTYPE svg PUBLIC "-//W3C//DTD SVG 1.1//EN"
 "http://www.w3.org/Graphics/SVG/1.1/DTD/svg11.dtd">
<!-- Generated by graphviz version 2.43.0 (0)
 -->
<!-- Title: Call graph: /home/h02332/po/research/call&#45;graph/analyzer/IccAnalyzerSignatures.ll Pages: 1 -->
<svg width="5678pt" height="360pt"
 viewBox="0.00 0.00 5678.00 360.00" xmlns="http://www.w3.org/2000/svg" xmlns:xlink="http://www.w3.org/1999/xlink">
<g id="graph0" class="graph" transform="scale(1 1) rotate(0) translate(4 356)">
<title>Call graph: /home/h02332/po/research/call&#45;graph/analyzer/IccAnalyzerSignatures.ll</title>
<polygon fill="white" stroke="transparent" points="-4,4 -4,-356 5674,-356 5674,4 -4,4"/>
<text text-anchor="middle" x="2835" y="-7.8" font-family="Times,serif" font-size="14.00">Call graph: /home/h02332/po/research/call&#45;graph/analyzer/IccAnalyzerSignatures.ll</text>
<!-- Node0x644d32391030 -->
<g id="node1" class="node">
<title>Node0x644d32391030</title>
<polygon fill="none" stroke="black" points="0,-242.5 0,-278.5 214,-278.5 214,-242.5 0,-242.5"/>
<text text-anchor="middle" x="107" y="-256.8" font-family="Times,serif" font-size="14.00">_Z17SignatureToFourCCjPc</text>
</g>
<!-- Node0x644d323921e0 -->
<g id="node2" class="node">
<title>Node0x644d323921e0</title>
<polygon fill="none" stroke="black" points="231.5,-242.5 231.5,-278.5 480.5,-278.5 480.5,-242.5 231.5,-242.5"/>
<text text-anchor="middle" x="356" y="-256.8" font-family="Times,serif" font-size="14.00">_Z24HasNonPrintableSignaturej</text>
</g>
<!-- Node0x644d32391180 -->
<g id="node3" class="node">
<title>Node0x644d32391180</title>
<polygon fill="none" stroke="black" points="1764,-315.5 1764,-351.5 2054,-351.5 2054,-315.5 1764,-315.5"/>
<text text-anchor="middle" x="1909" y="-329.8" font-family="Times,serif" font-size="14.00">_Z17AnalyzeSignaturesP11CIccProfile</text>
</g>
<!-- Node0x644d32391180&#45;&gt;Node0x644d32391030 -->
<g id="edge10" class="edge">
<title>Node0x644d32391180&#45;&gt;Node0x644d32391030</title>
<path fill="none" stroke="black" d="M1763.69,-330.12C1415.22,-324.06 538.29,-306.61 224.11,-279.12"/>
<polygon fill="black" stroke="black" points="224.35,-275.63 214.07,-278.22 223.72,-282.6 224.35,-275.63"/>
</g>
<!-- Node0x644d32391180&#45;&gt;Node0x644d323921e0 -->
<g id="edge7" class="edge">
<title>Node0x644d32391180&#45;&gt;Node0x644d323921e0</title>
<path fill="none" stroke="black" d="M1763.85,-331.49C1508.37,-328.72 961.58,-318.39 490.62,-279.09"/>
<polygon fill="black" stroke="black" points="490.82,-275.6 480.56,-278.25 490.23,-282.57 490.82,-275.6"/>
</g>
<!-- Node0x644d32323690 -->
<g id="node4" class="node">
<title>Node0x644d32323690</title>
<polygon fill="none" stroke="black" points="498.5,-242.5 498.5,-278.5 555.5,-278.5 555.5,-242.5 498.5,-242.5"/>
<text text-anchor="middle" x="527" y="-256.8" font-family="Times,serif" font-size="14.00">printf</text>
</g>
<!-- Node0x644d32391180&#45;&gt;Node0x644d32323690 -->
<g id="edge1" class="edge">
<title>Node0x644d32391180&#45;&gt;Node0x644d32323690</title>
<path fill="none" stroke="black" d="M1763.71,-330C1447.69,-324.11 714.81,-307.78 565.75,-278.62"/>
<polygon fill="black" stroke="black" points="566.19,-275.13 555.68,-276.4 564.69,-281.97 566.19,-275.13"/>
</g>
<!-- Node0x644d32322180 -->
<g id="node5" class="node">
<title>Node0x644d32322180</title>
<polygon fill="none" stroke="black" points="573.5,-242.5 573.5,-278.5 724.5,-278.5 724.5,-242.5 573.5,-242.5"/>
<text text-anchor="middle" x="649" y="-256.8" font-family="Times,serif" font-size="14.00">_ZN8CIccInfoC1Ev</text>
</g>
<!-- Node0x644d32391180&#45;&gt;Node0x644d32322180 -->
<g id="edge2" class="edge">
<title>Node0x644d32391180&#45;&gt;Node0x644d32322180</title>
<path fill="none" stroke="black" d="M1763.67,-333.22C1543.04,-332.68 1110.47,-325.2 734.88,-278.98"/>
<polygon fill="black" stroke="black" points="735.26,-275.5 724.9,-277.74 734.39,-282.45 735.26,-275.5"/>
</g>
<!-- Node0x644d32322bc0 -->
<g id="node6" class="node">
<title>Node0x644d32322bc0</title>
<polygon fill="none" stroke="black" points="743,-242.5 743,-278.5 805,-278.5 805,-242.5 743,-242.5"/>
<text text-anchor="middle" x="774" y="-256.8" font-family="Times,serif" font-size="14.00">fprintf</text>
</g>
<!-- Node0x644d32391180&#45;&gt;Node0x644d32322bc0 -->
<g id="edge3" class="edge">
<title>Node0x644d32391180&#45;&gt;Node0x644d32322bc0</title>
<path fill="none" stroke="black" d="M1763.79,-331.91C1512.98,-329.83 1007.79,-320.68 814.85,-278.6"/>
<polygon fill="black" stroke="black" points="815.6,-275.18 805.07,-276.37 814.05,-282 815.6,-275.18"/>
</g>
<!-- Node0x644d32321f80 -->
<g id="node7" class="node">
<title>Node0x644d32321f80</title>
<polygon fill="none" stroke="black" points="823,-242.5 823,-278.5 975,-278.5 975,-242.5 823,-242.5"/>
<text text-anchor="middle" x="899" y="-256.8" font-family="Times,serif" font-size="14.00">_ZN8CIccInfoD1Ev</text>
</g>
<!-- Node0x644d32391180&#45;&gt;Node0x644d32321f80 -->
<g id="edge4" class="edge">
<title>Node0x644d32391180&#45;&gt;Node0x644d32321f80</title>
<path fill="none" stroke="black" d="M1763.79,-330.61C1583.26,-326.79 1265.68,-315.23 985.32,-279.06"/>
<polygon fill="black" stroke="black" points="985.74,-275.59 975.37,-277.77 984.83,-282.53 985.74,-275.59"/>
</g>
<!-- Node0x644d32391e30 -->
<g id="node8" class="node">
<title>Node0x644d32391e30</title>
<polygon fill="none" stroke="black" points="993,-242.5 993,-278.5 1047,-278.5 1047,-242.5 993,-242.5"/>
<text text-anchor="middle" x="1020" y="-256.8" font-family="Times,serif" font-size="14.00">fputc</text>
</g>
<!-- Node0x644d32391180&#45;&gt;Node0x644d32391e30 -->
<g id="edge5" class="edge">
<title>Node0x644d32391180&#45;&gt;Node0x644d32391e30</title>
<path fill="none" stroke="black" d="M1763.74,-329.28C1557.44,-323.69 1190.26,-309.7 1061,-279 1059.73,-278.7 1058.45,-278.36 1057.16,-277.99"/>
<polygon fill="black" stroke="black" points="1057.95,-274.56 1047.35,-274.68 1055.71,-281.2 1057.95,-274.56"/>
</g>
<!-- Node0x644d3239ef60 -->
<g id="node9" class="node">
<title>Node0x644d3239ef60</title>
<polygon fill="none" stroke="black" points="2390.5,-242.5 2390.5,-278.5 2717.5,-278.5 2717.5,-242.5 2390.5,-242.5"/>
<text text-anchor="middle" x="2554" y="-256.8" font-family="Times,serif" font-size="14.00">_ZNSt14_List_iteratorI11IccTagEntryEppEi</text>
</g>
<!-- Node0x644d32391180&#45;&gt;Node0x644d3239ef60 -->
<g id="edge6" class="edge">
<title>Node0x644d32391180&#45;&gt;Node0x644d3239ef60</title>
<path fill="none" stroke="black" d="M2054.09,-315.99C2057.09,-315.66 2060.06,-315.33 2063,-315 2170.52,-303.03 2291.31,-289.87 2386.18,-279.59"/>
<polygon fill="black" stroke="black" points="2386.59,-283.07 2396.15,-278.51 2385.83,-276.11 2386.59,-283.07"/>
</g>
<!-- Node0x644d32325020 -->
<g id="node10" class="node">
<title>Node0x644d32325020</title>
<polygon fill="none" stroke="black" points="1103,-242.5 1103,-278.5 1555,-278.5 1555,-242.5 1103,-242.5"/>
<text text-anchor="middle" x="1329" y="-256.8" font-family="Times,serif" font-size="14.00">_ZN8CIccInfo17GetTagTypeSigNameE18icTagTypeSignature</text>
</g>
<!-- Node0x644d32391180&#45;&gt;Node0x644d32325020 -->
<g id="edge8" class="edge">
<title>Node0x644d32391180&#45;&gt;Node0x644d32325020</title>
<path fill="none" stroke="black" d="M1770.08,-315.49C1681.97,-304.71 1568.06,-290.76 1478.06,-279.75"/>
<polygon fill="black" stroke="black" points="1478.4,-276.26 1468.05,-278.52 1477.55,-283.21 1478.4,-276.26"/>
</g>
<!-- Node0x644d32324ba0 -->
<g id="node11" class="node">
<title>Node0x644d32324ba0</title>
<polygon fill="none" stroke="black" points="1573.5,-242.5 1573.5,-278.5 1956.5,-278.5 1956.5,-242.5 1573.5,-242.5"/>
<text text-anchor="middle" x="1765" y="-256.8" font-family="Times,serif" font-size="14.00">_ZN8CIccInfo13GetTagSigNameE14icTagSignature</text>
</g>
<!-- Node0x644d32391180&#45;&gt;Node0x644d32324ba0 -->
<g id="edge9" class="edge">
<title>Node0x644d32391180&#45;&gt;Node0x644d32324ba0</title>
<path fill="none" stroke="black" d="M1874.51,-315.49C1854.79,-305.77 1829.87,-293.49 1808.79,-283.09"/>
<polygon fill="black" stroke="black" points="1810.23,-279.9 1799.71,-278.61 1807.13,-286.18 1810.23,-279.9"/>
</g>
<!-- Node0x644d3239e7c0 -->
<g id="node12" class="node">
<title>Node0x644d3239e7c0</title>
<polygon fill="none" stroke="black" points="1974,-242.5 1974,-278.5 2132,-278.5 2132,-242.5 1974,-242.5"/>
<text text-anchor="middle" x="2053" y="-256.8" font-family="Times,serif" font-size="14.00">llvm.memset.p0.i64</text>
</g>
<!-- Node0x644d32391180&#45;&gt;Node0x644d3239e7c0 -->
<g id="edge11" class="edge">
<title>Node0x644d32391180&#45;&gt;Node0x644d3239e7c0</title>
<path fill="none" stroke="black" d="M1943.49,-315.49C1963.21,-305.77 1988.13,-293.49 2009.21,-283.09"/>
<polygon fill="black" stroke="black" points="2010.87,-286.18 2018.29,-278.61 2007.77,-279.9 2010.87,-286.18"/>
</g>
<!-- Node0x644d323246a0 -->
<g id="node13" class="node">
<title>Node0x644d323246a0</title>
<polygon fill="none" stroke="black" points="2150,-242.5 2150,-278.5 2372,-278.5 2372,-242.5 2150,-242.5"/>
<text text-anchor="middle" x="2261" y="-256.8" font-family="Times,serif" font-size="14.00">_ZN11CIccProfile7FindTagEj</text>
</g>
<!-- Node0x644d32391180&#45;&gt;Node0x644d323246a0 -->
<g id="edge12" class="edge">
<title>Node0x644d32391180&#45;&gt;Node0x644d323246a0</title>
<path fill="none" stroke="black" d="M1993.31,-315.49C2045.49,-304.97 2112.58,-291.44 2166.54,-280.55"/>
<polygon fill="black" stroke="black" points="2167.35,-283.96 2176.46,-278.55 2165.97,-277.1 2167.35,-283.96"/>
</g>
<!-- Node0x644d32324960 -->
<g id="node14" class="node">
<title>Node0x644d32324960</title>
<polygon fill="none" stroke="black" points="3116.5,-242.5 3116.5,-278.5 3457.5,-278.5 3457.5,-242.5 3116.5,-242.5"/>
<text text-anchor="middle" x="3287" y="-256.8" font-family="Times,serif" font-size="14.00">_ZNKSt14_List_iteratorI11IccTagEntryEdeEv</text>
</g>
<!-- Node0x644d32391180&#45;&gt;Node0x644d32324960 -->
<g id="edge13" class="edge">
<title>Node0x644d32391180&#45;&gt;Node0x644d32324960</title>
<path fill="none" stroke="black" d="M2054.06,-315.69C2057.07,-315.45 2060.05,-315.22 2063,-315 2522.73,-281.01 2642.04,-309.07 3106.49,-279"/>
<polygon fill="black" stroke="black" points="3106.73,-282.5 3116.48,-278.35 3106.27,-275.51 3106.73,-282.5"/>
</g>
<!-- Node0x644d3239e080 -->
<g id="node15" class="node">
<title>Node0x644d3239e080</title>
<polygon fill="none" stroke="black" points="2736,-242.5 2736,-278.5 3098,-278.5 3098,-242.5 2736,-242.5"/>
<text text-anchor="middle" x="2917" y="-256.8" font-family="Times,serif" font-size="14.00">_ZStneRKSt14_List_iteratorI11IccTagEntryES3_</text>
</g>
<!-- Node0x644d32391180&#45;&gt;Node0x644d3239e080 -->
<g id="edge14" class="edge">
<title>Node0x644d32391180&#45;&gt;Node0x644d3239e080</title>
<path fill="none" stroke="black" d="M2054.07,-315.77C2057.07,-315.51 2060.05,-315.25 2063,-315 2353.77,-290.61 2429.98,-300.24 2725.64,-279.01"/>
<polygon fill="black" stroke="black" points="2726.08,-282.48 2735.8,-278.27 2725.57,-275.5 2726.08,-282.48"/>
</g>
<!-- Node0x644d3239e1f0 -->
<g id="node16" class="node">
<title>Node0x644d3239e1f0</title>
<polygon fill="none" stroke="black" points="3476,-242.5 3476,-278.5 3866,-278.5 3866,-242.5 3476,-242.5"/>
<text text-anchor="middle" x="3671" y="-256.8" font-family="Times,serif" font-size="14.00">_ZNSt7__cxx114listI11IccTagEntrySaIS1_EE3endEv</text>
</g>
<!-- Node0x644d32391180&#45;&gt;Node0x644d3239e1f0 -->
<g id="edge15" class="edge">
<title>Node0x644d32391180&#45;&gt;Node0x644d3239e1f0</title>
<path fill="none" stroke="black" d="M2054.06,-315.66C2057.06,-315.43 2060.05,-315.21 2063,-315 2681.92,-271.98 2841.49,-313.1 3465.82,-278.98"/>
<polygon fill="black" stroke="black" points="3466.19,-282.47 3475.98,-278.42 3465.8,-275.48 3466.19,-282.47"/>
</g>
<!-- Node0x644d32324240 -->
<g id="node17" class="node">
<title>Node0x644d32324240</title>
<polygon fill="none" stroke="black" points="1724,-169.5 1724,-205.5 1906,-205.5 1906,-169.5 1724,-169.5"/>
<text text-anchor="middle" x="1815" y="-183.8" font-family="Times,serif" font-size="14.00">llvm.memcpy.p0.p0.i64</text>
</g>
<!-- Node0x644d32391180&#45;&gt;Node0x644d32324240 -->
<g id="edge16" class="edge">
<title>Node0x644d32391180&#45;&gt;Node0x644d32324240</title>
<path fill="none" stroke="black" d="M1763.8,-333.48C1541.75,-333.45 1138.68,-326.71 1094,-279 1082.76,-267 1082.81,-254.05 1094,-242 1135.25,-197.57 1524.87,-189.73 1713.56,-188.56"/>
<polygon fill="black" stroke="black" points="1713.78,-192.06 1723.76,-188.5 1713.74,-185.06 1713.78,-192.06"/>
</g>
<!-- Node0x644d3239df00 -->
<g id="node18" class="node">
<title>Node0x644d3239df00</title>
<polygon fill="none" stroke="black" points="3884,-242.5 3884,-278.5 4288,-278.5 4288,-242.5 3884,-242.5"/>
<text text-anchor="middle" x="4086" y="-256.8" font-family="Times,serif" font-size="14.00">_ZNSt7__cxx114listI11IccTagEntrySaIS1_EE5beginEv</text>
</g>
<!-- Node0x644d32391180&#45;&gt;Node0x644d3239df00 -->
<g id="edge17" class="edge">
<title>Node0x644d32391180&#45;&gt;Node0x644d3239df00</title>
<path fill="none" stroke="black" d="M2054.06,-315.63C2057.06,-315.41 2060.05,-315.2 2063,-315 2863.38,-261.69 3068.87,-319.82 3874.05,-279.02"/>
<polygon fill="black" stroke="black" points="3874.34,-282.51 3884.15,-278.51 3873.99,-275.52 3874.34,-282.51"/>
</g>
<!-- Node0x644d32322510 -->
<g id="node19" class="node">
<title>Node0x644d32322510</title>
<polygon fill="none" stroke="black" points="4306,-242.5 4306,-278.5 4638,-278.5 4638,-242.5 4306,-242.5"/>
<text text-anchor="middle" x="4472" y="-256.8" font-family="Times,serif" font-size="14.00">_ZNSt14_List_iteratorI11IccTagEntryEC2Ev</text>
</g>
<!-- Node0x644d32391180&#45;&gt;Node0x644d32322510 -->
<g id="edge18" class="edge">
<title>Node0x644d32391180&#45;&gt;Node0x644d32322510</title>
<path fill="none" stroke="black" d="M2054.06,-315.62C2057.06,-315.4 2060.05,-315.19 2063,-315 3050.56,-251.08 3303.92,-335.87 4295.53,-279.05"/>
<polygon fill="black" stroke="black" points="4295.98,-282.53 4305.76,-278.46 4295.57,-275.54 4295.98,-282.53"/>
</g>
<!-- Node0x644d3239d040 -->
<g id="node20" class="node">
<title>Node0x644d3239d040</title>
<polygon fill="none" stroke="black" points="4656,-242.5 4656,-278.5 5158,-278.5 5158,-242.5 4656,-242.5"/>
<text text-anchor="middle" x="4907" y="-256.8" font-family="Times,serif" font-size="14.00">_ZN8CIccInfo22GetProfileClassSigNameE23icProfileClassSignature</text>
</g>
<!-- Node0x644d32391180&#45;&gt;Node0x644d3239d040 -->
<g id="edge19" class="edge">
<title>Node0x644d32391180&#45;&gt;Node0x644d3239d040</title>
<path fill="none" stroke="black" d="M2054.05,-315.61C2057.06,-315.39 2060.05,-315.19 2063,-315 3209.24,-242.07 3499.39,-325.58 4647,-279 4647.48,-278.98 4647.96,-278.96 4648.44,-278.94"/>
<polygon fill="black" stroke="black" points="4648.77,-282.43 4658.62,-278.51 4648.47,-275.44 4648.77,-282.43"/>
</g>
<!-- Node0x644d3239bb20 -->
<g id="node21" class="node">
<title>Node0x644d3239bb20</title>
<polygon fill="none" stroke="black" points="5176,-242.5 5176,-278.5 5670,-278.5 5670,-242.5 5176,-242.5"/>
<text text-anchor="middle" x="5423" y="-256.8" font-family="Times,serif" font-size="14.00">_ZN8CIccInfo20GetColorSpaceSigNameE21icColorSpaceSignature</text>
</g>
<!-- Node0x644d32391180&#45;&gt;Node0x644d3239bb20 -->
<g id="edge20" class="edge">
<title>Node0x644d32391180&#45;&gt;Node0x644d3239bb20</title>
<path fill="none" stroke="black" d="M2054.05,-315.6C2057.06,-315.39 2060.05,-315.18 2063,-315 3439.97,-229 3788.45,-334.07 5167,-279 5167.49,-278.98 5167.97,-278.96 5168.46,-278.94"/>
<polygon fill="black" stroke="black" points="5168.93,-282.42 5178.78,-278.5 5168.64,-275.43 5168.93,-282.42"/>
</g>
<!-- Node0x644d3239ef60&#45;&gt;Node0x644d32324240 -->
<g id="edge25" class="edge">
<title>Node0x644d3239ef60&#45;&gt;Node0x644d32324240</title>
<path fill="none" stroke="black" d="M2390.09,-242.89C2387.04,-242.59 2384,-242.29 2381,-242 2218.42,-226.09 2029.49,-208.39 1916.23,-197.87"/>
<polygon fill="black" stroke="black" points="1916.47,-194.37 1906.19,-196.93 1915.82,-201.34 1916.47,-194.37"/>
</g>
<!-- Node0x644d32325ea0 -->
<g id="node24" class="node">
<title>Node0x644d32325ea0</title>
<polygon fill="none" stroke="black" points="2895,-169.5 2895,-205.5 3267,-205.5 3267,-169.5 2895,-169.5"/>
<text text-anchor="middle" x="3081" y="-183.8" font-family="Times,serif" font-size="14.00">_ZNSt10_List_nodeI11IccTagEntryE9_M_valptrEv</text>
</g>
<!-- Node0x644d32324960&#45;&gt;Node0x644d32325ea0 -->
<g id="edge23" class="edge">
<title>Node0x644d32324960&#45;&gt;Node0x644d32325ea0</title>
<path fill="none" stroke="black" d="M3237.66,-242.49C3208.44,-232.42 3171.24,-219.6 3140.42,-208.98"/>
<polygon fill="black" stroke="black" points="3141.25,-205.56 3130.65,-205.61 3138.97,-212.18 3141.25,-205.56"/>
</g>
<!-- Node0x644d323264d0 -->
<g id="node25" class="node">
<title>Node0x644d323264d0</title>
<polygon fill="none" stroke="black" points="3300.5,-169.5 3300.5,-205.5 3477.5,-205.5 3477.5,-169.5 3300.5,-169.5"/>
<text text-anchor="middle" x="3389" y="-183.8" font-family="Times,serif" font-size="14.00">__clang_call_terminate</text>
</g>
<!-- Node0x644d32324960&#45;&gt;Node0x644d323264d0 -->
<g id="edge24" class="edge">
<title>Node0x644d32324960&#45;&gt;Node0x644d323264d0</title>
<path fill="none" stroke="black" d="M3311.43,-242.49C3324.83,-233.17 3341.63,-221.47 3356.16,-211.36"/>
<polygon fill="black" stroke="black" points="3358.21,-214.2 3364.41,-205.61 3354.21,-208.45 3358.21,-214.2"/>
</g>
<!-- Node0x644d3239ed10 -->
<g id="node23" class="node">
<title>Node0x644d3239ed10</title>
<polygon fill="none" stroke="black" points="3700,-169.5 3700,-205.5 4268,-205.5 4268,-169.5 3700,-169.5"/>
<text text-anchor="middle" x="3984" y="-183.8" font-family="Times,serif" font-size="14.00">_ZNSt14_List_iteratorI11IccTagEntryEC2EPNSt8__detail15_List_node_baseE</text>
</g>
<!-- Node0x644d3239e1f0&#45;&gt;Node0x644d3239ed10 -->
<g id="edge22" class="edge">
<title>Node0x644d3239e1f0&#45;&gt;Node0x644d3239ed10</title>
<path fill="none" stroke="black" d="M3745.97,-242.49C3791.98,-232.06 3851.04,-218.66 3898.81,-207.82"/>
<polygon fill="black" stroke="black" points="3899.85,-211.18 3908.83,-205.55 3898.3,-204.35 3899.85,-211.18"/>
</g>
<!-- Node0x644d3239df00&#45;&gt;Node0x644d3239ed10 -->
<g id="edge21" class="edge">
<title>Node0x644d3239df00&#45;&gt;Node0x644d3239ed10</title>
<path fill="none" stroke="black" d="M4061.57,-242.49C4048.17,-233.17 4031.37,-221.47 4016.84,-211.36"/>
<polygon fill="black" stroke="black" points="4018.79,-208.45 4008.59,-205.61 4014.79,-214.2 4018.79,-208.45"/>
</g>
<!-- Node0x644d32324d60 -->
<g id="node22" class="node">
<title>Node0x644d32324d60</title>
<polygon fill="none" stroke="black" points="2072.5,-315.5 2072.5,-351.5 2239.5,-351.5 2239.5,-315.5 2072.5,-315.5"/>
<text text-anchor="middle" x="2156" y="-329.8" font-family="Times,serif" font-size="14.00">__gxx_personality_v0</text>
</g>
<!-- Node0x644d3239f820 -->
<g id="node26" class="node">
<title>Node0x644d3239f820</title>
<polygon fill="none" stroke="black" points="2830,-96.5 2830,-132.5 3302,-132.5 3302,-96.5 2830,-96.5"/>
<text text-anchor="middle" x="3066" y="-110.8" font-family="Times,serif" font-size="14.00">_ZN9__gnu_cxx16__aligned_membufI11IccTagEntryE6_M_ptrEv</text>
</g>
<!-- Node0x644d32325ea0&#45;&gt;Node0x644d3239f820 -->
<g id="edge26" class="edge">
<title>Node0x644d32325ea0&#45;&gt;Node0x644d3239f820</title>
<path fill="none" stroke="black" d="M3077.37,-169.31C3075.67,-161.29 3073.62,-151.55 3071.72,-142.57"/>
<polygon fill="black" stroke="black" points="3075.09,-141.59 3069.6,-132.53 3068.24,-143.04 3075.09,-141.59"/>
</g>
<!-- Node0x644d323260f0 -->
<g id="node27" class="node">
<title>Node0x644d323260f0</title>
<polygon fill="none" stroke="black" points="3476,-96.5 3476,-132.5 3622,-132.5 3622,-96.5 3476,-96.5"/>
<text text-anchor="middle" x="3549" y="-110.8" font-family="Times,serif" font-size="14.00">__cxa_begin_catch</text>
</g>
<!-- Node0x644d323264d0&#45;&gt;Node0x644d323260f0 -->
<g id="edge27" class="edge">
<title>Node0x644d323264d0&#45;&gt;Node0x644d323260f0</title>
<path fill="none" stroke="black" d="M3427.32,-169.49C3449.52,-159.64 3477.66,-147.16 3501.29,-136.67"/>
<polygon fill="black" stroke="black" points="3502.71,-139.87 3510.43,-132.61 3499.87,-133.47 3502.71,-139.87"/>
</g>
<!-- Node0x644d323251e0 -->
<g id="node28" class="node">
<title>Node0x644d323251e0</title>
<polygon fill="none" stroke="black" points="3320.5,-96.5 3320.5,-132.5 3457.5,-132.5 3457.5,-96.5 3320.5,-96.5"/>
<text text-anchor="middle" x="3389" y="-110.8" font-family="Times,serif" font-size="14.00">_ZSt9terminatev</text>
</g>
<!-- Node0x644d323264d0&#45;&gt;Node0x644d323251e0 -->
<g id="edge28" class="edge">
<title>Node0x644d323264d0&#45;&gt;Node0x644d323251e0</title>
<path fill="none" stroke="black" d="M3389,-169.31C3389,-161.29 3389,-151.55 3389,-142.57"/>
<polygon fill="black" stroke="black" points="3392.5,-142.53 3389,-132.53 3385.5,-142.53 3392.5,-142.53"/>
</g>
<!-- Node0x644d32326680 -->
<g id="node29" class="node">
<title>Node0x644d32326680</title>
<polygon fill="none" stroke="black" points="2824.5,-23.5 2824.5,-59.5 3307.5,-59.5 3307.5,-23.5 2824.5,-23.5"/>
<text text-anchor="middle" x="3066" y="-37.8" font-family="Times,serif" font-size="14.00">_ZN9__gnu_cxx16__aligned_membufI11IccTagEntryE7_M_addrEv</text>
</g>
<!-- Node0x644d3239f820&#45;&gt;Node0x644d32326680 -->
<g id="edge29" class="edge">
<title>Node0x644d3239f820&#45;&gt;Node0x644d32326680</title>
<path fill="none" stroke="black" d="M3066,-96.31C3066,-88.29 3066,-78.55 3066,-69.57"/>
<polygon fill="black" stroke="black" points="3069.5,-69.53 3066,-59.53 3062.5,-69.53 3069.5,-69.53"/>
</g>
</g>
</svg>
