<?xml version="1.0" encoding="UTF-8" standalone="no"?>
<!DOCTYPE svg PUBLIC "-//W3C//DTD SVG 1.1//EN"
 "http://www.w3.org/Graphics/SVG/1.1/DTD/svg11.dtd">
<!-- Generated by graphviz version 2.43.0 (0)
 -->
<!-- Title: Call graph: /home/h02332/po/research/call&#45;graph/analyzer/IccAnalyzerValidation.ll Pages: 1 -->
<svg width="8770pt" height="433pt"
 viewBox="0.00 0.00 8770.31 433.00" xmlns="http://www.w3.org/2000/svg" xmlns:xlink="http://www.w3.org/1999/xlink">
<g id="graph0" class="graph" transform="scale(1 1) rotate(0) translate(4 429)">
<title>Call graph: /home/h02332/po/research/call&#45;graph/analyzer/IccAnalyzerValidation.ll</title>
<polygon fill="white" stroke="transparent" points="-4,4 -4,-429 8766.31,-429 8766.31,4 -4,4"/>
<text text-anchor="middle" x="4381.15" y="-7.8" font-family="Times,serif" font-size="14.00">Call graph: /home/h02332/po/research/call&#45;graph/analyzer/IccAnalyzerValidation.ll</text>
<!-- Node0x5594b2ce5fc0 -->
<g id="node1" class="node">
<title>Node0x5594b2ce5fc0</title>
<polygon fill="none" stroke="black" points="1331.5,-388.5 1331.5,-424.5 1540.5,-424.5 1540.5,-388.5 1331.5,-388.5"/>
<text text-anchor="middle" x="1436" y="-402.8" font-family="Times,serif" font-size="14.00">_Z16RoundTripAnalyzePKc</text>
</g>
<!-- Node0x5594b2ce6050 -->
<g id="node2" class="node">
<title>Node0x5594b2ce6050</title>
<polygon fill="none" stroke="black" points="1589.5,-315.5 1589.5,-351.5 1646.5,-351.5 1646.5,-315.5 1589.5,-315.5"/>
<text text-anchor="middle" x="1618" y="-329.8" font-family="Times,serif" font-size="14.00">printf</text>
</g>
<!-- Node0x5594b2ce5fc0&#45;&gt;Node0x5594b2ce6050 -->
<g id="edge1" class="edge">
<title>Node0x5594b2ce5fc0&#45;&gt;Node0x5594b2ce6050</title>
<path fill="none" stroke="black" d="M1484.69,-388.45C1512.75,-378.36 1548.6,-365.04 1580,-352 1580.1,-351.96 1580.19,-351.92 1580.29,-351.88"/>
<polygon fill="black" stroke="black" points="1581.67,-355.09 1589.47,-347.92 1578.9,-348.67 1581.67,-355.09"/>
</g>
<!-- Node0x5594b2ced6d0 -->
<g id="node3" class="node">
<title>Node0x5594b2ced6d0</title>
<polygon fill="none" stroke="black" points="1665,-315.5 1665,-351.5 1841,-351.5 1841,-315.5 1665,-315.5"/>
<text text-anchor="middle" x="1753" y="-329.8" font-family="Times,serif" font-size="14.00">_ZN10CIccFileIOD1Ev</text>
</g>
<!-- Node0x5594b2ce5fc0&#45;&gt;Node0x5594b2ced6d0 -->
<g id="edge2" class="edge">
<title>Node0x5594b2ce5fc0&#45;&gt;Node0x5594b2ced6d0</title>
<path fill="none" stroke="black" d="M1511.93,-388.49C1558.63,-378.03 1618.59,-364.61 1667.03,-353.76"/>
<polygon fill="black" stroke="black" points="1667.87,-357.15 1676.87,-351.55 1666.34,-350.32 1667.87,-357.15"/>
</g>
<!-- Node0x5594b2cdbea0 -->
<g id="node4" class="node">
<title>Node0x5594b2cdbea0</title>
<polygon fill="none" stroke="black" points="1859,-315.5 1859,-351.5 2035,-351.5 2035,-315.5 1859,-315.5"/>
<text text-anchor="middle" x="1947" y="-329.8" font-family="Times,serif" font-size="14.00">_ZN10CIccFileIOC1Ev</text>
</g>
<!-- Node0x5594b2ce5fc0&#45;&gt;Node0x5594b2cdbea0 -->
<g id="edge3" class="edge">
<title>Node0x5594b2ce5fc0&#45;&gt;Node0x5594b2cdbea0</title>
<path fill="none" stroke="black" d="M1540.85,-393.42C1622.21,-383.7 1738.05,-369.12 1848.74,-352.16"/>
<polygon fill="black" stroke="black" points="1849.39,-355.6 1858.74,-350.62 1848.33,-348.68 1849.39,-355.6"/>
</g>
<!-- Node0x5594b2cd0980 -->
<g id="node5" class="node">
<title>Node0x5594b2cd0980</title>
<polygon fill="none" stroke="black" points="2053,-315.5 2053,-351.5 2301,-351.5 2301,-315.5 2053,-315.5"/>
<text text-anchor="middle" x="2177" y="-329.8" font-family="Times,serif" font-size="14.00">_ZN10CIccFileIO4OpenEPKcS1_</text>
</g>
<!-- Node0x5594b2ce5fc0&#45;&gt;Node0x5594b2cd0980 -->
<g id="edge4" class="edge">
<title>Node0x5594b2ce5fc0&#45;&gt;Node0x5594b2cd0980</title>
<path fill="none" stroke="black" d="M1540.76,-397.66C1659.84,-388.43 1860.3,-371.95 2042.72,-352.12"/>
<polygon fill="black" stroke="black" points="2043.21,-355.58 2052.77,-351.02 2042.45,-348.62 2043.21,-355.58"/>
</g>
<!-- Node0x5594b2c2b530 -->
<g id="node6" class="node">
<title>Node0x5594b2c2b530</title>
<polygon fill="none" stroke="black" points="2319.5,-315.5 2319.5,-351.5 2504.5,-351.5 2504.5,-315.5 2319.5,-315.5"/>
<text text-anchor="middle" x="2412" y="-329.8" font-family="Times,serif" font-size="14.00">_ZnwmRKSt9nothrow_t</text>
</g>
<!-- Node0x5594b2ce5fc0&#45;&gt;Node0x5594b2c2b530 -->
<g id="edge5" class="edge">
<title>Node0x5594b2ce5fc0&#45;&gt;Node0x5594b2c2b530</title>
<path fill="none" stroke="black" d="M1540.59,-402.77C1702.96,-397.72 2025.61,-384.43 2309.42,-351.98"/>
<polygon fill="black" stroke="black" points="2309.96,-355.44 2319.5,-350.82 2309.16,-348.49 2309.96,-355.44"/>
</g>
<!-- Node0x5594b2c2b240 -->
<g id="node7" class="node">
<title>Node0x5594b2c2b240</title>
<polygon fill="none" stroke="black" points="336.5,-315.5 336.5,-351.5 515.5,-351.5 515.5,-315.5 336.5,-315.5"/>
<text text-anchor="middle" x="426" y="-329.8" font-family="Times,serif" font-size="14.00">_ZN11CIccProfileC1Ev</text>
</g>
<!-- Node0x5594b2ce5fc0&#45;&gt;Node0x5594b2c2b240 -->
<g id="edge6" class="edge">
<title>Node0x5594b2ce5fc0&#45;&gt;Node0x5594b2c2b240</title>
<path fill="none" stroke="black" d="M1331.48,-403.31C1163.66,-398.92 823.65,-386.42 525.65,-351.99"/>
<polygon fill="black" stroke="black" points="525.85,-348.48 515.51,-350.8 525.04,-355.44 525.85,-348.48"/>
</g>
<!-- Node0x5594b2cec960 -->
<g id="node8" class="node">
<title>Node0x5594b2cec960</title>
<polygon fill="none" stroke="black" points="534,-315.5 534,-351.5 860,-351.5 860,-315.5 534,-315.5"/>
<text text-anchor="middle" x="697" y="-329.8" font-family="Times,serif" font-size="14.00">_ZL19HasRoundTripSupportP11CIccProfile</text>
</g>
<!-- Node0x5594b2ce5fc0&#45;&gt;Node0x5594b2cec960 -->
<g id="edge7" class="edge">
<title>Node0x5594b2ce5fc0&#45;&gt;Node0x5594b2cec960</title>
<path fill="none" stroke="black" d="M1331.48,-395.87C1219.91,-385.54 1037.67,-368.5 870.39,-352.13"/>
<polygon fill="black" stroke="black" points="870.71,-348.65 860.41,-351.16 870.02,-355.61 870.71,-348.65"/>
</g>
<!-- Node0x5594b2c2aaa0 -->
<g id="node9" class="node">
<title>Node0x5594b2c2aaa0</title>
<polygon fill="none" stroke="black" points="878,-315.5 878,-351.5 1082,-351.5 1082,-315.5 878,-315.5"/>
<text text-anchor="middle" x="980" y="-329.8" font-family="Times,serif" font-size="14.00">_ZN10CIccFileIO5CloseEv</text>
</g>
<!-- Node0x5594b2ce5fc0&#45;&gt;Node0x5594b2c2aaa0 -->
<g id="edge8" class="edge">
<title>Node0x5594b2ce5fc0&#45;&gt;Node0x5594b2c2aaa0</title>
<path fill="none" stroke="black" d="M1331.44,-389.36C1265.56,-379.17 1178.44,-365.66 1092.18,-352.18"/>
<polygon fill="black" stroke="black" points="1092.64,-348.71 1082.21,-350.62 1091.55,-355.63 1092.64,-348.71"/>
</g>
<!-- Node0x5594b2c2b3a0 -->
<g id="node10" class="node">
<title>Node0x5594b2c2b3a0</title>
<polygon fill="none" stroke="black" points="1100,-315.5 1100,-351.5 1282,-351.5 1282,-315.5 1100,-315.5"/>
<text text-anchor="middle" x="1191" y="-329.8" font-family="Times,serif" font-size="14.00">_ZdlPvRKSt9nothrow_t</text>
</g>
<!-- Node0x5594b2ce5fc0&#45;&gt;Node0x5594b2c2b3a0 -->
<g id="edge9" class="edge">
<title>Node0x5594b2ce5fc0&#45;&gt;Node0x5594b2c2b3a0</title>
<path fill="none" stroke="black" d="M1377.32,-388.49C1341.97,-378.25 1296.79,-365.16 1259.77,-354.43"/>
<polygon fill="black" stroke="black" points="1260.63,-351.04 1250.05,-351.61 1258.68,-357.76 1260.63,-351.04"/>
</g>
<!-- Node0x5594b2ced550 -->
<g id="node11" class="node">
<title>Node0x5594b2ced550</title>
<polygon fill="none" stroke="black" points="1300.5,-315.5 1300.5,-351.5 1571.5,-351.5 1571.5,-315.5 1300.5,-315.5"/>
<text text-anchor="middle" x="1436" y="-329.8" font-family="Times,serif" font-size="14.00">_ZN11CIccProfile4ReadEP6CIccIOb</text>
</g>
<!-- Node0x5594b2ce5fc0&#45;&gt;Node0x5594b2ced550 -->
<g id="edge10" class="edge">
<title>Node0x5594b2ce5fc0&#45;&gt;Node0x5594b2ced550</title>
<path fill="none" stroke="black" d="M1436,-388.31C1436,-380.29 1436,-370.55 1436,-361.57"/>
<polygon fill="black" stroke="black" points="1439.5,-361.53 1436,-351.53 1432.5,-361.53 1439.5,-361.53"/>
</g>
<!-- Node0x5594b2c2dda0 -->
<g id="node12" class="node">
<title>Node0x5594b2c2dda0</title>
<polygon fill="none" stroke="black" points="0,-242.5 0,-278.5 434,-278.5 434,-242.5 0,-242.5"/>
<text text-anchor="middle" x="217" y="-256.8" font-family="Times,serif" font-size="14.00">_ZZ16RoundTripAnalyzePKcENK3$_0clE14icTagSignature</text>
</g>
<!-- Node0x5594b2ce5fc0&#45;&gt;Node0x5594b2c2dda0 -->
<g id="edge11" class="edge">
<title>Node0x5594b2ce5fc0&#45;&gt;Node0x5594b2c2dda0</title>
<path fill="none" stroke="black" d="M1331.05,-404.19C1072.47,-400.43 418.99,-387.5 327,-352 291.25,-338.2 258.47,-307.95 238.17,-286.21"/>
<polygon fill="black" stroke="black" points="240.59,-283.68 231.27,-278.64 235.42,-288.39 240.59,-283.68"/>
</g>
<!-- Node0x5594b2ced840 -->
<g id="node18" class="node">
<title>Node0x5594b2ced840</title>
<polygon fill="none" stroke="black" points="452.5,-242.5 452.5,-278.5 1003.5,-278.5 1003.5,-242.5 452.5,-242.5"/>
<text text-anchor="middle" x="728" y="-256.8" font-family="Times,serif" font-size="14.00">_ZZL19HasRoundTripSupportP11CIccProfileENK3$_0clE14icTagSignature</text>
</g>
<!-- Node0x5594b2cec960&#45;&gt;Node0x5594b2ced840 -->
<g id="edge13" class="edge">
<title>Node0x5594b2cec960&#45;&gt;Node0x5594b2ced840</title>
<path fill="none" stroke="black" d="M704.5,-315.31C708.08,-307.12 712.45,-297.12 716.44,-287.98"/>
<polygon fill="black" stroke="black" points="719.77,-289.09 720.56,-278.53 713.36,-286.29 719.77,-289.09"/>
</g>
<!-- Node0x5594b2c2dd20 -->
<g id="node17" class="node">
<title>Node0x5594b2c2dd20</title>
<polygon fill="none" stroke="black" points="362,-169.5 362,-205.5 584,-205.5 584,-169.5 362,-169.5"/>
<text text-anchor="middle" x="473" y="-183.8" font-family="Times,serif" font-size="14.00">_ZN11CIccProfile7FindTagEj</text>
</g>
<!-- Node0x5594b2c2dda0&#45;&gt;Node0x5594b2c2dd20 -->
<g id="edge12" class="edge">
<title>Node0x5594b2c2dda0&#45;&gt;Node0x5594b2c2dd20</title>
<path fill="none" stroke="black" d="M278.32,-242.49C315.41,-232.21 362.86,-219.05 401.64,-208.29"/>
<polygon fill="black" stroke="black" points="402.59,-211.66 411.29,-205.61 400.72,-204.91 402.59,-211.66"/>
</g>
<!-- Node0x5594b2cf0170 -->
<g id="node13" class="node">
<title>Node0x5594b2cf0170</title>
<polygon fill="none" stroke="black" points="6573,-242.5 6573,-278.5 7099,-278.5 7099,-242.5 6573,-242.5"/>
<text text-anchor="middle" x="6836" y="-256.8" font-family="Times,serif" font-size="14.00">_ZNKSt7__cxx1112basic_stringIcSt11char_traitsIcESaIcEE8capacityEv</text>
</g>
<!-- Node0x5594b2c304b0 -->
<g id="node14" class="node">
<title>Node0x5594b2c304b0</title>
<polygon fill="none" stroke="black" points="7117,-242.5 7117,-278.5 7667,-278.5 7667,-242.5 7117,-242.5"/>
<text text-anchor="middle" x="7392" y="-256.8" font-family="Times,serif" font-size="14.00">_ZNSt7__cxx1112basic_stringIcSt11char_traitsIcESaIcEE6insertEmRKS4_</text>
</g>
<!-- Node0x5594b2c2fbe0 -->
<g id="node15" class="node">
<title>Node0x5594b2c2fbe0</title>
<polygon fill="none" stroke="black" points="7685.5,-242.5 7685.5,-278.5 8232.5,-278.5 8232.5,-242.5 7685.5,-242.5"/>
<text text-anchor="middle" x="7959" y="-256.8" font-family="Times,serif" font-size="14.00">_ZNSt7__cxx1112basic_stringIcSt11char_traitsIcESaIcEE6appendERKS4_</text>
</g>
<!-- Node0x5594b2c2e520 -->
<g id="node16" class="node">
<title>Node0x5594b2c2e520</title>
<polygon fill="none" stroke="black" points="2731.5,-388.5 2731.5,-424.5 2898.5,-424.5 2898.5,-388.5 2731.5,-388.5"/>
<text text-anchor="middle" x="2815" y="-402.8" font-family="Times,serif" font-size="14.00">__gxx_personality_v0</text>
</g>
<!-- Node0x5594b2ced840&#45;&gt;Node0x5594b2c2dd20 -->
<g id="edge50" class="edge">
<title>Node0x5594b2ced840&#45;&gt;Node0x5594b2c2dd20</title>
<path fill="none" stroke="black" d="M666.92,-242.49C630.13,-232.25 583.11,-219.16 544.58,-208.43"/>
<polygon fill="black" stroke="black" points="545.04,-204.92 534.46,-205.61 543.16,-211.67 545.04,-204.92"/>
</g>
<!-- Node0x5594b2ced740 -->
<g id="node19" class="node">
<title>Node0x5594b2ced740</title>
<polygon fill="none" stroke="black" points="2498.5,-388.5 2498.5,-424.5 2695.5,-424.5 2695.5,-388.5 2498.5,-388.5"/>
<text text-anchor="middle" x="2597" y="-402.8" font-family="Times,serif" font-size="14.00">_Z13RecursiveScanPKcbi</text>
</g>
<!-- Node0x5594b2ced740&#45;&gt;Node0x5594b2ce6050 -->
<g id="edge14" class="edge">
<title>Node0x5594b2ced740&#45;&gt;Node0x5594b2ce6050</title>
<path fill="none" stroke="black" d="M2498.19,-404.54C2294.1,-401.8 1831.26,-391.57 1656.49,-351.41"/>
<polygon fill="black" stroke="black" points="1657.18,-347.98 1646.64,-349.04 1655.54,-354.78 1657.18,-347.98"/>
</g>
<!-- Node0x5594b2ced740&#45;&gt;Node0x5594b2ced6d0 -->
<g id="edge18" class="edge">
<title>Node0x5594b2ced740&#45;&gt;Node0x5594b2ced6d0</title>
<path fill="none" stroke="black" d="M2498.49,-401.8C2357.3,-395.76 2089.13,-381.49 1851.45,-352.11"/>
<polygon fill="black" stroke="black" points="1851.58,-348.6 1841.23,-350.83 1850.72,-355.54 1851.58,-348.6"/>
</g>
<!-- Node0x5594b2ced740&#45;&gt;Node0x5594b2cdbea0 -->
<g id="edge33" class="edge">
<title>Node0x5594b2ced740&#45;&gt;Node0x5594b2cdbea0</title>
<path fill="none" stroke="black" d="M2498.32,-398.41C2389.75,-390.05 2209.93,-374.56 2045.54,-352.15"/>
<polygon fill="black" stroke="black" points="2045.62,-348.63 2035.24,-350.74 2044.67,-355.57 2045.62,-348.63"/>
</g>
<!-- Node0x5594b2ced740&#45;&gt;Node0x5594b2cd0980 -->
<g id="edge32" class="edge">
<title>Node0x5594b2ced740&#45;&gt;Node0x5594b2cd0980</title>
<path fill="none" stroke="black" d="M2498.26,-388.81C2435.07,-378.13 2352.96,-364.25 2287.58,-353.19"/>
<polygon fill="black" stroke="black" points="2288.09,-349.73 2277.65,-351.51 2286.92,-356.63 2288.09,-349.73"/>
</g>
<!-- Node0x5594b2ced740&#45;&gt;Node0x5594b2c2b530 -->
<g id="edge31" class="edge">
<title>Node0x5594b2ced740&#45;&gt;Node0x5594b2c2b530</title>
<path fill="none" stroke="black" d="M2552.69,-388.49C2526.68,-378.51 2493.62,-365.82 2466.08,-355.26"/>
<polygon fill="black" stroke="black" points="2467.18,-351.93 2456.59,-351.61 2464.67,-358.46 2467.18,-351.93"/>
</g>
<!-- Node0x5594b2ced740&#45;&gt;Node0x5594b2c2b240 -->
<g id="edge30" class="edge">
<title>Node0x5594b2ced740&#45;&gt;Node0x5594b2c2b240</title>
<path fill="none" stroke="black" d="M2498.27,-403.82C2118.81,-397.23 763.96,-372.61 525.94,-351.92"/>
<polygon fill="black" stroke="black" points="526.04,-348.41 515.76,-350.97 525.39,-355.38 526.04,-348.41"/>
</g>
<!-- Node0x5594b2ced740&#45;&gt;Node0x5594b2cec960 -->
<g id="edge25" class="edge">
<title>Node0x5594b2ced740&#45;&gt;Node0x5594b2cec960</title>
<path fill="none" stroke="black" d="M2498.49,-404.88C2235.74,-402.7 1496.19,-393.14 870.52,-352.07"/>
<polygon fill="black" stroke="black" points="870.6,-348.57 860.39,-351.41 870.14,-355.56 870.6,-348.57"/>
</g>
<!-- Node0x5594b2ced740&#45;&gt;Node0x5594b2c2aaa0 -->
<g id="edge26" class="edge">
<title>Node0x5594b2ced740&#45;&gt;Node0x5594b2c2aaa0</title>
<path fill="none" stroke="black" d="M2498.5,-406.11C2259.18,-406.71 1628.06,-402.95 1092.41,-352.06"/>
<polygon fill="black" stroke="black" points="1092.44,-348.55 1082.16,-351.08 1091.78,-355.52 1092.44,-348.55"/>
</g>
<!-- Node0x5594b2ced740&#45;&gt;Node0x5594b2c2b3a0 -->
<g id="edge28" class="edge">
<title>Node0x5594b2ced740&#45;&gt;Node0x5594b2c2b3a0</title>
<path fill="none" stroke="black" d="M2498.37,-405.9C2281.71,-405.82 1747.89,-400.35 1292.29,-352.05"/>
<polygon fill="black" stroke="black" points="1292.53,-348.56 1282.22,-350.98 1291.79,-355.52 1292.53,-348.56"/>
</g>
<!-- Node0x5594b2ced740&#45;&gt;Node0x5594b2ced550 -->
<g id="edge27" class="edge">
<title>Node0x5594b2ced740&#45;&gt;Node0x5594b2ced550</title>
<path fill="none" stroke="black" d="M2498.31,-402.55C2318.21,-396.68 1924.01,-381.54 1581.75,-352.12"/>
<polygon fill="black" stroke="black" points="1581.91,-348.62 1571.64,-351.25 1581.3,-355.6 1581.91,-348.62"/>
</g>
<!-- Node0x5594b2ced740&#45;&gt;Node0x5594b2ced740 -->
<g id="edge36" class="edge">
<title>Node0x5594b2ced740&#45;&gt;Node0x5594b2ced740</title>
<path fill="none" stroke="black" d="M2695.59,-417.86C2706.47,-415.7 2713.5,-411.91 2713.5,-406.5 2713.5,-402.95 2710.47,-400.1 2705.32,-397.95"/>
<polygon fill="black" stroke="black" points="2706.17,-394.55 2695.59,-395.14 2704.23,-401.27 2706.17,-394.55"/>
</g>
<!-- Node0x5594b2cee620 -->
<g id="node20" class="node">
<title>Node0x5594b2cee620</title>
<polygon fill="none" stroke="black" points="2749.5,-315.5 2749.5,-351.5 2820.5,-351.5 2820.5,-315.5 2749.5,-315.5"/>
<text text-anchor="middle" x="2785" y="-329.8" font-family="Times,serif" font-size="14.00">opendir</text>
</g>
<!-- Node0x5594b2ced740&#45;&gt;Node0x5594b2cee620 -->
<g id="edge15" class="edge">
<title>Node0x5594b2ced740&#45;&gt;Node0x5594b2cee620</title>
<path fill="none" stroke="black" d="M2642.03,-388.49C2671.6,-377.33 2710.15,-362.77 2739.76,-351.59"/>
<polygon fill="black" stroke="black" points="2741.32,-354.74 2749.43,-347.93 2738.84,-348.19 2741.32,-354.74"/>
</g>
<!-- Node0x5594b2ceeea0 -->
<g id="node21" class="node">
<title>Node0x5594b2ceeea0</title>
<polygon fill="none" stroke="black" points="2838.5,-315.5 2838.5,-351.5 2911.5,-351.5 2911.5,-315.5 2838.5,-315.5"/>
<text text-anchor="middle" x="2875" y="-329.8" font-family="Times,serif" font-size="14.00">closedir</text>
</g>
<!-- Node0x5594b2ced740&#45;&gt;Node0x5594b2ceeea0 -->
<g id="edge16" class="edge">
<title>Node0x5594b2ced740&#45;&gt;Node0x5594b2ceeea0</title>
<path fill="none" stroke="black" d="M2683.68,-388.46C2725.11,-379.61 2775.46,-367.85 2828.85,-351.83"/>
<polygon fill="black" stroke="black" points="2829.95,-355.16 2838.5,-348.9 2827.91,-348.46 2829.95,-355.16"/>
</g>
<!-- Node0x5594b2c2eb50 -->
<g id="node22" class="node">
<title>Node0x5594b2c2eb50</title>
<polygon fill="none" stroke="black" points="2929.5,-315.5 2929.5,-351.5 3396.5,-351.5 3396.5,-315.5 2929.5,-315.5"/>
<text text-anchor="middle" x="3163" y="-329.8" font-family="Times,serif" font-size="14.00">_ZNSt7__cxx1112basic_stringIcSt11char_traitsIcESaIcEED1Ev</text>
</g>
<!-- Node0x5594b2ced740&#45;&gt;Node0x5594b2c2eb50 -->
<g id="edge17" class="edge">
<title>Node0x5594b2ced740&#45;&gt;Node0x5594b2c2eb50</title>
<path fill="none" stroke="black" d="M2695.58,-391.53C2704.51,-390.31 2713.42,-389.12 2722,-388 2816.52,-375.65 2922.57,-362.76 3006.99,-352.72"/>
<polygon fill="black" stroke="black" points="3007.65,-356.16 3017.17,-351.51 3006.83,-349.21 3007.65,-356.16"/>
</g>
<!-- Node0x5594b2c2e6f0 -->
<g id="node23" class="node">
<title>Node0x5594b2c2e6f0</title>
<polygon fill="none" stroke="black" points="3414.5,-315.5 3414.5,-351.5 3483.5,-351.5 3483.5,-315.5 3414.5,-315.5"/>
<text text-anchor="middle" x="3449" y="-329.8" font-family="Times,serif" font-size="14.00">readdir</text>
</g>
<!-- Node0x5594b2ced740&#45;&gt;Node0x5594b2c2e6f0 -->
<g id="edge19" class="edge">
<title>Node0x5594b2ced740&#45;&gt;Node0x5594b2c2e6f0</title>
<path fill="none" stroke="black" d="M2695.5,-390.9C2704.45,-389.82 2713.38,-388.83 2722,-388 3021.33,-359.21 3106.24,-415.79 3404.47,-351.64"/>
<polygon fill="black" stroke="black" points="3405.23,-355.05 3414.26,-349.5 3403.74,-348.21 3405.23,-355.05"/>
</g>
<!-- Node0x5594b2cee360 -->
<g id="node24" class="node">
<title>Node0x5594b2cee360</title>
<polygon fill="none" stroke="black" points="3502,-315.5 3502,-351.5 4076,-351.5 4076,-315.5 3502,-315.5"/>
<text text-anchor="middle" x="3789" y="-329.8" font-family="Times,serif" font-size="14.00">_ZNSt7__cxx1112basic_stringIcSt11char_traitsIcESaIcEEC2IS3_EEPKcRKS3_</text>
</g>
<!-- Node0x5594b2ced740&#45;&gt;Node0x5594b2cee360 -->
<g id="edge20" class="edge">
<title>Node0x5594b2ced740&#45;&gt;Node0x5594b2cee360</title>
<path fill="none" stroke="black" d="M2695.84,-390.8C2704.67,-389.75 2713.49,-388.79 2722,-388 3059.79,-356.53 3148.16,-369.81 3491.49,-352.02"/>
<polygon fill="black" stroke="black" points="3491.92,-355.5 3501.73,-351.48 3491.56,-348.51 3491.92,-355.5"/>
</g>
<!-- Node0x5594b2c2e980 -->
<g id="node25" class="node">
<title>Node0x5594b2c2e980</title>
<polygon fill="none" stroke="black" points="5461,-315.5 5461,-351.5 6093,-351.5 6093,-315.5 5461,-315.5"/>
<text text-anchor="middle" x="5777" y="-329.8" font-family="Times,serif" font-size="14.00">_ZStplIcSt11char_traitsIcESaIcEENSt7__cxx1112basic_stringIT_T0_T1_EEOS8_PKS5_</text>
</g>
<!-- Node0x5594b2ced740&#45;&gt;Node0x5594b2c2e980 -->
<g id="edge21" class="edge">
<title>Node0x5594b2ced740&#45;&gt;Node0x5594b2c2e980</title>
<path fill="none" stroke="black" d="M2695.82,-390.54C2704.66,-389.54 2713.48,-388.67 2722,-388 2987.66,-367.16 4718.44,-346.07 5450.68,-337.97"/>
<polygon fill="black" stroke="black" points="5450.89,-341.47 5460.85,-337.85 5450.82,-334.47 5450.89,-341.47"/>
</g>
<!-- Node0x5594b2c2ede0 -->
<g id="node26" class="node">
<title>Node0x5594b2c2ede0</title>
<polygon fill="none" stroke="black" points="6530.5,-315.5 6530.5,-351.5 7141.5,-351.5 7141.5,-315.5 6530.5,-315.5"/>
<text text-anchor="middle" x="6836" y="-329.8" font-family="Times,serif" font-size="14.00">_ZStplIcSt11char_traitsIcESaIcEENSt7__cxx1112basic_stringIT_T0_T1_EEOS8_S9_</text>
</g>
<!-- Node0x5594b2ced740&#45;&gt;Node0x5594b2c2ede0 -->
<g id="edge22" class="edge">
<title>Node0x5594b2ced740&#45;&gt;Node0x5594b2c2ede0</title>
<path fill="none" stroke="black" d="M2695.81,-390.47C2704.65,-389.49 2713.48,-388.64 2722,-388 3471.05,-331.81 5350.96,-364.95 6102,-352 6239.1,-349.64 6390.58,-346.17 6520.15,-342.94"/>
<polygon fill="black" stroke="black" points="6520.33,-346.44 6530.24,-342.69 6520.15,-339.44 6520.33,-346.44"/>
</g>
<!-- Node0x5594b2cee7a0 -->
<g id="node27" class="node">
<title>Node0x5594b2cee7a0</title>
<polygon fill="none" stroke="black" points="7159.5,-315.5 7159.5,-351.5 7660.5,-351.5 7660.5,-315.5 7159.5,-315.5"/>
<text text-anchor="middle" x="7410" y="-329.8" font-family="Times,serif" font-size="14.00">_ZNKSt7__cxx1112basic_stringIcSt11char_traitsIcESaIcEE5c_strEv</text>
</g>
<!-- Node0x5594b2ced740&#45;&gt;Node0x5594b2cee7a0 -->
<g id="edge23" class="edge">
<title>Node0x5594b2ced740&#45;&gt;Node0x5594b2cee7a0</title>
<path fill="none" stroke="black" d="M2695.81,-390.45C2704.65,-389.47 2713.48,-388.63 2722,-388 3703.59,-315.61 6167.45,-389.19 7151,-352 7151.63,-351.98 7152.27,-351.95 7152.9,-351.93"/>
<polygon fill="black" stroke="black" points="7153.41,-355.41 7163.26,-351.51 7153.12,-348.42 7153.41,-355.41"/>
</g>
<!-- Node0x5594b2cee970 -->
<g id="node28" class="node">
<title>Node0x5594b2cee970</title>
<polygon fill="none" stroke="black" points="8215.5,-169.5 8215.5,-205.5 8468.5,-205.5 8468.5,-169.5 8215.5,-169.5"/>
<text text-anchor="middle" x="8342" y="-183.8" font-family="Times,serif" font-size="14.00">_ZNSt15__new_allocatorIcED2Ev</text>
</g>
<!-- Node0x5594b2ced740&#45;&gt;Node0x5594b2cee970 -->
<g id="edge24" class="edge">
<title>Node0x5594b2ced740&#45;&gt;Node0x5594b2cee970</title>
<path fill="none" stroke="black" d="M2695.81,-390.44C2704.65,-389.47 2713.48,-388.62 2722,-388 3270.32,-347.8 7120.59,-372.48 7670,-352 7911.27,-343.01 8589.12,-455.36 8754,-279 8765.23,-266.99 8764.85,-254.35 8754,-242 8735.75,-221.22 8591.49,-206.14 8478.75,-197.38"/>
<polygon fill="black" stroke="black" points="8478.88,-193.88 8468.64,-196.61 8478.34,-200.86 8478.88,-193.88"/>
</g>
<!-- Node0x5594b2c2f260 -->
<g id="node29" class="node">
<title>Node0x5594b2c2f260</title>
<polygon fill="none" stroke="black" points="2523,-315.5 2523,-351.5 2577,-351.5 2577,-315.5 2523,-315.5"/>
<text text-anchor="middle" x="2550" y="-329.8" font-family="Times,serif" font-size="14.00">stat</text>
</g>
<!-- Node0x5594b2ced740&#45;&gt;Node0x5594b2c2f260 -->
<g id="edge29" class="edge">
<title>Node0x5594b2ced740&#45;&gt;Node0x5594b2c2f260</title>
<path fill="none" stroke="black" d="M2585.62,-388.31C2580.02,-379.85 2573.16,-369.48 2566.95,-360.11"/>
<polygon fill="black" stroke="black" points="2569.71,-357.94 2561.27,-351.53 2563.87,-361.8 2569.71,-357.94"/>
</g>
<!-- Node0x5594b2c2efa0 -->
<g id="node30" class="node">
<title>Node0x5594b2c2efa0</title>
<polygon fill="none" stroke="black" points="2595,-315.5 2595,-351.5 2693,-351.5 2693,-315.5 2595,-315.5"/>
<text text-anchor="middle" x="2644" y="-329.8" font-family="Times,serif" font-size="14.00">strcasecmp</text>
</g>
<!-- Node0x5594b2ced740&#45;&gt;Node0x5594b2c2efa0 -->
<g id="edge34" class="edge">
<title>Node0x5594b2ced740&#45;&gt;Node0x5594b2c2efa0</title>
<path fill="none" stroke="black" d="M2608.38,-388.31C2613.98,-379.85 2620.84,-369.48 2627.05,-360.11"/>
<polygon fill="black" stroke="black" points="2630.13,-361.8 2632.73,-351.53 2624.29,-357.94 2630.13,-361.8"/>
</g>
<!-- Node0x5594b2c2fa30 -->
<g id="node31" class="node">
<title>Node0x5594b2c2fa30</title>
<polygon fill="none" stroke="black" points="2240.5,-169.5 2240.5,-205.5 2299.5,-205.5 2299.5,-169.5 2240.5,-169.5"/>
<text text-anchor="middle" x="2270" y="-183.8" font-family="Times,serif" font-size="14.00">strlen</text>
</g>
<!-- Node0x5594b2ced740&#45;&gt;Node0x5594b2c2fa30 -->
<g id="edge35" class="edge">
<title>Node0x5594b2ced740&#45;&gt;Node0x5594b2c2fa30</title>
<path fill="none" stroke="black" d="M2657.03,-388.43C2674.59,-380.33 2691.79,-368.66 2702,-352 2710.59,-337.98 2713.1,-327.14 2702,-315 2641.63,-248.97 2371.4,-334.22 2301,-279 2281.86,-263.99 2274.47,-236.53 2271.66,-215.78"/>
<polygon fill="black" stroke="black" points="2275.12,-215.21 2270.56,-205.64 2268.16,-215.96 2275.12,-215.21"/>
</g>
<!-- Node0x5594b2c30430 -->
<g id="node35" class="node">
<title>Node0x5594b2c30430</title>
<polygon fill="none" stroke="black" points="2310,-242.5 2310,-278.5 2874,-278.5 2874,-242.5 2310,-242.5"/>
<text text-anchor="middle" x="2592" y="-256.8" font-family="Times,serif" font-size="14.00">_ZNSt7__cxx1112basic_stringIcSt11char_traitsIcESaIcEE13_M_local_dataEv</text>
</g>
<!-- Node0x5594b2cee360&#45;&gt;Node0x5594b2c30430 -->
<g id="edge44" class="edge">
<title>Node0x5594b2cee360&#45;&gt;Node0x5594b2c30430</title>
<path fill="none" stroke="black" d="M3501.78,-315.57C3288.36,-302.99 3014,-286.8 2884.44,-279.09"/>
<polygon fill="black" stroke="black" points="2884.43,-275.58 2874.24,-278.48 2884.01,-282.57 2884.43,-275.58"/>
</g>
<!-- Node0x5594b2cf0400 -->
<g id="node36" class="node">
<title>Node0x5594b2cf0400</title>
<polygon fill="none" stroke="black" points="2892,-242.5 2892,-278.5 3518,-278.5 3518,-242.5 2892,-242.5"/>
<text text-anchor="middle" x="3205" y="-256.8" font-family="Times,serif" font-size="14.00">_ZNSt7__cxx1112basic_stringIcSt11char_traitsIcESaIcEE12_Alloc_hiderC1EPcRKS3_</text>
</g>
<!-- Node0x5594b2cee360&#45;&gt;Node0x5594b2cf0400 -->
<g id="edge45" class="edge">
<title>Node0x5594b2cee360&#45;&gt;Node0x5594b2cf0400</title>
<path fill="none" stroke="black" d="M3649.12,-315.49C3560.41,-304.71 3445.7,-290.76 3355.09,-279.75"/>
<polygon fill="black" stroke="black" points="3355.35,-276.25 3345.01,-278.52 3354.51,-283.2 3355.35,-276.25"/>
</g>
<!-- Node0x5594b2c308f0 -->
<g id="node37" class="node">
<title>Node0x5594b2c308f0</title>
<polygon fill="none" stroke="black" points="3536,-242.5 3536,-278.5 3770,-278.5 3770,-242.5 3536,-242.5"/>
<text text-anchor="middle" x="3653" y="-256.8" font-family="Times,serif" font-size="14.00">_ZSt19__throw_logic_errorPKc</text>
</g>
<!-- Node0x5594b2cee360&#45;&gt;Node0x5594b2c308f0 -->
<g id="edge46" class="edge">
<title>Node0x5594b2cee360&#45;&gt;Node0x5594b2c308f0</title>
<path fill="none" stroke="black" d="M3756.42,-315.49C3737.97,-305.86 3714.69,-293.71 3694.89,-283.37"/>
<polygon fill="black" stroke="black" points="3696.27,-280.14 3685.78,-278.61 3693.03,-286.34 3696.27,-280.14"/>
</g>
<!-- Node0x5594b2c30690 -->
<g id="node38" class="node">
<title>Node0x5594b2c30690</title>
<polygon fill="none" stroke="black" points="4923.5,-242.5 4923.5,-278.5 5494.5,-278.5 5494.5,-242.5 4923.5,-242.5"/>
<text text-anchor="middle" x="5209" y="-256.8" font-family="Times,serif" font-size="14.00">_ZNSt7__cxx1112basic_stringIcSt11char_traitsIcESaIcEE12_Alloc_hiderD2Ev</text>
</g>
<!-- Node0x5594b2cee360&#45;&gt;Node0x5594b2c30690 -->
<g id="edge47" class="edge">
<title>Node0x5594b2cee360&#45;&gt;Node0x5594b2c30690</title>
<path fill="none" stroke="black" d="M4076.02,-319.78C4300.72,-309.6 4621.43,-294.58 4912.92,-279.05"/>
<polygon fill="black" stroke="black" points="4913.47,-282.53 4923.27,-278.5 4913.1,-275.54 4913.47,-282.53"/>
</g>
<!-- Node0x5594b2c3a0d0 -->
<g id="node39" class="node">
<title>Node0x5594b2c3a0d0</title>
<polygon fill="none" stroke="black" points="3788,-242.5 3788,-278.5 4060,-278.5 4060,-242.5 3788,-242.5"/>
<text text-anchor="middle" x="3924" y="-256.8" font-family="Times,serif" font-size="14.00">_ZNSt11char_traitsIcE6lengthEPKc</text>
</g>
<!-- Node0x5594b2cee360&#45;&gt;Node0x5594b2c3a0d0 -->
<g id="edge48" class="edge">
<title>Node0x5594b2cee360&#45;&gt;Node0x5594b2c3a0d0</title>
<path fill="none" stroke="black" d="M3821.34,-315.49C3839.65,-305.86 3862.76,-293.71 3882.42,-283.37"/>
<polygon fill="black" stroke="black" points="3884.24,-286.37 3891.46,-278.61 3880.98,-280.17 3884.24,-286.37"/>
</g>
<!-- Node0x5594b2c31aa0 -->
<g id="node40" class="node">
<title>Node0x5594b2c31aa0</title>
<polygon fill="none" stroke="black" points="4078.5,-242.5 4078.5,-278.5 4905.5,-278.5 4905.5,-242.5 4078.5,-242.5"/>
<text text-anchor="middle" x="4492" y="-256.8" font-family="Times,serif" font-size="14.00">_ZNSt7__cxx1112basic_stringIcSt11char_traitsIcESaIcEE12_M_constructIPKcEEvT_S8_St20forward_iterator_tag</text>
</g>
<!-- Node0x5594b2cee360&#45;&gt;Node0x5594b2c31aa0 -->
<g id="edge49" class="edge">
<title>Node0x5594b2cee360&#45;&gt;Node0x5594b2c31aa0</title>
<path fill="none" stroke="black" d="M3957.39,-315.49C4064.82,-304.64 4203.93,-290.59 4313.31,-279.55"/>
<polygon fill="black" stroke="black" points="4313.87,-283.01 4323.47,-278.52 4313.17,-276.04 4313.87,-283.01"/>
</g>
<!-- Node0x5594b2c2fea0 -->
<g id="node33" class="node">
<title>Node0x5594b2c2fea0</title>
<polygon fill="none" stroke="black" points="6059.5,-242.5 6059.5,-278.5 6554.5,-278.5 6554.5,-242.5 6059.5,-242.5"/>
<text text-anchor="middle" x="6307" y="-256.8" font-family="Times,serif" font-size="14.00">_ZNSt7__cxx1112basic_stringIcSt11char_traitsIcESaIcEEC1EOS4_</text>
</g>
<!-- Node0x5594b2c2e980&#45;&gt;Node0x5594b2c2fea0 -->
<g id="edge43" class="edge">
<title>Node0x5594b2c2e980&#45;&gt;Node0x5594b2c2fea0</title>
<path fill="none" stroke="black" d="M5903.95,-315.49C5984.06,-304.76 6087.52,-290.9 6169.56,-279.91"/>
<polygon fill="black" stroke="black" points="6170.26,-283.35 6179.71,-278.55 6169.33,-276.41 6170.26,-283.35"/>
</g>
<!-- Node0x5594b2c31090 -->
<g id="node34" class="node">
<title>Node0x5594b2c31090</title>
<polygon fill="none" stroke="black" points="5513,-242.5 5513,-278.5 6041,-278.5 6041,-242.5 5513,-242.5"/>
<text text-anchor="middle" x="5777" y="-256.8" font-family="Times,serif" font-size="14.00">_ZNSt7__cxx1112basic_stringIcSt11char_traitsIcESaIcEE6appendEPKc</text>
</g>
<!-- Node0x5594b2c2e980&#45;&gt;Node0x5594b2c31090 -->
<g id="edge42" class="edge">
<title>Node0x5594b2c2e980&#45;&gt;Node0x5594b2c31090</title>
<path fill="none" stroke="black" d="M5777,-315.31C5777,-307.29 5777,-297.55 5777,-288.57"/>
<polygon fill="black" stroke="black" points="5780.5,-288.53 5777,-278.53 5773.5,-288.53 5780.5,-288.53"/>
</g>
<!-- Node0x5594b2c2ede0&#45;&gt;Node0x5594b2cf0170 -->
<g id="edge39" class="edge">
<title>Node0x5594b2c2ede0&#45;&gt;Node0x5594b2cf0170</title>
<path fill="none" stroke="black" d="M6836,-315.31C6836,-307.29 6836,-297.55 6836,-288.57"/>
<polygon fill="black" stroke="black" points="6839.5,-288.53 6836,-278.53 6832.5,-288.53 6839.5,-288.53"/>
</g>
<!-- Node0x5594b2c2ede0&#45;&gt;Node0x5594b2c304b0 -->
<g id="edge41" class="edge">
<title>Node0x5594b2c2ede0&#45;&gt;Node0x5594b2c304b0</title>
<path fill="none" stroke="black" d="M6969.18,-315.49C7053.39,-304.74 7162.19,-290.85 7248.34,-279.84"/>
<polygon fill="black" stroke="black" points="7248.99,-283.29 7258.47,-278.55 7248.1,-276.35 7248.99,-283.29"/>
</g>
<!-- Node0x5594b2c2ede0&#45;&gt;Node0x5594b2c2fbe0 -->
<g id="edge40" class="edge">
<title>Node0x5594b2c2ede0&#45;&gt;Node0x5594b2c2fbe0</title>
<path fill="none" stroke="black" d="M7104.99,-315.49C7278.6,-304.52 7503.98,-290.27 7679.61,-279.16"/>
<polygon fill="black" stroke="black" points="7680.02,-282.65 7689.78,-278.52 7679.58,-275.66 7680.02,-282.65"/>
</g>
<!-- Node0x5594b2c2f5e0 -->
<g id="node32" class="node">
<title>Node0x5594b2c2f5e0</title>
<polygon fill="none" stroke="black" points="8251,-242.5 8251,-278.5 8745,-278.5 8745,-242.5 8251,-242.5"/>
<text text-anchor="middle" x="8498" y="-256.8" font-family="Times,serif" font-size="14.00">_ZNKSt7__cxx1112basic_stringIcSt11char_traitsIcESaIcEE4sizeEv</text>
</g>
<!-- Node0x5594b2c2ede0&#45;&gt;Node0x5594b2c2f5e0 -->
<g id="edge37" class="edge">
<title>Node0x5594b2c2ede0&#45;&gt;Node0x5594b2c2f5e0</title>
<path fill="none" stroke="black" d="M7140.27,-315.48C7143.86,-315.32 7147.44,-315.16 7151,-315 7632.36,-293.69 7755.79,-303.41 8241.33,-279.02"/>
<polygon fill="black" stroke="black" points="8241.59,-282.51 8251.4,-278.51 8241.24,-275.52 8241.59,-282.51"/>
</g>
<!-- Node0x5594b2c2ede0&#45;&gt;Node0x5594b2c2fea0 -->
<g id="edge38" class="edge">
<title>Node0x5594b2c2ede0&#45;&gt;Node0x5594b2c2fea0</title>
<path fill="none" stroke="black" d="M6709.29,-315.49C6629.33,-304.76 6526.07,-290.9 6444.18,-279.91"/>
<polygon fill="black" stroke="black" points="6444.43,-276.41 6434.05,-278.55 6443.49,-283.35 6444.43,-276.41"/>
</g>
<!-- Node0x5594b2c30690&#45;&gt;Node0x5594b2cee970 -->
<g id="edge60" class="edge">
<title>Node0x5594b2c30690&#45;&gt;Node0x5594b2cee970</title>
<path fill="none" stroke="black" d="M5491.61,-242.48C5495.77,-242.32 5499.9,-242.15 5504,-242 6507.42,-204.26 6759.14,-229.17 7763,-206 7914.3,-202.51 8087.8,-197.07 8205.11,-193.19"/>
<polygon fill="black" stroke="black" points="8205.35,-196.68 8215.23,-192.85 8205.12,-189.69 8205.35,-196.68"/>
</g>
<!-- Node0x5594b2c3a0d0&#45;&gt;Node0x5594b2c2fa30 -->
<g id="edge51" class="edge">
<title>Node0x5594b2c3a0d0&#45;&gt;Node0x5594b2c2fa30</title>
<path fill="none" stroke="black" d="M3787.81,-242.68C3784.85,-242.44 3781.91,-242.21 3779,-242 3618.99,-230.41 2509.48,-241.73 2309.9,-205.35"/>
<polygon fill="black" stroke="black" points="2310.32,-201.87 2299.82,-203.3 2308.92,-208.72 2310.32,-201.87"/>
</g>
<!-- Node0x5594b2c30b50 -->
<g id="node41" class="node">
<title>Node0x5594b2c30b50</title>
<polygon fill="none" stroke="black" points="2318,-169.5 2318,-205.5 2876,-205.5 2876,-169.5 2318,-169.5"/>
<text text-anchor="middle" x="2597" y="-183.8" font-family="Times,serif" font-size="14.00">_ZNSt7__cxx1112basic_stringIcSt11char_traitsIcESaIcEE9_M_createERmm</text>
</g>
<!-- Node0x5594b2c31aa0&#45;&gt;Node0x5594b2c30b50 -->
<g id="edge52" class="edge">
<title>Node0x5594b2c31aa0&#45;&gt;Node0x5594b2c30b50</title>
<path fill="none" stroke="black" d="M4082.57,-242.49C4078.02,-242.33 4073.5,-242.16 4069,-242 3542.87,-223.12 3410.92,-229.97 2885,-206 2884.89,-206 2884.78,-205.99 2884.67,-205.99"/>
<polygon fill="black" stroke="black" points="2884.58,-202.48 2874.42,-205.51 2884.25,-209.47 2884.58,-202.48"/>
</g>
<!-- Node0x5594b2cf0630 -->
<g id="node42" class="node">
<title>Node0x5594b2cf0630</title>
<polygon fill="none" stroke="black" points="2894,-169.5 2894,-205.5 3418,-205.5 3418,-169.5 2894,-169.5"/>
<text text-anchor="middle" x="3156" y="-183.8" font-family="Times,serif" font-size="14.00">_ZNSt7__cxx1112basic_stringIcSt11char_traitsIcESaIcEE7_M_dataEPc</text>
</g>
<!-- Node0x5594b2c31aa0&#45;&gt;Node0x5594b2cf0630 -->
<g id="edge53" class="edge">
<title>Node0x5594b2c31aa0&#45;&gt;Node0x5594b2cf0630</title>
<path fill="none" stroke="black" d="M4127.79,-242.49C3924.95,-232.7 3667.52,-219.75 3428.41,-206.08"/>
<polygon fill="black" stroke="black" points="3428.31,-202.57 3418.12,-205.49 3427.91,-209.55 3428.31,-202.57"/>
</g>
<!-- Node0x5594b2c32be0 -->
<g id="node43" class="node">
<title>Node0x5594b2c32be0</title>
<polygon fill="none" stroke="black" points="3436.5,-169.5 3436.5,-205.5 3993.5,-205.5 3993.5,-169.5 3436.5,-169.5"/>
<text text-anchor="middle" x="3715" y="-183.8" font-family="Times,serif" font-size="14.00">_ZNSt7__cxx1112basic_stringIcSt11char_traitsIcESaIcEE11_M_capacityEm</text>
</g>
<!-- Node0x5594b2c31aa0&#45;&gt;Node0x5594b2c32be0 -->
<g id="edge54" class="edge">
<title>Node0x5594b2c31aa0&#45;&gt;Node0x5594b2c32be0</title>
<path fill="none" stroke="black" d="M4305.89,-242.49C4186.78,-231.61 4032.47,-217.51 3911.4,-206.45"/>
<polygon fill="black" stroke="black" points="3911.55,-202.95 3901.27,-205.52 3910.91,-209.92 3911.55,-202.95"/>
</g>
<!-- Node0x5594b2c32d90 -->
<g id="node44" class="node">
<title>Node0x5594b2c32d90</title>
<polygon fill="none" stroke="black" points="4012,-169.5 4012,-205.5 4996,-205.5 4996,-169.5 4012,-169.5"/>
<text text-anchor="middle" x="4504" y="-183.8" font-family="Times,serif" font-size="14.00">_ZZNSt7__cxx1112basic_stringIcSt11char_traitsIcESaIcEE12_M_constructIPKcEEvT_S8_St20forward_iterator_tagEN6_GuardC2EPS4_</text>
</g>
<!-- Node0x5594b2c31aa0&#45;&gt;Node0x5594b2c32d90 -->
<g id="edge55" class="edge">
<title>Node0x5594b2c31aa0&#45;&gt;Node0x5594b2c32d90</title>
<path fill="none" stroke="black" d="M4494.9,-242.31C4496.26,-234.29 4497.91,-224.55 4499.42,-215.57"/>
<polygon fill="black" stroke="black" points="4502.91,-215.97 4501.12,-205.53 4496,-214.81 4502.91,-215.97"/>
</g>
<!-- Node0x5594b2c326d0 -->
<g id="node45" class="node">
<title>Node0x5594b2c326d0</title>
<polygon fill="none" stroke="black" points="5014,-169.5 5014,-205.5 5540,-205.5 5540,-169.5 5014,-169.5"/>
<text text-anchor="middle" x="5277" y="-183.8" font-family="Times,serif" font-size="14.00">_ZNKSt7__cxx1112basic_stringIcSt11char_traitsIcESaIcEE7_M_dataEv</text>
</g>
<!-- Node0x5594b2c31aa0&#45;&gt;Node0x5594b2c326d0 -->
<g id="edge56" class="edge">
<title>Node0x5594b2c31aa0&#45;&gt;Node0x5594b2c326d0</title>
<path fill="none" stroke="black" d="M4680.03,-242.49C4800.36,-231.61 4956.27,-217.51 5078.57,-206.45"/>
<polygon fill="black" stroke="black" points="5079.16,-209.91 5088.81,-205.52 5078.53,-202.94 5079.16,-209.91"/>
</g>
<!-- Node0x5594b2cf1cc0 -->
<g id="node46" class="node">
<title>Node0x5594b2cf1cc0</title>
<polygon fill="none" stroke="black" points="5558.5,-169.5 5558.5,-205.5 6187.5,-205.5 6187.5,-169.5 5558.5,-169.5"/>
<text text-anchor="middle" x="5873" y="-183.8" font-family="Times,serif" font-size="14.00">_ZNSt7__cxx1112basic_stringIcSt11char_traitsIcESaIcEE13_S_copy_charsEPcPKcS7_</text>
</g>
<!-- Node0x5594b2c31aa0&#45;&gt;Node0x5594b2cf1cc0 -->
<g id="edge57" class="edge">
<title>Node0x5594b2c31aa0&#45;&gt;Node0x5594b2cf1cc0</title>
<path fill="none" stroke="black" d="M4833.86,-242.49C5038.01,-232.26 5302.77,-218.87 5548.14,-206.04"/>
<polygon fill="black" stroke="black" points="5548.53,-209.53 5558.33,-205.51 5548.16,-202.54 5548.53,-209.53"/>
</g>
<!-- Node0x5594b2c33270 -->
<g id="node47" class="node">
<title>Node0x5594b2c33270</title>
<polygon fill="none" stroke="black" points="6206,-169.5 6206,-205.5 6778,-205.5 6778,-169.5 6206,-169.5"/>
<text text-anchor="middle" x="6492" y="-183.8" font-family="Times,serif" font-size="14.00">_ZNSt7__cxx1112basic_stringIcSt11char_traitsIcESaIcEE13_M_set_lengthEm</text>
</g>
<!-- Node0x5594b2c31aa0&#45;&gt;Node0x5594b2c33270 -->
<g id="edge58" class="edge">
<title>Node0x5594b2c31aa0&#45;&gt;Node0x5594b2c33270</title>
<path fill="none" stroke="black" d="M4899.9,-242.5C4904.63,-242.33 4909.33,-242.16 4914,-242 5483.66,-222.19 5626.54,-230.82 6196,-206 6196.23,-205.99 6196.45,-205.98 6196.68,-205.97"/>
<polygon fill="black" stroke="black" points="6197.04,-209.46 6206.87,-205.52 6196.72,-202.46 6197.04,-209.46"/>
</g>
<!-- Node0x5594b2cf2420 -->
<g id="node48" class="node">
<title>Node0x5594b2cf2420</title>
<polygon fill="none" stroke="black" points="6796,-169.5 6796,-205.5 7754,-205.5 7754,-169.5 6796,-169.5"/>
<text text-anchor="middle" x="7275" y="-183.8" font-family="Times,serif" font-size="14.00">_ZZNSt7__cxx1112basic_stringIcSt11char_traitsIcESaIcEE12_M_constructIPKcEEvT_S8_St20forward_iterator_tagEN6_GuardD2Ev</text>
</g>
<!-- Node0x5594b2c31aa0&#45;&gt;Node0x5594b2cf2420 -->
<g id="edge59" class="edge">
<title>Node0x5594b2c31aa0&#45;&gt;Node0x5594b2cf2420</title>
<path fill="none" stroke="black" d="M4897.95,-242.5C4903.34,-242.33 4908.69,-242.16 4914,-242 5746.22,-216.75 5954.72,-228.92 6787,-206 6789.46,-205.93 6791.92,-205.86 6794.39,-205.79"/>
<polygon fill="black" stroke="black" points="6794.69,-209.29 6804.59,-205.51 6794.49,-202.29 6794.69,-209.29"/>
</g>
<!-- Node0x5594b2c336f0 -->
<g id="node49" class="node">
<title>Node0x5594b2c336f0</title>
<polygon fill="none" stroke="black" points="6811.5,-96.5 6811.5,-132.5 7358.5,-132.5 7358.5,-96.5 6811.5,-96.5"/>
<text text-anchor="middle" x="7085" y="-110.8" font-family="Times,serif" font-size="14.00">_ZNSt7__cxx1112basic_stringIcSt11char_traitsIcESaIcEE10_M_disposeEv</text>
</g>
<!-- Node0x5594b2cf2420&#45;&gt;Node0x5594b2c336f0 -->
<g id="edge61" class="edge">
<title>Node0x5594b2cf2420&#45;&gt;Node0x5594b2c336f0</title>
<path fill="none" stroke="black" d="M7229.49,-169.49C7202.66,-159.47 7168.53,-146.71 7140.17,-136.12"/>
<polygon fill="black" stroke="black" points="7141.39,-132.84 7130.8,-132.61 7138.94,-139.39 7141.39,-132.84"/>
</g>
<!-- Node0x5594b2c334a0 -->
<g id="node50" class="node">
<title>Node0x5594b2c334a0</title>
<polygon fill="none" stroke="black" points="7376.5,-96.5 7376.5,-132.5 7553.5,-132.5 7553.5,-96.5 7376.5,-96.5"/>
<text text-anchor="middle" x="7465" y="-110.8" font-family="Times,serif" font-size="14.00">__clang_call_terminate</text>
</g>
<!-- Node0x5594b2cf2420&#45;&gt;Node0x5594b2c334a0 -->
<g id="edge62" class="edge">
<title>Node0x5594b2cf2420&#45;&gt;Node0x5594b2c334a0</title>
<path fill="none" stroke="black" d="M7320.51,-169.49C7347.34,-159.47 7381.47,-146.71 7409.83,-136.12"/>
<polygon fill="black" stroke="black" points="7411.06,-139.39 7419.2,-132.61 7408.61,-132.84 7411.06,-139.39"/>
</g>
<!-- Node0x5594b2c32b60 -->
<g id="node51" class="node">
<title>Node0x5594b2c32b60</title>
<polygon fill="none" stroke="black" points="7312,-23.5 7312,-59.5 7458,-59.5 7458,-23.5 7312,-23.5"/>
<text text-anchor="middle" x="7385" y="-37.8" font-family="Times,serif" font-size="14.00">__cxa_begin_catch</text>
</g>
<!-- Node0x5594b2c334a0&#45;&gt;Node0x5594b2c32b60 -->
<g id="edge63" class="edge">
<title>Node0x5594b2c334a0&#45;&gt;Node0x5594b2c32b60</title>
<path fill="none" stroke="black" d="M7445.63,-96.31C7435.51,-87.33 7422.96,-76.19 7411.91,-66.39"/>
<polygon fill="black" stroke="black" points="7413.99,-63.55 7404.19,-59.53 7409.34,-68.78 7413.99,-63.55"/>
</g>
<!-- Node0x5594b2c348c0 -->
<g id="node52" class="node">
<title>Node0x5594b2c348c0</title>
<polygon fill="none" stroke="black" points="7476.5,-23.5 7476.5,-59.5 7613.5,-59.5 7613.5,-23.5 7476.5,-23.5"/>
<text text-anchor="middle" x="7545" y="-37.8" font-family="Times,serif" font-size="14.00">_ZSt9terminatev</text>
</g>
<!-- Node0x5594b2c334a0&#45;&gt;Node0x5594b2c348c0 -->
<g id="edge64" class="edge">
<title>Node0x5594b2c334a0&#45;&gt;Node0x5594b2c348c0</title>
<path fill="none" stroke="black" d="M7484.37,-96.31C7494.49,-87.33 7507.04,-76.19 7518.09,-66.39"/>
<polygon fill="black" stroke="black" points="7520.66,-68.78 7525.81,-59.53 7516.01,-63.55 7520.66,-68.78"/>
</g>
</g>
</svg>
