<?xml version="1.0" encoding="UTF-8" standalone="no"?>
<!DOCTYPE svg PUBLIC "-//W3C//DTD SVG 1.1//EN"
 "http://www.w3.org/Graphics/SVG/1.1/DTD/svg11.dtd">
<!-- Generated by graphviz version 2.43.0 (0)
 -->
<!-- Title: Call graph: /home/h02332/po/research/call&#45;graph/analyzer/IccAnalyzerErrors.ll Pages: 1 -->
<svg width="2333pt" height="141pt"
 viewBox="0.00 0.00 2333.00 141.00" xmlns="http://www.w3.org/2000/svg" xmlns:xlink="http://www.w3.org/1999/xlink">
<g id="graph0" class="graph" transform="scale(1 1) rotate(0) translate(4 137)">
<title>Call graph: /home/h02332/po/research/call&#45;graph/analyzer/IccAnalyzerErrors.ll</title>
<polygon fill="white" stroke="transparent" points="-4,4 -4,-137 2329,-137 2329,4 -4,4"/>
<text text-anchor="middle" x="1162.5" y="-7.8" font-family="Times,serif" font-size="14.00">Call graph: /home/h02332/po/research/call&#45;graph/analyzer/IccAnalyzerErrors.ll</text>
<!-- Node0x57dbc26e9c30 -->
<g id="node1" class="node">
<title>Node0x57dbc26e9c30</title>
<polygon fill="none" stroke="black" points="801,-96.5 801,-132.5 1037,-132.5 1037,-96.5 801,-96.5"/>
<text text-anchor="middle" x="919" y="-110.8" font-family="Times,serif" font-size="14.00">_Z22ErrorOutputDirRequiredv</text>
</g>
<!-- Node0x57dbc26e8f30 -->
<g id="node2" class="node">
<title>Node0x57dbc26e8f30</title>
<polygon fill="none" stroke="black" points="1133,-23.5 1133,-59.5 1195,-59.5 1195,-23.5 1133,-23.5"/>
<text text-anchor="middle" x="1164" y="-37.8" font-family="Times,serif" font-size="14.00">fprintf</text>
</g>
<!-- Node0x57dbc26e9c30&#45;&gt;Node0x57dbc26e8f30 -->
<g id="edge1" class="edge">
<title>Node0x57dbc26e9c30&#45;&gt;Node0x57dbc26e8f30</title>
<path fill="none" stroke="black" d="M977.68,-96.49C1022.58,-83.48 1083.34,-65.88 1123.08,-54.36"/>
<polygon fill="black" stroke="black" points="1124.08,-57.71 1132.71,-51.57 1122.13,-50.99 1124.08,-57.71"/>
</g>
<!-- Node0x57dbc2699320 -->
<g id="node3" class="node">
<title>Node0x57dbc2699320</title>
<polygon fill="none" stroke="black" points="1055,-96.5 1055,-132.5 1273,-132.5 1273,-96.5 1055,-96.5"/>
<text text-anchor="middle" x="1164" y="-110.8" font-family="Times,serif" font-size="14.00">_Z18ErrorInvalidFormatPKc</text>
</g>
<!-- Node0x57dbc2699320&#45;&gt;Node0x57dbc26e8f30 -->
<g id="edge2" class="edge">
<title>Node0x57dbc2699320&#45;&gt;Node0x57dbc26e8f30</title>
<path fill="none" stroke="black" d="M1164,-96.31C1164,-88.29 1164,-78.55 1164,-69.57"/>
<polygon fill="black" stroke="black" points="1167.5,-69.53 1164,-59.53 1160.5,-69.53 1167.5,-69.53"/>
</g>
<!-- Node0x57dbc26e9240 -->
<g id="node4" class="node">
<title>Node0x57dbc26e9240</title>
<polygon fill="none" stroke="black" points="1291.5,-96.5 1291.5,-132.5 1506.5,-132.5 1506.5,-96.5 1291.5,-96.5"/>
<text text-anchor="middle" x="1399" y="-110.8" font-family="Times,serif" font-size="14.00">_Z17ErrorFileNotFoundPKc</text>
</g>
<!-- Node0x57dbc26e9240&#45;&gt;Node0x57dbc26e8f30 -->
<g id="edge3" class="edge">
<title>Node0x57dbc26e9240&#45;&gt;Node0x57dbc26e8f30</title>
<path fill="none" stroke="black" d="M1342.71,-96.49C1300.33,-83.69 1243.21,-66.43 1205.07,-54.91"/>
<polygon fill="black" stroke="black" points="1205.91,-51.51 1195.32,-51.96 1203.88,-58.21 1205.91,-51.51"/>
</g>
<!-- Node0x57dbc26993a0 -->
<g id="node5" class="node">
<title>Node0x57dbc26993a0</title>
<polygon fill="none" stroke="black" points="1267,-23.5 1267,-59.5 1425,-59.5 1425,-23.5 1267,-23.5"/>
<text text-anchor="middle" x="1346" y="-37.8" font-family="Times,serif" font-size="14.00">llvm.memset.p0.i64</text>
</g>
<!-- Node0x57dbc26e9240&#45;&gt;Node0x57dbc26993a0 -->
<g id="edge4" class="edge">
<title>Node0x57dbc26e9240&#45;&gt;Node0x57dbc26993a0</title>
<path fill="none" stroke="black" d="M1386.17,-96.31C1379.79,-87.77 1371.95,-77.27 1364.9,-67.82"/>
<polygon fill="black" stroke="black" points="1367.5,-65.45 1358.71,-59.53 1361.89,-69.64 1367.5,-65.45"/>
</g>
<!-- Node0x57dbc2699a90 -->
<g id="node6" class="node">
<title>Node0x57dbc2699a90</title>
<polygon fill="none" stroke="black" points="1443,-23.5 1443,-59.5 1511,-59.5 1511,-23.5 1443,-23.5"/>
<text text-anchor="middle" x="1477" y="-37.8" font-family="Times,serif" font-size="14.00">getcwd</text>
</g>
<!-- Node0x57dbc26e9240&#45;&gt;Node0x57dbc2699a90 -->
<g id="edge5" class="edge">
<title>Node0x57dbc26e9240&#45;&gt;Node0x57dbc2699a90</title>
<path fill="none" stroke="black" d="M1417.88,-96.31C1427.75,-87.33 1439.98,-76.19 1450.76,-66.39"/>
<polygon fill="black" stroke="black" points="1453.25,-68.85 1458.29,-59.53 1448.54,-63.67 1453.25,-68.85"/>
</g>
<!-- Node0x57dbc2699790 -->
<g id="node7" class="node">
<title>Node0x57dbc2699790</title>
<polygon fill="none" stroke="black" points="0,-96.5 0,-132.5 236,-132.5 236,-96.5 0,-96.5"/>
<text text-anchor="middle" x="118" y="-110.8" font-family="Times,serif" font-size="14.00">_Z19ErrorPatternNoMatchPKc</text>
</g>
<!-- Node0x57dbc2699790&#45;&gt;Node0x57dbc26e8f30 -->
<g id="edge6" class="edge">
<title>Node0x57dbc2699790&#45;&gt;Node0x57dbc26e8f30</title>
<path fill="none" stroke="black" d="M236.27,-96.89C239.21,-96.58 242.12,-96.28 245,-96 583.04,-62.92 993.18,-47.89 1122.74,-43.74"/>
<polygon fill="black" stroke="black" points="1123.11,-47.23 1132.99,-43.42 1122.89,-40.24 1123.11,-47.23"/>
</g>
<!-- Node0x57dbc2699cc0 -->
<g id="node8" class="node">
<title>Node0x57dbc2699cc0</title>
<polygon fill="none" stroke="black" points="254.5,-96.5 254.5,-132.5 509.5,-132.5 509.5,-96.5 254.5,-96.5"/>
<text text-anchor="middle" x="382" y="-110.8" font-family="Times,serif" font-size="14.00">_Z21ErrorWatchDirNotFoundPKc</text>
</g>
<!-- Node0x57dbc2699cc0&#45;&gt;Node0x57dbc26e8f30 -->
<g id="edge7" class="edge">
<title>Node0x57dbc2699cc0&#45;&gt;Node0x57dbc26e8f30</title>
<path fill="none" stroke="black" d="M509.75,-96.89C512.53,-96.58 515.28,-96.29 518,-96 745.8,-71.92 1019.74,-52.31 1122.44,-45.29"/>
<polygon fill="black" stroke="black" points="1122.95,-48.76 1132.69,-44.59 1122.48,-41.77 1122.95,-48.76"/>
</g>
<!-- Node0x57dbc26ea190 -->
<g id="node9" class="node">
<title>Node0x57dbc26ea190</title>
<polygon fill="none" stroke="black" points="1524.5,-96.5 1524.5,-132.5 1783.5,-132.5 1783.5,-96.5 1524.5,-96.5"/>
<text text-anchor="middle" x="1654" y="-110.8" font-family="Times,serif" font-size="14.00">_Z22ErrorIccProfileInvalidPKcS0_</text>
</g>
<!-- Node0x57dbc26ea190&#45;&gt;Node0x57dbc26e8f30 -->
<g id="edge8" class="edge">
<title>Node0x57dbc26ea190&#45;&gt;Node0x57dbc26e8f30</title>
<path fill="none" stroke="black" d="M1524.21,-96.67C1428.94,-84.19 1307.83,-68 1258,-60 1240.63,-57.21 1221.52,-53.73 1205.1,-50.61"/>
<polygon fill="black" stroke="black" points="1205.75,-47.17 1195.27,-48.72 1204.43,-54.05 1205.75,-47.17"/>
</g>
<!-- Node0x57dbc2699560 -->
<g id="node10" class="node">
<title>Node0x57dbc2699560</title>
<polygon fill="none" stroke="black" points="1898,-23.5 1898,-59.5 1952,-59.5 1952,-23.5 1898,-23.5"/>
<text text-anchor="middle" x="1925" y="-37.8" font-family="Times,serif" font-size="14.00">stat</text>
</g>
<!-- Node0x57dbc26ea190&#45;&gt;Node0x57dbc2699560 -->
<g id="edge9" class="edge">
<title>Node0x57dbc26ea190&#45;&gt;Node0x57dbc2699560</title>
<path fill="none" stroke="black" d="M1718.91,-96.49C1771.82,-82.63 1844.66,-63.55 1888.08,-52.17"/>
<polygon fill="black" stroke="black" points="1889.14,-55.51 1897.92,-49.59 1887.36,-48.74 1889.14,-55.51"/>
</g>
<!-- Node0x57dbc26eaad0 -->
<g id="node11" class="node">
<title>Node0x57dbc26eaad0</title>
<polygon fill="none" stroke="black" points="1801.5,-96.5 1801.5,-132.5 2048.5,-132.5 2048.5,-96.5 1801.5,-96.5"/>
<text text-anchor="middle" x="1925" y="-110.8" font-family="Times,serif" font-size="14.00">_Z21ErrorPermissionDeniedPKc</text>
</g>
<!-- Node0x57dbc26eaad0&#45;&gt;Node0x57dbc26e8f30 -->
<g id="edge10" class="edge">
<title>Node0x57dbc26eaad0&#45;&gt;Node0x57dbc26e8f30</title>
<path fill="none" stroke="black" d="M1801.37,-96.86C1798.55,-96.56 1795.76,-96.28 1793,-96 1555.86,-72.33 1494.44,-89.86 1258,-60 1240.54,-57.8 1221.43,-54.42 1205.02,-51.21"/>
<polygon fill="black" stroke="black" points="1205.68,-47.78 1195.19,-49.25 1204.31,-54.64 1205.68,-47.78"/>
</g>
<!-- Node0x57dbc26eaad0&#45;&gt;Node0x57dbc2699560 -->
<g id="edge11" class="edge">
<title>Node0x57dbc26eaad0&#45;&gt;Node0x57dbc2699560</title>
<path fill="none" stroke="black" d="M1925,-96.31C1925,-88.29 1925,-78.55 1925,-69.57"/>
<polygon fill="black" stroke="black" points="1928.5,-69.53 1925,-59.53 1921.5,-69.53 1928.5,-69.53"/>
</g>
<!-- Node0x57dbc26ea9d0 -->
<g id="node12" class="node">
<title>Node0x57dbc26ea9d0</title>
<polygon fill="none" stroke="black" points="527.5,-96.5 527.5,-132.5 782.5,-132.5 782.5,-96.5 527.5,-96.5"/>
<text text-anchor="middle" x="655" y="-110.8" font-family="Times,serif" font-size="14.00">_Z21ErrorDatabaseNotFoundPKc</text>
</g>
<!-- Node0x57dbc26ea9d0&#45;&gt;Node0x57dbc26e8f30 -->
<g id="edge12" class="edge">
<title>Node0x57dbc26ea9d0&#45;&gt;Node0x57dbc26e8f30</title>
<path fill="none" stroke="black" d="M776.92,-96.49C889,-80.86 1048.67,-58.59 1123,-48.22"/>
<polygon fill="black" stroke="black" points="1123.49,-51.69 1132.91,-46.84 1122.52,-44.75 1123.49,-51.69"/>
</g>
<!-- Node0x57dbc26eb070 -->
<g id="node13" class="node">
<title>Node0x57dbc26eb070</title>
<polygon fill="none" stroke="black" points="2067,-96.5 2067,-132.5 2325,-132.5 2325,-96.5 2067,-96.5"/>
<text text-anchor="middle" x="2196" y="-110.8" font-family="Times,serif" font-size="14.00">_Z22ErrorDatabaseCorruptedPKc</text>
</g>
<!-- Node0x57dbc26eb070&#45;&gt;Node0x57dbc26e8f30 -->
<g id="edge13" class="edge">
<title>Node0x57dbc26eb070&#45;&gt;Node0x57dbc26e8f30</title>
<path fill="none" stroke="black" d="M2066.75,-96.79C2063.81,-96.51 2060.89,-96.25 2058,-96 1703.39,-65.59 1611.58,-100.67 1258,-60 1240.52,-57.99 1221.4,-54.64 1204.99,-51.41"/>
<polygon fill="black" stroke="black" points="1205.66,-47.98 1195.17,-49.43 1204.28,-54.84 1205.66,-47.98"/>
</g>
<!-- Node0x57dbc26eb070&#45;&gt;Node0x57dbc2699560 -->
<g id="edge14" class="edge">
<title>Node0x57dbc26eb070&#45;&gt;Node0x57dbc2699560</title>
<path fill="none" stroke="black" d="M2131.09,-96.49C2078.18,-82.63 2005.34,-63.55 1961.92,-52.17"/>
<polygon fill="black" stroke="black" points="1962.64,-48.74 1952.08,-49.59 1960.86,-55.51 1962.64,-48.74"/>
</g>
</g>
</svg>
