<?xml version="1.0" encoding="UTF-8" standalone="no"?>
<!DOCTYPE svg PUBLIC "-//W3C//DTD SVG 1.1//EN"
 "http://www.w3.org/Graphics/SVG/1.1/DTD/svg11.dtd">
<!-- Generated by graphviz version 2.43.0 (0)
 -->
<!-- Title: Call graph: /home/h02332/po/research/call&#45;graph/analyzer/IccAnalyzerComprehensive.ll Pages: 1 -->
<svg width="501pt" height="1065pt"
 viewBox="0.00 0.00 501.20 1065.20" xmlns="http://www.w3.org/2000/svg" xmlns:xlink="http://www.w3.org/1999/xlink">
<g id="graph0" class="graph" transform="scale(1 1) rotate(0) translate(21.6 1043.6)">
<title>Call graph: /home/h02332/po/research/call&#45;graph/analyzer/IccAnalyzerComprehensive.ll</title>
<polygon fill="white" stroke="transparent" points="-21.6,21.6 -21.6,-1043.6 479.6,-1043.6 479.6,21.6 -21.6,21.6"/>
<!-- Node0x62bc38c88e10 -->
<g id="node1" class="node">
<title>Node0x62bc38c88e10</title>
<path fill="#f0f4ff" stroke="black" d="M116,-529C116,-529 12,-529 12,-529 6,-529 0,-523 0,-517 0,-517 0,-505 0,-505 0,-499 6,-493 12,-493 12,-493 116,-493 116,-493 122,-493 128,-499 128,-505 128,-505 128,-517 128,-517 128,-523 122,-529 116,-529"/>
<text text-anchor="middle" x="64" y="-508.8" font-family="Courier,monospace" font-size="9.00">ComprehensiveAnalyze()</text>
</g>
<!-- Node0x62bc38c50a30 -->
<g id="node2" class="node">
<title>Node0x62bc38c50a30</title>
<path fill="#f0f4ff" stroke="black" d="M320.5,-1022C320.5,-1022 200.5,-1022 200.5,-1022 194.5,-1022 188.5,-1016 188.5,-1010 188.5,-1010 188.5,-998 188.5,-998 188.5,-992 194.5,-986 200.5,-986 200.5,-986 320.5,-986 320.5,-986 326.5,-986 332.5,-992 332.5,-998 332.5,-998 332.5,-1010 332.5,-1010 332.5,-1016 326.5,-1022 320.5,-1022"/>
<text text-anchor="middle" x="260.5" y="-1001.8" font-family="Courier,monospace" font-size="9.00">CIccFileIO::~CIccFileIO()</text>
</g>
<!-- Node0x62bc38c88e10&#45;&gt;Node0x62bc38c50a30 -->
<g id="edge1" class="edge">
<title>Node0x62bc38c88e10&#45;&gt;Node0x62bc38c50a30</title>
<path fill="none" stroke="#4a6fa5" d="M67.52,-529.2C78.52,-606.35 124.58,-905.68 186,-975 188.33,-977.63 190.93,-980.03 193.73,-982.21"/>
<polygon fill="#4a6fa5" stroke="#4a6fa5" points="192.83,-984.15 198.94,-985.9 195.26,-980.72 192.83,-984.15"/>
</g>
<!-- Node0x62bc38c4f5d0 -->
<g id="node3" class="node">
<title>Node0x62bc38c4f5d0</title>
<path fill="#f0f4ff" stroke="black" d="M289,-964C289,-964 232,-964 232,-964 226,-964 220,-958 220,-952 220,-952 220,-940 220,-940 220,-934 226,-928 232,-928 232,-928 289,-928 289,-928 295,-928 301,-934 301,-940 301,-940 301,-952 301,-952 301,-958 295,-964 289,-964"/>
<text text-anchor="middle" x="260.5" y="-943.8" font-family="Courier,monospace" font-size="9.00">ColorHeader()</text>
</g>
<!-- Node0x62bc38c88e10&#45;&gt;Node0x62bc38c4f5d0 -->
<g id="edge2" class="edge">
<title>Node0x62bc38c88e10&#45;&gt;Node0x62bc38c4f5d0</title>
<path fill="none" stroke="#4a6fa5" d="M65.07,-529.06C66.3,-591.38 78.61,-799.93 186,-917 193.51,-925.19 203.63,-931.1 213.95,-935.35"/>
<polygon fill="#4a6fa5" stroke="#4a6fa5" points="213.33,-937.36 219.69,-937.55 214.84,-933.44 213.33,-937.36"/>
</g>
<!-- Node0x62bc38c88a20 -->
<g id="node4" class="node">
<title>Node0x62bc38c88a20</title>
<path fill="#f0f4ff" stroke="black" d="M286.5,-906C286.5,-906 234.5,-906 234.5,-906 228.5,-906 222.5,-900 222.5,-894 222.5,-894 222.5,-882 222.5,-882 222.5,-876 228.5,-870 234.5,-870 234.5,-870 286.5,-870 286.5,-870 292.5,-870 298.5,-876 298.5,-882 298.5,-882 298.5,-894 298.5,-894 298.5,-900 292.5,-906 286.5,-906"/>
<text text-anchor="middle" x="260.5" y="-885.8" font-family="Courier,monospace" font-size="9.00">ColorReset()</text>
</g>
<!-- Node0x62bc38c88e10&#45;&gt;Node0x62bc38c88a20 -->
<g id="edge3" class="edge">
<title>Node0x62bc38c88e10&#45;&gt;Node0x62bc38c88a20</title>
<path fill="none" stroke="#4a6fa5" d="M66.14,-529.23C70.64,-585.89 91.89,-760.93 186,-859 194.25,-867.6 205.36,-873.7 216.45,-878.01"/>
<polygon fill="#4a6fa5" stroke="#4a6fa5" points="215.87,-880.03 222.22,-880.1 217.3,-876.08 215.87,-880.03"/>
</g>
<!-- Node0x62bc38c517b0 -->
<g id="node5" class="node">
<title>Node0x62bc38c517b0</title>
<path fill="#f0f4ff" stroke="black" d="M291.5,-848C291.5,-848 229.5,-848 229.5,-848 223.5,-848 217.5,-842 217.5,-836 217.5,-836 217.5,-824 217.5,-824 217.5,-818 223.5,-812 229.5,-812 229.5,-812 291.5,-812 291.5,-812 297.5,-812 303.5,-818 303.5,-824 303.5,-824 303.5,-836 303.5,-836 303.5,-842 297.5,-848 291.5,-848"/>
<text text-anchor="middle" x="260.5" y="-827.8" font-family="Courier,monospace" font-size="9.00">ColorWarning()</text>
</g>
<!-- Node0x62bc38c88e10&#45;&gt;Node0x62bc38c517b0 -->
<g id="edge4" class="edge">
<title>Node0x62bc38c88e10&#45;&gt;Node0x62bc38c517b0</title>
<path fill="none" stroke="#4a6fa5" d="M67.56,-529.02C75.6,-579.08 104.79,-721.36 186,-801 193.14,-808 202.17,-813.36 211.43,-817.46"/>
<polygon fill="#4a6fa5" stroke="#4a6fa5" points="210.87,-819.5 217.22,-819.84 212.47,-815.61 210.87,-819.5"/>
</g>
<!-- Node0x62bc38c4f550 -->
<g id="node6" class="node">
<title>Node0x62bc38c4f550</title>
<path fill="#f0f4ff" stroke="black" d="M294,-790C294,-790 227,-790 227,-790 221,-790 215,-784 215,-778 215,-778 215,-766 215,-766 215,-760 221,-754 227,-754 227,-754 294,-754 294,-754 300,-754 306,-760 306,-766 306,-766 306,-778 306,-778 306,-784 300,-790 294,-790"/>
<text text-anchor="middle" x="260.5" y="-769.8" font-family="Courier,monospace" font-size="9.00">ColorCritical()</text>
</g>
<!-- Node0x62bc38c88e10&#45;&gt;Node0x62bc38c4f550 -->
<g id="edge5" class="edge">
<title>Node0x62bc38c88e10&#45;&gt;Node0x62bc38c4f550</title>
<path fill="none" stroke="#4a6fa5" d="M69.69,-529.1C81.71,-572.11 117.63,-681.45 186,-743 192.71,-749.04 200.83,-753.89 209.19,-757.77"/>
<polygon fill="#4a6fa5" stroke="#4a6fa5" points="208.66,-759.83 215,-760.29 210.33,-755.97 208.66,-759.83"/>
</g>
<!-- Node0x62bc38c890d0 -->
<g id="node7" class="node">
<title>Node0x62bc38c890d0</title>
<path fill="#f0f4ff" stroke="black" d="M283.5,-732C283.5,-732 237.5,-732 237.5,-732 231.5,-732 225.5,-726 225.5,-720 225.5,-720 225.5,-708 225.5,-708 225.5,-702 231.5,-696 237.5,-696 237.5,-696 283.5,-696 283.5,-696 289.5,-696 295.5,-702 295.5,-708 295.5,-708 295.5,-720 295.5,-720 295.5,-726 289.5,-732 283.5,-732"/>
<text text-anchor="middle" x="260.5" y="-711.8" font-family="Courier,monospace" font-size="9.00">ColorInfo()</text>
</g>
<!-- Node0x62bc38c88e10&#45;&gt;Node0x62bc38c890d0 -->
<g id="edge6" class="edge">
<title>Node0x62bc38c88e10&#45;&gt;Node0x62bc38c890d0</title>
<path fill="none" stroke="#4a6fa5" d="M73.13,-529.15C89.61,-564.02 130.17,-640.82 186,-685 195.89,-692.83 208.16,-698.77 219.82,-703.18"/>
<polygon fill="#4a6fa5" stroke="#4a6fa5" points="219.13,-705.16 225.48,-705.22 220.55,-701.21 219.13,-705.16"/>
</g>
<!-- Node0x62bc38c89670 -->
<g id="node8" class="node">
<title>Node0x62bc38c89670</title>
<path fill="#f0f4ff" stroke="black" d="M291.5,-674C291.5,-674 229.5,-674 229.5,-674 223.5,-674 217.5,-668 217.5,-662 217.5,-662 217.5,-650 217.5,-650 217.5,-644 223.5,-638 229.5,-638 229.5,-638 291.5,-638 291.5,-638 297.5,-638 303.5,-644 303.5,-650 303.5,-650 303.5,-662 303.5,-662 303.5,-668 297.5,-674 291.5,-674"/>
<text text-anchor="middle" x="260.5" y="-653.8" font-family="Courier,monospace" font-size="9.00">ColorSuccess()</text>
</g>
<!-- Node0x62bc38c88e10&#45;&gt;Node0x62bc38c89670 -->
<g id="edge7" class="edge">
<title>Node0x62bc38c88e10&#45;&gt;Node0x62bc38c89670</title>
<path fill="none" stroke="#4a6fa5" d="M80.07,-529.38C101.39,-554.39 142.64,-599.2 186,-627 193.86,-632.04 202.74,-636.45 211.54,-640.21"/>
<polygon fill="#4a6fa5" stroke="#4a6fa5" points="210.95,-642.24 217.3,-642.59 212.56,-638.36 210.95,-642.24"/>
</g>
<!-- Node0x62bc38c512e0 -->
<g id="node9" class="node">
<title>Node0x62bc38c512e0</title>
<path fill="#f0f4ff" stroke="black" d="M302,-616C302,-616 219,-616 219,-616 213,-616 207,-610 207,-604 207,-604 207,-592 207,-592 207,-586 213,-580 219,-580 219,-580 302,-580 302,-580 308,-580 314,-586 314,-592 314,-592 314,-604 314,-604 314,-610 308,-616 302,-616"/>
<text text-anchor="middle" x="260.5" y="-595.8" font-family="Courier,monospace" font-size="9.00">TagDetailAnalyze()</text>
</g>
<!-- Node0x62bc38c88e10&#45;&gt;Node0x62bc38c512e0 -->
<g id="edge8" class="edge">
<title>Node0x62bc38c88e10&#45;&gt;Node0x62bc38c512e0</title>
<path fill="none" stroke="#4a6fa5" d="M100.96,-529.06C124.86,-540.87 157.07,-556.38 186,-569 192.58,-571.87 199.54,-574.78 206.46,-577.59"/>
<polygon fill="#4a6fa5" stroke="#4a6fa5" points="205.89,-579.63 212.24,-579.93 207.47,-575.74 205.89,-579.63"/>
</g>
<!-- Node0x62bc38c8a1b0 -->
<g id="node10" class="node">
<title>Node0x62bc38c8a1b0</title>
<path fill="#f0f4ff" stroke="black" d="M304.5,-558C304.5,-558 216.5,-558 216.5,-558 210.5,-558 204.5,-552 204.5,-546 204.5,-546 204.5,-534 204.5,-534 204.5,-528 210.5,-522 216.5,-522 216.5,-522 304.5,-522 304.5,-522 310.5,-522 316.5,-528 316.5,-534 316.5,-534 316.5,-546 316.5,-546 316.5,-552 310.5,-558 304.5,-558"/>
<text text-anchor="middle" x="260.5" y="-537.8" font-family="Courier,monospace" font-size="9.00">CIccFileIO::Close()</text>
</g>
<!-- Node0x62bc38c88e10&#45;&gt;Node0x62bc38c8a1b0 -->
<g id="edge9" class="edge">
<title>Node0x62bc38c88e10&#45;&gt;Node0x62bc38c8a1b0</title>
<path fill="none" stroke="#4a6fa5" d="M128.15,-520.42C150.56,-523.76 175.73,-527.51 198,-530.83"/>
<polygon fill="#4a6fa5" stroke="#4a6fa5" points="197.95,-532.95 204.2,-531.75 198.57,-528.79 197.95,-532.95"/>
</g>
<!-- Node0x62bc38c8a730 -->
<g id="node11" class="node">
<title>Node0x62bc38c8a730</title>
<path fill="#f0f4ff" stroke="black" d="M291.5,-500C291.5,-500 229.5,-500 229.5,-500 223.5,-500 217.5,-494 217.5,-488 217.5,-488 217.5,-476 217.5,-476 217.5,-470 223.5,-464 229.5,-464 229.5,-464 291.5,-464 291.5,-464 297.5,-464 303.5,-470 303.5,-476 303.5,-476 303.5,-488 303.5,-488 303.5,-494 297.5,-500 291.5,-500"/>
<text text-anchor="middle" x="260.5" y="-479.8" font-family="Courier,monospace" font-size="9.00">DumpTagTable()</text>
</g>
<!-- Node0x62bc38c88e10&#45;&gt;Node0x62bc38c8a730 -->
<g id="edge10" class="edge">
<title>Node0x62bc38c88e10&#45;&gt;Node0x62bc38c8a730</title>
<path fill="none" stroke="#4a6fa5" d="M128.15,-501.58C155.04,-497.57 185.92,-492.97 210.98,-489.23"/>
<polygon fill="#4a6fa5" stroke="#4a6fa5" points="211.59,-491.27 217.22,-488.3 210.97,-487.11 211.59,-491.27"/>
</g>
<!-- Node0x62bc38c50750 -->
<g id="node12" class="node">
<title>Node0x62bc38c50750</title>
<path fill="#f0f4ff" stroke="black" d="M304.5,-442C304.5,-442 216.5,-442 216.5,-442 210.5,-442 204.5,-436 204.5,-430 204.5,-430 204.5,-418 204.5,-418 204.5,-412 210.5,-406 216.5,-406 216.5,-406 304.5,-406 304.5,-406 310.5,-406 316.5,-412 316.5,-418 316.5,-418 316.5,-430 316.5,-430 316.5,-436 310.5,-442 304.5,-442"/>
<text text-anchor="middle" x="260.5" y="-421.8" font-family="Courier,monospace" font-size="9.00">DumpProfileHeader()</text>
</g>
<!-- Node0x62bc38c88e10&#45;&gt;Node0x62bc38c50750 -->
<g id="edge11" class="edge">
<title>Node0x62bc38c88e10&#45;&gt;Node0x62bc38c50750</title>
<path fill="none" stroke="#4a6fa5" d="M100.96,-492.94C124.86,-481.13 157.07,-465.62 186,-453 192.58,-450.13 199.54,-447.22 206.46,-444.41"/>
<polygon fill="#4a6fa5" stroke="#4a6fa5" points="207.47,-446.26 212.24,-442.07 205.89,-442.37 207.47,-446.26"/>
</g>
<!-- Node0x62bc38c50100 -->
<g id="node13" class="node">
<title>Node0x62bc38c50100</title>
<path fill="#f0f4ff" stroke="black" d="M302,-384C302,-384 219,-384 219,-384 213,-384 207,-378 207,-372 207,-372 207,-360 207,-360 207,-354 213,-348 219,-348 219,-348 302,-348 302,-348 308,-348 314,-354 314,-360 314,-360 314,-372 314,-372 314,-378 308,-384 302,-384"/>
<text text-anchor="middle" x="260.5" y="-363.8" font-family="Courier,monospace" font-size="9.00">CIccFileIO::Open()</text>
</g>
<!-- Node0x62bc38c88e10&#45;&gt;Node0x62bc38c50100 -->
<g id="edge12" class="edge">
<title>Node0x62bc38c88e10&#45;&gt;Node0x62bc38c50100</title>
<path fill="none" stroke="#4a6fa5" d="M80.07,-492.62C101.39,-467.61 142.64,-422.8 186,-395 190.75,-391.96 195.87,-389.14 201.12,-386.56"/>
<polygon fill="#4a6fa5" stroke="#4a6fa5" points="202.33,-388.31 206.85,-383.85 200.53,-384.52 202.33,-388.31"/>
</g>
<!-- Node0x62bc38c4fca0 -->
<g id="node14" class="node">
<title>Node0x62bc38c4fca0</title>
<path fill="#f0f4ff" stroke="black" d="M302,-326C302,-326 219,-326 219,-326 213,-326 207,-320 207,-314 207,-314 207,-302 207,-302 207,-296 213,-290 219,-290 219,-290 302,-290 302,-290 308,-290 314,-296 314,-302 314,-302 314,-314 314,-314 314,-320 308,-326 302,-326"/>
<text text-anchor="middle" x="260.5" y="-305.8" font-family="Courier,monospace" font-size="9.00">HeuristicAnalyze()</text>
</g>
<!-- Node0x62bc38c88e10&#45;&gt;Node0x62bc38c4fca0 -->
<g id="edge13" class="edge">
<title>Node0x62bc38c88e10&#45;&gt;Node0x62bc38c4fca0</title>
<path fill="none" stroke="#4a6fa5" d="M73.13,-492.85C89.61,-457.98 130.17,-381.18 186,-337 190.68,-333.3 195.89,-330.01 201.32,-327.12"/>
<polygon fill="#4a6fa5" stroke="#4a6fa5" points="202.4,-328.93 206.81,-324.35 200.5,-325.18 202.4,-328.93"/>
</g>
<!-- Node0x62bc38c89bf0 -->
<g id="node15" class="node">
<title>Node0x62bc38c89bf0</title>
<path fill="#f0f4ff" stroke="black" d="M318,-268C318,-268 203,-268 203,-268 197,-268 191,-262 191,-256 191,-256 191,-244 191,-244 191,-238 197,-232 203,-232 203,-232 318,-232 318,-232 324,-232 330,-238 330,-244 330,-244 330,-256 330,-256 330,-262 324,-268 318,-268"/>
<text text-anchor="middle" x="260.5" y="-247.8" font-family="Courier,monospace" font-size="9.00">CIccFileIO::CIccFileIO()</text>
</g>
<!-- Node0x62bc38c88e10&#45;&gt;Node0x62bc38c89bf0 -->
<g id="edge14" class="edge">
<title>Node0x62bc38c88e10&#45;&gt;Node0x62bc38c89bf0</title>
<path fill="none" stroke="#4a6fa5" d="M69.69,-492.9C81.71,-449.89 117.63,-340.55 186,-279 189.22,-276.1 192.77,-273.47 196.52,-271.09"/>
<polygon fill="#4a6fa5" stroke="#4a6fa5" points="197.64,-272.87 201.73,-268 195.5,-269.25 197.64,-272.87"/>
</g>
<!-- Node0x62bc38c502d0 -->
<g id="node16" class="node">
<title>Node0x62bc38c502d0</title>
<path fill="#f0f4ff" stroke="black" d="M304.5,-210C304.5,-210 216.5,-210 216.5,-210 210.5,-210 204.5,-204 204.5,-198 204.5,-198 204.5,-186 204.5,-186 204.5,-180 210.5,-174 216.5,-174 216.5,-174 304.5,-174 304.5,-174 310.5,-174 316.5,-180 316.5,-186 316.5,-186 316.5,-198 316.5,-198 316.5,-204 310.5,-210 304.5,-210"/>
<text text-anchor="middle" x="260.5" y="-189.8" font-family="Courier,monospace" font-size="9.00">AnalyzeSignatures()</text>
</g>
<!-- Node0x62bc38c88e10&#45;&gt;Node0x62bc38c502d0 -->
<g id="edge15" class="edge">
<title>Node0x62bc38c88e10&#45;&gt;Node0x62bc38c502d0</title>
<path fill="none" stroke="#4a6fa5" d="M67.56,-492.98C75.6,-442.92 104.79,-300.64 186,-221 189.88,-217.19 194.33,-213.87 199.07,-210.97"/>
<polygon fill="#4a6fa5" stroke="#4a6fa5" points="200.13,-212.78 204.31,-207.99 198.06,-209.13 200.13,-212.78"/>
</g>
<!-- Node0x62bc38c89e40 -->
<g id="node17" class="node">
<title>Node0x62bc38c89e40</title>
<path fill="#f0f4ff" stroke="black" d="M304.5,-152C304.5,-152 216.5,-152 216.5,-152 210.5,-152 204.5,-146 204.5,-140 204.5,-140 204.5,-128 204.5,-128 204.5,-122 210.5,-116 216.5,-116 216.5,-116 304.5,-116 304.5,-116 310.5,-116 316.5,-122 316.5,-128 316.5,-128 316.5,-140 316.5,-140 316.5,-146 310.5,-152 304.5,-152"/>
<text text-anchor="middle" x="260.5" y="-131.8" font-family="Courier,monospace" font-size="9.00">CIccProfile::Read()</text>
</g>
<!-- Node0x62bc38c88e10&#45;&gt;Node0x62bc38c89e40 -->
<g id="edge16" class="edge">
<title>Node0x62bc38c88e10&#45;&gt;Node0x62bc38c89e40</title>
<path fill="none" stroke="#4a6fa5" d="M66.14,-492.77C70.64,-436.11 91.89,-261.07 186,-163 189.84,-159 194.29,-155.54 199.08,-152.55"/>
<polygon fill="#4a6fa5" stroke="#4a6fa5" points="200.23,-154.31 204.38,-149.49 198.14,-150.67 200.23,-154.31"/>
</g>
<!-- Node0x62bc38c4fe30 -->
<g id="node18" class="node">
<title>Node0x62bc38c4fe30</title>
<path fill="#f0f4ff" stroke="black" d="M323,-94C323,-94 198,-94 198,-94 192,-94 186,-88 186,-82 186,-82 186,-70 186,-70 186,-64 192,-58 198,-58 198,-58 323,-58 323,-58 329,-58 335,-64 335,-70 335,-70 335,-82 335,-82 335,-88 329,-94 323,-94"/>
<text text-anchor="middle" x="260.5" y="-73.8" font-family="Courier,monospace" font-size="9.00">CIccProfile::CIccProfile()</text>
</g>
<!-- Node0x62bc38c88e10&#45;&gt;Node0x62bc38c4fe30 -->
<g id="edge17" class="edge">
<title>Node0x62bc38c88e10&#45;&gt;Node0x62bc38c4fe30</title>
<path fill="none" stroke="#4a6fa5" d="M65.07,-492.94C66.3,-430.62 78.61,-222.07 186,-105 188.56,-102.21 191.41,-99.69 194.48,-97.41"/>
<polygon fill="#4a6fa5" stroke="#4a6fa5" points="195.68,-99.13 199.45,-94.01 193.31,-95.66 195.68,-99.13"/>
</g>
<!-- Node0x62bc38c892e0 -->
<g id="node19" class="node">
<title>Node0x62bc38c892e0</title>
<path fill="#f0f4ff" stroke="black" d="M302,-36C302,-36 219,-36 219,-36 213,-36 207,-30 207,-24 207,-24 207,-12 207,-12 207,-6 213,0 219,0 219,0 302,0 302,0 308,0 314,-6 314,-12 314,-12 314,-24 314,-24 314,-30 308,-36 302,-36"/>
<text text-anchor="middle" x="260.5" y="-15.8" font-family="Courier,monospace" font-size="9.00">RoundTripAnalyze()</text>
</g>
<!-- Node0x62bc38c88e10&#45;&gt;Node0x62bc38c892e0 -->
<g id="edge18" class="edge">
<title>Node0x62bc38c88e10&#45;&gt;Node0x62bc38c892e0</title>
<path fill="none" stroke="#4a6fa5" d="M67.52,-492.8C78.52,-415.65 124.58,-116.32 186,-47 190.39,-42.05 195.73,-37.93 201.52,-34.51"/>
<polygon fill="#4a6fa5" stroke="#4a6fa5" points="202.67,-36.28 206.94,-31.57 200.66,-32.59 202.67,-36.28"/>
</g>
<!-- Node0x62bc38c8af70 -->
<g id="node20" class="node">
<title>Node0x62bc38c8af70</title>
<path fill="#f0f4ff" stroke="black" d="M446,-819C446,-819 405,-819 405,-819 399,-819 393,-813 393,-807 393,-807 393,-795 393,-795 393,-789 399,-783 405,-783 405,-783 446,-783 446,-783 452,-783 458,-789 458,-795 458,-795 458,-807 458,-807 458,-813 452,-819 446,-819"/>
<text text-anchor="middle" x="425.5" y="-798.8" font-family="Courier,monospace" font-size="9.00">GetColor()</text>
</g>
<!-- Node0x62bc38c4f5d0&#45;&gt;Node0x62bc38c8af70 -->
<g id="edge19" class="edge">
<title>Node0x62bc38c4f5d0&#45;&gt;Node0x62bc38c8af70</title>
<path fill="none" stroke="#4a6fa5" d="M301.31,-934.74C312.85,-930.34 325.02,-924.5 335,-917 368.79,-891.6 396.42,-850.29 411.66,-824.44"/>
<polygon fill="#4a6fa5" stroke="#4a6fa5" points="413.52,-825.41 414.72,-819.17 409.89,-823.3 413.52,-825.41"/>
</g>
<!-- Node0x62bc38c88a20&#45;&gt;Node0x62bc38c8af70 -->
<g id="edge20" class="edge">
<title>Node0x62bc38c88a20&#45;&gt;Node0x62bc38c8af70</title>
<path fill="none" stroke="#4a6fa5" d="M298.77,-874.95C310.58,-870.38 323.54,-864.9 335,-859 355.59,-848.4 377.42,-834.32 394.37,-822.68"/>
<polygon fill="#4a6fa5" stroke="#4a6fa5" points="395.72,-824.3 399.46,-819.15 393.33,-820.84 395.72,-824.3"/>
</g>
<!-- Node0x62bc38c517b0&#45;&gt;Node0x62bc38c8af70 -->
<g id="edge24" class="edge">
<title>Node0x62bc38c517b0&#45;&gt;Node0x62bc38c8af70</title>
<path fill="none" stroke="#4a6fa5" d="M303.9,-822.46C329.55,-817.89 361.98,-812.12 386.75,-807.72"/>
<polygon fill="#4a6fa5" stroke="#4a6fa5" points="387.33,-809.75 392.87,-806.63 386.59,-805.61 387.33,-809.75"/>
</g>
<!-- Node0x62bc38c4f550&#45;&gt;Node0x62bc38c8af70 -->
<g id="edge22" class="edge">
<title>Node0x62bc38c4f550&#45;&gt;Node0x62bc38c8af70</title>
<path fill="none" stroke="#4a6fa5" d="M306.04,-779.92C331.41,-784.44 362.85,-790.03 386.96,-794.32"/>
<polygon fill="#4a6fa5" stroke="#4a6fa5" points="386.65,-796.4 392.93,-795.38 387.39,-792.26 386.65,-796.4"/>
</g>
<!-- Node0x62bc38c890d0&#45;&gt;Node0x62bc38c8af70 -->
<g id="edge21" class="edge">
<title>Node0x62bc38c890d0&#45;&gt;Node0x62bc38c8af70</title>
<path fill="none" stroke="#4a6fa5" d="M295.79,-725.9C308.36,-730.69 322.56,-736.6 335,-743 355.59,-753.6 377.42,-767.68 394.37,-779.32"/>
<polygon fill="#4a6fa5" stroke="#4a6fa5" points="393.33,-781.16 399.46,-782.85 395.72,-777.7 393.33,-781.16"/>
</g>
<!-- Node0x62bc38c89670&#45;&gt;Node0x62bc38c8af70 -->
<g id="edge23" class="edge">
<title>Node0x62bc38c89670&#45;&gt;Node0x62bc38c8af70</title>
<path fill="none" stroke="#4a6fa5" d="M303.6,-668.15C314.45,-672.44 325.68,-677.99 335,-685 368.79,-710.4 396.42,-751.71 411.66,-777.56"/>
<polygon fill="#4a6fa5" stroke="#4a6fa5" points="409.89,-778.7 414.72,-782.83 413.52,-776.59 409.89,-778.7"/>
</g>
</g>
</svg>
