<?xml version="1.0" encoding="UTF-8" standalone="no"?>
<!DOCTYPE svg PUBLIC "-//W3C//DTD SVG 1.1//EN"
 "http://www.w3.org/Graphics/SVG/1.1/DTD/svg11.dtd">
<!-- Generated by graphviz version 2.43.0 (0)
 -->
<!-- Title: Call graph: /home/h02332/po/research/call&#45;graph/analyzer/IccAnalyzerSecurity.ll Pages: 1 -->
<svg width="4534pt" height="14400pt"
 viewBox="0.00 0.00 4534.38 14400.00" xmlns="http://www.w3.org/2000/svg" xmlns:xlink="http://www.w3.org/1999/xlink">
<g id="graph0" class="graph" transform="scale(1.72 1.72) rotate(0) translate(36 8344.77)">
<title>Call graph: /home/h02332/po/research/call&#45;graph/analyzer/IccAnalyzerSecurity.ll</title>
<polygon fill="white" stroke="transparent" points="-36,36 -36,-8344.77 2603,-8344.77 2603,36 -36,36"/>
<!-- Node0x5c963cb17bb0 -->
<g id="node1" class="node">
<title>Node0x5c963cb17bb0</title>
<path fill="#f0f4ff" stroke="black" d="M113,-2101.77C113,-2101.77 17,-2101.77 17,-2101.77 11,-2101.77 5,-2095.77 5,-2089.77 5,-2089.77 5,-2077.77 5,-2077.77 5,-2071.77 11,-2065.77 17,-2065.77 17,-2065.77 113,-2065.77 113,-2065.77 119,-2065.77 125,-2071.77 125,-2077.77 125,-2077.77 125,-2089.77 125,-2089.77 125,-2095.77 119,-2101.77 113,-2101.77"/>
<text text-anchor="middle" x="65" y="-2081.57" font-family="Courier,monospace" font-size="9.00">{HeuristicAnalyze()}</text>
</g>
<!-- Node0x5c963cb55e00 -->
<g id="node2" class="node">
<title>Node0x5c963cb55e00</title>
<path fill="#f0f4ff" stroke="black" d="M429,-4116.77C429,-4116.77 396,-4116.77 396,-4116.77 390,-4116.77 384,-4110.77 384,-4104.77 384,-4104.77 384,-4092.77 384,-4092.77 384,-4086.77 390,-4080.77 396,-4080.77 396,-4080.77 429,-4080.77 429,-4080.77 435,-4080.77 441,-4086.77 441,-4092.77 441,-4092.77 441,-4104.77 441,-4104.77 441,-4110.77 435,-4116.77 429,-4116.77"/>
<text text-anchor="middle" x="412.5" y="-4096.57" font-family="Courier,monospace" font-size="9.00">{printf}</text>
</g>
<!-- Node0x5c963cb17bb0&#45;&gt;Node0x5c963cb55e00 -->
<g id="edge1" class="edge">
<title>Node0x5c963cb17bb0&#45;&gt;Node0x5c963cb55e00</title>
<path fill="none" stroke="#4a6fa5" d="M66.04,-2101.81C66.59,-2291.37 75.43,-3913.44 216,-4066.77 256.51,-4110.95 332.48,-4109.8 376.85,-4104.57"/>
<polygon fill="#4a6fa5" stroke="#4a6fa5" points="377.32,-4106.98 383.95,-4103.67 376.7,-4102.12 377.32,-4106.98"/>
</g>
<!-- Node0x5c963ca9b2a0 -->
<g id="node3" class="node">
<title>Node0x5c963ca9b2a0</title>
<path fill="#f0f4ff" stroke="black" d="M478.5,-4051.77C478.5,-4051.77 346.5,-4051.77 346.5,-4051.77 340.5,-4051.77 334.5,-4045.77 334.5,-4039.77 334.5,-4039.77 334.5,-4027.77 334.5,-4027.77 334.5,-4021.77 340.5,-4015.77 346.5,-4015.77 346.5,-4015.77 478.5,-4015.77 478.5,-4015.77 484.5,-4015.77 490.5,-4021.77 490.5,-4027.77 490.5,-4027.77 490.5,-4039.77 490.5,-4039.77 490.5,-4045.77 484.5,-4051.77 478.5,-4051.77"/>
<text text-anchor="middle" x="412.5" y="-4031.57" font-family="Courier,monospace" font-size="9.00">{CIccFileIO::~CIccFileIO()}</text>
</g>
<!-- Node0x5c963cb17bb0&#45;&gt;Node0x5c963ca9b2a0 -->
<g id="edge2" class="edge">
<title>Node0x5c963cb17bb0&#45;&gt;Node0x5c963ca9b2a0</title>
<path fill="none" stroke="#4a6fa5" d="M66.09,-2101.8C67.13,-2287.84 79.96,-3853.76 216,-4001.77 243.61,-4031.8 287.6,-4040.87 326.87,-4041.96"/>
<polygon fill="#4a6fa5" stroke="#4a6fa5" points="327.11,-4044.41 334.15,-4042.07 327.19,-4039.52 327.11,-4044.41"/>
</g>
<!-- Node0x5c963cb6c840 -->
<g id="node4" class="node">
<title>Node0x5c963cb6c840</title>
<path fill="#f0f4ff" stroke="black" d="M444.5,-3986.77C444.5,-3986.77 380.5,-3986.77 380.5,-3986.77 374.5,-3986.77 368.5,-3980.77 368.5,-3974.77 368.5,-3974.77 368.5,-3962.77 368.5,-3962.77 368.5,-3956.77 374.5,-3950.77 380.5,-3950.77 380.5,-3950.77 444.5,-3950.77 444.5,-3950.77 450.5,-3950.77 456.5,-3956.77 456.5,-3962.77 456.5,-3962.77 456.5,-3974.77 456.5,-3974.77 456.5,-3980.77 450.5,-3986.77 444.5,-3986.77"/>
<text text-anchor="middle" x="412.5" y="-3966.57" font-family="Courier,monospace" font-size="9.00">{ColorReset()}</text>
</g>
<!-- Node0x5c963cb17bb0&#45;&gt;Node0x5c963cb6c840 -->
<g id="edge3" class="edge">
<title>Node0x5c963cb17bb0&#45;&gt;Node0x5c963cb6c840</title>
<path fill="none" stroke="#4a6fa5" d="M66.14,-2102.04C67.71,-2285.65 84.55,-3794.15 216,-3936.77 252.17,-3976.02 316.34,-3979.44 361.26,-3976.05"/>
<polygon fill="#4a6fa5" stroke="#4a6fa5" points="361.53,-3978.48 368.3,-3975.45 361.12,-3973.6 361.53,-3978.48"/>
</g>
<!-- Node0x5c963ca9c180 -->
<g id="node5" class="node">
<title>Node0x5c963ca9c180</title>
<path fill="#f0f4ff" stroke="black" d="M442,-3921.77C442,-3921.77 383,-3921.77 383,-3921.77 377,-3921.77 371,-3915.77 371,-3909.77 371,-3909.77 371,-3897.77 371,-3897.77 371,-3891.77 377,-3885.77 383,-3885.77 383,-3885.77 442,-3885.77 442,-3885.77 448,-3885.77 454,-3891.77 454,-3897.77 454,-3897.77 454,-3909.77 454,-3909.77 454,-3915.77 448,-3921.77 442,-3921.77"/>
<text text-anchor="middle" x="412.5" y="-3901.57" font-family="Courier,monospace" font-size="9.00">{ColorInfo()}</text>
</g>
<!-- Node0x5c963cb17bb0&#45;&gt;Node0x5c963ca9c180 -->
<g id="edge4" class="edge">
<title>Node0x5c963cb17bb0&#45;&gt;Node0x5c963ca9c180</title>
<path fill="none" stroke="#4a6fa5" d="M66.19,-2101.96C68.28,-2281.61 89.06,-3734.45 216,-3871.77 252.9,-3911.68 318.75,-3914.51 363.74,-3910.83"/>
<polygon fill="#4a6fa5" stroke="#4a6fa5" points="364.03,-3913.26 370.78,-3910.19 363.58,-3908.38 364.03,-3913.26"/>
</g>
<!-- Node0x5c963ca9c6d0 -->
<g id="node6" class="node">
<title>Node0x5c963ca9c6d0</title>
<path fill="#f0f4ff" stroke="black" d="M450,-3856.77C450,-3856.77 375,-3856.77 375,-3856.77 369,-3856.77 363,-3850.77 363,-3844.77 363,-3844.77 363,-3832.77 363,-3832.77 363,-3826.77 369,-3820.77 375,-3820.77 375,-3820.77 450,-3820.77 450,-3820.77 456,-3820.77 462,-3826.77 462,-3832.77 462,-3832.77 462,-3844.77 462,-3844.77 462,-3850.77 456,-3856.77 450,-3856.77"/>
<text text-anchor="middle" x="412.5" y="-3836.57" font-family="Courier,monospace" font-size="9.00">{ColorWarning()}</text>
</g>
<!-- Node0x5c963cb17bb0&#45;&gt;Node0x5c963ca9c6d0 -->
<g id="edge5" class="edge">
<title>Node0x5c963cb17bb0&#45;&gt;Node0x5c963ca9c6d0</title>
<path fill="none" stroke="#4a6fa5" d="M66.25,-2101.84C68.88,-2277.36 93.57,-3674.73 216,-3806.77 250.85,-3844.35 311.38,-3849.02 355.88,-3846.36"/>
<polygon fill="#4a6fa5" stroke="#4a6fa5" points="356.06,-3848.8 362.87,-3845.88 355.72,-3843.92 356.06,-3848.8"/>
</g>
<!-- Node0x5c963cb88a70 -->
<g id="node7" class="node">
<title>Node0x5c963cb88a70</title>
<path fill="#f0f4ff" stroke="black" d="M452.5,-3791.77C452.5,-3791.77 372.5,-3791.77 372.5,-3791.77 366.5,-3791.77 360.5,-3785.77 360.5,-3779.77 360.5,-3779.77 360.5,-3767.77 360.5,-3767.77 360.5,-3761.77 366.5,-3755.77 372.5,-3755.77 372.5,-3755.77 452.5,-3755.77 452.5,-3755.77 458.5,-3755.77 464.5,-3761.77 464.5,-3767.77 464.5,-3767.77 464.5,-3779.77 464.5,-3779.77 464.5,-3785.77 458.5,-3791.77 452.5,-3791.77"/>
<text text-anchor="middle" x="412.5" y="-3771.57" font-family="Courier,monospace" font-size="9.00">{ColorCritical()}</text>
</g>
<!-- Node0x5c963cb17bb0&#45;&gt;Node0x5c963cb88a70 -->
<g id="edge6" class="edge">
<title>Node0x5c963cb17bb0&#45;&gt;Node0x5c963cb88a70</title>
<path fill="none" stroke="#4a6fa5" d="M66.32,-2101.96C69.52,-2274.27 98.12,-3615.07 216,-3741.77 250.18,-3778.5 308.88,-3783.76 353.07,-3781.49"/>
<polygon fill="#4a6fa5" stroke="#4a6fa5" points="353.47,-3783.92 360.31,-3781.04 353.17,-3779.03 353.47,-3783.92"/>
</g>
<!-- Node0x5c963ca9bc20 -->
<g id="node8" class="node">
<title>Node0x5c963ca9bc20</title>
<path fill="#f0f4ff" stroke="black" d="M450,-3726.77C450,-3726.77 375,-3726.77 375,-3726.77 369,-3726.77 363,-3720.77 363,-3714.77 363,-3714.77 363,-3702.77 363,-3702.77 363,-3696.77 369,-3690.77 375,-3690.77 375,-3690.77 450,-3690.77 450,-3690.77 456,-3690.77 462,-3696.77 462,-3702.77 462,-3702.77 462,-3714.77 462,-3714.77 462,-3720.77 456,-3726.77 450,-3726.77"/>
<text text-anchor="middle" x="412.5" y="-3706.57" font-family="Courier,monospace" font-size="9.00">{ColorSuccess()}</text>
</g>
<!-- Node0x5c963cb17bb0&#45;&gt;Node0x5c963ca9bc20 -->
<g id="edge7" class="edge">
<title>Node0x5c963cb17bb0&#45;&gt;Node0x5c963ca9bc20</title>
<path fill="none" stroke="#4a6fa5" d="M66.39,-2101.77C70.15,-2269.52 102.6,-3555.33 216,-3676.77 250.98,-3714.23 311.49,-3718.92 355.95,-3716.3"/>
<polygon fill="#4a6fa5" stroke="#4a6fa5" points="356.12,-3718.74 362.94,-3715.82 355.78,-3713.85 356.12,-3718.74"/>
</g>
<!-- Node0x5c963cb5b130 -->
<g id="node9" class="node">
<title>Node0x5c963cb5b130</title>
<path fill="#f0f4ff" stroke="black" d="M476,-3661.77C476,-3661.77 349,-3661.77 349,-3661.77 343,-3661.77 337,-3655.77 337,-3649.77 337,-3649.77 337,-3637.77 337,-3637.77 337,-3631.77 343,-3625.77 349,-3625.77 349,-3625.77 476,-3625.77 476,-3625.77 482,-3625.77 488,-3631.77 488,-3637.77 488,-3637.77 488,-3649.77 488,-3649.77 488,-3655.77 482,-3661.77 476,-3661.77"/>
<text text-anchor="middle" x="412.5" y="-3641.57" font-family="Courier,monospace" font-size="9.00">{CIccFileIO::CIccFileIO()}</text>
</g>
<!-- Node0x5c963cb17bb0&#45;&gt;Node0x5c963cb5b130 -->
<g id="edge8" class="edge">
<title>Node0x5c963cb17bb0&#45;&gt;Node0x5c963cb5b130</title>
<path fill="none" stroke="#4a6fa5" d="M66.46,-2101.81C70.83,-2265.82 107.12,-3495.64 216,-3611.77 244.46,-3642.12 289.67,-3650.93 329.46,-3651.78"/>
<polygon fill="#4a6fa5" stroke="#4a6fa5" points="329.79,-3654.24 336.82,-3651.85 329.84,-3649.34 329.79,-3654.24"/>
</g>
<!-- Node0x5c963cb14120 -->
<g id="node10" class="node">
<title>Node0x5c963cb14120</title>
<path fill="#f0f4ff" stroke="black" d="M460.5,-3596.77C460.5,-3596.77 364.5,-3596.77 364.5,-3596.77 358.5,-3596.77 352.5,-3590.77 352.5,-3584.77 352.5,-3584.77 352.5,-3572.77 352.5,-3572.77 352.5,-3566.77 358.5,-3560.77 364.5,-3560.77 364.5,-3560.77 460.5,-3560.77 460.5,-3560.77 466.5,-3560.77 472.5,-3566.77 472.5,-3572.77 472.5,-3572.77 472.5,-3584.77 472.5,-3584.77 472.5,-3590.77 466.5,-3596.77 460.5,-3596.77"/>
<text text-anchor="middle" x="412.5" y="-3576.57" font-family="Courier,monospace" font-size="9.00">{CIccFileIO::Open()}</text>
</g>
<!-- Node0x5c963cb17bb0&#45;&gt;Node0x5c963cb14120 -->
<g id="edge9" class="edge">
<title>Node0x5c963cb17bb0&#45;&gt;Node0x5c963cb14120</title>
<path fill="none" stroke="#4a6fa5" d="M66.54,-2101.79C71.54,-2261.8 111.63,-3435.93 216,-3546.77 248.39,-3581.16 302.3,-3587.86 345.31,-3586.68"/>
<polygon fill="#4a6fa5" stroke="#4a6fa5" points="345.49,-3589.12 352.39,-3586.41 345.3,-3584.23 345.49,-3589.12"/>
</g>
<!-- Node0x5c963cb6a300 -->
<g id="node11" class="node">
<title>Node0x5c963cb6a300</title>
<path fill="#f0f4ff" stroke="black" d="M447,-3531.77C447,-3531.77 378,-3531.77 378,-3531.77 372,-3531.77 366,-3525.77 366,-3519.77 366,-3519.77 366,-3507.77 366,-3507.77 366,-3501.77 372,-3495.77 378,-3495.77 378,-3495.77 447,-3495.77 447,-3495.77 453,-3495.77 459,-3501.77 459,-3507.77 459,-3507.77 459,-3519.77 459,-3519.77 459,-3525.77 453,-3531.77 447,-3531.77"/>
<text text-anchor="middle" x="412.5" y="-3511.57" font-family="Courier,monospace" font-size="9.00">{ColorHeader()}</text>
</g>
<!-- Node0x5c963cb17bb0&#45;&gt;Node0x5c963cb6a300 -->
<g id="edge10" class="edge">
<title>Node0x5c963cb17bb0&#45;&gt;Node0x5c963cb6a300</title>
<path fill="none" stroke="#4a6fa5" d="M66.64,-2101.96C72.32,-2258.61 116.18,-3376.26 216,-3481.77 251.9,-3519.71 314.01,-3523.9 358.6,-3521.02"/>
<polygon fill="#4a6fa5" stroke="#4a6fa5" points="358.8,-3523.47 365.6,-3520.51 358.44,-3518.58 358.8,-3523.47"/>
</g>
<!-- Node0x5c963cb1c4d0 -->
<g id="node12" class="node">
<title>Node0x5c963cb1c4d0</title>
<path fill="#f0f4ff" stroke="black" d="M427.5,-3466.77C427.5,-3466.77 397.5,-3466.77 397.5,-3466.77 391.5,-3466.77 385.5,-3460.77 385.5,-3454.77 385.5,-3454.77 385.5,-3442.77 385.5,-3442.77 385.5,-3436.77 391.5,-3430.77 397.5,-3430.77 397.5,-3430.77 427.5,-3430.77 427.5,-3430.77 433.5,-3430.77 439.5,-3436.77 439.5,-3442.77 439.5,-3442.77 439.5,-3454.77 439.5,-3454.77 439.5,-3460.77 433.5,-3466.77 427.5,-3466.77"/>
<text text-anchor="middle" x="412.5" y="-3446.57" font-family="Courier,monospace" font-size="9.00">{stat}</text>
</g>
<!-- Node0x5c963cb17bb0&#45;&gt;Node0x5c963cb1c4d0 -->
<g id="edge11" class="edge">
<title>Node0x5c963cb17bb0&#45;&gt;Node0x5c963cb1c4d0</title>
<path fill="none" stroke="#4a6fa5" d="M66.74,-2102.08C73.12,-2254.98 120.71,-3316.57 216,-3416.77 257.65,-3460.56 334.23,-3459.31 378.17,-3454.22"/>
<polygon fill="#4a6fa5" stroke="#4a6fa5" points="378.55,-3456.64 385.19,-3453.34 377.94,-3451.78 378.55,-3456.64"/>
</g>
<!-- Node0x5c963cb106b0 -->
<g id="node13" class="node">
<title>Node0x5c963cb106b0</title>
<path fill="#f0f4ff" stroke="black" d="M455,-3401.77C455,-3401.77 370,-3401.77 370,-3401.77 364,-3401.77 358,-3395.77 358,-3389.77 358,-3389.77 358,-3377.77 358,-3377.77 358,-3371.77 364,-3365.77 370,-3365.77 370,-3365.77 455,-3365.77 455,-3365.77 461,-3365.77 467,-3371.77 467,-3377.77 467,-3377.77 467,-3389.77 467,-3389.77 467,-3395.77 461,-3401.77 455,-3401.77"/>
<text text-anchor="middle" x="412.5" y="-3381.57" font-family="Courier,monospace" font-size="9.00">{CIccIO::Read32()}</text>
</g>
<!-- Node0x5c963cb17bb0&#45;&gt;Node0x5c963cb106b0 -->
<g id="edge12" class="edge">
<title>Node0x5c963cb17bb0&#45;&gt;Node0x5c963cb106b0</title>
<path fill="none" stroke="#4a6fa5" d="M66.86,-2102.12C73.96,-2250.91 125.22,-3256.85 216,-3351.77 250,-3387.32 307.04,-3393.13 350.76,-3391.34"/>
<polygon fill="#4a6fa5" stroke="#4a6fa5" points="351.06,-3393.78 357.93,-3390.97 350.81,-3388.88 351.06,-3393.78"/>
</g>
<!-- Node0x5c963ca9b560 -->
<g id="node14" class="node">
<title>Node0x5c963ca9b560</title>
<path fill="#f0f4ff" stroke="black" d="M541.5,-3336.77C541.5,-3336.77 283.5,-3336.77 283.5,-3336.77 277.5,-3336.77 271.5,-3330.77 271.5,-3324.77 271.5,-3324.77 271.5,-3312.77 271.5,-3312.77 271.5,-3306.77 277.5,-3300.77 283.5,-3300.77 283.5,-3300.77 541.5,-3300.77 541.5,-3300.77 547.5,-3300.77 553.5,-3306.77 553.5,-3312.77 553.5,-3312.77 553.5,-3324.77 553.5,-3324.77 553.5,-3330.77 547.5,-3336.77 541.5,-3336.77"/>
<text text-anchor="middle" x="412.5" y="-3316.57" font-family="Courier,monospace" font-size="9.00">{RunHeuristic_H136_ResponseCurveMeasurementCount()}</text>
</g>
<!-- Node0x5c963cb17bb0&#45;&gt;Node0x5c963ca9b560 -->
<g id="edge13" class="edge">
<title>Node0x5c963cb17bb0&#45;&gt;Node0x5c963ca9b560</title>
<path fill="none" stroke="#4a6fa5" d="M66.98,-2102.08C74.83,-2246.4 129.7,-3197.11 216,-3286.77 229.38,-3300.67 246.29,-3310.02 264.53,-3316.14"/>
<polygon fill="#4a6fa5" stroke="#4a6fa5" points="263.9,-3318.5 271.31,-3318.25 265.36,-3313.83 263.9,-3318.5"/>
</g>
<!-- Node0x5c963ca9b7a0 -->
<g id="node15" class="node">
<title>Node0x5c963ca9b7a0</title>
<path fill="#f0f4ff" stroke="black" d="M489,-3271.77C489,-3271.77 336,-3271.77 336,-3271.77 330,-3271.77 324,-3265.77 324,-3259.77 324,-3259.77 324,-3247.77 324,-3247.77 324,-3241.77 330,-3235.77 336,-3235.77 336,-3235.77 489,-3235.77 489,-3235.77 495,-3235.77 501,-3241.77 501,-3247.77 501,-3247.77 501,-3259.77 501,-3259.77 501,-3265.77 495,-3271.77 489,-3271.77"/>
<text text-anchor="middle" x="412.5" y="-3251.57" font-family="Courier,monospace" font-size="9.00">{RunRawPostLibraryHeuristics()}</text>
</g>
<!-- Node0x5c963cb17bb0&#45;&gt;Node0x5c963ca9b7a0 -->
<g id="edge14" class="edge">
<title>Node0x5c963cb17bb0&#45;&gt;Node0x5c963ca9b7a0</title>
<path fill="none" stroke="#4a6fa5" d="M67.11,-2101.97C75.74,-2241.44 134.17,-3137.34 216,-3221.77 241.81,-3248.39 280.55,-3258.27 316.76,-3260.78"/>
<polygon fill="#4a6fa5" stroke="#4a6fa5" points="316.83,-3263.24 323.96,-3261.18 317.11,-3258.34 316.83,-3263.24"/>
</g>
<!-- Node0x5c963ca9b9e0 -->
<g id="node16" class="node">
<title>Node0x5c963ca9b9e0</title>
<path fill="#f0f4ff" stroke="black" d="M481.5,-3206.77C481.5,-3206.77 343.5,-3206.77 343.5,-3206.77 337.5,-3206.77 331.5,-3200.77 331.5,-3194.77 331.5,-3194.77 331.5,-3182.77 331.5,-3182.77 331.5,-3176.77 337.5,-3170.77 343.5,-3170.77 343.5,-3170.77 481.5,-3170.77 481.5,-3170.77 487.5,-3170.77 493.5,-3176.77 493.5,-3182.77 493.5,-3182.77 493.5,-3194.77 493.5,-3194.77 493.5,-3200.77 487.5,-3206.77 481.5,-3206.77"/>
<text text-anchor="middle" x="412.5" y="-3186.57" font-family="Courier,monospace" font-size="9.00">{RunRawFallbackHeuristics()}</text>
</g>
<!-- Node0x5c963cb17bb0&#45;&gt;Node0x5c963ca9b9e0 -->
<g id="edge15" class="edge">
<title>Node0x5c963cb17bb0&#45;&gt;Node0x5c963ca9b9e0</title>
<path fill="none" stroke="#4a6fa5" d="M65.74,-2101.86C64.25,-2229.93 61.88,-2999.01 216,-3156.77 243.72,-3185.14 286.13,-3194.44 324.38,-3196.1"/>
<polygon fill="#4a6fa5" stroke="#4a6fa5" points="324.4,-3198.55 331.47,-3196.32 324.55,-3193.65 324.4,-3198.55"/>
</g>
<!-- Node0x5c963ca9aa50 -->
<g id="node17" class="node">
<title>Node0x5c963ca9aa50</title>
<path fill="#f0f4ff" stroke="black" d="M528.5,-3141.77C528.5,-3141.77 296.5,-3141.77 296.5,-3141.77 290.5,-3141.77 284.5,-3135.77 284.5,-3129.77 284.5,-3129.77 284.5,-3117.77 284.5,-3117.77 284.5,-3111.77 290.5,-3105.77 296.5,-3105.77 296.5,-3105.77 528.5,-3105.77 528.5,-3105.77 534.5,-3105.77 540.5,-3111.77 540.5,-3117.77 540.5,-3117.77 540.5,-3129.77 540.5,-3129.77 540.5,-3135.77 534.5,-3141.77 528.5,-3141.77"/>
<text text-anchor="middle" x="412.5" y="-3121.57" font-family="Courier,monospace" font-size="9.00">{RunHeuristic_H138_CalculatorBranchingDepth()}</text>
</g>
<!-- Node0x5c963cb17bb0&#45;&gt;Node0x5c963ca9aa50 -->
<g id="edge16" class="edge">
<title>Node0x5c963cb17bb0&#45;&gt;Node0x5c963ca9aa50</title>
<path fill="none" stroke="#4a6fa5" d="M65.91,-2101.95C65.71,-2225.77 70.85,-2944.49 216,-3091.77 232.64,-3108.66 254.5,-3118.77 277.56,-3124.53"/>
<polygon fill="#4a6fa5" stroke="#4a6fa5" points="277.05,-3126.93 284.42,-3126.11 278.15,-3122.15 277.05,-3126.93"/>
</g>
<!-- Node0x5c963caeea70 -->
<g id="node18" class="node">
<title>Node0x5c963caeea70</title>
<path fill="#f0f4ff" stroke="black" d="M455,-3076.77C455,-3076.77 370,-3076.77 370,-3076.77 364,-3076.77 358,-3070.77 358,-3064.77 358,-3064.77 358,-3052.77 358,-3052.77 358,-3046.77 364,-3040.77 370,-3040.77 370,-3040.77 455,-3040.77 455,-3040.77 461,-3040.77 467,-3046.77 467,-3052.77 467,-3052.77 467,-3064.77 467,-3064.77 467,-3070.77 461,-3076.77 455,-3076.77"/>
<text text-anchor="middle" x="412.5" y="-3056.57" font-family="Courier,monospace" font-size="9.00">{CIccIO::Read16()}</text>
</g>
<!-- Node0x5c963cb17bb0&#45;&gt;Node0x5c963caeea70 -->
<g id="edge17" class="edge">
<title>Node0x5c963cb17bb0&#45;&gt;Node0x5c963caeea70</title>
<path fill="none" stroke="#4a6fa5" d="M66.12,-2101.92C67.26,-2221.01 79.75,-2889.9 216,-3026.77 250.59,-3061.52 307.29,-3067.49 350.74,-3065.95"/>
<polygon fill="#4a6fa5" stroke="#4a6fa5" points="350.98,-3068.4 357.86,-3065.63 350.76,-3063.5 350.98,-3068.4"/>
</g>
<!-- Node0x5c963ca9a3a0 -->
<g id="node19" class="node">
<title>Node0x5c963ca9a3a0</title>
<path fill="#f0f4ff" stroke="black" d="M541.5,-3011.77C541.5,-3011.77 283.5,-3011.77 283.5,-3011.77 277.5,-3011.77 271.5,-3005.77 271.5,-2999.77 271.5,-2999.77 271.5,-2987.77 271.5,-2987.77 271.5,-2981.77 277.5,-2975.77 283.5,-2975.77 283.5,-2975.77 541.5,-2975.77 541.5,-2975.77 547.5,-2975.77 553.5,-2981.77 553.5,-2987.77 553.5,-2987.77 553.5,-2999.77 553.5,-2999.77 553.5,-3005.77 547.5,-3011.77 541.5,-3011.77"/>
<text text-anchor="middle" x="412.5" y="-2991.57" font-family="Courier,monospace" font-size="9.00">{RunHeuristic_H137_HighDimensionalGridComplexity()}</text>
</g>
<!-- Node0x5c963cb17bb0&#45;&gt;Node0x5c963ca9a3a0 -->
<g id="edge18" class="edge">
<title>Node0x5c963cb17bb0&#45;&gt;Node0x5c963ca9a3a0</title>
<path fill="none" stroke="#4a6fa5" d="M66.34,-2101.77C68.9,-2215.64 88.58,-2835.23 216,-2961.77 229.58,-2975.26 246.5,-2984.39 264.67,-2990.43"/>
<polygon fill="#4a6fa5" stroke="#4a6fa5" points="264,-2992.79 271.41,-2992.52 265.45,-2988.11 264,-2992.79"/>
</g>
<!-- Node0x5c963ca9b0e0 -->
<g id="node20" class="node">
<title>Node0x5c963ca9b0e0</title>
<path fill="#f0f4ff" stroke="black" d="M523.5,-2946.77C523.5,-2946.77 301.5,-2946.77 301.5,-2946.77 295.5,-2946.77 289.5,-2940.77 289.5,-2934.77 289.5,-2934.77 289.5,-2922.77 289.5,-2922.77 289.5,-2916.77 295.5,-2910.77 301.5,-2910.77 301.5,-2910.77 523.5,-2910.77 523.5,-2910.77 529.5,-2910.77 535.5,-2916.77 535.5,-2922.77 535.5,-2922.77 535.5,-2934.77 535.5,-2934.77 535.5,-2940.77 529.5,-2946.77 523.5,-2946.77"/>
<text text-anchor="middle" x="412.5" y="-2926.57" font-family="Courier,monospace" font-size="9.00">{RunHeuristic_H135_DuplicateTagSignatures()}</text>
</g>
<!-- Node0x5c963cb17bb0&#45;&gt;Node0x5c963ca9b0e0 -->
<g id="edge19" class="edge">
<title>Node0x5c963cb17bb0&#45;&gt;Node0x5c963ca9b0e0</title>
<path fill="none" stroke="#4a6fa5" d="M66.61,-2101.84C70.68,-2210.91 97.47,-2780.61 216,-2896.77 234.02,-2914.43 257.76,-2924.59 282.47,-2930.11"/>
<polygon fill="#4a6fa5" stroke="#4a6fa5" points="282.11,-2932.54 289.46,-2931.54 283.1,-2927.74 282.11,-2932.54"/>
</g>
<!-- Node0x5c963cb88520 -->
<g id="node21" class="node">
<title>Node0x5c963cb88520</title>
<path fill="#f0f4ff" stroke="black" d="M518,-2881.77C518,-2881.77 307,-2881.77 307,-2881.77 301,-2881.77 295,-2875.77 295,-2869.77 295,-2869.77 295,-2857.77 295,-2857.77 295,-2851.77 301,-2845.77 307,-2845.77 307,-2845.77 518,-2845.77 518,-2845.77 524,-2845.77 530,-2851.77 530,-2857.77 530,-2857.77 530,-2869.77 530,-2869.77 530,-2875.77 524,-2881.77 518,-2881.77"/>
<text text-anchor="middle" x="412.5" y="-2861.57" font-family="Courier,monospace" font-size="9.00">{RunHeuristic_H134_TagTypeReservedBytes()}</text>
</g>
<!-- Node0x5c963cb17bb0&#45;&gt;Node0x5c963cb88520 -->
<g id="edge20" class="edge">
<title>Node0x5c963cb17bb0&#45;&gt;Node0x5c963cb88520</title>
<path fill="none" stroke="#4a6fa5" d="M66.94,-2102.07C72.66,-2206.51 106.39,-2726 216,-2831.77 235.37,-2850.46 261.16,-2860.71 287.65,-2865.94"/>
<polygon fill="#4a6fa5" stroke="#4a6fa5" points="287.44,-2868.39 294.76,-2867.22 288.31,-2863.57 287.44,-2868.39"/>
</g>
<!-- Node0x5c963cab3b90 -->
<g id="node22" class="node">
<title>Node0x5c963cab3b90</title>
<path fill="#f0f4ff" stroke="black" d="M510,-2816.77C510,-2816.77 315,-2816.77 315,-2816.77 309,-2816.77 303,-2810.77 303,-2804.77 303,-2804.77 303,-2792.77 303,-2792.77 303,-2786.77 309,-2780.77 315,-2780.77 315,-2780.77 510,-2780.77 510,-2780.77 516,-2780.77 522,-2786.77 522,-2792.77 522,-2792.77 522,-2804.77 522,-2804.77 522,-2810.77 516,-2816.77 510,-2816.77"/>
<text text-anchor="middle" x="412.5" y="-2796.57" font-family="Courier,monospace" font-size="9.00">{RunHeuristic_H133_FlagsReservedBits()}</text>
</g>
<!-- Node0x5c963cb17bb0&#45;&gt;Node0x5c963cab3b90 -->
<g id="edge21" class="edge">
<title>Node0x5c963cb17bb0&#45;&gt;Node0x5c963cab3b90</title>
<path fill="none" stroke="#4a6fa5" d="M67.31,-2102.09C74.78,-2201.1 115.2,-2671.27 216,-2766.77 237.5,-2787.13 266.65,-2797.42 295.87,-2802.1"/>
<polygon fill="#4a6fa5" stroke="#4a6fa5" points="295.62,-2804.54 302.9,-2803.12 296.32,-2799.69 295.62,-2804.54"/>
</g>
<!-- Node0x5c963ca974d0 -->
<g id="node23" class="node">
<title>Node0x5c963ca974d0</title>
<path fill="#f0f4ff" stroke="black" d="M505,-2751.77C505,-2751.77 320,-2751.77 320,-2751.77 314,-2751.77 308,-2745.77 308,-2739.77 308,-2739.77 308,-2727.77 308,-2727.77 308,-2721.77 314,-2715.77 320,-2715.77 320,-2715.77 505,-2715.77 505,-2715.77 511,-2715.77 517,-2721.77 517,-2727.77 517,-2727.77 517,-2739.77 517,-2739.77 517,-2745.77 511,-2751.77 505,-2751.77"/>
<text text-anchor="middle" x="412.5" y="-2731.57" font-family="Courier,monospace" font-size="9.00">{RunHeuristic_H132_ChadDeterminant()}</text>
</g>
<!-- Node0x5c963cb17bb0&#45;&gt;Node0x5c963ca974d0 -->
<g id="edge22" class="edge">
<title>Node0x5c963cb17bb0&#45;&gt;Node0x5c963ca974d0</title>
<path fill="none" stroke="#4a6fa5" d="M67.74,-2101.87C77.03,-2194.7 123.89,-2616.39 216,-2701.77 238.86,-2722.96 270.05,-2733.16 300.79,-2737.49"/>
<polygon fill="#4a6fa5" stroke="#4a6fa5" points="300.5,-2739.92 307.76,-2738.37 301.12,-2735.06 300.5,-2739.92"/>
</g>
<!-- Node0x5c963cb198f0 -->
<g id="node24" class="node">
<title>Node0x5c963cb198f0</title>
<path fill="#f0f4ff" stroke="black" d="M463,-2686.77C463,-2686.77 362,-2686.77 362,-2686.77 356,-2686.77 350,-2680.77 350,-2674.77 350,-2674.77 350,-2662.77 350,-2662.77 350,-2656.77 356,-2650.77 362,-2650.77 362,-2650.77 463,-2650.77 463,-2650.77 469,-2650.77 475,-2656.77 475,-2662.77 475,-2662.77 475,-2674.77 475,-2674.77 475,-2680.77 469,-2686.77 463,-2686.77"/>
<text text-anchor="middle" x="412.5" y="-2666.57" font-family="Courier,monospace" font-size="9.00">{CIccFileIO::Read8()}</text>
</g>
<!-- Node0x5c963cb17bb0&#45;&gt;Node0x5c963cb198f0 -->
<g id="edge23" class="edge">
<title>Node0x5c963cb17bb0&#45;&gt;Node0x5c963cb198f0</title>
<path fill="none" stroke="#4a6fa5" d="M68.3,-2101.96C79.65,-2188.96 132.64,-2561.55 216,-2636.77 249.91,-2667.37 301.26,-2674.83 342.82,-2674.93"/>
<polygon fill="#4a6fa5" stroke="#4a6fa5" points="342.95,-2677.37 349.93,-2674.87 342.91,-2672.47 342.95,-2677.37"/>
</g>
<!-- Node0x5c963ca9a650 -->
<g id="node25" class="node">
<title>Node0x5c963ca9a650</title>
<path fill="#f0f4ff" stroke="black" d="M497,-2621.77C497,-2621.77 328,-2621.77 328,-2621.77 322,-2621.77 316,-2615.77 316,-2609.77 316,-2609.77 316,-2597.77 316,-2597.77 316,-2591.77 322,-2585.77 328,-2585.77 328,-2585.77 497,-2585.77 497,-2585.77 503,-2585.77 509,-2591.77 509,-2597.77 509,-2597.77 509,-2609.77 509,-2609.77 509,-2615.77 503,-2621.77 497,-2621.77"/>
<text text-anchor="middle" x="412.5" y="-2601.57" font-family="Courier,monospace" font-size="9.00">{RunHeuristic_H131_ProfileIdMD5()}</text>
</g>
<!-- Node0x5c963cb17bb0&#45;&gt;Node0x5c963ca9a650 -->
<g id="edge24" class="edge">
<title>Node0x5c963cb17bb0&#45;&gt;Node0x5c963ca9a650</title>
<path fill="none" stroke="#4a6fa5" d="M65.36,-2101.9C63.87,-2174.09 68.74,-2443.28 216,-2571.77 241.34,-2593.88 275.85,-2603.77 308.83,-2607.54"/>
<polygon fill="#4a6fa5" stroke="#4a6fa5" points="308.62,-2609.99 315.84,-2608.26 309.12,-2605.11 308.62,-2609.99"/>
</g>
<!-- Node0x5c963ca9a890 -->
<g id="node26" class="node">
<title>Node0x5c963ca9a890</title>
<path fill="#f0f4ff" stroke="black" d="M497,-2556.77C497,-2556.77 328,-2556.77 328,-2556.77 322,-2556.77 316,-2550.77 316,-2544.77 316,-2544.77 316,-2532.77 316,-2532.77 316,-2526.77 322,-2520.77 328,-2520.77 328,-2520.77 497,-2520.77 497,-2520.77 503,-2520.77 509,-2526.77 509,-2532.77 509,-2532.77 509,-2544.77 509,-2544.77 509,-2550.77 503,-2556.77 497,-2556.77"/>
<text text-anchor="middle" x="412.5" y="-2536.57" font-family="Courier,monospace" font-size="9.00">{RunHeuristic_H130_TagAlignment()}</text>
</g>
<!-- Node0x5c963cb17bb0&#45;&gt;Node0x5c963ca9a890 -->
<g id="edge25" class="edge">
<title>Node0x5c963cb17bb0&#45;&gt;Node0x5c963ca9a890</title>
<path fill="none" stroke="#4a6fa5" d="M66.33,-2102.22C68.61,-2168.74 85.96,-2398.09 216,-2506.77 241.69,-2528.23 276.1,-2538 308.89,-2541.86"/>
<polygon fill="#4a6fa5" stroke="#4a6fa5" points="308.64,-2544.3 315.86,-2542.6 309.15,-2539.43 308.64,-2544.3"/>
</g>
<!-- Node0x5c963cb87390 -->
<g id="node27" class="node">
<title>Node0x5c963cb87390</title>
<path fill="#f0f4ff" stroke="black" d="M507.5,-2491.77C507.5,-2491.77 317.5,-2491.77 317.5,-2491.77 311.5,-2491.77 305.5,-2485.77 305.5,-2479.77 305.5,-2479.77 305.5,-2467.77 305.5,-2467.77 305.5,-2461.77 311.5,-2455.77 317.5,-2455.77 317.5,-2455.77 507.5,-2455.77 507.5,-2455.77 513.5,-2455.77 519.5,-2461.77 519.5,-2467.77 519.5,-2467.77 519.5,-2479.77 519.5,-2479.77 519.5,-2485.77 513.5,-2491.77 507.5,-2491.77"/>
<text text-anchor="middle" x="412.5" y="-2471.57" font-family="Courier,monospace" font-size="9.00">{RunHeuristic_H129_PCSIlluminantD50()}</text>
</g>
<!-- Node0x5c963cb17bb0&#45;&gt;Node0x5c963cb87390 -->
<g id="edge26" class="edge">
<title>Node0x5c963cb17bb0&#45;&gt;Node0x5c963cb87390</title>
<path fill="none" stroke="#4a6fa5" d="M67.6,-2101.88C73.9,-2161.4 102.53,-2352.22 216,-2441.77 239.31,-2460.16 269.13,-2469.79 298.42,-2474.47"/>
<polygon fill="#4a6fa5" stroke="#4a6fa5" points="298.16,-2476.91 305.45,-2475.5 298.88,-2472.06 298.16,-2476.91"/>
</g>
<!-- Node0x5c963cb86e10 -->
<g id="node28" class="node">
<title>Node0x5c963cb86e10</title>
<path fill="#f0f4ff" stroke="black" d="M492,-2426.77C492,-2426.77 333,-2426.77 333,-2426.77 327,-2426.77 321,-2420.77 321,-2414.77 321,-2414.77 321,-2402.77 321,-2402.77 321,-2396.77 327,-2390.77 333,-2390.77 333,-2390.77 492,-2390.77 492,-2390.77 498,-2390.77 504,-2396.77 504,-2402.77 504,-2402.77 504,-2414.77 504,-2414.77 504,-2420.77 498,-2426.77 492,-2426.77"/>
<text text-anchor="middle" x="412.5" y="-2406.57" font-family="Courier,monospace" font-size="9.00">{RunHeuristic_H128_VersionBCD()}</text>
</g>
<!-- Node0x5c963cb17bb0&#45;&gt;Node0x5c963cb86e10 -->
<g id="edge27" class="edge">
<title>Node0x5c963cb17bb0&#45;&gt;Node0x5c963cb86e10</title>
<path fill="none" stroke="#4a6fa5" d="M69.4,-2101.9C80.21,-2154.2 119.03,-2306.07 216,-2376.77 243.89,-2397.1 279.96,-2406.41 313.51,-2410.21"/>
<polygon fill="#4a6fa5" stroke="#4a6fa5" points="313.41,-2412.67 320.63,-2410.94 313.91,-2407.79 313.41,-2412.67"/>
</g>
<!-- Node0x5c963cb5b1c0 -->
<g id="node29" class="node">
<title>Node0x5c963cb5b1c0</title>
<path fill="#f0f4ff" stroke="black" d="M455,-2361.77C455,-2361.77 370,-2361.77 370,-2361.77 364,-2361.77 358,-2355.77 358,-2349.77 358,-2349.77 358,-2337.77 358,-2337.77 358,-2331.77 364,-2325.77 370,-2325.77 370,-2325.77 455,-2325.77 455,-2325.77 461,-2325.77 467,-2331.77 467,-2337.77 467,-2337.77 467,-2349.77 467,-2349.77 467,-2355.77 461,-2361.77 455,-2361.77"/>
<text text-anchor="middle" x="412.5" y="-2341.57" font-family="Courier,monospace" font-size="9.00">{CIccIO::Read64()}</text>
</g>
<!-- Node0x5c963cb17bb0&#45;&gt;Node0x5c963cb5b1c0 -->
<g id="edge28" class="edge">
<title>Node0x5c963cb17bb0&#45;&gt;Node0x5c963cb5b1c0</title>
<path fill="none" stroke="#4a6fa5" d="M72.13,-2101.98C88.04,-2146.17 135.11,-2259.28 216,-2311.77 255.96,-2337.69 309.89,-2344.93 350.99,-2346.12"/>
<polygon fill="#4a6fa5" stroke="#4a6fa5" points="350.94,-2348.57 357.99,-2346.26 351.05,-2343.67 350.94,-2348.57"/>
</g>
<!-- Node0x5c963ca997c0 -->
<g id="node30" class="node">
<title>Node0x5c963ca997c0</title>
<path fill="#f0f4ff" stroke="black" d="M513,-2296.77C513,-2296.77 312,-2296.77 312,-2296.77 306,-2296.77 300,-2290.77 300,-2284.77 300,-2284.77 300,-2272.77 300,-2272.77 300,-2266.77 306,-2260.77 312,-2260.77 312,-2260.77 513,-2260.77 513,-2260.77 519,-2260.77 525,-2266.77 525,-2272.77 525,-2272.77 525,-2284.77 525,-2284.77 525,-2290.77 519,-2296.77 513,-2296.77"/>
<text text-anchor="middle" x="412.5" y="-2276.57" font-family="Courier,monospace" font-size="9.00">{RunHeuristic_H127_PrivateTagRegistry()}</text>
</g>
<!-- Node0x5c963cb17bb0&#45;&gt;Node0x5c963ca997c0 -->
<g id="edge29" class="edge">
<title>Node0x5c963cb17bb0&#45;&gt;Node0x5c963ca997c0</title>
<path fill="none" stroke="#4a6fa5" d="M76.74,-2101.85C98.32,-2136.39 150.5,-2211.45 216,-2246.77 239.34,-2259.36 266.36,-2267.26 292.72,-2272.17"/>
<polygon fill="#4a6fa5" stroke="#4a6fa5" points="292.45,-2274.61 299.77,-2273.41 293.3,-2269.78 292.45,-2274.61"/>
</g>
<!-- Node0x5c963ca9a1f0 -->
<g id="node31" class="node">
<title>Node0x5c963ca9a1f0</title>
<path fill="#f0f4ff" stroke="black" d="M510,-2231.77C510,-2231.77 315,-2231.77 315,-2231.77 309,-2231.77 303,-2225.77 303,-2219.77 303,-2219.77 303,-2207.77 303,-2207.77 303,-2201.77 309,-2195.77 315,-2195.77 315,-2195.77 510,-2195.77 510,-2195.77 516,-2195.77 522,-2201.77 522,-2207.77 522,-2207.77 522,-2219.77 522,-2219.77 522,-2225.77 516,-2231.77 510,-2231.77"/>
<text text-anchor="middle" x="412.5" y="-2211.57" font-family="Courier,monospace" font-size="9.00">{RunHeuristic_H126_PrivateTagMalware()}</text>
</g>
<!-- Node0x5c963cb17bb0&#45;&gt;Node0x5c963ca9a1f0 -->
<g id="edge30" class="edge">
<title>Node0x5c963cb17bb0&#45;&gt;Node0x5c963ca9a1f0</title>
<path fill="none" stroke="#4a6fa5" d="M87.26,-2101.85C114.97,-2124.38 165.84,-2162.28 216,-2181.77 241.01,-2191.48 268.94,-2198.25 295.68,-2202.96"/>
<polygon fill="#4a6fa5" stroke="#4a6fa5" points="295.51,-2205.42 302.82,-2204.18 296.33,-2200.59 295.51,-2205.42"/>
</g>
<!-- Node0x5c963ca99ac0 -->
<g id="node32" class="node">
<title>Node0x5c963ca99ac0</title>
<path fill="#f0f4ff" stroke="black" d="M515.5,-2166.77C515.5,-2166.77 309.5,-2166.77 309.5,-2166.77 303.5,-2166.77 297.5,-2160.77 297.5,-2154.77 297.5,-2154.77 297.5,-2142.77 297.5,-2142.77 297.5,-2136.77 303.5,-2130.77 309.5,-2130.77 309.5,-2130.77 515.5,-2130.77 515.5,-2130.77 521.5,-2130.77 527.5,-2136.77 527.5,-2142.77 527.5,-2142.77 527.5,-2154.77 527.5,-2154.77 527.5,-2160.77 521.5,-2166.77 515.5,-2166.77"/>
<text text-anchor="middle" x="412.5" y="-2146.57" font-family="Courier,monospace" font-size="9.00">{RunHeuristic_H125_TransformSmoothness()}</text>
</g>
<!-- Node0x5c963cb17bb0&#45;&gt;Node0x5c963ca99ac0 -->
<g id="edge31" class="edge">
<title>Node0x5c963cb17bb0&#45;&gt;Node0x5c963ca99ac0</title>
<path fill="none" stroke="#4a6fa5" d="M125.34,-2097.6C152.85,-2103.81 186.02,-2111.02 216,-2116.77 240.01,-2121.37 265.75,-2125.88 290.42,-2130"/>
<polygon fill="#4a6fa5" stroke="#4a6fa5" points="290.04,-2132.42 297.34,-2131.15 290.84,-2127.59 290.04,-2132.42"/>
</g>
<!-- Node0x5c963ca995d0 -->
<g id="node33" class="node">
<title>Node0x5c963ca995d0</title>
<path fill="#f0f4ff" stroke="black" d="M494.5,-2101.77C494.5,-2101.77 330.5,-2101.77 330.5,-2101.77 324.5,-2101.77 318.5,-2095.77 318.5,-2089.77 318.5,-2089.77 318.5,-2077.77 318.5,-2077.77 318.5,-2071.77 324.5,-2065.77 330.5,-2065.77 330.5,-2065.77 494.5,-2065.77 494.5,-2065.77 500.5,-2065.77 506.5,-2071.77 506.5,-2077.77 506.5,-2077.77 506.5,-2089.77 506.5,-2089.77 506.5,-2095.77 500.5,-2101.77 494.5,-2101.77"/>
<text text-anchor="middle" x="412.5" y="-2081.57" font-family="Courier,monospace" font-size="9.00">{RunHeuristic_H124_VersionTags()}</text>
</g>
<!-- Node0x5c963cb17bb0&#45;&gt;Node0x5c963ca995d0 -->
<g id="edge32" class="edge">
<title>Node0x5c963cb17bb0&#45;&gt;Node0x5c963ca995d0</title>
<path fill="none" stroke="#4a6fa5" d="M125,-2083.77C175.93,-2083.77 250.61,-2083.77 310.95,-2083.77"/>
<polygon fill="#4a6fa5" stroke="#4a6fa5" points="311.24,-2086.22 318.24,-2083.77 311.24,-2081.32 311.24,-2086.22"/>
</g>
<!-- Node0x5c963cb86890 -->
<g id="node34" class="node">
<title>Node0x5c963cb86890</title>
<path fill="#f0f4ff" stroke="black" d="M505,-2036.77C505,-2036.77 320,-2036.77 320,-2036.77 314,-2036.77 308,-2030.77 308,-2024.77 308,-2024.77 308,-2012.77 308,-2012.77 308,-2006.77 314,-2000.77 320,-2000.77 320,-2000.77 505,-2000.77 505,-2000.77 511,-2000.77 517,-2006.77 517,-2012.77 517,-2012.77 517,-2024.77 517,-2024.77 517,-2030.77 511,-2036.77 505,-2036.77"/>
<text text-anchor="middle" x="412.5" y="-2016.57" font-family="Courier,monospace" font-size="9.00">{RunHeuristic_H123_NonRequiredTags()}</text>
</g>
<!-- Node0x5c963cb17bb0&#45;&gt;Node0x5c963cb86890 -->
<g id="edge33" class="edge">
<title>Node0x5c963cb17bb0&#45;&gt;Node0x5c963cb86890</title>
<path fill="none" stroke="#4a6fa5" d="M125.01,-2070.57C152.6,-2064.55 185.92,-2057.51 216,-2051.77 243.43,-2046.53 273.11,-2041.3 300.85,-2036.59"/>
<polygon fill="#4a6fa5" stroke="#4a6fa5" points="301.37,-2038.99 307.86,-2035.41 300.55,-2034.16 301.37,-2038.99"/>
</g>
<!-- Node0x5c963ca992d0 -->
<g id="node35" class="node">
<title>Node0x5c963ca992d0</title>
<path fill="#f0f4ff" stroke="black" d="M494.5,-1971.77C494.5,-1971.77 330.5,-1971.77 330.5,-1971.77 324.5,-1971.77 318.5,-1965.77 318.5,-1959.77 318.5,-1959.77 318.5,-1947.77 318.5,-1947.77 318.5,-1941.77 324.5,-1935.77 330.5,-1935.77 330.5,-1935.77 494.5,-1935.77 494.5,-1935.77 500.5,-1935.77 506.5,-1941.77 506.5,-1947.77 506.5,-1947.77 506.5,-1959.77 506.5,-1959.77 506.5,-1965.77 500.5,-1971.77 494.5,-1971.77"/>
<text text-anchor="middle" x="412.5" y="-1951.57" font-family="Courier,monospace" font-size="9.00">{RunHeuristic_H122_TagEncoding()}</text>
</g>
<!-- Node0x5c963cb17bb0&#45;&gt;Node0x5c963ca992d0 -->
<g id="edge34" class="edge">
<title>Node0x5c963cb17bb0&#45;&gt;Node0x5c963ca992d0</title>
<path fill="none" stroke="#4a6fa5" d="M87.79,-2065.53C115.66,-2043.23 166.28,-2006.09 216,-1986.77 245.98,-1975.12 280.11,-1967.58 311.38,-1962.7"/>
<polygon fill="#4a6fa5" stroke="#4a6fa5" points="311.87,-1965.1 318.42,-1961.63 311.14,-1960.26 311.87,-1965.1"/>
</g>
<!-- Node0x5c963cb86520 -->
<g id="node36" class="node">
<title>Node0x5c963cb86520</title>
<path fill="#f0f4ff" stroke="black" d="M510,-1906.77C510,-1906.77 315,-1906.77 315,-1906.77 309,-1906.77 303,-1900.77 303,-1894.77 303,-1894.77 303,-1882.77 303,-1882.77 303,-1876.77 309,-1870.77 315,-1870.77 315,-1870.77 510,-1870.77 510,-1870.77 516,-1870.77 522,-1876.77 522,-1882.77 522,-1882.77 522,-1894.77 522,-1894.77 522,-1900.77 516,-1906.77 510,-1906.77"/>
<text text-anchor="middle" x="412.5" y="-1886.57" font-family="Courier,monospace" font-size="9.00">{RunHeuristic_H121_CharDataRoundTrip()}</text>
</g>
<!-- Node0x5c963cb17bb0&#45;&gt;Node0x5c963cb86520 -->
<g id="edge35" class="edge">
<title>Node0x5c963cb17bb0&#45;&gt;Node0x5c963cb86520</title>
<path fill="none" stroke="#4a6fa5" d="M76.96,-2065.55C98.71,-2031.16 150.92,-1956.94 216,-1921.77 240.29,-1908.64 268.54,-1900.5 295.9,-1895.51"/>
<polygon fill="#4a6fa5" stroke="#4a6fa5" points="296.35,-1897.92 302.83,-1894.31 295.52,-1893.09 296.35,-1897.92"/>
</g>
<!-- Node0x5c963ca990e0 -->
<g id="node37" class="node">
<title>Node0x5c963ca990e0</title>
<path fill="#f0f4ff" stroke="black" d="M513,-1841.77C513,-1841.77 312,-1841.77 312,-1841.77 306,-1841.77 300,-1835.77 300,-1829.77 300,-1829.77 300,-1817.77 300,-1817.77 300,-1811.77 306,-1805.77 312,-1805.77 312,-1805.77 513,-1805.77 513,-1805.77 519,-1805.77 525,-1811.77 525,-1817.77 525,-1817.77 525,-1829.77 525,-1829.77 525,-1835.77 519,-1841.77 513,-1841.77"/>
<text text-anchor="middle" x="412.5" y="-1821.57" font-family="Courier,monospace" font-size="9.00">{RunHeuristic_H120_CurveInvertibility()}</text>
</g>
<!-- Node0x5c963cb17bb0&#45;&gt;Node0x5c963ca990e0 -->
<g id="edge36" class="edge">
<title>Node0x5c963cb17bb0&#45;&gt;Node0x5c963ca990e0</title>
<path fill="none" stroke="#4a6fa5" d="M72.17,-2065.66C88.17,-2021.72 135.44,-1909.21 216,-1856.77 238.71,-1841.99 265.93,-1833.17 292.75,-1828.06"/>
<polygon fill="#4a6fa5" stroke="#4a6fa5" points="293.47,-1830.42 299.93,-1826.77 292.61,-1825.6 293.47,-1830.42"/>
</g>
<!-- Node0x5c963cb862d0 -->
<g id="node38" class="node">
<title>Node0x5c963cb862d0</title>
<path fill="#f0f4ff" stroke="black" d="M505,-1776.77C505,-1776.77 320,-1776.77 320,-1776.77 314,-1776.77 308,-1770.77 308,-1764.77 308,-1764.77 308,-1752.77 308,-1752.77 308,-1746.77 314,-1740.77 320,-1740.77 320,-1740.77 505,-1740.77 505,-1740.77 511,-1740.77 517,-1746.77 517,-1752.77 517,-1752.77 517,-1764.77 517,-1764.77 517,-1770.77 511,-1776.77 505,-1776.77"/>
<text text-anchor="middle" x="412.5" y="-1756.57" font-family="Courier,monospace" font-size="9.00">{RunHeuristic_H119_RoundTripDeltaE()}</text>
</g>
<!-- Node0x5c963cb17bb0&#45;&gt;Node0x5c963cb862d0 -->
<g id="edge37" class="edge">
<title>Node0x5c963cb17bb0&#45;&gt;Node0x5c963cb862d0</title>
<path fill="none" stroke="#4a6fa5" d="M69.43,-2065.72C80.35,-2013.66 119.42,-1862.45 216,-1791.77 240.37,-1773.94 270.99,-1764.45 300.72,-1759.68"/>
<polygon fill="#4a6fa5" stroke="#4a6fa5" points="301.28,-1762.08 307.85,-1758.63 300.56,-1757.23 301.28,-1762.08"/>
</g>
<!-- Node0x5c963ca98e10 -->
<g id="node39" class="node">
<title>Node0x5c963ca98e10</title>
<path fill="#f0f4ff" stroke="black" d="M507.5,-1711.77C507.5,-1711.77 317.5,-1711.77 317.5,-1711.77 311.5,-1711.77 305.5,-1705.77 305.5,-1699.77 305.5,-1699.77 305.5,-1687.77 305.5,-1687.77 305.5,-1681.77 311.5,-1675.77 317.5,-1675.77 317.5,-1675.77 507.5,-1675.77 507.5,-1675.77 513.5,-1675.77 519.5,-1681.77 519.5,-1687.77 519.5,-1687.77 519.5,-1699.77 519.5,-1699.77 519.5,-1705.77 513.5,-1711.77 507.5,-1711.77"/>
<text text-anchor="middle" x="412.5" y="-1691.57" font-family="Courier,monospace" font-size="9.00">{RunHeuristic_H118_CalcCostEstimate()}</text>
</g>
<!-- Node0x5c963cb17bb0&#45;&gt;Node0x5c963ca98e10 -->
<g id="edge38" class="edge">
<title>Node0x5c963cb17bb0&#45;&gt;Node0x5c963ca98e10</title>
<path fill="none" stroke="#4a6fa5" d="M67.64,-2065.72C74.05,-2006.44 102.98,-1816.33 216,-1726.77 239.29,-1708.31 269.1,-1698.55 298.39,-1693.72"/>
<polygon fill="#4a6fa5" stroke="#4a6fa5" points="298.87,-1696.12 305.42,-1692.65 298.14,-1691.28 298.87,-1696.12"/>
</g>
<!-- Node0x5c963ca98970 -->
<g id="node40" class="node">
<title>Node0x5c963ca98970</title>
<path fill="#f0f4ff" stroke="black" d="M502.5,-1646.77C502.5,-1646.77 322.5,-1646.77 322.5,-1646.77 316.5,-1646.77 310.5,-1640.77 310.5,-1634.77 310.5,-1634.77 310.5,-1622.77 310.5,-1622.77 310.5,-1616.77 316.5,-1610.77 322.5,-1610.77 322.5,-1610.77 502.5,-1610.77 502.5,-1610.77 508.5,-1610.77 514.5,-1616.77 514.5,-1622.77 514.5,-1622.77 514.5,-1634.77 514.5,-1634.77 514.5,-1640.77 508.5,-1646.77 502.5,-1646.77"/>
<text text-anchor="middle" x="412.5" y="-1626.57" font-family="Courier,monospace" font-size="9.00">{RunHeuristic_H117_TagTypeAllowed()}</text>
</g>
<!-- Node0x5c963cb17bb0&#45;&gt;Node0x5c963ca98970 -->
<g id="edge39" class="edge">
<title>Node0x5c963cb17bb0&#45;&gt;Node0x5c963ca98970</title>
<path fill="none" stroke="#4a6fa5" d="M66.37,-2065.38C68.76,-1999.08 86.46,-1770.49 216,-1661.77 240.21,-1641.45 272.19,-1631.46 303.27,-1627.01"/>
<polygon fill="#4a6fa5" stroke="#4a6fa5" points="303.67,-1629.43 310.3,-1626.09 303.04,-1624.57 303.67,-1629.43"/>
</g>
<!-- Node0x5c963cb859f0 -->
<g id="node41" class="node">
<title>Node0x5c963cb859f0</title>
<path fill="#f0f4ff" stroke="black" d="M507.5,-1581.77C507.5,-1581.77 317.5,-1581.77 317.5,-1581.77 311.5,-1581.77 305.5,-1575.77 305.5,-1569.77 305.5,-1569.77 305.5,-1557.77 305.5,-1557.77 305.5,-1551.77 311.5,-1545.77 317.5,-1545.77 317.5,-1545.77 507.5,-1545.77 507.5,-1545.77 513.5,-1545.77 519.5,-1551.77 519.5,-1557.77 519.5,-1557.77 519.5,-1569.77 519.5,-1569.77 519.5,-1575.77 513.5,-1581.77 507.5,-1581.77"/>
<text text-anchor="middle" x="412.5" y="-1561.57" font-family="Courier,monospace" font-size="9.00">{RunHeuristic_H116_CprtDescEncoding()}</text>
</g>
<!-- Node0x5c963cb17bb0&#45;&gt;Node0x5c963cb859f0 -->
<g id="edge40" class="edge">
<title>Node0x5c963cb17bb0&#45;&gt;Node0x5c963cb859f0</title>
<path fill="none" stroke="#4a6fa5" d="M65.39,-2065.69C64.03,-1993.72 69.29,-1725.34 216,-1596.77 238.65,-1576.92 268.65,-1566.78 298.33,-1562.04"/>
<polygon fill="#4a6fa5" stroke="#4a6fa5" points="298.89,-1564.43 305.46,-1561 298.18,-1559.59 298.89,-1564.43"/>
</g>
<!-- Node0x5c963ca98c60 -->
<g id="node42" class="node">
<title>Node0x5c963ca98c60</title>
<path fill="#f0f4ff" stroke="black" d="M518,-1516.77C518,-1516.77 307,-1516.77 307,-1516.77 301,-1516.77 295,-1510.77 295,-1504.77 295,-1504.77 295,-1492.77 295,-1492.77 295,-1486.77 301,-1480.77 307,-1480.77 307,-1480.77 518,-1480.77 518,-1480.77 524,-1480.77 530,-1486.77 530,-1492.77 530,-1492.77 530,-1504.77 530,-1504.77 530,-1510.77 524,-1516.77 518,-1516.77"/>
<text text-anchor="middle" x="412.5" y="-1496.57" font-family="Courier,monospace" font-size="9.00">{RunHeuristic_H115_CharacterizationData()}</text>
</g>
<!-- Node0x5c963cb17bb0&#45;&gt;Node0x5c963ca98c60 -->
<g id="edge41" class="edge">
<title>Node0x5c963cb17bb0&#45;&gt;Node0x5c963ca98c60</title>
<path fill="none" stroke="#4a6fa5" d="M68.31,-2065.62C79.73,-1978.81 132.95,-1607.05 216,-1531.77 235.78,-1513.84 261.53,-1503.74 287.8,-1498.38"/>
<polygon fill="#4a6fa5" stroke="#4a6fa5" points="288.43,-1500.76 294.85,-1497.05 287.52,-1495.94 288.43,-1500.76"/>
</g>
<!-- Node0x5c963cb85d80 -->
<g id="node43" class="node">
<title>Node0x5c963cb85d80</title>
<path fill="#f0f4ff" stroke="black" d="M505,-1451.77C505,-1451.77 320,-1451.77 320,-1451.77 314,-1451.77 308,-1445.77 308,-1439.77 308,-1439.77 308,-1427.77 308,-1427.77 308,-1421.77 314,-1415.77 320,-1415.77 320,-1415.77 505,-1415.77 505,-1415.77 511,-1415.77 517,-1421.77 517,-1427.77 517,-1427.77 517,-1439.77 517,-1439.77 517,-1445.77 511,-1451.77 505,-1451.77"/>
<text text-anchor="middle" x="412.5" y="-1431.57" font-family="Courier,monospace" font-size="9.00">{RunHeuristic_H114_CurveSmoothness()}</text>
</g>
<!-- Node0x5c963cb17bb0&#45;&gt;Node0x5c963cb85d80 -->
<g id="edge42" class="edge">
<title>Node0x5c963cb17bb0&#45;&gt;Node0x5c963cb85d80</title>
<path fill="none" stroke="#4a6fa5" d="M67.75,-2065.71C77.11,-1973.06 124.23,-1552.22 216,-1466.77 238.89,-1445.45 270.17,-1435.11 300.99,-1430.64"/>
<polygon fill="#4a6fa5" stroke="#4a6fa5" points="301.35,-1433.06 307.97,-1429.72 300.71,-1428.2 301.35,-1433.06"/>
</g>
<!-- Node0x5c963ca98240 -->
<g id="node44" class="node">
<title>Node0x5c963ca98240</title>
<path fill="#f0f4ff" stroke="black" d="M510,-1386.77C510,-1386.77 315,-1386.77 315,-1386.77 309,-1386.77 303,-1380.77 303,-1374.77 303,-1374.77 303,-1362.77 303,-1362.77 303,-1356.77 309,-1350.77 315,-1350.77 315,-1350.77 510,-1350.77 510,-1350.77 516,-1350.77 522,-1356.77 522,-1362.77 522,-1362.77 522,-1374.77 522,-1374.77 522,-1380.77 516,-1386.77 510,-1386.77"/>
<text text-anchor="middle" x="412.5" y="-1366.57" font-family="Courier,monospace" font-size="9.00">{RunHeuristic_H113_RoundTripFidelity()}</text>
</g>
<!-- Node0x5c963cb17bb0&#45;&gt;Node0x5c963ca98240 -->
<g id="edge43" class="edge">
<title>Node0x5c963cb17bb0&#45;&gt;Node0x5c963ca98240</title>
<path fill="none" stroke="#4a6fa5" d="M67.32,-2065.48C74.85,-1966.66 115.57,-1497.37 216,-1401.77 237.47,-1381.33 266.61,-1370.91 295.83,-1366.08"/>
<polygon fill="#4a6fa5" stroke="#4a6fa5" points="296.3,-1368.49 302.86,-1365.02 295.57,-1363.64 296.3,-1368.49"/>
</g>
<!-- Node0x5c963cb854f0 -->
<g id="node45" class="node">
<title>Node0x5c963cb854f0</title>
<path fill="#f0f4ff" stroke="black" d="M502.5,-1321.77C502.5,-1321.77 322.5,-1321.77 322.5,-1321.77 316.5,-1321.77 310.5,-1315.77 310.5,-1309.77 310.5,-1309.77 310.5,-1297.77 310.5,-1297.77 310.5,-1291.77 316.5,-1285.77 322.5,-1285.77 322.5,-1285.77 502.5,-1285.77 502.5,-1285.77 508.5,-1285.77 514.5,-1291.77 514.5,-1297.77 514.5,-1297.77 514.5,-1309.77 514.5,-1309.77 514.5,-1315.77 508.5,-1321.77 502.5,-1321.77"/>
<text text-anchor="middle" x="412.5" y="-1301.57" font-family="Courier,monospace" font-size="9.00">{RunHeuristic_H112_WtptValidation()}</text>
</g>
<!-- Node0x5c963cb17bb0&#45;&gt;Node0x5c963cb854f0 -->
<g id="edge44" class="edge">
<title>Node0x5c963cb17bb0&#45;&gt;Node0x5c963cb854f0</title>
<path fill="none" stroke="#4a6fa5" d="M66.95,-2065.49C72.74,-1961.25 106.79,-1442.65 216,-1336.77 239.15,-1314.32 271.53,-1303.89 303.29,-1299.67"/>
<polygon fill="#4a6fa5" stroke="#4a6fa5" points="303.81,-1302.08 310.48,-1298.82 303.24,-1297.21 303.81,-1302.08"/>
</g>
<!-- Node0x5c963ca98780 -->
<g id="node46" class="node">
<title>Node0x5c963ca98780</title>
<path fill="#f0f4ff" stroke="black" d="M499.5,-1256.77C499.5,-1256.77 325.5,-1256.77 325.5,-1256.77 319.5,-1256.77 313.5,-1250.77 313.5,-1244.77 313.5,-1244.77 313.5,-1232.77 313.5,-1232.77 313.5,-1226.77 319.5,-1220.77 325.5,-1220.77 325.5,-1220.77 499.5,-1220.77 499.5,-1220.77 505.5,-1220.77 511.5,-1226.77 511.5,-1232.77 511.5,-1232.77 511.5,-1244.77 511.5,-1244.77 511.5,-1250.77 505.5,-1256.77 499.5,-1256.77"/>
<text text-anchor="middle" x="412.5" y="-1236.57" font-family="Courier,monospace" font-size="9.00">{RunHeuristic_H111_ReservedBytes()}</text>
</g>
<!-- Node0x5c963cb17bb0&#45;&gt;Node0x5c963ca98780 -->
<g id="edge45" class="edge">
<title>Node0x5c963cb17bb0&#45;&gt;Node0x5c963ca98780</title>
<path fill="none" stroke="#4a6fa5" d="M66.62,-2065.73C70.76,-1956.84 97.89,-1388.07 216,-1271.77 239.76,-1248.37 273.52,-1237.96 306.32,-1234.05"/>
<polygon fill="#4a6fa5" stroke="#4a6fa5" points="306.6,-1236.48 313.3,-1233.31 306.09,-1231.61 306.6,-1236.48"/>
</g>
<!-- Node0x5c963cb326f0 -->
<g id="node47" class="node">
<title>Node0x5c963cb326f0</title>
<path fill="#f0f4ff" stroke="black" d="M463,-1191.77C463,-1191.77 362,-1191.77 362,-1191.77 356,-1191.77 350,-1185.77 350,-1179.77 350,-1179.77 350,-1167.77 350,-1167.77 350,-1161.77 356,-1155.77 362,-1155.77 362,-1155.77 463,-1155.77 463,-1155.77 469,-1155.77 475,-1161.77 475,-1167.77 475,-1167.77 475,-1179.77 475,-1179.77 475,-1185.77 469,-1191.77 463,-1191.77"/>
<text text-anchor="middle" x="412.5" y="-1171.57" font-family="Courier,monospace" font-size="9.00">{CIccFileIO::Close()}</text>
</g>
<!-- Node0x5c963cb17bb0&#45;&gt;Node0x5c963cb326f0 -->
<g id="edge46" class="edge">
<title>Node0x5c963cb17bb0&#45;&gt;Node0x5c963cb326f0</title>
<path fill="none" stroke="#4a6fa5" d="M66.36,-2065.43C69.02,-1950.77 89.16,-1333.33 216,-1206.77 248.59,-1174.25 300.5,-1166.7 342.64,-1166.91"/>
<polygon fill="#4a6fa5" stroke="#4a6fa5" points="342.81,-1169.36 349.85,-1167.02 342.89,-1164.46 342.81,-1169.36"/>
</g>
<!-- Node0x5c963cb5fca0 -->
<g id="node48" class="node">
<title>Node0x5c963cb5fca0</title>
<path fill="#f0f4ff" stroke="black" d="M460.5,-1126.77C460.5,-1126.77 364.5,-1126.77 364.5,-1126.77 358.5,-1126.77 352.5,-1120.77 352.5,-1114.77 352.5,-1114.77 352.5,-1102.77 352.5,-1102.77 352.5,-1096.77 358.5,-1090.77 364.5,-1090.77 364.5,-1090.77 460.5,-1090.77 460.5,-1090.77 466.5,-1090.77 472.5,-1096.77 472.5,-1102.77 472.5,-1102.77 472.5,-1114.77 472.5,-1114.77 472.5,-1120.77 466.5,-1126.77 460.5,-1126.77"/>
<text text-anchor="middle" x="412.5" y="-1106.57" font-family="Courier,monospace" font-size="9.00">{llvm.memset.p0.i64}</text>
</g>
<!-- Node0x5c963cb17bb0&#45;&gt;Node0x5c963cb5fca0 -->
<g id="edge47" class="edge">
<title>Node0x5c963cb17bb0&#45;&gt;Node0x5c963cb5fca0</title>
<path fill="none" stroke="#4a6fa5" d="M66.13,-2065.64C67.34,-1946.73 80.22,-1278.82 216,-1141.77 249.16,-1108.3 302.75,-1101.18 345.44,-1101.81"/>
<polygon fill="#4a6fa5" stroke="#4a6fa5" points="345.41,-1104.26 352.47,-1101.99 345.53,-1099.36 345.41,-1104.26"/>
</g>
<!-- Node0x5c963cb22ca0 -->
<g id="node49" class="node">
<title>Node0x5c963cb22ca0</title>
<path fill="#f0f4ff" stroke="black" d="M460.5,-1061.77C460.5,-1061.77 364.5,-1061.77 364.5,-1061.77 358.5,-1061.77 352.5,-1055.77 352.5,-1049.77 352.5,-1049.77 352.5,-1037.77 352.5,-1037.77 352.5,-1031.77 358.5,-1025.77 364.5,-1025.77 364.5,-1025.77 460.5,-1025.77 460.5,-1025.77 466.5,-1025.77 472.5,-1031.77 472.5,-1037.77 472.5,-1037.77 472.5,-1049.77 472.5,-1049.77 472.5,-1055.77 466.5,-1061.77 460.5,-1061.77"/>
<text text-anchor="middle" x="412.5" y="-1041.57" font-family="Courier,monospace" font-size="9.00">{CIccFileIO::Seek()}</text>
</g>
<!-- Node0x5c963cb17bb0&#45;&gt;Node0x5c963cb22ca0 -->
<g id="edge48" class="edge">
<title>Node0x5c963cb17bb0&#45;&gt;Node0x5c963cb22ca0</title>
<path fill="none" stroke="#4a6fa5" d="M65.92,-2065.61C65.8,-1941.97 71.34,-1224.25 216,-1076.77 248.99,-1043.13 302.59,-1036.03 345.34,-1036.7"/>
<polygon fill="#4a6fa5" stroke="#4a6fa5" points="345.31,-1039.15 352.37,-1036.89 345.43,-1034.26 345.31,-1039.15"/>
</g>
<!-- Node0x5c963cb857e0 -->
<g id="node50" class="node">
<title>Node0x5c963cb857e0</title>
<path fill="#f0f4ff" stroke="black" d="M513,-996.77C513,-996.77 312,-996.77 312,-996.77 306,-996.77 300,-990.77 300,-984.77 300,-984.77 300,-972.77 300,-972.77 300,-966.77 306,-960.77 312,-960.77 312,-960.77 513,-960.77 513,-960.77 519,-960.77 525,-966.77 525,-972.77 525,-972.77 525,-984.77 525,-984.77 525,-990.77 519,-996.77 513,-996.77"/>
<text text-anchor="middle" x="412.5" y="-976.57" font-family="Courier,monospace" font-size="9.00">{RunHeuristic_H110_ClassTagValidation()}</text>
</g>
<!-- Node0x5c963cb17bb0&#45;&gt;Node0x5c963cb857e0 -->
<g id="edge49" class="edge">
<title>Node0x5c963cb17bb0&#45;&gt;Node0x5c963cb857e0</title>
<path fill="none" stroke="#4a6fa5" d="M65.75,-2065.7C64.34,-1937.8 62.41,-1169.75 216,-1011.77 236.13,-991.06 264.06,-980.38 292.52,-975.38"/>
<polygon fill="#4a6fa5" stroke="#4a6fa5" points="293.23,-977.75 299.76,-974.23 292.46,-972.91 293.23,-977.75"/>
</g>
<!-- Node0x5c963ca982c0 -->
<g id="node51" class="node">
<title>Node0x5c963ca982c0</title>
<path fill="#f0f4ff" stroke="black" d="M510,-931.77C510,-931.77 315,-931.77 315,-931.77 309,-931.77 303,-925.77 303,-919.77 303,-919.77 303,-907.77 303,-907.77 303,-901.77 309,-895.77 315,-895.77 315,-895.77 510,-895.77 510,-895.77 516,-895.77 522,-901.77 522,-907.77 522,-907.77 522,-919.77 522,-919.77 522,-925.77 516,-931.77 510,-931.77"/>
<text text-anchor="middle" x="412.5" y="-911.57" font-family="Courier,monospace" font-size="9.00">{RunHeuristic_H109_ShellcodePatterns()}</text>
</g>
<!-- Node0x5c963cb17bb0&#45;&gt;Node0x5c963ca982c0 -->
<g id="edge50" class="edge">
<title>Node0x5c963cb17bb0&#45;&gt;Node0x5c963ca982c0</title>
<path fill="none" stroke="#4a6fa5" d="M67.11,-2065.58C75.78,-1926.26 134.45,-1031.32 216,-946.77 236.85,-925.15 266.2,-914.44 295.83,-909.7"/>
<polygon fill="#4a6fa5" stroke="#4a6fa5" points="296.38,-912.1 302.96,-908.68 295.68,-907.25 296.38,-912.1"/>
</g>
<!-- Node0x5c963ca96370 -->
<g id="node52" class="node">
<title>Node0x5c963ca96370</title>
<path fill="#f0f4ff" stroke="black" d="M494.5,-866.77C494.5,-866.77 330.5,-866.77 330.5,-866.77 324.5,-866.77 318.5,-860.77 318.5,-854.77 318.5,-854.77 318.5,-842.77 318.5,-842.77 318.5,-836.77 324.5,-830.77 330.5,-830.77 330.5,-830.77 494.5,-830.77 494.5,-830.77 500.5,-830.77 506.5,-836.77 506.5,-842.77 506.5,-842.77 506.5,-854.77 506.5,-854.77 506.5,-860.77 500.5,-866.77 494.5,-866.77"/>
<text text-anchor="middle" x="412.5" y="-846.57" font-family="Courier,monospace" font-size="9.00">{RunHeuristic_H108_PrivateTags()}</text>
</g>
<!-- Node0x5c963cb17bb0&#45;&gt;Node0x5c963ca96370 -->
<g id="edge51" class="edge">
<title>Node0x5c963cb17bb0&#45;&gt;Node0x5c963ca96370</title>
<path fill="none" stroke="#4a6fa5" d="M66.98,-2065.47C74.88,-1921.3 129.99,-971.56 216,-881.77 240.34,-856.36 276.42,-845.98 310.97,-842.68"/>
<polygon fill="#4a6fa5" stroke="#4a6fa5" points="311.54,-845.09 318.32,-842.08 311.14,-840.2 311.54,-845.09"/>
</g>
<!-- Node0x5c963ca96100 -->
<g id="node53" class="node">
<title>Node0x5c963ca96100</title>
<path fill="#f0f4ff" stroke="black" d="M510,-801.77C510,-801.77 315,-801.77 315,-801.77 309,-801.77 303,-795.77 303,-789.77 303,-789.77 303,-777.77 303,-777.77 303,-771.77 309,-765.77 315,-765.77 315,-765.77 510,-765.77 510,-765.77 516,-765.77 522,-771.77 522,-777.77 522,-777.77 522,-789.77 522,-789.77 522,-795.77 516,-801.77 510,-801.77"/>
<text text-anchor="middle" x="412.5" y="-781.57" font-family="Courier,monospace" font-size="9.00">{RunHeuristic_H107_ChannelCrossCheck()}</text>
</g>
<!-- Node0x5c963cb17bb0&#45;&gt;Node0x5c963ca96100 -->
<g id="edge52" class="edge">
<title>Node0x5c963cb17bb0&#45;&gt;Node0x5c963ca96100</title>
<path fill="none" stroke="#4a6fa5" d="M66.86,-2065.44C74.01,-1916.79 125.52,-911.83 216,-816.77 236.71,-795.01 266.01,-784.25 295.64,-779.52"/>
<polygon fill="#4a6fa5" stroke="#4a6fa5" points="296.19,-781.92 302.77,-778.5 295.5,-777.07 296.19,-781.92"/>
</g>
<!-- Node0x5c963cb84990 -->
<g id="node54" class="node">
<title>Node0x5c963cb84990</title>
<path fill="#f0f4ff" stroke="black" d="M481.5,-736.77C481.5,-736.77 343.5,-736.77 343.5,-736.77 337.5,-736.77 331.5,-730.77 331.5,-724.77 331.5,-724.77 331.5,-712.77 331.5,-712.77 331.5,-706.77 337.5,-700.77 343.5,-700.77 343.5,-700.77 481.5,-700.77 481.5,-700.77 487.5,-700.77 493.5,-706.77 493.5,-712.77 493.5,-712.77 493.5,-724.77 493.5,-724.77 493.5,-730.77 487.5,-736.77 481.5,-736.77"/>
<text text-anchor="middle" x="412.5" y="-716.57" font-family="Courier,monospace" font-size="9.00">{RunHeuristic_H106_EnvVar()}</text>
</g>
<!-- Node0x5c963cb17bb0&#45;&gt;Node0x5c963cb84990 -->
<g id="edge53" class="edge">
<title>Node0x5c963cb17bb0&#45;&gt;Node0x5c963cb84990</title>
<path fill="none" stroke="#4a6fa5" d="M66.75,-2065.48C73.17,-1912.71 121.02,-852.12 216,-751.77 243.29,-722.94 285.66,-713.38 323.99,-711.59"/>
<polygon fill="#4a6fa5" stroke="#4a6fa5" points="324.19,-714.04 331.1,-711.34 324.02,-709.14 324.19,-714.04"/>
</g>
<!-- Node0x5c963ca94840 -->
<g id="node55" class="node">
<title>Node0x5c963ca94840</title>
<path fill="#f0f4ff" stroke="black" d="M489,-671.77C489,-671.77 336,-671.77 336,-671.77 330,-671.77 324,-665.77 324,-659.77 324,-659.77 324,-647.77 324,-647.77 324,-641.77 330,-635.77 336,-635.77 336,-635.77 489,-635.77 489,-635.77 495,-635.77 501,-641.77 501,-647.77 501,-647.77 501,-659.77 501,-659.77 501,-665.77 495,-671.77 489,-671.77"/>
<text text-anchor="middle" x="412.5" y="-651.57" font-family="Courier,monospace" font-size="9.00">{RunHeuristic_H105_MatrixTRC()}</text>
</g>
<!-- Node0x5c963cb17bb0&#45;&gt;Node0x5c963ca94840 -->
<g id="edge54" class="edge">
<title>Node0x5c963cb17bb0&#45;&gt;Node0x5c963ca94840</title>
<path fill="none" stroke="#4a6fa5" d="M66.64,-2065.59C72.36,-1909.08 116.51,-792.44 216,-686.77 241.44,-659.75 280.12,-649.63 316.39,-646.98"/>
<polygon fill="#4a6fa5" stroke="#4a6fa5" points="316.76,-649.41 323.6,-646.54 316.47,-644.52 316.76,-649.41"/>
</g>
<!-- Node0x5c963cb7ce00 -->
<g id="node56" class="node">
<title>Node0x5c963cb7ce00</title>
<path fill="#f0f4ff" stroke="black" d="M476,-606.77C476,-606.77 349,-606.77 349,-606.77 343,-606.77 337,-600.77 337,-594.77 337,-594.77 337,-582.77 337,-582.77 337,-576.77 343,-570.77 349,-570.77 349,-570.77 476,-570.77 476,-570.77 482,-570.77 488,-576.77 488,-582.77 488,-582.77 488,-594.77 488,-594.77 488,-600.77 482,-606.77 476,-606.77"/>
<text text-anchor="middle" x="412.5" y="-586.57" font-family="Courier,monospace" font-size="9.00">{RunHeuristic_H104_PRMG()}</text>
</g>
<!-- Node0x5c963cb17bb0&#45;&gt;Node0x5c963cb7ce00 -->
<g id="edge55" class="edge">
<title>Node0x5c963cb17bb0&#45;&gt;Node0x5c963cb7ce00</title>
<path fill="none" stroke="#4a6fa5" d="M66.55,-2065.76C71.58,-1905.89 111.98,-732.78 216,-621.77 244.47,-591.38 289.69,-582.35 329.47,-581.26"/>
<polygon fill="#4a6fa5" stroke="#4a6fa5" points="329.87,-583.71 336.83,-581.15 329.79,-578.81 329.87,-583.71"/>
</g>
<!-- Node0x5c963cb7cd70 -->
<g id="node57" class="node">
<title>Node0x5c963cb7cd70</title>
<path fill="#f0f4ff" stroke="black" d="M473.5,-541.77C473.5,-541.77 351.5,-541.77 351.5,-541.77 345.5,-541.77 339.5,-535.77 339.5,-529.77 339.5,-529.77 339.5,-517.77 339.5,-517.77 339.5,-511.77 345.5,-505.77 351.5,-505.77 351.5,-505.77 473.5,-505.77 473.5,-505.77 479.5,-505.77 485.5,-511.77 485.5,-517.77 485.5,-517.77 485.5,-529.77 485.5,-529.77 485.5,-535.77 479.5,-541.77 473.5,-541.77"/>
<text text-anchor="middle" x="412.5" y="-521.57" font-family="Courier,monospace" font-size="9.00">{RunHeuristic_H103_PCC()}</text>
</g>
<!-- Node0x5c963cb17bb0&#45;&gt;Node0x5c963cb7cd70 -->
<g id="edge56" class="edge">
<title>Node0x5c963cb17bb0&#45;&gt;Node0x5c963cb7cd70</title>
<path fill="none" stroke="#4a6fa5" d="M66.47,-2065.74C70.88,-1901.87 107.48,-673.08 216,-556.77 245.02,-525.66 291.58,-516.9 331.98,-516.16"/>
<polygon fill="#4a6fa5" stroke="#4a6fa5" points="332.21,-518.6 339.19,-516.11 332.17,-513.7 332.21,-518.6"/>
</g>
<!-- Node0x5c963cb78560 -->
<g id="node58" class="node">
<title>Node0x5c963cb78560</title>
<path fill="#f0f4ff" stroke="black" d="M478.5,-476.77C478.5,-476.77 346.5,-476.77 346.5,-476.77 340.5,-476.77 334.5,-470.77 334.5,-464.77 334.5,-464.77 334.5,-452.77 334.5,-452.77 334.5,-446.77 340.5,-440.77 346.5,-440.77 346.5,-440.77 478.5,-440.77 478.5,-440.77 484.5,-440.77 490.5,-446.77 490.5,-452.77 490.5,-452.77 490.5,-464.77 490.5,-464.77 490.5,-470.77 484.5,-476.77 478.5,-476.77"/>
<text text-anchor="middle" x="412.5" y="-456.57" font-family="Courier,monospace" font-size="9.00">{RunLibraryAPIHeuristics()}</text>
</g>
<!-- Node0x5c963cb17bb0&#45;&gt;Node0x5c963cb78560 -->
<g id="edge57" class="edge">
<title>Node0x5c963cb17bb0&#45;&gt;Node0x5c963cb78560</title>
<path fill="none" stroke="#4a6fa5" d="M66.4,-2065.51C70.23,-1896.83 103.03,-613.34 216,-491.77 243.79,-461.86 287.8,-452.58 327.03,-451.24"/>
<polygon fill="#4a6fa5" stroke="#4a6fa5" points="327.36,-453.68 334.3,-451.08 327.25,-448.78 327.36,-453.68"/>
</g>
<!-- Node0x5c963caa0480 -->
<g id="node59" class="node">
<title>Node0x5c963caa0480</title>
<path fill="#f0f4ff" stroke="black" d="M455,-411.77C455,-411.77 370,-411.77 370,-411.77 364,-411.77 358,-405.77 358,-399.77 358,-399.77 358,-387.77 358,-387.77 358,-381.77 364,-375.77 370,-375.77 370,-375.77 455,-375.77 455,-375.77 461,-375.77 467,-381.77 467,-387.77 467,-387.77 467,-399.77 467,-399.77 467,-405.77 461,-411.77 455,-411.77"/>
<text text-anchor="middle" x="412.5" y="-391.57" font-family="Courier,monospace" font-size="9.00">{OpenIccProfile()}</text>
</g>
<!-- Node0x5c963cb17bb0&#45;&gt;Node0x5c963caa0480 -->
<g id="edge58" class="edge">
<title>Node0x5c963cb17bb0&#45;&gt;Node0x5c963caa0480</title>
<path fill="none" stroke="#4a6fa5" d="M66.32,-2065.59C69.57,-1893.41 98.5,-553.67 216,-426.77 249.45,-390.64 306.55,-384.58 350.43,-386.27"/>
<polygon fill="#4a6fa5" stroke="#4a6fa5" points="350.52,-388.73 357.63,-386.62 350.76,-383.83 350.52,-388.73"/>
</g>
<!-- Node0x5c963cb64600 -->
<g id="node60" class="node">
<title>Node0x5c963cb64600</title>
<path fill="#f0f4ff" stroke="black" d="M597,-346.77C597,-346.77 228,-346.77 228,-346.77 222,-346.77 216,-340.77 216,-334.77 216,-334.77 216,-322.77 216,-322.77 216,-316.77 222,-310.77 228,-310.77 228,-310.77 597,-310.77 597,-310.77 603,-310.77 609,-316.77 609,-322.77 609,-322.77 609,-334.77 609,-334.77 609,-340.77 603,-346.77 597,-346.77"/>
<text text-anchor="middle" x="412.5" y="-326.57" font-family="Courier,monospace" font-size="9.00">{RunExternalTool[abi:cxx11](char const*, char const*, char const*, int)}</text>
</g>
<!-- Node0x5c963cb17bb0&#45;&gt;Node0x5c963cb64600 -->
<g id="edge59" class="edge">
<title>Node0x5c963cb17bb0&#45;&gt;Node0x5c963cb64600</title>
<path fill="none" stroke="#4a6fa5" d="M66.26,-2065.71C68.93,-1890.33 93.96,-494.03 216,-361.77 219.61,-357.85 223.5,-354.29 227.62,-351.06"/>
<polygon fill="#4a6fa5" stroke="#4a6fa5" points="229.17,-352.95 233.37,-346.84 226.28,-349 229.17,-352.95"/>
</g>
<!-- Node0x5c963cb66bc0 -->
<g id="node61" class="node">
<title>Node0x5c963cb66bc0</title>
<path fill="#f0f4ff" stroke="black" d="M534,-281.77C534,-281.77 291,-281.77 291,-281.77 285,-281.77 279,-275.77 279,-269.77 279,-269.77 279,-257.77 279,-257.77 279,-251.77 285,-245.77 291,-245.77 291,-245.77 534,-245.77 534,-245.77 540,-245.77 546,-251.77 546,-257.77 546,-257.77 546,-269.77 546,-269.77 546,-275.77 540,-281.77 534,-281.77"/>
<text text-anchor="middle" x="412.5" y="-261.57" font-family="Courier,monospace" font-size="9.00">{basic_string&lt;char, std::char_traits &gt;::empty()}</text>
</g>
<!-- Node0x5c963cb17bb0&#45;&gt;Node0x5c963cb66bc0 -->
<g id="edge60" class="edge">
<title>Node0x5c963cb17bb0&#45;&gt;Node0x5c963cb66bc0</title>
<path fill="none" stroke="#4a6fa5" d="M66.2,-2065.59C68.33,-1886.07 89.47,-434.32 216,-296.77 230.98,-280.48 250.77,-270.29 272,-264.17"/>
<polygon fill="#4a6fa5" stroke="#4a6fa5" points="272.81,-266.49 278.94,-262.32 271.55,-261.75 272.81,-266.49"/>
</g>
<!-- Node0x5c963cb72d10 -->
<g id="node62" class="node">
<title>Node0x5c963cb72d10</title>
<path fill="#f0f4ff" stroke="black" d="M534,-216.77C534,-216.77 291,-216.77 291,-216.77 285,-216.77 279,-210.77 279,-204.77 279,-204.77 279,-192.77 279,-192.77 279,-186.77 285,-180.77 291,-180.77 291,-180.77 534,-180.77 534,-180.77 540,-180.77 546,-186.77 546,-192.77 546,-192.77 546,-204.77 546,-204.77 546,-210.77 540,-216.77 534,-216.77"/>
<text text-anchor="middle" x="412.5" y="-196.57" font-family="Courier,monospace" font-size="9.00">{basic_string&lt;char, std::char_traits &gt;::c_str()}</text>
</g>
<!-- Node0x5c963cb17bb0&#45;&gt;Node0x5c963cb72d10 -->
<g id="edge61" class="edge">
<title>Node0x5c963cb17bb0&#45;&gt;Node0x5c963cb72d10</title>
<path fill="none" stroke="#4a6fa5" d="M66.14,-2065.51C67.76,-1882.03 84.97,-374.63 216,-231.77 230.96,-215.46 250.73,-205.26 271.96,-199.13"/>
<polygon fill="#4a6fa5" stroke="#4a6fa5" points="272.77,-201.45 278.9,-197.28 271.51,-196.72 272.77,-201.45"/>
</g>
<!-- Node0x5c963cb15d50 -->
<g id="node63" class="node">
<title>Node0x5c963cb15d50</title>
<path fill="#f0f4ff" stroke="black" d="M468,-151.77C468,-151.77 357,-151.77 357,-151.77 351,-151.77 345,-145.77 345,-139.77 345,-139.77 345,-127.77 345,-127.77 345,-121.77 351,-115.77 357,-115.77 357,-115.77 468,-115.77 468,-115.77 474,-115.77 480,-121.77 480,-127.77 480,-127.77 480,-139.77 480,-139.77 480,-145.77 474,-151.77 468,-151.77"/>
<text text-anchor="middle" x="412.5" y="-131.57" font-family="Courier,monospace" font-size="9.00">{RunHeaderHeuristics()}</text>
</g>
<!-- Node0x5c963cb17bb0&#45;&gt;Node0x5c963cb15d50 -->
<g id="edge62" class="edge">
<title>Node0x5c963cb17bb0&#45;&gt;Node0x5c963cb15d50</title>
<path fill="none" stroke="#4a6fa5" d="M66.09,-2065.75C67.18,-1879.84 80.4,-315.03 216,-166.77 246.09,-133.87 295.76,-125.81 337.51,-125.88"/>
<polygon fill="#4a6fa5" stroke="#4a6fa5" points="337.64,-128.33 344.67,-125.97 337.71,-123.43 337.64,-128.33"/>
</g>
<!-- Node0x5c963cb79950 -->
<g id="node64" class="node">
<title>Node0x5c963cb79950</title>
<path fill="#f0f4ff" stroke="black" d="M1026,-86.77C1026,-86.77 741,-86.77 741,-86.77 735,-86.77 729,-80.77 729,-74.77 729,-74.77 729,-62.77 729,-62.77 729,-56.77 735,-50.77 741,-50.77 741,-50.77 1026,-50.77 1026,-50.77 1032,-50.77 1038,-56.77 1038,-62.77 1038,-62.77 1038,-74.77 1038,-74.77 1038,-80.77 1032,-86.77 1026,-86.77"/>
<text text-anchor="middle" x="883.5" y="-66.57" font-family="Courier,monospace" font-size="9.00">{basic_string&lt;char, std::char_traits &gt;::~basic_string()}</text>
</g>
<!-- Node0x5c963cb17bb0&#45;&gt;Node0x5c963cb79950 -->
<g id="edge63" class="edge">
<title>Node0x5c963cb17bb0&#45;&gt;Node0x5c963cb79950</title>
<path fill="none" stroke="#4a6fa5" d="M65.95,-2065.64C65.61,-1875.31 67.08,-246.85 216,-101.77 380.68,58.67 690.56,-9.8 821.56,-48.7"/>
<polygon fill="#4a6fa5" stroke="#4a6fa5" points="821.01,-51.09 828.42,-50.75 822.42,-46.39 821.01,-51.09"/>
</g>
<!-- Node0x5c963cb88fc0 -->
<g id="node75" class="node">
<title>Node0x5c963cb88fc0</title>
<path fill="#f0f4ff" stroke="black" d="M910.5,-3823.77C910.5,-3823.77 856.5,-3823.77 856.5,-3823.77 850.5,-3823.77 844.5,-3817.77 844.5,-3811.77 844.5,-3811.77 844.5,-3799.77 844.5,-3799.77 844.5,-3793.77 850.5,-3787.77 856.5,-3787.77 856.5,-3787.77 910.5,-3787.77 910.5,-3787.77 916.5,-3787.77 922.5,-3793.77 922.5,-3799.77 922.5,-3799.77 922.5,-3811.77 922.5,-3811.77 922.5,-3817.77 916.5,-3823.77 910.5,-3823.77"/>
<text text-anchor="middle" x="883.5" y="-3803.57" font-family="Courier,monospace" font-size="9.00">{GetColor()}</text>
</g>
<!-- Node0x5c963cb6c840&#45;&gt;Node0x5c963cb88fc0 -->
<g id="edge71" class="edge">
<title>Node0x5c963cb6c840&#45;&gt;Node0x5c963cb88fc0</title>
<path fill="none" stroke="#4a6fa5" d="M456.64,-3965.26C496.81,-3961.16 557.98,-3952.8 609,-3936.77 697.87,-3908.84 794.54,-3856.94 845.78,-3827.55"/>
<polygon fill="#4a6fa5" stroke="#4a6fa5" points="847.26,-3829.52 852.1,-3823.9 844.81,-3825.28 847.26,-3829.52"/>
</g>
<!-- Node0x5c963ca9c180&#45;&gt;Node0x5c963cb88fc0 -->
<g id="edge85" class="edge">
<title>Node0x5c963ca9c180&#45;&gt;Node0x5c963cb88fc0</title>
<path fill="none" stroke="#4a6fa5" d="M454.1,-3898.02C493.75,-3892.2 555.74,-3882.54 609,-3871.77 689.87,-3855.41 783.09,-3831.91 837.16,-3817.81"/>
<polygon fill="#4a6fa5" stroke="#4a6fa5" points="838.05,-3820.11 844.2,-3815.97 836.81,-3815.37 838.05,-3820.11"/>
</g>
<!-- Node0x5c963ca9c6d0&#45;&gt;Node0x5c963cb88fc0 -->
<g id="edge84" class="edge">
<title>Node0x5c963ca9c6d0&#45;&gt;Node0x5c963cb88fc0</title>
<path fill="none" stroke="#4a6fa5" d="M462.36,-3835.33C553.64,-3828.91 748.8,-3815.17 837.25,-3808.95"/>
<polygon fill="#4a6fa5" stroke="#4a6fa5" points="837.64,-3811.38 844.46,-3808.44 837.3,-3806.49 837.64,-3811.38"/>
</g>
<!-- Node0x5c963cb88a70&#45;&gt;Node0x5c963cb88fc0 -->
<g id="edge83" class="edge">
<title>Node0x5c963cb88a70&#45;&gt;Node0x5c963cb88fc0</title>
<path fill="none" stroke="#4a6fa5" d="M464.58,-3777.25C556.72,-3783.54 749.29,-3796.68 837.11,-3802.67"/>
<polygon fill="#4a6fa5" stroke="#4a6fa5" points="837.11,-3805.13 844.26,-3803.16 837.44,-3800.24 837.11,-3805.13"/>
</g>
<!-- Node0x5c963ca9bc20&#45;&gt;Node0x5c963cb88fc0 -->
<g id="edge82" class="edge">
<title>Node0x5c963ca9bc20&#45;&gt;Node0x5c963cb88fc0</title>
<path fill="none" stroke="#4a6fa5" d="M462.26,-3716.13C501.91,-3722.32 559.23,-3731.75 609,-3741.77 689.75,-3758.01 783.02,-3780.68 837.12,-3794.23"/>
<polygon fill="#4a6fa5" stroke="#4a6fa5" points="836.78,-3796.67 844.17,-3796 837.97,-3791.92 836.78,-3796.67"/>
</g>
<!-- Node0x5c963cb6a300&#45;&gt;Node0x5c963cb88fc0 -->
<g id="edge70" class="edge">
<title>Node0x5c963cb6a300&#45;&gt;Node0x5c963cb88fc0</title>
<path fill="none" stroke="#4a6fa5" d="M459.29,-3514.04C500.45,-3515.97 561.57,-3523.11 609,-3546.77 725.64,-3604.95 826.45,-3729.54 865.37,-3781.86"/>
<polygon fill="#4a6fa5" stroke="#4a6fa5" points="863.46,-3783.4 869.59,-3787.57 867.4,-3780.49 863.46,-3783.4"/>
</g>
<!-- Node0x5c963cb64600&#45;&gt;Node0x5c963cb79950 -->
<g id="edge75" class="edge">
<title>Node0x5c963cb64600&#45;&gt;Node0x5c963cb79950</title>
<path fill="none" stroke="#4a6fa5" d="M586.7,-310.71C594.57,-306.75 602.07,-302.14 609,-296.77 683.9,-238.78 620.45,-160.2 695,-101.77 703.32,-95.24 712.49,-89.84 722.17,-85.37"/>
<polygon fill="#4a6fa5" stroke="#4a6fa5" points="723.16,-87.61 728.6,-82.56 721.2,-83.11 723.16,-87.61"/>
</g>
<!-- Node0x5c963cb89cd0 -->
<g id="node65" class="node">
<title>Node0x5c963cb89cd0</title>
<path fill="#f0f4ff" stroke="black" d="M1923.5,-735.77C1923.5,-735.77 1680.5,-735.77 1680.5,-735.77 1674.5,-735.77 1668.5,-729.77 1668.5,-723.77 1668.5,-723.77 1668.5,-711.77 1668.5,-711.77 1668.5,-705.77 1674.5,-699.77 1680.5,-699.77 1680.5,-699.77 1923.5,-699.77 1923.5,-699.77 1929.5,-699.77 1935.5,-705.77 1935.5,-711.77 1935.5,-711.77 1935.5,-723.77 1935.5,-723.77 1935.5,-729.77 1929.5,-735.77 1923.5,-735.77"/>
<text text-anchor="middle" x="1802" y="-715.57" font-family="Courier,monospace" font-size="9.00">{std::__new_allocator&lt;char&gt;::~__new_allocator()}</text>
</g>
<!-- Node0x5c963cb64600&#45;&gt;Node0x5c963cb89cd0 -->
<g id="edge74" class="edge">
<title>Node0x5c963cb64600&#45;&gt;Node0x5c963cb89cd0</title>
<path fill="none" stroke="#4a6fa5" d="M587.37,-346.95C595.07,-351.15 602.34,-356.05 609,-361.77 701.36,-441.04 606.99,-537.69 695,-621.77 849.55,-769.41 946.26,-722.61 1158,-751.77 1341.82,-777.08 1557.59,-755.28 1686.59,-736.81"/>
<polygon fill="#4a6fa5" stroke="#4a6fa5" points="1687.24,-739.19 1693.82,-735.77 1686.54,-734.34 1687.24,-739.19"/>
</g>
<!-- Node0x5c963ca9d490 -->
<g id="node66" class="node">
<title>Node0x5c963ca9d490</title>
<path fill="#f0f4ff" stroke="black" d="M1005,-606.77C1005,-606.77 762,-606.77 762,-606.77 756,-606.77 750,-600.77 750,-594.77 750,-594.77 750,-582.77 750,-582.77 750,-576.77 756,-570.77 762,-570.77 762,-570.77 1005,-570.77 1005,-570.77 1011,-570.77 1017,-576.77 1017,-582.77 1017,-582.77 1017,-594.77 1017,-594.77 1017,-600.77 1011,-606.77 1005,-606.77"/>
<text text-anchor="middle" x="883.5" y="-586.57" font-family="Courier,monospace" font-size="9.00">{char_traits &gt;::basic_string&lt;std::allocator &gt;()}</text>
</g>
<!-- Node0x5c963cb64600&#45;&gt;Node0x5c963ca9d490 -->
<g id="edge73" class="edge">
<title>Node0x5c963cb64600&#45;&gt;Node0x5c963ca9d490</title>
<path fill="none" stroke="#4a6fa5" d="M584.86,-346.81C593.41,-351.01 601.53,-355.95 609,-361.77 683.75,-419.94 620.3,-498.53 695,-556.77 709.14,-567.79 725.71,-575.58 743.06,-581.01"/>
<polygon fill="#4a6fa5" stroke="#4a6fa5" points="742.59,-583.42 750,-583.05 743.97,-578.72 742.59,-583.42"/>
</g>
<!-- Node0x5c963ca9cb40 -->
<g id="node73" class="node">
<title>Node0x5c963ca9cb40</title>
<path fill="#f0f4ff" stroke="black" d="M902.5,-541.77C902.5,-541.77 864.5,-541.77 864.5,-541.77 858.5,-541.77 852.5,-535.77 852.5,-529.77 852.5,-529.77 852.5,-517.77 852.5,-517.77 852.5,-511.77 858.5,-505.77 864.5,-505.77 864.5,-505.77 902.5,-505.77 902.5,-505.77 908.5,-505.77 914.5,-511.77 914.5,-517.77 914.5,-517.77 914.5,-529.77 914.5,-529.77 914.5,-535.77 908.5,-541.77 902.5,-541.77"/>
<text text-anchor="middle" x="883.5" y="-521.57" font-family="Courier,monospace" font-size="9.00">{strpbrk}</text>
</g>
<!-- Node0x5c963cb64600&#45;&gt;Node0x5c963ca9cb40 -->
<g id="edge72" class="edge">
<title>Node0x5c963cb64600&#45;&gt;Node0x5c963ca9cb40</title>
<path fill="none" stroke="#4a6fa5" d="M580.37,-346.95C590.41,-351.05 600.06,-355.95 609,-361.77 667.07,-399.55 636.97,-453.94 695,-491.77 740.45,-521.39 804.77,-526.17 845.04,-525.8"/>
<polygon fill="#4a6fa5" stroke="#4a6fa5" points="845.31,-528.24 852.27,-525.67 845.23,-523.34 845.31,-528.24"/>
</g>
<!-- Node0x5c963cb89980 -->
<g id="node76" class="node">
<title>Node0x5c963cb89980</title>
<path fill="#f0f4ff" stroke="black" d="M905,-476.77C905,-476.77 862,-476.77 862,-476.77 856,-476.77 850,-470.77 850,-464.77 850,-464.77 850,-452.77 850,-452.77 850,-446.77 856,-440.77 862,-440.77 862,-440.77 905,-440.77 905,-440.77 911,-440.77 917,-446.77 917,-452.77 917,-452.77 917,-464.77 917,-464.77 917,-470.77 911,-476.77 905,-476.77"/>
<text text-anchor="middle" x="883.5" y="-456.57" font-family="Courier,monospace" font-size="9.00">{snprintf}</text>
</g>
<!-- Node0x5c963cb64600&#45;&gt;Node0x5c963cb89980 -->
<g id="edge76" class="edge">
<title>Node0x5c963cb64600&#45;&gt;Node0x5c963cb89980</title>
<path fill="none" stroke="#4a6fa5" d="M564.79,-346.77C580.02,-350.8 595.01,-355.73 609,-361.77 652.99,-380.74 651.02,-407.75 695,-426.77 743.08,-447.56 803.57,-454.87 842.62,-457.42"/>
<polygon fill="#4a6fa5" stroke="#4a6fa5" points="842.53,-459.87 849.66,-457.85 842.82,-454.98 842.53,-459.87"/>
</g>
<!-- Node0x5c963ca9d680 -->
<g id="node77" class="node">
<title>Node0x5c963ca9d680</title>
<path fill="#f0f4ff" stroke="black" d="M900,-411.77C900,-411.77 867,-411.77 867,-411.77 861,-411.77 855,-405.77 855,-399.77 855,-399.77 855,-387.77 855,-387.77 855,-381.77 861,-375.77 867,-375.77 867,-375.77 900,-375.77 900,-375.77 906,-375.77 912,-381.77 912,-387.77 912,-387.77 912,-399.77 912,-399.77 912,-405.77 906,-411.77 900,-411.77"/>
<text text-anchor="middle" x="883.5" y="-391.57" font-family="Courier,monospace" font-size="9.00">{pclose}</text>
</g>
<!-- Node0x5c963cb64600&#45;&gt;Node0x5c963ca9d680 -->
<g id="edge77" class="edge">
<title>Node0x5c963cb64600&#45;&gt;Node0x5c963ca9d680</title>
<path fill="none" stroke="#4a6fa5" d="M543.52,-346.79C646.89,-361.11 784.3,-380.16 847.72,-388.95"/>
<polygon fill="#4a6fa5" stroke="#4a6fa5" points="847.45,-391.38 854.72,-389.92 848.12,-386.53 847.45,-391.38"/>
</g>
<!-- Node0x5c963ca9de50 -->
<g id="node78" class="node">
<title>Node0x5c963ca9de50</title>
<path fill="#f0f4ff" stroke="black" d="M1060,-346.77C1060,-346.77 707,-346.77 707,-346.77 701,-346.77 695,-340.77 695,-334.77 695,-334.77 695,-322.77 695,-322.77 695,-316.77 701,-310.77 707,-310.77 707,-310.77 1060,-310.77 1060,-310.77 1066,-310.77 1072,-316.77 1072,-322.77 1072,-322.77 1072,-334.77 1072,-334.77 1072,-340.77 1066,-346.77 1060,-346.77"/>
<text text-anchor="middle" x="883.5" y="-326.57" font-family="Courier,monospace" font-size="9.00">{std::basic_string&lt;char, std::char_traits &gt;::operator+=(char const*)}</text>
</g>
<!-- Node0x5c963cb64600&#45;&gt;Node0x5c963ca9de50 -->
<g id="edge78" class="edge">
<title>Node0x5c963cb64600&#45;&gt;Node0x5c963ca9de50</title>
<path fill="none" stroke="#4a6fa5" d="M609,-328.77C634.96,-328.77 661.58,-328.77 687.53,-328.77"/>
<polygon fill="#4a6fa5" stroke="#4a6fa5" points="687.83,-331.22 694.83,-328.77 687.83,-326.32 687.83,-331.22"/>
</g>
<!-- Node0x5c963ca9e090 -->
<g id="node79" class="node">
<title>Node0x5c963ca9e090</title>
<path fill="#f0f4ff" stroke="black" d="M898.5,-281.77C898.5,-281.77 868.5,-281.77 868.5,-281.77 862.5,-281.77 856.5,-275.77 856.5,-269.77 856.5,-269.77 856.5,-257.77 856.5,-257.77 856.5,-251.77 862.5,-245.77 868.5,-245.77 868.5,-245.77 898.5,-245.77 898.5,-245.77 904.5,-245.77 910.5,-251.77 910.5,-257.77 910.5,-257.77 910.5,-269.77 910.5,-269.77 910.5,-275.77 904.5,-281.77 898.5,-281.77"/>
<text text-anchor="middle" x="883.5" y="-261.57" font-family="Courier,monospace" font-size="9.00">{fgets}</text>
</g>
<!-- Node0x5c963cb64600&#45;&gt;Node0x5c963ca9e090 -->
<g id="edge79" class="edge">
<title>Node0x5c963cb64600&#45;&gt;Node0x5c963ca9e090</title>
<path fill="none" stroke="#4a6fa5" d="M543.52,-310.75C647.46,-296.34 785.82,-277.17 848.76,-268.44"/>
<polygon fill="#4a6fa5" stroke="#4a6fa5" points="849.46,-270.82 856.06,-267.43 848.79,-265.97 849.46,-270.82"/>
</g>
<!-- Node0x5c963ca9d700 -->
<g id="node80" class="node">
<title>Node0x5c963ca9d700</title>
<path fill="#f0f4ff" stroke="black" d="M898.5,-216.77C898.5,-216.77 868.5,-216.77 868.5,-216.77 862.5,-216.77 856.5,-210.77 856.5,-204.77 856.5,-204.77 856.5,-192.77 856.5,-192.77 856.5,-186.77 862.5,-180.77 868.5,-180.77 868.5,-180.77 898.5,-180.77 898.5,-180.77 904.5,-180.77 910.5,-186.77 910.5,-192.77 910.5,-192.77 910.5,-204.77 910.5,-204.77 910.5,-210.77 904.5,-216.77 898.5,-216.77"/>
<text text-anchor="middle" x="883.5" y="-196.57" font-family="Courier,monospace" font-size="9.00">{popen}</text>
</g>
<!-- Node0x5c963cb64600&#45;&gt;Node0x5c963ca9d700 -->
<g id="edge80" class="edge">
<title>Node0x5c963cb64600&#45;&gt;Node0x5c963ca9d700</title>
<path fill="none" stroke="#4a6fa5" d="M568.14,-310.72C582.21,-306.91 596.04,-302.32 609,-296.77 653.04,-277.9 651.07,-250.9 695,-231.77 745.71,-209.68 810.24,-202.37 848.86,-199.95"/>
<polygon fill="#4a6fa5" stroke="#4a6fa5" points="849.38,-202.38 856.22,-199.53 849.1,-197.49 849.38,-202.38"/>
</g>
<!-- Node0x5c963cb89800 -->
<g id="node81" class="node">
<title>Node0x5c963cb89800</title>
<path fill="#f0f4ff" stroke="black" d="M1023,-151.77C1023,-151.77 744,-151.77 744,-151.77 738,-151.77 732,-145.77 732,-139.77 732,-139.77 732,-127.77 732,-127.77 732,-121.77 738,-115.77 744,-115.77 744,-115.77 1023,-115.77 1023,-115.77 1029,-115.77 1035,-121.77 1035,-127.77 1035,-127.77 1035,-139.77 1035,-139.77 1035,-145.77 1029,-151.77 1023,-151.77"/>
<text text-anchor="middle" x="883.5" y="-131.57" font-family="Courier,monospace" font-size="9.00">{basic_string&lt;char, std::char_traits &gt;::basic_string()}</text>
</g>
<!-- Node0x5c963cb64600&#45;&gt;Node0x5c963cb89800 -->
<g id="edge81" class="edge">
<title>Node0x5c963cb64600&#45;&gt;Node0x5c963cb89800</title>
<path fill="none" stroke="#4a6fa5" d="M582.29,-310.69C591.64,-306.79 600.63,-302.19 609,-296.77 667.16,-259.13 637.06,-204.75 695,-166.77 704.39,-160.61 714.58,-155.51 725.2,-151.29"/>
<polygon fill="#4a6fa5" stroke="#4a6fa5" points="726.18,-153.54 731.87,-148.78 724.45,-148.96 726.18,-153.54"/>
</g>
<!-- Node0x5c963cb89f90 -->
<g id="node67" class="node">
<title>Node0x5c963cb89f90</title>
<path fill="#f0f4ff" stroke="black" d="M1486.5,-736.77C1486.5,-736.77 1201.5,-736.77 1201.5,-736.77 1195.5,-736.77 1189.5,-730.77 1189.5,-724.77 1189.5,-724.77 1189.5,-712.77 1189.5,-712.77 1189.5,-706.77 1195.5,-700.77 1201.5,-700.77 1201.5,-700.77 1486.5,-700.77 1486.5,-700.77 1492.5,-700.77 1498.5,-706.77 1498.5,-712.77 1498.5,-712.77 1498.5,-724.77 1498.5,-724.77 1498.5,-730.77 1492.5,-736.77 1486.5,-736.77"/>
<text text-anchor="middle" x="1344" y="-716.57" font-family="Courier,monospace" font-size="9.00">{basic_string&lt;char, std::char_traits &gt;::_M_local_data()}</text>
</g>
<!-- Node0x5c963ca9d490&#45;&gt;Node0x5c963cb89f90 -->
<g id="edge64" class="edge">
<title>Node0x5c963ca9d490&#45;&gt;Node0x5c963cb89f90</title>
<path fill="none" stroke="#4a6fa5" d="M927.82,-606.93C981.13,-628.66 1074.84,-664.85 1158,-686.77 1175.97,-691.5 1195.1,-695.71 1214,-699.4"/>
<polygon fill="#4a6fa5" stroke="#4a6fa5" points="1213.61,-701.82 1220.95,-700.74 1214.53,-697.01 1213.61,-701.82"/>
</g>
<!-- Node0x5c963cb8db20 -->
<g id="node68" class="node">
<title>Node0x5c963cb8db20</title>
<path fill="#f0f4ff" stroke="black" d="M1457.5,-671.77C1457.5,-671.77 1230.5,-671.77 1230.5,-671.77 1224.5,-671.77 1218.5,-665.77 1218.5,-659.77 1218.5,-659.77 1218.5,-647.77 1218.5,-647.77 1218.5,-641.77 1224.5,-635.77 1230.5,-635.77 1230.5,-635.77 1457.5,-635.77 1457.5,-635.77 1463.5,-635.77 1469.5,-641.77 1469.5,-647.77 1469.5,-647.77 1469.5,-659.77 1469.5,-659.77 1469.5,-665.77 1463.5,-671.77 1457.5,-671.77"/>
<text text-anchor="middle" x="1344" y="-651.57" font-family="Courier,monospace" font-size="9.00">{char_traits &gt;::_Alloc_hider::_Alloc_hider()}</text>
</g>
<!-- Node0x5c963ca9d490&#45;&gt;Node0x5c963cb8db20 -->
<g id="edge65" class="edge">
<title>Node0x5c963ca9d490&#45;&gt;Node0x5c963cb8db20</title>
<path fill="none" stroke="#4a6fa5" d="M1011.61,-606.79C1073.75,-615.6 1148.47,-626.19 1211.22,-635.08"/>
<polygon fill="#4a6fa5" stroke="#4a6fa5" points="1211.14,-637.55 1218.42,-636.11 1211.83,-632.7 1211.14,-637.55"/>
</g>
<!-- Node0x5c963caa2e00 -->
<g id="node69" class="node">
<title>Node0x5c963caa2e00</title>
<path fill="#f0f4ff" stroke="black" d="M1413,-606.77C1413,-606.77 1275,-606.77 1275,-606.77 1269,-606.77 1263,-600.77 1263,-594.77 1263,-594.77 1263,-582.77 1263,-582.77 1263,-576.77 1269,-570.77 1275,-570.77 1275,-570.77 1413,-570.77 1413,-570.77 1419,-570.77 1425,-576.77 1425,-582.77 1425,-582.77 1425,-594.77 1425,-594.77 1425,-600.77 1419,-606.77 1413,-606.77"/>
<text text-anchor="middle" x="1344" y="-586.57" font-family="Courier,monospace" font-size="9.00">{std::__throw_logic_error()}</text>
</g>
<!-- Node0x5c963ca9d490&#45;&gt;Node0x5c963caa2e00 -->
<g id="edge66" class="edge">
<title>Node0x5c963ca9d490&#45;&gt;Node0x5c963caa2e00</title>
<path fill="none" stroke="#4a6fa5" d="M1017.12,-588.77C1093.8,-588.77 1188.14,-588.77 1255.54,-588.77"/>
<polygon fill="#4a6fa5" stroke="#4a6fa5" points="1255.8,-591.22 1262.8,-588.77 1255.8,-586.32 1255.8,-591.22"/>
</g>
<!-- Node0x5c963caa2900 -->
<g id="node70" class="node">
<title>Node0x5c963caa2900</title>
<path fill="#f0f4ff" stroke="black" d="M1460,-541.77C1460,-541.77 1228,-541.77 1228,-541.77 1222,-541.77 1216,-535.77 1216,-529.77 1216,-529.77 1216,-517.77 1216,-517.77 1216,-511.77 1222,-505.77 1228,-505.77 1228,-505.77 1460,-505.77 1460,-505.77 1466,-505.77 1472,-511.77 1472,-517.77 1472,-517.77 1472,-529.77 1472,-529.77 1472,-535.77 1466,-541.77 1460,-541.77"/>
<text text-anchor="middle" x="1344" y="-521.57" font-family="Courier,monospace" font-size="9.00">{char_traits &gt;::_Alloc_hider::~_Alloc_hider()}</text>
</g>
<!-- Node0x5c963ca9d490&#45;&gt;Node0x5c963caa2900 -->
<g id="edge67" class="edge">
<title>Node0x5c963ca9d490&#45;&gt;Node0x5c963caa2900</title>
<path fill="none" stroke="#4a6fa5" d="M1011.61,-570.75C1072.85,-562.06 1146.32,-551.65 1208.51,-542.83"/>
<polygon fill="#4a6fa5" stroke="#4a6fa5" points="1209.06,-545.23 1215.64,-541.82 1208.37,-540.38 1209.06,-545.23"/>
</g>
<!-- Node0x5c963cb8d860 -->
<g id="node71" class="node">
<title>Node0x5c963cb8d860</title>
<path fill="#f0f4ff" stroke="black" d="M1428.5,-476.77C1428.5,-476.77 1259.5,-476.77 1259.5,-476.77 1253.5,-476.77 1247.5,-470.77 1247.5,-464.77 1247.5,-464.77 1247.5,-452.77 1247.5,-452.77 1247.5,-446.77 1253.5,-440.77 1259.5,-440.77 1259.5,-440.77 1428.5,-440.77 1428.5,-440.77 1434.5,-440.77 1440.5,-446.77 1440.5,-452.77 1440.5,-452.77 1440.5,-464.77 1440.5,-464.77 1440.5,-470.77 1434.5,-476.77 1428.5,-476.77"/>
<text text-anchor="middle" x="1344" y="-456.57" font-family="Courier,monospace" font-size="9.00">{std::char_traits&lt;char&gt;::length()}</text>
</g>
<!-- Node0x5c963ca9d490&#45;&gt;Node0x5c963cb8d860 -->
<g id="edge68" class="edge">
<title>Node0x5c963ca9d490&#45;&gt;Node0x5c963cb8d860</title>
<path fill="none" stroke="#4a6fa5" d="M1017.43,-574.25C1036.18,-569.87 1054.87,-564.17 1072,-556.77 1115.98,-537.75 1114.1,-510.95 1158,-491.77 1183.63,-480.57 1212.84,-473.17 1240.37,-468.28"/>
<polygon fill="#4a6fa5" stroke="#4a6fa5" points="1240.84,-470.69 1247.32,-467.09 1240.01,-465.86 1240.84,-470.69"/>
</g>
<!-- Node0x5c963ca95c60 -->
<g id="node72" class="node">
<title>Node0x5c963ca95c60</title>
<path fill="#f0f4ff" stroke="black" d="M1518,-394.77C1518,-394.77 1170,-394.77 1170,-394.77 1164,-394.77 1158,-388.77 1158,-382.77 1158,-382.77 1158,-370.77 1158,-370.77 1158,-364.77 1164,-358.77 1170,-358.77 1170,-358.77 1518,-358.77 1518,-358.77 1524,-358.77 1530,-364.77 1530,-370.77 1530,-370.77 1530,-382.77 1530,-382.77 1530,-388.77 1524,-394.77 1518,-394.77"/>
<text text-anchor="middle" x="1344" y="-374.57" font-family="Courier,monospace" font-size="9.00">{basic_string&lt;char, std::char_traits &gt;::_M_construct&lt;char const*&gt;()}</text>
</g>
<!-- Node0x5c963ca9d490&#45;&gt;Node0x5c963ca95c60 -->
<g id="edge69" class="edge">
<title>Node0x5c963ca9d490&#45;&gt;Node0x5c963ca95c60</title>
<path fill="none" stroke="#4a6fa5" d="M1017.23,-580.11C1036.6,-574.97 1055.54,-567.5 1072,-556.77 1130.03,-518.94 1101.83,-467.31 1158,-426.77 1176.09,-413.71 1197.4,-404.06 1219,-396.93"/>
<polygon fill="#4a6fa5" stroke="#4a6fa5" points="1219.78,-399.26 1225.71,-394.8 1218.3,-394.59 1219.78,-399.26"/>
</g>
<!-- Node0x5c963caa2900&#45;&gt;Node0x5c963cb89cd0 -->
<g id="edge95" class="edge">
<title>Node0x5c963caa2900&#45;&gt;Node0x5c963cb89cd0</title>
<path fill="none" stroke="#4a6fa5" d="M1472.48,-533.61C1492.67,-538.73 1512.6,-546.14 1530,-556.77 1583.86,-589.67 1563.45,-634.81 1616,-669.77 1634.07,-681.79 1654.99,-690.8 1676.12,-697.56"/>
<polygon fill="#4a6fa5" stroke="#4a6fa5" points="1675.57,-699.96 1682.98,-699.68 1677.01,-695.27 1675.57,-699.96"/>
</g>
<!-- Node0x5c963caa3ea0 -->
<g id="node82" class="node">
<title>Node0x5c963caa3ea0</title>
<path fill="#f0f4ff" stroke="black" d="M1818.5,-654.77C1818.5,-654.77 1785.5,-654.77 1785.5,-654.77 1779.5,-654.77 1773.5,-648.77 1773.5,-642.77 1773.5,-642.77 1773.5,-630.77 1773.5,-630.77 1773.5,-624.77 1779.5,-618.77 1785.5,-618.77 1785.5,-618.77 1818.5,-618.77 1818.5,-618.77 1824.5,-618.77 1830.5,-624.77 1830.5,-630.77 1830.5,-630.77 1830.5,-642.77 1830.5,-642.77 1830.5,-648.77 1824.5,-654.77 1818.5,-654.77"/>
<text text-anchor="middle" x="1802" y="-634.57" font-family="Courier,monospace" font-size="9.00">{strlen}</text>
</g>
<!-- Node0x5c963cb8d860&#45;&gt;Node0x5c963caa3ea0 -->
<g id="edge86" class="edge">
<title>Node0x5c963cb8d860&#45;&gt;Node0x5c963caa3ea0</title>
<path fill="none" stroke="#4a6fa5" d="M1440.62,-462.26C1470.92,-466.81 1503.41,-475.52 1530,-491.77 1583.86,-524.67 1562.06,-572.01 1616,-604.77 1662.55,-633.04 1727.15,-638.04 1766.41,-638.1"/>
<polygon fill="#4a6fa5" stroke="#4a6fa5" points="1766.45,-640.55 1773.43,-638.06 1766.42,-635.65 1766.45,-640.55"/>
</g>
<!-- Node0x5c963caa3090 -->
<g id="node83" class="node">
<title>Node0x5c963caa3090</title>
<path fill="#f0f4ff" stroke="black" d="M1934,-589.77C1934,-589.77 1670,-589.77 1670,-589.77 1664,-589.77 1658,-583.77 1658,-577.77 1658,-577.77 1658,-565.77 1658,-565.77 1658,-559.77 1664,-553.77 1670,-553.77 1670,-553.77 1934,-553.77 1934,-553.77 1940,-553.77 1946,-559.77 1946,-565.77 1946,-565.77 1946,-577.77 1946,-577.77 1946,-583.77 1940,-589.77 1934,-589.77"/>
<text text-anchor="middle" x="1802" y="-569.57" font-family="Courier,monospace" font-size="9.00">{basic_string&lt;char, std::char_traits &gt;::_M_create()}</text>
</g>
<!-- Node0x5c963ca95c60&#45;&gt;Node0x5c963caa3090 -->
<g id="edge87" class="edge">
<title>Node0x5c963ca95c60&#45;&gt;Node0x5c963caa3090</title>
<path fill="none" stroke="#4a6fa5" d="M1458.2,-394.81C1483.21,-402.12 1508.6,-412.38 1530,-426.77 1582.37,-461.99 1562.06,-507.01 1616,-539.77 1626.81,-546.33 1638.6,-551.64 1650.82,-555.93"/>
<polygon fill="#4a6fa5" stroke="#4a6fa5" points="1650.23,-558.32 1657.64,-558.21 1651.78,-553.67 1650.23,-558.32"/>
</g>
<!-- Node0x5c963cb8dde0 -->
<g id="node84" class="node">
<title>Node0x5c963cb8dde0</title>
<path fill="#f0f4ff" stroke="black" d="M1928.5,-524.77C1928.5,-524.77 1675.5,-524.77 1675.5,-524.77 1669.5,-524.77 1663.5,-518.77 1663.5,-512.77 1663.5,-512.77 1663.5,-500.77 1663.5,-500.77 1663.5,-494.77 1669.5,-488.77 1675.5,-488.77 1675.5,-488.77 1928.5,-488.77 1928.5,-488.77 1934.5,-488.77 1940.5,-494.77 1940.5,-500.77 1940.5,-500.77 1940.5,-512.77 1940.5,-512.77 1940.5,-518.77 1934.5,-524.77 1928.5,-524.77"/>
<text text-anchor="middle" x="1802" y="-504.57" font-family="Courier,monospace" font-size="9.00">{basic_string&lt;char, std::char_traits &gt;::_M_data()}</text>
</g>
<!-- Node0x5c963ca95c60&#45;&gt;Node0x5c963cb8dde0 -->
<g id="edge88" class="edge">
<title>Node0x5c963ca95c60&#45;&gt;Node0x5c963cb8dde0</title>
<path fill="none" stroke="#4a6fa5" d="M1428.85,-394.8C1461.06,-402.92 1497.8,-413.66 1530,-426.77 1570.54,-443.27 1574.74,-460.16 1616,-474.77 1629.47,-479.53 1643.75,-483.61 1658.16,-487.08"/>
<polygon fill="#4a6fa5" stroke="#4a6fa5" points="1657.87,-489.53 1665.25,-488.74 1658.99,-484.76 1657.87,-489.53"/>
</g>
<!-- Node0x5c963caa2b90 -->
<g id="node85" class="node">
<title>Node0x5c963caa2b90</title>
<path fill="#f0f4ff" stroke="black" d="M1939,-459.77C1939,-459.77 1665,-459.77 1665,-459.77 1659,-459.77 1653,-453.77 1653,-447.77 1653,-447.77 1653,-435.77 1653,-435.77 1653,-429.77 1659,-423.77 1665,-423.77 1665,-423.77 1939,-423.77 1939,-423.77 1945,-423.77 1951,-429.77 1951,-435.77 1951,-435.77 1951,-447.77 1951,-447.77 1951,-453.77 1945,-459.77 1939,-459.77"/>
<text text-anchor="middle" x="1802" y="-439.57" font-family="Courier,monospace" font-size="9.00">{basic_string&lt;char, std::char_traits &gt;::_M_capacity()}</text>
</g>
<!-- Node0x5c963ca95c60&#45;&gt;Node0x5c963caa2b90 -->
<g id="edge89" class="edge">
<title>Node0x5c963ca95c60&#45;&gt;Node0x5c963caa2b90</title>
<path fill="none" stroke="#4a6fa5" d="M1471.42,-394.79C1532.33,-403.47 1605.4,-413.88 1667.24,-422.7"/>
<polygon fill="#4a6fa5" stroke="#4a6fa5" points="1667.06,-425.15 1674.34,-423.71 1667.75,-420.3 1667.06,-425.15"/>
</g>
<!-- Node0x5c963caa4ad0 -->
<g id="node86" class="node">
<title>Node0x5c963caa4ad0</title>
<path fill="#f0f4ff" stroke="black" d="M1976,-394.77C1976,-394.77 1628,-394.77 1628,-394.77 1622,-394.77 1616,-388.77 1616,-382.77 1616,-382.77 1616,-370.77 1616,-370.77 1616,-364.77 1622,-358.77 1628,-358.77 1628,-358.77 1976,-358.77 1976,-358.77 1982,-358.77 1988,-364.77 1988,-370.77 1988,-370.77 1988,-382.77 1988,-382.77 1988,-388.77 1982,-394.77 1976,-394.77"/>
<text text-anchor="middle" x="1802" y="-374.57" font-family="Courier,monospace" font-size="9.00">{basic_string&lt;char, std::char_traits &gt;::_M_construct&lt;char const*&gt;()}</text>
</g>
<!-- Node0x5c963ca95c60&#45;&gt;Node0x5c963caa4ad0 -->
<g id="edge90" class="edge">
<title>Node0x5c963ca95c60&#45;&gt;Node0x5c963caa4ad0</title>
<path fill="none" stroke="#4a6fa5" d="M1530.14,-376.77C1555.97,-376.77 1582.55,-376.77 1608.5,-376.77"/>
<polygon fill="#4a6fa5" stroke="#4a6fa5" points="1608.81,-379.22 1615.81,-376.77 1608.81,-374.32 1608.81,-379.22"/>
</g>
<!-- Node0x5c963cb8fa90 -->
<g id="node87" class="node">
<title>Node0x5c963cb8fa90</title>
<path fill="#f0f4ff" stroke="black" d="M1928.5,-329.77C1928.5,-329.77 1675.5,-329.77 1675.5,-329.77 1669.5,-329.77 1663.5,-323.77 1663.5,-317.77 1663.5,-317.77 1663.5,-305.77 1663.5,-305.77 1663.5,-299.77 1669.5,-293.77 1675.5,-293.77 1675.5,-293.77 1928.5,-293.77 1928.5,-293.77 1934.5,-293.77 1940.5,-299.77 1940.5,-305.77 1940.5,-305.77 1940.5,-317.77 1940.5,-317.77 1940.5,-323.77 1934.5,-329.77 1928.5,-329.77"/>
<text text-anchor="middle" x="1802" y="-309.57" font-family="Courier,monospace" font-size="9.00">{basic_string&lt;char, std::char_traits &gt;::_M_data()}</text>
</g>
<!-- Node0x5c963ca95c60&#45;&gt;Node0x5c963cb8fa90 -->
<g id="edge91" class="edge">
<title>Node0x5c963ca95c60&#45;&gt;Node0x5c963cb8fa90</title>
<path fill="none" stroke="#4a6fa5" d="M1471.42,-358.75C1532.33,-350.06 1605.4,-339.65 1667.24,-330.83"/>
<polygon fill="#4a6fa5" stroke="#4a6fa5" points="1667.75,-333.24 1674.34,-329.82 1667.06,-328.38 1667.75,-333.24"/>
</g>
<!-- Node0x5c963caa4de0 -->
<g id="node88" class="node">
<title>Node0x5c963caa4de0</title>
<path fill="#f0f4ff" stroke="black" d="M1944.5,-264.77C1944.5,-264.77 1659.5,-264.77 1659.5,-264.77 1653.5,-264.77 1647.5,-258.77 1647.5,-252.77 1647.5,-252.77 1647.5,-240.77 1647.5,-240.77 1647.5,-234.77 1653.5,-228.77 1659.5,-228.77 1659.5,-228.77 1944.5,-228.77 1944.5,-228.77 1950.5,-228.77 1956.5,-234.77 1956.5,-240.77 1956.5,-240.77 1956.5,-252.77 1956.5,-252.77 1956.5,-258.77 1950.5,-264.77 1944.5,-264.77"/>
<text text-anchor="middle" x="1802" y="-244.57" font-family="Courier,monospace" font-size="9.00">{basic_string&lt;char, std::char_traits &gt;::_S_copy_chars()}</text>
</g>
<!-- Node0x5c963ca95c60&#45;&gt;Node0x5c963caa4de0 -->
<g id="edge92" class="edge">
<title>Node0x5c963ca95c60&#45;&gt;Node0x5c963caa4de0</title>
<path fill="none" stroke="#4a6fa5" d="M1388.41,-358.68C1441.34,-337.22 1533.91,-301.62 1616,-279.77 1635.18,-274.66 1655.69,-270.12 1675.81,-266.16"/>
<polygon fill="#4a6fa5" stroke="#4a6fa5" points="1676.5,-268.52 1682.91,-264.79 1675.57,-263.71 1676.5,-268.52"/>
</g>
<!-- Node0x5c963caa4840 -->
<g id="node89" class="node">
<title>Node0x5c963caa4840</title>
<path fill="#f0f4ff" stroke="black" d="M1944.5,-199.77C1944.5,-199.77 1659.5,-199.77 1659.5,-199.77 1653.5,-199.77 1647.5,-193.77 1647.5,-187.77 1647.5,-187.77 1647.5,-175.77 1647.5,-175.77 1647.5,-169.77 1653.5,-163.77 1659.5,-163.77 1659.5,-163.77 1944.5,-163.77 1944.5,-163.77 1950.5,-163.77 1956.5,-169.77 1956.5,-175.77 1956.5,-175.77 1956.5,-187.77 1956.5,-187.77 1956.5,-193.77 1950.5,-199.77 1944.5,-199.77"/>
<text text-anchor="middle" x="1802" y="-179.57" font-family="Courier,monospace" font-size="9.00">{basic_string&lt;char, std::char_traits &gt;::_M_set_length()}</text>
</g>
<!-- Node0x5c963ca95c60&#45;&gt;Node0x5c963caa4840 -->
<g id="edge93" class="edge">
<title>Node0x5c963ca95c60&#45;&gt;Node0x5c963caa4840</title>
<path fill="none" stroke="#4a6fa5" d="M1368.51,-358.63C1413.73,-324.69 1517.16,-251.71 1616,-214.77 1629.91,-209.57 1644.73,-205.17 1659.69,-201.46"/>
<polygon fill="#4a6fa5" stroke="#4a6fa5" points="1660.33,-203.83 1666.57,-199.81 1659.19,-199.06 1660.33,-203.83"/>
</g>
<!-- Node0x5c963caa5a70 -->
<g id="node90" class="node">
<title>Node0x5c963caa5a70</title>
<path fill="#f0f4ff" stroke="black" d="M1976,-134.77C1976,-134.77 1628,-134.77 1628,-134.77 1622,-134.77 1616,-128.77 1616,-122.77 1616,-122.77 1616,-110.77 1616,-110.77 1616,-104.77 1622,-98.77 1628,-98.77 1628,-98.77 1976,-98.77 1976,-98.77 1982,-98.77 1988,-104.77 1988,-110.77 1988,-110.77 1988,-122.77 1988,-122.77 1988,-128.77 1982,-134.77 1976,-134.77"/>
<text text-anchor="middle" x="1802" y="-114.57" font-family="Courier,monospace" font-size="9.00">{basic_string&lt;char, std::char_traits &gt;::_M_construct&lt;char const*&gt;()}</text>
</g>
<!-- Node0x5c963ca95c60&#45;&gt;Node0x5c963caa5a70 -->
<g id="edge94" class="edge">
<title>Node0x5c963ca95c60&#45;&gt;Node0x5c963caa5a70</title>
<path fill="none" stroke="#4a6fa5" d="M1360.24,-358.71C1398.34,-314.88 1502.84,-202.61 1616,-149.77 1626.75,-144.75 1638.18,-140.49 1649.87,-136.87"/>
<polygon fill="#4a6fa5" stroke="#4a6fa5" points="1650.78,-139.16 1656.79,-134.82 1649.38,-134.46 1650.78,-139.16"/>
</g>
<!-- Node0x5c963ca9c880 -->
<g id="node74" class="node">
<title>Node0x5c963ca9c880</title>
<path fill="#f0f4ff" stroke="black" d="M118,-8308.77C118,-8308.77 12,-8308.77 12,-8308.77 6,-8308.77 0,-8302.77 0,-8296.77 0,-8296.77 0,-8284.77 0,-8284.77 0,-8278.77 6,-8272.77 12,-8272.77 12,-8272.77 118,-8272.77 118,-8272.77 124,-8272.77 130,-8278.77 130,-8284.77 130,-8284.77 130,-8296.77 130,-8296.77 130,-8302.77 124,-8308.77 118,-8308.77"/>
<text text-anchor="middle" x="65" y="-8288.57" font-family="Courier,monospace" font-size="9.00">{__gxx_personality_v0}</text>
</g>
<!-- Node0x5c963caa5800 -->
<g id="node91" class="node">
<title>Node0x5c963caa5800</title>
<path fill="#f0f4ff" stroke="black" d="M2355,-167.77C2355,-167.77 2086,-167.77 2086,-167.77 2080,-167.77 2074,-161.77 2074,-155.77 2074,-155.77 2074,-143.77 2074,-143.77 2074,-137.77 2080,-131.77 2086,-131.77 2086,-131.77 2355,-131.77 2355,-131.77 2361,-131.77 2367,-137.77 2367,-143.77 2367,-143.77 2367,-155.77 2367,-155.77 2367,-161.77 2361,-167.77 2355,-167.77"/>
<text text-anchor="middle" x="2220.5" y="-147.57" font-family="Courier,monospace" font-size="9.00">{basic_string&lt;char, std::char_traits &gt;::_M_dispose()}</text>
</g>
<!-- Node0x5c963caa5a70&#45;&gt;Node0x5c963caa5800 -->
<g id="edge96" class="edge">
<title>Node0x5c963caa5a70&#45;&gt;Node0x5c963caa5800</title>
<path fill="none" stroke="#4a6fa5" d="M1988.11,-131.43C2014.32,-133.51 2041.03,-135.63 2066.55,-137.65"/>
<polygon fill="#4a6fa5" stroke="#4a6fa5" points="2066.54,-140.11 2073.71,-138.22 2066.93,-135.22 2066.54,-140.11"/>
</g>
<!-- Node0x5c963caa5570 -->
<g id="node92" class="node">
<title>Node0x5c963caa5570</title>
<path fill="#f0f4ff" stroke="black" d="M2279,-102.77C2279,-102.77 2162,-102.77 2162,-102.77 2156,-102.77 2150,-96.77 2150,-90.77 2150,-90.77 2150,-78.77 2150,-78.77 2150,-72.77 2156,-66.77 2162,-66.77 2162,-66.77 2279,-66.77 2279,-66.77 2285,-66.77 2291,-72.77 2291,-78.77 2291,-78.77 2291,-90.77 2291,-90.77 2291,-96.77 2285,-102.77 2279,-102.77"/>
<text text-anchor="middle" x="2220.5" y="-82.57" font-family="Courier,monospace" font-size="9.00">{__clang_call_terminate}</text>
</g>
<!-- Node0x5c963caa5a70&#45;&gt;Node0x5c963caa5570 -->
<g id="edge97" class="edge">
<title>Node0x5c963caa5a70&#45;&gt;Node0x5c963caa5570</title>
<path fill="none" stroke="#4a6fa5" d="M1988.11,-102.55C2042.54,-98.36 2099.11,-94.02 2142.69,-90.67"/>
<polygon fill="#4a6fa5" stroke="#4a6fa5" points="2143.06,-93.1 2149.85,-90.12 2142.68,-88.21 2143.06,-93.1"/>
</g>
<!-- Node0x5c963cb8fd50 -->
<g id="node93" class="node">
<title>Node0x5c963cb8fd50</title>
<path fill="#f0f4ff" stroke="black" d="M2555,-151.77C2555,-151.77 2465,-151.77 2465,-151.77 2459,-151.77 2453,-145.77 2453,-139.77 2453,-139.77 2453,-127.77 2453,-127.77 2453,-121.77 2459,-115.77 2465,-115.77 2465,-115.77 2555,-115.77 2555,-115.77 2561,-115.77 2567,-121.77 2567,-127.77 2567,-127.77 2567,-139.77 2567,-139.77 2567,-145.77 2561,-151.77 2555,-151.77"/>
<text text-anchor="middle" x="2510" y="-131.57" font-family="Courier,monospace" font-size="9.00">{__cxa_begin_catch}</text>
</g>
<!-- Node0x5c963caa5570&#45;&gt;Node0x5c963cb8fd50 -->
<g id="edge98" class="edge">
<title>Node0x5c963caa5570&#45;&gt;Node0x5c963cb8fd50</title>
<path fill="none" stroke="#4a6fa5" d="M2291.1,-96.63C2338.2,-104.66 2399.93,-115.18 2445.66,-122.97"/>
<polygon fill="#4a6fa5" stroke="#4a6fa5" points="2445.26,-125.39 2452.57,-124.15 2446.09,-120.56 2445.26,-125.39"/>
</g>
<!-- Node0x5c963caa66c0 -->
<g id="node94" class="node">
<title>Node0x5c963caa66c0</title>
<path fill="#f0f4ff" stroke="black" d="M2552.5,-86.77C2552.5,-86.77 2467.5,-86.77 2467.5,-86.77 2461.5,-86.77 2455.5,-80.77 2455.5,-74.77 2455.5,-74.77 2455.5,-62.77 2455.5,-62.77 2455.5,-56.77 2461.5,-50.77 2467.5,-50.77 2467.5,-50.77 2552.5,-50.77 2552.5,-50.77 2558.5,-50.77 2564.5,-56.77 2564.5,-62.77 2564.5,-62.77 2564.5,-74.77 2564.5,-74.77 2564.5,-80.77 2558.5,-86.77 2552.5,-86.77"/>
<text text-anchor="middle" x="2510" y="-66.57" font-family="Courier,monospace" font-size="9.00">{std::terminate()}</text>
</g>
<!-- Node0x5c963caa5570&#45;&gt;Node0x5c963caa66c0 -->
<g id="edge99" class="edge">
<title>Node0x5c963caa5570&#45;&gt;Node0x5c963caa66c0</title>
<path fill="none" stroke="#4a6fa5" d="M2291.1,-80.89C2339.05,-78.23 2402.17,-74.71 2448.12,-72.16"/>
<polygon fill="#4a6fa5" stroke="#4a6fa5" points="2448.49,-74.59 2455.34,-71.75 2448.22,-69.7 2448.49,-74.59"/>
</g>
</g>
</svg>
