<?xml version="1.0" encoding="UTF-8" standalone="no"?>
<!DOCTYPE svg PUBLIC "-//W3C//DTD SVG 1.1//EN"
 "http://www.w3.org/Graphics/SVG/1.1/DTD/svg11.dtd">
<!-- Generated by graphviz version 2.43.0 (0)
 -->
<!-- Title: Call graph: /home/h02332/po/research/call&#45;graph/analyzer/IccAnalyzerSignatures.ll Pages: 1 -->
<svg width="404pt" height="601pt"
 viewBox="0.00 0.00 404.20 601.20" xmlns="http://www.w3.org/2000/svg" xmlns:xlink="http://www.w3.org/1999/xlink">
<g id="graph0" class="graph" transform="scale(1 1) rotate(0) translate(21.6 579.6)">
<title>Call graph: /home/h02332/po/research/call&#45;graph/analyzer/IccAnalyzerSignatures.ll</title>
<polygon fill="white" stroke="transparent" points="-21.6,21.6 -21.6,-579.6 382.6,-579.6 382.6,21.6 -21.6,21.6"/>
<!-- Node0x61a2e960a030 -->
<g id="node1" class="node">
<title>Node0x61a2e960a030</title>
<path fill="#f0f4ff" stroke="black" d="M309.5,-558C309.5,-558 221.5,-558 221.5,-558 215.5,-558 209.5,-552 209.5,-546 209.5,-546 209.5,-534 209.5,-534 209.5,-528 215.5,-522 221.5,-522 221.5,-522 309.5,-522 309.5,-522 315.5,-522 321.5,-528 321.5,-534 321.5,-534 321.5,-546 321.5,-546 321.5,-552 315.5,-558 309.5,-558"/>
<text text-anchor="middle" x="265.5" y="-537.8" font-family="Courier,monospace" font-size="9.00">SignatureToFourCC()</text>
</g>
<!-- Node0x61a2e960b1e0 -->
<g id="node2" class="node">
<title>Node0x61a2e960b1e0</title>
<path fill="#f0f4ff" stroke="black" d="M328,-500C328,-500 203,-500 203,-500 197,-500 191,-494 191,-488 191,-488 191,-476 191,-476 191,-470 197,-464 203,-464 203,-464 328,-464 328,-464 334,-464 340,-470 340,-476 340,-476 340,-488 340,-488 340,-494 334,-500 328,-500"/>
<text text-anchor="middle" x="265.5" y="-479.8" font-family="Courier,monospace" font-size="9.00">HasNonPrintableSignature()</text>
</g>
<!-- Node0x61a2e960a180 -->
<g id="node3" class="node">
<title>Node0x61a2e960a180</title>
<path fill="#f0f4ff" stroke="black" d="M100,-297C100,-297 12,-297 12,-297 6,-297 0,-291 0,-285 0,-285 0,-273 0,-273 0,-267 6,-261 12,-261 12,-261 100,-261 100,-261 106,-261 112,-267 112,-273 112,-273 112,-285 112,-285 112,-291 106,-297 100,-297"/>
<text text-anchor="middle" x="56" y="-276.8" font-family="Courier,monospace" font-size="9.00">AnalyzeSignatures()</text>
</g>
<!-- Node0x61a2e960a180&#45;&gt;Node0x61a2e960a030 -->
<g id="edge7" class="edge">
<title>Node0x61a2e960a180&#45;&gt;Node0x61a2e960a030</title>
<path fill="none" stroke="#4a6fa5" d="M60.64,-297.11C70.33,-340.64 100.89,-451.88 170,-511 179.53,-519.15 191.31,-525.01 203.29,-529.22"/>
<polygon fill="#4a6fa5" stroke="#4a6fa5" points="202.82,-531.28 209.17,-531.16 204.13,-527.29 202.82,-531.28"/>
</g>
<!-- Node0x61a2e960a180&#45;&gt;Node0x61a2e960b1e0 -->
<g id="edge4" class="edge">
<title>Node0x61a2e960a180&#45;&gt;Node0x61a2e960b1e0</title>
<path fill="none" stroke="#4a6fa5" d="M63.86,-297.27C78.09,-332.69 114.21,-410.92 170,-453 174.73,-456.57 179.9,-459.7 185.3,-462.45"/>
<polygon fill="#4a6fa5" stroke="#4a6fa5" points="184.46,-464.37 190.78,-465.07 186.28,-460.58 184.46,-464.37"/>
</g>
<!-- Node0x61a2e959b180 -->
<g id="node4" class="node">
<title>Node0x61a2e959b180</title>
<path fill="#f0f4ff" stroke="black" d="M312.5,-442C312.5,-442 218.5,-442 218.5,-442 212.5,-442 206.5,-436 206.5,-430 206.5,-430 206.5,-418 206.5,-418 206.5,-412 212.5,-406 218.5,-406 218.5,-406 312.5,-406 312.5,-406 318.5,-406 324.5,-412 324.5,-418 324.5,-418 324.5,-430 324.5,-430 324.5,-436 318.5,-442 312.5,-442"/>
<text text-anchor="middle" x="265.5" y="-421.8" font-family="Courier,monospace" font-size="9.00">CIccInfo::CIccInfo()</text>
</g>
<!-- Node0x61a2e960a180&#45;&gt;Node0x61a2e959b180 -->
<g id="edge1" class="edge">
<title>Node0x61a2e960a180&#45;&gt;Node0x61a2e959b180</title>
<path fill="none" stroke="#4a6fa5" d="M69.86,-297.05C88.91,-322.51 127.05,-368.78 170,-395 179.27,-400.66 189.73,-405.29 200.23,-409.06"/>
<polygon fill="#4a6fa5" stroke="#4a6fa5" points="199.7,-411.1 206.06,-411.07 201.07,-407.13 199.7,-411.1"/>
</g>
<!-- Node0x61a2e959af80 -->
<g id="node5" class="node">
<title>Node0x61a2e959af80</title>
<path fill="#f0f4ff" stroke="black" d="M315,-384C315,-384 216,-384 216,-384 210,-384 204,-378 204,-372 204,-372 204,-360 204,-360 204,-354 210,-348 216,-348 216,-348 315,-348 315,-348 321,-348 327,-354 327,-360 327,-360 327,-372 327,-372 327,-378 321,-384 315,-384"/>
<text text-anchor="middle" x="265.5" y="-363.8" font-family="Courier,monospace" font-size="9.00">CIccInfo::~CIccInfo()</text>
</g>
<!-- Node0x61a2e960a180&#45;&gt;Node0x61a2e959af80 -->
<g id="edge2" class="edge">
<title>Node0x61a2e960a180&#45;&gt;Node0x61a2e959af80</title>
<path fill="none" stroke="#4a6fa5" d="M88.44,-297.04C110.73,-309.35 141.6,-325.46 170,-337 178.95,-340.64 188.54,-344.08 198.05,-347.23"/>
<polygon fill="#4a6fa5" stroke="#4a6fa5" points="197.6,-349.29 203.95,-349.16 198.9,-345.3 197.6,-349.29"/>
</g>
<!-- Node0x61a2e960ae30 -->
<g id="node6" class="node">
<title>Node0x61a2e960ae30</title>
<path fill="#f0f4ff" stroke="black" d="M280.5,-326C280.5,-326 250.5,-326 250.5,-326 244.5,-326 238.5,-320 238.5,-314 238.5,-314 238.5,-302 238.5,-302 238.5,-296 244.5,-290 250.5,-290 250.5,-290 280.5,-290 280.5,-290 286.5,-290 292.5,-296 292.5,-302 292.5,-302 292.5,-314 292.5,-314 292.5,-320 286.5,-326 280.5,-326"/>
<text text-anchor="middle" x="265.5" y="-305.8" font-family="Courier,monospace" font-size="9.00">fputc</text>
</g>
<!-- Node0x61a2e960a180&#45;&gt;Node0x61a2e960ae30 -->
<g id="edge3" class="edge">
<title>Node0x61a2e960a180&#45;&gt;Node0x61a2e960ae30</title>
<path fill="none" stroke="#4a6fa5" d="M112.06,-286.7C150.33,-292.04 200.03,-298.99 232.1,-303.47"/>
<polygon fill="#4a6fa5" stroke="#4a6fa5" points="232.04,-305.58 238.27,-304.33 232.62,-301.42 232.04,-305.58"/>
</g>
<!-- Node0x61a2e959e020 -->
<g id="node7" class="node">
<title>Node0x61a2e959e020</title>
<path fill="#f0f4ff" stroke="black" d="M336,-268C336,-268 195,-268 195,-268 189,-268 183,-262 183,-256 183,-256 183,-244 183,-244 183,-238 189,-232 195,-232 195,-232 336,-232 336,-232 342,-232 348,-238 348,-244 348,-244 348,-256 348,-256 348,-262 342,-268 336,-268"/>
<text text-anchor="middle" x="265.5" y="-247.8" font-family="Courier,monospace" font-size="9.00">CIccInfo::GetTagTypeSigName()</text>
</g>
<!-- Node0x61a2e960a180&#45;&gt;Node0x61a2e959e020 -->
<g id="edge5" class="edge">
<title>Node0x61a2e960a180&#45;&gt;Node0x61a2e959e020</title>
<path fill="none" stroke="#4a6fa5" d="M112.06,-271.3C131.93,-268.53 154.87,-265.32 176.83,-262.25"/>
<polygon fill="#4a6fa5" stroke="#4a6fa5" points="177.34,-264.3 182.99,-261.39 176.76,-260.14 177.34,-264.3"/>
</g>
<!-- Node0x61a2e959dba0 -->
<g id="node8" class="node">
<title>Node0x61a2e959dba0</title>
<path fill="#f0f4ff" stroke="black" d="M325.5,-210C325.5,-210 205.5,-210 205.5,-210 199.5,-210 193.5,-204 193.5,-198 193.5,-198 193.5,-186 193.5,-186 193.5,-180 199.5,-174 205.5,-174 205.5,-174 325.5,-174 325.5,-174 331.5,-174 337.5,-180 337.5,-186 337.5,-186 337.5,-198 337.5,-198 337.5,-204 331.5,-210 325.5,-210"/>
<text text-anchor="middle" x="265.5" y="-189.8" font-family="Courier,monospace" font-size="9.00">CIccInfo::GetTagSigName()</text>
</g>
<!-- Node0x61a2e960a180&#45;&gt;Node0x61a2e959dba0 -->
<g id="edge6" class="edge">
<title>Node0x61a2e960a180&#45;&gt;Node0x61a2e959dba0</title>
<path fill="none" stroke="#4a6fa5" d="M88.44,-260.96C110.73,-248.65 141.6,-232.54 170,-221 177.82,-217.82 186.11,-214.8 194.42,-211.98"/>
<polygon fill="#4a6fa5" stroke="#4a6fa5" points="195.14,-213.96 200.17,-210.07 193.81,-209.97 195.14,-213.96"/>
</g>
<!-- Node0x61a2e959d6a0 -->
<g id="node9" class="node">
<title>Node0x61a2e959d6a0</title>
<path fill="#f0f4ff" stroke="black" d="M317.5,-152C317.5,-152 213.5,-152 213.5,-152 207.5,-152 201.5,-146 201.5,-140 201.5,-140 201.5,-128 201.5,-128 201.5,-122 207.5,-116 213.5,-116 213.5,-116 317.5,-116 317.5,-116 323.5,-116 329.5,-122 329.5,-128 329.5,-128 329.5,-140 329.5,-140 329.5,-146 323.5,-152 317.5,-152"/>
<text text-anchor="middle" x="265.5" y="-131.8" font-family="Courier,monospace" font-size="9.00">CIccProfile::FindTag()</text>
</g>
<!-- Node0x61a2e960a180&#45;&gt;Node0x61a2e959d6a0 -->
<g id="edge8" class="edge">
<title>Node0x61a2e960a180&#45;&gt;Node0x61a2e959d6a0</title>
<path fill="none" stroke="#4a6fa5" d="M69.86,-260.95C88.91,-235.49 127.05,-189.22 170,-163 177.81,-158.23 186.47,-154.19 195.28,-150.78"/>
<polygon fill="#4a6fa5" stroke="#4a6fa5" points="196.19,-152.69 201.08,-148.63 194.73,-148.75 196.19,-152.69"/>
</g>
<!-- Node0x61a2e9616040 -->
<g id="node10" class="node">
<title>Node0x61a2e9616040</title>
<path fill="#f0f4ff" stroke="black" d="M349,-94C349,-94 182,-94 182,-94 176,-94 170,-88 170,-82 170,-82 170,-70 170,-70 170,-64 176,-58 182,-58 182,-58 349,-58 349,-58 355,-58 361,-64 361,-70 361,-70 361,-82 361,-82 361,-88 355,-94 349,-94"/>
<text text-anchor="middle" x="265.5" y="-73.8" font-family="Courier,monospace" font-size="9.00">CIccInfo::GetProfileClassSigName()</text>
</g>
<!-- Node0x61a2e960a180&#45;&gt;Node0x61a2e9616040 -->
<g id="edge9" class="edge">
<title>Node0x61a2e960a180&#45;&gt;Node0x61a2e9616040</title>
<path fill="none" stroke="#4a6fa5" d="M63.86,-260.73C78.09,-225.31 114.21,-147.08 170,-105 174.04,-101.95 178.4,-99.23 182.95,-96.78"/>
<polygon fill="#4a6fa5" stroke="#4a6fa5" points="183.97,-98.62 188.38,-94.04 182.08,-94.87 183.97,-98.62"/>
</g>
<!-- Node0x61a2e9614b20 -->
<g id="node11" class="node">
<title>Node0x61a2e9614b20</title>
<path fill="#f0f4ff" stroke="black" d="M344,-36C344,-36 187,-36 187,-36 181,-36 175,-30 175,-24 175,-24 175,-12 175,-12 175,-6 181,0 187,0 187,0 344,0 344,0 350,0 356,-6 356,-12 356,-12 356,-24 356,-24 356,-30 350,-36 344,-36"/>
<text text-anchor="middle" x="265.5" y="-15.8" font-family="Courier,monospace" font-size="9.00">CIccInfo::GetColorSpaceSigName()</text>
</g>
<!-- Node0x61a2e960a180&#45;&gt;Node0x61a2e9614b20 -->
<g id="edge10" class="edge">
<title>Node0x61a2e960a180&#45;&gt;Node0x61a2e9614b20</title>
<path fill="none" stroke="#4a6fa5" d="M60.64,-260.89C70.33,-217.36 100.89,-106.12 170,-47 173.41,-44.09 177.1,-41.46 180.99,-39.11"/>
<polygon fill="#4a6fa5" stroke="#4a6fa5" points="182.21,-40.83 186.41,-36.05 180.15,-37.17 182.21,-40.83"/>
</g>
</g>
</svg>
