<?xml version="1.0" encoding="UTF-8" standalone="no"?>
<!DOCTYPE svg PUBLIC "-//W3C//DTD SVG 1.1//EN"
 "http://www.w3.org/Graphics/SVG/1.1/DTD/svg11.dtd">
<!-- Generated by graphviz version 2.43.0 (0)
 -->
<!-- Title: Call graph: /home/h02332/po/research/call&#45;graph/analyzer/IccAnalyzerConfig.ll Pages: 1 -->
<svg width="10866pt" height="506pt"
 viewBox="0.00 0.00 10866.35 506.00" xmlns="http://www.w3.org/2000/svg" xmlns:xlink="http://www.w3.org/1999/xlink">
<g id="graph0" class="graph" transform="scale(1 1) rotate(0) translate(4 502)">
<title>Call graph: /home/h02332/po/research/call&#45;graph/analyzer/IccAnalyzerConfig.ll</title>
<polygon fill="white" stroke="transparent" points="-4,4 -4,-502 10862.35,-502 10862.35,4 -4,4"/>
<text text-anchor="middle" x="5429.18" y="-7.8" font-family="Times,serif" font-size="14.00">Call graph: /home/h02332/po/research/call&#45;graph/analyzer/IccAnalyzerConfig.ll</text>
<!-- Node0x5fb4f6b1adf0 -->
<g id="node1" class="node">
<title>Node0x5fb4f6b1adf0</title>
<polygon fill="none" stroke="black" points="3151.35,-388.5 3151.35,-424.5 3467.35,-424.5 3467.35,-388.5 3151.35,-388.5"/>
<text text-anchor="middle" x="3309.35" y="-402.8" font-family="Times,serif" font-size="14.00">_Z10LoadConfigPKcR17IccAnalyzerConfig</text>
</g>
<!-- Node0x5fb4f6b1ae80 -->
<g id="node2" class="node">
<title>Node0x5fb4f6b1ae80</title>
<polygon fill="none" stroke="black" points="5194.35,-315.5 5194.35,-351.5 5250.35,-351.5 5250.35,-315.5 5194.35,-315.5"/>
<text text-anchor="middle" x="5222.35" y="-329.8" font-family="Times,serif" font-size="14.00">fopen</text>
</g>
<!-- Node0x5fb4f6b1adf0&#45;&gt;Node0x5fb4f6b1ae80 -->
<g id="edge1" class="edge">
<title>Node0x5fb4f6b1adf0&#45;&gt;Node0x5fb4f6b1ae80</title>
<path fill="none" stroke="black" d="M3467.48,-388.52C3470.12,-388.34 3472.75,-388.16 3475.35,-388 3662.05,-376.21 4958.93,-394.98 5184.19,-351.43"/>
<polygon fill="black" stroke="black" points="5185.06,-354.82 5194.1,-349.31 5183.59,-347.98 5185.06,-354.82"/>
</g>
<!-- Node0x5fb4f6b1fe00 -->
<g id="node3" class="node">
<title>Node0x5fb4f6b1fe00</title>
<polygon fill="none" stroke="black" points="5306.85,-315.5 5306.85,-351.5 5773.85,-351.5 5773.85,-315.5 5306.85,-315.5"/>
<text text-anchor="middle" x="5540.35" y="-329.8" font-family="Times,serif" font-size="14.00">_ZNSt7__cxx1112basic_stringIcSt11char_traitsIcESaIcEEC1Ev</text>
</g>
<!-- Node0x5fb4f6b1adf0&#45;&gt;Node0x5fb4f6b1fe00 -->
<g id="edge2" class="edge">
<title>Node0x5fb4f6b1adf0&#45;&gt;Node0x5fb4f6b1fe00</title>
<path fill="none" stroke="black" d="M3467.48,-388.52C3470.12,-388.34 3472.75,-388.16 3475.35,-388 4281.49,-337.61 4485.46,-388.44 5292.35,-352 5293.69,-351.94 5295.02,-351.88 5296.36,-351.82"/>
<polygon fill="black" stroke="black" points="5296.9,-355.29 5306.72,-351.32 5296.56,-348.3 5296.9,-355.29"/>
</g>
<!-- Node0x5fb4f6b1fe90 -->
<g id="node4" class="node">
<title>Node0x5fb4f6b1fe90</title>
<polygon fill="none" stroke="black" points="756.35,-315.5 756.35,-351.5 810.35,-351.5 810.35,-315.5 756.35,-315.5"/>
<text text-anchor="middle" x="783.35" y="-329.8" font-family="Times,serif" font-size="14.00">fgets</text>
</g>
<!-- Node0x5fb4f6b1adf0&#45;&gt;Node0x5fb4f6b1fe90 -->
<g id="edge3" class="edge">
<title>Node0x5fb4f6b1adf0&#45;&gt;Node0x5fb4f6b1fe90</title>
<path fill="none" stroke="black" d="M3151.13,-406.03C2645.45,-407.19 1086.45,-406.42 820.38,-351.39"/>
<polygon fill="black" stroke="black" points="820.94,-347.92 810.41,-349.15 819.4,-354.75 820.94,-347.92"/>
</g>
<!-- Node0x5fb4f6b26650 -->
<g id="node5" class="node">
<title>Node0x5fb4f6b26650</title>
<polygon fill="none" stroke="black" points="5922.35,-315.5 5922.35,-351.5 6496.35,-351.5 6496.35,-315.5 5922.35,-315.5"/>
<text text-anchor="middle" x="6209.35" y="-329.8" font-family="Times,serif" font-size="14.00">_ZNSt7__cxx1112basic_stringIcSt11char_traitsIcESaIcEEC2IS3_EEPKcRKS3_</text>
</g>
<!-- Node0x5fb4f6b1adf0&#45;&gt;Node0x5fb4f6b26650 -->
<g id="edge4" class="edge">
<title>Node0x5fb4f6b1adf0&#45;&gt;Node0x5fb4f6b26650</title>
<path fill="none" stroke="black" d="M3467.48,-388.5C3470.12,-388.33 3472.75,-388.16 3475.35,-388 4499.39,-326.16 4757.86,-381.06 5783.35,-352 5824.97,-350.82 5868.86,-349.32 5912.02,-347.68"/>
<polygon fill="black" stroke="black" points="5912.23,-351.18 5922.09,-347.3 5911.96,-344.18 5912.23,-351.18"/>
</g>
<!-- Node0x5fb4f6b264e0 -->
<g id="node6" class="node">
<title>Node0x5fb4f6b264e0</title>
<polygon fill="none" stroke="black" points="828.35,-315.5 828.35,-351.5 1340.35,-351.5 1340.35,-315.5 828.35,-315.5"/>
<text text-anchor="middle" x="1084.35" y="-329.8" font-family="Times,serif" font-size="14.00">_ZL4TrimRKNSt7__cxx1112basic_stringIcSt11char_traitsIcESaIcEEE</text>
</g>
<!-- Node0x5fb4f6b1adf0&#45;&gt;Node0x5fb4f6b264e0 -->
<g id="edge5" class="edge">
<title>Node0x5fb4f6b1adf0&#45;&gt;Node0x5fb4f6b264e0</title>
<path fill="none" stroke="black" d="M3151.34,-402.92C2820.82,-397.13 2032.31,-381.27 1371.35,-352 1364.57,-351.7 1357.69,-351.38 1350.76,-351.05"/>
<polygon fill="black" stroke="black" points="1350.71,-347.54 1340.56,-350.55 1350.37,-354.53 1350.71,-347.54"/>
</g>
<!-- Node0x5fb4f6b26360 -->
<g id="node7" class="node">
<title>Node0x5fb4f6b26360</title>
<polygon fill="none" stroke="black" points="2060.85,-315.5 2060.85,-351.5 2527.85,-351.5 2527.85,-315.5 2060.85,-315.5"/>
<text text-anchor="middle" x="2294.35" y="-329.8" font-family="Times,serif" font-size="14.00">_ZNSt7__cxx1112basic_stringIcSt11char_traitsIcESaIcEED1Ev</text>
</g>
<!-- Node0x5fb4f6b1adf0&#45;&gt;Node0x5fb4f6b26360 -->
<g id="edge6" class="edge">
<title>Node0x5fb4f6b1adf0&#45;&gt;Node0x5fb4f6b26360</title>
<path fill="none" stroke="black" d="M3151.14,-394.66C2997.45,-384.1 2757.17,-367.52 2538.19,-352.06"/>
<polygon fill="black" stroke="black" points="2538.34,-348.56 2528.11,-351.35 2537.84,-355.54 2538.34,-348.56"/>
</g>
<!-- Node0x5fb4f6b254d0 -->
<g id="node8" class="node">
<title>Node0x5fb4f6b254d0</title>
<polygon fill="none" stroke="black" points="5151.85,-169.5 5151.85,-205.5 5404.85,-205.5 5404.85,-169.5 5151.85,-169.5"/>
<text text-anchor="middle" x="5278.35" y="-183.8" font-family="Times,serif" font-size="14.00">_ZNSt15__new_allocatorIcED2Ev</text>
</g>
<!-- Node0x5fb4f6b1adf0&#45;&gt;Node0x5fb4f6b254d0 -->
<g id="edge7" class="edge">
<title>Node0x5fb4f6b1adf0&#45;&gt;Node0x5fb4f6b254d0</title>
<path fill="none" stroke="black" d="M3467.48,-388.52C3470.12,-388.34 3472.75,-388.16 3475.35,-388 3524.82,-384.9 5222.67,-385.34 5259.35,-352 5296.89,-317.89 5291.51,-252.49 5284.68,-215.58"/>
<polygon fill="black" stroke="black" points="5288.06,-214.65 5282.65,-205.54 5281.2,-216.04 5288.06,-214.65"/>
</g>
<!-- Node0x5fb4f6b26bf0 -->
<g id="node9" class="node">
<title>Node0x5fb4f6b26bf0</title>
<polygon fill="none" stroke="black" points="2546.35,-315.5 2546.35,-351.5 3058.35,-351.5 3058.35,-315.5 2546.35,-315.5"/>
<text text-anchor="middle" x="2802.35" y="-329.8" font-family="Times,serif" font-size="14.00">_ZNKSt7__cxx1112basic_stringIcSt11char_traitsIcESaIcEE5emptyEv</text>
</g>
<!-- Node0x5fb4f6b1adf0&#45;&gt;Node0x5fb4f6b26bf0 -->
<g id="edge8" class="edge">
<title>Node0x5fb4f6b1adf0&#45;&gt;Node0x5fb4f6b26bf0</title>
<path fill="none" stroke="black" d="M3187.91,-388.49C3111.36,-377.77 3012.51,-363.93 2934.07,-352.95"/>
<polygon fill="black" stroke="black" points="2934.51,-349.47 2924.12,-351.55 2933.53,-356.41 2934.51,-349.47"/>
</g>
<!-- Node0x5fb4f6b26a60 -->
<g id="node10" class="node">
<title>Node0x5fb4f6b26a60</title>
<polygon fill="none" stroke="black" points="3076.85,-315.5 3076.85,-351.5 3541.85,-351.5 3541.85,-315.5 3076.85,-315.5"/>
<text text-anchor="middle" x="3309.35" y="-329.8" font-family="Times,serif" font-size="14.00">_ZNSt7__cxx1112basic_stringIcSt11char_traitsIcESaIcEEixEm</text>
</g>
<!-- Node0x5fb4f6b1adf0&#45;&gt;Node0x5fb4f6b26a60 -->
<g id="edge9" class="edge">
<title>Node0x5fb4f6b1adf0&#45;&gt;Node0x5fb4f6b26a60</title>
<path fill="none" stroke="black" d="M3309.35,-388.31C3309.35,-380.29 3309.35,-370.55 3309.35,-361.57"/>
<polygon fill="black" stroke="black" points="3312.85,-361.53 3309.35,-351.53 3305.85,-361.53 3312.85,-361.53"/>
</g>
<!-- Node0x5fb4f6b27700 -->
<g id="node11" class="node">
<title>Node0x5fb4f6b27700</title>
<polygon fill="none" stroke="black" points="3560.35,-315.5 3560.35,-351.5 3618.35,-351.5 3618.35,-315.5 3560.35,-315.5"/>
<text text-anchor="middle" x="3589.35" y="-329.8" font-family="Times,serif" font-size="14.00">fclose</text>
</g>
<!-- Node0x5fb4f6b1adf0&#45;&gt;Node0x5fb4f6b27700 -->
<g id="edge10" class="edge">
<title>Node0x5fb4f6b1adf0&#45;&gt;Node0x5fb4f6b27700</title>
<path fill="none" stroke="black" d="M3407.32,-388.45C3451.57,-379.56 3504.18,-367.31 3550.35,-352 3550.45,-351.97 3550.55,-351.93 3550.66,-351.9"/>
<polygon fill="black" stroke="black" points="3552.07,-355.11 3560.22,-348.34 3549.63,-348.55 3552.07,-355.11"/>
</g>
<!-- Node0x5fb4f6ab0070 -->
<g id="node12" class="node">
<title>Node0x5fb4f6ab0070</title>
<polygon fill="none" stroke="black" points="1413.85,-315.5 1413.85,-351.5 2042.85,-351.5 2042.85,-315.5 1413.85,-315.5"/>
<text text-anchor="middle" x="1728.35" y="-329.8" font-family="Times,serif" font-size="14.00">_ZSteqIcSt11char_traitsIcESaIcEEbRKNSt7__cxx1112basic_stringIT_T0_T1_EEPKS5_</text>
</g>
<!-- Node0x5fb4f6b1adf0&#45;&gt;Node0x5fb4f6ab0070 -->
<g id="edge11" class="edge">
<title>Node0x5fb4f6b1adf0&#45;&gt;Node0x5fb4f6ab0070</title>
<path fill="none" stroke="black" d="M3150.95,-399.35C2912.42,-389.97 2446.83,-371.12 2051.35,-352 2051.25,-351.99 2051.14,-351.99 2051.04,-351.98"/>
<polygon fill="black" stroke="black" points="2051.36,-348.5 2041.2,-351.51 2051.02,-355.49 2051.36,-348.5"/>
</g>
<!-- Node0x5fb4f6aafbf0 -->
<g id="node13" class="node">
<title>Node0x5fb4f6aafbf0</title>
<polygon fill="none" stroke="black" points="3636.85,-315.5 3636.85,-351.5 4139.85,-351.5 4139.85,-315.5 3636.85,-315.5"/>
<text text-anchor="middle" x="3888.35" y="-329.8" font-family="Times,serif" font-size="14.00">_ZNSt7__cxx1112basic_stringIcSt11char_traitsIcESaIcEEaSERKS4_</text>
</g>
<!-- Node0x5fb4f6b1adf0&#45;&gt;Node0x5fb4f6aafbf0 -->
<g id="edge12" class="edge">
<title>Node0x5fb4f6b1adf0&#45;&gt;Node0x5fb4f6aafbf0</title>
<path fill="none" stroke="black" d="M3448.04,-388.49C3535.99,-377.71 3649.71,-363.76 3739.54,-352.75"/>
<polygon fill="black" stroke="black" points="3740.05,-356.21 3749.54,-351.52 3739.19,-349.26 3740.05,-356.21"/>
</g>
<!-- Node0x5fb4f6aaf770 -->
<g id="node14" class="node">
<title>Node0x5fb4f6aaf770</title>
<polygon fill="none" stroke="black" points="1128.85,-242.5 1128.85,-278.5 1659.85,-278.5 1659.85,-242.5 1128.85,-242.5"/>
<text text-anchor="middle" x="1394.35" y="-256.8" font-family="Times,serif" font-size="14.00">_ZNKSt7__cxx1112basic_stringIcSt11char_traitsIcESaIcEE6substrEmm</text>
</g>
<!-- Node0x5fb4f6b1adf0&#45;&gt;Node0x5fb4f6aaf770 -->
<g id="edge13" class="edge">
<title>Node0x5fb4f6b1adf0&#45;&gt;Node0x5fb4f6aaf770</title>
<path fill="none" stroke="black" d="M3151.24,-403.8C2699.98,-398.61 1436.32,-381.45 1404.35,-352 1387.42,-336.4 1386.52,-309.27 1388.88,-288.77"/>
<polygon fill="black" stroke="black" points="1392.36,-289.15 1390.35,-278.75 1385.44,-288.14 1392.36,-289.15"/>
</g>
<!-- Node0x5fb4f6aafeb0 -->
<g id="node15" class="node">
<title>Node0x5fb4f6aafeb0</title>
<polygon fill="none" stroke="black" points="17.35,-242.5 17.35,-278.5 529.35,-278.5 529.35,-242.5 17.35,-242.5"/>
<text text-anchor="middle" x="273.35" y="-256.8" font-family="Times,serif" font-size="14.00">_ZNKSt7__cxx1112basic_stringIcSt11char_traitsIcESaIcEE6lengthEv</text>
</g>
<!-- Node0x5fb4f6b1adf0&#45;&gt;Node0x5fb4f6aafeb0 -->
<g id="edge14" class="edge">
<title>Node0x5fb4f6b1adf0&#45;&gt;Node0x5fb4f6aafeb0</title>
<path fill="none" stroke="black" d="M3151.16,-405.67C2668.13,-405.65 1216.76,-401.36 747.35,-352 607.07,-337.25 446.29,-302.76 352.64,-280.87"/>
<polygon fill="black" stroke="black" points="353.21,-277.41 342.68,-278.53 351.61,-284.22 353.21,-277.41"/>
</g>
<!-- Node0x5fb4f6ab0560 -->
<g id="node16" class="node">
<title>Node0x5fb4f6ab0560</title>
<polygon fill="none" stroke="black" points="4158.35,-315.5 4158.35,-351.5 4664.35,-351.5 4664.35,-315.5 4158.35,-315.5"/>
<text text-anchor="middle" x="4411.35" y="-329.8" font-family="Times,serif" font-size="14.00">_ZNKSt7__cxx1112basic_stringIcSt11char_traitsIcESaIcEE4findEcm</text>
</g>
<!-- Node0x5fb4f6b1adf0&#45;&gt;Node0x5fb4f6ab0560 -->
<g id="edge15" class="edge">
<title>Node0x5fb4f6b1adf0&#45;&gt;Node0x5fb4f6ab0560</title>
<path fill="none" stroke="black" d="M3467.49,-388.64C3470.13,-388.42 3472.75,-388.21 3475.35,-388 3771.04,-364.53 3848.18,-369.87 4147.98,-352.08"/>
<polygon fill="black" stroke="black" points="4148.5,-355.55 4158.28,-351.46 4148.09,-348.56 4148.5,-355.55"/>
</g>
<!-- Node0x5fb4f6b27140 -->
<g id="node17" class="node">
<title>Node0x5fb4f6b27140</title>
<polygon fill="none" stroke="black" points="4682.35,-315.5 4682.35,-351.5 5176.35,-351.5 5176.35,-315.5 4682.35,-315.5"/>
<text text-anchor="middle" x="4929.35" y="-329.8" font-family="Times,serif" font-size="14.00">_ZNSt7__cxx1112basic_stringIcSt11char_traitsIcESaIcEEaSEOS4_</text>
</g>
<!-- Node0x5fb4f6b1adf0&#45;&gt;Node0x5fb4f6b27140 -->
<g id="edge16" class="edge">
<title>Node0x5fb4f6b1adf0&#45;&gt;Node0x5fb4f6b27140</title>
<path fill="none" stroke="black" d="M3467.48,-388.55C3470.12,-388.36 3472.75,-388.18 3475.35,-388 4003.45,-352.28 4139.59,-377.84 4672.82,-352.01"/>
<polygon fill="black" stroke="black" points="4673.28,-355.49 4683.09,-351.51 4672.93,-348.5 4673.28,-355.49"/>
</g>
<!-- Node0x5fb4f6ab02b0 -->
<g id="node25" class="node">
<title>Node0x5fb4f6ab02b0</title>
<polygon fill="none" stroke="black" points="6792.35,-242.5 6792.35,-278.5 7356.35,-278.5 7356.35,-242.5 6792.35,-242.5"/>
<text text-anchor="middle" x="7074.35" y="-256.8" font-family="Times,serif" font-size="14.00">_ZNSt7__cxx1112basic_stringIcSt11char_traitsIcESaIcEE13_M_local_dataEv</text>
</g>
<!-- Node0x5fb4f6b26650&#45;&gt;Node0x5fb4f6ab02b0 -->
<g id="edge22" class="edge">
<title>Node0x5fb4f6b26650&#45;&gt;Node0x5fb4f6ab02b0</title>
<path fill="none" stroke="black" d="M6416.54,-315.49C6549.54,-304.58 6721.97,-290.42 6856.92,-279.35"/>
<polygon fill="black" stroke="black" points="6857.3,-282.83 6866.98,-278.52 6856.73,-275.85 6857.3,-282.83"/>
</g>
<!-- Node0x5fb4f6b27f40 -->
<g id="node26" class="node">
<title>Node0x5fb4f6b27f40</title>
<polygon fill="none" stroke="black" points="5896.35,-242.5 5896.35,-278.5 6522.35,-278.5 6522.35,-242.5 5896.35,-242.5"/>
<text text-anchor="middle" x="6209.35" y="-256.8" font-family="Times,serif" font-size="14.00">_ZNSt7__cxx1112basic_stringIcSt11char_traitsIcESaIcEE12_Alloc_hiderC1EPcRKS3_</text>
</g>
<!-- Node0x5fb4f6b26650&#45;&gt;Node0x5fb4f6b27f40 -->
<g id="edge23" class="edge">
<title>Node0x5fb4f6b26650&#45;&gt;Node0x5fb4f6b27f40</title>
<path fill="none" stroke="black" d="M6209.35,-315.31C6209.35,-307.29 6209.35,-297.55 6209.35,-288.57"/>
<polygon fill="black" stroke="black" points="6212.85,-288.53 6209.35,-278.53 6205.85,-288.53 6212.85,-288.53"/>
</g>
<!-- Node0x5fb4f6ab0db0 -->
<g id="node27" class="node">
<title>Node0x5fb4f6ab0db0</title>
<polygon fill="none" stroke="black" points="6540.35,-242.5 6540.35,-278.5 6774.35,-278.5 6774.35,-242.5 6540.35,-242.5"/>
<text text-anchor="middle" x="6657.35" y="-256.8" font-family="Times,serif" font-size="14.00">_ZSt19__throw_logic_errorPKc</text>
</g>
<!-- Node0x5fb4f6b26650&#45;&gt;Node0x5fb4f6ab0db0 -->
<g id="edge24" class="edge">
<title>Node0x5fb4f6b26650&#45;&gt;Node0x5fb4f6ab0db0</title>
<path fill="none" stroke="black" d="M6316.66,-315.49C6383.89,-304.84 6470.58,-291.1 6539.69,-280.15"/>
<polygon fill="black" stroke="black" points="6540.43,-283.57 6549.76,-278.55 6539.33,-276.66 6540.43,-283.57"/>
</g>
<!-- Node0x5fb4f6b27c80 -->
<g id="node28" class="node">
<title>Node0x5fb4f6b27c80</title>
<polygon fill="none" stroke="black" points="5306.85,-242.5 5306.85,-278.5 5877.85,-278.5 5877.85,-242.5 5306.85,-242.5"/>
<text text-anchor="middle" x="5592.35" y="-256.8" font-family="Times,serif" font-size="14.00">_ZNSt7__cxx1112basic_stringIcSt11char_traitsIcESaIcEE12_Alloc_hiderD2Ev</text>
</g>
<!-- Node0x5fb4f6b26650&#45;&gt;Node0x5fb4f6b27c80 -->
<g id="edge25" class="edge">
<title>Node0x5fb4f6b26650&#45;&gt;Node0x5fb4f6b27c80</title>
<path fill="none" stroke="black" d="M6061.56,-315.49C5967.65,-304.69 5846.17,-290.71 5750.34,-279.68"/>
<polygon fill="black" stroke="black" points="5750.6,-276.19 5740.27,-278.52 5749.8,-283.14 5750.6,-276.19"/>
</g>
<!-- Node0x5fb4f6ab15d0 -->
<g id="node29" class="node">
<title>Node0x5fb4f6ab15d0</title>
<polygon fill="none" stroke="black" points="2706.35,-242.5 2706.35,-278.5 2978.35,-278.5 2978.35,-242.5 2706.35,-242.5"/>
<text text-anchor="middle" x="2842.35" y="-256.8" font-family="Times,serif" font-size="14.00">_ZNSt11char_traitsIcE6lengthEPKc</text>
</g>
<!-- Node0x5fb4f6b26650&#45;&gt;Node0x5fb4f6ab15d0 -->
<g id="edge26" class="edge">
<title>Node0x5fb4f6b26650&#45;&gt;Node0x5fb4f6ab15d0</title>
<path fill="none" stroke="black" d="M5922.09,-319.59C5875.71,-317.83 5828.21,-316.21 5783.35,-315 5165.53,-298.34 3624.04,-320.05 2988.75,-279.04"/>
<polygon fill="black" stroke="black" points="2988.75,-275.53 2978.54,-278.37 2988.29,-282.51 2988.75,-275.53"/>
</g>
<!-- Node0x5fb4f6ab1ac0 -->
<g id="node30" class="node">
<title>Node0x5fb4f6ab1ac0</title>
<polygon fill="none" stroke="black" points="7445.85,-242.5 7445.85,-278.5 8272.85,-278.5 8272.85,-242.5 7445.85,-242.5"/>
<text text-anchor="middle" x="7859.35" y="-256.8" font-family="Times,serif" font-size="14.00">_ZNSt7__cxx1112basic_stringIcSt11char_traitsIcESaIcEE12_M_constructIPKcEEvT_S8_St20forward_iterator_tag</text>
</g>
<!-- Node0x5fb4f6b26650&#45;&gt;Node0x5fb4f6ab1ac0 -->
<g id="edge27" class="edge">
<title>Node0x5fb4f6b26650&#45;&gt;Node0x5fb4f6ab1ac0</title>
<path fill="none" stroke="black" d="M6496.76,-320.13C6761.51,-308.74 7157.1,-291.72 7453.93,-278.95"/>
<polygon fill="black" stroke="black" points="7454.16,-282.44 7464,-278.51 7453.86,-275.45 7454.16,-282.44"/>
</g>
<!-- Node0x5fb4f6b264e0&#45;&gt;Node0x5fb4f6aaf770 -->
<g id="edge21" class="edge">
<title>Node0x5fb4f6b264e0&#45;&gt;Node0x5fb4f6aaf770</title>
<path fill="none" stroke="black" d="M1158.6,-315.49C1204.17,-305.06 1262.66,-291.66 1309.98,-280.82"/>
<polygon fill="black" stroke="black" points="1310.93,-284.2 1319.9,-278.55 1309.37,-277.37 1310.93,-284.2"/>
</g>
<!-- Node0x5fb4f6b264e0&#45;&gt;Node0x5fb4f6aafeb0 -->
<g id="edge18" class="edge">
<title>Node0x5fb4f6b264e0&#45;&gt;Node0x5fb4f6aafeb0</title>
<path fill="none" stroke="black" d="M890.1,-315.49C765.65,-304.6 604.39,-290.48 477.97,-279.41"/>
<polygon fill="black" stroke="black" points="478.04,-275.91 467.78,-278.52 477.43,-282.88 478.04,-275.91"/>
</g>
<!-- Node0x5fb4f6b27490 -->
<g id="node23" class="node">
<title>Node0x5fb4f6b27490</title>
<polygon fill="none" stroke="black" points="547.35,-242.5 547.35,-278.5 1023.35,-278.5 1023.35,-242.5 547.35,-242.5"/>
<text text-anchor="middle" x="785.35" y="-256.8" font-family="Times,serif" font-size="14.00">_ZNKSt7__cxx1112basic_stringIcSt11char_traitsIcESaIcEEixEm</text>
</g>
<!-- Node0x5fb4f6b264e0&#45;&gt;Node0x5fb4f6b27490 -->
<g id="edge19" class="edge">
<title>Node0x5fb4f6b264e0&#45;&gt;Node0x5fb4f6b27490</title>
<path fill="none" stroke="black" d="M1012.73,-315.49C968.87,-305.08 912.6,-291.72 867.02,-280.89"/>
<polygon fill="black" stroke="black" points="867.7,-277.46 857.16,-278.55 866.08,-284.27 867.7,-277.46"/>
</g>
<!-- Node0x5fb4f6b27390 -->
<g id="node24" class="node">
<title>Node0x5fb4f6b27390</title>
<polygon fill="none" stroke="black" points="1041.85,-242.5 1041.85,-278.5 1110.85,-278.5 1110.85,-242.5 1041.85,-242.5"/>
<text text-anchor="middle" x="1076.35" y="-256.8" font-family="Times,serif" font-size="14.00">isspace</text>
</g>
<!-- Node0x5fb4f6b264e0&#45;&gt;Node0x5fb4f6b27390 -->
<g id="edge20" class="edge">
<title>Node0x5fb4f6b264e0&#45;&gt;Node0x5fb4f6b27390</title>
<path fill="none" stroke="black" d="M1082.41,-315.31C1081.51,-307.29 1080.41,-297.55 1079.4,-288.57"/>
<polygon fill="black" stroke="black" points="1082.87,-288.07 1078.27,-278.53 1075.91,-288.86 1082.87,-288.07"/>
</g>
<!-- Node0x5fb4f6ab1f50 -->
<g id="node19" class="node">
<title>Node0x5fb4f6ab1f50</title>
<polygon fill="none" stroke="black" points="1678.35,-242.5 1678.35,-278.5 2172.35,-278.5 2172.35,-242.5 1678.35,-242.5"/>
<text text-anchor="middle" x="1925.35" y="-256.8" font-family="Times,serif" font-size="14.00">_ZNKSt7__cxx1112basic_stringIcSt11char_traitsIcESaIcEE4sizeEv</text>
</g>
<!-- Node0x5fb4f6ab0070&#45;&gt;Node0x5fb4f6ab1f50 -->
<g id="edge28" class="edge">
<title>Node0x5fb4f6ab0070&#45;&gt;Node0x5fb4f6ab1f50</title>
<path fill="none" stroke="black" d="M1775.54,-315.49C1803.35,-305.47 1838.75,-292.71 1868.15,-282.12"/>
<polygon fill="black" stroke="black" points="1869.65,-285.3 1877.87,-278.61 1867.27,-278.71 1869.65,-285.3"/>
</g>
<!-- Node0x5fb4f6ab1d10 -->
<g id="node20" class="node">
<title>Node0x5fb4f6ab1d10</title>
<polygon fill="none" stroke="black" points="2996.85,-242.5 2996.85,-278.5 3323.85,-278.5 3323.85,-242.5 2996.85,-242.5"/>
<text text-anchor="middle" x="3160.35" y="-256.8" font-family="Times,serif" font-size="14.00">_ZNSt11char_traitsIcE7compareEPKcS2_m</text>
</g>
<!-- Node0x5fb4f6ab0070&#45;&gt;Node0x5fb4f6ab1d10 -->
<g id="edge31" class="edge">
<title>Node0x5fb4f6ab0070&#45;&gt;Node0x5fb4f6ab1d10</title>
<path fill="none" stroke="black" d="M2040.77,-315.49C2044.32,-315.33 2047.85,-315.16 2051.35,-315 2463.86,-295.89 2570.34,-307.77 2986.27,-279.05"/>
<polygon fill="black" stroke="black" points="2986.73,-282.52 2996.47,-278.34 2986.25,-275.54 2986.73,-282.52"/>
</g>
<!-- Node0x5fb4f6ab0070&#45;&gt;Node0x5fb4f6ab15d0 -->
<g id="edge29" class="edge">
<title>Node0x5fb4f6ab0070&#45;&gt;Node0x5fb4f6ab15d0</title>
<path fill="none" stroke="black" d="M2040.66,-315.5C2298.1,-301.45 2630.17,-283.23 2695.94,-278.93"/>
<polygon fill="black" stroke="black" points="2696.43,-282.4 2706.15,-278.2 2695.93,-275.42 2696.43,-282.4"/>
</g>
<!-- Node0x5fb4f6b284c0 -->
<g id="node31" class="node">
<title>Node0x5fb4f6b284c0</title>
<polygon fill="none" stroke="black" points="2190.35,-242.5 2190.35,-278.5 2688.35,-278.5 2688.35,-242.5 2190.35,-242.5"/>
<text text-anchor="middle" x="2439.35" y="-256.8" font-family="Times,serif" font-size="14.00">_ZNKSt7__cxx1112basic_stringIcSt11char_traitsIcESaIcEE4dataEv</text>
</g>
<!-- Node0x5fb4f6ab0070&#45;&gt;Node0x5fb4f6b284c0 -->
<g id="edge30" class="edge">
<title>Node0x5fb4f6ab0070&#45;&gt;Node0x5fb4f6b284c0</title>
<path fill="none" stroke="black" d="M1898.65,-315.49C2007.31,-304.64 2148,-290.59 2258.63,-279.55"/>
<polygon fill="black" stroke="black" points="2259.3,-283 2268.9,-278.52 2258.6,-276.03 2259.3,-283"/>
</g>
<!-- Node0x5fb4f6ab57e0 -->
<g id="node18" class="node">
<title>Node0x5fb4f6ab57e0</title>
<polygon fill="none" stroke="black" points="9302.85,-23.5 9302.85,-59.5 9439.85,-59.5 9439.85,-23.5 9302.85,-23.5"/>
<text text-anchor="middle" x="9371.35" y="-37.8" font-family="Times,serif" font-size="14.00">_ZSt9terminatev</text>
</g>
<!-- Node0x5fb4f6ab5cf0 -->
<g id="node21" class="node">
<title>Node0x5fb4f6ab5cf0</title>
<polygon fill="none" stroke="black" points="3119.35,-169.5 3119.35,-205.5 3201.35,-205.5 3201.35,-169.5 3119.35,-169.5"/>
<text text-anchor="middle" x="3160.35" y="-183.8" font-family="Times,serif" font-size="14.00">memcmp</text>
</g>
<!-- Node0x5fb4f6ab1d10&#45;&gt;Node0x5fb4f6ab5cf0 -->
<g id="edge17" class="edge">
<title>Node0x5fb4f6ab1d10&#45;&gt;Node0x5fb4f6ab5cf0</title>
<path fill="none" stroke="black" d="M3160.35,-242.31C3160.35,-234.29 3160.35,-224.55 3160.35,-215.57"/>
<polygon fill="black" stroke="black" points="3163.85,-215.53 3160.35,-205.53 3156.85,-215.53 3163.85,-215.53"/>
</g>
<!-- Node0x5fb4f6ab04e0 -->
<g id="node22" class="node">
<title>Node0x5fb4f6ab04e0</title>
<polygon fill="none" stroke="black" points="3826.85,-461.5 3826.85,-497.5 3993.85,-497.5 3993.85,-461.5 3826.85,-461.5"/>
<text text-anchor="middle" x="3910.35" y="-475.8" font-family="Times,serif" font-size="14.00">__gxx_personality_v0</text>
</g>
<!-- Node0x5fb4f6b27c80&#45;&gt;Node0x5fb4f6b254d0 -->
<g id="edge50" class="edge">
<title>Node0x5fb4f6b27c80&#45;&gt;Node0x5fb4f6b254d0</title>
<path fill="none" stroke="black" d="M5517.14,-242.49C5470.98,-232.06 5411.74,-218.66 5363.81,-207.82"/>
<polygon fill="black" stroke="black" points="5364.29,-204.34 5353.76,-205.55 5362.75,-211.17 5364.29,-204.34"/>
</g>
<!-- Node0x5fb4f6ab3560 -->
<g id="node38" class="node">
<title>Node0x5fb4f6ab3560</title>
<polygon fill="none" stroke="black" points="1386.85,-169.5 1386.85,-205.5 1445.85,-205.5 1445.85,-169.5 1386.85,-169.5"/>
<text text-anchor="middle" x="1416.35" y="-183.8" font-family="Times,serif" font-size="14.00">strlen</text>
</g>
<!-- Node0x5fb4f6ab15d0&#45;&gt;Node0x5fb4f6ab3560 -->
<g id="edge41" class="edge">
<title>Node0x5fb4f6ab15d0&#45;&gt;Node0x5fb4f6ab3560</title>
<path fill="none" stroke="black" d="M2706.16,-242.75C2703.2,-242.49 2700.26,-242.24 2697.35,-242 2209.38,-202.42 1614.31,-191.36 1456.38,-189.03"/>
<polygon fill="black" stroke="black" points="1456.24,-185.53 1446.19,-188.88 1456.14,-192.53 1456.24,-185.53"/>
</g>
<!-- Node0x5fb4f6ab4570 -->
<g id="node42" class="node">
<title>Node0x5fb4f6ab4570</title>
<polygon fill="none" stroke="black" points="9758.35,-169.5 9758.35,-205.5 10316.35,-205.5 10316.35,-169.5 9758.35,-169.5"/>
<text text-anchor="middle" x="10037.35" y="-183.8" font-family="Times,serif" font-size="14.00">_ZNSt7__cxx1112basic_stringIcSt11char_traitsIcESaIcEE9_M_createERmm</text>
</g>
<!-- Node0x5fb4f6ab1ac0&#45;&gt;Node0x5fb4f6ab4570 -->
<g id="edge42" class="edge">
<title>Node0x5fb4f6ab1ac0&#45;&gt;Node0x5fb4f6ab4570</title>
<path fill="none" stroke="black" d="M8272.89,-251.65C8655.89,-243.46 9241.26,-228.62 9749.35,-206 9749.58,-205.99 9749.8,-205.98 9750.03,-205.97"/>
<polygon fill="black" stroke="black" points="9750.48,-209.45 9760.31,-205.5 9750.16,-202.46 9750.48,-209.45"/>
</g>
<!-- Node0x5fb4f6ab4330 -->
<g id="node43" class="node">
<title>Node0x5fb4f6ab4330</title>
<polygon fill="none" stroke="black" points="10334.35,-169.5 10334.35,-205.5 10858.35,-205.5 10858.35,-169.5 10334.35,-169.5"/>
<text text-anchor="middle" x="10596.35" y="-183.8" font-family="Times,serif" font-size="14.00">_ZNSt7__cxx1112basic_stringIcSt11char_traitsIcESaIcEE7_M_dataEPc</text>
</g>
<!-- Node0x5fb4f6ab1ac0&#45;&gt;Node0x5fb4f6ab4330 -->
<g id="edge43" class="edge">
<title>Node0x5fb4f6ab1ac0&#45;&gt;Node0x5fb4f6ab4330</title>
<path fill="none" stroke="black" d="M8272.94,-255.93C8762.96,-250.44 9603.93,-237.1 10325.35,-206 10325.69,-205.99 10326.04,-205.97 10326.38,-205.96"/>
<polygon fill="black" stroke="black" points="10326.55,-209.45 10336.38,-205.51 10326.23,-202.46 10326.55,-209.45"/>
</g>
<!-- Node0x5fb4f6ab45f0 -->
<g id="node44" class="node">
<title>Node0x5fb4f6ab45f0</title>
<polygon fill="none" stroke="black" points="5422.85,-169.5 5422.85,-205.5 5979.85,-205.5 5979.85,-169.5 5422.85,-169.5"/>
<text text-anchor="middle" x="5701.35" y="-183.8" font-family="Times,serif" font-size="14.00">_ZNSt7__cxx1112basic_stringIcSt11char_traitsIcESaIcEE11_M_capacityEm</text>
</g>
<!-- Node0x5fb4f6ab1ac0&#45;&gt;Node0x5fb4f6ab45f0 -->
<g id="edge44" class="edge">
<title>Node0x5fb4f6ab1ac0&#45;&gt;Node0x5fb4f6ab45f0</title>
<path fill="none" stroke="black" d="M7445.62,-244.56C7418.45,-243.67 7391.51,-242.81 7365.35,-242 6753.88,-223.17 6600.54,-232.56 5989.35,-206 5989.12,-205.99 5988.9,-205.98 5988.67,-205.97"/>
<polygon fill="black" stroke="black" points="5988.54,-202.46 5978.39,-205.51 5988.23,-209.45 5988.54,-202.46"/>
</g>
<!-- Node0x5fb4f6ab43b0 -->
<g id="node45" class="node">
<title>Node0x5fb4f6ab43b0</title>
<polygon fill="none" stroke="black" points="5998.35,-169.5 5998.35,-205.5 6982.35,-205.5 6982.35,-169.5 5998.35,-169.5"/>
<text text-anchor="middle" x="6490.35" y="-183.8" font-family="Times,serif" font-size="14.00">_ZZNSt7__cxx1112basic_stringIcSt11char_traitsIcESaIcEE12_M_constructIPKcEEvT_S8_St20forward_iterator_tagEN6_GuardC2EPS4_</text>
</g>
<!-- Node0x5fb4f6ab1ac0&#45;&gt;Node0x5fb4f6ab43b0 -->
<g id="edge45" class="edge">
<title>Node0x5fb4f6ab1ac0&#45;&gt;Node0x5fb4f6ab43b0</title>
<path fill="none" stroke="black" d="M7531.44,-242.49C7318.96,-231.47 7042.88,-217.16 6828.42,-206.03"/>
<polygon fill="black" stroke="black" points="6828.42,-202.53 6818.25,-205.51 6828.06,-209.52 6828.42,-202.53"/>
</g>
<!-- Node0x5fb4f6ab5330 -->
<g id="node46" class="node">
<title>Node0x5fb4f6ab5330</title>
<polygon fill="none" stroke="black" points="7000.35,-169.5 7000.35,-205.5 7526.35,-205.5 7526.35,-169.5 7000.35,-169.5"/>
<text text-anchor="middle" x="7263.35" y="-183.8" font-family="Times,serif" font-size="14.00">_ZNKSt7__cxx1112basic_stringIcSt11char_traitsIcESaIcEE7_M_dataEv</text>
</g>
<!-- Node0x5fb4f6ab1ac0&#45;&gt;Node0x5fb4f6ab5330 -->
<g id="edge46" class="edge">
<title>Node0x5fb4f6ab1ac0&#45;&gt;Node0x5fb4f6ab5330</title>
<path fill="none" stroke="black" d="M7716.59,-242.49C7625.97,-231.7 7508.76,-217.74 7416.25,-206.71"/>
<polygon fill="black" stroke="black" points="7416.58,-203.23 7406.23,-205.52 7415.75,-210.18 7416.58,-203.23"/>
</g>
<!-- Node0x5fb4f6ab50f0 -->
<g id="node47" class="node">
<title>Node0x5fb4f6ab50f0</title>
<polygon fill="none" stroke="black" points="7544.85,-169.5 7544.85,-205.5 8173.85,-205.5 8173.85,-169.5 7544.85,-169.5"/>
<text text-anchor="middle" x="7859.35" y="-183.8" font-family="Times,serif" font-size="14.00">_ZNSt7__cxx1112basic_stringIcSt11char_traitsIcESaIcEE13_S_copy_charsEPcPKcS7_</text>
</g>
<!-- Node0x5fb4f6ab1ac0&#45;&gt;Node0x5fb4f6ab50f0 -->
<g id="edge47" class="edge">
<title>Node0x5fb4f6ab1ac0&#45;&gt;Node0x5fb4f6ab50f0</title>
<path fill="none" stroke="black" d="M7859.35,-242.31C7859.35,-234.29 7859.35,-224.55 7859.35,-215.57"/>
<polygon fill="black" stroke="black" points="7862.85,-215.53 7859.35,-205.53 7855.85,-215.53 7862.85,-215.53"/>
</g>
<!-- Node0x5fb4f6ab4c60 -->
<g id="node48" class="node">
<title>Node0x5fb4f6ab4c60</title>
<polygon fill="none" stroke="black" points="8192.35,-169.5 8192.35,-205.5 8764.35,-205.5 8764.35,-169.5 8192.35,-169.5"/>
<text text-anchor="middle" x="8478.35" y="-183.8" font-family="Times,serif" font-size="14.00">_ZNSt7__cxx1112basic_stringIcSt11char_traitsIcESaIcEE13_M_set_lengthEm</text>
</g>
<!-- Node0x5fb4f6ab1ac0&#45;&gt;Node0x5fb4f6ab4c60 -->
<g id="edge48" class="edge">
<title>Node0x5fb4f6ab1ac0&#45;&gt;Node0x5fb4f6ab4c60</title>
<path fill="none" stroke="black" d="M8007.62,-242.49C8101.84,-231.69 8223.71,-217.71 8319.85,-206.68"/>
<polygon fill="black" stroke="black" points="8320.42,-210.14 8329.96,-205.52 8319.62,-203.18 8320.42,-210.14"/>
</g>
<!-- Node0x5fb4f6b2acc0 -->
<g id="node49" class="node">
<title>Node0x5fb4f6b2acc0</title>
<polygon fill="none" stroke="black" points="8782.35,-169.5 8782.35,-205.5 9740.35,-205.5 9740.35,-169.5 8782.35,-169.5"/>
<text text-anchor="middle" x="9261.35" y="-183.8" font-family="Times,serif" font-size="14.00">_ZZNSt7__cxx1112basic_stringIcSt11char_traitsIcESaIcEE12_M_constructIPKcEEvT_S8_St20forward_iterator_tagEN6_GuardD2Ev</text>
</g>
<!-- Node0x5fb4f6ab1ac0&#45;&gt;Node0x5fb4f6b2acc0 -->
<g id="edge49" class="edge">
<title>Node0x5fb4f6ab1ac0&#45;&gt;Node0x5fb4f6b2acc0</title>
<path fill="none" stroke="black" d="M8195.17,-242.49C8412.87,-231.47 8695.78,-217.14 8915.46,-206.02"/>
<polygon fill="black" stroke="black" points="8915.74,-209.51 8925.55,-205.51 8915.38,-202.52 8915.74,-209.51"/>
</g>
<!-- Node0x5fb4f6ab1550 -->
<g id="node32" class="node">
<title>Node0x5fb4f6ab1550</title>
<polygon fill="none" stroke="black" points="3487.85,-461.5 3487.85,-497.5 3808.85,-497.5 3808.85,-461.5 3487.85,-461.5"/>
<text text-anchor="middle" x="3648.35" y="-475.8" font-family="Times,serif" font-size="14.00">_Z14LoadConfigAutoR17IccAnalyzerConfig</text>
</g>
<!-- Node0x5fb4f6ab1550&#45;&gt;Node0x5fb4f6b1adf0 -->
<g id="edge37" class="edge">
<title>Node0x5fb4f6ab1550&#45;&gt;Node0x5fb4f6b1adf0</title>
<path fill="none" stroke="black" d="M3567.15,-461.49C3517.01,-450.99 3452.56,-437.49 3400.64,-426.62"/>
<polygon fill="black" stroke="black" points="3401.27,-423.18 3390.77,-424.55 3399.84,-430.03 3401.27,-423.18"/>
</g>
<!-- Node0x5fb4f6b294b0 -->
<g id="node33" class="node">
<title>Node0x5fb4f6b294b0</title>
<polygon fill="none" stroke="black" points="3484.85,-388.5 3484.85,-424.5 3549.85,-424.5 3549.85,-388.5 3484.85,-388.5"/>
<text text-anchor="middle" x="3517.35" y="-402.8" font-family="Times,serif" font-size="14.00">getenv</text>
</g>
<!-- Node0x5fb4f6ab1550&#45;&gt;Node0x5fb4f6b294b0 -->
<g id="edge32" class="edge">
<title>Node0x5fb4f6ab1550&#45;&gt;Node0x5fb4f6b294b0</title>
<path fill="none" stroke="black" d="M3616.97,-461.49C3599.28,-451.9 3576.98,-439.82 3557.96,-429.51"/>
<polygon fill="black" stroke="black" points="3559.39,-426.3 3548.93,-424.61 3556.05,-432.46 3559.39,-426.3"/>
</g>
<!-- Node0x5fb4f6ab3060 -->
<g id="node34" class="node">
<title>Node0x5fb4f6ab3060</title>
<polygon fill="none" stroke="black" points="3567.85,-388.5 3567.85,-424.5 3644.85,-424.5 3644.85,-388.5 3567.85,-388.5"/>
<text text-anchor="middle" x="3606.35" y="-402.8" font-family="Times,serif" font-size="14.00">realpath</text>
</g>
<!-- Node0x5fb4f6ab1550&#45;&gt;Node0x5fb4f6ab3060 -->
<g id="edge33" class="edge">
<title>Node0x5fb4f6ab1550&#45;&gt;Node0x5fb4f6ab3060</title>
<path fill="none" stroke="black" d="M3638.18,-461.31C3633.23,-452.94 3627.17,-442.7 3621.67,-433.4"/>
<polygon fill="black" stroke="black" points="3624.53,-431.35 3616.42,-424.53 3618.5,-434.92 3624.53,-431.35"/>
</g>
<!-- Node0x5fb4f6b291f0 -->
<g id="node35" class="node">
<title>Node0x5fb4f6b291f0</title>
<polygon fill="none" stroke="black" points="3662.85,-388.5 3662.85,-424.5 3719.85,-424.5 3719.85,-388.5 3662.85,-388.5"/>
<text text-anchor="middle" x="3691.35" y="-402.8" font-family="Times,serif" font-size="14.00">strstr</text>
</g>
<!-- Node0x5fb4f6ab1550&#45;&gt;Node0x5fb4f6b291f0 -->
<g id="edge34" class="edge">
<title>Node0x5fb4f6ab1550&#45;&gt;Node0x5fb4f6b291f0</title>
<path fill="none" stroke="black" d="M3658.76,-461.31C3663.88,-452.85 3670.16,-442.48 3675.84,-433.11"/>
<polygon fill="black" stroke="black" points="3678.85,-434.9 3681.04,-424.53 3672.86,-431.27 3678.85,-434.9"/>
</g>
<!-- Node0x5fb4f6ab2ae0 -->
<g id="node36" class="node">
<title>Node0x5fb4f6ab2ae0</title>
<polygon fill="none" stroke="black" points="3738.35,-388.5 3738.35,-424.5 3800.35,-424.5 3800.35,-388.5 3738.35,-388.5"/>
<text text-anchor="middle" x="3769.35" y="-402.8" font-family="Times,serif" font-size="14.00">fprintf</text>
</g>
<!-- Node0x5fb4f6ab1550&#45;&gt;Node0x5fb4f6ab2ae0 -->
<g id="edge35" class="edge">
<title>Node0x5fb4f6ab1550&#45;&gt;Node0x5fb4f6ab2ae0</title>
<path fill="none" stroke="black" d="M3677.33,-461.49C3693.53,-451.99 3713.9,-440.04 3731.36,-429.79"/>
<polygon fill="black" stroke="black" points="3733.33,-432.69 3740.19,-424.61 3729.79,-426.66 3733.33,-432.69"/>
</g>
<!-- Node0x5fb4f6ab2a60 -->
<g id="node37" class="node">
<title>Node0x5fb4f6ab2a60</title>
<polygon fill="none" stroke="black" points="3818.35,-388.5 3818.35,-424.5 3892.35,-424.5 3892.35,-388.5 3818.35,-388.5"/>
<text text-anchor="middle" x="3855.35" y="-402.8" font-family="Times,serif" font-size="14.00">snprintf</text>
</g>
<!-- Node0x5fb4f6ab1550&#45;&gt;Node0x5fb4f6ab2a60 -->
<g id="edge36" class="edge">
<title>Node0x5fb4f6ab1550&#45;&gt;Node0x5fb4f6ab2a60</title>
<path fill="none" stroke="black" d="M3701.48,-461.48C3730.68,-451.97 3767.74,-439.68 3808.62,-425.2"/>
<polygon fill="black" stroke="black" points="3810,-428.42 3818.24,-421.77 3807.65,-421.83 3810,-428.42"/>
</g>
<!-- Node0x5fb4f6ab1550&#45;&gt;Node0x5fb4f6ab3560 -->
<g id="edge38" class="edge">
<title>Node0x5fb4f6ab1550&#45;&gt;Node0x5fb4f6ab3560</title>
<path fill="none" stroke="black" d="M3487.66,-476.05C2798.65,-464.75 123.72,-412.4 8.35,-279 -2.41,-266.56 -3.05,-253.85 8.35,-242 57.07,-191.39 1152.28,-188.53 1376.48,-188.48"/>
<polygon fill="black" stroke="black" points="1376.78,-191.98 1386.78,-188.48 1376.78,-184.98 1376.78,-191.98"/>
</g>
<!-- Node0x5fb4f6b29a30 -->
<g id="node39" class="node">
<title>Node0x5fb4f6b29a30</title>
<polygon fill="none" stroke="black" points="3910.35,-388.5 3910.35,-424.5 3986.35,-424.5 3986.35,-388.5 3910.35,-388.5"/>
<text text-anchor="middle" x="3948.35" y="-402.8" font-family="Times,serif" font-size="14.00">strncmp</text>
</g>
<!-- Node0x5fb4f6ab1550&#45;&gt;Node0x5fb4f6b29a30 -->
<g id="edge39" class="edge">
<title>Node0x5fb4f6ab1550&#45;&gt;Node0x5fb4f6b29a30</title>
<path fill="none" stroke="black" d="M3745.29,-461.49C3790.15,-452.79 3844.19,-441.12 3900.5,-425.04"/>
<polygon fill="black" stroke="black" points="3901.66,-428.35 3910.29,-422.21 3899.71,-421.63 3901.66,-428.35"/>
</g>
<!-- Node0x5fb4f6ab3820 -->
<g id="node40" class="node">
<title>Node0x5fb4f6ab3820</title>
<polygon fill="none" stroke="black" points="4011.85,-461.5 4011.85,-497.5 4186.85,-497.5 4186.85,-461.5 4011.85,-461.5"/>
<text text-anchor="middle" x="4099.35" y="-475.8" font-family="Times,serif" font-size="14.00">_Z15PrintConfigHelpv</text>
</g>
<!-- Node0x5fb4f6ab3c50 -->
<g id="node41" class="node">
<title>Node0x5fb4f6ab3c50</title>
<polygon fill="none" stroke="black" points="4070.85,-388.5 4070.85,-424.5 4127.85,-424.5 4127.85,-388.5 4070.85,-388.5"/>
<text text-anchor="middle" x="4099.35" y="-402.8" font-family="Times,serif" font-size="14.00">printf</text>
</g>
<!-- Node0x5fb4f6ab3820&#45;&gt;Node0x5fb4f6ab3c50 -->
<g id="edge40" class="edge">
<title>Node0x5fb4f6ab3820&#45;&gt;Node0x5fb4f6ab3c50</title>
<path fill="none" stroke="black" d="M4099.35,-461.31C4099.35,-453.29 4099.35,-443.55 4099.35,-434.57"/>
<polygon fill="black" stroke="black" points="4102.85,-434.53 4099.35,-424.53 4095.85,-434.53 4102.85,-434.53"/>
</g>
<!-- Node0x5fb4f6ab6170 -->
<g id="node50" class="node">
<title>Node0x5fb4f6ab6170</title>
<polygon fill="none" stroke="black" points="8797.85,-96.5 8797.85,-132.5 9344.85,-132.5 9344.85,-96.5 8797.85,-96.5"/>
<text text-anchor="middle" x="9071.35" y="-110.8" font-family="Times,serif" font-size="14.00">_ZNSt7__cxx1112basic_stringIcSt11char_traitsIcESaIcEE10_M_disposeEv</text>
</g>
<!-- Node0x5fb4f6b2acc0&#45;&gt;Node0x5fb4f6ab6170 -->
<g id="edge51" class="edge">
<title>Node0x5fb4f6b2acc0&#45;&gt;Node0x5fb4f6ab6170</title>
<path fill="none" stroke="black" d="M9215.84,-169.49C9189.01,-159.47 9154.88,-146.71 9126.52,-136.12"/>
<polygon fill="black" stroke="black" points="9127.74,-132.84 9117.15,-132.61 9125.29,-139.39 9127.74,-132.84"/>
</g>
<!-- Node0x5fb4f6ab5a30 -->
<g id="node51" class="node">
<title>Node0x5fb4f6ab5a30</title>
<polygon fill="none" stroke="black" points="9362.85,-96.5 9362.85,-132.5 9539.85,-132.5 9539.85,-96.5 9362.85,-96.5"/>
<text text-anchor="middle" x="9451.35" y="-110.8" font-family="Times,serif" font-size="14.00">__clang_call_terminate</text>
</g>
<!-- Node0x5fb4f6b2acc0&#45;&gt;Node0x5fb4f6ab5a30 -->
<g id="edge52" class="edge">
<title>Node0x5fb4f6b2acc0&#45;&gt;Node0x5fb4f6ab5a30</title>
<path fill="none" stroke="black" d="M9306.86,-169.49C9333.69,-159.47 9367.82,-146.71 9396.18,-136.12"/>
<polygon fill="black" stroke="black" points="9397.41,-139.39 9405.55,-132.61 9394.96,-132.84 9397.41,-139.39"/>
</g>
<!-- Node0x5fb4f6ab5a30&#45;&gt;Node0x5fb4f6ab57e0 -->
<g id="edge54" class="edge">
<title>Node0x5fb4f6ab5a30&#45;&gt;Node0x5fb4f6ab57e0</title>
<path fill="none" stroke="black" d="M9431.99,-96.31C9421.86,-87.33 9409.32,-76.19 9398.26,-66.39"/>
<polygon fill="black" stroke="black" points="9400.34,-63.55 9390.54,-59.53 9395.69,-68.78 9400.34,-63.55"/>
</g>
<!-- Node0x5fb4f6ab5f30 -->
<g id="node52" class="node">
<title>Node0x5fb4f6ab5f30</title>
<polygon fill="none" stroke="black" points="9458.35,-23.5 9458.35,-59.5 9604.35,-59.5 9604.35,-23.5 9458.35,-23.5"/>
<text text-anchor="middle" x="9531.35" y="-37.8" font-family="Times,serif" font-size="14.00">__cxa_begin_catch</text>
</g>
<!-- Node0x5fb4f6ab5a30&#45;&gt;Node0x5fb4f6ab5f30 -->
<g id="edge53" class="edge">
<title>Node0x5fb4f6ab5a30&#45;&gt;Node0x5fb4f6ab5f30</title>
<path fill="none" stroke="black" d="M9470.72,-96.31C9480.84,-87.33 9493.39,-76.19 9504.44,-66.39"/>
<polygon fill="black" stroke="black" points="9507.01,-68.78 9512.16,-59.53 9502.36,-63.55 9507.01,-68.78"/>
</g>
</g>
</svg>
