<?xml version="1.0" encoding="UTF-8" standalone="no"?>
<!DOCTYPE svg PUBLIC "-//W3C//DTD SVG 1.1//EN"
 "http://www.w3.org/Graphics/SVG/1.1/DTD/svg11.dtd">
<!-- Generated by graphviz version 2.43.0 (0)
 -->
<!-- Title: Call graph: /home/h02332/po/research/call&#45;graph/analyzer/IccAnalyzerTagDetails.ll Pages: 1 -->
<svg width="3712pt" height="14400pt"
 viewBox="0.00 0.00 3711.96 14400.00" xmlns="http://www.w3.org/2000/svg" xmlns:xlink="http://www.w3.org/1999/xlink">
<g id="graph0" class="graph" transform="scale(1.77 1.77) rotate(0) translate(36 8099)">
<title>Call graph: /home/h02332/po/research/call&#45;graph/analyzer/IccAnalyzerTagDetails.ll</title>
<polygon fill="white" stroke="transparent" points="-36,36 -36,-8099 2061,-8099 2061,36 -36,36"/>
<!-- Node0x5acebb9bce70 -->
<g id="node1" class="node">
<title>Node0x5acebb9bce70</title>
<path fill="#f0f4ff" stroke="black" d="M113,-1661C113,-1661 17,-1661 17,-1661 11,-1661 5,-1655 5,-1649 5,-1649 5,-1637 5,-1637 5,-1631 11,-1625 17,-1625 17,-1625 113,-1625 113,-1625 119,-1625 125,-1631 125,-1637 125,-1637 125,-1649 125,-1649 125,-1655 119,-1661 113,-1661"/>
<text text-anchor="middle" x="65" y="-1640.8" font-family="Courier,monospace" font-size="9.00">{TagDetailAnalyze()}</text>
</g>
<!-- Node0x5acebb884690 -->
<g id="node2" class="node">
<title>Node0x5acebb884690</title>
<path fill="#f0f4ff" stroke="black" d="M650,-1661C650,-1661 617,-1661 617,-1661 611,-1661 605,-1655 605,-1649 605,-1649 605,-1637 605,-1637 605,-1631 611,-1625 617,-1625 617,-1625 650,-1625 650,-1625 656,-1625 662,-1631 662,-1637 662,-1637 662,-1649 662,-1649 662,-1655 656,-1661 650,-1661"/>
<text text-anchor="middle" x="633.5" y="-1640.8" font-family="Courier,monospace" font-size="9.00">{printf}</text>
</g>
<!-- Node0x5acebb9bce70&#45;&gt;Node0x5acebb884690 -->
<g id="edge1" class="edge">
<title>Node0x5acebb9bce70&#45;&gt;Node0x5acebb884690</title>
<path fill="none" stroke="#4a6fa5" d="M125.02,-1643C242.82,-1643 503.83,-1643 597.88,-1643"/>
<polygon fill="#4a6fa5" stroke="#4a6fa5" points="597.88,-1645.45 604.88,-1643 597.88,-1640.55 597.88,-1645.45"/>
</g>
<!-- Node0x5acebb99f1a0 -->
<g id="node3" class="node">
<title>Node0x5acebb99f1a0</title>
<path fill="#f0f4ff" stroke="black" d="M326,-2922C326,-2922 241,-2922 241,-2922 235,-2922 229,-2916 229,-2910 229,-2910 229,-2898 229,-2898 229,-2892 235,-2886 241,-2886 241,-2886 326,-2886 326,-2886 332,-2886 338,-2892 338,-2898 338,-2898 338,-2910 338,-2910 338,-2916 332,-2922 326,-2922"/>
<text text-anchor="middle" x="283.5" y="-2901.8" font-family="Courier,monospace" font-size="9.00">{AnalyzeLutTags()}</text>
</g>
<!-- Node0x5acebb9bce70&#45;&gt;Node0x5acebb99f1a0 -->
<g id="edge2" class="edge">
<title>Node0x5acebb9bce70&#45;&gt;Node0x5acebb99f1a0</title>
<path fill="none" stroke="#4a6fa5" d="M69.14,-1661.31C93.36,-1802.33 249.98,-2714.56 278.16,-2878.72"/>
<polygon fill="#4a6fa5" stroke="#4a6fa5" points="275.8,-2879.48 279.4,-2885.96 280.63,-2878.65 275.8,-2879.48"/>
</g>
<!-- Node0x5acebb86e9c0 -->
<g id="node4" class="node">
<title>Node0x5acebb86e9c0</title>
<path fill="#f0f4ff" stroke="black" d="M328.5,-2441C328.5,-2441 238.5,-2441 238.5,-2441 232.5,-2441 226.5,-2435 226.5,-2429 226.5,-2429 226.5,-2417 226.5,-2417 226.5,-2411 232.5,-2405 238.5,-2405 238.5,-2405 328.5,-2405 328.5,-2405 334.5,-2405 340.5,-2411 340.5,-2417 340.5,-2417 340.5,-2429 340.5,-2429 340.5,-2435 334.5,-2441 328.5,-2441"/>
<text text-anchor="middle" x="283.5" y="-2420.8" font-family="Courier,monospace" font-size="9.00">{AnalyzeTagSizes()}</text>
</g>
<!-- Node0x5acebb9bce70&#45;&gt;Node0x5acebb86e9c0 -->
<g id="edge3" class="edge">
<title>Node0x5acebb9bce70&#45;&gt;Node0x5acebb86e9c0</title>
<path fill="none" stroke="#4a6fa5" d="M71.03,-1661.13C99.7,-1764.42 242.28,-2278.1 275.55,-2397.96"/>
<polygon fill="#4a6fa5" stroke="#4a6fa5" points="273.26,-2398.88 277.49,-2404.97 277.98,-2397.57 273.26,-2398.88"/>
</g>
<!-- Node0x5acebb9bcde0 -->
<g id="node5" class="node">
<title>Node0x5acebb9bcde0</title>
<path fill="#f0f4ff" stroke="black" d="M326,-1889C326,-1889 241,-1889 241,-1889 235,-1889 229,-1883 229,-1877 229,-1877 229,-1865 229,-1865 229,-1859 235,-1853 241,-1853 241,-1853 326,-1853 326,-1853 332,-1853 338,-1859 338,-1865 338,-1865 338,-1877 338,-1877 338,-1883 332,-1889 326,-1889"/>
<text text-anchor="middle" x="283.5" y="-1868.8" font-family="Courier,monospace" font-size="9.00">{AnalyzeMpeTags()}</text>
</g>
<!-- Node0x5acebb9bce70&#45;&gt;Node0x5acebb9bcde0 -->
<g id="edge4" class="edge">
<title>Node0x5acebb9bce70&#45;&gt;Node0x5acebb9bcde0</title>
<path fill="none" stroke="#4a6fa5" d="M83.35,-1661.27C122.4,-1702.4 217.15,-1802.18 260.36,-1847.68"/>
<polygon fill="#4a6fa5" stroke="#4a6fa5" points="258.77,-1849.57 265.37,-1852.96 262.32,-1846.19 258.77,-1849.57"/>
</g>
<!-- Node0x5acebb86d100 -->
<g id="node6" class="node">
<title>Node0x5acebb86d100</title>
<path fill="#f0f4ff" stroke="black" d="M331.5,-1726C331.5,-1726 235.5,-1726 235.5,-1726 229.5,-1726 223.5,-1720 223.5,-1714 223.5,-1714 223.5,-1702 223.5,-1702 223.5,-1696 229.5,-1690 235.5,-1690 235.5,-1690 331.5,-1690 331.5,-1690 337.5,-1690 343.5,-1696 343.5,-1702 343.5,-1702 343.5,-1714 343.5,-1714 343.5,-1720 337.5,-1726 331.5,-1726"/>
<text text-anchor="middle" x="283.5" y="-1705.8" font-family="Courier,monospace" font-size="9.00">{AnalyzeProfileID()}</text>
</g>
<!-- Node0x5acebb9bce70&#45;&gt;Node0x5acebb86d100 -->
<g id="edge5" class="edge">
<title>Node0x5acebb9bce70&#45;&gt;Node0x5acebb86d100</title>
<path fill="none" stroke="#4a6fa5" d="M125.16,-1660.76C153.44,-1669.25 187.39,-1679.45 216.51,-1688.19"/>
<polygon fill="#4a6fa5" stroke="#4a6fa5" points="216,-1690.59 223.41,-1690.26 217.41,-1685.9 216,-1690.59"/>
</g>
<!-- Node0x5acebb86ea40 -->
<g id="node7" class="node">
<title>Node0x5acebb86ea40</title>
<path fill="#f0f4ff" stroke="black" d="M331.5,-1303C331.5,-1303 235.5,-1303 235.5,-1303 229.5,-1303 223.5,-1297 223.5,-1291 223.5,-1291 223.5,-1279 223.5,-1279 223.5,-1273 229.5,-1267 235.5,-1267 235.5,-1267 331.5,-1267 331.5,-1267 337.5,-1267 343.5,-1273 343.5,-1279 343.5,-1279 343.5,-1291 343.5,-1291 343.5,-1297 337.5,-1303 331.5,-1303"/>
<text text-anchor="middle" x="283.5" y="-1282.8" font-family="Courier,monospace" font-size="9.00">{AnalyzeCurveTags()}</text>
</g>
<!-- Node0x5acebb9bce70&#45;&gt;Node0x5acebb86ea40 -->
<g id="edge6" class="edge">
<title>Node0x5acebb9bce70&#45;&gt;Node0x5acebb86ea40</title>
<path fill="none" stroke="#4a6fa5" d="M77.03,-1624.75C113.01,-1565.26 226.95,-1376.86 267.77,-1309.36"/>
<polygon fill="#4a6fa5" stroke="#4a6fa5" points="269.96,-1310.47 271.49,-1303.21 265.77,-1307.93 269.96,-1310.47"/>
</g>
<!-- Node0x5acebb86d7e0 -->
<g id="node8" class="node">
<title>Node0x5acebb86d7e0</title>
<path fill="#f0f4ff" stroke="black" d="M339,-458C339,-458 228,-458 228,-458 222,-458 216,-452 216,-446 216,-446 216,-434 216,-434 216,-428 222,-422 228,-422 228,-422 339,-422 339,-422 345,-422 351,-428 351,-434 351,-434 351,-446 351,-446 351,-452 345,-458 339,-458"/>
<text text-anchor="middle" x="283.5" y="-437.8" font-family="Courier,monospace" font-size="9.00">{AnalyzeSpectralTags()}</text>
</g>
<!-- Node0x5acebb9bce70&#45;&gt;Node0x5acebb86d7e0 -->
<g id="edge7" class="edge">
<title>Node0x5acebb9bce70&#45;&gt;Node0x5acebb86d7e0</title>
<path fill="none" stroke="#4a6fa5" d="M69.31,-1624.59C94.03,-1487.24 249.45,-623.66 278,-465.02"/>
<polygon fill="#4a6fa5" stroke="#4a6fa5" points="280.43,-465.33 279.26,-458.01 275.61,-464.46 280.43,-465.33"/>
</g>
<!-- Node0x5acebb86dd30 -->
<g id="node9" class="node">
<title>Node0x5acebb86dd30</title>
<path fill="#f0f4ff" stroke="black" d="M336.5,-1563C336.5,-1563 230.5,-1563 230.5,-1563 224.5,-1563 218.5,-1557 218.5,-1551 218.5,-1551 218.5,-1539 218.5,-1539 218.5,-1533 224.5,-1527 230.5,-1527 230.5,-1527 336.5,-1527 336.5,-1527 342.5,-1527 348.5,-1533 348.5,-1539 348.5,-1539 348.5,-1551 348.5,-1551 348.5,-1557 342.5,-1563 336.5,-1563"/>
<text text-anchor="middle" x="283.5" y="-1542.8" font-family="Courier,monospace" font-size="9.00">{AnalyzeNamedColors()}</text>
</g>
<!-- Node0x5acebb9bce70&#45;&gt;Node0x5acebb86dd30 -->
<g id="edge8" class="edge">
<title>Node0x5acebb9bce70&#45;&gt;Node0x5acebb86dd30</title>
<path fill="none" stroke="#4a6fa5" d="M105.96,-1624.91C142.69,-1608.29 197.15,-1583.64 235.85,-1566.12"/>
<polygon fill="#4a6fa5" stroke="#4a6fa5" points="237.04,-1568.27 242.4,-1563.15 235.02,-1563.8 237.04,-1568.27"/>
</g>
<!-- Node0x5acebb96dbb0 -->
<g id="node10" class="node">
<title>Node0x5acebb96dbb0</title>
<path fill="#f0f4ff" stroke="black" d="M326,-1238C326,-1238 241,-1238 241,-1238 235,-1238 229,-1232 229,-1226 229,-1226 229,-1214 229,-1214 229,-1208 235,-1202 241,-1202 241,-1202 326,-1202 326,-1202 332,-1202 338,-1208 338,-1214 338,-1214 338,-1226 338,-1226 338,-1232 332,-1238 326,-1238"/>
<text text-anchor="middle" x="283.5" y="-1217.8" font-family="Courier,monospace" font-size="9.00">{AnalyzeXYZTags()}</text>
</g>
<!-- Node0x5acebb9bce70&#45;&gt;Node0x5acebb96dbb0 -->
<g id="edge9" class="edge">
<title>Node0x5acebb9bce70&#45;&gt;Node0x5acebb96dbb0</title>
<path fill="none" stroke="#4a6fa5" d="M68.29,-1624.65C76.72,-1564.11 111.23,-1368.05 216,-1253 219.72,-1248.91 224.06,-1245.27 228.71,-1242.03"/>
<polygon fill="#4a6fa5" stroke="#4a6fa5" points="230.18,-1244 234.74,-1238.15 227.53,-1239.88 230.18,-1244"/>
</g>
<!-- Node0x5acebb99f1a0&#45;&gt;Node0x5acebb884690 -->
<g id="edge16" class="edge">
<title>Node0x5acebb99f1a0&#45;&gt;Node0x5acebb884690</title>
<path fill="none" stroke="#4a6fa5" d="M287.47,-2885.68C297.3,-2824.75 329.37,-2623.27 351,-2456 373.36,-2283.06 317.28,-1802.8 437,-1676 478.08,-1632.5 553.5,-1632.86 597.7,-1637.57"/>
<polygon fill="#4a6fa5" stroke="#4a6fa5" points="597.54,-1640.02 604.78,-1638.39 598.1,-1635.15 597.54,-1640.02"/>
</g>
<!-- Node0x5acebb86d010 -->
<g id="node11" class="node">
<title>Node0x5acebb86d010</title>
<path fill="#f0f4ff" stroke="black" d="M692,-1336C692,-1336 575,-1336 575,-1336 569,-1336 563,-1330 563,-1324 563,-1324 563,-1312 563,-1312 563,-1306 569,-1300 575,-1300 575,-1300 692,-1300 692,-1300 698,-1300 704,-1306 704,-1312 704,-1312 704,-1324 704,-1324 704,-1330 698,-1336 692,-1336"/>
<text text-anchor="middle" x="633.5" y="-1315.8" font-family="Courier,monospace" font-size="9.00">{CIccProfile::FindTag()}</text>
</g>
<!-- Node0x5acebb99f1a0&#45;&gt;Node0x5acebb86d010 -->
<g id="edge10" class="edge">
<title>Node0x5acebb99f1a0&#45;&gt;Node0x5acebb86d010</title>
<path fill="none" stroke="#4a6fa5" d="M287.68,-2885.71C298.17,-2824.86 332.06,-2623.59 351,-2456 364.83,-2333.63 353.91,-1441.89 437,-1351 466.42,-1318.82 514.59,-1310.41 555.75,-1310.12"/>
<polygon fill="#4a6fa5" stroke="#4a6fa5" points="555.81,-1312.57 562.82,-1310.15 555.83,-1307.67 555.81,-1312.57"/>
</g>
<!-- Node0x5acebb9c8ac0 -->
<g id="node12" class="node">
<title>Node0x5acebb9c8ac0</title>
<path fill="#f0f4ff" stroke="black" d="M671,-1271C671,-1271 596,-1271 596,-1271 590,-1271 584,-1265 584,-1259 584,-1259 584,-1247 584,-1247 584,-1241 590,-1235 596,-1235 596,-1235 671,-1235 671,-1235 677,-1235 683,-1241 683,-1247 683,-1247 683,-1259 683,-1259 683,-1265 677,-1271 671,-1271"/>
<text text-anchor="middle" x="633.5" y="-1250.8" font-family="Courier,monospace" font-size="9.00">{__dynamic_cast}</text>
</g>
<!-- Node0x5acebb99f1a0&#45;&gt;Node0x5acebb9c8ac0 -->
<g id="edge11" class="edge">
<title>Node0x5acebb99f1a0&#45;&gt;Node0x5acebb9c8ac0</title>
<path fill="none" stroke="#4a6fa5" d="M287.71,-2885.71C298.29,-2824.87 332.42,-2623.64 351,-2456 365.36,-2326.44 349.25,-1382.39 437,-1286 471.53,-1248.07 532.11,-1243.11 576.71,-1245.6"/>
<polygon fill="#4a6fa5" stroke="#4a6fa5" points="576.58,-1248.05 583.72,-1246.06 576.9,-1243.16 576.58,-1248.05"/>
</g>
<!-- Node0x5acebb8719c0 -->
<g id="node13" class="node">
<title>Node0x5acebb8719c0</title>
<path fill="#f0f4ff" stroke="black" d="M697,-3085C697,-3085 570,-3085 570,-3085 564,-3085 558,-3079 558,-3073 558,-3073 558,-3061 558,-3061 558,-3055 564,-3049 570,-3049 570,-3049 697,-3049 697,-3049 703,-3049 709,-3055 709,-3061 709,-3061 709,-3073 709,-3073 709,-3079 703,-3085 697,-3085"/>
<text text-anchor="middle" x="633.5" y="-3064.8" font-family="Courier,monospace" font-size="9.00">{CIccMBB::InputChannels()}</text>
</g>
<!-- Node0x5acebb99f1a0&#45;&gt;Node0x5acebb8719c0 -->
<g id="edge12" class="edge">
<title>Node0x5acebb99f1a0&#45;&gt;Node0x5acebb8719c0</title>
<path fill="none" stroke="#4a6fa5" d="M299.68,-2922.35C324.89,-2951.46 378.47,-3007.73 437,-3035 472.22,-3051.41 514.42,-3059.57 550.59,-3063.56"/>
<polygon fill="#4a6fa5" stroke="#4a6fa5" points="550.53,-3066.02 557.74,-3064.3 551.03,-3061.14 550.53,-3066.02"/>
</g>
<!-- Node0x5acebb9caea0 -->
<g id="node14" class="node">
<title>Node0x5acebb9caea0</title>
<path fill="#f0f4ff" stroke="black" d="M699.5,-3020C699.5,-3020 567.5,-3020 567.5,-3020 561.5,-3020 555.5,-3014 555.5,-3008 555.5,-3008 555.5,-2996 555.5,-2996 555.5,-2990 561.5,-2984 567.5,-2984 567.5,-2984 699.5,-2984 699.5,-2984 705.5,-2984 711.5,-2990 711.5,-2996 711.5,-2996 711.5,-3008 711.5,-3008 711.5,-3014 705.5,-3020 699.5,-3020"/>
<text text-anchor="middle" x="633.5" y="-2999.8" font-family="Courier,monospace" font-size="9.00">{CIccMBB::OutputChannels()}</text>
</g>
<!-- Node0x5acebb99f1a0&#45;&gt;Node0x5acebb9caea0 -->
<g id="edge13" class="edge">
<title>Node0x5acebb99f1a0&#45;&gt;Node0x5acebb9caea0</title>
<path fill="none" stroke="#4a6fa5" d="M319.32,-2922.01C349.65,-2936.98 395.2,-2957.74 437,-2970 472.74,-2980.48 513.23,-2987.82 548.05,-2992.81"/>
<polygon fill="#4a6fa5" stroke="#4a6fa5" points="548.12,-2995.29 555.39,-2993.83 548.8,-2990.44 548.12,-2995.29"/>
</g>
<!-- Node0x5acebb9c9fe0 -->
<g id="node15" class="node">
<title>Node0x5acebb9c9fe0</title>
<path fill="#f0f4ff" stroke="black" d="M663,-1466C663,-1466 604,-1466 604,-1466 598,-1466 592,-1460 592,-1454 592,-1454 592,-1442 592,-1442 592,-1436 598,-1430 604,-1430 604,-1430 663,-1430 663,-1430 669,-1430 675,-1436 675,-1442 675,-1442 675,-1454 675,-1454 675,-1460 669,-1466 663,-1466"/>
<text text-anchor="middle" x="633.5" y="-1445.8" font-family="Courier,monospace" font-size="9.00">{ColorInfo()}</text>
</g>
<!-- Node0x5acebb99f1a0&#45;&gt;Node0x5acebb9c9fe0 -->
<g id="edge14" class="edge">
<title>Node0x5acebb99f1a0&#45;&gt;Node0x5acebb9c9fe0</title>
<path fill="none" stroke="#4a6fa5" d="M287.62,-2885.7C297.89,-2824.83 331.2,-2623.49 351,-2456 363.77,-2348 363.21,-1560.89 437,-1481 473.91,-1441.04 539.76,-1437.84 584.75,-1441.25"/>
<polygon fill="#4a6fa5" stroke="#4a6fa5" points="584.6,-1443.69 591.78,-1441.84 585.01,-1438.81 584.6,-1443.69"/>
</g>
<!-- Node0x5acebb9cb190 -->
<g id="node16" class="node">
<title>Node0x5acebb9cb190</title>
<path fill="#f0f4ff" stroke="black" d="M665.5,-1726C665.5,-1726 601.5,-1726 601.5,-1726 595.5,-1726 589.5,-1720 589.5,-1714 589.5,-1714 589.5,-1702 589.5,-1702 589.5,-1696 595.5,-1690 601.5,-1690 601.5,-1690 665.5,-1690 665.5,-1690 671.5,-1690 677.5,-1696 677.5,-1702 677.5,-1702 677.5,-1714 677.5,-1714 677.5,-1720 671.5,-1726 665.5,-1726"/>
<text text-anchor="middle" x="633.5" y="-1705.8" font-family="Courier,monospace" font-size="9.00">{ColorReset()}</text>
</g>
<!-- Node0x5acebb99f1a0&#45;&gt;Node0x5acebb9cb190 -->
<g id="edge15" class="edge">
<title>Node0x5acebb99f1a0&#45;&gt;Node0x5acebb9cb190</title>
<path fill="none" stroke="#4a6fa5" d="M287.41,-2885.68C297.03,-2824.72 328.55,-2623.16 351,-2456 372.31,-2297.39 326.56,-1856.82 437,-1741 473.75,-1702.46 537.49,-1698.45 582.17,-1701.31"/>
<polygon fill="#4a6fa5" stroke="#4a6fa5" points="582.01,-1703.76 589.17,-1701.82 582.37,-1698.87 582.01,-1703.76"/>
</g>
<!-- Node0x5acebb871de0 -->
<g id="node17" class="node">
<title>Node0x5acebb871de0</title>
<path fill="#f0f4ff" stroke="black" d="M671,-2051C671,-2051 596,-2051 596,-2051 590,-2051 584,-2045 584,-2039 584,-2039 584,-2027 584,-2027 584,-2021 590,-2015 596,-2015 596,-2015 671,-2015 671,-2015 677,-2015 683,-2021 683,-2027 683,-2027 683,-2039 683,-2039 683,-2045 677,-2051 671,-2051"/>
<text text-anchor="middle" x="633.5" y="-2030.8" font-family="Courier,monospace" font-size="9.00">{ColorWarning()}</text>
</g>
<!-- Node0x5acebb99f1a0&#45;&gt;Node0x5acebb871de0 -->
<g id="edge17" class="edge">
<title>Node0x5acebb99f1a0&#45;&gt;Node0x5acebb871de0</title>
<path fill="none" stroke="#4a6fa5" d="M287.23,-2885.66C305.16,-2765.62 406.35,-2096.26 437,-2066 473.2,-2030.26 532.75,-2024.79 576.63,-2026.55"/>
<polygon fill="#4a6fa5" stroke="#4a6fa5" points="576.69,-2029 583.8,-2026.9 576.93,-2024.11 576.69,-2029"/>
</g>
<!-- Node0x5acebb9cdd60 -->
<g id="node18" class="node">
<title>Node0x5acebb9cdd60</title>
<path fill="#f0f4ff" stroke="black" d="M673.5,-1596C673.5,-1596 593.5,-1596 593.5,-1596 587.5,-1596 581.5,-1590 581.5,-1584 581.5,-1584 581.5,-1572 581.5,-1572 581.5,-1566 587.5,-1560 593.5,-1560 593.5,-1560 673.5,-1560 673.5,-1560 679.5,-1560 685.5,-1566 685.5,-1572 685.5,-1572 685.5,-1584 685.5,-1584 685.5,-1590 679.5,-1596 673.5,-1596"/>
<text text-anchor="middle" x="633.5" y="-1575.8" font-family="Courier,monospace" font-size="9.00">{ColorCritical()}</text>
</g>
<!-- Node0x5acebb99f1a0&#45;&gt;Node0x5acebb9cdd60 -->
<g id="edge18" class="edge">
<title>Node0x5acebb99f1a0&#45;&gt;Node0x5acebb9cdd60</title>
<path fill="none" stroke="#4a6fa5" d="M287.53,-2885.69C297.53,-2824.78 330.07,-2623.36 351,-2456 374.42,-2268.71 308,-1748.78 437,-1611 471.32,-1574.35 530.01,-1568.75 574.15,-1570.72"/>
<polygon fill="#4a6fa5" stroke="#4a6fa5" points="574.25,-1573.18 581.38,-1571.11 574.52,-1568.28 574.25,-1573.18"/>
</g>
<!-- Node0x5acebb9cd3a0 -->
<g id="node19" class="node">
<title>Node0x5acebb9cd3a0</title>
<path fill="#f0f4ff" stroke="black" d="M663,-2955C663,-2955 604,-2955 604,-2955 598,-2955 592,-2949 592,-2943 592,-2943 592,-2931 592,-2931 592,-2925 598,-2919 604,-2919 604,-2919 663,-2919 663,-2919 669,-2919 675,-2925 675,-2931 675,-2931 675,-2943 675,-2943 675,-2949 669,-2955 663,-2955"/>
<text text-anchor="middle" x="633.5" y="-2934.8" font-family="Courier,monospace" font-size="9.00">{SafeMul64()}</text>
</g>
<!-- Node0x5acebb99f1a0&#45;&gt;Node0x5acebb9cd3a0 -->
<g id="edge19" class="edge">
<title>Node0x5acebb99f1a0&#45;&gt;Node0x5acebb9cd3a0</title>
<path fill="none" stroke="#4a6fa5" d="M338.11,-2909.08C405.49,-2915.47 520.1,-2926.34 584.64,-2932.46"/>
<polygon fill="#4a6fa5" stroke="#4a6fa5" points="584.68,-2934.93 591.88,-2933.15 585.14,-2930.05 584.68,-2934.93"/>
</g>
<!-- Node0x5acebb871e60 -->
<g id="node20" class="node">
<title>Node0x5acebb871e60</title>
<path fill="#f0f4ff" stroke="black" d="M689,-2890C689,-2890 578,-2890 578,-2890 572,-2890 566,-2884 566,-2878 566,-2878 566,-2866 566,-2866 566,-2860 572,-2854 578,-2854 578,-2854 689,-2854 689,-2854 695,-2854 701,-2860 701,-2866 701,-2866 701,-2878 701,-2878 701,-2884 695,-2890 689,-2890"/>
<text text-anchor="middle" x="633.5" y="-2869.8" font-family="Courier,monospace" font-size="9.00">{CIccMBB::GetCurvesB()}</text>
</g>
<!-- Node0x5acebb99f1a0&#45;&gt;Node0x5acebb871e60 -->
<g id="edge20" class="edge">
<title>Node0x5acebb99f1a0&#45;&gt;Node0x5acebb871e60</title>
<path fill="none" stroke="#4a6fa5" d="M338.11,-2899.07C397.16,-2893.64 492.49,-2884.87 558.61,-2878.79"/>
<polygon fill="#4a6fa5" stroke="#4a6fa5" points="558.97,-2881.22 565.71,-2878.14 558.52,-2876.34 558.97,-2881.22"/>
</g>
<!-- Node0x5acebb9ce1a0 -->
<g id="node21" class="node">
<title>Node0x5acebb9ce1a0</title>
<path fill="#f0f4ff" stroke="black" d="M710,-3475C710,-3475 557,-3475 557,-3475 551,-3475 545,-3469 545,-3463 545,-3463 545,-3451 545,-3451 545,-3445 551,-3439 557,-3439 557,-3439 710,-3439 710,-3439 716,-3439 722,-3445 722,-3451 722,-3451 722,-3463 722,-3463 722,-3469 716,-3475 710,-3475"/>
<text text-anchor="middle" x="633.5" y="-3454.8" font-family="Courier,monospace" font-size="9.00">{CIccCLUT::GetOutputChannels()}</text>
</g>
<!-- Node0x5acebb99f1a0&#45;&gt;Node0x5acebb9ce1a0 -->
<g id="edge21" class="edge">
<title>Node0x5acebb99f1a0&#45;&gt;Node0x5acebb9ce1a0</title>
<path fill="none" stroke="#4a6fa5" d="M287.22,-2922.26C300.09,-3006.3 357.67,-3354.84 437,-3425 464.29,-3449.14 502.47,-3458.78 537.86,-3461.79"/>
<polygon fill="#4a6fa5" stroke="#4a6fa5" points="537.74,-3464.23 544.9,-3462.3 538.09,-3459.35 537.74,-3464.23"/>
</g>
<!-- Node0x5acebb9cb3a0 -->
<g id="node22" class="node">
<title>Node0x5acebb9cb3a0</title>
<path fill="#f0f4ff" stroke="black" d="M689,-3410C689,-3410 578,-3410 578,-3410 572,-3410 566,-3404 566,-3398 566,-3398 566,-3386 566,-3386 566,-3380 572,-3374 578,-3374 578,-3374 689,-3374 689,-3374 695,-3374 701,-3380 701,-3386 701,-3386 701,-3398 701,-3398 701,-3404 695,-3410 689,-3410"/>
<text text-anchor="middle" x="633.5" y="-3389.8" font-family="Courier,monospace" font-size="9.00">{CIccMBB::GetCurvesM()}</text>
</g>
<!-- Node0x5acebb99f1a0&#45;&gt;Node0x5acebb9cb3a0 -->
<g id="edge22" class="edge">
<title>Node0x5acebb99f1a0&#45;&gt;Node0x5acebb9cb3a0</title>
<path fill="none" stroke="#4a6fa5" d="M284.41,-2922.4C285.15,-2992.04 297.79,-3241.51 437,-3360 470.23,-3388.28 518.55,-3396.39 558.83,-3397.38"/>
<polygon fill="#4a6fa5" stroke="#4a6fa5" points="558.96,-3399.83 565.99,-3397.48 559.03,-3394.93 558.96,-3399.83"/>
</g>
<!-- Node0x5acebb871b90 -->
<g id="node23" class="node">
<title>Node0x5acebb871b90</title>
<path fill="#f0f4ff" stroke="black" d="M689,-3345C689,-3345 578,-3345 578,-3345 572,-3345 566,-3339 566,-3333 566,-3333 566,-3321 566,-3321 566,-3315 572,-3309 578,-3309 578,-3309 689,-3309 689,-3309 695,-3309 701,-3315 701,-3321 701,-3321 701,-3333 701,-3333 701,-3339 695,-3345 689,-3345"/>
<text text-anchor="middle" x="633.5" y="-3324.8" font-family="Courier,monospace" font-size="9.00">{CIccCLUT::GridPoint()}</text>
</g>
<!-- Node0x5acebb99f1a0&#45;&gt;Node0x5acebb871b90 -->
<g id="edge23" class="edge">
<title>Node0x5acebb99f1a0&#45;&gt;Node0x5acebb871b90</title>
<path fill="none" stroke="#4a6fa5" d="M285.55,-2922.4C290.21,-2985.69 314.68,-3195.97 437,-3295 470.59,-3322.2 518.32,-3330.4 558.21,-3331.71"/>
<polygon fill="#4a6fa5" stroke="#4a6fa5" points="558.51,-3334.17 565.56,-3331.88 558.62,-3329.27 558.51,-3334.17"/>
</g>
<!-- Node0x5acebb8714a0 -->
<g id="node24" class="node">
<title>Node0x5acebb8714a0</title>
<path fill="#f0f4ff" stroke="black" d="M689,-3280C689,-3280 578,-3280 578,-3280 572,-3280 566,-3274 566,-3268 566,-3268 566,-3256 566,-3256 566,-3250 572,-3244 578,-3244 578,-3244 689,-3244 689,-3244 695,-3244 701,-3250 701,-3256 701,-3256 701,-3268 701,-3268 701,-3274 695,-3280 689,-3280"/>
<text text-anchor="middle" x="633.5" y="-3259.8" font-family="Courier,monospace" font-size="9.00">{CIccMBB::GetCurvesA()}</text>
</g>
<!-- Node0x5acebb99f1a0&#45;&gt;Node0x5acebb8714a0 -->
<g id="edge24" class="edge">
<title>Node0x5acebb99f1a0&#45;&gt;Node0x5acebb8714a0</title>
<path fill="none" stroke="#4a6fa5" d="M287.04,-2922.1C295.94,-2978.15 331.12,-3149.88 437,-3230 471.34,-3255.98 518.85,-3264.2 558.44,-3265.82"/>
<polygon fill="#4a6fa5" stroke="#4a6fa5" points="558.66,-3268.28 565.74,-3266.05 558.82,-3263.38 558.66,-3268.28"/>
</g>
<!-- Node0x5acebb872030 -->
<g id="node25" class="node">
<title>Node0x5acebb872030</title>
<path fill="#f0f4ff" stroke="black" d="M684,-3215C684,-3215 583,-3215 583,-3215 577,-3215 571,-3209 571,-3203 571,-3203 571,-3191 571,-3191 571,-3185 577,-3179 583,-3179 583,-3179 684,-3179 684,-3179 690,-3179 696,-3185 696,-3191 696,-3191 696,-3203 696,-3203 696,-3209 690,-3215 684,-3215"/>
<text text-anchor="middle" x="633.5" y="-3194.8" font-family="Courier,monospace" font-size="9.00">{CIccCLUT::GetData()}</text>
</g>
<!-- Node0x5acebb99f1a0&#45;&gt;Node0x5acebb872030 -->
<g id="edge25" class="edge">
<title>Node0x5acebb99f1a0&#45;&gt;Node0x5acebb872030</title>
<path fill="none" stroke="#4a6fa5" d="M289.28,-2922.26C303.02,-2970.8 347.47,-3103.47 437,-3165 473.69,-3190.22 523.26,-3198.11 563.3,-3199.76"/>
<polygon fill="#4a6fa5" stroke="#4a6fa5" points="563.59,-3202.22 570.66,-3200 563.75,-3197.32 563.59,-3202.22"/>
</g>
<!-- Node0x5acebb9cb730 -->
<g id="node26" class="node">
<title>Node0x5acebb9cb730</title>
<path fill="#f0f4ff" stroke="black" d="M681.5,-3150C681.5,-3150 585.5,-3150 585.5,-3150 579.5,-3150 573.5,-3144 573.5,-3138 573.5,-3138 573.5,-3126 573.5,-3126 573.5,-3120 579.5,-3114 585.5,-3114 585.5,-3114 681.5,-3114 681.5,-3114 687.5,-3114 693.5,-3120 693.5,-3126 693.5,-3126 693.5,-3138 693.5,-3138 693.5,-3144 687.5,-3150 681.5,-3150"/>
<text text-anchor="middle" x="633.5" y="-3129.8" font-family="Courier,monospace" font-size="9.00">{CIccMBB::GetCLUT()}</text>
</g>
<!-- Node0x5acebb99f1a0&#45;&gt;Node0x5acebb9cb730 -->
<g id="edge26" class="edge">
<title>Node0x5acebb99f1a0&#45;&gt;Node0x5acebb9cb730</title>
<path fill="none" stroke="#4a6fa5" d="M292.7,-2922.01C311.74,-2961.58 363.05,-3056.08 437,-3100 475.7,-3122.98 525.91,-3130.83 565.76,-3133.01"/>
<polygon fill="#4a6fa5" stroke="#4a6fa5" points="565.97,-3135.47 573.08,-3133.35 566.2,-3130.58 565.97,-3135.47"/>
</g>
<!-- Node0x5acebb86e9c0&#45;&gt;Node0x5acebb884690 -->
<g id="edge94" class="edge">
<title>Node0x5acebb86e9c0&#45;&gt;Node0x5acebb884690</title>
<path fill="none" stroke="#4a6fa5" d="M286.96,-2404.89C301.92,-2295.83 381.97,-1729.18 437,-1676 479.91,-1634.53 554.35,-1634.09 597.94,-1638.13"/>
<polygon fill="#4a6fa5" stroke="#4a6fa5" points="597.71,-1640.57 604.92,-1638.84 598.21,-1635.7 597.71,-1640.57"/>
</g>
<!-- Node0x5acebb86e9c0&#45;&gt;Node0x5acebb9cb190 -->
<g id="edge103" class="edge">
<title>Node0x5acebb86e9c0&#45;&gt;Node0x5acebb9cb190</title>
<path fill="none" stroke="#4a6fa5" d="M285.89,-2404.71C293.8,-2305.87 336.32,-1836.5 437,-1741 475.32,-1704.65 537.95,-1700.02 581.97,-1702.14"/>
<polygon fill="#4a6fa5" stroke="#4a6fa5" points="582.02,-1704.6 589.15,-1702.56 582.3,-1699.71 582.02,-1704.6"/>
</g>
<!-- Node0x5acebb86e9c0&#45;&gt;Node0x5acebb871de0 -->
<g id="edge102" class="edge">
<title>Node0x5acebb86e9c0&#45;&gt;Node0x5acebb871de0</title>
<path fill="none" stroke="#4a6fa5" d="M286.27,-2404.95C293.11,-2345.64 323.43,-2155.45 437,-2066 476.37,-2034.99 534.18,-2028.58 576.73,-2028.82"/>
<polygon fill="#4a6fa5" stroke="#4a6fa5" points="576.92,-2031.27 583.96,-2028.92 576.99,-2026.37 576.92,-2031.27"/>
</g>
<!-- Node0x5acebb9ce920 -->
<g id="node30" class="node">
<title>Node0x5acebb9ce920</title>
<path fill="#f0f4ff" stroke="black" d="M660.5,-2376C660.5,-2376 606.5,-2376 606.5,-2376 600.5,-2376 594.5,-2370 594.5,-2364 594.5,-2364 594.5,-2352 594.5,-2352 594.5,-2346 600.5,-2340 606.5,-2340 606.5,-2340 660.5,-2340 660.5,-2340 666.5,-2340 672.5,-2346 672.5,-2352 672.5,-2352 672.5,-2364 672.5,-2364 672.5,-2370 666.5,-2376 660.5,-2376"/>
<text text-anchor="middle" x="633.5" y="-2355.8" font-family="Courier,monospace" font-size="9.00">{SigToStr()}</text>
</g>
<!-- Node0x5acebb86e9c0&#45;&gt;Node0x5acebb9ce920 -->
<g id="edge101" class="edge">
<title>Node0x5acebb86e9c0&#45;&gt;Node0x5acebb9ce920</title>
<path fill="none" stroke="#4a6fa5" d="M340.52,-2410.69C369.31,-2404.51 404.97,-2397.06 437,-2391 488.26,-2381.3 547.35,-2371.52 587.03,-2365.15"/>
<polygon fill="#4a6fa5" stroke="#4a6fa5" points="587.68,-2367.53 594.21,-2364 586.91,-2362.69 587.68,-2367.53"/>
</g>
<!-- Node0x5acebb9d4700 -->
<g id="node53" class="node">
<title>Node0x5acebb9d4700</title>
<path fill="#f0f4ff" stroke="black" d="M671,-2116C671,-2116 596,-2116 596,-2116 590,-2116 584,-2110 584,-2104 584,-2104 584,-2092 584,-2092 584,-2086 590,-2080 596,-2080 596,-2080 671,-2080 671,-2080 677,-2080 683,-2086 683,-2092 683,-2092 683,-2104 683,-2104 683,-2110 677,-2116 671,-2116"/>
<text text-anchor="middle" x="633.5" y="-2095.8" font-family="Courier,monospace" font-size="9.00">{ColorSuccess()}</text>
</g>
<!-- Node0x5acebb86e9c0&#45;&gt;Node0x5acebb9d4700 -->
<g id="edge104" class="edge">
<title>Node0x5acebb86e9c0&#45;&gt;Node0x5acebb9d4700</title>
<path fill="none" stroke="#4a6fa5" d="M288.09,-2404.94C299.46,-2352.86 339.84,-2201.6 437,-2131 477.28,-2101.74 534.44,-2095.01 576.56,-2094.69"/>
<polygon fill="#4a6fa5" stroke="#4a6fa5" points="576.71,-2097.14 583.71,-2094.69 576.72,-2092.24 576.71,-2097.14"/>
</g>
<!-- Node0x5acebb9d4e80 -->
<g id="node57" class="node">
<title>Node0x5acebb9d4e80</title>
<path fill="#f0f4ff" stroke="black" d="M765.5,-2441C765.5,-2441 501.5,-2441 501.5,-2441 495.5,-2441 489.5,-2435 489.5,-2429 489.5,-2429 489.5,-2417 489.5,-2417 489.5,-2411 495.5,-2405 501.5,-2405 501.5,-2405 765.5,-2405 765.5,-2405 771.5,-2405 777.5,-2411 777.5,-2417 777.5,-2417 777.5,-2429 777.5,-2429 777.5,-2435 771.5,-2441 765.5,-2441"/>
<text text-anchor="middle" x="633.5" y="-2420.8" font-family="Courier,monospace" font-size="9.00">{std::_List_iterator&lt;IccTagEntry&gt;::_List_iterator()}</text>
</g>
<!-- Node0x5acebb86e9c0&#45;&gt;Node0x5acebb9d4e80 -->
<g id="edge95" class="edge">
<title>Node0x5acebb86e9c0&#45;&gt;Node0x5acebb9d4e80</title>
<path fill="none" stroke="#4a6fa5" d="M340.8,-2423C379.2,-2423 431.99,-2423 482.12,-2423"/>
<polygon fill="#4a6fa5" stroke="#4a6fa5" points="482.18,-2425.45 489.18,-2423 482.18,-2420.55 482.18,-2425.45"/>
</g>
<!-- Node0x5acebb9d4c00 -->
<g id="node58" class="node">
<title>Node0x5acebb9d4c00</title>
<path fill="#f0f4ff" stroke="black" d="M718,-2825C718,-2825 549,-2825 549,-2825 543,-2825 537,-2819 537,-2813 537,-2813 537,-2801 537,-2801 537,-2795 543,-2789 549,-2789 549,-2789 718,-2789 718,-2789 724,-2789 730,-2795 730,-2801 730,-2801 730,-2813 730,-2813 730,-2819 724,-2825 718,-2825"/>
<text text-anchor="middle" x="633.5" y="-2804.8" font-family="Courier,monospace" font-size="9.00">{std::list&lt;IccTagEntry &gt;::begin()}</text>
</g>
<!-- Node0x5acebb86e9c0&#45;&gt;Node0x5acebb9d4c00 -->
<g id="edge96" class="edge">
<title>Node0x5acebb86e9c0&#45;&gt;Node0x5acebb9d4c00</title>
<path fill="none" stroke="#4a6fa5" d="M286.39,-2441.24C293.55,-2500.27 324.59,-2687.38 437,-2775 463.1,-2795.35 497.2,-2804.92 529.6,-2808.94"/>
<polygon fill="#4a6fa5" stroke="#4a6fa5" points="529.69,-2811.42 536.92,-2809.76 530.23,-2806.55 529.69,-2811.42"/>
</g>
<!-- Node0x5acebb9d4980 -->
<g id="node59" class="node">
<title>Node0x5acebb9d4980</title>
<path fill="#f0f4ff" stroke="black" d="M1115.5,-2633C1115.5,-2633 1004.5,-2633 1004.5,-2633 998.5,-2633 992.5,-2627 992.5,-2621 992.5,-2621 992.5,-2609 992.5,-2609 992.5,-2603 998.5,-2597 1004.5,-2597 1004.5,-2597 1115.5,-2597 1115.5,-2597 1121.5,-2597 1127.5,-2603 1127.5,-2609 1127.5,-2609 1127.5,-2621 1127.5,-2621 1127.5,-2627 1121.5,-2633 1115.5,-2633"/>
<text text-anchor="middle" x="1060" y="-2612.8" font-family="Courier,monospace" font-size="9.00">{llvm.memcpy.p0.p0.i64}</text>
</g>
<!-- Node0x5acebb86e9c0&#45;&gt;Node0x5acebb9d4980 -->
<g id="edge97" class="edge">
<title>Node0x5acebb86e9c0&#45;&gt;Node0x5acebb9d4980</title>
<path fill="none" stroke="#4a6fa5" d="M306.13,-2441.17C334.32,-2463.81 386.05,-2501.82 437,-2521 602.3,-2583.24 655.37,-2553.55 830,-2580 881.9,-2587.86 940.4,-2596.8 985.29,-2603.68"/>
<polygon fill="#4a6fa5" stroke="#4a6fa5" points="985.08,-2606.13 992.37,-2604.77 985.82,-2601.29 985.08,-2606.13"/>
</g>
<!-- Node0x5acebb9d5600 -->
<g id="node60" class="node">
<title>Node0x5acebb9d5600</title>
<path fill="#f0f4ff" stroke="black" d="M713,-2760C713,-2760 554,-2760 554,-2760 548,-2760 542,-2754 542,-2748 542,-2748 542,-2736 542,-2736 542,-2730 548,-2724 554,-2724 554,-2724 713,-2724 713,-2724 719,-2724 725,-2730 725,-2736 725,-2736 725,-2748 725,-2748 725,-2754 719,-2760 713,-2760"/>
<text text-anchor="middle" x="633.5" y="-2739.8" font-family="Courier,monospace" font-size="9.00">{std::list&lt;IccTagEntry &gt;::end()}</text>
</g>
<!-- Node0x5acebb86e9c0&#45;&gt;Node0x5acebb9d5600 -->
<g id="edge98" class="edge">
<title>Node0x5acebb86e9c0&#45;&gt;Node0x5acebb9d5600</title>
<path fill="none" stroke="#4a6fa5" d="M288.26,-2441.15C299.98,-2492.76 340.95,-2641.1 437,-2710 465.05,-2730.12 501.15,-2739.38 534.68,-2743.21"/>
<polygon fill="#4a6fa5" stroke="#4a6fa5" points="534.58,-2745.66 541.79,-2743.94 535.08,-2740.79 534.58,-2745.66"/>
</g>
<!-- Node0x5acebb9d6780 -->
<g id="node61" class="node">
<title>Node0x5acebb9d6780</title>
<path fill="#f0f4ff" stroke="black" d="M818,-2630C818,-2630 449,-2630 449,-2630 443,-2630 437,-2624 437,-2618 437,-2618 437,-2606 437,-2606 437,-2600 443,-2594 449,-2594 449,-2594 818,-2594 818,-2594 824,-2594 830,-2600 830,-2606 830,-2606 830,-2618 830,-2618 830,-2624 824,-2630 818,-2630"/>
<text text-anchor="middle" x="633.5" y="-2609.8" font-family="Courier,monospace" font-size="9.00">{std::operator!=(std::_List_iterator&lt;IccTagEntry&gt; const&amp;, std::_List...}</text>
</g>
<!-- Node0x5acebb86e9c0&#45;&gt;Node0x5acebb9d6780 -->
<g id="edge99" class="edge">
<title>Node0x5acebb86e9c0&#45;&gt;Node0x5acebb9d6780</title>
<path fill="none" stroke="#4a6fa5" d="M297.29,-2441.03C320.96,-2472.93 374.87,-2539.04 437,-2572 452.53,-2580.24 469.6,-2586.79 486.97,-2591.99"/>
<polygon fill="#4a6fa5" stroke="#4a6fa5" points="486.49,-2594.4 493.9,-2593.99 487.85,-2589.69 486.49,-2594.4"/>
</g>
<!-- Node0x5acebb9d6140 -->
<g id="node62" class="node">
<title>Node0x5acebb9d6140</title>
<path fill="#f0f4ff" stroke="black" d="M768,-2506C768,-2506 499,-2506 499,-2506 493,-2506 487,-2500 487,-2494 487,-2494 487,-2482 487,-2482 487,-2476 493,-2470 499,-2470 499,-2470 768,-2470 768,-2470 774,-2470 780,-2476 780,-2482 780,-2482 780,-2494 780,-2494 780,-2500 774,-2506 768,-2506"/>
<text text-anchor="middle" x="633.5" y="-2485.8" font-family="Courier,monospace" font-size="9.00">{std::_List_iterator&lt;IccTagEntry&gt;::operator*() const}</text>
</g>
<!-- Node0x5acebb86e9c0&#45;&gt;Node0x5acebb9d6140 -->
<g id="edge100" class="edge">
<title>Node0x5acebb86e9c0&#45;&gt;Node0x5acebb9d6140</title>
<path fill="none" stroke="#4a6fa5" d="M340.85,-2435.91C369.56,-2442.31 405.06,-2449.94 437,-2456 460.3,-2460.42 485.22,-2464.79 509.21,-2468.8"/>
<polygon fill="#4a6fa5" stroke="#4a6fa5" points="508.98,-2471.24 516.29,-2469.98 509.79,-2466.41 508.98,-2471.24"/>
</g>
<!-- Node0x5acebb9d5c40 -->
<g id="node63" class="node">
<title>Node0x5acebb9d5c40</title>
<path fill="#f0f4ff" stroke="black" d="M762.5,-2695C762.5,-2695 504.5,-2695 504.5,-2695 498.5,-2695 492.5,-2689 492.5,-2683 492.5,-2683 492.5,-2671 492.5,-2671 492.5,-2665 498.5,-2659 504.5,-2659 504.5,-2659 762.5,-2659 762.5,-2659 768.5,-2659 774.5,-2665 774.5,-2671 774.5,-2671 774.5,-2683 774.5,-2683 774.5,-2689 768.5,-2695 762.5,-2695"/>
<text text-anchor="middle" x="633.5" y="-2674.8" font-family="Courier,monospace" font-size="9.00">{std::_List_iterator&lt;IccTagEntry&gt;::operator++(int)}</text>
</g>
<!-- Node0x5acebb86e9c0&#45;&gt;Node0x5acebb9d5c40 -->
<g id="edge105" class="edge">
<title>Node0x5acebb86e9c0&#45;&gt;Node0x5acebb9d5c40</title>
<path fill="none" stroke="#4a6fa5" d="M291.1,-2441.07C307.92,-2484.34 356.86,-2594.13 437,-2645 451.74,-2654.36 468.32,-2661.26 485.43,-2666.32"/>
<polygon fill="#4a6fa5" stroke="#4a6fa5" points="484.87,-2668.7 492.27,-2668.23 486.19,-2663.98 484.87,-2668.7"/>
</g>
<!-- Node0x5acebb9bcde0&#45;&gt;Node0x5acebb884690 -->
<g id="edge32" class="edge">
<title>Node0x5acebb9bcde0&#45;&gt;Node0x5acebb884690</title>
<path fill="none" stroke="#4a6fa5" d="M292.89,-1852.81C312.13,-1813.32 363.52,-1719.76 437,-1676 487.08,-1646.18 556.44,-1641.37 597.67,-1641.53"/>
<polygon fill="#4a6fa5" stroke="#4a6fa5" points="597.75,-1643.98 604.78,-1641.61 597.81,-1639.08 597.75,-1643.98"/>
</g>
<!-- Node0x5acebb9bcde0&#45;&gt;Node0x5acebb86d010 -->
<g id="edge27" class="edge">
<title>Node0x5acebb9bcde0&#45;&gt;Node0x5acebb86d010</title>
<path fill="none" stroke="#4a6fa5" d="M295.75,-1852.73C310.43,-1828.17 336,-1782.75 351,-1741 411.02,-1573.96 308.4,-1473.34 437,-1351 468.17,-1321.34 515.51,-1312.78 555.8,-1311.78"/>
<polygon fill="#4a6fa5" stroke="#4a6fa5" points="556.01,-1314.23 562.97,-1311.68 555.94,-1309.33 556.01,-1314.23"/>
</g>
<!-- Node0x5acebb9bcde0&#45;&gt;Node0x5acebb9c8ac0 -->
<g id="edge28" class="edge">
<title>Node0x5acebb9bcde0&#45;&gt;Node0x5acebb9c8ac0</title>
<path fill="none" stroke="#4a6fa5" d="M295.94,-1852.8C310.83,-1828.31 336.63,-1782.97 351,-1741 417.65,-1546.29 290.06,-1430.09 437,-1286 473.32,-1250.39 532.85,-1244.89 576.69,-1246.61"/>
<polygon fill="#4a6fa5" stroke="#4a6fa5" points="576.75,-1249.07 583.86,-1246.96 576.99,-1244.17 576.75,-1249.07"/>
</g>
<!-- Node0x5acebb9bcde0&#45;&gt;Node0x5acebb9c9fe0 -->
<g id="edge30" class="edge">
<title>Node0x5acebb9bcde0&#45;&gt;Node0x5acebb9c9fe0</title>
<path fill="none" stroke="#4a6fa5" d="M294.88,-1852.91C308.81,-1828.17 333.78,-1782.16 351,-1741 397.96,-1628.71 344.64,-1560.27 437,-1481 477.7,-1446.07 541.29,-1441.43 584.82,-1443.16"/>
<polygon fill="#4a6fa5" stroke="#4a6fa5" points="584.78,-1445.61 591.89,-1443.5 585.02,-1440.71 584.78,-1445.61"/>
</g>
<!-- Node0x5acebb9bcde0&#45;&gt;Node0x5acebb9cb190 -->
<g id="edge31" class="edge">
<title>Node0x5acebb9bcde0&#45;&gt;Node0x5acebb9cb190</title>
<path fill="none" stroke="#4a6fa5" d="M299.73,-1852.83C325.01,-1823.99 378.68,-1768.21 437,-1741 483.2,-1719.44 541.38,-1711.78 582.21,-1709.16"/>
<polygon fill="#4a6fa5" stroke="#4a6fa5" points="582.53,-1711.59 589.37,-1708.74 582.24,-1706.7 582.53,-1711.59"/>
</g>
<!-- Node0x5acebb9bcde0&#45;&gt;Node0x5acebb871de0 -->
<g id="edge34" class="edge">
<title>Node0x5acebb9bcde0&#45;&gt;Node0x5acebb871de0</title>
<path fill="none" stroke="#4a6fa5" d="M299.71,-1889.21C324.97,-1918.1 378.61,-1973.93 437,-2001 481.15,-2021.47 536.23,-2029.09 576.66,-2031.81"/>
<polygon fill="#4a6fa5" stroke="#4a6fa5" points="576.64,-2034.26 583.78,-2032.24 576.94,-2029.37 576.64,-2034.26"/>
</g>
<!-- Node0x5acebb9cc890 -->
<g id="node27" class="node">
<title>Node0x5acebb9cc890</title>
<path fill="#f0f4ff" stroke="black" d="M741.5,-2181C741.5,-2181 525.5,-2181 525.5,-2181 519.5,-2181 513.5,-2175 513.5,-2169 513.5,-2169 513.5,-2157 513.5,-2157 513.5,-2151 519.5,-2145 525.5,-2145 525.5,-2145 741.5,-2145 741.5,-2145 747.5,-2145 753.5,-2151 753.5,-2157 753.5,-2157 753.5,-2169 753.5,-2169 753.5,-2175 747.5,-2181 741.5,-2181"/>
<text text-anchor="middle" x="633.5" y="-2160.8" font-family="Courier,monospace" font-size="9.00">{CIccTagMultiProcessElement::NumElements()}</text>
</g>
<!-- Node0x5acebb9bcde0&#45;&gt;Node0x5acebb9cc890 -->
<g id="edge29" class="edge">
<title>Node0x5acebb9bcde0&#45;&gt;Node0x5acebb9cc890</title>
<path fill="none" stroke="#4a6fa5" d="M289.3,-1889.19C303.1,-1937.55 347.68,-2069.72 437,-2131 457.48,-2145.05 481.96,-2153.72 506.56,-2158.93"/>
<polygon fill="#4a6fa5" stroke="#4a6fa5" points="506.15,-2161.34 513.49,-2160.3 507.1,-2156.54 506.15,-2161.34"/>
</g>
<!-- Node0x5acebb9ce6a0 -->
<g id="node28" class="node">
<title>Node0x5acebb9ce6a0</title>
<path fill="#f0f4ff" stroke="black" d="M755,-2311C755,-2311 512,-2311 512,-2311 506,-2311 500,-2305 500,-2299 500,-2299 500,-2287 500,-2287 500,-2281 506,-2275 512,-2275 512,-2275 755,-2275 755,-2275 761,-2275 767,-2281 767,-2287 767,-2287 767,-2299 767,-2299 767,-2305 761,-2311 755,-2311"/>
<text text-anchor="middle" x="633.5" y="-2290.8" font-family="Courier,monospace" font-size="9.00">{CIccTagMultiProcessElement::NumInputChannels()}</text>
</g>
<!-- Node0x5acebb9bcde0&#45;&gt;Node0x5acebb9ce6a0 -->
<g id="edge33" class="edge">
<title>Node0x5acebb9bcde0&#45;&gt;Node0x5acebb9ce6a0</title>
<path fill="none" stroke="#4a6fa5" d="M285.56,-1889.36C290.28,-1952.49 314.91,-2162.24 437,-2261 453.22,-2274.12 472.72,-2282.82 493.04,-2288.45"/>
<polygon fill="#4a6fa5" stroke="#4a6fa5" points="492.57,-2290.86 499.97,-2290.25 493.81,-2286.12 492.57,-2290.86"/>
</g>
<!-- Node0x5acebb9cee20 -->
<g id="node29" class="node">
<title>Node0x5acebb9cee20</title>
<path fill="#f0f4ff" stroke="black" d="M757.5,-2246C757.5,-2246 509.5,-2246 509.5,-2246 503.5,-2246 497.5,-2240 497.5,-2234 497.5,-2234 497.5,-2222 497.5,-2222 497.5,-2216 503.5,-2210 509.5,-2210 509.5,-2210 757.5,-2210 757.5,-2210 763.5,-2210 769.5,-2216 769.5,-2222 769.5,-2222 769.5,-2234 769.5,-2234 769.5,-2240 763.5,-2246 757.5,-2246"/>
<text text-anchor="middle" x="633.5" y="-2225.8" font-family="Courier,monospace" font-size="9.00">{CIccTagMultiProcessElement::NumOutputChannels()}</text>
</g>
<!-- Node0x5acebb9bcde0&#45;&gt;Node0x5acebb9cee20 -->
<g id="edge35" class="edge">
<title>Node0x5acebb9bcde0&#45;&gt;Node0x5acebb9cee20</title>
<path fill="none" stroke="#4a6fa5" d="M287.06,-1889.05C296.01,-1944.93 331.34,-2116.15 437,-2196 452.77,-2207.92 471.31,-2216.1 490.59,-2221.62"/>
<polygon fill="#4a6fa5" stroke="#4a6fa5" points="490.04,-2224 497.43,-2223.46 491.31,-2219.27 490.04,-2224"/>
</g>
<!-- Node0x5acebb9bcde0&#45;&gt;Node0x5acebb9ce920 -->
<g id="edge36" class="edge">
<title>Node0x5acebb9bcde0&#45;&gt;Node0x5acebb9ce920</title>
<path fill="none" stroke="#4a6fa5" d="M284.43,-1889.36C285.22,-1958.85 298.02,-2207.79 437,-2326 478.57,-2361.36 543.71,-2365.18 587.23,-2362.97"/>
<polygon fill="#4a6fa5" stroke="#4a6fa5" points="587.45,-2365.41 594.29,-2362.55 587.16,-2360.52 587.45,-2365.41"/>
</g>
<!-- Node0x5acebb9ceba0 -->
<g id="node31" class="node">
<title>Node0x5acebb9ceba0</title>
<path fill="#f0f4ff" stroke="black" d="M739,-1986C739,-1986 528,-1986 528,-1986 522,-1986 516,-1980 516,-1974 516,-1974 516,-1962 516,-1962 516,-1956 522,-1950 528,-1950 528,-1950 739,-1950 739,-1950 745,-1950 751,-1956 751,-1962 751,-1962 751,-1974 751,-1974 751,-1980 745,-1986 739,-1986"/>
<text text-anchor="middle" x="633.5" y="-1965.8" font-family="Courier,monospace" font-size="9.00">{CIccTagMultiProcessElement::GetElement()}</text>
</g>
<!-- Node0x5acebb9bcde0&#45;&gt;Node0x5acebb9ceba0 -->
<g id="edge37" class="edge">
<title>Node0x5acebb9bcde0&#45;&gt;Node0x5acebb9ceba0</title>
<path fill="none" stroke="#4a6fa5" d="M319.96,-1889.01C350.31,-1903.72 395.54,-1923.96 437,-1936 459.92,-1942.66 484.78,-1948.05 508.85,-1952.39"/>
<polygon fill="#4a6fa5" stroke="#4a6fa5" points="508.63,-1954.84 515.95,-1953.64 509.48,-1950.01 508.63,-1954.84"/>
</g>
<!-- Node0x5acebb86d100&#45;&gt;Node0x5acebb884690 -->
<g id="edge86" class="edge">
<title>Node0x5acebb86d100&#45;&gt;Node0x5acebb884690</title>
<path fill="none" stroke="#4a6fa5" d="M343.78,-1694.99C371.96,-1688.95 406.17,-1681.83 437,-1676 493.2,-1665.37 558.8,-1654.63 597.93,-1648.41"/>
<polygon fill="#4a6fa5" stroke="#4a6fa5" points="598.39,-1650.82 604.92,-1647.3 597.62,-1645.98 598.39,-1650.82"/>
</g>
<!-- Node0x5acebb86d100&#45;&gt;Node0x5acebb9c9fe0 -->
<g id="edge87" class="edge">
<title>Node0x5acebb86d100&#45;&gt;Node0x5acebb9c9fe0</title>
<path fill="none" stroke="#4a6fa5" d="M294.2,-1689.88C320.77,-1640.9 395.52,-1507.78 437,-1481 481.29,-1452.41 542.55,-1446.22 584.63,-1445.86"/>
<polygon fill="#4a6fa5" stroke="#4a6fa5" points="584.73,-1448.31 591.73,-1445.85 584.73,-1443.41 584.73,-1448.31"/>
</g>
<!-- Node0x5acebb86d100&#45;&gt;Node0x5acebb9cb190 -->
<g id="edge88" class="edge">
<title>Node0x5acebb86d100&#45;&gt;Node0x5acebb9cb190</title>
<path fill="none" stroke="#4a6fa5" d="M343.53,-1708C410.66,-1708 519.11,-1708 582.32,-1708"/>
<polygon fill="#4a6fa5" stroke="#4a6fa5" points="582.42,-1710.45 589.42,-1708 582.42,-1705.55 582.42,-1710.45"/>
</g>
<!-- Node0x5acebb86d100&#45;&gt;Node0x5acebb9cdd60 -->
<g id="edge89" class="edge">
<title>Node0x5acebb86d100&#45;&gt;Node0x5acebb9cdd60</title>
<path fill="none" stroke="#4a6fa5" d="M306.71,-1689.78C335.1,-1667.49 386.62,-1630.36 437,-1611 481.16,-1594.03 534.26,-1585.77 573.96,-1581.76"/>
<polygon fill="#4a6fa5" stroke="#4a6fa5" points="574.48,-1584.17 581.22,-1581.06 574.01,-1579.29 574.48,-1584.17"/>
</g>
<!-- Node0x5acebb86d100&#45;&gt;Node0x5acebb9d4700 -->
<g id="edge90" class="edge">
<title>Node0x5acebb86d100&#45;&gt;Node0x5acebb9d4700</title>
<path fill="none" stroke="#4a6fa5" d="M294.61,-1726.35C308.23,-1751.42 332.86,-1797.94 351,-1839 394.59,-1937.69 353.48,-1997.71 437,-2066 475.76,-2097.69 533.66,-2103.69 576.39,-2102.97"/>
<polygon fill="#4a6fa5" stroke="#4a6fa5" points="576.72,-2105.41 583.65,-2102.78 576.59,-2100.51 576.72,-2105.41"/>
</g>
<!-- Node0x5acebb9d4480 -->
<g id="node54" class="node">
<title>Node0x5acebb9d4480</title>
<path fill="#f0f4ff" stroke="black" d="M681.5,-1791C681.5,-1791 585.5,-1791 585.5,-1791 579.5,-1791 573.5,-1785 573.5,-1779 573.5,-1779 573.5,-1767 573.5,-1767 573.5,-1761 579.5,-1755 585.5,-1755 585.5,-1755 681.5,-1755 681.5,-1755 687.5,-1755 693.5,-1761 693.5,-1767 693.5,-1767 693.5,-1779 693.5,-1779 693.5,-1785 687.5,-1791 681.5,-1791"/>
<text text-anchor="middle" x="633.5" y="-1770.8" font-family="Courier,monospace" font-size="9.00">{llvm.memset.p0.i64}</text>
</g>
<!-- Node0x5acebb86d100&#45;&gt;Node0x5acebb9d4480 -->
<g id="edge91" class="edge">
<title>Node0x5acebb86d100&#45;&gt;Node0x5acebb9d4480</title>
<path fill="none" stroke="#4a6fa5" d="M343.74,-1721.55C371.92,-1727.81 406.13,-1735.14 437,-1741 479.94,-1749.16 528.43,-1757.1 566.37,-1763.03"/>
<polygon fill="#4a6fa5" stroke="#4a6fa5" points="566.04,-1765.46 573.33,-1764.12 566.79,-1760.62 566.04,-1765.46"/>
</g>
<!-- Node0x5acebb9d4200 -->
<g id="node55" class="node">
<title>Node0x5acebb9d4200</title>
<path fill="#f0f4ff" stroke="black" d="M673.5,-1921C673.5,-1921 593.5,-1921 593.5,-1921 587.5,-1921 581.5,-1915 581.5,-1909 581.5,-1909 581.5,-1897 581.5,-1897 581.5,-1891 587.5,-1885 593.5,-1885 593.5,-1885 673.5,-1885 673.5,-1885 679.5,-1885 685.5,-1891 685.5,-1897 685.5,-1897 685.5,-1909 685.5,-1909 685.5,-1915 679.5,-1921 673.5,-1921"/>
<text text-anchor="middle" x="633.5" y="-1900.8" font-family="Courier,monospace" font-size="9.00">{CalcProfileID()}</text>
</g>
<!-- Node0x5acebb86d100&#45;&gt;Node0x5acebb9d4200 -->
<g id="edge92" class="edge">
<title>Node0x5acebb86d100&#45;&gt;Node0x5acebb9d4200</title>
<path fill="none" stroke="#4a6fa5" d="M295.5,-1726.09C317.57,-1760.63 370.85,-1835.68 437,-1871 479.36,-1893.62 533.66,-1901.08 574.28,-1903.2"/>
<polygon fill="#4a6fa5" stroke="#4a6fa5" points="574.34,-1905.65 581.45,-1903.52 574.57,-1900.76 574.34,-1905.65"/>
</g>
<!-- Node0x5acebb9d3f80 -->
<g id="node56" class="node">
<title>Node0x5acebb9d3f80</title>
<path fill="#f0f4ff" stroke="black" d="M650,-1856C650,-1856 617,-1856 617,-1856 611,-1856 605,-1850 605,-1844 605,-1844 605,-1832 605,-1832 605,-1826 611,-1820 617,-1820 617,-1820 650,-1820 650,-1820 656,-1820 662,-1826 662,-1832 662,-1832 662,-1844 662,-1844 662,-1850 656,-1856 650,-1856"/>
<text text-anchor="middle" x="633.5" y="-1835.8" font-family="Courier,monospace" font-size="9.00">{memcmp}</text>
</g>
<!-- Node0x5acebb86d100&#45;&gt;Node0x5acebb9d3f80 -->
<g id="edge93" class="edge">
<title>Node0x5acebb86d100&#45;&gt;Node0x5acebb9d3f80</title>
<path fill="none" stroke="#4a6fa5" d="M306.17,-1726.07C334.4,-1748.59 386.17,-1786.48 437,-1806 490.65,-1826.61 557.56,-1833.95 597.56,-1836.56"/>
<polygon fill="#4a6fa5" stroke="#4a6fa5" points="597.57,-1839.01 604.7,-1836.99 597.86,-1834.12 597.57,-1839.01"/>
</g>
<!-- Node0x5acebb86ea40&#45;&gt;Node0x5acebb884690 -->
<g id="edge41" class="edge">
<title>Node0x5acebb86ea40&#45;&gt;Node0x5acebb884690</title>
<path fill="none" stroke="#4a6fa5" d="M287.04,-1303.1C295.94,-1359.15 331.12,-1530.88 437,-1611 483.93,-1646.51 555.46,-1648.85 597.74,-1646.49"/>
<polygon fill="#4a6fa5" stroke="#4a6fa5" points="597.95,-1648.93 604.77,-1646.04 597.63,-1644.04 597.95,-1648.93"/>
</g>
<!-- Node0x5acebb86ea40&#45;&gt;Node0x5acebb86d010 -->
<g id="edge38" class="edge">
<title>Node0x5acebb86ea40&#45;&gt;Node0x5acebb86d010</title>
<path fill="none" stroke="#4a6fa5" d="M343.53,-1290.6C401.98,-1296.14 491.74,-1304.65 555.7,-1310.72"/>
<polygon fill="#4a6fa5" stroke="#4a6fa5" points="555.78,-1313.19 562.98,-1311.41 556.24,-1308.31 555.78,-1313.19"/>
</g>
<!-- Node0x5acebb86ea40&#45;&gt;Node0x5acebb9c8ac0 -->
<g id="edge39" class="edge">
<title>Node0x5acebb86ea40&#45;&gt;Node0x5acebb9c8ac0</title>
<path fill="none" stroke="#4a6fa5" d="M343.53,-1279.57C408.7,-1273.58 512.81,-1264.01 576.66,-1258.13"/>
<polygon fill="#4a6fa5" stroke="#4a6fa5" points="577.12,-1260.55 583.86,-1257.47 576.67,-1255.67 577.12,-1260.55"/>
</g>
<!-- Node0x5acebb86ea40&#45;&gt;Node0x5acebb9c9fe0 -->
<g id="edge44" class="edge">
<title>Node0x5acebb86ea40&#45;&gt;Node0x5acebb9c9fe0</title>
<path fill="none" stroke="#4a6fa5" d="M299.68,-1303.35C324.89,-1332.46 378.47,-1388.73 437,-1416 484.06,-1437.92 543.58,-1445.12 584.52,-1447.33"/>
<polygon fill="#4a6fa5" stroke="#4a6fa5" points="584.58,-1449.79 591.69,-1447.68 584.81,-1444.89 584.58,-1449.79"/>
</g>
<!-- Node0x5acebb86ea40&#45;&gt;Node0x5acebb9cb190 -->
<g id="edge43" class="edge">
<title>Node0x5acebb86ea40&#45;&gt;Node0x5acebb9cb190</title>
<path fill="none" stroke="#4a6fa5" d="M289,-1303.03C306.86,-1373.05 374.71,-1625.57 437,-1676 477.77,-1709.01 539.34,-1714.04 582.47,-1712.72"/>
<polygon fill="#4a6fa5" stroke="#4a6fa5" points="582.6,-1715.17 589.49,-1712.45 582.4,-1710.27 582.6,-1715.17"/>
</g>
<!-- Node0x5acebb86ea40&#45;&gt;Node0x5acebb871de0 -->
<g id="edge42" class="edge">
<title>Node0x5acebb86ea40&#45;&gt;Node0x5acebb871de0</title>
<path fill="none" stroke="#4a6fa5" d="M290.53,-1303.14C303.12,-1341.52 332.55,-1433.89 351,-1513 401.02,-1727.48 280.33,-1846.23 437,-2001 473.16,-2036.72 532.71,-2041.86 576.61,-2039.83"/>
<polygon fill="#4a6fa5" stroke="#4a6fa5" points="576.93,-2042.26 583.78,-2039.43 576.66,-2037.37 576.93,-2042.26"/>
</g>
<!-- Node0x5acebb86ea40&#45;&gt;Node0x5acebb9cdd60 -->
<g id="edge49" class="edge">
<title>Node0x5acebb86ea40&#45;&gt;Node0x5acebb9cdd60</title>
<path fill="none" stroke="#4a6fa5" d="M289.28,-1303.26C303.02,-1351.8 347.47,-1484.47 437,-1546 477.06,-1573.53 532.47,-1580.42 574.07,-1581.06"/>
<polygon fill="#4a6fa5" stroke="#4a6fa5" points="574.13,-1583.51 581.15,-1581.11 574.17,-1578.61 574.13,-1583.51"/>
</g>
<!-- Node0x5acebb9cf0a0 -->
<g id="node32" class="node">
<title>Node0x5acebb9cf0a0</title>
<path fill="#f0f4ff" stroke="black" d="M694.5,-1206C694.5,-1206 572.5,-1206 572.5,-1206 566.5,-1206 560.5,-1200 560.5,-1194 560.5,-1194 560.5,-1182 560.5,-1182 560.5,-1176 566.5,-1170 572.5,-1170 572.5,-1170 694.5,-1170 694.5,-1170 700.5,-1170 706.5,-1176 706.5,-1182 706.5,-1182 706.5,-1194 706.5,-1194 706.5,-1200 700.5,-1206 694.5,-1206"/>
<text text-anchor="middle" x="633.5" y="-1185.8" font-family="Courier,monospace" font-size="9.00">{CIccTagCurve::GetSize()}</text>
</g>
<!-- Node0x5acebb86ea40&#45;&gt;Node0x5acebb9cf0a0 -->
<g id="edge40" class="edge">
<title>Node0x5acebb86ea40&#45;&gt;Node0x5acebb9cf0a0</title>
<path fill="none" stroke="#4a6fa5" d="M320.93,-1266.9C351.29,-1252.51 396.05,-1232.88 437,-1221 474.5,-1210.12 517.15,-1202.41 553.03,-1197.18"/>
<polygon fill="#4a6fa5" stroke="#4a6fa5" points="553.53,-1199.59 560.11,-1196.17 552.84,-1194.74 553.53,-1199.59"/>
</g>
<!-- Node0x5acebb9cf820 -->
<g id="node33" class="node">
<title>Node0x5acebb9cf820</title>
<path fill="#f0f4ff" stroke="black" d="M734,-1141C734,-1141 533,-1141 533,-1141 527,-1141 521,-1135 521,-1129 521,-1129 521,-1117 521,-1117 521,-1111 527,-1105 533,-1105 533,-1105 734,-1105 734,-1105 740,-1105 746,-1111 746,-1117 746,-1117 746,-1129 746,-1129 746,-1135 740,-1141 734,-1141"/>
<text text-anchor="middle" x="633.5" y="-1120.8" font-family="Courier,monospace" font-size="9.00">{CIccTagCurve::operator[](unsigned int)}</text>
</g>
<!-- Node0x5acebb86ea40&#45;&gt;Node0x5acebb9cf820 -->
<g id="edge45" class="edge">
<title>Node0x5acebb86ea40&#45;&gt;Node0x5acebb9cf820</title>
<path fill="none" stroke="#4a6fa5" d="M328.52,-1266.89C336.33,-1262.83 344.15,-1258.17 351,-1253 396.97,-1218.27 386.61,-1183.94 437,-1156 460.28,-1143.09 487.34,-1134.97 513.76,-1129.92"/>
<polygon fill="#4a6fa5" stroke="#4a6fa5" points="514.38,-1132.3 520.83,-1128.64 513.51,-1127.48 514.38,-1132.3"/>
</g>
<!-- Node0x5acebb9cf320 -->
<g id="node34" class="node">
<title>Node0x5acebb9cf320</title>
<path fill="#f0f4ff" stroke="black" d="M665.5,-751C665.5,-751 601.5,-751 601.5,-751 595.5,-751 589.5,-745 589.5,-739 589.5,-739 589.5,-727 589.5,-727 589.5,-721 595.5,-715 601.5,-715 601.5,-715 665.5,-715 665.5,-715 671.5,-715 677.5,-721 677.5,-727 677.5,-727 677.5,-739 677.5,-739 677.5,-745 671.5,-751 665.5,-751"/>
<text text-anchor="middle" x="633.5" y="-730.8" font-family="Courier,monospace" font-size="9.00">{std::isinf()}</text>
</g>
<!-- Node0x5acebb86ea40&#45;&gt;Node0x5acebb9cf320 -->
<g id="edge46" class="edge">
<title>Node0x5acebb86ea40&#45;&gt;Node0x5acebb9cf320</title>
<path fill="none" stroke="#4a6fa5" d="M335.57,-1266.97C341.45,-1263.13 346.82,-1258.51 351,-1253 483.76,-1077.83 281,-920.83 437,-766 474.61,-728.68 537.67,-724.31 581.98,-726.75"/>
<polygon fill="#4a6fa5" stroke="#4a6fa5" points="582.06,-729.21 589.2,-727.22 582.37,-724.32 582.06,-729.21"/>
</g>
<!-- Node0x5acebb9cf5a0 -->
<g id="node35" class="node">
<title>Node0x5acebb9cf5a0</title>
<path fill="#f0f4ff" stroke="black" d="M665.5,-816C665.5,-816 601.5,-816 601.5,-816 595.5,-816 589.5,-810 589.5,-804 589.5,-804 589.5,-792 589.5,-792 589.5,-786 595.5,-780 601.5,-780 601.5,-780 665.5,-780 665.5,-780 671.5,-780 677.5,-786 677.5,-792 677.5,-792 677.5,-804 677.5,-804 677.5,-810 671.5,-816 665.5,-816"/>
<text text-anchor="middle" x="633.5" y="-795.8" font-family="Courier,monospace" font-size="9.00">{std::isnan()}</text>
</g>
<!-- Node0x5acebb86ea40&#45;&gt;Node0x5acebb9cf5a0 -->
<g id="edge47" class="edge">
<title>Node0x5acebb86ea40&#45;&gt;Node0x5acebb9cf5a0</title>
<path fill="none" stroke="#4a6fa5" d="M335.43,-1266.87C341.33,-1263.04 346.75,-1258.46 351,-1253 468.61,-1101.98 299.38,-964.04 437,-831 475.09,-794.17 538.06,-789.7 582.21,-791.99"/>
<polygon fill="#4a6fa5" stroke="#4a6fa5" points="582.27,-794.45 589.41,-792.43 582.57,-789.56 582.27,-794.45"/>
</g>
<!-- Node0x5acebb9cffa0 -->
<g id="node36" class="node">
<title>Node0x5acebb9cffa0</title>
<path fill="#f0f4ff" stroke="black" d="M726,-1076C726,-1076 541,-1076 541,-1076 535,-1076 529,-1070 529,-1064 529,-1064 529,-1052 529,-1052 529,-1046 535,-1040 541,-1040 541,-1040 726,-1040 726,-1040 732,-1040 738,-1046 738,-1052 738,-1052 738,-1064 738,-1064 738,-1070 732,-1076 726,-1076"/>
<text text-anchor="middle" x="633.5" y="-1055.8" font-family="Courier,monospace" font-size="9.00">{CIccTagParametricCurve::GetParams()}</text>
</g>
<!-- Node0x5acebb86ea40&#45;&gt;Node0x5acebb9cffa0 -->
<g id="edge48" class="edge">
<title>Node0x5acebb86ea40&#45;&gt;Node0x5acebb9cffa0</title>
<path fill="none" stroke="#4a6fa5" d="M332.01,-1266.82C338.86,-1262.92 345.46,-1258.33 351,-1253 409.77,-1196.51 370.89,-1138.69 437,-1091 461.49,-1073.33 492.14,-1063.9 521.87,-1059.13"/>
<polygon fill="#4a6fa5" stroke="#4a6fa5" points="522.44,-1061.52 529,-1058.07 521.72,-1056.68 522.44,-1061.52"/>
</g>
<!-- Node0x5acebb9d0220 -->
<g id="node37" class="node">
<title>Node0x5acebb9d0220</title>
<path fill="#f0f4ff" stroke="black" d="M731,-1011C731,-1011 536,-1011 536,-1011 530,-1011 524,-1005 524,-999 524,-999 524,-987 524,-987 524,-981 530,-975 536,-975 536,-975 731,-975 731,-975 737,-975 743,-981 743,-987 743,-987 743,-999 743,-999 743,-1005 737,-1011 731,-1011"/>
<text text-anchor="middle" x="633.5" y="-990.8" font-family="Courier,monospace" font-size="9.00">{CIccTagParametricCurve::GetNumParam()}</text>
</g>
<!-- Node0x5acebb86ea40&#45;&gt;Node0x5acebb9d0220 -->
<g id="edge50" class="edge">
<title>Node0x5acebb86ea40&#45;&gt;Node0x5acebb9d0220</title>
<path fill="none" stroke="#4a6fa5" d="M333.63,-1266.81C340.03,-1262.95 346.06,-1258.38 351,-1253 423.92,-1173.49 353.65,-1094.5 437,-1026 459.37,-1007.61 488.15,-997.75 516.71,-992.79"/>
<polygon fill="#4a6fa5" stroke="#4a6fa5" points="517.43,-995.15 523.96,-991.63 516.66,-990.32 517.43,-995.15"/>
</g>
<!-- Node0x5acebb9d06c0 -->
<g id="node38" class="node">
<title>Node0x5acebb9d06c0</title>
<path fill="#f0f4ff" stroke="black" d="M741.5,-946C741.5,-946 525.5,-946 525.5,-946 519.5,-946 513.5,-940 513.5,-934 513.5,-934 513.5,-922 513.5,-922 513.5,-916 519.5,-910 525.5,-910 525.5,-910 741.5,-910 741.5,-910 747.5,-910 753.5,-916 753.5,-922 753.5,-922 753.5,-934 753.5,-934 753.5,-940 747.5,-946 741.5,-946"/>
<text text-anchor="middle" x="633.5" y="-925.8" font-family="Courier,monospace" font-size="9.00">{CIccTagParametricCurve::GetFunctionType()}</text>
</g>
<!-- Node0x5acebb86ea40&#45;&gt;Node0x5acebb9d06c0 -->
<g id="edge51" class="edge">
<title>Node0x5acebb86ea40&#45;&gt;Node0x5acebb9d06c0</title>
<path fill="none" stroke="#4a6fa5" d="M334.34,-1266.94C340.56,-1263.07 346.35,-1258.47 351,-1253 438.61,-1149.91 335.81,-1050.8 437,-961 456.24,-943.93 480.9,-934.01 506.19,-928.53"/>
<polygon fill="#4a6fa5" stroke="#4a6fa5" points="506.95,-930.87 513.33,-927.09 505.98,-926.07 506.95,-930.87"/>
</g>
<!-- Node0x5acebb9cfd20 -->
<g id="node39" class="node">
<title>Node0x5acebb9cfd20</title>
<path fill="#f0f4ff" stroke="black" d="M663,-881C663,-881 604,-881 604,-881 598,-881 592,-875 592,-869 592,-869 592,-857 592,-857 592,-851 598,-845 604,-845 604,-845 663,-845 663,-845 669,-845 675,-851 675,-857 675,-857 675,-869 675,-869 675,-875 669,-881 663,-881"/>
<text text-anchor="middle" x="633.5" y="-860.8" font-family="Courier,monospace" font-size="9.00">{std::fabs()}</text>
</g>
<!-- Node0x5acebb86ea40&#45;&gt;Node0x5acebb9cfd20 -->
<g id="edge52" class="edge">
<title>Node0x5acebb86ea40&#45;&gt;Node0x5acebb9cfd20</title>
<path fill="none" stroke="#4a6fa5" d="M334.92,-1266.94C340.98,-1263.09 346.57,-1258.48 351,-1253 453.54,-1126.03 317.67,-1007.34 437,-896 476.33,-859.3 540.51,-855.11 584.54,-857.42"/>
<polygon fill="#4a6fa5" stroke="#4a6fa5" points="584.56,-859.87 591.69,-857.86 584.86,-854.98 584.56,-859.87"/>
</g>
<!-- Node0x5acebb86d7e0&#45;&gt;Node0x5acebb884690 -->
<g id="edge75" class="edge">
<title>Node0x5acebb86d7e0&#45;&gt;Node0x5acebb884690</title>
<path fill="none" stroke="#4a6fa5" d="M286.24,-458.13C300.23,-602.93 394.81,-1567.4 437,-1611 478.57,-1653.96 553.82,-1653.33 597.85,-1648.5"/>
<polygon fill="#4a6fa5" stroke="#4a6fa5" points="598.24,-1650.93 604.9,-1647.67 597.66,-1646.06 598.24,-1650.93"/>
</g>
<!-- Node0x5acebb86d7e0&#45;&gt;Node0x5acebb86d010 -->
<g id="edge73" class="edge">
<title>Node0x5acebb86d7e0&#45;&gt;Node0x5acebb86d010</title>
<path fill="none" stroke="#4a6fa5" d="M285.03,-458.07C288.67,-569.71 313.74,-1164.71 437,-1286 467.64,-1316.15 514.97,-1324.49 555.38,-1325.13"/>
<polygon fill="#4a6fa5" stroke="#4a6fa5" points="555.57,-1327.58 562.58,-1325.16 555.59,-1322.68 555.57,-1327.58"/>
</g>
<!-- Node0x5acebb86d7e0&#45;&gt;Node0x5acebb9c8ac0 -->
<g id="edge74" class="edge">
<title>Node0x5acebb86d7e0&#45;&gt;Node0x5acebb9c8ac0</title>
<path fill="none" stroke="#4a6fa5" d="M285.32,-458.06C290.53,-564.58 322.58,-1110.03 437,-1221 473.48,-1256.38 532.99,-1261.58 576.78,-1259.65"/>
<polygon fill="#4a6fa5" stroke="#4a6fa5" points="577.08,-1262.09 583.94,-1259.27 576.82,-1257.19 577.08,-1262.09"/>
</g>
<!-- Node0x5acebb86d7e0&#45;&gt;Node0x5acebb9c9fe0 -->
<g id="edge78" class="edge">
<title>Node0x5acebb86d7e0&#45;&gt;Node0x5acebb9c9fe0</title>
<path fill="none" stroke="#4a6fa5" d="M286.08,-458.39C297.29,-586.69 366.24,-1344.72 437,-1416 475.1,-1454.38 540.16,-1457.68 584.68,-1454.52"/>
<polygon fill="#4a6fa5" stroke="#4a6fa5" points="585.13,-1456.94 591.91,-1453.94 584.74,-1452.06 585.13,-1456.94"/>
</g>
<!-- Node0x5acebb86d7e0&#45;&gt;Node0x5acebb9cb190 -->
<g id="edge77" class="edge">
<title>Node0x5acebb86d7e0&#45;&gt;Node0x5acebb9cb190</title>
<path fill="none" stroke="#4a6fa5" d="M286.12,-458.18C299.51,-607.65 392.56,-1629.77 437,-1676 473.88,-1714.36 537.59,-1718.04 582.23,-1714.95"/>
<polygon fill="#4a6fa5" stroke="#4a6fa5" points="582.44,-1717.39 589.23,-1714.4 582.05,-1712.51 582.44,-1717.39"/>
</g>
<!-- Node0x5acebb9d2b00 -->
<g id="node45" class="node">
<title>Node0x5acebb9d2b00</title>
<path fill="#f0f4ff" stroke="black" d="M660.5,-491C660.5,-491 606.5,-491 606.5,-491 600.5,-491 594.5,-485 594.5,-479 594.5,-479 594.5,-467 594.5,-467 594.5,-461 600.5,-455 606.5,-455 606.5,-455 660.5,-455 660.5,-455 666.5,-455 672.5,-461 672.5,-467 672.5,-467 672.5,-479 672.5,-479 672.5,-485 666.5,-491 660.5,-491"/>
<text text-anchor="middle" x="633.5" y="-470.8" font-family="Courier,monospace" font-size="9.00">{icF16toF()}</text>
</g>
<!-- Node0x5acebb86d7e0&#45;&gt;Node0x5acebb9d2b00 -->
<g id="edge76" class="edge">
<title>Node0x5acebb86d7e0&#45;&gt;Node0x5acebb9d2b00</title>
<path fill="none" stroke="#4a6fa5" d="M351.19,-446.32C420.41,-452.89 526.81,-462.98 586.96,-468.68"/>
<polygon fill="#4a6fa5" stroke="#4a6fa5" points="586.86,-471.13 594.06,-469.36 587.32,-466.26 586.86,-471.13"/>
</g>
<!-- Node0x5acebb9d3d00 -->
<g id="node46" class="node">
<title>Node0x5acebb9d3d00</title>
<path fill="#f0f4ff" stroke="black" d="M689,-426C689,-426 578,-426 578,-426 572,-426 566,-420 566,-414 566,-414 566,-402 566,-402 566,-396 572,-390 578,-390 578,-390 689,-390 689,-390 695,-390 701,-396 701,-402 701,-402 701,-414 701,-414 701,-420 695,-426 689,-426"/>
<text text-anchor="middle" x="633.5" y="-405.8" font-family="Courier,monospace" font-size="9.00">{CIccInfo::~CIccInfo()}</text>
</g>
<!-- Node0x5acebb86d7e0&#45;&gt;Node0x5acebb9d3d00 -->
<g id="edge79" class="edge">
<title>Node0x5acebb86d7e0&#45;&gt;Node0x5acebb9d3d00</title>
<path fill="none" stroke="#4a6fa5" d="M351.19,-433.87C410.57,-428.41 497.32,-420.43 558.76,-414.78"/>
<polygon fill="#4a6fa5" stroke="#4a6fa5" points="559,-417.22 565.74,-414.14 558.55,-412.34 559,-417.22"/>
</g>
<!-- Node0x5acebb9d3000 -->
<g id="node47" class="node">
<title>Node0x5acebb9d3000</title>
<path fill="#f0f4ff" stroke="black" d="M770.5,-361C770.5,-361 496.5,-361 496.5,-361 490.5,-361 484.5,-355 484.5,-349 484.5,-349 484.5,-337 484.5,-337 484.5,-331 490.5,-325 496.5,-325 496.5,-325 770.5,-325 770.5,-325 776.5,-325 782.5,-331 782.5,-337 782.5,-337 782.5,-349 782.5,-349 782.5,-355 776.5,-361 770.5,-361"/>
<text text-anchor="middle" x="633.5" y="-340.8" font-family="Courier,monospace" font-size="9.00">{CIccTagSpectralViewingConditions::getIlluminantCCT()}</text>
</g>
<!-- Node0x5acebb86d7e0&#45;&gt;Node0x5acebb9d3000 -->
<g id="edge80" class="edge">
<title>Node0x5acebb86d7e0&#45;&gt;Node0x5acebb9d3000</title>
<path fill="none" stroke="#4a6fa5" d="M320.93,-421.9C351.29,-407.51 396.05,-387.88 437,-376 455.03,-370.77 474.26,-366.27 493.35,-362.43"/>
<polygon fill="#4a6fa5" stroke="#4a6fa5" points="493.98,-364.8 500.37,-361.04 493.03,-359.99 493.98,-364.8"/>
</g>
<!-- Node0x5acebb9d3800 -->
<g id="node48" class="node">
<title>Node0x5acebb9d3800</title>
<path fill="#f0f4ff" stroke="black" d="M710,-296C710,-296 557,-296 557,-296 551,-296 545,-290 545,-284 545,-284 545,-272 545,-272 545,-266 551,-260 557,-260 557,-260 710,-260 710,-260 716,-260 722,-266 722,-272 722,-272 722,-284 722,-284 722,-290 716,-296 710,-296"/>
<text text-anchor="middle" x="633.5" y="-275.8" font-family="Courier,monospace" font-size="9.00">{CIccInfo::GetIlluminantName()}</text>
</g>
<!-- Node0x5acebb86d7e0&#45;&gt;Node0x5acebb9d3800 -->
<g id="edge81" class="edge">
<title>Node0x5acebb86d7e0&#45;&gt;Node0x5acebb9d3800</title>
<path fill="none" stroke="#4a6fa5" d="M299.76,-421.97C325.08,-393.35 378.81,-338.02 437,-311 468.19,-296.52 504.8,-288.32 537.86,-283.69"/>
<polygon fill="#4a6fa5" stroke="#4a6fa5" points="538.24,-286.12 544.86,-282.76 537.6,-281.26 538.24,-286.12"/>
</g>
<!-- Node0x5acebb9d3a80 -->
<g id="node49" class="node">
<title>Node0x5acebb9d3a80</title>
<path fill="#f0f4ff" stroke="black" d="M768,-231C768,-231 499,-231 499,-231 493,-231 487,-225 487,-219 487,-219 487,-207 487,-207 487,-201 493,-195 499,-195 499,-195 768,-195 768,-195 774,-195 780,-201 780,-207 780,-207 780,-219 780,-219 780,-225 774,-231 768,-231"/>
<text text-anchor="middle" x="633.5" y="-210.8" font-family="Courier,monospace" font-size="9.00">{CIccTagSpectralViewingConditions::getStdIllumiant()}</text>
</g>
<!-- Node0x5acebb86d7e0&#45;&gt;Node0x5acebb9d3a80 -->
<g id="edge82" class="edge">
<title>Node0x5acebb86d7e0&#45;&gt;Node0x5acebb9d3a80</title>
<path fill="none" stroke="#4a6fa5" d="M292.91,-421.9C312.21,-382.61 363.7,-289.53 437,-246 450.28,-238.11 464.91,-231.98 480.02,-227.22"/>
<polygon fill="#4a6fa5" stroke="#4a6fa5" points="480.98,-229.49 486.99,-225.13 479.58,-224.79 480.98,-229.49"/>
</g>
<!-- Node0x5acebb9d2d80 -->
<g id="node50" class="node">
<title>Node0x5acebb9d2d80</title>
<path fill="#f0f4ff" stroke="black" d="M726,-166C726,-166 541,-166 541,-166 535,-166 529,-160 529,-154 529,-154 529,-142 529,-142 529,-136 535,-130 541,-130 541,-130 726,-130 726,-130 732,-130 738,-136 738,-142 738,-142 738,-154 738,-154 738,-160 732,-166 726,-166"/>
<text text-anchor="middle" x="633.5" y="-145.8" font-family="Courier,monospace" font-size="9.00">{CIccInfo::GetStandardObserverName()}</text>
</g>
<!-- Node0x5acebb86d7e0&#45;&gt;Node0x5acebb9d2d80 -->
<g id="edge83" class="edge">
<title>Node0x5acebb86d7e0&#45;&gt;Node0x5acebb9d2d80</title>
<path fill="none" stroke="#4a6fa5" d="M289.34,-421.9C303.23,-373.79 348.03,-242.25 437,-181 461.74,-163.97 492.32,-154.71 521.9,-149.91"/>
<polygon fill="#4a6fa5" stroke="#4a6fa5" points="522.43,-152.31 528.99,-148.84 521.7,-147.46 522.43,-152.31"/>
</g>
<!-- Node0x5acebb9d2880 -->
<g id="node51" class="node">
<title>Node0x5acebb9d2880</title>
<path fill="#f0f4ff" stroke="black" d="M686.5,-101C686.5,-101 580.5,-101 580.5,-101 574.5,-101 568.5,-95 568.5,-89 568.5,-89 568.5,-77 568.5,-77 568.5,-71 574.5,-65 580.5,-65 580.5,-65 686.5,-65 686.5,-65 692.5,-65 698.5,-71 698.5,-77 698.5,-77 698.5,-89 698.5,-89 698.5,-95 692.5,-101 686.5,-101"/>
<text text-anchor="middle" x="633.5" y="-80.8" font-family="Courier,monospace" font-size="9.00">{CIccInfo::CIccInfo()}</text>
</g>
<!-- Node0x5acebb86d7e0&#45;&gt;Node0x5acebb9d2880 -->
<g id="edge84" class="edge">
<title>Node0x5acebb86d7e0&#45;&gt;Node0x5acebb9d2880</title>
<path fill="none" stroke="#4a6fa5" d="M287.16,-421.64C296.32,-365.58 332,-195.66 437,-116 472.11,-89.36 521,-81.12 561.1,-79.53"/>
<polygon fill="#4a6fa5" stroke="#4a6fa5" points="561.56,-81.96 568.49,-79.3 561.41,-77.07 561.56,-81.96"/>
</g>
<!-- Node0x5acebb9d1e80 -->
<g id="node52" class="node">
<title>Node0x5acebb9d1e80</title>
<path fill="#f0f4ff" stroke="black" d="M765.5,-36C765.5,-36 501.5,-36 501.5,-36 495.5,-36 489.5,-30 489.5,-24 489.5,-24 489.5,-12 489.5,-12 489.5,-6 495.5,0 501.5,0 501.5,0 765.5,0 765.5,0 771.5,0 777.5,-6 777.5,-12 777.5,-12 777.5,-24 777.5,-24 777.5,-30 771.5,-36 765.5,-36"/>
<text text-anchor="middle" x="633.5" y="-15.8" font-family="Courier,monospace" font-size="9.00">{CIccTagSpectralViewingConditions::getStdObserver()}</text>
</g>
<!-- Node0x5acebb86d7e0&#45;&gt;Node0x5acebb9d1e80 -->
<g id="edge85" class="edge">
<title>Node0x5acebb86d7e0&#45;&gt;Node0x5acebb9d1e80</title>
<path fill="none" stroke="#4a6fa5" d="M285.6,-421.71C290.43,-358.81 315.38,-149.79 437,-51 450.33,-40.18 465.88,-32.32 482.29,-26.68"/>
<polygon fill="#4a6fa5" stroke="#4a6fa5" points="483.46,-28.88 489.37,-24.4 481.95,-24.21 483.46,-28.88"/>
</g>
<!-- Node0x5acebb86dd30&#45;&gt;Node0x5acebb884690 -->
<g id="edge56" class="edge">
<title>Node0x5acebb86dd30&#45;&gt;Node0x5acebb884690</title>
<path fill="none" stroke="#4a6fa5" d="M319.32,-1563.01C349.65,-1577.98 395.2,-1598.74 437,-1611 491.99,-1627.13 558.22,-1635.82 597.76,-1639.92"/>
<polygon fill="#4a6fa5" stroke="#4a6fa5" points="597.62,-1642.37 604.83,-1640.63 598.11,-1637.49 597.62,-1642.37"/>
</g>
<!-- Node0x5acebb86dd30&#45;&gt;Node0x5acebb86d010 -->
<g id="edge53" class="edge">
<title>Node0x5acebb86dd30&#45;&gt;Node0x5acebb86d010</title>
<path fill="none" stroke="#4a6fa5" d="M292.91,-1526.9C312.21,-1487.61 363.7,-1394.53 437,-1351 472.52,-1329.9 517.71,-1321.34 555.7,-1318.18"/>
<polygon fill="#4a6fa5" stroke="#4a6fa5" points="555.9,-1320.63 562.7,-1317.66 555.54,-1315.74 555.9,-1320.63"/>
</g>
<!-- Node0x5acebb86dd30&#45;&gt;Node0x5acebb9c8ac0 -->
<g id="edge58" class="edge">
<title>Node0x5acebb86dd30&#45;&gt;Node0x5acebb9c8ac0</title>
<path fill="none" stroke="#4a6fa5" d="M289.34,-1526.9C303.23,-1478.79 348.03,-1347.25 437,-1286 477.87,-1257.86 534.71,-1250.95 576.57,-1250.28"/>
<polygon fill="#4a6fa5" stroke="#4a6fa5" points="576.69,-1252.73 583.67,-1250.22 576.65,-1247.83 576.69,-1252.73"/>
</g>
<!-- Node0x5acebb86dd30&#45;&gt;Node0x5acebb9c9fe0 -->
<g id="edge54" class="edge">
<title>Node0x5acebb86dd30&#45;&gt;Node0x5acebb9c9fe0</title>
<path fill="none" stroke="#4a6fa5" d="M320.93,-1526.9C351.29,-1512.51 396.05,-1492.88 437,-1481 486.33,-1466.69 544.57,-1457.85 584.58,-1452.97"/>
<polygon fill="#4a6fa5" stroke="#4a6fa5" points="585.17,-1455.36 591.83,-1452.1 584.59,-1450.5 585.17,-1455.36"/>
</g>
<!-- Node0x5acebb86dd30&#45;&gt;Node0x5acebb9cb190 -->
<g id="edge55" class="edge">
<title>Node0x5acebb86dd30&#45;&gt;Node0x5acebb9cb190</title>
<path fill="none" stroke="#4a6fa5" d="M299.68,-1563.35C324.89,-1592.46 378.47,-1648.73 437,-1676 483.17,-1697.51 541.36,-1704.84 582.2,-1707.2"/>
<polygon fill="#4a6fa5" stroke="#4a6fa5" points="582.24,-1709.66 589.36,-1707.57 582.5,-1704.76 582.24,-1709.66"/>
</g>
<!-- Node0x5acebb86dd30&#45;&gt;Node0x5acebb871de0 -->
<g id="edge57" class="edge">
<title>Node0x5acebb86dd30&#45;&gt;Node0x5acebb871de0</title>
<path fill="none" stroke="#4a6fa5" d="M295.24,-1563.09C309.57,-1587.87 335.01,-1634.05 351,-1676 404.22,-1815.62 326.38,-1900.56 437,-2001 474.39,-2034.94 533.2,-2040.48 576.56,-2039.02"/>
<polygon fill="#4a6fa5" stroke="#4a6fa5" points="576.76,-2041.47 583.65,-2038.72 576.55,-2036.57 576.76,-2041.47"/>
</g>
<!-- Node0x5acebb86dd30&#45;&gt;Node0x5acebb9cdd60 -->
<g id="edge59" class="edge">
<title>Node0x5acebb86dd30&#45;&gt;Node0x5acebb9cdd60</title>
<path fill="none" stroke="#4a6fa5" d="M348.73,-1551.09C413.31,-1557.22 511.99,-1566.57 574.33,-1572.48"/>
<polygon fill="#4a6fa5" stroke="#4a6fa5" points="574.17,-1574.93 581.37,-1573.15 574.63,-1570.05 574.17,-1574.93"/>
</g>
<!-- Node0x5acebb9d10c0 -->
<g id="node40" class="node">
<title>Node0x5acebb9d10c0</title>
<path fill="#f0f4ff" stroke="black" d="M731,-1531C731,-1531 536,-1531 536,-1531 530,-1531 524,-1525 524,-1519 524,-1519 524,-1507 524,-1507 524,-1501 530,-1495 536,-1495 536,-1495 731,-1495 731,-1495 737,-1495 743,-1501 743,-1507 743,-1507 743,-1519 743,-1519 743,-1525 737,-1531 731,-1531"/>
<text text-anchor="middle" x="633.5" y="-1510.8" font-family="Courier,monospace" font-size="9.00">{CIccTagNamedColor2::GetDeviceCoords()}</text>
</g>
<!-- Node0x5acebb86dd30&#45;&gt;Node0x5acebb9d10c0 -->
<g id="edge60" class="edge">
<title>Node0x5acebb86dd30&#45;&gt;Node0x5acebb9d10c0</title>
<path fill="none" stroke="#4a6fa5" d="M348.73,-1539.09C395.72,-1534.77 460.77,-1528.79 516.73,-1523.65"/>
<polygon fill="#4a6fa5" stroke="#4a6fa5" points="517.11,-1526.07 523.85,-1522.99 516.66,-1521.19 517.11,-1526.07"/>
</g>
<!-- Node0x5acebb9d0940 -->
<g id="node41" class="node">
<title>Node0x5acebb9d0940</title>
<path fill="#f0f4ff" stroke="black" d="M710,-1401C710,-1401 557,-1401 557,-1401 551,-1401 545,-1395 545,-1389 545,-1389 545,-1377 545,-1377 545,-1371 551,-1365 557,-1365 557,-1365 710,-1365 710,-1365 716,-1365 722,-1371 722,-1377 722,-1377 722,-1389 722,-1389 722,-1395 716,-1401 710,-1401"/>
<text text-anchor="middle" x="633.5" y="-1380.8" font-family="Courier,monospace" font-size="9.00">{CIccTagNamedColor2::GetSize()}</text>
</g>
<!-- Node0x5acebb86dd30&#45;&gt;Node0x5acebb9d0940 -->
<g id="edge61" class="edge">
<title>Node0x5acebb86dd30&#45;&gt;Node0x5acebb9d0940</title>
<path fill="none" stroke="#4a6fa5" d="M299.76,-1526.97C325.08,-1498.35 378.81,-1443.02 437,-1416 468.19,-1401.52 504.8,-1393.32 537.86,-1388.69"/>
<polygon fill="#4a6fa5" stroke="#4a6fa5" points="538.24,-1391.12 544.86,-1387.76 537.6,-1386.26 538.24,-1391.12"/>
</g>
<!-- Node0x5acebb96dbb0&#45;&gt;Node0x5acebb884690 -->
<g id="edge67" class="edge">
<title>Node0x5acebb96dbb0&#45;&gt;Node0x5acebb884690</title>
<path fill="none" stroke="#4a6fa5" d="M333.94,-1238.2C340.38,-1242.26 346.34,-1247.15 351,-1253 453,-1380.96 317.12,-1499.62 437,-1611 480.47,-1651.39 554.14,-1651.87 597.56,-1647.89"/>
<polygon fill="#4a6fa5" stroke="#4a6fa5" points="598.06,-1650.31 604.78,-1647.17 597.57,-1645.43 598.06,-1650.31"/>
</g>
<!-- Node0x5acebb96dbb0&#45;&gt;Node0x5acebb86d010 -->
<g id="edge62" class="edge">
<title>Node0x5acebb96dbb0&#45;&gt;Node0x5acebb86d010</title>
<path fill="none" stroke="#4a6fa5" d="M323.41,-1238.14C360.82,-1255.35 414.85,-1279.5 437,-1286 475.36,-1297.25 519.2,-1304.89 555.63,-1309.86"/>
<polygon fill="#4a6fa5" stroke="#4a6fa5" points="555.55,-1312.33 562.81,-1310.83 556.2,-1307.47 555.55,-1312.33"/>
</g>
<!-- Node0x5acebb96dbb0&#45;&gt;Node0x5acebb9c8ac0 -->
<g id="edge63" class="edge">
<title>Node0x5acebb96dbb0&#45;&gt;Node0x5acebb9c8ac0</title>
<path fill="none" stroke="#4a6fa5" d="M338.11,-1225.08C402.86,-1231.22 511.25,-1241.5 576.88,-1247.73"/>
<polygon fill="#4a6fa5" stroke="#4a6fa5" points="576.68,-1250.17 583.88,-1248.39 577.15,-1245.29 576.68,-1250.17"/>
</g>
<!-- Node0x5acebb96dbb0&#45;&gt;Node0x5acebb9c9fe0 -->
<g id="edge69" class="edge">
<title>Node0x5acebb96dbb0&#45;&gt;Node0x5acebb9c9fe0</title>
<path fill="none" stroke="#4a6fa5" d="M330.65,-1238.12C337.99,-1242.3 345.1,-1247.24 351,-1253 409.63,-1310.19 370.52,-1368.16 437,-1416 480.01,-1446.95 542.07,-1452.24 584.67,-1451.54"/>
<polygon fill="#4a6fa5" stroke="#4a6fa5" points="584.92,-1453.99 591.86,-1451.36 584.8,-1449.09 584.92,-1453.99"/>
</g>
<!-- Node0x5acebb96dbb0&#45;&gt;Node0x5acebb9cb190 -->
<g id="edge68" class="edge">
<title>Node0x5acebb96dbb0&#45;&gt;Node0x5acebb9cb190</title>
<path fill="none" stroke="#4a6fa5" d="M334.13,-1238.05C340.54,-1242.14 346.44,-1247.07 351,-1253 467.92,-1405.1 298.77,-1542.97 437,-1676 475.15,-1712.71 538.1,-1716.84 582.24,-1714.3"/>
<polygon fill="#4a6fa5" stroke="#4a6fa5" points="582.61,-1716.73 589.43,-1713.82 582.28,-1711.84 582.61,-1716.73"/>
</g>
<!-- Node0x5acebb96dbb0&#45;&gt;Node0x5acebb9cdd60 -->
<g id="edge70" class="edge">
<title>Node0x5acebb96dbb0&#45;&gt;Node0x5acebb9cdd60</title>
<path fill="none" stroke="#4a6fa5" d="M333.35,-1238.2C339.95,-1242.28 346.11,-1247.17 351,-1253 438.2,-1356.99 335.31,-1456.13 437,-1546 474.11,-1578.79 531.32,-1584.82 574.28,-1583.82"/>
<polygon fill="#4a6fa5" stroke="#4a6fa5" points="574.4,-1586.26 581.31,-1583.59 574.24,-1581.37 574.4,-1586.26"/>
</g>
<!-- Node0x5acebb96dbb0&#45;&gt;Node0x5acebb9cf320 -->
<g id="edge71" class="edge">
<title>Node0x5acebb96dbb0&#45;&gt;Node0x5acebb9cf320</title>
<path fill="none" stroke="#4a6fa5" d="M284.46,-1201.7C285.38,-1132.44 298.55,-884.28 437,-766 476.91,-731.9 538.66,-726.72 582.05,-728.1"/>
<polygon fill="#4a6fa5" stroke="#4a6fa5" points="582.03,-730.55 589.12,-728.39 582.23,-725.66 582.03,-730.55"/>
</g>
<!-- Node0x5acebb96dbb0&#45;&gt;Node0x5acebb9cf5a0 -->
<g id="edge72" class="edge">
<title>Node0x5acebb96dbb0&#45;&gt;Node0x5acebb9cf5a0</title>
<path fill="none" stroke="#4a6fa5" d="M285.6,-1201.71C290.43,-1138.81 315.38,-929.79 437,-831 477.75,-797.9 539.33,-792.53 582.46,-793.59"/>
<polygon fill="#4a6fa5" stroke="#4a6fa5" points="582.41,-796.04 589.48,-793.83 582.57,-791.14 582.41,-796.04"/>
</g>
<!-- Node0x5acebb9d0e40 -->
<g id="node42" class="node">
<title>Node0x5acebb9d0e40</title>
<path fill="#f0f4ff" stroke="black" d="M689,-686C689,-686 578,-686 578,-686 572,-686 566,-680 566,-674 566,-674 566,-662 566,-662 566,-656 572,-650 578,-650 578,-650 689,-650 689,-650 695,-650 701,-656 701,-662 701,-662 701,-674 701,-674 701,-680 695,-686 689,-686"/>
<text text-anchor="middle" x="633.5" y="-665.8" font-family="Courier,monospace" font-size="9.00">{CIccTagXYZ::GetSize()}</text>
</g>
<!-- Node0x5acebb96dbb0&#45;&gt;Node0x5acebb9d0e40 -->
<g id="edge64" class="edge">
<title>Node0x5acebb96dbb0&#45;&gt;Node0x5acebb9d0e40</title>
<path fill="none" stroke="#4a6fa5" d="M287.23,-1201.82C300.19,-1118.13 358.08,-771.07 437,-701 469.66,-672 517.97,-663.64 558.39,-662.59"/>
<polygon fill="#4a6fa5" stroke="#4a6fa5" points="558.62,-665.03 565.58,-662.47 558.55,-660.13 558.62,-665.03"/>
</g>
<!-- Node0x5acebb9d0bc0 -->
<g id="node43" class="node">
<title>Node0x5acebb9d0bc0</title>
<path fill="#f0f4ff" stroke="black" d="M744.5,-621C744.5,-621 522.5,-621 522.5,-621 516.5,-621 510.5,-615 510.5,-609 510.5,-609 510.5,-597 510.5,-597 510.5,-591 516.5,-585 522.5,-585 522.5,-585 744.5,-585 744.5,-585 750.5,-585 756.5,-591 756.5,-597 756.5,-597 756.5,-609 756.5,-609 756.5,-615 750.5,-621 744.5,-621"/>
<text text-anchor="middle" x="633.5" y="-600.8" font-family="Courier,monospace" font-size="9.00">{CIccTagXYZ::operator[](unsigned int) const}</text>
</g>
<!-- Node0x5acebb96dbb0&#45;&gt;Node0x5acebb9d0bc0 -->
<g id="edge65" class="edge">
<title>Node0x5acebb96dbb0&#45;&gt;Node0x5acebb9d0bc0</title>
<path fill="none" stroke="#4a6fa5" d="M286.62,-1201.71C297.45,-1111.63 349.47,-716.13 437,-636 455.39,-619.16 479.03,-609.21 503.47,-603.6"/>
<polygon fill="#4a6fa5" stroke="#4a6fa5" points="504.04,-605.98 510.38,-602.13 503.02,-601.19 504.04,-605.98"/>
</g>
<!-- Node0x5acebb9d1340 -->
<g id="node44" class="node">
<title>Node0x5acebb9d1340</title>
<path fill="#f0f4ff" stroke="black" d="M655,-556C655,-556 612,-556 612,-556 606,-556 600,-550 600,-544 600,-544 600,-532 600,-532 600,-526 606,-520 612,-520 612,-520 655,-520 655,-520 661,-520 667,-526 667,-532 667,-532 667,-544 667,-544 667,-550 661,-556 655,-556"/>
<text text-anchor="middle" x="633.5" y="-535.8" font-family="Courier,monospace" font-size="9.00">{icFtoD()}</text>
</g>
<!-- Node0x5acebb96dbb0&#45;&gt;Node0x5acebb9d1340 -->
<g id="edge66" class="edge">
<title>Node0x5acebb96dbb0&#45;&gt;Node0x5acebb9d1340</title>
<path fill="none" stroke="#4a6fa5" d="M286.09,-1201.96C294.89,-1106.52 340.68,-661.39 437,-571 478.73,-531.84 548.71,-529.63 592.64,-532.89"/>
<polygon fill="#4a6fa5" stroke="#4a6fa5" points="592.55,-535.34 599.73,-533.47 592.96,-530.45 592.55,-535.34"/>
</g>
<!-- Node0x5acebb9d6b40 -->
<g id="node64" class="node">
<title>Node0x5acebb9d6b40</title>
<path fill="#f0f4ff" stroke="black" d="M1087,-1726C1087,-1726 1033,-1726 1033,-1726 1027,-1726 1021,-1720 1021,-1714 1021,-1714 1021,-1702 1021,-1702 1021,-1696 1027,-1690 1033,-1690 1033,-1690 1087,-1690 1087,-1690 1093,-1690 1099,-1696 1099,-1702 1099,-1702 1099,-1714 1099,-1714 1099,-1720 1093,-1726 1087,-1726"/>
<text text-anchor="middle" x="1060" y="-1705.8" font-family="Courier,monospace" font-size="9.00">{GetColor()}</text>
</g>
<!-- Node0x5acebb9c9fe0&#45;&gt;Node0x5acebb9d6b40 -->
<g id="edge106" class="edge">
<title>Node0x5acebb9c9fe0&#45;&gt;Node0x5acebb9d6b40</title>
<path fill="none" stroke="#4a6fa5" d="M675.3,-1447.82C716.48,-1449.21 780.85,-1455.78 830,-1481 927.2,-1530.88 1009.28,-1636.63 1042.81,-1684.08"/>
<polygon fill="#4a6fa5" stroke="#4a6fa5" points="1040.82,-1685.51 1046.84,-1689.84 1044.84,-1682.7 1040.82,-1685.51"/>
</g>
<!-- Node0x5acebb9cb190&#45;&gt;Node0x5acebb9d6b40 -->
<g id="edge107" class="edge">
<title>Node0x5acebb9cb190&#45;&gt;Node0x5acebb9d6b40</title>
<path fill="none" stroke="#4a6fa5" d="M677.54,-1708C758.15,-1708 931.18,-1708 1013.58,-1708"/>
<polygon fill="#4a6fa5" stroke="#4a6fa5" points="1013.79,-1710.45 1020.79,-1708 1013.79,-1705.55 1013.79,-1710.45"/>
</g>
<!-- Node0x5acebb871de0&#45;&gt;Node0x5acebb9d6b40 -->
<g id="edge108" class="edge">
<title>Node0x5acebb871de0&#45;&gt;Node0x5acebb9d6b40</title>
<path fill="none" stroke="#4a6fa5" d="M683.22,-2034.63C724.93,-2033.89 785.17,-2027.56 830,-2001 942.09,-1934.6 1019.76,-1790.82 1047.62,-1732.91"/>
<polygon fill="#4a6fa5" stroke="#4a6fa5" points="1049.98,-1733.66 1050.77,-1726.29 1045.56,-1731.56 1049.98,-1733.66"/>
</g>
<!-- Node0x5acebb9cdd60&#45;&gt;Node0x5acebb9d6b40 -->
<g id="edge109" class="edge">
<title>Node0x5acebb9cdd60&#45;&gt;Node0x5acebb9d6b40</title>
<path fill="none" stroke="#4a6fa5" d="M685.87,-1583.35C725.73,-1588.29 782.09,-1597.02 830,-1611 897.55,-1630.71 971.91,-1664.64 1017.03,-1686.7"/>
<polygon fill="#4a6fa5" stroke="#4a6fa5" points="1016.1,-1688.97 1023.47,-1689.86 1018.27,-1684.57 1016.1,-1688.97"/>
</g>
<!-- Node0x5acebb9d77c0 -->
<g id="node65" class="node">
<title>Node0x5acebb9d77c0</title>
<path fill="#f0f4ff" stroke="black" d="M1181.5,-2213C1181.5,-2213 938.5,-2213 938.5,-2213 932.5,-2213 926.5,-2207 926.5,-2201 926.5,-2201 926.5,-2189 926.5,-2189 926.5,-2183 932.5,-2177 938.5,-2177 938.5,-2177 1181.5,-2177 1181.5,-2177 1187.5,-2177 1193.5,-2183 1193.5,-2189 1193.5,-2189 1193.5,-2201 1193.5,-2201 1193.5,-2207 1187.5,-2213 1181.5,-2213"/>
<text text-anchor="middle" x="1060" y="-2192.8" font-family="Courier,monospace" font-size="9.00">{std::list&lt;CIccMultiProcessElementPtr &gt;::size()}</text>
</g>
<!-- Node0x5acebb9cc890&#45;&gt;Node0x5acebb9d77c0 -->
<g id="edge110" class="edge">
<title>Node0x5acebb9cc890&#45;&gt;Node0x5acebb9d77c0</title>
<path fill="none" stroke="#4a6fa5" d="M753.59,-2171.98C805,-2175.85 865.49,-2180.41 919.02,-2184.45"/>
<polygon fill="#4a6fa5" stroke="#4a6fa5" points="919.03,-2186.91 926.19,-2184.99 919.39,-2182.02 919.03,-2186.91"/>
</g>
<!-- Node0x5acebb9cc950 -->
<g id="node72" class="node">
<title>Node0x5acebb9cc950</title>
<path fill="#f0f4ff" stroke="black" d="M1110.5,-783C1110.5,-783 1009.5,-783 1009.5,-783 1003.5,-783 997.5,-777 997.5,-771 997.5,-771 997.5,-759 997.5,-759 997.5,-753 1003.5,-747 1009.5,-747 1009.5,-747 1110.5,-747 1110.5,-747 1116.5,-747 1122.5,-753 1122.5,-759 1122.5,-759 1122.5,-771 1122.5,-771 1122.5,-777 1116.5,-783 1110.5,-783"/>
<text text-anchor="middle" x="1060" y="-762.8" font-family="Courier,monospace" font-size="9.00">{llvm.is.fpclass.f32}</text>
</g>
<!-- Node0x5acebb9cf320&#45;&gt;Node0x5acebb9cc950 -->
<g id="edge117" class="edge">
<title>Node0x5acebb9cf320&#45;&gt;Node0x5acebb9cc950</title>
<path fill="none" stroke="#4a6fa5" d="M677.54,-736.24C751.21,-741.8 902.08,-753.17 990.4,-759.83"/>
<polygon fill="#4a6fa5" stroke="#4a6fa5" points="990.27,-762.28 997.44,-760.36 990.64,-757.39 990.27,-762.28"/>
</g>
<!-- Node0x5acebb9cf5a0&#45;&gt;Node0x5acebb9cc950 -->
<g id="edge116" class="edge">
<title>Node0x5acebb9cf5a0&#45;&gt;Node0x5acebb9cc950</title>
<path fill="none" stroke="#4a6fa5" d="M677.54,-794.65C751.21,-788.93 902.08,-777.2 990.4,-770.33"/>
<polygon fill="#4a6fa5" stroke="#4a6fa5" points="990.65,-772.77 997.44,-769.79 990.27,-767.89 990.65,-772.77"/>
</g>
<!-- Node0x5acebb9d8280 -->
<g id="node73" class="node">
<title>Node0x5acebb9d8280</title>
<path fill="#f0f4ff" stroke="black" d="M1094.5,-881C1094.5,-881 1025.5,-881 1025.5,-881 1019.5,-881 1013.5,-875 1013.5,-869 1013.5,-869 1013.5,-857 1013.5,-857 1013.5,-851 1019.5,-845 1025.5,-845 1025.5,-845 1094.5,-845 1094.5,-845 1100.5,-845 1106.5,-851 1106.5,-857 1106.5,-857 1106.5,-869 1106.5,-869 1106.5,-875 1100.5,-881 1094.5,-881"/>
<text text-anchor="middle" x="1060" y="-860.8" font-family="Courier,monospace" font-size="9.00">{llvm.fabs.f32}</text>
</g>
<!-- Node0x5acebb9cfd20&#45;&gt;Node0x5acebb9d8280 -->
<g id="edge118" class="edge">
<title>Node0x5acebb9cfd20&#45;&gt;Node0x5acebb9d8280</title>
<path fill="none" stroke="#4a6fa5" d="M675.2,-863C752.51,-863 920.5,-863 1006.29,-863"/>
<polygon fill="#4a6fa5" stroke="#4a6fa5" points="1006.32,-865.45 1013.32,-863 1006.32,-860.55 1006.32,-865.45"/>
</g>
<!-- Node0x5acebb9d4700&#45;&gt;Node0x5acebb9d6b40 -->
<g id="edge119" class="edge">
<title>Node0x5acebb9d4700&#45;&gt;Node0x5acebb9d6b40</title>
<path fill="none" stroke="#4a6fa5" d="M683.04,-2100.68C725.2,-2100.67 786.19,-2094.83 830,-2066 957.56,-1982.07 1028.54,-1799.87 1051.05,-1733.14"/>
<polygon fill="#4a6fa5" stroke="#4a6fa5" points="1053.44,-1733.73 1053.32,-1726.32 1048.79,-1732.19 1053.44,-1733.73"/>
</g>
<!-- Node0x5acebb9d1e00 -->
<g id="node74" class="node">
<title>Node0x5acebb9d1e00</title>
<path fill="#f0f4ff" stroke="black" d="M1192,-2792C1192,-2792 928,-2792 928,-2792 922,-2792 916,-2786 916,-2780 916,-2780 916,-2768 916,-2768 916,-2762 922,-2756 928,-2756 928,-2756 1192,-2756 1192,-2756 1198,-2756 1204,-2762 1204,-2768 1204,-2768 1204,-2780 1204,-2780 1204,-2786 1198,-2792 1192,-2792"/>
<text text-anchor="middle" x="1060" y="-2771.8" font-family="Courier,monospace" font-size="9.00">{std::_List_iterator&lt;IccTagEntry&gt;::_List_iterator()}</text>
</g>
<!-- Node0x5acebb9d4c00&#45;&gt;Node0x5acebb9d1e00 -->
<g id="edge120" class="edge">
<title>Node0x5acebb9d4c00&#45;&gt;Node0x5acebb9d1e00</title>
<path fill="none" stroke="#4a6fa5" d="M730.03,-2799.57C782.66,-2795.48 849.18,-2790.31 908.61,-2785.69"/>
<polygon fill="#4a6fa5" stroke="#4a6fa5" points="909.03,-2788.12 915.82,-2785.13 908.65,-2783.23 909.03,-2788.12"/>
</g>
<!-- Node0x5acebb9d5600&#45;&gt;Node0x5acebb9d1e00 -->
<g id="edge121" class="edge">
<title>Node0x5acebb9d5600&#45;&gt;Node0x5acebb9d1e00</title>
<path fill="none" stroke="#4a6fa5" d="M725.05,-2748.83C778.5,-2752.86 847.52,-2758.06 908.92,-2762.69"/>
<polygon fill="#4a6fa5" stroke="#4a6fa5" points="908.82,-2765.14 915.98,-2763.22 909.19,-2760.25 908.82,-2765.14"/>
</g>
<!-- Node0x5acebb9d7040 -->
<g id="node67" class="node">
<title>Node0x5acebb9d7040</title>
<path fill="#f0f4ff" stroke="black" d="M1505.5,-2328C1505.5,-2328 1388.5,-2328 1388.5,-2328 1382.5,-2328 1376.5,-2322 1376.5,-2316 1376.5,-2316 1376.5,-2304 1376.5,-2304 1376.5,-2298 1382.5,-2292 1388.5,-2292 1388.5,-2292 1505.5,-2292 1505.5,-2292 1511.5,-2292 1517.5,-2298 1517.5,-2304 1517.5,-2304 1517.5,-2316 1517.5,-2316 1517.5,-2322 1511.5,-2328 1505.5,-2328"/>
<text text-anchor="middle" x="1447" y="-2307.8" font-family="Courier,monospace" font-size="9.00">{__clang_call_terminate}</text>
</g>
<!-- Node0x5acebb9d6140&#45;&gt;Node0x5acebb9d7040 -->
<g id="edge123" class="edge">
<title>Node0x5acebb9d6140&#45;&gt;Node0x5acebb9d7040</title>
<path fill="none" stroke="#4a6fa5" d="M753.12,-2469.96C778.54,-2465.71 805.21,-2460.96 830,-2456 1026.01,-2416.78 1254.43,-2359.6 1370.28,-2329.77"/>
<polygon fill="#4a6fa5" stroke="#4a6fa5" points="1370.9,-2332.14 1377.06,-2328.02 1369.67,-2327.39 1370.9,-2332.14"/>
</g>
<!-- Node0x5acebb9ce4e0 -->
<g id="node75" class="node">
<title>Node0x5acebb9ce4e0</title>
<path fill="#f0f4ff" stroke="black" d="M1168,-2506C1168,-2506 952,-2506 952,-2506 946,-2506 940,-2500 940,-2494 940,-2494 940,-2482 940,-2482 940,-2476 946,-2470 952,-2470 952,-2470 1168,-2470 1168,-2470 1174,-2470 1180,-2476 1180,-2482 1180,-2482 1180,-2494 1180,-2494 1180,-2500 1174,-2506 1168,-2506"/>
<text text-anchor="middle" x="1060" y="-2485.8" font-family="Courier,monospace" font-size="9.00">{std::_List_node&lt;IccTagEntry&gt;::_M_valptr()}</text>
</g>
<!-- Node0x5acebb9d6140&#45;&gt;Node0x5acebb9ce4e0 -->
<g id="edge122" class="edge">
<title>Node0x5acebb9d6140&#45;&gt;Node0x5acebb9ce4e0</title>
<path fill="none" stroke="#4a6fa5" d="M780.29,-2488C829.91,-2488 884.93,-2488 932.88,-2488"/>
<polygon fill="#4a6fa5" stroke="#4a6fa5" points="932.9,-2490.45 939.9,-2488 932.9,-2485.55 932.9,-2490.45"/>
</g>
<!-- Node0x5acebb9d5c40&#45;&gt;Node0x5acebb9d4980 -->
<g id="edge124" class="edge">
<title>Node0x5acebb9d5c40&#45;&gt;Node0x5acebb9d4980</title>
<path fill="none" stroke="#4a6fa5" d="M757.85,-2658.98C831.51,-2648.23 922.61,-2634.92 985.2,-2625.78"/>
<polygon fill="#4a6fa5" stroke="#4a6fa5" points="985.74,-2628.18 992.31,-2624.74 985.03,-2623.33 985.74,-2628.18"/>
</g>
<!-- Node0x5acebb9d7540 -->
<g id="node66" class="node">
<title>Node0x5acebb9d7540</title>
<path fill="#f0f4ff" stroke="black" d="M1592,-2213C1592,-2213 1302,-2213 1302,-2213 1296,-2213 1290,-2207 1290,-2201 1290,-2201 1290,-2189 1290,-2189 1290,-2183 1296,-2177 1302,-2177 1302,-2177 1592,-2177 1592,-2177 1598,-2177 1604,-2183 1604,-2189 1604,-2189 1604,-2201 1604,-2201 1604,-2207 1598,-2213 1592,-2213"/>
<text text-anchor="middle" x="1447" y="-2192.8" font-family="Courier,monospace" font-size="9.00">{std::list&lt;CIccMultiProcessElementPtr &gt;::_M_node_count()}</text>
</g>
<!-- Node0x5acebb9d77c0&#45;&gt;Node0x5acebb9d7540 -->
<g id="edge111" class="edge">
<title>Node0x5acebb9d77c0&#45;&gt;Node0x5acebb9d7540</title>
<path fill="none" stroke="#4a6fa5" d="M1193.76,-2195C1222.45,-2195 1253.1,-2195 1282.79,-2195"/>
<polygon fill="#4a6fa5" stroke="#4a6fa5" points="1282.92,-2197.45 1289.92,-2195 1282.92,-2192.55 1282.92,-2197.45"/>
</g>
<!-- Node0x5acebb9d77c0&#45;&gt;Node0x5acebb9d7040 -->
<g id="edge112" class="edge">
<title>Node0x5acebb9d77c0&#45;&gt;Node0x5acebb9d7040</title>
<path fill="none" stroke="#4a6fa5" d="M1121.58,-2213.1C1191.43,-2233.96 1305.93,-2268.16 1378.56,-2289.86"/>
<polygon fill="#4a6fa5" stroke="#4a6fa5" points="1378.05,-2292.26 1385.46,-2291.92 1379.45,-2287.56 1378.05,-2292.26"/>
</g>
<!-- Node0x5acebb9d6f00 -->
<g id="node68" class="node">
<title>Node0x5acebb9d6f00</title>
<path fill="#f0f4ff" stroke="black" d="M2013,-2213C2013,-2213 1702,-2213 1702,-2213 1696,-2213 1690,-2207 1690,-2201 1690,-2201 1690,-2189 1690,-2189 1690,-2183 1696,-2177 1702,-2177 1702,-2177 2013,-2177 2013,-2177 2019,-2177 2025,-2183 2025,-2189 2025,-2189 2025,-2201 2025,-2201 2025,-2207 2019,-2213 2013,-2213"/>
<text text-anchor="middle" x="1857.5" y="-2192.8" font-family="Courier,monospace" font-size="9.00">{std::_List_base&lt;CIccMultiProcessElementPtr &gt;::_M_get_size()}</text>
</g>
<!-- Node0x5acebb9d7540&#45;&gt;Node0x5acebb9d6f00 -->
<g id="edge113" class="edge">
<title>Node0x5acebb9d7540&#45;&gt;Node0x5acebb9d6f00</title>
<path fill="none" stroke="#4a6fa5" d="M1604.18,-2195C1629.82,-2195 1656.52,-2195 1682.55,-2195"/>
<polygon fill="#4a6fa5" stroke="#4a6fa5" points="1682.87,-2197.45 1689.87,-2195 1682.87,-2192.55 1682.87,-2197.45"/>
</g>
<!-- Node0x5acebb9d7740 -->
<g id="node70" class="node">
<title>Node0x5acebb9d7740</title>
<path fill="#f0f4ff" stroke="black" d="M1902.5,-2311C1902.5,-2311 1812.5,-2311 1812.5,-2311 1806.5,-2311 1800.5,-2305 1800.5,-2299 1800.5,-2299 1800.5,-2287 1800.5,-2287 1800.5,-2281 1806.5,-2275 1812.5,-2275 1812.5,-2275 1902.5,-2275 1902.5,-2275 1908.5,-2275 1914.5,-2281 1914.5,-2287 1914.5,-2287 1914.5,-2299 1914.5,-2299 1914.5,-2305 1908.5,-2311 1902.5,-2311"/>
<text text-anchor="middle" x="1857.5" y="-2290.8" font-family="Courier,monospace" font-size="9.00">{__cxa_begin_catch}</text>
</g>
<!-- Node0x5acebb9d7040&#45;&gt;Node0x5acebb9d7740 -->
<g id="edge114" class="edge">
<title>Node0x5acebb9d7040&#45;&gt;Node0x5acebb9d7740</title>
<path fill="none" stroke="#4a6fa5" d="M1517.76,-2307.1C1595.13,-2303.88 1718.86,-2298.73 1793.43,-2295.62"/>
<polygon fill="#4a6fa5" stroke="#4a6fa5" points="1793.6,-2298.07 1800.49,-2295.33 1793.4,-2293.17 1793.6,-2298.07"/>
</g>
<!-- Node0x5acebb9d8000 -->
<g id="node71" class="node">
<title>Node0x5acebb9d8000</title>
<path fill="#f0f4ff" stroke="black" d="M1900,-2376C1900,-2376 1815,-2376 1815,-2376 1809,-2376 1803,-2370 1803,-2364 1803,-2364 1803,-2352 1803,-2352 1803,-2346 1809,-2340 1815,-2340 1815,-2340 1900,-2340 1900,-2340 1906,-2340 1912,-2346 1912,-2352 1912,-2352 1912,-2364 1912,-2364 1912,-2370 1906,-2376 1900,-2376"/>
<text text-anchor="middle" x="1857.5" y="-2355.8" font-family="Courier,monospace" font-size="9.00">{std::terminate()}</text>
</g>
<!-- Node0x5acebb9d7040&#45;&gt;Node0x5acebb9d8000 -->
<g id="edge115" class="edge">
<title>Node0x5acebb9d7040&#45;&gt;Node0x5acebb9d8000</title>
<path fill="none" stroke="#4a6fa5" d="M1517.76,-2318.2C1596.02,-2327.39 1721.69,-2342.16 1795.97,-2350.89"/>
<polygon fill="#4a6fa5" stroke="#4a6fa5" points="1795.75,-2353.33 1802.99,-2351.71 1796.32,-2348.46 1795.75,-2353.33"/>
</g>
<!-- Node0x5acebb9d5580 -->
<g id="node69" class="node">
<title>Node0x5acebb9d5580</title>
<path fill="#f0f4ff" stroke="black" d="M118,-8063C118,-8063 12,-8063 12,-8063 6,-8063 0,-8057 0,-8051 0,-8051 0,-8039 0,-8039 0,-8033 6,-8027 12,-8027 12,-8027 118,-8027 118,-8027 124,-8027 130,-8033 130,-8039 130,-8039 130,-8051 130,-8051 130,-8057 124,-8063 118,-8063"/>
<text text-anchor="middle" x="65" y="-8042.8" font-family="Courier,monospace" font-size="9.00">{__gxx_personality_v0}</text>
</g>
<!-- Node0x5acebb9d5680 -->
<g id="node76" class="node">
<title>Node0x5acebb9d5680</title>
<path fill="#f0f4ff" stroke="black" d="M1579,-2506C1579,-2506 1315,-2506 1315,-2506 1309,-2506 1303,-2500 1303,-2494 1303,-2494 1303,-2482 1303,-2482 1303,-2476 1309,-2470 1315,-2470 1315,-2470 1579,-2470 1579,-2470 1585,-2470 1591,-2476 1591,-2482 1591,-2482 1591,-2494 1591,-2494 1591,-2500 1585,-2506 1579,-2506"/>
<text text-anchor="middle" x="1447" y="-2485.8" font-family="Courier,monospace" font-size="9.00">{__gnu_cxx::__aligned_membuf&lt;IccTagEntry&gt;::_M_ptr()}</text>
</g>
<!-- Node0x5acebb9ce4e0&#45;&gt;Node0x5acebb9d5680 -->
<g id="edge125" class="edge">
<title>Node0x5acebb9ce4e0&#45;&gt;Node0x5acebb9d5680</title>
<path fill="none" stroke="#4a6fa5" d="M1180.18,-2488C1216.67,-2488 1257.28,-2488 1295.57,-2488"/>
<polygon fill="#4a6fa5" stroke="#4a6fa5" points="1295.69,-2490.45 1302.69,-2488 1295.69,-2485.55 1295.69,-2490.45"/>
</g>
<!-- Node0x5acebb9d6f80 -->
<g id="node77" class="node">
<title>Node0x5acebb9d6f80</title>
<path fill="#f0f4ff" stroke="black" d="M1992,-2506C1992,-2506 1723,-2506 1723,-2506 1717,-2506 1711,-2500 1711,-2494 1711,-2494 1711,-2482 1711,-2482 1711,-2476 1717,-2470 1723,-2470 1723,-2470 1992,-2470 1992,-2470 1998,-2470 2004,-2476 2004,-2482 2004,-2482 2004,-2494 2004,-2494 2004,-2500 1998,-2506 1992,-2506"/>
<text text-anchor="middle" x="1857.5" y="-2485.8" font-family="Courier,monospace" font-size="9.00">{__gnu_cxx::__aligned_membuf&lt;IccTagEntry&gt;::_M_addr()}</text>
</g>
<!-- Node0x5acebb9d5680&#45;&gt;Node0x5acebb9d6f80 -->
<g id="edge126" class="edge">
<title>Node0x5acebb9d5680&#45;&gt;Node0x5acebb9d6f80</title>
<path fill="none" stroke="#4a6fa5" d="M1591.16,-2488C1627.49,-2488 1666.66,-2488 1703.46,-2488"/>
<polygon fill="#4a6fa5" stroke="#4a6fa5" points="1703.79,-2490.45 1710.79,-2488 1703.79,-2485.55 1703.79,-2490.45"/>
</g>
</g>
</svg>
