<?xml version="1.0" encoding="UTF-8" standalone="no"?>
<!DOCTYPE svg PUBLIC "-//W3C//DTD SVG 1.1//EN"
 "http://www.w3.org/Graphics/SVG/1.1/DTD/svg11.dtd">
<!-- Generated by graphviz version 2.43.0 (0)
 -->
<!-- Title: Call graph: /home/h02332/po/research/call&#45;graph/analyzer/IccAnalyzerInspect.ll Pages: 1 -->
<svg width="6639pt" height="360pt"
 viewBox="0.00 0.00 6638.50 360.00" xmlns="http://www.w3.org/2000/svg" xmlns:xlink="http://www.w3.org/1999/xlink">
<g id="graph0" class="graph" transform="scale(1 1) rotate(0) translate(4 356)">
<title>Call graph: /home/h02332/po/research/call&#45;graph/analyzer/IccAnalyzerInspect.ll</title>
<polygon fill="white" stroke="transparent" points="-4,4 -4,-356 6634.5,-356 6634.5,4 -4,4"/>
<text text-anchor="middle" x="3315.25" y="-7.8" font-family="Times,serif" font-size="14.00">Call graph: /home/h02332/po/research/call&#45;graph/analyzer/IccAnalyzerInspect.ll</text>
<!-- Node0x5af0449d97f0 -->
<g id="node1" class="node">
<title>Node0x5af0449d97f0</title>
<polygon fill="none" stroke="black" points="1650.5,-242.5 1650.5,-278.5 1847.5,-278.5 1847.5,-242.5 1650.5,-242.5"/>
<text text-anchor="middle" x="1749" y="-256.8" font-family="Times,serif" font-size="14.00">_Z12PrintHexDumpPKhjj</text>
</g>
<!-- Node0x5af0449c59a0 -->
<g id="node2" class="node">
<title>Node0x5af0449c59a0</title>
<polygon fill="none" stroke="black" points="1784.5,-169.5 1784.5,-205.5 1841.5,-205.5 1841.5,-169.5 1784.5,-169.5"/>
<text text-anchor="middle" x="1813" y="-183.8" font-family="Times,serif" font-size="14.00">printf</text>
</g>
<!-- Node0x5af0449d97f0&#45;&gt;Node0x5af0449c59a0 -->
<g id="edge1" class="edge">
<title>Node0x5af0449d97f0&#45;&gt;Node0x5af0449c59a0</title>
<path fill="none" stroke="black" d="M1764.49,-242.31C1772.43,-233.5 1782.24,-222.63 1790.95,-212.96"/>
<polygon fill="black" stroke="black" points="1793.55,-215.3 1797.65,-205.53 1788.35,-210.61 1793.55,-215.3"/>
</g>
<!-- Node0x5af0449f7920 -->
<g id="node3" class="node">
<title>Node0x5af0449f7920</title>
<polygon fill="none" stroke="black" points="912,-315.5 912,-351.5 1276,-351.5 1276,-315.5 912,-315.5"/>
<text text-anchor="middle" x="1094" y="-329.8" font-family="Times,serif" font-size="14.00">_Z17DumpProfileHeaderP11CIccProfileP6CIccIO</text>
</g>
<!-- Node0x5af0449f7920&#45;&gt;Node0x5af0449d97f0 -->
<g id="edge5" class="edge">
<title>Node0x5af0449f7920&#45;&gt;Node0x5af0449d97f0</title>
<path fill="none" stroke="black" d="M1276.04,-317.6C1379.89,-308.39 1512.7,-295.43 1640.47,-279.02"/>
<polygon fill="black" stroke="black" points="1640.98,-282.49 1650.45,-277.73 1640.08,-275.54 1640.98,-282.49"/>
</g>
<!-- Node0x5af0449f7920&#45;&gt;Node0x5af0449c59a0 -->
<g id="edge2" class="edge">
<title>Node0x5af0449f7920&#45;&gt;Node0x5af0449c59a0</title>
<path fill="none" stroke="black" d="M1078.48,-315.41C1062.29,-295.5 1041.74,-262.68 1061,-242 1109.9,-189.5 1626.69,-187.68 1774.01,-188.25"/>
<polygon fill="black" stroke="black" points="1774.34,-191.75 1784.36,-188.29 1774.38,-184.75 1774.34,-191.75"/>
</g>
<!-- Node0x5af044977170 -->
<g id="node4" class="node">
<title>Node0x5af044977170</title>
<polygon fill="none" stroke="black" points="1070,-242.5 1070,-278.5 1222,-278.5 1222,-242.5 1070,-242.5"/>
<text text-anchor="middle" x="1146" y="-256.8" font-family="Times,serif" font-size="14.00">_ZN8CIccInfoD1Ev</text>
</g>
<!-- Node0x5af0449f7920&#45;&gt;Node0x5af044977170 -->
<g id="edge3" class="edge">
<title>Node0x5af0449f7920&#45;&gt;Node0x5af044977170</title>
<path fill="none" stroke="black" d="M1106.59,-315.31C1112.85,-306.77 1120.54,-296.27 1127.45,-286.82"/>
<polygon fill="black" stroke="black" points="1130.44,-288.66 1133.53,-278.53 1124.8,-284.53 1130.44,-288.66"/>
</g>
<!-- Node0x5af0449770f0 -->
<g id="node5" class="node">
<title>Node0x5af0449770f0</title>
<polygon fill="none" stroke="black" points="520,-242.5 520,-278.5 1014,-278.5 1014,-242.5 520,-242.5"/>
<text text-anchor="middle" x="767" y="-256.8" font-family="Times,serif" font-size="14.00">_ZN8CIccInfo20GetColorSpaceSigNameE21icColorSpaceSignature</text>
</g>
<!-- Node0x5af0449f7920&#45;&gt;Node0x5af0449770f0 -->
<g id="edge4" class="edge">
<title>Node0x5af0449f7920&#45;&gt;Node0x5af0449770f0</title>
<path fill="none" stroke="black" d="M1015.68,-315.49C967.41,-305.01 905.39,-291.55 855.37,-280.69"/>
<polygon fill="black" stroke="black" points="856.05,-277.25 845.54,-278.55 854.56,-284.09 856.05,-277.25"/>
</g>
<!-- Node0x5af044977500 -->
<g id="node6" class="node">
<title>Node0x5af044977500</title>
<polygon fill="none" stroke="black" points="0,-242.5 0,-278.5 502,-278.5 502,-242.5 0,-242.5"/>
<text text-anchor="middle" x="251" y="-256.8" font-family="Times,serif" font-size="14.00">_ZN8CIccInfo22GetProfileClassSigNameE23icProfileClassSignature</text>
</g>
<!-- Node0x5af0449f7920&#45;&gt;Node0x5af044977500 -->
<g id="edge6" class="edge">
<title>Node0x5af0449f7920&#45;&gt;Node0x5af044977500</title>
<path fill="none" stroke="black" d="M911.86,-317.16C780.1,-306.06 601.66,-291.03 463.41,-279.39"/>
<polygon fill="black" stroke="black" points="463.37,-275.87 453.11,-278.52 462.78,-282.85 463.37,-275.87"/>
</g>
<!-- Node0x5af044977cd0 -->
<g id="node7" class="node">
<title>Node0x5af044977cd0</title>
<polygon fill="none" stroke="black" points="1240.5,-242.5 1240.5,-278.5 1391.5,-278.5 1391.5,-242.5 1240.5,-242.5"/>
<text text-anchor="middle" x="1316" y="-256.8" font-family="Times,serif" font-size="14.00">_ZN8CIccInfoC1Ev</text>
</g>
<!-- Node0x5af0449f7920&#45;&gt;Node0x5af044977cd0 -->
<g id="edge7" class="edge">
<title>Node0x5af0449f7920&#45;&gt;Node0x5af044977cd0</title>
<path fill="none" stroke="black" d="M1147.17,-315.49C1178.93,-305.34 1219.45,-292.38 1252.83,-281.7"/>
<polygon fill="black" stroke="black" points="1254.03,-284.99 1262.49,-278.61 1251.9,-278.33 1254.03,-284.99"/>
</g>
<!-- Node0x5af0449772d0 -->
<g id="node8" class="node">
<title>Node0x5af0449772d0</title>
<polygon fill="none" stroke="black" points="4532.5,-315.5 4532.5,-351.5 4699.5,-351.5 4699.5,-315.5 4532.5,-315.5"/>
<text text-anchor="middle" x="4616" y="-329.8" font-family="Times,serif" font-size="14.00">__gxx_personality_v0</text>
</g>
<!-- Node0x5af0449fdf60 -->
<g id="node9" class="node">
<title>Node0x5af0449fdf60</title>
<polygon fill="none" stroke="black" points="4185.5,-315.5 4185.5,-351.5 4514.5,-351.5 4514.5,-315.5 4185.5,-315.5"/>
<text text-anchor="middle" x="4350" y="-329.8" font-family="Times,serif" font-size="14.00">_Z12DumpTagTableP11CIccProfileP6CIccIO</text>
</g>
<!-- Node0x5af0449fdf60&#45;&gt;Node0x5af0449d97f0 -->
<g id="edge18" class="edge">
<title>Node0x5af0449fdf60&#45;&gt;Node0x5af0449d97f0</title>
<path fill="none" stroke="black" d="M4185.21,-331.01C3709.91,-326.37 2341.92,-310.58 1895,-279 1882.94,-278.15 1870.35,-277.01 1857.84,-275.73"/>
<polygon fill="black" stroke="black" points="1858.14,-272.24 1847.83,-274.67 1857.41,-279.2 1858.14,-272.24"/>
</g>
<!-- Node0x5af0449fdf60&#45;&gt;Node0x5af0449c59a0 -->
<g id="edge8" class="edge">
<title>Node0x5af0449fdf60&#45;&gt;Node0x5af0449c59a0</title>
<path fill="none" stroke="black" d="M4509.6,-315.48C4574.12,-302.58 4625.53,-280.26 4588,-242 4581.72,-235.6 2187.83,-194.85 1851.97,-189.16"/>
<polygon fill="black" stroke="black" points="1851.82,-185.66 1841.76,-188.99 1851.7,-192.65 1851.82,-185.66"/>
</g>
<!-- Node0x5af0449fdf60&#45;&gt;Node0x5af044977170 -->
<g id="edge10" class="edge">
<title>Node0x5af0449fdf60&#45;&gt;Node0x5af044977170</title>
<path fill="none" stroke="black" d="M4185.28,-330.52C3573.33,-323.07 1454.86,-296.28 1232.45,-278.84"/>
<polygon fill="black" stroke="black" points="1232.63,-275.34 1222.35,-277.92 1231.99,-282.32 1232.63,-275.34"/>
</g>
<!-- Node0x5af0449fdf60&#45;&gt;Node0x5af044977cd0 -->
<g id="edge22" class="edge">
<title>Node0x5af0449fdf60&#45;&gt;Node0x5af044977cd0</title>
<path fill="none" stroke="black" d="M4185.34,-330.36C3595.91,-322.57 1615.21,-295.45 1402.06,-278.78"/>
<polygon fill="black" stroke="black" points="1402.17,-275.28 1391.89,-277.85 1401.53,-282.25 1402.17,-275.28"/>
</g>
<!-- Node0x5af044977e00 -->
<g id="node10" class="node">
<title>Node0x5af044977e00</title>
<polygon fill="none" stroke="black" points="6165,-242.5 6165,-278.5 6567,-278.5 6567,-242.5 6165,-242.5"/>
<text text-anchor="middle" x="6366" y="-256.8" font-family="Times,serif" font-size="14.00">_ZNKSt7__cxx114listI11IccTagEntrySaIS1_EE4sizeEv</text>
</g>
<!-- Node0x5af0449fdf60&#45;&gt;Node0x5af044977e00 -->
<g id="edge9" class="edge">
<title>Node0x5af0449fdf60&#45;&gt;Node0x5af044977e00</title>
<path fill="none" stroke="black" d="M4514.83,-315.59C4517.91,-315.38 4520.97,-315.19 4524,-315 5244.79,-270.87 5429.78,-316.71 6154.94,-279.03"/>
<polygon fill="black" stroke="black" points="6155.31,-282.52 6165.11,-278.5 6154.94,-275.53 6155.31,-282.52"/>
</g>
<!-- Node0x5af0449fc890 -->
<g id="node11" class="node">
<title>Node0x5af0449fc890</title>
<polygon fill="none" stroke="black" points="5441,-242.5 5441,-278.5 5647,-278.5 5647,-242.5 5441,-242.5"/>
<text text-anchor="middle" x="5544" y="-256.8" font-family="Times,serif" font-size="14.00">_ZN6CIccIO6Read32EPvm</text>
</g>
<!-- Node0x5af0449fdf60&#45;&gt;Node0x5af0449fc890 -->
<g id="edge11" class="edge">
<title>Node0x5af0449fdf60&#45;&gt;Node0x5af0449fc890</title>
<path fill="none" stroke="black" d="M4514.83,-315.67C4517.91,-315.43 4520.97,-315.21 4524,-315 4923.54,-287.01 5028.3,-317.72 5430.75,-279.05"/>
<polygon fill="black" stroke="black" points="5431.3,-282.51 5440.92,-278.06 5430.63,-275.55 5431.3,-282.51"/>
</g>
<!-- Node0x5af04497a610 -->
<g id="node12" class="node">
<title>Node0x5af04497a610</title>
<polygon fill="none" stroke="black" points="2792,-242.5 2792,-278.5 2860,-278.5 2860,-242.5 2792,-242.5"/>
<text text-anchor="middle" x="2826" y="-256.8" font-family="Times,serif" font-size="14.00">_ZdaPv</text>
</g>
<!-- Node0x5af0449fdf60&#45;&gt;Node0x5af04497a610 -->
<g id="edge12" class="edge">
<title>Node0x5af0449fdf60&#45;&gt;Node0x5af04497a610</title>
<path fill="none" stroke="black" d="M4185.32,-329.87C3834.07,-323.8 3030.79,-307.26 2870.1,-278.84"/>
<polygon fill="black" stroke="black" points="2870.54,-275.36 2860.06,-276.86 2869.19,-282.23 2870.54,-275.36"/>
</g>
<!-- Node0x5af0449fb370 -->
<g id="node13" class="node">
<title>Node0x5af0449fb370</title>
<polygon fill="none" stroke="black" points="4397,-242.5 4397,-278.5 4579,-278.5 4579,-242.5 4397,-242.5"/>
<text text-anchor="middle" x="4488" y="-256.8" font-family="Times,serif" font-size="14.00">_ZnamRKSt9nothrow_t</text>
</g>
<!-- Node0x5af0449fdf60&#45;&gt;Node0x5af0449fb370 -->
<g id="edge13" class="edge">
<title>Node0x5af0449fdf60&#45;&gt;Node0x5af0449fb370</title>
<path fill="none" stroke="black" d="M4383.05,-315.49C4401.86,-305.82 4425.61,-293.6 4445.76,-283.23"/>
<polygon fill="black" stroke="black" points="4447.45,-286.3 4454.74,-278.61 4444.24,-280.08 4447.45,-286.3"/>
</g>
<!-- Node0x5af0449fed50 -->
<g id="node14" class="node">
<title>Node0x5af0449fed50</title>
<polygon fill="none" stroke="black" points="2877.5,-242.5 2877.5,-278.5 3204.5,-278.5 3204.5,-242.5 2877.5,-242.5"/>
<text text-anchor="middle" x="3041" y="-256.8" font-family="Times,serif" font-size="14.00">_ZNSt14_List_iteratorI11IccTagEntryEppEi</text>
</g>
<!-- Node0x5af0449fdf60&#45;&gt;Node0x5af0449fed50 -->
<g id="edge14" class="edge">
<title>Node0x5af0449fdf60&#45;&gt;Node0x5af0449fed50</title>
<path fill="none" stroke="black" d="M4185.22,-327.52C3966.17,-320.27 3566.77,-304.86 3215.02,-279.05"/>
<polygon fill="black" stroke="black" points="3215.12,-275.55 3204.89,-278.3 3214.6,-282.53 3215.12,-275.55"/>
</g>
<!-- Node0x5af04497a350 -->
<g id="node15" class="node">
<title>Node0x5af04497a350</title>
<polygon fill="none" stroke="black" points="5665.5,-242.5 5665.5,-278.5 5914.5,-278.5 5914.5,-242.5 5665.5,-242.5"/>
<text text-anchor="middle" x="5790" y="-256.8" font-family="Times,serif" font-size="14.00">_Z24HasNonPrintableSignaturej</text>
</g>
<!-- Node0x5af0449fdf60&#45;&gt;Node0x5af04497a350 -->
<g id="edge15" class="edge">
<title>Node0x5af0449fdf60&#45;&gt;Node0x5af04497a350</title>
<path fill="none" stroke="black" d="M4514.83,-315.63C4517.91,-315.41 4520.97,-315.2 4524,-315 5022.96,-282.01 5152.57,-319.15 5655.16,-279.01"/>
<polygon fill="black" stroke="black" points="5655.53,-282.49 5665.22,-278.2 5654.97,-275.52 5655.53,-282.49"/>
</g>
<!-- Node0x5af044979880 -->
<g id="node16" class="node">
<title>Node0x5af044979880</title>
<polygon fill="none" stroke="black" points="3645.5,-242.5 3645.5,-278.5 4028.5,-278.5 4028.5,-242.5 3645.5,-242.5"/>
<text text-anchor="middle" x="3837" y="-256.8" font-family="Times,serif" font-size="14.00">_ZN8CIccInfo13GetTagSigNameE14icTagSignature</text>
</g>
<!-- Node0x5af0449fdf60&#45;&gt;Node0x5af044979880 -->
<g id="edge16" class="edge">
<title>Node0x5af0449fdf60&#45;&gt;Node0x5af044979880</title>
<path fill="none" stroke="black" d="M4227.12,-315.49C4149.66,-304.77 4049.64,-290.93 3970.27,-279.95"/>
<polygon fill="black" stroke="black" points="3970.59,-276.46 3960.21,-278.55 3969.63,-283.39 3970.59,-276.46"/>
</g>
<!-- Node0x5af044979ce0 -->
<g id="node17" class="node">
<title>Node0x5af044979ce0</title>
<polygon fill="none" stroke="black" points="5933,-242.5 5933,-278.5 6147,-278.5 6147,-242.5 5933,-242.5"/>
<text text-anchor="middle" x="6040" y="-256.8" font-family="Times,serif" font-size="14.00">_Z17SignatureToFourCCjPc</text>
</g>
<!-- Node0x5af0449fdf60&#45;&gt;Node0x5af044979ce0 -->
<g id="edge17" class="edge">
<title>Node0x5af0449fdf60&#45;&gt;Node0x5af044979ce0</title>
<path fill="none" stroke="black" d="M4514.83,-315.61C4517.91,-315.39 4520.97,-315.19 4524,-315 5141.86,-276.04 5302.25,-332.91 5922.83,-279.03"/>
<polygon fill="black" stroke="black" points="5923.27,-282.51 5932.93,-278.15 5922.66,-275.53 5923.27,-282.51"/>
</g>
<!-- Node0x5af044979f10 -->
<g id="node18" class="node">
<title>Node0x5af044979f10</title>
<polygon fill="none" stroke="black" points="5081.5,-242.5 5081.5,-278.5 5422.5,-278.5 5422.5,-242.5 5081.5,-242.5"/>
<text text-anchor="middle" x="5252" y="-256.8" font-family="Times,serif" font-size="14.00">_ZNKSt14_List_iteratorI11IccTagEntryEdeEv</text>
</g>
<!-- Node0x5af0449fdf60&#45;&gt;Node0x5af044979f10 -->
<g id="edge19" class="edge">
<title>Node0x5af0449fdf60&#45;&gt;Node0x5af044979f10</title>
<path fill="none" stroke="black" d="M4514.84,-315.77C4517.92,-315.51 4520.97,-315.25 4524,-315 4763.92,-295.06 4827.01,-298.71 5071.21,-279.05"/>
<polygon fill="black" stroke="black" points="5071.79,-282.51 5081.47,-278.22 5071.22,-275.53 5071.79,-282.51"/>
</g>
<!-- Node0x5af04497a140 -->
<g id="node19" class="node">
<title>Node0x5af04497a140</title>
<polygon fill="none" stroke="black" points="2412,-242.5 2412,-278.5 2774,-278.5 2774,-242.5 2412,-242.5"/>
<text text-anchor="middle" x="2593" y="-256.8" font-family="Times,serif" font-size="14.00">_ZStneRKSt14_List_iteratorI11IccTagEntryES3_</text>
</g>
<!-- Node0x5af0449fdf60&#45;&gt;Node0x5af04497a140 -->
<g id="edge20" class="edge">
<title>Node0x5af0449fdf60&#45;&gt;Node0x5af04497a140</title>
<path fill="none" stroke="black" d="M4185.44,-330C3901.71,-325.01 3301.88,-311.4 2784.29,-279.06"/>
<polygon fill="black" stroke="black" points="2784.2,-275.55 2774,-278.41 2783.76,-282.53 2784.2,-275.55"/>
</g>
<!-- Node0x5af044979420 -->
<g id="node20" class="node">
<title>Node0x5af044979420</title>
<polygon fill="none" stroke="black" points="4673,-242.5 4673,-278.5 5063,-278.5 5063,-242.5 4673,-242.5"/>
<text text-anchor="middle" x="4868" y="-256.8" font-family="Times,serif" font-size="14.00">_ZNSt7__cxx114listI11IccTagEntrySaIS1_EE3endEv</text>
</g>
<!-- Node0x5af0449fdf60&#45;&gt;Node0x5af044979420 -->
<g id="edge21" class="edge">
<title>Node0x5af0449fdf60&#45;&gt;Node0x5af044979420</title>
<path fill="none" stroke="black" d="M4474.07,-315.49C4552.29,-304.77 4653.28,-290.93 4733.43,-279.95"/>
<polygon fill="black" stroke="black" points="4734.16,-283.38 4743.59,-278.55 4733.21,-276.44 4734.16,-283.38"/>
</g>
<!-- Node0x5af0449fe7f0 -->
<g id="node21" class="node">
<title>Node0x5af0449fe7f0</title>
<polygon fill="none" stroke="black" points="4047,-242.5 4047,-278.5 4379,-278.5 4379,-242.5 4047,-242.5"/>
<text text-anchor="middle" x="4213" y="-256.8" font-family="Times,serif" font-size="14.00">_ZNSt14_List_iteratorI11IccTagEntryEC2Ev</text>
</g>
<!-- Node0x5af0449fdf60&#45;&gt;Node0x5af0449fe7f0 -->
<g id="edge23" class="edge">
<title>Node0x5af0449fdf60&#45;&gt;Node0x5af0449fe7f0</title>
<path fill="none" stroke="black" d="M4317.19,-315.49C4298.51,-305.82 4274.93,-293.6 4254.93,-283.23"/>
<polygon fill="black" stroke="black" points="4256.51,-280.11 4246.02,-278.61 4253.29,-286.32 4256.51,-280.11"/>
</g>
<!-- Node0x5af0449fe660 -->
<g id="node22" class="node">
<title>Node0x5af0449fe660</title>
<polygon fill="none" stroke="black" points="3223,-242.5 3223,-278.5 3627,-278.5 3627,-242.5 3223,-242.5"/>
<text text-anchor="middle" x="3425" y="-256.8" font-family="Times,serif" font-size="14.00">_ZNSt7__cxx114listI11IccTagEntrySaIS1_EE5beginEv</text>
</g>
<!-- Node0x5af0449fdf60&#45;&gt;Node0x5af0449fe660 -->
<g id="edge24" class="edge">
<title>Node0x5af0449fdf60&#45;&gt;Node0x5af0449fe660</title>
<path fill="none" stroke="black" d="M4185.36,-320.5C4043.31,-310.06 3832.3,-294.36 3637.41,-279.03"/>
<polygon fill="black" stroke="black" points="3637.5,-275.53 3627.26,-278.23 3636.95,-282.5 3637.5,-275.53"/>
</g>
<!-- Node0x5af044979b30 -->
<g id="node23" class="node">
<title>Node0x5af044979b30</title>
<polygon fill="none" stroke="black" points="2950,-169.5 2950,-205.5 3132,-205.5 3132,-169.5 2950,-169.5"/>
<text text-anchor="middle" x="3041" y="-183.8" font-family="Times,serif" font-size="14.00">llvm.memcpy.p0.p0.i64</text>
</g>
<!-- Node0x5af0449fdf60&#45;&gt;Node0x5af044979b30 -->
<g id="edge25" class="edge">
<title>Node0x5af0449fdf60&#45;&gt;Node0x5af044979b30</title>
<path fill="none" stroke="black" d="M4472.84,-315.49C4539.76,-304.96 4610.99,-291.18 4621,-279 4631.44,-266.3 4632.43,-253.82 4621,-242 4608.11,-228.66 3489.01,-199.67 3142.26,-191"/>
<polygon fill="black" stroke="black" points="3142.31,-187.5 3132.23,-190.75 3142.13,-194.5 3142.31,-187.5"/>
</g>
<!-- Node0x5af0449fe9e0 -->
<g id="node24" class="node">
<title>Node0x5af0449fe9e0</title>
<polygon fill="none" stroke="black" points="6120,-169.5 6120,-205.5 6612,-205.5 6612,-169.5 6120,-169.5"/>
<text text-anchor="middle" x="6366" y="-183.8" font-family="Times,serif" font-size="14.00">_ZNKSt7__cxx114listI11IccTagEntrySaIS1_EE13_M_node_countEv</text>
</g>
<!-- Node0x5af044977e00&#45;&gt;Node0x5af0449fe9e0 -->
<g id="edge26" class="edge">
<title>Node0x5af044977e00&#45;&gt;Node0x5af0449fe9e0</title>
<path fill="none" stroke="black" d="M6366,-242.31C6366,-234.29 6366,-224.55 6366,-215.57"/>
<polygon fill="black" stroke="black" points="6369.5,-215.53 6366,-205.53 6362.5,-215.53 6369.5,-215.53"/>
</g>
<!-- Node0x5af04497aa20 -->
<g id="node25" class="node">
<title>Node0x5af04497aa20</title>
<polygon fill="none" stroke="black" points="5787.5,-169.5 5787.5,-205.5 5964.5,-205.5 5964.5,-169.5 5787.5,-169.5"/>
<text text-anchor="middle" x="5876" y="-183.8" font-family="Times,serif" font-size="14.00">__clang_call_terminate</text>
</g>
<!-- Node0x5af044977e00&#45;&gt;Node0x5af04497aa20 -->
<g id="edge27" class="edge">
<title>Node0x5af044977e00&#45;&gt;Node0x5af04497aa20</title>
<path fill="none" stroke="black" d="M6248.63,-242.49C6165.01,-230.38 6053.85,-214.27 5974.76,-202.81"/>
<polygon fill="black" stroke="black" points="5975.2,-199.34 5964.8,-201.37 5974.19,-206.26 5975.2,-199.34"/>
</g>
<!-- Node0x5af0449fed50&#45;&gt;Node0x5af044979b30 -->
<g id="edge32" class="edge">
<title>Node0x5af0449fed50&#45;&gt;Node0x5af044979b30</title>
<path fill="none" stroke="black" d="M3041,-242.31C3041,-234.29 3041,-224.55 3041,-215.57"/>
<polygon fill="black" stroke="black" points="3044.5,-215.53 3041,-205.53 3037.5,-215.53 3044.5,-215.53"/>
</g>
<!-- Node0x5af044979f10&#45;&gt;Node0x5af04497aa20 -->
<g id="edge31" class="edge">
<title>Node0x5af044979f10&#45;&gt;Node0x5af04497aa20</title>
<path fill="none" stroke="black" d="M5401.46,-242.49C5517.89,-229.25 5676.21,-211.23 5777.28,-199.73"/>
<polygon fill="black" stroke="black" points="5777.94,-203.18 5787.48,-198.57 5777.15,-196.22 5777.94,-203.18"/>
</g>
<!-- Node0x5af04497a7d0 -->
<g id="node27" class="node">
<title>Node0x5af04497a7d0</title>
<polygon fill="none" stroke="black" points="5066,-169.5 5066,-205.5 5438,-205.5 5438,-169.5 5066,-169.5"/>
<text text-anchor="middle" x="5252" y="-183.8" font-family="Times,serif" font-size="14.00">_ZNSt10_List_nodeI11IccTagEntryE9_M_valptrEv</text>
</g>
<!-- Node0x5af044979f10&#45;&gt;Node0x5af04497a7d0 -->
<g id="edge30" class="edge">
<title>Node0x5af044979f10&#45;&gt;Node0x5af04497a7d0</title>
<path fill="none" stroke="black" d="M5252,-242.31C5252,-234.29 5252,-224.55 5252,-215.57"/>
<polygon fill="black" stroke="black" points="5255.5,-215.53 5252,-205.53 5248.5,-215.53 5255.5,-215.53"/>
</g>
<!-- Node0x5af04497b1a0 -->
<g id="node26" class="node">
<title>Node0x5af04497b1a0</title>
<polygon fill="none" stroke="black" points="3815,-169.5 3815,-205.5 4383,-205.5 4383,-169.5 3815,-169.5"/>
<text text-anchor="middle" x="4099" y="-183.8" font-family="Times,serif" font-size="14.00">_ZNSt14_List_iteratorI11IccTagEntryEC2EPNSt8__detail15_List_node_baseE</text>
</g>
<!-- Node0x5af044979420&#45;&gt;Node0x5af04497b1a0 -->
<g id="edge29" class="edge">
<title>Node0x5af044979420&#45;&gt;Node0x5af04497b1a0</title>
<path fill="none" stroke="black" d="M4683.81,-242.49C4565.93,-231.61 4413.2,-217.51 4293.38,-206.45"/>
<polygon fill="black" stroke="black" points="4293.64,-202.96 4283.36,-205.52 4292.99,-209.93 4293.64,-202.96"/>
</g>
<!-- Node0x5af0449fe660&#45;&gt;Node0x5af04497b1a0 -->
<g id="edge28" class="edge">
<title>Node0x5af0449fe660&#45;&gt;Node0x5af04497b1a0</title>
<path fill="none" stroke="black" d="M3586.44,-242.49C3689.34,-231.65 3822.54,-217.62 3927.37,-206.58"/>
<polygon fill="black" stroke="black" points="3927.84,-210.05 3937.42,-205.52 3927.11,-203.09 3927.84,-210.05"/>
</g>
<!-- Node0x5af04497c240 -->
<g id="node31" class="node">
<title>Node0x5af04497c240</title>
<polygon fill="none" stroke="black" points="6101.5,-96.5 6101.5,-132.5 6630.5,-132.5 6630.5,-96.5 6101.5,-96.5"/>
<text text-anchor="middle" x="6366" y="-110.8" font-family="Times,serif" font-size="14.00">_ZNKSt7__cxx1110_List_baseI11IccTagEntrySaIS1_EE11_M_get_sizeEv</text>
</g>
<!-- Node0x5af0449fe9e0&#45;&gt;Node0x5af04497c240 -->
<g id="edge49" class="edge">
<title>Node0x5af0449fe9e0&#45;&gt;Node0x5af04497c240</title>
<path fill="none" stroke="black" d="M6366,-169.31C6366,-161.29 6366,-151.55 6366,-142.57"/>
<polygon fill="black" stroke="black" points="6369.5,-142.53 6366,-132.53 6362.5,-142.53 6369.5,-142.53"/>
</g>
<!-- Node0x5af04497ba20 -->
<g id="node32" class="node">
<title>Node0x5af04497ba20</title>
<polygon fill="none" stroke="black" points="5712,-96.5 5712,-132.5 5858,-132.5 5858,-96.5 5712,-96.5"/>
<text text-anchor="middle" x="5785" y="-110.8" font-family="Times,serif" font-size="14.00">__cxa_begin_catch</text>
</g>
<!-- Node0x5af04497aa20&#45;&gt;Node0x5af04497ba20 -->
<g id="edge50" class="edge">
<title>Node0x5af04497aa20&#45;&gt;Node0x5af04497ba20</title>
<path fill="none" stroke="black" d="M5853.97,-169.31C5842.23,-160.16 5827.63,-148.76 5814.88,-138.82"/>
<polygon fill="black" stroke="black" points="5816.86,-135.92 5806.83,-132.53 5812.56,-141.44 5816.86,-135.92"/>
</g>
<!-- Node0x5af044a00000 -->
<g id="node33" class="node">
<title>Node0x5af044a00000</title>
<polygon fill="none" stroke="black" points="5876.5,-96.5 5876.5,-132.5 6013.5,-132.5 6013.5,-96.5 5876.5,-96.5"/>
<text text-anchor="middle" x="5945" y="-110.8" font-family="Times,serif" font-size="14.00">_ZSt9terminatev</text>
</g>
<!-- Node0x5af04497aa20&#45;&gt;Node0x5af044a00000 -->
<g id="edge51" class="edge">
<title>Node0x5af04497aa20&#45;&gt;Node0x5af044a00000</title>
<path fill="none" stroke="black" d="M5892.7,-169.31C5901.26,-160.5 5911.84,-149.63 5921.23,-139.96"/>
<polygon fill="black" stroke="black" points="5923.99,-142.14 5928.45,-132.53 5918.97,-137.26 5923.99,-142.14"/>
</g>
<!-- Node0x5af04497b360 -->
<g id="node34" class="node">
<title>Node0x5af04497b360</title>
<polygon fill="none" stroke="black" points="5016,-96.5 5016,-132.5 5488,-132.5 5488,-96.5 5016,-96.5"/>
<text text-anchor="middle" x="5252" y="-110.8" font-family="Times,serif" font-size="14.00">_ZN9__gnu_cxx16__aligned_membufI11IccTagEntryE6_M_ptrEv</text>
</g>
<!-- Node0x5af04497a7d0&#45;&gt;Node0x5af04497b360 -->
<g id="edge52" class="edge">
<title>Node0x5af04497a7d0&#45;&gt;Node0x5af04497b360</title>
<path fill="none" stroke="black" d="M5252,-169.31C5252,-161.29 5252,-151.55 5252,-142.57"/>
<polygon fill="black" stroke="black" points="5255.5,-142.53 5252,-132.53 5248.5,-142.53 5255.5,-142.53"/>
</g>
<!-- Node0x5af0449787c0 -->
<g id="node28" class="node">
<title>Node0x5af0449787c0</title>
<polygon fill="none" stroke="black" points="2484,-315.5 2484,-351.5 2934,-351.5 2934,-315.5 2484,-315.5"/>
<text text-anchor="middle" x="2709" y="-329.8" font-family="Times,serif" font-size="14.00">_Z11DumpTagDataP11CIccProfileP6CIccIO14icTagSignature</text>
</g>
<!-- Node0x5af0449787c0&#45;&gt;Node0x5af0449d97f0 -->
<g id="edge46" class="edge">
<title>Node0x5af0449787c0&#45;&gt;Node0x5af0449d97f0</title>
<path fill="none" stroke="black" d="M2483.83,-323.83C2312.88,-315.91 2072.2,-301.87 1862,-279 1860.52,-278.84 1859.03,-278.67 1857.53,-278.5"/>
<polygon fill="black" stroke="black" points="1857.88,-275.02 1847.54,-277.3 1857.05,-281.97 1857.88,-275.02"/>
</g>
<!-- Node0x5af0449787c0&#45;&gt;Node0x5af0449c59a0 -->
<g id="edge34" class="edge">
<title>Node0x5af0449787c0&#45;&gt;Node0x5af0449c59a0</title>
<path fill="none" stroke="black" d="M2483.81,-326.34C2261.31,-318.86 1946.84,-304.05 1895,-279 1887.16,-275.21 1855.63,-239.04 1834.04,-213.59"/>
<polygon fill="black" stroke="black" points="1836.55,-211.14 1827.42,-205.76 1831.2,-215.66 1836.55,-211.14"/>
</g>
<!-- Node0x5af0449787c0&#45;&gt;Node0x5af044977170 -->
<g id="edge44" class="edge">
<title>Node0x5af0449787c0&#45;&gt;Node0x5af044977170</title>
<path fill="none" stroke="black" d="M2483.99,-328.95C2136.67,-322.71 1484.63,-307.72 1232.6,-279.05"/>
<polygon fill="black" stroke="black" points="1232.7,-275.53 1222.36,-277.85 1231.88,-282.49 1232.7,-275.53"/>
</g>
<!-- Node0x5af0449787c0&#45;&gt;Node0x5af044977cd0 -->
<g id="edge42" class="edge">
<title>Node0x5af0449787c0&#45;&gt;Node0x5af044977cd0</title>
<path fill="none" stroke="black" d="M2483.97,-327.7C2171.59,-320.3 1621.27,-304.36 1402.08,-278.98"/>
<polygon fill="black" stroke="black" points="1402.24,-275.47 1391.9,-277.76 1401.41,-282.42 1402.24,-275.47"/>
</g>
<!-- Node0x5af0449787c0&#45;&gt;Node0x5af04497a610 -->
<g id="edge45" class="edge">
<title>Node0x5af0449787c0&#45;&gt;Node0x5af04497a610</title>
<path fill="none" stroke="black" d="M2737.02,-315.49C2752.54,-306.08 2772.02,-294.26 2788.8,-284.07"/>
<polygon fill="black" stroke="black" points="2791.07,-286.79 2797.8,-278.61 2787.43,-280.81 2791.07,-286.79"/>
</g>
<!-- Node0x5af0449787c0&#45;&gt;Node0x5af0449fb370 -->
<g id="edge47" class="edge">
<title>Node0x5af0449787c0&#45;&gt;Node0x5af0449fb370</title>
<path fill="none" stroke="black" d="M2934.38,-329.27C3320.61,-323.08 4094.71,-307.66 4386.61,-279.03"/>
<polygon fill="black" stroke="black" points="4387.19,-282.49 4396.79,-278.01 4386.49,-275.53 4387.19,-282.49"/>
</g>
<!-- Node0x5af0449787c0&#45;&gt;Node0x5af0449fed50 -->
<g id="edge41" class="edge">
<title>Node0x5af0449787c0&#45;&gt;Node0x5af0449fed50</title>
<path fill="none" stroke="black" d="M2788.52,-315.49C2837.53,-305.01 2900.49,-291.55 2951.28,-280.69"/>
<polygon fill="black" stroke="black" points="2952.22,-284.07 2961.26,-278.55 2950.75,-277.22 2952.22,-284.07"/>
</g>
<!-- Node0x5af0449787c0&#45;&gt;Node0x5af044979880 -->
<g id="edge43" class="edge">
<title>Node0x5af0449787c0&#45;&gt;Node0x5af044979880</title>
<path fill="none" stroke="black" d="M2934.38,-321.34C3119.6,-311.73 3389.14,-296.74 3635.03,-279.06"/>
<polygon fill="black" stroke="black" points="3635.52,-282.53 3645.24,-278.32 3635.02,-275.55 3635.52,-282.53"/>
</g>
<!-- Node0x5af0449787c0&#45;&gt;Node0x5af044979f10 -->
<g id="edge40" class="edge">
<title>Node0x5af0449787c0&#45;&gt;Node0x5af044979f10</title>
<path fill="none" stroke="black" d="M2934.23,-329.54C3437.47,-322.58 4641.84,-303.9 5071.48,-278.99"/>
<polygon fill="black" stroke="black" points="5071.71,-282.48 5081.48,-278.4 5071.3,-275.5 5071.71,-282.48"/>
</g>
<!-- Node0x5af0449787c0&#45;&gt;Node0x5af04497a140 -->
<g id="edge39" class="edge">
<title>Node0x5af0449787c0&#45;&gt;Node0x5af04497a140</title>
<path fill="none" stroke="black" d="M2681.22,-315.49C2665.83,-306.08 2646.52,-294.26 2629.88,-284.07"/>
<polygon fill="black" stroke="black" points="2631.32,-280.85 2620.96,-278.61 2627.66,-286.82 2631.32,-280.85"/>
</g>
<!-- Node0x5af0449787c0&#45;&gt;Node0x5af044979420 -->
<g id="edge38" class="edge">
<title>Node0x5af0449787c0&#45;&gt;Node0x5af044979420</title>
<path fill="none" stroke="black" d="M2934.33,-328.55C3287.1,-321.82 3991.2,-306.14 4588,-279 4612.27,-277.9 4637.71,-276.56 4662.95,-275.12"/>
<polygon fill="black" stroke="black" points="4663.2,-278.61 4672.98,-274.54 4662.8,-271.62 4663.2,-278.61"/>
</g>
<!-- Node0x5af0449787c0&#45;&gt;Node0x5af0449fe7f0 -->
<g id="edge35" class="edge">
<title>Node0x5af0449787c0&#45;&gt;Node0x5af0449fe7f0</title>
<path fill="none" stroke="black" d="M2934.08,-327.52C3196.32,-320.77 3642.87,-306.39 4036.59,-279.07"/>
<polygon fill="black" stroke="black" points="4037.02,-282.55 4046.75,-278.37 4036.53,-275.57 4037.02,-282.55"/>
</g>
<!-- Node0x5af0449787c0&#45;&gt;Node0x5af0449fe660 -->
<g id="edge36" class="edge">
<title>Node0x5af0449787c0&#45;&gt;Node0x5af0449fe660</title>
<path fill="none" stroke="black" d="M2880.5,-315.49C2990.03,-304.63 3131.89,-290.57 3243.34,-279.51"/>
<polygon fill="black" stroke="black" points="3243.74,-282.99 3253.35,-278.52 3243.05,-276.03 3243.74,-282.99"/>
</g>
<!-- Node0x5af0449787c0&#45;&gt;Node0x5af044979b30 -->
<g id="edge37" class="edge">
<title>Node0x5af0449787c0&#45;&gt;Node0x5af044979b30</title>
<path fill="none" stroke="black" d="M2483.69,-321.54C2412.45,-309.87 2361.75,-286.86 2403,-242 2438.53,-203.37 2768.88,-192.62 2939.71,-189.64"/>
<polygon fill="black" stroke="black" points="2939.78,-193.14 2949.72,-189.47 2939.66,-186.14 2939.78,-193.14"/>
</g>
<!-- Node0x5af04497a590 -->
<g id="node29" class="node">
<title>Node0x5af04497a590</title>
<polygon fill="none" stroke="black" points="1410,-242.5 1410,-278.5 1632,-278.5 1632,-242.5 1410,-242.5"/>
<text text-anchor="middle" x="1521" y="-256.8" font-family="Times,serif" font-size="14.00">_ZN11CIccProfile7FindTagEj</text>
</g>
<!-- Node0x5af0449787c0&#45;&gt;Node0x5af04497a590 -->
<g id="edge33" class="edge">
<title>Node0x5af0449787c0&#45;&gt;Node0x5af04497a590</title>
<path fill="none" stroke="black" d="M2483.78,-327.41C2269.75,-321.13 1938.74,-307.67 1642.19,-279.06"/>
<polygon fill="black" stroke="black" points="1642.39,-275.56 1632.1,-278.08 1641.71,-282.53 1642.39,-275.56"/>
</g>
<!-- Node0x5af04497bce0 -->
<g id="node30" class="node">
<title>Node0x5af04497bce0</title>
<polygon fill="none" stroke="black" points="1904,-242.5 1904,-278.5 2356,-278.5 2356,-242.5 1904,-242.5"/>
<text text-anchor="middle" x="2130" y="-256.8" font-family="Times,serif" font-size="14.00">_ZN8CIccInfo17GetTagTypeSigNameE18icTagTypeSignature</text>
</g>
<!-- Node0x5af0449787c0&#45;&gt;Node0x5af04497bce0 -->
<g id="edge48" class="edge">
<title>Node0x5af0449787c0&#45;&gt;Node0x5af04497bce0</title>
<path fill="none" stroke="black" d="M2570.32,-315.49C2482.36,-304.71 2368.64,-290.76 2278.81,-279.75"/>
<polygon fill="black" stroke="black" points="2279.16,-276.26 2268.81,-278.52 2278.31,-283.21 2279.16,-276.26"/>
</g>
<!-- Node0x5af04497d600 -->
<g id="node35" class="node">
<title>Node0x5af04497d600</title>
<polygon fill="none" stroke="black" points="5010.5,-23.5 5010.5,-59.5 5493.5,-59.5 5493.5,-23.5 5010.5,-23.5"/>
<text text-anchor="middle" x="5252" y="-37.8" font-family="Times,serif" font-size="14.00">_ZN9__gnu_cxx16__aligned_membufI11IccTagEntryE7_M_addrEv</text>
</g>
<!-- Node0x5af04497b360&#45;&gt;Node0x5af04497d600 -->
<g id="edge53" class="edge">
<title>Node0x5af04497b360&#45;&gt;Node0x5af04497d600</title>
<path fill="none" stroke="black" d="M5252,-96.31C5252,-88.29 5252,-78.55 5252,-69.57"/>
<polygon fill="black" stroke="black" points="5255.5,-69.53 5252,-59.53 5248.5,-69.53 5255.5,-69.53"/>
</g>
</g>
</svg>
