<?xml version="1.0" encoding="UTF-8" standalone="no"?>
<!DOCTYPE svg PUBLIC "-//W3C//DTD SVG 1.1//EN"
 "http://www.w3.org/Graphics/SVG/1.1/DTD/svg11.dtd">
<!-- Generated by graphviz version 2.43.0 (0)
 -->
<!-- Title: Call graph: /home/h02332/po/research/call&#45;graph/analyzer/IccAnalyzerInspect.ll Pages: 1 -->
<svg width="404pt" height="659pt"
 viewBox="0.00 0.00 404.20 659.20" xmlns="http://www.w3.org/2000/svg" xmlns:xlink="http://www.w3.org/1999/xlink">
<g id="graph0" class="graph" transform="scale(1 1) rotate(0) translate(21.6 637.6)">
<title>Call graph: /home/h02332/po/research/call&#45;graph/analyzer/IccAnalyzerInspect.ll</title>
<polygon fill="white" stroke="transparent" points="-21.6,21.6 -21.6,-637.6 382.6,-637.6 382.6,21.6 -21.6,21.6"/>
<!-- Node0x628835be67f0 -->
<g id="node1" class="node">
<title>Node0x628835be67f0</title>
<path fill="#f0f4ff" stroke="black" d="M296.5,-326C296.5,-326 234.5,-326 234.5,-326 228.5,-326 222.5,-320 222.5,-314 222.5,-314 222.5,-302 222.5,-302 222.5,-296 228.5,-290 234.5,-290 234.5,-290 296.5,-290 296.5,-290 302.5,-290 308.5,-296 308.5,-302 308.5,-302 308.5,-314 308.5,-314 308.5,-320 302.5,-326 296.5,-326"/>
<text text-anchor="middle" x="265.5" y="-305.8" font-family="Courier,monospace" font-size="9.00">PrintHexDump()</text>
</g>
<!-- Node0x628835c04920 -->
<g id="node2" class="node">
<title>Node0x628835c04920</title>
<path fill="#f0f4ff" stroke="black" d="M100,-355C100,-355 12,-355 12,-355 6,-355 0,-349 0,-343 0,-343 0,-331 0,-331 0,-325 6,-319 12,-319 12,-319 100,-319 100,-319 106,-319 112,-325 112,-331 112,-331 112,-343 112,-343 112,-349 106,-355 100,-355"/>
<text text-anchor="middle" x="56" y="-334.8" font-family="Courier,monospace" font-size="9.00">DumpProfileHeader()</text>
</g>
<!-- Node0x628835c04920&#45;&gt;Node0x628835be67f0 -->
<g id="edge3" class="edge">
<title>Node0x628835c04920&#45;&gt;Node0x628835be67f0</title>
<path fill="none" stroke="#4a6fa5" d="M112.06,-329.3C144.48,-324.77 185.1,-319.1 216.25,-314.74"/>
<polygon fill="#4a6fa5" stroke="#4a6fa5" points="216.7,-316.8 222.35,-313.89 216.12,-312.64 216.7,-316.8"/>
</g>
<!-- Node0x628835b84170 -->
<g id="node3" class="node">
<title>Node0x628835b84170</title>
<path fill="#f0f4ff" stroke="black" d="M315,-268C315,-268 216,-268 216,-268 210,-268 204,-262 204,-256 204,-256 204,-244 204,-244 204,-238 210,-232 216,-232 216,-232 315,-232 315,-232 321,-232 327,-238 327,-244 327,-244 327,-256 327,-256 327,-262 321,-268 315,-268"/>
<text text-anchor="middle" x="265.5" y="-247.8" font-family="Courier,monospace" font-size="9.00">CIccInfo::~CIccInfo()</text>
</g>
<!-- Node0x628835c04920&#45;&gt;Node0x628835b84170 -->
<g id="edge1" class="edge">
<title>Node0x628835c04920&#45;&gt;Node0x628835b84170</title>
<path fill="none" stroke="#4a6fa5" d="M91.32,-319C121.56,-303.2 162.01,-282.25 170,-279 178.95,-275.36 188.54,-271.92 198.05,-268.77"/>
<polygon fill="#4a6fa5" stroke="#4a6fa5" points="198.9,-270.7 203.95,-266.84 197.6,-266.71 198.9,-270.7"/>
</g>
<!-- Node0x628835b840f0 -->
<g id="node4" class="node">
<title>Node0x628835b840f0</title>
<path fill="#f0f4ff" stroke="black" d="M344,-558C344,-558 187,-558 187,-558 181,-558 175,-552 175,-546 175,-546 175,-534 175,-534 175,-528 181,-522 187,-522 187,-522 344,-522 344,-522 350,-522 356,-528 356,-534 356,-534 356,-546 356,-546 356,-552 350,-558 344,-558"/>
<text text-anchor="middle" x="265.5" y="-537.8" font-family="Courier,monospace" font-size="9.00">CIccInfo::GetColorSpaceSigName()</text>
</g>
<!-- Node0x628835c04920&#45;&gt;Node0x628835b840f0 -->
<g id="edge2" class="edge">
<title>Node0x628835c04920&#45;&gt;Node0x628835b840f0</title>
<path fill="none" stroke="#4a6fa5" d="M63.86,-355.27C78.09,-390.69 114.21,-468.92 170,-511 174.04,-514.05 178.4,-516.77 182.95,-519.22"/>
<polygon fill="#4a6fa5" stroke="#4a6fa5" points="182.08,-521.13 188.38,-521.96 183.97,-517.38 182.08,-521.13"/>
</g>
<!-- Node0x628835b84500 -->
<g id="node5" class="node">
<title>Node0x628835b84500</title>
<path fill="#f0f4ff" stroke="black" d="M349,-616C349,-616 182,-616 182,-616 176,-616 170,-610 170,-604 170,-604 170,-592 170,-592 170,-586 176,-580 182,-580 182,-580 349,-580 349,-580 355,-580 361,-586 361,-592 361,-592 361,-604 361,-604 361,-610 355,-616 349,-616"/>
<text text-anchor="middle" x="265.5" y="-595.8" font-family="Courier,monospace" font-size="9.00">CIccInfo::GetProfileClassSigName()</text>
</g>
<!-- Node0x628835c04920&#45;&gt;Node0x628835b84500 -->
<g id="edge4" class="edge">
<title>Node0x628835c04920&#45;&gt;Node0x628835b84500</title>
<path fill="none" stroke="#4a6fa5" d="M60.64,-355.11C70.33,-398.64 100.89,-509.88 170,-569 173.41,-571.91 177.1,-574.54 180.99,-576.89"/>
<polygon fill="#4a6fa5" stroke="#4a6fa5" points="180.15,-578.83 186.41,-579.95 182.21,-575.17 180.15,-578.83"/>
</g>
<!-- Node0x628835b84cd0 -->
<g id="node6" class="node">
<title>Node0x628835b84cd0</title>
<path fill="#f0f4ff" stroke="black" d="M312.5,-210C312.5,-210 218.5,-210 218.5,-210 212.5,-210 206.5,-204 206.5,-198 206.5,-198 206.5,-186 206.5,-186 206.5,-180 212.5,-174 218.5,-174 218.5,-174 312.5,-174 312.5,-174 318.5,-174 324.5,-180 324.5,-186 324.5,-186 324.5,-198 324.5,-198 324.5,-204 318.5,-210 312.5,-210"/>
<text text-anchor="middle" x="265.5" y="-189.8" font-family="Courier,monospace" font-size="9.00">CIccInfo::CIccInfo()</text>
</g>
<!-- Node0x628835c04920&#45;&gt;Node0x628835b84cd0 -->
<g id="edge5" class="edge">
<title>Node0x628835c04920&#45;&gt;Node0x628835b84cd0</title>
<path fill="none" stroke="#4a6fa5" d="M97.04,-318.97C102.36,-315.71 107.51,-312.05 112,-308 146.5,-276.87 132.73,-248.76 170,-221 178.94,-214.34 189.43,-209.19 200.11,-205.22"/>
<polygon fill="#4a6fa5" stroke="#4a6fa5" points="201.08,-207.1 206.05,-203.13 199.69,-203.14 201.08,-207.1"/>
</g>
<!-- Node0x628835c0af60 -->
<g id="node7" class="node">
<title>Node0x628835c0af60</title>
<path fill="#f0f4ff" stroke="black" d="M87,-297C87,-297 25,-297 25,-297 19,-297 13,-291 13,-285 13,-285 13,-273 13,-273 13,-267 19,-261 25,-261 25,-261 87,-261 87,-261 93,-261 99,-267 99,-273 99,-273 99,-285 99,-285 99,-291 93,-297 87,-297"/>
<text text-anchor="middle" x="56" y="-276.8" font-family="Courier,monospace" font-size="9.00">DumpTagTable()</text>
</g>
<!-- Node0x628835c0af60&#45;&gt;Node0x628835be67f0 -->
<g id="edge11" class="edge">
<title>Node0x628835c0af60&#45;&gt;Node0x628835be67f0</title>
<path fill="none" stroke="#4a6fa5" d="M99.24,-284.9C133.18,-289.65 180.87,-296.31 216.3,-301.26"/>
<polygon fill="#4a6fa5" stroke="#4a6fa5" points="216.09,-303.35 222.32,-302.1 216.67,-299.19 216.09,-303.35"/>
</g>
<!-- Node0x628835c0af60&#45;&gt;Node0x628835b84170 -->
<g id="edge6" class="edge">
<title>Node0x628835c0af60&#45;&gt;Node0x628835b84170</title>
<path fill="none" stroke="#4a6fa5" d="M99.24,-273.1C127.58,-269.14 165.49,-263.84 197.85,-259.31"/>
<polygon fill="#4a6fa5" stroke="#4a6fa5" points="198.18,-261.39 203.83,-258.48 197.6,-257.23 198.18,-261.39"/>
</g>
<!-- Node0x628835c0af60&#45;&gt;Node0x628835b84cd0 -->
<g id="edge12" class="edge">
<title>Node0x628835c0af60&#45;&gt;Node0x628835b84cd0</title>
<path fill="none" stroke="#4a6fa5" d="M88.44,-260.96C110.73,-248.65 141.6,-232.54 170,-221 179.79,-217.02 190.34,-213.28 200.72,-209.89"/>
<polygon fill="#4a6fa5" stroke="#4a6fa5" points="201.39,-211.88 206.46,-208.04 200.11,-207.88 201.39,-211.88"/>
</g>
<!-- Node0x628835c09890 -->
<g id="node8" class="node">
<title>Node0x628835c09890</title>
<path fill="#f0f4ff" stroke="black" d="M302,-442C302,-442 229,-442 229,-442 223,-442 217,-436 217,-430 217,-430 217,-418 217,-418 217,-412 223,-406 229,-406 229,-406 302,-406 302,-406 308,-406 314,-412 314,-418 314,-418 314,-430 314,-430 314,-436 308,-442 302,-442"/>
<text text-anchor="middle" x="265.5" y="-421.8" font-family="Courier,monospace" font-size="9.00">CIccIO::Read32()</text>
</g>
<!-- Node0x628835c0af60&#45;&gt;Node0x628835c09890 -->
<g id="edge7" class="edge">
<title>Node0x628835c0af60&#45;&gt;Node0x628835c09890</title>
<path fill="none" stroke="#4a6fa5" d="M97.04,-297.03C102.36,-300.29 107.51,-303.95 112,-308 146.5,-339.13 132.73,-367.24 170,-395 181.92,-403.88 196.6,-410.07 210.79,-414.38"/>
<polygon fill="#4a6fa5" stroke="#4a6fa5" points="210.49,-416.48 216.84,-416.11 211.65,-412.44 210.49,-416.48"/>
</g>
<!-- Node0x628835b87350 -->
<g id="node9" class="node">
<title>Node0x628835b87350</title>
<path fill="#f0f4ff" stroke="black" d="M328,-384C328,-384 203,-384 203,-384 197,-384 191,-378 191,-372 191,-372 191,-360 191,-360 191,-354 197,-348 203,-348 203,-348 328,-348 328,-348 334,-348 340,-354 340,-360 340,-360 340,-372 340,-372 340,-378 334,-384 328,-384"/>
<text text-anchor="middle" x="265.5" y="-363.8" font-family="Courier,monospace" font-size="9.00">HasNonPrintableSignature()</text>
</g>
<!-- Node0x628835c0af60&#45;&gt;Node0x628835b87350 -->
<g id="edge8" class="edge">
<title>Node0x628835c0af60&#45;&gt;Node0x628835b87350</title>
<path fill="none" stroke="#4a6fa5" d="M91.32,-297C121.56,-312.8 162.01,-333.75 170,-337 177.82,-340.18 186.11,-343.2 194.42,-346.02"/>
<polygon fill="#4a6fa5" stroke="#4a6fa5" points="193.81,-348.03 200.17,-347.93 195.14,-344.04 193.81,-348.03"/>
</g>
<!-- Node0x628835b86880 -->
<g id="node10" class="node">
<title>Node0x628835b86880</title>
<path fill="#f0f4ff" stroke="black" d="M325.5,-152C325.5,-152 205.5,-152 205.5,-152 199.5,-152 193.5,-146 193.5,-140 193.5,-140 193.5,-128 193.5,-128 193.5,-122 199.5,-116 205.5,-116 205.5,-116 325.5,-116 325.5,-116 331.5,-116 337.5,-122 337.5,-128 337.5,-128 337.5,-140 337.5,-140 337.5,-146 331.5,-152 325.5,-152"/>
<text text-anchor="middle" x="265.5" y="-131.8" font-family="Courier,monospace" font-size="9.00">CIccInfo::GetTagSigName()</text>
</g>
<!-- Node0x628835c0af60&#45;&gt;Node0x628835b86880 -->
<g id="edge9" class="edge">
<title>Node0x628835c0af60&#45;&gt;Node0x628835b86880</title>
<path fill="none" stroke="#4a6fa5" d="M69.86,-260.95C88.91,-235.49 127.05,-189.22 170,-163 175.5,-159.65 181.41,-156.65 187.5,-153.98"/>
<polygon fill="#4a6fa5" stroke="#4a6fa5" points="188.41,-155.88 193.14,-151.62 186.79,-152 188.41,-155.88"/>
</g>
<!-- Node0x628835b86ce0 -->
<g id="node11" class="node">
<title>Node0x628835b86ce0</title>
<path fill="#f0f4ff" stroke="black" d="M309.5,-500C309.5,-500 221.5,-500 221.5,-500 215.5,-500 209.5,-494 209.5,-488 209.5,-488 209.5,-476 209.5,-476 209.5,-470 215.5,-464 221.5,-464 221.5,-464 309.5,-464 309.5,-464 315.5,-464 321.5,-470 321.5,-476 321.5,-476 321.5,-488 321.5,-488 321.5,-494 315.5,-500 309.5,-500"/>
<text text-anchor="middle" x="265.5" y="-479.8" font-family="Courier,monospace" font-size="9.00">SignatureToFourCC()</text>
</g>
<!-- Node0x628835c0af60&#45;&gt;Node0x628835b86ce0 -->
<g id="edge10" class="edge">
<title>Node0x628835c0af60&#45;&gt;Node0x628835b86ce0</title>
<path fill="none" stroke="#4a6fa5" d="M99.23,-297.14C103.92,-300.3 108.32,-303.91 112,-308 158.44,-359.58 118.93,-405.99 170,-453 179.33,-461.59 191.15,-467.64 203.25,-471.89"/>
<polygon fill="#4a6fa5" stroke="#4a6fa5" points="202.84,-473.97 209.19,-473.84 204.15,-469.98 202.84,-473.97"/>
</g>
<!-- Node0x628835b857c0 -->
<g id="node12" class="node">
<title>Node0x628835b857c0</title>
<path fill="#f0f4ff" stroke="black" d="M84.5,-181C84.5,-181 27.5,-181 27.5,-181 21.5,-181 15.5,-175 15.5,-169 15.5,-169 15.5,-157 15.5,-157 15.5,-151 21.5,-145 27.5,-145 27.5,-145 84.5,-145 84.5,-145 90.5,-145 96.5,-151 96.5,-157 96.5,-157 96.5,-169 96.5,-169 96.5,-175 90.5,-181 84.5,-181"/>
<text text-anchor="middle" x="56" y="-160.8" font-family="Courier,monospace" font-size="9.00">DumpTagData()</text>
</g>
<!-- Node0x628835b857c0&#45;&gt;Node0x628835be67f0 -->
<g id="edge17" class="edge">
<title>Node0x628835b857c0&#45;&gt;Node0x628835be67f0</title>
<path fill="none" stroke="#4a6fa5" d="M69.86,-181.05C88.91,-206.51 127.05,-252.78 170,-279 183.97,-287.53 200.64,-293.72 216.06,-298.15"/>
<polygon fill="#4a6fa5" stroke="#4a6fa5" points="215.79,-300.25 222.13,-299.81 216.9,-296.2 215.79,-300.25"/>
</g>
<!-- Node0x628835b857c0&#45;&gt;Node0x628835b84170 -->
<g id="edge16" class="edge">
<title>Node0x628835b857c0&#45;&gt;Node0x628835b84170</title>
<path fill="none" stroke="#4a6fa5" d="M88.44,-181.04C110.73,-193.35 141.6,-209.46 170,-221 178.95,-224.64 188.54,-228.08 198.05,-231.23"/>
<polygon fill="#4a6fa5" stroke="#4a6fa5" points="197.6,-233.29 203.95,-233.16 198.9,-229.3 197.6,-233.29"/>
</g>
<!-- Node0x628835b857c0&#45;&gt;Node0x628835b84cd0 -->
<g id="edge14" class="edge">
<title>Node0x628835b857c0&#45;&gt;Node0x628835b84cd0</title>
<path fill="none" stroke="#4a6fa5" d="M96.52,-168.52C125.74,-172.61 166.17,-178.26 200.05,-182.99"/>
<polygon fill="#4a6fa5" stroke="#4a6fa5" points="200.06,-185.11 206.29,-183.87 200.64,-180.95 200.06,-185.11"/>
</g>
<!-- Node0x628835b857c0&#45;&gt;Node0x628835b86880 -->
<g id="edge15" class="edge">
<title>Node0x628835b857c0&#45;&gt;Node0x628835b86880</title>
<path fill="none" stroke="#4a6fa5" d="M96.52,-157.48C122.09,-153.9 156.25,-149.13 187.09,-144.82"/>
<polygon fill="#4a6fa5" stroke="#4a6fa5" points="187.56,-146.87 193.21,-143.96 186.98,-142.71 187.56,-146.87"/>
</g>
<!-- Node0x628835b87590 -->
<g id="node13" class="node">
<title>Node0x628835b87590</title>
<path fill="#f0f4ff" stroke="black" d="M317.5,-36C317.5,-36 213.5,-36 213.5,-36 207.5,-36 201.5,-30 201.5,-24 201.5,-24 201.5,-12 201.5,-12 201.5,-6 207.5,0 213.5,0 213.5,0 317.5,0 317.5,0 323.5,0 329.5,-6 329.5,-12 329.5,-12 329.5,-24 329.5,-24 329.5,-30 323.5,-36 317.5,-36"/>
<text text-anchor="middle" x="265.5" y="-15.8" font-family="Courier,monospace" font-size="9.00">CIccProfile::FindTag()</text>
</g>
<!-- Node0x628835b857c0&#45;&gt;Node0x628835b87590 -->
<g id="edge13" class="edge">
<title>Node0x628835b857c0&#45;&gt;Node0x628835b87590</title>
<path fill="none" stroke="#4a6fa5" d="M69.86,-144.95C88.91,-119.49 127.05,-73.22 170,-47 177.81,-42.23 186.47,-38.19 195.28,-34.78"/>
<polygon fill="#4a6fa5" stroke="#4a6fa5" points="196.19,-36.69 201.08,-32.63 194.73,-32.75 196.19,-36.69"/>
</g>
<!-- Node0x628835b88ce0 -->
<g id="node14" class="node">
<title>Node0x628835b88ce0</title>
<path fill="#f0f4ff" stroke="black" d="M336,-94C336,-94 195,-94 195,-94 189,-94 183,-88 183,-82 183,-82 183,-70 183,-70 183,-64 189,-58 195,-58 195,-58 336,-58 336,-58 342,-58 348,-64 348,-70 348,-70 348,-82 348,-82 348,-88 342,-94 336,-94"/>
<text text-anchor="middle" x="265.5" y="-73.8" font-family="Courier,monospace" font-size="9.00">CIccInfo::GetTagTypeSigName()</text>
</g>
<!-- Node0x628835b857c0&#45;&gt;Node0x628835b88ce0 -->
<g id="edge18" class="edge">
<title>Node0x628835b857c0&#45;&gt;Node0x628835b88ce0</title>
<path fill="none" stroke="#4a6fa5" d="M88.44,-144.96C110.73,-132.65 141.6,-116.54 170,-105 177.82,-101.82 186.11,-98.8 194.42,-95.98"/>
<polygon fill="#4a6fa5" stroke="#4a6fa5" points="195.14,-97.96 200.17,-94.07 193.81,-93.97 195.14,-97.96"/>
</g>
</g>
</svg>
