<?xml version="1.0" encoding="UTF-8" standalone="no"?>
<!DOCTYPE svg PUBLIC "-//W3C//DTD SVG 1.1//EN"
 "http://www.w3.org/Graphics/SVG/1.1/DTD/svg11.dtd">
<!-- Generated by graphviz version 2.43.0 (0)
 -->
<!-- Title: Call graph: /home/h02332/po/research/call&#45;graph/analyzer/IccAnalyzerConfig.ll Pages: 1 -->
<svg width="4323pt" height="14400pt"
 viewBox="0.00 0.00 4323.46 14400.00" xmlns="http://www.w3.org/2000/svg" xmlns:xlink="http://www.w3.org/1999/xlink">
<g id="graph0" class="graph" transform="scale(1.82 1.82) rotate(0) translate(36 7861)">
<title>Call graph: /home/h02332/po/research/call&#45;graph/analyzer/IccAnalyzerConfig.ll</title>
<polygon fill="white" stroke="transparent" points="-36,36 -36,-7861 2335,-7861 2335,36 -36,36"/>
<!-- Node0x5fb4f6b1adf0 -->
<g id="node1" class="node">
<title>Node0x5fb4f6b1adf0</title>
<path fill="#f0f4ff" stroke="black" d="M292,-544C292,-544 228,-544 228,-544 222,-544 216,-538 216,-532 216,-532 216,-520 216,-520 216,-514 222,-508 228,-508 228,-508 292,-508 292,-508 298,-508 304,-514 304,-520 304,-520 304,-532 304,-532 304,-538 298,-544 292,-544"/>
<text text-anchor="middle" x="260" y="-523.8" font-family="Courier,monospace" font-size="9.00">{LoadConfig()}</text>
</g>
<!-- Node0x5fb4f6b1ae80 -->
<g id="node2" class="node">
<title>Node0x5fb4f6b1ae80</title>
<path fill="#f0f4ff" stroke="black" d="M601.5,-798C601.5,-798 571.5,-798 571.5,-798 565.5,-798 559.5,-792 559.5,-786 559.5,-786 559.5,-774 559.5,-774 559.5,-768 565.5,-762 571.5,-762 571.5,-762 601.5,-762 601.5,-762 607.5,-762 613.5,-768 613.5,-774 613.5,-774 613.5,-786 613.5,-786 613.5,-792 607.5,-798 601.5,-798"/>
<text text-anchor="middle" x="586.5" y="-777.8" font-family="Courier,monospace" font-size="9.00">{fopen}</text>
</g>
<!-- Node0x5fb4f6b1adf0&#45;&gt;Node0x5fb4f6b1ae80 -->
<g id="edge1" class="edge">
<title>Node0x5fb4f6b1adf0&#45;&gt;Node0x5fb4f6b1ae80</title>
<path fill="none" stroke="#4a6fa5" d="M265.72,-544C278.03,-587.15 315.49,-696.66 390,-748 438.76,-781.6 510.35,-784.48 552.02,-782.76"/>
<polygon fill="#4a6fa5" stroke="#4a6fa5" points="552.32,-785.2 559.19,-782.41 552.08,-780.31 552.32,-785.2"/>
</g>
<!-- Node0x5fb4f6b1fe00 -->
<g id="node3" class="node">
<title>Node0x5fb4f6b1fe00</title>
<path fill="#f0f4ff" stroke="black" d="M726,-733C726,-733 447,-733 447,-733 441,-733 435,-727 435,-721 435,-721 435,-709 435,-709 435,-703 441,-697 447,-697 447,-697 726,-697 726,-697 732,-697 738,-703 738,-709 738,-709 738,-721 738,-721 738,-727 732,-733 726,-733"/>
<text text-anchor="middle" x="586.5" y="-712.8" font-family="Courier,monospace" font-size="9.00">{basic_string&lt;char, std::char_traits &gt;::basic_string()}</text>
</g>
<!-- Node0x5fb4f6b1adf0&#45;&gt;Node0x5fb4f6b1fe00 -->
<g id="edge2" class="edge">
<title>Node0x5fb4f6b1adf0&#45;&gt;Node0x5fb4f6b1fe00</title>
<path fill="none" stroke="#4a6fa5" d="M270.15,-544.19C288.09,-577.78 331.31,-649.19 390,-683 401.8,-689.8 414.63,-695.26 427.88,-699.63"/>
<polygon fill="#4a6fa5" stroke="#4a6fa5" points="427.44,-702.06 434.85,-701.82 428.91,-697.39 427.44,-702.06"/>
</g>
<!-- Node0x5fb4f6b1fe90 -->
<g id="node4" class="node">
<title>Node0x5fb4f6b1fe90</title>
<path fill="#f0f4ff" stroke="black" d="M601.5,-668C601.5,-668 571.5,-668 571.5,-668 565.5,-668 559.5,-662 559.5,-656 559.5,-656 559.5,-644 559.5,-644 559.5,-638 565.5,-632 571.5,-632 571.5,-632 601.5,-632 601.5,-632 607.5,-632 613.5,-638 613.5,-644 613.5,-644 613.5,-656 613.5,-656 613.5,-662 607.5,-668 601.5,-668"/>
<text text-anchor="middle" x="586.5" y="-647.8" font-family="Courier,monospace" font-size="9.00">{fgets}</text>
</g>
<!-- Node0x5fb4f6b1adf0&#45;&gt;Node0x5fb4f6b1fe90 -->
<g id="edge3" class="edge">
<title>Node0x5fb4f6b1adf0&#45;&gt;Node0x5fb4f6b1fe90</title>
<path fill="none" stroke="#4a6fa5" d="M283.3,-544.3C307.92,-563.56 349.45,-593.36 390,-610 444.31,-632.29 512.38,-642.6 552.2,-647.02"/>
<polygon fill="#4a6fa5" stroke="#4a6fa5" points="552.07,-649.47 559.29,-647.78 552.59,-644.6 552.07,-649.47"/>
</g>
<!-- Node0x5fb4f6b26650 -->
<g id="node5" class="node">
<title>Node0x5fb4f6b26650</title>
<path fill="#f0f4ff" stroke="black" d="M708,-993C708,-993 465,-993 465,-993 459,-993 453,-987 453,-981 453,-981 453,-969 453,-969 453,-963 459,-957 465,-957 465,-957 708,-957 708,-957 714,-957 720,-963 720,-969 720,-969 720,-981 720,-981 720,-987 714,-993 708,-993"/>
<text text-anchor="middle" x="586.5" y="-972.8" font-family="Courier,monospace" font-size="9.00">{char_traits &gt;::basic_string&lt;std::allocator &gt;()}</text>
</g>
<!-- Node0x5fb4f6b1adf0&#45;&gt;Node0x5fb4f6b26650 -->
<g id="edge4" class="edge">
<title>Node0x5fb4f6b1adf0&#45;&gt;Node0x5fb4f6b26650</title>
<path fill="none" stroke="#4a6fa5" d="M260.44,-544.11C259.5,-609.44 265.71,-834.75 390,-943 405.9,-956.85 425.4,-965.9 445.87,-971.66"/>
<polygon fill="#4a6fa5" stroke="#4a6fa5" points="445.45,-974.08 452.84,-973.49 446.69,-969.34 445.45,-974.08"/>
</g>
<!-- Node0x5fb4f6b264e0 -->
<g id="node6" class="node">
<title>Node0x5fb4f6b264e0</title>
<path fill="#f0f4ff" stroke="black" d="M603,-296C603,-296 570,-296 570,-296 564,-296 558,-290 558,-284 558,-284 558,-272 558,-272 558,-266 564,-260 570,-260 570,-260 603,-260 603,-260 609,-260 615,-266 615,-272 615,-272 615,-284 615,-284 615,-290 609,-296 603,-296"/>
<text text-anchor="middle" x="586.5" y="-275.8" font-family="Courier,monospace" font-size="9.00">{Trim()}</text>
</g>
<!-- Node0x5fb4f6b1adf0&#45;&gt;Node0x5fb4f6b264e0 -->
<g id="edge5" class="edge">
<title>Node0x5fb4f6b1adf0&#45;&gt;Node0x5fb4f6b264e0</title>
<path fill="none" stroke="#4a6fa5" d="M289.52,-507.81C294.74,-503.68 299.84,-499.01 304,-494 359.6,-427.01 321.17,-371.31 390,-318 436.86,-281.7 508.41,-276.06 550.72,-276.3"/>
<polygon fill="#4a6fa5" stroke="#4a6fa5" points="550.72,-278.75 557.76,-276.4 550.79,-273.85 550.72,-278.75"/>
</g>
<!-- Node0x5fb4f6b26360 -->
<g id="node7" class="node">
<title>Node0x5fb4f6b26360</title>
<path fill="#f0f4ff" stroke="black" d="M729,-231C729,-231 444,-231 444,-231 438,-231 432,-225 432,-219 432,-219 432,-207 432,-207 432,-201 438,-195 444,-195 444,-195 729,-195 729,-195 735,-195 741,-201 741,-207 741,-207 741,-219 741,-219 741,-225 735,-231 729,-231"/>
<text text-anchor="middle" x="586.5" y="-210.8" font-family="Courier,monospace" font-size="9.00">{basic_string&lt;char, std::char_traits &gt;::~basic_string()}</text>
</g>
<!-- Node0x5fb4f6b1adf0&#45;&gt;Node0x5fb4f6b26360 -->
<g id="edge6" class="edge">
<title>Node0x5fb4f6b1adf0&#45;&gt;Node0x5fb4f6b26360</title>
<path fill="none" stroke="#4a6fa5" d="M290.46,-507.83C295.47,-503.75 300.26,-499.1 304,-494 372.96,-399.9 300.93,-321.34 390,-246 400.41,-237.2 412.27,-230.33 424.89,-225.01"/>
<polygon fill="#4a6fa5" stroke="#4a6fa5" points="425.96,-227.22 431.56,-222.36 424.15,-222.66 425.96,-227.22"/>
</g>
<!-- Node0x5fb4f6b254d0 -->
<g id="node8" class="node">
<title>Node0x5fb4f6b254d0</title>
<path fill="#f0f4ff" stroke="black" d="M1655.5,-604C1655.5,-604 1412.5,-604 1412.5,-604 1406.5,-604 1400.5,-598 1400.5,-592 1400.5,-592 1400.5,-580 1400.5,-580 1400.5,-574 1406.5,-568 1412.5,-568 1412.5,-568 1655.5,-568 1655.5,-568 1661.5,-568 1667.5,-574 1667.5,-580 1667.5,-580 1667.5,-592 1667.5,-592 1667.5,-598 1661.5,-604 1655.5,-604"/>
<text text-anchor="middle" x="1534" y="-583.8" font-family="Courier,monospace" font-size="9.00">{std::__new_allocator&lt;char&gt;::~__new_allocator()}</text>
</g>
<!-- Node0x5fb4f6b1adf0&#45;&gt;Node0x5fb4f6b254d0 -->
<g id="edge7" class="edge">
<title>Node0x5fb4f6b1adf0&#45;&gt;Node0x5fb4f6b254d0</title>
<path fill="none" stroke="#4a6fa5" d="M304.1,-539.64C328.94,-546.84 360.92,-554.99 390,-559 748.71,-608.46 1176.61,-601.14 1392.93,-592.85"/>
<polygon fill="#4a6fa5" stroke="#4a6fa5" points="1393.32,-595.28 1400.22,-592.57 1393.13,-590.39 1393.32,-595.28"/>
</g>
<!-- Node0x5fb4f6b26bf0 -->
<g id="node9" class="node">
<title>Node0x5fb4f6b26bf0</title>
<path fill="#f0f4ff" stroke="black" d="M708,-166C708,-166 465,-166 465,-166 459,-166 453,-160 453,-154 453,-154 453,-142 453,-142 453,-136 459,-130 465,-130 465,-130 708,-130 708,-130 714,-130 720,-136 720,-142 720,-142 720,-154 720,-154 720,-160 714,-166 708,-166"/>
<text text-anchor="middle" x="586.5" y="-145.8" font-family="Courier,monospace" font-size="9.00">{basic_string&lt;char, std::char_traits &gt;::empty()}</text>
</g>
<!-- Node0x5fb4f6b1adf0&#45;&gt;Node0x5fb4f6b26bf0 -->
<g id="edge8" class="edge">
<title>Node0x5fb4f6b1adf0&#45;&gt;Node0x5fb4f6b26bf0</title>
<path fill="none" stroke="#4a6fa5" d="M291.17,-507.66C296,-503.65 300.53,-499.07 304,-494 385.41,-374.9 282.97,-277.74 390,-181 405.77,-166.74 425.32,-157.45 445.89,-151.54"/>
<polygon fill="#4a6fa5" stroke="#4a6fa5" points="446.77,-153.84 452.9,-149.67 445.51,-149.11 446.77,-153.84"/>
</g>
<!-- Node0x5fb4f6b26a60 -->
<g id="node10" class="node">
<title>Node0x5fb4f6b26a60</title>
<path fill="#f0f4ff" stroke="black" d="M768,-101C768,-101 405,-101 405,-101 399,-101 393,-95 393,-89 393,-89 393,-77 393,-77 393,-71 399,-65 405,-65 405,-65 768,-65 768,-65 774,-65 780,-71 780,-77 780,-77 780,-89 780,-89 780,-95 774,-101 768,-101"/>
<text text-anchor="middle" x="586.5" y="-80.8" font-family="Courier,monospace" font-size="9.00">{std::basic_string&lt;char, std::char_traits &gt;::operator[](unsigned long)}</text>
</g>
<!-- Node0x5fb4f6b1adf0&#45;&gt;Node0x5fb4f6b26a60 -->
<g id="edge9" class="edge">
<title>Node0x5fb4f6b1adf0&#45;&gt;Node0x5fb4f6b26a60</title>
<path fill="none" stroke="#4a6fa5" d="M291.36,-507.79C296.17,-503.77 300.65,-499.15 304,-494 398.04,-349.63 264.78,-234.34 390,-116 394.22,-112.01 398.74,-108.4 403.49,-105.15"/>
<polygon fill="#4a6fa5" stroke="#4a6fa5" points="405.06,-107.05 409.63,-101.2 402.41,-102.92 405.06,-107.05"/>
</g>
<!-- Node0x5fb4f6b27700 -->
<g id="node11" class="node">
<title>Node0x5fb4f6b27700</title>
<path fill="#f0f4ff" stroke="black" d="M603,-36C603,-36 570,-36 570,-36 564,-36 558,-30 558,-24 558,-24 558,-12 558,-12 558,-6 564,0 570,0 570,0 603,0 603,0 609,0 615,-6 615,-12 615,-12 615,-24 615,-24 615,-30 609,-36 603,-36"/>
<text text-anchor="middle" x="586.5" y="-15.8" font-family="Courier,monospace" font-size="9.00">{fclose}</text>
</g>
<!-- Node0x5fb4f6b1adf0&#45;&gt;Node0x5fb4f6b27700 -->
<g id="edge10" class="edge">
<title>Node0x5fb4f6b1adf0&#45;&gt;Node0x5fb4f6b27700</title>
<path fill="none" stroke="#4a6fa5" d="M291.5,-507.88C296.29,-503.84 300.73,-499.2 304,-494 410.77,-324.22 246.45,-191.07 390,-51 432.71,-9.33 507.22,-8.96 550.88,-13.07"/>
<polygon fill="#4a6fa5" stroke="#4a6fa5" points="550.66,-15.51 557.87,-13.79 551.16,-10.63 550.66,-15.51"/>
</g>
<!-- Node0x5fb4f6ab0070 -->
<g id="node12" class="node">
<title>Node0x5fb4f6ab0070</title>
<path fill="#f0f4ff" stroke="black" d="M771,-479C771,-479 402,-479 402,-479 396,-479 390,-473 390,-467 390,-467 390,-455 390,-455 390,-449 396,-443 402,-443 402,-443 771,-443 771,-443 777,-443 783,-449 783,-455 783,-455 783,-467 783,-467 783,-473 777,-479 771,-479"/>
<text text-anchor="middle" x="586.5" y="-458.8" font-family="Courier,monospace" font-size="9.00">{bool std::operator==&lt;char, std::char_traits &gt;(std::basic_string&lt;cha...}</text>
</g>
<!-- Node0x5fb4f6b1adf0&#45;&gt;Node0x5fb4f6ab0070 -->
<g id="edge11" class="edge">
<title>Node0x5fb4f6b1adf0&#45;&gt;Node0x5fb4f6ab0070</title>
<path fill="none" stroke="#4a6fa5" d="M304.11,-514.44C329.09,-507.96 361.2,-499.99 390,-494 413.46,-489.12 438.63,-484.45 462.83,-480.24"/>
<polygon fill="#4a6fa5" stroke="#4a6fa5" points="463.48,-482.61 469.96,-479.01 462.65,-477.78 463.48,-482.61"/>
</g>
<!-- Node0x5fb4f6aafbf0 -->
<g id="node13" class="node">
<title>Node0x5fb4f6aafbf0</title>
<path fill="#f0f4ff" stroke="black" d="M771,-928C771,-928 402,-928 402,-928 396,-928 390,-922 390,-916 390,-916 390,-904 390,-904 390,-898 396,-892 402,-892 402,-892 771,-892 771,-892 777,-892 783,-898 783,-904 783,-904 783,-916 783,-916 783,-922 777,-928 771,-928"/>
<text text-anchor="middle" x="586.5" y="-907.8" font-family="Courier,monospace" font-size="9.00">{std::basic_string&lt;char, std::char_traits &gt;::operator=(std::basic_st...}</text>
</g>
<!-- Node0x5fb4f6b1adf0&#45;&gt;Node0x5fb4f6aafbf0 -->
<g id="edge12" class="edge">
<title>Node0x5fb4f6b1adf0&#45;&gt;Node0x5fb4f6aafbf0</title>
<path fill="none" stroke="#4a6fa5" d="M261.61,-544.15C264.63,-602.9 282.66,-789.25 390,-878 394.67,-881.86 399.62,-885.34 404.79,-888.47"/>
<polygon fill="#4a6fa5" stroke="#4a6fa5" points="403.67,-890.65 410.96,-892 406.1,-886.4 403.67,-890.65"/>
</g>
<!-- Node0x5fb4f6aaf770 -->
<g id="node14" class="node">
<title>Node0x5fb4f6aaf770</title>
<path fill="#f0f4ff" stroke="black" d="M1189.5,-349C1189.5,-349 941.5,-349 941.5,-349 935.5,-349 929.5,-343 929.5,-337 929.5,-337 929.5,-325 929.5,-325 929.5,-319 935.5,-313 941.5,-313 941.5,-313 1189.5,-313 1189.5,-313 1195.5,-313 1201.5,-319 1201.5,-325 1201.5,-325 1201.5,-337 1201.5,-337 1201.5,-343 1195.5,-349 1189.5,-349"/>
<text text-anchor="middle" x="1065.5" y="-328.8" font-family="Courier,monospace" font-size="9.00">{basic_string&lt;char, std::char_traits &gt;::substr()}</text>
</g>
<!-- Node0x5fb4f6b1adf0&#45;&gt;Node0x5fb4f6aaf770 -->
<g id="edge13" class="edge">
<title>Node0x5fb4f6b1adf0&#45;&gt;Node0x5fb4f6aaf770</title>
<path fill="none" stroke="#4a6fa5" d="M285.58,-507.76C291.61,-503.27 298.04,-498.47 304,-494 342.33,-465.25 345.79,-447.47 390,-429 438.07,-408.92 739.21,-370.09 922.48,-347.81"/>
<polygon fill="#4a6fa5" stroke="#4a6fa5" points="922.84,-350.23 929.49,-346.96 922.25,-345.37 922.84,-350.23"/>
</g>
<!-- Node0x5fb4f6aafeb0 -->
<g id="node15" class="node">
<title>Node0x5fb4f6aafeb0</title>
<path fill="#f0f4ff" stroke="black" d="M1189.5,-284C1189.5,-284 941.5,-284 941.5,-284 935.5,-284 929.5,-278 929.5,-272 929.5,-272 929.5,-260 929.5,-260 929.5,-254 935.5,-248 941.5,-248 941.5,-248 1189.5,-248 1189.5,-248 1195.5,-248 1201.5,-254 1201.5,-260 1201.5,-260 1201.5,-272 1201.5,-272 1201.5,-278 1195.5,-284 1189.5,-284"/>
<text text-anchor="middle" x="1065.5" y="-263.8" font-family="Courier,monospace" font-size="9.00">{basic_string&lt;char, std::char_traits &gt;::length()}</text>
</g>
<!-- Node0x5fb4f6b1adf0&#45;&gt;Node0x5fb4f6aafeb0 -->
<g id="edge14" class="edge">
<title>Node0x5fb4f6b1adf0&#45;&gt;Node0x5fb4f6aafeb0</title>
<path fill="none" stroke="#4a6fa5" d="M288.64,-507.77C294.04,-503.58 299.44,-498.91 304,-494 352.45,-441.9 329.82,-396.94 390,-359 464.42,-312.07 695.88,-323.28 783,-311 838.23,-303.22 899.39,-293.56 950.55,-285.2"/>
<polygon fill="#4a6fa5" stroke="#4a6fa5" points="951.19,-287.58 957.7,-284.03 950.4,-282.74 951.19,-287.58"/>
</g>
<!-- Node0x5fb4f6ab0560 -->
<g id="node16" class="node">
<title>Node0x5fb4f6ab0560</title>
<path fill="#f0f4ff" stroke="black" d="M705,-863C705,-863 468,-863 468,-863 462,-863 456,-857 456,-851 456,-851 456,-839 456,-839 456,-833 462,-827 468,-827 468,-827 705,-827 705,-827 711,-827 717,-833 717,-839 717,-839 717,-851 717,-851 717,-857 711,-863 705,-863"/>
<text text-anchor="middle" x="586.5" y="-842.8" font-family="Courier,monospace" font-size="9.00">{basic_string&lt;char, std::char_traits &gt;::find()}</text>
</g>
<!-- Node0x5fb4f6b1adf0&#45;&gt;Node0x5fb4f6ab0560 -->
<g id="edge15" class="edge">
<title>Node0x5fb4f6b1adf0&#45;&gt;Node0x5fb4f6ab0560</title>
<path fill="none" stroke="#4a6fa5" d="M263.24,-544.06C270.64,-595.46 299.26,-743.26 390,-813 407.16,-826.19 427.7,-834.83 448.92,-840.36"/>
<polygon fill="#4a6fa5" stroke="#4a6fa5" points="448.45,-842.77 455.83,-842.05 449.61,-838.01 448.45,-842.77"/>
</g>
<!-- Node0x5fb4f6b27140 -->
<g id="node17" class="node">
<title>Node0x5fb4f6b27140</title>
<path fill="#f0f4ff" stroke="black" d="M771,-544C771,-544 402,-544 402,-544 396,-544 390,-538 390,-532 390,-532 390,-520 390,-520 390,-514 396,-508 402,-508 402,-508 771,-508 771,-508 777,-508 783,-514 783,-520 783,-520 783,-532 783,-532 783,-538 777,-544 771,-544"/>
<text text-anchor="middle" x="586.5" y="-523.8" font-family="Courier,monospace" font-size="9.00">{std::basic_string&lt;char, std::char_traits &gt;::operator=(std::basic_st...}</text>
</g>
<!-- Node0x5fb4f6b1adf0&#45;&gt;Node0x5fb4f6b27140 -->
<g id="edge16" class="edge">
<title>Node0x5fb4f6b1adf0&#45;&gt;Node0x5fb4f6b27140</title>
<path fill="none" stroke="#4a6fa5" d="M304.09,-526C325.56,-526 353.23,-526 382.81,-526"/>
<polygon fill="#4a6fa5" stroke="#4a6fa5" points="382.96,-528.45 389.96,-526 382.96,-523.55 382.96,-528.45"/>
</g>
<!-- Node0x5fb4f6ab02b0 -->
<g id="node25" class="node">
<title>Node0x5fb4f6ab02b0</title>
<path fill="#f0f4ff" stroke="black" d="M1208,-994C1208,-994 923,-994 923,-994 917,-994 911,-988 911,-982 911,-982 911,-970 911,-970 911,-964 917,-958 923,-958 923,-958 1208,-958 1208,-958 1214,-958 1220,-964 1220,-970 1220,-970 1220,-982 1220,-982 1220,-988 1214,-994 1208,-994"/>
<text text-anchor="middle" x="1065.5" y="-973.8" font-family="Courier,monospace" font-size="9.00">{basic_string&lt;char, std::char_traits &gt;::_M_local_data()}</text>
</g>
<!-- Node0x5fb4f6b26650&#45;&gt;Node0x5fb4f6ab02b0 -->
<g id="edge22" class="edge">
<title>Node0x5fb4f6b26650&#45;&gt;Node0x5fb4f6ab02b0</title>
<path fill="none" stroke="#4a6fa5" d="M720.05,-975.28C776.88,-975.4 843.78,-975.54 903.43,-975.66"/>
<polygon fill="#4a6fa5" stroke="#4a6fa5" points="903.66,-978.11 910.66,-975.68 903.67,-973.21 903.66,-978.11"/>
</g>
<!-- Node0x5fb4f6b27f40 -->
<g id="node26" class="node">
<title>Node0x5fb4f6b27f40</title>
<path fill="#f0f4ff" stroke="black" d="M1179,-1124C1179,-1124 952,-1124 952,-1124 946,-1124 940,-1118 940,-1112 940,-1112 940,-1100 940,-1100 940,-1094 946,-1088 952,-1088 952,-1088 1179,-1088 1179,-1088 1185,-1088 1191,-1094 1191,-1100 1191,-1100 1191,-1112 1191,-1112 1191,-1118 1185,-1124 1179,-1124"/>
<text text-anchor="middle" x="1065.5" y="-1103.8" font-family="Courier,monospace" font-size="9.00">{char_traits &gt;::_Alloc_hider::_Alloc_hider()}</text>
</g>
<!-- Node0x5fb4f6b26650&#45;&gt;Node0x5fb4f6b27f40 -->
<g id="edge23" class="edge">
<title>Node0x5fb4f6b26650&#45;&gt;Node0x5fb4f6b27f40</title>
<path fill="none" stroke="#4a6fa5" d="M631.13,-993.05C685.84,-1015.05 782.92,-1052 869,-1074 889.52,-1079.24 911.48,-1083.82 933,-1087.74"/>
<polygon fill="#4a6fa5" stroke="#4a6fa5" points="932.65,-1090.16 939.97,-1088.99 933.52,-1085.34 932.65,-1090.16"/>
</g>
<!-- Node0x5fb4f6ab0db0 -->
<g id="node27" class="node">
<title>Node0x5fb4f6ab0db0</title>
<path fill="#f0f4ff" stroke="black" d="M1134.5,-1059C1134.5,-1059 996.5,-1059 996.5,-1059 990.5,-1059 984.5,-1053 984.5,-1047 984.5,-1047 984.5,-1035 984.5,-1035 984.5,-1029 990.5,-1023 996.5,-1023 996.5,-1023 1134.5,-1023 1134.5,-1023 1140.5,-1023 1146.5,-1029 1146.5,-1035 1146.5,-1035 1146.5,-1047 1146.5,-1047 1146.5,-1053 1140.5,-1059 1134.5,-1059"/>
<text text-anchor="middle" x="1065.5" y="-1038.8" font-family="Courier,monospace" font-size="9.00">{std::__throw_logic_error()}</text>
</g>
<!-- Node0x5fb4f6b26650&#45;&gt;Node0x5fb4f6ab0db0 -->
<g id="edge24" class="edge">
<title>Node0x5fb4f6b26650&#45;&gt;Node0x5fb4f6ab0db0</title>
<path fill="none" stroke="#4a6fa5" d="M717.84,-993.03C800.25,-1004.44 904.51,-1018.86 977.06,-1028.9"/>
<polygon fill="#4a6fa5" stroke="#4a6fa5" points="977.16,-1031.39 984.43,-1029.92 977.83,-1026.53 977.16,-1031.39"/>
</g>
<!-- Node0x5fb4f6b27c80 -->
<g id="node28" class="node">
<title>Node0x5fb4f6b27c80</title>
<path fill="#f0f4ff" stroke="black" d="M1181.5,-734C1181.5,-734 949.5,-734 949.5,-734 943.5,-734 937.5,-728 937.5,-722 937.5,-722 937.5,-710 937.5,-710 937.5,-704 943.5,-698 949.5,-698 949.5,-698 1181.5,-698 1181.5,-698 1187.5,-698 1193.5,-704 1193.5,-710 1193.5,-710 1193.5,-722 1193.5,-722 1193.5,-728 1187.5,-734 1181.5,-734"/>
<text text-anchor="middle" x="1065.5" y="-713.8" font-family="Courier,monospace" font-size="9.00">{char_traits &gt;::_Alloc_hider::~_Alloc_hider()}</text>
</g>
<!-- Node0x5fb4f6b26650&#45;&gt;Node0x5fb4f6b27c80 -->
<g id="edge25" class="edge">
<title>Node0x5fb4f6b26650&#45;&gt;Node0x5fb4f6b27c80</title>
<path fill="none" stroke="#4a6fa5" d="M720.21,-968.37C742.36,-963.13 764.21,-955.11 783,-943 840.92,-905.67 817.37,-859.63 869,-814 908.7,-778.92 963.2,-752.97 1004.58,-736.61"/>
<polygon fill="#4a6fa5" stroke="#4a6fa5" points="1005.47,-738.89 1011.1,-734.07 1003.69,-734.33 1005.47,-738.89"/>
</g>
<!-- Node0x5fb4f6ab15d0 -->
<g id="node29" class="node">
<title>Node0x5fb4f6ab15d0</title>
<path fill="#f0f4ff" stroke="black" d="M1150,-929C1150,-929 981,-929 981,-929 975,-929 969,-923 969,-917 969,-917 969,-905 969,-905 969,-899 975,-893 981,-893 981,-893 1150,-893 1150,-893 1156,-893 1162,-899 1162,-905 1162,-905 1162,-917 1162,-917 1162,-923 1156,-929 1150,-929"/>
<text text-anchor="middle" x="1065.5" y="-908.8" font-family="Courier,monospace" font-size="9.00">{std::char_traits&lt;char&gt;::length()}</text>
</g>
<!-- Node0x5fb4f6b26650&#45;&gt;Node0x5fb4f6ab15d0 -->
<g id="edge26" class="edge">
<title>Node0x5fb4f6b26650&#45;&gt;Node0x5fb4f6ab15d0</title>
<path fill="none" stroke="#4a6fa5" d="M720.05,-957.21C796.42,-946.97 890.97,-934.28 961.67,-924.8"/>
<polygon fill="#4a6fa5" stroke="#4a6fa5" points="962.26,-927.19 968.87,-923.83 961.61,-922.33 962.26,-927.19"/>
</g>
<!-- Node0x5fb4f6ab1ac0 -->
<g id="node30" class="node">
<title>Node0x5fb4f6ab1ac0</title>
<path fill="#f0f4ff" stroke="black" d="M1239.5,-864C1239.5,-864 891.5,-864 891.5,-864 885.5,-864 879.5,-858 879.5,-852 879.5,-852 879.5,-840 879.5,-840 879.5,-834 885.5,-828 891.5,-828 891.5,-828 1239.5,-828 1239.5,-828 1245.5,-828 1251.5,-834 1251.5,-840 1251.5,-840 1251.5,-852 1251.5,-852 1251.5,-858 1245.5,-864 1239.5,-864"/>
<text text-anchor="middle" x="1065.5" y="-843.8" font-family="Courier,monospace" font-size="9.00">{basic_string&lt;char, std::char_traits &gt;::_M_construct&lt;char const*&gt;()}</text>
</g>
<!-- Node0x5fb4f6b26650&#45;&gt;Node0x5fb4f6ab1ac0 -->
<g id="edge27" class="edge">
<title>Node0x5fb4f6b26650&#45;&gt;Node0x5fb4f6ab1ac0</title>
<path fill="none" stroke="#4a6fa5" d="M720.07,-962.12C741.6,-957.54 763.29,-951.36 783,-943 826.87,-924.4 825.18,-897.71 869,-879 881,-873.88 893.72,-869.55 906.71,-865.89"/>
<polygon fill="#4a6fa5" stroke="#4a6fa5" points="907.4,-868.24 913.51,-864.04 906.12,-863.51 907.4,-868.24"/>
</g>
<!-- Node0x5fb4f6b264e0&#45;&gt;Node0x5fb4f6aaf770 -->
<g id="edge21" class="edge">
<title>Node0x5fb4f6b264e0&#45;&gt;Node0x5fb4f6aaf770</title>
<path fill="none" stroke="#4a6fa5" d="M615.21,-281.08C673.82,-287.59 813.87,-303.15 922.16,-315.18"/>
<polygon fill="#4a6fa5" stroke="#4a6fa5" points="922.01,-317.63 929.24,-315.97 922.56,-312.76 922.01,-317.63"/>
</g>
<!-- Node0x5fb4f6b264e0&#45;&gt;Node0x5fb4f6aafeb0 -->
<g id="edge18" class="edge">
<title>Node0x5fb4f6b264e0&#45;&gt;Node0x5fb4f6aafeb0</title>
<path fill="none" stroke="#4a6fa5" d="M615.21,-277.3C673.82,-275.83 813.87,-272.31 922.16,-269.58"/>
<polygon fill="#4a6fa5" stroke="#4a6fa5" points="922.31,-272.03 929.24,-269.4 922.18,-267.13 922.31,-272.03"/>
</g>
<!-- Node0x5fb4f6b27490 -->
<g id="node23" class="node">
<title>Node0x5fb4f6b27490</title>
<path fill="#f0f4ff" stroke="black" d="M1250,-154C1250,-154 881,-154 881,-154 875,-154 869,-148 869,-142 869,-142 869,-130 869,-130 869,-124 875,-118 881,-118 881,-118 1250,-118 1250,-118 1256,-118 1262,-124 1262,-130 1262,-130 1262,-142 1262,-142 1262,-148 1256,-154 1250,-154"/>
<text text-anchor="middle" x="1065.5" y="-133.8" font-family="Courier,monospace" font-size="9.00">{std::basic_string&lt;char, std::char_traits &gt;::operator[](unsigned lon...}</text>
</g>
<!-- Node0x5fb4f6b264e0&#45;&gt;Node0x5fb4f6b27490 -->
<g id="edge19" class="edge">
<title>Node0x5fb4f6b264e0&#45;&gt;Node0x5fb4f6b27490</title>
<path fill="none" stroke="#4a6fa5" d="M615.18,-278.26C654.42,-277.6 727.62,-272.49 783,-246 829.28,-223.86 822.78,-191.26 869,-169 879.43,-163.98 890.5,-159.7 901.86,-156.07"/>
<polygon fill="#4a6fa5" stroke="#4a6fa5" points="902.61,-158.4 908.58,-154 901.17,-153.72 902.61,-158.4"/>
</g>
<!-- Node0x5fb4f6b27390 -->
<g id="node24" class="node">
<title>Node0x5fb4f6b27390</title>
<path fill="#f0f4ff" stroke="black" d="M1084.5,-219C1084.5,-219 1046.5,-219 1046.5,-219 1040.5,-219 1034.5,-213 1034.5,-207 1034.5,-207 1034.5,-195 1034.5,-195 1034.5,-189 1040.5,-183 1046.5,-183 1046.5,-183 1084.5,-183 1084.5,-183 1090.5,-183 1096.5,-189 1096.5,-195 1096.5,-195 1096.5,-207 1096.5,-207 1096.5,-213 1090.5,-219 1084.5,-219"/>
<text text-anchor="middle" x="1065.5" y="-198.8" font-family="Courier,monospace" font-size="9.00">{isspace}</text>
</g>
<!-- Node0x5fb4f6b264e0&#45;&gt;Node0x5fb4f6b27390 -->
<g id="edge20" class="edge">
<title>Node0x5fb4f6b264e0&#45;&gt;Node0x5fb4f6b27390</title>
<path fill="none" stroke="#4a6fa5" d="M615.21,-273.53C696.6,-260.39 935.02,-221.9 1027.37,-206.99"/>
<polygon fill="#4a6fa5" stroke="#4a6fa5" points="1027.76,-209.41 1034.28,-205.88 1026.98,-204.57 1027.76,-209.41"/>
</g>
<!-- Node0x5fb4f6ab1f50 -->
<g id="node19" class="node">
<title>Node0x5fb4f6ab1f50</title>
<path fill="#f0f4ff" stroke="black" d="M1184,-414C1184,-414 947,-414 947,-414 941,-414 935,-408 935,-402 935,-402 935,-390 935,-390 935,-384 941,-378 947,-378 947,-378 1184,-378 1184,-378 1190,-378 1196,-384 1196,-390 1196,-390 1196,-402 1196,-402 1196,-408 1190,-414 1184,-414"/>
<text text-anchor="middle" x="1065.5" y="-393.8" font-family="Courier,monospace" font-size="9.00">{basic_string&lt;char, std::char_traits &gt;::size()}</text>
</g>
<!-- Node0x5fb4f6ab0070&#45;&gt;Node0x5fb4f6ab1f50 -->
<g id="edge28" class="edge">
<title>Node0x5fb4f6ab0070&#45;&gt;Node0x5fb4f6ab1f50</title>
<path fill="none" stroke="#4a6fa5" d="M719.74,-442.98C784.51,-434.15 862.44,-423.54 927.8,-414.63"/>
<polygon fill="#4a6fa5" stroke="#4a6fa5" points="928.29,-417.03 934.89,-413.66 927.63,-412.18 928.29,-417.03"/>
</g>
<!-- Node0x5fb4f6ab1d10 -->
<g id="node20" class="node">
<title>Node0x5fb4f6ab1d10</title>
<path fill="#f0f4ff" stroke="black" d="M1152.5,-544C1152.5,-544 978.5,-544 978.5,-544 972.5,-544 966.5,-538 966.5,-532 966.5,-532 966.5,-520 966.5,-520 966.5,-514 972.5,-508 978.5,-508 978.5,-508 1152.5,-508 1152.5,-508 1158.5,-508 1164.5,-514 1164.5,-520 1164.5,-520 1164.5,-532 1164.5,-532 1164.5,-538 1158.5,-544 1152.5,-544"/>
<text text-anchor="middle" x="1065.5" y="-523.8" font-family="Courier,monospace" font-size="9.00">{std::char_traits&lt;char&gt;::compare()}</text>
</g>
<!-- Node0x5fb4f6ab0070&#45;&gt;Node0x5fb4f6ab1d10 -->
<g id="edge31" class="edge">
<title>Node0x5fb4f6ab0070&#45;&gt;Node0x5fb4f6ab1d10</title>
<path fill="none" stroke="#4a6fa5" d="M719.74,-479.02C795.31,-489.32 888.77,-502.05 959.31,-511.67"/>
<polygon fill="#4a6fa5" stroke="#4a6fa5" points="959.23,-514.13 966.49,-512.64 959.89,-509.27 959.23,-514.13"/>
</g>
<!-- Node0x5fb4f6ab0070&#45;&gt;Node0x5fb4f6ab15d0 -->
<g id="edge29" class="edge">
<title>Node0x5fb4f6ab0070&#45;&gt;Node0x5fb4f6ab15d0</title>
<path fill="none" stroke="#4a6fa5" d="M763.4,-479.17C770.42,-483.4 777.01,-488.31 783,-494 910.19,-614.68 741.51,-758.64 869,-879 893.69,-902.31 928.41,-912.4 961.76,-916"/>
<polygon fill="#4a6fa5" stroke="#4a6fa5" points="961.65,-918.45 968.85,-916.67 962.11,-913.57 961.65,-918.45"/>
</g>
<!-- Node0x5fb4f6b284c0 -->
<g id="node31" class="node">
<title>Node0x5fb4f6b284c0</title>
<path fill="#f0f4ff" stroke="black" d="M1184,-479C1184,-479 947,-479 947,-479 941,-479 935,-473 935,-467 935,-467 935,-455 935,-455 935,-449 941,-443 947,-443 947,-443 1184,-443 1184,-443 1190,-443 1196,-449 1196,-455 1196,-455 1196,-467 1196,-467 1196,-473 1190,-479 1184,-479"/>
<text text-anchor="middle" x="1065.5" y="-458.8" font-family="Courier,monospace" font-size="9.00">{basic_string&lt;char, std::char_traits &gt;::data()}</text>
</g>
<!-- Node0x5fb4f6ab0070&#45;&gt;Node0x5fb4f6b284c0 -->
<g id="edge30" class="edge">
<title>Node0x5fb4f6ab0070&#45;&gt;Node0x5fb4f6b284c0</title>
<path fill="none" stroke="#4a6fa5" d="M783.23,-461C831.68,-461 882.56,-461 927.52,-461"/>
<polygon fill="#4a6fa5" stroke="#4a6fa5" points="927.69,-463.45 934.69,-461 927.69,-458.55 927.69,-463.45"/>
</g>
<!-- Node0x5fb4f6ab57e0 -->
<g id="node18" class="node">
<title>Node0x5fb4f6ab57e0</title>
<path fill="#f0f4ff" stroke="black" d="M2284.5,-1124C2284.5,-1124 2199.5,-1124 2199.5,-1124 2193.5,-1124 2187.5,-1118 2187.5,-1112 2187.5,-1112 2187.5,-1100 2187.5,-1100 2187.5,-1094 2193.5,-1088 2199.5,-1088 2199.5,-1088 2284.5,-1088 2284.5,-1088 2290.5,-1088 2296.5,-1094 2296.5,-1100 2296.5,-1100 2296.5,-1112 2296.5,-1112 2296.5,-1118 2290.5,-1124 2284.5,-1124"/>
<text text-anchor="middle" x="2242" y="-1103.8" font-family="Courier,monospace" font-size="9.00">{std::terminate()}</text>
</g>
<!-- Node0x5fb4f6ab5cf0 -->
<g id="node21" class="node">
<title>Node0x5fb4f6ab5cf0</title>
<path fill="#f0f4ff" stroke="black" d="M1550.5,-539C1550.5,-539 1517.5,-539 1517.5,-539 1511.5,-539 1505.5,-533 1505.5,-527 1505.5,-527 1505.5,-515 1505.5,-515 1505.5,-509 1511.5,-503 1517.5,-503 1517.5,-503 1550.5,-503 1550.5,-503 1556.5,-503 1562.5,-509 1562.5,-515 1562.5,-515 1562.5,-527 1562.5,-527 1562.5,-533 1556.5,-539 1550.5,-539"/>
<text text-anchor="middle" x="1534" y="-518.8" font-family="Courier,monospace" font-size="9.00">{memcmp}</text>
</g>
<!-- Node0x5fb4f6ab1d10&#45;&gt;Node0x5fb4f6ab5cf0 -->
<g id="edge17" class="edge">
<title>Node0x5fb4f6ab1d10&#45;&gt;Node0x5fb4f6ab5cf0</title>
<path fill="none" stroke="#4a6fa5" d="M1164.58,-524.95C1268.75,-523.83 1427.85,-522.13 1497.86,-521.38"/>
<polygon fill="#4a6fa5" stroke="#4a6fa5" points="1498.18,-523.82 1505.15,-521.3 1498.12,-518.92 1498.18,-523.82"/>
</g>
<!-- Node0x5fb4f6ab04e0 -->
<g id="node22" class="node">
<title>Node0x5fb4f6ab04e0</title>
<path fill="#f0f4ff" stroke="black" d="M118,-7375C118,-7375 12,-7375 12,-7375 6,-7375 0,-7369 0,-7363 0,-7363 0,-7351 0,-7351 0,-7345 6,-7339 12,-7339 12,-7339 118,-7339 118,-7339 124,-7339 130,-7345 130,-7351 130,-7351 130,-7363 130,-7363 130,-7369 124,-7375 118,-7375"/>
<text text-anchor="middle" x="65" y="-7354.8" font-family="Courier,monospace" font-size="9.00">{__gxx_personality_v0}</text>
</g>
<!-- Node0x5fb4f6b27c80&#45;&gt;Node0x5fb4f6b254d0 -->
<g id="edge50" class="edge">
<title>Node0x5fb4f6b27c80&#45;&gt;Node0x5fb4f6b254d0</title>
<path fill="none" stroke="#4a6fa5" d="M1111.67,-698C1166.72,-676.62 1262.95,-641.1 1348,-619 1367.58,-613.91 1388.52,-609.36 1409.02,-605.37"/>
<polygon fill="#4a6fa5" stroke="#4a6fa5" points="1409.54,-607.76 1415.95,-604.04 1408.62,-602.95 1409.54,-607.76"/>
</g>
<!-- Node0x5fb4f6ab3560 -->
<g id="node38" class="node">
<title>Node0x5fb4f6ab3560</title>
<path fill="#f0f4ff" stroke="black" d="M1550.5,-1189C1550.5,-1189 1517.5,-1189 1517.5,-1189 1511.5,-1189 1505.5,-1183 1505.5,-1177 1505.5,-1177 1505.5,-1165 1505.5,-1165 1505.5,-1159 1511.5,-1153 1517.5,-1153 1517.5,-1153 1550.5,-1153 1550.5,-1153 1556.5,-1153 1562.5,-1159 1562.5,-1165 1562.5,-1165 1562.5,-1177 1562.5,-1177 1562.5,-1183 1556.5,-1189 1550.5,-1189"/>
<text text-anchor="middle" x="1534" y="-1168.8" font-family="Courier,monospace" font-size="9.00">{strlen}</text>
</g>
<!-- Node0x5fb4f6ab15d0&#45;&gt;Node0x5fb4f6ab3560 -->
<g id="edge41" class="edge">
<title>Node0x5fb4f6ab15d0&#45;&gt;Node0x5fb4f6ab3560</title>
<path fill="none" stroke="#4a6fa5" d="M1162.04,-908.89C1196.55,-912.54 1233.88,-922.12 1262,-944 1336.75,-1002.17 1273.37,-1080.67 1348,-1139 1391.28,-1172.82 1457.74,-1175.98 1498.11,-1174.19"/>
<polygon fill="#4a6fa5" stroke="#4a6fa5" points="1498.48,-1176.63 1505.33,-1173.81 1498.21,-1171.73 1498.48,-1176.63"/>
</g>
<!-- Node0x5fb4f6ab4570 -->
<g id="node42" class="node">
<title>Node0x5fb4f6ab4570</title>
<path fill="#f0f4ff" stroke="black" d="M1666,-1059C1666,-1059 1402,-1059 1402,-1059 1396,-1059 1390,-1053 1390,-1047 1390,-1047 1390,-1035 1390,-1035 1390,-1029 1396,-1023 1402,-1023 1402,-1023 1666,-1023 1666,-1023 1672,-1023 1678,-1029 1678,-1035 1678,-1035 1678,-1047 1678,-1047 1678,-1053 1672,-1059 1666,-1059"/>
<text text-anchor="middle" x="1534" y="-1038.8" font-family="Courier,monospace" font-size="9.00">{basic_string&lt;char, std::char_traits &gt;::_M_create()}</text>
</g>
<!-- Node0x5fb4f6ab1ac0&#45;&gt;Node0x5fb4f6ab4570 -->
<g id="edge42" class="edge">
<title>Node0x5fb4f6ab1ac0&#45;&gt;Node0x5fb4f6ab4570</title>
<path fill="none" stroke="#4a6fa5" d="M1233.37,-864.18C1243.41,-868.29 1253.06,-873.18 1262,-879 1320.07,-916.78 1290.01,-971.1 1348,-1009 1358.71,-1016 1370.47,-1021.6 1382.73,-1026.07"/>
<polygon fill="#4a6fa5" stroke="#4a6fa5" points="1382.17,-1028.47 1389.59,-1028.44 1383.77,-1023.84 1382.17,-1028.47"/>
</g>
<!-- Node0x5fb4f6ab4330 -->
<g id="node43" class="node">
<title>Node0x5fb4f6ab4330</title>
<path fill="#f0f4ff" stroke="black" d="M1660.5,-994C1660.5,-994 1407.5,-994 1407.5,-994 1401.5,-994 1395.5,-988 1395.5,-982 1395.5,-982 1395.5,-970 1395.5,-970 1395.5,-964 1401.5,-958 1407.5,-958 1407.5,-958 1660.5,-958 1660.5,-958 1666.5,-958 1672.5,-964 1672.5,-970 1672.5,-970 1672.5,-982 1672.5,-982 1672.5,-988 1666.5,-994 1660.5,-994"/>
<text text-anchor="middle" x="1534" y="-973.8" font-family="Courier,monospace" font-size="9.00">{basic_string&lt;char, std::char_traits &gt;::_M_data()}</text>
</g>
<!-- Node0x5fb4f6ab1ac0&#45;&gt;Node0x5fb4f6ab4330 -->
<g id="edge43" class="edge">
<title>Node0x5fb4f6ab1ac0&#45;&gt;Node0x5fb4f6ab4330</title>
<path fill="none" stroke="#4a6fa5" d="M1217.79,-864C1233.02,-868.03 1248.01,-872.97 1262,-879 1305.99,-897.98 1304.05,-924.94 1348,-944 1360.85,-949.57 1374.6,-954.18 1388.58,-957.98"/>
<polygon fill="#4a6fa5" stroke="#4a6fa5" points="1388.07,-960.38 1395.46,-959.78 1389.31,-955.64 1388.07,-960.38"/>
</g>
<!-- Node0x5fb4f6ab45f0 -->
<g id="node44" class="node">
<title>Node0x5fb4f6ab45f0</title>
<path fill="#f0f4ff" stroke="black" d="M1671,-929C1671,-929 1397,-929 1397,-929 1391,-929 1385,-923 1385,-917 1385,-917 1385,-905 1385,-905 1385,-899 1391,-893 1397,-893 1397,-893 1671,-893 1671,-893 1677,-893 1683,-899 1683,-905 1683,-905 1683,-917 1683,-917 1683,-923 1677,-929 1671,-929"/>
<text text-anchor="middle" x="1534" y="-908.8" font-family="Courier,monospace" font-size="9.00">{basic_string&lt;char, std::char_traits &gt;::_M_capacity()}</text>
</g>
<!-- Node0x5fb4f6ab1ac0&#45;&gt;Node0x5fb4f6ab45f0 -->
<g id="edge44" class="edge">
<title>Node0x5fb4f6ab1ac0&#45;&gt;Node0x5fb4f6ab45f0</title>
<path fill="none" stroke="#4a6fa5" d="M1195.83,-864.02C1258.14,-872.7 1332.89,-883.12 1396.16,-891.93"/>
<polygon fill="#4a6fa5" stroke="#4a6fa5" points="1396.15,-894.41 1403.42,-892.95 1396.83,-889.55 1396.15,-894.41"/>
</g>
<!-- Node0x5fb4f6ab43b0 -->
<g id="node45" class="node">
<title>Node0x5fb4f6ab43b0</title>
<path fill="#f0f4ff" stroke="black" d="M1708,-864C1708,-864 1360,-864 1360,-864 1354,-864 1348,-858 1348,-852 1348,-852 1348,-840 1348,-840 1348,-834 1354,-828 1360,-828 1360,-828 1708,-828 1708,-828 1714,-828 1720,-834 1720,-840 1720,-840 1720,-852 1720,-852 1720,-858 1714,-864 1708,-864"/>
<text text-anchor="middle" x="1534" y="-843.8" font-family="Courier,monospace" font-size="9.00">{basic_string&lt;char, std::char_traits &gt;::_M_construct&lt;char const*&gt;()}</text>
</g>
<!-- Node0x5fb4f6ab1ac0&#45;&gt;Node0x5fb4f6ab43b0 -->
<g id="edge45" class="edge">
<title>Node0x5fb4f6ab1ac0&#45;&gt;Node0x5fb4f6ab43b0</title>
<path fill="none" stroke="#4a6fa5" d="M1251.54,-846C1280.86,-846 1311.25,-846 1340.73,-846"/>
<polygon fill="#4a6fa5" stroke="#4a6fa5" points="1340.8,-848.45 1347.8,-846 1340.8,-843.55 1340.8,-848.45"/>
</g>
<!-- Node0x5fb4f6ab5330 -->
<g id="node46" class="node">
<title>Node0x5fb4f6ab5330</title>
<path fill="#f0f4ff" stroke="black" d="M1660.5,-799C1660.5,-799 1407.5,-799 1407.5,-799 1401.5,-799 1395.5,-793 1395.5,-787 1395.5,-787 1395.5,-775 1395.5,-775 1395.5,-769 1401.5,-763 1407.5,-763 1407.5,-763 1660.5,-763 1660.5,-763 1666.5,-763 1672.5,-769 1672.5,-775 1672.5,-775 1672.5,-787 1672.5,-787 1672.5,-793 1666.5,-799 1660.5,-799"/>
<text text-anchor="middle" x="1534" y="-778.8" font-family="Courier,monospace" font-size="9.00">{basic_string&lt;char, std::char_traits &gt;::_M_data()}</text>
</g>
<!-- Node0x5fb4f6ab1ac0&#45;&gt;Node0x5fb4f6ab5330 -->
<g id="edge46" class="edge">
<title>Node0x5fb4f6ab1ac0&#45;&gt;Node0x5fb4f6ab5330</title>
<path fill="none" stroke="#4a6fa5" d="M1195.83,-827.98C1258.14,-819.3 1332.89,-808.88 1396.16,-800.07"/>
<polygon fill="#4a6fa5" stroke="#4a6fa5" points="1396.83,-802.45 1403.42,-799.05 1396.15,-797.59 1396.83,-802.45"/>
</g>
<!-- Node0x5fb4f6ab50f0 -->
<g id="node47" class="node">
<title>Node0x5fb4f6ab50f0</title>
<path fill="#f0f4ff" stroke="black" d="M1676.5,-734C1676.5,-734 1391.5,-734 1391.5,-734 1385.5,-734 1379.5,-728 1379.5,-722 1379.5,-722 1379.5,-710 1379.5,-710 1379.5,-704 1385.5,-698 1391.5,-698 1391.5,-698 1676.5,-698 1676.5,-698 1682.5,-698 1688.5,-704 1688.5,-710 1688.5,-710 1688.5,-722 1688.5,-722 1688.5,-728 1682.5,-734 1676.5,-734"/>
<text text-anchor="middle" x="1534" y="-713.8" font-family="Courier,monospace" font-size="9.00">{basic_string&lt;char, std::char_traits &gt;::_S_copy_chars()}</text>
</g>
<!-- Node0x5fb4f6ab1ac0&#45;&gt;Node0x5fb4f6ab50f0 -->
<g id="edge47" class="edge">
<title>Node0x5fb4f6ab1ac0&#45;&gt;Node0x5fb4f6ab50f0</title>
<path fill="none" stroke="#4a6fa5" d="M1111.67,-828C1166.72,-806.62 1262.95,-771.1 1348,-749 1367.58,-743.91 1388.52,-739.36 1409.02,-735.37"/>
<polygon fill="#4a6fa5" stroke="#4a6fa5" points="1409.54,-737.76 1415.95,-734.04 1408.62,-732.95 1409.54,-737.76"/>
</g>
<!-- Node0x5fb4f6ab4c60 -->
<g id="node48" class="node">
<title>Node0x5fb4f6ab4c60</title>
<path fill="#f0f4ff" stroke="black" d="M1676.5,-669C1676.5,-669 1391.5,-669 1391.5,-669 1385.5,-669 1379.5,-663 1379.5,-657 1379.5,-657 1379.5,-645 1379.5,-645 1379.5,-639 1385.5,-633 1391.5,-633 1391.5,-633 1676.5,-633 1676.5,-633 1682.5,-633 1688.5,-639 1688.5,-645 1688.5,-645 1688.5,-657 1688.5,-657 1688.5,-663 1682.5,-669 1676.5,-669"/>
<text text-anchor="middle" x="1534" y="-648.8" font-family="Courier,monospace" font-size="9.00">{basic_string&lt;char, std::char_traits &gt;::_M_set_length()}</text>
</g>
<!-- Node0x5fb4f6ab1ac0&#45;&gt;Node0x5fb4f6ab4c60 -->
<g id="edge48" class="edge">
<title>Node0x5fb4f6ab1ac0&#45;&gt;Node0x5fb4f6ab4c60</title>
<path fill="none" stroke="#4a6fa5" d="M1108.51,-827.91C1148.94,-809.87 1211.25,-780.39 1262,-749 1302.75,-723.8 1304.1,-703.18 1348,-684 1359.6,-678.93 1371.94,-674.64 1384.52,-671.01"/>
<polygon fill="#4a6fa5" stroke="#4a6fa5" points="1385.45,-673.29 1391.54,-669.06 1384.14,-668.57 1385.45,-673.29"/>
</g>
<!-- Node0x5fb4f6b2acc0 -->
<g id="node49" class="node">
<title>Node0x5fb4f6b2acc0</title>
<path fill="#f0f4ff" stroke="black" d="M1708,-1124C1708,-1124 1360,-1124 1360,-1124 1354,-1124 1348,-1118 1348,-1112 1348,-1112 1348,-1100 1348,-1100 1348,-1094 1354,-1088 1360,-1088 1360,-1088 1708,-1088 1708,-1088 1714,-1088 1720,-1094 1720,-1100 1720,-1100 1720,-1112 1720,-1112 1720,-1118 1714,-1124 1708,-1124"/>
<text text-anchor="middle" x="1534" y="-1103.8" font-family="Courier,monospace" font-size="9.00">{basic_string&lt;char, std::char_traits &gt;::_M_construct&lt;char const*&gt;()}</text>
</g>
<!-- Node0x5fb4f6ab1ac0&#45;&gt;Node0x5fb4f6b2acc0 -->
<g id="edge49" class="edge">
<title>Node0x5fb4f6ab1ac0&#45;&gt;Node0x5fb4f6b2acc0</title>
<path fill="none" stroke="#4a6fa5" d="M1237.86,-864.04C1246.41,-868.24 1254.53,-873.19 1262,-879 1336.75,-937.17 1273.37,-1015.67 1348,-1074 1352.89,-1077.82 1358.08,-1081.25 1363.49,-1084.33"/>
<polygon fill="#4a6fa5" stroke="#4a6fa5" points="1362.62,-1086.64 1369.95,-1087.78 1364.93,-1082.32 1362.62,-1086.64"/>
</g>
<!-- Node0x5fb4f6ab1550 -->
<g id="node32" class="node">
<title>Node0x5fb4f6ab1550</title>
<path fill="#f0f4ff" stroke="black" d="M107.5,-381C107.5,-381 22.5,-381 22.5,-381 16.5,-381 10.5,-375 10.5,-369 10.5,-369 10.5,-357 10.5,-357 10.5,-351 16.5,-345 22.5,-345 22.5,-345 107.5,-345 107.5,-345 113.5,-345 119.5,-351 119.5,-357 119.5,-357 119.5,-369 119.5,-369 119.5,-375 113.5,-381 107.5,-381"/>
<text text-anchor="middle" x="65" y="-360.8" font-family="Courier,monospace" font-size="9.00">{LoadConfigAuto()}</text>
</g>
<!-- Node0x5fb4f6ab1550&#45;&gt;Node0x5fb4f6b1adf0 -->
<g id="edge37" class="edge">
<title>Node0x5fb4f6ab1550&#45;&gt;Node0x5fb4f6b1adf0</title>
<path fill="none" stroke="#4a6fa5" d="M85.95,-381.31C114.29,-407.12 168.1,-455.36 216,-494 219.8,-497.06 223.84,-500.21 227.87,-503.28"/>
<polygon fill="#4a6fa5" stroke="#4a6fa5" points="226.67,-505.45 233.74,-507.71 229.63,-501.54 226.67,-505.45"/>
</g>
<!-- Node0x5fb4f6b294b0 -->
<g id="node33" class="node">
<title>Node0x5fb4f6b294b0</title>
<path fill="#f0f4ff" stroke="black" d="M276.5,-479C276.5,-479 243.5,-479 243.5,-479 237.5,-479 231.5,-473 231.5,-467 231.5,-467 231.5,-455 231.5,-455 231.5,-449 237.5,-443 243.5,-443 243.5,-443 276.5,-443 276.5,-443 282.5,-443 288.5,-449 288.5,-455 288.5,-455 288.5,-467 288.5,-467 288.5,-473 282.5,-479 276.5,-479"/>
<text text-anchor="middle" x="260" y="-458.8" font-family="Courier,monospace" font-size="9.00">{getenv}</text>
</g>
<!-- Node0x5fb4f6ab1550&#45;&gt;Node0x5fb4f6b294b0 -->
<g id="edge32" class="edge">
<title>Node0x5fb4f6ab1550&#45;&gt;Node0x5fb4f6b294b0</title>
<path fill="none" stroke="#4a6fa5" d="M101.85,-381.2C137.01,-399.05 190.22,-426.08 224.8,-443.63"/>
<polygon fill="#4a6fa5" stroke="#4a6fa5" points="224.11,-446.03 231.46,-447.01 226.32,-441.66 224.11,-446.03"/>
</g>
<!-- Node0x5fb4f6ab3060 -->
<g id="node34" class="node">
<title>Node0x5fb4f6ab3060</title>
<path fill="#f0f4ff" stroke="black" d="M281.5,-414C281.5,-414 238.5,-414 238.5,-414 232.5,-414 226.5,-408 226.5,-402 226.5,-402 226.5,-390 226.5,-390 226.5,-384 232.5,-378 238.5,-378 238.5,-378 281.5,-378 281.5,-378 287.5,-378 293.5,-384 293.5,-390 293.5,-390 293.5,-402 293.5,-402 293.5,-408 287.5,-414 281.5,-414"/>
<text text-anchor="middle" x="260" y="-393.8" font-family="Courier,monospace" font-size="9.00">{realpath}</text>
</g>
<!-- Node0x5fb4f6ab1550&#45;&gt;Node0x5fb4f6ab3060 -->
<g id="edge33" class="edge">
<title>Node0x5fb4f6ab1550&#45;&gt;Node0x5fb4f6ab3060</title>
<path fill="none" stroke="#4a6fa5" d="M119.5,-372.15C151.08,-377.55 190.37,-384.27 219.2,-389.19"/>
<polygon fill="#4a6fa5" stroke="#4a6fa5" points="218.98,-391.64 226.29,-390.41 219.8,-386.81 218.98,-391.64"/>
</g>
<!-- Node0x5fb4f6b291f0 -->
<g id="node35" class="node">
<title>Node0x5fb4f6b291f0</title>
<path fill="#f0f4ff" stroke="black" d="M276.5,-349C276.5,-349 243.5,-349 243.5,-349 237.5,-349 231.5,-343 231.5,-337 231.5,-337 231.5,-325 231.5,-325 231.5,-319 237.5,-313 243.5,-313 243.5,-313 276.5,-313 276.5,-313 282.5,-313 288.5,-319 288.5,-325 288.5,-325 288.5,-337 288.5,-337 288.5,-343 282.5,-349 276.5,-349"/>
<text text-anchor="middle" x="260" y="-328.8" font-family="Courier,monospace" font-size="9.00">{strstr}</text>
</g>
<!-- Node0x5fb4f6ab1550&#45;&gt;Node0x5fb4f6b291f0 -->
<g id="edge34" class="edge">
<title>Node0x5fb4f6ab1550&#45;&gt;Node0x5fb4f6b291f0</title>
<path fill="none" stroke="#4a6fa5" d="M119.5,-354.13C152.93,-348.59 195,-341.61 224.16,-336.78"/>
<polygon fill="#4a6fa5" stroke="#4a6fa5" points="224.77,-339.16 231.28,-335.6 223.97,-334.32 224.77,-339.16"/>
</g>
<!-- Node0x5fb4f6ab2ae0 -->
<g id="node36" class="node">
<title>Node0x5fb4f6ab2ae0</title>
<path fill="#f0f4ff" stroke="black" d="M279,-284C279,-284 241,-284 241,-284 235,-284 229,-278 229,-272 229,-272 229,-260 229,-260 229,-254 235,-248 241,-248 241,-248 279,-248 279,-248 285,-248 291,-254 291,-260 291,-260 291,-272 291,-272 291,-278 285,-284 279,-284"/>
<text text-anchor="middle" x="260" y="-263.8" font-family="Courier,monospace" font-size="9.00">{fprintf}</text>
</g>
<!-- Node0x5fb4f6ab1550&#45;&gt;Node0x5fb4f6ab2ae0 -->
<g id="edge35" class="edge">
<title>Node0x5fb4f6ab1550&#45;&gt;Node0x5fb4f6ab2ae0</title>
<path fill="none" stroke="#4a6fa5" d="M101.85,-344.98C136.09,-327.78 187.45,-301.96 222.05,-284.57"/>
<polygon fill="#4a6fa5" stroke="#4a6fa5" points="223.58,-286.54 228.74,-281.21 221.38,-282.17 223.58,-286.54"/>
</g>
<!-- Node0x5fb4f6ab2a60 -->
<g id="node37" class="node">
<title>Node0x5fb4f6ab2a60</title>
<path fill="#f0f4ff" stroke="black" d="M281.5,-219C281.5,-219 238.5,-219 238.5,-219 232.5,-219 226.5,-213 226.5,-207 226.5,-207 226.5,-195 226.5,-195 226.5,-189 232.5,-183 238.5,-183 238.5,-183 281.5,-183 281.5,-183 287.5,-183 293.5,-189 293.5,-195 293.5,-195 293.5,-207 293.5,-207 293.5,-213 287.5,-219 281.5,-219"/>
<text text-anchor="middle" x="260" y="-198.8" font-family="Courier,monospace" font-size="9.00">{snprintf}</text>
</g>
<!-- Node0x5fb4f6ab1550&#45;&gt;Node0x5fb4f6ab2a60 -->
<g id="edge36" class="edge">
<title>Node0x5fb4f6ab1550&#45;&gt;Node0x5fb4f6ab2a60</title>
<path fill="none" stroke="#4a6fa5" d="M86.56,-344.68C115.17,-319.33 168.82,-272.34 216,-234 220.21,-230.58 224.71,-227.02 229.14,-223.57"/>
<polygon fill="#4a6fa5" stroke="#4a6fa5" points="230.67,-225.49 234.71,-219.27 227.67,-221.61 230.67,-225.49"/>
</g>
<!-- Node0x5fb4f6ab1550&#45;&gt;Node0x5fb4f6ab3560 -->
<g id="edge38" class="edge">
<title>Node0x5fb4f6ab1550&#45;&gt;Node0x5fb4f6ab3560</title>
<path fill="none" stroke="#4a6fa5" d="M69.51,-381.23C86.88,-466.49 171.85,-829.37 390,-1008 735.82,-1291.17 1346.4,-1204.71 1498.13,-1177.7"/>
<polygon fill="#4a6fa5" stroke="#4a6fa5" points="1498.96,-1180.03 1505.42,-1176.38 1498.09,-1175.21 1498.96,-1180.03"/>
</g>
<!-- Node0x5fb4f6b29a30 -->
<g id="node39" class="node">
<title>Node0x5fb4f6b29a30</title>
<path fill="#f0f4ff" stroke="black" d="M279,-154C279,-154 241,-154 241,-154 235,-154 229,-148 229,-142 229,-142 229,-130 229,-130 229,-124 235,-118 241,-118 241,-118 279,-118 279,-118 285,-118 291,-124 291,-130 291,-130 291,-142 291,-142 291,-148 285,-154 279,-154"/>
<text text-anchor="middle" x="260" y="-133.8" font-family="Courier,monospace" font-size="9.00">{strncmp}</text>
</g>
<!-- Node0x5fb4f6ab1550&#45;&gt;Node0x5fb4f6b29a30 -->
<g id="edge39" class="edge">
<title>Node0x5fb4f6ab1550&#45;&gt;Node0x5fb4f6b29a30</title>
<path fill="none" stroke="#4a6fa5" d="M77.66,-344.91C101.23,-309.07 157.34,-227.45 216,-169 219.57,-165.44 223.54,-161.92 227.57,-158.58"/>
<polygon fill="#4a6fa5" stroke="#4a6fa5" points="229.16,-160.45 233.08,-154.16 226.09,-156.63 229.16,-160.45"/>
</g>
<!-- Node0x5fb4f6ab3820 -->
<g id="node40" class="node">
<title>Node0x5fb4f6ab3820</title>
<path fill="#f0f4ff" stroke="black" d="M110,-7825C110,-7825 20,-7825 20,-7825 14,-7825 8,-7819 8,-7813 8,-7813 8,-7801 8,-7801 8,-7795 14,-7789 20,-7789 20,-7789 110,-7789 110,-7789 116,-7789 122,-7795 122,-7801 122,-7801 122,-7813 122,-7813 122,-7819 116,-7825 110,-7825"/>
<text text-anchor="middle" x="65" y="-7804.8" font-family="Courier,monospace" font-size="9.00">{PrintConfigHelp()}</text>
</g>
<!-- Node0x5fb4f6ab3c50 -->
<g id="node41" class="node">
<title>Node0x5fb4f6ab3c50</title>
<path fill="#f0f4ff" stroke="black" d="M276.5,-7825C276.5,-7825 243.5,-7825 243.5,-7825 237.5,-7825 231.5,-7819 231.5,-7813 231.5,-7813 231.5,-7801 231.5,-7801 231.5,-7795 237.5,-7789 243.5,-7789 243.5,-7789 276.5,-7789 276.5,-7789 282.5,-7789 288.5,-7795 288.5,-7801 288.5,-7801 288.5,-7813 288.5,-7813 288.5,-7819 282.5,-7825 276.5,-7825"/>
<text text-anchor="middle" x="260" y="-7804.8" font-family="Courier,monospace" font-size="9.00">{printf}</text>
</g>
<!-- Node0x5fb4f6ab3820&#45;&gt;Node0x5fb4f6ab3c50 -->
<g id="edge40" class="edge">
<title>Node0x5fb4f6ab3820&#45;&gt;Node0x5fb4f6ab3c50</title>
<path fill="none" stroke="#4a6fa5" d="M122.08,-7807C155.08,-7807 195.78,-7807 224.19,-7807"/>
<polygon fill="#4a6fa5" stroke="#4a6fa5" points="224.5,-7809.45 231.5,-7807 224.5,-7804.55 224.5,-7809.45"/>
</g>
<!-- Node0x5fb4f6ab6170 -->
<g id="node50" class="node">
<title>Node0x5fb4f6ab6170</title>
<path fill="#f0f4ff" stroke="black" d="M2087,-1156C2087,-1156 1818,-1156 1818,-1156 1812,-1156 1806,-1150 1806,-1144 1806,-1144 1806,-1132 1806,-1132 1806,-1126 1812,-1120 1818,-1120 1818,-1120 2087,-1120 2087,-1120 2093,-1120 2099,-1126 2099,-1132 2099,-1132 2099,-1144 2099,-1144 2099,-1150 2093,-1156 2087,-1156"/>
<text text-anchor="middle" x="1952.5" y="-1135.8" font-family="Courier,monospace" font-size="9.00">{basic_string&lt;char, std::char_traits &gt;::_M_dispose()}</text>
</g>
<!-- Node0x5fb4f6b2acc0&#45;&gt;Node0x5fb4f6ab6170 -->
<g id="edge51" class="edge">
<title>Node0x5fb4f6b2acc0&#45;&gt;Node0x5fb4f6ab6170</title>
<path fill="none" stroke="#4a6fa5" d="M1720.11,-1120.22C1746.32,-1122.24 1773.03,-1124.29 1798.55,-1126.25"/>
<polygon fill="#4a6fa5" stroke="#4a6fa5" points="1798.54,-1128.71 1805.71,-1126.8 1798.92,-1123.82 1798.54,-1128.71"/>
</g>
<!-- Node0x5fb4f6ab5a30 -->
<g id="node51" class="node">
<title>Node0x5fb4f6ab5a30</title>
<path fill="#f0f4ff" stroke="black" d="M2011,-1091C2011,-1091 1894,-1091 1894,-1091 1888,-1091 1882,-1085 1882,-1079 1882,-1079 1882,-1067 1882,-1067 1882,-1061 1888,-1055 1894,-1055 1894,-1055 2011,-1055 2011,-1055 2017,-1055 2023,-1061 2023,-1067 2023,-1067 2023,-1079 2023,-1079 2023,-1085 2017,-1091 2011,-1091"/>
<text text-anchor="middle" x="1952.5" y="-1070.8" font-family="Courier,monospace" font-size="9.00">{__clang_call_terminate}</text>
</g>
<!-- Node0x5fb4f6b2acc0&#45;&gt;Node0x5fb4f6ab5a30 -->
<g id="edge52" class="edge">
<title>Node0x5fb4f6b2acc0&#45;&gt;Node0x5fb4f6ab5a30</title>
<path fill="none" stroke="#4a6fa5" d="M1720.11,-1091.33C1774.54,-1087.02 1831.11,-1082.54 1874.69,-1079.09"/>
<polygon fill="#4a6fa5" stroke="#4a6fa5" points="1875.06,-1081.51 1881.85,-1078.52 1874.68,-1076.63 1875.06,-1081.51"/>
</g>
<!-- Node0x5fb4f6ab5a30&#45;&gt;Node0x5fb4f6ab57e0 -->
<g id="edge54" class="edge">
<title>Node0x5fb4f6ab5a30&#45;&gt;Node0x5fb4f6ab57e0</title>
<path fill="none" stroke="#4a6fa5" d="M2023.1,-1080.99C2071.05,-1086.49 2134.17,-1093.74 2180.12,-1099.01"/>
<polygon fill="#4a6fa5" stroke="#4a6fa5" points="2180.11,-1101.48 2187.34,-1099.84 2180.67,-1096.61 2180.11,-1101.48"/>
</g>
<!-- Node0x5fb4f6ab5f30 -->
<g id="node52" class="node">
<title>Node0x5fb4f6ab5f30</title>
<path fill="#f0f4ff" stroke="black" d="M2287,-1059C2287,-1059 2197,-1059 2197,-1059 2191,-1059 2185,-1053 2185,-1047 2185,-1047 2185,-1035 2185,-1035 2185,-1029 2191,-1023 2197,-1023 2197,-1023 2287,-1023 2287,-1023 2293,-1023 2299,-1029 2299,-1035 2299,-1035 2299,-1047 2299,-1047 2299,-1053 2293,-1059 2287,-1059"/>
<text text-anchor="middle" x="2242" y="-1038.8" font-family="Courier,monospace" font-size="9.00">{__cxa_begin_catch}</text>
</g>
<!-- Node0x5fb4f6ab5a30&#45;&gt;Node0x5fb4f6ab5f30 -->
<g id="edge53" class="edge">
<title>Node0x5fb4f6ab5a30&#45;&gt;Node0x5fb4f6ab5f30</title>
<path fill="none" stroke="#4a6fa5" d="M2023.1,-1065.25C2070.1,-1060.02 2131.68,-1053.17 2177.38,-1048.08"/>
<polygon fill="#4a6fa5" stroke="#4a6fa5" points="2177.89,-1050.49 2184.57,-1047.28 2177.35,-1045.62 2177.89,-1050.49"/>
</g>
</g>
</svg>
