<?xml version="1.0" encoding="UTF-8" standalone="no"?>
<!DOCTYPE svg PUBLIC "-//W3C//DTD SVG 1.1//EN"
 "http://www.w3.org/Graphics/SVG/1.1/DTD/svg11.dtd">
<!-- Generated by graphviz version 2.43.0 (0)
 -->
<!-- Title: Call graph: /home/h02332/po/research/call&#45;graph/analyzer/IccAnalyzerValidation.ll Pages: 1 -->
<svg width="3982pt" height="14400pt"
 viewBox="0.00 0.00 3982.14 14400.00" xmlns="http://www.w3.org/2000/svg" xmlns:xlink="http://www.w3.org/1999/xlink">
<g id="graph0" class="graph" transform="scale(1.83 1.83) rotate(0) translate(36 7833)">
<title>Call graph: /home/h02332/po/research/call&#45;graph/analyzer/IccAnalyzerValidation.ll</title>
<polygon fill="white" stroke="transparent" points="-36,36 -36,-7833 2140.07,-7833 2140.07,36 -36,36"/>
<!-- Node0x5594b2ce5fc0 -->
<g id="node1" class="node">
<title>Node0x5594b2ce5fc0</title>
<path fill="#f0f4ff" stroke="black" d="M113.07,-1129C113.07,-1129 17.07,-1129 17.07,-1129 11.07,-1129 5.07,-1123 5.07,-1117 5.07,-1117 5.07,-1105 5.07,-1105 5.07,-1099 11.07,-1093 17.07,-1093 17.07,-1093 113.07,-1093 113.07,-1093 119.07,-1093 125.07,-1099 125.07,-1105 125.07,-1105 125.07,-1117 125.07,-1117 125.07,-1123 119.07,-1129 113.07,-1129"/>
<text text-anchor="middle" x="65.07" y="-1108.8" font-family="Courier,monospace" font-size="9.00">{RoundTripAnalyze()}</text>
</g>
<!-- Node0x5594b2ce6050 -->
<g id="node2" class="node">
<title>Node0x5594b2ce6050</title>
<path fill="#f0f4ff" stroke="black" d="M429.07,-934C429.07,-934 396.07,-934 396.07,-934 390.07,-934 384.07,-928 384.07,-922 384.07,-922 384.07,-910 384.07,-910 384.07,-904 390.07,-898 396.07,-898 396.07,-898 429.07,-898 429.07,-898 435.07,-898 441.07,-904 441.07,-910 441.07,-910 441.07,-922 441.07,-922 441.07,-928 435.07,-934 429.07,-934"/>
<text text-anchor="middle" x="412.57" y="-913.8" font-family="Courier,monospace" font-size="9.00">{printf}</text>
</g>
<!-- Node0x5594b2ce5fc0&#45;&gt;Node0x5594b2ce6050 -->
<g id="edge1" class="edge">
<title>Node0x5594b2ce5fc0&#45;&gt;Node0x5594b2ce6050</title>
<path fill="none" stroke="#4a6fa5" d="M77.03,-1092.79C98.79,-1058.39 151,-984.18 216.07,-949 267.21,-921.36 335.94,-915.83 376.81,-915.26"/>
<polygon fill="#4a6fa5" stroke="#4a6fa5" points="376.88,-917.71 383.86,-915.21 376.85,-912.81 376.88,-917.71"/>
</g>
<!-- Node0x5594b2ced6d0 -->
<g id="node3" class="node">
<title>Node0x5594b2ced6d0</title>
<path fill="#f0f4ff" stroke="black" d="M478.57,-869C478.57,-869 346.57,-869 346.57,-869 340.57,-869 334.57,-863 334.57,-857 334.57,-857 334.57,-845 334.57,-845 334.57,-839 340.57,-833 346.57,-833 346.57,-833 478.57,-833 478.57,-833 484.57,-833 490.57,-839 490.57,-845 490.57,-845 490.57,-857 490.57,-857 490.57,-863 484.57,-869 478.57,-869"/>
<text text-anchor="middle" x="412.57" y="-848.8" font-family="Courier,monospace" font-size="9.00">{CIccFileIO::~CIccFileIO()}</text>
</g>
<!-- Node0x5594b2ce5fc0&#45;&gt;Node0x5594b2ced6d0 -->
<g id="edge2" class="edge">
<title>Node0x5594b2ce5fc0&#45;&gt;Node0x5594b2ced6d0</title>
<path fill="none" stroke="#4a6fa5" d="M72.25,-1092.89C88.25,-1048.95 135.51,-936.44 216.07,-884 248.66,-862.79 290.56,-853.87 327.2,-850.53"/>
<polygon fill="#4a6fa5" stroke="#4a6fa5" points="327.68,-852.95 334.46,-849.93 327.28,-848.06 327.68,-852.95"/>
</g>
<!-- Node0x5594b2cdbea0 -->
<g id="node4" class="node">
<title>Node0x5594b2cdbea0</title>
<path fill="#f0f4ff" stroke="black" d="M476.07,-804C476.07,-804 349.07,-804 349.07,-804 343.07,-804 337.07,-798 337.07,-792 337.07,-792 337.07,-780 337.07,-780 337.07,-774 343.07,-768 349.07,-768 349.07,-768 476.07,-768 476.07,-768 482.07,-768 488.07,-774 488.07,-780 488.07,-780 488.07,-792 488.07,-792 488.07,-798 482.07,-804 476.07,-804"/>
<text text-anchor="middle" x="412.57" y="-783.8" font-family="Courier,monospace" font-size="9.00">{CIccFileIO::CIccFileIO()}</text>
</g>
<!-- Node0x5594b2ce5fc0&#45;&gt;Node0x5594b2cdbea0 -->
<g id="edge3" class="edge">
<title>Node0x5594b2ce5fc0&#45;&gt;Node0x5594b2cdbea0</title>
<path fill="none" stroke="#4a6fa5" d="M69.51,-1092.95C80.43,-1040.89 119.49,-889.68 216.07,-819 248.37,-795.37 291.64,-786.4 329.27,-783.64"/>
<polygon fill="#4a6fa5" stroke="#4a6fa5" points="329.89,-786.06 336.72,-783.17 329.58,-781.17 329.89,-786.06"/>
</g>
<!-- Node0x5594b2cd0980 -->
<g id="node5" class="node">
<title>Node0x5594b2cd0980</title>
<path fill="#f0f4ff" stroke="black" d="M460.57,-1389C460.57,-1389 364.57,-1389 364.57,-1389 358.57,-1389 352.57,-1383 352.57,-1377 352.57,-1377 352.57,-1365 352.57,-1365 352.57,-1359 358.57,-1353 364.57,-1353 364.57,-1353 460.57,-1353 460.57,-1353 466.57,-1353 472.57,-1359 472.57,-1365 472.57,-1365 472.57,-1377 472.57,-1377 472.57,-1383 466.57,-1389 460.57,-1389"/>
<text text-anchor="middle" x="412.57" y="-1368.8" font-family="Courier,monospace" font-size="9.00">{CIccFileIO::Open()}</text>
</g>
<!-- Node0x5594b2ce5fc0&#45;&gt;Node0x5594b2cd0980 -->
<g id="edge4" class="edge">
<title>Node0x5594b2ce5fc0&#45;&gt;Node0x5594b2cd0980</title>
<path fill="none" stroke="#4a6fa5" d="M72.21,-1129.21C88.11,-1173.4 135.19,-1286.52 216.07,-1339 254.18,-1363.72 305,-1371.45 345.27,-1373.15"/>
<polygon fill="#4a6fa5" stroke="#4a6fa5" points="345.33,-1375.6 352.41,-1373.39 345.5,-1370.7 345.33,-1375.6"/>
</g>
<!-- Node0x5594b2c2b530 -->
<g id="node6" class="node">
<title>Node0x5594b2c2b530</title>
<path fill="#f0f4ff" stroke="black" d="M427.57,-1324C427.57,-1324 397.57,-1324 397.57,-1324 391.57,-1324 385.57,-1318 385.57,-1312 385.57,-1312 385.57,-1300 385.57,-1300 385.57,-1294 391.57,-1288 397.57,-1288 397.57,-1288 427.57,-1288 427.57,-1288 433.57,-1288 439.57,-1294 439.57,-1300 439.57,-1300 439.57,-1312 439.57,-1312 439.57,-1318 433.57,-1324 427.57,-1324"/>
<text text-anchor="middle" x="412.57" y="-1303.8" font-family="Courier,monospace" font-size="9.00">{new()}</text>
</g>
<!-- Node0x5594b2ce5fc0&#45;&gt;Node0x5594b2c2b530 -->
<g id="edge5" class="edge">
<title>Node0x5594b2ce5fc0&#45;&gt;Node0x5594b2c2b530</title>
<path fill="none" stroke="#4a6fa5" d="M76.82,-1129.09C98.39,-1163.63 150.58,-1238.68 216.07,-1274 267.8,-1301.89 337.57,-1306.81 378.25,-1306.99"/>
<polygon fill="#4a6fa5" stroke="#4a6fa5" points="378.5,-1309.44 385.5,-1306.98 378.49,-1304.54 378.5,-1309.44"/>
</g>
<!-- Node0x5594b2c2b240 -->
<g id="node7" class="node">
<title>Node0x5594b2c2b240</title>
<path fill="#f0f4ff" stroke="black" d="M481.57,-1259C481.57,-1259 343.57,-1259 343.57,-1259 337.57,-1259 331.57,-1253 331.57,-1247 331.57,-1247 331.57,-1235 331.57,-1235 331.57,-1229 337.57,-1223 343.57,-1223 343.57,-1223 481.57,-1223 481.57,-1223 487.57,-1223 493.57,-1229 493.57,-1235 493.57,-1235 493.57,-1247 493.57,-1247 493.57,-1253 487.57,-1259 481.57,-1259"/>
<text text-anchor="middle" x="412.57" y="-1238.8" font-family="Courier,monospace" font-size="9.00">{CIccProfile::CIccProfile()}</text>
</g>
<!-- Node0x5594b2ce5fc0&#45;&gt;Node0x5594b2c2b240 -->
<g id="edge6" class="edge">
<title>Node0x5594b2ce5fc0&#45;&gt;Node0x5594b2c2b240</title>
<path fill="none" stroke="#4a6fa5" d="M87.33,-1129.08C115.04,-1151.61 165.91,-1189.52 216.07,-1209 250.04,-1222.19 289.39,-1229.95 323.84,-1234.51"/>
<polygon fill="#4a6fa5" stroke="#4a6fa5" points="323.86,-1236.98 331.11,-1235.43 324.47,-1232.12 323.86,-1236.98"/>
</g>
<!-- Node0x5594b2cec960 -->
<g id="node8" class="node">
<title>Node0x5594b2cec960</title>
<path fill="#f0f4ff" stroke="black" d="M468.07,-1194C468.07,-1194 357.07,-1194 357.07,-1194 351.07,-1194 345.07,-1188 345.07,-1182 345.07,-1182 345.07,-1170 345.07,-1170 345.07,-1164 351.07,-1158 357.07,-1158 357.07,-1158 468.07,-1158 468.07,-1158 474.07,-1158 480.07,-1164 480.07,-1170 480.07,-1170 480.07,-1182 480.07,-1182 480.07,-1188 474.07,-1194 468.07,-1194"/>
<text text-anchor="middle" x="412.57" y="-1173.8" font-family="Courier,monospace" font-size="9.00">{HasRoundTripSupport()}</text>
</g>
<!-- Node0x5594b2ce5fc0&#45;&gt;Node0x5594b2cec960 -->
<g id="edge7" class="edge">
<title>Node0x5594b2ce5fc0&#45;&gt;Node0x5594b2cec960</title>
<path fill="none" stroke="#4a6fa5" d="M125.41,-1124.83C152.92,-1131.04 186.09,-1138.25 216.07,-1144 256.13,-1151.68 301.03,-1159.11 337.69,-1164.88"/>
<polygon fill="#4a6fa5" stroke="#4a6fa5" points="337.61,-1167.34 344.91,-1166.01 338.37,-1162.5 337.61,-1167.34"/>
</g>
<!-- Node0x5594b2c2aaa0 -->
<g id="node9" class="node">
<title>Node0x5594b2c2aaa0</title>
<path fill="#f0f4ff" stroke="black" d="M463.07,-1129C463.07,-1129 362.07,-1129 362.07,-1129 356.07,-1129 350.07,-1123 350.07,-1117 350.07,-1117 350.07,-1105 350.07,-1105 350.07,-1099 356.07,-1093 362.07,-1093 362.07,-1093 463.07,-1093 463.07,-1093 469.07,-1093 475.07,-1099 475.07,-1105 475.07,-1105 475.07,-1117 475.07,-1117 475.07,-1123 469.07,-1129 463.07,-1129"/>
<text text-anchor="middle" x="412.57" y="-1108.8" font-family="Courier,monospace" font-size="9.00">{CIccFileIO::Close()}</text>
</g>
<!-- Node0x5594b2ce5fc0&#45;&gt;Node0x5594b2c2aaa0 -->
<g id="edge8" class="edge">
<title>Node0x5594b2ce5fc0&#45;&gt;Node0x5594b2c2aaa0</title>
<path fill="none" stroke="#4a6fa5" d="M125.07,-1111C185.39,-1111 279,-1111 342.68,-1111"/>
<polygon fill="#4a6fa5" stroke="#4a6fa5" points="342.9,-1113.45 349.9,-1111 342.9,-1108.55 342.9,-1113.45"/>
</g>
<!-- Node0x5594b2c2b3a0 -->
<g id="node10" class="node">
<title>Node0x5594b2c2b3a0</title>
<path fill="#f0f4ff" stroke="black" d="M434.07,-1064C434.07,-1064 391.07,-1064 391.07,-1064 385.07,-1064 379.07,-1058 379.07,-1052 379.07,-1052 379.07,-1040 379.07,-1040 379.07,-1034 385.07,-1028 391.07,-1028 391.07,-1028 434.07,-1028 434.07,-1028 440.07,-1028 446.07,-1034 446.07,-1040 446.07,-1040 446.07,-1052 446.07,-1052 446.07,-1058 440.07,-1064 434.07,-1064"/>
<text text-anchor="middle" x="412.57" y="-1043.8" font-family="Courier,monospace" font-size="9.00">{delete()}</text>
</g>
<!-- Node0x5594b2ce5fc0&#45;&gt;Node0x5594b2c2b3a0 -->
<g id="edge9" class="edge">
<title>Node0x5594b2ce5fc0&#45;&gt;Node0x5594b2c2b3a0</title>
<path fill="none" stroke="#4a6fa5" d="M125.09,-1097.8C152.67,-1091.79 186,-1084.74 216.07,-1079 269.86,-1068.73 332.3,-1058.48 371.87,-1052.19"/>
<polygon fill="#4a6fa5" stroke="#4a6fa5" points="372.45,-1054.58 378.98,-1051.06 371.68,-1049.74 372.45,-1054.58"/>
</g>
<!-- Node0x5594b2ced550 -->
<g id="node11" class="node">
<title>Node0x5594b2ced550</title>
<path fill="#f0f4ff" stroke="black" d="M463.07,-999C463.07,-999 362.07,-999 362.07,-999 356.07,-999 350.07,-993 350.07,-987 350.07,-987 350.07,-975 350.07,-975 350.07,-969 356.07,-963 362.07,-963 362.07,-963 463.07,-963 463.07,-963 469.07,-963 475.07,-969 475.07,-975 475.07,-975 475.07,-987 475.07,-987 475.07,-993 469.07,-999 463.07,-999"/>
<text text-anchor="middle" x="412.57" y="-978.8" font-family="Courier,monospace" font-size="9.00">{CIccProfile::Read()}</text>
</g>
<!-- Node0x5594b2ce5fc0&#45;&gt;Node0x5594b2ced550 -->
<g id="edge10" class="edge">
<title>Node0x5594b2ce5fc0&#45;&gt;Node0x5594b2ced550</title>
<path fill="none" stroke="#4a6fa5" d="M87.87,-1092.76C115.73,-1070.47 166.35,-1033.32 216.07,-1014 256.55,-998.27 304.6,-990.03 342.94,-985.72"/>
<polygon fill="#4a6fa5" stroke="#4a6fa5" points="343.29,-988.15 349.98,-984.96 342.76,-983.27 343.29,-988.15"/>
</g>
<!-- Node0x5594b2c2dda0 -->
<g id="node12" class="node">
<title>Node0x5594b2c2dda0</title>
<path fill="#f0f4ff" stroke="black" d="M929.07,-1381C929.07,-1381 833.07,-1381 833.07,-1381 827.07,-1381 821.07,-1375 821.07,-1369 821.07,-1369 821.07,-1357 821.07,-1357 821.07,-1351 827.07,-1345 833.07,-1345 833.07,-1345 929.07,-1345 929.07,-1345 935.07,-1345 941.07,-1351 941.07,-1357 941.07,-1357 941.07,-1369 941.07,-1369 941.07,-1375 935.07,-1381 929.07,-1381"/>
<text text-anchor="middle" x="881.07" y="-1360.8" font-family="Courier,monospace" font-size="9.00">{RoundTripAnalyze()}</text>
</g>
<!-- Node0x5594b2ce5fc0&#45;&gt;Node0x5594b2c2dda0 -->
<g id="edge11" class="edge">
<title>Node0x5594b2ce5fc0&#45;&gt;Node0x5594b2c2dda0</title>
<path fill="none" stroke="#4a6fa5" d="M68.81,-1129.15C78.01,-1182.84 113.2,-1341.1 216.07,-1404 415.33,-1525.84 714.12,-1429.61 830.86,-1383.8"/>
<polygon fill="#4a6fa5" stroke="#4a6fa5" points="832.01,-1385.98 837.62,-1381.12 830.2,-1381.42 832.01,-1385.98"/>
</g>
<!-- Node0x5594b2ced840 -->
<g id="node18" class="node">
<title>Node0x5594b2ced840</title>
<path fill="#f0f4ff" stroke="black" d="M936.57,-1222C936.57,-1222 825.57,-1222 825.57,-1222 819.57,-1222 813.57,-1216 813.57,-1210 813.57,-1210 813.57,-1198 813.57,-1198 813.57,-1192 819.57,-1186 825.57,-1186 825.57,-1186 936.57,-1186 936.57,-1186 942.57,-1186 948.57,-1192 948.57,-1198 948.57,-1198 948.57,-1210 948.57,-1210 948.57,-1216 942.57,-1222 936.57,-1222"/>
<text text-anchor="middle" x="881.07" y="-1201.8" font-family="Courier,monospace" font-size="9.00">{HasRoundTripSupport()}</text>
</g>
<!-- Node0x5594b2cec960&#45;&gt;Node0x5594b2ced840 -->
<g id="edge13" class="edge">
<title>Node0x5594b2cec960&#45;&gt;Node0x5594b2ced840</title>
<path fill="none" stroke="#4a6fa5" d="M480.41,-1180.01C566.76,-1185.19 716.58,-1194.19 806.21,-1199.57"/>
<polygon fill="#4a6fa5" stroke="#4a6fa5" points="806.23,-1202.02 813.36,-1200 806.52,-1197.13 806.23,-1202.02"/>
</g>
<!-- Node0x5594b2c2dd20 -->
<g id="node17" class="node">
<title>Node0x5594b2c2dd20</title>
<path fill="#f0f4ff" stroke="black" d="M1397.57,-1247C1397.57,-1247 1280.57,-1247 1280.57,-1247 1274.57,-1247 1268.57,-1241 1268.57,-1235 1268.57,-1235 1268.57,-1223 1268.57,-1223 1268.57,-1217 1274.57,-1211 1280.57,-1211 1280.57,-1211 1397.57,-1211 1397.57,-1211 1403.57,-1211 1409.57,-1217 1409.57,-1223 1409.57,-1223 1409.57,-1235 1409.57,-1235 1409.57,-1241 1403.57,-1247 1397.57,-1247"/>
<text text-anchor="middle" x="1339.07" y="-1226.8" font-family="Courier,monospace" font-size="9.00">{CIccProfile::FindTag()}</text>
</g>
<!-- Node0x5594b2c2dda0&#45;&gt;Node0x5594b2c2dd20 -->
<g id="edge12" class="edge">
<title>Node0x5594b2c2dda0&#45;&gt;Node0x5594b2c2dd20</title>
<path fill="none" stroke="#4a6fa5" d="M941.22,-1345.62C1025.65,-1320.81 1180.37,-1275.34 1269.64,-1249.11"/>
<polygon fill="#4a6fa5" stroke="#4a6fa5" points="1270.46,-1251.42 1276.48,-1247.1 1269.08,-1246.72 1270.46,-1251.42"/>
</g>
<!-- Node0x5594b2cf0170 -->
<g id="node13" class="node">
<title>Node0x5594b2cf0170</title>
<path fill="#f0f4ff" stroke="black" d="M1010.07,-491C1010.07,-491 752.07,-491 752.07,-491 746.07,-491 740.07,-485 740.07,-479 740.07,-479 740.07,-467 740.07,-467 740.07,-461 746.07,-455 752.07,-455 752.07,-455 1010.07,-455 1010.07,-455 1016.07,-455 1022.07,-461 1022.07,-467 1022.07,-467 1022.07,-479 1022.07,-479 1022.07,-485 1016.07,-491 1010.07,-491"/>
<text text-anchor="middle" x="881.07" y="-470.8" font-family="Courier,monospace" font-size="9.00">{basic_string&lt;char, std::char_traits &gt;::capacity()}</text>
</g>
<!-- Node0x5594b2c304b0 -->
<g id="node14" class="node">
<title>Node0x5594b2c304b0</title>
<path fill="#f0f4ff" stroke="black" d="M1005.07,-426C1005.07,-426 757.07,-426 757.07,-426 751.07,-426 745.07,-420 745.07,-414 745.07,-414 745.07,-402 745.07,-402 745.07,-396 751.07,-390 757.07,-390 757.07,-390 1005.07,-390 1005.07,-390 1011.07,-390 1017.07,-396 1017.07,-402 1017.07,-402 1017.07,-414 1017.07,-414 1017.07,-420 1011.07,-426 1005.07,-426"/>
<text text-anchor="middle" x="881.07" y="-405.8" font-family="Courier,monospace" font-size="9.00">{basic_string&lt;char, std::char_traits &gt;::insert()}</text>
</g>
<!-- Node0x5594b2c2fbe0 -->
<g id="node15" class="node">
<title>Node0x5594b2c2fbe0</title>
<path fill="#f0f4ff" stroke="black" d="M1005.07,-361C1005.07,-361 757.07,-361 757.07,-361 751.07,-361 745.07,-355 745.07,-349 745.07,-349 745.07,-337 745.07,-337 745.07,-331 751.07,-325 757.07,-325 757.07,-325 1005.07,-325 1005.07,-325 1011.07,-325 1017.07,-331 1017.07,-337 1017.07,-337 1017.07,-349 1017.07,-349 1017.07,-355 1011.07,-361 1005.07,-361"/>
<text text-anchor="middle" x="881.07" y="-340.8" font-family="Courier,monospace" font-size="9.00">{basic_string&lt;char, std::char_traits &gt;::append()}</text>
</g>
<!-- Node0x5594b2c2e520 -->
<g id="node16" class="node">
<title>Node0x5594b2c2e520</title>
<path fill="#f0f4ff" stroke="black" d="M118.07,-7797C118.07,-7797 12.07,-7797 12.07,-7797 6.07,-7797 0.07,-7791 0.07,-7785 0.07,-7785 0.07,-7773 0.07,-7773 0.07,-7767 6.07,-7761 12.07,-7761 12.07,-7761 118.07,-7761 118.07,-7761 124.07,-7761 130.07,-7767 130.07,-7773 130.07,-7773 130.07,-7785 130.07,-7785 130.07,-7791 124.07,-7797 118.07,-7797"/>
<text text-anchor="middle" x="65.07" y="-7776.8" font-family="Courier,monospace" font-size="9.00">{__gxx_personality_v0}</text>
</g>
<!-- Node0x5594b2ced840&#45;&gt;Node0x5594b2c2dd20 -->
<g id="edge50" class="edge">
<title>Node0x5594b2ced840&#45;&gt;Node0x5594b2c2dd20</title>
<path fill="none" stroke="#4a6fa5" d="M948.87,-1207.66C1032.08,-1212.22 1173.96,-1220 1261.49,-1224.8"/>
<polygon fill="#4a6fa5" stroke="#4a6fa5" points="1261.36,-1227.25 1268.48,-1225.18 1261.63,-1222.36 1261.36,-1227.25"/>
</g>
<!-- Node0x5594b2ced740 -->
<g id="node19" class="node">
<title>Node0x5594b2ced740</title>
<path fill="#f0f4ff" stroke="black" d="M105.07,-706C105.07,-706 25.07,-706 25.07,-706 19.07,-706 13.07,-700 13.07,-694 13.07,-694 13.07,-682 13.07,-682 13.07,-676 19.07,-670 25.07,-670 25.07,-670 105.07,-670 105.07,-670 111.07,-670 117.07,-676 117.07,-682 117.07,-682 117.07,-694 117.07,-694 117.07,-700 111.07,-706 105.07,-706"/>
<text text-anchor="middle" x="65.07" y="-685.8" font-family="Courier,monospace" font-size="9.00">{RecursiveScan()}</text>
</g>
<!-- Node0x5594b2ced740&#45;&gt;Node0x5594b2ce6050 -->
<g id="edge14" class="edge">
<title>Node0x5594b2ced740&#45;&gt;Node0x5594b2ce6050</title>
<path fill="none" stroke="#4a6fa5" d="M74.05,-706.01C92.61,-745.57 142.75,-840.06 216.07,-884 266.03,-913.94 335.43,-918.27 376.7,-917.77"/>
<polygon fill="#4a6fa5" stroke="#4a6fa5" points="376.87,-920.22 383.82,-917.64 376.77,-915.32 376.87,-920.22"/>
</g>
<!-- Node0x5594b2ced740&#45;&gt;Node0x5594b2ced6d0 -->
<g id="edge18" class="edge">
<title>Node0x5594b2ced740&#45;&gt;Node0x5594b2ced6d0</title>
<path fill="none" stroke="#4a6fa5" d="M80.93,-706.35C105.64,-735.47 158.2,-791.75 216.07,-819 250.5,-835.21 291.67,-843.38 327.34,-847.44"/>
<polygon fill="#4a6fa5" stroke="#4a6fa5" points="327.18,-849.89 334.4,-848.2 327.7,-845.02 327.18,-849.89"/>
</g>
<!-- Node0x5594b2ced740&#45;&gt;Node0x5594b2cdbea0 -->
<g id="edge33" class="edge">
<title>Node0x5594b2ced740&#45;&gt;Node0x5594b2cdbea0</title>
<path fill="none" stroke="#4a6fa5" d="M100.29,-706.04C130.1,-721.02 174.89,-741.78 216.07,-754 252.7,-764.87 294.36,-772.33 329.78,-777.29"/>
<polygon fill="#4a6fa5" stroke="#4a6fa5" points="329.51,-779.73 336.78,-778.25 330.17,-774.87 329.51,-779.73"/>
</g>
<!-- Node0x5594b2ced740&#45;&gt;Node0x5594b2cd0980 -->
<g id="edge32" class="edge">
<title>Node0x5594b2ced740&#45;&gt;Node0x5594b2cd0980</title>
<path fill="none" stroke="#4a6fa5" d="M69,-706.02C85.47,-806.38 167.53,-1293.48 216.07,-1339 250.11,-1370.91 302.96,-1377.99 345.14,-1377.59"/>
<polygon fill="#4a6fa5" stroke="#4a6fa5" points="345.4,-1380.04 352.35,-1377.45 345.3,-1375.14 345.4,-1380.04"/>
</g>
<!-- Node0x5594b2ced740&#45;&gt;Node0x5594b2c2b530 -->
<g id="edge31" class="edge">
<title>Node0x5594b2ced740&#45;&gt;Node0x5594b2c2b530</title>
<path fill="none" stroke="#4a6fa5" d="M68.06,-706.05C78.32,-795.89 128.25,-1193.61 216.07,-1274 260.32,-1314.5 335.02,-1314.67 378.14,-1310.66"/>
<polygon fill="#4a6fa5" stroke="#4a6fa5" points="378.58,-1313.08 385.3,-1309.93 378.08,-1308.21 378.58,-1313.08"/>
</g>
<!-- Node0x5594b2ced740&#45;&gt;Node0x5594b2c2b240 -->
<g id="edge30" class="edge">
<title>Node0x5594b2ced740&#45;&gt;Node0x5594b2c2b240</title>
<path fill="none" stroke="#4a6fa5" d="M68.7,-706.25C81.15,-790.28 137,-1138.75 216.07,-1209 245.12,-1234.8 286.6,-1244.07 323.89,-1246.36"/>
<polygon fill="#4a6fa5" stroke="#4a6fa5" points="324.17,-1248.83 331.28,-1246.73 324.41,-1243.93 324.17,-1248.83"/>
</g>
<!-- Node0x5594b2ced740&#45;&gt;Node0x5594b2cec960 -->
<g id="edge25" class="edge">
<title>Node0x5594b2ced740&#45;&gt;Node0x5594b2cec960</title>
<path fill="none" stroke="#4a6fa5" d="M65.88,-706.39C66.21,-775.99 77.38,-1025.36 216.07,-1144 249.23,-1172.37 297.55,-1180.47 337.85,-1181.44"/>
<polygon fill="#4a6fa5" stroke="#4a6fa5" points="337.98,-1183.89 345.02,-1181.54 338.05,-1178.99 337.98,-1183.89"/>
</g>
<!-- Node0x5594b2ced740&#45;&gt;Node0x5594b2c2aaa0 -->
<g id="edge26" class="edge">
<title>Node0x5594b2ced740&#45;&gt;Node0x5594b2c2aaa0</title>
<path fill="none" stroke="#4a6fa5" d="M67,-706.39C71.23,-769.65 94.29,-979.84 216.07,-1079 251.12,-1107.53 301.69,-1115.21 342.62,-1115.92"/>
<polygon fill="#4a6fa5" stroke="#4a6fa5" points="342.6,-1118.37 349.62,-1115.97 342.64,-1113.47 342.6,-1118.37"/>
</g>
<!-- Node0x5594b2ced740&#45;&gt;Node0x5594b2c2b3a0 -->
<g id="edge28" class="edge">
<title>Node0x5594b2ced740&#45;&gt;Node0x5594b2c2b3a0</title>
<path fill="none" stroke="#4a6fa5" d="M68.47,-706.09C76.93,-762.12 110.75,-933.78 216.07,-1014 261.08,-1048.28 328.96,-1051.72 371.74,-1049.8"/>
<polygon fill="#4a6fa5" stroke="#4a6fa5" points="372.04,-1052.23 378.9,-1049.41 371.78,-1047.34 372.04,-1052.23"/>
</g>
<!-- Node0x5594b2ced740&#45;&gt;Node0x5594b2ced550 -->
<g id="edge27" class="edge">
<title>Node0x5594b2ced740&#45;&gt;Node0x5594b2ced550</title>
<path fill="none" stroke="#4a6fa5" d="M70.68,-706.26C83.95,-754.77 127.14,-887.41 216.07,-949 252.67,-974.35 302.24,-982.24 342.31,-983.85"/>
<polygon fill="#4a6fa5" stroke="#4a6fa5" points="342.6,-986.31 349.68,-984.09 342.76,-981.42 342.6,-986.31"/>
</g>
<!-- Node0x5594b2ced740&#45;&gt;Node0x5594b2ced740 -->
<g id="edge36" class="edge">
<title>Node0x5594b2ced740&#45;&gt;Node0x5594b2ced740</title>
<path fill="none" stroke="#4a6fa5" d="M13.06,-703.65C-14.77,-718.64 2.56,-735 65.07,-735 122.21,-735 141.61,-721.33 123.26,-707.53"/>
<polygon fill="#4a6fa5" stroke="#4a6fa5" points="124.31,-705.3 117.08,-703.65 121.71,-709.45 124.31,-705.3"/>
</g>
<!-- Node0x5594b2cee620 -->
<g id="node20" class="node">
<title>Node0x5594b2cee620</title>
<path fill="#f0f4ff" stroke="black" d="M431.57,-166C431.57,-166 393.57,-166 393.57,-166 387.57,-166 381.57,-160 381.57,-154 381.57,-154 381.57,-142 381.57,-142 381.57,-136 387.57,-130 393.57,-130 393.57,-130 431.57,-130 431.57,-130 437.57,-130 443.57,-136 443.57,-142 443.57,-142 443.57,-154 443.57,-154 443.57,-160 437.57,-166 431.57,-166"/>
<text text-anchor="middle" x="412.57" y="-145.8" font-family="Courier,monospace" font-size="9.00">{opendir}</text>
</g>
<!-- Node0x5594b2ced740&#45;&gt;Node0x5594b2cee620 -->
<g id="edge15" class="edge">
<title>Node0x5594b2ced740&#45;&gt;Node0x5594b2cee620</title>
<path fill="none" stroke="#4a6fa5" d="M68.83,-669.96C81.74,-587.73 138.96,-249.34 216.07,-181 259.63,-142.4 330.94,-140.39 374.33,-143.48"/>
<polygon fill="#4a6fa5" stroke="#4a6fa5" points="374.14,-145.92 381.31,-144.04 374.53,-141.04 374.14,-145.92"/>
</g>
<!-- Node0x5594b2ceeea0 -->
<g id="node21" class="node">
<title>Node0x5594b2ceeea0</title>
<path fill="#f0f4ff" stroke="black" d="M434.07,-101C434.07,-101 391.07,-101 391.07,-101 385.07,-101 379.07,-95 379.07,-89 379.07,-89 379.07,-77 379.07,-77 379.07,-71 385.07,-65 391.07,-65 391.07,-65 434.07,-65 434.07,-65 440.07,-65 446.07,-71 446.07,-77 446.07,-77 446.07,-89 446.07,-89 446.07,-95 440.07,-101 434.07,-101"/>
<text text-anchor="middle" x="412.57" y="-80.8" font-family="Courier,monospace" font-size="9.00">{closedir}</text>
</g>
<!-- Node0x5594b2ced740&#45;&gt;Node0x5594b2ceeea0 -->
<g id="edge16" class="edge">
<title>Node0x5594b2ced740&#45;&gt;Node0x5594b2ceeea0</title>
<path fill="none" stroke="#4a6fa5" d="M68.21,-669.8C78.99,-581 130.37,-194.38 216.07,-116 258.3,-77.38 328.13,-75 371.9,-78.08"/>
<polygon fill="#4a6fa5" stroke="#4a6fa5" points="371.79,-80.53 378.96,-78.64 372.18,-75.65 371.79,-80.53"/>
</g>
<!-- Node0x5594b2c2eb50 -->
<g id="node22" class="node">
<title>Node0x5594b2c2eb50</title>
<path fill="#f0f4ff" stroke="black" d="M555.07,-36C555.07,-36 270.07,-36 270.07,-36 264.07,-36 258.07,-30 258.07,-24 258.07,-24 258.07,-12 258.07,-12 258.07,-6 264.07,0 270.07,0 270.07,0 555.07,0 555.07,0 561.07,0 567.07,-6 567.07,-12 567.07,-12 567.07,-24 567.07,-24 567.07,-30 561.07,-36 555.07,-36"/>
<text text-anchor="middle" x="412.57" y="-15.8" font-family="Courier,monospace" font-size="9.00">{basic_string&lt;char, std::char_traits &gt;::~basic_string()}</text>
</g>
<!-- Node0x5594b2ced740&#45;&gt;Node0x5594b2c2eb50 -->
<g id="edge17" class="edge">
<title>Node0x5594b2ced740&#45;&gt;Node0x5594b2c2eb50</title>
<path fill="none" stroke="#4a6fa5" d="M67.67,-669.99C76.43,-575.66 121.6,-139.61 216.07,-51 226.34,-41.37 238.3,-33.98 251.17,-28.35"/>
<polygon fill="#4a6fa5" stroke="#4a6fa5" points="252.43,-30.49 257.98,-25.57 250.58,-25.95 252.43,-30.49"/>
</g>
<!-- Node0x5594b2c2e6f0 -->
<g id="node23" class="node">
<title>Node0x5594b2c2e6f0</title>
<path fill="#f0f4ff" stroke="black" d="M431.57,-739C431.57,-739 393.57,-739 393.57,-739 387.57,-739 381.57,-733 381.57,-727 381.57,-727 381.57,-715 381.57,-715 381.57,-709 387.57,-703 393.57,-703 393.57,-703 431.57,-703 431.57,-703 437.57,-703 443.57,-709 443.57,-715 443.57,-715 443.57,-727 443.57,-727 443.57,-733 437.57,-739 431.57,-739"/>
<text text-anchor="middle" x="412.57" y="-718.8" font-family="Courier,monospace" font-size="9.00">{readdir}</text>
</g>
<!-- Node0x5594b2ced740&#45;&gt;Node0x5594b2c2e6f0 -->
<g id="edge19" class="edge">
<title>Node0x5594b2ced740&#45;&gt;Node0x5594b2c2e6f0</title>
<path fill="none" stroke="#4a6fa5" d="M117.43,-692.9C187.69,-699.62 312.15,-711.5 374.21,-717.43"/>
<polygon fill="#4a6fa5" stroke="#4a6fa5" points="374.26,-719.9 381.46,-718.12 374.73,-715.02 374.26,-719.9"/>
</g>
<!-- Node0x5594b2cee360 -->
<g id="node24" class="node">
<title>Node0x5594b2cee360</title>
<path fill="#f0f4ff" stroke="black" d="M534.07,-674C534.07,-674 291.07,-674 291.07,-674 285.07,-674 279.07,-668 279.07,-662 279.07,-662 279.07,-650 279.07,-650 279.07,-644 285.07,-638 291.07,-638 291.07,-638 534.07,-638 534.07,-638 540.07,-638 546.07,-644 546.07,-650 546.07,-650 546.07,-662 546.07,-662 546.07,-668 540.07,-674 534.07,-674"/>
<text text-anchor="middle" x="412.57" y="-653.8" font-family="Courier,monospace" font-size="9.00">{char_traits &gt;::basic_string&lt;std::allocator &gt;()}</text>
</g>
<!-- Node0x5594b2ced740&#45;&gt;Node0x5594b2cee360 -->
<g id="edge20" class="edge">
<title>Node0x5594b2ced740&#45;&gt;Node0x5594b2cee360</title>
<path fill="none" stroke="#4a6fa5" d="M117.43,-683.24C158.26,-679.46 217.38,-673.99 271.93,-668.93"/>
<polygon fill="#4a6fa5" stroke="#4a6fa5" points="272.16,-671.37 278.91,-668.29 271.71,-666.49 272.16,-671.37"/>
</g>
<!-- Node0x5594b2c2e980 -->
<g id="node25" class="node">
<title>Node0x5594b2c2e980</title>
<path fill="#f0f4ff" stroke="black" d="M597.07,-426C597.07,-426 228.07,-426 228.07,-426 222.07,-426 216.07,-420 216.07,-414 216.07,-414 216.07,-402 216.07,-402 216.07,-396 222.07,-390 228.07,-390 228.07,-390 597.07,-390 597.07,-390 603.07,-390 609.07,-396 609.07,-402 609.07,-402 609.07,-414 609.07,-414 609.07,-420 603.07,-426 597.07,-426"/>
<text text-anchor="middle" x="412.57" y="-405.8" font-family="Courier,monospace" font-size="9.00">{std::basic_string&lt;char, std::char_traits &gt; std::operator+&lt;char, std...}</text>
</g>
<!-- Node0x5594b2ced740&#45;&gt;Node0x5594b2c2e980 -->
<g id="edge21" class="edge">
<title>Node0x5594b2ced740&#45;&gt;Node0x5594b2c2e980</title>
<path fill="none" stroke="#4a6fa5" d="M71.32,-669.71C85.76,-623 130.76,-498.88 216.07,-441 222.62,-436.56 229.56,-432.65 236.78,-429.22"/>
<polygon fill="#4a6fa5" stroke="#4a6fa5" points="238.11,-431.3 243.48,-426.19 236.09,-426.84 238.11,-431.3"/>
</g>
<!-- Node0x5594b2c2ede0 -->
<g id="node26" class="node">
<title>Node0x5594b2c2ede0</title>
<path fill="#f0f4ff" stroke="black" d="M597.07,-491C597.07,-491 228.07,-491 228.07,-491 222.07,-491 216.07,-485 216.07,-479 216.07,-479 216.07,-467 216.07,-467 216.07,-461 222.07,-455 228.07,-455 228.07,-455 597.07,-455 597.07,-455 603.07,-455 609.07,-461 609.07,-467 609.07,-467 609.07,-479 609.07,-479 609.07,-485 603.07,-491 597.07,-491"/>
<text text-anchor="middle" x="412.57" y="-470.8" font-family="Courier,monospace" font-size="9.00">{std::basic_string&lt;char, std::char_traits &gt; std::operator+&lt;char, std...}</text>
</g>
<!-- Node0x5594b2ced740&#45;&gt;Node0x5594b2c2ede0 -->
<g id="edge22" class="edge">
<title>Node0x5594b2ced740&#45;&gt;Node0x5594b2c2ede0</title>
<path fill="none" stroke="#4a6fa5" d="M75.95,-669.95C96.73,-633.82 148.66,-552.68 216.07,-513 229.85,-504.89 245.02,-498.4 260.63,-493.22"/>
<polygon fill="#4a6fa5" stroke="#4a6fa5" points="261.41,-495.54 267.34,-491.07 259.92,-490.87 261.41,-495.54"/>
</g>
<!-- Node0x5594b2cee7a0 -->
<g id="node27" class="node">
<title>Node0x5594b2cee7a0</title>
<path fill="#f0f4ff" stroke="black" d="M534.07,-361C534.07,-361 291.07,-361 291.07,-361 285.07,-361 279.07,-355 279.07,-349 279.07,-349 279.07,-337 279.07,-337 279.07,-331 285.07,-325 291.07,-325 291.07,-325 534.07,-325 534.07,-325 540.07,-325 546.07,-331 546.07,-337 546.07,-337 546.07,-349 546.07,-349 546.07,-355 540.07,-361 534.07,-361"/>
<text text-anchor="middle" x="412.57" y="-340.8" font-family="Courier,monospace" font-size="9.00">{basic_string&lt;char, std::char_traits &gt;::c_str()}</text>
</g>
<!-- Node0x5594b2ced740&#45;&gt;Node0x5594b2cee7a0 -->
<g id="edge23" class="edge">
<title>Node0x5594b2ced740&#45;&gt;Node0x5594b2cee7a0</title>
<path fill="none" stroke="#4a6fa5" d="M68.89,-669.92C78.37,-615.52 114.49,-452.41 216.07,-376 232.51,-363.64 251.92,-355.25 272.02,-349.65"/>
<polygon fill="#4a6fa5" stroke="#4a6fa5" points="272.72,-352 278.87,-347.86 271.47,-347.26 272.72,-352"/>
</g>
<!-- Node0x5594b2cee970 -->
<g id="node28" class="node">
<title>Node0x5594b2cee970</title>
<path fill="#f0f4ff" stroke="black" d="M1460.57,-550C1460.57,-550 1217.57,-550 1217.57,-550 1211.57,-550 1205.57,-544 1205.57,-538 1205.57,-538 1205.57,-526 1205.57,-526 1205.57,-520 1211.57,-514 1217.57,-514 1217.57,-514 1460.57,-514 1460.57,-514 1466.57,-514 1472.57,-520 1472.57,-526 1472.57,-526 1472.57,-538 1472.57,-538 1472.57,-544 1466.57,-550 1460.57,-550"/>
<text text-anchor="middle" x="1339.07" y="-529.8" font-family="Courier,monospace" font-size="9.00">{std::__new_allocator&lt;char&gt;::~__new_allocator()}</text>
</g>
<!-- Node0x5594b2ced740&#45;&gt;Node0x5594b2cee970 -->
<g id="edge24" class="edge">
<title>Node0x5594b2ced740&#45;&gt;Node0x5594b2cee970</title>
<path fill="none" stroke="#4a6fa5" d="M81.3,-669.75C106.11,-641.55 158.35,-588.4 216.07,-567 392.02,-501.78 938.15,-514.88 1197.98,-525.37"/>
<polygon fill="#4a6fa5" stroke="#4a6fa5" points="1198.1,-527.83 1205.2,-525.66 1198.3,-522.93 1198.1,-527.83"/>
</g>
<!-- Node0x5594b2c2f260 -->
<g id="node29" class="node">
<title>Node0x5594b2c2f260</title>
<path fill="#f0f4ff" stroke="black" d="M427.57,-296C427.57,-296 397.57,-296 397.57,-296 391.57,-296 385.57,-290 385.57,-284 385.57,-284 385.57,-272 385.57,-272 385.57,-266 391.57,-260 397.57,-260 397.57,-260 427.57,-260 427.57,-260 433.57,-260 439.57,-266 439.57,-272 439.57,-272 439.57,-284 439.57,-284 439.57,-290 433.57,-296 427.57,-296"/>
<text text-anchor="middle" x="412.57" y="-275.8" font-family="Courier,monospace" font-size="9.00">{stat}</text>
</g>
<!-- Node0x5594b2ced740&#45;&gt;Node0x5594b2c2f260 -->
<g id="edge29" class="edge">
<title>Node0x5594b2ced740&#45;&gt;Node0x5594b2c2f260</title>
<path fill="none" stroke="#4a6fa5" d="M67.28,-669.84C72.42,-608.34 98.01,-406.41 216.07,-311 262.64,-273.37 336.18,-271.64 378.54,-274.4"/>
<polygon fill="#4a6fa5" stroke="#4a6fa5" points="378.41,-276.85 385.57,-274.92 378.77,-271.96 378.41,-276.85"/>
</g>
<!-- Node0x5594b2c2efa0 -->
<g id="node30" class="node">
<title>Node0x5594b2c2efa0</title>
<path fill="#f0f4ff" stroke="black" d="M439.57,-231C439.57,-231 385.57,-231 385.57,-231 379.57,-231 373.57,-225 373.57,-219 373.57,-219 373.57,-207 373.57,-207 373.57,-201 379.57,-195 385.57,-195 385.57,-195 439.57,-195 439.57,-195 445.57,-195 451.57,-201 451.57,-207 451.57,-207 451.57,-219 451.57,-219 451.57,-225 445.57,-231 439.57,-231"/>
<text text-anchor="middle" x="412.57" y="-210.8" font-family="Courier,monospace" font-size="9.00">{strcasecmp}</text>
</g>
<!-- Node0x5594b2ced740&#45;&gt;Node0x5594b2c2efa0 -->
<g id="edge34" class="edge">
<title>Node0x5594b2ced740&#45;&gt;Node0x5594b2c2efa0</title>
<path fill="none" stroke="#4a6fa5" d="M66.11,-669.72C67.31,-601.62 81.27,-360.8 216.07,-246 257.65,-210.59 322.79,-206.4 366.31,-208.33"/>
<polygon fill="#4a6fa5" stroke="#4a6fa5" points="366.25,-210.78 373.37,-208.7 366.51,-205.88 366.25,-210.78"/>
</g>
<!-- Node0x5594b2c2fa30 -->
<g id="node31" class="node">
<title>Node0x5594b2c2fa30</title>
<path fill="#f0f4ff" stroke="black" d="M1355.57,-615C1355.57,-615 1322.57,-615 1322.57,-615 1316.57,-615 1310.57,-609 1310.57,-603 1310.57,-603 1310.57,-591 1310.57,-591 1310.57,-585 1316.57,-579 1322.57,-579 1322.57,-579 1355.57,-579 1355.57,-579 1361.57,-579 1367.57,-585 1367.57,-591 1367.57,-591 1367.57,-603 1367.57,-603 1367.57,-609 1361.57,-615 1355.57,-615"/>
<text text-anchor="middle" x="1339.07" y="-594.8" font-family="Courier,monospace" font-size="9.00">{strlen}</text>
</g>
<!-- Node0x5594b2ced740&#45;&gt;Node0x5594b2c2fa30 -->
<g id="edge35" class="edge">
<title>Node0x5594b2ced740&#45;&gt;Node0x5594b2c2fa30</title>
<path fill="none" stroke="#4a6fa5" d="M98.53,-669.87C128.13,-654.39 173.6,-633.22 216.07,-624 635.58,-532.97 1164,-578.62 1303.19,-593.12"/>
<polygon fill="#4a6fa5" stroke="#4a6fa5" points="1303.07,-595.57 1310.28,-593.87 1303.58,-590.7 1303.07,-595.57"/>
</g>
<!-- Node0x5594b2c30430 -->
<g id="node35" class="node">
<title>Node0x5594b2c30430</title>
<path fill="#f0f4ff" stroke="black" d="M1023.57,-739C1023.57,-739 738.57,-739 738.57,-739 732.57,-739 726.57,-733 726.57,-727 726.57,-727 726.57,-715 726.57,-715 726.57,-709 732.57,-703 738.57,-703 738.57,-703 1023.57,-703 1023.57,-703 1029.57,-703 1035.57,-709 1035.57,-715 1035.57,-715 1035.57,-727 1035.57,-727 1035.57,-733 1029.57,-739 1023.57,-739"/>
<text text-anchor="middle" x="881.07" y="-718.8" font-family="Courier,monospace" font-size="9.00">{basic_string&lt;char, std::char_traits &gt;::_M_local_data()}</text>
</g>
<!-- Node0x5594b2cee360&#45;&gt;Node0x5594b2c30430 -->
<g id="edge44" class="edge">
<title>Node0x5594b2cee360&#45;&gt;Node0x5594b2c30430</title>
<path fill="none" stroke="#4a6fa5" d="M542.9,-674.02C605.21,-682.7 679.97,-693.12 743.23,-701.93"/>
<polygon fill="#4a6fa5" stroke="#4a6fa5" points="743.22,-704.41 750.5,-702.95 743.9,-699.55 743.22,-704.41"/>
</g>
<!-- Node0x5594b2cf0400 -->
<g id="node36" class="node">
<title>Node0x5594b2cf0400</title>
<path fill="#f0f4ff" stroke="black" d="M994.57,-999C994.57,-999 767.57,-999 767.57,-999 761.57,-999 755.57,-993 755.57,-987 755.57,-987 755.57,-975 755.57,-975 755.57,-969 761.57,-963 767.57,-963 767.57,-963 994.57,-963 994.57,-963 1000.57,-963 1006.57,-969 1006.57,-975 1006.57,-975 1006.57,-987 1006.57,-987 1006.57,-993 1000.57,-999 994.57,-999"/>
<text text-anchor="middle" x="881.07" y="-978.8" font-family="Courier,monospace" font-size="9.00">{char_traits &gt;::_Alloc_hider::_Alloc_hider()}</text>
</g>
<!-- Node0x5594b2cee360&#45;&gt;Node0x5594b2cf0400 -->
<g id="edge45" class="edge">
<title>Node0x5594b2cee360&#45;&gt;Node0x5594b2cf0400</title>
<path fill="none" stroke="#4a6fa5" d="M546.28,-658.59C569.19,-664.28 591.31,-673.76 609.07,-689 701.43,-768.27 602.88,-869.54 695.07,-949 710.31,-962.13 728.96,-970.79 748.48,-976.38"/>
<polygon fill="#4a6fa5" stroke="#4a6fa5" points="748.02,-978.79 755.42,-978.22 749.29,-974.05 748.02,-978.79"/>
</g>
<!-- Node0x5594b2c308f0 -->
<g id="node37" class="node">
<title>Node0x5594b2c308f0</title>
<path fill="#f0f4ff" stroke="black" d="M950.07,-934C950.07,-934 812.07,-934 812.07,-934 806.07,-934 800.07,-928 800.07,-922 800.07,-922 800.07,-910 800.07,-910 800.07,-904 806.07,-898 812.07,-898 812.07,-898 950.07,-898 950.07,-898 956.07,-898 962.07,-904 962.07,-910 962.07,-910 962.07,-922 962.07,-922 962.07,-928 956.07,-934 950.07,-934"/>
<text text-anchor="middle" x="881.07" y="-913.8" font-family="Courier,monospace" font-size="9.00">{std::__throw_logic_error()}</text>
</g>
<!-- Node0x5594b2cee360&#45;&gt;Node0x5594b2c308f0 -->
<g id="edge46" class="edge">
<title>Node0x5594b2cee360&#45;&gt;Node0x5594b2c308f0</title>
<path fill="none" stroke="#4a6fa5" d="M546.15,-660.24C568.81,-665.83 590.87,-674.84 609.07,-689 683.83,-747.17 620.44,-825.67 695.07,-884 722.53,-905.45 759.31,-914.57 792.84,-917.91"/>
<polygon fill="#4a6fa5" stroke="#4a6fa5" points="792.76,-920.37 799.95,-918.54 793.19,-915.48 792.76,-920.37"/>
</g>
<!-- Node0x5594b2c30690 -->
<g id="node38" class="node">
<title>Node0x5594b2c30690</title>
<path fill="#f0f4ff" stroke="black" d="M997.07,-674C997.07,-674 765.07,-674 765.07,-674 759.07,-674 753.07,-668 753.07,-662 753.07,-662 753.07,-650 753.07,-650 753.07,-644 759.07,-638 765.07,-638 765.07,-638 997.07,-638 997.07,-638 1003.07,-638 1009.07,-644 1009.07,-650 1009.07,-650 1009.07,-662 1009.07,-662 1009.07,-668 1003.07,-674 997.07,-674"/>
<text text-anchor="middle" x="881.07" y="-653.8" font-family="Courier,monospace" font-size="9.00">{char_traits &gt;::_Alloc_hider::~_Alloc_hider()}</text>
</g>
<!-- Node0x5594b2cee360&#45;&gt;Node0x5594b2c30690 -->
<g id="edge47" class="edge">
<title>Node0x5594b2cee360&#45;&gt;Node0x5594b2c30690</title>
<path fill="none" stroke="#4a6fa5" d="M546.32,-656C608.69,-656 682.92,-656 745.52,-656"/>
<polygon fill="#4a6fa5" stroke="#4a6fa5" points="745.7,-658.45 752.7,-656 745.7,-653.55 745.7,-658.45"/>
</g>
<!-- Node0x5594b2c3a0d0 -->
<g id="node39" class="node">
<title>Node0x5594b2c3a0d0</title>
<path fill="#f0f4ff" stroke="black" d="M965.57,-804C965.57,-804 796.57,-804 796.57,-804 790.57,-804 784.57,-798 784.57,-792 784.57,-792 784.57,-780 784.57,-780 784.57,-774 790.57,-768 796.57,-768 796.57,-768 965.57,-768 965.57,-768 971.57,-768 977.57,-774 977.57,-780 977.57,-780 977.57,-792 977.57,-792 977.57,-798 971.57,-804 965.57,-804"/>
<text text-anchor="middle" x="881.07" y="-783.8" font-family="Courier,monospace" font-size="9.00">{std::char_traits&lt;char&gt;::length()}</text>
</g>
<!-- Node0x5594b2cee360&#45;&gt;Node0x5594b2c3a0d0 -->
<g id="edge48" class="edge">
<title>Node0x5594b2cee360&#45;&gt;Node0x5594b2c3a0d0</title>
<path fill="none" stroke="#4a6fa5" d="M546.21,-669.51C567.73,-674.2 589.4,-680.51 609.07,-689 653.07,-707.98 651.12,-734.94 695.07,-754 720.71,-765.12 749.93,-772.38 777.45,-777.12"/>
<polygon fill="#4a6fa5" stroke="#4a6fa5" points="777.1,-779.55 784.4,-778.27 777.9,-774.71 777.1,-779.55"/>
</g>
<!-- Node0x5594b2c31aa0 -->
<g id="node40" class="node">
<title>Node0x5594b2c31aa0</title>
<path fill="#f0f4ff" stroke="black" d="M1055.07,-869C1055.07,-869 707.07,-869 707.07,-869 701.07,-869 695.07,-863 695.07,-857 695.07,-857 695.07,-845 695.07,-845 695.07,-839 701.07,-833 707.07,-833 707.07,-833 1055.07,-833 1055.07,-833 1061.07,-833 1067.07,-839 1067.07,-845 1067.07,-845 1067.07,-857 1067.07,-857 1067.07,-863 1061.07,-869 1055.07,-869"/>
<text text-anchor="middle" x="881.07" y="-848.8" font-family="Courier,monospace" font-size="9.00">{basic_string&lt;char, std::char_traits &gt;::_M_construct&lt;char const*&gt;()}</text>
</g>
<!-- Node0x5594b2cee360&#45;&gt;Node0x5594b2c31aa0 -->
<g id="edge49" class="edge">
<title>Node0x5594b2cee360&#45;&gt;Node0x5594b2c31aa0</title>
<path fill="none" stroke="#4a6fa5" d="M546.09,-663.26C568.32,-668.6 590.25,-676.75 609.07,-689 667.14,-726.78 637.08,-781.1 695.07,-819 701.45,-823.16 708.19,-826.83 715.2,-830.07"/>
<polygon fill="#4a6fa5" stroke="#4a6fa5" points="714.3,-832.35 721.7,-832.91 716.27,-827.86 714.3,-832.35"/>
</g>
<!-- Node0x5594b2c2fea0 -->
<g id="node33" class="node">
<title>Node0x5594b2c2fea0</title>
<path fill="#f0f4ff" stroke="black" d="M1020.57,-231C1020.57,-231 741.57,-231 741.57,-231 735.57,-231 729.57,-225 729.57,-219 729.57,-219 729.57,-207 729.57,-207 729.57,-201 735.57,-195 741.57,-195 741.57,-195 1020.57,-195 1020.57,-195 1026.57,-195 1032.57,-201 1032.57,-207 1032.57,-207 1032.57,-219 1032.57,-219 1032.57,-225 1026.57,-231 1020.57,-231"/>
<text text-anchor="middle" x="881.07" y="-210.8" font-family="Courier,monospace" font-size="9.00">{basic_string&lt;char, std::char_traits &gt;::basic_string()}</text>
</g>
<!-- Node0x5594b2c2e980&#45;&gt;Node0x5594b2c2fea0 -->
<g id="edge43" class="edge">
<title>Node0x5594b2c2e980&#45;&gt;Node0x5594b2c2fea0</title>
<path fill="none" stroke="#4a6fa5" d="M582.36,-389.92C591.71,-386.02 600.7,-381.42 609.07,-376 667.24,-338.37 637.18,-284.05 695.07,-246 703.71,-240.32 713.05,-235.54 722.77,-231.53"/>
<polygon fill="#4a6fa5" stroke="#4a6fa5" points="723.94,-233.7 729.57,-228.87 722.15,-229.14 723.94,-233.7"/>
</g>
<!-- Node0x5594b2c31090 -->
<g id="node34" class="node">
<title>Node0x5594b2c31090</title>
<path fill="#f0f4ff" stroke="black" d="M1005.07,-166C1005.07,-166 757.07,-166 757.07,-166 751.07,-166 745.07,-160 745.07,-154 745.07,-154 745.07,-142 745.07,-142 745.07,-136 751.07,-130 757.07,-130 757.07,-130 1005.07,-130 1005.07,-130 1011.07,-130 1017.07,-136 1017.07,-142 1017.07,-142 1017.07,-154 1017.07,-154 1017.07,-160 1011.07,-166 1005.07,-166"/>
<text text-anchor="middle" x="881.07" y="-145.8" font-family="Courier,monospace" font-size="9.00">{basic_string&lt;char, std::char_traits &gt;::append()}</text>
</g>
<!-- Node0x5594b2c2e980&#45;&gt;Node0x5594b2c31090 -->
<g id="edge42" class="edge">
<title>Node0x5594b2c2e980&#45;&gt;Node0x5594b2c31090</title>
<path fill="none" stroke="#4a6fa5" d="M586.78,-389.95C594.65,-385.99 602.14,-381.37 609.07,-376 683.97,-318.01 620.59,-239.52 695.07,-181 707.87,-170.95 722.7,-163.56 738.29,-158.18"/>
<polygon fill="#4a6fa5" stroke="#4a6fa5" points="739.11,-160.49 745.01,-155.99 737.6,-155.83 739.11,-160.49"/>
</g>
<!-- Node0x5594b2c2ede0&#45;&gt;Node0x5594b2cf0170 -->
<g id="edge39" class="edge">
<title>Node0x5594b2c2ede0&#45;&gt;Node0x5594b2cf0170</title>
<path fill="none" stroke="#4a6fa5" d="M609.38,-473C650.7,-473 693.62,-473 732.78,-473"/>
<polygon fill="#4a6fa5" stroke="#4a6fa5" points="733.05,-475.45 740.05,-473 733.05,-470.55 733.05,-475.45"/>
</g>
<!-- Node0x5594b2c2ede0&#45;&gt;Node0x5594b2c304b0 -->
<g id="edge41" class="edge">
<title>Node0x5594b2c2ede0&#45;&gt;Node0x5594b2c304b0</title>
<path fill="none" stroke="#4a6fa5" d="M542.9,-454.98C605.21,-446.3 679.97,-435.88 743.23,-427.07"/>
<polygon fill="#4a6fa5" stroke="#4a6fa5" points="743.9,-429.45 750.5,-426.05 743.22,-424.59 743.9,-429.45"/>
</g>
<!-- Node0x5594b2c2ede0&#45;&gt;Node0x5594b2c2fbe0 -->
<g id="edge40" class="edge">
<title>Node0x5594b2c2ede0&#45;&gt;Node0x5594b2c2fbe0</title>
<path fill="none" stroke="#4a6fa5" d="M568.21,-454.95C582.29,-451.15 596.11,-446.55 609.07,-441 653.11,-422.13 651.17,-395.18 695.07,-376 708.68,-370.05 723.31,-365.18 738.15,-361.18"/>
<polygon fill="#4a6fa5" stroke="#4a6fa5" points="738.82,-363.54 744.98,-359.41 737.59,-358.8 738.82,-363.54"/>
</g>
<!-- Node0x5594b2c2f5e0 -->
<g id="node32" class="node">
<title>Node0x5594b2c2f5e0</title>
<path fill="#f0f4ff" stroke="black" d="M999.57,-296C999.57,-296 762.57,-296 762.57,-296 756.57,-296 750.57,-290 750.57,-284 750.57,-284 750.57,-272 750.57,-272 750.57,-266 756.57,-260 762.57,-260 762.57,-260 999.57,-260 999.57,-260 1005.57,-260 1011.57,-266 1011.57,-272 1011.57,-272 1011.57,-284 1011.57,-284 1011.57,-290 1005.57,-296 999.57,-296"/>
<text text-anchor="middle" x="881.07" y="-275.8" font-family="Courier,monospace" font-size="9.00">{basic_string&lt;char, std::char_traits &gt;::size()}</text>
</g>
<!-- Node0x5594b2c2ede0&#45;&gt;Node0x5594b2c2f5e0 -->
<g id="edge37" class="edge">
<title>Node0x5594b2c2ede0&#45;&gt;Node0x5594b2c2f5e0</title>
<path fill="none" stroke="#4a6fa5" d="M582.36,-454.92C591.71,-451.02 600.7,-446.42 609.07,-441 667.24,-403.37 637.18,-349.05 695.07,-311 709.76,-301.35 726.45,-294.3 743.65,-289.18"/>
<polygon fill="#4a6fa5" stroke="#4a6fa5" points="744.46,-291.5 750.53,-287.25 743.13,-286.79 744.46,-291.5"/>
</g>
<!-- Node0x5594b2c2ede0&#45;&gt;Node0x5594b2c2fea0 -->
<g id="edge38" class="edge">
<title>Node0x5594b2c2ede0&#45;&gt;Node0x5594b2c2fea0</title>
<path fill="none" stroke="#4a6fa5" d="M586.78,-454.95C594.65,-450.99 602.14,-446.37 609.07,-441 683.97,-383.01 620.59,-304.52 695.07,-246 703.49,-239.39 712.79,-233.93 722.61,-229.43"/>
<polygon fill="#4a6fa5" stroke="#4a6fa5" points="723.67,-231.64 729.13,-226.62 721.73,-227.14 723.67,-231.64"/>
</g>
<!-- Node0x5594b2c30690&#45;&gt;Node0x5594b2cee970 -->
<g id="edge60" class="edge">
<title>Node0x5594b2c30690&#45;&gt;Node0x5594b2cee970</title>
<path fill="none" stroke="#4a6fa5" d="M928.93,-637.91C982.46,-617.8 1073.01,-585.46 1153.07,-565 1172.81,-559.96 1193.93,-555.41 1214.57,-551.42"/>
<polygon fill="#4a6fa5" stroke="#4a6fa5" points="1215.14,-553.8 1221.55,-550.08 1214.22,-548.99 1215.14,-553.8"/>
</g>
<!-- Node0x5594b2c3a0d0&#45;&gt;Node0x5594b2c2fa30 -->
<g id="edge51" class="edge">
<title>Node0x5594b2c3a0d0&#45;&gt;Node0x5594b2c2fa30</title>
<path fill="none" stroke="#4a6fa5" d="M977.62,-783.85C1008.08,-779.54 1040.69,-770.83 1067.07,-754 1123.62,-717.93 1096.63,-666.22 1153.07,-630 1198.96,-600.56 1263.76,-595.49 1303.24,-595.52"/>
<polygon fill="#4a6fa5" stroke="#4a6fa5" points="1303.28,-597.97 1310.3,-595.58 1303.33,-593.07 1303.28,-597.97"/>
</g>
<!-- Node0x5594b2c30b50 -->
<g id="node41" class="node">
<title>Node0x5594b2c30b50</title>
<path fill="#f0f4ff" stroke="black" d="M1471.07,-745C1471.07,-745 1207.07,-745 1207.07,-745 1201.07,-745 1195.07,-739 1195.07,-733 1195.07,-733 1195.07,-721 1195.07,-721 1195.07,-715 1201.07,-709 1207.07,-709 1207.07,-709 1471.07,-709 1471.07,-709 1477.07,-709 1483.07,-715 1483.07,-721 1483.07,-721 1483.07,-733 1483.07,-733 1483.07,-739 1477.07,-745 1471.07,-745"/>
<text text-anchor="middle" x="1339.07" y="-724.8" font-family="Courier,monospace" font-size="9.00">{basic_string&lt;char, std::char_traits &gt;::_M_create()}</text>
</g>
<!-- Node0x5594b2c31aa0&#45;&gt;Node0x5594b2c30b50 -->
<g id="edge52" class="edge">
<title>Node0x5594b2c31aa0&#45;&gt;Node0x5594b2c30b50</title>
<path fill="none" stroke="#4a6fa5" d="M1024.24,-832.88C1038.96,-829.1 1053.49,-824.53 1067.07,-819 1110.01,-801.54 1110.18,-777.58 1153.07,-760 1165.54,-754.89 1178.8,-750.57 1192.27,-746.92"/>
<polygon fill="#4a6fa5" stroke="#4a6fa5" points="1193.18,-749.21 1199.34,-745.07 1191.94,-744.47 1193.18,-749.21"/>
</g>
<!-- Node0x5594b2cf0630 -->
<g id="node42" class="node">
<title>Node0x5594b2cf0630</title>
<path fill="#f0f4ff" stroke="black" d="M1465.57,-680C1465.57,-680 1212.57,-680 1212.57,-680 1206.57,-680 1200.57,-674 1200.57,-668 1200.57,-668 1200.57,-656 1200.57,-656 1200.57,-650 1206.57,-644 1212.57,-644 1212.57,-644 1465.57,-644 1465.57,-644 1471.57,-644 1477.57,-650 1477.57,-656 1477.57,-656 1477.57,-668 1477.57,-668 1477.57,-674 1471.57,-680 1465.57,-680"/>
<text text-anchor="middle" x="1339.07" y="-659.8" font-family="Courier,monospace" font-size="9.00">{basic_string&lt;char, std::char_traits &gt;::_M_data()}</text>
</g>
<!-- Node0x5594b2c31aa0&#45;&gt;Node0x5594b2cf0630 -->
<g id="edge53" class="edge">
<title>Node0x5594b2c31aa0&#45;&gt;Node0x5594b2cf0630</title>
<path fill="none" stroke="#4a6fa5" d="M1039.85,-832.89C1049.39,-829.02 1058.55,-824.43 1067.07,-819 1123.62,-782.93 1096.63,-731.22 1153.07,-695 1165.46,-687.05 1179.23,-680.88 1193.51,-676.1"/>
<polygon fill="#4a6fa5" stroke="#4a6fa5" points="1194.62,-678.32 1200.55,-673.87 1193.14,-673.65 1194.62,-678.32"/>
</g>
<!-- Node0x5594b2c32be0 -->
<g id="node43" class="node">
<title>Node0x5594b2c32be0</title>
<path fill="#f0f4ff" stroke="black" d="M1476.07,-1135C1476.07,-1135 1202.07,-1135 1202.07,-1135 1196.07,-1135 1190.07,-1129 1190.07,-1123 1190.07,-1123 1190.07,-1111 1190.07,-1111 1190.07,-1105 1196.07,-1099 1202.07,-1099 1202.07,-1099 1476.07,-1099 1476.07,-1099 1482.07,-1099 1488.07,-1105 1488.07,-1111 1488.07,-1111 1488.07,-1123 1488.07,-1123 1488.07,-1129 1482.07,-1135 1476.07,-1135"/>
<text text-anchor="middle" x="1339.07" y="-1114.8" font-family="Courier,monospace" font-size="9.00">{basic_string&lt;char, std::char_traits &gt;::_M_capacity()}</text>
</g>
<!-- Node0x5594b2c31aa0&#45;&gt;Node0x5594b2c32be0 -->
<g id="edge54" class="edge">
<title>Node0x5594b2c31aa0&#45;&gt;Node0x5594b2c32be0</title>
<path fill="none" stroke="#4a6fa5" d="M1043.46,-869.16C1051.84,-873.31 1059.79,-878.21 1067.07,-884 1143.14,-944.45 1076.85,-1024.75 1153.07,-1085 1162.18,-1092.2 1172.33,-1098.01 1183.06,-1102.69"/>
<polygon fill="#4a6fa5" stroke="#4a6fa5" points="1182.41,-1105.07 1189.81,-1105.46 1184.27,-1100.53 1182.41,-1105.07"/>
</g>
<!-- Node0x5594b2c32d90 -->
<g id="node44" class="node">
<title>Node0x5594b2c32d90</title>
<path fill="#f0f4ff" stroke="black" d="M1513.07,-1070C1513.07,-1070 1165.07,-1070 1165.07,-1070 1159.07,-1070 1153.07,-1064 1153.07,-1058 1153.07,-1058 1153.07,-1046 1153.07,-1046 1153.07,-1040 1159.07,-1034 1165.07,-1034 1165.07,-1034 1513.07,-1034 1513.07,-1034 1519.07,-1034 1525.07,-1040 1525.07,-1046 1525.07,-1046 1525.07,-1058 1525.07,-1058 1525.07,-1064 1519.07,-1070 1513.07,-1070"/>
<text text-anchor="middle" x="1339.07" y="-1049.8" font-family="Courier,monospace" font-size="9.00">{basic_string&lt;char, std::char_traits &gt;::_M_construct&lt;char const*&gt;()}</text>
</g>
<!-- Node0x5594b2c31aa0&#45;&gt;Node0x5594b2c32d90 -->
<g id="edge55" class="edge">
<title>Node0x5594b2c31aa0&#45;&gt;Node0x5594b2c32d90</title>
<path fill="none" stroke="#4a6fa5" d="M1038.76,-869.02C1048.73,-873.14 1058.27,-878.09 1067.07,-884 1126.43,-923.89 1093.61,-980.26 1153.07,-1020 1159.17,-1024.07 1165.63,-1027.68 1172.33,-1030.87"/>
<polygon fill="#4a6fa5" stroke="#4a6fa5" points="1171.72,-1033.28 1179.11,-1033.92 1173.73,-1028.81 1171.72,-1033.28"/>
</g>
<!-- Node0x5594b2c326d0 -->
<g id="node45" class="node">
<title>Node0x5594b2c326d0</title>
<path fill="#f0f4ff" stroke="black" d="M1465.57,-1005C1465.57,-1005 1212.57,-1005 1212.57,-1005 1206.57,-1005 1200.57,-999 1200.57,-993 1200.57,-993 1200.57,-981 1200.57,-981 1200.57,-975 1206.57,-969 1212.57,-969 1212.57,-969 1465.57,-969 1465.57,-969 1471.57,-969 1477.57,-975 1477.57,-981 1477.57,-981 1477.57,-993 1477.57,-993 1477.57,-999 1471.57,-1005 1465.57,-1005"/>
<text text-anchor="middle" x="1339.07" y="-984.8" font-family="Courier,monospace" font-size="9.00">{basic_string&lt;char, std::char_traits &gt;::_M_data()}</text>
</g>
<!-- Node0x5594b2c31aa0&#45;&gt;Node0x5594b2c326d0 -->
<g id="edge56" class="edge">
<title>Node0x5594b2c31aa0&#45;&gt;Node0x5594b2c326d0</title>
<path fill="none" stroke="#4a6fa5" d="M1025.75,-869.01C1040.03,-873.04 1054.05,-877.97 1067.07,-884 1112.06,-904.81 1108.04,-934.31 1153.07,-955 1165.8,-960.85 1179.47,-965.63 1193.4,-969.55"/>
<polygon fill="#4a6fa5" stroke="#4a6fa5" points="1192.86,-971.94 1200.26,-971.4 1194.14,-967.21 1192.86,-971.94"/>
</g>
<!-- Node0x5594b2cf1cc0 -->
<g id="node46" class="node">
<title>Node0x5594b2cf1cc0</title>
<path fill="#f0f4ff" stroke="black" d="M1481.57,-940C1481.57,-940 1196.57,-940 1196.57,-940 1190.57,-940 1184.57,-934 1184.57,-928 1184.57,-928 1184.57,-916 1184.57,-916 1184.57,-910 1190.57,-904 1196.57,-904 1196.57,-904 1481.57,-904 1481.57,-904 1487.57,-904 1493.57,-910 1493.57,-916 1493.57,-916 1493.57,-928 1493.57,-928 1493.57,-934 1487.57,-940 1481.57,-940"/>
<text text-anchor="middle" x="1339.07" y="-919.8" font-family="Courier,monospace" font-size="9.00">{basic_string&lt;char, std::char_traits &gt;::_S_copy_chars()}</text>
</g>
<!-- Node0x5594b2c31aa0&#45;&gt;Node0x5594b2cf1cc0 -->
<g id="edge57" class="edge">
<title>Node0x5594b2c31aa0&#45;&gt;Node0x5594b2cf1cc0</title>
<path fill="none" stroke="#4a6fa5" d="M997.73,-869.01C1064.05,-879.33 1147.27,-892.29 1214.82,-902.81"/>
<polygon fill="#4a6fa5" stroke="#4a6fa5" points="1214.85,-905.29 1222.14,-903.95 1215.6,-900.45 1214.85,-905.29"/>
</g>
<!-- Node0x5594b2c33270 -->
<g id="node47" class="node">
<title>Node0x5594b2c33270</title>
<path fill="#f0f4ff" stroke="black" d="M1481.57,-875C1481.57,-875 1196.57,-875 1196.57,-875 1190.57,-875 1184.57,-869 1184.57,-863 1184.57,-863 1184.57,-851 1184.57,-851 1184.57,-845 1190.57,-839 1196.57,-839 1196.57,-839 1481.57,-839 1481.57,-839 1487.57,-839 1493.57,-845 1493.57,-851 1493.57,-851 1493.57,-863 1493.57,-863 1493.57,-869 1487.57,-875 1481.57,-875"/>
<text text-anchor="middle" x="1339.07" y="-854.8" font-family="Courier,monospace" font-size="9.00">{basic_string&lt;char, std::char_traits &gt;::_M_set_length()}</text>
</g>
<!-- Node0x5594b2c31aa0&#45;&gt;Node0x5594b2c33270 -->
<g id="edge58" class="edge">
<title>Node0x5594b2c31aa0&#45;&gt;Node0x5594b2c33270</title>
<path fill="none" stroke="#4a6fa5" d="M1067.22,-853.44C1103.65,-853.92 1141.59,-854.41 1177.15,-854.88"/>
<polygon fill="#4a6fa5" stroke="#4a6fa5" points="1177.2,-857.33 1184.23,-854.98 1177.26,-852.43 1177.2,-857.33"/>
</g>
<!-- Node0x5594b2cf2420 -->
<g id="node48" class="node">
<title>Node0x5594b2cf2420</title>
<path fill="#f0f4ff" stroke="black" d="M1513.07,-810C1513.07,-810 1165.07,-810 1165.07,-810 1159.07,-810 1153.07,-804 1153.07,-798 1153.07,-798 1153.07,-786 1153.07,-786 1153.07,-780 1159.07,-774 1165.07,-774 1165.07,-774 1513.07,-774 1513.07,-774 1519.07,-774 1525.07,-780 1525.07,-786 1525.07,-786 1525.07,-798 1525.07,-798 1525.07,-804 1519.07,-810 1513.07,-810"/>
<text text-anchor="middle" x="1339.07" y="-789.8" font-family="Courier,monospace" font-size="9.00">{basic_string&lt;char, std::char_traits &gt;::_M_construct&lt;char const*&gt;()}</text>
</g>
<!-- Node0x5594b2c31aa0&#45;&gt;Node0x5594b2cf2420 -->
<g id="edge59" class="edge">
<title>Node0x5594b2c31aa0&#45;&gt;Node0x5594b2cf2420</title>
<path fill="none" stroke="#4a6fa5" d="M1021.37,-832.98C1075.37,-825.99 1137.24,-817.99 1191.88,-810.92"/>
<polygon fill="#4a6fa5" stroke="#4a6fa5" points="1192.22,-813.34 1198.85,-810.01 1191.59,-808.48 1192.22,-813.34"/>
</g>
<!-- Node0x5594b2c336f0 -->
<g id="node49" class="node">
<title>Node0x5594b2c336f0</title>
<path fill="#f0f4ff" stroke="black" d="M1892.07,-842C1892.07,-842 1623.07,-842 1623.07,-842 1617.07,-842 1611.07,-836 1611.07,-830 1611.07,-830 1611.07,-818 1611.07,-818 1611.07,-812 1617.07,-806 1623.07,-806 1623.07,-806 1892.07,-806 1892.07,-806 1898.07,-806 1904.07,-812 1904.07,-818 1904.07,-818 1904.07,-830 1904.07,-830 1904.07,-836 1898.07,-842 1892.07,-842"/>
<text text-anchor="middle" x="1757.57" y="-821.8" font-family="Courier,monospace" font-size="9.00">{basic_string&lt;char, std::char_traits &gt;::_M_dispose()}</text>
</g>
<!-- Node0x5594b2cf2420&#45;&gt;Node0x5594b2c336f0 -->
<g id="edge61" class="edge">
<title>Node0x5594b2cf2420&#45;&gt;Node0x5594b2c336f0</title>
<path fill="none" stroke="#4a6fa5" d="M1525.18,-806.22C1551.4,-808.24 1578.1,-810.29 1603.62,-812.25"/>
<polygon fill="#4a6fa5" stroke="#4a6fa5" points="1603.62,-814.71 1610.78,-812.8 1603.99,-809.82 1603.62,-814.71"/>
</g>
<!-- Node0x5594b2c334a0 -->
<g id="node50" class="node">
<title>Node0x5594b2c334a0</title>
<path fill="#f0f4ff" stroke="black" d="M1816.07,-777C1816.07,-777 1699.07,-777 1699.07,-777 1693.07,-777 1687.07,-771 1687.07,-765 1687.07,-765 1687.07,-753 1687.07,-753 1687.07,-747 1693.07,-741 1699.07,-741 1699.07,-741 1816.07,-741 1816.07,-741 1822.07,-741 1828.07,-747 1828.07,-753 1828.07,-753 1828.07,-765 1828.07,-765 1828.07,-771 1822.07,-777 1816.07,-777"/>
<text text-anchor="middle" x="1757.57" y="-756.8" font-family="Courier,monospace" font-size="9.00">{__clang_call_terminate}</text>
</g>
<!-- Node0x5594b2cf2420&#45;&gt;Node0x5594b2c334a0 -->
<g id="edge62" class="edge">
<title>Node0x5594b2cf2420&#45;&gt;Node0x5594b2c334a0</title>
<path fill="none" stroke="#4a6fa5" d="M1525.18,-777.33C1579.62,-773.02 1636.19,-768.54 1679.77,-765.09"/>
<polygon fill="#4a6fa5" stroke="#4a6fa5" points="1680.14,-767.51 1686.92,-764.52 1679.75,-762.63 1680.14,-767.51"/>
</g>
<!-- Node0x5594b2c32b60 -->
<g id="node51" class="node">
<title>Node0x5594b2c32b60</title>
<path fill="#f0f4ff" stroke="black" d="M2092.07,-810C2092.07,-810 2002.07,-810 2002.07,-810 1996.07,-810 1990.07,-804 1990.07,-798 1990.07,-798 1990.07,-786 1990.07,-786 1990.07,-780 1996.07,-774 2002.07,-774 2002.07,-774 2092.07,-774 2092.07,-774 2098.07,-774 2104.07,-780 2104.07,-786 2104.07,-786 2104.07,-798 2104.07,-798 2104.07,-804 2098.07,-810 2092.07,-810"/>
<text text-anchor="middle" x="2047.07" y="-789.8" font-family="Courier,monospace" font-size="9.00">{__cxa_begin_catch}</text>
</g>
<!-- Node0x5594b2c334a0&#45;&gt;Node0x5594b2c32b60 -->
<g id="edge63" class="edge">
<title>Node0x5594b2c334a0&#45;&gt;Node0x5594b2c32b60</title>
<path fill="none" stroke="#4a6fa5" d="M1828.17,-766.99C1875.18,-772.38 1936.75,-779.45 1982.45,-784.7"/>
<polygon fill="#4a6fa5" stroke="#4a6fa5" points="1982.41,-787.16 1989.65,-785.52 1982.97,-782.29 1982.41,-787.16"/>
</g>
<!-- Node0x5594b2c348c0 -->
<g id="node52" class="node">
<title>Node0x5594b2c348c0</title>
<path fill="#f0f4ff" stroke="black" d="M2089.57,-745C2089.57,-745 2004.57,-745 2004.57,-745 1998.57,-745 1992.57,-739 1992.57,-733 1992.57,-733 1992.57,-721 1992.57,-721 1992.57,-715 1998.57,-709 2004.57,-709 2004.57,-709 2089.57,-709 2089.57,-709 2095.57,-709 2101.57,-715 2101.57,-721 2101.57,-721 2101.57,-733 2101.57,-733 2101.57,-739 2095.57,-745 2089.57,-745"/>
<text text-anchor="middle" x="2047.07" y="-724.8" font-family="Courier,monospace" font-size="9.00">{std::terminate()}</text>
</g>
<!-- Node0x5594b2c334a0&#45;&gt;Node0x5594b2c348c0 -->
<g id="edge64" class="edge">
<title>Node0x5594b2c334a0&#45;&gt;Node0x5594b2c348c0</title>
<path fill="none" stroke="#4a6fa5" d="M1828.17,-751.25C1876.12,-745.92 1939.24,-738.89 1985.2,-733.78"/>
<polygon fill="#4a6fa5" stroke="#4a6fa5" points="1985.73,-736.18 1992.42,-732.97 1985.19,-731.31 1985.73,-736.18"/>
</g>
</g>
</svg>
