<?xml version="1.0" encoding="UTF-8" standalone="no"?>
<!DOCTYPE svg PUBLIC "-//W3C//DTD SVG 1.1//EN"
 "http://www.w3.org/Graphics/SVG/1.1/DTD/svg11.dtd">
<!-- Generated by graphviz version 2.43.0 (0)
 -->
<!-- Title: Call graph: /home/h02332/po/research/call&#45;graph/analyzer/IccAnalyzerLUT.ll Pages: 1 -->
<svg width="1146pt" height="1969pt"
 viewBox="0.00 0.00 1146.20 1969.20" xmlns="http://www.w3.org/2000/svg" xmlns:xlink="http://www.w3.org/1999/xlink">
<g id="graph0" class="graph" transform="scale(1 1) rotate(0) translate(21.6 1947.6)">
<title>Call graph: /home/h02332/po/research/call&#45;graph/analyzer/IccAnalyzerLUT.ll</title>
<polygon fill="white" stroke="transparent" points="-21.6,21.6 -21.6,-1947.6 1124.6,-1947.6 1124.6,21.6 -21.6,21.6"/>
<!-- Node0x5822822de850 -->
<g id="node1" class="node">
<title>Node0x5822822de850</title>
<path fill="#f0f4ff" stroke="black" d="M491,-616C491,-616 418,-616 418,-616 412,-616 406,-610 406,-604 406,-604 406,-592 406,-592 406,-586 412,-580 418,-580 418,-580 491,-580 491,-580 497,-580 503,-586 503,-592 503,-592 503,-604 503,-604 503,-610 497,-616 491,-616"/>
<text text-anchor="middle" x="454.5" y="-595.8" font-family="Courier,monospace" font-size="9.00">ExtractMpeCLUT()</text>
</g>
<!-- Node0x5822822df3e0 -->
<g id="node2" class="node">
<title>Node0x5822822df3e0</title>
<path fill="#f0f4ff" stroke="black" d="M852.5,-384C852.5,-384 659.5,-384 659.5,-384 653.5,-384 647.5,-378 647.5,-372 647.5,-372 647.5,-360 647.5,-360 647.5,-354 653.5,-348 659.5,-348 659.5,-348 852.5,-348 852.5,-348 858.5,-348 864.5,-354 864.5,-360 864.5,-360 864.5,-372 864.5,-372 864.5,-378 858.5,-384 852.5,-384"/>
<text text-anchor="middle" x="756" y="-363.8" font-family="Courier,monospace" font-size="9.00">SanitizeTagName[abi:cxx11](char const*)</text>
</g>
<!-- Node0x5822822de850&#45;&gt;Node0x5822822df3e0 -->
<g id="edge1" class="edge">
<title>Node0x5822822de850&#45;&gt;Node0x5822822df3e0</title>
<path fill="none" stroke="#4a6fa5" d="M503.16,-598.26C529.92,-595.95 562.21,-588.72 584,-569 644.44,-514.31 582.36,-450.57 642,-395 644.97,-392.24 648.16,-389.73 651.52,-387.45"/>
<polygon fill="#4a6fa5" stroke="#4a6fa5" points="652.97,-389.02 656.95,-384.06 650.75,-385.46 652.97,-389.02"/>
</g>
<!-- Node0x5822822dda70 -->
<g id="node3" class="node">
<title>Node0x5822822dda70</title>
<path fill="#f0f4ff" stroke="black" d="M808,-500C808,-500 704,-500 704,-500 698,-500 692,-494 692,-488 692,-488 692,-476 692,-476 692,-470 698,-464 704,-464 704,-464 808,-464 808,-464 814,-464 820,-470 820,-476 820,-476 820,-488 820,-488 820,-494 814,-500 808,-500"/>
<text text-anchor="middle" x="756" y="-479.8" font-family="Courier,monospace" font-size="9.00">CIccMpeCLUT::GetCLUT()</text>
</g>
<!-- Node0x5822822de850&#45;&gt;Node0x5822822dda70 -->
<g id="edge2" class="edge">
<title>Node0x5822822de850&#45;&gt;Node0x5822822dda70</title>
<path fill="none" stroke="#4a6fa5" d="M503.26,-593.69C528.49,-589.86 559.26,-582.63 584,-569 615.93,-551.4 610.33,-529.06 642,-511 655.36,-503.38 670.73,-497.73 685.75,-493.55"/>
<polygon fill="#4a6fa5" stroke="#4a6fa5" points="686.45,-495.54 691.71,-491.96 685.37,-491.48 686.45,-495.54"/>
</g>
<!-- Node0x582282094180 -->
<g id="node4" class="node">
<title>Node0x582282094180</title>
<path fill="#f0f4ff" stroke="black" d="M810.5,-616C810.5,-616 701.5,-616 701.5,-616 695.5,-616 689.5,-610 689.5,-604 689.5,-604 689.5,-592 689.5,-592 689.5,-586 695.5,-580 701.5,-580 701.5,-580 810.5,-580 810.5,-580 816.5,-580 822.5,-586 822.5,-592 822.5,-592 822.5,-604 822.5,-604 822.5,-610 816.5,-616 810.5,-616"/>
<text text-anchor="middle" x="756" y="-595.8" font-family="Courier,monospace" font-size="9.00">CIccCLUT::GetInputDim()</text>
</g>
<!-- Node0x5822822de850&#45;&gt;Node0x582282094180 -->
<g id="edge3" class="edge">
<title>Node0x5822822de850&#45;&gt;Node0x582282094180</title>
<path fill="none" stroke="#4a6fa5" d="M503.29,-598C551.81,-598 627.53,-598 683.25,-598"/>
<polygon fill="#4a6fa5" stroke="#4a6fa5" points="683.26,-600.1 689.26,-598 683.26,-595.9 683.26,-600.1"/>
</g>
<!-- Node0x58228206b5a0 -->
<g id="node5" class="node">
<title>Node0x58228206b5a0</title>
<path fill="#f0f4ff" stroke="black" d="M826.5,-558C826.5,-558 685.5,-558 685.5,-558 679.5,-558 673.5,-552 673.5,-546 673.5,-546 673.5,-534 673.5,-534 673.5,-528 679.5,-522 685.5,-522 685.5,-522 826.5,-522 826.5,-522 832.5,-522 838.5,-528 838.5,-534 838.5,-534 838.5,-546 838.5,-546 838.5,-552 832.5,-558 826.5,-558"/>
<text text-anchor="middle" x="756" y="-537.8" font-family="Courier,monospace" font-size="9.00">CIccCLUT::GetOutputChannels()</text>
</g>
<!-- Node0x5822822de850&#45;&gt;Node0x58228206b5a0 -->
<g id="edge4" class="edge">
<title>Node0x5822822de850&#45;&gt;Node0x58228206b5a0</title>
<path fill="none" stroke="#4a6fa5" d="M503.29,-588.75C547.26,-580.23 613.56,-567.39 667.08,-557.03"/>
<polygon fill="#4a6fa5" stroke="#4a6fa5" points="667.72,-559.04 673.21,-555.84 666.92,-554.92 667.72,-559.04"/>
</g>
<!-- Node0x5822820c1a90 -->
<g id="node6" class="node">
<title>Node0x5822820c1a90</title>
<path fill="#f0f4ff" stroke="black" d="M771,-326C771,-326 741,-326 741,-326 735,-326 729,-320 729,-314 729,-314 729,-302 729,-302 729,-296 735,-290 741,-290 741,-290 771,-290 771,-290 777,-290 783,-296 783,-302 783,-302 783,-314 783,-314 783,-320 777,-326 771,-326"/>
<text text-anchor="middle" x="756" y="-305.8" font-family="Courier,monospace" font-size="9.00">c_str()</text>
</g>
<!-- Node0x5822822de850&#45;&gt;Node0x5822820c1a90 -->
<g id="edge5" class="edge">
<title>Node0x5822822de850&#45;&gt;Node0x5822820c1a90</title>
<path fill="none" stroke="#4a6fa5" d="M503.1,-598.92C530.18,-596.88 562.82,-589.7 584,-569 660.01,-494.72 567.08,-412.39 642,-337 663.06,-315.81 697.36,-309.41 722.66,-307.79"/>
<polygon fill="#4a6fa5" stroke="#4a6fa5" points="723,-309.88 728.88,-307.48 722.78,-305.68 723,-309.88"/>
</g>
<!-- Node0x58228216dd60 -->
<g id="node7" class="node">
<title>Node0x58228216dd60</title>
<path fill="#f0f4ff" stroke="black" d="M792.5,-442C792.5,-442 719.5,-442 719.5,-442 713.5,-442 707.5,-436 707.5,-430 707.5,-430 707.5,-418 707.5,-418 707.5,-412 713.5,-406 719.5,-406 719.5,-406 792.5,-406 792.5,-406 798.5,-406 804.5,-412 804.5,-418 804.5,-418 804.5,-430 804.5,-430 804.5,-436 798.5,-442 792.5,-442"/>
<text text-anchor="middle" x="756" y="-421.8" font-family="Courier,monospace" font-size="9.00">SecureFileOpen()</text>
</g>
<!-- Node0x5822822de850&#45;&gt;Node0x58228216dd60 -->
<g id="edge6" class="edge">
<title>Node0x5822822de850&#45;&gt;Node0x58228216dd60</title>
<path fill="none" stroke="#4a6fa5" d="M503.09,-596.98C529.33,-594.19 561.14,-586.91 584,-569 629.37,-533.45 597.15,-489.21 642,-453 658.71,-439.51 680.96,-432.22 701.3,-428.31"/>
<polygon fill="#4a6fa5" stroke="#4a6fa5" points="701.72,-430.37 707.26,-427.25 700.99,-426.23 701.72,-430.37"/>
</g>
<!-- Node0x5822821cfe80 -->
<g id="node8" class="node">
<title>Node0x5822821cfe80</title>
<path fill="#f0f4ff" stroke="black" d="M808,-674C808,-674 704,-674 704,-674 698,-674 692,-668 692,-662 692,-662 692,-650 692,-650 692,-644 698,-638 704,-638 704,-638 808,-638 808,-638 814,-638 820,-644 820,-650 820,-650 820,-662 820,-662 820,-668 814,-674 808,-674"/>
<text text-anchor="middle" x="756" y="-653.8" font-family="Courier,monospace" font-size="9.00">CIccCLUT::GetDimSize()</text>
</g>
<!-- Node0x5822822de850&#45;&gt;Node0x5822821cfe80 -->
<g id="edge7" class="edge">
<title>Node0x5822822de850&#45;&gt;Node0x5822821cfe80</title>
<path fill="none" stroke="#4a6fa5" d="M503.29,-607.25C552.53,-616.79 629.77,-631.75 685.71,-642.58"/>
<polygon fill="#4a6fa5" stroke="#4a6fa5" points="685.45,-644.67 691.74,-643.75 686.24,-640.55 685.45,-644.67"/>
</g>
<!-- Node0x582282202810 -->
<g id="node9" class="node">
<title>Node0x582282202810</title>
<path fill="#f0f4ff" stroke="black" d="M800,-1196C800,-1196 712,-1196 712,-1196 706,-1196 700,-1190 700,-1184 700,-1184 700,-1172 700,-1172 700,-1166 706,-1160 712,-1160 712,-1160 800,-1160 800,-1160 806,-1160 812,-1166 812,-1172 812,-1172 812,-1184 812,-1184 812,-1190 806,-1196 800,-1196"/>
<text text-anchor="middle" x="756" y="-1175.8" font-family="Courier,monospace" font-size="9.00">CIccCLUT::GetData()</text>
</g>
<!-- Node0x5822822de850&#45;&gt;Node0x582282202810 -->
<g id="edge8" class="edge">
<title>Node0x5822822de850&#45;&gt;Node0x582282202810</title>
<path fill="none" stroke="#4a6fa5" d="M503.3,-597.23C530.98,-599.49 564.16,-607.34 584,-630 736.87,-804.65 489.75,-973.81 642,-1149 655,-1163.96 674.58,-1171.72 693.81,-1175.6"/>
<polygon fill="#4a6fa5" stroke="#4a6fa5" points="693.47,-1177.68 699.75,-1176.68 694.23,-1173.54 693.47,-1177.68"/>
</g>
<!-- Node0x5822822e7170 -->
<g id="node10" class="node">
<title>Node0x5822822e7170</title>
<path fill="#f0f4ff" stroke="black" d="M1030.5,-384C1030.5,-384 1000.5,-384 1000.5,-384 994.5,-384 988.5,-378 988.5,-372 988.5,-372 988.5,-360 988.5,-360 988.5,-354 994.5,-348 1000.5,-348 1000.5,-348 1030.5,-348 1030.5,-348 1036.5,-348 1042.5,-354 1042.5,-360 1042.5,-360 1042.5,-372 1042.5,-372 1042.5,-378 1036.5,-384 1030.5,-384"/>
<text text-anchor="middle" x="1015.5" y="-363.8" font-family="Courier,monospace" font-size="9.00">dirname</text>
</g>
<!-- Node0x58228216dd60&#45;&gt;Node0x5822822e7170 -->
<g id="edge9" class="edge">
<title>Node0x58228216dd60&#45;&gt;Node0x5822822e7170</title>
<path fill="none" stroke="#4a6fa5" d="M804.53,-413.29C856.3,-401.63 937.68,-383.3 982.4,-373.23"/>
<polygon fill="#4a6fa5" stroke="#4a6fa5" points="983.07,-375.23 988.46,-371.87 982.15,-371.13 983.07,-375.23"/>
</g>
<!-- Node0x5822822e7550 -->
<g id="node11" class="node">
<title>Node0x5822822e7550</title>
<path fill="#f0f4ff" stroke="black" d="M1031,-500C1031,-500 1000,-500 1000,-500 994,-500 988,-494 988,-488 988,-488 988,-476 988,-476 988,-470 994,-464 1000,-464 1000,-464 1031,-464 1031,-464 1037,-464 1043,-470 1043,-476 1043,-476 1043,-488 1043,-488 1043,-494 1037,-500 1031,-500"/>
<text text-anchor="middle" x="1015.5" y="-479.8" font-family="Courier,monospace" font-size="9.00">realpath</text>
</g>
<!-- Node0x58228216dd60&#45;&gt;Node0x5822822e7550 -->
<g id="edge10" class="edge">
<title>Node0x58228216dd60&#45;&gt;Node0x5822822e7550</title>
<path fill="none" stroke="#4a6fa5" d="M804.53,-434.71C856.02,-446.3 936.81,-464.5 981.68,-474.61"/>
<polygon fill="#4a6fa5" stroke="#4a6fa5" points="981.45,-476.71 987.76,-475.98 982.37,-472.61 981.45,-476.71"/>
</g>
<!-- Node0x582282032dc0 -->
<g id="node12" class="node">
<title>Node0x582282032dc0</title>
<path fill="#f0f4ff" stroke="black" d="M1046.5,-442C1046.5,-442 984.5,-442 984.5,-442 978.5,-442 972.5,-436 972.5,-430 972.5,-430 972.5,-418 972.5,-418 972.5,-412 978.5,-406 984.5,-406 984.5,-406 1046.5,-406 1046.5,-406 1052.5,-406 1058.5,-412 1058.5,-418 1058.5,-418 1058.5,-430 1058.5,-430 1058.5,-436 1052.5,-442 1046.5,-442"/>
<text text-anchor="middle" x="1015.5" y="-421.8" font-family="Courier,monospace" font-size="9.00">__xpg_basename</text>
</g>
<!-- Node0x58228216dd60&#45;&gt;Node0x582282032dc0 -->
<g id="edge11" class="edge">
<title>Node0x58228216dd60&#45;&gt;Node0x582282032dc0</title>
<path fill="none" stroke="#4a6fa5" d="M804.53,-424C850.56,-424 920.01,-424 966.28,-424"/>
<polygon fill="#4a6fa5" stroke="#4a6fa5" points="966.36,-426.1 972.36,-424 966.36,-421.9 966.36,-426.1"/>
</g>
<!-- Node0x5822822e8850 -->
<g id="node13" class="node">
<title>Node0x5822822e8850</title>
<path fill="#f0f4ff" stroke="black" d="M255,-853C255,-853 172,-853 172,-853 166,-853 160,-847 160,-841 160,-841 160,-829 160,-829 160,-823 166,-817 172,-817 172,-817 255,-817 255,-817 261,-817 267,-823 267,-829 267,-829 267,-841 267,-841 267,-847 261,-853 255,-853"/>
<text text-anchor="middle" x="213.5" y="-832.8" font-family="Courier,monospace" font-size="9.00">ExtractMpeTables()</text>
</g>
<!-- Node0x5822822e8850&#45;&gt;Node0x5822822de850 -->
<g id="edge19" class="edge">
<title>Node0x5822822e8850&#45;&gt;Node0x5822822de850</title>
<path fill="none" stroke="#4a6fa5" d="M218.88,-816.98C229.61,-776.82 261.13,-679.59 325,-630 346.18,-613.56 374.72,-605.45 399.53,-601.51"/>
<polygon fill="#4a6fa5" stroke="#4a6fa5" points="400.13,-603.54 405.75,-600.59 399.51,-599.39 400.13,-603.54"/>
</g>
<!-- Node0x5822822e8680 -->
<g id="node14" class="node">
<title>Node0x5822822e8680</title>
<path fill="#f0f4ff" stroke="black" d="M803,-1080C803,-1080 709,-1080 709,-1080 703,-1080 697,-1074 697,-1068 697,-1068 697,-1056 697,-1056 697,-1050 703,-1044 709,-1044 709,-1044 803,-1044 803,-1044 809,-1044 815,-1050 815,-1056 815,-1056 815,-1068 815,-1068 815,-1074 809,-1080 803,-1080"/>
<text text-anchor="middle" x="756" y="-1059.8" font-family="Courier,monospace" font-size="9.00">CIccInfo::CIccInfo()</text>
</g>
<!-- Node0x5822822e8850&#45;&gt;Node0x5822822e8680 -->
<g id="edge12" class="edge">
<title>Node0x5822822e8850&#45;&gt;Node0x5822822e8680</title>
<path fill="none" stroke="#4a6fa5" d="M233.02,-853.06C253.89,-872.57 289.55,-903.48 325,-923 446.1,-989.67 604.21,-1030.41 691,-1049.34"/>
<polygon fill="#4a6fa5" stroke="#4a6fa5" points="690.57,-1051.39 696.87,-1050.61 691.45,-1047.29 690.57,-1051.39"/>
</g>
<!-- Node0x582282035c50 -->
<g id="node15" class="node">
<title>Node0x582282035c50</title>
<path fill="#f0f4ff" stroke="black" d="M808,-1138C808,-1138 704,-1138 704,-1138 698,-1138 692,-1132 692,-1126 692,-1126 692,-1114 692,-1114 692,-1108 698,-1102 704,-1102 704,-1102 808,-1102 808,-1102 814,-1102 820,-1108 820,-1114 820,-1114 820,-1126 820,-1126 820,-1132 814,-1138 808,-1138"/>
<text text-anchor="middle" x="756" y="-1117.8" font-family="Courier,monospace" font-size="9.00">CIccProfile::FindTag()</text>
</g>
<!-- Node0x5822822e8850&#45;&gt;Node0x582282035c50 -->
<g id="edge13" class="edge">
<title>Node0x5822822e8850&#45;&gt;Node0x582282035c50</title>
<path fill="none" stroke="#4a6fa5" d="M222.84,-853.21C238.38,-885.17 274.82,-951.43 325,-988 383.07,-1030.32 579.84,-1080 685.91,-1104.6"/>
<polygon fill="#4a6fa5" stroke="#4a6fa5" points="685.5,-1106.66 691.82,-1105.97 686.45,-1102.57 685.5,-1106.66"/>
</g>
<!-- Node0x5822820344b0 -->
<g id="node16" class="node">
<title>Node0x5822820344b0</title>
<path fill="#f0f4ff" stroke="black" d="M805.5,-848C805.5,-848 706.5,-848 706.5,-848 700.5,-848 694.5,-842 694.5,-836 694.5,-836 694.5,-824 694.5,-824 694.5,-818 700.5,-812 706.5,-812 706.5,-812 805.5,-812 805.5,-812 811.5,-812 817.5,-818 817.5,-824 817.5,-824 817.5,-836 817.5,-836 817.5,-842 811.5,-848 805.5,-848"/>
<text text-anchor="middle" x="756" y="-827.8" font-family="Courier,monospace" font-size="9.00">CIccInfo::~CIccInfo()</text>
</g>
<!-- Node0x5822822e8850&#45;&gt;Node0x5822820344b0 -->
<g id="edge14" class="edge">
<title>Node0x5822822e8850&#45;&gt;Node0x5822820344b0</title>
<path fill="none" stroke="#4a6fa5" d="M267.05,-836.72C285.38,-837.24 306.1,-837.74 325,-838 440.1,-839.56 468.92,-840.69 584,-838 618.4,-837.2 656.66,-835.48 688.26,-833.85"/>
<polygon fill="#4a6fa5" stroke="#4a6fa5" points="688.6,-835.93 694.48,-833.52 688.38,-831.74 688.6,-835.93"/>
</g>
<!-- Node0x5822821eaa30 -->
<g id="node17" class="node">
<title>Node0x5822821eaa30</title>
<path fill="#f0f4ff" stroke="black" d="M816,-906C816,-906 696,-906 696,-906 690,-906 684,-900 684,-894 684,-894 684,-882 684,-882 684,-876 690,-870 696,-870 696,-870 816,-870 816,-870 822,-870 828,-876 828,-882 828,-882 828,-894 828,-894 828,-900 822,-906 816,-906"/>
<text text-anchor="middle" x="756" y="-885.8" font-family="Courier,monospace" font-size="9.00">CIccInfo::GetTagSigName()</text>
</g>
<!-- Node0x5822822e8850&#45;&gt;Node0x5822821eaa30 -->
<g id="edge15" class="edge">
<title>Node0x5822822e8850&#45;&gt;Node0x5822821eaa30</title>
<path fill="none" stroke="#4a6fa5" d="M267.16,-845.67C285.42,-849.06 306.05,-852.56 325,-855 447.74,-870.78 591.23,-879.94 677.52,-884.45"/>
<polygon fill="#4a6fa5" stroke="#4a6fa5" points="677.53,-886.55 683.63,-884.76 677.75,-882.36 677.53,-886.55"/>
</g>
<!-- Node0x582282034790 -->
<g id="node18" class="node">
<title>Node0x582282034790</title>
<path fill="#f0f4ff" stroke="black" d="M826.5,-36C826.5,-36 685.5,-36 685.5,-36 679.5,-36 673.5,-30 673.5,-24 673.5,-24 673.5,-12 673.5,-12 673.5,-6 679.5,0 685.5,0 685.5,0 826.5,0 826.5,0 832.5,0 838.5,-6 838.5,-12 838.5,-12 838.5,-24 838.5,-24 838.5,-30 832.5,-36 826.5,-36"/>
<text text-anchor="middle" x="756" y="-15.8" font-family="Courier,monospace" font-size="9.00">CIccInfo::GetTagTypeSigName()</text>
</g>
<!-- Node0x5822822e8850&#45;&gt;Node0x582282034790 -->
<g id="edge16" class="edge">
<title>Node0x5822822e8850&#45;&gt;Node0x582282034790</title>
<path fill="none" stroke="#4a6fa5" d="M218.86,-816.76C231.31,-766.35 269.68,-621.55 325,-511 436.78,-287.65 437.48,-190.35 642,-47 649.83,-41.51 658.61,-37.06 667.73,-33.45"/>
<polygon fill="#4a6fa5" stroke="#4a6fa5" points="668.57,-35.39 673.45,-31.32 667.09,-31.45 668.57,-35.39"/>
</g>
<!-- Node0x5822821eb4a0 -->
<g id="node19" class="node">
<title>Node0x5822821eb4a0</title>
<path fill="#f0f4ff" stroke="black" d="M787,-964C787,-964 725,-964 725,-964 719,-964 713,-958 713,-952 713,-952 713,-940 713,-940 713,-934 719,-928 725,-928 725,-928 787,-928 787,-928 793,-928 799,-934 799,-940 799,-940 799,-952 799,-952 799,-958 793,-964 787,-964"/>
<text text-anchor="middle" x="756" y="-943.8" font-family="Courier,monospace" font-size="9.00">__dynamic_cast</text>
</g>
<!-- Node0x5822822e8850&#45;&gt;Node0x5822821eb4a0 -->
<g id="edge17" class="edge">
<title>Node0x5822822e8850&#45;&gt;Node0x5822821eb4a0</title>
<path fill="none" stroke="#4a6fa5" d="M249.45,-853.02C270.76,-863.29 298.85,-875.55 325,-883 460.07,-921.5 626.07,-937.32 706.6,-943.09"/>
<polygon fill="#4a6fa5" stroke="#4a6fa5" points="706.58,-945.19 712.72,-943.52 706.88,-941 706.58,-945.19"/>
</g>
<!-- Node0x582282036270 -->
<g id="node20" class="node">
<title>Node0x582282036270</title>
<path fill="#f0f4ff" stroke="black" d="M858,-732C858,-732 654,-732 654,-732 648,-732 642,-726 642,-720 642,-720 642,-708 642,-708 642,-702 648,-696 654,-696 654,-696 858,-696 858,-696 864,-696 870,-702 870,-708 870,-708 870,-720 870,-720 870,-726 864,-732 858,-732"/>
<text text-anchor="middle" x="756" y="-711.8" font-family="Courier,monospace" font-size="9.00">CIccTagMultiProcessElement::NumElements()</text>
</g>
<!-- Node0x5822822e8850&#45;&gt;Node0x582282036270 -->
<g id="edge18" class="edge">
<title>Node0x5822822e8850&#45;&gt;Node0x582282036270</title>
<path fill="none" stroke="#4a6fa5" d="M232.08,-816.73C252.39,-796.93 287.81,-766.26 325,-752 424.87,-713.7 547.03,-706.3 635.59,-707.24"/>
<polygon fill="#4a6fa5" stroke="#4a6fa5" points="635.61,-709.34 641.64,-707.32 635.67,-705.14 635.61,-709.34"/>
</g>
<!-- Node0x582282034960 -->
<g id="node21" class="node">
<title>Node0x582282034960</title>
<path fill="#f0f4ff" stroke="black" d="M569.5,-827C569.5,-827 339.5,-827 339.5,-827 333.5,-827 327.5,-821 327.5,-815 327.5,-815 327.5,-803 327.5,-803 327.5,-797 333.5,-791 339.5,-791 339.5,-791 569.5,-791 569.5,-791 575.5,-791 581.5,-797 581.5,-803 581.5,-803 581.5,-815 581.5,-815 581.5,-821 575.5,-827 569.5,-827"/>
<text text-anchor="middle" x="454.5" y="-806.8" font-family="Courier,monospace" font-size="9.00">CIccTagMultiProcessElement::NumInputChannels()</text>
</g>
<!-- Node0x5822822e8850&#45;&gt;Node0x582282034960 -->
<g id="edge20" class="edge">
<title>Node0x5822822e8850&#45;&gt;Node0x582282034960</title>
<path fill="none" stroke="#4a6fa5" d="M267.25,-829.26C283.3,-827.52 301.72,-825.51 320.6,-823.46"/>
<polygon fill="#4a6fa5" stroke="#4a6fa5" points="321.28,-825.5 327.01,-822.76 320.82,-821.32 321.28,-825.5"/>
</g>
<!-- Node0x5822821eafb0 -->
<g id="node22" class="node">
<title>Node0x5822821eafb0</title>
<path fill="#f0f4ff" stroke="black" d="M572,-677C572,-677 337,-677 337,-677 331,-677 325,-671 325,-665 325,-665 325,-653 325,-653 325,-647 331,-641 337,-641 337,-641 572,-641 572,-641 578,-641 584,-647 584,-653 584,-653 584,-665 584,-665 584,-671 578,-677 572,-677"/>
<text text-anchor="middle" x="454.5" y="-656.8" font-family="Courier,monospace" font-size="9.00">CIccTagMultiProcessElement::NumOutputChannels()</text>
</g>
<!-- Node0x5822822e8850&#45;&gt;Node0x5822821eafb0 -->
<g id="edge21" class="edge">
<title>Node0x5822822e8850&#45;&gt;Node0x5822821eafb0</title>
<path fill="none" stroke="#4a6fa5" d="M223.69,-816.8C239.92,-786.57 276.54,-726.16 325,-694 333.78,-688.17 343.5,-683.31 353.56,-679.26"/>
<polygon fill="#4a6fa5" stroke="#4a6fa5" points="354.33,-681.21 359.17,-677.09 352.82,-677.29 354.33,-681.21"/>
</g>
<!-- Node0x582282036d60 -->
<g id="node23" class="node">
<title>Node0x582282036d60</title>
<path fill="#f0f4ff" stroke="black" d="M855.5,-790C855.5,-790 656.5,-790 656.5,-790 650.5,-790 644.5,-784 644.5,-778 644.5,-778 644.5,-766 644.5,-766 644.5,-760 650.5,-754 656.5,-754 656.5,-754 855.5,-754 855.5,-754 861.5,-754 867.5,-760 867.5,-766 867.5,-766 867.5,-778 867.5,-778 867.5,-784 861.5,-790 855.5,-790"/>
<text text-anchor="middle" x="756" y="-769.8" font-family="Courier,monospace" font-size="9.00">CIccTagMultiProcessElement::GetElement()</text>
</g>
<!-- Node0x5822822e8850&#45;&gt;Node0x582282036d60 -->
<g id="edge22" class="edge">
<title>Node0x5822822e8850&#45;&gt;Node0x582282036d60</title>
<path fill="none" stroke="#4a6fa5" d="M242.23,-816.85C263.81,-803.83 295.03,-787.34 325,-780 428.58,-754.63 550.42,-755.08 637.91,-760.43"/>
<polygon fill="#4a6fa5" stroke="#4a6fa5" points="638.03,-762.54 644.15,-760.83 638.3,-758.35 638.03,-762.54"/>
</g>
<!-- Node0x582282037dd0 -->
<g id="node24" class="node">
<title>Node0x582282037dd0</title>
<path fill="#f0f4ff" stroke="black" d="M496,-558C496,-558 413,-558 413,-558 407,-558 401,-552 401,-546 401,-546 401,-534 401,-534 401,-528 407,-522 413,-522 413,-522 496,-522 496,-522 502,-522 508,-528 508,-534 508,-534 508,-546 508,-546 508,-552 502,-558 496,-558"/>
<text text-anchor="middle" x="454.5" y="-537.8" font-family="Courier,monospace" font-size="9.00">ExtractLutTables()</text>
</g>
<!-- Node0x582282037dd0&#45;&gt;Node0x5822822df3e0 -->
<g id="edge27" class="edge">
<title>Node0x582282037dd0&#45;&gt;Node0x5822822df3e0</title>
<path fill="none" stroke="#4a6fa5" d="M473.33,-521.93C504.64,-491.24 572.78,-428.96 642,-395 648.81,-391.66 656.05,-388.68 663.44,-386.02"/>
<polygon fill="#4a6fa5" stroke="#4a6fa5" points="664.14,-388 669.12,-384.04 662.76,-384.03 664.14,-388"/>
</g>
<!-- Node0x582282037dd0&#45;&gt;Node0x582282094180 -->
<g id="edge38" class="edge">
<title>Node0x582282037dd0&#45;&gt;Node0x582282094180</title>
<path fill="none" stroke="#4a6fa5" d="M508.01,-550.17C556.63,-559.59 629.35,-573.67 683.31,-584.12"/>
<polygon fill="#4a6fa5" stroke="#4a6fa5" points="683.17,-586.23 689.46,-585.31 683.97,-582.11 683.17,-586.23"/>
</g>
<!-- Node0x582282037dd0&#45;&gt;Node0x58228206b5a0 -->
<g id="edge39" class="edge">
<title>Node0x582282037dd0&#45;&gt;Node0x58228206b5a0</title>
<path fill="none" stroke="#4a6fa5" d="M508.01,-540C551.94,-540 615.54,-540 667.2,-540"/>
<polygon fill="#4a6fa5" stroke="#4a6fa5" points="667.44,-542.1 673.44,-540 667.44,-537.9 667.44,-542.1"/>
</g>
<!-- Node0x582282037dd0&#45;&gt;Node0x5822820c1a90 -->
<g id="edge32" class="edge">
<title>Node0x582282037dd0&#45;&gt;Node0x5822820c1a90</title>
<path fill="none" stroke="#4a6fa5" d="M466.77,-521.87C492.58,-481.93 560.08,-386.05 642,-337 666.73,-322.2 698.87,-314.89 722.55,-311.32"/>
<polygon fill="#4a6fa5" stroke="#4a6fa5" points="723.04,-313.37 728.69,-310.45 722.45,-309.21 723.04,-313.37"/>
</g>
<!-- Node0x582282037dd0&#45;&gt;Node0x58228216dd60 -->
<g id="edge33" class="edge">
<title>Node0x582282037dd0&#45;&gt;Node0x58228216dd60</title>
<path fill="none" stroke="#4a6fa5" d="M489.41,-521.85C526.18,-502.72 587,-472.69 642,-453 660.93,-446.22 682.17,-440.34 701.09,-435.68"/>
<polygon fill="#4a6fa5" stroke="#4a6fa5" points="702.07,-437.6 707.4,-434.14 701.08,-433.52 702.07,-437.6"/>
</g>
<!-- Node0x582282037dd0&#45;&gt;Node0x5822821cfe80 -->
<g id="edge37" class="edge">
<title>Node0x582282037dd0&#45;&gt;Node0x5822821cfe80</title>
<path fill="none" stroke="#4a6fa5" d="M508.23,-545.1C532.45,-549.1 560.87,-556.25 584,-569 615.93,-586.6 610.33,-608.94 642,-627 655.36,-634.62 670.73,-640.27 685.75,-644.45"/>
<polygon fill="#4a6fa5" stroke="#4a6fa5" points="685.37,-646.52 691.71,-646.04 686.45,-642.46 685.37,-646.52"/>
</g>
<!-- Node0x582282037dd0&#45;&gt;Node0x5822822e8680 -->
<g id="edge23" class="edge">
<title>Node0x582282037dd0&#45;&gt;Node0x5822822e8680</title>
<path fill="none" stroke="#4a6fa5" d="M508.21,-538.48C534.7,-540.65 565.1,-548.16 584,-569 723.61,-722.95 504.65,-877.02 642,-1033 654.39,-1047.07 672.58,-1054.75 690.77,-1058.83"/>
<polygon fill="#4a6fa5" stroke="#4a6fa5" points="690.63,-1060.95 696.93,-1060.08 691.47,-1056.83 690.63,-1060.95"/>
</g>
<!-- Node0x582282037dd0&#45;&gt;Node0x582282035c50 -->
<g id="edge24" class="edge">
<title>Node0x582282037dd0&#45;&gt;Node0x582282035c50</title>
<path fill="none" stroke="#4a6fa5" d="M508,-538.35C534.6,-540.46 565.17,-547.95 584,-569 739.62,-742.98 488.94,-914.76 642,-1091 653.18,-1103.87 669.22,-1111.41 685.72,-1115.74"/>
<polygon fill="#4a6fa5" stroke="#4a6fa5" points="685.49,-1117.84 691.81,-1117.19 686.46,-1113.76 685.49,-1117.84"/>
</g>
<!-- Node0x582282037dd0&#45;&gt;Node0x5822820344b0 -->
<g id="edge25" class="edge">
<title>Node0x582282037dd0&#45;&gt;Node0x5822820344b0</title>
<path fill="none" stroke="#4a6fa5" d="M508.18,-539.52C534.17,-542.06 564.13,-549.58 584,-569 660.01,-643.28 567.08,-725.61 642,-801 654.33,-813.41 671.21,-820.75 688.16,-825.02"/>
<polygon fill="#4a6fa5" stroke="#4a6fa5" points="688.08,-827.16 694.4,-826.46 689.03,-823.07 688.08,-827.16"/>
</g>
<!-- Node0x582282037dd0&#45;&gt;Node0x5822821eaa30 -->
<g id="edge26" class="edge">
<title>Node0x582282037dd0&#45;&gt;Node0x5822821eaa30</title>
<path fill="none" stroke="#4a6fa5" d="M508.25,-539.1C534.42,-541.51 564.51,-549.03 584,-569 675.79,-663.08 551.59,-763.59 642,-859 651.69,-869.23 664.46,-876.04 677.92,-880.53"/>
<polygon fill="#4a6fa5" stroke="#4a6fa5" points="677.37,-882.56 683.72,-882.32 678.6,-878.55 677.37,-882.56"/>
</g>
<!-- Node0x582282037dd0&#45;&gt;Node0x582282034790 -->
<g id="edge36" class="edge">
<title>Node0x582282037dd0&#45;&gt;Node0x582282034790</title>
<path fill="none" stroke="#4a6fa5" d="M465.62,-521.86C489.14,-479.12 548.2,-368.29 584,-270 619.05,-173.78 569.47,-119.3 642,-47 649.31,-39.71 658.2,-34.17 667.74,-29.98"/>
<polygon fill="#4a6fa5" stroke="#4a6fa5" points="668.66,-31.87 673.42,-27.66 667.07,-27.98 668.66,-31.87"/>
</g>
<!-- Node0x582282037dd0&#45;&gt;Node0x5822821eb4a0 -->
<g id="edge28" class="edge">
<title>Node0x582282037dd0&#45;&gt;Node0x5822821eb4a0</title>
<path fill="none" stroke="#4a6fa5" d="M508.19,-538.82C534.51,-541.12 564.76,-548.64 584,-569 691.68,-682.98 536,-801.46 642,-917 658.34,-934.81 684,-942.32 706.74,-945.26"/>
<polygon fill="#4a6fa5" stroke="#4a6fa5" points="706.56,-947.35 712.76,-945.94 707.04,-943.18 706.56,-947.35"/>
</g>
<!-- Node0x582282037350 -->
<g id="node25" class="node">
<title>Node0x582282037350</title>
<path fill="#f0f4ff" stroke="black" d="M797.5,-1022C797.5,-1022 714.5,-1022 714.5,-1022 708.5,-1022 702.5,-1016 702.5,-1010 702.5,-1010 702.5,-998 702.5,-998 702.5,-992 708.5,-986 714.5,-986 714.5,-986 797.5,-986 797.5,-986 803.5,-986 809.5,-992 809.5,-998 809.5,-998 809.5,-1010 809.5,-1010 809.5,-1016 803.5,-1022 797.5,-1022"/>
<text text-anchor="middle" x="756" y="-1001.8" font-family="Courier,monospace" font-size="9.00">CIccMBB::GetCLUT()</text>
</g>
<!-- Node0x582282037dd0&#45;&gt;Node0x582282037350 -->
<g id="edge29" class="edge">
<title>Node0x582282037dd0&#45;&gt;Node0x582282037350</title>
<path fill="none" stroke="#4a6fa5" d="M508.06,-538.61C534.51,-540.83 564.92,-548.33 584,-569 707.63,-702.94 520.35,-839.26 642,-975 655.72,-990.31 676.32,-998.04 696.2,-1001.79"/>
<polygon fill="#4a6fa5" stroke="#4a6fa5" points="696.07,-1003.9 702.33,-1002.83 696.77,-999.76 696.07,-1003.9"/>
</g>
<!-- Node0x5822821ebce0 -->
<g id="node26" class="node">
<title>Node0x5822821ebce0</title>
<path fill="#f0f4ff" stroke="black" d="M805.5,-94C805.5,-94 706.5,-94 706.5,-94 700.5,-94 694.5,-88 694.5,-82 694.5,-82 694.5,-70 694.5,-70 694.5,-64 700.5,-58 706.5,-58 706.5,-58 805.5,-58 805.5,-58 811.5,-58 817.5,-64 817.5,-70 817.5,-70 817.5,-82 817.5,-82 817.5,-88 811.5,-94 805.5,-94"/>
<text text-anchor="middle" x="756" y="-73.8" font-family="Courier,monospace" font-size="9.00">CIccMBB::GetCurvesA()</text>
</g>
<!-- Node0x582282037dd0&#45;&gt;Node0x5822821ebce0 -->
<g id="edge30" class="edge">
<title>Node0x582282037dd0&#45;&gt;Node0x5822821ebce0</title>
<path fill="none" stroke="#4a6fa5" d="M464.9,-521.97C487.13,-479.01 544.02,-366.95 584,-270 613.63,-198.14 584.7,-157.53 642,-105 654.7,-93.36 671.43,-86.25 688.12,-81.95"/>
<polygon fill="#4a6fa5" stroke="#4a6fa5" points="688.91,-83.92 694.26,-80.49 687.93,-79.84 688.91,-83.92"/>
</g>
<!-- Node0x582282039000 -->
<g id="node27" class="node">
<title>Node0x582282039000</title>
<path fill="#f0f4ff" stroke="black" d="M805.5,-268C805.5,-268 706.5,-268 706.5,-268 700.5,-268 694.5,-262 694.5,-256 694.5,-256 694.5,-244 694.5,-244 694.5,-238 700.5,-232 706.5,-232 706.5,-232 805.5,-232 805.5,-232 811.5,-232 817.5,-238 817.5,-244 817.5,-244 817.5,-256 817.5,-256 817.5,-262 811.5,-268 805.5,-268"/>
<text text-anchor="middle" x="756" y="-247.8" font-family="Courier,monospace" font-size="9.00">CIccMBB::GetCurvesB()</text>
</g>
<!-- Node0x582282037dd0&#45;&gt;Node0x582282039000 -->
<g id="edge31" class="edge">
<title>Node0x582282037dd0&#45;&gt;Node0x582282039000</title>
<path fill="none" stroke="#4a6fa5" d="M463.08,-521.79C483.96,-473.97 547.13,-344.01 642,-279 655.69,-269.62 672.19,-263.27 688.3,-258.98"/>
<polygon fill="#4a6fa5" stroke="#4a6fa5" points="688.91,-260.99 694.22,-257.49 687.89,-256.92 688.91,-260.99"/>
</g>
<!-- Node0x582282038db0 -->
<g id="node28" class="node">
<title>Node0x582282038db0</title>
<path fill="#f0f4ff" stroke="black" d="M813.5,-210C813.5,-210 698.5,-210 698.5,-210 692.5,-210 686.5,-204 686.5,-198 686.5,-198 686.5,-186 686.5,-186 686.5,-180 692.5,-174 698.5,-174 698.5,-174 813.5,-174 813.5,-174 819.5,-174 825.5,-180 825.5,-186 825.5,-186 825.5,-198 825.5,-198 825.5,-204 819.5,-210 813.5,-210"/>
<text text-anchor="middle" x="756" y="-189.8" font-family="Courier,monospace" font-size="9.00">CIccMBB::InputChannels()</text>
</g>
<!-- Node0x582282037dd0&#45;&gt;Node0x582282038db0 -->
<g id="edge34" class="edge">
<title>Node0x582282037dd0&#45;&gt;Node0x582282038db0</title>
<path fill="none" stroke="#4a6fa5" d="M460.63,-521.84C477.05,-467.15 533.7,-302.73 642,-221 653.25,-212.51 666.72,-206.5 680.39,-202.24"/>
<polygon fill="#4a6fa5" stroke="#4a6fa5" points="681.09,-204.22 686.25,-200.52 679.9,-200.19 681.09,-204.22"/>
</g>
<!-- Node0x582282038b60 -->
<g id="node29" class="node">
<title>Node0x582282038b60</title>
<path fill="#f0f4ff" stroke="black" d="M816,-152C816,-152 696,-152 696,-152 690,-152 684,-146 684,-140 684,-140 684,-128 684,-128 684,-122 690,-116 696,-116 696,-116 816,-116 816,-116 822,-116 828,-122 828,-128 828,-128 828,-140 828,-140 828,-146 822,-152 816,-152"/>
<text text-anchor="middle" x="756" y="-131.8" font-family="Courier,monospace" font-size="9.00">CIccMBB::OutputChannels()</text>
</g>
<!-- Node0x582282037dd0&#45;&gt;Node0x582282038b60 -->
<g id="edge35" class="edge">
<title>Node0x582282037dd0&#45;&gt;Node0x582282038b60</title>
<path fill="none" stroke="#4a6fa5" d="M463.89,-522C498.15,-448.67 626.3,-175.73 642,-163 652.44,-154.54 665.05,-148.51 678.02,-144.23"/>
<polygon fill="#4a6fa5" stroke="#4a6fa5" points="678.88,-146.16 683.99,-142.39 677.64,-142.15 678.88,-146.16"/>
</g>
<!-- Node0x582282038650 -->
<g id="node30" class="node">
<title>Node0x582282038650</title>
<path fill="#f0f4ff" stroke="black" d="M509,-1358C509,-1358 400,-1358 400,-1358 394,-1358 388,-1352 388,-1346 388,-1346 388,-1334 388,-1334 388,-1328 394,-1322 400,-1322 400,-1322 509,-1322 509,-1322 515,-1322 521,-1328 521,-1334 521,-1334 521,-1346 521,-1346 521,-1352 515,-1358 509,-1358"/>
<text text-anchor="middle" x="454.5" y="-1337.8" font-family="Courier,monospace" font-size="9.00">InjectLutDataInternal()</text>
</g>
<!-- Node0x582282038650&#45;&gt;Node0x582282094180 -->
<g id="edge52" class="edge">
<title>Node0x582282038650&#45;&gt;Node0x582282094180</title>
<path fill="none" stroke="#4a6fa5" d="M472.18,-1321.92C500.65,-1289.86 558.07,-1219.73 584,-1149 624.18,-1039.42 565.47,-715.12 642,-627 652.7,-614.67 667.87,-607.24 683.63,-602.83"/>
<polygon fill="#4a6fa5" stroke="#4a6fa5" points="684.16,-604.86 689.45,-601.34 683.12,-600.79 684.16,-604.86"/>
</g>
<!-- Node0x582282038650&#45;&gt;Node0x58228206b5a0 -->
<g id="edge50" class="edge">
<title>Node0x582282038650&#45;&gt;Node0x58228206b5a0</title>
<path fill="none" stroke="#4a6fa5" d="M472.26,-1321.95C500.86,-1289.93 558.45,-1219.87 584,-1149 627.92,-1027.14 557.6,-667.26 642,-569 648.95,-560.91 657.82,-554.92 667.53,-550.51"/>
<polygon fill="#4a6fa5" stroke="#4a6fa5" points="668.61,-552.34 673.34,-548.09 666.99,-548.46 668.61,-552.34"/>
</g>
<!-- Node0x582282038650&#45;&gt;Node0x5822821cfe80 -->
<g id="edge51" class="edge">
<title>Node0x582282038650&#45;&gt;Node0x5822821cfe80</title>
<path fill="none" stroke="#4a6fa5" d="M472.08,-1321.88C500.4,-1289.76 557.58,-1219.55 584,-1149 620.44,-1051.69 573.33,-762.99 642,-685 653.27,-672.21 669.34,-664.69 685.84,-660.37"/>
<polygon fill="#4a6fa5" stroke="#4a6fa5" points="686.58,-662.35 691.93,-658.91 685.6,-658.26 686.58,-662.35"/>
</g>
<!-- Node0x582282038650&#45;&gt;Node0x582282202810 -->
<g id="edge48" class="edge">
<title>Node0x582282038650&#45;&gt;Node0x582282202810</title>
<path fill="none" stroke="#4a6fa5" d="M475.45,-1321.91C507.97,-1293.37 575.47,-1237.94 642,-1207 658.11,-1199.51 676.45,-1193.74 693.6,-1189.4"/>
<polygon fill="#4a6fa5" stroke="#4a6fa5" points="694.53,-1191.34 699.85,-1187.87 693.53,-1187.26 694.53,-1191.34"/>
</g>
<!-- Node0x582282038650&#45;&gt;Node0x5822822e8680 -->
<g id="edge60" class="edge">
<title>Node0x582282038650&#45;&gt;Node0x5822822e8680</title>
<path fill="none" stroke="#4a6fa5" d="M466.84,-1321.82C499.56,-1269.89 594.86,-1122.53 642,-1091 656.47,-1081.32 673.96,-1074.87 690.81,-1070.58"/>
<polygon fill="#4a6fa5" stroke="#4a6fa5" points="691.64,-1072.54 696.98,-1069.09 690.66,-1068.45 691.64,-1072.54"/>
</g>
<!-- Node0x582282038650&#45;&gt;Node0x582282035c50 -->
<g id="edge58" class="edge">
<title>Node0x582282038650&#45;&gt;Node0x582282035c50</title>
<path fill="none" stroke="#4a6fa5" d="M467.85,-1321.81C494.78,-1283.62 562.76,-1194.82 642,-1149 655.39,-1141.26 670.85,-1135.55 685.94,-1131.36"/>
<polygon fill="#4a6fa5" stroke="#4a6fa5" points="686.67,-1133.34 691.93,-1129.77 685.59,-1129.28 686.67,-1133.34"/>
</g>
<!-- Node0x582282038650&#45;&gt;Node0x5822820344b0 -->
<g id="edge41" class="edge">
<title>Node0x582282038650&#45;&gt;Node0x5822820344b0</title>
<path fill="none" stroke="#4a6fa5" d="M471.33,-1321.93C498.75,-1289.6 554.95,-1218.72 584,-1149 634.56,-1027.67 551.59,-954.41 642,-859 654.1,-846.23 670.99,-838.79 688.03,-834.53"/>
<polygon fill="#4a6fa5" stroke="#4a6fa5" points="688.92,-836.48 694.31,-833.1 687.99,-832.39 688.92,-836.48"/>
</g>
<!-- Node0x582282038650&#45;&gt;Node0x5822821eaa30 -->
<g id="edge56" class="edge">
<title>Node0x582282038650&#45;&gt;Node0x5822821eaa30</title>
<path fill="none" stroke="#4a6fa5" d="M470.99,-1321.78C497.89,-1289.23 553.3,-1218.01 584,-1149 627.2,-1051.89 567.08,-992.39 642,-917 651.87,-907.07 664.65,-900.39 678.04,-895.92"/>
<polygon fill="#4a6fa5" stroke="#4a6fa5" points="678.7,-897.92 683.82,-894.14 677.46,-893.9 678.7,-897.92"/>
</g>
<!-- Node0x582282038650&#45;&gt;Node0x5822821eb4a0 -->
<g id="edge54" class="edge">
<title>Node0x582282038650&#45;&gt;Node0x5822821eb4a0</title>
<path fill="none" stroke="#4a6fa5" d="M470.24,-1321.79C496.23,-1288.97 550.58,-1216.96 584,-1149 619.97,-1075.85 582.36,-1030.57 642,-975 659.34,-958.84 684.43,-951.4 706.57,-948.08"/>
<polygon fill="#4a6fa5" stroke="#4a6fa5" points="707.06,-950.13 712.72,-947.24 706.5,-945.97 707.06,-950.13"/>
</g>
<!-- Node0x582282038650&#45;&gt;Node0x582282037350 -->
<g id="edge53" class="edge">
<title>Node0x582282038650&#45;&gt;Node0x582282037350</title>
<path fill="none" stroke="#4a6fa5" d="M468.9,-1321.8C493.22,-1288.42 545.65,-1214.77 584,-1149 613.04,-1099.21 597.15,-1069.21 642,-1033 657.29,-1020.66 677.22,-1013.5 696.08,-1009.38"/>
<polygon fill="#4a6fa5" stroke="#4a6fa5" points="696.97,-1011.34 702.43,-1008.09 696.13,-1007.23 696.97,-1011.34"/>
</g>
<!-- Node0x58228203ded0 -->
<g id="node31" class="node">
<title>Node0x58228203ded0</title>
<path fill="#f0f4ff" stroke="black" d="M816,-1648C816,-1648 696,-1648 696,-1648 690,-1648 684,-1642 684,-1636 684,-1636 684,-1624 684,-1624 684,-1618 690,-1612 696,-1612 696,-1612 816,-1612 816,-1612 822,-1612 828,-1618 828,-1624 828,-1624 828,-1636 828,-1636 828,-1642 822,-1648 816,-1648"/>
<text text-anchor="middle" x="756" y="-1627.8" font-family="Courier,monospace" font-size="9.00">CIccFileIO::~CIccFileIO()</text>
</g>
<!-- Node0x582282038650&#45;&gt;Node0x58228203ded0 -->
<g id="edge40" class="edge">
<title>Node0x582282038650&#45;&gt;Node0x58228203ded0</title>
<path fill="none" stroke="#4a6fa5" d="M463.08,-1358.21C483.96,-1406.03 547.13,-1535.99 642,-1601 652.79,-1608.4 665.34,-1613.91 678.06,-1618.01"/>
<polygon fill="#4a6fa5" stroke="#4a6fa5" points="677.56,-1620.06 683.91,-1619.8 678.79,-1616.04 677.56,-1620.06"/>
</g>
<!-- Node0x5822821ec7e0 -->
<g id="node32" class="node">
<title>Node0x5822821ec7e0</title>
<path fill="#f0f4ff" stroke="black" d="M852.5,-1416C852.5,-1416 659.5,-1416 659.5,-1416 653.5,-1416 647.5,-1410 647.5,-1404 647.5,-1404 647.5,-1392 647.5,-1392 647.5,-1386 653.5,-1380 659.5,-1380 659.5,-1380 852.5,-1380 852.5,-1380 858.5,-1380 864.5,-1386 864.5,-1392 864.5,-1392 864.5,-1404 864.5,-1404 864.5,-1410 858.5,-1416 852.5,-1416"/>
<text text-anchor="middle" x="756" y="-1395.8" font-family="Courier,monospace" font-size="9.00">IccAnalyzerSecurity::ValidateFilePath()</text>
</g>
<!-- Node0x582282038650&#45;&gt;Node0x5822821ec7e0 -->
<g id="edge42" class="edge">
<title>Node0x582282038650&#45;&gt;Node0x5822821ec7e0</title>
<path fill="none" stroke="#4a6fa5" d="M521.23,-1352.73C560.69,-1360.37 611.68,-1370.24 655.95,-1378.82"/>
<polygon fill="#4a6fa5" stroke="#4a6fa5" points="655.58,-1380.89 661.87,-1379.97 656.38,-1376.76 655.58,-1380.89"/>
</g>
<!-- Node0x58228203b440 -->
<g id="node33" class="node">
<title>Node0x58228203b440</title>
<path fill="#f0f4ff" stroke="black" d="M800,-1764C800,-1764 712,-1764 712,-1764 706,-1764 700,-1758 700,-1752 700,-1752 700,-1740 700,-1740 700,-1734 706,-1728 712,-1728 712,-1728 800,-1728 800,-1728 806,-1728 812,-1734 812,-1740 812,-1740 812,-1752 812,-1752 812,-1758 806,-1764 800,-1764"/>
<text text-anchor="middle" x="756" y="-1743.8" font-family="Courier,monospace" font-size="9.00">CIccFileIO::Close()</text>
</g>
<!-- Node0x582282038650&#45;&gt;Node0x58228203b440 -->
<g id="edge43" class="edge">
<title>Node0x582282038650&#45;&gt;Node0x58228203b440</title>
<path fill="none" stroke="#4a6fa5" d="M458.93,-1358.3C471.39,-1419.42 520.05,-1618.12 642,-1717 656.63,-1728.86 675.54,-1735.93 693.69,-1740.13"/>
<polygon fill="#4a6fa5" stroke="#4a6fa5" points="693.5,-1742.24 699.81,-1741.44 694.39,-1738.13 693.5,-1742.24"/>
</g>
<!-- Node0x58228203dc80 -->
<g id="node34" class="node">
<title>Node0x58228203dc80</title>
<path fill="#f0f4ff" stroke="black" d="M803,-1532C803,-1532 709,-1532 709,-1532 703,-1532 697,-1526 697,-1520 697,-1520 697,-1508 697,-1508 697,-1502 703,-1496 709,-1496 709,-1496 803,-1496 803,-1496 809,-1496 815,-1502 815,-1508 815,-1508 815,-1520 815,-1520 815,-1526 809,-1532 803,-1532"/>
<text text-anchor="middle" x="756" y="-1511.8" font-family="Courier,monospace" font-size="9.00">CIccProfile::Write()</text>
</g>
<!-- Node0x582282038650&#45;&gt;Node0x58228203dc80 -->
<g id="edge44" class="edge">
<title>Node0x582282038650&#45;&gt;Node0x58228203dc80</title>
<path fill="none" stroke="#4a6fa5" d="M473.33,-1358.07C504.64,-1388.76 572.78,-1451.04 642,-1485 657.14,-1492.43 674.39,-1498.09 690.77,-1502.35"/>
<polygon fill="#4a6fa5" stroke="#4a6fa5" points="690.43,-1504.43 696.76,-1503.86 691.46,-1500.36 690.43,-1504.43"/>
</g>
<!-- Node0x582282039b40 -->
<g id="node35" class="node">
<title>Node0x582282039b40</title>
<path fill="#f0f4ff" stroke="black" d="M797.5,-1590C797.5,-1590 714.5,-1590 714.5,-1590 708.5,-1590 702.5,-1584 702.5,-1578 702.5,-1578 702.5,-1566 702.5,-1566 702.5,-1560 708.5,-1554 714.5,-1554 714.5,-1554 797.5,-1554 797.5,-1554 803.5,-1554 809.5,-1560 809.5,-1566 809.5,-1566 809.5,-1578 809.5,-1578 809.5,-1584 803.5,-1590 797.5,-1590"/>
<text text-anchor="middle" x="756" y="-1569.8" font-family="Courier,monospace" font-size="9.00">CIccFileIO::Open()</text>
</g>
<!-- Node0x582282038650&#45;&gt;Node0x582282039b40 -->
<g id="edge45" class="edge">
<title>Node0x582282038650&#45;&gt;Node0x582282039b40</title>
<path fill="none" stroke="#4a6fa5" d="M466.77,-1358.13C492.58,-1398.07 560.08,-1493.95 642,-1543 658.39,-1552.81 678.05,-1559.33 696.34,-1563.65"/>
<polygon fill="#4a6fa5" stroke="#4a6fa5" points="696.17,-1565.77 702.48,-1565.04 697.09,-1561.67 696.17,-1565.77"/>
</g>
<!-- Node0x582282039d90 -->
<g id="node36" class="node">
<title>Node0x582282039d90</title>
<path fill="#f0f4ff" stroke="black" d="M813.5,-1706C813.5,-1706 698.5,-1706 698.5,-1706 692.5,-1706 686.5,-1700 686.5,-1694 686.5,-1694 686.5,-1682 686.5,-1682 686.5,-1676 692.5,-1670 698.5,-1670 698.5,-1670 813.5,-1670 813.5,-1670 819.5,-1670 825.5,-1676 825.5,-1682 825.5,-1682 825.5,-1694 825.5,-1694 825.5,-1700 819.5,-1706 813.5,-1706"/>
<text text-anchor="middle" x="756" y="-1685.8" font-family="Courier,monospace" font-size="9.00">CIccFileIO::CIccFileIO()</text>
</g>
<!-- Node0x582282038650&#45;&gt;Node0x582282039d90 -->
<g id="edge46" class="edge">
<title>Node0x582282038650&#45;&gt;Node0x582282039d90</title>
<path fill="none" stroke="#4a6fa5" d="M460.63,-1358.16C477.05,-1412.85 533.7,-1577.27 642,-1659 653.25,-1667.49 666.72,-1673.5 680.39,-1677.76"/>
<polygon fill="#4a6fa5" stroke="#4a6fa5" points="679.9,-1679.81 686.25,-1679.48 681.09,-1675.78 679.9,-1679.81"/>
</g>
<!-- Node0x58228203b670 -->
<g id="node37" class="node">
<title>Node0x58228203b670</title>
<path fill="#f0f4ff" stroke="black" d="M1091,-1387C1091,-1387 940,-1387 940,-1387 934,-1387 928,-1381 928,-1375 928,-1375 928,-1363 928,-1363 928,-1357 934,-1351 940,-1351 940,-1351 1091,-1351 1091,-1351 1097,-1351 1103,-1357 1103,-1363 1103,-1363 1103,-1375 1103,-1375 1103,-1381 1097,-1387 1091,-1387"/>
<text text-anchor="middle" x="1015.5" y="-1366.8" font-family="Courier,monospace" font-size="9.00">RawFileHandle::~RawFileHandle()</text>
</g>
<!-- Node0x582282038650&#45;&gt;Node0x58228203b670 -->
<g id="edge47" class="edge">
<title>Node0x582282038650&#45;&gt;Node0x58228203b670</title>
<path fill="none" stroke="#4a6fa5" d="M456.65,-1358.43C462.09,-1428.02 491.76,-1675.95 642,-1775 726.6,-1830.78 787.2,-1833.42 870,-1775 999.07,-1683.94 1013.53,-1466.93 1014.63,-1393.66"/>
<polygon fill="#4a6fa5" stroke="#4a6fa5" points="1016.74,-1393.44 1014.7,-1387.42 1012.54,-1393.4 1016.74,-1393.44"/>
</g>
<!-- Node0x5822820322a0 -->
<g id="node38" class="node">
<title>Node0x5822820322a0</title>
<path fill="#f0f4ff" stroke="black" d="M779,-1474C779,-1474 733,-1474 733,-1474 727,-1474 721,-1468 721,-1462 721,-1462 721,-1450 721,-1450 721,-1444 727,-1438 733,-1438 733,-1438 779,-1438 779,-1438 785,-1438 791,-1444 791,-1450 791,-1450 791,-1462 791,-1462 791,-1468 785,-1474 779,-1474"/>
<text text-anchor="middle" x="756" y="-1453.8" font-family="Courier,monospace" font-size="9.00">SafeMul64()</text>
</g>
<!-- Node0x582282038650&#45;&gt;Node0x5822820322a0 -->
<g id="edge49" class="edge">
<title>Node0x582282038650&#45;&gt;Node0x5822820322a0</title>
<path fill="none" stroke="#4a6fa5" d="M489.41,-1358.15C526.18,-1377.28 587,-1407.31 642,-1427 665.7,-1435.49 693.03,-1442.57 714.88,-1447.61"/>
<polygon fill="#4a6fa5" stroke="#4a6fa5" points="714.57,-1449.69 720.88,-1448.98 715.5,-1445.6 714.57,-1449.69"/>
</g>
<!-- Node0x58228203bbc0 -->
<g id="node39" class="node">
<title>Node0x58228203bbc0</title>
<path fill="#f0f4ff" stroke="black" d="M784.5,-1358C784.5,-1358 727.5,-1358 727.5,-1358 721.5,-1358 715.5,-1352 715.5,-1346 715.5,-1346 715.5,-1334 715.5,-1334 715.5,-1328 721.5,-1322 727.5,-1322 727.5,-1322 784.5,-1322 784.5,-1322 790.5,-1322 796.5,-1328 796.5,-1334 796.5,-1334 796.5,-1346 796.5,-1346 796.5,-1352 790.5,-1358 784.5,-1358"/>
<text text-anchor="middle" x="756" y="-1337.8" font-family="Courier,monospace" font-size="9.00">OpenRawFile()</text>
</g>
<!-- Node0x582282038650&#45;&gt;Node0x58228203bbc0 -->
<g id="edge55" class="edge">
<title>Node0x582282038650&#45;&gt;Node0x58228203bbc0</title>
<path fill="none" stroke="#4a6fa5" d="M521.23,-1340C578.03,-1340 658.69,-1340 708.87,-1340"/>
<polygon fill="#4a6fa5" stroke="#4a6fa5" points="709.14,-1342.1 715.14,-1340 709.14,-1337.9 709.14,-1342.1"/>
</g>
<!-- Node0x58228203b1f0 -->
<g id="node40" class="node">
<title>Node0x58228203b1f0</title>
<path fill="#f0f4ff" stroke="black" d="M818.5,-1926C818.5,-1926 693.5,-1926 693.5,-1926 687.5,-1926 681.5,-1920 681.5,-1914 681.5,-1914 681.5,-1902 681.5,-1902 681.5,-1896 687.5,-1890 693.5,-1890 693.5,-1890 818.5,-1890 818.5,-1890 824.5,-1890 830.5,-1896 830.5,-1902 830.5,-1902 830.5,-1914 830.5,-1914 830.5,-1920 824.5,-1926 818.5,-1926"/>
<text text-anchor="middle" x="756" y="-1905.8" font-family="Courier,monospace" font-size="9.00">CIccProfile::CIccProfile()</text>
</g>
<!-- Node0x582282038650&#45;&gt;Node0x58228203b1f0 -->
<g id="edge57" class="edge">
<title>Node0x582282038650&#45;&gt;Node0x58228203b1f0</title>
<path fill="none" stroke="#4a6fa5" d="M455.94,-1358.12C458.81,-1434.1 480.33,-1730.05 642,-1879 651.41,-1887.67 663.05,-1893.82 675.26,-1898.18"/>
<polygon fill="#4a6fa5" stroke="#4a6fa5" points="674.93,-1900.28 681.29,-1900.18 676.25,-1896.3 674.93,-1900.28"/>
</g>
<!-- Node0x5822822ed810 -->
<g id="node41" class="node">
<title>Node0x5822822ed810</title>
<path fill="#f0f4ff" stroke="black" d="M800,-1868C800,-1868 712,-1868 712,-1868 706,-1868 700,-1862 700,-1856 700,-1856 700,-1844 700,-1844 700,-1838 706,-1832 712,-1832 712,-1832 800,-1832 800,-1832 806,-1832 812,-1838 812,-1844 812,-1844 812,-1856 812,-1856 812,-1862 806,-1868 800,-1868"/>
<text text-anchor="middle" x="756" y="-1847.8" font-family="Courier,monospace" font-size="9.00">CIccProfile::Read()</text>
</g>
<!-- Node0x582282038650&#45;&gt;Node0x5822822ed810 -->
<g id="edge59" class="edge">
<title>Node0x582282038650&#45;&gt;Node0x5822822ed810</title>
<path fill="none" stroke="#4a6fa5" d="M457.1,-1358.14C464.26,-1428.06 499.52,-1682.66 642,-1815 656.2,-1828.19 675.27,-1836.41 693.71,-1841.53"/>
<polygon fill="#4a6fa5" stroke="#4a6fa5" points="693.59,-1843.67 699.93,-1843.15 694.65,-1839.61 693.59,-1843.67"/>
</g>
<!-- Node0x58228203bbc0&#45;&gt;Node0x58228203b670 -->
<g id="edge62" class="edge">
<title>Node0x58228203bbc0&#45;&gt;Node0x58228203b670</title>
<path fill="none" stroke="#4a6fa5" d="M796.67,-1344.47C829.95,-1348.22 878.81,-1353.72 921.82,-1358.56"/>
<polygon fill="#4a6fa5" stroke="#4a6fa5" points="921.65,-1360.66 927.85,-1359.24 922.12,-1356.48 921.65,-1360.66"/>
</g>
<!-- Node0x58228203f820 -->
<g id="node42" class="node">
<title>Node0x58228203f820</title>
<path fill="#f0f4ff" stroke="black" d="M1088.5,-1329C1088.5,-1329 942.5,-1329 942.5,-1329 936.5,-1329 930.5,-1323 930.5,-1317 930.5,-1317 930.5,-1305 930.5,-1305 930.5,-1299 936.5,-1293 942.5,-1293 942.5,-1293 1088.5,-1293 1088.5,-1293 1094.5,-1293 1100.5,-1299 1100.5,-1305 1100.5,-1305 1100.5,-1317 1100.5,-1317 1100.5,-1323 1094.5,-1329 1088.5,-1329"/>
<text text-anchor="middle" x="1015.5" y="-1308.8" font-family="Courier,monospace" font-size="9.00">RawFileHandle::RawFileHandle()</text>
</g>
<!-- Node0x58228203bbc0&#45;&gt;Node0x58228203f820 -->
<g id="edge61" class="edge">
<title>Node0x58228203bbc0&#45;&gt;Node0x58228203f820</title>
<path fill="none" stroke="#4a6fa5" d="M796.67,-1335.53C830.56,-1331.72 880.59,-1326.08 924.16,-1321.17"/>
<polygon fill="#4a6fa5" stroke="#4a6fa5" points="924.54,-1323.24 930.27,-1320.49 924.07,-1319.07 924.54,-1323.24"/>
</g>
<!-- Node0x582282040560 -->
<g id="node43" class="node">
<title>Node0x582282040560</title>
<path fill="#f0f4ff" stroke="black" d="M509,-1138C509,-1138 400,-1138 400,-1138 394,-1138 388,-1132 388,-1126 388,-1126 388,-1114 388,-1114 388,-1108 394,-1102 400,-1102 400,-1102 509,-1102 509,-1102 515,-1102 521,-1108 521,-1114 521,-1114 521,-1126 521,-1126 521,-1132 515,-1138 509,-1138"/>
<text text-anchor="middle" x="454.5" y="-1117.8" font-family="Courier,monospace" font-size="9.00">InjectMpeDataInternal()</text>
</g>
<!-- Node0x582282040560&#45;&gt;Node0x5822822dda70 -->
<g id="edge76" class="edge">
<title>Node0x582282040560&#45;&gt;Node0x5822822dda70</title>
<path fill="none" stroke="#4a6fa5" d="M465.75,-1101.83C490.07,-1057.93 551.64,-942.03 584,-838 627.84,-697.06 541.65,-619.24 642,-511 653.47,-498.63 669.43,-491.24 685.75,-486.9"/>
<polygon fill="#4a6fa5" stroke="#4a6fa5" points="686.44,-488.89 691.77,-485.43 685.45,-484.81 686.44,-488.89"/>
</g>
<!-- Node0x582282040560&#45;&gt;Node0x582282094180 -->
<g id="edge75" class="edge">
<title>Node0x582282040560&#45;&gt;Node0x582282094180</title>
<path fill="none" stroke="#4a6fa5" d="M464.95,-1101.95C487.78,-1057.83 546.76,-940.67 584,-838 617.16,-746.57 572.65,-695.18 642,-627 653.22,-615.97 668.04,-608.96 683.23,-604.55"/>
<polygon fill="#4a6fa5" stroke="#4a6fa5" points="684.05,-606.51 689.3,-602.93 682.96,-602.45 684.05,-606.51"/>
</g>
<!-- Node0x582282040560&#45;&gt;Node0x58228206b5a0 -->
<g id="edge74" class="edge">
<title>Node0x582282040560&#45;&gt;Node0x58228206b5a0</title>
<path fill="none" stroke="#4a6fa5" d="M465.5,-1101.75C489.27,-1057.67 549.73,-941.42 584,-838 622.47,-721.9 557.21,-657.14 642,-569 649.22,-561.5 658.09,-555.84 667.67,-551.58"/>
<polygon fill="#4a6fa5" stroke="#4a6fa5" points="668.63,-553.46 673.38,-549.24 667.04,-549.57 668.63,-553.46"/>
</g>
<!-- Node0x582282040560&#45;&gt;Node0x5822821cfe80 -->
<g id="edge73" class="edge">
<title>Node0x582282040560&#45;&gt;Node0x5822821cfe80</title>
<path fill="none" stroke="#4a6fa5" d="M464.34,-1101.71C485.8,-1057.06 541.98,-938.81 584,-838 611.98,-770.88 587.8,-733.49 642,-685 654.23,-674.06 670.05,-667.13 685.95,-662.79"/>
<polygon fill="#4a6fa5" stroke="#4a6fa5" points="686.51,-664.81 691.8,-661.3 685.47,-660.74 686.51,-664.81"/>
</g>
<!-- Node0x582282040560&#45;&gt;Node0x582282202810 -->
<g id="edge71" class="edge">
<title>Node0x582282040560&#45;&gt;Node0x582282202810</title>
<path fill="none" stroke="#4a6fa5" d="M521.23,-1132.73C572.69,-1142.69 643.72,-1156.45 693.94,-1166.18"/>
<polygon fill="#4a6fa5" stroke="#4a6fa5" points="693.67,-1168.26 699.96,-1167.34 694.47,-1164.14 693.67,-1168.26"/>
</g>
<!-- Node0x582282040560&#45;&gt;Node0x5822822e8680 -->
<g id="edge83" class="edge">
<title>Node0x582282040560&#45;&gt;Node0x5822822e8680</title>
<path fill="none" stroke="#4a6fa5" d="M521.23,-1107.27C571.53,-1097.53 640.53,-1084.17 690.52,-1074.49"/>
<polygon fill="#4a6fa5" stroke="#4a6fa5" points="691.03,-1076.53 696.52,-1073.32 690.23,-1072.4 691.03,-1076.53"/>
</g>
<!-- Node0x582282040560&#45;&gt;Node0x582282035c50 -->
<g id="edge80" class="edge">
<title>Node0x582282040560&#45;&gt;Node0x582282035c50</title>
<path fill="none" stroke="#4a6fa5" d="M521.23,-1120C569.94,-1120 636.19,-1120 685.73,-1120"/>
<polygon fill="#4a6fa5" stroke="#4a6fa5" points="685.99,-1122.1 691.99,-1120 685.99,-1117.9 685.99,-1122.1"/>
</g>
<!-- Node0x582282040560&#45;&gt;Node0x5822820344b0 -->
<g id="edge64" class="edge">
<title>Node0x582282040560&#45;&gt;Node0x5822820344b0</title>
<path fill="none" stroke="#4a6fa5" d="M463.08,-1101.79C483.96,-1053.97 547.13,-924.01 642,-859 655.69,-849.62 672.19,-843.27 688.3,-838.98"/>
<polygon fill="#4a6fa5" stroke="#4a6fa5" points="688.91,-840.99 694.22,-837.49 687.89,-836.92 688.91,-840.99"/>
</g>
<!-- Node0x582282040560&#45;&gt;Node0x5822821eaa30 -->
<g id="edge70" class="edge">
<title>Node0x582282040560&#45;&gt;Node0x5822821eaa30</title>
<path fill="none" stroke="#4a6fa5" d="M466.77,-1101.87C492.58,-1061.93 560.08,-966.05 642,-917 653,-910.41 665.47,-905.31 678.01,-901.36"/>
<polygon fill="#4a6fa5" stroke="#4a6fa5" points="678.63,-903.37 683.77,-899.63 677.42,-899.35 678.63,-903.37"/>
</g>
<!-- Node0x582282040560&#45;&gt;Node0x5822821eb4a0 -->
<g id="edge77" class="edge">
<title>Node0x582282040560&#45;&gt;Node0x5822821eb4a0</title>
<path fill="none" stroke="#4a6fa5" d="M473.33,-1101.93C504.64,-1071.24 572.78,-1008.96 642,-975 662.19,-965.1 686.13,-958.33 706.76,-953.84"/>
<polygon fill="#4a6fa5" stroke="#4a6fa5" points="707.33,-955.86 712.76,-952.57 706.46,-951.75 707.33,-955.86"/>
</g>
<!-- Node0x582282040560&#45;&gt;Node0x582282036270 -->
<g id="edge79" class="edge">
<title>Node0x582282040560&#45;&gt;Node0x582282036270</title>
<path fill="none" stroke="#4a6fa5" d="M463.46,-1101.72C494.97,-1029.72 610.73,-768.35 642,-743 645.65,-740.04 649.57,-737.38 653.67,-734.99"/>
<polygon fill="#4a6fa5" stroke="#4a6fa5" points="654.71,-736.81 658.97,-732.1 652.69,-733.13 654.71,-736.81"/>
</g>
<!-- Node0x582282040560&#45;&gt;Node0x582282036d60 -->
<g id="edge78" class="edge">
<title>Node0x582282040560&#45;&gt;Node0x582282036d60</title>
<path fill="none" stroke="#4a6fa5" d="M460.63,-1101.84C477.05,-1047.15 533.7,-882.73 642,-801 645.92,-798.04 650.11,-795.38 654.49,-792.99"/>
<polygon fill="#4a6fa5" stroke="#4a6fa5" points="655.74,-794.71 660.13,-790.11 653.83,-790.97 655.74,-794.71"/>
</g>
<!-- Node0x582282040560&#45;&gt;Node0x58228203ded0 -->
<g id="edge66" class="edge">
<title>Node0x582282040560&#45;&gt;Node0x58228203ded0</title>
<path fill="none" stroke="#4a6fa5" d="M471.33,-1138.07C498.75,-1170.4 554.95,-1241.28 584,-1311 634.56,-1432.33 551.59,-1505.59 642,-1601 651.69,-1611.23 664.46,-1618.04 677.92,-1622.53"/>
<polygon fill="#4a6fa5" stroke="#4a6fa5" points="677.37,-1624.56 683.72,-1624.32 678.6,-1620.55 677.37,-1624.56"/>
</g>
<!-- Node0x582282040560&#45;&gt;Node0x5822821ec7e0 -->
<g id="edge65" class="edge">
<title>Node0x582282040560&#45;&gt;Node0x5822821ec7e0</title>
<path fill="none" stroke="#4a6fa5" d="M466.84,-1138.18C499.56,-1190.11 594.86,-1337.47 642,-1369 646.64,-1372.1 651.58,-1374.87 656.72,-1377.34"/>
<polygon fill="#4a6fa5" stroke="#4a6fa5" points="656.03,-1379.34 662.36,-1379.91 657.77,-1375.52 656.03,-1379.34"/>
</g>
<!-- Node0x582282040560&#45;&gt;Node0x58228203dc80 -->
<g id="edge67" class="edge">
<title>Node0x582282040560&#45;&gt;Node0x58228203dc80</title>
<path fill="none" stroke="#4a6fa5" d="M470.24,-1138.21C496.23,-1171.03 550.58,-1243.04 584,-1311 619.97,-1384.15 582.36,-1429.43 642,-1485 655.31,-1497.41 673.2,-1504.68 690.81,-1508.89"/>
<polygon fill="#4a6fa5" stroke="#4a6fa5" points="690.45,-1510.96 696.76,-1510.2 691.36,-1506.86 690.45,-1510.96"/>
</g>
<!-- Node0x582282040560&#45;&gt;Node0x582282039b40 -->
<g id="edge68" class="edge">
<title>Node0x582282040560&#45;&gt;Node0x582282039b40</title>
<path fill="none" stroke="#4a6fa5" d="M470.99,-1138.22C497.89,-1170.77 553.3,-1241.99 584,-1311 627.2,-1408.11 567.08,-1467.61 642,-1543 656.3,-1557.39 676.7,-1564.96 696.24,-1568.84"/>
<polygon fill="#4a6fa5" stroke="#4a6fa5" points="696,-1570.93 702.27,-1569.93 696.74,-1566.79 696,-1570.93"/>
</g>
<!-- Node0x582282040560&#45;&gt;Node0x582282039d90 -->
<g id="edge69" class="edge">
<title>Node0x582282040560&#45;&gt;Node0x582282039d90</title>
<path fill="none" stroke="#4a6fa5" d="M471.78,-1138.23C499.64,-1170.53 556.15,-1241 584,-1311 641.97,-1456.69 536,-1543.46 642,-1659 652.21,-1670.13 666.07,-1677.24 680.58,-1681.72"/>
<polygon fill="#4a6fa5" stroke="#4a6fa5" points="680.04,-1683.75 686.38,-1683.37 681.19,-1679.71 680.04,-1683.75"/>
</g>
<!-- Node0x582282040560&#45;&gt;Node0x58228203b670 -->
<g id="edge63" class="edge">
<title>Node0x582282040560&#45;&gt;Node0x58228203b670</title>
<path fill="none" stroke="#4a6fa5" d="M473.15,-1138.45C504.19,-1169.73 571.91,-1232.86 642,-1265 735.97,-1308.09 772.25,-1277.37 870,-1311 897.25,-1320.38 901.38,-1328.95 928,-1340 935.34,-1343.05 943.13,-1346.02 950.91,-1348.82"/>
<polygon fill="#4a6fa5" stroke="#4a6fa5" points="950.49,-1350.9 956.85,-1350.93 951.9,-1346.94 950.49,-1350.9"/>
</g>
<!-- Node0x582282040560&#45;&gt;Node0x5822820322a0 -->
<g id="edge72" class="edge">
<title>Node0x582282040560&#45;&gt;Node0x5822820322a0</title>
<path fill="none" stroke="#4a6fa5" d="M468.9,-1138.2C493.22,-1171.58 545.65,-1245.23 584,-1311 613.04,-1360.79 597.15,-1390.79 642,-1427 662.47,-1443.53 691.26,-1450.75 714.65,-1453.85"/>
<polygon fill="#4a6fa5" stroke="#4a6fa5" points="714.58,-1455.96 720.79,-1454.59 715.08,-1451.79 714.58,-1455.96"/>
</g>
<!-- Node0x582282040560&#45;&gt;Node0x58228203bbc0 -->
<g id="edge82" class="edge">
<title>Node0x582282040560&#45;&gt;Node0x58228203bbc0</title>
<path fill="none" stroke="#4a6fa5" d="M468.8,-1138.14C496.76,-1174.98 565.37,-1258.98 642,-1305 662.6,-1317.37 687.97,-1325.75 709.45,-1331.19"/>
<polygon fill="#4a6fa5" stroke="#4a6fa5" points="709.07,-1333.26 715.4,-1332.65 710.08,-1329.18 709.07,-1333.26"/>
</g>
<!-- Node0x5822822ef770 -->
<g id="node44" class="node">
<title>Node0x5822822ef770</title>
<path fill="#f0f4ff" stroke="black" d="M792.5,-1254C792.5,-1254 719.5,-1254 719.5,-1254 713.5,-1254 707.5,-1248 707.5,-1242 707.5,-1242 707.5,-1230 707.5,-1230 707.5,-1224 713.5,-1218 719.5,-1218 719.5,-1218 792.5,-1218 792.5,-1218 798.5,-1218 804.5,-1224 804.5,-1230 804.5,-1230 804.5,-1242 804.5,-1242 804.5,-1248 798.5,-1254 792.5,-1254"/>
<text text-anchor="middle" x="756" y="-1233.8" font-family="Courier,monospace" font-size="9.00">OpenIccProfile()</text>
</g>
<!-- Node0x582282040560&#45;&gt;Node0x5822822ef770 -->
<g id="edge81" class="edge">
<title>Node0x582282040560&#45;&gt;Node0x5822822ef770</title>
<path fill="none" stroke="#4a6fa5" d="M489.41,-1138.15C526.18,-1157.28 587,-1187.31 642,-1207 660.93,-1213.78 682.17,-1219.66 701.09,-1224.32"/>
<polygon fill="#4a6fa5" stroke="#4a6fa5" points="701.08,-1226.48 707.4,-1225.86 702.07,-1222.4 701.08,-1226.48"/>
</g>
<!-- Node0x582282041ad0 -->
<g id="node45" class="node">
<title>Node0x582282041ad0</title>
<path fill="#f0f4ff" stroke="black" d="M87.5,-1648C87.5,-1648 14.5,-1648 14.5,-1648 8.5,-1648 2.5,-1642 2.5,-1636 2.5,-1636 2.5,-1624 2.5,-1624 2.5,-1618 8.5,-1612 14.5,-1612 14.5,-1612 87.5,-1612 87.5,-1612 93.5,-1612 99.5,-1618 99.5,-1624 99.5,-1624 99.5,-1636 99.5,-1636 99.5,-1642 93.5,-1648 87.5,-1648"/>
<text text-anchor="middle" x="51" y="-1627.8" font-family="Courier,monospace" font-size="9.00">ExtractLutData()</text>
</g>
<!-- Node0x582282041ad0&#45;&gt;Node0x5822822e8850 -->
<g id="edge89" class="edge">
<title>Node0x582282041ad0&#45;&gt;Node0x5822822e8850</title>
<path fill="none" stroke="#4a6fa5" d="M55.19,-1611.8C67.65,-1541.06 114.59,-1277.6 160,-1062 175.62,-987.83 196.5,-900.62 206.57,-859.2"/>
<polygon fill="#4a6fa5" stroke="#4a6fa5" points="208.66,-859.52 208.04,-853.19 204.58,-858.52 208.66,-859.52"/>
</g>
<!-- Node0x582282041ad0&#45;&gt;Node0x582282037dd0 -->
<g id="edge90" class="edge">
<title>Node0x582282041ad0&#45;&gt;Node0x582282037dd0</title>
<path fill="none" stroke="#4a6fa5" d="M53.21,-1611.72C60.49,-1504.91 99.99,-961.07 160,-806 206.32,-686.3 218.52,-640.65 325,-569 345.47,-555.23 371.5,-547.91 394.77,-544.06"/>
<polygon fill="#4a6fa5" stroke="#4a6fa5" points="395.33,-546.1 400.94,-543.11 394.69,-541.95 395.33,-546.1"/>
</g>
<!-- Node0x582282041ad0&#45;&gt;Node0x58228203ded0 -->
<g id="edge87" class="edge">
<title>Node0x582282041ad0&#45;&gt;Node0x58228203ded0</title>
<path fill="none" stroke="#4a6fa5" d="M99.77,-1630C219.14,-1630 531.31,-1630 677.45,-1630"/>
<polygon fill="#4a6fa5" stroke="#4a6fa5" points="677.86,-1632.1 683.86,-1630 677.86,-1627.9 677.86,-1632.1"/>
</g>
<!-- Node0x582282041ad0&#45;&gt;Node0x582282039b40 -->
<g id="edge85" class="edge">
<title>Node0x582282041ad0&#45;&gt;Node0x582282039b40</title>
<path fill="none" stroke="#4a6fa5" d="M99.77,-1626.06C224.49,-1615.77 559.72,-1588.11 696.09,-1576.86"/>
<polygon fill="#4a6fa5" stroke="#4a6fa5" points="696.63,-1578.92 702.43,-1576.34 696.28,-1574.74 696.63,-1578.92"/>
</g>
<!-- Node0x582282041ad0&#45;&gt;Node0x582282039d90 -->
<g id="edge84" class="edge">
<title>Node0x582282041ad0&#45;&gt;Node0x582282039d90</title>
<path fill="none" stroke="#4a6fa5" d="M99.73,-1638.43C118.47,-1641.5 140.2,-1644.76 160,-1647 346.31,-1668.04 566.74,-1679.83 679.81,-1684.93"/>
<polygon fill="#4a6fa5" stroke="#4a6fa5" points="680.02,-1687.04 686.11,-1685.21 680.21,-1682.84 680.02,-1687.04"/>
</g>
<!-- Node0x582282041ad0&#45;&gt;Node0x58228203b1f0 -->
<g id="edge86" class="edge">
<title>Node0x582282041ad0&#45;&gt;Node0x58228203b1f0</title>
<path fill="none" stroke="#4a6fa5" d="M84.33,-1648.04C90.28,-1651.56 96.38,-1655.31 102,-1659 128.81,-1676.63 132.39,-1685.65 160,-1702 330.18,-1802.81 557.04,-1864.03 675.44,-1891.26"/>
<polygon fill="#4a6fa5" stroke="#4a6fa5" points="675.03,-1893.32 681.34,-1892.61 675.96,-1889.22 675.03,-1893.32"/>
</g>
<!-- Node0x582282041ad0&#45;&gt;Node0x5822822ed810 -->
<g id="edge88" class="edge">
<title>Node0x582282041ad0&#45;&gt;Node0x5822822ed810</title>
<path fill="none" stroke="#4a6fa5" d="M99.67,-1647.81C118.4,-1654.65 140.14,-1662.4 160,-1669 353.58,-1733.35 585.5,-1801.3 693.74,-1832.49"/>
<polygon fill="#4a6fa5" stroke="#4a6fa5" points="693.39,-1834.57 699.74,-1834.22 694.56,-1830.54 693.39,-1834.57"/>
</g>
<!-- Node0x5822822efa30 -->
<g id="node46" class="node">
<title>Node0x5822822efa30</title>
<path fill="#f0f4ff" stroke="black" d="M247,-1358C247,-1358 180,-1358 180,-1358 174,-1358 168,-1352 168,-1346 168,-1346 168,-1334 168,-1334 168,-1328 174,-1322 180,-1322 180,-1322 247,-1322 247,-1322 253,-1322 259,-1328 259,-1334 259,-1334 259,-1346 259,-1346 259,-1352 253,-1358 247,-1358"/>
<text text-anchor="middle" x="213.5" y="-1337.8" font-family="Courier,monospace" font-size="9.00">InjectLutData()</text>
</g>
<!-- Node0x5822822efa30&#45;&gt;Node0x582282038650 -->
<g id="edge91" class="edge">
<title>Node0x5822822efa30&#45;&gt;Node0x582282038650</title>
<path fill="none" stroke="#4a6fa5" d="M259.17,-1340C293.54,-1340 341.73,-1340 381.52,-1340"/>
<polygon fill="#4a6fa5" stroke="#4a6fa5" points="381.83,-1342.1 387.83,-1340 381.83,-1337.9 381.83,-1342.1"/>
</g>
<!-- Node0x582282041590 -->
<g id="node47" class="node">
<title>Node0x582282041590</title>
<path fill="#f0f4ff" stroke="black" d="M255,-1167C255,-1167 172,-1167 172,-1167 166,-1167 160,-1161 160,-1155 160,-1155 160,-1143 160,-1143 160,-1137 166,-1131 172,-1131 172,-1131 255,-1131 255,-1131 261,-1131 267,-1137 267,-1143 267,-1143 267,-1155 267,-1155 267,-1161 261,-1167 255,-1167"/>
<text text-anchor="middle" x="213.5" y="-1146.8" font-family="Courier,monospace" font-size="9.00">InjectMpeLutData()</text>
</g>
<!-- Node0x582282041590&#45;&gt;Node0x582282040560 -->
<g id="edge92" class="edge">
<title>Node0x582282041590&#45;&gt;Node0x582282040560</title>
<path fill="none" stroke="#4a6fa5" d="M267.25,-1142.6C300.77,-1138.53 344.62,-1133.21 381.35,-1128.75"/>
<polygon fill="#4a6fa5" stroke="#4a6fa5" points="381.95,-1130.8 387.65,-1127.99 381.44,-1126.63 381.95,-1130.8"/>
</g>
<!-- Node0x582282041880 -->
<g id="node48" class="node">
<title>Node0x582282041880</title>
<path fill="#f0f4ff" stroke="black" d="M247,-1109C247,-1109 180,-1109 180,-1109 174,-1109 168,-1103 168,-1097 168,-1097 168,-1085 168,-1085 168,-1079 174,-1073 180,-1073 180,-1073 247,-1073 247,-1073 253,-1073 259,-1079 259,-1085 259,-1085 259,-1097 259,-1097 259,-1103 253,-1109 247,-1109"/>
<text text-anchor="middle" x="213.5" y="-1088.8" font-family="Courier,monospace" font-size="9.00">InjectMpeData()</text>
</g>
<!-- Node0x582282041880&#45;&gt;Node0x582282040560 -->
<g id="edge93" class="edge">
<title>Node0x582282041880&#45;&gt;Node0x582282040560</title>
<path fill="none" stroke="#4a6fa5" d="M259.17,-1096.42C293.54,-1100.59 341.73,-1106.44 381.52,-1111.27"/>
<polygon fill="#4a6fa5" stroke="#4a6fa5" points="381.62,-1113.39 387.83,-1112.03 382.13,-1109.22 381.62,-1113.39"/>
</g>
<!-- Node0x58228203e5e0 -->
<g id="node49" class="node">
<title>Node0x58228203e5e0</title>
<path fill="#f0f4ff" stroke="black" d="M66.5,-1706C66.5,-1706 35.5,-1706 35.5,-1706 29.5,-1706 23.5,-1700 23.5,-1694 23.5,-1694 23.5,-1682 23.5,-1682 23.5,-1676 29.5,-1670 35.5,-1670 35.5,-1670 66.5,-1670 66.5,-1670 72.5,-1670 78.5,-1676 78.5,-1682 78.5,-1682 78.5,-1694 78.5,-1694 78.5,-1700 72.5,-1706 66.5,-1706"/>
<text text-anchor="middle" x="51" y="-1685.8" font-family="Courier,monospace" font-size="9.00">length()</text>
</g>
<!-- Node0x5822822f6450 -->
<g id="node50" class="node">
<title>Node0x5822822f6450</title>
<path fill="#f0f4ff" stroke="black" d="M87.5,-1764C87.5,-1764 14.5,-1764 14.5,-1764 8.5,-1764 2.5,-1758 2.5,-1752 2.5,-1752 2.5,-1740 2.5,-1740 2.5,-1734 8.5,-1728 14.5,-1728 14.5,-1728 87.5,-1728 87.5,-1728 93.5,-1728 99.5,-1734 99.5,-1740 99.5,-1740 99.5,-1752 99.5,-1752 99.5,-1758 93.5,-1764 87.5,-1764"/>
<text text-anchor="middle" x="51" y="-1743.8" font-family="Courier,monospace" font-size="9.00">_Guard::_Guard()</text>
</g>
<!-- Node0x5822822f5d50 -->
<g id="node51" class="node">
<title>Node0x5822822f5d50</title>
<path fill="#f0f4ff" stroke="black" d="M90,-1822C90,-1822 12,-1822 12,-1822 6,-1822 0,-1816 0,-1810 0,-1810 0,-1798 0,-1798 0,-1792 6,-1786 12,-1786 12,-1786 90,-1786 90,-1786 96,-1786 102,-1792 102,-1798 102,-1798 102,-1810 102,-1810 102,-1816 96,-1822 90,-1822"/>
<text text-anchor="middle" x="51" y="-1801.8" font-family="Courier,monospace" font-size="9.00">_Guard::~_Guard()</text>
</g>
</g>
</svg>
