<?xml version="1.0" encoding="UTF-8" standalone="no"?>
<!DOCTYPE svg PUBLIC "-//W3C//DTD SVG 1.1//EN"
 "http://www.w3.org/Graphics/SVG/1.1/DTD/svg11.dtd">
<!-- Generated by graphviz version 2.43.0 (0)
 -->
<!-- Title: Call graph: /home/h02332/po/research/call&#45;graph/analyzer/IccHeuristicsHeader.ll Pages: 1 -->
<svg width="1105pt" height="1028pt"
 viewBox="0.00 0.00 1105.20 1028.04" xmlns="http://www.w3.org/2000/svg" xmlns:xlink="http://www.w3.org/1999/xlink">
<g id="graph0" class="graph" transform="scale(1 1) rotate(0) translate(21.6 1006.44)">
<title>Call graph: /home/h02332/po/research/call&#45;graph/analyzer/IccHeuristicsHeader.ll</title>
<polygon fill="white" stroke="transparent" points="-21.6,21.6 -21.6,-1006.44 1083.6,-1006.44 1083.6,21.6 -21.6,21.6"/>
<!-- Node0x55c1de51a060 -->
<g id="node1" class="node">
<title>Node0x55c1de51a060</title>
<path fill="#f0f4ff" stroke="black" d="M355,-662C355,-662 214,-662 214,-662 208,-662 202,-656 202,-650 202,-650 202,-638 202,-638 202,-632 208,-626 214,-626 214,-626 355,-626 355,-626 361,-626 367,-632 367,-638 367,-638 367,-650 367,-650 367,-656 361,-662 355,-662"/>
<text text-anchor="middle" x="284.5" y="-641.8" font-family="Courier,monospace" font-size="9.00">RunHeuristic_H1_ProfileSize()</text>
</g>
<!-- Node0x55c1de519f40 -->
<g id="node2" class="node">
<title>Node0x55c1de519f40</title>
<path fill="#f0f4ff" stroke="black" d="M567.5,-836C567.5,-836 515.5,-836 515.5,-836 509.5,-836 503.5,-830 503.5,-824 503.5,-824 503.5,-812 503.5,-812 503.5,-806 509.5,-800 515.5,-800 515.5,-800 567.5,-800 567.5,-800 573.5,-800 579.5,-806 579.5,-812 579.5,-812 579.5,-824 579.5,-824 579.5,-830 573.5,-836 567.5,-836"/>
<text text-anchor="middle" x="541.5" y="-815.8" font-family="Courier,monospace" font-size="9.00">ColorReset()</text>
</g>
<!-- Node0x55c1de51a060&#45;&gt;Node0x55c1de519f40 -->
<g id="edge1" class="edge">
<title>Node0x55c1de51a060&#45;&gt;Node0x55c1de519f40</title>
<path fill="none" stroke="#4a6fa5" d="M367.06,-660.05C374.59,-663.55 381.73,-667.81 388,-673 432.4,-709.75 402.01,-751.76 446,-789 460.23,-801.05 479.41,-808.09 496.77,-812.21"/>
<polygon fill="#4a6fa5" stroke="#4a6fa5" points="496.75,-814.36 503.07,-813.6 497.66,-810.26 496.75,-814.36"/>
</g>
<!-- Node0x55c1de519be0 -->
<g id="node3" class="node">
<title>Node0x55c1de519be0</title>
<path fill="#f0f4ff" stroke="black" d="M572.5,-778C572.5,-778 510.5,-778 510.5,-778 504.5,-778 498.5,-772 498.5,-766 498.5,-766 498.5,-754 498.5,-754 498.5,-748 504.5,-742 510.5,-742 510.5,-742 572.5,-742 572.5,-742 578.5,-742 584.5,-748 584.5,-754 584.5,-754 584.5,-766 584.5,-766 584.5,-772 578.5,-778 572.5,-778"/>
<text text-anchor="middle" x="541.5" y="-757.8" font-family="Courier,monospace" font-size="9.00">ColorWarning()</text>
</g>
<!-- Node0x55c1de51a060&#45;&gt;Node0x55c1de519be0 -->
<g id="edge2" class="edge">
<title>Node0x55c1de51a060&#45;&gt;Node0x55c1de519be0</title>
<path fill="none" stroke="#4a6fa5" d="M364.98,-662.04C373,-665.16 380.82,-668.79 388,-673 419.44,-691.45 414.76,-712.21 446,-731 460.02,-739.43 476.71,-745.61 492.13,-750.04"/>
<polygon fill="#4a6fa5" stroke="#4a6fa5" points="491.85,-752.14 498.19,-751.71 492.96,-748.09 491.85,-752.14"/>
</g>
<!-- Node0x55c1de51a460 -->
<g id="node4" class="node">
<title>Node0x55c1de51a460</title>
<path fill="#f0f4ff" stroke="black" d="M575,-662C575,-662 508,-662 508,-662 502,-662 496,-656 496,-650 496,-650 496,-638 496,-638 496,-632 502,-626 508,-626 508,-626 575,-626 575,-626 581,-626 587,-632 587,-638 587,-638 587,-650 587,-650 587,-656 581,-662 575,-662"/>
<text text-anchor="middle" x="541.5" y="-641.8" font-family="Courier,monospace" font-size="9.00">ColorCritical()</text>
</g>
<!-- Node0x55c1de51a060&#45;&gt;Node0x55c1de51a460 -->
<g id="edge3" class="edge">
<title>Node0x55c1de51a060&#45;&gt;Node0x55c1de51a460</title>
<path fill="none" stroke="#4a6fa5" d="M367.24,-644C407.42,-644 454.59,-644 489.56,-644"/>
<polygon fill="#4a6fa5" stroke="#4a6fa5" points="489.95,-646.1 495.95,-644 489.95,-641.9 489.95,-646.1"/>
</g>
<!-- Node0x55c1de519d00 -->
<g id="node5" class="node">
<title>Node0x55c1de519d00</title>
<path fill="#f0f4ff" stroke="black" d="M572.5,-720C572.5,-720 510.5,-720 510.5,-720 504.5,-720 498.5,-714 498.5,-708 498.5,-708 498.5,-696 498.5,-696 498.5,-690 504.5,-684 510.5,-684 510.5,-684 572.5,-684 572.5,-684 578.5,-684 584.5,-690 584.5,-696 584.5,-696 584.5,-708 584.5,-708 584.5,-714 578.5,-720 572.5,-720"/>
<text text-anchor="middle" x="541.5" y="-699.8" font-family="Courier,monospace" font-size="9.00">ColorSuccess()</text>
</g>
<!-- Node0x55c1de51a060&#45;&gt;Node0x55c1de519d00 -->
<g id="edge4" class="edge">
<title>Node0x55c1de51a060&#45;&gt;Node0x55c1de519d00</title>
<path fill="none" stroke="#4a6fa5" d="M364.79,-662.03C406.52,-671.53 456.35,-682.86 492.26,-691.03"/>
<polygon fill="#4a6fa5" stroke="#4a6fa5" points="492.04,-693.13 498.35,-692.41 492.97,-689.03 492.04,-693.13"/>
</g>
<!-- Node0x55c1de519e20 -->
<g id="node6" class="node">
<title>Node0x55c1de519e20</title>
<path fill="#f0f4ff" stroke="black" d="M795.5,-720C795.5,-720 754.5,-720 754.5,-720 748.5,-720 742.5,-714 742.5,-708 742.5,-708 742.5,-696 742.5,-696 742.5,-690 748.5,-684 754.5,-684 754.5,-684 795.5,-684 795.5,-684 801.5,-684 807.5,-690 807.5,-696 807.5,-696 807.5,-708 807.5,-708 807.5,-714 801.5,-720 795.5,-720"/>
<text text-anchor="middle" x="775" y="-699.8" font-family="Courier,monospace" font-size="9.00">GetColor()</text>
</g>
<!-- Node0x55c1de519f40&#45;&gt;Node0x55c1de519e20 -->
<g id="edge6" class="edge">
<title>Node0x55c1de519f40&#45;&gt;Node0x55c1de519e20</title>
<path fill="none" stroke="#4a6fa5" d="M579.7,-809.07C597.46,-804.18 618.76,-797.4 637,-789 676.34,-770.87 717.85,-743.14 744.72,-723.87"/>
<polygon fill="#4a6fa5" stroke="#4a6fa5" points="746.26,-725.35 749.9,-720.14 743.8,-721.95 746.26,-725.35"/>
</g>
<!-- Node0x55c1de519be0&#45;&gt;Node0x55c1de519e20 -->
<g id="edge7" class="edge">
<title>Node0x55c1de519be0&#45;&gt;Node0x55c1de519e20</title>
<path fill="none" stroke="#4a6fa5" d="M584.69,-749.43C628.07,-738.56 694.99,-721.79 736.55,-711.38"/>
<polygon fill="#4a6fa5" stroke="#4a6fa5" points="737.19,-713.39 742.5,-709.89 736.16,-709.31 737.19,-713.39"/>
</g>
<!-- Node0x55c1de51a460&#45;&gt;Node0x55c1de519e20 -->
<g id="edge5" class="edge">
<title>Node0x55c1de51a460&#45;&gt;Node0x55c1de519e20</title>
<path fill="none" stroke="#4a6fa5" d="M587.14,-655.18C630.59,-666.07 695.88,-682.43 736.66,-692.64"/>
<polygon fill="#4a6fa5" stroke="#4a6fa5" points="736.16,-694.68 742.49,-694.11 737.18,-690.61 736.16,-694.68"/>
</g>
<!-- Node0x55c1de519d00&#45;&gt;Node0x55c1de519e20 -->
<g id="edge8" class="edge">
<title>Node0x55c1de519d00&#45;&gt;Node0x55c1de519e20</title>
<path fill="none" stroke="#4a6fa5" d="M584.69,-702C627.98,-702 694.72,-702 736.3,-702"/>
<polygon fill="#4a6fa5" stroke="#4a6fa5" points="736.5,-704.1 742.5,-702 736.5,-699.9 736.5,-704.1"/>
</g>
<!-- Node0x55c1de41e920 -->
<g id="node7" class="node">
<title>Node0x55c1de41e920</title>
<path fill="#f0f4ff" stroke="black" d="M352.5,-778C352.5,-778 216.5,-778 216.5,-778 210.5,-778 204.5,-772 204.5,-766 204.5,-766 204.5,-754 204.5,-754 204.5,-748 210.5,-742 216.5,-742 216.5,-742 352.5,-742 352.5,-742 358.5,-742 364.5,-748 364.5,-754 364.5,-754 364.5,-766 364.5,-766 364.5,-772 358.5,-778 352.5,-778"/>
<text text-anchor="middle" x="284.5" y="-757.8" font-family="Courier,monospace" font-size="9.00">RunHeuristic_H2_MagicBytes()</text>
</g>
<!-- Node0x55c1de41e920&#45;&gt;Node0x55c1de519f40 -->
<g id="edge9" class="edge">
<title>Node0x55c1de41e920&#45;&gt;Node0x55c1de519f40</title>
<path fill="none" stroke="#4a6fa5" d="M364.79,-778.03C408.46,-787.97 460.98,-799.91 497.17,-808.14"/>
<polygon fill="#4a6fa5" stroke="#4a6fa5" points="496.96,-810.25 503.28,-809.53 497.89,-806.15 496.96,-810.25"/>
</g>
<!-- Node0x55c1de41e920&#45;&gt;Node0x55c1de519be0 -->
<g id="edge11" class="edge">
<title>Node0x55c1de41e920&#45;&gt;Node0x55c1de519be0</title>
<path fill="none" stroke="#4a6fa5" d="M364.79,-760C406.52,-760 456.35,-760 492.26,-760"/>
<polygon fill="#4a6fa5" stroke="#4a6fa5" points="492.35,-762.1 498.35,-760 492.35,-757.9 492.35,-762.1"/>
</g>
<!-- Node0x55c1de41e920&#45;&gt;Node0x55c1de51a460 -->
<g id="edge12" class="edge">
<title>Node0x55c1de41e920&#45;&gt;Node0x55c1de51a460</title>
<path fill="none" stroke="#4a6fa5" d="M364.72,-742.06C372.83,-738.92 380.74,-735.26 388,-731 419.44,-712.55 414.76,-691.79 446,-673 459.37,-664.96 475.17,-658.97 489.98,-654.59"/>
<polygon fill="#4a6fa5" stroke="#4a6fa5" points="490.62,-656.59 495.81,-652.93 489.47,-652.55 490.62,-656.59"/>
</g>
<!-- Node0x55c1de41e920&#45;&gt;Node0x55c1de519d00 -->
<g id="edge10" class="edge">
<title>Node0x55c1de41e920&#45;&gt;Node0x55c1de519d00</title>
<path fill="none" stroke="#4a6fa5" d="M364.79,-741.97C406.52,-732.47 456.35,-721.14 492.26,-712.97"/>
<polygon fill="#4a6fa5" stroke="#4a6fa5" points="492.97,-714.97 498.35,-711.59 492.04,-710.87 492.97,-714.97"/>
</g>
<!-- Node0x55c1de430130 -->
<g id="node8" class="node">
<title>Node0x55c1de430130</title>
<path fill="#f0f4ff" stroke="black" d="M376,-372C376,-372 193,-372 193,-372 187,-372 181,-366 181,-360 181,-360 181,-348 181,-348 181,-342 187,-336 193,-336 193,-336 376,-336 376,-336 382,-336 388,-342 388,-348 388,-348 388,-360 388,-360 388,-366 382,-372 376,-372"/>
<text text-anchor="middle" x="284.5" y="-351.8" font-family="Courier,monospace" font-size="9.00">RunHeuristic_H3_ColorSpaceSignature()</text>
</g>
<!-- Node0x55c1de430130&#45;&gt;Node0x55c1de519f40 -->
<g id="edge18" class="edge">
<title>Node0x55c1de430130&#45;&gt;Node0x55c1de519f40</title>
<path fill="none" stroke="#4a6fa5" d="M375.57,-372.13C380.14,-375.23 384.35,-378.82 388,-383 507.98,-520.22 327.54,-650.47 446,-789 458.73,-803.88 478.88,-811.26 497.31,-814.86"/>
<polygon fill="#4a6fa5" stroke="#4a6fa5" points="497.21,-816.98 503.49,-815.95 497.94,-812.84 497.21,-816.98"/>
</g>
<!-- Node0x55c1de430130&#45;&gt;Node0x55c1de519be0 -->
<g id="edge21" class="edge">
<title>Node0x55c1de430130&#45;&gt;Node0x55c1de519be0</title>
<path fill="none" stroke="#4a6fa5" d="M375.46,-372.23C380.06,-375.3 384.3,-378.87 388,-383 492.58,-499.83 342.72,-613.02 446,-731 457.68,-744.34 475.32,-751.64 492.21,-755.59"/>
<polygon fill="#4a6fa5" stroke="#4a6fa5" points="492.08,-757.71 498.39,-756.91 492.96,-753.6 492.08,-757.71"/>
</g>
<!-- Node0x55c1de430130&#45;&gt;Node0x55c1de51a460 -->
<g id="edge23" class="edge">
<title>Node0x55c1de430130&#45;&gt;Node0x55c1de51a460</title>
<path fill="none" stroke="#4a6fa5" d="M374.61,-372.29C379.48,-375.34 384.01,-378.88 388,-383 461.99,-459.3 372.85,-537.89 446,-615 457.36,-626.98 473.54,-634.05 489.3,-638.21"/>
<polygon fill="#4a6fa5" stroke="#4a6fa5" points="489.22,-640.35 495.54,-639.72 490.2,-636.27 489.22,-640.35"/>
</g>
<!-- Node0x55c1de430130&#45;&gt;Node0x55c1de519d00 -->
<g id="edge16" class="edge">
<title>Node0x55c1de430130&#45;&gt;Node0x55c1de519d00</title>
<path fill="none" stroke="#4a6fa5" d="M374.84,-372.07C379.66,-375.18 384.11,-378.79 388,-383 477.23,-479.51 357.84,-575.51 446,-673 457.79,-686.04 475.27,-693.28 492,-697.29"/>
<polygon fill="#4a6fa5" stroke="#4a6fa5" points="491.81,-699.39 498.12,-698.62 492.71,-695.29 491.81,-699.39"/>
</g>
<!-- Node0x55c1de4325c0 -->
<g id="node9" class="node">
<title>Node0x55c1de4325c0</title>
<path fill="#f0f4ff" stroke="black" d="M585.5,-488C585.5,-488 497.5,-488 497.5,-488 491.5,-488 485.5,-482 485.5,-476 485.5,-476 485.5,-464 485.5,-464 485.5,-458 491.5,-452 497.5,-452 497.5,-452 585.5,-452 585.5,-452 591.5,-452 597.5,-458 597.5,-464 597.5,-464 597.5,-476 597.5,-476 597.5,-482 591.5,-488 585.5,-488"/>
<text text-anchor="middle" x="541.5" y="-467.8" font-family="Courier,monospace" font-size="9.00">SignatureToFourCC()</text>
</g>
<!-- Node0x55c1de430130&#45;&gt;Node0x55c1de4325c0 -->
<g id="edge13" class="edge">
<title>Node0x55c1de430130&#45;&gt;Node0x55c1de4325c0</title>
<path fill="none" stroke="#4a6fa5" d="M364.98,-372.04C373,-375.16 380.82,-378.79 388,-383 419.44,-401.45 414.76,-422.21 446,-441 456.14,-447.1 467.68,-452.02 479.13,-455.95"/>
<polygon fill="#4a6fa5" stroke="#4a6fa5" points="478.74,-458.04 485.09,-457.92 480.05,-454.05 478.74,-458.04"/>
</g>
<!-- Node0x55c1de3f1940 -->
<g id="node10" class="node">
<title>Node0x55c1de3f1940</title>
<path fill="#f0f4ff" stroke="black" d="M843,-146C843,-146 707,-146 707,-146 701,-146 695,-140 695,-134 695,-134 695,-122 695,-122 695,-116 701,-110 707,-110 707,-110 843,-110 843,-110 849,-110 855,-116 855,-122 855,-122 855,-134 855,-134 855,-140 849,-146 843,-146"/>
<text text-anchor="middle" x="775" y="-125.8" font-family="Courier,monospace" font-size="9.00">IsValidColorSpaceSignature()</text>
</g>
<!-- Node0x55c1de430130&#45;&gt;Node0x55c1de3f1940 -->
<g id="edge14" class="edge">
<title>Node0x55c1de430130&#45;&gt;Node0x55c1de3f1940</title>
<path fill="none" stroke="#4a6fa5" d="M293.48,-335.76C312.74,-294.26 366.15,-193.17 446,-151 520.97,-111.41 619.35,-110.01 688.74,-115.82"/>
<polygon fill="#4a6fa5" stroke="#4a6fa5" points="688.78,-117.93 694.94,-116.37 689.15,-113.75 688.78,-117.93"/>
</g>
<!-- Node0x55c1de526be0 -->
<g id="node11" class="node">
<title>Node0x55c1de526be0</title>
<path fill="#f0f4ff" stroke="black" d="M588.5,-372C588.5,-372 494.5,-372 494.5,-372 488.5,-372 482.5,-366 482.5,-360 482.5,-360 482.5,-348 482.5,-348 482.5,-342 488.5,-336 494.5,-336 494.5,-336 588.5,-336 588.5,-336 594.5,-336 600.5,-342 600.5,-348 600.5,-348 600.5,-360 600.5,-360 600.5,-366 594.5,-372 588.5,-372"/>
<text text-anchor="middle" x="541.5" y="-351.8" font-family="Courier,monospace" font-size="9.00">CIccInfo::CIccInfo()</text>
</g>
<!-- Node0x55c1de430130&#45;&gt;Node0x55c1de526be0 -->
<g id="edge15" class="edge">
<title>Node0x55c1de430130&#45;&gt;Node0x55c1de526be0</title>
<path fill="none" stroke="#4a6fa5" d="M388.12,-354C417.84,-354 449.44,-354 476.12,-354"/>
<polygon fill="#4a6fa5" stroke="#4a6fa5" points="476.43,-356.1 482.43,-354 476.43,-351.9 476.43,-356.1"/>
</g>
<!-- Node0x55c1de3f3850 -->
<g id="node12" class="node">
<title>Node0x55c1de3f3850</title>
<path fill="#f0f4ff" stroke="black" d="M620,-198C620,-198 463,-198 463,-198 457,-198 451,-192 451,-186 451,-186 451,-174 451,-174 451,-168 457,-162 463,-162 463,-162 620,-162 620,-162 626,-162 632,-168 632,-174 632,-174 632,-186 632,-186 632,-192 626,-198 620,-198"/>
<text text-anchor="middle" x="541.5" y="-177.8" font-family="Courier,monospace" font-size="9.00">CIccInfo::GetColorSpaceSigName()</text>
</g>
<!-- Node0x55c1de430130&#45;&gt;Node0x55c1de3f3850 -->
<g id="edge17" class="edge">
<title>Node0x55c1de430130&#45;&gt;Node0x55c1de3f3850</title>
<path fill="none" stroke="#4a6fa5" d="M300.88,-335.63C327.44,-305.05 384.93,-243.66 446,-209 451.6,-205.82 457.59,-202.95 463.73,-200.37"/>
<polygon fill="#4a6fa5" stroke="#4a6fa5" points="464.63,-202.27 469.41,-198.08 463.06,-198.38 464.63,-202.27"/>
</g>
<!-- Node0x55c1de3f37d0 -->
<g id="node13" class="node">
<title>Node0x55c1de3f37d0</title>
<path fill="#f0f4ff" stroke="black" d="M564.5,-256C564.5,-256 518.5,-256 518.5,-256 512.5,-256 506.5,-250 506.5,-244 506.5,-244 506.5,-232 506.5,-232 506.5,-226 512.5,-220 518.5,-220 518.5,-220 564.5,-220 564.5,-220 570.5,-220 576.5,-226 576.5,-232 576.5,-232 576.5,-244 576.5,-244 576.5,-250 570.5,-256 564.5,-256"/>
<text text-anchor="middle" x="541.5" y="-235.8" font-family="Courier,monospace" font-size="9.00">ColorInfo()</text>
</g>
<!-- Node0x55c1de430130&#45;&gt;Node0x55c1de3f37d0 -->
<g id="edge19" class="edge">
<title>Node0x55c1de430130&#45;&gt;Node0x55c1de3f37d0</title>
<path fill="none" stroke="#4a6fa5" d="M314.5,-335.99C346,-316.98 398.21,-287.05 446,-267 463.34,-259.73 483.14,-253.37 500.12,-248.47"/>
<polygon fill="#4a6fa5" stroke="#4a6fa5" points="501.05,-250.39 506.24,-246.74 499.9,-246.35 501.05,-250.39"/>
</g>
<!-- Node0x55c1de525ff0 -->
<g id="node14" class="node">
<title>Node0x55c1de525ff0</title>
<path fill="#f0f4ff" stroke="black" d="M591,-430C591,-430 492,-430 492,-430 486,-430 480,-424 480,-418 480,-418 480,-406 480,-406 480,-400 486,-394 492,-394 492,-394 591,-394 591,-394 597,-394 603,-400 603,-406 603,-406 603,-418 603,-418 603,-424 597,-430 591,-430"/>
<text text-anchor="middle" x="541.5" y="-409.8" font-family="Courier,monospace" font-size="9.00">CIccInfo::~CIccInfo()</text>
</g>
<!-- Node0x55c1de430130&#45;&gt;Node0x55c1de525ff0 -->
<g id="edge20" class="edge">
<title>Node0x55c1de430130&#45;&gt;Node0x55c1de525ff0</title>
<path fill="none" stroke="#4a6fa5" d="M364.79,-372.03C399.75,-379.99 440.38,-389.23 473.76,-396.82"/>
<polygon fill="#4a6fa5" stroke="#4a6fa5" points="473.59,-398.93 479.9,-398.22 474.52,-394.84 473.59,-398.93"/>
</g>
<!-- Node0x55c1de526d60 -->
<g id="node15" class="node">
<title>Node0x55c1de526d60</title>
<path fill="#f0f4ff" stroke="black" d="M612,-94C612,-94 471,-94 471,-94 465,-94 459,-88 459,-82 459,-82 459,-70 459,-70 459,-64 465,-58 471,-58 471,-58 612,-58 612,-58 618,-58 624,-64 624,-70 624,-70 624,-82 624,-82 624,-88 618,-94 612,-94"/>
<text text-anchor="middle" x="541.5" y="-73.8" font-family="Courier,monospace" font-size="9.00">DescribeColorSpaceSignature()</text>
</g>
<!-- Node0x55c1de430130&#45;&gt;Node0x55c1de526d60 -->
<g id="edge22" class="edge">
<title>Node0x55c1de430130&#45;&gt;Node0x55c1de526d60</title>
<path fill="none" stroke="#4a6fa5" d="M292.68,-335.93C311.26,-291.36 365.21,-175.12 446,-111 453.01,-105.43 461,-100.69 469.29,-96.67"/>
<polygon fill="#4a6fa5" stroke="#4a6fa5" points="470.51,-98.42 475.07,-94 468.75,-94.61 470.51,-98.42"/>
</g>
<!-- Node0x55c1de3f3f10 -->
<g id="node16" class="node">
<title>Node0x55c1de3f3f10</title>
<path fill="#f0f4ff" stroke="black" d="M604,-36C604,-36 479,-36 479,-36 473,-36 467,-30 467,-24 467,-24 467,-12 467,-12 467,-6 473,0 479,0 479,0 604,0 604,0 610,0 616,-6 616,-12 616,-12 616,-24 616,-24 616,-30 610,-36 604,-36"/>
<text text-anchor="middle" x="541.5" y="-15.8" font-family="Courier,monospace" font-size="9.00">HasNonPrintableSignature()</text>
</g>
<!-- Node0x55c1de430130&#45;&gt;Node0x55c1de3f3f10 -->
<g id="edge24" class="edge">
<title>Node0x55c1de430130&#45;&gt;Node0x55c1de3f3f10</title>
<path fill="none" stroke="#4a6fa5" d="M289.78,-335.64C303.09,-282.6 348.87,-127.73 446,-47 450.65,-43.13 455.82,-39.78 461.26,-36.88"/>
<polygon fill="#4a6fa5" stroke="#4a6fa5" points="462.36,-38.68 466.79,-34.12 460.48,-34.92 462.36,-38.68"/>
</g>
<!-- Node0x55c1de527470 -->
<g id="node17" class="node">
<title>Node0x55c1de527470</title>
<path fill="#f0f4ff" stroke="black" d="M1050,-120C1050,-120 925,-120 925,-120 919,-120 913,-114 913,-108 913,-108 913,-96 913,-96 913,-90 919,-84 925,-84 925,-84 1050,-84 1050,-84 1056,-84 1062,-90 1062,-96 1062,-96 1062,-108 1062,-108 1062,-114 1056,-120 1050,-120"/>
<text text-anchor="middle" x="987.5" y="-99.8" font-family="Courier,monospace" font-size="9.00">ColorSpaceSignatureToStr()</text>
</g>
<!-- Node0x55c1de3f1940&#45;&gt;Node0x55c1de527470 -->
<g id="edge25" class="edge">
<title>Node0x55c1de3f1940&#45;&gt;Node0x55c1de527470</title>
<path fill="none" stroke="#4a6fa5" d="M855.28,-118.21C872.1,-116.13 889.85,-113.94 906.69,-111.86"/>
<polygon fill="#4a6fa5" stroke="#4a6fa5" points="907.15,-113.92 912.85,-111.1 906.63,-109.75 907.15,-113.92"/>
</g>
<!-- Node0x55c1de482f80 -->
<g id="node18" class="node">
<title>Node0x55c1de482f80</title>
<path fill="#f0f4ff" stroke="black" d="M1002.5,-591C1002.5,-591 972.5,-591 972.5,-591 966.5,-591 960.5,-585 960.5,-579 960.5,-579 960.5,-567 960.5,-567 960.5,-561 966.5,-555 972.5,-555 972.5,-555 1002.5,-555 1002.5,-555 1008.5,-555 1014.5,-561 1014.5,-567 1014.5,-567 1014.5,-579 1014.5,-579 1014.5,-585 1008.5,-591 1002.5,-591"/>
<text text-anchor="middle" x="987.5" y="-570.8" font-family="Courier,monospace" font-size="9.00">fputc</text>
</g>
<!-- Node0x55c1de3f1940&#45;&gt;Node0x55c1de482f80 -->
<g id="edge26" class="edge">
<title>Node0x55c1de3f1940&#45;&gt;Node0x55c1de482f80</title>
<path fill="none" stroke="#4a6fa5" d="M784.64,-146.27C817.9,-216.57 937.57,-469.55 975.13,-548.97"/>
<polygon fill="#4a6fa5" stroke="#4a6fa5" points="973.44,-550.29 977.9,-554.82 977.23,-548.5 973.44,-550.29"/>
</g>
<!-- Node0x55c1de3f37d0&#45;&gt;Node0x55c1de519e20 -->
<g id="edge29" class="edge">
<title>Node0x55c1de3f37d0&#45;&gt;Node0x55c1de519e20</title>
<path fill="none" stroke="#4a6fa5" d="M576.68,-240.66C596.67,-243.94 621.04,-251.16 637,-267 755.64,-384.77 771.77,-604.16 773.78,-677.45"/>
<polygon fill="#4a6fa5" stroke="#4a6fa5" points="771.69,-677.73 773.93,-683.68 775.89,-677.63 771.69,-677.73"/>
</g>
<!-- Node0x55c1de526d60&#45;&gt;Node0x55c1de3f1940 -->
<g id="edge28" class="edge">
<title>Node0x55c1de526d60&#45;&gt;Node0x55c1de3f1940</title>
<path fill="none" stroke="#4a6fa5" d="M622.82,-94.04C644.18,-98.84 667.33,-104.04 688.95,-108.89"/>
<polygon fill="#4a6fa5" stroke="#4a6fa5" points="688.68,-110.99 695,-110.25 689.6,-106.89 688.68,-110.99"/>
</g>
<!-- Node0x55c1de526d60&#45;&gt;Node0x55c1de527470 -->
<g id="edge27" class="edge">
<title>Node0x55c1de526d60&#45;&gt;Node0x55c1de527470</title>
<path fill="none" stroke="#4a6fa5" d="M624.2,-80.78C704.63,-85.49 826.69,-92.64 906.52,-97.32"/>
<polygon fill="#4a6fa5" stroke="#4a6fa5" points="906.56,-99.42 912.68,-97.68 906.81,-95.23 906.56,-99.42"/>
</g>
<!-- Node0x55c1de527700 -->
<g id="node19" class="node">
<title>Node0x55c1de527700</title>
<path fill="#f0f4ff" stroke="black" d="M360,-430C360,-430 209,-430 209,-430 203,-430 197,-424 197,-418 197,-418 197,-406 197,-406 197,-400 203,-394 209,-394 209,-394 360,-394 360,-394 366,-394 372,-400 372,-406 372,-406 372,-418 372,-418 372,-424 366,-430 360,-430"/>
<text text-anchor="middle" x="284.5" y="-409.8" font-family="Courier,monospace" font-size="9.00">RunHeuristic_H4_PCSColorSpace()</text>
</g>
<!-- Node0x55c1de527700&#45;&gt;Node0x55c1de519f40 -->
<g id="edge34" class="edge">
<title>Node0x55c1de527700&#45;&gt;Node0x55c1de519f40</title>
<path fill="none" stroke="#4a6fa5" d="M372.18,-428.16C378.05,-431.67 383.44,-435.9 388,-441 492.58,-557.83 342.72,-671.02 446,-789 458.8,-803.62 478.75,-810.98 497.04,-814.64"/>
<polygon fill="#4a6fa5" stroke="#4a6fa5" points="496.88,-816.75 503.16,-815.75 497.63,-812.61 496.88,-816.75"/>
</g>
<!-- Node0x55c1de527700&#45;&gt;Node0x55c1de519be0 -->
<g id="edge37" class="edge">
<title>Node0x55c1de527700&#45;&gt;Node0x55c1de519be0</title>
<path fill="none" stroke="#4a6fa5" d="M372.48,-428.61C378.2,-432.02 383.48,-436.11 388,-441 477.23,-537.51 357.84,-633.51 446,-731 457.79,-744.04 475.27,-751.28 492,-755.29"/>
<polygon fill="#4a6fa5" stroke="#4a6fa5" points="491.81,-757.39 498.12,-756.62 492.71,-753.29 491.81,-757.39"/>
</g>
<!-- Node0x55c1de527700&#45;&gt;Node0x55c1de51a460 -->
<g id="edge39" class="edge">
<title>Node0x55c1de527700&#45;&gt;Node0x55c1de51a460</title>
<path fill="none" stroke="#4a6fa5" d="M372.31,-429.53C378,-432.74 383.32,-436.53 388,-441 446.95,-497.3 387.67,-558.05 446,-615 457.71,-626.43 473.8,-633.37 489.39,-637.58"/>
<polygon fill="#4a6fa5" stroke="#4a6fa5" points="489.23,-639.7 495.56,-639.11 490.25,-635.62 489.23,-639.7"/>
</g>
<!-- Node0x55c1de527700&#45;&gt;Node0x55c1de519d00 -->
<g id="edge32" class="edge">
<title>Node0x55c1de527700&#45;&gt;Node0x55c1de519d00</title>
<path fill="none" stroke="#4a6fa5" d="M372.22,-428.85C378.01,-432.21 383.37,-436.22 388,-441 461.99,-517.3 372.85,-595.89 446,-673 458.1,-685.75 475.64,-692.94 492.34,-696.98"/>
<polygon fill="#4a6fa5" stroke="#4a6fa5" points="492.13,-699.08 498.44,-698.33 493.03,-694.98 492.13,-699.08"/>
</g>
<!-- Node0x55c1de527700&#45;&gt;Node0x55c1de4325c0 -->
<g id="edge30" class="edge">
<title>Node0x55c1de527700&#45;&gt;Node0x55c1de4325c0</title>
<path fill="none" stroke="#4a6fa5" d="M364.79,-430.03C401.69,-438.43 444.91,-448.26 479.25,-456.07"/>
<polygon fill="#4a6fa5" stroke="#4a6fa5" points="478.8,-458.12 485.12,-457.4 479.73,-454.02 478.8,-458.12"/>
</g>
<!-- Node0x55c1de527700&#45;&gt;Node0x55c1de526be0 -->
<g id="edge31" class="edge">
<title>Node0x55c1de527700&#45;&gt;Node0x55c1de526be0</title>
<path fill="none" stroke="#4a6fa5" d="M364.79,-393.97C400.57,-385.83 442.3,-376.34 476.11,-368.65"/>
<polygon fill="#4a6fa5" stroke="#4a6fa5" points="476.94,-370.61 482.33,-367.23 476.01,-366.51 476.94,-370.61"/>
</g>
<!-- Node0x55c1de527700&#45;&gt;Node0x55c1de3f3850 -->
<g id="edge33" class="edge">
<title>Node0x55c1de527700&#45;&gt;Node0x55c1de3f3850</title>
<path fill="none" stroke="#4a6fa5" d="M372.31,-394.47C378,-391.26 383.32,-387.47 388,-383 446.95,-326.7 387.67,-265.95 446,-209 448.82,-206.25 451.9,-203.75 455.16,-201.5"/>
<polygon fill="#4a6fa5" stroke="#4a6fa5" points="456.49,-203.14 460.43,-198.14 454.24,-199.59 456.49,-203.14"/>
</g>
<!-- Node0x55c1de527700&#45;&gt;Node0x55c1de3f37d0 -->
<g id="edge35" class="edge">
<title>Node0x55c1de527700&#45;&gt;Node0x55c1de3f37d0</title>
<path fill="none" stroke="#4a6fa5" d="M371.13,-393.96C377.16,-390.87 382.87,-387.25 388,-383 432.4,-346.25 402.01,-304.24 446,-267 461.18,-254.15 481.99,-246.99 500.21,-243"/>
<polygon fill="#4a6fa5" stroke="#4a6fa5" points="500.82,-245.02 506.28,-241.77 499.98,-240.91 500.82,-245.02"/>
</g>
<!-- Node0x55c1de527700&#45;&gt;Node0x55c1de525ff0 -->
<g id="edge36" class="edge">
<title>Node0x55c1de527700&#45;&gt;Node0x55c1de525ff0</title>
<path fill="none" stroke="#4a6fa5" d="M372.19,-412C405.35,-412 442.63,-412 473.66,-412"/>
<polygon fill="#4a6fa5" stroke="#4a6fa5" points="473.78,-414.1 479.78,-412 473.78,-409.9 473.78,-414.1"/>
</g>
<!-- Node0x55c1de527700&#45;&gt;Node0x55c1de526d60 -->
<g id="edge40" class="edge">
<title>Node0x55c1de527700&#45;&gt;Node0x55c1de526d60</title>
<path fill="none" stroke="#4a6fa5" d="M372.22,-395.15C378.01,-391.79 383.37,-387.78 388,-383 461.99,-306.7 388.43,-240.34 446,-151 460.16,-129.02 482.99,-110.64 502.66,-97.58"/>
<polygon fill="#4a6fa5" stroke="#4a6fa5" points="503.96,-99.24 507.85,-94.21 501.67,-95.72 503.96,-99.24"/>
</g>
<!-- Node0x55c1de3f3c80 -->
<g id="node20" class="node">
<title>Node0x55c1de3f3c80</title>
<path fill="#f0f4ff" stroke="black" d="M588.5,-314C588.5,-314 494.5,-314 494.5,-314 488.5,-314 482.5,-308 482.5,-302 482.5,-302 482.5,-290 482.5,-290 482.5,-284 488.5,-278 494.5,-278 494.5,-278 588.5,-278 588.5,-278 594.5,-278 600.5,-284 600.5,-290 600.5,-290 600.5,-302 600.5,-302 600.5,-308 594.5,-314 588.5,-314"/>
<text text-anchor="middle" x="541.5" y="-293.8" font-family="Courier,monospace" font-size="9.00">IsSpaceSpectralPCS()</text>
</g>
<!-- Node0x55c1de527700&#45;&gt;Node0x55c1de3f3c80 -->
<g id="edge38" class="edge">
<title>Node0x55c1de527700&#45;&gt;Node0x55c1de3f3c80</title>
<path fill="none" stroke="#4a6fa5" d="M364.98,-393.96C373,-390.84 380.82,-387.21 388,-383 419.44,-364.55 414.76,-343.79 446,-325 455.31,-319.4 465.79,-314.8 476.29,-311.04"/>
<polygon fill="#4a6fa5" stroke="#4a6fa5" points="477.13,-312.98 482.12,-309.04 475.76,-309 477.13,-312.98"/>
</g>
<!-- Node0x55c1de3f4d40 -->
<g id="node21" class="node">
<title>Node0x55c1de3f4d40</title>
<path fill="#f0f4ff" stroke="black" d="M370.5,-604C370.5,-604 198.5,-604 198.5,-604 192.5,-604 186.5,-598 186.5,-592 186.5,-592 186.5,-580 186.5,-580 186.5,-574 192.5,-568 198.5,-568 198.5,-568 370.5,-568 370.5,-568 376.5,-568 382.5,-574 382.5,-580 382.5,-580 382.5,-592 382.5,-592 382.5,-598 376.5,-604 370.5,-604"/>
<text text-anchor="middle" x="284.5" y="-583.8" font-family="Courier,monospace" font-size="9.00">RunHeuristic_H5_PlatformSignature()</text>
</g>
<!-- Node0x55c1de3f4d40&#45;&gt;Node0x55c1de519f40 -->
<g id="edge43" class="edge">
<title>Node0x55c1de3f4d40&#45;&gt;Node0x55c1de519f40</title>
<path fill="none" stroke="#4a6fa5" d="M373.28,-604.08C378.61,-607.17 383.59,-610.79 388,-615 446.95,-671.3 387.67,-732.05 446,-789 459.68,-802.36 479.35,-809.58 497.21,-813.48"/>
<polygon fill="#4a6fa5" stroke="#4a6fa5" points="496.88,-815.56 503.18,-814.68 497.71,-811.44 496.88,-815.56"/>
</g>
<!-- Node0x55c1de3f4d40&#45;&gt;Node0x55c1de519be0 -->
<g id="edge42" class="edge">
<title>Node0x55c1de3f4d40&#45;&gt;Node0x55c1de519be0</title>
<path fill="none" stroke="#4a6fa5" d="M371.13,-604.04C377.16,-607.13 382.87,-610.75 388,-615 432.4,-651.75 402.01,-693.76 446,-731 459.07,-742.06 476.3,-748.9 492.46,-753.14"/>
<polygon fill="#4a6fa5" stroke="#4a6fa5" points="492.03,-755.2 498.36,-754.58 493.03,-751.12 492.03,-755.2"/>
</g>
<!-- Node0x55c1de3f4d40&#45;&gt;Node0x55c1de519d00 -->
<g id="edge44" class="edge">
<title>Node0x55c1de3f4d40&#45;&gt;Node0x55c1de519d00</title>
<path fill="none" stroke="#4a6fa5" d="M364.98,-604.04C373,-607.16 380.82,-610.79 388,-615 419.44,-633.45 414.76,-654.21 446,-673 460.02,-681.43 476.71,-687.61 492.13,-692.04"/>
<polygon fill="#4a6fa5" stroke="#4a6fa5" points="491.85,-694.14 498.19,-693.71 492.96,-690.09 491.85,-694.14"/>
</g>
<!-- Node0x55c1de3f4d40&#45;&gt;Node0x55c1de4325c0 -->
<g id="edge41" class="edge">
<title>Node0x55c1de3f4d40&#45;&gt;Node0x55c1de4325c0</title>
<path fill="none" stroke="#4a6fa5" d="M364.98,-567.96C373,-564.84 380.82,-561.21 388,-557 419.44,-538.55 414.76,-517.79 446,-499 456.14,-492.9 467.68,-487.98 479.13,-484.05"/>
<polygon fill="#4a6fa5" stroke="#4a6fa5" points="480.05,-485.95 485.09,-482.08 478.74,-481.96 480.05,-485.95"/>
</g>
<!-- Node0x55c1de528d00 -->
<g id="node22" class="node">
<title>Node0x55c1de528d00</title>
<path fill="#f0f4ff" stroke="black" d="M365.5,-546C365.5,-546 203.5,-546 203.5,-546 197.5,-546 191.5,-540 191.5,-534 191.5,-534 191.5,-522 191.5,-522 191.5,-516 197.5,-510 203.5,-510 203.5,-510 365.5,-510 365.5,-510 371.5,-510 377.5,-516 377.5,-522 377.5,-522 377.5,-534 377.5,-534 377.5,-540 371.5,-546 365.5,-546"/>
<text text-anchor="middle" x="284.5" y="-525.8" font-family="Courier,monospace" font-size="9.00">RunHeuristic_H6_RenderingIntent()</text>
</g>
<!-- Node0x55c1de528d00&#45;&gt;Node0x55c1de519f40 -->
<g id="edge46" class="edge">
<title>Node0x55c1de528d00&#45;&gt;Node0x55c1de519f40</title>
<path fill="none" stroke="#4a6fa5" d="M374.61,-546.29C379.48,-549.34 384.01,-552.88 388,-557 461.99,-633.3 372.85,-711.89 446,-789 459.26,-802.98 479.08,-810.28 497.14,-814.06"/>
<polygon fill="#4a6fa5" stroke="#4a6fa5" points="496.9,-816.16 503.19,-815.22 497.69,-812.03 496.9,-816.16"/>
</g>
<!-- Node0x55c1de528d00&#45;&gt;Node0x55c1de519be0 -->
<g id="edge48" class="edge">
<title>Node0x55c1de528d00&#45;&gt;Node0x55c1de519be0</title>
<path fill="none" stroke="#4a6fa5" d="M373.28,-546.08C378.61,-549.17 383.59,-552.79 388,-557 446.95,-613.3 387.67,-674.05 446,-731 458.47,-743.17 475.91,-750.25 492.42,-754.36"/>
<polygon fill="#4a6fa5" stroke="#4a6fa5" points="492.13,-756.45 498.45,-755.75 493.07,-752.36 492.13,-756.45"/>
</g>
<!-- Node0x55c1de528d00&#45;&gt;Node0x55c1de51a460 -->
<g id="edge45" class="edge">
<title>Node0x55c1de528d00&#45;&gt;Node0x55c1de51a460</title>
<path fill="none" stroke="#4a6fa5" d="M364.98,-546.04C373,-549.16 380.82,-552.79 388,-557 419.44,-575.45 414.76,-596.21 446,-615 459.37,-623.04 475.17,-629.03 489.98,-633.41"/>
<polygon fill="#4a6fa5" stroke="#4a6fa5" points="489.47,-635.45 495.81,-635.07 490.62,-631.41 489.47,-635.45"/>
</g>
<!-- Node0x55c1de528d00&#45;&gt;Node0x55c1de519d00 -->
<g id="edge50" class="edge">
<title>Node0x55c1de528d00&#45;&gt;Node0x55c1de519d00</title>
<path fill="none" stroke="#4a6fa5" d="M371.13,-546.04C377.16,-549.13 382.87,-552.75 388,-557 432.4,-593.75 402.01,-635.76 446,-673 459.07,-684.06 476.3,-690.9 492.46,-695.14"/>
<polygon fill="#4a6fa5" stroke="#4a6fa5" points="492.03,-697.2 498.36,-696.58 493.03,-693.12 492.03,-697.2"/>
</g>
<!-- Node0x55c1de528d00&#45;&gt;Node0x55c1de526be0 -->
<g id="edge51" class="edge">
<title>Node0x55c1de528d00&#45;&gt;Node0x55c1de526be0</title>
<path fill="none" stroke="#4a6fa5" d="M371.13,-509.96C377.16,-506.87 382.87,-503.25 388,-499 432.4,-462.25 402.01,-420.24 446,-383 454.81,-375.54 465.52,-370 476.52,-365.88"/>
<polygon fill="#4a6fa5" stroke="#4a6fa5" points="477.32,-367.83 482.28,-363.86 475.93,-363.86 477.32,-367.83"/>
</g>
<!-- Node0x55c1de528d00&#45;&gt;Node0x55c1de525ff0 -->
<g id="edge47" class="edge">
<title>Node0x55c1de528d00&#45;&gt;Node0x55c1de525ff0</title>
<path fill="none" stroke="#4a6fa5" d="M364.98,-509.96C373,-506.84 380.82,-503.21 388,-499 419.44,-480.55 414.76,-459.79 446,-441 454.61,-435.82 464.21,-431.5 473.92,-427.91"/>
<polygon fill="#4a6fa5" stroke="#4a6fa5" points="474.68,-429.86 479.63,-425.87 473.28,-425.9 474.68,-429.86"/>
</g>
<!-- Node0x55c1de3f4f40 -->
<g id="node23" class="node">
<title>Node0x55c1de3f4f40</title>
<path fill="#f0f4ff" stroke="black" d="M625,-604C625,-604 458,-604 458,-604 452,-604 446,-598 446,-592 446,-592 446,-580 446,-580 446,-574 452,-568 458,-568 458,-568 625,-568 625,-568 631,-568 637,-574 637,-580 637,-580 637,-592 637,-592 637,-598 631,-604 625,-604"/>
<text text-anchor="middle" x="541.5" y="-583.8" font-family="Courier,monospace" font-size="9.00">CIccInfo::GetRenderingIntentName()</text>
</g>
<!-- Node0x55c1de528d00&#45;&gt;Node0x55c1de3f4f40 -->
<g id="edge49" class="edge">
<title>Node0x55c1de528d00&#45;&gt;Node0x55c1de3f4f40</title>
<path fill="none" stroke="#4a6fa5" d="M364.79,-546.03C393.45,-552.55 425.93,-559.94 455.09,-566.57"/>
<polygon fill="#4a6fa5" stroke="#4a6fa5" points="454.95,-568.69 461.26,-567.98 455.88,-564.6 454.95,-568.69"/>
</g>
<!-- Node0x55c1de3f4cc0 -->
<g id="node24" class="node">
<title>Node0x55c1de3f4cc0</title>
<path fill="#f0f4ff" stroke="black" d="M357.5,-488C357.5,-488 211.5,-488 211.5,-488 205.5,-488 199.5,-482 199.5,-476 199.5,-476 199.5,-464 199.5,-464 199.5,-458 205.5,-452 211.5,-452 211.5,-452 357.5,-452 357.5,-452 363.5,-452 369.5,-458 369.5,-464 369.5,-464 369.5,-476 369.5,-476 369.5,-482 363.5,-488 357.5,-488"/>
<text text-anchor="middle" x="284.5" y="-467.8" font-family="Courier,monospace" font-size="9.00">RunHeuristic_H7_ProfileClass()</text>
</g>
<!-- Node0x55c1de3f4cc0&#45;&gt;Node0x55c1de519f40 -->
<g id="edge56" class="edge">
<title>Node0x55c1de3f4cc0&#45;&gt;Node0x55c1de519f40</title>
<path fill="none" stroke="#4a6fa5" d="M369.57,-484.96C376.43,-488.68 382.73,-493.3 388,-499 477.23,-595.51 357.84,-691.51 446,-789 459.03,-803.41 479.02,-810.75 497.26,-814.45"/>
<polygon fill="#4a6fa5" stroke="#4a6fa5" points="497.08,-816.55 503.36,-815.57 497.84,-812.42 497.08,-816.55"/>
</g>
<!-- Node0x55c1de3f4cc0&#45;&gt;Node0x55c1de519be0 -->
<g id="edge55" class="edge">
<title>Node0x55c1de3f4cc0&#45;&gt;Node0x55c1de519be0</title>
<path fill="none" stroke="#4a6fa5" d="M369.79,-485.49C376.5,-489.11 382.72,-493.56 388,-499 461.99,-575.3 372.85,-653.89 446,-731 458.1,-743.75 475.64,-750.94 492.34,-754.98"/>
<polygon fill="#4a6fa5" stroke="#4a6fa5" points="492.13,-757.08 498.44,-756.33 493.03,-752.98 492.13,-757.08"/>
</g>
<!-- Node0x55c1de3f4cc0&#45;&gt;Node0x55c1de519d00 -->
<g id="edge58" class="edge">
<title>Node0x55c1de3f4cc0&#45;&gt;Node0x55c1de519d00</title>
<path fill="none" stroke="#4a6fa5" d="M369.85,-486.19C376.47,-489.67 382.65,-493.89 388,-499 446.95,-555.3 387.67,-616.05 446,-673 458.47,-685.17 475.91,-692.25 492.42,-696.36"/>
<polygon fill="#4a6fa5" stroke="#4a6fa5" points="492.13,-698.45 498.45,-697.75 493.07,-694.36 492.13,-698.45"/>
</g>
<!-- Node0x55c1de3f4cc0&#45;&gt;Node0x55c1de4325c0 -->
<g id="edge52" class="edge">
<title>Node0x55c1de3f4cc0&#45;&gt;Node0x55c1de4325c0</title>
<path fill="none" stroke="#4a6fa5" d="M369.7,-470C405.48,-470 446.43,-470 479.26,-470"/>
<polygon fill="#4a6fa5" stroke="#4a6fa5" points="479.29,-472.1 485.29,-470 479.29,-467.9 479.29,-472.1"/>
</g>
<!-- Node0x55c1de3f4cc0&#45;&gt;Node0x55c1de526be0 -->
<g id="edge53" class="edge">
<title>Node0x55c1de3f4cc0&#45;&gt;Node0x55c1de526be0</title>
<path fill="none" stroke="#4a6fa5" d="M364.98,-451.96C373,-448.84 380.82,-445.21 388,-441 419.44,-422.55 414.76,-401.79 446,-383 455.31,-377.4 465.79,-372.8 476.29,-369.04"/>
<polygon fill="#4a6fa5" stroke="#4a6fa5" points="477.13,-370.98 482.12,-367.04 475.76,-367 477.13,-370.98"/>
</g>
<!-- Node0x55c1de3f4cc0&#45;&gt;Node0x55c1de525ff0 -->
<g id="edge57" class="edge">
<title>Node0x55c1de3f4cc0&#45;&gt;Node0x55c1de525ff0</title>
<path fill="none" stroke="#4a6fa5" d="M364.79,-451.97C399.75,-444.01 440.38,-434.77 473.76,-427.18"/>
<polygon fill="#4a6fa5" stroke="#4a6fa5" points="474.52,-429.16 479.9,-425.78 473.59,-425.07 474.52,-429.16"/>
</g>
<!-- Node0x55c1de3f4fc0 -->
<g id="node25" class="node">
<title>Node0x55c1de3f4fc0</title>
<path fill="#f0f4ff" stroke="black" d="M625,-546C625,-546 458,-546 458,-546 452,-546 446,-540 446,-534 446,-534 446,-522 446,-522 446,-516 452,-510 458,-510 458,-510 625,-510 625,-510 631,-510 637,-516 637,-522 637,-522 637,-534 637,-534 637,-540 631,-546 625,-546"/>
<text text-anchor="middle" x="541.5" y="-525.8" font-family="Courier,monospace" font-size="9.00">CIccInfo::GetProfileClassSigName()</text>
</g>
<!-- Node0x55c1de3f4cc0&#45;&gt;Node0x55c1de3f4fc0 -->
<g id="edge54" class="edge">
<title>Node0x55c1de3f4cc0&#45;&gt;Node0x55c1de3f4fc0</title>
<path fill="none" stroke="#4a6fa5" d="M364.79,-488.03C393.45,-494.55 425.93,-501.94 455.09,-508.57"/>
<polygon fill="#4a6fa5" stroke="#4a6fa5" points="454.95,-510.69 461.26,-509.98 455.88,-506.6 454.95,-510.69"/>
</g>
<!-- Node0x55c1de529550 -->
<g id="node26" class="node">
<title>Node0x55c1de529550</title>
<path fill="#f0f4ff" stroke="black" d="M360,-894C360,-894 209,-894 209,-894 203,-894 197,-888 197,-882 197,-882 197,-870 197,-870 197,-864 203,-858 209,-858 209,-858 360,-858 360,-858 366,-858 372,-864 372,-870 372,-870 372,-882 372,-882 372,-888 366,-894 360,-894"/>
<text text-anchor="middle" x="284.5" y="-873.8" font-family="Courier,monospace" font-size="9.00">RunHeuristic_H8_IlluminantXYZ()</text>
</g>
<!-- Node0x55c1de529550&#45;&gt;Node0x55c1de519f40 -->
<g id="edge60" class="edge">
<title>Node0x55c1de529550&#45;&gt;Node0x55c1de519f40</title>
<path fill="none" stroke="#4a6fa5" d="M364.79,-857.97C408.46,-848.03 460.98,-836.09 497.17,-827.86"/>
<polygon fill="#4a6fa5" stroke="#4a6fa5" points="497.89,-829.85 503.28,-826.47 496.96,-825.75 497.89,-829.85"/>
</g>
<!-- Node0x55c1de529550&#45;&gt;Node0x55c1de519be0 -->
<g id="edge62" class="edge">
<title>Node0x55c1de529550&#45;&gt;Node0x55c1de519be0</title>
<path fill="none" stroke="#4a6fa5" d="M364.98,-857.96C373,-854.84 380.82,-851.21 388,-847 419.44,-828.55 414.76,-807.79 446,-789 460.02,-780.57 476.71,-774.39 492.13,-769.96"/>
<polygon fill="#4a6fa5" stroke="#4a6fa5" points="492.96,-771.91 498.19,-768.29 491.85,-767.86 492.96,-771.91"/>
</g>
<!-- Node0x55c1de529550&#45;&gt;Node0x55c1de51a460 -->
<g id="edge63" class="edge">
<title>Node0x55c1de529550&#45;&gt;Node0x55c1de51a460</title>
<path fill="none" stroke="#4a6fa5" d="M372.31,-858.47C378,-855.26 383.32,-851.47 388,-847 446.95,-790.7 387.67,-729.95 446,-673 457.71,-661.57 473.8,-654.63 489.39,-650.42"/>
<polygon fill="#4a6fa5" stroke="#4a6fa5" points="490.25,-652.38 495.56,-648.89 489.23,-648.3 490.25,-652.38"/>
</g>
<!-- Node0x55c1de529550&#45;&gt;Node0x55c1de519d00 -->
<g id="edge61" class="edge">
<title>Node0x55c1de529550&#45;&gt;Node0x55c1de519d00</title>
<path fill="none" stroke="#4a6fa5" d="M371.13,-857.96C377.16,-854.87 382.87,-851.25 388,-847 432.4,-810.25 402.01,-768.24 446,-731 459.07,-719.94 476.3,-713.1 492.46,-708.86"/>
<polygon fill="#4a6fa5" stroke="#4a6fa5" points="493.03,-710.88 498.36,-707.42 492.03,-706.8 493.03,-710.88"/>
</g>
<!-- Node0x55c1de3f5710 -->
<g id="node27" class="node">
<title>Node0x55c1de3f5710</title>
<path fill="#f0f4ff" stroke="black" d="M557,-952C557,-952 526,-952 526,-952 520,-952 514,-946 514,-940 514,-940 514,-928 514,-928 514,-922 520,-916 526,-916 526,-916 557,-916 557,-916 563,-916 569,-922 569,-928 569,-928 569,-940 569,-940 569,-946 563,-952 557,-952"/>
<text text-anchor="middle" x="541.5" y="-931.8" font-family="Courier,monospace" font-size="9.00">icFtoD()</text>
</g>
<!-- Node0x55c1de529550&#45;&gt;Node0x55c1de3f5710 -->
<g id="edge59" class="edge">
<title>Node0x55c1de529550&#45;&gt;Node0x55c1de3f5710</title>
<path fill="none" stroke="#4a6fa5" d="M364.79,-894.03C413.02,-905 472.05,-918.43 507.94,-926.59"/>
<polygon fill="#4a6fa5" stroke="#4a6fa5" points="507.61,-928.67 513.93,-927.96 508.54,-924.58 507.61,-928.67"/>
</g>
<!-- Node0x55c1de3f5f90 -->
<g id="node28" class="node">
<title>Node0x55c1de3f5f90</title>
<path fill="#f0f4ff" stroke="black" d="M365.5,-720C365.5,-720 203.5,-720 203.5,-720 197.5,-720 191.5,-714 191.5,-708 191.5,-708 191.5,-696 191.5,-696 191.5,-690 197.5,-684 203.5,-684 203.5,-684 365.5,-684 365.5,-684 371.5,-684 377.5,-690 377.5,-696 377.5,-696 377.5,-708 377.5,-708 377.5,-714 371.5,-720 365.5,-720"/>
<text text-anchor="middle" x="284.5" y="-699.8" font-family="Courier,monospace" font-size="9.00">RunHeuristic_H15_DateValidation()</text>
</g>
<!-- Node0x55c1de3f5f90&#45;&gt;Node0x55c1de519f40 -->
<g id="edge65" class="edge">
<title>Node0x55c1de3f5f90&#45;&gt;Node0x55c1de519f40</title>
<path fill="none" stroke="#4a6fa5" d="M364.98,-720.04C373,-723.16 380.82,-726.79 388,-731 419.44,-749.45 414.76,-770.21 446,-789 461.59,-798.38 480.46,-804.96 497.24,-809.45"/>
<polygon fill="#4a6fa5" stroke="#4a6fa5" points="496.98,-811.56 503.31,-811.02 498.02,-807.49 496.98,-811.56"/>
</g>
<!-- Node0x55c1de3f5f90&#45;&gt;Node0x55c1de519be0 -->
<g id="edge67" class="edge">
<title>Node0x55c1de3f5f90&#45;&gt;Node0x55c1de519be0</title>
<path fill="none" stroke="#4a6fa5" d="M364.79,-720.03C406.52,-729.53 456.35,-740.86 492.26,-749.03"/>
<polygon fill="#4a6fa5" stroke="#4a6fa5" points="492.04,-751.13 498.35,-750.41 492.97,-747.03 492.04,-751.13"/>
</g>
<!-- Node0x55c1de3f5f90&#45;&gt;Node0x55c1de51a460 -->
<g id="edge64" class="edge">
<title>Node0x55c1de3f5f90&#45;&gt;Node0x55c1de51a460</title>
<path fill="none" stroke="#4a6fa5" d="M364.79,-683.97C405.56,-674.69 454.04,-663.66 489.74,-655.54"/>
<polygon fill="#4a6fa5" stroke="#4a6fa5" points="490.42,-657.54 495.81,-654.17 489.49,-653.45 490.42,-657.54"/>
</g>
<!-- Node0x55c1de3f5f90&#45;&gt;Node0x55c1de519d00 -->
<g id="edge66" class="edge">
<title>Node0x55c1de3f5f90&#45;&gt;Node0x55c1de519d00</title>
<path fill="none" stroke="#4a6fa5" d="M377.56,-702C416.35,-702 459.88,-702 492.19,-702"/>
<polygon fill="#4a6fa5" stroke="#4a6fa5" points="492.5,-704.1 498.5,-702 492.5,-699.9 492.5,-704.1"/>
</g>
<!-- Node0x55c1de3f66a0 -->
<g id="node29" class="node">
<title>Node0x55c1de3f66a0</title>
<path fill="#f0f4ff" stroke="black" d="M373.5,-952C373.5,-952 195.5,-952 195.5,-952 189.5,-952 183.5,-946 183.5,-940 183.5,-940 183.5,-928 183.5,-928 183.5,-922 189.5,-916 195.5,-916 195.5,-916 373.5,-916 373.5,-916 379.5,-916 385.5,-922 385.5,-928 385.5,-928 385.5,-940 385.5,-940 385.5,-946 379.5,-952 373.5,-952"/>
<text text-anchor="middle" x="284.5" y="-931.8" font-family="Courier,monospace" font-size="9.00">RunHeuristic_H16_SignaturePatterns()</text>
</g>
<!-- Node0x55c1de3f66a0&#45;&gt;Node0x55c1de519f40 -->
<g id="edge68" class="edge">
<title>Node0x55c1de3f66a0&#45;&gt;Node0x55c1de519f40</title>
<path fill="none" stroke="#4a6fa5" d="M364.98,-915.96C373,-912.84 380.82,-909.21 388,-905 419.44,-886.55 414.76,-865.79 446,-847 461.59,-837.62 480.46,-831.04 497.24,-826.55"/>
<polygon fill="#4a6fa5" stroke="#4a6fa5" points="498.02,-828.51 503.31,-824.98 496.98,-824.44 498.02,-828.51"/>
</g>
<!-- Node0x55c1de3f66a0&#45;&gt;Node0x55c1de519be0 -->
<g id="edge70" class="edge">
<title>Node0x55c1de3f66a0&#45;&gt;Node0x55c1de519be0</title>
<path fill="none" stroke="#4a6fa5" d="M371.13,-915.96C377.16,-912.87 382.87,-909.25 388,-905 432.4,-868.25 402.01,-826.24 446,-789 459.07,-777.94 476.3,-771.1 492.46,-766.86"/>
<polygon fill="#4a6fa5" stroke="#4a6fa5" points="493.03,-768.88 498.36,-765.42 492.03,-764.8 493.03,-768.88"/>
</g>
<!-- Node0x55c1de3f66a0&#45;&gt;Node0x55c1de519d00 -->
<g id="edge71" class="edge">
<title>Node0x55c1de3f66a0&#45;&gt;Node0x55c1de519d00</title>
<path fill="none" stroke="#4a6fa5" d="M373.28,-915.92C378.61,-912.83 383.59,-909.21 388,-905 446.95,-848.7 387.67,-787.95 446,-731 458.47,-718.83 475.91,-711.75 492.42,-707.64"/>
<polygon fill="#4a6fa5" stroke="#4a6fa5" points="493.07,-709.64 498.45,-706.25 492.13,-705.55 493.07,-709.64"/>
</g>
<!-- Node0x55c1de3f66a0&#45;&gt;Node0x55c1de482f80 -->
<g id="edge69" class="edge">
<title>Node0x55c1de3f66a0&#45;&gt;Node0x55c1de482f80</title>
<path fill="none" stroke="#4a6fa5" d="M334.17,-952.01C404.27,-974.91 536.26,-1006.57 637,-963 813.94,-886.46 937.54,-669.16 974.77,-596.78"/>
<polygon fill="#4a6fa5" stroke="#4a6fa5" points="976.85,-597.33 977.71,-591.03 973.11,-595.42 976.85,-597.33"/>
</g>
<!-- Node0x55c1de529880 -->
<g id="node30" class="node">
<title>Node0x55c1de529880</title>
<path fill="#f0f4ff" stroke="black" d="M363,-836C363,-836 206,-836 206,-836 200,-836 194,-830 194,-824 194,-824 194,-812 194,-812 194,-806 200,-800 206,-800 206,-800 363,-800 363,-800 369,-800 375,-806 375,-812 375,-812 375,-824 375,-824 375,-830 369,-836 363,-836"/>
<text text-anchor="middle" x="284.5" y="-815.8" font-family="Courier,monospace" font-size="9.00">RunHeuristic_H17_SpectralRange()</text>
</g>
<!-- Node0x55c1de529880&#45;&gt;Node0x55c1de519f40 -->
<g id="edge73" class="edge">
<title>Node0x55c1de529880&#45;&gt;Node0x55c1de519f40</title>
<path fill="none" stroke="#4a6fa5" d="M375.04,-818C416.52,-818 463.89,-818 497.29,-818"/>
<polygon fill="#4a6fa5" stroke="#4a6fa5" points="497.36,-820.1 503.36,-818 497.36,-815.9 497.36,-820.1"/>
</g>
<!-- Node0x55c1de529880&#45;&gt;Node0x55c1de519be0 -->
<g id="edge74" class="edge">
<title>Node0x55c1de529880&#45;&gt;Node0x55c1de519be0</title>
<path fill="none" stroke="#4a6fa5" d="M364.79,-799.97C406.52,-790.47 456.35,-779.14 492.26,-770.97"/>
<polygon fill="#4a6fa5" stroke="#4a6fa5" points="492.97,-772.97 498.35,-769.59 492.04,-768.87 492.97,-772.97"/>
</g>
<!-- Node0x55c1de529880&#45;&gt;Node0x55c1de51a460 -->
<g id="edge75" class="edge">
<title>Node0x55c1de529880&#45;&gt;Node0x55c1de51a460</title>
<path fill="none" stroke="#4a6fa5" d="M371.13,-799.96C377.16,-796.87 382.87,-793.25 388,-789 432.4,-752.25 402.01,-710.24 446,-673 458.37,-662.53 474.48,-655.83 489.88,-651.56"/>
<polygon fill="#4a6fa5" stroke="#4a6fa5" points="490.69,-653.52 495.97,-649.98 489.64,-649.45 490.69,-653.52"/>
</g>
<!-- Node0x55c1de529880&#45;&gt;Node0x55c1de519d00 -->
<g id="edge76" class="edge">
<title>Node0x55c1de529880&#45;&gt;Node0x55c1de519d00</title>
<path fill="none" stroke="#4a6fa5" d="M364.98,-799.96C373,-796.84 380.82,-793.21 388,-789 419.44,-770.55 414.76,-749.79 446,-731 460.02,-722.57 476.71,-716.39 492.13,-711.96"/>
<polygon fill="#4a6fa5" stroke="#4a6fa5" points="492.96,-713.91 498.19,-710.29 491.85,-709.86 492.96,-713.91"/>
</g>
<!-- Node0x55c1de52a8d0 -->
<g id="node31" class="node">
<title>Node0x55c1de52a8d0</title>
<path fill="#f0f4ff" stroke="black" d="M562,-894C562,-894 521,-894 521,-894 515,-894 509,-888 509,-882 509,-882 509,-870 509,-870 509,-864 515,-858 521,-858 521,-858 562,-858 562,-858 568,-858 574,-864 574,-870 574,-870 574,-882 574,-882 574,-888 568,-894 562,-894"/>
<text text-anchor="middle" x="541.5" y="-873.8" font-family="Courier,monospace" font-size="9.00">icF16toF()</text>
</g>
<!-- Node0x55c1de529880&#45;&gt;Node0x55c1de52a8d0 -->
<g id="edge72" class="edge">
<title>Node0x55c1de529880&#45;&gt;Node0x55c1de52a8d0</title>
<path fill="none" stroke="#4a6fa5" d="M364.79,-836.03C410.81,-846.5 466.66,-859.21 502.86,-867.44"/>
<polygon fill="#4a6fa5" stroke="#4a6fa5" points="502.62,-869.54 508.94,-868.82 503.55,-865.44 502.62,-869.54"/>
</g>
<!-- Node0x55c1de3f7820 -->
<g id="node32" class="node">
<title>Node0x55c1de3f7820</title>
<path fill="#f0f4ff" stroke="black" d="M111,-662C111,-662 12,-662 12,-662 6,-662 0,-656 0,-650 0,-650 0,-638 0,-638 0,-632 6,-626 12,-626 12,-626 111,-626 111,-626 117,-626 123,-632 123,-638 123,-638 123,-650 123,-650 123,-656 117,-662 111,-662"/>
<text text-anchor="middle" x="61.5" y="-641.8" font-family="Courier,monospace" font-size="9.00">RunHeaderHeuristics()</text>
</g>
<!-- Node0x55c1de3f7820&#45;&gt;Node0x55c1de51a060 -->
<g id="edge77" class="edge">
<title>Node0x55c1de3f7820&#45;&gt;Node0x55c1de51a060</title>
<path fill="none" stroke="#4a6fa5" d="M123.18,-644C145.56,-644 171.39,-644 195.69,-644"/>
<polygon fill="#4a6fa5" stroke="#4a6fa5" points="195.84,-646.1 201.84,-644 195.84,-641.9 195.84,-646.1"/>
</g>
<!-- Node0x55c1de3f7820&#45;&gt;Node0x55c1de41e920 -->
<g id="edge78" class="edge">
<title>Node0x55c1de3f7820&#45;&gt;Node0x55c1de41e920</title>
<path fill="none" stroke="#4a6fa5" d="M82.43,-662.16C104.87,-681.71 143.16,-712.51 181,-731 187.62,-734.23 194.66,-737.17 201.84,-739.81"/>
<polygon fill="#4a6fa5" stroke="#4a6fa5" points="201.53,-741.93 207.89,-741.96 202.94,-737.97 201.53,-741.93"/>
</g>
<!-- Node0x55c1de3f7820&#45;&gt;Node0x55c1de430130 -->
<g id="edge79" class="edge">
<title>Node0x55c1de3f7820&#45;&gt;Node0x55c1de430130</title>
<path fill="none" stroke="#4a6fa5" d="M65.4,-625.67C73.9,-578.11 103.27,-449.83 181,-383 184.37,-380.1 188.02,-377.49 191.86,-375.14"/>
<polygon fill="#4a6fa5" stroke="#4a6fa5" points="193.03,-376.88 197.2,-372.09 190.95,-373.24 193.03,-376.88"/>
</g>
<!-- Node0x55c1de3f7820&#45;&gt;Node0x55c1de527700 -->
<g id="edge80" class="edge">
<title>Node0x55c1de3f7820&#45;&gt;Node0x55c1de527700</title>
<path fill="none" stroke="#4a6fa5" d="M67.86,-625.99C80.62,-586.29 116.64,-490.86 181,-441 184.85,-438.01 189,-435.34 193.34,-432.93"/>
<polygon fill="#4a6fa5" stroke="#4a6fa5" points="194.58,-434.66 198.94,-430.03 192.64,-430.93 194.58,-434.66"/>
</g>
<!-- Node0x55c1de3f7820&#45;&gt;Node0x55c1de3f4d40 -->
<g id="edge81" class="edge">
<title>Node0x55c1de3f7820&#45;&gt;Node0x55c1de3f4d40</title>
<path fill="none" stroke="#4a6fa5" d="M123.18,-628.07C149.67,-621.12 180.98,-612.91 208.87,-605.59"/>
<polygon fill="#4a6fa5" stroke="#4a6fa5" points="209.5,-607.59 214.77,-604.04 208.43,-603.53 209.5,-607.59"/>
</g>
<!-- Node0x55c1de3f7820&#45;&gt;Node0x55c1de528d00 -->
<g id="edge82" class="edge">
<title>Node0x55c1de3f7820&#45;&gt;Node0x55c1de528d00</title>
<path fill="none" stroke="#4a6fa5" d="M82.43,-625.84C104.87,-606.29 143.16,-575.49 181,-557 187.62,-553.77 194.66,-550.83 201.84,-548.19"/>
<polygon fill="#4a6fa5" stroke="#4a6fa5" points="202.94,-550.03 207.89,-546.04 201.53,-546.07 202.94,-550.03"/>
</g>
<!-- Node0x55c1de3f7820&#45;&gt;Node0x55c1de3f4cc0 -->
<g id="edge83" class="edge">
<title>Node0x55c1de3f7820&#45;&gt;Node0x55c1de3f4cc0</title>
<path fill="none" stroke="#4a6fa5" d="M72.32,-625.84C89.94,-595.01 129.9,-532.53 181,-499 185.71,-495.91 190.76,-493.14 195.98,-490.67"/>
<polygon fill="#4a6fa5" stroke="#4a6fa5" points="197.11,-492.46 201.72,-488.09 195.39,-488.63 197.11,-492.46"/>
</g>
<!-- Node0x55c1de3f7820&#45;&gt;Node0x55c1de529550 -->
<g id="edge84" class="edge">
<title>Node0x55c1de3f7820&#45;&gt;Node0x55c1de529550</title>
<path fill="none" stroke="#4a6fa5" d="M67.86,-662.01C80.62,-701.71 116.64,-797.14 181,-847 184.85,-849.99 189,-852.66 193.34,-855.07"/>
<polygon fill="#4a6fa5" stroke="#4a6fa5" points="192.64,-857.07 198.94,-857.97 194.58,-853.34 192.64,-857.07"/>
</g>
<!-- Node0x55c1de3f7820&#45;&gt;Node0x55c1de3f5f90 -->
<g id="edge85" class="edge">
<title>Node0x55c1de3f7820&#45;&gt;Node0x55c1de3f5f90</title>
<path fill="none" stroke="#4a6fa5" d="M123.18,-659.93C149.67,-666.88 180.98,-675.09 208.87,-682.41"/>
<polygon fill="#4a6fa5" stroke="#4a6fa5" points="208.43,-684.47 214.77,-683.96 209.5,-680.41 208.43,-684.47"/>
</g>
<!-- Node0x55c1de3f7820&#45;&gt;Node0x55c1de3f66a0 -->
<g id="edge86" class="edge">
<title>Node0x55c1de3f7820&#45;&gt;Node0x55c1de3f66a0</title>
<path fill="none" stroke="#4a6fa5" d="M65.4,-662.33C73.9,-709.89 103.27,-838.17 181,-905 184.37,-907.9 188.02,-910.51 191.86,-912.86"/>
<polygon fill="#4a6fa5" stroke="#4a6fa5" points="190.95,-914.76 197.2,-915.91 193.03,-911.12 190.95,-914.76"/>
</g>
<!-- Node0x55c1de3f7820&#45;&gt;Node0x55c1de529880 -->
<g id="edge87" class="edge">
<title>Node0x55c1de3f7820&#45;&gt;Node0x55c1de529880</title>
<path fill="none" stroke="#4a6fa5" d="M72.32,-662.16C89.94,-692.99 129.9,-755.47 181,-789 185.71,-792.09 190.76,-794.86 195.98,-797.33"/>
<polygon fill="#4a6fa5" stroke="#4a6fa5" points="195.39,-799.37 201.72,-799.91 197.11,-795.54 195.39,-799.37"/>
</g>
</g>
</svg>
