<?xml version="1.0" encoding="UTF-8" standalone="no"?>
<!DOCTYPE svg PUBLIC "-//W3C//DTD SVG 1.1//EN"
 "http://www.w3.org/Graphics/SVG/1.1/DTD/svg11.dtd">
<!-- Generated by graphviz version 2.43.0 (0)
 -->
<!-- Title: Call graph: /home/h02332/po/research/call&#45;graph/analyzer/IccHeuristicsIntegrity.ll Pages: 1 -->
<svg width="990pt" height="3041pt"
 viewBox="0.00 0.00 990.20 3041.20" xmlns="http://www.w3.org/2000/svg" xmlns:xlink="http://www.w3.org/1999/xlink">
<g id="graph0" class="graph" transform="scale(1 1) rotate(0) translate(21.6 3019.6)">
<title>Call graph: /home/h02332/po/research/call&#45;graph/analyzer/IccHeuristicsIntegrity.ll</title>
<polygon fill="white" stroke="transparent" points="-21.6,21.6 -21.6,-3019.6 968.6,-3019.6 968.6,21.6 -21.6,21.6"/>
<!-- Node0x5eed97239cd0 -->
<g id="node1" class="node">
<title>Node0x5eed97239cd0</title>
<path fill="#f0f4ff" stroke="black" d="M255.5,-1608C255.5,-1608 72.5,-1608 72.5,-1608 66.5,-1608 60.5,-1602 60.5,-1596 60.5,-1596 60.5,-1584 60.5,-1584 60.5,-1578 66.5,-1572 72.5,-1572 72.5,-1572 255.5,-1572 255.5,-1572 261.5,-1572 267.5,-1578 267.5,-1584 267.5,-1584 267.5,-1596 267.5,-1596 267.5,-1602 261.5,-1608 255.5,-1608"/>
<text text-anchor="middle" x="164" y="-1587.8" font-family="Courier,monospace" font-size="9.00">RunHeuristic_H121_CharDataRoundTrip()</text>
</g>
<!-- Node0x5eed97836f90 -->
<g id="node2" class="node">
<title>Node0x5eed97836f90</title>
<path fill="#f0f4ff" stroke="black" d="M911.5,-1749C911.5,-1749 807.5,-1749 807.5,-1749 801.5,-1749 795.5,-1743 795.5,-1737 795.5,-1737 795.5,-1725 795.5,-1725 795.5,-1719 801.5,-1713 807.5,-1713 807.5,-1713 911.5,-1713 911.5,-1713 917.5,-1713 923.5,-1719 923.5,-1725 923.5,-1725 923.5,-1737 923.5,-1737 923.5,-1743 917.5,-1749 911.5,-1749"/>
<text text-anchor="middle" x="859.5" y="-1728.8" font-family="Courier,monospace" font-size="9.00">CIccProfile::FindTag()</text>
</g>
<!-- Node0x5eed97239cd0&#45;&gt;Node0x5eed97836f90 -->
<g id="edge1" class="edge">
<title>Node0x5eed97239cd0&#45;&gt;Node0x5eed97836f90</title>
<path fill="none" stroke="#4a6fa5" d="M177.24,-1608.22C219.01,-1670.15 355.1,-1869.54 386,-1885 451.18,-1917.61 647.11,-1913.96 714,-1885 775.8,-1858.24 823.3,-1790.61 845.21,-1754.52"/>
<polygon fill="#4a6fa5" stroke="#4a6fa5" points="847.23,-1755.24 848.51,-1749.01 843.63,-1753.09 847.23,-1755.24"/>
</g>
<!-- Node0x5eed972eca00 -->
<g id="node3" class="node">
<title>Node0x5eed972eca00</title>
<path fill="#f0f4ff" stroke="black" d="M576,-1030C576,-1030 524,-1030 524,-1030 518,-1030 512,-1024 512,-1018 512,-1018 512,-1006 512,-1006 512,-1000 518,-994 524,-994 524,-994 576,-994 576,-994 582,-994 588,-1000 588,-1006 588,-1006 588,-1018 588,-1018 588,-1024 582,-1030 576,-1030"/>
<text text-anchor="middle" x="550" y="-1009.8" font-family="Courier,monospace" font-size="9.00">ColorReset()</text>
</g>
<!-- Node0x5eed97239cd0&#45;&gt;Node0x5eed972eca00 -->
<g id="edge2" class="edge">
<title>Node0x5eed97239cd0&#45;&gt;Node0x5eed972eca00</title>
<path fill="none" stroke="#4a6fa5" d="M202.18,-1571.86C240.4,-1551.12 298.39,-1513.42 328,-1463 413.62,-1317.19 284.17,-1221.99 386,-1087 414.94,-1048.64 468.18,-1029.28 505.93,-1019.95"/>
<polygon fill="#4a6fa5" stroke="#4a6fa5" points="506.5,-1021.97 511.85,-1018.53 505.53,-1017.88 506.5,-1021.97"/>
</g>
<!-- Node0x5eed972593c0 -->
<g id="node4" class="node">
<title>Node0x5eed972593c0</title>
<path fill="#f0f4ff" stroke="black" d="M890.5,-1616C890.5,-1616 828.5,-1616 828.5,-1616 822.5,-1616 816.5,-1610 816.5,-1604 816.5,-1604 816.5,-1592 816.5,-1592 816.5,-1586 822.5,-1580 828.5,-1580 828.5,-1580 890.5,-1580 890.5,-1580 896.5,-1580 902.5,-1586 902.5,-1592 902.5,-1592 902.5,-1604 902.5,-1604 902.5,-1610 896.5,-1616 890.5,-1616"/>
<text text-anchor="middle" x="859.5" y="-1595.8" font-family="Courier,monospace" font-size="9.00">__dynamic_cast</text>
</g>
<!-- Node0x5eed97239cd0&#45;&gt;Node0x5eed972593c0 -->
<g id="edge3" class="edge">
<title>Node0x5eed97239cd0&#45;&gt;Node0x5eed972593c0</title>
<path fill="none" stroke="#4a6fa5" d="M267.61,-1606.29C304.79,-1611.45 347.19,-1616.46 386,-1619 531.47,-1628.5 568.6,-1629.51 714,-1619 746.2,-1616.67 782.13,-1611.46 810.11,-1606.81"/>
<polygon fill="#4a6fa5" stroke="#4a6fa5" points="810.74,-1608.84 816.31,-1605.77 810.05,-1604.7 810.74,-1608.84"/>
</g>
<!-- Node0x5eed97394be0 -->
<g id="node5" class="node">
<title>Node0x5eed97394be0</title>
<path fill="#f0f4ff" stroke="black" d="M602,-1758C602,-1758 498,-1758 498,-1758 492,-1758 486,-1752 486,-1746 486,-1746 486,-1734 486,-1734 486,-1728 492,-1722 498,-1722 498,-1722 602,-1722 602,-1722 608,-1722 614,-1728 614,-1734 614,-1734 614,-1746 614,-1746 614,-1752 608,-1758 602,-1758"/>
<text text-anchor="middle" x="550" y="-1737.8" font-family="Courier,monospace" font-size="9.00">CIccTagText::GetText()</text>
</g>
<!-- Node0x5eed97239cd0&#45;&gt;Node0x5eed97394be0 -->
<g id="edge4" class="edge">
<title>Node0x5eed97239cd0&#45;&gt;Node0x5eed97394be0</title>
<path fill="none" stroke="#4a6fa5" d="M193.53,-1608.05C234.57,-1633.25 313.36,-1678.84 386,-1705 416,-1715.8 450.36,-1723.79 479.78,-1729.38"/>
<polygon fill="#4a6fa5" stroke="#4a6fa5" points="479.7,-1731.5 485.98,-1730.54 480.47,-1727.38 479.7,-1731.5"/>
</g>
<!-- Node0x5eed9737e320 -->
<g id="node6" class="node">
<title>Node0x5eed9737e320</title>
<path fill="#f0f4ff" stroke="black" d="M581,-1134C581,-1134 519,-1134 519,-1134 513,-1134 507,-1128 507,-1122 507,-1122 507,-1110 507,-1110 507,-1104 513,-1098 519,-1098 519,-1098 581,-1098 581,-1098 587,-1098 593,-1104 593,-1110 593,-1110 593,-1122 593,-1122 593,-1128 587,-1134 581,-1134"/>
<text text-anchor="middle" x="550" y="-1113.8" font-family="Courier,monospace" font-size="9.00">ColorWarning()</text>
</g>
<!-- Node0x5eed97239cd0&#45;&gt;Node0x5eed9737e320 -->
<g id="edge5" class="edge">
<title>Node0x5eed97239cd0&#45;&gt;Node0x5eed9737e320</title>
<path fill="none" stroke="#4a6fa5" d="M201.56,-1571.89C239.55,-1551.06 297.61,-1513.17 328,-1463 402.44,-1340.12 284.19,-1246.37 386,-1145 415.65,-1115.48 464.29,-1110.15 500.73,-1111.05"/>
<polygon fill="#4a6fa5" stroke="#4a6fa5" points="500.86,-1113.16 506.93,-1111.27 501.01,-1108.96 500.86,-1113.16"/>
</g>
<!-- Node0x5eed9762bae0 -->
<g id="node7" class="node">
<title>Node0x5eed9762bae0</title>
<path fill="#f0f4ff" stroke="black" d="M581,-972C581,-972 519,-972 519,-972 513,-972 507,-966 507,-960 507,-960 507,-948 507,-948 507,-942 513,-936 519,-936 519,-936 581,-936 581,-936 587,-936 593,-942 593,-948 593,-948 593,-960 593,-960 593,-966 587,-972 581,-972"/>
<text text-anchor="middle" x="550" y="-951.8" font-family="Courier,monospace" font-size="9.00">ColorSuccess()</text>
</g>
<!-- Node0x5eed97239cd0&#45;&gt;Node0x5eed9762bae0 -->
<g id="edge6" class="edge">
<title>Node0x5eed97239cd0&#45;&gt;Node0x5eed9762bae0</title>
<path fill="none" stroke="#4a6fa5" d="M202.87,-1571.86C241.36,-1551.24 299.31,-1513.75 328,-1463 433.76,-1275.94 238.35,-1139.13 386,-983 414.84,-952.5 463.83,-947.36 500.59,-948.57"/>
<polygon fill="#4a6fa5" stroke="#4a6fa5" points="500.75,-950.68 506.84,-948.85 500.93,-946.49 500.75,-950.68"/>
</g>
<!-- Node0x5eed97734350 -->
<g id="node8" class="node">
<title>Node0x5eed97734350</title>
<path fill="#f0f4ff" stroke="black" d="M880,-1030C880,-1030 839,-1030 839,-1030 833,-1030 827,-1024 827,-1018 827,-1018 827,-1006 827,-1006 827,-1000 833,-994 839,-994 839,-994 880,-994 880,-994 886,-994 892,-1000 892,-1006 892,-1006 892,-1018 892,-1018 892,-1024 886,-1030 880,-1030"/>
<text text-anchor="middle" x="859.5" y="-1009.8" font-family="Courier,monospace" font-size="9.00">GetColor()</text>
</g>
<!-- Node0x5eed972eca00&#45;&gt;Node0x5eed97734350 -->
<g id="edge8" class="edge">
<title>Node0x5eed972eca00&#45;&gt;Node0x5eed97734350</title>
<path fill="none" stroke="#4a6fa5" d="M588.09,-1012C646.97,-1012 761.2,-1012 820.59,-1012"/>
<polygon fill="#4a6fa5" stroke="#4a6fa5" points="820.86,-1014.1 826.86,-1012 820.86,-1009.9 820.86,-1014.1"/>
</g>
<!-- Node0x5eed9737e320&#45;&gt;Node0x5eed97734350 -->
<g id="edge7" class="edge">
<title>Node0x5eed9737e320&#45;&gt;Node0x5eed97734350</title>
<path fill="none" stroke="#4a6fa5" d="M593.27,-1109.72C626.61,-1104.1 674,-1094.63 714,-1081 751.87,-1068.09 792.82,-1047.89 821.43,-1032.68"/>
<polygon fill="#4a6fa5" stroke="#4a6fa5" points="822.68,-1034.39 826.98,-1029.71 820.7,-1030.69 822.68,-1034.39"/>
</g>
<!-- Node0x5eed9762bae0&#45;&gt;Node0x5eed97734350 -->
<g id="edge9" class="edge">
<title>Node0x5eed9762bae0&#45;&gt;Node0x5eed97734350</title>
<path fill="none" stroke="#4a6fa5" d="M593.26,-961.26C626.2,-966.97 673.05,-975.25 714,-983 750.38,-989.89 791.8,-998.25 820.94,-1004.23"/>
<polygon fill="#4a6fa5" stroke="#4a6fa5" points="820.67,-1006.31 826.97,-1005.46 821.51,-1002.2 820.67,-1006.31"/>
</g>
<!-- Node0x5eed977030c0 -->
<g id="node9" class="node">
<title>Node0x5eed977030c0</title>
<path fill="#f0f4ff" stroke="black" d="M239.5,-2401C239.5,-2401 88.5,-2401 88.5,-2401 82.5,-2401 76.5,-2395 76.5,-2389 76.5,-2389 76.5,-2377 76.5,-2377 76.5,-2371 82.5,-2365 88.5,-2365 88.5,-2365 239.5,-2365 239.5,-2365 245.5,-2365 251.5,-2371 251.5,-2377 251.5,-2377 251.5,-2389 251.5,-2389 251.5,-2395 245.5,-2401 239.5,-2401"/>
<text text-anchor="middle" x="164" y="-2380.8" font-family="Courier,monospace" font-size="9.00">RunHeuristic_H122_TagEncoding()</text>
</g>
<!-- Node0x5eed977030c0&#45;&gt;Node0x5eed97836f90 -->
<g id="edge21" class="edge">
<title>Node0x5eed977030c0&#45;&gt;Node0x5eed97836f90</title>
<path fill="none" stroke="#4a6fa5" d="M189.56,-2401.06C228.72,-2428.62 308.8,-2479.97 386,-2499 456.77,-2516.44 657.9,-2545.53 714,-2499 832.37,-2400.83 854.41,-1874.3 857.91,-1755.03"/>
<polygon fill="#4a6fa5" stroke="#4a6fa5" points="860.01,-1755.08 858.08,-1749.02 855.81,-1754.96 860.01,-1755.08"/>
</g>
<!-- Node0x5eed977030c0&#45;&gt;Node0x5eed972eca00 -->
<g id="edge10" class="edge">
<title>Node0x5eed977030c0&#45;&gt;Node0x5eed972eca00</title>
<path fill="none" stroke="#4a6fa5" d="M172.73,-2364.89C199.68,-2300.81 289.95,-2078.24 328,-1885 362.35,-1710.55 284.72,-1233.13 386,-1087 413.54,-1047.27 467.59,-1028.14 505.89,-1019.25"/>
<polygon fill="#4a6fa5" stroke="#4a6fa5" points="506.5,-1021.26 511.9,-1017.9 505.59,-1017.16 506.5,-1021.26"/>
</g>
<!-- Node0x5eed977030c0&#45;&gt;Node0x5eed972593c0 -->
<g id="edge20" class="edge">
<title>Node0x5eed977030c0&#45;&gt;Node0x5eed972593c0</title>
<path fill="none" stroke="#4a6fa5" d="M191.9,-2364.93C232.22,-2338.8 311.55,-2290.96 386,-2267 456.06,-2244.45 662.69,-2273.77 714,-2221 794.9,-2137.8 726.54,-1808.78 772,-1702 785.69,-1669.86 812.67,-1639.96 832.88,-1620.54"/>
<polygon fill="#4a6fa5" stroke="#4a6fa5" points="834.43,-1621.97 837.34,-1616.32 831.54,-1618.92 834.43,-1621.97"/>
</g>
<!-- Node0x5eed977030c0&#45;&gt;Node0x5eed9737e320 -->
<g id="edge16" class="edge">
<title>Node0x5eed977030c0&#45;&gt;Node0x5eed9737e320</title>
<path fill="none" stroke="#4a6fa5" d="M172.69,-2364.88C199.51,-2300.78 289.4,-2078.13 328,-1885 344.16,-1804.13 330.6,-1206.1 386,-1145 414.29,-1113.8 463.59,-1108.81 500.59,-1110.26"/>
<polygon fill="#4a6fa5" stroke="#4a6fa5" points="500.78,-1112.37 506.88,-1110.57 500.99,-1108.17 500.78,-1112.37"/>
</g>
<!-- Node0x5eed977030c0&#45;&gt;Node0x5eed9762bae0 -->
<g id="edge15" class="edge">
<title>Node0x5eed977030c0&#45;&gt;Node0x5eed9762bae0</title>
<path fill="none" stroke="#4a6fa5" d="M172.78,-2364.9C199.93,-2300.86 290.75,-2078.4 328,-1885 346.99,-1786.38 319.07,-1057.87 386,-983 414.07,-951.6 463.4,-946.65 500.47,-948.15"/>
<polygon fill="#4a6fa5" stroke="#4a6fa5" points="500.67,-950.26 506.77,-948.47 500.88,-946.07 500.67,-950.26"/>
</g>
<!-- Node0x5eed97423470 -->
<g id="node10" class="node">
<title>Node0x5eed97423470</title>
<path fill="#f0f4ff" stroke="black" d="M702,-2314C702,-2314 398,-2314 398,-2314 392,-2314 386,-2308 386,-2302 386,-2302 386,-2290 386,-2290 386,-2284 392,-2278 398,-2278 398,-2278 702,-2278 702,-2278 708,-2278 714,-2284 714,-2290 714,-2290 714,-2302 714,-2302 714,-2308 708,-2314 702,-2314"/>
<text text-anchor="middle" x="550" y="-2293.8" font-family="Courier,monospace" font-size="9.00">CIccTagXYZ* FindAndCast&lt;CIccTagXYZ&gt;(CIccProfile*, icTagSi...</text>
</g>
<!-- Node0x5eed977030c0&#45;&gt;Node0x5eed97423470 -->
<g id="edge11" class="edge">
<title>Node0x5eed977030c0&#45;&gt;Node0x5eed97423470</title>
<path fill="none" stroke="#4a6fa5" d="M228.5,-2364.88C272.49,-2352.69 332.54,-2336.75 386,-2325 401.63,-2321.57 418.16,-2318.25 434.48,-2315.17"/>
<polygon fill="#4a6fa5" stroke="#4a6fa5" points="434.96,-2317.22 440.48,-2314.05 434.19,-2313.09 434.96,-2317.22"/>
</g>
<!-- Node0x5eed97820540 -->
<g id="node11" class="node">
<title>Node0x5eed97820540</title>
<path fill="#f0f4ff" stroke="black" d="M599.5,-2708C599.5,-2708 500.5,-2708 500.5,-2708 494.5,-2708 488.5,-2702 488.5,-2696 488.5,-2696 488.5,-2684 488.5,-2684 488.5,-2678 494.5,-2672 500.5,-2672 500.5,-2672 599.5,-2672 599.5,-2672 605.5,-2672 611.5,-2678 611.5,-2684 611.5,-2684 611.5,-2696 611.5,-2696 611.5,-2702 605.5,-2708 599.5,-2708"/>
<text text-anchor="middle" x="550" y="-2687.8" font-family="Courier,monospace" font-size="9.00">CIccTagXYZ::GetSize()</text>
</g>
<!-- Node0x5eed977030c0&#45;&gt;Node0x5eed97820540 -->
<g id="edge12" class="edge">
<title>Node0x5eed977030c0&#45;&gt;Node0x5eed97820540</title>
<path fill="none" stroke="#4a6fa5" d="M173.6,-2401.36C198.43,-2452.16 275.58,-2595.17 386,-2661 414.82,-2678.18 451.24,-2685.72 482.34,-2688.84"/>
<polygon fill="#4a6fa5" stroke="#4a6fa5" points="482.32,-2690.95 488.49,-2689.41 482.71,-2686.77 482.32,-2690.95"/>
</g>
<!-- Node0x5eed977e7560 -->
<g id="node12" class="node">
<title>Node0x5eed977e7560</title>
<path fill="#f0f4ff" stroke="black" d="M654.5,-2650C654.5,-2650 445.5,-2650 445.5,-2650 439.5,-2650 433.5,-2644 433.5,-2638 433.5,-2638 433.5,-2626 433.5,-2626 433.5,-2620 439.5,-2614 445.5,-2614 445.5,-2614 654.5,-2614 654.5,-2614 660.5,-2614 666.5,-2620 666.5,-2626 666.5,-2626 666.5,-2638 666.5,-2638 666.5,-2644 660.5,-2650 654.5,-2650"/>
<text text-anchor="middle" x="550" y="-2629.8" font-family="Courier,monospace" font-size="9.00">CIccTagXYZ::operator[](unsigned int) const</text>
</g>
<!-- Node0x5eed977030c0&#45;&gt;Node0x5eed977e7560 -->
<g id="edge13" class="edge">
<title>Node0x5eed977030c0&#45;&gt;Node0x5eed977e7560</title>
<path fill="none" stroke="#4a6fa5" d="M177.18,-2401.18C207.07,-2444.2 288.74,-2552.41 386,-2603 398.83,-2609.67 412.91,-2614.84 427.26,-2618.84"/>
<polygon fill="#4a6fa5" stroke="#4a6fa5" points="427.08,-2620.97 433.42,-2620.49 428.17,-2616.91 427.08,-2620.97"/>
</g>
<!-- Node0x5eed977b3d40 -->
<g id="node13" class="node">
<title>Node0x5eed977b3d40</title>
<path fill="#f0f4ff" stroke="black" d="M565.5,-2592C565.5,-2592 534.5,-2592 534.5,-2592 528.5,-2592 522.5,-2586 522.5,-2580 522.5,-2580 522.5,-2568 522.5,-2568 522.5,-2562 528.5,-2556 534.5,-2556 534.5,-2556 565.5,-2556 565.5,-2556 571.5,-2556 577.5,-2562 577.5,-2568 577.5,-2568 577.5,-2580 577.5,-2580 577.5,-2586 571.5,-2592 565.5,-2592"/>
<text text-anchor="middle" x="550" y="-2571.8" font-family="Courier,monospace" font-size="9.00">icFtoD()</text>
</g>
<!-- Node0x5eed977030c0&#45;&gt;Node0x5eed977b3d40 -->
<g id="edge14" class="edge">
<title>Node0x5eed977030c0&#45;&gt;Node0x5eed977b3d40</title>
<path fill="none" stroke="#4a6fa5" d="M184.62,-2401.1C221.26,-2433.88 303.84,-2502.99 386,-2539 428.8,-2557.76 482.45,-2566.78 516.24,-2570.88"/>
<polygon fill="#4a6fa5" stroke="#4a6fa5" points="516.1,-2572.98 522.31,-2571.59 516.59,-2568.81 516.1,-2572.98"/>
</g>
<!-- Node0x5eed971eb200 -->
<g id="node14" class="node">
<title>Node0x5eed971eb200</title>
<path fill="#f0f4ff" stroke="black" d="M568,-2488C568,-2488 532,-2488 532,-2488 526,-2488 520,-2482 520,-2476 520,-2476 520,-2464 520,-2464 520,-2458 526,-2452 532,-2452 532,-2452 568,-2452 568,-2452 574,-2452 580,-2458 580,-2464 580,-2464 580,-2476 580,-2476 580,-2482 574,-2488 568,-2488"/>
<text text-anchor="middle" x="550" y="-2467.8" font-family="Courier,monospace" font-size="9.00">icUFtoD()</text>
</g>
<!-- Node0x5eed977030c0&#45;&gt;Node0x5eed971eb200 -->
<g id="edge17" class="edge">
<title>Node0x5eed977030c0&#45;&gt;Node0x5eed971eb200</title>
<path fill="none" stroke="#4a6fa5" d="M228.5,-2401.12C272.49,-2413.31 332.54,-2429.25 386,-2441 429.74,-2450.61 480.61,-2459.27 513.74,-2464.57"/>
<polygon fill="#4a6fa5" stroke="#4a6fa5" points="513.45,-2466.65 519.71,-2465.52 514.11,-2462.5 513.45,-2466.65"/>
</g>
<!-- Node0x5eed971eb2f0 -->
<g id="node15" class="node">
<title>Node0x5eed971eb2f0</title>
<path fill="#f0f4ff" stroke="black" d="M662.5,-2430C662.5,-2430 437.5,-2430 437.5,-2430 431.5,-2430 425.5,-2424 425.5,-2418 425.5,-2418 425.5,-2406 425.5,-2406 425.5,-2400 431.5,-2394 437.5,-2394 437.5,-2394 662.5,-2394 662.5,-2394 668.5,-2394 674.5,-2400 674.5,-2406 674.5,-2406 674.5,-2418 674.5,-2418 674.5,-2424 668.5,-2430 662.5,-2430"/>
<text text-anchor="middle" x="550" y="-2409.8" font-family="Courier,monospace" font-size="9.00">CIccTagChromaticity::operator[](unsigned int)</text>
</g>
<!-- Node0x5eed977030c0&#45;&gt;Node0x5eed971eb2f0 -->
<g id="edge18" class="edge">
<title>Node0x5eed977030c0&#45;&gt;Node0x5eed971eb2f0</title>
<path fill="none" stroke="#4a6fa5" d="M251.66,-2389.54C301.06,-2393.28 363.95,-2398.03 419.16,-2402.19"/>
<polygon fill="#4a6fa5" stroke="#4a6fa5" points="419.02,-2404.29 425.16,-2402.65 419.34,-2400.1 419.02,-2404.29"/>
</g>
<!-- Node0x5eed9778aee0 -->
<g id="node16" class="node">
<title>Node0x5eed9778aee0</title>
<path fill="#f0f4ff" stroke="black" d="M623,-2372C623,-2372 477,-2372 477,-2372 471,-2372 465,-2366 465,-2360 465,-2360 465,-2348 465,-2348 465,-2342 471,-2336 477,-2336 477,-2336 623,-2336 623,-2336 629,-2336 635,-2342 635,-2348 635,-2348 635,-2360 635,-2360 635,-2366 629,-2372 623,-2372"/>
<text text-anchor="middle" x="550" y="-2351.8" font-family="Courier,monospace" font-size="9.00">CIccTagChromaticity::GetSize()</text>
</g>
<!-- Node0x5eed977030c0&#45;&gt;Node0x5eed9778aee0 -->
<g id="edge19" class="edge">
<title>Node0x5eed977030c0&#45;&gt;Node0x5eed9778aee0</title>
<path fill="none" stroke="#4a6fa5" d="M251.66,-2376.46C313.48,-2371.79 396.41,-2365.52 458.98,-2360.8"/>
<polygon fill="#4a6fa5" stroke="#4a6fa5" points="459.14,-2362.89 464.97,-2360.35 458.83,-2358.7 459.14,-2362.89"/>
</g>
<!-- Node0x5eed97423470&#45;&gt;Node0x5eed97836f90 -->
<g id="edge22" class="edge">
<title>Node0x5eed97423470&#45;&gt;Node0x5eed97836f90</title>
<path fill="none" stroke="#4a6fa5" d="M690.02,-2277.95C698.73,-2273.35 706.85,-2267.77 714,-2261 790.16,-2188.89 842.12,-1849.46 855.24,-1755.29"/>
<polygon fill="#4a6fa5" stroke="#4a6fa5" points="857.34,-1755.42 856.08,-1749.19 853.18,-1754.84 857.34,-1755.42"/>
</g>
<!-- Node0x5eed97423470&#45;&gt;Node0x5eed972593c0 -->
<g id="edge23" class="edge">
<title>Node0x5eed97423470&#45;&gt;Node0x5eed972593c0</title>
<path fill="none" stroke="#4a6fa5" d="M693.52,-2277.89C701.08,-2273.25 708.01,-2267.68 714,-2261 797.41,-2168.05 723.53,-1817.1 772,-1702 785.56,-1669.81 812.56,-1639.91 832.81,-1620.51"/>
<polygon fill="#4a6fa5" stroke="#4a6fa5" points="834.36,-1621.94 837.28,-1616.3 831.48,-1618.89 834.36,-1621.94"/>
</g>
<!-- Node0x5eed971ebd60 -->
<g id="node17" class="node">
<title>Node0x5eed971ebd60</title>
<path fill="#f0f4ff" stroke="black" d="M250,-1134C250,-1134 78,-1134 78,-1134 72,-1134 66,-1128 66,-1122 66,-1122 66,-1110 66,-1110 66,-1104 72,-1098 78,-1098 78,-1098 250,-1098 250,-1098 256,-1098 262,-1104 262,-1110 262,-1110 262,-1122 262,-1122 262,-1128 256,-1134 250,-1134"/>
<text text-anchor="middle" x="164" y="-1113.8" font-family="Courier,monospace" font-size="9.00">RunHeuristic_H123_NonRequiredTags()</text>
</g>
<!-- Node0x5eed971ebd60&#45;&gt;Node0x5eed972eca00 -->
<g id="edge24" class="edge">
<title>Node0x5eed971ebd60&#45;&gt;Node0x5eed972eca00</title>
<path fill="none" stroke="#4a6fa5" d="M262.05,-1101.22C283.88,-1097.2 306.84,-1092.44 328,-1087 391.09,-1070.78 462.11,-1045.35 506.21,-1028.68"/>
<polygon fill="#4a6fa5" stroke="#4a6fa5" points="507.12,-1030.58 511.98,-1026.49 505.63,-1026.65 507.12,-1030.58"/>
</g>
<!-- Node0x5eed971ebd60&#45;&gt;Node0x5eed9737e320 -->
<g id="edge26" class="edge">
<title>Node0x5eed971ebd60&#45;&gt;Node0x5eed9737e320</title>
<path fill="none" stroke="#4a6fa5" d="M262.4,-1116C338.5,-1116 441.05,-1116 500.6,-1116"/>
<polygon fill="#4a6fa5" stroke="#4a6fa5" points="500.93,-1118.1 506.93,-1116 500.93,-1113.9 500.93,-1118.1"/>
</g>
<!-- Node0x5eed971ebd60&#45;&gt;Node0x5eed9762bae0 -->
<g id="edge25" class="edge">
<title>Node0x5eed971ebd60&#45;&gt;Node0x5eed9762bae0</title>
<path fill="none" stroke="#4a6fa5" d="M262.36,-1112.89C285.47,-1108.47 308.92,-1100.59 328,-1087 371.1,-1056.29 342.9,-1013.71 386,-983 419.17,-959.37 465.55,-953.01 500.36,-952.05"/>
<polygon fill="#4a6fa5" stroke="#4a6fa5" points="500.76,-954.14 506.72,-951.93 500.68,-949.94 500.76,-954.14"/>
</g>
<!-- Node0x5eed971ec740 -->
<g id="node18" class="node">
<title>Node0x5eed971ec740</title>
<path fill="#f0f4ff" stroke="black" d="M573,-1192C573,-1192 527,-1192 527,-1192 521,-1192 515,-1186 515,-1180 515,-1180 515,-1168 515,-1168 515,-1162 521,-1156 527,-1156 527,-1156 573,-1156 573,-1156 579,-1156 585,-1162 585,-1168 585,-1168 585,-1180 585,-1180 585,-1186 579,-1192 573,-1192"/>
<text text-anchor="middle" x="550" y="-1171.8" font-family="Courier,monospace" font-size="9.00">ColorInfo()</text>
</g>
<!-- Node0x5eed971ebd60&#45;&gt;Node0x5eed971ec740 -->
<g id="edge27" class="edge">
<title>Node0x5eed971ebd60&#45;&gt;Node0x5eed971ec740</title>
<path fill="none" stroke="#4a6fa5" d="M262.4,-1130.71C342.15,-1142.76 450.93,-1159.19 508.85,-1167.94"/>
<polygon fill="#4a6fa5" stroke="#4a6fa5" points="508.73,-1170.04 514.97,-1168.86 509.35,-1165.89 508.73,-1170.04"/>
</g>
<!-- Node0x5eed9784c930 -->
<g id="node19" class="node">
<title>Node0x5eed9784c930</title>
<path fill="#f0f4ff" stroke="black" d="M576,-464C576,-464 524,-464 524,-464 518,-464 512,-458 512,-452 512,-452 512,-440 512,-440 512,-434 518,-428 524,-428 524,-428 576,-428 576,-428 582,-428 588,-434 588,-440 588,-440 588,-452 588,-452 588,-458 582,-464 576,-464"/>
<text text-anchor="middle" x="550" y="-443.8" font-family="Courier,monospace" font-size="9.00">SigToChars()</text>
</g>
<!-- Node0x5eed971ebd60&#45;&gt;Node0x5eed9784c930 -->
<g id="edge28" class="edge">
<title>Node0x5eed971ebd60&#45;&gt;Node0x5eed9784c930</title>
<path fill="none" stroke="#4a6fa5" d="M262.39,-1118.56C286.88,-1114.34 311,-1105.14 328,-1087 407.5,-1002.16 328.06,-667.81 386,-567 413.37,-519.38 467.82,-484.9 506.24,-465.21"/>
<polygon fill="#4a6fa5" stroke="#4a6fa5" points="507.37,-466.99 511.78,-462.41 505.48,-463.24 507.37,-466.99"/>
</g>
<!-- Node0x5eed971ec740&#45;&gt;Node0x5eed97734350 -->
<g id="edge29" class="edge">
<title>Node0x5eed971ec740&#45;&gt;Node0x5eed97734350</title>
<path fill="none" stroke="#4a6fa5" d="M585.19,-1173.44C619.42,-1171.64 672.79,-1165.42 714,-1145 767.94,-1118.27 816.21,-1065.15 840.97,-1034.75"/>
<polygon fill="#4a6fa5" stroke="#4a6fa5" points="842.61,-1036.07 844.74,-1030.08 839.34,-1033.43 842.61,-1036.07"/>
</g>
<!-- Node0x5eed971fb910 -->
<g id="node20" class="node">
<title>Node0x5eed971fb910</title>
<path fill="#f0f4ff" stroke="black" d="M239.5,-1192C239.5,-1192 88.5,-1192 88.5,-1192 82.5,-1192 76.5,-1186 76.5,-1180 76.5,-1180 76.5,-1168 76.5,-1168 76.5,-1162 82.5,-1156 88.5,-1156 88.5,-1156 239.5,-1156 239.5,-1156 245.5,-1156 251.5,-1162 251.5,-1168 251.5,-1168 251.5,-1180 251.5,-1180 251.5,-1186 245.5,-1192 239.5,-1192"/>
<text text-anchor="middle" x="164" y="-1171.8" font-family="Courier,monospace" font-size="9.00">RunHeuristic_H124_VersionTags()</text>
</g>
<!-- Node0x5eed971fb910&#45;&gt;Node0x5eed97836f90 -->
<g id="edge30" class="edge">
<title>Node0x5eed971fb910&#45;&gt;Node0x5eed97836f90</title>
<path fill="none" stroke="#4a6fa5" d="M251.64,-1187.62C398.22,-1211.47 682.4,-1261.41 714,-1295 816.64,-1404.1 709.1,-1491.06 772,-1627 786.76,-1658.9 813.83,-1689.05 833.77,-1708.59"/>
<polygon fill="#4a6fa5" stroke="#4a6fa5" points="832.39,-1710.18 838.16,-1712.84 835.31,-1707.16 832.39,-1710.18"/>
</g>
<!-- Node0x5eed971fb910&#45;&gt;Node0x5eed972eca00 -->
<g id="edge32" class="edge">
<title>Node0x5eed971fb910&#45;&gt;Node0x5eed972eca00</title>
<path fill="none" stroke="#4a6fa5" d="M251.53,-1168.53C277.21,-1164.33 304.68,-1157.16 328,-1145 360.32,-1128.14 356.08,-1107.83 386,-1087 423.58,-1060.83 471.74,-1039.99 505.95,-1026.98"/>
<polygon fill="#4a6fa5" stroke="#4a6fa5" points="506.86,-1028.88 511.74,-1024.8 505.38,-1024.95 506.86,-1028.88"/>
</g>
<!-- Node0x5eed971fb910&#45;&gt;Node0x5eed9737e320 -->
<g id="edge31" class="edge">
<title>Node0x5eed971fb910&#45;&gt;Node0x5eed9737e320</title>
<path fill="none" stroke="#4a6fa5" d="M251.66,-1160.91C328.65,-1149.28 438.37,-1132.71 500.74,-1123.29"/>
<polygon fill="#4a6fa5" stroke="#4a6fa5" points="501.38,-1125.32 507,-1122.34 500.75,-1121.16 501.38,-1125.32"/>
</g>
<!-- Node0x5eed971fb910&#45;&gt;Node0x5eed9762bae0 -->
<g id="edge33" class="edge">
<title>Node0x5eed971fb910&#45;&gt;Node0x5eed9762bae0</title>
<path fill="none" stroke="#4a6fa5" d="M251.73,-1175.04C278.73,-1171.34 306.92,-1162.81 328,-1145 386.42,-1095.64 327.58,-1032.36 386,-983 417.55,-956.35 465.03,-950.48 500.62,-950.46"/>
<polygon fill="#4a6fa5" stroke="#4a6fa5" points="500.66,-952.56 506.68,-950.51 500.69,-948.36 500.66,-952.56"/>
</g>
<!-- Node0x5eed971fb910&#45;&gt;Node0x5eed971ec740 -->
<g id="edge34" class="edge">
<title>Node0x5eed971fb910&#45;&gt;Node0x5eed971ec740</title>
<path fill="none" stroke="#4a6fa5" d="M251.66,-1174C332.07,-1174 448.18,-1174 508.77,-1174"/>
<polygon fill="#4a6fa5" stroke="#4a6fa5" points="508.81,-1176.1 514.81,-1174 508.81,-1171.9 508.81,-1176.1"/>
</g>
<!-- Node0x5eed971fbe10 -->
<g id="node21" class="node">
<title>Node0x5eed971fbe10</title>
<path fill="#f0f4ff" stroke="black" d="M260.5,-1874C260.5,-1874 67.5,-1874 67.5,-1874 61.5,-1874 55.5,-1868 55.5,-1862 55.5,-1862 55.5,-1850 55.5,-1850 55.5,-1844 61.5,-1838 67.5,-1838 67.5,-1838 260.5,-1838 260.5,-1838 266.5,-1838 272.5,-1844 272.5,-1850 272.5,-1850 272.5,-1862 272.5,-1862 272.5,-1868 266.5,-1874 260.5,-1874"/>
<text text-anchor="middle" x="164" y="-1853.8" font-family="Courier,monospace" font-size="9.00">RunHeuristic_H125_TransformSmoothness()</text>
</g>
<!-- Node0x5eed971fbe10&#45;&gt;Node0x5eed972eca00 -->
<g id="edge35" class="edge">
<title>Node0x5eed971fbe10&#45;&gt;Node0x5eed972eca00</title>
<path fill="none" stroke="#4a6fa5" d="M182.31,-1837.88C216.88,-1800.48 294.02,-1710.52 328,-1619 369.4,-1507.51 316.51,-1183.51 386,-1087 414.16,-1047.89 467.82,-1028.66 505.88,-1019.56"/>
<polygon fill="#4a6fa5" stroke="#4a6fa5" points="506.47,-1021.58 511.84,-1018.19 505.52,-1017.49 506.47,-1021.58"/>
</g>
<!-- Node0x5eed971fbe10&#45;&gt;Node0x5eed9737e320 -->
<g id="edge45" class="edge">
<title>Node0x5eed971fbe10&#45;&gt;Node0x5eed9737e320</title>
<path fill="none" stroke="#4a6fa5" d="M182.21,-1837.84C216.59,-1800.37 293.42,-1710.3 328,-1619 365.59,-1519.76 313.03,-1222.05 386,-1145 414.87,-1114.52 463.85,-1109.38 500.6,-1110.59"/>
<polygon fill="#4a6fa5" stroke="#4a6fa5" points="500.76,-1112.7 506.85,-1110.86 500.95,-1108.5 500.76,-1112.7"/>
</g>
<!-- Node0x5eed971fbe10&#45;&gt;Node0x5eed9762bae0 -->
<g id="edge41" class="edge">
<title>Node0x5eed971fbe10&#45;&gt;Node0x5eed9762bae0</title>
<path fill="none" stroke="#4a6fa5" d="M182.45,-1837.93C217.26,-1800.62 294.83,-1710.82 328,-1619 376.22,-1485.52 290.01,-1087.53 386,-983 414.49,-951.98 463.76,-946.97 500.7,-948.36"/>
<polygon fill="#4a6fa5" stroke="#4a6fa5" points="500.88,-950.47 506.98,-948.66 501.08,-946.27 500.88,-950.47"/>
</g>
<!-- Node0x5eed971fbe10&#45;&gt;Node0x5eed971ec740 -->
<g id="edge43" class="edge">
<title>Node0x5eed971fbe10&#45;&gt;Node0x5eed971ec740</title>
<path fill="none" stroke="#4a6fa5" d="M181.54,-1837.97C215.02,-1800.36 290.81,-1709.54 328,-1619 383.59,-1483.68 308.95,-1419.36 386,-1295 415.54,-1247.31 471.36,-1212.15 509.36,-1192.37"/>
<polygon fill="#4a6fa5" stroke="#4a6fa5" points="510.45,-1194.17 514.84,-1189.56 508.54,-1190.43 510.45,-1194.17"/>
</g>
<!-- Node0x5eed978506b0 -->
<g id="node22" class="node">
<title>Node0x5eed978506b0</title>
<path fill="#f0f4ff" stroke="black" d="M699,-1978C699,-1978 401,-1978 401,-1978 395,-1978 389,-1972 389,-1966 389,-1966 389,-1954 389,-1954 389,-1948 395,-1942 401,-1942 401,-1942 699,-1942 699,-1942 705,-1942 711,-1948 711,-1954 711,-1954 711,-1966 711,-1966 711,-1972 705,-1978 699,-1978"/>
<text text-anchor="middle" x="550" y="-1957.8" font-family="Courier,monospace" font-size="9.00">CIccMBB* FindAndCast&lt;CIccMBB&gt;(CIccProfile*, icTagSignature)</text>
</g>
<!-- Node0x5eed971fbe10&#45;&gt;Node0x5eed978506b0 -->
<g id="edge36" class="edge">
<title>Node0x5eed971fbe10&#45;&gt;Node0x5eed978506b0</title>
<path fill="none" stroke="#4a6fa5" d="M218.19,-1874.11C262.71,-1888.9 328.08,-1909.77 386,-1925 407.11,-1930.55 429.93,-1935.87 451.61,-1940.61"/>
<polygon fill="#4a6fa5" stroke="#4a6fa5" points="451.39,-1942.71 457.7,-1941.93 452.28,-1938.6 451.39,-1942.71"/>
</g>
<!-- Node0x5eed971fcf10 -->
<g id="node23" class="node">
<title>Node0x5eed971fcf10</title>
<path fill="#f0f4ff" stroke="black" d="M591.5,-1874C591.5,-1874 508.5,-1874 508.5,-1874 502.5,-1874 496.5,-1868 496.5,-1862 496.5,-1862 496.5,-1850 496.5,-1850 496.5,-1844 502.5,-1838 508.5,-1838 508.5,-1838 591.5,-1838 591.5,-1838 597.5,-1838 603.5,-1844 603.5,-1850 603.5,-1850 603.5,-1862 603.5,-1862 603.5,-1868 597.5,-1874 591.5,-1874"/>
<text text-anchor="middle" x="550" y="-1853.8" font-family="Courier,monospace" font-size="9.00">CIccMBB::GetCLUT()</text>
</g>
<!-- Node0x5eed971fbe10&#45;&gt;Node0x5eed971fcf10 -->
<g id="edge37" class="edge">
<title>Node0x5eed971fbe10&#45;&gt;Node0x5eed971fcf10</title>
<path fill="none" stroke="#4a6fa5" d="M272.73,-1856C343.16,-1856 432.45,-1856 490.14,-1856"/>
<polygon fill="#4a6fa5" stroke="#4a6fa5" points="490.32,-1858.1 496.32,-1856 490.32,-1853.9 490.32,-1858.1"/>
</g>
<!-- Node0x5eed971fccc0 -->
<g id="node24" class="node">
<title>Node0x5eed971fccc0</title>
<path fill="#f0f4ff" stroke="black" d="M602,-2152C602,-2152 498,-2152 498,-2152 492,-2152 486,-2146 486,-2140 486,-2140 486,-2128 486,-2128 486,-2122 492,-2116 498,-2116 498,-2116 602,-2116 602,-2116 608,-2116 614,-2122 614,-2128 614,-2128 614,-2140 614,-2140 614,-2146 608,-2152 602,-2152"/>
<text text-anchor="middle" x="550" y="-2131.8" font-family="Courier,monospace" font-size="9.00">CIccCLUT::GridPoints()</text>
</g>
<!-- Node0x5eed971fbe10&#45;&gt;Node0x5eed971fccc0 -->
<g id="edge38" class="edge">
<title>Node0x5eed971fbe10&#45;&gt;Node0x5eed971fccc0</title>
<path fill="none" stroke="#4a6fa5" d="M175.11,-1874.13C202.32,-1921.04 282.11,-2046.82 386,-2105 414.33,-2120.87 449.4,-2128.38 479.74,-2131.82"/>
<polygon fill="#4a6fa5" stroke="#4a6fa5" points="479.56,-2133.91 485.74,-2132.45 480,-2129.73 479.56,-2133.91"/>
</g>
<!-- Node0x5eed971fc3d0 -->
<g id="node25" class="node">
<title>Node0x5eed971fc3d0</title>
<path fill="#f0f4ff" stroke="black" d="M607.5,-1816C607.5,-1816 492.5,-1816 492.5,-1816 486.5,-1816 480.5,-1810 480.5,-1804 480.5,-1804 480.5,-1792 480.5,-1792 480.5,-1786 486.5,-1780 492.5,-1780 492.5,-1780 607.5,-1780 607.5,-1780 613.5,-1780 619.5,-1786 619.5,-1792 619.5,-1792 619.5,-1804 619.5,-1804 619.5,-1810 613.5,-1816 607.5,-1816"/>
<text text-anchor="middle" x="550" y="-1795.8" font-family="Courier,monospace" font-size="9.00">CIccMBB::InputChannels()</text>
</g>
<!-- Node0x5eed971fbe10&#45;&gt;Node0x5eed971fc3d0 -->
<g id="edge39" class="edge">
<title>Node0x5eed971fbe10&#45;&gt;Node0x5eed971fc3d0</title>
<path fill="none" stroke="#4a6fa5" d="M272.73,-1839.73C336.95,-1830.03 416.85,-1817.96 474.19,-1809.3"/>
<polygon fill="#4a6fa5" stroke="#4a6fa5" points="474.74,-1811.34 480.36,-1808.37 474.11,-1807.19 474.74,-1811.34"/>
</g>
<!-- Node0x5eed97850c30 -->
<g id="node26" class="node">
<title>Node0x5eed97850c30</title>
<path fill="#f0f4ff" stroke="black" d="M610,-2094C610,-2094 490,-2094 490,-2094 484,-2094 478,-2088 478,-2082 478,-2082 478,-2070 478,-2070 478,-2064 484,-2058 490,-2058 490,-2058 610,-2058 610,-2058 616,-2058 622,-2064 622,-2070 622,-2070 622,-2082 622,-2082 622,-2088 616,-2094 610,-2094"/>
<text text-anchor="middle" x="550" y="-2073.8" font-family="Courier,monospace" font-size="9.00">CIccMBB::OutputChannels()</text>
</g>
<!-- Node0x5eed971fbe10&#45;&gt;Node0x5eed97850c30 -->
<g id="edge40" class="edge">
<title>Node0x5eed971fbe10&#45;&gt;Node0x5eed97850c30</title>
<path fill="none" stroke="#4a6fa5" d="M179.68,-1874.03C212.3,-1912.72 295.11,-2003.72 386,-2047 412.42,-2059.58 443.6,-2066.74 471.58,-2070.8"/>
<polygon fill="#4a6fa5" stroke="#4a6fa5" points="471.64,-2072.93 477.87,-2071.67 472.22,-2068.77 471.64,-2072.93"/>
</g>
<!-- Node0x5eed978511b0 -->
<g id="node27" class="node">
<title>Node0x5eed978511b0</title>
<path fill="#f0f4ff" stroke="black" d="M594,-2036C594,-2036 506,-2036 506,-2036 500,-2036 494,-2030 494,-2024 494,-2024 494,-2012 494,-2012 494,-2006 500,-2000 506,-2000 506,-2000 594,-2000 594,-2000 600,-2000 606,-2006 606,-2012 606,-2012 606,-2024 606,-2024 606,-2030 600,-2036 594,-2036"/>
<text text-anchor="middle" x="550" y="-2015.8" font-family="Courier,monospace" font-size="9.00">CIccCLUT::GetData()</text>
</g>
<!-- Node0x5eed971fbe10&#45;&gt;Node0x5eed978511b0 -->
<g id="edge42" class="edge">
<title>Node0x5eed971fbe10&#45;&gt;Node0x5eed978511b0</title>
<path fill="none" stroke="#4a6fa5" d="M188.36,-1874.07C227.13,-1903.1 308.23,-1959.82 386,-1989 418.42,-2001.16 456.42,-2008.3 487.58,-2012.45"/>
<polygon fill="#4a6fa5" stroke="#4a6fa5" points="487.49,-2014.56 493.71,-2013.24 488.03,-2010.39 487.49,-2014.56"/>
</g>
<!-- Node0x5eed971fca00 -->
<g id="node28" class="node">
<title>Node0x5eed971fca00</title>
<path fill="#f0f4ff" stroke="black" d="M565,-2210C565,-2210 535,-2210 535,-2210 529,-2210 523,-2204 523,-2198 523,-2198 523,-2186 523,-2186 523,-2180 529,-2174 535,-2174 535,-2174 565,-2174 565,-2174 571,-2174 577,-2180 577,-2186 577,-2186 577,-2198 577,-2198 577,-2204 571,-2210 565,-2210"/>
<text text-anchor="middle" x="550" y="-2189.8" font-family="Courier,monospace" font-size="9.00">sqrt</text>
</g>
<!-- Node0x5eed971fbe10&#45;&gt;Node0x5eed971fca00 -->
<g id="edge44" class="edge">
<title>Node0x5eed971fbe10&#45;&gt;Node0x5eed971fca00</title>
<path fill="none" stroke="#4a6fa5" d="M172.21,-1874.28C194.63,-1928.51 268.71,-2089.22 386,-2163 425.97,-2188.14 481.76,-2192.96 516.61,-2193.18"/>
<polygon fill="#4a6fa5" stroke="#4a6fa5" points="516.87,-2195.28 522.87,-2193.17 516.86,-2191.08 516.87,-2195.28"/>
</g>
<!-- Node0x5eed978506b0&#45;&gt;Node0x5eed97836f90 -->
<g id="edge46" class="edge">
<title>Node0x5eed978506b0&#45;&gt;Node0x5eed97836f90</title>
<path fill="none" stroke="#4a6fa5" d="M679.17,-1941.91C691.44,-1937.43 703.29,-1931.88 714,-1925 780.99,-1881.96 828.01,-1796.27 847.89,-1754.71"/>
<polygon fill="#4a6fa5" stroke="#4a6fa5" points="849.86,-1755.47 850.52,-1749.15 846.06,-1753.67 849.86,-1755.47"/>
</g>
<!-- Node0x5eed978506b0&#45;&gt;Node0x5eed972593c0 -->
<g id="edge47" class="edge">
<title>Node0x5eed978506b0&#45;&gt;Node0x5eed972593c0</title>
<path fill="none" stroke="#4a6fa5" d="M621.24,-1941.99C653.45,-1930.49 689.78,-1912.44 714,-1885 770.47,-1821.04 731.07,-1776.86 772,-1702 788.97,-1670.97 815.91,-1640.45 835.22,-1620.59"/>
<polygon fill="#4a6fa5" stroke="#4a6fa5" points="836.75,-1622.02 839.46,-1616.27 833.76,-1619.08 836.75,-1622.02"/>
</g>
<!-- Node0x5eed971fd190 -->
<g id="node29" class="node">
<title>Node0x5eed971fd190</title>
<path fill="#f0f4ff" stroke="black" d="M255.5,-612C255.5,-612 72.5,-612 72.5,-612 66.5,-612 60.5,-606 60.5,-600 60.5,-600 60.5,-588 60.5,-588 60.5,-582 66.5,-576 72.5,-576 72.5,-576 255.5,-576 255.5,-576 261.5,-576 267.5,-582 267.5,-588 267.5,-588 267.5,-600 267.5,-600 267.5,-606 261.5,-612 255.5,-612"/>
<text text-anchor="middle" x="164" y="-591.8" font-family="Courier,monospace" font-size="9.00">RunHeuristic_H126_PrivateTagMalware()</text>
</g>
<!-- Node0x5eed971fd190&#45;&gt;Node0x5eed972eca00 -->
<g id="edge50" class="edge">
<title>Node0x5eed971fd190&#45;&gt;Node0x5eed972eca00</title>
<path fill="none" stroke="#4a6fa5" d="M267.75,-593.12C290.18,-597.74 311.97,-606.71 328,-623 441.66,-738.53 272.34,-867.47 386,-983 416.68,-1014.18 468.49,-1018.54 505.47,-1016.94"/>
<polygon fill="#4a6fa5" stroke="#4a6fa5" points="505.85,-1019.03 511.73,-1016.61 505.62,-1014.83 505.85,-1019.03"/>
</g>
<!-- Node0x5eed971fd190&#45;&gt;Node0x5eed9762bae0 -->
<g id="edge51" class="edge">
<title>Node0x5eed971fd190&#45;&gt;Node0x5eed9762bae0</title>
<path fill="none" stroke="#4a6fa5" d="M267.83,-593.55C290.12,-598.19 311.83,-607.05 328,-623 425.3,-718.98 288.7,-829.02 386,-925 415.79,-954.38 464.41,-959.73 500.81,-958.87"/>
<polygon fill="#4a6fa5" stroke="#4a6fa5" points="501.07,-960.96 507,-958.66 500.93,-956.76 501.07,-960.96"/>
</g>
<!-- Node0x5eed971fd190&#45;&gt;Node0x5eed9784c930 -->
<g id="edge52" class="edge">
<title>Node0x5eed971fd190&#45;&gt;Node0x5eed9784c930</title>
<path fill="none" stroke="#4a6fa5" d="M267.88,-588.31C288.94,-583.78 310.11,-576.5 328,-565 366.16,-540.47 348.28,-506.2 386,-481 421.57,-457.23 470.4,-449.24 505.32,-446.74"/>
<polygon fill="#4a6fa5" stroke="#4a6fa5" points="505.82,-448.81 511.68,-446.33 505.55,-444.62 505.82,-448.81"/>
</g>
<!-- Node0x5eed971fefc0 -->
<g id="node30" class="node">
<title>Node0x5eed971fefc0</title>
<path fill="#f0f4ff" stroke="black" d="M578.5,-614C578.5,-614 521.5,-614 521.5,-614 515.5,-614 509.5,-608 509.5,-602 509.5,-602 509.5,-590 509.5,-590 509.5,-584 515.5,-578 521.5,-578 521.5,-578 578.5,-578 578.5,-578 584.5,-578 590.5,-584 590.5,-590 590.5,-590 590.5,-602 590.5,-602 590.5,-608 584.5,-614 578.5,-614"/>
<text text-anchor="middle" x="550" y="-593.8" font-family="Courier,monospace" font-size="9.00">OpenRawFile()</text>
</g>
<!-- Node0x5eed971fd190&#45;&gt;Node0x5eed971fefc0 -->
<g id="edge48" class="edge">
<title>Node0x5eed971fd190&#45;&gt;Node0x5eed971fefc0</title>
<path fill="none" stroke="#4a6fa5" d="M267.65,-594.53C344.18,-594.93 445.07,-595.46 502.92,-595.76"/>
<polygon fill="#4a6fa5" stroke="#4a6fa5" points="503.05,-597.86 509.06,-595.79 503.08,-593.66 503.05,-597.86"/>
</g>
<!-- Node0x5eed971ffd10 -->
<g id="node31" class="node">
<title>Node0x5eed971ffd10</title>
<path fill="#f0f4ff" stroke="black" d="M935,-666C935,-666 784,-666 784,-666 778,-666 772,-660 772,-654 772,-654 772,-642 772,-642 772,-636 778,-630 784,-630 784,-630 935,-630 935,-630 941,-630 947,-636 947,-642 947,-642 947,-654 947,-654 947,-660 941,-666 935,-666"/>
<text text-anchor="middle" x="859.5" y="-645.8" font-family="Courier,monospace" font-size="9.00">RawFileHandle::~RawFileHandle()</text>
</g>
<!-- Node0x5eed971fd190&#45;&gt;Node0x5eed971ffd10 -->
<g id="edge49" class="edge">
<title>Node0x5eed971fd190&#45;&gt;Node0x5eed971ffd10</title>
<path fill="none" stroke="#4a6fa5" d="M267.73,-593.27C289.77,-588.63 311.39,-580.05 328,-565 398.48,-501.13 310.18,-416.42 386,-359 444.11,-314.99 657.13,-313.41 714,-359 806.38,-433.05 692.75,-531.04 772,-619 774.39,-621.65 777.02,-624.05 779.84,-626.24"/>
<polygon fill="#4a6fa5" stroke="#4a6fa5" points="778.99,-628.21 785.11,-629.94 781.41,-624.77 778.99,-628.21"/>
</g>
<!-- Node0x5eed972002d0 -->
<g id="node32" class="node">
<title>Node0x5eed972002d0</title>
<path fill="#f0f4ff" stroke="black" d="M583.5,-764C583.5,-764 516.5,-764 516.5,-764 510.5,-764 504.5,-758 504.5,-752 504.5,-752 504.5,-740 504.5,-740 504.5,-734 510.5,-728 516.5,-728 516.5,-728 583.5,-728 583.5,-728 589.5,-728 595.5,-734 595.5,-740 595.5,-740 595.5,-752 595.5,-752 595.5,-758 589.5,-764 583.5,-764"/>
<text text-anchor="middle" x="550" y="-743.8" font-family="Courier,monospace" font-size="9.00">ColorCritical()</text>
</g>
<!-- Node0x5eed971fd190&#45;&gt;Node0x5eed972002d0 -->
<g id="edge53" class="edge">
<title>Node0x5eed971fd190&#45;&gt;Node0x5eed972002d0</title>
<path fill="none" stroke="#4a6fa5" d="M267.65,-606.91C287.97,-610.95 308.91,-616.2 328,-623 400.2,-648.7 476.68,-696.53 518.04,-724.37"/>
<polygon fill="#4a6fa5" stroke="#4a6fa5" points="517,-726.2 523.15,-727.83 519.36,-722.73 517,-726.2"/>
</g>
<!-- Node0x5eed971fefc0&#45;&gt;Node0x5eed971ffd10 -->
<g id="edge55" class="edge">
<title>Node0x5eed971fefc0&#45;&gt;Node0x5eed971ffd10</title>
<path fill="none" stroke="#4a6fa5" d="M590.57,-602.69C634.64,-610.14 707.37,-622.44 765.95,-632.35"/>
<polygon fill="#4a6fa5" stroke="#4a6fa5" points="765.67,-634.43 771.93,-633.36 766.37,-630.29 765.67,-634.43"/>
</g>
<!-- Node0x5eed971fff20 -->
<g id="node33" class="node">
<title>Node0x5eed971fff20</title>
<path fill="#f0f4ff" stroke="black" d="M932.5,-608C932.5,-608 786.5,-608 786.5,-608 780.5,-608 774.5,-602 774.5,-596 774.5,-596 774.5,-584 774.5,-584 774.5,-578 780.5,-572 786.5,-572 786.5,-572 932.5,-572 932.5,-572 938.5,-572 944.5,-578 944.5,-584 944.5,-584 944.5,-596 944.5,-596 944.5,-602 938.5,-608 932.5,-608"/>
<text text-anchor="middle" x="859.5" y="-587.8" font-family="Courier,monospace" font-size="9.00">RawFileHandle::RawFileHandle()</text>
</g>
<!-- Node0x5eed971fefc0&#45;&gt;Node0x5eed971fff20 -->
<g id="edge54" class="edge">
<title>Node0x5eed971fefc0&#45;&gt;Node0x5eed971fff20</title>
<path fill="none" stroke="#4a6fa5" d="M590.57,-595.23C635.27,-594.36 709.45,-592.91 768.44,-591.76"/>
<polygon fill="#4a6fa5" stroke="#4a6fa5" points="768.51,-593.86 774.46,-591.64 768.42,-589.66 768.51,-593.86"/>
</g>
<!-- Node0x5eed972002d0&#45;&gt;Node0x5eed97734350 -->
<g id="edge56" class="edge">
<title>Node0x5eed972002d0&#45;&gt;Node0x5eed97734350</title>
<path fill="none" stroke="#4a6fa5" d="M577.9,-764.13C611,-786.84 668.41,-827.59 714,-867 760.7,-907.37 810.56,-959.72 837.78,-989.2"/>
<polygon fill="#4a6fa5" stroke="#4a6fa5" points="836.34,-990.74 841.95,-993.73 839.43,-987.89 836.34,-990.74"/>
</g>
<!-- Node0x5eed97855a00 -->
<g id="node34" class="node">
<title>Node0x5eed97855a00</title>
<path fill="#f0f4ff" stroke="black" d="M258,-1076C258,-1076 70,-1076 70,-1076 64,-1076 58,-1070 58,-1064 58,-1064 58,-1052 58,-1052 58,-1046 64,-1040 70,-1040 70,-1040 258,-1040 258,-1040 264,-1040 270,-1046 270,-1052 270,-1052 270,-1064 270,-1064 270,-1070 264,-1076 258,-1076"/>
<text text-anchor="middle" x="164" y="-1055.8" font-family="Courier,monospace" font-size="9.00">RunHeuristic_H127_PrivateTagRegistry()</text>
</g>
<!-- Node0x5eed97855a00&#45;&gt;Node0x5eed972eca00 -->
<g id="edge57" class="edge">
<title>Node0x5eed97855a00&#45;&gt;Node0x5eed972eca00</title>
<path fill="none" stroke="#4a6fa5" d="M270.18,-1045.4C347.74,-1036.11 449.23,-1023.95 505.91,-1017.16"/>
<polygon fill="#4a6fa5" stroke="#4a6fa5" points="506.22,-1019.24 511.93,-1016.44 505.72,-1015.07 506.22,-1019.24"/>
</g>
<!-- Node0x5eed97855a00&#45;&gt;Node0x5eed9737e320 -->
<g id="edge59" class="edge">
<title>Node0x5eed97855a00&#45;&gt;Node0x5eed9737e320</title>
<path fill="none" stroke="#4a6fa5" d="M270.18,-1073.89C345.38,-1085.25 443.09,-1100 500.62,-1108.69"/>
<polygon fill="#4a6fa5" stroke="#4a6fa5" points="500.5,-1110.8 506.75,-1109.62 501.13,-1106.65 500.5,-1110.8"/>
</g>
<!-- Node0x5eed97855a00&#45;&gt;Node0x5eed9762bae0 -->
<g id="edge58" class="edge">
<title>Node0x5eed97855a00&#45;&gt;Node0x5eed9762bae0</title>
<path fill="none" stroke="#4a6fa5" d="M270.34,-1047.13C290.03,-1042.92 310.05,-1037.09 328,-1029 358,-1015.49 356,-996.51 386,-983 422.39,-966.61 467.26,-959.46 500.7,-956.36"/>
<polygon fill="#4a6fa5" stroke="#4a6fa5" points="501.02,-958.44 506.81,-955.83 500.65,-954.26 501.02,-958.44"/>
</g>
<!-- Node0x5eed97201690 -->
<g id="node35" class="node">
<title>Node0x5eed97201690</title>
<path fill="#f0f4ff" stroke="black" d="M237,-728C237,-728 91,-728 91,-728 85,-728 79,-722 79,-716 79,-716 79,-704 79,-704 79,-698 85,-692 91,-692 91,-692 237,-692 237,-692 243,-692 249,-698 249,-704 249,-704 249,-716 249,-716 249,-722 243,-728 237,-728"/>
<text text-anchor="middle" x="164" y="-707.8" font-family="Courier,monospace" font-size="9.00">RunHeuristic_H128_VersionBCD()</text>
</g>
<!-- Node0x5eed97201690&#45;&gt;Node0x5eed972eca00 -->
<g id="edge62" class="edge">
<title>Node0x5eed97201690&#45;&gt;Node0x5eed972eca00</title>
<path fill="none" stroke="#4a6fa5" d="M249.11,-707.15C277.36,-710.44 307,-719.17 328,-739 409.04,-815.53 304.96,-906.47 386,-983 417.71,-1012.94 469.09,-1017.58 505.68,-1016.39"/>
<polygon fill="#4a6fa5" stroke="#4a6fa5" points="505.97,-1018.48 511.88,-1016.13 505.79,-1014.28 505.97,-1018.48"/>
</g>
<!-- Node0x5eed97201690&#45;&gt;Node0x5eed9737e320 -->
<g id="edge65" class="edge">
<title>Node0x5eed97201690&#45;&gt;Node0x5eed9737e320</title>
<path fill="none" stroke="#4a6fa5" d="M249.18,-706.6C277.6,-709.8 307.33,-718.61 328,-739 425.3,-834.98 301.7,-933.42 386,-1041 414.27,-1077.08 463.88,-1096.46 500.97,-1106.42"/>
<polygon fill="#4a6fa5" stroke="#4a6fa5" points="500.48,-1108.46 506.81,-1107.94 501.53,-1104.39 500.48,-1108.46"/>
</g>
<!-- Node0x5eed97201690&#45;&gt;Node0x5eed9762bae0 -->
<g id="edge64" class="edge">
<title>Node0x5eed97201690&#45;&gt;Node0x5eed9762bae0</title>
<path fill="none" stroke="#4a6fa5" d="M249.21,-708.06C277.14,-711.5 306.54,-720.09 328,-739 392.97,-796.25 321.03,-867.75 386,-925 417.09,-952.39 464.85,-958.13 500.65,-957.92"/>
<polygon fill="#4a6fa5" stroke="#4a6fa5" points="500.77,-960.01 506.74,-957.82 500.71,-955.82 500.77,-960.01"/>
</g>
<!-- Node0x5eed97201690&#45;&gt;Node0x5eed971fefc0 -->
<g id="edge60" class="edge">
<title>Node0x5eed97201690&#45;&gt;Node0x5eed971fefc0</title>
<path fill="none" stroke="#4a6fa5" d="M249.31,-703.73C275.44,-699.52 303.73,-692.54 328,-681 358.74,-666.39 355.53,-646.15 386,-631 422.96,-612.62 469.33,-603.86 503.15,-599.7"/>
<polygon fill="#4a6fa5" stroke="#4a6fa5" points="503.61,-601.76 509.32,-598.97 503.12,-597.59 503.61,-601.76"/>
</g>
<!-- Node0x5eed97201690&#45;&gt;Node0x5eed971ffd10 -->
<g id="edge63" class="edge">
<title>Node0x5eed97201690&#45;&gt;Node0x5eed971ffd10</title>
<path fill="none" stroke="#4a6fa5" d="M249.19,-709.61C276.48,-705.88 305.49,-697.69 328,-681 373.66,-647.14 337.54,-596.72 386,-567 448.14,-528.9 645.92,-540.95 714,-567 746.33,-579.37 742.08,-601.58 772,-619 777.45,-622.17 783.3,-625.06 789.28,-627.67"/>
<polygon fill="#4a6fa5" stroke="#4a6fa5" points="788.47,-629.61 794.82,-630 790.1,-625.74 788.47,-629.61"/>
</g>
<!-- Node0x5eed97201690&#45;&gt;Node0x5eed972002d0 -->
<g id="edge61" class="edge">
<title>Node0x5eed97201690&#45;&gt;Node0x5eed972002d0</title>
<path fill="none" stroke="#4a6fa5" d="M249.27,-717.9C325.41,-725.04 434.97,-735.31 498.38,-741.25"/>
<polygon fill="#4a6fa5" stroke="#4a6fa5" points="498.2,-743.35 504.37,-741.82 498.59,-739.16 498.2,-743.35"/>
</g>
<!-- Node0x5eed97853080 -->
<g id="node36" class="node">
<title>Node0x5eed97853080</title>
<path fill="#f0f4ff" stroke="black" d="M253,-1018C253,-1018 75,-1018 75,-1018 69,-1018 63,-1012 63,-1006 63,-1006 63,-994 63,-994 63,-988 69,-982 75,-982 75,-982 253,-982 253,-982 259,-982 265,-988 265,-994 265,-994 265,-1006 265,-1006 265,-1012 259,-1018 253,-1018"/>
<text text-anchor="middle" x="164" y="-997.8" font-family="Courier,monospace" font-size="9.00">RunHeuristic_H129_PCSIlluminantD50()</text>
</g>
<!-- Node0x5eed97853080&#45;&gt;Node0x5eed972eca00 -->
<g id="edge68" class="edge">
<title>Node0x5eed97853080&#45;&gt;Node0x5eed972eca00</title>
<path fill="none" stroke="#4a6fa5" d="M265.14,-1003.13C343.18,-1005.57 447.72,-1008.84 505.69,-1010.65"/>
<polygon fill="#4a6fa5" stroke="#4a6fa5" points="505.77,-1012.75 511.83,-1010.84 505.9,-1008.55 505.77,-1012.75"/>
</g>
<!-- Node0x5eed97853080&#45;&gt;Node0x5eed9737e320 -->
<g id="edge71" class="edge">
<title>Node0x5eed97853080&#45;&gt;Node0x5eed9737e320</title>
<path fill="none" stroke="#4a6fa5" d="M265.17,-1008.83C286.61,-1013.16 308.62,-1019.56 328,-1029 359.12,-1044.17 355.15,-1065.28 386,-1081 421.93,-1099.31 467.03,-1108.05 500.68,-1112.22"/>
<polygon fill="#4a6fa5" stroke="#4a6fa5" points="500.62,-1114.33 506.83,-1112.95 501.11,-1110.16 500.62,-1114.33"/>
</g>
<!-- Node0x5eed97853080&#45;&gt;Node0x5eed9762bae0 -->
<g id="edge70" class="edge">
<title>Node0x5eed97853080&#45;&gt;Node0x5eed9762bae0</title>
<path fill="none" stroke="#4a6fa5" d="M265.14,-988C340.83,-978.94 441.43,-966.89 500.31,-959.83"/>
<polygon fill="#4a6fa5" stroke="#4a6fa5" points="500.86,-961.88 506.57,-959.08 500.36,-957.71 500.86,-961.88"/>
</g>
<!-- Node0x5eed97853080&#45;&gt;Node0x5eed971ec740 -->
<g id="edge72" class="edge">
<title>Node0x5eed97853080&#45;&gt;Node0x5eed971ec740</title>
<path fill="none" stroke="#4a6fa5" d="M265.35,-1003.02C287.61,-1007.55 309.92,-1015.5 328,-1029 374.18,-1063.5 339.82,-1110.5 386,-1145 421.48,-1171.51 473.3,-1176.61 508.94,-1176.47"/>
<polygon fill="#4a6fa5" stroke="#4a6fa5" points="508.98,-1178.57 514.96,-1176.4 508.93,-1174.37 508.98,-1178.57"/>
</g>
<!-- Node0x5eed97853080&#45;&gt;Node0x5eed971fefc0 -->
<g id="edge66" class="edge">
<title>Node0x5eed97853080&#45;&gt;Node0x5eed971fefc0</title>
<path fill="none" stroke="#4a6fa5" d="M265.32,-1000.47C288.36,-995.97 311.04,-987.16 328,-971 411.84,-891.13 322.7,-813.96 386,-717 415.47,-671.85 467.93,-637.46 505.37,-617.08"/>
<polygon fill="#4a6fa5" stroke="#4a6fa5" points="506.49,-618.87 510.78,-614.18 504.5,-615.17 506.49,-618.87"/>
</g>
<!-- Node0x5eed97853080&#45;&gt;Node0x5eed971ffd10 -->
<g id="edge69" class="edge">
<title>Node0x5eed97853080&#45;&gt;Node0x5eed971ffd10</title>
<path fill="none" stroke="#4a6fa5" d="M265.08,-1017.35C285.89,-1021.09 307.68,-1025.09 328,-1029 353.85,-1033.97 359.81,-1038.32 386,-1041 531.02,-1055.84 594.45,-1124.42 714,-1041 777.78,-996.49 835.9,-751.81 853.26,-672.69"/>
<polygon fill="#4a6fa5" stroke="#4a6fa5" points="855.4,-672.72 854.62,-666.41 851.29,-671.83 855.4,-672.72"/>
</g>
<!-- Node0x5eed97853080&#45;&gt;Node0x5eed972002d0 -->
<g id="edge67" class="edge">
<title>Node0x5eed97853080&#45;&gt;Node0x5eed972002d0</title>
<path fill="none" stroke="#4a6fa5" d="M265.34,-996.3C287.48,-991.78 309.74,-984.01 328,-971 371.1,-940.29 351.08,-906.77 386,-867 422.64,-825.27 475.93,-789.07 511.49,-767.4"/>
<polygon fill="#4a6fa5" stroke="#4a6fa5" points="512.99,-768.95 517.04,-764.05 510.82,-765.35 512.99,-768.95"/>
</g>
<!-- Node0x5eed97857170 -->
<g id="node37" class="node">
<title>Node0x5eed97857170</title>
<path fill="#f0f4ff" stroke="black" d="M242.5,-902C242.5,-902 85.5,-902 85.5,-902 79.5,-902 73.5,-896 73.5,-890 73.5,-890 73.5,-878 73.5,-878 73.5,-872 79.5,-866 85.5,-866 85.5,-866 242.5,-866 242.5,-866 248.5,-866 254.5,-872 254.5,-878 254.5,-878 254.5,-890 254.5,-890 254.5,-896 248.5,-902 242.5,-902"/>
<text text-anchor="middle" x="164" y="-881.8" font-family="Courier,monospace" font-size="9.00">RunHeuristic_H130_TagAlignment()</text>
</g>
<!-- Node0x5eed97857170&#45;&gt;Node0x5eed972eca00 -->
<g id="edge75" class="edge">
<title>Node0x5eed97857170&#45;&gt;Node0x5eed972eca00</title>
<path fill="none" stroke="#4a6fa5" d="M254.8,-888.55C279.76,-892.78 306.02,-900.2 328,-913 362.91,-933.34 351.09,-962.66 386,-983 422.59,-1004.32 471.05,-1010.7 505.6,-1012.28"/>
<polygon fill="#4a6fa5" stroke="#4a6fa5" points="505.81,-1014.39 511.89,-1012.52 505.97,-1010.19 505.81,-1014.39"/>
</g>
<!-- Node0x5eed97857170&#45;&gt;Node0x5eed9737e320 -->
<g id="edge78" class="edge">
<title>Node0x5eed97857170&#45;&gt;Node0x5eed9737e320</title>
<path fill="none" stroke="#4a6fa5" d="M254.69,-884.54C280.49,-888.55 307.23,-896.86 328,-913 377.31,-951.33 341.96,-996.71 386,-1041 417.56,-1072.74 465.04,-1092.48 500.63,-1103.69"/>
<polygon fill="#4a6fa5" stroke="#4a6fa5" points="500.33,-1105.79 506.68,-1105.55 501.56,-1101.78 500.33,-1105.79"/>
</g>
<!-- Node0x5eed97857170&#45;&gt;Node0x5eed9762bae0 -->
<g id="edge77" class="edge">
<title>Node0x5eed97857170&#45;&gt;Node0x5eed9762bae0</title>
<path fill="none" stroke="#4a6fa5" d="M254.76,-899.51C278.59,-903.75 304.29,-908.44 328,-913 353.85,-917.97 360.15,-920.03 386,-925 424.53,-932.41 468.31,-940.16 500.79,-945.79"/>
<polygon fill="#4a6fa5" stroke="#4a6fa5" points="500.45,-947.86 506.72,-946.81 501.17,-943.72 500.45,-947.86"/>
</g>
<!-- Node0x5eed97857170&#45;&gt;Node0x5eed971fefc0 -->
<g id="edge73" class="edge">
<title>Node0x5eed97857170&#45;&gt;Node0x5eed971fefc0</title>
<path fill="none" stroke="#4a6fa5" d="M254.55,-883.88C280.49,-879.9 307.35,-871.51 328,-855 379.96,-813.45 344.94,-769.35 386,-717 420,-673.65 473.25,-638.13 509.56,-617.03"/>
<polygon fill="#4a6fa5" stroke="#4a6fa5" points="510.64,-618.84 514.8,-614.03 508.55,-615.2 510.64,-618.84"/>
</g>
<!-- Node0x5eed97857170&#45;&gt;Node0x5eed971ffd10 -->
<g id="edge76" class="edge">
<title>Node0x5eed97857170&#45;&gt;Node0x5eed971ffd10</title>
<path fill="none" stroke="#4a6fa5" d="M254.91,-872.54C278.98,-868.24 304.75,-862.52 328,-855 355.23,-846.19 358.68,-835.55 386,-827 526.85,-782.89 580.41,-837.75 714,-775 766.58,-750.3 814.42,-700.54 839.68,-671.17"/>
<polygon fill="#4a6fa5" stroke="#4a6fa5" points="841.55,-672.22 843.84,-666.29 838.35,-669.5 841.55,-672.22"/>
</g>
<!-- Node0x5eed97857170&#45;&gt;Node0x5eed972002d0 -->
<g id="edge74" class="edge">
<title>Node0x5eed97857170&#45;&gt;Node0x5eed972002d0</title>
<path fill="none" stroke="#4a6fa5" d="M254.6,-879.9C279.69,-875.69 306.07,-868.18 328,-855 363.82,-833.48 350.57,-803.15 386,-781 419.73,-759.91 464.23,-751.38 498.21,-748"/>
<polygon fill="#4a6fa5" stroke="#4a6fa5" points="498.64,-750.07 504.42,-747.42 498.26,-745.88 498.64,-750.07"/>
</g>
<!-- Node0x5eed97857030 -->
<g id="node38" class="node">
<title>Node0x5eed97857030</title>
<path fill="#f0f4ff" stroke="black" d="M242.5,-960C242.5,-960 85.5,-960 85.5,-960 79.5,-960 73.5,-954 73.5,-948 73.5,-948 73.5,-936 73.5,-936 73.5,-930 79.5,-924 85.5,-924 85.5,-924 242.5,-924 242.5,-924 248.5,-924 254.5,-930 254.5,-936 254.5,-936 254.5,-948 254.5,-948 254.5,-954 248.5,-960 242.5,-960"/>
<text text-anchor="middle" x="164" y="-939.8" font-family="Courier,monospace" font-size="9.00">RunHeuristic_H131_ProfileIdMD5()</text>
</g>
<!-- Node0x5eed97857030&#45;&gt;Node0x5eed972eca00 -->
<g id="edge81" class="edge">
<title>Node0x5eed97857030&#45;&gt;Node0x5eed972eca00</title>
<path fill="none" stroke="#4a6fa5" d="M254.76,-957.51C278.59,-961.75 304.29,-966.44 328,-971 353.85,-975.97 360.15,-978.03 386,-983 426.52,-990.8 472.86,-998.97 505.74,-1004.64"/>
<polygon fill="#4a6fa5" stroke="#4a6fa5" points="505.45,-1006.72 511.72,-1005.67 506.16,-1002.58 505.45,-1006.72"/>
</g>
<!-- Node0x5eed97857030&#45;&gt;Node0x5eed9737e320 -->
<g id="edge84" class="edge">
<title>Node0x5eed97857030&#45;&gt;Node0x5eed9737e320</title>
<path fill="none" stroke="#4a6fa5" d="M254.8,-946.55C279.76,-950.78 306.02,-958.2 328,-971 362.91,-991.34 353.96,-1016.39 386,-1041 420.79,-1067.73 466.64,-1087.75 500.85,-1100.35"/>
<polygon fill="#4a6fa5" stroke="#4a6fa5" points="500.31,-1102.39 506.67,-1102.46 501.74,-1098.44 500.31,-1102.39"/>
</g>
<!-- Node0x5eed97857030&#45;&gt;Node0x5eed9762bae0 -->
<g id="edge83" class="edge">
<title>Node0x5eed97857030&#45;&gt;Node0x5eed9762bae0</title>
<path fill="none" stroke="#4a6fa5" d="M254.55,-944.8C331.36,-947.2 439.11,-950.57 500.71,-952.49"/>
<polygon fill="#4a6fa5" stroke="#4a6fa5" points="500.83,-954.6 506.89,-952.68 500.96,-950.4 500.83,-954.6"/>
</g>
<!-- Node0x5eed97857030&#45;&gt;Node0x5eed971ec740 -->
<g id="edge86" class="edge">
<title>Node0x5eed97857030&#45;&gt;Node0x5eed971ec740</title>
<path fill="none" stroke="#4a6fa5" d="M254.92,-941.11C281.02,-945.01 307.88,-953.62 328,-971 389.68,-1024.29 324.32,-1091.71 386,-1145 419.72,-1174.13 472.38,-1178.62 508.67,-1177.62"/>
<polygon fill="#4a6fa5" stroke="#4a6fa5" points="508.88,-1179.71 514.8,-1177.4 508.72,-1175.52 508.88,-1179.71"/>
</g>
<!-- Node0x5eed97857030&#45;&gt;Node0x5eed971fefc0 -->
<g id="edge79" class="edge">
<title>Node0x5eed97857030&#45;&gt;Node0x5eed971fefc0</title>
<path fill="none" stroke="#4a6fa5" d="M254.86,-943.37C281.11,-939.52 308.07,-930.82 328,-913 395.72,-852.45 333.96,-791.46 386,-717 417.17,-672.4 470.04,-637.58 507.09,-616.97"/>
<polygon fill="#4a6fa5" stroke="#4a6fa5" points="508.19,-618.76 512.44,-614.03 506.17,-615.08 508.19,-618.76"/>
</g>
<!-- Node0x5eed97857030&#45;&gt;Node0x5eed971ffd10 -->
<g id="edge82" class="edge">
<title>Node0x5eed97857030&#45;&gt;Node0x5eed971ffd10</title>
<path fill="none" stroke="#4a6fa5" d="M254.51,-934.2C279.07,-929.91 305.2,-923.27 328,-913 358,-899.49 355.82,-880.1 386,-867 521.21,-808.33 585.17,-889.61 714,-818 776.93,-783.02 824.65,-709.23 846.07,-671.42"/>
<polygon fill="#4a6fa5" stroke="#4a6fa5" points="847.95,-672.37 849.04,-666.11 844.28,-670.32 847.95,-672.37"/>
</g>
<!-- Node0x5eed97857030&#45;&gt;Node0x5eed972002d0 -->
<g id="edge80" class="edge">
<title>Node0x5eed97857030&#45;&gt;Node0x5eed972002d0</title>
<path fill="none" stroke="#4a6fa5" d="M254.8,-938.96C280.03,-934.79 306.44,-927.03 328,-913 366.64,-887.86 351.32,-857.38 386,-827 418.92,-798.17 463.92,-776.82 498.3,-763.31"/>
<polygon fill="#4a6fa5" stroke="#4a6fa5" points="499.32,-765.16 504.16,-761.04 497.81,-761.25 499.32,-765.16"/>
</g>
<!-- Node0x5eed97856ef0 -->
<g id="node39" class="node">
<title>Node0x5eed97856ef0</title>
<path fill="#f0f4ff" stroke="black" d="M583.5,-914C583.5,-914 516.5,-914 516.5,-914 510.5,-914 504.5,-908 504.5,-902 504.5,-902 504.5,-890 504.5,-890 504.5,-884 510.5,-878 516.5,-878 516.5,-878 583.5,-878 583.5,-878 589.5,-878 595.5,-884 595.5,-890 595.5,-890 595.5,-902 595.5,-902 595.5,-908 589.5,-914 583.5,-914"/>
<text text-anchor="middle" x="550" y="-893.8" font-family="Courier,monospace" font-size="9.00">CalcProfileID()</text>
</g>
<!-- Node0x5eed97857030&#45;&gt;Node0x5eed97856ef0 -->
<g id="edge85" class="edge">
<title>Node0x5eed97857030&#45;&gt;Node0x5eed97856ef0</title>
<path fill="none" stroke="#4a6fa5" d="M254.55,-931.27C330.29,-922.2 436.11,-909.52 498.11,-902.1"/>
<polygon fill="#4a6fa5" stroke="#4a6fa5" points="498.63,-904.15 504.34,-901.35 498.13,-899.98 498.63,-904.15"/>
</g>
<!-- Node0x5eed978569f0 -->
<g id="node40" class="node">
<title>Node0x5eed978569f0</title>
<path fill="#f0f4ff" stroke="black" d="M250,-1250C250,-1250 78,-1250 78,-1250 72,-1250 66,-1244 66,-1238 66,-1238 66,-1226 66,-1226 66,-1220 72,-1214 78,-1214 78,-1214 250,-1214 250,-1214 256,-1214 262,-1220 262,-1226 262,-1226 262,-1238 262,-1238 262,-1244 256,-1250 250,-1250"/>
<text text-anchor="middle" x="164" y="-1229.8" font-family="Courier,monospace" font-size="9.00">RunHeuristic_H132_ChadDeterminant()</text>
</g>
<!-- Node0x5eed978569f0&#45;&gt;Node0x5eed97836f90 -->
<g id="edge87" class="edge">
<title>Node0x5eed978569f0&#45;&gt;Node0x5eed97836f90</title>
<path fill="none" stroke="#4a6fa5" d="M182.1,-1250.12C217.01,-1286.07 300.47,-1366.79 386,-1411 520.49,-1480.53 598.53,-1405.07 714,-1503 760.4,-1542.35 739.39,-1575.63 772,-1627 791.19,-1657.23 818.21,-1688.34 836.92,-1708.56"/>
<polygon fill="#4a6fa5" stroke="#4a6fa5" points="835.39,-1710 841.01,-1712.96 838.46,-1707.14 835.39,-1710"/>
</g>
<!-- Node0x5eed978569f0&#45;&gt;Node0x5eed972eca00 -->
<g id="edge89" class="edge">
<title>Node0x5eed978569f0&#45;&gt;Node0x5eed972eca00</title>
<path fill="none" stroke="#4a6fa5" d="M262.37,-1229.57C285.61,-1225.15 309.12,-1217.11 328,-1203 374.18,-1168.5 344.59,-1127.09 386,-1087 419.64,-1054.43 469.97,-1034.25 505.79,-1023.14"/>
<polygon fill="#4a6fa5" stroke="#4a6fa5" points="506.72,-1025.05 511.86,-1021.31 505.5,-1021.04 506.72,-1025.05"/>
</g>
<!-- Node0x5eed978569f0&#45;&gt;Node0x5eed972593c0 -->
<g id="edge91" class="edge">
<title>Node0x5eed978569f0&#45;&gt;Node0x5eed972593c0</title>
<path fill="none" stroke="#4a6fa5" d="M262.22,-1216.7C380.38,-1203.59 580.48,-1199.68 714,-1295 810.56,-1363.94 844.93,-1514.85 854.95,-1573.76"/>
<polygon fill="#4a6fa5" stroke="#4a6fa5" points="852.9,-1574.25 855.95,-1579.83 857.05,-1573.57 852.9,-1574.25"/>
</g>
<!-- Node0x5eed978569f0&#45;&gt;Node0x5eed9737e320 -->
<g id="edge90" class="edge">
<title>Node0x5eed978569f0&#45;&gt;Node0x5eed9737e320</title>
<path fill="none" stroke="#4a6fa5" d="M262.14,-1224.64C284.64,-1220.28 307.87,-1213.5 328,-1203 360.32,-1186.14 353.68,-1161.86 386,-1145 421.63,-1126.42 466.95,-1119.48 500.76,-1117.02"/>
<polygon fill="#4a6fa5" stroke="#4a6fa5" points="501.08,-1119.1 506.93,-1116.6 500.81,-1114.91 501.08,-1119.1"/>
</g>
<!-- Node0x5eed978569f0&#45;&gt;Node0x5eed9762bae0 -->
<g id="edge93" class="edge">
<title>Node0x5eed978569f0&#45;&gt;Node0x5eed9762bae0</title>
<path fill="none" stroke="#4a6fa5" d="M262.4,-1232.55C286.31,-1228.21 310.14,-1219.46 328,-1203 402.36,-1134.48 311.64,-1051.52 386,-983 416.57,-954.83 464.63,-949.23 500.65,-949.7"/>
<polygon fill="#4a6fa5" stroke="#4a6fa5" points="500.73,-951.8 506.78,-949.83 500.83,-947.6 500.73,-951.8"/>
</g>
<!-- Node0x5eed978569f0&#45;&gt;Node0x5eed971ec740 -->
<g id="edge88" class="edge">
<title>Node0x5eed978569f0&#45;&gt;Node0x5eed971ec740</title>
<path fill="none" stroke="#4a6fa5" d="M262.4,-1217.29C342.15,-1205.24 450.93,-1188.81 508.85,-1180.06"/>
<polygon fill="#4a6fa5" stroke="#4a6fa5" points="509.35,-1182.11 514.97,-1179.14 508.73,-1177.96 509.35,-1182.11"/>
</g>
<!-- Node0x5eed978569f0&#45;&gt;Node0x5eed972002d0 -->
<g id="edge94" class="edge">
<title>Node0x5eed978569f0&#45;&gt;Node0x5eed972002d0</title>
<path fill="none" stroke="#4a6fa5" d="M262.11,-1233.8C286.45,-1229.55 310.57,-1220.52 328,-1203 434.88,-1095.57 306.59,-996.07 386,-867 414.16,-821.22 466.62,-787.05 504.42,-766.9"/>
<polygon fill="#4a6fa5" stroke="#4a6fa5" points="505.56,-768.67 509.89,-764.02 503.6,-764.95 505.56,-768.67"/>
</g>
<!-- Node0x5eed978588d0 -->
<g id="node41" class="node">
<title>Node0x5eed978588d0</title>
<path fill="#f0f4ff" stroke="black" d="M568,-1342C568,-1342 532,-1342 532,-1342 526,-1342 520,-1336 520,-1330 520,-1330 520,-1318 520,-1318 520,-1312 526,-1306 532,-1306 532,-1306 568,-1306 568,-1306 574,-1306 580,-1312 580,-1318 580,-1318 580,-1330 580,-1330 580,-1336 574,-1342 568,-1342"/>
<text text-anchor="middle" x="550" y="-1321.8" font-family="Courier,monospace" font-size="9.00">GetSize()</text>
</g>
<!-- Node0x5eed978569f0&#45;&gt;Node0x5eed978588d0 -->
<g id="edge92" class="edge">
<title>Node0x5eed978569f0&#45;&gt;Node0x5eed978588d0</title>
<path fill="none" stroke="#4a6fa5" d="M232.04,-1250.05C275.76,-1261.64 334.13,-1276.75 386,-1289 429.89,-1299.37 480.73,-1310.08 513.81,-1316.88"/>
<polygon fill="#4a6fa5" stroke="#4a6fa5" points="513.47,-1318.95 519.77,-1318.1 514.31,-1314.84 513.47,-1318.95"/>
</g>
<!-- Node0x5eed97859b90 -->
<g id="node42" class="node">
<title>Node0x5eed97859b90</title>
<path fill="#f0f4ff" stroke="black" d="M702,-1400C702,-1400 398,-1400 398,-1400 392,-1400 386,-1394 386,-1388 386,-1388 386,-1376 386,-1376 386,-1370 392,-1364 398,-1364 398,-1364 702,-1364 702,-1364 708,-1364 714,-1370 714,-1376 714,-1376 714,-1388 714,-1388 714,-1394 708,-1400 702,-1400"/>
<text text-anchor="middle" x="550" y="-1379.8" font-family="Courier,monospace" font-size="9.00">CIccTagFixedNum&lt;int, (icTagTypeSignature)1936077618&gt;::ope...</text>
</g>
<!-- Node0x5eed978569f0&#45;&gt;Node0x5eed97859b90 -->
<g id="edge95" class="edge">
<title>Node0x5eed978569f0&#45;&gt;Node0x5eed97859b90</title>
<path fill="none" stroke="#4a6fa5" d="M191.23,-1250.08C231.33,-1276.83 311.11,-1326.64 386,-1353 396.07,-1356.54 406.64,-1359.67 417.36,-1362.42"/>
<polygon fill="#4a6fa5" stroke="#4a6fa5" points="417,-1364.5 423.33,-1363.92 418.02,-1360.42 417,-1364.5"/>
</g>
<!-- Node0x5eed97858b50 -->
<g id="node43" class="node">
<title>Node0x5eed97858b50</title>
<path fill="#f0f4ff" stroke="black" d="M255.5,-844C255.5,-844 72.5,-844 72.5,-844 66.5,-844 60.5,-838 60.5,-832 60.5,-832 60.5,-820 60.5,-820 60.5,-814 66.5,-808 72.5,-808 72.5,-808 255.5,-808 255.5,-808 261.5,-808 267.5,-814 267.5,-820 267.5,-820 267.5,-832 267.5,-832 267.5,-838 261.5,-844 255.5,-844"/>
<text text-anchor="middle" x="164" y="-823.8" font-family="Courier,monospace" font-size="9.00">RunHeuristic_H133_FlagsReservedBits()</text>
</g>
<!-- Node0x5eed97858b50&#45;&gt;Node0x5eed972eca00 -->
<g id="edge98" class="edge">
<title>Node0x5eed97858b50&#45;&gt;Node0x5eed972eca00</title>
<path fill="none" stroke="#4a6fa5" d="M267.85,-828.97C289.38,-833.59 310.75,-841.59 328,-855 377.31,-893.33 336.69,-944.67 386,-983 420,-1009.43 470.04,-1014.86 505.69,-1014.81"/>
<polygon fill="#4a6fa5" stroke="#4a6fa5" points="505.75,-1016.91 511.73,-1014.75 505.71,-1012.71 505.75,-1016.91"/>
</g>
<!-- Node0x5eed97858b50&#45;&gt;Node0x5eed9737e320 -->
<g id="edge97" class="edge">
<title>Node0x5eed97858b50&#45;&gt;Node0x5eed9737e320</title>
<path fill="none" stroke="#4a6fa5" d="M267.85,-827.16C289.75,-831.81 311.29,-840.27 328,-855 392.97,-912.25 328.84,-975.95 386,-1041 415.84,-1074.96 464.22,-1094.51 500.54,-1105.09"/>
<polygon fill="#4a6fa5" stroke="#4a6fa5" points="500.37,-1107.22 506.71,-1106.83 501.51,-1103.18 500.37,-1107.22"/>
</g>
<!-- Node0x5eed97858b50&#45;&gt;Node0x5eed9762bae0 -->
<g id="edge100" class="edge">
<title>Node0x5eed97858b50&#45;&gt;Node0x5eed9762bae0</title>
<path fill="none" stroke="#4a6fa5" d="M267.57,-832.99C288.54,-837.45 309.75,-844.37 328,-855 362.91,-875.34 351.09,-904.66 386,-925 420.84,-945.29 466.44,-952.06 500.54,-954.02"/>
<polygon fill="#4a6fa5" stroke="#4a6fa5" points="500.67,-956.13 506.77,-954.33 500.88,-951.94 500.67,-956.13"/>
</g>
<!-- Node0x5eed97858b50&#45;&gt;Node0x5eed971fefc0 -->
<g id="edge96" class="edge">
<title>Node0x5eed97858b50&#45;&gt;Node0x5eed971fefc0</title>
<path fill="none" stroke="#4a6fa5" d="M267.61,-822.71C289.15,-818.11 310.59,-810.19 328,-797 375.22,-761.23 344.34,-719.12 386,-677 418.67,-643.97 467.56,-622.17 503.28,-609.59"/>
<polygon fill="#4a6fa5" stroke="#4a6fa5" points="504.35,-611.44 509.34,-607.5 502.98,-607.47 504.35,-611.44"/>
</g>
<!-- Node0x5eed97858b50&#45;&gt;Node0x5eed971ffd10 -->
<g id="edge99" class="edge">
<title>Node0x5eed97858b50&#45;&gt;Node0x5eed971ffd10</title>
<path fill="none" stroke="#4a6fa5" d="M267.69,-819.99C288.75,-815.48 309.98,-808.29 328,-797 365.21,-773.68 348.4,-739.69 386,-717 512.09,-640.92 568.32,-691.53 714,-670 730.66,-667.54 748.39,-664.88 765.51,-662.28"/>
<polygon fill="#4a6fa5" stroke="#4a6fa5" points="766.18,-664.3 771.79,-661.33 765.55,-660.15 766.18,-664.3"/>
</g>
<!-- Node0x5eed97858b50&#45;&gt;Node0x5eed972002d0 -->
<g id="edge101" class="edge">
<title>Node0x5eed97858b50&#45;&gt;Node0x5eed972002d0</title>
<path fill="none" stroke="#4a6fa5" d="M267.9,-809.19C287.9,-805.5 308.66,-801.38 328,-797 354.08,-791.1 360.03,-787.37 386,-781 423.45,-771.82 466.06,-762.72 498.32,-756.1"/>
<polygon fill="#4a6fa5" stroke="#4a6fa5" points="498.76,-758.15 504.22,-754.89 497.92,-754.04 498.76,-758.15"/>
</g>
<!-- Node0x5eed97858a10 -->
<g id="node44" class="node">
<title>Node0x5eed97858a10</title>
<path fill="#f0f4ff" stroke="black" d="M263.5,-786C263.5,-786 64.5,-786 64.5,-786 58.5,-786 52.5,-780 52.5,-774 52.5,-774 52.5,-762 52.5,-762 52.5,-756 58.5,-750 64.5,-750 64.5,-750 263.5,-750 263.5,-750 269.5,-750 275.5,-756 275.5,-762 275.5,-762 275.5,-774 275.5,-774 275.5,-780 269.5,-786 263.5,-786"/>
<text text-anchor="middle" x="164" y="-765.8" font-family="Courier,monospace" font-size="9.00">RunHeuristic_H134_TagTypeReservedBytes()</text>
</g>
<!-- Node0x5eed97858a10&#45;&gt;Node0x5eed972eca00 -->
<g id="edge103" class="edge">
<title>Node0x5eed97858a10&#45;&gt;Node0x5eed972eca00</title>
<path fill="none" stroke="#4a6fa5" d="M275.88,-771.04C294.96,-775.98 313.34,-784.08 328,-797 392.97,-854.25 321.03,-925.75 386,-983 418.62,-1011.74 469.59,-1016.64 505.84,-1015.84"/>
<polygon fill="#4a6fa5" stroke="#4a6fa5" points="506.05,-1017.94 511.98,-1015.65 505.92,-1013.74 506.05,-1017.94"/>
</g>
<!-- Node0x5eed97858a10&#45;&gt;Node0x5eed9737e320 -->
<g id="edge102" class="edge">
<title>Node0x5eed97858a10&#45;&gt;Node0x5eed9737e320</title>
<path fill="none" stroke="#4a6fa5" d="M275.78,-770.02C295.09,-775 313.58,-783.38 328,-797 409.04,-873.53 315.35,-954.78 386,-1041 414.95,-1076.34 464.23,-1095.8 501.04,-1105.98"/>
<polygon fill="#4a6fa5" stroke="#4a6fa5" points="500.49,-1108.01 506.83,-1107.53 501.58,-1103.95 500.49,-1108.01"/>
</g>
<!-- Node0x5eed97858a10&#45;&gt;Node0x5eed9762bae0 -->
<g id="edge105" class="edge">
<title>Node0x5eed97858a10&#45;&gt;Node0x5eed9762bae0</title>
<path fill="none" stroke="#4a6fa5" d="M275.91,-772.86C294.66,-777.68 312.91,-785.27 328,-797 377.31,-835.33 336.69,-886.67 386,-925 418.37,-950.16 465.26,-956.28 500.45,-956.78"/>
<polygon fill="#4a6fa5" stroke="#4a6fa5" points="500.87,-958.88 506.88,-956.81 500.89,-954.68 500.87,-958.88"/>
</g>
<!-- Node0x5eed97858a10&#45;&gt;Node0x5eed971fefc0 -->
<g id="edge106" class="edge">
<title>Node0x5eed97858a10&#45;&gt;Node0x5eed971fefc0</title>
<path fill="none" stroke="#4a6fa5" d="M275.7,-762.18C294.36,-757.45 312.64,-750.13 328,-739 372.12,-707.03 342.45,-663.74 386,-631 419.65,-605.7 467.68,-597.85 502.88,-595.79"/>
<polygon fill="#4a6fa5" stroke="#4a6fa5" points="503.42,-597.87 509.3,-595.47 503.21,-593.67 503.42,-597.87"/>
</g>
<!-- Node0x5eed97858a10&#45;&gt;Node0x5eed971ffd10 -->
<g id="edge104" class="edge">
<title>Node0x5eed97858a10&#45;&gt;Node0x5eed971ffd10</title>
<path fill="none" stroke="#4a6fa5" d="M275.68,-758.24C293.85,-753.88 311.96,-747.71 328,-739 361.16,-721 351.86,-693.07 386,-677 507.63,-619.74 666.74,-623.81 765.77,-634.22"/>
<polygon fill="#4a6fa5" stroke="#4a6fa5" points="765.72,-636.33 771.91,-634.88 766.17,-632.15 765.72,-636.33"/>
</g>
<!-- Node0x5eed97858a10&#45;&gt;Node0x5eed972002d0 -->
<g id="edge107" class="edge">
<title>Node0x5eed97858a10&#45;&gt;Node0x5eed972002d0</title>
<path fill="none" stroke="#4a6fa5" d="M275.55,-761.67C348.88,-757.47 441.66,-752.15 498.11,-748.92"/>
<polygon fill="#4a6fa5" stroke="#4a6fa5" points="498.26,-751.01 504.13,-748.57 498.02,-746.82 498.26,-751.01"/>
</g>
<!-- Node0x5eed9785a450 -->
<g id="node45" class="node">
<title>Node0x5eed9785a450</title>
<path fill="#f0f4ff" stroke="black" d="M268.5,-554C268.5,-554 59.5,-554 59.5,-554 53.5,-554 47.5,-548 47.5,-542 47.5,-542 47.5,-530 47.5,-530 47.5,-524 53.5,-518 59.5,-518 59.5,-518 268.5,-518 268.5,-518 274.5,-518 280.5,-524 280.5,-530 280.5,-530 280.5,-542 280.5,-542 280.5,-548 274.5,-554 268.5,-554"/>
<text text-anchor="middle" x="164" y="-533.8" font-family="Courier,monospace" font-size="9.00">RunHeuristic_H135_DuplicateTagSignatures()</text>
</g>
<!-- Node0x5eed9785a450&#45;&gt;Node0x5eed972eca00 -->
<g id="edge110" class="edge">
<title>Node0x5eed9785a450&#45;&gt;Node0x5eed972eca00</title>
<path fill="none" stroke="#4a6fa5" d="M280.59,-537.98C298.42,-543.18 315.14,-551.64 328,-565 458.07,-700.13 255.93,-847.87 386,-983 416.43,-1014.62 468.54,-1018.84 505.64,-1017.09"/>
<polygon fill="#4a6fa5" stroke="#4a6fa5" points="506.05,-1019.17 511.92,-1016.73 505.81,-1014.98 506.05,-1019.17"/>
</g>
<!-- Node0x5eed9785a450&#45;&gt;Node0x5eed9737e320 -->
<g id="edge109" class="edge">
<title>Node0x5eed9785a450&#45;&gt;Node0x5eed9737e320</title>
<path fill="none" stroke="#4a6fa5" d="M280.78,-537.8C298.58,-543.02 315.25,-551.54 328,-565 474.51,-719.77 260.37,-868.84 386,-1041 413.19,-1078.26 463.46,-1097.51 501.02,-1107.12"/>
<polygon fill="#4a6fa5" stroke="#4a6fa5" points="500.6,-1109.18 506.93,-1108.58 501.61,-1105.1 500.6,-1109.18"/>
</g>
<!-- Node0x5eed9785a450&#45;&gt;Node0x5eed9762bae0 -->
<g id="edge112" class="edge">
<title>Node0x5eed9785a450&#45;&gt;Node0x5eed9762bae0</title>
<path fill="none" stroke="#4a6fa5" d="M280.76,-538.34C298.46,-543.52 315.1,-551.89 328,-565 441.66,-680.53 272.34,-809.47 386,-925 415.35,-954.83 464.03,-960.11 500.56,-959.12"/>
<polygon fill="#4a6fa5" stroke="#4a6fa5" points="500.86,-961.21 506.77,-958.89 500.7,-957.01 500.86,-961.21"/>
</g>
<!-- Node0x5eed9785a450&#45;&gt;Node0x5eed9784c930 -->
<g id="edge114" class="edge">
<title>Node0x5eed9785a450&#45;&gt;Node0x5eed9784c930</title>
<path fill="none" stroke="#4a6fa5" d="M235.03,-517.96C278.42,-506.93 335.35,-492.74 386,-481 426.48,-471.62 472.82,-461.75 505.72,-454.9"/>
<polygon fill="#4a6fa5" stroke="#4a6fa5" points="506.25,-456.93 511.7,-453.65 505.4,-452.82 506.25,-456.93"/>
</g>
<!-- Node0x5eed9785a450&#45;&gt;Node0x5eed971fefc0 -->
<g id="edge108" class="edge">
<title>Node0x5eed9785a450&#45;&gt;Node0x5eed971fefc0</title>
<path fill="none" stroke="#4a6fa5" d="M280.21,-554C355.09,-565.7 448.62,-580.32 503.3,-588.86"/>
<polygon fill="#4a6fa5" stroke="#4a6fa5" points="503.19,-590.97 509.44,-589.82 503.84,-586.82 503.19,-590.97"/>
</g>
<!-- Node0x5eed9785a450&#45;&gt;Node0x5eed971ffd10 -->
<g id="edge111" class="edge">
<title>Node0x5eed9785a450&#45;&gt;Node0x5eed971ffd10</title>
<path fill="none" stroke="#4a6fa5" d="M197.02,-517.93C232.18,-496.96 288.82,-459.75 328,-417 361.68,-380.25 342.58,-345.49 386,-321 512.97,-249.37 601.5,-228.29 714,-321 818.13,-406.81 683.05,-517.54 772,-619 774.28,-621.61 776.81,-623.98 779.52,-626.14"/>
<polygon fill="#4a6fa5" stroke="#4a6fa5" points="778.49,-627.98 784.58,-629.8 780.95,-624.58 778.49,-627.98"/>
</g>
<!-- Node0x5eed9785a450&#45;&gt;Node0x5eed972002d0 -->
<g id="edge113" class="edge">
<title>Node0x5eed9785a450&#45;&gt;Node0x5eed972002d0</title>
<path fill="none" stroke="#4a6fa5" d="M280.71,-547.26C297.15,-551.49 313.41,-557.23 328,-565 360.74,-582.43 358.13,-600.53 386,-625 428.99,-662.74 482.99,-701.27 516.76,-724.41"/>
<polygon fill="#4a6fa5" stroke="#4a6fa5" points="515.86,-726.34 522,-727.99 518.23,-722.87 515.86,-726.34"/>
</g>
<!-- Node0x5eed9785b650 -->
<g id="node46" class="node">
<title>Node0x5eed9785b650</title>
<path fill="#f0f4ff" stroke="black" d="M568,-210C568,-210 532,-210 532,-210 526,-210 520,-204 520,-198 520,-198 520,-186 520,-186 520,-180 526,-174 532,-174 532,-174 568,-174 568,-174 574,-174 580,-180 580,-186 580,-186 580,-198 580,-198 580,-204 574,-210 568,-210"/>
<text text-anchor="middle" x="550" y="-189.8" font-family="Courier,monospace" font-size="9.00">reserve()</text>
</g>
<!-- Node0x5eed9785a450&#45;&gt;Node0x5eed9785b650 -->
<g id="edge115" class="edge">
<title>Node0x5eed9785a450&#45;&gt;Node0x5eed9785b650</title>
<path fill="none" stroke="#4a6fa5" d="M200.35,-517.95C236.77,-497.76 293.02,-461.93 328,-417 370.39,-362.56 339.16,-323.66 386,-273 420.88,-235.28 477.21,-212.8 513.67,-201.41"/>
<polygon fill="#4a6fa5" stroke="#4a6fa5" points="514.66,-203.31 519.79,-199.55 513.44,-199.29 514.66,-203.31"/>
</g>
<!-- Node0x5eed9785f750 -->
<g id="node47" class="node">
<title>Node0x5eed9785f750</title>
<path fill="#f0f4ff" stroke="black" d="M880,-181C880,-181 839,-181 839,-181 833,-181 827,-175 827,-169 827,-169 827,-157 827,-157 827,-151 833,-145 839,-145 839,-145 880,-145 880,-145 886,-145 892,-151 892,-157 892,-157 892,-169 892,-169 892,-175 886,-181 880,-181"/>
<text text-anchor="middle" x="859.5" y="-160.8" font-family="Courier,monospace" font-size="9.00">max_size()</text>
</g>
<!-- Node0x5eed9785b650&#45;&gt;Node0x5eed9785f750 -->
<g id="edge116" class="edge">
<title>Node0x5eed9785b650&#45;&gt;Node0x5eed9785f750</title>
<path fill="none" stroke="#4a6fa5" d="M580.21,-189.25C636.15,-183.97 758.39,-172.44 820.56,-166.58"/>
<polygon fill="#4a6fa5" stroke="#4a6fa5" points="820.97,-168.65 826.75,-165.99 820.58,-164.47 820.97,-168.65"/>
</g>
<!-- Node0x5eed9785fe50 -->
<g id="node48" class="node">
<title>Node0x5eed9785fe50</title>
<path fill="#f0f4ff" stroke="black" d="M880,-239C880,-239 839,-239 839,-239 833,-239 827,-233 827,-227 827,-227 827,-215 827,-215 827,-209 833,-203 839,-203 839,-203 880,-203 880,-203 886,-203 892,-209 892,-215 892,-215 892,-227 892,-227 892,-233 886,-239 880,-239"/>
<text text-anchor="middle" x="859.5" y="-218.8" font-family="Courier,monospace" font-size="9.00">capacity()</text>
</g>
<!-- Node0x5eed9785b650&#45;&gt;Node0x5eed9785fe50 -->
<g id="edge117" class="edge">
<title>Node0x5eed9785b650&#45;&gt;Node0x5eed9785fe50</title>
<path fill="none" stroke="#4a6fa5" d="M580.21,-194.75C636.15,-200.03 758.39,-211.56 820.56,-217.42"/>
<polygon fill="#4a6fa5" stroke="#4a6fa5" points="820.58,-219.53 826.75,-218.01 820.97,-215.35 820.58,-219.53"/>
</g>
<!-- Node0x5eed9785c5d0 -->
<g id="node49" class="node">
<title>Node0x5eed9785c5d0</title>
<path fill="#f0f4ff" stroke="black" d="M287,-670C287,-670 41,-670 41,-670 35,-670 29,-664 29,-658 29,-658 29,-646 29,-646 29,-640 35,-634 41,-634 41,-634 287,-634 287,-634 293,-634 299,-640 299,-646 299,-646 299,-658 299,-658 299,-664 293,-670 287,-670"/>
<text text-anchor="middle" x="164" y="-649.8" font-family="Courier,monospace" font-size="9.00">RunHeuristic_H136_ResponseCurveMeasurementCount()</text>
</g>
<!-- Node0x5eed9785c5d0&#45;&gt;Node0x5eed972eca00 -->
<g id="edge120" class="edge">
<title>Node0x5eed9785c5d0&#45;&gt;Node0x5eed972eca00</title>
<path fill="none" stroke="#4a6fa5" d="M299.04,-661.49C309.73,-666.36 319.61,-672.72 328,-681 425.3,-776.98 288.7,-887.02 386,-983 417.14,-1013.72 468.87,-1018.16 505.69,-1016.72"/>
<polygon fill="#4a6fa5" stroke="#4a6fa5" points="506.04,-1018.8 511.93,-1016.41 505.83,-1014.61 506.04,-1018.8"/>
</g>
<!-- Node0x5eed9785c5d0&#45;&gt;Node0x5eed9762bae0 -->
<g id="edge121" class="edge">
<title>Node0x5eed9785c5d0&#45;&gt;Node0x5eed9762bae0</title>
<path fill="none" stroke="#4a6fa5" d="M299.06,-662.06C309.67,-666.82 319.54,-673.01 328,-681 409.04,-757.53 304.96,-848.47 386,-925 416.32,-953.63 464.64,-959.13 500.81,-958.51"/>
<polygon fill="#4a6fa5" stroke="#4a6fa5" points="501.02,-960.6 506.96,-958.34 500.91,-956.41 501.02,-960.6"/>
</g>
<!-- Node0x5eed9785c5d0&#45;&gt;Node0x5eed971fefc0 -->
<g id="edge118" class="edge">
<title>Node0x5eed9785c5d0&#45;&gt;Node0x5eed971fefc0</title>
<path fill="none" stroke="#4a6fa5" d="M288.61,-633.97C361.93,-623.28 450.55,-610.36 503.21,-602.68"/>
<polygon fill="#4a6fa5" stroke="#4a6fa5" points="503.82,-604.71 509.45,-601.77 503.21,-600.56 503.82,-604.71"/>
</g>
<!-- Node0x5eed9785c5d0&#45;&gt;Node0x5eed971ffd10 -->
<g id="edge119" class="edge">
<title>Node0x5eed9785c5d0&#45;&gt;Node0x5eed971ffd10</title>
<path fill="none" stroke="#4a6fa5" d="M299.11,-638.02C309.33,-634.04 319.11,-629.1 328,-623 369.09,-594.78 342.58,-551.49 386,-527 449.48,-491.18 650.18,-491.79 714,-527 756.32,-550.35 733.99,-589.14 772,-619 775.77,-621.96 779.85,-624.62 784.12,-627.02"/>
<polygon fill="#4a6fa5" stroke="#4a6fa5" points="783.34,-628.98 789.62,-629.92 785.29,-625.26 783.34,-628.98"/>
</g>
<!-- Node0x5eed9785c5d0&#45;&gt;Node0x5eed972002d0 -->
<g id="edge122" class="edge">
<title>Node0x5eed9785c5d0&#45;&gt;Node0x5eed972002d0</title>
<path fill="none" stroke="#4a6fa5" d="M275.81,-670.02C293.34,-673.36 311.21,-677.05 328,-681 387.05,-694.89 453.72,-715.14 498.24,-729.34"/>
<polygon fill="#4a6fa5" stroke="#4a6fa5" points="497.74,-731.39 504.1,-731.21 499.02,-727.39 497.74,-731.39"/>
</g>
<!-- Node0x5eed9785c890 -->
<g id="node50" class="node">
<title>Node0x5eed9785c890</title>
<path fill="#f0f4ff" stroke="black" d="M287,-1452C287,-1452 41,-1452 41,-1452 35,-1452 29,-1446 29,-1440 29,-1440 29,-1428 29,-1428 29,-1422 35,-1416 41,-1416 41,-1416 287,-1416 287,-1416 293,-1416 299,-1422 299,-1428 299,-1428 299,-1440 299,-1440 299,-1446 293,-1452 287,-1452"/>
<text text-anchor="middle" x="164" y="-1431.8" font-family="Courier,monospace" font-size="9.00">RunHeuristic_H137_HighDimensionalGridComplexity()</text>
</g>
<!-- Node0x5eed9785c890&#45;&gt;Node0x5eed97836f90 -->
<g id="edge133" class="edge">
<title>Node0x5eed9785c890&#45;&gt;Node0x5eed97836f90</title>
<path fill="none" stroke="#4a6fa5" d="M190.06,-1452.02C222.73,-1475.85 281.22,-1519.67 328,-1561 355.32,-1585.14 354.17,-1601.23 386,-1619 454.89,-1657.45 675.58,-1699.54 789.3,-1719.4"/>
<polygon fill="#4a6fa5" stroke="#4a6fa5" points="789.03,-1721.48 795.3,-1720.44 789.75,-1717.34 789.03,-1721.48"/>
</g>
<!-- Node0x5eed9785c890&#45;&gt;Node0x5eed972eca00 -->
<g id="edge123" class="edge">
<title>Node0x5eed9785c890&#45;&gt;Node0x5eed972eca00</title>
<path fill="none" stroke="#4a6fa5" d="M187.47,-1415.87C222.25,-1386.7 289.15,-1326 328,-1261 369.82,-1191.03 331.6,-1147.71 386,-1087 417.54,-1051.8 468.95,-1031.98 505.6,-1021.67"/>
<polygon fill="#4a6fa5" stroke="#4a6fa5" points="506.57,-1023.59 511.8,-1019.98 505.46,-1019.53 506.57,-1023.59"/>
</g>
<!-- Node0x5eed9785c890&#45;&gt;Node0x5eed972593c0 -->
<g id="edge132" class="edge">
<title>Node0x5eed9785c890&#45;&gt;Node0x5eed972593c0</title>
<path fill="none" stroke="#4a6fa5" d="M299.04,-1434.02C412.73,-1437.95 578.47,-1453.02 714,-1503 759.61,-1519.82 805.33,-1553.37 832.78,-1575.76"/>
<polygon fill="#4a6fa5" stroke="#4a6fa5" points="831.72,-1577.6 837.69,-1579.8 834.39,-1574.36 831.72,-1577.6"/>
</g>
<!-- Node0x5eed9785c890&#45;&gt;Node0x5eed9737e320 -->
<g id="edge125" class="edge">
<title>Node0x5eed9785c890&#45;&gt;Node0x5eed9737e320</title>
<path fill="none" stroke="#4a6fa5" d="M185.57,-1415.9C218.63,-1386.06 284.29,-1323.59 328,-1261 361,-1213.74 339.82,-1179.5 386,-1145 418.73,-1120.55 465.37,-1114.31 500.38,-1113.6"/>
<polygon fill="#4a6fa5" stroke="#4a6fa5" points="500.8,-1115.69 506.78,-1113.52 500.76,-1111.49 500.8,-1115.69"/>
</g>
<!-- Node0x5eed9785c890&#45;&gt;Node0x5eed9762bae0 -->
<g id="edge126" class="edge">
<title>Node0x5eed9785c890&#45;&gt;Node0x5eed9762bae0</title>
<path fill="none" stroke="#4a6fa5" d="M188.98,-1415.92C225.17,-1387.27 293.18,-1327.78 328,-1261 386.36,-1149.09 295.44,-1070.92 386,-983 415.93,-953.95 464.3,-948.51 500.59,-949.26"/>
<polygon fill="#4a6fa5" stroke="#4a6fa5" points="500.7,-951.36 506.76,-949.44 500.82,-947.16 500.7,-951.36"/>
</g>
<!-- Node0x5eed9785c890&#45;&gt;Node0x5eed9784c930 -->
<g id="edge128" class="edge">
<title>Node0x5eed9785c890&#45;&gt;Node0x5eed9784c930</title>
<path fill="none" stroke="#4a6fa5" d="M190.63,-1415.95C228.31,-1387.77 297.49,-1329.4 328,-1261 454.07,-978.32 235.49,-837.46 386,-567 412.79,-518.86 467.63,-484.4 506.29,-464.86"/>
<polygon fill="#4a6fa5" stroke="#4a6fa5" points="507.43,-466.63 511.87,-462.08 505.56,-462.87 507.43,-466.63"/>
</g>
<!-- Node0x5eed9785c890&#45;&gt;Node0x5eed971fcf10 -->
<g id="edge130" class="edge">
<title>Node0x5eed9785c890&#45;&gt;Node0x5eed971fcf10</title>
<path fill="none" stroke="#4a6fa5" d="M200.88,-1452.13C238.58,-1473.09 296.66,-1511.21 328,-1561 392.46,-1663.4 298.8,-1743.11 386,-1827 413.2,-1853.17 455.39,-1860.12 490.03,-1860.69"/>
<polygon fill="#4a6fa5" stroke="#4a6fa5" points="490.39,-1862.79 496.41,-1860.72 490.42,-1858.59 490.39,-1862.79"/>
</g>
<!-- Node0x5eed9785c890&#45;&gt;Node0x5eed971fc3d0 -->
<g id="edge131" class="edge">
<title>Node0x5eed9785c890&#45;&gt;Node0x5eed971fc3d0</title>
<path fill="none" stroke="#4a6fa5" d="M199.65,-1452.09C236.86,-1473.28 295.05,-1511.83 328,-1561 381.43,-1640.72 314.96,-1704.47 386,-1769 409.64,-1790.47 443.45,-1798.77 474.17,-1801.28"/>
<polygon fill="#4a6fa5" stroke="#4a6fa5" points="474.13,-1803.38 480.26,-1801.71 474.42,-1799.2 474.13,-1803.38"/>
</g>
<!-- Node0x5eed9785c890&#45;&gt;Node0x5eed972002d0 -->
<g id="edge127" class="edge">
<title>Node0x5eed9785c890&#45;&gt;Node0x5eed972002d0</title>
<path fill="none" stroke="#4a6fa5" d="M189.78,-1415.94C226.69,-1387.52 295.27,-1328.6 328,-1261 405.13,-1101.69 295.12,-1018.89 386,-867 413.51,-821.02 465.83,-786.98 503.79,-766.91"/>
<polygon fill="#4a6fa5" stroke="#4a6fa5" points="504.93,-768.69 509.28,-764.05 502.99,-764.96 504.93,-768.69"/>
</g>
<!-- Node0x5eed9785cc10 -->
<g id="node51" class="node">
<title>Node0x5eed9785cc10</title>
<path fill="#f0f4ff" stroke="black" d="M594,-1550C594,-1550 506,-1550 506,-1550 500,-1550 494,-1544 494,-1538 494,-1538 494,-1526 494,-1526 494,-1520 500,-1514 506,-1514 506,-1514 594,-1514 594,-1514 600,-1514 606,-1520 606,-1526 606,-1526 606,-1538 606,-1538 606,-1544 600,-1550 594,-1550"/>
<text text-anchor="middle" x="550" y="-1529.8" font-family="Courier,monospace" font-size="9.00">icGetSpaceSamples()</text>
</g>
<!-- Node0x5eed9785c890&#45;&gt;Node0x5eed9785cc10 -->
<g id="edge124" class="edge">
<title>Node0x5eed9785c890&#45;&gt;Node0x5eed9785cc10</title>
<path fill="none" stroke="#4a6fa5" d="M224.28,-1452.05C268.61,-1465.27 330.84,-1483.23 386,-1497 419.44,-1505.35 457.03,-1513.5 487.68,-1519.83"/>
<polygon fill="#4a6fa5" stroke="#4a6fa5" points="487.41,-1521.92 493.71,-1521.08 488.26,-1517.81 487.41,-1521.92"/>
</g>
<!-- Node0x5eed9785a110 -->
<g id="node52" class="node">
<title>Node0x5eed9785a110</title>
<path fill="#f0f4ff" stroke="black" d="M599.5,-1608C599.5,-1608 500.5,-1608 500.5,-1608 494.5,-1608 488.5,-1602 488.5,-1596 488.5,-1596 488.5,-1584 488.5,-1584 488.5,-1578 494.5,-1572 500.5,-1572 500.5,-1572 599.5,-1572 599.5,-1572 605.5,-1572 611.5,-1578 611.5,-1584 611.5,-1584 611.5,-1596 611.5,-1596 611.5,-1602 605.5,-1608 599.5,-1608"/>
<text text-anchor="middle" x="550" y="-1587.8" font-family="Courier,monospace" font-size="9.00">CIccCLUT::GridPoint()</text>
</g>
<!-- Node0x5eed9785c890&#45;&gt;Node0x5eed9785a110 -->
<g id="edge129" class="edge">
<title>Node0x5eed9785c890&#45;&gt;Node0x5eed9785a110</title>
<path fill="none" stroke="#4a6fa5" d="M189.77,-1452.11C229.23,-1480.03 309.69,-1533.25 386,-1561 416.77,-1572.19 452.43,-1579.16 482.53,-1583.46"/>
<polygon fill="#4a6fa5" stroke="#4a6fa5" points="482.24,-1585.54 488.48,-1584.28 482.82,-1581.38 482.24,-1585.54"/>
</g>
<!-- Node0x5eed9785a9d0 -->
<g id="node53" class="node">
<title>Node0x5eed9785a9d0</title>
<path fill="#f0f4ff" stroke="black" d="M274,-406C274,-406 54,-406 54,-406 48,-406 42,-400 42,-394 42,-394 42,-382 42,-382 42,-376 48,-370 54,-370 54,-370 274,-370 274,-370 280,-370 286,-376 286,-382 286,-382 286,-394 286,-394 286,-400 280,-406 274,-406"/>
<text text-anchor="middle" x="164" y="-385.8" font-family="Courier,monospace" font-size="9.00">RunHeuristic_H138_CalculatorBranchingDepth()</text>
</g>
<!-- Node0x5eed9785a9d0&#45;&gt;Node0x5eed972eca00 -->
<g id="edge134" class="edge">
<title>Node0x5eed9785a9d0&#45;&gt;Node0x5eed972eca00</title>
<path fill="none" stroke="#4a6fa5" d="M206.42,-406.16C244.81,-425.33 300.07,-459.41 328,-507 435.87,-690.8 239.49,-828.23 386,-983 416.17,-1014.87 468.32,-1019.04 505.51,-1017.22"/>
<polygon fill="#4a6fa5" stroke="#4a6fa5" points="505.94,-1019.29 511.81,-1016.84 505.7,-1015.1 505.94,-1019.29"/>
</g>
<!-- Node0x5eed9785a9d0&#45;&gt;Node0x5eed972593c0 -->
<g id="edge138" class="edge">
<title>Node0x5eed9785a9d0&#45;&gt;Node0x5eed972593c0</title>
<path fill="none" stroke="#4a6fa5" d="M203.08,-369.89C301.95,-325.82 569.2,-225.99 714,-359 770.01,-410.45 762.94,-965.49 772,-1041 796.84,-1247.97 840.23,-1496.15 854.1,-1573.66"/>
<polygon fill="#4a6fa5" stroke="#4a6fa5" points="852.08,-1574.26 855.2,-1579.79 856.21,-1573.52 852.08,-1574.26"/>
</g>
<!-- Node0x5eed9785a9d0&#45;&gt;Node0x5eed9762bae0 -->
<g id="edge141" class="edge">
<title>Node0x5eed9785a9d0&#45;&gt;Node0x5eed9762bae0</title>
<path fill="none" stroke="#4a6fa5" d="M205.88,-406.08C244.15,-425.3 299.58,-459.49 328,-507 424.27,-667.96 255.93,-789.87 386,-925 415.11,-955.25 464.06,-960.42 500.74,-959.28"/>
<polygon fill="#4a6fa5" stroke="#4a6fa5" points="501.06,-961.37 506.97,-959.03 500.89,-957.18 501.06,-961.37"/>
</g>
<!-- Node0x5eed9785a9d0&#45;&gt;Node0x5eed9784c930 -->
<g id="edge140" class="edge">
<title>Node0x5eed9785a9d0&#45;&gt;Node0x5eed9784c930</title>
<path fill="none" stroke="#4a6fa5" d="M284.4,-406.03C359.65,-417.4 452.36,-431.4 505.68,-439.46"/>
<polygon fill="#4a6fa5" stroke="#4a6fa5" points="505.42,-441.54 511.66,-440.36 506.05,-437.39 505.42,-441.54"/>
</g>
<!-- Node0x5eed9785a9d0&#45;&gt;Node0x5eed972002d0 -->
<g id="edge142" class="edge">
<title>Node0x5eed9785a9d0&#45;&gt;Node0x5eed972002d0</title>
<path fill="none" stroke="#4a6fa5" d="M198.71,-406.01C234.55,-426.53 291.05,-463 328,-507 365.58,-551.75 348.6,-580.1 386,-625 421.33,-667.41 474.44,-703.22 510.35,-724.63"/>
<polygon fill="#4a6fa5" stroke="#4a6fa5" points="509.73,-726.7 515.96,-727.94 511.86,-723.08 509.73,-726.7"/>
</g>
<!-- Node0x5eed9785a290 -->
<g id="node54" class="node">
<title>Node0x5eed9785a290</title>
<path fill="#f0f4ff" stroke="black" d="M702,-406C702,-406 398,-406 398,-406 392,-406 386,-400 386,-394 386,-394 386,-382 386,-382 386,-376 392,-370 398,-370 398,-370 702,-370 702,-370 708,-370 714,-376 714,-382 714,-382 714,-394 714,-394 714,-400 708,-406 702,-406"/>
<text text-anchor="middle" x="550" y="-385.8" font-family="Courier,monospace" font-size="9.00">CIccTagMultiProcessElement* FindAndCast&lt;CIccTagMultiProce...</text>
</g>
<!-- Node0x5eed9785a9d0&#45;&gt;Node0x5eed9785a290 -->
<g id="edge135" class="edge">
<title>Node0x5eed9785a9d0&#45;&gt;Node0x5eed9785a290</title>
<path fill="none" stroke="#4a6fa5" d="M286.24,-388C315.91,-388 348.2,-388 379.67,-388"/>
<polygon fill="#4a6fa5" stroke="#4a6fa5" points="379.95,-390.1 385.95,-388 379.95,-385.9 379.95,-390.1"/>
</g>
<!-- Node0x5eed9785da10 -->
<g id="node55" class="node">
<title>Node0x5eed9785da10</title>
<path fill="#f0f4ff" stroke="black" d="M652,-94C652,-94 448,-94 448,-94 442,-94 436,-88 436,-82 436,-82 436,-70 436,-70 436,-64 442,-58 448,-58 448,-58 652,-58 652,-58 658,-58 664,-64 664,-70 664,-70 664,-82 664,-82 664,-88 658,-94 652,-94"/>
<text text-anchor="middle" x="550" y="-73.8" font-family="Courier,monospace" font-size="9.00">CIccTagMultiProcessElement::NumElements()</text>
</g>
<!-- Node0x5eed9785a9d0&#45;&gt;Node0x5eed9785da10 -->
<g id="edge136" class="edge">
<title>Node0x5eed9785a9d0&#45;&gt;Node0x5eed9785da10</title>
<path fill="none" stroke="#4a6fa5" d="M173.33,-369.68C197.71,-318.3 274.38,-172.2 386,-105 399.37,-96.95 414.4,-91.01 429.78,-86.65"/>
<polygon fill="#4a6fa5" stroke="#4a6fa5" points="430.68,-88.58 435.93,-84.99 429.59,-84.53 430.68,-88.58"/>
</g>
<!-- Node0x5eed97854b30 -->
<g id="node56" class="node">
<title>Node0x5eed97854b30</title>
<path fill="#f0f4ff" stroke="black" d="M649.5,-36C649.5,-36 450.5,-36 450.5,-36 444.5,-36 438.5,-30 438.5,-24 438.5,-24 438.5,-12 438.5,-12 438.5,-6 444.5,0 450.5,0 450.5,0 649.5,0 649.5,0 655.5,0 661.5,-6 661.5,-12 661.5,-12 661.5,-24 661.5,-24 661.5,-30 655.5,-36 649.5,-36"/>
<text text-anchor="middle" x="550" y="-15.8" font-family="Courier,monospace" font-size="9.00">CIccTagMultiProcessElement::GetElement()</text>
</g>
<!-- Node0x5eed9785a9d0&#45;&gt;Node0x5eed97854b30 -->
<g id="edge137" class="edge">
<title>Node0x5eed9785a9d0&#45;&gt;Node0x5eed97854b30</title>
<path fill="none" stroke="#4a6fa5" d="M170.87,-369.81C190.62,-311.83 260.5,-130.29 386,-47 399.86,-37.8 415.79,-31.28 432.14,-26.69"/>
<polygon fill="#4a6fa5" stroke="#4a6fa5" points="432.92,-28.66 438.18,-25.09 431.85,-24.6 432.92,-28.66"/>
</g>
<!-- Node0x5eed97854870 -->
<g id="node57" class="node">
<title>Node0x5eed97854870</title>
<path fill="#f0f4ff" stroke="black" d="M618,-152C618,-152 482,-152 482,-152 476,-152 470,-146 470,-140 470,-140 470,-128 470,-128 470,-122 476,-116 482,-116 482,-116 618,-116 618,-116 624,-116 630,-122 630,-128 630,-128 630,-140 630,-140 630,-146 624,-152 618,-152"/>
<text text-anchor="middle" x="550" y="-131.8" font-family="Courier,monospace" font-size="9.00">CIccMpeCalculator::GetElem()</text>
</g>
<!-- Node0x5eed9785a9d0&#45;&gt;Node0x5eed97854870 -->
<g id="edge139" class="edge">
<title>Node0x5eed9785a9d0&#45;&gt;Node0x5eed97854870</title>
<path fill="none" stroke="#4a6fa5" d="M176.85,-369.73C206.32,-325.95 287.68,-214.84 386,-163 409.66,-150.53 437.65,-143.29 463.7,-139.13"/>
<polygon fill="#4a6fa5" stroke="#4a6fa5" points="464.3,-141.16 469.92,-138.19 463.68,-137.01 464.3,-141.16"/>
</g>
<!-- Node0x5eed9785a290&#45;&gt;Node0x5eed97836f90 -->
<g id="edge143" class="edge">
<title>Node0x5eed9785a290&#45;&gt;Node0x5eed97836f90</title>
<path fill="none" stroke="#4a6fa5" d="M702.5,-406.26C706.63,-409.44 710.49,-413.01 714,-417 802.88,-518.08 723.22,-1501.55 772,-1627 784.66,-1659.56 811.81,-1689.39 832.34,-1708.68"/>
<polygon fill="#4a6fa5" stroke="#4a6fa5" points="831.04,-1710.34 836.88,-1712.87 833.89,-1707.25 831.04,-1710.34"/>
</g>
<!-- Node0x5eed9785a290&#45;&gt;Node0x5eed972593c0 -->
<g id="edge144" class="edge">
<title>Node0x5eed9785a290&#45;&gt;Node0x5eed972593c0</title>
<path fill="none" stroke="#4a6fa5" d="M701.93,-406.21C706.26,-409.4 710.3,-412.98 714,-417 808.28,-519.49 754.86,-902.79 772,-1041 797.65,-1247.87 840.5,-1496.12 854.17,-1573.66"/>
<polygon fill="#4a6fa5" stroke="#4a6fa5" points="852.14,-1574.24 855.25,-1579.79 856.28,-1573.51 852.14,-1574.24"/>
</g>
<!-- Node0x5eed978ad290 -->
<g id="node58" class="node">
<title>Node0x5eed978ad290</title>
<path fill="#f0f4ff" stroke="black" d="M565,-2766C565,-2766 535,-2766 535,-2766 529,-2766 523,-2760 523,-2754 523,-2754 523,-2742 523,-2742 523,-2736 529,-2730 535,-2730 535,-2730 565,-2730 565,-2730 571,-2730 577,-2736 577,-2742 577,-2742 577,-2754 577,-2754 577,-2760 571,-2766 565,-2766"/>
<text text-anchor="middle" x="550" y="-2745.8" font-family="Courier,monospace" font-size="9.00">base()</text>
</g>
<!-- Node0x5eed978b42e0 -->
<g id="node59" class="node">
<title>Node0x5eed978b42e0</title>
<path fill="#f0f4ff" stroke="black" d="M179,-2824C179,-2824 149,-2824 149,-2824 143,-2824 137,-2818 137,-2812 137,-2812 137,-2800 137,-2800 137,-2794 143,-2788 149,-2788 149,-2788 179,-2788 179,-2788 185,-2788 191,-2794 191,-2800 191,-2800 191,-2812 191,-2812 191,-2818 185,-2824 179,-2824"/>
<text text-anchor="middle" x="164" y="-2803.8" font-family="Courier,monospace" font-size="9.00">base()</text>
</g>
<!-- Node0x5eed978b2a20 -->
<g id="node60" class="node">
<title>Node0x5eed978b2a20</title>
<path fill="#f0f4ff" stroke="black" d="M208,-2882C208,-2882 120,-2882 120,-2882 114,-2882 108,-2876 108,-2870 108,-2870 108,-2858 108,-2858 108,-2852 114,-2846 120,-2846 120,-2846 208,-2846 208,-2846 214,-2846 220,-2852 220,-2858 220,-2858 220,-2870 220,-2870 220,-2876 214,-2882 208,-2882"/>
<text text-anchor="middle" x="164" y="-2861.8" font-family="Courier,monospace" font-size="9.00">__normal_iterator()</text>
</g>
<!-- Node0x5eed97860c70 -->
<g id="node61" class="node">
<title>Node0x5eed97860c70</title>
<path fill="#f0f4ff" stroke="black" d="M208,-2940C208,-2940 120,-2940 120,-2940 114,-2940 108,-2934 108,-2928 108,-2928 108,-2916 108,-2916 108,-2910 114,-2904 120,-2904 120,-2904 208,-2904 208,-2904 214,-2904 220,-2910 220,-2916 220,-2916 220,-2928 220,-2928 220,-2934 214,-2940 208,-2940"/>
<text text-anchor="middle" x="164" y="-2919.8" font-family="Courier,monospace" font-size="9.00">__normal_iterator()</text>
</g>
<!-- Node0x5eed978c6bf0 -->
<g id="node62" class="node">
<title>Node0x5eed978c6bf0</title>
<path fill="#f0f4ff" stroke="black" d="M316,-2766C316,-2766 12,-2766 12,-2766 6,-2766 0,-2760 0,-2754 0,-2754 0,-2742 0,-2742 0,-2736 6,-2730 12,-2730 12,-2730 316,-2730 316,-2730 322,-2730 328,-2736 328,-2742 328,-2742 328,-2754 328,-2754 328,-2760 322,-2766 316,-2766"/>
<text text-anchor="middle" x="164" y="-2745.8" font-family="Courier,monospace" font-size="9.00">bool __gnu_cxx::operator&lt; (__gnu_cxx::__normal_iterator c...</text>
</g>
<!-- Node0x5eed978c6bf0&#45;&gt;Node0x5eed978ad290 -->
<g id="edge145" class="edge">
<title>Node0x5eed978c6bf0&#45;&gt;Node0x5eed978ad290</title>
<path fill="none" stroke="#4a6fa5" d="M328.13,-2748C398.85,-2748 474.93,-2748 516.77,-2748"/>
<polygon fill="#4a6fa5" stroke="#4a6fa5" points="516.94,-2750.1 522.94,-2748 516.94,-2745.9 516.94,-2750.1"/>
</g>
<!-- Node0x5eed978c8b50 -->
<g id="node63" class="node">
<title>Node0x5eed978c8b50</title>
<path fill="#f0f4ff" stroke="black" d="M260.5,-2998C260.5,-2998 67.5,-2998 67.5,-2998 61.5,-2998 55.5,-2992 55.5,-2986 55.5,-2986 55.5,-2974 55.5,-2974 55.5,-2968 61.5,-2962 67.5,-2962 67.5,-2962 260.5,-2962 260.5,-2962 266.5,-2962 272.5,-2968 272.5,-2974 272.5,-2974 272.5,-2986 272.5,-2986 272.5,-2992 266.5,-2998 260.5,-2998"/>
<text text-anchor="middle" x="164" y="-2977.8" font-family="Courier,monospace" font-size="9.00">__ops::_Iter_less_val::_Iter_less_val()</text>
</g>
</g>
</svg>
