<?xml version="1.0" encoding="UTF-8" standalone="no"?>
<!DOCTYPE svg PUBLIC "-//W3C//DTD SVG 1.1//EN"
 "http://www.w3.org/Graphics/SVG/1.1/DTD/svg11.dtd">
<!-- Generated by graphviz version 2.43.0 (0)
 -->
<!-- Title: Call graph: /home/h02332/po/research/call&#45;graph/analyzer/IccHeuristicsXmlSafety.ll Pages: 1 -->
<svg width="859pt" height="2631pt"
 viewBox="0.00 0.00 859.20 2631.20" xmlns="http://www.w3.org/2000/svg" xmlns:xlink="http://www.w3.org/1999/xlink">
<g id="graph0" class="graph" transform="scale(1 1) rotate(0) translate(21.6 2609.6)">
<title>Call graph: /home/h02332/po/research/call&#45;graph/analyzer/IccHeuristicsXmlSafety.ll</title>
<polygon fill="white" stroke="transparent" points="-21.6,21.6 -21.6,-2609.6 837.6,-2609.6 837.6,21.6 -21.6,21.6"/>
<!-- Node0x63d947661350 -->
<g id="node1" class="node">
<title>Node0x63d947661350</title>
<path fill="#f0f4ff" stroke="black" d="M544,-1428C544,-1428 356,-1428 356,-1428 350,-1428 344,-1422 344,-1416 344,-1416 344,-1404 344,-1404 344,-1398 350,-1392 356,-1392 356,-1392 544,-1392 544,-1392 550,-1392 556,-1398 556,-1404 556,-1404 556,-1416 556,-1416 556,-1422 550,-1428 544,-1428"/>
<text text-anchor="middle" x="450" y="-1407.8" font-family="Courier,monospace" font-size="9.00">CIccTagXmlFactory::CIccTagXmlFactory()</text>
</g>
<!-- Node0x63d9475736d0 -->
<g id="node2" class="node">
<title>Node0x63d9475736d0</title>
<path fill="#f0f4ff" stroke="black" d="M804,-1428C804,-1428 647,-1428 647,-1428 641,-1428 635,-1422 635,-1416 635,-1416 635,-1404 635,-1404 635,-1398 641,-1392 647,-1392 647,-1392 804,-1392 804,-1392 810,-1392 816,-1398 816,-1404 816,-1404 816,-1416 816,-1416 816,-1422 810,-1428 804,-1428"/>
<text text-anchor="middle" x="725.5" y="-1407.8" font-family="Courier,monospace" font-size="9.00">IIccTagFactory::IIccTagFactory()</text>
</g>
<!-- Node0x63d947661350&#45;&gt;Node0x63d9475736d0 -->
<g id="edge1" class="edge">
<title>Node0x63d947661350&#45;&gt;Node0x63d9475736d0</title>
<path fill="none" stroke="#4a6fa5" d="M556.35,-1410C580.11,-1410 605.21,-1410 628.56,-1410"/>
<polygon fill="#4a6fa5" stroke="#4a6fa5" points="628.77,-1412.1 634.77,-1410 628.77,-1407.9 628.77,-1412.1"/>
</g>
<!-- Node0x63d94756d220 -->
<g id="node3" class="node">
<title>Node0x63d94756d220</title>
<path fill="#f0f4ff" stroke="black" d="M544,-1370C544,-1370 356,-1370 356,-1370 350,-1370 344,-1364 344,-1358 344,-1358 344,-1346 344,-1346 344,-1340 350,-1334 356,-1334 356,-1334 544,-1334 544,-1334 550,-1334 556,-1340 556,-1346 556,-1346 556,-1358 556,-1358 556,-1364 550,-1370 544,-1370"/>
<text text-anchor="middle" x="450" y="-1349.8" font-family="Courier,monospace" font-size="9.00">CIccMpeXmlFactory::CIccMpeXmlFactory()</text>
</g>
<!-- Node0x63d947573950 -->
<g id="node4" class="node">
<title>Node0x63d947573950</title>
<path fill="#f0f4ff" stroke="black" d="M804,-1370C804,-1370 647,-1370 647,-1370 641,-1370 635,-1364 635,-1358 635,-1358 635,-1346 635,-1346 635,-1340 641,-1334 647,-1334 647,-1334 804,-1334 804,-1334 810,-1334 816,-1340 816,-1346 816,-1346 816,-1358 816,-1358 816,-1364 810,-1370 804,-1370"/>
<text text-anchor="middle" x="725.5" y="-1349.8" font-family="Courier,monospace" font-size="9.00">IIccMpeFactory::IIccMpeFactory()</text>
</g>
<!-- Node0x63d94756d220&#45;&gt;Node0x63d947573950 -->
<g id="edge2" class="edge">
<title>Node0x63d94756d220&#45;&gt;Node0x63d947573950</title>
<path fill="none" stroke="#4a6fa5" d="M556.35,-1352C580.11,-1352 605.21,-1352 628.56,-1352"/>
<polygon fill="#4a6fa5" stroke="#4a6fa5" points="628.77,-1354.1 634.77,-1352 628.77,-1349.9 628.77,-1354.1"/>
</g>
<!-- Node0x63d94757aa80 -->
<g id="node5" class="node">
<title>Node0x63d94757aa80</title>
<path fill="#f0f4ff" stroke="black" d="M213.5,-1776C213.5,-1776 51.5,-1776 51.5,-1776 45.5,-1776 39.5,-1770 39.5,-1764 39.5,-1764 39.5,-1752 39.5,-1752 39.5,-1746 45.5,-1740 51.5,-1740 51.5,-1740 213.5,-1740 213.5,-1740 219.5,-1740 225.5,-1746 225.5,-1752 225.5,-1752 225.5,-1764 225.5,-1764 225.5,-1770 219.5,-1776 213.5,-1776"/>
<text text-anchor="middle" x="132.5" y="-1755.8" font-family="Courier,monospace" font-size="9.00">IIccTagFactory::~IIccTagFactory()</text>
</g>
<!-- Node0x63d94765d3b0 -->
<g id="node6" class="node">
<title>Node0x63d94765d3b0</title>
<path fill="#f0f4ff" stroke="black" d="M237,-1138C237,-1138 28,-1138 28,-1138 22,-1138 16,-1132 16,-1126 16,-1126 16,-1114 16,-1114 16,-1108 22,-1102 28,-1102 28,-1102 237,-1102 237,-1102 243,-1102 249,-1108 249,-1114 249,-1114 249,-1126 249,-1126 249,-1132 243,-1138 237,-1138"/>
<text text-anchor="middle" x="132.5" y="-1117.8" font-family="Courier,monospace" font-size="9.00">RunHeuristic_H142_XmlSerializationSafety()</text>
</g>
<!-- Node0x63d94765d3b0&#45;&gt;Node0x63d947661350 -->
<g id="edge9" class="edge">
<title>Node0x63d94765d3b0&#45;&gt;Node0x63d947661350</title>
<path fill="none" stroke="#4a6fa5" d="M141.2,-1138.34C162.4,-1186.5 226.56,-1317.2 323,-1381 327.74,-1384.14 332.78,-1386.94 338.01,-1389.44"/>
<polygon fill="#4a6fa5" stroke="#4a6fa5" points="337.42,-1391.48 343.75,-1392.04 339.15,-1387.65 337.42,-1391.48"/>
</g>
<!-- Node0x63d94765d3b0&#45;&gt;Node0x63d94756d220 -->
<g id="edge12" class="edge">
<title>Node0x63d94765d3b0&#45;&gt;Node0x63d94756d220</title>
<path fill="none" stroke="#4a6fa5" d="M144.94,-1138.28C171.14,-1178.51 239.67,-1274.96 323,-1323 328.66,-1326.26 334.66,-1329.16 340.85,-1331.73"/>
<polygon fill="#4a6fa5" stroke="#4a6fa5" points="340.23,-1333.74 346.58,-1334 341.77,-1329.84 340.23,-1333.74"/>
</g>
<!-- Node0x63d947670780 -->
<g id="node7" class="node">
<title>Node0x63d947670780</title>
<path fill="#f0f4ff" stroke="black" d="M476,-500C476,-500 424,-500 424,-500 418,-500 412,-494 412,-488 412,-488 412,-476 412,-476 412,-470 418,-464 424,-464 424,-464 476,-464 476,-464 482,-464 488,-470 488,-476 488,-476 488,-488 488,-488 488,-494 482,-500 476,-500"/>
<text text-anchor="middle" x="450" y="-479.8" font-family="Courier,monospace" font-size="9.00">ColorReset()</text>
</g>
<!-- Node0x63d94765d3b0&#45;&gt;Node0x63d947670780 -->
<g id="edge3" class="edge">
<title>Node0x63d94765d3b0&#45;&gt;Node0x63d947670780</title>
<path fill="none" stroke="#4a6fa5" d="M138.98,-1101.95C169.5,-1001.56 317.18,-516.4 323,-511 345.19,-490.43 378.95,-483.48 405.94,-481.51"/>
<polygon fill="#4a6fa5" stroke="#4a6fa5" points="406.08,-483.61 411.94,-481.15 405.82,-479.41 406.08,-483.61"/>
</g>
<!-- Node0x63d94765c3e0 -->
<g id="node8" class="node">
<title>Node0x63d94765c3e0</title>
<path fill="#f0f4ff" stroke="black" d="M465,-1254C465,-1254 435,-1254 435,-1254 429,-1254 423,-1248 423,-1242 423,-1242 423,-1230 423,-1230 423,-1224 429,-1218 435,-1218 435,-1218 465,-1218 465,-1218 471,-1218 477,-1224 477,-1230 477,-1230 477,-1242 477,-1242 477,-1248 471,-1254 465,-1254"/>
<text text-anchor="middle" x="450" y="-1233.8" font-family="Courier,monospace" font-size="9.00">fork</text>
</g>
<!-- Node0x63d94765d3b0&#45;&gt;Node0x63d94765c3e0 -->
<g id="edge4" class="edge">
<title>Node0x63d94765d3b0&#45;&gt;Node0x63d94765c3e0</title>
<path fill="none" stroke="#4a6fa5" d="M167.22,-1138.04C204.46,-1157.35 266.63,-1187.8 323,-1207 354.28,-1217.65 391.24,-1225.64 417.02,-1230.51"/>
<polygon fill="#4a6fa5" stroke="#4a6fa5" points="416.71,-1232.59 422.99,-1231.62 417.48,-1228.46 416.71,-1232.59"/>
</g>
<!-- Node0x63d94758d5d0 -->
<g id="node9" class="node">
<title>Node0x63d94758d5d0</title>
<path fill="#f0f4ff" stroke="black" d="M486.5,-1196C486.5,-1196 413.5,-1196 413.5,-1196 407.5,-1196 401.5,-1190 401.5,-1184 401.5,-1184 401.5,-1172 401.5,-1172 401.5,-1166 407.5,-1160 413.5,-1160 413.5,-1160 486.5,-1160 486.5,-1160 492.5,-1160 498.5,-1166 498.5,-1172 498.5,-1172 498.5,-1184 498.5,-1184 498.5,-1190 492.5,-1196 486.5,-1196"/>
<text text-anchor="middle" x="450" y="-1175.8" font-family="Courier,monospace" font-size="9.00">__errno_location</text>
</g>
<!-- Node0x63d94765d3b0&#45;&gt;Node0x63d94758d5d0 -->
<g id="edge5" class="edge">
<title>Node0x63d94765d3b0&#45;&gt;Node0x63d94758d5d0</title>
<path fill="none" stroke="#4a6fa5" d="M231.6,-1138.03C285.61,-1147.96 350.56,-1159.9 395.33,-1168.13"/>
<polygon fill="#4a6fa5" stroke="#4a6fa5" points="394.95,-1170.2 401.23,-1169.22 395.71,-1166.07 394.95,-1170.2"/>
</g>
<!-- Node0x63d947573260 -->
<g id="node10" class="node">
<title>Node0x63d947573260</title>
<path fill="#f0f4ff" stroke="black" d="M483.5,-442C483.5,-442 416.5,-442 416.5,-442 410.5,-442 404.5,-436 404.5,-430 404.5,-430 404.5,-418 404.5,-418 404.5,-412 410.5,-406 416.5,-406 416.5,-406 483.5,-406 483.5,-406 489.5,-406 495.5,-412 495.5,-418 495.5,-418 495.5,-430 495.5,-430 495.5,-436 489.5,-442 483.5,-442"/>
<text text-anchor="middle" x="450" y="-421.8" font-family="Courier,monospace" font-size="9.00">ColorCritical()</text>
</g>
<!-- Node0x63d94765d3b0&#45;&gt;Node0x63d947573260 -->
<g id="edge6" class="edge">
<title>Node0x63d94765d3b0&#45;&gt;Node0x63d947573260</title>
<path fill="none" stroke="#4a6fa5" d="M139.33,-1101.86C158.37,-1042.38 220.08,-847.75 265,-685 293.27,-582.55 247.14,-527.45 323,-453 342.73,-433.64 372.62,-426.2 398.35,-423.68"/>
<polygon fill="#4a6fa5" stroke="#4a6fa5" points="398.64,-425.76 404.45,-423.17 398.29,-421.58 398.64,-425.76"/>
</g>
<!-- Node0x63d9475fc1e0 -->
<g id="node11" class="node">
<title>Node0x63d9475fc1e0</title>
<path fill="#f0f4ff" stroke="black" d="M465,-1138C465,-1138 435,-1138 435,-1138 429,-1138 423,-1132 423,-1126 423,-1126 423,-1114 423,-1114 423,-1108 429,-1102 435,-1102 435,-1102 465,-1102 465,-1102 471,-1102 477,-1108 477,-1114 477,-1114 477,-1126 477,-1126 477,-1132 471,-1138 465,-1138"/>
<text text-anchor="middle" x="450" y="-1117.8" font-family="Courier,monospace" font-size="9.00">dup2</text>
</g>
<!-- Node0x63d94765d3b0&#45;&gt;Node0x63d9475fc1e0 -->
<g id="edge7" class="edge">
<title>Node0x63d94765d3b0&#45;&gt;Node0x63d9475fc1e0</title>
<path fill="none" stroke="#4a6fa5" d="M249.19,-1120C308.95,-1120 377.4,-1120 416.68,-1120"/>
<polygon fill="#4a6fa5" stroke="#4a6fa5" points="416.73,-1122.1 422.73,-1120 416.73,-1117.9 416.73,-1122.1"/>
</g>
<!-- Node0x63d947572460 -->
<g id="node12" class="node">
<title>Node0x63d947572460</title>
<path fill="#f0f4ff" stroke="black" d="M465,-1080C465,-1080 435,-1080 435,-1080 429,-1080 423,-1074 423,-1068 423,-1068 423,-1056 423,-1056 423,-1050 429,-1044 435,-1044 435,-1044 465,-1044 465,-1044 471,-1044 477,-1050 477,-1056 477,-1056 477,-1068 477,-1068 477,-1074 471,-1080 465,-1080"/>
<text text-anchor="middle" x="450" y="-1059.8" font-family="Courier,monospace" font-size="9.00">waitpid</text>
</g>
<!-- Node0x63d94765d3b0&#45;&gt;Node0x63d947572460 -->
<g id="edge8" class="edge">
<title>Node0x63d94765d3b0&#45;&gt;Node0x63d947572460</title>
<path fill="none" stroke="#4a6fa5" d="M231.6,-1101.97C295.04,-1090.3 373.59,-1075.86 416.77,-1067.92"/>
<polygon fill="#4a6fa5" stroke="#4a6fa5" points="417.36,-1069.95 422.88,-1066.8 416.6,-1065.82 417.36,-1069.95"/>
</g>
<!-- Node0x63d947670530 -->
<g id="node13" class="node">
<title>Node0x63d947670530</title>
<path fill="#f0f4ff" stroke="black" d="M465,-1022C465,-1022 435,-1022 435,-1022 429,-1022 423,-1016 423,-1010 423,-1010 423,-998 423,-998 423,-992 429,-986 435,-986 435,-986 465,-986 465,-986 471,-986 477,-992 477,-998 477,-998 477,-1010 477,-1010 477,-1016 471,-1022 465,-1022"/>
<text text-anchor="middle" x="450" y="-1001.8" font-family="Courier,monospace" font-size="9.00">kill</text>
</g>
<!-- Node0x63d94765d3b0&#45;&gt;Node0x63d947670530 -->
<g id="edge10" class="edge">
<title>Node0x63d94765d3b0&#45;&gt;Node0x63d947670530</title>
<path fill="none" stroke="#4a6fa5" d="M167.22,-1101.96C204.46,-1082.65 266.63,-1052.2 323,-1033 354.28,-1022.35 391.24,-1014.36 417.02,-1009.49"/>
<polygon fill="#4a6fa5" stroke="#4a6fa5" points="417.48,-1011.54 422.99,-1008.38 416.71,-1007.41 417.48,-1011.54"/>
</g>
<!-- Node0x63d947578570 -->
<g id="node14" class="node">
<title>Node0x63d947578570</title>
<path fill="#f0f4ff" stroke="black" d="M465,-964C465,-964 435,-964 435,-964 429,-964 423,-958 423,-952 423,-952 423,-940 423,-940 423,-934 429,-928 435,-928 435,-928 465,-928 465,-928 471,-928 477,-934 477,-940 477,-940 477,-952 477,-952 477,-958 471,-964 465,-964"/>
<text text-anchor="middle" x="450" y="-943.8" font-family="Courier,monospace" font-size="9.00">usleep</text>
</g>
<!-- Node0x63d94765d3b0&#45;&gt;Node0x63d947578570 -->
<g id="edge11" class="edge">
<title>Node0x63d94765d3b0&#45;&gt;Node0x63d947578570</title>
<path fill="none" stroke="#4a6fa5" d="M151.59,-1101.76C183.36,-1070.81 252.53,-1008.15 323,-975 353.09,-960.85 390.54,-953.36 416.76,-949.57"/>
<polygon fill="#4a6fa5" stroke="#4a6fa5" points="417.19,-951.63 422.84,-948.73 416.61,-947.47 417.19,-951.63"/>
</g>
<!-- Node0x63d947572c40 -->
<g id="node15" class="node">
<title>Node0x63d947572c40</title>
<path fill="#f0f4ff" stroke="black" d="M531,-1718C531,-1718 369,-1718 369,-1718 363,-1718 357,-1712 357,-1706 357,-1706 357,-1694 357,-1694 357,-1688 363,-1682 369,-1682 369,-1682 531,-1682 531,-1682 537,-1682 543,-1688 543,-1694 543,-1694 543,-1706 543,-1706 543,-1712 537,-1718 531,-1718"/>
<text text-anchor="middle" x="450" y="-1697.8" font-family="Courier,monospace" font-size="9.00">CIccProfileXml::~CIccProfileXml()</text>
</g>
<!-- Node0x63d94765d3b0&#45;&gt;Node0x63d947572c40 -->
<g id="edge13" class="edge">
<title>Node0x63d94765d3b0&#45;&gt;Node0x63d947572c40</title>
<path fill="none" stroke="#4a6fa5" d="M133.79,-1138.1C136.07,-1215.36 155.71,-1520.42 323,-1671 331.16,-1678.35 340.81,-1683.95 351.08,-1688.2"/>
<polygon fill="#4a6fa5" stroke="#4a6fa5" points="350.48,-1690.22 356.84,-1690.42 352,-1686.3 350.48,-1690.22"/>
</g>
<!-- Node0x63d94756de70 -->
<g id="node16" class="node">
<title>Node0x63d94756de70</title>
<path fill="#f0f4ff" stroke="black" d="M520.5,-906C520.5,-906 379.5,-906 379.5,-906 373.5,-906 367.5,-900 367.5,-894 367.5,-894 367.5,-882 367.5,-882 367.5,-876 373.5,-870 379.5,-870 379.5,-870 520.5,-870 520.5,-870 526.5,-870 532.5,-876 532.5,-882 532.5,-882 532.5,-894 532.5,-894 532.5,-900 526.5,-906 520.5,-906"/>
<text text-anchor="middle" x="450" y="-885.8" font-family="Courier,monospace" font-size="9.00">CIccTagCreator::PushFactory()</text>
</g>
<!-- Node0x63d94765d3b0&#45;&gt;Node0x63d94756de70 -->
<g id="edge14" class="edge">
<title>Node0x63d94765d3b0&#45;&gt;Node0x63d94756de70</title>
<path fill="none" stroke="#4a6fa5" d="M144.94,-1101.72C171.14,-1061.49 239.67,-965.04 323,-917 334.72,-910.24 347.91,-905.06 361.22,-901.08"/>
<polygon fill="#4a6fa5" stroke="#4a6fa5" points="362.14,-903 367.34,-899.34 360.99,-898.97 362.14,-903"/>
</g>
<!-- Node0x63d94756d510 -->
<g id="node17" class="node">
<title>Node0x63d94756d510</title>
<path fill="#f0f4ff" stroke="black" d="M520.5,-848C520.5,-848 379.5,-848 379.5,-848 373.5,-848 367.5,-842 367.5,-836 367.5,-836 367.5,-824 367.5,-824 367.5,-818 373.5,-812 379.5,-812 379.5,-812 520.5,-812 520.5,-812 526.5,-812 532.5,-818 532.5,-824 532.5,-824 532.5,-836 532.5,-836 532.5,-842 526.5,-848 520.5,-848"/>
<text text-anchor="middle" x="450" y="-827.8" font-family="Courier,monospace" font-size="9.00">CIccMpeCreator::PushFactory()</text>
</g>
<!-- Node0x63d94765d3b0&#45;&gt;Node0x63d94756d510 -->
<g id="edge15" class="edge">
<title>Node0x63d94765d3b0&#45;&gt;Node0x63d94756d510</title>
<path fill="none" stroke="#4a6fa5" d="M141.2,-1101.66C162.4,-1053.5 226.56,-922.8 323,-859 334.55,-851.36 347.85,-845.72 361.38,-841.55"/>
<polygon fill="#4a6fa5" stroke="#4a6fa5" points="362.02,-843.56 367.19,-839.86 360.85,-839.52 362.02,-843.56"/>
</g>
<!-- Node0x63d94766ca90 -->
<g id="node18" class="node">
<title>Node0x63d94766ca90</title>
<path fill="#f0f4ff" stroke="black" d="M528.5,-674C528.5,-674 371.5,-674 371.5,-674 365.5,-674 359.5,-668 359.5,-662 359.5,-662 359.5,-650 359.5,-650 359.5,-644 365.5,-638 371.5,-638 371.5,-638 528.5,-638 528.5,-638 534.5,-638 540.5,-644 540.5,-650 540.5,-650 540.5,-662 540.5,-662 540.5,-668 534.5,-674 528.5,-674"/>
<text text-anchor="middle" x="450" y="-653.8" font-family="Courier,monospace" font-size="9.00">CIccProfileXml::CIccProfileXml()</text>
</g>
<!-- Node0x63d94765d3b0&#45;&gt;Node0x63d94766ca90 -->
<g id="edge16" class="edge">
<title>Node0x63d94765d3b0&#45;&gt;Node0x63d94766ca90</title>
<path fill="none" stroke="#4a6fa5" d="M135.65,-1101.68C144.57,-1034.51 184.85,-799.74 323,-685 331.97,-677.55 342.49,-671.93 353.56,-667.7"/>
<polygon fill="#4a6fa5" stroke="#4a6fa5" points="354.45,-669.61 359.39,-665.62 353.03,-665.66 354.45,-669.61"/>
</g>
<!-- Node0x63d94756d380 -->
<g id="node19" class="node">
<title>Node0x63d94756d380</title>
<path fill="#f0f4ff" stroke="black" d="M507.5,-790C507.5,-790 392.5,-790 392.5,-790 386.5,-790 380.5,-784 380.5,-778 380.5,-778 380.5,-766 380.5,-766 380.5,-760 386.5,-754 392.5,-754 392.5,-754 507.5,-754 507.5,-754 513.5,-754 519.5,-760 519.5,-766 519.5,-766 519.5,-778 519.5,-778 519.5,-784 513.5,-790 507.5,-790"/>
<text text-anchor="middle" x="450" y="-769.8" font-family="Courier,monospace" font-size="9.00">CIccFileIO::CIccFileIO()</text>
</g>
<!-- Node0x63d94765d3b0&#45;&gt;Node0x63d94756d380 -->
<g id="edge17" class="edge">
<title>Node0x63d94765d3b0&#45;&gt;Node0x63d94756d380</title>
<path fill="none" stroke="#4a6fa5" d="M138.71,-1101.72C155.4,-1046.66 212.95,-881.32 323,-801 337.91,-790.12 356.23,-783.24 374.24,-778.91"/>
<polygon fill="#4a6fa5" stroke="#4a6fa5" points="374.94,-780.9 380.33,-777.53 374.02,-776.81 374.94,-780.9"/>
</g>
<!-- Node0x63d94756b8e0 -->
<g id="node20" class="node">
<title>Node0x63d94756b8e0</title>
<path fill="#f0f4ff" stroke="black" d="M491.5,-732C491.5,-732 408.5,-732 408.5,-732 402.5,-732 396.5,-726 396.5,-720 396.5,-720 396.5,-708 396.5,-708 396.5,-702 402.5,-696 408.5,-696 408.5,-696 491.5,-696 491.5,-696 497.5,-696 503.5,-702 503.5,-708 503.5,-708 503.5,-720 503.5,-720 503.5,-726 497.5,-732 491.5,-732"/>
<text text-anchor="middle" x="450" y="-711.8" font-family="Courier,monospace" font-size="9.00">CIccFileIO::Open()</text>
</g>
<!-- Node0x63d94765d3b0&#45;&gt;Node0x63d94756b8e0 -->
<g id="edge18" class="edge">
<title>Node0x63d94765d3b0&#45;&gt;Node0x63d94756b8e0</title>
<path fill="none" stroke="#4a6fa5" d="M136.9,-1102C149.43,-1041 198.84,-840.49 323,-743 342.04,-728.05 367.41,-720.55 390.38,-716.87"/>
<polygon fill="#4a6fa5" stroke="#4a6fa5" points="390.85,-718.93 396.48,-715.98 390.24,-714.77 390.85,-718.93"/>
</g>
<!-- Node0x63d947572770 -->
<g id="node21" class="node">
<title>Node0x63d947572770</title>
<path fill="#f0f4ff" stroke="black" d="M510,-1660C510,-1660 390,-1660 390,-1660 384,-1660 378,-1654 378,-1648 378,-1648 378,-1636 378,-1636 378,-1630 384,-1624 390,-1624 390,-1624 510,-1624 510,-1624 516,-1624 522,-1630 522,-1636 522,-1636 522,-1648 522,-1648 522,-1654 516,-1660 510,-1660"/>
<text text-anchor="middle" x="450" y="-1639.8" font-family="Courier,monospace" font-size="9.00">CIccFileIO::~CIccFileIO()</text>
</g>
<!-- Node0x63d94765d3b0&#45;&gt;Node0x63d947572770 -->
<g id="edge19" class="edge">
<title>Node0x63d94765d3b0&#45;&gt;Node0x63d947572770</title>
<path fill="none" stroke="#4a6fa5" d="M134.61,-1138.16C140.07,-1210.48 170.33,-1480.44 323,-1613 336.63,-1624.83 354.13,-1632.09 371.72,-1636.49"/>
<polygon fill="#4a6fa5" stroke="#4a6fa5" points="371.36,-1638.56 377.68,-1637.87 372.31,-1634.47 371.36,-1638.56"/>
</g>
<!-- Node0x63d94766dfb0 -->
<g id="node22" class="node">
<title>Node0x63d94766dfb0</title>
<path fill="#f0f4ff" stroke="black" d="M494,-1602C494,-1602 406,-1602 406,-1602 400,-1602 394,-1596 394,-1590 394,-1590 394,-1578 394,-1578 394,-1572 400,-1566 406,-1566 406,-1566 494,-1566 494,-1566 500,-1566 506,-1572 506,-1578 506,-1578 506,-1590 506,-1590 506,-1596 500,-1602 494,-1602"/>
<text text-anchor="middle" x="450" y="-1581.8" font-family="Courier,monospace" font-size="9.00">CIccProfile::Read()</text>
</g>
<!-- Node0x63d94765d3b0&#45;&gt;Node0x63d94766dfb0 -->
<g id="edge20" class="edge">
<title>Node0x63d94765d3b0&#45;&gt;Node0x63d94766dfb0</title>
<path fill="none" stroke="#4a6fa5" d="M135.65,-1138.32C144.57,-1205.49 184.85,-1440.26 323,-1555 341.07,-1570.01 365.42,-1577.59 387.9,-1581.31"/>
<polygon fill="#4a6fa5" stroke="#4a6fa5" points="387.63,-1583.4 393.88,-1582.22 388.26,-1579.24 387.63,-1583.4"/>
</g>
<!-- Node0x63d94766f060 -->
<g id="node23" class="node">
<title>Node0x63d94766f060</title>
<path fill="#f0f4ff" stroke="black" d="M494,-1544C494,-1544 406,-1544 406,-1544 400,-1544 394,-1538 394,-1532 394,-1532 394,-1520 394,-1520 394,-1514 400,-1508 406,-1508 406,-1508 494,-1508 494,-1508 500,-1508 506,-1514 506,-1520 506,-1520 506,-1532 506,-1532 506,-1538 500,-1544 494,-1544"/>
<text text-anchor="middle" x="450" y="-1523.8" font-family="Courier,monospace" font-size="9.00">CIccFileIO::Close()</text>
</g>
<!-- Node0x63d94765d3b0&#45;&gt;Node0x63d94766f060 -->
<g id="edge21" class="edge">
<title>Node0x63d94765d3b0&#45;&gt;Node0x63d94766f060</title>
<path fill="none" stroke="#4a6fa5" d="M136.9,-1138C149.43,-1199 198.84,-1399.51 323,-1497 341.39,-1511.44 365.69,-1518.93 388.03,-1522.74"/>
<polygon fill="#4a6fa5" stroke="#4a6fa5" points="387.71,-1524.81 393.97,-1523.67 388.37,-1520.66 387.71,-1524.81"/>
</g>
<!-- Node0x63d947571c20 -->
<g id="node24" class="node">
<title>Node0x63d947571c20</title>
<path fill="#f0f4ff" stroke="black" d="M468,-1486C468,-1486 432,-1486 432,-1486 426,-1486 420,-1480 420,-1474 420,-1474 420,-1462 420,-1462 420,-1456 426,-1450 432,-1450 432,-1450 468,-1450 468,-1450 474,-1450 480,-1456 480,-1462 480,-1462 480,-1474 480,-1474 480,-1480 474,-1486 468,-1486"/>
<text text-anchor="middle" x="450" y="-1465.8" font-family="Courier,monospace" font-size="9.00">reserve()</text>
</g>
<!-- Node0x63d94765d3b0&#45;&gt;Node0x63d947571c20 -->
<g id="edge22" class="edge">
<title>Node0x63d94765d3b0&#45;&gt;Node0x63d947571c20</title>
<path fill="none" stroke="#4a6fa5" d="M138.71,-1138.28C155.4,-1193.34 212.95,-1358.68 323,-1439 349.35,-1458.23 386.4,-1464.98 413.5,-1467.21"/>
<polygon fill="#4a6fa5" stroke="#4a6fa5" points="413.68,-1469.33 419.82,-1467.66 413.98,-1465.14 413.68,-1469.33"/>
</g>
<!-- Node0x63d947571f40 -->
<g id="node25" class="node">
<title>Node0x63d947571f40</title>
<path fill="#f0f4ff" stroke="black" d="M504.5,-1312C504.5,-1312 395.5,-1312 395.5,-1312 389.5,-1312 383.5,-1306 383.5,-1300 383.5,-1300 383.5,-1288 383.5,-1288 383.5,-1282 389.5,-1276 395.5,-1276 395.5,-1276 504.5,-1276 504.5,-1276 510.5,-1276 516.5,-1282 516.5,-1288 516.5,-1288 516.5,-1300 516.5,-1300 516.5,-1306 510.5,-1312 504.5,-1312"/>
<text text-anchor="middle" x="450" y="-1291.8" font-family="Courier,monospace" font-size="9.00">CIccProfileXml::ToXml()</text>
</g>
<!-- Node0x63d94765d3b0&#45;&gt;Node0x63d947571f40 -->
<g id="edge23" class="edge">
<title>Node0x63d94765d3b0&#45;&gt;Node0x63d947571f40</title>
<path fill="none" stroke="#4a6fa5" d="M151.59,-1138.24C183.36,-1169.19 252.53,-1231.85 323,-1265 339.88,-1272.94 359.08,-1278.78 377.31,-1283.05"/>
<polygon fill="#4a6fa5" stroke="#4a6fa5" points="377.14,-1285.16 383.45,-1284.44 378.07,-1281.07 377.14,-1285.16"/>
</g>
<!-- Node0x63d9475766b0 -->
<g id="node32" class="node">
<title>Node0x63d9475766b0</title>
<path fill="#f0f4ff" stroke="black" d="M746,-500C746,-500 705,-500 705,-500 699,-500 693,-494 693,-488 693,-488 693,-476 693,-476 693,-470 699,-464 705,-464 705,-464 746,-464 746,-464 752,-464 758,-470 758,-476 758,-476 758,-488 758,-488 758,-494 752,-500 746,-500"/>
<text text-anchor="middle" x="725.5" y="-479.8" font-family="Courier,monospace" font-size="9.00">GetColor()</text>
</g>
<!-- Node0x63d947670780&#45;&gt;Node0x63d9475766b0 -->
<g id="edge31" class="edge">
<title>Node0x63d947670780&#45;&gt;Node0x63d9475766b0</title>
<path fill="none" stroke="#4a6fa5" d="M488.17,-482C540.24,-482 634.38,-482 686.76,-482"/>
<polygon fill="#4a6fa5" stroke="#4a6fa5" points="686.93,-484.1 692.93,-482 686.93,-479.9 686.93,-484.1"/>
</g>
<!-- Node0x63d947573260&#45;&gt;Node0x63d9475766b0 -->
<g id="edge30" class="edge">
<title>Node0x63d947573260&#45;&gt;Node0x63d9475766b0</title>
<path fill="none" stroke="#4a6fa5" d="M495.55,-433.45C548.79,-444.74 636.92,-463.43 686.88,-474.02"/>
<polygon fill="#4a6fa5" stroke="#4a6fa5" points="686.48,-476.08 692.78,-475.27 687.35,-471.97 686.48,-476.08"/>
</g>
<!-- Node0x63d947574340 -->
<g id="node31" class="node">
<title>Node0x63d947574340</title>
<path fill="#f0f4ff" stroke="black" d="M790.5,-1718C790.5,-1718 660.5,-1718 660.5,-1718 654.5,-1718 648.5,-1712 648.5,-1706 648.5,-1706 648.5,-1694 648.5,-1694 648.5,-1688 654.5,-1682 660.5,-1682 660.5,-1682 790.5,-1682 790.5,-1682 796.5,-1682 802.5,-1688 802.5,-1694 802.5,-1694 802.5,-1706 802.5,-1706 802.5,-1712 796.5,-1718 790.5,-1718"/>
<text text-anchor="middle" x="725.5" y="-1697.8" font-family="Courier,monospace" font-size="9.00">CIccProfile::~CIccProfile()</text>
</g>
<!-- Node0x63d947572c40&#45;&gt;Node0x63d947574340 -->
<g id="edge29" class="edge">
<title>Node0x63d947572c40&#45;&gt;Node0x63d947574340</title>
<path fill="none" stroke="#4a6fa5" d="M543.21,-1700C575.2,-1700 610.83,-1700 641.98,-1700"/>
<polygon fill="#4a6fa5" stroke="#4a6fa5" points="642.15,-1702.1 648.15,-1700 642.15,-1697.9 642.15,-1702.1"/>
</g>
<!-- Node0x63d947573420 -->
<g id="node26" class="node">
<title>Node0x63d947573420</title>
<path fill="#f0f4ff" stroke="black" d="M796,-906C796,-906 655,-906 655,-906 649,-906 643,-900 643,-894 643,-894 643,-882 643,-882 643,-876 649,-870 655,-870 655,-870 796,-870 796,-870 802,-870 808,-876 808,-882 808,-882 808,-894 808,-894 808,-900 802,-906 796,-906"/>
<text text-anchor="middle" x="725.5" y="-885.8" font-family="Courier,monospace" font-size="9.00">CIccTagCreator::GetInstance()</text>
</g>
<!-- Node0x63d94756de70&#45;&gt;Node0x63d947573420 -->
<g id="edge24" class="edge">
<title>Node0x63d94756de70&#45;&gt;Node0x63d947573420</title>
<path fill="none" stroke="#4a6fa5" d="M532.69,-888C565.44,-888 603.24,-888 636.59,-888"/>
<polygon fill="#4a6fa5" stroke="#4a6fa5" points="636.76,-890.1 642.76,-888 636.76,-885.9 636.76,-890.1"/>
</g>
<!-- Node0x63d947670d80 -->
<g id="node27" class="node">
<title>Node0x63d947670d80</title>
<path fill="#f0f4ff" stroke="black" d="M801,-964C801,-964 650,-964 650,-964 644,-964 638,-958 638,-952 638,-952 638,-940 638,-940 638,-934 644,-928 650,-928 650,-928 801,-928 801,-928 807,-928 813,-934 813,-940 813,-940 813,-952 813,-952 813,-958 807,-964 801,-964"/>
<text text-anchor="middle" x="725.5" y="-943.8" font-family="Courier,monospace" font-size="9.00">CIccTagCreator::DoPushFactory()</text>
</g>
<!-- Node0x63d94756de70&#45;&gt;Node0x63d947670d80 -->
<g id="edge25" class="edge">
<title>Node0x63d94756de70&#45;&gt;Node0x63d947670d80</title>
<path fill="none" stroke="#4a6fa5" d="M532.69,-905.32C564.4,-912.05 600.85,-919.78 633.41,-926.68"/>
<polygon fill="#4a6fa5" stroke="#4a6fa5" points="633.13,-928.77 639.44,-927.96 634,-924.66 633.13,-928.77"/>
</g>
<!-- Node0x63d947572e00 -->
<g id="node28" class="node">
<title>Node0x63d947572e00</title>
<path fill="#f0f4ff" stroke="black" d="M796,-790C796,-790 655,-790 655,-790 649,-790 643,-784 643,-778 643,-778 643,-766 643,-766 643,-760 649,-754 655,-754 655,-754 796,-754 796,-754 802,-754 808,-760 808,-766 808,-766 808,-778 808,-778 808,-784 802,-790 796,-790"/>
<text text-anchor="middle" x="725.5" y="-769.8" font-family="Courier,monospace" font-size="9.00">CIccMpeCreator::GetInstance()</text>
</g>
<!-- Node0x63d94756d510&#45;&gt;Node0x63d947572e00 -->
<g id="edge26" class="edge">
<title>Node0x63d94756d510&#45;&gt;Node0x63d947572e00</title>
<path fill="none" stroke="#4a6fa5" d="M532.69,-812.68C565.44,-805.73 603.24,-797.71 636.59,-790.64"/>
<polygon fill="#4a6fa5" stroke="#4a6fa5" points="637.33,-792.63 642.76,-789.33 636.45,-788.52 637.33,-792.63"/>
</g>
<!-- Node0x63d947574840 -->
<g id="node29" class="node">
<title>Node0x63d947574840</title>
<path fill="#f0f4ff" stroke="black" d="M801,-848C801,-848 650,-848 650,-848 644,-848 638,-842 638,-836 638,-836 638,-824 638,-824 638,-818 644,-812 650,-812 650,-812 801,-812 801,-812 807,-812 813,-818 813,-824 813,-824 813,-836 813,-836 813,-842 807,-848 801,-848"/>
<text text-anchor="middle" x="725.5" y="-827.8" font-family="Courier,monospace" font-size="9.00">CIccMpeCreator::DoPushFactory()</text>
</g>
<!-- Node0x63d94756d510&#45;&gt;Node0x63d947574840 -->
<g id="edge27" class="edge">
<title>Node0x63d94756d510&#45;&gt;Node0x63d947574840</title>
<path fill="none" stroke="#4a6fa5" d="M532.69,-830C563.68,-830 599.2,-830 631.18,-830"/>
<polygon fill="#4a6fa5" stroke="#4a6fa5" points="631.52,-832.1 637.52,-830 631.52,-827.9 631.52,-832.1"/>
</g>
<!-- Node0x63d947671ab0 -->
<g id="node30" class="node">
<title>Node0x63d947671ab0</title>
<path fill="#f0f4ff" stroke="black" d="M788,-674C788,-674 663,-674 663,-674 657,-674 651,-668 651,-662 651,-662 651,-650 651,-650 651,-644 657,-638 663,-638 663,-638 788,-638 788,-638 794,-638 800,-644 800,-650 800,-650 800,-662 800,-662 800,-668 794,-674 788,-674"/>
<text text-anchor="middle" x="725.5" y="-653.8" font-family="Courier,monospace" font-size="9.00">CIccProfile::CIccProfile()</text>
</g>
<!-- Node0x63d94766ca90&#45;&gt;Node0x63d947671ab0 -->
<g id="edge28" class="edge">
<title>Node0x63d94766ca90&#45;&gt;Node0x63d947671ab0</title>
<path fill="none" stroke="#4a6fa5" d="M540.55,-656C574.14,-656 612.05,-656 644.7,-656"/>
<polygon fill="#4a6fa5" stroke="#4a6fa5" points="644.73,-658.1 650.73,-656 644.73,-653.9 644.73,-658.1"/>
</g>
<!-- Node0x63d947576170 -->
<g id="node33" class="node">
<title>Node0x63d947576170</title>
<path fill="#f0f4ff" stroke="black" d="M237,-500C237,-500 28,-500 28,-500 22,-500 16,-494 16,-488 16,-488 16,-476 16,-476 16,-470 22,-464 28,-464 28,-464 237,-464 237,-464 243,-464 249,-470 249,-476 249,-476 249,-488 249,-488 249,-494 243,-500 237,-500"/>
<text text-anchor="middle" x="132.5" y="-479.8" font-family="Courier,monospace" font-size="9.00">RunHeuristic_H143_XmlArrayBoundsPrecheck()</text>
</g>
<!-- Node0x63d947576170&#45;&gt;Node0x63d947670780 -->
<g id="edge32" class="edge">
<title>Node0x63d947576170&#45;&gt;Node0x63d947670780</title>
<path fill="none" stroke="#4a6fa5" d="M249.19,-482C303.61,-482 365.24,-482 405.48,-482"/>
<polygon fill="#4a6fa5" stroke="#4a6fa5" points="405.75,-484.1 411.75,-482 405.75,-479.9 405.75,-484.1"/>
</g>
<!-- Node0x63d947576170&#45;&gt;Node0x63d947573260 -->
<g id="edge35" class="edge">
<title>Node0x63d947576170&#45;&gt;Node0x63d947573260</title>
<path fill="none" stroke="#4a6fa5" d="M231.6,-463.97C286.82,-453.81 353.48,-441.56 398.31,-433.32"/>
<polygon fill="#4a6fa5" stroke="#4a6fa5" points="398.69,-435.38 404.21,-432.23 397.93,-431.25 398.69,-435.38"/>
</g>
<!-- Node0x63d947576b70 -->
<g id="node34" class="node">
<title>Node0x63d947576b70</title>
<path fill="#f0f4ff" stroke="black" d="M502,-384C502,-384 398,-384 398,-384 392,-384 386,-378 386,-372 386,-372 386,-360 386,-360 386,-354 392,-348 398,-348 398,-348 502,-348 502,-348 508,-348 514,-354 514,-360 514,-360 514,-372 514,-372 514,-378 508,-384 502,-384"/>
<text text-anchor="middle" x="450" y="-363.8" font-family="Courier,monospace" font-size="9.00">CIccProfile::FindTag()</text>
</g>
<!-- Node0x63d947576170&#45;&gt;Node0x63d947576b70 -->
<g id="edge33" class="edge">
<title>Node0x63d947576170&#45;&gt;Node0x63d947576b70</title>
<path fill="none" stroke="#4a6fa5" d="M167.22,-463.96C204.46,-444.65 266.63,-414.2 323,-395 341.04,-388.85 360.97,-383.6 379.56,-379.31"/>
<polygon fill="#4a6fa5" stroke="#4a6fa5" points="380.42,-381.27 385.81,-377.9 379.49,-377.17 380.42,-381.27"/>
</g>
<!-- Node0x63d947577050 -->
<g id="node35" class="node">
<title>Node0x63d947577050</title>
<path fill="#f0f4ff" stroke="black" d="M476,-616C476,-616 424,-616 424,-616 418,-616 412,-610 412,-604 412,-604 412,-592 412,-592 412,-586 418,-580 424,-580 424,-580 476,-580 476,-580 482,-580 488,-586 488,-592 488,-592 488,-604 488,-604 488,-610 482,-616 476,-616"/>
<text text-anchor="middle" x="450" y="-595.8" font-family="Courier,monospace" font-size="9.00">SigToChars()</text>
</g>
<!-- Node0x63d947576170&#45;&gt;Node0x63d947577050 -->
<g id="edge34" class="edge">
<title>Node0x63d947576170&#45;&gt;Node0x63d947577050</title>
<path fill="none" stroke="#4a6fa5" d="M167.22,-500.04C204.46,-519.35 266.63,-549.8 323,-569 349.93,-578.17 381.09,-585.37 405.68,-590.3"/>
<polygon fill="#4a6fa5" stroke="#4a6fa5" points="405.49,-592.41 411.78,-591.51 406.3,-588.29 405.49,-592.41"/>
</g>
<!-- Node0x63d947576d50 -->
<g id="node36" class="node">
<title>Node0x63d947576d50</title>
<path fill="#f0f4ff" stroke="black" d="M481,-558C481,-558 419,-558 419,-558 413,-558 407,-552 407,-546 407,-546 407,-534 407,-534 407,-528 413,-522 419,-522 419,-522 481,-522 481,-522 487,-522 493,-528 493,-534 493,-534 493,-546 493,-546 493,-552 487,-558 481,-558"/>
<text text-anchor="middle" x="450" y="-537.8" font-family="Courier,monospace" font-size="9.00">ColorWarning()</text>
</g>
<!-- Node0x63d947576170&#45;&gt;Node0x63d947576d50 -->
<g id="edge36" class="edge">
<title>Node0x63d947576170&#45;&gt;Node0x63d947576d50</title>
<path fill="none" stroke="#4a6fa5" d="M231.6,-500.03C287.75,-510.36 355.72,-522.85 400.54,-531.09"/>
<polygon fill="#4a6fa5" stroke="#4a6fa5" points="400.43,-533.21 406.71,-532.23 401.19,-529.08 400.43,-533.21"/>
</g>
<!-- Node0x63d947576d50&#45;&gt;Node0x63d9475766b0 -->
<g id="edge37" class="edge">
<title>Node0x63d947576d50&#45;&gt;Node0x63d9475766b0</title>
<path fill="none" stroke="#4a6fa5" d="M493.13,-531.06C546.12,-519.83 636.28,-500.71 686.99,-489.95"/>
<polygon fill="#4a6fa5" stroke="#4a6fa5" points="687.54,-491.98 692.98,-488.69 686.67,-487.88 687.54,-491.98"/>
</g>
<!-- Node0x63d947577a70 -->
<g id="node37" class="node">
<title>Node0x63d947577a70</title>
<path fill="#f0f4ff" stroke="black" d="M253,-326C253,-326 12,-326 12,-326 6,-326 0,-320 0,-314 0,-314 0,-302 0,-302 0,-296 6,-290 12,-290 12,-290 253,-290 253,-290 259,-290 265,-296 265,-302 265,-302 265,-314 265,-314 265,-320 259,-326 253,-326"/>
<text text-anchor="middle" x="132.5" y="-305.8" font-family="Courier,monospace" font-size="9.00">RunHeuristic_H144_XmlStringTerminationPrecheck()</text>
</g>
<!-- Node0x63d947577a70&#45;&gt;Node0x63d947670780 -->
<g id="edge38" class="edge">
<title>Node0x63d947577a70&#45;&gt;Node0x63d947670780</title>
<path fill="none" stroke="#4a6fa5" d="M151.59,-326.24C183.36,-357.19 252.53,-419.85 323,-453 349.03,-465.24 380.57,-472.5 405.58,-476.69"/>
<polygon fill="#4a6fa5" stroke="#4a6fa5" points="405.54,-478.81 411.79,-477.69 406.2,-474.66 405.54,-478.81"/>
</g>
<!-- Node0x63d947577a70&#45;&gt;Node0x63d947573260 -->
<g id="edge43" class="edge">
<title>Node0x63d947577a70&#45;&gt;Node0x63d947573260</title>
<path fill="none" stroke="#4a6fa5" d="M167.22,-326.04C204.46,-345.35 266.63,-375.8 323,-395 347.28,-403.27 375,-409.94 398.24,-414.78"/>
<polygon fill="#4a6fa5" stroke="#4a6fa5" points="398.06,-416.89 404.36,-416.04 398.9,-412.78 398.06,-416.89"/>
</g>
<!-- Node0x63d947577a70&#45;&gt;Node0x63d947576b70 -->
<g id="edge39" class="edge">
<title>Node0x63d947577a70&#45;&gt;Node0x63d947576b70</title>
<path fill="none" stroke="#4a6fa5" d="M231.6,-326.03C279.63,-334.86 336.31,-345.28 379.75,-353.27"/>
<polygon fill="#4a6fa5" stroke="#4a6fa5" points="379.51,-355.36 385.79,-354.38 380.27,-351.23 379.51,-355.36"/>
</g>
<!-- Node0x63d9476745d0 -->
<g id="node38" class="node">
<title>Node0x63d9476745d0</title>
<path fill="#f0f4ff" stroke="black" d="M481,-152C481,-152 419,-152 419,-152 413,-152 407,-146 407,-140 407,-140 407,-128 407,-128 407,-122 413,-116 419,-116 419,-116 481,-116 481,-116 487,-116 493,-122 493,-128 493,-128 493,-140 493,-140 493,-146 487,-152 481,-152"/>
<text text-anchor="middle" x="450" y="-131.8" font-family="Courier,monospace" font-size="9.00">__dynamic_cast</text>
</g>
<!-- Node0x63d947577a70&#45;&gt;Node0x63d9476745d0 -->
<g id="edge40" class="edge">
<title>Node0x63d947577a70&#45;&gt;Node0x63d9476745d0</title>
<path fill="none" stroke="#4a6fa5" d="M164.48,-289.95C191.93,-273.4 232.56,-247.5 265,-221 293.23,-197.94 291.11,-180.66 323,-163 346.8,-149.82 376.32,-142.61 400.8,-138.69"/>
<polygon fill="#4a6fa5" stroke="#4a6fa5" points="401.29,-140.74 406.9,-137.76 400.66,-136.58 401.29,-140.74"/>
</g>
<!-- Node0x63d9475777f0 -->
<g id="node39" class="node">
<title>Node0x63d9475777f0</title>
<path fill="#f0f4ff" stroke="black" d="M525.5,-326C525.5,-326 374.5,-326 374.5,-326 368.5,-326 362.5,-320 362.5,-314 362.5,-314 362.5,-302 362.5,-302 362.5,-296 368.5,-290 374.5,-290 374.5,-290 525.5,-290 525.5,-290 531.5,-290 537.5,-296 537.5,-302 537.5,-302 537.5,-314 537.5,-314 537.5,-320 531.5,-326 525.5,-326"/>
<text text-anchor="middle" x="450" y="-305.8" font-family="Courier,monospace" font-size="9.00">CIccTagColorantTable::GetSize()</text>
</g>
<!-- Node0x63d947577a70&#45;&gt;Node0x63d9475777f0 -->
<g id="edge41" class="edge">
<title>Node0x63d947577a70&#45;&gt;Node0x63d9475777f0</title>
<path fill="none" stroke="#4a6fa5" d="M265.02,-308C295.64,-308 327.62,-308 356.17,-308"/>
<polygon fill="#4a6fa5" stroke="#4a6fa5" points="356.2,-310.1 362.2,-308 356.2,-305.9 356.2,-310.1"/>
</g>
<!-- Node0x63d9475779f0 -->
<g id="node40" class="node">
<title>Node0x63d9475779f0</title>
<path fill="#f0f4ff" stroke="black" d="M565,-268C565,-268 335,-268 335,-268 329,-268 323,-262 323,-256 323,-256 323,-244 323,-244 323,-238 329,-232 335,-232 335,-232 565,-232 565,-232 571,-232 577,-238 577,-244 577,-244 577,-256 577,-256 577,-262 571,-268 565,-268"/>
<text text-anchor="middle" x="450" y="-247.8" font-family="Courier,monospace" font-size="9.00">CIccTagColorantTable::operator[](unsigned int)</text>
</g>
<!-- Node0x63d947577a70&#45;&gt;Node0x63d9475779f0 -->
<g id="edge42" class="edge">
<title>Node0x63d947577a70&#45;&gt;Node0x63d9475779f0</title>
<path fill="none" stroke="#4a6fa5" d="M231.6,-289.97C267.51,-283.36 308.25,-275.87 344.69,-269.18"/>
<polygon fill="#4a6fa5" stroke="#4a6fa5" points="345.44,-271.17 350.96,-268.02 344.68,-267.04 345.44,-271.17"/>
</g>
<!-- Node0x63d94757a050 -->
<g id="node41" class="node">
<title>Node0x63d94757a050</title>
<path fill="#f0f4ff" stroke="black" d="M525.5,-210C525.5,-210 374.5,-210 374.5,-210 368.5,-210 362.5,-204 362.5,-198 362.5,-198 362.5,-186 362.5,-186 362.5,-180 368.5,-174 374.5,-174 374.5,-174 525.5,-174 525.5,-174 531.5,-174 537.5,-180 537.5,-186 537.5,-186 537.5,-198 537.5,-198 537.5,-204 531.5,-210 525.5,-210"/>
<text text-anchor="middle" x="450" y="-189.8" font-family="Courier,monospace" font-size="9.00">CIccTagNamedColor2::GetPrefix()</text>
</g>
<!-- Node0x63d947577a70&#45;&gt;Node0x63d94757a050 -->
<g id="edge44" class="edge">
<title>Node0x63d947577a70&#45;&gt;Node0x63d94757a050</title>
<path fill="none" stroke="#4a6fa5" d="M167.22,-289.96C204.46,-270.65 266.63,-240.2 323,-221 333.68,-217.36 345.01,-214.04 356.34,-211.04"/>
<polygon fill="#4a6fa5" stroke="#4a6fa5" points="356.98,-213.04 362.26,-209.5 355.93,-208.98 356.98,-213.04"/>
</g>
<!-- Node0x63d9475797d0 -->
<g id="node42" class="node">
<title>Node0x63d9475797d0</title>
<path fill="#f0f4ff" stroke="black" d="M239.5,-210C239.5,-210 25.5,-210 25.5,-210 19.5,-210 13.5,-204 13.5,-198 13.5,-198 13.5,-186 13.5,-186 13.5,-180 19.5,-174 25.5,-174 25.5,-174 239.5,-174 239.5,-174 245.5,-174 251.5,-180 251.5,-186 251.5,-186 251.5,-198 251.5,-198 251.5,-204 245.5,-210 239.5,-210"/>
<text text-anchor="middle" x="132.5" y="-189.8" font-family="Courier,monospace" font-size="9.00">RunHeuristic_H145_XmlCurveTypeConsistency()</text>
</g>
<!-- Node0x63d9475797d0&#45;&gt;Node0x63d947670780 -->
<g id="edge45" class="edge">
<title>Node0x63d9475797d0&#45;&gt;Node0x63d947670780</title>
<path fill="none" stroke="#4a6fa5" d="M174.44,-210.04C203.48,-224.76 241.35,-248.15 265,-279 314.59,-343.69 262.67,-398.18 323,-453 345.22,-473.2 378.63,-480.2 405.46,-482.29"/>
<polygon fill="#4a6fa5" stroke="#4a6fa5" points="405.65,-484.41 411.78,-482.7 405.92,-480.22 405.65,-484.41"/>
</g>
<!-- Node0x63d9475797d0&#45;&gt;Node0x63d947573260 -->
<g id="edge50" class="edge">
<title>Node0x63d9475797d0&#45;&gt;Node0x63d947573260</title>
<path fill="none" stroke="#4a6fa5" d="M171.38,-210.13C199.99,-225.32 238.68,-249.29 265,-279 303.22,-322.14 277.7,-359.36 323,-395 344.22,-411.7 373.32,-419.11 398.21,-422.27"/>
<polygon fill="#4a6fa5" stroke="#4a6fa5" points="398.24,-424.39 404.44,-422.99 398.72,-420.21 398.24,-424.39"/>
</g>
<!-- Node0x63d9475797d0&#45;&gt;Node0x63d947576b70 -->
<g id="edge46" class="edge">
<title>Node0x63d9475797d0&#45;&gt;Node0x63d947576b70</title>
<path fill="none" stroke="#4a6fa5" d="M164.48,-210.05C191.93,-226.6 232.56,-252.5 265,-279 293.23,-302.06 291.11,-319.34 323,-337 340.35,-346.61 360.73,-353.04 379.99,-357.34"/>
<polygon fill="#4a6fa5" stroke="#4a6fa5" points="379.62,-359.41 385.93,-358.61 380.5,-355.3 379.62,-359.41"/>
</g>
<!-- Node0x63d9475797d0&#45;&gt;Node0x63d9476745d0 -->
<g id="edge47" class="edge">
<title>Node0x63d9475797d0&#45;&gt;Node0x63d9476745d0</title>
<path fill="none" stroke="#4a6fa5" d="M231.6,-173.97C287.75,-163.64 355.72,-151.15 400.54,-142.91"/>
<polygon fill="#4a6fa5" stroke="#4a6fa5" points="401.19,-144.92 406.71,-141.77 400.43,-140.79 401.19,-144.92"/>
</g>
<!-- Node0x63d947577ed0 -->
<g id="node43" class="node">
<title>Node0x63d947577ed0</title>
<path fill="#f0f4ff" stroke="black" d="M552,-94C552,-94 348,-94 348,-94 342,-94 336,-88 336,-82 336,-82 336,-70 336,-70 336,-64 342,-58 348,-58 348,-58 552,-58 552,-58 558,-58 564,-64 564,-70 564,-70 564,-82 564,-82 564,-88 558,-94 552,-94"/>
<text text-anchor="middle" x="450" y="-73.8" font-family="Courier,monospace" font-size="9.00">CIccTagMultiProcessElement::NumElements()</text>
</g>
<!-- Node0x63d9475797d0&#45;&gt;Node0x63d947577ed0 -->
<g id="edge48" class="edge">
<title>Node0x63d9475797d0&#45;&gt;Node0x63d947577ed0</title>
<path fill="none" stroke="#4a6fa5" d="M167.22,-173.96C204.46,-154.65 266.63,-124.2 323,-105 333.04,-101.58 343.67,-98.43 354.32,-95.58"/>
<polygon fill="#4a6fa5" stroke="#4a6fa5" points="354.97,-97.58 360.24,-94.02 353.9,-93.52 354.97,-97.58"/>
</g>
<!-- Node0x63d947674e10 -->
<g id="node44" class="node">
<title>Node0x63d947674e10</title>
<path fill="#f0f4ff" stroke="black" d="M549.5,-36C549.5,-36 350.5,-36 350.5,-36 344.5,-36 338.5,-30 338.5,-24 338.5,-24 338.5,-12 338.5,-12 338.5,-6 344.5,0 350.5,0 350.5,0 549.5,0 549.5,0 555.5,0 561.5,-6 561.5,-12 561.5,-12 561.5,-24 561.5,-24 561.5,-30 555.5,-36 549.5,-36"/>
<text text-anchor="middle" x="450" y="-15.8" font-family="Courier,monospace" font-size="9.00">CIccTagMultiProcessElement::GetElement()</text>
</g>
<!-- Node0x63d9475797d0&#45;&gt;Node0x63d947674e10 -->
<g id="edge49" class="edge">
<title>Node0x63d9475797d0&#45;&gt;Node0x63d947674e10</title>
<path fill="none" stroke="#4a6fa5" d="M151.59,-173.76C183.36,-142.81 252.53,-80.15 323,-47 330.12,-43.65 337.66,-40.67 345.36,-38.03"/>
<polygon fill="#4a6fa5" stroke="#4a6fa5" points="346.24,-39.95 351.27,-36.08 344.92,-35.96 346.24,-39.95"/>
</g>
<!-- Node0x63d94757b320 -->
<g id="node45" class="node">
<title>Node0x63d94757b320</title>
<path fill="#f0f4ff" stroke="black" d="M213.5,-1834C213.5,-1834 51.5,-1834 51.5,-1834 45.5,-1834 39.5,-1828 39.5,-1822 39.5,-1822 39.5,-1810 39.5,-1810 39.5,-1804 45.5,-1798 51.5,-1798 51.5,-1798 213.5,-1798 213.5,-1798 219.5,-1798 225.5,-1804 225.5,-1810 225.5,-1810 225.5,-1822 225.5,-1822 225.5,-1828 219.5,-1834 213.5,-1834"/>
<text text-anchor="middle" x="132.5" y="-1813.8" font-family="Courier,monospace" font-size="9.00">IIccTagFactory::~IIccTagFactory()</text>
</g>
<!-- Node0x63d9475716a0 -->
<g id="node46" class="node">
<title>Node0x63d9475716a0</title>
<path fill="#f0f4ff" stroke="black" d="M213.5,-1892C213.5,-1892 51.5,-1892 51.5,-1892 45.5,-1892 39.5,-1886 39.5,-1880 39.5,-1880 39.5,-1868 39.5,-1868 39.5,-1862 45.5,-1856 51.5,-1856 51.5,-1856 213.5,-1856 213.5,-1856 219.5,-1856 225.5,-1862 225.5,-1868 225.5,-1868 225.5,-1880 225.5,-1880 225.5,-1886 219.5,-1892 213.5,-1892"/>
<text text-anchor="middle" x="132.5" y="-1871.8" font-family="Courier,monospace" font-size="9.00">IIccMpeFactory::~IIccMpeFactory()</text>
</g>
<!-- Node0x63d947675830 -->
<g id="node47" class="node">
<title>Node0x63d947675830</title>
<path fill="#f0f4ff" stroke="black" d="M213.5,-1950C213.5,-1950 51.5,-1950 51.5,-1950 45.5,-1950 39.5,-1944 39.5,-1938 39.5,-1938 39.5,-1926 39.5,-1926 39.5,-1920 45.5,-1914 51.5,-1914 51.5,-1914 213.5,-1914 213.5,-1914 219.5,-1914 225.5,-1920 225.5,-1926 225.5,-1926 225.5,-1938 225.5,-1938 225.5,-1944 219.5,-1950 213.5,-1950"/>
<text text-anchor="middle" x="132.5" y="-1929.8" font-family="Courier,monospace" font-size="9.00">IIccMpeFactory::~IIccMpeFactory()</text>
</g>
<!-- Node0x63d947675570 -->
<g id="node48" class="node">
<title>Node0x63d947675570</title>
<path fill="#f0f4ff" stroke="black" d="M213.5,-1718C213.5,-1718 51.5,-1718 51.5,-1718 45.5,-1718 39.5,-1712 39.5,-1706 39.5,-1706 39.5,-1694 39.5,-1694 39.5,-1688 45.5,-1682 51.5,-1682 51.5,-1682 213.5,-1682 213.5,-1682 219.5,-1682 225.5,-1688 225.5,-1694 225.5,-1694 225.5,-1706 225.5,-1706 225.5,-1712 219.5,-1718 213.5,-1718"/>
<text text-anchor="middle" x="132.5" y="-1697.8" font-family="Courier,monospace" font-size="9.00">CIccProfileXml::~CIccProfileXml()</text>
</g>
<!-- Node0x63d947675570&#45;&gt;Node0x63d947572c40 -->
<g id="edge51" class="edge">
<title>Node0x63d947675570&#45;&gt;Node0x63d947572c40</title>
<path fill="none" stroke="#4a6fa5" d="M225.6,-1700C264.79,-1700 310.56,-1700 350.44,-1700"/>
<polygon fill="#4a6fa5" stroke="#4a6fa5" points="350.78,-1702.1 356.78,-1700 350.78,-1697.9 350.78,-1702.1"/>
</g>
<!-- Node0x63d947677560 -->
<g id="node49" class="node">
<title>Node0x63d947677560</title>
<path fill="#f0f4ff" stroke="black" d="M226.5,-2124C226.5,-2124 38.5,-2124 38.5,-2124 32.5,-2124 26.5,-2118 26.5,-2112 26.5,-2112 26.5,-2100 26.5,-2100 26.5,-2094 32.5,-2088 38.5,-2088 38.5,-2088 226.5,-2088 226.5,-2088 232.5,-2088 238.5,-2094 238.5,-2100 238.5,-2100 238.5,-2112 238.5,-2112 238.5,-2118 232.5,-2124 226.5,-2124"/>
<text text-anchor="middle" x="132.5" y="-2103.8" font-family="Courier,monospace" font-size="9.00">CIccProfile::getPccViewingConditions()</text>
</g>
<!-- Node0x63d9476770b0 -->
<g id="node50" class="node">
<title>Node0x63d9476770b0</title>
<path fill="#f0f4ff" stroke="black" d="M518,-2066C518,-2066 382,-2066 382,-2066 376,-2066 370,-2060 370,-2054 370,-2054 370,-2042 370,-2042 370,-2036 376,-2030 382,-2030 382,-2030 518,-2030 518,-2030 524,-2030 530,-2036 530,-2042 530,-2042 530,-2054 530,-2054 530,-2060 524,-2066 518,-2066"/>
<text text-anchor="middle" x="450" y="-2045.8" font-family="Courier,monospace" font-size="9.00">CIccProfile::FindTagOfType()</text>
</g>
<!-- Node0x63d947677560&#45;&gt;Node0x63d9476770b0 -->
<g id="edge52" class="edge">
<title>Node0x63d947677560&#45;&gt;Node0x63d9476770b0</title>
<path fill="none" stroke="#4a6fa5" d="M231.6,-2087.97C274.01,-2080.17 323.17,-2071.13 364,-2063.63"/>
<polygon fill="#4a6fa5" stroke="#4a6fa5" points="364.44,-2065.68 369.96,-2062.53 363.68,-2061.55 364.44,-2065.68"/>
</g>
<!-- Node0x63d947676e20 -->
<g id="node51" class="node">
<title>Node0x63d947676e20</title>
<path fill="#f0f4ff" stroke="black" d="M224,-2066C224,-2066 41,-2066 41,-2066 35,-2066 29,-2060 29,-2054 29,-2054 29,-2042 29,-2042 29,-2036 35,-2030 41,-2030 41,-2030 224,-2030 224,-2030 230,-2030 236,-2036 236,-2042 236,-2042 236,-2054 236,-2054 236,-2060 230,-2066 224,-2066"/>
<text text-anchor="middle" x="132.5" y="-2045.8" font-family="Courier,monospace" font-size="9.00">CIccProfile::getCustomToStandardPcc()</text>
</g>
<!-- Node0x63d947676e20&#45;&gt;Node0x63d9476770b0 -->
<g id="edge53" class="edge">
<title>Node0x63d947676e20&#45;&gt;Node0x63d9476770b0</title>
<path fill="none" stroke="#4a6fa5" d="M236.37,-2048C277.51,-2048 324.33,-2048 363.55,-2048"/>
<polygon fill="#4a6fa5" stroke="#4a6fa5" points="363.78,-2050.1 369.77,-2048 363.77,-2045.9 363.78,-2050.1"/>
</g>
<!-- Node0x63d947677a60 -->
<g id="node52" class="node">
<title>Node0x63d947677a60</title>
<path fill="#f0f4ff" stroke="black" d="M224,-2008C224,-2008 41,-2008 41,-2008 35,-2008 29,-2002 29,-1996 29,-1996 29,-1984 29,-1984 29,-1978 35,-1972 41,-1972 41,-1972 224,-1972 224,-1972 230,-1972 236,-1978 236,-1984 236,-1984 236,-1996 236,-1996 236,-2002 230,-2008 224,-2008"/>
<text text-anchor="middle" x="132.5" y="-1987.8" font-family="Courier,monospace" font-size="9.00">CIccProfile::getStandardToCustomPcc()</text>
</g>
<!-- Node0x63d947677a60&#45;&gt;Node0x63d9476770b0 -->
<g id="edge54" class="edge">
<title>Node0x63d947677a60&#45;&gt;Node0x63d9476770b0</title>
<path fill="none" stroke="#4a6fa5" d="M231.6,-2008.03C274.01,-2015.83 323.17,-2024.87 364,-2032.37"/>
<polygon fill="#4a6fa5" stroke="#4a6fa5" points="363.68,-2034.45 369.96,-2033.47 364.44,-2030.32 363.68,-2034.45"/>
</g>
<!-- Node0x63d9476781e0 -->
<g id="node53" class="node">
<title>Node0x63d9476781e0</title>
<path fill="#f0f4ff" stroke="black" d="M218.5,-2182C218.5,-2182 46.5,-2182 46.5,-2182 40.5,-2182 34.5,-2176 34.5,-2170 34.5,-2170 34.5,-2158 34.5,-2158 34.5,-2152 40.5,-2146 46.5,-2146 46.5,-2146 218.5,-2146 218.5,-2146 224.5,-2146 230.5,-2152 230.5,-2158 230.5,-2158 230.5,-2170 230.5,-2170 230.5,-2176 224.5,-2182 218.5,-2182"/>
<text text-anchor="middle" x="132.5" y="-2161.8" font-family="Courier,monospace" font-size="9.00">CIccProfile::getNormIlluminantXYZ()</text>
</g>
<!-- Node0x63d947677f60 -->
<g id="node54" class="node">
<title>Node0x63d947677f60</title>
<path fill="#f0f4ff" stroke="black" d="M216,-2240C216,-2240 49,-2240 49,-2240 43,-2240 37,-2234 37,-2228 37,-2228 37,-2216 37,-2216 37,-2210 43,-2204 49,-2204 49,-2204 216,-2204 216,-2204 222,-2204 228,-2210 228,-2216 228,-2216 228,-2228 228,-2228 228,-2234 222,-2240 216,-2240"/>
<text text-anchor="middle" x="132.5" y="-2219.8" font-family="Courier,monospace" font-size="9.00">CIccProfile::getLumIlluminantXYZ()</text>
</g>
<!-- Node0x63d947677ce0 -->
<g id="node55" class="node">
<title>Node0x63d947677ce0</title>
<path fill="#f0f4ff" stroke="black" d="M208,-2298C208,-2298 57,-2298 57,-2298 51,-2298 45,-2292 45,-2286 45,-2286 45,-2274 45,-2274 45,-2268 51,-2262 57,-2262 57,-2262 208,-2262 208,-2262 214,-2262 220,-2268 220,-2274 220,-2274 220,-2286 220,-2286 220,-2292 214,-2298 208,-2298"/>
<text text-anchor="middle" x="132.5" y="-2277.8" font-family="Courier,monospace" font-size="9.00">CIccProfile::getMediaWhiteXYZ()</text>
</g>
<!-- Node0x63d947678960 -->
<g id="node56" class="node">
<title>Node0x63d947678960</title>
<path fill="#f0f4ff" stroke="black" d="M192.5,-2356C192.5,-2356 72.5,-2356 72.5,-2356 66.5,-2356 60.5,-2350 60.5,-2344 60.5,-2344 60.5,-2332 60.5,-2332 60.5,-2326 66.5,-2320 72.5,-2320 72.5,-2320 192.5,-2320 192.5,-2320 198.5,-2320 204.5,-2326 204.5,-2332 204.5,-2332 204.5,-2344 204.5,-2344 204.5,-2350 198.5,-2356 192.5,-2356"/>
<text text-anchor="middle" x="132.5" y="-2335.8" font-family="Courier,monospace" font-size="9.00">CIccProfileXml::NewCopy()</text>
</g>
<!-- Node0x63d947678e60 -->
<g id="node57" class="node">
<title>Node0x63d947678e60</title>
<path fill="#f0f4ff" stroke="black" d="M528.5,-2356C528.5,-2356 371.5,-2356 371.5,-2356 365.5,-2356 359.5,-2350 359.5,-2344 359.5,-2344 359.5,-2332 359.5,-2332 359.5,-2326 365.5,-2320 371.5,-2320 371.5,-2320 528.5,-2320 528.5,-2320 534.5,-2320 540.5,-2326 540.5,-2332 540.5,-2332 540.5,-2344 540.5,-2344 540.5,-2350 534.5,-2356 528.5,-2356"/>
<text text-anchor="middle" x="450" y="-2335.8" font-family="Courier,monospace" font-size="9.00">CIccProfileXml::CIccProfileXml()</text>
</g>
<!-- Node0x63d947678960&#45;&gt;Node0x63d947678e60 -->
<g id="edge55" class="edge">
<title>Node0x63d947678960&#45;&gt;Node0x63d947678e60</title>
<path fill="none" stroke="#4a6fa5" d="M204.7,-2338C248.62,-2338 305.51,-2338 353.33,-2338"/>
<polygon fill="#4a6fa5" stroke="#4a6fa5" points="353.42,-2340.1 359.42,-2338 353.42,-2335.9 353.42,-2340.1"/>
</g>
<!-- Node0x63d94767afc0 -->
<g id="node63" class="node">
<title>Node0x63d94767afc0</title>
<path fill="#f0f4ff" stroke="black" d="M788,-2356C788,-2356 663,-2356 663,-2356 657,-2356 651,-2350 651,-2344 651,-2344 651,-2332 651,-2332 651,-2326 657,-2320 663,-2320 663,-2320 788,-2320 788,-2320 794,-2320 800,-2326 800,-2332 800,-2332 800,-2344 800,-2344 800,-2350 794,-2356 788,-2356"/>
<text text-anchor="middle" x="725.5" y="-2335.8" font-family="Courier,monospace" font-size="9.00">CIccProfile::CIccProfile()</text>
</g>
<!-- Node0x63d947678e60&#45;&gt;Node0x63d94767afc0 -->
<g id="edge57" class="edge">
<title>Node0x63d947678e60&#45;&gt;Node0x63d94767afc0</title>
<path fill="none" stroke="#4a6fa5" d="M540.55,-2338C574.14,-2338 612.05,-2338 644.7,-2338"/>
<polygon fill="#4a6fa5" stroke="#4a6fa5" points="644.73,-2340.1 650.73,-2338 644.73,-2335.9 644.73,-2340.1"/>
</g>
<!-- Node0x63d947678d20 -->
<g id="node58" class="node">
<title>Node0x63d947678d20</title>
<path fill="#f0f4ff" stroke="black" d="M200.5,-674C200.5,-674 64.5,-674 64.5,-674 58.5,-674 52.5,-668 52.5,-662 52.5,-662 52.5,-650 52.5,-650 52.5,-644 58.5,-638 64.5,-638 64.5,-638 200.5,-638 200.5,-638 206.5,-638 212.5,-644 212.5,-650 212.5,-650 212.5,-662 212.5,-662 212.5,-668 206.5,-674 200.5,-674"/>
<text text-anchor="middle" x="132.5" y="-653.8" font-family="Courier,monospace" font-size="9.00">CIccProfileXml::NewProfile()</text>
</g>
<!-- Node0x63d947678d20&#45;&gt;Node0x63d94766ca90 -->
<g id="edge56" class="edge">
<title>Node0x63d947678d20&#45;&gt;Node0x63d94766ca90</title>
<path fill="none" stroke="#4a6fa5" d="M212.71,-656C255.42,-656 308.44,-656 353.43,-656"/>
<polygon fill="#4a6fa5" stroke="#4a6fa5" points="353.44,-658.1 359.44,-656 353.44,-653.9 353.44,-658.1"/>
</g>
<!-- Node0x63d947678be0 -->
<g id="node59" class="node">
<title>Node0x63d947678be0</title>
<path fill="#f0f4ff" stroke="black" d="M205.5,-2414C205.5,-2414 59.5,-2414 59.5,-2414 53.5,-2414 47.5,-2408 47.5,-2402 47.5,-2402 47.5,-2390 47.5,-2390 47.5,-2384 53.5,-2378 59.5,-2378 59.5,-2378 205.5,-2378 205.5,-2378 211.5,-2378 217.5,-2384 217.5,-2390 217.5,-2390 217.5,-2402 217.5,-2402 217.5,-2408 211.5,-2414 205.5,-2414"/>
<text text-anchor="middle" x="132.5" y="-2393.8" font-family="Courier,monospace" font-size="9.00">CIccProfileXml::GetClassName()</text>
</g>
<!-- Node0x63d947679f80 -->
<g id="node60" class="node">
<title>Node0x63d947679f80</title>
<path fill="#f0f4ff" stroke="black" d="M208,-2472C208,-2472 57,-2472 57,-2472 51,-2472 45,-2466 45,-2460 45,-2460 45,-2448 45,-2448 45,-2442 51,-2436 57,-2436 57,-2436 208,-2436 208,-2436 214,-2436 220,-2442 220,-2448 220,-2448 220,-2460 220,-2460 220,-2466 214,-2472 208,-2472"/>
<text text-anchor="middle" x="132.5" y="-2451.8" font-family="Courier,monospace" font-size="9.00">CIccProfile::getPccIlluminant()</text>
</g>
<!-- Node0x63d94767b4c0 -->
<g id="node61" class="node">
<title>Node0x63d94767b4c0</title>
<path fill="#f0f4ff" stroke="black" d="M190,-2530C190,-2530 75,-2530 75,-2530 69,-2530 63,-2524 63,-2518 63,-2518 63,-2506 63,-2506 63,-2500 69,-2494 75,-2494 75,-2494 190,-2494 190,-2494 196,-2494 202,-2500 202,-2506 202,-2506 202,-2518 202,-2518 202,-2524 196,-2530 190,-2530"/>
<text text-anchor="middle" x="132.5" y="-2509.8" font-family="Courier,monospace" font-size="9.00">CIccProfile::getPccCCT()</text>
</g>
<!-- Node0x63d94767b240 -->
<g id="node62" class="node">
<title>Node0x63d94767b240</title>
<path fill="#f0f4ff" stroke="black" d="M203,-2588C203,-2588 62,-2588 62,-2588 56,-2588 50,-2582 50,-2576 50,-2576 50,-2564 50,-2564 50,-2558 56,-2552 62,-2552 62,-2552 203,-2552 203,-2552 209,-2552 215,-2558 215,-2564 215,-2564 215,-2576 215,-2576 215,-2582 209,-2588 203,-2588"/>
<text text-anchor="middle" x="132.5" y="-2567.8" font-family="Courier,monospace" font-size="9.00">CIccProfile::getPccObserver()</text>
</g>
</g>
</svg>
