<?xml version="1.0" encoding="UTF-8" standalone="no"?>
<!DOCTYPE svg PUBLIC "-//W3C//DTD SVG 1.1//EN"
 "http://www.w3.org/Graphics/SVG/1.1/DTD/svg11.dtd">
<!-- Generated by graphviz version 2.43.0 (0)
 -->
<!-- Title: Call graph: /home/h02332/po/research/call&#45;graph/analyzer/IccHeuristicsLibrary.ll Pages: 1 -->
<svg width="531pt" height="3907pt"
 viewBox="0.00 0.00 531.20 3907.20" xmlns="http://www.w3.org/2000/svg" xmlns:xlink="http://www.w3.org/1999/xlink">
<g id="graph0" class="graph" transform="scale(1 1) rotate(0) translate(21.6 3885.6)">
<title>Call graph: /home/h02332/po/research/call&#45;graph/analyzer/IccHeuristicsLibrary.ll</title>
<polygon fill="white" stroke="transparent" points="-21.6,21.6 -21.6,-3885.6 509.6,-3885.6 509.6,21.6 -21.6,21.6"/>
<!-- Node0x61aa94ef23e0 -->
<g id="node1" class="node">
<title>Node0x61aa94ef23e0</title>
<path fill="#f0f4ff" stroke="black" d="M132,-1950C132,-1950 12,-1950 12,-1950 6,-1950 0,-1944 0,-1938 0,-1938 0,-1926 0,-1926 0,-1920 6,-1914 12,-1914 12,-1914 132,-1914 132,-1914 138,-1914 144,-1920 144,-1926 144,-1926 144,-1938 144,-1938 144,-1944 138,-1950 132,-1950"/>
<text text-anchor="middle" x="72" y="-1929.8" font-family="Courier,monospace" font-size="9.00">RunLibraryAPIHeuristics()</text>
</g>
<!-- Node0x61aa94ef1e60 -->
<g id="node2" class="node">
<title>Node0x61aa94ef1e60</title>
<path fill="#f0f4ff" stroke="black" d="M428.5,-3864C428.5,-3864 261.5,-3864 261.5,-3864 255.5,-3864 249.5,-3858 249.5,-3852 249.5,-3852 249.5,-3840 249.5,-3840 249.5,-3834 255.5,-3828 261.5,-3828 261.5,-3828 428.5,-3828 428.5,-3828 434.5,-3828 440.5,-3834 440.5,-3840 440.5,-3840 440.5,-3852 440.5,-3852 440.5,-3858 434.5,-3864 428.5,-3864"/>
<text text-anchor="middle" x="345" y="-3843.8" font-family="Courier,monospace" font-size="9.00">RunHeuristic_H9_CriticalTextTags()</text>
</g>
<!-- Node0x61aa94ef23e0&#45;&gt;Node0x61aa94ef1e60 -->
<g id="edge1" class="edge">
<title>Node0x61aa94ef23e0&#45;&gt;Node0x61aa94ef1e60</title>
<path fill="none" stroke="#4a6fa5" d="M72.93,-1950.26C72.42,-2135.38 72.13,-3668.57 202,-3817 212.92,-3829.48 227.63,-3837.46 243.45,-3842.42"/>
<polygon fill="#4a6fa5" stroke="#4a6fa5" points="242.98,-3844.47 249.33,-3844.12 244.14,-3840.43 242.98,-3844.47"/>
</g>
<!-- Node0x61aa94ef1a10 -->
<g id="node3" class="node">
<title>Node0x61aa94ef1a10</title>
<path fill="#f0f4ff" stroke="black" d="M410,-3806C410,-3806 280,-3806 280,-3806 274,-3806 268,-3800 268,-3794 268,-3794 268,-3782 268,-3782 268,-3776 274,-3770 280,-3770 280,-3770 410,-3770 410,-3770 416,-3770 422,-3776 422,-3782 422,-3782 422,-3794 422,-3794 422,-3800 416,-3806 410,-3806"/>
<text text-anchor="middle" x="345" y="-3785.8" font-family="Courier,monospace" font-size="9.00">RunHeuristic_H10_TagCount()</text>
</g>
<!-- Node0x61aa94ef23e0&#45;&gt;Node0x61aa94ef1a10 -->
<g id="edge2" class="edge">
<title>Node0x61aa94ef23e0&#45;&gt;Node0x61aa94ef1a10</title>
<path fill="none" stroke="#4a6fa5" d="M72.97,-1950.26C72.89,-2132.22 76.08,-3615.41 202,-3759 217.08,-3776.19 239.34,-3784.83 261.8,-3788.83"/>
<polygon fill="#4a6fa5" stroke="#4a6fa5" points="261.56,-3790.92 267.82,-3789.79 262.22,-3786.77 261.56,-3790.92"/>
</g>
<!-- Node0x61aa94ef1880 -->
<g id="node4" class="node">
<title>Node0x61aa94ef1880</title>
<path fill="#f0f4ff" stroke="black" d="M426,-3748C426,-3748 264,-3748 264,-3748 258,-3748 252,-3742 252,-3736 252,-3736 252,-3724 252,-3724 252,-3718 258,-3712 264,-3712 264,-3712 426,-3712 426,-3712 432,-3712 438,-3718 438,-3724 438,-3724 438,-3736 438,-3736 438,-3742 432,-3748 426,-3748"/>
<text text-anchor="middle" x="345" y="-3727.8" font-family="Courier,monospace" font-size="9.00">RunHeuristic_H11_CLUTEntryLimit()</text>
</g>
<!-- Node0x61aa94ef23e0&#45;&gt;Node0x61aa94ef1880 -->
<g id="edge3" class="edge">
<title>Node0x61aa94ef23e0&#45;&gt;Node0x61aa94ef1880</title>
<path fill="none" stroke="#4a6fa5" d="M73.02,-1950.24C73.37,-2128.87 80.02,-3562.23 202,-3701 213.47,-3714.04 229.07,-3722.16 245.75,-3727.06"/>
<polygon fill="#4a6fa5" stroke="#4a6fa5" points="245.6,-3729.2 251.94,-3728.73 246.69,-3725.14 245.6,-3729.2"/>
</g>
<!-- Node0x61aa94ef27a0 -->
<g id="node5" class="node">
<title>Node0x61aa94ef27a0</title>
<path fill="#f0f4ff" stroke="black" d="M423.5,-3690C423.5,-3690 266.5,-3690 266.5,-3690 260.5,-3690 254.5,-3684 254.5,-3678 254.5,-3678 254.5,-3666 254.5,-3666 254.5,-3660 260.5,-3654 266.5,-3654 266.5,-3654 423.5,-3654 423.5,-3654 429.5,-3654 435.5,-3660 435.5,-3666 435.5,-3666 435.5,-3678 435.5,-3678 435.5,-3684 429.5,-3690 423.5,-3690"/>
<text text-anchor="middle" x="345" y="-3669.8" font-family="Courier,monospace" font-size="9.00">RunHeuristic_H12_MPEChainDepth()</text>
</g>
<!-- Node0x61aa94ef23e0&#45;&gt;Node0x61aa94ef27a0 -->
<g id="edge4" class="edge">
<title>Node0x61aa94ef23e0&#45;&gt;Node0x61aa94ef27a0</title>
<path fill="none" stroke="#4a6fa5" d="M73.07,-1950.19C73.87,-2125.32 83.96,-3509.04 202,-3643 214.03,-3656.65 230.6,-3664.91 248.18,-3669.72"/>
<polygon fill="#4a6fa5" stroke="#4a6fa5" points="247.84,-3671.8 254.17,-3671.23 248.86,-3667.73 247.84,-3671.8"/>
</g>
<!-- Node0x61aa94ef0460 -->
<g id="node6" class="node">
<title>Node0x61aa94ef0460</title>
<path fill="#f0f4ff" stroke="black" d="M428.5,-3632C428.5,-3632 261.5,-3632 261.5,-3632 255.5,-3632 249.5,-3626 249.5,-3620 249.5,-3620 249.5,-3608 249.5,-3608 249.5,-3602 255.5,-3596 261.5,-3596 261.5,-3596 428.5,-3596 428.5,-3596 434.5,-3596 440.5,-3602 440.5,-3608 440.5,-3608 440.5,-3620 440.5,-3620 440.5,-3626 434.5,-3632 428.5,-3632"/>
<text text-anchor="middle" x="345" y="-3611.8" font-family="Courier,monospace" font-size="9.00">RunHeuristic_H13_PerTagSizeCheck()</text>
</g>
<!-- Node0x61aa94ef23e0&#45;&gt;Node0x61aa94ef0460 -->
<g id="edge5" class="edge">
<title>Node0x61aa94ef23e0&#45;&gt;Node0x61aa94ef0460</title>
<path fill="none" stroke="#4a6fa5" d="M73.12,-1950.11C74.38,-2121.57 87.89,-3455.84 202,-3585 212.98,-3597.43 227.72,-3605.38 243.55,-3610.33"/>
<polygon fill="#4a6fa5" stroke="#4a6fa5" points="243.08,-3612.38 249.43,-3612.03 244.24,-3608.35 243.08,-3612.38"/>
</g>
<!-- Node0x61aa94ef01e0 -->
<g id="node7" class="node">
<title>Node0x61aa94ef01e0</title>
<path fill="#f0f4ff" stroke="black" d="M434,-3574C434,-3574 256,-3574 256,-3574 250,-3574 244,-3568 244,-3562 244,-3562 244,-3550 244,-3550 244,-3544 250,-3538 256,-3538 256,-3538 434,-3538 434,-3538 440,-3538 446,-3544 446,-3550 446,-3550 446,-3562 446,-3562 446,-3568 440,-3574 434,-3574"/>
<text text-anchor="middle" x="345" y="-3553.8" font-family="Courier,monospace" font-size="9.00">RunHeuristic_H14_TagArrayDetection()</text>
</g>
<!-- Node0x61aa94ef23e0&#45;&gt;Node0x61aa94ef01e0 -->
<g id="edge6" class="edge">
<title>Node0x61aa94ef23e0&#45;&gt;Node0x61aa94ef01e0</title>
<path fill="none" stroke="#4a6fa5" d="M73.17,-1950.26C74.93,-2118.96 91.86,-3402.69 202,-3527 211.64,-3537.88 224.15,-3545.32 237.76,-3550.33"/>
<polygon fill="#4a6fa5" stroke="#4a6fa5" points="237.29,-3552.39 243.65,-3552.33 238.64,-3548.41 237.29,-3552.39"/>
</g>
<!-- Node0x61aa94ef4620 -->
<g id="node8" class="node">
<title>Node0x61aa94ef4620</title>
<path fill="#f0f4ff" stroke="black" d="M439,-3516C439,-3516 251,-3516 251,-3516 245,-3516 239,-3510 239,-3504 239,-3504 239,-3492 239,-3492 239,-3486 245,-3480 251,-3480 251,-3480 439,-3480 439,-3480 445,-3480 451,-3486 451,-3492 451,-3492 451,-3504 451,-3504 451,-3510 445,-3516 439,-3516"/>
<text text-anchor="middle" x="345" y="-3495.8" font-family="Courier,monospace" font-size="9.00">RunHeuristic_H18_TechnologySignature()</text>
</g>
<!-- Node0x61aa94ef23e0&#45;&gt;Node0x61aa94ef4620 -->
<g id="edge7" class="edge">
<title>Node0x61aa94ef23e0&#45;&gt;Node0x61aa94ef4620</title>
<path fill="none" stroke="#4a6fa5" d="M73.23,-1950.11C75.47,-2114.76 95.77,-3349.47 202,-3469 210.47,-3478.54 221.16,-3485.43 232.86,-3490.36"/>
<polygon fill="#4a6fa5" stroke="#4a6fa5" points="232.32,-3492.4 238.67,-3492.62 233.84,-3488.49 232.32,-3492.4"/>
</g>
<!-- Node0x61aa94ef58a0 -->
<g id="node9" class="node">
<title>Node0x61aa94ef58a0</title>
<path fill="#f0f4ff" stroke="black" d="M431,-3458C431,-3458 259,-3458 259,-3458 253,-3458 247,-3452 247,-3446 247,-3446 247,-3434 247,-3434 247,-3428 253,-3422 259,-3422 259,-3422 431,-3422 431,-3422 437,-3422 443,-3428 443,-3434 443,-3434 443,-3446 443,-3446 443,-3452 437,-3458 431,-3458"/>
<text text-anchor="middle" x="345" y="-3437.8" font-family="Courier,monospace" font-size="9.00">RunHeuristic_H19_TagOffsetOverlap()</text>
</g>
<!-- Node0x61aa94ef23e0&#45;&gt;Node0x61aa94ef58a0 -->
<g id="edge8" class="edge">
<title>Node0x61aa94ef23e0&#45;&gt;Node0x61aa94ef58a0</title>
<path fill="none" stroke="#4a6fa5" d="M73.29,-1950.18C76.05,-2111.61 99.72,-3296.29 202,-3411 212.42,-3422.69 226.17,-3430.41 241.01,-3435.4"/>
<polygon fill="#4a6fa5" stroke="#4a6fa5" points="240.62,-3437.47 246.97,-3437.24 241.86,-3433.46 240.62,-3437.47"/>
</g>
<!-- Node0x61aa94ef62a0 -->
<g id="node10" class="node">
<title>Node0x61aa94ef62a0</title>
<path fill="#f0f4ff" stroke="black" d="M431,-3400C431,-3400 259,-3400 259,-3400 253,-3400 247,-3394 247,-3388 247,-3388 247,-3376 247,-3376 247,-3370 253,-3364 259,-3364 259,-3364 431,-3364 431,-3364 437,-3364 443,-3370 443,-3376 443,-3376 443,-3388 443,-3388 443,-3394 437,-3400 431,-3400"/>
<text text-anchor="middle" x="345" y="-3379.8" font-family="Courier,monospace" font-size="9.00">RunHeuristic_H20_TagTypeSignature()</text>
</g>
<!-- Node0x61aa94ef23e0&#45;&gt;Node0x61aa94ef62a0 -->
<g id="edge9" class="edge">
<title>Node0x61aa94ef23e0&#45;&gt;Node0x61aa94ef62a0</title>
<path fill="none" stroke="#4a6fa5" d="M73.37,-1950.46C76.68,-2109.36 103.72,-3243.16 202,-3353 212.37,-3364.59 226.01,-3372.27 240.73,-3377.26"/>
<polygon fill="#4a6fa5" stroke="#4a6fa5" points="240.29,-3379.32 246.65,-3379.11 241.54,-3375.31 240.29,-3379.32"/>
</g>
<!-- Node0x61aa94ef60a0 -->
<g id="node11" class="node">
<title>Node0x61aa94ef60a0</title>
<path fill="#f0f4ff" stroke="black" d="M455,-3342C455,-3342 235,-3342 235,-3342 229,-3342 223,-3336 223,-3330 223,-3330 223,-3318 223,-3318 223,-3312 229,-3306 235,-3306 235,-3306 455,-3306 455,-3306 461,-3306 467,-3312 467,-3318 467,-3318 467,-3330 467,-3330 467,-3336 461,-3342 455,-3342"/>
<text text-anchor="middle" x="345" y="-3321.8" font-family="Courier,monospace" font-size="9.00">RunHeuristic_H21_TagStructMemberInspection()</text>
</g>
<!-- Node0x61aa94ef23e0&#45;&gt;Node0x61aa94ef60a0 -->
<g id="edge10" class="edge">
<title>Node0x61aa94ef23e0&#45;&gt;Node0x61aa94ef60a0</title>
<path fill="none" stroke="#4a6fa5" d="M73.43,-1950.19C77.28,-2104.42 107.59,-3189.9 202,-3295 206.57,-3300.09 211.77,-3304.42 217.42,-3308.11"/>
<polygon fill="#4a6fa5" stroke="#4a6fa5" points="216.5,-3310 222.72,-3311.31 218.67,-3306.41 216.5,-3310"/>
</g>
<!-- Node0x61aa94ef5b40 -->
<g id="node12" class="node">
<title>Node0x61aa94ef5b40</title>
<path fill="#f0f4ff" stroke="black" d="M455,-3284C455,-3284 235,-3284 235,-3284 229,-3284 223,-3278 223,-3272 223,-3272 223,-3260 223,-3260 223,-3254 229,-3248 235,-3248 235,-3248 455,-3248 455,-3248 461,-3248 467,-3254 467,-3260 467,-3260 467,-3272 467,-3272 467,-3278 461,-3284 455,-3284"/>
<text text-anchor="middle" x="345" y="-3263.8" font-family="Courier,monospace" font-size="9.00">RunHeuristic_H22_NumArrayScalarExpectation()</text>
</g>
<!-- Node0x61aa94ef23e0&#45;&gt;Node0x61aa94ef5b40 -->
<g id="edge11" class="edge">
<title>Node0x61aa94ef23e0&#45;&gt;Node0x61aa94ef5b40</title>
<path fill="none" stroke="#4a6fa5" d="M73.52,-1950.36C77.96,-2101.47 111.55,-3136.73 202,-3237 206.58,-3242.08 211.79,-3246.4 217.44,-3250.08"/>
<polygon fill="#4a6fa5" stroke="#4a6fa5" points="216.53,-3251.98 222.75,-3253.28 218.69,-3248.39 216.53,-3251.98"/>
</g>
<!-- Node0x61aa94ef6530 -->
<g id="node13" class="node">
<title>Node0x61aa94ef6530</title>
<path fill="#f0f4ff" stroke="black" d="M436.5,-3226C436.5,-3226 253.5,-3226 253.5,-3226 247.5,-3226 241.5,-3220 241.5,-3214 241.5,-3214 241.5,-3202 241.5,-3202 241.5,-3196 247.5,-3190 253.5,-3190 253.5,-3190 436.5,-3190 436.5,-3190 442.5,-3190 448.5,-3196 448.5,-3202 448.5,-3202 448.5,-3214 448.5,-3214 448.5,-3220 442.5,-3226 436.5,-3226"/>
<text text-anchor="middle" x="345" y="-3205.8" font-family="Courier,monospace" font-size="9.00">RunHeuristic_H23_NumArrayValueRange()</text>
</g>
<!-- Node0x61aa94ef23e0&#45;&gt;Node0x61aa94ef6530 -->
<g id="edge12" class="edge">
<title>Node0x61aa94ef23e0&#45;&gt;Node0x61aa94ef6530</title>
<path fill="none" stroke="#4a6fa5" d="M73.6,-1950.01C78.58,-2096.05 115.41,-3083.44 202,-3179 211.16,-3189.11 222.8,-3196.23 235.47,-3201.19"/>
<polygon fill="#4a6fa5" stroke="#4a6fa5" points="235,-3203.25 241.36,-3203.31 236.43,-3199.3 235,-3203.25"/>
</g>
<!-- Node0x61aa94ef7a70 -->
<g id="node14" class="node">
<title>Node0x61aa94ef7a70</title>
<path fill="#f0f4ff" stroke="black" d="M444.5,-3168C444.5,-3168 245.5,-3168 245.5,-3168 239.5,-3168 233.5,-3162 233.5,-3156 233.5,-3156 233.5,-3144 233.5,-3144 233.5,-3138 239.5,-3132 245.5,-3132 245.5,-3132 444.5,-3132 444.5,-3132 450.5,-3132 456.5,-3138 456.5,-3144 456.5,-3144 456.5,-3156 456.5,-3156 456.5,-3162 450.5,-3168 444.5,-3168"/>
<text text-anchor="middle" x="345" y="-3147.8" font-family="Courier,monospace" font-size="9.00">RunHeuristic_H24_TagStructNestingDepth()</text>
</g>
<!-- Node0x61aa94ef23e0&#45;&gt;Node0x61aa94ef7a70 -->
<g id="edge13" class="edge">
<title>Node0x61aa94ef23e0&#45;&gt;Node0x61aa94ef7a70</title>
<path fill="none" stroke="#4a6fa5" d="M73.69,-1950.07C79.31,-2092.41 119.34,-3030.24 202,-3121 209.22,-3128.93 217.98,-3135.02 227.56,-3139.67"/>
<polygon fill="#4a6fa5" stroke="#4a6fa5" points="226.95,-3141.7 233.28,-3142.25 228.67,-3137.87 226.95,-3141.7"/>
</g>
<!-- Node0x61aa94ef6fe0 -->
<g id="node15" class="node">
<title>Node0x61aa94ef6fe0</title>
<path fill="#f0f4ff" stroke="black" d="M420.5,-3110C420.5,-3110 269.5,-3110 269.5,-3110 263.5,-3110 257.5,-3104 257.5,-3098 257.5,-3098 257.5,-3086 257.5,-3086 257.5,-3080 263.5,-3074 269.5,-3074 269.5,-3074 420.5,-3074 420.5,-3074 426.5,-3074 432.5,-3080 432.5,-3086 432.5,-3086 432.5,-3098 432.5,-3098 432.5,-3104 426.5,-3110 420.5,-3110"/>
<text text-anchor="middle" x="345" y="-3089.8" font-family="Courier,monospace" font-size="9.00">RunHeuristic_H25_TagOffsetOOB()</text>
</g>
<!-- Node0x61aa94ef23e0&#45;&gt;Node0x61aa94ef6fe0 -->
<g id="edge14" class="edge">
<title>Node0x61aa94ef23e0&#45;&gt;Node0x61aa94ef6fe0</title>
<path fill="none" stroke="#4a6fa5" d="M73.8,-1950.06C80.06,-2088.38 123.25,-2977.01 202,-3063 214.82,-3077 232.43,-3085.27 250.88,-3089.97"/>
<polygon fill="#4a6fa5" stroke="#4a6fa5" points="250.84,-3092.12 257.16,-3091.43 251.79,-3088.02 250.84,-3092.12"/>
</g>
<!-- Node0x61aa94ef6d40 -->
<g id="node16" class="node">
<title>Node0x61aa94ef6d40</title>
<path fill="#f0f4ff" stroke="black" d="M460,-3052C460,-3052 230,-3052 230,-3052 224,-3052 218,-3046 218,-3040 218,-3040 218,-3028 218,-3028 218,-3022 224,-3016 230,-3016 230,-3016 460,-3016 460,-3016 466,-3016 472,-3022 472,-3028 472,-3028 472,-3040 472,-3040 472,-3046 466,-3052 460,-3052"/>
<text text-anchor="middle" x="345" y="-3031.8" font-family="Courier,monospace" font-size="9.00">RunHeuristic_H26_NamedColor2StringValidation()</text>
</g>
<!-- Node0x61aa94ef23e0&#45;&gt;Node0x61aa94ef6d40 -->
<g id="edge15" class="edge">
<title>Node0x61aa94ef23e0&#45;&gt;Node0x61aa94ef6d40</title>
<path fill="none" stroke="#4a6fa5" d="M73.93,-1950.41C80.94,-2085.74 127.23,-2923.85 202,-3005 205.3,-3008.58 208.91,-3011.78 212.76,-3014.65"/>
<polygon fill="#4a6fa5" stroke="#4a6fa5" points="211.64,-3016.42 217.77,-3018.09 214.02,-3012.96 211.64,-3016.42"/>
</g>
<!-- Node0x61aa94ed3840 -->
<g id="node17" class="node">
<title>Node0x61aa94ed3840</title>
<path fill="#f0f4ff" stroke="black" d="M447,-2994C447,-2994 243,-2994 243,-2994 237,-2994 231,-2988 231,-2982 231,-2982 231,-2970 231,-2970 231,-2964 237,-2958 243,-2958 243,-2958 447,-2958 447,-2958 453,-2958 459,-2964 459,-2970 459,-2970 459,-2982 459,-2982 459,-2988 453,-2994 447,-2994"/>
<text text-anchor="middle" x="345" y="-2973.8" font-family="Courier,monospace" font-size="9.00">RunHeuristic_H27_MPEMatrixOutputChannel()</text>
</g>
<!-- Node0x61aa94ef23e0&#45;&gt;Node0x61aa94ed3840 -->
<g id="edge16" class="edge">
<title>Node0x61aa94ef23e0&#45;&gt;Node0x61aa94ed3840</title>
<path fill="none" stroke="#4a6fa5" d="M74.05,-1950.24C81.76,-2080.82 131.1,-2870.57 202,-2947 208.66,-2954.18 216.58,-2959.85 225.22,-2964.3"/>
<polygon fill="#4a6fa5" stroke="#4a6fa5" points="224.36,-2966.22 230.68,-2966.91 226.18,-2962.43 224.36,-2966.22"/>
</g>
<!-- Node0x61aa94efa120 -->
<g id="node18" class="node">
<title>Node0x61aa94efa120</title>
<path fill="#f0f4ff" stroke="black" d="M447,-2936C447,-2936 243,-2936 243,-2936 237,-2936 231,-2930 231,-2924 231,-2924 231,-2912 231,-2912 231,-2906 237,-2900 243,-2900 243,-2900 447,-2900 447,-2900 453,-2900 459,-2906 459,-2912 459,-2912 459,-2924 459,-2924 459,-2930 453,-2936 447,-2936"/>
<text text-anchor="middle" x="345" y="-2915.8" font-family="Courier,monospace" font-size="9.00">RunHeuristic_H28_LUTDimensionValidation()</text>
</g>
<!-- Node0x61aa94ef23e0&#45;&gt;Node0x61aa94efa120 -->
<g id="edge17" class="edge">
<title>Node0x61aa94ef23e0&#45;&gt;Node0x61aa94efa120</title>
<path fill="none" stroke="#4a6fa5" d="M72.71,-1950.33C71.17,-2070.6 68.63,-2746.32 202,-2889 208.69,-2896.15 216.62,-2901.8 225.27,-2906.24"/>
<polygon fill="#4a6fa5" stroke="#4a6fa5" points="224.43,-2908.16 230.75,-2908.85 226.24,-2904.37 224.43,-2908.16"/>
</g>
<!-- Node0x61aa94ef9e20 -->
<g id="node19" class="node">
<title>Node0x61aa94ef9e20</title>
<path fill="#f0f4ff" stroke="black" d="M465.5,-2878C465.5,-2878 224.5,-2878 224.5,-2878 218.5,-2878 212.5,-2872 212.5,-2866 212.5,-2866 212.5,-2854 212.5,-2854 212.5,-2848 218.5,-2842 224.5,-2842 224.5,-2842 465.5,-2842 465.5,-2842 471.5,-2842 477.5,-2848 477.5,-2854 477.5,-2854 477.5,-2866 477.5,-2866 477.5,-2872 471.5,-2878 465.5,-2878"/>
<text text-anchor="middle" x="345" y="-2857.8" font-family="Courier,monospace" font-size="9.00">RunHeuristic_H29_ColorantTableStringValidation()</text>
</g>
<!-- Node0x61aa94ef23e0&#45;&gt;Node0x61aa94ef9e20 -->
<g id="edge18" class="edge">
<title>Node0x61aa94ef23e0&#45;&gt;Node0x61aa94ef9e20</title>
<path fill="none" stroke="#4a6fa5" d="M72.88,-1950.34C72.52,-2066.35 76.4,-2697.77 202,-2831 204.43,-2833.57 207.02,-2835.95 209.74,-2838.15"/>
<polygon fill="#4a6fa5" stroke="#4a6fa5" points="208.72,-2840.01 214.79,-2841.91 211.23,-2836.64 208.72,-2840.01"/>
</g>
<!-- Node0x61aa94ed4180 -->
<g id="node20" class="node">
<title>Node0x61aa94ed4180</title>
<path fill="#f0f4ff" stroke="black" d="M460,-2820C460,-2820 230,-2820 230,-2820 224,-2820 218,-2814 218,-2808 218,-2808 218,-2796 218,-2796 218,-2790 224,-2784 230,-2784 230,-2784 460,-2784 460,-2784 466,-2784 472,-2790 472,-2796 472,-2796 472,-2808 472,-2808 472,-2814 466,-2820 460,-2820"/>
<text text-anchor="middle" x="345" y="-2799.8" font-family="Courier,monospace" font-size="9.00">RunHeuristic_H30_GamutBoundaryDescAllocation()</text>
</g>
<!-- Node0x61aa94ef23e0&#45;&gt;Node0x61aa94ed4180 -->
<g id="edge19" class="edge">
<title>Node0x61aa94ef23e0&#45;&gt;Node0x61aa94ed4180</title>
<path fill="none" stroke="#4a6fa5" d="M73.08,-1950.23C73.95,-2061.57 84.11,-2649.16 202,-2773 205.35,-2776.52 209.01,-2779.68 212.91,-2782.51"/>
<polygon fill="#4a6fa5" stroke="#4a6fa5" points="211.82,-2784.3 217.97,-2785.91 214.16,-2780.82 211.82,-2784.3"/>
</g>
<!-- Node0x61aa94ef4860 -->
<g id="node21" class="node">
<title>Node0x61aa94ef4860</title>
<path fill="#f0f4ff" stroke="black" d="M428.5,-2762C428.5,-2762 261.5,-2762 261.5,-2762 255.5,-2762 249.5,-2756 249.5,-2750 249.5,-2750 249.5,-2738 249.5,-2738 249.5,-2732 255.5,-2726 261.5,-2726 261.5,-2726 428.5,-2726 428.5,-2726 434.5,-2726 440.5,-2732 440.5,-2738 440.5,-2738 440.5,-2750 440.5,-2750 440.5,-2756 434.5,-2762 428.5,-2762"/>
<text text-anchor="middle" x="345" y="-2741.8" font-family="Courier,monospace" font-size="9.00">RunHeuristic_H31_MPEChannelCount()</text>
</g>
<!-- Node0x61aa94ef23e0&#45;&gt;Node0x61aa94ef4860 -->
<g id="edge20" class="edge">
<title>Node0x61aa94ef23e0&#45;&gt;Node0x61aa94ef4860</title>
<path fill="none" stroke="#4a6fa5" d="M73.3,-1950.01C75.45,-2056.25 91.77,-2600.48 202,-2715 213.27,-2726.71 227.88,-2734.35 243.44,-2739.24"/>
<polygon fill="#4a6fa5" stroke="#4a6fa5" points="242.87,-2741.26 249.22,-2740.92 244.04,-2737.23 242.87,-2741.26"/>
</g>
<!-- Node0x61aa94efdd10 -->
<g id="node22" class="node">
<title>Node0x61aa94efdd10</title>
<path fill="#f0f4ff" stroke="black" d="M441.5,-2704C441.5,-2704 248.5,-2704 248.5,-2704 242.5,-2704 236.5,-2698 236.5,-2692 236.5,-2692 236.5,-2680 236.5,-2680 236.5,-2674 242.5,-2668 248.5,-2668 248.5,-2668 441.5,-2668 441.5,-2668 447.5,-2668 453.5,-2674 453.5,-2680 453.5,-2680 453.5,-2692 453.5,-2692 453.5,-2698 447.5,-2704 441.5,-2704"/>
<text text-anchor="middle" x="345" y="-2683.8" font-family="Courier,monospace" font-size="9.00">RunHeuristic_H32_TagDataTypeConfusion()</text>
</g>
<!-- Node0x61aa94ef23e0&#45;&gt;Node0x61aa94efdd10 -->
<g id="edge21" class="edge">
<title>Node0x61aa94ef23e0&#45;&gt;Node0x61aa94efdd10</title>
<path fill="none" stroke="#4a6fa5" d="M73.57,-1950.32C77.12,-2052.58 99.59,-2551.96 202,-2657 210.15,-2665.36 220.02,-2671.64 230.7,-2676.33"/>
<polygon fill="#4a6fa5" stroke="#4a6fa5" points="230.01,-2678.31 236.36,-2678.63 231.6,-2674.42 230.01,-2678.31"/>
</g>
<!-- Node0x61aa94efdab0 -->
<g id="node23" class="node">
<title>Node0x61aa94efdab0</title>
<path fill="#f0f4ff" stroke="black" d="M441.5,-2646C441.5,-2646 248.5,-2646 248.5,-2646 242.5,-2646 236.5,-2640 236.5,-2634 236.5,-2634 236.5,-2622 236.5,-2622 236.5,-2616 242.5,-2610 248.5,-2610 248.5,-2610 441.5,-2610 441.5,-2610 447.5,-2610 453.5,-2616 453.5,-2622 453.5,-2622 453.5,-2634 453.5,-2634 453.5,-2640 447.5,-2646 441.5,-2646"/>
<text text-anchor="middle" x="345" y="-2625.8" font-family="Courier,monospace" font-size="9.00">RunHeuristic_H56_CalculatorStackDepth()</text>
</g>
<!-- Node0x61aa94ef23e0&#45;&gt;Node0x61aa94efdab0 -->
<g id="edge22" class="edge">
<title>Node0x61aa94ef23e0&#45;&gt;Node0x61aa94efdab0</title>
<path fill="none" stroke="#4a6fa5" d="M73.86,-1950.12C78.86,-2047.03 107.21,-2503.22 202,-2599 210.21,-2607.3 220.12,-2613.54 230.83,-2618.2"/>
<polygon fill="#4a6fa5" stroke="#4a6fa5" points="230.15,-2620.19 236.5,-2620.5 231.72,-2616.3 230.15,-2620.19"/>
</g>
<!-- Node0x61aa94ef5420 -->
<g id="node24" class="node">
<title>Node0x61aa94ef5420</title>
<path fill="#f0f4ff" stroke="black" d="M449.5,-2588C449.5,-2588 240.5,-2588 240.5,-2588 234.5,-2588 228.5,-2582 228.5,-2576 228.5,-2576 228.5,-2564 228.5,-2564 228.5,-2558 234.5,-2552 240.5,-2552 240.5,-2552 449.5,-2552 449.5,-2552 455.5,-2552 461.5,-2558 461.5,-2564 461.5,-2564 461.5,-2576 461.5,-2576 461.5,-2582 455.5,-2588 449.5,-2588"/>
<text text-anchor="middle" x="345" y="-2567.8" font-family="Courier,monospace" font-size="9.00">RunHeuristic_H58_SparseMatrixEntryBounds()</text>
</g>
<!-- Node0x61aa94ef23e0&#45;&gt;Node0x61aa94ef5420 -->
<g id="edge23" class="edge">
<title>Node0x61aa94ef23e0&#45;&gt;Node0x61aa94ef5420</title>
<path fill="none" stroke="#4a6fa5" d="M74.22,-1950.04C80.77,-2041.67 114.85,-2454.48 202,-2541 208.17,-2547.12 215.25,-2552.12 222.9,-2556.18"/>
<polygon fill="#4a6fa5" stroke="#4a6fa5" points="221.97,-2558.07 228.28,-2558.85 223.84,-2554.31 221.97,-2558.07"/>
</g>
<!-- Node0x61aa94efe8b0 -->
<g id="node25" class="node">
<title>Node0x61aa94efe8b0</title>
<path fill="#f0f4ff" stroke="black" d="M452,-2530C452,-2530 238,-2530 238,-2530 232,-2530 226,-2524 226,-2518 226,-2518 226,-2506 226,-2506 226,-2500 232,-2494 238,-2494 238,-2494 452,-2494 452,-2494 458,-2494 464,-2500 464,-2506 464,-2506 464,-2518 464,-2518 464,-2524 458,-2530 452,-2530"/>
<text text-anchor="middle" x="345" y="-2509.8" font-family="Courier,monospace" font-size="9.00">RunHeuristic_H60_DictionaryTagConsistency()</text>
</g>
<!-- Node0x61aa94ef23e0&#45;&gt;Node0x61aa94efe8b0 -->
<g id="edge24" class="edge">
<title>Node0x61aa94ef23e0&#45;&gt;Node0x61aa94efe8b0</title>
<path fill="none" stroke="#4a6fa5" d="M74.65,-1950.02C82.89,-2036.26 122.47,-2405.71 202,-2483 207.43,-2488.27 213.54,-2492.71 220.1,-2496.43"/>
<polygon fill="#4a6fa5" stroke="#4a6fa5" points="219.43,-2498.45 225.71,-2499.39 221.39,-2494.73 219.43,-2498.45"/>
</g>
<!-- Node0x61aa94eda4c0 -->
<g id="node26" class="node">
<title>Node0x61aa94eda4c0</title>
<path fill="#f0f4ff" stroke="black" d="M460,-2472C460,-2472 230,-2472 230,-2472 224,-2472 218,-2466 218,-2460 218,-2460 218,-2448 218,-2448 218,-2442 224,-2436 230,-2436 230,-2436 460,-2436 460,-2436 466,-2436 472,-2442 472,-2448 472,-2448 472,-2460 472,-2460 472,-2466 466,-2472 460,-2472"/>
<text text-anchor="middle" x="345" y="-2451.8" font-family="Courier,monospace" font-size="9.00">RunHeuristic_H61_ViewingConditionsValidation()</text>
</g>
<!-- Node0x61aa94ef23e0&#45;&gt;Node0x61aa94eda4c0 -->
<g id="edge25" class="edge">
<title>Node0x61aa94ef23e0&#45;&gt;Node0x61aa94eda4c0</title>
<path fill="none" stroke="#4a6fa5" d="M75.2,-1950.26C85.35,-2031.24 130.13,-2356.94 202,-2425 205.33,-2428.15 208.9,-2431 212.67,-2433.58"/>
<polygon fill="#4a6fa5" stroke="#4a6fa5" points="211.73,-2435.47 217.92,-2436.92 213.99,-2431.93 211.73,-2435.47"/>
</g>
<!-- Node0x61aa94ed9fc0 -->
<g id="node27" class="node">
<title>Node0x61aa94ed9fc0</title>
<path fill="#f0f4ff" stroke="black" d="M426,-2414C426,-2414 264,-2414 264,-2414 258,-2414 252,-2408 252,-2402 252,-2402 252,-2390 252,-2390 252,-2384 258,-2378 264,-2378 264,-2378 426,-2378 426,-2378 432,-2378 438,-2384 438,-2390 438,-2390 438,-2402 438,-2402 438,-2408 432,-2414 426,-2414"/>
<text text-anchor="middle" x="345" y="-2393.8" font-family="Courier,monospace" font-size="9.00">RunHeuristic_H62_MLUStringBombs()</text>
</g>
<!-- Node0x61aa94ef23e0&#45;&gt;Node0x61aa94ed9fc0 -->
<g id="edge26" class="edge">
<title>Node0x61aa94ef23e0&#45;&gt;Node0x61aa94ed9fc0</title>
<path fill="none" stroke="#4a6fa5" d="M72.32,-1950.24C70.88,-2017.11 75.42,-2250.96 202,-2367 214.31,-2378.28 229.77,-2385.66 245.93,-2390.41"/>
<polygon fill="#4a6fa5" stroke="#4a6fa5" points="245.57,-2392.49 251.92,-2392.04 246.68,-2388.44 245.57,-2392.49"/>
</g>
<!-- Node0x61aa94ed92c0 -->
<g id="node28" class="node">
<title>Node0x61aa94ed92c0</title>
<path fill="#f0f4ff" stroke="black" d="M449.5,-2356C449.5,-2356 240.5,-2356 240.5,-2356 234.5,-2356 228.5,-2350 228.5,-2344 228.5,-2344 228.5,-2332 228.5,-2332 228.5,-2326 234.5,-2320 240.5,-2320 240.5,-2320 449.5,-2320 449.5,-2320 455.5,-2320 461.5,-2326 461.5,-2332 461.5,-2332 461.5,-2344 461.5,-2344 461.5,-2350 455.5,-2356 449.5,-2356"/>
<text text-anchor="middle" x="345" y="-2335.8" font-family="Courier,monospace" font-size="9.00">RunHeuristic_H63_CurveLUTChannelMismatch()</text>
</g>
<!-- Node0x61aa94ef23e0&#45;&gt;Node0x61aa94ed92c0 -->
<g id="edge27" class="edge">
<title>Node0x61aa94ef23e0&#45;&gt;Node0x61aa94ed92c0</title>
<path fill="none" stroke="#4a6fa5" d="M73.27,-1950.36C75.24,-2011.63 90.31,-2210.79 202,-2309 208.17,-2314.43 215.08,-2318.94 222.44,-2322.69"/>
<polygon fill="#4a6fa5" stroke="#4a6fa5" points="221.83,-2324.73 228.15,-2325.41 223.64,-2320.93 221.83,-2324.73"/>
</g>
<!-- Node0x61aa94eda440 -->
<g id="node29" class="node">
<title>Node0x61aa94eda440</title>
<path fill="#f0f4ff" stroke="black" d="M468,-2298C468,-2298 222,-2298 222,-2298 216,-2298 210,-2292 210,-2286 210,-2286 210,-2274 210,-2274 210,-2268 216,-2262 222,-2262 222,-2262 468,-2262 468,-2262 474,-2262 480,-2268 480,-2274 480,-2274 480,-2286 480,-2286 480,-2292 474,-2298 468,-2298"/>
<text text-anchor="middle" x="345" y="-2277.8" font-family="Courier,monospace" font-size="9.00">RunHeuristic_H64_NamedColor2DeviceCoordOverflow()</text>
</g>
<!-- Node0x61aa94ef23e0&#45;&gt;Node0x61aa94eda440 -->
<g id="edge28" class="edge">
<title>Node0x61aa94ef23e0&#45;&gt;Node0x61aa94eda440</title>
<path fill="none" stroke="#4a6fa5" d="M74.53,-1950.24C80.18,-2005.17 104.88,-2170.19 202,-2251 205.46,-2253.88 209.12,-2256.49 212.95,-2258.87"/>
<polygon fill="#4a6fa5" stroke="#4a6fa5" points="212.03,-2260.76 218.27,-2261.97 214.15,-2257.14 212.03,-2260.76"/>
</g>
<!-- Node0x61aa94f00740 -->
<g id="node30" class="node">
<title>Node0x61aa94f00740</title>
<path fill="#f0f4ff" stroke="black" d="M452,-2240C452,-2240 238,-2240 238,-2240 232,-2240 226,-2234 226,-2228 226,-2228 226,-2216 226,-2216 226,-2210 232,-2204 238,-2204 238,-2204 452,-2204 452,-2204 458,-2204 464,-2210 464,-2216 464,-2216 464,-2228 464,-2228 464,-2234 458,-2240 452,-2240"/>
<text text-anchor="middle" x="345" y="-2219.8" font-family="Courier,monospace" font-size="9.00">RunHeuristic_H65_ChromaticityPlausibility()</text>
</g>
<!-- Node0x61aa94ef23e0&#45;&gt;Node0x61aa94f00740 -->
<g id="edge29" class="edge">
<title>Node0x61aa94ef23e0&#45;&gt;Node0x61aa94f00740</title>
<path fill="none" stroke="#4a6fa5" d="M76.26,-1950.01C85.93,-1997.9 119.13,-2129.13 202,-2193 207.68,-2197.38 213.86,-2201.14 220.36,-2204.37"/>
<polygon fill="#4a6fa5" stroke="#4a6fa5" points="219.56,-2206.32 225.88,-2206.97 221.34,-2202.52 219.56,-2206.32"/>
</g>
<!-- Node0x61aa94f003e0 -->
<g id="node31" class="node">
<title>Node0x61aa94f003e0</title>
<path fill="#f0f4ff" stroke="black" d="M436.5,-2182C436.5,-2182 253.5,-2182 253.5,-2182 247.5,-2182 241.5,-2176 241.5,-2170 241.5,-2170 241.5,-2158 241.5,-2158 241.5,-2152 247.5,-2146 253.5,-2146 253.5,-2146 436.5,-2146 436.5,-2146 442.5,-2146 448.5,-2152 448.5,-2158 448.5,-2158 448.5,-2170 448.5,-2170 448.5,-2176 442.5,-2182 436.5,-2182"/>
<text text-anchor="middle" x="345" y="-2161.8" font-family="Courier,monospace" font-size="9.00">RunHeuristic_H66_NumArrayNaNInfScan()</text>
</g>
<!-- Node0x61aa94ef23e0&#45;&gt;Node0x61aa94f003e0 -->
<g id="edge30" class="edge">
<title>Node0x61aa94ef23e0&#45;&gt;Node0x61aa94f003e0</title>
<path fill="none" stroke="#4a6fa5" d="M78.94,-1950.09C93.17,-1990.38 133.22,-2087.63 202,-2135 212.15,-2141.99 223.62,-2147.37 235.52,-2151.49"/>
<polygon fill="#4a6fa5" stroke="#4a6fa5" points="235.04,-2153.55 241.4,-2153.42 236.35,-2149.55 235.04,-2153.55"/>
</g>
<!-- Node0x61aa94efffd0 -->
<g id="node32" class="node">
<title>Node0x61aa94efffd0</title>
<path fill="#f0f4ff" stroke="black" d="M447,-2124C447,-2124 243,-2124 243,-2124 237,-2124 231,-2118 231,-2112 231,-2112 231,-2100 231,-2100 231,-2094 237,-2088 243,-2088 243,-2088 447,-2088 447,-2088 453,-2088 459,-2094 459,-2100 459,-2100 459,-2112 459,-2112 459,-2118 453,-2124 447,-2124"/>
<text text-anchor="middle" x="345" y="-2103.8" font-family="Courier,monospace" font-size="9.00">RunHeuristic_H67_ResponseCurveSetBounds()</text>
</g>
<!-- Node0x61aa94ef23e0&#45;&gt;Node0x61aa94efffd0 -->
<g id="edge31" class="edge">
<title>Node0x61aa94ef23e0&#45;&gt;Node0x61aa94efffd0</title>
<path fill="none" stroke="#4a6fa5" d="M83.54,-1950.07C102.8,-1981.33 146.82,-2045.21 202,-2077 209.12,-2081.1 216.74,-2084.63 224.61,-2087.66"/>
<polygon fill="#4a6fa5" stroke="#4a6fa5" points="224.32,-2089.79 230.68,-2089.89 225.77,-2085.85 224.32,-2089.79"/>
</g>
<!-- Node0x61aa94f00950 -->
<g id="node33" class="node">
<title>Node0x61aa94f00950</title>
<path fill="#f0f4ff" stroke="black" d="M452,-2066C452,-2066 238,-2066 238,-2066 232,-2066 226,-2060 226,-2054 226,-2054 226,-2042 226,-2042 226,-2036 232,-2030 238,-2030 238,-2030 452,-2030 452,-2030 458,-2030 464,-2036 464,-2042 464,-2042 464,-2054 464,-2054 464,-2060 458,-2066 452,-2066"/>
<text text-anchor="middle" x="345" y="-2045.8" font-family="Courier,monospace" font-size="9.00">RunHeuristic_H70_MeasurementTagValidation()</text>
</g>
<!-- Node0x61aa94ef23e0&#45;&gt;Node0x61aa94f00950 -->
<g id="edge32" class="edge">
<title>Node0x61aa94ef23e0&#45;&gt;Node0x61aa94f00950</title>
<path fill="none" stroke="#4a6fa5" d="M94.29,-1950.26C118.69,-1970.22 160.65,-2001.65 202,-2019 210.28,-2022.47 219.01,-2025.54 227.9,-2028.25"/>
<polygon fill="#4a6fa5" stroke="#4a6fa5" points="227.42,-2030.3 233.77,-2029.98 228.61,-2026.27 227.42,-2030.3"/>
</g>
<!-- Node0x61aa94f01ea0 -->
<g id="node34" class="node">
<title>Node0x61aa94f01ea0</title>
<path fill="#f0f4ff" stroke="black" d="M462.5,-2008C462.5,-2008 227.5,-2008 227.5,-2008 221.5,-2008 215.5,-2002 215.5,-1996 215.5,-1996 215.5,-1984 215.5,-1984 215.5,-1978 221.5,-1972 227.5,-1972 227.5,-1972 462.5,-1972 462.5,-1972 468.5,-1972 474.5,-1978 474.5,-1984 474.5,-1984 474.5,-1996 474.5,-1996 474.5,-2002 468.5,-2008 462.5,-2008"/>
<text text-anchor="middle" x="345" y="-1987.8" font-family="Courier,monospace" font-size="9.00">RunHeuristic_H71_ColorantTableNullTermination()</text>
</g>
<!-- Node0x61aa94ef23e0&#45;&gt;Node0x61aa94f01ea0 -->
<g id="edge33" class="edge">
<title>Node0x61aa94ef23e0&#45;&gt;Node0x61aa94f01ea0</title>
<path fill="none" stroke="#4a6fa5" d="M144.25,-1948.28C163.02,-1952.5 183.26,-1956.98 202,-1961 216.88,-1964.19 232.65,-1967.49 248.06,-1970.67"/>
<polygon fill="#4a6fa5" stroke="#4a6fa5" points="247.88,-1972.78 254.18,-1971.94 248.73,-1968.67 247.88,-1972.78"/>
</g>
<!-- Node0x61aa94f01c50 -->
<g id="node35" class="node">
<title>Node0x61aa94f01c50</title>
<path fill="#f0f4ff" stroke="black" d="M449.5,-1950C449.5,-1950 240.5,-1950 240.5,-1950 234.5,-1950 228.5,-1944 228.5,-1938 228.5,-1938 228.5,-1926 228.5,-1926 228.5,-1920 234.5,-1914 240.5,-1914 240.5,-1914 449.5,-1914 449.5,-1914 455.5,-1914 461.5,-1920 461.5,-1926 461.5,-1926 461.5,-1938 461.5,-1938 461.5,-1944 455.5,-1950 449.5,-1950"/>
<text text-anchor="middle" x="345" y="-1929.8" font-family="Courier,monospace" font-size="9.00">RunHeuristic_H72_SparseMatrixArrayBounds()</text>
</g>
<!-- Node0x61aa94ef23e0&#45;&gt;Node0x61aa94f01c50 -->
<g id="edge34" class="edge">
<title>Node0x61aa94ef23e0&#45;&gt;Node0x61aa94f01c50</title>
<path fill="none" stroke="#4a6fa5" d="M144.2,-1932C168.19,-1932 195.67,-1932 222.42,-1932"/>
<polygon fill="#4a6fa5" stroke="#4a6fa5" points="222.47,-1934.1 228.47,-1932 222.47,-1929.9 222.47,-1934.1"/>
</g>
<!-- Node0x61aa94f01590 -->
<g id="node36" class="node">
<title>Node0x61aa94f01590</title>
<path fill="#f0f4ff" stroke="black" d="M441.5,-1892C441.5,-1892 248.5,-1892 248.5,-1892 242.5,-1892 236.5,-1886 236.5,-1880 236.5,-1880 236.5,-1868 236.5,-1868 236.5,-1862 242.5,-1856 248.5,-1856 248.5,-1856 441.5,-1856 441.5,-1856 447.5,-1856 453.5,-1862 453.5,-1868 453.5,-1868 453.5,-1880 453.5,-1880 453.5,-1886 447.5,-1892 441.5,-1892"/>
<text text-anchor="middle" x="345" y="-1871.8" font-family="Courier,monospace" font-size="9.00">RunHeuristic_H73_TagArrayNestingDepth()</text>
</g>
<!-- Node0x61aa94ef23e0&#45;&gt;Node0x61aa94f01590 -->
<g id="edge35" class="edge">
<title>Node0x61aa94ef23e0&#45;&gt;Node0x61aa94f01590</title>
<path fill="none" stroke="#4a6fa5" d="M144.25,-1915.72C163.02,-1911.5 183.26,-1907.02 202,-1903 216.88,-1899.81 232.65,-1896.51 248.06,-1893.33"/>
<polygon fill="#4a6fa5" stroke="#4a6fa5" points="248.73,-1895.33 254.18,-1892.06 247.88,-1891.22 248.73,-1895.33"/>
</g>
<!-- Node0x61aa94f02140 -->
<g id="node37" class="node">
<title>Node0x61aa94f02140</title>
<path fill="#f0f4ff" stroke="black" d="M460,-1834C460,-1834 230,-1834 230,-1834 224,-1834 218,-1828 218,-1822 218,-1822 218,-1810 218,-1810 218,-1804 224,-1798 230,-1798 230,-1798 460,-1798 460,-1798 466,-1798 472,-1804 472,-1810 472,-1810 472,-1822 472,-1822 472,-1828 466,-1834 460,-1834"/>
<text text-anchor="middle" x="345" y="-1813.8" font-family="Courier,monospace" font-size="9.00">RunHeuristic_H74_TagTypeSignatureConsistency()</text>
</g>
<!-- Node0x61aa94ef23e0&#45;&gt;Node0x61aa94f02140 -->
<g id="edge36" class="edge">
<title>Node0x61aa94ef23e0&#45;&gt;Node0x61aa94f02140</title>
<path fill="none" stroke="#4a6fa5" d="M94.29,-1913.74C118.69,-1893.78 160.65,-1862.35 202,-1845 210.28,-1841.53 219.01,-1838.46 227.9,-1835.75"/>
<polygon fill="#4a6fa5" stroke="#4a6fa5" points="228.61,-1837.73 233.77,-1834.02 227.42,-1833.7 228.61,-1837.73"/>
</g>
<!-- Node0x61aa94ee0280 -->
<g id="node38" class="node">
<title>Node0x61aa94ee0280</title>
<path fill="#f0f4ff" stroke="black" d="M434,-1776C434,-1776 256,-1776 256,-1776 250,-1776 244,-1770 244,-1764 244,-1764 244,-1752 244,-1752 244,-1746 250,-1740 256,-1740 256,-1740 434,-1740 434,-1740 440,-1740 446,-1746 446,-1752 446,-1752 446,-1764 446,-1764 446,-1770 440,-1776 434,-1776"/>
<text text-anchor="middle" x="345" y="-1755.8" font-family="Courier,monospace" font-size="9.00">RunHeuristic_H75_TagsVerySmallSize()</text>
</g>
<!-- Node0x61aa94ef23e0&#45;&gt;Node0x61aa94ee0280 -->
<g id="edge37" class="edge">
<title>Node0x61aa94ef23e0&#45;&gt;Node0x61aa94ee0280</title>
<path fill="none" stroke="#4a6fa5" d="M83.54,-1913.93C102.8,-1882.67 146.82,-1818.79 202,-1787 213.06,-1780.63 225.31,-1775.64 237.85,-1771.75"/>
<polygon fill="#4a6fa5" stroke="#4a6fa5" points="238.48,-1773.75 243.63,-1770.03 237.28,-1769.73 238.48,-1773.75"/>
</g>
<!-- Node0x61aa94f05050 -->
<g id="node39" class="node">
<title>Node0x61aa94f05050</title>
<path fill="#f0f4ff" stroke="black" d="M439,-1718C439,-1718 251,-1718 251,-1718 245,-1718 239,-1712 239,-1706 239,-1706 239,-1694 239,-1694 239,-1688 245,-1682 251,-1682 251,-1682 439,-1682 439,-1682 445,-1682 451,-1688 451,-1694 451,-1694 451,-1706 451,-1706 451,-1712 445,-1718 439,-1718"/>
<text text-anchor="middle" x="345" y="-1697.8" font-family="Courier,monospace" font-size="9.00">RunHeuristic_H76_CIccTagDataTypeFlag()</text>
</g>
<!-- Node0x61aa94ef23e0&#45;&gt;Node0x61aa94f05050 -->
<g id="edge38" class="edge">
<title>Node0x61aa94ef23e0&#45;&gt;Node0x61aa94f05050</title>
<path fill="none" stroke="#4a6fa5" d="M78.94,-1913.91C93.17,-1873.62 133.22,-1776.37 202,-1729 211.44,-1722.5 222.02,-1717.39 233.03,-1713.39"/>
<polygon fill="#4a6fa5" stroke="#4a6fa5" points="233.83,-1715.34 238.82,-1711.4 232.47,-1711.36 233.83,-1715.34"/>
</g>
<!-- Node0x61aa94f049b0 -->
<g id="node40" class="node">
<title>Node0x61aa94f049b0</title>
<path fill="#f0f4ff" stroke="black" d="M462.5,-1660C462.5,-1660 227.5,-1660 227.5,-1660 221.5,-1660 215.5,-1654 215.5,-1648 215.5,-1648 215.5,-1636 215.5,-1636 215.5,-1630 221.5,-1624 227.5,-1624 227.5,-1624 462.5,-1624 462.5,-1624 468.5,-1624 474.5,-1630 474.5,-1636 474.5,-1636 474.5,-1648 474.5,-1648 474.5,-1654 468.5,-1660 462.5,-1660"/>
<text text-anchor="middle" x="345" y="-1639.8" font-family="Courier,monospace" font-size="9.00">RunHeuristic_H77_MPECalculatorSubElementCount()</text>
</g>
<!-- Node0x61aa94ef23e0&#45;&gt;Node0x61aa94f049b0 -->
<g id="edge39" class="edge">
<title>Node0x61aa94ef23e0&#45;&gt;Node0x61aa94f049b0</title>
<path fill="none" stroke="#4a6fa5" d="M76.26,-1913.99C85.93,-1866.1 119.13,-1734.87 202,-1671 205.78,-1668.08 209.79,-1665.44 213.96,-1663.05"/>
<polygon fill="#4a6fa5" stroke="#4a6fa5" points="215.04,-1664.85 219.32,-1660.15 213.05,-1661.15 215.04,-1664.85"/>
</g>
<!-- Node0x61aa94ee1c40 -->
<g id="node41" class="node">
<title>Node0x61aa94ee1c40</title>
<path fill="#f0f4ff" stroke="black" d="M455,-1602C455,-1602 235,-1602 235,-1602 229,-1602 223,-1596 223,-1590 223,-1590 223,-1578 223,-1578 223,-1572 229,-1566 235,-1566 235,-1566 455,-1566 455,-1566 461,-1566 467,-1572 467,-1578 467,-1578 467,-1590 467,-1590 467,-1596 461,-1602 455,-1602"/>
<text text-anchor="middle" x="345" y="-1581.8" font-family="Courier,monospace" font-size="9.00">RunHeuristic_H78_CLUTGridDimensionOverflow()</text>
</g>
<!-- Node0x61aa94ef23e0&#45;&gt;Node0x61aa94ee1c40 -->
<g id="edge40" class="edge">
<title>Node0x61aa94ef23e0&#45;&gt;Node0x61aa94ee1c40</title>
<path fill="none" stroke="#4a6fa5" d="M74.53,-1913.76C80.18,-1858.83 104.88,-1693.81 202,-1613 206.71,-1609.08 211.82,-1605.64 217.2,-1602.63"/>
<polygon fill="#4a6fa5" stroke="#4a6fa5" points="218.32,-1604.41 222.66,-1599.76 216.37,-1600.69 218.32,-1604.41"/>
</g>
<!-- Node0x61aa94eec680 -->
<g id="node42" class="node">
<title>Node0x61aa94eec680</title>
<path fill="#f0f4ff" stroke="black" d="M455,-1544C455,-1544 235,-1544 235,-1544 229,-1544 223,-1538 223,-1532 223,-1532 223,-1520 223,-1520 223,-1514 229,-1508 235,-1508 235,-1508 455,-1508 455,-1508 461,-1508 467,-1514 467,-1520 467,-1520 467,-1532 467,-1532 467,-1538 461,-1544 455,-1544"/>
<text text-anchor="middle" x="345" y="-1523.8" font-family="Courier,monospace" font-size="9.00">RunHeuristic_H79_LoadTagAllocationOverflow()</text>
</g>
<!-- Node0x61aa94ef23e0&#45;&gt;Node0x61aa94eec680 -->
<g id="edge41" class="edge">
<title>Node0x61aa94ef23e0&#45;&gt;Node0x61aa94eec680</title>
<path fill="none" stroke="#4a6fa5" d="M73.27,-1913.64C75.24,-1852.37 90.31,-1653.21 202,-1555 206.68,-1550.89 211.78,-1547.3 217.17,-1544.17"/>
<polygon fill="#4a6fa5" stroke="#4a6fa5" points="218.39,-1545.9 222.66,-1541.2 216.39,-1542.21 218.39,-1545.9"/>
</g>
<!-- Node0x61aa94f07350 -->
<g id="node43" class="node">
<title>Node0x61aa94f07350</title>
<path fill="#f0f4ff" stroke="black" d="M439,-1486C439,-1486 251,-1486 251,-1486 245,-1486 239,-1480 239,-1474 239,-1474 239,-1462 239,-1462 239,-1456 245,-1450 251,-1450 251,-1450 439,-1450 439,-1450 445,-1450 451,-1456 451,-1462 451,-1462 451,-1474 451,-1474 451,-1480 445,-1486 439,-1486"/>
<text text-anchor="middle" x="345" y="-1465.8" font-family="Courier,monospace" font-size="9.00">RunHeuristic_H80_SharedTagPointerUAF()</text>
</g>
<!-- Node0x61aa94ef23e0&#45;&gt;Node0x61aa94f07350 -->
<g id="edge42" class="edge">
<title>Node0x61aa94ef23e0&#45;&gt;Node0x61aa94f07350</title>
<path fill="none" stroke="#4a6fa5" d="M72.32,-1913.76C70.88,-1846.89 75.42,-1613.04 202,-1497 211.01,-1488.74 221.7,-1482.58 233.13,-1478"/>
<polygon fill="#4a6fa5" stroke="#4a6fa5" points="233.91,-1479.95 238.79,-1475.88 232.43,-1476.02 233.91,-1479.95"/>
</g>
<!-- Node0x61aa94f073e0 -->
<g id="node44" class="node">
<title>Node0x61aa94f073e0</title>
<path fill="#f0f4ff" stroke="black" d="M457.5,-1428C457.5,-1428 232.5,-1428 232.5,-1428 226.5,-1428 220.5,-1422 220.5,-1416 220.5,-1416 220.5,-1404 220.5,-1404 220.5,-1398 226.5,-1392 232.5,-1392 232.5,-1392 457.5,-1392 457.5,-1392 463.5,-1392 469.5,-1398 469.5,-1404 469.5,-1404 469.5,-1416 469.5,-1416 469.5,-1422 463.5,-1428 457.5,-1428"/>
<text text-anchor="middle" x="345" y="-1407.8" font-family="Courier,monospace" font-size="9.00">RunHeuristic_H81_MPECalculatorIOConsistency()</text>
</g>
<!-- Node0x61aa94ef23e0&#45;&gt;Node0x61aa94f073e0 -->
<g id="edge43" class="edge">
<title>Node0x61aa94ef23e0&#45;&gt;Node0x61aa94f073e0</title>
<path fill="none" stroke="#4a6fa5" d="M75.2,-1913.74C85.35,-1832.76 130.13,-1507.06 202,-1439 205.94,-1435.27 210.22,-1431.96 214.76,-1429.03"/>
<polygon fill="#4a6fa5" stroke="#4a6fa5" points="216.14,-1430.65 220.21,-1425.76 213.98,-1427.05 216.14,-1430.65"/>
</g>
<!-- Node0x61aa94eeca40 -->
<g id="node45" class="node">
<title>Node0x61aa94eeca40</title>
<path fill="#f0f4ff" stroke="black" d="M436.5,-1370C436.5,-1370 253.5,-1370 253.5,-1370 247.5,-1370 241.5,-1364 241.5,-1358 241.5,-1358 241.5,-1346 241.5,-1346 241.5,-1340 247.5,-1334 253.5,-1334 253.5,-1334 436.5,-1334 436.5,-1334 442.5,-1334 448.5,-1340 448.5,-1346 448.5,-1346 448.5,-1358 448.5,-1358 448.5,-1364 442.5,-1370 436.5,-1370"/>
<text text-anchor="middle" x="345" y="-1349.8" font-family="Courier,monospace" font-size="9.00">RunHeuristic_H82_IOReadSizeOverflow()</text>
</g>
<!-- Node0x61aa94ef23e0&#45;&gt;Node0x61aa94eeca40 -->
<g id="edge44" class="edge">
<title>Node0x61aa94ef23e0&#45;&gt;Node0x61aa94eeca40</title>
<path fill="none" stroke="#4a6fa5" d="M74.65,-1913.98C82.89,-1827.74 122.47,-1458.29 202,-1381 211.47,-1371.8 223.02,-1365.15 235.4,-1360.4"/>
<polygon fill="#4a6fa5" stroke="#4a6fa5" points="236.2,-1362.34 241.14,-1358.34 234.79,-1358.39 236.2,-1362.34"/>
</g>
<!-- Node0x61aa94e993a0 -->
<g id="node46" class="node">
<title>Node0x61aa94e993a0</title>
<path fill="#f0f4ff" stroke="black" d="M444.5,-1312C444.5,-1312 245.5,-1312 245.5,-1312 239.5,-1312 233.5,-1306 233.5,-1300 233.5,-1300 233.5,-1288 233.5,-1288 233.5,-1282 239.5,-1276 245.5,-1276 245.5,-1276 444.5,-1276 444.5,-1276 450.5,-1276 456.5,-1282 456.5,-1288 456.5,-1288 456.5,-1300 456.5,-1300 456.5,-1306 450.5,-1312 444.5,-1312"/>
<text text-anchor="middle" x="345" y="-1291.8" font-family="Courier,monospace" font-size="9.00">RunHeuristic_H83_FloatNumericArraySize()</text>
</g>
<!-- Node0x61aa94ef23e0&#45;&gt;Node0x61aa94e993a0 -->
<g id="edge45" class="edge">
<title>Node0x61aa94ef23e0&#45;&gt;Node0x61aa94e993a0</title>
<path fill="none" stroke="#4a6fa5" d="M74.22,-1913.96C80.77,-1822.33 114.85,-1409.52 202,-1323 209.46,-1315.59 218.28,-1309.83 227.8,-1305.37"/>
<polygon fill="#4a6fa5" stroke="#4a6fa5" points="228.82,-1307.22 233.48,-1302.9 227.14,-1303.37 228.82,-1307.22"/>
</g>
<!-- Node0x61aa94eb85d0 -->
<g id="node47" class="node">
<title>Node0x61aa94eb85d0</title>
<path fill="#f0f4ff" stroke="black" d="M455,-1254C455,-1254 235,-1254 235,-1254 229,-1254 223,-1248 223,-1242 223,-1242 223,-1230 223,-1230 223,-1224 229,-1218 235,-1218 235,-1218 455,-1218 455,-1218 461,-1218 467,-1224 467,-1230 467,-1230 467,-1242 467,-1242 467,-1248 461,-1254 455,-1254"/>
<text text-anchor="middle" x="345" y="-1233.8" font-family="Courier,monospace" font-size="9.00">RunHeuristic_H84_LUT3DTransformConsistency()</text>
</g>
<!-- Node0x61aa94ef23e0&#45;&gt;Node0x61aa94eb85d0 -->
<g id="edge46" class="edge">
<title>Node0x61aa94ef23e0&#45;&gt;Node0x61aa94eb85d0</title>
<path fill="none" stroke="#4a6fa5" d="M73.86,-1913.88C78.86,-1816.97 107.21,-1360.78 202,-1265 206.68,-1260.28 211.9,-1256.22 217.5,-1252.74"/>
<polygon fill="#4a6fa5" stroke="#4a6fa5" points="218.61,-1254.52 222.76,-1249.7 216.51,-1250.89 218.61,-1254.52"/>
</g>
<!-- Node0x61aa94eec9c0 -->
<g id="node48" class="node">
<title>Node0x61aa94eec9c0</title>
<path fill="#f0f4ff" stroke="black" d="M431,-1196C431,-1196 259,-1196 259,-1196 253,-1196 247,-1190 247,-1184 247,-1184 247,-1172 247,-1172 247,-1166 253,-1160 259,-1160 259,-1160 431,-1160 431,-1160 437,-1160 443,-1166 443,-1172 443,-1172 443,-1184 443,-1184 443,-1190 437,-1196 431,-1196"/>
<text text-anchor="middle" x="345" y="-1175.8" font-family="Courier,monospace" font-size="9.00">RunHeuristic_H85_MPEBufferOverlap()</text>
</g>
<!-- Node0x61aa94ef23e0&#45;&gt;Node0x61aa94eec9c0 -->
<g id="edge47" class="edge">
<title>Node0x61aa94ef23e0&#45;&gt;Node0x61aa94eec9c0</title>
<path fill="none" stroke="#4a6fa5" d="M73.57,-1913.68C77.12,-1811.42 99.59,-1312.04 202,-1207 212.7,-1196.03 226.35,-1188.63 240.93,-1183.74"/>
<polygon fill="#4a6fa5" stroke="#4a6fa5" points="241.68,-1185.7 246.79,-1181.92 240.43,-1181.69 241.68,-1185.7"/>
</g>
<!-- Node0x61aa94e945a0 -->
<g id="node49" class="node">
<title>Node0x61aa94e945a0</title>
<path fill="#f0f4ff" stroke="black" d="M447,-1138C447,-1138 243,-1138 243,-1138 237,-1138 231,-1132 231,-1126 231,-1126 231,-1114 231,-1114 231,-1108 237,-1102 243,-1102 243,-1102 447,-1102 447,-1102 453,-1102 459,-1108 459,-1114 459,-1114 459,-1126 459,-1126 459,-1132 453,-1138 447,-1138"/>
<text text-anchor="middle" x="345" y="-1117.8" font-family="Courier,monospace" font-size="9.00">RunHeuristic_H86_LocalizedUnicodeBounds()</text>
</g>
<!-- Node0x61aa94ef23e0&#45;&gt;Node0x61aa94e945a0 -->
<g id="edge48" class="edge">
<title>Node0x61aa94ef23e0&#45;&gt;Node0x61aa94e945a0</title>
<path fill="none" stroke="#4a6fa5" d="M73.3,-1913.99C75.45,-1807.75 91.77,-1263.52 202,-1149 208.72,-1142.02 216.63,-1136.48 225.22,-1132.11"/>
<polygon fill="#4a6fa5" stroke="#4a6fa5" points="226.13,-1134.01 230.66,-1129.54 224.33,-1130.21 226.13,-1134.01"/>
</g>
<!-- Node0x61aa94e94670 -->
<g id="node50" class="node">
<title>Node0x61aa94e94670</title>
<path fill="#f0f4ff" stroke="black" d="M428.5,-1080C428.5,-1080 261.5,-1080 261.5,-1080 255.5,-1080 249.5,-1074 249.5,-1068 249.5,-1068 249.5,-1056 249.5,-1056 249.5,-1050 255.5,-1044 261.5,-1044 261.5,-1044 428.5,-1044 428.5,-1044 434.5,-1044 440.5,-1050 440.5,-1056 440.5,-1056 440.5,-1068 440.5,-1068 440.5,-1074 434.5,-1080 428.5,-1080"/>
<text text-anchor="middle" x="345" y="-1059.8" font-family="Courier,monospace" font-size="9.00">RunHeuristic_H87_TRCCurveAnomaly()</text>
</g>
<!-- Node0x61aa94ef23e0&#45;&gt;Node0x61aa94e94670 -->
<g id="edge49" class="edge">
<title>Node0x61aa94ef23e0&#45;&gt;Node0x61aa94e94670</title>
<path fill="none" stroke="#4a6fa5" d="M73.08,-1913.77C73.95,-1802.43 84.11,-1214.84 202,-1091 213.28,-1079.15 227.99,-1071.45 243.66,-1066.55"/>
<polygon fill="#4a6fa5" stroke="#4a6fa5" points="244.29,-1068.56 249.47,-1064.88 243.12,-1064.52 244.29,-1068.56"/>
</g>
<!-- Node0x61aa94e866f0 -->
<g id="node51" class="node">
<title>Node0x61aa94e866f0</title>
<path fill="#f0f4ff" stroke="black" d="M455,-1022C455,-1022 235,-1022 235,-1022 229,-1022 223,-1016 223,-1010 223,-1010 223,-998 223,-998 223,-992 229,-986 235,-986 235,-986 455,-986 455,-986 461,-986 467,-992 467,-998 467,-998 467,-1010 467,-1010 467,-1016 461,-1022 455,-1022"/>
<text text-anchor="middle" x="345" y="-1001.8" font-family="Courier,monospace" font-size="9.00">RunHeuristic_H88_ChromaticAdaptationMatrix()</text>
</g>
<!-- Node0x61aa94ef23e0&#45;&gt;Node0x61aa94e866f0 -->
<g id="edge50" class="edge">
<title>Node0x61aa94ef23e0&#45;&gt;Node0x61aa94e866f0</title>
<path fill="none" stroke="#4a6fa5" d="M72.88,-1913.66C72.52,-1797.65 76.4,-1166.23 202,-1033 206.63,-1028.09 211.84,-1023.9 217.46,-1020.32"/>
<polygon fill="#4a6fa5" stroke="#4a6fa5" points="218.65,-1022.06 222.74,-1017.2 216.51,-1018.44 218.65,-1022.06"/>
</g>
<!-- Node0x61aa94e8c060 -->
<g id="node52" class="node">
<title>Node0x61aa94e8c060</title>
<path fill="#f0f4ff" stroke="black" d="M457.5,-964C457.5,-964 232.5,-964 232.5,-964 226.5,-964 220.5,-958 220.5,-952 220.5,-952 220.5,-940 220.5,-940 220.5,-934 226.5,-928 232.5,-928 232.5,-928 457.5,-928 457.5,-928 463.5,-928 469.5,-934 469.5,-940 469.5,-940 469.5,-952 469.5,-952 469.5,-958 463.5,-964 457.5,-964"/>
<text text-anchor="middle" x="345" y="-943.8" font-family="Courier,monospace" font-size="9.00">RunHeuristic_H89_ProfileSequenceDescription()</text>
</g>
<!-- Node0x61aa94ef23e0&#45;&gt;Node0x61aa94e8c060 -->
<g id="edge51" class="edge">
<title>Node0x61aa94ef23e0&#45;&gt;Node0x61aa94e8c060</title>
<path fill="none" stroke="#4a6fa5" d="M72.71,-1913.67C71.17,-1793.4 68.63,-1117.68 202,-975 205.97,-970.75 210.39,-967.03 215.14,-963.78"/>
<polygon fill="#4a6fa5" stroke="#4a6fa5" points="216.47,-965.42 220.41,-960.43 214.22,-961.87 216.47,-965.42"/>
</g>
<!-- Node0x61aa94e8dc80 -->
<g id="node53" class="node">
<title>Node0x61aa94e8dc80</title>
<path fill="#f0f4ff" stroke="black" d="M462.5,-906C462.5,-906 227.5,-906 227.5,-906 221.5,-906 215.5,-900 215.5,-894 215.5,-894 215.5,-882 215.5,-882 215.5,-876 221.5,-870 227.5,-870 227.5,-870 462.5,-870 462.5,-870 468.5,-870 474.5,-876 474.5,-882 474.5,-882 474.5,-894 474.5,-894 474.5,-900 468.5,-906 462.5,-906"/>
<text text-anchor="middle" x="345" y="-885.8" font-family="Courier,monospace" font-size="9.00">RunHeuristic_H90_PreviewTagChannelConsistency()</text>
</g>
<!-- Node0x61aa94ef23e0&#45;&gt;Node0x61aa94e8dc80 -->
<g id="edge52" class="edge">
<title>Node0x61aa94ef23e0&#45;&gt;Node0x61aa94e8dc80</title>
<path fill="none" stroke="#4a6fa5" d="M74.05,-1913.76C81.76,-1783.18 131.1,-993.43 202,-917 204.64,-914.16 207.48,-911.55 210.48,-909.16"/>
<polygon fill="#4a6fa5" stroke="#4a6fa5" points="211.74,-910.84 215.32,-905.58 209.25,-907.46 211.74,-910.84"/>
</g>
<!-- Node0x61aa94e8fa80 -->
<g id="node54" class="node">
<title>Node0x61aa94e8fa80</title>
<path fill="#f0f4ff" stroke="black" d="M449.5,-848C449.5,-848 240.5,-848 240.5,-848 234.5,-848 228.5,-842 228.5,-836 228.5,-836 228.5,-824 228.5,-824 228.5,-818 234.5,-812 240.5,-812 240.5,-812 449.5,-812 449.5,-812 455.5,-812 461.5,-818 461.5,-824 461.5,-824 461.5,-836 461.5,-836 461.5,-842 455.5,-848 449.5,-848"/>
<text text-anchor="middle" x="345" y="-827.8" font-family="Courier,monospace" font-size="9.00">RunHeuristic_H91_ColorantOrderValidation()</text>
</g>
<!-- Node0x61aa94ef23e0&#45;&gt;Node0x61aa94e8fa80 -->
<g id="edge53" class="edge">
<title>Node0x61aa94ef23e0&#45;&gt;Node0x61aa94e8fa80</title>
<path fill="none" stroke="#4a6fa5" d="M73.93,-1913.59C80.94,-1778.26 127.23,-940.15 202,-859 208.03,-852.46 215.09,-847.17 222.8,-842.92"/>
<polygon fill="#4a6fa5" stroke="#4a6fa5" points="223.85,-844.74 228.24,-840.13 221.94,-841 223.85,-844.74"/>
</g>
<!-- Node0x61aa94ebbe00 -->
<g id="node55" class="node">
<title>Node0x61aa94ebbe00</title>
<path fill="#f0f4ff" stroke="black" d="M455,-790C455,-790 235,-790 235,-790 229,-790 223,-784 223,-778 223,-778 223,-766 223,-766 223,-760 229,-754 235,-754 235,-754 455,-754 455,-754 461,-754 467,-760 467,-766 467,-766 467,-778 467,-778 467,-784 461,-790 455,-790"/>
<text text-anchor="middle" x="345" y="-769.8" font-family="Courier,monospace" font-size="9.00">RunHeuristic_H92_SpectralViewingConditions()</text>
</g>
<!-- Node0x61aa94ef23e0&#45;&gt;Node0x61aa94ebbe00 -->
<g id="edge54" class="edge">
<title>Node0x61aa94ef23e0&#45;&gt;Node0x61aa94ebbe00</title>
<path fill="none" stroke="#4a6fa5" d="M73.8,-1913.94C80.06,-1775.62 123.25,-886.99 202,-801 206.62,-795.96 211.86,-791.66 217.53,-788"/>
<polygon fill="#4a6fa5" stroke="#4a6fa5" points="218.79,-789.7 222.86,-784.82 216.63,-786.09 218.79,-789.7"/>
</g>
<!-- Node0x61aa94ebafe0 -->
<g id="node56" class="node">
<title>Node0x61aa94ebafe0</title>
<path fill="#f0f4ff" stroke="black" d="M439,-732C439,-732 251,-732 251,-732 245,-732 239,-726 239,-720 239,-720 239,-708 239,-708 239,-702 245,-696 251,-696 251,-696 439,-696 439,-696 445,-696 451,-702 451,-708 451,-708 451,-720 451,-720 451,-726 445,-732 439,-732"/>
<text text-anchor="middle" x="345" y="-711.8" font-family="Courier,monospace" font-size="9.00">RunHeuristic_H93_EmbeddedProfileFlag()</text>
</g>
<!-- Node0x61aa94ef23e0&#45;&gt;Node0x61aa94ebafe0 -->
<g id="edge55" class="edge">
<title>Node0x61aa94ef23e0&#45;&gt;Node0x61aa94ebafe0</title>
<path fill="none" stroke="#4a6fa5" d="M73.69,-1913.93C79.31,-1771.59 119.34,-833.76 202,-743 210.59,-733.57 221.35,-726.73 233.08,-721.84"/>
<polygon fill="#4a6fa5" stroke="#4a6fa5" points="234.07,-723.71 238.91,-719.59 232.55,-719.79 234.07,-723.71"/>
</g>
<!-- Node0x61aa94e96720 -->
<g id="node57" class="node">
<title>Node0x61aa94e96720</title>
<path fill="#f0f4ff" stroke="black" d="M462.5,-674C462.5,-674 227.5,-674 227.5,-674 221.5,-674 215.5,-668 215.5,-662 215.5,-662 215.5,-650 215.5,-650 215.5,-644 221.5,-638 227.5,-638 227.5,-638 462.5,-638 462.5,-638 468.5,-638 474.5,-644 474.5,-650 474.5,-650 474.5,-662 474.5,-662 474.5,-668 468.5,-674 462.5,-674"/>
<text text-anchor="middle" x="345" y="-653.8" font-family="Courier,monospace" font-size="9.00">RunHeuristic_H94_MatrixTRCColorantConsistency()</text>
</g>
<!-- Node0x61aa94ef23e0&#45;&gt;Node0x61aa94e96720 -->
<g id="edge56" class="edge">
<title>Node0x61aa94ef23e0&#45;&gt;Node0x61aa94e96720</title>
<path fill="none" stroke="#4a6fa5" d="M73.6,-1913.99C78.58,-1767.95 115.41,-780.56 202,-685 204.61,-682.12 207.41,-679.49 210.39,-677.08"/>
<polygon fill="#4a6fa5" stroke="#4a6fa5" points="211.66,-678.75 215.2,-673.47 209.14,-675.39 211.66,-678.75"/>
</g>
<!-- Node0x61aa94e99530 -->
<g id="node58" class="node">
<title>Node0x61aa94e99530</title>
<path fill="#f0f4ff" stroke="black" d="M476,-616C476,-616 214,-616 214,-616 208,-616 202,-610 202,-604 202,-604 202,-592 202,-592 202,-586 208,-580 214,-580 214,-580 476,-580 476,-580 482,-580 488,-586 488,-592 488,-592 488,-604 488,-604 488,-610 482,-616 476,-616"/>
<text text-anchor="middle" x="345" y="-595.8" font-family="Courier,monospace" font-size="9.00">RunHeuristic_H95_SparseMatrixArrayBoundsValidation()</text>
</g>
<!-- Node0x61aa94ef23e0&#45;&gt;Node0x61aa94e99530 -->
<g id="edge57" class="edge">
<title>Node0x61aa94ef23e0&#45;&gt;Node0x61aa94e99530</title>
<path fill="none" stroke="#4a6fa5" d="M73.52,-1913.64C77.96,-1762.53 111.55,-727.27 202,-627 204.32,-624.43 206.8,-622.05 209.41,-619.86"/>
<polygon fill="#4a6fa5" stroke="#4a6fa5" points="210.81,-621.43 214.26,-616.09 208.23,-618.11 210.81,-621.43"/>
</g>
<!-- Node0x61aa94e9b530 -->
<g id="node59" class="node">
<title>Node0x61aa94e9b530</title>
<path fill="#f0f4ff" stroke="black" d="M455,-558C455,-558 235,-558 235,-558 229,-558 223,-552 223,-546 223,-546 223,-534 223,-534 223,-528 229,-522 235,-522 235,-522 455,-522 455,-522 461,-522 467,-528 467,-534 467,-534 467,-546 467,-546 467,-552 461,-558 455,-558"/>
<text text-anchor="middle" x="345" y="-537.8" font-family="Courier,monospace" font-size="9.00">RunHeuristic_H96_EmbeddedProfileValidation()</text>
</g>
<!-- Node0x61aa94ef23e0&#45;&gt;Node0x61aa94e9b530 -->
<g id="edge58" class="edge">
<title>Node0x61aa94ef23e0&#45;&gt;Node0x61aa94e9b530</title>
<path fill="none" stroke="#4a6fa5" d="M73.43,-1913.81C77.28,-1759.58 107.59,-674.1 202,-569 206.57,-563.91 211.77,-559.58 217.42,-555.89"/>
<polygon fill="#4a6fa5" stroke="#4a6fa5" points="218.67,-557.59 222.72,-552.69 216.5,-554 218.67,-557.59"/>
</g>
<!-- Node0x61aa94e9e340 -->
<g id="node60" class="node">
<title>Node0x61aa94e9e340</title>
<path fill="#f0f4ff" stroke="black" d="M460,-500C460,-500 230,-500 230,-500 224,-500 218,-494 218,-488 218,-488 218,-476 218,-476 218,-470 224,-464 230,-464 230,-464 460,-464 460,-464 466,-464 472,-470 472,-476 472,-476 472,-488 472,-488 472,-494 466,-500 460,-500"/>
<text text-anchor="middle" x="345" y="-479.8" font-family="Courier,monospace" font-size="9.00">RunHeuristic_H97_ProfileSequenceIdValidation()</text>
</g>
<!-- Node0x61aa94ef23e0&#45;&gt;Node0x61aa94e9e340 -->
<g id="edge59" class="edge">
<title>Node0x61aa94ef23e0&#45;&gt;Node0x61aa94e9e340</title>
<path fill="none" stroke="#4a6fa5" d="M73.37,-1913.54C76.68,-1754.64 103.72,-620.84 202,-511 205.3,-507.31 208.94,-504.01 212.83,-501.08"/>
<polygon fill="#4a6fa5" stroke="#4a6fa5" points="214.18,-502.7 217.9,-497.54 211.78,-499.25 214.18,-502.7"/>
</g>
<!-- Node0x61aa94ea15b0 -->
<g id="node61" class="node">
<title>Node0x61aa94ea15b0</title>
<path fill="#f0f4ff" stroke="black" d="M462.5,-442C462.5,-442 227.5,-442 227.5,-442 221.5,-442 215.5,-436 215.5,-430 215.5,-430 215.5,-418 215.5,-418 215.5,-412 221.5,-406 227.5,-406 227.5,-406 462.5,-406 462.5,-406 468.5,-406 474.5,-412 474.5,-418 474.5,-418 474.5,-430 474.5,-430 474.5,-436 468.5,-442 462.5,-442"/>
<text text-anchor="middle" x="345" y="-421.8" font-family="Courier,monospace" font-size="9.00">RunHeuristic_H98_SpectralMPEElementValidation()</text>
</g>
<!-- Node0x61aa94ef23e0&#45;&gt;Node0x61aa94ea15b0 -->
<g id="edge60" class="edge">
<title>Node0x61aa94ef23e0&#45;&gt;Node0x61aa94ea15b0</title>
<path fill="none" stroke="#4a6fa5" d="M73.29,-1913.82C76.05,-1752.39 99.72,-567.71 202,-453 204.64,-450.04 207.49,-447.34 210.51,-444.87"/>
<polygon fill="#4a6fa5" stroke="#4a6fa5" points="211.88,-446.47 215.41,-441.18 209.36,-443.11 211.88,-446.47"/>
</g>
<!-- Node0x61aa94ea4000 -->
<g id="node62" class="node">
<title>Node0x61aa94ea4000</title>
<path fill="#f0f4ff" stroke="black" d="M457.5,-384C457.5,-384 232.5,-384 232.5,-384 226.5,-384 220.5,-378 220.5,-372 220.5,-372 220.5,-360 220.5,-360 220.5,-354 226.5,-348 232.5,-348 232.5,-348 457.5,-348 457.5,-348 463.5,-348 469.5,-354 469.5,-360 469.5,-360 469.5,-372 469.5,-372 469.5,-378 463.5,-384 457.5,-384"/>
<text text-anchor="middle" x="345" y="-363.8" font-family="Courier,monospace" font-size="9.00">RunHeuristic_H99_EmbeddedImageTagValidation()</text>
</g>
<!-- Node0x61aa94ef23e0&#45;&gt;Node0x61aa94ea4000 -->
<g id="edge61" class="edge">
<title>Node0x61aa94ef23e0&#45;&gt;Node0x61aa94ea4000</title>
<path fill="none" stroke="#4a6fa5" d="M73.23,-1913.89C75.47,-1749.24 95.77,-514.53 202,-395 205.93,-390.58 210.33,-386.73 215.09,-383.37"/>
<polygon fill="#4a6fa5" stroke="#4a6fa5" points="216.5,-384.96 220.39,-379.93 214.21,-381.44 216.5,-384.96"/>
</g>
<!-- Node0x61aa94eba1c0 -->
<g id="node63" class="node">
<title>Node0x61aa94eba1c0</title>
<path fill="#f0f4ff" stroke="black" d="M468,-326C468,-326 222,-326 222,-326 216,-326 210,-320 210,-314 210,-314 210,-302 210,-302 210,-296 216,-290 222,-290 222,-290 468,-290 468,-290 474,-290 480,-296 480,-302 480,-302 480,-314 480,-314 480,-320 474,-326 468,-326"/>
<text text-anchor="middle" x="345" y="-305.8" font-family="Courier,monospace" font-size="9.00">RunHeuristic_H100_ProfileSequenceDescValidation()</text>
</g>
<!-- Node0x61aa94ef23e0&#45;&gt;Node0x61aa94eba1c0 -->
<g id="edge62" class="edge">
<title>Node0x61aa94ef23e0&#45;&gt;Node0x61aa94eba1c0</title>
<path fill="none" stroke="#4a6fa5" d="M73.17,-1913.74C74.93,-1745.04 91.86,-461.31 202,-337 204.29,-334.41 206.75,-332.02 209.35,-329.8"/>
<polygon fill="#4a6fa5" stroke="#4a6fa5" points="210.75,-331.37 214.17,-326.01 208.15,-328.07 210.75,-331.37"/>
</g>
<!-- Node0x61aa94eb7770 -->
<g id="node64" class="node">
<title>Node0x61aa94eb7770</title>
<path fill="#f0f4ff" stroke="black" d="M470.5,-268C470.5,-268 219.5,-268 219.5,-268 213.5,-268 207.5,-262 207.5,-256 207.5,-256 207.5,-244 207.5,-244 207.5,-238 213.5,-232 219.5,-232 219.5,-232 470.5,-232 470.5,-232 476.5,-232 482.5,-238 482.5,-244 482.5,-244 482.5,-256 482.5,-256 482.5,-262 476.5,-268 470.5,-268"/>
<text text-anchor="middle" x="345" y="-247.8" font-family="Courier,monospace" font-size="9.00">RunHeuristic_H101_MPESubElementChannelContinuity()</text>
</g>
<!-- Node0x61aa94ef23e0&#45;&gt;Node0x61aa94eb7770 -->
<g id="edge63" class="edge">
<title>Node0x61aa94ef23e0&#45;&gt;Node0x61aa94eb7770</title>
<path fill="none" stroke="#4a6fa5" d="M73.12,-1913.89C74.38,-1742.43 87.89,-408.16 202,-279 204.13,-276.59 206.39,-274.35 208.78,-272.27"/>
<polygon fill="#4a6fa5" stroke="#4a6fa5" points="210.48,-273.6 213.85,-268.22 207.86,-270.32 210.48,-273.6"/>
</g>
<!-- Node0x61aa94eb40d0 -->
<g id="node65" class="node">
<title>Node0x61aa94eb40d0</title>
<path fill="#f0f4ff" stroke="black" d="M465.5,-210C465.5,-210 224.5,-210 224.5,-210 218.5,-210 212.5,-204 212.5,-198 212.5,-198 212.5,-186 212.5,-186 212.5,-180 218.5,-174 224.5,-174 224.5,-174 465.5,-174 465.5,-174 471.5,-174 477.5,-180 477.5,-186 477.5,-186 477.5,-198 477.5,-198 477.5,-204 471.5,-210 465.5,-210"/>
<text text-anchor="middle" x="345" y="-189.8" font-family="Courier,monospace" font-size="9.00">RunHeuristic_H102_TagSizeProfileSizeCrossCheck()</text>
</g>
<!-- Node0x61aa94ef23e0&#45;&gt;Node0x61aa94eb40d0 -->
<g id="edge64" class="edge">
<title>Node0x61aa94ef23e0&#45;&gt;Node0x61aa94eb40d0</title>
<path fill="none" stroke="#4a6fa5" d="M73.07,-1913.81C73.87,-1738.68 83.96,-354.96 202,-221 204.12,-218.59 206.39,-216.35 208.78,-214.26"/>
<polygon fill="#4a6fa5" stroke="#4a6fa5" points="210.47,-215.6 213.84,-210.2 207.84,-212.32 210.47,-215.6"/>
</g>
<!-- Node0x61aa94eb4b00 -->
<g id="node66" class="node">
<title>Node0x61aa94eb4b00</title>
<path fill="#f0f4ff" stroke="black" d="M465.5,-152C465.5,-152 224.5,-152 224.5,-152 218.5,-152 212.5,-146 212.5,-140 212.5,-140 212.5,-128 212.5,-128 212.5,-122 218.5,-116 224.5,-116 224.5,-116 465.5,-116 465.5,-116 471.5,-116 477.5,-122 477.5,-128 477.5,-128 477.5,-140 477.5,-140 477.5,-146 471.5,-152 465.5,-152"/>
<text text-anchor="middle" x="345" y="-131.8" font-family="Courier,monospace" font-size="9.00">RunHeuristic_H146_StackBufferOverflowGetValues()</text>
</g>
<!-- Node0x61aa94ef23e0&#45;&gt;Node0x61aa94eb4b00 -->
<g id="edge65" class="edge">
<title>Node0x61aa94ef23e0&#45;&gt;Node0x61aa94eb4b00</title>
<path fill="none" stroke="#4a6fa5" d="M73.02,-1913.76C73.37,-1735.13 80.02,-301.77 202,-163 204.12,-160.59 206.38,-158.34 208.77,-156.26"/>
<polygon fill="#4a6fa5" stroke="#4a6fa5" points="210.46,-157.59 213.83,-152.19 207.83,-154.31 210.46,-157.59"/>
</g>
<!-- Node0x61aa94e933d0 -->
<g id="node67" class="node">
<title>Node0x61aa94e933d0</title>
<path fill="#f0f4ff" stroke="black" d="M452,-94C452,-94 238,-94 238,-94 232,-94 226,-88 226,-82 226,-82 226,-70 226,-70 226,-64 232,-58 238,-58 238,-58 452,-58 452,-58 458,-58 464,-64 464,-70 464,-70 464,-82 464,-82 464,-88 458,-94 452,-94"/>
<text text-anchor="middle" x="345" y="-73.8" font-family="Courier,monospace" font-size="9.00">RunHeuristic_H147_NullPointerAfterTagRead()</text>
</g>
<!-- Node0x61aa94ef23e0&#45;&gt;Node0x61aa94e933d0 -->
<g id="edge66" class="edge">
<title>Node0x61aa94ef23e0&#45;&gt;Node0x61aa94e933d0</title>
<path fill="none" stroke="#4a6fa5" d="M72.97,-1913.74C72.89,-1731.78 76.08,-248.59 202,-105 207.35,-98.89 213.61,-93.87 220.47,-89.74"/>
<polygon fill="#4a6fa5" stroke="#4a6fa5" points="221.6,-91.52 225.82,-86.76 219.56,-87.85 221.6,-91.52"/>
</g>
<!-- Node0x61aa94eb5190 -->
<g id="node68" class="node">
<title>Node0x61aa94eb5190</title>
<path fill="#f0f4ff" stroke="black" d="M441.5,-36C441.5,-36 248.5,-36 248.5,-36 242.5,-36 236.5,-30 236.5,-24 236.5,-24 236.5,-12 236.5,-12 236.5,-6 242.5,0 248.5,0 248.5,0 441.5,0 441.5,0 447.5,0 453.5,-6 453.5,-12 453.5,-12 453.5,-24 453.5,-24 453.5,-30 447.5,-36 441.5,-36"/>
<text text-anchor="middle" x="345" y="-15.8" font-family="Courier,monospace" font-size="9.00">RunHeuristic_H148_MemcpyBoundsOverlap()</text>
</g>
<!-- Node0x61aa94ef23e0&#45;&gt;Node0x61aa94eb5190 -->
<g id="edge67" class="edge">
<title>Node0x61aa94ef23e0&#45;&gt;Node0x61aa94eb5190</title>
<path fill="none" stroke="#4a6fa5" d="M72.93,-1913.74C72.42,-1728.62 72.13,-195.43 202,-47 209.9,-37.97 219.79,-31.3 230.64,-26.42"/>
<polygon fill="#4a6fa5" stroke="#4a6fa5" points="231.67,-28.27 236.4,-24.03 230.06,-24.39 231.67,-28.27"/>
</g>
</g>
</svg>
