<?xml version="1.0" encoding="UTF-8" standalone="no"?>
<!DOCTYPE svg PUBLIC "-//W3C//DTD SVG 1.1//EN"
 "http://www.w3.org/Graphics/SVG/1.1/DTD/svg11.dtd">
<!-- Generated by graphviz version 2.43.0 (0)
 -->
<!-- Title: Call graph: /home/h02332/po/research/call&#45;graph/analyzer/IccImageAnalyzer.ll Pages: 1 -->
<svg width="944pt" height="1257pt"
 viewBox="0.00 0.00 944.20 1257.29" xmlns="http://www.w3.org/2000/svg" xmlns:xlink="http://www.w3.org/1999/xlink">
<g id="graph0" class="graph" transform="scale(1 1) rotate(0) translate(21.6 1235.69)">
<title>Call graph: /home/h02332/po/research/call&#45;graph/analyzer/IccImageAnalyzer.ll</title>
<polygon fill="white" stroke="transparent" points="-21.6,21.6 -21.6,-1235.69 922.6,-1235.69 922.6,21.6 -21.6,21.6"/>
<!-- Node0x580409f16470 -->
<g id="node1" class="node">
<title>Node0x580409f16470</title>
<path fill="#f0f4ff" stroke="black" d="M325.5,-256C325.5,-256 242.5,-256 242.5,-256 236.5,-256 230.5,-250 230.5,-244 230.5,-244 230.5,-232 230.5,-232 230.5,-226 236.5,-220 242.5,-220 242.5,-220 325.5,-220 325.5,-220 331.5,-220 337.5,-226 337.5,-232 337.5,-232 337.5,-244 337.5,-244 337.5,-250 331.5,-256 325.5,-256"/>
<text text-anchor="middle" x="284" y="-235.8" font-family="Courier,monospace" font-size="9.00">PngColorTypeName()</text>
</g>
<!-- Node0x580409ee9470 -->
<g id="node2" class="node">
<title>Node0x580409ee9470</title>
<path fill="#f0f4ff" stroke="black" d="M325.5,-94C325.5,-94 242.5,-94 242.5,-94 236.5,-94 230.5,-88 230.5,-82 230.5,-82 230.5,-70 230.5,-70 230.5,-64 236.5,-58 242.5,-58 242.5,-58 325.5,-58 325.5,-58 331.5,-58 337.5,-64 337.5,-70 337.5,-70 337.5,-82 337.5,-82 337.5,-88 331.5,-94 325.5,-94"/>
<text text-anchor="middle" x="284" y="-73.8" font-family="Courier,monospace" font-size="9.00">DetectFileFormat()</text>
</g>
<!-- Node0x580409ef1d60 -->
<g id="node3" class="node">
<title>Node0x580409ef1d60</title>
<path fill="#f0f4ff" stroke="black" d="M593,-68C593,-68 536,-68 536,-68 530,-68 524,-62 524,-56 524,-56 524,-44 524,-44 524,-38 530,-32 536,-32 536,-32 593,-32 593,-32 599,-32 605,-38 605,-44 605,-44 605,-56 605,-56 605,-62 599,-68 593,-68"/>
<text text-anchor="middle" x="564.5" y="-47.8" font-family="Courier,monospace" font-size="9.00">OpenRawFile()</text>
</g>
<!-- Node0x580409ee9470&#45;&gt;Node0x580409ef1d60 -->
<g id="edge1" class="edge">
<title>Node0x580409ee9470&#45;&gt;Node0x580409ef1d60</title>
<path fill="none" stroke="#4a6fa5" d="M337.71,-71.08C389.58,-66.24 468,-58.92 517.44,-54.3"/>
<polygon fill="#4a6fa5" stroke="#4a6fa5" points="517.84,-56.37 523.62,-53.72 517.45,-52.19 517.84,-56.37"/>
</g>
<!-- Node0x580409ef6690 -->
<g id="node4" class="node">
<title>Node0x580409ef6690</title>
<path fill="#f0f4ff" stroke="black" d="M889,-120C889,-120 738,-120 738,-120 732,-120 726,-114 726,-108 726,-108 726,-96 726,-96 726,-90 732,-84 738,-84 738,-84 889,-84 889,-84 895,-84 901,-90 901,-96 901,-96 901,-108 901,-108 901,-114 895,-120 889,-120"/>
<text text-anchor="middle" x="813.5" y="-99.8" font-family="Courier,monospace" font-size="9.00">RawFileHandle::~RawFileHandle()</text>
</g>
<!-- Node0x580409ee9470&#45;&gt;Node0x580409ef6690 -->
<g id="edge2" class="edge">
<title>Node0x580409ee9470&#45;&gt;Node0x580409ef6690</title>
<path fill="none" stroke="#4a6fa5" d="M337.51,-78.59C426.64,-82.98 608.66,-91.95 719.69,-97.43"/>
<polygon fill="#4a6fa5" stroke="#4a6fa5" points="719.81,-99.53 725.91,-97.73 720.02,-95.34 719.81,-99.53"/>
</g>
<!-- Node0x580409ef1d60&#45;&gt;Node0x580409ef6690 -->
<g id="edge4" class="edge">
<title>Node0x580409ef1d60&#45;&gt;Node0x580409ef6690</title>
<path fill="none" stroke="#4a6fa5" d="M605.18,-58.35C636.25,-64.9 680.72,-74.26 720.5,-82.63"/>
<polygon fill="#4a6fa5" stroke="#4a6fa5" points="720.54,-84.79 726.85,-83.97 721.41,-80.68 720.54,-84.79"/>
</g>
<!-- Node0x580409ad1fd0 -->
<g id="node5" class="node">
<title>Node0x580409ad1fd0</title>
<path fill="#f0f4ff" stroke="black" d="M886.5,-62C886.5,-62 740.5,-62 740.5,-62 734.5,-62 728.5,-56 728.5,-50 728.5,-50 728.5,-38 728.5,-38 728.5,-32 734.5,-26 740.5,-26 740.5,-26 886.5,-26 886.5,-26 892.5,-26 898.5,-32 898.5,-38 898.5,-38 898.5,-50 898.5,-50 898.5,-56 892.5,-62 886.5,-62"/>
<text text-anchor="middle" x="813.5" y="-41.8" font-family="Courier,monospace" font-size="9.00">RawFileHandle::RawFileHandle()</text>
</g>
<!-- Node0x580409ef1d60&#45;&gt;Node0x580409ad1fd0 -->
<g id="edge3" class="edge">
<title>Node0x580409ef1d60&#45;&gt;Node0x580409ad1fd0</title>
<path fill="none" stroke="#4a6fa5" d="M605.18,-49.04C636.64,-48.27 681.83,-47.17 721.99,-46.2"/>
<polygon fill="#4a6fa5" stroke="#4a6fa5" points="722.45,-48.29 728.4,-46.04 722.35,-44.09 722.45,-48.29"/>
</g>
<!-- Node0x580409a853f0 -->
<g id="node6" class="node">
<title>Node0x580409a853f0</title>
<path fill="#f0f4ff" stroke="black" d="M310,-36C310,-36 258,-36 258,-36 252,-36 246,-30 246,-24 246,-24 246,-12 246,-12 246,-6 252,0 258,0 258,0 310,0 310,0 316,0 322,-6 322,-12 322,-12 322,-24 322,-24 322,-30 316,-36 310,-36"/>
<text text-anchor="middle" x="284" y="-15.8" font-family="Courier,monospace" font-size="9.00">FormatName()</text>
</g>
<!-- Node0x580409a858e0 -->
<g id="node7" class="node">
<title>Node0x580409a858e0</title>
<path fill="#f0f4ff" stroke="black" d="M375.5,-788C375.5,-788 192.5,-788 192.5,-788 186.5,-788 180.5,-782 180.5,-776 180.5,-776 180.5,-764 180.5,-764 180.5,-758 186.5,-752 192.5,-752 192.5,-752 375.5,-752 375.5,-752 381.5,-752 387.5,-758 387.5,-764 387.5,-764 387.5,-776 387.5,-776 387.5,-782 381.5,-788 375.5,-788"/>
<text text-anchor="middle" x="284" y="-767.8" font-family="Courier,monospace" font-size="9.00">RunHeuristic_H139_TiffStripGeometry()</text>
</g>
<!-- Node0x580409a8b4a0 -->
<g id="node8" class="node">
<title>Node0x580409a8b4a0</title>
<path fill="#f0f4ff" stroke="black" d="M590.5,-788C590.5,-788 538.5,-788 538.5,-788 532.5,-788 526.5,-782 526.5,-776 526.5,-776 526.5,-764 526.5,-764 526.5,-758 532.5,-752 538.5,-752 538.5,-752 590.5,-752 590.5,-752 596.5,-752 602.5,-758 602.5,-764 602.5,-764 602.5,-776 602.5,-776 602.5,-782 596.5,-788 590.5,-788"/>
<text text-anchor="middle" x="564.5" y="-767.8" font-family="Courier,monospace" font-size="9.00">ColorReset()</text>
</g>
<!-- Node0x580409a858e0&#45;&gt;Node0x580409a8b4a0 -->
<g id="edge5" class="edge">
<title>Node0x580409a858e0&#45;&gt;Node0x580409a8b4a0</title>
<path fill="none" stroke="#4a6fa5" d="M387.52,-770C433.22,-770 484.6,-770 519.99,-770"/>
<polygon fill="#4a6fa5" stroke="#4a6fa5" points="520.41,-772.1 526.41,-770 520.41,-767.9 520.41,-772.1"/>
</g>
<!-- Node0x580409efb0e0 -->
<g id="node9" class="node">
<title>Node0x580409efb0e0</title>
<path fill="#f0f4ff" stroke="black" d="M598,-869C598,-869 531,-869 531,-869 525,-869 519,-863 519,-857 519,-857 519,-845 519,-845 519,-839 525,-833 531,-833 531,-833 598,-833 598,-833 604,-833 610,-839 610,-845 610,-845 610,-857 610,-857 610,-863 604,-869 598,-869"/>
<text text-anchor="middle" x="564.5" y="-848.8" font-family="Courier,monospace" font-size="9.00">ColorCritical()</text>
</g>
<!-- Node0x580409a858e0&#45;&gt;Node0x580409efb0e0 -->
<g id="edge6" class="edge">
<title>Node0x580409a858e0&#45;&gt;Node0x580409efb0e0</title>
<path fill="none" stroke="#4a6fa5" d="M347.15,-788.08C397.12,-802.61 466.42,-822.77 513,-836.31"/>
<polygon fill="#4a6fa5" stroke="#4a6fa5" points="512.5,-838.36 518.85,-838.01 513.68,-834.32 512.5,-838.36"/>
</g>
<!-- Node0x580409efbb60 -->
<g id="node10" class="node">
<title>Node0x580409efbb60</title>
<path fill="#f0f4ff" stroke="black" d="M834,-788C834,-788 793,-788 793,-788 787,-788 781,-782 781,-776 781,-776 781,-764 781,-764 781,-758 787,-752 793,-752 793,-752 834,-752 834,-752 840,-752 846,-758 846,-764 846,-764 846,-776 846,-776 846,-782 840,-788 834,-788"/>
<text text-anchor="middle" x="813.5" y="-767.8" font-family="Courier,monospace" font-size="9.00">GetColor()</text>
</g>
<!-- Node0x580409a8b4a0&#45;&gt;Node0x580409efbb60 -->
<g id="edge8" class="edge">
<title>Node0x580409a8b4a0&#45;&gt;Node0x580409efbb60</title>
<path fill="none" stroke="#4a6fa5" d="M602.75,-770C649.18,-770 728.1,-770 774.76,-770"/>
<polygon fill="#4a6fa5" stroke="#4a6fa5" points="774.84,-772.1 780.84,-770 774.84,-767.9 774.84,-772.1"/>
</g>
<!-- Node0x580409efb0e0&#45;&gt;Node0x580409efbb60 -->
<g id="edge7" class="edge">
<title>Node0x580409efb0e0&#45;&gt;Node0x580409efbb60</title>
<path fill="none" stroke="#4a6fa5" d="M610.23,-836.33C657.33,-820.89 730.66,-796.84 774.89,-782.34"/>
<polygon fill="#4a6fa5" stroke="#4a6fa5" points="775.61,-784.31 780.66,-780.44 774.31,-780.32 775.61,-784.31"/>
</g>
<!-- Node0x580409a865e0 -->
<g id="node11" class="node">
<title>Node0x580409a865e0</title>
<path fill="#f0f4ff" stroke="black" d="M391,-892C391,-892 177,-892 177,-892 171,-892 165,-886 165,-880 165,-880 165,-868 165,-868 165,-862 171,-856 177,-856 177,-856 391,-856 391,-856 397,-856 403,-862 403,-868 403,-868 403,-880 403,-880 403,-886 397,-892 391,-892"/>
<text text-anchor="middle" x="284" y="-871.8" font-family="Courier,monospace" font-size="9.00">RunHeuristic_H140_TiffDimensionValidation()</text>
</g>
<!-- Node0x580409a865e0&#45;&gt;Node0x580409a8b4a0 -->
<g id="edge10" class="edge">
<title>Node0x580409a865e0&#45;&gt;Node0x580409a8b4a0</title>
<path fill="none" stroke="#4a6fa5" d="M333.51,-855.88C386.33,-836.16 470.01,-804.91 520.54,-786.04"/>
<polygon fill="#4a6fa5" stroke="#4a6fa5" points="521.34,-787.98 526.23,-783.92 519.87,-784.05 521.34,-787.98"/>
</g>
<!-- Node0x580409a865e0&#45;&gt;Node0x580409efb0e0 -->
<g id="edge9" class="edge">
<title>Node0x580409a865e0&#45;&gt;Node0x580409efb0e0</title>
<path fill="none" stroke="#4a6fa5" d="M403.11,-864.25C441.47,-861.08 482.02,-857.73 512.75,-855.19"/>
<polygon fill="#4a6fa5" stroke="#4a6fa5" points="512.96,-857.28 518.76,-854.69 512.61,-853.1 512.96,-857.28"/>
</g>
<!-- Node0x580409efbe20 -->
<g id="node12" class="node">
<title>Node0x580409efbe20</title>
<path fill="#f0f4ff" stroke="black" d="M595.5,-1025C595.5,-1025 533.5,-1025 533.5,-1025 527.5,-1025 521.5,-1019 521.5,-1013 521.5,-1013 521.5,-1001 521.5,-1001 521.5,-995 527.5,-989 533.5,-989 533.5,-989 595.5,-989 595.5,-989 601.5,-989 607.5,-995 607.5,-1001 607.5,-1001 607.5,-1013 607.5,-1013 607.5,-1019 601.5,-1025 595.5,-1025"/>
<text text-anchor="middle" x="564.5" y="-1004.8" font-family="Courier,monospace" font-size="9.00">ColorWarning()</text>
</g>
<!-- Node0x580409a865e0&#45;&gt;Node0x580409efbe20 -->
<g id="edge11" class="edge">
<title>Node0x580409a865e0&#45;&gt;Node0x580409efbe20</title>
<path fill="none" stroke="#4a6fa5" d="M372.76,-892.08C383.12,-895.23 393.41,-898.86 403,-903 453.13,-924.67 505.1,-961.43 535.85,-984.94"/>
<polygon fill="#4a6fa5" stroke="#4a6fa5" points="534.94,-986.88 540.97,-988.88 537.5,-983.56 534.94,-986.88"/>
</g>
<!-- Node0x580409efbe20&#45;&gt;Node0x580409efbb60 -->
<g id="edge12" class="edge">
<title>Node0x580409efbe20&#45;&gt;Node0x580409efbb60</title>
<path fill="none" stroke="#4a6fa5" d="M584.47,-988.8C629.01,-946.06 740.18,-839.39 788.94,-792.6"/>
<polygon fill="#4a6fa5" stroke="#4a6fa5" points="790.59,-793.93 793.46,-788.27 787.68,-790.9 790.59,-793.93"/>
</g>
<!-- Node0x580409a8b420 -->
<g id="node13" class="node">
<title>Node0x580409a8b420</title>
<path fill="#f0f4ff" stroke="black" d="M380.5,-1054C380.5,-1054 187.5,-1054 187.5,-1054 181.5,-1054 175.5,-1048 175.5,-1042 175.5,-1042 175.5,-1030 175.5,-1030 175.5,-1024 181.5,-1018 187.5,-1018 187.5,-1018 380.5,-1018 380.5,-1018 386.5,-1018 392.5,-1024 392.5,-1030 392.5,-1030 392.5,-1042 392.5,-1042 392.5,-1048 386.5,-1054 380.5,-1054"/>
<text text-anchor="middle" x="284" y="-1033.8" font-family="Courier,monospace" font-size="9.00">RunHeuristic_H141_TiffIfdOffsetBounds()</text>
</g>
<!-- Node0x580409a8b420&#45;&gt;Node0x580409a8b4a0 -->
<g id="edge13" class="edge">
<title>Node0x580409a8b420&#45;&gt;Node0x580409a8b4a0</title>
<path fill="none" stroke="#4a6fa5" d="M325.86,-1017.94C350.93,-1005.12 382.12,-985.79 403,-961 446.12,-909.8 415.45,-871.06 461,-822 477.13,-804.62 500.37,-792.17 520.65,-783.82"/>
<polygon fill="#4a6fa5" stroke="#4a6fa5" points="521.48,-785.75 526.28,-781.58 519.93,-781.85 521.48,-785.75"/>
</g>
<!-- Node0x580409a8b420&#45;&gt;Node0x580409efb0e0 -->
<g id="edge14" class="edge">
<title>Node0x580409a8b420&#45;&gt;Node0x580409efb0e0</title>
<path fill="none" stroke="#4a6fa5" d="M364.53,-1017.94C377.82,-1013.38 391.13,-1007.79 403,-1001 462.62,-966.86 517.81,-906.5 545.28,-873.72"/>
<polygon fill="#4a6fa5" stroke="#4a6fa5" points="546.91,-875.04 549.13,-869.09 543.68,-872.36 546.91,-875.04"/>
</g>
<!-- Node0x580409a8b420&#45;&gt;Node0x580409efbe20 -->
<g id="edge15" class="edge">
<title>Node0x580409a8b420&#45;&gt;Node0x580409efbe20</title>
<path fill="none" stroke="#4a6fa5" d="M392.68,-1024.79C435.04,-1020.38 481.52,-1015.54 515.29,-1012.02"/>
<polygon fill="#4a6fa5" stroke="#4a6fa5" points="515.69,-1014.09 521.44,-1011.38 515.26,-1009.91 515.69,-1014.09"/>
</g>
<!-- Node0x580409a8bd90 -->
<g id="node14" class="node">
<title>Node0x580409a8bd90</title>
<path fill="#f0f4ff" stroke="black" d="M375.5,-1158C375.5,-1158 192.5,-1158 192.5,-1158 186.5,-1158 180.5,-1152 180.5,-1146 180.5,-1146 180.5,-1134 180.5,-1134 180.5,-1128 186.5,-1122 192.5,-1122 192.5,-1122 375.5,-1122 375.5,-1122 381.5,-1122 387.5,-1128 387.5,-1134 387.5,-1134 387.5,-1146 387.5,-1146 387.5,-1152 381.5,-1158 375.5,-1158"/>
<text text-anchor="middle" x="284" y="-1137.8" font-family="Courier,monospace" font-size="9.00">RunHeuristic_H149_TiffIfdChainCycle()</text>
</g>
<!-- Node0x580409a8bd90&#45;&gt;Node0x580409a8b4a0 -->
<g id="edge16" class="edge">
<title>Node0x580409a8bd90&#45;&gt;Node0x580409a8b4a0</title>
<path fill="none" stroke="#4a6fa5" d="M329.59,-1121.91C354.77,-1109.49 384.75,-1090.59 403,-1065 467.47,-974.6 392.24,-909.18 461,-822 475.91,-803.1 499.53,-790.46 520.35,-782.38"/>
<polygon fill="#4a6fa5" stroke="#4a6fa5" points="521.24,-784.29 526.13,-780.22 519.78,-780.35 521.24,-784.29"/>
</g>
<!-- Node0x580409a8bd90&#45;&gt;Node0x580409efb0e0 -->
<g id="edge20" class="edge">
<title>Node0x580409a8bd90&#45;&gt;Node0x580409efb0e0</title>
<path fill="none" stroke="#4a6fa5" d="M321.57,-1121.96C346.4,-1108.54 378.97,-1088.51 403,-1065 436.22,-1032.5 433.49,-1015.45 461,-978 488.52,-940.54 522.86,-898.93 543.98,-873.88"/>
<polygon fill="#4a6fa5" stroke="#4a6fa5" points="545.76,-875.03 548.02,-869.1 542.55,-872.32 545.76,-875.03"/>
</g>
<!-- Node0x580409a8bd90&#45;&gt;Node0x580409efbe20 -->
<g id="edge17" class="edge">
<title>Node0x580409a8bd90&#45;&gt;Node0x580409efbe20</title>
<path fill="none" stroke="#4a6fa5" d="M356.9,-1121.92C372.38,-1117.13 388.45,-1111.47 403,-1105 450.94,-1083.69 501.94,-1050.52 533.27,-1028.77"/>
<polygon fill="#4a6fa5" stroke="#4a6fa5" points="534.78,-1030.27 538.5,-1025.12 532.38,-1026.83 534.78,-1030.27"/>
</g>
<!-- Node0x580409efd200 -->
<g id="node15" class="node">
<title>Node0x580409efd200</title>
<path fill="#f0f4ff" stroke="black" d="M656,-1187C656,-1187 473,-1187 473,-1187 467,-1187 461,-1181 461,-1175 461,-1175 461,-1163 461,-1163 461,-1157 467,-1151 473,-1151 473,-1151 656,-1151 656,-1151 662,-1151 668,-1157 668,-1163 668,-1163 668,-1175 668,-1175 668,-1181 662,-1187 656,-1187"/>
<text text-anchor="middle" x="564.5" y="-1166.8" font-family="Courier,monospace" font-size="9.00">RunHeuristic_H149_TiffIfdChainCycle()</text>
</g>
<!-- Node0x580409a8bd90&#45;&gt;Node0x580409efd200 -->
<g id="edge18" class="edge">
<title>Node0x580409a8bd90&#45;&gt;Node0x580409efd200</title>
<path fill="none" stroke="#4a6fa5" d="M387.52,-1150.67C409.35,-1152.95 432.48,-1155.36 454.54,-1157.65"/>
<polygon fill="#4a6fa5" stroke="#4a6fa5" points="454.55,-1159.77 460.73,-1158.3 454.98,-1155.59 454.55,-1159.77"/>
</g>
<!-- Node0x580409efc4c0 -->
<g id="node16" class="node">
<title>Node0x580409efc4c0</title>
<path fill="#f0f4ff" stroke="black" d="M656,-1129C656,-1129 473,-1129 473,-1129 467,-1129 461,-1123 461,-1117 461,-1117 461,-1105 461,-1105 461,-1099 467,-1093 473,-1093 473,-1093 656,-1093 656,-1093 662,-1093 668,-1099 668,-1105 668,-1105 668,-1117 668,-1117 668,-1123 662,-1129 656,-1129"/>
<text text-anchor="middle" x="564.5" y="-1108.8" font-family="Courier,monospace" font-size="9.00">RunHeuristic_H149_TiffIfdChainCycle()</text>
</g>
<!-- Node0x580409a8bd90&#45;&gt;Node0x580409efc4c0 -->
<g id="edge19" class="edge">
<title>Node0x580409a8bd90&#45;&gt;Node0x580409efc4c0</title>
<path fill="none" stroke="#4a6fa5" d="M387.52,-1129.33C409.35,-1127.05 432.48,-1124.64 454.54,-1122.35"/>
<polygon fill="#4a6fa5" stroke="#4a6fa5" points="454.98,-1124.41 460.73,-1121.7 454.55,-1120.23 454.98,-1124.41"/>
</g>
<!-- Node0x580409efdd00 -->
<g id="node17" class="node">
<title>Node0x580409efdd00</title>
<path fill="#f0f4ff" stroke="black" d="M373,-950C373,-950 195,-950 195,-950 189,-950 183,-944 183,-938 183,-938 183,-926 183,-926 183,-920 189,-914 195,-914 195,-914 373,-914 373,-914 379,-914 385,-920 385,-926 385,-926 385,-938 385,-938 385,-944 379,-950 373,-950"/>
<text text-anchor="middle" x="284" y="-929.8" font-family="Courier,monospace" font-size="9.00">RunHeuristic_H150_TiffTileGeometry()</text>
</g>
<!-- Node0x580409efdd00&#45;&gt;Node0x580409a8b4a0 -->
<g id="edge21" class="edge">
<title>Node0x580409efdd00&#45;&gt;Node0x580409a8b4a0</title>
<path fill="none" stroke="#4a6fa5" d="M382.72,-913.99C389.86,-910.89 396.71,-907.26 403,-903 439.66,-878.18 427.41,-850.84 461,-822 478.5,-806.98 501.09,-794.92 520.61,-786.21"/>
<polygon fill="#4a6fa5" stroke="#4a6fa5" points="521.64,-788.05 526.3,-783.73 519.96,-784.21 521.64,-788.05"/>
</g>
<!-- Node0x580409efdd00&#45;&gt;Node0x580409efb0e0 -->
<g id="edge22" class="edge">
<title>Node0x580409efdd00&#45;&gt;Node0x580409efb0e0</title>
<path fill="none" stroke="#4a6fa5" d="M362.02,-913.92C375.71,-910.47 389.81,-906.75 403,-903 440.13,-892.44 481.57,-878.97 513.04,-868.38"/>
<polygon fill="#4a6fa5" stroke="#4a6fa5" points="513.78,-870.35 518.8,-866.44 512.44,-866.37 513.78,-870.35"/>
</g>
<!-- Node0x580409efdd00&#45;&gt;Node0x580409efbe20 -->
<g id="edge23" class="edge">
<title>Node0x580409efdd00&#45;&gt;Node0x580409efbe20</title>
<path fill="none" stroke="#4a6fa5" d="M352.06,-950.06C402.43,-963.62 470.22,-981.88 515.32,-994.02"/>
<polygon fill="#4a6fa5" stroke="#4a6fa5" points="514.91,-996.09 521.25,-995.62 516,-992.03 514.91,-996.09"/>
</g>
<!-- Node0x580409efe590 -->
<g id="node18" class="node">
<title>Node0x580409efe590</title>
<path fill="#f0f4ff" stroke="black" d="M95,-788C95,-788 12,-788 12,-788 6,-788 0,-782 0,-776 0,-776 0,-764 0,-764 0,-758 6,-752 12,-752 12,-752 95,-752 95,-752 101,-752 107,-758 107,-764 107,-764 107,-776 107,-776 107,-782 101,-788 95,-788"/>
<text text-anchor="middle" x="53.5" y="-767.8" font-family="Courier,monospace" font-size="9.00">AnalyzeTiffImage()</text>
</g>
<!-- Node0x580409efe590&#45;&gt;Node0x580409a858e0 -->
<g id="edge36" class="edge">
<title>Node0x580409efe590&#45;&gt;Node0x580409a858e0</title>
<path fill="none" stroke="#4a6fa5" d="M107.21,-770C127.17,-770 150.71,-770 173.96,-770"/>
<polygon fill="#4a6fa5" stroke="#4a6fa5" points="174.18,-772.1 180.18,-770 174.18,-767.9 174.18,-772.1"/>
</g>
<!-- Node0x580409efe590&#45;&gt;Node0x580409a8b4a0 -->
<g id="edge24" class="edge">
<title>Node0x580409efe590&#45;&gt;Node0x580409a8b4a0</title>
<path fill="none" stroke="#4a6fa5" d="M107.07,-753.26C125.22,-748.27 145.82,-743.47 165,-741 269.91,-727.46 297.64,-731.56 403,-741 443.06,-744.59 488.07,-753.12 520.21,-760.01"/>
<polygon fill="#4a6fa5" stroke="#4a6fa5" points="520.15,-762.15 526.46,-761.36 521.04,-758.04 520.15,-762.15"/>
</g>
<!-- Node0x580409efe590&#45;&gt;Node0x580409efb0e0 -->
<g id="edge26" class="edge">
<title>Node0x580409efe590&#45;&gt;Node0x580409efb0e0</title>
<path fill="none" stroke="#4a6fa5" d="M94.7,-788.04C99.24,-791.23 103.49,-794.88 107,-799 156.56,-857.25 102.47,-916.97 165,-961 251.49,-1021.9 301.96,-992.3 403,-961 458.44,-943.83 511.76,-900.16 540.83,-873.29"/>
<polygon fill="#4a6fa5" stroke="#4a6fa5" points="542.33,-874.76 545.28,-869.13 539.46,-871.69 542.33,-874.76"/>
</g>
<!-- Node0x580409efe590&#45;&gt;Node0x580409a865e0 -->
<g id="edge35" class="edge">
<title>Node0x580409efe590&#45;&gt;Node0x580409a865e0</title>
<path fill="none" stroke="#4a6fa5" d="M88.39,-788.08C94.64,-791.59 101.07,-795.33 107,-799 133.63,-815.48 136.75,-825.49 165,-839 176.95,-844.72 190.04,-849.72 203.01,-854.01"/>
<polygon fill="#4a6fa5" stroke="#4a6fa5" points="202.6,-856.09 208.95,-855.94 203.89,-852.09 202.6,-856.09"/>
</g>
<!-- Node0x580409efe590&#45;&gt;Node0x580409efbe20 -->
<g id="edge25" class="edge">
<title>Node0x580409efe590&#45;&gt;Node0x580409efbe20</title>
<path fill="none" stroke="#4a6fa5" d="M96.23,-788.02C100.34,-791.18 104.07,-794.82 107,-799 202.47,-935.36 38.51,-1060.8 165,-1169 245.38,-1237.76 309.74,-1218.91 403,-1169 443.97,-1147.07 428.87,-1115.57 461,-1082 480.82,-1061.3 506.94,-1042.28 527.85,-1028.58"/>
<polygon fill="#4a6fa5" stroke="#4a6fa5" points="529.15,-1030.23 533.05,-1025.21 526.87,-1026.71 529.15,-1030.23"/>
</g>
<!-- Node0x580409efe590&#45;&gt;Node0x580409a8b420 -->
<g id="edge34" class="edge">
<title>Node0x580409efe590&#45;&gt;Node0x580409a8b420</title>
<path fill="none" stroke="#4a6fa5" d="M95.21,-788.02C99.62,-791.2 103.69,-794.85 107,-799 165.21,-872.05 99.24,-934.66 165,-1001 170.35,-1006.39 176.49,-1010.97 183.09,-1014.84"/>
<polygon fill="#4a6fa5" stroke="#4a6fa5" points="182.47,-1016.89 188.74,-1017.93 184.49,-1013.21 182.47,-1016.89"/>
</g>
<!-- Node0x580409efe590&#45;&gt;Node0x580409a8bd90 -->
<g id="edge33" class="edge">
<title>Node0x580409efe590&#45;&gt;Node0x580409a8bd90</title>
<path fill="none" stroke="#4a6fa5" d="M96.1,-788.11C100.24,-791.25 104.01,-794.87 107,-799 188.18,-911.11 72.19,-1002.3 165,-1105 169.87,-1110.39 175.52,-1114.96 181.67,-1118.84"/>
<polygon fill="#4a6fa5" stroke="#4a6fa5" points="180.71,-1120.71 186.95,-1121.94 182.84,-1117.09 180.71,-1120.71"/>
</g>
<!-- Node0x580409efe590&#45;&gt;Node0x580409efdd00 -->
<g id="edge32" class="edge">
<title>Node0x580409efe590&#45;&gt;Node0x580409efdd00</title>
<path fill="none" stroke="#4a6fa5" d="M93.27,-788.09C98.2,-791.32 102.94,-794.96 107,-799 144.5,-836.35 122.92,-870.91 165,-903 168.89,-905.97 173.05,-908.64 177.39,-911.04"/>
<polygon fill="#4a6fa5" stroke="#4a6fa5" points="176.68,-913.04 182.98,-913.93 178.62,-909.31 176.68,-913.04"/>
</g>
<!-- Node0x580409a90730 -->
<g id="node19" class="node">
<title>Node0x580409a90730</title>
<path fill="#f0f4ff" stroke="black" d="M307,-464C307,-464 261,-464 261,-464 255,-464 249,-458 249,-452 249,-452 249,-440 249,-440 249,-434 255,-428 261,-428 261,-428 307,-428 307,-428 313,-428 319,-434 319,-440 319,-440 319,-452 319,-452 319,-458 313,-464 307,-464"/>
<text text-anchor="middle" x="284" y="-443.8" font-family="Courier,monospace" font-size="9.00">ColorInfo()</text>
</g>
<!-- Node0x580409efe590&#45;&gt;Node0x580409a90730 -->
<g id="edge27" class="edge">
<title>Node0x580409efe590&#45;&gt;Node0x580409a90730</title>
<path fill="none" stroke="#4a6fa5" d="M58.92,-751.92C73.43,-693.9 121.26,-513.88 165,-475 186.15,-456.2 217.53,-449.14 242.61,-446.68"/>
<polygon fill="#4a6fa5" stroke="#4a6fa5" points="243.05,-448.75 248.85,-446.15 242.69,-444.56 243.05,-448.75"/>
</g>
<!-- Node0x580409a912f0 -->
<g id="node20" class="node">
<title>Node0x580409a912f0</title>
<path fill="#f0f4ff" stroke="black" d="M336,-406C336,-406 232,-406 232,-406 226,-406 220,-400 220,-394 220,-394 220,-382 220,-382 220,-376 226,-370 232,-370 232,-370 336,-370 336,-370 342,-370 348,-376 348,-382 348,-382 348,-394 348,-394 348,-400 342,-406 336,-406"/>
<text text-anchor="middle" x="284" y="-385.8" font-family="Courier,monospace" font-size="9.00">ComprehensiveAnalyze()</text>
</g>
<!-- Node0x580409efe590&#45;&gt;Node0x580409a912f0 -->
<g id="edge28" class="edge">
<title>Node0x580409efe590&#45;&gt;Node0x580409a912f0</title>
<path fill="none" stroke="#4a6fa5" d="M59.68,-751.74C79.77,-681.1 152.13,-429.09 165,-417 178.33,-404.48 196.17,-397.11 213.93,-392.84"/>
<polygon fill="#4a6fa5" stroke="#4a6fa5" points="214.53,-394.86 219.94,-391.51 213.63,-390.76 214.53,-394.86"/>
</g>
<!-- Node0x580409a92480 -->
<g id="node21" class="node">
<title>Node0x580409a92480</title>
<path fill="#f0f4ff" stroke="black" d="M323,-626C323,-626 245,-626 245,-626 239,-626 233,-620 233,-614 233,-614 233,-602 233,-602 233,-596 239,-590 245,-590 245,-590 323,-590 323,-590 329,-590 335,-596 335,-602 335,-602 335,-614 335,-614 335,-620 329,-626 323,-626"/>
<text text-anchor="middle" x="284" y="-605.8" font-family="Courier,monospace" font-size="9.00">ResetAllocGuard()</text>
</g>
<!-- Node0x580409efe590&#45;&gt;Node0x580409a92480 -->
<g id="edge29" class="edge">
<title>Node0x580409efe590&#45;&gt;Node0x580409a92480</title>
<path fill="none" stroke="#4a6fa5" d="M64.42,-751.78C81.18,-722.8 117.92,-666.47 165,-637 183.47,-625.44 206.25,-618.48 226.85,-614.3"/>
<polygon fill="#4a6fa5" stroke="#4a6fa5" points="227.39,-616.34 232.88,-613.14 226.59,-612.21 227.39,-616.34"/>
</g>
<!-- Node0x580409f003a0 -->
<g id="node22" class="node">
<title>Node0x580409f003a0</title>
<path fill="#f0f4ff" stroke="black" d="M315,-522C315,-522 253,-522 253,-522 247,-522 241,-516 241,-510 241,-510 241,-498 241,-498 241,-492 247,-486 253,-486 253,-486 315,-486 315,-486 321,-486 327,-492 327,-498 327,-498 327,-510 327,-510 327,-516 321,-522 315,-522"/>
<text text-anchor="middle" x="284" y="-501.8" font-family="Courier,monospace" font-size="9.00">ColorSuccess()</text>
</g>
<!-- Node0x580409efe590&#45;&gt;Node0x580409f003a0 -->
<g id="edge30" class="edge">
<title>Node0x580409efe590&#45;&gt;Node0x580409f003a0</title>
<path fill="none" stroke="#4a6fa5" d="M61.52,-751.82C76.24,-715.51 113.29,-632.91 165,-579 186.32,-556.77 215.5,-538.15 239.51,-525.02"/>
<polygon fill="#4a6fa5" stroke="#4a6fa5" points="240.57,-526.83 244.86,-522.14 238.58,-523.14 240.57,-526.83"/>
</g>
<!-- Node0x580409a90440 -->
<g id="node23" class="node">
<title>Node0x580409a90440</title>
<path fill="#f0f4ff" stroke="black" d="M328,-684C328,-684 240,-684 240,-684 234,-684 228,-678 228,-672 228,-672 228,-660 228,-660 228,-654 234,-648 240,-648 240,-648 328,-648 328,-648 334,-648 340,-654 340,-660 340,-660 340,-672 340,-672 340,-678 334,-684 328,-684"/>
<text text-anchor="middle" x="284" y="-663.8" font-family="Courier,monospace" font-size="9.00">ScanForInjections()</text>
</g>
<!-- Node0x580409efe590&#45;&gt;Node0x580409a90440 -->
<g id="edge31" class="edge">
<title>Node0x580409efe590&#45;&gt;Node0x580409a90440</title>
<path fill="none" stroke="#4a6fa5" d="M79.3,-751.78C101.01,-736.51 133.86,-715.03 165,-701 182.85,-692.96 203.05,-686.19 221.62,-680.81"/>
<polygon fill="#4a6fa5" stroke="#4a6fa5" points="222.65,-682.7 227.84,-679.04 221.5,-678.66 222.65,-682.7"/>
</g>
<!-- Node0x580409a90730&#45;&gt;Node0x580409efbb60 -->
<g id="edge37" class="edge">
<title>Node0x580409a90730&#45;&gt;Node0x580409efbb60</title>
<path fill="none" stroke="#4a6fa5" d="M319.2,-447.81C390.7,-453.16 558.45,-474.09 668,-555 737.59,-606.39 784.19,-701.95 803.05,-746.28"/>
<polygon fill="#4a6fa5" stroke="#4a6fa5" points="801.17,-747.21 805.43,-751.93 805.04,-745.58 801.17,-747.21"/>
</g>
<!-- Node0x580409f003a0&#45;&gt;Node0x580409efbb60 -->
<g id="edge40" class="edge">
<title>Node0x580409f003a0&#45;&gt;Node0x580409efbb60</title>
<path fill="none" stroke="#4a6fa5" d="M327.1,-512.22C350.02,-517.39 378.6,-525 403,-535 552.69,-596.35 714.96,-702.77 781.45,-748.31"/>
<polygon fill="#4a6fa5" stroke="#4a6fa5" points="780.31,-750.08 786.44,-751.75 782.69,-746.62 780.31,-750.08"/>
</g>
<!-- Node0x580409a90440&#45;&gt;Node0x580409a8b4a0 -->
<g id="edge39" class="edge">
<title>Node0x580409a90440&#45;&gt;Node0x580409a8b4a0</title>
<path fill="none" stroke="#4a6fa5" d="M340.07,-680.88C360.06,-686.66 382.71,-693.66 403,-701 443.54,-715.67 488.55,-735.32 520.56,-749.9"/>
<polygon fill="#4a6fa5" stroke="#4a6fa5" points="520.05,-751.98 526.38,-752.56 521.8,-748.16 520.05,-751.98"/>
</g>
<!-- Node0x580409a90440&#45;&gt;Node0x580409efb0e0 -->
<g id="edge38" class="edge">
<title>Node0x580409a90440&#45;&gt;Node0x580409efb0e0</title>
<path fill="none" stroke="#4a6fa5" d="M317.59,-684.1C342.04,-698.28 375.82,-719.21 403,-741 431.44,-763.8 431.49,-777.6 461,-799 477.62,-811.05 497.43,-821.81 515.18,-830.37"/>
<polygon fill="#4a6fa5" stroke="#4a6fa5" points="514.3,-832.28 520.62,-832.96 516.1,-828.49 514.3,-832.28"/>
</g>
<!-- Node0x580409f01340 -->
<g id="node24" class="node">
<title>Node0x580409f01340</title>
<path fill="#f0f4ff" stroke="black" d="M92.5,-380C92.5,-380 14.5,-380 14.5,-380 8.5,-380 2.5,-374 2.5,-368 2.5,-368 2.5,-356 2.5,-356 2.5,-350 8.5,-344 14.5,-344 14.5,-344 92.5,-344 92.5,-344 98.5,-344 104.5,-350 104.5,-356 104.5,-356 104.5,-368 104.5,-368 104.5,-374 98.5,-380 92.5,-380"/>
<text text-anchor="middle" x="53.5" y="-359.8" font-family="Courier,monospace" font-size="9.00">AnalyzePngImage()</text>
</g>
<!-- Node0x580409f01340&#45;&gt;Node0x580409f16470 -->
<g id="edge50" class="edge">
<title>Node0x580409f01340&#45;&gt;Node0x580409f16470</title>
<path fill="none" stroke="#4a6fa5" d="M72.44,-343.78C93.08,-323.78 128.79,-292 165,-273 183.43,-263.33 204.93,-255.95 224.48,-250.52"/>
<polygon fill="#4a6fa5" stroke="#4a6fa5" points="225.24,-252.49 230.48,-248.89 224.14,-248.43 225.24,-252.49"/>
</g>
<!-- Node0x580409f01340&#45;&gt;Node0x580409a8b4a0 -->
<g id="edge41" class="edge">
<title>Node0x580409f01340&#45;&gt;Node0x580409a8b4a0</title>
<path fill="none" stroke="#4a6fa5" d="M61.05,-343.99C74.48,-310.13 108.7,-237.79 165,-209 259.18,-160.84 318.54,-145.32 403,-209 492.54,-276.51 547.25,-646.82 560.4,-745.71"/>
<polygon fill="#4a6fa5" stroke="#4a6fa5" points="558.34,-746.15 561.21,-751.83 562.51,-745.6 558.34,-746.15"/>
</g>
<!-- Node0x580409f01340&#45;&gt;Node0x580409efb0e0 -->
<g id="edge42" class="edge">
<title>Node0x580409f01340&#45;&gt;Node0x580409efb0e0</title>
<path fill="none" stroke="#4a6fa5" d="M86.41,-343.91C154,-308.27 312.79,-239.03 403,-319 483.4,-390.27 399.38,-710.98 461,-799 473.39,-816.7 493.64,-828.73 512.89,-836.72"/>
<polygon fill="#4a6fa5" stroke="#4a6fa5" points="512.46,-838.81 518.82,-839.07 514.01,-834.91 512.46,-838.81"/>
</g>
<!-- Node0x580409f01340&#45;&gt;Node0x580409efbe20 -->
<g id="edge46" class="edge">
<title>Node0x580409f01340&#45;&gt;Node0x580409efbe20</title>
<path fill="none" stroke="#4a6fa5" d="M104.52,-353.71C190.29,-340.73 360.33,-320.82 403,-359 489.81,-436.68 416.18,-772.48 461,-880 478.45,-921.85 514.14,-961.01 538.45,-984.49"/>
<polygon fill="#4a6fa5" stroke="#4a6fa5" points="537.05,-986.06 542.84,-988.68 539.95,-983.02 537.05,-986.06"/>
</g>
<!-- Node0x580409f01340&#45;&gt;Node0x580409a90730 -->
<g id="edge43" class="edge">
<title>Node0x580409f01340&#45;&gt;Node0x580409a90730</title>
<path fill="none" stroke="#4a6fa5" d="M86.06,-380.05C107.73,-391.85 137.44,-406.89 165,-417 190.27,-426.27 219.67,-433.5 242.8,-438.42"/>
<polygon fill="#4a6fa5" stroke="#4a6fa5" points="242.54,-440.52 248.84,-439.69 243.4,-436.4 242.54,-440.52"/>
</g>
<!-- Node0x580409f01340&#45;&gt;Node0x580409a912f0 -->
<g id="edge44" class="edge">
<title>Node0x580409f01340&#45;&gt;Node0x580409a912f0</title>
<path fill="none" stroke="#4a6fa5" d="M104.65,-367.71C136.69,-371.35 178.67,-376.13 213.86,-380.13"/>
<polygon fill="#4a6fa5" stroke="#4a6fa5" points="213.69,-382.23 219.89,-380.82 214.17,-378.05 213.69,-382.23"/>
</g>
<!-- Node0x580409f01340&#45;&gt;Node0x580409a92480 -->
<g id="edge45" class="edge">
<title>Node0x580409f01340&#45;&gt;Node0x580409a92480</title>
<path fill="none" stroke="#4a6fa5" d="M62.86,-380.01C78.96,-413.29 116.96,-485.32 165,-533 187.1,-554.94 216.69,-573.72 240.71,-587.01"/>
<polygon fill="#4a6fa5" stroke="#4a6fa5" points="239.78,-588.9 246.05,-589.93 241.79,-585.21 239.78,-588.9"/>
</g>
<!-- Node0x580409f01340&#45;&gt;Node0x580409f003a0 -->
<g id="edge47" class="edge">
<title>Node0x580409f01340&#45;&gt;Node0x580409f003a0</title>
<path fill="none" stroke="#4a6fa5" d="M67.21,-380.33C85.73,-405.61 122.59,-450.78 165,-475 186.18,-487.09 212.3,-494.18 234.58,-498.31"/>
<polygon fill="#4a6fa5" stroke="#4a6fa5" points="234.48,-500.43 240.75,-499.4 235.21,-496.29 234.48,-500.43"/>
</g>
<!-- Node0x580409f01340&#45;&gt;Node0x580409a90440 -->
<g id="edge48" class="edge">
<title>Node0x580409f01340&#45;&gt;Node0x580409a90440</title>
<path fill="none" stroke="#4a6fa5" d="M60.77,-380.32C80.96,-438.91 144.21,-618.96 165,-637 180.66,-650.6 201.7,-658.03 221.68,-662.02"/>
<polygon fill="#4a6fa5" stroke="#4a6fa5" points="221.56,-664.13 227.84,-663.15 222.32,-660 221.56,-664.13"/>
</g>
<!-- Node0x580409f14ec0 -->
<g id="node25" class="node">
<title>Node0x580409f14ec0</title>
<path fill="#f0f4ff" stroke="black" d="M325.5,-152C325.5,-152 242.5,-152 242.5,-152 236.5,-152 230.5,-146 230.5,-140 230.5,-140 230.5,-128 230.5,-128 230.5,-122 236.5,-116 242.5,-116 242.5,-116 325.5,-116 325.5,-116 331.5,-116 337.5,-122 337.5,-128 337.5,-128 337.5,-140 337.5,-140 337.5,-146 331.5,-152 325.5,-152"/>
<text text-anchor="middle" x="284" y="-131.8" font-family="Courier,monospace" font-size="9.00">PngInterlaceName()</text>
</g>
<!-- Node0x580409f01340&#45;&gt;Node0x580409f14ec0 -->
<g id="edge49" class="edge">
<title>Node0x580409f01340&#45;&gt;Node0x580409f14ec0</title>
<path fill="none" stroke="#4a6fa5" d="M59.81,-343.79C71.91,-305.5 105.21,-216.33 165,-169 181.93,-155.6 203.87,-147.33 224.24,-142.22"/>
<polygon fill="#4a6fa5" stroke="#4a6fa5" points="224.86,-144.23 230.21,-140.8 223.89,-140.14 224.86,-144.23"/>
</g>
<!-- Node0x580409f1c010 -->
<g id="node26" class="node">
<title>Node0x580409f1c010</title>
<path fill="#f0f4ff" stroke="black" d="M95,-574C95,-574 12,-574 12,-574 6,-574 0,-568 0,-562 0,-562 0,-550 0,-550 0,-544 6,-538 12,-538 12,-538 95,-538 95,-538 101,-538 107,-544 107,-550 107,-550 107,-562 107,-562 107,-568 101,-574 95,-574"/>
<text text-anchor="middle" x="53.5" y="-553.8" font-family="Courier,monospace" font-size="9.00">AnalyzeJpegImage()</text>
</g>
<!-- Node0x580409f1c010&#45;&gt;Node0x580409a8b4a0 -->
<g id="edge51" class="edge">
<title>Node0x580409f1c010&#45;&gt;Node0x580409a8b4a0</title>
<path fill="none" stroke="#4a6fa5" d="M107.14,-547.24C178.41,-538.01 307.67,-530.7 403,-579 440.85,-598.18 514.79,-699.9 547.4,-746.57"/>
<polygon fill="#4a6fa5" stroke="#4a6fa5" points="545.83,-747.99 550.98,-751.71 549.27,-745.59 545.83,-747.99"/>
</g>
<!-- Node0x580409f1c010&#45;&gt;Node0x580409efb0e0 -->
<g id="edge52" class="edge">
<title>Node0x580409f1c010&#45;&gt;Node0x580409efb0e0</title>
<path fill="none" stroke="#4a6fa5" d="M56.76,-574.03C63.59,-620.07 88.43,-742.36 165,-799 192.47,-819.32 411.25,-838.99 512.46,-847.11"/>
<polygon fill="#4a6fa5" stroke="#4a6fa5" points="512.51,-849.22 518.66,-847.6 512.85,-845.03 512.51,-849.22"/>
</g>
<!-- Node0x580409f1c010&#45;&gt;Node0x580409efbe20 -->
<g id="edge56" class="edge">
<title>Node0x580409f1c010&#45;&gt;Node0x580409efbe20</title>
<path fill="none" stroke="#4a6fa5" d="M60.32,-574.22C70.73,-607.22 92.73,-679.19 107,-741 123.45,-812.27 108.91,-1018.06 165,-1065 271.29,-1153.95 451.93,-1070.36 528.03,-1028.11"/>
<polygon fill="#4a6fa5" stroke="#4a6fa5" points="529.12,-1029.91 533.33,-1025.14 527.07,-1026.24 529.12,-1029.91"/>
</g>
<!-- Node0x580409f1c010&#45;&gt;Node0x580409a90730 -->
<g id="edge53" class="edge">
<title>Node0x580409f1c010&#45;&gt;Node0x580409a90730</title>
<path fill="none" stroke="#4a6fa5" d="M74.13,-537.85C95.11,-519.41 130.08,-491.3 165,-475 189.57,-463.53 219.21,-456.27 242.63,-451.88"/>
<polygon fill="#4a6fa5" stroke="#4a6fa5" points="243.23,-453.91 248.76,-450.77 242.48,-449.77 243.23,-453.91"/>
</g>
<!-- Node0x580409f1c010&#45;&gt;Node0x580409a912f0 -->
<g id="edge54" class="edge">
<title>Node0x580409f1c010&#45;&gt;Node0x580409a912f0</title>
<path fill="none" stroke="#4a6fa5" d="M63.68,-537.93C79.88,-507.94 116.47,-448.11 165,-417 179.55,-407.67 196.88,-401.34 213.71,-397.05"/>
<polygon fill="#4a6fa5" stroke="#4a6fa5" points="214.54,-399.01 219.88,-395.56 213.56,-394.93 214.54,-399.01"/>
</g>
<!-- Node0x580409f1c010&#45;&gt;Node0x580409a92480 -->
<g id="edge55" class="edge">
<title>Node0x580409f1c010&#45;&gt;Node0x580409a92480</title>
<path fill="none" stroke="#4a6fa5" d="M107.21,-568C142.97,-576.13 190.19,-586.88 226.69,-595.18"/>
<polygon fill="#4a6fa5" stroke="#4a6fa5" points="226.59,-597.32 232.91,-596.6 227.52,-593.22 226.59,-597.32"/>
</g>
<!-- Node0x580409f1c010&#45;&gt;Node0x580409f003a0 -->
<g id="edge57" class="edge">
<title>Node0x580409f1c010&#45;&gt;Node0x580409f003a0</title>
<path fill="none" stroke="#4a6fa5" d="M107.21,-544C145.74,-535.24 197.59,-523.44 234.98,-514.93"/>
<polygon fill="#4a6fa5" stroke="#4a6fa5" points="235.47,-516.97 240.85,-513.59 234.53,-512.88 235.47,-516.97"/>
</g>
<!-- Node0x580409f0b590 -->
<g id="node27" class="node">
<title>Node0x580409f0b590</title>
<path fill="#f0f4ff" stroke="black" d="M87,-846C87,-846 20,-846 20,-846 14,-846 8,-840 8,-834 8,-834 8,-822 8,-822 8,-816 14,-810 20,-810 20,-810 87,-810 87,-810 93,-810 99,-816 99,-822 99,-822 99,-834 99,-834 99,-840 93,-846 87,-846"/>
<text text-anchor="middle" x="53.5" y="-825.8" font-family="Courier,monospace" font-size="9.00">JpegErrorExit()</text>
</g>
<!-- Node0x580409f24550 -->
<g id="node28" class="node">
<title>Node0x580409f24550</title>
<path fill="#f0f4ff" stroke="black" d="M92.5,-904C92.5,-904 14.5,-904 14.5,-904 8.5,-904 2.5,-898 2.5,-892 2.5,-892 2.5,-880 2.5,-880 2.5,-874 8.5,-868 14.5,-868 14.5,-868 92.5,-868 92.5,-868 98.5,-868 104.5,-874 104.5,-880 104.5,-880 104.5,-892 104.5,-892 104.5,-898 98.5,-904 92.5,-904"/>
<text text-anchor="middle" x="53.5" y="-883.8" font-family="Courier,monospace" font-size="9.00">JpegEmitMessage()</text>
</g>
<!-- Node0x580409f27c30 -->
<g id="node29" class="node">
<title>Node0x580409f27c30</title>
<path fill="#f0f4ff" stroke="black" d="M95,-94C95,-94 12,-94 12,-94 6,-94 0,-88 0,-82 0,-82 0,-70 0,-70 0,-64 6,-58 12,-58 12,-58 95,-58 95,-58 101,-58 107,-64 107,-70 107,-70 107,-82 107,-82 107,-88 101,-94 95,-94"/>
<text text-anchor="middle" x="53.5" y="-73.8" font-family="Courier,monospace" font-size="9.00">AnalyzeImageFile()</text>
</g>
<!-- Node0x580409f27c30&#45;&gt;Node0x580409ee9470 -->
<g id="edge58" class="edge">
<title>Node0x580409f27c30&#45;&gt;Node0x580409ee9470</title>
<path fill="none" stroke="#4a6fa5" d="M107.21,-76C142.1,-76 187.89,-76 224,-76"/>
<polygon fill="#4a6fa5" stroke="#4a6fa5" points="224.16,-78.1 230.16,-76 224.16,-73.9 224.16,-78.1"/>
</g>
<!-- Node0x580409f27c30&#45;&gt;Node0x580409a853f0 -->
<g id="edge60" class="edge">
<title>Node0x580409f27c30&#45;&gt;Node0x580409a853f0</title>
<path fill="none" stroke="#4a6fa5" d="M107.01,-62.04C125.34,-57.21 146.07,-51.81 165,-47 189.77,-40.71 217.53,-33.87 239.9,-28.42"/>
<polygon fill="#4a6fa5" stroke="#4a6fa5" points="240.43,-30.45 245.76,-26.99 239.43,-26.37 240.43,-30.45"/>
</g>
<!-- Node0x580409f27c30&#45;&gt;Node0x580409a912f0 -->
<g id="edge59" class="edge">
<title>Node0x580409f27c30&#45;&gt;Node0x580409a912f0</title>
<path fill="none" stroke="#4a6fa5" d="M63.04,-94.03C80,-129.03 120.22,-207.93 165,-267 193.37,-304.42 232.38,-342.34 257.65,-365.52"/>
<polygon fill="#4a6fa5" stroke="#4a6fa5" points="256.35,-367.17 262.2,-369.67 259.18,-364.07 256.35,-367.17"/>
</g>
</g>
</svg>
