<?xml version="1.0" encoding="UTF-8" standalone="no"?>
<!DOCTYPE svg PUBLIC "-//W3C//DTD SVG 1.1//EN"
 "http://www.w3.org/Graphics/SVG/1.1/DTD/svg11.dtd">
<!-- Generated by graphviz version 2.43.0 (0)
 -->
<!-- Title: Call graph: /home/h02332/po/research/call&#45;graph/analyzer/IccImageAnalyzer.ll Pages: 1 -->
<svg width="1512pt" height="14400pt"
 viewBox="0.00 0.00 1511.83 14400.00" xmlns="http://www.w3.org/2000/svg" xmlns:xlink="http://www.w3.org/1999/xlink">
<g id="graph0" class="graph" transform="scale(1.05 1.05) rotate(0) translate(36 13737)">
<title>Call graph: /home/h02332/po/research/call&#45;graph/analyzer/IccImageAnalyzer.ll</title>
<polygon fill="white" stroke="transparent" points="-36,36 -36,-13737 1410,-13737 1410,36 -36,36"/>
<!-- Node0x5a17dd81e2f0 -->
<g id="node1" class="node">
<title>Node0x5a17dd81e2f0</title>
<path fill="#f0f4ff" stroke="black" d="M324,-2661C324,-2661 228,-2661 228,-2661 222,-2661 216,-2655 216,-2649 216,-2649 216,-2637 216,-2637 216,-2631 222,-2625 228,-2625 228,-2625 324,-2625 324,-2625 330,-2625 336,-2631 336,-2637 336,-2637 336,-2649 336,-2649 336,-2655 330,-2661 324,-2661"/>
<text text-anchor="middle" x="276" y="-2640.8" font-family="Courier,monospace" font-size="9.00">{DetectFileFormat()}</text>
</g>
<!-- Node0x5a17dd81fa30 -->
<g id="node2" class="node">
<title>Node0x5a17dd81fa30</title>
<path fill="#f0f4ff" stroke="black" d="M582,-2824C582,-2824 513,-2824 513,-2824 507,-2824 501,-2818 501,-2812 501,-2812 501,-2800 501,-2800 501,-2794 507,-2788 513,-2788 513,-2788 582,-2788 582,-2788 588,-2788 594,-2794 594,-2800 594,-2800 594,-2812 594,-2812 594,-2818 588,-2824 582,-2824"/>
<text text-anchor="middle" x="547.5" y="-2803.8" font-family="Courier,monospace" font-size="9.00">{OpenRawFile()}</text>
</g>
<!-- Node0x5a17dd81e2f0&#45;&gt;Node0x5a17dd81fa30 -->
<g id="edge1" class="edge">
<title>Node0x5a17dd81e2f0&#45;&gt;Node0x5a17dd81fa30</title>
<path fill="none" stroke="#4a6fa5" d="M291.91,-2661.25C316.16,-2689.7 367.01,-2744.45 422,-2774 444.09,-2785.87 470.78,-2793.49 493.77,-2798.3"/>
<polygon fill="#4a6fa5" stroke="#4a6fa5" points="493.43,-2800.73 500.78,-2799.7 494.39,-2795.92 493.43,-2800.73"/>
</g>
<!-- Node0x5a17dd8205c0 -->
<g id="node3" class="node">
<title>Node0x5a17dd8205c0</title>
<path fill="#f0f4ff" stroke="black" d="M564,-2694C564,-2694 531,-2694 531,-2694 525,-2694 519,-2688 519,-2682 519,-2682 519,-2670 519,-2670 519,-2664 525,-2658 531,-2658 531,-2658 564,-2658 564,-2658 570,-2658 576,-2664 576,-2670 576,-2670 576,-2682 576,-2682 576,-2688 570,-2694 564,-2694"/>
<text text-anchor="middle" x="547.5" y="-2673.8" font-family="Courier,monospace" font-size="9.00">{bool()}</text>
</g>
<!-- Node0x5a17dd81e2f0&#45;&gt;Node0x5a17dd8205c0 -->
<g id="edge2" class="edge">
<title>Node0x5a17dd81e2f0&#45;&gt;Node0x5a17dd8205c0</title>
<path fill="none" stroke="#4a6fa5" d="M336.14,-2650.24C389.86,-2656.82 467.28,-2666.3 511.68,-2671.74"/>
<polygon fill="#4a6fa5" stroke="#4a6fa5" points="511.53,-2674.19 518.77,-2672.6 512.12,-2669.32 511.53,-2674.19"/>
</g>
<!-- Node0x5a17dd825310 -->
<g id="node4" class="node">
<title>Node0x5a17dd825310</title>
<path fill="#f0f4ff" stroke="black" d="M935,-2569C935,-2569 771,-2569 771,-2569 765,-2569 759,-2563 759,-2557 759,-2557 759,-2545 759,-2545 759,-2539 765,-2533 771,-2533 771,-2533 935,-2533 935,-2533 941,-2533 947,-2539 947,-2545 947,-2545 947,-2557 947,-2557 947,-2563 941,-2569 935,-2569"/>
<text text-anchor="middle" x="853" y="-2548.8" font-family="Courier,monospace" font-size="9.00">{RawFileHandle::~RawFileHandle()}</text>
</g>
<!-- Node0x5a17dd81e2f0&#45;&gt;Node0x5a17dd825310 -->
<g id="edge3" class="edge">
<title>Node0x5a17dd81e2f0&#45;&gt;Node0x5a17dd825310</title>
<path fill="none" stroke="#4a6fa5" d="M308.95,-2624.97C337.59,-2609.79 381.24,-2588.99 422,-2579 532.54,-2551.91 663.55,-2547.13 751.67,-2547.71"/>
<polygon fill="#4a6fa5" stroke="#4a6fa5" points="751.71,-2550.16 758.73,-2547.77 751.75,-2545.26 751.71,-2550.16"/>
</g>
<!-- Node0x5a17dd67d820 -->
<g id="node5" class="node">
<title>Node0x5a17dd67d820</title>
<path fill="#f0f4ff" stroke="black" d="M595.5,-2629C595.5,-2629 499.5,-2629 499.5,-2629 493.5,-2629 487.5,-2623 487.5,-2617 487.5,-2617 487.5,-2605 487.5,-2605 487.5,-2599 493.5,-2593 499.5,-2593 499.5,-2593 595.5,-2593 595.5,-2593 601.5,-2593 607.5,-2599 607.5,-2605 607.5,-2605 607.5,-2617 607.5,-2617 607.5,-2623 601.5,-2629 595.5,-2629"/>
<text text-anchor="middle" x="547.5" y="-2608.8" font-family="Courier,monospace" font-size="9.00">{llvm.memset.p0.i64}</text>
</g>
<!-- Node0x5a17dd81e2f0&#45;&gt;Node0x5a17dd67d820 -->
<g id="edge4" class="edge">
<title>Node0x5a17dd81e2f0&#45;&gt;Node0x5a17dd67d820</title>
<path fill="none" stroke="#4a6fa5" d="M336.14,-2635.98C378.8,-2630.91 436.39,-2624.07 480.53,-2618.83"/>
<polygon fill="#4a6fa5" stroke="#4a6fa5" points="480.83,-2621.26 487.5,-2618.01 480.25,-2616.4 480.83,-2621.26"/>
</g>
<!-- Node0x5a17dd80b340 -->
<g id="node6" class="node">
<title>Node0x5a17dd80b340</title>
<path fill="#f0f4ff" stroke="black" d="M562.5,-2759C562.5,-2759 532.5,-2759 532.5,-2759 526.5,-2759 520.5,-2753 520.5,-2747 520.5,-2747 520.5,-2735 520.5,-2735 520.5,-2729 526.5,-2723 532.5,-2723 532.5,-2723 562.5,-2723 562.5,-2723 568.5,-2723 574.5,-2729 574.5,-2735 574.5,-2735 574.5,-2747 574.5,-2747 574.5,-2753 568.5,-2759 562.5,-2759"/>
<text text-anchor="middle" x="547.5" y="-2738.8" font-family="Courier,monospace" font-size="9.00">{fread}</text>
</g>
<!-- Node0x5a17dd81e2f0&#45;&gt;Node0x5a17dd80b340 -->
<g id="edge5" class="edge">
<title>Node0x5a17dd81e2f0&#45;&gt;Node0x5a17dd80b340</title>
<path fill="none" stroke="#4a6fa5" d="M312.04,-2661.05C340.97,-2675.44 383.4,-2695.37 422,-2709 452.39,-2719.73 488.12,-2728.54 513.48,-2734.18"/>
<polygon fill="#4a6fa5" stroke="#4a6fa5" points="512.99,-2736.58 520.35,-2735.68 514.04,-2731.79 512.99,-2736.58"/>
</g>
<!-- Node0x5a17dd81fa30&#45;&gt;Node0x5a17dd825310 -->
<g id="edge8" class="edge">
<title>Node0x5a17dd81fa30&#45;&gt;Node0x5a17dd825310</title>
<path fill="none" stroke="#4a6fa5" d="M594.03,-2803.8C619.74,-2800.41 651.02,-2792.42 673,-2774 743.72,-2714.71 691.29,-2647.71 759,-2585 764.2,-2580.18 770.14,-2576.03 776.45,-2572.46"/>
<polygon fill="#4a6fa5" stroke="#4a6fa5" points="777.81,-2574.51 782.86,-2569.08 775.53,-2570.18 777.81,-2574.51"/>
</g>
<!-- Node0x5a17dd7e9dc0 -->
<g id="node7" class="node">
<title>Node0x5a17dd7e9dc0</title>
<path fill="#f0f4ff" stroke="black" d="M932.5,-2824C932.5,-2824 773.5,-2824 773.5,-2824 767.5,-2824 761.5,-2818 761.5,-2812 761.5,-2812 761.5,-2800 761.5,-2800 761.5,-2794 767.5,-2788 773.5,-2788 773.5,-2788 932.5,-2788 932.5,-2788 938.5,-2788 944.5,-2794 944.5,-2800 944.5,-2800 944.5,-2812 944.5,-2812 944.5,-2818 938.5,-2824 932.5,-2824"/>
<text text-anchor="middle" x="853" y="-2803.8" font-family="Courier,monospace" font-size="9.00">{RawFileHandle::RawFileHandle()}</text>
</g>
<!-- Node0x5a17dd81fa30&#45;&gt;Node0x5a17dd7e9dc0 -->
<g id="edge6" class="edge">
<title>Node0x5a17dd81fa30&#45;&gt;Node0x5a17dd7e9dc0</title>
<path fill="none" stroke="#4a6fa5" d="M594.27,-2806C636.5,-2806 700.61,-2806 754.33,-2806"/>
<polygon fill="#4a6fa5" stroke="#4a6fa5" points="754.5,-2808.45 761.5,-2806 754.5,-2803.55 754.5,-2808.45"/>
</g>
<!-- Node0x5a17dd6af870 -->
<g id="node8" class="node">
<title>Node0x5a17dd6af870</title>
<path fill="#f0f4ff" stroke="black" d="M868,-2700C868,-2700 838,-2700 838,-2700 832,-2700 826,-2694 826,-2688 826,-2688 826,-2676 826,-2676 826,-2670 832,-2664 838,-2664 838,-2664 868,-2664 868,-2664 874,-2664 880,-2670 880,-2676 880,-2676 880,-2688 880,-2688 880,-2694 874,-2700 868,-2700"/>
<text text-anchor="middle" x="853" y="-2679.8" font-family="Courier,monospace" font-size="9.00">{fopen}</text>
</g>
<!-- Node0x5a17dd81fa30&#45;&gt;Node0x5a17dd6af870 -->
<g id="edge7" class="edge">
<title>Node0x5a17dd81fa30&#45;&gt;Node0x5a17dd6af870</title>
<path fill="none" stroke="#4a6fa5" d="M594.2,-2797.61C618.2,-2792.37 647.8,-2784.59 673,-2774 714.18,-2756.7 719.28,-2742.43 759,-2722 778.46,-2711.99 800.98,-2702.26 818.99,-2694.9"/>
<polygon fill="#4a6fa5" stroke="#4a6fa5" points="820.33,-2697 825.9,-2692.1 818.49,-2692.46 820.33,-2697"/>
</g>
<!-- Node0x5a17dd8288f0 -->
<g id="node9" class="node">
<title>Node0x5a17dd8288f0</title>
<path fill="#f0f4ff" stroke="black" d="M868,-2635C868,-2635 838,-2635 838,-2635 832,-2635 826,-2629 826,-2623 826,-2623 826,-2611 826,-2611 826,-2605 832,-2599 838,-2599 838,-2599 868,-2599 868,-2599 874,-2599 880,-2605 880,-2611 880,-2611 880,-2623 880,-2623 880,-2629 874,-2635 868,-2635"/>
<text text-anchor="middle" x="853" y="-2614.8" font-family="Courier,monospace" font-size="9.00">{fseek}</text>
</g>
<!-- Node0x5a17dd81fa30&#45;&gt;Node0x5a17dd8288f0 -->
<g id="edge9" class="edge">
<title>Node0x5a17dd81fa30&#45;&gt;Node0x5a17dd8288f0</title>
<path fill="none" stroke="#4a6fa5" d="M594.06,-2802.1C619.16,-2798.13 649.83,-2790.13 673,-2774 728.05,-2735.69 705.72,-2690.73 759,-2650 776.5,-2636.62 799.88,-2628.36 818.82,-2623.45"/>
<polygon fill="#4a6fa5" stroke="#4a6fa5" points="819.63,-2625.77 825.84,-2621.72 818.46,-2621.01 819.63,-2625.77"/>
</g>
<!-- Node0x5a17dd82cde0 -->
<g id="node10" class="node">
<title>Node0x5a17dd82cde0</title>
<path fill="#f0f4ff" stroke="black" d="M1120,-2601C1120,-2601 1087,-2601 1087,-2601 1081,-2601 1075,-2595 1075,-2589 1075,-2589 1075,-2577 1075,-2577 1075,-2571 1081,-2565 1087,-2565 1087,-2565 1120,-2565 1120,-2565 1126,-2565 1132,-2571 1132,-2577 1132,-2577 1132,-2589 1132,-2589 1132,-2595 1126,-2601 1120,-2601"/>
<text text-anchor="middle" x="1103.5" y="-2580.8" font-family="Courier,monospace" font-size="9.00">{fclose}</text>
</g>
<!-- Node0x5a17dd81fa30&#45;&gt;Node0x5a17dd82cde0 -->
<g id="edge10" class="edge">
<title>Node0x5a17dd81fa30&#45;&gt;Node0x5a17dd82cde0</title>
<path fill="none" stroke="#4a6fa5" d="M594.01,-2798.42C684.77,-2782.84 884.89,-2746.09 947,-2715 1002.15,-2687.39 1054.23,-2636.25 1081.89,-2606.38"/>
<polygon fill="#4a6fa5" stroke="#4a6fa5" points="1083.85,-2607.88 1086.77,-2601.06 1080.23,-2604.57 1083.85,-2607.88"/>
</g>
<!-- Node0x5a17dd680730 -->
<g id="node11" class="node">
<title>Node0x5a17dd680730</title>
<path fill="#f0f4ff" stroke="black" d="M868,-2954C868,-2954 838,-2954 838,-2954 832,-2954 826,-2948 826,-2942 826,-2942 826,-2930 826,-2930 826,-2924 832,-2918 838,-2918 838,-2918 868,-2918 868,-2918 874,-2918 880,-2924 880,-2930 880,-2930 880,-2942 880,-2942 880,-2948 874,-2954 868,-2954"/>
<text text-anchor="middle" x="853" y="-2933.8" font-family="Courier,monospace" font-size="9.00">{ftell}</text>
</g>
<!-- Node0x5a17dd81fa30&#45;&gt;Node0x5a17dd680730 -->
<g id="edge11" class="edge">
<title>Node0x5a17dd81fa30&#45;&gt;Node0x5a17dd680730</title>
<path fill="none" stroke="#4a6fa5" d="M584.5,-2824.16C626.01,-2844.78 696.57,-2878.81 759,-2904 778.57,-2911.9 800.92,-2919.63 818.81,-2925.51"/>
<polygon fill="#4a6fa5" stroke="#4a6fa5" points="818.26,-2927.91 825.67,-2927.75 819.78,-2923.25 818.26,-2927.91"/>
</g>
<!-- Node0x5a17dd82cb20 -->
<g id="node12" class="node">
<title>Node0x5a17dd82cb20</title>
<path fill="#f0f4ff" stroke="black" d="M869.5,-2889C869.5,-2889 836.5,-2889 836.5,-2889 830.5,-2889 824.5,-2883 824.5,-2877 824.5,-2877 824.5,-2865 824.5,-2865 824.5,-2859 830.5,-2853 836.5,-2853 836.5,-2853 869.5,-2853 869.5,-2853 875.5,-2853 881.5,-2859 881.5,-2865 881.5,-2865 881.5,-2877 881.5,-2877 881.5,-2883 875.5,-2889 869.5,-2889"/>
<text text-anchor="middle" x="853" y="-2868.8" font-family="Courier,monospace" font-size="9.00">{rewind}</text>
</g>
<!-- Node0x5a17dd81fa30&#45;&gt;Node0x5a17dd82cb20 -->
<g id="edge12" class="edge">
<title>Node0x5a17dd81fa30&#45;&gt;Node0x5a17dd82cb20</title>
<path fill="none" stroke="#4a6fa5" d="M594.27,-2815.8C655.44,-2828.9 762.51,-2851.83 817.4,-2863.59"/>
<polygon fill="#4a6fa5" stroke="#4a6fa5" points="817.11,-2866.03 824.47,-2865.1 818.14,-2861.24 817.11,-2866.03"/>
</g>
<!-- Node0x5a17dd825310&#45;&gt;Node0x5a17dd82cde0 -->
<g id="edge13" class="edge">
<title>Node0x5a17dd825310&#45;&gt;Node0x5a17dd82cde0</title>
<path fill="none" stroke="#4a6fa5" d="M947.24,-2563.01C989.31,-2568.42 1036.46,-2574.5 1067.64,-2578.51"/>
<polygon fill="#4a6fa5" stroke="#4a6fa5" points="1067.56,-2580.97 1074.82,-2579.44 1068.19,-2576.11 1067.56,-2580.97"/>
</g>
<!-- Node0x5a17dd680b40 -->
<g id="node14" class="node">
<title>Node0x5a17dd680b40</title>
<path fill="#f0f4ff" stroke="black" d="M1162,-2536C1162,-2536 1045,-2536 1045,-2536 1039,-2536 1033,-2530 1033,-2524 1033,-2524 1033,-2512 1033,-2512 1033,-2506 1039,-2500 1045,-2500 1045,-2500 1162,-2500 1162,-2500 1168,-2500 1174,-2506 1174,-2512 1174,-2512 1174,-2524 1174,-2524 1174,-2530 1168,-2536 1162,-2536"/>
<text text-anchor="middle" x="1103.5" y="-2515.8" font-family="Courier,monospace" font-size="9.00">{__clang_call_terminate}</text>
</g>
<!-- Node0x5a17dd825310&#45;&gt;Node0x5a17dd680b40 -->
<g id="edge14" class="edge">
<title>Node0x5a17dd825310&#45;&gt;Node0x5a17dd680b40</title>
<path fill="none" stroke="#4a6fa5" d="M947.24,-2538.62C973.06,-2535.19 1000.79,-2531.51 1025.57,-2528.22"/>
<polygon fill="#4a6fa5" stroke="#4a6fa5" points="1026.2,-2530.6 1032.82,-2527.25 1025.56,-2525.75 1026.2,-2530.6"/>
</g>
<!-- Node0x5a17dd82bd90 -->
<g id="node13" class="node">
<title>Node0x5a17dd82bd90</title>
<path fill="#f0f4ff" stroke="black" d="M118,-8390C118,-8390 12,-8390 12,-8390 6,-8390 0,-8384 0,-8378 0,-8378 0,-8366 0,-8366 0,-8360 6,-8354 12,-8354 12,-8354 118,-8354 118,-8354 124,-8354 130,-8360 130,-8366 130,-8366 130,-8378 130,-8378 130,-8384 124,-8390 118,-8390"/>
<text text-anchor="middle" x="65" y="-8369.8" font-family="Courier,monospace" font-size="9.00">{__gxx_personality_v0}</text>
</g>
<!-- Node0x5a17dd68a6a0 -->
<g id="node64" class="node">
<title>Node0x5a17dd68a6a0</title>
<path fill="#f0f4ff" stroke="black" d="M1362,-2568C1362,-2568 1272,-2568 1272,-2568 1266,-2568 1260,-2562 1260,-2556 1260,-2556 1260,-2544 1260,-2544 1260,-2538 1266,-2532 1272,-2532 1272,-2532 1362,-2532 1362,-2532 1368,-2532 1374,-2538 1374,-2544 1374,-2544 1374,-2556 1374,-2556 1374,-2562 1368,-2568 1362,-2568"/>
<text text-anchor="middle" x="1317" y="-2547.8" font-family="Courier,monospace" font-size="9.00">{__cxa_begin_catch}</text>
</g>
<!-- Node0x5a17dd680b40&#45;&gt;Node0x5a17dd68a6a0 -->
<g id="edge86" class="edge">
<title>Node0x5a17dd680b40&#45;&gt;Node0x5a17dd68a6a0</title>
<path fill="none" stroke="#4a6fa5" d="M1174.05,-2528.52C1199.36,-2532.35 1227.82,-2536.66 1252.58,-2540.4"/>
<polygon fill="#4a6fa5" stroke="#4a6fa5" points="1252.5,-2542.87 1259.79,-2541.5 1253.24,-2538.03 1252.5,-2542.87"/>
</g>
<!-- Node0x5a17dd68a3d0 -->
<g id="node65" class="node">
<title>Node0x5a17dd68a3d0</title>
<path fill="#f0f4ff" stroke="black" d="M1359.5,-2503C1359.5,-2503 1274.5,-2503 1274.5,-2503 1268.5,-2503 1262.5,-2497 1262.5,-2491 1262.5,-2491 1262.5,-2479 1262.5,-2479 1262.5,-2473 1268.5,-2467 1274.5,-2467 1274.5,-2467 1359.5,-2467 1359.5,-2467 1365.5,-2467 1371.5,-2473 1371.5,-2479 1371.5,-2479 1371.5,-2491 1371.5,-2491 1371.5,-2497 1365.5,-2503 1359.5,-2503"/>
<text text-anchor="middle" x="1317" y="-2482.8" font-family="Courier,monospace" font-size="9.00">{std::terminate()}</text>
</g>
<!-- Node0x5a17dd680b40&#45;&gt;Node0x5a17dd68a3d0 -->
<g id="edge87" class="edge">
<title>Node0x5a17dd680b40&#45;&gt;Node0x5a17dd68a3d0</title>
<path fill="none" stroke="#4a6fa5" d="M1174.05,-2507.15C1200.24,-2503.06 1229.8,-2498.45 1255.14,-2494.5"/>
<polygon fill="#4a6fa5" stroke="#4a6fa5" points="1255.63,-2496.9 1262.17,-2493.4 1254.88,-2492.06 1255.63,-2496.9"/>
</g>
<!-- Node0x5a17dd6806b0 -->
<g id="node15" class="node">
<title>Node0x5a17dd6806b0</title>
<path fill="#f0f4ff" stroke="black" d="M97,-11378C97,-11378 33,-11378 33,-11378 27,-11378 21,-11372 21,-11366 21,-11366 21,-11354 21,-11354 21,-11348 27,-11342 33,-11342 33,-11342 97,-11342 97,-11342 103,-11342 109,-11348 109,-11354 109,-11354 109,-11366 109,-11366 109,-11372 103,-11378 97,-11378"/>
<text text-anchor="middle" x="65" y="-11357.8" font-family="Courier,monospace" font-size="9.00">{FormatName()}</text>
</g>
<!-- Node0x5a17dd82d1a0 -->
<g id="node16" class="node">
<title>Node0x5a17dd82d1a0</title>
<path fill="#f0f4ff" stroke="black" d="M645,-1111C645,-1111 450,-1111 450,-1111 444,-1111 438,-1105 438,-1099 438,-1099 438,-1087 438,-1087 438,-1081 444,-1075 450,-1075 450,-1075 645,-1075 645,-1075 651,-1075 657,-1081 657,-1087 657,-1087 657,-1099 657,-1099 657,-1105 651,-1111 645,-1111"/>
<text text-anchor="middle" x="547.5" y="-1090.8" font-family="Courier,monospace" font-size="9.00">{RunHeuristic_H139_TiffStripGeometry()}</text>
</g>
<!-- Node0x5a17dd680980 -->
<g id="node17" class="node">
<title>Node0x5a17dd680980</title>
<path fill="#f0f4ff" stroke="black" d="M869.5,-1135C869.5,-1135 836.5,-1135 836.5,-1135 830.5,-1135 824.5,-1129 824.5,-1123 824.5,-1123 824.5,-1111 824.5,-1111 824.5,-1105 830.5,-1099 836.5,-1099 836.5,-1099 869.5,-1099 869.5,-1099 875.5,-1099 881.5,-1105 881.5,-1111 881.5,-1111 881.5,-1123 881.5,-1123 881.5,-1129 875.5,-1135 869.5,-1135"/>
<text text-anchor="middle" x="853" y="-1114.8" font-family="Courier,monospace" font-size="9.00">{printf}</text>
</g>
<!-- Node0x5a17dd82d1a0&#45;&gt;Node0x5a17dd680980 -->
<g id="edge15" class="edge">
<title>Node0x5a17dd82d1a0&#45;&gt;Node0x5a17dd680980</title>
<path fill="none" stroke="#4a6fa5" d="M657.21,-1101.6C713.34,-1106.04 778.04,-1111.15 816.94,-1114.23"/>
<polygon fill="#4a6fa5" stroke="#4a6fa5" points="817.19,-1116.71 824.36,-1114.81 817.58,-1111.82 817.19,-1116.71"/>
</g>
<!-- Node0x5a17dd681020 -->
<g id="node18" class="node">
<title>Node0x5a17dd681020</title>
<path fill="#f0f4ff" stroke="black" d="M885,-1070C885,-1070 821,-1070 821,-1070 815,-1070 809,-1064 809,-1058 809,-1058 809,-1046 809,-1046 809,-1040 815,-1034 821,-1034 821,-1034 885,-1034 885,-1034 891,-1034 897,-1040 897,-1046 897,-1046 897,-1058 897,-1058 897,-1064 891,-1070 885,-1070"/>
<text text-anchor="middle" x="853" y="-1049.8" font-family="Courier,monospace" font-size="9.00">{ColorReset()}</text>
</g>
<!-- Node0x5a17dd82d1a0&#45;&gt;Node0x5a17dd681020 -->
<g id="edge16" class="edge">
<title>Node0x5a17dd82d1a0&#45;&gt;Node0x5a17dd681020</title>
<path fill="none" stroke="#4a6fa5" d="M657.21,-1078.31C706.53,-1071.65 762.46,-1064.1 801.7,-1058.8"/>
<polygon fill="#4a6fa5" stroke="#4a6fa5" points="802.21,-1061.2 808.82,-1057.83 801.56,-1056.34 802.21,-1061.2"/>
</g>
<!-- Node0x5a17dd6814d0 -->
<g id="node19" class="node">
<title>Node0x5a17dd6814d0</title>
<path fill="#f0f4ff" stroke="black" d="M885,-940C885,-940 821,-940 821,-940 815,-940 809,-934 809,-928 809,-928 809,-916 809,-916 809,-910 815,-904 821,-904 821,-904 885,-904 885,-904 891,-904 897,-910 897,-916 897,-916 897,-928 897,-928 897,-934 891,-940 885,-940"/>
<text text-anchor="middle" x="853" y="-919.8" font-family="Courier,monospace" font-size="9.00">{TIFFGetField}</text>
</g>
<!-- Node0x5a17dd82d1a0&#45;&gt;Node0x5a17dd6814d0 -->
<g id="edge17" class="edge">
<title>Node0x5a17dd82d1a0&#45;&gt;Node0x5a17dd6814d0</title>
<path fill="none" stroke="#4a6fa5" d="M571.99,-1074.87C609.74,-1046.4 686.98,-990.74 759,-955 772.58,-948.26 787.89,-942.23 802.11,-937.24"/>
<polygon fill="#4a6fa5" stroke="#4a6fa5" points="803.17,-939.46 808.99,-934.87 801.57,-934.83 803.17,-939.46"/>
</g>
<!-- Node0x5a17dd82d6e0 -->
<g id="node20" class="node">
<title>Node0x5a17dd82d6e0</title>
<path fill="#f0f4ff" stroke="black" d="M893,-1005C893,-1005 813,-1005 813,-1005 807,-1005 801,-999 801,-993 801,-993 801,-981 801,-981 801,-975 807,-969 813,-969 813,-969 893,-969 893,-969 899,-969 905,-975 905,-981 905,-981 905,-993 905,-993 905,-999 899,-1005 893,-1005"/>
<text text-anchor="middle" x="853" y="-984.8" font-family="Courier,monospace" font-size="9.00">{ColorCritical()}</text>
</g>
<!-- Node0x5a17dd82d1a0&#45;&gt;Node0x5a17dd82d6e0 -->
<g id="edge18" class="edge">
<title>Node0x5a17dd82d1a0&#45;&gt;Node0x5a17dd82d6e0</title>
<path fill="none" stroke="#4a6fa5" d="M600.33,-1074.9C654.18,-1056.09 738.25,-1026.73 794.21,-1007.18"/>
<polygon fill="#4a6fa5" stroke="#4a6fa5" points="795.09,-1009.47 800.89,-1004.85 793.47,-1004.85 795.09,-1009.47"/>
</g>
<!-- Node0x5a17dd680d70 -->
<g id="node21" class="node">
<title>Node0x5a17dd680d70</title>
<path fill="#f0f4ff" stroke="black" d="M887.5,-1281C887.5,-1281 818.5,-1281 818.5,-1281 812.5,-1281 806.5,-1275 806.5,-1269 806.5,-1269 806.5,-1257 806.5,-1257 806.5,-1251 812.5,-1245 818.5,-1245 818.5,-1245 887.5,-1245 887.5,-1245 893.5,-1245 899.5,-1251 899.5,-1257 899.5,-1257 899.5,-1269 899.5,-1269 899.5,-1275 893.5,-1281 887.5,-1281"/>
<text text-anchor="middle" x="853" y="-1260.8" font-family="Courier,monospace" font-size="9.00">{TIFFStripSize}</text>
</g>
<!-- Node0x5a17dd82d1a0&#45;&gt;Node0x5a17dd680d70 -->
<g id="edge19" class="edge">
<title>Node0x5a17dd82d1a0&#45;&gt;Node0x5a17dd680d70</title>
<path fill="none" stroke="#4a6fa5" d="M639.92,-1111.02C651.45,-1115.07 662.78,-1120 673,-1126 720.44,-1153.85 714.86,-1182.17 759,-1215 772.65,-1225.15 788.75,-1234.3 803.69,-1241.82"/>
<polygon fill="#4a6fa5" stroke="#4a6fa5" points="802.65,-1244.04 810.01,-1244.94 804.82,-1239.64 802.65,-1244.04"/>
</g>
<!-- Node0x5a17dd71b970 -->
<g id="node22" class="node">
<title>Node0x5a17dd71b970</title>
<path fill="#f0f4ff" stroke="black" d="M1130.5,-1070C1130.5,-1070 1076.5,-1070 1076.5,-1070 1070.5,-1070 1064.5,-1064 1064.5,-1058 1064.5,-1058 1064.5,-1046 1064.5,-1046 1064.5,-1040 1070.5,-1034 1076.5,-1034 1076.5,-1034 1130.5,-1034 1130.5,-1034 1136.5,-1034 1142.5,-1040 1142.5,-1046 1142.5,-1046 1142.5,-1058 1142.5,-1058 1142.5,-1064 1136.5,-1070 1130.5,-1070"/>
<text text-anchor="middle" x="1103.5" y="-1049.8" font-family="Courier,monospace" font-size="9.00">{GetColor()}</text>
</g>
<!-- Node0x5a17dd681020&#45;&gt;Node0x5a17dd71b970 -->
<g id="edge21" class="edge">
<title>Node0x5a17dd681020&#45;&gt;Node0x5a17dd71b970</title>
<path fill="none" stroke="#4a6fa5" d="M897,-1052C941.83,-1052 1011.8,-1052 1057.4,-1052"/>
<polygon fill="#4a6fa5" stroke="#4a6fa5" points="1057.5,-1054.45 1064.5,-1052 1057.5,-1049.55 1057.5,-1054.45"/>
</g>
<!-- Node0x5a17dd82d6e0&#45;&gt;Node0x5a17dd71b970 -->
<g id="edge20" class="edge">
<title>Node0x5a17dd82d6e0&#45;&gt;Node0x5a17dd71b970</title>
<path fill="none" stroke="#4a6fa5" d="M905.19,-1000.39C950.01,-1012.11 1014.49,-1028.98 1057.4,-1040.2"/>
<polygon fill="#4a6fa5" stroke="#4a6fa5" points="1056.97,-1042.62 1064.36,-1042.02 1058.21,-1037.88 1056.97,-1042.62"/>
</g>
<!-- Node0x5a17dd681930 -->
<g id="node23" class="node">
<title>Node0x5a17dd681930</title>
<path fill="#f0f4ff" stroke="black" d="M661,-987C661,-987 434,-987 434,-987 428,-987 422,-981 422,-975 422,-975 422,-963 422,-963 422,-957 428,-951 434,-951 434,-951 661,-951 661,-951 667,-951 673,-957 673,-963 673,-963 673,-975 673,-975 673,-981 667,-987 661,-987"/>
<text text-anchor="middle" x="547.5" y="-966.8" font-family="Courier,monospace" font-size="9.00">{RunHeuristic_H140_TiffDimensionValidation()}</text>
</g>
<!-- Node0x5a17dd681930&#45;&gt;Node0x5a17dd680980 -->
<g id="edge22" class="edge">
<title>Node0x5a17dd681930&#45;&gt;Node0x5a17dd680980</title>
<path fill="none" stroke="#4a6fa5" d="M577.65,-987.18C617.55,-1011.56 691.87,-1055.22 759,-1085 777.88,-1093.37 799.68,-1100.98 817.42,-1106.67"/>
<polygon fill="#4a6fa5" stroke="#4a6fa5" points="816.84,-1109.06 824.26,-1108.83 818.32,-1104.39 816.84,-1109.06"/>
</g>
<!-- Node0x5a17dd681930&#45;&gt;Node0x5a17dd681020 -->
<g id="edge24" class="edge">
<title>Node0x5a17dd681930&#45;&gt;Node0x5a17dd681020</title>
<path fill="none" stroke="#4a6fa5" d="M614.35,-987.01C670.63,-1002.4 750.42,-1024.22 801.69,-1038.24"/>
<polygon fill="#4a6fa5" stroke="#4a6fa5" points="801.33,-1040.68 808.73,-1040.17 802.63,-1035.96 801.33,-1040.68"/>
</g>
<!-- Node0x5a17dd681930&#45;&gt;Node0x5a17dd82d6e0 -->
<g id="edge23" class="edge">
<title>Node0x5a17dd681930&#45;&gt;Node0x5a17dd82d6e0</title>
<path fill="none" stroke="#4a6fa5" d="M673.26,-976.4C714.93,-978.87 759.4,-981.51 793.57,-983.53"/>
<polygon fill="#4a6fa5" stroke="#4a6fa5" points="793.56,-985.99 800.7,-983.96 793.85,-981.1 793.56,-985.99"/>
</g>
<!-- Node0x5a17dd82df00 -->
<g id="node24" class="node">
<title>Node0x5a17dd82df00</title>
<path fill="#f0f4ff" stroke="black" d="M890.5,-875C890.5,-875 815.5,-875 815.5,-875 809.5,-875 803.5,-869 803.5,-863 803.5,-863 803.5,-851 803.5,-851 803.5,-845 809.5,-839 815.5,-839 815.5,-839 890.5,-839 890.5,-839 896.5,-839 902.5,-845 902.5,-851 902.5,-851 902.5,-863 902.5,-863 902.5,-869 896.5,-875 890.5,-875"/>
<text text-anchor="middle" x="853" y="-854.8" font-family="Courier,monospace" font-size="9.00">{ColorWarning()}</text>
</g>
<!-- Node0x5a17dd681930&#45;&gt;Node0x5a17dd82df00 -->
<g id="edge25" class="edge">
<title>Node0x5a17dd681930&#45;&gt;Node0x5a17dd82df00</title>
<path fill="none" stroke="#4a6fa5" d="M596.06,-950.87C638.67,-934.7 702.9,-910.48 759,-890 771.09,-885.59 784.08,-880.93 796.42,-876.54"/>
<polygon fill="#4a6fa5" stroke="#4a6fa5" points="797.41,-878.78 803.19,-874.13 795.78,-874.17 797.41,-878.78"/>
</g>
<!-- Node0x5a17dd82df00&#45;&gt;Node0x5a17dd71b970 -->
<g id="edge26" class="edge">
<title>Node0x5a17dd82df00&#45;&gt;Node0x5a17dd71b970</title>
<path fill="none" stroke="#4a6fa5" d="M902.82,-869.59C917.68,-874.64 933.62,-881.36 947,-890 1006.13,-928.19 1059.2,-993.09 1085.35,-1028.03"/>
<polygon fill="#4a6fa5" stroke="#4a6fa5" points="1083.48,-1029.62 1089.61,-1033.78 1087.41,-1026.7 1083.48,-1029.62"/>
</g>
<!-- Node0x5a17dd681720 -->
<g id="node25" class="node">
<title>Node0x5a17dd681720</title>
<path fill="#f0f4ff" stroke="black" d="M650.5,-745C650.5,-745 444.5,-745 444.5,-745 438.5,-745 432.5,-739 432.5,-733 432.5,-733 432.5,-721 432.5,-721 432.5,-715 438.5,-709 444.5,-709 444.5,-709 650.5,-709 650.5,-709 656.5,-709 662.5,-715 662.5,-721 662.5,-721 662.5,-733 662.5,-733 662.5,-739 656.5,-745 650.5,-745"/>
<text text-anchor="middle" x="547.5" y="-724.8" font-family="Courier,monospace" font-size="9.00">{RunHeuristic_H141_TiffIfdOffsetBounds()}</text>
</g>
<!-- Node0x5a17dd681720&#45;&gt;Node0x5a17dd680980 -->
<g id="edge27" class="edge">
<title>Node0x5a17dd681720&#45;&gt;Node0x5a17dd680980</title>
<path fill="none" stroke="#4a6fa5" d="M559.38,-745.23C581.08,-781.62 631.27,-865.91 673,-937 711.51,-1002.61 700.22,-1036.7 759,-1085 775.54,-1098.59 798.18,-1106.54 816.98,-1111.12"/>
<polygon fill="#4a6fa5" stroke="#4a6fa5" points="816.87,-1113.61 824.24,-1112.77 817.96,-1108.83 816.87,-1113.61"/>
</g>
<!-- Node0x5a17dd681720&#45;&gt;Node0x5a17dd681020 -->
<g id="edge32" class="edge">
<title>Node0x5a17dd681720&#45;&gt;Node0x5a17dd681020</title>
<path fill="none" stroke="#4a6fa5" d="M556.56,-745.1C580.13,-796.02 653.97,-941.86 759,-1020 771.59,-1029.37 787.13,-1036.13 801.88,-1040.96"/>
<polygon fill="#4a6fa5" stroke="#4a6fa5" points="801.17,-1043.31 808.59,-1043.04 802.63,-1038.63 801.17,-1043.31"/>
</g>
<!-- Node0x5a17dd681720&#45;&gt;Node0x5a17dd6814d0 -->
<g id="edge31" class="edge">
<title>Node0x5a17dd681720&#45;&gt;Node0x5a17dd6814d0</title>
<path fill="none" stroke="#4a6fa5" d="M571.67,-745.27C624.23,-786.66 748.76,-884.47 759,-890 772.3,-897.18 787.52,-903.22 801.74,-908.05"/>
<polygon fill="#4a6fa5" stroke="#4a6fa5" points="801.22,-910.46 808.63,-910.33 802.75,-905.81 801.22,-910.46"/>
</g>
<!-- Node0x5a17dd681720&#45;&gt;Node0x5a17dd82d6e0 -->
<g id="edge34" class="edge">
<title>Node0x5a17dd681720&#45;&gt;Node0x5a17dd82d6e0</title>
<path fill="none" stroke="#4a6fa5" d="M560.48,-745.21C589.49,-787.95 667.87,-895.51 759,-955 769.62,-961.93 781.9,-967.53 793.99,-971.99"/>
<polygon fill="#4a6fa5" stroke="#4a6fa5" points="793.25,-974.33 800.67,-974.36 794.89,-969.71 793.25,-974.33"/>
</g>
<!-- Node0x5a17dd681720&#45;&gt;Node0x5a17dd82df00 -->
<g id="edge35" class="edge">
<title>Node0x5a17dd681720&#45;&gt;Node0x5a17dd82df00</title>
<path fill="none" stroke="#4a6fa5" d="M616.73,-745.1C635.39,-751.07 655.34,-758.42 673,-767 714.47,-787.14 717.74,-804.43 759,-825 770.73,-830.85 783.79,-836.07 796.33,-840.51"/>
<polygon fill="#4a6fa5" stroke="#4a6fa5" points="795.81,-842.92 803.23,-842.89 797.42,-838.29 795.81,-842.92"/>
</g>
<!-- Node0x5a17dd6818b0 -->
<g id="node26" class="node">
<title>Node0x5a17dd6818b0</title>
<path fill="#f0f4ff" stroke="black" d="M895.5,-615C895.5,-615 810.5,-615 810.5,-615 804.5,-615 798.5,-609 798.5,-603 798.5,-603 798.5,-591 798.5,-591 798.5,-585 804.5,-579 810.5,-579 810.5,-579 895.5,-579 895.5,-579 901.5,-579 907.5,-585 907.5,-591 907.5,-591 907.5,-603 907.5,-603 907.5,-609 901.5,-615 895.5,-615"/>
<text text-anchor="middle" x="853" y="-594.8" font-family="Courier,monospace" font-size="9.00">{TIFFSetDirectory}</text>
</g>
<!-- Node0x5a17dd681720&#45;&gt;Node0x5a17dd6818b0 -->
<g id="edge28" class="edge">
<title>Node0x5a17dd681720&#45;&gt;Node0x5a17dd6818b0</title>
<path fill="none" stroke="#4a6fa5" d="M616.36,-708.91C635.12,-702.92 655.2,-695.56 673,-687 714.33,-667.13 717.98,-650.49 759,-630 769.28,-624.87 780.56,-620.16 791.61,-616"/>
<polygon fill="#4a6fa5" stroke="#4a6fa5" points="792.72,-618.2 798.44,-613.49 791.03,-613.6 792.72,-618.2"/>
</g>
<!-- Node0x5a17dd82dc90 -->
<g id="node27" class="node">
<title>Node0x5a17dd82dc90</title>
<path fill="#f0f4ff" stroke="black" d="M868,-810C868,-810 838,-810 838,-810 832,-810 826,-804 826,-798 826,-798 826,-786 826,-786 826,-780 832,-774 838,-774 838,-774 868,-774 868,-774 874,-774 880,-780 880,-786 880,-786 880,-798 880,-798 880,-804 874,-810 868,-810"/>
<text text-anchor="middle" x="853" y="-789.8" font-family="Courier,monospace" font-size="9.00">{stat}</text>
</g>
<!-- Node0x5a17dd681720&#45;&gt;Node0x5a17dd82dc90 -->
<g id="edge29" class="edge">
<title>Node0x5a17dd681720&#45;&gt;Node0x5a17dd82dc90</title>
<path fill="none" stroke="#4a6fa5" d="M632.64,-745.02C694.12,-758.19 774.22,-775.34 818.64,-784.86"/>
<polygon fill="#4a6fa5" stroke="#4a6fa5" points="818.36,-787.3 825.72,-786.37 819.39,-782.51 818.36,-787.3"/>
</g>
<!-- Node0x5a17dd682600 -->
<g id="node28" class="node">
<title>Node0x5a17dd682600</title>
<path fill="#f0f4ff" stroke="black" d="M898,-745C898,-745 808,-745 808,-745 802,-745 796,-739 796,-733 796,-733 796,-721 796,-721 796,-715 802,-709 808,-709 808,-709 898,-709 898,-709 904,-709 910,-715 910,-721 910,-721 910,-733 910,-733 910,-739 904,-745 898,-745"/>
<text text-anchor="middle" x="853" y="-724.8" font-family="Courier,monospace" font-size="9.00">{TIFFReadDirectory}</text>
</g>
<!-- Node0x5a17dd681720&#45;&gt;Node0x5a17dd682600 -->
<g id="edge30" class="edge">
<title>Node0x5a17dd681720&#45;&gt;Node0x5a17dd682600</title>
<path fill="none" stroke="#4a6fa5" d="M662.81,-727C705.5,-727 752.41,-727 788.83,-727"/>
<polygon fill="#4a6fa5" stroke="#4a6fa5" points="788.98,-729.45 795.98,-727 788.98,-724.55 788.98,-729.45"/>
</g>
<!-- Node0x5a17dd6822f0 -->
<g id="node29" class="node">
<title>Node0x5a17dd6822f0</title>
<path fill="#f0f4ff" stroke="black" d="M901,-550C901,-550 805,-550 805,-550 799,-550 793,-544 793,-538 793,-538 793,-526 793,-526 793,-520 799,-514 805,-514 805,-514 901,-514 901,-514 907,-514 913,-520 913,-526 913,-526 913,-538 913,-538 913,-544 907,-550 901,-550"/>
<text text-anchor="middle" x="853" y="-529.8" font-family="Courier,monospace" font-size="9.00">{TIFFNumberOfStrips}</text>
</g>
<!-- Node0x5a17dd681720&#45;&gt;Node0x5a17dd6822f0 -->
<g id="edge33" class="edge">
<title>Node0x5a17dd681720&#45;&gt;Node0x5a17dd6822f0</title>
<path fill="none" stroke="#4a6fa5" d="M630.89,-708.92C645.76,-703.39 660.49,-696.23 673,-687 726.67,-647.39 705.74,-604.16 759,-564 767.09,-557.9 776.42,-552.91 785.98,-548.85"/>
<polygon fill="#4a6fa5" stroke="#4a6fa5" points="787.05,-551.06 792.63,-546.17 785.22,-546.51 787.05,-551.06"/>
</g>
<!-- Node0x5a17dd71c1b0 -->
<g id="node30" class="node">
<title>Node0x5a17dd71c1b0</title>
<path fill="#f0f4ff" stroke="black" d="M898,-680C898,-680 808,-680 808,-680 802,-680 796,-674 796,-668 796,-668 796,-656 796,-656 796,-650 802,-644 808,-644 808,-644 898,-644 898,-644 904,-644 910,-650 910,-656 910,-656 910,-668 910,-668 910,-674 904,-680 898,-680"/>
<text text-anchor="middle" x="853" y="-659.8" font-family="Courier,monospace" font-size="9.00">{TIFFNumberOfTiles}</text>
</g>
<!-- Node0x5a17dd681720&#45;&gt;Node0x5a17dd71c1b0 -->
<g id="edge36" class="edge">
<title>Node0x5a17dd681720&#45;&gt;Node0x5a17dd71c1b0</title>
<path fill="none" stroke="#4a6fa5" d="M632.64,-708.98C681.93,-698.42 743.18,-685.31 788.42,-675.62"/>
<polygon fill="#4a6fa5" stroke="#4a6fa5" points="789.21,-677.95 795.54,-674.09 788.18,-673.16 789.21,-677.95"/>
</g>
<!-- Node0x5a17dd830300 -->
<g id="node31" class="node">
<title>Node0x5a17dd830300</title>
<path fill="#f0f4ff" stroke="black" d="M324,-1268C324,-1268 228,-1268 228,-1268 222,-1268 216,-1262 216,-1256 216,-1256 216,-1244 216,-1244 216,-1238 222,-1232 228,-1232 228,-1232 324,-1232 324,-1232 330,-1232 336,-1238 336,-1244 336,-1244 336,-1256 336,-1256 336,-1262 330,-1268 324,-1268"/>
<text text-anchor="middle" x="276" y="-1247.8" font-family="Courier,monospace" font-size="9.00">{AnalyzeTiffImage()}</text>
</g>
<!-- Node0x5a17dd830300&#45;&gt;Node0x5a17dd82cde0 -->
<g id="edge49" class="edge">
<title>Node0x5a17dd830300&#45;&gt;Node0x5a17dd82cde0</title>
<path fill="none" stroke="#4a6fa5" d="M278.2,-1268.24C285.14,-1367.89 323.23,-1845.65 422,-1947 501.98,-2029.07 579,-1940.45 673,-2006 911.11,-2172.05 812.71,-2361.94 1033,-2551 1043.21,-2559.76 1056.21,-2566.6 1068.2,-2571.66"/>
<polygon fill="#4a6fa5" stroke="#4a6fa5" points="1067.33,-2573.95 1074.74,-2574.29 1069.16,-2569.4 1067.33,-2573.95"/>
</g>
<!-- Node0x5a17dd830300&#45;&gt;Node0x5a17dd82d1a0 -->
<g id="edge70" class="edge">
<title>Node0x5a17dd830300&#45;&gt;Node0x5a17dd82d1a0</title>
<path fill="none" stroke="#4a6fa5" d="M292.96,-1231.93C317.85,-1204.87 368.62,-1154.01 422,-1126 431.26,-1121.14 441.29,-1116.96 451.5,-1113.36"/>
<polygon fill="#4a6fa5" stroke="#4a6fa5" points="452.38,-1115.65 458.23,-1111.08 450.81,-1111.01 452.38,-1115.65"/>
</g>
<!-- Node0x5a17dd830300&#45;&gt;Node0x5a17dd680980 -->
<g id="edge37" class="edge">
<title>Node0x5a17dd830300&#45;&gt;Node0x5a17dd680980</title>
<path fill="none" stroke="#4a6fa5" d="M336.24,-1246.66C414.74,-1241.01 556.83,-1226.48 673,-1191 713.5,-1178.63 719.88,-1166.21 759,-1150 778.14,-1142.07 799.95,-1134.26 817.64,-1128.24"/>
<polygon fill="#4a6fa5" stroke="#4a6fa5" points="818.6,-1130.5 824.45,-1125.94 817.04,-1125.86 818.6,-1130.5"/>
</g>
<!-- Node0x5a17dd830300&#45;&gt;Node0x5a17dd681020 -->
<g id="edge41" class="edge">
<title>Node0x5a17dd830300&#45;&gt;Node0x5a17dd681020</title>
<path fill="none" stroke="#4a6fa5" d="M284.31,-1231.89C301.45,-1192.23 348.39,-1098.27 422,-1061 546.41,-998.01 718.14,-1022.13 801.94,-1039.79"/>
<polygon fill="#4a6fa5" stroke="#4a6fa5" points="801.44,-1042.19 808.8,-1041.26 802.47,-1037.4 801.44,-1042.19"/>
</g>
<!-- Node0x5a17dd830300&#45;&gt;Node0x5a17dd6814d0 -->
<g id="edge51" class="edge">
<title>Node0x5a17dd830300&#45;&gt;Node0x5a17dd6814d0</title>
<path fill="none" stroke="#4a6fa5" d="M277.9,-1231.94C281.98,-1171.82 304.17,-977.81 422,-899 482.84,-858.31 702.16,-893.32 801.94,-912.03"/>
<polygon fill="#4a6fa5" stroke="#4a6fa5" points="801.58,-914.46 808.92,-913.35 802.49,-909.64 801.58,-914.46"/>
</g>
<!-- Node0x5a17dd830300&#45;&gt;Node0x5a17dd82d6e0 -->
<g id="edge44" class="edge">
<title>Node0x5a17dd830300&#45;&gt;Node0x5a17dd82d6e0</title>
<path fill="none" stroke="#4a6fa5" d="M278.85,-1231.89C285.64,-1175.95 314.75,-1005.51 422,-937 516.01,-876.94 562.48,-921.85 673,-937 714.51,-942.69 759.96,-955.47 794.67,-966.68"/>
<polygon fill="#4a6fa5" stroke="#4a6fa5" points="794.05,-969.06 801.47,-968.9 795.58,-964.4 794.05,-969.06"/>
</g>
<!-- Node0x5a17dd830300&#45;&gt;Node0x5a17dd680d70 -->
<g id="edge61" class="edge">
<title>Node0x5a17dd830300&#45;&gt;Node0x5a17dd680d70</title>
<path fill="none" stroke="#4a6fa5" d="M336.1,-1251.34C448.58,-1253.88 691.77,-1259.38 799.18,-1261.81"/>
<polygon fill="#4a6fa5" stroke="#4a6fa5" points="799.31,-1264.26 806.36,-1261.97 799.42,-1259.36 799.31,-1264.26"/>
</g>
<!-- Node0x5a17dd830300&#45;&gt;Node0x5a17dd681930 -->
<g id="edge69" class="edge">
<title>Node0x5a17dd830300&#45;&gt;Node0x5a17dd681930</title>
<path fill="none" stroke="#4a6fa5" d="M282.85,-1231.87C298.2,-1187.17 343.92,-1070.86 422,-1009 431.91,-1001.15 443.4,-994.82 455.31,-989.72"/>
<polygon fill="#4a6fa5" stroke="#4a6fa5" points="456.41,-991.92 461.97,-987.02 454.56,-987.39 456.41,-991.92"/>
</g>
<!-- Node0x5a17dd830300&#45;&gt;Node0x5a17dd82df00 -->
<g id="edge42" class="edge">
<title>Node0x5a17dd830300&#45;&gt;Node0x5a17dd82df00</title>
<path fill="none" stroke="#4a6fa5" d="M277.49,-1231.71C280.26,-1168.91 298.76,-961.06 422,-873 534.15,-792.87 708,-819.93 796.36,-841.3"/>
<polygon fill="#4a6fa5" stroke="#4a6fa5" points="795.96,-843.72 803.34,-843.02 797.13,-838.96 795.96,-843.72"/>
</g>
<!-- Node0x5a17dd830300&#45;&gt;Node0x5a17dd681720 -->
<g id="edge68" class="edge">
<title>Node0x5a17dd830300&#45;&gt;Node0x5a17dd681720</title>
<path fill="none" stroke="#4a6fa5" d="M276.8,-1231.71C277.02,-1161.21 287.42,-904.19 422,-767 429.5,-759.36 438.46,-753.17 448.09,-748.17"/>
<polygon fill="#4a6fa5" stroke="#4a6fa5" points="449.29,-750.31 454.51,-745.04 447.14,-745.9 449.29,-750.31"/>
</g>
<!-- Node0x5a17dd830300&#45;&gt;Node0x5a17dd6822f0 -->
<g id="edge71" class="edge">
<title>Node0x5a17dd830300&#45;&gt;Node0x5a17dd6822f0</title>
<path fill="none" stroke="#4a6fa5" d="M279.22,-1231.87C290.23,-1145.14 341.54,-773.5 422,-695 504.03,-614.97 570.52,-687.28 673,-636 717.58,-613.69 715.6,-588.52 759,-564 767.37,-559.27 776.57,-555.07 785.81,-551.4"/>
<polygon fill="#4a6fa5" stroke="#4a6fa5" points="786.88,-553.61 792.54,-548.82 785.13,-549.04 786.88,-553.61"/>
</g>
<!-- Node0x5a17dd830040 -->
<g id="node32" class="node">
<title>Node0x5a17dd830040</title>
<path fill="#f0f4ff" stroke="black" d="M598,-621C598,-621 497,-621 497,-621 491,-621 485,-615 485,-609 485,-609 485,-597 485,-597 485,-591 491,-585 497,-585 497,-585 598,-585 598,-585 604,-585 610,-591 610,-597 610,-597 610,-609 610,-609 610,-615 604,-621 598,-621"/>
<text text-anchor="middle" x="547.5" y="-600.8" font-family="Courier,monospace" font-size="9.00">{TIFFSetErrorHandler}</text>
</g>
<!-- Node0x5a17dd830300&#45;&gt;Node0x5a17dd830040 -->
<g id="edge38" class="edge">
<title>Node0x5a17dd830300&#45;&gt;Node0x5a17dd830040</title>
<path fill="none" stroke="#4a6fa5" d="M278.94,-1231.87C289.06,-1140.7 338.43,-733.21 422,-643 436.62,-627.21 457.49,-617.63 477.96,-611.83"/>
<polygon fill="#4a6fa5" stroke="#4a6fa5" points="478.74,-614.16 484.88,-610 477.49,-609.42 478.74,-614.16"/>
</g>
<!-- Node0x5a17dd682d00 -->
<g id="node33" class="node">
<title>Node0x5a17dd682d00</title>
<path fill="#f0f4ff" stroke="black" d="M603,-556C603,-556 492,-556 492,-556 486,-556 480,-550 480,-544 480,-544 480,-532 480,-532 480,-526 486,-520 492,-520 492,-520 603,-520 603,-520 609,-520 615,-526 615,-532 615,-532 615,-544 615,-544 615,-550 609,-556 603,-556"/>
<text text-anchor="middle" x="547.5" y="-535.8" font-family="Courier,monospace" font-size="9.00">{TIFFSetWarningHandler}</text>
</g>
<!-- Node0x5a17dd830300&#45;&gt;Node0x5a17dd682d00 -->
<g id="edge39" class="edge">
<title>Node0x5a17dd830300&#45;&gt;Node0x5a17dd682d00</title>
<path fill="none" stroke="#4a6fa5" d="M278.33,-1231.91C285.88,-1134.15 326.42,-669.63 422,-570 435.42,-556.02 454.06,-547.84 472.83,-543.13"/>
<polygon fill="#4a6fa5" stroke="#4a6fa5" points="473.47,-545.5 479.74,-541.55 472.37,-540.72 473.47,-545.5"/>
</g>
<!-- Node0x5a17dd686630 -->
<g id="node34" class="node">
<title>Node0x5a17dd686630</title>
<path fill="#f0f4ff" stroke="black" d="M571.5,-491C571.5,-491 523.5,-491 523.5,-491 517.5,-491 511.5,-485 511.5,-479 511.5,-479 511.5,-467 511.5,-467 511.5,-461 517.5,-455 523.5,-455 523.5,-455 571.5,-455 571.5,-455 577.5,-455 583.5,-461 583.5,-467 583.5,-467 583.5,-479 583.5,-479 583.5,-485 577.5,-491 571.5,-491"/>
<text text-anchor="middle" x="547.5" y="-470.8" font-family="Courier,monospace" font-size="9.00">{TIFFClose}</text>
</g>
<!-- Node0x5a17dd830300&#45;&gt;Node0x5a17dd686630 -->
<g id="edge40" class="edge">
<title>Node0x5a17dd830300&#45;&gt;Node0x5a17dd686630</title>
<path fill="none" stroke="#4a6fa5" d="M277.97,-1231.92C283.85,-1128.76 318.08,-615.28 422,-505 442.93,-482.78 477.04,-475.17 504.26,-472.9"/>
<polygon fill="#4a6fa5" stroke="#4a6fa5" points="504.57,-475.34 511.38,-472.41 504.23,-470.45 504.57,-475.34"/>
</g>
<!-- Node0x5a17dd683000 -->
<g id="node35" class="node">
<title>Node0x5a17dd683000</title>
<path fill="#f0f4ff" stroke="black" d="M569,-426C569,-426 526,-426 526,-426 520,-426 514,-420 514,-414 514,-414 514,-402 514,-402 514,-396 520,-390 526,-390 526,-390 569,-390 569,-390 575,-390 581,-396 581,-402 581,-402 581,-414 581,-414 581,-420 575,-426 569,-426"/>
<text text-anchor="middle" x="547.5" y="-405.8" font-family="Courier,monospace" font-size="9.00">{TIFFOpen}</text>
</g>
<!-- Node0x5a17dd830300&#45;&gt;Node0x5a17dd683000 -->
<g id="edge43" class="edge">
<title>Node0x5a17dd830300&#45;&gt;Node0x5a17dd683000</title>
<path fill="none" stroke="#4a6fa5" d="M277.67,-1231.79C282.01,-1123.14 309.75,-560.94 422,-440 443.39,-416.95 478.95,-409.58 506.61,-407.61"/>
<polygon fill="#4a6fa5" stroke="#4a6fa5" points="506.96,-410.05 513.81,-407.21 506.69,-405.15 506.96,-410.05"/>
</g>
<!-- Node0x5a17dd830dd0 -->
<g id="node36" class="node">
<title>Node0x5a17dd830dd0</title>
<path fill="#f0f4ff" stroke="black" d="M882.5,-1725C882.5,-1725 823.5,-1725 823.5,-1725 817.5,-1725 811.5,-1719 811.5,-1713 811.5,-1713 811.5,-1701 811.5,-1701 811.5,-1695 817.5,-1689 823.5,-1689 823.5,-1689 882.5,-1689 882.5,-1689 888.5,-1689 894.5,-1695 894.5,-1701 894.5,-1701 894.5,-1713 894.5,-1713 894.5,-1719 888.5,-1725 882.5,-1725"/>
<text text-anchor="middle" x="853" y="-1704.8" font-family="Courier,monospace" font-size="9.00">{ColorInfo()}</text>
</g>
<!-- Node0x5a17dd830300&#45;&gt;Node0x5a17dd830dd0 -->
<g id="edge45" class="edge">
<title>Node0x5a17dd830300&#45;&gt;Node0x5a17dd830dd0</title>
<path fill="none" stroke="#4a6fa5" d="M278.68,-1268.23C287.36,-1358 330.3,-1751.61 422,-1823 510.03,-1891.53 566.02,-1854.63 673,-1823 734.6,-1804.79 794.91,-1758 827.39,-1729.72"/>
<polygon fill="#4a6fa5" stroke="#4a6fa5" points="829.11,-1731.47 832.74,-1725.01 825.87,-1727.79 829.11,-1731.47"/>
</g>
<!-- Node0x5a17dd6854a0 -->
<g id="node37" class="node">
<title>Node0x5a17dd6854a0</title>
<path fill="#f0f4ff" stroke="black" d="M564,-361C564,-361 531,-361 531,-361 525,-361 519,-355 519,-349 519,-349 519,-337 519,-337 519,-331 525,-325 531,-325 531,-325 564,-325 564,-325 570,-325 576,-331 576,-337 576,-337 576,-349 576,-349 576,-355 570,-361 564,-361"/>
<text text-anchor="middle" x="547.5" y="-340.8" font-family="Courier,monospace" font-size="9.00">{unlink}</text>
</g>
<!-- Node0x5a17dd830300&#45;&gt;Node0x5a17dd6854a0 -->
<g id="edge46" class="edge">
<title>Node0x5a17dd830300&#45;&gt;Node0x5a17dd6854a0</title>
<path fill="none" stroke="#4a6fa5" d="M277.4,-1231.84C280.29,-1118.32 301.33,-506.7 422,-375 444.56,-350.38 483.28,-343.61 511.56,-342.23"/>
<polygon fill="#4a6fa5" stroke="#4a6fa5" points="511.96,-344.67 518.88,-341.98 511.8,-339.77 511.96,-344.67"/>
</g>
<!-- Node0x5a17dd686160 -->
<g id="node38" class="node">
<title>Node0x5a17dd686160</title>
<path fill="#f0f4ff" stroke="black" d="M606,-2446C606,-2446 489,-2446 489,-2446 483,-2446 477,-2440 477,-2434 477,-2434 477,-2422 477,-2422 477,-2416 483,-2410 489,-2410 489,-2410 606,-2410 606,-2410 612,-2410 618,-2416 618,-2422 618,-2422 618,-2434 618,-2434 618,-2440 612,-2446 606,-2446"/>
<text text-anchor="middle" x="547.5" y="-2425.8" font-family="Courier,monospace" font-size="9.00">{ComprehensiveAnalyze()}</text>
</g>
<!-- Node0x5a17dd830300&#45;&gt;Node0x5a17dd686160 -->
<g id="edge47" class="edge">
<title>Node0x5a17dd830300&#45;&gt;Node0x5a17dd686160</title>
<path fill="none" stroke="#4a6fa5" d="M278.08,-1268.27C286.55,-1408.2 343.76,-2307.24 422,-2396 434.25,-2409.89 451.64,-2418.14 469.55,-2422.94"/>
<polygon fill="#4a6fa5" stroke="#4a6fa5" points="469.32,-2425.41 476.7,-2424.68 470.47,-2420.65 469.32,-2425.41"/>
</g>
<!-- Node0x5a17dd8325e0 -->
<g id="node39" class="node">
<title>Node0x5a17dd8325e0</title>
<path fill="#f0f4ff" stroke="black" d="M592.5,-296C592.5,-296 502.5,-296 502.5,-296 496.5,-296 490.5,-290 490.5,-284 490.5,-284 490.5,-272 490.5,-272 490.5,-266 496.5,-260 502.5,-260 502.5,-260 592.5,-260 592.5,-260 598.5,-260 604.5,-266 604.5,-272 604.5,-272 604.5,-284 604.5,-284 604.5,-290 598.5,-296 592.5,-296"/>
<text text-anchor="middle" x="547.5" y="-275.8" font-family="Courier,monospace" font-size="9.00">{ResetAllocGuard()}</text>
</g>
<!-- Node0x5a17dd830300&#45;&gt;Node0x5a17dd8325e0 -->
<g id="edge48" class="edge">
<title>Node0x5a17dd830300&#45;&gt;Node0x5a17dd8325e0</title>
<path fill="none" stroke="#4a6fa5" d="M277.18,-1231.67C278.71,-1112.88 292.98,-452.41 422,-310 437.62,-292.76 461.15,-284.26 483.57,-280.23"/>
<polygon fill="#4a6fa5" stroke="#4a6fa5" points="483.96,-282.65 490.48,-279.12 483.18,-277.81 483.96,-282.65"/>
</g>
<!-- Node0x5a17dd685ef0 -->
<g id="node40" class="node">
<title>Node0x5a17dd685ef0</title>
<path fill="#f0f4ff" stroke="black" d="M564,-231C564,-231 531,-231 531,-231 525,-231 519,-225 519,-219 519,-219 519,-207 519,-207 519,-201 525,-195 531,-195 531,-195 564,-195 564,-195 570,-195 576,-201 576,-207 576,-207 576,-219 576,-219 576,-225 570,-231 564,-231"/>
<text text-anchor="middle" x="547.5" y="-210.8" font-family="Courier,monospace" font-size="9.00">{fwrite}</text>
</g>
<!-- Node0x5a17dd830300&#45;&gt;Node0x5a17dd685ef0 -->
<g id="edge50" class="edge">
<title>Node0x5a17dd830300&#45;&gt;Node0x5a17dd685ef0</title>
<path fill="none" stroke="#4a6fa5" d="M276.98,-1231.62C277.21,-1108.03 284.56,-398.2 422,-245 444.3,-220.14 483.06,-213.41 511.43,-212.11"/>
<polygon fill="#4a6fa5" stroke="#4a6fa5" points="511.84,-214.55 518.76,-211.88 511.69,-209.65 511.84,-214.55"/>
</g>
<!-- Node0x5a17dd685790 -->
<g id="node41" class="node">
<title>Node0x5a17dd685790</title>
<path fill="#f0f4ff" stroke="black" d="M564,-166C564,-166 531,-166 531,-166 525,-166 519,-160 519,-154 519,-154 519,-142 519,-142 519,-136 525,-130 531,-130 531,-130 564,-130 564,-130 570,-130 576,-136 576,-142 576,-142 576,-154 576,-154 576,-160 570,-166 564,-166"/>
<text text-anchor="middle" x="547.5" y="-145.8" font-family="Courier,monospace" font-size="9.00">{fdopen}</text>
</g>
<!-- Node0x5a17dd830300&#45;&gt;Node0x5a17dd685790 -->
<g id="edge52" class="edge">
<title>Node0x5a17dd830300&#45;&gt;Node0x5a17dd685790</title>
<path fill="none" stroke="#4a6fa5" d="M276.8,-1231.69C275.8,-1103.78 276.08,-344.06 422,-180 444.26,-154.97 483.21,-148.29 511.63,-147.05"/>
<polygon fill="#4a6fa5" stroke="#4a6fa5" points="512.05,-149.49 518.98,-146.84 511.91,-144.59 512.05,-149.49"/>
</g>
<!-- Node0x5a17dd685a10 -->
<g id="node42" class="node">
<title>Node0x5a17dd685a10</title>
<path fill="#f0f4ff" stroke="black" d="M562.5,-101C562.5,-101 532.5,-101 532.5,-101 526.5,-101 520.5,-95 520.5,-89 520.5,-89 520.5,-77 520.5,-77 520.5,-71 526.5,-65 532.5,-65 532.5,-65 562.5,-65 562.5,-65 568.5,-65 574.5,-71 574.5,-77 574.5,-77 574.5,-89 574.5,-89 574.5,-95 568.5,-101 562.5,-101"/>
<text text-anchor="middle" x="547.5" y="-80.8" font-family="Courier,monospace" font-size="9.00">{open}</text>
</g>
<!-- Node0x5a17dd830300&#45;&gt;Node0x5a17dd685a10 -->
<g id="edge53" class="edge">
<title>Node0x5a17dd830300&#45;&gt;Node0x5a17dd685a10</title>
<path fill="none" stroke="#4a6fa5" d="M278.1,-1231.91C286.65,-1093.31 344.44,-202.87 422,-115 444.6,-89.4 484.67,-82.97 513.25,-81.94"/>
<polygon fill="#4a6fa5" stroke="#4a6fa5" points="513.3,-84.39 520.25,-81.79 513.19,-79.49 513.3,-84.39"/>
</g>
<!-- Node0x5a17dd685c80 -->
<g id="node43" class="node">
<title>Node0x5a17dd685c80</title>
<path fill="#f0f4ff" stroke="black" d="M569,-36C569,-36 526,-36 526,-36 520,-36 514,-30 514,-24 514,-24 514,-12 514,-12 514,-6 520,0 526,0 526,0 569,0 569,0 575,0 581,-6 581,-12 581,-12 581,-24 581,-24 581,-30 575,-36 569,-36"/>
<text text-anchor="middle" x="547.5" y="-15.8" font-family="Courier,monospace" font-size="9.00">{snprintf}</text>
</g>
<!-- Node0x5a17dd830300&#45;&gt;Node0x5a17dd685c80 -->
<g id="edge54" class="edge">
<title>Node0x5a17dd830300&#45;&gt;Node0x5a17dd685c80</title>
<path fill="none" stroke="#4a6fa5" d="M277.97,-1231.8C285.79,-1088.36 340.21,-143.3 422,-50 442.8,-26.28 478.59,-19 506.48,-17.23"/>
<polygon fill="#4a6fa5" stroke="#4a6fa5" points="506.87,-19.67 513.75,-16.88 506.64,-14.77 506.87,-19.67"/>
</g>
<!-- Node0x5a17dd684fd0 -->
<g id="node44" class="node">
<title>Node0x5a17dd684fd0</title>
<path fill="#f0f4ff" stroke="black" d="M564,-2381C564,-2381 531,-2381 531,-2381 525,-2381 519,-2375 519,-2369 519,-2369 519,-2357 519,-2357 519,-2351 525,-2345 531,-2345 531,-2345 564,-2345 564,-2345 570,-2345 576,-2351 576,-2357 576,-2357 576,-2369 576,-2369 576,-2375 570,-2381 564,-2381"/>
<text text-anchor="middle" x="547.5" y="-2360.8" font-family="Courier,monospace" font-size="9.00">{getpid}</text>
</g>
<!-- Node0x5a17dd830300&#45;&gt;Node0x5a17dd684fd0 -->
<g id="edge55" class="edge">
<title>Node0x5a17dd830300&#45;&gt;Node0x5a17dd684fd0</title>
<path fill="none" stroke="#4a6fa5" d="M276.78,-1268.08C275.57,-1396.07 274.56,-2165.01 422,-2331 444.24,-2356.04 483.2,-2362.72 511.63,-2363.96"/>
<polygon fill="#4a6fa5" stroke="#4a6fa5" points="511.91,-2366.42 518.97,-2364.17 512.05,-2361.52 511.91,-2366.42"/>
</g>
<!-- Node0x5a17dd684ae0 -->
<g id="node45" class="node">
<title>Node0x5a17dd684ae0</title>
<path fill="#f0f4ff" stroke="black" d="M890.5,-1514C890.5,-1514 815.5,-1514 815.5,-1514 809.5,-1514 803.5,-1508 803.5,-1502 803.5,-1502 803.5,-1490 803.5,-1490 803.5,-1484 809.5,-1478 815.5,-1478 815.5,-1478 890.5,-1478 890.5,-1478 896.5,-1478 902.5,-1484 902.5,-1490 902.5,-1490 902.5,-1502 902.5,-1502 902.5,-1508 896.5,-1514 890.5,-1514"/>
<text text-anchor="middle" x="853" y="-1493.8" font-family="Courier,monospace" font-size="9.00">{ColorSuccess()}</text>
</g>
<!-- Node0x5a17dd830300&#45;&gt;Node0x5a17dd684ae0 -->
<g id="edge56" class="edge">
<title>Node0x5a17dd830300&#45;&gt;Node0x5a17dd684ae0</title>
<path fill="none" stroke="#4a6fa5" d="M277.23,-1268.34C279.13,-1332.28 295.09,-1546.27 422,-1634 513.76,-1697.44 567.41,-1669.98 673,-1634 739.54,-1611.33 800.6,-1552.81 831.27,-1519.72"/>
<polygon fill="#4a6fa5" stroke="#4a6fa5" points="833.37,-1521.06 836.29,-1514.24 829.75,-1517.75 833.37,-1521.06"/>
</g>
<!-- Node0x5a17dd831e50 -->
<g id="node46" class="node">
<title>Node0x5a17dd831e50</title>
<path fill="#f0f4ff" stroke="black" d="M571.5,-2316C571.5,-2316 523.5,-2316 523.5,-2316 517.5,-2316 511.5,-2310 511.5,-2304 511.5,-2304 511.5,-2292 511.5,-2292 511.5,-2286 517.5,-2280 523.5,-2280 523.5,-2280 571.5,-2280 571.5,-2280 577.5,-2280 583.5,-2286 583.5,-2292 583.5,-2292 583.5,-2304 583.5,-2304 583.5,-2310 577.5,-2316 571.5,-2316"/>
<text text-anchor="middle" x="547.5" y="-2295.8" font-family="Courier,monospace" font-size="9.00">{_TIFFfree}</text>
</g>
<!-- Node0x5a17dd830300&#45;&gt;Node0x5a17dd831e50 -->
<g id="edge57" class="edge">
<title>Node0x5a17dd830300&#45;&gt;Node0x5a17dd831e50</title>
<path fill="none" stroke="#4a6fa5" d="M276.95,-1268.18C276.96,-1391.97 283.05,-2110.89 422,-2266 442.44,-2288.81 476.74,-2296.36 504.17,-2298.46"/>
<polygon fill="#4a6fa5" stroke="#4a6fa5" points="504.21,-2300.91 511.34,-2298.9 504.51,-2296.02 504.21,-2300.91"/>
</g>
<!-- Node0x5a17dd6848e0 -->
<g id="node47" class="node">
<title>Node0x5a17dd6848e0</title>
<path fill="#f0f4ff" stroke="black" d="M598,-1176C598,-1176 497,-1176 497,-1176 491,-1176 485,-1170 485,-1164 485,-1164 485,-1152 485,-1152 485,-1146 491,-1140 497,-1140 497,-1140 598,-1140 598,-1140 604,-1140 610,-1146 610,-1152 610,-1152 610,-1164 610,-1164 610,-1170 604,-1176 598,-1176"/>
<text text-anchor="middle" x="547.5" y="-1155.8" font-family="Courier,monospace" font-size="9.00">{ScanForInjections()}</text>
</g>
<!-- Node0x5a17dd830300&#45;&gt;Node0x5a17dd6848e0 -->
<g id="edge58" class="edge">
<title>Node0x5a17dd830300&#45;&gt;Node0x5a17dd6848e0</title>
<path fill="none" stroke="#4a6fa5" d="M326.18,-1231.9C354.19,-1221.71 389.97,-1208.89 422,-1198 441.52,-1191.37 462.85,-1184.41 482.26,-1178.19"/>
<polygon fill="#4a6fa5" stroke="#4a6fa5" points="483.11,-1180.49 489.03,-1176.02 481.62,-1175.82 483.11,-1180.49"/>
</g>
<!-- Node0x5a17dd6852b0 -->
<g id="node48" class="node">
<title>Node0x5a17dd6852b0</title>
<path fill="#f0f4ff" stroke="black" d="M600.5,-2251C600.5,-2251 494.5,-2251 494.5,-2251 488.5,-2251 482.5,-2245 482.5,-2239 482.5,-2239 482.5,-2227 482.5,-2227 482.5,-2221 488.5,-2215 494.5,-2215 494.5,-2215 600.5,-2215 600.5,-2215 606.5,-2215 612.5,-2221 612.5,-2227 612.5,-2227 612.5,-2239 612.5,-2239 612.5,-2245 606.5,-2251 600.5,-2251"/>
<text text-anchor="middle" x="547.5" y="-2230.8" font-family="Courier,monospace" font-size="9.00">{TIFFReadEncodedStrip}</text>
</g>
<!-- Node0x5a17dd830300&#45;&gt;Node0x5a17dd6852b0 -->
<g id="edge59" class="edge">
<title>Node0x5a17dd830300&#45;&gt;Node0x5a17dd6852b0</title>
<path fill="none" stroke="#4a6fa5" d="M277.14,-1268.16C278.43,-1387.28 291.49,-2056.7 422,-2201 435.73,-2216.18 455.59,-2224.59 475.44,-2229.13"/>
<polygon fill="#4a6fa5" stroke="#4a6fa5" points="475.09,-2231.56 482.44,-2230.58 476.09,-2226.76 475.09,-2231.56"/>
</g>
<!-- Node0x5a17dd831350 -->
<g id="node49" class="node">
<title>Node0x5a17dd831350</title>
<path fill="#f0f4ff" stroke="black" d="M577,-2186C577,-2186 518,-2186 518,-2186 512,-2186 506,-2180 506,-2174 506,-2174 506,-2162 506,-2162 506,-2156 512,-2150 518,-2150 518,-2150 577,-2150 577,-2150 583,-2150 589,-2156 589,-2162 589,-2162 589,-2174 589,-2174 589,-2180 583,-2186 577,-2186"/>
<text text-anchor="middle" x="547.5" y="-2165.8" font-family="Courier,monospace" font-size="9.00">{_TIFFmalloc}</text>
</g>
<!-- Node0x5a17dd830300&#45;&gt;Node0x5a17dd831350 -->
<g id="edge60" class="edge">
<title>Node0x5a17dd830300&#45;&gt;Node0x5a17dd831350</title>
<path fill="none" stroke="#4a6fa5" d="M277.36,-1268.01C279.99,-1381.98 299.86,-2002.43 422,-2136 441.27,-2157.08 472.39,-2165.08 498.69,-2167.81"/>
<polygon fill="#4a6fa5" stroke="#4a6fa5" points="498.78,-2170.28 505.97,-2168.45 499.21,-2165.39 498.78,-2170.28"/>
</g>
<!-- Node0x5a17dd8318d0 -->
<g id="node50" class="node">
<title>Node0x5a17dd8318d0</title>
<path fill="#f0f4ff" stroke="black" d="M598,-2121C598,-2121 497,-2121 497,-2121 491,-2121 485,-2115 485,-2109 485,-2109 485,-2097 485,-2097 485,-2091 491,-2085 497,-2085 497,-2085 598,-2085 598,-2085 604,-2085 610,-2091 610,-2097 610,-2097 610,-2109 610,-2109 610,-2115 604,-2121 598,-2121"/>
<text text-anchor="middle" x="547.5" y="-2100.8" font-family="Courier,monospace" font-size="9.00">{TIFFReadEncodedTile}</text>
</g>
<!-- Node0x5a17dd830300&#45;&gt;Node0x5a17dd8318d0 -->
<g id="edge62" class="edge">
<title>Node0x5a17dd830300&#45;&gt;Node0x5a17dd8318d0</title>
<path fill="none" stroke="#4a6fa5" d="M277.62,-1268.09C281.69,-1377.33 308.29,-1948.21 422,-2071 436.44,-2086.59 457.37,-2095.01 477.95,-2099.44"/>
<polygon fill="#4a6fa5" stroke="#4a6fa5" points="477.58,-2101.86 484.91,-2100.79 478.51,-2097.05 477.58,-2101.86"/>
</g>
<!-- Node0x5a17dd6845f0 -->
<g id="node51" class="node">
<title>Node0x5a17dd6845f0</title>
<path fill="#f0f4ff" stroke="black" d="M579.5,-2056C579.5,-2056 515.5,-2056 515.5,-2056 509.5,-2056 503.5,-2050 503.5,-2044 503.5,-2044 503.5,-2032 503.5,-2032 503.5,-2026 509.5,-2020 515.5,-2020 515.5,-2020 579.5,-2020 579.5,-2020 585.5,-2020 591.5,-2026 591.5,-2032 591.5,-2032 591.5,-2044 591.5,-2044 591.5,-2050 585.5,-2056 579.5,-2056"/>
<text text-anchor="middle" x="547.5" y="-2035.8" font-family="Courier,monospace" font-size="9.00">{TIFFTileSize}</text>
</g>
<!-- Node0x5a17dd830300&#45;&gt;Node0x5a17dd6845f0 -->
<g id="edge63" class="edge">
<title>Node0x5a17dd830300&#45;&gt;Node0x5a17dd6845f0</title>
<path fill="none" stroke="#4a6fa5" d="M278.06,-1268.06C284.45,-1371.11 321.04,-1884.21 422,-1998 440.66,-2019.03 470.41,-2029.08 496.14,-2033.84"/>
<polygon fill="#4a6fa5" stroke="#4a6fa5" points="495.97,-2036.3 503.28,-2035.05 496.79,-2031.47 495.97,-2036.3"/>
</g>
<!-- Node0x5a17dd684dd0 -->
<g id="node52" class="node">
<title>Node0x5a17dd684dd0</title>
<path fill="#f0f4ff" stroke="black" d="M577,-1932C577,-1932 518,-1932 518,-1932 512,-1932 506,-1926 506,-1920 506,-1920 506,-1908 506,-1908 506,-1902 512,-1896 518,-1896 518,-1896 577,-1896 577,-1896 583,-1896 589,-1902 589,-1908 589,-1908 589,-1920 589,-1920 589,-1926 583,-1932 577,-1932"/>
<text text-anchor="middle" x="547.5" y="-1911.8" font-family="Courier,monospace" font-size="9.00">{TIFFIsTiled}</text>
</g>
<!-- Node0x5a17dd830300&#45;&gt;Node0x5a17dd684dd0 -->
<g id="edge64" class="edge">
<title>Node0x5a17dd830300&#45;&gt;Node0x5a17dd684dd0</title>
<path fill="none" stroke="#4a6fa5" d="M278.81,-1268.02C288.41,-1360.48 336.31,-1780.93 422,-1874 441.61,-1895.3 472.57,-1905.3 498.71,-1909.98"/>
<polygon fill="#4a6fa5" stroke="#4a6fa5" points="498.64,-1912.45 505.94,-1911.16 499.43,-1907.62 498.64,-1912.45"/>
</g>
<!-- Node0x5a17dd683680 -->
<g id="node53" class="node">
<title>Node0x5a17dd683680</title>
<path fill="#f0f4ff" stroke="black" d="M564,-1808C564,-1808 531,-1808 531,-1808 525,-1808 519,-1802 519,-1796 519,-1796 519,-1784 519,-1784 519,-1778 525,-1772 531,-1772 531,-1772 564,-1772 564,-1772 570,-1772 576,-1778 576,-1784 576,-1784 576,-1796 576,-1796 576,-1802 570,-1808 564,-1808"/>
<text text-anchor="middle" x="547.5" y="-1787.8" font-family="Courier,monospace" font-size="9.00">{strlen}</text>
</g>
<!-- Node0x5a17dd830300&#45;&gt;Node0x5a17dd683680 -->
<g id="edge65" class="edge">
<title>Node0x5a17dd830300&#45;&gt;Node0x5a17dd683680</title>
<path fill="none" stroke="#4a6fa5" d="M279.74,-1268.19C292.46,-1350.4 348.33,-1686.25 422,-1758 445.78,-1781.15 483.94,-1788.21 511.75,-1790.05"/>
<polygon fill="#4a6fa5" stroke="#4a6fa5" points="511.83,-1792.51 518.95,-1790.43 512.08,-1787.61 511.83,-1792.51"/>
</g>
<!-- Node0x5a17dd684460 -->
<g id="node54" class="node">
<title>Node0x5a17dd684460</title>
<path fill="#f0f4ff" stroke="black" d="M603,-1743C603,-1743 492,-1743 492,-1743 486,-1743 480,-1737 480,-1731 480,-1731 480,-1719 480,-1719 480,-1713 486,-1707 492,-1707 492,-1707 603,-1707 603,-1707 609,-1707 615,-1713 615,-1719 615,-1719 615,-1731 615,-1731 615,-1737 609,-1743 603,-1743"/>
<text text-anchor="middle" x="547.5" y="-1722.8" font-family="Courier,monospace" font-size="9.00">{llvm.memcpy.p0.p0.i64}</text>
</g>
<!-- Node0x5a17dd830300&#45;&gt;Node0x5a17dd684460 -->
<g id="edge66" class="edge">
<title>Node0x5a17dd830300&#45;&gt;Node0x5a17dd684460</title>
<path fill="none" stroke="#4a6fa5" d="M277.5,-1268.29C280.31,-1334.38 298.91,-1563.24 422,-1685 435.87,-1698.72 454.46,-1707.74 473.04,-1713.66"/>
<polygon fill="#4a6fa5" stroke="#4a6fa5" points="472.46,-1716.05 479.87,-1715.71 473.87,-1711.35 472.46,-1716.05"/>
</g>
<!-- Node0x5a17dd683b30 -->
<g id="node55" class="node">
<title>Node0x5a17dd683b30</title>
<path fill="#f0f4ff" stroke="black" d="M564,-1619C564,-1619 531,-1619 531,-1619 525,-1619 519,-1613 519,-1607 519,-1607 519,-1595 519,-1595 519,-1589 525,-1583 531,-1583 531,-1583 564,-1583 564,-1583 570,-1583 576,-1589 576,-1595 576,-1595 576,-1607 576,-1607 576,-1613 570,-1619 564,-1619"/>
<text text-anchor="middle" x="547.5" y="-1598.8" font-family="Courier,monospace" font-size="9.00">{strstr}</text>
</g>
<!-- Node0x5a17dd830300&#45;&gt;Node0x5a17dd683b30 -->
<g id="edge67" class="edge">
<title>Node0x5a17dd830300&#45;&gt;Node0x5a17dd683b30</title>
<path fill="none" stroke="#4a6fa5" d="M279.68,-1268.07C288.76,-1322.52 323.42,-1486.32 422,-1569 447.19,-1590.13 484.63,-1597.54 511.86,-1600.02"/>
<polygon fill="#4a6fa5" stroke="#4a6fa5" points="511.74,-1602.47 518.91,-1600.57 512.12,-1597.58 511.74,-1602.47"/>
</g>
<!-- Node0x5a17dd682f80 -->
<g id="node56" class="node">
<title>Node0x5a17dd682f80</title>
<path fill="#f0f4ff" stroke="black" d="M603,-1554C603,-1554 492,-1554 492,-1554 486,-1554 480,-1548 480,-1542 480,-1542 480,-1530 480,-1530 480,-1524 486,-1518 492,-1518 492,-1518 603,-1518 603,-1518 609,-1518 615,-1524 615,-1530 615,-1530 615,-1542 615,-1542 615,-1548 609,-1554 603,-1554"/>
<text text-anchor="middle" x="547.5" y="-1533.8" font-family="Courier,monospace" font-size="9.00">{TiffCompressionName()}</text>
</g>
<!-- Node0x5a17dd830300&#45;&gt;Node0x5a17dd682f80 -->
<g id="edge72" class="edge">
<title>Node0x5a17dd830300&#45;&gt;Node0x5a17dd682f80</title>
<path fill="none" stroke="#4a6fa5" d="M281.92,-1268.02C295.63,-1314.74 338.85,-1440.55 422,-1504 436.64,-1515.18 454.79,-1522.47 472.65,-1527.23"/>
<polygon fill="#4a6fa5" stroke="#4a6fa5" points="472.36,-1529.68 479.74,-1528.99 473.54,-1524.92 472.36,-1529.68"/>
</g>
<!-- Node0x5a17dd683400 -->
<g id="node57" class="node">
<title>Node0x5a17dd683400</title>
<path fill="#f0f4ff" stroke="black" d="M606,-1489C606,-1489 489,-1489 489,-1489 483,-1489 477,-1483 477,-1477 477,-1477 477,-1465 477,-1465 477,-1459 483,-1453 489,-1453 489,-1453 606,-1453 606,-1453 612,-1453 618,-1459 618,-1465 618,-1465 618,-1477 618,-1477 618,-1483 612,-1489 606,-1489"/>
<text text-anchor="middle" x="547.5" y="-1468.8" font-family="Courier,monospace" font-size="9.00">{TiffSampleFormatName()}</text>
</g>
<!-- Node0x5a17dd830300&#45;&gt;Node0x5a17dd683400 -->
<g id="edge73" class="edge">
<title>Node0x5a17dd830300&#45;&gt;Node0x5a17dd683400</title>
<path fill="none" stroke="#4a6fa5" d="M285.58,-1268.04C304.55,-1305.93 353.86,-1393.97 422,-1439 436.25,-1448.42 453.12,-1455.07 469.76,-1459.76"/>
<polygon fill="#4a6fa5" stroke="#4a6fa5" points="469.47,-1462.22 476.87,-1461.65 470.73,-1457.48 469.47,-1462.22"/>
</g>
<!-- Node0x5a17dd830880 -->
<g id="node58" class="node">
<title>Node0x5a17dd830880</title>
<path fill="#f0f4ff" stroke="black" d="M603,-1424C603,-1424 492,-1424 492,-1424 486,-1424 480,-1418 480,-1412 480,-1412 480,-1400 480,-1400 480,-1394 486,-1388 492,-1388 492,-1388 603,-1388 603,-1388 609,-1388 615,-1394 615,-1400 615,-1400 615,-1412 615,-1412 615,-1418 609,-1424 603,-1424"/>
<text text-anchor="middle" x="547.5" y="-1403.8" font-family="Courier,monospace" font-size="9.00">{TiffPhotometricName()}</text>
</g>
<!-- Node0x5a17dd830300&#45;&gt;Node0x5a17dd830880 -->
<g id="edge74" class="edge">
<title>Node0x5a17dd830300&#45;&gt;Node0x5a17dd830880</title>
<path fill="none" stroke="#4a6fa5" d="M292.94,-1268.12C317.79,-1295.25 368.52,-1346.19 422,-1374 437.73,-1382.18 455.69,-1388.37 472.98,-1393.01"/>
<polygon fill="#4a6fa5" stroke="#4a6fa5" points="472.43,-1395.4 479.82,-1394.77 473.66,-1390.65 472.43,-1395.4"/>
</g>
<!-- Node0x5a17dd683980 -->
<g id="node59" class="node">
<title>Node0x5a17dd683980</title>
<path fill="#f0f4ff" stroke="black" d="M590,-1359C590,-1359 505,-1359 505,-1359 499,-1359 493,-1353 493,-1347 493,-1347 493,-1335 493,-1335 493,-1329 499,-1323 505,-1323 505,-1323 590,-1323 590,-1323 596,-1323 602,-1329 602,-1335 602,-1335 602,-1347 602,-1347 602,-1353 596,-1359 590,-1359"/>
<text text-anchor="middle" x="547.5" y="-1338.8" font-family="Courier,monospace" font-size="9.00">{TiffPlanarName()}</text>
</g>
<!-- Node0x5a17dd830300&#45;&gt;Node0x5a17dd683980 -->
<g id="edge75" class="edge">
<title>Node0x5a17dd830300&#45;&gt;Node0x5a17dd683980</title>
<path fill="none" stroke="#4a6fa5" d="M327.21,-1268.04C355.07,-1277.95 390.38,-1290.36 422,-1301 442.78,-1307.99 465.6,-1315.4 485.97,-1321.92"/>
<polygon fill="#4a6fa5" stroke="#4a6fa5" points="485.36,-1324.3 492.77,-1324.09 486.85,-1319.63 485.36,-1324.3"/>
</g>
<!-- Node0x5a17dd830dd0&#45;&gt;Node0x5a17dd71b970 -->
<g id="edge76" class="edge">
<title>Node0x5a17dd830dd0&#45;&gt;Node0x5a17dd71b970</title>
<path fill="none" stroke="#4a6fa5" d="M864.82,-1688.78C883.34,-1657.09 921.58,-1589.42 947,-1529 1017.71,-1360.96 1076.74,-1148.83 1095.93,-1077.04"/>
<polygon fill="#4a6fa5" stroke="#4a6fa5" points="1098.33,-1077.54 1097.76,-1070.15 1093.59,-1076.28 1098.33,-1077.54"/>
</g>
<!-- Node0x5a17dd684ae0&#45;&gt;Node0x5a17dd71b970 -->
<g id="edge81" class="edge">
<title>Node0x5a17dd684ae0&#45;&gt;Node0x5a17dd71b970</title>
<path fill="none" stroke="#4a6fa5" d="M864.2,-1477.77C903.38,-1407.77 1044.17,-1156.22 1088.81,-1076.45"/>
<polygon fill="#4a6fa5" stroke="#4a6fa5" points="1091.07,-1077.45 1092.35,-1070.14 1086.79,-1075.05 1091.07,-1077.45"/>
</g>
<!-- Node0x5a17dd6848e0&#45;&gt;Node0x5a17dd680980 -->
<g id="edge80" class="edge">
<title>Node0x5a17dd6848e0&#45;&gt;Node0x5a17dd680980</title>
<path fill="none" stroke="#4a6fa5" d="M610.28,-1149.65C672.73,-1141.22 766.98,-1128.49 817.35,-1121.68"/>
<polygon fill="#4a6fa5" stroke="#4a6fa5" points="817.85,-1124.09 824.46,-1120.72 817.19,-1119.23 817.85,-1124.09"/>
</g>
<!-- Node0x5a17dd6848e0&#45;&gt;Node0x5a17dd681020 -->
<g id="edge79" class="edge">
<title>Node0x5a17dd6848e0&#45;&gt;Node0x5a17dd681020</title>
<path fill="none" stroke="#4a6fa5" d="M610.01,-1144.69C630.32,-1139.64 652.86,-1133.31 673,-1126 712.8,-1111.55 719.88,-1101.21 759,-1085 772.74,-1079.31 787.85,-1073.68 801.83,-1068.73"/>
<polygon fill="#4a6fa5" stroke="#4a6fa5" points="802.79,-1070.99 808.59,-1066.36 801.17,-1066.36 802.79,-1070.99"/>
</g>
<!-- Node0x5a17dd6848e0&#45;&gt;Node0x5a17dd82d6e0 -->
<g id="edge78" class="edge">
<title>Node0x5a17dd6848e0&#45;&gt;Node0x5a17dd82d6e0</title>
<path fill="none" stroke="#4a6fa5" d="M610.24,-1150.19C631.34,-1145.49 654.31,-1137.99 673,-1126 724.06,-1093.24 709.45,-1055.01 759,-1020 769.51,-1012.58 781.85,-1006.67 794.05,-1002.03"/>
<polygon fill="#4a6fa5" stroke="#4a6fa5" points="795.06,-1004.27 800.8,-999.58 793.39,-999.66 795.06,-1004.27"/>
</g>
<!-- Node0x5a17dd832b60 -->
<g id="node62" class="node">
<title>Node0x5a17dd832b60</title>
<path fill="#f0f4ff" stroke="black" d="M869.5,-1200C869.5,-1200 836.5,-1200 836.5,-1200 830.5,-1200 824.5,-1194 824.5,-1188 824.5,-1188 824.5,-1176 824.5,-1176 824.5,-1170 830.5,-1164 836.5,-1164 836.5,-1164 869.5,-1164 869.5,-1164 875.5,-1164 881.5,-1170 881.5,-1176 881.5,-1176 881.5,-1188 881.5,-1188 881.5,-1194 875.5,-1200 869.5,-1200"/>
<text text-anchor="middle" x="853" y="-1179.8" font-family="Courier,monospace" font-size="9.00">{memcmp}</text>
</g>
<!-- Node0x5a17dd6848e0&#45;&gt;Node0x5a17dd832b60 -->
<g id="edge77" class="edge">
<title>Node0x5a17dd6848e0&#45;&gt;Node0x5a17dd832b60</title>
<path fill="none" stroke="#4a6fa5" d="M610.28,-1162.89C672.73,-1167.82 766.98,-1175.28 817.35,-1179.26"/>
<polygon fill="#4a6fa5" stroke="#4a6fa5" points="817.29,-1181.71 824.46,-1179.82 817.67,-1176.83 817.29,-1181.71"/>
</g>
<!-- Node0x5a17dd686ae0 -->
<g id="node60" class="node">
<title>Node0x5a17dd686ae0</title>
<path fill="#f0f4ff" stroke="black" d="M115.5,-12905C115.5,-12905 14.5,-12905 14.5,-12905 8.5,-12905 2.5,-12899 2.5,-12893 2.5,-12893 2.5,-12881 2.5,-12881 2.5,-12875 8.5,-12869 14.5,-12869 14.5,-12869 115.5,-12869 115.5,-12869 121.5,-12869 127.5,-12875 127.5,-12881 127.5,-12881 127.5,-12893 127.5,-12893 127.5,-12899 121.5,-12905 115.5,-12905"/>
<text text-anchor="middle" x="65" y="-12884.8" font-family="Courier,monospace" font-size="9.00">{TiffSilentWarning()}</text>
</g>
<!-- Node0x5a17dd686350 -->
<g id="node61" class="node">
<title>Node0x5a17dd686350</title>
<path fill="#f0f4ff" stroke="black" d="M110,-13701C110,-13701 20,-13701 20,-13701 14,-13701 8,-13695 8,-13689 8,-13689 8,-13677 8,-13677 8,-13671 14,-13665 20,-13665 20,-13665 110,-13665 110,-13665 116,-13665 122,-13671 122,-13677 122,-13677 122,-13689 122,-13689 122,-13695 116,-13701 110,-13701"/>
<text text-anchor="middle" x="65" y="-13680.8" font-family="Courier,monospace" font-size="9.00">{TiffSilentError()}</text>
</g>
<!-- Node0x5a17dd6860e0 -->
<g id="node63" class="node">
<title>Node0x5a17dd6860e0</title>
<path fill="#f0f4ff" stroke="black" d="M113,-2478C113,-2478 17,-2478 17,-2478 11,-2478 5,-2472 5,-2466 5,-2466 5,-2454 5,-2454 5,-2448 11,-2442 17,-2442 17,-2442 113,-2442 113,-2442 119,-2442 125,-2448 125,-2454 125,-2454 125,-2466 125,-2466 125,-2472 119,-2478 113,-2478"/>
<text text-anchor="middle" x="65" y="-2457.8" font-family="Courier,monospace" font-size="9.00">{AnalyzeImageFile()}</text>
</g>
<!-- Node0x5a17dd6860e0&#45;&gt;Node0x5a17dd81e2f0 -->
<g id="edge82" class="edge">
<title>Node0x5a17dd6860e0&#45;&gt;Node0x5a17dd81e2f0</title>
<path fill="none" stroke="#4a6fa5" d="M86.8,-2478.22C125.14,-2511.79 206.86,-2583.34 248.87,-2620.12"/>
<polygon fill="#4a6fa5" stroke="#4a6fa5" points="247.4,-2622.09 254.28,-2624.86 250.63,-2618.4 247.4,-2622.09"/>
</g>
<!-- Node0x5a17dd6860e0&#45;&gt;Node0x5a17dd680980 -->
<g id="edge84" class="edge">
<title>Node0x5a17dd6860e0&#45;&gt;Node0x5a17dd680980</title>
<path fill="none" stroke="#4a6fa5" d="M125.09,-2469.88C262.16,-2491.31 595.92,-2534.49 673,-2461 884.31,-2259.54 582.85,-1382.84 759,-1150 772.68,-1131.91 797.09,-1123.71 817.46,-1120"/>
<polygon fill="#4a6fa5" stroke="#4a6fa5" points="817.96,-1122.4 824.48,-1118.87 817.18,-1117.56 817.96,-1122.4"/>
</g>
<!-- Node0x5a17dd6860e0&#45;&gt;Node0x5a17dd830300 -->
<g id="edge83" class="edge">
<title>Node0x5a17dd6860e0&#45;&gt;Node0x5a17dd830300</title>
<path fill="none" stroke="#4a6fa5" d="M69.12,-2441.96C92.71,-2305.36 243.03,-1435.1 270.64,-1275.22"/>
<polygon fill="#4a6fa5" stroke="#4a6fa5" points="273.09,-1275.46 271.87,-1268.15 268.26,-1274.63 273.09,-1275.46"/>
</g>
<!-- Node0x5a17dd6860e0&#45;&gt;Node0x5a17dd686160 -->
<g id="edge85" class="edge">
<title>Node0x5a17dd6860e0&#45;&gt;Node0x5a17dd686160</title>
<path fill="none" stroke="#4a6fa5" d="M125.4,-2456.04C212.24,-2450.26 373.9,-2439.49 469.68,-2433.12"/>
<polygon fill="#4a6fa5" stroke="#4a6fa5" points="469.92,-2435.56 476.74,-2432.65 469.59,-2430.67 469.92,-2435.56"/>
</g>
</g>
</svg>
