<?xml version="1.0" encoding="UTF-8" standalone="no"?>
<!DOCTYPE svg PUBLIC "-//W3C//DTD SVG 1.1//EN"
 "http://www.w3.org/Graphics/SVG/1.1/DTD/svg11.dtd">
<!-- Generated by graphviz version 2.43.0 (0)
 -->
<!-- Title: Call graph: /home/h02332/po/research/call&#45;graph/cfl/icc_apply_fuzzer.ll Pages: 1 -->
<svg width="5110pt" height="214pt"
 viewBox="0.00 0.00 5110.00 214.00" xmlns="http://www.w3.org/2000/svg" xmlns:xlink="http://www.w3.org/1999/xlink">
<g id="graph0" class="graph" transform="scale(1 1) rotate(0) translate(4 210)">
<title>Call graph: /home/h02332/po/research/call&#45;graph/cfl/icc_apply_fuzzer.ll</title>
<polygon fill="white" stroke="transparent" points="-4,4 -4,-210 5106,-210 5106,4 -4,4"/>
<text text-anchor="middle" x="2551" y="-7.8" font-family="Times,serif" font-size="14.00">Call graph: /home/h02332/po/research/call&#45;graph/cfl/icc_apply_fuzzer.ll</text>
<!-- Node0x5ff8cc8dc3f0 -->
<g id="node1" class="node">
<title>Node0x5ff8cc8dc3f0</title>
<polygon fill="none" stroke="black" points="2615,-169.5 2615,-205.5 2818,-205.5 2818,-169.5 2615,-169.5"/>
<text text-anchor="middle" x="2716.5" y="-183.8" font-family="Times,serif" font-size="14.00">LLVMFuzzerTestOneInput</text>
</g>
<!-- Node0x5ff8cc8dbb50 -->
<g id="node2" class="node">
<title>Node0x5ff8cc8dbb50</title>
<polygon fill="none" stroke="black" points="0,-96.5 0,-132.5 153,-132.5 153,-96.5 0,-96.5"/>
<text text-anchor="middle" x="76.5" y="-110.8" font-family="Times,serif" font-size="14.00">_ZL11fuzz_tmpdirv</text>
</g>
<!-- Node0x5ff8cc8dc3f0&#45;&gt;Node0x5ff8cc8dbb50 -->
<g id="edge1" class="edge">
<title>Node0x5ff8cc8dc3f0&#45;&gt;Node0x5ff8cc8dbb50</title>
<path fill="none" stroke="black" d="M2614.66,-186.84C2204.2,-187.85 669.52,-187.84 163.25,-133.06"/>
<polygon fill="black" stroke="black" points="163.63,-129.59 153.31,-131.97 162.87,-136.54 163.63,-129.59"/>
</g>
<!-- Node0x5ff8cc8db860 -->
<g id="node3" class="node">
<title>Node0x5ff8cc8db860</title>
<polygon fill="none" stroke="black" points="171,-96.5 171,-132.5 426,-132.5 426,-96.5 171,-96.5"/>
<text text-anchor="middle" x="298.5" y="-110.8" font-family="Times,serif" font-size="14.00">_ZL15fuzz_build_pathPcmPKcS1_</text>
</g>
<!-- Node0x5ff8cc8dc3f0&#45;&gt;Node0x5ff8cc8db860 -->
<g id="edge2" class="edge">
<title>Node0x5ff8cc8dc3f0&#45;&gt;Node0x5ff8cc8db860</title>
<path fill="none" stroke="black" d="M2614.72,-185.53C2233.29,-181.68 887.89,-166.07 436.4,-133.09"/>
<polygon fill="black" stroke="black" points="436.46,-129.58 426.23,-132.33 435.94,-136.56 436.46,-129.58"/>
</g>
<!-- Node0x5ff8cc8db7f0 -->
<g id="node4" class="node">
<title>Node0x5ff8cc8db7f0</title>
<polygon fill="none" stroke="black" points="444,-96.5 444,-132.5 527,-132.5 527,-96.5 444,-96.5"/>
<text text-anchor="middle" x="485.5" y="-110.8" font-family="Times,serif" font-size="14.00">mkstemp</text>
</g>
<!-- Node0x5ff8cc8dc3f0&#45;&gt;Node0x5ff8cc8db7f0 -->
<g id="edge3" class="edge">
<title>Node0x5ff8cc8dc3f0&#45;&gt;Node0x5ff8cc8db7f0</title>
<path fill="none" stroke="black" d="M2614.9,-185.83C2218.15,-182.97 783.46,-170.25 537.13,-132.6"/>
<polygon fill="black" stroke="black" points="537.69,-129.14 527.25,-130.96 536.55,-136.05 537.69,-129.14"/>
</g>
<!-- Node0x5ff8cc8dcff0 -->
<g id="node5" class="node">
<title>Node0x5ff8cc8dcff0</title>
<polygon fill="none" stroke="black" points="545.5,-96.5 545.5,-132.5 599.5,-132.5 599.5,-96.5 545.5,-96.5"/>
<text text-anchor="middle" x="572.5" y="-110.8" font-family="Times,serif" font-size="14.00">write</text>
</g>
<!-- Node0x5ff8cc8dc3f0&#45;&gt;Node0x5ff8cc8dcff0 -->
<g id="edge4" class="edge">
<title>Node0x5ff8cc8dc3f0&#45;&gt;Node0x5ff8cc8dcff0</title>
<path fill="none" stroke="black" d="M2614.77,-186.45C2226.11,-185.92 845.4,-180.8 609.33,-132.33"/>
<polygon fill="black" stroke="black" points="610.09,-128.91 599.56,-130.14 608.55,-135.74 610.09,-128.91"/>
</g>
<!-- Node0x5ff8cc8ddd20 -->
<g id="node6" class="node">
<title>Node0x5ff8cc8ddd20</title>
<polygon fill="none" stroke="black" points="617.5,-96.5 617.5,-132.5 671.5,-132.5 671.5,-96.5 617.5,-96.5"/>
<text text-anchor="middle" x="644.5" y="-110.8" font-family="Times,serif" font-size="14.00">close</text>
</g>
<!-- Node0x5ff8cc8dc3f0&#45;&gt;Node0x5ff8cc8ddd20 -->
<g id="edge5" class="edge">
<title>Node0x5ff8cc8dc3f0&#45;&gt;Node0x5ff8cc8ddd20</title>
<path fill="none" stroke="black" d="M2614.97,-186.35C2235.54,-185.46 911.18,-179.18 681.66,-132.39"/>
<polygon fill="black" stroke="black" points="682.09,-128.9 671.56,-130.14 680.56,-135.73 682.09,-128.9"/>
</g>
<!-- Node0x5ff8cc8dbfe0 -->
<g id="node7" class="node">
<title>Node0x5ff8cc8dbfe0</title>
<polygon fill="none" stroke="black" points="689.5,-96.5 689.5,-132.5 1057.5,-132.5 1057.5,-96.5 689.5,-96.5"/>
<text text-anchor="middle" x="873.5" y="-110.8" font-family="Times,serif" font-size="14.00">_ZN7CIccCmmC1E21icColorSpaceSignatureS0_b</text>
</g>
<!-- Node0x5ff8cc8dc3f0&#45;&gt;Node0x5ff8cc8dbfe0 -->
<g id="edge6" class="edge">
<title>Node0x5ff8cc8dc3f0&#45;&gt;Node0x5ff8cc8dbfe0</title>
<path fill="none" stroke="black" d="M2614.54,-185.25C2357.1,-181.65 1659.76,-169.14 1067.64,-133.05"/>
<polygon fill="black" stroke="black" points="1067.81,-129.55 1057.62,-132.43 1067.38,-136.54 1067.81,-129.55"/>
</g>
<!-- Node0x5ff8cc8dd260 -->
<g id="node8" class="node">
<title>Node0x5ff8cc8dd260</title>
<polygon fill="none" stroke="black" points="1075.5,-96.5 1075.5,-132.5 2233.5,-132.5 2233.5,-96.5 1075.5,-96.5"/>
<text text-anchor="middle" x="1654.5" y="-110.8" font-family="Times,serif" font-size="14.00">_ZN7CIccCmm8AddXformEPKc17icRenderingIntent13icXformInterpP31IIccProfileConnectionConditions14icXformLutTypebP26CIccCreateXformHintManagerb</text>
</g>
<!-- Node0x5ff8cc8dc3f0&#45;&gt;Node0x5ff8cc8dd260 -->
<g id="edge7" class="edge">
<title>Node0x5ff8cc8dc3f0&#45;&gt;Node0x5ff8cc8dd260</title>
<path fill="none" stroke="black" d="M2614.67,-179.69C2455.9,-169.08 2144.22,-148.24 1918.95,-133.18"/>
<polygon fill="black" stroke="black" points="1919.18,-129.69 1908.96,-132.51 1918.71,-136.67 1919.18,-129.69"/>
</g>
<!-- Node0x5ff8cc8dde60 -->
<g id="node9" class="node">
<title>Node0x5ff8cc8dde60</title>
<polygon fill="none" stroke="black" points="2252,-96.5 2252,-132.5 2453,-132.5 2453,-96.5 2252,-96.5"/>
<text text-anchor="middle" x="2352.5" y="-110.8" font-family="Times,serif" font-size="14.00">_ZN7CIccCmm5BeginEbb</text>
</g>
<!-- Node0x5ff8cc8dc3f0&#45;&gt;Node0x5ff8cc8dde60 -->
<g id="edge8" class="edge">
<title>Node0x5ff8cc8dc3f0&#45;&gt;Node0x5ff8cc8dde60</title>
<path fill="none" stroke="black" d="M2629.31,-169.49C2575.25,-158.95 2505.69,-145.38 2449.83,-134.48"/>
<polygon fill="black" stroke="black" points="2450.41,-131.03 2439.92,-132.55 2449.07,-137.9 2450.41,-131.03"/>
</g>
<!-- Node0x5ff8cc8dfcc0 -->
<g id="node10" class="node">
<title>Node0x5ff8cc8dfcc0</title>
<polygon fill="none" stroke="black" points="2471.5,-96.5 2471.5,-132.5 2667.5,-132.5 2667.5,-96.5 2471.5,-96.5"/>
<text text-anchor="middle" x="2569.5" y="-110.8" font-family="Times,serif" font-size="14.00">_ZNK7CIccCmm5ValidEv</text>
</g>
<!-- Node0x5ff8cc8dc3f0&#45;&gt;Node0x5ff8cc8dfcc0 -->
<g id="edge9" class="edge">
<title>Node0x5ff8cc8dc3f0&#45;&gt;Node0x5ff8cc8dfcc0</title>
<path fill="none" stroke="black" d="M2681.29,-169.49C2661.16,-159.77 2635.73,-147.49 2614.2,-137.09"/>
<polygon fill="black" stroke="black" points="2615.46,-133.81 2604.93,-132.61 2612.41,-140.11 2615.46,-133.81"/>
</g>
<!-- Node0x5ff8cc8de720 -->
<g id="node11" class="node">
<title>Node0x5ff8cc8de720</title>
<polygon fill="none" stroke="black" points="2686,-96.5 2686,-132.5 2747,-132.5 2747,-96.5 2686,-96.5"/>
<text text-anchor="middle" x="2716.5" y="-110.8" font-family="Times,serif" font-size="14.00">unlink</text>
</g>
<!-- Node0x5ff8cc8dc3f0&#45;&gt;Node0x5ff8cc8de720 -->
<g id="edge10" class="edge">
<title>Node0x5ff8cc8dc3f0&#45;&gt;Node0x5ff8cc8de720</title>
<path fill="none" stroke="black" d="M2716.5,-169.31C2716.5,-161.29 2716.5,-151.55 2716.5,-142.57"/>
<polygon fill="black" stroke="black" points="2720,-142.53 2716.5,-132.53 2713,-142.53 2720,-142.53"/>
</g>
<!-- Node0x5ff8cc8de520 -->
<g id="node12" class="node">
<title>Node0x5ff8cc8de520</title>
<polygon fill="none" stroke="black" points="2765,-96.5 2765,-132.5 2926,-132.5 2926,-96.5 2765,-96.5"/>
<text text-anchor="middle" x="2845.5" y="-110.8" font-family="Times,serif" font-size="14.00">_ZN7CIccCmmD1Ev</text>
</g>
<!-- Node0x5ff8cc8dc3f0&#45;&gt;Node0x5ff8cc8de520 -->
<g id="edge11" class="edge">
<title>Node0x5ff8cc8dc3f0&#45;&gt;Node0x5ff8cc8de520</title>
<path fill="none" stroke="black" d="M2747.4,-169.49C2764.82,-159.9 2786.78,-147.82 2805.51,-137.51"/>
<polygon fill="black" stroke="black" points="2807.33,-140.5 2814.41,-132.61 2803.96,-134.37 2807.33,-140.5"/>
</g>
<!-- Node0x5ff8cc8e0300 -->
<g id="node13" class="node">
<title>Node0x5ff8cc8e0300</title>
<polygon fill="none" stroke="black" points="2944.5,-96.5 2944.5,-132.5 3160.5,-132.5 3160.5,-96.5 2944.5,-96.5"/>
<text text-anchor="middle" x="3052.5" y="-110.8" font-family="Times,serif" font-size="14.00">_ZN7CIccCmm8GetApplyEv</text>
</g>
<!-- Node0x5ff8cc8dc3f0&#45;&gt;Node0x5ff8cc8e0300 -->
<g id="edge12" class="edge">
<title>Node0x5ff8cc8dc3f0&#45;&gt;Node0x5ff8cc8e0300</title>
<path fill="none" stroke="black" d="M2796.98,-169.49C2846.68,-158.99 2910.56,-145.49 2962.02,-134.62"/>
<polygon fill="black" stroke="black" points="2962.74,-138.04 2971.8,-132.55 2961.3,-131.2 2962.74,-138.04"/>
</g>
<!-- Node0x5ff8cc8e2320 -->
<g id="node14" class="node">
<title>Node0x5ff8cc8e2320</title>
<polygon fill="none" stroke="black" points="3179,-96.5 3179,-132.5 3450,-132.5 3450,-96.5 3179,-96.5"/>
<text text-anchor="middle" x="3314.5" y="-110.8" font-family="Times,serif" font-size="14.00">_ZNK7CIccCmm12GetDestSpaceEv</text>
</g>
<!-- Node0x5ff8cc8dc3f0&#45;&gt;Node0x5ff8cc8e2320 -->
<g id="edge13" class="edge">
<title>Node0x5ff8cc8dc3f0&#45;&gt;Node0x5ff8cc8e2320</title>
<path fill="none" stroke="black" d="M2818.06,-170.14C2820.9,-169.75 2823.72,-169.37 2826.5,-169 2975.2,-149.38 3015.47,-150.14 3168.43,-133.11"/>
<polygon fill="black" stroke="black" points="3169.12,-136.55 3178.67,-131.96 3168.34,-129.59 3169.12,-136.55"/>
</g>
<!-- Node0x5ff8cc8e1ba0 -->
<g id="node15" class="node">
<title>Node0x5ff8cc8e1ba0</title>
<polygon fill="none" stroke="black" points="3468,-96.5 3468,-132.5 3773,-132.5 3773,-96.5 3468,-96.5"/>
<text text-anchor="middle" x="3620.5" y="-110.8" font-family="Times,serif" font-size="14.00">_ZNK7CIccCmm16GetSourceSamplesEv</text>
</g>
<!-- Node0x5ff8cc8dc3f0&#45;&gt;Node0x5ff8cc8e1ba0 -->
<g id="edge14" class="edge">
<title>Node0x5ff8cc8dc3f0&#45;&gt;Node0x5ff8cc8e1ba0</title>
<path fill="none" stroke="black" d="M2818.04,-169.96C2820.89,-169.62 2823.71,-169.3 2826.5,-169 3102.95,-139.21 3176.39,-155.72 3457.79,-133.03"/>
<polygon fill="black" stroke="black" points="3458.21,-136.5 3467.89,-132.2 3457.64,-129.53 3458.21,-136.5"/>
</g>
<!-- Node0x5ff8cc8e16a0 -->
<g id="node16" class="node">
<title>Node0x5ff8cc8e16a0</title>
<polygon fill="none" stroke="black" points="3791,-96.5 3791,-132.5 4080,-132.5 4080,-96.5 3791,-96.5"/>
<text text-anchor="middle" x="3935.5" y="-110.8" font-family="Times,serif" font-size="14.00">_ZNK7CIccCmm14GetDestSamplesEv</text>
</g>
<!-- Node0x5ff8cc8dc3f0&#45;&gt;Node0x5ff8cc8e16a0 -->
<g id="edge15" class="edge">
<title>Node0x5ff8cc8dc3f0&#45;&gt;Node0x5ff8cc8e16a0</title>
<path fill="none" stroke="black" d="M2818.03,-169.89C2820.88,-169.57 2823.71,-169.27 2826.5,-169 3246.36,-127.85 3356.81,-164.6 3780.9,-133.09"/>
<polygon fill="black" stroke="black" points="3781.26,-136.57 3790.97,-132.33 3780.74,-129.59 3781.26,-136.57"/>
</g>
<!-- Node0x5ff8cc8e25a0 -->
<g id="node17" class="node">
<title>Node0x5ff8cc8e25a0</title>
<polygon fill="none" stroke="black" points="4098,-96.5 4098,-132.5 4385,-132.5 4385,-96.5 4098,-96.5"/>
<text text-anchor="middle" x="4241.5" y="-110.8" font-family="Times,serif" font-size="14.00">_ZNK7CIccCmm14GetSourceSpaceEv</text>
</g>
<!-- Node0x5ff8cc8dc3f0&#45;&gt;Node0x5ff8cc8e25a0 -->
<g id="edge16" class="edge">
<title>Node0x5ff8cc8dc3f0&#45;&gt;Node0x5ff8cc8e25a0</title>
<path fill="none" stroke="black" d="M2818.03,-169.86C2820.88,-169.55 2823.71,-169.26 2826.5,-169 3382.22,-117.09 3527.61,-172.47 4087.56,-133.1"/>
<polygon fill="black" stroke="black" points="4088.19,-136.56 4097.92,-132.36 4087.7,-129.58 4088.19,-136.56"/>
</g>
<!-- Node0x5ff8cc8e0bc0 -->
<g id="node18" class="node">
<title>Node0x5ff8cc8e0bc0</title>
<polygon fill="none" stroke="black" points="4403.5,-96.5 4403.5,-132.5 4561.5,-132.5 4561.5,-96.5 4403.5,-96.5"/>
<text text-anchor="middle" x="4482.5" y="-110.8" font-family="Times,serif" font-size="14.00">llvm.memset.p0.i64</text>
</g>
<!-- Node0x5ff8cc8dc3f0&#45;&gt;Node0x5ff8cc8e0bc0 -->
<g id="edge17" class="edge">
<title>Node0x5ff8cc8dc3f0&#45;&gt;Node0x5ff8cc8e0bc0</title>
<path fill="none" stroke="black" d="M2818.03,-169.84C2820.88,-169.53 2823.71,-169.25 2826.5,-169 3517.42,-106.4 3699.88,-208.29 4393.46,-132.99"/>
<polygon fill="black" stroke="black" points="4393.89,-136.46 4403.45,-131.89 4393.13,-129.5 4393.89,-136.46"/>
</g>
<!-- Node0x5ff8cc8e2820 -->
<g id="node19" class="node">
<title>Node0x5ff8cc8e2820</title>
<polygon fill="none" stroke="black" points="4580,-96.5 4580,-132.5 4861,-132.5 4861,-96.5 4580,-96.5"/>
<text text-anchor="middle" x="4720.5" y="-110.8" font-family="Times,serif" font-size="14.00">_ZNK7CIccCmm12GetNumXformsEv</text>
</g>
<!-- Node0x5ff8cc8dc3f0&#45;&gt;Node0x5ff8cc8e2820 -->
<g id="edge18" class="edge">
<title>Node0x5ff8cc8dc3f0&#45;&gt;Node0x5ff8cc8e2820</title>
<path fill="none" stroke="black" d="M2818.03,-169.83C2820.88,-169.53 2823.71,-169.25 2826.5,-169 3595.39,-100.23 3795.33,-185.25 4569.61,-133.01"/>
<polygon fill="black" stroke="black" points="4569.87,-136.5 4579.61,-132.33 4569.4,-129.52 4569.87,-136.5"/>
</g>
<!-- Node0x5ff8cc8e20a0 -->
<g id="node20" class="node">
<title>Node0x5ff8cc8e20a0</title>
<polygon fill="none" stroke="black" points="4879,-96.5 4879,-132.5 5102,-132.5 5102,-96.5 4879,-96.5"/>
<text text-anchor="middle" x="4990.5" y="-110.8" font-family="Times,serif" font-size="14.00">_ZN7CIccCmm5ApplyEPfPKf</text>
</g>
<!-- Node0x5ff8cc8dc3f0&#45;&gt;Node0x5ff8cc8e20a0 -->
<g id="edge19" class="edge">
<title>Node0x5ff8cc8dc3f0&#45;&gt;Node0x5ff8cc8e20a0</title>
<path fill="none" stroke="black" d="M2818.02,-169.82C2820.88,-169.52 2823.71,-169.25 2826.5,-169 3728.28,-89.72 3963.19,-205.85 4868.76,-133.08"/>
<polygon fill="black" stroke="black" points="4869.09,-136.56 4878.77,-132.27 4868.52,-129.59 4869.09,-136.56"/>
</g>
<!-- Node0x5ff8cc8e2aa0 -->
<g id="node21" class="node">
<title>Node0x5ff8cc8e2aa0</title>
<polygon fill="none" stroke="black" points="44,-23.5 44,-59.5 109,-59.5 109,-23.5 44,-23.5"/>
<text text-anchor="middle" x="76.5" y="-37.8" font-family="Times,serif" font-size="14.00">getenv</text>
</g>
<!-- Node0x5ff8cc8dbb50&#45;&gt;Node0x5ff8cc8e2aa0 -->
<g id="edge20" class="edge">
<title>Node0x5ff8cc8dbb50&#45;&gt;Node0x5ff8cc8e2aa0</title>
<path fill="none" stroke="black" d="M76.5,-96.31C76.5,-88.29 76.5,-78.55 76.5,-69.57"/>
<polygon fill="black" stroke="black" points="80,-69.53 76.5,-59.53 73,-69.53 80,-69.53"/>
</g>
<!-- Node0x5ff8cc8e3220 -->
<g id="node22" class="node">
<title>Node0x5ff8cc8e3220</title>
<polygon fill="none" stroke="black" points="199,-23.5 199,-59.5 258,-59.5 258,-23.5 199,-23.5"/>
<text text-anchor="middle" x="228.5" y="-37.8" font-family="Times,serif" font-size="14.00">strlen</text>
</g>
<!-- Node0x5ff8cc8db860&#45;&gt;Node0x5ff8cc8e3220 -->
<g id="edge21" class="edge">
<title>Node0x5ff8cc8db860&#45;&gt;Node0x5ff8cc8e3220</title>
<path fill="none" stroke="black" d="M281.55,-96.31C272.78,-87.42 261.93,-76.41 252.33,-66.67"/>
<polygon fill="black" stroke="black" points="254.8,-64.19 245.29,-59.53 249.82,-69.11 254.8,-64.19"/>
</g>
<!-- Node0x5ff8cc8e30e0 -->
<g id="node23" class="node">
<title>Node0x5ff8cc8e30e0</title>
<polygon fill="none" stroke="black" points="276.5,-23.5 276.5,-59.5 458.5,-59.5 458.5,-23.5 276.5,-23.5"/>
<text text-anchor="middle" x="367.5" y="-37.8" font-family="Times,serif" font-size="14.00">llvm.memcpy.p0.p0.i64</text>
</g>
<!-- Node0x5ff8cc8db860&#45;&gt;Node0x5ff8cc8e30e0 -->
<g id="edge22" class="edge">
<title>Node0x5ff8cc8db860&#45;&gt;Node0x5ff8cc8e30e0</title>
<path fill="none" stroke="black" d="M315.2,-96.31C323.76,-87.5 334.34,-76.63 343.73,-66.96"/>
<polygon fill="black" stroke="black" points="346.49,-69.14 350.95,-59.53 341.47,-64.26 346.49,-69.14"/>
</g>
<!-- Node0x5ff8cc8e2d20 -->
<g id="node25" class="node">
<title>Node0x5ff8cc8e2d20</title>
<polygon fill="none" stroke="black" points="3590.5,-23.5 3590.5,-59.5 3964.5,-59.5 3964.5,-23.5 3590.5,-23.5"/>
<text text-anchor="middle" x="3777.5" y="-37.8" font-family="Times,serif" font-size="14.00">_Z17icGetSpaceSamples21icColorSpaceSignature</text>
</g>
<!-- Node0x5ff8cc8e1ba0&#45;&gt;Node0x5ff8cc8e2d20 -->
<g id="edge23" class="edge">
<title>Node0x5ff8cc8e1ba0&#45;&gt;Node0x5ff8cc8e2d20</title>
<path fill="none" stroke="black" d="M3658.11,-96.49C3679.79,-86.69 3707.26,-74.27 3730.38,-63.81"/>
<polygon fill="black" stroke="black" points="3731.99,-66.92 3739.66,-59.61 3729.1,-60.55 3731.99,-66.92"/>
</g>
<!-- Node0x5ff8cc8e16a0&#45;&gt;Node0x5ff8cc8e2d20 -->
<g id="edge24" class="edge">
<title>Node0x5ff8cc8e16a0&#45;&gt;Node0x5ff8cc8e2d20</title>
<path fill="none" stroke="black" d="M3897.66,-96.49C3875.83,-86.69 3848.19,-74.27 3824.92,-63.81"/>
<polygon fill="black" stroke="black" points="3826.14,-60.52 3815.58,-59.61 3823.27,-66.9 3826.14,-60.52"/>
</g>
<!-- Node0x5ff8cc8e2fa0 -->
<g id="node24" class="node">
<title>Node0x5ff8cc8e2fa0</title>
<polygon fill="none" stroke="black" points="2836,-169.5 2836,-205.5 3003,-205.5 3003,-169.5 2836,-169.5"/>
<text text-anchor="middle" x="2919.5" y="-183.8" font-family="Times,serif" font-size="14.00">__gxx_personality_v0</text>
</g>
</g>
</svg>
