<?xml version="1.0" encoding="UTF-8" standalone="no"?>
<!DOCTYPE svg PUBLIC "-//W3C//DTD SVG 1.1//EN"
 "http://www.w3.org/Graphics/SVG/1.1/DTD/svg11.dtd">
<!-- Generated by graphviz version 2.43.0 (0)
 -->
<!-- Title: Call graph: /home/h02332/po/research/call&#45;graph/cfl/icc_spectral_fuzzer.ll Pages: 1 -->
<svg width="743pt" height="1007pt"
 viewBox="0.00 0.00 743.20 1007.20" xmlns="http://www.w3.org/2000/svg" xmlns:xlink="http://www.w3.org/1999/xlink">
<g id="graph0" class="graph" transform="scale(1 1) rotate(0) translate(21.6 985.6)">
<title>Call graph: /home/h02332/po/research/call&#45;graph/cfl/icc_spectral_fuzzer.ll</title>
<polygon fill="white" stroke="transparent" points="-21.6,21.6 -21.6,-985.6 721.6,-985.6 721.6,21.6 -21.6,21.6"/>
<!-- Node0x557413638c10 -->
<g id="node1" class="node">
<title>Node0x557413638c10</title>
<path fill="#f0f4ff" stroke="black" d="M116,-500C116,-500 12,-500 12,-500 6,-500 0,-494 0,-488 0,-488 0,-476 0,-476 0,-470 6,-464 12,-464 12,-464 116,-464 116,-464 122,-464 128,-470 128,-476 128,-476 128,-488 128,-488 128,-494 122,-500 116,-500"/>
<text text-anchor="middle" x="64" y="-479.8" font-family="Courier,monospace" font-size="9.00">LLVMFuzzerTestOneInput</text>
</g>
<!-- Node0x5574136d3170 -->
<g id="node2" class="node">
<title>Node0x5574136d3170</title>
<path fill="#f0f4ff" stroke="black" d="M373,-964C373,-964 269,-964 269,-964 263,-964 257,-958 257,-952 257,-952 257,-940 257,-940 257,-934 263,-928 269,-928 269,-928 373,-928 373,-928 379,-928 385,-934 385,-940 385,-940 385,-952 385,-952 385,-958 379,-964 373,-964"/>
<text text-anchor="middle" x="321" y="-943.8" font-family="Courier,monospace" font-size="9.00">CIccMemIO::CIccMemIO()</text>
</g>
<!-- Node0x557413638c10&#45;&gt;Node0x5574136d3170 -->
<g id="edge1" class="edge">
<title>Node0x557413638c10&#45;&gt;Node0x5574136d3170</title>
<path fill="none" stroke="#4a6fa5" d="M116.84,-500.2C121.07,-503.27 124.91,-506.85 128,-511 236.95,-657.13 61.78,-783.6 186,-917 202.52,-934.74 227.11,-942.96 250.74,-946.42"/>
<polygon fill="#4a6fa5" stroke="#4a6fa5" points="250.49,-948.5 256.72,-947.2 251.04,-944.34 250.49,-948.5"/>
</g>
<!-- Node0x5574136d3200 -->
<g id="node3" class="node">
<title>Node0x5574136d3200</title>
<path fill="#f0f4ff" stroke="black" d="M365,-906C365,-906 277,-906 277,-906 271,-906 265,-900 265,-894 265,-894 265,-882 265,-882 265,-876 271,-870 277,-870 277,-870 365,-870 365,-870 371,-870 377,-876 377,-882 377,-882 377,-894 377,-894 377,-900 371,-906 365,-906"/>
<text text-anchor="middle" x="321" y="-885.8" font-family="Courier,monospace" font-size="9.00">CIccMemIO::Attach()</text>
</g>
<!-- Node0x557413638c10&#45;&gt;Node0x5574136d3200 -->
<g id="edge2" class="edge">
<title>Node0x557413638c10&#45;&gt;Node0x5574136d3200</title>
<path fill="none" stroke="#4a6fa5" d="M116.44,-500.06C120.81,-503.17 124.78,-506.79 128,-511 223.18,-635.61 77.82,-745.5 186,-859 204.55,-878.46 232.81,-886.39 258.61,-889.18"/>
<polygon fill="#4a6fa5" stroke="#4a6fa5" points="258.59,-891.29 264.76,-889.76 258.98,-887.11 258.59,-891.29"/>
</g>
<!-- Node0x5574135f8a30 -->
<g id="node4" class="node">
<title>Node0x5574135f8a30</title>
<path fill="#f0f4ff" stroke="black" d="M383.5,-848C383.5,-848 258.5,-848 258.5,-848 252.5,-848 246.5,-842 246.5,-836 246.5,-836 246.5,-824 246.5,-824 246.5,-818 252.5,-812 258.5,-812 258.5,-812 383.5,-812 383.5,-812 389.5,-812 395.5,-818 395.5,-824 395.5,-824 395.5,-836 395.5,-836 395.5,-842 389.5,-848 383.5,-848"/>
<text text-anchor="middle" x="321" y="-827.8" font-family="Courier,monospace" font-size="9.00">CIccProfile::CIccProfile()</text>
</g>
<!-- Node0x557413638c10&#45;&gt;Node0x5574135f8a30 -->
<g id="edge3" class="edge">
<title>Node0x557413638c10&#45;&gt;Node0x5574135f8a30</title>
<path fill="none" stroke="#4a6fa5" d="M116.3,-500.17C120.7,-503.26 124.72,-506.84 128,-511 209.46,-614.16 93.79,-707.33 186,-801 200.44,-815.67 220.41,-823.73 240.53,-827.99"/>
<polygon fill="#4a6fa5" stroke="#4a6fa5" points="240.2,-830.06 246.49,-829.14 240.99,-825.94 240.2,-830.06"/>
</g>
<!-- Node0x5574135f7dc0 -->
<g id="node5" class="node">
<title>Node0x5574135f7dc0</title>
<path fill="#f0f4ff" stroke="black" d="M365,-790C365,-790 277,-790 277,-790 271,-790 265,-784 265,-778 265,-778 265,-766 265,-766 265,-760 271,-754 277,-754 277,-754 365,-754 365,-754 371,-754 377,-760 377,-766 377,-766 377,-778 377,-778 377,-784 371,-790 365,-790"/>
<text text-anchor="middle" x="321" y="-769.8" font-family="Courier,monospace" font-size="9.00">CIccProfile::Read()</text>
</g>
<!-- Node0x557413638c10&#45;&gt;Node0x5574135f7dc0 -->
<g id="edge4" class="edge">
<title>Node0x557413638c10&#45;&gt;Node0x5574135f7dc0</title>
<path fill="none" stroke="#4a6fa5" d="M115.8,-500.13C120.35,-503.23 124.54,-506.83 128,-511 195.83,-592.82 109.66,-669.05 186,-743 205.15,-761.55 233.2,-769.42 258.69,-772.4"/>
<polygon fill="#4a6fa5" stroke="#4a6fa5" points="258.58,-774.5 264.77,-773.03 259.02,-770.33 258.58,-774.5"/>
</g>
<!-- Node0x5574135f8980 -->
<g id="node6" class="node">
<title>Node0x5574135f8980</title>
<path fill="#f0f4ff" stroke="black" d="M373,-732C373,-732 269,-732 269,-732 263,-732 257,-726 257,-720 257,-720 257,-708 257,-708 257,-702 263,-696 269,-696 269,-696 373,-696 373,-696 379,-696 385,-702 385,-708 385,-708 385,-720 385,-720 385,-726 379,-732 373,-732"/>
<text text-anchor="middle" x="321" y="-711.8" font-family="Courier,monospace" font-size="9.00">CIccProfile::FindTag()</text>
</g>
<!-- Node0x557413638c10&#45;&gt;Node0x5574135f8980 -->
<g id="edge5" class="edge">
<title>Node0x557413638c10&#45;&gt;Node0x5574135f8980</title>
<path fill="none" stroke="#4a6fa5" d="M115.17,-500.2C119.9,-503.3 124.3,-506.87 128,-511 182.4,-571.71 125.32,-630.57 186,-685 203.65,-700.83 227.85,-708.73 250.83,-712.48"/>
<polygon fill="#4a6fa5" stroke="#4a6fa5" points="250.71,-714.58 256.96,-713.39 251.33,-710.43 250.71,-714.58"/>
</g>
<!-- Node0x5574136d9a30 -->
<g id="node7" class="node">
<title>Node0x5574136d9a30</title>
<path fill="#f0f4ff" stroke="black" d="M375.5,-674C375.5,-674 266.5,-674 266.5,-674 260.5,-674 254.5,-668 254.5,-662 254.5,-662 254.5,-650 254.5,-650 254.5,-644 260.5,-638 266.5,-638 266.5,-638 375.5,-638 375.5,-638 381.5,-638 387.5,-644 387.5,-650 387.5,-650 387.5,-662 387.5,-662 387.5,-668 381.5,-674 375.5,-674"/>
<text text-anchor="middle" x="321" y="-653.8" font-family="Courier,monospace" font-size="9.00">CIccMemIO::~CIccMemIO()</text>
</g>
<!-- Node0x557413638c10&#45;&gt;Node0x5574136d9a30 -->
<g id="edge6" class="edge">
<title>Node0x557413638c10&#45;&gt;Node0x5574136d9a30</title>
<path fill="none" stroke="#4a6fa5" d="M113.65,-500.17C118.84,-503.3 123.76,-506.9 128,-511 169.41,-551.1 140.47,-591.65 186,-627 203.7,-640.74 226.51,-648.3 248.27,-652.36"/>
<polygon fill="#4a6fa5" stroke="#4a6fa5" points="248.1,-654.46 254.37,-653.42 248.82,-650.32 248.1,-654.46"/>
</g>
<!-- Node0x5574135f86e0 -->
<g id="node8" class="node">
<title>Node0x5574135f86e0</title>
<path fill="#f0f4ff" stroke="black" d="M362.5,-616C362.5,-616 279.5,-616 279.5,-616 273.5,-616 267.5,-610 267.5,-604 267.5,-604 267.5,-592 267.5,-592 267.5,-586 273.5,-580 279.5,-580 279.5,-580 362.5,-580 362.5,-580 368.5,-580 374.5,-586 374.5,-592 374.5,-592 374.5,-604 374.5,-604 374.5,-610 368.5,-616 362.5,-616"/>
<text text-anchor="middle" x="321" y="-595.8" font-family="Courier,monospace" font-size="9.00">CIccMemIO::Alloc()</text>
</g>
<!-- Node0x557413638c10&#45;&gt;Node0x5574135f86e0 -->
<g id="edge7" class="edge">
<title>Node0x557413638c10&#45;&gt;Node0x5574135f86e0</title>
<path fill="none" stroke="#4a6fa5" d="M109.48,-500.05C115.9,-503.34 122.27,-507.01 128,-511 157.91,-531.84 153.99,-551.55 186,-569 208.92,-581.5 236.81,-588.61 261.19,-592.66"/>
<polygon fill="#4a6fa5" stroke="#4a6fa5" points="261.06,-594.77 267.31,-593.62 261.71,-590.62 261.06,-594.77"/>
</g>
<!-- Node0x5574136e2560 -->
<g id="node9" class="node">
<title>Node0x5574136e2560</title>
<path fill="#f0f4ff" stroke="black" d="M386,-558C386,-558 256,-558 256,-558 250,-558 244,-552 244,-546 244,-546 244,-534 244,-534 244,-528 250,-522 256,-522 256,-522 386,-522 386,-522 392,-522 398,-528 398,-534 398,-534 398,-546 398,-546 398,-552 392,-558 386,-558"/>
<text text-anchor="middle" x="321" y="-537.8" font-family="Courier,monospace" font-size="9.00">CIccProfile::~CIccProfile()</text>
</g>
<!-- Node0x557413638c10&#45;&gt;Node0x5574136e2560 -->
<g id="edge8" class="edge">
<title>Node0x557413638c10&#45;&gt;Node0x5574136e2560</title>
<path fill="none" stroke="#4a6fa5" d="M128.05,-497.39C146.69,-501.86 167.15,-506.7 186,-511 202.64,-514.79 220.47,-518.74 237.51,-522.45"/>
<polygon fill="#4a6fa5" stroke="#4a6fa5" points="237.45,-524.58 243.76,-523.8 238.34,-520.48 237.45,-524.58"/>
</g>
<!-- Node0x5574135f75d0 -->
<g id="node10" class="node">
<title>Node0x5574135f75d0</title>
<path fill="#f0f4ff" stroke="black" d="M389,-500C389,-500 253,-500 253,-500 247,-500 241,-494 241,-488 241,-488 241,-476 241,-476 241,-470 247,-464 253,-464 253,-464 389,-464 389,-464 395,-464 401,-470 401,-476 401,-476 401,-488 401,-488 401,-494 395,-500 389,-500"/>
<text text-anchor="middle" x="321" y="-479.8" font-family="Courier,monospace" font-size="9.00">CIccProfile::FindTagOfType()</text>
</g>
<!-- Node0x557413638c10&#45;&gt;Node0x5574135f75d0 -->
<g id="edge9" class="edge">
<title>Node0x557413638c10&#45;&gt;Node0x5574135f75d0</title>
<path fill="none" stroke="#4a6fa5" d="M128.03,-482C160.24,-482 199.89,-482 234.78,-482"/>
<polygon fill="#4a6fa5" stroke="#4a6fa5" points="234.79,-484.1 240.79,-482 234.79,-479.9 234.79,-484.1"/>
</g>
<!-- Node0x5574136dc880 -->
<g id="node11" class="node">
<title>Node0x5574136dc880</title>
<path fill="#f0f4ff" stroke="black" d="M352,-442C352,-442 290,-442 290,-442 284,-442 278,-436 278,-430 278,-430 278,-418 278,-418 278,-412 284,-406 290,-406 290,-406 352,-406 352,-406 358,-406 364,-412 364,-418 364,-418 364,-430 364,-430 364,-436 358,-442 352,-442"/>
<text text-anchor="middle" x="321" y="-421.8" font-family="Courier,monospace" font-size="9.00">__dynamic_cast</text>
</g>
<!-- Node0x557413638c10&#45;&gt;Node0x5574136dc880 -->
<g id="edge10" class="edge">
<title>Node0x557413638c10&#45;&gt;Node0x5574136dc880</title>
<path fill="none" stroke="#4a6fa5" d="M128.05,-466.61C146.69,-462.14 167.15,-457.3 186,-453 214.36,-446.53 246.18,-439.63 271.69,-434.19"/>
<polygon fill="#4a6fa5" stroke="#4a6fa5" points="272.27,-436.21 277.7,-432.9 271.39,-432.1 272.27,-436.21"/>
</g>
<!-- Node0x5574136dd980 -->
<g id="node12" class="node">
<title>Node0x5574136dd980</title>
<path fill="#f0f4ff" stroke="black" d="M444,-384C444,-384 198,-384 198,-384 192,-384 186,-378 186,-372 186,-372 186,-360 186,-360 186,-354 192,-348 198,-348 198,-348 444,-348 444,-348 450,-348 456,-354 456,-360 456,-360 456,-372 456,-372 456,-378 450,-384 444,-384"/>
<text text-anchor="middle" x="321" y="-363.8" font-family="Courier,monospace" font-size="9.00">CIccTagSpectralViewingConditions::getIlluminant()</text>
</g>
<!-- Node0x557413638c10&#45;&gt;Node0x5574136dd980 -->
<g id="edge11" class="edge">
<title>Node0x557413638c10&#45;&gt;Node0x5574136dd980</title>
<path fill="none" stroke="#4a6fa5" d="M84.8,-463.77C107.53,-443.85 146.75,-412.44 186,-395 193.69,-391.58 201.81,-388.56 210.09,-385.88"/>
<polygon fill="#4a6fa5" stroke="#4a6fa5" points="210.75,-387.87 215.85,-384.08 209.5,-383.86 210.75,-387.87"/>
</g>
<!-- Node0x5574136e08a0 -->
<g id="node13" class="node">
<title>Node0x5574136e08a0</title>
<path fill="#f0f4ff" stroke="black" d="M375.5,-326C375.5,-326 266.5,-326 266.5,-326 260.5,-326 254.5,-320 254.5,-314 254.5,-314 254.5,-302 254.5,-302 254.5,-296 260.5,-290 266.5,-290 266.5,-290 375.5,-290 375.5,-290 381.5,-290 387.5,-296 387.5,-302 387.5,-302 387.5,-314 387.5,-314 387.5,-320 381.5,-326 375.5,-326"/>
<text text-anchor="middle" x="321" y="-305.8" font-family="Courier,monospace" font-size="9.00">CIccProfile::Validate()</text>
</g>
<!-- Node0x557413638c10&#45;&gt;Node0x5574136e08a0 -->
<g id="edge12" class="edge">
<title>Node0x557413638c10&#45;&gt;Node0x5574136e08a0</title>
<path fill="none" stroke="#4a6fa5" d="M74.63,-464C92.3,-432.83 132.99,-369.09 186,-337 204.71,-325.68 227.24,-318.75 248.45,-314.51"/>
<polygon fill="#4a6fa5" stroke="#4a6fa5" points="248.89,-316.57 254.39,-313.39 248.11,-312.44 248.89,-316.57"/>
</g>
<!-- Node0x5574136e0c60 -->
<g id="node14" class="node">
<title>Node0x5574136e0c60</title>
<path fill="#f0f4ff" stroke="black" d="M362.5,-268C362.5,-268 279.5,-268 279.5,-268 273.5,-268 267.5,-262 267.5,-256 267.5,-256 267.5,-244 267.5,-244 267.5,-238 273.5,-232 279.5,-232 279.5,-232 362.5,-232 362.5,-232 368.5,-232 374.5,-238 374.5,-244 374.5,-244 374.5,-256 374.5,-256 374.5,-262 368.5,-268 362.5,-268"/>
<text text-anchor="middle" x="321" y="-247.8" font-family="Courier,monospace" font-size="9.00">SpectralCLUTSafe()</text>
</g>
<!-- Node0x557413638c10&#45;&gt;Node0x5574136e0c60 -->
<g id="edge13" class="edge">
<title>Node0x557413638c10&#45;&gt;Node0x5574136e0c60</title>
<path fill="none" stroke="#4a6fa5" d="M70.27,-463.98C83,-423.85 119.37,-326.89 186,-279 207.74,-263.37 236.25,-255.88 261.37,-252.39"/>
<polygon fill="#4a6fa5" stroke="#4a6fa5" points="261.66,-254.47 267.35,-251.63 261.13,-250.3 261.66,-254.47"/>
</g>
<!-- Node0x5574136df280 -->
<g id="node15" class="node">
<title>Node0x5574136df280</title>
<path fill="#f0f4ff" stroke="black" d="M368,-210C368,-210 274,-210 274,-210 268,-210 262,-204 262,-198 262,-198 262,-186 262,-186 262,-180 268,-174 274,-174 274,-174 368,-174 368,-174 374,-174 380,-180 380,-186 380,-186 380,-198 380,-198 380,-204 374,-210 368,-210"/>
<text text-anchor="middle" x="321" y="-189.8" font-family="Courier,monospace" font-size="9.00">SpectralMatrixSafe()</text>
</g>
<!-- Node0x557413638c10&#45;&gt;Node0x5574136df280 -->
<g id="edge14" class="edge">
<title>Node0x557413638c10&#45;&gt;Node0x5574136df280</title>
<path fill="none" stroke="#4a6fa5" d="M67.79,-463.73C76.13,-415.75 105.47,-285.44 186,-221 205.62,-205.3 231.84,-197.62 255.88,-194.01"/>
<polygon fill="#4a6fa5" stroke="#4a6fa5" points="256.28,-196.07 261.94,-193.18 255.71,-191.91 256.28,-196.07"/>
</g>
<!-- Node0x5574136df500 -->
<g id="node16" class="node">
<title>Node0x5574136df500</title>
<path fill="#f0f4ff" stroke="black" d="M365,-152C365,-152 277,-152 277,-152 271,-152 265,-146 265,-140 265,-140 265,-128 265,-128 265,-122 271,-116 277,-116 277,-116 365,-116 365,-116 371,-116 377,-122 377,-128 377,-128 377,-140 377,-140 377,-146 371,-152 365,-152"/>
<text text-anchor="middle" x="321" y="-131.8" font-family="Courier,monospace" font-size="9.00">IsSpectralElement()</text>
</g>
<!-- Node0x557413638c10&#45;&gt;Node0x5574136df500 -->
<g id="edge15" class="edge">
<title>Node0x557413638c10&#45;&gt;Node0x5574136df500</title>
<path fill="none" stroke="#4a6fa5" d="M66.09,-463.84C70.4,-409.15 91.05,-244.72 186,-163 205.96,-145.82 233.69,-138.07 258.75,-134.82"/>
<polygon fill="#4a6fa5" stroke="#4a6fa5" points="259.01,-136.9 264.72,-134.12 258.52,-132.73 259.01,-136.9"/>
</g>
<!-- Node0x5574136df780 -->
<g id="node17" class="node">
<title>Node0x5574136df780</title>
<path fill="#f0f4ff" stroke="black" d="M420.5,-94C420.5,-94 221.5,-94 221.5,-94 215.5,-94 209.5,-88 209.5,-82 209.5,-82 209.5,-70 209.5,-70 209.5,-64 215.5,-58 221.5,-58 221.5,-58 420.5,-58 420.5,-58 426.5,-58 432.5,-64 432.5,-70 432.5,-70 432.5,-82 432.5,-82 432.5,-88 426.5,-94 420.5,-94"/>
<text text-anchor="middle" x="321" y="-73.8" font-family="Courier,monospace" font-size="9.00">CIccTagMultiProcessElement::GetElement()</text>
</g>
<!-- Node0x557413638c10&#45;&gt;Node0x5574136df780 -->
<g id="edge16" class="edge">
<title>Node0x557413638c10&#45;&gt;Node0x5574136df780</title>
<path fill="none" stroke="#4a6fa5" d="M64.89,-463.73C65.59,-402.72 76.53,-204.29 186,-105 191.37,-100.13 197.36,-96 203.75,-92.52"/>
<polygon fill="#4a6fa5" stroke="#4a6fa5" points="204.81,-94.34 209.2,-89.74 202.9,-90.59 204.81,-94.34"/>
</g>
<!-- Node0x5574136df000 -->
<g id="node18" class="node">
<title>Node0x5574136df000</title>
<path fill="#f0f4ff" stroke="black" d="M423,-36C423,-36 219,-36 219,-36 213,-36 207,-30 207,-24 207,-24 207,-12 207,-12 207,-6 213,0 219,0 219,0 423,0 423,0 429,0 435,-6 435,-12 435,-12 435,-24 435,-24 435,-30 429,-36 423,-36"/>
<text text-anchor="middle" x="321" y="-15.8" font-family="Courier,monospace" font-size="9.00">CIccTagMultiProcessElement::NumElements()</text>
</g>
<!-- Node0x557413638c10&#45;&gt;Node0x5574136df000 -->
<g id="edge17" class="edge">
<title>Node0x557413638c10&#45;&gt;Node0x5574136df000</title>
<path fill="none" stroke="#4a6fa5" d="M67.52,-463.93C78.3,-389.35 122.78,-106.64 186,-47 190.61,-42.65 195.71,-38.89 201.15,-35.65"/>
<polygon fill="#4a6fa5" stroke="#4a6fa5" points="202.47,-37.32 206.7,-32.58 200.43,-33.65 202.47,-37.32"/>
</g>
<!-- Node0x5574136e4b60 -->
<g id="node20" class="node">
<title>Node0x5574136e4b60</title>
<path fill="#f0f4ff" stroke="black" d="M680,-268C680,-268 534,-268 534,-268 528,-268 522,-262 522,-256 522,-256 522,-244 522,-244 522,-238 528,-232 534,-232 534,-232 680,-232 680,-232 686,-232 692,-238 692,-244 692,-244 692,-256 692,-256 692,-262 686,-268 680,-268"/>
<text text-anchor="middle" x="607" y="-247.8" font-family="Courier,monospace" font-size="9.00">CIccMpeSpectralCLUT::GetCLUT()</text>
</g>
<!-- Node0x5574136e0c60&#45;&gt;Node0x5574136e4b60 -->
<g id="edge19" class="edge">
<title>Node0x5574136e0c60&#45;&gt;Node0x5574136e4b60</title>
<path fill="none" stroke="#4a6fa5" d="M374.75,-250C414.21,-250 469.12,-250 515.53,-250"/>
<polygon fill="#4a6fa5" stroke="#4a6fa5" points="515.73,-252.1 521.73,-250 515.73,-247.9 515.73,-252.1"/>
</g>
<!-- Node0x5574136e4de0 -->
<g id="node19" class="node">
<title>Node0x5574136e4de0</title>
<path fill="#f0f4ff" stroke="black" d="M688,-210C688,-210 526,-210 526,-210 520,-210 514,-204 514,-198 514,-198 514,-186 514,-186 514,-180 520,-174 526,-174 526,-174 688,-174 688,-174 694,-174 700,-180 700,-186 700,-186 700,-198 700,-198 700,-204 694,-210 688,-210"/>
<text text-anchor="middle" x="607" y="-189.8" font-family="Courier,monospace" font-size="9.00">CIccMpeSpectralMatrix::GetRange()</text>
</g>
<!-- Node0x5574136df280&#45;&gt;Node0x5574136e4de0 -->
<g id="edge18" class="edge">
<title>Node0x5574136df280&#45;&gt;Node0x5574136e4de0</title>
<path fill="none" stroke="#4a6fa5" d="M380.16,-192C416.81,-192 465.09,-192 507.59,-192"/>
<polygon fill="#4a6fa5" stroke="#4a6fa5" points="507.82,-194.1 513.82,-192 507.82,-189.9 507.82,-194.1"/>
</g>
<!-- Node0x5574136e3b20 -->
<g id="node21" class="node">
<title>Node0x5574136e3b20</title>
<path fill="#f0f4ff" stroke="black" d="M79.5,-558C79.5,-558 48.5,-558 48.5,-558 42.5,-558 36.5,-552 36.5,-546 36.5,-546 36.5,-534 36.5,-534 36.5,-528 42.5,-522 48.5,-522 48.5,-522 79.5,-522 79.5,-522 85.5,-522 91.5,-528 91.5,-534 91.5,-534 91.5,-546 91.5,-546 91.5,-552 85.5,-558 79.5,-558"/>
<text text-anchor="middle" x="64" y="-537.8" font-family="Courier,monospace" font-size="9.00">length()</text>
</g>
<!-- Node0x5574136e0460 -->
<g id="node22" class="node">
<title>Node0x5574136e0460</title>
<path fill="#f0f4ff" stroke="black" d="M100.5,-616C100.5,-616 27.5,-616 27.5,-616 21.5,-616 15.5,-610 15.5,-604 15.5,-604 15.5,-592 15.5,-592 15.5,-586 21.5,-580 27.5,-580 27.5,-580 100.5,-580 100.5,-580 106.5,-580 112.5,-586 112.5,-592 112.5,-592 112.5,-604 112.5,-604 112.5,-610 106.5,-616 100.5,-616"/>
<text text-anchor="middle" x="64" y="-595.8" font-family="Courier,monospace" font-size="9.00">_Guard::_Guard()</text>
</g>
<!-- Node0x5574136e77e0 -->
<g id="node23" class="node">
<title>Node0x5574136e77e0</title>
<path fill="#f0f4ff" stroke="black" d="M103,-674C103,-674 25,-674 25,-674 19,-674 13,-668 13,-662 13,-662 13,-650 13,-650 13,-644 19,-638 25,-638 25,-638 103,-638 103,-638 109,-638 115,-644 115,-650 115,-650 115,-662 115,-662 115,-668 109,-674 103,-674"/>
<text text-anchor="middle" x="64" y="-653.8" font-family="Courier,monospace" font-size="9.00">_Guard::~_Guard()</text>
</g>
</g>
</svg>
