<?xml version="1.0" encoding="UTF-8" standalone="no"?>
<!DOCTYPE svg PUBLIC "-//W3C//DTD SVG 1.1//EN"
 "http://www.w3.org/Graphics/SVG/1.1/DTD/svg11.dtd">
<!-- Generated by graphviz version 2.43.0 (0)
 -->
<!-- Title: Call graph: /home/h02332/po/research/call&#45;graph/cfl/icc_fromcube_fuzzer.ll Pages: 1 -->
<svg width="3105pt" height="14400pt"
 viewBox="0.00 0.00 3105.07 14400.00" xmlns="http://www.w3.org/2000/svg" xmlns:xlink="http://www.w3.org/1999/xlink">
<g id="graph0" class="graph" transform="scale(1.81 1.81) rotate(0) translate(36 7936)">
<title>Call graph: /home/h02332/po/research/call&#45;graph/cfl/icc_fromcube_fuzzer.ll</title>
<polygon fill="white" stroke="transparent" points="-36,36 -36,-7936 1683,-7936 1683,36 -36,36"/>
<!-- Node0x5d9ddab0d880 -->
<g id="node1" class="node">
<title>Node0x5d9ddab0d880</title>
<path fill="#f0f4ff" stroke="black" d="M129,-1336C129,-1336 12,-1336 12,-1336 6,-1336 0,-1330 0,-1324 0,-1324 0,-1312 0,-1312 0,-1306 6,-1300 12,-1300 12,-1300 129,-1300 129,-1300 135,-1300 141,-1306 141,-1312 141,-1312 141,-1324 141,-1324 141,-1330 135,-1336 129,-1336"/>
<text text-anchor="middle" x="70.5" y="-1315.8" font-family="Courier,monospace" font-size="9.00">{LLVMFuzzerTestOneInput}</text>
</g>
<!-- Node0x5d9ddab0c8f0 -->
<g id="node2" class="node">
<title>Node0x5d9ddab0c8f0</title>
<path fill="#f0f4ff" stroke="black" d="M431.5,-3838C431.5,-3838 362.5,-3838 362.5,-3838 356.5,-3838 350.5,-3832 350.5,-3826 350.5,-3826 350.5,-3814 350.5,-3814 350.5,-3808 356.5,-3802 362.5,-3802 362.5,-3802 431.5,-3802 431.5,-3802 437.5,-3802 443.5,-3808 443.5,-3814 443.5,-3814 443.5,-3826 443.5,-3826 443.5,-3832 437.5,-3838 431.5,-3838"/>
<text text-anchor="middle" x="397" y="-3817.8" font-family="Courier,monospace" font-size="9.00">{fuzz_tmpdir()}</text>
</g>
<!-- Node0x5d9ddab0d880&#45;&gt;Node0x5d9ddab0c8f0 -->
<g id="edge1" class="edge">
<title>Node0x5d9ddab0d880&#45;&gt;Node0x5d9ddab0c8f0</title>
<path fill="none" stroke="#4a6fa5" d="M71.36,-1336.15C69.88,-1549.74 60.21,-3580.15 227,-3779 254.95,-3812.32 304.94,-3821.12 343.33,-3822.45"/>
<polygon fill="#4a6fa5" stroke="#4a6fa5" points="343.3,-3824.9 350.36,-3822.62 343.42,-3820 343.3,-3824.9"/>
</g>
<!-- Node0x5d9ddab11670 -->
<g id="node3" class="node">
<title>Node0x5d9ddab11670</title>
<path fill="#f0f4ff" stroke="black" d="M442,-3713C442,-3713 352,-3713 352,-3713 346,-3713 340,-3707 340,-3701 340,-3701 340,-3689 340,-3689 340,-3683 346,-3677 352,-3677 352,-3677 442,-3677 442,-3677 448,-3677 454,-3683 454,-3689 454,-3689 454,-3701 454,-3701 454,-3707 448,-3713 442,-3713"/>
<text text-anchor="middle" x="397" y="-3692.8" font-family="Courier,monospace" font-size="9.00">{fuzz_build_path()}</text>
</g>
<!-- Node0x5d9ddab0d880&#45;&gt;Node0x5d9ddab11670 -->
<g id="edge2" class="edge">
<title>Node0x5d9ddab0d880&#45;&gt;Node0x5d9ddab11670</title>
<path fill="none" stroke="#4a6fa5" d="M71.43,-1336.17C70.79,-1543.81 69.16,-3464.41 227,-3653 252.38,-3683.32 295.93,-3693.62 332.47,-3696.45"/>
<polygon fill="#4a6fa5" stroke="#4a6fa5" points="332.53,-3698.91 339.67,-3696.92 332.85,-3694.02 332.53,-3698.91"/>
</g>
<!-- Node0x5d9ddab11700 -->
<g id="node4" class="node">
<title>Node0x5d9ddab11700</title>
<path fill="#f0f4ff" stroke="black" d="M416,-1856C416,-1856 378,-1856 378,-1856 372,-1856 366,-1850 366,-1844 366,-1844 366,-1832 366,-1832 366,-1826 372,-1820 378,-1820 378,-1820 416,-1820 416,-1820 422,-1820 428,-1826 428,-1832 428,-1832 428,-1844 428,-1844 428,-1850 422,-1856 416,-1856"/>
<text text-anchor="middle" x="397" y="-1835.8" font-family="Courier,monospace" font-size="9.00">{mkstemp}</text>
</g>
<!-- Node0x5d9ddab0d880&#45;&gt;Node0x5d9ddab11700 -->
<g id="edge3" class="edge">
<title>Node0x5d9ddab0d880&#45;&gt;Node0x5d9ddab11700</title>
<path fill="none" stroke="#4a6fa5" d="M71.17,-1336.05C70.92,-1407.91 80.21,-1676.02 227,-1806 263.05,-1837.92 320.74,-1842.33 358.5,-1841.21"/>
<polygon fill="#4a6fa5" stroke="#4a6fa5" points="358.88,-1843.65 365.77,-1840.92 358.68,-1838.75 358.88,-1843.65"/>
</g>
<!-- Node0x5d9ddaa0ee30 -->
<g id="node5" class="node">
<title>Node0x5d9ddaa0ee30</title>
<path fill="#f0f4ff" stroke="black" d="M412,-1791C412,-1791 382,-1791 382,-1791 376,-1791 370,-1785 370,-1779 370,-1779 370,-1767 370,-1767 370,-1761 376,-1755 382,-1755 382,-1755 412,-1755 412,-1755 418,-1755 424,-1761 424,-1767 424,-1767 424,-1779 424,-1779 424,-1785 418,-1791 412,-1791"/>
<text text-anchor="middle" x="397" y="-1770.8" font-family="Courier,monospace" font-size="9.00">{write}</text>
</g>
<!-- Node0x5d9ddab0d880&#45;&gt;Node0x5d9ddaa0ee30 -->
<g id="edge4" class="edge">
<title>Node0x5d9ddab0d880&#45;&gt;Node0x5d9ddaa0ee30</title>
<path fill="none" stroke="#4a6fa5" d="M72.18,-1336.36C75.7,-1402.58 97.15,-1631 227,-1741 265.02,-1773.21 325.29,-1777.02 362.64,-1775.78"/>
<polygon fill="#4a6fa5" stroke="#4a6fa5" points="362.9,-1778.22 369.79,-1775.47 362.69,-1773.32 362.9,-1778.22"/>
</g>
<!-- Node0x5d9ddaa0db40 -->
<g id="node6" class="node">
<title>Node0x5d9ddaa0db40</title>
<path fill="#f0f4ff" stroke="black" d="M412,-1726C412,-1726 382,-1726 382,-1726 376,-1726 370,-1720 370,-1714 370,-1714 370,-1702 370,-1702 370,-1696 376,-1690 382,-1690 382,-1690 412,-1690 412,-1690 418,-1690 424,-1696 424,-1702 424,-1702 424,-1714 424,-1714 424,-1720 418,-1726 412,-1726"/>
<text text-anchor="middle" x="397" y="-1705.8" font-family="Courier,monospace" font-size="9.00">{close}</text>
</g>
<!-- Node0x5d9ddab0d880&#45;&gt;Node0x5d9ddaa0db40 -->
<g id="edge5" class="edge">
<title>Node0x5d9ddab0d880&#45;&gt;Node0x5d9ddaa0db40</title>
<path fill="none" stroke="#4a6fa5" d="M73.48,-1336.02C81.01,-1395.25 113.44,-1585.28 227,-1676 265.82,-1707.02 325.58,-1711.23 362.66,-1710.38"/>
<polygon fill="#4a6fa5" stroke="#4a6fa5" points="362.84,-1712.83 369.75,-1710.15 362.68,-1707.93 362.84,-1712.83"/>
</g>
<!-- Node0x5d9ddaa017b0 -->
<g id="node7" class="node">
<title>Node0x5d9ddaa017b0</title>
<path fill="#f0f4ff" stroke="black" d="M413.5,-1661C413.5,-1661 380.5,-1661 380.5,-1661 374.5,-1661 368.5,-1655 368.5,-1649 368.5,-1649 368.5,-1637 368.5,-1637 368.5,-1631 374.5,-1625 380.5,-1625 380.5,-1625 413.5,-1625 413.5,-1625 419.5,-1625 425.5,-1631 425.5,-1637 425.5,-1637 425.5,-1649 425.5,-1649 425.5,-1655 419.5,-1661 413.5,-1661"/>
<text text-anchor="middle" x="397" y="-1640.8" font-family="Courier,monospace" font-size="9.00">{unlink}</text>
</g>
<!-- Node0x5d9ddab0d880&#45;&gt;Node0x5d9ddaa017b0 -->
<g id="edge6" class="edge">
<title>Node0x5d9ddab0d880&#45;&gt;Node0x5d9ddaa017b0</title>
<path fill="none" stroke="#4a6fa5" d="M75.33,-1336.03C87.37,-1388.06 129.64,-1539.26 227,-1611 266.33,-1639.98 324.41,-1644.99 361.21,-1644.83"/>
<polygon fill="#4a6fa5" stroke="#4a6fa5" points="361.31,-1647.28 368.28,-1644.73 361.24,-1642.38 361.31,-1647.28"/>
</g>
<!-- Node0x5d9dda9ff930 -->
<g id="node8" class="node">
<title>Node0x5d9dda9ff930</title>
<path fill="#f0f4ff" stroke="black" d="M902.5,-3651C902.5,-3651 796.5,-3651 796.5,-3651 790.5,-3651 784.5,-3645 784.5,-3639 784.5,-3639 784.5,-3627 784.5,-3627 784.5,-3621 790.5,-3615 796.5,-3615 796.5,-3615 902.5,-3615 902.5,-3615 908.5,-3615 914.5,-3621 914.5,-3627 914.5,-3627 914.5,-3639 914.5,-3639 914.5,-3645 908.5,-3651 902.5,-3651"/>
<text text-anchor="middle" x="849.5" y="-3630.8" font-family="Courier,monospace" font-size="9.00">{CubeFile::CubeFile()}</text>
</g>
<!-- Node0x5d9ddab0d880&#45;&gt;Node0x5d9dda9ff930 -->
<g id="edge7" class="edge">
<title>Node0x5d9ddab0d880&#45;&gt;Node0x5d9dda9ff930</title>
<path fill="none" stroke="#4a6fa5" d="M72.06,-1336.25C78.63,-1546.73 142.06,-3508.4 227,-3593 302.52,-3668.22 630.39,-3651.3 777.09,-3639.55"/>
<polygon fill="#4a6fa5" stroke="#4a6fa5" points="777.58,-3641.97 784.36,-3638.96 777.19,-3637.09 777.58,-3641.97"/>
</g>
<!-- Node0x5d9dda9d9190 -->
<g id="node9" class="node">
<title>Node0x5d9dda9d9190</title>
<path fill="#f0f4ff" stroke="black" d="M458,-2687C458,-2687 336,-2687 336,-2687 330,-2687 324,-2681 324,-2675 324,-2675 324,-2663 324,-2663 324,-2657 330,-2651 336,-2651 336,-2651 458,-2651 458,-2651 464,-2651 470,-2657 470,-2663 470,-2663 470,-2675 470,-2675 470,-2681 464,-2687 458,-2687"/>
<text text-anchor="middle" x="397" y="-2666.8" font-family="Courier,monospace" font-size="9.00">{CubeFile::parseHeader()}</text>
</g>
<!-- Node0x5d9ddab0d880&#45;&gt;Node0x5d9dda9d9190 -->
<g id="edge8" class="edge">
<title>Node0x5d9ddab0d880&#45;&gt;Node0x5d9dda9d9190</title>
<path fill="none" stroke="#4a6fa5" d="M72.66,-1336.24C79.31,-1434.93 116.22,-1914.36 227,-2288 268.59,-2428.28 349.92,-2584.66 382.26,-2644.18"/>
<polygon fill="#4a6fa5" stroke="#4a6fa5" points="380.27,-2645.66 385.78,-2650.63 384.57,-2643.31 380.27,-2645.66"/>
</g>
<!-- Node0x5d9ddab1d770 -->
<g id="node10" class="node">
<title>Node0x5d9ddab1d770</title>
<path fill="#f0f4ff" stroke="black" d="M452.5,-1980C452.5,-1980 341.5,-1980 341.5,-1980 335.5,-1980 329.5,-1974 329.5,-1968 329.5,-1968 329.5,-1956 329.5,-1956 329.5,-1950 335.5,-1944 341.5,-1944 341.5,-1944 452.5,-1944 452.5,-1944 458.5,-1944 464.5,-1950 464.5,-1956 464.5,-1956 464.5,-1968 464.5,-1968 464.5,-1974 458.5,-1980 452.5,-1980"/>
<text text-anchor="middle" x="397" y="-1959.8" font-family="Courier,monospace" font-size="9.00">{CubeFile::~CubeFile()}</text>
</g>
<!-- Node0x5d9ddab0d880&#45;&gt;Node0x5d9ddab1d770 -->
<g id="edge9" class="edge">
<title>Node0x5d9ddab0d880&#45;&gt;Node0x5d9ddab1d770</title>
<path fill="none" stroke="#4a6fa5" d="M73.66,-1336.18C84.85,-1427.6 139.25,-1835.95 227,-1922 252.02,-1946.54 289.16,-1957.04 322.26,-1961.19"/>
<polygon fill="#4a6fa5" stroke="#4a6fa5" points="322.02,-1963.63 329.25,-1961.98 322.57,-1958.76 322.02,-1963.63"/>
</g>
<!-- Node0x5d9ddaa793d0 -->
<g id="node11" class="node">
<title>Node0x5d9ddaa793d0</title>
<path fill="#f0f4ff" stroke="black" d="M452.5,-1596C452.5,-1596 341.5,-1596 341.5,-1596 335.5,-1596 329.5,-1590 329.5,-1584 329.5,-1584 329.5,-1572 329.5,-1572 329.5,-1566 335.5,-1560 341.5,-1560 341.5,-1560 452.5,-1560 452.5,-1560 458.5,-1560 464.5,-1566 464.5,-1572 464.5,-1572 464.5,-1584 464.5,-1584 464.5,-1590 458.5,-1596 452.5,-1596"/>
<text text-anchor="middle" x="397" y="-1575.8" font-family="Courier,monospace" font-size="9.00">{CubeFile::sizeLut3D()}</text>
</g>
<!-- Node0x5d9ddab0d880&#45;&gt;Node0x5d9ddaa793d0 -->
<g id="edge10" class="edge">
<title>Node0x5d9ddab0d880&#45;&gt;Node0x5d9ddaa793d0</title>
<path fill="none" stroke="#4a6fa5" d="M78.14,-1336.1C95.28,-1380.02 145.43,-1492.59 227,-1546 254.99,-1564.32 290.84,-1572.74 322.32,-1576.41"/>
<polygon fill="#4a6fa5" stroke="#4a6fa5" points="322.16,-1578.85 329.38,-1577.16 322.68,-1573.98 322.16,-1578.85"/>
</g>
<!-- Node0x5d9ddab1dc70 -->
<g id="node12" class="node">
<title>Node0x5d9ddab1dc70</title>
<path fill="#f0f4ff" stroke="black" d="M468.5,-1531C468.5,-1531 325.5,-1531 325.5,-1531 319.5,-1531 313.5,-1525 313.5,-1519 313.5,-1519 313.5,-1507 313.5,-1507 313.5,-1501 319.5,-1495 325.5,-1495 325.5,-1495 468.5,-1495 468.5,-1495 474.5,-1495 480.5,-1501 480.5,-1507 480.5,-1507 480.5,-1519 480.5,-1519 480.5,-1525 474.5,-1531 468.5,-1531"/>
<text text-anchor="middle" x="397" y="-1510.8" font-family="Courier,monospace" font-size="9.00">{CIccProfile::~CIccProfile()}</text>
</g>
<!-- Node0x5d9ddab0d880&#45;&gt;Node0x5d9ddab1dc70 -->
<g id="edge11" class="edge">
<title>Node0x5d9ddab0d880&#45;&gt;Node0x5d9ddab1dc70</title>
<path fill="none" stroke="#4a6fa5" d="M83.07,-1336.2C105.98,-1370.61 160.69,-1444.94 227,-1481 251.08,-1494.09 279.62,-1501.91 306.33,-1506.56"/>
<polygon fill="#4a6fa5" stroke="#4a6fa5" points="306.14,-1509.01 313.44,-1507.73 306.93,-1504.17 306.14,-1509.01"/>
</g>
<!-- Node0x5d9ddab1bd60 -->
<g id="node13" class="node">
<title>Node0x5d9ddab1bd60</title>
<path fill="#f0f4ff" stroke="black" d="M1460.5,-3521C1460.5,-3521 1175.5,-3521 1175.5,-3521 1169.5,-3521 1163.5,-3515 1163.5,-3509 1163.5,-3509 1163.5,-3497 1163.5,-3497 1163.5,-3491 1169.5,-3485 1175.5,-3485 1175.5,-3485 1460.5,-3485 1460.5,-3485 1466.5,-3485 1472.5,-3491 1472.5,-3497 1472.5,-3497 1472.5,-3509 1472.5,-3509 1472.5,-3515 1466.5,-3521 1460.5,-3521"/>
<text text-anchor="middle" x="1318" y="-3500.8" font-family="Courier,monospace" font-size="9.00">{basic_string&lt;char, std::char_traits &gt;::~basic_string()}</text>
</g>
<!-- Node0x5d9ddab0d880&#45;&gt;Node0x5d9ddab1bd60 -->
<g id="edge12" class="edge">
<title>Node0x5d9ddab0d880&#45;&gt;Node0x5d9ddab1bd60</title>
<path fill="none" stroke="#4a6fa5" d="M71.87,-1336.14C75.88,-1525.04 113.14,-3128.74 227,-3303 433.68,-3619.3 668.66,-3550.44 1046,-3531 1083.8,-3529.05 1124.44,-3525.59 1162.47,-3521.74"/>
<polygon fill="#4a6fa5" stroke="#4a6fa5" points="1162.82,-3524.17 1169.53,-3521.02 1162.32,-3519.29 1162.82,-3524.17"/>
</g>
<!-- Node0x5d9ddaa297e0 -->
<g id="node14" class="node">
<title>Node0x5d9ddaa297e0</title>
<path fill="#f0f4ff" stroke="black" d="M466,-1466C466,-1466 328,-1466 328,-1466 322,-1466 316,-1460 316,-1454 316,-1454 316,-1442 316,-1442 316,-1436 322,-1430 328,-1430 328,-1430 466,-1430 466,-1430 472,-1430 478,-1436 478,-1442 478,-1442 478,-1454 478,-1454 478,-1460 472,-1466 466,-1466"/>
<text text-anchor="middle" x="397" y="-1445.8" font-family="Courier,monospace" font-size="9.00">{CIccProfile::CIccProfile()}</text>
</g>
<!-- Node0x5d9ddab0d880&#45;&gt;Node0x5d9ddaa297e0 -->
<g id="edge13" class="edge">
<title>Node0x5d9ddab0d880&#45;&gt;Node0x5d9ddaa297e0</title>
<path fill="none" stroke="#4a6fa5" d="M94.24,-1336.24C123.29,-1358.58 175.92,-1395.91 227,-1416 252.64,-1426.08 281.74,-1433.06 308.49,-1437.85"/>
<polygon fill="#4a6fa5" stroke="#4a6fa5" points="308.29,-1440.3 315.6,-1439.08 309.12,-1435.47 308.29,-1440.3"/>
</g>
<!-- Node0x5d9ddaa15990 -->
<g id="node15" class="node">
<title>Node0x5d9ddaa15990</title>
<path fill="#f0f4ff" stroke="black" d="M463,-1401C463,-1401 331,-1401 331,-1401 325,-1401 319,-1395 319,-1389 319,-1389 319,-1377 319,-1377 319,-1371 325,-1365 331,-1365 331,-1365 463,-1365 463,-1365 469,-1365 475,-1371 475,-1377 475,-1377 475,-1389 475,-1389 475,-1395 469,-1401 463,-1401"/>
<text text-anchor="middle" x="397" y="-1380.8" font-family="Courier,monospace" font-size="9.00">{CIccProfile::InitHeader()}</text>
</g>
<!-- Node0x5d9ddab0d880&#45;&gt;Node0x5d9ddaa15990 -->
<g id="edge14" class="edge">
<title>Node0x5d9ddab0d880&#45;&gt;Node0x5d9ddaa15990</title>
<path fill="none" stroke="#4a6fa5" d="M141.1,-1333.11C167.92,-1338.85 198.86,-1345.35 227,-1351 254.55,-1356.53 284.68,-1362.32 311.77,-1367.43"/>
<polygon fill="#4a6fa5" stroke="#4a6fa5" points="311.62,-1369.89 318.95,-1368.78 312.53,-1365.08 311.62,-1369.89"/>
</g>
<!-- Node0x5d9dda9dbc10 -->
<g id="node16" class="node">
<title>Node0x5d9dda9dbc10</title>
<path fill="#f0f4ff" stroke="black" d="M412,-1336C412,-1336 382,-1336 382,-1336 376,-1336 370,-1330 370,-1324 370,-1324 370,-1312 370,-1312 370,-1306 376,-1300 382,-1300 382,-1300 412,-1300 412,-1300 418,-1300 424,-1306 424,-1312 424,-1312 424,-1324 424,-1324 424,-1330 418,-1336 412,-1336"/>
<text text-anchor="middle" x="397" y="-1315.8" font-family="Courier,monospace" font-size="9.00">{new()}</text>
</g>
<!-- Node0x5d9ddab0d880&#45;&gt;Node0x5d9dda9dbc10 -->
<g id="edge15" class="edge">
<title>Node0x5d9ddab0d880&#45;&gt;Node0x5d9dda9dbc10</title>
<path fill="none" stroke="#4a6fa5" d="M141.11,-1318C209.45,-1318 310.76,-1318 362.68,-1318"/>
<polygon fill="#4a6fa5" stroke="#4a6fa5" points="362.97,-1320.45 369.97,-1318 362.97,-1315.55 362.97,-1320.45"/>
</g>
<!-- Node0x5d9ddab179f0 -->
<g id="node17" class="node">
<title>Node0x5d9ddab179f0</title>
<path fill="#f0f4ff" stroke="black" d="M544.5,-1271C544.5,-1271 249.5,-1271 249.5,-1271 243.5,-1271 237.5,-1265 237.5,-1259 237.5,-1259 237.5,-1247 237.5,-1247 237.5,-1241 243.5,-1235 249.5,-1235 249.5,-1235 544.5,-1235 544.5,-1235 550.5,-1235 556.5,-1241 556.5,-1247 556.5,-1247 556.5,-1259 556.5,-1259 556.5,-1265 550.5,-1271 544.5,-1271"/>
<text text-anchor="middle" x="397" y="-1250.8" font-family="Courier,monospace" font-size="9.00">{CIccTagMultiProcessElement::CIccTagMultiProcessElement()}</text>
</g>
<!-- Node0x5d9ddab0d880&#45;&gt;Node0x5d9ddab179f0 -->
<g id="edge16" class="edge">
<title>Node0x5d9ddab0d880&#45;&gt;Node0x5d9ddab179f0</title>
<path fill="none" stroke="#4a6fa5" d="M141.14,-1303.51C167.96,-1297.97 198.89,-1291.64 227,-1286 249.18,-1281.55 273.01,-1276.85 295.59,-1272.43"/>
<polygon fill="#4a6fa5" stroke="#4a6fa5" points="296.15,-1274.82 302.55,-1271.07 295.21,-1270.01 296.15,-1274.82"/>
</g>
<!-- Node0x5d9ddab1b8e0 -->
<g id="node18" class="node">
<title>Node0x5d9ddab1b8e0</title>
<path fill="#f0f4ff" stroke="black" d="M439.5,-1206C439.5,-1206 354.5,-1206 354.5,-1206 348.5,-1206 342.5,-1200 342.5,-1194 342.5,-1194 342.5,-1182 342.5,-1182 342.5,-1176 348.5,-1170 354.5,-1170 354.5,-1170 439.5,-1170 439.5,-1170 445.5,-1170 451.5,-1176 451.5,-1182 451.5,-1182 451.5,-1194 451.5,-1194 451.5,-1200 445.5,-1206 439.5,-1206"/>
<text text-anchor="middle" x="397" y="-1185.8" font-family="Courier,monospace" font-size="9.00">{SaveIccProfile()}</text>
</g>
<!-- Node0x5d9ddab0d880&#45;&gt;Node0x5d9ddab1b8e0 -->
<g id="edge17" class="edge">
<title>Node0x5d9ddab0d880&#45;&gt;Node0x5d9ddab1b8e0</title>
<path fill="none" stroke="#4a6fa5" d="M94.55,-1299.81C123.7,-1277.74 176.23,-1241 227,-1221 261.52,-1207.4 302.29,-1199.23 335.14,-1194.42"/>
<polygon fill="#4a6fa5" stroke="#4a6fa5" points="335.86,-1196.79 342.45,-1193.39 335.18,-1191.94 335.86,-1196.79"/>
</g>
<!-- Node0x5d9dda9d9450 -->
<g id="node19" class="node">
<title>Node0x5d9dda9d9450</title>
<path fill="#f0f4ff" stroke="black" d="M418.5,-1141C418.5,-1141 375.5,-1141 375.5,-1141 369.5,-1141 363.5,-1135 363.5,-1129 363.5,-1129 363.5,-1117 363.5,-1117 363.5,-1111 369.5,-1105 375.5,-1105 375.5,-1105 418.5,-1105 418.5,-1105 424.5,-1105 430.5,-1111 430.5,-1117 430.5,-1117 430.5,-1129 430.5,-1129 430.5,-1135 424.5,-1141 418.5,-1141"/>
<text text-anchor="middle" x="397" y="-1120.8" font-family="Courier,monospace" font-size="9.00">{delete()}</text>
</g>
<!-- Node0x5d9ddab0d880&#45;&gt;Node0x5d9dda9d9450 -->
<g id="edge18" class="edge">
<title>Node0x5d9ddab0d880&#45;&gt;Node0x5d9dda9d9450</title>
<path fill="none" stroke="#4a6fa5" d="M83.12,-1299.94C106.11,-1265.81 160.95,-1192.03 227,-1156 267.3,-1134.02 320.07,-1126.53 355.84,-1124.06"/>
<polygon fill="#4a6fa5" stroke="#4a6fa5" points="356.37,-1126.48 363.21,-1123.61 356.07,-1121.59 356.37,-1126.48"/>
</g>
<!-- Node0x5d9dda9d9920 -->
<g id="node20" class="node">
<title>Node0x5d9dda9d9920</title>
<path fill="#f0f4ff" stroke="black" d="M476.5,-1076C476.5,-1076 317.5,-1076 317.5,-1076 311.5,-1076 305.5,-1070 305.5,-1064 305.5,-1064 305.5,-1052 305.5,-1052 305.5,-1046 311.5,-1040 317.5,-1040 317.5,-1040 476.5,-1040 476.5,-1040 482.5,-1040 488.5,-1046 488.5,-1052 488.5,-1052 488.5,-1064 488.5,-1064 488.5,-1070 482.5,-1076 476.5,-1076"/>
<text text-anchor="middle" x="397" y="-1055.8" font-family="Courier,monospace" font-size="9.00">{CubeFile::isCustomInputRange()}</text>
</g>
<!-- Node0x5d9ddab0d880&#45;&gt;Node0x5d9dda9d9920 -->
<g id="edge19" class="edge">
<title>Node0x5d9ddab0d880&#45;&gt;Node0x5d9dda9d9920</title>
<path fill="none" stroke="#4a6fa5" d="M78.32,-1299.69C95.67,-1255.79 145.97,-1144.27 227,-1091 248.01,-1077.19 273.45,-1068.89 298.15,-1063.98"/>
<polygon fill="#4a6fa5" stroke="#4a6fa5" points="298.66,-1066.37 305.09,-1062.68 297.76,-1061.56 298.66,-1066.37"/>
</g>
<!-- Node0x5d9dda9dc2d0 -->
<g id="node21" class="node">
<title>Node0x5d9dda9dc2d0</title>
<path fill="#f0f4ff" stroke="black" d="M458,-1011C458,-1011 336,-1011 336,-1011 330,-1011 324,-1005 324,-999 324,-999 324,-987 324,-987 324,-981 330,-975 336,-975 336,-975 458,-975 458,-975 464,-975 470,-981 470,-987 470,-987 470,-999 470,-999 470,-1005 464,-1011 458,-1011"/>
<text text-anchor="middle" x="397" y="-990.8" font-family="Courier,monospace" font-size="9.00">{CubeFile::getMinInput()}</text>
</g>
<!-- Node0x5d9ddab0d880&#45;&gt;Node0x5d9dda9dc2d0 -->
<g id="edge20" class="edge">
<title>Node0x5d9ddab0d880&#45;&gt;Node0x5d9dda9dc2d0</title>
<path fill="none" stroke="#4a6fa5" d="M75.45,-1299.68C87.72,-1247.56 130.28,-1097.58 227,-1026 252.58,-1007.07 286.12,-998.17 316.56,-994.24"/>
<polygon fill="#4a6fa5" stroke="#4a6fa5" points="317.15,-996.64 323.82,-993.39 316.58,-991.77 317.15,-996.64"/>
</g>
<!-- Node0x5d9dda9dbb90 -->
<g id="node22" class="node">
<title>Node0x5d9dda9dbb90</title>
<path fill="#f0f4ff" stroke="black" d="M905,-3775C905,-3775 794,-3775 794,-3775 788,-3775 782,-3769 782,-3763 782,-3763 782,-3751 782,-3751 782,-3745 788,-3739 794,-3739 794,-3739 905,-3739 905,-3739 911,-3739 917,-3745 917,-3751 917,-3751 917,-3763 917,-3763 917,-3769 911,-3775 905,-3775"/>
<text text-anchor="middle" x="849.5" y="-3754.8" font-family="Courier,monospace" font-size="9.00">{llvm.memcpy.p0.p0.i64}</text>
</g>
<!-- Node0x5d9ddab0d880&#45;&gt;Node0x5d9dda9dbb90 -->
<g id="edge21" class="edge">
<title>Node0x5d9ddab0d880&#45;&gt;Node0x5d9dda9dbb90</title>
<path fill="none" stroke="#4a6fa5" d="M71.99,-1336.32C77.85,-1553.94 136.29,-3638.89 227,-3728 302.49,-3802.16 626.52,-3779.79 774.4,-3765.21"/>
<polygon fill="#4a6fa5" stroke="#4a6fa5" points="775.01,-3767.61 781.73,-3764.47 774.52,-3762.73 775.01,-3767.61"/>
</g>
<!-- Node0x5d9ddab18890 -->
<g id="node23" class="node">
<title>Node0x5d9ddab18890</title>
<path fill="#f0f4ff" stroke="black" d="M458,-946C458,-946 336,-946 336,-946 330,-946 324,-940 324,-934 324,-934 324,-922 324,-922 324,-916 330,-910 336,-910 336,-910 458,-910 458,-910 464,-910 470,-916 470,-922 470,-922 470,-934 470,-934 470,-940 464,-946 458,-946"/>
<text text-anchor="middle" x="397" y="-925.8" font-family="Courier,monospace" font-size="9.00">{CubeFile::getMaxInput()}</text>
</g>
<!-- Node0x5d9ddab0d880&#45;&gt;Node0x5d9ddab18890 -->
<g id="edge22" class="edge">
<title>Node0x5d9ddab0d880&#45;&gt;Node0x5d9ddab18890</title>
<path fill="none" stroke="#4a6fa5" d="M73.57,-1299.64C81.32,-1240.19 114.18,-1051.57 227,-961 252.04,-940.9 285.81,-931.86 316.58,-928.13"/>
<polygon fill="#4a6fa5" stroke="#4a6fa5" points="317.22,-930.53 323.91,-927.34 316.69,-925.66 317.22,-930.53"/>
</g>
<!-- Node0x5d9dda9dd410 -->
<g id="node24" class="node">
<title>Node0x5d9dda9dd410</title>
<path fill="#f0f4ff" stroke="black" d="M460.5,-881C460.5,-881 333.5,-881 333.5,-881 327.5,-881 321.5,-875 321.5,-869 321.5,-869 321.5,-857 321.5,-857 321.5,-851 327.5,-845 333.5,-845 333.5,-845 460.5,-845 460.5,-845 466.5,-845 472.5,-851 472.5,-857 472.5,-857 472.5,-869 472.5,-869 472.5,-875 466.5,-881 460.5,-881"/>
<text text-anchor="middle" x="397" y="-860.8" font-family="Courier,monospace" font-size="9.00">{CIccProfile::AttachTag()}</text>
</g>
<!-- Node0x5d9ddab0d880&#45;&gt;Node0x5d9dda9dd410 -->
<g id="edge23" class="edge">
<title>Node0x5d9ddab0d880&#45;&gt;Node0x5d9dda9dd410</title>
<path fill="none" stroke="#4a6fa5" d="M72.22,-1299.71C75.86,-1233.73 97.69,-1006.09 227,-896 250.92,-875.64 283.67,-866.43 313.98,-862.65"/>
<polygon fill="#4a6fa5" stroke="#4a6fa5" points="314.53,-865.06 321.22,-861.85 313.99,-860.19 314.53,-865.06"/>
</g>
<!-- Node0x5d9ddab1cff0 -->
<g id="node25" class="node">
<title>Node0x5d9ddab1cff0</title>
<path fill="#f0f4ff" stroke="black" d="M500,-816C500,-816 294,-816 294,-816 288,-816 282,-810 282,-804 282,-804 282,-792 282,-792 282,-786 288,-780 294,-780 294,-780 500,-780 500,-780 506,-780 512,-786 512,-792 512,-792 512,-804 512,-804 512,-810 506,-816 500,-816"/>
<text text-anchor="middle" x="397" y="-795.8" font-family="Courier,monospace" font-size="9.00">{CIccTagMultiLocalizedUnicode::SetText()}</text>
</g>
<!-- Node0x5d9ddab0d880&#45;&gt;Node0x5d9ddab1cff0 -->
<g id="edge24" class="edge">
<title>Node0x5d9ddab0d880&#45;&gt;Node0x5d9ddab1cff0</title>
<path fill="none" stroke="#4a6fa5" d="M71.21,-1299.52C71.14,-1227.17 81.14,-960.82 227,-831 240.6,-818.89 257.3,-810.68 274.85,-805.19"/>
<polygon fill="#4a6fa5" stroke="#4a6fa5" points="275.84,-807.46 281.88,-803.15 274.47,-802.75 275.84,-807.46"/>
</g>
<!-- Node0x5d9ddab18720 -->
<g id="node26" class="node">
<title>Node0x5d9ddab18720</title>
<path fill="#f0f4ff" stroke="black" d="M487,-751C487,-751 307,-751 307,-751 301,-751 295,-745 295,-739 295,-739 295,-727 295,-727 295,-721 301,-715 307,-715 307,-715 487,-715 487,-715 493,-715 499,-721 499,-727 499,-727 499,-739 499,-739 499,-745 493,-751 487,-751"/>
<text text-anchor="middle" x="397" y="-730.8" font-family="Courier,monospace" font-size="9.00">{CIccMpeCurveSet::CIccMpeCurveSet()}</text>
</g>
<!-- Node0x5d9ddab0d880&#45;&gt;Node0x5d9ddab18720 -->
<g id="edge25" class="edge">
<title>Node0x5d9ddab0d880&#45;&gt;Node0x5d9ddab18720</title>
<path fill="none" stroke="#4a6fa5" d="M74.04,-1299.89C86.55,-1213.25 144.35,-842.15 227,-766 243.74,-750.58 265.46,-741.41 287.73,-736.14"/>
<polygon fill="#4a6fa5" stroke="#4a6fa5" points="288.34,-738.52 294.65,-734.63 287.29,-733.73 288.34,-738.52"/>
</g>
<!-- Node0x5d9dda9dd8e0 -->
<g id="node27" class="node">
<title>Node0x5d9dda9dd8e0</title>
<path fill="#f0f4ff" stroke="black" d="M1439.5,-2110C1439.5,-2110 1196.5,-2110 1196.5,-2110 1190.5,-2110 1184.5,-2104 1184.5,-2098 1184.5,-2098 1184.5,-2086 1184.5,-2086 1184.5,-2080 1190.5,-2074 1196.5,-2074 1196.5,-2074 1439.5,-2074 1439.5,-2074 1445.5,-2074 1451.5,-2080 1451.5,-2086 1451.5,-2086 1451.5,-2098 1451.5,-2098 1451.5,-2104 1445.5,-2110 1439.5,-2110"/>
<text text-anchor="middle" x="1318" y="-2089.8" font-family="Courier,monospace" font-size="9.00">{basic_string&lt;char, std::char_traits &gt;::c_str()}</text>
</g>
<!-- Node0x5d9ddab0d880&#45;&gt;Node0x5d9dda9dd8e0 -->
<g id="edge26" class="edge">
<title>Node0x5d9ddab0d880&#45;&gt;Node0x5d9dda9dd8e0</title>
<path fill="none" stroke="#4a6fa5" d="M72.47,-1336.04C78.42,-1438.89 113.45,-1950.11 227,-2046 297.91,-2105.88 899.25,-2101.03 1177.18,-2095.47"/>
<polygon fill="#4a6fa5" stroke="#4a6fa5" points="1177.54,-2097.91 1184.49,-2095.32 1177.44,-2093.01 1177.54,-2097.91"/>
</g>
<!-- Node0x5d9ddab1cd70 -->
<g id="node28" class="node">
<title>Node0x5d9ddab1cd70</title>
<path fill="#f0f4ff" stroke="black" d="M489.5,-621C489.5,-621 304.5,-621 304.5,-621 298.5,-621 292.5,-615 292.5,-609 292.5,-609 292.5,-597 292.5,-597 292.5,-591 298.5,-585 304.5,-585 304.5,-585 489.5,-585 489.5,-585 495.5,-585 501.5,-591 501.5,-597 501.5,-597 501.5,-609 501.5,-609 501.5,-615 495.5,-621 489.5,-621"/>
<text text-anchor="middle" x="397" y="-600.8" font-family="Courier,monospace" font-size="9.00">{CubeFile::getCopyright[abi:cxx11]()}</text>
</g>
<!-- Node0x5d9ddab0d880&#45;&gt;Node0x5d9ddab1cd70 -->
<g id="edge27" class="edge">
<title>Node0x5d9ddab0d880&#45;&gt;Node0x5d9ddab1cd70</title>
<path fill="none" stroke="#4a6fa5" d="M73.02,-1299.75C81.61,-1201.12 127.26,-732.67 227,-636 242.88,-620.61 263.7,-611.35 285.28,-605.98"/>
<polygon fill="#4a6fa5" stroke="#4a6fa5" points="286.03,-608.32 292.31,-604.37 284.94,-603.54 286.03,-608.32"/>
</g>
<!-- Node0x5d9ddab1b4f0 -->
<g id="node29" class="node">
<title>Node0x5d9ddab1b4f0</title>
<path fill="#f0f4ff" stroke="black" d="M555,-556C555,-556 239,-556 239,-556 233,-556 227,-550 227,-544 227,-544 227,-532 227,-532 227,-526 233,-520 239,-520 239,-520 555,-520 555,-520 561,-520 567,-526 567,-532 567,-532 567,-544 567,-544 567,-550 561,-556 555,-556"/>
<text text-anchor="middle" x="397" y="-535.8" font-family="Courier,monospace" font-size="9.00">{CIccTagMultiLocalizedUnicode::CIccTagMultiLocalizedUnicode()}</text>
</g>
<!-- Node0x5d9ddab0d880&#45;&gt;Node0x5d9ddab1b4f0 -->
<g id="edge28" class="edge">
<title>Node0x5d9ddab0d880&#45;&gt;Node0x5d9ddab1b4f0</title>
<path fill="none" stroke="#4a6fa5" d="M72.63,-1299.76C79.47,-1195.72 118.62,-678.05 227,-571 231.11,-566.94 235.57,-563.3 240.29,-560.05"/>
<polygon fill="#4a6fa5" stroke="#4a6fa5" points="241.84,-561.97 246.41,-556.13 239.19,-557.84 241.84,-561.97"/>
</g>
<!-- Node0x5d9dda9dc250 -->
<g id="node30" class="node">
<title>Node0x5d9dda9dc250</title>
<path fill="#f0f4ff" stroke="black" d="M523.5,-491C523.5,-491 270.5,-491 270.5,-491 264.5,-491 258.5,-485 258.5,-479 258.5,-479 258.5,-467 258.5,-467 258.5,-461 264.5,-455 270.5,-455 270.5,-455 523.5,-455 523.5,-455 529.5,-455 535.5,-461 535.5,-467 535.5,-467 535.5,-479 535.5,-479 535.5,-485 529.5,-491 523.5,-491"/>
<text text-anchor="middle" x="397" y="-470.8" font-family="Courier,monospace" font-size="9.00">{CIccSingleSampledCurve::CIccSingleSampledCurve()}</text>
</g>
<!-- Node0x5d9ddab0d880&#45;&gt;Node0x5d9dda9dc250 -->
<g id="edge29" class="edge">
<title>Node0x5d9ddab0d880&#45;&gt;Node0x5d9dda9dc250</title>
<path fill="none" stroke="#4a6fa5" d="M72.29,-1299.99C77.46,-1191.31 109.86,-623.56 227,-506 234.29,-498.69 242.68,-492.75 251.75,-487.94"/>
<polygon fill="#4a6fa5" stroke="#4a6fa5" points="252.94,-490.09 258.14,-484.79 250.78,-485.69 252.94,-490.09"/>
</g>
<!-- Node0x5d9ddab1a830 -->
<g id="node31" class="node">
<title>Node0x5d9ddab1a830</title>
<path fill="#f0f4ff" stroke="black" d="M1436.5,-2540C1436.5,-2540 1199.5,-2540 1199.5,-2540 1193.5,-2540 1187.5,-2534 1187.5,-2528 1187.5,-2528 1187.5,-2516 1187.5,-2516 1187.5,-2510 1193.5,-2504 1199.5,-2504 1199.5,-2504 1436.5,-2504 1436.5,-2504 1442.5,-2504 1448.5,-2510 1448.5,-2516 1448.5,-2516 1448.5,-2528 1448.5,-2528 1448.5,-2534 1442.5,-2540 1436.5,-2540"/>
<text text-anchor="middle" x="1318" y="-2519.8" font-family="Courier,monospace" font-size="9.00">{basic_string&lt;char, std::char_traits &gt;::size()}</text>
</g>
<!-- Node0x5d9ddab0d880&#45;&gt;Node0x5d9ddab1a830 -->
<g id="edge30" class="edge">
<title>Node0x5d9ddab0d880&#45;&gt;Node0x5d9ddab1a830</title>
<path fill="none" stroke="#4a6fa5" d="M72.75,-1336.29C80.31,-1441.84 123.14,-1972.47 227,-2091 479.05,-2378.63 697.1,-2198.36 1046,-2355 1138.59,-2396.57 1237.8,-2464.44 1286.48,-2499.48"/>
<polygon fill="#4a6fa5" stroke="#4a6fa5" points="1285.34,-2501.68 1292.45,-2503.79 1288.21,-2497.71 1285.34,-2501.68"/>
</g>
<!-- Node0x5d9dda9ddb10 -->
<g id="node32" class="node">
<title>Node0x5d9dda9ddb10</title>
<path fill="#f0f4ff" stroke="black" d="M494.5,-686C494.5,-686 299.5,-686 299.5,-686 293.5,-686 287.5,-680 287.5,-674 287.5,-674 287.5,-662 287.5,-662 287.5,-656 293.5,-650 299.5,-650 299.5,-650 494.5,-650 494.5,-650 500.5,-650 506.5,-656 506.5,-662 506.5,-662 506.5,-674 506.5,-674 506.5,-680 500.5,-686 494.5,-686"/>
<text text-anchor="middle" x="397" y="-665.8" font-family="Courier,monospace" font-size="9.00">{CubeFile::getDescription[abi:cxx11]()}</text>
</g>
<!-- Node0x5d9ddab0d880&#45;&gt;Node0x5d9dda9ddb10 -->
<g id="edge31" class="edge">
<title>Node0x5d9ddab0d880&#45;&gt;Node0x5d9dda9ddb10</title>
<path fill="none" stroke="#4a6fa5" d="M73.46,-1299.97C83.88,-1207.51 135.78,-787.42 227,-701 241.75,-687.02 260.59,-678.14 280.3,-672.64"/>
<polygon fill="#4a6fa5" stroke="#4a6fa5" points="281.14,-674.95 287.3,-670.83 279.91,-670.21 281.14,-674.95"/>
</g>
<!-- Node0x5d9dda9dd030 -->
<g id="node33" class="node">
<title>Node0x5d9dda9dd030</title>
<path fill="#f0f4ff" stroke="black" d="M894.5,-1791C894.5,-1791 804.5,-1791 804.5,-1791 798.5,-1791 792.5,-1785 792.5,-1779 792.5,-1779 792.5,-1767 792.5,-1767 792.5,-1761 798.5,-1755 804.5,-1755 804.5,-1755 894.5,-1755 894.5,-1755 900.5,-1755 906.5,-1761 906.5,-1767 906.5,-1767 906.5,-1779 906.5,-1779 906.5,-1785 900.5,-1791 894.5,-1791"/>
<text text-anchor="middle" x="849.5" y="-1770.8" font-family="Courier,monospace" font-size="9.00">{CubeFile::close()}</text>
</g>
<!-- Node0x5d9ddab0d880&#45;&gt;Node0x5d9dda9dd030 -->
<g id="edge32" class="edge">
<title>Node0x5d9ddab0d880&#45;&gt;Node0x5d9dda9dd030</title>
<path fill="none" stroke="#4a6fa5" d="M73.71,-1336.2C84.76,-1424.07 137.17,-1802.95 227,-1871 347.45,-1962.25 423.73,-1919.05 567,-1871 612.42,-1855.76 609.01,-1824.98 653,-1806 694.81,-1787.97 745.6,-1779.76 784.93,-1776.04"/>
<polygon fill="#4a6fa5" stroke="#4a6fa5" points="785.39,-1778.46 792.14,-1775.39 784.95,-1773.58 785.39,-1778.46"/>
</g>
<!-- Node0x5d9dda9dd390 -->
<g id="node34" class="node">
<title>Node0x5d9dda9dd390</title>
<path fill="#f0f4ff" stroke="black" d="M455.5,-426C455.5,-426 338.5,-426 338.5,-426 332.5,-426 326.5,-420 326.5,-414 326.5,-414 326.5,-402 326.5,-402 326.5,-396 332.5,-390 338.5,-390 338.5,-390 455.5,-390 455.5,-390 461.5,-390 467.5,-396 467.5,-402 467.5,-402 467.5,-414 467.5,-414 467.5,-420 461.5,-426 455.5,-426"/>
<text text-anchor="middle" x="397" y="-405.8" font-family="Courier,monospace" font-size="9.00">{CIccMpeCLUT::SetCLUT()}</text>
</g>
<!-- Node0x5d9ddab0d880&#45;&gt;Node0x5d9dda9dd390 -->
<g id="edge33" class="edge">
<title>Node0x5d9ddab0d880&#45;&gt;Node0x5d9dda9dd390</title>
<path fill="none" stroke="#4a6fa5" d="M72.03,-1299.69C75.72,-1185.26 101.27,-568.93 227,-441 250.67,-416.92 286.35,-407.66 318.84,-404.84"/>
<polygon fill="#4a6fa5" stroke="#4a6fa5" points="319.35,-407.26 326.15,-404.3 318.99,-402.37 319.35,-407.26"/>
</g>
<!-- Node0x5d9dda9dd960 -->
<g id="node35" class="node">
<title>Node0x5d9dda9dd960</title>
<path fill="#f0f4ff" stroke="black" d="M460.5,-3288C460.5,-3288 333.5,-3288 333.5,-3288 327.5,-3288 321.5,-3282 321.5,-3276 321.5,-3276 321.5,-3264 321.5,-3264 321.5,-3258 327.5,-3252 333.5,-3252 333.5,-3252 460.5,-3252 460.5,-3252 466.5,-3252 472.5,-3258 472.5,-3264 472.5,-3264 472.5,-3276 472.5,-3276 472.5,-3282 466.5,-3288 460.5,-3288"/>
<text text-anchor="middle" x="397" y="-3267.8" font-family="Courier,monospace" font-size="9.00">{CubeFile::parse3DTable()}</text>
</g>
<!-- Node0x5d9ddab0d880&#45;&gt;Node0x5d9dda9dd960 -->
<g id="edge34" class="edge">
<title>Node0x5d9ddab0d880&#45;&gt;Node0x5d9dda9dd960</title>
<path fill="none" stroke="#4a6fa5" d="M72.32,-1336.14C78.02,-1456.31 114.78,-2149.92 227,-2702 270.57,-2916.33 358.32,-3166.38 386.83,-3245.02"/>
<polygon fill="#4a6fa5" stroke="#4a6fa5" points="384.55,-3245.93 389.24,-3251.67 389.15,-3244.26 384.55,-3245.93"/>
</g>
<!-- Node0x5d9dda9dc970 -->
<g id="node36" class="node">
<title>Node0x5d9dda9dc970</title>
<path fill="#f0f4ff" stroke="black" d="M452.5,-361C452.5,-361 341.5,-361 341.5,-361 335.5,-361 329.5,-355 329.5,-349 329.5,-349 329.5,-337 329.5,-337 329.5,-331 335.5,-325 341.5,-325 341.5,-325 452.5,-325 452.5,-325 458.5,-325 464.5,-331 464.5,-337 464.5,-337 464.5,-349 464.5,-349 464.5,-355 458.5,-361 452.5,-361"/>
<text text-anchor="middle" x="397" y="-340.8" font-family="Courier,monospace" font-size="9.00">{CIccCLUT::NumPoints()}</text>
</g>
<!-- Node0x5d9ddab0d880&#45;&gt;Node0x5d9dda9dc970 -->
<g id="edge35" class="edge">
<title>Node0x5d9ddab0d880&#45;&gt;Node0x5d9dda9dc970</title>
<path fill="none" stroke="#4a6fa5" d="M71.78,-1299.91C74.01,-1181.23 92.47,-514.53 227,-376 251.4,-350.87 288.87,-341.83 322.33,-339.42"/>
<polygon fill="#4a6fa5" stroke="#4a6fa5" points="322.56,-341.86 329.4,-339 322.27,-336.97 322.56,-341.86"/>
</g>
<!-- Node0x5d9ddab196c0 -->
<g id="node37" class="node">
<title>Node0x5d9ddab196c0</title>
<path fill="#f0f4ff" stroke="black" d="M447.5,-296C447.5,-296 346.5,-296 346.5,-296 340.5,-296 334.5,-290 334.5,-284 334.5,-284 334.5,-272 334.5,-272 334.5,-266 340.5,-260 346.5,-260 346.5,-260 447.5,-260 447.5,-260 453.5,-260 459.5,-266 459.5,-272 459.5,-272 459.5,-284 459.5,-284 459.5,-290 453.5,-296 447.5,-296"/>
<text text-anchor="middle" x="397" y="-275.8" font-family="Courier,monospace" font-size="9.00">{CIccCLUT::GetData()}</text>
</g>
<!-- Node0x5d9ddab0d880&#45;&gt;Node0x5d9ddab196c0 -->
<g id="edge36" class="edge">
<title>Node0x5d9ddab0d880&#45;&gt;Node0x5d9ddab196c0</title>
<path fill="none" stroke="#4a6fa5" d="M71.57,-1299.88C72.45,-1176.47 83.73,-460.06 227,-311 252.43,-284.54 292.34,-275.87 326.99,-274.01"/>
<polygon fill="#4a6fa5" stroke="#4a6fa5" points="327.4,-276.45 334.29,-273.71 327.2,-271.55 327.4,-276.45"/>
</g>
<!-- Node0x5d9ddab19170 -->
<g id="node38" class="node">
<title>Node0x5d9ddab19170</title>
<path fill="#f0f4ff" stroke="black" d="M468.5,-231C468.5,-231 325.5,-231 325.5,-231 319.5,-231 313.5,-225 313.5,-219 313.5,-219 313.5,-207 313.5,-207 313.5,-201 319.5,-195 325.5,-195 325.5,-195 468.5,-195 468.5,-195 474.5,-195 480.5,-201 480.5,-207 480.5,-207 480.5,-219 480.5,-219 480.5,-225 474.5,-231 468.5,-231"/>
<text text-anchor="middle" x="397" y="-210.8" font-family="Courier,monospace" font-size="9.00">{CIccMpeCurveSet::SetCurve()}</text>
</g>
<!-- Node0x5d9ddab0d880&#45;&gt;Node0x5d9ddab19170 -->
<g id="edge37" class="edge">
<title>Node0x5d9ddab0d880&#45;&gt;Node0x5d9ddab19170</title>
<path fill="none" stroke="#4a6fa5" d="M71.39,-1299.97C70.98,-1172.32 74.93,-405.67 227,-246 247.42,-224.56 277.34,-214.77 306.36,-210.82"/>
<polygon fill="#4a6fa5" stroke="#4a6fa5" points="306.65,-213.25 313.31,-209.98 306.07,-208.39 306.65,-213.25"/>
</g>
<!-- Node0x5d9ddab18ee0 -->
<g id="node39" class="node">
<title>Node0x5d9ddab18ee0</title>
<path fill="#f0f4ff" stroke="black" d="M1635,-2046C1635,-2046 1602,-2046 1602,-2046 1596,-2046 1590,-2040 1590,-2034 1590,-2034 1590,-2022 1590,-2022 1590,-2016 1596,-2010 1602,-2010 1602,-2010 1635,-2010 1635,-2010 1641,-2010 1647,-2016 1647,-2022 1647,-2022 1647,-2034 1647,-2034 1647,-2040 1641,-2046 1635,-2046"/>
<text text-anchor="middle" x="1618.5" y="-2025.8" font-family="Courier,monospace" font-size="9.00">{memcmp}</text>
</g>
<!-- Node0x5d9ddab0d880&#45;&gt;Node0x5d9ddab18ee0 -->
<g id="edge38" class="edge">
<title>Node0x5d9ddab0d880&#45;&gt;Node0x5d9ddab18ee0</title>
<path fill="none" stroke="#4a6fa5" d="M72.72,-1336.13C79.79,-1435.13 118.98,-1908.98 227,-1995 286.1,-2042.07 494.92,-2017.66 567,-1995 611.46,-1981.02 608.61,-1949.21 653,-1935 855.77,-1870.09 919.1,-1931.11 1132,-1930 1297.33,-1929.14 1349.04,-1872.36 1504,-1930 1543.76,-1944.79 1578.88,-1980.45 1599.17,-2004.43"/>
<polygon fill="#4a6fa5" stroke="#4a6fa5" points="1597.4,-2006.13 1603.76,-2009.95 1601.17,-2003 1597.4,-2006.13"/>
</g>
<!-- Node0x5d9dda9dc6b0 -->
<g id="node40" class="node">
<title>Node0x5d9dda9dc6b0</title>
<path fill="#f0f4ff" stroke="black" d="M439.5,-166C439.5,-166 354.5,-166 354.5,-166 348.5,-166 342.5,-160 342.5,-154 342.5,-154 342.5,-142 342.5,-142 342.5,-136 348.5,-130 354.5,-130 354.5,-130 439.5,-130 439.5,-130 445.5,-130 451.5,-136 451.5,-142 451.5,-142 451.5,-154 451.5,-154 451.5,-160 445.5,-166 439.5,-166"/>
<text text-anchor="middle" x="397" y="-145.8" font-family="Courier,monospace" font-size="9.00">{CIccCLUT::Init()}</text>
</g>
<!-- Node0x5d9ddab0d880&#45;&gt;Node0x5d9dda9dc6b0 -->
<g id="edge39" class="edge">
<title>Node0x5d9ddab0d880&#45;&gt;Node0x5d9dda9dc6b0</title>
<path fill="none" stroke="#4a6fa5" d="M71.22,-1299.74C69.59,-1167.03 66.24,-351.18 227,-181 254.23,-152.17 298.62,-144.36 335.07,-143.52"/>
<polygon fill="#4a6fa5" stroke="#4a6fa5" points="335.28,-145.97 342.25,-143.44 335.22,-141.07 335.28,-145.97"/>
</g>
<!-- Node0x5d9dda9dcb30 -->
<g id="node41" class="node">
<title>Node0x5d9dda9dcb30</title>
<path fill="#f0f4ff" stroke="black" d="M450,-101C450,-101 344,-101 344,-101 338,-101 332,-95 332,-89 332,-89 332,-77 332,-77 332,-71 338,-65 344,-65 344,-65 450,-65 450,-65 456,-65 462,-71 462,-77 462,-77 462,-89 462,-89 462,-95 456,-101 450,-101"/>
<text text-anchor="middle" x="397" y="-80.8" font-family="Courier,monospace" font-size="9.00">{CIccCLUT::CIccCLUT()}</text>
</g>
<!-- Node0x5d9ddab0d880&#45;&gt;Node0x5d9dda9dcb30 -->
<g id="edge40" class="edge">
<title>Node0x5d9ddab0d880&#45;&gt;Node0x5d9dda9dcb30</title>
<path fill="none" stroke="#4a6fa5" d="M72.59,-1299.72C81.32,-1155.68 141.9,-206.75 227,-116 251.63,-89.74 290.49,-80.88 324.74,-78.87"/>
<polygon fill="#4a6fa5" stroke="#4a6fa5" points="325.09,-81.3 331.97,-78.54 324.86,-76.41 325.09,-81.3"/>
</g>
<!-- Node0x5d9ddab18d50 -->
<g id="node42" class="node">
<title>Node0x5d9ddab18d50</title>
<path fill="#f0f4ff" stroke="black" d="M466,-36C466,-36 328,-36 328,-36 322,-36 316,-30 316,-24 316,-24 316,-12 316,-12 316,-6 322,0 328,0 328,0 466,0 466,0 472,0 478,-6 478,-12 478,-12 478,-24 478,-24 478,-30 472,-36 466,-36"/>
<text text-anchor="middle" x="397" y="-15.8" font-family="Courier,monospace" font-size="9.00">{CIccMpeCLUT::CIccMpeCLUT()}</text>
</g>
<!-- Node0x5d9ddab0d880&#45;&gt;Node0x5d9ddab18d50 -->
<g id="edge41" class="edge">
<title>Node0x5d9ddab0d880&#45;&gt;Node0x5d9ddab18d50</title>
<path fill="none" stroke="#4a6fa5" d="M72.46,-1299.69C80.44,-1151.17 137.49,-147.07 227,-51 247.75,-28.73 278.74,-18.95 308.53,-15.26"/>
<polygon fill="#4a6fa5" stroke="#4a6fa5" points="308.97,-17.67 315.67,-14.48 308.44,-12.8 308.97,-17.67"/>
</g>
<!-- Node0x5d9ddab1d4f0 -->
<g id="node44" class="node">
<title>Node0x5d9ddab1d4f0</title>
<path fill="#f0f4ff" stroke="black" d="M866,-3840C866,-3840 833,-3840 833,-3840 827,-3840 821,-3834 821,-3828 821,-3828 821,-3816 821,-3816 821,-3810 827,-3804 833,-3804 833,-3804 866,-3804 866,-3804 872,-3804 878,-3810 878,-3816 878,-3816 878,-3828 878,-3828 878,-3834 872,-3840 866,-3840"/>
<text text-anchor="middle" x="849.5" y="-3819.8" font-family="Courier,monospace" font-size="9.00">{getenv}</text>
</g>
<!-- Node0x5d9ddab0c8f0&#45;&gt;Node0x5d9ddab1d4f0 -->
<g id="edge42" class="edge">
<title>Node0x5d9ddab0c8f0&#45;&gt;Node0x5d9ddab1d4f0</title>
<path fill="none" stroke="#4a6fa5" d="M443.68,-3820.2C533.82,-3820.6 732.86,-3821.49 813.53,-3821.84"/>
<polygon fill="#4a6fa5" stroke="#4a6fa5" points="813.94,-3824.3 820.96,-3821.88 813.97,-3819.4 813.94,-3824.3"/>
</g>
<!-- Node0x5d9ddab11670&#45;&gt;Node0x5d9dda9dbb90 -->
<g id="edge44" class="edge">
<title>Node0x5d9ddab11670&#45;&gt;Node0x5d9dda9dbb90</title>
<path fill="none" stroke="#4a6fa5" d="M454.15,-3702.73C535.1,-3713.87 684.72,-3734.46 774.57,-3746.83"/>
<polygon fill="#4a6fa5" stroke="#4a6fa5" points="774.47,-3749.28 781.74,-3747.81 775.14,-3744.43 774.47,-3749.28"/>
</g>
<!-- Node0x5d9ddab1d270 -->
<g id="node45" class="node">
<title>Node0x5d9ddab1d270</title>
<path fill="#f0f4ff" stroke="black" d="M1635,-2786C1635,-2786 1602,-2786 1602,-2786 1596,-2786 1590,-2780 1590,-2774 1590,-2774 1590,-2762 1590,-2762 1590,-2756 1596,-2750 1602,-2750 1602,-2750 1635,-2750 1635,-2750 1641,-2750 1647,-2756 1647,-2762 1647,-2762 1647,-2774 1647,-2774 1647,-2780 1641,-2786 1635,-2786"/>
<text text-anchor="middle" x="1618.5" y="-2765.8" font-family="Courier,monospace" font-size="9.00">{strlen}</text>
</g>
<!-- Node0x5d9ddab11670&#45;&gt;Node0x5d9ddab1d270 -->
<g id="edge43" class="edge">
<title>Node0x5d9ddab11670&#45;&gt;Node0x5d9ddab1d270</title>
<path fill="none" stroke="#4a6fa5" d="M454.27,-3697.71C668.62,-3707.49 1425.85,-3736.73 1504,-3666 1570.75,-3605.58 1608.95,-2933.72 1616.22,-2793.54"/>
<polygon fill="#4a6fa5" stroke="#4a6fa5" points="1618.69,-2793.28 1616.6,-2786.16 1613.79,-2793.03 1618.69,-2793.28"/>
</g>
<!-- Node0x5d9dda9ff930&#45;&gt;Node0x5d9ddab1bd60 -->
<g id="edge46" class="edge">
<title>Node0x5d9dda9ff930&#45;&gt;Node0x5d9ddab1bd60</title>
<path fill="none" stroke="#4a6fa5" d="M914.83,-3626.15C953.88,-3620.47 1004.09,-3610.4 1046,-3593 1088.35,-3575.42 1089.43,-3553.05 1132,-3536 1144.88,-3530.84 1158.59,-3526.48 1172.5,-3522.81"/>
<polygon fill="#4a6fa5" stroke="#4a6fa5" points="1173.17,-3525.17 1179.34,-3521.06 1171.95,-3520.42 1173.17,-3525.17"/>
</g>
<!-- Node0x5d9ddab1eed0 -->
<g id="node46" class="node">
<title>Node0x5d9ddab1eed0</title>
<path fill="#f0f4ff" stroke="black" d="M1457.5,-3586C1457.5,-3586 1178.5,-3586 1178.5,-3586 1172.5,-3586 1166.5,-3580 1166.5,-3574 1166.5,-3574 1166.5,-3562 1166.5,-3562 1166.5,-3556 1172.5,-3550 1178.5,-3550 1178.5,-3550 1457.5,-3550 1457.5,-3550 1463.5,-3550 1469.5,-3556 1469.5,-3562 1469.5,-3562 1469.5,-3574 1469.5,-3574 1469.5,-3580 1463.5,-3586 1457.5,-3586"/>
<text text-anchor="middle" x="1318" y="-3565.8" font-family="Courier,monospace" font-size="9.00">{basic_string&lt;char, std::char_traits &gt;::basic_string()}</text>
</g>
<!-- Node0x5d9dda9ff930&#45;&gt;Node0x5d9ddab1eed0 -->
<g id="edge45" class="edge">
<title>Node0x5d9dda9ff930&#45;&gt;Node0x5d9ddab1eed0</title>
<path fill="none" stroke="#4a6fa5" d="M914.88,-3624.03C983.14,-3614.52 1092.99,-3599.21 1180.64,-3587"/>
<polygon fill="#4a6fa5" stroke="#4a6fa5" points="1181.12,-3589.41 1187.71,-3586.01 1180.44,-3584.55 1181.12,-3589.41"/>
</g>
<!-- Node0x5d9ddab1f350 -->
<g id="node47" class="node">
<title>Node0x5d9ddab1f350</title>
<path fill="#f0f4ff" stroke="black" d="M1492,-3651C1492,-3651 1144,-3651 1144,-3651 1138,-3651 1132,-3645 1132,-3639 1132,-3639 1132,-3627 1132,-3627 1132,-3621 1138,-3615 1144,-3615 1144,-3615 1492,-3615 1492,-3615 1498,-3615 1504,-3621 1504,-3627 1504,-3627 1504,-3639 1504,-3639 1504,-3645 1498,-3651 1492,-3651"/>
<text text-anchor="middle" x="1318" y="-3630.8" font-family="Courier,monospace" font-size="9.00">{std::basic_string&lt;char, std::char_traits &gt;::operator=(char const*)}</text>
</g>
<!-- Node0x5d9dda9ff930&#45;&gt;Node0x5d9ddab1f350 -->
<g id="edge47" class="edge">
<title>Node0x5d9dda9ff930&#45;&gt;Node0x5d9ddab1f350</title>
<path fill="none" stroke="#4a6fa5" d="M914.88,-3633C969.17,-3633 1049.79,-3633 1124.61,-3633"/>
<polygon fill="#4a6fa5" stroke="#4a6fa5" points="1124.84,-3635.45 1131.84,-3633 1124.84,-3630.55 1124.84,-3635.45"/>
</g>
<!-- Node0x5d9dda9d9190&#45;&gt;Node0x5d9ddab1bd60 -->
<g id="edge51" class="edge">
<title>Node0x5d9dda9d9190&#45;&gt;Node0x5d9ddab1bd60</title>
<path fill="none" stroke="#4a6fa5" d="M406.48,-2687.32C433.42,-2743.21 522.95,-2912.2 653,-2987 806.11,-3075.06 917.99,-2924.31 1046,-3046 1185.68,-3178.78 993.81,-3336.68 1132,-3471 1139.41,-3478.2 1147.81,-3484.11 1156.86,-3488.93"/>
<polygon fill="#4a6fa5" stroke="#4a6fa5" points="1155.86,-3491.17 1163.22,-3492.1 1158.05,-3486.79 1155.86,-3491.17"/>
</g>
<!-- Node0x5d9dda9d9190&#45;&gt;Node0x5d9dda9dd8e0 -->
<g id="edge61" class="edge">
<title>Node0x5d9dda9d9190&#45;&gt;Node0x5d9dda9dd8e0</title>
<path fill="none" stroke="#4a6fa5" d="M401.09,-2650.79C414.73,-2576.52 476.93,-2294.62 653,-2172 695.08,-2142.7 995.22,-2115.74 1177.26,-2101.85"/>
<polygon fill="#4a6fa5" stroke="#4a6fa5" points="1177.7,-2104.27 1184.49,-2101.3 1177.33,-2099.39 1177.7,-2104.27"/>
</g>
<!-- Node0x5d9dda9d9190&#45;&gt;Node0x5d9ddab1a830 -->
<g id="edge54" class="edge">
<title>Node0x5d9dda9d9190&#45;&gt;Node0x5d9ddab1a830</title>
<path fill="none" stroke="#4a6fa5" d="M470.03,-2652.74C520.98,-2641.55 590.97,-2626.82 653,-2616 834.69,-2584.29 1045.78,-2555.83 1180.31,-2538.74"/>
<polygon fill="#4a6fa5" stroke="#4a6fa5" points="1180.82,-2541.15 1187.46,-2537.83 1180.21,-2536.28 1180.82,-2541.15"/>
</g>
<!-- Node0x5d9ddab1a970 -->
<g id="node43" class="node">
<title>Node0x5d9ddab1a970</title>
<path fill="#f0f4ff" stroke="black" d="M1031,-3161C1031,-3161 668,-3161 668,-3161 662,-3161 656,-3155 656,-3149 656,-3149 656,-3137 656,-3137 656,-3131 662,-3125 668,-3125 668,-3125 1031,-3125 1031,-3125 1037,-3125 1043,-3131 1043,-3137 1043,-3137 1043,-3149 1043,-3149 1043,-3155 1037,-3161 1031,-3161"/>
<text text-anchor="middle" x="849.5" y="-3140.8" font-family="Courier,monospace" font-size="9.00">{std::basic_string&lt;char, std::char_traits &gt;::operator[](unsigned long)}</text>
</g>
<!-- Node0x5d9dda9d9190&#45;&gt;Node0x5d9ddab1a970 -->
<g id="edge56" class="edge">
<title>Node0x5d9dda9d9190&#45;&gt;Node0x5d9ddab1a970</title>
<path fill="none" stroke="#4a6fa5" d="M402.44,-2687.12C420.25,-2755.64 493.41,-3000.67 653,-3111 658.83,-3115.03 665,-3118.63 671.4,-3121.82"/>
<polygon fill="#4a6fa5" stroke="#4a6fa5" points="670.5,-3124.11 677.88,-3124.88 672.6,-3119.68 670.5,-3124.11"/>
</g>
<!-- Node0x5d9ddab1fc90 -->
<g id="node48" class="node">
<title>Node0x5d9ddab1fc90</title>
<path fill="#f0f4ff" stroke="black" d="M892,-2039C892,-2039 807,-2039 807,-2039 801,-2039 795,-2033 795,-2027 795,-2027 795,-2015 795,-2015 795,-2009 801,-2003 807,-2003 807,-2003 892,-2003 892,-2003 898,-2003 904,-2009 904,-2015 904,-2015 904,-2027 904,-2027 904,-2033 898,-2039 892,-2039"/>
<text text-anchor="middle" x="849.5" y="-2018.8" font-family="Courier,monospace" font-size="9.00">{CubeFile::open()}</text>
</g>
<!-- Node0x5d9dda9d9190&#45;&gt;Node0x5d9ddab1fc90 -->
<g id="edge48" class="edge">
<title>Node0x5d9dda9d9190&#45;&gt;Node0x5d9ddab1fc90</title>
<path fill="none" stroke="#4a6fa5" d="M401.83,-2650.89C418.49,-2576.11 491.22,-2287.37 653,-2120 690.27,-2081.44 745.77,-2055.33 788.12,-2039.65"/>
<polygon fill="#4a6fa5" stroke="#4a6fa5" points="789.06,-2041.92 794.8,-2037.22 787.39,-2037.31 789.06,-2041.92"/>
</g>
<!-- Node0x5d9ddab1f3d0 -->
<g id="node49" class="node">
<title>Node0x5d9ddab1f3d0</title>
<path fill="#f0f4ff" stroke="black" d="M971,-2783C971,-2783 728,-2783 728,-2783 722,-2783 716,-2777 716,-2771 716,-2771 716,-2759 716,-2759 716,-2753 722,-2747 728,-2747 728,-2747 971,-2747 971,-2747 977,-2747 983,-2753 983,-2759 983,-2759 983,-2771 983,-2771 983,-2777 977,-2783 971,-2783"/>
<text text-anchor="middle" x="849.5" y="-2762.8" font-family="Courier,monospace" font-size="9.00">{basic_string&lt;char, std::char_traits &gt;::clear()}</text>
</g>
<!-- Node0x5d9dda9d9190&#45;&gt;Node0x5d9ddab1f3d0 -->
<g id="edge49" class="edge">
<title>Node0x5d9dda9d9190&#45;&gt;Node0x5d9ddab1f3d0</title>
<path fill="none" stroke="#4a6fa5" d="M463.43,-2687.03C514.74,-2700.77 588.08,-2719.56 653,-2733 675.05,-2737.56 698.61,-2741.89 721.47,-2745.79"/>
<polygon fill="#4a6fa5" stroke="#4a6fa5" points="721.22,-2748.24 728.54,-2746.99 722.04,-2743.41 721.22,-2748.24"/>
</g>
<!-- Node0x5d9ddab1f150 -->
<g id="node50" class="node">
<title>Node0x5d9ddab1f150</title>
<path fill="#f0f4ff" stroke="black" d="M1363,-3332C1363,-3332 1273,-3332 1273,-3332 1267,-3332 1261,-3326 1261,-3320 1261,-3320 1261,-3308 1261,-3308 1261,-3302 1267,-3296 1273,-3296 1273,-3296 1363,-3296 1363,-3296 1369,-3296 1375,-3302 1375,-3308 1375,-3308 1375,-3320 1375,-3320 1375,-3326 1369,-3332 1363,-3332"/>
<text text-anchor="middle" x="1318" y="-3311.8" font-family="Courier,monospace" font-size="9.00">{CubeFile::isEOF()}</text>
</g>
<!-- Node0x5d9dda9d9190&#45;&gt;Node0x5d9ddab1f150 -->
<g id="edge50" class="edge">
<title>Node0x5d9dda9d9190&#45;&gt;Node0x5d9ddab1f150</title>
<path fill="none" stroke="#4a6fa5" d="M470.23,-2658.28C620.01,-2637.72 957.81,-2600.44 1046,-2668 1162.56,-2757.3 1076.3,-2851.14 1132,-2987 1180.98,-3106.47 1264.83,-3236.7 1300.33,-3289.61"/>
<polygon fill="#4a6fa5" stroke="#4a6fa5" points="1298.48,-3291.24 1304.42,-3295.68 1302.54,-3288.5 1298.48,-3291.24"/>
</g>
<!-- Node0x5d9ddab1e810 -->
<g id="node51" class="node">
<title>Node0x5d9ddab1e810</title>
<path fill="#f0f4ff" stroke="black" d="M864.5,-2718C864.5,-2718 834.5,-2718 834.5,-2718 828.5,-2718 822.5,-2712 822.5,-2706 822.5,-2706 822.5,-2694 822.5,-2694 822.5,-2688 828.5,-2682 834.5,-2682 834.5,-2682 864.5,-2682 864.5,-2682 870.5,-2682 876.5,-2688 876.5,-2694 876.5,-2694 876.5,-2706 876.5,-2706 876.5,-2712 870.5,-2718 864.5,-2718"/>
<text text-anchor="middle" x="849.5" y="-2697.8" font-family="Courier,monospace" font-size="9.00">{ftell}</text>
</g>
<!-- Node0x5d9dda9d9190&#45;&gt;Node0x5d9ddab1e810 -->
<g id="edge52" class="edge">
<title>Node0x5d9dda9d9190&#45;&gt;Node0x5d9ddab1e810</title>
<path fill="none" stroke="#4a6fa5" d="M470.38,-2673.98C569.21,-2680.78 742.38,-2692.7 814.98,-2697.69"/>
<polygon fill="#4a6fa5" stroke="#4a6fa5" points="814.95,-2700.15 822.1,-2698.18 815.28,-2695.26 814.95,-2700.15"/>
</g>
<!-- Node0x5d9ddab1da70 -->
<g id="node52" class="node">
<title>Node0x5d9ddab1da70</title>
<path fill="#f0f4ff" stroke="black" d="M939.5,-3468C939.5,-3468 759.5,-3468 759.5,-3468 753.5,-3468 747.5,-3462 747.5,-3456 747.5,-3456 747.5,-3444 747.5,-3444 747.5,-3438 753.5,-3432 759.5,-3432 759.5,-3432 939.5,-3432 939.5,-3432 945.5,-3432 951.5,-3438 951.5,-3444 951.5,-3444 951.5,-3456 951.5,-3456 951.5,-3462 945.5,-3468 939.5,-3468"/>
<text text-anchor="middle" x="849.5" y="-3447.8" font-family="Courier,monospace" font-size="9.00">{CubeFile::getNextLine[abi:cxx11]()}</text>
</g>
<!-- Node0x5d9dda9d9190&#45;&gt;Node0x5d9ddab1da70 -->
<g id="edge53" class="edge">
<title>Node0x5d9dda9d9190&#45;&gt;Node0x5d9ddab1da70</title>
<path fill="none" stroke="#4a6fa5" d="M403.71,-2687.42C427.06,-2761.23 520.47,-3041.22 653,-3241 703.13,-3316.57 781.16,-3390.62 821.82,-3426.91"/>
<polygon fill="#4a6fa5" stroke="#4a6fa5" points="820.68,-3429.17 827.54,-3431.98 823.93,-3425.5 820.68,-3429.17"/>
</g>
<!-- Node0x5d9ddab226e0 -->
<g id="node53" class="node">
<title>Node0x5d9ddab226e0</title>
<path fill="#f0f4ff" stroke="black" d="M1034,-2222C1034,-2222 665,-2222 665,-2222 659,-2222 653,-2216 653,-2210 653,-2210 653,-2198 653,-2198 653,-2192 659,-2186 665,-2186 665,-2186 1034,-2186 1034,-2186 1040,-2186 1046,-2192 1046,-2198 1046,-2198 1046,-2210 1046,-2210 1046,-2216 1040,-2222 1034,-2222"/>
<text text-anchor="middle" x="849.5" y="-2201.8" font-family="Courier,monospace" font-size="9.00">{bool std::operator==&lt;char, std::char_traits &gt;(std::basic_string&lt;cha...}</text>
</g>
<!-- Node0x5d9dda9d9190&#45;&gt;Node0x5d9ddab226e0 -->
<g id="edge55" class="edge">
<title>Node0x5d9dda9d9190&#45;&gt;Node0x5d9ddab226e0</title>
<path fill="none" stroke="#4a6fa5" d="M410.51,-2650.78C445.46,-2600.55 548.46,-2457.02 653,-2355 705.26,-2304 774.48,-2254.05 814.99,-2226.31"/>
<polygon fill="#4a6fa5" stroke="#4a6fa5" points="816.59,-2228.18 820.99,-2222.21 813.83,-2224.13 816.59,-2228.18"/>
</g>
<!-- Node0x5d9ddab1bba0 -->
<g id="node54" class="node">
<title>Node0x5d9ddab1bba0</title>
<path fill="#f0f4ff" stroke="black" d="M973.5,-2535C973.5,-2535 725.5,-2535 725.5,-2535 719.5,-2535 713.5,-2529 713.5,-2523 713.5,-2523 713.5,-2511 713.5,-2511 713.5,-2505 719.5,-2499 725.5,-2499 725.5,-2499 973.5,-2499 973.5,-2499 979.5,-2499 985.5,-2505 985.5,-2511 985.5,-2511 985.5,-2523 985.5,-2523 985.5,-2529 979.5,-2535 973.5,-2535"/>
<text text-anchor="middle" x="849.5" y="-2514.8" font-family="Courier,monospace" font-size="9.00">{basic_string&lt;char, std::char_traits &gt;::substr()}</text>
</g>
<!-- Node0x5d9dda9d9190&#45;&gt;Node0x5d9ddab1bba0 -->
<g id="edge57" class="edge">
<title>Node0x5d9dda9d9190&#45;&gt;Node0x5d9ddab1bba0</title>
<path fill="none" stroke="#4a6fa5" d="M432.56,-2650.99C480.76,-2626.55 571.44,-2582.93 653,-2557 678.38,-2548.93 706.15,-2542.1 732.58,-2536.49"/>
<polygon fill="#4a6fa5" stroke="#4a6fa5" points="733.28,-2538.85 739.64,-2535.02 732.28,-2534.05 733.28,-2538.85"/>
</g>
<!-- Node0x5d9ddab22be0 -->
<g id="node55" class="node">
<title>Node0x5d9ddab22be0</title>
<path fill="#f0f4ff" stroke="black" d="M864.5,-3096C864.5,-3096 834.5,-3096 834.5,-3096 828.5,-3096 822.5,-3090 822.5,-3084 822.5,-3084 822.5,-3072 822.5,-3072 822.5,-3066 828.5,-3060 834.5,-3060 834.5,-3060 864.5,-3060 864.5,-3060 870.5,-3060 876.5,-3066 876.5,-3072 876.5,-3072 876.5,-3084 876.5,-3084 876.5,-3090 870.5,-3096 864.5,-3096"/>
<text text-anchor="middle" x="849.5" y="-3075.8" font-family="Courier,monospace" font-size="9.00">{atof}</text>
</g>
<!-- Node0x5d9dda9d9190&#45;&gt;Node0x5d9ddab22be0 -->
<g id="edge58" class="edge">
<title>Node0x5d9dda9d9190&#45;&gt;Node0x5d9ddab22be0</title>
<path fill="none" stroke="#4a6fa5" d="M404.78,-2687.26C428.4,-2748.16 513.32,-2945.69 653,-3038 702.76,-3070.88 774.01,-3077.63 815.34,-3078.52"/>
<polygon fill="#4a6fa5" stroke="#4a6fa5" points="815.42,-3080.97 822.45,-3078.62 815.49,-3076.07 815.42,-3080.97"/>
</g>
<!-- Node0x5d9ddab23360 -->
<g id="node56" class="node">
<title>Node0x5d9ddab23360</title>
<path fill="#f0f4ff" stroke="black" d="M900,-3226C900,-3226 799,-3226 799,-3226 793,-3226 787,-3220 787,-3214 787,-3214 787,-3202 787,-3202 787,-3196 793,-3190 799,-3190 799,-3190 900,-3190 900,-3190 906,-3190 912,-3196 912,-3202 912,-3202 912,-3214 912,-3214 912,-3220 906,-3226 900,-3226"/>
<text text-anchor="middle" x="849.5" y="-3205.8" font-family="Courier,monospace" font-size="9.00">{CubeFile::getNext()}</text>
</g>
<!-- Node0x5d9dda9d9190&#45;&gt;Node0x5d9ddab23360 -->
<g id="edge59" class="edge">
<title>Node0x5d9dda9d9190&#45;&gt;Node0x5d9ddab23360</title>
<path fill="none" stroke="#4a6fa5" d="M401.06,-2687.1C414.69,-2761.62 477.11,-3046.81 653,-3176 689.09,-3202.51 739.03,-3210.33 779.4,-3211.62"/>
<polygon fill="#4a6fa5" stroke="#4a6fa5" points="779.51,-3214.07 786.56,-3211.78 779.62,-3209.17 779.51,-3214.07"/>
</g>
<!-- Node0x5d9ddab1c930 -->
<g id="node57" class="node">
<title>Node0x5d9ddab1c930</title>
<path fill="#f0f4ff" stroke="black" d="M1333,-1980C1333,-1980 1303,-1980 1303,-1980 1297,-1980 1291,-1974 1291,-1968 1291,-1968 1291,-1956 1291,-1956 1291,-1950 1297,-1944 1303,-1944 1303,-1944 1333,-1944 1333,-1944 1339,-1944 1345,-1950 1345,-1956 1345,-1956 1345,-1968 1345,-1968 1345,-1974 1339,-1980 1333,-1980"/>
<text text-anchor="middle" x="1318" y="-1959.8" font-family="Courier,monospace" font-size="9.00">{fseek}</text>
</g>
<!-- Node0x5d9dda9d9190&#45;&gt;Node0x5d9ddab1c930 -->
<g id="edge60" class="edge">
<title>Node0x5d9dda9d9190&#45;&gt;Node0x5d9ddab1c930</title>
<path fill="none" stroke="#4a6fa5" d="M398.15,-2650.96C400.01,-2560.78 421.37,-2156.58 653,-1989 754.74,-1915.39 1163.6,-1947.45 1283.68,-1958.69"/>
<polygon fill="#4a6fa5" stroke="#4a6fa5" points="1283.64,-1961.14 1290.84,-1959.37 1284.1,-1956.27 1283.64,-1961.14"/>
</g>
<!-- Node0x5d9ddab22e60 -->
<g id="node58" class="node">
<title>Node0x5d9ddab22e60</title>
<path fill="#f0f4ff" stroke="black" d="M864.5,-2470C864.5,-2470 834.5,-2470 834.5,-2470 828.5,-2470 822.5,-2464 822.5,-2458 822.5,-2458 822.5,-2446 822.5,-2446 822.5,-2440 828.5,-2434 834.5,-2434 834.5,-2434 864.5,-2434 864.5,-2434 870.5,-2434 876.5,-2440 876.5,-2446 876.5,-2446 876.5,-2458 876.5,-2458 876.5,-2464 870.5,-2470 864.5,-2470"/>
<text text-anchor="middle" x="849.5" y="-2449.8" font-family="Courier,monospace" font-size="9.00">{atoll}</text>
</g>
<!-- Node0x5d9dda9d9190&#45;&gt;Node0x5d9ddab22e60 -->
<g id="edge62" class="edge">
<title>Node0x5d9dda9d9190&#45;&gt;Node0x5d9ddab22e60</title>
<path fill="none" stroke="#4a6fa5" d="M416.58,-2650.8C456.26,-2613.09 553.78,-2526.5 653,-2485 706.96,-2462.43 775.42,-2455.28 815.36,-2453.03"/>
<polygon fill="#4a6fa5" stroke="#4a6fa5" points="815.61,-2455.47 822.47,-2452.66 815.36,-2450.58 815.61,-2455.47"/>
</g>
<!-- Node0x5d9ddab230e0 -->
<g id="node59" class="node">
<title>Node0x5d9ddab230e0</title>
<path fill="#f0f4ff" stroke="black" d="M1476,-2972C1476,-2972 1160,-2972 1160,-2972 1154,-2972 1148,-2966 1148,-2960 1148,-2960 1148,-2948 1148,-2948 1148,-2942 1154,-2936 1160,-2936 1160,-2936 1476,-2936 1476,-2936 1482,-2936 1488,-2942 1488,-2948 1488,-2948 1488,-2960 1488,-2960 1488,-2966 1482,-2972 1476,-2972"/>
<text text-anchor="middle" x="1318" y="-2951.8" font-family="Courier,monospace" font-size="9.00">{std::basic_string&lt;char, std::char_traits &gt;::operator+=(char)}</text>
</g>
<!-- Node0x5d9dda9d9190&#45;&gt;Node0x5d9ddab230e0 -->
<g id="edge63" class="edge">
<title>Node0x5d9dda9d9190&#45;&gt;Node0x5d9ddab230e0</title>
<path fill="none" stroke="#4a6fa5" d="M426.15,-2687.06C471.83,-2715.46 565.79,-2770.19 653,-2798 821.28,-2851.66 874.71,-2813.92 1046,-2857 1125.47,-2876.99 1214.33,-2911.17 1267.94,-2933.16"/>
<polygon fill="#4a6fa5" stroke="#4a6fa5" points="1267.21,-2935.51 1274.62,-2935.91 1269.08,-2930.98 1267.21,-2935.51"/>
</g>
<!-- Node0x5d9ddab22100 -->
<g id="node60" class="node">
<title>Node0x5d9ddab22100</title>
<path fill="#f0f4ff" stroke="black" d="M1026,-2405C1026,-2405 673,-2405 673,-2405 667,-2405 661,-2399 661,-2393 661,-2393 661,-2381 661,-2381 661,-2375 667,-2369 673,-2369 673,-2369 1026,-2369 1026,-2369 1032,-2369 1038,-2375 1038,-2381 1038,-2381 1038,-2393 1038,-2393 1038,-2399 1032,-2405 1026,-2405"/>
<text text-anchor="middle" x="849.5" y="-2384.8" font-family="Courier,monospace" font-size="9.00">{std::basic_string&lt;char, std::char_traits &gt;::operator+=(char const*)}</text>
</g>
<!-- Node0x5d9dda9d9190&#45;&gt;Node0x5d9ddab22100 -->
<g id="edge64" class="edge">
<title>Node0x5d9dda9d9190&#45;&gt;Node0x5d9ddab22100</title>
<path fill="none" stroke="#4a6fa5" d="M410.38,-2650.83C443.5,-2603.8 539.38,-2477.77 653,-2420 662.63,-2415.11 672.83,-2410.91 683.33,-2407.33"/>
<polygon fill="#4a6fa5" stroke="#4a6fa5" points="684.37,-2409.56 690.26,-2405.06 682.85,-2404.91 684.37,-2409.56"/>
</g>
<!-- Node0x5d9ddab22960 -->
<g id="node61" class="node">
<title>Node0x5d9ddab22960</title>
<path fill="#f0f4ff" stroke="black" d="M1034,-2907C1034,-2907 665,-2907 665,-2907 659,-2907 653,-2901 653,-2895 653,-2895 653,-2883 653,-2883 653,-2877 659,-2871 665,-2871 665,-2871 1034,-2871 1034,-2871 1040,-2871 1046,-2877 1046,-2883 1046,-2883 1046,-2895 1046,-2895 1046,-2901 1040,-2907 1034,-2907"/>
<text text-anchor="middle" x="849.5" y="-2886.8" font-family="Courier,monospace" font-size="9.00">{std::basic_string&lt;char, std::char_traits &gt;::operator+=(std::basic_s...}</text>
</g>
<!-- Node0x5d9dda9d9190&#45;&gt;Node0x5d9ddab22960 -->
<g id="edge65" class="edge">
<title>Node0x5d9dda9d9190&#45;&gt;Node0x5d9ddab22960</title>
<path fill="none" stroke="#4a6fa5" d="M417.39,-2687.08C457.83,-2723.72 555.52,-2806.83 653,-2849 672.37,-2857.38 693.59,-2864.03 714.68,-2869.31"/>
<polygon fill="#4a6fa5" stroke="#4a6fa5" points="714.14,-2871.7 721.52,-2870.98 715.3,-2866.94 714.14,-2871.7"/>
</g>
<!-- Node0x5d9ddab21ac0 -->
<g id="node62" class="node">
<title>Node0x5d9ddab21ac0</title>
<path fill="#f0f4ff" stroke="black" d="M960.5,-2972C960.5,-2972 738.5,-2972 738.5,-2972 732.5,-2972 726.5,-2966 726.5,-2960 726.5,-2960 726.5,-2948 726.5,-2948 726.5,-2942 732.5,-2936 738.5,-2936 738.5,-2936 960.5,-2936 960.5,-2936 966.5,-2936 972.5,-2942 972.5,-2948 972.5,-2948 972.5,-2960 972.5,-2960 972.5,-2966 966.5,-2972 960.5,-2972"/>
<text text-anchor="middle" x="849.5" y="-2951.8" font-family="Courier,monospace" font-size="9.00">{CubeFile::getTitle[abi:cxx11](char const*)}</text>
</g>
<!-- Node0x5d9dda9d9190&#45;&gt;Node0x5d9ddab21ac0 -->
<g id="edge66" class="edge">
<title>Node0x5d9dda9d9190&#45;&gt;Node0x5d9ddab21ac0</title>
<path fill="none" stroke="#4a6fa5" d="M410.05,-2687.15C442.72,-2734.74 538.29,-2863.46 653,-2922 673.41,-2932.41 696.43,-2939.57 719.32,-2944.47"/>
<polygon fill="#4a6fa5" stroke="#4a6fa5" points="719.07,-2946.92 726.42,-2945.92 720.05,-2942.12 719.07,-2946.92"/>
</g>
<!-- Node0x5d9ddab1d770&#45;&gt;Node0x5d9ddab1bd60 -->
<g id="edge80" class="edge">
<title>Node0x5d9ddab1d770&#45;&gt;Node0x5d9ddab1bd60</title>
<path fill="none" stroke="#4a6fa5" d="M409.64,-1980.18C442.03,-2029.25 538.35,-2165.53 653,-2237 807.77,-2333.47 931.61,-2212.97 1046,-2355 1202.02,-2548.72 964.61,-3287.02 1132,-3471 1139.29,-3479.01 1147.8,-3485.48 1157.09,-3490.67"/>
<polygon fill="#4a6fa5" stroke="#4a6fa5" points="1155.97,-3492.85 1163.31,-3493.91 1158.23,-3488.5 1155.97,-3492.85"/>
</g>
<!-- Node0x5d9ddab1d770&#45;&gt;Node0x5d9dda9dd030 -->
<g id="edge79" class="edge">
<title>Node0x5d9ddab1d770&#45;&gt;Node0x5d9dda9dd030</title>
<path fill="none" stroke="#4a6fa5" d="M464.83,-1956.98C497.77,-1951.94 536.79,-1941.91 567,-1922 620.59,-1886.69 598.29,-1839.55 653,-1806 692.59,-1781.73 744.74,-1773.87 785.22,-1771.87"/>
<polygon fill="#4a6fa5" stroke="#4a6fa5" points="785.49,-1774.31 792.38,-1771.57 785.29,-1769.42 785.49,-1774.31"/>
</g>
<!-- Node0x5d9ddab234a0 -->
<g id="node67" class="node">
<title>Node0x5d9ddab234a0</title>
<path fill="#f0f4ff" stroke="black" d="M908,-1856C908,-1856 791,-1856 791,-1856 785,-1856 779,-1850 779,-1844 779,-1844 779,-1832 779,-1832 779,-1826 785,-1820 791,-1820 791,-1820 908,-1820 908,-1820 914,-1820 920,-1826 920,-1832 920,-1832 920,-1844 920,-1844 920,-1850 914,-1856 908,-1856"/>
<text text-anchor="middle" x="849.5" y="-1835.8" font-family="Courier,monospace" font-size="9.00">{__clang_call_terminate}</text>
</g>
<!-- Node0x5d9ddab1d770&#45;&gt;Node0x5d9ddab234a0 -->
<g id="edge81" class="edge">
<title>Node0x5d9ddab1d770&#45;&gt;Node0x5d9ddab234a0</title>
<path fill="none" stroke="#4a6fa5" d="M464.9,-1950.03C496.4,-1943.43 534.18,-1934.08 567,-1922 607.29,-1907.17 612.49,-1892.21 653,-1878 691.16,-1864.62 735.16,-1855.12 771.75,-1848.75"/>
<polygon fill="#4a6fa5" stroke="#4a6fa5" points="772.47,-1851.11 778.96,-1847.52 771.65,-1846.28 772.47,-1851.11"/>
</g>
<!-- Node0x5d9ddab23860 -->
<g id="node64" class="node">
<title>Node0x5d9ddab23860</title>
<path fill="#f0f4ff" stroke="black" d="M876.5,-1076C876.5,-1076 822.5,-1076 822.5,-1076 816.5,-1076 810.5,-1070 810.5,-1064 810.5,-1064 810.5,-1052 810.5,-1052 810.5,-1046 816.5,-1040 822.5,-1040 822.5,-1040 876.5,-1040 876.5,-1040 882.5,-1040 888.5,-1046 888.5,-1052 888.5,-1052 888.5,-1064 888.5,-1064 888.5,-1070 882.5,-1076 876.5,-1076"/>
<text text-anchor="middle" x="849.5" y="-1055.8" font-family="Courier,monospace" font-size="9.00">{icIsNear()}</text>
</g>
<!-- Node0x5d9dda9d9920&#45;&gt;Node0x5d9ddab23860 -->
<g id="edge67" class="edge">
<title>Node0x5d9dda9d9920&#45;&gt;Node0x5d9ddab23860</title>
<path fill="none" stroke="#4a6fa5" d="M488.62,-1058C583.89,-1058 729.9,-1058 803.2,-1058"/>
<polygon fill="#4a6fa5" stroke="#4a6fa5" points="803.49,-1060.45 810.49,-1058 803.49,-1055.55 803.49,-1060.45"/>
</g>
<!-- Node0x5d9ddab235e0 -->
<g id="node66" class="node">
<title>Node0x5d9ddab235e0</title>
<path fill="#f0f4ff" stroke="black" d="M989,-654C989,-654 710,-654 710,-654 704,-654 698,-648 698,-642 698,-642 698,-630 698,-630 698,-624 704,-618 710,-618 710,-618 989,-618 989,-618 995,-618 1001,-624 1001,-630 1001,-630 1001,-642 1001,-642 1001,-648 995,-654 989,-654"/>
<text text-anchor="middle" x="849.5" y="-633.8" font-family="Courier,monospace" font-size="9.00">{basic_string&lt;char, std::char_traits &gt;::basic_string()}</text>
</g>
<!-- Node0x5d9ddab1cd70&#45;&gt;Node0x5d9ddab235e0 -->
<g id="edge78" class="edge">
<title>Node0x5d9ddab1cd70&#45;&gt;Node0x5d9ddab235e0</title>
<path fill="none" stroke="#4a6fa5" d="M501.64,-610.59C557.67,-614.7 628.05,-619.85 690.75,-624.44"/>
<polygon fill="#4a6fa5" stroke="#4a6fa5" points="690.8,-626.9 697.96,-624.97 691.16,-622.02 690.8,-626.9"/>
</g>
<!-- Node0x5d9dda9ddb10&#45;&gt;Node0x5d9ddab235e0 -->
<g id="edge77" class="edge">
<title>Node0x5d9dda9ddb10&#45;&gt;Node0x5d9ddab235e0</title>
<path fill="none" stroke="#4a6fa5" d="M506.77,-660.27C561.92,-656.36 629.94,-651.52 690.73,-647.21"/>
<polygon fill="#4a6fa5" stroke="#4a6fa5" points="690.92,-649.65 697.72,-646.71 690.57,-644.76 690.92,-649.65"/>
</g>
<!-- Node0x5d9ddab24760 -->
<g id="node65" class="node">
<title>Node0x5d9ddab24760</title>
<path fill="#f0f4ff" stroke="black" d="M1334.5,-1726C1334.5,-1726 1301.5,-1726 1301.5,-1726 1295.5,-1726 1289.5,-1720 1289.5,-1714 1289.5,-1714 1289.5,-1702 1289.5,-1702 1289.5,-1696 1295.5,-1690 1301.5,-1690 1301.5,-1690 1334.5,-1690 1334.5,-1690 1340.5,-1690 1346.5,-1696 1346.5,-1702 1346.5,-1702 1346.5,-1714 1346.5,-1714 1346.5,-1720 1340.5,-1726 1334.5,-1726"/>
<text text-anchor="middle" x="1318" y="-1705.8" font-family="Courier,monospace" font-size="9.00">{fclose}</text>
</g>
<!-- Node0x5d9dda9dd030&#45;&gt;Node0x5d9ddab24760 -->
<g id="edge76" class="edge">
<title>Node0x5d9dda9dd030&#45;&gt;Node0x5d9ddab24760</title>
<path fill="none" stroke="#4a6fa5" d="M906.77,-1765.16C1004.2,-1751.58 1201.55,-1724.09 1281.84,-1712.9"/>
<polygon fill="#4a6fa5" stroke="#4a6fa5" points="1282.64,-1715.26 1289.24,-1711.87 1281.96,-1710.41 1282.64,-1715.26"/>
</g>
<!-- Node0x5d9dda9dd960&#45;&gt;Node0x5d9ddab1bd60 -->
<g id="edge72" class="edge">
<title>Node0x5d9dda9dd960&#45;&gt;Node0x5d9ddab1bd60</title>
<path fill="none" stroke="#4a6fa5" d="M412.19,-3288.26C447.33,-3331.85 543.53,-3441.42 653,-3483 834.12,-3551.8 1063.47,-3538.91 1199.75,-3521.93"/>
<polygon fill="#4a6fa5" stroke="#4a6fa5" points="1200.34,-3524.32 1206.98,-3521.01 1199.73,-3519.46 1200.34,-3524.32"/>
</g>
<!-- Node0x5d9dda9dd960&#45;&gt;Node0x5d9dda9dd8e0 -->
<g id="edge73" class="edge">
<title>Node0x5d9dda9dd960&#45;&gt;Node0x5d9dda9dd8e0</title>
<path fill="none" stroke="#4a6fa5" d="M472.56,-3272.09C634.19,-3275.85 1005.63,-3280.1 1046,-3241 1224.69,-3067.97 965.09,-2309.42 1132,-2125 1144.27,-2111.44 1160.04,-2102.24 1177.19,-2096.13"/>
<polygon fill="#4a6fa5" stroke="#4a6fa5" points="1178.2,-2098.38 1184.08,-2093.86 1176.67,-2093.72 1178.2,-2098.38"/>
</g>
<!-- Node0x5d9dda9dd960&#45;&gt;Node0x5d9ddab1a830 -->
<g id="edge70" class="edge">
<title>Node0x5d9dda9dd960&#45;&gt;Node0x5d9ddab1a830</title>
<path fill="none" stroke="#4a6fa5" d="M472.71,-3284.16C623.96,-3311.01 959.4,-3360.78 1046,-3292 1178.2,-3187 1077.17,-3081.68 1132,-2922 1182.71,-2774.33 1270.13,-2607.92 1303.51,-2546.48"/>
<polygon fill="#4a6fa5" stroke="#4a6fa5" points="1305.74,-2547.5 1306.94,-2540.18 1301.44,-2545.16 1305.74,-2547.5"/>
</g>
<!-- Node0x5d9dda9dd960&#45;&gt;Node0x5d9ddab1a970 -->
<g id="edge71" class="edge">
<title>Node0x5d9dda9dd960&#45;&gt;Node0x5d9ddab1a970</title>
<path fill="none" stroke="#4a6fa5" d="M439.64,-3251.92C489.5,-3230.91 575.94,-3196.51 653,-3176 672.5,-3170.81 693.32,-3166.26 713.83,-3162.34"/>
<polygon fill="#4a6fa5" stroke="#4a6fa5" points="714.35,-3164.74 720.78,-3161.04 713.45,-3159.92 714.35,-3164.74"/>
</g>
<!-- Node0x5d9dda9dd960&#45;&gt;Node0x5d9ddab1f150 -->
<g id="edge68" class="edge">
<title>Node0x5d9dda9dd960&#45;&gt;Node0x5d9ddab1f150</title>
<path fill="none" stroke="#4a6fa5" d="M440.79,-3288.08C490.67,-3308.08 576.11,-3339.08 653,-3351 871.7,-3384.9 1135.16,-3347.29 1253.73,-3326.25"/>
<polygon fill="#4a6fa5" stroke="#4a6fa5" points="1254.19,-3328.66 1260.65,-3325.02 1253.32,-3323.84 1254.19,-3328.66"/>
</g>
<!-- Node0x5d9dda9dd960&#45;&gt;Node0x5d9ddab1da70 -->
<g id="edge69" class="edge">
<title>Node0x5d9dda9dd960&#45;&gt;Node0x5d9ddab1da70</title>
<path fill="none" stroke="#4a6fa5" d="M424.63,-3288.17C469.66,-3318.07 564.58,-3377.53 653,-3410 680.7,-3420.17 711.61,-3428 740.52,-3433.93"/>
<polygon fill="#4a6fa5" stroke="#4a6fa5" points="740.09,-3436.34 747.44,-3435.31 741.05,-3431.53 740.09,-3436.34"/>
</g>
<!-- Node0x5d9dda9dd960&#45;&gt;Node0x5d9ddab22be0 -->
<g id="edge74" class="edge">
<title>Node0x5d9dda9dd960&#45;&gt;Node0x5d9ddab22be0</title>
<path fill="none" stroke="#4a6fa5" d="M420.28,-3251.81C462.73,-3218.19 559.34,-3146.51 653,-3111 707.54,-3090.32 775.53,-3082.56 815.28,-3079.68"/>
<polygon fill="#4a6fa5" stroke="#4a6fa5" points="815.54,-3082.11 822.36,-3079.19 815.21,-3077.22 815.54,-3082.11"/>
</g>
<!-- Node0x5d9dda9dd960&#45;&gt;Node0x5d9ddab23360 -->
<g id="edge75" class="edge">
<title>Node0x5d9dda9dd960&#45;&gt;Node0x5d9ddab23360</title>
<path fill="none" stroke="#4a6fa5" d="M472.64,-3259.73C557.96,-3247.99 696.49,-3228.92 779.41,-3217.51"/>
<polygon fill="#4a6fa5" stroke="#4a6fa5" points="780.16,-3219.88 786.76,-3216.5 779.5,-3215.02 780.16,-3219.88"/>
</g>
<!-- Node0x5d9ddab1fc90&#45;&gt;Node0x5d9dda9dd8e0 -->
<g id="edge82" class="edge">
<title>Node0x5d9ddab1fc90&#45;&gt;Node0x5d9dda9dd8e0</title>
<path fill="none" stroke="#4a6fa5" d="M904.01,-2029.14C973.71,-2039.75 1097.72,-2058.63 1191.72,-2072.93"/>
<polygon fill="#4a6fa5" stroke="#4a6fa5" points="1191.43,-2075.37 1198.72,-2074 1192.17,-2070.52 1191.43,-2075.37"/>
</g>
<!-- Node0x5d9ddab1fc90&#45;&gt;Node0x5d9ddab1c930 -->
<g id="edge84" class="edge">
<title>Node0x5d9ddab1fc90&#45;&gt;Node0x5d9ddab1c930</title>
<path fill="none" stroke="#4a6fa5" d="M904.01,-2014.23C1001.16,-2001.95 1203.84,-1976.31 1283.66,-1966.22"/>
<polygon fill="#4a6fa5" stroke="#4a6fa5" points="1284.36,-1968.6 1291,-1965.29 1283.75,-1963.74 1284.36,-1968.6"/>
</g>
<!-- Node0x5d9ddab29ba0 -->
<g id="node68" class="node">
<title>Node0x5d9ddab29ba0</title>
<path fill="#f0f4ff" stroke="black" d="M1333,-2045C1333,-2045 1303,-2045 1303,-2045 1297,-2045 1291,-2039 1291,-2033 1291,-2033 1291,-2021 1291,-2021 1291,-2015 1297,-2009 1303,-2009 1303,-2009 1333,-2009 1333,-2009 1339,-2009 1345,-2015 1345,-2021 1345,-2021 1345,-2033 1345,-2033 1345,-2039 1339,-2045 1333,-2045"/>
<text text-anchor="middle" x="1318" y="-2024.8" font-family="Courier,monospace" font-size="9.00">{fopen}</text>
</g>
<!-- Node0x5d9ddab1fc90&#45;&gt;Node0x5d9ddab29ba0 -->
<g id="edge83" class="edge">
<title>Node0x5d9ddab1fc90&#45;&gt;Node0x5d9ddab29ba0</title>
<path fill="none" stroke="#4a6fa5" d="M904.01,-2021.69C1001.16,-2022.94 1203.84,-2025.54 1283.66,-2026.57"/>
<polygon fill="#4a6fa5" stroke="#4a6fa5" points="1283.97,-2029.03 1291,-2026.67 1284.03,-2024.13 1283.97,-2029.03"/>
</g>
<!-- Node0x5d9ddab29a60 -->
<g id="node69" class="node">
<title>Node0x5d9ddab29a60</title>
<path fill="#f0f4ff" stroke="black" d="M1633.5,-3363C1633.5,-3363 1603.5,-3363 1603.5,-3363 1597.5,-3363 1591.5,-3357 1591.5,-3351 1591.5,-3351 1591.5,-3339 1591.5,-3339 1591.5,-3333 1597.5,-3327 1603.5,-3327 1603.5,-3327 1633.5,-3327 1633.5,-3327 1639.5,-3327 1645.5,-3333 1645.5,-3339 1645.5,-3339 1645.5,-3351 1645.5,-3351 1645.5,-3357 1639.5,-3363 1633.5,-3363"/>
<text text-anchor="middle" x="1618.5" y="-3342.8" font-family="Courier,monospace" font-size="9.00">{feof}</text>
</g>
<!-- Node0x5d9ddab1f150&#45;&gt;Node0x5d9ddab29a60 -->
<g id="edge85" class="edge">
<title>Node0x5d9ddab1f150&#45;&gt;Node0x5d9ddab29a60</title>
<path fill="none" stroke="#4a6fa5" d="M1375.15,-3319.83C1436.8,-3326.23 1533.73,-3336.3 1584.3,-3341.55"/>
<polygon fill="#4a6fa5" stroke="#4a6fa5" points="1584.2,-3344 1591.42,-3342.29 1584.71,-3339.13 1584.2,-3344"/>
</g>
<!-- Node0x5d9ddab1da70&#45;&gt;Node0x5d9ddab1bd60 -->
<g id="edge90" class="edge">
<title>Node0x5d9ddab1da70&#45;&gt;Node0x5d9ddab1bd60</title>
<path fill="none" stroke="#4a6fa5" d="M951.72,-3461.5C1011.44,-3468.28 1088.37,-3477.03 1156.22,-3484.73"/>
<polygon fill="#4a6fa5" stroke="#4a6fa5" points="1155.95,-3487.17 1163.18,-3485.52 1156.5,-3482.3 1155.95,-3487.17"/>
</g>
<!-- Node0x5d9ddab1da70&#45;&gt;Node0x5d9ddab1eed0 -->
<g id="edge86" class="edge">
<title>Node0x5d9ddab1da70&#45;&gt;Node0x5d9ddab1eed0</title>
<path fill="none" stroke="#4a6fa5" d="M902.62,-3468.07C958.72,-3487.02 1050.85,-3516.67 1132,-3536 1151.51,-3540.65 1172.34,-3544.91 1192.71,-3548.71"/>
<polygon fill="#4a6fa5" stroke="#4a6fa5" points="1192.27,-3551.12 1199.6,-3549.98 1193.16,-3546.3 1192.27,-3551.12"/>
</g>
<!-- Node0x5d9ddab1da70&#45;&gt;Node0x5d9ddab1f150 -->
<g id="edge87" class="edge">
<title>Node0x5d9ddab1da70&#45;&gt;Node0x5d9ddab1f150</title>
<path fill="none" stroke="#4a6fa5" d="M951.6,-3436.78C982.61,-3430.77 1016.35,-3422.17 1046,-3410 1088.19,-3392.68 1089.9,-3371.55 1132,-3354 1170.81,-3337.82 1217.05,-3327.82 1253.59,-3321.86"/>
<polygon fill="#4a6fa5" stroke="#4a6fa5" points="1254.23,-3324.24 1260.76,-3320.73 1253.47,-3319.4 1254.23,-3324.24"/>
</g>
<!-- Node0x5d9ddab1da70&#45;&gt;Node0x5d9ddab230e0 -->
<g id="edge91" class="edge">
<title>Node0x5d9ddab1da70&#45;&gt;Node0x5d9ddab230e0</title>
<path fill="none" stroke="#4a6fa5" d="M902.93,-3431.84C944.95,-3415.43 1003.68,-3388.14 1046,-3351 1176.38,-3236.58 1273.7,-3046.24 1305.69,-2978.7"/>
<polygon fill="#4a6fa5" stroke="#4a6fa5" points="1307.99,-2979.56 1308.75,-2972.18 1303.55,-2977.47 1307.99,-2979.56"/>
</g>
<!-- Node0x5d9ddab1da70&#45;&gt;Node0x5d9ddab29a60 -->
<g id="edge89" class="edge">
<title>Node0x5d9ddab1da70&#45;&gt;Node0x5d9ddab29a60</title>
<path fill="none" stroke="#4a6fa5" d="M951.69,-3433.43C1005.24,-3424.85 1072.12,-3414.44 1132,-3406 1301.7,-3382.08 1505.45,-3357.98 1584.19,-3348.84"/>
<polygon fill="#4a6fa5" stroke="#4a6fa5" points="1584.74,-3351.24 1591.41,-3348 1584.18,-3346.37 1584.74,-3351.24"/>
</g>
<!-- Node0x5d9ddab29920 -->
<g id="node70" class="node">
<title>Node0x5d9ddab29920</title>
<path fill="#f0f4ff" stroke="black" d="M1333,-3456C1333,-3456 1303,-3456 1303,-3456 1297,-3456 1291,-3450 1291,-3444 1291,-3444 1291,-3432 1291,-3432 1291,-3426 1297,-3420 1303,-3420 1303,-3420 1333,-3420 1333,-3420 1339,-3420 1345,-3426 1345,-3432 1345,-3432 1345,-3444 1345,-3444 1345,-3450 1339,-3456 1333,-3456"/>
<text text-anchor="middle" x="1318" y="-3435.8" font-family="Courier,monospace" font-size="9.00">{fgetc}</text>
</g>
<!-- Node0x5d9ddab1da70&#45;&gt;Node0x5d9ddab29920 -->
<g id="edge88" class="edge">
<title>Node0x5d9ddab1da70&#45;&gt;Node0x5d9ddab29920</title>
<path fill="none" stroke="#4a6fa5" d="M951.72,-3447.4C1056.95,-3444.69 1215.64,-3440.61 1283.88,-3438.85"/>
<polygon fill="#4a6fa5" stroke="#4a6fa5" points="1284.04,-3441.3 1290.97,-3438.67 1283.91,-3436.4 1284.04,-3441.3"/>
</g>
<!-- Node0x5d9ddab226e0&#45;&gt;Node0x5d9ddab1a830 -->
<g id="edge92" class="edge">
<title>Node0x5d9ddab226e0&#45;&gt;Node0x5d9ddab1a830</title>
<path fill="none" stroke="#4a6fa5" d="M1001.77,-2222.09C1017.46,-2227.65 1032.55,-2234.82 1046,-2244 1104.12,-2283.71 1084.54,-2325.02 1132,-2377 1177.97,-2427.34 1242.73,-2473.73 1282.17,-2499.89"/>
<polygon fill="#4a6fa5" stroke="#4a6fa5" points="1281.09,-2502.1 1288.28,-2503.91 1283.78,-2498.01 1281.09,-2502.1"/>
</g>
<!-- Node0x5d9ddab296a0 -->
<g id="node71" class="node">
<title>Node0x5d9ddab296a0</title>
<path fill="#f0f4ff" stroke="black" d="M1402.5,-2362C1402.5,-2362 1233.5,-2362 1233.5,-2362 1227.5,-2362 1221.5,-2356 1221.5,-2350 1221.5,-2350 1221.5,-2338 1221.5,-2338 1221.5,-2332 1227.5,-2326 1233.5,-2326 1233.5,-2326 1402.5,-2326 1402.5,-2326 1408.5,-2326 1414.5,-2332 1414.5,-2338 1414.5,-2338 1414.5,-2350 1414.5,-2350 1414.5,-2356 1408.5,-2362 1402.5,-2362"/>
<text text-anchor="middle" x="1318" y="-2341.8" font-family="Courier,monospace" font-size="9.00">{std::char_traits&lt;char&gt;::length()}</text>
</g>
<!-- Node0x5d9ddab226e0&#45;&gt;Node0x5d9ddab296a0 -->
<g id="edge93" class="edge">
<title>Node0x5d9ddab226e0&#45;&gt;Node0x5d9ddab296a0</title>
<path fill="none" stroke="#4a6fa5" d="M953.43,-2222.02C983.5,-2228.1 1016.26,-2235.52 1046,-2244 1124.86,-2266.48 1213.53,-2301.03 1267.32,-2323.07"/>
<polygon fill="#4a6fa5" stroke="#4a6fa5" points="1266.62,-2325.43 1274.02,-2325.83 1268.48,-2320.9 1266.62,-2325.43"/>
</g>
<!-- Node0x5d9ddab29560 -->
<g id="node72" class="node">
<title>Node0x5d9ddab29560</title>
<path fill="#f0f4ff" stroke="black" d="M1436.5,-2240C1436.5,-2240 1199.5,-2240 1199.5,-2240 1193.5,-2240 1187.5,-2234 1187.5,-2228 1187.5,-2228 1187.5,-2216 1187.5,-2216 1187.5,-2210 1193.5,-2204 1199.5,-2204 1199.5,-2204 1436.5,-2204 1436.5,-2204 1442.5,-2204 1448.5,-2210 1448.5,-2216 1448.5,-2216 1448.5,-2228 1448.5,-2228 1448.5,-2234 1442.5,-2240 1436.5,-2240"/>
<text text-anchor="middle" x="1318" y="-2219.8" font-family="Courier,monospace" font-size="9.00">{basic_string&lt;char, std::char_traits &gt;::data()}</text>
</g>
<!-- Node0x5d9ddab226e0&#45;&gt;Node0x5d9ddab29560 -->
<g id="edge94" class="edge">
<title>Node0x5d9ddab226e0&#45;&gt;Node0x5d9ddab29560</title>
<path fill="none" stroke="#4a6fa5" d="M1046.31,-2211.56C1091.33,-2213.29 1138.26,-2215.1 1180.16,-2216.72"/>
<polygon fill="#4a6fa5" stroke="#4a6fa5" points="1180.29,-2219.18 1187.37,-2217 1180.47,-2214.28 1180.29,-2219.18"/>
</g>
<!-- Node0x5d9ddab29da0 -->
<g id="node73" class="node">
<title>Node0x5d9ddab29da0</title>
<path fill="#f0f4ff" stroke="black" d="M1405,-2175C1405,-2175 1231,-2175 1231,-2175 1225,-2175 1219,-2169 1219,-2163 1219,-2163 1219,-2151 1219,-2151 1219,-2145 1225,-2139 1231,-2139 1231,-2139 1405,-2139 1405,-2139 1411,-2139 1417,-2145 1417,-2151 1417,-2151 1417,-2163 1417,-2163 1417,-2169 1411,-2175 1405,-2175"/>
<text text-anchor="middle" x="1318" y="-2154.8" font-family="Courier,monospace" font-size="9.00">{std::char_traits&lt;char&gt;::compare()}</text>
</g>
<!-- Node0x5d9ddab226e0&#45;&gt;Node0x5d9ddab29da0 -->
<g id="edge95" class="edge">
<title>Node0x5d9ddab226e0&#45;&gt;Node0x5d9ddab29da0</title>
<path fill="none" stroke="#4a6fa5" d="M1029.19,-2186C1090.83,-2179.79 1157.84,-2173.04 1211.69,-2167.61"/>
<polygon fill="#4a6fa5" stroke="#4a6fa5" points="1212.14,-2170.03 1218.86,-2166.89 1211.65,-2165.15 1212.14,-2170.03"/>
</g>
<!-- Node0x5d9ddab21ac0&#45;&gt;Node0x5d9ddab1bd60 -->
<g id="edge98" class="edge">
<title>Node0x5d9ddab21ac0&#45;&gt;Node0x5d9ddab1bd60</title>
<path fill="none" stroke="#4a6fa5" d="M972.69,-2956.49C999.95,-2962.69 1026.51,-2974.05 1046,-2994 1196.53,-3148.1 979.14,-3319.22 1132,-3471 1139.42,-3478.37 1147.89,-3484.4 1157.03,-3489.3"/>
<polygon fill="#4a6fa5" stroke="#4a6fa5" points="1156.1,-3491.57 1163.46,-3492.51 1158.29,-3487.19 1156.1,-3491.57"/>
</g>
<!-- Node0x5d9ddab21ac0&#45;&gt;Node0x5d9ddab1eed0 -->
<g id="edge96" class="edge">
<title>Node0x5d9ddab21ac0&#45;&gt;Node0x5d9ddab1eed0</title>
<path fill="none" stroke="#4a6fa5" d="M928.34,-2972.02C969.5,-2985.57 1017.31,-3008.44 1046,-3046 1180.22,-3221.7 975.46,-3379.85 1132,-3536 1140.12,-3544.1 1149.51,-3550.58 1159.66,-3555.73"/>
<polygon fill="#4a6fa5" stroke="#4a6fa5" points="1158.69,-3557.99 1166.07,-3558.77 1160.79,-3553.56 1158.69,-3557.99"/>
</g>
<!-- Node0x5d9ddab21ac0&#45;&gt;Node0x5d9ddab230e0 -->
<g id="edge97" class="edge">
<title>Node0x5d9ddab21ac0&#45;&gt;Node0x5d9ddab230e0</title>
<path fill="none" stroke="#4a6fa5" d="M972.76,-2954C1024.02,-2954 1084.61,-2954 1140.55,-2954"/>
<polygon fill="#4a6fa5" stroke="#4a6fa5" points="1140.7,-2956.45 1147.7,-2954 1140.7,-2951.55 1140.7,-2956.45"/>
</g>
<!-- Node0x5d9ddab23ae0 -->
<g id="node63" class="node">
<title>Node0x5d9ddab23ae0</title>
<path fill="#f0f4ff" stroke="black" d="M123.5,-7900C123.5,-7900 17.5,-7900 17.5,-7900 11.5,-7900 5.5,-7894 5.5,-7888 5.5,-7888 5.5,-7876 5.5,-7876 5.5,-7870 11.5,-7864 17.5,-7864 17.5,-7864 123.5,-7864 123.5,-7864 129.5,-7864 135.5,-7870 135.5,-7876 135.5,-7876 135.5,-7888 135.5,-7888 135.5,-7894 129.5,-7900 123.5,-7900"/>
<text text-anchor="middle" x="70.5" y="-7879.8" font-family="Courier,monospace" font-size="9.00">{__gxx_personality_v0}</text>
</g>
<!-- Node0x5d9ddab24960 -->
<g id="node74" class="node">
<title>Node0x5d9ddab24960</title>
<path fill="#f0f4ff" stroke="black" d="M1363,-1791C1363,-1791 1273,-1791 1273,-1791 1267,-1791 1261,-1785 1261,-1779 1261,-1779 1261,-1767 1261,-1767 1261,-1761 1267,-1755 1273,-1755 1273,-1755 1363,-1755 1363,-1755 1369,-1755 1375,-1761 1375,-1767 1375,-1767 1375,-1779 1375,-1779 1375,-1785 1369,-1791 1363,-1791"/>
<text text-anchor="middle" x="1318" y="-1770.8" font-family="Courier,monospace" font-size="9.00">{__cxa_begin_catch}</text>
</g>
<!-- Node0x5d9ddab234a0&#45;&gt;Node0x5d9ddab24960 -->
<g id="edge101" class="edge">
<title>Node0x5d9ddab234a0&#45;&gt;Node0x5d9ddab24960</title>
<path fill="none" stroke="#4a6fa5" d="M920.09,-1828.3C1010.38,-1815.72 1166.65,-1793.95 1253.73,-1781.82"/>
<polygon fill="#4a6fa5" stroke="#4a6fa5" points="1254.32,-1784.21 1260.91,-1780.82 1253.64,-1779.35 1254.32,-1784.21"/>
</g>
<!-- Node0x5d9ddab29760 -->
<g id="node75" class="node">
<title>Node0x5d9ddab29760</title>
<path fill="#f0f4ff" stroke="black" d="M1360.5,-1856C1360.5,-1856 1275.5,-1856 1275.5,-1856 1269.5,-1856 1263.5,-1850 1263.5,-1844 1263.5,-1844 1263.5,-1832 1263.5,-1832 1263.5,-1826 1269.5,-1820 1275.5,-1820 1275.5,-1820 1360.5,-1820 1360.5,-1820 1366.5,-1820 1372.5,-1826 1372.5,-1832 1372.5,-1832 1372.5,-1844 1372.5,-1844 1372.5,-1850 1366.5,-1856 1360.5,-1856"/>
<text text-anchor="middle" x="1318" y="-1835.8" font-family="Courier,monospace" font-size="9.00">{std::terminate()}</text>
</g>
<!-- Node0x5d9ddab234a0&#45;&gt;Node0x5d9ddab29760 -->
<g id="edge102" class="edge">
<title>Node0x5d9ddab234a0&#45;&gt;Node0x5d9ddab29760</title>
<path fill="none" stroke="#4a6fa5" d="M920.09,-1838C1011.25,-1838 1169.64,-1838 1256.22,-1838"/>
<polygon fill="#4a6fa5" stroke="#4a6fa5" points="1256.34,-1840.45 1263.34,-1838 1256.34,-1835.55 1256.34,-1840.45"/>
</g>
<!-- Node0x5d9ddab296a0&#45;&gt;Node0x5d9ddab1d270 -->
<g id="edge99" class="edge">
<title>Node0x5d9ddab296a0&#45;&gt;Node0x5d9ddab1d270</title>
<path fill="none" stroke="#4a6fa5" d="M1350.96,-2362.04C1391.51,-2386.38 1461.31,-2433.28 1504,-2490 1565.4,-2571.59 1599.29,-2691.07 1611.82,-2742.69"/>
<polygon fill="#4a6fa5" stroke="#4a6fa5" points="1609.51,-2743.57 1613.51,-2749.81 1614.27,-2742.43 1609.51,-2743.57"/>
</g>
<!-- Node0x5d9ddab29da0&#45;&gt;Node0x5d9ddab18ee0 -->
<g id="edge100" class="edge">
<title>Node0x5d9ddab29da0&#45;&gt;Node0x5d9ddab18ee0</title>
<path fill="none" stroke="#4a6fa5" d="M1417.03,-2149.98C1446.02,-2145.3 1477.15,-2137.61 1504,-2125 1541.36,-2107.45 1576.15,-2074.2 1597.12,-2051.58"/>
<polygon fill="#4a6fa5" stroke="#4a6fa5" points="1598.98,-2053.17 1601.89,-2046.35 1595.36,-2049.87 1598.98,-2053.17"/>
</g>
</g>
</svg>
