<?xml version="1.0" encoding="UTF-8" standalone="no"?>
<!DOCTYPE svg PUBLIC "-//W3C//DTD SVG 1.1//EN"
 "http://www.w3.org/Graphics/SVG/1.1/DTD/svg11.dtd">
<!-- Generated by graphviz version 2.43.0 (0)
 -->
<!-- Title: Call graph: /home/h02332/po/research/call&#45;graph/cfl/icc_spectral_fuzzer.ll Pages: 1 -->
<svg width="9865pt" height="433pt"
 viewBox="0.00 0.00 9865.00 433.00" xmlns="http://www.w3.org/2000/svg" xmlns:xlink="http://www.w3.org/1999/xlink">
<g id="graph0" class="graph" transform="scale(1 1) rotate(0) translate(4 429)">
<title>Call graph: /home/h02332/po/research/call&#45;graph/cfl/icc_spectral_fuzzer.ll</title>
<polygon fill="white" stroke="transparent" points="-4,4 -4,-429 9861,-429 9861,4 -4,4"/>
<text text-anchor="middle" x="4928.5" y="-7.8" font-family="Times,serif" font-size="14.00">Call graph: /home/h02332/po/research/call&#45;graph/cfl/icc_spectral_fuzzer.ll</text>
<!-- Node0x6386b0000c10 -->
<g id="node1" class="node">
<title>Node0x6386b0000c10</title>
<polygon fill="none" stroke="black" points="3858.5,-388.5 3858.5,-424.5 4061.5,-424.5 4061.5,-388.5 3858.5,-388.5"/>
<text text-anchor="middle" x="3960" y="-402.8" font-family="Times,serif" font-size="14.00">LLVMFuzzerTestOneInput</text>
</g>
<!-- Node0x6386b009b170 -->
<g id="node2" class="node">
<title>Node0x6386b009b170</title>
<polygon fill="none" stroke="black" points="0,-315.5 0,-351.5 176,-351.5 176,-315.5 0,-315.5"/>
<text text-anchor="middle" x="88" y="-329.8" font-family="Times,serif" font-size="14.00">_ZN9CIccMemIOC1Ev</text>
</g>
<!-- Node0x6386b0000c10&#45;&gt;Node0x6386b009b170 -->
<g id="edge1" class="edge">
<title>Node0x6386b0000c10&#45;&gt;Node0x6386b009b170</title>
<path fill="none" stroke="black" d="M3858.13,-405.06C3298.11,-402.49 604.36,-388.39 186.22,-351.97"/>
<polygon fill="black" stroke="black" points="186.48,-348.48 176.2,-351.05 185.84,-355.45 186.48,-348.48"/>
</g>
<!-- Node0x6386b009b200 -->
<g id="node3" class="node">
<title>Node0x6386b009b200</title>
<polygon fill="none" stroke="black" points="194.5,-315.5 194.5,-351.5 439.5,-351.5 439.5,-315.5 194.5,-315.5"/>
<text text-anchor="middle" x="317" y="-329.8" font-family="Times,serif" font-size="14.00">_ZN9CIccMemIO6AttachEPhmb</text>
</g>
<!-- Node0x6386b0000c10&#45;&gt;Node0x6386b009b200 -->
<g id="edge2" class="edge">
<title>Node0x6386b0000c10&#45;&gt;Node0x6386b009b200</title>
<path fill="none" stroke="black" d="M3858.28,-405.57C3358.34,-405.65 1157.79,-403.09 449.74,-352.07"/>
<polygon fill="black" stroke="black" points="449.91,-348.57 439.68,-351.33 449.4,-355.55 449.91,-348.57"/>
</g>
<!-- Node0x6386affc0a30 -->
<g id="node4" class="node">
<title>Node0x6386affc0a30</title>
<polygon fill="none" stroke="black" points="457.5,-315.5 457.5,-351.5 636.5,-351.5 636.5,-315.5 457.5,-315.5"/>
<text text-anchor="middle" x="547" y="-329.8" font-family="Times,serif" font-size="14.00">_ZN11CIccProfileC1Ev</text>
</g>
<!-- Node0x6386b0000c10&#45;&gt;Node0x6386affc0a30 -->
<g id="edge3" class="edge">
<title>Node0x6386b0000c10&#45;&gt;Node0x6386affc0a30</title>
<path fill="none" stroke="black" d="M3858.44,-404.83C3341.8,-401.31 1015.83,-383.86 646.74,-352.02"/>
<polygon fill="black" stroke="black" points="646.92,-348.53 636.64,-351.1 646.28,-355.5 646.92,-348.53"/>
</g>
<!-- Node0x6386affbfdc0 -->
<g id="node5" class="node">
<title>Node0x6386affbfdc0</title>
<polygon fill="none" stroke="black" points="654.5,-315.5 654.5,-351.5 925.5,-351.5 925.5,-315.5 654.5,-315.5"/>
<text text-anchor="middle" x="790" y="-329.8" font-family="Times,serif" font-size="14.00">_ZN11CIccProfile4ReadEP6CIccIOb</text>
</g>
<!-- Node0x6386b0000c10&#45;&gt;Node0x6386affbfdc0 -->
<g id="edge4" class="edge">
<title>Node0x6386b0000c10&#45;&gt;Node0x6386affbfdc0</title>
<path fill="none" stroke="black" d="M3858.3,-405.1C3402.41,-403.11 1543.26,-392.64 935.97,-352.01"/>
<polygon fill="black" stroke="black" points="936.02,-348.5 925.8,-351.32 935.54,-355.49 936.02,-348.5"/>
</g>
<!-- Node0x6386affc0980 -->
<g id="node6" class="node">
<title>Node0x6386affc0980</title>
<polygon fill="none" stroke="black" points="944,-315.5 944,-351.5 1166,-351.5 1166,-315.5 944,-315.5"/>
<text text-anchor="middle" x="1055" y="-329.8" font-family="Times,serif" font-size="14.00">_ZN11CIccProfile7FindTagEj</text>
</g>
<!-- Node0x6386b0000c10&#45;&gt;Node0x6386affc0980 -->
<g id="edge5" class="edge">
<title>Node0x6386b0000c10&#45;&gt;Node0x6386affc0980</title>
<path fill="none" stroke="black" d="M3858.43,-405.26C3425.63,-403.97 1732.64,-396.22 1176.21,-352.02"/>
<polygon fill="black" stroke="black" points="1176.34,-348.52 1166.09,-351.2 1175.77,-355.5 1176.34,-348.52"/>
</g>
<!-- Node0x6386affbfe30 -->
<g id="node7" class="node">
<title>Node0x6386affbfe30</title>
<polygon fill="none" stroke="black" points="1184.5,-315.5 1184.5,-351.5 1651.5,-351.5 1651.5,-315.5 1184.5,-315.5"/>
<text text-anchor="middle" x="1418" y="-329.8" font-family="Times,serif" font-size="14.00">_ZNSt7__cxx1112basic_stringIcSt11char_traitsIcESaIcEEC1Ev</text>
</g>
<!-- Node0x6386b0000c10&#45;&gt;Node0x6386affbfe30 -->
<g id="edge6" class="edge">
<title>Node0x6386b0000c10&#45;&gt;Node0x6386affbfe30</title>
<path fill="none" stroke="black" d="M3858.25,-404.9C3537.34,-402.61 2517.68,-392.49 1661.18,-351.99"/>
<polygon fill="black" stroke="black" points="1661.26,-348.49 1651.11,-351.51 1660.93,-355.48 1661.26,-348.49"/>
</g>
<!-- Node0x6386b00a1a30 -->
<g id="node8" class="node">
<title>Node0x6386b00a1a30</title>
<polygon fill="none" stroke="black" points="1670,-315.5 1670,-351.5 1846,-351.5 1846,-315.5 1670,-315.5"/>
<text text-anchor="middle" x="1758" y="-329.8" font-family="Times,serif" font-size="14.00">_ZN9CIccMemIOD1Ev</text>
</g>
<!-- Node0x6386b0000c10&#45;&gt;Node0x6386b00a1a30 -->
<g id="edge7" class="edge">
<title>Node0x6386b0000c10&#45;&gt;Node0x6386b00a1a30</title>
<path fill="none" stroke="black" d="M3858.33,-404.98C3496.45,-402.81 2271.07,-392.63 1856.45,-352.03"/>
<polygon fill="black" stroke="black" points="1856.51,-348.52 1846.21,-351 1855.81,-355.48 1856.51,-348.52"/>
</g>
<!-- Node0x6386affc06e0 -->
<g id="node9" class="node">
<title>Node0x6386affc06e0</title>
<polygon fill="none" stroke="black" points="1864,-315.5 1864,-351.5 2078,-351.5 2078,-315.5 1864,-315.5"/>
<text text-anchor="middle" x="1971" y="-329.8" font-family="Times,serif" font-size="14.00">_ZN9CIccMemIO5AllocEmb</text>
</g>
<!-- Node0x6386b0000c10&#45;&gt;Node0x6386affc06e0 -->
<g id="edge8" class="edge">
<title>Node0x6386b0000c10&#45;&gt;Node0x6386affc06e0</title>
<path fill="none" stroke="black" d="M3858.36,-404.22C3523.43,-399.76 2455.48,-383.45 2088.2,-352.02"/>
<polygon fill="black" stroke="black" points="2088.34,-348.52 2078.07,-351.14 2087.73,-355.49 2088.34,-348.52"/>
</g>
<!-- Node0x6386b00aa560 -->
<g id="node10" class="node">
<title>Node0x6386b00aa560</title>
<polygon fill="none" stroke="black" points="2096.5,-315.5 2096.5,-351.5 2275.5,-351.5 2275.5,-315.5 2096.5,-315.5"/>
<text text-anchor="middle" x="2186" y="-329.8" font-family="Times,serif" font-size="14.00">_ZN11CIccProfileD1Ev</text>
</g>
<!-- Node0x6386b0000c10&#45;&gt;Node0x6386b00aa560 -->
<g id="edge9" class="edge">
<title>Node0x6386b0000c10&#45;&gt;Node0x6386b00aa560</title>
<path fill="none" stroke="black" d="M3858.47,-404.19C3547.85,-399.87 2612.21,-384.56 2286.06,-352.11"/>
<polygon fill="black" stroke="black" points="2285.95,-348.58 2275.65,-351.04 2285.24,-355.54 2285.95,-348.58"/>
</g>
<!-- Node0x6386affc0900 -->
<g id="node11" class="node">
<title>Node0x6386affc0900</title>
<polygon fill="none" stroke="black" points="2293.5,-315.5 2293.5,-351.5 2760.5,-351.5 2760.5,-315.5 2293.5,-315.5"/>
<text text-anchor="middle" x="2527" y="-329.8" font-family="Times,serif" font-size="14.00">_ZNSt7__cxx1112basic_stringIcSt11char_traitsIcESaIcEED1Ev</text>
</g>
<!-- Node0x6386b0000c10&#45;&gt;Node0x6386affc0900 -->
<g id="edge10" class="edge">
<title>Node0x6386b0000c10&#45;&gt;Node0x6386affc0900</title>
<path fill="none" stroke="black" d="M3858.11,-401.77C3653,-394.07 3175.65,-375.18 2775,-352 2773.67,-351.92 2772.33,-351.85 2770.99,-351.77"/>
<polygon fill="black" stroke="black" points="2770.83,-348.25 2760.64,-351.15 2770.42,-355.24 2770.83,-348.25"/>
</g>
<!-- Node0x6386b00aa7e0 -->
<g id="node12" class="node">
<title>Node0x6386b00aa7e0</title>
<polygon fill="none" stroke="black" points="2816.5,-315.5 2816.5,-351.5 3143.5,-351.5 3143.5,-315.5 2816.5,-315.5"/>
<text text-anchor="middle" x="2980" y="-329.8" font-family="Times,serif" font-size="14.00">_ZNSt14_List_iteratorI11IccTagEntryEppEi</text>
</g>
<!-- Node0x6386b0000c10&#45;&gt;Node0x6386b00aa7e0 -->
<g id="edge11" class="edge">
<title>Node0x6386b0000c10&#45;&gt;Node0x6386b00aa7e0</title>
<path fill="none" stroke="black" d="M3858.2,-399.77C3705.68,-390.94 3408.86,-372.84 3157,-352 3156.06,-351.92 3155.11,-351.84 3154.16,-351.76"/>
<polygon fill="black" stroke="black" points="3154.18,-348.25 3143.92,-350.89 3153.59,-355.23 3154.18,-348.25"/>
</g>
<!-- Node0x6386b00a5070 -->
<g id="node13" class="node">
<title>Node0x6386b00a5070</title>
<polygon fill="none" stroke="black" points="138.5,-169.5 138.5,-205.5 391.5,-205.5 391.5,-169.5 138.5,-169.5"/>
<text text-anchor="middle" x="265" y="-183.8" font-family="Times,serif" font-size="14.00">_ZNSt15__new_allocatorIcED2Ev</text>
</g>
<!-- Node0x6386b0000c10&#45;&gt;Node0x6386b00a5070 -->
<g id="edge12" class="edge">
<title>Node0x6386b0000c10&#45;&gt;Node0x6386b00a5070</title>
<path fill="none" stroke="black" d="M3858.33,-402.33C3663.05,-395.67 3249.48,-378.61 3190,-352 3168.48,-342.37 3173.67,-324.28 3152,-315 2953.92,-230.18 2381.08,-363.82 2183,-279 2161.33,-269.72 2166.74,-251.1 2145,-242 2057.69,-205.46 570.45,-212.85 401.78,-205.88"/>
<polygon fill="black" stroke="black" points="401.96,-202.39 391.79,-205.34 401.59,-209.38 401.96,-202.39"/>
</g>
<!-- Node0x6386b00a9a20 -->
<g id="node14" class="node">
<title>Node0x6386b00a9a20</title>
<polygon fill="none" stroke="black" points="3791,-315.5 3791,-351.5 4129,-351.5 4129,-315.5 3791,-315.5"/>
<text text-anchor="middle" x="3960" y="-329.8" font-family="Times,serif" font-size="14.00">_ZNKSt14_List_iteratorI11IccTagEntryEptEv</text>
</g>
<!-- Node0x6386b0000c10&#45;&gt;Node0x6386b00a9a20 -->
<g id="edge13" class="edge">
<title>Node0x6386b0000c10&#45;&gt;Node0x6386b00a9a20</title>
<path fill="none" stroke="black" d="M3960,-388.31C3960,-380.29 3960,-370.55 3960,-361.57"/>
<polygon fill="black" stroke="black" points="3963.5,-361.53 3960,-351.53 3956.5,-361.53 3963.5,-361.53"/>
</g>
<!-- Node0x6386affbf5d0 -->
<g id="node15" class="node">
<title>Node0x6386affbf5d0</title>
<polygon fill="none" stroke="black" points="4587.5,-315.5 4587.5,-351.5 5030.5,-351.5 5030.5,-315.5 4587.5,-315.5"/>
<text text-anchor="middle" x="4809" y="-329.8" font-family="Times,serif" font-size="14.00">_ZN11CIccProfile13FindTagOfTypeEj18icTagTypeSignature</text>
</g>
<!-- Node0x6386b0000c10&#45;&gt;Node0x6386affbf5d0 -->
<g id="edge14" class="edge">
<title>Node0x6386b0000c10&#45;&gt;Node0x6386affbf5d0</title>
<path fill="none" stroke="black" d="M4061.54,-389.02C4064.39,-388.66 4067.21,-388.32 4070,-388 4291.57,-362.57 4350.54,-368.37 4577.17,-352.05"/>
<polygon fill="black" stroke="black" points="4577.67,-355.53 4587.39,-351.31 4577.16,-348.54 4577.67,-355.53"/>
</g>
<!-- Node0x6386b00a4880 -->
<g id="node16" class="node">
<title>Node0x6386b00a4880</title>
<polygon fill="none" stroke="black" points="5049,-315.5 5049,-351.5 5175,-351.5 5175,-315.5 5049,-315.5"/>
<text text-anchor="middle" x="5112" y="-329.8" font-family="Times,serif" font-size="14.00">__dynamic_cast</text>
</g>
<!-- Node0x6386b0000c10&#45;&gt;Node0x6386b00a4880 -->
<g id="edge15" class="edge">
<title>Node0x6386b0000c10&#45;&gt;Node0x6386b00a4880</title>
<path fill="none" stroke="black" d="M4061.53,-388.89C4064.38,-388.57 4067.21,-388.27 4070,-388 4495.57,-346.4 4610.24,-409.52 5038.66,-351.84"/>
<polygon fill="black" stroke="black" points="5039.4,-355.27 5048.84,-350.45 5038.46,-348.33 5039.4,-355.27"/>
</g>
<!-- Node0x6386b00a9160 -->
<g id="node17" class="node">
<title>Node0x6386b00a9160</title>
<polygon fill="none" stroke="black" points="5193,-315.5 5193,-351.5 5555,-351.5 5555,-315.5 5193,-315.5"/>
<text text-anchor="middle" x="5374" y="-329.8" font-family="Times,serif" font-size="14.00">_ZStneRKSt14_List_iteratorI11IccTagEntryES3_</text>
</g>
<!-- Node0x6386b0000c10&#45;&gt;Node0x6386b00a9160 -->
<g id="edge16" class="edge">
<title>Node0x6386b0000c10&#45;&gt;Node0x6386b00a9160</title>
<path fill="none" stroke="black" d="M4061.53,-388.87C4064.38,-388.56 4067.21,-388.27 4070,-388 4559.76,-341.31 4687.84,-382.16 5182.73,-352.05"/>
<polygon fill="black" stroke="black" points="5183.23,-355.53 5193,-351.42 5182.8,-348.54 5183.23,-355.53"/>
</g>
<!-- Node0x6386b00a93e0 -->
<g id="node18" class="node">
<title>Node0x6386b00a93e0</title>
<polygon fill="none" stroke="black" points="5573,-315.5 5573,-351.5 5963,-351.5 5963,-315.5 5573,-315.5"/>
<text text-anchor="middle" x="5768" y="-329.8" font-family="Times,serif" font-size="14.00">_ZNSt7__cxx114listI11IccTagEntrySaIS1_EE3endEv</text>
</g>
<!-- Node0x6386b0000c10&#45;&gt;Node0x6386b00a93e0 -->
<g id="edge17" class="edge">
<title>Node0x6386b0000c10&#45;&gt;Node0x6386b00a93e0</title>
<path fill="none" stroke="black" d="M4061.53,-388.84C4064.38,-388.54 4067.21,-388.25 4070,-388 4728.06,-328 4899.06,-387.78 5562.55,-352.06"/>
<polygon fill="black" stroke="black" points="5563.05,-355.53 5572.85,-351.5 5562.67,-348.54 5563.05,-355.53"/>
</g>
<!-- Node0x6386b00a5980 -->
<g id="node19" class="node">
<title>Node0x6386b00a5980</title>
<polygon fill="none" stroke="black" points="6403,-315.5 6403,-351.5 6997,-351.5 6997,-315.5 6403,-315.5"/>
<text text-anchor="middle" x="6700" y="-329.8" font-family="Times,serif" font-size="14.00">_ZNK32CIccTagSpectralViewingConditions13getIlluminantER15icSpectralRange</text>
</g>
<!-- Node0x6386b0000c10&#45;&gt;Node0x6386b00a5980 -->
<g id="edge18" class="edge">
<title>Node0x6386b0000c10&#45;&gt;Node0x6386b00a5980</title>
<path fill="none" stroke="black" d="M4061.52,-388.81C4064.38,-388.51 4067.21,-388.24 4070,-388 4584.57,-343.31 5877.83,-370.75 6394,-352 6394.93,-351.97 6395.86,-351.93 6396.8,-351.9"/>
<polygon fill="black" stroke="black" points="6397,-355.39 6406.86,-351.51 6396.73,-348.4 6397,-355.39"/>
</g>
<!-- Node0x6386b00a9660 -->
<g id="node20" class="node">
<title>Node0x6386b00a9660</title>
<polygon fill="none" stroke="black" points="1954,-242.5 1954,-278.5 2136,-278.5 2136,-242.5 1954,-242.5"/>
<text text-anchor="middle" x="2045" y="-256.8" font-family="Times,serif" font-size="14.00">llvm.memcpy.p0.p0.i64</text>
</g>
<!-- Node0x6386b0000c10&#45;&gt;Node0x6386b00a9660 -->
<g id="edge19" class="edge">
<title>Node0x6386b0000c10&#45;&gt;Node0x6386b00a9660</title>
<path fill="none" stroke="black" d="M3858.47,-404.89C3594.76,-402.74 2901.97,-393.19 2807,-352 2785.37,-342.62 2790.57,-324.51 2769,-315 2642.91,-259.44 2286.93,-294.35 2150,-279 2148.88,-278.87 2147.74,-278.74 2146.61,-278.61"/>
<polygon fill="black" stroke="black" points="2146.62,-275.08 2136.26,-277.31 2145.75,-282.03 2146.62,-275.08"/>
</g>
<!-- Node0x6386b00a54a0 -->
<g id="node21" class="node">
<title>Node0x6386b00a54a0</title>
<polygon fill="none" stroke="black" points="3199,-315.5 3199,-351.5 3773,-351.5 3773,-315.5 3199,-315.5"/>
<text text-anchor="middle" x="3486" y="-329.8" font-family="Times,serif" font-size="14.00">_ZNSt7__cxx1112basic_stringIcSt11char_traitsIcESaIcEEC2IS3_EEPKcRKS3_</text>
</g>
<!-- Node0x6386b0000c10&#45;&gt;Node0x6386b00a54a0 -->
<g id="edge20" class="edge">
<title>Node0x6386b0000c10&#45;&gt;Node0x6386b00a54a0</title>
<path fill="none" stroke="black" d="M3858.32,-390.27C3785.55,-379.37 3687.2,-364.64 3609.85,-353.05"/>
<polygon fill="black" stroke="black" points="3609.97,-349.53 3599.56,-351.51 3608.93,-356.45 3609.97,-349.53"/>
</g>
<!-- Node0x6386b00a8ee0 -->
<g id="node22" class="node">
<title>Node0x6386b00a8ee0</title>
<polygon fill="none" stroke="black" points="5981,-315.5 5981,-351.5 6385,-351.5 6385,-315.5 5981,-315.5"/>
<text text-anchor="middle" x="6183" y="-329.8" font-family="Times,serif" font-size="14.00">_ZNSt7__cxx114listI11IccTagEntrySaIS1_EE5beginEv</text>
</g>
<!-- Node0x6386b0000c10&#45;&gt;Node0x6386b00a8ee0 -->
<g id="edge21" class="edge">
<title>Node0x6386b0000c10&#45;&gt;Node0x6386b00a8ee0</title>
<path fill="none" stroke="black" d="M4061.52,-388.82C4064.38,-388.52 4067.21,-388.25 4070,-388 4908.79,-313.7 5125.86,-394.31 5970.87,-352.03"/>
<polygon fill="black" stroke="black" points="5971.34,-355.51 5981.15,-351.51 5970.99,-348.52 5971.34,-355.51"/>
</g>
<!-- Node0x6386b00a83a0 -->
<g id="node23" class="node">
<title>Node0x6386b00a83a0</title>
<polygon fill="none" stroke="black" points="7015,-315.5 7015,-351.5 7347,-351.5 7347,-315.5 7015,-315.5"/>
<text text-anchor="middle" x="7181" y="-329.8" font-family="Times,serif" font-size="14.00">_ZNSt14_List_iteratorI11IccTagEntryEC2Ev</text>
</g>
<!-- Node0x6386b0000c10&#45;&gt;Node0x6386b00a83a0 -->
<g id="edge22" class="edge">
<title>Node0x6386b0000c10&#45;&gt;Node0x6386b00a83a0</title>
<path fill="none" stroke="black" d="M4061.52,-388.8C4064.38,-388.51 4067.21,-388.24 4070,-388 4716.8,-332.88 6337.8,-387.93 7004.53,-352.04"/>
<polygon fill="black" stroke="black" points="7004.97,-355.52 7014.76,-351.48 7004.58,-348.53 7004.97,-355.52"/>
</g>
<!-- Node0x6386b00a88a0 -->
<g id="node24" class="node">
<title>Node0x6386b00a88a0</title>
<polygon fill="none" stroke="black" points="7365.5,-315.5 7365.5,-351.5 8072.5,-351.5 8072.5,-315.5 7365.5,-315.5"/>
<text text-anchor="middle" x="7719" y="-329.8" font-family="Times,serif" font-size="14.00">_ZNK11CIccProfile8ValidateERNSt7__cxx1112basic_stringIcSt11char_traitsIcESaIcEEES5_PKS_</text>
</g>
<!-- Node0x6386b0000c10&#45;&gt;Node0x6386b00a88a0 -->
<g id="edge23" class="edge">
<title>Node0x6386b0000c10&#45;&gt;Node0x6386b00a88a0</title>
<path fill="none" stroke="black" d="M4061.52,-388.79C4064.38,-388.5 4067.21,-388.24 4070,-388 4797.67,-326.47 6626.05,-373.59 7356,-352 7357.79,-351.95 7359.58,-351.89 7361.38,-351.84"/>
<polygon fill="black" stroke="black" points="7361.84,-355.33 7371.73,-351.51 7361.62,-348.33 7361.84,-355.33"/>
</g>
<!-- Node0x6386b00a7c80 -->
<g id="node25" class="node">
<title>Node0x6386b00a7c80</title>
<polygon fill="none" stroke="black" points="8091,-315.5 8091,-351.5 8249,-351.5 8249,-315.5 8091,-315.5"/>
<text text-anchor="middle" x="8170" y="-329.8" font-family="Times,serif" font-size="14.00">llvm.memset.p0.i64</text>
</g>
<!-- Node0x6386b0000c10&#45;&gt;Node0x6386b00a7c80 -->
<g id="edge24" class="edge">
<title>Node0x6386b0000c10&#45;&gt;Node0x6386b00a7c80</title>
<path fill="none" stroke="black" d="M4061.52,-388.79C4064.38,-388.5 4067.21,-388.23 4070,-388 4954.91,-314.05 7177.32,-441.4 8080.3,-351.91"/>
<polygon fill="black" stroke="black" points="8080.93,-355.37 8090.53,-350.88 8080.23,-348.4 8080.93,-355.37"/>
</g>
<!-- Node0x6386b00a8c60 -->
<g id="node26" class="node">
<title>Node0x6386b00a8c60</title>
<polygon fill="none" stroke="black" points="8266.5,-315.5 8266.5,-351.5 8647.5,-351.5 8647.5,-315.5 8266.5,-315.5"/>
<text text-anchor="middle" x="8457" y="-329.8" font-family="Times,serif" font-size="14.00">_ZL16SpectralCLUTSafeP19CIccMpeSpectralCLUT</text>
</g>
<!-- Node0x6386b0000c10&#45;&gt;Node0x6386b00a8c60 -->
<g id="edge25" class="edge">
<title>Node0x6386b0000c10&#45;&gt;Node0x6386b00a8c60</title>
<path fill="none" stroke="black" d="M4061.52,-388.78C4064.38,-388.5 4067.21,-388.23 4070,-388 4994.2,-310.95 7311.89,-396.19 8257.66,-351.98"/>
<polygon fill="black" stroke="black" points="8257.87,-355.47 8267.69,-351.5 8257.54,-348.48 8257.87,-355.47"/>
</g>
<!-- Node0x6386b00a7280 -->
<g id="node27" class="node">
<title>Node0x6386b00a7280</title>
<polygon fill="none" stroke="black" points="8666,-315.5 8666,-351.5 9064,-351.5 9064,-315.5 8666,-315.5"/>
<text text-anchor="middle" x="8865" y="-329.8" font-family="Times,serif" font-size="14.00">_ZL18SpectralMatrixSafeP21CIccMpeSpectralMatrix</text>
</g>
<!-- Node0x6386b0000c10&#45;&gt;Node0x6386b00a7280 -->
<g id="edge26" class="edge">
<title>Node0x6386b0000c10&#45;&gt;Node0x6386b00a7280</title>
<path fill="none" stroke="black" d="M4061.52,-388.78C4064.38,-388.49 4067.21,-388.23 4070,-388 4577.83,-345.85 8146.96,-375.28 8656,-352 8656.11,-352 8656.21,-351.99 8656.32,-351.99"/>
<polygon fill="black" stroke="black" points="8656.36,-355.49 8666.18,-351.5 8656.02,-348.5 8656.36,-355.49"/>
</g>
<!-- Node0x6386b00a7500 -->
<g id="node28" class="node">
<title>Node0x6386b00a7500</title>
<polygon fill="none" stroke="black" points="9082.5,-315.5 9082.5,-351.5 9447.5,-351.5 9447.5,-315.5 9082.5,-315.5"/>
<text text-anchor="middle" x="9265" y="-329.8" font-family="Times,serif" font-size="14.00">_ZL17IsSpectralElement19icElemTypeSignature</text>
</g>
<!-- Node0x6386b0000c10&#45;&gt;Node0x6386b00a7500 -->
<g id="edge27" class="edge">
<title>Node0x6386b0000c10&#45;&gt;Node0x6386b00a7500</title>
<path fill="none" stroke="black" d="M4061.52,-388.78C4064.37,-388.49 4067.21,-388.23 4070,-388 4620.77,-342.47 8472.25,-378.82 9072.09,-351.99"/>
<polygon fill="black" stroke="black" points="9072.53,-355.47 9082.35,-351.51 9072.2,-348.48 9072.53,-355.47"/>
</g>
<!-- Node0x6386b00a7780 -->
<g id="node29" class="node">
<title>Node0x6386b00a7780</title>
<polygon fill="none" stroke="black" points="9465,-315.5 9465,-351.5 9857,-351.5 9857,-315.5 9465,-315.5"/>
<text text-anchor="middle" x="9661" y="-329.8" font-family="Times,serif" font-size="14.00">_ZN26CIccTagMultiProcessElement10GetElementEi</text>
</g>
<!-- Node0x6386b0000c10&#45;&gt;Node0x6386b00a7780 -->
<g id="edge28" class="edge">
<title>Node0x6386b0000c10&#45;&gt;Node0x6386b00a7780</title>
<path fill="none" stroke="black" d="M4061.52,-388.78C4064.37,-388.49 4067.21,-388.23 4070,-388 4663.34,-339.1 8814.13,-379.17 9456.83,-351.96"/>
<polygon fill="black" stroke="black" points="9457.1,-355.45 9466.93,-351.51 9456.79,-348.46 9457.1,-355.45"/>
</g>
<!-- Node0x6386b00a7000 -->
<g id="node30" class="node">
<title>Node0x6386b00a7000</title>
<polygon fill="none" stroke="black" points="4147,-315.5 4147,-351.5 4569,-351.5 4569,-315.5 4147,-315.5"/>
<text text-anchor="middle" x="4358" y="-329.8" font-family="Times,serif" font-size="14.00">_ZNK26CIccTagMultiProcessElement11NumElementsEv</text>
</g>
<!-- Node0x6386b0000c10&#45;&gt;Node0x6386b00a7000 -->
<g id="edge29" class="edge">
<title>Node0x6386b0000c10&#45;&gt;Node0x6386b00a7000</title>
<path fill="none" stroke="black" d="M4055.33,-388.49C4114.69,-377.9 4191.13,-364.27 4252.34,-353.35"/>
<polygon fill="black" stroke="black" points="4253.18,-356.75 4262.41,-351.55 4251.95,-349.86 4253.18,-356.75"/>
</g>
<!-- Node0x6386b00aa7e0&#45;&gt;Node0x6386b00a9660 -->
<g id="edge43" class="edge">
<title>Node0x6386b00aa7e0&#45;&gt;Node0x6386b00a9660</title>
<path fill="none" stroke="black" d="M2816.09,-316.04C2811.68,-315.68 2807.31,-315.33 2803,-315 2513.19,-292.7 2438.9,-310.94 2150,-279 2148.87,-278.88 2147.74,-278.75 2146.61,-278.61"/>
<polygon fill="black" stroke="black" points="2146.61,-275.09 2136.26,-277.33 2145.75,-282.04 2146.61,-275.09"/>
</g>
<!-- Node0x6386b00aed20 -->
<g id="node42" class="node">
<title>Node0x6386b00aed20</title>
<polygon fill="none" stroke="black" points="5903,-242.5 5903,-278.5 6275,-278.5 6275,-242.5 5903,-242.5"/>
<text text-anchor="middle" x="6089" y="-256.8" font-family="Times,serif" font-size="14.00">_ZNSt10_List_nodeI11IccTagEntryE9_M_valptrEv</text>
</g>
<!-- Node0x6386b00a9a20&#45;&gt;Node0x6386b00aed20 -->
<g id="edge41" class="edge">
<title>Node0x6386b00a9a20&#45;&gt;Node0x6386b00aed20</title>
<path fill="none" stroke="black" d="M4129.09,-315.56C4132.08,-315.36 4135.06,-315.17 4138,-315 4915.02,-268.89 5111.74,-320.95 5889,-279 5890.3,-278.93 5891.6,-278.86 5892.9,-278.79"/>
<polygon fill="black" stroke="black" points="5893.21,-282.27 5902.99,-278.19 5892.8,-275.29 5893.21,-282.27"/>
</g>
<!-- Node0x6386b00aeaa0 -->
<g id="node43" class="node">
<title>Node0x6386b00aeaa0</title>
<polygon fill="none" stroke="black" points="5785.5,-96.5 5785.5,-132.5 5962.5,-132.5 5962.5,-96.5 5785.5,-96.5"/>
<text text-anchor="middle" x="5874" y="-110.8" font-family="Times,serif" font-size="14.00">__clang_call_terminate</text>
</g>
<!-- Node0x6386b00a9a20&#45;&gt;Node0x6386b00aeaa0 -->
<g id="edge42" class="edge">
<title>Node0x6386b00a9a20&#45;&gt;Node0x6386b00aeaa0</title>
<path fill="none" stroke="black" d="M4129.09,-315.59C4132.09,-315.38 4135.06,-315.19 4138,-315 4692.23,-279.81 4833.48,-323.92 5387,-279 5508.79,-269.12 5851.54,-297.96 5932,-206 5950.25,-185.15 5927.81,-158.03 5905.75,-138.94"/>
<polygon fill="black" stroke="black" points="5907.96,-136.23 5898.03,-132.55 5903.5,-141.62 5907.96,-136.23"/>
</g>
<!-- Node0x6386b00aca20 -->
<g id="node41" class="node">
<title>Node0x6386b00aca20</title>
<polygon fill="none" stroke="black" points="6835,-242.5 6835,-278.5 7403,-278.5 7403,-242.5 6835,-242.5"/>
<text text-anchor="middle" x="7119" y="-256.8" font-family="Times,serif" font-size="14.00">_ZNSt14_List_iteratorI11IccTagEntryEC2EPNSt8__detail15_List_node_baseE</text>
</g>
<!-- Node0x6386b00a93e0&#45;&gt;Node0x6386b00aca20 -->
<g id="edge40" class="edge">
<title>Node0x6386b00a93e0&#45;&gt;Node0x6386b00aca20</title>
<path fill="none" stroke="black" d="M5963.15,-315.58C5966.12,-315.38 5969.07,-315.19 5972,-315 6347.35,-290.99 6444.34,-298.14 6824.45,-279.02"/>
<polygon fill="black" stroke="black" points="6824.82,-282.51 6834.63,-278.51 6824.47,-275.52 6824.82,-282.51"/>
</g>
<!-- Node0x6386b00ab9e0 -->
<g id="node32" class="node">
<title>Node0x6386b00ab9e0</title>
<polygon fill="none" stroke="black" points="3918,-242.5 3918,-278.5 4482,-278.5 4482,-242.5 3918,-242.5"/>
<text text-anchor="middle" x="4200" y="-256.8" font-family="Times,serif" font-size="14.00">_ZNSt7__cxx1112basic_stringIcSt11char_traitsIcESaIcEE13_M_local_dataEv</text>
</g>
<!-- Node0x6386b00a54a0&#45;&gt;Node0x6386b00ab9e0 -->
<g id="edge30" class="edge">
<title>Node0x6386b00a54a0&#45;&gt;Node0x6386b00ab9e0</title>
<path fill="none" stroke="black" d="M3657.02,-315.49C3766.25,-304.63 3907.71,-290.57 4018.85,-279.51"/>
<polygon fill="black" stroke="black" points="4019.22,-282.99 4028.83,-278.52 4018.53,-276.03 4019.22,-282.99"/>
</g>
<!-- Node0x6386b00ac520 -->
<g id="node33" class="node">
<title>Node0x6386b00ac520</title>
<polygon fill="none" stroke="black" points="4500,-242.5 4500,-278.5 5126,-278.5 5126,-242.5 4500,-242.5"/>
<text text-anchor="middle" x="4813" y="-256.8" font-family="Times,serif" font-size="14.00">_ZNSt7__cxx1112basic_stringIcSt11char_traitsIcESaIcEE12_Alloc_hiderC1EPcRKS3_</text>
</g>
<!-- Node0x6386b00a54a0&#45;&gt;Node0x6386b00ac520 -->
<g id="edge31" class="edge">
<title>Node0x6386b00a54a0&#45;&gt;Node0x6386b00ac520</title>
<path fill="none" stroke="black" d="M3773.09,-315.49C3776.07,-315.33 3779.04,-315.16 3782,-315 4093.66,-297.88 4174.2,-295.61 4489.9,-279.06"/>
<polygon fill="black" stroke="black" points="4490.47,-282.53 4500.27,-278.51 4490.1,-275.54 4490.47,-282.53"/>
</g>
<!-- Node0x6386b00ac3e0 -->
<g id="node34" class="node">
<title>Node0x6386b00ac3e0</title>
<polygon fill="none" stroke="black" points="5144,-242.5 5144,-278.5 5378,-278.5 5378,-242.5 5144,-242.5"/>
<text text-anchor="middle" x="5261" y="-256.8" font-family="Times,serif" font-size="14.00">_ZSt19__throw_logic_errorPKc</text>
</g>
<!-- Node0x6386b00a54a0&#45;&gt;Node0x6386b00ac3e0 -->
<g id="edge32" class="edge">
<title>Node0x6386b00a54a0&#45;&gt;Node0x6386b00ac3e0</title>
<path fill="none" stroke="black" d="M3770.74,-315.49C3774.52,-315.32 3778.27,-315.16 3782,-315 4379.62,-289.39 4533.76,-328.02 5133.47,-279.07"/>
<polygon fill="black" stroke="black" points="5134,-282.54 5143.68,-278.23 5133.42,-275.56 5134,-282.54"/>
</g>
<!-- Node0x6386b00abee0 -->
<g id="node35" class="node">
<title>Node0x6386b00abee0</title>
<polygon fill="none" stroke="black" points="2192.5,-242.5 2192.5,-278.5 2763.5,-278.5 2763.5,-242.5 2192.5,-242.5"/>
<text text-anchor="middle" x="2478" y="-256.8" font-family="Times,serif" font-size="14.00">_ZNSt7__cxx1112basic_stringIcSt11char_traitsIcESaIcEE12_Alloc_hiderD2Ev</text>
</g>
<!-- Node0x6386b00a54a0&#45;&gt;Node0x6386b00abee0 -->
<g id="edge33" class="edge">
<title>Node0x6386b00a54a0&#45;&gt;Node0x6386b00abee0</title>
<path fill="none" stroke="black" d="M3244.56,-315.49C3089.11,-304.54 2887.43,-290.34 2729.96,-279.25"/>
<polygon fill="black" stroke="black" points="2729.87,-275.73 2719.65,-278.52 2729.38,-282.72 2729.87,-275.73"/>
</g>
<!-- Node0x6386b00abb20 -->
<g id="node36" class="node">
<title>Node0x6386b00abb20</title>
<polygon fill="none" stroke="black" points="2782,-242.5 2782,-278.5 3054,-278.5 3054,-242.5 2782,-242.5"/>
<text text-anchor="middle" x="2918" y="-256.8" font-family="Times,serif" font-size="14.00">_ZNSt11char_traitsIcE6lengthEPKc</text>
</g>
<!-- Node0x6386b00a54a0&#45;&gt;Node0x6386b00abb20 -->
<g id="edge34" class="edge">
<title>Node0x6386b00a54a0&#45;&gt;Node0x6386b00abb20</title>
<path fill="none" stroke="black" d="M3349.95,-315.49C3263.83,-304.73 3152.54,-290.82 3064.49,-279.81"/>
<polygon fill="black" stroke="black" points="3064.77,-276.32 3054.42,-278.55 3063.9,-283.27 3064.77,-276.32"/>
</g>
<!-- Node0x6386b00ad7e0 -->
<g id="node37" class="node">
<title>Node0x6386b00ad7e0</title>
<polygon fill="none" stroke="black" points="3072.5,-242.5 3072.5,-278.5 3899.5,-278.5 3899.5,-242.5 3072.5,-242.5"/>
<text text-anchor="middle" x="3486" y="-256.8" font-family="Times,serif" font-size="14.00">_ZNSt7__cxx1112basic_stringIcSt11char_traitsIcESaIcEE12_M_constructIPKcEEvT_S8_St20forward_iterator_tag</text>
</g>
<!-- Node0x6386b00a54a0&#45;&gt;Node0x6386b00ad7e0 -->
<g id="edge35" class="edge">
<title>Node0x6386b00a54a0&#45;&gt;Node0x6386b00ad7e0</title>
<path fill="none" stroke="black" d="M3486,-315.31C3486,-307.29 3486,-297.55 3486,-288.57"/>
<polygon fill="black" stroke="black" points="3489.5,-288.53 3486,-278.53 3482.5,-288.53 3489.5,-288.53"/>
</g>
<!-- Node0x6386b00a8ee0&#45;&gt;Node0x6386b00aca20 -->
<g id="edge39" class="edge">
<title>Node0x6386b00a8ee0&#45;&gt;Node0x6386b00aca20</title>
<path fill="none" stroke="black" d="M6385.14,-315.7C6388.11,-315.46 6391.07,-315.23 6394,-315 6552.66,-302.57 6730.93,-289.4 6870.98,-279.24"/>
<polygon fill="black" stroke="black" points="6871.28,-282.73 6881,-278.52 6870.77,-275.75 6871.28,-282.73"/>
</g>
<!-- Node0x6386b00acb60 -->
<g id="node40" class="node">
<title>Node0x6386b00acb60</title>
<polygon fill="none" stroke="black" points="8298,-242.5 8298,-278.5 8616,-278.5 8616,-242.5 8298,-242.5"/>
<text text-anchor="middle" x="8457" y="-256.8" font-family="Times,serif" font-size="14.00">_ZN19CIccMpeSpectralCLUT7GetCLUTEv</text>
</g>
<!-- Node0x6386b00a8c60&#45;&gt;Node0x6386b00acb60 -->
<g id="edge38" class="edge">
<title>Node0x6386b00a8c60&#45;&gt;Node0x6386b00acb60</title>
<path fill="none" stroke="black" d="M8457,-315.31C8457,-307.29 8457,-297.55 8457,-288.57"/>
<polygon fill="black" stroke="black" points="8460.5,-288.53 8457,-278.53 8453.5,-288.53 8460.5,-288.53"/>
</g>
<!-- Node0x6386b00acde0 -->
<g id="node39" class="node">
<title>Node0x6386b00acde0</title>
<polygon fill="none" stroke="black" points="8699,-242.5 8699,-278.5 9031,-278.5 9031,-242.5 8699,-242.5"/>
<text text-anchor="middle" x="8865" y="-256.8" font-family="Times,serif" font-size="14.00">_ZN21CIccMpeSpectralMatrix8GetRangeEv</text>
</g>
<!-- Node0x6386b00a7280&#45;&gt;Node0x6386b00acde0 -->
<g id="edge37" class="edge">
<title>Node0x6386b00a7280&#45;&gt;Node0x6386b00acde0</title>
<path fill="none" stroke="black" d="M8865,-315.31C8865,-307.29 8865,-297.55 8865,-288.57"/>
<polygon fill="black" stroke="black" points="8868.5,-288.53 8865,-278.53 8861.5,-288.53 8868.5,-288.53"/>
</g>
<!-- Node0x6386b00ad420 -->
<g id="node38" class="node">
<title>Node0x6386b00ad420</title>
<polygon fill="none" stroke="black" points="6293.5,-242.5 6293.5,-278.5 6816.5,-278.5 6816.5,-242.5 6293.5,-242.5"/>
<text text-anchor="middle" x="6555" y="-256.8" font-family="Times,serif" font-size="14.00">_ZNKSt7__cxx114listI26CIccMultiProcessElementPtrSaIS1_EE4sizeEv</text>
</g>
<!-- Node0x6386b00a7000&#45;&gt;Node0x6386b00ad420 -->
<g id="edge36" class="edge">
<title>Node0x6386b00a7000&#45;&gt;Node0x6386b00ad420</title>
<path fill="none" stroke="black" d="M4568.46,-315.5C4571.66,-315.33 4574.84,-315.16 4578,-315 5335.43,-276.92 5526.3,-311.44 6284,-279 6284.34,-278.99 6284.68,-278.97 6285.03,-278.96"/>
<polygon fill="black" stroke="black" points="6285.19,-282.45 6295.03,-278.51 6284.88,-275.46 6285.19,-282.45"/>
</g>
<!-- Node0x6386b00aa060 -->
<g id="node31" class="node">
<title>Node0x6386b00aa060</title>
<polygon fill="none" stroke="black" points="4079.5,-388.5 4079.5,-424.5 4246.5,-424.5 4246.5,-388.5 4079.5,-388.5"/>
<text text-anchor="middle" x="4163" y="-402.8" font-family="Times,serif" font-size="14.00">__gxx_personality_v0</text>
</g>
<!-- Node0x6386b00abee0&#45;&gt;Node0x6386b00a5070 -->
<g id="edge58" class="edge">
<title>Node0x6386b00abee0&#45;&gt;Node0x6386b00a5070</title>
<path fill="none" stroke="black" d="M2192.19,-242.58C2187.42,-242.38 2182.69,-242.18 2178,-242 1391.6,-211.11 1189.91,-264.43 401.97,-206.1"/>
<polygon fill="black" stroke="black" points="402.02,-202.59 391.79,-205.34 401.5,-209.58 402.02,-202.59"/>
</g>
<!-- Node0x6386b00af060 -->
<g id="node48" class="node">
<title>Node0x6386b00af060</title>
<polygon fill="none" stroke="black" points="409.5,-169.5 409.5,-205.5 468.5,-205.5 468.5,-169.5 409.5,-169.5"/>
<text text-anchor="middle" x="439" y="-183.8" font-family="Times,serif" font-size="14.00">strlen</text>
</g>
<!-- Node0x6386b00abb20&#45;&gt;Node0x6386b00af060 -->
<g id="edge49" class="edge">
<title>Node0x6386b00abb20&#45;&gt;Node0x6386b00af060</title>
<path fill="none" stroke="black" d="M2781.65,-242.71C2778.4,-242.45 2775.18,-242.22 2772,-242 2520.76,-225.02 770.34,-260.43 478.95,-205.41"/>
<polygon fill="black" stroke="black" points="479.32,-201.91 468.82,-203.32 477.91,-208.77 479.32,-201.91"/>
</g>
<!-- Node0x6386b00af2e0 -->
<g id="node49" class="node">
<title>Node0x6386b00af2e0</title>
<polygon fill="none" stroke="black" points="2269,-169.5 2269,-205.5 2827,-205.5 2827,-169.5 2269,-169.5"/>
<text text-anchor="middle" x="2548" y="-183.8" font-family="Times,serif" font-size="14.00">_ZNSt7__cxx1112basic_stringIcSt11char_traitsIcESaIcEE9_M_createERmm</text>
</g>
<!-- Node0x6386b00ad7e0&#45;&gt;Node0x6386b00af2e0 -->
<g id="edge50" class="edge">
<title>Node0x6386b00ad7e0&#45;&gt;Node0x6386b00af2e0</title>
<path fill="none" stroke="black" d="M3261.33,-242.49C3116.82,-231.56 2929.38,-217.37 2782.9,-206.28"/>
<polygon fill="black" stroke="black" points="2783.11,-202.79 2772.87,-205.52 2782.58,-209.77 2783.11,-202.79"/>
</g>
<!-- Node0x6386b00af560 -->
<g id="node50" class="node">
<title>Node0x6386b00af560</title>
<polygon fill="none" stroke="black" points="2845,-169.5 2845,-205.5 3369,-205.5 3369,-169.5 2845,-169.5"/>
<text text-anchor="middle" x="3107" y="-183.8" font-family="Times,serif" font-size="14.00">_ZNSt7__cxx1112basic_stringIcSt11char_traitsIcESaIcEE7_M_dataEPc</text>
</g>
<!-- Node0x6386b00ad7e0&#45;&gt;Node0x6386b00af560 -->
<g id="edge51" class="edge">
<title>Node0x6386b00ad7e0&#45;&gt;Node0x6386b00af560</title>
<path fill="none" stroke="black" d="M3395.22,-242.49C3338.81,-231.93 3266.2,-218.32 3207.98,-207.42"/>
<polygon fill="black" stroke="black" points="3208.5,-203.95 3198.02,-205.55 3207.21,-210.83 3208.5,-203.95"/>
</g>
<!-- Node0x6386b00afc20 -->
<g id="node51" class="node">
<title>Node0x6386b00afc20</title>
<polygon fill="none" stroke="black" points="4363.5,-169.5 4363.5,-205.5 4920.5,-205.5 4920.5,-169.5 4363.5,-169.5"/>
<text text-anchor="middle" x="4642" y="-183.8" font-family="Times,serif" font-size="14.00">_ZNSt7__cxx1112basic_stringIcSt11char_traitsIcESaIcEE11_M_capacityEm</text>
</g>
<!-- Node0x6386b00ad7e0&#45;&gt;Node0x6386b00afc20 -->
<g id="edge52" class="edge">
<title>Node0x6386b00ad7e0&#45;&gt;Node0x6386b00afc20</title>
<path fill="none" stroke="black" d="M3762.89,-242.49C3941.78,-231.51 4174.05,-217.24 4354.91,-206.13"/>
<polygon fill="black" stroke="black" points="4355.35,-209.61 4365.12,-205.51 4354.92,-202.63 4355.35,-209.61"/>
</g>
<!-- Node0x6386b00a8460 -->
<g id="node52" class="node">
<title>Node0x6386b00a8460</title>
<polygon fill="none" stroke="black" points="4939,-169.5 4939,-205.5 5923,-205.5 5923,-169.5 4939,-169.5"/>
<text text-anchor="middle" x="5431" y="-183.8" font-family="Times,serif" font-size="14.00">_ZZNSt7__cxx1112basic_stringIcSt11char_traitsIcESaIcEE12_M_constructIPKcEEvT_S8_St20forward_iterator_tagEN6_GuardC2EPS4_</text>
</g>
<!-- Node0x6386b00ad7e0&#45;&gt;Node0x6386b00a8460 -->
<g id="edge53" class="edge">
<title>Node0x6386b00ad7e0&#45;&gt;Node0x6386b00a8460</title>
<path fill="none" stroke="black" d="M3896.26,-242.49C3900.53,-242.32 3904.78,-242.16 3909,-242 3960.35,-240.04 4510.84,-220.72 4935.17,-205.86"/>
<polygon fill="black" stroke="black" points="4935.3,-209.35 4945.17,-205.5 4935.05,-202.36 4935.3,-209.35"/>
</g>
<!-- Node0x6386b00a86e0 -->
<g id="node53" class="node">
<title>Node0x6386b00a86e0</title>
<polygon fill="none" stroke="black" points="487,-169.5 487,-205.5 1013,-205.5 1013,-169.5 487,-169.5"/>
<text text-anchor="middle" x="750" y="-183.8" font-family="Times,serif" font-size="14.00">_ZNKSt7__cxx1112basic_stringIcSt11char_traitsIcESaIcEE7_M_dataEv</text>
</g>
<!-- Node0x6386b00ad7e0&#45;&gt;Node0x6386b00a86e0 -->
<g id="edge54" class="edge">
<title>Node0x6386b00ad7e0&#45;&gt;Node0x6386b00a86e0</title>
<path fill="none" stroke="black" d="M3079.36,-242.5C3073.88,-242.33 3068.42,-242.16 3063,-242 2156.14,-215.25 1928.49,-243.14 1022,-206 1021.53,-205.98 1021.05,-205.96 1020.58,-205.94"/>
<polygon fill="black" stroke="black" points="1020.71,-202.44 1010.57,-205.51 1020.41,-209.44 1020.71,-202.44"/>
</g>
<!-- Node0x6386b00a8960 -->
<g id="node54" class="node">
<title>Node0x6386b00a8960</title>
<polygon fill="none" stroke="black" points="1031.5,-169.5 1031.5,-205.5 1660.5,-205.5 1660.5,-169.5 1031.5,-169.5"/>
<text text-anchor="middle" x="1346" y="-183.8" font-family="Times,serif" font-size="14.00">_ZNSt7__cxx1112basic_stringIcSt11char_traitsIcESaIcEE13_S_copy_charsEPcPKcS7_</text>
</g>
<!-- Node0x6386b00ad7e0&#45;&gt;Node0x6386b00a8960 -->
<g id="edge55" class="edge">
<title>Node0x6386b00ad7e0&#45;&gt;Node0x6386b00a8960</title>
<path fill="none" stroke="black" d="M3077.41,-242.49C3072.58,-242.32 3067.77,-242.16 3063,-242 2444.03,-221.2 2288.82,-230.7 1670,-206 1669.38,-205.98 1668.77,-205.95 1668.15,-205.93"/>
<polygon fill="black" stroke="black" points="1668.24,-202.43 1658.1,-205.52 1667.95,-209.42 1668.24,-202.43"/>
</g>
<!-- Node0x6386b00a7980 -->
<g id="node55" class="node">
<title>Node0x6386b00a7980</title>
<polygon fill="none" stroke="black" points="1679,-169.5 1679,-205.5 2251,-205.5 2251,-169.5 1679,-169.5"/>
<text text-anchor="middle" x="1965" y="-183.8" font-family="Times,serif" font-size="14.00">_ZNSt7__cxx1112basic_stringIcSt11char_traitsIcESaIcEE13_M_set_lengthEm</text>
</g>
<!-- Node0x6386b00ad7e0&#45;&gt;Node0x6386b00a7980 -->
<g id="edge56" class="edge">
<title>Node0x6386b00ad7e0&#45;&gt;Node0x6386b00a7980</title>
<path fill="none" stroke="black" d="M3080.64,-242.49C2792.34,-230.27 2429,-214.58 2260.79,-206.03"/>
<polygon fill="black" stroke="black" points="2260.89,-202.53 2250.73,-205.52 2260.53,-209.53 2260.89,-202.53"/>
</g>
<!-- Node0x6386b00af7e0 -->
<g id="node56" class="node">
<title>Node0x6386b00af7e0</title>
<polygon fill="none" stroke="black" points="3387,-169.5 3387,-205.5 4345,-205.5 4345,-169.5 3387,-169.5"/>
<text text-anchor="middle" x="3866" y="-183.8" font-family="Times,serif" font-size="14.00">_ZZNSt7__cxx1112basic_stringIcSt11char_traitsIcESaIcEE12_M_constructIPKcEEvT_S8_St20forward_iterator_tagEN6_GuardD2Ev</text>
</g>
<!-- Node0x6386b00ad7e0&#45;&gt;Node0x6386b00af7e0 -->
<g id="edge57" class="edge">
<title>Node0x6386b00ad7e0&#45;&gt;Node0x6386b00af7e0</title>
<path fill="none" stroke="black" d="M3577.02,-242.49C3633.58,-231.93 3706.38,-218.32 3764.75,-207.42"/>
<polygon fill="black" stroke="black" points="3765.55,-210.83 3774.74,-205.55 3764.26,-203.95 3765.55,-210.83"/>
</g>
<!-- Node0x6386b00ad420&#45;&gt;Node0x6386b00aeaa0 -->
<g id="edge45" class="edge">
<title>Node0x6386b00ad420&#45;&gt;Node0x6386b00aeaa0</title>
<path fill="none" stroke="black" d="M6536.69,-242.48C6525.48,-232.01 6510.85,-218.29 6498,-206 6480.96,-189.71 6481.5,-178.67 6460,-169 6363.45,-125.56 6094.9,-145.48 5973.02,-133.07"/>
<polygon fill="black" stroke="black" points="5973.08,-129.55 5962.75,-131.9 5972.29,-136.51 5973.08,-129.55"/>
</g>
<!-- Node0x6386b00ae820 -->
<g id="node44" class="node">
<title>Node0x6386b00ae820</title>
<polygon fill="none" stroke="black" points="6507.5,-169.5 6507.5,-205.5 7120.5,-205.5 7120.5,-169.5 6507.5,-169.5"/>
<text text-anchor="middle" x="6814" y="-183.8" font-family="Times,serif" font-size="14.00">_ZNKSt7__cxx114listI26CIccMultiProcessElementPtrSaIS1_EE13_M_node_countEv</text>
</g>
<!-- Node0x6386b00ad420&#45;&gt;Node0x6386b00ae820 -->
<g id="edge44" class="edge">
<title>Node0x6386b00ad420&#45;&gt;Node0x6386b00ae820</title>
<path fill="none" stroke="black" d="M6617.04,-242.49C6654.56,-232.21 6702.57,-219.05 6741.8,-208.29"/>
<polygon fill="black" stroke="black" points="6742.85,-211.63 6751.57,-205.61 6741,-204.88 6742.85,-211.63"/>
</g>
<!-- Node0x6386b00aa3a0 -->
<g id="node58" class="node">
<title>Node0x6386b00aa3a0</title>
<polygon fill="none" stroke="black" points="5979,-169.5 5979,-205.5 6451,-205.5 6451,-169.5 5979,-169.5"/>
<text text-anchor="middle" x="6215" y="-183.8" font-family="Times,serif" font-size="14.00">_ZN9__gnu_cxx16__aligned_membufI11IccTagEntryE6_M_ptrEv</text>
</g>
<!-- Node0x6386b00aed20&#45;&gt;Node0x6386b00aa3a0 -->
<g id="edge61" class="edge">
<title>Node0x6386b00aed20&#45;&gt;Node0x6386b00aa3a0</title>
<path fill="none" stroke="black" d="M6119.18,-242.49C6136.04,-232.99 6157.26,-221.04 6175.44,-210.79"/>
<polygon fill="black" stroke="black" points="6177.64,-213.57 6184.63,-205.61 6174.2,-207.47 6177.64,-213.57"/>
</g>
<!-- Node0x6386b00ae320 -->
<g id="node46" class="node">
<title>Node0x6386b00ae320</title>
<polygon fill="none" stroke="black" points="5721,-23.5 5721,-59.5 5867,-59.5 5867,-23.5 5721,-23.5"/>
<text text-anchor="middle" x="5794" y="-37.8" font-family="Times,serif" font-size="14.00">__cxa_begin_catch</text>
</g>
<!-- Node0x6386b00aeaa0&#45;&gt;Node0x6386b00ae320 -->
<g id="edge47" class="edge">
<title>Node0x6386b00aeaa0&#45;&gt;Node0x6386b00ae320</title>
<path fill="none" stroke="black" d="M5854.63,-96.31C5844.51,-87.33 5831.96,-76.19 5820.91,-66.39"/>
<polygon fill="black" stroke="black" points="5822.99,-63.55 5813.19,-59.53 5818.34,-68.78 5822.99,-63.55"/>
</g>
<!-- Node0x6386b00ae020 -->
<g id="node47" class="node">
<title>Node0x6386b00ae020</title>
<polygon fill="none" stroke="black" points="5885.5,-23.5 5885.5,-59.5 6022.5,-59.5 6022.5,-23.5 5885.5,-23.5"/>
<text text-anchor="middle" x="5954" y="-37.8" font-family="Times,serif" font-size="14.00">_ZSt9terminatev</text>
</g>
<!-- Node0x6386b00aeaa0&#45;&gt;Node0x6386b00ae020 -->
<g id="edge48" class="edge">
<title>Node0x6386b00aeaa0&#45;&gt;Node0x6386b00ae020</title>
<path fill="none" stroke="black" d="M5893.37,-96.31C5903.49,-87.33 5916.04,-76.19 5927.09,-66.39"/>
<polygon fill="black" stroke="black" points="5929.66,-68.78 5934.81,-59.53 5925.01,-63.55 5929.66,-68.78"/>
</g>
<!-- Node0x6386b00ae6e0 -->
<g id="node45" class="node">
<title>Node0x6386b00ae6e0</title>
<polygon fill="none" stroke="black" points="6489,-96.5 6489,-132.5 7139,-132.5 7139,-96.5 6489,-96.5"/>
<text text-anchor="middle" x="6814" y="-110.8" font-family="Times,serif" font-size="14.00">_ZNKSt7__cxx1110_List_baseI26CIccMultiProcessElementPtrSaIS1_EE11_M_get_sizeEv</text>
</g>
<!-- Node0x6386b00ae820&#45;&gt;Node0x6386b00ae6e0 -->
<g id="edge46" class="edge">
<title>Node0x6386b00ae820&#45;&gt;Node0x6386b00ae6e0</title>
<path fill="none" stroke="black" d="M6814,-169.31C6814,-161.29 6814,-151.55 6814,-142.57"/>
<polygon fill="black" stroke="black" points="6817.5,-142.53 6814,-132.53 6810.5,-142.53 6817.5,-142.53"/>
</g>
<!-- Node0x6386b00af7e0&#45;&gt;Node0x6386b00aeaa0 -->
<g id="edge60" class="edge">
<title>Node0x6386b00af7e0&#45;&gt;Node0x6386b00aeaa0</title>
<path fill="none" stroke="black" d="M4339.95,-169.5C4344.66,-169.33 4349.34,-169.17 4354,-169 4890.23,-149.95 5532.89,-127.43 5775.15,-118.96"/>
<polygon fill="black" stroke="black" points="5775.46,-122.45 5785.34,-118.6 5775.22,-115.45 5775.46,-122.45"/>
</g>
<!-- Node0x6386b00a9d60 -->
<g id="node57" class="node">
<title>Node0x6386b00a9d60</title>
<polygon fill="none" stroke="black" points="3592.5,-96.5 3592.5,-132.5 4139.5,-132.5 4139.5,-96.5 3592.5,-96.5"/>
<text text-anchor="middle" x="3866" y="-110.8" font-family="Times,serif" font-size="14.00">_ZNSt7__cxx1112basic_stringIcSt11char_traitsIcESaIcEE10_M_disposeEv</text>
</g>
<!-- Node0x6386b00af7e0&#45;&gt;Node0x6386b00a9d60 -->
<g id="edge59" class="edge">
<title>Node0x6386b00af7e0&#45;&gt;Node0x6386b00a9d60</title>
<path fill="none" stroke="black" d="M3866,-169.31C3866,-161.29 3866,-151.55 3866,-142.57"/>
<polygon fill="black" stroke="black" points="3869.5,-142.53 3866,-132.53 3862.5,-142.53 3869.5,-142.53"/>
</g>
<!-- Node0x6386b00a80a0 -->
<g id="node59" class="node">
<title>Node0x6386b00a80a0</title>
<polygon fill="none" stroke="black" points="5980.5,-96.5 5980.5,-132.5 6463.5,-132.5 6463.5,-96.5 5980.5,-96.5"/>
<text text-anchor="middle" x="6222" y="-110.8" font-family="Times,serif" font-size="14.00">_ZN9__gnu_cxx16__aligned_membufI11IccTagEntryE7_M_addrEv</text>
</g>
<!-- Node0x6386b00aa3a0&#45;&gt;Node0x6386b00a80a0 -->
<g id="edge62" class="edge">
<title>Node0x6386b00aa3a0&#45;&gt;Node0x6386b00a80a0</title>
<path fill="none" stroke="black" d="M6216.69,-169.31C6217.49,-161.29 6218.45,-151.55 6219.33,-142.57"/>
<polygon fill="black" stroke="black" points="6222.82,-142.82 6220.32,-132.53 6215.86,-142.14 6222.82,-142.82"/>
</g>
</g>
</svg>
