<?xml version="1.0" encoding="UTF-8" standalone="no"?>
<!DOCTYPE svg PUBLIC "-//W3C//DTD SVG 1.1//EN"
 "http://www.w3.org/Graphics/SVG/1.1/DTD/svg11.dtd">
<!-- Generated by graphviz version 2.43.0 (0)
 -->
<!-- Title: Call graph: /home/h02332/po/research/call&#45;graph/cfl/icc_applynamedcmm_fuzzer.ll Pages: 1 -->
<svg width="1434pt" height="2271pt"
 viewBox="0.00 0.00 1434.20 2271.20" xmlns="http://www.w3.org/2000/svg" xmlns:xlink="http://www.w3.org/1999/xlink">
<g id="graph0" class="graph" transform="scale(1 1) rotate(0) translate(21.6 2249.6)">
<title>Call graph: /home/h02332/po/research/call&#45;graph/cfl/icc_applynamedcmm_fuzzer.ll</title>
<polygon fill="white" stroke="transparent" points="-21.6,21.6 -21.6,-2249.6 1412.6,-2249.6 1412.6,21.6 -21.6,21.6"/>
<!-- Node0x5c236a56d640 -->
<g id="node1" class="node">
<title>Node0x5c236a56d640</title>
<path fill="#f0f4ff" stroke="black" d="M216,-877C216,-877 112,-877 112,-877 106,-877 100,-871 100,-865 100,-865 100,-853 100,-853 100,-847 106,-841 112,-841 112,-841 216,-841 216,-841 222,-841 228,-847 228,-853 228,-853 228,-865 228,-865 228,-871 222,-877 216,-877"/>
<text text-anchor="middle" x="164" y="-856.8" font-family="Courier,monospace" font-size="9.00">LLVMFuzzerTestOneInput</text>
</g>
<!-- Node0x5c236a6d5fd0 -->
<g id="node2" class="node">
<title>Node0x5c236a6d5fd0</title>
<path fill="#f0f4ff" stroke="black" d="M578.5,-1706C578.5,-1706 521.5,-1706 521.5,-1706 515.5,-1706 509.5,-1700 509.5,-1694 509.5,-1694 509.5,-1682 509.5,-1682 509.5,-1676 515.5,-1670 521.5,-1670 521.5,-1670 578.5,-1670 578.5,-1670 584.5,-1670 590.5,-1676 590.5,-1682 590.5,-1682 590.5,-1694 590.5,-1694 590.5,-1700 584.5,-1706 578.5,-1706"/>
<text text-anchor="middle" x="550" y="-1685.8" font-family="Courier,monospace" font-size="9.00">fuzz_tmpdir()</text>
</g>
<!-- Node0x5c236a56d640&#45;&gt;Node0x5c236a6d5fd0 -->
<g id="edge1" class="edge">
<title>Node0x5c236a56d640&#45;&gt;Node0x5c236a6d5fd0</title>
<path fill="none" stroke="#4a6fa5" d="M167.39,-877.19C182.02,-985.73 262.95,-1546.95 386,-1659 417.44,-1687.63 466.98,-1692.86 503.2,-1692.16"/>
<polygon fill="#4a6fa5" stroke="#4a6fa5" points="503.41,-1694.26 509.34,-1691.99 503.29,-1690.06 503.41,-1694.26"/>
</g>
<!-- Node0x5c236a6d7970 -->
<g id="node3" class="node">
<title>Node0x5c236a6d7970</title>
<path fill="#f0f4ff" stroke="black" d="M589,-1648C589,-1648 511,-1648 511,-1648 505,-1648 499,-1642 499,-1636 499,-1636 499,-1624 499,-1624 499,-1618 505,-1612 511,-1612 511,-1612 589,-1612 589,-1612 595,-1612 601,-1618 601,-1624 601,-1624 601,-1636 601,-1636 601,-1642 595,-1648 589,-1648"/>
<text text-anchor="middle" x="550" y="-1627.8" font-family="Courier,monospace" font-size="9.00">fuzz_build_path()</text>
</g>
<!-- Node0x5c236a56d640&#45;&gt;Node0x5c236a6d7970 -->
<g id="edge2" class="edge">
<title>Node0x5c236a56d640&#45;&gt;Node0x5c236a6d7970</title>
<path fill="none" stroke="#4a6fa5" d="M167.81,-877.22C184.19,-981.16 270.68,-1498.07 386,-1601 414.67,-1626.59 457.84,-1633.36 492.55,-1633.99"/>
<polygon fill="#4a6fa5" stroke="#4a6fa5" points="492.92,-1636.09 498.93,-1634.04 492.95,-1631.89 492.92,-1636.09"/>
</g>
<!-- Node0x5c236a5786f0 -->
<g id="node4" class="node">
<title>Node0x5c236a5786f0</title>
<path fill="#f0f4ff" stroke="black" d="M565,-1590C565,-1590 535,-1590 535,-1590 529,-1590 523,-1584 523,-1578 523,-1578 523,-1566 523,-1566 523,-1560 529,-1554 535,-1554 535,-1554 565,-1554 565,-1554 571,-1554 577,-1560 577,-1566 577,-1566 577,-1578 577,-1578 577,-1584 571,-1590 565,-1590"/>
<text text-anchor="middle" x="550" y="-1569.8" font-family="Courier,monospace" font-size="9.00">mkstemp</text>
</g>
<!-- Node0x5c236a56d640&#45;&gt;Node0x5c236a5786f0 -->
<g id="edge3" class="edge">
<title>Node0x5c236a56d640&#45;&gt;Node0x5c236a5786f0</title>
<path fill="none" stroke="#4a6fa5" d="M164.64,-877.05C163.92,-965.61 173.2,-1357.42 386,-1543 422.25,-1574.61 480.74,-1577.29 516.92,-1575.35"/>
<polygon fill="#4a6fa5" stroke="#4a6fa5" points="517.11,-1577.44 522.97,-1574.97 516.85,-1573.25 517.11,-1577.44"/>
</g>
<!-- Node0x5c236a6d5da0 -->
<g id="node5" class="node">
<title>Node0x5c236a6d5da0</title>
<path fill="#f0f4ff" stroke="black" d="M586.5,-1532C586.5,-1532 513.5,-1532 513.5,-1532 507.5,-1532 501.5,-1526 501.5,-1520 501.5,-1520 501.5,-1508 501.5,-1508 501.5,-1502 507.5,-1496 513.5,-1496 513.5,-1496 586.5,-1496 586.5,-1496 592.5,-1496 598.5,-1502 598.5,-1508 598.5,-1508 598.5,-1520 598.5,-1520 598.5,-1526 592.5,-1532 586.5,-1532"/>
<text text-anchor="middle" x="550" y="-1511.8" font-family="Courier,monospace" font-size="9.00">OpenIccProfile()</text>
</g>
<!-- Node0x5c236a56d640&#45;&gt;Node0x5c236a6d5da0 -->
<g id="edge4" class="edge">
<title>Node0x5c236a56d640&#45;&gt;Node0x5c236a6d5da0</title>
<path fill="none" stroke="#4a6fa5" d="M165.25,-877.21C167.45,-961.58 188.51,-1317.38 386,-1485 415.81,-1510.3 459.97,-1516.9 494.8,-1517.53"/>
<polygon fill="#4a6fa5" stroke="#4a6fa5" points="495.18,-1519.63 501.19,-1517.58 495.21,-1515.43 495.18,-1519.63"/>
</g>
<!-- Node0x5c236a6e0e20 -->
<g id="node6" class="node">
<title>Node0x5c236a6e0e20</title>
<path fill="#f0f4ff" stroke="black" d="M646.5,-1474C646.5,-1474 453.5,-1474 453.5,-1474 447.5,-1474 441.5,-1468 441.5,-1462 441.5,-1462 441.5,-1450 441.5,-1450 441.5,-1444 447.5,-1438 453.5,-1438 453.5,-1438 646.5,-1438 646.5,-1438 652.5,-1438 658.5,-1444 658.5,-1450 658.5,-1450 658.5,-1462 658.5,-1462 658.5,-1468 652.5,-1474 646.5,-1474"/>
<text text-anchor="middle" x="550" y="-1453.8" font-family="Courier,monospace" font-size="9.00">CIccNamedColorCmm::~CIccNamedColorCmm()</text>
</g>
<!-- Node0x5c236a56d640&#45;&gt;Node0x5c236a6e0e20 -->
<g id="edge5" class="edge">
<title>Node0x5c236a56d640&#45;&gt;Node0x5c236a6e0e20</title>
<path fill="none" stroke="#4a6fa5" d="M165.96,-877.15C171.23,-956.66 203.5,-1277.02 386,-1427 400.17,-1438.64 417.39,-1446.28 435.27,-1451.19"/>
<polygon fill="#4a6fa5" stroke="#4a6fa5" points="435.03,-1453.3 441.36,-1452.75 436.07,-1449.23 435.03,-1453.3"/>
</g>
<!-- Node0x5c236a52d6b0 -->
<g id="node7" class="node">
<title>Node0x5c236a52d6b0</title>
<path fill="#f0f4ff" stroke="black" d="M644,-1416C644,-1416 456,-1416 456,-1416 450,-1416 444,-1410 444,-1404 444,-1404 444,-1392 444,-1392 444,-1386 450,-1380 456,-1380 456,-1380 644,-1380 644,-1380 650,-1380 656,-1386 656,-1392 656,-1392 656,-1404 656,-1404 656,-1410 650,-1416 644,-1416"/>
<text text-anchor="middle" x="550" y="-1395.8" font-family="Courier,monospace" font-size="9.00">CIccNamedColorCmm::CIccNamedColorCmm()</text>
</g>
<!-- Node0x5c236a56d640&#45;&gt;Node0x5c236a52d6b0 -->
<g id="edge6" class="edge">
<title>Node0x5c236a56d640&#45;&gt;Node0x5c236a52d6b0</title>
<path fill="none" stroke="#4a6fa5" d="M166.82,-877.07C175.36,-951.47 218.33,-1236.44 386,-1369 401.02,-1380.87 419.26,-1388.53 438.02,-1393.36"/>
<polygon fill="#4a6fa5" stroke="#4a6fa5" points="437.54,-1395.41 443.86,-1394.77 438.52,-1391.32 437.54,-1395.41"/>
</g>
<!-- Node0x5c236a52d730 -->
<g id="node8" class="node">
<title>Node0x5c236a52d730</title>
<path fill="#f0f4ff" stroke="black" d="M691.5,-1358C691.5,-1358 408.5,-1358 408.5,-1358 402.5,-1358 396.5,-1352 396.5,-1346 396.5,-1346 396.5,-1334 396.5,-1334 396.5,-1328 402.5,-1322 408.5,-1322 408.5,-1322 691.5,-1322 691.5,-1322 697.5,-1322 703.5,-1328 703.5,-1334 703.5,-1334 703.5,-1346 703.5,-1346 703.5,-1352 697.5,-1358 691.5,-1358"/>
<text text-anchor="middle" x="550" y="-1337.8" font-family="Courier,monospace" font-size="9.00">CIccCreateXformHintManager::CIccCreateXformHintManager()</text>
</g>
<!-- Node0x5c236a56d640&#45;&gt;Node0x5c236a52d730 -->
<g id="edge7" class="edge">
<title>Node0x5c236a56d640&#45;&gt;Node0x5c236a52d730</title>
<path fill="none" stroke="#4a6fa5" d="M167.94,-877.38C180.11,-946.92 233.26,-1195.83 386,-1311 389.87,-1313.92 393.94,-1316.58 398.17,-1319"/>
<polygon fill="#4a6fa5" stroke="#4a6fa5" points="397.32,-1320.94 403.6,-1321.95 399.33,-1317.24 397.32,-1320.94"/>
</g>
<!-- Node0x5c236a52df10 -->
<g id="node9" class="node">
<title>Node0x5c236a52df10</title>
<path fill="#f0f4ff" stroke="black" d="M639,-1300C639,-1300 461,-1300 461,-1300 455,-1300 449,-1294 449,-1288 449,-1288 449,-1276 449,-1276 449,-1270 455,-1264 461,-1264 461,-1264 639,-1264 639,-1264 645,-1264 651,-1270 651,-1276 651,-1276 651,-1288 651,-1288 651,-1294 645,-1300 639,-1300"/>
<text text-anchor="middle" x="550" y="-1279.8" font-family="Courier,monospace" font-size="9.00">CIccApplyBPCHint::CIccApplyBPCHint()</text>
</g>
<!-- Node0x5c236a56d640&#45;&gt;Node0x5c236a52df10 -->
<g id="edge8" class="edge">
<title>Node0x5c236a56d640&#45;&gt;Node0x5c236a52df10</title>
<path fill="none" stroke="#4a6fa5" d="M169.28,-877.22C185.23,-940.85 247.59,-1154.64 386,-1253 402.63,-1264.82 422.58,-1272.31 442.71,-1276.97"/>
<polygon fill="#4a6fa5" stroke="#4a6fa5" points="442.37,-1279.05 448.68,-1278.27 443.26,-1274.94 442.37,-1279.05"/>
</g>
<!-- Node0x5c236a52ec20 -->
<g id="node10" class="node">
<title>Node0x5c236a52ec20</title>
<path fill="#f0f4ff" stroke="black" d="M641.5,-1242C641.5,-1242 458.5,-1242 458.5,-1242 452.5,-1242 446.5,-1236 446.5,-1230 446.5,-1230 446.5,-1218 446.5,-1218 446.5,-1212 452.5,-1206 458.5,-1206 458.5,-1206 641.5,-1206 641.5,-1206 647.5,-1206 653.5,-1212 653.5,-1218 653.5,-1218 653.5,-1230 653.5,-1230 653.5,-1236 647.5,-1242 641.5,-1242"/>
<text text-anchor="middle" x="550" y="-1221.8" font-family="Courier,monospace" font-size="9.00">CIccCreateXformHintManager::AddHint()</text>
</g>
<!-- Node0x5c236a56d640&#45;&gt;Node0x5c236a52ec20 -->
<g id="edge9" class="edge">
<title>Node0x5c236a56d640&#45;&gt;Node0x5c236a52ec20</title>
<path fill="none" stroke="#4a6fa5" d="M171.1,-877.33C191.29,-934.91 261.81,-1113.18 386,-1195 402.21,-1205.68 421.2,-1212.74 440.39,-1217.35"/>
<polygon fill="#4a6fa5" stroke="#4a6fa5" points="440.03,-1219.42 446.34,-1218.7 440.96,-1215.33 440.03,-1219.42"/>
</g>
<!-- Node0x5c236a6e3260 -->
<g id="node11" class="node">
<title>Node0x5c236a6e3260</title>
<path fill="#f0f4ff" stroke="black" d="M694,-1184C694,-1184 406,-1184 406,-1184 400,-1184 394,-1178 394,-1172 394,-1172 394,-1160 394,-1160 394,-1154 400,-1148 406,-1148 406,-1148 694,-1148 694,-1148 700,-1148 706,-1154 706,-1160 706,-1160 706,-1172 706,-1172 706,-1178 700,-1184 694,-1184"/>
<text text-anchor="middle" x="550" y="-1163.8" font-family="Courier,monospace" font-size="9.00">CIccCreateXformHintManager::~CIccCreateXformHintManager()</text>
</g>
<!-- Node0x5c236a56d640&#45;&gt;Node0x5c236a6e3260 -->
<g id="edge10" class="edge">
<title>Node0x5c236a56d640&#45;&gt;Node0x5c236a6e3260</title>
<path fill="none" stroke="#4a6fa5" d="M173.6,-877.36C198.43,-928.16 275.58,-1071.17 386,-1137 391.28,-1140.15 396.81,-1142.97 402.52,-1145.5"/>
<polygon fill="#4a6fa5" stroke="#4a6fa5" points="401.94,-1147.54 408.28,-1147.94 403.57,-1143.67 401.94,-1147.54"/>
</g>
<!-- Node0x5c236a6e2380 -->
<g id="node12" class="node">
<title>Node0x5c236a6e2380</title>
<path fill="#f0f4ff" stroke="black" d="M625.5,-1126C625.5,-1126 474.5,-1126 474.5,-1126 468.5,-1126 462.5,-1120 462.5,-1114 462.5,-1114 462.5,-1102 462.5,-1102 462.5,-1096 468.5,-1090 474.5,-1090 474.5,-1090 625.5,-1090 625.5,-1090 631.5,-1090 637.5,-1096 637.5,-1102 637.5,-1102 637.5,-1114 637.5,-1114 637.5,-1120 631.5,-1126 625.5,-1126"/>
<text text-anchor="middle" x="550" y="-1105.8" font-family="Courier,monospace" font-size="9.00">CIccCmm::FromInternalEncoding()</text>
</g>
<!-- Node0x5c236a56d640&#45;&gt;Node0x5c236a6e2380 -->
<g id="edge11" class="edge">
<title>Node0x5c236a56d640&#45;&gt;Node0x5c236a6e2380</title>
<path fill="none" stroke="#4a6fa5" d="M177.88,-877.08C208.66,-918.84 291.07,-1022.31 386,-1073 407.42,-1084.44 432.3,-1092.14 456.08,-1097.32"/>
<polygon fill="#4a6fa5" stroke="#4a6fa5" points="455.8,-1099.41 462.1,-1098.58 456.66,-1095.29 455.8,-1099.41"/>
</g>
<!-- Node0x5c236a52eb40 -->
<g id="node13" class="node">
<title>Node0x5c236a52eb40</title>
<path fill="#f0f4ff" stroke="black" d="M1072,-1116C1072,-1116 800,-1116 800,-1116 794,-1116 788,-1110 788,-1104 788,-1104 788,-1092 788,-1092 788,-1086 794,-1080 800,-1080 800,-1080 1072,-1080 1072,-1080 1078,-1080 1084,-1086 1084,-1092 1084,-1092 1084,-1104 1084,-1104 1084,-1110 1078,-1116 1072,-1116"/>
<text text-anchor="middle" x="936" y="-1095.8" font-family="Courier,monospace" font-size="9.00">CIccLuminanceMatchingHint::CIccLuminanceMatchingHint()</text>
</g>
<!-- Node0x5c236a56d640&#45;&gt;Node0x5c236a52eb40 -->
<g id="edge12" class="edge">
<title>Node0x5c236a56d640&#45;&gt;Node0x5c236a52eb40</title>
<path fill="none" stroke="#4a6fa5" d="M181.16,-877.16C215,-913.85 297.56,-996.4 386,-1033 421.89,-1047.85 631.92,-1069.91 781.5,-1084.13"/>
<polygon fill="#4a6fa5" stroke="#4a6fa5" points="781.51,-1086.24 787.68,-1084.71 781.91,-1082.06 781.51,-1086.24"/>
</g>
<!-- Node0x5c236a6e05b0 -->
<g id="node14" class="node">
<title>Node0x5c236a6e05b0</title>
<path fill="#f0f4ff" stroke="black" d="M620.5,-1022C620.5,-1022 479.5,-1022 479.5,-1022 473.5,-1022 467.5,-1016 467.5,-1010 467.5,-1010 467.5,-998 467.5,-998 467.5,-992 473.5,-986 479.5,-986 479.5,-986 620.5,-986 620.5,-986 626.5,-986 632.5,-992 632.5,-998 632.5,-998 632.5,-1010 632.5,-1010 632.5,-1016 626.5,-1022 620.5,-1022"/>
<text text-anchor="middle" x="550" y="-1001.8" font-family="Courier,monospace" font-size="9.00">CIccCmm::ToInternalEncoding()</text>
</g>
<!-- Node0x5c236a56d640&#45;&gt;Node0x5c236a6e05b0 -->
<g id="edge13" class="edge">
<title>Node0x5c236a56d640&#45;&gt;Node0x5c236a6e05b0</title>
<path fill="none" stroke="#4a6fa5" d="M192.7,-877.14C233.36,-902.92 312.41,-949.82 386,-975 409.92,-983.18 436.64,-989.17 461.42,-993.5"/>
<polygon fill="#4a6fa5" stroke="#4a6fa5" points="461.07,-995.57 467.34,-994.51 461.77,-991.43 461.07,-995.57"/>
</g>
<!-- Node0x5c236a6dd670 -->
<g id="node15" class="node">
<title>Node0x5c236a6dd670</title>
<path fill="#f0f4ff" stroke="black" d="M644,-964C644,-964 456,-964 456,-964 450,-964 444,-958 444,-952 444,-952 444,-940 444,-940 444,-934 450,-928 456,-928 456,-928 644,-928 644,-928 650,-928 656,-934 656,-940 656,-940 656,-952 656,-952 656,-958 650,-964 644,-964"/>
<text text-anchor="middle" x="550" y="-943.8" font-family="Courier,monospace" font-size="9.00">CIccCmmEnvVarHint::CIccCmmEnvVarHint()</text>
</g>
<!-- Node0x5c236a56d640&#45;&gt;Node0x5c236a6dd670 -->
<g id="edge14" class="edge">
<title>Node0x5c236a56d640&#45;&gt;Node0x5c236a6dd670</title>
<path fill="none" stroke="#4a6fa5" d="M228.02,-876.99C272.06,-889.2 332.34,-905.21 386,-917 402.77,-920.69 420.59,-924.23 438.06,-927.5"/>
<polygon fill="#4a6fa5" stroke="#4a6fa5" points="437.69,-929.57 443.97,-928.6 438.46,-925.44 437.69,-929.57"/>
</g>
<!-- Node0x5c236a6dac90 -->
<g id="node16" class="node">
<title>Node0x5c236a6dac90</title>
<path fill="#f0f4ff" stroke="black" d="M620.5,-906C620.5,-906 479.5,-906 479.5,-906 473.5,-906 467.5,-900 467.5,-894 467.5,-894 467.5,-882 467.5,-882 467.5,-876 473.5,-870 479.5,-870 479.5,-870 620.5,-870 620.5,-870 626.5,-870 632.5,-876 632.5,-882 632.5,-882 632.5,-894 632.5,-894 632.5,-900 626.5,-906 620.5,-906"/>
<text text-anchor="middle" x="550" y="-885.8" font-family="Courier,monospace" font-size="9.00">CIccCmm::GetLastParentSpace()</text>
</g>
<!-- Node0x5c236a56d640&#45;&gt;Node0x5c236a6dac90 -->
<g id="edge15" class="edge">
<title>Node0x5c236a56d640&#45;&gt;Node0x5c236a6dac90</title>
<path fill="none" stroke="#4a6fa5" d="M228.41,-863.79C291.89,-868.58 390.08,-876 461.07,-881.36"/>
<polygon fill="#4a6fa5" stroke="#4a6fa5" points="461.28,-883.48 467.42,-881.84 461.6,-879.29 461.28,-883.48"/>
</g>
<!-- Node0x5c236a6e1aa0 -->
<g id="node17" class="node">
<title>Node0x5c236a6e1aa0</title>
<path fill="#f0f4ff" stroke="black" d="M604.5,-848C604.5,-848 495.5,-848 495.5,-848 489.5,-848 483.5,-842 483.5,-836 483.5,-836 483.5,-824 483.5,-824 483.5,-818 489.5,-812 495.5,-812 495.5,-812 604.5,-812 604.5,-812 610.5,-812 616.5,-818 616.5,-824 616.5,-824 616.5,-836 616.5,-836 616.5,-842 610.5,-848 604.5,-848"/>
<text text-anchor="middle" x="550" y="-827.8" font-family="Courier,monospace" font-size="9.00">CIccCmm::GetLastSpace()</text>
</g>
<!-- Node0x5c236a56d640&#45;&gt;Node0x5c236a6e1aa0 -->
<g id="edge16" class="edge">
<title>Node0x5c236a56d640&#45;&gt;Node0x5c236a6e1aa0</title>
<path fill="none" stroke="#4a6fa5" d="M228.41,-854.21C296.75,-849.05 405.32,-840.85 476.87,-835.45"/>
<polygon fill="#4a6fa5" stroke="#4a6fa5" points="477.42,-837.51 483.24,-834.97 477.1,-833.32 477.42,-837.51"/>
</g>
<!-- Node0x5c236a534f80 -->
<g id="node18" class="node">
<title>Node0x5c236a534f80</title>
<path fill="#f0f4ff" stroke="black" d="M604.5,-790C604.5,-790 495.5,-790 495.5,-790 489.5,-790 483.5,-784 483.5,-778 483.5,-778 483.5,-766 483.5,-766 483.5,-760 489.5,-754 495.5,-754 495.5,-754 604.5,-754 604.5,-754 610.5,-754 616.5,-760 616.5,-766 616.5,-766 616.5,-778 616.5,-778 616.5,-784 610.5,-790 604.5,-790"/>
<text text-anchor="middle" x="550" y="-769.8" font-family="Courier,monospace" font-size="9.00">CIccCmm::GetDestSpace()</text>
</g>
<!-- Node0x5c236a56d640&#45;&gt;Node0x5c236a534f80 -->
<g id="edge17" class="edge">
<title>Node0x5c236a56d640&#45;&gt;Node0x5c236a534f80</title>
<path fill="none" stroke="#4a6fa5" d="M228.02,-841.01C272.06,-828.8 332.34,-812.79 386,-801 415.75,-794.46 448.79,-788.37 477.31,-783.47"/>
<polygon fill="#4a6fa5" stroke="#4a6fa5" points="477.77,-785.52 483.33,-782.44 477.06,-781.38 477.77,-785.52"/>
</g>
<!-- Node0x5c236a535610 -->
<g id="node19" class="node">
<title>Node0x5c236a535610</title>
<path fill="#f0f4ff" stroke="black" d="M610,-732C610,-732 490,-732 490,-732 484,-732 478,-726 478,-720 478,-720 478,-708 478,-708 478,-702 484,-696 490,-696 490,-696 610,-696 610,-696 616,-696 622,-702 622,-708 622,-708 622,-720 622,-720 622,-726 616,-732 610,-732"/>
<text text-anchor="middle" x="550" y="-711.8" font-family="Courier,monospace" font-size="9.00">CIccCmm::GetSourceSpace()</text>
</g>
<!-- Node0x5c236a56d640&#45;&gt;Node0x5c236a535610 -->
<g id="edge18" class="edge">
<title>Node0x5c236a56d640&#45;&gt;Node0x5c236a535610</title>
<path fill="none" stroke="#4a6fa5" d="M192.7,-840.86C233.36,-815.08 312.41,-768.18 386,-743 413.18,-733.7 443.98,-727.24 471.43,-722.82"/>
<polygon fill="#4a6fa5" stroke="#4a6fa5" points="472,-724.86 477.6,-721.85 471.35,-720.71 472,-724.86"/>
</g>
<!-- Node0x5c236a6dffa0 -->
<g id="node20" class="node">
<title>Node0x5c236a6dffa0</title>
<path fill="#f0f4ff" stroke="black" d="M586.5,-674C586.5,-674 513.5,-674 513.5,-674 507.5,-674 501.5,-668 501.5,-662 501.5,-662 501.5,-650 501.5,-650 501.5,-644 507.5,-638 513.5,-638 513.5,-638 586.5,-638 586.5,-638 592.5,-638 598.5,-644 598.5,-650 598.5,-650 598.5,-662 598.5,-662 598.5,-668 592.5,-674 586.5,-674"/>
<text text-anchor="middle" x="550" y="-653.8" font-family="Courier,monospace" font-size="9.00">CIccCmm::Valid()</text>
</g>
<!-- Node0x5c236a56d640&#45;&gt;Node0x5c236a6dffa0 -->
<g id="edge19" class="edge">
<title>Node0x5c236a56d640&#45;&gt;Node0x5c236a6dffa0</title>
<path fill="none" stroke="#4a6fa5" d="M181.6,-840.98C215.94,-804.94 298.89,-724.06 386,-685 420.44,-669.56 462.44,-662.33 495.18,-658.95"/>
<polygon fill="#4a6fa5" stroke="#4a6fa5" points="495.42,-661.03 501.18,-658.36 495.01,-656.85 495.42,-661.03"/>
</g>
<!-- Node0x5c236a535230 -->
<g id="node21" class="node">
<title>Node0x5c236a535230</title>
<path fill="#f0f4ff" stroke="black" d="M660,-616C660,-616 440,-616 440,-616 434,-616 428,-610 428,-604 428,-604 428,-592 428,-592 428,-586 434,-580 440,-580 440,-580 660,-580 660,-580 666,-580 672,-586 672,-592 672,-592 672,-604 672,-604 672,-610 666,-616 660,-616"/>
<text text-anchor="middle" x="550" y="-595.8" font-family="Courier,monospace" font-size="9.00">CIccCmmPccEnvVarHint::CIccCmmPccEnvVarHint()</text>
</g>
<!-- Node0x5c236a56d640&#45;&gt;Node0x5c236a535230 -->
<g id="edge20" class="edge">
<title>Node0x5c236a56d640&#45;&gt;Node0x5c236a535230</title>
<path fill="none" stroke="#4a6fa5" d="M176.28,-840.82C205.05,-796.14 286.03,-680.69 386,-627 397.2,-620.99 409.39,-616.18 421.91,-612.35"/>
<polygon fill="#4a6fa5" stroke="#4a6fa5" points="422.51,-614.37 427.67,-610.66 421.33,-610.34 422.51,-614.37"/>
</g>
<!-- Node0x5c236a539a10 -->
<g id="node22" class="node">
<title>Node0x5c236a539a10</title>
<path fill="#f0f4ff" stroke="black" d="M604.5,-558C604.5,-558 495.5,-558 495.5,-558 489.5,-558 483.5,-552 483.5,-546 483.5,-546 483.5,-534 483.5,-534 483.5,-528 489.5,-522 495.5,-522 495.5,-522 604.5,-522 604.5,-522 610.5,-522 616.5,-528 616.5,-534 616.5,-534 616.5,-546 616.5,-546 616.5,-552 610.5,-558 604.5,-558"/>
<text text-anchor="middle" x="550" y="-537.8" font-family="Courier,monospace" font-size="9.00">CIccCmm::GetNumXforms()</text>
</g>
<!-- Node0x5c236a56d640&#45;&gt;Node0x5c236a539a10 -->
<g id="edge21" class="edge">
<title>Node0x5c236a56d640&#45;&gt;Node0x5c236a539a10</title>
<path fill="none" stroke="#4a6fa5" d="M172.85,-840.98C196.51,-789.03 272.52,-638.24 386,-569 413.03,-552.51 446.98,-544.84 476.89,-541.45"/>
<polygon fill="#4a6fa5" stroke="#4a6fa5" points="477.46,-543.51 483.21,-540.8 477.02,-539.33 477.46,-543.51"/>
</g>
<!-- Node0x5c236a6df2d0 -->
<g id="node23" class="node">
<title>Node0x5c236a6df2d0</title>
<path fill="#f0f4ff" stroke="black" d="M612.5,-500C612.5,-500 487.5,-500 487.5,-500 481.5,-500 475.5,-494 475.5,-488 475.5,-488 475.5,-476 475.5,-476 475.5,-470 481.5,-464 487.5,-464 487.5,-464 612.5,-464 612.5,-464 618.5,-464 624.5,-470 624.5,-476 624.5,-476 624.5,-488 624.5,-488 624.5,-494 618.5,-500 612.5,-500"/>
<text text-anchor="middle" x="550" y="-479.8" font-family="Courier,monospace" font-size="9.00">CIccNamedColorCmm::Apply()</text>
</g>
<!-- Node0x5c236a56d640&#45;&gt;Node0x5c236a6df2d0 -->
<g id="edge22" class="edge">
<title>Node0x5c236a56d640&#45;&gt;Node0x5c236a6df2d0</title>
<path fill="none" stroke="#4a6fa5" d="M170.62,-840.86C189.82,-782.16 258.78,-596.28 386,-511 410.3,-494.71 441.03,-486.79 469.25,-483.16"/>
<polygon fill="#4a6fa5" stroke="#4a6fa5" points="469.52,-485.24 475.23,-482.45 469.02,-481.07 469.52,-485.24"/>
</g>
<!-- Node0x5c236a6df6c0 -->
<g id="node24" class="node">
<title>Node0x5c236a6df6c0</title>
<path fill="#f0f4ff" stroke="black" d="M612.5,-442C612.5,-442 487.5,-442 487.5,-442 481.5,-442 475.5,-436 475.5,-430 475.5,-430 475.5,-418 475.5,-418 475.5,-412 481.5,-406 487.5,-406 487.5,-406 612.5,-406 612.5,-406 618.5,-406 624.5,-412 624.5,-418 624.5,-418 624.5,-430 624.5,-430 624.5,-436 618.5,-442 612.5,-442"/>
<text text-anchor="middle" x="550" y="-421.8" font-family="Courier,monospace" font-size="9.00">CIccNamedColorCmm::Apply()</text>
</g>
<!-- Node0x5c236a56d640&#45;&gt;Node0x5c236a6df6c0 -->
<g id="edge23" class="edge">
<title>Node0x5c236a56d640&#45;&gt;Node0x5c236a6df6c0</title>
<path fill="none" stroke="#4a6fa5" d="M168.99,-840.69C184.15,-775.73 244.69,-554.78 386,-453 409.95,-435.75 440.92,-427.67 469.42,-424.18"/>
<polygon fill="#4a6fa5" stroke="#4a6fa5" points="469.73,-426.26 475.46,-423.51 469.26,-422.09 469.73,-426.26"/>
</g>
<!-- Node0x5c236a534d50 -->
<g id="node25" class="node">
<title>Node0x5c236a534d50</title>
<path fill="#f0f4ff" stroke="black" d="M620.5,-384C620.5,-384 479.5,-384 479.5,-384 473.5,-384 467.5,-378 467.5,-372 467.5,-372 467.5,-360 467.5,-360 467.5,-354 473.5,-348 479.5,-348 479.5,-348 620.5,-348 620.5,-348 626.5,-348 632.5,-354 632.5,-360 632.5,-360 632.5,-372 632.5,-372 632.5,-378 626.5,-384 620.5,-384"/>
<text text-anchor="middle" x="550" y="-363.8" font-family="Courier,monospace" font-size="9.00">CIccNamedColorCmm::AddXform()</text>
</g>
<!-- Node0x5c236a56d640&#45;&gt;Node0x5c236a534d50 -->
<g id="edge24" class="edge">
<title>Node0x5c236a56d640&#45;&gt;Node0x5c236a534d50</title>
<path fill="none" stroke="#4a6fa5" d="M167.7,-840.63C179.11,-769.97 230.23,-513.71 386,-395 407.47,-378.64 435.11,-370.38 461.52,-366.48"/>
<polygon fill="#4a6fa5" stroke="#4a6fa5" points="461.83,-368.56 467.49,-365.67 461.26,-364.4 461.83,-368.56"/>
</g>
<!-- Node0x5c236a6dec70 -->
<g id="node26" class="node">
<title>Node0x5c236a6dec70</title>
<path fill="#f0f4ff" stroke="black" d="M612.5,-326C612.5,-326 487.5,-326 487.5,-326 481.5,-326 475.5,-320 475.5,-314 475.5,-314 475.5,-302 475.5,-302 475.5,-296 481.5,-290 487.5,-290 487.5,-290 612.5,-290 612.5,-290 618.5,-290 624.5,-296 624.5,-302 624.5,-302 624.5,-314 624.5,-314 624.5,-320 618.5,-326 612.5,-326"/>
<text text-anchor="middle" x="550" y="-305.8" font-family="Courier,monospace" font-size="9.00">CIccNamedColorCmm::Apply()</text>
</g>
<!-- Node0x5c236a56d640&#45;&gt;Node0x5c236a6dec70 -->
<g id="edge25" class="edge">
<title>Node0x5c236a56d640&#45;&gt;Node0x5c236a6dec70</title>
<path fill="none" stroke="#4a6fa5" d="M166.65,-840.78C174.52,-765.08 215.38,-473.06 386,-337 409.29,-318.43 440.43,-310.14 469.26,-306.85"/>
<polygon fill="#4a6fa5" stroke="#4a6fa5" points="469.61,-308.93 475.37,-306.23 469.18,-304.75 469.61,-308.93"/>
</g>
<!-- Node0x5c236a534dd0 -->
<g id="node27" class="node">
<title>Node0x5c236a534dd0</title>
<path fill="#f0f4ff" stroke="black" d="M612.5,-268C612.5,-268 487.5,-268 487.5,-268 481.5,-268 475.5,-262 475.5,-256 475.5,-256 475.5,-244 475.5,-244 475.5,-238 481.5,-232 487.5,-232 487.5,-232 612.5,-232 612.5,-232 618.5,-232 624.5,-238 624.5,-244 624.5,-244 624.5,-256 624.5,-256 624.5,-262 618.5,-268 612.5,-268"/>
<text text-anchor="middle" x="550" y="-247.8" font-family="Courier,monospace" font-size="9.00">CIccNamedColorCmm::Begin()</text>
</g>
<!-- Node0x5c236a56d640&#45;&gt;Node0x5c236a534dd0 -->
<g id="edge26" class="edge">
<title>Node0x5c236a56d640&#45;&gt;Node0x5c236a534dd0</title>
<path fill="none" stroke="#4a6fa5" d="M165.81,-840.75C170.44,-760.07 200.47,-432.56 386,-279 409.05,-259.92 440.3,-251.56 469.28,-248.36"/>
<polygon fill="#4a6fa5" stroke="#4a6fa5" points="469.66,-250.44 475.43,-247.76 469.25,-246.26 469.66,-250.44"/>
</g>
<!-- Node0x5c236a535d30 -->
<g id="node28" class="node">
<title>Node0x5c236a535d30</title>
<path fill="#f0f4ff" stroke="black" d="M612.5,-210C612.5,-210 487.5,-210 487.5,-210 481.5,-210 475.5,-204 475.5,-198 475.5,-198 475.5,-186 475.5,-186 475.5,-180 481.5,-174 487.5,-174 487.5,-174 612.5,-174 612.5,-174 618.5,-174 624.5,-180 624.5,-186 624.5,-186 624.5,-198 624.5,-198 624.5,-204 618.5,-210 612.5,-210"/>
<text text-anchor="middle" x="550" y="-189.8" font-family="Courier,monospace" font-size="9.00">CIccNamedColorCmm::Apply()</text>
</g>
<!-- Node0x5c236a56d640&#45;&gt;Node0x5c236a535d30 -->
<g id="edge27" class="edge">
<title>Node0x5c236a56d640&#45;&gt;Node0x5c236a535d30</title>
<path fill="none" stroke="#4a6fa5" d="M165.11,-840.73C166.7,-755.32 185.42,-392.26 386,-221 408.75,-201.57 439.95,-193.15 468.97,-189.99"/>
<polygon fill="#4a6fa5" stroke="#4a6fa5" points="469.35,-192.07 475.12,-189.4 468.95,-187.89 469.35,-192.07"/>
</g>
<!-- Node0x5c236a535460 -->
<g id="node29" class="node">
<title>Node0x5c236a535460</title>
<path fill="#f0f4ff" stroke="black" d="M631,-152C631,-152 469,-152 469,-152 463,-152 457,-146 457,-140 457,-140 457,-128 457,-128 457,-122 463,-116 469,-116 469,-116 631,-116 631,-116 637,-116 643,-122 643,-128 643,-128 643,-140 643,-140 643,-146 637,-152 631,-152"/>
<text text-anchor="middle" x="550" y="-131.8" font-family="Courier,monospace" font-size="9.00">CIccNamedColorCmm::GetInterface()</text>
</g>
<!-- Node0x5c236a56d640&#45;&gt;Node0x5c236a535460 -->
<g id="edge28" class="edge">
<title>Node0x5c236a56d640&#45;&gt;Node0x5c236a535460</title>
<path fill="none" stroke="#4a6fa5" d="M164.53,-840.94C163.23,-751.46 170.06,-352.28 386,-163 403.93,-147.28 427.36,-138.7 450.84,-134.29"/>
<polygon fill="#4a6fa5" stroke="#4a6fa5" points="451.26,-136.35 456.81,-133.26 450.54,-132.21 451.26,-136.35"/>
</g>
<!-- Node0x5c236a5374b0 -->
<g id="node30" class="node">
<title>Node0x5c236a5374b0</title>
<path fill="#f0f4ff" stroke="black" d="M612.5,-94C612.5,-94 487.5,-94 487.5,-94 481.5,-94 475.5,-88 475.5,-82 475.5,-82 475.5,-70 475.5,-70 475.5,-64 481.5,-58 487.5,-58 487.5,-58 612.5,-58 612.5,-58 618.5,-58 624.5,-64 624.5,-70 624.5,-70 624.5,-82 624.5,-82 624.5,-88 618.5,-94 612.5,-94"/>
<text text-anchor="middle" x="550" y="-73.8" font-family="Courier,monospace" font-size="9.00">CIccNamedColorCmm::Apply()</text>
</g>
<!-- Node0x5c236a56d640&#45;&gt;Node0x5c236a5374b0 -->
<g id="edge29" class="edge">
<title>Node0x5c236a56d640&#45;&gt;Node0x5c236a5374b0</title>
<path fill="none" stroke="#4a6fa5" d="M167.71,-840.83C183.7,-736.03 269.07,-209.83 386,-105 408.48,-84.85 439.95,-76.35 469.25,-73.34"/>
<polygon fill="#4a6fa5" stroke="#4a6fa5" points="469.68,-75.41 475.46,-72.77 469.3,-71.22 469.68,-75.41"/>
</g>
<!-- Node0x5c236a6de7c0 -->
<g id="node31" class="node">
<title>Node0x5c236a6de7c0</title>
<path fill="#f0f4ff" stroke="black" d="M594,-36C594,-36 506,-36 506,-36 500,-36 494,-30 494,-24 494,-24 494,-12 494,-12 494,-6 500,0 506,0 506,0 594,0 594,0 600,0 606,-6 606,-12 606,-12 606,-24 606,-24 606,-30 600,-36 594,-36"/>
<text text-anchor="middle" x="550" y="-15.8" font-family="Courier,monospace" font-size="9.00">icGetSpaceSamples()</text>
</g>
<!-- Node0x5c236a56d640&#45;&gt;Node0x5c236a6de7c0 -->
<g id="edge30" class="edge">
<title>Node0x5c236a56d640&#45;&gt;Node0x5c236a6de7c0</title>
<path fill="none" stroke="#4a6fa5" d="M167.3,-840.89C181.56,-731.62 261.32,-160.98 386,-47 413.06,-22.26 453.63,-14.98 487.52,-13.89"/>
<polygon fill="#4a6fa5" stroke="#4a6fa5" points="487.81,-15.99 493.76,-13.76 487.72,-11.79 487.81,-15.99"/>
</g>
<!-- Node0x5c236a6e5310 -->
<g id="node35" class="node">
<title>Node0x5c236a6e5310</title>
<path fill="#f0f4ff" stroke="black" d="M1088,-1258C1088,-1258 784,-1258 784,-1258 778,-1258 772,-1252 772,-1246 772,-1246 772,-1234 772,-1234 772,-1228 778,-1222 784,-1222 784,-1222 1088,-1222 1088,-1222 1094,-1222 1100,-1228 1100,-1234 1100,-1234 1100,-1246 1100,-1246 1100,-1252 1094,-1258 1088,-1258"/>
<text text-anchor="middle" x="936" y="-1237.8" font-family="Courier,monospace" font-size="9.00">CIccCreateAdjustPCSXformHint::CIccCreateAdjustPCSXformHint()</text>
</g>
<!-- Node0x5c236a52df10&#45;&gt;Node0x5c236a6e5310 -->
<g id="edge32" class="edge">
<title>Node0x5c236a52df10&#45;&gt;Node0x5c236a6e5310</title>
<path fill="none" stroke="#4a6fa5" d="M651.14,-1271.05C686.15,-1267.22 726.5,-1262.8 765.59,-1258.53"/>
<polygon fill="#4a6fa5" stroke="#4a6fa5" points="766.11,-1260.58 771.85,-1257.84 765.65,-1256.41 766.11,-1260.58"/>
</g>
<!-- Node0x5c236a6e3e40 -->
<g id="node32" class="node">
<title>Node0x5c236a6e3e40</title>
<path fill="#f0f4ff" stroke="black" d="M1379,-1187C1379,-1187 1170,-1187 1170,-1187 1164,-1187 1158,-1181 1158,-1175 1158,-1175 1158,-1163 1158,-1163 1158,-1157 1164,-1151 1170,-1151 1170,-1151 1379,-1151 1379,-1151 1385,-1151 1391,-1157 1391,-1163 1391,-1163 1391,-1175 1391,-1175 1391,-1181 1385,-1187 1379,-1187"/>
<text text-anchor="middle" x="1274.5" y="-1166.8" font-family="Courier,monospace" font-size="9.00">IIccCreateXformHint::IIccCreateXformHint()</text>
</g>
<!-- Node0x5c236a52eb40&#45;&gt;Node0x5c236a6e3e40 -->
<g id="edge33" class="edge">
<title>Node0x5c236a52eb40&#45;&gt;Node0x5c236a6e3e40</title>
<path fill="none" stroke="#4a6fa5" d="M1022.35,-1116.01C1071.09,-1126.29 1132.2,-1139.19 1181.94,-1149.68"/>
<polygon fill="#4a6fa5" stroke="#4a6fa5" points="1181.65,-1151.77 1187.95,-1150.95 1182.51,-1147.66 1181.65,-1151.77"/>
</g>
<!-- Node0x5c236a6e72b0 -->
<g id="node37" class="node">
<title>Node0x5c236a6e72b0</title>
<path fill="#f0f4ff" stroke="black" d="M972.5,-326C972.5,-326 899.5,-326 899.5,-326 893.5,-326 887.5,-320 887.5,-314 887.5,-314 887.5,-302 887.5,-302 887.5,-296 893.5,-290 899.5,-290 899.5,-290 972.5,-290 972.5,-290 978.5,-290 984.5,-296 984.5,-302 984.5,-302 984.5,-314 984.5,-314 984.5,-320 978.5,-326 972.5,-326"/>
<text text-anchor="middle" x="936" y="-305.8" font-family="Courier,monospace" font-size="9.00">CIccCmm::Apply()</text>
</g>
<!-- Node0x5c236a6dec70&#45;&gt;Node0x5c236a6e72b0 -->
<g id="edge35" class="edge">
<title>Node0x5c236a6dec70&#45;&gt;Node0x5c236a6e72b0</title>
<path fill="none" stroke="#4a6fa5" d="M624.58,-308C699.58,-308 814.13,-308 881.09,-308"/>
<polygon fill="#4a6fa5" stroke="#4a6fa5" points="881.42,-310.1 887.42,-308 881.42,-305.9 881.42,-310.1"/>
</g>
<!-- Node0x5c236a6e4890 -->
<g id="node36" class="node">
<title>Node0x5c236a6e4890</title>
<path fill="#f0f4ff" stroke="black" d="M972.5,-210C972.5,-210 899.5,-210 899.5,-210 893.5,-210 887.5,-204 887.5,-198 887.5,-198 887.5,-186 887.5,-186 887.5,-180 893.5,-174 899.5,-174 899.5,-174 972.5,-174 972.5,-174 978.5,-174 984.5,-180 984.5,-186 984.5,-186 984.5,-198 984.5,-198 984.5,-204 978.5,-210 972.5,-210"/>
<text text-anchor="middle" x="936" y="-189.8" font-family="Courier,monospace" font-size="9.00">CIccCmm::Apply()</text>
</g>
<!-- Node0x5c236a535d30&#45;&gt;Node0x5c236a6e4890 -->
<g id="edge34" class="edge">
<title>Node0x5c236a535d30&#45;&gt;Node0x5c236a6e4890</title>
<path fill="none" stroke="#4a6fa5" d="M624.58,-192C699.58,-192 814.13,-192 881.09,-192"/>
<polygon fill="#4a6fa5" stroke="#4a6fa5" points="881.42,-194.1 887.42,-192 881.42,-189.9 881.42,-194.1"/>
</g>
<!-- Node0x5c236a6fbfc0 -->
<g id="node33" class="node">
<title>Node0x5c236a6fbfc0</title>
<path fill="#f0f4ff" stroke="black" d="M702,-1822C702,-1822 398,-1822 398,-1822 392,-1822 386,-1816 386,-1810 386,-1810 386,-1798 386,-1798 386,-1792 392,-1786 398,-1786 398,-1786 702,-1786 702,-1786 708,-1786 714,-1792 714,-1798 714,-1798 714,-1810 714,-1810 714,-1816 708,-1822 702,-1822"/>
<text text-anchor="middle" x="550" y="-1801.8" font-family="Courier,monospace" font-size="9.00">CIccCreateAdjustPCSXformHint::~CIccCreateAdjustPCSXformHi...</text>
</g>
<!-- Node0x5c236a6fb9a0 -->
<g id="node34" class="node">
<title>Node0x5c236a6fb9a0</title>
<path fill="#f0f4ff" stroke="black" d="M1043,-1793C1043,-1793 829,-1793 829,-1793 823,-1793 817,-1787 817,-1781 817,-1781 817,-1769 817,-1769 817,-1763 823,-1757 829,-1757 829,-1757 1043,-1757 1043,-1757 1049,-1757 1055,-1763 1055,-1769 1055,-1769 1055,-1781 1055,-1781 1055,-1787 1049,-1793 1043,-1793"/>
<text text-anchor="middle" x="936" y="-1772.8" font-family="Courier,monospace" font-size="9.00">IIccCreateXformHint::~IIccCreateXformHint()</text>
</g>
<!-- Node0x5c236a6fbfc0&#45;&gt;Node0x5c236a6fb9a0 -->
<g id="edge31" class="edge">
<title>Node0x5c236a6fbfc0&#45;&gt;Node0x5c236a6fb9a0</title>
<path fill="none" stroke="#4a6fa5" d="M714.13,-1791.68C746.49,-1789.24 779.98,-1786.71 810.79,-1784.38"/>
<polygon fill="#4a6fa5" stroke="#4a6fa5" points="811.09,-1786.46 816.92,-1783.92 810.77,-1782.28 811.09,-1786.46"/>
</g>
<!-- Node0x5c236a6e5310&#45;&gt;Node0x5c236a6e3e40 -->
<g id="edge36" class="edge">
<title>Node0x5c236a6e5310&#45;&gt;Node0x5c236a6e3e40</title>
<path fill="none" stroke="#4a6fa5" d="M1022.35,-1221.99C1071.09,-1211.71 1132.2,-1198.81 1181.94,-1188.32"/>
<polygon fill="#4a6fa5" stroke="#4a6fa5" points="1182.51,-1190.34 1187.95,-1187.05 1181.65,-1186.23 1182.51,-1190.34"/>
</g>
<!-- Node0x5c236a6fb4a0 -->
<g id="node38" class="node">
<title>Node0x5c236a6fb4a0</title>
<path fill="#f0f4ff" stroke="black" d="M316,-1822C316,-1822 12,-1822 12,-1822 6,-1822 0,-1816 0,-1810 0,-1810 0,-1798 0,-1798 0,-1792 6,-1786 12,-1786 12,-1786 316,-1786 316,-1786 322,-1786 328,-1792 328,-1798 328,-1798 328,-1810 328,-1810 328,-1816 322,-1822 316,-1822"/>
<text text-anchor="middle" x="164" y="-1801.8" font-family="Courier,monospace" font-size="9.00">CIccCreateAdjustPCSXformHint::~CIccCreateAdjustPCSXformHi...</text>
</g>
<!-- Node0x5c236a6fe7f0 -->
<g id="node39" class="node">
<title>Node0x5c236a6fe7f0</title>
<path fill="#f0f4ff" stroke="black" d="M271,-1880C271,-1880 57,-1880 57,-1880 51,-1880 45,-1874 45,-1868 45,-1868 45,-1856 45,-1856 45,-1850 51,-1844 57,-1844 57,-1844 271,-1844 271,-1844 277,-1844 283,-1850 283,-1856 283,-1856 283,-1868 283,-1868 283,-1874 277,-1880 271,-1880"/>
<text text-anchor="middle" x="164" y="-1859.8" font-family="Courier,monospace" font-size="9.00">CIccCreateAdjustPCSXformHint::GetHintType()</text>
</g>
<!-- Node0x5c236a6fcc00 -->
<g id="node40" class="node">
<title>Node0x5c236a6fcc00</title>
<path fill="#f0f4ff" stroke="black" d="M271,-1938C271,-1938 57,-1938 57,-1938 51,-1938 45,-1932 45,-1926 45,-1926 45,-1914 45,-1914 45,-1908 51,-1902 57,-1902 57,-1902 271,-1902 271,-1902 277,-1902 283,-1908 283,-1914 283,-1914 283,-1926 283,-1926 283,-1932 277,-1938 271,-1938"/>
<text text-anchor="middle" x="164" y="-1917.8" font-family="Courier,monospace" font-size="9.00">IIccCreateXformHint::~IIccCreateXformHint()</text>
</g>
<!-- Node0x5c236a6e9110 -->
<g id="node41" class="node">
<title>Node0x5c236a6e9110</title>
<path fill="#f0f4ff" stroke="black" d="M688.5,-1764C688.5,-1764 411.5,-1764 411.5,-1764 405.5,-1764 399.5,-1758 399.5,-1752 399.5,-1752 399.5,-1740 399.5,-1740 399.5,-1734 405.5,-1728 411.5,-1728 411.5,-1728 688.5,-1728 688.5,-1728 694.5,-1728 700.5,-1734 700.5,-1740 700.5,-1740 700.5,-1752 700.5,-1752 700.5,-1758 694.5,-1764 688.5,-1764"/>
<text text-anchor="middle" x="550" y="-1743.8" font-family="Courier,monospace" font-size="9.00">CIccLuminanceMatchingHint::~CIccLuminanceMatchingHint()</text>
</g>
<!-- Node0x5c236a6e9110&#45;&gt;Node0x5c236a6fb9a0 -->
<g id="edge37" class="edge">
<title>Node0x5c236a6e9110&#45;&gt;Node0x5c236a6fb9a0</title>
<path fill="none" stroke="#4a6fa5" d="M700.56,-1757.3C736.99,-1760.05 775.57,-1762.96 810.68,-1765.61"/>
<polygon fill="#4a6fa5" stroke="#4a6fa5" points="810.6,-1767.71 816.74,-1766.07 810.92,-1763.52 810.6,-1767.71"/>
</g>
<!-- Node0x5c236a7007e0 -->
<g id="node42" class="node">
<title>Node0x5c236a7007e0</title>
<path fill="#f0f4ff" stroke="black" d="M302.5,-1764C302.5,-1764 25.5,-1764 25.5,-1764 19.5,-1764 13.5,-1758 13.5,-1752 13.5,-1752 13.5,-1740 13.5,-1740 13.5,-1734 19.5,-1728 25.5,-1728 25.5,-1728 302.5,-1728 302.5,-1728 308.5,-1728 314.5,-1734 314.5,-1740 314.5,-1740 314.5,-1752 314.5,-1752 314.5,-1758 308.5,-1764 302.5,-1764"/>
<text text-anchor="middle" x="164" y="-1743.8" font-family="Courier,monospace" font-size="9.00">CIccLuminanceMatchingHint::~CIccLuminanceMatchingHint()</text>
</g>
<!-- Node0x5c236a7007e0&#45;&gt;Node0x5c236a6e9110 -->
<g id="edge38" class="edge">
<title>Node0x5c236a7007e0&#45;&gt;Node0x5c236a6e9110</title>
<path fill="none" stroke="#4a6fa5" d="M314.56,-1746C340.3,-1746 367.1,-1746 393,-1746"/>
<polygon fill="#4a6fa5" stroke="#4a6fa5" points="393.21,-1748.1 399.21,-1746 393.21,-1743.9 393.21,-1748.1"/>
</g>
<!-- Node0x5c236a700260 -->
<g id="node43" class="node">
<title>Node0x5c236a700260</title>
<path fill="#f0f4ff" stroke="black" d="M263.5,-1996C263.5,-1996 64.5,-1996 64.5,-1996 58.5,-1996 52.5,-1990 52.5,-1984 52.5,-1984 52.5,-1972 52.5,-1972 52.5,-1966 58.5,-1960 64.5,-1960 64.5,-1960 263.5,-1960 263.5,-1960 269.5,-1960 275.5,-1966 275.5,-1972 275.5,-1972 275.5,-1984 275.5,-1984 275.5,-1990 269.5,-1996 263.5,-1996"/>
<text text-anchor="middle" x="164" y="-1975.8" font-family="Courier,monospace" font-size="9.00">CIccLuminanceMatchingHint::GetHintType()</text>
</g>
<!-- Node0x5c236a700010 -->
<g id="node44" class="node">
<title>Node0x5c236a700010</title>
<path fill="#f0f4ff" stroke="black" d="M213.5,-2054C213.5,-2054 114.5,-2054 114.5,-2054 108.5,-2054 102.5,-2048 102.5,-2042 102.5,-2042 102.5,-2030 102.5,-2030 102.5,-2024 108.5,-2018 114.5,-2018 114.5,-2018 213.5,-2018 213.5,-2018 219.5,-2018 225.5,-2024 225.5,-2030 225.5,-2030 225.5,-2042 225.5,-2042 225.5,-2048 219.5,-2054 213.5,-2054"/>
<text text-anchor="middle" x="164" y="-2033.8" font-family="Courier,monospace" font-size="9.00">true::_Rb_tree_impl()</text>
</g>
<!-- Node0x5c236a704a50 -->
<g id="node45" class="node">
<title>Node0x5c236a704a50</title>
<path fill="#f0f4ff" stroke="black" d="M216,-2112C216,-2112 112,-2112 112,-2112 106,-2112 100,-2106 100,-2100 100,-2100 100,-2088 100,-2088 100,-2082 106,-2076 112,-2076 112,-2076 216,-2076 216,-2076 222,-2076 228,-2082 228,-2088 228,-2088 228,-2100 228,-2100 228,-2106 222,-2112 216,-2112"/>
<text text-anchor="middle" x="164" y="-2091.8" font-family="Courier,monospace" font-size="9.00">true::~_Rb_tree_impl()</text>
</g>
<!-- Node0x5c236a6e70b0 -->
<g id="node46" class="node">
<title>Node0x5c236a6e70b0</title>
<path fill="#f0f4ff" stroke="black" d="M192.5,-2170C192.5,-2170 135.5,-2170 135.5,-2170 129.5,-2170 123.5,-2164 123.5,-2158 123.5,-2158 123.5,-2146 123.5,-2146 123.5,-2140 129.5,-2134 135.5,-2134 135.5,-2134 192.5,-2134 192.5,-2134 198.5,-2134 204.5,-2140 204.5,-2146 204.5,-2146 204.5,-2158 204.5,-2158 204.5,-2164 198.5,-2170 192.5,-2170"/>
<text text-anchor="middle" x="164" y="-2149.8" font-family="Courier,monospace" font-size="9.00">lower_bound()</text>
</g>
<!-- Node0x5c236a6efd90 -->
<g id="node47" class="node">
<title>Node0x5c236a6efd90</title>
<path fill="#f0f4ff" stroke="black" d="M578.5,-2170C578.5,-2170 521.5,-2170 521.5,-2170 515.5,-2170 509.5,-2164 509.5,-2158 509.5,-2158 509.5,-2146 509.5,-2146 509.5,-2140 515.5,-2134 521.5,-2134 521.5,-2134 578.5,-2134 578.5,-2134 584.5,-2134 590.5,-2140 590.5,-2146 590.5,-2146 590.5,-2158 590.5,-2158 590.5,-2164 584.5,-2170 578.5,-2170"/>
<text text-anchor="middle" x="550" y="-2149.8" font-family="Courier,monospace" font-size="9.00">lower_bound()</text>
</g>
<!-- Node0x5c236a6e70b0&#45;&gt;Node0x5c236a6efd90 -->
<g id="edge39" class="edge">
<title>Node0x5c236a6e70b0&#45;&gt;Node0x5c236a6efd90</title>
<path fill="none" stroke="#4a6fa5" d="M204.65,-2152C276.31,-2152 427.01,-2152 503.05,-2152"/>
<polygon fill="#4a6fa5" stroke="#4a6fa5" points="503.28,-2154.1 509.28,-2152 503.28,-2149.9 503.28,-2154.1"/>
</g>
<!-- Node0x5c236a6e67f0 -->
<g id="node48" class="node">
<title>Node0x5c236a6e67f0</title>
<path fill="#f0f4ff" stroke="black" d="M184.5,-2228C184.5,-2228 143.5,-2228 143.5,-2228 137.5,-2228 131.5,-2222 131.5,-2216 131.5,-2216 131.5,-2204 131.5,-2204 131.5,-2198 137.5,-2192 143.5,-2192 143.5,-2192 184.5,-2192 184.5,-2192 190.5,-2192 196.5,-2198 196.5,-2204 196.5,-2204 196.5,-2216 196.5,-2216 196.5,-2222 190.5,-2228 184.5,-2228"/>
<text text-anchor="middle" x="164" y="-2207.8" font-family="Courier,monospace" font-size="9.00">key_comp()</text>
</g>
<!-- Node0x5c236a6efb90 -->
<g id="node49" class="node">
<title>Node0x5c236a6efb90</title>
<path fill="#f0f4ff" stroke="black" d="M570.5,-2228C570.5,-2228 529.5,-2228 529.5,-2228 523.5,-2228 517.5,-2222 517.5,-2216 517.5,-2216 517.5,-2204 517.5,-2204 517.5,-2198 523.5,-2192 529.5,-2192 529.5,-2192 570.5,-2192 570.5,-2192 576.5,-2192 582.5,-2198 582.5,-2204 582.5,-2204 582.5,-2216 582.5,-2216 582.5,-2222 576.5,-2228 570.5,-2228"/>
<text text-anchor="middle" x="550" y="-2207.8" font-family="Courier,monospace" font-size="9.00">key_comp()</text>
</g>
<!-- Node0x5c236a6e67f0&#45;&gt;Node0x5c236a6efb90 -->
<g id="edge40" class="edge">
<title>Node0x5c236a6e67f0&#45;&gt;Node0x5c236a6efb90</title>
<path fill="none" stroke="#4a6fa5" d="M196.75,-2210C267.1,-2210 435.81,-2210 511.34,-2210"/>
<polygon fill="#4a6fa5" stroke="#4a6fa5" points="511.48,-2212.1 517.48,-2210 511.48,-2207.9 511.48,-2212.1"/>
</g>
</g>
</svg>
