<?xml version="1.0" encoding="UTF-8" standalone="no"?>
<!DOCTYPE svg PUBLIC "-//W3C//DTD SVG 1.1//EN"
 "http://www.w3.org/Graphics/SVG/1.1/DTD/svg11.dtd">
<!-- Generated by graphviz version 2.43.0 (0)
 -->
<!-- Title: Call graph: /home/h02332/po/research/call&#45;graph/cfl/icc_multitag_fuzzer.ll Pages: 1 -->
<svg width="7744pt" height="433pt"
 viewBox="0.00 0.00 7743.50 433.00" xmlns="http://www.w3.org/2000/svg" xmlns:xlink="http://www.w3.org/1999/xlink">
<g id="graph0" class="graph" transform="scale(1 1) rotate(0) translate(4 429)">
<title>Call graph: /home/h02332/po/research/call&#45;graph/cfl/icc_multitag_fuzzer.ll</title>
<polygon fill="white" stroke="transparent" points="-4,4 -4,-429 7739.5,-429 7739.5,4 -4,4"/>
<text text-anchor="middle" x="3867.75" y="-7.8" font-family="Times,serif" font-size="14.00">Call graph: /home/h02332/po/research/call&#45;graph/cfl/icc_multitag_fuzzer.ll</text>
<!-- Node0x5fa473cf4110 -->
<g id="node1" class="node">
<title>Node0x5fa473cf4110</title>
<polygon fill="none" stroke="black" points="1855,-388.5 1855,-424.5 2058,-424.5 2058,-388.5 1855,-388.5"/>
<text text-anchor="middle" x="1956.5" y="-402.8" font-family="Times,serif" font-size="14.00">LLVMFuzzerTestOneInput</text>
</g>
<!-- Node0x5fa473cf41a0 -->
<g id="node2" class="node">
<title>Node0x5fa473cf41a0</title>
<polygon fill="none" stroke="black" points="0,-315.5 0,-351.5 185,-351.5 185,-315.5 0,-315.5"/>
<text text-anchor="middle" x="92.5" y="-329.8" font-family="Times,serif" font-size="14.00">_ZnwmRKSt9nothrow_t</text>
</g>
<!-- Node0x5fa473cf4110&#45;&gt;Node0x5fa473cf41a0 -->
<g id="edge1" class="edge">
<title>Node0x5fa473cf4110&#45;&gt;Node0x5fa473cf41a0</title>
<path fill="none" stroke="black" d="M1854.9,-404.3C1533.24,-400.22 538.78,-385.28 195.14,-352.07"/>
<polygon fill="black" stroke="black" points="195.46,-348.58 185.17,-351.08 194.77,-355.55 195.46,-348.58"/>
</g>
<!-- Node0x5fa473ce8760 -->
<g id="node3" class="node">
<title>Node0x5fa473ce8760</title>
<polygon fill="none" stroke="black" points="202.5,-315.5 202.5,-351.5 378.5,-351.5 378.5,-315.5 202.5,-315.5"/>
<text text-anchor="middle" x="290.5" y="-329.8" font-family="Times,serif" font-size="14.00">_ZN9CIccMemIOC1Ev</text>
</g>
<!-- Node0x5fa473cf4110&#45;&gt;Node0x5fa473ce8760 -->
<g id="edge2" class="edge">
<title>Node0x5fa473cf4110&#45;&gt;Node0x5fa473ce8760</title>
<path fill="none" stroke="black" d="M1854.87,-403.95C1557.79,-399.13 693.22,-382.88 388.86,-352.03"/>
<polygon fill="black" stroke="black" points="389.02,-348.53 378.71,-350.97 388.29,-355.49 389.02,-348.53"/>
</g>
<!-- Node0x5fa473ce8920 -->
<g id="node4" class="node">
<title>Node0x5fa473ce8920</title>
<polygon fill="none" stroke="black" points="396.5,-315.5 396.5,-351.5 578.5,-351.5 578.5,-315.5 396.5,-315.5"/>
<text text-anchor="middle" x="487.5" y="-329.8" font-family="Times,serif" font-size="14.00">_ZdlPvRKSt9nothrow_t</text>
</g>
<!-- Node0x5fa473cf4110&#45;&gt;Node0x5fa473ce8920 -->
<g id="edge3" class="edge">
<title>Node0x5fa473cf4110&#45;&gt;Node0x5fa473ce8920</title>
<path fill="none" stroke="black" d="M1854.83,-406.18C1628.79,-406.68 1067.37,-402.34 588.94,-352.06"/>
<polygon fill="black" stroke="black" points="589.03,-348.55 578.71,-350.98 588.29,-355.52 589.03,-348.55"/>
</g>
<!-- Node0x5fa473ca5460 -->
<g id="node5" class="node">
<title>Node0x5fa473ca5460</title>
<polygon fill="none" stroke="black" points="597,-315.5 597,-351.5 842,-351.5 842,-315.5 597,-315.5"/>
<text text-anchor="middle" x="719.5" y="-329.8" font-family="Times,serif" font-size="14.00">_ZN9CIccMemIO6AttachEPhmb</text>
</g>
<!-- Node0x5fa473cf4110&#45;&gt;Node0x5fa473ca5460 -->
<g id="edge4" class="edge">
<title>Node0x5fa473cf4110&#45;&gt;Node0x5fa473ca5460</title>
<path fill="none" stroke="black" d="M1854.99,-403.42C1661.83,-398.83 1227.92,-385.54 852.05,-352"/>
<polygon fill="black" stroke="black" points="852.34,-348.51 842.07,-351.1 851.72,-355.48 852.34,-348.51"/>
</g>
<!-- Node0x5fa473cfdfb0 -->
<g id="node6" class="node">
<title>Node0x5fa473cfdfb0</title>
<polygon fill="none" stroke="black" points="860.5,-315.5 860.5,-351.5 992.5,-351.5 992.5,-315.5 860.5,-315.5"/>
<text text-anchor="middle" x="926.5" y="-329.8" font-family="Times,serif" font-size="14.00">__cxa_end_catch</text>
</g>
<!-- Node0x5fa473cf4110&#45;&gt;Node0x5fa473cfdfb0 -->
<g id="edge5" class="edge">
<title>Node0x5fa473cf4110&#45;&gt;Node0x5fa473cfdfb0</title>
<path fill="none" stroke="black" d="M1854.86,-405.57C1681.6,-404.41 1318.03,-396.48 1002.88,-352.05"/>
<polygon fill="black" stroke="black" points="1003.03,-348.53 992.64,-350.59 1002.04,-355.46 1003.03,-348.53"/>
</g>
<!-- Node0x5fa473cf9610 -->
<g id="node7" class="node">
<title>Node0x5fa473cf9610</title>
<polygon fill="none" stroke="black" points="1011,-315.5 1011,-351.5 1190,-351.5 1190,-315.5 1011,-315.5"/>
<text text-anchor="middle" x="1100.5" y="-329.8" font-family="Times,serif" font-size="14.00">_ZN11CIccProfileC1Ev</text>
</g>
<!-- Node0x5fa473cf4110&#45;&gt;Node0x5fa473cf9610 -->
<g id="edge6" class="edge">
<title>Node0x5fa473cf4110&#45;&gt;Node0x5fa473cf9610</title>
<path fill="none" stroke="black" d="M1854.95,-401.36C1710.18,-394.76 1436.32,-379.69 1204.5,-352 1203.02,-351.82 1201.53,-351.64 1200.04,-351.45"/>
<polygon fill="black" stroke="black" points="1200.43,-347.97 1190.05,-350.13 1199.51,-354.91 1200.43,-347.97"/>
</g>
<!-- Node0x5fa473cff350 -->
<g id="node8" class="node">
<title>Node0x5fa473cff350</title>
<polygon fill="none" stroke="black" points="4189.5,-23.5 4189.5,-59.5 4335.5,-59.5 4335.5,-23.5 4189.5,-23.5"/>
<text text-anchor="middle" x="4262.5" y="-37.8" font-family="Times,serif" font-size="14.00">__cxa_begin_catch</text>
</g>
<!-- Node0x5fa473cf4110&#45;&gt;Node0x5fa473cff350 -->
<g id="edge7" class="edge">
<title>Node0x5fa473cf4110&#45;&gt;Node0x5fa473cff350</title>
<path fill="none" stroke="black" d="M1854.83,-404.59C1667.53,-401.96 1282.88,-391.73 1237.5,-352 1206.58,-324.93 1218.5,-302.6 1218.5,-261.5 1218.5,-261.5 1218.5,-261.5 1218.5,-186.5 1218.5,-110.23 3689.87,-54.49 4178.98,-44.21"/>
<polygon fill="black" stroke="black" points="4179.21,-47.71 4189.14,-44 4179.07,-40.71 4179.21,-47.71"/>
</g>
<!-- Node0x5fa473cfb910 -->
<g id="node9" class="node">
<title>Node0x5fa473cfb910</title>
<polygon fill="none" stroke="black" points="1247,-315.5 1247,-351.5 1714,-351.5 1714,-315.5 1247,-315.5"/>
<text text-anchor="middle" x="1480.5" y="-329.8" font-family="Times,serif" font-size="14.00">_ZNSt7__cxx1112basic_stringIcSt11char_traitsIcESaIcEED1Ev</text>
</g>
<!-- Node0x5fa473cf4110&#45;&gt;Node0x5fa473cfb910 -->
<g id="edge8" class="edge">
<title>Node0x5fa473cf4110&#45;&gt;Node0x5fa473cfb910</title>
<path fill="none" stroke="black" d="M1854.97,-390.36C1781.93,-379.46 1683,-364.71 1605.17,-353.1"/>
<polygon fill="black" stroke="black" points="1605.22,-349.56 1594.82,-351.55 1604.19,-356.49 1605.22,-349.56"/>
</g>
<!-- Node0x5fa473ca51a0 -->
<g id="node10" class="node">
<title>Node0x5fa473ca51a0</title>
<polygon fill="none" stroke="black" points="1732,-315.5 1732,-351.5 2013,-351.5 2013,-315.5 1732,-315.5"/>
<text text-anchor="middle" x="1872.5" y="-329.8" font-family="Times,serif" font-size="14.00">_ZN11CIccProfile6AttachEP6CIccIOb</text>
</g>
<!-- Node0x5fa473cf4110&#45;&gt;Node0x5fa473ca51a0 -->
<g id="edge9" class="edge">
<title>Node0x5fa473cf4110&#45;&gt;Node0x5fa473ca51a0</title>
<path fill="none" stroke="black" d="M1936.17,-388.31C1925.44,-379.24 1912.11,-367.98 1900.42,-358.1"/>
<polygon fill="black" stroke="black" points="1902.54,-355.31 1892.65,-351.53 1898.02,-360.66 1902.54,-355.31"/>
</g>
<!-- Node0x5fa473cfaf60 -->
<g id="node11" class="node">
<title>Node0x5fa473cfaf60</title>
<polygon fill="none" stroke="black" points="1853,-169.5 1853,-205.5 2106,-205.5 2106,-169.5 1853,-169.5"/>
<text text-anchor="middle" x="1979.5" y="-183.8" font-family="Times,serif" font-size="14.00">_ZNSt15__new_allocatorIcED2Ev</text>
</g>
<!-- Node0x5fa473cf4110&#45;&gt;Node0x5fa473cfaf60 -->
<g id="edge10" class="edge">
<title>Node0x5fa473cf4110&#45;&gt;Node0x5fa473cfaf60</title>
<path fill="none" stroke="black" d="M1987.75,-388.29C2000.72,-379.32 2014.39,-367.07 2021.5,-352 2028.52,-337.13 2032.14,-327.54 2021.5,-315 1957.66,-239.81 1866.34,-354.19 1802.5,-279 1791.86,-266.46 1792.7,-255.2 1802.5,-242 1813.06,-227.78 1827.29,-217.2 1843.11,-209.36"/>
<polygon fill="black" stroke="black" points="1844.94,-212.37 1852.6,-205.05 1842.05,-206 1844.94,-212.37"/>
</g>
<!-- Node0x5fa473d00610 -->
<g id="node12" class="node">
<title>Node0x5fa473d00610</title>
<polygon fill="none" stroke="black" points="2070,-315.5 2070,-351.5 2575,-351.5 2575,-315.5 2070,-315.5"/>
<text text-anchor="middle" x="2322.5" y="-329.8" font-family="Times,serif" font-size="14.00">_ZNSt7__cxx1112basic_stringIcSt11char_traitsIcESaIcEEC1ERKS4_</text>
</g>
<!-- Node0x5fa473cf4110&#45;&gt;Node0x5fa473d00610 -->
<g id="edge11" class="edge">
<title>Node0x5fa473cf4110&#45;&gt;Node0x5fa473d00610</title>
<path fill="none" stroke="black" d="M2044.17,-388.49C2098.53,-377.95 2168.47,-364.38 2224.64,-353.48"/>
<polygon fill="black" stroke="black" points="2225.45,-356.89 2234.6,-351.55 2224.11,-350.02 2225.45,-356.89"/>
</g>
<!-- Node0x5fa473ccfc80 -->
<g id="node13" class="node">
<title>Node0x5fa473ccfc80</title>
<polygon fill="none" stroke="black" points="2593,-315.5 2593,-351.5 3060,-351.5 3060,-315.5 2593,-315.5"/>
<text text-anchor="middle" x="2826.5" y="-329.8" font-family="Times,serif" font-size="14.00">_ZNSt7__cxx1112basic_stringIcSt11char_traitsIcESaIcEEC1Ev</text>
</g>
<!-- Node0x5fa473cf4110&#45;&gt;Node0x5fa473ccfc80 -->
<g id="edge12" class="edge">
<title>Node0x5fa473cf4110&#45;&gt;Node0x5fa473ccfc80</title>
<path fill="none" stroke="black" d="M2058.04,-389.01C2060.89,-388.66 2063.71,-388.32 2066.5,-388 2292.11,-362.25 2352.05,-368.1 2582.69,-352.05"/>
<polygon fill="black" stroke="black" points="2583.01,-355.54 2592.74,-351.35 2582.52,-348.55 2583.01,-355.54"/>
</g>
<!-- Node0x5fa473cfce30 -->
<g id="node14" class="node">
<title>Node0x5fa473cfce30</title>
<polygon fill="none" stroke="black" points="3078.5,-315.5 3078.5,-351.5 3652.5,-351.5 3652.5,-315.5 3078.5,-315.5"/>
<text text-anchor="middle" x="3365.5" y="-329.8" font-family="Times,serif" font-size="14.00">_ZNSt7__cxx1112basic_stringIcSt11char_traitsIcESaIcEEC2IS3_EEPKcRKS3_</text>
</g>
<!-- Node0x5fa473cf4110&#45;&gt;Node0x5fa473cfce30 -->
<g id="edge13" class="edge">
<title>Node0x5fa473cf4110&#45;&gt;Node0x5fa473cfce30</title>
<path fill="none" stroke="black" d="M2058.03,-388.89C2060.88,-388.57 2063.71,-388.27 2066.5,-388 2510.03,-344.91 2623.38,-373.11 3068.5,-352 3068.6,-352 3068.71,-351.99 3068.81,-351.99"/>
<polygon fill="black" stroke="black" points="3068.8,-355.49 3078.62,-351.51 3068.46,-348.5 3068.8,-355.49"/>
</g>
<!-- Node0x5fa473cfa950 -->
<g id="node15" class="node">
<title>Node0x5fa473cfa950</title>
<polygon fill="none" stroke="black" points="3671,-315.5 3671,-351.5 4378,-351.5 4378,-315.5 3671,-315.5"/>
<text text-anchor="middle" x="4024.5" y="-329.8" font-family="Times,serif" font-size="14.00">_ZNK11CIccProfile8ValidateERNSt7__cxx1112basic_stringIcSt11char_traitsIcESaIcEEES5_PKS_</text>
</g>
<!-- Node0x5fa473cf4110&#45;&gt;Node0x5fa473cfa950 -->
<g id="edge14" class="edge">
<title>Node0x5fa473cf4110&#45;&gt;Node0x5fa473cfa950</title>
<path fill="none" stroke="black" d="M2058.03,-388.84C2060.88,-388.53 2063.71,-388.25 2066.5,-388 2772.69,-324.15 2952.87,-377.07 3661.5,-352 3662.64,-351.96 3663.79,-351.92 3664.93,-351.88"/>
<polygon fill="black" stroke="black" points="3665.44,-355.36 3675.31,-351.5 3665.18,-348.37 3665.44,-355.36"/>
</g>
<!-- Node0x5fa473cfd0b0 -->
<g id="node16" class="node">
<title>Node0x5fa473cfd0b0</title>
<polygon fill="none" stroke="black" points="4396.5,-315.5 4396.5,-351.5 4618.5,-351.5 4618.5,-315.5 4396.5,-315.5"/>
<text text-anchor="middle" x="4507.5" y="-329.8" font-family="Times,serif" font-size="14.00">_ZN11CIccProfile7FindTagEj</text>
</g>
<!-- Node0x5fa473cf4110&#45;&gt;Node0x5fa473cfd0b0 -->
<g id="edge15" class="edge">
<title>Node0x5fa473cf4110&#45;&gt;Node0x5fa473cfd0b0</title>
<path fill="none" stroke="black" d="M2058.02,-388.81C2060.88,-388.51 2063.71,-388.24 2066.5,-388 3090.48,-299.06 3356.78,-433.08 4386.22,-351.93"/>
<polygon fill="black" stroke="black" points="4386.77,-355.4 4396.46,-351.12 4386.21,-348.42 4386.77,-355.4"/>
</g>
<!-- Node0x5fa473cfd330 -->
<g id="node17" class="node">
<title>Node0x5fa473cfd330</title>
<polygon fill="none" stroke="black" points="4887,-315.5 4887,-351.5 5270,-351.5 5270,-315.5 4887,-315.5"/>
<text text-anchor="middle" x="5078.5" y="-329.8" font-family="Times,serif" font-size="14.00">_ZNKSt16initializer_listI14icTagSignatureE3endEv</text>
</g>
<!-- Node0x5fa473cf4110&#45;&gt;Node0x5fa473cfd330 -->
<g id="edge16" class="edge">
<title>Node0x5fa473cf4110&#45;&gt;Node0x5fa473cfd330</title>
<path fill="none" stroke="black" d="M2058.02,-388.8C2060.88,-388.51 2063.71,-388.24 2066.5,-388 2633.57,-339.16 4058.53,-367.04 4627.5,-352 4708.93,-349.85 4798.6,-346.56 4876.38,-343.41"/>
<polygon fill="black" stroke="black" points="4876.94,-346.89 4886.79,-342.99 4876.65,-339.9 4876.94,-346.89"/>
</g>
<!-- Node0x5fa473cfd970 -->
<g id="node18" class="node">
<title>Node0x5fa473cfd970</title>
<polygon fill="none" stroke="black" points="5288.5,-315.5 5288.5,-351.5 5470.5,-351.5 5470.5,-315.5 5288.5,-315.5"/>
<text text-anchor="middle" x="5379.5" y="-329.8" font-family="Times,serif" font-size="14.00">llvm.memcpy.p0.p0.i64</text>
</g>
<!-- Node0x5fa473cf4110&#45;&gt;Node0x5fa473cfd970 -->
<g id="edge17" class="edge">
<title>Node0x5fa473cf4110&#45;&gt;Node0x5fa473cfd970</title>
<path fill="none" stroke="black" d="M2058.02,-388.79C2060.88,-388.5 2063.71,-388.24 2066.5,-388 2777.78,-327.76 4567.66,-417.14 5278.5,-352 5278.6,-351.99 5278.7,-351.98 5278.81,-351.97"/>
<polygon fill="black" stroke="black" points="5278.89,-355.48 5288.47,-350.96 5278.16,-348.52 5278.89,-355.48"/>
</g>
<!-- Node0x5fa473cfd5b0 -->
<g id="node19" class="node">
<title>Node0x5fa473cfd5b0</title>
<polygon fill="none" stroke="black" points="5417.5,-242.5 5417.5,-278.5 5813.5,-278.5 5813.5,-242.5 5417.5,-242.5"/>
<text text-anchor="middle" x="5615.5" y="-256.8" font-family="Times,serif" font-size="14.00">_ZNKSt16initializer_listI14icTagSignatureE5beginEv</text>
</g>
<!-- Node0x5fa473cf4110&#45;&gt;Node0x5fa473cfd5b0 -->
<g id="edge18" class="edge">
<title>Node0x5fa473cf4110&#45;&gt;Node0x5fa473cfd5b0</title>
<path fill="none" stroke="black" d="M2058.02,-388.79C2060.88,-388.5 2063.71,-388.24 2066.5,-388 2255.45,-372.06 5298.28,-407.83 5479.5,-352 5522.3,-338.81 5564.04,-307.46 5589.75,-285.37"/>
<polygon fill="black" stroke="black" points="5592.31,-287.78 5597.52,-278.56 5587.69,-282.52 5592.31,-287.78"/>
</g>
<!-- Node0x5fa473d039d0 -->
<g id="node21" class="node">
<title>Node0x5fa473d039d0</title>
<polygon fill="none" stroke="black" points="1811.5,-242.5 1811.5,-278.5 2375.5,-278.5 2375.5,-242.5 1811.5,-242.5"/>
<text text-anchor="middle" x="2093.5" y="-256.8" font-family="Times,serif" font-size="14.00">_ZNSt7__cxx1112basic_stringIcSt11char_traitsIcESaIcEE13_M_local_dataEv</text>
</g>
<!-- Node0x5fa473cfce30&#45;&gt;Node0x5fa473d039d0 -->
<g id="edge19" class="edge">
<title>Node0x5fa473cfce30&#45;&gt;Node0x5fa473d039d0</title>
<path fill="none" stroke="black" d="M3078.23,-315.54C3074.97,-315.36 3071.72,-315.18 3068.5,-315 2767.82,-298.23 2690.1,-296.18 2385.73,-279.07"/>
<polygon fill="black" stroke="black" points="2385.92,-275.57 2375.74,-278.5 2385.52,-282.56 2385.92,-275.57"/>
</g>
<!-- Node0x5fa473d03610 -->
<g id="node22" class="node">
<title>Node0x5fa473d03610</title>
<polygon fill="none" stroke="black" points="2393.5,-242.5 2393.5,-278.5 3019.5,-278.5 3019.5,-242.5 2393.5,-242.5"/>
<text text-anchor="middle" x="2706.5" y="-256.8" font-family="Times,serif" font-size="14.00">_ZNSt7__cxx1112basic_stringIcSt11char_traitsIcESaIcEE12_Alloc_hiderC1EPcRKS3_</text>
</g>
<!-- Node0x5fa473cfce30&#45;&gt;Node0x5fa473d03610 -->
<g id="edge20" class="edge">
<title>Node0x5fa473cfce30&#45;&gt;Node0x5fa473d03610</title>
<path fill="none" stroke="black" d="M3207.65,-315.49C3107.14,-304.66 2977.07,-290.65 2874.63,-279.61"/>
<polygon fill="black" stroke="black" points="2874.8,-276.11 2864.49,-278.52 2874.05,-283.07 2874.8,-276.11"/>
</g>
<!-- Node0x5fa473d02fd0 -->
<g id="node23" class="node">
<title>Node0x5fa473d02fd0</title>
<polygon fill="none" stroke="black" points="3037.5,-242.5 3037.5,-278.5 3271.5,-278.5 3271.5,-242.5 3037.5,-242.5"/>
<text text-anchor="middle" x="3154.5" y="-256.8" font-family="Times,serif" font-size="14.00">_ZSt19__throw_logic_errorPKc</text>
</g>
<!-- Node0x5fa473cfce30&#45;&gt;Node0x5fa473d02fd0 -->
<g id="edge21" class="edge">
<title>Node0x5fa473cfce30&#45;&gt;Node0x5fa473d02fd0</title>
<path fill="none" stroke="black" d="M3314.96,-315.49C3284.91,-305.38 3246.6,-292.49 3214.95,-281.84"/>
<polygon fill="black" stroke="black" points="3215.95,-278.49 3205.36,-278.61 3213.72,-285.12 3215.95,-278.49"/>
</g>
<!-- Node0x5fa473d02850 -->
<g id="node24" class="node">
<title>Node0x5fa473d02850</title>
<polygon fill="none" stroke="black" points="3290,-242.5 3290,-278.5 3861,-278.5 3861,-242.5 3290,-242.5"/>
<text text-anchor="middle" x="3575.5" y="-256.8" font-family="Times,serif" font-size="14.00">_ZNSt7__cxx1112basic_stringIcSt11char_traitsIcESaIcEE12_Alloc_hiderD2Ev</text>
</g>
<!-- Node0x5fa473cfce30&#45;&gt;Node0x5fa473d02850 -->
<g id="edge22" class="edge">
<title>Node0x5fa473cfce30&#45;&gt;Node0x5fa473d02850</title>
<path fill="none" stroke="black" d="M3415.8,-315.49C3445.71,-305.38 3483.84,-292.49 3515.34,-281.84"/>
<polygon fill="black" stroke="black" points="3516.53,-285.13 3524.88,-278.61 3514.29,-278.5 3516.53,-285.13"/>
</g>
<!-- Node0x5fa473d03d90 -->
<g id="node25" class="node">
<title>Node0x5fa473d03d90</title>
<polygon fill="none" stroke="black" points="3879.5,-242.5 3879.5,-278.5 4151.5,-278.5 4151.5,-242.5 3879.5,-242.5"/>
<text text-anchor="middle" x="4015.5" y="-256.8" font-family="Times,serif" font-size="14.00">_ZNSt11char_traitsIcE6lengthEPKc</text>
</g>
<!-- Node0x5fa473cfce30&#45;&gt;Node0x5fa473d03d90 -->
<g id="edge23" class="edge">
<title>Node0x5fa473cfce30&#45;&gt;Node0x5fa473d03d90</title>
<path fill="none" stroke="black" d="M3531.27,-315.47C3626.92,-305.51 3749.78,-292.48 3869.07,-279.04"/>
<polygon fill="black" stroke="black" points="3869.57,-282.51 3879.12,-277.91 3868.79,-275.55 3869.57,-282.51"/>
</g>
<!-- Node0x5fa473d04a10 -->
<g id="node26" class="node">
<title>Node0x5fa473d04a10</title>
<polygon fill="none" stroke="black" points="4170,-242.5 4170,-278.5 4997,-278.5 4997,-242.5 4170,-242.5"/>
<text text-anchor="middle" x="4583.5" y="-256.8" font-family="Times,serif" font-size="14.00">_ZNSt7__cxx1112basic_stringIcSt11char_traitsIcESaIcEE12_M_constructIPKcEEvT_S8_St20forward_iterator_tag</text>
</g>
<!-- Node0x5fa473cfce30&#45;&gt;Node0x5fa473d04a10 -->
<g id="edge24" class="edge">
<title>Node0x5fa473cfce30&#45;&gt;Node0x5fa473d04a10</title>
<path fill="none" stroke="black" d="M3652.59,-315.52C3655.57,-315.35 3658.55,-315.17 3661.5,-315 3867.39,-302.94 4099.15,-289.49 4278.81,-279.1"/>
<polygon fill="black" stroke="black" points="4279.16,-282.58 4288.94,-278.51 4278.76,-275.59 4279.16,-282.58"/>
</g>
<!-- Node0x5fa473cfd330&#45;&gt;Node0x5fa473cfd5b0 -->
<g id="edge25" class="edge">
<title>Node0x5fa473cfd330&#45;&gt;Node0x5fa473cfd5b0</title>
<path fill="none" stroke="black" d="M5207.12,-315.49C5288.38,-304.75 5393.33,-290.87 5476.5,-279.88"/>
<polygon fill="black" stroke="black" points="5477.07,-283.33 5486.53,-278.55 5476.16,-276.39 5477.07,-283.33"/>
</g>
<!-- Node0x5fa473d04650 -->
<g id="node27" class="node">
<title>Node0x5fa473d04650</title>
<polygon fill="none" stroke="black" points="5015.5,-242.5 5015.5,-278.5 5399.5,-278.5 5399.5,-242.5 5015.5,-242.5"/>
<text text-anchor="middle" x="5207.5" y="-256.8" font-family="Times,serif" font-size="14.00">_ZNKSt16initializer_listI14icTagSignatureE4sizeEv</text>
</g>
<!-- Node0x5fa473cfd330&#45;&gt;Node0x5fa473d04650 -->
<g id="edge26" class="edge">
<title>Node0x5fa473cfd330&#45;&gt;Node0x5fa473d04650</title>
<path fill="none" stroke="black" d="M5109.4,-315.49C5126.82,-305.9 5148.78,-293.82 5167.51,-283.51"/>
<polygon fill="black" stroke="black" points="5169.33,-286.5 5176.41,-278.61 5165.96,-280.37 5169.33,-286.5"/>
</g>
<!-- Node0x5fa473cfdd30 -->
<g id="node20" class="node">
<title>Node0x5fa473cfdd30</title>
<polygon fill="none" stroke="black" points="2076,-388.5 2076,-424.5 2243,-424.5 2243,-388.5 2076,-388.5"/>
<text text-anchor="middle" x="2159.5" y="-402.8" font-family="Times,serif" font-size="14.00">__gxx_personality_v0</text>
</g>
<!-- Node0x5fa473d02850&#45;&gt;Node0x5fa473cfaf60 -->
<g id="edge36" class="edge">
<title>Node0x5fa473d02850&#45;&gt;Node0x5fa473cfaf60</title>
<path fill="none" stroke="black" d="M3290.94,-242.49C3287.44,-242.33 3283.96,-242.16 3280.5,-242 2806.08,-219.94 2686.74,-231.79 2212.5,-206 2181.34,-204.31 2147.87,-202.05 2116.29,-199.72"/>
<polygon fill="black" stroke="black" points="2116.34,-196.22 2106.11,-198.96 2115.82,-203.2 2116.34,-196.22"/>
</g>
<!-- Node0x5fa473d04510 -->
<g id="node28" class="node">
<title>Node0x5fa473d04510</title>
<polygon fill="none" stroke="black" points="2222,-169.5 2222,-205.5 2281,-205.5 2281,-169.5 2222,-169.5"/>
<text text-anchor="middle" x="2251.5" y="-183.8" font-family="Times,serif" font-size="14.00">strlen</text>
</g>
<!-- Node0x5fa473d03d90&#45;&gt;Node0x5fa473d04510 -->
<g id="edge27" class="edge">
<title>Node0x5fa473d03d90&#45;&gt;Node0x5fa473d04510</title>
<path fill="none" stroke="black" d="M3879.15,-242.74C3875.9,-242.47 3872.68,-242.23 3869.5,-242 3697.36,-229.75 2502.31,-244.19 2291.16,-205.32"/>
<polygon fill="black" stroke="black" points="2291.82,-201.88 2281.32,-203.3 2290.42,-208.74 2291.82,-201.88"/>
</g>
<!-- Node0x5fa473d04150 -->
<g id="node29" class="node">
<title>Node0x5fa473d04150</title>
<polygon fill="none" stroke="black" points="2299.5,-169.5 2299.5,-205.5 2857.5,-205.5 2857.5,-169.5 2299.5,-169.5"/>
<text text-anchor="middle" x="2578.5" y="-183.8" font-family="Times,serif" font-size="14.00">_ZNSt7__cxx1112basic_stringIcSt11char_traitsIcESaIcEE9_M_createERmm</text>
</g>
<!-- Node0x5fa473d04a10&#45;&gt;Node0x5fa473d04150 -->
<g id="edge28" class="edge">
<title>Node0x5fa473d04a10&#45;&gt;Node0x5fa473d04150</title>
<path fill="none" stroke="black" d="M4174.63,-242.49C4169.89,-242.33 4165.18,-242.16 4160.5,-242 3585.51,-222.11 3441.27,-231.45 2866.5,-206 2866.27,-205.99 2866.05,-205.98 2865.82,-205.97"/>
<polygon fill="black" stroke="black" points="2865.69,-202.46 2855.54,-205.5 2865.37,-209.45 2865.69,-202.46"/>
</g>
<!-- Node0x5fa473d04ad0 -->
<g id="node30" class="node">
<title>Node0x5fa473d04ad0</title>
<polygon fill="none" stroke="black" points="2875.5,-169.5 2875.5,-205.5 3399.5,-205.5 3399.5,-169.5 2875.5,-169.5"/>
<text text-anchor="middle" x="3137.5" y="-183.8" font-family="Times,serif" font-size="14.00">_ZNSt7__cxx1112basic_stringIcSt11char_traitsIcESaIcEE7_M_dataEPc</text>
</g>
<!-- Node0x5fa473d04a10&#45;&gt;Node0x5fa473d04ad0 -->
<g id="edge29" class="edge">
<title>Node0x5fa473d04a10&#45;&gt;Node0x5fa473d04ad0</title>
<path fill="none" stroke="black" d="M4192.44,-242.49C3916.93,-230.36 3570.98,-214.79 3409.96,-206.07"/>
<polygon fill="black" stroke="black" points="3409.8,-202.56 3399.62,-205.51 3409.42,-209.55 3409.8,-202.56"/>
</g>
<!-- Node0x5fa473d05b10 -->
<g id="node31" class="node">
<title>Node0x5fa473d05b10</title>
<polygon fill="none" stroke="black" points="3418,-169.5 3418,-205.5 3975,-205.5 3975,-169.5 3418,-169.5"/>
<text text-anchor="middle" x="3696.5" y="-183.8" font-family="Times,serif" font-size="14.00">_ZNSt7__cxx1112basic_stringIcSt11char_traitsIcESaIcEE11_M_capacityEm</text>
</g>
<!-- Node0x5fa473d04a10&#45;&gt;Node0x5fa473d05b10 -->
<g id="edge30" class="edge">
<title>Node0x5fa473d04a10&#45;&gt;Node0x5fa473d05b10</title>
<path fill="none" stroke="black" d="M4371.04,-242.49C4234.66,-231.58 4057.85,-217.42 3919.46,-206.35"/>
<polygon fill="black" stroke="black" points="3919.39,-202.83 3909.14,-205.52 3918.83,-209.81 3919.39,-202.83"/>
</g>
<!-- Node0x5fa473d05d90 -->
<g id="node32" class="node">
<title>Node0x5fa473d05d90</title>
<polygon fill="none" stroke="black" points="3993.5,-169.5 3993.5,-205.5 4977.5,-205.5 4977.5,-169.5 3993.5,-169.5"/>
<text text-anchor="middle" x="4485.5" y="-183.8" font-family="Times,serif" font-size="14.00">_ZZNSt7__cxx1112basic_stringIcSt11char_traitsIcESaIcEE12_M_constructIPKcEEvT_S8_St20forward_iterator_tagEN6_GuardC2EPS4_</text>
</g>
<!-- Node0x5fa473d04a10&#45;&gt;Node0x5fa473d05d90 -->
<g id="edge31" class="edge">
<title>Node0x5fa473d04a10&#45;&gt;Node0x5fa473d05d90</title>
<path fill="none" stroke="black" d="M4559.78,-242.31C4547.02,-233.07 4531.11,-221.54 4517.29,-211.53"/>
<polygon fill="black" stroke="black" points="4519.16,-208.56 4509,-205.53 4515.05,-214.23 4519.16,-208.56"/>
</g>
<!-- Node0x5fa473d066d0 -->
<g id="node33" class="node">
<title>Node0x5fa473d066d0</title>
<polygon fill="none" stroke="black" points="4995.5,-169.5 4995.5,-205.5 5521.5,-205.5 5521.5,-169.5 4995.5,-169.5"/>
<text text-anchor="middle" x="5258.5" y="-183.8" font-family="Times,serif" font-size="14.00">_ZNKSt7__cxx1112basic_stringIcSt11char_traitsIcESaIcEE7_M_dataEv</text>
</g>
<!-- Node0x5fa473d04a10&#45;&gt;Node0x5fa473d066d0 -->
<g id="edge32" class="edge">
<title>Node0x5fa473d04a10&#45;&gt;Node0x5fa473d066d0</title>
<path fill="none" stroke="black" d="M4745.18,-242.49C4848.23,-231.65 4981.63,-217.62 5086.61,-206.58"/>
<polygon fill="black" stroke="black" points="5087.1,-210.05 5096.68,-205.52 5086.37,-203.09 5087.1,-210.05"/>
</g>
<!-- Node0x5fa473d05250 -->
<g id="node34" class="node">
<title>Node0x5fa473d05250</title>
<polygon fill="none" stroke="black" points="5540,-169.5 5540,-205.5 6169,-205.5 6169,-169.5 5540,-169.5"/>
<text text-anchor="middle" x="5854.5" y="-183.8" font-family="Times,serif" font-size="14.00">_ZNSt7__cxx1112basic_stringIcSt11char_traitsIcESaIcEE13_S_copy_charsEPcPKcS7_</text>
</g>
<!-- Node0x5fa473d04a10&#45;&gt;Node0x5fa473d05250 -->
<g id="edge33" class="edge">
<title>Node0x5fa473d04a10&#45;&gt;Node0x5fa473d05250</title>
<path fill="none" stroke="black" d="M4887.94,-242.49C5085.01,-231.48 5341.01,-217.18 5540.04,-206.07"/>
<polygon fill="black" stroke="black" points="5540.28,-209.56 5550.07,-205.51 5539.89,-202.57 5540.28,-209.56"/>
</g>
<!-- Node0x5fa473d01870 -->
<g id="node35" class="node">
<title>Node0x5fa473d01870</title>
<polygon fill="none" stroke="black" points="6187.5,-169.5 6187.5,-205.5 6759.5,-205.5 6759.5,-169.5 6187.5,-169.5"/>
<text text-anchor="middle" x="6473.5" y="-183.8" font-family="Times,serif" font-size="14.00">_ZNSt7__cxx1112basic_stringIcSt11char_traitsIcESaIcEE13_M_set_lengthEm</text>
</g>
<!-- Node0x5fa473d04a10&#45;&gt;Node0x5fa473d01870 -->
<g id="edge34" class="edge">
<title>Node0x5fa473d04a10&#45;&gt;Node0x5fa473d01870</title>
<path fill="none" stroke="black" d="M4992.93,-242.49C4997.48,-242.33 5002,-242.16 5006.5,-242 5527.3,-223.23 5657.89,-229.43 6178.5,-206 6178.72,-205.99 6178.95,-205.98 6179.17,-205.97"/>
<polygon fill="black" stroke="black" points="6179.5,-209.46 6189.33,-205.5 6179.18,-202.47 6179.5,-209.46"/>
</g>
<!-- Node0x5fa473d031d0 -->
<g id="node36" class="node">
<title>Node0x5fa473d031d0</title>
<polygon fill="none" stroke="black" points="6777.5,-169.5 6777.5,-205.5 7735.5,-205.5 7735.5,-169.5 6777.5,-169.5"/>
<text text-anchor="middle" x="7256.5" y="-183.8" font-family="Times,serif" font-size="14.00">_ZZNSt7__cxx1112basic_stringIcSt11char_traitsIcESaIcEE12_M_constructIPKcEEvT_S8_St20forward_iterator_tagEN6_GuardD2Ev</text>
</g>
<!-- Node0x5fa473d04a10&#45;&gt;Node0x5fa473d031d0 -->
<g id="edge35" class="edge">
<title>Node0x5fa473d04a10&#45;&gt;Node0x5fa473d031d0</title>
<path fill="none" stroke="black" d="M4990.69,-242.5C4995.99,-242.33 5001.27,-242.16 5006.5,-242 5789.4,-217.81 5985.54,-228.04 6768.5,-206 6770.91,-205.93 6773.33,-205.86 6775.76,-205.79"/>
<polygon fill="black" stroke="black" points="6775.87,-209.29 6785.77,-205.51 6775.67,-202.3 6775.87,-209.29"/>
</g>
<!-- Node0x5fa473d045d0 -->
<g id="node37" class="node">
<title>Node0x5fa473d045d0</title>
<polygon fill="none" stroke="black" points="6603,-96.5 6603,-132.5 7150,-132.5 7150,-96.5 6603,-96.5"/>
<text text-anchor="middle" x="6876.5" y="-110.8" font-family="Times,serif" font-size="14.00">_ZNSt7__cxx1112basic_stringIcSt11char_traitsIcESaIcEE10_M_disposeEv</text>
</g>
<!-- Node0x5fa473d031d0&#45;&gt;Node0x5fa473d045d0 -->
<g id="edge37" class="edge">
<title>Node0x5fa473d031d0&#45;&gt;Node0x5fa473d045d0</title>
<path fill="none" stroke="black" d="M7165.48,-169.49C7108.92,-158.93 7036.12,-145.32 6977.75,-134.42"/>
<polygon fill="black" stroke="black" points="6978.24,-130.95 6967.76,-132.55 6976.95,-137.83 6978.24,-130.95"/>
</g>
<!-- Node0x5fa473cfec90 -->
<g id="node38" class="node">
<title>Node0x5fa473cfec90</title>
<polygon fill="none" stroke="black" points="7168,-96.5 7168,-132.5 7345,-132.5 7345,-96.5 7168,-96.5"/>
<text text-anchor="middle" x="7256.5" y="-110.8" font-family="Times,serif" font-size="14.00">__clang_call_terminate</text>
</g>
<!-- Node0x5fa473d031d0&#45;&gt;Node0x5fa473cfec90 -->
<g id="edge38" class="edge">
<title>Node0x5fa473d031d0&#45;&gt;Node0x5fa473cfec90</title>
<path fill="none" stroke="black" d="M7256.5,-169.31C7256.5,-161.29 7256.5,-151.55 7256.5,-142.57"/>
<polygon fill="black" stroke="black" points="7260,-142.53 7256.5,-132.53 7253,-142.53 7260,-142.53"/>
</g>
<!-- Node0x5fa473cfec90&#45;&gt;Node0x5fa473cff350 -->
<g id="edge39" class="edge">
<title>Node0x5fa473cfec90&#45;&gt;Node0x5fa473cff350</title>
<path fill="none" stroke="black" d="M7167.77,-96.91C7164.99,-96.57 7162.22,-96.27 7159.5,-96 6592.31,-39.96 4759.37,-41.21 4345.89,-42.24"/>
<polygon fill="black" stroke="black" points="4345.8,-38.74 4335.81,-42.26 4345.82,-45.74 4345.8,-38.74"/>
</g>
<!-- Node0x5fa473cfe1b0 -->
<g id="node39" class="node">
<title>Node0x5fa473cfe1b0</title>
<polygon fill="none" stroke="black" points="7188,-23.5 7188,-59.5 7325,-59.5 7325,-23.5 7188,-23.5"/>
<text text-anchor="middle" x="7256.5" y="-37.8" font-family="Times,serif" font-size="14.00">_ZSt9terminatev</text>
</g>
<!-- Node0x5fa473cfec90&#45;&gt;Node0x5fa473cfe1b0 -->
<g id="edge40" class="edge">
<title>Node0x5fa473cfec90&#45;&gt;Node0x5fa473cfe1b0</title>
<path fill="none" stroke="black" d="M7256.5,-96.31C7256.5,-88.29 7256.5,-78.55 7256.5,-69.57"/>
<polygon fill="black" stroke="black" points="7260,-69.53 7256.5,-59.53 7253,-69.53 7260,-69.53"/>
</g>
</g>
</svg>
