<?xml version="1.0" encoding="UTF-8" standalone="no"?>
<!DOCTYPE svg PUBLIC "-//W3C//DTD SVG 1.1//EN"
 "http://www.w3.org/Graphics/SVG/1.1/DTD/svg11.dtd">
<!-- Generated by graphviz version 2.43.0 (0)
 -->
<!-- Title: Call graph: /home/h02332/po/research/call&#45;graph/cfl/icc_apply_fuzzer.ll Pages: 1 -->
<svg width="553pt" height="891pt"
 viewBox="0.00 0.00 553.20 891.20" xmlns="http://www.w3.org/2000/svg" xmlns:xlink="http://www.w3.org/1999/xlink">
<g id="graph0" class="graph" transform="scale(1 1) rotate(0) translate(21.6 869.6)">
<title>Call graph: /home/h02332/po/research/call&#45;graph/cfl/icc_apply_fuzzer.ll</title>
<polygon fill="white" stroke="transparent" points="-21.6,21.6 -21.6,-869.6 531.6,-869.6 531.6,21.6 -21.6,21.6"/>
<!-- Node0x59f0fbd5d3f0 -->
<g id="node1" class="node">
<title>Node0x59f0fbd5d3f0</title>
<path fill="#f0f4ff" stroke="black" d="M116,-442C116,-442 12,-442 12,-442 6,-442 0,-436 0,-430 0,-430 0,-418 0,-418 0,-412 6,-406 12,-406 12,-406 116,-406 116,-406 122,-406 128,-412 128,-418 128,-418 128,-430 128,-430 128,-436 122,-442 116,-442"/>
<text text-anchor="middle" x="64" y="-421.8" font-family="Courier,monospace" font-size="9.00">LLVMFuzzerTestOneInput</text>
</g>
<!-- Node0x59f0fbd5cb50 -->
<g id="node2" class="node">
<title>Node0x59f0fbd5cb50</title>
<path fill="#f0f4ff" stroke="black" d="M291.5,-848C291.5,-848 234.5,-848 234.5,-848 228.5,-848 222.5,-842 222.5,-836 222.5,-836 222.5,-824 222.5,-824 222.5,-818 228.5,-812 234.5,-812 234.5,-812 291.5,-812 291.5,-812 297.5,-812 303.5,-818 303.5,-824 303.5,-824 303.5,-836 303.5,-836 303.5,-842 297.5,-848 291.5,-848"/>
<text text-anchor="middle" x="263" y="-827.8" font-family="Courier,monospace" font-size="9.00">fuzz_tmpdir()</text>
</g>
<!-- Node0x59f0fbd5d3f0&#45;&gt;Node0x59f0fbd5cb50 -->
<g id="edge1" class="edge">
<title>Node0x59f0fbd5d3f0&#45;&gt;Node0x59f0fbd5cb50</title>
<path fill="none" stroke="#4a6fa5" d="M65.51,-442.07C68.17,-501.62 84.59,-693.96 186,-801 194.19,-809.64 205.23,-815.74 216.35,-820.03"/>
<polygon fill="#4a6fa5" stroke="#4a6fa5" points="215.8,-822.06 222.16,-822.11 217.22,-818.11 215.8,-822.06"/>
</g>
<!-- Node0x59f0fbd5c860 -->
<g id="node3" class="node">
<title>Node0x59f0fbd5c860</title>
<path fill="#f0f4ff" stroke="black" d="M302,-790C302,-790 224,-790 224,-790 218,-790 212,-784 212,-778 212,-778 212,-766 212,-766 212,-760 218,-754 224,-754 224,-754 302,-754 302,-754 308,-754 314,-760 314,-766 314,-766 314,-778 314,-778 314,-784 308,-790 302,-790"/>
<text text-anchor="middle" x="263" y="-769.8" font-family="Courier,monospace" font-size="9.00">fuzz_build_path()</text>
</g>
<!-- Node0x59f0fbd5d3f0&#45;&gt;Node0x59f0fbd5c860 -->
<g id="edge2" class="edge">
<title>Node0x59f0fbd5d3f0&#45;&gt;Node0x59f0fbd5c860</title>
<path fill="none" stroke="#4a6fa5" d="M66.76,-442.29C72.88,-495.95 97.92,-654.75 186,-743 191.72,-748.74 198.7,-753.36 206.08,-757.07"/>
<polygon fill="#4a6fa5" stroke="#4a6fa5" points="205.46,-759.1 211.79,-759.75 207.24,-755.3 205.46,-759.1"/>
</g>
<!-- Node0x59f0fbd5c7f0 -->
<g id="node4" class="node">
<title>Node0x59f0fbd5c7f0</title>
<path fill="#f0f4ff" stroke="black" d="M278,-732C278,-732 248,-732 248,-732 242,-732 236,-726 236,-720 236,-720 236,-708 236,-708 236,-702 242,-696 248,-696 248,-696 278,-696 278,-696 284,-696 290,-702 290,-708 290,-708 290,-720 290,-720 290,-726 284,-732 278,-732"/>
<text text-anchor="middle" x="263" y="-711.8" font-family="Courier,monospace" font-size="9.00">mkstemp</text>
</g>
<!-- Node0x59f0fbd5d3f0&#45;&gt;Node0x59f0fbd5c7f0 -->
<g id="edge3" class="edge">
<title>Node0x59f0fbd5d3f0&#45;&gt;Node0x59f0fbd5c7f0</title>
<path fill="none" stroke="#4a6fa5" d="M68.51,-442.29C78.42,-489.2 110.94,-614.99 186,-685 198.02,-696.21 214.82,-703.22 229.56,-707.53"/>
<polygon fill="#4a6fa5" stroke="#4a6fa5" points="229.4,-709.67 235.74,-709.22 230.5,-705.61 229.4,-709.67"/>
</g>
<!-- Node0x59f0fbd5cfe0 -->
<g id="node5" class="node">
<title>Node0x59f0fbd5cfe0</title>
<path fill="#f0f4ff" stroke="black" d="M304.5,-674C304.5,-674 221.5,-674 221.5,-674 215.5,-674 209.5,-668 209.5,-662 209.5,-662 209.5,-650 209.5,-650 209.5,-644 215.5,-638 221.5,-638 221.5,-638 304.5,-638 304.5,-638 310.5,-638 316.5,-644 316.5,-650 316.5,-650 316.5,-662 316.5,-662 316.5,-668 310.5,-674 304.5,-674"/>
<text text-anchor="middle" x="263" y="-653.8" font-family="Courier,monospace" font-size="9.00">CIccCmm::CIccCmm()</text>
</g>
<!-- Node0x59f0fbd5d3f0&#45;&gt;Node0x59f0fbd5cfe0 -->
<g id="edge4" class="edge">
<title>Node0x59f0fbd5d3f0&#45;&gt;Node0x59f0fbd5cfe0</title>
<path fill="none" stroke="#4a6fa5" d="M71.13,-442.19C85.24,-481.41 123.65,-574.6 186,-627 191.21,-631.38 197.16,-635.14 203.38,-638.36"/>
<polygon fill="#4a6fa5" stroke="#4a6fa5" points="202.84,-640.43 209.16,-641.16 204.68,-636.65 202.84,-640.43"/>
</g>
<!-- Node0x59f0fbd5e260 -->
<g id="node6" class="node">
<title>Node0x59f0fbd5e260</title>
<path fill="#f0f4ff" stroke="black" d="M307,-616C307,-616 219,-616 219,-616 213,-616 207,-610 207,-604 207,-604 207,-592 207,-592 207,-586 213,-580 219,-580 219,-580 307,-580 307,-580 313,-580 319,-586 319,-592 319,-592 319,-604 319,-604 319,-610 313,-616 307,-616"/>
<text text-anchor="middle" x="263" y="-595.8" font-family="Courier,monospace" font-size="9.00">CIccCmm::AddXform()</text>
</g>
<!-- Node0x59f0fbd5d3f0&#45;&gt;Node0x59f0fbd5e260 -->
<g id="edge5" class="edge">
<title>Node0x59f0fbd5d3f0&#45;&gt;Node0x59f0fbd5e260</title>
<path fill="none" stroke="#4a6fa5" d="M75.76,-442.16C94.54,-472.43 136.1,-533.38 186,-569 190.74,-572.38 195.93,-575.43 201.29,-578.16"/>
<polygon fill="#4a6fa5" stroke="#4a6fa5" points="200.39,-580.06 206.71,-580.79 202.23,-576.28 200.39,-580.06"/>
</g>
<!-- Node0x59f0fbd5ee60 -->
<g id="node7" class="node">
<title>Node0x59f0fbd5ee60</title>
<path fill="#f0f4ff" stroke="black" d="M299.5,-558C299.5,-558 226.5,-558 226.5,-558 220.5,-558 214.5,-552 214.5,-546 214.5,-546 214.5,-534 214.5,-534 214.5,-528 220.5,-522 226.5,-522 226.5,-522 299.5,-522 299.5,-522 305.5,-522 311.5,-528 311.5,-534 311.5,-534 311.5,-546 311.5,-546 311.5,-552 305.5,-558 299.5,-558"/>
<text text-anchor="middle" x="263" y="-537.8" font-family="Courier,monospace" font-size="9.00">CIccCmm::Begin()</text>
</g>
<!-- Node0x59f0fbd5d3f0&#45;&gt;Node0x59f0fbd5ee60 -->
<g id="edge6" class="edge">
<title>Node0x59f0fbd5d3f0&#45;&gt;Node0x59f0fbd5ee60</title>
<path fill="none" stroke="#4a6fa5" d="M86.6,-442.19C109.97,-461.2 148.87,-491.01 186,-511 193.04,-514.79 200.67,-518.32 208.3,-521.52"/>
<polygon fill="#4a6fa5" stroke="#4a6fa5" points="207.78,-523.57 214.13,-523.9 209.37,-519.69 207.78,-523.57"/>
</g>
<!-- Node0x59f0fbd60cc0 -->
<g id="node8" class="node">
<title>Node0x59f0fbd60cc0</title>
<path fill="#f0f4ff" stroke="black" d="M299.5,-500C299.5,-500 226.5,-500 226.5,-500 220.5,-500 214.5,-494 214.5,-488 214.5,-488 214.5,-476 214.5,-476 214.5,-470 220.5,-464 226.5,-464 226.5,-464 299.5,-464 299.5,-464 305.5,-464 311.5,-470 311.5,-476 311.5,-476 311.5,-488 311.5,-488 311.5,-494 305.5,-500 299.5,-500"/>
<text text-anchor="middle" x="263" y="-479.8" font-family="Courier,monospace" font-size="9.00">CIccCmm::Valid()</text>
</g>
<!-- Node0x59f0fbd5d3f0&#45;&gt;Node0x59f0fbd60cc0 -->
<g id="edge7" class="edge">
<title>Node0x59f0fbd5d3f0&#45;&gt;Node0x59f0fbd60cc0</title>
<path fill="none" stroke="#4a6fa5" d="M126.25,-442.03C152.5,-449.76 182.88,-458.71 208.24,-466.17"/>
<polygon fill="#4a6fa5" stroke="#4a6fa5" points="207.89,-468.26 214.24,-467.94 209.08,-464.23 207.89,-468.26"/>
</g>
<!-- Node0x59f0fbd5f520 -->
<g id="node9" class="node">
<title>Node0x59f0fbd5f520</title>
<path fill="#f0f4ff" stroke="black" d="M307,-442C307,-442 219,-442 219,-442 213,-442 207,-436 207,-430 207,-430 207,-418 207,-418 207,-412 213,-406 219,-406 219,-406 307,-406 307,-406 313,-406 319,-412 319,-418 319,-418 319,-430 319,-430 319,-436 313,-442 307,-442"/>
<text text-anchor="middle" x="263" y="-421.8" font-family="Courier,monospace" font-size="9.00">CIccCmm::~CIccCmm()</text>
</g>
<!-- Node0x59f0fbd5d3f0&#45;&gt;Node0x59f0fbd5f520 -->
<g id="edge8" class="edge">
<title>Node0x59f0fbd5d3f0&#45;&gt;Node0x59f0fbd5f520</title>
<path fill="none" stroke="#4a6fa5" d="M128.14,-424C151.39,-424 177.66,-424 200.74,-424"/>
<polygon fill="#4a6fa5" stroke="#4a6fa5" points="200.84,-426.1 206.84,-424 200.84,-421.9 200.84,-426.1"/>
</g>
<!-- Node0x59f0fbd61300 -->
<g id="node10" class="node">
<title>Node0x59f0fbd61300</title>
<path fill="#f0f4ff" stroke="black" d="M307,-384C307,-384 219,-384 219,-384 213,-384 207,-378 207,-372 207,-372 207,-360 207,-360 207,-354 213,-348 219,-348 219,-348 307,-348 307,-348 313,-348 319,-354 319,-360 319,-360 319,-372 319,-372 319,-378 313,-384 307,-384"/>
<text text-anchor="middle" x="263" y="-363.8" font-family="Courier,monospace" font-size="9.00">CIccCmm::GetApply()</text>
</g>
<!-- Node0x59f0fbd5d3f0&#45;&gt;Node0x59f0fbd61300 -->
<g id="edge9" class="edge">
<title>Node0x59f0fbd5d3f0&#45;&gt;Node0x59f0fbd61300</title>
<path fill="none" stroke="#4a6fa5" d="M126.25,-405.97C149.99,-398.98 177.12,-390.99 200.85,-384"/>
<polygon fill="#4a6fa5" stroke="#4a6fa5" points="201.64,-385.96 206.81,-382.25 200.46,-381.93 201.64,-385.96"/>
</g>
<!-- Node0x59f0fbd63320 -->
<g id="node11" class="node">
<title>Node0x59f0fbd63320</title>
<path fill="#f0f4ff" stroke="black" d="M317.5,-326C317.5,-326 208.5,-326 208.5,-326 202.5,-326 196.5,-320 196.5,-314 196.5,-314 196.5,-302 196.5,-302 196.5,-296 202.5,-290 208.5,-290 208.5,-290 317.5,-290 317.5,-290 323.5,-290 329.5,-296 329.5,-302 329.5,-302 329.5,-314 329.5,-314 329.5,-320 323.5,-326 317.5,-326"/>
<text text-anchor="middle" x="263" y="-305.8" font-family="Courier,monospace" font-size="9.00">CIccCmm::GetDestSpace()</text>
</g>
<!-- Node0x59f0fbd5d3f0&#45;&gt;Node0x59f0fbd63320 -->
<g id="edge10" class="edge">
<title>Node0x59f0fbd5d3f0&#45;&gt;Node0x59f0fbd63320</title>
<path fill="none" stroke="#4a6fa5" d="M86.6,-405.81C109.97,-386.8 148.87,-356.99 186,-337 191.62,-333.98 197.62,-331.12 203.69,-328.46"/>
<polygon fill="#4a6fa5" stroke="#4a6fa5" points="204.59,-330.36 209.28,-326.07 202.94,-326.49 204.59,-330.36"/>
</g>
<!-- Node0x59f0fbd62ba0 -->
<g id="node12" class="node">
<title>Node0x59f0fbd62ba0</title>
<path fill="#f0f4ff" stroke="black" d="M328,-268C328,-268 198,-268 198,-268 192,-268 186,-262 186,-256 186,-256 186,-244 186,-244 186,-238 192,-232 198,-232 198,-232 328,-232 328,-232 334,-232 340,-238 340,-244 340,-244 340,-256 340,-256 340,-262 334,-268 328,-268"/>
<text text-anchor="middle" x="263" y="-247.8" font-family="Courier,monospace" font-size="9.00">CIccCmm::GetSourceSamples()</text>
</g>
<!-- Node0x59f0fbd5d3f0&#45;&gt;Node0x59f0fbd62ba0 -->
<g id="edge11" class="edge">
<title>Node0x59f0fbd5d3f0&#45;&gt;Node0x59f0fbd62ba0</title>
<path fill="none" stroke="#4a6fa5" d="M75.76,-405.84C94.54,-375.57 136.1,-314.62 186,-279 190.13,-276.05 194.6,-273.36 199.23,-270.91"/>
<polygon fill="#4a6fa5" stroke="#4a6fa5" points="200.31,-272.72 204.73,-268.14 198.43,-268.96 200.31,-272.72"/>
</g>
<!-- Node0x59f0fbd626a0 -->
<g id="node13" class="node">
<title>Node0x59f0fbd626a0</title>
<path fill="#f0f4ff" stroke="black" d="M323,-210C323,-210 203,-210 203,-210 197,-210 191,-204 191,-198 191,-198 191,-186 191,-186 191,-180 197,-174 203,-174 203,-174 323,-174 323,-174 329,-174 335,-180 335,-186 335,-186 335,-198 335,-198 335,-204 329,-210 323,-210"/>
<text text-anchor="middle" x="263" y="-189.8" font-family="Courier,monospace" font-size="9.00">CIccCmm::GetDestSamples()</text>
</g>
<!-- Node0x59f0fbd5d3f0&#45;&gt;Node0x59f0fbd626a0 -->
<g id="edge12" class="edge">
<title>Node0x59f0fbd5d3f0&#45;&gt;Node0x59f0fbd626a0</title>
<path fill="none" stroke="#4a6fa5" d="M71.13,-405.81C85.24,-366.59 123.65,-273.4 186,-221 189.42,-218.13 193.15,-215.52 197.07,-213.16"/>
<polygon fill="#4a6fa5" stroke="#4a6fa5" points="198.32,-214.87 202.52,-210.09 196.26,-211.21 198.32,-214.87"/>
</g>
<!-- Node0x59f0fbd635a0 -->
<g id="node14" class="node">
<title>Node0x59f0fbd635a0</title>
<path fill="#f0f4ff" stroke="black" d="M323,-152C323,-152 203,-152 203,-152 197,-152 191,-146 191,-140 191,-140 191,-128 191,-128 191,-122 197,-116 203,-116 203,-116 323,-116 323,-116 329,-116 335,-122 335,-128 335,-128 335,-140 335,-140 335,-146 329,-152 323,-152"/>
<text text-anchor="middle" x="263" y="-131.8" font-family="Courier,monospace" font-size="9.00">CIccCmm::GetSourceSpace()</text>
</g>
<!-- Node0x59f0fbd5d3f0&#45;&gt;Node0x59f0fbd635a0 -->
<g id="edge13" class="edge">
<title>Node0x59f0fbd5d3f0&#45;&gt;Node0x59f0fbd635a0</title>
<path fill="none" stroke="#4a6fa5" d="M68.51,-405.71C78.42,-358.8 110.94,-233.01 186,-163 188.98,-160.22 192.26,-157.7 195.72,-155.41"/>
<polygon fill="#4a6fa5" stroke="#4a6fa5" points="197.28,-156.92 201.31,-152 195.1,-153.33 197.28,-156.92"/>
</g>
<!-- Node0x59f0fbd63820 -->
<g id="node15" class="node">
<title>Node0x59f0fbd63820</title>
<path fill="#f0f4ff" stroke="black" d="M317.5,-94C317.5,-94 208.5,-94 208.5,-94 202.5,-94 196.5,-88 196.5,-82 196.5,-82 196.5,-70 196.5,-70 196.5,-64 202.5,-58 208.5,-58 208.5,-58 317.5,-58 317.5,-58 323.5,-58 329.5,-64 329.5,-70 329.5,-70 329.5,-82 329.5,-82 329.5,-88 323.5,-94 317.5,-94"/>
<text text-anchor="middle" x="263" y="-73.8" font-family="Courier,monospace" font-size="9.00">CIccCmm::GetNumXforms()</text>
</g>
<!-- Node0x59f0fbd5d3f0&#45;&gt;Node0x59f0fbd63820 -->
<g id="edge14" class="edge">
<title>Node0x59f0fbd5d3f0&#45;&gt;Node0x59f0fbd63820</title>
<path fill="none" stroke="#4a6fa5" d="M66.76,-405.71C72.88,-352.05 97.92,-193.25 186,-105 188.75,-102.24 191.79,-99.75 195.02,-97.48"/>
<polygon fill="#4a6fa5" stroke="#4a6fa5" points="196.34,-99.13 200.25,-94.11 194.07,-95.6 196.34,-99.13"/>
</g>
<!-- Node0x59f0fbd630a0 -->
<g id="node16" class="node">
<title>Node0x59f0fbd630a0</title>
<path fill="#f0f4ff" stroke="black" d="M299.5,-36C299.5,-36 226.5,-36 226.5,-36 220.5,-36 214.5,-30 214.5,-24 214.5,-24 214.5,-12 214.5,-12 214.5,-6 220.5,0 226.5,0 226.5,0 299.5,0 299.5,0 305.5,0 311.5,-6 311.5,-12 311.5,-12 311.5,-24 311.5,-24 311.5,-30 305.5,-36 299.5,-36"/>
<text text-anchor="middle" x="263" y="-15.8" font-family="Courier,monospace" font-size="9.00">CIccCmm::Apply()</text>
</g>
<!-- Node0x59f0fbd5d3f0&#45;&gt;Node0x59f0fbd630a0 -->
<g id="edge15" class="edge">
<title>Node0x59f0fbd5d3f0&#45;&gt;Node0x59f0fbd630a0</title>
<path fill="none" stroke="#4a6fa5" d="M65.51,-405.93C68.17,-346.38 84.59,-154.04 186,-47 192.23,-40.42 200.12,-35.32 208.44,-31.36"/>
<polygon fill="#4a6fa5" stroke="#4a6fa5" points="209.6,-33.14 214.25,-28.8 207.91,-29.3 209.6,-33.14"/>
</g>
<!-- Node0x59f0fbd63d20 -->
<g id="node17" class="node">
<title>Node0x59f0fbd63d20</title>
<path fill="#f0f4ff" stroke="black" d="M498,-239C498,-239 410,-239 410,-239 404,-239 398,-233 398,-227 398,-227 398,-215 398,-215 398,-209 404,-203 410,-203 410,-203 498,-203 498,-203 504,-203 510,-209 510,-215 510,-215 510,-227 510,-227 510,-233 504,-239 498,-239"/>
<text text-anchor="middle" x="454" y="-218.8" font-family="Courier,monospace" font-size="9.00">icGetSpaceSamples()</text>
</g>
<!-- Node0x59f0fbd62ba0&#45;&gt;Node0x59f0fbd63d20 -->
<g id="edge16" class="edge">
<title>Node0x59f0fbd62ba0&#45;&gt;Node0x59f0fbd63d20</title>
<path fill="none" stroke="#4a6fa5" d="M340.06,-238.33C357.23,-235.69 375.25,-232.93 391.73,-230.4"/>
<polygon fill="#4a6fa5" stroke="#4a6fa5" points="392.11,-232.47 397.72,-229.48 391.47,-228.32 392.11,-232.47"/>
</g>
<!-- Node0x59f0fbd626a0&#45;&gt;Node0x59f0fbd63d20 -->
<g id="edge17" class="edge">
<title>Node0x59f0fbd626a0&#45;&gt;Node0x59f0fbd63d20</title>
<path fill="none" stroke="#4a6fa5" d="M335.18,-202.92C353.8,-205.78 373.7,-208.83 391.75,-211.6"/>
<polygon fill="#4a6fa5" stroke="#4a6fa5" points="391.54,-213.69 397.79,-212.53 392.18,-209.54 391.54,-213.69"/>
</g>
</g>
</svg>
