<?xml version="1.0" encoding="UTF-8" standalone="no"?>
<!DOCTYPE svg PUBLIC "-//W3C//DTD SVG 1.1//EN"
 "http://www.w3.org/Graphics/SVG/1.1/DTD/svg11.dtd">
<!-- Generated by graphviz version 2.43.0 (0)
 -->
<!-- Title: Call graph: /home/h02332/po/research/call&#45;graph/cfl/icc_toxml_fuzzer.ll Pages: 1 -->
<svg width="764pt" height="1587pt"
 viewBox="0.00 0.00 764.20 1587.20" xmlns="http://www.w3.org/2000/svg" xmlns:xlink="http://www.w3.org/1999/xlink">
<g id="graph0" class="graph" transform="scale(1 1) rotate(0) translate(21.6 1565.6)">
<title>Call graph: /home/h02332/po/research/call&#45;graph/cfl/icc_toxml_fuzzer.ll</title>
<polygon fill="white" stroke="transparent" points="-21.6,21.6 -21.6,-1565.6 742.6,-1565.6 742.6,21.6 -21.6,21.6"/>
<!-- Node0x5b928a97c4e0 -->
<g id="node1" class="node">
<title>Node0x5b928a97c4e0</title>
<path fill="#f0f4ff" stroke="black" d="M153,-181C153,-181 59,-181 59,-181 53,-181 47,-175 47,-169 47,-169 47,-157 47,-157 47,-151 53,-145 59,-145 59,-145 153,-145 153,-145 159,-145 165,-151 165,-157 165,-157 165,-169 165,-169 165,-175 159,-181 153,-181"/>
<text text-anchor="middle" x="106" y="-160.8" font-family="Courier,monospace" font-size="9.00">LLVMFuzzerInitialize</text>
</g>
<!-- Node0x5b928a97be00 -->
<g id="node2" class="node">
<title>Node0x5b928a97be00</title>
<path fill="#f0f4ff" stroke="black" d="M470,-297C470,-297 282,-297 282,-297 276,-297 270,-291 270,-285 270,-285 270,-273 270,-273 270,-267 276,-261 282,-261 282,-261 470,-261 470,-261 476,-261 482,-267 482,-273 482,-273 482,-285 482,-285 482,-291 476,-297 470,-297"/>
<text text-anchor="middle" x="376" y="-276.8" font-family="Courier,monospace" font-size="9.00">CIccTagXmlFactory::CIccTagXmlFactory()</text>
</g>
<!-- Node0x5b928a97c4e0&#45;&gt;Node0x5b928a97be00 -->
<g id="edge1" class="edge">
<title>Node0x5b928a97c4e0&#45;&gt;Node0x5b928a97be00</title>
<path fill="none" stroke="#4a6fa5" d="M148.88,-181.12C197.21,-202.05 276.55,-236.39 327.25,-258.33"/>
<polygon fill="#4a6fa5" stroke="#4a6fa5" points="326.64,-260.36 332.98,-260.81 328.31,-256.5 326.64,-260.36"/>
</g>
<!-- Node0x5b928a95cc60 -->
<g id="node3" class="node">
<title>Node0x5b928a95cc60</title>
<path fill="#f0f4ff" stroke="black" d="M446.5,-210C446.5,-210 305.5,-210 305.5,-210 299.5,-210 293.5,-204 293.5,-198 293.5,-198 293.5,-186 293.5,-186 293.5,-180 299.5,-174 305.5,-174 305.5,-174 446.5,-174 446.5,-174 452.5,-174 458.5,-180 458.5,-186 458.5,-186 458.5,-198 458.5,-198 458.5,-204 452.5,-210 446.5,-210"/>
<text text-anchor="middle" x="376" y="-189.8" font-family="Courier,monospace" font-size="9.00">CIccMpeCreator::PushFactory()</text>
</g>
<!-- Node0x5b928a97c4e0&#45;&gt;Node0x5b928a95cc60 -->
<g id="edge2" class="edge">
<title>Node0x5b928a97c4e0&#45;&gt;Node0x5b928a95cc60</title>
<path fill="none" stroke="#4a6fa5" d="M165.15,-169.29C200.73,-173.14 246.96,-178.14 286.96,-182.47"/>
<polygon fill="#4a6fa5" stroke="#4a6fa5" points="287.13,-184.6 293.32,-183.16 287.59,-180.43 287.13,-184.6"/>
</g>
<!-- Node0x5b928a96d8a0 -->
<g id="node4" class="node">
<title>Node0x5b928a96d8a0</title>
<path fill="#f0f4ff" stroke="black" d="M446.5,-152C446.5,-152 305.5,-152 305.5,-152 299.5,-152 293.5,-146 293.5,-140 293.5,-140 293.5,-128 293.5,-128 293.5,-122 299.5,-116 305.5,-116 305.5,-116 446.5,-116 446.5,-116 452.5,-116 458.5,-122 458.5,-128 458.5,-128 458.5,-140 458.5,-140 458.5,-146 452.5,-152 446.5,-152"/>
<text text-anchor="middle" x="376" y="-131.8" font-family="Courier,monospace" font-size="9.00">CIccTagCreator::PushFactory()</text>
</g>
<!-- Node0x5b928a97c4e0&#45;&gt;Node0x5b928a96d8a0 -->
<g id="edge3" class="edge">
<title>Node0x5b928a97c4e0&#45;&gt;Node0x5b928a96d8a0</title>
<path fill="none" stroke="#4a6fa5" d="M165.15,-156.71C200.73,-152.86 246.96,-147.86 286.96,-143.53"/>
<polygon fill="#4a6fa5" stroke="#4a6fa5" points="287.59,-145.57 293.32,-142.84 287.13,-141.4 287.59,-145.57"/>
</g>
<!-- Node0x5b928a948ee0 -->
<g id="node5" class="node">
<title>Node0x5b928a948ee0</title>
<path fill="#f0f4ff" stroke="black" d="M470,-65C470,-65 282,-65 282,-65 276,-65 270,-59 270,-53 270,-53 270,-41 270,-41 270,-35 276,-29 282,-29 282,-29 470,-29 470,-29 476,-29 482,-35 482,-41 482,-41 482,-53 482,-53 482,-59 476,-65 470,-65"/>
<text text-anchor="middle" x="376" y="-44.8" font-family="Courier,monospace" font-size="9.00">CIccMpeXmlFactory::CIccMpeXmlFactory()</text>
</g>
<!-- Node0x5b928a97c4e0&#45;&gt;Node0x5b928a948ee0 -->
<g id="edge4" class="edge">
<title>Node0x5b928a97c4e0&#45;&gt;Node0x5b928a948ee0</title>
<path fill="none" stroke="#4a6fa5" d="M148.88,-144.88C197.21,-123.95 276.55,-89.61 327.25,-67.67"/>
<polygon fill="#4a6fa5" stroke="#4a6fa5" points="328.31,-69.5 332.98,-65.19 326.64,-65.64 328.31,-69.5"/>
</g>
<!-- Node0x5b928a944ab0 -->
<g id="node6" class="node">
<title>Node0x5b928a944ab0</title>
<path fill="#f0f4ff" stroke="black" d="M709,-326C709,-326 552,-326 552,-326 546,-326 540,-320 540,-314 540,-314 540,-302 540,-302 540,-296 546,-290 552,-290 552,-290 709,-290 709,-290 715,-290 721,-296 721,-302 721,-302 721,-314 721,-314 721,-320 715,-326 709,-326"/>
<text text-anchor="middle" x="630.5" y="-305.8" font-family="Courier,monospace" font-size="9.00">IIccTagFactory::IIccTagFactory()</text>
</g>
<!-- Node0x5b928a97be00&#45;&gt;Node0x5b928a944ab0 -->
<g id="edge5" class="edge">
<title>Node0x5b928a97be00&#45;&gt;Node0x5b928a944ab0</title>
<path fill="none" stroke="#4a6fa5" d="M482.25,-291.09C499.25,-293.04 516.76,-295.05 533.52,-296.98"/>
<polygon fill="#4a6fa5" stroke="#4a6fa5" points="533.46,-299.08 539.66,-297.68 533.94,-294.91 533.46,-299.08"/>
</g>
<!-- Node0x5b928a945250 -->
<g id="node10" class="node">
<title>Node0x5b928a945250</title>
<path fill="#f0f4ff" stroke="black" d="M701,-268C701,-268 560,-268 560,-268 554,-268 548,-262 548,-256 548,-256 548,-244 548,-244 548,-238 554,-232 560,-232 560,-232 701,-232 701,-232 707,-232 713,-238 713,-244 713,-244 713,-256 713,-256 713,-262 707,-268 701,-268"/>
<text text-anchor="middle" x="630.5" y="-247.8" font-family="Courier,monospace" font-size="9.00">CIccMpeCreator::GetInstance()</text>
</g>
<!-- Node0x5b928a95cc60&#45;&gt;Node0x5b928a945250 -->
<g id="edge9" class="edge">
<title>Node0x5b928a95cc60&#45;&gt;Node0x5b928a945250</title>
<path fill="none" stroke="#4a6fa5" d="M455.51,-210.03C483.89,-216.55 516.05,-223.94 544.93,-230.57"/>
<polygon fill="#4a6fa5" stroke="#4a6fa5" points="544.72,-232.68 551.04,-231.98 545.66,-228.59 544.72,-232.68"/>
</g>
<!-- Node0x5b928a98baa0 -->
<g id="node11" class="node">
<title>Node0x5b928a98baa0</title>
<path fill="#f0f4ff" stroke="black" d="M706,-210C706,-210 555,-210 555,-210 549,-210 543,-204 543,-198 543,-198 543,-186 543,-186 543,-180 549,-174 555,-174 555,-174 706,-174 706,-174 712,-174 718,-180 718,-186 718,-186 718,-198 718,-198 718,-204 712,-210 706,-210"/>
<text text-anchor="middle" x="630.5" y="-189.8" font-family="Courier,monospace" font-size="9.00">CIccMpeCreator::DoPushFactory()</text>
</g>
<!-- Node0x5b928a95cc60&#45;&gt;Node0x5b928a98baa0 -->
<g id="edge10" class="edge">
<title>Node0x5b928a95cc60&#45;&gt;Node0x5b928a98baa0</title>
<path fill="none" stroke="#4a6fa5" d="M458.63,-192C483.57,-192 511.19,-192 536.81,-192"/>
<polygon fill="#4a6fa5" stroke="#4a6fa5" points="536.93,-194.1 542.93,-192 536.93,-189.9 536.93,-194.1"/>
</g>
<!-- Node0x5b928a9455e0 -->
<g id="node8" class="node">
<title>Node0x5b928a9455e0</title>
<path fill="#f0f4ff" stroke="black" d="M701,-152C701,-152 560,-152 560,-152 554,-152 548,-146 548,-140 548,-140 548,-128 548,-128 548,-122 554,-116 560,-116 560,-116 701,-116 701,-116 707,-116 713,-122 713,-128 713,-128 713,-140 713,-140 713,-146 707,-152 701,-152"/>
<text text-anchor="middle" x="630.5" y="-131.8" font-family="Courier,monospace" font-size="9.00">CIccTagCreator::GetInstance()</text>
</g>
<!-- Node0x5b928a96d8a0&#45;&gt;Node0x5b928a9455e0 -->
<g id="edge7" class="edge">
<title>Node0x5b928a96d8a0&#45;&gt;Node0x5b928a9455e0</title>
<path fill="none" stroke="#4a6fa5" d="M458.63,-134C485.15,-134 514.69,-134 541.65,-134"/>
<polygon fill="#4a6fa5" stroke="#4a6fa5" points="541.72,-136.1 547.72,-134 541.72,-131.9 541.72,-136.1"/>
</g>
<!-- Node0x5b928a9451d0 -->
<g id="node9" class="node">
<title>Node0x5b928a9451d0</title>
<path fill="#f0f4ff" stroke="black" d="M706,-94C706,-94 555,-94 555,-94 549,-94 543,-88 543,-82 543,-82 543,-70 543,-70 543,-64 549,-58 555,-58 555,-58 706,-58 706,-58 712,-58 718,-64 718,-70 718,-70 718,-82 718,-82 718,-88 712,-94 706,-94"/>
<text text-anchor="middle" x="630.5" y="-73.8" font-family="Courier,monospace" font-size="9.00">CIccTagCreator::DoPushFactory()</text>
</g>
<!-- Node0x5b928a96d8a0&#45;&gt;Node0x5b928a9451d0 -->
<g id="edge8" class="edge">
<title>Node0x5b928a96d8a0&#45;&gt;Node0x5b928a9451d0</title>
<path fill="none" stroke="#4a6fa5" d="M455.51,-115.97C483.89,-109.45 516.05,-102.06 544.93,-95.43"/>
<polygon fill="#4a6fa5" stroke="#4a6fa5" points="545.66,-97.41 551.04,-94.02 544.72,-93.32 545.66,-97.41"/>
</g>
<!-- Node0x5b928a944a40 -->
<g id="node7" class="node">
<title>Node0x5b928a944a40</title>
<path fill="#f0f4ff" stroke="black" d="M709,-36C709,-36 552,-36 552,-36 546,-36 540,-30 540,-24 540,-24 540,-12 540,-12 540,-6 546,0 552,0 552,0 709,0 709,0 715,0 721,-6 721,-12 721,-12 721,-24 721,-24 721,-30 715,-36 709,-36"/>
<text text-anchor="middle" x="630.5" y="-15.8" font-family="Courier,monospace" font-size="9.00">IIccMpeFactory::IIccMpeFactory()</text>
</g>
<!-- Node0x5b928a948ee0&#45;&gt;Node0x5b928a944a40 -->
<g id="edge6" class="edge">
<title>Node0x5b928a948ee0&#45;&gt;Node0x5b928a944a40</title>
<path fill="none" stroke="#4a6fa5" d="M482.25,-34.91C499.25,-32.96 516.76,-30.95 533.52,-29.02"/>
<polygon fill="#4a6fa5" stroke="#4a6fa5" points="533.94,-31.09 539.66,-28.32 533.46,-26.92 533.94,-31.09"/>
</g>
<!-- Node0x5b928a98b960 -->
<g id="node12" class="node">
<title>Node0x5b928a98b960</title>
<path fill="#f0f4ff" stroke="black" d="M158,-529C158,-529 54,-529 54,-529 48,-529 42,-523 42,-517 42,-517 42,-505 42,-505 42,-499 48,-493 54,-493 54,-493 158,-493 158,-493 164,-493 170,-499 170,-505 170,-505 170,-517 170,-517 170,-523 164,-529 158,-529"/>
<text text-anchor="middle" x="106" y="-508.8" font-family="Courier,monospace" font-size="9.00">LLVMFuzzerTestOneInput</text>
</g>
<!-- Node0x5b928a98a260 -->
<g id="node13" class="node">
<title>Node0x5b928a98a260</title>
<path fill="#f0f4ff" stroke="black" d="M428,-616C428,-616 324,-616 324,-616 318,-616 312,-610 312,-604 312,-604 312,-592 312,-592 312,-586 318,-580 324,-580 324,-580 428,-580 428,-580 434,-580 440,-586 440,-592 440,-592 440,-604 440,-604 440,-610 434,-616 428,-616"/>
<text text-anchor="middle" x="376" y="-595.8" font-family="Courier,monospace" font-size="9.00">CIccMemIO::CIccMemIO()</text>
</g>
<!-- Node0x5b928a98b960&#45;&gt;Node0x5b928a98a260 -->
<g id="edge11" class="edge">
<title>Node0x5b928a98b960&#45;&gt;Node0x5b928a98a260</title>
<path fill="none" stroke="#4a6fa5" d="M154.83,-529.05C187.15,-540.99 230.9,-556.66 270,-569 281.55,-572.64 293.89,-576.28 305.9,-579.68"/>
<polygon fill="#4a6fa5" stroke="#4a6fa5" points="305.42,-581.73 311.76,-581.33 306.56,-577.69 305.42,-581.73"/>
</g>
<!-- Node0x5b928a989c50 -->
<g id="node14" class="node">
<title>Node0x5b928a989c50</title>
<path fill="#f0f4ff" stroke="black" d="M420,-558C420,-558 332,-558 332,-558 326,-558 320,-552 320,-546 320,-546 320,-534 320,-534 320,-528 326,-522 332,-522 332,-522 420,-522 420,-522 426,-522 432,-528 432,-534 432,-534 432,-546 432,-546 432,-552 426,-558 420,-558"/>
<text text-anchor="middle" x="376" y="-537.8" font-family="Courier,monospace" font-size="9.00">CIccMemIO::Attach()</text>
</g>
<!-- Node0x5b928a98b960&#45;&gt;Node0x5b928a989c50 -->
<g id="edge12" class="edge">
<title>Node0x5b928a98b960&#45;&gt;Node0x5b928a989c50</title>
<path fill="none" stroke="#4a6fa5" d="M170.17,-517.84C213.63,-522.54 271.02,-528.75 314,-533.4"/>
<polygon fill="#4a6fa5" stroke="#4a6fa5" points="313.78,-535.49 319.97,-534.04 314.23,-531.31 313.78,-535.49"/>
</g>
<!-- Node0x5b928a98c720 -->
<g id="node15" class="node">
<title>Node0x5b928a98c720</title>
<path fill="#f0f4ff" stroke="black" d="M454.5,-674C454.5,-674 297.5,-674 297.5,-674 291.5,-674 285.5,-668 285.5,-662 285.5,-662 285.5,-650 285.5,-650 285.5,-644 291.5,-638 297.5,-638 297.5,-638 454.5,-638 454.5,-638 460.5,-638 466.5,-644 466.5,-650 466.5,-650 466.5,-662 466.5,-662 466.5,-668 460.5,-674 454.5,-674"/>
<text text-anchor="middle" x="376" y="-653.8" font-family="Courier,monospace" font-size="9.00">CIccProfileXml::CIccProfileXml()</text>
</g>
<!-- Node0x5b928a98b960&#45;&gt;Node0x5b928a98c720 -->
<g id="edge13" class="edge">
<title>Node0x5b928a98b960&#45;&gt;Node0x5b928a98c720</title>
<path fill="none" stroke="#4a6fa5" d="M127.63,-529.35C157.17,-554.74 214.17,-600.44 270,-627 276.94,-630.3 284.32,-633.29 291.83,-635.97"/>
<polygon fill="#4a6fa5" stroke="#4a6fa5" points="291.24,-637.99 297.6,-637.96 292.61,-634.02 291.24,-637.99"/>
</g>
<!-- Node0x5b928a98c360 -->
<g id="node16" class="node">
<title>Node0x5b928a98c360</title>
<path fill="#f0f4ff" stroke="black" d="M425.5,-500C425.5,-500 326.5,-500 326.5,-500 320.5,-500 314.5,-494 314.5,-488 314.5,-488 314.5,-476 314.5,-476 314.5,-470 320.5,-464 326.5,-464 326.5,-464 425.5,-464 425.5,-464 431.5,-464 437.5,-470 437.5,-476 437.5,-476 437.5,-488 437.5,-488 437.5,-494 431.5,-500 425.5,-500"/>
<text text-anchor="middle" x="376" y="-479.8" font-family="Courier,monospace" font-size="9.00">CIccProfile::Attach()</text>
</g>
<!-- Node0x5b928a98b960&#45;&gt;Node0x5b928a98c360 -->
<g id="edge14" class="edge">
<title>Node0x5b928a98b960&#45;&gt;Node0x5b928a98c360</title>
<path fill="none" stroke="#4a6fa5" d="M170.17,-504.16C211.62,-499.68 265.75,-493.82 307.96,-489.25"/>
<polygon fill="#4a6fa5" stroke="#4a6fa5" points="308.36,-491.32 314.1,-488.59 307.9,-487.15 308.36,-491.32"/>
</g>
<!-- Node0x5b928a98be60 -->
<g id="node17" class="node">
<title>Node0x5b928a98be60</title>
<path fill="#f0f4ff" stroke="black" d="M430.5,-442C430.5,-442 321.5,-442 321.5,-442 315.5,-442 309.5,-436 309.5,-430 309.5,-430 309.5,-418 309.5,-418 309.5,-412 315.5,-406 321.5,-406 321.5,-406 430.5,-406 430.5,-406 436.5,-406 442.5,-412 442.5,-418 442.5,-418 442.5,-430 442.5,-430 442.5,-436 436.5,-442 430.5,-442"/>
<text text-anchor="middle" x="376" y="-421.8" font-family="Courier,monospace" font-size="9.00">CIccProfileXml::ToXml()</text>
</g>
<!-- Node0x5b928a98b960&#45;&gt;Node0x5b928a98be60 -->
<g id="edge15" class="edge">
<title>Node0x5b928a98b960&#45;&gt;Node0x5b928a98be60</title>
<path fill="none" stroke="#4a6fa5" d="M154.83,-492.95C187.15,-481.01 230.9,-465.34 270,-453 280.75,-449.61 292.19,-446.22 303.41,-443.03"/>
<polygon fill="#4a6fa5" stroke="#4a6fa5" points="304.05,-445.03 309.25,-441.37 302.91,-440.99 304.05,-445.03"/>
</g>
<!-- Node0x5b928a98d480 -->
<g id="node18" class="node">
<title>Node0x5b928a98d480</title>
<path fill="#f0f4ff" stroke="black" d="M457,-384C457,-384 295,-384 295,-384 289,-384 283,-378 283,-372 283,-372 283,-360 283,-360 283,-354 289,-348 295,-348 295,-348 457,-348 457,-348 463,-348 469,-354 469,-360 469,-360 469,-372 469,-372 469,-378 463,-384 457,-384"/>
<text text-anchor="middle" x="376" y="-363.8" font-family="Courier,monospace" font-size="9.00">CIccProfileXml::~CIccProfileXml()</text>
</g>
<!-- Node0x5b928a98b960&#45;&gt;Node0x5b928a98d480 -->
<g id="edge16" class="edge">
<title>Node0x5b928a98b960&#45;&gt;Node0x5b928a98d480</title>
<path fill="none" stroke="#4a6fa5" d="M127.63,-492.65C157.17,-467.26 214.17,-421.56 270,-395 276.94,-391.7 284.32,-388.71 291.83,-386.03"/>
<polygon fill="#4a6fa5" stroke="#4a6fa5" points="292.61,-387.98 297.6,-384.04 291.24,-384.01 292.61,-387.98"/>
</g>
<!-- Node0x5b928a98e380 -->
<g id="node19" class="node">
<title>Node0x5b928a98e380</title>
<path fill="#f0f4ff" stroke="black" d="M693,-674C693,-674 568,-674 568,-674 562,-674 556,-668 556,-662 556,-662 556,-650 556,-650 556,-644 562,-638 568,-638 568,-638 693,-638 693,-638 699,-638 705,-644 705,-650 705,-650 705,-662 705,-662 705,-668 699,-674 693,-674"/>
<text text-anchor="middle" x="630.5" y="-653.8" font-family="Courier,monospace" font-size="9.00">CIccProfile::CIccProfile()</text>
</g>
<!-- Node0x5b928a98c720&#45;&gt;Node0x5b928a98e380 -->
<g id="edge17" class="edge">
<title>Node0x5b928a98c720&#45;&gt;Node0x5b928a98e380</title>
<path fill="none" stroke="#4a6fa5" d="M466.73,-656C493.77,-656 523.24,-656 549.59,-656"/>
<polygon fill="#4a6fa5" stroke="#4a6fa5" points="549.87,-658.1 555.87,-656 549.87,-653.9 549.87,-658.1"/>
</g>
<!-- Node0x5b928a98de80 -->
<g id="node20" class="node">
<title>Node0x5b928a98de80</title>
<path fill="#f0f4ff" stroke="black" d="M695.5,-384C695.5,-384 565.5,-384 565.5,-384 559.5,-384 553.5,-378 553.5,-372 553.5,-372 553.5,-360 553.5,-360 553.5,-354 559.5,-348 565.5,-348 565.5,-348 695.5,-348 695.5,-348 701.5,-348 707.5,-354 707.5,-360 707.5,-360 707.5,-372 707.5,-372 707.5,-378 701.5,-384 695.5,-384"/>
<text text-anchor="middle" x="630.5" y="-363.8" font-family="Courier,monospace" font-size="9.00">CIccProfile::~CIccProfile()</text>
</g>
<!-- Node0x5b928a98d480&#45;&gt;Node0x5b928a98de80 -->
<g id="edge18" class="edge">
<title>Node0x5b928a98d480&#45;&gt;Node0x5b928a98de80</title>
<path fill="none" stroke="#4a6fa5" d="M469.23,-366C494.69,-366 522.13,-366 547,-366"/>
<polygon fill="#4a6fa5" stroke="#4a6fa5" points="547.26,-368.1 553.26,-366 547.26,-363.9 547.26,-368.1"/>
</g>
<!-- Node0x5b928a98dc00 -->
<g id="node21" class="node">
<title>Node0x5b928a98dc00</title>
<path fill="#f0f4ff" stroke="black" d="M187,-732C187,-732 25,-732 25,-732 19,-732 13,-726 13,-720 13,-720 13,-708 13,-708 13,-702 19,-696 25,-696 25,-696 187,-696 187,-696 193,-696 199,-702 199,-708 199,-708 199,-720 199,-720 199,-726 193,-732 187,-732"/>
<text text-anchor="middle" x="106" y="-711.8" font-family="Courier,monospace" font-size="9.00">IIccTagFactory::~IIccTagFactory()</text>
</g>
<!-- Node0x5b928a9907f0 -->
<g id="node22" class="node">
<title>Node0x5b928a9907f0</title>
<path fill="#f0f4ff" stroke="black" d="M187,-790C187,-790 25,-790 25,-790 19,-790 13,-784 13,-778 13,-778 13,-766 13,-766 13,-760 19,-754 25,-754 25,-754 187,-754 187,-754 193,-754 199,-760 199,-766 199,-766 199,-778 199,-778 199,-784 193,-790 187,-790"/>
<text text-anchor="middle" x="106" y="-769.8" font-family="Courier,monospace" font-size="9.00">IIccTagFactory::~IIccTagFactory()</text>
</g>
<!-- Node0x5b928a98f550 -->
<g id="node23" class="node">
<title>Node0x5b928a98f550</title>
<path fill="#f0f4ff" stroke="black" d="M187,-848C187,-848 25,-848 25,-848 19,-848 13,-842 13,-836 13,-836 13,-824 13,-824 13,-818 19,-812 25,-812 25,-812 187,-812 187,-812 193,-812 199,-818 199,-824 199,-824 199,-836 199,-836 199,-842 193,-848 187,-848"/>
<text text-anchor="middle" x="106" y="-827.8" font-family="Courier,monospace" font-size="9.00">IIccMpeFactory::~IIccMpeFactory()</text>
</g>
<!-- Node0x5b928a992230 -->
<g id="node24" class="node">
<title>Node0x5b928a992230</title>
<path fill="#f0f4ff" stroke="black" d="M187,-906C187,-906 25,-906 25,-906 19,-906 13,-900 13,-894 13,-894 13,-882 13,-882 13,-876 19,-870 25,-870 25,-870 187,-870 187,-870 193,-870 199,-876 199,-882 199,-882 199,-894 199,-894 199,-900 193,-906 187,-906"/>
<text text-anchor="middle" x="106" y="-885.8" font-family="Courier,monospace" font-size="9.00">IIccMpeFactory::~IIccMpeFactory()</text>
</g>
<!-- Node0x5b928a991e70 -->
<g id="node25" class="node">
<title>Node0x5b928a991e70</title>
<path fill="#f0f4ff" stroke="black" d="M187,-384C187,-384 25,-384 25,-384 19,-384 13,-378 13,-372 13,-372 13,-360 13,-360 13,-354 19,-348 25,-348 25,-348 187,-348 187,-348 193,-348 199,-354 199,-360 199,-360 199,-372 199,-372 199,-378 193,-384 187,-384"/>
<text text-anchor="middle" x="106" y="-363.8" font-family="Courier,monospace" font-size="9.00">CIccProfileXml::~CIccProfileXml()</text>
</g>
<!-- Node0x5b928a991e70&#45;&gt;Node0x5b928a98d480 -->
<g id="edge19" class="edge">
<title>Node0x5b928a991e70&#45;&gt;Node0x5b928a98d480</title>
<path fill="none" stroke="#4a6fa5" d="M199.23,-366C224.18,-366 251.28,-366 276.56,-366"/>
<polygon fill="#4a6fa5" stroke="#4a6fa5" points="276.6,-368.1 282.6,-366 276.6,-363.9 276.6,-368.1"/>
</g>
<!-- Node0x5b928a991830 -->
<g id="node26" class="node">
<title>Node0x5b928a991830</title>
<path fill="#f0f4ff" stroke="black" d="M200,-1080C200,-1080 12,-1080 12,-1080 6,-1080 0,-1074 0,-1068 0,-1068 0,-1056 0,-1056 0,-1050 6,-1044 12,-1044 12,-1044 200,-1044 200,-1044 206,-1044 212,-1050 212,-1056 212,-1056 212,-1068 212,-1068 212,-1074 206,-1080 200,-1080"/>
<text text-anchor="middle" x="106" y="-1059.8" font-family="Courier,monospace" font-size="9.00">CIccProfile::getPccViewingConditions()</text>
</g>
<!-- Node0x5b928a994e70 -->
<g id="node27" class="node">
<title>Node0x5b928a994e70</title>
<path fill="#f0f4ff" stroke="black" d="M444,-1022C444,-1022 308,-1022 308,-1022 302,-1022 296,-1016 296,-1010 296,-1010 296,-998 296,-998 296,-992 302,-986 308,-986 308,-986 444,-986 444,-986 450,-986 456,-992 456,-998 456,-998 456,-1010 456,-1010 456,-1016 450,-1022 444,-1022"/>
<text text-anchor="middle" x="376" y="-1001.8" font-family="Courier,monospace" font-size="9.00">CIccProfile::FindTagOfType()</text>
</g>
<!-- Node0x5b928a991830&#45;&gt;Node0x5b928a994e70 -->
<g id="edge20" class="edge">
<title>Node0x5b928a991830&#45;&gt;Node0x5b928a994e70</title>
<path fill="none" stroke="#4a6fa5" d="M190.33,-1043.97C222.01,-1037.11 258.12,-1029.3 289.95,-1022.41"/>
<polygon fill="#4a6fa5" stroke="#4a6fa5" points="290.43,-1024.45 295.85,-1021.13 289.54,-1020.35 290.43,-1024.45"/>
</g>
<!-- Node0x5b928a995af0 -->
<g id="node28" class="node">
<title>Node0x5b928a995af0</title>
<path fill="#f0f4ff" stroke="black" d="M197.5,-1022C197.5,-1022 14.5,-1022 14.5,-1022 8.5,-1022 2.5,-1016 2.5,-1010 2.5,-1010 2.5,-998 2.5,-998 2.5,-992 8.5,-986 14.5,-986 14.5,-986 197.5,-986 197.5,-986 203.5,-986 209.5,-992 209.5,-998 209.5,-998 209.5,-1010 209.5,-1010 209.5,-1016 203.5,-1022 197.5,-1022"/>
<text text-anchor="middle" x="106" y="-1001.8" font-family="Courier,monospace" font-size="9.00">CIccProfile::getCustomToStandardPcc()</text>
</g>
<!-- Node0x5b928a995af0&#45;&gt;Node0x5b928a994e70 -->
<g id="edge21" class="edge">
<title>Node0x5b928a995af0&#45;&gt;Node0x5b928a994e70</title>
<path fill="none" stroke="#4a6fa5" d="M209.85,-1004C236.22,-1004 264.3,-1004 289.69,-1004"/>
<polygon fill="#4a6fa5" stroke="#4a6fa5" points="289.74,-1006.1 295.74,-1004 289.74,-1001.9 289.74,-1006.1"/>
</g>
<!-- Node0x5b928a9955f0 -->
<g id="node29" class="node">
<title>Node0x5b928a9955f0</title>
<path fill="#f0f4ff" stroke="black" d="M197.5,-964C197.5,-964 14.5,-964 14.5,-964 8.5,-964 2.5,-958 2.5,-952 2.5,-952 2.5,-940 2.5,-940 2.5,-934 8.5,-928 14.5,-928 14.5,-928 197.5,-928 197.5,-928 203.5,-928 209.5,-934 209.5,-940 209.5,-940 209.5,-952 209.5,-952 209.5,-958 203.5,-964 197.5,-964"/>
<text text-anchor="middle" x="106" y="-943.8" font-family="Courier,monospace" font-size="9.00">CIccProfile::getStandardToCustomPcc()</text>
</g>
<!-- Node0x5b928a9955f0&#45;&gt;Node0x5b928a994e70 -->
<g id="edge22" class="edge">
<title>Node0x5b928a9955f0&#45;&gt;Node0x5b928a994e70</title>
<path fill="none" stroke="#4a6fa5" d="M190.33,-964.03C222.01,-970.89 258.12,-978.7 289.95,-985.59"/>
<polygon fill="#4a6fa5" stroke="#4a6fa5" points="289.54,-987.65 295.85,-986.87 290.43,-983.55 289.54,-987.65"/>
</g>
<!-- Node0x5b928a995230 -->
<g id="node30" class="node">
<title>Node0x5b928a995230</title>
<path fill="#f0f4ff" stroke="black" d="M192,-1138C192,-1138 20,-1138 20,-1138 14,-1138 8,-1132 8,-1126 8,-1126 8,-1114 8,-1114 8,-1108 14,-1102 20,-1102 20,-1102 192,-1102 192,-1102 198,-1102 204,-1108 204,-1114 204,-1114 204,-1126 204,-1126 204,-1132 198,-1138 192,-1138"/>
<text text-anchor="middle" x="106" y="-1117.8" font-family="Courier,monospace" font-size="9.00">CIccProfile::getNormIlluminantXYZ()</text>
</g>
<!-- Node0x5b928a996c70 -->
<g id="node31" class="node">
<title>Node0x5b928a996c70</title>
<path fill="#f0f4ff" stroke="black" d="M189.5,-1196C189.5,-1196 22.5,-1196 22.5,-1196 16.5,-1196 10.5,-1190 10.5,-1184 10.5,-1184 10.5,-1172 10.5,-1172 10.5,-1166 16.5,-1160 22.5,-1160 22.5,-1160 189.5,-1160 189.5,-1160 195.5,-1160 201.5,-1166 201.5,-1172 201.5,-1172 201.5,-1184 201.5,-1184 201.5,-1190 195.5,-1196 189.5,-1196"/>
<text text-anchor="middle" x="106" y="-1175.8" font-family="Courier,monospace" font-size="9.00">CIccProfile::getLumIlluminantXYZ()</text>
</g>
<!-- Node0x5b928a9978f0 -->
<g id="node32" class="node">
<title>Node0x5b928a9978f0</title>
<path fill="#f0f4ff" stroke="black" d="M181.5,-1254C181.5,-1254 30.5,-1254 30.5,-1254 24.5,-1254 18.5,-1248 18.5,-1242 18.5,-1242 18.5,-1230 18.5,-1230 18.5,-1224 24.5,-1218 30.5,-1218 30.5,-1218 181.5,-1218 181.5,-1218 187.5,-1218 193.5,-1224 193.5,-1230 193.5,-1230 193.5,-1242 193.5,-1242 193.5,-1248 187.5,-1254 181.5,-1254"/>
<text text-anchor="middle" x="106" y="-1233.8" font-family="Courier,monospace" font-size="9.00">CIccProfile::getMediaWhiteXYZ()</text>
</g>
<!-- Node0x5b928a997530 -->
<g id="node33" class="node">
<title>Node0x5b928a997530</title>
<path fill="#f0f4ff" stroke="black" d="M166,-1312C166,-1312 46,-1312 46,-1312 40,-1312 34,-1306 34,-1300 34,-1300 34,-1288 34,-1288 34,-1282 40,-1276 46,-1276 46,-1276 166,-1276 166,-1276 172,-1276 178,-1282 178,-1288 178,-1288 178,-1300 178,-1300 178,-1306 172,-1312 166,-1312"/>
<text text-anchor="middle" x="106" y="-1291.8" font-family="Courier,monospace" font-size="9.00">CIccProfileXml::NewCopy()</text>
</g>
<!-- Node0x5b928a9aac40 -->
<g id="node34" class="node">
<title>Node0x5b928a9aac40</title>
<path fill="#f0f4ff" stroke="black" d="M454.5,-1312C454.5,-1312 297.5,-1312 297.5,-1312 291.5,-1312 285.5,-1306 285.5,-1300 285.5,-1300 285.5,-1288 285.5,-1288 285.5,-1282 291.5,-1276 297.5,-1276 297.5,-1276 454.5,-1276 454.5,-1276 460.5,-1276 466.5,-1282 466.5,-1288 466.5,-1288 466.5,-1300 466.5,-1300 466.5,-1306 460.5,-1312 454.5,-1312"/>
<text text-anchor="middle" x="376" y="-1291.8" font-family="Courier,monospace" font-size="9.00">CIccProfileXml::CIccProfileXml()</text>
</g>
<!-- Node0x5b928a997530&#45;&gt;Node0x5b928a9aac40 -->
<g id="edge23" class="edge">
<title>Node0x5b928a997530&#45;&gt;Node0x5b928a9aac40</title>
<path fill="none" stroke="#4a6fa5" d="M178.12,-1294C209.06,-1294 245.8,-1294 279.11,-1294"/>
<polygon fill="#4a6fa5" stroke="#4a6fa5" points="279.29,-1296.1 285.29,-1294 279.29,-1291.9 279.29,-1296.1"/>
</g>
<!-- Node0x5b928a9ad6b0 -->
<g id="node40" class="node">
<title>Node0x5b928a9ad6b0</title>
<path fill="#f0f4ff" stroke="black" d="M693,-1312C693,-1312 568,-1312 568,-1312 562,-1312 556,-1306 556,-1300 556,-1300 556,-1288 556,-1288 556,-1282 562,-1276 568,-1276 568,-1276 693,-1276 693,-1276 699,-1276 705,-1282 705,-1288 705,-1288 705,-1300 705,-1300 705,-1306 699,-1312 693,-1312"/>
<text text-anchor="middle" x="630.5" y="-1291.8" font-family="Courier,monospace" font-size="9.00">CIccProfile::CIccProfile()</text>
</g>
<!-- Node0x5b928a9aac40&#45;&gt;Node0x5b928a9ad6b0 -->
<g id="edge25" class="edge">
<title>Node0x5b928a9aac40&#45;&gt;Node0x5b928a9ad6b0</title>
<path fill="none" stroke="#4a6fa5" d="M466.73,-1294C493.77,-1294 523.24,-1294 549.59,-1294"/>
<polygon fill="#4a6fa5" stroke="#4a6fa5" points="549.87,-1296.1 555.87,-1294 549.87,-1291.9 549.87,-1296.1"/>
</g>
<!-- Node0x5b928a9abb60 -->
<g id="node35" class="node">
<title>Node0x5b928a9abb60</title>
<path fill="#f0f4ff" stroke="black" d="M174,-674C174,-674 38,-674 38,-674 32,-674 26,-668 26,-662 26,-662 26,-650 26,-650 26,-644 32,-638 38,-638 38,-638 174,-638 174,-638 180,-638 186,-644 186,-650 186,-650 186,-662 186,-662 186,-668 180,-674 174,-674"/>
<text text-anchor="middle" x="106" y="-653.8" font-family="Courier,monospace" font-size="9.00">CIccProfileXml::NewProfile()</text>
</g>
<!-- Node0x5b928a9abb60&#45;&gt;Node0x5b928a98c720 -->
<g id="edge24" class="edge">
<title>Node0x5b928a9abb60&#45;&gt;Node0x5b928a98c720</title>
<path fill="none" stroke="#4a6fa5" d="M186.32,-656C215.41,-656 248.64,-656 279.03,-656"/>
<polygon fill="#4a6fa5" stroke="#4a6fa5" points="279.07,-658.1 285.07,-656 279.07,-653.9 279.07,-658.1"/>
</g>
<!-- Node0x5b928a9ab830 -->
<g id="node36" class="node">
<title>Node0x5b928a9ab830</title>
<path fill="#f0f4ff" stroke="black" d="M179,-1370C179,-1370 33,-1370 33,-1370 27,-1370 21,-1364 21,-1358 21,-1358 21,-1346 21,-1346 21,-1340 27,-1334 33,-1334 33,-1334 179,-1334 179,-1334 185,-1334 191,-1340 191,-1346 191,-1346 191,-1358 191,-1358 191,-1364 185,-1370 179,-1370"/>
<text text-anchor="middle" x="106" y="-1349.8" font-family="Courier,monospace" font-size="9.00">CIccProfileXml::GetClassName()</text>
</g>
<!-- Node0x5b928a9ab420 -->
<g id="node37" class="node">
<title>Node0x5b928a9ab420</title>
<path fill="#f0f4ff" stroke="black" d="M181.5,-1428C181.5,-1428 30.5,-1428 30.5,-1428 24.5,-1428 18.5,-1422 18.5,-1416 18.5,-1416 18.5,-1404 18.5,-1404 18.5,-1398 24.5,-1392 30.5,-1392 30.5,-1392 181.5,-1392 181.5,-1392 187.5,-1392 193.5,-1398 193.5,-1404 193.5,-1404 193.5,-1416 193.5,-1416 193.5,-1422 187.5,-1428 181.5,-1428"/>
<text text-anchor="middle" x="106" y="-1407.8" font-family="Courier,monospace" font-size="9.00">CIccProfile::getPccIlluminant()</text>
</g>
<!-- Node0x5b928a9a1ba0 -->
<g id="node38" class="node">
<title>Node0x5b928a9a1ba0</title>
<path fill="#f0f4ff" stroke="black" d="M163.5,-1486C163.5,-1486 48.5,-1486 48.5,-1486 42.5,-1486 36.5,-1480 36.5,-1474 36.5,-1474 36.5,-1462 36.5,-1462 36.5,-1456 42.5,-1450 48.5,-1450 48.5,-1450 163.5,-1450 163.5,-1450 169.5,-1450 175.5,-1456 175.5,-1462 175.5,-1462 175.5,-1474 175.5,-1474 175.5,-1480 169.5,-1486 163.5,-1486"/>
<text text-anchor="middle" x="106" y="-1465.8" font-family="Courier,monospace" font-size="9.00">CIccProfile::getPccCCT()</text>
</g>
<!-- Node0x5b928a9ac910 -->
<g id="node39" class="node">
<title>Node0x5b928a9ac910</title>
<path fill="#f0f4ff" stroke="black" d="M176.5,-1544C176.5,-1544 35.5,-1544 35.5,-1544 29.5,-1544 23.5,-1538 23.5,-1532 23.5,-1532 23.5,-1520 23.5,-1520 23.5,-1514 29.5,-1508 35.5,-1508 35.5,-1508 176.5,-1508 176.5,-1508 182.5,-1508 188.5,-1514 188.5,-1520 188.5,-1520 188.5,-1532 188.5,-1532 188.5,-1538 182.5,-1544 176.5,-1544"/>
<text text-anchor="middle" x="106" y="-1523.8" font-family="Courier,monospace" font-size="9.00">CIccProfile::getPccObserver()</text>
</g>
</g>
</svg>
