<?xml version="1.0" encoding="UTF-8" standalone="no"?>
<!DOCTYPE svg PUBLIC "-//W3C//DTD SVG 1.1//EN"
 "http://www.w3.org/Graphics/SVG/1.1/DTD/svg11.dtd">
<!-- Generated by graphviz version 2.43.0 (0)
 -->
<!-- Title: Call graph: /home/h02332/po/research/call&#45;graph/cfl/icc_multitag_fuzzer.ll Pages: 1 -->
<svg width="3937pt" height="14400pt"
 viewBox="0.00 0.00 3936.97 14400.00" xmlns="http://www.w3.org/2000/svg" xmlns:xlink="http://www.w3.org/1999/xlink">
<g id="graph0" class="graph" transform="scale(1.87 1.87) rotate(0) translate(36 7656)">
<title>Call graph: /home/h02332/po/research/call&#45;graph/cfl/icc_multitag_fuzzer.ll</title>
<polygon fill="white" stroke="transparent" points="-36,36 -36,-7656 2067,-7656 2067,36 -36,36"/>
<!-- Node0x5fa473cf4110 -->
<g id="node1" class="node">
<title>Node0x5fa473cf4110</title>
<path fill="#f0f4ff" stroke="black" d="M129,-697C129,-697 12,-697 12,-697 6,-697 0,-691 0,-685 0,-685 0,-673 0,-673 0,-667 6,-661 12,-661 12,-661 129,-661 129,-661 135,-661 141,-667 141,-673 141,-673 141,-685 141,-685 141,-691 135,-697 129,-697"/>
<text text-anchor="middle" x="70.5" y="-676.8" font-family="Courier,monospace" font-size="9.00">{LLVMFuzzerTestOneInput}</text>
</g>
<!-- Node0x5fa473cf41a0 -->
<g id="node2" class="node">
<title>Node0x5fa473cf41a0</title>
<path fill="#f0f4ff" stroke="black" d="M396.5,-1242C396.5,-1242 366.5,-1242 366.5,-1242 360.5,-1242 354.5,-1236 354.5,-1230 354.5,-1230 354.5,-1218 354.5,-1218 354.5,-1212 360.5,-1206 366.5,-1206 366.5,-1206 396.5,-1206 396.5,-1206 402.5,-1206 408.5,-1212 408.5,-1218 408.5,-1218 408.5,-1230 408.5,-1230 408.5,-1236 402.5,-1242 396.5,-1242"/>
<text text-anchor="middle" x="381.5" y="-1221.8" font-family="Courier,monospace" font-size="9.00">{new()}</text>
</g>
<!-- Node0x5fa473cf4110&#45;&gt;Node0x5fa473cf41a0 -->
<g id="edge1" class="edge">
<title>Node0x5fa473cf4110&#45;&gt;Node0x5fa473cf41a0</title>
<path fill="none" stroke="#4a6fa5" d="M70.92,-697.11C69.61,-771.08 75.09,-1053.01 227,-1192 259.72,-1221.94 312.96,-1226.73 347.35,-1226.26"/>
<polygon fill="#4a6fa5" stroke="#4a6fa5" points="347.45,-1228.71 354.39,-1226.09 347.33,-1223.81 347.45,-1228.71"/>
</g>
<!-- Node0x5fa473ce8760 -->
<g id="node3" class="node">
<title>Node0x5fa473ce8760</title>
<path fill="#f0f4ff" stroke="black" d="M440,-1177C440,-1177 323,-1177 323,-1177 317,-1177 311,-1171 311,-1165 311,-1165 311,-1153 311,-1153 311,-1147 317,-1141 323,-1141 323,-1141 440,-1141 440,-1141 446,-1141 452,-1147 452,-1153 452,-1153 452,-1165 452,-1165 452,-1171 446,-1177 440,-1177"/>
<text text-anchor="middle" x="381.5" y="-1156.8" font-family="Courier,monospace" font-size="9.00">{CIccMemIO::CIccMemIO()}</text>
</g>
<!-- Node0x5fa473cf4110&#45;&gt;Node0x5fa473ce8760 -->
<g id="edge2" class="edge">
<title>Node0x5fa473cf4110&#45;&gt;Node0x5fa473ce8760</title>
<path fill="none" stroke="#4a6fa5" d="M71.84,-697.38C74.14,-765.84 91.89,-1008.23 227,-1127 247.93,-1145.4 276.66,-1154.2 303.61,-1158.14"/>
<polygon fill="#4a6fa5" stroke="#4a6fa5" points="303.52,-1160.59 310.78,-1159.08 304.16,-1155.74 303.52,-1160.59"/>
</g>
<!-- Node0x5fa473ce8920 -->
<g id="node4" class="node">
<title>Node0x5fa473ce8920</title>
<path fill="#f0f4ff" stroke="black" d="M403,-1112C403,-1112 360,-1112 360,-1112 354,-1112 348,-1106 348,-1100 348,-1100 348,-1088 348,-1088 348,-1082 354,-1076 360,-1076 360,-1076 403,-1076 403,-1076 409,-1076 415,-1082 415,-1088 415,-1088 415,-1100 415,-1100 415,-1106 409,-1112 403,-1112"/>
<text text-anchor="middle" x="381.5" y="-1091.8" font-family="Courier,monospace" font-size="9.00">{delete()}</text>
</g>
<!-- Node0x5fa473cf4110&#45;&gt;Node0x5fa473ce8920 -->
<g id="edge3" class="edge">
<title>Node0x5fa473cf4110&#45;&gt;Node0x5fa473ce8920</title>
<path fill="none" stroke="#4a6fa5" d="M73.03,-697.29C79.24,-759.25 108.25,-962.92 227,-1062 258.81,-1088.54 307.04,-1094.83 340.93,-1095.57"/>
<polygon fill="#4a6fa5" stroke="#4a6fa5" points="340.91,-1098.02 347.93,-1095.65 340.96,-1093.12 340.91,-1098.02"/>
</g>
<!-- Node0x5fa473ca5460 -->
<g id="node5" class="node">
<title>Node0x5fa473ca5460</title>
<path fill="#f0f4ff" stroke="black" d="M432,-1047C432,-1047 331,-1047 331,-1047 325,-1047 319,-1041 319,-1035 319,-1035 319,-1023 319,-1023 319,-1017 325,-1011 331,-1011 331,-1011 432,-1011 432,-1011 438,-1011 444,-1017 444,-1023 444,-1023 444,-1035 444,-1035 444,-1041 438,-1047 432,-1047"/>
<text text-anchor="middle" x="381.5" y="-1026.8" font-family="Courier,monospace" font-size="9.00">{CIccMemIO::Attach()}</text>
</g>
<!-- Node0x5fa473cf4110&#45;&gt;Node0x5fa473ca5460 -->
<g id="edge4" class="edge">
<title>Node0x5fa473cf4110&#45;&gt;Node0x5fa473ca5460</title>
<path fill="none" stroke="#4a6fa5" d="M74.66,-697.25C85.18,-752.21 124.38,-917.23 227,-997 250.88,-1015.56 282.93,-1024.04 311.58,-1027.69"/>
<polygon fill="#4a6fa5" stroke="#4a6fa5" points="311.55,-1030.15 318.78,-1028.52 312.1,-1025.28 311.55,-1030.15"/>
</g>
<!-- Node0x5fa473cfdfb0 -->
<g id="node6" class="node">
<title>Node0x5fa473cfdfb0</title>
<path fill="#f0f4ff" stroke="black" d="M421.5,-982C421.5,-982 341.5,-982 341.5,-982 335.5,-982 329.5,-976 329.5,-970 329.5,-970 329.5,-958 329.5,-958 329.5,-952 335.5,-946 341.5,-946 341.5,-946 421.5,-946 421.5,-946 427.5,-946 433.5,-952 433.5,-958 433.5,-958 433.5,-970 433.5,-970 433.5,-976 427.5,-982 421.5,-982"/>
<text text-anchor="middle" x="381.5" y="-961.8" font-family="Courier,monospace" font-size="9.00">{__cxa_end_catch}</text>
</g>
<!-- Node0x5fa473cf4110&#45;&gt;Node0x5fa473cfdfb0 -->
<g id="edge5" class="edge">
<title>Node0x5fa473cf4110&#45;&gt;Node0x5fa473cfdfb0</title>
<path fill="none" stroke="#4a6fa5" d="M77.03,-697.19C92.37,-744.32 140.11,-870.93 227,-932 254.63,-951.42 291.53,-959.53 322.22,-962.74"/>
<polygon fill="#4a6fa5" stroke="#4a6fa5" points="322.28,-965.2 329.48,-963.42 322.74,-960.32 322.28,-965.2"/>
</g>
<!-- Node0x5fa473cf9610 -->
<g id="node7" class="node">
<title>Node0x5fa473cf9610</title>
<path fill="#f0f4ff" stroke="black" d="M450.5,-917C450.5,-917 312.5,-917 312.5,-917 306.5,-917 300.5,-911 300.5,-905 300.5,-905 300.5,-893 300.5,-893 300.5,-887 306.5,-881 312.5,-881 312.5,-881 450.5,-881 450.5,-881 456.5,-881 462.5,-887 462.5,-893 462.5,-893 462.5,-905 462.5,-905 462.5,-911 456.5,-917 450.5,-917"/>
<text text-anchor="middle" x="381.5" y="-896.8" font-family="Courier,monospace" font-size="9.00">{CIccProfile::CIccProfile()}</text>
</g>
<!-- Node0x5fa473cf4110&#45;&gt;Node0x5fa473cf9610 -->
<g id="edge6" class="edge">
<title>Node0x5fa473cf4110&#45;&gt;Node0x5fa473cf9610</title>
<path fill="none" stroke="#4a6fa5" d="M81.96,-697.26C103.91,-733.87 158.45,-816.35 227,-859 246.92,-871.39 270.58,-879.97 293.28,-885.89"/>
<polygon fill="#4a6fa5" stroke="#4a6fa5" points="292.91,-888.33 300.29,-887.65 294.1,-883.57 292.91,-888.33"/>
</g>
<!-- Node0x5fa473cff350 -->
<g id="node8" class="node">
<title>Node0x5fa473cff350</title>
<path fill="#f0f4ff" stroke="black" d="M2019,-470C2019,-470 1929,-470 1929,-470 1923,-470 1917,-464 1917,-458 1917,-458 1917,-446 1917,-446 1917,-440 1923,-434 1929,-434 1929,-434 2019,-434 2019,-434 2025,-434 2031,-440 2031,-446 2031,-446 2031,-458 2031,-458 2031,-464 2025,-470 2019,-470"/>
<text text-anchor="middle" x="1974" y="-449.8" font-family="Courier,monospace" font-size="9.00">{__cxa_begin_catch}</text>
</g>
<!-- Node0x5fa473cf4110&#45;&gt;Node0x5fa473cff350 -->
<g id="edge7" class="edge">
<title>Node0x5fa473cf4110&#45;&gt;Node0x5fa473cff350</title>
<path fill="none" stroke="#4a6fa5" d="M86.38,-697.35C111.66,-726.96 166.2,-784.33 227,-808 467.52,-901.63 548.9,-837 807,-837 807,-837 807,-837 1267,-837 1570.96,-837 1868.55,-558.53 1950.75,-475.25"/>
<polygon fill="#4a6fa5" stroke="#4a6fa5" points="1952.7,-476.77 1955.85,-470.05 1949.2,-473.33 1952.7,-476.77"/>
</g>
<!-- Node0x5fa473cfb910 -->
<g id="node9" class="node">
<title>Node0x5fa473cfb910</title>
<path fill="#f0f4ff" stroke="black" d="M524,-793C524,-793 239,-793 239,-793 233,-793 227,-787 227,-781 227,-781 227,-769 227,-769 227,-763 233,-757 239,-757 239,-757 524,-757 524,-757 530,-757 536,-763 536,-769 536,-769 536,-781 536,-781 536,-787 530,-793 524,-793"/>
<text text-anchor="middle" x="381.5" y="-772.8" font-family="Courier,monospace" font-size="9.00">{basic_string&lt;char, std::char_traits &gt;::~basic_string()}</text>
</g>
<!-- Node0x5fa473cf4110&#45;&gt;Node0x5fa473cfb910 -->
<g id="edge8" class="edge">
<title>Node0x5fa473cf4110&#45;&gt;Node0x5fa473cfb910</title>
<path fill="none" stroke="#4a6fa5" d="M109.75,-697.07C140.79,-711.17 185.98,-730.4 227,-743 241.78,-747.54 257.56,-751.64 273.17,-755.27"/>
<polygon fill="#4a6fa5" stroke="#4a6fa5" points="272.95,-757.74 280.32,-756.91 274.04,-752.96 272.95,-757.74"/>
</g>
<!-- Node0x5fa473ca51a0 -->
<g id="node10" class="node">
<title>Node0x5fa473ca51a0</title>
<path fill="#f0f4ff" stroke="black" d="M437,-728C437,-728 326,-728 326,-728 320,-728 314,-722 314,-716 314,-716 314,-704 314,-704 314,-698 320,-692 326,-692 326,-692 437,-692 437,-692 443,-692 449,-698 449,-704 449,-704 449,-716 449,-716 449,-722 443,-728 437,-728"/>
<text text-anchor="middle" x="381.5" y="-707.8" font-family="Courier,monospace" font-size="9.00">{CIccProfile::Attach()}</text>
</g>
<!-- Node0x5fa473cf4110&#45;&gt;Node0x5fa473ca51a0 -->
<g id="edge9" class="edge">
<title>Node0x5fa473cf4110&#45;&gt;Node0x5fa473ca51a0</title>
<path fill="none" stroke="#4a6fa5" d="M141.23,-686C190.62,-690.95 256.74,-697.58 306.96,-702.62"/>
<polygon fill="#4a6fa5" stroke="#4a6fa5" points="306.73,-705.06 313.94,-703.32 307.22,-700.19 306.73,-705.06"/>
</g>
<!-- Node0x5fa473cfaf60 -->
<g id="node11" class="node">
<title>Node0x5fa473cfaf60</title>
<path fill="#f0f4ff" stroke="black" d="M1387.5,-652C1387.5,-652 1144.5,-652 1144.5,-652 1138.5,-652 1132.5,-646 1132.5,-640 1132.5,-640 1132.5,-628 1132.5,-628 1132.5,-622 1138.5,-616 1144.5,-616 1144.5,-616 1387.5,-616 1387.5,-616 1393.5,-616 1399.5,-622 1399.5,-628 1399.5,-628 1399.5,-640 1399.5,-640 1399.5,-646 1393.5,-652 1387.5,-652"/>
<text text-anchor="middle" x="1266" y="-631.8" font-family="Courier,monospace" font-size="9.00">{std::__new_allocator&lt;char&gt;::~__new_allocator()}</text>
</g>
<!-- Node0x5fa473cf4110&#45;&gt;Node0x5fa473cfaf60 -->
<g id="edge10" class="edge">
<title>Node0x5fa473cf4110&#45;&gt;Node0x5fa473cfaf60</title>
<path fill="none" stroke="#4a6fa5" d="M141.26,-676.37C332.68,-669.15 868.83,-648.94 1125.12,-639.27"/>
<polygon fill="#4a6fa5" stroke="#4a6fa5" points="1125.35,-641.72 1132.25,-639.01 1125.16,-636.82 1125.35,-641.72"/>
</g>
<!-- Node0x5fa473d00610 -->
<g id="node12" class="node">
<title>Node0x5fa473d00610</title>
<path fill="#f0f4ff" stroke="black" d="M521,-604C521,-604 242,-604 242,-604 236,-604 230,-598 230,-592 230,-592 230,-580 230,-580 230,-574 236,-568 242,-568 242,-568 521,-568 521,-568 527,-568 533,-574 533,-580 533,-580 533,-592 533,-592 533,-598 527,-604 521,-604"/>
<text text-anchor="middle" x="381.5" y="-583.8" font-family="Courier,monospace" font-size="9.00">{basic_string&lt;char, std::char_traits &gt;::basic_string()}</text>
</g>
<!-- Node0x5fa473cf4110&#45;&gt;Node0x5fa473d00610 -->
<g id="edge11" class="edge">
<title>Node0x5fa473cf4110&#45;&gt;Node0x5fa473d00610</title>
<path fill="none" stroke="#4a6fa5" d="M121.27,-660.99C151.64,-650.27 191.35,-636.7 227,-626 250.53,-618.94 276.29,-611.94 299.88,-605.82"/>
<polygon fill="#4a6fa5" stroke="#4a6fa5" points="300.63,-608.15 306.8,-604.03 299.41,-603.41 300.63,-608.15"/>
</g>
<!-- Node0x5fa473ccfc80 -->
<g id="node13" class="node">
<title>Node0x5fa473ccfc80</title>
<path fill="#f0f4ff" stroke="black" d="M521,-539C521,-539 242,-539 242,-539 236,-539 230,-533 230,-527 230,-527 230,-515 230,-515 230,-509 236,-503 242,-503 242,-503 521,-503 521,-503 527,-503 533,-509 533,-515 533,-515 533,-527 533,-527 533,-533 527,-539 521,-539"/>
<text text-anchor="middle" x="381.5" y="-518.8" font-family="Courier,monospace" font-size="9.00">{basic_string&lt;char, std::char_traits &gt;::basic_string()}</text>
</g>
<!-- Node0x5fa473cf4110&#45;&gt;Node0x5fa473ccfc80 -->
<g id="edge12" class="edge">
<title>Node0x5fa473cf4110&#45;&gt;Node0x5fa473ccfc80</title>
<path fill="none" stroke="#4a6fa5" d="M88.26,-660.95C114.9,-633.42 169.77,-581.25 227,-554 237.49,-549 248.75,-544.76 260.22,-541.15"/>
<polygon fill="#4a6fa5" stroke="#4a6fa5" points="261.01,-543.47 266.99,-539.09 259.58,-538.78 261.01,-543.47"/>
</g>
<!-- Node0x5fa473cfce30 -->
<g id="node14" class="node">
<title>Node0x5fa473cfce30</title>
<path fill="#f0f4ff" stroke="black" d="M503,-474C503,-474 260,-474 260,-474 254,-474 248,-468 248,-462 248,-462 248,-450 248,-450 248,-444 254,-438 260,-438 260,-438 503,-438 503,-438 509,-438 515,-444 515,-450 515,-450 515,-462 515,-462 515,-468 509,-474 503,-474"/>
<text text-anchor="middle" x="381.5" y="-453.8" font-family="Courier,monospace" font-size="9.00">{char_traits &gt;::basic_string&lt;std::allocator &gt;()}</text>
</g>
<!-- Node0x5fa473cf4110&#45;&gt;Node0x5fa473cfce30 -->
<g id="edge13" class="edge">
<title>Node0x5fa473cf4110&#45;&gt;Node0x5fa473cfce30</title>
<path fill="none" stroke="#4a6fa5" d="M80.74,-660.94C101.34,-622.59 154.98,-532.99 227,-489 234.79,-484.24 243.16,-480.17 251.83,-476.68"/>
<polygon fill="#4a6fa5" stroke="#4a6fa5" points="252.86,-478.91 258.52,-474.12 251.11,-474.33 252.86,-478.91"/>
</g>
<!-- Node0x5fa473cfa950 -->
<g id="node15" class="node">
<title>Node0x5fa473cfa950</title>
<path fill="#f0f4ff" stroke="black" d="M442.5,-409C442.5,-409 320.5,-409 320.5,-409 314.5,-409 308.5,-403 308.5,-397 308.5,-397 308.5,-385 308.5,-385 308.5,-379 314.5,-373 320.5,-373 320.5,-373 442.5,-373 442.5,-373 448.5,-373 454.5,-379 454.5,-385 454.5,-385 454.5,-397 454.5,-397 454.5,-403 448.5,-409 442.5,-409"/>
<text text-anchor="middle" x="381.5" y="-388.8" font-family="Courier,monospace" font-size="9.00">{CIccProfile::Validate()}</text>
</g>
<!-- Node0x5fa473cf4110&#45;&gt;Node0x5fa473cfa950 -->
<g id="edge14" class="edge">
<title>Node0x5fa473cf4110&#45;&gt;Node0x5fa473cfa950</title>
<path fill="none" stroke="#4a6fa5" d="M77.01,-660.69C92.29,-613.28 139.91,-485.85 227,-424 248.53,-408.71 275.76,-400.27 301.28,-395.68"/>
<polygon fill="#4a6fa5" stroke="#4a6fa5" points="301.92,-398.05 308.42,-394.48 301.11,-393.22 301.92,-398.05"/>
</g>
<!-- Node0x5fa473cfd0b0 -->
<g id="node16" class="node">
<title>Node0x5fa473cfd0b0</title>
<path fill="#f0f4ff" stroke="black" d="M440,-344C440,-344 323,-344 323,-344 317,-344 311,-338 311,-332 311,-332 311,-320 311,-320 311,-314 317,-308 323,-308 323,-308 440,-308 440,-308 446,-308 452,-314 452,-320 452,-320 452,-332 452,-332 452,-338 446,-344 440,-344"/>
<text text-anchor="middle" x="381.5" y="-323.8" font-family="Courier,monospace" font-size="9.00">{CIccProfile::FindTag()}</text>
</g>
<!-- Node0x5fa473cf4110&#45;&gt;Node0x5fa473cfd0b0 -->
<g id="edge15" class="edge">
<title>Node0x5fa473cf4110&#45;&gt;Node0x5fa473cfd0b0</title>
<path fill="none" stroke="#4a6fa5" d="M74.64,-660.66C85.13,-605.45 124.21,-439.62 227,-359 248.66,-342.01 277.11,-333.29 303.63,-328.96"/>
<polygon fill="#4a6fa5" stroke="#4a6fa5" points="304.13,-331.36 310.69,-327.9 303.4,-326.52 304.13,-331.36"/>
</g>
<!-- Node0x5fa473cfd330 -->
<g id="node17" class="node">
<title>Node0x5fa473cfd330</title>
<path fill="#f0f4ff" stroke="black" d="M497.5,-278C497.5,-278 265.5,-278 265.5,-278 259.5,-278 253.5,-272 253.5,-266 253.5,-266 253.5,-254 253.5,-254 253.5,-248 259.5,-242 265.5,-242 265.5,-242 497.5,-242 497.5,-242 503.5,-242 509.5,-248 509.5,-254 509.5,-254 509.5,-266 509.5,-266 509.5,-272 503.5,-278 497.5,-278"/>
<text text-anchor="middle" x="381.5" y="-257.8" font-family="Courier,monospace" font-size="9.00">{std::initializer_list&lt;icTagSignature&gt;::end()}</text>
</g>
<!-- Node0x5fa473cf4110&#45;&gt;Node0x5fa473cfd330 -->
<g id="edge16" class="edge">
<title>Node0x5fa473cf4110&#45;&gt;Node0x5fa473cfd330</title>
<path fill="none" stroke="#4a6fa5" d="M73.04,-660.68C79.29,-598.58 108.43,-394.37 227,-294 233.06,-288.87 239.73,-284.47 246.78,-280.69"/>
<polygon fill="#4a6fa5" stroke="#4a6fa5" points="248.2,-282.72 253.36,-277.4 246.01,-278.34 248.2,-282.72"/>
</g>
<!-- Node0x5fa473cfd970 -->
<g id="node18" class="node">
<title>Node0x5fa473cfd970</title>
<path fill="#f0f4ff" stroke="black" d="M437,-213C437,-213 326,-213 326,-213 320,-213 314,-207 314,-201 314,-201 314,-189 314,-189 314,-183 320,-177 326,-177 326,-177 437,-177 437,-177 443,-177 449,-183 449,-189 449,-189 449,-201 449,-201 449,-207 443,-213 437,-213"/>
<text text-anchor="middle" x="381.5" y="-192.8" font-family="Courier,monospace" font-size="9.00">{llvm.memcpy.p0.p0.i64}</text>
</g>
<!-- Node0x5fa473cf4110&#45;&gt;Node0x5fa473cfd970 -->
<g id="edge17" class="edge">
<title>Node0x5fa473cf4110&#45;&gt;Node0x5fa473cfd970</title>
<path fill="none" stroke="#4a6fa5" d="M71.81,-660.53C74.05,-591.72 91.58,-348.04 227,-228 248.72,-208.75 278.93,-199.8 306.8,-195.92"/>
<polygon fill="#4a6fa5" stroke="#4a6fa5" points="307.19,-198.34 313.83,-195.04 306.58,-193.48 307.19,-198.34"/>
</g>
<!-- Node0x5fa473cfd5b0 -->
<g id="node19" class="node">
<title>Node0x5fa473cfd5b0</title>
<path fill="#f0f4ff" stroke="black" d="M929.5,-150C929.5,-150 686.5,-150 686.5,-150 680.5,-150 674.5,-144 674.5,-138 674.5,-138 674.5,-126 674.5,-126 674.5,-120 680.5,-114 686.5,-114 686.5,-114 929.5,-114 929.5,-114 935.5,-114 941.5,-120 941.5,-126 941.5,-126 941.5,-138 941.5,-138 941.5,-144 935.5,-150 929.5,-150"/>
<text text-anchor="middle" x="808" y="-129.8" font-family="Courier,monospace" font-size="9.00">{std::initializer_list&lt;icTagSignature&gt;::begin()}</text>
</g>
<!-- Node0x5fa473cf4110&#45;&gt;Node0x5fa473cfd5b0 -->
<g id="edge18" class="edge">
<title>Node0x5fa473cf4110&#45;&gt;Node0x5fa473cfd5b0</title>
<path fill="none" stroke="#4a6fa5" d="M74.15,-660.99C86.83,-577.34 144.22,-228.01 227,-163 375.51,-46.36 617.12,-83.78 736.14,-112.28"/>
<polygon fill="#4a6fa5" stroke="#4a6fa5" points="735.73,-114.7 743.11,-113.97 736.88,-109.94 735.73,-114.7"/>
</g>
<!-- Node0x5fa473d039d0 -->
<g id="node21" class="node">
<title>Node0x5fa473d039d0</title>
<path fill="#f0f4ff" stroke="black" d="M950.5,-605C950.5,-605 665.5,-605 665.5,-605 659.5,-605 653.5,-599 653.5,-593 653.5,-593 653.5,-581 653.5,-581 653.5,-575 659.5,-569 665.5,-569 665.5,-569 950.5,-569 950.5,-569 956.5,-569 962.5,-575 962.5,-581 962.5,-581 962.5,-593 962.5,-593 962.5,-599 956.5,-605 950.5,-605"/>
<text text-anchor="middle" x="808" y="-584.8" font-family="Courier,monospace" font-size="9.00">{basic_string&lt;char, std::char_traits &gt;::_M_local_data()}</text>
</g>
<!-- Node0x5fa473cfce30&#45;&gt;Node0x5fa473d039d0 -->
<g id="edge19" class="edge">
<title>Node0x5fa473cfce30&#45;&gt;Node0x5fa473d039d0</title>
<path fill="none" stroke="#4a6fa5" d="M494.66,-474.02C508.89,-478.06 523.01,-482.99 536,-489 579.73,-509.22 577.87,-535.67 622,-555 632.61,-559.65 643.83,-563.62 655.3,-567.02"/>
<polygon fill="#4a6fa5" stroke="#4a6fa5" points="654.68,-569.39 662.08,-568.95 656.02,-564.68 654.68,-569.39"/>
</g>
<!-- Node0x5fa473d03610 -->
<g id="node22" class="node">
<title>Node0x5fa473d03610</title>
<path fill="#f0f4ff" stroke="black" d="M921.5,-540C921.5,-540 694.5,-540 694.5,-540 688.5,-540 682.5,-534 682.5,-528 682.5,-528 682.5,-516 682.5,-516 682.5,-510 688.5,-504 694.5,-504 694.5,-504 921.5,-504 921.5,-504 927.5,-504 933.5,-510 933.5,-516 933.5,-516 933.5,-528 933.5,-528 933.5,-534 927.5,-540 921.5,-540"/>
<text text-anchor="middle" x="808" y="-519.8" font-family="Courier,monospace" font-size="9.00">{char_traits &gt;::_Alloc_hider::_Alloc_hider()}</text>
</g>
<!-- Node0x5fa473cfce30&#45;&gt;Node0x5fa473d03610 -->
<g id="edge20" class="edge">
<title>Node0x5fa473cfce30&#45;&gt;Node0x5fa473d03610</title>
<path fill="none" stroke="#4a6fa5" d="M498.5,-474.03C556.05,-482.98 625.59,-493.8 684.07,-502.89"/>
<polygon fill="#4a6fa5" stroke="#4a6fa5" points="683.85,-505.33 691.14,-503.99 684.6,-500.49 683.85,-505.33"/>
</g>
<!-- Node0x5fa473d02fd0 -->
<g id="node23" class="node">
<title>Node0x5fa473d02fd0</title>
<path fill="#f0f4ff" stroke="black" d="M877,-475C877,-475 739,-475 739,-475 733,-475 727,-469 727,-463 727,-463 727,-451 727,-451 727,-445 733,-439 739,-439 739,-439 877,-439 877,-439 883,-439 889,-445 889,-451 889,-451 889,-463 889,-463 889,-469 883,-475 877,-475"/>
<text text-anchor="middle" x="808" y="-454.8" font-family="Courier,monospace" font-size="9.00">{std::__throw_logic_error()}</text>
</g>
<!-- Node0x5fa473cfce30&#45;&gt;Node0x5fa473d02fd0 -->
<g id="edge21" class="edge">
<title>Node0x5fa473cfce30&#45;&gt;Node0x5fa473d02fd0</title>
<path fill="none" stroke="#4a6fa5" d="M515.07,-456.31C581.81,-456.47 660.84,-456.66 719.84,-456.79"/>
<polygon fill="#4a6fa5" stroke="#4a6fa5" points="719.92,-459.24 726.93,-456.81 719.94,-454.34 719.92,-459.24"/>
</g>
<!-- Node0x5fa473d02850 -->
<g id="node24" class="node">
<title>Node0x5fa473d02850</title>
<path fill="#f0f4ff" stroke="black" d="M924,-410C924,-410 692,-410 692,-410 686,-410 680,-404 680,-398 680,-398 680,-386 680,-386 680,-380 686,-374 692,-374 692,-374 924,-374 924,-374 930,-374 936,-380 936,-386 936,-386 936,-398 936,-398 936,-404 930,-410 924,-410"/>
<text text-anchor="middle" x="808" y="-389.8" font-family="Courier,monospace" font-size="9.00">{char_traits &gt;::_Alloc_hider::~_Alloc_hider()}</text>
</g>
<!-- Node0x5fa473cfce30&#45;&gt;Node0x5fa473d02850 -->
<g id="edge22" class="edge">
<title>Node0x5fa473cfce30&#45;&gt;Node0x5fa473d02850</title>
<path fill="none" stroke="#4a6fa5" d="M502.16,-437.96C557.77,-429.58 623.93,-419.6 680.38,-411.09"/>
<polygon fill="#4a6fa5" stroke="#4a6fa5" points="681.01,-413.47 687.57,-410.01 680.28,-408.63 681.01,-413.47"/>
</g>
<!-- Node0x5fa473d03d90 -->
<g id="node25" class="node">
<title>Node0x5fa473d03d90</title>
<path fill="#f0f4ff" stroke="black" d="M892.5,-345C892.5,-345 723.5,-345 723.5,-345 717.5,-345 711.5,-339 711.5,-333 711.5,-333 711.5,-321 711.5,-321 711.5,-315 717.5,-309 723.5,-309 723.5,-309 892.5,-309 892.5,-309 898.5,-309 904.5,-315 904.5,-321 904.5,-321 904.5,-333 904.5,-333 904.5,-339 898.5,-345 892.5,-345"/>
<text text-anchor="middle" x="808" y="-324.8" font-family="Courier,monospace" font-size="9.00">{std::char_traits&lt;char&gt;::length()}</text>
</g>
<!-- Node0x5fa473cfce30&#45;&gt;Node0x5fa473d03d90 -->
<g id="edge23" class="edge">
<title>Node0x5fa473cfce30&#45;&gt;Node0x5fa473d03d90</title>
<path fill="none" stroke="#4a6fa5" d="M497.01,-437.92C510.43,-434.11 523.71,-429.53 536,-424 579.45,-404.46 578.27,-378.91 622,-360 647.67,-348.9 676.9,-341.53 704.42,-336.64"/>
<polygon fill="#4a6fa5" stroke="#4a6fa5" points="704.89,-339.05 711.38,-335.45 704.06,-334.22 704.89,-339.05"/>
</g>
<!-- Node0x5fa473d04a10 -->
<g id="node26" class="node">
<title>Node0x5fa473d04a10</title>
<path fill="#f0f4ff" stroke="black" d="M982,-280C982,-280 634,-280 634,-280 628,-280 622,-274 622,-268 622,-268 622,-256 622,-256 622,-250 628,-244 634,-244 634,-244 982,-244 982,-244 988,-244 994,-250 994,-256 994,-256 994,-268 994,-268 994,-274 988,-280 982,-280"/>
<text text-anchor="middle" x="808" y="-259.8" font-family="Courier,monospace" font-size="9.00">{basic_string&lt;char, std::char_traits &gt;::_M_construct&lt;char const*&gt;()}</text>
</g>
<!-- Node0x5fa473cfce30&#45;&gt;Node0x5fa473d04a10 -->
<g id="edge24" class="edge">
<title>Node0x5fa473cfce30&#45;&gt;Node0x5fa473d04a10</title>
<path fill="none" stroke="#4a6fa5" d="M509.76,-437.88C519.01,-434.06 527.88,-429.49 536,-424 593.1,-385.43 564.35,-332.74 622,-295 629.04,-290.39 636.53,-286.38 644.32,-282.89"/>
<polygon fill="#4a6fa5" stroke="#4a6fa5" points="645.45,-285.07 650.93,-280.07 643.53,-280.56 645.45,-285.07"/>
</g>
<!-- Node0x5fa473cfd330&#45;&gt;Node0x5fa473cfd5b0 -->
<g id="edge25" class="edge">
<title>Node0x5fa473cfd330&#45;&gt;Node0x5fa473cfd5b0</title>
<path fill="none" stroke="#4a6fa5" d="M496.57,-241.94C510.13,-238.13 523.57,-233.54 536,-228 579.28,-208.73 578.44,-183.64 622,-165 636.31,-158.88 651.7,-153.89 667.29,-149.83"/>
<polygon fill="#4a6fa5" stroke="#4a6fa5" points="668.27,-152.11 674.46,-148.03 667.07,-147.36 668.27,-152.11"/>
</g>
<!-- Node0x5fa473d04650 -->
<g id="node27" class="node">
<title>Node0x5fa473d04650</title>
<path fill="#f0f4ff" stroke="black" d="M926.5,-215C926.5,-215 689.5,-215 689.5,-215 683.5,-215 677.5,-209 677.5,-203 677.5,-203 677.5,-191 677.5,-191 677.5,-185 683.5,-179 689.5,-179 689.5,-179 926.5,-179 926.5,-179 932.5,-179 938.5,-185 938.5,-191 938.5,-191 938.5,-203 938.5,-203 938.5,-209 932.5,-215 926.5,-215"/>
<text text-anchor="middle" x="808" y="-194.8" font-family="Courier,monospace" font-size="9.00">{std::initializer_list&lt;icTagSignature&gt;::size()}</text>
</g>
<!-- Node0x5fa473cfd330&#45;&gt;Node0x5fa473d04650 -->
<g id="edge26" class="edge">
<title>Node0x5fa473cfd330&#45;&gt;Node0x5fa473d04650</title>
<path fill="none" stroke="#4a6fa5" d="M503.86,-241.99C558.49,-233.88 623.03,-224.3 678.49,-216.07"/>
<polygon fill="#4a6fa5" stroke="#4a6fa5" points="678.99,-218.48 685.55,-215.02 678.27,-213.63 678.99,-218.48"/>
</g>
<!-- Node0x5fa473cfdd30 -->
<g id="node20" class="node">
<title>Node0x5fa473cfdd30</title>
<path fill="#f0f4ff" stroke="black" d="M123.5,-7620C123.5,-7620 17.5,-7620 17.5,-7620 11.5,-7620 5.5,-7614 5.5,-7608 5.5,-7608 5.5,-7596 5.5,-7596 5.5,-7590 11.5,-7584 17.5,-7584 17.5,-7584 123.5,-7584 123.5,-7584 129.5,-7584 135.5,-7590 135.5,-7596 135.5,-7596 135.5,-7608 135.5,-7608 135.5,-7614 129.5,-7620 123.5,-7620"/>
<text text-anchor="middle" x="70.5" y="-7599.8" font-family="Courier,monospace" font-size="9.00">{__gxx_personality_v0}</text>
</g>
<!-- Node0x5fa473d02850&#45;&gt;Node0x5fa473cfaf60 -->
<g id="edge36" class="edge">
<title>Node0x5fa473d02850&#45;&gt;Node0x5fa473cfaf60</title>
<path fill="none" stroke="#4a6fa5" d="M936.16,-399.73C956.72,-405.06 976.86,-413.08 994,-425 1055.83,-467.99 1021.6,-523.45 1080,-571 1104.11,-590.63 1134.67,-604.29 1163.97,-613.72"/>
<polygon fill="#4a6fa5" stroke="#4a6fa5" points="1163.58,-616.16 1170.99,-615.91 1165.04,-611.49 1163.58,-616.16"/>
</g>
<!-- Node0x5fa473d04510 -->
<g id="node28" class="node">
<title>Node0x5fa473d04510</title>
<path fill="#f0f4ff" stroke="black" d="M1282.5,-556C1282.5,-556 1249.5,-556 1249.5,-556 1243.5,-556 1237.5,-550 1237.5,-544 1237.5,-544 1237.5,-532 1237.5,-532 1237.5,-526 1243.5,-520 1249.5,-520 1249.5,-520 1282.5,-520 1282.5,-520 1288.5,-520 1294.5,-526 1294.5,-532 1294.5,-532 1294.5,-544 1294.5,-544 1294.5,-550 1288.5,-556 1282.5,-556"/>
<text text-anchor="middle" x="1266" y="-535.8" font-family="Courier,monospace" font-size="9.00">{strlen}</text>
</g>
<!-- Node0x5fa473d03d90&#45;&gt;Node0x5fa473d04510 -->
<g id="edge27" class="edge">
<title>Node0x5fa473d03d90&#45;&gt;Node0x5fa473d04510</title>
<path fill="none" stroke="#4a6fa5" d="M904.85,-328.54C935.5,-332.92 968.15,-342.03 994,-360 1055.83,-402.99 1018.05,-463.17 1080,-506 1124.93,-537.06 1190.31,-541.17 1230.11,-540.3"/>
<polygon fill="#4a6fa5" stroke="#4a6fa5" points="1230.31,-542.75 1237.23,-540.09 1230.16,-537.85 1230.31,-542.75"/>
</g>
<!-- Node0x5fa473d04150 -->
<g id="node29" class="node">
<title>Node0x5fa473d04150</title>
<path fill="#f0f4ff" stroke="black" d="M1398,-491C1398,-491 1134,-491 1134,-491 1128,-491 1122,-485 1122,-479 1122,-479 1122,-467 1122,-467 1122,-461 1128,-455 1134,-455 1134,-455 1398,-455 1398,-455 1404,-455 1410,-461 1410,-467 1410,-467 1410,-479 1410,-479 1410,-485 1404,-491 1398,-491"/>
<text text-anchor="middle" x="1266" y="-470.8" font-family="Courier,monospace" font-size="9.00">{basic_string&lt;char, std::char_traits &gt;::_M_create()}</text>
</g>
<!-- Node0x5fa473d04a10&#45;&gt;Node0x5fa473d04150 -->
<g id="edge28" class="edge">
<title>Node0x5fa473d04a10&#45;&gt;Node0x5fa473d04150</title>
<path fill="none" stroke="#4a6fa5" d="M966.82,-280.09C976.4,-284.21 985.56,-289.13 994,-295 1055.83,-337.99 1018.05,-398.17 1080,-441 1090.63,-448.35 1102.41,-454.19 1114.72,-458.81"/>
<polygon fill="#4a6fa5" stroke="#4a6fa5" points="1114.2,-461.23 1121.61,-461.26 1115.84,-456.61 1114.2,-461.23"/>
</g>
<!-- Node0x5fa473d04ad0 -->
<g id="node30" class="node">
<title>Node0x5fa473d04ad0</title>
<path fill="#f0f4ff" stroke="black" d="M1392.5,-426C1392.5,-426 1139.5,-426 1139.5,-426 1133.5,-426 1127.5,-420 1127.5,-414 1127.5,-414 1127.5,-402 1127.5,-402 1127.5,-396 1133.5,-390 1139.5,-390 1139.5,-390 1392.5,-390 1392.5,-390 1398.5,-390 1404.5,-396 1404.5,-402 1404.5,-402 1404.5,-414 1404.5,-414 1404.5,-420 1398.5,-426 1392.5,-426"/>
<text text-anchor="middle" x="1266" y="-405.8" font-family="Courier,monospace" font-size="9.00">{basic_string&lt;char, std::char_traits &gt;::_M_data()}</text>
</g>
<!-- Node0x5fa473d04a10&#45;&gt;Node0x5fa473d04ad0 -->
<g id="edge29" class="edge">
<title>Node0x5fa473d04a10&#45;&gt;Node0x5fa473d04ad0</title>
<path fill="none" stroke="#4a6fa5" d="M956,-280.01C969.18,-284.06 982.05,-288.99 994,-295 1040.91,-318.59 1033.03,-352.53 1080,-376 1092.65,-382.32 1106.33,-387.42 1120.33,-391.53"/>
<polygon fill="#4a6fa5" stroke="#4a6fa5" points="1119.82,-393.93 1127.22,-393.47 1121.15,-389.21 1119.82,-393.93"/>
</g>
<!-- Node0x5fa473d05b10 -->
<g id="node31" class="node">
<title>Node0x5fa473d05b10</title>
<path fill="#f0f4ff" stroke="black" d="M1403,-361C1403,-361 1129,-361 1129,-361 1123,-361 1117,-355 1117,-349 1117,-349 1117,-337 1117,-337 1117,-331 1123,-325 1129,-325 1129,-325 1403,-325 1403,-325 1409,-325 1415,-331 1415,-337 1415,-337 1415,-349 1415,-349 1415,-355 1409,-361 1403,-361"/>
<text text-anchor="middle" x="1266" y="-340.8" font-family="Courier,monospace" font-size="9.00">{basic_string&lt;char, std::char_traits &gt;::_M_capacity()}</text>
</g>
<!-- Node0x5fa473d04a10&#45;&gt;Node0x5fa473d05b10 -->
<g id="edge30" class="edge">
<title>Node0x5fa473d04a10&#45;&gt;Node0x5fa473d05b10</title>
<path fill="none" stroke="#4a6fa5" d="M910.8,-280.02C937.85,-284.85 967.04,-290.09 994,-295 1032.25,-301.97 1041.73,-304.13 1080,-311 1103.36,-315.19 1128.4,-319.59 1152.27,-323.73"/>
<polygon fill="#4a6fa5" stroke="#4a6fa5" points="1151.99,-326.17 1159.3,-324.95 1152.82,-321.34 1151.99,-326.17"/>
</g>
<!-- Node0x5fa473d05d90 -->
<g id="node32" class="node">
<title>Node0x5fa473d05d90</title>
<path fill="#f0f4ff" stroke="black" d="M1440,-296C1440,-296 1092,-296 1092,-296 1086,-296 1080,-290 1080,-284 1080,-284 1080,-272 1080,-272 1080,-266 1086,-260 1092,-260 1092,-260 1440,-260 1440,-260 1446,-260 1452,-266 1452,-272 1452,-272 1452,-284 1452,-284 1452,-290 1446,-296 1440,-296"/>
<text text-anchor="middle" x="1266" y="-275.8" font-family="Courier,monospace" font-size="9.00">{basic_string&lt;char, std::char_traits &gt;::_M_construct&lt;char const*&gt;()}</text>
</g>
<!-- Node0x5fa473d04a10&#45;&gt;Node0x5fa473d05d90 -->
<g id="edge31" class="edge">
<title>Node0x5fa473d04a10&#45;&gt;Node0x5fa473d05d90</title>
<path fill="none" stroke="#4a6fa5" d="M994.14,-268.5C1019.97,-269.4 1046.55,-270.34 1072.5,-271.25"/>
<polygon fill="#4a6fa5" stroke="#4a6fa5" points="1072.72,-273.7 1079.81,-271.5 1072.9,-268.81 1072.72,-273.7"/>
</g>
<!-- Node0x5fa473d066d0 -->
<g id="node33" class="node">
<title>Node0x5fa473d066d0</title>
<path fill="#f0f4ff" stroke="black" d="M1392.5,-231C1392.5,-231 1139.5,-231 1139.5,-231 1133.5,-231 1127.5,-225 1127.5,-219 1127.5,-219 1127.5,-207 1127.5,-207 1127.5,-201 1133.5,-195 1139.5,-195 1139.5,-195 1392.5,-195 1392.5,-195 1398.5,-195 1404.5,-201 1404.5,-207 1404.5,-207 1404.5,-219 1404.5,-219 1404.5,-225 1398.5,-231 1392.5,-231"/>
<text text-anchor="middle" x="1266" y="-210.8" font-family="Courier,monospace" font-size="9.00">{basic_string&lt;char, std::char_traits &gt;::_M_data()}</text>
</g>
<!-- Node0x5fa473d04a10&#45;&gt;Node0x5fa473d066d0 -->
<g id="edge32" class="edge">
<title>Node0x5fa473d04a10&#45;&gt;Node0x5fa473d066d0</title>
<path fill="none" stroke="#4a6fa5" d="M976.53,-244C1023.66,-238.93 1074.49,-233.47 1120.17,-228.56"/>
<polygon fill="#4a6fa5" stroke="#4a6fa5" points="1120.47,-231 1127.16,-227.81 1119.94,-226.12 1120.47,-231"/>
</g>
<!-- Node0x5fa473d05250 -->
<g id="node34" class="node">
<title>Node0x5fa473d05250</title>
<path fill="#f0f4ff" stroke="black" d="M1408.5,-166C1408.5,-166 1123.5,-166 1123.5,-166 1117.5,-166 1111.5,-160 1111.5,-154 1111.5,-154 1111.5,-142 1111.5,-142 1111.5,-136 1117.5,-130 1123.5,-130 1123.5,-130 1408.5,-130 1408.5,-130 1414.5,-130 1420.5,-136 1420.5,-142 1420.5,-142 1420.5,-154 1420.5,-154 1420.5,-160 1414.5,-166 1408.5,-166"/>
<text text-anchor="middle" x="1266" y="-145.8" font-family="Courier,monospace" font-size="9.00">{basic_string&lt;char, std::char_traits &gt;::_S_copy_chars()}</text>
</g>
<!-- Node0x5fa473d04a10&#45;&gt;Node0x5fa473d05250 -->
<g id="edge33" class="edge">
<title>Node0x5fa473d04a10&#45;&gt;Node0x5fa473d05250</title>
<path fill="none" stroke="#4a6fa5" d="M945.29,-243.99C961.93,-240.17 978.51,-235.56 994,-230 1035.41,-215.14 1038.63,-195.97 1080,-181 1094.37,-175.8 1109.67,-171.4 1125.08,-167.68"/>
<polygon fill="#4a6fa5" stroke="#4a6fa5" points="1125.91,-170 1132.17,-166.02 1124.79,-165.23 1125.91,-170"/>
</g>
<!-- Node0x5fa473d01870 -->
<g id="node35" class="node">
<title>Node0x5fa473d01870</title>
<path fill="#f0f4ff" stroke="black" d="M1408.5,-101C1408.5,-101 1123.5,-101 1123.5,-101 1117.5,-101 1111.5,-95 1111.5,-89 1111.5,-89 1111.5,-77 1111.5,-77 1111.5,-71 1117.5,-65 1123.5,-65 1123.5,-65 1408.5,-65 1408.5,-65 1414.5,-65 1420.5,-71 1420.5,-77 1420.5,-77 1420.5,-89 1420.5,-89 1420.5,-95 1414.5,-101 1408.5,-101"/>
<text text-anchor="middle" x="1266" y="-80.8" font-family="Courier,monospace" font-size="9.00">{basic_string&lt;char, std::char_traits &gt;::_M_set_length()}</text>
</g>
<!-- Node0x5fa473d04a10&#45;&gt;Node0x5fa473d01870 -->
<g id="edge34" class="edge">
<title>Node0x5fa473d04a10&#45;&gt;Node0x5fa473d01870</title>
<path fill="none" stroke="#4a6fa5" d="M965.6,-243.85C975.53,-240.01 985.1,-235.43 994,-230 1048.18,-196.94 1025.91,-149.2 1080,-116 1087.75,-111.24 1096.02,-107.13 1104.58,-103.57"/>
<polygon fill="#4a6fa5" stroke="#4a6fa5" points="1105.58,-105.81 1111.19,-100.96 1103.78,-101.26 1105.58,-105.81"/>
</g>
<!-- Node0x5fa473d031d0 -->
<g id="node36" class="node">
<title>Node0x5fa473d031d0</title>
<path fill="#f0f4ff" stroke="black" d="M1440,-36C1440,-36 1092,-36 1092,-36 1086,-36 1080,-30 1080,-24 1080,-24 1080,-12 1080,-12 1080,-6 1086,0 1092,0 1092,0 1440,0 1440,0 1446,0 1452,-6 1452,-12 1452,-12 1452,-24 1452,-24 1452,-30 1446,-36 1440,-36"/>
<text text-anchor="middle" x="1266" y="-15.8" font-family="Courier,monospace" font-size="9.00">{basic_string&lt;char, std::char_traits &gt;::_M_construct&lt;char const*&gt;()}</text>
</g>
<!-- Node0x5fa473d04a10&#45;&gt;Node0x5fa473d031d0 -->
<g id="edge35" class="edge">
<title>Node0x5fa473d04a10&#45;&gt;Node0x5fa473d031d0</title>
<path fill="none" stroke="#4a6fa5" d="M970.96,-243.94C979.1,-240.02 986.85,-235.4 994,-230 1064.42,-176.79 1009.72,-104.39 1080,-51 1085.75,-46.63 1091.88,-42.77 1098.3,-39.37"/>
<polygon fill="#4a6fa5" stroke="#4a6fa5" points="1099.64,-41.44 1104.8,-36.11 1097.44,-37.06 1099.64,-41.44"/>
</g>
<!-- Node0x5fa473d045d0 -->
<g id="node37" class="node">
<title>Node0x5fa473d045d0</title>
<path fill="#f0f4ff" stroke="black" d="M1819,-101C1819,-101 1550,-101 1550,-101 1544,-101 1538,-95 1538,-89 1538,-89 1538,-77 1538,-77 1538,-71 1544,-65 1550,-65 1550,-65 1819,-65 1819,-65 1825,-65 1831,-71 1831,-77 1831,-77 1831,-89 1831,-89 1831,-95 1825,-101 1819,-101"/>
<text text-anchor="middle" x="1684.5" y="-80.8" font-family="Courier,monospace" font-size="9.00">{basic_string&lt;char, std::char_traits &gt;::_M_dispose()}</text>
</g>
<!-- Node0x5fa473d031d0&#45;&gt;Node0x5fa473d045d0 -->
<g id="edge37" class="edge">
<title>Node0x5fa473d031d0&#45;&gt;Node0x5fa473d045d0</title>
<path fill="none" stroke="#4a6fa5" d="M1382.47,-36.02C1437.87,-44.67 1504.3,-55.03 1560.64,-63.83"/>
<polygon fill="#4a6fa5" stroke="#4a6fa5" points="1560.52,-66.29 1567.81,-64.95 1561.27,-61.44 1560.52,-66.29"/>
</g>
<!-- Node0x5fa473cfec90 -->
<g id="node38" class="node">
<title>Node0x5fa473cfec90</title>
<path fill="#f0f4ff" stroke="black" d="M1743,-36C1743,-36 1626,-36 1626,-36 1620,-36 1614,-30 1614,-24 1614,-24 1614,-12 1614,-12 1614,-6 1620,0 1626,0 1626,0 1743,0 1743,0 1749,0 1755,-6 1755,-12 1755,-12 1755,-24 1755,-24 1755,-30 1749,-36 1743,-36"/>
<text text-anchor="middle" x="1684.5" y="-15.8" font-family="Courier,monospace" font-size="9.00">{__clang_call_terminate}</text>
</g>
<!-- Node0x5fa473d031d0&#45;&gt;Node0x5fa473cfec90 -->
<g id="edge38" class="edge">
<title>Node0x5fa473d031d0&#45;&gt;Node0x5fa473cfec90</title>
<path fill="none" stroke="#4a6fa5" d="M1452.11,-18C1506.54,-18 1563.11,-18 1606.69,-18"/>
<polygon fill="#4a6fa5" stroke="#4a6fa5" points="1606.85,-20.45 1613.85,-18 1606.85,-15.55 1606.85,-20.45"/>
</g>
<!-- Node0x5fa473cfec90&#45;&gt;Node0x5fa473cff350 -->
<g id="edge39" class="edge">
<title>Node0x5fa473cfec90&#45;&gt;Node0x5fa473cff350</title>
<path fill="none" stroke="#4a6fa5" d="M1755.31,-19.87C1781.74,-23.88 1810.38,-32.67 1831,-51 1946.29,-153.51 1967.98,-355.72 1972.06,-426.67"/>
<polygon fill="#4a6fa5" stroke="#4a6fa5" points="1969.62,-427.03 1972.44,-433.89 1974.52,-426.77 1969.62,-427.03"/>
</g>
<!-- Node0x5fa473cfe1b0 -->
<g id="node39" class="node">
<title>Node0x5fa473cfe1b0</title>
<path fill="#f0f4ff" stroke="black" d="M2016.5,-36C2016.5,-36 1931.5,-36 1931.5,-36 1925.5,-36 1919.5,-30 1919.5,-24 1919.5,-24 1919.5,-12 1919.5,-12 1919.5,-6 1925.5,0 1931.5,0 1931.5,0 2016.5,0 2016.5,0 2022.5,0 2028.5,-6 2028.5,-12 2028.5,-12 2028.5,-24 2028.5,-24 2028.5,-30 2022.5,-36 2016.5,-36"/>
<text text-anchor="middle" x="1974" y="-15.8" font-family="Courier,monospace" font-size="9.00">{std::terminate()}</text>
</g>
<!-- Node0x5fa473cfec90&#45;&gt;Node0x5fa473cfe1b0 -->
<g id="edge40" class="edge">
<title>Node0x5fa473cfec90&#45;&gt;Node0x5fa473cfe1b0</title>
<path fill="none" stroke="#4a6fa5" d="M1755.1,-18C1803.05,-18 1866.17,-18 1912.12,-18"/>
<polygon fill="#4a6fa5" stroke="#4a6fa5" points="1912.34,-20.45 1919.34,-18 1912.34,-15.55 1912.34,-20.45"/>
</g>
</g>
</svg>
