<?xml version="1.0" encoding="UTF-8" standalone="no"?>
<!DOCTYPE svg PUBLIC "-//W3C//DTD SVG 1.1//EN"
 "http://www.w3.org/Graphics/SVG/1.1/DTD/svg11.dtd">
<!-- Generated by graphviz version 2.43.0 (0)
 -->
<!-- Title: Call graph: /home/h02332/po/research/call&#45;graph/cfl/icc_multitag_fuzzer.ll Pages: 1 -->
<svg width="378pt" height="398pt"
 viewBox="0.00 0.00 378.20 398.20" xmlns="http://www.w3.org/2000/svg" xmlns:xlink="http://www.w3.org/1999/xlink">
<g id="graph0" class="graph" transform="scale(1 1) rotate(0) translate(21.6 376.6)">
<title>Call graph: /home/h02332/po/research/call&#45;graph/cfl/icc_multitag_fuzzer.ll</title>
<polygon fill="white" stroke="transparent" points="-21.6,21.6 -21.6,-376.6 356.6,-376.6 356.6,21.6 -21.6,21.6"/>
<!-- Node0x5cc9d68e8110 -->
<g id="node1" class="node">
<title>Node0x5cc9d68e8110</title>
<path fill="#f0f4ff" stroke="black" d="M116,-181C116,-181 12,-181 12,-181 6,-181 0,-175 0,-169 0,-169 0,-157 0,-157 0,-151 6,-145 12,-145 12,-145 116,-145 116,-145 122,-145 128,-151 128,-157 128,-157 128,-169 128,-169 128,-175 122,-181 116,-181"/>
<text text-anchor="middle" x="64" y="-160.8" font-family="Courier,monospace" font-size="9.00">LLVMFuzzerTestOneInput</text>
</g>
<!-- Node0x5cc9d68dc760 -->
<g id="node2" class="node">
<title>Node0x5cc9d68dc760</title>
<path fill="#f0f4ff" stroke="black" d="M312.5,-326C312.5,-326 208.5,-326 208.5,-326 202.5,-326 196.5,-320 196.5,-314 196.5,-314 196.5,-302 196.5,-302 196.5,-296 202.5,-290 208.5,-290 208.5,-290 312.5,-290 312.5,-290 318.5,-290 324.5,-296 324.5,-302 324.5,-302 324.5,-314 324.5,-314 324.5,-320 318.5,-326 312.5,-326"/>
<text text-anchor="middle" x="260.5" y="-305.8" font-family="Courier,monospace" font-size="9.00">CIccMemIO::CIccMemIO()</text>
</g>
<!-- Node0x5cc9d68e8110&#45;&gt;Node0x5cc9d68dc760 -->
<g id="edge1" class="edge">
<title>Node0x5cc9d68e8110&#45;&gt;Node0x5cc9d68dc760</title>
<path fill="none" stroke="#4a6fa5" d="M112.19,-181.15C117.81,-184.32 123.24,-187.93 128,-192 163.33,-222.19 149.84,-249.8 186,-279 189.6,-281.91 193.53,-284.55 197.64,-286.96"/>
<polygon fill="#4a6fa5" stroke="#4a6fa5" points="196.66,-288.81 202.93,-289.87 198.69,-285.13 196.66,-288.81"/>
</g>
<!-- Node0x5cc9d68eed60 -->
<g id="node3" class="node">
<title>Node0x5cc9d68eed60</title>
<path fill="#f0f4ff" stroke="black" d="M304.5,-268C304.5,-268 216.5,-268 216.5,-268 210.5,-268 204.5,-262 204.5,-256 204.5,-256 204.5,-244 204.5,-244 204.5,-238 210.5,-232 216.5,-232 216.5,-232 304.5,-232 304.5,-232 310.5,-232 316.5,-238 316.5,-244 316.5,-244 316.5,-256 316.5,-256 316.5,-262 310.5,-268 304.5,-268"/>
<text text-anchor="middle" x="260.5" y="-247.8" font-family="Courier,monospace" font-size="9.00">CIccMemIO::Attach()</text>
</g>
<!-- Node0x5cc9d68e8110&#45;&gt;Node0x5cc9d68eed60 -->
<g id="edge2" class="edge">
<title>Node0x5cc9d68e8110&#45;&gt;Node0x5cc9d68eed60</title>
<path fill="none" stroke="#4a6fa5" d="M104.75,-181.06C112.48,-184.64 120.51,-188.4 128,-192 153.98,-204.47 159.68,-209.26 186,-221 192.46,-223.88 199.3,-226.78 206.1,-229.57"/>
<polygon fill="#4a6fa5" stroke="#4a6fa5" points="205.45,-231.57 211.8,-231.89 207.03,-227.68 205.45,-231.57"/>
</g>
<!-- Node0x5cc9d68ed300 -->
<g id="node4" class="node">
<title>Node0x5cc9d68ed300</title>
<path fill="#f0f4ff" stroke="black" d="M323,-210C323,-210 198,-210 198,-210 192,-210 186,-204 186,-198 186,-198 186,-186 186,-186 186,-180 192,-174 198,-174 198,-174 323,-174 323,-174 329,-174 335,-180 335,-186 335,-186 335,-198 335,-198 335,-204 329,-210 323,-210"/>
<text text-anchor="middle" x="260.5" y="-189.8" font-family="Courier,monospace" font-size="9.00">CIccProfile::CIccProfile()</text>
</g>
<!-- Node0x5cc9d68e8110&#45;&gt;Node0x5cc9d68ed300 -->
<g id="edge3" class="edge">
<title>Node0x5cc9d68e8110&#45;&gt;Node0x5cc9d68ed300</title>
<path fill="none" stroke="#4a6fa5" d="M128.15,-172.42C144.55,-174.86 162.43,-177.53 179.57,-180.08"/>
<polygon fill="#4a6fa5" stroke="#4a6fa5" points="179.6,-182.21 185.84,-181.02 180.22,-178.06 179.6,-182.21"/>
</g>
<!-- Node0x5cc9d6898b20 -->
<g id="node5" class="node">
<title>Node0x5cc9d6898b20</title>
<path fill="#f0f4ff" stroke="black" d="M310,-152C310,-152 211,-152 211,-152 205,-152 199,-146 199,-140 199,-140 199,-128 199,-128 199,-122 205,-116 211,-116 211,-116 310,-116 310,-116 316,-116 322,-122 322,-128 322,-128 322,-140 322,-140 322,-146 316,-152 310,-152"/>
<text text-anchor="middle" x="260.5" y="-131.8" font-family="Courier,monospace" font-size="9.00">CIccProfile::Attach()</text>
</g>
<!-- Node0x5cc9d68e8110&#45;&gt;Node0x5cc9d6898b20 -->
<g id="edge4" class="edge">
<title>Node0x5cc9d68e8110&#45;&gt;Node0x5cc9d6898b20</title>
<path fill="none" stroke="#4a6fa5" d="M128.15,-153.58C148.84,-150.5 171.9,-147.06 192.85,-143.94"/>
<polygon fill="#4a6fa5" stroke="#4a6fa5" points="193.36,-145.98 198.98,-143.02 192.74,-141.83 193.36,-145.98"/>
</g>
<!-- Node0x5cc9d68f01b0 -->
<g id="node6" class="node">
<title>Node0x5cc9d68f01b0</title>
<path fill="#f0f4ff" stroke="black" d="M315,-94C315,-94 206,-94 206,-94 200,-94 194,-88 194,-82 194,-82 194,-70 194,-70 194,-64 200,-58 206,-58 206,-58 315,-58 315,-58 321,-58 327,-64 327,-70 327,-70 327,-82 327,-82 327,-88 321,-94 315,-94"/>
<text text-anchor="middle" x="260.5" y="-73.8" font-family="Courier,monospace" font-size="9.00">CIccProfile::Validate()</text>
</g>
<!-- Node0x5cc9d68e8110&#45;&gt;Node0x5cc9d68f01b0 -->
<g id="edge5" class="edge">
<title>Node0x5cc9d68e8110&#45;&gt;Node0x5cc9d68f01b0</title>
<path fill="none" stroke="#4a6fa5" d="M100.96,-144.94C124.86,-133.13 157.07,-117.62 186,-105 192.58,-102.13 199.54,-99.22 206.46,-96.41"/>
<polygon fill="#4a6fa5" stroke="#4a6fa5" points="207.47,-98.26 212.24,-94.07 205.89,-94.37 207.47,-98.26"/>
</g>
<!-- Node0x5cc9d68f11f0 -->
<g id="node7" class="node">
<title>Node0x5cc9d68f11f0</title>
<path fill="#f0f4ff" stroke="black" d="M312.5,-36C312.5,-36 208.5,-36 208.5,-36 202.5,-36 196.5,-30 196.5,-24 196.5,-24 196.5,-12 196.5,-12 196.5,-6 202.5,0 208.5,0 208.5,0 312.5,0 312.5,0 318.5,0 324.5,-6 324.5,-12 324.5,-12 324.5,-24 324.5,-24 324.5,-30 318.5,-36 312.5,-36"/>
<text text-anchor="middle" x="260.5" y="-15.8" font-family="Courier,monospace" font-size="9.00">CIccProfile::FindTag()</text>
</g>
<!-- Node0x5cc9d68e8110&#45;&gt;Node0x5cc9d68f11f0 -->
<g id="edge6" class="edge">
<title>Node0x5cc9d68e8110&#45;&gt;Node0x5cc9d68f11f0</title>
<path fill="none" stroke="#4a6fa5" d="M80.07,-144.62C101.39,-119.61 142.64,-74.8 186,-47 190.66,-44.01 195.69,-41.24 200.84,-38.7"/>
<polygon fill="#4a6fa5" stroke="#4a6fa5" points="201.95,-40.5 206.47,-36.03 200.15,-36.7 201.95,-40.5"/>
</g>
<!-- Node0x5cc9d68f6c10 -->
<g id="node8" class="node">
<title>Node0x5cc9d68f6c10</title>
<path fill="#f0f4ff" stroke="black" d="M79.5,-239C79.5,-239 48.5,-239 48.5,-239 42.5,-239 36.5,-233 36.5,-227 36.5,-227 36.5,-215 36.5,-215 36.5,-209 42.5,-203 48.5,-203 48.5,-203 79.5,-203 79.5,-203 85.5,-203 91.5,-209 91.5,-215 91.5,-215 91.5,-227 91.5,-227 91.5,-233 85.5,-239 79.5,-239"/>
<text text-anchor="middle" x="64" y="-218.8" font-family="Courier,monospace" font-size="9.00">length()</text>
</g>
<!-- Node0x5cc9d68f9b10 -->
<g id="node9" class="node">
<title>Node0x5cc9d68f9b10</title>
<path fill="#f0f4ff" stroke="black" d="M100.5,-297C100.5,-297 27.5,-297 27.5,-297 21.5,-297 15.5,-291 15.5,-285 15.5,-285 15.5,-273 15.5,-273 15.5,-267 21.5,-261 27.5,-261 27.5,-261 100.5,-261 100.5,-261 106.5,-261 112.5,-267 112.5,-273 112.5,-273 112.5,-285 112.5,-285 112.5,-291 106.5,-297 100.5,-297"/>
<text text-anchor="middle" x="64" y="-276.8" font-family="Courier,monospace" font-size="9.00">_Guard::_Guard()</text>
</g>
<!-- Node0x5cc9d68f3910 -->
<g id="node10" class="node">
<title>Node0x5cc9d68f3910</title>
<path fill="#f0f4ff" stroke="black" d="M103,-355C103,-355 25,-355 25,-355 19,-355 13,-349 13,-343 13,-343 13,-331 13,-331 13,-325 19,-319 25,-319 25,-319 103,-319 103,-319 109,-319 115,-325 115,-331 115,-331 115,-343 115,-343 115,-349 109,-355 103,-355"/>
<text text-anchor="middle" x="64" y="-334.8" font-family="Courier,monospace" font-size="9.00">_Guard::~_Guard()</text>
</g>
</g>
</svg>
