<?xml version="1.0" encoding="UTF-8" standalone="no"?>
<!DOCTYPE svg PUBLIC "-//W3C//DTD SVG 1.1//EN"
 "http://www.w3.org/Graphics/SVG/1.1/DTD/svg11.dtd">
<!-- Generated by graphviz version 2.43.0 (0)
 -->
<!-- Title: Call graph: /home/h02332/po/research/call&#45;graph/cfl/icc_io_fuzzer.ll Pages: 1 -->
<svg width="373pt" height="717pt"
 viewBox="0.00 0.00 373.20 717.20" xmlns="http://www.w3.org/2000/svg" xmlns:xlink="http://www.w3.org/1999/xlink">
<g id="graph0" class="graph" transform="scale(1 1) rotate(0) translate(21.6 695.6)">
<title>Call graph: /home/h02332/po/research/call&#45;graph/cfl/icc_io_fuzzer.ll</title>
<polygon fill="white" stroke="transparent" points="-21.6,21.6 -21.6,-695.6 351.6,-695.6 351.6,21.6 -21.6,21.6"/>
<!-- Node0x5c77e2014370 -->
<g id="node1" class="node">
<title>Node0x5c77e2014370</title>
<path fill="#f0f4ff" stroke="black" d="M116,-355C116,-355 12,-355 12,-355 6,-355 0,-349 0,-343 0,-343 0,-331 0,-331 0,-325 6,-319 12,-319 12,-319 116,-319 116,-319 122,-319 128,-325 128,-331 128,-331 128,-343 128,-343 128,-349 122,-355 116,-355"/>
<text text-anchor="middle" x="64" y="-334.8" font-family="Courier,monospace" font-size="9.00">LLVMFuzzerTestOneInput</text>
</g>
<!-- Node0x5c77e2014400 -->
<g id="node2" class="node">
<title>Node0x5c77e2014400</title>
<path fill="#f0f4ff" stroke="black" d="M286.5,-674C286.5,-674 229.5,-674 229.5,-674 223.5,-674 217.5,-668 217.5,-662 217.5,-662 217.5,-650 217.5,-650 217.5,-644 223.5,-638 229.5,-638 229.5,-638 286.5,-638 286.5,-638 292.5,-638 298.5,-644 298.5,-650 298.5,-650 298.5,-662 298.5,-662 298.5,-668 292.5,-674 286.5,-674"/>
<text text-anchor="middle" x="258" y="-653.8" font-family="Courier,monospace" font-size="9.00">fuzz_tmpdir()</text>
</g>
<!-- Node0x5c77e2014370&#45;&gt;Node0x5c77e2014400 -->
<g id="edge1" class="edge">
<title>Node0x5c77e2014370&#45;&gt;Node0x5c77e2014400</title>
<path fill="none" stroke="#4a6fa5" d="M115.91,-355.03C120.44,-358.15 124.6,-361.78 128,-366 202.63,-458.47 109.37,-536.18 186,-627 192.75,-635 202.04,-640.82 211.68,-645.04"/>
<polygon fill="#4a6fa5" stroke="#4a6fa5" points="211.03,-647.05 217.38,-647.35 212.61,-643.15 211.03,-647.05"/>
</g>
<!-- Node0x5c77e2008c50 -->
<g id="node3" class="node">
<title>Node0x5c77e2008c50</title>
<path fill="#f0f4ff" stroke="black" d="M297,-616C297,-616 219,-616 219,-616 213,-616 207,-610 207,-604 207,-604 207,-592 207,-592 207,-586 213,-580 219,-580 219,-580 297,-580 297,-580 303,-580 309,-586 309,-592 309,-592 309,-604 309,-604 309,-610 303,-616 297,-616"/>
<text text-anchor="middle" x="258" y="-595.8" font-family="Courier,monospace" font-size="9.00">fuzz_build_path()</text>
</g>
<!-- Node0x5c77e2014370&#45;&gt;Node0x5c77e2008c50 -->
<g id="edge2" class="edge">
<title>Node0x5c77e2014370&#45;&gt;Node0x5c77e2008c50</title>
<path fill="none" stroke="#4a6fa5" d="M115.35,-355.04C120.05,-358.17 124.39,-361.8 128,-366 189.08,-437.23 123.38,-499.12 186,-569 190.35,-573.86 195.64,-577.92 201.35,-581.31"/>
<polygon fill="#4a6fa5" stroke="#4a6fa5" points="200.42,-583.2 206.69,-584.24 202.44,-579.51 200.42,-583.2"/>
</g>
<!-- Node0x5c77e2008e10 -->
<g id="node4" class="node">
<title>Node0x5c77e2008e10</title>
<path fill="#f0f4ff" stroke="black" d="M273,-558C273,-558 243,-558 243,-558 237,-558 231,-552 231,-546 231,-546 231,-534 231,-534 231,-528 237,-522 243,-522 243,-522 273,-522 273,-522 279,-522 285,-528 285,-534 285,-534 285,-546 285,-546 285,-552 279,-558 273,-558"/>
<text text-anchor="middle" x="258" y="-537.8" font-family="Courier,monospace" font-size="9.00">mkstemp</text>
</g>
<!-- Node0x5c77e2014370&#45;&gt;Node0x5c77e2008e10 -->
<g id="edge3" class="edge">
<title>Node0x5c77e2014370&#45;&gt;Node0x5c77e2008e10</title>
<path fill="none" stroke="#4a6fa5" d="M114.3,-355.03C119.32,-358.17 124.02,-361.81 128,-366 175.81,-416.31 137.1,-461.74 186,-511 196.49,-521.57 211.37,-528.44 224.8,-532.83"/>
<polygon fill="#4a6fa5" stroke="#4a6fa5" points="224.5,-534.93 230.85,-534.67 225.72,-530.91 224.5,-534.93"/>
</g>
<!-- Node0x5c77e1fc7e60 -->
<g id="node5" class="node">
<title>Node0x5c77e1fc7e60</title>
<path fill="#f0f4ff" stroke="black" d="M315.5,-500C315.5,-500 200.5,-500 200.5,-500 194.5,-500 188.5,-494 188.5,-488 188.5,-488 188.5,-476 188.5,-476 188.5,-470 194.5,-464 200.5,-464 200.5,-464 315.5,-464 315.5,-464 321.5,-464 327.5,-470 327.5,-476 327.5,-476 327.5,-488 327.5,-488 327.5,-494 321.5,-500 315.5,-500"/>
<text text-anchor="middle" x="258" y="-479.8" font-family="Courier,monospace" font-size="9.00">CIccFileIO::CIccFileIO()</text>
</g>
<!-- Node0x5c77e2014370&#45;&gt;Node0x5c77e1fc7e60 -->
<g id="edge4" class="edge">
<title>Node0x5c77e2014370&#45;&gt;Node0x5c77e1fc7e60</title>
<path fill="none" stroke="#4a6fa5" d="M112.19,-355.15C117.81,-358.32 123.24,-361.93 128,-366 163.33,-396.19 150.02,-423.59 186,-453 189.47,-455.84 193.26,-458.43 197.22,-460.8"/>
<polygon fill="#4a6fa5" stroke="#4a6fa5" points="196.46,-462.78 202.72,-463.88 198.51,-459.11 196.46,-462.78"/>
</g>
<!-- Node0x5c77e2019730 -->
<g id="node6" class="node">
<title>Node0x5c77e2019730</title>
<path fill="#f0f4ff" stroke="black" d="M299.5,-442C299.5,-442 216.5,-442 216.5,-442 210.5,-442 204.5,-436 204.5,-430 204.5,-430 204.5,-418 204.5,-418 204.5,-412 210.5,-406 216.5,-406 216.5,-406 299.5,-406 299.5,-406 305.5,-406 311.5,-412 311.5,-418 311.5,-418 311.5,-430 311.5,-430 311.5,-436 305.5,-442 299.5,-442"/>
<text text-anchor="middle" x="258" y="-421.8" font-family="Courier,monospace" font-size="9.00">CIccFileIO::Open()</text>
</g>
<!-- Node0x5c77e2014370&#45;&gt;Node0x5c77e2019730 -->
<g id="edge5" class="edge">
<title>Node0x5c77e2014370&#45;&gt;Node0x5c77e2019730</title>
<path fill="none" stroke="#4a6fa5" d="M104.75,-355.06C112.48,-358.64 120.51,-362.4 128,-366 153.98,-378.47 159.75,-383.1 186,-395 192.35,-397.88 199.07,-400.79 205.74,-403.61"/>
<polygon fill="#4a6fa5" stroke="#4a6fa5" points="204.98,-405.57 211.33,-405.94 206.61,-401.69 204.98,-405.57"/>
</g>
<!-- Node0x5c77e2027370 -->
<g id="node7" class="node">
<title>Node0x5c77e2027370</title>
<path fill="#f0f4ff" stroke="black" d="M312.5,-384C312.5,-384 203.5,-384 203.5,-384 197.5,-384 191.5,-378 191.5,-372 191.5,-372 191.5,-360 191.5,-360 191.5,-354 197.5,-348 203.5,-348 203.5,-348 312.5,-348 312.5,-348 318.5,-348 324.5,-354 324.5,-360 324.5,-360 324.5,-372 324.5,-372 324.5,-378 318.5,-384 312.5,-384"/>
<text text-anchor="middle" x="258" y="-363.8" font-family="Courier,monospace" font-size="9.00">CIccFileIO::GetLength()</text>
</g>
<!-- Node0x5c77e2014370&#45;&gt;Node0x5c77e2027370 -->
<g id="edge6" class="edge">
<title>Node0x5c77e2014370&#45;&gt;Node0x5c77e2027370</title>
<path fill="none" stroke="#4a6fa5" d="M128.13,-346.54C146.3,-349.28 166.25,-352.29 184.92,-355.11"/>
<polygon fill="#4a6fa5" stroke="#4a6fa5" points="184.95,-357.24 191.19,-356.06 185.57,-353.09 184.95,-357.24"/>
</g>
<!-- Node0x5c77e1fc8490 -->
<g id="node8" class="node">
<title>Node0x5c77e1fc8490</title>
<path fill="#f0f4ff" stroke="black" d="M302,-326C302,-326 214,-326 214,-326 208,-326 202,-320 202,-314 202,-314 202,-302 202,-302 202,-296 208,-290 214,-290 214,-290 302,-290 302,-290 308,-290 314,-296 314,-302 314,-302 314,-314 314,-314 314,-320 308,-326 302,-326"/>
<text text-anchor="middle" x="258" y="-305.8" font-family="Courier,monospace" font-size="9.00">CIccFileIO::Read8()</text>
</g>
<!-- Node0x5c77e2014370&#45;&gt;Node0x5c77e1fc8490 -->
<g id="edge7" class="edge">
<title>Node0x5c77e2014370&#45;&gt;Node0x5c77e1fc8490</title>
<path fill="none" stroke="#4a6fa5" d="M128.13,-327.46C149.91,-324.17 174.26,-320.5 195.88,-317.23"/>
<polygon fill="#4a6fa5" stroke="#4a6fa5" points="196.28,-319.3 201.9,-316.32 195.65,-315.14 196.28,-319.3"/>
</g>
<!-- Node0x5c77e1fc8250 -->
<g id="node9" class="node">
<title>Node0x5c77e1fc8250</title>
<path fill="#f0f4ff" stroke="black" d="M294.5,-268C294.5,-268 221.5,-268 221.5,-268 215.5,-268 209.5,-262 209.5,-256 209.5,-256 209.5,-244 209.5,-244 209.5,-238 215.5,-232 221.5,-232 221.5,-232 294.5,-232 294.5,-232 300.5,-232 306.5,-238 306.5,-244 306.5,-244 306.5,-256 306.5,-256 306.5,-262 300.5,-268 294.5,-268"/>
<text text-anchor="middle" x="258" y="-247.8" font-family="Courier,monospace" font-size="9.00">OpenIccProfile()</text>
</g>
<!-- Node0x5c77e2014370&#45;&gt;Node0x5c77e1fc8250 -->
<g id="edge8" class="edge">
<title>Node0x5c77e2014370&#45;&gt;Node0x5c77e1fc8250</title>
<path fill="none" stroke="#4a6fa5" d="M101.27,-318.92C125.17,-307.18 157.25,-291.75 186,-279 192.47,-276.13 199.31,-273.21 206.09,-270.37"/>
<polygon fill="#4a6fa5" stroke="#4a6fa5" points="207.03,-272.25 211.76,-268.01 205.41,-268.38 207.03,-272.25"/>
</g>
<!-- Node0x5c77e202b640 -->
<g id="node10" class="node">
<title>Node0x5c77e202b640</title>
<path fill="#f0f4ff" stroke="black" d="M312.5,-210C312.5,-210 203.5,-210 203.5,-210 197.5,-210 191.5,-204 191.5,-198 191.5,-198 191.5,-186 191.5,-186 191.5,-180 197.5,-174 203.5,-174 203.5,-174 312.5,-174 312.5,-174 318.5,-174 324.5,-180 324.5,-186 324.5,-186 324.5,-198 324.5,-198 324.5,-204 318.5,-210 312.5,-210"/>
<text text-anchor="middle" x="258" y="-189.8" font-family="Courier,monospace" font-size="9.00">CIccProfile::Validate()</text>
</g>
<!-- Node0x5c77e2014370&#45;&gt;Node0x5c77e202b640 -->
<g id="edge9" class="edge">
<title>Node0x5c77e2014370&#45;&gt;Node0x5c77e202b640</title>
<path fill="none" stroke="#4a6fa5" d="M80.12,-318.69C101.5,-293.77 142.8,-249.06 186,-221 190.59,-218.02 195.54,-215.24 200.61,-212.69"/>
<polygon fill="#4a6fa5" stroke="#4a6fa5" points="201.67,-214.51 206.16,-210.01 199.84,-210.73 201.67,-214.51"/>
</g>
<!-- Node0x5c77e201c810 -->
<g id="node11" class="node">
<title>Node0x5c77e201c810</title>
<path fill="#f0f4ff" stroke="black" d="M318,-152C318,-152 198,-152 198,-152 192,-152 186,-146 186,-140 186,-140 186,-128 186,-128 186,-122 192,-116 198,-116 198,-116 318,-116 318,-116 324,-116 330,-122 330,-128 330,-128 330,-140 330,-140 330,-146 324,-152 318,-152"/>
<text text-anchor="middle" x="258" y="-131.8" font-family="Courier,monospace" font-size="9.00">CIccFileIO::~CIccFileIO()</text>
</g>
<!-- Node0x5c77e2014370&#45;&gt;Node0x5c77e201c810 -->
<g id="edge10" class="edge">
<title>Node0x5c77e2014370&#45;&gt;Node0x5c77e201c810</title>
<path fill="none" stroke="#4a6fa5" d="M73.18,-318.91C89.74,-284.15 130.44,-207.52 186,-163 189.65,-160.07 193.64,-157.4 197.81,-154.97"/>
<polygon fill="#4a6fa5" stroke="#4a6fa5" points="198.92,-156.76 203.16,-152.03 196.89,-153.08 198.92,-156.76"/>
</g>
<!-- Node0x5c77e202f2b0 -->
<g id="node12" class="node">
<title>Node0x5c77e202f2b0</title>
<path fill="#f0f4ff" stroke="black" d="M302,-94C302,-94 214,-94 214,-94 208,-94 202,-88 202,-82 202,-82 202,-70 202,-70 202,-64 208,-58 214,-58 214,-58 302,-58 302,-58 308,-58 314,-64 314,-70 314,-70 314,-82 314,-82 314,-88 308,-94 302,-94"/>
<text text-anchor="middle" x="258" y="-73.8" font-family="Courier,monospace" font-size="9.00">CIccFileIO::Close()</text>
</g>
<!-- Node0x5c77e2014370&#45;&gt;Node0x5c77e202f2b0 -->
<g id="edge11" class="edge">
<title>Node0x5c77e2014370&#45;&gt;Node0x5c77e202f2b0</title>
<path fill="none" stroke="#4a6fa5" d="M69.74,-318.95C81.87,-276.06 118,-166.95 186,-105 189.25,-102.04 192.84,-99.36 196.63,-96.94"/>
<polygon fill="#4a6fa5" stroke="#4a6fa5" points="197.83,-98.67 201.91,-93.8 195.68,-95.06 197.83,-98.67"/>
</g>
<!-- Node0x5c77e20380b0 -->
<g id="node13" class="node">
<title>Node0x5c77e20380b0</title>
<path fill="#f0f4ff" stroke="black" d="M305,-36C305,-36 211,-36 211,-36 205,-36 199,-30 199,-24 199,-24 199,-12 199,-12 199,-6 205,0 211,0 211,0 305,0 305,0 311,0 317,-6 317,-12 317,-12 317,-24 317,-24 317,-30 311,-36 305,-36"/>
<text text-anchor="middle" x="258" y="-15.8" font-family="Courier,monospace" font-size="9.00">CIccProfile::Write()</text>
</g>
<!-- Node0x5c77e2014370&#45;&gt;Node0x5c77e20380b0 -->
<g id="edge12" class="edge">
<title>Node0x5c77e2014370&#45;&gt;Node0x5c77e20380b0</title>
<path fill="none" stroke="#4a6fa5" d="M67.67,-318.67C75.92,-268.42 105.46,-126.94 186,-47 188.79,-44.23 191.88,-41.71 195.17,-39.43"/>
<polygon fill="#4a6fa5" stroke="#4a6fa5" points="196.56,-41.03 200.48,-36.02 194.29,-37.5 196.56,-41.03"/>
</g>
<!-- Node0x5c77e2036940 -->
<g id="node14" class="node">
<title>Node0x5c77e2036940</title>
<path fill="#f0f4ff" stroke="black" d="M79.5,-413C79.5,-413 48.5,-413 48.5,-413 42.5,-413 36.5,-407 36.5,-401 36.5,-401 36.5,-389 36.5,-389 36.5,-383 42.5,-377 48.5,-377 48.5,-377 79.5,-377 79.5,-377 85.5,-377 91.5,-383 91.5,-389 91.5,-389 91.5,-401 91.5,-401 91.5,-407 85.5,-413 79.5,-413"/>
<text text-anchor="middle" x="64" y="-392.8" font-family="Courier,monospace" font-size="9.00">length()</text>
</g>
<!-- Node0x5c77e203fac0 -->
<g id="node15" class="node">
<title>Node0x5c77e203fac0</title>
<path fill="#f0f4ff" stroke="black" d="M100.5,-471C100.5,-471 27.5,-471 27.5,-471 21.5,-471 15.5,-465 15.5,-459 15.5,-459 15.5,-447 15.5,-447 15.5,-441 21.5,-435 27.5,-435 27.5,-435 100.5,-435 100.5,-435 106.5,-435 112.5,-441 112.5,-447 112.5,-447 112.5,-459 112.5,-459 112.5,-465 106.5,-471 100.5,-471"/>
<text text-anchor="middle" x="64" y="-450.8" font-family="Courier,monospace" font-size="9.00">_Guard::_Guard()</text>
</g>
<!-- Node0x5c77e2042da0 -->
<g id="node16" class="node">
<title>Node0x5c77e2042da0</title>
<path fill="#f0f4ff" stroke="black" d="M103,-529C103,-529 25,-529 25,-529 19,-529 13,-523 13,-517 13,-517 13,-505 13,-505 13,-499 19,-493 25,-493 25,-493 103,-493 103,-493 109,-493 115,-499 115,-505 115,-505 115,-517 115,-517 115,-523 109,-529 103,-529"/>
<text text-anchor="middle" x="64" y="-508.8" font-family="Courier,monospace" font-size="9.00">_Guard::~_Guard()</text>
</g>
</g>
</svg>
