<?xml version="1.0" encoding="UTF-8" standalone="no"?>
<!DOCTYPE svg PUBLIC "-//W3C//DTD SVG 1.1//EN"
 "http://www.w3.org/Graphics/SVG/1.1/DTD/svg11.dtd">
<!-- Generated by graphviz version 2.43.0 (0)
 -->
<!-- Title: Call graph: /home/h02332/po/research/call&#45;graph/cfl/icc_v5dspobs_fuzzer.ll Pages: 1 -->
<svg width="3184pt" height="14400pt"
 viewBox="0.00 0.00 3184.42 14400.00" xmlns="http://www.w3.org/2000/svg" xmlns:xlink="http://www.w3.org/1999/xlink">
<g id="graph0" class="graph" transform="scale(1.67 1.67) rotate(0) translate(36 8592)">
<title>Call graph: /home/h02332/po/research/call&#45;graph/cfl/icc_v5dspobs_fuzzer.ll</title>
<polygon fill="white" stroke="transparent" points="-36,36 -36,-8592 1872,-8592 1872,36 -36,36"/>
<!-- Node0x63c269998280 -->
<g id="node1" class="node">
<title>Node0x63c269998280</title>
<path fill="#f0f4ff" stroke="black" d="M123.5,-2574C123.5,-2574 17.5,-2574 17.5,-2574 11.5,-2574 5.5,-2568 5.5,-2562 5.5,-2562 5.5,-2550 5.5,-2550 5.5,-2544 11.5,-2538 17.5,-2538 17.5,-2538 123.5,-2538 123.5,-2538 129.5,-2538 135.5,-2544 135.5,-2550 135.5,-2550 135.5,-2562 135.5,-2562 135.5,-2568 129.5,-2574 123.5,-2574"/>
<text text-anchor="middle" x="70.5" y="-2553.8" font-family="Courier,monospace" font-size="9.00">{LLVMFuzzerInitialize}</text>
</g>
<!-- Node0x63c269ab4620 -->
<g id="node2" class="node">
<title>Node0x63c269ab4620</title>
<path fill="#f0f4ff" stroke="black" d="M440,-2607C440,-2607 407,-2607 407,-2607 401,-2607 395,-2601 395,-2595 395,-2595 395,-2583 395,-2583 395,-2577 401,-2571 407,-2571 407,-2571 440,-2571 440,-2571 446,-2571 452,-2577 452,-2583 452,-2583 452,-2595 452,-2595 452,-2601 446,-2607 440,-2607"/>
<text text-anchor="middle" x="423.5" y="-2586.8" font-family="Courier,monospace" font-size="9.00">{strcmp}</text>
</g>
<!-- Node0x63c269998280&#45;&gt;Node0x63c269ab4620 -->
<g id="edge1" class="edge">
<title>Node0x63c269998280&#45;&gt;Node0x63c269ab4620</title>
<path fill="none" stroke="#4a6fa5" d="M135.88,-2562.05C209.9,-2569.01 328.72,-2580.18 387.39,-2585.7"/>
<polygon fill="#4a6fa5" stroke="#4a6fa5" points="387.38,-2588.16 394.58,-2586.38 387.84,-2583.28 387.38,-2588.16"/>
</g>
<!-- Node0x63c269b9c360 -->
<g id="node3" class="node">
<title>Node0x63c269b9c360</title>
<path fill="#f0f4ff" stroke="black" d="M442.5,-2542C442.5,-2542 404.5,-2542 404.5,-2542 398.5,-2542 392.5,-2536 392.5,-2530 392.5,-2530 392.5,-2518 392.5,-2518 392.5,-2512 398.5,-2506 404.5,-2506 404.5,-2506 442.5,-2506 442.5,-2506 448.5,-2506 454.5,-2512 454.5,-2518 454.5,-2518 454.5,-2530 454.5,-2530 454.5,-2536 448.5,-2542 442.5,-2542"/>
<text text-anchor="middle" x="423.5" y="-2521.8" font-family="Courier,monospace" font-size="9.00">{fprintf}</text>
</g>
<!-- Node0x63c269998280&#45;&gt;Node0x63c269b9c360 -->
<g id="edge2" class="edge">
<title>Node0x63c269998280&#45;&gt;Node0x63c269b9c360</title>
<path fill="none" stroke="#4a6fa5" d="M135.88,-2550.13C208.95,-2543.47 325.68,-2532.83 385.11,-2527.41"/>
<polygon fill="#4a6fa5" stroke="#4a6fa5" points="385.66,-2529.82 392.41,-2526.74 385.21,-2524.94 385.66,-2529.82"/>
</g>
<!-- Node0x63c2699b3480 -->
<g id="node4" class="node">
<title>Node0x63c2699b3480</title>
<path fill="#f0f4ff" stroke="black" d="M129,-1313C129,-1313 12,-1313 12,-1313 6,-1313 0,-1307 0,-1301 0,-1301 0,-1289 0,-1289 0,-1283 6,-1277 12,-1277 12,-1277 129,-1277 129,-1277 135,-1277 141,-1283 141,-1289 141,-1289 141,-1301 141,-1301 141,-1307 135,-1313 129,-1313"/>
<text text-anchor="middle" x="70.5" y="-1292.8" font-family="Courier,monospace" font-size="9.00">{LLVMFuzzerTestOneInput}</text>
</g>
<!-- Node0x63c2699b3480&#45;&gt;Node0x63c269b9c360 -->
<g id="edge3" class="edge">
<title>Node0x63c2699b3480&#45;&gt;Node0x63c269b9c360</title>
<path fill="none" stroke="#4a6fa5" d="M72.57,-1313.23C81.16,-1456.84 140.85,-2402.95 227,-2492 267.78,-2534.15 340.96,-2534.35 385.3,-2529.78"/>
<polygon fill="#4a6fa5" stroke="#4a6fa5" points="385.74,-2532.19 392.42,-2528.98 385.19,-2527.32 385.74,-2532.19"/>
</g>
<!-- Node0x63c269bad8e0 -->
<g id="node5" class="node">
<title>Node0x63c269bad8e0</title>
<path fill="#f0f4ff" stroke="black" d="M566,-2087C566,-2087 281,-2087 281,-2087 275,-2087 269,-2081 269,-2075 269,-2075 269,-2063 269,-2063 269,-2057 275,-2051 281,-2051 281,-2051 566,-2051 566,-2051 572,-2051 578,-2057 578,-2063 578,-2063 578,-2075 578,-2075 578,-2081 572,-2087 566,-2087"/>
<text text-anchor="middle" x="423.5" y="-2066.8" font-family="Courier,monospace" font-size="9.00">{basic_string&lt;char, std::char_traits &gt;::~basic_string()}</text>
</g>
<!-- Node0x63c2699b3480&#45;&gt;Node0x63c269bad8e0 -->
<g id="edge4" class="edge">
<title>Node0x63c2699b3480&#45;&gt;Node0x63c269bad8e0</title>
<path fill="none" stroke="#4a6fa5" d="M72.6,-1313.17C79.27,-1416.81 117.63,-1932.37 227,-2037 237.16,-2046.72 249.06,-2054.15 261.88,-2059.77"/>
<polygon fill="#4a6fa5" stroke="#4a6fa5" points="261.26,-2062.17 268.67,-2062.55 263.12,-2057.63 261.26,-2062.17"/>
</g>
<!-- Node0x63c26995d940 -->
<g id="node6" class="node">
<title>Node0x63c26995d940</title>
<path fill="#f0f4ff" stroke="black" d="M440,-2022C440,-2022 407,-2022 407,-2022 401,-2022 395,-2016 395,-2010 395,-2010 395,-1998 395,-1998 395,-1992 401,-1986 407,-1986 407,-1986 440,-1986 440,-1986 446,-1986 452,-1992 452,-1998 452,-1998 452,-2010 452,-2010 452,-2016 446,-2022 440,-2022"/>
<text text-anchor="middle" x="423.5" y="-2001.8" font-family="Courier,monospace" font-size="9.00">{unlink}</text>
</g>
<!-- Node0x63c2699b3480&#45;&gt;Node0x63c26995d940 -->
<g id="edge5" class="edge">
<title>Node0x63c2699b3480&#45;&gt;Node0x63c26995d940</title>
<path fill="none" stroke="#4a6fa5" d="M72.99,-1313.17C81.43,-1411.36 126.42,-1877.61 227,-1972 270.27,-2012.6 344,-2013.01 387.49,-2008.96"/>
<polygon fill="#4a6fa5" stroke="#4a6fa5" points="388.01,-2011.37 394.73,-2008.22 387.51,-2006.5 388.01,-2011.37"/>
</g>
<!-- Node0x63c26995d310 -->
<g id="node7" class="node">
<title>Node0x63c26995d310</title>
<path fill="#f0f4ff" stroke="black" d="M466,-1957C466,-1957 381,-1957 381,-1957 375,-1957 369,-1951 369,-1945 369,-1945 369,-1933 369,-1933 369,-1927 375,-1921 381,-1921 381,-1921 466,-1921 466,-1921 472,-1921 478,-1927 478,-1933 478,-1933 478,-1945 478,-1945 478,-1951 472,-1957 466,-1957"/>
<text text-anchor="middle" x="423.5" y="-1936.8" font-family="Courier,monospace" font-size="9.00">{ReadIccProfile()}</text>
</g>
<!-- Node0x63c2699b3480&#45;&gt;Node0x63c26995d310 -->
<g id="edge6" class="edge">
<title>Node0x63c2699b3480&#45;&gt;Node0x63c26995d310</title>
<path fill="none" stroke="#4a6fa5" d="M73.47,-1313.24C83.84,-1405.83 135.19,-1822.81 227,-1907 262.9,-1939.92 318.91,-1946.21 361.79,-1945.26"/>
<polygon fill="#4a6fa5" stroke="#4a6fa5" points="361.9,-1947.71 368.82,-1945.04 361.75,-1942.81 361.9,-1947.71"/>
</g>
<!-- Node0x63c269b21b80 -->
<g id="node8" class="node">
<title>Node0x63c269b21b80</title>
<path fill="#f0f4ff" stroke="black" d="M458,-1892C458,-1892 389,-1892 389,-1892 383,-1892 377,-1886 377,-1880 377,-1880 377,-1868 377,-1868 377,-1862 383,-1856 389,-1856 389,-1856 458,-1856 458,-1856 464,-1856 470,-1862 470,-1868 470,-1868 470,-1880 470,-1880 470,-1886 464,-1892 458,-1892"/>
<text text-anchor="middle" x="423.5" y="-1871.8" font-family="Courier,monospace" font-size="9.00">{fuzz_tmpdir()}</text>
</g>
<!-- Node0x63c2699b3480&#45;&gt;Node0x63c269b21b80 -->
<g id="edge7" class="edge">
<title>Node0x63c2699b3480&#45;&gt;Node0x63c269b21b80</title>
<path fill="none" stroke="#4a6fa5" d="M74.02,-1313C86.42,-1399.11 143.81,-1767.85 227,-1842 265.55,-1876.36 326.13,-1881.42 369.63,-1879.74"/>
<polygon fill="#4a6fa5" stroke="#4a6fa5" points="369.86,-1882.18 376.73,-1879.4 369.63,-1877.28 369.86,-1882.18"/>
</g>
<!-- Node0x63c269badb60 -->
<g id="node9" class="node">
<title>Node0x63c269badb60</title>
<path fill="#f0f4ff" stroke="black" d="M466,-1827C466,-1827 381,-1827 381,-1827 375,-1827 369,-1821 369,-1815 369,-1815 369,-1803 369,-1803 369,-1797 375,-1791 381,-1791 381,-1791 466,-1791 466,-1791 472,-1791 478,-1797 478,-1803 478,-1803 478,-1815 478,-1815 478,-1821 472,-1827 466,-1827"/>
<text text-anchor="middle" x="423.5" y="-1806.8" font-family="Courier,monospace" font-size="9.00">{SaveIccProfile()}</text>
</g>
<!-- Node0x63c2699b3480&#45;&gt;Node0x63c269badb60 -->
<g id="edge8" class="edge">
<title>Node0x63c2699b3480&#45;&gt;Node0x63c269badb60</title>
<path fill="none" stroke="#4a6fa5" d="M71.16,-1313.43C70.92,-1385.55 80.36,-1650.84 227,-1777 263.72,-1808.59 319.22,-1815.11 361.71,-1814.58"/>
<polygon fill="#4a6fa5" stroke="#4a6fa5" points="362,-1817.02 368.95,-1814.42 361.9,-1812.12 362,-1817.02"/>
</g>
<!-- Node0x63c26995e940 -->
<g id="node10" class="node">
<title>Node0x63c26995e940</title>
<path fill="#f0f4ff" stroke="black" d="M438.5,-1762C438.5,-1762 408.5,-1762 408.5,-1762 402.5,-1762 396.5,-1756 396.5,-1750 396.5,-1750 396.5,-1738 396.5,-1738 396.5,-1732 402.5,-1726 408.5,-1726 408.5,-1726 438.5,-1726 438.5,-1726 444.5,-1726 450.5,-1732 450.5,-1738 450.5,-1738 450.5,-1750 450.5,-1750 450.5,-1756 444.5,-1762 438.5,-1762"/>
<text text-anchor="middle" x="423.5" y="-1741.8" font-family="Courier,monospace" font-size="9.00">{close}</text>
</g>
<!-- Node0x63c2699b3480&#45;&gt;Node0x63c26995e940 -->
<g id="edge9" class="edge">
<title>Node0x63c2699b3480&#45;&gt;Node0x63c26995e940</title>
<path fill="none" stroke="#4a6fa5" d="M72.18,-1313.22C75.71,-1378.9 97.18,-1605.28 227,-1712 273.21,-1749.99 346.88,-1751.13 389.36,-1747.95"/>
<polygon fill="#4a6fa5" stroke="#4a6fa5" points="389.63,-1750.39 396.41,-1747.37 389.23,-1745.51 389.63,-1750.39"/>
</g>
<!-- Node0x63c2699dc4a0 -->
<g id="node11" class="node">
<title>Node0x63c2699dc4a0</title>
<path fill="#f0f4ff" stroke="black" d="M442.5,-1697C442.5,-1697 404.5,-1697 404.5,-1697 398.5,-1697 392.5,-1691 392.5,-1685 392.5,-1685 392.5,-1673 392.5,-1673 392.5,-1667 398.5,-1661 404.5,-1661 404.5,-1661 442.5,-1661 442.5,-1661 448.5,-1661 454.5,-1667 454.5,-1673 454.5,-1673 454.5,-1685 454.5,-1685 454.5,-1691 448.5,-1697 442.5,-1697"/>
<text text-anchor="middle" x="423.5" y="-1676.8" font-family="Courier,monospace" font-size="9.00">{mkstemp}</text>
</g>
<!-- Node0x63c2699b3480&#45;&gt;Node0x63c2699dc4a0 -->
<g id="edge10" class="edge">
<title>Node0x63c2699b3480&#45;&gt;Node0x63c2699dc4a0</title>
<path fill="none" stroke="#4a6fa5" d="M73.89,-1313.07C82.54,-1370.74 117.67,-1551.66 227,-1639 272.42,-1675.28 342.29,-1681.19 385.04,-1680.95"/>
<polygon fill="#4a6fa5" stroke="#4a6fa5" points="385.21,-1683.4 392.18,-1680.85 385.15,-1678.5 385.21,-1683.4"/>
</g>
<!-- Node0x63c2699e0900 -->
<g id="node12" class="node">
<title>Node0x63c2699e0900</title>
<path fill="#f0f4ff" stroke="black" d="M468.5,-1508C468.5,-1508 378.5,-1508 378.5,-1508 372.5,-1508 366.5,-1502 366.5,-1496 366.5,-1496 366.5,-1484 366.5,-1484 366.5,-1478 372.5,-1472 378.5,-1472 378.5,-1472 468.5,-1472 468.5,-1472 474.5,-1472 480.5,-1478 480.5,-1484 480.5,-1484 480.5,-1496 480.5,-1496 480.5,-1502 474.5,-1508 468.5,-1508"/>
<text text-anchor="middle" x="423.5" y="-1487.8" font-family="Courier,monospace" font-size="9.00">{fuzz_build_path()}</text>
</g>
<!-- Node0x63c2699b3480&#45;&gt;Node0x63c2699e0900 -->
<g id="edge11" class="edge">
<title>Node0x63c2699b3480&#45;&gt;Node0x63c2699e0900</title>
<path fill="none" stroke="#4a6fa5" d="M82.81,-1313.09C105.48,-1347.63 160.07,-1422.68 227,-1458 267.66,-1479.46 319.17,-1487.23 359.1,-1489.76"/>
<polygon fill="#4a6fa5" stroke="#4a6fa5" points="359.29,-1492.23 366.42,-1490.17 359.57,-1487.33 359.29,-1492.23"/>
</g>
<!-- Node0x63c269baaf20 -->
<g id="node13" class="node">
<title>Node0x63c269baaf20</title>
<path fill="#f0f4ff" stroke="black" d="M487,-1443C487,-1443 360,-1443 360,-1443 354,-1443 348,-1437 348,-1431 348,-1431 348,-1419 348,-1419 348,-1413 354,-1407 360,-1407 360,-1407 487,-1407 487,-1407 493,-1407 499,-1413 499,-1419 499,-1419 499,-1431 499,-1431 499,-1437 493,-1443 487,-1443"/>
<text text-anchor="middle" x="423.5" y="-1422.8" font-family="Courier,monospace" font-size="9.00">{CIccProfile::AttachTag()}</text>
</g>
<!-- Node0x63c2699b3480&#45;&gt;Node0x63c269baaf20 -->
<g id="edge12" class="edge">
<title>Node0x63c2699b3480&#45;&gt;Node0x63c269baaf20</title>
<path fill="none" stroke="#4a6fa5" d="M93.66,-1313.05C122.51,-1335.56 175.38,-1373.43 227,-1393 263.03,-1406.66 304.96,-1414.49 340.74,-1418.98"/>
<polygon fill="#4a6fa5" stroke="#4a6fa5" points="340.56,-1421.42 347.81,-1419.83 341.15,-1416.56 340.56,-1421.42"/>
</g>
<!-- Node0x63c269bac620 -->
<g id="node14" class="node">
<title>Node0x63c269bac620</title>
<path fill="#f0f4ff" stroke="black" d="M526.5,-1378C526.5,-1378 320.5,-1378 320.5,-1378 314.5,-1378 308.5,-1372 308.5,-1366 308.5,-1366 308.5,-1354 308.5,-1354 308.5,-1348 314.5,-1342 320.5,-1342 320.5,-1342 526.5,-1342 526.5,-1342 532.5,-1342 538.5,-1348 538.5,-1354 538.5,-1354 538.5,-1366 538.5,-1366 538.5,-1372 532.5,-1378 526.5,-1378"/>
<text text-anchor="middle" x="423.5" y="-1357.8" font-family="Courier,monospace" font-size="9.00">{CIccTagMultiLocalizedUnicode::SetText()}</text>
</g>
<!-- Node0x63c2699b3480&#45;&gt;Node0x63c269bac620 -->
<g id="edge13" class="edge">
<title>Node0x63c2699b3480&#45;&gt;Node0x63c269bac620</title>
<path fill="none" stroke="#4a6fa5" d="M141.03,-1310.48C167.84,-1316.26 198.79,-1322.7 227,-1328 251.02,-1332.51 276.77,-1336.99 301.44,-1341.09"/>
<polygon fill="#4a6fa5" stroke="#4a6fa5" points="301.06,-1343.51 308.37,-1342.24 301.86,-1338.68 301.06,-1343.51"/>
</g>
<!-- Node0x63c269baa020 -->
<g id="node15" class="node">
<title>Node0x63c269baa020</title>
<path fill="#f0f4ff" stroke="black" d="M445,-1313C445,-1313 402,-1313 402,-1313 396,-1313 390,-1307 390,-1301 390,-1301 390,-1289 390,-1289 390,-1283 396,-1277 402,-1277 402,-1277 445,-1277 445,-1277 451,-1277 457,-1283 457,-1289 457,-1289 457,-1301 457,-1301 457,-1307 451,-1313 445,-1313"/>
<text text-anchor="middle" x="423.5" y="-1292.8" font-family="Courier,monospace" font-size="9.00">{delete()}</text>
</g>
<!-- Node0x63c2699b3480&#45;&gt;Node0x63c269baa020 -->
<g id="edge14" class="edge">
<title>Node0x63c2699b3480&#45;&gt;Node0x63c269baa020</title>
<path fill="none" stroke="#4a6fa5" d="M141.27,-1295C213.55,-1295 323.98,-1295 382.64,-1295"/>
<polygon fill="#4a6fa5" stroke="#4a6fa5" points="382.87,-1297.45 389.87,-1295 382.87,-1292.55 382.87,-1297.45"/>
</g>
<!-- Node0x63c269bab6a0 -->
<g id="node16" class="node">
<title>Node0x63c269bab6a0</title>
<path fill="#f0f4ff" stroke="black" d="M581.5,-1248C581.5,-1248 265.5,-1248 265.5,-1248 259.5,-1248 253.5,-1242 253.5,-1236 253.5,-1236 253.5,-1224 253.5,-1224 253.5,-1218 259.5,-1212 265.5,-1212 265.5,-1212 581.5,-1212 581.5,-1212 587.5,-1212 593.5,-1218 593.5,-1224 593.5,-1224 593.5,-1236 593.5,-1236 593.5,-1242 587.5,-1248 581.5,-1248"/>
<text text-anchor="middle" x="423.5" y="-1227.8" font-family="Courier,monospace" font-size="9.00">{CIccTagMultiLocalizedUnicode::CIccTagMultiLocalizedUnicode()}</text>
</g>
<!-- Node0x63c2699b3480&#45;&gt;Node0x63c269bab6a0 -->
<g id="edge15" class="edge">
<title>Node0x63c2699b3480&#45;&gt;Node0x63c269bab6a0</title>
<path fill="none" stroke="#4a6fa5" d="M141.06,-1280.13C167.88,-1274.55 198.82,-1268.28 227,-1263 251.97,-1258.32 278.8,-1253.6 304.33,-1249.25"/>
<polygon fill="#4a6fa5" stroke="#4a6fa5" points="305,-1251.62 311.49,-1248.03 304.18,-1246.79 305,-1251.62"/>
</g>
<!-- Node0x63c26995d290 -->
<g id="node17" class="node">
<title>Node0x63c26995d290</title>
<path fill="#f0f4ff" stroke="black" d="M438.5,-1183C438.5,-1183 408.5,-1183 408.5,-1183 402.5,-1183 396.5,-1177 396.5,-1171 396.5,-1171 396.5,-1159 396.5,-1159 396.5,-1153 402.5,-1147 408.5,-1147 408.5,-1147 438.5,-1147 438.5,-1147 444.5,-1147 450.5,-1153 450.5,-1159 450.5,-1159 450.5,-1171 450.5,-1171 450.5,-1177 444.5,-1183 438.5,-1183"/>
<text text-anchor="middle" x="423.5" y="-1162.8" font-family="Courier,monospace" font-size="9.00">{write}</text>
</g>
<!-- Node0x63c2699b3480&#45;&gt;Node0x63c26995d290 -->
<g id="edge16" class="edge">
<title>Node0x63c2699b3480&#45;&gt;Node0x63c26995d290</title>
<path fill="none" stroke="#4a6fa5" d="M94.21,-1276.79C123.22,-1254.52 175.83,-1217.41 227,-1198 281.54,-1177.32 349.53,-1169.56 389.27,-1166.67"/>
<polygon fill="#4a6fa5" stroke="#4a6fa5" points="389.54,-1169.11 396.36,-1166.19 389.21,-1164.22 389.54,-1169.11"/>
</g>
<!-- Node0x63c269ba7400 -->
<g id="node18" class="node">
<title>Node0x63c269ba7400</title>
<path fill="#f0f4ff" stroke="black" d="M438.5,-1118C438.5,-1118 408.5,-1118 408.5,-1118 402.5,-1118 396.5,-1112 396.5,-1106 396.5,-1106 396.5,-1094 396.5,-1094 396.5,-1088 402.5,-1082 408.5,-1082 408.5,-1082 438.5,-1082 438.5,-1082 444.5,-1082 450.5,-1088 450.5,-1094 450.5,-1094 450.5,-1106 450.5,-1106 450.5,-1112 444.5,-1118 438.5,-1118"/>
<text text-anchor="middle" x="423.5" y="-1097.8" font-family="Courier,monospace" font-size="9.00">{new()}</text>
</g>
<!-- Node0x63c2699b3480&#45;&gt;Node0x63c269ba7400 -->
<g id="edge17" class="edge">
<title>Node0x63c2699b3480&#45;&gt;Node0x63c269ba7400</title>
<path fill="none" stroke="#4a6fa5" d="M83.03,-1276.79C105.88,-1242.39 160.49,-1168.18 227,-1133 278.99,-1105.5 348.67,-1100.01 389.27,-1099.4"/>
<polygon fill="#4a6fa5" stroke="#4a6fa5" points="389.52,-1101.85 396.5,-1099.34 389.48,-1096.95 389.52,-1101.85"/>
</g>
<!-- Node0x63c269bacb20 -->
<g id="node19" class="node">
<title>Node0x63c269bacb20</title>
<path fill="#f0f4ff" stroke="black" d="M545,-1053C545,-1053 302,-1053 302,-1053 296,-1053 290,-1047 290,-1041 290,-1041 290,-1029 290,-1029 290,-1023 296,-1017 302,-1017 302,-1017 545,-1017 545,-1017 551,-1017 557,-1023 557,-1029 557,-1029 557,-1041 557,-1041 557,-1047 551,-1053 545,-1053"/>
<text text-anchor="middle" x="423.5" y="-1032.8" font-family="Courier,monospace" font-size="9.00">{basic_string&lt;char, std::char_traits &gt;::c_str()}</text>
</g>
<!-- Node0x63c2699b3480&#45;&gt;Node0x63c269bacb20 -->
<g id="edge18" class="edge">
<title>Node0x63c2699b3480&#45;&gt;Node0x63c269bacb20</title>
<path fill="none" stroke="#4a6fa5" d="M78.1,-1276.88C95.14,-1232.91 145.09,-1120.35 227,-1068 243.86,-1057.22 263.15,-1049.64 282.89,-1044.35"/>
<polygon fill="#4a6fa5" stroke="#4a6fa5" points="283.71,-1046.67 289.89,-1042.58 282.51,-1041.92 283.71,-1046.67"/>
</g>
<!-- Node0x63c269bacda0 -->
<g id="node20" class="node">
<title>Node0x63c269bacda0</title>
<path fill="#f0f4ff" stroke="black" d="M597.5,-988C597.5,-988 249.5,-988 249.5,-988 243.5,-988 237.5,-982 237.5,-976 237.5,-976 237.5,-964 237.5,-964 237.5,-958 243.5,-952 249.5,-952 249.5,-952 597.5,-952 597.5,-952 603.5,-952 609.5,-958 609.5,-964 609.5,-964 609.5,-976 609.5,-976 609.5,-982 603.5,-988 597.5,-988"/>
<text text-anchor="middle" x="423.5" y="-967.8" font-family="Courier,monospace" font-size="9.00">{std::basic_string&lt;char, std::char_traits &gt;::operator=(char const*)}</text>
</g>
<!-- Node0x63c2699b3480&#45;&gt;Node0x63c269bacda0 -->
<g id="edge19" class="edge">
<title>Node0x63c2699b3480&#45;&gt;Node0x63c269bacda0</title>
<path fill="none" stroke="#4a6fa5" d="M75.28,-1276.93C87.19,-1224.83 129.14,-1073.51 227,-1003 233.2,-998.53 239.8,-994.59 246.67,-991.12"/>
<polygon fill="#4a6fa5" stroke="#4a6fa5" points="247.81,-993.29 253.06,-988.06 245.69,-988.87 247.81,-993.29"/>
</g>
<!-- Node0x63c269bad020 -->
<g id="node21" class="node">
<title>Node0x63c269bad020</title>
<path fill="#f0f4ff" stroke="black" d="M461,-923C461,-923 386,-923 386,-923 380,-923 374,-917 374,-911 374,-911 374,-899 374,-899 374,-893 380,-887 386,-887 386,-887 461,-887 461,-887 467,-887 473,-893 473,-899 473,-899 473,-911 473,-911 473,-917 467,-923 461,-923"/>
<text text-anchor="middle" x="423.5" y="-902.8" font-family="Courier,monospace" font-size="9.00">{icGetTagText()}</text>
</g>
<!-- Node0x63c2699b3480&#45;&gt;Node0x63c269bad020 -->
<g id="edge20" class="edge">
<title>Node0x63c2699b3480&#45;&gt;Node0x63c269bad020</title>
<path fill="none" stroke="#4a6fa5" d="M73.43,-1276.94C80.79,-1217.6 112.77,-1027.32 227,-938 266.35,-907.23 323.9,-900.74 366.38,-900.89"/>
<polygon fill="#4a6fa5" stroke="#4a6fa5" points="366.56,-903.35 373.59,-900.98 366.62,-898.45 366.56,-903.35"/>
</g>
<!-- Node0x63c269bab1a0 -->
<g id="node22" class="node">
<title>Node0x63c269bab1a0</title>
<path fill="#f0f4ff" stroke="black" d="M563,-858C563,-858 284,-858 284,-858 278,-858 272,-852 272,-846 272,-846 272,-834 272,-834 272,-828 278,-822 284,-822 284,-822 563,-822 563,-822 569,-822 575,-828 575,-834 575,-834 575,-846 575,-846 575,-852 569,-858 563,-858"/>
<text text-anchor="middle" x="423.5" y="-837.8" font-family="Courier,monospace" font-size="9.00">{basic_string&lt;char, std::char_traits &gt;::basic_string()}</text>
</g>
<!-- Node0x63c2699b3480&#45;&gt;Node0x63c269bab1a0 -->
<g id="edge21" class="edge">
<title>Node0x63c2699b3480&#45;&gt;Node0x63c269bab1a0</title>
<path fill="none" stroke="#4a6fa5" d="M72.12,-1276.59C75.44,-1210.23 96.29,-981.42 227,-873 238.27,-863.65 251.19,-856.5 264.91,-851.07"/>
<polygon fill="#4a6fa5" stroke="#4a6fa5" points="265.99,-853.28 271.7,-848.54 264.28,-848.69 265.99,-853.28"/>
</g>
<!-- Node0x63c269bab920 -->
<g id="node23" class="node">
<title>Node0x63c269bab920</title>
<path fill="#f0f4ff" stroke="black" d="M482,-793C482,-793 365,-793 365,-793 359,-793 353,-787 353,-781 353,-781 353,-769 353,-769 353,-763 359,-757 365,-757 365,-757 482,-757 482,-757 488,-757 494,-763 494,-769 494,-769 494,-781 494,-781 494,-787 488,-793 482,-793"/>
<text text-anchor="middle" x="423.5" y="-772.8" font-family="Courier,monospace" font-size="9.00">{CIccProfile::FindTag()}</text>
</g>
<!-- Node0x63c2699b3480&#45;&gt;Node0x63c269bab920 -->
<g id="edge22" class="edge">
<title>Node0x63c2699b3480&#45;&gt;Node0x63c269bab920</title>
<path fill="none" stroke="#4a6fa5" d="M71.11,-1276.9C70.63,-1204.86 79.16,-936.23 227,-808 259.07,-780.19 305.61,-771.51 345.24,-769.99"/>
<polygon fill="#4a6fa5" stroke="#4a6fa5" points="345.62,-772.43 352.55,-769.79 345.48,-767.53 345.62,-772.43"/>
</g>
<!-- Node0x63c269babba0 -->
<g id="node24" class="node">
<title>Node0x63c269babba0</title>
<path fill="#f0f4ff" stroke="black" d="M608,-728C608,-728 239,-728 239,-728 233,-728 227,-722 227,-716 227,-716 227,-704 227,-704 227,-698 233,-692 239,-692 239,-692 608,-692 608,-692 614,-692 620,-698 620,-704 620,-704 620,-716 620,-716 620,-722 614,-728 608,-728"/>
<text text-anchor="middle" x="423.5" y="-707.8" font-family="Courier,monospace" font-size="9.00">{CIccTagFixedNum&lt;int, (icTagTypeSignature)1936077618&gt;::operator[](un...}</text>
</g>
<!-- Node0x63c2699b3480&#45;&gt;Node0x63c269babba0 -->
<g id="edge23" class="edge">
<title>Node0x63c2699b3480&#45;&gt;Node0x63c269babba0</title>
<path fill="none" stroke="#4a6fa5" d="M74,-1276.84C86.32,-1190 143.38,-818.09 227,-743 231.6,-738.87 236.52,-735.15 241.69,-731.82"/>
<polygon fill="#4a6fa5" stroke="#4a6fa5" points="243.15,-733.8 247.87,-728.07 240.61,-729.61 243.15,-733.8"/>
</g>
<!-- Node0x63c269baa2a0 -->
<g id="node25" class="node">
<title>Node0x63c269baa2a0</title>
<path fill="#f0f4ff" stroke="black" d="M445,-663C445,-663 402,-663 402,-663 396,-663 390,-657 390,-651 390,-651 390,-639 390,-639 390,-633 396,-627 402,-627 402,-627 445,-627 445,-627 451,-627 457,-633 457,-639 457,-639 457,-651 457,-651 457,-657 451,-663 445,-663"/>
<text text-anchor="middle" x="423.5" y="-642.8" font-family="Courier,monospace" font-size="9.00">{icDtoF()}</text>
</g>
<!-- Node0x63c2699b3480&#45;&gt;Node0x63c269baa2a0 -->
<g id="edge24" class="edge">
<title>Node0x63c2699b3480&#45;&gt;Node0x63c269baa2a0</title>
<path fill="none" stroke="#4a6fa5" d="M73.42,-1276.93C83.64,-1184.25 134.68,-763.24 227,-678 269.04,-639.18 338.93,-636.86 382.76,-640.01"/>
<polygon fill="#4a6fa5" stroke="#4a6fa5" points="382.66,-642.46 389.83,-640.58 383.05,-637.57 382.66,-642.46"/>
</g>
<!-- Node0x63c269baa520 -->
<g id="node26" class="node">
<title>Node0x63c269baa520</title>
<path fill="#f0f4ff" stroke="black" d="M608,-598C608,-598 239,-598 239,-598 233,-598 227,-592 227,-586 227,-586 227,-574 227,-574 227,-568 233,-562 239,-562 239,-562 608,-562 608,-562 614,-562 620,-568 620,-574 620,-574 620,-586 620,-586 620,-592 614,-598 608,-598"/>
<text text-anchor="middle" x="423.5" y="-577.8" font-family="Courier,monospace" font-size="9.00">{CIccTagFixedNum&lt;int, (icTagTypeSignature)1936077618&gt;::CIccTagFixedN...}</text>
</g>
<!-- Node0x63c2699b3480&#45;&gt;Node0x63c269baa520 -->
<g id="edge25" class="edge">
<title>Node0x63c2699b3480&#45;&gt;Node0x63c269baa520</title>
<path fill="none" stroke="#4a6fa5" d="M72.98,-1276.7C81.35,-1177.84 126.03,-708.38 227,-613 231.22,-609.01 235.74,-605.41 240.49,-602.15"/>
<polygon fill="#4a6fa5" stroke="#4a6fa5" points="242.06,-604.05 246.63,-598.21 239.41,-599.93 242.06,-604.05"/>
</g>
<!-- Node0x63c269baa8e0 -->
<g id="node27" class="node">
<title>Node0x63c269baa8e0</title>
<path fill="#f0f4ff" stroke="black" d="M916,-1573C916,-1573 805,-1573 805,-1573 799,-1573 793,-1567 793,-1561 793,-1561 793,-1549 793,-1549 793,-1543 799,-1537 805,-1537 805,-1537 916,-1537 916,-1537 922,-1537 928,-1543 928,-1549 928,-1549 928,-1561 928,-1561 928,-1567 922,-1573 916,-1573"/>
<text text-anchor="middle" x="860.5" y="-1552.8" font-family="Courier,monospace" font-size="9.00">{llvm.memcpy.p0.p0.i64}</text>
</g>
<!-- Node0x63c2699b3480&#45;&gt;Node0x63c269baa8e0 -->
<g id="edge26" class="edge">
<title>Node0x63c2699b3480&#45;&gt;Node0x63c269baa8e0</title>
<path fill="none" stroke="#4a6fa5" d="M74.57,-1313.17C84.75,-1366.94 122.87,-1525.38 227,-1588 415.01,-1701.07 694.17,-1617.84 808.19,-1575.62"/>
<polygon fill="#4a6fa5" stroke="#4a6fa5" points="809.1,-1577.89 814.8,-1573.14 807.39,-1573.3 809.1,-1577.89"/>
</g>
<!-- Node0x63c269ba98a0 -->
<g id="node28" class="node">
<title>Node0x63c269ba98a0</title>
<path fill="#f0f4ff" stroke="black" d="M524,-533C524,-533 323,-533 323,-533 317,-533 311,-527 311,-521 311,-521 311,-509 311,-509 311,-503 317,-497 323,-497 323,-497 524,-497 524,-497 530,-497 536,-503 536,-509 536,-509 536,-521 536,-521 536,-527 530,-533 524,-533"/>
<text text-anchor="middle" x="423.5" y="-512.8" font-family="Courier,monospace" font-size="9.00">{CIccTagCurve::operator[](unsigned int)}</text>
</g>
<!-- Node0x63c2699b3480&#45;&gt;Node0x63c269ba98a0 -->
<g id="edge27" class="edge">
<title>Node0x63c2699b3480&#45;&gt;Node0x63c269ba98a0</title>
<path fill="none" stroke="#4a6fa5" d="M72.59,-1276.72C79.19,-1172.43 117.25,-653.65 227,-548 247.63,-528.14 275.5,-517.7 303.73,-512.66"/>
<polygon fill="#4a6fa5" stroke="#4a6fa5" points="304.39,-515.03 310.91,-511.49 303.6,-510.2 304.39,-515.03"/>
</g>
<!-- Node0x63c269ba9b20 -->
<g id="node29" class="node">
<title>Node0x63c269ba9b20</title>
<path fill="#f0f4ff" stroke="black" d="M497.5,-468C497.5,-468 349.5,-468 349.5,-468 343.5,-468 337.5,-462 337.5,-456 337.5,-456 337.5,-444 337.5,-444 337.5,-438 343.5,-432 349.5,-432 349.5,-432 497.5,-432 497.5,-432 503.5,-432 509.5,-438 509.5,-444 509.5,-444 509.5,-456 509.5,-456 509.5,-462 503.5,-468 497.5,-468"/>
<text text-anchor="middle" x="423.5" y="-447.8" font-family="Courier,monospace" font-size="9.00">{CIccTagCurve::CIccTagCurve()}</text>
</g>
<!-- Node0x63c2699b3480&#45;&gt;Node0x63c269ba9b20 -->
<g id="edge28" class="edge">
<title>Node0x63c2699b3480&#45;&gt;Node0x63c269ba9b20</title>
<path fill="none" stroke="#4a6fa5" d="M72.25,-1276.95C77.17,-1168.02 108.36,-599.05 227,-483 253.87,-456.71 293.4,-446.85 329.89,-444.18"/>
<polygon fill="#4a6fa5" stroke="#4a6fa5" points="330.31,-446.61 337.15,-443.74 330.01,-441.72 330.31,-446.61"/>
</g>
<!-- Node0x63c269ba9da0 -->
<g id="node30" class="node">
<title>Node0x63c269ba9da0</title>
<path fill="#f0f4ff" stroke="black" d="M489.5,-403C489.5,-403 357.5,-403 357.5,-403 351.5,-403 345.5,-397 345.5,-391 345.5,-391 345.5,-379 345.5,-379 345.5,-373 351.5,-367 357.5,-367 357.5,-367 489.5,-367 489.5,-367 495.5,-367 501.5,-373 501.5,-379 501.5,-379 501.5,-391 501.5,-391 501.5,-397 495.5,-403 489.5,-403"/>
<text text-anchor="middle" x="423.5" y="-382.8" font-family="Courier,monospace" font-size="9.00">{CIccProfile::InitHeader()}</text>
</g>
<!-- Node0x63c2699b3480&#45;&gt;Node0x63c269ba9da0 -->
<g id="edge29" class="edge">
<title>Node0x63c2699b3480&#45;&gt;Node0x63c269ba9da0</title>
<path fill="none" stroke="#4a6fa5" d="M71.99,-1276.65C75.41,-1161.95 99.64,-544.31 227,-418 255.76,-389.48 299.39,-380.2 338.14,-378.51"/>
<polygon fill="#4a6fa5" stroke="#4a6fa5" points="338.4,-380.95 345.31,-378.28 338.24,-376.06 338.4,-380.95"/>
</g>
<!-- Node0x63c269ba6810 -->
<g id="node31" class="node">
<title>Node0x63c269ba6810</title>
<path fill="#f0f4ff" stroke="black" d="M492.5,-338C492.5,-338 354.5,-338 354.5,-338 348.5,-338 342.5,-332 342.5,-326 342.5,-326 342.5,-314 342.5,-314 342.5,-308 348.5,-302 354.5,-302 354.5,-302 492.5,-302 492.5,-302 498.5,-302 504.5,-308 504.5,-314 504.5,-314 504.5,-326 504.5,-326 504.5,-332 498.5,-338 492.5,-338"/>
<text text-anchor="middle" x="423.5" y="-317.8" font-family="Courier,monospace" font-size="9.00">{CIccProfile::CIccProfile()}</text>
</g>
<!-- Node0x63c2699b3480&#45;&gt;Node0x63c269ba6810 -->
<g id="edge30" class="edge">
<title>Node0x63c2699b3480&#45;&gt;Node0x63c269ba6810</title>
<path fill="none" stroke="#4a6fa5" d="M71.74,-1276.87C73.7,-1157.92 90.7,-489.79 227,-353 254.9,-325 297.12,-315.48 335.19,-313.49"/>
<polygon fill="#4a6fa5" stroke="#4a6fa5" points="335.35,-315.94 342.25,-313.21 335.15,-311.04 335.35,-315.94"/>
</g>
<!-- Node0x63c269ba79c0 -->
<g id="node32" class="node">
<title>Node0x63c269ba79c0</title>
<path fill="#f0f4ff" stroke="black" d="M568.5,-273C568.5,-273 278.5,-273 278.5,-273 272.5,-273 266.5,-267 266.5,-261 266.5,-261 266.5,-249 266.5,-249 266.5,-243 272.5,-237 278.5,-237 278.5,-237 568.5,-237 568.5,-237 574.5,-237 580.5,-243 580.5,-249 580.5,-249 580.5,-261 580.5,-261 580.5,-267 574.5,-273 568.5,-273"/>
<text text-anchor="middle" x="423.5" y="-252.8" font-family="Courier,monospace" font-size="9.00">{std::_List_iterator&lt;CIccApplyMpePtr&gt;::operator&#45;() const}</text>
</g>
<!-- Node0x63c2699b3480&#45;&gt;Node0x63c269ba79c0 -->
<g id="edge31" class="edge">
<title>Node0x63c2699b3480&#45;&gt;Node0x63c269ba79c0</title>
<path fill="none" stroke="#4a6fa5" d="M71.53,-1276.84C72.12,-1153.15 81.83,-435.22 227,-288 236.47,-278.4 247.61,-270.96 259.71,-265.26"/>
<polygon fill="#4a6fa5" stroke="#4a6fa5" points="260.7,-267.5 266.11,-262.43 258.72,-263.01 260.7,-267.5"/>
</g>
<!-- Node0x63c269ba77c0 -->
<g id="node33" class="node">
<title>Node0x63c269ba77c0</title>
<path fill="#f0f4ff" stroke="black" d="M563,-1573C563,-1573 284,-1573 284,-1573 278,-1573 272,-1567 272,-1561 272,-1561 272,-1549 272,-1549 272,-1543 278,-1537 284,-1537 284,-1537 563,-1537 563,-1537 569,-1537 575,-1543 575,-1549 575,-1549 575,-1561 575,-1561 575,-1567 569,-1573 563,-1573"/>
<text text-anchor="middle" x="423.5" y="-1552.8" font-family="Courier,monospace" font-size="9.00">{std::_List_iterator&lt;CIccApplyMpePtr&gt;::operator++(int)}</text>
</g>
<!-- Node0x63c2699b3480&#45;&gt;Node0x63c269ba77c0 -->
<g id="edge32" class="edge">
<title>Node0x63c2699b3480&#45;&gt;Node0x63c269ba77c0</title>
<path fill="none" stroke="#4a6fa5" d="M78.06,-1313.22C95.01,-1357.44 144.77,-1470.61 227,-1523 238.78,-1530.5 251.74,-1536.43 265.21,-1541.1"/>
<polygon fill="#4a6fa5" stroke="#4a6fa5" points="264.45,-1543.42 271.86,-1543.29 265.98,-1538.77 264.45,-1543.42"/>
</g>
<!-- Node0x63c269960540 -->
<g id="node34" class="node">
<title>Node0x63c269960540</title>
<path fill="#f0f4ff" stroke="black" d="M518.5,-36C518.5,-36 328.5,-36 328.5,-36 322.5,-36 316.5,-30 316.5,-24 316.5,-24 316.5,-12 316.5,-12 316.5,-6 322.5,0 328.5,0 328.5,0 518.5,0 518.5,0 524.5,0 530.5,-6 530.5,-12 530.5,-12 530.5,-24 530.5,-24 530.5,-30 524.5,-36 518.5,-36"/>
<text text-anchor="middle" x="423.5" y="-15.8" font-family="Courier,monospace" font-size="9.00">{std::list&lt;CIccApplyMpePtr &gt;::begin()}</text>
</g>
<!-- Node0x63c2699b3480&#45;&gt;Node0x63c269960540 -->
<g id="edge33" class="edge">
<title>Node0x63c2699b3480&#45;&gt;Node0x63c269960540</title>
<path fill="none" stroke="#4a6fa5" d="M72.56,-1276.79C81.23,-1131.25 142.01,-159.91 227,-65 248.05,-41.49 278.62,-28.72 309.36,-22.04"/>
<polygon fill="#4a6fa5" stroke="#4a6fa5" points="309.96,-24.42 316.33,-20.63 308.98,-19.62 309.96,-24.42"/>
</g>
<!-- Node0x63c269ba4870 -->
<g id="node35" class="node">
<title>Node0x63c269ba4870</title>
<path fill="#f0f4ff" stroke="black" d="M516,-208C516,-208 331,-208 331,-208 325,-208 319,-202 319,-196 319,-196 319,-184 319,-184 319,-178 325,-172 331,-172 331,-172 516,-172 516,-172 522,-172 528,-178 528,-184 528,-184 528,-196 528,-196 528,-202 522,-208 516,-208"/>
<text text-anchor="middle" x="423.5" y="-187.8" font-family="Courier,monospace" font-size="9.00">{std::list&lt;CIccApplyMpePtr &gt;::size()}</text>
</g>
<!-- Node0x63c2699b3480&#45;&gt;Node0x63c269ba4870 -->
<g id="edge34" class="edge">
<title>Node0x63c2699b3480&#45;&gt;Node0x63c269ba4870</title>
<path fill="none" stroke="#4a6fa5" d="M71.35,-1276.92C70.64,-1148.99 72.9,-380.71 227,-223 249.14,-200.34 280.63,-189.71 311.89,-185.38"/>
<polygon fill="#4a6fa5" stroke="#4a6fa5" points="312.32,-187.8 318.97,-184.51 311.72,-182.94 312.32,-187.8"/>
</g>
<!-- Node0x63c269ba6090 -->
<g id="node36" class="node">
<title>Node0x63c269ba6090</title>
<path fill="#f0f4ff" stroke="black" d="M521,-2477C521,-2477 326,-2477 326,-2477 320,-2477 314,-2471 314,-2465 314,-2465 314,-2453 314,-2453 314,-2447 320,-2441 326,-2441 326,-2441 521,-2441 521,-2441 527,-2441 533,-2447 533,-2453 533,-2453 533,-2465 533,-2465 533,-2471 527,-2477 521,-2477"/>
<text text-anchor="middle" x="423.5" y="-2456.8" font-family="Courier,monospace" font-size="9.00">{CIccApplyTagMpe::GetList[abi:cxx11]()}</text>
</g>
<!-- Node0x63c2699b3480&#45;&gt;Node0x63c269ba6090 -->
<g id="edge35" class="edge">
<title>Node0x63c2699b3480&#45;&gt;Node0x63c269ba6090</title>
<path fill="none" stroke="#4a6fa5" d="M71.18,-1313.23C69.27,-1445.72 64.32,-2260.07 227,-2427 247.89,-2448.43 277.17,-2458.99 306.72,-2463.59"/>
<polygon fill="#4a6fa5" stroke="#4a6fa5" points="306.55,-2466.05 313.83,-2464.59 307.23,-2461.19 306.55,-2466.05"/>
</g>
<!-- Node0x63c269ba3a80 -->
<g id="node37" class="node">
<title>Node0x63c269ba3a80</title>
<path fill="#f0f4ff" stroke="black" d="M547.5,-2412C547.5,-2412 299.5,-2412 299.5,-2412 293.5,-2412 287.5,-2406 287.5,-2400 287.5,-2400 287.5,-2388 287.5,-2388 287.5,-2382 293.5,-2376 299.5,-2376 299.5,-2376 547.5,-2376 547.5,-2376 553.5,-2376 559.5,-2382 559.5,-2388 559.5,-2388 559.5,-2400 559.5,-2400 559.5,-2406 553.5,-2412 547.5,-2412"/>
<text text-anchor="middle" x="423.5" y="-2391.8" font-family="Courier,monospace" font-size="9.00">{CIccTagMultiProcessElement::NumOutputChannels()}</text>
</g>
<!-- Node0x63c2699b3480&#45;&gt;Node0x63c269ba3a80 -->
<g id="edge36" class="edge">
<title>Node0x63c2699b3480&#45;&gt;Node0x63c269ba3a80</title>
<path fill="none" stroke="#4a6fa5" d="M71.35,-1313C70.68,-1440.4 73.16,-2205.44 227,-2362 241.67,-2376.93 260.42,-2386.57 280.48,-2392.59"/>
<polygon fill="#4a6fa5" stroke="#4a6fa5" points="279.92,-2394.98 287.32,-2394.5 281.24,-2390.26 279.92,-2394.98"/>
</g>
<!-- Node0x63c26995ec90 -->
<g id="node38" class="node">
<title>Node0x63c26995ec90</title>
<path fill="#f0f4ff" stroke="black" d="M545,-2347C545,-2347 302,-2347 302,-2347 296,-2347 290,-2341 290,-2335 290,-2335 290,-2323 290,-2323 290,-2317 296,-2311 302,-2311 302,-2311 545,-2311 545,-2311 551,-2311 557,-2317 557,-2323 557,-2323 557,-2335 557,-2335 557,-2341 551,-2347 545,-2347"/>
<text text-anchor="middle" x="423.5" y="-2326.8" font-family="Courier,monospace" font-size="9.00">{CIccTagMultiProcessElement::NumInputChannels()}</text>
</g>
<!-- Node0x63c2699b3480&#45;&gt;Node0x63c26995ec90 -->
<g id="edge37" class="edge">
<title>Node0x63c2699b3480&#45;&gt;Node0x63c26995ec90</title>
<path fill="none" stroke="#4a6fa5" d="M71.54,-1313.08C72.17,-1436.21 82.12,-2150.91 227,-2297 242.35,-2312.48 262.09,-2322.26 283.1,-2328.2"/>
<polygon fill="#4a6fa5" stroke="#4a6fa5" points="282.56,-2330.6 289.96,-2330 283.81,-2325.86 282.56,-2330.6"/>
</g>
<!-- Node0x63c269ba54e0 -->
<g id="node39" class="node">
<title>Node0x63c269ba54e0</title>
<path fill="#f0f4ff" stroke="black" d="M461,-2282C461,-2282 386,-2282 386,-2282 380,-2282 374,-2276 374,-2270 374,-2270 374,-2258 374,-2258 374,-2252 380,-2246 386,-2246 386,-2246 461,-2246 461,-2246 467,-2246 473,-2252 473,-2258 473,-2258 473,-2270 473,-2270 473,-2276 467,-2282 461,-2282"/>
<text text-anchor="middle" x="423.5" y="-2261.8" font-family="Courier,monospace" font-size="9.00">{__dynamic_cast}</text>
</g>
<!-- Node0x63c2699b3480&#45;&gt;Node0x63c269ba54e0 -->
<g id="edge38" class="edge">
<title>Node0x63c2699b3480&#45;&gt;Node0x63c269ba54e0</title>
<path fill="none" stroke="#4a6fa5" d="M71.75,-1313.05C73.75,-1431.42 91.01,-2096.31 227,-2232 262.98,-2267.9 322.56,-2273.01 366.51,-2270.93"/>
<polygon fill="#4a6fa5" stroke="#4a6fa5" points="366.85,-2273.36 373.7,-2270.51 366.57,-2268.47 366.85,-2273.36"/>
</g>
<!-- Node0x63c26995e9b0 -->
<g id="node40" class="node">
<title>Node0x63c26995e9b0</title>
<path fill="#f0f4ff" stroke="black" d="M497.5,-2217C497.5,-2217 349.5,-2217 349.5,-2217 343.5,-2217 337.5,-2211 337.5,-2205 337.5,-2205 337.5,-2193 337.5,-2193 337.5,-2187 343.5,-2181 349.5,-2181 349.5,-2181 497.5,-2181 497.5,-2181 503.5,-2181 509.5,-2187 509.5,-2193 509.5,-2193 509.5,-2205 509.5,-2205 509.5,-2211 503.5,-2217 497.5,-2217"/>
<text text-anchor="middle" x="423.5" y="-2196.8" font-family="Courier,monospace" font-size="9.00">{CIccProfile::FindTagOfType()}</text>
</g>
<!-- Node0x63c2699b3480&#45;&gt;Node0x63c26995e9b0 -->
<g id="edge39" class="edge">
<title>Node0x63c2699b3480&#45;&gt;Node0x63c26995e9b0</title>
<path fill="none" stroke="#4a6fa5" d="M71.99,-1313.25C75.47,-1427.35 99.97,-2041.77 227,-2167 253.75,-2193.37 293.26,-2203.07 329.77,-2205.51"/>
<polygon fill="#4a6fa5" stroke="#4a6fa5" points="329.91,-2207.97 337.03,-2205.91 330.17,-2203.08 329.91,-2207.97"/>
</g>
<!-- Node0x63c269960c10 -->
<g id="node41" class="node">
<title>Node0x63c269960c10</title>
<path fill="#f0f4ff" stroke="black" d="M531.5,-115C531.5,-115 315.5,-115 315.5,-115 309.5,-115 303.5,-109 303.5,-103 303.5,-103 303.5,-91 303.5,-91 303.5,-85 309.5,-79 315.5,-79 315.5,-79 531.5,-79 531.5,-79 537.5,-79 543.5,-85 543.5,-91 543.5,-91 543.5,-103 543.5,-103 543.5,-109 537.5,-115 531.5,-115"/>
<text text-anchor="middle" x="423.5" y="-94.8" font-family="Courier,monospace" font-size="9.00">{CIccTagMultiProcessElement::NumElements()}</text>
</g>
<!-- Node0x63c2699b3480&#45;&gt;Node0x63c269960c10 -->
<g id="edge40" class="edge">
<title>Node0x63c2699b3480&#45;&gt;Node0x63c269960c10</title>
<path fill="none" stroke="#4a6fa5" d="M71.42,-1276.91C71.16,-1145.43 75.81,-336.73 227,-158 244.99,-136.73 270.29,-122.77 296.73,-113.63"/>
<polygon fill="#4a6fa5" stroke="#4a6fa5" points="297.59,-115.92 303.47,-111.41 296.06,-111.27 297.59,-115.92"/>
</g>
<!-- Node0x63c269ba6750 -->
<g id="node42" class="node">
<title>Node0x63c269ba6750</title>
<path fill="#f0f4ff" stroke="black" d="M529,-2152C529,-2152 318,-2152 318,-2152 312,-2152 306,-2146 306,-2140 306,-2140 306,-2128 306,-2128 306,-2122 312,-2116 318,-2116 318,-2116 529,-2116 529,-2116 535,-2116 541,-2122 541,-2128 541,-2128 541,-2140 541,-2140 541,-2146 535,-2152 529,-2152"/>
<text text-anchor="middle" x="423.5" y="-2131.8" font-family="Courier,monospace" font-size="9.00">{CIccTagMultiProcessElement::GetElement()}</text>
</g>
<!-- Node0x63c2699b3480&#45;&gt;Node0x63c269ba6750 -->
<g id="edge41" class="edge">
<title>Node0x63c2699b3480&#45;&gt;Node0x63c269ba6750</title>
<path fill="none" stroke="#4a6fa5" d="M72.28,-1313.3C77.31,-1422.48 108.84,-1987.12 227,-2102 246.35,-2120.82 272.22,-2131.1 298.78,-2136.32"/>
<polygon fill="#4a6fa5" stroke="#4a6fa5" points="298.59,-2138.78 305.91,-2137.6 299.45,-2133.95 298.59,-2138.78"/>
</g>
<!-- Node0x63c269bad660 -->
<g id="node50" class="node">
<title>Node0x63c269bad660</title>
<path fill="#f0f4ff" stroke="black" d="M877,-1892C877,-1892 844,-1892 844,-1892 838,-1892 832,-1886 832,-1880 832,-1880 832,-1868 832,-1868 832,-1862 838,-1856 844,-1856 844,-1856 877,-1856 877,-1856 883,-1856 889,-1862 889,-1868 889,-1868 889,-1880 889,-1880 889,-1886 883,-1892 877,-1892"/>
<text text-anchor="middle" x="860.5" y="-1871.8" font-family="Courier,monospace" font-size="9.00">{getenv}</text>
</g>
<!-- Node0x63c269b21b80&#45;&gt;Node0x63c269bad660 -->
<g id="edge49" class="edge">
<title>Node0x63c269b21b80&#45;&gt;Node0x63c269bad660</title>
<path fill="none" stroke="#4a6fa5" d="M470.23,-1874C557.61,-1874 746.54,-1874 824.63,-1874"/>
<polygon fill="#4a6fa5" stroke="#4a6fa5" points="824.84,-1876.45 831.84,-1874 824.84,-1871.55 824.84,-1876.45"/>
</g>
<!-- Node0x63c2699e0900&#45;&gt;Node0x63c269baa8e0 -->
<g id="edge43" class="edge">
<title>Node0x63c2699e0900&#45;&gt;Node0x63c269baa8e0</title>
<path fill="none" stroke="#4a6fa5" d="M480.92,-1498.43C558.85,-1510.07 699.53,-1531.1 785.71,-1543.97"/>
<polygon fill="#4a6fa5" stroke="#4a6fa5" points="785.56,-1546.43 792.85,-1545.04 786.29,-1541.58 785.56,-1546.43"/>
</g>
<!-- Node0x63c269bad2a0 -->
<g id="node43" class="node">
<title>Node0x63c269bad2a0</title>
<path fill="#f0f4ff" stroke="black" d="M877,-1508C877,-1508 844,-1508 844,-1508 838,-1508 832,-1502 832,-1496 832,-1496 832,-1484 832,-1484 832,-1478 838,-1472 844,-1472 844,-1472 877,-1472 877,-1472 883,-1472 889,-1478 889,-1484 889,-1484 889,-1496 889,-1496 889,-1502 883,-1508 877,-1508"/>
<text text-anchor="middle" x="860.5" y="-1487.8" font-family="Courier,monospace" font-size="9.00">{strlen}</text>
</g>
<!-- Node0x63c2699e0900&#45;&gt;Node0x63c269bad2a0 -->
<g id="edge42" class="edge">
<title>Node0x63c2699e0900&#45;&gt;Node0x63c269bad2a0</title>
<path fill="none" stroke="#4a6fa5" d="M480.92,-1490C572.16,-1490 749.42,-1490 824.52,-1490"/>
<polygon fill="#4a6fa5" stroke="#4a6fa5" points="824.89,-1492.45 831.89,-1490 824.89,-1487.55 824.89,-1492.45"/>
</g>
<!-- Node0x63c269baef60 -->
<g id="node46" class="node">
<title>Node0x63c269baef60</title>
<path fill="#f0f4ff" stroke="black" d="M1316.5,-231C1316.5,-231 1199.5,-231 1199.5,-231 1193.5,-231 1187.5,-225 1187.5,-219 1187.5,-219 1187.5,-207 1187.5,-207 1187.5,-201 1193.5,-195 1199.5,-195 1199.5,-195 1316.5,-195 1316.5,-195 1322.5,-195 1328.5,-201 1328.5,-207 1328.5,-207 1328.5,-219 1328.5,-219 1328.5,-225 1322.5,-231 1316.5,-231"/>
<text text-anchor="middle" x="1258" y="-210.8" font-family="Courier,monospace" font-size="9.00">{__clang_call_terminate}</text>
</g>
<!-- Node0x63c269ba79c0&#45;&gt;Node0x63c269baef60 -->
<g id="edge52" class="edge">
<title>Node0x63c269ba79c0&#45;&gt;Node0x63c269baef60</title>
<path fill="none" stroke="#4a6fa5" d="M580.6,-247.12C759.14,-238.12 1044.26,-223.73 1180.14,-216.88"/>
<polygon fill="#4a6fa5" stroke="#4a6fa5" points="1180.42,-219.32 1187.29,-216.52 1180.17,-214.42 1180.42,-219.32"/>
</g>
<!-- Node0x63c269baeba0 -->
<g id="node52" class="node">
<title>Node0x63c269baeba0</title>
<path fill="#f0f4ff" stroke="black" d="M979,-349C979,-349 742,-349 742,-349 736,-349 730,-343 730,-337 730,-337 730,-325 730,-325 730,-319 736,-313 742,-313 742,-313 979,-313 979,-313 985,-313 991,-319 991,-325 991,-325 991,-337 991,-337 991,-343 985,-349 979,-349"/>
<text text-anchor="middle" x="860.5" y="-328.8" font-family="Courier,monospace" font-size="9.00">{std::_List_node&lt;CIccApplyMpePtr&gt;::_M_valptr()}</text>
</g>
<!-- Node0x63c269ba79c0&#45;&gt;Node0x63c269baeba0 -->
<g id="edge51" class="edge">
<title>Node0x63c269ba79c0&#45;&gt;Node0x63c269baeba0</title>
<path fill="none" stroke="#4a6fa5" d="M532.6,-273.04C561.04,-277.84 591.68,-283.07 620,-288 663.76,-295.62 711.98,-304.24 753.61,-311.74"/>
<polygon fill="#4a6fa5" stroke="#4a6fa5" points="753.17,-314.15 760.5,-312.99 754.04,-309.33 753.17,-314.15"/>
</g>
<!-- Node0x63c269ba77c0&#45;&gt;Node0x63c269baa8e0 -->
<g id="edge53" class="edge">
<title>Node0x63c269ba77c0&#45;&gt;Node0x63c269baa8e0</title>
<path fill="none" stroke="#4a6fa5" d="M575.12,-1555C646.33,-1555 728.14,-1555 785.68,-1555"/>
<polygon fill="#4a6fa5" stroke="#4a6fa5" points="785.92,-1557.45 792.92,-1555 785.92,-1552.55 785.92,-1557.45"/>
</g>
<!-- Node0x63c269baee20 -->
<g id="node51" class="node">
<title>Node0x63c269baee20</title>
<path fill="#f0f4ff" stroke="black" d="M1003,-36C1003,-36 718,-36 718,-36 712,-36 706,-30 706,-24 706,-24 706,-12 706,-12 706,-6 712,0 718,0 718,0 1003,0 1003,0 1009,0 1015,-6 1015,-12 1015,-12 1015,-24 1015,-24 1015,-30 1009,-36 1003,-36"/>
<text text-anchor="middle" x="860.5" y="-15.8" font-family="Courier,monospace" font-size="9.00">{std::_List_iterator&lt;CIccApplyMpePtr&gt;::_List_iterator()}</text>
</g>
<!-- Node0x63c269960540&#45;&gt;Node0x63c269baee20 -->
<g id="edge50" class="edge">
<title>Node0x63c269960540&#45;&gt;Node0x63c269baee20</title>
<path fill="none" stroke="#4a6fa5" d="M530.63,-18C581.16,-18 642.68,-18 698.77,-18"/>
<polygon fill="#4a6fa5" stroke="#4a6fa5" points="698.94,-20.45 705.94,-18 698.94,-15.55 698.94,-20.45"/>
</g>
<!-- Node0x63c269baf1e0 -->
<g id="node45" class="node">
<title>Node0x63c269baf1e0</title>
<path fill="#f0f4ff" stroke="black" d="M976.5,-166C976.5,-166 744.5,-166 744.5,-166 738.5,-166 732.5,-160 732.5,-154 732.5,-154 732.5,-142 732.5,-142 732.5,-136 738.5,-130 744.5,-130 744.5,-130 976.5,-130 976.5,-130 982.5,-130 988.5,-136 988.5,-142 988.5,-142 988.5,-154 988.5,-154 988.5,-160 982.5,-166 976.5,-166"/>
<text text-anchor="middle" x="860.5" y="-145.8" font-family="Courier,monospace" font-size="9.00">{std::list&lt;CIccApplyMpePtr &gt;::_M_node_count()}</text>
</g>
<!-- Node0x63c269ba4870&#45;&gt;Node0x63c269baf1e0 -->
<g id="edge45" class="edge">
<title>Node0x63c269ba4870&#45;&gt;Node0x63c269baf1e0</title>
<path fill="none" stroke="#4a6fa5" d="M528.14,-179.99C587.06,-174.3 661.51,-167.12 724.9,-161"/>
<polygon fill="#4a6fa5" stroke="#4a6fa5" points="725.45,-163.4 732.18,-160.29 724.98,-158.53 725.45,-163.4"/>
</g>
<!-- Node0x63c269ba4870&#45;&gt;Node0x63c269baef60 -->
<g id="edge46" class="edge">
<title>Node0x63c269ba4870&#45;&gt;Node0x63c269baef60</title>
<path fill="none" stroke="#4a6fa5" d="M528.25,-192.87C697.84,-197.55 1030.51,-206.74 1180.48,-210.89"/>
<polygon fill="#4a6fa5" stroke="#4a6fa5" points="1180.41,-213.33 1187.48,-211.08 1180.55,-208.44 1180.41,-213.33"/>
</g>
<!-- Node0x63c269bae920 -->
<g id="node44" class="node">
<title>Node0x63c269bae920</title>
<path fill="#f0f4ff" stroke="black" d="M982,-101C982,-101 739,-101 739,-101 733,-101 727,-95 727,-89 727,-89 727,-77 727,-77 727,-71 733,-65 739,-65 739,-65 982,-65 982,-65 988,-65 994,-71 994,-77 994,-77 994,-89 994,-89 994,-95 988,-101 982,-101"/>
<text text-anchor="middle" x="860.5" y="-80.8" font-family="Courier,monospace" font-size="9.00">{std::list&lt;CIccMultiProcessElementPtr &gt;::size()}</text>
</g>
<!-- Node0x63c269960c10&#45;&gt;Node0x63c269bae920 -->
<g id="edge44" class="edge">
<title>Node0x63c269960c10&#45;&gt;Node0x63c269bae920</title>
<path fill="none" stroke="#4a6fa5" d="M543.65,-93.17C598.05,-91.41 662.84,-89.33 719.54,-87.5"/>
<polygon fill="#4a6fa5" stroke="#4a6fa5" points="719.85,-89.95 726.77,-87.27 719.69,-85.05 719.85,-89.95"/>
</g>
<!-- Node0x63c269bae920&#45;&gt;Node0x63c269baef60 -->
<g id="edge55" class="edge">
<title>Node0x63c269bae920&#45;&gt;Node0x63c269baef60</title>
<path fill="none" stroke="#4a6fa5" d="M973.62,-101.11C987.86,-105.14 1001.99,-110.04 1015,-116 1058.56,-135.95 1057.35,-161.26 1101,-181 1125.74,-192.19 1154.46,-199.51 1180.47,-204.27"/>
<polygon fill="#4a6fa5" stroke="#4a6fa5" points="1180.05,-206.68 1187.37,-205.49 1180.9,-201.86 1180.05,-206.68"/>
</g>
<!-- Node0x63c269bafb60 -->
<g id="node54" class="node">
<title>Node0x63c269bafb60</title>
<path fill="#f0f4ff" stroke="black" d="M1403,-101C1403,-101 1113,-101 1113,-101 1107,-101 1101,-95 1101,-89 1101,-89 1101,-77 1101,-77 1101,-71 1107,-65 1113,-65 1113,-65 1403,-65 1403,-65 1409,-65 1415,-71 1415,-77 1415,-77 1415,-89 1415,-89 1415,-95 1409,-101 1403,-101"/>
<text text-anchor="middle" x="1258" y="-80.8" font-family="Courier,monospace" font-size="9.00">{std::list&lt;CIccMultiProcessElementPtr &gt;::_M_node_count()}</text>
</g>
<!-- Node0x63c269bae920&#45;&gt;Node0x63c269bafb60 -->
<g id="edge54" class="edge">
<title>Node0x63c269bae920&#45;&gt;Node0x63c269bafb60</title>
<path fill="none" stroke="#4a6fa5" d="M994.02,-83C1025.98,-83 1060.5,-83 1093.69,-83"/>
<polygon fill="#4a6fa5" stroke="#4a6fa5" points="1093.75,-85.45 1100.75,-83 1093.75,-80.55 1093.75,-85.45"/>
</g>
<!-- Node0x63c269bac6a0 -->
<g id="node55" class="node">
<title>Node0x63c269bac6a0</title>
<path fill="#f0f4ff" stroke="black" d="M1384.5,-166C1384.5,-166 1131.5,-166 1131.5,-166 1125.5,-166 1119.5,-160 1119.5,-154 1119.5,-154 1119.5,-142 1119.5,-142 1119.5,-136 1125.5,-130 1131.5,-130 1131.5,-130 1384.5,-130 1384.5,-130 1390.5,-130 1396.5,-136 1396.5,-142 1396.5,-142 1396.5,-154 1396.5,-154 1396.5,-160 1390.5,-166 1384.5,-166"/>
<text text-anchor="middle" x="1258" y="-145.8" font-family="Courier,monospace" font-size="9.00">{std::_List_base&lt;CIccApplyMpePtr &gt;::_M_get_size()}</text>
</g>
<!-- Node0x63c269baf1e0&#45;&gt;Node0x63c269bac6a0 -->
<g id="edge57" class="edge">
<title>Node0x63c269baf1e0&#45;&gt;Node0x63c269bac6a0</title>
<path fill="none" stroke="#4a6fa5" d="M988.54,-148C1028.05,-148 1071.88,-148 1112.49,-148"/>
<polygon fill="#4a6fa5" stroke="#4a6fa5" points="1112.5,-150.45 1119.5,-148 1112.5,-145.55 1112.5,-150.45"/>
</g>
<!-- Node0x63c269bb1120 -->
<g id="node47" class="node">
<title>Node0x63c269bb1120</title>
<path fill="#f0f4ff" stroke="black" d="M1713.5,-193C1713.5,-193 1623.5,-193 1623.5,-193 1617.5,-193 1611.5,-187 1611.5,-181 1611.5,-181 1611.5,-169 1611.5,-169 1611.5,-163 1617.5,-157 1623.5,-157 1623.5,-157 1713.5,-157 1713.5,-157 1719.5,-157 1725.5,-163 1725.5,-169 1725.5,-169 1725.5,-181 1725.5,-181 1725.5,-187 1719.5,-193 1713.5,-193"/>
<text text-anchor="middle" x="1668.5" y="-172.8" font-family="Courier,monospace" font-size="9.00">{__cxa_begin_catch}</text>
</g>
<!-- Node0x63c269baef60&#45;&gt;Node0x63c269bb1120 -->
<g id="edge47" class="edge">
<title>Node0x63c269baef60&#45;&gt;Node0x63c269bb1120</title>
<path fill="none" stroke="#4a6fa5" d="M1328.76,-206.51C1406.13,-199.31 1529.86,-187.8 1604.43,-180.87"/>
<polygon fill="#4a6fa5" stroke="#4a6fa5" points="1604.75,-183.3 1611.49,-180.21 1604.3,-178.42 1604.75,-183.3"/>
</g>
<!-- Node0x63c269bb04a0 -->
<g id="node48" class="node">
<title>Node0x63c269bb04a0</title>
<path fill="#f0f4ff" stroke="black" d="M1711,-258C1711,-258 1626,-258 1626,-258 1620,-258 1614,-252 1614,-246 1614,-246 1614,-234 1614,-234 1614,-228 1620,-222 1626,-222 1626,-222 1711,-222 1711,-222 1717,-222 1723,-228 1723,-234 1723,-234 1723,-246 1723,-246 1723,-252 1717,-258 1711,-258"/>
<text text-anchor="middle" x="1668.5" y="-237.8" font-family="Courier,monospace" font-size="9.00">{std::terminate()}</text>
</g>
<!-- Node0x63c269baef60&#45;&gt;Node0x63c269bb04a0 -->
<g id="edge48" class="edge">
<title>Node0x63c269baef60&#45;&gt;Node0x63c269bb04a0</title>
<path fill="none" stroke="#4a6fa5" d="M1328.76,-217.61C1407.02,-222.78 1532.69,-231.09 1606.97,-236"/>
<polygon fill="#4a6fa5" stroke="#4a6fa5" points="1606.84,-238.45 1613.99,-236.46 1607.17,-233.56 1606.84,-238.45"/>
</g>
<!-- Node0x63c269baf3e0 -->
<g id="node49" class="node">
<title>Node0x63c269baf3e0</title>
<path fill="#f0f4ff" stroke="black" d="M1824,-101C1824,-101 1513,-101 1513,-101 1507,-101 1501,-95 1501,-89 1501,-89 1501,-77 1501,-77 1501,-71 1507,-65 1513,-65 1513,-65 1824,-65 1824,-65 1830,-65 1836,-71 1836,-77 1836,-77 1836,-89 1836,-89 1836,-95 1830,-101 1824,-101"/>
<text text-anchor="middle" x="1668.5" y="-80.8" font-family="Courier,monospace" font-size="9.00">{std::_List_base&lt;CIccMultiProcessElementPtr &gt;::_M_get_size()}</text>
</g>
<!-- Node0x63c269bab9e0 -->
<g id="node56" class="node">
<title>Node0x63c269bab9e0</title>
<path fill="#f0f4ff" stroke="black" d="M1400.5,-349C1400.5,-349 1115.5,-349 1115.5,-349 1109.5,-349 1103.5,-343 1103.5,-337 1103.5,-337 1103.5,-325 1103.5,-325 1103.5,-319 1109.5,-313 1115.5,-313 1115.5,-313 1400.5,-313 1400.5,-313 1406.5,-313 1412.5,-319 1412.5,-325 1412.5,-325 1412.5,-337 1412.5,-337 1412.5,-343 1406.5,-349 1400.5,-349"/>
<text text-anchor="middle" x="1258" y="-328.8" font-family="Courier,monospace" font-size="9.00">{__gnu_cxx::__aligned_membuf&lt;CIccApplyMpePtr&gt;::_M_ptr()}</text>
</g>
<!-- Node0x63c269baeba0&#45;&gt;Node0x63c269bab9e0 -->
<g id="edge58" class="edge">
<title>Node0x63c269baeba0&#45;&gt;Node0x63c269bab9e0</title>
<path fill="none" stroke="#4a6fa5" d="M991,-331C1024.55,-331 1061.08,-331 1096.03,-331"/>
<polygon fill="#4a6fa5" stroke="#4a6fa5" points="1096.46,-333.45 1103.46,-331 1096.46,-328.55 1096.46,-333.45"/>
</g>
<!-- Node0x63c269bb0220 -->
<g id="node53" class="node">
<title>Node0x63c269bb0220</title>
<path fill="#f0f4ff" stroke="black" d="M123.5,-8556C123.5,-8556 17.5,-8556 17.5,-8556 11.5,-8556 5.5,-8550 5.5,-8544 5.5,-8544 5.5,-8532 5.5,-8532 5.5,-8526 11.5,-8520 17.5,-8520 17.5,-8520 123.5,-8520 123.5,-8520 129.5,-8520 135.5,-8526 135.5,-8532 135.5,-8532 135.5,-8544 135.5,-8544 135.5,-8550 129.5,-8556 123.5,-8556"/>
<text text-anchor="middle" x="70.5" y="-8535.8" font-family="Courier,monospace" font-size="9.00">{__gxx_personality_v0}</text>
</g>
<!-- Node0x63c269bafb60&#45;&gt;Node0x63c269baf3e0 -->
<g id="edge56" class="edge">
<title>Node0x63c269bafb60&#45;&gt;Node0x63c269baf3e0</title>
<path fill="none" stroke="#4a6fa5" d="M1415.18,-83C1440.82,-83 1467.52,-83 1493.55,-83"/>
<polygon fill="#4a6fa5" stroke="#4a6fa5" points="1493.87,-85.45 1500.87,-83 1493.87,-80.55 1493.87,-85.45"/>
</g>
<!-- Node0x63c269bb0560 -->
<g id="node57" class="node">
<title>Node0x63c269bb0560</title>
<path fill="#f0f4ff" stroke="black" d="M1813.5,-349C1813.5,-349 1523.5,-349 1523.5,-349 1517.5,-349 1511.5,-343 1511.5,-337 1511.5,-337 1511.5,-325 1511.5,-325 1511.5,-319 1517.5,-313 1523.5,-313 1523.5,-313 1813.5,-313 1813.5,-313 1819.5,-313 1825.5,-319 1825.5,-325 1825.5,-325 1825.5,-337 1825.5,-337 1825.5,-343 1819.5,-349 1813.5,-349"/>
<text text-anchor="middle" x="1668.5" y="-328.8" font-family="Courier,monospace" font-size="9.00">{__gnu_cxx::__aligned_membuf&lt;CIccApplyMpePtr&gt;::_M_addr()}</text>
</g>
<!-- Node0x63c269bab9e0&#45;&gt;Node0x63c269bb0560 -->
<g id="edge59" class="edge">
<title>Node0x63c269bab9e0&#45;&gt;Node0x63c269bb0560</title>
<path fill="none" stroke="#4a6fa5" d="M1412.56,-331C1442.42,-331 1473.81,-331 1503.97,-331"/>
<polygon fill="#4a6fa5" stroke="#4a6fa5" points="1504.2,-333.45 1511.2,-331 1504.2,-328.55 1504.2,-333.45"/>
</g>
</g>
</svg>
