<?xml version="1.0" encoding="UTF-8" standalone="no"?>
<!DOCTYPE svg PUBLIC "-//W3C//DTD SVG 1.1//EN"
 "http://www.w3.org/Graphics/SVG/1.1/DTD/svg11.dtd">
<!-- Generated by graphviz version 2.43.0 (0)
 -->
<!-- Title: Call graph: /home/h02332/po/research/call&#45;graph/cfl/icc_apply_fuzzer.ll Pages: 1 -->
<svg width="1299pt" height="14400pt"
 viewBox="0.00 0.00 1299.12 14400.00" xmlns="http://www.w3.org/2000/svg" xmlns:xlink="http://www.w3.org/1999/xlink">
<g id="graph0" class="graph" transform="scale(1.89 1.89) rotate(0) translate(36 7579)">
<title>Call graph: /home/h02332/po/research/call&#45;graph/cfl/icc_apply_fuzzer.ll</title>
<polygon fill="white" stroke="transparent" points="-36,36 -36,-7579 651,-7579 651,36 -36,36"/>
<!-- Node0x5ff8cc8dc3f0 -->
<g id="node1" class="node">
<title>Node0x5ff8cc8dc3f0</title>
<path fill="#f0f4ff" stroke="black" d="M129,-621C129,-621 12,-621 12,-621 6,-621 0,-615 0,-609 0,-609 0,-597 0,-597 0,-591 6,-585 12,-585 12,-585 129,-585 129,-585 135,-585 141,-591 141,-597 141,-597 141,-609 141,-609 141,-615 135,-621 129,-621"/>
<text text-anchor="middle" x="70.5" y="-600.8" font-family="Courier,monospace" font-size="9.00">{LLVMFuzzerTestOneInput}</text>
</g>
<!-- Node0x5ff8cc8dbb50 -->
<g id="node2" class="node">
<title>Node0x5ff8cc8dbb50</title>
<path fill="#f0f4ff" stroke="black" d="M345,-1206C345,-1206 276,-1206 276,-1206 270,-1206 264,-1200 264,-1194 264,-1194 264,-1182 264,-1182 264,-1176 270,-1170 276,-1170 276,-1170 345,-1170 345,-1170 351,-1170 357,-1176 357,-1182 357,-1182 357,-1194 357,-1194 357,-1200 351,-1206 345,-1206"/>
<text text-anchor="middle" x="310.5" y="-1185.8" font-family="Courier,monospace" font-size="9.00">{fuzz_tmpdir()}</text>
</g>
<!-- Node0x5ff8cc8dc3f0&#45;&gt;Node0x5ff8cc8dbb50 -->
<g id="edge1" class="edge">
<title>Node0x5ff8cc8dc3f0&#45;&gt;Node0x5ff8cc8dbb50</title>
<path fill="none" stroke="#4a6fa5" d="M71.12,-621C70.52,-696.61 78.13,-992.12 227,-1156 235.12,-1164.94 246.02,-1171.4 257.24,-1176.07"/>
<polygon fill="#4a6fa5" stroke="#4a6fa5" points="256.45,-1178.39 263.87,-1178.62 258.21,-1173.82 256.45,-1178.39"/>
</g>
<!-- Node0x5ff8cc8db860 -->
<g id="node3" class="node">
<title>Node0x5ff8cc8db860</title>
<path fill="#f0f4ff" stroke="black" d="M355.5,-1141C355.5,-1141 265.5,-1141 265.5,-1141 259.5,-1141 253.5,-1135 253.5,-1129 253.5,-1129 253.5,-1117 253.5,-1117 253.5,-1111 259.5,-1105 265.5,-1105 265.5,-1105 355.5,-1105 355.5,-1105 361.5,-1105 367.5,-1111 367.5,-1117 367.5,-1117 367.5,-1129 367.5,-1129 367.5,-1135 361.5,-1141 355.5,-1141"/>
<text text-anchor="middle" x="310.5" y="-1120.8" font-family="Courier,monospace" font-size="9.00">{fuzz_build_path()}</text>
</g>
<!-- Node0x5ff8cc8dc3f0&#45;&gt;Node0x5ff8cc8db860 -->
<g id="edge2" class="edge">
<title>Node0x5ff8cc8dc3f0&#45;&gt;Node0x5ff8cc8db860</title>
<path fill="none" stroke="#4a6fa5" d="M71.93,-621.26C74.56,-691.69 93.3,-948.81 227,-1091 232.67,-1097.03 239.61,-1101.94 247.04,-1105.94"/>
<polygon fill="#4a6fa5" stroke="#4a6fa5" points="246.01,-1108.16 253.37,-1109.08 248.19,-1103.78 246.01,-1108.16"/>
</g>
<!-- Node0x5ff8cc8db7f0 -->
<g id="node4" class="node">
<title>Node0x5ff8cc8db7f0</title>
<path fill="#f0f4ff" stroke="black" d="M329.5,-1076C329.5,-1076 291.5,-1076 291.5,-1076 285.5,-1076 279.5,-1070 279.5,-1064 279.5,-1064 279.5,-1052 279.5,-1052 279.5,-1046 285.5,-1040 291.5,-1040 291.5,-1040 329.5,-1040 329.5,-1040 335.5,-1040 341.5,-1046 341.5,-1052 341.5,-1052 341.5,-1064 341.5,-1064 341.5,-1070 335.5,-1076 329.5,-1076"/>
<text text-anchor="middle" x="310.5" y="-1055.8" font-family="Courier,monospace" font-size="9.00">{mkstemp}</text>
</g>
<!-- Node0x5ff8cc8dc3f0&#45;&gt;Node0x5ff8cc8db7f0 -->
<g id="edge3" class="edge">
<title>Node0x5ff8cc8dc3f0&#45;&gt;Node0x5ff8cc8db7f0</title>
<path fill="none" stroke="#4a6fa5" d="M72.94,-621.03C79.02,-685.16 108.01,-904.88 227,-1026 239.14,-1038.35 256.58,-1046.03 272.31,-1050.76"/>
<polygon fill="#4a6fa5" stroke="#4a6fa5" points="271.99,-1053.21 279.39,-1052.73 273.3,-1048.49 271.99,-1053.21"/>
</g>
<!-- Node0x5ff8cc8dcff0 -->
<g id="node5" class="node">
<title>Node0x5ff8cc8dcff0</title>
<path fill="#f0f4ff" stroke="black" d="M325.5,-1011C325.5,-1011 295.5,-1011 295.5,-1011 289.5,-1011 283.5,-1005 283.5,-999 283.5,-999 283.5,-987 283.5,-987 283.5,-981 289.5,-975 295.5,-975 295.5,-975 325.5,-975 325.5,-975 331.5,-975 337.5,-981 337.5,-987 337.5,-987 337.5,-999 337.5,-999 337.5,-1005 331.5,-1011 325.5,-1011"/>
<text text-anchor="middle" x="310.5" y="-990.8" font-family="Courier,monospace" font-size="9.00">{write}</text>
</g>
<!-- Node0x5ff8cc8dc3f0&#45;&gt;Node0x5ff8cc8dcff0 -->
<g id="edge4" class="edge">
<title>Node0x5ff8cc8dc3f0&#45;&gt;Node0x5ff8cc8dcff0</title>
<path fill="none" stroke="#4a6fa5" d="M74.31,-621.04C84.21,-678.72 122.69,-860.75 227,-961 240.47,-973.95 259.76,-981.81 276.31,-986.51"/>
<polygon fill="#4a6fa5" stroke="#4a6fa5" points="275.81,-988.91 283.2,-988.33 277.06,-984.17 275.81,-988.91"/>
</g>
<!-- Node0x5ff8cc8ddd20 -->
<g id="node6" class="node">
<title>Node0x5ff8cc8ddd20</title>
<path fill="#f0f4ff" stroke="black" d="M325.5,-946C325.5,-946 295.5,-946 295.5,-946 289.5,-946 283.5,-940 283.5,-934 283.5,-934 283.5,-922 283.5,-922 283.5,-916 289.5,-910 295.5,-910 295.5,-910 325.5,-910 325.5,-910 331.5,-910 337.5,-916 337.5,-922 337.5,-922 337.5,-934 337.5,-934 337.5,-940 331.5,-946 325.5,-946"/>
<text text-anchor="middle" x="310.5" y="-925.8" font-family="Courier,monospace" font-size="9.00">{close}</text>
</g>
<!-- Node0x5ff8cc8dc3f0&#45;&gt;Node0x5ff8cc8ddd20 -->
<g id="edge5" class="edge">
<title>Node0x5ff8cc8dc3f0&#45;&gt;Node0x5ff8cc8ddd20</title>
<path fill="none" stroke="#4a6fa5" d="M76.3,-621.28C90.54,-672.05 137.24,-816.25 227,-896 240.87,-908.32 260.01,-916.14 276.36,-920.96"/>
<polygon fill="#4a6fa5" stroke="#4a6fa5" points="275.78,-923.34 283.18,-922.85 277.08,-918.62 275.78,-923.34"/>
</g>
<!-- Node0x5ff8cc8dbfe0 -->
<g id="node7" class="node">
<title>Node0x5ff8cc8dbfe0</title>
<path fill="#f0f4ff" stroke="black" d="M358.5,-881C358.5,-881 262.5,-881 262.5,-881 256.5,-881 250.5,-875 250.5,-869 250.5,-869 250.5,-857 250.5,-857 250.5,-851 256.5,-845 262.5,-845 262.5,-845 358.5,-845 358.5,-845 364.5,-845 370.5,-851 370.5,-857 370.5,-857 370.5,-869 370.5,-869 370.5,-875 364.5,-881 358.5,-881"/>
<text text-anchor="middle" x="310.5" y="-860.8" font-family="Courier,monospace" font-size="9.00">{CIccCmm::CIccCmm()}</text>
</g>
<!-- Node0x5ff8cc8dc3f0&#45;&gt;Node0x5ff8cc8dbfe0 -->
<g id="edge6" class="edge">
<title>Node0x5ff8cc8dc3f0&#45;&gt;Node0x5ff8cc8dbfe0</title>
<path fill="none" stroke="#4a6fa5" d="M79.22,-621.12C98.21,-663.65 151.21,-770.81 227,-831 232.12,-835.07 237.83,-838.67 243.77,-841.85"/>
<polygon fill="#4a6fa5" stroke="#4a6fa5" points="242.95,-844.18 250.31,-845.13 245.15,-839.8 242.95,-844.18"/>
</g>
<!-- Node0x5ff8cc8dd260 -->
<g id="node8" class="node">
<title>Node0x5ff8cc8dd260</title>
<path fill="#f0f4ff" stroke="black" d="M361,-816C361,-816 260,-816 260,-816 254,-816 248,-810 248,-804 248,-804 248,-792 248,-792 248,-786 254,-780 260,-780 260,-780 361,-780 361,-780 367,-780 373,-786 373,-792 373,-792 373,-804 373,-804 373,-810 367,-816 361,-816"/>
<text text-anchor="middle" x="310.5" y="-795.8" font-family="Courier,monospace" font-size="9.00">{CIccCmm::AddXform()}</text>
</g>
<!-- Node0x5ff8cc8dc3f0&#45;&gt;Node0x5ff8cc8dd260 -->
<g id="edge7" class="edge">
<title>Node0x5ff8cc8dc3f0&#45;&gt;Node0x5ff8cc8dd260</title>
<path fill="none" stroke="#4a6fa5" d="M84.47,-621.16C108.91,-654.18 164.91,-724.47 227,-766 232.94,-769.97 239.44,-773.56 246.11,-776.76"/>
<polygon fill="#4a6fa5" stroke="#4a6fa5" points="245.43,-779.15 252.81,-779.84 247.48,-774.7 245.43,-779.15"/>
</g>
<!-- Node0x5ff8cc8dde60 -->
<g id="node9" class="node">
<title>Node0x5ff8cc8dde60</title>
<path fill="#f0f4ff" stroke="black" d="M353,-751C353,-751 268,-751 268,-751 262,-751 256,-745 256,-739 256,-739 256,-727 256,-727 256,-721 262,-715 268,-715 268,-715 353,-715 353,-715 359,-715 365,-721 365,-727 365,-727 365,-739 365,-739 365,-745 359,-751 353,-751"/>
<text text-anchor="middle" x="310.5" y="-730.8" font-family="Courier,monospace" font-size="9.00">{CIccCmm::Begin()}</text>
</g>
<!-- Node0x5ff8cc8dc3f0&#45;&gt;Node0x5ff8cc8dde60 -->
<g id="edge8" class="edge">
<title>Node0x5ff8cc8dc3f0&#45;&gt;Node0x5ff8cc8dde60</title>
<path fill="none" stroke="#4a6fa5" d="M96.75,-621.05C126.8,-642.02 178.97,-676.83 227,-701 234.72,-704.88 243.03,-708.61 251.3,-712.05"/>
<polygon fill="#4a6fa5" stroke="#4a6fa5" points="250.81,-714.5 258.22,-714.88 252.66,-709.96 250.81,-714.5"/>
</g>
<!-- Node0x5ff8cc8dfcc0 -->
<g id="node10" class="node">
<title>Node0x5ff8cc8dfcc0</title>
<path fill="#f0f4ff" stroke="black" d="M353,-686C353,-686 268,-686 268,-686 262,-686 256,-680 256,-674 256,-674 256,-662 256,-662 256,-656 262,-650 268,-650 268,-650 353,-650 353,-650 359,-650 365,-656 365,-662 365,-662 365,-674 365,-674 365,-680 359,-686 353,-686"/>
<text text-anchor="middle" x="310.5" y="-665.8" font-family="Courier,monospace" font-size="9.00">{CIccCmm::Valid()}</text>
</g>
<!-- Node0x5ff8cc8dc3f0&#45;&gt;Node0x5ff8cc8dfcc0 -->
<g id="edge9" class="edge">
<title>Node0x5ff8cc8dc3f0&#45;&gt;Node0x5ff8cc8dfcc0</title>
<path fill="none" stroke="#4a6fa5" d="M137.48,-621.02C172.29,-630.53 214.7,-642.11 248.7,-651.39"/>
<polygon fill="#4a6fa5" stroke="#4a6fa5" points="248.42,-653.86 255.82,-653.34 249.71,-649.13 248.42,-653.86"/>
</g>
<!-- Node0x5ff8cc8de720 -->
<g id="node11" class="node">
<title>Node0x5ff8cc8de720</title>
<path fill="#f0f4ff" stroke="black" d="M327,-621C327,-621 294,-621 294,-621 288,-621 282,-615 282,-609 282,-609 282,-597 282,-597 282,-591 288,-585 294,-585 294,-585 327,-585 327,-585 333,-585 339,-591 339,-597 339,-597 339,-609 339,-609 339,-615 333,-621 327,-621"/>
<text text-anchor="middle" x="310.5" y="-600.8" font-family="Courier,monospace" font-size="9.00">{unlink}</text>
</g>
<!-- Node0x5ff8cc8dc3f0&#45;&gt;Node0x5ff8cc8de720 -->
<g id="edge10" class="edge">
<title>Node0x5ff8cc8dc3f0&#45;&gt;Node0x5ff8cc8de720</title>
<path fill="none" stroke="#4a6fa5" d="M141.3,-603C185.22,-603 240,-603 274.87,-603"/>
<polygon fill="#4a6fa5" stroke="#4a6fa5" points="275,-605.45 282,-603 275,-600.55 275,-605.45"/>
</g>
<!-- Node0x5ff8cc8de520 -->
<g id="node12" class="node">
<title>Node0x5ff8cc8de520</title>
<path fill="#f0f4ff" stroke="black" d="M361,-556C361,-556 260,-556 260,-556 254,-556 248,-550 248,-544 248,-544 248,-532 248,-532 248,-526 254,-520 260,-520 260,-520 361,-520 361,-520 367,-520 373,-526 373,-532 373,-532 373,-544 373,-544 373,-550 367,-556 361,-556"/>
<text text-anchor="middle" x="310.5" y="-535.8" font-family="Courier,monospace" font-size="9.00">{CIccCmm::~CIccCmm()}</text>
</g>
<!-- Node0x5ff8cc8dc3f0&#45;&gt;Node0x5ff8cc8de520 -->
<g id="edge11" class="edge">
<title>Node0x5ff8cc8dc3f0&#45;&gt;Node0x5ff8cc8de520</title>
<path fill="none" stroke="#4a6fa5" d="M137.48,-584.98C169.72,-576.18 208.48,-565.59 241.04,-556.7"/>
<polygon fill="#4a6fa5" stroke="#4a6fa5" points="241.78,-559.03 247.89,-554.83 240.49,-554.31 241.78,-559.03"/>
</g>
<!-- Node0x5ff8cc8e0300 -->
<g id="node13" class="node">
<title>Node0x5ff8cc8e0300</title>
<path fill="#f0f4ff" stroke="black" d="M361,-491C361,-491 260,-491 260,-491 254,-491 248,-485 248,-479 248,-479 248,-467 248,-467 248,-461 254,-455 260,-455 260,-455 361,-455 361,-455 367,-455 373,-461 373,-467 373,-467 373,-479 373,-479 373,-485 367,-491 361,-491"/>
<text text-anchor="middle" x="310.5" y="-470.8" font-family="Courier,monospace" font-size="9.00">{CIccCmm::GetApply()}</text>
</g>
<!-- Node0x5ff8cc8dc3f0&#45;&gt;Node0x5ff8cc8e0300 -->
<g id="edge12" class="edge">
<title>Node0x5ff8cc8dc3f0&#45;&gt;Node0x5ff8cc8e0300</title>
<path fill="none" stroke="#4a6fa5" d="M97.36,-584.88C127.56,-564.19 179.46,-530.1 227,-506 235.41,-501.73 244.52,-497.62 253.5,-493.84"/>
<polygon fill="#4a6fa5" stroke="#4a6fa5" points="254.48,-496.08 260.01,-491.14 252.6,-491.56 254.48,-496.08"/>
</g>
<!-- Node0x5ff8cc8e2320 -->
<g id="node14" class="node">
<title>Node0x5ff8cc8e2320</title>
<path fill="#f0f4ff" stroke="black" d="M371.5,-426C371.5,-426 249.5,-426 249.5,-426 243.5,-426 237.5,-420 237.5,-414 237.5,-414 237.5,-402 237.5,-402 237.5,-396 243.5,-390 249.5,-390 249.5,-390 371.5,-390 371.5,-390 377.5,-390 383.5,-396 383.5,-402 383.5,-402 383.5,-414 383.5,-414 383.5,-420 377.5,-426 371.5,-426"/>
<text text-anchor="middle" x="310.5" y="-405.8" font-family="Courier,monospace" font-size="9.00">{CIccCmm::GetDestSpace()}</text>
</g>
<!-- Node0x5ff8cc8dc3f0&#45;&gt;Node0x5ff8cc8e2320 -->
<g id="edge13" class="edge">
<title>Node0x5ff8cc8dc3f0&#45;&gt;Node0x5ff8cc8e2320</title>
<path fill="none" stroke="#4a6fa5" d="M84.74,-584.76C109.38,-551.95 165.42,-482.52 227,-441 233.46,-436.64 240.59,-432.72 247.87,-429.23"/>
<polygon fill="#4a6fa5" stroke="#4a6fa5" points="249.24,-431.3 254.57,-426.15 247.19,-426.84 249.24,-431.3"/>
</g>
<!-- Node0x5ff8cc8e1ba0 -->
<g id="node15" class="node">
<title>Node0x5ff8cc8e1ba0</title>
<path fill="#f0f4ff" stroke="black" d="M382,-361C382,-361 239,-361 239,-361 233,-361 227,-355 227,-349 227,-349 227,-337 227,-337 227,-331 233,-325 239,-325 239,-325 382,-325 382,-325 388,-325 394,-331 394,-337 394,-337 394,-349 394,-349 394,-355 388,-361 382,-361"/>
<text text-anchor="middle" x="310.5" y="-340.8" font-family="Courier,monospace" font-size="9.00">{CIccCmm::GetSourceSamples()}</text>
</g>
<!-- Node0x5ff8cc8dc3f0&#45;&gt;Node0x5ff8cc8e1ba0 -->
<g id="edge14" class="edge">
<title>Node0x5ff8cc8dc3f0&#45;&gt;Node0x5ff8cc8e1ba0</title>
<path fill="none" stroke="#4a6fa5" d="M79.43,-584.7C98.67,-542.26 151.87,-436.18 227,-376 232.51,-371.59 238.68,-367.7 245.11,-364.29"/>
<polygon fill="#4a6fa5" stroke="#4a6fa5" points="246.44,-366.36 251.6,-361.03 244.25,-361.98 246.44,-366.36"/>
</g>
<!-- Node0x5ff8cc8e16a0 -->
<g id="node16" class="node">
<title>Node0x5ff8cc8e16a0</title>
<path fill="#f0f4ff" stroke="black" d="M376.5,-296C376.5,-296 244.5,-296 244.5,-296 238.5,-296 232.5,-290 232.5,-284 232.5,-284 232.5,-272 232.5,-272 232.5,-266 238.5,-260 244.5,-260 244.5,-260 376.5,-260 376.5,-260 382.5,-260 388.5,-266 388.5,-272 388.5,-272 388.5,-284 388.5,-284 388.5,-290 382.5,-296 376.5,-296"/>
<text text-anchor="middle" x="310.5" y="-275.8" font-family="Courier,monospace" font-size="9.00">{CIccCmm::GetDestSamples()}</text>
</g>
<!-- Node0x5ff8cc8dc3f0&#45;&gt;Node0x5ff8cc8e16a0 -->
<g id="edge15" class="edge">
<title>Node0x5ff8cc8dc3f0&#45;&gt;Node0x5ff8cc8e16a0</title>
<path fill="none" stroke="#4a6fa5" d="M76.37,-584.83C90.77,-534.36 137.84,-390.95 227,-311 231.81,-306.69 237.25,-302.91 242.99,-299.59"/>
<polygon fill="#4a6fa5" stroke="#4a6fa5" points="244.32,-301.66 249.32,-296.18 241.99,-297.35 244.32,-301.66"/>
</g>
<!-- Node0x5ff8cc8e25a0 -->
<g id="node17" class="node">
<title>Node0x5ff8cc8e25a0</title>
<path fill="#f0f4ff" stroke="black" d="M376.5,-231C376.5,-231 244.5,-231 244.5,-231 238.5,-231 232.5,-225 232.5,-219 232.5,-219 232.5,-207 232.5,-207 232.5,-201 238.5,-195 244.5,-195 244.5,-195 376.5,-195 376.5,-195 382.5,-195 388.5,-201 388.5,-207 388.5,-207 388.5,-219 388.5,-219 388.5,-225 382.5,-231 376.5,-231"/>
<text text-anchor="middle" x="310.5" y="-210.8" font-family="Courier,monospace" font-size="9.00">{CIccCmm::GetSourceSpace()}</text>
</g>
<!-- Node0x5ff8cc8dc3f0&#45;&gt;Node0x5ff8cc8e25a0 -->
<g id="edge16" class="edge">
<title>Node0x5ff8cc8dc3f0&#45;&gt;Node0x5ff8cc8e25a0</title>
<path fill="none" stroke="#4a6fa5" d="M74.44,-584.65C84.63,-526.83 123.65,-346.27 227,-246 231.38,-241.75 236.37,-238.03 241.68,-234.77"/>
<polygon fill="#4a6fa5" stroke="#4a6fa5" points="243.17,-236.75 248.05,-231.16 240.75,-232.48 243.17,-236.75"/>
</g>
<!-- Node0x5ff8cc8e0bc0 -->
<g id="node18" class="node">
<title>Node0x5ff8cc8e0bc0</title>
<path fill="#f0f4ff" stroke="black" d="M358.5,-166C358.5,-166 262.5,-166 262.5,-166 256.5,-166 250.5,-160 250.5,-154 250.5,-154 250.5,-142 250.5,-142 250.5,-136 256.5,-130 262.5,-130 262.5,-130 358.5,-130 358.5,-130 364.5,-130 370.5,-136 370.5,-142 370.5,-142 370.5,-154 370.5,-154 370.5,-160 364.5,-166 358.5,-166"/>
<text text-anchor="middle" x="310.5" y="-145.8" font-family="Courier,monospace" font-size="9.00">{llvm.memset.p0.i64}</text>
</g>
<!-- Node0x5ff8cc8dc3f0&#45;&gt;Node0x5ff8cc8e0bc0 -->
<g id="edge17" class="edge">
<title>Node0x5ff8cc8dc3f0&#45;&gt;Node0x5ff8cc8e0bc0</title>
<path fill="none" stroke="#4a6fa5" d="M73.04,-584.61C79.41,-520.21 109.12,-302.16 227,-181 231.92,-175.94 237.72,-171.64 243.92,-167.98"/>
<polygon fill="#4a6fa5" stroke="#4a6fa5" points="245.27,-170.03 250.24,-164.53 242.92,-165.73 245.27,-170.03"/>
</g>
<!-- Node0x5ff8cc8e2820 -->
<g id="node19" class="node">
<title>Node0x5ff8cc8e2820</title>
<path fill="#f0f4ff" stroke="black" d="M371.5,-101C371.5,-101 249.5,-101 249.5,-101 243.5,-101 237.5,-95 237.5,-89 237.5,-89 237.5,-77 237.5,-77 237.5,-71 243.5,-65 249.5,-65 249.5,-65 371.5,-65 371.5,-65 377.5,-65 383.5,-71 383.5,-77 383.5,-77 383.5,-89 383.5,-89 383.5,-95 377.5,-101 371.5,-101"/>
<text text-anchor="middle" x="310.5" y="-80.8" font-family="Courier,monospace" font-size="9.00">{CIccCmm::GetNumXforms()}</text>
</g>
<!-- Node0x5ff8cc8dc3f0&#45;&gt;Node0x5ff8cc8e2820 -->
<g id="edge18" class="edge">
<title>Node0x5ff8cc8dc3f0&#45;&gt;Node0x5ff8cc8e2820</title>
<path fill="none" stroke="#4a6fa5" d="M71.99,-584.82C74.83,-514.69 94.25,-258.59 227,-116 231,-111.7 235.64,-107.95 240.64,-104.68"/>
<polygon fill="#4a6fa5" stroke="#4a6fa5" points="241.92,-106.76 246.65,-101.05 239.39,-102.57 241.92,-106.76"/>
</g>
<!-- Node0x5ff8cc8e20a0 -->
<g id="node20" class="node">
<title>Node0x5ff8cc8e20a0</title>
<path fill="#f0f4ff" stroke="black" d="M353,-36C353,-36 268,-36 268,-36 262,-36 256,-30 256,-24 256,-24 256,-12 256,-12 256,-6 262,0 268,0 268,0 353,0 353,0 359,0 365,-6 365,-12 365,-12 365,-24 365,-24 365,-30 359,-36 353,-36"/>
<text text-anchor="middle" x="310.5" y="-15.8" font-family="Courier,monospace" font-size="9.00">{CIccCmm::Apply()}</text>
</g>
<!-- Node0x5ff8cc8dc3f0&#45;&gt;Node0x5ff8cc8e20a0 -->
<g id="edge19" class="edge">
<title>Node0x5ff8cc8dc3f0&#45;&gt;Node0x5ff8cc8e20a0</title>
<path fill="none" stroke="#4a6fa5" d="M71.18,-584.82C70.82,-509.1 79.37,-215.16 227,-51 233.17,-44.14 240.95,-38.69 249.26,-34.36"/>
<polygon fill="#4a6fa5" stroke="#4a6fa5" points="250.45,-36.5 255.7,-31.26 248.33,-32.09 250.45,-36.5"/>
</g>
<!-- Node0x5ff8cc8e2aa0 -->
<g id="node21" class="node">
<title>Node0x5ff8cc8e2aa0</title>
<path fill="#f0f4ff" stroke="black" d="M564,-1206C564,-1206 531,-1206 531,-1206 525,-1206 519,-1200 519,-1194 519,-1194 519,-1182 519,-1182 519,-1176 525,-1170 531,-1170 531,-1170 564,-1170 564,-1170 570,-1170 576,-1176 576,-1182 576,-1182 576,-1194 576,-1194 576,-1200 570,-1206 564,-1206"/>
<text text-anchor="middle" x="547.5" y="-1185.8" font-family="Courier,monospace" font-size="9.00">{getenv}</text>
</g>
<!-- Node0x5ff8cc8dbb50&#45;&gt;Node0x5ff8cc8e2aa0 -->
<g id="edge20" class="edge">
<title>Node0x5ff8cc8dbb50&#45;&gt;Node0x5ff8cc8e2aa0</title>
<path fill="none" stroke="#4a6fa5" d="M357.09,-1188C402.29,-1188 470.57,-1188 511.62,-1188"/>
<polygon fill="#4a6fa5" stroke="#4a6fa5" points="511.7,-1190.45 518.7,-1188 511.7,-1185.55 511.7,-1190.45"/>
</g>
<!-- Node0x5ff8cc8e3220 -->
<g id="node22" class="node">
<title>Node0x5ff8cc8e3220</title>
<path fill="#f0f4ff" stroke="black" d="M564,-1141C564,-1141 531,-1141 531,-1141 525,-1141 519,-1135 519,-1129 519,-1129 519,-1117 519,-1117 519,-1111 525,-1105 531,-1105 531,-1105 564,-1105 564,-1105 570,-1105 576,-1111 576,-1117 576,-1117 576,-1129 576,-1129 576,-1135 570,-1141 564,-1141"/>
<text text-anchor="middle" x="547.5" y="-1120.8" font-family="Courier,monospace" font-size="9.00">{strlen}</text>
</g>
<!-- Node0x5ff8cc8db860&#45;&gt;Node0x5ff8cc8e3220 -->
<g id="edge21" class="edge">
<title>Node0x5ff8cc8db860&#45;&gt;Node0x5ff8cc8e3220</title>
<path fill="none" stroke="#4a6fa5" d="M367.79,-1123C412.47,-1123 473.54,-1123 511.47,-1123"/>
<polygon fill="#4a6fa5" stroke="#4a6fa5" points="511.74,-1125.45 518.74,-1123 511.74,-1120.55 511.74,-1125.45"/>
</g>
<!-- Node0x5ff8cc8e30e0 -->
<g id="node23" class="node">
<title>Node0x5ff8cc8e30e0</title>
<path fill="#f0f4ff" stroke="black" d="M603,-1076C603,-1076 492,-1076 492,-1076 486,-1076 480,-1070 480,-1064 480,-1064 480,-1052 480,-1052 480,-1046 486,-1040 492,-1040 492,-1040 603,-1040 603,-1040 609,-1040 615,-1046 615,-1052 615,-1052 615,-1064 615,-1064 615,-1070 609,-1076 603,-1076"/>
<text text-anchor="middle" x="547.5" y="-1055.8" font-family="Courier,monospace" font-size="9.00">{llvm.memcpy.p0.p0.i64}</text>
</g>
<!-- Node0x5ff8cc8db860&#45;&gt;Node0x5ff8cc8e30e0 -->
<g id="edge22" class="edge">
<title>Node0x5ff8cc8db860&#45;&gt;Node0x5ff8cc8e30e0</title>
<path fill="none" stroke="#4a6fa5" d="M367.79,-1107.43C399.74,-1098.59 440.07,-1087.44 474.33,-1077.96"/>
<polygon fill="#4a6fa5" stroke="#4a6fa5" points="475,-1080.32 481.1,-1076.09 473.7,-1075.6 475,-1080.32"/>
</g>
<!-- Node0x5ff8cc8e2d20 -->
<g id="node25" class="node">
<title>Node0x5ff8cc8e2d20</title>
<path fill="#f0f4ff" stroke="black" d="M598,-328C598,-328 497,-328 497,-328 491,-328 485,-322 485,-316 485,-316 485,-304 485,-304 485,-298 491,-292 497,-292 497,-292 598,-292 598,-292 604,-292 610,-298 610,-304 610,-304 610,-316 610,-316 610,-322 604,-328 598,-328"/>
<text text-anchor="middle" x="547.5" y="-307.8" font-family="Courier,monospace" font-size="9.00">{icGetSpaceSamples()}</text>
</g>
<!-- Node0x5ff8cc8e1ba0&#45;&gt;Node0x5ff8cc8e2d20 -->
<g id="edge23" class="edge">
<title>Node0x5ff8cc8e1ba0&#45;&gt;Node0x5ff8cc8e2d20</title>
<path fill="none" stroke="#4a6fa5" d="M394.02,-331.41C421.46,-327.56 451.7,-323.31 477.96,-319.62"/>
<polygon fill="#4a6fa5" stroke="#4a6fa5" points="478.31,-322.05 484.9,-318.65 477.63,-317.2 478.31,-322.05"/>
</g>
<!-- Node0x5ff8cc8e16a0&#45;&gt;Node0x5ff8cc8e2d20 -->
<g id="edge24" class="edge">
<title>Node0x5ff8cc8e16a0&#45;&gt;Node0x5ff8cc8e2d20</title>
<path fill="none" stroke="#4a6fa5" d="M388.77,-288.52C417.51,-292.44 449.89,-296.85 477.81,-300.65"/>
<polygon fill="#4a6fa5" stroke="#4a6fa5" points="477.54,-303.08 484.8,-301.6 478.2,-298.23 477.54,-303.08"/>
</g>
<!-- Node0x5ff8cc8e2fa0 -->
<g id="node24" class="node">
<title>Node0x5ff8cc8e2fa0</title>
<path fill="#f0f4ff" stroke="black" d="M123.5,-7543C123.5,-7543 17.5,-7543 17.5,-7543 11.5,-7543 5.5,-7537 5.5,-7531 5.5,-7531 5.5,-7519 5.5,-7519 5.5,-7513 11.5,-7507 17.5,-7507 17.5,-7507 123.5,-7507 123.5,-7507 129.5,-7507 135.5,-7513 135.5,-7519 135.5,-7519 135.5,-7531 135.5,-7531 135.5,-7537 129.5,-7543 123.5,-7543"/>
<text text-anchor="middle" x="70.5" y="-7522.8" font-family="Courier,monospace" font-size="9.00">{__gxx_personality_v0}</text>
</g>
</g>
</svg>
