<?xml version="1.0" encoding="UTF-8" standalone="no"?>
<!DOCTYPE svg PUBLIC "-//W3C//DTD SVG 1.1//EN"
 "http://www.w3.org/Graphics/SVG/1.1/DTD/svg11.dtd">
<!-- Generated by graphviz version 2.43.0 (0)
 -->
<!-- Title: Call graph: /home/h02332/po/research/call&#45;graph/cfl/icc_toxml_fuzzer.ll Pages: 1 -->
<svg width="966pt" height="14400pt"
 viewBox="0.00 0.00 966.30 14400.00" xmlns="http://www.w3.org/2000/svg" xmlns:xlink="http://www.w3.org/1999/xlink">
<g id="graph0" class="graph" transform="scale(1 1) rotate(0) translate(36 14434)">
<title>Call graph: /home/h02332/po/research/call&#45;graph/cfl/icc_toxml_fuzzer.ll</title>
<polygon fill="white" stroke="transparent" points="-36,36 -36,-14434 935,-14434 935,36 -36,36"/>
<!-- Node0x621a5e392e00 -->
<g id="node1" class="node">
<title>Node0x621a5e392e00</title>
<path fill="#f0f4ff" stroke="black" d="M165.5,-1076C165.5,-1076 59.5,-1076 59.5,-1076 53.5,-1076 47.5,-1070 47.5,-1064 47.5,-1064 47.5,-1052 47.5,-1052 47.5,-1046 53.5,-1040 59.5,-1040 59.5,-1040 165.5,-1040 165.5,-1040 171.5,-1040 177.5,-1046 177.5,-1052 177.5,-1052 177.5,-1064 177.5,-1064 177.5,-1070 171.5,-1076 165.5,-1076"/>
<text text-anchor="middle" x="112.5" y="-1055.8" font-family="Courier,monospace" font-size="9.00">{LLVMFuzzerInitialize}</text>
</g>
<!-- Node0x621a5e3934e0 -->
<g id="node2" class="node">
<title>Node0x621a5e3934e0</title>
<path fill="#f0f4ff" stroke="black" d="M480.5,-946C480.5,-946 450.5,-946 450.5,-946 444.5,-946 438.5,-940 438.5,-934 438.5,-934 438.5,-922 438.5,-922 438.5,-916 444.5,-910 450.5,-910 450.5,-910 480.5,-910 480.5,-910 486.5,-910 492.5,-916 492.5,-922 492.5,-922 492.5,-934 492.5,-934 492.5,-940 486.5,-946 480.5,-946"/>
<text text-anchor="middle" x="465.5" y="-925.8" font-family="Courier,monospace" font-size="9.00">{new()}</text>
</g>
<!-- Node0x621a5e392e00&#45;&gt;Node0x621a5e3934e0 -->
<g id="edge1" class="edge">
<title>Node0x621a5e392e00&#45;&gt;Node0x621a5e3934e0</title>
<path fill="none" stroke="#4a6fa5" d="M144.29,-1039.92C182.29,-1018.3 249.47,-982.36 311,-961 351.29,-947.01 399.67,-937.8 431.2,-932.74"/>
<polygon fill="#4a6fa5" stroke="#4a6fa5" points="431.91,-935.11 438.44,-931.61 431.15,-930.27 431.91,-935.11"/>
</g>
<!-- Node0x621a5e3608b0 -->
<g id="node3" class="node">
<title>Node0x621a5e3608b0</title>
<path fill="#f0f4ff" stroke="black" d="M513.5,-1271C513.5,-1271 417.5,-1271 417.5,-1271 411.5,-1271 405.5,-1265 405.5,-1259 405.5,-1259 405.5,-1247 405.5,-1247 405.5,-1241 411.5,-1235 417.5,-1235 417.5,-1235 513.5,-1235 513.5,-1235 519.5,-1235 525.5,-1241 525.5,-1247 525.5,-1247 525.5,-1259 525.5,-1259 525.5,-1265 519.5,-1271 513.5,-1271"/>
<text text-anchor="middle" x="465.5" y="-1250.8" font-family="Courier,monospace" font-size="9.00">{llvm.memset.p0.i64}</text>
</g>
<!-- Node0x621a5e392e00&#45;&gt;Node0x621a5e3608b0 -->
<g id="edge2" class="edge">
<title>Node0x621a5e392e00&#45;&gt;Node0x621a5e3608b0</title>
<path fill="none" stroke="#4a6fa5" d="M129.44,-1076.01C160.68,-1110.07 233.66,-1183.85 311,-1221 338.15,-1234.04 370.49,-1241.78 398.48,-1246.38"/>
<polygon fill="#4a6fa5" stroke="#4a6fa5" points="398.2,-1248.81 405.5,-1247.48 398.96,-1243.97 398.2,-1248.81"/>
</g>
<!-- Node0x621a5e373c60 -->
<g id="node4" class="node">
<title>Node0x621a5e373c60</title>
<path fill="#f0f4ff" stroke="black" d="M566,-1206C566,-1206 365,-1206 365,-1206 359,-1206 353,-1200 353,-1194 353,-1194 353,-1182 353,-1182 353,-1176 359,-1170 365,-1170 365,-1170 566,-1170 566,-1170 572,-1170 578,-1176 578,-1182 578,-1182 578,-1194 578,-1194 578,-1200 572,-1206 566,-1206"/>
<text text-anchor="middle" x="465.5" y="-1185.8" font-family="Courier,monospace" font-size="9.00">{CIccTagXmlFactory::CIccTagXmlFactory()}</text>
</g>
<!-- Node0x621a5e392e00&#45;&gt;Node0x621a5e373c60 -->
<g id="edge3" class="edge">
<title>Node0x621a5e392e00&#45;&gt;Node0x621a5e373c60</title>
<path fill="none" stroke="#4a6fa5" d="M143.9,-1076.16C181.8,-1098.06 249.14,-1134.6 311,-1156 324.38,-1160.63 338.65,-1164.7 352.91,-1168.24"/>
<polygon fill="#4a6fa5" stroke="#4a6fa5" points="352.52,-1170.67 359.9,-1169.94 353.67,-1165.9 352.52,-1170.67"/>
</g>
<!-- Node0x621a5e3848a0 -->
<g id="node5" class="node">
<title>Node0x621a5e3848a0</title>
<path fill="#f0f4ff" stroke="black" d="M542,-1141C542,-1141 389,-1141 389,-1141 383,-1141 377,-1135 377,-1129 377,-1129 377,-1117 377,-1117 377,-1111 383,-1105 389,-1105 389,-1105 542,-1105 542,-1105 548,-1105 554,-1111 554,-1117 554,-1117 554,-1129 554,-1129 554,-1135 548,-1141 542,-1141"/>
<text text-anchor="middle" x="465.5" y="-1120.8" font-family="Courier,monospace" font-size="9.00">{CIccMpeCreator::PushFactory()}</text>
</g>
<!-- Node0x621a5e392e00&#45;&gt;Node0x621a5e3848a0 -->
<g id="edge4" class="edge">
<title>Node0x621a5e392e00&#45;&gt;Node0x621a5e3848a0</title>
<path fill="none" stroke="#4a6fa5" d="M177.88,-1069.92C231.62,-1079.87 308.97,-1094.2 369.78,-1105.46"/>
<polygon fill="#4a6fa5" stroke="#4a6fa5" points="369.41,-1107.88 376.73,-1106.75 370.3,-1103.06 369.41,-1107.88"/>
</g>
<!-- Node0x621a5e35fee0 -->
<g id="node6" class="node">
<title>Node0x621a5e35fee0</title>
<path fill="#f0f4ff" stroke="black" d="M542,-1076C542,-1076 389,-1076 389,-1076 383,-1076 377,-1070 377,-1064 377,-1064 377,-1052 377,-1052 377,-1046 383,-1040 389,-1040 389,-1040 542,-1040 542,-1040 548,-1040 554,-1046 554,-1052 554,-1052 554,-1064 554,-1064 554,-1070 548,-1076 542,-1076"/>
<text text-anchor="middle" x="465.5" y="-1055.8" font-family="Courier,monospace" font-size="9.00">{CIccTagCreator::PushFactory()}</text>
</g>
<!-- Node0x621a5e392e00&#45;&gt;Node0x621a5e35fee0 -->
<g id="edge5" class="edge">
<title>Node0x621a5e392e00&#45;&gt;Node0x621a5e35fee0</title>
<path fill="none" stroke="#4a6fa5" d="M177.88,-1058C231.51,-1058 308.66,-1058 369.41,-1058"/>
<polygon fill="#4a6fa5" stroke="#4a6fa5" points="369.73,-1060.45 376.73,-1058 369.73,-1055.55 369.73,-1060.45"/>
</g>
<!-- Node0x621a5e35bab0 -->
<g id="node7" class="node">
<title>Node0x621a5e35bab0</title>
<path fill="#f0f4ff" stroke="black" d="M566,-1011C566,-1011 365,-1011 365,-1011 359,-1011 353,-1005 353,-999 353,-999 353,-987 353,-987 353,-981 359,-975 365,-975 365,-975 566,-975 566,-975 572,-975 578,-981 578,-987 578,-987 578,-999 578,-999 578,-1005 572,-1011 566,-1011"/>
<text text-anchor="middle" x="465.5" y="-990.8" font-family="Courier,monospace" font-size="9.00">{CIccMpeXmlFactory::CIccMpeXmlFactory()}</text>
</g>
<!-- Node0x621a5e392e00&#45;&gt;Node0x621a5e35bab0 -->
<g id="edge6" class="edge">
<title>Node0x621a5e392e00&#45;&gt;Node0x621a5e35bab0</title>
<path fill="none" stroke="#4a6fa5" d="M177.88,-1046.08C228.75,-1036.66 300.79,-1023.32 359.91,-1012.37"/>
<polygon fill="#4a6fa5" stroke="#4a6fa5" points="360.62,-1014.73 367.06,-1011.04 359.73,-1009.91 360.62,-1014.73"/>
</g>
<!-- Node0x621a5e35c1d0 -->
<g id="node8" class="node">
<title>Node0x621a5e35c1d0</title>
<path fill="#f0f4ff" stroke="black" d="M887,-1271C887,-1271 718,-1271 718,-1271 712,-1271 706,-1265 706,-1259 706,-1259 706,-1247 706,-1247 706,-1241 712,-1235 718,-1235 718,-1235 887,-1235 887,-1235 893,-1235 899,-1241 899,-1247 899,-1247 899,-1259 899,-1259 899,-1265 893,-1271 887,-1271"/>
<text text-anchor="middle" x="802.5" y="-1250.8" font-family="Courier,monospace" font-size="9.00">{IIccTagFactory::IIccTagFactory()}</text>
</g>
<!-- Node0x621a5e373c60&#45;&gt;Node0x621a5e35c1d0 -->
<g id="edge7" class="edge">
<title>Node0x621a5e373c60&#45;&gt;Node0x621a5e35c1d0</title>
<path fill="none" stroke="#4a6fa5" d="M559.37,-1206.02C603.57,-1214.6 656.49,-1224.86 701.57,-1233.61"/>
<polygon fill="#4a6fa5" stroke="#4a6fa5" points="701.11,-1236.02 708.45,-1234.95 702.04,-1231.21 701.11,-1236.02"/>
</g>
<!-- Node0x621a5e3a04d0 -->
<g id="node12" class="node">
<title>Node0x621a5e3a04d0</title>
<path fill="#f0f4ff" stroke="black" d="M879,-1141C879,-1141 726,-1141 726,-1141 720,-1141 714,-1135 714,-1129 714,-1129 714,-1117 714,-1117 714,-1111 720,-1105 726,-1105 726,-1105 879,-1105 879,-1105 885,-1105 891,-1111 891,-1117 891,-1117 891,-1129 891,-1129 891,-1135 885,-1141 879,-1141"/>
<text text-anchor="middle" x="802.5" y="-1120.8" font-family="Courier,monospace" font-size="9.00">{CIccMpeCreator::GetInstance()}</text>
</g>
<!-- Node0x621a5e3848a0&#45;&gt;Node0x621a5e3a04d0 -->
<g id="edge11" class="edge">
<title>Node0x621a5e3848a0&#45;&gt;Node0x621a5e3a04d0</title>
<path fill="none" stroke="#4a6fa5" d="M554.08,-1123C601.01,-1123 658.88,-1123 706.85,-1123"/>
<polygon fill="#4a6fa5" stroke="#4a6fa5" points="706.85,-1125.45 713.85,-1123 706.85,-1120.55 706.85,-1125.45"/>
</g>
<!-- Node0x621a5e3a1560 -->
<g id="node13" class="node">
<title>Node0x621a5e3a1560</title>
<path fill="#f0f4ff" stroke="black" d="M884.5,-1206C884.5,-1206 720.5,-1206 720.5,-1206 714.5,-1206 708.5,-1200 708.5,-1194 708.5,-1194 708.5,-1182 708.5,-1182 708.5,-1176 714.5,-1170 720.5,-1170 720.5,-1170 884.5,-1170 884.5,-1170 890.5,-1170 896.5,-1176 896.5,-1182 896.5,-1182 896.5,-1194 896.5,-1194 896.5,-1200 890.5,-1206 884.5,-1206"/>
<text text-anchor="middle" x="802.5" y="-1185.8" font-family="Courier,monospace" font-size="9.00">{CIccMpeCreator::DoPushFactory()}</text>
</g>
<!-- Node0x621a5e3848a0&#45;&gt;Node0x621a5e3a1560 -->
<g id="edge12" class="edge">
<title>Node0x621a5e3848a0&#45;&gt;Node0x621a5e3a1560</title>
<path fill="none" stroke="#4a6fa5" d="M554.08,-1139.99C599.26,-1148.76 654.57,-1159.49 701.42,-1168.58"/>
<polygon fill="#4a6fa5" stroke="#4a6fa5" points="701.23,-1171.04 708.57,-1169.97 702.17,-1166.23 701.23,-1171.04"/>
</g>
<!-- Node0x621a5e35ba40 -->
<g id="node10" class="node">
<title>Node0x621a5e35ba40</title>
<path fill="#f0f4ff" stroke="black" d="M879,-1011C879,-1011 726,-1011 726,-1011 720,-1011 714,-1005 714,-999 714,-999 714,-987 714,-987 714,-981 720,-975 726,-975 726,-975 879,-975 879,-975 885,-975 891,-981 891,-987 891,-987 891,-999 891,-999 891,-1005 885,-1011 879,-1011"/>
<text text-anchor="middle" x="802.5" y="-990.8" font-family="Courier,monospace" font-size="9.00">{CIccTagCreator::GetInstance()}</text>
</g>
<!-- Node0x621a5e35fee0&#45;&gt;Node0x621a5e35ba40 -->
<g id="edge9" class="edge">
<title>Node0x621a5e35fee0&#45;&gt;Node0x621a5e35ba40</title>
<path fill="none" stroke="#4a6fa5" d="M554.08,-1041.01C601.01,-1031.9 658.88,-1020.67 706.85,-1011.37"/>
<polygon fill="#4a6fa5" stroke="#4a6fa5" points="707.45,-1013.75 713.85,-1010.01 706.51,-1008.93 707.45,-1013.75"/>
</g>
<!-- Node0x621a5e35c5e0 -->
<g id="node11" class="node">
<title>Node0x621a5e35c5e0</title>
<path fill="#f0f4ff" stroke="black" d="M884.5,-1076C884.5,-1076 720.5,-1076 720.5,-1076 714.5,-1076 708.5,-1070 708.5,-1064 708.5,-1064 708.5,-1052 708.5,-1052 708.5,-1046 714.5,-1040 720.5,-1040 720.5,-1040 884.5,-1040 884.5,-1040 890.5,-1040 896.5,-1046 896.5,-1052 896.5,-1052 896.5,-1064 896.5,-1064 896.5,-1070 890.5,-1076 884.5,-1076"/>
<text text-anchor="middle" x="802.5" y="-1055.8" font-family="Courier,monospace" font-size="9.00">{CIccTagCreator::DoPushFactory()}</text>
</g>
<!-- Node0x621a5e35fee0&#45;&gt;Node0x621a5e35c5e0 -->
<g id="edge10" class="edge">
<title>Node0x621a5e35fee0&#45;&gt;Node0x621a5e35c5e0</title>
<path fill="none" stroke="#4a6fa5" d="M554.08,-1058C599.16,-1058 654.34,-1058 701.14,-1058"/>
<polygon fill="#4a6fa5" stroke="#4a6fa5" points="701.27,-1060.45 708.27,-1058 701.27,-1055.55 701.27,-1060.45"/>
</g>
<!-- Node0x621a5e39f2b0 -->
<g id="node9" class="node">
<title>Node0x621a5e39f2b0</title>
<path fill="#f0f4ff" stroke="black" d="M887,-946C887,-946 718,-946 718,-946 712,-946 706,-940 706,-934 706,-934 706,-922 706,-922 706,-916 712,-910 718,-910 718,-910 887,-910 887,-910 893,-910 899,-916 899,-922 899,-922 899,-934 899,-934 899,-940 893,-946 887,-946"/>
<text text-anchor="middle" x="802.5" y="-925.8" font-family="Courier,monospace" font-size="9.00">{IIccMpeFactory::IIccMpeFactory()}</text>
</g>
<!-- Node0x621a5e35bab0&#45;&gt;Node0x621a5e39f2b0 -->
<g id="edge8" class="edge">
<title>Node0x621a5e35bab0&#45;&gt;Node0x621a5e39f2b0</title>
<path fill="none" stroke="#4a6fa5" d="M559.37,-974.98C603.57,-966.4 656.49,-956.14 701.57,-947.39"/>
<polygon fill="#4a6fa5" stroke="#4a6fa5" points="702.04,-949.79 708.45,-946.05 701.11,-944.98 702.04,-949.79"/>
</g>
<!-- Node0x621a5e3a1080 -->
<g id="node14" class="node">
<title>Node0x621a5e3a1080</title>
<path fill="#f0f4ff" stroke="black" d="M171,-588C171,-588 54,-588 54,-588 48,-588 42,-582 42,-576 42,-576 42,-564 42,-564 42,-558 48,-552 54,-552 54,-552 171,-552 171,-552 177,-552 183,-558 183,-564 183,-564 183,-576 183,-576 183,-582 177,-588 171,-588"/>
<text text-anchor="middle" x="112.5" y="-567.8" font-family="Courier,monospace" font-size="9.00">{LLVMFuzzerTestOneInput}</text>
</g>
<!-- Node0x621a5e3a1080&#45;&gt;Node0x621a5e3934e0 -->
<g id="edge13" class="edge">
<title>Node0x621a5e3a1080&#45;&gt;Node0x621a5e3934e0</title>
<path fill="none" stroke="#4a6fa5" d="M118.73,-588C135.91,-643.77 196.21,-814.78 311,-896 346.64,-921.22 397.86,-927.4 431.16,-928.5"/>
<polygon fill="#4a6fa5" stroke="#4a6fa5" points="431.34,-930.95 438.4,-928.66 431.45,-926.05 431.34,-930.95"/>
</g>
<!-- Node0x621a5e3a0c50 -->
<g id="node15" class="node">
<title>Node0x621a5e3a0c50</title>
<path fill="#f0f4ff" stroke="black" d="M524,-491C524,-491 407,-491 407,-491 401,-491 395,-485 395,-479 395,-479 395,-467 395,-467 395,-461 401,-455 407,-455 407,-455 524,-455 524,-455 530,-455 536,-461 536,-467 536,-467 536,-479 536,-479 536,-485 530,-491 524,-491"/>
<text text-anchor="middle" x="465.5" y="-470.8" font-family="Courier,monospace" font-size="9.00">{CIccMemIO::CIccMemIO()}</text>
</g>
<!-- Node0x621a5e3a1080&#45;&gt;Node0x621a5e3a0c50 -->
<g id="edge14" class="edge">
<title>Node0x621a5e3a1080&#45;&gt;Node0x621a5e3a0c50</title>
<path fill="none" stroke="#4a6fa5" d="M163.36,-551.86C203.01,-537.86 260.09,-518.64 311,-505 335.88,-498.34 363.33,-492.23 388.06,-487.17"/>
<polygon fill="#4a6fa5" stroke="#4a6fa5" points="388.58,-489.57 394.96,-485.78 387.61,-484.76 388.58,-489.57"/>
</g>
<!-- Node0x621a5e3a2aa0 -->
<g id="node16" class="node">
<title>Node0x621a5e3a2aa0</title>
<path fill="#f0f4ff" stroke="black" d="M487,-426C487,-426 444,-426 444,-426 438,-426 432,-420 432,-414 432,-414 432,-402 432,-402 432,-396 438,-390 444,-390 444,-390 487,-390 487,-390 493,-390 499,-396 499,-402 499,-402 499,-414 499,-414 499,-420 493,-426 487,-426"/>
<text text-anchor="middle" x="465.5" y="-405.8" font-family="Courier,monospace" font-size="9.00">{delete()}</text>
</g>
<!-- Node0x621a5e3a1080&#45;&gt;Node0x621a5e3a2aa0 -->
<g id="edge15" class="edge">
<title>Node0x621a5e3a1080&#45;&gt;Node0x621a5e3a2aa0</title>
<path fill="none" stroke="#4a6fa5" d="M135.03,-551.81C169.74,-523.46 241.25,-468.98 311,-440 347.93,-424.66 393.01,-416.38 424.74,-412.12"/>
<polygon fill="#4a6fa5" stroke="#4a6fa5" points="425.07,-414.55 431.7,-411.22 424.44,-409.69 425.07,-414.55"/>
</g>
<!-- Node0x621a5e3a3220 -->
<g id="node17" class="node">
<title>Node0x621a5e3a3220</title>
<path fill="#f0f4ff" stroke="black" d="M516,-361C516,-361 415,-361 415,-361 409,-361 403,-355 403,-349 403,-349 403,-337 403,-337 403,-331 409,-325 415,-325 415,-325 516,-325 516,-325 522,-325 528,-331 528,-337 528,-337 528,-349 528,-349 528,-355 522,-361 516,-361"/>
<text text-anchor="middle" x="465.5" y="-340.8" font-family="Courier,monospace" font-size="9.00">{CIccMemIO::Attach()}</text>
</g>
<!-- Node0x621a5e3a1080&#45;&gt;Node0x621a5e3a3220 -->
<g id="edge16" class="edge">
<title>Node0x621a5e3a1080&#45;&gt;Node0x621a5e3a3220</title>
<path fill="none" stroke="#4a6fa5" d="M126.16,-551.75C154.39,-512.55 226.71,-420.21 311,-375 336.88,-361.12 368.2,-353.26 395.78,-348.8"/>
<polygon fill="#4a6fa5" stroke="#4a6fa5" points="396.16,-351.22 402.71,-347.74 395.42,-346.38 396.16,-351.22"/>
</g>
<!-- Node0x621a5e3a2fa0 -->
<g id="node18" class="node">
<title>Node0x621a5e3a2fa0</title>
<path fill="#f0f4ff" stroke="black" d="M550,-231C550,-231 381,-231 381,-231 375,-231 369,-225 369,-219 369,-219 369,-207 369,-207 369,-201 375,-195 381,-195 381,-195 550,-195 550,-195 556,-195 562,-201 562,-207 562,-207 562,-219 562,-219 562,-225 556,-231 550,-231"/>
<text text-anchor="middle" x="465.5" y="-210.8" font-family="Courier,monospace" font-size="9.00">{CIccProfileXml::CIccProfileXml()}</text>
</g>
<!-- Node0x621a5e3a1080&#45;&gt;Node0x621a5e3a2fa0 -->
<g id="edge17" class="edge">
<title>Node0x621a5e3a1080&#45;&gt;Node0x621a5e3a2fa0</title>
<path fill="none" stroke="#4a6fa5" d="M118.87,-551.66C136.26,-495.65 196.68,-325.77 311,-245 325.92,-234.46 343.56,-227.25 361.47,-222.34"/>
<polygon fill="#4a6fa5" stroke="#4a6fa5" points="362.44,-224.62 368.61,-220.51 361.22,-219.87 362.44,-224.62"/>
</g>
<!-- Node0x621a5e3a2d20 -->
<g id="node19" class="node">
<title>Node0x621a5e3a2d20</title>
<path fill="#f0f4ff" stroke="black" d="M521,-881C521,-881 410,-881 410,-881 404,-881 398,-875 398,-869 398,-869 398,-857 398,-857 398,-851 404,-845 410,-845 410,-845 521,-845 521,-845 527,-845 533,-851 533,-857 533,-857 533,-869 533,-869 533,-875 527,-881 521,-881"/>
<text text-anchor="middle" x="465.5" y="-860.8" font-family="Courier,monospace" font-size="9.00">{CIccProfile::Attach()}</text>
</g>
<!-- Node0x621a5e3a1080&#45;&gt;Node0x621a5e3a2d20 -->
<g id="edge18" class="edge">
<title>Node0x621a5e3a1080&#45;&gt;Node0x621a5e3a2d20</title>
<path fill="none" stroke="#4a6fa5" d="M121.51,-588.11C143.82,-636.27 211.61,-768.09 311,-831 334.65,-845.97 364.06,-854.07 390.79,-858.42"/>
<polygon fill="#4a6fa5" stroke="#4a6fa5" points="390.6,-860.87 397.89,-859.49 391.34,-856.02 390.6,-860.87"/>
</g>
<!-- Node0x621a5e3a35e0 -->
<g id="node20" class="node">
<title>Node0x621a5e3a35e0</title>
<path fill="#f0f4ff" stroke="black" d="M605,-816C605,-816 326,-816 326,-816 320,-816 314,-810 314,-804 314,-804 314,-792 314,-792 314,-786 320,-780 326,-780 326,-780 605,-780 605,-780 611,-780 617,-786 617,-792 617,-792 617,-804 617,-804 617,-810 611,-816 605,-816"/>
<text text-anchor="middle" x="465.5" y="-795.8" font-family="Courier,monospace" font-size="9.00">{basic_string&lt;char, std::char_traits &gt;::basic_string()}</text>
</g>
<!-- Node0x621a5e3a1080&#45;&gt;Node0x621a5e3a35e0 -->
<g id="edge19" class="edge">
<title>Node0x621a5e3a1080&#45;&gt;Node0x621a5e3a35e0</title>
<path fill="none" stroke="#4a6fa5" d="M125.92,-588.05C153.96,-627.28 226.34,-720.46 311,-766 319.3,-770.46 328.15,-774.3 337.27,-777.61"/>
<polygon fill="#4a6fa5" stroke="#4a6fa5" points="336.53,-779.95 343.95,-779.92 338.13,-775.32 336.53,-779.95"/>
</g>
<!-- Node0x621a5e3a4340 -->
<g id="node21" class="node">
<title>Node0x621a5e3a4340</title>
<path fill="#f0f4ff" stroke="black" d="M526.5,-751C526.5,-751 404.5,-751 404.5,-751 398.5,-751 392.5,-745 392.5,-739 392.5,-739 392.5,-727 392.5,-727 392.5,-721 398.5,-715 404.5,-715 404.5,-715 526.5,-715 526.5,-715 532.5,-715 538.5,-721 538.5,-727 538.5,-727 538.5,-739 538.5,-739 538.5,-745 532.5,-751 526.5,-751"/>
<text text-anchor="middle" x="465.5" y="-730.8" font-family="Courier,monospace" font-size="9.00">{CIccProfileXml::ToXml()}</text>
</g>
<!-- Node0x621a5e3a1080&#45;&gt;Node0x621a5e3a4340 -->
<g id="edge20" class="edge">
<title>Node0x621a5e3a1080&#45;&gt;Node0x621a5e3a4340</title>
<path fill="none" stroke="#4a6fa5" d="M135.05,-588.14C169.79,-616.42 241.34,-670.8 311,-700 334.22,-709.74 360.67,-716.74 385,-721.72"/>
<polygon fill="#4a6fa5" stroke="#4a6fa5" points="384.79,-724.18 392.14,-723.14 385.75,-719.37 384.79,-724.18"/>
</g>
<!-- Node0x621a5e3a3e40 -->
<g id="node22" class="node">
<title>Node0x621a5e3a3e40</title>
<path fill="#f0f4ff" stroke="black" d="M608,-686C608,-686 323,-686 323,-686 317,-686 311,-680 311,-674 311,-674 311,-662 311,-662 311,-656 317,-650 323,-650 323,-650 608,-650 608,-650 614,-650 620,-656 620,-662 620,-662 620,-674 620,-674 620,-680 614,-686 608,-686"/>
<text text-anchor="middle" x="465.5" y="-665.8" font-family="Courier,monospace" font-size="9.00">{basic_string&lt;char, std::char_traits &gt;::~basic_string()}</text>
</g>
<!-- Node0x621a5e3a1080&#45;&gt;Node0x621a5e3a3e40 -->
<g id="edge21" class="edge">
<title>Node0x621a5e3a1080&#45;&gt;Node0x621a5e3a3e40</title>
<path fill="none" stroke="#4a6fa5" d="M163.38,-588.05C203.05,-602 260.14,-621.2 311,-635 328.53,-639.76 347.34,-644.27 365.58,-648.35"/>
<polygon fill="#4a6fa5" stroke="#4a6fa5" points="365.44,-650.83 372.8,-649.95 366.5,-646.05 365.44,-650.83"/>
</g>
<!-- Node0x621a5e3a4fc0 -->
<g id="node23" class="node">
<title>Node0x621a5e3a4fc0</title>
<path fill="#f0f4ff" stroke="black" d="M505.5,-621C505.5,-621 425.5,-621 425.5,-621 419.5,-621 413.5,-615 413.5,-609 413.5,-609 413.5,-597 413.5,-597 413.5,-591 419.5,-585 425.5,-585 425.5,-585 505.5,-585 505.5,-585 511.5,-585 517.5,-591 517.5,-597 517.5,-597 517.5,-609 517.5,-609 517.5,-615 511.5,-621 505.5,-621"/>
<text text-anchor="middle" x="465.5" y="-600.8" font-family="Courier,monospace" font-size="9.00">{__cxa_end_catch}</text>
</g>
<!-- Node0x621a5e3a1080&#45;&gt;Node0x621a5e3a4fc0 -->
<g id="edge22" class="edge">
<title>Node0x621a5e3a1080&#45;&gt;Node0x621a5e3a4fc0</title>
<path fill="none" stroke="#4a6fa5" d="M183.27,-576.56C248.49,-582.69 344.78,-591.74 406.06,-597.51"/>
<polygon fill="#4a6fa5" stroke="#4a6fa5" points="406.16,-599.98 413.35,-598.19 406.61,-595.1 406.16,-599.98"/>
</g>
<!-- Node0x621a5e3a3bc0 -->
<g id="node24" class="node">
<title>Node0x621a5e3a3bc0</title>
<path fill="#f0f4ff" stroke="black" d="M552.5,-296C552.5,-296 378.5,-296 378.5,-296 372.5,-296 366.5,-290 366.5,-284 366.5,-284 366.5,-272 366.5,-272 366.5,-266 372.5,-260 378.5,-260 378.5,-260 552.5,-260 552.5,-260 558.5,-260 564.5,-266 564.5,-272 564.5,-272 564.5,-284 564.5,-284 564.5,-290 558.5,-296 552.5,-296"/>
<text text-anchor="middle" x="465.5" y="-275.8" font-family="Courier,monospace" font-size="9.00">{CIccProfileXml::~CIccProfileXml()}</text>
</g>
<!-- Node0x621a5e3a1080&#45;&gt;Node0x621a5e3a3bc0 -->
<g id="edge23" class="edge">
<title>Node0x621a5e3a1080&#45;&gt;Node0x621a5e3a3bc0</title>
<path fill="none" stroke="#4a6fa5" d="M121.53,-551.96C143.89,-503.98 211.79,-372.66 311,-310 325.63,-300.76 342.46,-294.14 359.49,-289.4"/>
<polygon fill="#4a6fa5" stroke="#4a6fa5" points="360.13,-291.76 366.28,-287.61 358.89,-287.02 360.13,-291.76"/>
</g>
<!-- Node0x621a5e3a45c0 -->
<g id="node25" class="node">
<title>Node0x621a5e3a45c0</title>
<path fill="#f0f4ff" stroke="black" d="M510.5,-556C510.5,-556 420.5,-556 420.5,-556 414.5,-556 408.5,-550 408.5,-544 408.5,-544 408.5,-532 408.5,-532 408.5,-526 414.5,-520 420.5,-520 420.5,-520 510.5,-520 510.5,-520 516.5,-520 522.5,-526 522.5,-532 522.5,-532 522.5,-544 522.5,-544 522.5,-550 516.5,-556 510.5,-556"/>
<text text-anchor="middle" x="465.5" y="-535.8" font-family="Courier,monospace" font-size="9.00">{__cxa_begin_catch}</text>
</g>
<!-- Node0x621a5e3a1080&#45;&gt;Node0x621a5e3a45c0 -->
<g id="edge24" class="edge">
<title>Node0x621a5e3a1080&#45;&gt;Node0x621a5e3a45c0</title>
<path fill="none" stroke="#4a6fa5" d="M183.27,-563.64C246.76,-557.85 339.69,-549.38 401.11,-543.78"/>
<polygon fill="#4a6fa5" stroke="#4a6fa5" points="401.69,-546.19 408.44,-543.11 401.25,-541.31 401.69,-546.19"/>
</g>
<!-- Node0x621a5e3a4980 -->
<g id="node27" class="node">
<title>Node0x621a5e3a4980</title>
<path fill="#f0f4ff" stroke="black" d="M871.5,-231C871.5,-231 733.5,-231 733.5,-231 727.5,-231 721.5,-225 721.5,-219 721.5,-219 721.5,-207 721.5,-207 721.5,-201 727.5,-195 733.5,-195 733.5,-195 871.5,-195 871.5,-195 877.5,-195 883.5,-201 883.5,-207 883.5,-207 883.5,-219 883.5,-219 883.5,-225 877.5,-231 871.5,-231"/>
<text text-anchor="middle" x="802.5" y="-210.8" font-family="Courier,monospace" font-size="9.00">{CIccProfile::CIccProfile()}</text>
</g>
<!-- Node0x621a5e3a2fa0&#45;&gt;Node0x621a5e3a4980 -->
<g id="edge25" class="edge">
<title>Node0x621a5e3a2fa0&#45;&gt;Node0x621a5e3a4980</title>
<path fill="none" stroke="#4a6fa5" d="M562.05,-213C609.97,-213 667.59,-213 714.29,-213"/>
<polygon fill="#4a6fa5" stroke="#4a6fa5" points="714.4,-215.45 721.4,-213 714.4,-210.55 714.4,-215.45"/>
</g>
<!-- Node0x621a5e3a5600 -->
<g id="node28" class="node">
<title>Node0x621a5e3a5600</title>
<path fill="#f0f4ff" stroke="black" d="M874,-296C874,-296 731,-296 731,-296 725,-296 719,-290 719,-284 719,-284 719,-272 719,-272 719,-266 725,-260 731,-260 731,-260 874,-260 874,-260 880,-260 886,-266 886,-272 886,-272 886,-284 886,-284 886,-290 880,-296 874,-296"/>
<text text-anchor="middle" x="802.5" y="-275.8" font-family="Courier,monospace" font-size="9.00">{CIccProfile::~CIccProfile()}</text>
</g>
<!-- Node0x621a5e3a3bc0&#45;&gt;Node0x621a5e3a5600 -->
<g id="edge26" class="edge">
<title>Node0x621a5e3a3bc0&#45;&gt;Node0x621a5e3a5600</title>
<path fill="none" stroke="#4a6fa5" d="M564.75,-278C611.2,-278 666.29,-278 711.63,-278"/>
<polygon fill="#4a6fa5" stroke="#4a6fa5" points="711.82,-280.45 718.82,-278 711.82,-275.55 711.82,-280.45"/>
</g>
<!-- Node0x621a5e3a4d40 -->
<g id="node26" class="node">
<title>Node0x621a5e3a4d40</title>
<path fill="#f0f4ff" stroke="black" d="M165.5,-7283C165.5,-7283 59.5,-7283 59.5,-7283 53.5,-7283 47.5,-7277 47.5,-7271 47.5,-7271 47.5,-7259 47.5,-7259 47.5,-7253 53.5,-7247 59.5,-7247 59.5,-7247 165.5,-7247 165.5,-7247 171.5,-7247 177.5,-7253 177.5,-7259 177.5,-7259 177.5,-7271 177.5,-7271 177.5,-7277 171.5,-7283 165.5,-7283"/>
<text text-anchor="middle" x="112.5" y="-7262.8" font-family="Courier,monospace" font-size="9.00">{__gxx_personality_v0}</text>
</g>
<!-- Node0x621a5e3a4a40 -->
<g id="node29" class="node">
<title>Node0x621a5e3a4a40</title>
<path fill="#f0f4ff" stroke="black" d="M199.5,-10419C199.5,-10419 25.5,-10419 25.5,-10419 19.5,-10419 13.5,-10413 13.5,-10407 13.5,-10407 13.5,-10395 13.5,-10395 13.5,-10389 19.5,-10383 25.5,-10383 25.5,-10383 199.5,-10383 199.5,-10383 205.5,-10383 211.5,-10389 211.5,-10395 211.5,-10395 211.5,-10407 211.5,-10407 211.5,-10413 205.5,-10419 199.5,-10419"/>
<text text-anchor="middle" x="112.5" y="-10398.8" font-family="Courier,monospace" font-size="9.00">{IIccTagFactory::~IIccTagFactory()}</text>
</g>
<!-- Node0x621a5e3a4cc0 -->
<g id="node30" class="node">
<title>Node0x621a5e3a4cc0</title>
<path fill="#f0f4ff" stroke="black" d="M199.5,-12084C199.5,-12084 25.5,-12084 25.5,-12084 19.5,-12084 13.5,-12078 13.5,-12072 13.5,-12072 13.5,-12060 13.5,-12060 13.5,-12054 19.5,-12048 25.5,-12048 25.5,-12048 199.5,-12048 199.5,-12048 205.5,-12048 211.5,-12054 211.5,-12060 211.5,-12060 211.5,-12072 211.5,-12072 211.5,-12078 205.5,-12084 199.5,-12084"/>
<text text-anchor="middle" x="112.5" y="-12063.8" font-family="Courier,monospace" font-size="9.00">{IIccTagFactory::~IIccTagFactory()}</text>
</g>
<!-- Node0x621a5e3a4f40 -->
<g id="node31" class="node">
<title>Node0x621a5e3a4f40</title>
<path fill="#f0f4ff" stroke="black" d="M489.5,-12052C489.5,-12052 441.5,-12052 441.5,-12052 435.5,-12052 429.5,-12046 429.5,-12040 429.5,-12040 429.5,-12028 429.5,-12028 429.5,-12022 435.5,-12016 441.5,-12016 441.5,-12016 489.5,-12016 489.5,-12016 495.5,-12016 501.5,-12022 501.5,-12028 501.5,-12028 501.5,-12040 501.5,-12040 501.5,-12046 495.5,-12052 489.5,-12052"/>
<text text-anchor="middle" x="465.5" y="-12031.8" font-family="Courier,monospace" font-size="9.00">{llvm.trap}</text>
</g>
<!-- Node0x621a5e3a4cc0&#45;&gt;Node0x621a5e3a4f40 -->
<g id="edge27" class="edge">
<title>Node0x621a5e3a4cc0&#45;&gt;Node0x621a5e3a4f40</title>
<path fill="none" stroke="#4a6fa5" d="M211.74,-12057.04C281.08,-12050.72 370.53,-12042.57 422.31,-12037.85"/>
<polygon fill="#4a6fa5" stroke="#4a6fa5" points="422.61,-12040.28 429.36,-12037.2 422.17,-12035.4 422.61,-12040.28"/>
</g>
<!-- Node0x621a5e3a6df0 -->
<g id="node32" class="node">
<title>Node0x621a5e3a6df0</title>
<path fill="#f0f4ff" stroke="black" d="M160.5,-12917C160.5,-12917 64.5,-12917 64.5,-12917 58.5,-12917 52.5,-12911 52.5,-12905 52.5,-12905 52.5,-12893 52.5,-12893 52.5,-12887 58.5,-12881 64.5,-12881 64.5,-12881 160.5,-12881 160.5,-12881 166.5,-12881 172.5,-12887 172.5,-12893 172.5,-12893 172.5,-12905 172.5,-12905 172.5,-12911 166.5,-12917 160.5,-12917"/>
<text text-anchor="middle" x="112.5" y="-12896.8" font-family="Courier,monospace" font-size="9.00">{__cxa_pure_virtual}</text>
</g>
<!-- Node0x621a5e3a80b0 -->
<g id="node33" class="node">
<title>Node0x621a5e3a80b0</title>
<path fill="#f0f4ff" stroke="black" d="M199.5,-13366C199.5,-13366 25.5,-13366 25.5,-13366 19.5,-13366 13.5,-13360 13.5,-13354 13.5,-13354 13.5,-13342 13.5,-13342 13.5,-13336 19.5,-13330 25.5,-13330 25.5,-13330 199.5,-13330 199.5,-13330 205.5,-13330 211.5,-13336 211.5,-13342 211.5,-13342 211.5,-13354 211.5,-13354 211.5,-13360 205.5,-13366 199.5,-13366"/>
<text text-anchor="middle" x="112.5" y="-13345.8" font-family="Courier,monospace" font-size="9.00">{IIccMpeFactory::~IIccMpeFactory()}</text>
</g>
<!-- Node0x621a5e3a7a70 -->
<g id="node34" class="node">
<title>Node0x621a5e3a7a70</title>
<path fill="#f0f4ff" stroke="black" d="M199.5,-12019C199.5,-12019 25.5,-12019 25.5,-12019 19.5,-12019 13.5,-12013 13.5,-12007 13.5,-12007 13.5,-11995 13.5,-11995 13.5,-11989 19.5,-11983 25.5,-11983 25.5,-11983 199.5,-11983 199.5,-11983 205.5,-11983 211.5,-11989 211.5,-11995 211.5,-11995 211.5,-12007 211.5,-12007 211.5,-12013 205.5,-12019 199.5,-12019"/>
<text text-anchor="middle" x="112.5" y="-11998.8" font-family="Courier,monospace" font-size="9.00">{IIccMpeFactory::~IIccMpeFactory()}</text>
</g>
<!-- Node0x621a5e3a7a70&#45;&gt;Node0x621a5e3a4f40 -->
<g id="edge28" class="edge">
<title>Node0x621a5e3a7a70&#45;&gt;Node0x621a5e3a4f40</title>
<path fill="none" stroke="#4a6fa5" d="M211.74,-12010.24C281.08,-12016.76 370.53,-12025.17 422.31,-12030.03"/>
<polygon fill="#4a6fa5" stroke="#4a6fa5" points="422.16,-12032.48 429.36,-12030.7 422.62,-12027.6 422.16,-12032.48"/>
</g>
<!-- Node0x621a5e3a7430 -->
<g id="node35" class="node">
<title>Node0x621a5e3a7430</title>
<path fill="#f0f4ff" stroke="black" d="M199.5,-264C199.5,-264 25.5,-264 25.5,-264 19.5,-264 13.5,-258 13.5,-252 13.5,-252 13.5,-240 13.5,-240 13.5,-234 19.5,-228 25.5,-228 25.5,-228 199.5,-228 199.5,-228 205.5,-228 211.5,-234 211.5,-240 211.5,-240 211.5,-252 211.5,-252 211.5,-258 205.5,-264 199.5,-264"/>
<text text-anchor="middle" x="112.5" y="-243.8" font-family="Courier,monospace" font-size="9.00">{CIccProfileXml::~CIccProfileXml()}</text>
</g>
<!-- Node0x621a5e3a7430&#45;&gt;Node0x621a5e3a3bc0 -->
<g id="edge29" class="edge">
<title>Node0x621a5e3a7430&#45;&gt;Node0x621a5e3a3bc0</title>
<path fill="none" stroke="#4a6fa5" d="M211.74,-254.96C257.65,-259.14 312.38,-264.13 359.15,-268.4"/>
<polygon fill="#4a6fa5" stroke="#4a6fa5" points="359.09,-270.85 366.28,-269.05 359.54,-265.97 359.09,-270.85"/>
</g>
<!-- Node0x621a5e3a9df0 -->
<g id="node36" class="node">
<title>Node0x621a5e3a9df0</title>
<path fill="#f0f4ff" stroke="black" d="M487,-166C487,-166 444,-166 444,-166 438,-166 432,-160 432,-154 432,-154 432,-142 432,-142 432,-136 438,-130 444,-130 444,-130 487,-130 487,-130 493,-130 499,-136 499,-142 499,-142 499,-154 499,-154 499,-160 493,-166 487,-166"/>
<text text-anchor="middle" x="465.5" y="-145.8" font-family="Courier,monospace" font-size="9.00">{delete()}</text>
</g>
<!-- Node0x621a5e3a7430&#45;&gt;Node0x621a5e3a9df0 -->
<g id="edge30" class="edge">
<title>Node0x621a5e3a7430&#45;&gt;Node0x621a5e3a9df0</title>
<path fill="none" stroke="#4a6fa5" d="M162.12,-227.98C201.8,-213.71 259.52,-193.92 311,-180 349.2,-169.67 393.5,-160.76 424.67,-154.98"/>
<polygon fill="#4a6fa5" stroke="#4a6fa5" points="425.46,-157.33 431.9,-153.65 424.57,-152.51 425.46,-157.33"/>
</g>
<!-- Node0x621a5e3abfb0 -->
<g id="node37" class="node">
<title>Node0x621a5e3abfb0</title>
<path fill="#f0f4ff" stroke="black" d="M213,-13753C213,-13753 12,-13753 12,-13753 6,-13753 0,-13747 0,-13741 0,-13741 0,-13729 0,-13729 0,-13723 6,-13717 12,-13717 12,-13717 213,-13717 213,-13717 219,-13717 225,-13723 225,-13729 225,-13729 225,-13741 225,-13741 225,-13747 219,-13753 213,-13753"/>
<text text-anchor="middle" x="112.5" y="-13732.8" font-family="Courier,monospace" font-size="9.00">{CIccProfile::getPccViewingConditions()}</text>
</g>
<!-- Node0x621a5e3abbf0 -->
<g id="node38" class="node">
<title>Node0x621a5e3abbf0</title>
<path fill="#f0f4ff" stroke="black" d="M539.5,-13688C539.5,-13688 391.5,-13688 391.5,-13688 385.5,-13688 379.5,-13682 379.5,-13676 379.5,-13676 379.5,-13664 379.5,-13664 379.5,-13658 385.5,-13652 391.5,-13652 391.5,-13652 539.5,-13652 539.5,-13652 545.5,-13652 551.5,-13658 551.5,-13664 551.5,-13664 551.5,-13676 551.5,-13676 551.5,-13682 545.5,-13688 539.5,-13688"/>
<text text-anchor="middle" x="465.5" y="-13667.8" font-family="Courier,monospace" font-size="9.00">{CIccProfile::FindTagOfType()}</text>
</g>
<!-- Node0x621a5e3abfb0&#45;&gt;Node0x621a5e3abbf0 -->
<g id="edge31" class="edge">
<title>Node0x621a5e3abfb0&#45;&gt;Node0x621a5e3abbf0</title>
<path fill="none" stroke="#4a6fa5" d="M210.81,-13716.98C261.28,-13707.63 322.61,-13696.28 372.32,-13687.07"/>
<polygon fill="#4a6fa5" stroke="#4a6fa5" points="372.82,-13689.47 379.25,-13685.79 371.93,-13684.65 372.82,-13689.47"/>
</g>
<!-- Node0x621a5e3ab5b0 -->
<g id="node39" class="node">
<title>Node0x621a5e3ab5b0</title>
<path fill="#f0f4ff" stroke="black" d="M210,-13688C210,-13688 15,-13688 15,-13688 9,-13688 3,-13682 3,-13676 3,-13676 3,-13664 3,-13664 3,-13658 9,-13652 15,-13652 15,-13652 210,-13652 210,-13652 216,-13652 222,-13658 222,-13664 222,-13664 222,-13676 222,-13676 222,-13682 216,-13688 210,-13688"/>
<text text-anchor="middle" x="112.5" y="-13667.8" font-family="Courier,monospace" font-size="9.00">{CIccProfile::getCustomToStandardPcc()}</text>
</g>
<!-- Node0x621a5e3ab5b0&#45;&gt;Node0x621a5e3abbf0 -->
<g id="edge32" class="edge">
<title>Node0x621a5e3ab5b0&#45;&gt;Node0x621a5e3abbf0</title>
<path fill="none" stroke="#4a6fa5" d="M222.15,-13670C270.32,-13670 326.38,-13670 372.44,-13670"/>
<polygon fill="#4a6fa5" stroke="#4a6fa5" points="372.46,-13672.45 379.46,-13670 372.46,-13667.55 372.46,-13672.45"/>
</g>
<!-- Node0x621a5e3a9a30 -->
<g id="node40" class="node">
<title>Node0x621a5e3a9a30</title>
<path fill="#f0f4ff" stroke="black" d="M210,-13623C210,-13623 15,-13623 15,-13623 9,-13623 3,-13617 3,-13611 3,-13611 3,-13599 3,-13599 3,-13593 9,-13587 15,-13587 15,-13587 210,-13587 210,-13587 216,-13587 222,-13593 222,-13599 222,-13599 222,-13611 222,-13611 222,-13617 216,-13623 210,-13623"/>
<text text-anchor="middle" x="112.5" y="-13602.8" font-family="Courier,monospace" font-size="9.00">{CIccProfile::getStandardToCustomPcc()}</text>
</g>
<!-- Node0x621a5e3a9a30&#45;&gt;Node0x621a5e3abbf0 -->
<g id="edge33" class="edge">
<title>Node0x621a5e3a9a30&#45;&gt;Node0x621a5e3abbf0</title>
<path fill="none" stroke="#4a6fa5" d="M210.81,-13623.02C261.28,-13632.37 322.61,-13643.72 372.32,-13652.93"/>
<polygon fill="#4a6fa5" stroke="#4a6fa5" points="371.93,-13655.35 379.25,-13654.21 372.82,-13650.53 371.93,-13655.35"/>
</g>
<!-- Node0x621a5e3adc70 -->
<g id="node41" class="node">
<title>Node0x621a5e3adc70</title>
<path fill="#f0f4ff" stroke="black" d="M205,-13914C205,-13914 20,-13914 20,-13914 14,-13914 8,-13908 8,-13902 8,-13902 8,-13890 8,-13890 8,-13884 14,-13878 20,-13878 20,-13878 205,-13878 205,-13878 211,-13878 217,-13884 217,-13890 217,-13890 217,-13902 217,-13902 217,-13908 211,-13914 205,-13914"/>
<text text-anchor="middle" x="112.5" y="-13893.8" font-family="Courier,monospace" font-size="9.00">{CIccProfile::getNormIlluminantXYZ()}</text>
</g>
<!-- Node0x621a5e3ad8b0 -->
<g id="node42" class="node">
<title>Node0x621a5e3ad8b0</title>
<path fill="#f0f4ff" stroke="black" d="M202.5,-14027C202.5,-14027 22.5,-14027 22.5,-14027 16.5,-14027 10.5,-14021 10.5,-14015 10.5,-14015 10.5,-14003 10.5,-14003 10.5,-13997 16.5,-13991 22.5,-13991 22.5,-13991 202.5,-13991 202.5,-13991 208.5,-13991 214.5,-13997 214.5,-14003 214.5,-14003 214.5,-14015 214.5,-14015 214.5,-14021 208.5,-14027 202.5,-14027"/>
<text text-anchor="middle" x="112.5" y="-14006.8" font-family="Courier,monospace" font-size="9.00">{CIccProfile::getLumIlluminantXYZ()}</text>
</g>
<!-- Node0x621a5e3ad630 -->
<g id="node43" class="node">
<title>Node0x621a5e3ad630</title>
<path fill="#f0f4ff" stroke="black" d="M194.5,-14116C194.5,-14116 30.5,-14116 30.5,-14116 24.5,-14116 18.5,-14110 18.5,-14104 18.5,-14104 18.5,-14092 18.5,-14092 18.5,-14086 24.5,-14080 30.5,-14080 30.5,-14080 194.5,-14080 194.5,-14080 200.5,-14080 206.5,-14086 206.5,-14092 206.5,-14092 206.5,-14104 206.5,-14104 206.5,-14110 200.5,-14116 194.5,-14116"/>
<text text-anchor="middle" x="112.5" y="-14095.8" font-family="Courier,monospace" font-size="9.00">{CIccProfile::getMediaWhiteXYZ()}</text>
</g>
<!-- Node0x621a5e3aceb0 -->
<g id="node44" class="node">
<title>Node0x621a5e3aceb0</title>
<path fill="#f0f4ff" stroke="black" d="M178.5,-101C178.5,-101 46.5,-101 46.5,-101 40.5,-101 34.5,-95 34.5,-89 34.5,-89 34.5,-77 34.5,-77 34.5,-71 40.5,-65 46.5,-65 46.5,-65 178.5,-65 178.5,-65 184.5,-65 190.5,-71 190.5,-77 190.5,-77 190.5,-89 190.5,-89 190.5,-95 184.5,-101 178.5,-101"/>
<text text-anchor="middle" x="112.5" y="-80.8" font-family="Courier,monospace" font-size="9.00">{CIccProfileXml::NewCopy()}</text>
</g>
<!-- Node0x621a5e3aceb0&#45;&gt;Node0x621a5e3a9df0 -->
<g id="edge36" class="edge">
<title>Node0x621a5e3aceb0&#45;&gt;Node0x621a5e3a9df0</title>
<path fill="none" stroke="#4a6fa5" d="M190.53,-97.26C262.91,-110.67 368.32,-130.19 424.97,-140.68"/>
<polygon fill="#4a6fa5" stroke="#4a6fa5" points="424.64,-143.11 431.97,-141.98 425.53,-138.29 424.64,-143.11"/>
</g>
<!-- Node0x621a5e3a5580 -->
<g id="node45" class="node">
<title>Node0x621a5e3a5580</title>
<path fill="#f0f4ff" stroke="black" d="M480.5,-101C480.5,-101 450.5,-101 450.5,-101 444.5,-101 438.5,-95 438.5,-89 438.5,-89 438.5,-77 438.5,-77 438.5,-71 444.5,-65 450.5,-65 450.5,-65 480.5,-65 480.5,-65 486.5,-65 492.5,-71 492.5,-77 492.5,-77 492.5,-89 492.5,-89 492.5,-95 486.5,-101 480.5,-101"/>
<text text-anchor="middle" x="465.5" y="-80.8" font-family="Courier,monospace" font-size="9.00">{new()}</text>
</g>
<!-- Node0x621a5e3aceb0&#45;&gt;Node0x621a5e3a5580 -->
<g id="edge34" class="edge">
<title>Node0x621a5e3aceb0&#45;&gt;Node0x621a5e3a5580</title>
<path fill="none" stroke="#4a6fa5" d="M190.53,-83C265.66,-83 376.38,-83 431.21,-83"/>
<polygon fill="#4a6fa5" stroke="#4a6fa5" points="431.25,-85.45 438.25,-83 431.25,-80.55 431.25,-85.45"/>
</g>
<!-- Node0x621a5e3a5040 -->
<g id="node46" class="node">
<title>Node0x621a5e3a5040</title>
<path fill="#f0f4ff" stroke="black" d="M550,-36C550,-36 381,-36 381,-36 375,-36 369,-30 369,-24 369,-24 369,-12 369,-12 369,-6 375,0 381,0 381,0 550,0 550,0 556,0 562,-6 562,-12 562,-12 562,-24 562,-24 562,-30 556,-36 550,-36"/>
<text text-anchor="middle" x="465.5" y="-15.8" font-family="Courier,monospace" font-size="9.00">{CIccProfileXml::CIccProfileXml()}</text>
</g>
<!-- Node0x621a5e3aceb0&#45;&gt;Node0x621a5e3a5040 -->
<g id="edge35" class="edge">
<title>Node0x621a5e3aceb0&#45;&gt;Node0x621a5e3a5040</title>
<path fill="none" stroke="#4a6fa5" d="M190.53,-68.74C240.84,-59.42 307.13,-47.14 361.89,-37"/>
<polygon fill="#4a6fa5" stroke="#4a6fa5" points="362.42,-39.4 368.86,-35.71 361.53,-34.58 362.42,-39.4"/>
</g>
<!-- Node0x621a5e3c2950 -->
<g id="node52" class="node">
<title>Node0x621a5e3c2950</title>
<path fill="#f0f4ff" stroke="black" d="M871.5,-36C871.5,-36 733.5,-36 733.5,-36 727.5,-36 721.5,-30 721.5,-24 721.5,-24 721.5,-12 721.5,-12 721.5,-6 727.5,0 733.5,0 733.5,0 871.5,0 871.5,0 877.5,0 883.5,-6 883.5,-12 883.5,-12 883.5,-24 883.5,-24 883.5,-30 877.5,-36 871.5,-36"/>
<text text-anchor="middle" x="802.5" y="-15.8" font-family="Courier,monospace" font-size="9.00">{CIccProfile::CIccProfile()}</text>
</g>
<!-- Node0x621a5e3a5040&#45;&gt;Node0x621a5e3c2950 -->
<g id="edge40" class="edge">
<title>Node0x621a5e3a5040&#45;&gt;Node0x621a5e3c2950</title>
<path fill="none" stroke="#4a6fa5" d="M562.05,-18C609.97,-18 667.59,-18 714.29,-18"/>
<polygon fill="#4a6fa5" stroke="#4a6fa5" points="714.4,-20.45 721.4,-18 714.4,-15.55 714.4,-20.45"/>
</g>
<!-- Node0x621a5e3a4e00 -->
<g id="node47" class="node">
<title>Node0x621a5e3a4e00</title>
<path fill="#f0f4ff" stroke="black" d="M186.5,-166C186.5,-166 38.5,-166 38.5,-166 32.5,-166 26.5,-160 26.5,-154 26.5,-154 26.5,-142 26.5,-142 26.5,-136 32.5,-130 38.5,-130 38.5,-130 186.5,-130 186.5,-130 192.5,-130 198.5,-136 198.5,-142 198.5,-142 198.5,-154 198.5,-154 198.5,-160 192.5,-166 186.5,-166"/>
<text text-anchor="middle" x="112.5" y="-145.8" font-family="Courier,monospace" font-size="9.00">{CIccProfileXml::NewProfile()}</text>
</g>
<!-- Node0x621a5e3a4e00&#45;&gt;Node0x621a5e3a2fa0 -->
<g id="edge38" class="edge">
<title>Node0x621a5e3a4e00&#45;&gt;Node0x621a5e3a2fa0</title>
<path fill="none" stroke="#4a6fa5" d="M198.92,-163.82C248.05,-172.92 310.11,-184.41 361.88,-194"/>
<polygon fill="#4a6fa5" stroke="#4a6fa5" points="361.46,-196.41 368.79,-195.28 362.35,-191.59 361.46,-196.41"/>
</g>
<!-- Node0x621a5e3a4e00&#45;&gt;Node0x621a5e3a9df0 -->
<g id="edge39" class="edge">
<title>Node0x621a5e3a4e00&#45;&gt;Node0x621a5e3a9df0</title>
<path fill="none" stroke="#4a6fa5" d="M198.92,-148C270.77,-148 370.27,-148 424.8,-148"/>
<polygon fill="#4a6fa5" stroke="#4a6fa5" points="424.87,-150.45 431.87,-148 424.87,-145.55 424.87,-150.45"/>
</g>
<!-- Node0x621a5e3a4e00&#45;&gt;Node0x621a5e3a5580 -->
<g id="edge37" class="edge">
<title>Node0x621a5e3a4e00&#45;&gt;Node0x621a5e3a5580</title>
<path fill="none" stroke="#4a6fa5" d="M198.92,-132.18C273.73,-118.33 378.5,-98.93 431.3,-89.15"/>
<polygon fill="#4a6fa5" stroke="#4a6fa5" points="431.96,-91.52 438.39,-87.83 431.07,-86.7 431.96,-91.52"/>
</g>
<!-- Node0x621a5e3ae8f0 -->
<g id="node48" class="node">
<title>Node0x621a5e3ae8f0</title>
<path fill="#f0f4ff" stroke="black" d="M192,-14193C192,-14193 33,-14193 33,-14193 27,-14193 21,-14187 21,-14181 21,-14181 21,-14169 21,-14169 21,-14163 27,-14157 33,-14157 33,-14157 192,-14157 192,-14157 198,-14157 204,-14163 204,-14169 204,-14169 204,-14181 204,-14181 204,-14187 198,-14193 192,-14193"/>
<text text-anchor="middle" x="112.5" y="-14172.8" font-family="Courier,monospace" font-size="9.00">{CIccProfileXml::GetClassName()}</text>
</g>
<!-- Node0x621a5e3ae530 -->
<g id="node49" class="node">
<title>Node0x621a5e3ae530</title>
<path fill="#f0f4ff" stroke="black" d="M194.5,-14264C194.5,-14264 30.5,-14264 30.5,-14264 24.5,-14264 18.5,-14258 18.5,-14252 18.5,-14252 18.5,-14240 18.5,-14240 18.5,-14234 24.5,-14228 30.5,-14228 30.5,-14228 194.5,-14228 194.5,-14228 200.5,-14228 206.5,-14234 206.5,-14240 206.5,-14240 206.5,-14252 206.5,-14252 206.5,-14258 200.5,-14264 194.5,-14264"/>
<text text-anchor="middle" x="112.5" y="-14243.8" font-family="Courier,monospace" font-size="9.00">{CIccProfile::getPccIlluminant()}</text>
</g>
<!-- Node0x621a5e3c36a0 -->
<g id="node50" class="node">
<title>Node0x621a5e3c36a0</title>
<path fill="#f0f4ff" stroke="black" d="M176,-14332C176,-14332 49,-14332 49,-14332 43,-14332 37,-14326 37,-14320 37,-14320 37,-14308 37,-14308 37,-14302 43,-14296 49,-14296 49,-14296 176,-14296 176,-14296 182,-14296 188,-14302 188,-14308 188,-14308 188,-14320 188,-14320 188,-14326 182,-14332 176,-14332"/>
<text text-anchor="middle" x="112.5" y="-14311.8" font-family="Courier,monospace" font-size="9.00">{CIccProfile::getPccCCT()}</text>
</g>
<!-- Node0x621a5e3c2dd0 -->
<g id="node51" class="node">
<title>Node0x621a5e3c2dd0</title>
<path fill="#f0f4ff" stroke="black" d="M189,-14398C189,-14398 36,-14398 36,-14398 30,-14398 24,-14392 24,-14386 24,-14386 24,-14374 24,-14374 24,-14368 30,-14362 36,-14362 36,-14362 189,-14362 189,-14362 195,-14362 201,-14368 201,-14374 201,-14374 201,-14386 201,-14386 201,-14392 195,-14398 189,-14398"/>
<text text-anchor="middle" x="112.5" y="-14377.8" font-family="Courier,monospace" font-size="9.00">{CIccProfile::getPccObserver()}</text>
</g>
</g>
</svg>
