<?xml version="1.0" encoding="UTF-8" standalone="no"?>
<!DOCTYPE svg PUBLIC "-//W3C//DTD SVG 1.1//EN"
 "http://www.w3.org/Graphics/SVG/1.1/DTD/svg11.dtd">
<!-- Generated by graphviz version 2.43.0 (0)
 -->
<!-- Title: Call graph: /home/h02332/po/research/call&#45;graph/cfl/icc_specsep_fuzzer.ll Pages: 1 -->
<svg width="549pt" height="1935pt"
 viewBox="0.00 0.00 549.20 1935.20" xmlns="http://www.w3.org/2000/svg" xmlns:xlink="http://www.w3.org/1999/xlink">
<g id="graph0" class="graph" transform="scale(1 1) rotate(0) translate(21.6 1913.6)">
<title>Call graph: /home/h02332/po/research/call&#45;graph/cfl/icc_specsep_fuzzer.ll</title>
<polygon fill="white" stroke="transparent" points="-21.6,21.6 -21.6,-1913.6 527.6,-1913.6 527.6,21.6 -21.6,21.6"/>
<!-- Node0x58565a1b2690 -->
<g id="node1" class="node">
<title>Node0x58565a1b2690</title>
<path fill="#f0f4ff" stroke="black" d="M121.5,-674C121.5,-674 27.5,-674 27.5,-674 21.5,-674 15.5,-668 15.5,-662 15.5,-662 15.5,-650 15.5,-650 15.5,-644 21.5,-638 27.5,-638 27.5,-638 121.5,-638 121.5,-638 127.5,-638 133.5,-644 133.5,-650 133.5,-650 133.5,-662 133.5,-662 133.5,-668 127.5,-674 121.5,-674"/>
<text text-anchor="middle" x="74.5" y="-653.8" font-family="Courier,monospace" font-size="9.00">LLVMFuzzerInitialize</text>
</g>
<!-- Node0x585659ffa8a0 -->
<g id="node2" class="node">
<title>Node0x585659ffa8a0</title>
<path fill="#f0f4ff" stroke="black" d="M132,-732C132,-732 17,-732 17,-732 11,-732 5,-726 5,-720 5,-720 5,-708 5,-708 5,-702 11,-696 17,-696 17,-696 132,-696 132,-696 138,-696 144,-702 144,-708 144,-708 144,-720 144,-720 144,-726 138,-732 132,-732"/>
<text text-anchor="middle" x="74.5" y="-711.8" font-family="Courier,monospace" font-size="9.00">SilentTIFFErrorHandler()</text>
</g>
<!-- Node0x58565a017520 -->
<g id="node3" class="node">
<title>Node0x58565a017520</title>
<path fill="#f0f4ff" stroke="black" d="M137,-790C137,-790 12,-790 12,-790 6,-790 0,-784 0,-778 0,-778 0,-766 0,-766 0,-760 6,-754 12,-754 12,-754 137,-754 137,-754 143,-754 149,-760 149,-766 149,-766 149,-778 149,-778 149,-784 143,-790 137,-790"/>
<text text-anchor="middle" x="74.5" y="-769.8" font-family="Courier,monospace" font-size="9.00">SilentTIFFWarningHandler()</text>
</g>
<!-- Node0x58565a00def0 -->
<g id="node4" class="node">
<title>Node0x58565a00def0</title>
<path fill="#f0f4ff" stroke="black" d="M126.5,-848C126.5,-848 22.5,-848 22.5,-848 16.5,-848 10.5,-842 10.5,-836 10.5,-836 10.5,-824 10.5,-824 10.5,-818 16.5,-812 22.5,-812 22.5,-812 126.5,-812 126.5,-812 132.5,-812 138.5,-818 138.5,-824 138.5,-824 138.5,-836 138.5,-836 138.5,-842 132.5,-848 126.5,-848"/>
<text text-anchor="middle" x="74.5" y="-827.8" font-family="Courier,monospace" font-size="9.00">LLVMFuzzerTestOneInput</text>
</g>
<!-- Node0x58565a006940 -->
<g id="node5" class="node">
<title>Node0x58565a006940</title>
<path fill="#f0f4ff" stroke="black" d="M315.5,-1660C315.5,-1660 258.5,-1660 258.5,-1660 252.5,-1660 246.5,-1654 246.5,-1648 246.5,-1648 246.5,-1636 246.5,-1636 246.5,-1630 252.5,-1624 258.5,-1624 258.5,-1624 315.5,-1624 315.5,-1624 321.5,-1624 327.5,-1630 327.5,-1636 327.5,-1636 327.5,-1648 327.5,-1648 327.5,-1654 321.5,-1660 315.5,-1660"/>
<text text-anchor="middle" x="287" y="-1639.8" font-family="Courier,monospace" font-size="9.00">fuzz_tmpdir()</text>
</g>
<!-- Node0x58565a00def0&#45;&gt;Node0x58565a006940 -->
<g id="edge1" class="edge">
<title>Node0x58565a00def0&#45;&gt;Node0x58565a006940</title>
<path fill="none" stroke="#4a6fa5" d="M92,-848.07C109.55,-868.47 136.46,-903.49 149,-939 199.07,-1080.75 115.73,-1493.54 207,-1613 215.15,-1623.67 227.64,-1630.42 240.29,-1634.68"/>
<polygon fill="#4a6fa5" stroke="#4a6fa5" points="239.75,-1636.71 246.1,-1636.47 240.98,-1632.7 239.75,-1636.71"/>
</g>
<!-- Node0x58565a127d60 -->
<g id="node6" class="node">
<title>Node0x58565a127d60</title>
<path fill="#f0f4ff" stroke="black" d="M326,-1602C326,-1602 248,-1602 248,-1602 242,-1602 236,-1596 236,-1590 236,-1590 236,-1578 236,-1578 236,-1572 242,-1566 248,-1566 248,-1566 326,-1566 326,-1566 332,-1566 338,-1572 338,-1578 338,-1578 338,-1590 338,-1590 338,-1596 332,-1602 326,-1602"/>
<text text-anchor="middle" x="287" y="-1581.8" font-family="Courier,monospace" font-size="9.00">fuzz_build_path()</text>
</g>
<!-- Node0x58565a00def0&#45;&gt;Node0x58565a127d60 -->
<g id="edge2" class="edge">
<title>Node0x58565a00def0&#45;&gt;Node0x58565a127d60</title>
<path fill="none" stroke="#4a6fa5" d="M91.95,-848.09C109.45,-868.51 136.31,-903.54 149,-939 195.32,-1068.46 123.09,-1446.08 207,-1555 212.98,-1562.76 221.25,-1568.45 230.2,-1572.61"/>
<polygon fill="#4a6fa5" stroke="#4a6fa5" points="229.5,-1574.6 235.85,-1575.02 231.15,-1570.73 229.5,-1574.6"/>
</g>
<!-- Node0x58565a1cd640 -->
<g id="node7" class="node">
<title>Node0x58565a1cd640</title>
<path fill="#f0f4ff" stroke="black" d="M313,-1544C313,-1544 261,-1544 261,-1544 255,-1544 249,-1538 249,-1532 249,-1532 249,-1520 249,-1520 249,-1514 255,-1508 261,-1508 261,-1508 313,-1508 313,-1508 319,-1508 325,-1514 325,-1520 325,-1520 325,-1532 325,-1532 325,-1538 319,-1544 313,-1544"/>
<text text-anchor="middle" x="287" y="-1523.8" font-family="Courier,monospace" font-size="9.00">unique_ptr()</text>
</g>
<!-- Node0x58565a00def0&#45;&gt;Node0x58565a1cd640 -->
<g id="edge3" class="edge">
<title>Node0x58565a00def0&#45;&gt;Node0x58565a1cd640</title>
<path fill="none" stroke="#4a6fa5" d="M91.89,-848.11C109.33,-868.55 136.14,-903.6 149,-939 191.56,-1056.18 130.44,-1398.61 207,-1497 215.71,-1508.2 229.19,-1515.07 242.55,-1519.3"/>
<polygon fill="#4a6fa5" stroke="#4a6fa5" points="242.32,-1521.41 248.67,-1521.05 243.48,-1517.38 242.32,-1521.41"/>
</g>
<!-- Node0x58565a1b87d0 -->
<g id="node8" class="node">
<title>Node0x58565a1b87d0</title>
<path fill="#f0f4ff" stroke="black" d="M336.5,-1486C336.5,-1486 237.5,-1486 237.5,-1486 231.5,-1486 225.5,-1480 225.5,-1474 225.5,-1474 225.5,-1462 225.5,-1462 225.5,-1456 231.5,-1450 237.5,-1450 237.5,-1450 336.5,-1450 336.5,-1450 342.5,-1450 348.5,-1456 348.5,-1462 348.5,-1462 348.5,-1474 348.5,-1474 348.5,-1480 342.5,-1486 336.5,-1486"/>
<text text-anchor="middle" x="287" y="-1465.8" font-family="Courier,monospace" font-size="9.00">CTiffImg::~CTiffImg()</text>
</g>
<!-- Node0x58565a00def0&#45;&gt;Node0x58565a1b87d0 -->
<g id="edge4" class="edge">
<title>Node0x58565a00def0&#45;&gt;Node0x58565a1b87d0</title>
<path fill="none" stroke="#4a6fa5" d="M91.81,-848.14C109.18,-868.61 135.93,-903.68 149,-939 187.82,-1043.91 137.78,-1351.13 207,-1439 210.59,-1443.55 214.96,-1447.39 219.78,-1450.62"/>
<polygon fill="#4a6fa5" stroke="#4a6fa5" points="218.96,-1452.58 225.18,-1453.9 221.14,-1448.99 218.96,-1452.58"/>
</g>
<!-- Node0x58565a1b8400 -->
<g id="node9" class="node">
<title>Node0x58565a1b8400</title>
<path fill="#f0f4ff" stroke="black" d="M326,-1428C326,-1428 248,-1428 248,-1428 242,-1428 236,-1422 236,-1416 236,-1416 236,-1404 236,-1404 236,-1398 242,-1392 248,-1392 248,-1392 326,-1392 326,-1392 332,-1392 338,-1398 338,-1404 338,-1404 338,-1416 338,-1416 338,-1422 332,-1428 326,-1428"/>
<text text-anchor="middle" x="287" y="-1407.8" font-family="Courier,monospace" font-size="9.00">CTiffImg::Close()</text>
</g>
<!-- Node0x58565a00def0&#45;&gt;Node0x58565a1b8400 -->
<g id="edge5" class="edge">
<title>Node0x58565a00def0&#45;&gt;Node0x58565a1b8400</title>
<path fill="none" stroke="#4a6fa5" d="M91.71,-848.18C108.99,-868.68 135.67,-903.78 149,-939 219.14,-1124.3 83.23,-1226.29 207,-1381 213.05,-1388.56 221.25,-1394.15 230.1,-1398.28"/>
<polygon fill="#4a6fa5" stroke="#4a6fa5" points="229.33,-1400.24 235.68,-1400.67 230.99,-1396.37 229.33,-1400.24"/>
</g>
<!-- Node0x585659fc1fd0 -->
<g id="node10" class="node">
<title>Node0x585659fc1fd0</title>
<path fill="#f0f4ff" stroke="black" d="M336.5,-1370C336.5,-1370 237.5,-1370 237.5,-1370 231.5,-1370 225.5,-1364 225.5,-1358 225.5,-1358 225.5,-1346 225.5,-1346 225.5,-1340 231.5,-1334 237.5,-1334 237.5,-1334 336.5,-1334 336.5,-1334 342.5,-1334 348.5,-1340 348.5,-1346 348.5,-1346 348.5,-1358 348.5,-1358 348.5,-1364 342.5,-1370 336.5,-1370"/>
<text text-anchor="middle" x="287" y="-1349.8" font-family="Courier,monospace" font-size="9.00">CTiffImg::WriteLine()</text>
</g>
<!-- Node0x58565a00def0&#45;&gt;Node0x585659fc1fd0 -->
<g id="edge6" class="edge">
<title>Node0x58565a00def0&#45;&gt;Node0x585659fc1fd0</title>
<path fill="none" stroke="#4a6fa5" d="M91.58,-848.23C108.75,-868.77 135.33,-903.91 149,-939 211.67,-1099.82 97.87,-1189.27 207,-1323 210.66,-1327.49 215.09,-1331.28 219.95,-1334.49"/>
<polygon fill="#4a6fa5" stroke="#4a6fa5" points="219.15,-1336.46 225.38,-1337.74 221.31,-1332.86 219.15,-1336.46"/>
</g>
<!-- Node0x58565a1bb580 -->
<g id="node11" class="node">
<title>Node0x58565a1bb580</title>
<path fill="#f0f4ff" stroke="black" d="M334,-1312C334,-1312 240,-1312 240,-1312 234,-1312 228,-1306 228,-1300 228,-1300 228,-1288 228,-1288 228,-1282 234,-1276 240,-1276 240,-1276 334,-1276 334,-1276 340,-1276 346,-1282 346,-1288 346,-1288 346,-1300 346,-1300 346,-1306 340,-1312 334,-1312"/>
<text text-anchor="middle" x="287" y="-1291.8" font-family="Courier,monospace" font-size="9.00">CTiffImg::GetWidth()</text>
</g>
<!-- Node0x58565a00def0&#45;&gt;Node0x58565a1bb580 -->
<g id="edge7" class="edge">
<title>Node0x58565a00def0&#45;&gt;Node0x58565a1bb580</title>
<path fill="none" stroke="#4a6fa5" d="M91.4,-848.29C108.42,-868.9 134.87,-904.09 149,-939 204.22,-1075.41 112.47,-1152.21 207,-1265 211.31,-1270.14 216.62,-1274.38 222.43,-1277.86"/>
<polygon fill="#4a6fa5" stroke="#4a6fa5" points="221.62,-1279.81 227.89,-1280.85 223.63,-1276.12 221.62,-1279.81"/>
</g>
<!-- Node0x58565a1d22b0 -->
<g id="node12" class="node">
<title>Node0x58565a1d22b0</title>
<path fill="#f0f4ff" stroke="black" d="M334,-1254C334,-1254 240,-1254 240,-1254 234,-1254 228,-1248 228,-1242 228,-1242 228,-1230 228,-1230 228,-1224 234,-1218 240,-1218 240,-1218 334,-1218 334,-1218 340,-1218 346,-1224 346,-1230 346,-1230 346,-1242 346,-1242 346,-1248 340,-1254 334,-1254"/>
<text text-anchor="middle" x="287" y="-1233.8" font-family="Courier,monospace" font-size="9.00">CTiffImg::ReadLine()</text>
</g>
<!-- Node0x58565a00def0&#45;&gt;Node0x58565a1d22b0 -->
<g id="edge8" class="edge">
<title>Node0x58565a00def0&#45;&gt;Node0x58565a1d22b0</title>
<path fill="none" stroke="#4a6fa5" d="M90.85,-848.02C107.64,-868.67 134.13,-904.15 149,-939 196.82,-1051.1 127,-1115.06 207,-1207 211.33,-1211.98 216.6,-1216.1 222.33,-1219.52"/>
<polygon fill="#4a6fa5" stroke="#4a6fa5" points="221.43,-1221.43 227.71,-1222.46 223.45,-1217.74 221.43,-1221.43"/>
</g>
<!-- Node0x585659fc1b20 -->
<g id="node13" class="node">
<title>Node0x585659fc1b20</title>
<path fill="#f0f4ff" stroke="black" d="M302,-1196C302,-1196 272,-1196 272,-1196 266,-1196 260,-1190 260,-1184 260,-1184 260,-1172 260,-1172 260,-1166 266,-1160 272,-1160 272,-1160 302,-1160 302,-1160 308,-1160 314,-1166 314,-1172 314,-1172 314,-1184 314,-1184 314,-1190 308,-1196 302,-1196"/>
<text text-anchor="middle" x="287" y="-1175.8" font-family="Courier,monospace" font-size="9.00">mkstemp</text>
</g>
<!-- Node0x58565a00def0&#45;&gt;Node0x585659fc1b20 -->
<g id="edge9" class="edge">
<title>Node0x58565a00def0&#45;&gt;Node0x585659fc1b20</title>
<path fill="none" stroke="#4a6fa5" d="M90.49,-848.18C106.96,-868.97 133.16,-904.58 149,-939 189.49,-1026.96 141.41,-1077.77 207,-1149 219.06,-1162.09 237.53,-1169.29 253.58,-1173.24"/>
<polygon fill="#4a6fa5" stroke="#4a6fa5" points="253.51,-1175.38 259.82,-1174.65 254.43,-1171.28 253.51,-1175.38"/>
</g>
<!-- Node0x58565a1bc700 -->
<g id="node14" class="node">
<title>Node0x58565a1bc700</title>
<path fill="#f0f4ff" stroke="black" d="M336.5,-1138C336.5,-1138 237.5,-1138 237.5,-1138 231.5,-1138 225.5,-1132 225.5,-1126 225.5,-1126 225.5,-1114 225.5,-1114 225.5,-1108 231.5,-1102 237.5,-1102 237.5,-1102 336.5,-1102 336.5,-1102 342.5,-1102 348.5,-1108 348.5,-1114 348.5,-1114 348.5,-1126 348.5,-1126 348.5,-1132 342.5,-1138 336.5,-1138"/>
<text text-anchor="middle" x="287" y="-1117.8" font-family="Courier,monospace" font-size="9.00">CTiffImg::GetHeight()</text>
</g>
<!-- Node0x58565a00def0&#45;&gt;Node0x58565a1bc700 -->
<g id="edge10" class="edge">
<title>Node0x58565a00def0&#45;&gt;Node0x58565a1bc700</title>
<path fill="none" stroke="#4a6fa5" d="M89.61,-848.1C105.51,-869.09 131.44,-905.17 149,-939 182.32,-1003.17 155.55,-1040.2 207,-1091 210.89,-1094.84 215.34,-1098.18 220.09,-1101.09"/>
<polygon fill="#4a6fa5" stroke="#4a6fa5" points="219.1,-1102.94 225.36,-1104.07 221.17,-1099.28 219.1,-1102.94"/>
</g>
<!-- Node0x58565a1c37a0 -->
<g id="node15" class="node">
<title>Node0x58565a1c37a0</title>
<path fill="#f0f4ff" stroke="black" d="M341.5,-1080C341.5,-1080 232.5,-1080 232.5,-1080 226.5,-1080 220.5,-1074 220.5,-1068 220.5,-1068 220.5,-1056 220.5,-1056 220.5,-1050 226.5,-1044 232.5,-1044 232.5,-1044 341.5,-1044 341.5,-1044 347.5,-1044 353.5,-1050 353.5,-1056 353.5,-1056 353.5,-1068 353.5,-1068 353.5,-1074 347.5,-1080 341.5,-1080"/>
<text text-anchor="middle" x="287" y="-1059.8" font-family="Courier,monospace" font-size="9.00">CIccMemIO::~CIccMemIO()</text>
</g>
<!-- Node0x58565a00def0&#45;&gt;Node0x58565a1c37a0 -->
<g id="edge11" class="edge">
<title>Node0x58565a00def0&#45;&gt;Node0x58565a1c37a0</title>
<path fill="none" stroke="#4a6fa5" d="M88.21,-848.36C103.05,-869.91 128.21,-906.78 149,-939 175.62,-980.25 168.98,-1001.95 207,-1033 210.58,-1035.92 214.48,-1038.57 218.57,-1040.96"/>
<polygon fill="#4a6fa5" stroke="#4a6fa5" points="217.57,-1042.8 223.84,-1043.85 219.59,-1039.12 217.57,-1042.8"/>
</g>
<!-- Node0x58565a1c3b60 -->
<g id="node16" class="node">
<title>Node0x58565a1c3b60</title>
<path fill="#f0f4ff" stroke="black" d="M352,-1022C352,-1022 222,-1022 222,-1022 216,-1022 210,-1016 210,-1010 210,-1010 210,-998 210,-998 210,-992 216,-986 222,-986 222,-986 352,-986 352,-986 358,-986 364,-992 364,-998 364,-998 364,-1010 364,-1010 364,-1016 358,-1022 352,-1022"/>
<text text-anchor="middle" x="287" y="-1001.8" font-family="Courier,monospace" font-size="9.00">CIccProfile::~CIccProfile()</text>
</g>
<!-- Node0x58565a00def0&#45;&gt;Node0x58565a1c3b60 -->
<g id="edge12" class="edge">
<title>Node0x58565a00def0&#45;&gt;Node0x58565a1c3b60</title>
<path fill="none" stroke="#4a6fa5" d="M87.52,-848.18C108.43,-878.49 154.3,-939.48 207,-975 211.45,-978 216.25,-980.73 221.2,-983.22"/>
<polygon fill="#4a6fa5" stroke="#4a6fa5" points="220.31,-985.12 226.63,-985.82 222.13,-981.33 220.31,-985.12"/>
</g>
<!-- Node0x58565a1c46a0 -->
<g id="node17" class="node">
<title>Node0x58565a1c46a0</title>
<path fill="#f0f4ff" stroke="black" d="M339,-964C339,-964 235,-964 235,-964 229,-964 223,-958 223,-952 223,-952 223,-940 223,-940 223,-934 229,-928 235,-928 235,-928 339,-928 339,-928 345,-928 351,-934 351,-940 351,-940 351,-952 351,-952 351,-958 345,-964 339,-964"/>
<text text-anchor="middle" x="287" y="-943.8" font-family="Courier,monospace" font-size="9.00">CIccProfile::FindTag()</text>
</g>
<!-- Node0x58565a00def0&#45;&gt;Node0x58565a1c46a0 -->
<g id="edge13" class="edge">
<title>Node0x58565a00def0&#45;&gt;Node0x58565a1c46a0</title>
<path fill="none" stroke="#4a6fa5" d="M99.19,-848.13C124.76,-867.1 167.18,-896.87 207,-917 212.99,-920.03 219.37,-922.9 225.82,-925.58"/>
<polygon fill="#4a6fa5" stroke="#4a6fa5" points="225.39,-927.68 231.74,-927.99 226.97,-923.79 225.39,-927.68"/>
</g>
<!-- Node0x58565a1c2760 -->
<g id="node18" class="node">
<title>Node0x58565a1c2760</title>
<path fill="#f0f4ff" stroke="black" d="M341.5,-906C341.5,-906 232.5,-906 232.5,-906 226.5,-906 220.5,-900 220.5,-894 220.5,-894 220.5,-882 220.5,-882 220.5,-876 226.5,-870 232.5,-870 232.5,-870 341.5,-870 341.5,-870 347.5,-870 353.5,-876 353.5,-882 353.5,-882 353.5,-894 353.5,-894 353.5,-900 347.5,-906 341.5,-906"/>
<text text-anchor="middle" x="287" y="-885.8" font-family="Courier,monospace" font-size="9.00">CIccProfile::Validate()</text>
</g>
<!-- Node0x58565a00def0&#45;&gt;Node0x58565a1c2760 -->
<g id="edge14" class="edge">
<title>Node0x58565a00def0&#45;&gt;Node0x58565a1c2760</title>
<path fill="none" stroke="#4a6fa5" d="M138.66,-847.4C162.54,-853.98 189.88,-861.52 214.47,-868.29"/>
<polygon fill="#4a6fa5" stroke="#4a6fa5" points="213.99,-870.34 220.33,-869.91 215.11,-866.29 213.99,-870.34"/>
</g>
<!-- Node0x585659fc14c0 -->
<g id="node19" class="node">
<title>Node0x585659fc14c0</title>
<path fill="#f0f4ff" stroke="black" d="M334,-848C334,-848 240,-848 240,-848 234,-848 228,-842 228,-836 228,-836 228,-824 228,-824 228,-818 234,-812 240,-812 240,-812 334,-812 334,-812 340,-812 346,-818 346,-824 346,-824 346,-836 346,-836 346,-842 340,-848 334,-848"/>
<text text-anchor="middle" x="287" y="-827.8" font-family="Courier,monospace" font-size="9.00">CTiffImg::CTiffImg()</text>
</g>
<!-- Node0x58565a00def0&#45;&gt;Node0x585659fc14c0 -->
<g id="edge15" class="edge">
<title>Node0x58565a00def0&#45;&gt;Node0x585659fc14c0</title>
<path fill="none" stroke="#4a6fa5" d="M138.66,-830C164.89,-830 195.3,-830 221.66,-830"/>
<polygon fill="#4a6fa5" stroke="#4a6fa5" points="221.92,-832.1 227.92,-830 221.92,-827.9 221.92,-832.1"/>
</g>
<!-- Node0x585659fc1f50 -->
<g id="node20" class="node">
<title>Node0x585659fc1f50</title>
<path fill="#f0f4ff" stroke="black" d="M328.5,-790C328.5,-790 245.5,-790 245.5,-790 239.5,-790 233.5,-784 233.5,-778 233.5,-778 233.5,-766 233.5,-766 233.5,-760 239.5,-754 245.5,-754 245.5,-754 328.5,-754 328.5,-754 334.5,-754 340.5,-760 340.5,-766 340.5,-766 340.5,-778 340.5,-778 340.5,-784 334.5,-790 328.5,-790"/>
<text text-anchor="middle" x="287" y="-769.8" font-family="Courier,monospace" font-size="9.00">CTiffImg::Create()</text>
</g>
<!-- Node0x58565a00def0&#45;&gt;Node0x585659fc1f50 -->
<g id="edge16" class="edge">
<title>Node0x58565a00def0&#45;&gt;Node0x585659fc1f50</title>
<path fill="none" stroke="#4a6fa5" d="M138.66,-812.6C166.81,-804.84 199.77,-795.76 227.37,-788.15"/>
<polygon fill="#4a6fa5" stroke="#4a6fa5" points="227.95,-790.17 233.18,-786.55 226.83,-786.12 227.95,-790.17"/>
</g>
<!-- Node0x58565a1c10e0 -->
<g id="node21" class="node">
<title>Node0x58565a1c10e0</title>
<path fill="#f0f4ff" stroke="black" d="M331,-732C331,-732 243,-732 243,-732 237,-732 231,-726 231,-720 231,-720 231,-708 231,-708 231,-702 237,-696 243,-696 243,-696 331,-696 331,-696 337,-696 343,-702 343,-708 343,-708 343,-720 343,-720 343,-726 337,-732 331,-732"/>
<text text-anchor="middle" x="287" y="-711.8" font-family="Courier,monospace" font-size="9.00">CIccProfile::Read()</text>
</g>
<!-- Node0x58565a00def0&#45;&gt;Node0x58565a1c10e0 -->
<g id="edge17" class="edge">
<title>Node0x58565a00def0&#45;&gt;Node0x58565a1c10e0</title>
<path fill="none" stroke="#4a6fa5" d="M129,-811.92C135.96,-808.7 142.81,-805.06 149,-801 179.48,-781 176.28,-762.63 207,-743 212.66,-739.39 218.83,-736.14 225.14,-733.23"/>
<polygon fill="#4a6fa5" stroke="#4a6fa5" points="226.33,-735.01 230.97,-730.67 224.64,-731.16 226.33,-735.01"/>
</g>
<!-- Node0x58565a1c15e0 -->
<g id="node22" class="node">
<title>Node0x58565a1c15e0</title>
<path fill="#f0f4ff" stroke="black" d="M349.5,-674C349.5,-674 224.5,-674 224.5,-674 218.5,-674 212.5,-668 212.5,-662 212.5,-662 212.5,-650 212.5,-650 212.5,-644 218.5,-638 224.5,-638 224.5,-638 349.5,-638 349.5,-638 355.5,-638 361.5,-644 361.5,-650 361.5,-650 361.5,-662 361.5,-662 361.5,-668 355.5,-674 349.5,-674"/>
<text text-anchor="middle" x="287" y="-653.8" font-family="Courier,monospace" font-size="9.00">CIccProfile::CIccProfile()</text>
</g>
<!-- Node0x58565a00def0&#45;&gt;Node0x58565a1c15e0 -->
<g id="edge18" class="edge">
<title>Node0x58565a00def0&#45;&gt;Node0x58565a1c15e0</title>
<path fill="none" stroke="#4a6fa5" d="M133.71,-811.87C139.22,-808.77 144.45,-805.17 149,-801 191.51,-762.07 164.03,-723.42 207,-685 210.22,-682.12 213.75,-679.52 217.47,-677.17"/>
<polygon fill="#4a6fa5" stroke="#4a6fa5" points="218.55,-678.97 222.66,-674.12 216.43,-675.35 218.55,-678.97"/>
</g>
<!-- Node0x58565a1c1ae0 -->
<g id="node23" class="node">
<title>Node0x58565a1c1ae0</title>
<path fill="#f0f4ff" stroke="black" d="M331,-616C331,-616 243,-616 243,-616 237,-616 231,-610 231,-604 231,-604 231,-592 231,-592 231,-586 237,-580 243,-580 243,-580 331,-580 331,-580 337,-580 343,-586 343,-592 343,-592 343,-604 343,-604 343,-610 337,-616 331,-616"/>
<text text-anchor="middle" x="287" y="-595.8" font-family="Courier,monospace" font-size="9.00">CIccMemIO::Attach()</text>
</g>
<!-- Node0x58565a00def0&#45;&gt;Node0x58565a1c1ae0 -->
<g id="edge19" class="edge">
<title>Node0x58565a00def0&#45;&gt;Node0x58565a1c1ae0</title>
<path fill="none" stroke="#4a6fa5" d="M135.41,-811.85C140.4,-808.77 145.04,-805.18 149,-801 205.06,-741.82 150.23,-685.5 207,-627 212.17,-621.68 218.39,-617.32 225.05,-613.76"/>
<polygon fill="#4a6fa5" stroke="#4a6fa5" points="226.29,-615.5 230.74,-610.96 224.43,-611.73 226.29,-615.5"/>
</g>
<!-- Node0x58565a1c0460 -->
<g id="node24" class="node">
<title>Node0x58565a1c0460</title>
<path fill="#f0f4ff" stroke="black" d="M302,-558C302,-558 272,-558 272,-558 266,-558 260,-552 260,-546 260,-546 260,-534 260,-534 260,-528 266,-522 272,-522 272,-522 302,-522 302,-522 308,-522 314,-528 314,-534 314,-534 314,-546 314,-546 314,-552 308,-558 302,-558"/>
<text text-anchor="middle" x="287" y="-537.8" font-family="Courier,monospace" font-size="9.00">get()</text>
</g>
<!-- Node0x58565a00def0&#45;&gt;Node0x58565a1c0460 -->
<g id="edge20" class="edge">
<title>Node0x58565a00def0&#45;&gt;Node0x58565a1c0460</title>
<path fill="none" stroke="#4a6fa5" d="M136.1,-811.94C140.89,-808.85 145.29,-805.23 149,-801 219.08,-721.09 135.97,-648.06 207,-569 218.9,-555.76 237.36,-548.55 253.45,-544.64"/>
<polygon fill="#4a6fa5" stroke="#4a6fa5" points="254.31,-546.6 259.71,-543.24 253.4,-542.5 254.31,-546.6"/>
</g>
<!-- Node0x58565a1c0aa0 -->
<g id="node25" class="node">
<title>Node0x58565a1c0aa0</title>
<path fill="#f0f4ff" stroke="black" d="M339,-500C339,-500 235,-500 235,-500 229,-500 223,-494 223,-488 223,-488 223,-476 223,-476 223,-470 229,-464 235,-464 235,-464 339,-464 339,-464 345,-464 351,-470 351,-476 351,-476 351,-488 351,-488 351,-494 345,-500 339,-500"/>
<text text-anchor="middle" x="287" y="-479.8" font-family="Courier,monospace" font-size="9.00">CIccMemIO::CIccMemIO()</text>
</g>
<!-- Node0x58565a00def0&#45;&gt;Node0x58565a1c0aa0 -->
<g id="edge21" class="edge">
<title>Node0x58565a00def0&#45;&gt;Node0x58565a1c0aa0</title>
<path fill="none" stroke="#4a6fa5" d="M136.66,-811.89C141.27,-808.81 145.48,-805.21 149,-801 233.29,-700.15 121.5,-610.84 207,-511 210.14,-507.33 213.79,-504.13 217.76,-501.33"/>
<polygon fill="#4a6fa5" stroke="#4a6fa5" points="219.03,-503.01 222.94,-498 216.76,-499.47 219.03,-503.01"/>
</g>
<!-- Node0x58565a1bfa60 -->
<g id="node26" class="node">
<title>Node0x58565a1bfa60</title>
<path fill="#f0f4ff" stroke="black" d="M347,-442C347,-442 227,-442 227,-442 221,-442 215,-436 215,-430 215,-430 215,-418 215,-418 215,-412 221,-406 227,-406 227,-406 347,-406 347,-406 353,-406 359,-412 359,-418 359,-418 359,-430 359,-430 359,-436 353,-442 347,-442"/>
<text text-anchor="middle" x="287" y="-421.8" font-family="Courier,monospace" font-size="9.00">CTiffImg::SetIccProfile()</text>
</g>
<!-- Node0x58565a00def0&#45;&gt;Node0x58565a1bfa60 -->
<g id="edge22" class="edge">
<title>Node0x58565a00def0&#45;&gt;Node0x58565a1bfa60</title>
<path fill="none" stroke="#4a6fa5" d="M137.15,-811.78C141.59,-808.73 145.64,-805.16 149,-801 247.6,-679.08 106.94,-573.73 207,-453 209.16,-450.4 211.57,-448.03 214.17,-445.88"/>
<polygon fill="#4a6fa5" stroke="#4a6fa5" points="215.51,-447.5 219.05,-442.22 212.99,-444.14 215.51,-447.5"/>
</g>
<!-- Node0x58565a1bd820 -->
<g id="node27" class="node">
<title>Node0x58565a1bd820</title>
<path fill="#f0f4ff" stroke="black" d="M355,-384C355,-384 219,-384 219,-384 213,-384 207,-378 207,-372 207,-372 207,-360 207,-360 207,-354 213,-348 219,-348 219,-348 355,-348 355,-348 361,-348 367,-354 367,-360 367,-360 367,-372 367,-372 367,-378 361,-384 355,-384"/>
<text text-anchor="middle" x="287" y="-363.8" font-family="Courier,monospace" font-size="9.00">CTiffImg::GetBitsPerSample()</text>
</g>
<!-- Node0x58565a00def0&#45;&gt;Node0x58565a1bd820 -->
<g id="edge23" class="edge">
<title>Node0x58565a00def0&#45;&gt;Node0x58565a1bd820</title>
<path fill="none" stroke="#4a6fa5" d="M137.26,-811.86C141.67,-808.79 145.68,-805.2 149,-801 261.97,-657.95 92.32,-536.68 207,-395 209.13,-392.37 211.51,-389.99 214.09,-387.81"/>
<polygon fill="#4a6fa5" stroke="#4a6fa5" points="215.43,-389.43 218.94,-384.13 212.89,-386.09 215.43,-389.43"/>
</g>
<!-- Node0x58565a1bdd20 -->
<g id="node28" class="node">
<title>Node0x58565a1bdd20</title>
<path fill="#f0f4ff" stroke="black" d="M331,-326C331,-326 243,-326 243,-326 237,-326 231,-320 231,-314 231,-314 231,-302 231,-302 231,-296 237,-290 243,-290 243,-290 331,-290 331,-290 337,-290 343,-296 343,-302 343,-302 343,-314 343,-314 343,-320 337,-326 331,-326"/>
<text text-anchor="middle" x="287" y="-305.8" font-family="Courier,monospace" font-size="9.00">CTiffImg::GetYRes()</text>
</g>
<!-- Node0x58565a00def0&#45;&gt;Node0x58565a1bdd20 -->
<g id="edge24" class="edge">
<title>Node0x58565a00def0&#45;&gt;Node0x58565a1bdd20</title>
<path fill="none" stroke="#4a6fa5" d="M137.33,-811.93C141.74,-808.84 145.72,-805.23 149,-801 276.37,-636.78 77.67,-499.68 207,-337 211.93,-330.8 218.31,-325.93 225.31,-322.1"/>
<polygon fill="#4a6fa5" stroke="#4a6fa5" points="226.34,-323.93 230.76,-319.37 224.46,-320.17 226.34,-323.93"/>
</g>
<!-- Node0x58565a1bd1e0 -->
<g id="node29" class="node">
<title>Node0x58565a1bd1e0</title>
<path fill="#f0f4ff" stroke="black" d="M331,-268C331,-268 243,-268 243,-268 237,-268 231,-262 231,-256 231,-256 231,-244 231,-244 231,-238 237,-232 243,-232 243,-232 331,-232 331,-232 337,-232 343,-238 343,-244 343,-244 343,-256 343,-256 343,-262 337,-268 331,-268"/>
<text text-anchor="middle" x="287" y="-247.8" font-family="Courier,monospace" font-size="9.00">CTiffImg::GetXRes()</text>
</g>
<!-- Node0x58565a00def0&#45;&gt;Node0x58565a1bd1e0 -->
<g id="edge25" class="edge">
<title>Node0x58565a00def0&#45;&gt;Node0x58565a1bd1e0</title>
<path fill="none" stroke="#4a6fa5" d="M137.4,-811.97C141.78,-808.88 145.75,-805.25 149,-801 290.79,-615.57 62.99,-462.71 207,-279 211.88,-272.77 218.24,-267.88 225.23,-264.04"/>
<polygon fill="#4a6fa5" stroke="#4a6fa5" points="226.26,-265.87 230.68,-261.3 224.37,-262.11 226.26,-265.87"/>
</g>
<!-- Node0x58565a1bed60 -->
<g id="node30" class="node">
<title>Node0x58565a1bed60</title>
<path fill="#f0f4ff" stroke="black" d="M352,-210C352,-210 222,-210 222,-210 216,-210 210,-204 210,-198 210,-198 210,-186 210,-186 210,-180 216,-174 222,-174 222,-174 352,-174 352,-174 358,-174 364,-180 364,-186 364,-186 364,-198 364,-198 364,-204 358,-210 352,-210"/>
<text text-anchor="middle" x="287" y="-189.8" font-family="Courier,monospace" font-size="9.00">CTiffImg::GetBytesPerLine()</text>
</g>
<!-- Node0x58565a00def0&#45;&gt;Node0x58565a1bed60 -->
<g id="edge26" class="edge">
<title>Node0x58565a00def0&#45;&gt;Node0x58565a1bed60</title>
<path fill="none" stroke="#4a6fa5" d="M137.78,-811.77C142.03,-808.72 145.86,-805.16 149,-801 305.23,-594.35 48.3,-425.77 207,-221 208.91,-218.53 211.06,-216.27 213.38,-214.21"/>
<polygon fill="#4a6fa5" stroke="#4a6fa5" points="214.99,-215.61 218.39,-210.23 212.38,-212.32 214.99,-215.61"/>
</g>
<!-- Node0x58565a1bbbc0 -->
<g id="node31" class="node">
<title>Node0x58565a1bbbc0</title>
<path fill="#f0f4ff" stroke="black" d="M334,-152C334,-152 240,-152 240,-152 234,-152 228,-146 228,-140 228,-140 228,-128 228,-128 228,-122 234,-116 240,-116 240,-116 334,-116 334,-116 340,-116 346,-122 346,-128 346,-128 346,-140 346,-140 346,-146 340,-152 334,-152"/>
<text text-anchor="middle" x="287" y="-131.8" font-family="Courier,monospace" font-size="9.00">CTiffImg::GetPhoto()</text>
</g>
<!-- Node0x58565a00def0&#45;&gt;Node0x58565a1bbbc0 -->
<g id="edge27" class="edge">
<title>Node0x58565a00def0&#45;&gt;Node0x58565a1bbbc0</title>
<path fill="none" stroke="#4a6fa5" d="M137.82,-811.8C142.06,-808.74 145.88,-805.17 149,-801 234.34,-687.05 120.3,-275.92 207,-163 211.16,-157.59 216.42,-153.19 222.26,-149.6"/>
<polygon fill="#4a6fa5" stroke="#4a6fa5" points="223.54,-151.29 227.77,-146.54 221.5,-147.62 223.54,-151.29"/>
</g>
<!-- Node0x58565a1bc200 -->
<g id="node32" class="node">
<title>Node0x58565a1bc200</title>
<path fill="#f0f4ff" stroke="black" d="M339,-94C339,-94 235,-94 235,-94 229,-94 223,-88 223,-82 223,-82 223,-70 223,-70 223,-64 229,-58 235,-58 235,-58 339,-58 339,-58 345,-58 351,-64 351,-70 351,-70 351,-82 351,-82 351,-88 345,-94 339,-94"/>
<text text-anchor="middle" x="287" y="-73.8" font-family="Courier,monospace" font-size="9.00">CTiffImg::GetSamples()</text>
</g>
<!-- Node0x58565a00def0&#45;&gt;Node0x58565a1bc200 -->
<g id="edge28" class="edge">
<title>Node0x58565a00def0&#45;&gt;Node0x58565a1bc200</title>
<path fill="none" stroke="#4a6fa5" d="M137.86,-811.83C142.09,-808.76 145.89,-805.18 149,-801 241.57,-676.43 112.94,-228.45 207,-105 209.99,-101.08 213.56,-97.69 217.51,-94.75"/>
<polygon fill="#4a6fa5" stroke="#4a6fa5" points="218.89,-96.36 222.71,-91.28 216.55,-92.87 218.89,-96.36"/>
</g>
<!-- Node0x58565a1bb080 -->
<g id="node33" class="node">
<title>Node0x58565a1bb080</title>
<path fill="#f0f4ff" stroke="black" d="M323.5,-36C323.5,-36 250.5,-36 250.5,-36 244.5,-36 238.5,-30 238.5,-24 238.5,-24 238.5,-12 238.5,-12 238.5,-6 244.5,0 250.5,0 250.5,0 323.5,0 323.5,0 329.5,0 335.5,-6 335.5,-12 335.5,-12 335.5,-24 335.5,-24 335.5,-30 329.5,-36 323.5,-36"/>
<text text-anchor="middle" x="287" y="-15.8" font-family="Courier,monospace" font-size="9.00">CTiffImg::Open()</text>
</g>
<!-- Node0x58565a00def0&#45;&gt;Node0x58565a1bb080 -->
<g id="edge29" class="edge">
<title>Node0x58565a00def0&#45;&gt;Node0x58565a1bb080</title>
<path fill="none" stroke="#4a6fa5" d="M137.89,-811.85C142.11,-808.78 145.9,-805.19 149,-801 248.8,-665.8 105.58,-181 207,-47 213.41,-38.53 222.56,-32.53 232.36,-28.28"/>
<polygon fill="#4a6fa5" stroke="#4a6fa5" points="233.39,-30.13 238.2,-25.98 231.85,-26.23 233.39,-30.13"/>
</g>
<!-- Node0x58565a1e39a0 -->
<g id="node35" class="node">
<title>Node0x58565a1e39a0</title>
<path fill="#f0f4ff" stroke="black" d="M494,-1544C494,-1544 437,-1544 437,-1544 431,-1544 425,-1538 425,-1532 425,-1532 425,-1520 425,-1520 425,-1514 431,-1508 437,-1508 437,-1508 494,-1508 494,-1508 500,-1508 506,-1514 506,-1520 506,-1520 506,-1532 506,-1532 506,-1538 500,-1544 494,-1544"/>
<text text-anchor="middle" x="465.5" y="-1523.8" font-family="Courier,monospace" font-size="9.00">get_deleter()</text>
</g>
<!-- Node0x58565a1cd640&#45;&gt;Node0x58565a1e39a0 -->
<g id="edge30" class="edge">
<title>Node0x58565a1cd640&#45;&gt;Node0x58565a1e39a0</title>
<path fill="none" stroke="#4a6fa5" d="M325,-1526C352.27,-1526 389.54,-1526 418.7,-1526"/>
<polygon fill="#4a6fa5" stroke="#4a6fa5" points="418.79,-1528.1 424.79,-1526 418.79,-1523.9 418.79,-1528.1"/>
</g>
<!-- Node0x58565a1d5dc0 -->
<g id="node34" class="node">
<title>Node0x58565a1d5dc0</title>
<path fill="#f0f4ff" stroke="black" d="M89.5,-986C89.5,-986 59.5,-986 59.5,-986 53.5,-986 47.5,-980 47.5,-974 47.5,-974 47.5,-962 47.5,-962 47.5,-956 53.5,-950 59.5,-950 59.5,-950 89.5,-950 89.5,-950 95.5,-950 101.5,-956 101.5,-962 101.5,-962 101.5,-974 101.5,-974 101.5,-980 95.5,-986 89.5,-986"/>
<text text-anchor="middle" x="74.5" y="-965.8" font-family="Courier,monospace" font-size="9.00">base()</text>
</g>
<!-- Node0x58565a1c6e30 -->
<g id="node36" class="node">
<title>Node0x58565a1c6e30</title>
<path fill="#f0f4ff" stroke="black" d="M118.5,-1203C118.5,-1203 30.5,-1203 30.5,-1203 24.5,-1203 18.5,-1197 18.5,-1191 18.5,-1191 18.5,-1179 18.5,-1179 18.5,-1173 24.5,-1167 30.5,-1167 30.5,-1167 118.5,-1167 118.5,-1167 124.5,-1167 130.5,-1173 130.5,-1179 130.5,-1179 130.5,-1191 130.5,-1191 130.5,-1197 124.5,-1203 118.5,-1203"/>
<text text-anchor="middle" x="74.5" y="-1182.8" font-family="Courier,monospace" font-size="9.00">__normal_iterator()</text>
</g>
<!-- Node0x58565a1c9e00 -->
<g id="node37" class="node">
<title>Node0x58565a1c9e00</title>
<path fill="#f0f4ff" stroke="black" d="M95,-1580C95,-1580 54,-1580 54,-1580 48,-1580 42,-1574 42,-1568 42,-1568 42,-1556 42,-1556 42,-1550 48,-1544 54,-1544 54,-1544 95,-1544 95,-1544 101,-1544 107,-1550 107,-1556 107,-1556 107,-1568 107,-1568 107,-1574 101,-1580 95,-1580"/>
<text text-anchor="middle" x="74.5" y="-1559.8" font-family="Courier,monospace" font-size="9.00">max_size()</text>
</g>
<!-- Node0x58565a1d97a0 -->
<g id="node38" class="node">
<title>Node0x58565a1d97a0</title>
<path fill="#f0f4ff" stroke="black" d="M113.5,-1718C113.5,-1718 35.5,-1718 35.5,-1718 29.5,-1718 23.5,-1712 23.5,-1706 23.5,-1706 23.5,-1694 23.5,-1694 23.5,-1688 29.5,-1682 35.5,-1682 35.5,-1682 113.5,-1682 113.5,-1682 119.5,-1682 125.5,-1688 125.5,-1694 125.5,-1694 125.5,-1706 125.5,-1706 125.5,-1712 119.5,-1718 113.5,-1718"/>
<text text-anchor="middle" x="74.5" y="-1697.8" font-family="Courier,monospace" font-size="9.00">__uniq_ptr_impl()</text>
</g>
<!-- Node0x58565a207580 -->
<g id="node39" class="node">
<title>Node0x58565a207580</title>
<path fill="#f0f4ff" stroke="black" d="M326,-1718C326,-1718 248,-1718 248,-1718 242,-1718 236,-1712 236,-1706 236,-1706 236,-1694 236,-1694 236,-1688 242,-1682 248,-1682 248,-1682 326,-1682 326,-1682 332,-1682 338,-1688 338,-1694 338,-1694 338,-1706 338,-1706 338,-1712 332,-1718 326,-1718"/>
<text text-anchor="middle" x="287" y="-1697.8" font-family="Courier,monospace" font-size="9.00">__uniq_ptr_impl()</text>
</g>
<!-- Node0x58565a1d97a0&#45;&gt;Node0x58565a207580 -->
<g id="edge31" class="edge">
<title>Node0x58565a1d97a0&#45;&gt;Node0x58565a207580</title>
<path fill="none" stroke="#4a6fa5" d="M125.65,-1700C156.89,-1700 197.14,-1700 229.51,-1700"/>
<polygon fill="#4a6fa5" stroke="#4a6fa5" points="229.87,-1702.1 235.87,-1700 229.87,-1697.9 229.87,-1702.1"/>
</g>
<!-- Node0x58565a1d3b90 -->
<g id="node40" class="node">
<title>Node0x58565a1d3b90</title>
<path fill="#f0f4ff" stroke="black" d="M90,-1776C90,-1776 59,-1776 59,-1776 53,-1776 47,-1770 47,-1764 47,-1764 47,-1752 47,-1752 47,-1746 53,-1740 59,-1740 59,-1740 90,-1740 90,-1740 96,-1740 102,-1746 102,-1752 102,-1752 102,-1764 102,-1764 102,-1770 96,-1776 90,-1776"/>
<text text-anchor="middle" x="74.5" y="-1755.8" font-family="Courier,monospace" font-size="9.00">length()</text>
</g>
<!-- Node0x58565a21ff80 -->
<g id="node41" class="node">
<title>Node0x58565a21ff80</title>
<path fill="#f0f4ff" stroke="black" d="M111,-1834C111,-1834 38,-1834 38,-1834 32,-1834 26,-1828 26,-1822 26,-1822 26,-1810 26,-1810 26,-1804 32,-1798 38,-1798 38,-1798 111,-1798 111,-1798 117,-1798 123,-1804 123,-1810 123,-1810 123,-1822 123,-1822 123,-1828 117,-1834 111,-1834"/>
<text text-anchor="middle" x="74.5" y="-1813.8" font-family="Courier,monospace" font-size="9.00">_Guard::_Guard()</text>
</g>
<!-- Node0x58565a21bbf0 -->
<g id="node42" class="node">
<title>Node0x58565a21bbf0</title>
<path fill="#f0f4ff" stroke="black" d="M113.5,-1892C113.5,-1892 35.5,-1892 35.5,-1892 29.5,-1892 23.5,-1886 23.5,-1880 23.5,-1880 23.5,-1868 23.5,-1868 23.5,-1862 29.5,-1856 35.5,-1856 35.5,-1856 113.5,-1856 113.5,-1856 119.5,-1856 125.5,-1862 125.5,-1868 125.5,-1868 125.5,-1880 125.5,-1880 125.5,-1886 119.5,-1892 113.5,-1892"/>
<text text-anchor="middle" x="74.5" y="-1871.8" font-family="Courier,monospace" font-size="9.00">_Guard::~_Guard()</text>
</g>
</g>
</svg>
