<?xml version="1.0" encoding="UTF-8" standalone="no"?>
<!DOCTYPE svg PUBLIC "-//W3C//DTD SVG 1.1//EN"
 "http://www.w3.org/Graphics/SVG/1.1/DTD/svg11.dtd">
<!-- Generated by graphviz version 2.43.0 (0)
 -->
<!-- Title: Call graph: /home/h02332/po/research/call&#45;graph/cfl/icc_fromcube_fuzzer.ll Pages: 1 -->
<svg width="1008pt" height="1820pt"
 viewBox="0.00 0.00 1008.20 1820.20" xmlns="http://www.w3.org/2000/svg" xmlns:xlink="http://www.w3.org/1999/xlink">
<g id="graph0" class="graph" transform="scale(1 1) rotate(0) translate(21.6 1798.6)">
<title>Call graph: /home/h02332/po/research/call&#45;graph/cfl/icc_fromcube_fuzzer.ll</title>
<polygon fill="white" stroke="transparent" points="-21.6,21.6 -21.6,-1798.6 986.6,-1798.6 986.6,21.6 -21.6,21.6"/>
<!-- Node0x55a39a7e3880 -->
<g id="node1" class="node">
<title>Node0x55a39a7e3880</title>
<path fill="#f0f4ff" stroke="black" d="M116,-906C116,-906 12,-906 12,-906 6,-906 0,-900 0,-894 0,-894 0,-882 0,-882 0,-876 6,-870 12,-870 12,-870 116,-870 116,-870 122,-870 128,-876 128,-882 128,-882 128,-894 128,-894 128,-900 122,-906 116,-906"/>
<text text-anchor="middle" x="64" y="-885.8" font-family="Courier,monospace" font-size="9.00">LLVMFuzzerTestOneInput</text>
</g>
<!-- Node0x55a39a7e28f0 -->
<g id="node2" class="node">
<title>Node0x55a39a7e28f0</title>
<path fill="#f0f4ff" stroke="black" d="M378.5,-1775C378.5,-1775 321.5,-1775 321.5,-1775 315.5,-1775 309.5,-1769 309.5,-1763 309.5,-1763 309.5,-1751 309.5,-1751 309.5,-1745 315.5,-1739 321.5,-1739 321.5,-1739 378.5,-1739 378.5,-1739 384.5,-1739 390.5,-1745 390.5,-1751 390.5,-1751 390.5,-1763 390.5,-1763 390.5,-1769 384.5,-1775 378.5,-1775"/>
<text text-anchor="middle" x="350" y="-1754.8" font-family="Courier,monospace" font-size="9.00">fuzz_tmpdir()</text>
</g>
<!-- Node0x55a39a7e3880&#45;&gt;Node0x55a39a7e28f0 -->
<g id="edge1" class="edge">
<title>Node0x55a39a7e3880&#45;&gt;Node0x55a39a7e28f0</title>
<path fill="none" stroke="#4a6fa5" d="M117.44,-906.2C121.49,-909.27 125.12,-912.84 128,-917 230.82,-1065.57 65.1,-1593.73 186,-1728 214.82,-1760 265.74,-1764.48 303.02,-1762.69"/>
<polygon fill="#4a6fa5" stroke="#4a6fa5" points="303.48,-1764.76 309.34,-1762.32 303.23,-1760.57 303.48,-1764.76"/>
</g>
<!-- Node0x55a39a7e7670 -->
<g id="node3" class="node">
<title>Node0x55a39a7e7670</title>
<path fill="#f0f4ff" stroke="black" d="M389,-1717C389,-1717 311,-1717 311,-1717 305,-1717 299,-1711 299,-1705 299,-1705 299,-1693 299,-1693 299,-1687 305,-1681 311,-1681 311,-1681 389,-1681 389,-1681 395,-1681 401,-1687 401,-1693 401,-1693 401,-1705 401,-1705 401,-1711 395,-1717 389,-1717"/>
<text text-anchor="middle" x="350" y="-1696.8" font-family="Courier,monospace" font-size="9.00">fuzz_build_path()</text>
</g>
<!-- Node0x55a39a7e3880&#45;&gt;Node0x55a39a7e7670 -->
<g id="edge2" class="edge">
<title>Node0x55a39a7e3880&#45;&gt;Node0x55a39a7e7670</title>
<path fill="none" stroke="#4a6fa5" d="M117.41,-906.21C121.47,-909.28 125.11,-912.85 128,-917 223.89,-1054.74 73.36,-1545.59 186,-1670 212.26,-1699 256.68,-1705.36 292.52,-1704.96"/>
<polygon fill="#4a6fa5" stroke="#4a6fa5" points="292.7,-1707.05 298.65,-1704.82 292.61,-1702.86 292.7,-1707.05"/>
</g>
<!-- Node0x55a39a7e7700 -->
<g id="node4" class="node">
<title>Node0x55a39a7e7700</title>
<path fill="#f0f4ff" stroke="black" d="M365,-1659C365,-1659 335,-1659 335,-1659 329,-1659 323,-1653 323,-1647 323,-1647 323,-1635 323,-1635 323,-1629 329,-1623 335,-1623 335,-1623 365,-1623 365,-1623 371,-1623 377,-1629 377,-1635 377,-1635 377,-1647 377,-1647 377,-1653 371,-1659 365,-1659"/>
<text text-anchor="middle" x="350" y="-1638.8" font-family="Courier,monospace" font-size="9.00">mkstemp</text>
</g>
<!-- Node0x55a39a7e3880&#45;&gt;Node0x55a39a7e7700 -->
<g id="edge3" class="edge">
<title>Node0x55a39a7e3880&#45;&gt;Node0x55a39a7e7700</title>
<path fill="none" stroke="#4a6fa5" d="M117.09,-906.02C121.28,-909.13 125.03,-912.76 128,-917 216.95,-1043.91 81.61,-1497.45 186,-1612 218.67,-1647.85 279.09,-1649.04 316.48,-1645.68"/>
<polygon fill="#4a6fa5" stroke="#4a6fa5" points="316.97,-1647.75 322.73,-1645.06 316.55,-1643.57 316.97,-1647.75"/>
</g>
<!-- Node0x55a39a6d5930 -->
<g id="node5" class="node">
<title>Node0x55a39a6d5930</title>
<path fill="#f0f4ff" stroke="black" d="M397,-1601C397,-1601 303,-1601 303,-1601 297,-1601 291,-1595 291,-1589 291,-1589 291,-1577 291,-1577 291,-1571 297,-1565 303,-1565 303,-1565 397,-1565 397,-1565 403,-1565 409,-1571 409,-1577 409,-1577 409,-1589 409,-1589 409,-1595 403,-1601 397,-1601"/>
<text text-anchor="middle" x="350" y="-1580.8" font-family="Courier,monospace" font-size="9.00">CubeFile::CubeFile()</text>
</g>
<!-- Node0x55a39a7e3880&#45;&gt;Node0x55a39a6d5930 -->
<g id="edge4" class="edge">
<title>Node0x55a39a7e3880&#45;&gt;Node0x55a39a6d5930</title>
<path fill="none" stroke="#4a6fa5" d="M117.06,-906.04C121.25,-909.15 125.01,-912.77 128,-917 210.02,-1033.09 89.87,-1449.3 186,-1554 210.52,-1580.71 250.46,-1588.14 284.66,-1588.8"/>
<polygon fill="#4a6fa5" stroke="#4a6fa5" points="284.96,-1590.9 290.97,-1588.85 284.99,-1586.7 284.96,-1590.9"/>
</g>
<!-- Node0x55a39a6af190 -->
<g id="node6" class="node">
<title>Node0x55a39a6af190</title>
<path fill="#f0f4ff" stroke="black" d="M404.5,-1474C404.5,-1474 295.5,-1474 295.5,-1474 289.5,-1474 283.5,-1468 283.5,-1462 283.5,-1462 283.5,-1450 283.5,-1450 283.5,-1444 289.5,-1438 295.5,-1438 295.5,-1438 404.5,-1438 404.5,-1438 410.5,-1438 416.5,-1444 416.5,-1450 416.5,-1450 416.5,-1462 416.5,-1462 416.5,-1468 410.5,-1474 404.5,-1474"/>
<text text-anchor="middle" x="350" y="-1453.8" font-family="Courier,monospace" font-size="9.00">CubeFile::parseHeader()</text>
</g>
<!-- Node0x55a39a7e3880&#45;&gt;Node0x55a39a6af190 -->
<g id="edge5" class="edge">
<title>Node0x55a39a7e3880&#45;&gt;Node0x55a39a6af190</title>
<path fill="none" stroke="#4a6fa5" d="M116.96,-906.11C121.17,-909.2 124.96,-912.81 128,-917 260.29,-1099.59 34.47,-1254.03 186,-1421 208.8,-1446.12 244.89,-1455.58 277.32,-1458.44"/>
<polygon fill="#4a6fa5" stroke="#4a6fa5" points="277.18,-1460.54 283.33,-1458.91 277.51,-1456.35 277.18,-1460.54"/>
</g>
<!-- Node0x55a39a7f3770 -->
<g id="node7" class="node">
<title>Node0x55a39a7f3770</title>
<path fill="#f0f4ff" stroke="black" d="M399.5,-1370C399.5,-1370 300.5,-1370 300.5,-1370 294.5,-1370 288.5,-1364 288.5,-1358 288.5,-1358 288.5,-1346 288.5,-1346 288.5,-1340 294.5,-1334 300.5,-1334 300.5,-1334 399.5,-1334 399.5,-1334 405.5,-1334 411.5,-1340 411.5,-1346 411.5,-1346 411.5,-1358 411.5,-1358 411.5,-1364 405.5,-1370 399.5,-1370"/>
<text text-anchor="middle" x="350" y="-1349.8" font-family="Courier,monospace" font-size="9.00">CubeFile::~CubeFile()</text>
</g>
<!-- Node0x55a39a7e3880&#45;&gt;Node0x55a39a7f3770 -->
<g id="edge6" class="edge">
<title>Node0x55a39a7e3880&#45;&gt;Node0x55a39a7f3770</title>
<path fill="none" stroke="#4a6fa5" d="M116.84,-906.2C121.07,-909.27 124.91,-912.85 128,-917 236.95,-1063.13 59.33,-1191.93 186,-1323 210.44,-1348.29 248.77,-1356.03 282.12,-1357.22"/>
<polygon fill="#4a6fa5" stroke="#4a6fa5" points="282.23,-1359.32 288.28,-1357.37 282.33,-1355.12 282.23,-1359.32"/>
</g>
<!-- Node0x55a39a74f3d0 -->
<g id="node8" class="node">
<title>Node0x55a39a74f3d0</title>
<path fill="#f0f4ff" stroke="black" d="M399.5,-1312C399.5,-1312 300.5,-1312 300.5,-1312 294.5,-1312 288.5,-1306 288.5,-1300 288.5,-1300 288.5,-1288 288.5,-1288 288.5,-1282 294.5,-1276 300.5,-1276 300.5,-1276 399.5,-1276 399.5,-1276 405.5,-1276 411.5,-1282 411.5,-1288 411.5,-1288 411.5,-1300 411.5,-1300 411.5,-1306 405.5,-1312 399.5,-1312"/>
<text text-anchor="middle" x="350" y="-1291.8" font-family="Courier,monospace" font-size="9.00">CubeFile::sizeLut3D()</text>
</g>
<!-- Node0x55a39a7e3880&#45;&gt;Node0x55a39a74f3d0 -->
<g id="edge7" class="edge">
<title>Node0x55a39a7e3880&#45;&gt;Node0x55a39a74f3d0</title>
<path fill="none" stroke="#4a6fa5" d="M116.44,-906.06C120.81,-909.17 124.78,-912.79 128,-917 223.18,-1041.61 75.73,-1153.52 186,-1265 210.64,-1289.91 248.78,-1297.67 281.97,-1298.97"/>
<polygon fill="#4a6fa5" stroke="#4a6fa5" points="282.05,-1301.07 288.11,-1299.14 282.17,-1296.88 282.05,-1301.07"/>
</g>
<!-- Node0x55a39a7f3c70 -->
<g id="node9" class="node">
<title>Node0x55a39a7f3c70</title>
<path fill="#f0f4ff" stroke="black" d="M415,-1254C415,-1254 285,-1254 285,-1254 279,-1254 273,-1248 273,-1242 273,-1242 273,-1230 273,-1230 273,-1224 279,-1218 285,-1218 285,-1218 415,-1218 415,-1218 421,-1218 427,-1224 427,-1230 427,-1230 427,-1242 427,-1242 427,-1248 421,-1254 415,-1254"/>
<text text-anchor="middle" x="350" y="-1233.8" font-family="Courier,monospace" font-size="9.00">CIccProfile::~CIccProfile()</text>
</g>
<!-- Node0x55a39a7e3880&#45;&gt;Node0x55a39a7f3c70 -->
<g id="edge8" class="edge">
<title>Node0x55a39a7e3880&#45;&gt;Node0x55a39a7f3c70</title>
<path fill="none" stroke="#4a6fa5" d="M116.3,-906.17C120.7,-909.26 124.72,-912.84 128,-917 209.46,-1020.16 92.07,-1115.05 186,-1207 207.19,-1227.74 237.77,-1236.48 266.73,-1239.51"/>
<polygon fill="#4a6fa5" stroke="#4a6fa5" points="266.72,-1241.62 272.89,-1240.08 267.1,-1237.44 266.72,-1241.62"/>
</g>
<!-- Node0x55a39a6ff7e0 -->
<g id="node10" class="node">
<title>Node0x55a39a6ff7e0</title>
<path fill="#f0f4ff" stroke="black" d="M412.5,-1196C412.5,-1196 287.5,-1196 287.5,-1196 281.5,-1196 275.5,-1190 275.5,-1184 275.5,-1184 275.5,-1172 275.5,-1172 275.5,-1166 281.5,-1160 287.5,-1160 287.5,-1160 412.5,-1160 412.5,-1160 418.5,-1160 424.5,-1166 424.5,-1172 424.5,-1172 424.5,-1184 424.5,-1184 424.5,-1190 418.5,-1196 412.5,-1196"/>
<text text-anchor="middle" x="350" y="-1175.8" font-family="Courier,monospace" font-size="9.00">CIccProfile::CIccProfile()</text>
</g>
<!-- Node0x55a39a7e3880&#45;&gt;Node0x55a39a6ff7e0 -->
<g id="edge9" class="edge">
<title>Node0x55a39a7e3880&#45;&gt;Node0x55a39a6ff7e0</title>
<path fill="none" stroke="#4a6fa5" d="M115.8,-906.13C120.35,-909.23 124.54,-912.83 128,-917 195.83,-998.82 108.3,-1076.48 186,-1149 208.17,-1169.69 239.75,-1178.25 269.21,-1181.17"/>
<polygon fill="#4a6fa5" stroke="#4a6fa5" points="269.31,-1183.28 275.47,-1181.71 269.67,-1179.1 269.31,-1183.28"/>
</g>
<!-- Node0x55a39a6eb990 -->
<g id="node11" class="node">
<title>Node0x55a39a6eb990</title>
<path fill="#f0f4ff" stroke="black" d="M410,-1138C410,-1138 290,-1138 290,-1138 284,-1138 278,-1132 278,-1126 278,-1126 278,-1114 278,-1114 278,-1108 284,-1102 290,-1102 290,-1102 410,-1102 410,-1102 416,-1102 422,-1108 422,-1114 422,-1114 422,-1126 422,-1126 422,-1132 416,-1138 410,-1138"/>
<text text-anchor="middle" x="350" y="-1117.8" font-family="Courier,monospace" font-size="9.00">CIccProfile::InitHeader()</text>
</g>
<!-- Node0x55a39a7e3880&#45;&gt;Node0x55a39a6eb990 -->
<g id="edge10" class="edge">
<title>Node0x55a39a7e3880&#45;&gt;Node0x55a39a6eb990</title>
<path fill="none" stroke="#4a6fa5" d="M115.17,-906.2C119.9,-909.3 124.3,-912.87 128,-917 182.4,-977.71 124.32,-1037.71 186,-1091 209.35,-1111.18 241.79,-1119.53 271.58,-1122.43"/>
<polygon fill="#4a6fa5" stroke="#4a6fa5" points="271.73,-1124.55 277.89,-1122.97 272.09,-1120.36 271.73,-1124.55"/>
</g>
<!-- Node0x55a39a7ed9f0 -->
<g id="node12" class="node">
<title>Node0x55a39a7ed9f0</title>
<path fill="#f0f4ff" stroke="black" d="M491.5,-1080C491.5,-1080 208.5,-1080 208.5,-1080 202.5,-1080 196.5,-1074 196.5,-1068 196.5,-1068 196.5,-1056 196.5,-1056 196.5,-1050 202.5,-1044 208.5,-1044 208.5,-1044 491.5,-1044 491.5,-1044 497.5,-1044 503.5,-1050 503.5,-1056 503.5,-1056 503.5,-1068 503.5,-1068 503.5,-1074 497.5,-1080 491.5,-1080"/>
<text text-anchor="middle" x="350" y="-1059.8" font-family="Courier,monospace" font-size="9.00">CIccTagMultiProcessElement::CIccTagMultiProcessElement()</text>
</g>
<!-- Node0x55a39a7e3880&#45;&gt;Node0x55a39a7ed9f0 -->
<g id="edge11" class="edge">
<title>Node0x55a39a7e3880&#45;&gt;Node0x55a39a7ed9f0</title>
<path fill="none" stroke="#4a6fa5" d="M113.65,-906.17C118.84,-909.3 123.76,-912.9 128,-917 169.41,-957.1 139.82,-998.5 186,-1033 189.89,-1035.9 193.97,-1038.55 198.2,-1040.96"/>
<polygon fill="#4a6fa5" stroke="#4a6fa5" points="197.37,-1042.89 203.65,-1043.89 199.36,-1039.2 197.37,-1042.89"/>
</g>
<!-- Node0x55a39a7f18e0 -->
<g id="node13" class="node">
<title>Node0x55a39a7f18e0</title>
<path fill="#f0f4ff" stroke="black" d="M386.5,-1022C386.5,-1022 313.5,-1022 313.5,-1022 307.5,-1022 301.5,-1016 301.5,-1010 301.5,-1010 301.5,-998 301.5,-998 301.5,-992 307.5,-986 313.5,-986 313.5,-986 386.5,-986 386.5,-986 392.5,-986 398.5,-992 398.5,-998 398.5,-998 398.5,-1010 398.5,-1010 398.5,-1016 392.5,-1022 386.5,-1022"/>
<text text-anchor="middle" x="350" y="-1001.8" font-family="Courier,monospace" font-size="9.00">SaveIccProfile()</text>
</g>
<!-- Node0x55a39a7e3880&#45;&gt;Node0x55a39a7f18e0 -->
<g id="edge12" class="edge">
<title>Node0x55a39a7e3880&#45;&gt;Node0x55a39a7f18e0</title>
<path fill="none" stroke="#4a6fa5" d="M109.48,-906.05C115.9,-909.34 122.27,-913.01 128,-917 157.91,-937.84 153.68,-958.14 186,-975 219.71,-992.58 262.1,-999.74 295.2,-1002.55"/>
<polygon fill="#4a6fa5" stroke="#4a6fa5" points="295.12,-1004.65 301.27,-1003.02 295.45,-1000.46 295.12,-1004.65"/>
</g>
<!-- Node0x55a39a6af920 -->
<g id="node14" class="node">
<title>Node0x55a39a6af920</title>
<path fill="#f0f4ff" stroke="black" d="M423,-964C423,-964 277,-964 277,-964 271,-964 265,-958 265,-952 265,-952 265,-940 265,-940 265,-934 271,-928 277,-928 277,-928 423,-928 423,-928 429,-928 435,-934 435,-940 435,-940 435,-952 435,-952 435,-958 429,-964 423,-964"/>
<text text-anchor="middle" x="350" y="-943.8" font-family="Courier,monospace" font-size="9.00">CubeFile::isCustomInputRange()</text>
</g>
<!-- Node0x55a39a7e3880&#45;&gt;Node0x55a39a6af920 -->
<g id="edge13" class="edge">
<title>Node0x55a39a7e3880&#45;&gt;Node0x55a39a6af920</title>
<path fill="none" stroke="#4a6fa5" d="M128.27,-903.91C146.82,-908.37 167.18,-913.07 186,-917 209.47,-921.9 234.96,-926.68 258.65,-930.91"/>
<polygon fill="#4a6fa5" stroke="#4a6fa5" points="258.36,-932.99 264.64,-931.97 259.1,-928.85 258.36,-932.99"/>
</g>
<!-- Node0x55a39a6b22d0 -->
<g id="node15" class="node">
<title>Node0x55a39a6b22d0</title>
<path fill="#f0f4ff" stroke="black" d="M404.5,-906C404.5,-906 295.5,-906 295.5,-906 289.5,-906 283.5,-900 283.5,-894 283.5,-894 283.5,-882 283.5,-882 283.5,-876 289.5,-870 295.5,-870 295.5,-870 404.5,-870 404.5,-870 410.5,-870 416.5,-876 416.5,-882 416.5,-882 416.5,-894 416.5,-894 416.5,-900 410.5,-906 404.5,-906"/>
<text text-anchor="middle" x="350" y="-885.8" font-family="Courier,monospace" font-size="9.00">CubeFile::getMinInput()</text>
</g>
<!-- Node0x55a39a7e3880&#45;&gt;Node0x55a39a6b22d0 -->
<g id="edge14" class="edge">
<title>Node0x55a39a7e3880&#45;&gt;Node0x55a39a6b22d0</title>
<path fill="none" stroke="#4a6fa5" d="M128.03,-888C172.13,-888 231.14,-888 277.08,-888"/>
<polygon fill="#4a6fa5" stroke="#4a6fa5" points="277.19,-890.1 283.19,-888 277.19,-885.9 277.19,-890.1"/>
</g>
<!-- Node0x55a39a7ee890 -->
<g id="node16" class="node">
<title>Node0x55a39a7ee890</title>
<path fill="#f0f4ff" stroke="black" d="M404.5,-848C404.5,-848 295.5,-848 295.5,-848 289.5,-848 283.5,-842 283.5,-836 283.5,-836 283.5,-824 283.5,-824 283.5,-818 289.5,-812 295.5,-812 295.5,-812 404.5,-812 404.5,-812 410.5,-812 416.5,-818 416.5,-824 416.5,-824 416.5,-836 416.5,-836 416.5,-842 410.5,-848 404.5,-848"/>
<text text-anchor="middle" x="350" y="-827.8" font-family="Courier,monospace" font-size="9.00">CubeFile::getMaxInput()</text>
</g>
<!-- Node0x55a39a7e3880&#45;&gt;Node0x55a39a7ee890 -->
<g id="edge15" class="edge">
<title>Node0x55a39a7e3880&#45;&gt;Node0x55a39a7ee890</title>
<path fill="none" stroke="#4a6fa5" d="M128.27,-872.09C146.82,-867.63 167.18,-862.93 186,-859 215.82,-852.78 248.87,-846.74 277.38,-841.8"/>
<polygon fill="#4a6fa5" stroke="#4a6fa5" points="277.84,-843.85 283.4,-840.76 277.13,-839.71 277.84,-843.85"/>
</g>
<!-- Node0x55a39a6b3410 -->
<g id="node17" class="node">
<title>Node0x55a39a6b3410</title>
<path fill="#f0f4ff" stroke="black" d="M407.5,-790C407.5,-790 292.5,-790 292.5,-790 286.5,-790 280.5,-784 280.5,-778 280.5,-778 280.5,-766 280.5,-766 280.5,-760 286.5,-754 292.5,-754 292.5,-754 407.5,-754 407.5,-754 413.5,-754 419.5,-760 419.5,-766 419.5,-766 419.5,-778 419.5,-778 419.5,-784 413.5,-790 407.5,-790"/>
<text text-anchor="middle" x="350" y="-769.8" font-family="Courier,monospace" font-size="9.00">CIccProfile::AttachTag()</text>
</g>
<!-- Node0x55a39a7e3880&#45;&gt;Node0x55a39a6b3410 -->
<g id="edge16" class="edge">
<title>Node0x55a39a7e3880&#45;&gt;Node0x55a39a6b3410</title>
<path fill="none" stroke="#4a6fa5" d="M84.27,-869.86C106.83,-849.71 146.2,-817.82 186,-801 213.69,-789.3 245.95,-782.32 274.43,-778.16"/>
<polygon fill="#4a6fa5" stroke="#4a6fa5" points="274.8,-780.23 280.45,-777.31 274.21,-776.07 274.8,-780.23"/>
</g>
<!-- Node0x55a39a7f2ff0 -->
<g id="node18" class="node">
<title>Node0x55a39a7f2ff0</title>
<path fill="#f0f4ff" stroke="black" d="M446.5,-732C446.5,-732 253.5,-732 253.5,-732 247.5,-732 241.5,-726 241.5,-720 241.5,-720 241.5,-708 241.5,-708 241.5,-702 247.5,-696 253.5,-696 253.5,-696 446.5,-696 446.5,-696 452.5,-696 458.5,-702 458.5,-708 458.5,-708 458.5,-720 458.5,-720 458.5,-726 452.5,-732 446.5,-732"/>
<text text-anchor="middle" x="350" y="-711.8" font-family="Courier,monospace" font-size="9.00">CIccTagMultiLocalizedUnicode::SetText()</text>
</g>
<!-- Node0x55a39a7e3880&#45;&gt;Node0x55a39a7f2ff0 -->
<g id="edge17" class="edge">
<title>Node0x55a39a7e3880&#45;&gt;Node0x55a39a7f2ff0</title>
<path fill="none" stroke="#4a6fa5" d="M74.51,-869.79C91.99,-838.31 132.4,-774.1 186,-743 201.08,-734.25 218.16,-728.02 235.45,-723.61"/>
<polygon fill="#4a6fa5" stroke="#4a6fa5" points="235.98,-725.64 241.32,-722.18 234.99,-721.56 235.98,-725.64"/>
</g>
<!-- Node0x55a39a7ee720 -->
<g id="node19" class="node">
<title>Node0x55a39a7ee720</title>
<path fill="#f0f4ff" stroke="black" d="M433.5,-674C433.5,-674 266.5,-674 266.5,-674 260.5,-674 254.5,-668 254.5,-662 254.5,-662 254.5,-650 254.5,-650 254.5,-644 260.5,-638 266.5,-638 266.5,-638 433.5,-638 433.5,-638 439.5,-638 445.5,-644 445.5,-650 445.5,-650 445.5,-662 445.5,-662 445.5,-668 439.5,-674 433.5,-674"/>
<text text-anchor="middle" x="350" y="-653.8" font-family="Courier,monospace" font-size="9.00">CIccMpeCurveSet::CIccMpeCurveSet()</text>
</g>
<!-- Node0x55a39a7e3880&#45;&gt;Node0x55a39a7ee720 -->
<g id="edge18" class="edge">
<title>Node0x55a39a7e3880&#45;&gt;Node0x55a39a7ee720</title>
<path fill="none" stroke="#4a6fa5" d="M70.15,-869.8C82.61,-829.31 118.49,-731.65 186,-685 204.34,-672.33 226.53,-664.67 248.56,-660.15"/>
<polygon fill="#4a6fa5" stroke="#4a6fa5" points="248.96,-662.21 254.46,-659.02 248.17,-658.09 248.96,-662.21"/>
</g>
<!-- Node0x55a39a6b38e0 -->
<g id="node20" class="node">
<title>Node0x55a39a6b38e0</title>
<path fill="#f0f4ff" stroke="black" d="M929,-1297C929,-1297 899,-1297 899,-1297 893,-1297 887,-1291 887,-1285 887,-1285 887,-1273 887,-1273 887,-1267 893,-1261 899,-1261 899,-1261 929,-1261 929,-1261 935,-1261 941,-1267 941,-1273 941,-1273 941,-1285 941,-1285 941,-1291 935,-1297 929,-1297"/>
<text text-anchor="middle" x="914" y="-1276.8" font-family="Courier,monospace" font-size="9.00">c_str()</text>
</g>
<!-- Node0x55a39a7e3880&#45;&gt;Node0x55a39a6b38e0 -->
<g id="edge19" class="edge">
<title>Node0x55a39a7e3880&#45;&gt;Node0x55a39a6b38e0</title>
<path fill="none" stroke="#4a6fa5" d="M116.91,-906.14C121.13,-909.23 124.94,-912.82 128,-917 189.38,-1000.85 108.1,-1312.23 186,-1381 240.64,-1429.24 455.29,-1424.19 514,-1381 583.75,-1329.69 502.25,-1246.31 572,-1195 655.41,-1133.63 707.05,-1161.39 805,-1195 840.09,-1207.04 872.57,-1235.66 892.55,-1256.14"/>
<polygon fill="#4a6fa5" stroke="#4a6fa5" points="891.2,-1257.76 896.87,-1260.64 894.23,-1254.85 891.2,-1257.76"/>
</g>
<!-- Node0x55a39a7f2d70 -->
<g id="node21" class="node">
<title>Node0x55a39a7f2d70</title>
<path fill="#f0f4ff" stroke="black" d="M436,-616C436,-616 264,-616 264,-616 258,-616 252,-610 252,-604 252,-604 252,-592 252,-592 252,-586 258,-580 264,-580 264,-580 436,-580 436,-580 442,-580 448,-586 448,-592 448,-592 448,-604 448,-604 448,-610 442,-616 436,-616"/>
<text text-anchor="middle" x="350" y="-595.8" font-family="Courier,monospace" font-size="9.00">CubeFile::getCopyright[abi:cxx11]()</text>
</g>
<!-- Node0x55a39a7e3880&#45;&gt;Node0x55a39a7f2d70 -->
<g id="edge20" class="edge">
<title>Node0x55a39a7e3880&#45;&gt;Node0x55a39a7f2d70</title>
<path fill="none" stroke="#4a6fa5" d="M67.6,-869.91C75.53,-821.8 104.1,-690.09 186,-627 203.17,-613.77 224.37,-605.82 245.73,-601.19"/>
<polygon fill="#4a6fa5" stroke="#4a6fa5" points="246.3,-603.22 251.76,-599.97 245.46,-599.1 246.3,-603.22"/>
</g>
<!-- Node0x55a39a7f14f0 -->
<g id="node22" class="node">
<title>Node0x55a39a7f14f0</title>
<path fill="#f0f4ff" stroke="black" d="M502,-558C502,-558 198,-558 198,-558 192,-558 186,-552 186,-546 186,-546 186,-534 186,-534 186,-528 192,-522 198,-522 198,-522 502,-522 502,-522 508,-522 514,-528 514,-534 514,-534 514,-546 514,-546 514,-552 508,-558 502,-558"/>
<text text-anchor="middle" x="350" y="-537.8" font-family="Courier,monospace" font-size="9.00">CIccTagMultiLocalizedUnicode::CIccTagMultiLocalizedUnicode()</text>
</g>
<!-- Node0x55a39a7e3880&#45;&gt;Node0x55a39a7f14f0 -->
<g id="edge21" class="edge">
<title>Node0x55a39a7e3880&#45;&gt;Node0x55a39a7f14f0</title>
<path fill="none" stroke="#4a6fa5" d="M65.95,-869.68C69.88,-814.53 89.55,-648.95 186,-569 189.42,-566.16 193.03,-563.56 196.78,-561.18"/>
<polygon fill="#4a6fa5" stroke="#4a6fa5" points="197.91,-562.95 201.98,-558.07 195.76,-559.35 197.91,-562.95"/>
</g>
<!-- Node0x55a39a6b2250 -->
<g id="node23" class="node">
<title>Node0x55a39a6b2250</title>
<path fill="#f0f4ff" stroke="black" d="M470.5,-500C470.5,-500 229.5,-500 229.5,-500 223.5,-500 217.5,-494 217.5,-488 217.5,-488 217.5,-476 217.5,-476 217.5,-470 223.5,-464 229.5,-464 229.5,-464 470.5,-464 470.5,-464 476.5,-464 482.5,-470 482.5,-476 482.5,-476 482.5,-488 482.5,-488 482.5,-494 476.5,-500 470.5,-500"/>
<text text-anchor="middle" x="350" y="-479.8" font-family="Courier,monospace" font-size="9.00">CIccSingleSampledCurve::CIccSingleSampledCurve()</text>
</g>
<!-- Node0x55a39a7e3880&#45;&gt;Node0x55a39a6b2250 -->
<g id="edge22" class="edge">
<title>Node0x55a39a7e3880&#45;&gt;Node0x55a39a6b2250</title>
<path fill="none" stroke="#4a6fa5" d="M64.75,-870C64.96,-808.99 74.45,-608.47 186,-511 193.69,-504.28 202.38,-498.87 211.66,-494.53"/>
<polygon fill="#4a6fa5" stroke="#4a6fa5" points="212.54,-496.44 217.18,-492.1 210.84,-492.59 212.54,-496.44"/>
</g>
<!-- Node0x55a39a6b3b10 -->
<g id="node24" class="node">
<title>Node0x55a39a6b3b10</title>
<path fill="#f0f4ff" stroke="black" d="M441.5,-442C441.5,-442 258.5,-442 258.5,-442 252.5,-442 246.5,-436 246.5,-430 246.5,-430 246.5,-418 246.5,-418 246.5,-412 252.5,-406 258.5,-406 258.5,-406 441.5,-406 441.5,-406 447.5,-406 453.5,-412 453.5,-418 453.5,-418 453.5,-430 453.5,-430 453.5,-436 447.5,-442 441.5,-442"/>
<text text-anchor="middle" x="350" y="-421.8" font-family="Courier,monospace" font-size="9.00">CubeFile::getDescription[abi:cxx11]()</text>
</g>
<!-- Node0x55a39a7e3880&#45;&gt;Node0x55a39a6b3b10 -->
<g id="edge23" class="edge">
<title>Node0x55a39a7e3880&#45;&gt;Node0x55a39a6b3b10</title>
<path fill="none" stroke="#4a6fa5" d="M67.46,-869.86C78,-795.03 121.69,-511.46 186,-453 201.1,-439.27 220.36,-430.93 240.31,-426.04"/>
<polygon fill="#4a6fa5" stroke="#4a6fa5" points="240.85,-428.07 246.24,-424.69 239.92,-423.98 240.85,-428.07"/>
</g>
<!-- Node0x55a39a6b3390 -->
<g id="node25" class="node">
<title>Node0x55a39a6b3390</title>
<path fill="#f0f4ff" stroke="black" d="M402,-384C402,-384 298,-384 298,-384 292,-384 286,-378 286,-372 286,-372 286,-360 286,-360 286,-354 292,-348 298,-348 298,-348 402,-348 402,-348 408,-348 414,-354 414,-360 414,-360 414,-372 414,-372 414,-378 408,-384 402,-384"/>
<text text-anchor="middle" x="350" y="-363.8" font-family="Courier,monospace" font-size="9.00">CIccMpeCLUT::SetCLUT()</text>
</g>
<!-- Node0x55a39a7e3880&#45;&gt;Node0x55a39a6b3390 -->
<g id="edge24" class="edge">
<title>Node0x55a39a7e3880&#45;&gt;Node0x55a39a6b3390</title>
<path fill="none" stroke="#4a6fa5" d="M66.82,-869.98C75.36,-789.33 113.99,-462.51 186,-395 210.67,-371.87 247.1,-363.88 279.26,-361.99"/>
<polygon fill="#4a6fa5" stroke="#4a6fa5" points="279.73,-364.07 285.63,-361.69 279.54,-359.88 279.73,-364.07"/>
</g>
<!-- Node0x55a39a6b3960 -->
<g id="node26" class="node">
<title>Node0x55a39a6b3960</title>
<path fill="#f0f4ff" stroke="black" d="M407.5,-1543C407.5,-1543 292.5,-1543 292.5,-1543 286.5,-1543 280.5,-1537 280.5,-1531 280.5,-1531 280.5,-1519 280.5,-1519 280.5,-1513 286.5,-1507 292.5,-1507 292.5,-1507 407.5,-1507 407.5,-1507 413.5,-1507 419.5,-1513 419.5,-1519 419.5,-1519 419.5,-1531 419.5,-1531 419.5,-1537 413.5,-1543 407.5,-1543"/>
<text text-anchor="middle" x="350" y="-1522.8" font-family="Courier,monospace" font-size="9.00">CubeFile::parse3DTable()</text>
</g>
<!-- Node0x55a39a7e3880&#45;&gt;Node0x55a39a6b3960 -->
<g id="edge25" class="edge">
<title>Node0x55a39a7e3880&#45;&gt;Node0x55a39a6b3960</title>
<path fill="none" stroke="#4a6fa5" d="M117.01,-906.07C121.21,-909.17 124.99,-912.79 128,-917 201.78,-1020.22 102.72,-1389.27 186,-1485 207.69,-1509.94 242.17,-1520.63 273.84,-1524.8"/>
<polygon fill="#4a6fa5" stroke="#4a6fa5" points="273.92,-1526.93 280.13,-1525.55 274.42,-1522.76 273.92,-1526.93"/>
</g>
<!-- Node0x55a39a6b2970 -->
<g id="node27" class="node">
<title>Node0x55a39a6b2970</title>
<path fill="#f0f4ff" stroke="black" d="M399.5,-326C399.5,-326 300.5,-326 300.5,-326 294.5,-326 288.5,-320 288.5,-314 288.5,-314 288.5,-302 288.5,-302 288.5,-296 294.5,-290 300.5,-290 300.5,-290 399.5,-290 399.5,-290 405.5,-290 411.5,-296 411.5,-302 411.5,-302 411.5,-314 411.5,-314 411.5,-320 405.5,-326 399.5,-326"/>
<text text-anchor="middle" x="350" y="-305.8" font-family="Courier,monospace" font-size="9.00">CIccCLUT::NumPoints()</text>
</g>
<!-- Node0x55a39a7e3880&#45;&gt;Node0x55a39a6b2970 -->
<g id="edge26" class="edge">
<title>Node0x55a39a7e3880&#45;&gt;Node0x55a39a6b2970</title>
<path fill="none" stroke="#4a6fa5" d="M66.33,-869.95C73.07,-783.58 106.28,-413.59 186,-337 211.17,-312.82 249.14,-305.05 282.1,-303.57"/>
<polygon fill="#4a6fa5" stroke="#4a6fa5" points="282.27,-305.67 288.2,-303.36 282.13,-301.47 282.27,-305.67"/>
</g>
<!-- Node0x55a39a7ef6c0 -->
<g id="node28" class="node">
<title>Node0x55a39a7ef6c0</title>
<path fill="#f0f4ff" stroke="black" d="M394,-268C394,-268 306,-268 306,-268 300,-268 294,-262 294,-256 294,-256 294,-244 294,-244 294,-238 300,-232 306,-232 306,-232 394,-232 394,-232 400,-232 406,-238 406,-244 406,-244 406,-256 406,-256 406,-262 400,-268 394,-268"/>
<text text-anchor="middle" x="350" y="-247.8" font-family="Courier,monospace" font-size="9.00">CIccCLUT::GetData()</text>
</g>
<!-- Node0x55a39a7e3880&#45;&gt;Node0x55a39a7ef6c0 -->
<g id="edge27" class="edge">
<title>Node0x55a39a7e3880&#45;&gt;Node0x55a39a7ef6c0</title>
<path fill="none" stroke="#4a6fa5" d="M65.93,-869.93C71,-778.15 98.53,-364.74 186,-279 212.38,-253.15 253.34,-245.94 287.61,-245.18"/>
<polygon fill="#4a6fa5" stroke="#4a6fa5" points="287.95,-247.27 293.92,-245.11 287.9,-243.07 287.95,-247.27"/>
</g>
<!-- Node0x55a39a7ef170 -->
<g id="node29" class="node">
<title>Node0x55a39a7ef170</title>
<path fill="#f0f4ff" stroke="black" d="M415,-210C415,-210 285,-210 285,-210 279,-210 273,-204 273,-198 273,-198 273,-186 273,-186 273,-180 279,-174 285,-174 285,-174 415,-174 415,-174 421,-174 427,-180 427,-186 427,-186 427,-198 427,-198 427,-204 421,-210 415,-210"/>
<text text-anchor="middle" x="350" y="-189.8" font-family="Courier,monospace" font-size="9.00">CIccMpeCurveSet::SetCurve()</text>
</g>
<!-- Node0x55a39a7e3880&#45;&gt;Node0x55a39a7ef170 -->
<g id="edge28" class="edge">
<title>Node0x55a39a7e3880&#45;&gt;Node0x55a39a7ef170</title>
<path fill="none" stroke="#4a6fa5" d="M65.59,-869.85C69.14,-772.79 90.76,-315.92 186,-221 207,-200.07 237.55,-191.3 266.53,-188.29"/>
<polygon fill="#4a6fa5" stroke="#4a6fa5" points="266.91,-190.36 272.69,-187.73 266.53,-186.18 266.91,-190.36"/>
</g>
<!-- Node0x55a39a6b26b0 -->
<g id="node30" class="node">
<title>Node0x55a39a6b26b0</title>
<path fill="#f0f4ff" stroke="black" d="M386.5,-152C386.5,-152 313.5,-152 313.5,-152 307.5,-152 301.5,-146 301.5,-140 301.5,-140 301.5,-128 301.5,-128 301.5,-122 307.5,-116 313.5,-116 313.5,-116 386.5,-116 386.5,-116 392.5,-116 398.5,-122 398.5,-128 398.5,-128 398.5,-140 398.5,-140 398.5,-146 392.5,-152 386.5,-152"/>
<text text-anchor="middle" x="350" y="-131.8" font-family="Courier,monospace" font-size="9.00">CIccCLUT::Init()</text>
</g>
<!-- Node0x55a39a7e3880&#45;&gt;Node0x55a39a6b26b0 -->
<g id="edge29" class="edge">
<title>Node0x55a39a7e3880&#45;&gt;Node0x55a39a6b26b0</title>
<path fill="none" stroke="#4a6fa5" d="M65.3,-869.98C67.4,-768.31 82.9,-267.21 186,-163 214,-134.7 259.4,-128.53 295.19,-128.83"/>
<polygon fill="#4a6fa5" stroke="#4a6fa5" points="295.26,-130.94 301.3,-128.95 295.34,-126.74 295.26,-130.94"/>
</g>
<!-- Node0x55a39a6b2b30 -->
<g id="node31" class="node">
<title>Node0x55a39a6b2b30</title>
<path fill="#f0f4ff" stroke="black" d="M397,-94C397,-94 303,-94 303,-94 297,-94 291,-88 291,-82 291,-82 291,-70 291,-70 291,-64 297,-58 303,-58 303,-58 397,-58 397,-58 403,-58 409,-64 409,-70 409,-70 409,-82 409,-82 409,-88 403,-94 397,-94"/>
<text text-anchor="middle" x="350" y="-73.8" font-family="Courier,monospace" font-size="9.00">CIccCLUT::CIccCLUT()</text>
</g>
<!-- Node0x55a39a7e3880&#45;&gt;Node0x55a39a6b2b30 -->
<g id="edge30" class="edge">
<title>Node0x55a39a7e3880&#45;&gt;Node0x55a39a6b2b30</title>
<path fill="none" stroke="#4a6fa5" d="M65.06,-869.96C65.81,-763.55 75.07,-218.49 186,-105 211.16,-79.26 250.7,-71.77 284.53,-70.82"/>
<polygon fill="#4a6fa5" stroke="#4a6fa5" points="284.81,-72.92 290.78,-70.72 284.75,-68.72 284.81,-72.92"/>
</g>
<!-- Node0x55a39a7eed50 -->
<g id="node32" class="node">
<title>Node0x55a39a7eed50</title>
<path fill="#f0f4ff" stroke="black" d="M412.5,-36C412.5,-36 287.5,-36 287.5,-36 281.5,-36 275.5,-30 275.5,-24 275.5,-24 275.5,-12 275.5,-12 275.5,-6 281.5,0 287.5,0 287.5,0 412.5,0 412.5,0 418.5,0 424.5,-6 424.5,-12 424.5,-12 424.5,-24 424.5,-24 424.5,-30 418.5,-36 412.5,-36"/>
<text text-anchor="middle" x="350" y="-15.8" font-family="Courier,monospace" font-size="9.00">CIccMpeCLUT::CIccMpeCLUT()</text>
</g>
<!-- Node0x55a39a7e3880&#45;&gt;Node0x55a39a7eed50 -->
<g id="edge31" class="edge">
<title>Node0x55a39a7e3880&#45;&gt;Node0x55a39a7eed50</title>
<path fill="none" stroke="#4a6fa5" d="M64.85,-869.74C64.33,-758.22 67.29,-169.72 186,-47 207.27,-25.01 239.03,-16.3 268.88,-13.61"/>
<polygon fill="#4a6fa5" stroke="#4a6fa5" points="269.39,-15.68 275.21,-13.13 269.07,-11.49 269.39,-15.68"/>
</g>
<!-- Node0x55a39a6af190&#45;&gt;Node0x55a39a6b38e0 -->
<g id="edge38" class="edge">
<title>Node0x55a39a6af190&#45;&gt;Node0x55a39a6b38e0</title>
<path fill="none" stroke="#4a6fa5" d="M416.64,-1451.27C447.78,-1446.75 484.54,-1437.99 514,-1421 547.26,-1401.83 538.59,-1375.9 572,-1357 663.88,-1305.04 702.51,-1336.24 805,-1311 830.86,-1304.63 859.77,-1295.98 881.17,-1289.28"/>
<polygon fill="#4a6fa5" stroke="#4a6fa5" points="881.91,-1291.25 887,-1287.45 880.64,-1287.24 881.91,-1291.25"/>
</g>
<!-- Node0x55a39a7f5650 -->
<g id="node33" class="node">
<title>Node0x55a39a7f5650</title>
<path fill="#f0f4ff" stroke="black" d="M725,-1242C725,-1242 652,-1242 652,-1242 646,-1242 640,-1236 640,-1230 640,-1230 640,-1218 640,-1218 640,-1212 646,-1206 652,-1206 652,-1206 725,-1206 725,-1206 731,-1206 737,-1212 737,-1218 737,-1218 737,-1230 737,-1230 737,-1236 731,-1242 725,-1242"/>
<text text-anchor="middle" x="688.5" y="-1221.8" font-family="Courier,monospace" font-size="9.00">CubeFile::open()</text>
</g>
<!-- Node0x55a39a6af190&#45;&gt;Node0x55a39a7f5650 -->
<g id="edge32" class="edge">
<title>Node0x55a39a6af190&#45;&gt;Node0x55a39a7f5650</title>
<path fill="none" stroke="#4a6fa5" d="M416.5,-1456.52C449.31,-1453.46 487.57,-1444.41 514,-1421 573.13,-1368.62 513.78,-1306.39 572,-1253 588.71,-1237.67 612.31,-1230.16 633.82,-1226.57"/>
<polygon fill="#4a6fa5" stroke="#4a6fa5" points="634.21,-1228.64 639.82,-1225.66 633.58,-1224.48 634.21,-1228.64"/>
</g>
<!-- Node0x55a39a7f4ed0 -->
<g id="node34" class="node">
<title>Node0x55a39a7f4ed0</title>
<path fill="#f0f4ff" stroke="black" d="M953,-1719C953,-1719 875,-1719 875,-1719 869,-1719 863,-1713 863,-1707 863,-1707 863,-1695 863,-1695 863,-1689 869,-1683 875,-1683 875,-1683 953,-1683 953,-1683 959,-1683 965,-1689 965,-1695 965,-1695 965,-1707 965,-1707 965,-1713 959,-1719 953,-1719"/>
<text text-anchor="middle" x="914" y="-1698.8" font-family="Courier,monospace" font-size="9.00">CubeFile::isEOF()</text>
</g>
<!-- Node0x55a39a6af190&#45;&gt;Node0x55a39a7f4ed0 -->
<g id="edge33" class="edge">
<title>Node0x55a39a6af190&#45;&gt;Node0x55a39a7f4ed0</title>
<path fill="none" stroke="#4a6fa5" d="M416.9,-1461.97C534.97,-1473.12 773.27,-1497.91 805,-1519 862.22,-1557.03 893.47,-1636.61 906.16,-1676.75"/>
<polygon fill="#4a6fa5" stroke="#4a6fa5" points="904.27,-1677.72 908.04,-1682.84 908.28,-1676.49 904.27,-1677.72"/>
</g>
<!-- Node0x55a39a7f4f50 -->
<g id="node35" class="node">
<title>Node0x55a39a7f4f50</title>
<path fill="#f0f4ff" stroke="black" d="M772,-1774C772,-1774 605,-1774 605,-1774 599,-1774 593,-1768 593,-1762 593,-1762 593,-1750 593,-1750 593,-1744 599,-1738 605,-1738 605,-1738 772,-1738 772,-1738 778,-1738 784,-1744 784,-1750 784,-1750 784,-1762 784,-1762 784,-1768 778,-1774 772,-1774"/>
<text text-anchor="middle" x="688.5" y="-1753.8" font-family="Courier,monospace" font-size="9.00">CubeFile::getNextLine[abi:cxx11]()</text>
</g>
<!-- Node0x55a39a6af190&#45;&gt;Node0x55a39a7f4f50 -->
<g id="edge34" class="edge">
<title>Node0x55a39a6af190&#45;&gt;Node0x55a39a7f4f50</title>
<path fill="none" stroke="#4a6fa5" d="M416.84,-1458.51C449.34,-1462.88 487.22,-1473.07 514,-1496 564.85,-1539.54 535.39,-1578.96 572,-1635 597.27,-1673.68 635.74,-1711.02 661.24,-1733.74"/>
<polygon fill="#4a6fa5" stroke="#4a6fa5" points="659.96,-1735.41 665.85,-1737.81 662.74,-1732.26 659.96,-1735.41"/>
</g>
<!-- Node0x55a39a7f21e0 -->
<g id="node36" class="node">
<title>Node0x55a39a7f21e0</title>
<path fill="#f0f4ff" stroke="black" d="M704,-1300C704,-1300 673,-1300 673,-1300 667,-1300 661,-1294 661,-1288 661,-1288 661,-1276 661,-1276 661,-1270 667,-1264 673,-1264 673,-1264 704,-1264 704,-1264 710,-1264 716,-1270 716,-1276 716,-1276 716,-1288 716,-1288 716,-1294 710,-1300 704,-1300"/>
<text text-anchor="middle" x="688.5" y="-1279.8" font-family="Courier,monospace" font-size="9.00">substr()</text>
</g>
<!-- Node0x55a39a6af190&#45;&gt;Node0x55a39a7f21e0 -->
<g id="edge35" class="edge">
<title>Node0x55a39a6af190&#45;&gt;Node0x55a39a7f21e0</title>
<path fill="none" stroke="#4a6fa5" d="M416.89,-1454.3C448.83,-1450.56 486.19,-1441.57 514,-1421 556.55,-1389.53 530.79,-1350.2 572,-1317 595.62,-1297.98 629.45,-1289.27 654.39,-1285.31"/>
<polygon fill="#4a6fa5" stroke="#4a6fa5" points="654.91,-1287.35 660.53,-1284.4 654.29,-1283.2 654.91,-1287.35"/>
</g>
<!-- Node0x55a39a7f8e60 -->
<g id="node37" class="node">
<title>Node0x55a39a7f8e60</title>
<path fill="#f0f4ff" stroke="black" d="M703.5,-1566C703.5,-1566 673.5,-1566 673.5,-1566 667.5,-1566 661.5,-1560 661.5,-1554 661.5,-1554 661.5,-1542 661.5,-1542 661.5,-1536 667.5,-1530 673.5,-1530 673.5,-1530 703.5,-1530 703.5,-1530 709.5,-1530 715.5,-1536 715.5,-1542 715.5,-1542 715.5,-1554 715.5,-1554 715.5,-1560 709.5,-1566 703.5,-1566"/>
<text text-anchor="middle" x="688.5" y="-1545.8" font-family="Courier,monospace" font-size="9.00">atof</text>
</g>
<!-- Node0x55a39a6af190&#45;&gt;Node0x55a39a7f8e60 -->
<g id="edge36" class="edge">
<title>Node0x55a39a6af190&#45;&gt;Node0x55a39a7f8e60</title>
<path fill="none" stroke="#4a6fa5" d="M416.63,-1471.31C446.44,-1478.46 482.09,-1487.31 514,-1496 527.76,-1499.75 609.1,-1524.28 655.36,-1538.27"/>
<polygon fill="#4a6fa5" stroke="#4a6fa5" points="655.02,-1540.36 661.37,-1540.09 656.23,-1536.34 655.02,-1540.36"/>
</g>
<!-- Node0x55a39a7f95e0 -->
<g id="node38" class="node">
<title>Node0x55a39a7f95e0</title>
<path fill="#f0f4ff" stroke="black" d="M732.5,-1624C732.5,-1624 644.5,-1624 644.5,-1624 638.5,-1624 632.5,-1618 632.5,-1612 632.5,-1612 632.5,-1600 632.5,-1600 632.5,-1594 638.5,-1588 644.5,-1588 644.5,-1588 732.5,-1588 732.5,-1588 738.5,-1588 744.5,-1594 744.5,-1600 744.5,-1600 744.5,-1612 744.5,-1612 744.5,-1618 738.5,-1624 732.5,-1624"/>
<text text-anchor="middle" x="688.5" y="-1603.8" font-family="Courier,monospace" font-size="9.00">CubeFile::getNext()</text>
</g>
<!-- Node0x55a39a6af190&#45;&gt;Node0x55a39a7f95e0 -->
<g id="edge37" class="edge">
<title>Node0x55a39a6af190&#45;&gt;Node0x55a39a7f95e0</title>
<path fill="none" stroke="#4a6fa5" d="M416.81,-1461.47C448.36,-1466.64 485.41,-1476.65 514,-1496 550.67,-1520.82 535.4,-1552.08 572,-1577 587.97,-1587.87 607.67,-1594.67 626.25,-1598.92"/>
<polygon fill="#4a6fa5" stroke="#4a6fa5" points="626.19,-1601.06 632.5,-1600.27 627.07,-1596.95 626.19,-1601.06"/>
</g>
<!-- Node0x55a39a7f90e0 -->
<g id="node39" class="node">
<title>Node0x55a39a7f90e0</title>
<path fill="#f0f4ff" stroke="black" d="M703.5,-1462C703.5,-1462 673.5,-1462 673.5,-1462 667.5,-1462 661.5,-1456 661.5,-1450 661.5,-1450 661.5,-1438 661.5,-1438 661.5,-1432 667.5,-1426 673.5,-1426 673.5,-1426 703.5,-1426 703.5,-1426 709.5,-1426 715.5,-1432 715.5,-1438 715.5,-1438 715.5,-1450 715.5,-1450 715.5,-1456 709.5,-1462 703.5,-1462"/>
<text text-anchor="middle" x="688.5" y="-1441.8" font-family="Courier,monospace" font-size="9.00">atoll</text>
</g>
<!-- Node0x55a39a6af190&#45;&gt;Node0x55a39a7f90e0 -->
<g id="edge39" class="edge">
<title>Node0x55a39a6af190&#45;&gt;Node0x55a39a7f90e0</title>
<path fill="none" stroke="#4a6fa5" d="M416.68,-1453.66C488.5,-1451.1 600.66,-1447.1 655.34,-1445.15"/>
<polygon fill="#4a6fa5" stroke="#4a6fa5" points="655.48,-1447.24 661.4,-1444.93 655.33,-1443.05 655.48,-1447.24"/>
</g>
<!-- Node0x55a39a7f4590 -->
<g id="node40" class="node">
<title>Node0x55a39a7f4590</title>
<path fill="#f0f4ff" stroke="black" d="M793,-1404C793,-1404 584,-1404 584,-1404 578,-1404 572,-1398 572,-1392 572,-1392 572,-1380 572,-1380 572,-1374 578,-1368 584,-1368 584,-1368 793,-1368 793,-1368 799,-1368 805,-1374 805,-1380 805,-1380 805,-1392 805,-1392 805,-1398 799,-1404 793,-1404"/>
<text text-anchor="middle" x="688.5" y="-1383.8" font-family="Courier,monospace" font-size="9.00">CubeFile::getTitle[abi:cxx11](char const*)</text>
</g>
<!-- Node0x55a39a6af190&#45;&gt;Node0x55a39a7f4590 -->
<g id="edge40" class="edge">
<title>Node0x55a39a6af190&#45;&gt;Node0x55a39a7f4590</title>
<path fill="none" stroke="#4a6fa5" d="M416.68,-1442.34C467.43,-1431.78 538.31,-1417.04 594.83,-1405.28"/>
<polygon fill="#4a6fa5" stroke="#4a6fa5" points="595.5,-1407.28 600.95,-1404.01 594.65,-1403.17 595.5,-1407.28"/>
</g>
<!-- Node0x55a39a7f9ae0 -->
<g id="node41" class="node">
<title>Node0x55a39a7f9ae0</title>
<path fill="#f0f4ff" stroke="black" d="M709,-964C709,-964 668,-964 668,-964 662,-964 656,-958 656,-952 656,-952 656,-940 656,-940 656,-934 662,-928 668,-928 668,-928 709,-928 709,-928 715,-928 721,-934 721,-940 721,-940 721,-952 721,-952 721,-958 715,-964 709,-964"/>
<text text-anchor="middle" x="688.5" y="-943.8" font-family="Courier,monospace" font-size="9.00">icIsNear()</text>
</g>
<!-- Node0x55a39a6af920&#45;&gt;Node0x55a39a7f9ae0 -->
<g id="edge41" class="edge">
<title>Node0x55a39a6af920&#45;&gt;Node0x55a39a7f9ae0</title>
<path fill="none" stroke="#4a6fa5" d="M435.05,-946C503.88,-946 598.06,-946 649.74,-946"/>
<polygon fill="#4a6fa5" stroke="#4a6fa5" points="649.82,-948.1 655.82,-946 649.82,-943.9 649.82,-948.1"/>
</g>
<!-- Node0x55a39a6b3960&#45;&gt;Node0x55a39a6b38e0 -->
<g id="edge44" class="edge">
<title>Node0x55a39a6b3960&#45;&gt;Node0x55a39a6b38e0</title>
<path fill="none" stroke="#4a6fa5" d="M419.83,-1525.69C450.62,-1528.79 486.16,-1536.44 514,-1554 551.45,-1577.62 532.62,-1614.76 572,-1635 618.05,-1658.67 763.41,-1665.84 805,-1635 859.89,-1594.29 897.83,-1377.63 909.34,-1303.72"/>
<polygon fill="#4a6fa5" stroke="#4a6fa5" points="911.47,-1303.68 910.31,-1297.43 907.32,-1303.04 911.47,-1303.68"/>
</g>
<!-- Node0x55a39a6b3960&#45;&gt;Node0x55a39a7f4ed0 -->
<g id="edge42" class="edge">
<title>Node0x55a39a6b3960&#45;&gt;Node0x55a39a7f4ed0</title>
<path fill="none" stroke="#4a6fa5" d="M419.71,-1523.4C451.19,-1525.91 487.34,-1533.74 514,-1554 561.48,-1590.09 522.78,-1641.33 572,-1675 657.32,-1733.36 784.31,-1724.37 856.83,-1712.64"/>
<polygon fill="#4a6fa5" stroke="#4a6fa5" points="857.24,-1714.7 862.82,-1711.64 856.55,-1710.56 857.24,-1714.7"/>
</g>
<!-- Node0x55a39a6b3960&#45;&gt;Node0x55a39a7f4f50 -->
<g id="edge43" class="edge">
<title>Node0x55a39a6b3960&#45;&gt;Node0x55a39a7f4f50</title>
<path fill="none" stroke="#4a6fa5" d="M419.54,-1522.01C451.55,-1524.11 488.2,-1531.99 514,-1554 573.77,-1604.99 515.34,-1666.57 572,-1721 577.72,-1726.49 584.27,-1731.13 591.29,-1735.04"/>
<polygon fill="#4a6fa5" stroke="#4a6fa5" points="590.45,-1736.97 596.74,-1737.89 592.39,-1733.25 590.45,-1736.97"/>
</g>
<!-- Node0x55a39a6b3960&#45;&gt;Node0x55a39a7f8e60 -->
<g id="edge45" class="edge">
<title>Node0x55a39a6b3960&#45;&gt;Node0x55a39a7f8e60</title>
<path fill="none" stroke="#4a6fa5" d="M419.5,-1529.68C491.33,-1534.59 601.13,-1542.1 655.17,-1545.79"/>
<polygon fill="#4a6fa5" stroke="#4a6fa5" points="655.34,-1547.91 661.47,-1546.22 655.63,-1543.72 655.34,-1547.91"/>
</g>
<!-- Node0x55a39a6b3960&#45;&gt;Node0x55a39a7f95e0 -->
<g id="edge46" class="edge">
<title>Node0x55a39a6b3960&#45;&gt;Node0x55a39a7f95e0</title>
<path fill="none" stroke="#4a6fa5" d="M419.5,-1534.04C448.9,-1538.73 483.45,-1545.32 514,-1554 540.68,-1561.58 545.61,-1568.49 572,-1577 589.5,-1582.64 608.79,-1587.86 626.5,-1592.28"/>
<polygon fill="#4a6fa5" stroke="#4a6fa5" points="626.11,-1594.34 632.44,-1593.74 627.12,-1590.27 626.11,-1594.34"/>
</g>
<!-- Node0x55a39a7f5650&#45;&gt;Node0x55a39a6b38e0 -->
<g id="edge47" class="edge">
<title>Node0x55a39a7f5650&#45;&gt;Node0x55a39a6b38e0</title>
<path fill="none" stroke="#4a6fa5" d="M737.17,-1235.73C780.44,-1246.38 843.06,-1261.79 880.72,-1271.06"/>
<polygon fill="#4a6fa5" stroke="#4a6fa5" points="880.67,-1273.21 887,-1272.6 881.67,-1269.13 880.67,-1273.21"/>
</g>
<!-- Node0x55a39a7f4f50&#45;&gt;Node0x55a39a7f4ed0 -->
<g id="edge48" class="edge">
<title>Node0x55a39a7f4f50&#45;&gt;Node0x55a39a7f4ed0</title>
<path fill="none" stroke="#4a6fa5" d="M762.68,-1737.99C793.35,-1730.44 828.43,-1721.81 856.98,-1714.79"/>
<polygon fill="#4a6fa5" stroke="#4a6fa5" points="857.65,-1716.78 862.97,-1713.31 856.64,-1712.71 857.65,-1716.78"/>
</g>
<!-- Node0x55a39a7ffe20 -->
<g id="node42" class="node">
<title>Node0x55a39a7ffe20</title>
<path fill="#f0f4ff" stroke="black" d="M929,-1777C929,-1777 899,-1777 899,-1777 893,-1777 887,-1771 887,-1765 887,-1765 887,-1753 887,-1753 887,-1747 893,-1741 899,-1741 899,-1741 929,-1741 929,-1741 935,-1741 941,-1747 941,-1753 941,-1753 941,-1765 941,-1765 941,-1771 935,-1777 929,-1777"/>
<text text-anchor="middle" x="914" y="-1756.8" font-family="Courier,monospace" font-size="9.00">fgetc</text>
</g>
<!-- Node0x55a39a7f4f50&#45;&gt;Node0x55a39a7ffe20 -->
<g id="edge49" class="edge">
<title>Node0x55a39a7f4f50&#45;&gt;Node0x55a39a7ffe20</title>
<path fill="none" stroke="#4a6fa5" d="M784.28,-1757.27C818.72,-1757.73 855.36,-1758.23 880.71,-1758.57"/>
<polygon fill="#4a6fa5" stroke="#4a6fa5" points="880.87,-1760.67 886.9,-1758.65 880.93,-1756.47 880.87,-1760.67"/>
</g>
<!-- Node0x55a39a7ffba0 -->
<g id="node43" class="node">
<title>Node0x55a39a7ffba0</title>
<path fill="#f0f4ff" stroke="black" d="M79.5,-964C79.5,-964 48.5,-964 48.5,-964 42.5,-964 36.5,-958 36.5,-952 36.5,-952 36.5,-940 36.5,-940 36.5,-934 42.5,-928 48.5,-928 48.5,-928 79.5,-928 79.5,-928 85.5,-928 91.5,-934 91.5,-940 91.5,-940 91.5,-952 91.5,-952 91.5,-958 85.5,-964 79.5,-964"/>
<text text-anchor="middle" x="64" y="-943.8" font-family="Courier,monospace" font-size="9.00">length()</text>
</g>
<!-- Node0x55a39a7ff760 -->
<g id="node44" class="node">
<title>Node0x55a39a7ff760</title>
<path fill="#f0f4ff" stroke="black" d="M82,-1022C82,-1022 46,-1022 46,-1022 40,-1022 34,-1016 34,-1010 34,-1010 34,-998 34,-998 34,-992 40,-986 46,-986 46,-986 82,-986 82,-986 88,-986 94,-992 94,-998 94,-998 94,-1010 94,-1010 94,-1016 88,-1022 82,-1022"/>
<text text-anchor="middle" x="64" y="-1001.8" font-family="Courier,monospace" font-size="9.00">compare()</text>
</g>
</g>
</svg>
