<?xml version="1.0" encoding="UTF-8" standalone="no"?>
<!DOCTYPE svg PUBLIC "-//W3C//DTD SVG 1.1//EN"
 "http://www.w3.org/Graphics/SVG/1.1/DTD/svg11.dtd">
<!-- Generated by graphviz version 2.43.0 (0)
 -->
<!-- Title: Call graph: /home/h02332/po/research/call&#45;graph/cfl/icc_v5dspobs_fuzzer.ll Pages: 1 -->
<svg width="557pt" height="1471pt"
 viewBox="0.00 0.00 557.20 1471.20" xmlns="http://www.w3.org/2000/svg" xmlns:xlink="http://www.w3.org/1999/xlink">
<g id="graph0" class="graph" transform="scale(1 1) rotate(0) translate(21.6 1449.6)">
<title>Call graph: /home/h02332/po/research/call&#45;graph/cfl/icc_v5dspobs_fuzzer.ll</title>
<polygon fill="white" stroke="transparent" points="-21.6,21.6 -21.6,-1449.6 535.6,-1449.6 535.6,21.6 -21.6,21.6"/>
<!-- Node0x60b2685b9280 -->
<g id="node1" class="node">
<title>Node0x60b2685b9280</title>
<path fill="#f0f4ff" stroke="black" d="M111,-674C111,-674 17,-674 17,-674 11,-674 5,-668 5,-662 5,-662 5,-650 5,-650 5,-644 11,-638 17,-638 17,-638 111,-638 111,-638 117,-638 123,-644 123,-650 123,-650 123,-662 123,-662 123,-668 117,-674 111,-674"/>
<text text-anchor="middle" x="64" y="-653.8" font-family="Courier,monospace" font-size="9.00">LLVMFuzzerInitialize</text>
</g>
<!-- Node0x60b2685d4480 -->
<g id="node2" class="node">
<title>Node0x60b2685d4480</title>
<path fill="#f0f4ff" stroke="black" d="M116,-732C116,-732 12,-732 12,-732 6,-732 0,-726 0,-720 0,-720 0,-708 0,-708 0,-702 6,-696 12,-696 12,-696 116,-696 116,-696 122,-696 128,-702 128,-708 128,-708 128,-720 128,-720 128,-726 122,-732 116,-732"/>
<text text-anchor="middle" x="64" y="-711.8" font-family="Courier,monospace" font-size="9.00">LLVMFuzzerTestOneInput</text>
</g>
<!-- Node0x60b26857e310 -->
<g id="node3" class="node">
<title>Node0x60b26857e310</title>
<path fill="#f0f4ff" stroke="black" d="M386.5,-1428C386.5,-1428 313.5,-1428 313.5,-1428 307.5,-1428 301.5,-1422 301.5,-1416 301.5,-1416 301.5,-1404 301.5,-1404 301.5,-1398 307.5,-1392 313.5,-1392 313.5,-1392 386.5,-1392 386.5,-1392 392.5,-1392 398.5,-1398 398.5,-1404 398.5,-1404 398.5,-1416 398.5,-1416 398.5,-1422 392.5,-1428 386.5,-1428"/>
<text text-anchor="middle" x="350" y="-1407.8" font-family="Courier,monospace" font-size="9.00">ReadIccProfile()</text>
</g>
<!-- Node0x60b2685d4480&#45;&gt;Node0x60b26857e310 -->
<g id="edge1" class="edge">
<title>Node0x60b2685d4480&#45;&gt;Node0x60b26857e310</title>
<path fill="none" stroke="#4a6fa5" d="M65.59,-732.15C69.14,-829.21 90.76,-1286.08 186,-1381 214.19,-1409.1 259.59,-1415.28 295.32,-1415.04"/>
<polygon fill="#4a6fa5" stroke="#4a6fa5" points="295.45,-1417.14 301.42,-1414.94 295.38,-1412.94 295.45,-1417.14"/>
</g>
<!-- Node0x60b268742b80 -->
<g id="node4" class="node">
<title>Node0x60b268742b80</title>
<path fill="#f0f4ff" stroke="black" d="M378.5,-1370C378.5,-1370 321.5,-1370 321.5,-1370 315.5,-1370 309.5,-1364 309.5,-1358 309.5,-1358 309.5,-1346 309.5,-1346 309.5,-1340 315.5,-1334 321.5,-1334 321.5,-1334 378.5,-1334 378.5,-1334 384.5,-1334 390.5,-1340 390.5,-1346 390.5,-1346 390.5,-1358 390.5,-1358 390.5,-1364 384.5,-1370 378.5,-1370"/>
<text text-anchor="middle" x="350" y="-1349.8" font-family="Courier,monospace" font-size="9.00">fuzz_tmpdir()</text>
</g>
<!-- Node0x60b2685d4480&#45;&gt;Node0x60b268742b80 -->
<g id="edge2" class="edge">
<title>Node0x60b2685d4480&#45;&gt;Node0x60b268742b80</title>
<path fill="none" stroke="#4a6fa5" d="M65.93,-732.07C71,-823.85 98.53,-1237.26 186,-1323 216.47,-1352.86 266.39,-1357.84 302.97,-1356.76"/>
<polygon fill="#4a6fa5" stroke="#4a6fa5" points="303.27,-1358.85 309.18,-1356.52 303.1,-1354.65 303.27,-1358.85"/>
</g>
<!-- Node0x60b2687ceb60 -->
<g id="node5" class="node">
<title>Node0x60b2687ceb60</title>
<path fill="#f0f4ff" stroke="black" d="M386.5,-1312C386.5,-1312 313.5,-1312 313.5,-1312 307.5,-1312 301.5,-1306 301.5,-1300 301.5,-1300 301.5,-1288 301.5,-1288 301.5,-1282 307.5,-1276 313.5,-1276 313.5,-1276 386.5,-1276 386.5,-1276 392.5,-1276 398.5,-1282 398.5,-1288 398.5,-1288 398.5,-1300 398.5,-1300 398.5,-1306 392.5,-1312 386.5,-1312"/>
<text text-anchor="middle" x="350" y="-1291.8" font-family="Courier,monospace" font-size="9.00">SaveIccProfile()</text>
</g>
<!-- Node0x60b2685d4480&#45;&gt;Node0x60b2687ceb60 -->
<g id="edge3" class="edge">
<title>Node0x60b2685d4480&#45;&gt;Node0x60b2687ceb60</title>
<path fill="none" stroke="#4a6fa5" d="M66.33,-732.05C73.07,-818.42 106.28,-1188.41 186,-1265 214.61,-1292.48 259.75,-1298.76 295.28,-1298.71"/>
<polygon fill="#4a6fa5" stroke="#4a6fa5" points="295.36,-1300.81 301.34,-1298.64 295.32,-1296.61 295.36,-1300.81"/>
</g>
<!-- Node0x60b2685fd4a0 -->
<g id="node6" class="node">
<title>Node0x60b2685fd4a0</title>
<path fill="#f0f4ff" stroke="black" d="M365,-1254C365,-1254 335,-1254 335,-1254 329,-1254 323,-1248 323,-1242 323,-1242 323,-1230 323,-1230 323,-1224 329,-1218 335,-1218 335,-1218 365,-1218 365,-1218 371,-1218 377,-1224 377,-1230 377,-1230 377,-1242 377,-1242 377,-1248 371,-1254 365,-1254"/>
<text text-anchor="middle" x="350" y="-1233.8" font-family="Courier,monospace" font-size="9.00">mkstemp</text>
</g>
<!-- Node0x60b2685d4480&#45;&gt;Node0x60b2685fd4a0 -->
<g id="edge4" class="edge">
<title>Node0x60b2685d4480&#45;&gt;Node0x60b2685fd4a0</title>
<path fill="none" stroke="#4a6fa5" d="M66.82,-732.02C75.36,-812.67 113.99,-1139.49 186,-1207 221.19,-1239.98 280.27,-1242.19 316.81,-1239.79"/>
<polygon fill="#4a6fa5" stroke="#4a6fa5" points="317.09,-1241.88 322.92,-1239.33 316.78,-1237.69 317.09,-1241.88"/>
</g>
<!-- Node0x60b268601900 -->
<g id="node7" class="node">
<title>Node0x60b268601900</title>
<path fill="#f0f4ff" stroke="black" d="M389,-1196C389,-1196 311,-1196 311,-1196 305,-1196 299,-1190 299,-1184 299,-1184 299,-1172 299,-1172 299,-1166 305,-1160 311,-1160 311,-1160 389,-1160 389,-1160 395,-1160 401,-1166 401,-1172 401,-1172 401,-1184 401,-1184 401,-1190 395,-1196 389,-1196"/>
<text text-anchor="middle" x="350" y="-1175.8" font-family="Courier,monospace" font-size="9.00">fuzz_build_path()</text>
</g>
<!-- Node0x60b2685d4480&#45;&gt;Node0x60b268601900 -->
<g id="edge5" class="edge">
<title>Node0x60b2685d4480&#45;&gt;Node0x60b268601900</title>
<path fill="none" stroke="#4a6fa5" d="M67.46,-732.14C78,-806.97 121.69,-1090.54 186,-1149 214.43,-1174.85 257.62,-1181.61 292.39,-1182.17"/>
<polygon fill="#4a6fa5" stroke="#4a6fa5" points="292.77,-1184.27 298.78,-1182.2 292.8,-1180.07 292.77,-1184.27"/>
</g>
<!-- Node0x60b2687cbf20 -->
<g id="node8" class="node">
<title>Node0x60b2687cbf20</title>
<path fill="#f0f4ff" stroke="black" d="M407.5,-1138C407.5,-1138 292.5,-1138 292.5,-1138 286.5,-1138 280.5,-1132 280.5,-1126 280.5,-1126 280.5,-1114 280.5,-1114 280.5,-1108 286.5,-1102 292.5,-1102 292.5,-1102 407.5,-1102 407.5,-1102 413.5,-1102 419.5,-1108 419.5,-1114 419.5,-1114 419.5,-1126 419.5,-1126 419.5,-1132 413.5,-1138 407.5,-1138"/>
<text text-anchor="middle" x="350" y="-1117.8" font-family="Courier,monospace" font-size="9.00">CIccProfile::AttachTag()</text>
</g>
<!-- Node0x60b2685d4480&#45;&gt;Node0x60b2687cbf20 -->
<g id="edge6" class="edge">
<title>Node0x60b2685d4480&#45;&gt;Node0x60b2687cbf20</title>
<path fill="none" stroke="#4a6fa5" d="M64.75,-732C64.96,-793.01 74.45,-993.53 186,-1091 209.94,-1111.92 243.63,-1120.18 274.17,-1122.81"/>
<polygon fill="#4a6fa5" stroke="#4a6fa5" points="274.09,-1124.91 280.23,-1123.26 274.41,-1120.72 274.09,-1124.91"/>
</g>
<!-- Node0x60b2687cd620 -->
<g id="node9" class="node">
<title>Node0x60b2687cd620</title>
<path fill="#f0f4ff" stroke="black" d="M446.5,-1080C446.5,-1080 253.5,-1080 253.5,-1080 247.5,-1080 241.5,-1074 241.5,-1068 241.5,-1068 241.5,-1056 241.5,-1056 241.5,-1050 247.5,-1044 253.5,-1044 253.5,-1044 446.5,-1044 446.5,-1044 452.5,-1044 458.5,-1050 458.5,-1056 458.5,-1056 458.5,-1068 458.5,-1068 458.5,-1074 452.5,-1080 446.5,-1080"/>
<text text-anchor="middle" x="350" y="-1059.8" font-family="Courier,monospace" font-size="9.00">CIccTagMultiLocalizedUnicode::SetText()</text>
</g>
<!-- Node0x60b2685d4480&#45;&gt;Node0x60b2687cd620 -->
<g id="edge7" class="edge">
<title>Node0x60b2685d4480&#45;&gt;Node0x60b2687cd620</title>
<path fill="none" stroke="#4a6fa5" d="M65.95,-732.32C69.88,-787.47 89.55,-953.05 186,-1033 200.12,-1044.7 217.32,-1052.37 235.19,-1057.29"/>
<polygon fill="#4a6fa5" stroke="#4a6fa5" points="234.94,-1059.4 241.27,-1058.86 235.99,-1055.33 234.94,-1059.4"/>
</g>
<!-- Node0x60b2687cc6a0 -->
<g id="node10" class="node">
<title>Node0x60b2687cc6a0</title>
<path fill="#f0f4ff" stroke="black" d="M502,-1022C502,-1022 198,-1022 198,-1022 192,-1022 186,-1016 186,-1010 186,-1010 186,-998 186,-998 186,-992 192,-986 198,-986 198,-986 502,-986 502,-986 508,-986 514,-992 514,-998 514,-998 514,-1010 514,-1010 514,-1016 508,-1022 502,-1022"/>
<text text-anchor="middle" x="350" y="-1001.8" font-family="Courier,monospace" font-size="9.00">CIccTagMultiLocalizedUnicode::CIccTagMultiLocalizedUnicode()</text>
</g>
<!-- Node0x60b2685d4480&#45;&gt;Node0x60b2687cc6a0 -->
<g id="edge8" class="edge">
<title>Node0x60b2685d4480&#45;&gt;Node0x60b2687cc6a0</title>
<path fill="none" stroke="#4a6fa5" d="M67.6,-732.09C75.53,-780.2 104.1,-911.91 186,-975 189.76,-977.9 193.72,-980.54 197.83,-982.96"/>
<polygon fill="#4a6fa5" stroke="#4a6fa5" points="196.84,-984.81 203.11,-985.89 198.88,-981.14 196.84,-984.81"/>
</g>
<!-- Node0x60b2687cdb20 -->
<g id="node11" class="node">
<title>Node0x60b2687cdb20</title>
<path fill="#f0f4ff" stroke="black" d="M365,-964C365,-964 335,-964 335,-964 329,-964 323,-958 323,-952 323,-952 323,-940 323,-940 323,-934 329,-928 335,-928 335,-928 365,-928 365,-928 371,-928 377,-934 377,-940 377,-940 377,-952 377,-952 377,-958 371,-964 365,-964"/>
<text text-anchor="middle" x="350" y="-943.8" font-family="Courier,monospace" font-size="9.00">c_str()</text>
</g>
<!-- Node0x60b2685d4480&#45;&gt;Node0x60b2687cdb20 -->
<g id="edge9" class="edge">
<title>Node0x60b2685d4480&#45;&gt;Node0x60b2687cdb20</title>
<path fill="none" stroke="#4a6fa5" d="M70.15,-732.2C82.61,-772.69 118.49,-870.35 186,-917 224.96,-943.92 281.28,-948.2 316.48,-947.83"/>
<polygon fill="#4a6fa5" stroke="#4a6fa5" points="316.84,-949.93 322.8,-947.72 316.76,-945.73 316.84,-949.93"/>
</g>
<!-- Node0x60b2687ce020 -->
<g id="node12" class="node">
<title>Node0x60b2687ce020</title>
<path fill="#f0f4ff" stroke="black" d="M381,-906C381,-906 319,-906 319,-906 313,-906 307,-900 307,-894 307,-894 307,-882 307,-882 307,-876 313,-870 319,-870 319,-870 381,-870 381,-870 387,-870 393,-876 393,-882 393,-882 393,-894 393,-894 393,-900 387,-906 381,-906"/>
<text text-anchor="middle" x="350" y="-885.8" font-family="Courier,monospace" font-size="9.00">icGetTagText()</text>
</g>
<!-- Node0x60b2685d4480&#45;&gt;Node0x60b2687ce020 -->
<g id="edge10" class="edge">
<title>Node0x60b2685d4480&#45;&gt;Node0x60b2687ce020</title>
<path fill="none" stroke="#4a6fa5" d="M74.51,-732.21C91.99,-763.69 132.4,-827.9 186,-859 220.87,-879.23 266.47,-886 300.56,-887.98"/>
<polygon fill="#4a6fa5" stroke="#4a6fa5" points="300.69,-890.09 306.79,-888.3 300.91,-885.9 300.69,-890.09"/>
</g>
<!-- Node0x60b2687cc920 -->
<g id="node13" class="node">
<title>Node0x60b2687cc920</title>
<path fill="#f0f4ff" stroke="black" d="M402,-848C402,-848 298,-848 298,-848 292,-848 286,-842 286,-836 286,-836 286,-824 286,-824 286,-818 292,-812 298,-812 298,-812 402,-812 402,-812 408,-812 414,-818 414,-824 414,-824 414,-836 414,-836 414,-842 408,-848 402,-848"/>
<text text-anchor="middle" x="350" y="-827.8" font-family="Courier,monospace" font-size="9.00">CIccProfile::FindTag()</text>
</g>
<!-- Node0x60b2685d4480&#45;&gt;Node0x60b2687cc920 -->
<g id="edge11" class="edge">
<title>Node0x60b2685d4480&#45;&gt;Node0x60b2687cc920</title>
<path fill="none" stroke="#4a6fa5" d="M84.27,-732.14C106.83,-752.29 146.2,-784.18 186,-801 215.42,-813.43 250,-820.53 279.72,-824.59"/>
<polygon fill="#4a6fa5" stroke="#4a6fa5" points="279.77,-826.71 285.99,-825.41 280.31,-822.55 279.77,-826.71"/>
</g>
<!-- Node0x60b2687ccba0 -->
<g id="node14" class="node">
<title>Node0x60b2687ccba0</title>
<path fill="#f0f4ff" stroke="black" d="M502,-790C502,-790 198,-790 198,-790 192,-790 186,-784 186,-778 186,-778 186,-766 186,-766 186,-760 192,-754 198,-754 198,-754 502,-754 502,-754 508,-754 514,-760 514,-766 514,-766 514,-778 514,-778 514,-784 508,-790 502,-790"/>
<text text-anchor="middle" x="350" y="-769.8" font-family="Courier,monospace" font-size="9.00">CIccTagFixedNum&lt;int, (icTagTypeSignature)1936077618&gt;::ope...</text>
</g>
<!-- Node0x60b2685d4480&#45;&gt;Node0x60b2687ccba0 -->
<g id="edge12" class="edge">
<title>Node0x60b2685d4480&#45;&gt;Node0x60b2687ccba0</title>
<path fill="none" stroke="#4a6fa5" d="M128.27,-729.91C146.82,-734.37 167.18,-739.07 186,-743 202.16,-746.37 219.28,-749.69 236.11,-752.81"/>
<polygon fill="#4a6fa5" stroke="#4a6fa5" points="236.01,-754.93 242.29,-753.95 236.77,-750.8 236.01,-754.93"/>
</g>
<!-- Node0x60b2687cb2a0 -->
<g id="node15" class="node">
<title>Node0x60b2687cb2a0</title>
<path fill="#f0f4ff" stroke="black" d="M365.5,-732C365.5,-732 334.5,-732 334.5,-732 328.5,-732 322.5,-726 322.5,-720 322.5,-720 322.5,-708 322.5,-708 322.5,-702 328.5,-696 334.5,-696 334.5,-696 365.5,-696 365.5,-696 371.5,-696 377.5,-702 377.5,-708 377.5,-708 377.5,-720 377.5,-720 377.5,-726 371.5,-732 365.5,-732"/>
<text text-anchor="middle" x="350" y="-711.8" font-family="Courier,monospace" font-size="9.00">icDtoF()</text>
</g>
<!-- Node0x60b2685d4480&#45;&gt;Node0x60b2687cb2a0 -->
<g id="edge13" class="edge">
<title>Node0x60b2685d4480&#45;&gt;Node0x60b2687cb2a0</title>
<path fill="none" stroke="#4a6fa5" d="M128.03,-714C186.24,-714 270.43,-714 316.26,-714"/>
<polygon fill="#4a6fa5" stroke="#4a6fa5" points="316.46,-716.1 322.46,-714 316.46,-711.9 316.46,-716.1"/>
</g>
<!-- Node0x60b2687cb520 -->
<g id="node16" class="node">
<title>Node0x60b2687cb520</title>
<path fill="#f0f4ff" stroke="black" d="M389,-674C389,-674 311,-674 311,-674 305,-674 299,-668 299,-662 299,-662 299,-650 299,-650 299,-644 305,-638 311,-638 311,-638 389,-638 389,-638 395,-638 401,-644 401,-650 401,-650 401,-662 401,-662 401,-668 395,-674 389,-674"/>
<text text-anchor="middle" x="350" y="-653.8" font-family="Courier,monospace" font-size="9.00">CIccTagFixedNum()</text>
</g>
<!-- Node0x60b2685d4480&#45;&gt;Node0x60b2687cb520 -->
<g id="edge14" class="edge">
<title>Node0x60b2685d4480&#45;&gt;Node0x60b2687cb520</title>
<path fill="none" stroke="#4a6fa5" d="M128.27,-698.09C146.82,-693.63 167.18,-688.93 186,-685 221.35,-677.63 261.26,-670.51 292.74,-665.17"/>
<polygon fill="#4a6fa5" stroke="#4a6fa5" points="293.35,-667.19 298.92,-664.12 292.65,-663.05 293.35,-667.19"/>
</g>
<!-- Node0x60b2687ca8a0 -->
<g id="node17" class="node">
<title>Node0x60b2687ca8a0</title>
<path fill="#f0f4ff" stroke="black" d="M444,-616C444,-616 256,-616 256,-616 250,-616 244,-610 244,-604 244,-604 244,-592 244,-592 244,-586 250,-580 256,-580 256,-580 444,-580 444,-580 450,-580 456,-586 456,-592 456,-592 456,-604 456,-604 456,-610 450,-616 444,-616"/>
<text text-anchor="middle" x="350" y="-595.8" font-family="Courier,monospace" font-size="9.00">CIccTagCurve::operator[](unsigned int)</text>
</g>
<!-- Node0x60b2685d4480&#45;&gt;Node0x60b2687ca8a0 -->
<g id="edge15" class="edge">
<title>Node0x60b2685d4480&#45;&gt;Node0x60b2687ca8a0</title>
<path fill="none" stroke="#4a6fa5" d="M109.48,-695.95C115.9,-692.66 122.27,-688.99 128,-685 157.91,-664.16 153.68,-643.86 186,-627 201.91,-618.7 219.76,-612.72 237.65,-608.43"/>
<polygon fill="#4a6fa5" stroke="#4a6fa5" points="238.34,-610.43 243.72,-607.04 237.4,-606.34 238.34,-610.43"/>
</g>
<!-- Node0x60b2687cab20 -->
<g id="node18" class="node">
<title>Node0x60b2687cab20</title>
<path fill="#f0f4ff" stroke="black" d="M418,-558C418,-558 282,-558 282,-558 276,-558 270,-552 270,-546 270,-546 270,-534 270,-534 270,-528 276,-522 282,-522 282,-522 418,-522 418,-522 424,-522 430,-528 430,-534 430,-534 430,-546 430,-546 430,-552 424,-558 418,-558"/>
<text text-anchor="middle" x="350" y="-537.8" font-family="Courier,monospace" font-size="9.00">CIccTagCurve::CIccTagCurve()</text>
</g>
<!-- Node0x60b2685d4480&#45;&gt;Node0x60b2687cab20 -->
<g id="edge16" class="edge">
<title>Node0x60b2685d4480&#45;&gt;Node0x60b2687cab20</title>
<path fill="none" stroke="#4a6fa5" d="M113.65,-695.83C118.84,-692.7 123.76,-689.1 128,-685 169.41,-644.9 139.82,-603.5 186,-569 208.16,-552.45 236.69,-544.24 263.67,-540.45"/>
<polygon fill="#4a6fa5" stroke="#4a6fa5" points="264.08,-542.51 269.76,-539.66 263.54,-538.34 264.08,-542.51"/>
</g>
<!-- Node0x60b2687cada0 -->
<g id="node19" class="node">
<title>Node0x60b2687cada0</title>
<path fill="#f0f4ff" stroke="black" d="M410,-500C410,-500 290,-500 290,-500 284,-500 278,-494 278,-488 278,-488 278,-476 278,-476 278,-470 284,-464 290,-464 290,-464 410,-464 410,-464 416,-464 422,-470 422,-476 422,-476 422,-488 422,-488 422,-494 416,-500 410,-500"/>
<text text-anchor="middle" x="350" y="-479.8" font-family="Courier,monospace" font-size="9.00">CIccProfile::InitHeader()</text>
</g>
<!-- Node0x60b2685d4480&#45;&gt;Node0x60b2687cada0 -->
<g id="edge17" class="edge">
<title>Node0x60b2685d4480&#45;&gt;Node0x60b2687cada0</title>
<path fill="none" stroke="#4a6fa5" d="M115.17,-695.8C119.9,-692.7 124.3,-689.13 128,-685 182.4,-624.29 124.32,-564.29 186,-511 209.35,-490.82 241.79,-482.47 271.58,-479.57"/>
<polygon fill="#4a6fa5" stroke="#4a6fa5" points="272.09,-481.64 277.89,-479.03 271.73,-477.45 272.09,-481.64"/>
</g>
<!-- Node0x60b2687c7810 -->
<g id="node20" class="node">
<title>Node0x60b2687c7810</title>
<path fill="#f0f4ff" stroke="black" d="M412.5,-442C412.5,-442 287.5,-442 287.5,-442 281.5,-442 275.5,-436 275.5,-430 275.5,-430 275.5,-418 275.5,-418 275.5,-412 281.5,-406 287.5,-406 287.5,-406 412.5,-406 412.5,-406 418.5,-406 424.5,-412 424.5,-418 424.5,-418 424.5,-430 424.5,-430 424.5,-436 418.5,-442 412.5,-442"/>
<text text-anchor="middle" x="350" y="-421.8" font-family="Courier,monospace" font-size="9.00">CIccProfile::CIccProfile()</text>
</g>
<!-- Node0x60b2685d4480&#45;&gt;Node0x60b2687c7810 -->
<g id="edge18" class="edge">
<title>Node0x60b2685d4480&#45;&gt;Node0x60b2687c7810</title>
<path fill="none" stroke="#4a6fa5" d="M115.8,-695.87C120.35,-692.77 124.54,-689.17 128,-685 195.83,-603.18 108.3,-525.52 186,-453 208.17,-432.31 239.75,-423.75 269.21,-420.83"/>
<polygon fill="#4a6fa5" stroke="#4a6fa5" points="269.67,-422.9 275.47,-420.29 269.31,-418.72 269.67,-422.9"/>
</g>
<!-- Node0x60b2687c7090 -->
<g id="node21" class="node">
<title>Node0x60b2687c7090</title>
<path fill="#f0f4ff" stroke="black" d="M441.5,-384C441.5,-384 258.5,-384 258.5,-384 252.5,-384 246.5,-378 246.5,-372 246.5,-372 246.5,-360 246.5,-360 246.5,-354 252.5,-348 258.5,-348 258.5,-348 441.5,-348 441.5,-348 447.5,-348 453.5,-354 453.5,-360 453.5,-360 453.5,-372 453.5,-372 453.5,-378 447.5,-384 441.5,-384"/>
<text text-anchor="middle" x="350" y="-363.8" font-family="Courier,monospace" font-size="9.00">CIccApplyTagMpe::GetList[abi:cxx11]()</text>
</g>
<!-- Node0x60b2685d4480&#45;&gt;Node0x60b2687c7090 -->
<g id="edge19" class="edge">
<title>Node0x60b2685d4480&#45;&gt;Node0x60b2687c7090</title>
<path fill="none" stroke="#4a6fa5" d="M116.3,-695.83C120.7,-692.74 124.72,-689.16 128,-685 209.46,-581.84 92.07,-486.95 186,-395 200.77,-380.54 220.1,-371.92 240.27,-366.99"/>
<polygon fill="#4a6fa5" stroke="#4a6fa5" points="240.87,-369.01 246.26,-365.64 239.94,-364.91 240.87,-369.01"/>
</g>
<!-- Node0x60b2687c4a80 -->
<g id="node22" class="node">
<title>Node0x60b2687c4a80</title>
<path fill="#f0f4ff" stroke="black" d="M467.5,-326C467.5,-326 232.5,-326 232.5,-326 226.5,-326 220.5,-320 220.5,-314 220.5,-314 220.5,-302 220.5,-302 220.5,-296 226.5,-290 232.5,-290 232.5,-290 467.5,-290 467.5,-290 473.5,-290 479.5,-296 479.5,-302 479.5,-302 479.5,-314 479.5,-314 479.5,-320 473.5,-326 467.5,-326"/>
<text text-anchor="middle" x="350" y="-305.8" font-family="Courier,monospace" font-size="9.00">CIccTagMultiProcessElement::NumOutputChannels()</text>
</g>
<!-- Node0x60b2685d4480&#45;&gt;Node0x60b2687c4a80 -->
<g id="edge20" class="edge">
<title>Node0x60b2685d4480&#45;&gt;Node0x60b2687c4a80</title>
<path fill="none" stroke="#4a6fa5" d="M116.44,-695.94C120.81,-692.83 124.78,-689.21 128,-685 223.18,-560.39 75.73,-448.48 186,-337 194.26,-328.65 204.04,-322.22 214.64,-317.32"/>
<polygon fill="#4a6fa5" stroke="#4a6fa5" points="215.58,-319.2 220.26,-314.9 213.92,-315.35 215.58,-319.2"/>
</g>
<!-- Node0x60b26857fc90 -->
<g id="node23" class="node">
<title>Node0x60b26857fc90</title>
<path fill="#f0f4ff" stroke="black" d="M465,-268C465,-268 235,-268 235,-268 229,-268 223,-262 223,-256 223,-256 223,-244 223,-244 223,-238 229,-232 235,-232 235,-232 465,-232 465,-232 471,-232 477,-238 477,-244 477,-244 477,-256 477,-256 477,-262 471,-268 465,-268"/>
<text text-anchor="middle" x="350" y="-247.8" font-family="Courier,monospace" font-size="9.00">CIccTagMultiProcessElement::NumInputChannels()</text>
</g>
<!-- Node0x60b2685d4480&#45;&gt;Node0x60b26857fc90 -->
<g id="edge21" class="edge">
<title>Node0x60b2685d4480&#45;&gt;Node0x60b26857fc90</title>
<path fill="none" stroke="#4a6fa5" d="M116.84,-695.8C121.07,-692.73 124.91,-689.15 128,-685 236.95,-538.87 59.33,-410.07 186,-279 194.84,-269.85 205.5,-263 217.07,-257.93"/>
<polygon fill="#4a6fa5" stroke="#4a6fa5" points="218.07,-259.79 222.83,-255.57 216.48,-255.9 218.07,-259.79"/>
</g>
<!-- Node0x60b2687c64e0 -->
<g id="node24" class="node">
<title>Node0x60b2687c64e0</title>
<path fill="#f0f4ff" stroke="black" d="M381,-210C381,-210 319,-210 319,-210 313,-210 307,-204 307,-198 307,-198 307,-186 307,-186 307,-180 313,-174 319,-174 319,-174 381,-174 381,-174 387,-174 393,-180 393,-186 393,-186 393,-198 393,-198 393,-204 387,-210 381,-210"/>
<text text-anchor="middle" x="350" y="-189.8" font-family="Courier,monospace" font-size="9.00">__dynamic_cast</text>
</g>
<!-- Node0x60b2685d4480&#45;&gt;Node0x60b2687c64e0 -->
<g id="edge22" class="edge">
<title>Node0x60b2685d4480&#45;&gt;Node0x60b2687c64e0</title>
<path fill="none" stroke="#4a6fa5" d="M116.91,-695.86C121.13,-692.77 124.94,-689.18 128,-685 250.75,-517.3 42.89,-371.71 186,-221 214.91,-190.56 263.88,-185.41 300.62,-186.61"/>
<polygon fill="#4a6fa5" stroke="#4a6fa5" points="300.78,-188.72 306.87,-186.87 300.96,-184.52 300.78,-188.72"/>
</g>
<!-- Node0x60b26857f9b0 -->
<g id="node25" class="node">
<title>Node0x60b26857f9b0</title>
<path fill="#f0f4ff" stroke="black" d="M418,-152C418,-152 282,-152 282,-152 276,-152 270,-146 270,-140 270,-140 270,-128 270,-128 270,-122 276,-116 282,-116 282,-116 418,-116 418,-116 424,-116 430,-122 430,-128 430,-128 430,-140 430,-140 430,-146 424,-152 418,-152"/>
<text text-anchor="middle" x="350" y="-131.8" font-family="Courier,monospace" font-size="9.00">CIccProfile::FindTagOfType()</text>
</g>
<!-- Node0x60b2685d4480&#45;&gt;Node0x60b26857f9b0 -->
<g id="edge23" class="edge">
<title>Node0x60b2685d4480&#45;&gt;Node0x60b26857f9b0</title>
<path fill="none" stroke="#4a6fa5" d="M116.97,-695.9C121.18,-692.81 124.97,-689.2 128,-685 264.58,-495.7 26.43,-333.37 186,-163 205.81,-141.85 235.3,-132.86 263.78,-129.73"/>
<polygon fill="#4a6fa5" stroke="#4a6fa5" points="264.06,-131.82 269.83,-129.15 263.66,-127.64 264.06,-131.82"/>
</g>
<!-- Node0x60b268581c10 -->
<g id="node26" class="node">
<title>Node0x60b268581c10</title>
<path fill="#f0f4ff" stroke="black" d="M452,-94C452,-94 248,-94 248,-94 242,-94 236,-88 236,-82 236,-82 236,-70 236,-70 236,-64 242,-58 248,-58 248,-58 452,-58 452,-58 458,-58 464,-64 464,-70 464,-70 464,-82 464,-82 464,-88 458,-94 452,-94"/>
<text text-anchor="middle" x="350" y="-73.8" font-family="Courier,monospace" font-size="9.00">CIccTagMultiProcessElement::NumElements()</text>
</g>
<!-- Node0x60b2685d4480&#45;&gt;Node0x60b268581c10 -->
<g id="edge24" class="edge">
<title>Node0x60b2685d4480&#45;&gt;Node0x60b268581c10</title>
<path fill="none" stroke="#4a6fa5" d="M117.02,-695.93C121.22,-692.83 124.99,-689.22 128,-685 203.21,-579.54 97.97,-200.02 186,-105 197.83,-92.23 213.19,-83.88 229.74,-78.57"/>
<polygon fill="#4a6fa5" stroke="#4a6fa5" points="230.73,-80.47 235.88,-76.75 229.53,-76.44 230.73,-80.47"/>
</g>
<!-- Node0x60b2687c7750 -->
<g id="node27" class="node">
<title>Node0x60b2687c7750</title>
<path fill="#f0f4ff" stroke="black" d="M449.5,-36C449.5,-36 250.5,-36 250.5,-36 244.5,-36 238.5,-30 238.5,-24 238.5,-24 238.5,-12 238.5,-12 238.5,-6 244.5,0 250.5,0 250.5,0 449.5,0 449.5,0 455.5,0 461.5,-6 461.5,-12 461.5,-12 461.5,-24 461.5,-24 461.5,-30 455.5,-36 449.5,-36"/>
<text text-anchor="middle" x="350" y="-15.8" font-family="Courier,monospace" font-size="9.00">CIccTagMultiProcessElement::GetElement()</text>
</g>
<!-- Node0x60b2685d4480&#45;&gt;Node0x60b2687c7750 -->
<g id="edge25" class="edge">
<title>Node0x60b2685d4480&#45;&gt;Node0x60b2687c7750</title>
<path fill="none" stroke="#4a6fa5" d="M117.06,-695.96C121.25,-692.86 125.01,-689.23 128,-685 210.14,-568.72 89.72,-151.87 186,-47 198.4,-33.49 214.74,-24.92 232.29,-19.65"/>
<polygon fill="#4a6fa5" stroke="#4a6fa5" points="233.06,-21.62 238.28,-17.99 231.94,-17.57 233.06,-21.62"/>
</g>
</g>
</svg>
