<?xml version="1.0" encoding="UTF-8" standalone="no"?>
<!DOCTYPE svg PUBLIC "-//W3C//DTD SVG 1.1//EN"
 "http://www.w3.org/Graphics/SVG/1.1/DTD/svg11.dtd">
<!-- Generated by graphviz version 2.43.0 (0)
 -->
<!-- Title: Call graph: /home/h02332/po/research/call&#45;graph/cfl/icc_tiffdump_fuzzer.ll Pages: 1 -->
<svg width="664pt" height="1703pt"
 viewBox="0.00 0.00 664.20 1703.20" xmlns="http://www.w3.org/2000/svg" xmlns:xlink="http://www.w3.org/1999/xlink">
<g id="graph0" class="graph" transform="scale(1 1) rotate(0) translate(21.6 1681.6)">
<title>Call graph: /home/h02332/po/research/call&#45;graph/cfl/icc_tiffdump_fuzzer.ll</title>
<polygon fill="white" stroke="transparent" points="-21.6,21.6 -21.6,-1681.6 642.6,-1681.6 642.6,21.6 -21.6,21.6"/>
<!-- Node0x6015d58b4170 -->
<g id="node1" class="node">
<title>Node0x6015d58b4170</title>
<path fill="#f0f4ff" stroke="black" d="M121.5,-529C121.5,-529 27.5,-529 27.5,-529 21.5,-529 15.5,-523 15.5,-517 15.5,-517 15.5,-505 15.5,-505 15.5,-499 21.5,-493 27.5,-493 27.5,-493 121.5,-493 121.5,-493 127.5,-493 133.5,-499 133.5,-505 133.5,-505 133.5,-517 133.5,-517 133.5,-523 127.5,-529 121.5,-529"/>
<text text-anchor="middle" x="74.5" y="-508.8" font-family="Courier,monospace" font-size="9.00">LLVMFuzzerInitialize</text>
</g>
<!-- Node0x6015d57c9460 -->
<g id="node2" class="node">
<title>Node0x6015d57c9460</title>
<path fill="#f0f4ff" stroke="black" d="M132,-587C132,-587 17,-587 17,-587 11,-587 5,-581 5,-575 5,-575 5,-563 5,-563 5,-557 11,-551 17,-551 17,-551 132,-551 132,-551 138,-551 144,-557 144,-563 144,-563 144,-575 144,-575 144,-581 138,-587 132,-587"/>
<text text-anchor="middle" x="74.5" y="-566.8" font-family="Courier,monospace" font-size="9.00">SilentTIFFErrorHandler()</text>
</g>
<!-- Node0x6015d58a0910 -->
<g id="node3" class="node">
<title>Node0x6015d58a0910</title>
<path fill="#f0f4ff" stroke="black" d="M137,-645C137,-645 12,-645 12,-645 6,-645 0,-639 0,-633 0,-633 0,-621 0,-621 0,-615 6,-609 12,-609 12,-609 137,-609 137,-609 143,-609 149,-615 149,-621 149,-621 149,-633 149,-633 149,-639 143,-645 137,-645"/>
<text text-anchor="middle" x="74.5" y="-624.8" font-family="Courier,monospace" font-size="9.00">SilentTIFFWarningHandler()</text>
</g>
<!-- Node0x6015d57ede70 -->
<g id="node4" class="node">
<title>Node0x6015d57ede70</title>
<path fill="#f0f4ff" stroke="black" d="M126.5,-703C126.5,-703 22.5,-703 22.5,-703 16.5,-703 10.5,-697 10.5,-691 10.5,-691 10.5,-679 10.5,-679 10.5,-673 16.5,-667 22.5,-667 22.5,-667 126.5,-667 126.5,-667 132.5,-667 138.5,-673 138.5,-679 138.5,-679 138.5,-691 138.5,-691 138.5,-697 132.5,-703 126.5,-703"/>
<text text-anchor="middle" x="74.5" y="-682.8" font-family="Courier,monospace" font-size="9.00">LLVMFuzzerTestOneInput</text>
</g>
<!-- Node0x6015d58c9a50 -->
<g id="node5" class="node">
<title>Node0x6015d58c9a50</title>
<path fill="#f0f4ff" stroke="black" d="M336.5,-1388C336.5,-1388 237.5,-1388 237.5,-1388 231.5,-1388 225.5,-1382 225.5,-1376 225.5,-1376 225.5,-1364 225.5,-1364 225.5,-1358 231.5,-1352 237.5,-1352 237.5,-1352 336.5,-1352 336.5,-1352 342.5,-1352 348.5,-1358 348.5,-1364 348.5,-1364 348.5,-1376 348.5,-1376 348.5,-1382 342.5,-1388 336.5,-1388"/>
<text text-anchor="middle" x="287" y="-1367.8" font-family="Courier,monospace" font-size="9.00">CTiffImg::~CTiffImg()</text>
</g>
<!-- Node0x6015d57ede70&#45;&gt;Node0x6015d58c9a50 -->
<g id="edge1" class="edge">
<title>Node0x6015d57ede70&#45;&gt;Node0x6015d58c9a50</title>
<path fill="none" stroke="#4a6fa5" d="M137.82,-703.2C142.05,-706.26 145.87,-709.83 149,-714 316.94,-937.87 36.39,-1119.16 207,-1341 210.67,-1345.78 215.22,-1349.77 220.25,-1353.1"/>
<polygon fill="#4a6fa5" stroke="#4a6fa5" points="219.21,-1354.93 225.43,-1356.22 221.37,-1351.33 219.21,-1354.93"/>
</g>
<!-- Node0x6015d58c9d90 -->
<g id="node6" class="node">
<title>Node0x6015d58c9d90</title>
<path fill="#f0f4ff" stroke="black" d="M326,-1330C326,-1330 248,-1330 248,-1330 242,-1330 236,-1324 236,-1318 236,-1318 236,-1306 236,-1306 236,-1300 242,-1294 248,-1294 248,-1294 326,-1294 326,-1294 332,-1294 338,-1300 338,-1306 338,-1306 338,-1318 338,-1318 338,-1324 332,-1330 326,-1330"/>
<text text-anchor="middle" x="287" y="-1309.8" font-family="Courier,monospace" font-size="9.00">CTiffImg::Close()</text>
</g>
<!-- Node0x6015d57ede70&#45;&gt;Node0x6015d58c9d90 -->
<g id="edge2" class="edge">
<title>Node0x6015d57ede70&#45;&gt;Node0x6015d58c9d90</title>
<path fill="none" stroke="#4a6fa5" d="M137.77,-703.23C142.02,-706.28 145.85,-709.84 149,-714 302.49,-916.63 51.09,-1082.23 207,-1283 213.01,-1290.74 221.3,-1296.42 230.25,-1300.58"/>
<polygon fill="#4a6fa5" stroke="#4a6fa5" points="229.55,-1302.56 235.9,-1302.98 231.2,-1298.7 229.55,-1302.56"/>
</g>
<!-- Node0x6015d58ca450 -->
<g id="node7" class="node">
<title>Node0x6015d58ca450</title>
<path fill="#f0f4ff" stroke="black" d="M334,-1272C334,-1272 240,-1272 240,-1272 234,-1272 228,-1266 228,-1260 228,-1260 228,-1248 228,-1248 228,-1242 234,-1236 240,-1236 240,-1236 334,-1236 334,-1236 340,-1236 346,-1242 346,-1248 346,-1248 346,-1260 346,-1260 346,-1266 340,-1272 334,-1272"/>
<text text-anchor="middle" x="287" y="-1251.8" font-family="Courier,monospace" font-size="9.00">CTiffImg::ReadLine()</text>
</g>
<!-- Node0x6015d57ede70&#45;&gt;Node0x6015d58ca450 -->
<g id="edge3" class="edge">
<title>Node0x6015d57ede70&#45;&gt;Node0x6015d58ca450</title>
<path fill="none" stroke="#4a6fa5" d="M137.39,-703.03C141.78,-706.13 145.75,-709.75 149,-714 288.05,-895.4 65.78,-1045.28 207,-1225 211.22,-1230.37 216.52,-1234.74 222.38,-1238.3"/>
<polygon fill="#4a6fa5" stroke="#4a6fa5" points="221.64,-1240.29 227.9,-1241.35 223.67,-1236.61 221.64,-1240.29"/>
</g>
<!-- Node0x6015d58c2a50 -->
<g id="node8" class="node">
<title>Node0x6015d58c2a50</title>
<path fill="#f0f4ff" stroke="black" d="M326,-1196C326,-1196 248,-1196 248,-1196 242,-1196 236,-1190 236,-1184 236,-1184 236,-1172 236,-1172 236,-1166 242,-1160 248,-1160 248,-1160 326,-1160 326,-1160 332,-1160 338,-1166 338,-1172 338,-1172 338,-1184 338,-1184 338,-1190 332,-1196 326,-1196"/>
<text text-anchor="middle" x="287" y="-1175.8" font-family="Courier,monospace" font-size="9.00">ExerciseProfile()</text>
</g>
<!-- Node0x6015d57ede70&#45;&gt;Node0x6015d58c2a50 -->
<g id="edge4" class="edge">
<title>Node0x6015d57ede70&#45;&gt;Node0x6015d58c2a50</title>
<path fill="none" stroke="#4a6fa5" d="M137.3,-703.1C141.71,-706.18 145.7,-709.79 149,-714 269.17,-867.63 85,-996.82 207,-1149 213.05,-1156.55 221.27,-1162.14 230.11,-1166.27"/>
<polygon fill="#4a6fa5" stroke="#4a6fa5" points="229.35,-1168.23 235.69,-1168.66 231,-1164.36 229.35,-1168.23"/>
</g>
<!-- Node0x6015d578ab70 -->
<g id="node9" class="node">
<title>Node0x6015d578ab70</title>
<path fill="#f0f4ff" stroke="black" d="M323.5,-1138C323.5,-1138 250.5,-1138 250.5,-1138 244.5,-1138 238.5,-1132 238.5,-1126 238.5,-1126 238.5,-1114 238.5,-1114 238.5,-1108 244.5,-1102 250.5,-1102 250.5,-1102 323.5,-1102 323.5,-1102 329.5,-1102 335.5,-1108 335.5,-1114 335.5,-1114 335.5,-1126 335.5,-1126 335.5,-1132 329.5,-1138 323.5,-1138"/>
<text text-anchor="middle" x="287" y="-1117.8" font-family="Courier,monospace" font-size="9.00">OpenIccProfile()</text>
</g>
<!-- Node0x6015d57ede70&#45;&gt;Node0x6015d578ab70 -->
<g id="edge5" class="edge">
<title>Node0x6015d57ede70&#45;&gt;Node0x6015d578ab70</title>
<path fill="none" stroke="#4a6fa5" d="M137.21,-703.17C141.63,-706.24 145.66,-709.82 149,-714 254.78,-846.48 99.64,-959.8 207,-1091 213.65,-1099.13 222.8,-1104.98 232.51,-1109.19"/>
<polygon fill="#4a6fa5" stroke="#4a6fa5" points="231.93,-1111.22 238.28,-1111.48 233.48,-1107.32 231.93,-1111.22"/>
</g>
<!-- Node0x6015d58c9e10 -->
<g id="node10" class="node">
<title>Node0x6015d58c9e10</title>
<path fill="#f0f4ff" stroke="black" d="M347,-1080C347,-1080 227,-1080 227,-1080 221,-1080 215,-1074 215,-1068 215,-1068 215,-1056 215,-1056 215,-1050 221,-1044 227,-1044 227,-1044 347,-1044 347,-1044 353,-1044 359,-1050 359,-1056 359,-1056 359,-1068 359,-1068 359,-1074 353,-1080 347,-1080"/>
<text text-anchor="middle" x="287" y="-1059.8" font-family="Courier,monospace" font-size="9.00">CTiffImg::GetIccProfile()</text>
</g>
<!-- Node0x6015d57ede70&#45;&gt;Node0x6015d58c9e10 -->
<g id="edge6" class="edge">
<title>Node0x6015d57ede70&#45;&gt;Node0x6015d58c9e10</title>
<path fill="none" stroke="#4a6fa5" d="M136.74,-703.04C141.33,-706.14 145.52,-709.76 149,-714 240.44,-825.37 114.23,-922.73 207,-1033 209.23,-1035.66 211.73,-1038.07 214.43,-1040.26"/>
<polygon fill="#4a6fa5" stroke="#4a6fa5" points="213.4,-1042.11 219.48,-1043.97 215.89,-1038.72 213.4,-1042.11"/>
</g>
<!-- Node0x6015d58ca1d0 -->
<g id="node11" class="node">
<title>Node0x6015d58ca1d0</title>
<path fill="#f0f4ff" stroke="black" d="M341.5,-1022C341.5,-1022 232.5,-1022 232.5,-1022 226.5,-1022 220.5,-1016 220.5,-1010 220.5,-1010 220.5,-998 220.5,-998 220.5,-992 226.5,-986 232.5,-986 232.5,-986 341.5,-986 341.5,-986 347.5,-986 353.5,-992 353.5,-998 353.5,-998 353.5,-1010 353.5,-1010 353.5,-1016 347.5,-1022 341.5,-1022"/>
<text text-anchor="middle" x="287" y="-1001.8" font-family="Courier,monospace" font-size="9.00">CTiffImg::GetHeightIn()</text>
</g>
<!-- Node0x6015d57ede70&#45;&gt;Node0x6015d58ca1d0 -->
<g id="edge7" class="edge">
<title>Node0x6015d57ede70&#45;&gt;Node0x6015d58ca1d0</title>
<path fill="none" stroke="#4a6fa5" d="M136.57,-703.19C141.19,-706.25 145.44,-709.83 149,-714 226.17,-804.36 128.75,-885.57 207,-975 209.53,-977.89 212.36,-980.49 215.42,-982.83"/>
<polygon fill="#4a6fa5" stroke="#4a6fa5" points="214.28,-984.59 220.4,-986.3 216.68,-981.14 214.28,-984.59"/>
</g>
<!-- Node0x6015d58c97d0 -->
<g id="node12" class="node">
<title>Node0x6015d58c97d0</title>
<path fill="#f0f4ff" stroke="black" d="M339,-964C339,-964 235,-964 235,-964 229,-964 223,-958 223,-952 223,-952 223,-940 223,-940 223,-934 229,-928 235,-928 235,-928 339,-928 339,-928 345,-928 351,-934 351,-940 351,-940 351,-952 351,-952 351,-958 345,-964 339,-964"/>
<text text-anchor="middle" x="287" y="-943.8" font-family="Courier,monospace" font-size="9.00">CTiffImg::GetWidthIn()</text>
</g>
<!-- Node0x6015d57ede70&#45;&gt;Node0x6015d58c97d0 -->
<g id="edge8" class="edge">
<title>Node0x6015d57ede70&#45;&gt;Node0x6015d58c97d0</title>
<path fill="none" stroke="#4a6fa5" d="M135.95,-703.19C140.77,-706.26 145.22,-709.83 149,-714 212.04,-783.5 143.13,-848.26 207,-917 210.22,-920.46 213.88,-923.51 217.83,-926.2"/>
<polygon fill="#4a6fa5" stroke="#4a6fa5" points="216.77,-928.01 222.97,-929.41 219,-924.45 216.77,-928.01"/>
</g>
<!-- Node0x6015d58c8dd0 -->
<g id="node13" class="node">
<title>Node0x6015d58c8dd0</title>
<path fill="#f0f4ff" stroke="black" d="M352,-906C352,-906 222,-906 222,-906 216,-906 210,-900 210,-894 210,-894 210,-882 210,-882 210,-876 216,-870 222,-870 222,-870 352,-870 352,-870 358,-870 364,-876 364,-882 364,-882 364,-894 364,-894 364,-900 358,-906 352,-906"/>
<text text-anchor="middle" x="287" y="-885.8" font-family="Courier,monospace" font-size="9.00">CTiffImg::GetBytesPerLine()</text>
</g>
<!-- Node0x6015d57ede70&#45;&gt;Node0x6015d58c8dd0 -->
<g id="edge9" class="edge">
<title>Node0x6015d57ede70&#45;&gt;Node0x6015d58c8dd0</title>
<path fill="none" stroke="#4a6fa5" d="M134.79,-703.18C139.97,-706.26 144.82,-709.84 149,-714 198.19,-762.96 157.22,-810.63 207,-859 209.82,-861.74 212.92,-864.22 216.21,-866.48"/>
<polygon fill="#4a6fa5" stroke="#4a6fa5" points="215.33,-868.4 221.52,-869.83 217.57,-864.85 215.33,-868.4"/>
</g>
<!-- Node0x6015d58c92d0 -->
<g id="node14" class="node">
<title>Node0x6015d58c92d0</title>
<path fill="#f0f4ff" stroke="black" d="M331,-848C331,-848 243,-848 243,-848 237,-848 231,-842 231,-836 231,-836 231,-824 231,-824 231,-818 237,-812 243,-812 243,-812 331,-812 331,-812 337,-812 343,-818 343,-824 343,-824 343,-836 343,-836 343,-842 337,-848 331,-848"/>
<text text-anchor="middle" x="287" y="-827.8" font-family="Courier,monospace" font-size="9.00">CTiffImg::GetYRes()</text>
</g>
<!-- Node0x6015d57ede70&#45;&gt;Node0x6015d58c92d0 -->
<g id="edge10" class="edge">
<title>Node0x6015d57ede70&#45;&gt;Node0x6015d58c92d0</title>
<path fill="none" stroke="#4a6fa5" d="M132.07,-703.13C138.09,-706.26 143.88,-709.86 149,-714 185.16,-743.2 170.5,-772.24 207,-801 212.56,-805.38 218.84,-809.14 225.38,-812.36"/>
<polygon fill="#4a6fa5" stroke="#4a6fa5" points="224.59,-814.31 230.92,-814.94 226.36,-810.5 224.59,-814.31"/>
</g>
<!-- Node0x6015d58c9550 -->
<g id="node15" class="node">
<title>Node0x6015d58c9550</title>
<path fill="#f0f4ff" stroke="black" d="M331,-790C331,-790 243,-790 243,-790 237,-790 231,-784 231,-778 231,-778 231,-766 231,-766 231,-760 237,-754 243,-754 243,-754 331,-754 331,-754 337,-754 343,-760 343,-766 343,-766 343,-778 343,-778 343,-784 337,-790 331,-790"/>
<text text-anchor="middle" x="287" y="-769.8" font-family="Courier,monospace" font-size="9.00">CTiffImg::GetXRes()</text>
</g>
<!-- Node0x6015d57ede70&#45;&gt;Node0x6015d58c9550 -->
<g id="edge11" class="edge">
<title>Node0x6015d57ede70&#45;&gt;Node0x6015d58c9550</title>
<path fill="none" stroke="#4a6fa5" d="M123.2,-703.11C131.84,-706.6 140.73,-710.31 149,-714 175.32,-725.74 180.54,-731.57 207,-743 213.81,-745.94 221.03,-748.86 228.22,-751.64"/>
<polygon fill="#4a6fa5" stroke="#4a6fa5" points="227.9,-753.77 234.25,-753.95 229.4,-749.84 227.9,-753.77"/>
</g>
<!-- Node0x6015d58c8b50 -->
<g id="node16" class="node">
<title>Node0x6015d58c8b50</title>
<path fill="#f0f4ff" stroke="black" d="M336.5,-732C336.5,-732 237.5,-732 237.5,-732 231.5,-732 225.5,-726 225.5,-720 225.5,-720 225.5,-708 225.5,-708 225.5,-702 231.5,-696 237.5,-696 237.5,-696 336.5,-696 336.5,-696 342.5,-696 348.5,-702 348.5,-708 348.5,-708 348.5,-720 348.5,-720 348.5,-726 342.5,-732 336.5,-732"/>
<text text-anchor="middle" x="287" y="-711.8" font-family="Courier,monospace" font-size="9.00">CTiffImg::GetPlanar()</text>
</g>
<!-- Node0x6015d57ede70&#45;&gt;Node0x6015d58c8b50 -->
<g id="edge12" class="edge">
<title>Node0x6015d57ede70&#45;&gt;Node0x6015d58c8b50</title>
<path fill="none" stroke="#4a6fa5" d="M138.66,-693.7C164.11,-697.21 193.49,-701.25 219.29,-704.81"/>
<polygon fill="#4a6fa5" stroke="#4a6fa5" points="219.19,-706.92 225.42,-705.65 219.76,-702.75 219.19,-706.92"/>
</g>
<!-- Node0x6015d58c7df0 -->
<g id="node17" class="node">
<title>Node0x6015d58c7df0</title>
<path fill="#f0f4ff" stroke="black" d="M341.5,-674C341.5,-674 232.5,-674 232.5,-674 226.5,-674 220.5,-668 220.5,-662 220.5,-662 220.5,-650 220.5,-650 220.5,-644 226.5,-638 232.5,-638 232.5,-638 341.5,-638 341.5,-638 347.5,-638 353.5,-644 353.5,-650 353.5,-650 353.5,-662 353.5,-662 353.5,-668 347.5,-674 341.5,-674"/>
<text text-anchor="middle" x="287" y="-653.8" font-family="Courier,monospace" font-size="9.00">CTiffImg::GetCompress()</text>
</g>
<!-- Node0x6015d57ede70&#45;&gt;Node0x6015d58c7df0 -->
<g id="edge13" class="edge">
<title>Node0x6015d57ede70&#45;&gt;Node0x6015d58c7df0</title>
<path fill="none" stroke="#4a6fa5" d="M138.66,-676.3C162.44,-673.02 189.65,-669.27 214.16,-665.9"/>
<polygon fill="#4a6fa5" stroke="#4a6fa5" points="214.67,-667.95 220.33,-665.05 214.1,-663.79 214.67,-667.95"/>
</g>
<!-- Node0x6015d58c82f0 -->
<g id="node18" class="node">
<title>Node0x6015d58c82f0</title>
<path fill="#f0f4ff" stroke="black" d="M352,-616C352,-616 222,-616 222,-616 216,-616 210,-610 210,-604 210,-604 210,-592 210,-592 210,-586 216,-580 222,-580 222,-580 352,-580 352,-580 358,-580 364,-586 364,-592 364,-592 364,-604 364,-604 364,-610 358,-616 352,-616"/>
<text text-anchor="middle" x="287" y="-595.8" font-family="Courier,monospace" font-size="9.00">CTiffImg::GetExtraSamples()</text>
</g>
<!-- Node0x6015d57ede70&#45;&gt;Node0x6015d58c82f0 -->
<g id="edge14" class="edge">
<title>Node0x6015d57ede70&#45;&gt;Node0x6015d58c82f0</title>
<path fill="none" stroke="#4a6fa5" d="M123.2,-666.89C131.84,-663.4 140.73,-659.69 149,-656 175.32,-644.26 180.54,-638.43 207,-627 213.81,-624.06 221.03,-621.14 228.22,-618.36"/>
<polygon fill="#4a6fa5" stroke="#4a6fa5" points="229.4,-620.16 234.25,-616.05 227.9,-616.23 229.4,-620.16"/>
</g>
<!-- Node0x6015d58c8570 -->
<g id="node19" class="node">
<title>Node0x6015d58c8570</title>
<path fill="#f0f4ff" stroke="black" d="M339,-558C339,-558 235,-558 235,-558 229,-558 223,-552 223,-546 223,-546 223,-534 223,-534 223,-528 229,-522 235,-522 235,-522 339,-522 339,-522 345,-522 351,-528 351,-534 351,-534 351,-546 351,-546 351,-552 345,-558 339,-558"/>
<text text-anchor="middle" x="287" y="-537.8" font-family="Courier,monospace" font-size="9.00">CTiffImg::GetSamples()</text>
</g>
<!-- Node0x6015d57ede70&#45;&gt;Node0x6015d58c8570 -->
<g id="edge15" class="edge">
<title>Node0x6015d57ede70&#45;&gt;Node0x6015d58c8570</title>
<path fill="none" stroke="#4a6fa5" d="M132.07,-666.87C138.09,-663.74 143.88,-660.14 149,-656 185.16,-626.8 170.5,-597.76 207,-569 210.71,-566.08 214.75,-563.43 218.96,-561.03"/>
<polygon fill="#4a6fa5" stroke="#4a6fa5" points="220.09,-562.81 224.39,-558.13 218.11,-559.11 220.09,-562.81"/>
</g>
<!-- Node0x6015d58c78f0 -->
<g id="node20" class="node">
<title>Node0x6015d58c78f0</title>
<path fill="#f0f4ff" stroke="black" d="M334,-500C334,-500 240,-500 240,-500 234,-500 228,-494 228,-488 228,-488 228,-476 228,-476 228,-470 234,-464 240,-464 240,-464 334,-464 334,-464 340,-464 346,-470 346,-476 346,-476 346,-488 346,-488 346,-494 340,-500 334,-500"/>
<text text-anchor="middle" x="287" y="-479.8" font-family="Courier,monospace" font-size="9.00">CTiffImg::GetPhoto()</text>
</g>
<!-- Node0x6015d57ede70&#45;&gt;Node0x6015d58c78f0 -->
<g id="edge16" class="edge">
<title>Node0x6015d57ede70&#45;&gt;Node0x6015d58c78f0</title>
<path fill="none" stroke="#4a6fa5" d="M134.79,-666.82C139.97,-663.74 144.82,-660.16 149,-656 198.19,-607.04 157.22,-559.37 207,-511 211.48,-506.65 216.67,-502.94 222.2,-499.78"/>
<polygon fill="#4a6fa5" stroke="#4a6fa5" points="223.51,-501.47 227.83,-496.81 221.55,-497.75 223.51,-501.47"/>
</g>
<!-- Node0x6015d58c5d70 -->
<g id="node21" class="node">
<title>Node0x6015d58c5d70</title>
<path fill="#f0f4ff" stroke="black" d="M355,-442C355,-442 219,-442 219,-442 213,-442 207,-436 207,-430 207,-430 207,-418 207,-418 207,-412 213,-406 219,-406 219,-406 355,-406 355,-406 361,-406 367,-412 367,-418 367,-418 367,-430 367,-430 367,-436 361,-442 355,-442"/>
<text text-anchor="middle" x="287" y="-421.8" font-family="Courier,monospace" font-size="9.00">CTiffImg::GetBitsPerSample()</text>
</g>
<!-- Node0x6015d57ede70&#45;&gt;Node0x6015d58c5d70 -->
<g id="edge17" class="edge">
<title>Node0x6015d57ede70&#45;&gt;Node0x6015d58c5d70</title>
<path fill="none" stroke="#4a6fa5" d="M135.95,-666.81C140.77,-663.74 145.22,-660.17 149,-656 212.04,-586.5 143.13,-521.74 207,-453 209.42,-450.39 212.1,-448.02 214.97,-445.85"/>
<polygon fill="#4a6fa5" stroke="#4a6fa5" points="216.55,-447.32 220.3,-442.19 214.17,-443.85 216.55,-447.32"/>
</g>
<!-- Node0x6015d58c3850 -->
<g id="node22" class="node">
<title>Node0x6015d58c3850</title>
<path fill="#f0f4ff" stroke="black" d="M315.5,-384C315.5,-384 258.5,-384 258.5,-384 252.5,-384 246.5,-378 246.5,-372 246.5,-372 246.5,-360 246.5,-360 246.5,-354 252.5,-348 258.5,-348 258.5,-348 315.5,-348 315.5,-348 321.5,-348 327.5,-354 327.5,-360 327.5,-360 327.5,-372 327.5,-372 327.5,-378 321.5,-384 315.5,-384"/>
<text text-anchor="middle" x="287" y="-363.8" font-family="Courier,monospace" font-size="9.00">fuzz_tmpdir()</text>
</g>
<!-- Node0x6015d57ede70&#45;&gt;Node0x6015d58c3850 -->
<g id="edge18" class="edge">
<title>Node0x6015d57ede70&#45;&gt;Node0x6015d58c3850</title>
<path fill="none" stroke="#4a6fa5" d="M136.57,-666.81C141.19,-663.75 145.44,-660.17 149,-656 226.17,-565.64 128.75,-484.43 207,-395 215.6,-385.17 227.82,-378.67 240.09,-374.37"/>
<polygon fill="#4a6fa5" stroke="#4a6fa5" points="241.04,-376.28 246.1,-372.44 239.75,-372.28 241.04,-376.28"/>
</g>
<!-- Node0x6015d578b4e0 -->
<g id="node23" class="node">
<title>Node0x6015d578b4e0</title>
<path fill="#f0f4ff" stroke="black" d="M326,-326C326,-326 248,-326 248,-326 242,-326 236,-320 236,-314 236,-314 236,-302 236,-302 236,-296 242,-290 248,-290 248,-290 326,-290 326,-290 332,-290 338,-296 338,-302 338,-302 338,-314 338,-314 338,-320 332,-326 326,-326"/>
<text text-anchor="middle" x="287" y="-305.8" font-family="Courier,monospace" font-size="9.00">fuzz_build_path()</text>
</g>
<!-- Node0x6015d57ede70&#45;&gt;Node0x6015d578b4e0 -->
<g id="edge19" class="edge">
<title>Node0x6015d57ede70&#45;&gt;Node0x6015d578b4e0</title>
<path fill="none" stroke="#4a6fa5" d="M136.74,-666.96C141.33,-663.86 145.52,-660.24 149,-656 240.44,-544.63 114.23,-447.27 207,-337 213.23,-329.59 221.53,-324.08 230.4,-319.97"/>
<polygon fill="#4a6fa5" stroke="#4a6fa5" points="231.29,-321.87 235.99,-317.59 229.65,-318.01 231.29,-321.87"/>
</g>
<!-- Node0x6015d578b2b0 -->
<g id="node24" class="node">
<title>Node0x6015d578b2b0</title>
<path fill="#f0f4ff" stroke="black" d="M302,-268C302,-268 272,-268 272,-268 266,-268 260,-262 260,-256 260,-256 260,-244 260,-244 260,-238 266,-232 272,-232 272,-232 302,-232 302,-232 308,-232 314,-238 314,-244 314,-244 314,-256 314,-256 314,-262 308,-268 302,-268"/>
<text text-anchor="middle" x="287" y="-247.8" font-family="Courier,monospace" font-size="9.00">mkstemp</text>
</g>
<!-- Node0x6015d57ede70&#45;&gt;Node0x6015d578b2b0 -->
<g id="edge20" class="edge">
<title>Node0x6015d57ede70&#45;&gt;Node0x6015d578b2b0</title>
<path fill="none" stroke="#4a6fa5" d="M137.21,-666.83C141.63,-663.76 145.66,-660.18 149,-656 254.78,-523.52 99.64,-410.2 207,-279 218.45,-265 237.3,-257.76 253.72,-254.02"/>
<polygon fill="#4a6fa5" stroke="#4a6fa5" points="254.19,-256.06 259.64,-252.79 253.34,-251.95 254.19,-256.06"/>
</g>
<!-- Node0x6015d58c6de0 -->
<g id="node25" class="node">
<title>Node0x6015d58c6de0</title>
<path fill="#f0f4ff" stroke="black" d="M336.5,-210C336.5,-210 237.5,-210 237.5,-210 231.5,-210 225.5,-204 225.5,-198 225.5,-198 225.5,-186 225.5,-186 225.5,-180 231.5,-174 237.5,-174 237.5,-174 336.5,-174 336.5,-174 342.5,-174 348.5,-180 348.5,-186 348.5,-186 348.5,-198 348.5,-198 348.5,-204 342.5,-210 336.5,-210"/>
<text text-anchor="middle" x="287" y="-189.8" font-family="Courier,monospace" font-size="9.00">CTiffImg::GetHeight()</text>
</g>
<!-- Node0x6015d57ede70&#45;&gt;Node0x6015d58c6de0 -->
<g id="edge21" class="edge">
<title>Node0x6015d57ede70&#45;&gt;Node0x6015d58c6de0</title>
<path fill="none" stroke="#4a6fa5" d="M137.3,-666.9C141.71,-663.82 145.7,-660.21 149,-656 269.17,-502.37 85,-373.18 207,-221 210.62,-216.48 215.02,-212.66 219.86,-209.44"/>
<polygon fill="#4a6fa5" stroke="#4a6fa5" points="221.23,-211.07 225.28,-206.18 219.06,-207.48 221.23,-211.07"/>
</g>
<!-- Node0x6015d58c51b0 -->
<g id="node26" class="node">
<title>Node0x6015d58c51b0</title>
<path fill="#f0f4ff" stroke="black" d="M334,-152C334,-152 240,-152 240,-152 234,-152 228,-146 228,-140 228,-140 228,-128 228,-128 228,-122 234,-116 240,-116 240,-116 334,-116 334,-116 340,-116 346,-122 346,-128 346,-128 346,-140 346,-140 346,-146 340,-152 334,-152"/>
<text text-anchor="middle" x="287" y="-131.8" font-family="Courier,monospace" font-size="9.00">CTiffImg::CTiffImg()</text>
</g>
<!-- Node0x6015d57ede70&#45;&gt;Node0x6015d58c51b0 -->
<g id="edge22" class="edge">
<title>Node0x6015d57ede70&#45;&gt;Node0x6015d58c51b0</title>
<path fill="none" stroke="#4a6fa5" d="M137.37,-666.95C141.76,-663.86 145.74,-660.24 149,-656 283.58,-481.18 70.34,-336.2 207,-163 211.23,-157.64 216.54,-153.28 222.4,-149.72"/>
<polygon fill="#4a6fa5" stroke="#4a6fa5" points="223.69,-151.4 227.93,-146.67 221.66,-147.73 223.69,-151.4"/>
</g>
<!-- Node0x6015d58c5f30 -->
<g id="node27" class="node">
<title>Node0x6015d58c5f30</title>
<path fill="#f0f4ff" stroke="black" d="M323.5,-94C323.5,-94 250.5,-94 250.5,-94 244.5,-94 238.5,-88 238.5,-82 238.5,-82 238.5,-70 238.5,-70 238.5,-64 244.5,-58 250.5,-58 250.5,-58 323.5,-58 323.5,-58 329.5,-58 335.5,-64 335.5,-70 335.5,-70 335.5,-82 335.5,-82 335.5,-88 329.5,-94 323.5,-94"/>
<text text-anchor="middle" x="287" y="-73.8" font-family="Courier,monospace" font-size="9.00">CTiffImg::Open()</text>
</g>
<!-- Node0x6015d57ede70&#45;&gt;Node0x6015d58c5f30 -->
<g id="edge23" class="edge">
<title>Node0x6015d57ede70&#45;&gt;Node0x6015d58c5f30</title>
<path fill="none" stroke="#4a6fa5" d="M137.42,-667C141.81,-663.89 145.76,-660.26 149,-656 298.01,-459.96 55.65,-299.24 207,-105 213.53,-96.62 222.73,-90.66 232.55,-86.42"/>
<polygon fill="#4a6fa5" stroke="#4a6fa5" points="233.57,-88.27 238.38,-84.12 232.03,-84.37 233.57,-88.27"/>
</g>
<!-- Node0x6015d58c7670 -->
<g id="node28" class="node">
<title>Node0x6015d58c7670</title>
<path fill="#f0f4ff" stroke="black" d="M334,-36C334,-36 240,-36 240,-36 234,-36 228,-30 228,-24 228,-24 228,-12 228,-12 228,-6 234,0 240,0 240,0 334,0 334,0 340,0 346,-6 346,-12 346,-12 346,-24 346,-24 346,-30 340,-36 334,-36"/>
<text text-anchor="middle" x="287" y="-15.8" font-family="Courier,monospace" font-size="9.00">CTiffImg::GetWidth()</text>
</g>
<!-- Node0x6015d57ede70&#45;&gt;Node0x6015d58c7670 -->
<g id="edge24" class="edge">
<title>Node0x6015d57ede70&#45;&gt;Node0x6015d58c7670</title>
<path fill="none" stroke="#4a6fa5" d="M137.8,-666.79C142.04,-663.73 145.87,-660.17 149,-656 312.45,-438.73 40.95,-262.3 207,-47 211.17,-41.6 216.44,-37.2 222.28,-33.62"/>
<polygon fill="#4a6fa5" stroke="#4a6fa5" points="223.57,-35.31 227.79,-30.56 221.53,-31.64 223.57,-35.31"/>
</g>
<!-- Node0x6015d58c2a50&#45;&gt;Node0x6015d58c2a50 -->
<g id="edge36" class="edge">
<title>Node0x6015d58c2a50&#45;&gt;Node0x6015d58c2a50</title>
<path fill="none" stroke="#4a6fa5" d="M250.05,-1196.1C241.15,-1207.32 253.46,-1218 287,-1218 315.04,-1218 328.24,-1210.54 326.62,-1201.53"/>
<polygon fill="#4a6fa5" stroke="#4a6fa5" points="328.48,-1200.56 323.95,-1196.1 324.71,-1202.41 328.48,-1200.56"/>
</g>
<!-- Node0x6015d58c6e60 -->
<g id="node34" class="node">
<title>Node0x6015d58c6e60</title>
<path fill="#f0f4ff" stroke="black" d="M570,-1660C570,-1660 476,-1660 476,-1660 470,-1660 464,-1654 464,-1648 464,-1648 464,-1636 464,-1636 464,-1630 470,-1624 476,-1624 476,-1624 570,-1624 570,-1624 576,-1624 582,-1630 582,-1636 582,-1636 582,-1648 582,-1648 582,-1654 576,-1660 570,-1660"/>
<text text-anchor="middle" x="523" y="-1639.8" font-family="Courier,monospace" font-size="9.00">CIccInfo::CIccInfo()</text>
</g>
<!-- Node0x6015d58c2a50&#45;&gt;Node0x6015d58c6e60 -->
<g id="edge25" class="edge">
<title>Node0x6015d58c2a50&#45;&gt;Node0x6015d58c6e60</title>
<path fill="none" stroke="#4a6fa5" d="M333.65,-1196.14C346.31,-1203.31 358.82,-1212.81 367,-1225 464.19,-1369.76 310.77,-1481.27 425,-1613 433.64,-1622.96 445.54,-1629.57 458.06,-1633.95"/>
<polygon fill="#4a6fa5" stroke="#4a6fa5" points="457.48,-1635.97 463.84,-1635.8 458.77,-1631.97 457.48,-1635.97"/>
</g>
<!-- Node0x6015d58cf7a0 -->
<g id="node35" class="node">
<title>Node0x6015d58cf7a0</title>
<path fill="#f0f4ff" stroke="black" d="M585.5,-1602C585.5,-1602 460.5,-1602 460.5,-1602 454.5,-1602 448.5,-1596 448.5,-1590 448.5,-1590 448.5,-1578 448.5,-1578 448.5,-1572 454.5,-1566 460.5,-1566 460.5,-1566 585.5,-1566 585.5,-1566 591.5,-1566 597.5,-1572 597.5,-1578 597.5,-1578 597.5,-1590 597.5,-1590 597.5,-1596 591.5,-1602 585.5,-1602"/>
<text text-anchor="middle" x="523" y="-1581.8" font-family="Courier,monospace" font-size="9.00">CIccInfo::GetVersionName()</text>
</g>
<!-- Node0x6015d58c2a50&#45;&gt;Node0x6015d58cf7a0 -->
<g id="edge26" class="edge">
<title>Node0x6015d58c2a50&#45;&gt;Node0x6015d58cf7a0</title>
<path fill="none" stroke="#4a6fa5" d="M333.04,-1196.04C345.84,-1203.24 358.57,-1212.78 367,-1225 451.58,-1347.56 326.01,-1443.75 425,-1555 430.02,-1560.64 436.09,-1565.21 442.71,-1568.9"/>
<polygon fill="#4a6fa5" stroke="#4a6fa5" points="442.09,-1570.94 448.39,-1571.8 444,-1567.2 442.09,-1570.94"/>
</g>
<!-- Node0x6015d58d09a0 -->
<g id="node36" class="node">
<title>Node0x6015d58d09a0</title>
<path fill="#f0f4ff" stroke="black" d="M593.5,-1544C593.5,-1544 452.5,-1544 452.5,-1544 446.5,-1544 440.5,-1538 440.5,-1532 440.5,-1532 440.5,-1520 440.5,-1520 440.5,-1514 446.5,-1508 452.5,-1508 452.5,-1508 593.5,-1508 593.5,-1508 599.5,-1508 605.5,-1514 605.5,-1520 605.5,-1520 605.5,-1532 605.5,-1532 605.5,-1538 599.5,-1544 593.5,-1544"/>
<text text-anchor="middle" x="523" y="-1523.8" font-family="Courier,monospace" font-size="9.00">CIccInfo::GetDeviceAttrName()</text>
</g>
<!-- Node0x6015d58c2a50&#45;&gt;Node0x6015d58d09a0 -->
<g id="edge27" class="edge">
<title>Node0x6015d58c2a50&#45;&gt;Node0x6015d58d09a0</title>
<path fill="none" stroke="#4a6fa5" d="M332.78,-1196.23C345.56,-1203.44 358.35,-1212.94 367,-1225 439.03,-1325.45 341.18,-1406.15 425,-1497 428.03,-1500.29 431.42,-1503.21 435.06,-1505.8"/>
<polygon fill="#4a6fa5" stroke="#4a6fa5" points="434,-1507.62 440.18,-1509.14 436.3,-1504.1 434,-1507.62"/>
</g>
<!-- Node0x6015d58cff20 -->
<g id="node37" class="node">
<title>Node0x6015d58cff20</title>
<path fill="#f0f4ff" stroke="black" d="M598.5,-1486C598.5,-1486 447.5,-1486 447.5,-1486 441.5,-1486 435.5,-1480 435.5,-1474 435.5,-1474 435.5,-1462 435.5,-1462 435.5,-1456 441.5,-1450 447.5,-1450 447.5,-1450 598.5,-1450 598.5,-1450 604.5,-1450 610.5,-1456 610.5,-1462 610.5,-1462 610.5,-1474 610.5,-1474 610.5,-1480 604.5,-1486 598.5,-1486"/>
<text text-anchor="middle" x="523" y="-1465.8" font-family="Courier,monospace" font-size="9.00">CIccInfo::GetProfileFlagsName()</text>
</g>
<!-- Node0x6015d58c2a50&#45;&gt;Node0x6015d58cff20 -->
<g id="edge28" class="edge">
<title>Node0x6015d58c2a50&#45;&gt;Node0x6015d58cff20</title>
<path fill="none" stroke="#4a6fa5" d="M331.56,-1196.06C344.59,-1203.34 357.83,-1212.92 367,-1225 426.59,-1303.48 356.23,-1368.43 425,-1439 427.66,-1441.73 430.56,-1444.2 433.64,-1446.44"/>
<polygon fill="#4a6fa5" stroke="#4a6fa5" points="432.48,-1448.19 438.64,-1449.78 434.81,-1444.7 432.48,-1448.19"/>
</g>
<!-- Node0x6015d58cfca0 -->
<g id="node38" class="node">
<title>Node0x6015d58cfca0</title>
<path fill="#f0f4ff" stroke="black" d="M601.5,-1428C601.5,-1428 444.5,-1428 444.5,-1428 438.5,-1428 432.5,-1422 432.5,-1416 432.5,-1416 432.5,-1404 432.5,-1404 432.5,-1398 438.5,-1392 444.5,-1392 444.5,-1392 601.5,-1392 601.5,-1392 607.5,-1392 613.5,-1398 613.5,-1404 613.5,-1404 613.5,-1416 613.5,-1416 613.5,-1422 607.5,-1428 601.5,-1428"/>
<text text-anchor="middle" x="523" y="-1407.8" font-family="Courier,monospace" font-size="9.00">CIccInfo::GetColorSpaceSigName()</text>
</g>
<!-- Node0x6015d58c2a50&#45;&gt;Node0x6015d58cfca0 -->
<g id="edge29" class="edge">
<title>Node0x6015d58c2a50&#45;&gt;Node0x6015d58cfca0</title>
<path fill="none" stroke="#4a6fa5" d="M330.1,-1196.11C343.34,-1203.48 357.09,-1213.11 367,-1225 414.37,-1281.81 371.01,-1330.43 425,-1381 427.95,-1383.76 431.15,-1386.26 434.53,-1388.52"/>
<polygon fill="#4a6fa5" stroke="#4a6fa5" points="433.77,-1390.52 439.98,-1391.88 435.98,-1386.94 433.77,-1390.52"/>
</g>
<!-- Node0x6015d58d4520 -->
<g id="node39" class="node">
<title>Node0x6015d58d4520</title>
<path fill="#f0f4ff" stroke="black" d="M572.5,-1370C572.5,-1370 473.5,-1370 473.5,-1370 467.5,-1370 461.5,-1364 461.5,-1358 461.5,-1358 461.5,-1346 461.5,-1346 461.5,-1340 467.5,-1334 473.5,-1334 473.5,-1334 572.5,-1334 572.5,-1334 578.5,-1334 584.5,-1340 584.5,-1346 584.5,-1346 584.5,-1358 584.5,-1358 584.5,-1364 578.5,-1370 572.5,-1370"/>
<text text-anchor="middle" x="523" y="-1349.8" font-family="Courier,monospace" font-size="9.00">CIccInfo::~CIccInfo()</text>
</g>
<!-- Node0x6015d58c2a50&#45;&gt;Node0x6015d58d4520 -->
<g id="edge30" class="edge">
<title>Node0x6015d58c2a50&#45;&gt;Node0x6015d58d4520</title>
<path fill="none" stroke="#4a6fa5" d="M326.89,-1196.05C340.63,-1203.67 355.5,-1213.48 367,-1225 402.75,-1260.83 385.12,-1291.83 425,-1323 434.02,-1330.05 444.73,-1335.39 455.69,-1339.44"/>
<polygon fill="#4a6fa5" stroke="#4a6fa5" points="455.08,-1341.45 461.43,-1341.43 456.46,-1337.48 455.08,-1341.45"/>
</g>
<!-- Node0x6015d58cf660 -->
<g id="node40" class="node">
<title>Node0x6015d58cf660</title>
<path fill="#f0f4ff" stroke="black" d="M606.5,-1312C606.5,-1312 439.5,-1312 439.5,-1312 433.5,-1312 427.5,-1306 427.5,-1300 427.5,-1300 427.5,-1288 427.5,-1288 427.5,-1282 433.5,-1276 439.5,-1276 439.5,-1276 606.5,-1276 606.5,-1276 612.5,-1276 618.5,-1282 618.5,-1288 618.5,-1288 618.5,-1300 618.5,-1300 618.5,-1306 612.5,-1312 606.5,-1312"/>
<text text-anchor="middle" x="523" y="-1291.8" font-family="Courier,monospace" font-size="9.00">CIccInfo::GetProfileClassSigName()</text>
</g>
<!-- Node0x6015d58c2a50&#45;&gt;Node0x6015d58cf660 -->
<g id="edge31" class="edge">
<title>Node0x6015d58c2a50&#45;&gt;Node0x6015d58cf660</title>
<path fill="none" stroke="#4a6fa5" d="M319.44,-1196.05C334.04,-1204.6 351.55,-1215.09 367,-1225 393.36,-1241.9 396.76,-1251.46 425,-1265 431.82,-1268.27 439.09,-1271.26 446.46,-1273.97"/>
<polygon fill="#4a6fa5" stroke="#4a6fa5" points="445.76,-1275.95 452.11,-1275.99 447.17,-1272 445.76,-1275.95"/>
</g>
<!-- Node0x6015d58d3060 -->
<g id="node41" class="node">
<title>Node0x6015d58d3060</title>
<path fill="#f0f4ff" stroke="black" d="M596,-1254C596,-1254 450,-1254 450,-1254 444,-1254 438,-1248 438,-1242 438,-1242 438,-1230 438,-1230 438,-1224 444,-1218 450,-1218 450,-1218 596,-1218 596,-1218 602,-1218 608,-1224 608,-1230 608,-1230 608,-1242 608,-1242 608,-1248 602,-1254 596,-1254"/>
<text text-anchor="middle" x="523" y="-1233.8" font-family="Courier,monospace" font-size="9.00">CIccInfo::GetPlatformSigName()</text>
</g>
<!-- Node0x6015d58c2a50&#45;&gt;Node0x6015d58d3060 -->
<g id="edge32" class="edge">
<title>Node0x6015d58c2a50&#45;&gt;Node0x6015d58d3060</title>
<path fill="none" stroke="#4a6fa5" d="M338.2,-1190.44C368.79,-1198.03 408.55,-1207.88 443.26,-1216.48"/>
<polygon fill="#4a6fa5" stroke="#4a6fa5" points="442.9,-1218.56 449.23,-1217.96 443.91,-1214.48 442.9,-1218.56"/>
</g>
<!-- Node0x6015d58d2de0 -->
<g id="node42" class="node">
<title>Node0x6015d58d2de0</title>
<path fill="#f0f4ff" stroke="black" d="M606.5,-1196C606.5,-1196 439.5,-1196 439.5,-1196 433.5,-1196 427.5,-1190 427.5,-1184 427.5,-1184 427.5,-1172 427.5,-1172 427.5,-1166 433.5,-1160 439.5,-1160 439.5,-1160 606.5,-1160 606.5,-1160 612.5,-1160 618.5,-1166 618.5,-1172 618.5,-1172 618.5,-1184 618.5,-1184 618.5,-1190 612.5,-1196 606.5,-1196"/>
<text text-anchor="middle" x="523" y="-1175.8" font-family="Courier,monospace" font-size="9.00">CIccInfo::GetRenderingIntentName()</text>
</g>
<!-- Node0x6015d58c2a50&#45;&gt;Node0x6015d58d2de0 -->
<g id="edge33" class="edge">
<title>Node0x6015d58c2a50&#45;&gt;Node0x6015d58d2de0</title>
<path fill="none" stroke="#4a6fa5" d="M338.2,-1178C362.4,-1178 392.33,-1178 420.96,-1178"/>
<polygon fill="#4a6fa5" stroke="#4a6fa5" points="421.04,-1180.1 427.04,-1178 421.04,-1175.9 421.04,-1180.1"/>
</g>
<!-- Node0x6015d58d13a0 -->
<g id="node43" class="node">
<title>Node0x6015d58d13a0</title>
<path fill="#f0f4ff" stroke="black" d="M609,-1138C609,-1138 437,-1138 437,-1138 431,-1138 425,-1132 425,-1126 425,-1126 425,-1114 425,-1114 425,-1108 431,-1102 437,-1102 437,-1102 609,-1102 609,-1102 615,-1102 621,-1108 621,-1114 621,-1114 621,-1126 621,-1126 621,-1132 615,-1138 609,-1138"/>
<text text-anchor="middle" x="523" y="-1117.8" font-family="Courier,monospace" font-size="9.00">CIccInfo::GetSpectralColorSigName()</text>
</g>
<!-- Node0x6015d58c2a50&#45;&gt;Node0x6015d58d13a0 -->
<g id="edge34" class="edge">
<title>Node0x6015d58c2a50&#45;&gt;Node0x6015d58d13a0</title>
<path fill="none" stroke="#4a6fa5" d="M338.2,-1165.56C368.79,-1157.97 408.55,-1148.12 443.26,-1139.52"/>
<polygon fill="#4a6fa5" stroke="#4a6fa5" points="443.91,-1141.52 449.23,-1138.04 442.9,-1137.44 443.91,-1141.52"/>
</g>
<!-- Node0x6015d58d0ea0 -->
<g id="node44" class="node">
<title>Node0x6015d58d0ea0</title>
<path fill="#f0f4ff" stroke="black" d="M543.5,-1080C543.5,-1080 502.5,-1080 502.5,-1080 496.5,-1080 490.5,-1074 490.5,-1068 490.5,-1068 490.5,-1056 490.5,-1056 490.5,-1050 496.5,-1044 502.5,-1044 502.5,-1044 543.5,-1044 543.5,-1044 549.5,-1044 555.5,-1050 555.5,-1056 555.5,-1056 555.5,-1068 555.5,-1068 555.5,-1074 549.5,-1080 543.5,-1080"/>
<text text-anchor="middle" x="523" y="-1059.8" font-family="Courier,monospace" font-size="9.00">icF16toF()</text>
</g>
<!-- Node0x6015d58c2a50&#45;&gt;Node0x6015d58d0ea0 -->
<g id="edge35" class="edge">
<title>Node0x6015d58c2a50&#45;&gt;Node0x6015d58d0ea0</title>
<path fill="none" stroke="#4a6fa5" d="M338.03,-1163.37C348.01,-1159.44 358.14,-1154.66 367,-1149 397.72,-1129.37 393.69,-1109.68 425,-1091 443.04,-1080.24 465.37,-1073.2 484.06,-1068.76"/>
<polygon fill="#4a6fa5" stroke="#4a6fa5" points="484.86,-1070.73 490.24,-1067.36 483.93,-1066.64 484.86,-1070.73"/>
</g>
<!-- Node0x6015d58d3560 -->
<g id="node45" class="node">
<title>Node0x6015d58d3560</title>
<path fill="#f0f4ff" stroke="black" d="M577.5,-1022C577.5,-1022 468.5,-1022 468.5,-1022 462.5,-1022 456.5,-1016 456.5,-1010 456.5,-1010 456.5,-998 456.5,-998 456.5,-992 462.5,-986 468.5,-986 468.5,-986 577.5,-986 577.5,-986 583.5,-986 589.5,-992 589.5,-998 589.5,-998 589.5,-1010 589.5,-1010 589.5,-1016 583.5,-1022 577.5,-1022"/>
<text text-anchor="middle" x="523" y="-1001.8" font-family="Courier,monospace" font-size="9.00">CIccProfile::Validate()</text>
</g>
<!-- Node0x6015d58c2a50&#45;&gt;Node0x6015d58d3560 -->
<g id="edge37" class="edge">
<title>Node0x6015d58c2a50&#45;&gt;Node0x6015d58d3560</title>
<path fill="none" stroke="#4a6fa5" d="M338.38,-1165.96C348.67,-1161.82 358.83,-1156.3 367,-1149 409.97,-1110.58 380.87,-1070.08 425,-1033 432.52,-1026.68 441.38,-1021.74 450.64,-1017.87"/>
<polygon fill="#4a6fa5" stroke="#4a6fa5" points="451.63,-1019.74 456.45,-1015.6 450.1,-1015.83 451.63,-1019.74"/>
</g>
<!-- Node0x6015d58d51a0 -->
<g id="node46" class="node">
<title>Node0x6015d58d51a0</title>
<path fill="#f0f4ff" stroke="black" d="M554,-964C554,-964 492,-964 492,-964 486,-964 480,-958 480,-952 480,-952 480,-940 480,-940 480,-934 486,-928 492,-928 492,-928 554,-928 554,-928 560,-928 566,-934 566,-940 566,-940 566,-952 566,-952 566,-958 560,-964 554,-964"/>
<text text-anchor="middle" x="523" y="-943.8" font-family="Courier,monospace" font-size="9.00">__dynamic_cast</text>
</g>
<!-- Node0x6015d58c2a50&#45;&gt;Node0x6015d58d51a0 -->
<g id="edge38" class="edge">
<title>Node0x6015d58c2a50&#45;&gt;Node0x6015d58d51a0</title>
<path fill="none" stroke="#4a6fa5" d="M338.37,-1167.13C348.9,-1162.91 359.17,-1157.07 367,-1149 423.77,-1090.5 366.47,-1031.73 425,-975 438.04,-962.36 456.35,-955.2 473.56,-951.16"/>
<polygon fill="#4a6fa5" stroke="#4a6fa5" points="474.41,-953.12 479.84,-949.8 473.53,-949.01 474.41,-953.12"/>
</g>
<!-- Node0x6015d58d4be0 -->
<g id="node47" class="node">
<title>Node0x6015d58d4be0</title>
<path fill="#f0f4ff" stroke="black" d="M575,-906C575,-906 471,-906 471,-906 465,-906 459,-900 459,-894 459,-894 459,-882 459,-882 459,-876 465,-870 471,-870 471,-870 575,-870 575,-870 581,-870 587,-876 587,-882 587,-882 587,-894 587,-894 587,-900 581,-906 575,-906"/>
<text text-anchor="middle" x="523" y="-885.8" font-family="Courier,monospace" font-size="9.00">CIccProfile::FindTag()</text>
</g>
<!-- Node0x6015d58c2a50&#45;&gt;Node0x6015d58d4be0 -->
<g id="edge39" class="edge">
<title>Node0x6015d58c2a50&#45;&gt;Node0x6015d58d4be0</title>
<path fill="none" stroke="#4a6fa5" d="M338.01,-1167.89C348.81,-1163.63 359.29,-1157.59 367,-1149 438.03,-1069.94 351.58,-993.85 425,-917 432.68,-908.96 442.5,-903.12 452.91,-898.89"/>
<polygon fill="#4a6fa5" stroke="#4a6fa5" points="453.88,-900.77 458.76,-896.7 452.4,-896.84 453.88,-900.77"/>
</g>
<!-- Node0x6015d58d4020 -->
<g id="node48" class="node">
<title>Node0x6015d58d4020</title>
<path fill="#f0f4ff" stroke="black" d="M598.5,-848C598.5,-848 447.5,-848 447.5,-848 441.5,-848 435.5,-842 435.5,-836 435.5,-836 435.5,-824 435.5,-824 435.5,-818 441.5,-812 447.5,-812 447.5,-812 598.5,-812 598.5,-812 604.5,-812 610.5,-818 610.5,-824 610.5,-824 610.5,-836 610.5,-836 610.5,-842 604.5,-848 598.5,-848"/>
<text text-anchor="middle" x="523" y="-827.8" font-family="Courier,monospace" font-size="9.00">CIccLocalizedUnicode::GetText()</text>
</g>
<!-- Node0x6015d58c2a50&#45;&gt;Node0x6015d58d4020 -->
<g id="edge40" class="edge">
<title>Node0x6015d58c2a50&#45;&gt;Node0x6015d58d4020</title>
<path fill="none" stroke="#4a6fa5" d="M338.31,-1168.15C349.1,-1163.88 359.49,-1157.77 367,-1149 452.5,-1049.16 336.48,-956.17 425,-859 427.37,-856.4 429.96,-854.03 432.72,-851.87"/>
<polygon fill="#4a6fa5" stroke="#4a6fa5" points="434.2,-853.4 437.87,-848.2 431.76,-849.97 434.2,-853.4"/>
</g>
<!-- Node0x6015d58d55e0 -->
<g id="node49" class="node">
<title>Node0x6015d58d55e0</title>
<path fill="#f0f4ff" stroke="black" d="M604,-790C604,-790 442,-790 442,-790 436,-790 430,-784 430,-778 430,-778 430,-766 430,-766 430,-760 436,-754 442,-754 442,-754 604,-754 604,-754 610,-754 616,-760 616,-766 616,-766 616,-778 616,-778 616,-784 610,-790 604,-790"/>
<text text-anchor="middle" x="523" y="-769.8" font-family="Courier,monospace" font-size="9.00">CIccTagTextDescription::GetText()</text>
</g>
<!-- Node0x6015d58c2a50&#45;&gt;Node0x6015d58d55e0 -->
<g id="edge41" class="edge">
<title>Node0x6015d58c2a50&#45;&gt;Node0x6015d58d55e0</title>
<path fill="none" stroke="#4a6fa5" d="M338.1,-1168.49C349.03,-1164.21 359.54,-1158 367,-1149 467.06,-1028.27 321.29,-918.6 425,-801 427.33,-798.36 429.88,-795.96 432.61,-793.77"/>
<polygon fill="#4a6fa5" stroke="#4a6fa5" points="434.1,-795.29 437.71,-790.06 431.63,-791.9 434.1,-795.29"/>
</g>
<!-- Node0x6015d58d46e0 -->
<g id="node50" class="node">
<title>Node0x6015d58d46e0</title>
<path fill="#f0f4ff" stroke="black" d="M538.5,-732C538.5,-732 507.5,-732 507.5,-732 501.5,-732 495.5,-726 495.5,-720 495.5,-720 495.5,-708 495.5,-708 495.5,-702 501.5,-696 507.5,-696 507.5,-696 538.5,-696 538.5,-696 544.5,-696 550.5,-702 550.5,-708 550.5,-708 550.5,-720 550.5,-720 550.5,-726 544.5,-732 538.5,-732"/>
<text text-anchor="middle" x="523" y="-711.8" font-family="Courier,monospace" font-size="9.00">resize()</text>
</g>
<!-- Node0x6015d58c2a50&#45;&gt;Node0x6015d58d46e0 -->
<g id="edge42" class="edge">
<title>Node0x6015d58c2a50&#45;&gt;Node0x6015d58d46e0</title>
<path fill="none" stroke="#4a6fa5" d="M338.25,-1168.61C349.17,-1164.32 359.65,-1158.09 367,-1149 481.68,-1007.32 306.04,-881.1 425,-743 440.77,-724.7 467.56,-717.69 489,-715.12"/>
<polygon fill="#4a6fa5" stroke="#4a6fa5" points="489.42,-717.19 495.17,-714.49 488.99,-713.01 489.42,-717.19"/>
</g>
<!-- Node0x6015d58ca290 -->
<g id="node29" class="node">
<title>Node0x6015d58ca290</title>
<path fill="#f0f4ff" stroke="black" d="M95,-761C95,-761 54,-761 54,-761 48,-761 42,-755 42,-749 42,-749 42,-737 42,-737 42,-731 48,-725 54,-725 54,-725 95,-725 95,-725 101,-725 107,-731 107,-737 107,-737 107,-749 107,-749 107,-755 101,-761 95,-761"/>
<text text-anchor="middle" x="74.5" y="-740.8" font-family="Courier,monospace" font-size="9.00">mem_read()</text>
</g>
<!-- Node0x6015d58c8f90 -->
<g id="node30" class="node">
<title>Node0x6015d58c8f90</title>
<path fill="#f0f4ff" stroke="black" d="M95,-819C95,-819 54,-819 54,-819 48,-819 42,-813 42,-807 42,-807 42,-795 42,-795 42,-789 48,-783 54,-783 54,-783 95,-783 95,-783 101,-783 107,-789 107,-795 107,-795 107,-807 107,-807 107,-813 101,-819 95,-819"/>
<text text-anchor="middle" x="74.5" y="-798.8" font-family="Courier,monospace" font-size="9.00">mem_seek()</text>
</g>
<!-- Node0x6015d58c79b0 -->
<g id="node31" class="node">
<title>Node0x6015d58c79b0</title>
<path fill="#f0f4ff" stroke="black" d="M95,-877C95,-877 54,-877 54,-877 48,-877 42,-871 42,-865 42,-865 42,-853 42,-853 42,-847 48,-841 54,-841 54,-841 95,-841 95,-841 101,-841 107,-847 107,-853 107,-853 107,-865 107,-865 107,-871 101,-877 95,-877"/>
<text text-anchor="middle" x="74.5" y="-856.8" font-family="Courier,monospace" font-size="9.00">mem_size()</text>
</g>
<!-- Node0x6015d58ccec0 -->
<g id="node32" class="node">
<title>Node0x6015d58ccec0</title>
<path fill="#f0f4ff" stroke="black" d="M92.5,-935C92.5,-935 56.5,-935 56.5,-935 50.5,-935 44.5,-929 44.5,-923 44.5,-923 44.5,-911 44.5,-911 44.5,-905 50.5,-899 56.5,-899 56.5,-899 92.5,-899 92.5,-899 98.5,-899 104.5,-905 104.5,-911 104.5,-911 104.5,-923 104.5,-923 104.5,-929 98.5,-935 92.5,-935"/>
<text text-anchor="middle" x="74.5" y="-914.8" font-family="Courier,monospace" font-size="9.00">mem_map()</text>
</g>
<!-- Node0x6015d58caeb0 -->
<g id="node33" class="node">
<title>Node0x6015d58caeb0</title>
<path fill="#f0f4ff" stroke="black" d="M97.5,-993C97.5,-993 51.5,-993 51.5,-993 45.5,-993 39.5,-987 39.5,-981 39.5,-981 39.5,-969 39.5,-969 39.5,-963 45.5,-957 51.5,-957 51.5,-957 97.5,-957 97.5,-957 103.5,-957 109.5,-963 109.5,-969 109.5,-969 109.5,-981 109.5,-981 109.5,-987 103.5,-993 97.5,-993"/>
<text text-anchor="middle" x="74.5" y="-972.8" font-family="Courier,monospace" font-size="9.00">mem_unmap()</text>
</g>
<!-- Node0x6015d58e9ec0 -->
<g id="node51" class="node">
<title>Node0x6015d58e9ec0</title>
<path fill="#f0f4ff" stroke="black" d="M90,-1051C90,-1051 59,-1051 59,-1051 53,-1051 47,-1045 47,-1039 47,-1039 47,-1027 47,-1027 47,-1021 53,-1015 59,-1015 59,-1015 90,-1015 90,-1015 96,-1015 102,-1021 102,-1027 102,-1027 102,-1039 102,-1039 102,-1045 96,-1051 90,-1051"/>
<text text-anchor="middle" x="74.5" y="-1030.8" font-family="Courier,monospace" font-size="9.00">length()</text>
</g>
<!-- Node0x6015d58ef0d0 -->
<g id="node52" class="node">
<title>Node0x6015d58ef0d0</title>
<path fill="#f0f4ff" stroke="black" d="M111,-1109C111,-1109 38,-1109 38,-1109 32,-1109 26,-1103 26,-1097 26,-1097 26,-1085 26,-1085 26,-1079 32,-1073 38,-1073 38,-1073 111,-1073 111,-1073 117,-1073 123,-1079 123,-1085 123,-1085 123,-1097 123,-1097 123,-1103 117,-1109 111,-1109"/>
<text text-anchor="middle" x="74.5" y="-1088.8" font-family="Courier,monospace" font-size="9.00">_Guard::_Guard()</text>
</g>
<!-- Node0x6015d58f6bf0 -->
<g id="node53" class="node">
<title>Node0x6015d58f6bf0</title>
<path fill="#f0f4ff" stroke="black" d="M113.5,-1167C113.5,-1167 35.5,-1167 35.5,-1167 29.5,-1167 23.5,-1161 23.5,-1155 23.5,-1155 23.5,-1143 23.5,-1143 23.5,-1137 29.5,-1131 35.5,-1131 35.5,-1131 113.5,-1131 113.5,-1131 119.5,-1131 125.5,-1137 125.5,-1143 125.5,-1143 125.5,-1155 125.5,-1155 125.5,-1161 119.5,-1167 113.5,-1167"/>
<text text-anchor="middle" x="74.5" y="-1146.8" font-family="Courier,monospace" font-size="9.00">_Guard::~_Guard()</text>
</g>
</g>
</svg>
