<?xml version="1.0" encoding="UTF-8" standalone="no"?>
<!DOCTYPE svg PUBLIC "-//W3C//DTD SVG 1.1//EN"
 "http://www.w3.org/Graphics/SVG/1.1/DTD/svg11.dtd">
<!-- Generated by graphviz version 2.43.0 (0)
 -->
<!-- Title: Call graph: /home/h02332/po/research/call&#45;graph/cfl/icc_calculator_fuzzer.ll Pages: 1 -->
<svg width="3929pt" height="14400pt"
 viewBox="0.00 0.00 3928.80 14400.00" xmlns="http://www.w3.org/2000/svg" xmlns:xlink="http://www.w3.org/1999/xlink">
<g id="graph0" class="graph" transform="scale(1.87 1.87) rotate(0) translate(36 7672)">
<title>Call graph: /home/h02332/po/research/call&#45;graph/cfl/icc_calculator_fuzzer.ll</title>
<polygon fill="white" stroke="transparent" points="-36,36 -36,-7672 2067,-7672 2067,36 -36,36"/>
<!-- Node0x58896ba6d890 -->
<g id="node1" class="node">
<title>Node0x58896ba6d890</title>
<path fill="#f0f4ff" stroke="black" d="M129,-744C129,-744 12,-744 12,-744 6,-744 0,-738 0,-732 0,-732 0,-720 0,-720 0,-714 6,-708 12,-708 12,-708 129,-708 129,-708 135,-708 141,-714 141,-720 141,-720 141,-732 141,-732 141,-738 135,-744 129,-744"/>
<text text-anchor="middle" x="70.5" y="-723.8" font-family="Courier,monospace" font-size="9.00">{LLVMFuzzerTestOneInput}</text>
</g>
<!-- Node0x58896ba62670 -->
<g id="node2" class="node">
<title>Node0x58896ba62670</title>
<path fill="#f0f4ff" stroke="black" d="M396.5,-1415C396.5,-1415 366.5,-1415 366.5,-1415 360.5,-1415 354.5,-1409 354.5,-1403 354.5,-1403 354.5,-1391 354.5,-1391 354.5,-1385 360.5,-1379 366.5,-1379 366.5,-1379 396.5,-1379 396.5,-1379 402.5,-1379 408.5,-1385 408.5,-1391 408.5,-1391 408.5,-1403 408.5,-1403 408.5,-1409 402.5,-1415 396.5,-1415"/>
<text text-anchor="middle" x="381.5" y="-1394.8" font-family="Courier,monospace" font-size="9.00">{new()}</text>
</g>
<!-- Node0x58896ba6d890&#45;&gt;Node0x58896ba62670 -->
<g id="edge1" class="edge">
<title>Node0x58896ba6d890&#45;&gt;Node0x58896ba62670</title>
<path fill="none" stroke="#4a6fa5" d="M73.32,-744.01C83.19,-838.34 133.45,-1274.5 227,-1365 258.97,-1395.92 312.65,-1400.41 347.31,-1399.61"/>
<polygon fill="#4a6fa5" stroke="#4a6fa5" points="347.49,-1402.05 354.41,-1399.36 347.33,-1397.16 347.49,-1402.05"/>
</g>
<!-- Node0x58896ba667d0 -->
<g id="node3" class="node">
<title>Node0x58896ba667d0</title>
<path fill="#f0f4ff" stroke="black" d="M440,-1350C440,-1350 323,-1350 323,-1350 317,-1350 311,-1344 311,-1338 311,-1338 311,-1326 311,-1326 311,-1320 317,-1314 323,-1314 323,-1314 440,-1314 440,-1314 446,-1314 452,-1320 452,-1326 452,-1326 452,-1338 452,-1338 452,-1344 446,-1350 440,-1350"/>
<text text-anchor="middle" x="381.5" y="-1329.8" font-family="Courier,monospace" font-size="9.00">{CIccMemIO::CIccMemIO()}</text>
</g>
<!-- Node0x58896ba6d890&#45;&gt;Node0x58896ba667d0 -->
<g id="edge2" class="edge">
<title>Node0x58896ba6d890&#45;&gt;Node0x58896ba667d0</title>
<path fill="none" stroke="#4a6fa5" d="M73.87,-744.21C85.79,-833.04 142.01,-1219.89 227,-1300 247.46,-1319.28 276.39,-1328.22 303.63,-1332.01"/>
<polygon fill="#4a6fa5" stroke="#4a6fa5" points="303.64,-1334.48 310.88,-1332.91 304.24,-1329.62 303.64,-1334.48"/>
</g>
<!-- Node0x58896ba6d800 -->
<g id="node4" class="node">
<title>Node0x58896ba6d800</title>
<path fill="#f0f4ff" stroke="black" d="M403,-1285C403,-1285 360,-1285 360,-1285 354,-1285 348,-1279 348,-1273 348,-1273 348,-1261 348,-1261 348,-1255 354,-1249 360,-1249 360,-1249 403,-1249 403,-1249 409,-1249 415,-1255 415,-1261 415,-1261 415,-1273 415,-1273 415,-1279 409,-1285 403,-1285"/>
<text text-anchor="middle" x="381.5" y="-1264.8" font-family="Courier,monospace" font-size="9.00">{delete()}</text>
</g>
<!-- Node0x58896ba6d890&#45;&gt;Node0x58896ba6d800 -->
<g id="edge3" class="edge">
<title>Node0x58896ba6d890&#45;&gt;Node0x58896ba6d800</title>
<path fill="none" stroke="#4a6fa5" d="M70.97,-744.22C69.88,-818.02 76.19,-1097.32 227,-1235 257.69,-1263.02 306.35,-1269 340.65,-1269.26"/>
<polygon fill="#4a6fa5" stroke="#4a6fa5" points="340.74,-1271.71 347.74,-1269.24 340.73,-1266.81 340.74,-1271.71"/>
</g>
<!-- Node0x58896ba0fa00 -->
<g id="node5" class="node">
<title>Node0x58896ba0fa00</title>
<path fill="#f0f4ff" stroke="black" d="M432,-1220C432,-1220 331,-1220 331,-1220 325,-1220 319,-1214 319,-1208 319,-1208 319,-1196 319,-1196 319,-1190 325,-1184 331,-1184 331,-1184 432,-1184 432,-1184 438,-1184 444,-1190 444,-1196 444,-1196 444,-1208 444,-1208 444,-1214 438,-1220 432,-1220"/>
<text text-anchor="middle" x="381.5" y="-1199.8" font-family="Courier,monospace" font-size="9.00">{CIccMemIO::Attach()}</text>
</g>
<!-- Node0x58896ba6d890&#45;&gt;Node0x58896ba0fa00 -->
<g id="edge4" class="edge">
<title>Node0x58896ba6d890&#45;&gt;Node0x58896ba0fa00</title>
<path fill="none" stroke="#4a6fa5" d="M71.89,-744.22C74.4,-812.09 92.8,-1052.36 227,-1170 250.02,-1190.18 282.44,-1198.81 311.56,-1202.13"/>
<polygon fill="#4a6fa5" stroke="#4a6fa5" points="311.68,-1204.61 318.89,-1202.87 312.17,-1199.73 311.68,-1204.61"/>
</g>
<!-- Node0x58896ba77540 -->
<g id="node6" class="node">
<title>Node0x58896ba77540</title>
<path fill="#f0f4ff" stroke="black" d="M421.5,-1155C421.5,-1155 341.5,-1155 341.5,-1155 335.5,-1155 329.5,-1149 329.5,-1143 329.5,-1143 329.5,-1131 329.5,-1131 329.5,-1125 335.5,-1119 341.5,-1119 341.5,-1119 421.5,-1119 421.5,-1119 427.5,-1119 433.5,-1125 433.5,-1131 433.5,-1131 433.5,-1143 433.5,-1143 433.5,-1149 427.5,-1155 421.5,-1155"/>
<text text-anchor="middle" x="381.5" y="-1134.8" font-family="Courier,monospace" font-size="9.00">{__cxa_end_catch}</text>
</g>
<!-- Node0x58896ba6d890&#45;&gt;Node0x58896ba77540 -->
<g id="edge5" class="edge">
<title>Node0x58896ba6d890&#45;&gt;Node0x58896ba77540</title>
<path fill="none" stroke="#4a6fa5" d="M73.09,-744.1C79.52,-805.43 109.13,-1007.03 227,-1105 253.37,-1126.92 290.96,-1135.02 322.34,-1137.59"/>
<polygon fill="#4a6fa5" stroke="#4a6fa5" points="322.19,-1140.03 329.34,-1138.08 322.53,-1135.14 322.19,-1140.03"/>
</g>
<!-- Node0x58896ba3baf0 -->
<g id="node7" class="node">
<title>Node0x58896ba3baf0</title>
<path fill="#f0f4ff" stroke="black" d="M450.5,-1090C450.5,-1090 312.5,-1090 312.5,-1090 306.5,-1090 300.5,-1084 300.5,-1078 300.5,-1078 300.5,-1066 300.5,-1066 300.5,-1060 306.5,-1054 312.5,-1054 312.5,-1054 450.5,-1054 450.5,-1054 456.5,-1054 462.5,-1060 462.5,-1066 462.5,-1066 462.5,-1078 462.5,-1078 462.5,-1084 456.5,-1090 450.5,-1090"/>
<text text-anchor="middle" x="381.5" y="-1069.8" font-family="Courier,monospace" font-size="9.00">{CIccProfile::CIccProfile()}</text>
</g>
<!-- Node0x58896ba6d890&#45;&gt;Node0x58896ba3baf0 -->
<g id="edge6" class="edge">
<title>Node0x58896ba6d890&#45;&gt;Node0x58896ba3baf0</title>
<path fill="none" stroke="#4a6fa5" d="M75.23,-744.11C87.13,-797.15 129.29,-953.34 227,-1032 245.94,-1047.25 270.07,-1056.73 293.56,-1062.62"/>
<polygon fill="#4a6fa5" stroke="#4a6fa5" points="293.12,-1065.03 300.49,-1064.26 294.25,-1060.27 293.12,-1065.03"/>
</g>
<!-- Node0x58896ba777c0 -->
<g id="node8" class="node">
<title>Node0x58896ba777c0</title>
<path fill="#f0f4ff" stroke="black" d="M2019,-548C2019,-548 1929,-548 1929,-548 1923,-548 1917,-542 1917,-536 1917,-536 1917,-524 1917,-524 1917,-518 1923,-512 1929,-512 1929,-512 2019,-512 2019,-512 2025,-512 2031,-518 2031,-524 2031,-524 2031,-536 2031,-536 2031,-542 2025,-548 2019,-548"/>
<text text-anchor="middle" x="1974" y="-527.8" font-family="Courier,monospace" font-size="9.00">{__cxa_begin_catch}</text>
</g>
<!-- Node0x58896ba6d890&#45;&gt;Node0x58896ba777c0 -->
<g id="edge7" class="edge">
<title>Node0x58896ba6d890&#45;&gt;Node0x58896ba777c0</title>
<path fill="none" stroke="#4a6fa5" d="M76.17,-744.07C89.8,-792.63 134.53,-926 227,-981 337.91,-1046.97 677.95,-1010 807,-1010 807,-1010 807,-1010 1267,-1010 1595.1,-1010 1883.67,-651.09 1955.75,-553.98"/>
<polygon fill="#4a6fa5" stroke="#4a6fa5" points="1957.8,-555.32 1959.99,-548.23 1953.86,-552.41 1957.8,-555.32"/>
</g>
<!-- Node0x58896ba768c0 -->
<g id="node9" class="node">
<title>Node0x58896ba768c0</title>
<path fill="#f0f4ff" stroke="black" d="M524,-966C524,-966 239,-966 239,-966 233,-966 227,-960 227,-954 227,-954 227,-942 227,-942 227,-936 233,-930 239,-930 239,-930 524,-930 524,-930 530,-930 536,-936 536,-942 536,-942 536,-954 536,-954 536,-960 530,-966 524,-966"/>
<text text-anchor="middle" x="381.5" y="-945.8" font-family="Courier,monospace" font-size="9.00">{basic_string&lt;char, std::char_traits &gt;::~basic_string()}</text>
</g>
<!-- Node0x58896ba6d890&#45;&gt;Node0x58896ba768c0 -->
<g id="edge8" class="edge">
<title>Node0x58896ba6d890&#45;&gt;Node0x58896ba768c0</title>
<path fill="none" stroke="#4a6fa5" d="M80.72,-744.1C101.28,-782.51 154.84,-872.23 227,-916 234.09,-920.3 241.67,-924.03 249.52,-927.27"/>
<polygon fill="#4a6fa5" stroke="#4a6fa5" points="248.76,-929.6 256.17,-929.87 250.54,-925.04 248.76,-929.6"/>
</g>
<!-- Node0x58896ba1dd30 -->
<g id="node10" class="node">
<title>Node0x58896ba1dd30</title>
<path fill="#f0f4ff" stroke="black" d="M437,-901C437,-901 326,-901 326,-901 320,-901 314,-895 314,-889 314,-889 314,-877 314,-877 314,-871 320,-865 326,-865 326,-865 437,-865 437,-865 443,-865 449,-871 449,-877 449,-877 449,-889 449,-889 449,-895 443,-901 437,-901"/>
<text text-anchor="middle" x="381.5" y="-880.8" font-family="Courier,monospace" font-size="9.00">{CIccProfile::Attach()}</text>
</g>
<!-- Node0x58896ba6d890&#45;&gt;Node0x58896ba1dd30 -->
<g id="edge9" class="edge">
<title>Node0x58896ba6d890&#45;&gt;Node0x58896ba1dd30</title>
<path fill="none" stroke="#4a6fa5" d="M90.46,-744.25C118.22,-769.97 172.55,-816.7 227,-843 251.93,-855.04 280.94,-863.79 307,-869.98"/>
<polygon fill="#4a6fa5" stroke="#4a6fa5" points="306.53,-872.39 313.9,-871.58 307.64,-867.62 306.53,-872.39"/>
</g>
<!-- Node0x58896ba76640 -->
<g id="node11" class="node">
<title>Node0x58896ba76640</title>
<path fill="#f0f4ff" stroke="black" d="M1387.5,-746C1387.5,-746 1144.5,-746 1144.5,-746 1138.5,-746 1132.5,-740 1132.5,-734 1132.5,-734 1132.5,-722 1132.5,-722 1132.5,-716 1138.5,-710 1144.5,-710 1144.5,-710 1387.5,-710 1387.5,-710 1393.5,-710 1399.5,-716 1399.5,-722 1399.5,-722 1399.5,-734 1399.5,-734 1399.5,-740 1393.5,-746 1387.5,-746"/>
<text text-anchor="middle" x="1266" y="-725.8" font-family="Courier,monospace" font-size="9.00">{std::__new_allocator&lt;char&gt;::~__new_allocator()}</text>
</g>
<!-- Node0x58896ba6d890&#45;&gt;Node0x58896ba76640 -->
<g id="edge10" class="edge">
<title>Node0x58896ba6d890&#45;&gt;Node0x58896ba76640</title>
<path fill="none" stroke="#4a6fa5" d="M103.33,-744.01C133.92,-760.22 182.02,-782.85 227,-792 576.62,-863.13 1004.98,-786.31 1182.2,-747.57"/>
<polygon fill="#4a6fa5" stroke="#4a6fa5" points="1182.86,-749.93 1189.17,-746.04 1181.8,-745.15 1182.86,-749.93"/>
</g>
<!-- Node0x58896ba77a40 -->
<g id="node12" class="node">
<title>Node0x58896ba77a40</title>
<path fill="#f0f4ff" stroke="black" d="M442.5,-777C442.5,-777 320.5,-777 320.5,-777 314.5,-777 308.5,-771 308.5,-765 308.5,-765 308.5,-753 308.5,-753 308.5,-747 314.5,-741 320.5,-741 320.5,-741 442.5,-741 442.5,-741 448.5,-741 454.5,-747 454.5,-753 454.5,-753 454.5,-765 454.5,-765 454.5,-771 448.5,-777 442.5,-777"/>
<text text-anchor="middle" x="381.5" y="-756.8" font-family="Courier,monospace" font-size="9.00">{CIccProfile::Validate()}</text>
</g>
<!-- Node0x58896ba6d890&#45;&gt;Node0x58896ba77a40 -->
<g id="edge11" class="edge">
<title>Node0x58896ba6d890&#45;&gt;Node0x58896ba77a40</title>
<path fill="none" stroke="#4a6fa5" d="M141.23,-733.45C188.73,-738.52 251.72,-745.25 301.15,-750.53"/>
<polygon fill="#4a6fa5" stroke="#4a6fa5" points="301.12,-752.99 308.34,-751.29 301.64,-748.11 301.12,-752.99"/>
</g>
<!-- Node0x58896ba0fb20 -->
<g id="node13" class="node">
<title>Node0x58896ba0fb20</title>
<path fill="#f0f4ff" stroke="black" d="M437,-712C437,-712 326,-712 326,-712 320,-712 314,-706 314,-700 314,-700 314,-688 314,-688 314,-682 320,-676 326,-676 326,-676 437,-676 437,-676 443,-676 449,-682 449,-688 449,-688 449,-700 449,-700 449,-706 443,-712 437,-712"/>
<text text-anchor="middle" x="381.5" y="-691.8" font-family="Courier,monospace" font-size="9.00">{llvm.memcpy.p0.p0.i64}</text>
</g>
<!-- Node0x58896ba6d890&#45;&gt;Node0x58896ba0fb20 -->
<g id="edge12" class="edge">
<title>Node0x58896ba6d890&#45;&gt;Node0x58896ba0fb20</title>
<path fill="none" stroke="#4a6fa5" d="M141.23,-718.78C190.62,-713.66 256.74,-706.82 306.96,-701.62"/>
<polygon fill="#4a6fa5" stroke="#4a6fa5" points="307.23,-704.05 313.94,-700.89 306.72,-699.18 307.23,-704.05"/>
</g>
<!-- Node0x58896ba753d0 -->
<g id="node14" class="node">
<title>Node0x58896ba753d0</title>
<path fill="#f0f4ff" stroke="black" d="M929.5,-718C929.5,-718 686.5,-718 686.5,-718 680.5,-718 674.5,-712 674.5,-706 674.5,-706 674.5,-694 674.5,-694 674.5,-688 680.5,-682 686.5,-682 686.5,-682 929.5,-682 929.5,-682 935.5,-682 941.5,-688 941.5,-694 941.5,-694 941.5,-706 941.5,-706 941.5,-712 935.5,-718 929.5,-718"/>
<text text-anchor="middle" x="808" y="-697.8" font-family="Courier,monospace" font-size="9.00">{std::initializer_list&lt;icTagSignature&gt;::begin()}</text>
</g>
<!-- Node0x58896ba6d890&#45;&gt;Node0x58896ba753d0 -->
<g id="edge13" class="edge">
<title>Node0x58896ba6d890&#45;&gt;Node0x58896ba753d0</title>
<path fill="none" stroke="#4a6fa5" d="M104.58,-707.92C135.28,-692.25 182.75,-670.75 227,-662 361.72,-635.36 399,-652.44 536,-662 588.85,-665.69 647.08,-673.37 695.97,-680.87"/>
<polygon fill="#4a6fa5" stroke="#4a6fa5" points="695.83,-683.33 703.12,-681.98 696.58,-678.49 695.83,-683.33"/>
</g>
<!-- Node0x58896ba74a40 -->
<g id="node15" class="node">
<title>Node0x58896ba74a40</title>
<path fill="#f0f4ff" stroke="black" d="M497.5,-588C497.5,-588 265.5,-588 265.5,-588 259.5,-588 253.5,-582 253.5,-576 253.5,-576 253.5,-564 253.5,-564 253.5,-558 259.5,-552 265.5,-552 265.5,-552 497.5,-552 497.5,-552 503.5,-552 509.5,-558 509.5,-564 509.5,-564 509.5,-576 509.5,-576 509.5,-582 503.5,-588 497.5,-588"/>
<text text-anchor="middle" x="381.5" y="-567.8" font-family="Courier,monospace" font-size="9.00">{std::initializer_list&lt;icTagSignature&gt;::end()}</text>
</g>
<!-- Node0x58896ba6d890&#45;&gt;Node0x58896ba74a40 -->
<g id="edge14" class="edge">
<title>Node0x58896ba6d890&#45;&gt;Node0x58896ba74a40</title>
<path fill="none" stroke="#4a6fa5" d="M90.49,-707.92C118.29,-682.42 172.66,-636.11 227,-610 243.8,-601.93 262.45,-595.33 280.79,-589.98"/>
<polygon fill="#4a6fa5" stroke="#4a6fa5" points="281.47,-592.34 287.53,-588.07 280.13,-587.63 281.47,-592.34"/>
</g>
<!-- Node0x58896ba738b0 -->
<g id="node16" class="node">
<title>Node0x58896ba738b0</title>
<path fill="#f0f4ff" stroke="black" d="M440,-523C440,-523 323,-523 323,-523 317,-523 311,-517 311,-511 311,-511 311,-499 311,-499 311,-493 317,-487 323,-487 323,-487 440,-487 440,-487 446,-487 452,-493 452,-499 452,-499 452,-511 452,-511 452,-517 446,-523 440,-523"/>
<text text-anchor="middle" x="381.5" y="-502.8" font-family="Courier,monospace" font-size="9.00">{CIccProfile::FindTag()}</text>
</g>
<!-- Node0x58896ba6d890&#45;&gt;Node0x58896ba738b0 -->
<g id="edge15" class="edge">
<title>Node0x58896ba6d890&#45;&gt;Node0x58896ba738b0</title>
<path fill="none" stroke="#4a6fa5" d="M80.95,-707.84C101.77,-669.74 155.5,-581.42 227,-538 249.89,-524.1 277.83,-516.01 303.56,-511.31"/>
<polygon fill="#4a6fa5" stroke="#4a6fa5" points="304.27,-513.68 310.75,-510.08 303.44,-508.85 304.27,-513.68"/>
</g>
<!-- Node0x58896ba74e40 -->
<g id="node17" class="node">
<title>Node0x58896ba74e40</title>
<path fill="#f0f4ff" stroke="black" d="M503,-458C503,-458 260,-458 260,-458 254,-458 248,-452 248,-446 248,-446 248,-434 248,-434 248,-428 254,-422 260,-422 260,-422 503,-422 503,-422 509,-422 515,-428 515,-434 515,-434 515,-446 515,-446 515,-452 509,-458 503,-458"/>
<text text-anchor="middle" x="381.5" y="-437.8" font-family="Courier,monospace" font-size="9.00">{char_traits &gt;::basic_string&lt;std::allocator &gt;()}</text>
</g>
<!-- Node0x58896ba6d890&#45;&gt;Node0x58896ba74e40 -->
<g id="edge16" class="edge">
<title>Node0x58896ba6d890&#45;&gt;Node0x58896ba74e40</title>
<path fill="none" stroke="#4a6fa5" d="M77.06,-707.84C92.44,-660.78 140.3,-534.34 227,-473 233.47,-468.42 240.46,-464.45 247.76,-461.02"/>
<polygon fill="#4a6fa5" stroke="#4a6fa5" points="249.13,-463.09 254.54,-458.02 247.15,-458.61 249.13,-463.09"/>
</g>
<!-- Node0x58896ba763c0 -->
<g id="node18" class="node">
<title>Node0x58896ba763c0</title>
<path fill="#f0f4ff" stroke="black" d="M521,-393C521,-393 242,-393 242,-393 236,-393 230,-387 230,-381 230,-381 230,-369 230,-369 230,-363 236,-357 242,-357 242,-357 521,-357 521,-357 527,-357 533,-363 533,-369 533,-369 533,-381 533,-381 533,-387 527,-393 521,-393"/>
<text text-anchor="middle" x="381.5" y="-372.8" font-family="Courier,monospace" font-size="9.00">{basic_string&lt;char, std::char_traits &gt;::basic_string()}</text>
</g>
<!-- Node0x58896ba6d890&#45;&gt;Node0x58896ba763c0 -->
<g id="edge17" class="edge">
<title>Node0x58896ba6d890&#45;&gt;Node0x58896ba763c0</title>
<path fill="none" stroke="#4a6fa5" d="M74.68,-707.77C85.27,-652.9 124.63,-488.09 227,-408 232.72,-403.53 238.9,-399.63 245.4,-396.23"/>
<polygon fill="#4a6fa5" stroke="#4a6fa5" points="246.79,-398.28 252,-393 244.64,-393.88 246.79,-398.28"/>
</g>
<!-- Node0x58896ba772c0 -->
<g id="node19" class="node">
<title>Node0x58896ba772c0</title>
<path fill="#f0f4ff" stroke="black" d="M447.5,-328C447.5,-328 315.5,-328 315.5,-328 309.5,-328 303.5,-322 303.5,-316 303.5,-316 303.5,-304 303.5,-304 303.5,-298 309.5,-292 315.5,-292 315.5,-292 447.5,-292 447.5,-292 453.5,-292 459.5,-298 459.5,-304 459.5,-304 459.5,-316 459.5,-316 459.5,-322 453.5,-328 447.5,-328"/>
<text text-anchor="middle" x="381.5" y="-307.8" font-family="Courier,monospace" font-size="9.00">{CIccMBB::OutputChannels()}</text>
</g>
<!-- Node0x58896ba6d890&#45;&gt;Node0x58896ba772c0 -->
<g id="edge18" class="edge">
<title>Node0x58896ba6d890&#45;&gt;Node0x58896ba772c0</title>
<path fill="none" stroke="#4a6fa5" d="M73.05,-707.74C79.33,-645.87 108.56,-442.45 227,-343 246.37,-326.74 271.86,-317.93 296.49,-313.31"/>
<polygon fill="#4a6fa5" stroke="#4a6fa5" points="296.93,-315.72 303.41,-312.11 296.09,-310.89 296.93,-315.72"/>
</g>
<!-- Node0x58896ba75f80 -->
<g id="node20" class="node">
<title>Node0x58896ba75f80</title>
<path fill="#f0f4ff" stroke="black" d="M521,-263C521,-263 242,-263 242,-263 236,-263 230,-257 230,-251 230,-251 230,-239 230,-239 230,-233 236,-227 242,-227 242,-227 521,-227 521,-227 527,-227 533,-233 533,-239 533,-239 533,-251 533,-251 533,-257 527,-263 521,-263"/>
<text text-anchor="middle" x="381.5" y="-242.8" font-family="Courier,monospace" font-size="9.00">{basic_string&lt;char, std::char_traits &gt;::basic_string()}</text>
</g>
<!-- Node0x58896ba6d890&#45;&gt;Node0x58896ba75f80 -->
<g id="edge19" class="edge">
<title>Node0x58896ba6d890&#45;&gt;Node0x58896ba75f80</title>
<path fill="none" stroke="#4a6fa5" d="M71.86,-707.65C74.25,-639.28 92.26,-397.19 227,-278 231.87,-273.69 237.17,-269.9 242.77,-266.56"/>
<polygon fill="#4a6fa5" stroke="#4a6fa5" points="244.04,-268.66 248.97,-263.12 241.66,-264.38 244.04,-268.66"/>
</g>
<!-- Node0x58896ba76b40 -->
<g id="node21" class="node">
<title>Node0x58896ba76b40</title>
<path fill="#f0f4ff" stroke="black" d="M445,-198C445,-198 318,-198 318,-198 312,-198 306,-192 306,-186 306,-186 306,-174 306,-174 306,-168 312,-162 318,-162 318,-162 445,-162 445,-162 451,-162 457,-168 457,-174 457,-174 457,-186 457,-186 457,-192 451,-198 445,-198"/>
<text text-anchor="middle" x="381.5" y="-177.8" font-family="Courier,monospace" font-size="9.00">{CIccMBB::InputChannels()}</text>
</g>
<!-- Node0x58896ba6d890&#45;&gt;Node0x58896ba76b40 -->
<g id="edge20" class="edge">
<title>Node0x58896ba6d890&#45;&gt;Node0x58896ba76b40</title>
<path fill="none" stroke="#4a6fa5" d="M70.94,-707.92C69.73,-634.04 75.52,-352.46 227,-213 246.34,-195.2 272.89,-186.12 298.47,-181.73"/>
<polygon fill="#4a6fa5" stroke="#4a6fa5" points="299.12,-184.11 305.66,-180.61 298.36,-179.27 299.12,-184.11"/>
</g>
<!-- Node0x58896ba76dc0 -->
<g id="node22" class="node">
<title>Node0x58896ba76dc0</title>
<path fill="#f0f4ff" stroke="black" d="M419,-133C419,-133 344,-133 344,-133 338,-133 332,-127 332,-121 332,-121 332,-109 332,-109 332,-103 338,-97 344,-97 344,-97 419,-97 419,-97 425,-97 431,-103 431,-109 431,-109 431,-121 431,-121 431,-127 425,-133 419,-133"/>
<text text-anchor="middle" x="381.5" y="-112.8" font-family="Courier,monospace" font-size="9.00">{__dynamic_cast}</text>
</g>
<!-- Node0x58896ba6d890&#45;&gt;Node0x58896ba76dc0 -->
<g id="edge21" class="edge">
<title>Node0x58896ba6d890&#45;&gt;Node0x58896ba76dc0</title>
<path fill="none" stroke="#4a6fa5" d="M73.82,-707.97C85.61,-619.15 141.69,-229.06 227,-148 252.81,-123.47 292.25,-115.39 324.68,-113.34"/>
<polygon fill="#4a6fa5" stroke="#4a6fa5" points="325.04,-115.78 331.91,-112.98 324.8,-110.89 325.04,-115.78"/>
</g>
<!-- Node0x58896ba77040 -->
<g id="node23" class="node">
<title>Node0x58896ba77040</title>
<path fill="#f0f4ff" stroke="black" d="M429.5,-68C429.5,-68 333.5,-68 333.5,-68 327.5,-68 321.5,-62 321.5,-56 321.5,-56 321.5,-44 321.5,-44 321.5,-38 327.5,-32 333.5,-32 333.5,-32 429.5,-32 429.5,-32 435.5,-32 441.5,-38 441.5,-44 441.5,-44 441.5,-56 441.5,-56 441.5,-62 435.5,-68 429.5,-68"/>
<text text-anchor="middle" x="381.5" y="-47.8" font-family="Courier,monospace" font-size="9.00">{CIccMemIO::Alloc()}</text>
</g>
<!-- Node0x58896ba6d890&#45;&gt;Node0x58896ba77040 -->
<g id="edge22" class="edge">
<title>Node0x58896ba6d890&#45;&gt;Node0x58896ba77040</title>
<path fill="none" stroke="#4a6fa5" d="M73.31,-707.89C83.15,-613.03 133.25,-174.39 227,-83 249.86,-60.72 283.93,-51.92 314.17,-48.92"/>
<polygon fill="#4a6fa5" stroke="#4a6fa5" points="314.59,-51.35 321.36,-48.31 314.17,-46.46 314.59,-51.35"/>
</g>
<!-- Node0x58896ba74a40&#45;&gt;Node0x58896ba753d0 -->
<g id="edge23" class="edge">
<title>Node0x58896ba74a40&#45;&gt;Node0x58896ba753d0</title>
<path fill="none" stroke="#4a6fa5" d="M472.73,-588.08C493.96,-593.81 516.17,-601.05 536,-610 578.02,-628.97 579.23,-650.8 622,-668 636.29,-673.75 651.61,-678.46 667.1,-682.33"/>
<polygon fill="#4a6fa5" stroke="#4a6fa5" points="666.84,-684.79 674.22,-684.05 667.99,-680.03 666.84,-684.79"/>
</g>
<!-- Node0x58896ba78580 -->
<g id="node25" class="node">
<title>Node0x58896ba78580</title>
<path fill="#f0f4ff" stroke="black" d="M926.5,-653C926.5,-653 689.5,-653 689.5,-653 683.5,-653 677.5,-647 677.5,-641 677.5,-641 677.5,-629 677.5,-629 677.5,-623 683.5,-617 689.5,-617 689.5,-617 926.5,-617 926.5,-617 932.5,-617 938.5,-623 938.5,-629 938.5,-629 938.5,-641 938.5,-641 938.5,-647 932.5,-653 926.5,-653"/>
<text text-anchor="middle" x="808" y="-632.8" font-family="Courier,monospace" font-size="9.00">{std::initializer_list&lt;icTagSignature&gt;::size()}</text>
</g>
<!-- Node0x58896ba74a40&#45;&gt;Node0x58896ba78580 -->
<g id="edge24" class="edge">
<title>Node0x58896ba74a40&#45;&gt;Node0x58896ba78580</title>
<path fill="none" stroke="#4a6fa5" d="M500.18,-588.02C556.77,-596.68 624.63,-607.08 682.13,-615.88"/>
<polygon fill="#4a6fa5" stroke="#4a6fa5" points="681.8,-618.31 689.09,-616.95 682.54,-613.46 681.8,-618.31"/>
</g>
<!-- Node0x58896ba78440 -->
<g id="node26" class="node">
<title>Node0x58896ba78440</title>
<path fill="#f0f4ff" stroke="black" d="M950.5,-588C950.5,-588 665.5,-588 665.5,-588 659.5,-588 653.5,-582 653.5,-576 653.5,-576 653.5,-564 653.5,-564 653.5,-558 659.5,-552 665.5,-552 665.5,-552 950.5,-552 950.5,-552 956.5,-552 962.5,-558 962.5,-564 962.5,-564 962.5,-576 962.5,-576 962.5,-582 956.5,-588 950.5,-588"/>
<text text-anchor="middle" x="808" y="-567.8" font-family="Courier,monospace" font-size="9.00">{basic_string&lt;char, std::char_traits &gt;::_M_local_data()}</text>
</g>
<!-- Node0x58896ba74e40&#45;&gt;Node0x58896ba78440 -->
<g id="edge25" class="edge">
<title>Node0x58896ba74e40&#45;&gt;Node0x58896ba78440</title>
<path fill="none" stroke="#4a6fa5" d="M494.62,-458.11C508.86,-462.14 522.99,-467.04 536,-473 579.56,-492.95 578.05,-518.94 622,-538 632.75,-542.66 644.13,-546.65 655.74,-550.05"/>
<polygon fill="#4a6fa5" stroke="#4a6fa5" points="655.21,-552.44 662.61,-551.99 656.54,-547.73 655.21,-552.44"/>
</g>
<!-- Node0x58896ba78080 -->
<g id="node27" class="node">
<title>Node0x58896ba78080</title>
<path fill="#f0f4ff" stroke="black" d="M921.5,-523C921.5,-523 694.5,-523 694.5,-523 688.5,-523 682.5,-517 682.5,-511 682.5,-511 682.5,-499 682.5,-499 682.5,-493 688.5,-487 694.5,-487 694.5,-487 921.5,-487 921.5,-487 927.5,-487 933.5,-493 933.5,-499 933.5,-499 933.5,-511 933.5,-511 933.5,-517 927.5,-523 921.5,-523"/>
<text text-anchor="middle" x="808" y="-502.8" font-family="Courier,monospace" font-size="9.00">{char_traits &gt;::_Alloc_hider::_Alloc_hider()}</text>
</g>
<!-- Node0x58896ba74e40&#45;&gt;Node0x58896ba78080 -->
<g id="edge26" class="edge">
<title>Node0x58896ba74e40&#45;&gt;Node0x58896ba78080</title>
<path fill="none" stroke="#4a6fa5" d="M500.18,-458.02C556.77,-466.68 624.63,-477.08 682.13,-485.88"/>
<polygon fill="#4a6fa5" stroke="#4a6fa5" points="681.8,-488.31 689.09,-486.95 682.54,-483.46 681.8,-488.31"/>
</g>
<!-- Node0x58896ba77f40 -->
<g id="node28" class="node">
<title>Node0x58896ba77f40</title>
<path fill="#f0f4ff" stroke="black" d="M877,-458C877,-458 739,-458 739,-458 733,-458 727,-452 727,-446 727,-446 727,-434 727,-434 727,-428 733,-422 739,-422 739,-422 877,-422 877,-422 883,-422 889,-428 889,-434 889,-434 889,-446 889,-446 889,-452 883,-458 877,-458"/>
<text text-anchor="middle" x="808" y="-437.8" font-family="Courier,monospace" font-size="9.00">{std::__throw_logic_error()}</text>
</g>
<!-- Node0x58896ba74e40&#45;&gt;Node0x58896ba77f40 -->
<g id="edge27" class="edge">
<title>Node0x58896ba74e40&#45;&gt;Node0x58896ba77f40</title>
<path fill="none" stroke="#4a6fa5" d="M515.07,-440C581.81,-440 660.84,-440 719.84,-440"/>
<polygon fill="#4a6fa5" stroke="#4a6fa5" points="719.93,-442.45 726.93,-440 719.93,-437.55 719.93,-442.45"/>
</g>
<!-- Node0x58896ba7ad20 -->
<g id="node29" class="node">
<title>Node0x58896ba7ad20</title>
<path fill="#f0f4ff" stroke="black" d="M924,-393C924,-393 692,-393 692,-393 686,-393 680,-387 680,-381 680,-381 680,-369 680,-369 680,-363 686,-357 692,-357 692,-357 924,-357 924,-357 930,-357 936,-363 936,-369 936,-369 936,-381 936,-381 936,-387 930,-393 924,-393"/>
<text text-anchor="middle" x="808" y="-372.8" font-family="Courier,monospace" font-size="9.00">{char_traits &gt;::_Alloc_hider::~_Alloc_hider()}</text>
</g>
<!-- Node0x58896ba74e40&#45;&gt;Node0x58896ba7ad20 -->
<g id="edge28" class="edge">
<title>Node0x58896ba74e40&#45;&gt;Node0x58896ba7ad20</title>
<path fill="none" stroke="#4a6fa5" d="M500.18,-421.98C556.77,-413.32 624.63,-402.92 682.13,-394.12"/>
<polygon fill="#4a6fa5" stroke="#4a6fa5" points="682.54,-396.54 689.09,-393.05 681.8,-391.69 682.54,-396.54"/>
</g>
<!-- Node0x58896ba7c6a0 -->
<g id="node30" class="node">
<title>Node0x58896ba7c6a0</title>
<path fill="#f0f4ff" stroke="black" d="M892.5,-328C892.5,-328 723.5,-328 723.5,-328 717.5,-328 711.5,-322 711.5,-316 711.5,-316 711.5,-304 711.5,-304 711.5,-298 717.5,-292 723.5,-292 723.5,-292 892.5,-292 892.5,-292 898.5,-292 904.5,-298 904.5,-304 904.5,-304 904.5,-316 904.5,-316 904.5,-322 898.5,-328 892.5,-328"/>
<text text-anchor="middle" x="808" y="-307.8" font-family="Courier,monospace" font-size="9.00">{std::char_traits&lt;char&gt;::length()}</text>
</g>
<!-- Node0x58896ba74e40&#45;&gt;Node0x58896ba7c6a0 -->
<g id="edge29" class="edge">
<title>Node0x58896ba74e40&#45;&gt;Node0x58896ba7c6a0</title>
<path fill="none" stroke="#4a6fa5" d="M497.46,-421.89C510.74,-418.09 523.86,-413.52 536,-408 579.62,-388.19 578.1,-362.18 622,-343 647.63,-331.8 676.84,-324.4 704.37,-319.52"/>
<polygon fill="#4a6fa5" stroke="#4a6fa5" points="704.84,-321.92 711.32,-318.33 704.01,-317.09 704.84,-321.92"/>
</g>
<!-- Node0x58896ba7bde0 -->
<g id="node31" class="node">
<title>Node0x58896ba7bde0</title>
<path fill="#f0f4ff" stroke="black" d="M982,-263C982,-263 634,-263 634,-263 628,-263 622,-257 622,-251 622,-251 622,-239 622,-239 622,-233 628,-227 634,-227 634,-227 982,-227 982,-227 988,-227 994,-233 994,-239 994,-239 994,-251 994,-251 994,-257 988,-263 982,-263"/>
<text text-anchor="middle" x="808" y="-242.8" font-family="Courier,monospace" font-size="9.00">{basic_string&lt;char, std::char_traits &gt;::_M_construct&lt;char const*&gt;()}</text>
</g>
<!-- Node0x58896ba74e40&#45;&gt;Node0x58896ba7bde0 -->
<g id="edge30" class="edge">
<title>Node0x58896ba74e40&#45;&gt;Node0x58896ba7bde0</title>
<path fill="none" stroke="#4a6fa5" d="M509.78,-421.91C519.02,-418.09 527.89,-413.5 536,-408 593.33,-369.12 564.11,-316.05 622,-278 629.03,-273.38 636.52,-269.36 644.3,-265.86"/>
<polygon fill="#4a6fa5" stroke="#4a6fa5" points="645.43,-268.04 650.91,-263.04 643.51,-263.53 645.43,-268.04"/>
</g>
<!-- Node0x58896ba77cc0 -->
<g id="node24" class="node">
<title>Node0x58896ba77cc0</title>
<path fill="#f0f4ff" stroke="black" d="M123.5,-7636C123.5,-7636 17.5,-7636 17.5,-7636 11.5,-7636 5.5,-7630 5.5,-7624 5.5,-7624 5.5,-7612 5.5,-7612 5.5,-7606 11.5,-7600 17.5,-7600 17.5,-7600 123.5,-7600 123.5,-7600 129.5,-7600 135.5,-7606 135.5,-7612 135.5,-7612 135.5,-7624 135.5,-7624 135.5,-7630 129.5,-7636 123.5,-7636"/>
<text text-anchor="middle" x="70.5" y="-7615.8" font-family="Courier,monospace" font-size="9.00">{__gxx_personality_v0}</text>
</g>
<!-- Node0x58896ba7ad20&#45;&gt;Node0x58896ba76640 -->
<g id="edge40" class="edge">
<title>Node0x58896ba7ad20&#45;&gt;Node0x58896ba76640</title>
<path fill="none" stroke="#4a6fa5" d="M936.16,-381.93C956.83,-387.33 977.01,-395.59 994,-408 1060.14,-456.32 1028.73,-507.12 1080,-571 1124.8,-626.82 1191.63,-677.7 1231.51,-705.61"/>
<polygon fill="#4a6fa5" stroke="#4a6fa5" points="1230.52,-707.91 1237.67,-709.89 1233.32,-703.89 1230.52,-707.91"/>
</g>
<!-- Node0x58896ba7b7a0 -->
<g id="node32" class="node">
<title>Node0x58896ba7b7a0</title>
<path fill="#f0f4ff" stroke="black" d="M1282.5,-556C1282.5,-556 1249.5,-556 1249.5,-556 1243.5,-556 1237.5,-550 1237.5,-544 1237.5,-544 1237.5,-532 1237.5,-532 1237.5,-526 1243.5,-520 1249.5,-520 1249.5,-520 1282.5,-520 1282.5,-520 1288.5,-520 1294.5,-526 1294.5,-532 1294.5,-532 1294.5,-544 1294.5,-544 1294.5,-550 1288.5,-556 1282.5,-556"/>
<text text-anchor="middle" x="1266" y="-535.8" font-family="Courier,monospace" font-size="9.00">{strlen}</text>
</g>
<!-- Node0x58896ba7c6a0&#45;&gt;Node0x58896ba7b7a0 -->
<g id="edge31" class="edge">
<title>Node0x58896ba7c6a0&#45;&gt;Node0x58896ba7b7a0</title>
<path fill="none" stroke="#4a6fa5" d="M904.87,-310.77C935.7,-315.07 968.45,-324.33 994,-343 1060.14,-391.32 1013.73,-457.86 1080,-506 1124.31,-538.19 1190.16,-541.91 1230.18,-540.66"/>
<polygon fill="#4a6fa5" stroke="#4a6fa5" points="1230.45,-543.11 1237.34,-540.38 1230.25,-538.21 1230.45,-543.11"/>
</g>
<!-- Node0x58896ba7eae0 -->
<g id="node33" class="node">
<title>Node0x58896ba7eae0</title>
<path fill="#f0f4ff" stroke="black" d="M1398,-491C1398,-491 1134,-491 1134,-491 1128,-491 1122,-485 1122,-479 1122,-479 1122,-467 1122,-467 1122,-461 1128,-455 1134,-455 1134,-455 1398,-455 1398,-455 1404,-455 1410,-461 1410,-467 1410,-467 1410,-479 1410,-479 1410,-485 1404,-491 1398,-491"/>
<text text-anchor="middle" x="1266" y="-470.8" font-family="Courier,monospace" font-size="9.00">{basic_string&lt;char, std::char_traits &gt;::_M_create()}</text>
</g>
<!-- Node0x58896ba7bde0&#45;&gt;Node0x58896ba7eae0 -->
<g id="edge32" class="edge">
<title>Node0x58896ba7bde0&#45;&gt;Node0x58896ba7eae0</title>
<path fill="none" stroke="#4a6fa5" d="M968.04,-263.04C977.22,-267.19 985.96,-272.13 994,-278 1060.14,-326.32 1013.73,-392.86 1080,-441 1090.67,-448.75 1102.58,-454.85 1115.08,-459.63"/>
<polygon fill="#4a6fa5" stroke="#4a6fa5" points="1114.25,-461.93 1121.67,-462.01 1115.92,-457.32 1114.25,-461.93"/>
</g>
<!-- Node0x58896ba7f8a0 -->
<g id="node34" class="node">
<title>Node0x58896ba7f8a0</title>
<path fill="#f0f4ff" stroke="black" d="M1392.5,-426C1392.5,-426 1139.5,-426 1139.5,-426 1133.5,-426 1127.5,-420 1127.5,-414 1127.5,-414 1127.5,-402 1127.5,-402 1127.5,-396 1133.5,-390 1139.5,-390 1139.5,-390 1392.5,-390 1392.5,-390 1398.5,-390 1404.5,-396 1404.5,-402 1404.5,-402 1404.5,-414 1404.5,-414 1404.5,-420 1398.5,-426 1392.5,-426"/>
<text text-anchor="middle" x="1266" y="-405.8" font-family="Courier,monospace" font-size="9.00">{basic_string&lt;char, std::char_traits &gt;::_M_data()}</text>
</g>
<!-- Node0x58896ba7bde0&#45;&gt;Node0x58896ba7f8a0 -->
<g id="edge33" class="edge">
<title>Node0x58896ba7bde0&#45;&gt;Node0x58896ba7f8a0</title>
<path fill="none" stroke="#4a6fa5" d="M960.44,-263.11C972.15,-267.16 983.49,-272.07 994,-278 1044.47,-306.47 1029.45,-347.67 1080,-376 1092.58,-383.05 1106.35,-388.62 1120.5,-393.02"/>
<polygon fill="#4a6fa5" stroke="#4a6fa5" points="1120.07,-395.44 1127.48,-395.08 1121.46,-390.74 1120.07,-395.44"/>
</g>
<!-- Node0x58896ba7f760 -->
<g id="node35" class="node">
<title>Node0x58896ba7f760</title>
<path fill="#f0f4ff" stroke="black" d="M1403,-361C1403,-361 1129,-361 1129,-361 1123,-361 1117,-355 1117,-349 1117,-349 1117,-337 1117,-337 1117,-331 1123,-325 1129,-325 1129,-325 1403,-325 1403,-325 1409,-325 1415,-331 1415,-337 1415,-337 1415,-349 1415,-349 1415,-355 1409,-361 1403,-361"/>
<text text-anchor="middle" x="1266" y="-340.8" font-family="Courier,monospace" font-size="9.00">{basic_string&lt;char, std::char_traits &gt;::_M_capacity()}</text>
</g>
<!-- Node0x58896ba7bde0&#45;&gt;Node0x58896ba7f760 -->
<g id="edge34" class="edge">
<title>Node0x58896ba7bde0&#45;&gt;Node0x58896ba7f760</title>
<path fill="none" stroke="#4a6fa5" d="M929.17,-263.01C950.91,-267.24 973.26,-272.23 994,-278 1033.44,-288.98 1040.53,-300.13 1080,-311 1097.2,-315.74 1115.5,-319.91 1133.65,-323.55"/>
<polygon fill="#4a6fa5" stroke="#4a6fa5" points="1133.52,-326.02 1140.86,-324.97 1134.47,-321.21 1133.52,-326.02"/>
</g>
<!-- Node0x58896ba7f4e0 -->
<g id="node36" class="node">
<title>Node0x58896ba7f4e0</title>
<path fill="#f0f4ff" stroke="black" d="M1440,-296C1440,-296 1092,-296 1092,-296 1086,-296 1080,-290 1080,-284 1080,-284 1080,-272 1080,-272 1080,-266 1086,-260 1092,-260 1092,-260 1440,-260 1440,-260 1446,-260 1452,-266 1452,-272 1452,-272 1452,-284 1452,-284 1452,-290 1446,-296 1440,-296"/>
<text text-anchor="middle" x="1266" y="-275.8" font-family="Courier,monospace" font-size="9.00">{basic_string&lt;char, std::char_traits &gt;::_M_construct&lt;char const*&gt;()}</text>
</g>
<!-- Node0x58896ba7bde0&#45;&gt;Node0x58896ba7f4e0 -->
<g id="edge35" class="edge">
<title>Node0x58896ba7bde0&#45;&gt;Node0x58896ba7f4e0</title>
<path fill="none" stroke="#4a6fa5" d="M994.14,-258.4C1019.97,-260.27 1046.55,-262.19 1072.5,-264.07"/>
<polygon fill="#4a6fa5" stroke="#4a6fa5" points="1072.65,-266.54 1079.81,-264.6 1073,-261.65 1072.65,-266.54"/>
</g>
<!-- Node0x58896ba7ed60 -->
<g id="node37" class="node">
<title>Node0x58896ba7ed60</title>
<path fill="#f0f4ff" stroke="black" d="M1392.5,-231C1392.5,-231 1139.5,-231 1139.5,-231 1133.5,-231 1127.5,-225 1127.5,-219 1127.5,-219 1127.5,-207 1127.5,-207 1127.5,-201 1133.5,-195 1139.5,-195 1139.5,-195 1392.5,-195 1392.5,-195 1398.5,-195 1404.5,-201 1404.5,-207 1404.5,-207 1404.5,-219 1404.5,-219 1404.5,-225 1398.5,-231 1392.5,-231"/>
<text text-anchor="middle" x="1266" y="-210.8" font-family="Courier,monospace" font-size="9.00">{basic_string&lt;char, std::char_traits &gt;::_M_data()}</text>
</g>
<!-- Node0x58896ba7bde0&#45;&gt;Node0x58896ba7ed60 -->
<g id="edge36" class="edge">
<title>Node0x58896ba7bde0&#45;&gt;Node0x58896ba7ed60</title>
<path fill="none" stroke="#4a6fa5" d="M994.14,-232.01C1036.07,-229.07 1080,-225.98 1119.99,-223.18"/>
<polygon fill="#4a6fa5" stroke="#4a6fa5" points="1120.59,-225.59 1127.4,-222.66 1120.25,-220.7 1120.59,-225.59"/>
</g>
<!-- Node0x58896ba80520 -->
<g id="node38" class="node">
<title>Node0x58896ba80520</title>
<path fill="#f0f4ff" stroke="black" d="M1408.5,-166C1408.5,-166 1123.5,-166 1123.5,-166 1117.5,-166 1111.5,-160 1111.5,-154 1111.5,-154 1111.5,-142 1111.5,-142 1111.5,-136 1117.5,-130 1123.5,-130 1123.5,-130 1408.5,-130 1408.5,-130 1414.5,-130 1420.5,-136 1420.5,-142 1420.5,-142 1420.5,-154 1420.5,-154 1420.5,-160 1414.5,-166 1408.5,-166"/>
<text text-anchor="middle" x="1266" y="-145.8" font-family="Courier,monospace" font-size="9.00">{basic_string&lt;char, std::char_traits &gt;::_S_copy_chars()}</text>
</g>
<!-- Node0x58896ba7bde0&#45;&gt;Node0x58896ba80520 -->
<g id="edge37" class="edge">
<title>Node0x58896ba7bde0&#45;&gt;Node0x58896ba80520</title>
<path fill="none" stroke="#4a6fa5" d="M880.65,-226.93C935.14,-213.47 1012.07,-195.07 1080,-181 1102.97,-176.24 1127.63,-171.55 1151.22,-167.27"/>
<polygon fill="#4a6fa5" stroke="#4a6fa5" points="1151.72,-169.67 1158.17,-166.02 1150.85,-164.85 1151.72,-169.67"/>
</g>
<!-- Node0x58896ba802a0 -->
<g id="node39" class="node">
<title>Node0x58896ba802a0</title>
<path fill="#f0f4ff" stroke="black" d="M1408.5,-101C1408.5,-101 1123.5,-101 1123.5,-101 1117.5,-101 1111.5,-95 1111.5,-89 1111.5,-89 1111.5,-77 1111.5,-77 1111.5,-71 1117.5,-65 1123.5,-65 1123.5,-65 1408.5,-65 1408.5,-65 1414.5,-65 1420.5,-71 1420.5,-77 1420.5,-77 1420.5,-89 1420.5,-89 1420.5,-95 1414.5,-101 1408.5,-101"/>
<text text-anchor="middle" x="1266" y="-80.8" font-family="Courier,monospace" font-size="9.00">{basic_string&lt;char, std::char_traits &gt;::_M_set_length()}</text>
</g>
<!-- Node0x58896ba7bde0&#45;&gt;Node0x58896ba802a0 -->
<g id="edge38" class="edge">
<title>Node0x58896ba7bde0&#45;&gt;Node0x58896ba802a0</title>
<path fill="none" stroke="#4a6fa5" d="M839.99,-226.85C889.19,-198.82 988.95,-145.2 1080,-116 1096.32,-110.77 1113.73,-106.29 1131.1,-102.48"/>
<polygon fill="#4a6fa5" stroke="#4a6fa5" points="1131.68,-104.86 1138.01,-101 1130.65,-100.07 1131.68,-104.86"/>
</g>
<!-- Node0x58896ba80020 -->
<g id="node40" class="node">
<title>Node0x58896ba80020</title>
<path fill="#f0f4ff" stroke="black" d="M1440,-36C1440,-36 1092,-36 1092,-36 1086,-36 1080,-30 1080,-24 1080,-24 1080,-12 1080,-12 1080,-6 1086,0 1092,0 1092,0 1440,0 1440,0 1446,0 1452,-6 1452,-12 1452,-12 1452,-24 1452,-24 1452,-30 1446,-36 1440,-36"/>
<text text-anchor="middle" x="1266" y="-15.8" font-family="Courier,monospace" font-size="9.00">{basic_string&lt;char, std::char_traits &gt;::_M_construct&lt;char const*&gt;()}</text>
</g>
<!-- Node0x58896ba7bde0&#45;&gt;Node0x58896ba80020 -->
<g id="edge39" class="edge">
<title>Node0x58896ba7bde0&#45;&gt;Node0x58896ba80020</title>
<path fill="none" stroke="#4a6fa5" d="M827.86,-226.79C869.52,-187.68 974.16,-95.61 1080,-51 1092.16,-45.87 1105.1,-41.54 1118.26,-37.89"/>
<polygon fill="#4a6fa5" stroke="#4a6fa5" points="1119.04,-40.22 1125.16,-36.04 1117.77,-35.48 1119.04,-40.22"/>
</g>
<!-- Node0x58896ba7fda0 -->
<g id="node41" class="node">
<title>Node0x58896ba7fda0</title>
<path fill="#f0f4ff" stroke="black" d="M1819,-101C1819,-101 1550,-101 1550,-101 1544,-101 1538,-95 1538,-89 1538,-89 1538,-77 1538,-77 1538,-71 1544,-65 1550,-65 1550,-65 1819,-65 1819,-65 1825,-65 1831,-71 1831,-77 1831,-77 1831,-89 1831,-89 1831,-95 1825,-101 1819,-101"/>
<text text-anchor="middle" x="1684.5" y="-80.8" font-family="Courier,monospace" font-size="9.00">{basic_string&lt;char, std::char_traits &gt;::_M_dispose()}</text>
</g>
<!-- Node0x58896ba80020&#45;&gt;Node0x58896ba7fda0 -->
<g id="edge41" class="edge">
<title>Node0x58896ba80020&#45;&gt;Node0x58896ba7fda0</title>
<path fill="none" stroke="#4a6fa5" d="M1382.47,-36.02C1437.87,-44.67 1504.3,-55.03 1560.64,-63.83"/>
<polygon fill="#4a6fa5" stroke="#4a6fa5" points="1560.52,-66.29 1567.81,-64.95 1561.27,-61.44 1560.52,-66.29"/>
</g>
<!-- Node0x58896ba8cd90 -->
<g id="node42" class="node">
<title>Node0x58896ba8cd90</title>
<path fill="#f0f4ff" stroke="black" d="M1743,-36C1743,-36 1626,-36 1626,-36 1620,-36 1614,-30 1614,-24 1614,-24 1614,-12 1614,-12 1614,-6 1620,0 1626,0 1626,0 1743,0 1743,0 1749,0 1755,-6 1755,-12 1755,-12 1755,-24 1755,-24 1755,-30 1749,-36 1743,-36"/>
<text text-anchor="middle" x="1684.5" y="-15.8" font-family="Courier,monospace" font-size="9.00">{__clang_call_terminate}</text>
</g>
<!-- Node0x58896ba80020&#45;&gt;Node0x58896ba8cd90 -->
<g id="edge42" class="edge">
<title>Node0x58896ba80020&#45;&gt;Node0x58896ba8cd90</title>
<path fill="none" stroke="#4a6fa5" d="M1452.11,-18C1506.54,-18 1563.11,-18 1606.69,-18"/>
<polygon fill="#4a6fa5" stroke="#4a6fa5" points="1606.85,-20.45 1613.85,-18 1606.85,-15.55 1606.85,-20.45"/>
</g>
<!-- Node0x58896ba8cd90&#45;&gt;Node0x58896ba777c0 -->
<g id="edge43" class="edge">
<title>Node0x58896ba8cd90&#45;&gt;Node0x58896ba777c0</title>
<path fill="none" stroke="#4a6fa5" d="M1755.07,-19.21C1781.77,-23.09 1810.68,-31.96 1831,-51 1965.9,-177.39 1974.61,-425.32 1973.74,-504.83"/>
<polygon fill="#4a6fa5" stroke="#4a6fa5" points="1971.28,-504.95 1973.63,-511.99 1976.18,-505.03 1971.28,-504.95"/>
</g>
<!-- Node0x58896ba8cc50 -->
<g id="node43" class="node">
<title>Node0x58896ba8cc50</title>
<path fill="#f0f4ff" stroke="black" d="M2016.5,-36C2016.5,-36 1931.5,-36 1931.5,-36 1925.5,-36 1919.5,-30 1919.5,-24 1919.5,-24 1919.5,-12 1919.5,-12 1919.5,-6 1925.5,0 1931.5,0 1931.5,0 2016.5,0 2016.5,0 2022.5,0 2028.5,-6 2028.5,-12 2028.5,-12 2028.5,-24 2028.5,-24 2028.5,-30 2022.5,-36 2016.5,-36"/>
<text text-anchor="middle" x="1974" y="-15.8" font-family="Courier,monospace" font-size="9.00">{std::terminate()}</text>
</g>
<!-- Node0x58896ba8cd90&#45;&gt;Node0x58896ba8cc50 -->
<g id="edge44" class="edge">
<title>Node0x58896ba8cd90&#45;&gt;Node0x58896ba8cc50</title>
<path fill="none" stroke="#4a6fa5" d="M1755.1,-18C1803.05,-18 1866.17,-18 1912.12,-18"/>
<polygon fill="#4a6fa5" stroke="#4a6fa5" points="1912.34,-20.45 1919.34,-18 1912.34,-15.55 1912.34,-20.45"/>
</g>
</g>
</svg>
