<?xml version="1.0" encoding="UTF-8" standalone="no"?>
<!DOCTYPE svg PUBLIC "-//W3C//DTD SVG 1.1//EN"
 "http://www.w3.org/Graphics/SVG/1.1/DTD/svg11.dtd">
<!-- Generated by graphviz version 2.43.0 (0)
 -->
<!-- Title: Call graph: /home/h02332/po/research/call&#45;graph/cfl/icc_fromxml_fuzzer.ll Pages: 1 -->
<svg width="2177pt" height="14400pt"
 viewBox="0.00 0.00 2177.47 14400.00" xmlns="http://www.w3.org/2000/svg" xmlns:xlink="http://www.w3.org/1999/xlink">
<g id="graph0" class="graph" transform="scale(1 1) rotate(0) translate(36 14427)">
<title>Call graph: /home/h02332/po/research/call&#45;graph/cfl/icc_fromxml_fuzzer.ll</title>
<polygon fill="white" stroke="transparent" points="-36,36 -36,-14427 2151,-14427 2151,36 -36,36"/>
<!-- Node0x597c74b06c50 -->
<g id="node1" class="node">
<title>Node0x597c74b06c50</title>
<path fill="#f0f4ff" stroke="black" d="M165.5,-1658C165.5,-1658 59.5,-1658 59.5,-1658 53.5,-1658 47.5,-1652 47.5,-1646 47.5,-1646 47.5,-1634 47.5,-1634 47.5,-1628 53.5,-1622 59.5,-1622 59.5,-1622 165.5,-1622 165.5,-1622 171.5,-1622 177.5,-1628 177.5,-1634 177.5,-1634 177.5,-1646 177.5,-1646 177.5,-1652 171.5,-1658 165.5,-1658"/>
<text text-anchor="middle" x="112.5" y="-1637.8" font-family="Courier,monospace" font-size="9.00">{LLVMFuzzerInitialize}</text>
</g>
<!-- Node0x597c74b06ce0 -->
<g id="node2" class="node">
<title>Node0x597c74b06ce0</title>
<path fill="#f0f4ff" stroke="black" d="M480.5,-1918C480.5,-1918 450.5,-1918 450.5,-1918 444.5,-1918 438.5,-1912 438.5,-1906 438.5,-1906 438.5,-1894 438.5,-1894 438.5,-1888 444.5,-1882 450.5,-1882 450.5,-1882 480.5,-1882 480.5,-1882 486.5,-1882 492.5,-1888 492.5,-1894 492.5,-1894 492.5,-1906 492.5,-1906 492.5,-1912 486.5,-1918 480.5,-1918"/>
<text text-anchor="middle" x="465.5" y="-1897.8" font-family="Courier,monospace" font-size="9.00">{new()}</text>
</g>
<!-- Node0x597c74b06c50&#45;&gt;Node0x597c74b06ce0 -->
<g id="edge1" class="edge">
<title>Node0x597c74b06c50&#45;&gt;Node0x597c74b06ce0</title>
<path fill="none" stroke="#4a6fa5" d="M156.53,-1658.02C179.01,-1669.07 205.77,-1684.94 225,-1705 281.68,-1764.13 245.57,-1818.73 311,-1868 345.98,-1894.34 397.59,-1900.21 431.13,-1900.94"/>
<polygon fill="#4a6fa5" stroke="#4a6fa5" points="431.39,-1903.39 438.42,-1901.02 431.45,-1898.49 431.39,-1903.39"/>
</g>
<!-- Node0x597c74afc280 -->
<g id="node3" class="node">
<title>Node0x597c74afc280</title>
<path fill="#f0f4ff" stroke="black" d="M513.5,-1853C513.5,-1853 417.5,-1853 417.5,-1853 411.5,-1853 405.5,-1847 405.5,-1841 405.5,-1841 405.5,-1829 405.5,-1829 405.5,-1823 411.5,-1817 417.5,-1817 417.5,-1817 513.5,-1817 513.5,-1817 519.5,-1817 525.5,-1823 525.5,-1829 525.5,-1829 525.5,-1841 525.5,-1841 525.5,-1847 519.5,-1853 513.5,-1853"/>
<text text-anchor="middle" x="465.5" y="-1832.8" font-family="Courier,monospace" font-size="9.00">{llvm.memset.p0.i64}</text>
</g>
<!-- Node0x597c74b06c50&#45;&gt;Node0x597c74afc280 -->
<g id="edge2" class="edge">
<title>Node0x597c74b06c50&#45;&gt;Node0x597c74afc280</title>
<path fill="none" stroke="#4a6fa5" d="M151.09,-1658.01C173.68,-1669.75 202.35,-1686.33 225,-1705 269.72,-1741.85 260.94,-1773.8 311,-1803 337.23,-1818.3 369.75,-1826.34 398.09,-1830.55"/>
<polygon fill="#4a6fa5" stroke="#4a6fa5" points="397.93,-1833 405.2,-1831.53 398.6,-1828.14 397.93,-1833"/>
</g>
<!-- Node0x597c74ab0c80 -->
<g id="node4" class="node">
<title>Node0x597c74ab0c80</title>
<path fill="#f0f4ff" stroke="black" d="M566,-1788C566,-1788 365,-1788 365,-1788 359,-1788 353,-1782 353,-1776 353,-1776 353,-1764 353,-1764 353,-1758 359,-1752 365,-1752 365,-1752 566,-1752 566,-1752 572,-1752 578,-1758 578,-1764 578,-1764 578,-1776 578,-1776 578,-1782 572,-1788 566,-1788"/>
<text text-anchor="middle" x="465.5" y="-1767.8" font-family="Courier,monospace" font-size="9.00">{CIccTagXmlFactory::CIccTagXmlFactory()}</text>
</g>
<!-- Node0x597c74b06c50&#45;&gt;Node0x597c74ab0c80 -->
<g id="edge3" class="edge">
<title>Node0x597c74b06c50&#45;&gt;Node0x597c74ab0c80</title>
<path fill="none" stroke="#4a6fa5" d="M143.9,-1658.16C181.8,-1680.06 249.14,-1716.6 311,-1738 324.38,-1742.63 338.65,-1746.7 352.91,-1750.24"/>
<polygon fill="#4a6fa5" stroke="#4a6fa5" points="352.52,-1752.67 359.9,-1751.94 353.67,-1747.9 352.52,-1752.67"/>
</g>
<!-- Node0x597c74a835e0 -->
<g id="node5" class="node">
<title>Node0x597c74a835e0</title>
<path fill="#f0f4ff" stroke="black" d="M537,-1463C537,-1463 394,-1463 394,-1463 388,-1463 382,-1457 382,-1451 382,-1451 382,-1439 382,-1439 382,-1433 388,-1427 394,-1427 394,-1427 537,-1427 537,-1427 543,-1427 549,-1433 549,-1439 549,-1439 549,-1451 549,-1451 549,-1457 543,-1463 537,-1463"/>
<text text-anchor="middle" x="465.5" y="-1442.8" font-family="Courier,monospace" font-size="9.00">{__xmlLoadExtDtdDefaultValue}</text>
</g>
<!-- Node0x597c74b06c50&#45;&gt;Node0x597c74a835e0 -->
<g id="edge4" class="edge">
<title>Node0x597c74b06c50&#45;&gt;Node0x597c74a835e0</title>
<path fill="none" stroke="#4a6fa5" d="M129.73,-1621.89C161.18,-1588 234.11,-1515.08 311,-1478 330.72,-1468.49 353.17,-1461.7 374.7,-1456.86"/>
<polygon fill="#4a6fa5" stroke="#4a6fa5" points="375.33,-1459.23 381.65,-1455.35 374.3,-1454.44 375.33,-1459.23"/>
</g>
<!-- Node0x597c74a82a40 -->
<g id="node6" class="node">
<title>Node0x597c74a82a40</title>
<path fill="#f0f4ff" stroke="black" d="M539.5,-1398C539.5,-1398 391.5,-1398 391.5,-1398 385.5,-1398 379.5,-1392 379.5,-1386 379.5,-1386 379.5,-1374 379.5,-1374 379.5,-1368 385.5,-1362 391.5,-1362 391.5,-1362 539.5,-1362 539.5,-1362 545.5,-1362 551.5,-1368 551.5,-1374 551.5,-1374 551.5,-1386 551.5,-1386 551.5,-1392 545.5,-1398 539.5,-1398"/>
<text text-anchor="middle" x="465.5" y="-1377.8" font-family="Courier,monospace" font-size="9.00">{xmlSubstituteEntitiesDefault}</text>
</g>
<!-- Node0x597c74b06c50&#45;&gt;Node0x597c74a82a40 -->
<g id="edge5" class="edge">
<title>Node0x597c74b06c50&#45;&gt;Node0x597c74a82a40</title>
<path fill="none" stroke="#4a6fa5" d="M123.65,-1621.77C149,-1578.06 219.68,-1466.91 311,-1413 329.53,-1402.06 351.24,-1394.73 372.39,-1389.82"/>
<polygon fill="#4a6fa5" stroke="#4a6fa5" points="372.93,-1392.21 379.23,-1388.31 371.87,-1387.43 372.93,-1392.21"/>
</g>
<!-- Node0x597c74a89470 -->
<g id="node7" class="node">
<title>Node0x597c74a89470</title>
<path fill="#f0f4ff" stroke="black" d="M566,-1723C566,-1723 365,-1723 365,-1723 359,-1723 353,-1717 353,-1711 353,-1711 353,-1699 353,-1699 353,-1693 359,-1687 365,-1687 365,-1687 566,-1687 566,-1687 572,-1687 578,-1693 578,-1699 578,-1699 578,-1711 578,-1711 578,-1717 572,-1723 566,-1723"/>
<text text-anchor="middle" x="465.5" y="-1702.8" font-family="Courier,monospace" font-size="9.00">{CIccMpeXmlFactory::CIccMpeXmlFactory()}</text>
</g>
<!-- Node0x597c74b06c50&#45;&gt;Node0x597c74a89470 -->
<g id="edge6" class="edge">
<title>Node0x597c74b06c50&#45;&gt;Node0x597c74a89470</title>
<path fill="none" stroke="#4a6fa5" d="M177.88,-1651.92C228.75,-1661.34 300.79,-1674.68 359.91,-1685.63"/>
<polygon fill="#4a6fa5" stroke="#4a6fa5" points="359.73,-1688.09 367.06,-1686.96 360.62,-1683.27 359.73,-1688.09"/>
</g>
<!-- Node0x597c74a82ab0 -->
<g id="node8" class="node">
<title>Node0x597c74a82ab0</title>
<path fill="#f0f4ff" stroke="black" d="M524,-1658C524,-1658 407,-1658 407,-1658 401,-1658 395,-1652 395,-1646 395,-1646 395,-1634 395,-1634 395,-1628 401,-1622 407,-1622 407,-1622 524,-1622 524,-1622 530,-1622 536,-1628 536,-1634 536,-1634 536,-1646 536,-1646 536,-1652 530,-1658 524,-1658"/>
<text text-anchor="middle" x="465.5" y="-1637.8" font-family="Courier,monospace" font-size="9.00">{xmlSetGenericErrorFunc}</text>
</g>
<!-- Node0x597c74b06c50&#45;&gt;Node0x597c74a82ab0 -->
<g id="edge7" class="edge">
<title>Node0x597c74b06c50&#45;&gt;Node0x597c74a82ab0</title>
<path fill="none" stroke="#4a6fa5" d="M177.88,-1640C237.05,-1640 324.85,-1640 387.67,-1640"/>
<polygon fill="#4a6fa5" stroke="#4a6fa5" points="387.82,-1642.45 394.82,-1640 387.82,-1637.55 387.82,-1642.45"/>
</g>
<!-- Node0x597c74ae9c50 -->
<g id="node9" class="node">
<title>Node0x597c74ae9c50</title>
<path fill="#f0f4ff" stroke="black" d="M542,-1593C542,-1593 389,-1593 389,-1593 383,-1593 377,-1587 377,-1581 377,-1581 377,-1569 377,-1569 377,-1563 383,-1557 389,-1557 389,-1557 542,-1557 542,-1557 548,-1557 554,-1563 554,-1569 554,-1569 554,-1581 554,-1581 554,-1587 548,-1593 542,-1593"/>
<text text-anchor="middle" x="465.5" y="-1572.8" font-family="Courier,monospace" font-size="9.00">{CIccTagCreator::PushFactory()}</text>
</g>
<!-- Node0x597c74b06c50&#45;&gt;Node0x597c74ae9c50 -->
<g id="edge8" class="edge">
<title>Node0x597c74b06c50&#45;&gt;Node0x597c74ae9c50</title>
<path fill="none" stroke="#4a6fa5" d="M177.88,-1628.08C231.62,-1618.13 308.97,-1603.8 369.78,-1592.54"/>
<polygon fill="#4a6fa5" stroke="#4a6fa5" points="370.3,-1594.94 376.73,-1591.25 369.41,-1590.12 370.3,-1594.94"/>
</g>
<!-- Node0x597c74a9e6d0 -->
<g id="node10" class="node">
<title>Node0x597c74a9e6d0</title>
<path fill="#f0f4ff" stroke="black" d="M542,-1528C542,-1528 389,-1528 389,-1528 383,-1528 377,-1522 377,-1516 377,-1516 377,-1504 377,-1504 377,-1498 383,-1492 389,-1492 389,-1492 542,-1492 542,-1492 548,-1492 554,-1498 554,-1504 554,-1504 554,-1516 554,-1516 554,-1522 548,-1528 542,-1528"/>
<text text-anchor="middle" x="465.5" y="-1507.8" font-family="Courier,monospace" font-size="9.00">{CIccMpeCreator::PushFactory()}</text>
</g>
<!-- Node0x597c74b06c50&#45;&gt;Node0x597c74a9e6d0 -->
<g id="edge9" class="edge">
<title>Node0x597c74b06c50&#45;&gt;Node0x597c74a9e6d0</title>
<path fill="none" stroke="#4a6fa5" d="M144.29,-1621.92C182.29,-1600.3 249.47,-1564.36 311,-1543 329.66,-1536.52 350.05,-1531.07 369.7,-1526.58"/>
<polygon fill="#4a6fa5" stroke="#4a6fa5" points="370.32,-1528.95 376.62,-1525.03 369.25,-1524.17 370.32,-1528.95"/>
</g>
<!-- Node0x597c74a831d0 -->
<g id="node11" class="node">
<title>Node0x597c74a831d0</title>
<path fill="#f0f4ff" stroke="black" d="M976.5,-1788C976.5,-1788 807.5,-1788 807.5,-1788 801.5,-1788 795.5,-1782 795.5,-1776 795.5,-1776 795.5,-1764 795.5,-1764 795.5,-1758 801.5,-1752 807.5,-1752 807.5,-1752 976.5,-1752 976.5,-1752 982.5,-1752 988.5,-1758 988.5,-1764 988.5,-1764 988.5,-1776 988.5,-1776 988.5,-1782 982.5,-1788 976.5,-1788"/>
<text text-anchor="middle" x="892" y="-1767.8" font-family="Courier,monospace" font-size="9.00">{IIccTagFactory::IIccTagFactory()}</text>
</g>
<!-- Node0x597c74ab0c80&#45;&gt;Node0x597c74a831d0 -->
<g id="edge10" class="edge">
<title>Node0x597c74ab0c80&#45;&gt;Node0x597c74a831d0</title>
<path fill="none" stroke="#4a6fa5" d="M578.03,-1770C643.08,-1770 724.55,-1770 788.07,-1770"/>
<polygon fill="#4a6fa5" stroke="#4a6fa5" points="788.33,-1772.45 795.33,-1770 788.33,-1767.55 788.33,-1772.45"/>
</g>
<!-- Node0x597c74b0c400 -->
<g id="node12" class="node">
<title>Node0x597c74b0c400</title>
<path fill="#f0f4ff" stroke="black" d="M976.5,-1723C976.5,-1723 807.5,-1723 807.5,-1723 801.5,-1723 795.5,-1717 795.5,-1711 795.5,-1711 795.5,-1699 795.5,-1699 795.5,-1693 801.5,-1687 807.5,-1687 807.5,-1687 976.5,-1687 976.5,-1687 982.5,-1687 988.5,-1693 988.5,-1699 988.5,-1699 988.5,-1711 988.5,-1711 988.5,-1717 982.5,-1723 976.5,-1723"/>
<text text-anchor="middle" x="892" y="-1702.8" font-family="Courier,monospace" font-size="9.00">{IIccMpeFactory::IIccMpeFactory()}</text>
</g>
<!-- Node0x597c74a89470&#45;&gt;Node0x597c74b0c400 -->
<g id="edge11" class="edge">
<title>Node0x597c74a89470&#45;&gt;Node0x597c74b0c400</title>
<path fill="none" stroke="#4a6fa5" d="M578.03,-1705C643.08,-1705 724.55,-1705 788.07,-1705"/>
<polygon fill="#4a6fa5" stroke="#4a6fa5" points="788.33,-1707.45 795.33,-1705 788.33,-1702.55 788.33,-1707.45"/>
</g>
<!-- Node0x597c74a89010 -->
<g id="node13" class="node">
<title>Node0x597c74a89010</title>
<path fill="#f0f4ff" stroke="black" d="M968.5,-1593C968.5,-1593 815.5,-1593 815.5,-1593 809.5,-1593 803.5,-1587 803.5,-1581 803.5,-1581 803.5,-1569 803.5,-1569 803.5,-1563 809.5,-1557 815.5,-1557 815.5,-1557 968.5,-1557 968.5,-1557 974.5,-1557 980.5,-1563 980.5,-1569 980.5,-1569 980.5,-1581 980.5,-1581 980.5,-1587 974.5,-1593 968.5,-1593"/>
<text text-anchor="middle" x="892" y="-1572.8" font-family="Courier,monospace" font-size="9.00">{CIccTagCreator::GetInstance()}</text>
</g>
<!-- Node0x597c74ae9c50&#45;&gt;Node0x597c74a89010 -->
<g id="edge12" class="edge">
<title>Node0x597c74ae9c50&#45;&gt;Node0x597c74a89010</title>
<path fill="none" stroke="#4a6fa5" d="M554.2,-1575C624.73,-1575 723.66,-1575 796.05,-1575"/>
<polygon fill="#4a6fa5" stroke="#4a6fa5" points="796.41,-1577.45 803.41,-1575 796.41,-1572.55 796.41,-1577.45"/>
</g>
<!-- Node0x597c74b0d530 -->
<g id="node14" class="node">
<title>Node0x597c74b0d530</title>
<path fill="#f0f4ff" stroke="black" d="M974,-1658C974,-1658 810,-1658 810,-1658 804,-1658 798,-1652 798,-1646 798,-1646 798,-1634 798,-1634 798,-1628 804,-1622 810,-1622 810,-1622 974,-1622 974,-1622 980,-1622 986,-1628 986,-1634 986,-1634 986,-1646 986,-1646 986,-1652 980,-1658 974,-1658"/>
<text text-anchor="middle" x="892" y="-1637.8" font-family="Courier,monospace" font-size="9.00">{CIccTagCreator::DoPushFactory()}</text>
</g>
<!-- Node0x597c74ae9c50&#45;&gt;Node0x597c74b0d530 -->
<g id="edge13" class="edge">
<title>Node0x597c74ae9c50&#45;&gt;Node0x597c74b0d530</title>
<path fill="none" stroke="#4a6fa5" d="M554.2,-1588.43C622.97,-1598.96 718.74,-1613.62 790.58,-1624.62"/>
<polygon fill="#4a6fa5" stroke="#4a6fa5" points="790.61,-1627.11 797.9,-1625.74 791.35,-1622.26 790.61,-1627.11"/>
</g>
<!-- Node0x597c74a86990 -->
<g id="node15" class="node">
<title>Node0x597c74a86990</title>
<path fill="#f0f4ff" stroke="black" d="M968.5,-1463C968.5,-1463 815.5,-1463 815.5,-1463 809.5,-1463 803.5,-1457 803.5,-1451 803.5,-1451 803.5,-1439 803.5,-1439 803.5,-1433 809.5,-1427 815.5,-1427 815.5,-1427 968.5,-1427 968.5,-1427 974.5,-1427 980.5,-1433 980.5,-1439 980.5,-1439 980.5,-1451 980.5,-1451 980.5,-1457 974.5,-1463 968.5,-1463"/>
<text text-anchor="middle" x="892" y="-1442.8" font-family="Courier,monospace" font-size="9.00">{CIccMpeCreator::GetInstance()}</text>
</g>
<!-- Node0x597c74a9e6d0&#45;&gt;Node0x597c74a86990 -->
<g id="edge14" class="edge">
<title>Node0x597c74a9e6d0&#45;&gt;Node0x597c74a86990</title>
<path fill="none" stroke="#4a6fa5" d="M554.2,-1496.57C624.87,-1485.75 724.06,-1470.56 796.49,-1459.47"/>
<polygon fill="#4a6fa5" stroke="#4a6fa5" points="796.87,-1461.89 803.41,-1458.41 796.12,-1457.05 796.87,-1461.89"/>
</g>
<!-- Node0x597c74b0d870 -->
<g id="node16" class="node">
<title>Node0x597c74b0d870</title>
<path fill="#f0f4ff" stroke="black" d="M974,-1528C974,-1528 810,-1528 810,-1528 804,-1528 798,-1522 798,-1516 798,-1516 798,-1504 798,-1504 798,-1498 804,-1492 810,-1492 810,-1492 974,-1492 974,-1492 980,-1492 986,-1498 986,-1504 986,-1504 986,-1516 986,-1516 986,-1522 980,-1528 974,-1528"/>
<text text-anchor="middle" x="892" y="-1507.8" font-family="Courier,monospace" font-size="9.00">{CIccMpeCreator::DoPushFactory()}</text>
</g>
<!-- Node0x597c74a9e6d0&#45;&gt;Node0x597c74b0d870 -->
<g id="edge15" class="edge">
<title>Node0x597c74a9e6d0&#45;&gt;Node0x597c74b0d870</title>
<path fill="none" stroke="#4a6fa5" d="M554.2,-1510C622.97,-1510 718.74,-1510 790.58,-1510"/>
<polygon fill="#4a6fa5" stroke="#4a6fa5" points="790.9,-1512.45 797.9,-1510 790.9,-1507.55 790.9,-1512.45"/>
</g>
<!-- Node0x597c74a8a5c0 -->
<g id="node17" class="node">
<title>Node0x597c74a8a5c0</title>
<path fill="#f0f4ff" stroke="black" d="M163,-1755C163,-1755 62,-1755 62,-1755 56,-1755 50,-1749 50,-1743 50,-1743 50,-1731 50,-1731 50,-1725 56,-1719 62,-1719 62,-1719 163,-1719 163,-1719 169,-1719 175,-1725 175,-1731 175,-1731 175,-1743 175,-1743 175,-1749 169,-1755 163,-1755"/>
<text text-anchor="middle" x="112.5" y="-1734.8" font-family="Courier,monospace" font-size="9.00">{suppressXmlErrors()}</text>
</g>
<!-- Node0x597c74b0dcb0 -->
<g id="node18" class="node">
<title>Node0x597c74b0dcb0</title>
<path fill="#f0f4ff" stroke="black" d="M171,-910C171,-910 54,-910 54,-910 48,-910 42,-904 42,-898 42,-898 42,-886 42,-886 42,-880 48,-874 54,-874 54,-874 171,-874 171,-874 177,-874 183,-880 183,-886 183,-886 183,-898 183,-898 183,-904 177,-910 171,-910"/>
<text text-anchor="middle" x="112.5" y="-889.8" font-family="Courier,monospace" font-size="9.00">{LLVMFuzzerTestOneInput}</text>
</g>
<!-- Node0x597c74b0dcb0&#45;&gt;Node0x597c74a835e0 -->
<g id="edge26" class="edge">
<title>Node0x597c74b0dcb0&#45;&gt;Node0x597c74a835e0</title>
<path fill="none" stroke="#4a6fa5" d="M114.42,-910.25C119.24,-985.45 148.09,-1273.83 311,-1413 328.73,-1428.14 351.77,-1436.74 374.59,-1441.47"/>
<polygon fill="#4a6fa5" stroke="#4a6fa5" points="374.33,-1443.91 381.66,-1442.81 375.24,-1439.1 374.33,-1443.91"/>
</g>
<!-- Node0x597c74b0dcb0&#45;&gt;Node0x597c74a82a40 -->
<g id="edge25" class="edge">
<title>Node0x597c74b0dcb0&#45;&gt;Node0x597c74a82a40</title>
<path fill="none" stroke="#4a6fa5" d="M115.51,-910.34C124.13,-979.78 164.54,-1228.64 311,-1348 328.33,-1362.12 350.33,-1370.48 372.23,-1375.31"/>
<polygon fill="#4a6fa5" stroke="#4a6fa5" points="371.98,-1377.76 379.33,-1376.76 372.96,-1372.96 371.98,-1377.76"/>
</g>
<!-- Node0x597c74b0db20 -->
<g id="node19" class="node">
<title>Node0x597c74b0db20</title>
<path fill="#f0f4ff" stroke="black" d="M500,-683C500,-683 431,-683 431,-683 425,-683 419,-677 419,-671 419,-671 419,-659 419,-659 419,-653 425,-647 431,-647 431,-647 500,-647 500,-647 506,-647 512,-653 512,-659 512,-659 512,-671 512,-671 512,-677 506,-683 500,-683"/>
<text text-anchor="middle" x="465.5" y="-662.8" font-family="Courier,monospace" font-size="9.00">{fuzz_tmpdir()}</text>
</g>
<!-- Node0x597c74b0dcb0&#45;&gt;Node0x597c74b0db20 -->
<g id="edge16" class="edge">
<title>Node0x597c74b0dcb0&#45;&gt;Node0x597c74b0db20</title>
<path fill="none" stroke="#4a6fa5" d="M126.16,-873.75C154.39,-834.55 226.71,-742.21 311,-697 341.98,-680.38 380.77,-672.39 411.6,-668.55"/>
<polygon fill="#4a6fa5" stroke="#4a6fa5" points="412.19,-670.94 418.86,-667.7 411.62,-666.08 412.19,-670.94"/>
</g>
<!-- Node0x597c74b0f390 -->
<g id="node20" class="node">
<title>Node0x597c74b0f390</title>
<path fill="#f0f4ff" stroke="black" d="M510.5,-618C510.5,-618 420.5,-618 420.5,-618 414.5,-618 408.5,-612 408.5,-606 408.5,-606 408.5,-594 408.5,-594 408.5,-588 414.5,-582 420.5,-582 420.5,-582 510.5,-582 510.5,-582 516.5,-582 522.5,-588 522.5,-594 522.5,-594 522.5,-606 522.5,-606 522.5,-612 516.5,-618 510.5,-618"/>
<text text-anchor="middle" x="465.5" y="-597.8" font-family="Courier,monospace" font-size="9.00">{fuzz_build_path()}</text>
</g>
<!-- Node0x597c74b0dcb0&#45;&gt;Node0x597c74b0f390 -->
<g id="edge17" class="edge">
<title>Node0x597c74b0dcb0&#45;&gt;Node0x597c74b0f390</title>
<path fill="none" stroke="#4a6fa5" d="M121.53,-873.96C143.89,-825.98 211.79,-694.66 311,-632 337.85,-615.04 372.1,-606.89 401.43,-603.05"/>
<polygon fill="#4a6fa5" stroke="#4a6fa5" points="401.73,-605.48 408.39,-602.2 401.14,-600.62 401.73,-605.48"/>
</g>
<!-- Node0x597c74b104a0 -->
<g id="node21" class="node">
<title>Node0x597c74b104a0</title>
<path fill="#f0f4ff" stroke="black" d="M484.5,-1333C484.5,-1333 446.5,-1333 446.5,-1333 440.5,-1333 434.5,-1327 434.5,-1321 434.5,-1321 434.5,-1309 434.5,-1309 434.5,-1303 440.5,-1297 446.5,-1297 446.5,-1297 484.5,-1297 484.5,-1297 490.5,-1297 496.5,-1303 496.5,-1309 496.5,-1309 496.5,-1321 496.5,-1321 496.5,-1327 490.5,-1333 484.5,-1333"/>
<text text-anchor="middle" x="465.5" y="-1312.8" font-family="Courier,monospace" font-size="9.00">{mkstemp}</text>
</g>
<!-- Node0x597c74b0dcb0&#45;&gt;Node0x597c74b104a0 -->
<g id="edge18" class="edge">
<title>Node0x597c74b0dcb0&#45;&gt;Node0x597c74b104a0</title>
<path fill="none" stroke="#4a6fa5" d="M116.91,-910.33C129.66,-973.4 180.66,-1183.03 311,-1283 344.34,-1308.57 393.26,-1314.94 426.87,-1315.97"/>
<polygon fill="#4a6fa5" stroke="#4a6fa5" points="427.17,-1318.42 434.22,-1316.11 427.27,-1313.52 427.17,-1318.42"/>
</g>
<!-- Node0x597c74b0eb50 -->
<g id="node22" class="node">
<title>Node0x597c74b0eb50</title>
<path fill="#f0f4ff" stroke="black" d="M480.5,-1268C480.5,-1268 450.5,-1268 450.5,-1268 444.5,-1268 438.5,-1262 438.5,-1256 438.5,-1256 438.5,-1244 438.5,-1244 438.5,-1238 444.5,-1232 450.5,-1232 450.5,-1232 480.5,-1232 480.5,-1232 486.5,-1232 492.5,-1238 492.5,-1244 492.5,-1244 492.5,-1256 492.5,-1256 492.5,-1262 486.5,-1268 480.5,-1268"/>
<text text-anchor="middle" x="465.5" y="-1247.8" font-family="Courier,monospace" font-size="9.00">{write}</text>
</g>
<!-- Node0x597c74b0dcb0&#45;&gt;Node0x597c74b0eb50 -->
<g id="edge19" class="edge">
<title>Node0x597c74b0dcb0&#45;&gt;Node0x597c74b0eb50</title>
<path fill="none" stroke="#4a6fa5" d="M118.73,-910C135.91,-965.77 196.21,-1136.78 311,-1218 346.64,-1243.22 397.86,-1249.4 431.16,-1250.5"/>
<polygon fill="#4a6fa5" stroke="#4a6fa5" points="431.34,-1252.95 438.4,-1250.66 431.45,-1248.05 431.34,-1252.95"/>
</g>
<!-- Node0x597c74b0ea90 -->
<g id="node23" class="node">
<title>Node0x597c74b0ea90</title>
<path fill="#f0f4ff" stroke="black" d="M480.5,-1203C480.5,-1203 450.5,-1203 450.5,-1203 444.5,-1203 438.5,-1197 438.5,-1191 438.5,-1191 438.5,-1179 438.5,-1179 438.5,-1173 444.5,-1167 450.5,-1167 450.5,-1167 480.5,-1167 480.5,-1167 486.5,-1167 492.5,-1173 492.5,-1179 492.5,-1179 492.5,-1191 492.5,-1191 492.5,-1197 486.5,-1203 480.5,-1203"/>
<text text-anchor="middle" x="465.5" y="-1182.8" font-family="Courier,monospace" font-size="9.00">{close}</text>
</g>
<!-- Node0x597c74b0dcb0&#45;&gt;Node0x597c74b0ea90 -->
<g id="edge20" class="edge">
<title>Node0x597c74b0dcb0&#45;&gt;Node0x597c74b0ea90</title>
<path fill="none" stroke="#4a6fa5" d="M121.51,-910.11C143.82,-958.27 211.61,-1090.09 311,-1153 347.68,-1176.21 398.21,-1182.92 431.11,-1184.68"/>
<polygon fill="#4a6fa5" stroke="#4a6fa5" points="431.16,-1187.14 438.26,-1185 431.38,-1182.24 431.16,-1187.14"/>
</g>
<!-- Node0x597c74b0f190 -->
<g id="node24" class="node">
<title>Node0x597c74b0f190</title>
<path fill="#f0f4ff" stroke="black" d="M482,-1138C482,-1138 449,-1138 449,-1138 443,-1138 437,-1132 437,-1126 437,-1126 437,-1114 437,-1114 437,-1108 443,-1102 449,-1102 449,-1102 482,-1102 482,-1102 488,-1102 494,-1108 494,-1114 494,-1114 494,-1126 494,-1126 494,-1132 488,-1138 482,-1138"/>
<text text-anchor="middle" x="465.5" y="-1117.8" font-family="Courier,monospace" font-size="9.00">{unlink}</text>
</g>
<!-- Node0x597c74b0dcb0&#45;&gt;Node0x597c74b0f190 -->
<g id="edge21" class="edge">
<title>Node0x597c74b0dcb0&#45;&gt;Node0x597c74b0f190</title>
<path fill="none" stroke="#4a6fa5" d="M125.92,-910.05C153.96,-949.28 226.34,-1042.46 311,-1088 348.44,-1108.14 397.34,-1115.62 429.77,-1118.39"/>
<polygon fill="#4a6fa5" stroke="#4a6fa5" points="429.66,-1120.84 436.83,-1118.94 430.04,-1115.95 429.66,-1120.84"/>
</g>
<!-- Node0x597c74b11050 -->
<g id="node25" class="node">
<title>Node0x597c74b11050</title>
<path fill="#f0f4ff" stroke="black" d="M550,-231C550,-231 381,-231 381,-231 375,-231 369,-225 369,-219 369,-219 369,-207 369,-207 369,-201 375,-195 381,-195 381,-195 550,-195 550,-195 556,-195 562,-201 562,-207 562,-207 562,-219 562,-219 562,-225 556,-231 550,-231"/>
<text text-anchor="middle" x="465.5" y="-210.8" font-family="Courier,monospace" font-size="9.00">{CIccProfileXml::CIccProfileXml()}</text>
</g>
<!-- Node0x597c74b0dcb0&#45;&gt;Node0x597c74b11050 -->
<g id="edge22" class="edge">
<title>Node0x597c74b0dcb0&#45;&gt;Node0x597c74b11050</title>
<path fill="none" stroke="#4a6fa5" d="M112.91,-873.96C111.17,-788.76 115.65,-423.38 311,-245 325.14,-232.08 343.11,-223.85 361.72,-218.7"/>
<polygon fill="#4a6fa5" stroke="#4a6fa5" points="362.43,-221.05 368.61,-216.94 361.22,-216.3 362.43,-221.05"/>
</g>
<!-- Node0x597c74b10dd0 -->
<g id="node26" class="node">
<title>Node0x597c74b10dd0</title>
<path fill="#f0f4ff" stroke="black" d="M605,-813C605,-813 326,-813 326,-813 320,-813 314,-807 314,-801 314,-801 314,-789 314,-789 314,-783 320,-777 326,-777 326,-777 605,-777 605,-777 611,-777 617,-783 617,-789 617,-789 617,-801 617,-801 617,-807 611,-813 605,-813"/>
<text text-anchor="middle" x="465.5" y="-792.8" font-family="Courier,monospace" font-size="9.00">{basic_string&lt;char, std::char_traits &gt;::basic_string()}</text>
</g>
<!-- Node0x597c74b0dcb0&#45;&gt;Node0x597c74b10dd0 -->
<g id="edge23" class="edge">
<title>Node0x597c74b0dcb0&#45;&gt;Node0x597c74b10dd0</title>
<path fill="none" stroke="#4a6fa5" d="M164.23,-873.99C203.87,-860.3 260.53,-841.57 311,-828 328.66,-823.25 347.61,-818.73 365.96,-814.63"/>
<polygon fill="#4a6fa5" stroke="#4a6fa5" points="366.92,-816.93 373.23,-813.03 365.86,-812.15 366.92,-816.93"/>
</g>
<!-- Node0x597c74b12bd0 -->
<g id="node27" class="node">
<title>Node0x597c74b12bd0</title>
<path fill="#f0f4ff" stroke="black" d="M552.5,-296C552.5,-296 378.5,-296 378.5,-296 372.5,-296 366.5,-290 366.5,-284 366.5,-284 366.5,-272 366.5,-272 366.5,-266 372.5,-260 378.5,-260 378.5,-260 552.5,-260 552.5,-260 558.5,-260 564.5,-266 564.5,-272 564.5,-272 564.5,-284 564.5,-284 564.5,-290 558.5,-296 552.5,-296"/>
<text text-anchor="middle" x="465.5" y="-275.8" font-family="Courier,monospace" font-size="9.00">{CIccProfileXml::~CIccProfileXml()}</text>
</g>
<!-- Node0x597c74b0dcb0&#45;&gt;Node0x597c74b12bd0 -->
<g id="edge24" class="edge">
<title>Node0x597c74b0dcb0&#45;&gt;Node0x597c74b12bd0</title>
<path fill="none" stroke="#4a6fa5" d="M113.9,-873.81C116.69,-794.73 138.59,-477.7 311,-318 324.56,-305.44 341.55,-296.72 359.25,-290.69"/>
<polygon fill="#4a6fa5" stroke="#4a6fa5" points="360.41,-292.89 366.33,-288.42 358.91,-288.22 360.41,-292.89"/>
</g>
<!-- Node0x597c74b10b50 -->
<g id="node28" class="node">
<title>Node0x597c74b10b50</title>
<path fill="#f0f4ff" stroke="black" d="M587,-748C587,-748 344,-748 344,-748 338,-748 332,-742 332,-736 332,-736 332,-724 332,-724 332,-718 338,-712 344,-712 344,-712 587,-712 587,-712 593,-712 599,-718 599,-724 599,-724 599,-736 599,-736 599,-742 593,-748 587,-748"/>
<text text-anchor="middle" x="465.5" y="-727.8" font-family="Courier,monospace" font-size="9.00">{basic_string&lt;char, std::char_traits &gt;::c_str()}</text>
</g>
<!-- Node0x597c74b0dcb0&#45;&gt;Node0x597c74b10b50 -->
<g id="edge27" class="edge">
<title>Node0x597c74b0dcb0&#45;&gt;Node0x597c74b10b50</title>
<path fill="none" stroke="#4a6fa5" d="M135.03,-873.81C169.74,-845.46 241.25,-790.98 311,-762 322.24,-757.33 334.24,-753.31 346.39,-749.87"/>
<polygon fill="#4a6fa5" stroke="#4a6fa5" points="347.05,-752.23 353.15,-748.01 345.75,-747.5 347.05,-752.23"/>
</g>
<!-- Node0x597c74b0ec10 -->
<g id="node29" class="node">
<title>Node0x597c74b0ec10</title>
<path fill="#f0f4ff" stroke="black" d="M531.5,-1073C531.5,-1073 399.5,-1073 399.5,-1073 393.5,-1073 387.5,-1067 387.5,-1061 387.5,-1061 387.5,-1049 387.5,-1049 387.5,-1043 393.5,-1037 399.5,-1037 399.5,-1037 531.5,-1037 531.5,-1037 537.5,-1037 543.5,-1043 543.5,-1049 543.5,-1049 543.5,-1061 543.5,-1061 543.5,-1067 537.5,-1073 531.5,-1073"/>
<text text-anchor="middle" x="465.5" y="-1052.8" font-family="Courier,monospace" font-size="9.00">{CIccProfileXml::LoadXml()}</text>
</g>
<!-- Node0x597c74b0dcb0&#45;&gt;Node0x597c74b0ec10 -->
<g id="edge28" class="edge">
<title>Node0x597c74b0dcb0&#45;&gt;Node0x597c74b0ec10</title>
<path fill="none" stroke="#4a6fa5" d="M134.72,-910.1C169.29,-938.62 240.95,-993.75 311,-1023 332.74,-1032.08 357.33,-1038.68 380.35,-1043.43"/>
<polygon fill="#4a6fa5" stroke="#4a6fa5" points="380.09,-1045.88 387.44,-1044.85 381.05,-1041.08 380.09,-1045.88"/>
</g>
<!-- Node0x597c74b11550 -->
<g id="node30" class="node">
<title>Node0x597c74b11550</title>
<path fill="#f0f4ff" stroke="black" d="M608,-1008C608,-1008 323,-1008 323,-1008 317,-1008 311,-1002 311,-996 311,-996 311,-984 311,-984 311,-978 317,-972 323,-972 323,-972 608,-972 608,-972 614,-972 620,-978 620,-984 620,-984 620,-996 620,-996 620,-1002 614,-1008 608,-1008"/>
<text text-anchor="middle" x="465.5" y="-987.8" font-family="Courier,monospace" font-size="9.00">{basic_string&lt;char, std::char_traits &gt;::~basic_string()}</text>
</g>
<!-- Node0x597c74b0dcb0&#45;&gt;Node0x597c74b11550 -->
<g id="edge29" class="edge">
<title>Node0x597c74b0dcb0&#45;&gt;Node0x597c74b11550</title>
<path fill="none" stroke="#4a6fa5" d="M162.12,-910.02C201.8,-924.29 259.52,-944.08 311,-958 327.33,-962.41 344.77,-966.57 361.82,-970.33"/>
<polygon fill="#4a6fa5" stroke="#4a6fa5" points="361.74,-972.82 369.1,-971.92 362.79,-968.04 361.74,-972.82"/>
</g>
<!-- Node0x597c74b112d0 -->
<g id="node31" class="node">
<title>Node0x597c74b112d0</title>
<path fill="#f0f4ff" stroke="black" d="M1471.5,-356C1471.5,-356 1228.5,-356 1228.5,-356 1222.5,-356 1216.5,-350 1216.5,-344 1216.5,-344 1216.5,-332 1216.5,-332 1216.5,-326 1222.5,-320 1228.5,-320 1228.5,-320 1471.5,-320 1471.5,-320 1477.5,-320 1483.5,-326 1483.5,-332 1483.5,-332 1483.5,-344 1483.5,-344 1483.5,-350 1477.5,-356 1471.5,-356"/>
<text text-anchor="middle" x="1350" y="-335.8" font-family="Courier,monospace" font-size="9.00">{std::__new_allocator&lt;char&gt;::~__new_allocator()}</text>
</g>
<!-- Node0x597c74b0dcb0&#45;&gt;Node0x597c74b112d0 -->
<g id="edge30" class="edge">
<title>Node0x597c74b0dcb0&#45;&gt;Node0x597c74b112d0</title>
<path fill="none" stroke="#4a6fa5" d="M117.48,-873.84C131.92,-812.23 187.33,-609.03 311,-502 451.07,-380.78 523.97,-403.34 706,-369 876.98,-336.74 1077.8,-332.25 1208.93,-333.69"/>
<polygon fill="#4a6fa5" stroke="#4a6fa5" points="1209.27,-336.14 1216.29,-333.78 1209.32,-331.24 1209.27,-336.14"/>
</g>
<!-- Node0x597c74b11cd0 -->
<g id="node32" class="node">
<title>Node0x597c74b11cd0</title>
<path fill="#f0f4ff" stroke="black" d="M587,-553C587,-553 344,-553 344,-553 338,-553 332,-547 332,-541 332,-541 332,-529 332,-529 332,-523 338,-517 344,-517 344,-517 587,-517 587,-517 593,-517 599,-523 599,-529 599,-529 599,-541 599,-541 599,-547 593,-553 587,-553"/>
<text text-anchor="middle" x="465.5" y="-532.8" font-family="Courier,monospace" font-size="9.00">{char_traits &gt;::basic_string&lt;std::allocator &gt;()}</text>
</g>
<!-- Node0x597c74b0dcb0&#45;&gt;Node0x597c74b11cd0 -->
<g id="edge31" class="edge">
<title>Node0x597c74b0dcb0&#45;&gt;Node0x597c74b11cd0</title>
<path fill="none" stroke="#4a6fa5" d="M118.87,-873.66C136.26,-817.65 196.68,-647.77 311,-567 316.84,-562.88 323.09,-559.26 329.61,-556.1"/>
<polygon fill="#4a6fa5" stroke="#4a6fa5" points="330.87,-558.21 336.22,-553.08 328.84,-553.76 330.87,-558.21"/>
</g>
<!-- Node0x597c74b11a50 -->
<g id="node33" class="node">
<title>Node0x597c74b11a50</title>
<path fill="#f0f4ff" stroke="black" d="M526.5,-943C526.5,-943 404.5,-943 404.5,-943 398.5,-943 392.5,-937 392.5,-931 392.5,-931 392.5,-919 392.5,-919 392.5,-913 398.5,-907 404.5,-907 404.5,-907 526.5,-907 526.5,-907 532.5,-907 538.5,-913 538.5,-919 538.5,-919 538.5,-931 538.5,-931 538.5,-937 532.5,-943 526.5,-943"/>
<text text-anchor="middle" x="465.5" y="-922.8" font-family="Courier,monospace" font-size="9.00">{CIccProfile::Validate()}</text>
</g>
<!-- Node0x597c74b0dcb0&#45;&gt;Node0x597c74b11a50 -->
<g id="edge32" class="edge">
<title>Node0x597c74b0dcb0&#45;&gt;Node0x597c74b11a50</title>
<path fill="none" stroke="#4a6fa5" d="M183.27,-898.56C241.48,-904.03 324.43,-911.83 385.16,-917.54"/>
<polygon fill="#4a6fa5" stroke="#4a6fa5" points="385.26,-920.01 392.45,-918.23 385.71,-915.13 385.26,-920.01"/>
</g>
<!-- Node0x597c74b132f0 -->
<g id="node34" class="node">
<title>Node0x597c74b132f0</title>
<path fill="#f0f4ff" stroke="black" d="M508,-878C508,-878 423,-878 423,-878 417,-878 411,-872 411,-866 411,-866 411,-854 411,-854 411,-848 417,-842 423,-842 423,-842 508,-842 508,-842 514,-842 520,-848 520,-854 520,-854 520,-866 520,-866 520,-872 514,-878 508,-878"/>
<text text-anchor="middle" x="465.5" y="-857.8" font-family="Courier,monospace" font-size="9.00">{SaveIccProfile()}</text>
</g>
<!-- Node0x597c74b0dcb0&#45;&gt;Node0x597c74b132f0 -->
<g id="edge33" class="edge">
<title>Node0x597c74b0dcb0&#45;&gt;Node0x597c74b132f0</title>
<path fill="none" stroke="#4a6fa5" d="M183.27,-885.64C247.63,-879.77 342.23,-871.15 403.6,-865.55"/>
<polygon fill="#4a6fa5" stroke="#4a6fa5" points="404.17,-867.96 410.92,-864.88 403.73,-863.08 404.17,-867.96"/>
</g>
<!-- Node0x597c74b126d0 -->
<g id="node36" class="node">
<title>Node0x597c74b126d0</title>
<path fill="#f0f4ff" stroke="black" d="M908.5,-934C908.5,-934 875.5,-934 875.5,-934 869.5,-934 863.5,-928 863.5,-922 863.5,-922 863.5,-910 863.5,-910 863.5,-904 869.5,-898 875.5,-898 875.5,-898 908.5,-898 908.5,-898 914.5,-898 920.5,-904 920.5,-910 920.5,-910 920.5,-922 920.5,-922 920.5,-928 914.5,-934 908.5,-934"/>
<text text-anchor="middle" x="892" y="-913.8" font-family="Courier,monospace" font-size="9.00">{getenv}</text>
</g>
<!-- Node0x597c74b0db20&#45;&gt;Node0x597c74b126d0 -->
<g id="edge34" class="edge">
<title>Node0x597c74b0db20&#45;&gt;Node0x597c74b126d0</title>
<path fill="none" stroke="#4a6fa5" d="M512.02,-664.02C545.22,-665.6 589.55,-672.75 620,-697 691.55,-754 633.48,-828.24 706,-884 749.54,-917.48 815.92,-920.75 856.2,-919.07"/>
<polygon fill="#4a6fa5" stroke="#4a6fa5" points="856.54,-921.51 863.41,-918.71 856.3,-916.62 856.54,-921.51"/>
</g>
<!-- Node0x597c74b12090 -->
<g id="node37" class="node">
<title>Node0x597c74b12090</title>
<path fill="#f0f4ff" stroke="black" d="M1366.5,-941C1366.5,-941 1333.5,-941 1333.5,-941 1327.5,-941 1321.5,-935 1321.5,-929 1321.5,-929 1321.5,-917 1321.5,-917 1321.5,-911 1327.5,-905 1333.5,-905 1333.5,-905 1366.5,-905 1366.5,-905 1372.5,-905 1378.5,-911 1378.5,-917 1378.5,-917 1378.5,-929 1378.5,-929 1378.5,-935 1372.5,-941 1366.5,-941"/>
<text text-anchor="middle" x="1350" y="-920.8" font-family="Courier,monospace" font-size="9.00">{strlen}</text>
</g>
<!-- Node0x597c74b0f390&#45;&gt;Node0x597c74b12090 -->
<g id="edge35" class="edge">
<title>Node0x597c74b0f390&#45;&gt;Node0x597c74b12090</title>
<path fill="none" stroke="#4a6fa5" d="M522.64,-601.56C553.58,-604.79 591.4,-612.83 620,-632 676.62,-669.96 648.53,-722.34 706,-759 847.2,-849.05 925.67,-749.42 1078,-819 1123.34,-839.71 1118.78,-870.03 1164,-891 1212.79,-913.62 1275.54,-920.38 1313.99,-922.32"/>
<polygon fill="#4a6fa5" stroke="#4a6fa5" points="1314.24,-924.78 1321.34,-922.65 1314.46,-919.89 1314.24,-924.78"/>
</g>
<!-- Node0x597c74b13a70 -->
<g id="node38" class="node">
<title>Node0x597c74b13a70</title>
<path fill="#f0f4ff" stroke="black" d="M947.5,-869C947.5,-869 836.5,-869 836.5,-869 830.5,-869 824.5,-863 824.5,-857 824.5,-857 824.5,-845 824.5,-845 824.5,-839 830.5,-833 836.5,-833 836.5,-833 947.5,-833 947.5,-833 953.5,-833 959.5,-839 959.5,-845 959.5,-845 959.5,-857 959.5,-857 959.5,-863 953.5,-869 947.5,-869"/>
<text text-anchor="middle" x="892" y="-848.8" font-family="Courier,monospace" font-size="9.00">{llvm.memcpy.p0.p0.i64}</text>
</g>
<!-- Node0x597c74b0f390&#45;&gt;Node0x597c74b13a70 -->
<g id="edge36" class="edge">
<title>Node0x597c74b0f390&#45;&gt;Node0x597c74b13a70</title>
<path fill="none" stroke="#4a6fa5" d="M522.67,-599.89C554.19,-602.52 592.56,-610.52 620,-632 689.5,-686.41 636.71,-756.33 706,-811 737.2,-835.61 780.21,-845.9 816.91,-849.9"/>
<polygon fill="#4a6fa5" stroke="#4a6fa5" points="816.95,-852.37 824.16,-850.62 817.43,-847.49 816.95,-852.37"/>
</g>
<!-- Node0x597c74b146f0 -->
<g id="node39" class="node">
<title>Node0x597c74b146f0</title>
<path fill="#f0f4ff" stroke="black" d="M961,-231C961,-231 823,-231 823,-231 817,-231 811,-225 811,-219 811,-219 811,-207 811,-207 811,-201 817,-195 823,-195 823,-195 961,-195 961,-195 967,-195 973,-201 973,-207 973,-207 973,-219 973,-219 973,-225 967,-231 961,-231"/>
<text text-anchor="middle" x="892" y="-210.8" font-family="Courier,monospace" font-size="9.00">{CIccProfile::CIccProfile()}</text>
</g>
<!-- Node0x597c74b11050&#45;&gt;Node0x597c74b146f0 -->
<g id="edge37" class="edge">
<title>Node0x597c74b11050&#45;&gt;Node0x597c74b146f0</title>
<path fill="none" stroke="#4a6fa5" d="M562.03,-213C634.48,-213 733.26,-213 803.62,-213"/>
<polygon fill="#4a6fa5" stroke="#4a6fa5" points="803.77,-215.45 810.77,-213 803.77,-210.55 803.77,-215.45"/>
</g>
<!-- Node0x597c74b186d0 -->
<g id="node47" class="node">
<title>Node0x597c74b186d0</title>
<path fill="#f0f4ff" stroke="black" d="M963.5,-296C963.5,-296 820.5,-296 820.5,-296 814.5,-296 808.5,-290 808.5,-284 808.5,-284 808.5,-272 808.5,-272 808.5,-266 814.5,-260 820.5,-260 820.5,-260 963.5,-260 963.5,-260 969.5,-260 975.5,-266 975.5,-272 975.5,-272 975.5,-284 975.5,-284 975.5,-290 969.5,-296 963.5,-296"/>
<text text-anchor="middle" x="892" y="-275.8" font-family="Courier,monospace" font-size="9.00">{CIccProfile::~CIccProfile()}</text>
</g>
<!-- Node0x597c74b12bd0&#45;&gt;Node0x597c74b186d0 -->
<g id="edge44" class="edge">
<title>Node0x597c74b12bd0&#45;&gt;Node0x597c74b186d0</title>
<path fill="none" stroke="#4a6fa5" d="M564.69,-278C636.07,-278 731.94,-278 801.28,-278"/>
<polygon fill="#4a6fa5" stroke="#4a6fa5" points="801.32,-280.45 808.32,-278 801.32,-275.55 801.32,-280.45"/>
</g>
<!-- Node0x597c74b140b0 -->
<g id="node41" class="node">
<title>Node0x597c74b140b0</title>
<path fill="#f0f4ff" stroke="black" d="M1034.5,-485C1034.5,-485 749.5,-485 749.5,-485 743.5,-485 737.5,-479 737.5,-473 737.5,-473 737.5,-461 737.5,-461 737.5,-455 743.5,-449 749.5,-449 749.5,-449 1034.5,-449 1034.5,-449 1040.5,-449 1046.5,-455 1046.5,-461 1046.5,-461 1046.5,-473 1046.5,-473 1046.5,-479 1040.5,-485 1034.5,-485"/>
<text text-anchor="middle" x="892" y="-464.8" font-family="Courier,monospace" font-size="9.00">{basic_string&lt;char, std::char_traits &gt;::_M_local_data()}</text>
</g>
<!-- Node0x597c74b11cd0&#45;&gt;Node0x597c74b140b0 -->
<g id="edge38" class="edge">
<title>Node0x597c74b11cd0&#45;&gt;Node0x597c74b140b0</title>
<path fill="none" stroke="#4a6fa5" d="M579.14,-516.96C638.51,-507.45 711.32,-495.78 771.65,-486.12"/>
<polygon fill="#4a6fa5" stroke="#4a6fa5" points="772.04,-488.54 778.57,-485.01 771.27,-483.7 772.04,-488.54"/>
</g>
<!-- Node0x597c74b128d0 -->
<g id="node42" class="node">
<title>Node0x597c74b128d0</title>
<path fill="#f0f4ff" stroke="black" d="M1005.5,-420C1005.5,-420 778.5,-420 778.5,-420 772.5,-420 766.5,-414 766.5,-408 766.5,-408 766.5,-396 766.5,-396 766.5,-390 772.5,-384 778.5,-384 778.5,-384 1005.5,-384 1005.5,-384 1011.5,-384 1017.5,-390 1017.5,-396 1017.5,-396 1017.5,-408 1017.5,-408 1017.5,-414 1011.5,-420 1005.5,-420"/>
<text text-anchor="middle" x="892" y="-399.8" font-family="Courier,monospace" font-size="9.00">{char_traits &gt;::_Alloc_hider::_Alloc_hider()}</text>
</g>
<!-- Node0x597c74b11cd0&#45;&gt;Node0x597c74b128d0 -->
<g id="edge39" class="edge">
<title>Node0x597c74b11cd0&#45;&gt;Node0x597c74b128d0</title>
<path fill="none" stroke="#4a6fa5" d="M502.08,-516.96C548.05,-494.37 631.09,-455.96 706,-434 722.98,-429.02 741.08,-424.72 759.06,-421.02"/>
<polygon fill="#4a6fa5" stroke="#4a6fa5" points="759.83,-423.36 766.21,-419.58 758.87,-418.56 759.83,-423.36"/>
</g>
<!-- Node0x597c74b11750 -->
<g id="node43" class="node">
<title>Node0x597c74b11750</title>
<path fill="#f0f4ff" stroke="black" d="M961,-550C961,-550 823,-550 823,-550 817,-550 811,-544 811,-538 811,-538 811,-526 811,-526 811,-520 817,-514 823,-514 823,-514 961,-514 961,-514 967,-514 973,-520 973,-526 973,-526 973,-538 973,-538 973,-544 967,-550 961,-550"/>
<text text-anchor="middle" x="892" y="-529.8" font-family="Courier,monospace" font-size="9.00">{std::__throw_logic_error()}</text>
</g>
<!-- Node0x597c74b11cd0&#45;&gt;Node0x597c74b11750 -->
<g id="edge40" class="edge">
<title>Node0x597c74b11cd0&#45;&gt;Node0x597c74b11750</title>
<path fill="none" stroke="#4a6fa5" d="M599.07,-534.06C665.81,-533.59 744.84,-533.03 803.84,-532.62"/>
<polygon fill="#4a6fa5" stroke="#4a6fa5" points="803.95,-535.07 810.93,-532.57 803.91,-530.17 803.95,-535.07"/>
</g>
<!-- Node0x597c74b123d0 -->
<g id="node44" class="node">
<title>Node0x597c74b123d0</title>
<path fill="#f0f4ff" stroke="black" d="M1008,-615C1008,-615 776,-615 776,-615 770,-615 764,-609 764,-603 764,-603 764,-591 764,-591 764,-585 770,-579 776,-579 776,-579 1008,-579 1008,-579 1014,-579 1020,-585 1020,-591 1020,-591 1020,-603 1020,-603 1020,-609 1014,-615 1008,-615"/>
<text text-anchor="middle" x="892" y="-594.8" font-family="Courier,monospace" font-size="9.00">{char_traits &gt;::_Alloc_hider::~_Alloc_hider()}</text>
</g>
<!-- Node0x597c74b11cd0&#45;&gt;Node0x597c74b123d0 -->
<g id="edge41" class="edge">
<title>Node0x597c74b11cd0&#45;&gt;Node0x597c74b123d0</title>
<path fill="none" stroke="#4a6fa5" d="M589.85,-553.02C643.49,-560.85 706.38,-570.04 760.78,-577.98"/>
<polygon fill="#4a6fa5" stroke="#4a6fa5" points="760.43,-580.41 767.71,-578.99 761.13,-575.56 760.43,-580.41"/>
</g>
<!-- Node0x597c74b12650 -->
<g id="node45" class="node">
<title>Node0x597c74b12650</title>
<path fill="#f0f4ff" stroke="black" d="M976.5,-745C976.5,-745 807.5,-745 807.5,-745 801.5,-745 795.5,-739 795.5,-733 795.5,-733 795.5,-721 795.5,-721 795.5,-715 801.5,-709 807.5,-709 807.5,-709 976.5,-709 976.5,-709 982.5,-709 988.5,-715 988.5,-721 988.5,-721 988.5,-733 988.5,-733 988.5,-739 982.5,-745 976.5,-745"/>
<text text-anchor="middle" x="892" y="-724.8" font-family="Courier,monospace" font-size="9.00">{std::char_traits&lt;char&gt;::length()}</text>
</g>
<!-- Node0x597c74b11cd0&#45;&gt;Node0x597c74b12650 -->
<g id="edge42" class="edge">
<title>Node0x597c74b11cd0&#45;&gt;Node0x597c74b12650</title>
<path fill="none" stroke="#4a6fa5" d="M593.33,-553.03C602.73,-556.86 611.75,-561.47 620,-567 676.62,-604.96 648.83,-656.87 706,-694 730.21,-709.73 759.8,-718.52 788.14,-723.3"/>
<polygon fill="#4a6fa5" stroke="#4a6fa5" points="788.02,-725.76 795.32,-724.43 788.78,-720.92 788.02,-725.76"/>
</g>
<!-- Node0x597c74b12a10 -->
<g id="node46" class="node">
<title>Node0x597c74b12a10</title>
<path fill="#f0f4ff" stroke="black" d="M1066,-680C1066,-680 718,-680 718,-680 712,-680 706,-674 706,-668 706,-668 706,-656 706,-656 706,-650 712,-644 718,-644 718,-644 1066,-644 1066,-644 1072,-644 1078,-650 1078,-656 1078,-656 1078,-668 1078,-668 1078,-674 1072,-680 1066,-680"/>
<text text-anchor="middle" x="892" y="-659.8" font-family="Courier,monospace" font-size="9.00">{basic_string&lt;char, std::char_traits &gt;::_M_construct&lt;char const*&gt;()}</text>
</g>
<!-- Node0x597c74b11cd0&#45;&gt;Node0x597c74b12a10 -->
<g id="edge43" class="edge">
<title>Node0x597c74b11cd0&#45;&gt;Node0x597c74b12a10</title>
<path fill="none" stroke="#4a6fa5" d="M580.12,-553.04C593.83,-556.85 607.42,-561.46 620,-567 663.12,-586 662.61,-610.63 706,-629 718.02,-634.09 730.81,-638.4 743.83,-642.04"/>
<polygon fill="#4a6fa5" stroke="#4a6fa5" points="743.25,-644.42 750.65,-643.88 744.53,-639.69 743.25,-644.42"/>
</g>
<!-- Node0x597c74b18090 -->
<g id="node35" class="node">
<title>Node0x597c74b18090</title>
<path fill="#f0f4ff" stroke="black" d="M199.5,-1836C199.5,-1836 25.5,-1836 25.5,-1836 19.5,-1836 13.5,-1830 13.5,-1824 13.5,-1824 13.5,-1812 13.5,-1812 13.5,-1806 19.5,-1800 25.5,-1800 25.5,-1800 199.5,-1800 199.5,-1800 205.5,-1800 211.5,-1806 211.5,-1812 211.5,-1812 211.5,-1824 211.5,-1824 211.5,-1830 205.5,-1836 199.5,-1836"/>
<text text-anchor="middle" x="112.5" y="-1815.8" font-family="Courier,monospace" font-size="9.00">{IIccTagFactory::~IIccTagFactory()}</text>
</g>
<!-- Node0x597c74b14330 -->
<g id="node40" class="node">
<title>Node0x597c74b14330</title>
<path fill="#f0f4ff" stroke="black" d="M165.5,-1909C165.5,-1909 59.5,-1909 59.5,-1909 53.5,-1909 47.5,-1903 47.5,-1897 47.5,-1897 47.5,-1885 47.5,-1885 47.5,-1879 53.5,-1873 59.5,-1873 59.5,-1873 165.5,-1873 165.5,-1873 171.5,-1873 177.5,-1879 177.5,-1885 177.5,-1885 177.5,-1897 177.5,-1897 177.5,-1903 171.5,-1909 165.5,-1909"/>
<text text-anchor="middle" x="112.5" y="-1888.8" font-family="Courier,monospace" font-size="9.00">{__gxx_personality_v0}</text>
</g>
<!-- Node0x597c74b123d0&#45;&gt;Node0x597c74b112d0 -->
<g id="edge68" class="edge">
<title>Node0x597c74b123d0&#45;&gt;Node0x597c74b112d0</title>
<path fill="none" stroke="#4a6fa5" d="M1020.41,-591.16C1041.17,-585.65 1061.31,-577.09 1078,-564 1152.22,-505.8 1089.63,-428 1164,-370 1177.38,-359.56 1192.97,-352.05 1209.32,-346.7"/>
<polygon fill="#4a6fa5" stroke="#4a6fa5" points="1210.39,-348.93 1216.37,-344.54 1208.95,-344.25 1210.39,-348.93"/>
</g>
<!-- Node0x597c74b12650&#45;&gt;Node0x597c74b12090 -->
<g id="edge59" class="edge">
<title>Node0x597c74b12650&#45;&gt;Node0x597c74b12090</title>
<path fill="none" stroke="#4a6fa5" d="M988.72,-733.82C1019.19,-739.48 1051.76,-749.48 1078,-767 1133.78,-804.24 1107.46,-854.93 1164,-891 1209.92,-920.29 1274.71,-924.98 1314.18,-924.7"/>
<polygon fill="#4a6fa5" stroke="#4a6fa5" points="1314.28,-927.15 1321.24,-924.6 1314.21,-922.25 1314.28,-927.15"/>
</g>
<!-- Node0x597c74b38f80 -->
<g id="node71" class="node">
<title>Node0x597c74b38f80</title>
<path fill="#f0f4ff" stroke="black" d="M1482,-486C1482,-486 1218,-486 1218,-486 1212,-486 1206,-480 1206,-474 1206,-474 1206,-462 1206,-462 1206,-456 1212,-450 1218,-450 1218,-450 1482,-450 1482,-450 1488,-450 1494,-456 1494,-462 1494,-462 1494,-474 1494,-474 1494,-480 1488,-486 1482,-486"/>
<text text-anchor="middle" x="1350" y="-465.8" font-family="Courier,monospace" font-size="9.00">{basic_string&lt;char, std::char_traits &gt;::_M_create()}</text>
</g>
<!-- Node0x597c74b12a10&#45;&gt;Node0x597c74b38f80 -->
<g id="edge60" class="edge">
<title>Node0x597c74b12a10&#45;&gt;Node0x597c74b38f80</title>
<path fill="none" stroke="#4a6fa5" d="M1049.07,-643.93C1059.23,-639.82 1068.99,-634.9 1078,-629 1135.65,-591.26 1106.25,-537.59 1164,-500 1174.72,-493.02 1186.5,-487.43 1198.76,-482.97"/>
<polygon fill="#4a6fa5" stroke="#4a6fa5" points="1199.8,-485.2 1205.62,-480.6 1198.2,-480.57 1199.8,-485.2"/>
</g>
<!-- Node0x597c74b344f0 -->
<g id="node72" class="node">
<title>Node0x597c74b344f0</title>
<path fill="#f0f4ff" stroke="black" d="M1476.5,-421C1476.5,-421 1223.5,-421 1223.5,-421 1217.5,-421 1211.5,-415 1211.5,-409 1211.5,-409 1211.5,-397 1211.5,-397 1211.5,-391 1217.5,-385 1223.5,-385 1223.5,-385 1476.5,-385 1476.5,-385 1482.5,-385 1488.5,-391 1488.5,-397 1488.5,-397 1488.5,-409 1488.5,-409 1488.5,-415 1482.5,-421 1476.5,-421"/>
<text text-anchor="middle" x="1350" y="-400.8" font-family="Courier,monospace" font-size="9.00">{basic_string&lt;char, std::char_traits &gt;::_M_data()}</text>
</g>
<!-- Node0x597c74b12a10&#45;&gt;Node0x597c74b344f0 -->
<g id="edge61" class="edge">
<title>Node0x597c74b12a10&#45;&gt;Node0x597c74b344f0</title>
<path fill="none" stroke="#4a6fa5" d="M1053.85,-643.95C1062.42,-639.78 1070.55,-634.84 1078,-629 1152.22,-570.8 1089.63,-493 1164,-435 1176.04,-425.61 1189.86,-418.59 1204.41,-413.38"/>
<polygon fill="#4a6fa5" stroke="#4a6fa5" points="1205.29,-415.67 1211.15,-411.11 1203.73,-411.02 1205.29,-415.67"/>
</g>
<!-- Node0x597c74b33ee0 -->
<g id="node73" class="node">
<title>Node0x597c74b33ee0</title>
<path fill="#f0f4ff" stroke="black" d="M1487,-876C1487,-876 1213,-876 1213,-876 1207,-876 1201,-870 1201,-864 1201,-864 1201,-852 1201,-852 1201,-846 1207,-840 1213,-840 1213,-840 1487,-840 1487,-840 1493,-840 1499,-846 1499,-852 1499,-852 1499,-864 1499,-864 1499,-870 1493,-876 1487,-876"/>
<text text-anchor="middle" x="1350" y="-855.8" font-family="Courier,monospace" font-size="9.00">{basic_string&lt;char, std::char_traits &gt;::_M_capacity()}</text>
</g>
<!-- Node0x597c74b12a10&#45;&gt;Node0x597c74b33ee0 -->
<g id="edge62" class="edge">
<title>Node0x597c74b12a10&#45;&gt;Node0x597c74b33ee0</title>
<path fill="none" stroke="#4a6fa5" d="M1051.42,-680.02C1060.75,-683.91 1069.7,-688.53 1078,-694 1136.48,-732.51 1105.52,-787.49 1164,-826 1173.36,-832.16 1183.53,-837.24 1194.14,-841.43"/>
<polygon fill="#4a6fa5" stroke="#4a6fa5" points="1193.39,-843.76 1200.8,-843.92 1195.11,-839.17 1193.39,-843.76"/>
</g>
<!-- Node0x597c74b33c60 -->
<g id="node74" class="node">
<title>Node0x597c74b33c60</title>
<path fill="#f0f4ff" stroke="black" d="M1524,-811C1524,-811 1176,-811 1176,-811 1170,-811 1164,-805 1164,-799 1164,-799 1164,-787 1164,-787 1164,-781 1170,-775 1176,-775 1176,-775 1524,-775 1524,-775 1530,-775 1536,-781 1536,-787 1536,-787 1536,-799 1536,-799 1536,-805 1530,-811 1524,-811"/>
<text text-anchor="middle" x="1350" y="-790.8" font-family="Courier,monospace" font-size="9.00">{basic_string&lt;char, std::char_traits &gt;::_M_construct&lt;char const*&gt;()}</text>
</g>
<!-- Node0x597c74b12a10&#45;&gt;Node0x597c74b33c60 -->
<g id="edge63" class="edge">
<title>Node0x597c74b12a10&#45;&gt;Node0x597c74b33c60</title>
<path fill="none" stroke="#4a6fa5" d="M1037.92,-680.05C1051.74,-683.85 1065.31,-688.44 1078,-694 1122.13,-713.33 1119.92,-740.55 1164,-760 1175.46,-765.06 1187.64,-769.34 1200.07,-772.96"/>
<polygon fill="#4a6fa5" stroke="#4a6fa5" points="1199.6,-775.38 1207,-774.91 1200.93,-770.66 1199.6,-775.38"/>
</g>
<!-- Node0x597c74b390c0 -->
<g id="node75" class="node">
<title>Node0x597c74b390c0</title>
<path fill="#f0f4ff" stroke="black" d="M1476.5,-746C1476.5,-746 1223.5,-746 1223.5,-746 1217.5,-746 1211.5,-740 1211.5,-734 1211.5,-734 1211.5,-722 1211.5,-722 1211.5,-716 1217.5,-710 1223.5,-710 1223.5,-710 1476.5,-710 1476.5,-710 1482.5,-710 1488.5,-716 1488.5,-722 1488.5,-722 1488.5,-734 1488.5,-734 1488.5,-740 1482.5,-746 1476.5,-746"/>
<text text-anchor="middle" x="1350" y="-725.8" font-family="Courier,monospace" font-size="9.00">{basic_string&lt;char, std::char_traits &gt;::_M_data()}</text>
</g>
<!-- Node0x597c74b12a10&#45;&gt;Node0x597c74b390c0 -->
<g id="edge64" class="edge">
<title>Node0x597c74b12a10&#45;&gt;Node0x597c74b390c0</title>
<path fill="none" stroke="#4a6fa5" d="M1017.6,-680.03C1079.56,-689 1154.44,-699.84 1217.33,-708.94"/>
<polygon fill="#4a6fa5" stroke="#4a6fa5" points="1217.27,-711.41 1224.55,-709.99 1217.97,-706.56 1217.27,-711.41"/>
</g>
<!-- Node0x597c74b368d0 -->
<g id="node76" class="node">
<title>Node0x597c74b368d0</title>
<path fill="#f0f4ff" stroke="black" d="M1492.5,-681C1492.5,-681 1207.5,-681 1207.5,-681 1201.5,-681 1195.5,-675 1195.5,-669 1195.5,-669 1195.5,-657 1195.5,-657 1195.5,-651 1201.5,-645 1207.5,-645 1207.5,-645 1492.5,-645 1492.5,-645 1498.5,-645 1504.5,-651 1504.5,-657 1504.5,-657 1504.5,-669 1504.5,-669 1504.5,-675 1498.5,-681 1492.5,-681"/>
<text text-anchor="middle" x="1350" y="-660.8" font-family="Courier,monospace" font-size="9.00">{basic_string&lt;char, std::char_traits &gt;::_S_copy_chars()}</text>
</g>
<!-- Node0x597c74b12a10&#45;&gt;Node0x597c74b368d0 -->
<g id="edge65" class="edge">
<title>Node0x597c74b12a10&#45;&gt;Node0x597c74b368d0</title>
<path fill="none" stroke="#4a6fa5" d="M1078.14,-662.41C1114.57,-662.49 1152.52,-662.57 1188.08,-662.65"/>
<polygon fill="#4a6fa5" stroke="#4a6fa5" points="1188.15,-665.1 1195.15,-662.66 1188.16,-660.2 1188.15,-665.1"/>
</g>
<!-- Node0x597c74b36650 -->
<g id="node77" class="node">
<title>Node0x597c74b36650</title>
<path fill="#f0f4ff" stroke="black" d="M1492.5,-616C1492.5,-616 1207.5,-616 1207.5,-616 1201.5,-616 1195.5,-610 1195.5,-604 1195.5,-604 1195.5,-592 1195.5,-592 1195.5,-586 1201.5,-580 1207.5,-580 1207.5,-580 1492.5,-580 1492.5,-580 1498.5,-580 1504.5,-586 1504.5,-592 1504.5,-592 1504.5,-604 1504.5,-604 1504.5,-610 1498.5,-616 1492.5,-616"/>
<text text-anchor="middle" x="1350" y="-595.8" font-family="Courier,monospace" font-size="9.00">{basic_string&lt;char, std::char_traits &gt;::_M_set_length()}</text>
</g>
<!-- Node0x597c74b12a10&#45;&gt;Node0x597c74b36650 -->
<g id="edge66" class="edge">
<title>Node0x597c74b12a10&#45;&gt;Node0x597c74b36650</title>
<path fill="none" stroke="#4a6fa5" d="M1021.54,-643.96C1081.52,-635.54 1152.92,-625.52 1213.73,-616.99"/>
<polygon fill="#4a6fa5" stroke="#4a6fa5" points="1214.12,-619.41 1220.71,-616.01 1213.43,-614.55 1214.12,-619.41"/>
</g>
<!-- Node0x597c74b36290 -->
<g id="node78" class="node">
<title>Node0x597c74b36290</title>
<path fill="#f0f4ff" stroke="black" d="M1524,-551C1524,-551 1176,-551 1176,-551 1170,-551 1164,-545 1164,-539 1164,-539 1164,-527 1164,-527 1164,-521 1170,-515 1176,-515 1176,-515 1524,-515 1524,-515 1530,-515 1536,-521 1536,-527 1536,-527 1536,-539 1536,-539 1536,-545 1530,-551 1524,-551"/>
<text text-anchor="middle" x="1350" y="-530.8" font-family="Courier,monospace" font-size="9.00">{basic_string&lt;char, std::char_traits &gt;::_M_construct&lt;char const*&gt;()}</text>
</g>
<!-- Node0x597c74b12a10&#45;&gt;Node0x597c74b36290 -->
<g id="edge67" class="edge">
<title>Node0x597c74b12a10&#45;&gt;Node0x597c74b36290</title>
<path fill="none" stroke="#4a6fa5" d="M1033.93,-643.97C1049.11,-639.94 1064.08,-635.02 1078,-629 1121.73,-610.09 1120.22,-583.8 1164,-565 1174.77,-560.38 1186.16,-556.42 1197.78,-553.04"/>
<polygon fill="#4a6fa5" stroke="#4a6fa5" points="1198.57,-555.36 1204.65,-551.11 1197.25,-550.64 1198.57,-555.36"/>
</g>
<!-- Node0x597c74b17a50 -->
<g id="node48" class="node">
<title>Node0x597c74b17a50</title>
<path fill="#f0f4ff" stroke="black" d="M199.5,-2043C199.5,-2043 25.5,-2043 25.5,-2043 19.5,-2043 13.5,-2037 13.5,-2031 13.5,-2031 13.5,-2019 13.5,-2019 13.5,-2013 19.5,-2007 25.5,-2007 25.5,-2007 199.5,-2007 199.5,-2007 205.5,-2007 211.5,-2013 211.5,-2019 211.5,-2019 211.5,-2031 211.5,-2031 211.5,-2037 205.5,-2043 199.5,-2043"/>
<text text-anchor="middle" x="112.5" y="-2022.8" font-family="Courier,monospace" font-size="9.00">{IIccTagFactory::~IIccTagFactory()}</text>
</g>
<!-- Node0x597c74b17410 -->
<g id="node49" class="node">
<title>Node0x597c74b17410</title>
<path fill="#f0f4ff" stroke="black" d="M489.5,-2013C489.5,-2013 441.5,-2013 441.5,-2013 435.5,-2013 429.5,-2007 429.5,-2001 429.5,-2001 429.5,-1989 429.5,-1989 429.5,-1983 435.5,-1977 441.5,-1977 441.5,-1977 489.5,-1977 489.5,-1977 495.5,-1977 501.5,-1983 501.5,-1989 501.5,-1989 501.5,-2001 501.5,-2001 501.5,-2007 495.5,-2013 489.5,-2013"/>
<text text-anchor="middle" x="465.5" y="-1992.8" font-family="Courier,monospace" font-size="9.00">{llvm.trap}</text>
</g>
<!-- Node0x597c74b17a50&#45;&gt;Node0x597c74b17410 -->
<g id="edge45" class="edge">
<title>Node0x597c74b17a50&#45;&gt;Node0x597c74b17410</title>
<path fill="none" stroke="#4a6fa5" d="M211.74,-2016.6C281.08,-2010.68 370.53,-2003.03 422.31,-1998.61"/>
<polygon fill="#4a6fa5" stroke="#4a6fa5" points="422.59,-2001.04 429.36,-1998 422.18,-1996.16 422.59,-2001.04"/>
</g>
<!-- Node0x597c74b1a690 -->
<g id="node50" class="node">
<title>Node0x597c74b1a690</title>
<path fill="#f0f4ff" stroke="black" d="M160.5,-7898C160.5,-7898 64.5,-7898 64.5,-7898 58.5,-7898 52.5,-7892 52.5,-7886 52.5,-7886 52.5,-7874 52.5,-7874 52.5,-7868 58.5,-7862 64.5,-7862 64.5,-7862 160.5,-7862 160.5,-7862 166.5,-7862 172.5,-7868 172.5,-7874 172.5,-7874 172.5,-7886 172.5,-7886 172.5,-7892 166.5,-7898 160.5,-7898"/>
<text text-anchor="middle" x="112.5" y="-7877.8" font-family="Courier,monospace" font-size="9.00">{__cxa_pure_virtual}</text>
</g>
<!-- Node0x597c74b1a190 -->
<g id="node51" class="node">
<title>Node0x597c74b1a190</title>
<path fill="#f0f4ff" stroke="black" d="M199.5,-10858C199.5,-10858 25.5,-10858 25.5,-10858 19.5,-10858 13.5,-10852 13.5,-10846 13.5,-10846 13.5,-10834 13.5,-10834 13.5,-10828 19.5,-10822 25.5,-10822 25.5,-10822 199.5,-10822 199.5,-10822 205.5,-10822 211.5,-10828 211.5,-10834 211.5,-10834 211.5,-10846 211.5,-10846 211.5,-10852 205.5,-10858 199.5,-10858"/>
<text text-anchor="middle" x="112.5" y="-10837.8" font-family="Courier,monospace" font-size="9.00">{IIccMpeFactory::~IIccMpeFactory()}</text>
</g>
<!-- Node0x597c74b19dd0 -->
<g id="node52" class="node">
<title>Node0x597c74b19dd0</title>
<path fill="#f0f4ff" stroke="black" d="M199.5,-1978C199.5,-1978 25.5,-1978 25.5,-1978 19.5,-1978 13.5,-1972 13.5,-1966 13.5,-1966 13.5,-1954 13.5,-1954 13.5,-1948 19.5,-1942 25.5,-1942 25.5,-1942 199.5,-1942 199.5,-1942 205.5,-1942 211.5,-1948 211.5,-1954 211.5,-1954 211.5,-1966 211.5,-1966 211.5,-1972 205.5,-1978 199.5,-1978"/>
<text text-anchor="middle" x="112.5" y="-1957.8" font-family="Courier,monospace" font-size="9.00">{IIccMpeFactory::~IIccMpeFactory()}</text>
</g>
<!-- Node0x597c74b19dd0&#45;&gt;Node0x597c74b17410 -->
<g id="edge46" class="edge">
<title>Node0x597c74b19dd0&#45;&gt;Node0x597c74b17410</title>
<path fill="none" stroke="#4a6fa5" d="M211.74,-1969.8C281.08,-1976.71 370.53,-1985.63 422.31,-1990.79"/>
<polygon fill="#4a6fa5" stroke="#4a6fa5" points="422.15,-1993.24 429.36,-1991.5 422.64,-1988.36 422.15,-1993.24"/>
</g>
<!-- Node0x597c74b190d0 -->
<g id="node53" class="node">
<title>Node0x597c74b190d0</title>
<path fill="#f0f4ff" stroke="black" d="M199.5,-264C199.5,-264 25.5,-264 25.5,-264 19.5,-264 13.5,-258 13.5,-252 13.5,-252 13.5,-240 13.5,-240 13.5,-234 19.5,-228 25.5,-228 25.5,-228 199.5,-228 199.5,-228 205.5,-228 211.5,-234 211.5,-240 211.5,-240 211.5,-252 211.5,-252 211.5,-258 205.5,-264 199.5,-264"/>
<text text-anchor="middle" x="112.5" y="-243.8" font-family="Courier,monospace" font-size="9.00">{CIccProfileXml::~CIccProfileXml()}</text>
</g>
<!-- Node0x597c74b190d0&#45;&gt;Node0x597c74b12bd0 -->
<g id="edge47" class="edge">
<title>Node0x597c74b190d0&#45;&gt;Node0x597c74b12bd0</title>
<path fill="none" stroke="#4a6fa5" d="M211.74,-254.96C257.65,-259.14 312.38,-264.13 359.15,-268.4"/>
<polygon fill="#4a6fa5" stroke="#4a6fa5" points="359.09,-270.85 366.28,-269.05 359.54,-265.97 359.09,-270.85"/>
</g>
<!-- Node0x597c74b1d750 -->
<g id="node54" class="node">
<title>Node0x597c74b1d750</title>
<path fill="#f0f4ff" stroke="black" d="M487,-166C487,-166 444,-166 444,-166 438,-166 432,-160 432,-154 432,-154 432,-142 432,-142 432,-136 438,-130 444,-130 444,-130 487,-130 487,-130 493,-130 499,-136 499,-142 499,-142 499,-154 499,-154 499,-160 493,-166 487,-166"/>
<text text-anchor="middle" x="465.5" y="-145.8" font-family="Courier,monospace" font-size="9.00">{delete()}</text>
</g>
<!-- Node0x597c74b190d0&#45;&gt;Node0x597c74b1d750 -->
<g id="edge48" class="edge">
<title>Node0x597c74b190d0&#45;&gt;Node0x597c74b1d750</title>
<path fill="none" stroke="#4a6fa5" d="M162.12,-227.98C201.8,-213.71 259.52,-193.92 311,-180 349.2,-169.67 393.5,-160.76 424.67,-154.98"/>
<polygon fill="#4a6fa5" stroke="#4a6fa5" points="425.46,-157.33 431.9,-153.65 424.57,-152.51 425.46,-157.33"/>
</g>
<!-- Node0x597c74b1d4d0 -->
<g id="node55" class="node">
<title>Node0x597c74b1d4d0</title>
<path fill="#f0f4ff" stroke="black" d="M213,-12500C213,-12500 12,-12500 12,-12500 6,-12500 0,-12494 0,-12488 0,-12488 0,-12476 0,-12476 0,-12470 6,-12464 12,-12464 12,-12464 213,-12464 213,-12464 219,-12464 225,-12470 225,-12476 225,-12476 225,-12488 225,-12488 225,-12494 219,-12500 213,-12500"/>
<text text-anchor="middle" x="112.5" y="-12479.8" font-family="Courier,monospace" font-size="9.00">{CIccProfile::getPccViewingConditions()}</text>
</g>
<!-- Node0x597c74b1d110 -->
<g id="node56" class="node">
<title>Node0x597c74b1d110</title>
<path fill="#f0f4ff" stroke="black" d="M539.5,-12435C539.5,-12435 391.5,-12435 391.5,-12435 385.5,-12435 379.5,-12429 379.5,-12423 379.5,-12423 379.5,-12411 379.5,-12411 379.5,-12405 385.5,-12399 391.5,-12399 391.5,-12399 539.5,-12399 539.5,-12399 545.5,-12399 551.5,-12405 551.5,-12411 551.5,-12411 551.5,-12423 551.5,-12423 551.5,-12429 545.5,-12435 539.5,-12435"/>
<text text-anchor="middle" x="465.5" y="-12414.8" font-family="Courier,monospace" font-size="9.00">{CIccProfile::FindTagOfType()}</text>
</g>
<!-- Node0x597c74b1d4d0&#45;&gt;Node0x597c74b1d110 -->
<g id="edge49" class="edge">
<title>Node0x597c74b1d4d0&#45;&gt;Node0x597c74b1d110</title>
<path fill="none" stroke="#4a6fa5" d="M210.81,-12463.98C261.28,-12454.63 322.61,-12443.28 372.32,-12434.07"/>
<polygon fill="#4a6fa5" stroke="#4a6fa5" points="372.82,-12436.47 379.25,-12432.79 371.93,-12431.65 372.82,-12436.47"/>
</g>
<!-- Node0x597c74b1cad0 -->
<g id="node57" class="node">
<title>Node0x597c74b1cad0</title>
<path fill="#f0f4ff" stroke="black" d="M210,-12435C210,-12435 15,-12435 15,-12435 9,-12435 3,-12429 3,-12423 3,-12423 3,-12411 3,-12411 3,-12405 9,-12399 15,-12399 15,-12399 210,-12399 210,-12399 216,-12399 222,-12405 222,-12411 222,-12411 222,-12423 222,-12423 222,-12429 216,-12435 210,-12435"/>
<text text-anchor="middle" x="112.5" y="-12414.8" font-family="Courier,monospace" font-size="9.00">{CIccProfile::getCustomToStandardPcc()}</text>
</g>
<!-- Node0x597c74b1cad0&#45;&gt;Node0x597c74b1d110 -->
<g id="edge50" class="edge">
<title>Node0x597c74b1cad0&#45;&gt;Node0x597c74b1d110</title>
<path fill="none" stroke="#4a6fa5" d="M222.15,-12417C270.32,-12417 326.38,-12417 372.44,-12417"/>
<polygon fill="#4a6fa5" stroke="#4a6fa5" points="372.46,-12419.45 379.46,-12417 372.46,-12414.55 372.46,-12419.45"/>
</g>
<!-- Node0x597c74b1ded0 -->
<g id="node58" class="node">
<title>Node0x597c74b1ded0</title>
<path fill="#f0f4ff" stroke="black" d="M210,-12370C210,-12370 15,-12370 15,-12370 9,-12370 3,-12364 3,-12358 3,-12358 3,-12346 3,-12346 3,-12340 9,-12334 15,-12334 15,-12334 210,-12334 210,-12334 216,-12334 222,-12340 222,-12346 222,-12346 222,-12358 222,-12358 222,-12364 216,-12370 210,-12370"/>
<text text-anchor="middle" x="112.5" y="-12349.8" font-family="Courier,monospace" font-size="9.00">{CIccProfile::getStandardToCustomPcc()}</text>
</g>
<!-- Node0x597c74b1ded0&#45;&gt;Node0x597c74b1d110 -->
<g id="edge51" class="edge">
<title>Node0x597c74b1ded0&#45;&gt;Node0x597c74b1d110</title>
<path fill="none" stroke="#4a6fa5" d="M210.81,-12370.02C261.28,-12379.37 322.61,-12390.72 372.32,-12399.93"/>
<polygon fill="#4a6fa5" stroke="#4a6fa5" points="371.93,-12402.35 379.25,-12401.21 372.82,-12397.53 371.93,-12402.35"/>
</g>
<!-- Node0x597c74b14170 -->
<g id="node59" class="node">
<title>Node0x597c74b14170</title>
<path fill="#f0f4ff" stroke="black" d="M205,-13289C205,-13289 20,-13289 20,-13289 14,-13289 8,-13283 8,-13277 8,-13277 8,-13265 8,-13265 8,-13259 14,-13253 20,-13253 20,-13253 205,-13253 205,-13253 211,-13253 217,-13259 217,-13265 217,-13265 217,-13277 217,-13277 217,-13283 211,-13289 205,-13289"/>
<text text-anchor="middle" x="112.5" y="-13268.8" font-family="Courier,monospace" font-size="9.00">{CIccProfile::getNormIlluminantXYZ()}</text>
</g>
<!-- Node0x597c74b1e650 -->
<g id="node60" class="node">
<title>Node0x597c74b1e650</title>
<path fill="#f0f4ff" stroke="black" d="M202.5,-13716C202.5,-13716 22.5,-13716 22.5,-13716 16.5,-13716 10.5,-13710 10.5,-13704 10.5,-13704 10.5,-13692 10.5,-13692 10.5,-13686 16.5,-13680 22.5,-13680 22.5,-13680 202.5,-13680 202.5,-13680 208.5,-13680 214.5,-13686 214.5,-13692 214.5,-13692 214.5,-13704 214.5,-13704 214.5,-13710 208.5,-13716 202.5,-13716"/>
<text text-anchor="middle" x="112.5" y="-13695.8" font-family="Courier,monospace" font-size="9.00">{CIccProfile::getLumIlluminantXYZ()}</text>
</g>
<!-- Node0x597c74b1e290 -->
<g id="node61" class="node">
<title>Node0x597c74b1e290</title>
<path fill="#f0f4ff" stroke="black" d="M194.5,-13962C194.5,-13962 30.5,-13962 30.5,-13962 24.5,-13962 18.5,-13956 18.5,-13950 18.5,-13950 18.5,-13938 18.5,-13938 18.5,-13932 24.5,-13926 30.5,-13926 30.5,-13926 194.5,-13926 194.5,-13926 200.5,-13926 206.5,-13932 206.5,-13938 206.5,-13938 206.5,-13950 206.5,-13950 206.5,-13956 200.5,-13962 194.5,-13962"/>
<text text-anchor="middle" x="112.5" y="-13941.8" font-family="Courier,monospace" font-size="9.00">{CIccProfile::getMediaWhiteXYZ()}</text>
</g>
<!-- Node0x597c74b1e350 -->
<g id="node62" class="node">
<title>Node0x597c74b1e350</title>
<path fill="#f0f4ff" stroke="black" d="M178.5,-101C178.5,-101 46.5,-101 46.5,-101 40.5,-101 34.5,-95 34.5,-89 34.5,-89 34.5,-77 34.5,-77 34.5,-71 40.5,-65 46.5,-65 46.5,-65 178.5,-65 178.5,-65 184.5,-65 190.5,-71 190.5,-77 190.5,-77 190.5,-89 190.5,-89 190.5,-95 184.5,-101 178.5,-101"/>
<text text-anchor="middle" x="112.5" y="-80.8" font-family="Courier,monospace" font-size="9.00">{CIccProfileXml::NewCopy()}</text>
</g>
<!-- Node0x597c74b1e350&#45;&gt;Node0x597c74b1d750 -->
<g id="edge54" class="edge">
<title>Node0x597c74b1e350&#45;&gt;Node0x597c74b1d750</title>
<path fill="none" stroke="#4a6fa5" d="M190.53,-97.26C262.91,-110.67 368.32,-130.19 424.97,-140.68"/>
<polygon fill="#4a6fa5" stroke="#4a6fa5" points="424.64,-143.11 431.97,-141.98 425.53,-138.29 424.64,-143.11"/>
</g>
<!-- Node0x597c74b2d3a0 -->
<g id="node63" class="node">
<title>Node0x597c74b2d3a0</title>
<path fill="#f0f4ff" stroke="black" d="M480.5,-101C480.5,-101 450.5,-101 450.5,-101 444.5,-101 438.5,-95 438.5,-89 438.5,-89 438.5,-77 438.5,-77 438.5,-71 444.5,-65 450.5,-65 450.5,-65 480.5,-65 480.5,-65 486.5,-65 492.5,-71 492.5,-77 492.5,-77 492.5,-89 492.5,-89 492.5,-95 486.5,-101 480.5,-101"/>
<text text-anchor="middle" x="465.5" y="-80.8" font-family="Courier,monospace" font-size="9.00">{new()}</text>
</g>
<!-- Node0x597c74b1e350&#45;&gt;Node0x597c74b2d3a0 -->
<g id="edge52" class="edge">
<title>Node0x597c74b1e350&#45;&gt;Node0x597c74b2d3a0</title>
<path fill="none" stroke="#4a6fa5" d="M190.53,-83C265.66,-83 376.38,-83 431.21,-83"/>
<polygon fill="#4a6fa5" stroke="#4a6fa5" points="431.25,-85.45 438.25,-83 431.25,-80.55 431.25,-85.45"/>
</g>
<!-- Node0x597c74b2c950 -->
<g id="node64" class="node">
<title>Node0x597c74b2c950</title>
<path fill="#f0f4ff" stroke="black" d="M550,-36C550,-36 381,-36 381,-36 375,-36 369,-30 369,-24 369,-24 369,-12 369,-12 369,-6 375,0 381,0 381,0 550,0 550,0 556,0 562,-6 562,-12 562,-12 562,-24 562,-24 562,-30 556,-36 550,-36"/>
<text text-anchor="middle" x="465.5" y="-15.8" font-family="Courier,monospace" font-size="9.00">{CIccProfileXml::CIccProfileXml()}</text>
</g>
<!-- Node0x597c74b1e350&#45;&gt;Node0x597c74b2c950 -->
<g id="edge53" class="edge">
<title>Node0x597c74b1e350&#45;&gt;Node0x597c74b2c950</title>
<path fill="none" stroke="#4a6fa5" d="M190.53,-68.74C240.84,-59.42 307.13,-47.14 361.89,-37"/>
<polygon fill="#4a6fa5" stroke="#4a6fa5" points="362.42,-39.4 368.86,-35.71 361.53,-34.58 362.42,-39.4"/>
</g>
<!-- Node0x597c74b2fdf0 -->
<g id="node70" class="node">
<title>Node0x597c74b2fdf0</title>
<path fill="#f0f4ff" stroke="black" d="M961,-36C961,-36 823,-36 823,-36 817,-36 811,-30 811,-24 811,-24 811,-12 811,-12 811,-6 817,0 823,0 823,0 961,0 961,0 967,0 973,-6 973,-12 973,-12 973,-24 973,-24 973,-30 967,-36 961,-36"/>
<text text-anchor="middle" x="892" y="-15.8" font-family="Courier,monospace" font-size="9.00">{CIccProfile::CIccProfile()}</text>
</g>
<!-- Node0x597c74b2c950&#45;&gt;Node0x597c74b2fdf0 -->
<g id="edge58" class="edge">
<title>Node0x597c74b2c950&#45;&gt;Node0x597c74b2fdf0</title>
<path fill="none" stroke="#4a6fa5" d="M562.03,-18C634.48,-18 733.26,-18 803.62,-18"/>
<polygon fill="#4a6fa5" stroke="#4a6fa5" points="803.77,-20.45 810.77,-18 803.77,-15.55 803.77,-20.45"/>
</g>
<!-- Node0x597c74b28b00 -->
<g id="node65" class="node">
<title>Node0x597c74b28b00</title>
<path fill="#f0f4ff" stroke="black" d="M186.5,-166C186.5,-166 38.5,-166 38.5,-166 32.5,-166 26.5,-160 26.5,-154 26.5,-154 26.5,-142 26.5,-142 26.5,-136 32.5,-130 38.5,-130 38.5,-130 186.5,-130 186.5,-130 192.5,-130 198.5,-136 198.5,-142 198.5,-142 198.5,-154 198.5,-154 198.5,-160 192.5,-166 186.5,-166"/>
<text text-anchor="middle" x="112.5" y="-145.8" font-family="Courier,monospace" font-size="9.00">{CIccProfileXml::NewProfile()}</text>
</g>
<!-- Node0x597c74b28b00&#45;&gt;Node0x597c74b11050 -->
<g id="edge56" class="edge">
<title>Node0x597c74b28b00&#45;&gt;Node0x597c74b11050</title>
<path fill="none" stroke="#4a6fa5" d="M198.92,-163.82C248.05,-172.92 310.11,-184.41 361.88,-194"/>
<polygon fill="#4a6fa5" stroke="#4a6fa5" points="361.46,-196.41 368.79,-195.28 362.35,-191.59 361.46,-196.41"/>
</g>
<!-- Node0x597c74b28b00&#45;&gt;Node0x597c74b1d750 -->
<g id="edge57" class="edge">
<title>Node0x597c74b28b00&#45;&gt;Node0x597c74b1d750</title>
<path fill="none" stroke="#4a6fa5" d="M198.92,-148C270.77,-148 370.27,-148 424.8,-148"/>
<polygon fill="#4a6fa5" stroke="#4a6fa5" points="424.87,-150.45 431.87,-148 424.87,-145.55 424.87,-150.45"/>
</g>
<!-- Node0x597c74b28b00&#45;&gt;Node0x597c74b2d3a0 -->
<g id="edge55" class="edge">
<title>Node0x597c74b28b00&#45;&gt;Node0x597c74b2d3a0</title>
<path fill="none" stroke="#4a6fa5" d="M198.92,-132.18C273.73,-118.33 378.5,-98.93 431.3,-89.15"/>
<polygon fill="#4a6fa5" stroke="#4a6fa5" points="431.96,-91.52 438.39,-87.83 431.07,-86.7 431.96,-91.52"/>
</g>
<!-- Node0x597c74b289c0 -->
<g id="node66" class="node">
<title>Node0x597c74b289c0</title>
<path fill="#f0f4ff" stroke="black" d="M192,-14117C192,-14117 33,-14117 33,-14117 27,-14117 21,-14111 21,-14105 21,-14105 21,-14093 21,-14093 21,-14087 27,-14081 33,-14081 33,-14081 192,-14081 192,-14081 198,-14081 204,-14087 204,-14093 204,-14093 204,-14105 204,-14105 204,-14111 198,-14117 192,-14117"/>
<text text-anchor="middle" x="112.5" y="-14096.8" font-family="Courier,monospace" font-size="9.00">{CIccProfileXml::GetClassName()}</text>
</g>
<!-- Node0x597c74b2fb50 -->
<g id="node67" class="node">
<title>Node0x597c74b2fb50</title>
<path fill="#f0f4ff" stroke="black" d="M194.5,-14227C194.5,-14227 30.5,-14227 30.5,-14227 24.5,-14227 18.5,-14221 18.5,-14215 18.5,-14215 18.5,-14203 18.5,-14203 18.5,-14197 24.5,-14191 30.5,-14191 30.5,-14191 194.5,-14191 194.5,-14191 200.5,-14191 206.5,-14197 206.5,-14203 206.5,-14203 206.5,-14215 206.5,-14215 206.5,-14221 200.5,-14227 194.5,-14227"/>
<text text-anchor="middle" x="112.5" y="-14206.8" font-family="Courier,monospace" font-size="9.00">{CIccProfile::getPccIlluminant()}</text>
</g>
<!-- Node0x597c74b30600 -->
<g id="node68" class="node">
<title>Node0x597c74b30600</title>
<path fill="#f0f4ff" stroke="black" d="M176,-14315C176,-14315 49,-14315 49,-14315 43,-14315 37,-14309 37,-14303 37,-14303 37,-14291 37,-14291 37,-14285 43,-14279 49,-14279 49,-14279 176,-14279 176,-14279 182,-14279 188,-14285 188,-14291 188,-14291 188,-14303 188,-14303 188,-14309 182,-14315 176,-14315"/>
<text text-anchor="middle" x="112.5" y="-14294.8" font-family="Courier,monospace" font-size="9.00">{CIccProfile::getPccCCT()}</text>
</g>
<!-- Node0x597c74b300a0 -->
<g id="node69" class="node">
<title>Node0x597c74b300a0</title>
<path fill="#f0f4ff" stroke="black" d="M189,-14391C189,-14391 36,-14391 36,-14391 30,-14391 24,-14385 24,-14379 24,-14379 24,-14367 24,-14367 24,-14361 30,-14355 36,-14355 36,-14355 189,-14355 189,-14355 195,-14355 201,-14361 201,-14367 201,-14367 201,-14379 201,-14379 201,-14385 195,-14391 189,-14391"/>
<text text-anchor="middle" x="112.5" y="-14370.8" font-family="Courier,monospace" font-size="9.00">{CIccProfile::getPccObserver()}</text>
</g>
<!-- Node0x597c74b34c70 -->
<g id="node79" class="node">
<title>Node0x597c74b34c70</title>
<path fill="#f0f4ff" stroke="black" d="M1903,-583C1903,-583 1634,-583 1634,-583 1628,-583 1622,-577 1622,-571 1622,-571 1622,-559 1622,-559 1622,-553 1628,-547 1634,-547 1634,-547 1903,-547 1903,-547 1909,-547 1915,-553 1915,-559 1915,-559 1915,-571 1915,-571 1915,-577 1909,-583 1903,-583"/>
<text text-anchor="middle" x="1768.5" y="-562.8" font-family="Courier,monospace" font-size="9.00">{basic_string&lt;char, std::char_traits &gt;::_M_dispose()}</text>
</g>
<!-- Node0x597c74b36290&#45;&gt;Node0x597c74b34c70 -->
<g id="edge69" class="edge">
<title>Node0x597c74b36290&#45;&gt;Node0x597c74b34c70</title>
<path fill="none" stroke="#4a6fa5" d="M1536.11,-547.22C1562.32,-549.24 1589.03,-551.29 1614.55,-553.25"/>
<polygon fill="#4a6fa5" stroke="#4a6fa5" points="1614.54,-555.71 1621.71,-553.8 1614.92,-550.82 1614.54,-555.71"/>
</g>
<!-- Node0x597c74b3fbf0 -->
<g id="node80" class="node">
<title>Node0x597c74b3fbf0</title>
<path fill="#f0f4ff" stroke="black" d="M1827,-518C1827,-518 1710,-518 1710,-518 1704,-518 1698,-512 1698,-506 1698,-506 1698,-494 1698,-494 1698,-488 1704,-482 1710,-482 1710,-482 1827,-482 1827,-482 1833,-482 1839,-488 1839,-494 1839,-494 1839,-506 1839,-506 1839,-512 1833,-518 1827,-518"/>
<text text-anchor="middle" x="1768.5" y="-497.8" font-family="Courier,monospace" font-size="9.00">{__clang_call_terminate}</text>
</g>
<!-- Node0x597c74b36290&#45;&gt;Node0x597c74b3fbf0 -->
<g id="edge70" class="edge">
<title>Node0x597c74b36290&#45;&gt;Node0x597c74b3fbf0</title>
<path fill="none" stroke="#4a6fa5" d="M1536.11,-518.33C1590.54,-514.02 1647.11,-509.54 1690.69,-506.09"/>
<polygon fill="#4a6fa5" stroke="#4a6fa5" points="1691.06,-508.51 1697.85,-505.52 1690.68,-503.63 1691.06,-508.51"/>
</g>
<!-- Node0x597c74b3fab0 -->
<g id="node81" class="node">
<title>Node0x597c74b3fab0</title>
<path fill="#f0f4ff" stroke="black" d="M2103,-551C2103,-551 2013,-551 2013,-551 2007,-551 2001,-545 2001,-539 2001,-539 2001,-527 2001,-527 2001,-521 2007,-515 2013,-515 2013,-515 2103,-515 2103,-515 2109,-515 2115,-521 2115,-527 2115,-527 2115,-539 2115,-539 2115,-545 2109,-551 2103,-551"/>
<text text-anchor="middle" x="2058" y="-530.8" font-family="Courier,monospace" font-size="9.00">{__cxa_begin_catch}</text>
</g>
<!-- Node0x597c74b3fbf0&#45;&gt;Node0x597c74b3fab0 -->
<g id="edge71" class="edge">
<title>Node0x597c74b3fbf0&#45;&gt;Node0x597c74b3fab0</title>
<path fill="none" stroke="#4a6fa5" d="M1839.1,-507.99C1886.1,-513.38 1947.68,-520.45 1993.38,-525.7"/>
<polygon fill="#4a6fa5" stroke="#4a6fa5" points="1993.34,-528.16 2000.57,-526.52 1993.9,-523.29 1993.34,-528.16"/>
</g>
<!-- Node0x597c74b3f020 -->
<g id="node82" class="node">
<title>Node0x597c74b3f020</title>
<path fill="#f0f4ff" stroke="black" d="M2100.5,-486C2100.5,-486 2015.5,-486 2015.5,-486 2009.5,-486 2003.5,-480 2003.5,-474 2003.5,-474 2003.5,-462 2003.5,-462 2003.5,-456 2009.5,-450 2015.5,-450 2015.5,-450 2100.5,-450 2100.5,-450 2106.5,-450 2112.5,-456 2112.5,-462 2112.5,-462 2112.5,-474 2112.5,-474 2112.5,-480 2106.5,-486 2100.5,-486"/>
<text text-anchor="middle" x="2058" y="-465.8" font-family="Courier,monospace" font-size="9.00">{std::terminate()}</text>
</g>
<!-- Node0x597c74b3fbf0&#45;&gt;Node0x597c74b3f020 -->
<g id="edge72" class="edge">
<title>Node0x597c74b3fbf0&#45;&gt;Node0x597c74b3f020</title>
<path fill="none" stroke="#4a6fa5" d="M1839.1,-492.25C1887.05,-486.92 1950.17,-479.89 1996.12,-474.78"/>
<polygon fill="#4a6fa5" stroke="#4a6fa5" points="1996.66,-477.18 2003.34,-473.97 1996.12,-472.31 1996.66,-477.18"/>
</g>
</g>
</svg>
