<?xml version="1.0" encoding="UTF-8" standalone="no"?>
<!DOCTYPE svg PUBLIC "-//W3C//DTD SVG 1.1//EN"
 "http://www.w3.org/Graphics/SVG/1.1/DTD/svg11.dtd">
<!-- Generated by graphviz version 2.43.0 (0)
 -->
<!-- Title: Call graph: /home/h02332/po/research/call&#45;graph/cfl/icc_spectral_fuzzer.ll Pages: 1 -->
<svg width="4095pt" height="14400pt"
 viewBox="0.00 0.00 4095.13 14400.00" xmlns="http://www.w3.org/2000/svg" xmlns:xlink="http://www.w3.org/1999/xlink">
<g id="graph0" class="graph" transform="scale(1.84 1.84) rotate(0) translate(36 7802)">
<title>Call graph: /home/h02332/po/research/call&#45;graph/cfl/icc_spectral_fuzzer.ll</title>
<polygon fill="white" stroke="transparent" points="-36,36 -36,-7802 2193,-7802 2193,36 -36,36"/>
<!-- Node0x6386b0000c10 -->
<g id="node1" class="node">
<title>Node0x6386b0000c10</title>
<path fill="#f0f4ff" stroke="black" d="M129,-1067C129,-1067 12,-1067 12,-1067 6,-1067 0,-1061 0,-1055 0,-1055 0,-1043 0,-1043 0,-1037 6,-1031 12,-1031 12,-1031 129,-1031 129,-1031 135,-1031 141,-1037 141,-1043 141,-1043 141,-1055 141,-1055 141,-1061 135,-1067 129,-1067"/>
<text text-anchor="middle" x="70.5" y="-1046.8" font-family="Courier,monospace" font-size="9.00">{LLVMFuzzerTestOneInput}</text>
</g>
<!-- Node0x6386b009b170 -->
<g id="node2" class="node">
<title>Node0x6386b009b170</title>
<path fill="#f0f4ff" stroke="black" d="M482,-1971C482,-1971 365,-1971 365,-1971 359,-1971 353,-1965 353,-1959 353,-1959 353,-1947 353,-1947 353,-1941 359,-1935 365,-1935 365,-1935 482,-1935 482,-1935 488,-1935 494,-1941 494,-1947 494,-1947 494,-1959 494,-1959 494,-1965 488,-1971 482,-1971"/>
<text text-anchor="middle" x="423.5" y="-1950.8" font-family="Courier,monospace" font-size="9.00">{CIccMemIO::CIccMemIO()}</text>
</g>
<!-- Node0x6386b0000c10&#45;&gt;Node0x6386b009b170 -->
<g id="edge1" class="edge">
<title>Node0x6386b0000c10&#45;&gt;Node0x6386b009b170</title>
<path fill="none" stroke="#4a6fa5" d="M71.99,-1067.25C75.47,-1181.35 99.97,-1795.77 227,-1921 257.61,-1951.18 304.94,-1959.52 345.36,-1960.15"/>
<polygon fill="#4a6fa5" stroke="#4a6fa5" points="345.55,-1962.6 352.56,-1960.18 345.57,-1957.7 345.55,-1962.6"/>
</g>
<!-- Node0x6386b009b200 -->
<g id="node3" class="node">
<title>Node0x6386b009b200</title>
<path fill="#f0f4ff" stroke="black" d="M474,-1906C474,-1906 373,-1906 373,-1906 367,-1906 361,-1900 361,-1894 361,-1894 361,-1882 361,-1882 361,-1876 367,-1870 373,-1870 373,-1870 474,-1870 474,-1870 480,-1870 486,-1876 486,-1882 486,-1882 486,-1894 486,-1894 486,-1900 480,-1906 474,-1906"/>
<text text-anchor="middle" x="423.5" y="-1885.8" font-family="Courier,monospace" font-size="9.00">{CIccMemIO::Attach()}</text>
</g>
<!-- Node0x6386b0000c10&#45;&gt;Node0x6386b009b200 -->
<g id="edge2" class="edge">
<title>Node0x6386b0000c10&#45;&gt;Node0x6386b009b200</title>
<path fill="none" stroke="#4a6fa5" d="M72.28,-1067.3C77.31,-1176.48 108.84,-1741.12 227,-1856 259.87,-1887.96 311.51,-1895.31 353.46,-1895.02"/>
<polygon fill="#4a6fa5" stroke="#4a6fa5" points="353.68,-1897.47 360.64,-1894.89 353.6,-1892.57 353.68,-1897.47"/>
</g>
<!-- Node0x6386affc0a30 -->
<g id="node4" class="node">
<title>Node0x6386affc0a30</title>
<path fill="#f0f4ff" stroke="black" d="M492.5,-1841C492.5,-1841 354.5,-1841 354.5,-1841 348.5,-1841 342.5,-1835 342.5,-1829 342.5,-1829 342.5,-1817 342.5,-1817 342.5,-1811 348.5,-1805 354.5,-1805 354.5,-1805 492.5,-1805 492.5,-1805 498.5,-1805 504.5,-1811 504.5,-1817 504.5,-1817 504.5,-1829 504.5,-1829 504.5,-1835 498.5,-1841 492.5,-1841"/>
<text text-anchor="middle" x="423.5" y="-1820.8" font-family="Courier,monospace" font-size="9.00">{CIccProfile::CIccProfile()}</text>
</g>
<!-- Node0x6386b0000c10&#45;&gt;Node0x6386affc0a30 -->
<g id="edge3" class="edge">
<title>Node0x6386b0000c10&#45;&gt;Node0x6386affc0a30</title>
<path fill="none" stroke="#4a6fa5" d="M72.6,-1067.17C79.27,-1170.81 117.63,-1686.37 227,-1791 255.43,-1818.19 297.48,-1827.47 335.31,-1829.42"/>
<polygon fill="#4a6fa5" stroke="#4a6fa5" points="335.22,-1831.87 342.32,-1829.7 335.42,-1826.97 335.22,-1831.87"/>
</g>
<!-- Node0x6386affbfdc0 -->
<g id="node5" class="node">
<title>Node0x6386affbfdc0</title>
<path fill="#f0f4ff" stroke="black" d="M474,-1776C474,-1776 373,-1776 373,-1776 367,-1776 361,-1770 361,-1764 361,-1764 361,-1752 361,-1752 361,-1746 367,-1740 373,-1740 373,-1740 474,-1740 474,-1740 480,-1740 486,-1746 486,-1752 486,-1752 486,-1764 486,-1764 486,-1770 480,-1776 474,-1776"/>
<text text-anchor="middle" x="423.5" y="-1755.8" font-family="Courier,monospace" font-size="9.00">{CIccProfile::Read()}</text>
</g>
<!-- Node0x6386b0000c10&#45;&gt;Node0x6386affbfdc0 -->
<g id="edge4" class="edge">
<title>Node0x6386b0000c10&#45;&gt;Node0x6386affbfdc0</title>
<path fill="none" stroke="#4a6fa5" d="M72.99,-1067.17C81.43,-1165.36 126.42,-1631.61 227,-1726 260.43,-1757.37 312.04,-1764.75 353.85,-1764.61"/>
<polygon fill="#4a6fa5" stroke="#4a6fa5" points="354.03,-1767.06 361,-1764.52 353.97,-1762.16 354.03,-1767.06"/>
</g>
<!-- Node0x6386affc0980 -->
<g id="node6" class="node">
<title>Node0x6386affc0980</title>
<path fill="#f0f4ff" stroke="black" d="M482,-1711C482,-1711 365,-1711 365,-1711 359,-1711 353,-1705 353,-1699 353,-1699 353,-1687 353,-1687 353,-1681 359,-1675 365,-1675 365,-1675 482,-1675 482,-1675 488,-1675 494,-1681 494,-1687 494,-1687 494,-1699 494,-1699 494,-1705 488,-1711 482,-1711"/>
<text text-anchor="middle" x="423.5" y="-1690.8" font-family="Courier,monospace" font-size="9.00">{CIccProfile::FindTag()}</text>
</g>
<!-- Node0x6386b0000c10&#45;&gt;Node0x6386affc0980 -->
<g id="edge5" class="edge">
<title>Node0x6386b0000c10&#45;&gt;Node0x6386affc0980</title>
<path fill="none" stroke="#4a6fa5" d="M73.47,-1067.24C83.84,-1159.83 135.19,-1576.81 227,-1661 258.5,-1689.88 305.48,-1698.27 345.5,-1699.25"/>
<polygon fill="#4a6fa5" stroke="#4a6fa5" points="345.85,-1701.7 352.88,-1699.35 345.92,-1696.8 345.85,-1701.7"/>
</g>
<!-- Node0x6386affbfe30 -->
<g id="node7" class="node">
<title>Node0x6386affbfe30</title>
<path fill="#f0f4ff" stroke="black" d="M563,-1646C563,-1646 284,-1646 284,-1646 278,-1646 272,-1640 272,-1634 272,-1634 272,-1622 272,-1622 272,-1616 278,-1610 284,-1610 284,-1610 563,-1610 563,-1610 569,-1610 575,-1616 575,-1622 575,-1622 575,-1634 575,-1634 575,-1640 569,-1646 563,-1646"/>
<text text-anchor="middle" x="423.5" y="-1625.8" font-family="Courier,monospace" font-size="9.00">{basic_string&lt;char, std::char_traits &gt;::basic_string()}</text>
</g>
<!-- Node0x6386b0000c10&#45;&gt;Node0x6386affbfe30 -->
<g id="edge6" class="edge">
<title>Node0x6386b0000c10&#45;&gt;Node0x6386affbfe30</title>
<path fill="none" stroke="#4a6fa5" d="M74.02,-1067C86.42,-1153.11 143.81,-1521.85 227,-1596 238.14,-1605.93 251.12,-1613.42 265,-1619"/>
<polygon fill="#4a6fa5" stroke="#4a6fa5" points="264.47,-1621.41 271.88,-1621.59 266.2,-1616.83 264.47,-1621.41"/>
</g>
<!-- Node0x6386b00a1a30 -->
<g id="node8" class="node">
<title>Node0x6386b00a1a30</title>
<path fill="#f0f4ff" stroke="black" d="M484.5,-1581C484.5,-1581 362.5,-1581 362.5,-1581 356.5,-1581 350.5,-1575 350.5,-1569 350.5,-1569 350.5,-1557 350.5,-1557 350.5,-1551 356.5,-1545 362.5,-1545 362.5,-1545 484.5,-1545 484.5,-1545 490.5,-1545 496.5,-1551 496.5,-1557 496.5,-1557 496.5,-1569 496.5,-1569 496.5,-1575 490.5,-1581 484.5,-1581"/>
<text text-anchor="middle" x="423.5" y="-1560.8" font-family="Courier,monospace" font-size="9.00">{CIccMemIO::~CIccMemIO()}</text>
</g>
<!-- Node0x6386b0000c10&#45;&gt;Node0x6386b00a1a30 -->
<g id="edge7" class="edge">
<title>Node0x6386b0000c10&#45;&gt;Node0x6386b00a1a30</title>
<path fill="none" stroke="#4a6fa5" d="M71.16,-1067.43C70.92,-1139.55 80.36,-1404.84 227,-1531 258.54,-1558.13 303.92,-1566.77 343.03,-1568.33"/>
<polygon fill="#4a6fa5" stroke="#4a6fa5" points="343.18,-1570.79 350.25,-1568.54 343.33,-1565.89 343.18,-1570.79"/>
</g>
<!-- Node0x6386affc06e0 -->
<g id="node9" class="node">
<title>Node0x6386affc06e0</title>
<path fill="#f0f4ff" stroke="black" d="M471.5,-1516C471.5,-1516 375.5,-1516 375.5,-1516 369.5,-1516 363.5,-1510 363.5,-1504 363.5,-1504 363.5,-1492 363.5,-1492 363.5,-1486 369.5,-1480 375.5,-1480 375.5,-1480 471.5,-1480 471.5,-1480 477.5,-1480 483.5,-1486 483.5,-1492 483.5,-1492 483.5,-1504 483.5,-1504 483.5,-1510 477.5,-1516 471.5,-1516"/>
<text text-anchor="middle" x="423.5" y="-1495.8" font-family="Courier,monospace" font-size="9.00">{CIccMemIO::Alloc()}</text>
</g>
<!-- Node0x6386b0000c10&#45;&gt;Node0x6386affc06e0 -->
<g id="edge8" class="edge">
<title>Node0x6386b0000c10&#45;&gt;Node0x6386affc06e0</title>
<path fill="none" stroke="#4a6fa5" d="M72.18,-1067.22C75.71,-1132.9 97.18,-1359.28 227,-1466 262.66,-1495.32 314.68,-1502.69 356.09,-1503.07"/>
<polygon fill="#4a6fa5" stroke="#4a6fa5" points="356.17,-1505.52 363.17,-1503.06 356.17,-1500.62 356.17,-1505.52"/>
</g>
<!-- Node0x6386b00aa560 -->
<g id="node10" class="node">
<title>Node0x6386b00aa560</title>
<path fill="#f0f4ff" stroke="black" d="M495,-1451C495,-1451 352,-1451 352,-1451 346,-1451 340,-1445 340,-1439 340,-1439 340,-1427 340,-1427 340,-1421 346,-1415 352,-1415 352,-1415 495,-1415 495,-1415 501,-1415 507,-1421 507,-1427 507,-1427 507,-1439 507,-1439 507,-1445 501,-1451 495,-1451"/>
<text text-anchor="middle" x="423.5" y="-1430.8" font-family="Courier,monospace" font-size="9.00">{CIccProfile::~CIccProfile()}</text>
</g>
<!-- Node0x6386b0000c10&#45;&gt;Node0x6386b00aa560 -->
<g id="edge9" class="edge">
<title>Node0x6386b0000c10&#45;&gt;Node0x6386b00aa560</title>
<path fill="none" stroke="#4a6fa5" d="M73.55,-1067.25C81.24,-1126.32 113.93,-1313.51 227,-1401 256.71,-1423.99 296.65,-1433.18 332.69,-1436.17"/>
<polygon fill="#4a6fa5" stroke="#4a6fa5" points="332.68,-1438.63 339.84,-1436.69 333.04,-1433.74 332.68,-1438.63"/>
</g>
<!-- Node0x6386affc0900 -->
<g id="node11" class="node">
<title>Node0x6386affc0900</title>
<path fill="#f0f4ff" stroke="black" d="M566,-1386C566,-1386 281,-1386 281,-1386 275,-1386 269,-1380 269,-1374 269,-1374 269,-1362 269,-1362 269,-1356 275,-1350 281,-1350 281,-1350 566,-1350 566,-1350 572,-1350 578,-1356 578,-1362 578,-1362 578,-1374 578,-1374 578,-1380 572,-1386 566,-1386"/>
<text text-anchor="middle" x="423.5" y="-1365.8" font-family="Courier,monospace" font-size="9.00">{basic_string&lt;char, std::char_traits &gt;::~basic_string()}</text>
</g>
<!-- Node0x6386b0000c10&#45;&gt;Node0x6386affc0900 -->
<g id="edge10" class="edge">
<title>Node0x6386b0000c10&#45;&gt;Node0x6386affc0900</title>
<path fill="none" stroke="#4a6fa5" d="M75.94,-1067.2C89.24,-1117.58 133.72,-1259.69 227,-1328 237.71,-1335.84 249.6,-1342.24 262.06,-1347.43"/>
<polygon fill="#4a6fa5" stroke="#4a6fa5" points="261.22,-1349.74 268.63,-1350.05 263.03,-1345.18 261.22,-1349.74"/>
</g>
<!-- Node0x6386b00aa7e0 -->
<g id="node12" class="node">
<title>Node0x6386b00aa7e0</title>
<path fill="#f0f4ff" stroke="black" d="M552.5,-1262C552.5,-1262 294.5,-1262 294.5,-1262 288.5,-1262 282.5,-1256 282.5,-1250 282.5,-1250 282.5,-1238 282.5,-1238 282.5,-1232 288.5,-1226 294.5,-1226 294.5,-1226 552.5,-1226 552.5,-1226 558.5,-1226 564.5,-1232 564.5,-1238 564.5,-1238 564.5,-1250 564.5,-1250 564.5,-1256 558.5,-1262 552.5,-1262"/>
<text text-anchor="middle" x="423.5" y="-1241.8" font-family="Courier,monospace" font-size="9.00">{std::_List_iterator&lt;IccTagEntry&gt;::operator++(int)}</text>
</g>
<!-- Node0x6386b0000c10&#45;&gt;Node0x6386b00aa7e0 -->
<g id="edge11" class="edge">
<title>Node0x6386b0000c10&#45;&gt;Node0x6386b00aa7e0</title>
<path fill="none" stroke="#4a6fa5" d="M82.81,-1067.09C105.48,-1101.63 160.07,-1176.68 227,-1212 241.97,-1219.9 258.41,-1225.95 275.2,-1230.56"/>
<polygon fill="#4a6fa5" stroke="#4a6fa5" points="275.03,-1233.04 282.42,-1232.45 276.27,-1228.3 275.03,-1233.04"/>
</g>
<!-- Node0x6386b00a5070 -->
<g id="node13" class="node">
<title>Node0x6386b00a5070</title>
<path fill="#f0f4ff" stroke="black" d="M1471.5,-621C1471.5,-621 1228.5,-621 1228.5,-621 1222.5,-621 1216.5,-615 1216.5,-609 1216.5,-609 1216.5,-597 1216.5,-597 1216.5,-591 1222.5,-585 1228.5,-585 1228.5,-585 1471.5,-585 1471.5,-585 1477.5,-585 1483.5,-591 1483.5,-597 1483.5,-597 1483.5,-609 1483.5,-609 1483.5,-615 1477.5,-621 1471.5,-621"/>
<text text-anchor="middle" x="1350" y="-600.8" font-family="Courier,monospace" font-size="9.00">{std::__new_allocator&lt;char&gt;::~__new_allocator()}</text>
</g>
<!-- Node0x6386b0000c10&#45;&gt;Node0x6386b00a5070 -->
<g id="edge12" class="edge">
<title>Node0x6386b0000c10&#45;&gt;Node0x6386b00a5070</title>
<path fill="none" stroke="#4a6fa5" d="M73.05,-1030.91C79.28,-970.65 108.25,-775.81 227,-692 304.44,-637.34 983.6,-641.49 1078,-633 1120.76,-629.15 1167.24,-624.27 1209.43,-619.56"/>
<polygon fill="#4a6fa5" stroke="#4a6fa5" points="1209.76,-621.99 1216.44,-618.77 1209.21,-617.12 1209.76,-621.99"/>
</g>
<!-- Node0x6386b00a9a20 -->
<g id="node14" class="node">
<title>Node0x6386b00a9a20</title>
<path fill="#f0f4ff" stroke="black" d="M558,-807C558,-807 289,-807 289,-807 283,-807 277,-801 277,-795 277,-795 277,-783 277,-783 277,-777 283,-771 289,-771 289,-771 558,-771 558,-771 564,-771 570,-777 570,-783 570,-783 570,-795 570,-795 570,-801 564,-807 558,-807"/>
<text text-anchor="middle" x="423.5" y="-786.8" font-family="Courier,monospace" font-size="9.00">{std::_List_iterator&lt;IccTagEntry&gt;::operator&#45;() const}</text>
</g>
<!-- Node0x6386b0000c10&#45;&gt;Node0x6386b00a9a20 -->
<g id="edge13" class="edge">
<title>Node0x6386b0000c10&#45;&gt;Node0x6386b00a9a20</title>
<path fill="none" stroke="#4a6fa5" d="M78.1,-1030.88C95.14,-986.91 145.09,-874.35 227,-822 240.14,-813.6 254.76,-807.14 269.91,-802.2"/>
<polygon fill="#4a6fa5" stroke="#4a6fa5" points="270.94,-804.44 276.91,-800.03 269.49,-799.76 270.94,-804.44"/>
</g>
<!-- Node0x6386affbf5d0 -->
<g id="node15" class="node">
<title>Node0x6386affbf5d0</title>
<path fill="#f0f4ff" stroke="black" d="M497.5,-1132C497.5,-1132 349.5,-1132 349.5,-1132 343.5,-1132 337.5,-1126 337.5,-1120 337.5,-1120 337.5,-1108 337.5,-1108 337.5,-1102 343.5,-1096 349.5,-1096 349.5,-1096 497.5,-1096 497.5,-1096 503.5,-1096 509.5,-1102 509.5,-1108 509.5,-1108 509.5,-1120 509.5,-1120 509.5,-1126 503.5,-1132 497.5,-1132"/>
<text text-anchor="middle" x="423.5" y="-1111.8" font-family="Courier,monospace" font-size="9.00">{CIccProfile::FindTagOfType()}</text>
</g>
<!-- Node0x6386b0000c10&#45;&gt;Node0x6386affbf5d0 -->
<g id="edge14" class="edge">
<title>Node0x6386b0000c10&#45;&gt;Node0x6386affbf5d0</title>
<path fill="none" stroke="#4a6fa5" d="M141.03,-1064.48C167.84,-1070.26 198.79,-1076.7 227,-1082 260.47,-1088.29 297.29,-1094.5 329.87,-1099.75"/>
<polygon fill="#4a6fa5" stroke="#4a6fa5" points="329.88,-1102.23 337.18,-1100.93 330.66,-1097.4 329.88,-1102.23"/>
</g>
<!-- Node0x6386b00a4880 -->
<g id="node16" class="node">
<title>Node0x6386b00a4880</title>
<path fill="#f0f4ff" stroke="black" d="M461,-1067C461,-1067 386,-1067 386,-1067 380,-1067 374,-1061 374,-1055 374,-1055 374,-1043 374,-1043 374,-1037 380,-1031 386,-1031 386,-1031 461,-1031 461,-1031 467,-1031 473,-1037 473,-1043 473,-1043 473,-1055 473,-1055 473,-1061 467,-1067 461,-1067"/>
<text text-anchor="middle" x="423.5" y="-1046.8" font-family="Courier,monospace" font-size="9.00">{__dynamic_cast}</text>
</g>
<!-- Node0x6386b0000c10&#45;&gt;Node0x6386b00a4880 -->
<g id="edge15" class="edge">
<title>Node0x6386b0000c10&#45;&gt;Node0x6386b00a4880</title>
<path fill="none" stroke="#4a6fa5" d="M141.27,-1049C207.35,-1049 305.33,-1049 366.48,-1049"/>
<polygon fill="#4a6fa5" stroke="#4a6fa5" points="366.75,-1051.45 373.75,-1049 366.75,-1046.55 366.75,-1051.45"/>
</g>
<!-- Node0x6386b00a9160 -->
<g id="node17" class="node">
<title>Node0x6386b00a9160</title>
<path fill="#f0f4ff" stroke="black" d="M608,-1002C608,-1002 239,-1002 239,-1002 233,-1002 227,-996 227,-990 227,-990 227,-978 227,-978 227,-972 233,-966 239,-966 239,-966 608,-966 608,-966 614,-966 620,-972 620,-978 620,-978 620,-990 620,-990 620,-996 614,-1002 608,-1002"/>
<text text-anchor="middle" x="423.5" y="-981.8" font-family="Courier,monospace" font-size="9.00">{std::operator!=(std::_List_iterator&lt;IccTagEntry&gt; const&amp;, std::_List...}</text>
</g>
<!-- Node0x6386b0000c10&#45;&gt;Node0x6386b00a9160 -->
<g id="edge16" class="edge">
<title>Node0x6386b0000c10&#45;&gt;Node0x6386b00a9160</title>
<path fill="none" stroke="#4a6fa5" d="M141.06,-1034.13C167.88,-1028.55 198.82,-1022.28 227,-1017 251.97,-1012.32 278.8,-1007.6 304.33,-1003.25"/>
<polygon fill="#4a6fa5" stroke="#4a6fa5" points="305,-1005.62 311.49,-1002.03 304.18,-1000.79 305,-1005.62"/>
</g>
<!-- Node0x6386b00a93e0 -->
<g id="node18" class="node">
<title>Node0x6386b00a93e0</title>
<path fill="#f0f4ff" stroke="black" d="M503,-1197C503,-1197 344,-1197 344,-1197 338,-1197 332,-1191 332,-1185 332,-1185 332,-1173 332,-1173 332,-1167 338,-1161 344,-1161 344,-1161 503,-1161 503,-1161 509,-1161 515,-1167 515,-1173 515,-1173 515,-1185 515,-1185 515,-1191 509,-1197 503,-1197"/>
<text text-anchor="middle" x="423.5" y="-1176.8" font-family="Courier,monospace" font-size="9.00">{std::list&lt;IccTagEntry &gt;::end()}</text>
</g>
<!-- Node0x6386b0000c10&#45;&gt;Node0x6386b00a93e0 -->
<g id="edge17" class="edge">
<title>Node0x6386b0000c10&#45;&gt;Node0x6386b00a93e0</title>
<path fill="none" stroke="#4a6fa5" d="M93.66,-1067.05C122.51,-1089.56 175.38,-1127.43 227,-1147 257.8,-1158.67 292.91,-1166.09 324.8,-1170.8"/>
<polygon fill="#4a6fa5" stroke="#4a6fa5" points="324.7,-1173.26 331.97,-1171.83 325.39,-1168.41 324.7,-1173.26"/>
</g>
<!-- Node0x6386b00a5980 -->
<g id="node19" class="node">
<title>Node0x6386b00a5980</title>
<path fill="#f0f4ff" stroke="black" d="M552.5,-872C552.5,-872 294.5,-872 294.5,-872 288.5,-872 282.5,-866 282.5,-860 282.5,-860 282.5,-848 282.5,-848 282.5,-842 288.5,-836 294.5,-836 294.5,-836 552.5,-836 552.5,-836 558.5,-836 564.5,-842 564.5,-848 564.5,-848 564.5,-860 564.5,-860 564.5,-866 558.5,-872 552.5,-872"/>
<text text-anchor="middle" x="423.5" y="-851.8" font-family="Courier,monospace" font-size="9.00">{CIccTagSpectralViewingConditions::getIlluminant()}</text>
</g>
<!-- Node0x6386b0000c10&#45;&gt;Node0x6386b00a5980 -->
<g id="edge18" class="edge">
<title>Node0x6386b0000c10&#45;&gt;Node0x6386b00a5980</title>
<path fill="none" stroke="#4a6fa5" d="M83.03,-1030.79C105.88,-996.39 160.49,-922.18 227,-887 241.98,-879.08 258.42,-872.98 275.21,-868.3"/>
<polygon fill="#4a6fa5" stroke="#4a6fa5" points="276.29,-870.55 282.43,-866.39 275.03,-865.82 276.29,-870.55"/>
</g>
<!-- Node0x6386b00a9660 -->
<g id="node20" class="node">
<title>Node0x6386b00a9660</title>
<path fill="#f0f4ff" stroke="black" d="M947.5,-1293C947.5,-1293 836.5,-1293 836.5,-1293 830.5,-1293 824.5,-1287 824.5,-1281 824.5,-1281 824.5,-1269 824.5,-1269 824.5,-1263 830.5,-1257 836.5,-1257 836.5,-1257 947.5,-1257 947.5,-1257 953.5,-1257 959.5,-1263 959.5,-1269 959.5,-1269 959.5,-1281 959.5,-1281 959.5,-1287 953.5,-1293 947.5,-1293"/>
<text text-anchor="middle" x="892" y="-1272.8" font-family="Courier,monospace" font-size="9.00">{llvm.memcpy.p0.p0.i64}</text>
</g>
<!-- Node0x6386b0000c10&#45;&gt;Node0x6386b00a9660 -->
<g id="edge19" class="edge">
<title>Node0x6386b0000c10&#45;&gt;Node0x6386b00a9660</title>
<path fill="none" stroke="#4a6fa5" d="M77.22,-1067.08C92.68,-1112.51 140.16,-1231.11 227,-1277 327.39,-1330.05 666.48,-1300.27 817.44,-1283.72"/>
<polygon fill="#4a6fa5" stroke="#4a6fa5" points="817.8,-1286.15 824.49,-1282.95 817.26,-1281.28 817.8,-1286.15"/>
</g>
<!-- Node0x6386b00a54a0 -->
<g id="node21" class="node">
<title>Node0x6386b00a54a0</title>
<path fill="#f0f4ff" stroke="black" d="M545,-423C545,-423 302,-423 302,-423 296,-423 290,-417 290,-411 290,-411 290,-399 290,-399 290,-393 296,-387 302,-387 302,-387 545,-387 545,-387 551,-387 557,-393 557,-399 557,-399 557,-411 557,-411 557,-417 551,-423 545,-423"/>
<text text-anchor="middle" x="423.5" y="-402.8" font-family="Courier,monospace" font-size="9.00">{char_traits &gt;::basic_string&lt;std::allocator &gt;()}</text>
</g>
<!-- Node0x6386b0000c10&#45;&gt;Node0x6386b00a54a0 -->
<g id="edge20" class="edge">
<title>Node0x6386b0000c10&#45;&gt;Node0x6386b00a54a0</title>
<path fill="none" stroke="#4a6fa5" d="M73.48,-1030.8C83.92,-938.4 135.53,-522.27 227,-438 242.76,-423.48 262.42,-414.07 283.15,-408.14"/>
<polygon fill="#4a6fa5" stroke="#4a6fa5" points="283.78,-410.51 289.91,-406.34 282.52,-405.78 283.78,-410.51"/>
</g>
<!-- Node0x6386b00a8ee0 -->
<g id="node22" class="node">
<title>Node0x6386b00a8ee0</title>
<path fill="#f0f4ff" stroke="black" d="M508,-937C508,-937 339,-937 339,-937 333,-937 327,-931 327,-925 327,-925 327,-913 327,-913 327,-907 333,-901 339,-901 339,-901 508,-901 508,-901 514,-901 520,-907 520,-913 520,-913 520,-925 520,-925 520,-931 514,-937 508,-937"/>
<text text-anchor="middle" x="423.5" y="-916.8" font-family="Courier,monospace" font-size="9.00">{std::list&lt;IccTagEntry &gt;::begin()}</text>
</g>
<!-- Node0x6386b0000c10&#45;&gt;Node0x6386b00a8ee0 -->
<g id="edge21" class="edge">
<title>Node0x6386b0000c10&#45;&gt;Node0x6386b00a8ee0</title>
<path fill="none" stroke="#4a6fa5" d="M94.21,-1030.79C123.22,-1008.52 175.83,-971.41 227,-952 256.05,-940.98 288.92,-933.63 319.3,-928.73"/>
<polygon fill="#4a6fa5" stroke="#4a6fa5" points="320.02,-931.1 326.56,-927.6 319.27,-926.26 320.02,-931.1"/>
</g>
<!-- Node0x6386b00a83a0 -->
<g id="node23" class="node">
<title>Node0x6386b00a83a0</title>
<path fill="#f0f4ff" stroke="black" d="M555.5,-618C555.5,-618 291.5,-618 291.5,-618 285.5,-618 279.5,-612 279.5,-606 279.5,-606 279.5,-594 279.5,-594 279.5,-588 285.5,-582 291.5,-582 291.5,-582 555.5,-582 555.5,-582 561.5,-582 567.5,-588 567.5,-594 567.5,-594 567.5,-606 567.5,-606 567.5,-612 561.5,-618 555.5,-618"/>
<text text-anchor="middle" x="423.5" y="-597.8" font-family="Courier,monospace" font-size="9.00">{std::_List_iterator&lt;IccTagEntry&gt;::_List_iterator()}</text>
</g>
<!-- Node0x6386b0000c10&#45;&gt;Node0x6386b00a83a0 -->
<g id="edge22" class="edge">
<title>Node0x6386b0000c10&#45;&gt;Node0x6386b00a83a0</title>
<path fill="none" stroke="#4a6fa5" d="M72.48,-1030.85C77.01,-966.41 101.41,-746.78 227,-640 240.28,-628.71 255.89,-620.31 272.41,-614.1"/>
<polygon fill="#4a6fa5" stroke="#4a6fa5" points="273.26,-616.4 279.03,-611.75 271.62,-611.79 273.26,-616.4"/>
</g>
<!-- Node0x6386b00a88a0 -->
<g id="node24" class="node">
<title>Node0x6386b00a88a0</title>
<path fill="#f0f4ff" stroke="black" d="M484.5,-553C484.5,-553 362.5,-553 362.5,-553 356.5,-553 350.5,-547 350.5,-541 350.5,-541 350.5,-529 350.5,-529 350.5,-523 356.5,-517 362.5,-517 362.5,-517 484.5,-517 484.5,-517 490.5,-517 496.5,-523 496.5,-529 496.5,-529 496.5,-541 496.5,-541 496.5,-547 490.5,-553 484.5,-553"/>
<text text-anchor="middle" x="423.5" y="-532.8" font-family="Courier,monospace" font-size="9.00">{CIccProfile::Validate()}</text>
</g>
<!-- Node0x6386b0000c10&#45;&gt;Node0x6386b00a88a0 -->
<g id="edge23" class="edge">
<title>Node0x6386b0000c10&#45;&gt;Node0x6386b00a88a0</title>
<path fill="none" stroke="#4a6fa5" d="M71.19,-1030.63C71.07,-958.74 80.91,-694.24 227,-568 258.51,-540.77 303.89,-531.91 343,-530.13"/>
<polygon fill="#4a6fa5" stroke="#4a6fa5" points="343.32,-532.57 350.23,-529.88 343.15,-527.68 343.32,-532.57"/>
</g>
<!-- Node0x6386b00a7c80 -->
<g id="node25" class="node">
<title>Node0x6386b00a7c80</title>
<path fill="#f0f4ff" stroke="black" d="M471.5,-488C471.5,-488 375.5,-488 375.5,-488 369.5,-488 363.5,-482 363.5,-476 363.5,-476 363.5,-464 363.5,-464 363.5,-458 369.5,-452 375.5,-452 375.5,-452 471.5,-452 471.5,-452 477.5,-452 483.5,-458 483.5,-464 483.5,-464 483.5,-476 483.5,-476 483.5,-482 477.5,-488 471.5,-488"/>
<text text-anchor="middle" x="423.5" y="-467.8" font-family="Courier,monospace" font-size="9.00">{llvm.memset.p0.i64}</text>
</g>
<!-- Node0x6386b0000c10&#45;&gt;Node0x6386b00a7c80 -->
<g id="edge24" class="edge">
<title>Node0x6386b0000c10&#45;&gt;Node0x6386b00a7c80</title>
<path fill="none" stroke="#4a6fa5" d="M74.07,-1030.75C86.62,-944.31 144.21,-577.13 227,-503 261.66,-471.96 314.23,-464.5 356.13,-464.37"/>
<polygon fill="#4a6fa5" stroke="#4a6fa5" points="356.27,-466.82 363.29,-464.42 356.3,-461.92 356.27,-466.82"/>
</g>
<!-- Node0x6386b00a8c60 -->
<g id="node26" class="node">
<title>Node0x6386b00a8c60</title>
<path fill="#f0f4ff" stroke="black" d="M471.5,-358C471.5,-358 375.5,-358 375.5,-358 369.5,-358 363.5,-352 363.5,-346 363.5,-346 363.5,-334 363.5,-334 363.5,-328 369.5,-322 375.5,-322 375.5,-322 471.5,-322 471.5,-322 477.5,-322 483.5,-328 483.5,-334 483.5,-334 483.5,-346 483.5,-346 483.5,-352 477.5,-358 471.5,-358"/>
<text text-anchor="middle" x="423.5" y="-337.8" font-family="Courier,monospace" font-size="9.00">{SpectralCLUTSafe()}</text>
</g>
<!-- Node0x6386b0000c10&#45;&gt;Node0x6386b00a8c60 -->
<g id="edge25" class="edge">
<title>Node0x6386b0000c10&#45;&gt;Node0x6386b00a8c60</title>
<path fill="none" stroke="#4a6fa5" d="M73,-1030.86C81.51,-932.86 126.78,-467.49 227,-373 260.97,-340.97 313.84,-333.62 356.03,-333.79"/>
<polygon fill="#4a6fa5" stroke="#4a6fa5" points="356.21,-336.24 363.24,-333.89 356.28,-331.34 356.21,-336.24"/>
</g>
<!-- Node0x6386b00a7280 -->
<g id="node27" class="node">
<title>Node0x6386b00a7280</title>
<path fill="#f0f4ff" stroke="black" d="M476.5,-163C476.5,-163 370.5,-163 370.5,-163 364.5,-163 358.5,-157 358.5,-151 358.5,-151 358.5,-139 358.5,-139 358.5,-133 364.5,-127 370.5,-127 370.5,-127 476.5,-127 476.5,-127 482.5,-127 488.5,-133 488.5,-139 488.5,-139 488.5,-151 488.5,-151 488.5,-157 482.5,-163 476.5,-163"/>
<text text-anchor="middle" x="423.5" y="-142.8" font-family="Courier,monospace" font-size="9.00">{SpectralMatrixSafe()}</text>
</g>
<!-- Node0x6386b0000c10&#45;&gt;Node0x6386b00a7280 -->
<g id="edge26" class="edge">
<title>Node0x6386b0000c10&#45;&gt;Node0x6386b00a7280</title>
<path fill="none" stroke="#4a6fa5" d="M72.01,-1030.78C75.55,-916.85 100.41,-303.4 227,-178 259.02,-146.28 309.42,-138.38 351.03,-138.22"/>
<polygon fill="#4a6fa5" stroke="#4a6fa5" points="351.14,-140.67 358.16,-138.27 351.17,-135.77 351.14,-140.67"/>
</g>
<!-- Node0x6386b00a7500 -->
<g id="node28" class="node">
<title>Node0x6386b00a7500</title>
<path fill="#f0f4ff" stroke="black" d="M474,-293C474,-293 373,-293 373,-293 367,-293 361,-287 361,-281 361,-281 361,-269 361,-269 361,-263 367,-257 373,-257 373,-257 474,-257 474,-257 480,-257 486,-263 486,-269 486,-269 486,-281 486,-281 486,-287 480,-293 474,-293"/>
<text text-anchor="middle" x="423.5" y="-272.8" font-family="Courier,monospace" font-size="9.00">{IsSpectralElement()}</text>
</g>
<!-- Node0x6386b0000c10&#45;&gt;Node0x6386b00a7500 -->
<g id="edge27" class="edge">
<title>Node0x6386b0000c10&#45;&gt;Node0x6386b00a7500</title>
<path fill="none" stroke="#4a6fa5" d="M72.61,-1030.86C79.34,-927.41 118.01,-412.75 227,-308 260.08,-276.21 311.71,-268.58 353.61,-268.56"/>
<polygon fill="#4a6fa5" stroke="#4a6fa5" points="353.75,-271.01 360.77,-268.63 353.8,-266.11 353.75,-271.01"/>
</g>
<!-- Node0x6386b00a7780 -->
<g id="node29" class="node">
<title>Node0x6386b00a7780</title>
<path fill="#f0f4ff" stroke="black" d="M529,-228C529,-228 318,-228 318,-228 312,-228 306,-222 306,-216 306,-216 306,-204 306,-204 306,-198 312,-192 318,-192 318,-192 529,-192 529,-192 535,-192 541,-198 541,-204 541,-204 541,-216 541,-216 541,-222 535,-228 529,-228"/>
<text text-anchor="middle" x="423.5" y="-207.8" font-family="Courier,monospace" font-size="9.00">{CIccTagMultiProcessElement::GetElement()}</text>
</g>
<!-- Node0x6386b0000c10&#45;&gt;Node0x6386b00a7780 -->
<g id="edge28" class="edge">
<title>Node0x6386b0000c10&#45;&gt;Node0x6386b00a7780</title>
<path fill="none" stroke="#4a6fa5" d="M72.29,-1030.73C77.39,-921.73 109.26,-358.02 227,-243 246.32,-224.12 272.18,-213.72 298.74,-208.36"/>
<polygon fill="#4a6fa5" stroke="#4a6fa5" points="299.43,-210.73 305.87,-207.05 298.54,-205.91 299.43,-210.73"/>
</g>
<!-- Node0x6386b00a7000 -->
<g id="node30" class="node">
<title>Node0x6386b00a7000</title>
<path fill="#f0f4ff" stroke="black" d="M531.5,-742C531.5,-742 315.5,-742 315.5,-742 309.5,-742 303.5,-736 303.5,-730 303.5,-730 303.5,-718 303.5,-718 303.5,-712 309.5,-706 315.5,-706 315.5,-706 531.5,-706 531.5,-706 537.5,-706 543.5,-712 543.5,-718 543.5,-718 543.5,-730 543.5,-730 543.5,-736 537.5,-742 531.5,-742"/>
<text text-anchor="middle" x="423.5" y="-721.8" font-family="Courier,monospace" font-size="9.00">{CIccTagMultiProcessElement::NumElements()}</text>
</g>
<!-- Node0x6386b0000c10&#45;&gt;Node0x6386b00a7000 -->
<g id="edge29" class="edge">
<title>Node0x6386b0000c10&#45;&gt;Node0x6386b00a7000</title>
<path fill="none" stroke="#4a6fa5" d="M75.28,-1030.93C87.19,-978.83 129.14,-827.51 227,-757 247.23,-742.42 271.67,-733.46 296.31,-728.09"/>
<polygon fill="#4a6fa5" stroke="#4a6fa5" points="296.89,-730.47 303.26,-726.67 295.91,-725.67 296.89,-730.47"/>
</g>
<!-- Node0x6386b00aa7e0&#45;&gt;Node0x6386b00a9660 -->
<g id="edge43" class="edge">
<title>Node0x6386b00aa7e0&#45;&gt;Node0x6386b00a9660</title>
<path fill="none" stroke="#4a6fa5" d="M564.78,-1253.32C647.76,-1258.84 749.5,-1265.6 817.07,-1270.09"/>
<polygon fill="#4a6fa5" stroke="#4a6fa5" points="817.18,-1272.55 824.32,-1270.57 817.5,-1267.66 817.18,-1272.55"/>
</g>
<!-- Node0x6386b00aed20 -->
<g id="node42" class="node">
<title>Node0x6386b00aed20</title>
<path fill="#f0f4ff" stroke="black" d="M1000,-869C1000,-869 784,-869 784,-869 778,-869 772,-863 772,-857 772,-857 772,-845 772,-845 772,-839 778,-833 784,-833 784,-833 1000,-833 1000,-833 1006,-833 1012,-839 1012,-845 1012,-845 1012,-857 1012,-857 1012,-863 1006,-869 1000,-869"/>
<text text-anchor="middle" x="892" y="-848.8" font-family="Courier,monospace" font-size="9.00">{std::_List_node&lt;IccTagEntry&gt;::_M_valptr()}</text>
</g>
<!-- Node0x6386b00a9a20&#45;&gt;Node0x6386b00aed20 -->
<g id="edge41" class="edge">
<title>Node0x6386b00a9a20&#45;&gt;Node0x6386b00aed20</title>
<path fill="none" stroke="#4a6fa5" d="M560.06,-807.02C624.56,-815.59 701.22,-825.78 764.51,-834.19"/>
<polygon fill="#4a6fa5" stroke="#4a6fa5" points="764.51,-836.66 771.77,-835.15 765.15,-831.8 764.51,-836.66"/>
</g>
<!-- Node0x6386b00aeaa0 -->
<g id="node43" class="node">
<title>Node0x6386b00aeaa0</title>
<path fill="#f0f4ff" stroke="black" d="M1848,-749C1848,-749 1731,-749 1731,-749 1725,-749 1719,-743 1719,-737 1719,-737 1719,-725 1719,-725 1719,-719 1725,-713 1731,-713 1731,-713 1848,-713 1848,-713 1854,-713 1860,-719 1860,-725 1860,-725 1860,-737 1860,-737 1860,-743 1854,-749 1848,-749"/>
<text text-anchor="middle" x="1789.5" y="-728.8" font-family="Courier,monospace" font-size="9.00">{__clang_call_terminate}</text>
</g>
<!-- Node0x6386b00a9a20&#45;&gt;Node0x6386b00aeaa0 -->
<g id="edge42" class="edge">
<title>Node0x6386b00a9a20&#45;&gt;Node0x6386b00aeaa0</title>
<path fill="none" stroke="#4a6fa5" d="M570.22,-785.39C782.69,-779.76 1189.89,-767.56 1536,-749 1594.98,-745.84 1661.62,-741.03 1711.62,-737.19"/>
<polygon fill="#4a6fa5" stroke="#4a6fa5" points="1712.09,-739.61 1718.88,-736.62 1711.71,-734.72 1712.09,-739.61"/>
</g>
<!-- Node0x6386b00aca20 -->
<g id="node41" class="node">
<title>Node0x6386b00aca20</title>
<path fill="#f0f4ff" stroke="black" d="M1024,-1098C1024,-1098 760,-1098 760,-1098 754,-1098 748,-1092 748,-1086 748,-1086 748,-1074 748,-1074 748,-1068 754,-1062 760,-1062 760,-1062 1024,-1062 1024,-1062 1030,-1062 1036,-1068 1036,-1074 1036,-1074 1036,-1086 1036,-1086 1036,-1092 1030,-1098 1024,-1098"/>
<text text-anchor="middle" x="892" y="-1077.8" font-family="Courier,monospace" font-size="9.00">{std::_List_iterator&lt;IccTagEntry&gt;::_List_iterator()}</text>
</g>
<!-- Node0x6386b00a93e0&#45;&gt;Node0x6386b00aca20 -->
<g id="edge40" class="edge">
<title>Node0x6386b00a93e0&#45;&gt;Node0x6386b00aca20</title>
<path fill="none" stroke="#4a6fa5" d="M515.3,-1165.69C548.36,-1160.43 585.97,-1153.98 620,-1147 687.38,-1133.18 763.35,-1114.09 817.67,-1099.82"/>
<polygon fill="#4a6fa5" stroke="#4a6fa5" points="818.37,-1102.17 824.52,-1098.02 817.12,-1097.43 818.37,-1102.17"/>
</g>
<!-- Node0x6386b00ab9e0 -->
<g id="node32" class="node">
<title>Node0x6386b00ab9e0</title>
<path fill="#f0f4ff" stroke="black" d="M1034.5,-618C1034.5,-618 749.5,-618 749.5,-618 743.5,-618 737.5,-612 737.5,-606 737.5,-606 737.5,-594 737.5,-594 737.5,-588 743.5,-582 749.5,-582 749.5,-582 1034.5,-582 1034.5,-582 1040.5,-582 1046.5,-588 1046.5,-594 1046.5,-594 1046.5,-606 1046.5,-606 1046.5,-612 1040.5,-618 1034.5,-618"/>
<text text-anchor="middle" x="892" y="-597.8" font-family="Courier,monospace" font-size="9.00">{basic_string&lt;char, std::char_traits &gt;::_M_local_data()}</text>
</g>
<!-- Node0x6386b00a54a0&#45;&gt;Node0x6386b00ab9e0 -->
<g id="edge30" class="edge">
<title>Node0x6386b00a54a0&#45;&gt;Node0x6386b00ab9e0</title>
<path fill="none" stroke="#4a6fa5" d="M557.02,-412.26C579.24,-417.6 601.17,-425.75 620,-438 678.07,-475.78 648.01,-530.1 706,-568 713.72,-573.04 721.99,-577.36 730.6,-581.06"/>
<polygon fill="#4a6fa5" stroke="#4a6fa5" points="729.84,-583.39 737.24,-583.76 731.68,-578.86 729.84,-583.39"/>
</g>
<!-- Node0x6386b00ac520 -->
<g id="node33" class="node">
<title>Node0x6386b00ac520</title>
<path fill="#f0f4ff" stroke="black" d="M1005.5,-488C1005.5,-488 778.5,-488 778.5,-488 772.5,-488 766.5,-482 766.5,-476 766.5,-476 766.5,-464 766.5,-464 766.5,-458 772.5,-452 778.5,-452 778.5,-452 1005.5,-452 1005.5,-452 1011.5,-452 1017.5,-458 1017.5,-464 1017.5,-464 1017.5,-476 1017.5,-476 1017.5,-482 1011.5,-488 1005.5,-488"/>
<text text-anchor="middle" x="892" y="-467.8" font-family="Courier,monospace" font-size="9.00">{char_traits &gt;::_Alloc_hider::_Alloc_hider()}</text>
</g>
<!-- Node0x6386b00a54a0&#45;&gt;Node0x6386b00ac520 -->
<g id="edge31" class="edge">
<title>Node0x6386b00a54a0&#45;&gt;Node0x6386b00ac520</title>
<path fill="none" stroke="#4a6fa5" d="M553.83,-423.02C617.83,-431.94 694.95,-442.68 759.27,-451.65"/>
<polygon fill="#4a6fa5" stroke="#4a6fa5" points="758.98,-454.08 766.25,-452.62 759.66,-449.23 758.98,-454.08"/>
</g>
<!-- Node0x6386b00ac3e0 -->
<g id="node34" class="node">
<title>Node0x6386b00ac3e0</title>
<path fill="#f0f4ff" stroke="black" d="M961,-423C961,-423 823,-423 823,-423 817,-423 811,-417 811,-411 811,-411 811,-399 811,-399 811,-393 817,-387 823,-387 823,-387 961,-387 961,-387 967,-387 973,-393 973,-399 973,-399 973,-411 973,-411 973,-417 967,-423 961,-423"/>
<text text-anchor="middle" x="892" y="-402.8" font-family="Courier,monospace" font-size="9.00">{std::__throw_logic_error()}</text>
</g>
<!-- Node0x6386b00a54a0&#45;&gt;Node0x6386b00ac3e0 -->
<g id="edge32" class="edge">
<title>Node0x6386b00a54a0&#45;&gt;Node0x6386b00ac3e0</title>
<path fill="none" stroke="#4a6fa5" d="M557.24,-405C636.27,-405 734.34,-405 803.66,-405"/>
<polygon fill="#4a6fa5" stroke="#4a6fa5" points="803.7,-407.45 810.7,-405 803.7,-402.55 803.7,-407.45"/>
</g>
<!-- Node0x6386b00abee0 -->
<g id="node35" class="node">
<title>Node0x6386b00abee0</title>
<path fill="#f0f4ff" stroke="black" d="M1008,-553C1008,-553 776,-553 776,-553 770,-553 764,-547 764,-541 764,-541 764,-529 764,-529 764,-523 770,-517 776,-517 776,-517 1008,-517 1008,-517 1014,-517 1020,-523 1020,-529 1020,-529 1020,-541 1020,-541 1020,-547 1014,-553 1008,-553"/>
<text text-anchor="middle" x="892" y="-532.8" font-family="Courier,monospace" font-size="9.00">{char_traits &gt;::_Alloc_hider::~_Alloc_hider()}</text>
</g>
<!-- Node0x6386b00a54a0&#45;&gt;Node0x6386b00abee0 -->
<g id="edge33" class="edge">
<title>Node0x6386b00a54a0&#45;&gt;Node0x6386b00abee0</title>
<path fill="none" stroke="#4a6fa5" d="M557.13,-418.51C578.66,-423.2 600.33,-429.51 620,-438 663.99,-456.98 662.05,-483.94 706,-503 721.97,-509.93 739.33,-515.36 756.8,-519.61"/>
<polygon fill="#4a6fa5" stroke="#4a6fa5" points="756.39,-522.03 763.77,-521.25 757.51,-517.26 756.39,-522.03"/>
</g>
<!-- Node0x6386b00abb20 -->
<g id="node36" class="node">
<title>Node0x6386b00abb20</title>
<path fill="#f0f4ff" stroke="black" d="M976.5,-293C976.5,-293 807.5,-293 807.5,-293 801.5,-293 795.5,-287 795.5,-281 795.5,-281 795.5,-269 795.5,-269 795.5,-263 801.5,-257 807.5,-257 807.5,-257 976.5,-257 976.5,-257 982.5,-257 988.5,-263 988.5,-269 988.5,-269 988.5,-281 988.5,-281 988.5,-287 982.5,-293 976.5,-293"/>
<text text-anchor="middle" x="892" y="-272.8" font-family="Courier,monospace" font-size="9.00">{std::char_traits&lt;char&gt;::length()}</text>
</g>
<!-- Node0x6386b00a54a0&#45;&gt;Node0x6386b00abb20 -->
<g id="edge34" class="edge">
<title>Node0x6386b00a54a0&#45;&gt;Node0x6386b00abb20</title>
<path fill="none" stroke="#4a6fa5" d="M557.13,-392.24C578.65,-387.65 600.32,-381.43 620,-373 664.04,-354.13 662.1,-327.18 706,-308 731.63,-296.8 760.84,-289.4 788.37,-284.52"/>
<polygon fill="#4a6fa5" stroke="#4a6fa5" points="788.84,-286.92 795.32,-283.33 788.01,-282.09 788.84,-286.92"/>
</g>
<!-- Node0x6386b00ad7e0 -->
<g id="node37" class="node">
<title>Node0x6386b00ad7e0</title>
<path fill="#f0f4ff" stroke="black" d="M1066,-358C1066,-358 718,-358 718,-358 712,-358 706,-352 706,-346 706,-346 706,-334 706,-334 706,-328 712,-322 718,-322 718,-322 1066,-322 1066,-322 1072,-322 1078,-328 1078,-334 1078,-334 1078,-346 1078,-346 1078,-352 1072,-358 1066,-358"/>
<text text-anchor="middle" x="892" y="-337.8" font-family="Courier,monospace" font-size="9.00">{basic_string&lt;char, std::char_traits &gt;::_M_construct&lt;char const*&gt;()}</text>
</g>
<!-- Node0x6386b00a54a0&#45;&gt;Node0x6386b00ad7e0 -->
<g id="edge35" class="edge">
<title>Node0x6386b00a54a0&#45;&gt;Node0x6386b00ad7e0</title>
<path fill="none" stroke="#4a6fa5" d="M553.83,-386.98C616.14,-378.3 690.89,-367.88 754.16,-359.07"/>
<polygon fill="#4a6fa5" stroke="#4a6fa5" points="754.83,-361.45 761.42,-358.05 754.15,-356.59 754.83,-361.45"/>
</g>
<!-- Node0x6386b00a8ee0&#45;&gt;Node0x6386b00aca20 -->
<g id="edge39" class="edge">
<title>Node0x6386b00a8ee0&#45;&gt;Node0x6386b00aca20</title>
<path fill="none" stroke="#4a6fa5" d="M520.2,-929.8C552.36,-934.84 588.14,-942 620,-952 707.36,-979.43 802.67,-1029.63 853.72,-1058.34"/>
<polygon fill="#4a6fa5" stroke="#4a6fa5" points="852.72,-1060.59 860.02,-1061.9 855.13,-1056.32 852.72,-1060.59"/>
</g>
<!-- Node0x6386b00acb60 -->
<g id="node40" class="node">
<title>Node0x6386b00acb60</title>
<path fill="#f0f4ff" stroke="black" d="M971.5,-228C971.5,-228 812.5,-228 812.5,-228 806.5,-228 800.5,-222 800.5,-216 800.5,-216 800.5,-204 800.5,-204 800.5,-198 806.5,-192 812.5,-192 812.5,-192 971.5,-192 971.5,-192 977.5,-192 983.5,-198 983.5,-204 983.5,-204 983.5,-216 983.5,-216 983.5,-222 977.5,-228 971.5,-228"/>
<text text-anchor="middle" x="892" y="-207.8" font-family="Courier,monospace" font-size="9.00">{CIccMpeSpectralCLUT::GetCLUT()}</text>
</g>
<!-- Node0x6386b00a8c60&#45;&gt;Node0x6386b00acb60 -->
<g id="edge38" class="edge">
<title>Node0x6386b00a8c60&#45;&gt;Node0x6386b00acb60</title>
<path fill="none" stroke="#4a6fa5" d="M483.88,-337.71C523.74,-334.41 576.69,-326.55 620,-308 664.04,-289.13 662.1,-262.18 706,-243 733.01,-231.2 764,-223.62 792.79,-218.75"/>
<polygon fill="#4a6fa5" stroke="#4a6fa5" points="793.54,-221.11 800.06,-217.57 792.76,-216.27 793.54,-221.11"/>
</g>
<!-- Node0x6386b00acde0 -->
<g id="node39" class="node">
<title>Node0x6386b00acde0</title>
<path fill="#f0f4ff" stroke="black" d="M979,-163C979,-163 805,-163 805,-163 799,-163 793,-157 793,-151 793,-151 793,-139 793,-139 793,-133 799,-127 805,-127 805,-127 979,-127 979,-127 985,-127 991,-133 991,-139 991,-139 991,-151 991,-151 991,-157 985,-163 979,-163"/>
<text text-anchor="middle" x="892" y="-142.8" font-family="Courier,monospace" font-size="9.00">{CIccMpeSpectralMatrix::GetRange()}</text>
</g>
<!-- Node0x6386b00a7280&#45;&gt;Node0x6386b00acde0 -->
<g id="edge37" class="edge">
<title>Node0x6386b00a7280&#45;&gt;Node0x6386b00acde0</title>
<path fill="none" stroke="#4a6fa5" d="M488.88,-145C565.49,-145 694.49,-145 785.7,-145"/>
<polygon fill="#4a6fa5" stroke="#4a6fa5" points="785.75,-147.45 792.75,-145 785.75,-142.55 785.75,-147.45"/>
</g>
<!-- Node0x6386b00ad420 -->
<g id="node38" class="node">
<title>Node0x6386b00ad420</title>
<path fill="#f0f4ff" stroke="black" d="M1013.5,-742C1013.5,-742 770.5,-742 770.5,-742 764.5,-742 758.5,-736 758.5,-730 758.5,-730 758.5,-718 758.5,-718 758.5,-712 764.5,-706 770.5,-706 770.5,-706 1013.5,-706 1013.5,-706 1019.5,-706 1025.5,-712 1025.5,-718 1025.5,-718 1025.5,-730 1025.5,-730 1025.5,-736 1019.5,-742 1013.5,-742"/>
<text text-anchor="middle" x="892" y="-721.8" font-family="Courier,monospace" font-size="9.00">{std::list&lt;CIccMultiProcessElementPtr &gt;::size()}</text>
</g>
<!-- Node0x6386b00a7000&#45;&gt;Node0x6386b00ad420 -->
<g id="edge36" class="edge">
<title>Node0x6386b00a7000&#45;&gt;Node0x6386b00ad420</title>
<path fill="none" stroke="#4a6fa5" d="M543.73,-724C607.02,-724 685.17,-724 751.29,-724"/>
<polygon fill="#4a6fa5" stroke="#4a6fa5" points="751.47,-726.45 758.47,-724 751.47,-721.55 751.47,-726.45"/>
</g>
<!-- Node0x6386b00aa060 -->
<g id="node31" class="node">
<title>Node0x6386b00aa060</title>
<path fill="#f0f4ff" stroke="black" d="M123.5,-7766C123.5,-7766 17.5,-7766 17.5,-7766 11.5,-7766 5.5,-7760 5.5,-7754 5.5,-7754 5.5,-7742 5.5,-7742 5.5,-7736 11.5,-7730 17.5,-7730 17.5,-7730 123.5,-7730 123.5,-7730 129.5,-7730 135.5,-7736 135.5,-7742 135.5,-7742 135.5,-7754 135.5,-7754 135.5,-7760 129.5,-7766 123.5,-7766"/>
<text text-anchor="middle" x="70.5" y="-7745.8" font-family="Courier,monospace" font-size="9.00">{__gxx_personality_v0}</text>
</g>
<!-- Node0x6386b00abee0&#45;&gt;Node0x6386b00a5070 -->
<g id="edge58" class="edge">
<title>Node0x6386b00abee0&#45;&gt;Node0x6386b00a5070</title>
<path fill="none" stroke="#4a6fa5" d="M1014,-553.04C1077.9,-562.57 1156.3,-574.26 1221.19,-583.94"/>
<polygon fill="#4a6fa5" stroke="#4a6fa5" points="1220.94,-586.38 1228.22,-584.99 1221.66,-581.53 1220.94,-586.38"/>
</g>
<!-- Node0x6386b00af060 -->
<g id="node48" class="node">
<title>Node0x6386b00af060</title>
<path fill="#f0f4ff" stroke="black" d="M1366.5,-36C1366.5,-36 1333.5,-36 1333.5,-36 1327.5,-36 1321.5,-30 1321.5,-24 1321.5,-24 1321.5,-12 1321.5,-12 1321.5,-6 1327.5,0 1333.5,0 1333.5,0 1366.5,0 1366.5,0 1372.5,0 1378.5,-6 1378.5,-12 1378.5,-12 1378.5,-24 1378.5,-24 1378.5,-30 1372.5,-36 1366.5,-36"/>
<text text-anchor="middle" x="1350" y="-15.8" font-family="Courier,monospace" font-size="9.00">{strlen}</text>
</g>
<!-- Node0x6386b00abb20&#45;&gt;Node0x6386b00af060 -->
<g id="edge49" class="edge">
<title>Node0x6386b00abb20&#45;&gt;Node0x6386b00af060</title>
<path fill="none" stroke="#4a6fa5" d="M988.6,-275.87C1019.75,-271.88 1052.77,-262.6 1078,-243 1151.84,-185.64 1090.31,-108.56 1164,-51 1207.33,-17.16 1273.77,-13.57 1314.13,-15.07"/>
<polygon fill="#4a6fa5" stroke="#4a6fa5" points="1314.24,-17.53 1321.35,-15.4 1314.47,-12.63 1314.24,-17.53"/>
</g>
<!-- Node0x6386b00af2e0 -->
<g id="node49" class="node">
<title>Node0x6386b00af2e0</title>
<path fill="#f0f4ff" stroke="black" d="M1482,-426C1482,-426 1218,-426 1218,-426 1212,-426 1206,-420 1206,-414 1206,-414 1206,-402 1206,-402 1206,-396 1212,-390 1218,-390 1218,-390 1482,-390 1482,-390 1488,-390 1494,-396 1494,-402 1494,-402 1494,-414 1494,-414 1494,-420 1488,-426 1482,-426"/>
<text text-anchor="middle" x="1350" y="-405.8" font-family="Courier,monospace" font-size="9.00">{basic_string&lt;char, std::char_traits &gt;::_M_create()}</text>
</g>
<!-- Node0x6386b00ad7e0&#45;&gt;Node0x6386b00af2e0 -->
<g id="edge50" class="edge">
<title>Node0x6386b00ad7e0&#45;&gt;Node0x6386b00af2e0</title>
<path fill="none" stroke="#4a6fa5" d="M1014,-358.04C1077.9,-367.57 1156.3,-379.26 1221.19,-388.94"/>
<polygon fill="#4a6fa5" stroke="#4a6fa5" points="1220.94,-391.38 1228.22,-389.99 1221.66,-386.53 1220.94,-391.38"/>
</g>
<!-- Node0x6386b00af560 -->
<g id="node50" class="node">
<title>Node0x6386b00af560</title>
<path fill="#f0f4ff" stroke="black" d="M1476.5,-361C1476.5,-361 1223.5,-361 1223.5,-361 1217.5,-361 1211.5,-355 1211.5,-349 1211.5,-349 1211.5,-337 1211.5,-337 1211.5,-331 1217.5,-325 1223.5,-325 1223.5,-325 1476.5,-325 1476.5,-325 1482.5,-325 1488.5,-331 1488.5,-337 1488.5,-337 1488.5,-349 1488.5,-349 1488.5,-355 1482.5,-361 1476.5,-361"/>
<text text-anchor="middle" x="1350" y="-340.8" font-family="Courier,monospace" font-size="9.00">{basic_string&lt;char, std::char_traits &gt;::_M_data()}</text>
</g>
<!-- Node0x6386b00ad7e0&#45;&gt;Node0x6386b00af560 -->
<g id="edge51" class="edge">
<title>Node0x6386b00ad7e0&#45;&gt;Node0x6386b00af560</title>
<path fill="none" stroke="#4a6fa5" d="M1078.14,-341.22C1120.07,-341.49 1164,-341.78 1203.99,-342.05"/>
<polygon fill="#4a6fa5" stroke="#4a6fa5" points="1204.39,-344.5 1211.4,-342.09 1204.42,-339.6 1204.39,-344.5"/>
</g>
<!-- Node0x6386b00afc20 -->
<g id="node51" class="node">
<title>Node0x6386b00afc20</title>
<path fill="#f0f4ff" stroke="black" d="M1487,-296C1487,-296 1213,-296 1213,-296 1207,-296 1201,-290 1201,-284 1201,-284 1201,-272 1201,-272 1201,-266 1207,-260 1213,-260 1213,-260 1487,-260 1487,-260 1493,-260 1499,-266 1499,-272 1499,-272 1499,-284 1499,-284 1499,-290 1493,-296 1487,-296"/>
<text text-anchor="middle" x="1350" y="-275.8" font-family="Courier,monospace" font-size="9.00">{basic_string&lt;char, std::char_traits &gt;::_M_capacity()}</text>
</g>
<!-- Node0x6386b00ad7e0&#45;&gt;Node0x6386b00afc20 -->
<g id="edge52" class="edge">
<title>Node0x6386b00ad7e0&#45;&gt;Node0x6386b00afc20</title>
<path fill="none" stroke="#4a6fa5" d="M1025.51,-321.98C1083.25,-314.13 1150.96,-304.93 1209.47,-296.97"/>
<polygon fill="#4a6fa5" stroke="#4a6fa5" points="1209.95,-299.38 1216.56,-296.01 1209.29,-294.52 1209.95,-299.38"/>
</g>
<!-- Node0x6386b00a8460 -->
<g id="node52" class="node">
<title>Node0x6386b00a8460</title>
<path fill="#f0f4ff" stroke="black" d="M1524,-231C1524,-231 1176,-231 1176,-231 1170,-231 1164,-225 1164,-219 1164,-219 1164,-207 1164,-207 1164,-201 1170,-195 1176,-195 1176,-195 1524,-195 1524,-195 1530,-195 1536,-201 1536,-207 1536,-207 1536,-219 1536,-219 1536,-225 1530,-231 1524,-231"/>
<text text-anchor="middle" x="1350" y="-210.8" font-family="Courier,monospace" font-size="9.00">{basic_string&lt;char, std::char_traits &gt;::_M_construct&lt;char const*&gt;()}</text>
</g>
<!-- Node0x6386b00ad7e0&#45;&gt;Node0x6386b00a8460 -->
<g id="edge53" class="edge">
<title>Node0x6386b00ad7e0&#45;&gt;Node0x6386b00a8460</title>
<path fill="none" stroke="#4a6fa5" d="M1036.28,-321.95C1050.64,-318.15 1064.78,-313.56 1078,-308 1121.44,-289.74 1120.61,-264.37 1164,-246 1176.02,-240.91 1188.81,-236.6 1201.83,-232.96"/>
<polygon fill="#4a6fa5" stroke="#4a6fa5" points="1202.53,-235.31 1208.65,-231.12 1201.25,-230.58 1202.53,-235.31"/>
</g>
<!-- Node0x6386b00a86e0 -->
<g id="node53" class="node">
<title>Node0x6386b00a86e0</title>
<path fill="#f0f4ff" stroke="black" d="M1476.5,-101C1476.5,-101 1223.5,-101 1223.5,-101 1217.5,-101 1211.5,-95 1211.5,-89 1211.5,-89 1211.5,-77 1211.5,-77 1211.5,-71 1217.5,-65 1223.5,-65 1223.5,-65 1476.5,-65 1476.5,-65 1482.5,-65 1488.5,-71 1488.5,-77 1488.5,-77 1488.5,-89 1488.5,-89 1488.5,-95 1482.5,-101 1476.5,-101"/>
<text text-anchor="middle" x="1350" y="-80.8" font-family="Courier,monospace" font-size="9.00">{basic_string&lt;char, std::char_traits &gt;::_M_data()}</text>
</g>
<!-- Node0x6386b00ad7e0&#45;&gt;Node0x6386b00a86e0 -->
<g id="edge54" class="edge">
<title>Node0x6386b00ad7e0&#45;&gt;Node0x6386b00a86e0</title>
<path fill="none" stroke="#4a6fa5" d="M1055.58,-321.95C1063.51,-318.02 1071.05,-313.4 1078,-308 1151.84,-250.64 1090.31,-173.56 1164,-116 1176.04,-106.6 1189.87,-99.53 1204.42,-94.26"/>
<polygon fill="#4a6fa5" stroke="#4a6fa5" points="1205.32,-96.54 1211.16,-91.96 1203.74,-91.9 1205.32,-96.54"/>
</g>
<!-- Node0x6386b00a8960 -->
<g id="node54" class="node">
<title>Node0x6386b00a8960</title>
<path fill="#f0f4ff" stroke="black" d="M1492.5,-556C1492.5,-556 1207.5,-556 1207.5,-556 1201.5,-556 1195.5,-550 1195.5,-544 1195.5,-544 1195.5,-532 1195.5,-532 1195.5,-526 1201.5,-520 1207.5,-520 1207.5,-520 1492.5,-520 1492.5,-520 1498.5,-520 1504.5,-526 1504.5,-532 1504.5,-532 1504.5,-544 1504.5,-544 1504.5,-550 1498.5,-556 1492.5,-556"/>
<text text-anchor="middle" x="1350" y="-535.8" font-family="Courier,monospace" font-size="9.00">{basic_string&lt;char, std::char_traits &gt;::_S_copy_chars()}</text>
</g>
<!-- Node0x6386b00ad7e0&#45;&gt;Node0x6386b00a8960 -->
<g id="edge55" class="edge">
<title>Node0x6386b00ad7e0&#45;&gt;Node0x6386b00a8960</title>
<path fill="none" stroke="#4a6fa5" d="M1049.62,-358.12C1059.6,-362.22 1069.17,-367.13 1078,-373 1136.62,-411.97 1105.28,-467.19 1164,-506 1171.69,-511.08 1179.94,-515.44 1188.54,-519.15"/>
<polygon fill="#4a6fa5" stroke="#4a6fa5" points="1187.76,-521.49 1195.17,-521.88 1189.62,-516.95 1187.76,-521.49"/>
</g>
<!-- Node0x6386b00a7980 -->
<g id="node55" class="node">
<title>Node0x6386b00a7980</title>
<path fill="#f0f4ff" stroke="black" d="M1492.5,-491C1492.5,-491 1207.5,-491 1207.5,-491 1201.5,-491 1195.5,-485 1195.5,-479 1195.5,-479 1195.5,-467 1195.5,-467 1195.5,-461 1201.5,-455 1207.5,-455 1207.5,-455 1492.5,-455 1492.5,-455 1498.5,-455 1504.5,-461 1504.5,-467 1504.5,-467 1504.5,-479 1504.5,-479 1504.5,-485 1498.5,-491 1492.5,-491"/>
<text text-anchor="middle" x="1350" y="-470.8" font-family="Courier,monospace" font-size="9.00">{basic_string&lt;char, std::char_traits &gt;::_M_set_length()}</text>
</g>
<!-- Node0x6386b00ad7e0&#45;&gt;Node0x6386b00a7980 -->
<g id="edge56" class="edge">
<title>Node0x6386b00ad7e0&#45;&gt;Node0x6386b00a7980</title>
<path fill="none" stroke="#4a6fa5" d="M1035.57,-358.02C1050.21,-362.05 1064.61,-366.98 1078,-373 1122.44,-392.99 1119.51,-421.12 1164,-441 1174.23,-445.57 1185.04,-449.49 1196.1,-452.85"/>
<polygon fill="#4a6fa5" stroke="#4a6fa5" points="1195.61,-455.26 1203.02,-454.87 1196.99,-450.56 1195.61,-455.26"/>
</g>
<!-- Node0x6386b00af7e0 -->
<g id="node56" class="node">
<title>Node0x6386b00af7e0</title>
<path fill="#f0f4ff" stroke="black" d="M1524,-166C1524,-166 1176,-166 1176,-166 1170,-166 1164,-160 1164,-154 1164,-154 1164,-142 1164,-142 1164,-136 1170,-130 1176,-130 1176,-130 1524,-130 1524,-130 1530,-130 1536,-136 1536,-142 1536,-142 1536,-154 1536,-154 1536,-160 1530,-166 1524,-166"/>
<text text-anchor="middle" x="1350" y="-145.8" font-family="Courier,monospace" font-size="9.00">{basic_string&lt;char, std::char_traits &gt;::_M_construct&lt;char const*&gt;()}</text>
</g>
<!-- Node0x6386b00ad7e0&#45;&gt;Node0x6386b00af7e0 -->
<g id="edge57" class="edge">
<title>Node0x6386b00ad7e0&#45;&gt;Node0x6386b00af7e0</title>
<path fill="none" stroke="#4a6fa5" d="M1050.85,-322C1060.37,-318.11 1069.51,-313.48 1078,-308 1135.26,-271.02 1106.83,-218.13 1164,-181 1171.05,-176.42 1178.56,-172.42 1186.36,-168.95"/>
<polygon fill="#4a6fa5" stroke="#4a6fa5" points="1187.49,-171.13 1192.98,-166.15 1185.58,-166.62 1187.49,-171.13"/>
</g>
<!-- Node0x6386b00ad420&#45;&gt;Node0x6386b00aeaa0 -->
<g id="edge45" class="edge">
<title>Node0x6386b00ad420&#45;&gt;Node0x6386b00aeaa0</title>
<path fill="none" stroke="#4a6fa5" d="M1025.62,-725.04C1215.52,-726.52 1558.85,-729.2 1711.61,-730.4"/>
<polygon fill="#4a6fa5" stroke="#4a6fa5" points="1711.72,-732.85 1718.74,-730.45 1711.76,-727.95 1711.72,-732.85"/>
</g>
<!-- Node0x6386b00ae820 -->
<g id="node44" class="node">
<title>Node0x6386b00ae820</title>
<path fill="#f0f4ff" stroke="black" d="M1495,-686C1495,-686 1205,-686 1205,-686 1199,-686 1193,-680 1193,-674 1193,-674 1193,-662 1193,-662 1193,-656 1199,-650 1205,-650 1205,-650 1495,-650 1495,-650 1501,-650 1507,-656 1507,-662 1507,-662 1507,-674 1507,-674 1507,-680 1501,-686 1495,-686"/>
<text text-anchor="middle" x="1350" y="-665.8" font-family="Courier,monospace" font-size="9.00">{std::list&lt;CIccMultiProcessElementPtr &gt;::_M_node_count()}</text>
</g>
<!-- Node0x6386b00ad420&#45;&gt;Node0x6386b00ae820 -->
<g id="edge44" class="edge">
<title>Node0x6386b00ad420&#45;&gt;Node0x6386b00ae820</title>
<path fill="none" stroke="#4a6fa5" d="M1025.51,-707.73C1078.59,-701.21 1140.1,-693.65 1195.14,-686.89"/>
<polygon fill="#4a6fa5" stroke="#4a6fa5" points="1195.52,-689.32 1202.17,-686.03 1194.92,-684.45 1195.52,-689.32"/>
</g>
<!-- Node0x6386b00aa3a0 -->
<g id="node58" class="node">
<title>Node0x6386b00aa3a0</title>
<path fill="#f0f4ff" stroke="black" d="M1482,-869C1482,-869 1218,-869 1218,-869 1212,-869 1206,-863 1206,-857 1206,-857 1206,-845 1206,-845 1206,-839 1212,-833 1218,-833 1218,-833 1482,-833 1482,-833 1488,-833 1494,-839 1494,-845 1494,-845 1494,-857 1494,-857 1494,-863 1488,-869 1482,-869"/>
<text text-anchor="middle" x="1350" y="-848.8" font-family="Courier,monospace" font-size="9.00">{__gnu_cxx::__aligned_membuf&lt;IccTagEntry&gt;::_M_ptr()}</text>
</g>
<!-- Node0x6386b00aed20&#45;&gt;Node0x6386b00aa3a0 -->
<g id="edge61" class="edge">
<title>Node0x6386b00aed20&#45;&gt;Node0x6386b00aa3a0</title>
<path fill="none" stroke="#4a6fa5" d="M1012.21,-851C1069.14,-851 1137.89,-851 1198.39,-851"/>
<polygon fill="#4a6fa5" stroke="#4a6fa5" points="1198.72,-853.45 1205.72,-851 1198.72,-848.55 1198.72,-853.45"/>
</g>
<!-- Node0x6386b00ae320 -->
<g id="node46" class="node">
<title>Node0x6386b00ae320</title>
<path fill="#f0f4ff" stroke="black" d="M2145,-781C2145,-781 2055,-781 2055,-781 2049,-781 2043,-775 2043,-769 2043,-769 2043,-757 2043,-757 2043,-751 2049,-745 2055,-745 2055,-745 2145,-745 2145,-745 2151,-745 2157,-751 2157,-757 2157,-757 2157,-769 2157,-769 2157,-775 2151,-781 2145,-781"/>
<text text-anchor="middle" x="2100" y="-760.8" font-family="Courier,monospace" font-size="9.00">{__cxa_begin_catch}</text>
</g>
<!-- Node0x6386b00aeaa0&#45;&gt;Node0x6386b00ae320 -->
<g id="edge47" class="edge">
<title>Node0x6386b00aeaa0&#45;&gt;Node0x6386b00ae320</title>
<path fill="none" stroke="#4a6fa5" d="M1860.12,-738.22C1912.73,-743.68 1984.38,-751.11 2035.45,-756.41"/>
<polygon fill="#4a6fa5" stroke="#4a6fa5" points="2035.3,-758.86 2042.52,-757.14 2035.81,-753.98 2035.3,-758.86"/>
</g>
<!-- Node0x6386b00ae020 -->
<g id="node47" class="node">
<title>Node0x6386b00ae020</title>
<path fill="#f0f4ff" stroke="black" d="M2142.5,-716C2142.5,-716 2057.5,-716 2057.5,-716 2051.5,-716 2045.5,-710 2045.5,-704 2045.5,-704 2045.5,-692 2045.5,-692 2045.5,-686 2051.5,-680 2057.5,-680 2057.5,-680 2142.5,-680 2142.5,-680 2148.5,-680 2154.5,-686 2154.5,-692 2154.5,-692 2154.5,-704 2154.5,-704 2154.5,-710 2148.5,-716 2142.5,-716"/>
<text text-anchor="middle" x="2100" y="-695.8" font-family="Courier,monospace" font-size="9.00">{std::terminate()}</text>
</g>
<!-- Node0x6386b00aeaa0&#45;&gt;Node0x6386b00ae020 -->
<g id="edge48" class="edge">
<title>Node0x6386b00aeaa0&#45;&gt;Node0x6386b00ae020</title>
<path fill="none" stroke="#4a6fa5" d="M1860.12,-723.55C1913.75,-717.82 1987.16,-709.96 2038.39,-704.48"/>
<polygon fill="#4a6fa5" stroke="#4a6fa5" points="2038.77,-706.91 2045.47,-703.73 2038.25,-702.03 2038.77,-706.91"/>
</g>
<!-- Node0x6386b00ae6e0 -->
<g id="node45" class="node">
<title>Node0x6386b00ae6e0</title>
<path fill="#f0f4ff" stroke="black" d="M1945,-684C1945,-684 1634,-684 1634,-684 1628,-684 1622,-678 1622,-672 1622,-672 1622,-660 1622,-660 1622,-654 1628,-648 1634,-648 1634,-648 1945,-648 1945,-648 1951,-648 1957,-654 1957,-660 1957,-660 1957,-672 1957,-672 1957,-678 1951,-684 1945,-684"/>
<text text-anchor="middle" x="1789.5" y="-663.8" font-family="Courier,monospace" font-size="9.00">{std::_List_base&lt;CIccMultiProcessElementPtr &gt;::_M_get_size()}</text>
</g>
<!-- Node0x6386b00ae820&#45;&gt;Node0x6386b00ae6e0 -->
<g id="edge46" class="edge">
<title>Node0x6386b00ae820&#45;&gt;Node0x6386b00ae6e0</title>
<path fill="none" stroke="#4a6fa5" d="M1507.09,-667.29C1541.95,-667.13 1579.12,-666.96 1614.64,-666.79"/>
<polygon fill="#4a6fa5" stroke="#4a6fa5" points="1614.73,-669.24 1621.72,-666.76 1614.71,-664.34 1614.73,-669.24"/>
</g>
<!-- Node0x6386b00af7e0&#45;&gt;Node0x6386b00aeaa0 -->
<g id="edge60" class="edge">
<title>Node0x6386b00af7e0&#45;&gt;Node0x6386b00aeaa0</title>
<path fill="none" stroke="#4a6fa5" d="M1517.46,-166.2C1524.14,-170.41 1530.38,-175.31 1536,-181 1700.03,-347.01 1459.09,-531.9 1622,-699 1645.02,-722.61 1679.78,-731.69 1711.59,-734.42"/>
<polygon fill="#4a6fa5" stroke="#4a6fa5" points="1711.59,-736.88 1718.75,-734.94 1711.95,-731.99 1711.59,-736.88"/>
</g>
<!-- Node0x6386b00a9d60 -->
<g id="node57" class="node">
<title>Node0x6386b00a9d60</title>
<path fill="#f0f4ff" stroke="black" d="M1924,-166C1924,-166 1655,-166 1655,-166 1649,-166 1643,-160 1643,-154 1643,-154 1643,-142 1643,-142 1643,-136 1649,-130 1655,-130 1655,-130 1924,-130 1924,-130 1930,-130 1936,-136 1936,-142 1936,-142 1936,-154 1936,-154 1936,-160 1930,-166 1924,-166"/>
<text text-anchor="middle" x="1789.5" y="-145.8" font-family="Courier,monospace" font-size="9.00">{basic_string&lt;char, std::char_traits &gt;::_M_dispose()}</text>
</g>
<!-- Node0x6386b00af7e0&#45;&gt;Node0x6386b00a9d60 -->
<g id="edge59" class="edge">
<title>Node0x6386b00af7e0&#45;&gt;Node0x6386b00a9d60</title>
<path fill="none" stroke="#4a6fa5" d="M1536.22,-148C1569.37,-148 1603.57,-148 1635.68,-148"/>
<polygon fill="#4a6fa5" stroke="#4a6fa5" points="1635.93,-150.45 1642.93,-148 1635.93,-145.55 1635.93,-150.45"/>
</g>
<!-- Node0x6386b00a80a0 -->
<g id="node59" class="node">
<title>Node0x6386b00a80a0</title>
<path fill="#f0f4ff" stroke="black" d="M1924,-869C1924,-869 1655,-869 1655,-869 1649,-869 1643,-863 1643,-857 1643,-857 1643,-845 1643,-845 1643,-839 1649,-833 1655,-833 1655,-833 1924,-833 1924,-833 1930,-833 1936,-839 1936,-845 1936,-845 1936,-857 1936,-857 1936,-863 1930,-869 1924,-869"/>
<text text-anchor="middle" x="1789.5" y="-848.8" font-family="Courier,monospace" font-size="9.00">{__gnu_cxx::__aligned_membuf&lt;IccTagEntry&gt;::_M_addr()}</text>
</g>
<!-- Node0x6386b00aa3a0&#45;&gt;Node0x6386b00a80a0 -->
<g id="edge62" class="edge">
<title>Node0x6386b00aa3a0&#45;&gt;Node0x6386b00a80a0</title>
<path fill="none" stroke="#4a6fa5" d="M1494.25,-851C1539.53,-851 1589.72,-851 1635.64,-851"/>
<polygon fill="#4a6fa5" stroke="#4a6fa5" points="1635.68,-853.45 1642.68,-851 1635.68,-848.55 1635.68,-853.45"/>
</g>
</g>
</svg>
