<?xml version="1.0" encoding="UTF-8" standalone="no"?>
<!DOCTYPE svg PUBLIC "-//W3C//DTD SVG 1.1//EN"
 "http://www.w3.org/Graphics/SVG/1.1/DTD/svg11.dtd">
<!-- Generated by graphviz version 2.43.0 (0)
 -->
<!-- Title: Call graph: /home/h02332/po/research/call&#45;graph/cfl/icc_toxml_fuzzer.ll Pages: 1 -->
<svg width="10442pt" height="214pt"
 viewBox="0.00 0.00 10441.50 214.00" xmlns="http://www.w3.org/2000/svg" xmlns:xlink="http://www.w3.org/1999/xlink">
<g id="graph0" class="graph" transform="scale(1 1) rotate(0) translate(4 210)">
<title>Call graph: /home/h02332/po/research/call&#45;graph/cfl/icc_toxml_fuzzer.ll</title>
<polygon fill="white" stroke="transparent" points="-4,4 -4,-210 10437.5,-210 10437.5,4 -4,4"/>
<text text-anchor="middle" x="5216.75" y="-7.8" font-family="Times,serif" font-size="14.00">Call graph: /home/h02332/po/research/call&#45;graph/cfl/icc_toxml_fuzzer.ll</text>
<!-- Node0x621a5e392e00 -->
<g id="node1" class="node">
<title>Node0x621a5e392e00</title>
<polygon fill="none" stroke="black" points="962,-169.5 962,-205.5 1130,-205.5 1130,-169.5 962,-169.5"/>
<text text-anchor="middle" x="1046" y="-183.8" font-family="Times,serif" font-size="14.00">LLVMFuzzerInitialize</text>
</g>
<!-- Node0x621a5e3934e0 -->
<g id="node2" class="node">
<title>Node0x621a5e3934e0</title>
<polygon fill="none" stroke="black" points="1763.5,-96.5 1763.5,-132.5 1948.5,-132.5 1948.5,-96.5 1763.5,-96.5"/>
<text text-anchor="middle" x="1856" y="-110.8" font-family="Times,serif" font-size="14.00">_ZnwmRKSt9nothrow_t</text>
</g>
<!-- Node0x621a5e392e00&#45;&gt;Node0x621a5e3934e0 -->
<g id="edge1" class="edge">
<title>Node0x621a5e392e00&#45;&gt;Node0x621a5e3934e0</title>
<path fill="none" stroke="black" d="M1130.17,-182.72C1261.19,-176.26 1521.99,-161.11 1753.53,-132.98"/>
<polygon fill="black" stroke="black" points="1753.99,-136.45 1763.49,-131.76 1753.14,-129.51 1753.99,-136.45"/>
</g>
<!-- Node0x621a5e3608b0 -->
<g id="node3" class="node">
<title>Node0x621a5e3608b0</title>
<polygon fill="none" stroke="black" points="170,-96.5 170,-132.5 328,-132.5 328,-96.5 170,-96.5"/>
<text text-anchor="middle" x="249" y="-110.8" font-family="Times,serif" font-size="14.00">llvm.memset.p0.i64</text>
</g>
<!-- Node0x621a5e392e00&#45;&gt;Node0x621a5e3608b0 -->
<g id="edge2" class="edge">
<title>Node0x621a5e392e00&#45;&gt;Node0x621a5e3608b0</title>
<path fill="none" stroke="black" d="M961.76,-183.51C830.39,-178.12 568.67,-164.38 338.37,-133.24"/>
<polygon fill="black" stroke="black" points="338.5,-129.73 328.12,-131.84 337.55,-136.67 338.5,-129.73"/>
</g>
<!-- Node0x621a5e373c60 -->
<g id="node4" class="node">
<title>Node0x621a5e373c60</title>
<polygon fill="none" stroke="black" points="345.5,-96.5 345.5,-132.5 584.5,-132.5 584.5,-96.5 345.5,-96.5"/>
<text text-anchor="middle" x="465" y="-110.8" font-family="Times,serif" font-size="14.00">_ZN17CIccTagXmlFactoryC2Ev</text>
</g>
<!-- Node0x621a5e392e00&#45;&gt;Node0x621a5e373c60 -->
<g id="edge3" class="edge">
<title>Node0x621a5e392e00&#45;&gt;Node0x621a5e373c60</title>
<path fill="none" stroke="black" d="M961.62,-177C872.82,-166.9 728.69,-150.2 594.61,-133.19"/>
<polygon fill="black" stroke="black" points="594.93,-129.71 584.57,-131.92 594.04,-136.65 594.93,-129.71"/>
</g>
<!-- Node0x621a5e3848a0 -->
<g id="node5" class="node">
<title>Node0x621a5e3848a0</title>
<polygon fill="none" stroke="black" points="602.5,-96.5 602.5,-132.5 1039.5,-132.5 1039.5,-96.5 602.5,-96.5"/>
<text text-anchor="middle" x="821" y="-110.8" font-family="Times,serif" font-size="14.00">_ZN14CIccMpeCreator11PushFactoryEP14IIccMpeFactory</text>
</g>
<!-- Node0x621a5e392e00&#45;&gt;Node0x621a5e3848a0 -->
<g id="edge4" class="edge">
<title>Node0x621a5e392e00&#45;&gt;Node0x621a5e3848a0</title>
<path fill="none" stroke="black" d="M992.11,-169.49C959.92,-159.34 918.86,-146.38 885.03,-135.7"/>
<polygon fill="black" stroke="black" points="885.82,-132.29 875.23,-132.61 883.72,-138.96 885.82,-132.29"/>
</g>
<!-- Node0x621a5e35fee0 -->
<g id="node6" class="node">
<title>Node0x621a5e35fee0</title>
<polygon fill="none" stroke="black" points="1057.5,-96.5 1057.5,-132.5 1482.5,-132.5 1482.5,-96.5 1057.5,-96.5"/>
<text text-anchor="middle" x="1270" y="-110.8" font-family="Times,serif" font-size="14.00">_ZN14CIccTagCreator11PushFactoryEP14IIccTagFactory</text>
</g>
<!-- Node0x621a5e392e00&#45;&gt;Node0x621a5e35fee0 -->
<g id="edge5" class="edge">
<title>Node0x621a5e392e00&#45;&gt;Node0x621a5e35fee0</title>
<path fill="none" stroke="black" d="M1099.65,-169.49C1131.7,-159.34 1172.58,-146.38 1206.26,-135.7"/>
<polygon fill="black" stroke="black" points="1207.53,-138.97 1216.01,-132.61 1205.42,-132.3 1207.53,-138.97"/>
</g>
<!-- Node0x621a5e35bab0 -->
<g id="node7" class="node">
<title>Node0x621a5e35bab0</title>
<polygon fill="none" stroke="black" points="1500.5,-96.5 1500.5,-132.5 1745.5,-132.5 1745.5,-96.5 1500.5,-96.5"/>
<text text-anchor="middle" x="1623" y="-110.8" font-family="Times,serif" font-size="14.00">_ZN17CIccMpeXmlFactoryC2Ev</text>
</g>
<!-- Node0x621a5e392e00&#45;&gt;Node0x621a5e35bab0 -->
<g id="edge6" class="edge">
<title>Node0x621a5e392e00&#45;&gt;Node0x621a5e35bab0</title>
<path fill="none" stroke="black" d="M1130.11,-176.7C1217.34,-166.46 1357.99,-149.76 1490.09,-133.11"/>
<polygon fill="black" stroke="black" points="1490.91,-136.53 1500.4,-131.81 1490.04,-129.59 1490.91,-136.53"/>
</g>
<!-- Node0x621a5e35c1d0 -->
<g id="node8" class="node">
<title>Node0x621a5e35c1d0</title>
<polygon fill="none" stroke="black" points="0,-23.5 0,-59.5 206,-59.5 206,-23.5 0,-23.5"/>
<text text-anchor="middle" x="103" y="-37.8" font-family="Times,serif" font-size="14.00">_ZN14IIccTagFactoryC2Ev</text>
</g>
<!-- Node0x621a5e373c60&#45;&gt;Node0x621a5e35c1d0 -->
<g id="edge7" class="edge">
<title>Node0x621a5e373c60&#45;&gt;Node0x621a5e35c1d0</title>
<path fill="none" stroke="black" d="M378.29,-96.49C324.52,-85.95 255.35,-72.38 199.79,-61.48"/>
<polygon fill="black" stroke="black" points="200.43,-58.04 189.94,-59.55 199.08,-64.91 200.43,-58.04"/>
</g>
<!-- Node0x621a5e3a04d0 -->
<g id="node12" class="node">
<title>Node0x621a5e3a04d0</title>
<polygon fill="none" stroke="black" points="698.5,-23.5 698.5,-59.5 1001.5,-59.5 1001.5,-23.5 698.5,-23.5"/>
<text text-anchor="middle" x="850" y="-37.8" font-family="Times,serif" font-size="14.00">_ZN14CIccMpeCreator11GetInstanceEv</text>
</g>
<!-- Node0x621a5e3848a0&#45;&gt;Node0x621a5e3a04d0 -->
<g id="edge11" class="edge">
<title>Node0x621a5e3848a0&#45;&gt;Node0x621a5e3a04d0</title>
<path fill="none" stroke="black" d="M828.02,-96.31C831.37,-88.12 835.45,-78.12 839.18,-68.98"/>
<polygon fill="black" stroke="black" points="842.5,-70.11 843.04,-59.53 836.02,-67.46 842.5,-70.11"/>
</g>
<!-- Node0x621a5e3a1560 -->
<g id="node13" class="node">
<title>Node0x621a5e3a1560</title>
<polygon fill="none" stroke="black" points="224,-23.5 224,-59.5 680,-59.5 680,-23.5 224,-23.5"/>
<text text-anchor="middle" x="452" y="-37.8" font-family="Times,serif" font-size="14.00">_ZN14CIccMpeCreator13DoPushFactoryEP14IIccMpeFactory</text>
</g>
<!-- Node0x621a5e3848a0&#45;&gt;Node0x621a5e3a1560 -->
<g id="edge12" class="edge">
<title>Node0x621a5e3848a0&#45;&gt;Node0x621a5e3a1560</title>
<path fill="none" stroke="black" d="M732.62,-96.49C677.81,-85.95 607.29,-72.38 550.67,-61.48"/>
<polygon fill="black" stroke="black" points="551.1,-58 540.62,-59.55 549.78,-64.88 551.1,-58"/>
</g>
<!-- Node0x621a5e35ba40 -->
<g id="node10" class="node">
<title>Node0x621a5e35ba40</title>
<polygon fill="none" stroke="black" points="1482.5,-23.5 1482.5,-59.5 1779.5,-59.5 1779.5,-23.5 1482.5,-23.5"/>
<text text-anchor="middle" x="1631" y="-37.8" font-family="Times,serif" font-size="14.00">_ZN14CIccTagCreator11GetInstanceEv</text>
</g>
<!-- Node0x621a5e35fee0&#45;&gt;Node0x621a5e35ba40 -->
<g id="edge9" class="edge">
<title>Node0x621a5e35fee0&#45;&gt;Node0x621a5e35ba40</title>
<path fill="none" stroke="black" d="M1356.47,-96.49C1410.09,-85.95 1479.07,-72.38 1534.47,-61.48"/>
<polygon fill="black" stroke="black" points="1535.16,-64.92 1544.3,-59.55 1533.81,-58.05 1535.16,-64.92"/>
</g>
<!-- Node0x621a5e35c5e0 -->
<g id="node11" class="node">
<title>Node0x621a5e35c5e0</title>
<polygon fill="none" stroke="black" points="1020,-23.5 1020,-59.5 1464,-59.5 1464,-23.5 1020,-23.5"/>
<text text-anchor="middle" x="1242" y="-37.8" font-family="Times,serif" font-size="14.00">_ZN14CIccTagCreator13DoPushFactoryEP14IIccTagFactory</text>
</g>
<!-- Node0x621a5e35fee0&#45;&gt;Node0x621a5e35c5e0 -->
<g id="edge10" class="edge">
<title>Node0x621a5e35fee0&#45;&gt;Node0x621a5e35c5e0</title>
<path fill="none" stroke="black" d="M1263.22,-96.31C1259.99,-88.12 1256.05,-78.12 1252.44,-68.98"/>
<polygon fill="black" stroke="black" points="1255.64,-67.55 1248.72,-59.53 1249.13,-70.12 1255.64,-67.55"/>
</g>
<!-- Node0x621a5e39f2b0 -->
<g id="node9" class="node">
<title>Node0x621a5e39f2b0</title>
<polygon fill="none" stroke="black" points="1798,-23.5 1798,-59.5 2010,-59.5 2010,-23.5 1798,-23.5"/>
<text text-anchor="middle" x="1904" y="-37.8" font-family="Times,serif" font-size="14.00">_ZN14IIccMpeFactoryC2Ev</text>
</g>
<!-- Node0x621a5e35bab0&#45;&gt;Node0x621a5e39f2b0 -->
<g id="edge8" class="edge">
<title>Node0x621a5e35bab0&#45;&gt;Node0x621a5e39f2b0</title>
<path fill="none" stroke="black" d="M1690.31,-96.49C1731.28,-86.14 1783.77,-72.88 1826.48,-62.09"/>
<polygon fill="black" stroke="black" points="1827.43,-65.46 1836.27,-59.61 1825.72,-58.67 1827.43,-65.46"/>
</g>
<!-- Node0x621a5e3a1080 -->
<g id="node14" class="node">
<title>Node0x621a5e3a1080</title>
<polygon fill="none" stroke="black" points="3065.5,-169.5 3065.5,-205.5 3268.5,-205.5 3268.5,-169.5 3065.5,-169.5"/>
<text text-anchor="middle" x="3167" y="-183.8" font-family="Times,serif" font-size="14.00">LLVMFuzzerTestOneInput</text>
</g>
<!-- Node0x621a5e3a1080&#45;&gt;Node0x621a5e3934e0 -->
<g id="edge13" class="edge">
<title>Node0x621a5e3a1080&#45;&gt;Node0x621a5e3934e0</title>
<path fill="none" stroke="black" d="M3065.48,-186.37C2858.77,-185.15 2374.11,-177.44 1958.78,-133.12"/>
<polygon fill="black" stroke="black" points="1958.99,-129.62 1948.67,-132.03 1958.24,-136.58 1958.99,-129.62"/>
</g>
<!-- Node0x621a5e3a0c50 -->
<g id="node15" class="node">
<title>Node0x621a5e3a0c50</title>
<polygon fill="none" stroke="black" points="2766,-96.5 2766,-132.5 2942,-132.5 2942,-96.5 2766,-96.5"/>
<text text-anchor="middle" x="2854" y="-110.8" font-family="Times,serif" font-size="14.00">_ZN9CIccMemIOC1Ev</text>
</g>
<!-- Node0x621a5e3a1080&#45;&gt;Node0x621a5e3a0c50 -->
<g id="edge14" class="edge">
<title>Node0x621a5e3a1080&#45;&gt;Node0x621a5e3a0c50</title>
<path fill="none" stroke="black" d="M3092.03,-169.49C3046.02,-159.06 2986.96,-145.66 2939.19,-134.82"/>
<polygon fill="black" stroke="black" points="2939.7,-131.35 2929.17,-132.55 2938.15,-138.18 2939.7,-131.35"/>
</g>
<!-- Node0x621a5e3a2aa0 -->
<g id="node16" class="node">
<title>Node0x621a5e3a2aa0</title>
<polygon fill="none" stroke="black" points="2960,-96.5 2960,-132.5 3142,-132.5 3142,-96.5 2960,-96.5"/>
<text text-anchor="middle" x="3051" y="-110.8" font-family="Times,serif" font-size="14.00">_ZdlPvRKSt9nothrow_t</text>
</g>
<!-- Node0x621a5e3a1080&#45;&gt;Node0x621a5e3a2aa0 -->
<g id="edge15" class="edge">
<title>Node0x621a5e3a1080&#45;&gt;Node0x621a5e3a2aa0</title>
<path fill="none" stroke="black" d="M3139.22,-169.49C3123.83,-160.08 3104.52,-148.26 3087.88,-138.07"/>
<polygon fill="black" stroke="black" points="3089.32,-134.85 3078.96,-132.61 3085.66,-140.82 3089.32,-134.85"/>
</g>
<!-- Node0x621a5e3a3220 -->
<g id="node17" class="node">
<title>Node0x621a5e3a3220</title>
<polygon fill="none" stroke="black" points="3160.5,-96.5 3160.5,-132.5 3405.5,-132.5 3405.5,-96.5 3160.5,-96.5"/>
<text text-anchor="middle" x="3283" y="-110.8" font-family="Times,serif" font-size="14.00">_ZN9CIccMemIO6AttachEPhmb</text>
</g>
<!-- Node0x621a5e3a1080&#45;&gt;Node0x621a5e3a3220 -->
<g id="edge16" class="edge">
<title>Node0x621a5e3a1080&#45;&gt;Node0x621a5e3a3220</title>
<path fill="none" stroke="black" d="M3194.78,-169.49C3210.17,-160.08 3229.48,-148.26 3246.12,-138.07"/>
<polygon fill="black" stroke="black" points="3248.34,-140.82 3255.04,-132.61 3244.68,-134.85 3248.34,-140.82"/>
</g>
<!-- Node0x621a5e3a2fa0 -->
<g id="node18" class="node">
<title>Node0x621a5e3a2fa0</title>
<polygon fill="none" stroke="black" points="5100,-96.5 5100,-132.5 5306,-132.5 5306,-96.5 5100,-96.5"/>
<text text-anchor="middle" x="5203" y="-110.8" font-family="Times,serif" font-size="14.00">_ZN14CIccProfileXmlC2Ev</text>
</g>
<!-- Node0x621a5e3a1080&#45;&gt;Node0x621a5e3a2fa0 -->
<g id="edge17" class="edge">
<title>Node0x621a5e3a1080&#45;&gt;Node0x621a5e3a2fa0</title>
<path fill="none" stroke="black" d="M3268.65,-185.36C3609.52,-181.28 4711.26,-165.91 5089.74,-132.92"/>
<polygon fill="black" stroke="black" points="5090.26,-136.39 5099.91,-132.01 5089.64,-129.41 5090.26,-136.39"/>
</g>
<!-- Node0x621a5e3a2d20 -->
<g id="node19" class="node">
<title>Node0x621a5e3a2d20</title>
<polygon fill="none" stroke="black" points="3423.5,-96.5 3423.5,-132.5 3704.5,-132.5 3704.5,-96.5 3423.5,-96.5"/>
<text text-anchor="middle" x="3564" y="-110.8" font-family="Times,serif" font-size="14.00">_ZN11CIccProfile6AttachEP6CIccIOb</text>
</g>
<!-- Node0x621a5e3a1080&#45;&gt;Node0x621a5e3a2d20 -->
<g id="edge18" class="edge">
<title>Node0x621a5e3a1080&#45;&gt;Node0x621a5e3a2d20</title>
<path fill="none" stroke="black" d="M3262.09,-169.49C3321.3,-158.9 3397.55,-145.27 3458.6,-134.35"/>
<polygon fill="black" stroke="black" points="3459.43,-137.76 3468.65,-132.55 3458.19,-130.87 3459.43,-137.76"/>
</g>
<!-- Node0x621a5e3a35e0 -->
<g id="node20" class="node">
<title>Node0x621a5e3a35e0</title>
<polygon fill="none" stroke="black" points="3722.5,-96.5 3722.5,-132.5 4189.5,-132.5 4189.5,-96.5 3722.5,-96.5"/>
<text text-anchor="middle" x="3956" y="-110.8" font-family="Times,serif" font-size="14.00">_ZNSt7__cxx1112basic_stringIcSt11char_traitsIcESaIcEEC1Ev</text>
</g>
<!-- Node0x621a5e3a1080&#45;&gt;Node0x621a5e3a35e0 -->
<g id="edge19" class="edge">
<title>Node0x621a5e3a1080&#45;&gt;Node0x621a5e3a35e0</title>
<path fill="none" stroke="black" d="M3268.53,-177.36C3391.42,-166.3 3601.21,-147.43 3756.79,-133.43"/>
<polygon fill="black" stroke="black" points="3757.32,-136.89 3766.96,-132.51 3756.69,-129.92 3757.32,-136.89"/>
</g>
<!-- Node0x621a5e3a4340 -->
<g id="node21" class="node">
<title>Node0x621a5e3a4340</title>
<polygon fill="none" stroke="black" points="4208,-96.5 4208,-132.5 4856,-132.5 4856,-96.5 4208,-96.5"/>
<text text-anchor="middle" x="4532" y="-110.8" font-family="Times,serif" font-size="14.00">_ZN14CIccProfileXml5ToXmlERNSt7__cxx1112basic_stringIcSt11char_traitsIcESaIcEEE</text>
</g>
<!-- Node0x621a5e3a1080&#45;&gt;Node0x621a5e3a4340 -->
<g id="edge20" class="edge">
<title>Node0x621a5e3a1080&#45;&gt;Node0x621a5e3a4340</title>
<path fill="none" stroke="black" d="M3268.71,-181.24C3451.9,-171.76 3849.8,-151.15 4197.6,-133.02"/>
<polygon fill="black" stroke="black" points="4197.81,-136.51 4207.62,-132.5 4197.45,-129.52 4197.81,-136.51"/>
</g>
<!-- Node0x621a5e3a3e40 -->
<g id="node22" class="node">
<title>Node0x621a5e3a3e40</title>
<polygon fill="none" stroke="black" points="1966.5,-96.5 1966.5,-132.5 2433.5,-132.5 2433.5,-96.5 1966.5,-96.5"/>
<text text-anchor="middle" x="2200" y="-110.8" font-family="Times,serif" font-size="14.00">_ZNSt7__cxx1112basic_stringIcSt11char_traitsIcESaIcEED1Ev</text>
</g>
<!-- Node0x621a5e3a1080&#45;&gt;Node0x621a5e3a3e40 -->
<g id="edge21" class="edge">
<title>Node0x621a5e3a1080&#45;&gt;Node0x621a5e3a3e40</title>
<path fill="none" stroke="black" d="M3065.34,-179.04C2918.59,-168.26 2642.98,-148.02 2442.12,-133.28"/>
<polygon fill="black" stroke="black" points="2442.25,-129.78 2432.02,-132.54 2441.73,-136.76 2442.25,-129.78"/>
</g>
<!-- Node0x621a5e3a4fc0 -->
<g id="node23" class="node">
<title>Node0x621a5e3a4fc0</title>
<polygon fill="none" stroke="black" points="2452,-96.5 2452,-132.5 2584,-132.5 2584,-96.5 2452,-96.5"/>
<text text-anchor="middle" x="2518" y="-110.8" font-family="Times,serif" font-size="14.00">__cxa_end_catch</text>
</g>
<!-- Node0x621a5e3a1080&#45;&gt;Node0x621a5e3a4fc0 -->
<g id="edge22" class="edge">
<title>Node0x621a5e3a1080&#45;&gt;Node0x621a5e3a4fc0</title>
<path fill="none" stroke="black" d="M3065.38,-181.22C2952.43,-174.41 2764.56,-160.24 2594.06,-133.05"/>
<polygon fill="black" stroke="black" points="2594.59,-129.59 2584.16,-131.45 2593.47,-136.5 2594.59,-129.59"/>
</g>
<!-- Node0x621a5e3a3bc0 -->
<g id="node24" class="node">
<title>Node0x621a5e3a3bc0</title>
<polygon fill="none" stroke="black" points="4874.5,-96.5 4874.5,-132.5 5081.5,-132.5 5081.5,-96.5 4874.5,-96.5"/>
<text text-anchor="middle" x="4978" y="-110.8" font-family="Times,serif" font-size="14.00">_ZN14CIccProfileXmlD2Ev</text>
</g>
<!-- Node0x621a5e3a1080&#45;&gt;Node0x621a5e3a3bc0 -->
<g id="edge23" class="edge">
<title>Node0x621a5e3a1080&#45;&gt;Node0x621a5e3a3bc0</title>
<path fill="none" stroke="black" d="M3268.71,-184.93C3582.33,-179.82 4532.66,-162.38 4864.2,-132.98"/>
<polygon fill="black" stroke="black" points="4864.66,-136.45 4874.3,-132.06 4864.03,-129.48 4864.66,-136.45"/>
</g>
<!-- Node0x621a5e3a45c0 -->
<g id="node25" class="node">
<title>Node0x621a5e3a45c0</title>
<polygon fill="none" stroke="black" points="2602,-96.5 2602,-132.5 2748,-132.5 2748,-96.5 2602,-96.5"/>
<text text-anchor="middle" x="2675" y="-110.8" font-family="Times,serif" font-size="14.00">__cxa_begin_catch</text>
</g>
<!-- Node0x621a5e3a1080&#45;&gt;Node0x621a5e3a45c0 -->
<g id="edge24" class="edge">
<title>Node0x621a5e3a1080&#45;&gt;Node0x621a5e3a45c0</title>
<path fill="none" stroke="black" d="M3065.14,-175.52C2984.41,-166.28 2868.56,-151.82 2758.23,-133.14"/>
<polygon fill="black" stroke="black" points="2758.71,-129.67 2748.26,-131.44 2757.53,-136.57 2758.71,-129.67"/>
</g>
<!-- Node0x621a5e3a4980 -->
<g id="node27" class="node">
<title>Node0x621a5e3a4980</title>
<polygon fill="none" stroke="black" points="5113.5,-23.5 5113.5,-59.5 5292.5,-59.5 5292.5,-23.5 5113.5,-23.5"/>
<text text-anchor="middle" x="5203" y="-37.8" font-family="Times,serif" font-size="14.00">_ZN11CIccProfileC2Ev</text>
</g>
<!-- Node0x621a5e3a2fa0&#45;&gt;Node0x621a5e3a4980 -->
<g id="edge25" class="edge">
<title>Node0x621a5e3a2fa0&#45;&gt;Node0x621a5e3a4980</title>
<path fill="none" stroke="black" d="M5203,-96.31C5203,-88.29 5203,-78.55 5203,-69.57"/>
<polygon fill="black" stroke="black" points="5206.5,-69.53 5203,-59.53 5199.5,-69.53 5206.5,-69.53"/>
</g>
<!-- Node0x621a5e3a5600 -->
<g id="node28" class="node">
<title>Node0x621a5e3a5600</title>
<polygon fill="none" stroke="black" points="4888.5,-23.5 4888.5,-59.5 5067.5,-59.5 5067.5,-23.5 4888.5,-23.5"/>
<text text-anchor="middle" x="4978" y="-37.8" font-family="Times,serif" font-size="14.00">_ZN11CIccProfileD2Ev</text>
</g>
<!-- Node0x621a5e3a3bc0&#45;&gt;Node0x621a5e3a5600 -->
<g id="edge26" class="edge">
<title>Node0x621a5e3a3bc0&#45;&gt;Node0x621a5e3a5600</title>
<path fill="none" stroke="black" d="M4978,-96.31C4978,-88.29 4978,-78.55 4978,-69.57"/>
<polygon fill="black" stroke="black" points="4981.5,-69.53 4978,-59.53 4974.5,-69.53 4981.5,-69.53"/>
</g>
<!-- Node0x621a5e3a4d40 -->
<g id="node26" class="node">
<title>Node0x621a5e3a4d40</title>
<polygon fill="none" stroke="black" points="5751.5,-169.5 5751.5,-205.5 5918.5,-205.5 5918.5,-169.5 5751.5,-169.5"/>
<text text-anchor="middle" x="5835" y="-183.8" font-family="Times,serif" font-size="14.00">__gxx_personality_v0</text>
</g>
<!-- Node0x621a5e3a4a40 -->
<g id="node29" class="node">
<title>Node0x621a5e3a4a40</title>
<polygon fill="none" stroke="black" points="5936.5,-169.5 5936.5,-205.5 6143.5,-205.5 6143.5,-169.5 5936.5,-169.5"/>
<text text-anchor="middle" x="6040" y="-183.8" font-family="Times,serif" font-size="14.00">_ZN14IIccTagFactoryD2Ev</text>
</g>
<!-- Node0x621a5e3a4cc0 -->
<g id="node30" class="node">
<title>Node0x621a5e3a4cc0</title>
<polygon fill="none" stroke="black" points="6161.5,-169.5 6161.5,-205.5 6368.5,-205.5 6368.5,-169.5 6161.5,-169.5"/>
<text text-anchor="middle" x="6265" y="-183.8" font-family="Times,serif" font-size="14.00">_ZN14IIccTagFactoryD0Ev</text>
</g>
<!-- Node0x621a5e3a4f40 -->
<g id="node31" class="node">
<title>Node0x621a5e3a4f40</title>
<polygon fill="none" stroke="black" points="6338,-96.5 6338,-132.5 6420,-132.5 6420,-96.5 6338,-96.5"/>
<text text-anchor="middle" x="6379" y="-110.8" font-family="Times,serif" font-size="14.00">llvm.trap</text>
</g>
<!-- Node0x621a5e3a4cc0&#45;&gt;Node0x621a5e3a4f40 -->
<g id="edge27" class="edge">
<title>Node0x621a5e3a4cc0&#45;&gt;Node0x621a5e3a4f40</title>
<path fill="none" stroke="black" d="M6292.31,-169.49C6307.42,-160.08 6326.41,-148.26 6342.75,-138.07"/>
<polygon fill="black" stroke="black" points="6344.88,-140.87 6351.52,-132.61 6341.18,-134.93 6344.88,-140.87"/>
</g>
<!-- Node0x621a5e3a6df0 -->
<g id="node32" class="node">
<title>Node0x621a5e3a6df0</title>
<polygon fill="none" stroke="black" points="6618,-169.5 6618,-205.5 6766,-205.5 6766,-169.5 6618,-169.5"/>
<text text-anchor="middle" x="6692" y="-183.8" font-family="Times,serif" font-size="14.00">__cxa_pure_virtual</text>
</g>
<!-- Node0x621a5e3a80b0 -->
<g id="node33" class="node">
<title>Node0x621a5e3a80b0</title>
<polygon fill="none" stroke="black" points="6784.5,-169.5 6784.5,-205.5 6997.5,-205.5 6997.5,-169.5 6784.5,-169.5"/>
<text text-anchor="middle" x="6891" y="-183.8" font-family="Times,serif" font-size="14.00">_ZN14IIccMpeFactoryD2Ev</text>
</g>
<!-- Node0x621a5e3a7a70 -->
<g id="node34" class="node">
<title>Node0x621a5e3a7a70</title>
<polygon fill="none" stroke="black" points="6386.5,-169.5 6386.5,-205.5 6599.5,-205.5 6599.5,-169.5 6386.5,-169.5"/>
<text text-anchor="middle" x="6493" y="-183.8" font-family="Times,serif" font-size="14.00">_ZN14IIccMpeFactoryD0Ev</text>
</g>
<!-- Node0x621a5e3a7a70&#45;&gt;Node0x621a5e3a4f40 -->
<g id="edge28" class="edge">
<title>Node0x621a5e3a7a70&#45;&gt;Node0x621a5e3a4f40</title>
<path fill="none" stroke="black" d="M6465.69,-169.49C6450.58,-160.08 6431.59,-148.26 6415.25,-138.07"/>
<polygon fill="black" stroke="black" points="6416.82,-134.93 6406.48,-132.61 6413.12,-140.87 6416.82,-134.93"/>
</g>
<!-- Node0x621a5e3a7430 -->
<g id="node35" class="node">
<title>Node0x621a5e3a7430</title>
<polygon fill="none" stroke="black" points="4889.5,-169.5 4889.5,-205.5 5096.5,-205.5 5096.5,-169.5 4889.5,-169.5"/>
<text text-anchor="middle" x="4993" y="-183.8" font-family="Times,serif" font-size="14.00">_ZN14CIccProfileXmlD0Ev</text>
</g>
<!-- Node0x621a5e3a7430&#45;&gt;Node0x621a5e3a3bc0 -->
<g id="edge29" class="edge">
<title>Node0x621a5e3a7430&#45;&gt;Node0x621a5e3a3bc0</title>
<path fill="none" stroke="black" d="M4989.37,-169.31C4987.67,-161.29 4985.62,-151.55 4983.72,-142.57"/>
<polygon fill="black" stroke="black" points="4987.09,-141.59 4981.6,-132.53 4980.24,-143.04 4987.09,-141.59"/>
</g>
<!-- Node0x621a5e3a9df0 -->
<g id="node36" class="node">
<title>Node0x621a5e3a9df0</title>
<polygon fill="none" stroke="black" points="5324.5,-96.5 5324.5,-132.5 5389.5,-132.5 5389.5,-96.5 5324.5,-96.5"/>
<text text-anchor="middle" x="5357" y="-110.8" font-family="Times,serif" font-size="14.00">_ZdlPv</text>
</g>
<!-- Node0x621a5e3a7430&#45;&gt;Node0x621a5e3a9df0 -->
<g id="edge30" class="edge">
<title>Node0x621a5e3a7430&#45;&gt;Node0x621a5e3a9df0</title>
<path fill="none" stroke="black" d="M5096.64,-171.92C5169.86,-161.15 5262.52,-146.47 5314.42,-132.72"/>
<polygon fill="black" stroke="black" points="5315.55,-136.04 5324.24,-129.99 5313.67,-129.3 5315.55,-136.04"/>
</g>
<!-- Node0x621a5e3abfb0 -->
<g id="node37" class="node">
<title>Node0x621a5e3abfb0</title>
<polygon fill="none" stroke="black" points="7015.5,-169.5 7015.5,-205.5 7374.5,-205.5 7374.5,-169.5 7015.5,-169.5"/>
<text text-anchor="middle" x="7195" y="-183.8" font-family="Times,serif" font-size="14.00">_ZN11CIccProfile23getPccViewingConditionsEv</text>
</g>
<!-- Node0x621a5e3abbf0 -->
<g id="node38" class="node">
<title>Node0x621a5e3abbf0</title>
<polygon fill="none" stroke="black" points="7352.5,-96.5 7352.5,-132.5 7795.5,-132.5 7795.5,-96.5 7352.5,-96.5"/>
<text text-anchor="middle" x="7574" y="-110.8" font-family="Times,serif" font-size="14.00">_ZN11CIccProfile13FindTagOfTypeEj18icTagTypeSignature</text>
</g>
<!-- Node0x621a5e3abfb0&#45;&gt;Node0x621a5e3abbf0 -->
<g id="edge31" class="edge">
<title>Node0x621a5e3abfb0&#45;&gt;Node0x621a5e3abbf0</title>
<path fill="none" stroke="black" d="M7285.78,-169.49C7342.19,-158.93 7414.8,-145.32 7473.02,-134.42"/>
<polygon fill="black" stroke="black" points="7473.79,-137.83 7482.98,-132.55 7472.5,-130.95 7473.79,-137.83"/>
</g>
<!-- Node0x621a5e3ab5b0 -->
<g id="node39" class="node">
<title>Node0x621a5e3ab5b0</title>
<polygon fill="none" stroke="black" points="7393,-169.5 7393,-205.5 7755,-205.5 7755,-169.5 7393,-169.5"/>
<text text-anchor="middle" x="7574" y="-183.8" font-family="Times,serif" font-size="14.00">_ZN11CIccProfile22getCustomToStandardPccEv</text>
</g>
<!-- Node0x621a5e3ab5b0&#45;&gt;Node0x621a5e3abbf0 -->
<g id="edge32" class="edge">
<title>Node0x621a5e3ab5b0&#45;&gt;Node0x621a5e3abbf0</title>
<path fill="none" stroke="black" d="M7574,-169.31C7574,-161.29 7574,-151.55 7574,-142.57"/>
<polygon fill="black" stroke="black" points="7577.5,-142.53 7574,-132.53 7570.5,-142.53 7577.5,-142.53"/>
</g>
<!-- Node0x621a5e3a9a30 -->
<g id="node40" class="node">
<title>Node0x621a5e3a9a30</title>
<polygon fill="none" stroke="black" points="7773,-169.5 7773,-205.5 8135,-205.5 8135,-169.5 7773,-169.5"/>
<text text-anchor="middle" x="7954" y="-183.8" font-family="Times,serif" font-size="14.00">_ZN11CIccProfile22getStandardToCustomPccEv</text>
</g>
<!-- Node0x621a5e3a9a30&#45;&gt;Node0x621a5e3abbf0 -->
<g id="edge33" class="edge">
<title>Node0x621a5e3a9a30&#45;&gt;Node0x621a5e3abbf0</title>
<path fill="none" stroke="black" d="M7862.98,-169.49C7806.42,-158.93 7733.62,-145.32 7675.25,-134.42"/>
<polygon fill="black" stroke="black" points="7675.74,-130.95 7665.26,-132.55 7674.45,-137.83 7675.74,-130.95"/>
</g>
<!-- Node0x621a5e3adc70 -->
<g id="node41" class="node">
<title>Node0x621a5e3adc70</title>
<polygon fill="none" stroke="black" points="8153,-169.5 8153,-205.5 8503,-205.5 8503,-169.5 8153,-169.5"/>
<text text-anchor="middle" x="8328" y="-183.8" font-family="Times,serif" font-size="14.00">_ZN11CIccProfile20getNormIlluminantXYZEPf</text>
</g>
<!-- Node0x621a5e3ad8b0 -->
<g id="node42" class="node">
<title>Node0x621a5e3ad8b0</title>
<polygon fill="none" stroke="black" points="8521.5,-169.5 8521.5,-205.5 8862.5,-205.5 8862.5,-169.5 8521.5,-169.5"/>
<text text-anchor="middle" x="8692" y="-183.8" font-family="Times,serif" font-size="14.00">_ZN11CIccProfile19getLumIlluminantXYZEPf</text>
</g>
<!-- Node0x621a5e3ad630 -->
<g id="node43" class="node">
<title>Node0x621a5e3ad630</title>
<polygon fill="none" stroke="black" points="8881,-169.5 8881,-205.5 9203,-205.5 9203,-169.5 8881,-169.5"/>
<text text-anchor="middle" x="9042" y="-183.8" font-family="Times,serif" font-size="14.00">_ZN11CIccProfile16getMediaWhiteXYZEPf</text>
</g>
<!-- Node0x621a5e3aceb0 -->
<g id="node44" class="node">
<title>Node0x621a5e3aceb0</title>
<polygon fill="none" stroke="black" points="5458.5,-169.5 5458.5,-205.5 5733.5,-205.5 5733.5,-169.5 5458.5,-169.5"/>
<text text-anchor="middle" x="5596" y="-183.8" font-family="Times,serif" font-size="14.00">_ZNK14CIccProfileXml7NewCopyEv</text>
</g>
<!-- Node0x621a5e3aceb0&#45;&gt;Node0x621a5e3a9df0 -->
<g id="edge36" class="edge">
<title>Node0x621a5e3aceb0&#45;&gt;Node0x621a5e3a9df0</title>
<path fill="none" stroke="black" d="M5524.2,-169.39C5488.99,-160.43 5445.88,-148.65 5399.49,-132.96"/>
<polygon fill="black" stroke="black" points="5400.45,-129.59 5389.86,-129.67 5398.19,-136.22 5400.45,-129.59"/>
</g>
<!-- Node0x621a5e3a5580 -->
<g id="node45" class="node">
<title>Node0x621a5e3a5580</title>
<polygon fill="none" stroke="black" points="5408,-96.5 5408,-132.5 5476,-132.5 5476,-96.5 5408,-96.5"/>
<text text-anchor="middle" x="5442" y="-110.8" font-family="Times,serif" font-size="14.00">_Znwm</text>
</g>
<!-- Node0x621a5e3aceb0&#45;&gt;Node0x621a5e3a5580 -->
<g id="edge34" class="edge">
<title>Node0x621a5e3aceb0&#45;&gt;Node0x621a5e3a5580</title>
<path fill="none" stroke="black" d="M5559.11,-169.49C5536.98,-159.29 5508.71,-146.26 5485.49,-135.55"/>
<polygon fill="black" stroke="black" points="5486.76,-132.28 5476.21,-131.27 5483.83,-138.64 5486.76,-132.28"/>
</g>
<!-- Node0x621a5e3a5040 -->
<g id="node46" class="node">
<title>Node0x621a5e3a5040</title>
<polygon fill="none" stroke="black" points="5494,-96.5 5494,-132.5 5730,-132.5 5730,-96.5 5494,-96.5"/>
<text text-anchor="middle" x="5612" y="-110.8" font-family="Times,serif" font-size="14.00">_ZN14CIccProfileXmlC2ERKS_</text>
</g>
<!-- Node0x621a5e3aceb0&#45;&gt;Node0x621a5e3a5040 -->
<g id="edge35" class="edge">
<title>Node0x621a5e3aceb0&#45;&gt;Node0x621a5e3a5040</title>
<path fill="none" stroke="black" d="M5599.87,-169.31C5601.68,-161.29 5603.88,-151.55 5605.9,-142.57"/>
<polygon fill="black" stroke="black" points="5609.38,-143.05 5608.16,-132.53 5602.55,-141.51 5609.38,-143.05"/>
</g>
<!-- Node0x621a5e3c2950 -->
<g id="node52" class="node">
<title>Node0x621a5e3c2950</title>
<polygon fill="none" stroke="black" points="5508,-23.5 5508,-59.5 5716,-59.5 5716,-23.5 5508,-23.5"/>
<text text-anchor="middle" x="5612" y="-37.8" font-family="Times,serif" font-size="14.00">_ZN11CIccProfileC2ERKS_</text>
</g>
<!-- Node0x621a5e3a5040&#45;&gt;Node0x621a5e3c2950 -->
<g id="edge40" class="edge">
<title>Node0x621a5e3a5040&#45;&gt;Node0x621a5e3c2950</title>
<path fill="none" stroke="black" d="M5612,-96.31C5612,-88.29 5612,-78.55 5612,-69.57"/>
<polygon fill="black" stroke="black" points="5615.5,-69.53 5612,-59.53 5608.5,-69.53 5615.5,-69.53"/>
</g>
<!-- Node0x621a5e3a4e00 -->
<g id="node47" class="node">
<title>Node0x621a5e3a4e00</title>
<polygon fill="none" stroke="black" points="5146,-169.5 5146,-205.5 5440,-205.5 5440,-169.5 5146,-169.5"/>
<text text-anchor="middle" x="5293" y="-183.8" font-family="Times,serif" font-size="14.00">_ZNK14CIccProfileXml10NewProfileEv</text>
</g>
<!-- Node0x621a5e3a4e00&#45;&gt;Node0x621a5e3a2fa0 -->
<g id="edge38" class="edge">
<title>Node0x621a5e3a4e00&#45;&gt;Node0x621a5e3a2fa0</title>
<path fill="none" stroke="black" d="M5271.21,-169.31C5259.61,-160.16 5245.16,-148.76 5232.56,-138.82"/>
<polygon fill="black" stroke="black" points="5234.6,-135.97 5224.59,-132.53 5230.27,-141.47 5234.6,-135.97"/>
</g>
<!-- Node0x621a5e3a4e00&#45;&gt;Node0x621a5e3a9df0 -->
<g id="edge39" class="edge">
<title>Node0x621a5e3a4e00&#45;&gt;Node0x621a5e3a9df0</title>
<path fill="none" stroke="black" d="M5308.49,-169.31C5316.43,-160.5 5326.24,-149.63 5334.95,-139.96"/>
<polygon fill="black" stroke="black" points="5337.55,-142.3 5341.65,-132.53 5332.35,-137.61 5337.55,-142.3"/>
</g>
<!-- Node0x621a5e3a4e00&#45;&gt;Node0x621a5e3a5580 -->
<g id="edge37" class="edge">
<title>Node0x621a5e3a4e00&#45;&gt;Node0x621a5e3a5580</title>
<path fill="none" stroke="black" d="M5328.69,-169.49C5349.71,-159.48 5376.44,-146.74 5398.67,-136.15"/>
<polygon fill="black" stroke="black" points="5400.36,-139.22 5407.88,-131.76 5397.35,-132.9 5400.36,-139.22"/>
</g>
<!-- Node0x621a5e3ae8f0 -->
<g id="node48" class="node">
<title>Node0x621a5e3ae8f0</title>
<polygon fill="none" stroke="black" points="9221.5,-169.5 9221.5,-205.5 9542.5,-205.5 9542.5,-169.5 9221.5,-169.5"/>
<text text-anchor="middle" x="9382" y="-183.8" font-family="Times,serif" font-size="14.00">_ZNK14CIccProfileXml12GetClassNameEv</text>
</g>
<!-- Node0x621a5e3ae530 -->
<g id="node49" class="node">
<title>Node0x621a5e3ae530</title>
<polygon fill="none" stroke="black" points="9560.5,-169.5 9560.5,-205.5 9859.5,-205.5 9859.5,-169.5 9560.5,-169.5"/>
<text text-anchor="middle" x="9710" y="-183.8" font-family="Times,serif" font-size="14.00">_ZN11CIccProfile16getPccIlluminantEv</text>
</g>
<!-- Node0x621a5e3c36a0 -->
<g id="node50" class="node">
<title>Node0x621a5e3c36a0</title>
<polygon fill="none" stroke="black" points="9878,-169.5 9878,-205.5 10124,-205.5 10124,-169.5 9878,-169.5"/>
<text text-anchor="middle" x="10001" y="-183.8" font-family="Times,serif" font-size="14.00">_ZN11CIccProfile9getPccCCTEv</text>
</g>
<!-- Node0x621a5e3c2dd0 -->
<g id="node51" class="node">
<title>Node0x621a5e3c2dd0</title>
<polygon fill="none" stroke="black" points="10142.5,-169.5 10142.5,-205.5 10433.5,-205.5 10433.5,-169.5 10142.5,-169.5"/>
<text text-anchor="middle" x="10288" y="-183.8" font-family="Times,serif" font-size="14.00">_ZN11CIccProfile14getPccObserverEv</text>
</g>
</g>
</svg>
