<?xml version="1.0" encoding="UTF-8" standalone="no"?>
<!DOCTYPE svg PUBLIC "-//W3C//DTD SVG 1.1//EN"
 "http://www.w3.org/Graphics/SVG/1.1/DTD/svg11.dtd">
<!-- Generated by graphviz version 2.43.0 (0)
 -->
<!-- Title: Call graph: /home/h02332/po/research/call&#45;graph/cfl/icc_dump_fuzzer.ll Pages: 1 -->
<svg width="1149pt" height="2167pt"
 viewBox="0.00 0.00 1149.20 2167.20" xmlns="http://www.w3.org/2000/svg" xmlns:xlink="http://www.w3.org/1999/xlink">
<g id="graph0" class="graph" transform="scale(1 1) rotate(0) translate(21.6 2145.6)">
<title>Call graph: /home/h02332/po/research/call&#45;graph/cfl/icc_dump_fuzzer.ll</title>
<polygon fill="white" stroke="transparent" points="-21.6,21.6 -21.6,-2145.6 1127.6,-2145.6 1127.6,21.6 -21.6,21.6"/>
<!-- Node0x653508038de0 -->
<g id="node1" class="node">
<title>Node0x653508038de0</title>
<path fill="#f0f4ff" stroke="black" d="M216,-761C216,-761 112,-761 112,-761 106,-761 100,-755 100,-749 100,-749 100,-737 100,-737 100,-731 106,-725 112,-725 112,-725 216,-725 216,-725 222,-725 228,-731 228,-737 228,-737 228,-749 228,-749 228,-755 222,-761 216,-761"/>
<text text-anchor="middle" x="164" y="-740.8" font-family="Courier,monospace" font-size="9.00">__asan_default_options</text>
</g>
<!-- Node0x6535080447e0 -->
<g id="node2" class="node">
<title>Node0x6535080447e0</title>
<path fill="#f0f4ff" stroke="black" d="M187,-819C187,-819 141,-819 141,-819 135,-819 129,-813 129,-807 129,-807 129,-795 129,-795 129,-789 135,-783 141,-783 141,-783 187,-783 187,-783 193,-783 199,-789 199,-795 199,-795 199,-807 199,-807 199,-813 193,-819 187,-819"/>
<text text-anchor="middle" x="164" y="-798.8" font-family="Courier,monospace" font-size="9.00">icRealloc()</text>
</g>
<!-- Node0x653507d9f710 -->
<g id="node3" class="node">
<title>Node0x653507d9f710</title>
<path fill="#f0f4ff" stroke="black" d="M216,-877C216,-877 112,-877 112,-877 106,-877 100,-871 100,-865 100,-865 100,-853 100,-853 100,-847 106,-841 112,-841 112,-841 216,-841 216,-841 222,-841 228,-847 228,-853 228,-853 228,-865 228,-865 228,-871 222,-877 216,-877"/>
<text text-anchor="middle" x="164" y="-856.8" font-family="Courier,monospace" font-size="9.00">LLVMFuzzerTestOneInput</text>
</g>
<!-- Node0x653507d64580 -->
<g id="node4" class="node">
<title>Node0x653507d64580</title>
<path fill="#f0f4ff" stroke="black" d="M536,-1718C536,-1718 432,-1718 432,-1718 426,-1718 420,-1712 420,-1706 420,-1706 420,-1694 420,-1694 420,-1688 426,-1682 432,-1682 432,-1682 536,-1682 536,-1682 542,-1682 548,-1688 548,-1694 548,-1694 548,-1706 548,-1706 548,-1712 542,-1718 536,-1718"/>
<text text-anchor="middle" x="484" y="-1697.8" font-family="Courier,monospace" font-size="9.00">CIccMemIO::CIccMemIO()</text>
</g>
<!-- Node0x653507d9f710&#45;&gt;Node0x653507d64580 -->
<g id="edge1" class="edge">
<title>Node0x653507d9f710&#45;&gt;Node0x653507d64580</title>
<path fill="none" stroke="#4a6fa5" d="M208.65,-877.08C247.22,-895.56 301.36,-928.22 328,-975 404.81,-1109.86 288.2,-1550.49 386,-1671 393.31,-1680.01 403.3,-1686.3 414.1,-1690.67"/>
<polygon fill="#4a6fa5" stroke="#4a6fa5" points="413.45,-1692.67 419.81,-1692.79 414.91,-1688.74 413.45,-1692.67"/>
</g>
<!-- Node0x653507e0a540 -->
<g id="node5" class="node">
<title>Node0x653507e0a540</title>
<path fill="#f0f4ff" stroke="black" d="M528,-1660C528,-1660 440,-1660 440,-1660 434,-1660 428,-1654 428,-1648 428,-1648 428,-1636 428,-1636 428,-1630 434,-1624 440,-1624 440,-1624 528,-1624 528,-1624 534,-1624 540,-1630 540,-1636 540,-1636 540,-1648 540,-1648 540,-1654 534,-1660 528,-1660"/>
<text text-anchor="middle" x="484" y="-1639.8" font-family="Courier,monospace" font-size="9.00">CIccMemIO::Attach()</text>
</g>
<!-- Node0x653507d9f710&#45;&gt;Node0x653507e0a540 -->
<g id="edge2" class="edge">
<title>Node0x653507d9f710&#45;&gt;Node0x653507e0a540</title>
<path fill="none" stroke="#4a6fa5" d="M208.57,-877.12C247.08,-895.64 301.18,-928.32 328,-975 398.92,-1098.44 295.88,-1502.79 386,-1613 395.1,-1624.13 408.29,-1631.11 422.03,-1635.45"/>
<polygon fill="#4a6fa5" stroke="#4a6fa5" points="421.6,-1637.51 427.94,-1637.16 422.76,-1633.48 421.6,-1637.51"/>
</g>
<!-- Node0x653508057280 -->
<g id="node6" class="node">
<title>Node0x653508057280</title>
<path fill="#f0f4ff" stroke="black" d="M533.5,-1602C533.5,-1602 434.5,-1602 434.5,-1602 428.5,-1602 422.5,-1596 422.5,-1590 422.5,-1590 422.5,-1578 422.5,-1578 422.5,-1572 428.5,-1566 434.5,-1566 434.5,-1566 533.5,-1566 533.5,-1566 539.5,-1566 545.5,-1572 545.5,-1578 545.5,-1578 545.5,-1590 545.5,-1590 545.5,-1596 539.5,-1602 533.5,-1602"/>
<text text-anchor="middle" x="484" y="-1581.8" font-family="Courier,monospace" font-size="9.00">CIccInfo::~CIccInfo()</text>
</g>
<!-- Node0x653507d9f710&#45;&gt;Node0x653508057280 -->
<g id="edge3" class="edge">
<title>Node0x653507d9f710&#45;&gt;Node0x653508057280</title>
<path fill="none" stroke="#4a6fa5" d="M208.47,-877.18C246.92,-895.74 300.97,-928.44 328,-975 393.03,-1087.02 303.55,-1455.1 386,-1555 393.93,-1564.61 404.91,-1571.12 416.64,-1575.52"/>
<polygon fill="#4a6fa5" stroke="#4a6fa5" points="416.09,-1577.55 422.45,-1577.51 417.45,-1573.57 416.09,-1577.55"/>
</g>
<!-- Node0x653507e108b0 -->
<g id="node7" class="node">
<title>Node0x653507e108b0</title>
<path fill="#f0f4ff" stroke="black" d="M546.5,-1544C546.5,-1544 421.5,-1544 421.5,-1544 415.5,-1544 409.5,-1538 409.5,-1532 409.5,-1532 409.5,-1520 409.5,-1520 409.5,-1514 415.5,-1508 421.5,-1508 421.5,-1508 546.5,-1508 546.5,-1508 552.5,-1508 558.5,-1514 558.5,-1520 558.5,-1520 558.5,-1532 558.5,-1532 558.5,-1538 552.5,-1544 546.5,-1544"/>
<text text-anchor="middle" x="484" y="-1523.8" font-family="Courier,monospace" font-size="9.00">CIccProfile::CIccProfile()</text>
</g>
<!-- Node0x653507d9f710&#45;&gt;Node0x653507e108b0 -->
<g id="edge4" class="edge">
<title>Node0x653507d9f710&#45;&gt;Node0x653507e108b0</title>
<path fill="none" stroke="#4a6fa5" d="M207.98,-877.07C246.37,-895.64 300.63,-928.44 328,-975 446.3,-1176.23 236.43,-1317.79 386,-1497 391.03,-1503.02 397.25,-1507.83 404.09,-1511.65"/>
<polygon fill="#4a6fa5" stroke="#4a6fa5" points="403.14,-1513.53 409.44,-1514.39 405.06,-1509.79 403.14,-1513.53"/>
</g>
<!-- Node0x653507d7bf90 -->
<g id="node8" class="node">
<title>Node0x653507d7bf90</title>
<path fill="#f0f4ff" stroke="black" d="M528,-1486C528,-1486 440,-1486 440,-1486 434,-1486 428,-1480 428,-1474 428,-1474 428,-1462 428,-1462 428,-1456 434,-1450 440,-1450 440,-1450 528,-1450 528,-1450 534,-1450 540,-1456 540,-1462 540,-1462 540,-1474 540,-1474 540,-1480 534,-1486 528,-1486"/>
<text text-anchor="middle" x="484" y="-1465.8" font-family="Courier,monospace" font-size="9.00">CIccProfile::Read()</text>
</g>
<!-- Node0x653507d9f710&#45;&gt;Node0x653507d7bf90 -->
<g id="edge5" class="edge">
<title>Node0x653507d9f710&#45;&gt;Node0x653507d7bf90</title>
<path fill="none" stroke="#4a6fa5" d="M207.84,-877.16C246.12,-895.79 300.31,-928.63 328,-975 434.55,-1153.43 251.75,-1280.36 386,-1439 395.24,-1449.92 408.41,-1456.83 422.07,-1461.17"/>
<polygon fill="#4a6fa5" stroke="#4a6fa5" points="421.6,-1463.22 427.95,-1462.88 422.77,-1459.19 421.6,-1463.22"/>
</g>
<!-- Node0x653508056880 -->
<g id="node9" class="node">
<title>Node0x653508056880</title>
<path fill="#f0f4ff" stroke="black" d="M517.5,-1428C517.5,-1428 450.5,-1428 450.5,-1428 444.5,-1428 438.5,-1422 438.5,-1416 438.5,-1416 438.5,-1404 438.5,-1404 438.5,-1398 444.5,-1392 450.5,-1392 450.5,-1392 517.5,-1392 517.5,-1392 523.5,-1392 529.5,-1398 529.5,-1404 529.5,-1404 529.5,-1416 529.5,-1416 529.5,-1422 523.5,-1428 517.5,-1428"/>
<text text-anchor="middle" x="484" y="-1407.8" font-family="Courier,monospace" font-size="9.00">unordered_map()</text>
</g>
<!-- Node0x653507d9f710&#45;&gt;Node0x653508056880 -->
<g id="edge6" class="edge">
<title>Node0x653507d9f710&#45;&gt;Node0x653508056880</title>
<path fill="none" stroke="#4a6fa5" d="M207.28,-877.09C245.45,-895.77 299.81,-928.73 328,-975 422.82,-1130.67 267.04,-1242.9 386,-1381 397.55,-1394.4 415,-1401.75 431.94,-1405.73"/>
<polygon fill="#4a6fa5" stroke="#4a6fa5" points="431.84,-1407.86 438.15,-1407.05 432.72,-1403.75 431.84,-1407.86"/>
</g>
<!-- Node0x653508056ec0 -->
<g id="node10" class="node">
<title>Node0x653508056ec0</title>
<path fill="#f0f4ff" stroke="black" d="M552,-1370C552,-1370 416,-1370 416,-1370 410,-1370 404,-1364 404,-1358 404,-1358 404,-1346 404,-1346 404,-1340 410,-1334 416,-1334 416,-1334 552,-1334 552,-1334 558,-1334 564,-1340 564,-1346 564,-1346 564,-1358 564,-1358 564,-1364 558,-1370 552,-1370"/>
<text text-anchor="middle" x="484" y="-1349.8" font-family="Courier,monospace" font-size="9.00">CIccProfile::AreTagsUnique()</text>
</g>
<!-- Node0x653507d9f710&#45;&gt;Node0x653508056ec0 -->
<g id="edge7" class="edge">
<title>Node0x653507d9f710&#45;&gt;Node0x653508056ec0</title>
<path fill="none" stroke="#4a6fa5" d="M206.67,-877.06C244.68,-895.82 299.19,-928.91 328,-975 411.12,-1107.96 282.29,-1205.4 386,-1323 389.67,-1327.16 393.91,-1330.74 398.53,-1333.81"/>
<polygon fill="#4a6fa5" stroke="#4a6fa5" points="397.46,-1335.62 403.67,-1336.95 399.65,-1332.03 397.46,-1335.62"/>
</g>
<!-- Node0x653508055c00 -->
<g id="node11" class="node">
<title>Node0x653508055c00</title>
<path fill="#f0f4ff" stroke="black" d="M557,-1312C557,-1312 411,-1312 411,-1312 405,-1312 399,-1306 399,-1300 399,-1300 399,-1288 399,-1288 399,-1282 405,-1276 411,-1276 411,-1276 557,-1276 557,-1276 563,-1276 569,-1282 569,-1288 569,-1288 569,-1300 569,-1300 569,-1306 563,-1312 557,-1312"/>
<text text-anchor="middle" x="484" y="-1291.8" font-family="Courier,monospace" font-size="9.00">CIccProfile::GetSpaceSamples()</text>
</g>
<!-- Node0x653507d9f710&#45;&gt;Node0x653508055c00 -->
<g id="edge8" class="edge">
<title>Node0x653507d9f710&#45;&gt;Node0x653508055c00</title>
<path fill="none" stroke="#4a6fa5" d="M205.97,-877.09C243.76,-895.97 298.35,-929.23 328,-975 399.47,-1085.32 297.48,-1167.83 386,-1265 388.37,-1267.6 390.96,-1269.97 393.72,-1272.13"/>
<polygon fill="#4a6fa5" stroke="#4a6fa5" points="392.76,-1274.03 398.87,-1275.8 395.2,-1270.6 392.76,-1274.03"/>
</g>
<!-- Node0x653507e78cc0 -->
<g id="node12" class="node">
<title>Node0x653507e78cc0</title>
<path fill="#f0f4ff" stroke="black" d="M531,-1254C531,-1254 437,-1254 437,-1254 431,-1254 425,-1248 425,-1242 425,-1242 425,-1230 425,-1230 425,-1224 431,-1218 437,-1218 437,-1218 531,-1218 531,-1218 537,-1218 543,-1224 543,-1230 543,-1230 543,-1242 543,-1242 543,-1248 537,-1254 531,-1254"/>
<text text-anchor="middle" x="484" y="-1233.8" font-family="Courier,monospace" font-size="9.00">ValidateIccProfile()</text>
</g>
<!-- Node0x653507d9f710&#45;&gt;Node0x653507e78cc0 -->
<g id="edge9" class="edge">
<title>Node0x653507d9f710&#45;&gt;Node0x653507e78cc0</title>
<path fill="none" stroke="#4a6fa5" d="M204.78,-877.05C242.23,-896.1 297.08,-929.66 328,-975 387.89,-1062.8 312.58,-1130.15 386,-1207 394.87,-1216.28 406.58,-1222.63 418.78,-1226.96"/>
<polygon fill="#4a6fa5" stroke="#4a6fa5" points="418.44,-1229.06 424.8,-1228.93 419.74,-1225.07 418.44,-1229.06"/>
</g>
<!-- Node0x653507e22830 -->
<g id="node13" class="node">
<title>Node0x653507e22830</title>
<path fill="#f0f4ff" stroke="black" d="M531,-1196C531,-1196 437,-1196 437,-1196 431,-1196 425,-1190 425,-1184 425,-1184 425,-1172 425,-1172 425,-1166 431,-1160 437,-1160 437,-1160 531,-1160 531,-1160 537,-1160 543,-1166 543,-1172 543,-1172 543,-1184 543,-1184 543,-1190 537,-1196 531,-1196"/>
<text text-anchor="middle" x="484" y="-1175.8" font-family="Courier,monospace" font-size="9.00">CIccInfo::CIccInfo()</text>
</g>
<!-- Node0x653507d9f710&#45;&gt;Node0x653507e22830 -->
<g id="edge10" class="edge">
<title>Node0x653507d9f710&#45;&gt;Node0x653507e22830</title>
<path fill="none" stroke="#4a6fa5" d="M202.98,-877.04C239.88,-896.4 295.05,-930.47 328,-975 376.49,-1040.53 327.47,-1092.27 386,-1149 395.11,-1157.83 406.8,-1163.99 418.88,-1168.28"/>
<polygon fill="#4a6fa5" stroke="#4a6fa5" points="418.48,-1170.35 424.83,-1170.23 419.79,-1166.36 418.48,-1170.35"/>
</g>
<!-- Node0x653507e91690 -->
<g id="node14" class="node">
<title>Node0x653507e91690</title>
<path fill="#f0f4ff" stroke="black" d="M554.5,-1138C554.5,-1138 413.5,-1138 413.5,-1138 407.5,-1138 401.5,-1132 401.5,-1126 401.5,-1126 401.5,-1114 401.5,-1114 401.5,-1108 407.5,-1102 413.5,-1102 413.5,-1102 554.5,-1102 554.5,-1102 560.5,-1102 566.5,-1108 566.5,-1114 566.5,-1114 566.5,-1126 566.5,-1126 566.5,-1132 560.5,-1138 554.5,-1138"/>
<text text-anchor="middle" x="484" y="-1117.8" font-family="Courier,monospace" font-size="9.00">CIccInfo::GetDeviceAttrName()</text>
</g>
<!-- Node0x653507d9f710&#45;&gt;Node0x653507e91690 -->
<g id="edge11" class="edge">
<title>Node0x653507d9f710&#45;&gt;Node0x653507e91690</title>
<path fill="none" stroke="#4a6fa5" d="M199.99,-877.14C235.86,-897.16 291.41,-932.25 328,-975 365.48,-1018.79 341.87,-1053.92 386,-1091 389.42,-1093.88 393.12,-1096.47 397.01,-1098.8"/>
<polygon fill="#4a6fa5" stroke="#4a6fa5" points="396.16,-1100.73 402.42,-1101.83 398.21,-1097.07 396.16,-1100.73"/>
</g>
<!-- Node0x653507eed2f0 -->
<g id="node15" class="node">
<title>Node0x653507eed2f0</title>
<path fill="#f0f4ff" stroke="black" d="M559.5,-1080C559.5,-1080 408.5,-1080 408.5,-1080 402.5,-1080 396.5,-1074 396.5,-1068 396.5,-1068 396.5,-1056 396.5,-1056 396.5,-1050 402.5,-1044 408.5,-1044 408.5,-1044 559.5,-1044 559.5,-1044 565.5,-1044 571.5,-1050 571.5,-1056 571.5,-1056 571.5,-1068 571.5,-1068 571.5,-1074 565.5,-1080 559.5,-1080"/>
<text text-anchor="middle" x="484" y="-1059.8" font-family="Courier,monospace" font-size="9.00">CIccInfo::GetProfileFlagsName()</text>
</g>
<!-- Node0x653507d9f710&#45;&gt;Node0x653507eed2f0 -->
<g id="edge12" class="edge">
<title>Node0x653507d9f710&#45;&gt;Node0x653507eed2f0</title>
<path fill="none" stroke="#4a6fa5" d="M193.45,-877.15C226.83,-898.91 283.31,-937.21 328,-975 355.84,-998.54 354.69,-1014.32 386,-1033 391.26,-1036.14 396.89,-1038.96 402.69,-1041.5"/>
<polygon fill="#4a6fa5" stroke="#4a6fa5" points="402.19,-1043.57 408.54,-1043.94 403.81,-1039.69 402.19,-1043.57"/>
</g>
<!-- Node0x653507eaf190 -->
<g id="node16" class="node">
<title>Node0x653507eaf190</title>
<path fill="#f0f4ff" stroke="black" d="M557,-1022C557,-1022 411,-1022 411,-1022 405,-1022 399,-1016 399,-1010 399,-1010 399,-998 399,-998 399,-992 405,-986 411,-986 411,-986 557,-986 557,-986 563,-986 569,-992 569,-998 569,-998 569,-1010 569,-1010 569,-1016 563,-1022 557,-1022"/>
<text text-anchor="middle" x="484" y="-1001.8" font-family="Courier,monospace" font-size="9.00">CIccInfo::GetPlatformSigName()</text>
</g>
<!-- Node0x653507d9f710&#45;&gt;Node0x653507eaf190 -->
<g id="edge13" class="edge">
<title>Node0x653507d9f710&#45;&gt;Node0x653507eaf190</title>
<path fill="none" stroke="#4a6fa5" d="M194.86,-877.05C236.52,-901.68 314.97,-946.06 386,-975 393.87,-978.21 402.23,-981.24 410.6,-984.04"/>
<polygon fill="#4a6fa5" stroke="#4a6fa5" points="410.05,-986.07 416.4,-985.95 411.36,-982.08 410.05,-986.07"/>
</g>
<!-- Node0x653507e8a9f0 -->
<g id="node17" class="node">
<title>Node0x653507e8a9f0</title>
<path fill="#f0f4ff" stroke="black" d="M544,-964C544,-964 424,-964 424,-964 418,-964 412,-958 412,-952 412,-952 412,-940 412,-940 412,-934 418,-928 424,-928 424,-928 544,-928 544,-928 550,-928 556,-934 556,-940 556,-940 556,-952 556,-952 556,-958 550,-964 544,-964"/>
<text text-anchor="middle" x="484" y="-943.8" font-family="Courier,monospace" font-size="9.00">CIccInfo::GetCmmSigName()</text>
</g>
<!-- Node0x653507d9f710&#45;&gt;Node0x653507e8a9f0 -->
<g id="edge14" class="edge">
<title>Node0x653507d9f710&#45;&gt;Node0x653507e8a9f0</title>
<path fill="none" stroke="#4a6fa5" d="M228.21,-876.29C280.98,-890.73 356.21,-911.31 411.24,-926.37"/>
<polygon fill="#4a6fa5" stroke="#4a6fa5" points="410.84,-928.43 417.18,-927.99 411.94,-924.38 410.84,-928.43"/>
</g>
<!-- Node0x653507efa640 -->
<g id="node18" class="node">
<title>Node0x653507efa640</title>
<path fill="#f0f4ff" stroke="black" d="M567.5,-906C567.5,-906 400.5,-906 400.5,-906 394.5,-906 388.5,-900 388.5,-894 388.5,-894 388.5,-882 388.5,-882 388.5,-876 394.5,-870 400.5,-870 400.5,-870 567.5,-870 567.5,-870 573.5,-870 579.5,-876 579.5,-882 579.5,-882 579.5,-894 579.5,-894 579.5,-900 573.5,-906 567.5,-906"/>
<text text-anchor="middle" x="484" y="-885.8" font-family="Courier,monospace" font-size="9.00">CIccInfo::GetRenderingIntentName()</text>
</g>
<!-- Node0x653507d9f710&#45;&gt;Node0x653507efa640 -->
<g id="edge15" class="edge">
<title>Node0x653507d9f710&#45;&gt;Node0x653507efa640</title>
<path fill="none" stroke="#4a6fa5" d="M228.21,-864.76C272.16,-868.77 331.67,-874.2 382.13,-878.8"/>
<polygon fill="#4a6fa5" stroke="#4a6fa5" points="382.07,-880.9 388.24,-879.36 382.45,-876.72 382.07,-880.9"/>
</g>
<!-- Node0x653507f8f2d0 -->
<g id="node19" class="node">
<title>Node0x653507f8f2d0</title>
<path fill="#f0f4ff" stroke="black" d="M567.5,-848C567.5,-848 400.5,-848 400.5,-848 394.5,-848 388.5,-842 388.5,-836 388.5,-836 388.5,-824 388.5,-824 388.5,-818 394.5,-812 400.5,-812 400.5,-812 567.5,-812 567.5,-812 573.5,-812 579.5,-818 579.5,-824 579.5,-824 579.5,-836 579.5,-836 579.5,-842 573.5,-848 567.5,-848"/>
<text text-anchor="middle" x="484" y="-827.8" font-family="Courier,monospace" font-size="9.00">CIccInfo::GetProfileClassSigName()</text>
</g>
<!-- Node0x653507d9f710&#45;&gt;Node0x653507f8f2d0 -->
<g id="edge16" class="edge">
<title>Node0x653507d9f710&#45;&gt;Node0x653507f8f2d0</title>
<path fill="none" stroke="#4a6fa5" d="M228.21,-853.24C272.16,-849.23 331.67,-843.8 382.13,-839.2"/>
<polygon fill="#4a6fa5" stroke="#4a6fa5" points="382.45,-841.28 388.24,-838.64 382.07,-837.1 382.45,-841.28"/>
</g>
<!-- Node0x653507f6b6d0 -->
<g id="node20" class="node">
<title>Node0x653507f6b6d0</title>
<path fill="#f0f4ff" stroke="black" d="M562.5,-790C562.5,-790 405.5,-790 405.5,-790 399.5,-790 393.5,-784 393.5,-778 393.5,-778 393.5,-766 393.5,-766 393.5,-760 399.5,-754 405.5,-754 405.5,-754 562.5,-754 562.5,-754 568.5,-754 574.5,-760 574.5,-766 574.5,-766 574.5,-778 574.5,-778 574.5,-784 568.5,-790 562.5,-790"/>
<text text-anchor="middle" x="484" y="-769.8" font-family="Courier,monospace" font-size="9.00">CIccInfo::GetColorSpaceSigName()</text>
</g>
<!-- Node0x653507d9f710&#45;&gt;Node0x653507f6b6d0 -->
<g id="edge17" class="edge">
<title>Node0x653507d9f710&#45;&gt;Node0x653507f6b6d0</title>
<path fill="none" stroke="#4a6fa5" d="M228.35,-852.04C258.97,-847.6 295.94,-840.62 328,-830 355.36,-820.94 359.2,-811.61 386,-801 394.03,-797.82 402.56,-794.79 411.09,-791.97"/>
<polygon fill="#4a6fa5" stroke="#4a6fa5" points="411.93,-793.91 416.99,-790.06 410.63,-789.91 411.93,-793.91"/>
</g>
<!-- Node0x653508055120 -->
<g id="node21" class="node">
<title>Node0x653508055120</title>
<path fill="#f0f4ff" stroke="black" d="M554.5,-732C554.5,-732 413.5,-732 413.5,-732 407.5,-732 401.5,-726 401.5,-720 401.5,-720 401.5,-708 401.5,-708 401.5,-702 407.5,-696 413.5,-696 413.5,-696 554.5,-696 554.5,-696 560.5,-696 566.5,-702 566.5,-708 566.5,-708 566.5,-720 566.5,-720 566.5,-726 560.5,-732 554.5,-732"/>
<text text-anchor="middle" x="484" y="-711.8" font-family="Courier,monospace" font-size="9.00">CIccInfo::GetTagTypeSigName()</text>
</g>
<!-- Node0x653507d9f710&#45;&gt;Node0x653508055120 -->
<g id="edge18" class="edge">
<title>Node0x653507d9f710&#45;&gt;Node0x653508055120</title>
<path fill="none" stroke="#4a6fa5" d="M228.11,-859.26C260.26,-856.69 298.66,-849.2 328,-830 366.89,-804.55 348.63,-770.63 386,-743 390.06,-740 394.44,-737.3 399,-734.88"/>
<polygon fill="#4a6fa5" stroke="#4a6fa5" points="400.01,-736.73 404.44,-732.17 398.13,-732.97 400.01,-736.73"/>
</g>
<!-- Node0x653507f604a0 -->
<g id="node22" class="node">
<title>Node0x653507f604a0</title>
<path fill="#f0f4ff" stroke="black" d="M546.5,-674C546.5,-674 421.5,-674 421.5,-674 415.5,-674 409.5,-668 409.5,-662 409.5,-662 409.5,-650 409.5,-650 409.5,-644 415.5,-638 421.5,-638 421.5,-638 546.5,-638 546.5,-638 552.5,-638 558.5,-644 558.5,-650 558.5,-650 558.5,-662 558.5,-662 558.5,-668 552.5,-674 546.5,-674"/>
<text text-anchor="middle" x="484" y="-653.8" font-family="Courier,monospace" font-size="9.00">CIccInfo::GetVersionName()</text>
</g>
<!-- Node0x653507d9f710&#45;&gt;Node0x653507f604a0 -->
<g id="edge19" class="edge">
<title>Node0x653507d9f710&#45;&gt;Node0x653507f604a0</title>
<path fill="none" stroke="#4a6fa5" d="M228.27,-861.77C261.25,-860.01 300.36,-852.5 328,-830 381.83,-786.18 334.76,-731.82 386,-685 391.27,-680.18 397.31,-676.16 403.75,-672.81"/>
<polygon fill="#4a6fa5" stroke="#4a6fa5" points="404.75,-674.66 409.23,-670.15 402.92,-670.88 404.75,-674.66"/>
</g>
<!-- Node0x653507fa10b0 -->
<g id="node23" class="node">
<title>Node0x653507fa10b0</title>
<path fill="#f0f4ff" stroke="black" d="M570,-616C570,-616 398,-616 398,-616 392,-616 386,-610 386,-604 386,-604 386,-592 386,-592 386,-586 392,-580 398,-580 398,-580 570,-580 570,-580 576,-580 582,-586 582,-592 582,-592 582,-604 582,-604 582,-610 576,-616 570,-616"/>
<text text-anchor="middle" x="484" y="-595.8" font-family="Courier,monospace" font-size="9.00">CIccInfo::GetSpectralColorSigName()</text>
</g>
<!-- Node0x653507d9f710&#45;&gt;Node0x653507fa10b0 -->
<g id="edge20" class="edge">
<title>Node0x653507d9f710&#45;&gt;Node0x653507fa10b0</title>
<path fill="none" stroke="#4a6fa5" d="M228.01,-862.92C261.53,-861.61 301.22,-854.17 328,-830 397.65,-767.13 320.06,-693.75 386,-627 388.76,-624.21 391.77,-621.69 394.97,-619.4"/>
<polygon fill="#4a6fa5" stroke="#4a6fa5" points="396.28,-621.05 400.15,-616.01 393.98,-617.54 396.28,-621.05"/>
</g>
<!-- Node0x653507d19490 -->
<g id="node24" class="node">
<title>Node0x653507d19490</title>
<path fill="#f0f4ff" stroke="black" d="M565,-558C565,-558 403,-558 403,-558 397,-558 391,-552 391,-546 391,-546 391,-534 391,-534 391,-528 397,-522 403,-522 403,-522 565,-522 565,-522 571,-522 577,-528 577,-534 577,-534 577,-546 577,-546 577,-552 571,-558 565,-558"/>
<text text-anchor="middle" x="484" y="-537.8" font-family="Courier,monospace" font-size="9.00">CIccInfo::IsProfileIDCalculated()</text>
</g>
<!-- Node0x653507d9f710&#45;&gt;Node0x653507d19490 -->
<g id="edge21" class="edge">
<title>Node0x653507d9f710&#45;&gt;Node0x653507d19490</title>
<path fill="none" stroke="#4a6fa5" d="M228.18,-863.55C261.96,-862.47 301.85,-855.06 328,-830 413.8,-747.78 305.05,-655.99 386,-569 388.47,-566.35 391.17,-563.93 394.05,-561.74"/>
<polygon fill="#4a6fa5" stroke="#4a6fa5" points="395.68,-563.16 399.42,-558.01 393.29,-559.71 395.68,-563.16"/>
</g>
<!-- Node0x653507d1c490 -->
<g id="node25" class="node">
<title>Node0x653507d1c490</title>
<path fill="#f0f4ff" stroke="black" d="M541.5,-500C541.5,-500 426.5,-500 426.5,-500 420.5,-500 414.5,-494 414.5,-488 414.5,-488 414.5,-476 414.5,-476 414.5,-470 420.5,-464 426.5,-464 426.5,-464 541.5,-464 541.5,-464 547.5,-464 553.5,-470 553.5,-476 553.5,-476 553.5,-488 553.5,-488 553.5,-494 547.5,-500 541.5,-500"/>
<text text-anchor="middle" x="484" y="-479.8" font-family="Courier,monospace" font-size="9.00">CIccInfo::GetProfileID()</text>
</g>
<!-- Node0x653507d9f710&#45;&gt;Node0x653507d1c490 -->
<g id="edge22" class="edge">
<title>Node0x653507d9f710&#45;&gt;Node0x653507d1c490</title>
<path fill="none" stroke="#4a6fa5" d="M228.16,-863.95C262.14,-863.04 302.24,-855.66 328,-830 430.09,-728.3 289.9,-618.37 386,-511 392.19,-504.08 399.96,-498.79 408.38,-494.73"/>
<polygon fill="#4a6fa5" stroke="#4a6fa5" points="409.66,-496.46 414.31,-492.12 407.97,-492.62 409.66,-496.46"/>
</g>
<!-- Node0x653507ffca30 -->
<g id="node26" class="node">
<title>Node0x653507ffca30</title>
<path fill="#f0f4ff" stroke="black" d="M567.5,-442C567.5,-442 400.5,-442 400.5,-442 394.5,-442 388.5,-436 388.5,-430 388.5,-430 388.5,-418 388.5,-418 388.5,-412 394.5,-406 400.5,-406 400.5,-406 567.5,-406 567.5,-406 573.5,-406 579.5,-412 579.5,-418 579.5,-418 579.5,-430 579.5,-430 579.5,-436 573.5,-442 567.5,-442"/>
<text text-anchor="middle" x="484" y="-421.8" font-family="Courier,monospace" font-size="9.00">CIccInfo::GetSubClassVersionName()</text>
</g>
<!-- Node0x653507d9f710&#45;&gt;Node0x653507ffca30 -->
<g id="edge23" class="edge">
<title>Node0x653507d9f710&#45;&gt;Node0x653507ffca30</title>
<path fill="none" stroke="#4a6fa5" d="M228.02,-864.22C262.18,-863.45 302.49,-856.11 328,-830 446.46,-708.73 274.67,-580.85 386,-453 388.31,-450.35 390.85,-447.94 393.57,-445.74"/>
<polygon fill="#4a6fa5" stroke="#4a6fa5" points="395.05,-447.25 398.65,-442.01 392.57,-443.87 395.05,-447.25"/>
</g>
<!-- Node0x653507d1b3f0 -->
<g id="node27" class="node">
<title>Node0x653507d1b3f0</title>
<path fill="#f0f4ff" stroke="black" d="M502,-384C502,-384 466,-384 466,-384 460,-384 454,-378 454,-372 454,-372 454,-360 454,-360 454,-354 460,-348 466,-348 466,-348 502,-348 502,-348 508,-348 514,-354 514,-360 514,-360 514,-372 514,-372 514,-378 508,-384 502,-384"/>
<text text-anchor="middle" x="484" y="-363.8" font-family="Courier,monospace" font-size="9.00">reserve()</text>
</g>
<!-- Node0x653507d9f710&#45;&gt;Node0x653507d1b3f0 -->
<g id="edge24" class="edge">
<title>Node0x653507d9f710&#45;&gt;Node0x653507d1b3f0</title>
<path fill="none" stroke="#4a6fa5" d="M228.22,-864.42C262.44,-863.71 302.76,-856.37 328,-830 462.88,-689.11 259.39,-543.37 386,-395 401.16,-377.23 426.72,-370.1 447.79,-367.34"/>
<polygon fill="#4a6fa5" stroke="#4a6fa5" points="448.17,-369.41 453.89,-366.65 447.69,-365.24 448.17,-369.41"/>
</g>
<!-- Node0x653507d19200 -->
<g id="node28" class="node">
<title>Node0x653507d19200</title>
<path fill="#f0f4ff" stroke="black" d="M517.5,-326C517.5,-326 450.5,-326 450.5,-326 444.5,-326 438.5,-320 438.5,-314 438.5,-314 438.5,-302 438.5,-302 438.5,-296 444.5,-290 450.5,-290 450.5,-290 517.5,-290 517.5,-290 523.5,-290 529.5,-296 529.5,-302 529.5,-302 529.5,-314 529.5,-314 529.5,-320 523.5,-326 517.5,-326"/>
<text text-anchor="middle" x="484" y="-305.8" font-family="Courier,monospace" font-size="9.00">unordered_map()</text>
</g>
<!-- Node0x653507d9f710&#45;&gt;Node0x653507d19200 -->
<g id="edge25" class="edge">
<title>Node0x653507d9f710&#45;&gt;Node0x653507d19200</title>
<path fill="none" stroke="#4a6fa5" d="M228.38,-864.56C262.65,-863.91 302.96,-856.56 328,-830 479.34,-669.47 244.09,-505.93 386,-337 397.48,-323.34 415.11,-315.95 432.21,-312.01"/>
<polygon fill="#4a6fa5" stroke="#4a6fa5" points="433.02,-313.98 438.47,-310.71 432.17,-309.87 433.02,-313.98"/>
</g>
<!-- Node0x6535080555c0 -->
<g id="node29" class="node">
<title>Node0x6535080555c0</title>
<path fill="#f0f4ff" stroke="black" d="M544,-268C544,-268 424,-268 424,-268 418,-268 412,-262 412,-256 412,-256 412,-244 412,-244 412,-238 418,-232 424,-232 424,-232 544,-232 544,-232 550,-232 556,-238 556,-244 556,-244 556,-256 556,-256 556,-262 550,-268 544,-268"/>
<text text-anchor="middle" x="484" y="-247.8" font-family="Courier,monospace" font-size="9.00">CIccInfo::GetTagSigName()</text>
</g>
<!-- Node0x653507d9f710&#45;&gt;Node0x6535080555c0 -->
<g id="edge26" class="edge">
<title>Node0x653507d9f710&#45;&gt;Node0x6535080555c0</title>
<path fill="none" stroke="#4a6fa5" d="M228.1,-864.69C262.5,-864.12 303.03,-856.82 328,-830 495.81,-649.79 228.77,-468.51 386,-279 391.56,-272.3 398.61,-267.1 406.35,-263.08"/>
<polygon fill="#4a6fa5" stroke="#4a6fa5" points="407.3,-264.96 411.81,-260.48 405.49,-261.16 407.3,-264.96"/>
</g>
<!-- Node0x653508055840 -->
<g id="node30" class="node">
<title>Node0x653508055840</title>
<path fill="#f0f4ff" stroke="black" d="M499.5,-210C499.5,-210 468.5,-210 468.5,-210 462.5,-210 456.5,-204 456.5,-198 456.5,-198 456.5,-186 456.5,-186 456.5,-180 462.5,-174 468.5,-174 468.5,-174 499.5,-174 499.5,-174 505.5,-174 511.5,-180 511.5,-186 511.5,-186 511.5,-198 511.5,-198 511.5,-204 505.5,-210 499.5,-210"/>
<text text-anchor="middle" x="484" y="-189.8" font-family="Courier,monospace" font-size="9.00">resize()</text>
</g>
<!-- Node0x653507d9f710&#45;&gt;Node0x653508055840 -->
<g id="edge27" class="edge">
<title>Node0x653507d9f710&#45;&gt;Node0x653508055840</title>
<path fill="none" stroke="#4a6fa5" d="M228.2,-864.78C262.63,-864.24 303.16,-856.94 328,-830 420.15,-730.05 299.72,-326.05 386,-221 401.43,-202.21 428.51,-195.26 450.15,-192.84"/>
<polygon fill="#4a6fa5" stroke="#4a6fa5" points="450.6,-194.91 456.38,-192.25 450.2,-190.72 450.6,-194.91"/>
</g>
<!-- Node0x6535080533e0 -->
<g id="node31" class="node">
<title>Node0x6535080533e0</title>
<path fill="#f0f4ff" stroke="black" d="M502,-152C502,-152 466,-152 466,-152 460,-152 454,-146 454,-140 454,-140 454,-128 454,-128 454,-122 460,-116 466,-116 466,-116 502,-116 502,-116 508,-116 514,-122 514,-128 514,-128 514,-140 514,-140 514,-146 508,-152 502,-152"/>
<text text-anchor="middle" x="484" y="-131.8" font-family="Courier,monospace" font-size="9.00">reserve()</text>
</g>
<!-- Node0x653507d9f710&#45;&gt;Node0x6535080533e0 -->
<g id="edge28" class="edge">
<title>Node0x653507d9f710&#45;&gt;Node0x6535080533e0</title>
<path fill="none" stroke="#4a6fa5" d="M228.28,-864.86C262.74,-864.34 303.27,-857.04 328,-830 428.4,-720.2 292.04,-278.36 386,-163 400.75,-144.89 426.32,-137.77 447.51,-135.1"/>
<polygon fill="#4a6fa5" stroke="#4a6fa5" points="447.9,-137.17 453.64,-134.44 447.45,-133 447.9,-137.17"/>
</g>
<!-- Node0x653508051d70 -->
<g id="node32" class="node">
<title>Node0x653508051d70</title>
<path fill="#f0f4ff" stroke="black" d="M499,-94C499,-94 469,-94 469,-94 463,-94 457,-88 457,-82 457,-82 457,-70 457,-70 457,-64 463,-58 469,-58 469,-58 499,-58 499,-58 505,-58 511,-64 511,-70 511,-70 511,-82 511,-82 511,-88 505,-94 499,-94"/>
<text text-anchor="middle" x="484" y="-73.8" font-family="Courier,monospace" font-size="9.00">cend()</text>
</g>
<!-- Node0x653507d9f710&#45;&gt;Node0x653508051d70 -->
<g id="edge29" class="edge">
<title>Node0x653507d9f710&#45;&gt;Node0x653508051d70</title>
<path fill="none" stroke="#4a6fa5" d="M228.36,-864.92C262.83,-864.43 303.36,-857.13 328,-830 436.66,-710.35 284.36,-230.67 386,-105 401.46,-85.89 428.98,-79 450.76,-76.69"/>
<polygon fill="#4a6fa5" stroke="#4a6fa5" points="450.95,-78.78 456.74,-76.15 450.58,-74.6 450.95,-78.78"/>
</g>
<!-- Node0x6535080523c0 -->
<g id="node33" class="node">
<title>Node0x6535080523c0</title>
<path fill="#f0f4ff" stroke="black" d="M499.5,-36C499.5,-36 468.5,-36 468.5,-36 462.5,-36 456.5,-30 456.5,-24 456.5,-24 456.5,-12 456.5,-12 456.5,-6 462.5,0 468.5,0 468.5,0 499.5,0 499.5,0 505.5,0 511.5,-6 511.5,-12 511.5,-12 511.5,-24 511.5,-24 511.5,-30 505.5,-36 499.5,-36"/>
<text text-anchor="middle" x="484" y="-15.8" font-family="Courier,monospace" font-size="9.00">cbegin()</text>
</g>
<!-- Node0x653507d9f710&#45;&gt;Node0x6535080523c0 -->
<g id="edge30" class="edge">
<title>Node0x653507d9f710&#45;&gt;Node0x6535080523c0</title>
<path fill="none" stroke="#4a6fa5" d="M228.01,-864.98C262.6,-864.56 303.35,-857.31 328,-830 444.92,-700.49 276.68,-182.98 386,-47 401.24,-28.05 428.33,-21.11 450.02,-18.74"/>
<polygon fill="#4a6fa5" stroke="#4a6fa5" points="450.49,-20.8 456.27,-18.16 450.1,-16.62 450.49,-20.8"/>
</g>
<!-- Node0x653508062620 -->
<g id="node38" class="node">
<title>Node0x653508062620</title>
<path fill="#f0f4ff" stroke="black" d="M722,-1428C722,-1428 670,-1428 670,-1428 664,-1428 658,-1422 658,-1416 658,-1416 658,-1404 658,-1404 658,-1398 664,-1392 670,-1392 670,-1392 722,-1392 722,-1392 728,-1392 734,-1398 734,-1404 734,-1404 734,-1416 734,-1416 734,-1422 728,-1428 722,-1428"/>
<text text-anchor="middle" x="696" y="-1407.8" font-family="Courier,monospace" font-size="9.00">_Hashtable()</text>
</g>
<!-- Node0x653508056880&#45;&gt;Node0x653508062620 -->
<g id="edge36" class="edge">
<title>Node0x653508056880&#45;&gt;Node0x653508062620</title>
<path fill="none" stroke="#4a6fa5" d="M529.54,-1410C565.61,-1410 616.14,-1410 651.84,-1410"/>
<polygon fill="#4a6fa5" stroke="#4a6fa5" points="651.89,-1412.1 657.89,-1410 651.89,-1407.9 651.89,-1412.1"/>
</g>
<!-- Node0x65350805e4a0 -->
<g id="node34" class="node">
<title>Node0x65350805e4a0</title>
<path fill="#f0f4ff" stroke="black" d="M716.5,-442C716.5,-442 675.5,-442 675.5,-442 669.5,-442 663.5,-436 663.5,-430 663.5,-430 663.5,-418 663.5,-418 663.5,-412 669.5,-406 675.5,-406 675.5,-406 716.5,-406 716.5,-406 722.5,-406 728.5,-412 728.5,-418 728.5,-418 728.5,-430 728.5,-430 728.5,-436 722.5,-442 716.5,-442"/>
<text text-anchor="middle" x="696" y="-421.8" font-family="Courier,monospace" font-size="9.00">max_size()</text>
</g>
<!-- Node0x653507d1b3f0&#45;&gt;Node0x65350805e4a0 -->
<g id="edge31" class="edge">
<title>Node0x653507d1b3f0&#45;&gt;Node0x65350805e4a0</title>
<path fill="none" stroke="#4a6fa5" d="M514.2,-374.06C551.58,-384.39 616.41,-402.29 657.43,-413.62"/>
<polygon fill="#4a6fa5" stroke="#4a6fa5" points="656.96,-415.67 663.31,-415.25 658.08,-411.62 656.96,-415.67"/>
</g>
<!-- Node0x65350805d820 -->
<g id="node35" class="node">
<title>Node0x65350805d820</title>
<path fill="#f0f4ff" stroke="black" d="M716.5,-384C716.5,-384 675.5,-384 675.5,-384 669.5,-384 663.5,-378 663.5,-372 663.5,-372 663.5,-360 663.5,-360 663.5,-354 669.5,-348 675.5,-348 675.5,-348 716.5,-348 716.5,-348 722.5,-348 728.5,-354 728.5,-360 728.5,-360 728.5,-372 728.5,-372 728.5,-378 722.5,-384 716.5,-384"/>
<text text-anchor="middle" x="696" y="-363.8" font-family="Courier,monospace" font-size="9.00">capacity()</text>
</g>
<!-- Node0x653507d1b3f0&#45;&gt;Node0x65350805d820 -->
<g id="edge32" class="edge">
<title>Node0x653507d1b3f0&#45;&gt;Node0x65350805d820</title>
<path fill="none" stroke="#4a6fa5" d="M514.2,-366C551.5,-366 616.14,-366 657.18,-366"/>
<polygon fill="#4a6fa5" stroke="#4a6fa5" points="657.31,-368.1 663.31,-366 657.31,-363.9 657.31,-368.1"/>
</g>
<!-- Node0x65350805fa60 -->
<g id="node36" class="node">
<title>Node0x65350805fa60</title>
<path fill="#f0f4ff" stroke="black" d="M722,-326C722,-326 670,-326 670,-326 664,-326 658,-320 658,-314 658,-314 658,-302 658,-302 658,-296 664,-290 670,-290 670,-290 722,-290 722,-290 728,-290 734,-296 734,-302 734,-302 734,-314 734,-314 734,-320 728,-326 722,-326"/>
<text text-anchor="middle" x="696" y="-305.8" font-family="Courier,monospace" font-size="9.00">_Hashtable()</text>
</g>
<!-- Node0x653507d19200&#45;&gt;Node0x65350805fa60 -->
<g id="edge33" class="edge">
<title>Node0x653507d19200&#45;&gt;Node0x65350805fa60</title>
<path fill="none" stroke="#4a6fa5" d="M529.54,-308C565.61,-308 616.14,-308 651.84,-308"/>
<polygon fill="#4a6fa5" stroke="#4a6fa5" points="651.89,-310.1 657.89,-308 651.89,-305.9 651.89,-310.1"/>
</g>
<!-- Node0x6535080629e0 -->
<g id="node37" class="node">
<title>Node0x6535080629e0</title>
<path fill="#f0f4ff" stroke="black" d="M740,-65C740,-65 652,-65 652,-65 646,-65 640,-59 640,-53 640,-53 640,-41 640,-41 640,-35 646,-29 652,-29 652,-29 740,-29 740,-29 746,-29 752,-35 752,-41 752,-41 752,-53 752,-53 752,-59 746,-65 740,-65"/>
<text text-anchor="middle" x="696" y="-44.8" font-family="Courier,monospace" font-size="9.00">__normal_iterator()</text>
</g>
<!-- Node0x653508051d70&#45;&gt;Node0x6535080629e0 -->
<g id="edge35" class="edge">
<title>Node0x653508051d70&#45;&gt;Node0x6535080629e0</title>
<path fill="none" stroke="#4a6fa5" d="M511.17,-72.39C541.61,-68.18 592.86,-61.11 633.53,-55.49"/>
<polygon fill="#4a6fa5" stroke="#4a6fa5" points="634.05,-57.54 639.7,-54.64 633.47,-53.38 634.05,-57.54"/>
</g>
<!-- Node0x6535080523c0&#45;&gt;Node0x6535080629e0 -->
<g id="edge34" class="edge">
<title>Node0x6535080523c0&#45;&gt;Node0x6535080629e0</title>
<path fill="none" stroke="#4a6fa5" d="M511.6,-21.67C542.15,-25.89 593.27,-32.95 633.79,-38.55"/>
<polygon fill="#4a6fa5" stroke="#4a6fa5" points="633.71,-40.66 639.94,-39.4 634.28,-36.5 633.71,-40.66"/>
</g>
<!-- Node0x653508069d20 -->
<g id="node39" class="node">
<title>Node0x653508069d20</title>
<path fill="#f0f4ff" stroke="black" d="M1068,-355C1068,-355 848,-355 848,-355 842,-355 836,-349 836,-343 836,-343 836,-331 836,-331 836,-325 842,-319 848,-319 848,-319 1068,-319 1068,-319 1074,-319 1080,-325 1080,-331 1080,-331 1080,-343 1080,-343 1080,-349 1074,-355 1068,-355"/>
<text text-anchor="middle" x="958" y="-334.8" font-family="Courier,monospace" font-size="9.00">__detail::_Hash_node_base::_Hash_node_base()</text>
</g>
<!-- Node0x65350805fa60&#45;&gt;Node0x653508069d20 -->
<g id="edge37" class="edge">
<title>Node0x65350805fa60&#45;&gt;Node0x653508069d20</title>
<path fill="none" stroke="#4a6fa5" d="M734.25,-312.15C759.6,-314.98 794.78,-318.91 829.69,-322.8"/>
<polygon fill="#4a6fa5" stroke="#4a6fa5" points="829.55,-324.9 835.74,-323.48 830.01,-320.72 829.55,-324.9"/>
</g>
<!-- Node0x65350805a3b0 -->
<g id="node40" class="node">
<title>Node0x65350805a3b0</title>
<path fill="#f0f4ff" stroke="black" d="M1094,-297C1094,-297 822,-297 822,-297 816,-297 810,-291 810,-285 810,-285 810,-273 810,-273 810,-267 816,-261 822,-261 822,-261 1094,-261 1094,-261 1100,-261 1106,-267 1106,-273 1106,-273 1106,-285 1106,-285 1106,-291 1100,-297 1094,-297"/>
<text text-anchor="middle" x="958" y="-276.8" font-family="Courier,monospace" font-size="9.00">__detail::_Prime_rehash_policy::_Prime_rehash_policy()</text>
</g>
<!-- Node0x65350805fa60&#45;&gt;Node0x65350805a3b0 -->
<g id="edge38" class="edge">
<title>Node0x65350805fa60&#45;&gt;Node0x65350805a3b0</title>
<path fill="none" stroke="#4a6fa5" d="M734.25,-303.85C753.3,-301.72 777.88,-298.98 803.73,-296.09"/>
<polygon fill="#4a6fa5" stroke="#4a6fa5" points="804.24,-298.15 809.97,-295.4 803.78,-293.98 804.24,-298.15"/>
</g>
<!-- Node0x653508065390 -->
<g id="node41" class="node">
<title>Node0x653508065390</title>
<path fill="#f0f4ff" stroke="black" d="M195,-1022C195,-1022 133,-1022 133,-1022 127,-1022 121,-1016 121,-1010 121,-1010 121,-998 121,-998 121,-992 127,-986 133,-986 133,-986 195,-986 195,-986 201,-986 207,-992 207,-998 207,-998 207,-1010 207,-1010 207,-1016 201,-1022 195,-1022"/>
<text text-anchor="middle" x="164" y="-1001.8" font-family="Courier,monospace" font-size="9.00">true::_M_get()</text>
</g>
<!-- Node0x65350806f0f0 -->
<g id="node42" class="node">
<title>Node0x65350806f0f0</title>
<path fill="#f0f4ff" stroke="black" d="M190,-1254C190,-1254 138,-1254 138,-1254 132,-1254 126,-1248 126,-1242 126,-1242 126,-1230 126,-1230 126,-1224 132,-1218 138,-1218 138,-1218 190,-1218 190,-1218 196,-1218 202,-1224 202,-1230 202,-1230 202,-1242 202,-1242 202,-1248 196,-1254 190,-1254"/>
<text text-anchor="middle" x="164" y="-1233.8" font-family="Courier,monospace" font-size="9.00">pointer_to()</text>
</g>
<!-- Node0x65350807ee80 -->
<g id="node43" class="node">
<title>Node0x65350807ee80</title>
<path fill="#f0f4ff" stroke="black" d="M190,-1660C190,-1660 138,-1660 138,-1660 132,-1660 126,-1654 126,-1648 126,-1648 126,-1636 126,-1636 126,-1630 132,-1624 138,-1624 138,-1624 190,-1624 190,-1624 196,-1624 202,-1630 202,-1636 202,-1636 202,-1648 202,-1648 202,-1654 196,-1660 190,-1660"/>
<text text-anchor="middle" x="164" y="-1639.8" font-family="Courier,monospace" font-size="9.00">pointer_to()</text>
</g>
<!-- Node0x653508090d00 -->
<g id="node44" class="node">
<title>Node0x653508090d00</title>
<path fill="#f0f4ff" stroke="black" d="M499,-1776C499,-1776 469,-1776 469,-1776 463,-1776 457,-1770 457,-1764 457,-1764 457,-1752 457,-1752 457,-1746 463,-1740 469,-1740 469,-1740 499,-1740 499,-1740 505,-1740 511,-1746 511,-1752 511,-1752 511,-1764 511,-1764 511,-1770 505,-1776 499,-1776"/>
<text text-anchor="middle" x="484" y="-1755.8" font-family="Courier,monospace" font-size="9.00">base()</text>
</g>
<!-- Node0x653508099eb0 -->
<g id="node45" class="node">
<title>Node0x653508099eb0</title>
<path fill="#f0f4ff" stroke="black" d="M268.5,-1834C268.5,-1834 59.5,-1834 59.5,-1834 53.5,-1834 47.5,-1828 47.5,-1822 47.5,-1822 47.5,-1810 47.5,-1810 47.5,-1804 53.5,-1798 59.5,-1798 59.5,-1798 268.5,-1798 268.5,-1798 274.5,-1798 280.5,-1804 280.5,-1810 280.5,-1810 280.5,-1822 280.5,-1822 280.5,-1828 274.5,-1834 268.5,-1834"/>
<text text-anchor="middle" x="164" y="-1813.8" font-family="Courier,monospace" font-size="9.00">__detail::_Prime_rehash_policy::_M_state()</text>
</g>
<!-- Node0x653508099140 -->
<g id="node46" class="node">
<title>Node0x653508099140</title>
<path fill="#f0f4ff" stroke="black" d="M284.5,-1892C284.5,-1892 43.5,-1892 43.5,-1892 37.5,-1892 31.5,-1886 31.5,-1880 31.5,-1880 31.5,-1868 31.5,-1868 31.5,-1862 37.5,-1856 43.5,-1856 43.5,-1856 284.5,-1856 284.5,-1856 290.5,-1856 296.5,-1862 296.5,-1868 296.5,-1868 296.5,-1880 296.5,-1880 296.5,-1886 290.5,-1892 284.5,-1892"/>
<text text-anchor="middle" x="164" y="-1871.8" font-family="Courier,monospace" font-size="9.00">__detail::_Prime_rehash_policy::_M_need_rehash()</text>
</g>
<!-- Node0x653508094130 -->
<g id="node47" class="node">
<title>Node0x653508094130</title>
<path fill="#f0f4ff" stroke="black" d="M268.5,-1950C268.5,-1950 59.5,-1950 59.5,-1950 53.5,-1950 47.5,-1944 47.5,-1938 47.5,-1938 47.5,-1926 47.5,-1926 47.5,-1920 53.5,-1914 59.5,-1914 59.5,-1914 268.5,-1914 268.5,-1914 274.5,-1914 280.5,-1920 280.5,-1926 280.5,-1926 280.5,-1938 280.5,-1938 280.5,-1944 274.5,-1950 268.5,-1950"/>
<text text-anchor="middle" x="164" y="-1929.8" font-family="Courier,monospace" font-size="9.00">__detail::_Prime_rehash_policy::_M_reset()</text>
</g>
<!-- Node0x6535080614a0 -->
<g id="node48" class="node">
<title>Node0x6535080614a0</title>
<path fill="#f0f4ff" stroke="black" d="M208,-2008C208,-2008 120,-2008 120,-2008 114,-2008 108,-2002 108,-1996 108,-1996 108,-1984 108,-1984 108,-1978 114,-1972 120,-1972 120,-1972 208,-1972 208,-1972 214,-1972 220,-1978 220,-1984 220,-1984 220,-1996 220,-1996 220,-2002 214,-2008 208,-2008"/>
<text text-anchor="middle" x="164" y="-1987.8" font-family="Courier,monospace" font-size="9.00">__normal_iterator()</text>
</g>
<!-- Node0x6535080b7ad0 -->
<g id="node49" class="node">
<title>Node0x6535080b7ad0</title>
<path fill="#f0f4ff" stroke="black" d="M316,-1776C316,-1776 12,-1776 12,-1776 6,-1776 0,-1770 0,-1764 0,-1764 0,-1752 0,-1752 0,-1746 6,-1740 12,-1740 12,-1740 316,-1740 316,-1740 322,-1740 328,-1746 328,-1752 328,-1752 328,-1764 328,-1764 328,-1770 322,-1776 316,-1776"/>
<text text-anchor="middle" x="164" y="-1755.8" font-family="Courier,monospace" font-size="9.00">bool __gnu_cxx::operator&lt; (__gnu_cxx::__normal_iterator c...</text>
</g>
<!-- Node0x6535080b7ad0&#45;&gt;Node0x653508090d00 -->
<g id="edge39" class="edge">
<title>Node0x6535080b7ad0&#45;&gt;Node0x653508090d00</title>
<path fill="none" stroke="#4a6fa5" d="M328.19,-1758C374.89,-1758 421.1,-1758 450.71,-1758"/>
<polygon fill="#4a6fa5" stroke="#4a6fa5" points="450.77,-1760.1 456.77,-1758 450.77,-1755.9 450.77,-1760.1"/>
</g>
<!-- Node0x65350805cc60 -->
<g id="node50" class="node">
<title>Node0x65350805cc60</title>
<path fill="#f0f4ff" stroke="black" d="M260.5,-2066C260.5,-2066 67.5,-2066 67.5,-2066 61.5,-2066 55.5,-2060 55.5,-2054 55.5,-2054 55.5,-2042 55.5,-2042 55.5,-2036 61.5,-2030 67.5,-2030 67.5,-2030 260.5,-2030 260.5,-2030 266.5,-2030 272.5,-2036 272.5,-2042 272.5,-2042 272.5,-2054 272.5,-2054 272.5,-2060 266.5,-2066 260.5,-2066"/>
<text text-anchor="middle" x="164" y="-2045.8" font-family="Courier,monospace" font-size="9.00">__ops::_Iter_less_val::_Iter_less_val()</text>
</g>
<!-- Node0x653508062760 -->
<g id="node51" class="node">
<title>Node0x653508062760</title>
<path fill="#f0f4ff" stroke="black" d="M179,-2124C179,-2124 149,-2124 149,-2124 143,-2124 137,-2118 137,-2112 137,-2112 137,-2100 137,-2100 137,-2094 143,-2088 149,-2088 149,-2088 179,-2088 179,-2088 185,-2088 191,-2094 191,-2100 191,-2100 191,-2112 191,-2112 191,-2118 185,-2124 179,-2124"/>
<text text-anchor="middle" x="164" y="-2103.8" font-family="Courier,monospace" font-size="9.00">base()</text>
</g>
</g>
</svg>
