<?xml version="1.0" encoding="UTF-8" standalone="no"?>
<!DOCTYPE svg PUBLIC "-//W3C//DTD SVG 1.1//EN"
 "http://www.w3.org/Graphics/SVG/1.1/DTD/svg11.dtd">
<!-- Generated by graphviz version 2.43.0 (0)
 -->
<!-- Title: Call graph: /home/h02332/po/research/call&#45;graph/cfl/icc_profile_fuzzer.ll Pages: 1 -->
<svg width="431pt" height="775pt"
 viewBox="0.00 0.00 431.20 775.20" xmlns="http://www.w3.org/2000/svg" xmlns:xlink="http://www.w3.org/1999/xlink">
<g id="graph0" class="graph" transform="scale(1 1) rotate(0) translate(21.6 753.6)">
<title>Call graph: /home/h02332/po/research/call&#45;graph/cfl/icc_profile_fuzzer.ll</title>
<polygon fill="white" stroke="transparent" points="-21.6,21.6 -21.6,-753.6 409.6,-753.6 409.6,21.6 -21.6,21.6"/>
<!-- Node0x5ced94787910 -->
<g id="node1" class="node">
<title>Node0x5ced94787910</title>
<path fill="#f0f4ff" stroke="black" d="M116,-384C116,-384 12,-384 12,-384 6,-384 0,-378 0,-372 0,-372 0,-360 0,-360 0,-354 6,-348 12,-348 12,-348 116,-348 116,-348 122,-348 128,-354 128,-360 128,-360 128,-372 128,-372 128,-378 122,-384 116,-384"/>
<text text-anchor="middle" x="64" y="-363.8" font-family="Courier,monospace" font-size="9.00">LLVMFuzzerTestOneInput</text>
</g>
<!-- Node0x5ced947de160 -->
<g id="node2" class="node">
<title>Node0x5ced947de160</title>
<path fill="#f0f4ff" stroke="black" d="M323.5,-732C323.5,-732 250.5,-732 250.5,-732 244.5,-732 238.5,-726 238.5,-720 238.5,-720 238.5,-708 238.5,-708 238.5,-702 244.5,-696 250.5,-696 250.5,-696 323.5,-696 323.5,-696 329.5,-696 335.5,-702 335.5,-708 335.5,-708 335.5,-720 335.5,-720 335.5,-726 329.5,-732 323.5,-732"/>
<text text-anchor="middle" x="287" y="-711.8" font-family="Courier,monospace" font-size="9.00">OpenIccProfile()</text>
</g>
<!-- Node0x5ced94787910&#45;&gt;Node0x5ced947de160 -->
<g id="edge1" class="edge">
<title>Node0x5ced94787910&#45;&gt;Node0x5ced947de160</title>
<path fill="none" stroke="#4a6fa5" d="M116.3,-384.17C120.7,-387.26 124.72,-390.84 128,-395 209.46,-498.16 97.08,-588.2 186,-685 197.93,-697.98 215.28,-705.28 232.19,-709.35"/>
<polygon fill="#4a6fa5" stroke="#4a6fa5" points="232.08,-711.47 238.39,-710.7 232.98,-707.37 232.08,-711.47"/>
</g>
<!-- Node0x5ced9476aa60 -->
<g id="node3" class="node">
<title>Node0x5ced9476aa60</title>
<path fill="#f0f4ff" stroke="black" d="M341.5,-674C341.5,-674 232.5,-674 232.5,-674 226.5,-674 220.5,-668 220.5,-662 220.5,-662 220.5,-650 220.5,-650 220.5,-644 226.5,-638 232.5,-638 232.5,-638 341.5,-638 341.5,-638 347.5,-638 353.5,-644 353.5,-650 353.5,-650 353.5,-662 353.5,-662 353.5,-668 347.5,-674 341.5,-674"/>
<text text-anchor="middle" x="287" y="-653.8" font-family="Courier,monospace" font-size="9.00">CIccProfile::Validate()</text>
</g>
<!-- Node0x5ced94787910&#45;&gt;Node0x5ced9476aa60 -->
<g id="edge2" class="edge">
<title>Node0x5ced94787910&#45;&gt;Node0x5ced9476aa60</title>
<path fill="none" stroke="#4a6fa5" d="M115.8,-384.13C120.35,-387.23 124.54,-390.83 128,-395 195.83,-476.82 112.26,-550.46 186,-627 193.9,-635.2 203.97,-641.13 214.67,-645.39"/>
<polygon fill="#4a6fa5" stroke="#4a6fa5" points="213.95,-647.37 220.31,-647.48 215.41,-643.43 213.95,-647.37"/>
</g>
<!-- Node0x5ced947ed380 -->
<g id="node4" class="node">
<title>Node0x5ced947ed380</title>
<path fill="#f0f4ff" stroke="black" d="M341.5,-616C341.5,-616 232.5,-616 232.5,-616 226.5,-616 220.5,-610 220.5,-604 220.5,-604 220.5,-592 220.5,-592 220.5,-586 226.5,-580 232.5,-580 232.5,-580 341.5,-580 341.5,-580 347.5,-580 353.5,-586 353.5,-592 353.5,-592 353.5,-604 353.5,-604 353.5,-610 347.5,-616 341.5,-616"/>
<text text-anchor="middle" x="287" y="-595.8" font-family="Courier,monospace" font-size="9.00">CIccMemIO::~CIccMemIO()</text>
</g>
<!-- Node0x5ced94787910&#45;&gt;Node0x5ced947ed380 -->
<g id="edge3" class="edge">
<title>Node0x5ced94787910&#45;&gt;Node0x5ced947ed380</title>
<path fill="none" stroke="#4a6fa5" d="M115.17,-384.2C119.9,-387.3 124.3,-390.87 128,-395 182.4,-455.71 127.23,-512.51 186,-569 194.03,-576.72 203.98,-582.4 214.47,-586.58"/>
<polygon fill="#4a6fa5" stroke="#4a6fa5" points="213.98,-588.64 220.34,-588.75 215.44,-584.7 213.98,-588.64"/>
</g>
<!-- Node0x5ced947ed100 -->
<g id="node5" class="node">
<title>Node0x5ced947ed100</title>
<path fill="#f0f4ff" stroke="black" d="M328.5,-558C328.5,-558 245.5,-558 245.5,-558 239.5,-558 233.5,-552 233.5,-546 233.5,-546 233.5,-534 233.5,-534 233.5,-528 239.5,-522 245.5,-522 245.5,-522 328.5,-522 328.5,-522 334.5,-522 340.5,-528 340.5,-534 340.5,-534 340.5,-546 340.5,-546 340.5,-552 334.5,-558 328.5,-558"/>
<text text-anchor="middle" x="287" y="-537.8" font-family="Courier,monospace" font-size="9.00">CIccMemIO::Read8()</text>
</g>
<!-- Node0x5ced94787910&#45;&gt;Node0x5ced947ed100 -->
<g id="edge4" class="edge">
<title>Node0x5ced94787910&#45;&gt;Node0x5ced947ed100</title>
<path fill="none" stroke="#4a6fa5" d="M113.65,-384.17C118.84,-387.3 123.76,-390.9 128,-395 169.41,-435.1 141.72,-474.1 186,-511 197.77,-520.81 212.71,-527.3 227.42,-531.6"/>
<polygon fill="#4a6fa5" stroke="#4a6fa5" points="226.92,-533.64 233.26,-533.19 228.03,-529.59 226.92,-533.64"/>
</g>
<!-- Node0x5ced947ecac0 -->
<g id="node6" class="node">
<title>Node0x5ced947ecac0</title>
<path fill="#f0f4ff" stroke="black" d="M326,-500C326,-500 248,-500 248,-500 242,-500 236,-494 236,-488 236,-488 236,-476 236,-476 236,-470 242,-464 248,-464 248,-464 326,-464 326,-464 332,-464 338,-470 338,-476 338,-476 338,-488 338,-488 338,-494 332,-500 326,-500"/>
<text text-anchor="middle" x="287" y="-479.8" font-family="Courier,monospace" font-size="9.00">CIccMemIO::Seek()</text>
</g>
<!-- Node0x5ced94787910&#45;&gt;Node0x5ced947ecac0 -->
<g id="edge5" class="edge">
<title>Node0x5ced94787910&#45;&gt;Node0x5ced947ecac0</title>
<path fill="none" stroke="#4a6fa5" d="M109.48,-384.05C115.9,-387.34 122.27,-391.01 128,-395 157.91,-415.84 154.62,-434.45 186,-453 199.39,-460.92 215.09,-466.79 230.02,-471.1"/>
<polygon fill="#4a6fa5" stroke="#4a6fa5" points="229.57,-473.15 235.92,-472.73 230.69,-469.1 229.57,-473.15"/>
</g>
<!-- Node0x5ced947eb4a0 -->
<g id="node7" class="node">
<title>Node0x5ced947eb4a0</title>
<path fill="#f0f4ff" stroke="black" d="M339,-442C339,-442 235,-442 235,-442 229,-442 223,-436 223,-430 223,-430 223,-418 223,-418 223,-412 229,-406 235,-406 235,-406 339,-406 339,-406 345,-406 351,-412 351,-418 351,-418 351,-430 351,-430 351,-436 345,-442 339,-442"/>
<text text-anchor="middle" x="287" y="-421.8" font-family="Courier,monospace" font-size="9.00">CIccMemIO::GetLength()</text>
</g>
<!-- Node0x5ced94787910&#45;&gt;Node0x5ced947eb4a0 -->
<g id="edge6" class="edge">
<title>Node0x5ced94787910&#45;&gt;Node0x5ced947eb4a0</title>
<path fill="none" stroke="#4a6fa5" d="M128.03,-382.54C155.79,-389.83 188.47,-398.4 216.89,-405.86"/>
<polygon fill="#4a6fa5" stroke="#4a6fa5" points="216.55,-407.94 222.88,-407.44 217.61,-403.88 216.55,-407.94"/>
</g>
<!-- Node0x5ced947ebae0 -->
<g id="node8" class="node">
<title>Node0x5ced947ebae0</title>
<path fill="#f0f4ff" stroke="black" d="M334,-384C334,-384 240,-384 240,-384 234,-384 228,-378 228,-372 228,-372 228,-360 228,-360 228,-354 234,-348 240,-348 240,-348 334,-348 334,-348 340,-348 346,-354 346,-360 346,-360 346,-372 346,-372 346,-378 340,-384 334,-384"/>
<text text-anchor="middle" x="287" y="-363.8" font-family="Courier,monospace" font-size="9.00">CIccProfile::Write()</text>
</g>
<!-- Node0x5ced94787910&#45;&gt;Node0x5ced947ebae0 -->
<g id="edge7" class="edge">
<title>Node0x5ced94787910&#45;&gt;Node0x5ced947ebae0</title>
<path fill="none" stroke="#4a6fa5" d="M128.03,-366C157.33,-366 192.13,-366 221.6,-366"/>
<polygon fill="#4a6fa5" stroke="#4a6fa5" points="221.81,-368.1 227.81,-366 221.81,-363.9 221.81,-368.1"/>
</g>
<!-- Node0x5ced947ec120 -->
<g id="node9" class="node">
<title>Node0x5ced947ec120</title>
<path fill="#f0f4ff" stroke="black" d="M339,-326C339,-326 235,-326 235,-326 229,-326 223,-320 223,-314 223,-314 223,-302 223,-302 223,-296 229,-290 235,-290 235,-290 339,-290 339,-290 345,-290 351,-296 351,-302 351,-302 351,-314 351,-314 351,-320 345,-326 339,-326"/>
<text text-anchor="middle" x="287" y="-305.8" font-family="Courier,monospace" font-size="9.00">CIccMemIO::CIccMemIO()</text>
</g>
<!-- Node0x5ced94787910&#45;&gt;Node0x5ced947ec120 -->
<g id="edge8" class="edge">
<title>Node0x5ced94787910&#45;&gt;Node0x5ced947ec120</title>
<path fill="none" stroke="#4a6fa5" d="M128.03,-349.46C155.79,-342.17 188.47,-333.6 216.89,-326.14"/>
<polygon fill="#4a6fa5" stroke="#4a6fa5" points="217.61,-328.12 222.88,-324.56 216.55,-324.06 217.61,-328.12"/>
</g>
<!-- Node0x5ced947eaaa0 -->
<g id="node10" class="node">
<title>Node0x5ced947eaaa0</title>
<path fill="#f0f4ff" stroke="black" d="M370.5,-268C370.5,-268 203.5,-268 203.5,-268 197.5,-268 191.5,-262 191.5,-256 191.5,-256 191.5,-244 191.5,-244 191.5,-238 197.5,-232 203.5,-232 203.5,-232 370.5,-232 370.5,-232 376.5,-232 382.5,-238 382.5,-244 382.5,-244 382.5,-256 382.5,-256 382.5,-262 376.5,-268 370.5,-268"/>
<text text-anchor="middle" x="287" y="-247.8" font-family="Courier,monospace" font-size="9.00">CIccProfile::GetParentColorSpace()</text>
</g>
<!-- Node0x5ced94787910&#45;&gt;Node0x5ced947eaaa0 -->
<g id="edge9" class="edge">
<title>Node0x5ced94787910&#45;&gt;Node0x5ced947eaaa0</title>
<path fill="none" stroke="#4a6fa5" d="M85.45,-347.92C108.44,-328.42 147.61,-297.68 186,-279 192.6,-275.79 199.63,-272.86 206.78,-270.22"/>
<polygon fill="#4a6fa5" stroke="#4a6fa5" points="207.86,-272.06 212.8,-268.06 206.45,-268.11 207.86,-272.06"/>
</g>
<!-- Node0x5ced947ead20 -->
<g id="node11" class="node">
<title>Node0x5ced947ead20</title>
<path fill="#f0f4ff" stroke="black" d="M376,-210C376,-210 198,-210 198,-210 192,-210 186,-204 186,-198 186,-198 186,-186 186,-186 186,-180 192,-174 198,-174 198,-174 376,-174 376,-174 382,-174 388,-180 388,-186 388,-186 388,-198 388,-198 388,-204 382,-210 376,-210"/>
<text text-anchor="middle" x="287" y="-189.8" font-family="Courier,monospace" font-size="9.00">CIccProfile::GetParentSpaceSamples()</text>
</g>
<!-- Node0x5ced94787910&#45;&gt;Node0x5ced947ead20 -->
<g id="edge10" class="edge">
<title>Node0x5ced94787910&#45;&gt;Node0x5ced947ead20</title>
<path fill="none" stroke="#4a6fa5" d="M75.15,-347.88C93.33,-317.11 134.4,-254.72 186,-221 190.72,-217.91 195.78,-215.15 201.02,-212.67"/>
<polygon fill="#4a6fa5" stroke="#4a6fa5" points="202.15,-214.47 206.77,-210.1 200.44,-210.63 202.15,-214.47"/>
</g>
<!-- Node0x5ced947eafa0 -->
<g id="node12" class="node">
<title>Node0x5ced947eafa0</title>
<path fill="#f0f4ff" stroke="black" d="M355,-152C355,-152 219,-152 219,-152 213,-152 207,-146 207,-140 207,-140 207,-128 207,-128 207,-122 213,-116 219,-116 219,-116 355,-116 355,-116 361,-116 367,-122 367,-128 367,-128 367,-140 367,-140 367,-146 361,-152 355,-152"/>
<text text-anchor="middle" x="287" y="-131.8" font-family="Courier,monospace" font-size="9.00">CIccProfile::AreTagsUnique()</text>
</g>
<!-- Node0x5ced94787910&#45;&gt;Node0x5ced947eafa0 -->
<g id="edge11" class="edge">
<title>Node0x5ced94787910&#45;&gt;Node0x5ced947eafa0</title>
<path fill="none" stroke="#4a6fa5" d="M70.72,-347.71C84.11,-307.89 121.39,-212.92 186,-163 190.72,-159.35 195.89,-156.16 201.3,-153.38"/>
<polygon fill="#4a6fa5" stroke="#4a6fa5" points="202.31,-155.22 206.8,-150.72 200.48,-151.44 202.31,-155.22"/>
</g>
<!-- Node0x5ced947ea820 -->
<g id="node13" class="node">
<title>Node0x5ced947ea820</title>
<path fill="#f0f4ff" stroke="black" d="M360,-94C360,-94 214,-94 214,-94 208,-94 202,-88 202,-82 202,-82 202,-70 202,-70 202,-64 208,-58 214,-58 214,-58 360,-58 360,-58 366,-58 372,-64 372,-70 372,-70 372,-82 372,-82 372,-88 366,-94 360,-94"/>
<text text-anchor="middle" x="287" y="-73.8" font-family="Courier,monospace" font-size="9.00">CIccProfile::GetSpaceSamples()</text>
</g>
<!-- Node0x5ced94787910&#45;&gt;Node0x5ced947ea820 -->
<g id="edge12" class="edge">
<title>Node0x5ced94787910&#45;&gt;Node0x5ced947ea820</title>
<path fill="none" stroke="#4a6fa5" d="M68.11,-347.69C77.16,-300.18 107.94,-172.02 186,-105 189.39,-102.09 193.07,-99.46 196.93,-97.1"/>
<polygon fill="#4a6fa5" stroke="#4a6fa5" points="198.13,-98.84 202.32,-94.05 196.06,-95.18 198.13,-98.84"/>
</g>
<!-- Node0x5ced947e9290 -->
<g id="node14" class="node">
<title>Node0x5ced947e9290</title>
<path fill="#f0f4ff" stroke="black" d="M339,-36C339,-36 235,-36 235,-36 229,-36 223,-30 223,-24 223,-24 223,-12 223,-12 223,-6 229,0 235,0 235,0 339,0 339,0 345,0 351,-6 351,-12 351,-12 351,-24 351,-24 351,-30 345,-36 339,-36"/>
<text text-anchor="middle" x="287" y="-15.8" font-family="Courier,monospace" font-size="9.00">CIccProfile::FindTag()</text>
</g>
<!-- Node0x5ced94787910&#45;&gt;Node0x5ced947e9290 -->
<g id="edge13" class="edge">
<title>Node0x5ced94787910&#45;&gt;Node0x5ced947e9290</title>
<path fill="none" stroke="#4a6fa5" d="M66.39,-347.75C71.51,-293.51 94.15,-131.76 186,-47 194.77,-38.91 205.66,-33.06 217,-28.84"/>
<polygon fill="#4a6fa5" stroke="#4a6fa5" points="217.98,-30.73 222.96,-26.78 216.61,-26.76 217.98,-30.73"/>
</g>
<!-- Node0x5ced947ec540 -->
<g id="node15" class="node">
<title>Node0x5ced947ec540</title>
<path fill="#f0f4ff" stroke="black" d="M79.5,-442C79.5,-442 48.5,-442 48.5,-442 42.5,-442 36.5,-436 36.5,-430 36.5,-430 36.5,-418 36.5,-418 36.5,-412 42.5,-406 48.5,-406 48.5,-406 79.5,-406 79.5,-406 85.5,-406 91.5,-412 91.5,-418 91.5,-418 91.5,-430 91.5,-430 91.5,-436 85.5,-442 79.5,-442"/>
<text text-anchor="middle" x="64" y="-421.8" font-family="Courier,monospace" font-size="9.00">length()</text>
</g>
<!-- Node0x5ced948070d0 -->
<g id="node16" class="node">
<title>Node0x5ced948070d0</title>
<path fill="#f0f4ff" stroke="black" d="M100.5,-500C100.5,-500 27.5,-500 27.5,-500 21.5,-500 15.5,-494 15.5,-488 15.5,-488 15.5,-476 15.5,-476 15.5,-470 21.5,-464 27.5,-464 27.5,-464 100.5,-464 100.5,-464 106.5,-464 112.5,-470 112.5,-476 112.5,-476 112.5,-488 112.5,-488 112.5,-494 106.5,-500 100.5,-500"/>
<text text-anchor="middle" x="64" y="-479.8" font-family="Courier,monospace" font-size="9.00">_Guard::_Guard()</text>
</g>
<!-- Node0x5ced9480ea30 -->
<g id="node17" class="node">
<title>Node0x5ced9480ea30</title>
<path fill="#f0f4ff" stroke="black" d="M103,-558C103,-558 25,-558 25,-558 19,-558 13,-552 13,-546 13,-546 13,-534 13,-534 13,-528 19,-522 25,-522 25,-522 103,-522 103,-522 109,-522 115,-528 115,-534 115,-534 115,-546 115,-546 115,-552 109,-558 103,-558"/>
<text text-anchor="middle" x="64" y="-537.8" font-family="Courier,monospace" font-size="9.00">_Guard::~_Guard()</text>
</g>
</g>
</svg>
