<?xml version="1.0" encoding="UTF-8" standalone="no"?>
<!DOCTYPE svg PUBLIC "-//W3C//DTD SVG 1.1//EN"
 "http://www.w3.org/Graphics/SVG/1.1/DTD/svg11.dtd">
<!-- Generated by graphviz version 2.43.0 (0)
 -->
<!-- Title: Call graph: /home/h02332/po/research/call&#45;graph/cfl/icc_io_fuzzer.ll Pages: 1 -->
<svg width="5975pt" height="433pt"
 viewBox="0.00 0.00 5975.00 433.00" xmlns="http://www.w3.org/2000/svg" xmlns:xlink="http://www.w3.org/1999/xlink">
<g id="graph0" class="graph" transform="scale(1 1) rotate(0) translate(4 429)">
<title>Call graph: /home/h02332/po/research/call&#45;graph/cfl/icc_io_fuzzer.ll</title>
<polygon fill="white" stroke="transparent" points="-4,4 -4,-429 5971,-429 5971,4 -4,4"/>
<text text-anchor="middle" x="2983.5" y="-7.8" font-family="Times,serif" font-size="14.00">Call graph: /home/h02332/po/research/call&#45;graph/cfl/icc_io_fuzzer.ll</text>
<!-- Node0x60c088932370 -->
<g id="node1" class="node">
<title>Node0x60c088932370</title>
<polygon fill="none" stroke="black" points="2407,-388.5 2407,-424.5 2610,-424.5 2610,-388.5 2407,-388.5"/>
<text text-anchor="middle" x="2508.5" y="-402.8" font-family="Times,serif" font-size="14.00">LLVMFuzzerTestOneInput</text>
</g>
<!-- Node0x60c088932400 -->
<g id="node2" class="node">
<title>Node0x60c088932400</title>
<polygon fill="none" stroke="black" points="668,-315.5 668,-351.5 821,-351.5 821,-315.5 668,-315.5"/>
<text text-anchor="middle" x="744.5" y="-329.8" font-family="Times,serif" font-size="14.00">_ZL11fuzz_tmpdirv</text>
</g>
<!-- Node0x60c088932370&#45;&gt;Node0x60c088932400 -->
<g id="edge1" class="edge">
<title>Node0x60c088932370&#45;&gt;Node0x60c088932400</title>
<path fill="none" stroke="black" d="M2406.75,-404.54C2095.46,-401.25 1157.85,-388.61 831.72,-352.13"/>
<polygon fill="black" stroke="black" points="831.65,-348.59 821.31,-350.93 830.85,-355.55 831.65,-348.59"/>
</g>
<!-- Node0x60c088926c50 -->
<g id="node3" class="node">
<title>Node0x60c088926c50</title>
<polygon fill="none" stroke="black" points="839,-315.5 839,-351.5 1094,-351.5 1094,-315.5 839,-315.5"/>
<text text-anchor="middle" x="966.5" y="-329.8" font-family="Times,serif" font-size="14.00">_ZL15fuzz_build_pathPcmPKcS1_</text>
</g>
<!-- Node0x60c088932370&#45;&gt;Node0x60c088926c50 -->
<g id="edge2" class="edge">
<title>Node0x60c088932370&#45;&gt;Node0x60c088926c50</title>
<path fill="none" stroke="black" d="M2406.86,-404.76C2176.7,-402.42 1597.96,-392.69 1104.41,-352.12"/>
<polygon fill="black" stroke="black" points="1104.49,-348.61 1094.24,-351.28 1103.91,-355.59 1104.49,-348.61"/>
</g>
<!-- Node0x60c088926e10 -->
<g id="node4" class="node">
<title>Node0x60c088926e10</title>
<polygon fill="none" stroke="black" points="1112,-315.5 1112,-351.5 1195,-351.5 1195,-315.5 1112,-315.5"/>
<text text-anchor="middle" x="1153.5" y="-329.8" font-family="Times,serif" font-size="14.00">mkstemp</text>
</g>
<!-- Node0x60c088932370&#45;&gt;Node0x60c088926e10 -->
<g id="edge3" class="edge">
<title>Node0x60c088932370&#45;&gt;Node0x60c088926e10</title>
<path fill="none" stroke="black" d="M2406.88,-405.12C2145.51,-403.54 1453.68,-395.44 1205.33,-351.74"/>
<polygon fill="black" stroke="black" points="1205.73,-348.26 1195.27,-349.9 1204.47,-355.14 1205.73,-348.26"/>
</g>
<!-- Node0x60c0888e6020 -->
<g id="node5" class="node">
<title>Node0x60c0888e6020</title>
<polygon fill="none" stroke="black" points="1213.5,-315.5 1213.5,-351.5 1267.5,-351.5 1267.5,-315.5 1213.5,-315.5"/>
<text text-anchor="middle" x="1240.5" y="-329.8" font-family="Times,serif" font-size="14.00">write</text>
</g>
<!-- Node0x60c088932370&#45;&gt;Node0x60c0888e6020 -->
<g id="edge4" class="edge">
<title>Node0x60c088932370&#45;&gt;Node0x60c0888e6020</title>
<path fill="none" stroke="black" d="M2406.68,-403.45C2138.18,-397.73 1422.1,-380.26 1277.68,-351.36"/>
<polygon fill="black" stroke="black" points="1278.1,-347.87 1267.58,-349.08 1276.56,-354.7 1278.1,-347.87"/>
</g>
<!-- Node0x60c0888e5de0 -->
<g id="node6" class="node">
<title>Node0x60c0888e5de0</title>
<polygon fill="none" stroke="black" points="1285.5,-315.5 1285.5,-351.5 1339.5,-351.5 1339.5,-315.5 1285.5,-315.5"/>
<text text-anchor="middle" x="1312.5" y="-329.8" font-family="Times,serif" font-size="14.00">close</text>
</g>
<!-- Node0x60c088932370&#45;&gt;Node0x60c0888e5de0 -->
<g id="edge5" class="edge">
<title>Node0x60c088932370&#45;&gt;Node0x60c0888e5de0</title>
<path fill="none" stroke="black" d="M2406.78,-406.06C2166.1,-406.55 1566.3,-402.7 1349.61,-351.55"/>
<polygon fill="black" stroke="black" points="1350.13,-348.07 1339.58,-349.07 1348.45,-354.87 1350.13,-348.07"/>
</g>
<!-- Node0x60c0888e5e60 -->
<g id="node7" class="node">
<title>Node0x60c0888e5e60</title>
<polygon fill="none" stroke="black" points="1357.5,-315.5 1357.5,-351.5 1533.5,-351.5 1533.5,-315.5 1357.5,-315.5"/>
<text text-anchor="middle" x="1445.5" y="-329.8" font-family="Times,serif" font-size="14.00">_ZN10CIccFileIOC1Ev</text>
</g>
<!-- Node0x60c088932370&#45;&gt;Node0x60c0888e5e60 -->
<g id="edge6" class="edge">
<title>Node0x60c088932370&#45;&gt;Node0x60c0888e5e60</title>
<path fill="none" stroke="black" d="M2406.97,-403.98C2232.39,-400.47 1863.98,-389.09 1543.66,-352.05"/>
<polygon fill="black" stroke="black" points="1544.06,-348.57 1533.72,-350.89 1543.25,-355.53 1544.06,-348.57"/>
</g>
<!-- Node0x60c088937730 -->
<g id="node8" class="node">
<title>Node0x60c088937730</title>
<polygon fill="none" stroke="black" points="1551.5,-315.5 1551.5,-351.5 1799.5,-351.5 1799.5,-315.5 1551.5,-315.5"/>
<text text-anchor="middle" x="1675.5" y="-329.8" font-family="Times,serif" font-size="14.00">_ZN10CIccFileIO4OpenEPKcS1_</text>
</g>
<!-- Node0x60c088932370&#45;&gt;Node0x60c088937730 -->
<g id="edge7" class="edge">
<title>Node0x60c088932370&#45;&gt;Node0x60c088937730</title>
<path fill="none" stroke="black" d="M2406.77,-399.42C2272.63,-391.03 2029.02,-374.45 1809.68,-351.98"/>
<polygon fill="black" stroke="black" points="1809.89,-348.49 1799.58,-350.94 1809.17,-355.45 1809.89,-348.49"/>
</g>
<!-- Node0x60c088945370 -->
<g id="node9" class="node">
<title>Node0x60c088945370</title>
<polygon fill="none" stroke="black" points="1818,-315.5 1818,-351.5 2059,-351.5 2059,-315.5 1818,-315.5"/>
<text text-anchor="middle" x="1938.5" y="-329.8" font-family="Times,serif" font-size="14.00">_ZN10CIccFileIO9GetLengthEv</text>
</g>
<!-- Node0x60c088932370&#45;&gt;Node0x60c088945370 -->
<g id="edge8" class="edge">
<title>Node0x60c088932370&#45;&gt;Node0x60c088945370</title>
<path fill="none" stroke="black" d="M2406.65,-393.49C2319.88,-383.17 2191.57,-367.71 2069.52,-352.12"/>
<polygon fill="black" stroke="black" points="2069.61,-348.6 2059.24,-350.81 2068.72,-355.55 2069.61,-348.6"/>
</g>
<!-- Node0x60c088939130 -->
<g id="node10" class="node">
<title>Node0x60c088939130</title>
<polygon fill="none" stroke="black" points="2077,-315.5 2077,-351.5 2140,-351.5 2140,-315.5 2077,-315.5"/>
<text text-anchor="middle" x="2108.5" y="-329.8" font-family="Times,serif" font-size="14.00">malloc</text>
</g>
<!-- Node0x60c088932370&#45;&gt;Node0x60c088939130 -->
<g id="edge9" class="edge">
<title>Node0x60c088932370&#45;&gt;Node0x60c088939130</title>
<path fill="none" stroke="black" d="M2406.85,-397.33C2336.64,-390.07 2241.32,-376.99 2150.11,-351.77"/>
<polygon fill="black" stroke="black" points="2151.02,-348.39 2140.45,-349.05 2149.12,-355.13 2151.02,-348.39"/>
</g>
<!-- Node0x60c0888e6490 -->
<g id="node11" class="node">
<title>Node0x60c0888e6490</title>
<polygon fill="none" stroke="black" points="2158,-315.5 2158,-351.5 2391,-351.5 2391,-315.5 2158,-315.5"/>
<text text-anchor="middle" x="2274.5" y="-329.8" font-family="Times,serif" font-size="14.00">_ZN10CIccFileIO5Read8EPvm</text>
</g>
<!-- Node0x60c088932370&#45;&gt;Node0x60c0888e6490 -->
<g id="edge10" class="edge">
<title>Node0x60c088932370&#45;&gt;Node0x60c0888e6490</title>
<path fill="none" stroke="black" d="M2452.45,-388.49C2418.83,-378.29 2375.91,-365.27 2340.63,-354.57"/>
<polygon fill="black" stroke="black" points="2341.49,-351.17 2330.9,-351.61 2339.46,-357.87 2341.49,-351.17"/>
</g>
<!-- Node0x60c0888e6250 -->
<g id="node12" class="node">
<title>Node0x60c0888e6250</title>
<polygon fill="none" stroke="black" points="2409.5,-315.5 2409.5,-351.5 2607.5,-351.5 2607.5,-315.5 2409.5,-315.5"/>
<text text-anchor="middle" x="2508.5" y="-329.8" font-family="Times,serif" font-size="14.00">_Z14OpenIccProfilePKhjb</text>
</g>
<!-- Node0x60c088932370&#45;&gt;Node0x60c0888e6250 -->
<g id="edge11" class="edge">
<title>Node0x60c088932370&#45;&gt;Node0x60c0888e6250</title>
<path fill="none" stroke="black" d="M2508.5,-388.31C2508.5,-380.29 2508.5,-370.55 2508.5,-361.57"/>
<polygon fill="black" stroke="black" points="2512,-361.53 2508.5,-351.53 2505,-361.53 2512,-361.53"/>
</g>
<!-- Node0x60c08894b860 -->
<g id="node13" class="node">
<title>Node0x60c08894b860</title>
<polygon fill="none" stroke="black" points="2626,-315.5 2626,-351.5 3093,-351.5 3093,-315.5 2626,-315.5"/>
<text text-anchor="middle" x="2859.5" y="-329.8" font-family="Times,serif" font-size="14.00">_ZNSt7__cxx1112basic_stringIcSt11char_traitsIcESaIcEEC1Ev</text>
</g>
<!-- Node0x60c088932370&#45;&gt;Node0x60c08894b860 -->
<g id="edge12" class="edge">
<title>Node0x60c088932370&#45;&gt;Node0x60c08894b860</title>
<path fill="none" stroke="black" d="M2592.57,-388.49C2644.6,-377.97 2711.5,-364.44 2765.31,-353.55"/>
<polygon fill="black" stroke="black" points="2766.09,-356.97 2775.2,-351.55 2764.71,-350.1 2766.09,-356.97"/>
</g>
<!-- Node0x60c08894a6e0 -->
<g id="node14" class="node">
<title>Node0x60c08894a6e0</title>
<polygon fill="none" stroke="black" points="3111.5,-315.5 3111.5,-351.5 3685.5,-351.5 3685.5,-315.5 3111.5,-315.5"/>
<text text-anchor="middle" x="3398.5" y="-329.8" font-family="Times,serif" font-size="14.00">_ZNSt7__cxx1112basic_stringIcSt11char_traitsIcESaIcEEC2IS3_EEPKcRKS3_</text>
</g>
<!-- Node0x60c088932370&#45;&gt;Node0x60c08894a6e0 -->
<g id="edge13" class="edge">
<title>Node0x60c088932370&#45;&gt;Node0x60c08894a6e0</title>
<path fill="none" stroke="black" d="M2610.08,-389.12C2613.25,-388.73 2616.4,-388.35 2619.5,-388 2710.47,-377.72 2922.31,-363.4 3102.14,-352.16"/>
<polygon fill="black" stroke="black" points="3102.55,-355.64 3112.31,-351.52 3102.11,-348.65 3102.55,-355.64"/>
</g>
<!-- Node0x60c088949640 -->
<g id="node15" class="node">
<title>Node0x60c088949640</title>
<polygon fill="none" stroke="black" points="3704,-315.5 3704,-351.5 4411,-351.5 4411,-315.5 3704,-315.5"/>
<text text-anchor="middle" x="4057.5" y="-329.8" font-family="Times,serif" font-size="14.00">_ZNK11CIccProfile8ValidateERNSt7__cxx1112basic_stringIcSt11char_traitsIcESaIcEEES5_PKS_</text>
</g>
<!-- Node0x60c088932370&#45;&gt;Node0x60c088949640 -->
<g id="edge14" class="edge">
<title>Node0x60c088932370&#45;&gt;Node0x60c088949640</title>
<path fill="none" stroke="black" d="M2610.06,-388.98C2613.24,-388.62 2616.39,-388.3 2619.5,-388 3095.39,-342.69 3216.85,-371.51 3694.5,-352 3695.12,-351.97 3695.73,-351.95 3696.35,-351.92"/>
<polygon fill="black" stroke="black" points="3696.54,-355.42 3706.39,-351.51 3696.25,-348.43 3696.54,-355.42"/>
</g>
<!-- Node0x60c0889456b0 -->
<g id="node16" class="node">
<title>Node0x60c0889456b0</title>
<polygon fill="none" stroke="black" points="4429,-315.5 4429,-351.5 4896,-351.5 4896,-315.5 4429,-315.5"/>
<text text-anchor="middle" x="4662.5" y="-329.8" font-family="Times,serif" font-size="14.00">_ZNSt7__cxx1112basic_stringIcSt11char_traitsIcESaIcEED1Ev</text>
</g>
<!-- Node0x60c088932370&#45;&gt;Node0x60c0889456b0 -->
<g id="edge15" class="edge">
<title>Node0x60c088932370&#45;&gt;Node0x60c0889456b0</title>
<path fill="none" stroke="black" d="M2610.06,-388.92C2613.24,-388.58 2616.39,-388.27 2619.5,-388 3416.99,-317.5 3620.75,-388.88 4420.5,-352 4420.61,-352 4420.71,-351.99 4420.82,-351.99"/>
<polygon fill="black" stroke="black" points="4420.85,-355.49 4430.67,-351.51 4420.52,-348.5 4420.85,-355.49"/>
</g>
<!-- Node0x60c08894e0e0 -->
<g id="node17" class="node">
<title>Node0x60c08894e0e0</title>
<polygon fill="none" stroke="black" points="5532,-169.5 5532,-205.5 5785,-205.5 5785,-169.5 5532,-169.5"/>
<text text-anchor="middle" x="5658.5" y="-183.8" font-family="Times,serif" font-size="14.00">_ZNSt15__new_allocatorIcED2Ev</text>
</g>
<!-- Node0x60c088932370&#45;&gt;Node0x60c08894e0e0 -->
<g id="edge16" class="edge">
<title>Node0x60c088932370&#45;&gt;Node0x60c08894e0e0</title>
<path fill="none" stroke="black" d="M2610.05,-388.9C2613.24,-388.57 2616.39,-388.27 2619.5,-388 2746.05,-377.08 4788.21,-400.75 4905.5,-352 4927.27,-342.95 4922.52,-325.75 4943.5,-315 4994.85,-288.68 5338.51,-235.3 5530.07,-207.03"/>
<polygon fill="black" stroke="black" points="5530.82,-210.46 5540.2,-205.54 5529.8,-203.53 5530.82,-210.46"/>
</g>
<!-- Node0x60c08893a810 -->
<g id="node18" class="node">
<title>Node0x60c08893a810</title>
<polygon fill="none" stroke="black" points="4952.5,-315.5 4952.5,-351.5 5128.5,-351.5 5128.5,-315.5 4952.5,-315.5"/>
<text text-anchor="middle" x="5040.5" y="-329.8" font-family="Times,serif" font-size="14.00">_ZN10CIccFileIOD1Ev</text>
</g>
<!-- Node0x60c088932370&#45;&gt;Node0x60c08893a810 -->
<g id="edge17" class="edge">
<title>Node0x60c088932370&#45;&gt;Node0x60c08893a810</title>
<path fill="none" stroke="black" d="M2610.05,-388.9C2613.24,-388.57 2616.39,-388.27 2619.5,-388 3646.49,-299.52 3912.14,-447.44 4938.5,-352 4939.78,-351.88 4941.07,-351.75 4942.37,-351.62"/>
<polygon fill="black" stroke="black" points="4942.89,-355.09 4952.43,-350.48 4942.1,-348.13 4942.89,-355.09"/>
</g>
<!-- Node0x60c08894d560 -->
<g id="node19" class="node">
<title>Node0x60c08894d560</title>
<polygon fill="none" stroke="black" points="5146.5,-315.5 5146.5,-351.5 5200.5,-351.5 5200.5,-315.5 5146.5,-315.5"/>
<text text-anchor="middle" x="5173.5" y="-329.8" font-family="Times,serif" font-size="14.00">free</text>
</g>
<!-- Node0x60c088932370&#45;&gt;Node0x60c08894d560 -->
<g id="edge18" class="edge">
<title>Node0x60c088932370&#45;&gt;Node0x60c08894d560</title>
<path fill="none" stroke="black" d="M2610.05,-388.9C2613.24,-388.57 2616.39,-388.27 2619.5,-388 2895.16,-364.42 4821.31,-415.54 5136.34,-351.4"/>
<polygon fill="black" stroke="black" points="5137.43,-354.74 5146.45,-349.17 5135.93,-347.91 5137.43,-354.74"/>
</g>
<!-- Node0x60c08894d2b0 -->
<g id="node20" class="node">
<title>Node0x60c08894d2b0</title>
<polygon fill="none" stroke="black" points="5218.5,-315.5 5218.5,-351.5 5422.5,-351.5 5422.5,-315.5 5218.5,-315.5"/>
<text text-anchor="middle" x="5320.5" y="-329.8" font-family="Times,serif" font-size="14.00">_ZN10CIccFileIO5CloseEv</text>
</g>
<!-- Node0x60c088932370&#45;&gt;Node0x60c08894d2b0 -->
<g id="edge19" class="edge">
<title>Node0x60c088932370&#45;&gt;Node0x60c08894d2b0</title>
<path fill="none" stroke="black" d="M2610.05,-388.9C2613.23,-388.57 2616.39,-388.27 2619.5,-388 3763.19,-290.4 4060.71,-448.96 5208.21,-352.03"/>
<polygon fill="black" stroke="black" points="5208.68,-355.5 5218.35,-351.17 5208.09,-348.52 5208.68,-355.5"/>
</g>
<!-- Node0x60c08894d010 -->
<g id="node21" class="node">
<title>Node0x60c08894d010</title>
<polygon fill="none" stroke="black" points="5441,-315.5 5441,-351.5 5502,-351.5 5502,-315.5 5441,-315.5"/>
<text text-anchor="middle" x="5471.5" y="-329.8" font-family="Times,serif" font-size="14.00">unlink</text>
</g>
<!-- Node0x60c088932370&#45;&gt;Node0x60c08894d010 -->
<g id="edge20" class="edge">
<title>Node0x60c088932370&#45;&gt;Node0x60c08894d010</title>
<path fill="none" stroke="black" d="M2610.05,-388.89C2613.23,-388.56 2616.39,-388.26 2619.5,-388 2927.74,-361.87 5082.31,-416.81 5430.88,-351.36"/>
<polygon fill="black" stroke="black" points="5431.79,-354.74 5440.9,-349.33 5430.41,-347.88 5431.79,-354.74"/>
</g>
<!-- Node0x60c088956020 -->
<g id="node22" class="node">
<title>Node0x60c088956020</title>
<polygon fill="none" stroke="black" points="5520,-315.5 5520,-351.5 5967,-351.5 5967,-315.5 5520,-315.5"/>
<text text-anchor="middle" x="5743.5" y="-329.8" font-family="Times,serif" font-size="14.00">_ZN11CIccProfile5WriteEP6CIccIO21icProfileIDSaveMethod</text>
</g>
<!-- Node0x60c088932370&#45;&gt;Node0x60c088956020 -->
<g id="edge21" class="edge">
<title>Node0x60c088932370&#45;&gt;Node0x60c088956020</title>
<path fill="none" stroke="black" d="M2610.05,-388.89C2613.23,-388.56 2616.39,-388.26 2619.5,-388 3259.93,-333.81 4869.4,-380.19 5511.5,-352 5511.72,-351.99 5511.94,-351.98 5512.16,-351.97"/>
<polygon fill="black" stroke="black" points="5512.35,-355.47 5522.18,-351.51 5512.02,-348.47 5512.35,-355.47"/>
</g>
<!-- Node0x60c08894fef0 -->
<g id="node23" class="node">
<title>Node0x60c08894fef0</title>
<polygon fill="none" stroke="black" points="712,-242.5 712,-278.5 777,-278.5 777,-242.5 712,-242.5"/>
<text text-anchor="middle" x="744.5" y="-256.8" font-family="Times,serif" font-size="14.00">getenv</text>
</g>
<!-- Node0x60c088932400&#45;&gt;Node0x60c08894fef0 -->
<g id="edge22" class="edge">
<title>Node0x60c088932400&#45;&gt;Node0x60c08894fef0</title>
<path fill="none" stroke="black" d="M744.5,-315.31C744.5,-307.29 744.5,-297.55 744.5,-288.57"/>
<polygon fill="black" stroke="black" points="748,-288.53 744.5,-278.53 741,-288.53 748,-288.53"/>
</g>
<!-- Node0x60c08894c0c0 -->
<g id="node24" class="node">
<title>Node0x60c08894c0c0</title>
<polygon fill="none" stroke="black" points="0,-169.5 0,-205.5 59,-205.5 59,-169.5 0,-169.5"/>
<text text-anchor="middle" x="29.5" y="-183.8" font-family="Times,serif" font-size="14.00">strlen</text>
</g>
<!-- Node0x60c088926c50&#45;&gt;Node0x60c08894c0c0 -->
<g id="edge23" class="edge">
<title>Node0x60c088926c50&#45;&gt;Node0x60c08894c0c0</title>
<path fill="none" stroke="black" d="M934.14,-315.41C886.39,-290.33 801,-246.07 785.5,-242 480.07,-161.76 380.76,-278.16 69.1,-205.53"/>
<polygon fill="black" stroke="black" points="69.88,-202.12 59.34,-203.21 68.26,-208.93 69.88,-202.12"/>
</g>
<!-- Node0x60c088951240 -->
<g id="node25" class="node">
<title>Node0x60c088951240</title>
<polygon fill="none" stroke="black" points="875.5,-242.5 875.5,-278.5 1057.5,-278.5 1057.5,-242.5 875.5,-242.5"/>
<text text-anchor="middle" x="966.5" y="-256.8" font-family="Times,serif" font-size="14.00">llvm.memcpy.p0.p0.i64</text>
</g>
<!-- Node0x60c088926c50&#45;&gt;Node0x60c088951240 -->
<g id="edge24" class="edge">
<title>Node0x60c088926c50&#45;&gt;Node0x60c088951240</title>
<path fill="none" stroke="black" d="M966.5,-315.31C966.5,-307.29 966.5,-297.55 966.5,-288.57"/>
<polygon fill="black" stroke="black" points="970,-288.53 966.5,-278.53 963,-288.53 970,-288.53"/>
</g>
<!-- Node0x60c0889566b0 -->
<g id="node27" class="node">
<title>Node0x60c0889566b0</title>
<polygon fill="none" stroke="black" points="1762.5,-242.5 1762.5,-278.5 2326.5,-278.5 2326.5,-242.5 1762.5,-242.5"/>
<text text-anchor="middle" x="2044.5" y="-256.8" font-family="Times,serif" font-size="14.00">_ZNSt7__cxx1112basic_stringIcSt11char_traitsIcESaIcEE13_M_local_dataEv</text>
</g>
<!-- Node0x60c08894a6e0&#45;&gt;Node0x60c0889566b0 -->
<g id="edge25" class="edge">
<title>Node0x60c08894a6e0&#45;&gt;Node0x60c0889566b0</title>
<path fill="none" stroke="black" d="M3111.8,-315.5C3108.69,-315.33 3105.58,-315.16 3102.5,-315 2765.48,-297.12 2678.53,-297.19 2336.74,-279.01"/>
<polygon fill="black" stroke="black" points="2336.72,-275.5 2326.55,-278.46 2336.35,-282.49 2336.72,-275.5"/>
</g>
<!-- Node0x60c08894dc10 -->
<g id="node28" class="node">
<title>Node0x60c08894dc10</title>
<polygon fill="none" stroke="black" points="3190.5,-242.5 3190.5,-278.5 3816.5,-278.5 3816.5,-242.5 3190.5,-242.5"/>
<text text-anchor="middle" x="3503.5" y="-256.8" font-family="Times,serif" font-size="14.00">_ZNSt7__cxx1112basic_stringIcSt11char_traitsIcESaIcEE12_Alloc_hiderC1EPcRKS3_</text>
</g>
<!-- Node0x60c08894a6e0&#45;&gt;Node0x60c08894dc10 -->
<g id="edge26" class="edge">
<title>Node0x60c08894a6e0&#45;&gt;Node0x60c08894dc10</title>
<path fill="none" stroke="black" d="M3423.65,-315.49C3437.45,-306.17 3454.74,-294.47 3469.7,-284.36"/>
<polygon fill="black" stroke="black" points="3471.87,-287.11 3478.19,-278.61 3467.95,-281.32 3471.87,-287.11"/>
</g>
<!-- Node0x60c0889510d0 -->
<g id="node29" class="node">
<title>Node0x60c0889510d0</title>
<polygon fill="none" stroke="black" points="3834.5,-242.5 3834.5,-278.5 4068.5,-278.5 4068.5,-242.5 3834.5,-242.5"/>
<text text-anchor="middle" x="3951.5" y="-256.8" font-family="Times,serif" font-size="14.00">_ZSt19__throw_logic_errorPKc</text>
</g>
<!-- Node0x60c08894a6e0&#45;&gt;Node0x60c0889510d0 -->
<g id="edge27" class="edge">
<title>Node0x60c08894a6e0&#45;&gt;Node0x60c0889510d0</title>
<path fill="none" stroke="black" d="M3538.47,-315.44C3619.17,-305.49 3722.84,-292.51 3824.34,-279.14"/>
<polygon fill="black" stroke="black" points="3825.01,-282.59 3834.47,-277.81 3824.1,-275.65 3825.01,-282.59"/>
</g>
<!-- Node0x60c0889549f0 -->
<g id="node30" class="node">
<title>Node0x60c0889549f0</title>
<polygon fill="none" stroke="black" points="4246,-242.5 4246,-278.5 4817,-278.5 4817,-242.5 4246,-242.5"/>
<text text-anchor="middle" x="4531.5" y="-256.8" font-family="Times,serif" font-size="14.00">_ZNSt7__cxx1112basic_stringIcSt11char_traitsIcESaIcEE12_Alloc_hiderD2Ev</text>
</g>
<!-- Node0x60c08894a6e0&#45;&gt;Node0x60c0889549f0 -->
<g id="edge28" class="edge">
<title>Node0x60c08894a6e0&#45;&gt;Node0x60c0889549f0</title>
<path fill="none" stroke="black" d="M3669.88,-315.49C3845.13,-304.51 4072.65,-290.25 4249.88,-279.15"/>
<polygon fill="black" stroke="black" points="4250.12,-282.64 4259.88,-278.52 4249.68,-275.65 4250.12,-282.64"/>
</g>
<!-- Node0x60c088954770 -->
<g id="node31" class="node">
<title>Node0x60c088954770</title>
<polygon fill="none" stroke="black" points="1155.5,-242.5 1155.5,-278.5 1427.5,-278.5 1427.5,-242.5 1155.5,-242.5"/>
<text text-anchor="middle" x="1291.5" y="-256.8" font-family="Times,serif" font-size="14.00">_ZNSt11char_traitsIcE6lengthEPKc</text>
</g>
<!-- Node0x60c08894a6e0&#45;&gt;Node0x60c088954770 -->
<g id="edge29" class="edge">
<title>Node0x60c08894a6e0&#45;&gt;Node0x60c088954770</title>
<path fill="none" stroke="black" d="M3113.76,-315.49C3109.98,-315.32 3106.23,-315.16 3102.5,-315 2503.28,-289.3 2352.96,-298.35 1753.5,-279 1647.85,-275.59 1528.65,-271.06 1437.78,-267.46"/>
<polygon fill="black" stroke="black" points="1437.82,-263.96 1427.69,-267.06 1437.54,-270.95 1437.82,-263.96"/>
</g>
<!-- Node0x60c0889544f0 -->
<g id="node32" class="node">
<title>Node0x60c0889544f0</title>
<polygon fill="none" stroke="black" points="2345,-242.5 2345,-278.5 3172,-278.5 3172,-242.5 2345,-242.5"/>
<text text-anchor="middle" x="2758.5" y="-256.8" font-family="Times,serif" font-size="14.00">_ZNSt7__cxx1112basic_stringIcSt11char_traitsIcESaIcEE12_M_constructIPKcEEvT_S8_St20forward_iterator_tag</text>
</g>
<!-- Node0x60c08894a6e0&#45;&gt;Node0x60c0889544f0 -->
<g id="edge30" class="edge">
<title>Node0x60c08894a6e0&#45;&gt;Node0x60c0889544f0</title>
<path fill="none" stroke="black" d="M3245.2,-315.49C3147.69,-304.68 3021.52,-290.68 2922.08,-279.65"/>
<polygon fill="black" stroke="black" points="2922.26,-276.15 2911.93,-278.52 2921.48,-283.1 2922.26,-276.15"/>
</g>
<!-- Node0x60c088956910 -->
<g id="node26" class="node">
<title>Node0x60c088956910</title>
<polygon fill="none" stroke="black" points="2628,-388.5 2628,-424.5 2795,-424.5 2795,-388.5 2628,-388.5"/>
<text text-anchor="middle" x="2711.5" y="-402.8" font-family="Times,serif" font-size="14.00">__gxx_personality_v0</text>
</g>
<!-- Node0x60c0889549f0&#45;&gt;Node0x60c08894e0e0 -->
<g id="edge40" class="edge">
<title>Node0x60c0889549f0&#45;&gt;Node0x60c08894e0e0</title>
<path fill="none" stroke="black" d="M4817.26,-246.43C5054.78,-235.14 5375.32,-218.8 5521.62,-206.02"/>
<polygon fill="black" stroke="black" points="5522.2,-209.49 5531.85,-205.11 5521.58,-202.51 5522.2,-209.49"/>
</g>
<!-- Node0x60c088954770&#45;&gt;Node0x60c08894c0c0 -->
<g id="edge31" class="edge">
<title>Node0x60c088954770&#45;&gt;Node0x60c08894c0c0</title>
<path fill="none" stroke="black" d="M1155.33,-247.99C1126.04,-245.78 1095.25,-243.64 1066.5,-242 848.07,-229.57 300.43,-255.6 69.1,-205.47"/>
<polygon fill="black" stroke="black" points="69.86,-202.05 59.33,-203.26 68.31,-208.88 69.86,-202.05"/>
</g>
<!-- Node0x60c0889526d0 -->
<g id="node33" class="node">
<title>Node0x60c0889526d0</title>
<polygon fill="none" stroke="black" points="4955.5,-169.5 4955.5,-205.5 5513.5,-205.5 5513.5,-169.5 4955.5,-169.5"/>
<text text-anchor="middle" x="5234.5" y="-183.8" font-family="Times,serif" font-size="14.00">_ZNSt7__cxx1112basic_stringIcSt11char_traitsIcESaIcEE9_M_createERmm</text>
</g>
<!-- Node0x60c0889544f0&#45;&gt;Node0x60c0889526d0 -->
<g id="edge32" class="edge">
<title>Node0x60c0889544f0&#45;&gt;Node0x60c0889526d0</title>
<path fill="none" stroke="black" d="M3165.69,-242.5C3170.99,-242.33 3176.27,-242.16 3181.5,-242 3965.73,-217.78 4162.54,-237.8 4946.5,-206 4946.98,-205.98 4947.47,-205.96 4947.96,-205.94"/>
<polygon fill="black" stroke="black" points="4948.37,-209.43 4958.22,-205.51 4948.08,-202.43 4948.37,-209.43"/>
</g>
<!-- Node0x60c08893b350 -->
<g id="node34" class="node">
<title>Node0x60c08893b350</title>
<polygon fill="none" stroke="black" points="77.5,-169.5 77.5,-205.5 601.5,-205.5 601.5,-169.5 77.5,-169.5"/>
<text text-anchor="middle" x="339.5" y="-183.8" font-family="Times,serif" font-size="14.00">_ZNSt7__cxx1112basic_stringIcSt11char_traitsIcESaIcEE7_M_dataEPc</text>
</g>
<!-- Node0x60c0889544f0&#45;&gt;Node0x60c08893b350 -->
<g id="edge33" class="edge">
<title>Node0x60c0889544f0&#45;&gt;Node0x60c08893b350</title>
<path fill="none" stroke="black" d="M2351.03,-242.49C2345.82,-242.32 2340.64,-242.16 2335.5,-242 1569.04,-218.15 1376.64,-238.72 610.5,-206 610.16,-205.99 609.82,-205.97 609.47,-205.96"/>
<polygon fill="black" stroke="black" points="609.62,-202.46 599.47,-205.51 609.31,-209.45 609.62,-202.46"/>
</g>
<!-- Node0x60c08895db70 -->
<g id="node35" class="node">
<title>Node0x60c08895db70</title>
<polygon fill="none" stroke="black" points="620,-169.5 620,-205.5 1177,-205.5 1177,-169.5 620,-169.5"/>
<text text-anchor="middle" x="898.5" y="-183.8" font-family="Times,serif" font-size="14.00">_ZNSt7__cxx1112basic_stringIcSt11char_traitsIcESaIcEE11_M_capacityEm</text>
</g>
<!-- Node0x60c0889544f0&#45;&gt;Node0x60c08895db70 -->
<g id="edge34" class="edge">
<title>Node0x60c0889544f0&#45;&gt;Node0x60c08895db70</title>
<path fill="none" stroke="black" d="M2349.07,-242.5C2344.52,-242.33 2340,-242.16 2335.5,-242 1824.92,-223.44 1696.88,-229.5 1186.5,-206 1186.39,-205.99 1186.28,-205.99 1186.17,-205.98"/>
<polygon fill="black" stroke="black" points="1186.08,-202.48 1175.92,-205.5 1185.75,-209.47 1186.08,-202.48"/>
</g>
<!-- Node0x60c08895d9b0 -->
<g id="node36" class="node">
<title>Node0x60c08895d9b0</title>
<polygon fill="none" stroke="black" points="1195.5,-169.5 1195.5,-205.5 2179.5,-205.5 2179.5,-169.5 1195.5,-169.5"/>
<text text-anchor="middle" x="1687.5" y="-183.8" font-family="Times,serif" font-size="14.00">_ZZNSt7__cxx1112basic_stringIcSt11char_traitsIcESaIcEE12_M_constructIPKcEEvT_S8_St20forward_iterator_tagEN6_GuardC2EPS4_</text>
</g>
<!-- Node0x60c0889544f0&#45;&gt;Node0x60c08895d9b0 -->
<g id="edge35" class="edge">
<title>Node0x60c0889544f0&#45;&gt;Node0x60c08895d9b0</title>
<path fill="none" stroke="black" d="M2501.97,-242.49C2336.56,-231.53 2121.88,-217.3 1954.46,-206.2"/>
<polygon fill="black" stroke="black" points="1954.47,-202.69 1944.26,-205.52 1954,-209.68 1954.47,-202.69"/>
</g>
<!-- Node0x60c08895d850 -->
<g id="node37" class="node">
<title>Node0x60c08895d850</title>
<polygon fill="none" stroke="black" points="2197.5,-169.5 2197.5,-205.5 2723.5,-205.5 2723.5,-169.5 2197.5,-169.5"/>
<text text-anchor="middle" x="2460.5" y="-183.8" font-family="Times,serif" font-size="14.00">_ZNKSt7__cxx1112basic_stringIcSt11char_traitsIcESaIcEE7_M_dataEv</text>
</g>
<!-- Node0x60c0889544f0&#45;&gt;Node0x60c08895d850 -->
<g id="edge36" class="edge">
<title>Node0x60c0889544f0&#45;&gt;Node0x60c08895d850</title>
<path fill="none" stroke="black" d="M2687.12,-242.49C2643.41,-232.08 2587.33,-218.72 2541.89,-207.89"/>
<polygon fill="black" stroke="black" points="2542.61,-204.47 2532.07,-205.55 2540.99,-211.27 2542.61,-204.47"/>
</g>
<!-- Node0x60c08893b490 -->
<g id="node38" class="node">
<title>Node0x60c08893b490</title>
<polygon fill="none" stroke="black" points="2742,-169.5 2742,-205.5 3371,-205.5 3371,-169.5 2742,-169.5"/>
<text text-anchor="middle" x="3056.5" y="-183.8" font-family="Times,serif" font-size="14.00">_ZNSt7__cxx1112basic_stringIcSt11char_traitsIcESaIcEE13_S_copy_charsEPcPKcS7_</text>
</g>
<!-- Node0x60c0889544f0&#45;&gt;Node0x60c08893b490 -->
<g id="edge37" class="edge">
<title>Node0x60c0889544f0&#45;&gt;Node0x60c08893b490</title>
<path fill="none" stroke="black" d="M2829.88,-242.49C2873.59,-232.08 2929.67,-218.72 2975.11,-207.89"/>
<polygon fill="black" stroke="black" points="2976.01,-211.27 2984.93,-205.55 2974.39,-204.47 2976.01,-211.27"/>
</g>
<!-- Node0x60c08893dff0 -->
<g id="node39" class="node">
<title>Node0x60c08893dff0</title>
<polygon fill="none" stroke="black" points="3389.5,-169.5 3389.5,-205.5 3961.5,-205.5 3961.5,-169.5 3389.5,-169.5"/>
<text text-anchor="middle" x="3675.5" y="-183.8" font-family="Times,serif" font-size="14.00">_ZNSt7__cxx1112basic_stringIcSt11char_traitsIcESaIcEE13_M_set_lengthEm</text>
</g>
<!-- Node0x60c0889544f0&#45;&gt;Node0x60c08893dff0 -->
<g id="edge38" class="edge">
<title>Node0x60c0889544f0&#45;&gt;Node0x60c08893dff0</title>
<path fill="none" stroke="black" d="M2978.14,-242.49C3119.28,-231.57 3302.3,-217.4 3445.43,-206.31"/>
<polygon fill="black" stroke="black" points="3445.96,-209.78 3455.66,-205.52 3445.42,-202.8 3445.96,-209.78"/>
</g>
<!-- Node0x60c088960560 -->
<g id="node40" class="node">
<title>Node0x60c088960560</title>
<polygon fill="none" stroke="black" points="3979.5,-169.5 3979.5,-205.5 4937.5,-205.5 4937.5,-169.5 3979.5,-169.5"/>
<text text-anchor="middle" x="4458.5" y="-183.8" font-family="Times,serif" font-size="14.00">_ZZNSt7__cxx1112basic_stringIcSt11char_traitsIcESaIcEE12_M_constructIPKcEEvT_S8_St20forward_iterator_tagEN6_GuardD2Ev</text>
</g>
<!-- Node0x60c0889544f0&#45;&gt;Node0x60c088960560 -->
<g id="edge39" class="edge">
<title>Node0x60c0889544f0&#45;&gt;Node0x60c088960560</title>
<path fill="none" stroke="black" d="M3165.69,-242.49C3430.33,-231.44 3774.42,-217.07 4041.07,-205.93"/>
<polygon fill="black" stroke="black" points="4041.47,-209.42 4051.32,-205.51 4041.18,-202.43 4041.47,-209.42"/>
</g>
<!-- Node0x60c08895f130 -->
<g id="node41" class="node">
<title>Node0x60c08895f130</title>
<polygon fill="none" stroke="black" points="3995,-96.5 3995,-132.5 4542,-132.5 4542,-96.5 3995,-96.5"/>
<text text-anchor="middle" x="4268.5" y="-110.8" font-family="Times,serif" font-size="14.00">_ZNSt7__cxx1112basic_stringIcSt11char_traitsIcESaIcEE10_M_disposeEv</text>
</g>
<!-- Node0x60c088960560&#45;&gt;Node0x60c08895f130 -->
<g id="edge41" class="edge">
<title>Node0x60c088960560&#45;&gt;Node0x60c08895f130</title>
<path fill="none" stroke="black" d="M4412.99,-169.49C4386.16,-159.47 4352.03,-146.71 4323.67,-136.12"/>
<polygon fill="black" stroke="black" points="4324.89,-132.84 4314.3,-132.61 4322.44,-139.39 4324.89,-132.84"/>
</g>
<!-- Node0x60c088963190 -->
<g id="node42" class="node">
<title>Node0x60c088963190</title>
<polygon fill="none" stroke="black" points="4560,-96.5 4560,-132.5 4737,-132.5 4737,-96.5 4560,-96.5"/>
<text text-anchor="middle" x="4648.5" y="-110.8" font-family="Times,serif" font-size="14.00">__clang_call_terminate</text>
</g>
<!-- Node0x60c088960560&#45;&gt;Node0x60c088963190 -->
<g id="edge42" class="edge">
<title>Node0x60c088960560&#45;&gt;Node0x60c088963190</title>
<path fill="none" stroke="black" d="M4504.01,-169.49C4530.84,-159.47 4564.97,-146.71 4593.33,-136.12"/>
<polygon fill="black" stroke="black" points="4594.56,-139.39 4602.7,-132.61 4592.11,-132.84 4594.56,-139.39"/>
</g>
<!-- Node0x60c08893f8f0 -->
<g id="node43" class="node">
<title>Node0x60c08893f8f0</title>
<polygon fill="none" stroke="black" points="4495.5,-23.5 4495.5,-59.5 4641.5,-59.5 4641.5,-23.5 4495.5,-23.5"/>
<text text-anchor="middle" x="4568.5" y="-37.8" font-family="Times,serif" font-size="14.00">__cxa_begin_catch</text>
</g>
<!-- Node0x60c088963190&#45;&gt;Node0x60c08893f8f0 -->
<g id="edge43" class="edge">
<title>Node0x60c088963190&#45;&gt;Node0x60c08893f8f0</title>
<path fill="none" stroke="black" d="M4629.13,-96.31C4619.01,-87.33 4606.46,-76.19 4595.41,-66.39"/>
<polygon fill="black" stroke="black" points="4597.49,-63.55 4587.69,-59.53 4592.84,-68.78 4597.49,-63.55"/>
</g>
<!-- Node0x60c08893f670 -->
<g id="node44" class="node">
<title>Node0x60c08893f670</title>
<polygon fill="none" stroke="black" points="4660,-23.5 4660,-59.5 4797,-59.5 4797,-23.5 4660,-23.5"/>
<text text-anchor="middle" x="4728.5" y="-37.8" font-family="Times,serif" font-size="14.00">_ZSt9terminatev</text>
</g>
<!-- Node0x60c088963190&#45;&gt;Node0x60c08893f670 -->
<g id="edge44" class="edge">
<title>Node0x60c088963190&#45;&gt;Node0x60c08893f670</title>
<path fill="none" stroke="black" d="M4667.87,-96.31C4677.99,-87.33 4690.54,-76.19 4701.59,-66.39"/>
<polygon fill="black" stroke="black" points="4704.16,-68.78 4709.31,-59.53 4699.51,-63.55 4704.16,-68.78"/>
</g>
</g>
</svg>
