<?xml version="1.0" encoding="UTF-8" standalone="no"?>
<!DOCTYPE svg PUBLIC "-//W3C//DTD SVG 1.1//EN"
 "http://www.w3.org/Graphics/SVG/1.1/DTD/svg11.dtd">
<!-- Generated by graphviz version 2.43.0 (0)
 -->
<!-- Title: Call graph: /home/h02332/po/research/call&#45;graph/cfl/icc_profile_fuzzer.ll Pages: 1 -->
<svg width="4066pt" height="14400pt"
 viewBox="0.00 0.00 4066.21 14400.00" xmlns="http://www.w3.org/2000/svg" xmlns:xlink="http://www.w3.org/1999/xlink">
<g id="graph0" class="graph" transform="scale(1.86 1.86) rotate(0) translate(36 7709)">
<title>Call graph: /home/h02332/po/research/call&#45;graph/cfl/icc_profile_fuzzer.ll</title>
<polygon fill="white" stroke="transparent" points="-36,36 -36,-7709 2151,-7709 2151,36 -36,36"/>
<!-- Node0x5a7ddaab9910 -->
<g id="node1" class="node">
<title>Node0x5a7ddaab9910</title>
<path fill="#f0f4ff" stroke="black" d="M129,-881C129,-881 12,-881 12,-881 6,-881 0,-875 0,-869 0,-869 0,-857 0,-857 0,-851 6,-845 12,-845 12,-845 129,-845 129,-845 135,-845 141,-851 141,-857 141,-857 141,-869 141,-869 141,-875 135,-881 129,-881"/>
<text text-anchor="middle" x="70.5" y="-860.8" font-family="Courier,monospace" font-size="9.00">{LLVMFuzzerTestOneInput}</text>
</g>
<!-- Node0x5a7ddab10160 -->
<g id="node2" class="node">
<title>Node0x5a7ddab10160</title>
<path fill="#f0f4ff" stroke="black" d="M466,-1779C466,-1779 381,-1779 381,-1779 375,-1779 369,-1773 369,-1767 369,-1767 369,-1755 369,-1755 369,-1749 375,-1743 381,-1743 381,-1743 466,-1743 466,-1743 472,-1743 478,-1749 478,-1755 478,-1755 478,-1767 478,-1767 478,-1773 472,-1779 466,-1779"/>
<text text-anchor="middle" x="423.5" y="-1758.8" font-family="Courier,monospace" font-size="9.00">{OpenIccProfile()}</text>
</g>
<!-- Node0x5a7ddaab9910&#45;&gt;Node0x5a7ddab10160 -->
<g id="edge1" class="edge">
<title>Node0x5a7ddaab9910&#45;&gt;Node0x5a7ddab10160</title>
<path fill="none" stroke="#4a6fa5" d="M72.01,-881.13C75.62,-994.45 100.74,-1604.68 227,-1729 261.82,-1763.29 318.21,-1769.37 361.51,-1768"/>
<polygon fill="#4a6fa5" stroke="#4a6fa5" points="361.72,-1770.44 368.61,-1767.7 361.51,-1765.54 361.72,-1770.44"/>
</g>
<!-- Node0x5a7ddab101f0 -->
<g id="node3" class="node">
<title>Node0x5a7ddab101f0</title>
<path fill="#f0f4ff" stroke="black" d="M563,-1714C563,-1714 284,-1714 284,-1714 278,-1714 272,-1708 272,-1702 272,-1702 272,-1690 272,-1690 272,-1684 278,-1678 284,-1678 284,-1678 563,-1678 563,-1678 569,-1678 575,-1684 575,-1690 575,-1690 575,-1702 575,-1702 575,-1708 569,-1714 563,-1714"/>
<text text-anchor="middle" x="423.5" y="-1693.8" font-family="Courier,monospace" font-size="9.00">{basic_string&lt;char, std::char_traits &gt;::basic_string()}</text>
</g>
<!-- Node0x5a7ddaab9910&#45;&gt;Node0x5a7ddab101f0 -->
<g id="edge2" class="edge">
<title>Node0x5a7ddaab9910&#45;&gt;Node0x5a7ddab101f0</title>
<path fill="none" stroke="#4a6fa5" d="M72.41,-881.27C78.18,-989.05 113.01,-1541.08 227,-1656 237.9,-1666.99 250.94,-1675.35 265.05,-1681.69"/>
<polygon fill="#4a6fa5" stroke="#4a6fa5" points="264.2,-1683.99 271.61,-1684.46 266.11,-1679.48 264.2,-1683.99"/>
</g>
<!-- Node0x5a7ddaafee90 -->
<g id="node4" class="node">
<title>Node0x5a7ddaafee90</title>
<path fill="#f0f4ff" stroke="black" d="M545,-1395C545,-1395 302,-1395 302,-1395 296,-1395 290,-1389 290,-1383 290,-1383 290,-1371 290,-1371 290,-1365 296,-1359 302,-1359 302,-1359 545,-1359 545,-1359 551,-1359 557,-1365 557,-1371 557,-1371 557,-1383 557,-1383 557,-1389 551,-1395 545,-1395"/>
<text text-anchor="middle" x="423.5" y="-1374.8" font-family="Courier,monospace" font-size="9.00">{char_traits &gt;::basic_string&lt;std::allocator &gt;()}</text>
</g>
<!-- Node0x5a7ddaab9910&#45;&gt;Node0x5a7ddaafee90 -->
<g id="edge3" class="edge">
<title>Node0x5a7ddaab9910&#45;&gt;Node0x5a7ddaafee90</title>
<path fill="none" stroke="#4a6fa5" d="M71.16,-881.43C70.92,-953.55 80.36,-1218.84 227,-1345 242.99,-1358.75 262.53,-1367.76 283.01,-1373.49"/>
<polygon fill="#4a6fa5" stroke="#4a6fa5" points="282.6,-1375.92 289.99,-1375.31 283.84,-1371.17 282.6,-1375.92"/>
</g>
<!-- Node0x5a7ddaa9ca60 -->
<g id="node5" class="node">
<title>Node0x5a7ddaa9ca60</title>
<path fill="#f0f4ff" stroke="black" d="M484.5,-1525C484.5,-1525 362.5,-1525 362.5,-1525 356.5,-1525 350.5,-1519 350.5,-1513 350.5,-1513 350.5,-1501 350.5,-1501 350.5,-1495 356.5,-1489 362.5,-1489 362.5,-1489 484.5,-1489 484.5,-1489 490.5,-1489 496.5,-1495 496.5,-1501 496.5,-1501 496.5,-1513 496.5,-1513 496.5,-1519 490.5,-1525 484.5,-1525"/>
<text text-anchor="middle" x="423.5" y="-1504.8" font-family="Courier,monospace" font-size="9.00">{CIccProfile::Validate()}</text>
</g>
<!-- Node0x5a7ddaab9910&#45;&gt;Node0x5a7ddaa9ca60 -->
<g id="edge4" class="edge">
<title>Node0x5a7ddaab9910&#45;&gt;Node0x5a7ddaa9ca60</title>
<path fill="none" stroke="#4a6fa5" d="M73.47,-881.24C83.84,-973.83 135.19,-1390.81 227,-1475 257.78,-1503.23 303.36,-1511.88 342.76,-1513.17"/>
<polygon fill="#4a6fa5" stroke="#4a6fa5" points="342.99,-1515.62 350.04,-1513.33 343.09,-1510.72 342.99,-1515.62"/>
</g>
<!-- Node0x5a7ddaa9bb10 -->
<g id="node6" class="node">
<title>Node0x5a7ddaa9bb10</title>
<path fill="#f0f4ff" stroke="black" d="M566,-1460C566,-1460 281,-1460 281,-1460 275,-1460 269,-1454 269,-1448 269,-1448 269,-1436 269,-1436 269,-1430 275,-1424 281,-1424 281,-1424 566,-1424 566,-1424 572,-1424 578,-1430 578,-1436 578,-1436 578,-1448 578,-1448 578,-1454 572,-1460 566,-1460"/>
<text text-anchor="middle" x="423.5" y="-1439.8" font-family="Courier,monospace" font-size="9.00">{basic_string&lt;char, std::char_traits &gt;::~basic_string()}</text>
</g>
<!-- Node0x5a7ddaab9910&#45;&gt;Node0x5a7ddaa9bb10 -->
<g id="edge5" class="edge">
<title>Node0x5a7ddaab9910&#45;&gt;Node0x5a7ddaa9bb10</title>
<path fill="none" stroke="#4a6fa5" d="M74.02,-881C86.42,-967.11 143.81,-1335.85 227,-1410 237.38,-1419.26 249.37,-1426.39 262.19,-1431.83"/>
<polygon fill="#4a6fa5" stroke="#4a6fa5" points="261.55,-1434.22 268.96,-1434.53 263.36,-1429.66 261.55,-1434.22"/>
</g>
<!-- Node0x5a7ddaa9d6e0 -->
<g id="node7" class="node">
<title>Node0x5a7ddaa9d6e0</title>
<path fill="#f0f4ff" stroke="black" d="M1471.5,-1652C1471.5,-1652 1228.5,-1652 1228.5,-1652 1222.5,-1652 1216.5,-1646 1216.5,-1640 1216.5,-1640 1216.5,-1628 1216.5,-1628 1216.5,-1622 1222.5,-1616 1228.5,-1616 1228.5,-1616 1471.5,-1616 1471.5,-1616 1477.5,-1616 1483.5,-1622 1483.5,-1628 1483.5,-1628 1483.5,-1640 1483.5,-1640 1483.5,-1646 1477.5,-1652 1471.5,-1652"/>
<text text-anchor="middle" x="1350" y="-1631.8" font-family="Courier,monospace" font-size="9.00">{std::__new_allocator&lt;char&gt;::~__new_allocator()}</text>
</g>
<!-- Node0x5a7ddaab9910&#45;&gt;Node0x5a7ddaa9d6e0 -->
<g id="edge6" class="edge">
<title>Node0x5a7ddaab9910&#45;&gt;Node0x5a7ddaa9d6e0</title>
<path fill="none" stroke="#4a6fa5" d="M72.95,-881.22C81.16,-979.66 125.14,-1447 227,-1540 367.23,-1668.03 940.8,-1655.87 1209.24,-1642.57"/>
<polygon fill="#4a6fa5" stroke="#4a6fa5" points="1209.44,-1645.01 1216.3,-1642.22 1209.19,-1640.12 1209.44,-1645.01"/>
</g>
<!-- Node0x5a7ddaa9c430 -->
<g id="node8" class="node">
<title>Node0x5a7ddaa9c430</title>
<path fill="#f0f4ff" stroke="black" d="M555.5,-1330C555.5,-1330 291.5,-1330 291.5,-1330 285.5,-1330 279.5,-1324 279.5,-1318 279.5,-1318 279.5,-1306 279.5,-1306 279.5,-1300 285.5,-1294 291.5,-1294 291.5,-1294 555.5,-1294 555.5,-1294 561.5,-1294 567.5,-1300 567.5,-1306 567.5,-1306 567.5,-1318 567.5,-1318 567.5,-1324 561.5,-1330 555.5,-1330"/>
<text text-anchor="middle" x="423.5" y="-1309.8" font-family="Courier,monospace" font-size="9.00">{std::_List_iterator&lt;IccTagEntry&gt;::_List_iterator()}</text>
</g>
<!-- Node0x5a7ddaab9910&#45;&gt;Node0x5a7ddaa9c430 -->
<g id="edge7" class="edge">
<title>Node0x5a7ddaab9910&#45;&gt;Node0x5a7ddaa9c430</title>
<path fill="none" stroke="#4a6fa5" d="M72.18,-881.22C75.71,-946.9 97.18,-1173.28 227,-1280 240.25,-1290.89 255.76,-1298.76 272.14,-1304.36"/>
<polygon fill="#4a6fa5" stroke="#4a6fa5" points="271.8,-1306.82 279.21,-1306.62 273.29,-1302.15 271.8,-1306.82"/>
</g>
<!-- Node0x5a7ddaaa0930 -->
<g id="node9" class="node">
<title>Node0x5a7ddaaa0930</title>
<path fill="#f0f4ff" stroke="black" d="M508,-1200C508,-1200 339,-1200 339,-1200 333,-1200 327,-1194 327,-1188 327,-1188 327,-1176 327,-1176 327,-1170 333,-1164 339,-1164 339,-1164 508,-1164 508,-1164 514,-1164 520,-1170 520,-1176 520,-1176 520,-1188 520,-1188 520,-1194 514,-1200 508,-1200"/>
<text text-anchor="middle" x="423.5" y="-1179.8" font-family="Courier,monospace" font-size="9.00">{std::list&lt;IccTagEntry &gt;::begin()}</text>
</g>
<!-- Node0x5a7ddaab9910&#45;&gt;Node0x5a7ddaaa0930 -->
<g id="edge8" class="edge">
<title>Node0x5a7ddaab9910&#45;&gt;Node0x5a7ddaaa0930</title>
<path fill="none" stroke="#4a6fa5" d="M75.45,-881.16C87.71,-932.79 130.25,-1081.19 227,-1150 253.71,-1169 287.62,-1178.28 319.67,-1182.46"/>
<polygon fill="#4a6fa5" stroke="#4a6fa5" points="319.67,-1184.93 326.91,-1183.32 320.25,-1180.06 319.67,-1184.93"/>
</g>
<!-- Node0x5a7ddaa9d9e0 -->
<g id="node10" class="node">
<title>Node0x5a7ddaa9d9e0</title>
<path fill="#f0f4ff" stroke="black" d="M947.5,-457C947.5,-457 836.5,-457 836.5,-457 830.5,-457 824.5,-451 824.5,-445 824.5,-445 824.5,-433 824.5,-433 824.5,-427 830.5,-421 836.5,-421 836.5,-421 947.5,-421 947.5,-421 953.5,-421 959.5,-427 959.5,-433 959.5,-433 959.5,-445 959.5,-445 959.5,-451 953.5,-457 947.5,-457"/>
<text text-anchor="middle" x="892" y="-436.8" font-family="Courier,monospace" font-size="9.00">{llvm.memcpy.p0.p0.i64}</text>
</g>
<!-- Node0x5a7ddaab9910&#45;&gt;Node0x5a7ddaa9d9e0 -->
<g id="edge9" class="edge">
<title>Node0x5a7ddaab9910&#45;&gt;Node0x5a7ddaa9d9e0</title>
<path fill="none" stroke="#4a6fa5" d="M91.76,-881.16C119.78,-904.94 173.04,-945.42 227,-961 394.81,-1009.47 470.73,-1051.7 620,-961 808.88,-846.24 872.09,-552.39 887.12,-464.32"/>
<polygon fill="#4a6fa5" stroke="#4a6fa5" points="889.58,-464.46 888.31,-457.15 884.74,-463.66 889.58,-464.46"/>
</g>
<!-- Node0x5a7ddab18e90 -->
<g id="node11" class="node">
<title>Node0x5a7ddab18e90</title>
<path fill="#f0f4ff" stroke="black" d="M503,-1265C503,-1265 344,-1265 344,-1265 338,-1265 332,-1259 332,-1253 332,-1253 332,-1241 332,-1241 332,-1235 338,-1229 344,-1229 344,-1229 503,-1229 503,-1229 509,-1229 515,-1235 515,-1241 515,-1241 515,-1253 515,-1253 515,-1259 509,-1265 503,-1265"/>
<text text-anchor="middle" x="423.5" y="-1244.8" font-family="Courier,monospace" font-size="9.00">{std::list&lt;IccTagEntry &gt;::end()}</text>
</g>
<!-- Node0x5a7ddaab9910&#45;&gt;Node0x5a7ddab18e90 -->
<g id="edge10" class="edge">
<title>Node0x5a7ddaab9910&#45;&gt;Node0x5a7ddab18e90</title>
<path fill="none" stroke="#4a6fa5" d="M73.55,-881.25C81.24,-940.32 113.93,-1127.51 227,-1215 254.55,-1236.32 290.91,-1245.78 324.79,-1249.42"/>
<polygon fill="#4a6fa5" stroke="#4a6fa5" points="324.78,-1251.88 331.98,-1250.11 325.24,-1247.01 324.78,-1251.88"/>
</g>
<!-- Node0x5a7ddab1a920 -->
<g id="node12" class="node">
<title>Node0x5a7ddab1a920</title>
<path fill="#f0f4ff" stroke="black" d="M608,-1070C608,-1070 239,-1070 239,-1070 233,-1070 227,-1064 227,-1058 227,-1058 227,-1046 227,-1046 227,-1040 233,-1034 239,-1034 239,-1034 608,-1034 608,-1034 614,-1034 620,-1040 620,-1046 620,-1046 620,-1058 620,-1058 620,-1064 614,-1070 608,-1070"/>
<text text-anchor="middle" x="423.5" y="-1049.8" font-family="Courier,monospace" font-size="9.00">{std::operator!=(std::_List_iterator&lt;IccTagEntry&gt; const&amp;, std::_List...}</text>
</g>
<!-- Node0x5a7ddaab9910&#45;&gt;Node0x5a7ddab1a920 -->
<g id="edge11" class="edge">
<title>Node0x5a7ddaab9910&#45;&gt;Node0x5a7ddab1a920</title>
<path fill="none" stroke="#4a6fa5" d="M84.63,-881.03C108.9,-912.91 164.08,-979.01 227,-1012 242.71,-1020.24 259.96,-1026.78 277.5,-1031.98"/>
<polygon fill="#4a6fa5" stroke="#4a6fa5" points="277.09,-1034.41 284.49,-1033.98 278.44,-1029.7 277.09,-1034.41"/>
</g>
<!-- Node0x5a7ddab1bda0 -->
<g id="node13" class="node">
<title>Node0x5a7ddab1bda0</title>
<path fill="#f0f4ff" stroke="black" d="M558,-1135C558,-1135 289,-1135 289,-1135 283,-1135 277,-1129 277,-1123 277,-1123 277,-1111 277,-1111 277,-1105 283,-1099 289,-1099 289,-1099 558,-1099 558,-1099 564,-1099 570,-1105 570,-1111 570,-1111 570,-1123 570,-1123 570,-1129 564,-1135 558,-1135"/>
<text text-anchor="middle" x="423.5" y="-1114.8" font-family="Courier,monospace" font-size="9.00">{std::_List_iterator&lt;IccTagEntry&gt;::operator&#45;() const}</text>
</g>
<!-- Node0x5a7ddaab9910&#45;&gt;Node0x5a7ddab1bda0 -->
<g id="edge12" class="edge">
<title>Node0x5a7ddaab9910&#45;&gt;Node0x5a7ddab1bda0</title>
<path fill="none" stroke="#4a6fa5" d="M78.34,-881.07C95.73,-924.36 146.12,-1034.18 227,-1085 240.13,-1093.25 254.7,-1099.59 269.8,-1104.43"/>
<polygon fill="#4a6fa5" stroke="#4a6fa5" points="269.36,-1106.86 276.77,-1106.55 270.79,-1102.17 269.36,-1106.86"/>
</g>
<!-- Node0x5a7ddab1f380 -->
<g id="node14" class="node">
<title>Node0x5a7ddab1f380</title>
<path fill="#f0f4ff" stroke="black" d="M484.5,-946C484.5,-946 362.5,-946 362.5,-946 356.5,-946 350.5,-940 350.5,-934 350.5,-934 350.5,-922 350.5,-922 350.5,-916 356.5,-910 362.5,-910 362.5,-910 484.5,-910 484.5,-910 490.5,-910 496.5,-916 496.5,-922 496.5,-922 496.5,-934 496.5,-934 496.5,-940 490.5,-946 484.5,-946"/>
<text text-anchor="middle" x="423.5" y="-925.8" font-family="Courier,monospace" font-size="9.00">{CIccMemIO::~CIccMemIO()}</text>
</g>
<!-- Node0x5a7ddaab9910&#45;&gt;Node0x5a7ddab1f380 -->
<g id="edge13" class="edge">
<title>Node0x5a7ddaab9910&#45;&gt;Node0x5a7ddab1f380</title>
<path fill="none" stroke="#4a6fa5" d="M141.03,-878.48C167.84,-884.26 198.79,-890.7 227,-896 265.19,-903.17 307.74,-910.25 343.37,-915.91"/>
<polygon fill="#4a6fa5" stroke="#4a6fa5" points="343.1,-918.35 350.4,-917.03 343.87,-913.51 343.1,-918.35"/>
</g>
<!-- Node0x5a7ddab1fd80 -->
<g id="node15" class="node">
<title>Node0x5a7ddab1fd80</title>
<path fill="#f0f4ff" stroke="black" d="M487,-881C487,-881 360,-881 360,-881 354,-881 348,-875 348,-869 348,-869 348,-857 348,-857 348,-851 354,-845 360,-845 360,-845 487,-845 487,-845 493,-845 499,-851 499,-857 499,-857 499,-869 499,-869 499,-875 493,-881 487,-881"/>
<text text-anchor="middle" x="423.5" y="-860.8" font-family="Courier,monospace" font-size="9.00">{operator delete[](void*)}</text>
</g>
<!-- Node0x5a7ddaab9910&#45;&gt;Node0x5a7ddab1fd80 -->
<g id="edge14" class="edge">
<title>Node0x5a7ddaab9910&#45;&gt;Node0x5a7ddab1fd80</title>
<path fill="none" stroke="#4a6fa5" d="M141.27,-863C198.61,-863 279.97,-863 340.44,-863"/>
<polygon fill="#4a6fa5" stroke="#4a6fa5" points="340.71,-865.45 347.71,-863 340.71,-860.55 340.71,-865.45"/>
</g>
<!-- Node0x5a7ddab1f100 -->
<g id="node16" class="node">
<title>Node0x5a7ddab1f100</title>
<path fill="#f0f4ff" stroke="black" d="M471.5,-816C471.5,-816 375.5,-816 375.5,-816 369.5,-816 363.5,-810 363.5,-804 363.5,-804 363.5,-792 363.5,-792 363.5,-786 369.5,-780 375.5,-780 375.5,-780 471.5,-780 471.5,-780 477.5,-780 483.5,-786 483.5,-792 483.5,-792 483.5,-804 483.5,-804 483.5,-810 477.5,-816 471.5,-816"/>
<text text-anchor="middle" x="423.5" y="-795.8" font-family="Courier,monospace" font-size="9.00">{CIccMemIO::Read8()}</text>
</g>
<!-- Node0x5a7ddaab9910&#45;&gt;Node0x5a7ddab1f100 -->
<g id="edge15" class="edge">
<title>Node0x5a7ddaab9910&#45;&gt;Node0x5a7ddab1f100</title>
<path fill="none" stroke="#4a6fa5" d="M141.06,-848.13C167.88,-842.55 198.82,-836.28 227,-831 270,-822.95 318.49,-814.76 356.42,-808.55"/>
<polygon fill="#4a6fa5" stroke="#4a6fa5" points="356.86,-810.96 363.37,-807.42 356.07,-806.13 356.86,-810.96"/>
</g>
<!-- Node0x5a7ddab1f9c0 -->
<g id="node17" class="node">
<title>Node0x5a7ddab1f9c0</title>
<path fill="#f0f4ff" stroke="black" d="M560.5,-751C560.5,-751 286.5,-751 286.5,-751 280.5,-751 274.5,-745 274.5,-739 274.5,-739 274.5,-727 274.5,-727 274.5,-721 280.5,-715 286.5,-715 286.5,-715 560.5,-715 560.5,-715 566.5,-715 572.5,-721 572.5,-727 572.5,-727 572.5,-739 572.5,-739 572.5,-745 566.5,-751 560.5,-751"/>
<text text-anchor="middle" x="423.5" y="-730.8" font-family="Courier,monospace" font-size="9.00">{operator new[](unsigned long, std::nothrow_t const&amp;)}</text>
</g>
<!-- Node0x5a7ddaab9910&#45;&gt;Node0x5a7ddab1f9c0 -->
<g id="edge16" class="edge">
<title>Node0x5a7ddaab9910&#45;&gt;Node0x5a7ddab1f9c0</title>
<path fill="none" stroke="#4a6fa5" d="M94.21,-844.79C123.22,-822.52 175.83,-785.41 227,-766 240.75,-760.79 255.35,-756.4 270.13,-752.7"/>
<polygon fill="#4a6fa5" stroke="#4a6fa5" points="270.71,-755.08 276.94,-751.04 269.56,-750.31 270.71,-755.08"/>
</g>
<!-- Node0x5a7ddab1eac0 -->
<g id="node18" class="node">
<title>Node0x5a7ddab1eac0</title>
<path fill="#f0f4ff" stroke="black" d="M468.5,-686C468.5,-686 378.5,-686 378.5,-686 372.5,-686 366.5,-680 366.5,-674 366.5,-674 366.5,-662 366.5,-662 366.5,-656 372.5,-650 378.5,-650 378.5,-650 468.5,-650 468.5,-650 474.5,-650 480.5,-656 480.5,-662 480.5,-662 480.5,-674 480.5,-674 480.5,-680 474.5,-686 468.5,-686"/>
<text text-anchor="middle" x="423.5" y="-665.8" font-family="Courier,monospace" font-size="9.00">{CIccMemIO::Seek()}</text>
</g>
<!-- Node0x5a7ddaab9910&#45;&gt;Node0x5a7ddab1eac0 -->
<g id="edge17" class="edge">
<title>Node0x5a7ddaab9910&#45;&gt;Node0x5a7ddab1eac0</title>
<path fill="none" stroke="#4a6fa5" d="M83.03,-844.79C105.88,-810.39 160.49,-736.18 227,-701 267.67,-679.49 319.18,-671.44 359.11,-668.67"/>
<polygon fill="#4a6fa5" stroke="#4a6fa5" points="359.59,-671.09 366.43,-668.21 359.29,-666.2 359.59,-671.09"/>
</g>
<!-- Node0x5a7ddab1d4a0 -->
<g id="node19" class="node">
<title>Node0x5a7ddab1d4a0</title>
<path fill="#f0f4ff" stroke="black" d="M482,-621C482,-621 365,-621 365,-621 359,-621 353,-615 353,-609 353,-609 353,-597 353,-597 353,-591 359,-585 365,-585 365,-585 482,-585 482,-585 488,-585 494,-591 494,-597 494,-597 494,-609 494,-609 494,-615 488,-621 482,-621"/>
<text text-anchor="middle" x="423.5" y="-600.8" font-family="Courier,monospace" font-size="9.00">{CIccMemIO::GetLength()}</text>
</g>
<!-- Node0x5a7ddaab9910&#45;&gt;Node0x5a7ddab1d4a0 -->
<g id="edge18" class="edge">
<title>Node0x5a7ddaab9910&#45;&gt;Node0x5a7ddab1d4a0</title>
<path fill="none" stroke="#4a6fa5" d="M78.1,-844.88C95.14,-800.91 145.09,-688.35 227,-636 261.95,-613.66 307.31,-605.04 345.54,-602.17"/>
<polygon fill="#4a6fa5" stroke="#4a6fa5" points="345.77,-604.61 352.59,-601.7 345.45,-599.73 345.77,-604.61"/>
</g>
<!-- Node0x5a7ddab1dae0 -->
<g id="node20" class="node">
<title>Node0x5a7ddab1dae0</title>
<path fill="#f0f4ff" stroke="black" d="M476.5,-556C476.5,-556 370.5,-556 370.5,-556 364.5,-556 358.5,-550 358.5,-544 358.5,-544 358.5,-532 358.5,-532 358.5,-526 364.5,-520 370.5,-520 370.5,-520 476.5,-520 476.5,-520 482.5,-520 488.5,-526 488.5,-532 488.5,-532 488.5,-544 488.5,-544 488.5,-550 482.5,-556 476.5,-556"/>
<text text-anchor="middle" x="423.5" y="-535.8" font-family="Courier,monospace" font-size="9.00">{CIccProfile::Write()}</text>
</g>
<!-- Node0x5a7ddaab9910&#45;&gt;Node0x5a7ddab1dae0 -->
<g id="edge19" class="edge">
<title>Node0x5a7ddaab9910&#45;&gt;Node0x5a7ddab1dae0</title>
<path fill="none" stroke="#4a6fa5" d="M75.28,-844.93C87.19,-792.83 129.14,-641.51 227,-571 262.62,-545.33 311.29,-537.05 351.15,-535.2"/>
<polygon fill="#4a6fa5" stroke="#4a6fa5" points="351.58,-537.64 358.48,-534.93 351.4,-532.74 351.58,-537.64"/>
</g>
<!-- Node0x5a7ddab1e120 -->
<g id="node21" class="node">
<title>Node0x5a7ddab1e120</title>
<path fill="#f0f4ff" stroke="black" d="M482,-491C482,-491 365,-491 365,-491 359,-491 353,-485 353,-479 353,-479 353,-467 353,-467 353,-461 359,-455 365,-455 365,-455 482,-455 482,-455 488,-455 494,-461 494,-467 494,-467 494,-479 494,-479 494,-485 488,-491 482,-491"/>
<text text-anchor="middle" x="423.5" y="-470.8" font-family="Courier,monospace" font-size="9.00">{CIccMemIO::CIccMemIO()}</text>
</g>
<!-- Node0x5a7ddaab9910&#45;&gt;Node0x5a7ddab1e120 -->
<g id="edge20" class="edge">
<title>Node0x5a7ddaab9910&#45;&gt;Node0x5a7ddab1e120</title>
<path fill="none" stroke="#4a6fa5" d="M73.43,-844.94C80.79,-785.6 112.77,-595.32 227,-506 260.19,-480.05 306.32,-471.37 345.44,-469.38"/>
<polygon fill="#4a6fa5" stroke="#4a6fa5" points="345.77,-471.82 352.66,-469.08 345.56,-466.92 345.77,-471.82"/>
</g>
<!-- Node0x5a7ddab1d220 -->
<g id="node22" class="node">
<title>Node0x5a7ddab1d220</title>
<path fill="#f0f4ff" stroke="black" d="M542,-426C542,-426 305,-426 305,-426 299,-426 293,-420 293,-414 293,-414 293,-402 293,-402 293,-396 299,-390 305,-390 305,-390 542,-390 542,-390 548,-390 554,-396 554,-402 554,-402 554,-414 554,-414 554,-420 548,-426 542,-426"/>
<text text-anchor="middle" x="423.5" y="-405.8" font-family="Courier,monospace" font-size="9.00">{basic_string&lt;char, std::char_traits &gt;::find()}</text>
</g>
<!-- Node0x5a7ddaab9910&#45;&gt;Node0x5a7ddab1d220 -->
<g id="edge21" class="edge">
<title>Node0x5a7ddaab9910&#45;&gt;Node0x5a7ddab1d220</title>
<path fill="none" stroke="#4a6fa5" d="M72.12,-844.59C75.44,-778.23 96.29,-549.42 227,-441 243.91,-426.97 264.55,-417.89 286,-412.15"/>
<polygon fill="#4a6fa5" stroke="#4a6fa5" points="286.79,-414.48 292.99,-410.41 285.6,-409.73 286.79,-414.48"/>
</g>
<!-- Node0x5a7ddab1caa0 -->
<g id="node23" class="node">
<title>Node0x5a7ddab1caa0</title>
<path fill="#f0f4ff" stroke="black" d="M513.5,-361C513.5,-361 333.5,-361 333.5,-361 327.5,-361 321.5,-355 321.5,-349 321.5,-349 321.5,-337 321.5,-337 321.5,-331 327.5,-325 333.5,-325 333.5,-325 513.5,-325 513.5,-325 519.5,-325 525.5,-331 525.5,-337 525.5,-337 525.5,-349 525.5,-349 525.5,-355 519.5,-361 513.5,-361"/>
<text text-anchor="middle" x="423.5" y="-340.8" font-family="Courier,monospace" font-size="9.00">{CIccProfile::GetParentColorSpace()}</text>
</g>
<!-- Node0x5a7ddaab9910&#45;&gt;Node0x5a7ddab1caa0 -->
<g id="edge22" class="edge">
<title>Node0x5a7ddaab9910&#45;&gt;Node0x5a7ddab1caa0</title>
<path fill="none" stroke="#4a6fa5" d="M71.11,-844.9C70.63,-772.86 79.16,-504.23 227,-376 250.99,-355.19 283.09,-345.09 314.33,-340.69"/>
<polygon fill="#4a6fa5" stroke="#4a6fa5" points="314.76,-343.11 321.4,-339.79 314.14,-338.25 314.76,-343.11"/>
</g>
<!-- Node0x5a7ddab1cd20 -->
<g id="node24" class="node">
<title>Node0x5a7ddab1cd20</title>
<path fill="#f0f4ff" stroke="black" d="M518.5,-296C518.5,-296 328.5,-296 328.5,-296 322.5,-296 316.5,-290 316.5,-284 316.5,-284 316.5,-272 316.5,-272 316.5,-266 322.5,-260 328.5,-260 328.5,-260 518.5,-260 518.5,-260 524.5,-260 530.5,-266 530.5,-272 530.5,-272 530.5,-284 530.5,-284 530.5,-290 524.5,-296 518.5,-296"/>
<text text-anchor="middle" x="423.5" y="-275.8" font-family="Courier,monospace" font-size="9.00">{CIccProfile::GetParentSpaceSamples()}</text>
</g>
<!-- Node0x5a7ddaab9910&#45;&gt;Node0x5a7ddab1cd20 -->
<g id="edge23" class="edge">
<title>Node0x5a7ddaab9910&#45;&gt;Node0x5a7ddab1cd20</title>
<path fill="none" stroke="#4a6fa5" d="M74,-844.84C86.32,-758 143.38,-386.09 227,-311 249.46,-290.83 279.49,-280.6 309.25,-275.88"/>
<polygon fill="#4a6fa5" stroke="#4a6fa5" points="309.82,-278.27 316.4,-274.85 309.12,-273.42 309.82,-278.27"/>
</g>
<!-- Node0x5a7ddab1cfa0 -->
<g id="node25" class="node">
<title>Node0x5a7ddab1cfa0</title>
<path fill="#f0f4ff" stroke="black" d="M497.5,-231C497.5,-231 349.5,-231 349.5,-231 343.5,-231 337.5,-225 337.5,-219 337.5,-219 337.5,-207 337.5,-207 337.5,-201 343.5,-195 349.5,-195 349.5,-195 497.5,-195 497.5,-195 503.5,-195 509.5,-201 509.5,-207 509.5,-207 509.5,-219 509.5,-219 509.5,-225 503.5,-231 497.5,-231"/>
<text text-anchor="middle" x="423.5" y="-210.8" font-family="Courier,monospace" font-size="9.00">{CIccProfile::AreTagsUnique()}</text>
</g>
<!-- Node0x5a7ddaab9910&#45;&gt;Node0x5a7ddab1cfa0 -->
<g id="edge24" class="edge">
<title>Node0x5a7ddaab9910&#45;&gt;Node0x5a7ddab1cfa0</title>
<path fill="none" stroke="#4a6fa5" d="M73.42,-844.93C83.64,-752.25 134.68,-331.24 227,-246 254.5,-220.61 293.92,-210.83 330.16,-207.99"/>
<polygon fill="#4a6fa5" stroke="#4a6fa5" points="330.54,-210.42 337.36,-207.51 330.22,-205.53 330.54,-210.42"/>
</g>
<!-- Node0x5a7ddab1c820 -->
<g id="node26" class="node">
<title>Node0x5a7ddab1c820</title>
<path fill="#f0f4ff" stroke="black" d="M503,-166C503,-166 344,-166 344,-166 338,-166 332,-160 332,-154 332,-154 332,-142 332,-142 332,-136 338,-130 344,-130 344,-130 503,-130 503,-130 509,-130 515,-136 515,-142 515,-142 515,-154 515,-154 515,-160 509,-166 503,-166"/>
<text text-anchor="middle" x="423.5" y="-145.8" font-family="Courier,monospace" font-size="9.00">{CIccProfile::GetSpaceSamples()}</text>
</g>
<!-- Node0x5a7ddaab9910&#45;&gt;Node0x5a7ddab1c820 -->
<g id="edge25" class="edge">
<title>Node0x5a7ddaab9910&#45;&gt;Node0x5a7ddab1c820</title>
<path fill="none" stroke="#4a6fa5" d="M72.98,-844.7C81.35,-745.84 126.03,-276.38 227,-181 252.81,-156.62 289.57,-146.53 324.26,-143.17"/>
<polygon fill="#4a6fa5" stroke="#4a6fa5" points="324.85,-145.58 331.62,-142.55 324.44,-140.69 324.85,-145.58"/>
</g>
<!-- Node0x5a7ddab1b290 -->
<g id="node27" class="node">
<title>Node0x5a7ddab1b290</title>
<path fill="#f0f4ff" stroke="black" d="M482,-101C482,-101 365,-101 365,-101 359,-101 353,-95 353,-89 353,-89 353,-77 353,-77 353,-71 359,-65 365,-65 365,-65 482,-65 482,-65 488,-65 494,-71 494,-77 494,-77 494,-89 494,-89 494,-95 488,-101 482,-101"/>
<text text-anchor="middle" x="423.5" y="-80.8" font-family="Courier,monospace" font-size="9.00">{CIccProfile::FindTag()}</text>
</g>
<!-- Node0x5a7ddaab9910&#45;&gt;Node0x5a7ddab1b290 -->
<g id="edge26" class="edge">
<title>Node0x5a7ddaab9910&#45;&gt;Node0x5a7ddab1b290</title>
<path fill="none" stroke="#4a6fa5" d="M72.59,-844.72C79.19,-740.43 117.25,-221.65 227,-116 258,-86.16 305.33,-77.59 345.66,-76.64"/>
<polygon fill="#4a6fa5" stroke="#4a6fa5" points="345.88,-79.09 352.84,-76.55 345.81,-74.19 345.88,-79.09"/>
</g>
<!-- Node0x5a7ddab1a510 -->
<g id="node28" class="node">
<title>Node0x5a7ddab1a510</title>
<path fill="#f0f4ff" stroke="black" d="M552.5,-36C552.5,-36 294.5,-36 294.5,-36 288.5,-36 282.5,-30 282.5,-24 282.5,-24 282.5,-12 282.5,-12 282.5,-6 288.5,0 294.5,0 294.5,0 552.5,0 552.5,0 558.5,0 564.5,-6 564.5,-12 564.5,-12 564.5,-24 564.5,-24 564.5,-30 558.5,-36 552.5,-36"/>
<text text-anchor="middle" x="423.5" y="-15.8" font-family="Courier,monospace" font-size="9.00">{std::_List_iterator&lt;IccTagEntry&gt;::operator++(int)}</text>
</g>
<!-- Node0x5a7ddaab9910&#45;&gt;Node0x5a7ddab1a510 -->
<g id="edge27" class="edge">
<title>Node0x5a7ddaab9910&#45;&gt;Node0x5a7ddab1a510</title>
<path fill="none" stroke="#4a6fa5" d="M72.25,-844.95C77.17,-736.02 108.36,-167.05 227,-51 240.59,-37.71 257.41,-28.62 275.44,-22.53"/>
<polygon fill="#4a6fa5" stroke="#4a6fa5" points="276.19,-24.86 282.13,-20.42 274.72,-20.19 276.19,-24.86"/>
</g>
<!-- Node0x5a7ddab1d3f0 -->
<g id="node29" class="node">
<title>Node0x5a7ddab1d3f0</title>
<path fill="#f0f4ff" stroke="black" d="M1034.5,-1330C1034.5,-1330 749.5,-1330 749.5,-1330 743.5,-1330 737.5,-1324 737.5,-1318 737.5,-1318 737.5,-1306 737.5,-1306 737.5,-1300 743.5,-1294 749.5,-1294 749.5,-1294 1034.5,-1294 1034.5,-1294 1040.5,-1294 1046.5,-1300 1046.5,-1306 1046.5,-1306 1046.5,-1318 1046.5,-1318 1046.5,-1324 1040.5,-1330 1034.5,-1330"/>
<text text-anchor="middle" x="892" y="-1309.8" font-family="Courier,monospace" font-size="9.00">{basic_string&lt;char, std::char_traits &gt;::_M_local_data()}</text>
</g>
<!-- Node0x5a7ddaafee90&#45;&gt;Node0x5a7ddab1d3f0 -->
<g id="edge28" class="edge">
<title>Node0x5a7ddaafee90&#45;&gt;Node0x5a7ddab1d3f0</title>
<path fill="none" stroke="#4a6fa5" d="M553.83,-1358.98C616.14,-1350.3 690.89,-1339.88 754.16,-1331.07"/>
<polygon fill="#4a6fa5" stroke="#4a6fa5" points="754.83,-1333.45 761.42,-1330.05 754.15,-1328.59 754.83,-1333.45"/>
</g>
<!-- Node0x5a7ddab2adc0 -->
<g id="node30" class="node">
<title>Node0x5a7ddab2adc0</title>
<path fill="#f0f4ff" stroke="black" d="M1005.5,-1590C1005.5,-1590 778.5,-1590 778.5,-1590 772.5,-1590 766.5,-1584 766.5,-1578 766.5,-1578 766.5,-1566 766.5,-1566 766.5,-1560 772.5,-1554 778.5,-1554 778.5,-1554 1005.5,-1554 1005.5,-1554 1011.5,-1554 1017.5,-1560 1017.5,-1566 1017.5,-1566 1017.5,-1578 1017.5,-1578 1017.5,-1584 1011.5,-1590 1005.5,-1590"/>
<text text-anchor="middle" x="892" y="-1569.8" font-family="Courier,monospace" font-size="9.00">{char_traits &gt;::_Alloc_hider::_Alloc_hider()}</text>
</g>
<!-- Node0x5a7ddaafee90&#45;&gt;Node0x5a7ddab2adc0 -->
<g id="edge29" class="edge">
<title>Node0x5a7ddaafee90&#45;&gt;Node0x5a7ddab2adc0</title>
<path fill="none" stroke="#4a6fa5" d="M557.02,-1384.26C579.24,-1389.6 601.17,-1397.75 620,-1410 678.07,-1447.78 648.01,-1502.1 706,-1540 722.04,-1550.48 740.47,-1557.84 759.34,-1562.95"/>
<polygon fill="#4a6fa5" stroke="#4a6fa5" points="758.92,-1565.37 766.31,-1564.73 760.13,-1560.62 758.92,-1565.37"/>
</g>
<!-- Node0x5a7ddab20300 -->
<g id="node31" class="node">
<title>Node0x5a7ddab20300</title>
<path fill="#f0f4ff" stroke="black" d="M961,-1525C961,-1525 823,-1525 823,-1525 817,-1525 811,-1519 811,-1513 811,-1513 811,-1501 811,-1501 811,-1495 817,-1489 823,-1489 823,-1489 961,-1489 961,-1489 967,-1489 973,-1495 973,-1501 973,-1501 973,-1513 973,-1513 973,-1519 967,-1525 961,-1525"/>
<text text-anchor="middle" x="892" y="-1504.8" font-family="Courier,monospace" font-size="9.00">{std::__throw_logic_error()}</text>
</g>
<!-- Node0x5a7ddaafee90&#45;&gt;Node0x5a7ddab20300 -->
<g id="edge30" class="edge">
<title>Node0x5a7ddaafee90&#45;&gt;Node0x5a7ddab20300</title>
<path fill="none" stroke="#4a6fa5" d="M557.13,-1390.51C578.66,-1395.2 600.33,-1401.51 620,-1410 663.99,-1428.98 662.05,-1455.94 706,-1475 736.44,-1488.2 771.93,-1495.97 803.63,-1500.53"/>
<polygon fill="#4a6fa5" stroke="#4a6fa5" points="803.49,-1502.98 810.76,-1501.51 804.16,-1498.13 803.49,-1502.98"/>
</g>
<!-- Node0x5a7ddab20af0 -->
<g id="node32" class="node">
<title>Node0x5a7ddab20af0</title>
<path fill="#f0f4ff" stroke="black" d="M1008,-1460C1008,-1460 776,-1460 776,-1460 770,-1460 764,-1454 764,-1448 764,-1448 764,-1436 764,-1436 764,-1430 770,-1424 776,-1424 776,-1424 1008,-1424 1008,-1424 1014,-1424 1020,-1430 1020,-1436 1020,-1436 1020,-1448 1020,-1448 1020,-1454 1014,-1460 1008,-1460"/>
<text text-anchor="middle" x="892" y="-1439.8" font-family="Courier,monospace" font-size="9.00">{char_traits &gt;::_Alloc_hider::~_Alloc_hider()}</text>
</g>
<!-- Node0x5a7ddaafee90&#45;&gt;Node0x5a7ddab20af0 -->
<g id="edge31" class="edge">
<title>Node0x5a7ddaafee90&#45;&gt;Node0x5a7ddab20af0</title>
<path fill="none" stroke="#4a6fa5" d="M553.83,-1395.02C616.92,-1403.81 692.76,-1414.38 756.53,-1423.26"/>
<polygon fill="#4a6fa5" stroke="#4a6fa5" points="756.57,-1425.74 763.84,-1424.28 757.25,-1420.89 756.57,-1425.74"/>
</g>
<!-- Node0x5a7ddab1e540 -->
<g id="node33" class="node">
<title>Node0x5a7ddab1e540</title>
<path fill="#f0f4ff" stroke="black" d="M976.5,-1395C976.5,-1395 807.5,-1395 807.5,-1395 801.5,-1395 795.5,-1389 795.5,-1383 795.5,-1383 795.5,-1371 795.5,-1371 795.5,-1365 801.5,-1359 807.5,-1359 807.5,-1359 976.5,-1359 976.5,-1359 982.5,-1359 988.5,-1365 988.5,-1371 988.5,-1371 988.5,-1383 988.5,-1383 988.5,-1389 982.5,-1395 976.5,-1395"/>
<text text-anchor="middle" x="892" y="-1374.8" font-family="Courier,monospace" font-size="9.00">{std::char_traits&lt;char&gt;::length()}</text>
</g>
<!-- Node0x5a7ddaafee90&#45;&gt;Node0x5a7ddab1e540 -->
<g id="edge32" class="edge">
<title>Node0x5a7ddaafee90&#45;&gt;Node0x5a7ddab1e540</title>
<path fill="none" stroke="#4a6fa5" d="M557.24,-1377C630.53,-1377 720.18,-1377 788.1,-1377"/>
<polygon fill="#4a6fa5" stroke="#4a6fa5" points="788.44,-1379.45 795.44,-1377 788.44,-1374.55 788.44,-1379.45"/>
</g>
<!-- Node0x5a7ddab320d0 -->
<g id="node34" class="node">
<title>Node0x5a7ddab320d0</title>
<path fill="#f0f4ff" stroke="black" d="M1066,-1265C1066,-1265 718,-1265 718,-1265 712,-1265 706,-1259 706,-1253 706,-1253 706,-1241 706,-1241 706,-1235 712,-1229 718,-1229 718,-1229 1066,-1229 1066,-1229 1072,-1229 1078,-1235 1078,-1241 1078,-1241 1078,-1253 1078,-1253 1078,-1259 1072,-1265 1066,-1265"/>
<text text-anchor="middle" x="892" y="-1244.8" font-family="Courier,monospace" font-size="9.00">{basic_string&lt;char, std::char_traits &gt;::_M_construct&lt;char const*&gt;()}</text>
</g>
<!-- Node0x5a7ddaafee90&#45;&gt;Node0x5a7ddab320d0 -->
<g id="edge33" class="edge">
<title>Node0x5a7ddaafee90&#45;&gt;Node0x5a7ddab320d0</title>
<path fill="none" stroke="#4a6fa5" d="M557.13,-1364.24C578.65,-1359.65 600.32,-1353.43 620,-1345 664.04,-1326.13 662.1,-1299.18 706,-1280 717.6,-1274.93 729.94,-1270.64 742.52,-1267.01"/>
<polygon fill="#4a6fa5" stroke="#4a6fa5" points="743.45,-1269.29 749.54,-1265.06 742.14,-1264.57 743.45,-1269.29"/>
</g>
<!-- Node0x5a7ddab32470 -->
<g id="node36" class="node">
<title>Node0x5a7ddab32470</title>
<path fill="#f0f4ff" stroke="black" d="M1024,-1200C1024,-1200 760,-1200 760,-1200 754,-1200 748,-1194 748,-1188 748,-1188 748,-1176 748,-1176 748,-1170 754,-1164 760,-1164 760,-1164 1024,-1164 1024,-1164 1030,-1164 1036,-1170 1036,-1176 1036,-1176 1036,-1188 1036,-1188 1036,-1194 1030,-1200 1024,-1200"/>
<text text-anchor="middle" x="892" y="-1179.8" font-family="Courier,monospace" font-size="9.00">{std::_List_iterator&lt;IccTagEntry&gt;::_List_iterator()}</text>
</g>
<!-- Node0x5a7ddaaa0930&#45;&gt;Node0x5a7ddab32470 -->
<g id="edge34" class="edge">
<title>Node0x5a7ddaaa0930&#45;&gt;Node0x5a7ddab32470</title>
<path fill="none" stroke="#4a6fa5" d="M520.03,-1182C583.43,-1182 667.97,-1182 740.34,-1182"/>
<polygon fill="#4a6fa5" stroke="#4a6fa5" points="740.75,-1184.45 747.75,-1182 740.75,-1179.55 740.75,-1184.45"/>
</g>
<!-- Node0x5a7ddab18e90&#45;&gt;Node0x5a7ddab32470 -->
<g id="edge35" class="edge">
<title>Node0x5a7ddab18e90&#45;&gt;Node0x5a7ddab32470</title>
<path fill="none" stroke="#4a6fa5" d="M515.28,-1234.35C583.19,-1224.89 677.23,-1211.79 754.24,-1201.06"/>
<polygon fill="#4a6fa5" stroke="#4a6fa5" points="755.04,-1203.42 761.64,-1200.02 754.37,-1198.56 755.04,-1203.42"/>
</g>
<!-- Node0x5a7ddab33940 -->
<g id="node37" class="node">
<title>Node0x5a7ddab33940</title>
<path fill="#f0f4ff" stroke="black" d="M1000,-943C1000,-943 784,-943 784,-943 778,-943 772,-937 772,-931 772,-931 772,-919 772,-919 772,-913 778,-907 784,-907 784,-907 1000,-907 1000,-907 1006,-907 1012,-913 1012,-919 1012,-919 1012,-931 1012,-931 1012,-937 1006,-943 1000,-943"/>
<text text-anchor="middle" x="892" y="-922.8" font-family="Courier,monospace" font-size="9.00">{std::_List_node&lt;IccTagEntry&gt;::_M_valptr()}</text>
</g>
<!-- Node0x5a7ddab1bda0&#45;&gt;Node0x5a7ddab33940 -->
<g id="edge36" class="edge">
<title>Node0x5a7ddab1bda0&#45;&gt;Node0x5a7ddab33940</title>
<path fill="none" stroke="#4a6fa5" d="M570.13,-1106.4C587.72,-1101.35 604.81,-1094.43 620,-1085 675.75,-1050.39 651.15,-1001.01 706,-965 723.72,-953.36 744.26,-945.05 765.07,-939.13"/>
<polygon fill="#4a6fa5" stroke="#4a6fa5" points="765.73,-941.49 771.84,-937.29 764.44,-936.76 765.73,-941.49"/>
</g>
<!-- Node0x5a7ddab33040 -->
<g id="node38" class="node">
<title>Node0x5a7ddab33040</title>
<path fill="#f0f4ff" stroke="black" d="M1827,-1168C1827,-1168 1710,-1168 1710,-1168 1704,-1168 1698,-1162 1698,-1156 1698,-1156 1698,-1144 1698,-1144 1698,-1138 1704,-1132 1710,-1132 1710,-1132 1827,-1132 1827,-1132 1833,-1132 1839,-1138 1839,-1144 1839,-1144 1839,-1156 1839,-1156 1839,-1162 1833,-1168 1827,-1168"/>
<text text-anchor="middle" x="1768.5" y="-1147.8" font-family="Courier,monospace" font-size="9.00">{__clang_call_terminate}</text>
</g>
<!-- Node0x5a7ddab1bda0&#45;&gt;Node0x5a7ddab33040 -->
<g id="edge37" class="edge">
<title>Node0x5a7ddab1bda0&#45;&gt;Node0x5a7ddab33040</title>
<path fill="none" stroke="#4a6fa5" d="M543.2,-1098.97C720.45,-1072.38 1046.05,-1024.94 1164,-1017 1328.96,-1005.9 1376.25,-974.38 1536,-1017 1616.63,-1038.51 1698.34,-1095.54 1739.74,-1127.5"/>
<polygon fill="#4a6fa5" stroke="#4a6fa5" points="1738.28,-1129.47 1745.31,-1131.83 1741.29,-1125.6 1738.28,-1129.47"/>
</g>
<!-- Node0x5a7ddab1a510&#45;&gt;Node0x5a7ddaa9d9e0 -->
<g id="edge38" class="edge">
<title>Node0x5a7ddab1a510&#45;&gt;Node0x5a7ddaa9d9e0</title>
<path fill="none" stroke="#4a6fa5" d="M564.68,-27.66C584.2,-32.92 603.27,-40.42 620,-51 765.33,-142.96 854.18,-343.92 881.75,-414.17"/>
<polygon fill="#4a6fa5" stroke="#4a6fa5" points="879.56,-415.29 884.37,-420.93 884.12,-413.52 879.56,-415.29"/>
</g>
<!-- Node0x5a7ddab20af0&#45;&gt;Node0x5a7ddaa9d6e0 -->
<g id="edge48" class="edge">
<title>Node0x5a7ddab20af0&#45;&gt;Node0x5a7ddaa9d6e0</title>
<path fill="none" stroke="#4a6fa5" d="M1020.03,-1450.77C1040.49,-1456 1060.63,-1463.72 1078,-1475 1135.17,-1512.13 1106.74,-1565.02 1164,-1602 1177.78,-1610.9 1193.28,-1617.53 1209.31,-1622.45"/>
<polygon fill="#4a6fa5" stroke="#4a6fa5" points="1208.8,-1624.86 1216.2,-1624.46 1210.17,-1620.15 1208.8,-1624.86"/>
</g>
<!-- Node0x5a7ddab32b80 -->
<g id="node39" class="node">
<title>Node0x5a7ddab32b80</title>
<path fill="#f0f4ff" stroke="black" d="M1366.5,-1587C1366.5,-1587 1333.5,-1587 1333.5,-1587 1327.5,-1587 1321.5,-1581 1321.5,-1575 1321.5,-1575 1321.5,-1563 1321.5,-1563 1321.5,-1557 1327.5,-1551 1333.5,-1551 1333.5,-1551 1366.5,-1551 1366.5,-1551 1372.5,-1551 1378.5,-1557 1378.5,-1563 1378.5,-1563 1378.5,-1575 1378.5,-1575 1378.5,-1581 1372.5,-1587 1366.5,-1587"/>
<text text-anchor="middle" x="1350" y="-1566.8" font-family="Courier,monospace" font-size="9.00">{strlen}</text>
</g>
<!-- Node0x5a7ddab1e540&#45;&gt;Node0x5a7ddab32b80 -->
<g id="edge39" class="edge">
<title>Node0x5a7ddab1e540&#45;&gt;Node0x5a7ddab32b80</title>
<path fill="none" stroke="#4a6fa5" d="M988.68,-1379.57C1019.15,-1384.03 1051.73,-1392.94 1078,-1410 1135.17,-1447.13 1106.74,-1500.02 1164,-1537 1209.75,-1566.55 1274.6,-1571.16 1314.12,-1570.79"/>
<polygon fill="#4a6fa5" stroke="#4a6fa5" points="1314.24,-1573.24 1321.19,-1570.67 1314.15,-1568.34 1314.24,-1573.24"/>
</g>
<!-- Node0x5a7ddab32620 -->
<g id="node40" class="node">
<title>Node0x5a7ddab32620</title>
<path fill="#f0f4ff" stroke="black" d="M1482,-1327C1482,-1327 1218,-1327 1218,-1327 1212,-1327 1206,-1321 1206,-1315 1206,-1315 1206,-1303 1206,-1303 1206,-1297 1212,-1291 1218,-1291 1218,-1291 1482,-1291 1482,-1291 1488,-1291 1494,-1297 1494,-1303 1494,-1303 1494,-1315 1494,-1315 1494,-1321 1488,-1327 1482,-1327"/>
<text text-anchor="middle" x="1350" y="-1306.8" font-family="Courier,monospace" font-size="9.00">{basic_string&lt;char, std::char_traits &gt;::_M_create()}</text>
</g>
<!-- Node0x5a7ddab320d0&#45;&gt;Node0x5a7ddab32620 -->
<g id="edge40" class="edge">
<title>Node0x5a7ddab320d0&#45;&gt;Node0x5a7ddab32620</title>
<path fill="none" stroke="#4a6fa5" d="M1025.51,-1265.02C1083.25,-1272.87 1150.96,-1282.07 1209.47,-1290.03"/>
<polygon fill="#4a6fa5" stroke="#4a6fa5" points="1209.29,-1292.48 1216.56,-1290.99 1209.95,-1287.62 1209.29,-1292.48"/>
</g>
<!-- Node0x5a7ddab39d50 -->
<g id="node41" class="node">
<title>Node0x5a7ddab39d50</title>
<path fill="#f0f4ff" stroke="black" d="M1476.5,-1262C1476.5,-1262 1223.5,-1262 1223.5,-1262 1217.5,-1262 1211.5,-1256 1211.5,-1250 1211.5,-1250 1211.5,-1238 1211.5,-1238 1211.5,-1232 1217.5,-1226 1223.5,-1226 1223.5,-1226 1476.5,-1226 1476.5,-1226 1482.5,-1226 1488.5,-1232 1488.5,-1238 1488.5,-1238 1488.5,-1250 1488.5,-1250 1488.5,-1256 1482.5,-1262 1476.5,-1262"/>
<text text-anchor="middle" x="1350" y="-1241.8" font-family="Courier,monospace" font-size="9.00">{basic_string&lt;char, std::char_traits &gt;::_M_data()}</text>
</g>
<!-- Node0x5a7ddab320d0&#45;&gt;Node0x5a7ddab39d50 -->
<g id="edge41" class="edge">
<title>Node0x5a7ddab320d0&#45;&gt;Node0x5a7ddab39d50</title>
<path fill="none" stroke="#4a6fa5" d="M1078.14,-1245.78C1120.07,-1245.51 1164,-1245.22 1203.99,-1244.95"/>
<polygon fill="#4a6fa5" stroke="#4a6fa5" points="1204.42,-1247.4 1211.4,-1244.91 1204.39,-1242.5 1204.42,-1247.4"/>
</g>
<!-- Node0x5a7ddab39c10 -->
<g id="node42" class="node">
<title>Node0x5a7ddab39c10</title>
<path fill="#f0f4ff" stroke="black" d="M1487,-1197C1487,-1197 1213,-1197 1213,-1197 1207,-1197 1201,-1191 1201,-1185 1201,-1185 1201,-1173 1201,-1173 1201,-1167 1207,-1161 1213,-1161 1213,-1161 1487,-1161 1487,-1161 1493,-1161 1499,-1167 1499,-1173 1499,-1173 1499,-1185 1499,-1185 1499,-1191 1493,-1197 1487,-1197"/>
<text text-anchor="middle" x="1350" y="-1176.8" font-family="Courier,monospace" font-size="9.00">{basic_string&lt;char, std::char_traits &gt;::_M_capacity()}</text>
</g>
<!-- Node0x5a7ddab320d0&#45;&gt;Node0x5a7ddab39c10 -->
<g id="edge42" class="edge">
<title>Node0x5a7ddab320d0&#45;&gt;Node0x5a7ddab39c10</title>
<path fill="none" stroke="#4a6fa5" d="M1014,-1228.96C1077.9,-1219.43 1156.3,-1207.74 1221.19,-1198.06"/>
<polygon fill="#4a6fa5" stroke="#4a6fa5" points="1221.66,-1200.47 1228.22,-1197.01 1220.94,-1195.62 1221.66,-1200.47"/>
</g>
<!-- Node0x5a7ddab390d0 -->
<g id="node43" class="node">
<title>Node0x5a7ddab390d0</title>
<path fill="#f0f4ff" stroke="black" d="M1524,-1132C1524,-1132 1176,-1132 1176,-1132 1170,-1132 1164,-1126 1164,-1120 1164,-1120 1164,-1108 1164,-1108 1164,-1102 1170,-1096 1176,-1096 1176,-1096 1524,-1096 1524,-1096 1530,-1096 1536,-1102 1536,-1108 1536,-1108 1536,-1120 1536,-1120 1536,-1126 1530,-1132 1524,-1132"/>
<text text-anchor="middle" x="1350" y="-1111.8" font-family="Courier,monospace" font-size="9.00">{basic_string&lt;char, std::char_traits &gt;::_M_construct&lt;char const*&gt;()}</text>
</g>
<!-- Node0x5a7ddab320d0&#45;&gt;Node0x5a7ddab390d0 -->
<g id="edge43" class="edge">
<title>Node0x5a7ddab320d0&#45;&gt;Node0x5a7ddab390d0</title>
<path fill="none" stroke="#4a6fa5" d="M1038.98,-1228.87C1052.44,-1225.09 1065.65,-1220.52 1078,-1215 1122.49,-1195.12 1119.56,-1166.99 1164,-1147 1175.3,-1141.92 1187.31,-1137.62 1199.58,-1133.98"/>
<polygon fill="#4a6fa5" stroke="#4a6fa5" points="1200.37,-1136.3 1206.43,-1132.02 1199.02,-1131.59 1200.37,-1136.3"/>
</g>
<!-- Node0x5a7ddab38e50 -->
<g id="node44" class="node">
<title>Node0x5a7ddab38e50</title>
<path fill="#f0f4ff" stroke="black" d="M1476.5,-1067C1476.5,-1067 1223.5,-1067 1223.5,-1067 1217.5,-1067 1211.5,-1061 1211.5,-1055 1211.5,-1055 1211.5,-1043 1211.5,-1043 1211.5,-1037 1217.5,-1031 1223.5,-1031 1223.5,-1031 1476.5,-1031 1476.5,-1031 1482.5,-1031 1488.5,-1037 1488.5,-1043 1488.5,-1043 1488.5,-1055 1488.5,-1055 1488.5,-1061 1482.5,-1067 1476.5,-1067"/>
<text text-anchor="middle" x="1350" y="-1046.8" font-family="Courier,monospace" font-size="9.00">{basic_string&lt;char, std::char_traits &gt;::_M_data()}</text>
</g>
<!-- Node0x5a7ddab320d0&#45;&gt;Node0x5a7ddab38e50 -->
<g id="edge44" class="edge">
<title>Node0x5a7ddab320d0&#45;&gt;Node0x5a7ddab38e50</title>
<path fill="none" stroke="#4a6fa5" d="M1051.9,-1228.82C1061.06,-1224.96 1069.84,-1220.39 1078,-1215 1136.72,-1176.19 1105.38,-1120.97 1164,-1082 1176.26,-1073.85 1189.94,-1067.55 1204.17,-1062.7"/>
<polygon fill="#4a6fa5" stroke="#4a6fa5" points="1205.28,-1064.91 1211.19,-1060.43 1203.78,-1060.25 1205.28,-1064.91"/>
</g>
<!-- Node0x5a7ddab3a390 -->
<g id="node45" class="node">
<title>Node0x5a7ddab3a390</title>
<path fill="#f0f4ff" stroke="black" d="M1492.5,-1522C1492.5,-1522 1207.5,-1522 1207.5,-1522 1201.5,-1522 1195.5,-1516 1195.5,-1510 1195.5,-1510 1195.5,-1498 1195.5,-1498 1195.5,-1492 1201.5,-1486 1207.5,-1486 1207.5,-1486 1492.5,-1486 1492.5,-1486 1498.5,-1486 1504.5,-1492 1504.5,-1498 1504.5,-1498 1504.5,-1510 1504.5,-1510 1504.5,-1516 1498.5,-1522 1492.5,-1522"/>
<text text-anchor="middle" x="1350" y="-1501.8" font-family="Courier,monospace" font-size="9.00">{basic_string&lt;char, std::char_traits &gt;::_S_copy_chars()}</text>
</g>
<!-- Node0x5a7ddab320d0&#45;&gt;Node0x5a7ddab3a390 -->
<g id="edge45" class="edge">
<title>Node0x5a7ddab320d0&#45;&gt;Node0x5a7ddab3a390</title>
<path fill="none" stroke="#4a6fa5" d="M1053.83,-1265.09C1062.4,-1269.25 1070.54,-1274.18 1078,-1280 1151.69,-1337.56 1090.16,-1414.64 1164,-1472 1171.66,-1477.95 1180.05,-1482.96 1188.88,-1487.15"/>
<polygon fill="#4a6fa5" stroke="#4a6fa5" points="1188,-1489.43 1195.39,-1490.06 1190,-1484.96 1188,-1489.43"/>
</g>
<!-- Node0x5a7ddab411e0 -->
<g id="node46" class="node">
<title>Node0x5a7ddab411e0</title>
<path fill="#f0f4ff" stroke="black" d="M1492.5,-1457C1492.5,-1457 1207.5,-1457 1207.5,-1457 1201.5,-1457 1195.5,-1451 1195.5,-1445 1195.5,-1445 1195.5,-1433 1195.5,-1433 1195.5,-1427 1201.5,-1421 1207.5,-1421 1207.5,-1421 1492.5,-1421 1492.5,-1421 1498.5,-1421 1504.5,-1427 1504.5,-1433 1504.5,-1433 1504.5,-1445 1504.5,-1445 1504.5,-1451 1498.5,-1457 1492.5,-1457"/>
<text text-anchor="middle" x="1350" y="-1436.8" font-family="Courier,monospace" font-size="9.00">{basic_string&lt;char, std::char_traits &gt;::_M_set_length()}</text>
</g>
<!-- Node0x5a7ddab320d0&#45;&gt;Node0x5a7ddab411e0 -->
<g id="edge46" class="edge">
<title>Node0x5a7ddab320d0&#45;&gt;Node0x5a7ddab411e0</title>
<path fill="none" stroke="#4a6fa5" d="M1049.02,-1265.15C1059.2,-1269.23 1068.97,-1274.14 1078,-1280 1135.17,-1317.13 1106.74,-1370.02 1164,-1407 1171.75,-1412 1180.04,-1416.29 1188.66,-1419.96"/>
<polygon fill="#4a6fa5" stroke="#4a6fa5" points="1187.91,-1422.3 1195.32,-1422.65 1189.75,-1417.75 1187.91,-1422.3"/>
</g>
<!-- Node0x5a7ddab40a30 -->
<g id="node47" class="node">
<title>Node0x5a7ddab40a30</title>
<path fill="#f0f4ff" stroke="black" d="M1524,-1392C1524,-1392 1176,-1392 1176,-1392 1170,-1392 1164,-1386 1164,-1380 1164,-1380 1164,-1368 1164,-1368 1164,-1362 1170,-1356 1176,-1356 1176,-1356 1524,-1356 1524,-1356 1530,-1356 1536,-1362 1536,-1368 1536,-1368 1536,-1380 1536,-1380 1536,-1386 1530,-1392 1524,-1392"/>
<text text-anchor="middle" x="1350" y="-1371.8" font-family="Courier,monospace" font-size="9.00">{basic_string&lt;char, std::char_traits &gt;::_M_construct&lt;char const*&gt;()}</text>
</g>
<!-- Node0x5a7ddab320d0&#45;&gt;Node0x5a7ddab40a30 -->
<g id="edge47" class="edge">
<title>Node0x5a7ddab320d0&#45;&gt;Node0x5a7ddab40a30</title>
<path fill="none" stroke="#4a6fa5" d="M1033.35,-1265.12C1048.71,-1269.12 1063.88,-1274.02 1078,-1280 1121.39,-1298.37 1120.56,-1323.74 1164,-1342 1175.05,-1346.65 1186.75,-1350.62 1198.67,-1354.01"/>
<polygon fill="#4a6fa5" stroke="#4a6fa5" points="1198.32,-1356.46 1205.72,-1355.95 1199.62,-1351.73 1198.32,-1356.46"/>
</g>
<!-- Node0x5a7ddab30eb0 -->
<g id="node35" class="node">
<title>Node0x5a7ddab30eb0</title>
<path fill="#f0f4ff" stroke="black" d="M123.5,-7673C123.5,-7673 17.5,-7673 17.5,-7673 11.5,-7673 5.5,-7667 5.5,-7661 5.5,-7661 5.5,-7649 5.5,-7649 5.5,-7643 11.5,-7637 17.5,-7637 17.5,-7637 123.5,-7637 123.5,-7637 129.5,-7637 135.5,-7643 135.5,-7649 135.5,-7649 135.5,-7661 135.5,-7661 135.5,-7667 129.5,-7673 123.5,-7673"/>
<text text-anchor="middle" x="70.5" y="-7652.8" font-family="Courier,monospace" font-size="9.00">{__gxx_personality_v0}</text>
</g>
<!-- Node0x5a7ddab42e60 -->
<g id="node51" class="node">
<title>Node0x5a7ddab42e60</title>
<path fill="#f0f4ff" stroke="black" d="M1482,-943C1482,-943 1218,-943 1218,-943 1212,-943 1206,-937 1206,-931 1206,-931 1206,-919 1206,-919 1206,-913 1212,-907 1218,-907 1218,-907 1482,-907 1482,-907 1488,-907 1494,-913 1494,-919 1494,-919 1494,-931 1494,-931 1494,-937 1488,-943 1482,-943"/>
<text text-anchor="middle" x="1350" y="-922.8" font-family="Courier,monospace" font-size="9.00">{__gnu_cxx::__aligned_membuf&lt;IccTagEntry&gt;::_M_ptr()}</text>
</g>
<!-- Node0x5a7ddab33940&#45;&gt;Node0x5a7ddab42e60 -->
<g id="edge53" class="edge">
<title>Node0x5a7ddab33940&#45;&gt;Node0x5a7ddab42e60</title>
<path fill="none" stroke="#4a6fa5" d="M1012.21,-925C1069.14,-925 1137.89,-925 1198.39,-925"/>
<polygon fill="#4a6fa5" stroke="#4a6fa5" points="1198.72,-927.45 1205.72,-925 1198.72,-922.55 1198.72,-927.45"/>
</g>
<!-- Node0x5a7ddab3a4d0 -->
<g id="node49" class="node">
<title>Node0x5a7ddab3a4d0</title>
<path fill="#f0f4ff" stroke="black" d="M2103,-1200C2103,-1200 2013,-1200 2013,-1200 2007,-1200 2001,-1194 2001,-1188 2001,-1188 2001,-1176 2001,-1176 2001,-1170 2007,-1164 2013,-1164 2013,-1164 2103,-1164 2103,-1164 2109,-1164 2115,-1170 2115,-1176 2115,-1176 2115,-1188 2115,-1188 2115,-1194 2109,-1200 2103,-1200"/>
<text text-anchor="middle" x="2058" y="-1179.8" font-family="Courier,monospace" font-size="9.00">{__cxa_begin_catch}</text>
</g>
<!-- Node0x5a7ddab33040&#45;&gt;Node0x5a7ddab3a4d0 -->
<g id="edge51" class="edge">
<title>Node0x5a7ddab33040&#45;&gt;Node0x5a7ddab3a4d0</title>
<path fill="none" stroke="#4a6fa5" d="M1839.1,-1157.75C1886.1,-1162.98 1947.68,-1169.83 1993.38,-1174.92"/>
<polygon fill="#4a6fa5" stroke="#4a6fa5" points="1993.35,-1177.38 2000.57,-1175.72 1993.89,-1172.51 1993.35,-1177.38"/>
</g>
<!-- Node0x5a7ddab42ee0 -->
<g id="node50" class="node">
<title>Node0x5a7ddab42ee0</title>
<path fill="#f0f4ff" stroke="black" d="M2100.5,-1135C2100.5,-1135 2015.5,-1135 2015.5,-1135 2009.5,-1135 2003.5,-1129 2003.5,-1123 2003.5,-1123 2003.5,-1111 2003.5,-1111 2003.5,-1105 2009.5,-1099 2015.5,-1099 2015.5,-1099 2100.5,-1099 2100.5,-1099 2106.5,-1099 2112.5,-1105 2112.5,-1111 2112.5,-1111 2112.5,-1123 2112.5,-1123 2112.5,-1129 2106.5,-1135 2100.5,-1135"/>
<text text-anchor="middle" x="2058" y="-1114.8" font-family="Courier,monospace" font-size="9.00">{std::terminate()}</text>
</g>
<!-- Node0x5a7ddab33040&#45;&gt;Node0x5a7ddab42ee0 -->
<g id="edge52" class="edge">
<title>Node0x5a7ddab33040&#45;&gt;Node0x5a7ddab42ee0</title>
<path fill="none" stroke="#4a6fa5" d="M1839.1,-1142.01C1887.05,-1136.51 1950.17,-1129.26 1996.12,-1123.99"/>
<polygon fill="#4a6fa5" stroke="#4a6fa5" points="1996.67,-1126.39 2003.34,-1123.16 1996.11,-1121.52 1996.67,-1126.39"/>
</g>
<!-- Node0x5a7ddab40a30&#45;&gt;Node0x5a7ddab33040 -->
<g id="edge50" class="edge">
<title>Node0x5a7ddab40a30&#45;&gt;Node0x5a7ddab33040</title>
<path fill="none" stroke="#4a6fa5" d="M1498.09,-1355.9C1511.19,-1352.1 1524.01,-1347.53 1536,-1342 1626.09,-1300.48 1709.95,-1214.85 1747.22,-1173.44"/>
<polygon fill="#4a6fa5" stroke="#4a6fa5" points="1749.12,-1175 1751.96,-1168.14 1745.47,-1171.73 1749.12,-1175"/>
</g>
<!-- Node0x5a7ddab38b50 -->
<g id="node48" class="node">
<title>Node0x5a7ddab38b50</title>
<path fill="#f0f4ff" stroke="black" d="M1903,-1392C1903,-1392 1634,-1392 1634,-1392 1628,-1392 1622,-1386 1622,-1380 1622,-1380 1622,-1368 1622,-1368 1622,-1362 1628,-1356 1634,-1356 1634,-1356 1903,-1356 1903,-1356 1909,-1356 1915,-1362 1915,-1368 1915,-1368 1915,-1380 1915,-1380 1915,-1386 1909,-1392 1903,-1392"/>
<text text-anchor="middle" x="1768.5" y="-1371.8" font-family="Courier,monospace" font-size="9.00">{basic_string&lt;char, std::char_traits &gt;::_M_dispose()}</text>
</g>
<!-- Node0x5a7ddab40a30&#45;&gt;Node0x5a7ddab38b50 -->
<g id="edge49" class="edge">
<title>Node0x5a7ddab40a30&#45;&gt;Node0x5a7ddab38b50</title>
<path fill="none" stroke="#4a6fa5" d="M1536.11,-1374C1562.32,-1374 1589.03,-1374 1614.55,-1374"/>
<polygon fill="#4a6fa5" stroke="#4a6fa5" points="1614.71,-1376.45 1621.71,-1374 1614.71,-1371.55 1614.71,-1376.45"/>
</g>
<!-- Node0x5a7ddab1f1c0 -->
<g id="node52" class="node">
<title>Node0x5a7ddab1f1c0</title>
<path fill="#f0f4ff" stroke="black" d="M1903,-943C1903,-943 1634,-943 1634,-943 1628,-943 1622,-937 1622,-931 1622,-931 1622,-919 1622,-919 1622,-913 1628,-907 1634,-907 1634,-907 1903,-907 1903,-907 1909,-907 1915,-913 1915,-919 1915,-919 1915,-931 1915,-931 1915,-937 1909,-943 1903,-943"/>
<text text-anchor="middle" x="1768.5" y="-922.8" font-family="Courier,monospace" font-size="9.00">{__gnu_cxx::__aligned_membuf&lt;IccTagEntry&gt;::_M_addr()}</text>
</g>
<!-- Node0x5a7ddab42e60&#45;&gt;Node0x5a7ddab1f1c0 -->
<g id="edge54" class="edge">
<title>Node0x5a7ddab42e60&#45;&gt;Node0x5a7ddab1f1c0</title>
<path fill="none" stroke="#4a6fa5" d="M1494.04,-925C1532.94,-925 1575.2,-925 1614.62,-925"/>
<polygon fill="#4a6fa5" stroke="#4a6fa5" points="1614.94,-927.45 1621.94,-925 1614.94,-922.55 1614.94,-927.45"/>
</g>
</g>
</svg>
