<?xml version="1.0" encoding="UTF-8" standalone="no"?>
<!DOCTYPE svg PUBLIC "-//W3C//DTD SVG 1.1//EN"
 "http://www.w3.org/Graphics/SVG/1.1/DTD/svg11.dtd">
<!-- Generated by graphviz version 2.43.0 (0)
 -->
<!-- Title: Call graph: /home/h02332/po/research/call&#45;graph/cfl/icc_io_fuzzer.ll Pages: 1 -->
<svg width="3962pt" height="14400pt"
 viewBox="0.00 0.00 3961.70 14400.00" xmlns="http://www.w3.org/2000/svg" xmlns:xlink="http://www.w3.org/1999/xlink">
<g id="graph0" class="graph" transform="scale(1.88 1.88) rotate(0) translate(36 7608)">
<title>Call graph: /home/h02332/po/research/call&#45;graph/cfl/icc_io_fuzzer.ll</title>
<polygon fill="white" stroke="transparent" points="-36,36 -36,-7608 2067,-7608 2067,36 -36,36"/>
<!-- Node0x60c088932370 -->
<g id="node1" class="node">
<title>Node0x60c088932370</title>
<path fill="#f0f4ff" stroke="black" d="M129,-680C129,-680 12,-680 12,-680 6,-680 0,-674 0,-668 0,-668 0,-656 0,-656 0,-650 6,-644 12,-644 12,-644 129,-644 129,-644 135,-644 141,-650 141,-656 141,-656 141,-668 141,-668 141,-674 135,-680 129,-680"/>
<text text-anchor="middle" x="70.5" y="-659.8" font-family="Courier,monospace" font-size="9.00">{LLVMFuzzerTestOneInput}</text>
</g>
<!-- Node0x60c088932400 -->
<g id="node2" class="node">
<title>Node0x60c088932400</title>
<path fill="#f0f4ff" stroke="black" d="M416,-1330C416,-1330 347,-1330 347,-1330 341,-1330 335,-1324 335,-1318 335,-1318 335,-1306 335,-1306 335,-1300 341,-1294 347,-1294 347,-1294 416,-1294 416,-1294 422,-1294 428,-1300 428,-1306 428,-1306 428,-1318 428,-1318 428,-1324 422,-1330 416,-1330"/>
<text text-anchor="middle" x="381.5" y="-1309.8" font-family="Courier,monospace" font-size="9.00">{fuzz_tmpdir()}</text>
</g>
<!-- Node0x60c088932370&#45;&gt;Node0x60c088932400 -->
<g id="edge1" class="edge">
<title>Node0x60c088932370&#45;&gt;Node0x60c088932400</title>
<path fill="none" stroke="#4a6fa5" d="M73.48,-680.03C83.98,-772.54 136.21,-1192.85 227,-1280 253.38,-1305.32 294.35,-1312.88 327.32,-1314.35"/>
<polygon fill="#4a6fa5" stroke="#4a6fa5" points="327.58,-1316.81 334.66,-1314.58 327.74,-1311.91 327.58,-1316.81"/>
</g>
<!-- Node0x60c088926c50 -->
<g id="node3" class="node">
<title>Node0x60c088926c50</title>
<path fill="#f0f4ff" stroke="black" d="M426.5,-1265C426.5,-1265 336.5,-1265 336.5,-1265 330.5,-1265 324.5,-1259 324.5,-1253 324.5,-1253 324.5,-1241 324.5,-1241 324.5,-1235 330.5,-1229 336.5,-1229 336.5,-1229 426.5,-1229 426.5,-1229 432.5,-1229 438.5,-1235 438.5,-1241 438.5,-1241 438.5,-1253 438.5,-1253 438.5,-1259 432.5,-1265 426.5,-1265"/>
<text text-anchor="middle" x="381.5" y="-1244.8" font-family="Courier,monospace" font-size="9.00">{fuzz_build_path()}</text>
</g>
<!-- Node0x60c088932370&#45;&gt;Node0x60c088926c50 -->
<g id="edge2" class="edge">
<title>Node0x60c088932370&#45;&gt;Node0x60c088926c50</title>
<path fill="none" stroke="#4a6fa5" d="M74.05,-680.12C86.63,-766.81 144.72,-1138.18 227,-1215 250.95,-1237.36 286.3,-1245.77 317.05,-1248.4"/>
<polygon fill="#4a6fa5" stroke="#4a6fa5" points="317.19,-1250.87 324.35,-1248.93 317.54,-1245.98 317.19,-1250.87"/>
</g>
<!-- Node0x60c088926e10 -->
<g id="node4" class="node">
<title>Node0x60c088926e10</title>
<path fill="#f0f4ff" stroke="black" d="M400.5,-1200C400.5,-1200 362.5,-1200 362.5,-1200 356.5,-1200 350.5,-1194 350.5,-1188 350.5,-1188 350.5,-1176 350.5,-1176 350.5,-1170 356.5,-1164 362.5,-1164 362.5,-1164 400.5,-1164 400.5,-1164 406.5,-1164 412.5,-1170 412.5,-1176 412.5,-1176 412.5,-1188 412.5,-1188 412.5,-1194 406.5,-1200 400.5,-1200"/>
<text text-anchor="middle" x="381.5" y="-1179.8" font-family="Courier,monospace" font-size="9.00">{mkstemp}</text>
</g>
<!-- Node0x60c088932370&#45;&gt;Node0x60c088926e10 -->
<g id="edge3" class="edge">
<title>Node0x60c088932370&#45;&gt;Node0x60c088926e10</title>
<path fill="none" stroke="#4a6fa5" d="M71.24,-680.46C71.3,-752.75 81.74,-1018.97 227,-1150 258.61,-1178.51 308.88,-1184.13 343.22,-1184.19"/>
<polygon fill="#4a6fa5" stroke="#4a6fa5" points="343.31,-1186.64 350.29,-1184.12 343.27,-1181.74 343.31,-1186.64"/>
</g>
<!-- Node0x60c0888e6020 -->
<g id="node5" class="node">
<title>Node0x60c0888e6020</title>
<path fill="#f0f4ff" stroke="black" d="M396.5,-1135C396.5,-1135 366.5,-1135 366.5,-1135 360.5,-1135 354.5,-1129 354.5,-1123 354.5,-1123 354.5,-1111 354.5,-1111 354.5,-1105 360.5,-1099 366.5,-1099 366.5,-1099 396.5,-1099 396.5,-1099 402.5,-1099 408.5,-1105 408.5,-1111 408.5,-1111 408.5,-1123 408.5,-1123 408.5,-1129 402.5,-1135 396.5,-1135"/>
<text text-anchor="middle" x="381.5" y="-1114.8" font-family="Courier,monospace" font-size="9.00">{write}</text>
</g>
<!-- Node0x60c088932370&#45;&gt;Node0x60c0888e6020 -->
<g id="edge4" class="edge">
<title>Node0x60c088932370&#45;&gt;Node0x60c0888e6020</title>
<path fill="none" stroke="#4a6fa5" d="M72.25,-680.28C76,-746.22 98.17,-973.81 227,-1085 260.34,-1113.77 312.83,-1118.96 346.97,-1118.88"/>
<polygon fill="#4a6fa5" stroke="#4a6fa5" points="347.41,-1121.32 354.38,-1118.78 347.35,-1116.42 347.41,-1121.32"/>
</g>
<!-- Node0x60c0888e5de0 -->
<g id="node6" class="node">
<title>Node0x60c0888e5de0</title>
<path fill="#f0f4ff" stroke="black" d="M396.5,-1070C396.5,-1070 366.5,-1070 366.5,-1070 360.5,-1070 354.5,-1064 354.5,-1058 354.5,-1058 354.5,-1046 354.5,-1046 354.5,-1040 360.5,-1034 366.5,-1034 366.5,-1034 396.5,-1034 396.5,-1034 402.5,-1034 408.5,-1040 408.5,-1046 408.5,-1046 408.5,-1058 408.5,-1058 408.5,-1064 402.5,-1070 396.5,-1070"/>
<text text-anchor="middle" x="381.5" y="-1049.8" font-family="Courier,monospace" font-size="9.00">{close}</text>
</g>
<!-- Node0x60c088932370&#45;&gt;Node0x60c0888e5de0 -->
<g id="edge5" class="edge">
<title>Node0x60c088932370&#45;&gt;Node0x60c0888e5de0</title>
<path fill="none" stroke="#4a6fa5" d="M73.6,-680.35C81.44,-739.79 114.54,-928.45 227,-1020 261.05,-1047.72 313.13,-1053.21 347,-1053.48"/>
<polygon fill="#4a6fa5" stroke="#4a6fa5" points="347.37,-1055.93 354.36,-1053.46 347.35,-1051.03 347.37,-1055.93"/>
</g>
<!-- Node0x60c0888e5e60 -->
<g id="node7" class="node">
<title>Node0x60c0888e5e60</title>
<path fill="#f0f4ff" stroke="black" d="M445,-1005C445,-1005 318,-1005 318,-1005 312,-1005 306,-999 306,-993 306,-993 306,-981 306,-981 306,-975 312,-969 318,-969 318,-969 445,-969 445,-969 451,-969 457,-975 457,-981 457,-981 457,-993 457,-993 457,-999 451,-1005 445,-1005"/>
<text text-anchor="middle" x="381.5" y="-984.8" font-family="Courier,monospace" font-size="9.00">{CIccFileIO::CIccFileIO()}</text>
</g>
<!-- Node0x60c088932370&#45;&gt;Node0x60c0888e5e60 -->
<g id="edge6" class="edge">
<title>Node0x60c088932370&#45;&gt;Node0x60c0888e5e60</title>
<path fill="none" stroke="#4a6fa5" d="M75.48,-680.32C87.82,-732.45 130.53,-882.54 227,-955 247.59,-970.47 273.93,-978.87 298.95,-983.32"/>
<polygon fill="#4a6fa5" stroke="#4a6fa5" points="298.66,-985.76 305.97,-984.48 299.46,-980.92 298.66,-985.76"/>
</g>
<!-- Node0x60c088937730 -->
<g id="node8" class="node">
<title>Node0x60c088937730</title>
<path fill="#f0f4ff" stroke="black" d="M429.5,-940C429.5,-940 333.5,-940 333.5,-940 327.5,-940 321.5,-934 321.5,-928 321.5,-928 321.5,-916 321.5,-916 321.5,-910 327.5,-904 333.5,-904 333.5,-904 429.5,-904 429.5,-904 435.5,-904 441.5,-910 441.5,-916 441.5,-916 441.5,-928 441.5,-928 441.5,-934 435.5,-940 429.5,-940"/>
<text text-anchor="middle" x="381.5" y="-919.8" font-family="Courier,monospace" font-size="9.00">{CIccFileIO::Open()}</text>
</g>
<!-- Node0x60c088932370&#45;&gt;Node0x60c088937730 -->
<g id="edge7" class="edge">
<title>Node0x60c088932370&#45;&gt;Node0x60c088937730</title>
<path fill="none" stroke="#4a6fa5" d="M78.21,-680C95.48,-723.71 145.92,-835.84 227,-890 252.56,-907.08 285.44,-915.31 314.21,-919.19"/>
<polygon fill="#4a6fa5" stroke="#4a6fa5" points="314.18,-921.65 321.43,-920.08 314.78,-916.79 314.18,-921.65"/>
</g>
<!-- Node0x60c088945370 -->
<g id="node9" class="node">
<title>Node0x60c088945370</title>
<path fill="#f0f4ff" stroke="black" d="M442.5,-875C442.5,-875 320.5,-875 320.5,-875 314.5,-875 308.5,-869 308.5,-863 308.5,-863 308.5,-851 308.5,-851 308.5,-845 314.5,-839 320.5,-839 320.5,-839 442.5,-839 442.5,-839 448.5,-839 454.5,-845 454.5,-851 454.5,-851 454.5,-863 454.5,-863 454.5,-869 448.5,-875 442.5,-875"/>
<text text-anchor="middle" x="381.5" y="-854.8" font-family="Courier,monospace" font-size="9.00">{CIccFileIO::GetLength()}</text>
</g>
<!-- Node0x60c088932370&#45;&gt;Node0x60c088945370 -->
<g id="edge8" class="edge">
<title>Node0x60c088932370&#45;&gt;Node0x60c088945370</title>
<path fill="none" stroke="#4a6fa5" d="M83.13,-680.09C106.14,-714.31 161.02,-788.33 227,-825 249.51,-837.51 276.35,-845.14 301.24,-849.8"/>
<polygon fill="#4a6fa5" stroke="#4a6fa5" points="300.88,-852.22 308.2,-851.03 301.74,-847.4 300.88,-852.22"/>
</g>
<!-- Node0x60c088939130 -->
<g id="node10" class="node">
<title>Node0x60c088939130</title>
<path fill="#f0f4ff" stroke="black" d="M398,-810C398,-810 365,-810 365,-810 359,-810 353,-804 353,-798 353,-798 353,-786 353,-786 353,-780 359,-774 365,-774 365,-774 398,-774 398,-774 404,-774 410,-780 410,-786 410,-786 410,-798 410,-798 410,-804 404,-810 398,-810"/>
<text text-anchor="middle" x="381.5" y="-789.8" font-family="Courier,monospace" font-size="9.00">{malloc}</text>
</g>
<!-- Node0x60c088932370&#45;&gt;Node0x60c088939130 -->
<g id="edge9" class="edge">
<title>Node0x60c088932370&#45;&gt;Node0x60c088939130</title>
<path fill="none" stroke="#4a6fa5" d="M94.3,-680.09C123.41,-702.27 176.11,-739.44 227,-760 265.91,-775.72 313.61,-784.11 345.41,-788.3"/>
<polygon fill="#4a6fa5" stroke="#4a6fa5" points="345.49,-790.78 352.74,-789.23 346.11,-785.92 345.49,-790.78"/>
</g>
<!-- Node0x60c0888e6490 -->
<g id="node11" class="node">
<title>Node0x60c0888e6490</title>
<path fill="#f0f4ff" stroke="black" d="M432,-745C432,-745 331,-745 331,-745 325,-745 319,-739 319,-733 319,-733 319,-721 319,-721 319,-715 325,-709 331,-709 331,-709 432,-709 432,-709 438,-709 444,-715 444,-721 444,-721 444,-733 444,-733 444,-739 438,-745 432,-745"/>
<text text-anchor="middle" x="381.5" y="-724.8" font-family="Courier,monospace" font-size="9.00">{CIccFileIO::Read8()}</text>
</g>
<!-- Node0x60c088932370&#45;&gt;Node0x60c0888e6490 -->
<g id="edge10" class="edge">
<title>Node0x60c088932370&#45;&gt;Node0x60c0888e6490</title>
<path fill="none" stroke="#4a6fa5" d="M141.16,-676.84C167.98,-682.54 198.91,-689.09 227,-695 254.76,-700.84 285.34,-707.22 311.86,-712.75"/>
<polygon fill="#4a6fa5" stroke="#4a6fa5" points="311.52,-715.18 318.87,-714.2 312.52,-710.38 311.52,-715.18"/>
</g>
<!-- Node0x60c0888e6250 -->
<g id="node12" class="node">
<title>Node0x60c0888e6250</title>
<path fill="#f0f4ff" stroke="black" d="M424,-680C424,-680 339,-680 339,-680 333,-680 327,-674 327,-668 327,-668 327,-656 327,-656 327,-650 333,-644 339,-644 339,-644 424,-644 424,-644 430,-644 436,-650 436,-656 436,-656 436,-668 436,-668 436,-674 430,-680 424,-680"/>
<text text-anchor="middle" x="381.5" y="-659.8" font-family="Courier,monospace" font-size="9.00">{OpenIccProfile()}</text>
</g>
<!-- Node0x60c088932370&#45;&gt;Node0x60c0888e6250 -->
<g id="edge11" class="edge">
<title>Node0x60c088932370&#45;&gt;Node0x60c0888e6250</title>
<path fill="none" stroke="#4a6fa5" d="M141.23,-662C194.95,-662 268.48,-662 319.79,-662"/>
<polygon fill="#4a6fa5" stroke="#4a6fa5" points="319.88,-664.45 326.88,-662 319.88,-659.55 319.88,-664.45"/>
</g>
<!-- Node0x60c08894b860 -->
<g id="node13" class="node">
<title>Node0x60c08894b860</title>
<path fill="#f0f4ff" stroke="black" d="M521,-615C521,-615 242,-615 242,-615 236,-615 230,-609 230,-603 230,-603 230,-591 230,-591 230,-585 236,-579 242,-579 242,-579 521,-579 521,-579 527,-579 533,-585 533,-591 533,-591 533,-603 533,-603 533,-609 527,-615 521,-615"/>
<text text-anchor="middle" x="381.5" y="-594.8" font-family="Courier,monospace" font-size="9.00">{basic_string&lt;char, std::char_traits &gt;::basic_string()}</text>
</g>
<!-- Node0x60c088932370&#45;&gt;Node0x60c08894b860 -->
<g id="edge12" class="edge">
<title>Node0x60c088932370&#45;&gt;Node0x60c08894b860</title>
<path fill="none" stroke="#4a6fa5" d="M141.23,-647.33C184.58,-638.21 240.82,-626.38 287.88,-616.48"/>
<polygon fill="#4a6fa5" stroke="#4a6fa5" points="288.41,-618.87 294.76,-615.04 287.4,-614.08 288.41,-618.87"/>
</g>
<!-- Node0x60c08894a6e0 -->
<g id="node14" class="node">
<title>Node0x60c08894a6e0</title>
<path fill="#f0f4ff" stroke="black" d="M503,-550C503,-550 260,-550 260,-550 254,-550 248,-544 248,-538 248,-538 248,-526 248,-526 248,-520 254,-514 260,-514 260,-514 503,-514 503,-514 509,-514 515,-520 515,-526 515,-526 515,-538 515,-538 515,-544 509,-550 503,-550"/>
<text text-anchor="middle" x="381.5" y="-529.8" font-family="Courier,monospace" font-size="9.00">{char_traits &gt;::basic_string&lt;std::allocator &gt;()}</text>
</g>
<!-- Node0x60c088932370&#45;&gt;Node0x60c08894a6e0 -->
<g id="edge13" class="edge">
<title>Node0x60c088932370&#45;&gt;Node0x60c08894a6e0</title>
<path fill="none" stroke="#4a6fa5" d="M94.61,-643.97C123.82,-622.05 176.42,-585.48 227,-565 239.48,-559.95 252.86,-555.62 266.32,-551.92"/>
<polygon fill="#4a6fa5" stroke="#4a6fa5" points="267.23,-554.21 273.37,-550.04 265.97,-549.47 267.23,-554.21"/>
</g>
<!-- Node0x60c088949640 -->
<g id="node15" class="node">
<title>Node0x60c088949640</title>
<path fill="#f0f4ff" stroke="black" d="M442.5,-485C442.5,-485 320.5,-485 320.5,-485 314.5,-485 308.5,-479 308.5,-473 308.5,-473 308.5,-461 308.5,-461 308.5,-455 314.5,-449 320.5,-449 320.5,-449 442.5,-449 442.5,-449 448.5,-449 454.5,-455 454.5,-461 454.5,-461 454.5,-473 454.5,-473 454.5,-479 448.5,-485 442.5,-485"/>
<text text-anchor="middle" x="381.5" y="-464.8" font-family="Courier,monospace" font-size="9.00">{CIccProfile::Validate()}</text>
</g>
<!-- Node0x60c088932370&#45;&gt;Node0x60c088949640 -->
<g id="edge14" class="edge">
<title>Node0x60c088932370&#45;&gt;Node0x60c088949640</title>
<path fill="none" stroke="#4a6fa5" d="M83.36,-643.79C106.56,-609.74 161.46,-536.56 227,-500 249.52,-487.44 276.36,-479.65 301.25,-474.83"/>
<polygon fill="#4a6fa5" stroke="#4a6fa5" points="301.77,-477.23 308.21,-473.55 300.89,-472.41 301.77,-477.23"/>
</g>
<!-- Node0x60c0889456b0 -->
<g id="node16" class="node">
<title>Node0x60c0889456b0</title>
<path fill="#f0f4ff" stroke="black" d="M524,-420C524,-420 239,-420 239,-420 233,-420 227,-414 227,-408 227,-408 227,-396 227,-396 227,-390 233,-384 239,-384 239,-384 524,-384 524,-384 530,-384 536,-390 536,-396 536,-396 536,-408 536,-408 536,-414 530,-420 524,-420"/>
<text text-anchor="middle" x="381.5" y="-399.8" font-family="Courier,monospace" font-size="9.00">{basic_string&lt;char, std::char_traits &gt;::~basic_string()}</text>
</g>
<!-- Node0x60c088932370&#45;&gt;Node0x60c0889456b0 -->
<g id="edge15" class="edge">
<title>Node0x60c088932370&#45;&gt;Node0x60c0889456b0</title>
<path fill="none" stroke="#4a6fa5" d="M78.38,-643.79C95.88,-600.11 146.47,-489.03 227,-435 233.99,-430.31 241.52,-426.28 249.36,-422.8"/>
<polygon fill="#4a6fa5" stroke="#4a6fa5" points="250.51,-424.98 256.02,-420.01 248.62,-420.46 250.51,-424.98"/>
</g>
<!-- Node0x60c08894e0e0 -->
<g id="node17" class="node">
<title>Node0x60c08894e0e0</title>
<path fill="#f0f4ff" stroke="black" d="M1387.5,-357C1387.5,-357 1144.5,-357 1144.5,-357 1138.5,-357 1132.5,-351 1132.5,-345 1132.5,-345 1132.5,-333 1132.5,-333 1132.5,-327 1138.5,-321 1144.5,-321 1144.5,-321 1387.5,-321 1387.5,-321 1393.5,-321 1399.5,-327 1399.5,-333 1399.5,-333 1399.5,-345 1399.5,-345 1399.5,-351 1393.5,-357 1387.5,-357"/>
<text text-anchor="middle" x="1266" y="-336.8" font-family="Courier,monospace" font-size="9.00">{std::__new_allocator&lt;char&gt;::~__new_allocator()}</text>
</g>
<!-- Node0x60c088932370&#45;&gt;Node0x60c08894e0e0 -->
<g id="edge16" class="edge">
<title>Node0x60c088932370&#45;&gt;Node0x60c08894e0e0</title>
<path fill="none" stroke="#4a6fa5" d="M74.76,-643.65C85.35,-590.1 124.29,-433.78 227,-370 301.28,-323.88 859.06,-329.86 1124.89,-335.46"/>
<polygon fill="#4a6fa5" stroke="#4a6fa5" points="1125.23,-337.92 1132.28,-335.61 1125.34,-333.02 1125.23,-337.92"/>
</g>
<!-- Node0x60c08893a810 -->
<g id="node18" class="node">
<title>Node0x60c08893a810</title>
<path fill="#f0f4ff" stroke="black" d="M447.5,-296C447.5,-296 315.5,-296 315.5,-296 309.5,-296 303.5,-290 303.5,-284 303.5,-284 303.5,-272 303.5,-272 303.5,-266 309.5,-260 315.5,-260 315.5,-260 447.5,-260 447.5,-260 453.5,-260 459.5,-266 459.5,-272 459.5,-272 459.5,-284 459.5,-284 459.5,-290 453.5,-296 447.5,-296"/>
<text text-anchor="middle" x="381.5" y="-275.8" font-family="Courier,monospace" font-size="9.00">{CIccFileIO::~CIccFileIO()}</text>
</g>
<!-- Node0x60c088932370&#45;&gt;Node0x60c08893a810 -->
<g id="edge17" class="edge">
<title>Node0x60c088932370&#45;&gt;Node0x60c08893a810</title>
<path fill="none" stroke="#4a6fa5" d="M74.15,-643.76C83.5,-586.38 120.28,-408 227,-318 246.44,-301.61 271.82,-291.84 296.33,-286.05"/>
<polygon fill="#4a6fa5" stroke="#4a6fa5" points="296.91,-288.43 303.21,-284.51 295.85,-283.64 296.91,-288.43"/>
</g>
<!-- Node0x60c08894d560 -->
<g id="node19" class="node">
<title>Node0x60c08894d560</title>
<path fill="#f0f4ff" stroke="black" d="M396.5,-231C396.5,-231 366.5,-231 366.5,-231 360.5,-231 354.5,-225 354.5,-219 354.5,-219 354.5,-207 354.5,-207 354.5,-201 360.5,-195 366.5,-195 366.5,-195 396.5,-195 396.5,-195 402.5,-195 408.5,-201 408.5,-207 408.5,-207 408.5,-219 408.5,-219 408.5,-225 402.5,-231 396.5,-231"/>
<text text-anchor="middle" x="381.5" y="-210.8" font-family="Courier,monospace" font-size="9.00">{free}</text>
</g>
<!-- Node0x60c088932370&#45;&gt;Node0x60c08894d560 -->
<g id="edge18" class="edge">
<title>Node0x60c088932370&#45;&gt;Node0x60c08894d560</title>
<path fill="none" stroke="#4a6fa5" d="M72.41,-643.59C76.69,-578.23 100.38,-355.37 227,-246 260.37,-217.18 312.86,-211.6 346.98,-211.41"/>
<polygon fill="#4a6fa5" stroke="#4a6fa5" points="347.38,-213.86 354.39,-211.45 347.4,-208.96 347.38,-213.86"/>
</g>
<!-- Node0x60c08894d2b0 -->
<g id="node20" class="node">
<title>Node0x60c08894d2b0</title>
<path fill="#f0f4ff" stroke="black" d="M432,-166C432,-166 331,-166 331,-166 325,-166 319,-160 319,-154 319,-154 319,-142 319,-142 319,-136 325,-130 331,-130 331,-130 432,-130 432,-130 438,-130 444,-136 444,-142 444,-142 444,-154 444,-154 444,-160 438,-166 432,-166"/>
<text text-anchor="middle" x="381.5" y="-145.8" font-family="Courier,monospace" font-size="9.00">{CIccFileIO::Close()}</text>
</g>
<!-- Node0x60c088932370&#45;&gt;Node0x60c08894d2b0 -->
<g id="edge19" class="edge">
<title>Node0x60c088932370&#45;&gt;Node0x60c08894d2b0</title>
<path fill="none" stroke="#4a6fa5" d="M71.36,-643.82C71.87,-572.64 83.76,-310.47 227,-181 249.84,-160.36 282.41,-151.5 311.67,-148.06"/>
<polygon fill="#4a6fa5" stroke="#4a6fa5" points="311.93,-150.49 318.64,-147.33 311.42,-145.62 311.93,-150.49"/>
</g>
<!-- Node0x60c08894d010 -->
<g id="node21" class="node">
<title>Node0x60c08894d010</title>
<path fill="#f0f4ff" stroke="black" d="M398,-101C398,-101 365,-101 365,-101 359,-101 353,-95 353,-89 353,-89 353,-77 353,-77 353,-71 359,-65 365,-65 365,-65 398,-65 398,-65 404,-65 410,-71 410,-77 410,-77 410,-89 410,-89 410,-95 404,-101 398,-101"/>
<text text-anchor="middle" x="381.5" y="-80.8" font-family="Courier,monospace" font-size="9.00">{unlink}</text>
</g>
<!-- Node0x60c088932370&#45;&gt;Node0x60c08894d010 -->
<g id="edge20" class="edge">
<title>Node0x60c088932370&#45;&gt;Node0x60c08894d010</title>
<path fill="none" stroke="#4a6fa5" d="M74.14,-643.83C87.02,-557.75 145.88,-191.96 227,-116 258.95,-86.08 311.21,-80.71 345.74,-80.87"/>
<polygon fill="#4a6fa5" stroke="#4a6fa5" points="345.78,-83.32 352.82,-80.98 345.86,-78.42 345.78,-83.32"/>
</g>
<!-- Node0x60c088956020 -->
<g id="node22" class="node">
<title>Node0x60c088956020</title>
<path fill="#f0f4ff" stroke="black" d="M434.5,-36C434.5,-36 328.5,-36 328.5,-36 322.5,-36 316.5,-30 316.5,-24 316.5,-24 316.5,-12 316.5,-12 316.5,-6 322.5,0 328.5,0 328.5,0 434.5,0 434.5,0 440.5,0 446.5,-6 446.5,-12 446.5,-12 446.5,-24 446.5,-24 446.5,-30 440.5,-36 434.5,-36"/>
<text text-anchor="middle" x="381.5" y="-15.8" font-family="Courier,monospace" font-size="9.00">{CIccProfile::Write()}</text>
</g>
<!-- Node0x60c088932370&#45;&gt;Node0x60c088956020 -->
<g id="edge21" class="edge">
<title>Node0x60c088932370&#45;&gt;Node0x60c088956020</title>
<path fill="none" stroke="#4a6fa5" d="M73.55,-643.88C84.35,-551.85 137.42,-137.28 227,-51 248.63,-30.17 280.07,-21.15 308.87,-17.64"/>
<polygon fill="#4a6fa5" stroke="#4a6fa5" points="309.43,-20.05 316.13,-16.87 308.9,-15.18 309.43,-20.05"/>
</g>
<!-- Node0x60c08894fef0 -->
<g id="node23" class="node">
<title>Node0x60c08894fef0</title>
<path fill="#f0f4ff" stroke="black" d="M824.5,-1330C824.5,-1330 791.5,-1330 791.5,-1330 785.5,-1330 779.5,-1324 779.5,-1318 779.5,-1318 779.5,-1306 779.5,-1306 779.5,-1300 785.5,-1294 791.5,-1294 791.5,-1294 824.5,-1294 824.5,-1294 830.5,-1294 836.5,-1300 836.5,-1306 836.5,-1306 836.5,-1318 836.5,-1318 836.5,-1324 830.5,-1330 824.5,-1330"/>
<text text-anchor="middle" x="808" y="-1309.8" font-family="Courier,monospace" font-size="9.00">{getenv}</text>
</g>
<!-- Node0x60c088932400&#45;&gt;Node0x60c08894fef0 -->
<g id="edge22" class="edge">
<title>Node0x60c088932400&#45;&gt;Node0x60c08894fef0</title>
<path fill="none" stroke="#4a6fa5" d="M428.33,-1312C513.9,-1312 696.17,-1312 772.38,-1312"/>
<polygon fill="#4a6fa5" stroke="#4a6fa5" points="772.42,-1314.45 779.42,-1312 772.42,-1309.55 772.42,-1314.45"/>
</g>
<!-- Node0x60c08894c0c0 -->
<g id="node24" class="node">
<title>Node0x60c08894c0c0</title>
<path fill="#f0f4ff" stroke="black" d="M1282.5,-1104C1282.5,-1104 1249.5,-1104 1249.5,-1104 1243.5,-1104 1237.5,-1098 1237.5,-1092 1237.5,-1092 1237.5,-1080 1237.5,-1080 1237.5,-1074 1243.5,-1068 1249.5,-1068 1249.5,-1068 1282.5,-1068 1282.5,-1068 1288.5,-1068 1294.5,-1074 1294.5,-1080 1294.5,-1080 1294.5,-1092 1294.5,-1092 1294.5,-1098 1288.5,-1104 1282.5,-1104"/>
<text text-anchor="middle" x="1266" y="-1083.8" font-family="Courier,monospace" font-size="9.00">{strlen}</text>
</g>
<!-- Node0x60c088926c50&#45;&gt;Node0x60c08894c0c0 -->
<g id="edge23" class="edge">
<title>Node0x60c088926c50&#45;&gt;Node0x60c08894c0c0</title>
<path fill="none" stroke="#4a6fa5" d="M438.84,-1251.8C547.99,-1259.47 795.01,-1268.88 994,-1218 1085.17,-1194.69 1181.96,-1139 1231.5,-1107.92"/>
<polygon fill="#4a6fa5" stroke="#4a6fa5" points="1232.98,-1109.88 1237.59,-1104.07 1230.37,-1105.74 1232.98,-1109.88"/>
</g>
<!-- Node0x60c088951240 -->
<g id="node25" class="node">
<title>Node0x60c088951240</title>
<path fill="#f0f4ff" stroke="black" d="M863.5,-1203C863.5,-1203 752.5,-1203 752.5,-1203 746.5,-1203 740.5,-1197 740.5,-1191 740.5,-1191 740.5,-1179 740.5,-1179 740.5,-1173 746.5,-1167 752.5,-1167 752.5,-1167 863.5,-1167 863.5,-1167 869.5,-1167 875.5,-1173 875.5,-1179 875.5,-1179 875.5,-1191 875.5,-1191 875.5,-1197 869.5,-1203 863.5,-1203"/>
<text text-anchor="middle" x="808" y="-1182.8" font-family="Courier,monospace" font-size="9.00">{llvm.memcpy.p0.p0.i64}</text>
</g>
<!-- Node0x60c088926c50&#45;&gt;Node0x60c088951240 -->
<g id="edge24" class="edge">
<title>Node0x60c088926c50&#45;&gt;Node0x60c088951240</title>
<path fill="none" stroke="#4a6fa5" d="M438.87,-1238.77C514.66,-1227.7 649.55,-1208 733.31,-1195.76"/>
<polygon fill="#4a6fa5" stroke="#4a6fa5" points="733.68,-1198.19 740.25,-1194.75 732.97,-1193.34 733.68,-1198.19"/>
</g>
<!-- Node0x60c0889566b0 -->
<g id="node27" class="node">
<title>Node0x60c0889566b0</title>
<path fill="#f0f4ff" stroke="black" d="M950.5,-485C950.5,-485 665.5,-485 665.5,-485 659.5,-485 653.5,-479 653.5,-473 653.5,-473 653.5,-461 653.5,-461 653.5,-455 659.5,-449 665.5,-449 665.5,-449 950.5,-449 950.5,-449 956.5,-449 962.5,-455 962.5,-461 962.5,-461 962.5,-473 962.5,-473 962.5,-479 956.5,-485 950.5,-485"/>
<text text-anchor="middle" x="808" y="-464.8" font-family="Courier,monospace" font-size="9.00">{basic_string&lt;char, std::char_traits &gt;::_M_local_data()}</text>
</g>
<!-- Node0x60c08894a6e0&#45;&gt;Node0x60c0889566b0 -->
<g id="edge25" class="edge">
<title>Node0x60c08894a6e0&#45;&gt;Node0x60c0889566b0</title>
<path fill="none" stroke="#4a6fa5" d="M500.18,-513.98C556.77,-505.32 624.63,-494.92 682.13,-486.12"/>
<polygon fill="#4a6fa5" stroke="#4a6fa5" points="682.54,-488.54 689.09,-485.05 681.8,-483.69 682.54,-488.54"/>
</g>
<!-- Node0x60c08894dc10 -->
<g id="node28" class="node">
<title>Node0x60c08894dc10</title>
<path fill="#f0f4ff" stroke="black" d="M921.5,-420C921.5,-420 694.5,-420 694.5,-420 688.5,-420 682.5,-414 682.5,-408 682.5,-408 682.5,-396 682.5,-396 682.5,-390 688.5,-384 694.5,-384 694.5,-384 921.5,-384 921.5,-384 927.5,-384 933.5,-390 933.5,-396 933.5,-396 933.5,-408 933.5,-408 933.5,-414 927.5,-420 921.5,-420"/>
<text text-anchor="middle" x="808" y="-399.8" font-family="Courier,monospace" font-size="9.00">{char_traits &gt;::_Alloc_hider::_Alloc_hider()}</text>
</g>
<!-- Node0x60c08894a6e0&#45;&gt;Node0x60c08894dc10 -->
<g id="edge26" class="edge">
<title>Node0x60c08894a6e0&#45;&gt;Node0x60c08894dc10</title>
<path fill="none" stroke="#4a6fa5" d="M497.46,-513.89C510.74,-510.09 523.86,-505.52 536,-500 579.62,-480.19 578.1,-454.18 622,-435 638.63,-427.74 656.76,-422.07 674.96,-417.65"/>
<polygon fill="#4a6fa5" stroke="#4a6fa5" points="675.95,-419.94 682.21,-415.96 674.84,-415.17 675.95,-419.94"/>
</g>
<!-- Node0x60c0889510d0 -->
<g id="node29" class="node">
<title>Node0x60c0889510d0</title>
<path fill="#f0f4ff" stroke="black" d="M877,-746C877,-746 739,-746 739,-746 733,-746 727,-740 727,-734 727,-734 727,-722 727,-722 727,-716 733,-710 739,-710 739,-710 877,-710 877,-710 883,-710 889,-716 889,-722 889,-722 889,-734 889,-734 889,-740 883,-746 877,-746"/>
<text text-anchor="middle" x="808" y="-725.8" font-family="Courier,monospace" font-size="9.00">{std::__throw_logic_error()}</text>
</g>
<!-- Node0x60c08894a6e0&#45;&gt;Node0x60c0889510d0 -->
<g id="edge27" class="edge">
<title>Node0x60c08894a6e0&#45;&gt;Node0x60c0889510d0</title>
<path fill="none" stroke="#4a6fa5" d="M507.88,-550.14C517.82,-554.17 527.34,-559.07 536,-565 593.45,-604.37 563.76,-657.8 622,-696 650.51,-714.7 686.6,-723.46 719.32,-727.28"/>
<polygon fill="#4a6fa5" stroke="#4a6fa5" points="719.46,-729.76 726.68,-728.07 719.98,-724.89 719.46,-729.76"/>
</g>
<!-- Node0x60c0889549f0 -->
<g id="node30" class="node">
<title>Node0x60c0889549f0</title>
<path fill="#f0f4ff" stroke="black" d="M924,-550C924,-550 692,-550 692,-550 686,-550 680,-544 680,-538 680,-538 680,-526 680,-526 680,-520 686,-514 692,-514 692,-514 924,-514 924,-514 930,-514 936,-520 936,-526 936,-526 936,-538 936,-538 936,-544 930,-550 924,-550"/>
<text text-anchor="middle" x="808" y="-529.8" font-family="Courier,monospace" font-size="9.00">{char_traits &gt;::_Alloc_hider::~_Alloc_hider()}</text>
</g>
<!-- Node0x60c08894a6e0&#45;&gt;Node0x60c0889549f0 -->
<g id="edge28" class="edge">
<title>Node0x60c08894a6e0&#45;&gt;Node0x60c0889549f0</title>
<path fill="none" stroke="#4a6fa5" d="M515.07,-532C565.25,-532 622.39,-532 672.73,-532"/>
<polygon fill="#4a6fa5" stroke="#4a6fa5" points="672.79,-534.45 679.79,-532 672.79,-529.55 672.79,-534.45"/>
</g>
<!-- Node0x60c088954770 -->
<g id="node31" class="node">
<title>Node0x60c088954770</title>
<path fill="#f0f4ff" stroke="black" d="M892.5,-681C892.5,-681 723.5,-681 723.5,-681 717.5,-681 711.5,-675 711.5,-669 711.5,-669 711.5,-657 711.5,-657 711.5,-651 717.5,-645 723.5,-645 723.5,-645 892.5,-645 892.5,-645 898.5,-645 904.5,-651 904.5,-657 904.5,-657 904.5,-669 904.5,-669 904.5,-675 898.5,-681 892.5,-681"/>
<text text-anchor="middle" x="808" y="-660.8" font-family="Courier,monospace" font-size="9.00">{std::char_traits&lt;char&gt;::length()}</text>
</g>
<!-- Node0x60c08894a6e0&#45;&gt;Node0x60c088954770 -->
<g id="edge29" class="edge">
<title>Node0x60c08894a6e0&#45;&gt;Node0x60c088954770</title>
<path fill="none" stroke="#4a6fa5" d="M494.66,-550.02C508.89,-554.06 523.01,-558.99 536,-565 579.73,-585.22 577.87,-611.67 622,-631 647.6,-642.21 676.8,-649.51 704.32,-654.25"/>
<polygon fill="#4a6fa5" stroke="#4a6fa5" points="703.97,-656.67 711.28,-655.4 704.77,-651.84 703.97,-656.67"/>
</g>
<!-- Node0x60c0889544f0 -->
<g id="node32" class="node">
<title>Node0x60c0889544f0</title>
<path fill="#f0f4ff" stroke="black" d="M982,-616C982,-616 634,-616 634,-616 628,-616 622,-610 622,-604 622,-604 622,-592 622,-592 622,-586 628,-580 634,-580 634,-580 982,-580 982,-580 988,-580 994,-586 994,-592 994,-592 994,-604 994,-604 994,-610 988,-616 982,-616"/>
<text text-anchor="middle" x="808" y="-595.8" font-family="Courier,monospace" font-size="9.00">{basic_string&lt;char, std::char_traits &gt;::_M_construct&lt;char const*&gt;()}</text>
</g>
<!-- Node0x60c08894a6e0&#45;&gt;Node0x60c0889544f0 -->
<g id="edge30" class="edge">
<title>Node0x60c08894a6e0&#45;&gt;Node0x60c0889544f0</title>
<path fill="none" stroke="#4a6fa5" d="M498.5,-550.03C556.05,-558.98 625.59,-569.8 684.07,-578.89"/>
<polygon fill="#4a6fa5" stroke="#4a6fa5" points="683.85,-581.33 691.14,-579.99 684.6,-576.49 683.85,-581.33"/>
</g>
<!-- Node0x60c088956910 -->
<g id="node26" class="node">
<title>Node0x60c088956910</title>
<path fill="#f0f4ff" stroke="black" d="M123.5,-7572C123.5,-7572 17.5,-7572 17.5,-7572 11.5,-7572 5.5,-7566 5.5,-7560 5.5,-7560 5.5,-7548 5.5,-7548 5.5,-7542 11.5,-7536 17.5,-7536 17.5,-7536 123.5,-7536 123.5,-7536 129.5,-7536 135.5,-7542 135.5,-7548 135.5,-7548 135.5,-7560 135.5,-7560 135.5,-7566 129.5,-7572 123.5,-7572"/>
<text text-anchor="middle" x="70.5" y="-7551.8" font-family="Courier,monospace" font-size="9.00">{__gxx_personality_v0}</text>
</g>
<!-- Node0x60c0889549f0&#45;&gt;Node0x60c08894e0e0 -->
<g id="edge40" class="edge">
<title>Node0x60c0889549f0&#45;&gt;Node0x60c08894e0e0</title>
<path fill="none" stroke="#4a6fa5" d="M936.04,-524.03C956.5,-518.9 976.63,-511.26 994,-500 1051.51,-462.71 1022.59,-409.44 1080,-372 1093.75,-363.03 1109.24,-356.32 1125.26,-351.31"/>
<polygon fill="#4a6fa5" stroke="#4a6fa5" points="1126.13,-353.61 1132.15,-349.27 1124.74,-348.91 1126.13,-353.61"/>
</g>
<!-- Node0x60c088954770&#45;&gt;Node0x60c08894c0c0 -->
<g id="edge31" class="edge">
<title>Node0x60c088954770&#45;&gt;Node0x60c08894c0c0</title>
<path fill="none" stroke="#4a6fa5" d="M904.72,-662.59C935.88,-666.75 968.88,-676.22 994,-696 1068.74,-754.84 1027.27,-812.83 1080,-892 1126.35,-961.59 1198.76,-1029.06 1237.83,-1063.1"/>
<polygon fill="#4a6fa5" stroke="#4a6fa5" points="1236.45,-1065.15 1243.34,-1067.88 1239.65,-1061.44 1236.45,-1065.15"/>
</g>
<!-- Node0x60c0889526d0 -->
<g id="node33" class="node">
<title>Node0x60c0889526d0</title>
<path fill="#f0f4ff" stroke="black" d="M1398,-747C1398,-747 1134,-747 1134,-747 1128,-747 1122,-741 1122,-735 1122,-735 1122,-723 1122,-723 1122,-717 1128,-711 1134,-711 1134,-711 1398,-711 1398,-711 1404,-711 1410,-717 1410,-723 1410,-723 1410,-735 1410,-735 1410,-741 1404,-747 1398,-747"/>
<text text-anchor="middle" x="1266" y="-726.8" font-family="Courier,monospace" font-size="9.00">{basic_string&lt;char, std::char_traits &gt;::_M_create()}</text>
</g>
<!-- Node0x60c0889544f0&#45;&gt;Node0x60c0889526d0 -->
<g id="edge32" class="edge">
<title>Node0x60c0889544f0&#45;&gt;Node0x60c0889526d0</title>
<path fill="none" stroke="#4a6fa5" d="M951,-616.09C965.82,-620.1 980.42,-625.01 994,-631 1038.08,-650.45 1035.87,-677.67 1080,-697 1090.98,-701.81 1102.63,-705.9 1114.52,-709.38"/>
<polygon fill="#4a6fa5" stroke="#4a6fa5" points="1114.14,-711.81 1121.54,-711.35 1115.47,-707.1 1114.14,-711.81"/>
</g>
<!-- Node0x60c08893b350 -->
<g id="node34" class="node">
<title>Node0x60c08893b350</title>
<path fill="#f0f4ff" stroke="black" d="M1392.5,-682C1392.5,-682 1139.5,-682 1139.5,-682 1133.5,-682 1127.5,-676 1127.5,-670 1127.5,-670 1127.5,-658 1127.5,-658 1127.5,-652 1133.5,-646 1139.5,-646 1139.5,-646 1392.5,-646 1392.5,-646 1398.5,-646 1404.5,-652 1404.5,-658 1404.5,-658 1404.5,-670 1404.5,-670 1404.5,-676 1398.5,-682 1392.5,-682"/>
<text text-anchor="middle" x="1266" y="-661.8" font-family="Courier,monospace" font-size="9.00">{basic_string&lt;char, std::char_traits &gt;::_M_data()}</text>
</g>
<!-- Node0x60c0889544f0&#45;&gt;Node0x60c08893b350 -->
<g id="edge33" class="edge">
<title>Node0x60c0889544f0&#45;&gt;Node0x60c08893b350</title>
<path fill="none" stroke="#4a6fa5" d="M933.6,-616.03C995.56,-625 1070.44,-635.84 1133.33,-644.94"/>
<polygon fill="#4a6fa5" stroke="#4a6fa5" points="1133.27,-647.41 1140.55,-645.99 1133.97,-642.56 1133.27,-647.41"/>
</g>
<!-- Node0x60c08895db70 -->
<g id="node35" class="node">
<title>Node0x60c08895db70</title>
<path fill="#f0f4ff" stroke="black" d="M1403,-617C1403,-617 1129,-617 1129,-617 1123,-617 1117,-611 1117,-605 1117,-605 1117,-593 1117,-593 1117,-587 1123,-581 1129,-581 1129,-581 1403,-581 1403,-581 1409,-581 1415,-587 1415,-593 1415,-593 1415,-605 1415,-605 1415,-611 1409,-617 1403,-617"/>
<text text-anchor="middle" x="1266" y="-596.8" font-family="Courier,monospace" font-size="9.00">{basic_string&lt;char, std::char_traits &gt;::_M_capacity()}</text>
</g>
<!-- Node0x60c0889544f0&#45;&gt;Node0x60c08895db70 -->
<g id="edge34" class="edge">
<title>Node0x60c0889544f0&#45;&gt;Node0x60c08895db70</title>
<path fill="none" stroke="#4a6fa5" d="M994.14,-598.41C1032.43,-598.49 1072.38,-598.58 1109.47,-598.66"/>
<polygon fill="#4a6fa5" stroke="#4a6fa5" points="1109.85,-601.11 1116.85,-598.68 1109.86,-596.21 1109.85,-601.11"/>
</g>
<!-- Node0x60c08895d9b0 -->
<g id="node36" class="node">
<title>Node0x60c08895d9b0</title>
<path fill="#f0f4ff" stroke="black" d="M1440,-552C1440,-552 1092,-552 1092,-552 1086,-552 1080,-546 1080,-540 1080,-540 1080,-528 1080,-528 1080,-522 1086,-516 1092,-516 1092,-516 1440,-516 1440,-516 1446,-516 1452,-522 1452,-528 1452,-528 1452,-540 1452,-540 1452,-546 1446,-552 1440,-552"/>
<text text-anchor="middle" x="1266" y="-531.8" font-family="Courier,monospace" font-size="9.00">{basic_string&lt;char, std::char_traits &gt;::_M_construct&lt;char const*&gt;()}</text>
</g>
<!-- Node0x60c0889544f0&#45;&gt;Node0x60c08895d9b0 -->
<g id="edge35" class="edge">
<title>Node0x60c0889544f0&#45;&gt;Node0x60c08895d9b0</title>
<path fill="none" stroke="#4a6fa5" d="M937.54,-579.96C997.52,-571.54 1068.92,-561.52 1129.73,-552.99"/>
<polygon fill="#4a6fa5" stroke="#4a6fa5" points="1130.12,-555.41 1136.71,-552.01 1129.43,-550.55 1130.12,-555.41"/>
</g>
<!-- Node0x60c08895d850 -->
<g id="node37" class="node">
<title>Node0x60c08895d850</title>
<path fill="#f0f4ff" stroke="black" d="M1392.5,-487C1392.5,-487 1139.5,-487 1139.5,-487 1133.5,-487 1127.5,-481 1127.5,-475 1127.5,-475 1127.5,-463 1127.5,-463 1127.5,-457 1133.5,-451 1139.5,-451 1139.5,-451 1392.5,-451 1392.5,-451 1398.5,-451 1404.5,-457 1404.5,-463 1404.5,-463 1404.5,-475 1404.5,-475 1404.5,-481 1398.5,-487 1392.5,-487"/>
<text text-anchor="middle" x="1266" y="-466.8" font-family="Courier,monospace" font-size="9.00">{basic_string&lt;char, std::char_traits &gt;::_M_data()}</text>
</g>
<!-- Node0x60c0889544f0&#45;&gt;Node0x60c08895d850 -->
<g id="edge36" class="edge">
<title>Node0x60c0889544f0&#45;&gt;Node0x60c08895d850</title>
<path fill="none" stroke="#4a6fa5" d="M949.39,-579.99C964.75,-575.96 979.9,-571.03 994,-565 1037.56,-546.36 1036.44,-520.64 1080,-502 1092.76,-496.54 1106.39,-491.98 1120.24,-488.18"/>
<polygon fill="#4a6fa5" stroke="#4a6fa5" points="1120.92,-490.53 1127.06,-486.37 1119.66,-485.8 1120.92,-490.53"/>
</g>
<!-- Node0x60c08893b490 -->
<g id="node38" class="node">
<title>Node0x60c08893b490</title>
<path fill="#f0f4ff" stroke="black" d="M1408.5,-422C1408.5,-422 1123.5,-422 1123.5,-422 1117.5,-422 1111.5,-416 1111.5,-410 1111.5,-410 1111.5,-398 1111.5,-398 1111.5,-392 1117.5,-386 1123.5,-386 1123.5,-386 1408.5,-386 1408.5,-386 1414.5,-386 1420.5,-392 1420.5,-398 1420.5,-398 1420.5,-410 1420.5,-410 1420.5,-416 1414.5,-422 1408.5,-422"/>
<text text-anchor="middle" x="1266" y="-401.8" font-family="Courier,monospace" font-size="9.00">{basic_string&lt;char, std::char_traits &gt;::_S_copy_chars()}</text>
</g>
<!-- Node0x60c0889544f0&#45;&gt;Node0x60c08893b490 -->
<g id="edge37" class="edge">
<title>Node0x60c0889544f0&#45;&gt;Node0x60c08893b490</title>
<path fill="none" stroke="#4a6fa5" d="M965.04,-579.89C975.21,-575.79 984.98,-570.88 994,-565 1051.41,-527.56 1022.59,-474.44 1080,-437 1087.73,-431.96 1096.01,-427.63 1104.63,-423.91"/>
<polygon fill="#4a6fa5" stroke="#4a6fa5" points="1105.73,-426.11 1111.28,-421.19 1103.87,-421.58 1105.73,-426.11"/>
</g>
<!-- Node0x60c08893dff0 -->
<g id="node39" class="node">
<title>Node0x60c08893dff0</title>
<path fill="#f0f4ff" stroke="black" d="M1408.5,-877C1408.5,-877 1123.5,-877 1123.5,-877 1117.5,-877 1111.5,-871 1111.5,-865 1111.5,-865 1111.5,-853 1111.5,-853 1111.5,-847 1117.5,-841 1123.5,-841 1123.5,-841 1408.5,-841 1408.5,-841 1414.5,-841 1420.5,-847 1420.5,-853 1420.5,-853 1420.5,-865 1420.5,-865 1420.5,-871 1414.5,-877 1408.5,-877"/>
<text text-anchor="middle" x="1266" y="-856.8" font-family="Courier,monospace" font-size="9.00">{basic_string&lt;char, std::char_traits &gt;::_M_set_length()}</text>
</g>
<!-- Node0x60c0889544f0&#45;&gt;Node0x60c08893dff0 -->
<g id="edge38" class="edge">
<title>Node0x60c0889544f0&#45;&gt;Node0x60c08893dff0</title>
<path fill="none" stroke="#4a6fa5" d="M969.88,-616.02C978.44,-620.2 986.57,-625.15 994,-631 1068.74,-689.84 1005.1,-768.35 1080,-827 1087.64,-832.98 1096.01,-838.01 1104.83,-842.21"/>
<polygon fill="#4a6fa5" stroke="#4a6fa5" points="1103.93,-844.5 1111.32,-845.14 1105.94,-840.03 1103.93,-844.5"/>
</g>
<!-- Node0x60c088960560 -->
<g id="node40" class="node">
<title>Node0x60c088960560</title>
<path fill="#f0f4ff" stroke="black" d="M1440,-812C1440,-812 1092,-812 1092,-812 1086,-812 1080,-806 1080,-800 1080,-800 1080,-788 1080,-788 1080,-782 1086,-776 1092,-776 1092,-776 1440,-776 1440,-776 1446,-776 1452,-782 1452,-788 1452,-788 1452,-800 1452,-800 1452,-806 1446,-812 1440,-812"/>
<text text-anchor="middle" x="1266" y="-791.8" font-family="Courier,monospace" font-size="9.00">{basic_string&lt;char, std::char_traits &gt;::_M_construct&lt;char const*&gt;()}</text>
</g>
<!-- Node0x60c0889544f0&#45;&gt;Node0x60c088960560 -->
<g id="edge39" class="edge">
<title>Node0x60c0889544f0&#45;&gt;Node0x60c088960560</title>
<path fill="none" stroke="#4a6fa5" d="M965.57,-616.19C975.56,-620.27 985.15,-625.16 994,-631 1052.14,-669.35 1021.76,-723.8 1080,-762 1086.36,-766.17 1093.11,-769.85 1100.11,-773.09"/>
<polygon fill="#4a6fa5" stroke="#4a6fa5" points="1099.21,-775.38 1106.6,-775.95 1101.18,-770.89 1099.21,-775.38"/>
</g>
<!-- Node0x60c08895f130 -->
<g id="node41" class="node">
<title>Node0x60c08895f130</title>
<path fill="#f0f4ff" stroke="black" d="M1819,-844C1819,-844 1550,-844 1550,-844 1544,-844 1538,-838 1538,-832 1538,-832 1538,-820 1538,-820 1538,-814 1544,-808 1550,-808 1550,-808 1819,-808 1819,-808 1825,-808 1831,-814 1831,-820 1831,-820 1831,-832 1831,-832 1831,-838 1825,-844 1819,-844"/>
<text text-anchor="middle" x="1684.5" y="-823.8" font-family="Courier,monospace" font-size="9.00">{basic_string&lt;char, std::char_traits &gt;::_M_dispose()}</text>
</g>
<!-- Node0x60c088960560&#45;&gt;Node0x60c08895f130 -->
<g id="edge41" class="edge">
<title>Node0x60c088960560&#45;&gt;Node0x60c08895f130</title>
<path fill="none" stroke="#4a6fa5" d="M1452.11,-808.22C1478.32,-810.24 1505.03,-812.29 1530.55,-814.25"/>
<polygon fill="#4a6fa5" stroke="#4a6fa5" points="1530.54,-816.71 1537.71,-814.8 1530.92,-811.82 1530.54,-816.71"/>
</g>
<!-- Node0x60c088963190 -->
<g id="node42" class="node">
<title>Node0x60c088963190</title>
<path fill="#f0f4ff" stroke="black" d="M1743,-779C1743,-779 1626,-779 1626,-779 1620,-779 1614,-773 1614,-767 1614,-767 1614,-755 1614,-755 1614,-749 1620,-743 1626,-743 1626,-743 1743,-743 1743,-743 1749,-743 1755,-749 1755,-755 1755,-755 1755,-767 1755,-767 1755,-773 1749,-779 1743,-779"/>
<text text-anchor="middle" x="1684.5" y="-758.8" font-family="Courier,monospace" font-size="9.00">{__clang_call_terminate}</text>
</g>
<!-- Node0x60c088960560&#45;&gt;Node0x60c088963190 -->
<g id="edge42" class="edge">
<title>Node0x60c088960560&#45;&gt;Node0x60c088963190</title>
<path fill="none" stroke="#4a6fa5" d="M1452.11,-779.33C1506.54,-775.02 1563.11,-770.54 1606.69,-767.09"/>
<polygon fill="#4a6fa5" stroke="#4a6fa5" points="1607.06,-769.51 1613.85,-766.52 1606.68,-764.63 1607.06,-769.51"/>
</g>
<!-- Node0x60c08893f8f0 -->
<g id="node43" class="node">
<title>Node0x60c08893f8f0</title>
<path fill="#f0f4ff" stroke="black" d="M2019,-812C2019,-812 1929,-812 1929,-812 1923,-812 1917,-806 1917,-800 1917,-800 1917,-788 1917,-788 1917,-782 1923,-776 1929,-776 1929,-776 2019,-776 2019,-776 2025,-776 2031,-782 2031,-788 2031,-788 2031,-800 2031,-800 2031,-806 2025,-812 2019,-812"/>
<text text-anchor="middle" x="1974" y="-791.8" font-family="Courier,monospace" font-size="9.00">{__cxa_begin_catch}</text>
</g>
<!-- Node0x60c088963190&#45;&gt;Node0x60c08893f8f0 -->
<g id="edge43" class="edge">
<title>Node0x60c088963190&#45;&gt;Node0x60c08893f8f0</title>
<path fill="none" stroke="#4a6fa5" d="M1755.1,-768.99C1802.1,-774.38 1863.68,-781.45 1909.38,-786.7"/>
<polygon fill="#4a6fa5" stroke="#4a6fa5" points="1909.34,-789.16 1916.57,-787.52 1909.9,-784.29 1909.34,-789.16"/>
</g>
<!-- Node0x60c08893f670 -->
<g id="node44" class="node">
<title>Node0x60c08893f670</title>
<path fill="#f0f4ff" stroke="black" d="M2016.5,-747C2016.5,-747 1931.5,-747 1931.5,-747 1925.5,-747 1919.5,-741 1919.5,-735 1919.5,-735 1919.5,-723 1919.5,-723 1919.5,-717 1925.5,-711 1931.5,-711 1931.5,-711 2016.5,-711 2016.5,-711 2022.5,-711 2028.5,-717 2028.5,-723 2028.5,-723 2028.5,-735 2028.5,-735 2028.5,-741 2022.5,-747 2016.5,-747"/>
<text text-anchor="middle" x="1974" y="-726.8" font-family="Courier,monospace" font-size="9.00">{std::terminate()}</text>
</g>
<!-- Node0x60c088963190&#45;&gt;Node0x60c08893f670 -->
<g id="edge44" class="edge">
<title>Node0x60c088963190&#45;&gt;Node0x60c08893f670</title>
<path fill="none" stroke="#4a6fa5" d="M1755.1,-753.25C1803.05,-747.92 1866.17,-740.89 1912.12,-735.78"/>
<polygon fill="#4a6fa5" stroke="#4a6fa5" points="1912.66,-738.18 1919.34,-734.97 1912.12,-733.31 1912.66,-738.18"/>
</g>
</g>
</svg>
