<?xml version="1.0" encoding="UTF-8" standalone="no"?>
<!DOCTYPE svg PUBLIC "-//W3C//DTD SVG 1.1//EN"
 "http://www.w3.org/Graphics/SVG/1.1/DTD/svg11.dtd">
<!-- Generated by graphviz version 2.43.0 (0)
 -->
<!-- Title: Call graph: /home/h02332/po/research/call&#45;graph/cfl/icc_profile_fuzzer.ll Pages: 1 -->
<svg width="13302pt" height="433pt"
 viewBox="0.00 0.00 13301.50 433.00" xmlns="http://www.w3.org/2000/svg" xmlns:xlink="http://www.w3.org/1999/xlink">
<g id="graph0" class="graph" transform="scale(1 1) rotate(0) translate(4 429)">
<title>Call graph: /home/h02332/po/research/call&#45;graph/cfl/icc_profile_fuzzer.ll</title>
<polygon fill="white" stroke="transparent" points="-4,4 -4,-429 13297.5,-429 13297.5,4 -4,4"/>
<text text-anchor="middle" x="6646.75" y="-7.8" font-family="Times,serif" font-size="14.00">Call graph: /home/h02332/po/research/call&#45;graph/cfl/icc_profile_fuzzer.ll</text>
<!-- Node0x5a7ddaab9910 -->
<g id="node1" class="node">
<title>Node0x5a7ddaab9910</title>
<polygon fill="none" stroke="black" points="9178,-388.5 9178,-424.5 9381,-424.5 9381,-388.5 9178,-388.5"/>
<text text-anchor="middle" x="9279.5" y="-402.8" font-family="Times,serif" font-size="14.00">LLVMFuzzerTestOneInput</text>
</g>
<!-- Node0x5a7ddab10160 -->
<g id="node2" class="node">
<title>Node0x5a7ddab10160</title>
<polygon fill="none" stroke="black" points="3764.5,-315.5 3764.5,-351.5 3962.5,-351.5 3962.5,-315.5 3764.5,-315.5"/>
<text text-anchor="middle" x="3863.5" y="-329.8" font-family="Times,serif" font-size="14.00">_Z14OpenIccProfilePKhjb</text>
</g>
<!-- Node0x5a7ddaab9910&#45;&gt;Node0x5a7ddab10160 -->
<g id="edge1" class="edge">
<title>Node0x5a7ddaab9910&#45;&gt;Node0x5a7ddab10160</title>
<path fill="none" stroke="black" d="M9177.79,-405.4C8492.27,-404.59 4556.4,-397.98 3972.96,-352"/>
<polygon fill="black" stroke="black" points="3972.85,-348.48 3962.59,-351.15 3972.27,-355.46 3972.85,-348.48"/>
</g>
<!-- Node0x5a7ddab101f0 -->
<g id="node3" class="node">
<title>Node0x5a7ddab101f0</title>
<polygon fill="none" stroke="black" points="3981,-315.5 3981,-351.5 4448,-351.5 4448,-315.5 3981,-315.5"/>
<text text-anchor="middle" x="4214.5" y="-329.8" font-family="Times,serif" font-size="14.00">_ZNSt7__cxx1112basic_stringIcSt11char_traitsIcESaIcEEC1Ev</text>
</g>
<!-- Node0x5a7ddaab9910&#45;&gt;Node0x5a7ddab101f0 -->
<g id="edge2" class="edge">
<title>Node0x5a7ddaab9910&#45;&gt;Node0x5a7ddab101f0</title>
<path fill="none" stroke="black" d="M9177.67,-405.22C8570.68,-403.39 5423.38,-392.1 4457.5,-352 4457.15,-351.99 4456.81,-351.97 4456.46,-351.96"/>
<polygon fill="black" stroke="black" points="4456.46,-348.45 4446.32,-351.51 4456.16,-355.45 4456.46,-348.45"/>
</g>
<!-- Node0x5a7ddaafee90 -->
<g id="node4" class="node">
<title>Node0x5a7ddaafee90</title>
<polygon fill="none" stroke="black" points="4466.5,-315.5 4466.5,-351.5 5040.5,-351.5 5040.5,-315.5 4466.5,-315.5"/>
<text text-anchor="middle" x="4753.5" y="-329.8" font-family="Times,serif" font-size="14.00">_ZNSt7__cxx1112basic_stringIcSt11char_traitsIcESaIcEEC2IS3_EEPKcRKS3_</text>
</g>
<!-- Node0x5a7ddaab9910&#45;&gt;Node0x5a7ddaafee90 -->
<g id="edge3" class="edge">
<title>Node0x5a7ddaab9910&#45;&gt;Node0x5a7ddaafee90</title>
<path fill="none" stroke="black" d="M9177.81,-404.19C8748.51,-398.64 7041.97,-376.16 5639.5,-352 5443.43,-348.62 5222.97,-344.27 5051.01,-340.75"/>
<polygon fill="black" stroke="black" points="5050.86,-337.25 5040.79,-340.54 5050.71,-344.25 5050.86,-337.25"/>
</g>
<!-- Node0x5a7ddaa9ca60 -->
<g id="node5" class="node">
<title>Node0x5a7ddaa9ca60</title>
<polygon fill="none" stroke="black" points="6038,-315.5 6038,-351.5 6745,-351.5 6745,-315.5 6038,-315.5"/>
<text text-anchor="middle" x="6391.5" y="-329.8" font-family="Times,serif" font-size="14.00">_ZNK11CIccProfile8ValidateERNSt7__cxx1112basic_stringIcSt11char_traitsIcESaIcEEES5_PKS_</text>
</g>
<!-- Node0x5a7ddaab9910&#45;&gt;Node0x5a7ddaa9ca60 -->
<g id="edge4" class="edge">
<title>Node0x5a7ddaab9910&#45;&gt;Node0x5a7ddaa9ca60</title>
<path fill="none" stroke="black" d="M9177.81,-404.34C8835.75,-400.21 7695.46,-384.74 6753.5,-352 6752.36,-351.96 6751.22,-351.92 6750.07,-351.88"/>
<polygon fill="black" stroke="black" points="6749.85,-348.37 6739.73,-351.51 6749.6,-355.37 6749.85,-348.37"/>
</g>
<!-- Node0x5a7ddaa9bb10 -->
<g id="node6" class="node">
<title>Node0x5a7ddaa9bb10</title>
<polygon fill="none" stroke="black" points="6763,-315.5 6763,-351.5 7230,-351.5 7230,-315.5 6763,-315.5"/>
<text text-anchor="middle" x="6996.5" y="-329.8" font-family="Times,serif" font-size="14.00">_ZNSt7__cxx1112basic_stringIcSt11char_traitsIcESaIcEED1Ev</text>
</g>
<!-- Node0x5a7ddaab9910&#45;&gt;Node0x5a7ddaa9bb10 -->
<g id="edge5" class="edge">
<title>Node0x5a7ddaab9910&#45;&gt;Node0x5a7ddaa9bb10</title>
<path fill="none" stroke="black" d="M9177.82,-404.48C8881.18,-401.13 7990.92,-388.61 7240.14,-352.02"/>
<polygon fill="black" stroke="black" points="7240.09,-348.51 7229.93,-351.52 7239.75,-355.5 7240.09,-348.51"/>
</g>
<!-- Node0x5a7ddaa9d6e0 -->
<g id="node7" class="node">
<title>Node0x5a7ddaa9d6e0</title>
<polygon fill="none" stroke="black" points="5531,-169.5 5531,-205.5 5784,-205.5 5784,-169.5 5531,-169.5"/>
<text text-anchor="middle" x="5657.5" y="-183.8" font-family="Times,serif" font-size="14.00">_ZNSt15__new_allocatorIcED2Ev</text>
</g>
<!-- Node0x5a7ddaab9910&#45;&gt;Node0x5a7ddaa9d6e0 -->
<g id="edge6" class="edge">
<title>Node0x5a7ddaab9910&#45;&gt;Node0x5a7ddaa9d6e0</title>
<path fill="none" stroke="black" d="M9177.89,-404.91C8595.45,-401.43 5705.55,-382.61 5672.5,-352 5635.48,-317.71 5642.49,-252.66 5650.33,-215.79"/>
<polygon fill="black" stroke="black" points="5653.81,-216.28 5652.64,-205.75 5646.99,-214.71 5653.81,-216.28"/>
</g>
<!-- Node0x5a7ddaa9c430 -->
<g id="node8" class="node">
<title>Node0x5a7ddaa9c430</title>
<polygon fill="none" stroke="black" points="7248.5,-315.5 7248.5,-351.5 7580.5,-351.5 7580.5,-315.5 7248.5,-315.5"/>
<text text-anchor="middle" x="7414.5" y="-329.8" font-family="Times,serif" font-size="14.00">_ZNSt14_List_iteratorI11IccTagEntryEC2Ev</text>
</g>
<!-- Node0x5a7ddaab9910&#45;&gt;Node0x5a7ddaa9c430 -->
<g id="edge7" class="edge">
<title>Node0x5a7ddaab9910&#45;&gt;Node0x5a7ddaa9c430</title>
<path fill="none" stroke="black" d="M9177.95,-404.69C8916.59,-402.09 8199.2,-391.67 7591.04,-352.07"/>
<polygon fill="black" stroke="black" points="7590.95,-348.56 7580.74,-351.4 7590.49,-355.55 7590.95,-348.56"/>
</g>
<!-- Node0x5a7ddaaa0930 -->
<g id="node9" class="node">
<title>Node0x5a7ddaaa0930</title>
<polygon fill="none" stroke="black" points="8006.5,-315.5 8006.5,-351.5 8410.5,-351.5 8410.5,-315.5 8006.5,-315.5"/>
<text text-anchor="middle" x="8208.5" y="-329.8" font-family="Times,serif" font-size="14.00">_ZNSt7__cxx114listI11IccTagEntrySaIS1_EE5beginEv</text>
</g>
<!-- Node0x5a7ddaab9910&#45;&gt;Node0x5a7ddaaa0930 -->
<g id="edge8" class="edge">
<title>Node0x5a7ddaab9910&#45;&gt;Node0x5a7ddaaa0930</title>
<path fill="none" stroke="black" d="M9177.97,-399.84C9019.07,-390.84 8701.71,-372.26 8420.73,-352.01"/>
<polygon fill="black" stroke="black" points="8420.98,-348.52 8410.75,-351.29 8420.48,-355.5 8420.98,-348.52"/>
</g>
<!-- Node0x5a7ddaa9d9e0 -->
<g id="node10" class="node">
<title>Node0x5a7ddaa9d9e0</title>
<polygon fill="none" stroke="black" points="8596.5,-242.5 8596.5,-278.5 8778.5,-278.5 8778.5,-242.5 8596.5,-242.5"/>
<text text-anchor="middle" x="8687.5" y="-256.8" font-family="Times,serif" font-size="14.00">llvm.memcpy.p0.p0.i64</text>
</g>
<!-- Node0x5a7ddaab9910&#45;&gt;Node0x5a7ddaa9d9e0 -->
<g id="edge9" class="edge">
<title>Node0x5a7ddaab9910&#45;&gt;Node0x5a7ddaa9d9e0</title>
<path fill="none" stroke="black" d="M9177.96,-401.8C9058.1,-396.1 8866.91,-382.47 8802.5,-352 8781.19,-341.92 8782.69,-330 8764.5,-315 8751.42,-304.21 8736.23,-293.34 8722.82,-284.25"/>
<polygon fill="black" stroke="black" points="8724.56,-281.2 8714.3,-278.54 8720.66,-287.02 8724.56,-281.2"/>
</g>
<!-- Node0x5a7ddab18e90 -->
<g id="node11" class="node">
<title>Node0x5a7ddab18e90</title>
<polygon fill="none" stroke="black" points="7598.5,-315.5 7598.5,-351.5 7988.5,-351.5 7988.5,-315.5 7598.5,-315.5"/>
<text text-anchor="middle" x="7793.5" y="-329.8" font-family="Times,serif" font-size="14.00">_ZNSt7__cxx114listI11IccTagEntrySaIS1_EE3endEv</text>
</g>
<!-- Node0x5a7ddaab9910&#45;&gt;Node0x5a7ddab18e90 -->
<g id="edge10" class="edge">
<title>Node0x5a7ddaab9910&#45;&gt;Node0x5a7ddab18e90</title>
<path fill="none" stroke="black" d="M9177.63,-402.77C8962.18,-396.66 8444.21,-380.21 7998.83,-352.07"/>
<polygon fill="black" stroke="black" points="7998.86,-348.56 7988.65,-351.42 7998.41,-355.55 7998.86,-348.56"/>
</g>
<!-- Node0x5a7ddab1a920 -->
<g id="node12" class="node">
<title>Node0x5a7ddab1a920</title>
<polygon fill="none" stroke="black" points="8811.5,-315.5 8811.5,-351.5 9173.5,-351.5 9173.5,-315.5 8811.5,-315.5"/>
<text text-anchor="middle" x="8992.5" y="-329.8" font-family="Times,serif" font-size="14.00">_ZStneRKSt14_List_iteratorI11IccTagEntryES3_</text>
</g>
<!-- Node0x5a7ddaab9910&#45;&gt;Node0x5a7ddab1a920 -->
<g id="edge11" class="edge">
<title>Node0x5a7ddaab9910&#45;&gt;Node0x5a7ddab1a920</title>
<path fill="none" stroke="black" d="M9210.76,-388.49C9168.82,-378.12 9115.07,-364.82 9071.4,-354.02"/>
<polygon fill="black" stroke="black" points="9072.23,-350.62 9061.68,-351.61 9070.54,-357.41 9072.23,-350.62"/>
</g>
<!-- Node0x5a7ddab1bda0 -->
<g id="node13" class="node">
<title>Node0x5a7ddab1bda0</title>
<polygon fill="none" stroke="black" points="5681.5,-315.5 5681.5,-351.5 6019.5,-351.5 6019.5,-315.5 5681.5,-315.5"/>
<text text-anchor="middle" x="5850.5" y="-329.8" font-family="Times,serif" font-size="14.00">_ZNKSt14_List_iteratorI11IccTagEntryEptEv</text>
</g>
<!-- Node0x5a7ddaab9910&#45;&gt;Node0x5a7ddab1bda0 -->
<g id="edge12" class="edge">
<title>Node0x5a7ddaab9910&#45;&gt;Node0x5a7ddab1bda0</title>
<path fill="none" stroke="black" d="M9177.92,-404.95C8701.47,-402.18 6684.22,-388.51 6029.6,-352.03"/>
<polygon fill="black" stroke="black" points="6029.77,-348.53 6019.59,-351.46 6029.38,-355.52 6029.77,-348.53"/>
</g>
<!-- Node0x5a7ddab1f380 -->
<g id="node14" class="node">
<title>Node0x5a7ddab1f380</title>
<polygon fill="none" stroke="black" points="9191.5,-315.5 9191.5,-351.5 9367.5,-351.5 9367.5,-315.5 9191.5,-315.5"/>
<text text-anchor="middle" x="9279.5" y="-329.8" font-family="Times,serif" font-size="14.00">_ZN9CIccMemIOD1Ev</text>
</g>
<!-- Node0x5a7ddaab9910&#45;&gt;Node0x5a7ddab1f380 -->
<g id="edge13" class="edge">
<title>Node0x5a7ddaab9910&#45;&gt;Node0x5a7ddab1f380</title>
<path fill="none" stroke="black" d="M9279.5,-388.31C9279.5,-380.29 9279.5,-370.55 9279.5,-361.57"/>
<polygon fill="black" stroke="black" points="9283,-361.53 9279.5,-351.53 9276,-361.53 9283,-361.53"/>
</g>
<!-- Node0x5a7ddab1fd80 -->
<g id="node15" class="node">
<title>Node0x5a7ddab1fd80</title>
<polygon fill="none" stroke="black" points="9385.5,-315.5 9385.5,-351.5 9453.5,-351.5 9453.5,-315.5 9385.5,-315.5"/>
<text text-anchor="middle" x="9419.5" y="-329.8" font-family="Times,serif" font-size="14.00">_ZdaPv</text>
</g>
<!-- Node0x5a7ddaab9910&#45;&gt;Node0x5a7ddab1fd80 -->
<g id="edge14" class="edge">
<title>Node0x5a7ddaab9910&#45;&gt;Node0x5a7ddab1fd80</title>
<path fill="none" stroke="black" d="M9313.03,-388.49C9332.11,-378.82 9356.21,-366.6 9376.65,-356.23"/>
<polygon fill="black" stroke="black" points="9378.42,-359.26 9385.75,-351.61 9375.25,-353.02 9378.42,-359.26"/>
</g>
<!-- Node0x5a7ddab1f100 -->
<g id="node16" class="node">
<title>Node0x5a7ddab1f100</title>
<polygon fill="none" stroke="black" points="9472,-315.5 9472,-351.5 9705,-351.5 9705,-315.5 9472,-315.5"/>
<text text-anchor="middle" x="9588.5" y="-329.8" font-family="Times,serif" font-size="14.00">_ZN9CIccMemIO5Read8EPvm</text>
</g>
<!-- Node0x5a7ddaab9910&#45;&gt;Node0x5a7ddab1f100 -->
<g id="edge15" class="edge">
<title>Node0x5a7ddaab9910&#45;&gt;Node0x5a7ddab1f100</title>
<path fill="none" stroke="black" d="M9353.51,-388.49C9398.94,-378.06 9457.24,-364.66 9504.4,-353.82"/>
<polygon fill="black" stroke="black" points="9505.33,-357.2 9514.29,-351.55 9503.76,-350.38 9505.33,-357.2"/>
</g>
<!-- Node0x5a7ddab1f9c0 -->
<g id="node17" class="node">
<title>Node0x5a7ddab1f9c0</title>
<polygon fill="none" stroke="black" points="9723.5,-315.5 9723.5,-351.5 9905.5,-351.5 9905.5,-315.5 9723.5,-315.5"/>
<text text-anchor="middle" x="9814.5" y="-329.8" font-family="Times,serif" font-size="14.00">_ZnamRKSt9nothrow_t</text>
</g>
<!-- Node0x5a7ddaab9910&#45;&gt;Node0x5a7ddab1f9c0 -->
<g id="edge16" class="edge">
<title>Node0x5a7ddaab9910&#45;&gt;Node0x5a7ddab1f9c0</title>
<path fill="none" stroke="black" d="M9381.1,-389.29C9384.27,-388.85 9387.41,-388.42 9390.5,-388 9530.87,-369.15 9569.36,-372.34 9713.17,-352.14"/>
<polygon fill="black" stroke="black" points="9713.84,-355.58 9723.25,-350.71 9712.86,-348.65 9713.84,-355.58"/>
</g>
<!-- Node0x5a7ddab1eac0 -->
<g id="node18" class="node">
<title>Node0x5a7ddab1eac0</title>
<polygon fill="none" stroke="black" points="9924,-315.5 9924,-351.5 10197,-351.5 10197,-315.5 9924,-315.5"/>
<text text-anchor="middle" x="10060.5" y="-329.8" font-family="Times,serif" font-size="14.00">_ZN9CIccMemIO4SeekEl9icSeekVal</text>
</g>
<!-- Node0x5a7ddaab9910&#45;&gt;Node0x5a7ddab1eac0 -->
<g id="edge17" class="edge">
<title>Node0x5a7ddaab9910&#45;&gt;Node0x5a7ddab1eac0</title>
<path fill="none" stroke="black" d="M9381.08,-389.12C9384.25,-388.73 9387.4,-388.35 9390.5,-388 9619.18,-362.17 9680.37,-373.56 9913.59,-352.05"/>
<polygon fill="black" stroke="black" points="9914.11,-355.52 9923.74,-351.11 9913.46,-348.55 9914.11,-355.52"/>
</g>
<!-- Node0x5a7ddab1d4a0 -->
<g id="node19" class="node">
<title>Node0x5a7ddab1d4a0</title>
<polygon fill="none" stroke="black" points="10215,-315.5 10215,-351.5 10456,-351.5 10456,-315.5 10215,-315.5"/>
<text text-anchor="middle" x="10335.5" y="-329.8" font-family="Times,serif" font-size="14.00">_ZN9CIccMemIO9GetLengthEv</text>
</g>
<!-- Node0x5a7ddaab9910&#45;&gt;Node0x5a7ddab1d4a0 -->
<g id="edge18" class="edge">
<title>Node0x5a7ddaab9910&#45;&gt;Node0x5a7ddab1d4a0</title>
<path fill="none" stroke="black" d="M9381.06,-389.02C9384.24,-388.65 9387.39,-388.31 9390.5,-388 9748.35,-352.01 9843.18,-383.83 10204.47,-352.14"/>
<polygon fill="black" stroke="black" points="10205.03,-355.6 10214.69,-351.23 10204.42,-348.63 10205.03,-355.6"/>
</g>
<!-- Node0x5a7ddab1dae0 -->
<g id="node20" class="node">
<title>Node0x5a7ddab1dae0</title>
<polygon fill="none" stroke="black" points="10474,-315.5 10474,-351.5 10921,-351.5 10921,-315.5 10474,-315.5"/>
<text text-anchor="middle" x="10697.5" y="-329.8" font-family="Times,serif" font-size="14.00">_ZN11CIccProfile5WriteEP6CIccIO21icProfileIDSaveMethod</text>
</g>
<!-- Node0x5a7ddaab9910&#45;&gt;Node0x5a7ddab1dae0 -->
<g id="edge19" class="edge">
<title>Node0x5a7ddaab9910&#45;&gt;Node0x5a7ddab1dae0</title>
<path fill="none" stroke="black" d="M9381.06,-388.98C9384.24,-388.62 9387.39,-388.3 9390.5,-388 9863.02,-343.01 9986.42,-377.49 10464.06,-352.06"/>
<polygon fill="black" stroke="black" points="10464.53,-355.54 10474.33,-351.51 10464.16,-348.55 10464.53,-355.54"/>
</g>
<!-- Node0x5a7ddab1e120 -->
<g id="node21" class="node">
<title>Node0x5a7ddab1e120</title>
<polygon fill="none" stroke="black" points="10939.5,-315.5 10939.5,-351.5 11115.5,-351.5 11115.5,-315.5 10939.5,-315.5"/>
<text text-anchor="middle" x="11027.5" y="-329.8" font-family="Times,serif" font-size="14.00">_ZN9CIccMemIOC1Ev</text>
</g>
<!-- Node0x5a7ddaab9910&#45;&gt;Node0x5a7ddab1e120 -->
<g id="edge20" class="edge">
<title>Node0x5a7ddaab9910&#45;&gt;Node0x5a7ddab1e120</title>
<path fill="none" stroke="black" d="M9381.06,-388.94C9384.24,-388.59 9387.39,-388.28 9390.5,-388 10069.04,-326.85 10247.61,-420.07 10929.22,-352.03"/>
<polygon fill="black" stroke="black" points="10929.7,-355.5 10939.29,-351.01 10928.99,-348.53 10929.7,-355.5"/>
</g>
<!-- Node0x5a7ddab1d220 -->
<g id="node22" class="node">
<title>Node0x5a7ddab1d220</title>
<polygon fill="none" stroke="black" points="11134,-315.5 11134,-351.5 11661,-351.5 11661,-315.5 11134,-315.5"/>
<text text-anchor="middle" x="11397.5" y="-329.8" font-family="Times,serif" font-size="14.00">_ZNKSt7__cxx1112basic_stringIcSt11char_traitsIcESaIcEE4findEPKcm</text>
</g>
<!-- Node0x5a7ddaab9910&#45;&gt;Node0x5a7ddab1d220 -->
<g id="edge21" class="edge">
<title>Node0x5a7ddaab9910&#45;&gt;Node0x5a7ddab1d220</title>
<path fill="none" stroke="black" d="M9381.06,-388.92C9384.24,-388.59 9387.39,-388.28 9390.5,-388 10158.31,-319.82 10354.36,-384.66 11124.5,-352 11124.84,-351.99 11125.19,-351.97 11125.53,-351.96"/>
<polygon fill="black" stroke="black" points="11125.77,-355.45 11135.61,-351.51 11125.47,-348.46 11125.77,-355.45"/>
</g>
<!-- Node0x5a7ddab1caa0 -->
<g id="node23" class="node">
<title>Node0x5a7ddab1caa0</title>
<polygon fill="none" stroke="black" points="11679,-315.5 11679,-351.5 12020,-351.5 12020,-315.5 11679,-315.5"/>
<text text-anchor="middle" x="11849.5" y="-329.8" font-family="Times,serif" font-size="14.00">_ZNK11CIccProfile19GetParentColorSpaceEv</text>
</g>
<!-- Node0x5a7ddaab9910&#45;&gt;Node0x5a7ddab1caa0 -->
<g id="edge22" class="edge">
<title>Node0x5a7ddaab9910&#45;&gt;Node0x5a7ddab1caa0</title>
<path fill="none" stroke="black" d="M9381.05,-388.9C9384.24,-388.57 9387.39,-388.27 9390.5,-388 10396.88,-301.16 10656.95,-408.64 11668.92,-352.06"/>
<polygon fill="black" stroke="black" points="11669.2,-355.55 11678.98,-351.49 11668.8,-348.56 11669.2,-355.55"/>
</g>
<!-- Node0x5a7ddab1cd20 -->
<g id="node24" class="node">
<title>Node0x5a7ddab1cd20</title>
<polygon fill="none" stroke="black" points="12038.5,-315.5 12038.5,-351.5 12402.5,-351.5 12402.5,-315.5 12038.5,-315.5"/>
<text text-anchor="middle" x="12220.5" y="-329.8" font-family="Times,serif" font-size="14.00">_ZNK11CIccProfile21GetParentSpaceSamplesEv</text>
</g>
<!-- Node0x5a7ddaab9910&#45;&gt;Node0x5a7ddab1cd20 -->
<g id="edge23" class="edge">
<title>Node0x5a7ddaab9910&#45;&gt;Node0x5a7ddab1cd20</title>
<path fill="none" stroke="black" d="M9381.05,-388.9C9384.23,-388.57 9387.39,-388.27 9390.5,-388 9971.6,-338.48 11427.34,-382.28 12028.2,-352.03"/>
<polygon fill="black" stroke="black" points="12028.49,-355.52 12038.3,-351.51 12028.13,-348.53 12028.49,-355.52"/>
</g>
<!-- Node0x5a7ddab1cfa0 -->
<g id="node25" class="node">
<title>Node0x5a7ddab1cfa0</title>
<polygon fill="none" stroke="black" points="12421,-315.5 12421,-351.5 12718,-351.5 12718,-315.5 12421,-315.5"/>
<text text-anchor="middle" x="12569.5" y="-329.8" font-family="Times,serif" font-size="14.00">_ZNK11CIccProfile13AreTagsUniqueEv</text>
</g>
<!-- Node0x5a7ddaab9910&#45;&gt;Node0x5a7ddab1cfa0 -->
<g id="edge24" class="edge">
<title>Node0x5a7ddaab9910&#45;&gt;Node0x5a7ddab1cfa0</title>
<path fill="none" stroke="black" d="M9381.05,-388.89C9384.23,-388.56 9387.39,-388.26 9390.5,-388 10056.24,-331.85 11724.97,-392.41 12410.65,-352"/>
<polygon fill="black" stroke="black" points="12410.9,-355.49 12420.68,-351.4 12410.48,-348.5 12410.9,-355.49"/>
</g>
<!-- Node0x5a7ddab1c820 -->
<g id="node26" class="node">
<title>Node0x5a7ddab1c820</title>
<polygon fill="none" stroke="black" points="12736,-315.5 12736,-351.5 13053,-351.5 13053,-315.5 12736,-315.5"/>
<text text-anchor="middle" x="12894.5" y="-329.8" font-family="Times,serif" font-size="14.00">_ZNK11CIccProfile15GetSpaceSamplesEv</text>
</g>
<!-- Node0x5a7ddaab9910&#45;&gt;Node0x5a7ddab1c820 -->
<g id="edge25" class="edge">
<title>Node0x5a7ddaab9910&#45;&gt;Node0x5a7ddab1c820</title>
<path fill="none" stroke="black" d="M9381.05,-388.88C9384.23,-388.56 9387.39,-388.26 9390.5,-388 10126.17,-326.37 11970.37,-394.07 12725.65,-352.06"/>
<polygon fill="black" stroke="black" points="12726.08,-355.55 12735.86,-351.49 12725.68,-348.56 12726.08,-355.55"/>
</g>
<!-- Node0x5a7ddab1b290 -->
<g id="node27" class="node">
<title>Node0x5a7ddab1b290</title>
<polygon fill="none" stroke="black" points="13071.5,-315.5 13071.5,-351.5 13293.5,-351.5 13293.5,-315.5 13071.5,-315.5"/>
<text text-anchor="middle" x="13182.5" y="-329.8" font-family="Times,serif" font-size="14.00">_ZN11CIccProfile7FindTagEj</text>
</g>
<!-- Node0x5a7ddaab9910&#45;&gt;Node0x5a7ddab1b290 -->
<g id="edge26" class="edge">
<title>Node0x5a7ddaab9910&#45;&gt;Node0x5a7ddab1b290</title>
<path fill="none" stroke="black" d="M9381.05,-388.88C9384.23,-388.55 9387.39,-388.26 9390.5,-388 10200.45,-320.55 12232.44,-414.26 13061.42,-352"/>
<polygon fill="black" stroke="black" points="13061.71,-355.49 13071.42,-351.24 13061.18,-348.51 13061.71,-355.49"/>
</g>
<!-- Node0x5a7ddab1a510 -->
<g id="node28" class="node">
<title>Node0x5a7ddab1a510</title>
<polygon fill="none" stroke="black" points="8429,-315.5 8429,-351.5 8756,-351.5 8756,-315.5 8429,-315.5"/>
<text text-anchor="middle" x="8592.5" y="-329.8" font-family="Times,serif" font-size="14.00">_ZNSt14_List_iteratorI11IccTagEntryEppEi</text>
</g>
<!-- Node0x5a7ddaab9910&#45;&gt;Node0x5a7ddab1a510 -->
<g id="edge27" class="edge">
<title>Node0x5a7ddaab9910&#45;&gt;Node0x5a7ddab1a510</title>
<path fill="none" stroke="black" d="M9177.76,-394.99C9069.46,-383.79 8896.13,-365.88 8766.15,-352.45"/>
<polygon fill="black" stroke="black" points="8766.39,-348.95 8756.09,-351.41 8765.67,-355.92 8766.39,-348.95"/>
</g>
<!-- Node0x5a7ddab1d3f0 -->
<g id="node29" class="node">
<title>Node0x5a7ddab1d3f0</title>
<polygon fill="none" stroke="black" points="4471.5,-242.5 4471.5,-278.5 5035.5,-278.5 5035.5,-242.5 4471.5,-242.5"/>
<text text-anchor="middle" x="4753.5" y="-256.8" font-family="Times,serif" font-size="14.00">_ZNSt7__cxx1112basic_stringIcSt11char_traitsIcESaIcEE13_M_local_dataEv</text>
</g>
<!-- Node0x5a7ddaafee90&#45;&gt;Node0x5a7ddab1d3f0 -->
<g id="edge28" class="edge">
<title>Node0x5a7ddaafee90&#45;&gt;Node0x5a7ddab1d3f0</title>
<path fill="none" stroke="black" d="M4753.5,-315.31C4753.5,-307.29 4753.5,-297.55 4753.5,-288.57"/>
<polygon fill="black" stroke="black" points="4757,-288.53 4753.5,-278.53 4750,-288.53 4757,-288.53"/>
</g>
<!-- Node0x5a7ddab2adc0 -->
<g id="node30" class="node">
<title>Node0x5a7ddab2adc0</title>
<polygon fill="none" stroke="black" points="3575.5,-242.5 3575.5,-278.5 4201.5,-278.5 4201.5,-242.5 3575.5,-242.5"/>
<text text-anchor="middle" x="3888.5" y="-256.8" font-family="Times,serif" font-size="14.00">_ZNSt7__cxx1112basic_stringIcSt11char_traitsIcESaIcEE12_Alloc_hiderC1EPcRKS3_</text>
</g>
<!-- Node0x5a7ddaafee90&#45;&gt;Node0x5a7ddab2adc0 -->
<g id="edge29" class="edge">
<title>Node0x5a7ddaafee90&#45;&gt;Node0x5a7ddab2adc0</title>
<path fill="none" stroke="black" d="M4546.31,-315.49C4413.32,-304.58 4240.89,-290.42 4105.93,-279.35"/>
<polygon fill="black" stroke="black" points="4106.12,-275.85 4095.87,-278.52 4105.55,-282.83 4106.12,-275.85"/>
</g>
<!-- Node0x5a7ddab20300 -->
<g id="node31" class="node">
<title>Node0x5a7ddab20300</title>
<polygon fill="none" stroke="black" points="4219.5,-242.5 4219.5,-278.5 4453.5,-278.5 4453.5,-242.5 4219.5,-242.5"/>
<text text-anchor="middle" x="4336.5" y="-256.8" font-family="Times,serif" font-size="14.00">_ZSt19__throw_logic_errorPKc</text>
</g>
<!-- Node0x5a7ddaafee90&#45;&gt;Node0x5a7ddab20300 -->
<g id="edge30" class="edge">
<title>Node0x5a7ddaafee90&#45;&gt;Node0x5a7ddab20300</title>
<path fill="none" stroke="black" d="M4653.62,-315.49C4591.29,-304.88 4511,-291.21 4446.81,-280.28"/>
<polygon fill="black" stroke="black" points="4447.1,-276.78 4436.65,-278.55 4445.92,-283.68 4447.1,-276.78"/>
</g>
<!-- Node0x5a7ddab20af0 -->
<g id="node32" class="node">
<title>Node0x5a7ddab20af0</title>
<polygon fill="none" stroke="black" points="5054,-242.5 5054,-278.5 5625,-278.5 5625,-242.5 5054,-242.5"/>
<text text-anchor="middle" x="5339.5" y="-256.8" font-family="Times,serif" font-size="14.00">_ZNSt7__cxx1112basic_stringIcSt11char_traitsIcESaIcEE12_Alloc_hiderD2Ev</text>
</g>
<!-- Node0x5a7ddaafee90&#45;&gt;Node0x5a7ddab20af0 -->
<g id="edge31" class="edge">
<title>Node0x5a7ddaafee90&#45;&gt;Node0x5a7ddab20af0</title>
<path fill="none" stroke="black" d="M4893.86,-315.49C4982.88,-304.71 5097.97,-290.76 5188.89,-279.75"/>
<polygon fill="black" stroke="black" points="5189.51,-283.2 5199.02,-278.52 5188.67,-276.25 5189.51,-283.2"/>
</g>
<!-- Node0x5a7ddab1e540 -->
<g id="node33" class="node">
<title>Node0x5a7ddab1e540</title>
<polygon fill="none" stroke="black" points="1165.5,-242.5 1165.5,-278.5 1437.5,-278.5 1437.5,-242.5 1165.5,-242.5"/>
<text text-anchor="middle" x="1301.5" y="-256.8" font-family="Times,serif" font-size="14.00">_ZNSt11char_traitsIcE6lengthEPKc</text>
</g>
<!-- Node0x5a7ddaafee90&#45;&gt;Node0x5a7ddab1e540 -->
<g id="edge32" class="edge">
<title>Node0x5a7ddaafee90&#45;&gt;Node0x5a7ddab1e540</title>
<path fill="none" stroke="black" d="M4468.98,-315.49C4464.79,-315.32 4460.63,-315.16 4456.5,-315 3859,-292.34 1986.46,-269.42 1447.79,-263.17"/>
<polygon fill="black" stroke="black" points="1447.67,-259.66 1437.63,-263.05 1447.59,-266.66 1447.67,-259.66"/>
</g>
<!-- Node0x5a7ddab320d0 -->
<g id="node34" class="node">
<title>Node0x5a7ddab320d0</title>
<polygon fill="none" stroke="black" points="2727,-242.5 2727,-278.5 3554,-278.5 3554,-242.5 2727,-242.5"/>
<text text-anchor="middle" x="3140.5" y="-256.8" font-family="Times,serif" font-size="14.00">_ZNSt7__cxx1112basic_stringIcSt11char_traitsIcESaIcEE12_M_constructIPKcEEvT_S8_St20forward_iterator_tag</text>
</g>
<!-- Node0x5a7ddaafee90&#45;&gt;Node0x5a7ddab320d0 -->
<g id="edge33" class="edge">
<title>Node0x5a7ddaafee90&#45;&gt;Node0x5a7ddab320d0</title>
<path fill="none" stroke="black" d="M4466.23,-315.49C4462.97,-315.32 4459.72,-315.16 4456.5,-315 4061.11,-295.36 3962.05,-295.12 3566.5,-279 3565.86,-278.97 3565.23,-278.95 3564.59,-278.92"/>
<polygon fill="black" stroke="black" points="3564.37,-275.41 3554.23,-278.5 3564.08,-282.4 3564.37,-275.41"/>
</g>
<!-- Node0x5a7ddab32470 -->
<g id="node36" class="node">
<title>Node0x5a7ddab32470</title>
<polygon fill="none" stroke="black" points="7807.5,-242.5 7807.5,-278.5 8375.5,-278.5 8375.5,-242.5 7807.5,-242.5"/>
<text text-anchor="middle" x="8091.5" y="-256.8" font-family="Times,serif" font-size="14.00">_ZNSt14_List_iteratorI11IccTagEntryEC2EPNSt8__detail15_List_node_baseE</text>
</g>
<!-- Node0x5a7ddaaa0930&#45;&gt;Node0x5a7ddab32470 -->
<g id="edge34" class="edge">
<title>Node0x5a7ddaaa0930&#45;&gt;Node0x5a7ddab32470</title>
<path fill="none" stroke="black" d="M8180.48,-315.49C8164.96,-306.08 8145.48,-294.26 8128.7,-284.07"/>
<polygon fill="black" stroke="black" points="8130.07,-280.81 8119.7,-278.61 8126.43,-286.79 8130.07,-280.81"/>
</g>
<!-- Node0x5a7ddab18e90&#45;&gt;Node0x5a7ddab32470 -->
<g id="edge35" class="edge">
<title>Node0x5a7ddab18e90&#45;&gt;Node0x5a7ddab32470</title>
<path fill="none" stroke="black" d="M7864.88,-315.49C7908.59,-305.08 7964.67,-291.72 8010.11,-280.89"/>
<polygon fill="black" stroke="black" points="8011.01,-284.27 8019.93,-278.55 8009.39,-277.47 8011.01,-284.27"/>
</g>
<!-- Node0x5a7ddab33940 -->
<g id="node37" class="node">
<title>Node0x5a7ddab33940</title>
<polygon fill="none" stroke="black" points="5865.5,-242.5 5865.5,-278.5 6237.5,-278.5 6237.5,-242.5 5865.5,-242.5"/>
<text text-anchor="middle" x="6051.5" y="-256.8" font-family="Times,serif" font-size="14.00">_ZNSt10_List_nodeI11IccTagEntryE9_M_valptrEv</text>
</g>
<!-- Node0x5a7ddab1bda0&#45;&gt;Node0x5a7ddab33940 -->
<g id="edge36" class="edge">
<title>Node0x5a7ddab1bda0&#45;&gt;Node0x5a7ddab33940</title>
<path fill="none" stroke="black" d="M5898.64,-315.49C5927.15,-305.42 5963.45,-292.6 5993.52,-281.98"/>
<polygon fill="black" stroke="black" points="5994.79,-285.24 6003.05,-278.61 5992.46,-278.64 5994.79,-285.24"/>
</g>
<!-- Node0x5a7ddab33040 -->
<g id="node38" class="node">
<title>Node0x5a7ddab33040</title>
<polygon fill="none" stroke="black" points="4924,-96.5 4924,-132.5 5101,-132.5 5101,-96.5 4924,-96.5"/>
<text text-anchor="middle" x="5012.5" y="-110.8" font-family="Times,serif" font-size="14.00">__clang_call_terminate</text>
</g>
<!-- Node0x5a7ddab1bda0&#45;&gt;Node0x5a7ddab33040 -->
<g id="edge37" class="edge">
<title>Node0x5a7ddab1bda0&#45;&gt;Node0x5a7ddab33040</title>
<path fill="none" stroke="black" d="M5850.17,-315.39C5848.49,-281.18 5839.4,-204.6 5792.5,-169 5739.43,-128.72 5308.97,-118.76 5111.21,-116.3"/>
<polygon fill="black" stroke="black" points="5111.15,-112.8 5101.11,-116.18 5111.06,-119.8 5111.15,-112.8"/>
</g>
<!-- Node0x5a7ddab1a510&#45;&gt;Node0x5a7ddaa9d9e0 -->
<g id="edge38" class="edge">
<title>Node0x5a7ddab1a510&#45;&gt;Node0x5a7ddaa9d9e0</title>
<path fill="none" stroke="black" d="M8615.5,-315.31C8627.87,-306.07 8643.29,-294.54 8656.68,-284.53"/>
<polygon fill="black" stroke="black" points="8658.8,-287.32 8664.71,-278.53 8654.61,-281.71 8658.8,-287.32"/>
</g>
<!-- Node0x5a7ddab20af0&#45;&gt;Node0x5a7ddaa9d6e0 -->
<g id="edge48" class="edge">
<title>Node0x5a7ddab20af0&#45;&gt;Node0x5a7ddaa9d6e0</title>
<path fill="none" stroke="black" d="M5415.67,-242.49C5462.51,-232.03 5522.66,-218.61 5571.26,-207.76"/>
<polygon fill="black" stroke="black" points="5572.13,-211.15 5581.13,-205.55 5570.6,-204.32 5572.13,-211.15"/>
</g>
<!-- Node0x5a7ddab32b80 -->
<g id="node39" class="node">
<title>Node0x5a7ddab32b80</title>
<polygon fill="none" stroke="black" points="0,-169.5 0,-205.5 59,-205.5 59,-169.5 0,-169.5"/>
<text text-anchor="middle" x="29.5" y="-183.8" font-family="Times,serif" font-size="14.00">strlen</text>
</g>
<!-- Node0x5a7ddab1e540&#45;&gt;Node0x5a7ddab32b80 -->
<g id="edge39" class="edge">
<title>Node0x5a7ddab1e540&#45;&gt;Node0x5a7ddab32b80</title>
<path fill="none" stroke="black" d="M1165.31,-260.04C893.57,-260.07 291.79,-254.66 69.32,-205.53"/>
<polygon fill="black" stroke="black" points="69.87,-202.07 59.34,-203.24 68.3,-208.89 69.87,-202.07"/>
</g>
<!-- Node0x5a7ddab32620 -->
<g id="node40" class="node">
<title>Node0x5a7ddab32620</title>
<polygon fill="none" stroke="black" points="2861.5,-169.5 2861.5,-205.5 3419.5,-205.5 3419.5,-169.5 2861.5,-169.5"/>
<text text-anchor="middle" x="3140.5" y="-183.8" font-family="Times,serif" font-size="14.00">_ZNSt7__cxx1112basic_stringIcSt11char_traitsIcESaIcEE9_M_createERmm</text>
</g>
<!-- Node0x5a7ddab320d0&#45;&gt;Node0x5a7ddab32620 -->
<g id="edge40" class="edge">
<title>Node0x5a7ddab320d0&#45;&gt;Node0x5a7ddab32620</title>
<path fill="none" stroke="black" d="M3140.5,-242.31C3140.5,-234.29 3140.5,-224.55 3140.5,-215.57"/>
<polygon fill="black" stroke="black" points="3144,-215.53 3140.5,-205.53 3137,-215.53 3144,-215.53"/>
</g>
<!-- Node0x5a7ddab39d50 -->
<g id="node41" class="node">
<title>Node0x5a7ddab39d50</title>
<polygon fill="none" stroke="black" points="4413.5,-169.5 4413.5,-205.5 4937.5,-205.5 4937.5,-169.5 4413.5,-169.5"/>
<text text-anchor="middle" x="4675.5" y="-183.8" font-family="Times,serif" font-size="14.00">_ZNSt7__cxx1112basic_stringIcSt11char_traitsIcESaIcEE7_M_dataEPc</text>
</g>
<!-- Node0x5a7ddab320d0&#45;&gt;Node0x5a7ddab39d50 -->
<g id="edge41" class="edge">
<title>Node0x5a7ddab320d0&#45;&gt;Node0x5a7ddab39d50</title>
<path fill="none" stroke="black" d="M3553.09,-242.49C3878.22,-229.02 4293.21,-211.63 4403.72,-206.02"/>
<polygon fill="black" stroke="black" points="4403.93,-209.52 4413.74,-205.5 4403.57,-202.52 4403.93,-209.52"/>
</g>
<!-- Node0x5a7ddab39c10 -->
<g id="node42" class="node">
<title>Node0x5a7ddab39c10</title>
<polygon fill="none" stroke="black" points="4956,-169.5 4956,-205.5 5513,-205.5 5513,-169.5 4956,-169.5"/>
<text text-anchor="middle" x="5234.5" y="-183.8" font-family="Times,serif" font-size="14.00">_ZNSt7__cxx1112basic_stringIcSt11char_traitsIcESaIcEE11_M_capacityEm</text>
</g>
<!-- Node0x5a7ddab320d0&#45;&gt;Node0x5a7ddab39c10 -->
<g id="edge42" class="edge">
<title>Node0x5a7ddab320d0&#45;&gt;Node0x5a7ddab39c10</title>
<path fill="none" stroke="black" d="M3551.99,-242.49C3556.85,-242.33 3561.69,-242.16 3566.5,-242 4179.7,-221.41 4333.54,-232.61 4946.5,-206 4946.73,-205.99 4946.95,-205.98 4947.18,-205.97"/>
<polygon fill="black" stroke="black" points="4947.62,-209.45 4957.46,-205.51 4947.31,-202.46 4947.62,-209.45"/>
</g>
<!-- Node0x5a7ddab390d0 -->
<g id="node43" class="node">
<title>Node0x5a7ddab390d0</title>
<polygon fill="none" stroke="black" points="77.5,-169.5 77.5,-205.5 1061.5,-205.5 1061.5,-169.5 77.5,-169.5"/>
<text text-anchor="middle" x="569.5" y="-183.8" font-family="Times,serif" font-size="14.00">_ZZNSt7__cxx1112basic_stringIcSt11char_traitsIcESaIcEE12_M_constructIPKcEEvT_S8_St20forward_iterator_tagEN6_GuardC2EPS4_</text>
</g>
<!-- Node0x5a7ddab320d0&#45;&gt;Node0x5a7ddab390d0 -->
<g id="edge43" class="edge">
<title>Node0x5a7ddab320d0&#45;&gt;Node0x5a7ddab390d0</title>
<path fill="none" stroke="black" d="M2726.62,-249.91C2308.73,-239.96 1644.75,-223.45 1070.5,-206 1068.5,-205.94 1066.5,-205.88 1064.49,-205.82"/>
<polygon fill="black" stroke="black" points="1064.53,-202.32 1054.42,-205.51 1064.31,-209.31 1064.53,-202.32"/>
</g>
<!-- Node0x5a7ddab38e50 -->
<g id="node44" class="node">
<title>Node0x5a7ddab38e50</title>
<polygon fill="none" stroke="black" points="1079.5,-169.5 1079.5,-205.5 1605.5,-205.5 1605.5,-169.5 1079.5,-169.5"/>
<text text-anchor="middle" x="1342.5" y="-183.8" font-family="Times,serif" font-size="14.00">_ZNKSt7__cxx1112basic_stringIcSt11char_traitsIcESaIcEE7_M_dataEv</text>
</g>
<!-- Node0x5a7ddab320d0&#45;&gt;Node0x5a7ddab38e50 -->
<g id="edge44" class="edge">
<title>Node0x5a7ddab320d0&#45;&gt;Node0x5a7ddab38e50</title>
<path fill="none" stroke="black" d="M2726.66,-248.26C2422.32,-239.2 1998.33,-224.95 1615.06,-206.02"/>
<polygon fill="black" stroke="black" points="1615.03,-202.51 1604.87,-205.51 1614.68,-209.5 1615.03,-202.51"/>
</g>
<!-- Node0x5a7ddab3a390 -->
<g id="node45" class="node">
<title>Node0x5a7ddab3a390</title>
<polygon fill="none" stroke="black" points="1624,-169.5 1624,-205.5 2253,-205.5 2253,-169.5 1624,-169.5"/>
<text text-anchor="middle" x="1938.5" y="-183.8" font-family="Times,serif" font-size="14.00">_ZNSt7__cxx1112basic_stringIcSt11char_traitsIcESaIcEE13_S_copy_charsEPcPKcS7_</text>
</g>
<!-- Node0x5a7ddab320d0&#45;&gt;Node0x5a7ddab3a390 -->
<g id="edge45" class="edge">
<title>Node0x5a7ddab320d0&#45;&gt;Node0x5a7ddab3a390</title>
<path fill="none" stroke="black" d="M2852.59,-242.49C2666.4,-231.5 2424.59,-217.21 2236.45,-206.1"/>
<polygon fill="black" stroke="black" points="2236.59,-202.6 2226.4,-205.51 2236.18,-209.59 2236.59,-202.6"/>
</g>
<!-- Node0x5a7ddab411e0 -->
<g id="node46" class="node">
<title>Node0x5a7ddab411e0</title>
<polygon fill="none" stroke="black" points="2271.5,-169.5 2271.5,-205.5 2843.5,-205.5 2843.5,-169.5 2271.5,-169.5"/>
<text text-anchor="middle" x="2557.5" y="-183.8" font-family="Times,serif" font-size="14.00">_ZNSt7__cxx1112basic_stringIcSt11char_traitsIcESaIcEE13_M_set_lengthEm</text>
</g>
<!-- Node0x5a7ddab320d0&#45;&gt;Node0x5a7ddab411e0 -->
<g id="edge46" class="edge">
<title>Node0x5a7ddab320d0&#45;&gt;Node0x5a7ddab411e0</title>
<path fill="none" stroke="black" d="M3000.86,-242.49C2912.3,-231.71 2797.79,-217.76 2707.33,-206.75"/>
<polygon fill="black" stroke="black" points="2707.62,-203.26 2697.27,-205.52 2706.77,-210.2 2707.62,-203.26"/>
</g>
<!-- Node0x5a7ddab40a30 -->
<g id="node47" class="node">
<title>Node0x5a7ddab40a30</title>
<polygon fill="none" stroke="black" points="3437.5,-169.5 3437.5,-205.5 4395.5,-205.5 4395.5,-169.5 3437.5,-169.5"/>
<text text-anchor="middle" x="3916.5" y="-183.8" font-family="Times,serif" font-size="14.00">_ZZNSt7__cxx1112basic_stringIcSt11char_traitsIcESaIcEE12_M_constructIPKcEEvT_S8_St20forward_iterator_tagEN6_GuardD2Ev</text>
</g>
<!-- Node0x5a7ddab320d0&#45;&gt;Node0x5a7ddab40a30 -->
<g id="edge47" class="edge">
<title>Node0x5a7ddab320d0&#45;&gt;Node0x5a7ddab40a30</title>
<path fill="none" stroke="black" d="M3326.37,-242.49C3445.32,-231.61 3599.44,-217.51 3720.35,-206.45"/>
<polygon fill="black" stroke="black" points="3720.83,-209.92 3730.47,-205.52 3720.19,-202.95 3720.83,-209.92"/>
</g>
<!-- Node0x5a7ddab30eb0 -->
<g id="node35" class="node">
<title>Node0x5a7ddab30eb0</title>
<polygon fill="none" stroke="black" points="9399,-388.5 9399,-424.5 9566,-424.5 9566,-388.5 9399,-388.5"/>
<text text-anchor="middle" x="9482.5" y="-402.8" font-family="Times,serif" font-size="14.00">__gxx_personality_v0</text>
</g>
<!-- Node0x5a7ddab42e60 -->
<g id="node51" class="node">
<title>Node0x5a7ddab42e60</title>
<polygon fill="none" stroke="black" points="5840.5,-169.5 5840.5,-205.5 6312.5,-205.5 6312.5,-169.5 5840.5,-169.5"/>
<text text-anchor="middle" x="6076.5" y="-183.8" font-family="Times,serif" font-size="14.00">_ZN9__gnu_cxx16__aligned_membufI11IccTagEntryE6_M_ptrEv</text>
</g>
<!-- Node0x5a7ddab33940&#45;&gt;Node0x5a7ddab42e60 -->
<g id="edge53" class="edge">
<title>Node0x5a7ddab33940&#45;&gt;Node0x5a7ddab42e60</title>
<path fill="none" stroke="black" d="M6057.55,-242.31C6060.44,-234.12 6063.96,-224.12 6067.17,-214.98"/>
<polygon fill="black" stroke="black" points="6070.48,-216.12 6070.5,-205.53 6063.88,-213.8 6070.48,-216.12"/>
</g>
<!-- Node0x5a7ddab3a4d0 -->
<g id="node49" class="node">
<title>Node0x5a7ddab3a4d0</title>
<polygon fill="none" stroke="black" points="4859.5,-23.5 4859.5,-59.5 5005.5,-59.5 5005.5,-23.5 4859.5,-23.5"/>
<text text-anchor="middle" x="4932.5" y="-37.8" font-family="Times,serif" font-size="14.00">__cxa_begin_catch</text>
</g>
<!-- Node0x5a7ddab33040&#45;&gt;Node0x5a7ddab3a4d0 -->
<g id="edge51" class="edge">
<title>Node0x5a7ddab33040&#45;&gt;Node0x5a7ddab3a4d0</title>
<path fill="none" stroke="black" d="M4993.13,-96.31C4983.01,-87.33 4970.46,-76.19 4959.41,-66.39"/>
<polygon fill="black" stroke="black" points="4961.49,-63.55 4951.69,-59.53 4956.84,-68.78 4961.49,-63.55"/>
</g>
<!-- Node0x5a7ddab42ee0 -->
<g id="node50" class="node">
<title>Node0x5a7ddab42ee0</title>
<polygon fill="none" stroke="black" points="5024,-23.5 5024,-59.5 5161,-59.5 5161,-23.5 5024,-23.5"/>
<text text-anchor="middle" x="5092.5" y="-37.8" font-family="Times,serif" font-size="14.00">_ZSt9terminatev</text>
</g>
<!-- Node0x5a7ddab33040&#45;&gt;Node0x5a7ddab42ee0 -->
<g id="edge52" class="edge">
<title>Node0x5a7ddab33040&#45;&gt;Node0x5a7ddab42ee0</title>
<path fill="none" stroke="black" d="M5031.87,-96.31C5041.99,-87.33 5054.54,-76.19 5065.59,-66.39"/>
<polygon fill="black" stroke="black" points="5068.16,-68.78 5073.31,-59.53 5063.51,-63.55 5068.16,-68.78"/>
</g>
<!-- Node0x5a7ddab40a30&#45;&gt;Node0x5a7ddab33040 -->
<g id="edge50" class="edge">
<title>Node0x5a7ddab40a30&#45;&gt;Node0x5a7ddab33040</title>
<path fill="none" stroke="black" d="M4179.02,-169.49C4415.2,-154.19 4749.53,-132.54 4913.72,-121.9"/>
<polygon fill="black" stroke="black" points="4914.05,-125.39 4923.8,-121.25 4913.6,-118.4 4914.05,-125.39"/>
</g>
<!-- Node0x5a7ddab38b50 -->
<g id="node48" class="node">
<title>Node0x5a7ddab38b50</title>
<polygon fill="none" stroke="black" points="3643,-96.5 3643,-132.5 4190,-132.5 4190,-96.5 3643,-96.5"/>
<text text-anchor="middle" x="3916.5" y="-110.8" font-family="Times,serif" font-size="14.00">_ZNSt7__cxx1112basic_stringIcSt11char_traitsIcESaIcEE10_M_disposeEv</text>
</g>
<!-- Node0x5a7ddab40a30&#45;&gt;Node0x5a7ddab38b50 -->
<g id="edge49" class="edge">
<title>Node0x5a7ddab40a30&#45;&gt;Node0x5a7ddab38b50</title>
<path fill="none" stroke="black" d="M3916.5,-169.31C3916.5,-161.29 3916.5,-151.55 3916.5,-142.57"/>
<polygon fill="black" stroke="black" points="3920,-142.53 3916.5,-132.53 3913,-142.53 3920,-142.53"/>
</g>
<!-- Node0x5a7ddab1f1c0 -->
<g id="node52" class="node">
<title>Node0x5a7ddab1f1c0</title>
<polygon fill="none" stroke="black" points="5835,-96.5 5835,-132.5 6318,-132.5 6318,-96.5 5835,-96.5"/>
<text text-anchor="middle" x="6076.5" y="-110.8" font-family="Times,serif" font-size="14.00">_ZN9__gnu_cxx16__aligned_membufI11IccTagEntryE7_M_addrEv</text>
</g>
<!-- Node0x5a7ddab42e60&#45;&gt;Node0x5a7ddab1f1c0 -->
<g id="edge54" class="edge">
<title>Node0x5a7ddab42e60&#45;&gt;Node0x5a7ddab1f1c0</title>
<path fill="none" stroke="black" d="M6076.5,-169.31C6076.5,-161.29 6076.5,-151.55 6076.5,-142.57"/>
<polygon fill="black" stroke="black" points="6080,-142.53 6076.5,-132.53 6073,-142.53 6080,-142.53"/>
</g>
</g>
</svg>
