<?xml version="1.0" encoding="UTF-8" standalone="no"?>
<!DOCTYPE svg PUBLIC "-//W3C//DTD SVG 1.1//EN"
 "http://www.w3.org/Graphics/SVG/1.1/DTD/svg11.dtd">
<!-- Generated by graphviz version 2.43.0 (0)
 -->
<!-- Title: Call graph: /home/h02332/po/research/call&#45;graph/cfl/icc_calculator_fuzzer.ll Pages: 1 -->
<svg width="8529pt" height="433pt"
 viewBox="0.00 0.00 8528.50 433.00" xmlns="http://www.w3.org/2000/svg" xmlns:xlink="http://www.w3.org/1999/xlink">
<g id="graph0" class="graph" transform="scale(1 1) rotate(0) translate(4 429)">
<title>Call graph: /home/h02332/po/research/call&#45;graph/cfl/icc_calculator_fuzzer.ll</title>
<polygon fill="white" stroke="transparent" points="-4,4 -4,-429 8524.5,-429 8524.5,4 -4,4"/>
<text text-anchor="middle" x="4260.25" y="-7.8" font-family="Times,serif" font-size="14.00">Call graph: /home/h02332/po/research/call&#45;graph/cfl/icc_calculator_fuzzer.ll</text>
<!-- Node0x58896ba6d890 -->
<g id="node1" class="node">
<title>Node0x58896ba6d890</title>
<polygon fill="none" stroke="black" points="2553,-388.5 2553,-424.5 2756,-424.5 2756,-388.5 2553,-388.5"/>
<text text-anchor="middle" x="2654.5" y="-402.8" font-family="Times,serif" font-size="14.00">LLVMFuzzerTestOneInput</text>
</g>
<!-- Node0x58896ba62670 -->
<g id="node2" class="node">
<title>Node0x58896ba62670</title>
<polygon fill="none" stroke="black" points="0,-315.5 0,-351.5 185,-351.5 185,-315.5 0,-315.5"/>
<text text-anchor="middle" x="92.5" y="-329.8" font-family="Times,serif" font-size="14.00">_ZnwmRKSt9nothrow_t</text>
</g>
<!-- Node0x58896ba6d890&#45;&gt;Node0x58896ba62670 -->
<g id="edge1" class="edge">
<title>Node0x58896ba6d890&#45;&gt;Node0x58896ba62670</title>
<path fill="none" stroke="black" d="M2552.71,-405.32C2152.2,-404.31 683.46,-397.56 195.45,-352.09"/>
<polygon fill="black" stroke="black" points="195.45,-348.57 185.16,-351.11 194.79,-355.54 195.45,-348.57"/>
</g>
<!-- Node0x58896ba667d0 -->
<g id="node3" class="node">
<title>Node0x58896ba667d0</title>
<polygon fill="none" stroke="black" points="202.5,-315.5 202.5,-351.5 378.5,-351.5 378.5,-315.5 202.5,-315.5"/>
<text text-anchor="middle" x="290.5" y="-329.8" font-family="Times,serif" font-size="14.00">_ZN9CIccMemIOC1Ev</text>
</g>
<!-- Node0x58896ba6d890&#45;&gt;Node0x58896ba667d0 -->
<g id="edge2" class="edge">
<title>Node0x58896ba6d890&#45;&gt;Node0x58896ba667d0</title>
<path fill="none" stroke="black" d="M2553,-405.2C2173.42,-403.73 836.83,-395.61 388.8,-352.01"/>
<polygon fill="black" stroke="black" points="389,-348.52 378.71,-351.01 388.31,-355.48 389,-348.52"/>
</g>
<!-- Node0x58896ba6d800 -->
<g id="node4" class="node">
<title>Node0x58896ba6d800</title>
<polygon fill="none" stroke="black" points="396.5,-315.5 396.5,-351.5 578.5,-351.5 578.5,-315.5 396.5,-315.5"/>
<text text-anchor="middle" x="487.5" y="-329.8" font-family="Times,serif" font-size="14.00">_ZdlPvRKSt9nothrow_t</text>
</g>
<!-- Node0x58896ba6d890&#45;&gt;Node0x58896ba6d800 -->
<g id="edge3" class="edge">
<title>Node0x58896ba6d890&#45;&gt;Node0x58896ba6d800</title>
<path fill="none" stroke="black" d="M2552.81,-404.85C2195.16,-402.27 995.42,-390.93 588.75,-352.02"/>
<polygon fill="black" stroke="black" points="589,-348.52 578.71,-351.03 588.32,-355.49 589,-348.52"/>
</g>
<!-- Node0x58896ba0fa00 -->
<g id="node5" class="node">
<title>Node0x58896ba0fa00</title>
<polygon fill="none" stroke="black" points="597,-315.5 597,-351.5 842,-351.5 842,-315.5 597,-315.5"/>
<text text-anchor="middle" x="719.5" y="-329.8" font-family="Times,serif" font-size="14.00">_ZN9CIccMemIO6AttachEPhmb</text>
</g>
<!-- Node0x58896ba6d890&#45;&gt;Node0x58896ba0fa00 -->
<g id="edge4" class="edge">
<title>Node0x58896ba6d890&#45;&gt;Node0x58896ba0fa00</title>
<path fill="none" stroke="black" d="M2552.64,-406.12C2279.1,-406.99 1505.61,-404.31 852.16,-351.99"/>
<polygon fill="black" stroke="black" points="852.31,-348.5 842.06,-351.18 851.75,-355.47 852.31,-348.5"/>
</g>
<!-- Node0x58896ba77540 -->
<g id="node6" class="node">
<title>Node0x58896ba77540</title>
<polygon fill="none" stroke="black" points="860.5,-315.5 860.5,-351.5 992.5,-351.5 992.5,-315.5 860.5,-315.5"/>
<text text-anchor="middle" x="926.5" y="-329.8" font-family="Times,serif" font-size="14.00">__cxa_end_catch</text>
</g>
<!-- Node0x58896ba6d890&#45;&gt;Node0x58896ba77540 -->
<g id="edge5" class="edge">
<title>Node0x58896ba6d890&#45;&gt;Node0x58896ba77540</title>
<path fill="none" stroke="black" d="M2552.91,-404.83C2244.95,-402.39 1323.78,-391.98 1002.86,-351.99"/>
<polygon fill="black" stroke="black" points="1002.99,-348.47 992.62,-350.67 1002.1,-355.42 1002.99,-348.47"/>
</g>
<!-- Node0x58896ba3baf0 -->
<g id="node7" class="node">
<title>Node0x58896ba3baf0</title>
<polygon fill="none" stroke="black" points="1011,-315.5 1011,-351.5 1190,-351.5 1190,-315.5 1011,-315.5"/>
<text text-anchor="middle" x="1100.5" y="-329.8" font-family="Times,serif" font-size="14.00">_ZN11CIccProfileC1Ev</text>
</g>
<!-- Node0x58896ba6d890&#45;&gt;Node0x58896ba3baf0 -->
<g id="edge6" class="edge">
<title>Node0x58896ba6d890&#45;&gt;Node0x58896ba3baf0</title>
<path fill="none" stroke="black" d="M2552.67,-406.28C2315.58,-407.09 1708.53,-403.48 1204.5,-352 1203.02,-351.85 1201.53,-351.69 1200.03,-351.52"/>
<polygon fill="black" stroke="black" points="1200.38,-348.04 1190.03,-350.32 1199.54,-354.99 1200.38,-348.04"/>
</g>
<!-- Node0x58896ba777c0 -->
<g id="node8" class="node">
<title>Node0x58896ba777c0</title>
<polygon fill="none" stroke="black" points="4670.5,-23.5 4670.5,-59.5 4816.5,-59.5 4816.5,-23.5 4670.5,-23.5"/>
<text text-anchor="middle" x="4743.5" y="-37.8" font-family="Times,serif" font-size="14.00">__cxa_begin_catch</text>
</g>
<!-- Node0x58896ba6d890&#45;&gt;Node0x58896ba777c0 -->
<g id="edge7" class="edge">
<title>Node0x58896ba6d890&#45;&gt;Node0x58896ba777c0</title>
<path fill="none" stroke="black" d="M2552.79,-405.06C2236.4,-403.25 1287.63,-394.29 1237.5,-352 1206.09,-325.5 1218.5,-302.6 1218.5,-261.5 1218.5,-261.5 1218.5,-261.5 1218.5,-186.5 1218.5,-97.49 4126.53,-51.38 4659.98,-43.67"/>
<polygon fill="black" stroke="black" points="4660.33,-47.16 4670.28,-43.52 4660.23,-40.16 4660.33,-47.16"/>
</g>
<!-- Node0x58896ba768c0 -->
<g id="node9" class="node">
<title>Node0x58896ba768c0</title>
<polygon fill="none" stroke="black" points="1247,-315.5 1247,-351.5 1714,-351.5 1714,-315.5 1247,-315.5"/>
<text text-anchor="middle" x="1480.5" y="-329.8" font-family="Times,serif" font-size="14.00">_ZNSt7__cxx1112basic_stringIcSt11char_traitsIcESaIcEED1Ev</text>
</g>
<!-- Node0x58896ba6d890&#45;&gt;Node0x58896ba768c0 -->
<g id="edge8" class="edge">
<title>Node0x58896ba6d890&#45;&gt;Node0x58896ba768c0</title>
<path fill="none" stroke="black" d="M2552.76,-400.16C2383.24,-391.14 2031.98,-371.99 1724.26,-352.11"/>
<polygon fill="black" stroke="black" points="1724.46,-348.62 1714.25,-351.46 1724.01,-355.6 1724.46,-348.62"/>
</g>
<!-- Node0x58896ba1dd30 -->
<g id="node10" class="node">
<title>Node0x58896ba1dd30</title>
<polygon fill="none" stroke="black" points="1732,-315.5 1732,-351.5 2013,-351.5 2013,-315.5 1732,-315.5"/>
<text text-anchor="middle" x="1872.5" y="-329.8" font-family="Times,serif" font-size="14.00">_ZN11CIccProfile6AttachEP6CIccIOb</text>
</g>
<!-- Node0x58896ba6d890&#45;&gt;Node0x58896ba1dd30 -->
<g id="edge9" class="edge">
<title>Node0x58896ba6d890&#45;&gt;Node0x58896ba1dd30</title>
<path fill="none" stroke="black" d="M2552.88,-397.69C2428.8,-387.95 2212.59,-370.34 2027.5,-352 2026.17,-351.87 2024.84,-351.74 2023.5,-351.6"/>
<polygon fill="black" stroke="black" points="2023.45,-348.08 2013.15,-350.55 2022.74,-355.04 2023.45,-348.08"/>
</g>
<!-- Node0x58896ba76640 -->
<g id="node11" class="node">
<title>Node0x58896ba76640</title>
<polygon fill="none" stroke="black" points="2325,-169.5 2325,-205.5 2578,-205.5 2578,-169.5 2325,-169.5"/>
<text text-anchor="middle" x="2451.5" y="-183.8" font-family="Times,serif" font-size="14.00">_ZNSt15__new_allocatorIcED2Ev</text>
</g>
<!-- Node0x58896ba6d890&#45;&gt;Node0x58896ba76640 -->
<g id="edge10" class="edge">
<title>Node0x58896ba6d890&#45;&gt;Node0x58896ba76640</title>
<path fill="none" stroke="black" d="M2552.84,-403.66C2391.83,-399.68 2092.98,-387.54 2060.5,-352 2027.52,-315.91 2028.36,-278.84 2060.5,-242 2093.32,-204.38 2215.5,-192.25 2314.66,-188.79"/>
<polygon fill="black" stroke="black" points="2314.91,-192.28 2324.79,-188.46 2314.68,-185.29 2314.91,-192.28"/>
</g>
<!-- Node0x58896ba77a40 -->
<g id="node12" class="node">
<title>Node0x58896ba77a40</title>
<polygon fill="none" stroke="black" points="2070,-315.5 2070,-351.5 2777,-351.5 2777,-315.5 2070,-315.5"/>
<text text-anchor="middle" x="2423.5" y="-329.8" font-family="Times,serif" font-size="14.00">_ZNK11CIccProfile8ValidateERNSt7__cxx1112basic_stringIcSt11char_traitsIcESaIcEEES5_PKS_</text>
</g>
<!-- Node0x58896ba6d890&#45;&gt;Node0x58896ba77a40 -->
<g id="edge11" class="edge">
<title>Node0x58896ba6d890&#45;&gt;Node0x58896ba77a40</title>
<path fill="none" stroke="black" d="M2599.17,-388.49C2565.98,-378.29 2523.6,-365.27 2488.79,-354.57"/>
<polygon fill="black" stroke="black" points="2489.77,-351.21 2479.18,-351.61 2487.71,-357.9 2489.77,-351.21"/>
</g>
<!-- Node0x58896ba0fb20 -->
<g id="node13" class="node">
<title>Node0x58896ba0fb20</title>
<polygon fill="none" stroke="black" points="2795.5,-315.5 2795.5,-351.5 2977.5,-351.5 2977.5,-315.5 2795.5,-315.5"/>
<text text-anchor="middle" x="2886.5" y="-329.8" font-family="Times,serif" font-size="14.00">llvm.memcpy.p0.p0.i64</text>
</g>
<!-- Node0x58896ba6d890&#45;&gt;Node0x58896ba0fb20 -->
<g id="edge12" class="edge">
<title>Node0x58896ba6d890&#45;&gt;Node0x58896ba0fb20</title>
<path fill="none" stroke="black" d="M2710.07,-388.49C2743.4,-378.29 2785.96,-365.27 2820.93,-354.57"/>
<polygon fill="black" stroke="black" points="2822.04,-357.89 2830.58,-351.61 2819.99,-351.19 2822.04,-357.89"/>
</g>
<!-- Node0x58896ba753d0 -->
<g id="node14" class="node">
<title>Node0x58896ba753d0</title>
<polygon fill="none" stroke="black" points="2069.5,-242.5 2069.5,-278.5 2465.5,-278.5 2465.5,-242.5 2069.5,-242.5"/>
<text text-anchor="middle" x="2267.5" y="-256.8" font-family="Times,serif" font-size="14.00">_ZNKSt16initializer_listI14icTagSignatureE5beginEv</text>
</g>
<!-- Node0x58896ba6d890&#45;&gt;Node0x58896ba753d0 -->
<g id="edge13" class="edge">
<title>Node0x58896ba6d890&#45;&gt;Node0x58896ba753d0</title>
<path fill="none" stroke="black" d="M2756.17,-389.31C2853.61,-373.77 2986.02,-352.56 2986.5,-352 2997.16,-339.48 2997.71,-327.03 2986.5,-315 2949.25,-275.04 2565.65,-282.64 2475.63,-278.87"/>
<polygon fill="black" stroke="black" points="2475.71,-275.37 2465.53,-278.3 2475.32,-282.36 2475.71,-275.37"/>
</g>
<!-- Node0x58896ba74a40 -->
<g id="node15" class="node">
<title>Node0x58896ba74a40</title>
<polygon fill="none" stroke="black" points="3033,-315.5 3033,-351.5 3416,-351.5 3416,-315.5 3033,-315.5"/>
<text text-anchor="middle" x="3224.5" y="-329.8" font-family="Times,serif" font-size="14.00">_ZNKSt16initializer_listI14icTagSignatureE3endEv</text>
</g>
<!-- Node0x58896ba6d890&#45;&gt;Node0x58896ba74a40 -->
<g id="edge14" class="edge">
<title>Node0x58896ba6d890&#45;&gt;Node0x58896ba74a40</title>
<path fill="none" stroke="black" d="M2756.1,-389.31C2759.27,-388.86 2762.41,-388.42 2765.5,-388 2860.98,-374.92 2967.91,-362.33 3054.53,-352.66"/>
<polygon fill="black" stroke="black" points="3055.17,-356.11 3064.72,-351.52 3054.39,-349.15 3055.17,-356.11"/>
</g>
<!-- Node0x58896ba738b0 -->
<g id="node16" class="node">
<title>Node0x58896ba738b0</title>
<polygon fill="none" stroke="black" points="3433.5,-315.5 3433.5,-351.5 3655.5,-351.5 3655.5,-315.5 3433.5,-315.5"/>
<text text-anchor="middle" x="3544.5" y="-329.8" font-family="Times,serif" font-size="14.00">_ZN11CIccProfile7FindTagEj</text>
</g>
<!-- Node0x58896ba6d890&#45;&gt;Node0x58896ba738b0 -->
<g id="edge15" class="edge">
<title>Node0x58896ba6d890&#45;&gt;Node0x58896ba738b0</title>
<path fill="none" stroke="black" d="M2756.07,-389.06C2759.25,-388.68 2762.4,-388.33 2765.5,-388 3054.36,-357.43 3131.48,-380.86 3423.34,-352.17"/>
<polygon fill="black" stroke="black" points="3423.77,-355.64 3433.37,-351.17 3423.08,-348.68 3423.77,-355.64"/>
</g>
<!-- Node0x58896ba74e40 -->
<g id="node17" class="node">
<title>Node0x58896ba74e40</title>
<polygon fill="none" stroke="black" points="3673.5,-315.5 3673.5,-351.5 4247.5,-351.5 4247.5,-315.5 3673.5,-315.5"/>
<text text-anchor="middle" x="3960.5" y="-329.8" font-family="Times,serif" font-size="14.00">_ZNSt7__cxx1112basic_stringIcSt11char_traitsIcESaIcEEC2IS3_EEPKcRKS3_</text>
</g>
<!-- Node0x58896ba6d890&#45;&gt;Node0x58896ba74e40 -->
<g id="edge16" class="edge">
<title>Node0x58896ba6d890&#45;&gt;Node0x58896ba74e40</title>
<path fill="none" stroke="black" d="M2756.06,-389C2759.24,-388.64 2762.39,-388.31 2765.5,-388 3160.15,-349.12 3263.41,-371.42 3664.07,-352.01"/>
<polygon fill="black" stroke="black" points="3664.38,-355.5 3674.2,-351.51 3664.04,-348.51 3664.38,-355.5"/>
</g>
<!-- Node0x58896ba763c0 -->
<g id="node18" class="node">
<title>Node0x58896ba763c0</title>
<polygon fill="none" stroke="black" points="4266,-315.5 4266,-351.5 4733,-351.5 4733,-315.5 4266,-315.5"/>
<text text-anchor="middle" x="4499.5" y="-329.8" font-family="Times,serif" font-size="14.00">_ZNSt7__cxx1112basic_stringIcSt11char_traitsIcESaIcEEC1Ev</text>
</g>
<!-- Node0x58896ba6d890&#45;&gt;Node0x58896ba763c0 -->
<g id="edge17" class="edge">
<title>Node0x58896ba6d890&#45;&gt;Node0x58896ba763c0</title>
<path fill="none" stroke="black" d="M2756.06,-388.94C2759.24,-388.6 2762.39,-388.28 2765.5,-388 3422.28,-328.56 3592.66,-383.25 4256.1,-352"/>
<polygon fill="black" stroke="black" points="4256.57,-355.48 4266.39,-351.51 4256.24,-348.49 4256.57,-355.48"/>
</g>
<!-- Node0x58896ba772c0 -->
<g id="node19" class="node">
<title>Node0x58896ba772c0</title>
<polygon fill="none" stroke="black" points="4751.5,-315.5 4751.5,-351.5 5035.5,-351.5 5035.5,-315.5 4751.5,-315.5"/>
<text text-anchor="middle" x="4893.5" y="-329.8" font-family="Times,serif" font-size="14.00">_ZNK7CIccMBB14OutputChannelsEv</text>
</g>
<!-- Node0x58896ba6d890&#45;&gt;Node0x58896ba772c0 -->
<g id="edge18" class="edge">
<title>Node0x58896ba6d890&#45;&gt;Node0x58896ba772c0</title>
<path fill="none" stroke="black" d="M2756.05,-388.91C2759.24,-388.58 2762.39,-388.27 2765.5,-388 3637.65,-311.68 3863.94,-409.91 4741.25,-352.04"/>
<polygon fill="black" stroke="black" points="4741.53,-355.53 4751.27,-351.37 4741.06,-348.54 4741.53,-355.53"/>
</g>
<!-- Node0x58896ba75f80 -->
<g id="node20" class="node">
<title>Node0x58896ba75f80</title>
<polygon fill="none" stroke="black" points="5054,-315.5 5054,-351.5 5559,-351.5 5559,-315.5 5054,-315.5"/>
<text text-anchor="middle" x="5306.5" y="-329.8" font-family="Times,serif" font-size="14.00">_ZNSt7__cxx1112basic_stringIcSt11char_traitsIcESaIcEEC1ERKS4_</text>
</g>
<!-- Node0x58896ba6d890&#45;&gt;Node0x58896ba75f80 -->
<g id="edge19" class="edge">
<title>Node0x58896ba6d890&#45;&gt;Node0x58896ba75f80</title>
<path fill="none" stroke="black" d="M2756.05,-388.9C2759.24,-388.57 2762.39,-388.27 2765.5,-388 3270.13,-344.45 4538.42,-372.88 5044.5,-352 5044.85,-351.99 5045.2,-351.97 5045.56,-351.96"/>
<polygon fill="black" stroke="black" points="5046.02,-355.44 5055.86,-351.51 5045.72,-348.45 5046.02,-355.44"/>
</g>
<!-- Node0x58896ba76b40 -->
<g id="node21" class="node">
<title>Node0x58896ba76b40</title>
<polygon fill="none" stroke="black" points="5577.5,-315.5 5577.5,-351.5 5849.5,-351.5 5849.5,-315.5 5577.5,-315.5"/>
<text text-anchor="middle" x="5713.5" y="-329.8" font-family="Times,serif" font-size="14.00">_ZNK7CIccMBB13InputChannelsEv</text>
</g>
<!-- Node0x58896ba6d890&#45;&gt;Node0x58896ba76b40 -->
<g id="edge20" class="edge">
<title>Node0x58896ba6d890&#45;&gt;Node0x58896ba76b40</title>
<path fill="none" stroke="black" d="M2756.05,-388.89C2759.23,-388.56 2762.39,-388.26 2765.5,-388 3382.88,-335.64 4930.2,-392.76 5567.08,-352.04"/>
<polygon fill="black" stroke="black" points="5567.56,-355.51 5577.31,-351.37 5567.11,-348.53 5567.56,-355.51"/>
</g>
<!-- Node0x58896ba76dc0 -->
<g id="node22" class="node">
<title>Node0x58896ba76dc0</title>
<polygon fill="none" stroke="black" points="5867.5,-315.5 5867.5,-351.5 5993.5,-351.5 5993.5,-315.5 5867.5,-315.5"/>
<text text-anchor="middle" x="5930.5" y="-329.8" font-family="Times,serif" font-size="14.00">__dynamic_cast</text>
</g>
<!-- Node0x58896ba6d890&#45;&gt;Node0x58896ba76dc0 -->
<g id="edge21" class="edge">
<title>Node0x58896ba6d890&#45;&gt;Node0x58896ba76dc0</title>
<path fill="none" stroke="black" d="M2756.05,-388.89C2759.23,-388.56 2762.39,-388.26 2765.5,-388 3447.2,-330.6 5160.08,-436.7 5857.5,-351.91"/>
<polygon fill="black" stroke="black" points="5857.94,-355.39 5867.43,-350.68 5857.08,-348.44 5857.94,-355.39"/>
</g>
<!-- Node0x58896ba77040 -->
<g id="node23" class="node">
<title>Node0x58896ba77040</title>
<polygon fill="none" stroke="black" points="6011.5,-315.5 6011.5,-351.5 6225.5,-351.5 6225.5,-315.5 6011.5,-315.5"/>
<text text-anchor="middle" x="6118.5" y="-329.8" font-family="Times,serif" font-size="14.00">_ZN9CIccMemIO5AllocEmb</text>
</g>
<!-- Node0x58896ba6d890&#45;&gt;Node0x58896ba77040 -->
<g id="edge22" class="edge">
<title>Node0x58896ba6d890&#45;&gt;Node0x58896ba77040</title>
<path fill="none" stroke="black" d="M2756.05,-388.88C2759.23,-388.56 2762.39,-388.26 2765.5,-388 3479.03,-328.1 5268.74,-409.04 6001.26,-352.01"/>
<polygon fill="black" stroke="black" points="6001.74,-355.48 6011.43,-351.2 6001.19,-348.51 6001.74,-355.48"/>
</g>
<!-- Node0x58896ba74a40&#45;&gt;Node0x58896ba753d0 -->
<g id="edge23" class="edge">
<title>Node0x58896ba74a40&#45;&gt;Node0x58896ba753d0</title>
<path fill="none" stroke="black" d="M3032.73,-316.01C3028.28,-315.67 3023.86,-315.33 3019.5,-315 2780.75,-296.93 2718.26,-297.21 2475.72,-279.08"/>
<polygon fill="black" stroke="black" points="2475.77,-275.58 2465.53,-278.32 2475.24,-282.56 2475.77,-275.58"/>
</g>
<!-- Node0x58896ba78580 -->
<g id="node25" class="node">
<title>Node0x58896ba78580</title>
<polygon fill="none" stroke="black" points="2483.5,-242.5 2483.5,-278.5 2867.5,-278.5 2867.5,-242.5 2483.5,-242.5"/>
<text text-anchor="middle" x="2675.5" y="-256.8" font-family="Times,serif" font-size="14.00">_ZNKSt16initializer_listI14icTagSignatureE4sizeEv</text>
</g>
<!-- Node0x58896ba74a40&#45;&gt;Node0x58896ba78580 -->
<g id="edge24" class="edge">
<title>Node0x58896ba74a40&#45;&gt;Node0x58896ba78580</title>
<path fill="none" stroke="black" d="M3093,-315.49C3009.85,-304.74 2902.41,-290.85 2817.35,-279.84"/>
<polygon fill="black" stroke="black" points="2817.72,-276.36 2807.35,-278.55 2816.82,-283.31 2817.72,-276.36"/>
</g>
<!-- Node0x58896ba78440 -->
<g id="node26" class="node">
<title>Node0x58896ba78440</title>
<polygon fill="none" stroke="black" points="2885.5,-242.5 2885.5,-278.5 3449.5,-278.5 3449.5,-242.5 2885.5,-242.5"/>
<text text-anchor="middle" x="3167.5" y="-256.8" font-family="Times,serif" font-size="14.00">_ZNSt7__cxx1112basic_stringIcSt11char_traitsIcESaIcEE13_M_local_dataEv</text>
</g>
<!-- Node0x58896ba74e40&#45;&gt;Node0x58896ba78440 -->
<g id="edge25" class="edge">
<title>Node0x58896ba74e40&#45;&gt;Node0x58896ba78440</title>
<path fill="none" stroke="black" d="M3770.56,-315.49C3648.88,-304.6 3491.19,-290.48 3367.58,-279.41"/>
<polygon fill="black" stroke="black" points="3367.88,-275.93 3357.61,-278.52 3367.26,-282.9 3367.88,-275.93"/>
</g>
<!-- Node0x58896ba78080 -->
<g id="node27" class="node">
<title>Node0x58896ba78080</title>
<polygon fill="none" stroke="black" points="3467.5,-242.5 3467.5,-278.5 4093.5,-278.5 4093.5,-242.5 3467.5,-242.5"/>
<text text-anchor="middle" x="3780.5" y="-256.8" font-family="Times,serif" font-size="14.00">_ZNSt7__cxx1112basic_stringIcSt11char_traitsIcESaIcEE12_Alloc_hiderC1EPcRKS3_</text>
</g>
<!-- Node0x58896ba74e40&#45;&gt;Node0x58896ba78080 -->
<g id="edge26" class="edge">
<title>Node0x58896ba74e40&#45;&gt;Node0x58896ba78080</title>
<path fill="none" stroke="black" d="M3917.39,-315.49C3892.19,-305.56 3860.19,-292.93 3833.47,-282.39"/>
<polygon fill="black" stroke="black" points="3834.47,-279.03 3823.89,-278.61 3831.9,-285.54 3834.47,-279.03"/>
</g>
<!-- Node0x58896ba77f40 -->
<g id="node28" class="node">
<title>Node0x58896ba77f40</title>
<polygon fill="none" stroke="black" points="4111.5,-242.5 4111.5,-278.5 4345.5,-278.5 4345.5,-242.5 4111.5,-242.5"/>
<text text-anchor="middle" x="4228.5" y="-256.8" font-family="Times,serif" font-size="14.00">_ZSt19__throw_logic_errorPKc</text>
</g>
<!-- Node0x58896ba74e40&#45;&gt;Node0x58896ba77f40 -->
<g id="edge27" class="edge">
<title>Node0x58896ba74e40&#45;&gt;Node0x58896ba77f40</title>
<path fill="none" stroke="black" d="M4024.69,-315.49C4063.6,-305.18 4113.41,-291.99 4154.05,-281.22"/>
<polygon fill="black" stroke="black" points="4155.13,-284.56 4163.9,-278.61 4153.34,-277.79 4155.13,-284.56"/>
</g>
<!-- Node0x58896ba7ad20 -->
<g id="node29" class="node">
<title>Node0x58896ba7ad20</title>
<polygon fill="none" stroke="black" points="4364,-242.5 4364,-278.5 4935,-278.5 4935,-242.5 4364,-242.5"/>
<text text-anchor="middle" x="4649.5" y="-256.8" font-family="Times,serif" font-size="14.00">_ZNSt7__cxx1112basic_stringIcSt11char_traitsIcESaIcEE12_Alloc_hiderD2Ev</text>
</g>
<!-- Node0x58896ba74e40&#45;&gt;Node0x58896ba7ad20 -->
<g id="edge28" class="edge">
<title>Node0x58896ba74e40&#45;&gt;Node0x58896ba7ad20</title>
<path fill="none" stroke="black" d="M4125.53,-315.49C4230.83,-304.64 4367.17,-290.59 4474.37,-279.55"/>
<polygon fill="black" stroke="black" points="4474.73,-283.03 4484.32,-278.52 4474.02,-276.06 4474.73,-283.03"/>
</g>
<!-- Node0x58896ba7c6a0 -->
<g id="node30" class="node">
<title>Node0x58896ba7c6a0</title>
<polygon fill="none" stroke="black" points="4953.5,-242.5 4953.5,-278.5 5225.5,-278.5 5225.5,-242.5 4953.5,-242.5"/>
<text text-anchor="middle" x="5089.5" y="-256.8" font-family="Times,serif" font-size="14.00">_ZNSt11char_traitsIcE6lengthEPKc</text>
</g>
<!-- Node0x58896ba74e40&#45;&gt;Node0x58896ba7c6a0 -->
<g id="edge29" class="edge">
<title>Node0x58896ba74e40&#45;&gt;Node0x58896ba7c6a0</title>
<path fill="none" stroke="black" d="M4247.77,-315.54C4251.03,-315.36 4254.28,-315.18 4257.5,-315 4559.5,-298.19 4638.2,-305.18 4943.28,-279.07"/>
<polygon fill="black" stroke="black" points="4943.64,-282.55 4953.3,-278.21 4943.04,-275.58 4943.64,-282.55"/>
</g>
<!-- Node0x58896ba7bde0 -->
<g id="node31" class="node">
<title>Node0x58896ba7bde0</title>
<polygon fill="none" stroke="black" points="5244,-242.5 5244,-278.5 6071,-278.5 6071,-242.5 5244,-242.5"/>
<text text-anchor="middle" x="5657.5" y="-256.8" font-family="Times,serif" font-size="14.00">_ZNSt7__cxx1112basic_stringIcSt11char_traitsIcESaIcEE12_M_constructIPKcEEvT_S8_St20forward_iterator_tag</text>
</g>
<!-- Node0x58896ba74e40&#45;&gt;Node0x58896ba7bde0 -->
<g id="edge30" class="edge">
<title>Node0x58896ba74e40&#45;&gt;Node0x58896ba7bde0</title>
<path fill="none" stroke="black" d="M4247.38,-315.49C4250.77,-315.32 4254.15,-315.16 4257.5,-315 4691.52,-294.22 4800.32,-295.98 5234.5,-279 5235.29,-278.97 5236.08,-278.94 5236.88,-278.91"/>
<polygon fill="black" stroke="black" points="5237.38,-282.39 5247.24,-278.5 5237.11,-275.4 5237.38,-282.39"/>
</g>
<!-- Node0x58896ba77cc0 -->
<g id="node24" class="node">
<title>Node0x58896ba77cc0</title>
<polygon fill="none" stroke="black" points="2774,-388.5 2774,-424.5 2941,-424.5 2941,-388.5 2774,-388.5"/>
<text text-anchor="middle" x="2857.5" y="-402.8" font-family="Times,serif" font-size="14.00">__gxx_personality_v0</text>
</g>
<!-- Node0x58896ba7ad20&#45;&gt;Node0x58896ba76640 -->
<g id="edge40" class="edge">
<title>Node0x58896ba7ad20&#45;&gt;Node0x58896ba76640</title>
<path fill="none" stroke="black" d="M4365.72,-242.49C4361.96,-242.32 4358.22,-242.16 4354.5,-242 3752.18,-216.15 3601.12,-223.64 2998.5,-206 2858.74,-201.91 2698.91,-196.74 2588.27,-193.08"/>
<polygon fill="black" stroke="black" points="2588.16,-189.58 2578.05,-192.74 2587.93,-196.57 2588.16,-189.58"/>
</g>
<!-- Node0x58896ba7b7a0 -->
<g id="node32" class="node">
<title>Node0x58896ba7b7a0</title>
<polygon fill="none" stroke="black" points="3007,-169.5 3007,-205.5 3066,-205.5 3066,-169.5 3007,-169.5"/>
<text text-anchor="middle" x="3036.5" y="-183.8" font-family="Times,serif" font-size="14.00">strlen</text>
</g>
<!-- Node0x58896ba7c6a0&#45;&gt;Node0x58896ba7b7a0 -->
<g id="edge31" class="edge">
<title>Node0x58896ba7c6a0&#45;&gt;Node0x58896ba7b7a0</title>
<path fill="none" stroke="black" d="M4953.31,-242.66C4950.35,-242.42 4947.41,-242.2 4944.5,-242 4740.33,-227.75 3320.65,-250.74 3076.42,-205.38"/>
<polygon fill="black" stroke="black" points="3076.82,-201.89 3066.32,-203.31 3075.41,-208.75 3076.82,-201.89"/>
</g>
<!-- Node0x58896ba7eae0 -->
<g id="node33" class="node">
<title>Node0x58896ba7eae0</title>
<polygon fill="none" stroke="black" points="3084.5,-169.5 3084.5,-205.5 3642.5,-205.5 3642.5,-169.5 3084.5,-169.5"/>
<text text-anchor="middle" x="3363.5" y="-183.8" font-family="Times,serif" font-size="14.00">_ZNSt7__cxx1112basic_stringIcSt11char_traitsIcESaIcEE9_M_createERmm</text>
</g>
<!-- Node0x58896ba7bde0&#45;&gt;Node0x58896ba7eae0 -->
<g id="edge32" class="edge">
<title>Node0x58896ba7bde0&#45;&gt;Node0x58896ba7eae0</title>
<path fill="none" stroke="black" d="M5249.75,-242.5C5244.63,-242.33 5239.55,-242.16 5234.5,-242 4531.12,-219.45 4354.63,-235.35 3651.5,-206 3651.15,-205.99 3650.8,-205.97 3650.44,-205.96"/>
<polygon fill="black" stroke="black" points="3650.3,-202.45 3640.16,-205.51 3650,-209.44 3650.3,-202.45"/>
</g>
<!-- Node0x58896ba7f8a0 -->
<g id="node34" class="node">
<title>Node0x58896ba7f8a0</title>
<polygon fill="none" stroke="black" points="3660.5,-169.5 3660.5,-205.5 4184.5,-205.5 4184.5,-169.5 3660.5,-169.5"/>
<text text-anchor="middle" x="3922.5" y="-183.8" font-family="Times,serif" font-size="14.00">_ZNSt7__cxx1112basic_stringIcSt11char_traitsIcESaIcEE7_M_dataEPc</text>
</g>
<!-- Node0x58896ba7bde0&#45;&gt;Node0x58896ba7f8a0 -->
<g id="edge33" class="edge">
<title>Node0x58896ba7bde0&#45;&gt;Node0x58896ba7f8a0</title>
<path fill="none" stroke="black" d="M5247.52,-242.5C5243.15,-242.33 5238.82,-242.16 5234.5,-242 4772.33,-224.44 4656.43,-228.85 4194.5,-206 4194.4,-205.99 4194.29,-205.99 4194.19,-205.98"/>
<polygon fill="black" stroke="black" points="4194.67,-202.5 4184.51,-205.5 4194.32,-209.5 4194.67,-202.5"/>
</g>
<!-- Node0x58896ba7f760 -->
<g id="node35" class="node">
<title>Node0x58896ba7f760</title>
<polygon fill="none" stroke="black" points="4203,-169.5 4203,-205.5 4760,-205.5 4760,-169.5 4203,-169.5"/>
<text text-anchor="middle" x="4481.5" y="-183.8" font-family="Times,serif" font-size="14.00">_ZNSt7__cxx1112basic_stringIcSt11char_traitsIcESaIcEE11_M_capacityEm</text>
</g>
<!-- Node0x58896ba7bde0&#45;&gt;Node0x58896ba7f760 -->
<g id="edge34" class="edge">
<title>Node0x58896ba7bde0&#45;&gt;Node0x58896ba7f760</title>
<path fill="none" stroke="black" d="M5374.55,-242.49C5202.93,-232.16 4979.18,-218.69 4770.32,-206.05"/>
<polygon fill="black" stroke="black" points="4770.26,-202.54 4760.07,-205.43 4769.84,-209.53 4770.26,-202.54"/>
</g>
<!-- Node0x58896ba7f4e0 -->
<g id="node36" class="node">
<title>Node0x58896ba7f4e0</title>
<polygon fill="none" stroke="black" points="4778.5,-169.5 4778.5,-205.5 5762.5,-205.5 5762.5,-169.5 4778.5,-169.5"/>
<text text-anchor="middle" x="5270.5" y="-183.8" font-family="Times,serif" font-size="14.00">_ZZNSt7__cxx1112basic_stringIcSt11char_traitsIcESaIcEE12_M_constructIPKcEEvT_S8_St20forward_iterator_tagEN6_GuardC2EPS4_</text>
</g>
<!-- Node0x58896ba7bde0&#45;&gt;Node0x58896ba7f4e0 -->
<g id="edge35" class="edge">
<title>Node0x58896ba7bde0&#45;&gt;Node0x58896ba7f4e0</title>
<path fill="none" stroke="black" d="M5564.8,-242.49C5507.2,-231.93 5433.06,-218.32 5373.61,-207.42"/>
<polygon fill="black" stroke="black" points="5373.91,-203.91 5363.45,-205.55 5372.65,-210.8 5373.91,-203.91"/>
</g>
<!-- Node0x58896ba7ed60 -->
<g id="node37" class="node">
<title>Node0x58896ba7ed60</title>
<polygon fill="none" stroke="black" points="5780.5,-169.5 5780.5,-205.5 6306.5,-205.5 6306.5,-169.5 5780.5,-169.5"/>
<text text-anchor="middle" x="6043.5" y="-183.8" font-family="Times,serif" font-size="14.00">_ZNKSt7__cxx1112basic_stringIcSt11char_traitsIcESaIcEE7_M_dataEv</text>
</g>
<!-- Node0x58896ba7bde0&#45;&gt;Node0x58896ba7ed60 -->
<g id="edge36" class="edge">
<title>Node0x58896ba7bde0&#45;&gt;Node0x58896ba7ed60</title>
<path fill="none" stroke="black" d="M5749.96,-242.49C5807.41,-231.93 5881.36,-218.32 5940.66,-207.42"/>
<polygon fill="black" stroke="black" points="5941.59,-210.8 5950.8,-205.55 5940.33,-203.92 5941.59,-210.8"/>
</g>
<!-- Node0x58896ba80520 -->
<g id="node38" class="node">
<title>Node0x58896ba80520</title>
<polygon fill="none" stroke="black" points="6325,-169.5 6325,-205.5 6954,-205.5 6954,-169.5 6325,-169.5"/>
<text text-anchor="middle" x="6639.5" y="-183.8" font-family="Times,serif" font-size="14.00">_ZNSt7__cxx1112basic_stringIcSt11char_traitsIcESaIcEE13_S_copy_charsEPcPKcS7_</text>
</g>
<!-- Node0x58896ba7bde0&#45;&gt;Node0x58896ba80520 -->
<g id="edge37" class="edge">
<title>Node0x58896ba7bde0&#45;&gt;Node0x58896ba80520</title>
<path fill="none" stroke="black" d="M5892.71,-242.49C6044.15,-231.54 6240.63,-217.34 6394.04,-206.25"/>
<polygon fill="black" stroke="black" points="6394.36,-209.73 6404.08,-205.52 6393.85,-202.75 6394.36,-209.73"/>
</g>
<!-- Node0x58896ba802a0 -->
<g id="node39" class="node">
<title>Node0x58896ba802a0</title>
<polygon fill="none" stroke="black" points="6972.5,-169.5 6972.5,-205.5 7544.5,-205.5 7544.5,-169.5 6972.5,-169.5"/>
<text text-anchor="middle" x="7258.5" y="-183.8" font-family="Times,serif" font-size="14.00">_ZNSt7__cxx1112basic_stringIcSt11char_traitsIcESaIcEE13_M_set_lengthEm</text>
</g>
<!-- Node0x58896ba7bde0&#45;&gt;Node0x58896ba802a0 -->
<g id="edge38" class="edge">
<title>Node0x58896ba7bde0&#45;&gt;Node0x58896ba802a0</title>
<path fill="none" stroke="black" d="M6071.16,-244.49C6325.17,-234.8 6657.48,-221.27 6962.77,-206.03"/>
<polygon fill="black" stroke="black" points="6963.35,-209.51 6973.16,-205.51 6963,-202.51 6963.35,-209.51"/>
</g>
<!-- Node0x58896ba80020 -->
<g id="node40" class="node">
<title>Node0x58896ba80020</title>
<polygon fill="none" stroke="black" points="7562.5,-169.5 7562.5,-205.5 8520.5,-205.5 8520.5,-169.5 7562.5,-169.5"/>
<text text-anchor="middle" x="8041.5" y="-183.8" font-family="Times,serif" font-size="14.00">_ZZNSt7__cxx1112basic_stringIcSt11char_traitsIcESaIcEE12_M_constructIPKcEEvT_S8_St20forward_iterator_tagEN6_GuardD2Ev</text>
</g>
<!-- Node0x58896ba7bde0&#45;&gt;Node0x58896ba80020 -->
<g id="edge39" class="edge">
<title>Node0x58896ba7bde0&#45;&gt;Node0x58896ba80020</title>
<path fill="none" stroke="black" d="M6071.31,-248.73C6455.43,-238.52 7043.14,-222.35 7553.5,-206 7555.25,-205.94 7557,-205.89 7558.75,-205.83"/>
<polygon fill="black" stroke="black" points="7558.96,-209.33 7568.84,-205.51 7558.73,-202.33 7558.96,-209.33"/>
</g>
<!-- Node0x58896ba7fda0 -->
<g id="node41" class="node">
<title>Node0x58896ba7fda0</title>
<polygon fill="none" stroke="black" points="7388,-96.5 7388,-132.5 7935,-132.5 7935,-96.5 7388,-96.5"/>
<text text-anchor="middle" x="7661.5" y="-110.8" font-family="Times,serif" font-size="14.00">_ZNSt7__cxx1112basic_stringIcSt11char_traitsIcESaIcEE10_M_disposeEv</text>
</g>
<!-- Node0x58896ba80020&#45;&gt;Node0x58896ba7fda0 -->
<g id="edge41" class="edge">
<title>Node0x58896ba80020&#45;&gt;Node0x58896ba7fda0</title>
<path fill="none" stroke="black" d="M7950.48,-169.49C7893.92,-158.93 7821.12,-145.32 7762.75,-134.42"/>
<polygon fill="black" stroke="black" points="7763.24,-130.95 7752.76,-132.55 7761.95,-137.83 7763.24,-130.95"/>
</g>
<!-- Node0x58896ba8cd90 -->
<g id="node42" class="node">
<title>Node0x58896ba8cd90</title>
<polygon fill="none" stroke="black" points="7953,-96.5 7953,-132.5 8130,-132.5 8130,-96.5 7953,-96.5"/>
<text text-anchor="middle" x="8041.5" y="-110.8" font-family="Times,serif" font-size="14.00">__clang_call_terminate</text>
</g>
<!-- Node0x58896ba80020&#45;&gt;Node0x58896ba8cd90 -->
<g id="edge42" class="edge">
<title>Node0x58896ba80020&#45;&gt;Node0x58896ba8cd90</title>
<path fill="none" stroke="black" d="M8041.5,-169.31C8041.5,-161.29 8041.5,-151.55 8041.5,-142.57"/>
<polygon fill="black" stroke="black" points="8045,-142.53 8041.5,-132.53 8038,-142.53 8045,-142.53"/>
</g>
<!-- Node0x58896ba8cd90&#45;&gt;Node0x58896ba777c0 -->
<g id="edge43" class="edge">
<title>Node0x58896ba8cd90&#45;&gt;Node0x58896ba777c0</title>
<path fill="none" stroke="black" d="M7952.77,-96.9C7949.99,-96.57 7947.22,-96.27 7944.5,-96 7626.62,-64.88 5298.78,-46.51 4826.83,-43.09"/>
<polygon fill="black" stroke="black" points="4826.71,-39.58 4816.68,-43.01 4826.66,-46.58 4826.71,-39.58"/>
</g>
<!-- Node0x58896ba8cc50 -->
<g id="node43" class="node">
<title>Node0x58896ba8cc50</title>
<polygon fill="none" stroke="black" points="7973,-23.5 7973,-59.5 8110,-59.5 8110,-23.5 7973,-23.5"/>
<text text-anchor="middle" x="8041.5" y="-37.8" font-family="Times,serif" font-size="14.00">_ZSt9terminatev</text>
</g>
<!-- Node0x58896ba8cd90&#45;&gt;Node0x58896ba8cc50 -->
<g id="edge44" class="edge">
<title>Node0x58896ba8cd90&#45;&gt;Node0x58896ba8cc50</title>
<path fill="none" stroke="black" d="M8041.5,-96.31C8041.5,-88.29 8041.5,-78.55 8041.5,-69.57"/>
<polygon fill="black" stroke="black" points="8045,-69.53 8041.5,-59.53 8038,-69.53 8045,-69.53"/>
</g>
</g>
</svg>
