<?xml version="1.0" encoding="UTF-8" standalone="no"?>
<!DOCTYPE svg PUBLIC "-//W3C//DTD SVG 1.1//EN"
 "http://www.w3.org/Graphics/SVG/1.1/DTD/svg11.dtd">
<!-- Generated by graphviz version 2.43.0 (0)
 -->
<!-- Title: Call graph: /home/h02332/po/research/call&#45;graph/cfl/icc_calculator_fuzzer.ll Pages: 1 -->
<svg width="378pt" height="601pt"
 viewBox="0.00 0.00 378.20 601.20" xmlns="http://www.w3.org/2000/svg" xmlns:xlink="http://www.w3.org/1999/xlink">
<g id="graph0" class="graph" transform="scale(1 1) rotate(0) translate(21.6 579.6)">
<title>Call graph: /home/h02332/po/research/call&#45;graph/cfl/icc_calculator_fuzzer.ll</title>
<polygon fill="white" stroke="transparent" points="-21.6,21.6 -21.6,-579.6 356.6,-579.6 356.6,21.6 -21.6,21.6"/>
<!-- Node0x6317ce7bd890 -->
<g id="node1" class="node">
<title>Node0x6317ce7bd890</title>
<path fill="#f0f4ff" stroke="black" d="M116,-297C116,-297 12,-297 12,-297 6,-297 0,-291 0,-285 0,-285 0,-273 0,-273 0,-267 6,-261 12,-261 12,-261 116,-261 116,-261 122,-261 128,-267 128,-273 128,-273 128,-285 128,-285 128,-291 122,-297 116,-297"/>
<text text-anchor="middle" x="64" y="-276.8" font-family="Courier,monospace" font-size="9.00">LLVMFuzzerTestOneInput</text>
</g>
<!-- Node0x6317ce7b67d0 -->
<g id="node2" class="node">
<title>Node0x6317ce7b67d0</title>
<path fill="#f0f4ff" stroke="black" d="M312.5,-558C312.5,-558 208.5,-558 208.5,-558 202.5,-558 196.5,-552 196.5,-546 196.5,-546 196.5,-534 196.5,-534 196.5,-528 202.5,-522 208.5,-522 208.5,-522 312.5,-522 312.5,-522 318.5,-522 324.5,-528 324.5,-534 324.5,-534 324.5,-546 324.5,-546 324.5,-552 318.5,-558 312.5,-558"/>
<text text-anchor="middle" x="260.5" y="-537.8" font-family="Courier,monospace" font-size="9.00">CIccMemIO::CIccMemIO()</text>
</g>
<!-- Node0x6317ce7bd890&#45;&gt;Node0x6317ce7b67d0 -->
<g id="edge1" class="edge">
<title>Node0x6317ce7bd890&#45;&gt;Node0x6317ce7b67d0</title>
<path fill="none" stroke="#4a6fa5" d="M115.35,-297.04C120.05,-300.17 124.39,-303.8 128,-308 189.08,-379.23 122.96,-441.5 186,-511 188.36,-513.6 190.99,-515.98 193.8,-518.14"/>
<polygon fill="#4a6fa5" stroke="#4a6fa5" points="192.93,-520.09 199.05,-521.81 195.33,-516.65 192.93,-520.09"/>
</g>
<!-- Node0x6317ce75fa00 -->
<g id="node3" class="node">
<title>Node0x6317ce75fa00</title>
<path fill="#f0f4ff" stroke="black" d="M304.5,-500C304.5,-500 216.5,-500 216.5,-500 210.5,-500 204.5,-494 204.5,-488 204.5,-488 204.5,-476 204.5,-476 204.5,-470 210.5,-464 216.5,-464 216.5,-464 304.5,-464 304.5,-464 310.5,-464 316.5,-470 316.5,-476 316.5,-476 316.5,-488 316.5,-488 316.5,-494 310.5,-500 304.5,-500"/>
<text text-anchor="middle" x="260.5" y="-479.8" font-family="Courier,monospace" font-size="9.00">CIccMemIO::Attach()</text>
</g>
<!-- Node0x6317ce7bd890&#45;&gt;Node0x6317ce75fa00 -->
<g id="edge2" class="edge">
<title>Node0x6317ce7bd890&#45;&gt;Node0x6317ce75fa00</title>
<path fill="none" stroke="#4a6fa5" d="M114.3,-297.03C119.32,-300.17 124.02,-303.81 128,-308 175.81,-358.31 136.81,-404.04 186,-453 189.86,-456.84 194.28,-460.18 199.01,-463.09"/>
<polygon fill="#4a6fa5" stroke="#4a6fa5" points="197.99,-464.93 204.24,-466.09 200.07,-461.29 197.99,-464.93"/>
</g>
<!-- Node0x6317ce78baf0 -->
<g id="node4" class="node">
<title>Node0x6317ce78baf0</title>
<path fill="#f0f4ff" stroke="black" d="M323,-442C323,-442 198,-442 198,-442 192,-442 186,-436 186,-430 186,-430 186,-418 186,-418 186,-412 192,-406 198,-406 198,-406 323,-406 323,-406 329,-406 335,-412 335,-418 335,-418 335,-430 335,-430 335,-436 329,-442 323,-442"/>
<text text-anchor="middle" x="260.5" y="-421.8" font-family="Courier,monospace" font-size="9.00">CIccProfile::CIccProfile()</text>
</g>
<!-- Node0x6317ce7bd890&#45;&gt;Node0x6317ce78baf0 -->
<g id="edge3" class="edge">
<title>Node0x6317ce7bd890&#45;&gt;Node0x6317ce78baf0</title>
<path fill="none" stroke="#4a6fa5" d="M112.19,-297.15C117.81,-300.32 123.24,-303.93 128,-308 163.33,-338.19 149.84,-365.8 186,-395 189.6,-397.91 193.53,-400.55 197.64,-402.96"/>
<polygon fill="#4a6fa5" stroke="#4a6fa5" points="196.66,-404.81 202.93,-405.87 198.69,-401.13 196.66,-404.81"/>
</g>
<!-- Node0x6317ce76dd30 -->
<g id="node5" class="node">
<title>Node0x6317ce76dd30</title>
<path fill="#f0f4ff" stroke="black" d="M310,-384C310,-384 211,-384 211,-384 205,-384 199,-378 199,-372 199,-372 199,-360 199,-360 199,-354 205,-348 211,-348 211,-348 310,-348 310,-348 316,-348 322,-354 322,-360 322,-360 322,-372 322,-372 322,-378 316,-384 310,-384"/>
<text text-anchor="middle" x="260.5" y="-363.8" font-family="Courier,monospace" font-size="9.00">CIccProfile::Attach()</text>
</g>
<!-- Node0x6317ce7bd890&#45;&gt;Node0x6317ce76dd30 -->
<g id="edge4" class="edge">
<title>Node0x6317ce7bd890&#45;&gt;Node0x6317ce76dd30</title>
<path fill="none" stroke="#4a6fa5" d="M104.75,-297.06C112.48,-300.64 120.51,-304.4 128,-308 153.98,-320.47 159.68,-325.26 186,-337 192.46,-339.88 199.3,-342.78 206.1,-345.57"/>
<polygon fill="#4a6fa5" stroke="#4a6fa5" points="205.45,-347.57 211.8,-347.89 207.03,-343.68 205.45,-347.57"/>
</g>
<!-- Node0x6317ce7c7a40 -->
<g id="node6" class="node">
<title>Node0x6317ce7c7a40</title>
<path fill="#f0f4ff" stroke="black" d="M315,-326C315,-326 206,-326 206,-326 200,-326 194,-320 194,-314 194,-314 194,-302 194,-302 194,-296 200,-290 206,-290 206,-290 315,-290 315,-290 321,-290 327,-296 327,-302 327,-302 327,-314 327,-314 327,-320 321,-326 315,-326"/>
<text text-anchor="middle" x="260.5" y="-305.8" font-family="Courier,monospace" font-size="9.00">CIccProfile::Validate()</text>
</g>
<!-- Node0x6317ce7bd890&#45;&gt;Node0x6317ce7c7a40 -->
<g id="edge5" class="edge">
<title>Node0x6317ce7bd890&#45;&gt;Node0x6317ce7c7a40</title>
<path fill="none" stroke="#4a6fa5" d="M128.15,-288.42C147.25,-291.26 168.36,-294.41 187.96,-297.33"/>
<polygon fill="#4a6fa5" stroke="#4a6fa5" points="187.75,-299.43 194,-298.23 188.37,-295.27 187.75,-299.43"/>
</g>
<!-- Node0x6317ce7c38b0 -->
<g id="node7" class="node">
<title>Node0x6317ce7c38b0</title>
<path fill="#f0f4ff" stroke="black" d="M312.5,-268C312.5,-268 208.5,-268 208.5,-268 202.5,-268 196.5,-262 196.5,-256 196.5,-256 196.5,-244 196.5,-244 196.5,-238 202.5,-232 208.5,-232 208.5,-232 312.5,-232 312.5,-232 318.5,-232 324.5,-238 324.5,-244 324.5,-244 324.5,-256 324.5,-256 324.5,-262 318.5,-268 312.5,-268"/>
<text text-anchor="middle" x="260.5" y="-247.8" font-family="Courier,monospace" font-size="9.00">CIccProfile::FindTag()</text>
</g>
<!-- Node0x6317ce7bd890&#45;&gt;Node0x6317ce7c38b0 -->
<g id="edge6" class="edge">
<title>Node0x6317ce7bd890&#45;&gt;Node0x6317ce7c38b0</title>
<path fill="none" stroke="#4a6fa5" d="M128.15,-269.58C148.04,-266.62 170.1,-263.33 190.39,-260.3"/>
<polygon fill="#4a6fa5" stroke="#4a6fa5" points="190.71,-262.38 196.34,-259.42 190.09,-258.23 190.71,-262.38"/>
</g>
<!-- Node0x6317ce7c72c0 -->
<g id="node8" class="node">
<title>Node0x6317ce7c72c0</title>
<path fill="#f0f4ff" stroke="black" d="M320.5,-210C320.5,-210 200.5,-210 200.5,-210 194.5,-210 188.5,-204 188.5,-198 188.5,-198 188.5,-186 188.5,-186 188.5,-180 194.5,-174 200.5,-174 200.5,-174 320.5,-174 320.5,-174 326.5,-174 332.5,-180 332.5,-186 332.5,-186 332.5,-198 332.5,-198 332.5,-204 326.5,-210 320.5,-210"/>
<text text-anchor="middle" x="260.5" y="-189.8" font-family="Courier,monospace" font-size="9.00">CIccMBB::OutputChannels()</text>
</g>
<!-- Node0x6317ce7bd890&#45;&gt;Node0x6317ce7c72c0 -->
<g id="edge7" class="edge">
<title>Node0x6317ce7bd890&#45;&gt;Node0x6317ce7c72c0</title>
<path fill="none" stroke="#4a6fa5" d="M100.96,-260.94C124.86,-249.13 157.07,-233.62 186,-221 192.58,-218.13 199.54,-215.22 206.46,-212.41"/>
<polygon fill="#4a6fa5" stroke="#4a6fa5" points="207.47,-214.26 212.24,-210.07 205.89,-210.37 207.47,-214.26"/>
</g>
<!-- Node0x6317ce7c6b40 -->
<g id="node9" class="node">
<title>Node0x6317ce7c6b40</title>
<path fill="#f0f4ff" stroke="black" d="M318,-152C318,-152 203,-152 203,-152 197,-152 191,-146 191,-140 191,-140 191,-128 191,-128 191,-122 197,-116 203,-116 203,-116 318,-116 318,-116 324,-116 330,-122 330,-128 330,-128 330,-140 330,-140 330,-146 324,-152 318,-152"/>
<text text-anchor="middle" x="260.5" y="-131.8" font-family="Courier,monospace" font-size="9.00">CIccMBB::InputChannels()</text>
</g>
<!-- Node0x6317ce7bd890&#45;&gt;Node0x6317ce7c6b40 -->
<g id="edge8" class="edge">
<title>Node0x6317ce7bd890&#45;&gt;Node0x6317ce7c6b40</title>
<path fill="none" stroke="#4a6fa5" d="M80.07,-260.62C101.39,-235.61 142.64,-190.8 186,-163 190.66,-160.01 195.69,-157.24 200.84,-154.7"/>
<polygon fill="#4a6fa5" stroke="#4a6fa5" points="201.95,-156.5 206.47,-152.03 200.15,-152.7 201.95,-156.5"/>
</g>
<!-- Node0x6317ce7c6dc0 -->
<g id="node10" class="node">
<title>Node0x6317ce7c6dc0</title>
<path fill="#f0f4ff" stroke="black" d="M291.5,-94C291.5,-94 229.5,-94 229.5,-94 223.5,-94 217.5,-88 217.5,-82 217.5,-82 217.5,-70 217.5,-70 217.5,-64 223.5,-58 229.5,-58 229.5,-58 291.5,-58 291.5,-58 297.5,-58 303.5,-64 303.5,-70 303.5,-70 303.5,-82 303.5,-82 303.5,-88 297.5,-94 291.5,-94"/>
<text text-anchor="middle" x="260.5" y="-73.8" font-family="Courier,monospace" font-size="9.00">__dynamic_cast</text>
</g>
<!-- Node0x6317ce7bd890&#45;&gt;Node0x6317ce7c6dc0 -->
<g id="edge9" class="edge">
<title>Node0x6317ce7bd890&#45;&gt;Node0x6317ce7c6dc0</title>
<path fill="none" stroke="#4a6fa5" d="M73.13,-260.85C89.61,-225.98 130.17,-149.18 186,-105 193.57,-99.01 202.54,-94.12 211.56,-90.18"/>
<polygon fill="#4a6fa5" stroke="#4a6fa5" points="212.43,-92.09 217.17,-87.85 210.82,-88.21 212.43,-92.09"/>
</g>
<!-- Node0x6317ce7c7040 -->
<g id="node11" class="node">
<title>Node0x6317ce7c7040</title>
<path fill="#f0f4ff" stroke="black" d="M302,-36C302,-36 219,-36 219,-36 213,-36 207,-30 207,-24 207,-24 207,-12 207,-12 207,-6 213,0 219,0 219,0 302,0 302,0 308,0 314,-6 314,-12 314,-12 314,-24 314,-24 314,-30 308,-36 302,-36"/>
<text text-anchor="middle" x="260.5" y="-15.8" font-family="Courier,monospace" font-size="9.00">CIccMemIO::Alloc()</text>
</g>
<!-- Node0x6317ce7bd890&#45;&gt;Node0x6317ce7c7040 -->
<g id="edge10" class="edge">
<title>Node0x6317ce7bd890&#45;&gt;Node0x6317ce7c7040</title>
<path fill="none" stroke="#4a6fa5" d="M69.69,-260.9C81.71,-217.89 117.63,-108.55 186,-47 190.59,-42.87 195.83,-39.3 201.36,-36.21"/>
<polygon fill="#4a6fa5" stroke="#4a6fa5" points="202.63,-37.92 206.98,-33.28 200.69,-34.2 202.63,-37.92"/>
</g>
<!-- Node0x6317ce7cc6a0 -->
<g id="node12" class="node">
<title>Node0x6317ce7cc6a0</title>
<path fill="#f0f4ff" stroke="black" d="M79.5,-355C79.5,-355 48.5,-355 48.5,-355 42.5,-355 36.5,-349 36.5,-343 36.5,-343 36.5,-331 36.5,-331 36.5,-325 42.5,-319 48.5,-319 48.5,-319 79.5,-319 79.5,-319 85.5,-319 91.5,-325 91.5,-331 91.5,-331 91.5,-343 91.5,-343 91.5,-349 85.5,-355 79.5,-355"/>
<text text-anchor="middle" x="64" y="-334.8" font-family="Courier,monospace" font-size="9.00">length()</text>
</g>
<!-- Node0x6317ce7cf4e0 -->
<g id="node13" class="node">
<title>Node0x6317ce7cf4e0</title>
<path fill="#f0f4ff" stroke="black" d="M100.5,-413C100.5,-413 27.5,-413 27.5,-413 21.5,-413 15.5,-407 15.5,-401 15.5,-401 15.5,-389 15.5,-389 15.5,-383 21.5,-377 27.5,-377 27.5,-377 100.5,-377 100.5,-377 106.5,-377 112.5,-383 112.5,-389 112.5,-389 112.5,-401 112.5,-401 112.5,-407 106.5,-413 100.5,-413"/>
<text text-anchor="middle" x="64" y="-392.8" font-family="Courier,monospace" font-size="9.00">_Guard::_Guard()</text>
</g>
<!-- Node0x6317ce7d0020 -->
<g id="node14" class="node">
<title>Node0x6317ce7d0020</title>
<path fill="#f0f4ff" stroke="black" d="M103,-471C103,-471 25,-471 25,-471 19,-471 13,-465 13,-459 13,-459 13,-447 13,-447 13,-441 19,-435 25,-435 25,-435 103,-435 103,-435 109,-435 115,-441 115,-447 115,-447 115,-459 115,-459 115,-465 109,-471 103,-471"/>
<text text-anchor="middle" x="64" y="-450.8" font-family="Courier,monospace" font-size="9.00">_Guard::~_Guard()</text>
</g>
</g>
</svg>
