<?xml version="1.0" encoding="UTF-8" standalone="no"?>
<!DOCTYPE svg PUBLIC "-//W3C//DTD SVG 1.1//EN"
 "http://www.w3.org/Graphics/SVG/1.1/DTD/svg11.dtd">
<!-- Generated by graphviz version 2.43.0 (0)
 -->
<!-- Title: Call graph: /home/h02332/po/research/call&#45;graph/cfl/icc_roundtrip_fuzzer.ll Pages: 1 -->
<svg width="1036pt" height="14400pt"
 viewBox="0.00 0.00 1035.57 14400.00" xmlns="http://www.w3.org/2000/svg" xmlns:xlink="http://www.w3.org/1999/xlink">
<g id="graph0" class="graph" transform="scale(1.31 1.31) rotate(0) translate(36 10991)">
<title>Call graph: /home/h02332/po/research/call&#45;graph/cfl/icc_roundtrip_fuzzer.ll</title>
<polygon fill="white" stroke="transparent" points="-36,36 -36,-10991 757,-10991 757,36 -36,36"/>
<!-- Node0x571f44945640 -->
<g id="node1" class="node">
<title>Node0x571f44945640</title>
<path fill="#f0f4ff" stroke="black" d="M129,-491C129,-491 12,-491 12,-491 6,-491 0,-485 0,-479 0,-479 0,-467 0,-467 0,-461 6,-455 12,-455 12,-455 129,-455 129,-455 135,-455 141,-461 141,-467 141,-467 141,-479 141,-479 141,-485 135,-491 129,-491"/>
<text text-anchor="middle" x="70.5" y="-470.8" font-family="Courier,monospace" font-size="9.00">{LLVMFuzzerTestOneInput}</text>
</g>
<!-- Node0x571f4498f460 -->
<g id="node2" class="node">
<title>Node0x571f4498f460</title>
<path fill="#f0f4ff" stroke="black" d="M363.5,-1011C363.5,-1011 294.5,-1011 294.5,-1011 288.5,-1011 282.5,-1005 282.5,-999 282.5,-999 282.5,-987 282.5,-987 282.5,-981 288.5,-975 294.5,-975 294.5,-975 363.5,-975 363.5,-975 369.5,-975 375.5,-981 375.5,-987 375.5,-987 375.5,-999 375.5,-999 375.5,-1005 369.5,-1011 363.5,-1011"/>
<text text-anchor="middle" x="329" y="-990.8" font-family="Courier,monospace" font-size="9.00">{fuzz_tmpdir()}</text>
</g>
<!-- Node0x571f44945640&#45;&gt;Node0x571f4498f460 -->
<g id="edge1" class="edge">
<title>Node0x571f44945640&#45;&gt;Node0x571f4498f460</title>
<path fill="none" stroke="#4a6fa5" d="M71.65,-491.04C73.22,-561.73 88.56,-822.79 227,-961 239.99,-973.96 258.19,-981.68 275.57,-986.28"/>
<polygon fill="#4a6fa5" stroke="#4a6fa5" points="275.05,-988.67 282.43,-987.95 276.21,-983.91 275.05,-988.67"/>
</g>
<!-- Node0x571f44943a50 -->
<g id="node3" class="node">
<title>Node0x571f44943a50</title>
<path fill="#f0f4ff" stroke="black" d="M374,-946C374,-946 284,-946 284,-946 278,-946 272,-940 272,-934 272,-934 272,-922 272,-922 272,-916 278,-910 284,-910 284,-910 374,-910 374,-910 380,-910 386,-916 386,-922 386,-922 386,-934 386,-934 386,-940 380,-946 374,-946"/>
<text text-anchor="middle" x="329" y="-925.8" font-family="Courier,monospace" font-size="9.00">{fuzz_build_path()}</text>
</g>
<!-- Node0x571f44945640&#45;&gt;Node0x571f44943a50 -->
<g id="edge2" class="edge">
<title>Node0x571f44945640&#45;&gt;Node0x571f44943a50</title>
<path fill="none" stroke="#4a6fa5" d="M72.68,-491.29C77.87,-556.33 104.25,-778.7 227,-896 237.51,-906.05 251.17,-912.94 265.02,-917.67"/>
<polygon fill="#4a6fa5" stroke="#4a6fa5" points="264.41,-920.05 271.82,-919.82 265.89,-915.37 264.41,-920.05"/>
</g>
<!-- Node0x571f449476c0 -->
<g id="node4" class="node">
<title>Node0x571f449476c0</title>
<path fill="#f0f4ff" stroke="black" d="M348,-816C348,-816 310,-816 310,-816 304,-816 298,-810 298,-804 298,-804 298,-792 298,-792 298,-786 304,-780 310,-780 310,-780 348,-780 348,-780 354,-780 360,-786 360,-792 360,-792 360,-804 360,-804 360,-810 354,-816 348,-816"/>
<text text-anchor="middle" x="329" y="-795.8" font-family="Courier,monospace" font-size="9.00">{mkstemp}</text>
</g>
<!-- Node0x571f44945640&#45;&gt;Node0x571f449476c0 -->
<g id="edge3" class="edge">
<title>Node0x571f44945640&#45;&gt;Node0x571f449476c0</title>
<path fill="none" stroke="#4a6fa5" d="M75.95,-491.21C89.41,-542.41 134.55,-688.94 227,-766 244.95,-780.96 269.95,-788.95 290.59,-793.21"/>
<polygon fill="#4a6fa5" stroke="#4a6fa5" points="290.35,-795.66 297.69,-794.56 291.27,-790.84 290.35,-795.66"/>
</g>
<!-- Node0x571f44992e70 -->
<g id="node5" class="node">
<title>Node0x571f44992e70</title>
<path fill="#f0f4ff" stroke="black" d="M344,-751C344,-751 314,-751 314,-751 308,-751 302,-745 302,-739 302,-739 302,-727 302,-727 302,-721 308,-715 314,-715 314,-715 344,-715 344,-715 350,-715 356,-721 356,-727 356,-727 356,-739 356,-739 356,-745 350,-751 344,-751"/>
<text text-anchor="middle" x="329" y="-730.8" font-family="Courier,monospace" font-size="9.00">{write}</text>
</g>
<!-- Node0x571f44945640&#45;&gt;Node0x571f44992e70 -->
<g id="edge4" class="edge">
<title>Node0x571f44945640&#45;&gt;Node0x571f44992e70</title>
<path fill="none" stroke="#4a6fa5" d="M78.84,-491.12C97.16,-534.14 149.15,-643.09 227,-701 246.89,-715.79 273.83,-723.88 294.88,-728.22"/>
<polygon fill="#4a6fa5" stroke="#4a6fa5" points="294.44,-730.63 301.78,-729.55 295.37,-725.82 294.44,-730.63"/>
</g>
<!-- Node0x571f44991e30 -->
<g id="node6" class="node">
<title>Node0x571f44991e30</title>
<path fill="#f0f4ff" stroke="black" d="M344,-686C344,-686 314,-686 314,-686 308,-686 302,-680 302,-674 302,-674 302,-662 302,-662 302,-656 308,-650 314,-650 314,-650 344,-650 344,-650 350,-650 356,-656 356,-662 356,-662 356,-674 356,-674 356,-680 350,-686 344,-686"/>
<text text-anchor="middle" x="329" y="-665.8" font-family="Courier,monospace" font-size="9.00">{close}</text>
</g>
<!-- Node0x571f44945640&#45;&gt;Node0x571f44991e30 -->
<g id="edge5" class="edge">
<title>Node0x571f44945640&#45;&gt;Node0x571f44991e30</title>
<path fill="none" stroke="#4a6fa5" d="M83.85,-491.02C107.68,-524.44 163.29,-596.25 227,-636 247.66,-648.89 273.96,-657.01 294.55,-661.84"/>
<polygon fill="#4a6fa5" stroke="#4a6fa5" points="294.2,-664.27 301.57,-663.41 295.28,-659.49 294.2,-664.27"/>
</g>
<!-- Node0x571f44945870 -->
<g id="node7" class="node">
<title>Node0x571f44945870</title>
<path fill="#f0f4ff" stroke="black" d="M345.5,-621C345.5,-621 312.5,-621 312.5,-621 306.5,-621 300.5,-615 300.5,-609 300.5,-609 300.5,-597 300.5,-597 300.5,-591 306.5,-585 312.5,-585 312.5,-585 345.5,-585 345.5,-585 351.5,-585 357.5,-591 357.5,-597 357.5,-597 357.5,-609 357.5,-609 357.5,-615 351.5,-621 345.5,-621"/>
<text text-anchor="middle" x="329" y="-600.8" font-family="Courier,monospace" font-size="9.00">{unlink}</text>
</g>
<!-- Node0x571f44945640&#45;&gt;Node0x571f44945870 -->
<g id="edge6" class="edge">
<title>Node0x571f44945640&#45;&gt;Node0x571f44945870</title>
<path fill="none" stroke="#4a6fa5" d="M95.7,-491.02C125.37,-512.44 177.79,-548.16 227,-571 248.34,-580.91 273.57,-588.9 293.48,-594.42"/>
<polygon fill="#4a6fa5" stroke="#4a6fa5" points="292.88,-596.8 300.28,-596.27 294.17,-592.07 292.88,-596.8"/>
</g>
<!-- Node0x571f44993a70 -->
<g id="node8" class="node">
<title>Node0x571f44993a70</title>
<path fill="#f0f4ff" stroke="black" d="M384.5,-556C384.5,-556 273.5,-556 273.5,-556 267.5,-556 261.5,-550 261.5,-544 261.5,-544 261.5,-532 261.5,-532 261.5,-526 267.5,-520 273.5,-520 273.5,-520 384.5,-520 384.5,-520 390.5,-520 396.5,-526 396.5,-532 396.5,-532 396.5,-544 396.5,-544 396.5,-550 390.5,-556 384.5,-556"/>
<text text-anchor="middle" x="329" y="-535.8" font-family="Courier,monospace" font-size="9.00">{CIccInfo::~CIccInfo()}</text>
</g>
<!-- Node0x571f44945640&#45;&gt;Node0x571f44993a70 -->
<g id="edge7" class="edge">
<title>Node0x571f44945640&#45;&gt;Node0x571f44993a70</title>
<path fill="none" stroke="#4a6fa5" d="M141.25,-490.68C176.3,-499.56 218.76,-510.32 254.34,-519.33"/>
<polygon fill="#4a6fa5" stroke="#4a6fa5" points="253.97,-521.77 261.36,-521.11 255.17,-517.02 253.97,-521.77"/>
</g>
<!-- Node0x571f449911c0 -->
<g id="node9" class="node">
<title>Node0x571f449911c0</title>
<path fill="#f0f4ff" stroke="black" d="M413.5,-491C413.5,-491 244.5,-491 244.5,-491 238.5,-491 232.5,-485 232.5,-479 232.5,-479 232.5,-467 232.5,-467 232.5,-461 238.5,-455 244.5,-455 244.5,-455 413.5,-455 413.5,-455 419.5,-455 425.5,-461 425.5,-467 425.5,-467 425.5,-479 425.5,-479 425.5,-485 419.5,-491 413.5,-491"/>
<text text-anchor="middle" x="329" y="-470.8" font-family="Courier,monospace" font-size="9.00">{CIccMinMaxEval::CIccMinMaxEval()}</text>
</g>
<!-- Node0x571f44945640&#45;&gt;Node0x571f449911c0 -->
<g id="edge8" class="edge">
<title>Node0x571f44945640&#45;&gt;Node0x571f449911c0</title>
<path fill="none" stroke="#4a6fa5" d="M141.25,-473C167.1,-473 196.98,-473 225.16,-473"/>
<polygon fill="#4a6fa5" stroke="#4a6fa5" points="225.28,-475.45 232.28,-473 225.28,-470.55 225.28,-475.45"/>
</g>
<!-- Node0x571f449937f0 -->
<g id="node10" class="node">
<title>Node0x571f449937f0</title>
<path fill="#f0f4ff" stroke="black" d="M419,-426C419,-426 239,-426 239,-426 233,-426 227,-420 227,-414 227,-414 227,-402 227,-402 227,-396 233,-390 239,-390 239,-390 419,-390 419,-390 425,-390 431,-396 431,-402 431,-402 431,-414 431,-414 431,-420 425,-426 419,-426"/>
<text text-anchor="middle" x="329" y="-405.8" font-family="Courier,monospace" font-size="9.00">{CIccEvalCompare::EvaluateProfile()}</text>
</g>
<!-- Node0x571f44945640&#45;&gt;Node0x571f449937f0 -->
<g id="edge9" class="edge">
<title>Node0x571f44945640&#45;&gt;Node0x571f449937f0</title>
<path fill="none" stroke="#4a6fa5" d="M141.25,-455.32C174.91,-446.8 215.41,-436.53 250.07,-427.75"/>
<polygon fill="#4a6fa5" stroke="#4a6fa5" points="250.74,-430.11 256.92,-426.01 249.54,-425.36 250.74,-430.11"/>
</g>
<!-- Node0x571f449aa430 -->
<g id="node11" class="node">
<title>Node0x571f449aa430</title>
<path fill="#f0f4ff" stroke="black" d="M419,-361C419,-361 239,-361 239,-361 233,-361 227,-355 227,-349 227,-349 227,-337 227,-337 227,-331 233,-325 239,-325 239,-325 419,-325 419,-325 425,-325 431,-331 431,-337 431,-337 431,-349 431,-349 431,-355 425,-361 419,-361"/>
<text text-anchor="middle" x="329" y="-340.8" font-family="Courier,monospace" font-size="9.00">{CIccInfo::GetRenderingIntentName()}</text>
</g>
<!-- Node0x571f44945640&#45;&gt;Node0x571f449aa430 -->
<g id="edge10" class="edge">
<title>Node0x571f44945640&#45;&gt;Node0x571f449aa430</title>
<path fill="none" stroke="#4a6fa5" d="M96.29,-454.89C126.11,-433.73 178.27,-398.75 227,-376 236.8,-371.42 247.42,-367.21 257.95,-363.44"/>
<polygon fill="#4a6fa5" stroke="#4a6fa5" points="259.06,-365.65 264.86,-361.02 257.44,-361.02 259.06,-365.65"/>
</g>
<!-- Node0x571f44993570 -->
<g id="node12" class="node">
<title>Node0x571f44993570</title>
<path fill="#f0f4ff" stroke="black" d="M382,-296C382,-296 276,-296 276,-296 270,-296 264,-290 264,-284 264,-284 264,-272 264,-272 264,-266 270,-260 276,-260 276,-260 382,-260 382,-260 388,-260 394,-266 394,-272 394,-272 394,-284 394,-284 394,-290 388,-296 382,-296"/>
<text text-anchor="middle" x="329" y="-275.8" font-family="Courier,monospace" font-size="9.00">{CIccPRMG::CIccPRMG()}</text>
</g>
<!-- Node0x571f44945640&#45;&gt;Node0x571f44993570 -->
<g id="edge11" class="edge">
<title>Node0x571f44945640&#45;&gt;Node0x571f44993570</title>
<path fill="none" stroke="#4a6fa5" d="M84.1,-454.89C108.13,-421.66 163.78,-350.71 227,-311 236.31,-305.15 246.77,-300.23 257.33,-296.14"/>
<polygon fill="#4a6fa5" stroke="#4a6fa5" points="258.2,-298.43 263.9,-293.69 256.49,-293.83 258.2,-298.43"/>
</g>
<!-- Node0x571f449932f0 -->
<g id="node13" class="node">
<title>Node0x571f449932f0</title>
<path fill="#f0f4ff" stroke="black" d="M400.5,-231C400.5,-231 257.5,-231 257.5,-231 251.5,-231 245.5,-225 245.5,-219 245.5,-219 245.5,-207 245.5,-207 245.5,-201 251.5,-195 257.5,-195 257.5,-195 400.5,-195 400.5,-195 406.5,-195 412.5,-201 412.5,-207 412.5,-207 412.5,-219 412.5,-219 412.5,-225 406.5,-231 400.5,-231"/>
<text text-anchor="middle" x="329" y="-210.8" font-family="Courier,monospace" font-size="9.00">{CIccPRMG::EvaluateProfile()}</text>
</g>
<!-- Node0x571f44945640&#45;&gt;Node0x571f449932f0 -->
<g id="edge12" class="edge">
<title>Node0x571f44945640&#45;&gt;Node0x571f449932f0</title>
<path fill="none" stroke="#4a6fa5" d="M79.03,-454.68C97.6,-411.74 149.78,-303.86 227,-246 233.1,-241.43 239.87,-237.47 246.93,-234.05"/>
<polygon fill="#4a6fa5" stroke="#4a6fa5" points="248.13,-236.2 253.48,-231.06 246.09,-231.74 248.13,-236.2"/>
</g>
<!-- Node0x571f449b0e30 -->
<g id="node14" class="node">
<title>Node0x571f449b0e30</title>
<path fill="#f0f4ff" stroke="black" d="M382,-166C382,-166 276,-166 276,-166 270,-166 264,-160 264,-154 264,-154 264,-142 264,-142 264,-136 270,-130 276,-130 276,-130 382,-130 382,-130 388,-130 394,-136 394,-142 394,-142 394,-154 394,-154 394,-160 388,-166 382,-166"/>
<text text-anchor="middle" x="329" y="-145.8" font-family="Courier,monospace" font-size="9.00">{CIccInfo::CIccInfo()}</text>
</g>
<!-- Node0x571f44945640&#45;&gt;Node0x571f449b0e30 -->
<g id="edge13" class="edge">
<title>Node0x571f44945640&#45;&gt;Node0x571f449b0e30</title>
<path fill="none" stroke="#4a6fa5" d="M76.01,-454.89C89.61,-403.97 135.08,-258.21 227,-181 235.77,-173.63 246.23,-167.9 257.05,-163.43"/>
<polygon fill="#4a6fa5" stroke="#4a6fa5" points="258.17,-165.63 263.81,-160.82 256.4,-161.06 258.17,-165.63"/>
</g>
<!-- Node0x571f44993070 -->
<g id="node15" class="node">
<title>Node0x571f44993070</title>
<path fill="#f0f4ff" stroke="black" d="M398,-101C398,-101 260,-101 260,-101 254,-101 248,-95 248,-89 248,-89 248,-77 248,-77 248,-71 254,-65 260,-65 260,-65 398,-65 398,-65 404,-65 410,-71 410,-77 410,-77 410,-89 410,-89 410,-95 404,-101 398,-101"/>
<text text-anchor="middle" x="329" y="-80.8" font-family="Courier,monospace" font-size="9.00">{CIccMinMaxEval::GetMean1()}</text>
</g>
<!-- Node0x571f44945640&#45;&gt;Node0x571f44993070 -->
<g id="edge14" class="edge">
<title>Node0x571f44945640&#45;&gt;Node0x571f44993070</title>
<path fill="none" stroke="#4a6fa5" d="M74.1,-454.78C83.39,-396.54 120.21,-213.1 227,-116 231.86,-111.58 237.32,-107.75 243.13,-104.43"/>
<polygon fill="#4a6fa5" stroke="#4a6fa5" points="244.51,-106.48 249.55,-101.03 242.22,-102.15 244.51,-106.48"/>
</g>
<!-- Node0x571f449b11f0 -->
<g id="node16" class="node">
<title>Node0x571f449b11f0</title>
<path fill="#f0f4ff" stroke="black" d="M398,-36C398,-36 260,-36 260,-36 254,-36 248,-30 248,-24 248,-24 248,-12 248,-12 248,-6 254,0 260,0 260,0 398,0 398,0 404,0 410,-6 410,-12 410,-12 410,-24 410,-24 410,-30 404,-36 398,-36"/>
<text text-anchor="middle" x="329" y="-15.8" font-family="Courier,monospace" font-size="9.00">{CIccMinMaxEval::GetMean2()}</text>
</g>
<!-- Node0x571f44945640&#45;&gt;Node0x571f449b11f0 -->
<g id="edge15" class="edge">
<title>Node0x571f44945640&#45;&gt;Node0x571f449b11f0</title>
<path fill="none" stroke="#4a6fa5" d="M72.73,-454.79C78.09,-390.03 104.98,-168.56 227,-51 231.59,-46.58 236.77,-42.76 242.31,-39.44"/>
<polygon fill="#4a6fa5" stroke="#4a6fa5" points="243.51,-41.58 248.45,-36.04 241.14,-37.29 243.51,-41.58"/>
</g>
<!-- Node0x571f449b4320 -->
<g id="node17" class="node">
<title>Node0x571f449b4320</title>
<path fill="#f0f4ff" stroke="black" d="M635.5,-1011C635.5,-1011 602.5,-1011 602.5,-1011 596.5,-1011 590.5,-1005 590.5,-999 590.5,-999 590.5,-987 590.5,-987 590.5,-981 596.5,-975 602.5,-975 602.5,-975 635.5,-975 635.5,-975 641.5,-975 647.5,-981 647.5,-987 647.5,-987 647.5,-999 647.5,-999 647.5,-1005 641.5,-1011 635.5,-1011"/>
<text text-anchor="middle" x="619" y="-990.8" font-family="Courier,monospace" font-size="9.00">{getenv}</text>
</g>
<!-- Node0x571f4498f460&#45;&gt;Node0x571f449b4320 -->
<g id="edge16" class="edge">
<title>Node0x571f4498f460&#45;&gt;Node0x571f449b4320</title>
<path fill="none" stroke="#4a6fa5" d="M375.63,-993C433.35,-993 531.45,-993 583.38,-993"/>
<polygon fill="#4a6fa5" stroke="#4a6fa5" points="583.39,-995.45 590.39,-993 583.39,-990.55 583.39,-995.45"/>
</g>
<!-- Node0x571f449b2fa0 -->
<g id="node18" class="node">
<title>Node0x571f449b2fa0</title>
<path fill="#f0f4ff" stroke="black" d="M635.5,-946C635.5,-946 602.5,-946 602.5,-946 596.5,-946 590.5,-940 590.5,-934 590.5,-934 590.5,-922 590.5,-922 590.5,-916 596.5,-910 602.5,-910 602.5,-910 635.5,-910 635.5,-910 641.5,-910 647.5,-916 647.5,-922 647.5,-922 647.5,-934 647.5,-934 647.5,-940 641.5,-946 635.5,-946"/>
<text text-anchor="middle" x="619" y="-925.8" font-family="Courier,monospace" font-size="9.00">{strlen}</text>
</g>
<!-- Node0x571f44943a50&#45;&gt;Node0x571f449b2fa0 -->
<g id="edge17" class="edge">
<title>Node0x571f44943a50&#45;&gt;Node0x571f449b2fa0</title>
<path fill="none" stroke="#4a6fa5" d="M386.21,-928C444.6,-928 534.13,-928 583.07,-928"/>
<polygon fill="#4a6fa5" stroke="#4a6fa5" points="583.28,-930.45 590.28,-928 583.28,-925.55 583.28,-930.45"/>
</g>
<!-- Node0x571f449b2e10 -->
<g id="node19" class="node">
<title>Node0x571f449b2e10</title>
<path fill="#f0f4ff" stroke="black" d="M674.5,-881C674.5,-881 563.5,-881 563.5,-881 557.5,-881 551.5,-875 551.5,-869 551.5,-869 551.5,-857 551.5,-857 551.5,-851 557.5,-845 563.5,-845 563.5,-845 674.5,-845 674.5,-845 680.5,-845 686.5,-851 686.5,-857 686.5,-857 686.5,-869 686.5,-869 686.5,-875 680.5,-881 674.5,-881"/>
<text text-anchor="middle" x="619" y="-860.8" font-family="Courier,monospace" font-size="9.00">{llvm.memcpy.p0.p0.i64}</text>
</g>
<!-- Node0x571f44943a50&#45;&gt;Node0x571f449b2e10 -->
<g id="edge18" class="edge">
<title>Node0x571f44943a50&#45;&gt;Node0x571f449b2e10</title>
<path fill="none" stroke="#4a6fa5" d="M386.21,-915.31C431.4,-905.12 495.23,-890.71 544.47,-879.6"/>
<polygon fill="#4a6fa5" stroke="#4a6fa5" points="545.03,-881.98 551.31,-878.05 543.95,-877.2 545.03,-881.98"/>
</g>
<!-- Node0x571f449b2d50 -->
<g id="node20" class="node">
<title>Node0x571f449b2d50</title>
<path fill="#f0f4ff" stroke="black" d="M709,-523C709,-523 529,-523 529,-523 523,-523 517,-517 517,-511 517,-511 517,-499 517,-499 517,-493 523,-487 529,-487 529,-487 709,-487 709,-487 715,-487 721,-493 721,-499 721,-499 721,-511 721,-511 721,-517 715,-523 709,-523"/>
<text text-anchor="middle" x="619" y="-502.8" font-family="Courier,monospace" font-size="9.00">{CIccEvalCompare::CIccEvalCompare()}</text>
</g>
<!-- Node0x571f449911c0&#45;&gt;Node0x571f449b2d50 -->
<g id="edge19" class="edge">
<title>Node0x571f449911c0&#45;&gt;Node0x571f449b2d50</title>
<path fill="none" stroke="#4a6fa5" d="M425.9,-483.66C452.64,-486.63 481.87,-489.87 509.29,-492.92"/>
<polygon fill="#4a6fa5" stroke="#4a6fa5" points="509.37,-495.39 516.59,-493.73 509.91,-490.52 509.37,-495.39"/>
</g>
<!-- Node0x571f449942c0 -->
<g id="node21" class="node">
<title>Node0x571f449942c0</title>
<path fill="#f0f4ff" stroke="black" d="M667,-458C667,-458 571,-458 571,-458 565,-458 559,-452 559,-446 559,-446 559,-434 559,-434 559,-428 565,-422 571,-422 571,-422 667,-422 667,-422 673,-422 679,-428 679,-434 679,-434 679,-446 679,-446 679,-452 673,-458 667,-458"/>
<text text-anchor="middle" x="619" y="-437.8" font-family="Courier,monospace" font-size="9.00">{llvm.memset.p0.i64}</text>
</g>
<!-- Node0x571f449911c0&#45;&gt;Node0x571f449942c0 -->
<g id="edge20" class="edge">
<title>Node0x571f449911c0&#45;&gt;Node0x571f449942c0</title>
<path fill="none" stroke="#4a6fa5" d="M425.9,-462.01C467.01,-457.3 514.03,-451.91 551.27,-447.65"/>
<polygon fill="#4a6fa5" stroke="#4a6fa5" points="551.9,-450.04 558.58,-446.81 551.34,-445.17 551.9,-450.04"/>
</g>
<!-- Node0x571f449b6240 -->
<g id="node22" class="node">
<title>Node0x571f449b6240</title>
<path fill="#f0f4ff" stroke="black" d="M123.5,-7445C123.5,-7445 17.5,-7445 17.5,-7445 11.5,-7445 5.5,-7439 5.5,-7433 5.5,-7433 5.5,-7421 5.5,-7421 5.5,-7415 11.5,-7409 17.5,-7409 17.5,-7409 123.5,-7409 123.5,-7409 129.5,-7409 135.5,-7415 135.5,-7421 135.5,-7421 135.5,-7433 135.5,-7433 135.5,-7439 129.5,-7445 123.5,-7445"/>
<text text-anchor="middle" x="70.5" y="-7424.8" font-family="Courier,monospace" font-size="9.00">{__gxx_personality_v0}</text>
</g>
<!-- Node0x571f449b6f20 -->
<g id="node23" class="node">
<title>Node0x571f449b6f20</title>
<path fill="#f0f4ff" stroke="black" d="M395,-881C395,-881 263,-881 263,-881 257,-881 251,-875 251,-869 251,-869 251,-857 251,-857 251,-851 257,-845 263,-845 263,-845 395,-845 395,-845 401,-845 407,-851 407,-857 407,-857 407,-869 407,-869 407,-875 401,-881 395,-881"/>
<text text-anchor="middle" x="329" y="-860.8" font-family="Courier,monospace" font-size="9.00">{CIccMinMaxEval::Compare()}</text>
</g>
<!-- Node0x571f449b6f20&#45;&gt;Node0x571f449b2e10 -->
<g id="edge22" class="edge">
<title>Node0x571f449b6f20&#45;&gt;Node0x571f449b2e10</title>
<path fill="none" stroke="#4a6fa5" d="M407.18,-863C449.71,-863 502.22,-863 544.2,-863"/>
<polygon fill="#4a6fa5" stroke="#4a6fa5" points="544.38,-865.45 551.38,-863 544.38,-860.55 544.38,-865.45"/>
</g>
<!-- Node0x571f449b69c0 -->
<g id="node24" class="node">
<title>Node0x571f449b69c0</title>
<path fill="#f0f4ff" stroke="black" d="M646,-816C646,-816 592,-816 592,-816 586,-816 580,-810 580,-804 580,-804 580,-792 580,-792 580,-786 586,-780 592,-780 592,-780 646,-780 646,-780 652,-780 658,-786 658,-792 658,-792 658,-804 658,-804 658,-810 652,-816 646,-816"/>
<text text-anchor="middle" x="619" y="-795.8" font-family="Courier,monospace" font-size="9.00">{icDeltaE()}</text>
</g>
<!-- Node0x571f449b6f20&#45;&gt;Node0x571f449b69c0 -->
<g id="edge21" class="edge">
<title>Node0x571f449b6f20&#45;&gt;Node0x571f449b69c0</title>
<path fill="none" stroke="#4a6fa5" d="M407.18,-845.58C460.16,-833.62 528.65,-818.17 572.95,-808.17"/>
<polygon fill="#4a6fa5" stroke="#4a6fa5" points="573.56,-810.54 579.85,-806.61 572.48,-805.76 573.56,-810.54"/>
</g>
<!-- Node0x571f449b6930 -->
<g id="node25" class="node">
<title>Node0x571f449b6930</title>
<path fill="#f0f4ff" stroke="black" d="M118.5,-10955C118.5,-10955 22.5,-10955 22.5,-10955 16.5,-10955 10.5,-10949 10.5,-10943 10.5,-10943 10.5,-10931 10.5,-10931 10.5,-10925 16.5,-10919 22.5,-10919 22.5,-10919 118.5,-10919 118.5,-10919 124.5,-10919 130.5,-10925 130.5,-10931 130.5,-10931 130.5,-10943 130.5,-10943 130.5,-10949 124.5,-10955 118.5,-10955"/>
<text text-anchor="middle" x="70.5" y="-10934.8" font-family="Courier,monospace" font-size="9.00">{__cxa_pure_virtual}</text>
</g>
</g>
</svg>
