<?xml version="1.0" encoding="UTF-8" standalone="no"?>
<!DOCTYPE svg PUBLIC "-//W3C//DTD SVG 1.1//EN"
 "http://www.w3.org/Graphics/SVG/1.1/DTD/svg11.dtd">
<!-- Generated by graphviz version 2.43.0 (0)
 -->
<!-- Title: Call graph: /home/h02332/po/research/call&#45;graph/cfl/icc_roundtrip_fuzzer.ll Pages: 1 -->
<svg width="685pt" height="775pt"
 viewBox="0.00 0.00 685.20 775.20" xmlns="http://www.w3.org/2000/svg" xmlns:xlink="http://www.w3.org/1999/xlink">
<g id="graph0" class="graph" transform="scale(1 1) rotate(0) translate(21.6 753.6)">
<title>Call graph: /home/h02332/po/research/call&#45;graph/cfl/icc_roundtrip_fuzzer.ll</title>
<polygon fill="white" stroke="transparent" points="-21.6,21.6 -21.6,-753.6 663.6,-753.6 663.6,21.6 -21.6,21.6"/>
<!-- Node0x645f3a90b670 -->
<g id="node1" class="node">
<title>Node0x645f3a90b670</title>
<path fill="#f0f4ff" stroke="black" d="M124,-355C124,-355 20,-355 20,-355 14,-355 8,-349 8,-343 8,-343 8,-331 8,-331 8,-325 14,-319 20,-319 20,-319 124,-319 124,-319 130,-319 136,-325 136,-331 136,-331 136,-343 136,-343 136,-349 130,-355 124,-355"/>
<text text-anchor="middle" x="72" y="-334.8" font-family="Courier,monospace" font-size="9.00">LLVMFuzzerTestOneInput</text>
</g>
<!-- Node0x645f3a90b500 -->
<g id="node2" class="node">
<title>Node0x645f3a90b500</title>
<path fill="#f0f4ff" stroke="black" d="M326,-674C326,-674 269,-674 269,-674 263,-674 257,-668 257,-662 257,-662 257,-650 257,-650 257,-644 263,-638 269,-638 269,-638 326,-638 326,-638 332,-638 338,-644 338,-650 338,-650 338,-662 338,-662 338,-668 332,-674 326,-674"/>
<text text-anchor="middle" x="297.5" y="-653.8" font-family="Courier,monospace" font-size="9.00">fuzz_tmpdir()</text>
</g>
<!-- Node0x645f3a90b670&#45;&gt;Node0x645f3a90b500 -->
<g id="edge1" class="edge">
<title>Node0x645f3a90b670&#45;&gt;Node0x645f3a90b500</title>
<path fill="none" stroke="#4a6fa5" d="M75.73,-355.01C84.37,-405.67 115.8,-550.63 202,-627 215.5,-638.96 233.84,-645.99 250.77,-650.12"/>
<polygon fill="#4a6fa5" stroke="#4a6fa5" points="250.62,-652.24 256.94,-651.51 251.55,-648.14 250.62,-652.24"/>
</g>
<!-- Node0x645f3a8c06c0 -->
<g id="node3" class="node">
<title>Node0x645f3a8c06c0</title>
<path fill="#f0f4ff" stroke="black" d="M336.5,-616C336.5,-616 258.5,-616 258.5,-616 252.5,-616 246.5,-610 246.5,-604 246.5,-604 246.5,-592 246.5,-592 246.5,-586 252.5,-580 258.5,-580 258.5,-580 336.5,-580 336.5,-580 342.5,-580 348.5,-586 348.5,-592 348.5,-592 348.5,-604 348.5,-604 348.5,-610 342.5,-616 336.5,-616"/>
<text text-anchor="middle" x="297.5" y="-595.8" font-family="Courier,monospace" font-size="9.00">fuzz_build_path()</text>
</g>
<!-- Node0x645f3a90b670&#45;&gt;Node0x645f3a8c06c0 -->
<g id="edge2" class="edge">
<title>Node0x645f3a90b670&#45;&gt;Node0x645f3a8c06c0</title>
<path fill="none" stroke="#4a6fa5" d="M77.95,-355.15C90.78,-398.74 129.29,-510.13 202,-569 213.09,-577.98 226.94,-584.18 240.59,-588.47"/>
<polygon fill="#4a6fa5" stroke="#4a6fa5" points="240.07,-590.5 246.42,-590.19 241.26,-586.48 240.07,-590.5"/>
</g>
<!-- Node0x645f3a90a770 -->
<g id="node4" class="node">
<title>Node0x645f3a90a770</title>
<path fill="#f0f4ff" stroke="black" d="M312.5,-558C312.5,-558 282.5,-558 282.5,-558 276.5,-558 270.5,-552 270.5,-546 270.5,-546 270.5,-534 270.5,-534 270.5,-528 276.5,-522 282.5,-522 282.5,-522 312.5,-522 312.5,-522 318.5,-522 324.5,-528 324.5,-534 324.5,-534 324.5,-546 324.5,-546 324.5,-552 318.5,-558 312.5,-558"/>
<text text-anchor="middle" x="297.5" y="-537.8" font-family="Courier,monospace" font-size="9.00">mkstemp</text>
</g>
<!-- Node0x645f3a90b670&#45;&gt;Node0x645f3a90a770 -->
<g id="edge3" class="edge">
<title>Node0x645f3a90b670&#45;&gt;Node0x645f3a90a770</title>
<path fill="none" stroke="#4a6fa5" d="M81.55,-355.26C99.06,-390.68 142.43,-468.89 202,-511 220.46,-524.05 244.95,-531.35 264.37,-535.36"/>
<polygon fill="#4a6fa5" stroke="#4a6fa5" points="264.19,-537.46 270.48,-536.55 265,-533.34 264.19,-537.46"/>
</g>
<!-- Node0x645f3a90e8b0 -->
<g id="node5" class="node">
<title>Node0x645f3a90e8b0</title>
<path fill="#f0f4ff" stroke="black" d="M347,-500C347,-500 248,-500 248,-500 242,-500 236,-494 236,-488 236,-488 236,-476 236,-476 236,-470 242,-464 248,-464 248,-464 347,-464 347,-464 353,-464 359,-470 359,-476 359,-476 359,-488 359,-488 359,-494 353,-500 347,-500"/>
<text text-anchor="middle" x="297.5" y="-479.8" font-family="Courier,monospace" font-size="9.00">CIccInfo::~CIccInfo()</text>
</g>
<!-- Node0x645f3a90b670&#45;&gt;Node0x645f3a90e8b0 -->
<g id="edge4" class="edge">
<title>Node0x645f3a90b670&#45;&gt;Node0x645f3a90e8b0</title>
<path fill="none" stroke="#4a6fa5" d="M88.64,-355.39C111.2,-380.83 155.34,-426.59 202,-453 210.74,-457.95 220.42,-462.15 230.16,-465.68"/>
<polygon fill="#4a6fa5" stroke="#4a6fa5" points="229.53,-467.69 235.89,-467.69 230.92,-463.73 229.53,-467.69"/>
</g>
<!-- Node0x645f3a90c300 -->
<g id="node6" class="node">
<title>Node0x645f3a90c300</title>
<path fill="#f0f4ff" stroke="black" d="M376,-442C376,-442 219,-442 219,-442 213,-442 207,-436 207,-430 207,-430 207,-418 207,-418 207,-412 213,-406 219,-406 219,-406 376,-406 376,-406 382,-406 388,-412 388,-418 388,-418 388,-430 388,-430 388,-436 382,-442 376,-442"/>
<text text-anchor="middle" x="297.5" y="-421.8" font-family="Courier,monospace" font-size="9.00">CIccMinMaxEval::CIccMinMaxEval()</text>
</g>
<!-- Node0x645f3a90b670&#45;&gt;Node0x645f3a90c300 -->
<g id="edge5" class="edge">
<title>Node0x645f3a90b670&#45;&gt;Node0x645f3a90c300</title>
<path fill="none" stroke="#4a6fa5" d="M110.02,-355.13C135.53,-367.25 170.4,-383.1 202,-395 210.37,-398.15 219.24,-401.22 228.07,-404.11"/>
<polygon fill="#4a6fa5" stroke="#4a6fa5" points="227.5,-406.13 233.86,-405.98 228.8,-402.14 227.5,-406.13"/>
</g>
<!-- Node0x645f3a90e930 -->
<g id="node7" class="node">
<title>Node0x645f3a90e930</title>
<path fill="#f0f4ff" stroke="black" d="M381,-384C381,-384 214,-384 214,-384 208,-384 202,-378 202,-372 202,-372 202,-360 202,-360 202,-354 208,-348 214,-348 214,-348 381,-348 381,-348 387,-348 393,-354 393,-360 393,-360 393,-372 393,-372 393,-378 387,-384 381,-384"/>
<text text-anchor="middle" x="297.5" y="-363.8" font-family="Courier,monospace" font-size="9.00">CIccEvalCompare::EvaluateProfile()</text>
</g>
<!-- Node0x645f3a90b670&#45;&gt;Node0x645f3a90e930 -->
<g id="edge6" class="edge">
<title>Node0x645f3a90b670&#45;&gt;Node0x645f3a90e930</title>
<path fill="none" stroke="#4a6fa5" d="M136.15,-345.19C154.71,-347.6 175.5,-350.3 195.79,-352.93"/>
<polygon fill="#4a6fa5" stroke="#4a6fa5" points="195.57,-355.02 201.79,-353.71 196.11,-350.86 195.57,-355.02"/>
</g>
<!-- Node0x645f3a9256f0 -->
<g id="node8" class="node">
<title>Node0x645f3a9256f0</title>
<path fill="#f0f4ff" stroke="black" d="M381,-326C381,-326 214,-326 214,-326 208,-326 202,-320 202,-314 202,-314 202,-302 202,-302 202,-296 208,-290 214,-290 214,-290 381,-290 381,-290 387,-290 393,-296 393,-302 393,-302 393,-314 393,-314 393,-320 387,-326 381,-326"/>
<text text-anchor="middle" x="297.5" y="-305.8" font-family="Courier,monospace" font-size="9.00">CIccInfo::GetRenderingIntentName()</text>
</g>
<!-- Node0x645f3a90b670&#45;&gt;Node0x645f3a9256f0 -->
<g id="edge7" class="edge">
<title>Node0x645f3a90b670&#45;&gt;Node0x645f3a9256f0</title>
<path fill="none" stroke="#4a6fa5" d="M136.15,-328.81C154.71,-326.4 175.5,-323.7 195.79,-321.07"/>
<polygon fill="#4a6fa5" stroke="#4a6fa5" points="196.11,-323.14 201.79,-320.29 195.57,-318.98 196.11,-323.14"/>
</g>
<!-- Node0x645f3a90e6b0 -->
<g id="node9" class="node">
<title>Node0x645f3a90e6b0</title>
<path fill="#f0f4ff" stroke="black" d="M344.5,-268C344.5,-268 250.5,-268 250.5,-268 244.5,-268 238.5,-262 238.5,-256 238.5,-256 238.5,-244 238.5,-244 238.5,-238 244.5,-232 250.5,-232 250.5,-232 344.5,-232 344.5,-232 350.5,-232 356.5,-238 356.5,-244 356.5,-244 356.5,-256 356.5,-256 356.5,-262 350.5,-268 344.5,-268"/>
<text text-anchor="middle" x="297.5" y="-247.8" font-family="Courier,monospace" font-size="9.00">CIccPRMG::CIccPRMG()</text>
</g>
<!-- Node0x645f3a90b670&#45;&gt;Node0x645f3a90e6b0 -->
<g id="edge8" class="edge">
<title>Node0x645f3a90b670&#45;&gt;Node0x645f3a90e6b0</title>
<path fill="none" stroke="#4a6fa5" d="M110.02,-318.87C135.53,-306.75 170.4,-290.9 202,-279 211.73,-275.33 222.15,-271.78 232.39,-268.49"/>
<polygon fill="#4a6fa5" stroke="#4a6fa5" points="233.31,-270.4 238.39,-266.58 232.04,-266.4 233.31,-270.4"/>
</g>
<!-- Node0x645f3a90e430 -->
<g id="node10" class="node">
<title>Node0x645f3a90e430</title>
<path fill="#f0f4ff" stroke="black" d="M362.5,-210C362.5,-210 232.5,-210 232.5,-210 226.5,-210 220.5,-204 220.5,-198 220.5,-198 220.5,-186 220.5,-186 220.5,-180 226.5,-174 232.5,-174 232.5,-174 362.5,-174 362.5,-174 368.5,-174 374.5,-180 374.5,-186 374.5,-186 374.5,-198 374.5,-198 374.5,-204 368.5,-210 362.5,-210"/>
<text text-anchor="middle" x="297.5" y="-189.8" font-family="Courier,monospace" font-size="9.00">CIccPRMG::EvaluateProfile()</text>
</g>
<!-- Node0x645f3a90b670&#45;&gt;Node0x645f3a90e430 -->
<g id="edge9" class="edge">
<title>Node0x645f3a90b670&#45;&gt;Node0x645f3a90e430</title>
<path fill="none" stroke="#4a6fa5" d="M88.64,-318.61C111.2,-293.17 155.34,-247.41 202,-221 207.6,-217.83 213.59,-214.96 219.74,-212.38"/>
<polygon fill="#4a6fa5" stroke="#4a6fa5" points="220.64,-214.29 225.42,-210.09 219.07,-210.39 220.64,-214.29"/>
</g>
<!-- Node0x645f3a92c140 -->
<g id="node11" class="node">
<title>Node0x645f3a92c140</title>
<path fill="#f0f4ff" stroke="black" d="M344.5,-152C344.5,-152 250.5,-152 250.5,-152 244.5,-152 238.5,-146 238.5,-140 238.5,-140 238.5,-128 238.5,-128 238.5,-122 244.5,-116 250.5,-116 250.5,-116 344.5,-116 344.5,-116 350.5,-116 356.5,-122 356.5,-128 356.5,-128 356.5,-140 356.5,-140 356.5,-146 350.5,-152 344.5,-152"/>
<text text-anchor="middle" x="297.5" y="-131.8" font-family="Courier,monospace" font-size="9.00">CIccInfo::CIccInfo()</text>
</g>
<!-- Node0x645f3a90b670&#45;&gt;Node0x645f3a92c140 -->
<g id="edge10" class="edge">
<title>Node0x645f3a90b670&#45;&gt;Node0x645f3a92c140</title>
<path fill="none" stroke="#4a6fa5" d="M81.55,-318.74C99.06,-283.32 142.43,-205.11 202,-163 211.1,-156.56 221.67,-151.53 232.38,-147.59"/>
<polygon fill="#4a6fa5" stroke="#4a6fa5" points="233.36,-149.48 238.33,-145.52 231.98,-145.51 233.36,-149.48"/>
</g>
<!-- Node0x645f3a90e1b0 -->
<g id="node12" class="node">
<title>Node0x645f3a90e1b0</title>
<path fill="#f0f4ff" stroke="black" d="M360,-94C360,-94 235,-94 235,-94 229,-94 223,-88 223,-82 223,-82 223,-70 223,-70 223,-64 229,-58 235,-58 235,-58 360,-58 360,-58 366,-58 372,-64 372,-70 372,-70 372,-82 372,-82 372,-88 366,-94 360,-94"/>
<text text-anchor="middle" x="297.5" y="-73.8" font-family="Courier,monospace" font-size="9.00">CIccMinMaxEval::GetMean1()</text>
</g>
<!-- Node0x645f3a90b670&#45;&gt;Node0x645f3a90e1b0 -->
<g id="edge11" class="edge">
<title>Node0x645f3a90b670&#45;&gt;Node0x645f3a90e1b0</title>
<path fill="none" stroke="#4a6fa5" d="M77.95,-318.85C90.78,-275.26 129.29,-163.87 202,-105 206.7,-101.19 211.9,-97.89 217.37,-95.01"/>
<polygon fill="#4a6fa5" stroke="#4a6fa5" points="218.47,-96.81 222.92,-92.28 216.61,-93.04 218.47,-96.81"/>
</g>
<!-- Node0x645f3a92c270 -->
<g id="node13" class="node">
<title>Node0x645f3a92c270</title>
<path fill="#f0f4ff" stroke="black" d="M360,-36C360,-36 235,-36 235,-36 229,-36 223,-30 223,-24 223,-24 223,-12 223,-12 223,-6 229,0 235,0 235,0 360,0 360,0 366,0 372,-6 372,-12 372,-12 372,-24 372,-24 372,-30 366,-36 360,-36"/>
<text text-anchor="middle" x="297.5" y="-15.8" font-family="Courier,monospace" font-size="9.00">CIccMinMaxEval::GetMean2()</text>
</g>
<!-- Node0x645f3a90b670&#45;&gt;Node0x645f3a92c270 -->
<g id="edge12" class="edge">
<title>Node0x645f3a90b670&#45;&gt;Node0x645f3a92c270</title>
<path fill="none" stroke="#4a6fa5" d="M75.73,-318.99C84.37,-268.33 115.8,-123.37 202,-47 206.62,-42.9 211.82,-39.38 217.33,-36.36"/>
<polygon fill="#4a6fa5" stroke="#4a6fa5" points="218.54,-38.1 222.93,-33.51 216.63,-34.36 218.54,-38.1"/>
</g>
<!-- Node0x645f3a92de10 -->
<g id="node14" class="node">
<title>Node0x645f3a92de10</title>
<path fill="#f0f4ff" stroke="black" d="M630,-442C630,-442 463,-442 463,-442 457,-442 451,-436 451,-430 451,-430 451,-418 451,-418 451,-412 457,-406 463,-406 463,-406 630,-406 630,-406 636,-406 642,-412 642,-418 642,-418 642,-430 642,-430 642,-436 636,-442 630,-442"/>
<text text-anchor="middle" x="546.5" y="-421.8" font-family="Courier,monospace" font-size="9.00">CIccEvalCompare::CIccEvalCompare()</text>
</g>
<!-- Node0x645f3a90c300&#45;&gt;Node0x645f3a92de10 -->
<g id="edge13" class="edge">
<title>Node0x645f3a90c300&#45;&gt;Node0x645f3a92de10</title>
<path fill="none" stroke="#4a6fa5" d="M388.02,-424C406.38,-424 425.82,-424 444.55,-424"/>
<polygon fill="#4a6fa5" stroke="#4a6fa5" points="444.87,-426.1 450.87,-424 444.87,-421.9 444.87,-426.1"/>
</g>
<!-- Node0x645f3a931f30 -->
<g id="node15" class="node">
<title>Node0x645f3a931f30</title>
<path fill="#f0f4ff" stroke="black" d="M132,-732C132,-732 12,-732 12,-732 6,-732 0,-726 0,-720 0,-720 0,-708 0,-708 0,-702 6,-696 12,-696 12,-696 132,-696 132,-696 138,-696 144,-702 144,-708 144,-708 144,-720 144,-720 144,-726 138,-732 132,-732"/>
<text text-anchor="middle" x="72" y="-711.8" font-family="Courier,monospace" font-size="9.00">CIccMinMaxEval::Compare()</text>
</g>
<!-- Node0x645f3a9319d0 -->
<g id="node16" class="node">
<title>Node0x645f3a9319d0</title>
<path fill="#f0f4ff" stroke="black" d="M318,-732C318,-732 277,-732 277,-732 271,-732 265,-726 265,-720 265,-720 265,-708 265,-708 265,-702 271,-696 277,-696 277,-696 318,-696 318,-696 324,-696 330,-702 330,-708 330,-708 330,-720 330,-720 330,-726 324,-732 318,-732"/>
<text text-anchor="middle" x="297.5" y="-711.8" font-family="Courier,monospace" font-size="9.00">icDeltaE()</text>
</g>
<!-- Node0x645f3a931f30&#45;&gt;Node0x645f3a9319d0 -->
<g id="edge14" class="edge">
<title>Node0x645f3a931f30&#45;&gt;Node0x645f3a9319d0</title>
<path fill="none" stroke="#4a6fa5" d="M144.02,-714C182.13,-714 227.56,-714 258.86,-714"/>
<polygon fill="#4a6fa5" stroke="#4a6fa5" points="258.92,-716.1 264.92,-714 258.92,-711.9 258.92,-716.1"/>
</g>
</g>
</svg>
