<?xml version="1.0" encoding="UTF-8" standalone="no"?>
<!DOCTYPE svg PUBLIC "-//W3C//DTD SVG 1.1//EN"
 "http://www.w3.org/Graphics/SVG/1.1/DTD/svg11.dtd">
<!-- Generated by graphviz version 2.43.0 (0)
 -->
<!-- Title: iccApplyProfiles Pages: 1 -->
<svg width="5444pt" height="177pt"
 viewBox="0.00 0.00 5444.00 177.00" xmlns="http://www.w3.org/2000/svg" xmlns:xlink="http://www.w3.org/1999/xlink">
<g id="graph0" class="graph" transform="scale(1 1) rotate(0) translate(4 173)">
<title>iccApplyProfiles</title>
<polygon fill="white" stroke="transparent" points="-4,4 -4,-173 5440,-173 5440,4 -4,4"/>
<g id="clust1" class="cluster">
<title>cluster_legend</title>
<polygon fill="none" stroke="black" stroke-dasharray="5,2" points="930,-91 930,-161 1291,-161 1291,-91 930,-91"/>
<text text-anchor="middle" x="1110.5" y="-149.8" font-family="Times,serif" font-size="9.00">Legend</text>
</g>
<g id="clust2" class="cluster">
<title>cluster_config</title>
<path fill="none" stroke="black" d="M2388,-8C2388,-8 2718,-8 2718,-8 2724,-8 2730,-14 2730,-20 2730,-20 2730,-71 2730,-71 2730,-77 2724,-83 2718,-83 2718,-83 2388,-83 2388,-83 2382,-83 2376,-77 2376,-71 2376,-71 2376,-20 2376,-20 2376,-14 2382,-8 2388,-8"/>
<text text-anchor="middle" x="2553" y="-67.8" font-family="Times,serif" font-size="14.00">Phase 1: Config Parsing</text>
</g>
<g id="clust3" class="cluster">
<title>cluster_tiff_src</title>
<path fill="none" stroke="black" d="M20,-8C20,-8 1128,-8 1128,-8 1134,-8 1140,-14 1140,-20 1140,-20 1140,-71 1140,-71 1140,-77 1134,-83 1128,-83 1128,-83 20,-83 20,-83 14,-83 8,-77 8,-71 8,-71 8,-20 8,-20 8,-14 14,-8 20,-8"/>
<text text-anchor="middle" x="574" y="-67.8" font-family="Times,serif" font-size="14.00">Phase 2: Source Image</text>
</g>
<g id="clust4" class="cluster">
<title>cluster_cmm_build</title>
<path fill="none" stroke="black" d="M2750,-8C2750,-8 3760,-8 3760,-8 3766,-8 3772,-14 3772,-20 3772,-20 3772,-71 3772,-71 3772,-77 3766,-83 3760,-83 3760,-83 2750,-83 2750,-83 2744,-83 2738,-77 2738,-71 2738,-71 2738,-20 2738,-20 2738,-14 2744,-8 2750,-8"/>
<text text-anchor="middle" x="3255" y="-67.8" font-family="Times,serif" font-size="14.00">Phase 3: CMM Construction</text>
</g>
<g id="clust5" class="cluster">
<title>cluster_cmm_exec</title>
<path fill="none" stroke="black" d="M3792,-8C3792,-8 4982,-8 4982,-8 4988,-8 4994,-14 4994,-20 4994,-20 4994,-71 4994,-71 4994,-77 4988,-83 4982,-83 4982,-83 3792,-83 3792,-83 3786,-83 3780,-77 3780,-71 3780,-71 3780,-20 3780,-20 3780,-14 3786,-8 3792,-8"/>
<text text-anchor="middle" x="4387" y="-67.8" font-family="Times,serif" font-size="14.00">Phase 4: CMM Execution</text>
</g>
<g id="clust6" class="cluster">
<title>cluster_tiff_dst</title>
<path fill="none" stroke="black" d="M1160,-8C1160,-8 1757,-8 1757,-8 1763,-8 1769,-14 1769,-20 1769,-20 1769,-71 1769,-71 1769,-77 1763,-83 1757,-83 1757,-83 1160,-83 1160,-83 1154,-83 1148,-77 1148,-71 1148,-71 1148,-20 1148,-20 1148,-14 1154,-8 1160,-8"/>
<text text-anchor="middle" x="1458.5" y="-67.8" font-family="Times,serif" font-size="14.00">Phase 5: Dest Image</text>
</g>
<g id="clust7" class="cluster">
<title>cluster_pixel</title>
<path fill="none" stroke="black" d="M1789,-8C1789,-8 2356,-8 2356,-8 2362,-8 2368,-14 2368,-20 2368,-20 2368,-71 2368,-71 2368,-77 2362,-83 2356,-83 2356,-83 1789,-83 1789,-83 1783,-83 1777,-77 1777,-71 1777,-71 1777,-20 1777,-20 1777,-14 1783,-8 1789,-8"/>
<text text-anchor="middle" x="2072.5" y="-67.8" font-family="Times,serif" font-size="14.00">Phase 6: Pixel Loop</text>
</g>
<g id="clust8" class="cluster">
<title>cluster_fuzzer_extra</title>
<path fill="none" stroke="black" d="M5014,-8C5014,-8 5416,-8 5416,-8 5422,-8 5428,-14 5428,-20 5428,-20 5428,-71 5428,-71 5428,-77 5422,-83 5416,-83 5416,-83 5014,-83 5014,-83 5008,-83 5002,-77 5002,-71 5002,-71 5002,-20 5002,-20 5002,-14 5008,-8 5014,-8"/>
<text text-anchor="middle" x="5215" y="-67.8" font-family="Times,serif" font-size="14.00">Phase 7: Fuzzer Extras</text>
</g>
<!-- leg_both -->
<g id="node1" class="node">
<title>leg_both</title>
<polygon fill="#90ee90" stroke="black" points="1283,-135 1189,-135 1189,-99 1283,-99 1283,-135"/>
<text text-anchor="middle" x="1236" y="-114.5" font-family="Helvetica,sans-Serif" font-size="10.00">In Tool + Fuzzer</text>
</g>
<!-- leg_tool -->
<g id="node2" class="node">
<title>leg_tool</title>
<polygon fill="#add8e6" stroke="black" points="1171,-135 1109,-135 1109,-99 1171,-99 1171,-135"/>
<text text-anchor="middle" x="1140" y="-114.5" font-family="Helvetica,sans-Serif" font-size="10.00">Tool Only</text>
</g>
<!-- leg_cli -->
<g id="node3" class="node">
<title>leg_cli</title>
<polygon fill="#d3d3d3" stroke="black" points="1090.5,-135 1033.5,-135 1033.5,-99 1090.5,-99 1090.5,-135"/>
<text text-anchor="middle" x="1062" y="-114.5" font-family="Helvetica,sans-Serif" font-size="10.00">CLI Only</text>
</g>
<!-- leg_fuzzer -->
<g id="node4" class="node">
<title>leg_fuzzer</title>
<polygon fill="#ffd700" stroke="black" points="1015.5,-135 938.5,-135 938.5,-99 1015.5,-99 1015.5,-135"/>
<text text-anchor="middle" x="977" y="-114.5" font-family="Helvetica,sans-Serif" font-size="10.00">Fuzzer Extra</text>
</g>
<!-- main -->
<g id="node5" class="node">
<title>main</title>
<ellipse fill="#ff6b6b" stroke="black" cx="2303" cy="-117" rx="80.72" ry="21.43"/>
<text text-anchor="middle" x="2303" y="-120" font-family="Helvetica,sans-Serif" font-size="10.00">main()</text>
<text text-anchor="middle" x="2303" y="-109" font-family="Helvetica,sans-Serif" font-size="10.00">iccApplyProfiles.cpp</text>
</g>
<!-- n0 -->
<g id="node7" class="node">
<title>n0</title>
<polygon fill="#d3d3d3" stroke="black" points="2721.5,-52 2568.5,-52 2568.5,-16 2721.5,-16 2721.5,-52"/>
<text text-anchor="middle" x="2645" y="-37" font-family="Helvetica,sans-Serif" font-size="10.00">CIccCfgDataApply::fromJson</text>
<text text-anchor="middle" x="2645" y="-26" font-family="Helvetica,sans-Serif" font-size="10.00">L158</text>
</g>
<!-- main&#45;&gt;n0 -->
<g id="edge1" class="edge">
<title>main&#45;&gt;n0</title>
<path fill="none" stroke="black" stroke-dasharray="5,2" d="M2382.63,-113.67C2434.31,-110.25 2502.48,-102.12 2560,-83 2578.15,-76.97 2596.81,-66.93 2612.01,-57.58"/>
<polygon fill="black" stroke="black" points="2613.95,-60.5 2620.53,-52.2 2610.21,-54.58 2613.95,-60.5"/>
</g>
<!-- n1 -->
<g id="node8" class="node">
<title>n1</title>
<polygon fill="#d3d3d3" stroke="black" points="2550.5,-52 2383.5,-52 2383.5,-16 2550.5,-16 2550.5,-52"/>
<text text-anchor="middle" x="2467" y="-37" font-family="Helvetica,sans-Serif" font-size="10.00">CIccCfgDataApply::fromLegacy</text>
<text text-anchor="middle" x="2467" y="-26" font-family="Helvetica,sans-Serif" font-size="10.00">L193</text>
</g>
<!-- main&#45;&gt;n1 -->
<g id="edge2" class="edge">
<title>main&#45;&gt;n1</title>
<path fill="none" stroke="black" stroke-dasharray="5,2" d="M2340.67,-98.16C2350.86,-93.29 2361.87,-87.98 2372,-83 2389.19,-74.55 2408.03,-65.07 2424.37,-56.79"/>
<polygon fill="black" stroke="black" points="2426.34,-59.71 2433.67,-52.06 2423.17,-53.47 2426.34,-59.71"/>
</g>
<!-- n2 -->
<g id="node9" class="node">
<title>n2</title>
<polygon fill="#add8e6" stroke="black" points="540.5,-52 451.5,-52 451.5,-16 540.5,-16 540.5,-52"/>
<text text-anchor="middle" x="496" y="-37" font-family="Helvetica,sans-Serif" font-size="10.00">CTiffImg::Open</text>
<text text-anchor="middle" x="496" y="-26" font-family="Helvetica,sans-Serif" font-size="10.00">L206</text>
</g>
<!-- main&#45;&gt;n2 -->
<g id="edge3" class="edge">
<title>main&#45;&gt;n2</title>
<path fill="none" stroke="black" stroke-dasharray="5,2" d="M2223.3,-113.64C2052.93,-108.69 1640.68,-97.14 1295,-91 1274.28,-90.63 568.3,-90.56 549,-83 536.54,-78.12 525.17,-68.84 516.19,-59.72"/>
<polygon fill="black" stroke="black" points="518.6,-57.17 509.23,-52.21 513.46,-61.93 518.6,-57.17"/>
</g>
<!-- n3 -->
<g id="node10" class="node">
<title>n3</title>
<polygon fill="#add8e6" stroke="black" points="433.5,-52 310.5,-52 310.5,-16 433.5,-16 433.5,-52"/>
<text text-anchor="middle" x="372" y="-37" font-family="Helvetica,sans-Serif" font-size="10.00">CTiffImg::GetSamples</text>
<text text-anchor="middle" x="372" y="-26" font-family="Helvetica,sans-Serif" font-size="10.00">L210</text>
</g>
<!-- main&#45;&gt;n3 -->
<g id="edge4" class="edge">
<title>main&#45;&gt;n3</title>
<path fill="none" stroke="black" stroke-dasharray="5,2" d="M2223.3,-113.61C2052.94,-108.58 1640.68,-96.91 1295,-91 1271.31,-90.6 464.6,-90.12 442,-83 426.13,-78 410.64,-68.07 398.28,-58.53"/>
<polygon fill="black" stroke="black" points="400.24,-55.61 390.26,-52.06 395.84,-61.06 400.24,-55.61"/>
</g>
<!-- n4 -->
<g id="node11" class="node">
<title>n4</title>
<polygon fill="#add8e6" stroke="black" points="292.5,-52 143.5,-52 143.5,-16 292.5,-16 292.5,-52"/>
<text text-anchor="middle" x="218" y="-37" font-family="Helvetica,sans-Serif" font-size="10.00">CTiffImg::GetExtraSamples</text>
<text text-anchor="middle" x="218" y="-26" font-family="Helvetica,sans-Serif" font-size="10.00">L211</text>
</g>
<!-- main&#45;&gt;n4 -->
<g id="edge5" class="edge">
<title>main&#45;&gt;n4</title>
<path fill="none" stroke="black" stroke-dasharray="5,2" d="M2223.3,-113.57C2052.94,-108.47 1640.68,-96.68 1295,-91 1267.39,-90.55 327.64,-90.26 301,-83 282.34,-77.91 263.52,-67.55 248.53,-57.76"/>
<polygon fill="black" stroke="black" points="250.42,-54.81 240.18,-52.1 246.49,-60.61 250.42,-54.81"/>
</g>
<!-- n5 -->
<g id="node12" class="node">
<title>n5</title>
<polygon fill="#add8e6" stroke="black" points="125.5,-52 16.5,-52 16.5,-16 125.5,-16 125.5,-52"/>
<text text-anchor="middle" x="71" y="-37" font-family="Helvetica,sans-Serif" font-size="10.00">CTiffImg::GetPhoto</text>
<text text-anchor="middle" x="71" y="-26" font-family="Helvetica,sans-Serif" font-size="10.00">L212</text>
</g>
<!-- main&#45;&gt;n5 -->
<g id="edge6" class="edge">
<title>main&#45;&gt;n5</title>
<path fill="none" stroke="black" stroke-dasharray="5,2" d="M2223.3,-113.54C2052.94,-108.38 1640.69,-96.48 1295,-91 1278.88,-90.74 149.26,-88.21 134,-83 119.44,-78.03 105.58,-68.24 94.58,-58.79"/>
<polygon fill="black" stroke="black" points="96.88,-56.15 87.11,-52.04 92.19,-61.34 96.88,-56.15"/>
</g>
<!-- n6 -->
<g id="node13" class="node">
<title>n6</title>
<polygon fill="#add8e6" stroke="black" points="1132,-52 980,-52 980,-16 1132,-16 1132,-52"/>
<text text-anchor="middle" x="1056" y="-37" font-family="Helvetica,sans-Serif" font-size="10.00">CTiffImg::GetBitsPerSample</text>
<text text-anchor="middle" x="1056" y="-26" font-family="Helvetica,sans-Serif" font-size="10.00">L213</text>
</g>
<!-- main&#45;&gt;n6 -->
<g id="edge7" class="edge">
<title>main&#45;&gt;n6</title>
<path fill="none" stroke="black" stroke-dasharray="5,2" d="M2222.65,-114.21C1964.28,-108.41 1170.02,-90.03 1144,-83 1124.62,-77.76 1104.84,-67.5 1088.95,-57.8"/>
<polygon fill="black" stroke="black" points="1090.4,-54.58 1080.08,-52.2 1086.66,-60.5 1090.4,-54.58"/>
</g>
<!-- n7 -->
<g id="node14" class="node">
<title>n7</title>
<polygon fill="#add8e6" stroke="black" points="961.5,-52 836.5,-52 836.5,-16 961.5,-16 961.5,-52"/>
<text text-anchor="middle" x="899" y="-37" font-family="Helvetica,sans-Serif" font-size="10.00">CTiffImg::GetIccProfile</text>
<text text-anchor="middle" x="899" y="-26" font-family="Helvetica,sans-Serif" font-size="10.00">L251</text>
</g>
<!-- main&#45;&gt;n7 -->
<g id="edge8" class="edge">
<title>main&#45;&gt;n7</title>
<path fill="none" stroke="black" stroke-dasharray="5,2" d="M2222.97,-114.01C2052.39,-109.78 1640.41,-99.55 1295,-91 1259,-90.11 1005.33,-93.86 971,-83 954.79,-77.87 938.83,-67.89 926.08,-58.36"/>
<polygon fill="black" stroke="black" points="928.23,-55.59 918.19,-52.21 923.93,-61.12 928.23,-55.59"/>
</g>
<!-- n8 -->
<g id="node15" class="node">
<title>n8</title>
<polygon fill="#add8e6" stroke="black" points="818,-52 688,-52 688,-16 818,-16 818,-52"/>
<text text-anchor="middle" x="753" y="-37" font-family="Helvetica,sans-Serif" font-size="10.00">CTiffImg::GetCompress</text>
<text text-anchor="middle" x="753" y="-26" font-family="Helvetica,sans-Serif" font-size="10.00">L254</text>
</g>
<!-- main&#45;&gt;n8 -->
<g id="edge9" class="edge">
<title>main&#45;&gt;n8</title>
<path fill="none" stroke="black" stroke-dasharray="5,2" d="M2223.3,-113.82C2052.92,-109.19 1640.66,-98.25 1295,-91 1269.06,-90.46 852.84,-90.5 828,-83 811.13,-77.91 794.4,-67.83 781.05,-58.21"/>
<polygon fill="black" stroke="black" points="782.89,-55.22 772.79,-52.02 778.69,-60.82 782.89,-55.22"/>
</g>
<!-- n9 -->
<g id="node16" class="node">
<title>n9</title>
<polygon fill="#add8e6" stroke="black" points="670,-52 558,-52 558,-16 670,-16 670,-52"/>
<text text-anchor="middle" x="614" y="-37" font-family="Helvetica,sans-Serif" font-size="10.00">CTiffImg::GetPlanar</text>
<text text-anchor="middle" x="614" y="-26" font-family="Helvetica,sans-Serif" font-size="10.00">L255</text>
</g>
<!-- main&#45;&gt;n9 -->
<g id="edge10" class="edge">
<title>main&#45;&gt;n9</title>
<path fill="none" stroke="black" stroke-dasharray="5,2" d="M2223.3,-113.7C2052.93,-108.86 1640.67,-97.53 1295,-91 1277.89,-90.68 695.22,-88.46 679,-83 664.13,-78 649.84,-68.2 638.47,-58.76"/>
<polygon fill="black" stroke="black" points="640.58,-55.95 630.74,-52.02 635.98,-61.23 640.58,-55.95"/>
</g>
<!-- n10 -->
<g id="node17" class="node">
<title>n10</title>
<polygon fill="#90ee90" stroke="black" points="3764,-52 3648,-52 3648,-16 3764,-16 3764,-52"/>
<text text-anchor="middle" x="3706" y="-37" font-family="Helvetica,sans-Serif" font-size="10.00">CIccCmm::CIccCmm</text>
<text text-anchor="middle" x="3706" y="-26" font-family="Helvetica,sans-Serif" font-size="10.00">L262</text>
</g>
<!-- main&#45;&gt;n10 -->
<g id="edge11" class="edge">
<title>main&#45;&gt;n10</title>
<path fill="none" stroke="black" stroke-width="2" d="M2383.38,-115.32C2662.99,-112.78 3579.39,-102.96 3639,-83 3654.07,-77.95 3668.67,-68.25 3680.38,-58.89"/>
<polygon fill="black" stroke="black" stroke-width="2" points="3682.94,-61.3 3688.35,-52.2 3678.44,-55.94 3682.94,-61.3"/>
</g>
<!-- n11 -->
<g id="node18" class="node">
<title>n11</title>
<polygon fill="#add8e6" stroke="black" points="2832,-52 2746,-52 2746,-16 2832,-16 2832,-52"/>
<text text-anchor="middle" x="2789" y="-37" font-family="Helvetica,sans-Serif" font-size="10.00">OpenIccProfile</text>
<text text-anchor="middle" x="2789" y="-26" font-family="Helvetica,sans-Serif" font-size="10.00">L293</text>
</g>
<!-- main&#45;&gt;n11 -->
<g id="edge12" class="edge">
<title>main&#45;&gt;n11</title>
<path fill="none" stroke="black" stroke-dasharray="5,2" d="M2383.76,-115.84C2490.68,-114.61 2672.84,-108.64 2734,-83 2746.42,-77.79 2758,-68.64 2767.31,-59.71"/>
<polygon fill="black" stroke="black" points="2770.03,-61.94 2774.55,-52.36 2765.04,-57.03 2770.03,-61.94"/>
</g>
<!-- n12 -->
<g id="node19" class="node">
<title>n12</title>
<polygon fill="#90ee90" stroke="black" points="3630,-52 3468,-52 3468,-16 3630,-16 3630,-52"/>
<text text-anchor="middle" x="3549" y="-37" font-family="Helvetica,sans-Serif" font-size="10.00">CIccCreateXformHintManager</text>
<text text-anchor="middle" x="3549" y="-26" font-family="Helvetica,sans-Serif" font-size="10.00">L284</text>
</g>
<!-- main&#45;&gt;n12 -->
<g id="edge13" class="edge">
<title>main&#45;&gt;n12</title>
<path fill="none" stroke="black" stroke-width="2" d="M2383.72,-115.83C2629.16,-115.02 3356.02,-110.31 3459,-83 3478.93,-77.71 3499.35,-67.31 3515.69,-57.53"/>
<polygon fill="black" stroke="black" stroke-width="2" points="3517.65,-60.43 3524.32,-52.2 3513.97,-54.48 3517.65,-60.43"/>
</g>
<!-- n13 -->
<g id="node20" class="node">
<title>n13</title>
<polygon fill="#add8e6" stroke="black" points="3119.5,-52 3002.5,-52 3002.5,-16 3119.5,-16 3119.5,-52"/>
<text text-anchor="middle" x="3061" y="-37" font-family="Helvetica,sans-Serif" font-size="10.00">CIccCmmEnvVarHint</text>
<text text-anchor="middle" x="3061" y="-26" font-family="Helvetica,sans-Serif" font-size="10.00">L304</text>
</g>
<!-- main&#45;&gt;n13 -->
<g id="edge14" class="edge">
<title>main&#45;&gt;n13</title>
<path fill="none" stroke="black" stroke-dasharray="5,2" d="M2383.28,-114.68C2552.87,-111.53 2936.72,-102.35 2993,-83 3008.32,-77.73 3023.27,-67.87 3035.23,-58.45"/>
<polygon fill="black" stroke="black" points="3037.49,-61.11 3043,-52.06 3033.05,-55.71 3037.49,-61.11"/>
</g>
<!-- n14 -->
<g id="node21" class="node">
<title>n14</title>
<polygon fill="#add8e6" stroke="black" points="2984,-52 2850,-52 2850,-16 2984,-16 2984,-52"/>
<text text-anchor="middle" x="2917" y="-37" font-family="Helvetica,sans-Serif" font-size="10.00">CIccCmmPccEnvVarHint</text>
<text text-anchor="middle" x="2917" y="-26" font-family="Helvetica,sans-Serif" font-size="10.00">L308</text>
</g>
<!-- main&#45;&gt;n14 -->
<g id="edge15" class="edge">
<title>main&#45;&gt;n14</title>
<path fill="none" stroke="black" stroke-dasharray="5,2" d="M2383.62,-115.94C2512.36,-115.03 2758.29,-109.7 2841,-83 2857.69,-77.61 2874.37,-67.7 2887.84,-58.28"/>
<polygon fill="black" stroke="black" points="2890.16,-60.92 2896.19,-52.21 2886.04,-55.26 2890.16,-60.92"/>
</g>
<!-- n15 -->
<g id="node22" class="node">
<title>n15</title>
<polygon fill="#add8e6" stroke="black" points="3292,-52 3138,-52 3138,-16 3292,-16 3292,-52"/>
<text text-anchor="middle" x="3215" y="-37" font-family="Helvetica,sans-Serif" font-size="10.00">CIccCmm::AddXform(buffer)</text>
<text text-anchor="middle" x="3215" y="-26" font-family="Helvetica,sans-Serif" font-size="10.00">L314</text>
</g>
<!-- main&#45;&gt;n15 -->
<g id="edge16" class="edge">
<title>main&#45;&gt;n15</title>
<path fill="none" stroke="black" stroke-dasharray="5,2" d="M2383.39,-114.91C2577.04,-111.99 3058.63,-102.82 3129,-83 3147.99,-77.65 3167.32,-67.38 3182.84,-57.7"/>
<polygon fill="black" stroke="black" points="3185,-60.48 3191.51,-52.12 3181.2,-54.59 3185,-60.48"/>
</g>
<!-- n16 -->
<g id="node23" class="node">
<title>n16</title>
<polygon fill="#90ee90" stroke="black" points="3450,-52 3310,-52 3310,-16 3450,-16 3450,-52"/>
<text text-anchor="middle" x="3380" y="-37" font-family="Helvetica,sans-Serif" font-size="10.00">CIccCmm::AddXform(file)</text>
<text text-anchor="middle" x="3380" y="-26" font-family="Helvetica,sans-Serif" font-size="10.00">L334</text>
</g>
<!-- main&#45;&gt;n16 -->
<g id="edge17" class="edge">
<title>main&#45;&gt;n16</title>
<path fill="none" stroke="black" stroke-width="2" d="M2383.58,-115.68C2605.4,-114.48 3214.29,-108.83 3301,-83 3318.58,-77.76 3336.2,-67.64 3350.33,-58.03"/>
<polygon fill="black" stroke="black" stroke-width="2" points="3352.5,-60.79 3358.65,-52.16 3348.46,-55.07 3352.5,-60.79"/>
</g>
<!-- n17 -->
<g id="node24" class="node">
<title>n17</title>
<polygon fill="#90ee90" stroke="black" points="4531.5,-52 4434.5,-52 4434.5,-16 4531.5,-16 4531.5,-52"/>
<text text-anchor="middle" x="4483" y="-37" font-family="Helvetica,sans-Serif" font-size="10.00">CIccCmm::Begin</text>
<text text-anchor="middle" x="4483" y="-26" font-family="Helvetica,sans-Serif" font-size="10.00">L350</text>
</g>
<!-- main&#45;&gt;n17 -->
<g id="edge18" class="edge">
<title>main&#45;&gt;n17</title>
<path fill="none" stroke="black" stroke-width="2" d="M2383.52,-115.49C2765.35,-112.95 4377.31,-101.2 4426,-83 4439.2,-78.07 4451.48,-68.65 4461.24,-59.45"/>
<polygon fill="black" stroke="black" stroke-width="2" points="4463.89,-61.75 4468.49,-52.21 4458.94,-56.79 4463.89,-61.75"/>
</g>
<!-- n18 -->
<g id="node25" class="node">
<title>n18</title>
<polygon fill="#90ee90" stroke="black" points="4416.5,-52 4267.5,-52 4267.5,-16 4416.5,-16 4416.5,-52"/>
<text text-anchor="middle" x="4342" y="-37" font-family="Helvetica,sans-Serif" font-size="10.00">CIccCmm::GetSourceSpace</text>
<text text-anchor="middle" x="4342" y="-26" font-family="Helvetica,sans-Serif" font-size="10.00">L364</text>
</g>
<!-- main&#45;&gt;n18 -->
<g id="edge19" class="edge">
<title>main&#45;&gt;n18</title>
<path fill="none" stroke="black" stroke-width="2" d="M2383.65,-115.77C2740.92,-114.61 4167.44,-108.4 4259,-83 4277.64,-77.83 4296.46,-67.46 4311.45,-57.68"/>
<polygon fill="black" stroke="black" stroke-width="2" points="4313.48,-60.54 4319.81,-52.04 4309.56,-54.74 4313.48,-60.54"/>
</g>
<!-- n19 -->
<g id="node26" class="node">
<title>n19</title>
<polygon fill="#90ee90" stroke="black" points="4249.5,-52 4114.5,-52 4114.5,-16 4249.5,-16 4249.5,-52"/>
<text text-anchor="middle" x="4182" y="-37" font-family="Helvetica,sans-Serif" font-size="10.00">icGetSpaceSamples(src)</text>
<text text-anchor="middle" x="4182" y="-26" font-family="Helvetica,sans-Serif" font-size="10.00">L365</text>
</g>
<!-- main&#45;&gt;n19 -->
<g id="edge20" class="edge">
<title>main&#45;&gt;n19</title>
<path fill="none" stroke="black" stroke-width="2" d="M2383.5,-115.72C2722.65,-114.39 4021.58,-107.7 4105,-83 4122.39,-77.85 4139.71,-67.63 4153.5,-57.94"/>
<polygon fill="black" stroke="black" stroke-width="2" points="4155.59,-60.74 4161.61,-52.02 4151.47,-55.09 4155.59,-60.74"/>
</g>
<!-- n20 -->
<g id="node27" class="node">
<title>n20</title>
<polygon fill="#90ee90" stroke="black" points="4096,-52 3958,-52 3958,-16 4096,-16 4096,-52"/>
<text text-anchor="middle" x="4027" y="-37" font-family="Helvetica,sans-Serif" font-size="10.00">CIccCmm::GetDestSpace</text>
<text text-anchor="middle" x="4027" y="-26" font-family="Helvetica,sans-Serif" font-size="10.00">L385</text>
</g>
<!-- main&#45;&gt;n20 -->
<g id="edge21" class="edge">
<title>main&#45;&gt;n20</title>
<path fill="none" stroke="black" stroke-width="2" d="M2383.45,-115.56C2703.58,-113.67 3873.31,-105.25 3949,-83 3966.56,-77.84 3984.1,-67.61 3998.08,-57.92"/>
<polygon fill="black" stroke="black" stroke-width="2" points="4000.23,-60.69 4006.3,-52.01 3996.14,-55.01 4000.23,-60.69"/>
</g>
<!-- n21 -->
<g id="node28" class="node">
<title>n21</title>
<polygon fill="#90ee90" stroke="black" points="4986,-52 4850,-52 4850,-16 4986,-16 4986,-52"/>
<text text-anchor="middle" x="4918" y="-37" font-family="Helvetica,sans-Serif" font-size="10.00">icGetSpaceSamples(dst)</text>
<text text-anchor="middle" x="4918" y="-26" font-family="Helvetica,sans-Serif" font-size="10.00">L387</text>
</g>
<!-- main&#45;&gt;n21 -->
<g id="edge22" class="edge">
<title>main&#45;&gt;n21</title>
<path fill="none" stroke="black" stroke-width="2" d="M2383.6,-115.02C2815.16,-109.79 4833.45,-85.21 4841,-83 4858.4,-77.9 4875.72,-67.68 4889.51,-57.98"/>
<polygon fill="black" stroke="black" stroke-width="2" points="4891.61,-60.78 4897.62,-52.05 4887.48,-55.13 4891.61,-60.78"/>
</g>
<!-- n22 -->
<g id="node29" class="node">
<title>n22</title>
<polygon fill="#90ee90" stroke="black" points="4831.5,-52 4664.5,-52 4664.5,-16 4831.5,-16 4831.5,-52"/>
<text text-anchor="middle" x="4748" y="-37" font-family="Helvetica,sans-Serif" font-size="10.00">CIccCmm::GetLastParentSpace</text>
<text text-anchor="middle" x="4748" y="-26" font-family="Helvetica,sans-Serif" font-size="10.00">L389</text>
</g>
<!-- main&#45;&gt;n22 -->
<g id="edge23" class="edge">
<title>main&#45;&gt;n22</title>
<path fill="none" stroke="black" stroke-width="2" d="M2383.62,-115.12C2793.49,-110.62 4627.86,-90.11 4656,-83 4676.49,-77.82 4697.51,-67.32 4714.28,-57.45"/>
<polygon fill="black" stroke="black" stroke-width="2" points="4716.4,-60.26 4723.13,-52.07 4712.77,-54.27 4716.4,-60.26"/>
</g>
<!-- n23 -->
<g id="node30" class="node">
<title>n23</title>
<polygon fill="#add8e6" stroke="black" points="3940,-52 3788,-52 3788,-16 3940,-16 3940,-52"/>
<text text-anchor="middle" x="3864" y="-37" font-family="Helvetica,sans-Serif" font-size="10.00">icGetSpaceSamples(parent)</text>
<text text-anchor="middle" x="3864" y="-26" font-family="Helvetica,sans-Serif" font-size="10.00">L390</text>
</g>
<!-- main&#45;&gt;n23 -->
<g id="edge24" class="edge">
<title>main&#45;&gt;n23</title>
<path fill="none" stroke="black" stroke-dasharray="5,2" d="M2383.81,-116.42C2672.32,-117.61 3641.62,-118.87 3776,-83 3795.72,-77.74 3815.84,-67.22 3831.86,-57.37"/>
<polygon fill="black" stroke="black" points="3833.74,-60.32 3840.3,-52 3829.99,-54.41 3833.74,-60.32"/>
</g>
<!-- n24 -->
<g id="node31" class="node">
<title>n24</title>
<polygon fill="#90ee90" stroke="black" points="4646.5,-52 4549.5,-52 4549.5,-16 4646.5,-16 4646.5,-52"/>
<text text-anchor="middle" x="4598" y="-37" font-family="Helvetica,sans-Serif" font-size="10.00">CIccCmm::Apply</text>
<text text-anchor="middle" x="4598" y="-26" font-family="Helvetica,sans-Serif" font-size="10.00">L546</text>
</g>
<!-- main&#45;&gt;n24 -->
<g id="edge25" class="edge">
<title>main&#45;&gt;n24</title>
<path fill="none" stroke="black" stroke-width="2" d="M2383.62,-115.18C2781.22,-111.07 4515.22,-92.63 4541,-83 4554.2,-78.07 4566.48,-68.65 4576.24,-59.45"/>
<polygon fill="black" stroke="black" stroke-width="2" points="4578.89,-61.75 4583.49,-52.21 4573.94,-56.8 4578.89,-61.75"/>
</g>
<!-- n25 -->
<g id="node32" class="node">
<title>n25</title>
<polygon fill="#add8e6" stroke="black" points="1619,-52 1523,-52 1523,-16 1619,-16 1619,-52"/>
<text text-anchor="middle" x="1571" y="-37" font-family="Helvetica,sans-Serif" font-size="10.00">CTiffImg::Create</text>
<text text-anchor="middle" x="1571" y="-26" font-family="Helvetica,sans-Serif" font-size="10.00">L430</text>
</g>
<!-- main&#45;&gt;n25 -->
<g id="edge26" class="edge">
<title>main&#45;&gt;n25</title>
<path fill="none" stroke="black" stroke-dasharray="5,2" d="M2222.76,-114.95C2055.81,-112.35 1682.02,-104.22 1628,-83 1614.89,-77.85 1602.62,-68.39 1592.85,-59.23"/>
<polygon fill="black" stroke="black" points="1595.14,-56.58 1585.58,-52.03 1590.22,-61.56 1595.14,-56.58"/>
</g>
<!-- n26 -->
<g id="node33" class="node">
<title>n26</title>
<polygon fill="#add8e6" stroke="black" points="1505,-52 1409,-52 1409,-16 1505,-16 1505,-52"/>
<text text-anchor="middle" x="1457" y="-37" font-family="Helvetica,sans-Serif" font-size="10.00">CIccFileIO::Open</text>
<text text-anchor="middle" x="1457" y="-26" font-family="Helvetica,sans-Serif" font-size="10.00">L440</text>
</g>
<!-- main&#45;&gt;n26 -->
<g id="edge27" class="edge">
<title>main&#45;&gt;n26</title>
<path fill="none" stroke="black" stroke-dasharray="5,2" d="M2222.5,-115.57C2034.72,-114.16 1578.69,-108.15 1514,-83 1500.87,-77.89 1488.6,-68.45 1478.83,-59.28"/>
<polygon fill="black" stroke="black" points="1481.13,-56.63 1471.56,-52.07 1476.2,-61.6 1481.13,-56.63"/>
</g>
<!-- n27 -->
<g id="node34" class="node">
<title>n27</title>
<polygon fill="#add8e6" stroke="black" points="1390.5,-52 1269.5,-52 1269.5,-16 1390.5,-16 1390.5,-52"/>
<text text-anchor="middle" x="1330" y="-37" font-family="Helvetica,sans-Serif" font-size="10.00">CIccFileIO::GetLength</text>
<text text-anchor="middle" x="1330" y="-26" font-family="Helvetica,sans-Serif" font-size="10.00">L443</text>
</g>
<!-- main&#45;&gt;n27 -->
<g id="edge28" class="edge">
<title>main&#45;&gt;n27</title>
<path fill="none" stroke="black" stroke-dasharray="5,2" d="M2222.27,-115.62C2015.33,-114.27 1476.77,-108.34 1400,-83 1384.31,-77.82 1368.94,-67.97 1356.61,-58.53"/>
<polygon fill="black" stroke="black" points="1358.6,-55.64 1348.6,-52.13 1354.22,-61.11 1358.6,-55.64"/>
</g>
<!-- n28 -->
<g id="node35" class="node">
<title>n28</title>
<polygon fill="#add8e6" stroke="black" points="1251.5,-52 1156.5,-52 1156.5,-16 1251.5,-16 1251.5,-52"/>
<text text-anchor="middle" x="1204" y="-37" font-family="Helvetica,sans-Serif" font-size="10.00">CIccFileIO::Read</text>
<text text-anchor="middle" x="1204" y="-26" font-family="Helvetica,sans-Serif" font-size="10.00">L444</text>
</g>
<!-- main&#45;&gt;n28 -->
<g id="edge29" class="edge">
<title>main&#45;&gt;n28</title>
<path fill="none" stroke="black" stroke-dasharray="5,2" d="M2222.35,-116.48C1993.3,-117.42 1349.68,-116.97 1261,-83 1247.84,-77.96 1235.57,-68.52 1225.8,-59.34"/>
<polygon fill="black" stroke="black" points="1228.1,-56.69 1218.54,-52.12 1223.16,-61.66 1228.1,-56.69"/>
</g>
<!-- n29 -->
<g id="node36" class="node">
<title>n29</title>
<polygon fill="#add8e6" stroke="black" points="1761,-52 1637,-52 1637,-16 1761,-16 1761,-52"/>
<text text-anchor="middle" x="1699" y="-37" font-family="Helvetica,sans-Serif" font-size="10.00">CTiffImg::SetIccProfile</text>
<text text-anchor="middle" x="1699" y="-26" font-family="Helvetica,sans-Serif" font-size="10.00">L446</text>
</g>
<!-- main&#45;&gt;n29 -->
<g id="edge30" class="edge">
<title>main&#45;&gt;n29</title>
<path fill="none" stroke="black" stroke-dasharray="5,2" d="M2222.26,-115.96C2095.03,-115.07 1854.04,-109.75 1773,-83 1756.66,-77.61 1740.4,-67.7 1727.31,-58.28"/>
<polygon fill="black" stroke="black" points="1729.3,-55.39 1719.19,-52.21 1725.1,-61 1729.3,-55.39"/>
</g>
<!-- n30 -->
<g id="node37" class="node">
<title>n30</title>
<polygon fill="#add8e6" stroke="black" points="2228.5,-52 2119.5,-52 2119.5,-16 2228.5,-16 2228.5,-52"/>
<text text-anchor="middle" x="2174" y="-37" font-family="Helvetica,sans-Serif" font-size="10.00">CTiffImg::ReadLine</text>
<text text-anchor="middle" x="2174" y="-26" font-family="Helvetica,sans-Serif" font-size="10.00">L475</text>
</g>
<!-- main&#45;&gt;n30 -->
<g id="edge31" class="edge">
<title>main&#45;&gt;n30</title>
<path fill="none" stroke="black" stroke-dasharray="5,2" d="M2265.26,-98.24C2256.17,-93.58 2246.6,-88.35 2238,-83 2226.18,-75.65 2213.81,-66.69 2203.13,-58.52"/>
<polygon fill="black" stroke="black" points="2205.01,-55.55 2194.97,-52.18 2200.72,-61.08 2205.01,-55.55"/>
</g>
<!-- n31 -->
<g id="node38" class="node">
<title>n31</title>
<polygon fill="#add8e6" stroke="black" points="2101,-52 2045,-52 2045,-16 2101,-16 2101,-52"/>
<text text-anchor="middle" x="2073" y="-37" font-family="Helvetica,sans-Serif" font-size="10.00">UnitClip</text>
<text text-anchor="middle" x="2073" y="-26" font-family="Helvetica,sans-Serif" font-size="10.00">L483</text>
</g>
<!-- main&#45;&gt;n31 -->
<g id="edge32" class="edge">
<title>main&#45;&gt;n31</title>
<path fill="none" stroke="black" stroke-dasharray="5,2" d="M2228.53,-108.72C2183.34,-103.26 2130.7,-94.7 2111,-83 2101.91,-77.6 2094.15,-69.16 2088.05,-60.84"/>
<polygon fill="black" stroke="black" points="2090.82,-58.69 2082.32,-52.36 2085.02,-62.61 2090.82,-58.69"/>
</g>
<!-- n32 -->
<g id="node39" class="node">
<title>n32</title>
<polygon fill="#add8e6" stroke="black" points="2027,-52 1917,-52 1917,-16 2027,-16 2027,-52"/>
<text text-anchor="middle" x="1972" y="-37" font-family="Helvetica,sans-Serif" font-size="10.00">CTiffImg::WriteLine</text>
<text text-anchor="middle" x="1972" y="-26" font-family="Helvetica,sans-Serif" font-size="10.00">L615</text>
</g>
<!-- main&#45;&gt;n32 -->
<g id="edge33" class="edge">
<title>main&#45;&gt;n32</title>
<path fill="none" stroke="black" stroke-dasharray="5,2" d="M2225.5,-110.86C2159.2,-105.66 2069.36,-96.45 2036,-83 2022.04,-77.37 2008.43,-67.91 1997.37,-58.86"/>
<polygon fill="black" stroke="black" points="1999.33,-55.93 1989.46,-52.1 1994.79,-61.25 1999.33,-55.93"/>
</g>
<!-- n33 -->
<g id="node40" class="node">
<title>n33</title>
<polygon fill="#add8e6" stroke="black" points="1898.5,-52 1785.5,-52 1785.5,-16 1898.5,-16 1898.5,-52"/>
<text text-anchor="middle" x="1842" y="-37" font-family="Helvetica,sans-Serif" font-size="10.00">CTiffImg::Close(src)</text>
<text text-anchor="middle" x="1842" y="-26" font-family="Helvetica,sans-Serif" font-size="10.00">L629</text>
</g>
<!-- main&#45;&gt;n33 -->
<g id="edge34" class="edge">
<title>main&#45;&gt;n33</title>
<path fill="none" stroke="black" stroke-dasharray="5,2" d="M2222.95,-114.39C2124.57,-111.53 1963.79,-103.75 1908,-83 1893.36,-77.56 1879.09,-67.9 1867.59,-58.67"/>
<polygon fill="black" stroke="black" points="1869.64,-55.83 1859.73,-52.09 1865.15,-61.19 1869.64,-55.83"/>
</g>
<!-- n34 -->
<g id="node41" class="node">
<title>n34</title>
<polygon fill="#add8e6" stroke="black" points="2359.5,-52 2246.5,-52 2246.5,-16 2359.5,-16 2359.5,-52"/>
<text text-anchor="middle" x="2303" y="-37" font-family="Helvetica,sans-Serif" font-size="10.00">CTiffImg::Close(dst)</text>
<text text-anchor="middle" x="2303" y="-26" font-family="Helvetica,sans-Serif" font-size="10.00">L634</text>
</g>
<!-- main&#45;&gt;n34 -->
<g id="edge35" class="edge">
<title>main&#45;&gt;n34</title>
<path fill="none" stroke="black" stroke-dasharray="5,2" d="M2303,-95.56C2303,-85.51 2303,-73.25 2303,-62.4"/>
<polygon fill="black" stroke="black" points="2306.5,-62.15 2303,-52.15 2299.5,-62.15 2306.5,-62.15"/>
</g>
<!-- fuzzer -->
<g id="node6" class="node">
<title>fuzzer</title>
<ellipse fill="#ff6b6b" stroke="black" cx="4483" cy="-117" rx="108.38" ry="21.43"/>
<text text-anchor="middle" x="4483" y="-120" font-family="Helvetica,sans-Serif" font-size="10.00">LLVMFuzzerTestOneInput()</text>
<text text-anchor="middle" x="4483" y="-109" font-family="Helvetica,sans-Serif" font-size="10.00">icc_applyprofiles_fuzzer.cpp</text>
</g>
<!-- fuzzer&#45;&gt;n10 -->
<g id="edge39" class="edge">
<title>fuzzer&#45;&gt;n10</title>
<path fill="none" stroke="green" stroke-dasharray="1,5" d="M4375.47,-114.22C4191.59,-110.69 3831.15,-101.51 3776,-83 3760.34,-77.74 3744.97,-67.88 3732.64,-58.46"/>
<polygon fill="green" stroke="green" points="3734.62,-55.57 3724.62,-52.07 3730.26,-61.04 3734.62,-55.57"/>
</g>
<!-- fuzzer&#45;&gt;n12 -->
<g id="edge40" class="edge">
<title>fuzzer&#45;&gt;n12</title>
<path fill="none" stroke="green" stroke-dasharray="1,5" d="M4375.46,-114.48C4163.91,-111.1 3708.18,-101.74 3639,-83 3619.1,-77.61 3598.68,-67.19 3582.34,-57.44"/>
<polygon fill="green" stroke="green" points="3584.05,-54.38 3573.7,-52.12 3580.38,-60.34 3584.05,-54.38"/>
</g>
<!-- fuzzer&#45;&gt;n16 -->
<g id="edge41" class="edge">
<title>fuzzer&#45;&gt;n16</title>
<path fill="none" stroke="green" stroke-dasharray="1,5" d="M4374.75,-115.62C4129.25,-114.31 3544.83,-108.53 3459,-83 3441.42,-77.77 3423.79,-67.65 3409.66,-58.04"/>
<polygon fill="green" stroke="green" points="3411.54,-55.08 3401.35,-52.17 3407.5,-60.79 3411.54,-55.08"/>
</g>
<!-- fuzzer&#45;&gt;n17 -->
<g id="edge42" class="edge">
<title>fuzzer&#45;&gt;n17</title>
<path fill="none" stroke="green" stroke-dasharray="1,5" d="M4483,-95.56C4483,-85.51 4483,-73.25 4483,-62.4"/>
<polygon fill="green" stroke="green" points="4486.5,-62.15 4483,-52.15 4479.5,-62.15 4486.5,-62.15"/>
</g>
<!-- fuzzer&#45;&gt;n18 -->
<g id="edge43" class="edge">
<title>fuzzer&#45;&gt;n18</title>
<path fill="none" stroke="green" stroke-dasharray="1,5" d="M4449.58,-96.8C4428.92,-84.93 4402.31,-69.65 4380.73,-57.25"/>
<polygon fill="green" stroke="green" points="4382.23,-54.08 4371.82,-52.13 4378.75,-60.15 4382.23,-54.08"/>
</g>
<!-- fuzzer&#45;&gt;n19 -->
<g id="edge44" class="edge">
<title>fuzzer&#45;&gt;n19</title>
<path fill="none" stroke="green" stroke-dasharray="1,5" d="M4381.02,-109.88C4341.97,-105.25 4297.56,-97.16 4259,-83 4242.62,-76.99 4226.01,-67.19 4212.42,-58.02"/>
<polygon fill="green" stroke="green" points="4214.17,-54.97 4203.97,-52.12 4210.17,-60.71 4214.17,-54.97"/>
</g>
<!-- fuzzer&#45;&gt;n20 -->
<g id="edge45" class="edge">
<title>fuzzer&#45;&gt;n20</title>
<path fill="none" stroke="green" stroke-dasharray="1,5" d="M4377.66,-112.13C4284.04,-107.72 4154.7,-98.96 4106,-83 4088.7,-77.33 4071.22,-67.26 4057.11,-57.8"/>
<polygon fill="green" stroke="green" points="4059.01,-54.86 4048.8,-52.03 4055.02,-60.61 4059.01,-54.86"/>
</g>
<!-- fuzzer&#45;&gt;n21 -->
<g id="edge46" class="edge">
<title>fuzzer&#45;&gt;n21</title>
<path fill="none" stroke="green" stroke-dasharray="1,5" d="M4587.81,-111.69C4676.32,-107.07 4795.67,-98.26 4841,-83 4857.78,-77.35 4874.66,-67.41 4888.33,-58.04"/>
<polygon fill="green" stroke="green" points="4890.69,-60.66 4896.81,-52.01 4886.63,-54.95 4890.69,-60.66"/>
</g>
<!-- fuzzer&#45;&gt;n22 -->
<g id="edge47" class="edge">
<title>fuzzer&#45;&gt;n22</title>
<path fill="none" stroke="green" stroke-dasharray="1,5" d="M4570.54,-104.42C4598.32,-99.4 4628.85,-92.44 4656,-83 4675.09,-76.36 4695.13,-66.32 4711.61,-57.13"/>
<polygon fill="green" stroke="green" points="4713.41,-60.13 4720.37,-52.14 4709.95,-54.05 4713.41,-60.13"/>
</g>
<!-- fuzzer&#45;&gt;n24 -->
<g id="edge48" class="edge">
<title>fuzzer&#45;&gt;n24</title>
<path fill="none" stroke="green" stroke-dasharray="1,5" d="M4518.9,-96.93C4526.36,-92.6 4534.06,-87.84 4541,-83 4551.53,-75.66 4562.46,-66.8 4571.9,-58.7"/>
<polygon fill="green" stroke="green" points="4574.2,-61.34 4579.43,-52.13 4569.6,-56.06 4574.2,-61.34"/>
</g>
<!-- n35 -->
<g id="node42" class="node">
<title>n35</title>
<polygon fill="#ffd700" stroke="black" points="5265.5,-52 5120.5,-52 5120.5,-16 5265.5,-16 5265.5,-52"/>
<text text-anchor="middle" x="5193" y="-31.5" font-family="Helvetica,sans-Serif" font-size="10.00">CIccCmm::GetNumXforms</text>
</g>
<!-- fuzzer&#45;&gt;n35 -->
<g id="edge36" class="edge">
<title>fuzzer&#45;&gt;n35</title>
<path fill="none" stroke="orange" stroke-width="2" d="M4591.17,-116.53C4744.72,-116.24 5017.73,-111.51 5112,-83 5129.88,-77.59 5147.94,-67.45 5162.45,-57.87"/>
<polygon fill="orange" stroke="orange" stroke-width="2" points="5164.72,-60.56 5171,-52.03 5160.77,-54.78 5164.72,-60.56"/>
</g>
<!-- n36 -->
<g id="node43" class="node">
<title>n36</title>
<polygon fill="#ffd700" stroke="black" points="5102.5,-52 5009.5,-52 5009.5,-16 5102.5,-16 5102.5,-52"/>
<text text-anchor="middle" x="5056" y="-31.5" font-family="Helvetica,sans-Serif" font-size="10.00">CIccCmm::Valid</text>
</g>
<!-- fuzzer&#45;&gt;n36 -->
<g id="edge37" class="edge">
<title>fuzzer&#45;&gt;n36</title>
<path fill="none" stroke="orange" stroke-width="2" d="M4591.23,-116.85C4720.03,-116.5 4926.64,-111.31 4998,-83 5011.04,-77.83 5023.34,-68.56 5033.23,-59.53"/>
<polygon fill="orange" stroke="orange" stroke-width="2" points="5035.83,-61.89 5040.61,-52.43 5030.97,-56.84 5035.83,-61.89"/>
</g>
<!-- n37 -->
<g id="node44" class="node">
<title>n37</title>
<polygon fill="#ffd700" stroke="black" points="5420,-52 5284,-52 5284,-16 5420,-16 5420,-52"/>
<text text-anchor="middle" x="5352" y="-31.5" font-family="Helvetica,sans-Serif" font-size="10.00">CIccCmm::GetLastSpace</text>
</g>
<!-- fuzzer&#45;&gt;n37 -->
<g id="edge38" class="edge">
<title>fuzzer&#45;&gt;n37</title>
<path fill="none" stroke="orange" stroke-width="2" d="M4590.59,-114.57C4792,-111.43 5211.43,-102.63 5275,-83 5292.04,-77.74 5309.06,-67.74 5322.76,-58.23"/>
<polygon fill="orange" stroke="orange" stroke-width="2" points="5325.18,-60.8 5331.24,-52.1 5321.09,-55.12 5325.18,-60.8"/>
</g>
</g>
</svg>
