<?xml version="1.0" encoding="UTF-8" standalone="no"?>
<!DOCTYPE svg PUBLIC "-//W3C//DTD SVG 1.1//EN"
 "http://www.w3.org/Graphics/SVG/1.1/DTD/svg11.dtd">
<!-- Generated by graphviz version 2.43.0 (0)
 -->
<!-- Title: Call graph: /home/h02332/po/research/call&#45;graph/colorbleed/ColorBleedAlloc.ll Pages: 1 -->
<svg width="584pt" height="141pt"
 viewBox="0.00 0.00 584.00 141.00" xmlns="http://www.w3.org/2000/svg" xmlns:xlink="http://www.w3.org/1999/xlink">
<g id="graph0" class="graph" transform="scale(1 1) rotate(0) translate(4 137)">
<title>Call graph: /home/h02332/po/research/call&#45;graph/colorbleed/ColorBleedAlloc.ll</title>
<polygon fill="white" stroke="transparent" points="-4,4 -4,-137 580,-137 580,4 -4,4"/>
<text text-anchor="middle" x="288" y="-7.8" font-family="Times,serif" font-size="14.00">Call graph: /home/h02332/po/research/call&#45;graph/colorbleed/ColorBleedAlloc.ll</text>
<!-- Node0x60e54e987230 -->
<g id="node1" class="node">
<title>Node0x60e54e987230</title>
<polygon fill="none" stroke="black" points="175.25,-96.5 175.25,-132.5 312.25,-132.5 312.25,-96.5 175.25,-96.5"/>
<text text-anchor="middle" x="243.75" y="-110.8" font-family="Times,serif" font-size="14.00">_Z9icReallocPvm</text>
</g>
<!-- Node0x60e54e989640 -->
<g id="node2" class="node">
<title>Node0x60e54e989640</title>
<polygon fill="none" stroke="black" points="62.75,-23.5 62.75,-59.5 116.75,-59.5 116.75,-23.5 62.75,-23.5"/>
<text text-anchor="middle" x="89.75" y="-37.8" font-family="Times,serif" font-size="14.00">free</text>
</g>
<!-- Node0x60e54e987230&#45;&gt;Node0x60e54e989640 -->
<g id="edge1" class="edge">
<title>Node0x60e54e987230&#45;&gt;Node0x60e54e989640</title>
<path fill="none" stroke="black" d="M205.37,-96.41C184.31,-86.96 157.56,-74.85 126.24,-60.18"/>
<polygon fill="black" stroke="black" points="127.38,-56.85 116.84,-55.76 124.4,-63.18 127.38,-56.85"/>
</g>
<!-- Node0x60e54e989370 -->
<g id="node3" class="node">
<title>Node0x60e54e989370</title>
<polygon fill="none" stroke="black" points="134.75,-23.5 134.75,-59.5 196.75,-59.5 196.75,-23.5 134.75,-23.5"/>
<text text-anchor="middle" x="165.75" y="-37.8" font-family="Times,serif" font-size="14.00">fprintf</text>
</g>
<!-- Node0x60e54e987230&#45;&gt;Node0x60e54e989370 -->
<g id="edge2" class="edge">
<title>Node0x60e54e987230&#45;&gt;Node0x60e54e989370</title>
<path fill="none" stroke="black" d="M224.87,-96.31C215,-87.33 202.77,-76.19 191.99,-66.39"/>
<polygon fill="black" stroke="black" points="194.21,-63.67 184.46,-59.53 189.5,-68.85 194.21,-63.67"/>
</g>
<!-- Node0x60e54e9892c0 -->
<g id="node4" class="node">
<title>Node0x60e54e9892c0</title>
<polygon fill="none" stroke="black" points="215.25,-23.5 215.25,-59.5 430.25,-59.5 430.25,-23.5 215.25,-23.5"/>
<text text-anchor="middle" x="322.75" y="-37.8" font-family="Times,serif" font-size="14.00">llvm.threadlocal.address.p0</text>
</g>
<!-- Node0x60e54e987230&#45;&gt;Node0x60e54e9892c0 -->
<g id="edge3" class="edge">
<title>Node0x60e54e987230&#45;&gt;Node0x60e54e9892c0</title>
<path fill="none" stroke="black" d="M262.87,-96.31C272.87,-87.33 285.26,-76.19 296.17,-66.39"/>
<polygon fill="black" stroke="black" points="298.7,-68.82 303.8,-59.53 294.03,-63.61 298.7,-68.82"/>
</g>
<!-- Node0x60e54e98c580 -->
<g id="node5" class="node">
<title>Node0x60e54e98c580</title>
<polygon fill="none" stroke="black" points="448.25,-23.5 448.25,-59.5 513.25,-59.5 513.25,-23.5 448.25,-23.5"/>
<text text-anchor="middle" x="480.75" y="-37.8" font-family="Times,serif" font-size="14.00">realloc</text>
</g>
<!-- Node0x60e54e987230&#45;&gt;Node0x60e54e98c580 -->
<g id="edge4" class="edge">
<title>Node0x60e54e987230&#45;&gt;Node0x60e54e98c580</title>
<path fill="none" stroke="black" d="M312.48,-97.2C347.96,-88.21 392,-76.17 438.57,-60.21"/>
<polygon fill="black" stroke="black" points="439.94,-63.44 448.23,-56.85 437.64,-56.83 439.94,-63.44"/>
</g>
</g>
</svg>
