<?xml version="1.0" encoding="UTF-8" standalone="no"?>
<!DOCTYPE svg PUBLIC "-//W3C//DTD SVG 1.1//EN"
 "http://www.w3.org/Graphics/SVG/1.1/DTD/svg11.dtd">
<!-- Generated by graphviz version 2.43.0 (0)
 -->
<!-- Title: Call graph: /home/h02332/po/research/call&#45;graph/colorbleed/ColorBleedAlloc.ll Pages: 1 -->
<svg width="113pt" height="79pt"
 viewBox="0.00 0.00 113.20 79.20" xmlns="http://www.w3.org/2000/svg" xmlns:xlink="http://www.w3.org/1999/xlink">
<g id="graph0" class="graph" transform="scale(1 1) rotate(0) translate(21.6 57.6)">
<title>Call graph: /home/h02332/po/research/call&#45;graph/colorbleed/ColorBleedAlloc.ll</title>
<polygon fill="white" stroke="transparent" points="-21.6,21.6 -21.6,-57.6 91.6,-57.6 91.6,21.6 -21.6,21.6"/>
<!-- Node0x61346f821230 -->
<g id="node1" class="node">
<title>Node0x61346f821230</title>
<path fill="#f0f4ff" stroke="black" d="M58,-36C58,-36 12,-36 12,-36 6,-36 0,-30 0,-24 0,-24 0,-12 0,-12 0,-6 6,0 12,0 12,0 58,0 58,0 64,0 70,-6 70,-12 70,-12 70,-24 70,-24 70,-30 64,-36 58,-36"/>
<text text-anchor="middle" x="35" y="-15.8" font-family="Courier,monospace" font-size="9.00">icRealloc()</text>
</g>
</g>
</svg>
