<?xml version="1.0" encoding="UTF-8" standalone="no"?>
<!DOCTYPE svg PUBLIC "-//W3C//DTD SVG 1.1//EN"
 "http://www.w3.org/Graphics/SVG/1.1/DTD/svg11.dtd">
<!-- Generated by graphviz version 2.43.0 (0)
 -->
<!-- Title: Call graph: /home/h02332/po/research/call&#45;graph/iccdev/proflib/IccArrayBasic.ll Pages: 1 -->
<svg width="816pt" height="2312pt"
 viewBox="0.00 0.00 816.20 2312.20" xmlns="http://www.w3.org/2000/svg" xmlns:xlink="http://www.w3.org/1999/xlink">
<g id="graph0" class="graph" transform="scale(1 1) rotate(0) translate(21.6 2290.6)">
<title>Call graph: /home/h02332/po/research/call&#45;graph/iccdev/proflib/IccArrayBasic.ll</title>
<polygon fill="white" stroke="transparent" points="-21.6,21.6 -21.6,-2290.6 794.6,-2290.6 794.6,21.6 -21.6,21.6"/>
<!-- Node0x5be8ac4332b0 -->
<g id="node1" class="node">
<title>Node0x5be8ac4332b0</title>
<path fill="#f0f4ff" stroke="black" d="M538.5,-181C538.5,-181 360.5,-181 360.5,-181 354.5,-181 348.5,-175 348.5,-169 348.5,-169 348.5,-157 348.5,-157 348.5,-151 354.5,-145 360.5,-145 360.5,-145 538.5,-145 538.5,-145 544.5,-145 550.5,-151 550.5,-157 550.5,-157 550.5,-169 550.5,-169 550.5,-175 544.5,-181 538.5,-181"/>
<text text-anchor="middle" x="449.5" y="-160.8" font-family="Courier,monospace" font-size="9.00">CIccArrayUnknown::CIccArrayUnknown()</text>
</g>
<!-- Node0x5be8ac433340 -->
<g id="node2" class="node">
<title>Node0x5be8ac433340</title>
<path fill="#f0f4ff" stroke="black" d="M758.5,-181C758.5,-181 654.5,-181 654.5,-181 648.5,-181 642.5,-175 642.5,-169 642.5,-169 642.5,-157 642.5,-157 642.5,-151 648.5,-145 654.5,-145 654.5,-145 758.5,-145 758.5,-145 764.5,-145 770.5,-151 770.5,-157 770.5,-157 770.5,-169 770.5,-169 770.5,-175 764.5,-181 758.5,-181"/>
<text text-anchor="middle" x="706.5" y="-160.8" font-family="Courier,monospace" font-size="9.00">IIccArray::IIccArray()</text>
</g>
<!-- Node0x5be8ac4332b0&#45;&gt;Node0x5be8ac433340 -->
<g id="edge1" class="edge">
<title>Node0x5be8ac4332b0&#45;&gt;Node0x5be8ac433340</title>
<path fill="none" stroke="#4a6fa5" d="M550.55,-163C579.23,-163 609.85,-163 636.23,-163"/>
<polygon fill="#4a6fa5" stroke="#4a6fa5" points="636.49,-165.1 642.49,-163 636.49,-160.9 636.49,-165.1"/>
</g>
<!-- Node0x5be8ac4381f0 -->
<g id="node3" class="node">
<title>Node0x5be8ac4381f0</title>
<path fill="#f0f4ff" stroke="black" d="M541,-94C541,-94 358,-94 358,-94 352,-94 346,-88 346,-82 346,-82 346,-70 346,-70 346,-64 352,-58 358,-58 358,-58 541,-58 541,-58 547,-58 553,-64 553,-70 553,-70 553,-82 553,-82 553,-88 547,-94 541,-94"/>
<text text-anchor="middle" x="449.5" y="-73.8" font-family="Courier,monospace" font-size="9.00">CIccArrayUnknown::~CIccArrayUnknown()</text>
</g>
<!-- Node0x5be8ac233bb0 -->
<g id="node4" class="node">
<title>Node0x5be8ac233bb0</title>
<path fill="#f0f4ff" stroke="black" d="M761,-94C761,-94 652,-94 652,-94 646,-94 640,-88 640,-82 640,-82 640,-70 640,-70 640,-64 646,-58 652,-58 652,-58 761,-58 761,-58 767,-58 773,-64 773,-70 773,-70 773,-82 773,-82 773,-88 767,-94 761,-94"/>
<text text-anchor="middle" x="706.5" y="-73.8" font-family="Courier,monospace" font-size="9.00">IIccArray::~IIccArray()</text>
</g>
<!-- Node0x5be8ac4381f0&#45;&gt;Node0x5be8ac233bb0 -->
<g id="edge2" class="edge">
<title>Node0x5be8ac4381f0&#45;&gt;Node0x5be8ac233bb0</title>
<path fill="none" stroke="#4a6fa5" d="M553.12,-76C580.04,-76 608.5,-76 633.44,-76"/>
<polygon fill="#4a6fa5" stroke="#4a6fa5" points="633.7,-78.1 639.7,-76 633.7,-73.9 633.7,-78.1"/>
</g>
<!-- Node0x5be8ac25ac70 -->
<g id="node5" class="node">
<title>Node0x5be8ac25ac70</title>
<path fill="#f0f4ff" stroke="black" d="M221,-268C221,-268 38,-268 38,-268 32,-268 26,-262 26,-256 26,-256 26,-244 26,-244 26,-238 32,-232 38,-232 38,-232 221,-232 221,-232 227,-232 233,-238 233,-244 233,-244 233,-256 233,-256 233,-262 227,-268 221,-268"/>
<text text-anchor="middle" x="129.5" y="-247.8" font-family="Courier,monospace" font-size="9.00">CIccArrayUnknown::~CIccArrayUnknown()</text>
</g>
<!-- Node0x5be8ac44e330 -->
<g id="node6" class="node">
<title>Node0x5be8ac44e330</title>
<path fill="#f0f4ff" stroke="black" d="M215.5,-935C215.5,-935 43.5,-935 43.5,-935 37.5,-935 31.5,-929 31.5,-923 31.5,-923 31.5,-911 31.5,-911 31.5,-905 37.5,-899 43.5,-899 43.5,-899 215.5,-899 215.5,-899 221.5,-899 227.5,-905 227.5,-911 227.5,-911 227.5,-923 227.5,-923 227.5,-929 221.5,-935 215.5,-935"/>
<text text-anchor="middle" x="129.5" y="-914.8" font-family="Courier,monospace" font-size="9.00">CIccArrayNamedColor::FindPcsColor()</text>
</g>
<!-- Node0x5be8ac461c50 -->
<g id="node7" class="node">
<title>Node0x5be8ac461c50</title>
<path fill="#f0f4ff" stroke="black" d="M475.5,-1109C475.5,-1109 423.5,-1109 423.5,-1109 417.5,-1109 411.5,-1103 411.5,-1097 411.5,-1097 411.5,-1085 411.5,-1085 411.5,-1079 417.5,-1073 423.5,-1073 423.5,-1073 475.5,-1073 475.5,-1073 481.5,-1073 487.5,-1079 487.5,-1085 487.5,-1085 487.5,-1097 487.5,-1097 487.5,-1103 481.5,-1109 475.5,-1109"/>
<text text-anchor="middle" x="449.5" y="-1088.8" font-family="Courier,monospace" font-size="9.00">icXYZtoLab()</text>
</g>
<!-- Node0x5be8ac44e330&#45;&gt;Node0x5be8ac461c50 -->
<g id="edge3" class="edge">
<title>Node0x5be8ac44e330&#45;&gt;Node0x5be8ac461c50</title>
<path fill="none" stroke="#4a6fa5" d="M227.74,-929.05C238.99,-933.22 249.73,-938.74 259,-946 304.37,-981.55 271.54,-1026.56 317,-1062 342.03,-1081.51 377.48,-1088.48 405.27,-1090.73"/>
<polygon fill="#4a6fa5" stroke="#4a6fa5" points="405.31,-1092.84 411.44,-1091.16 405.6,-1088.65 405.31,-1092.84"/>
</g>
<!-- Node0x5be8ac1fde80 -->
<g id="node8" class="node">
<title>Node0x5be8ac1fde80</title>
<path fill="#f0f4ff" stroke="black" d="M504,-761C504,-761 395,-761 395,-761 389,-761 383,-755 383,-749 383,-749 383,-737 383,-737 383,-731 389,-725 395,-725 395,-725 504,-725 504,-725 510,-725 516,-731 516,-737 516,-737 516,-749 516,-749 516,-755 510,-761 504,-761"/>
<text text-anchor="middle" x="449.5" y="-740.8" font-family="Courier,monospace" font-size="9.00">CIccTagArray::GetSize()</text>
</g>
<!-- Node0x5be8ac44e330&#45;&gt;Node0x5be8ac1fde80 -->
<g id="edge4" class="edge">
<title>Node0x5be8ac44e330&#45;&gt;Node0x5be8ac1fde80</title>
<path fill="none" stroke="#4a6fa5" d="M227.74,-904.95C238.99,-900.78 249.73,-895.26 259,-888 304.37,-852.45 271.54,-807.44 317,-772 333.95,-758.79 355.68,-751.33 376.58,-747.19"/>
<polygon fill="#4a6fa5" stroke="#4a6fa5" points="377.21,-749.2 382.74,-746.06 376.46,-745.07 377.21,-749.2"/>
</g>
<!-- Node0x5be8ac1fcc90 -->
<g id="node9" class="node">
<title>Node0x5be8ac1fcc90</title>
<path fill="#f0f4ff" stroke="black" d="M507,-703C507,-703 392,-703 392,-703 386,-703 380,-697 380,-691 380,-691 380,-679 380,-679 380,-673 386,-667 392,-667 392,-667 507,-667 507,-667 513,-667 519,-673 519,-679 519,-679 519,-691 519,-691 519,-697 513,-703 507,-703"/>
<text text-anchor="middle" x="449.5" y="-682.8" font-family="Courier,monospace" font-size="9.00">CIccTagArray::GetIndex()</text>
</g>
<!-- Node0x5be8ac44e330&#45;&gt;Node0x5be8ac1fcc90 -->
<g id="edge5" class="edge">
<title>Node0x5be8ac44e330&#45;&gt;Node0x5be8ac1fcc90</title>
<path fill="none" stroke="#4a6fa5" d="M227.8,-906.56C239.24,-902.14 250.01,-896.13 259,-888 319.44,-833.31 256.42,-768.55 317,-714 332.58,-699.98 353.37,-692.22 373.82,-688.06"/>
<polygon fill="#4a6fa5" stroke="#4a6fa5" points="374.34,-690.09 379.85,-686.93 373.57,-685.97 374.34,-690.09"/>
</g>
<!-- Node0x5be8ac20a3c0 -->
<g id="node10" class="node">
<title>Node0x5be8ac20a3c0</title>
<path fill="#f0f4ff" stroke="black" d="M520,-877C520,-877 379,-877 379,-877 373,-877 367,-871 367,-865 367,-865 367,-853 367,-853 367,-847 373,-841 379,-841 379,-841 520,-841 520,-841 526,-841 532,-847 532,-853 532,-853 532,-865 532,-865 532,-871 526,-877 520,-877"/>
<text text-anchor="middle" x="449.5" y="-856.8" font-family="Courier,monospace" font-size="9.00">icGetTagStructHandlerOfType()</text>
</g>
<!-- Node0x5be8ac44e330&#45;&gt;Node0x5be8ac20a3c0 -->
<g id="edge6" class="edge">
<title>Node0x5be8ac44e330&#45;&gt;Node0x5be8ac20a3c0</title>
<path fill="none" stroke="#4a6fa5" d="M227.64,-899.28C270.12,-891.54 319.57,-882.51 360.91,-874.98"/>
<polygon fill="#4a6fa5" stroke="#4a6fa5" points="361.42,-877.02 366.94,-873.88 360.66,-872.89 361.42,-877.02"/>
</g>
<!-- Node0x5be8ac45ebe0 -->
<g id="node11" class="node">
<title>Node0x5be8ac45ebe0</title>
<path fill="#f0f4ff" stroke="black" d="M517.5,-935C517.5,-935 381.5,-935 381.5,-935 375.5,-935 369.5,-929 369.5,-923 369.5,-923 369.5,-911 369.5,-911 369.5,-905 375.5,-899 381.5,-899 381.5,-899 517.5,-899 517.5,-899 523.5,-899 529.5,-905 529.5,-911 529.5,-911 529.5,-923 529.5,-923 529.5,-929 523.5,-935 517.5,-935"/>
<text text-anchor="middle" x="449.5" y="-914.8" font-family="Courier,monospace" font-size="9.00">CIccStructUnknown::GetElem()</text>
</g>
<!-- Node0x5be8ac44e330&#45;&gt;Node0x5be8ac45ebe0 -->
<g id="edge7" class="edge">
<title>Node0x5be8ac44e330&#45;&gt;Node0x5be8ac45ebe0</title>
<path fill="none" stroke="#4a6fa5" d="M227.64,-917C270.9,-917 321.4,-917 363.18,-917"/>
<polygon fill="#4a6fa5" stroke="#4a6fa5" points="363.28,-919.1 369.28,-917 363.28,-914.9 363.28,-919.1"/>
</g>
<!-- Node0x5be8ac463b80 -->
<g id="node12" class="node">
<title>Node0x5be8ac463b80</title>
<path fill="#f0f4ff" stroke="black" d="M470,-1051C470,-1051 429,-1051 429,-1051 423,-1051 417,-1045 417,-1039 417,-1039 417,-1027 417,-1027 417,-1021 423,-1015 429,-1015 429,-1015 470,-1015 470,-1015 476,-1015 482,-1021 482,-1027 482,-1027 482,-1039 482,-1039 482,-1045 476,-1051 470,-1051"/>
<text text-anchor="middle" x="449.5" y="-1030.8" font-family="Courier,monospace" font-size="9.00">icDeltaE()</text>
</g>
<!-- Node0x5be8ac44e330&#45;&gt;Node0x5be8ac463b80 -->
<g id="edge8" class="edge">
<title>Node0x5be8ac44e330&#45;&gt;Node0x5be8ac463b80</title>
<path fill="none" stroke="#4a6fa5" d="M227.76,-932.72C238.64,-936.28 249.29,-940.65 259,-946 290.93,-963.6 285.03,-986.48 317,-1004 346.07,-1019.93 383.27,-1027.11 410.69,-1030.34"/>
<polygon fill="#4a6fa5" stroke="#4a6fa5" points="410.53,-1032.44 416.73,-1031.01 411,-1028.27 410.53,-1032.44"/>
</g>
<!-- Node0x5be8ac2344c0 -->
<g id="node13" class="node">
<title>Node0x5be8ac2344c0</title>
<path fill="#f0f4ff" stroke="black" d="M194.5,-993C194.5,-993 64.5,-993 64.5,-993 58.5,-993 52.5,-987 52.5,-981 52.5,-981 52.5,-969 52.5,-969 52.5,-963 58.5,-957 64.5,-957 64.5,-957 194.5,-957 194.5,-957 200.5,-957 206.5,-963 206.5,-969 206.5,-969 206.5,-981 206.5,-981 206.5,-987 200.5,-993 194.5,-993"/>
<text text-anchor="middle" x="129.5" y="-972.8" font-family="Courier,monospace" font-size="9.00">CIccArrayUnknown::NewCopy()</text>
</g>
<!-- Node0x5be8ac285ae0 -->
<g id="node14" class="node">
<title>Node0x5be8ac285ae0</title>
<path fill="#f0f4ff" stroke="black" d="M197.5,-1051C197.5,-1051 61.5,-1051 61.5,-1051 55.5,-1051 49.5,-1045 49.5,-1039 49.5,-1039 49.5,-1027 49.5,-1027 49.5,-1021 55.5,-1015 61.5,-1015 61.5,-1015 197.5,-1015 197.5,-1015 203.5,-1015 209.5,-1021 209.5,-1027 209.5,-1027 209.5,-1039 209.5,-1039 209.5,-1045 203.5,-1051 197.5,-1051"/>
<text text-anchor="middle" x="129.5" y="-1030.8" font-family="Courier,monospace" font-size="9.00">CIccArrayUnknown::Describe()</text>
</g>
<!-- Node0x5be8ac36f750 -->
<g id="node15" class="node">
<title>Node0x5be8ac36f750</title>
<path fill="#f0f4ff" stroke="black" d="M197.5,-645C197.5,-645 61.5,-645 61.5,-645 55.5,-645 49.5,-639 49.5,-633 49.5,-633 49.5,-621 49.5,-621 49.5,-615 55.5,-609 61.5,-609 61.5,-609 197.5,-609 197.5,-609 203.5,-609 209.5,-615 209.5,-621 209.5,-621 209.5,-633 209.5,-633 209.5,-639 203.5,-645 197.5,-645"/>
<text text-anchor="middle" x="129.5" y="-624.8" font-family="Courier,monospace" font-size="9.00">CIccArrayUnknown::Validate()</text>
</g>
<!-- Node0x5be8ac36f750&#45;&gt;Node0x5be8ac1fde80 -->
<g id="edge9" class="edge">
<title>Node0x5be8ac36f750&#45;&gt;Node0x5be8ac1fde80</title>
<path fill="none" stroke="#4a6fa5" d="M209.51,-637.49C226.5,-641.73 243.88,-647.67 259,-656 290.93,-673.6 285.03,-696.48 317,-714 335.19,-723.97 356.58,-730.51 376.75,-734.8"/>
<polygon fill="#4a6fa5" stroke="#4a6fa5" points="376.38,-736.87 382.68,-736.01 377.22,-732.76 376.38,-736.87"/>
</g>
<!-- Node0x5be8ac36f750&#45;&gt;Node0x5be8ac1fcc90 -->
<g id="edge10" class="edge">
<title>Node0x5be8ac36f750&#45;&gt;Node0x5be8ac1fcc90</title>
<path fill="none" stroke="#4a6fa5" d="M209.52,-641.41C259.8,-650.58 324.53,-662.39 373.93,-671.4"/>
<polygon fill="#4a6fa5" stroke="#4a6fa5" points="373.6,-673.47 379.88,-672.48 374.35,-669.34 373.6,-673.47"/>
</g>
<!-- Node0x5be8ac3b1600 -->
<g id="node16" class="node">
<title>Node0x5be8ac3b1600</title>
<path fill="#f0f4ff" stroke="black" d="M478,-587C478,-587 421,-587 421,-587 415,-587 409,-581 409,-575 409,-575 409,-563 409,-563 409,-557 415,-551 421,-551 421,-551 478,-551 478,-551 484,-551 490,-557 490,-563 490,-563 490,-575 490,-575 490,-581 484,-587 478,-587"/>
<text text-anchor="middle" x="449.5" y="-566.8" font-family="Courier,monospace" font-size="9.00">icMaxStatus()</text>
</g>
<!-- Node0x5be8ac36f750&#45;&gt;Node0x5be8ac3b1600 -->
<g id="edge11" class="edge">
<title>Node0x5be8ac36f750&#45;&gt;Node0x5be8ac3b1600</title>
<path fill="none" stroke="#4a6fa5" d="M209.52,-612.59C270.32,-601.5 352.23,-586.56 402.64,-577.36"/>
<polygon fill="#4a6fa5" stroke="#4a6fa5" points="403.11,-579.41 408.63,-576.27 402.35,-575.28 403.11,-579.41"/>
</g>
<!-- Node0x5be8ac1fd780 -->
<g id="node17" class="node">
<title>Node0x5be8ac1fd780</title>
<path fill="#f0f4ff" stroke="black" d="M541,-645C541,-645 358,-645 358,-645 352,-645 346,-639 346,-633 346,-633 346,-621 346,-621 346,-615 352,-609 358,-609 358,-609 541,-609 541,-609 547,-609 553,-615 553,-621 553,-621 553,-633 553,-633 553,-639 547,-645 541,-645"/>
<text text-anchor="middle" x="449.5" y="-624.8" font-family="Courier,monospace" font-size="9.00">icGetSigPath[abi:cxx11](unsigned int)</text>
</g>
<!-- Node0x5be8ac36f750&#45;&gt;Node0x5be8ac1fd780 -->
<g id="edge12" class="edge">
<title>Node0x5be8ac36f750&#45;&gt;Node0x5be8ac1fd780</title>
<path fill="none" stroke="#4a6fa5" d="M209.52,-627C248.79,-627 296.86,-627 339.57,-627"/>
<polygon fill="#4a6fa5" stroke="#4a6fa5" points="339.83,-629.1 345.83,-627 339.83,-624.9 339.83,-629.1"/>
</g>
<!-- Node0x5be8ac441680 -->
<g id="node18" class="node">
<title>Node0x5be8ac441680</title>
<path fill="#f0f4ff" stroke="black" d="M244.5,-210C244.5,-210 14.5,-210 14.5,-210 8.5,-210 2.5,-204 2.5,-198 2.5,-198 2.5,-186 2.5,-186 2.5,-180 8.5,-174 14.5,-174 14.5,-174 244.5,-174 244.5,-174 250.5,-174 256.5,-180 256.5,-186 256.5,-186 256.5,-198 256.5,-198 256.5,-204 250.5,-210 244.5,-210"/>
<text text-anchor="middle" x="129.5" y="-189.8" font-family="Courier,monospace" font-size="9.00">CIccArrayColorantInfo::CIccArrayColorantInfo()</text>
</g>
<!-- Node0x5be8ac441680&#45;&gt;Node0x5be8ac4332b0 -->
<g id="edge13" class="edge">
<title>Node0x5be8ac441680&#45;&gt;Node0x5be8ac4332b0</title>
<path fill="none" stroke="#4a6fa5" d="M256.64,-180.5C285.01,-177.91 314.85,-175.19 342.31,-172.68"/>
<polygon fill="#4a6fa5" stroke="#4a6fa5" points="342.71,-174.76 348.5,-172.12 342.33,-170.57 342.71,-174.76"/>
</g>
<!-- Node0x5be8ac206640 -->
<g id="node19" class="node">
<title>Node0x5be8ac206640</title>
<path fill="#f0f4ff" stroke="black" d="M247,-94C247,-94 12,-94 12,-94 6,-94 0,-88 0,-82 0,-82 0,-70 0,-70 0,-64 6,-58 12,-58 12,-58 247,-58 247,-58 253,-58 259,-64 259,-70 259,-70 259,-82 259,-82 259,-88 253,-94 247,-94"/>
<text text-anchor="middle" x="129.5" y="-73.8" font-family="Courier,monospace" font-size="9.00">CIccArrayColorantInfo::~CIccArrayColorantInfo()</text>
</g>
<!-- Node0x5be8ac206640&#45;&gt;Node0x5be8ac4381f0 -->
<g id="edge14" class="edge">
<title>Node0x5be8ac206640&#45;&gt;Node0x5be8ac4381f0</title>
<path fill="none" stroke="#4a6fa5" d="M259.38,-76C286,-76 313.79,-76 339.61,-76"/>
<polygon fill="#4a6fa5" stroke="#4a6fa5" points="339.78,-78.1 345.78,-76 339.78,-73.9 339.78,-78.1"/>
</g>
<!-- Node0x5be8ac440ad0 -->
<g id="node20" class="node">
<title>Node0x5be8ac440ad0</title>
<path fill="#f0f4ff" stroke="black" d="M247,-1109C247,-1109 12,-1109 12,-1109 6,-1109 0,-1103 0,-1097 0,-1097 0,-1085 0,-1085 0,-1079 6,-1073 12,-1073 12,-1073 247,-1073 247,-1073 253,-1073 259,-1079 259,-1085 259,-1085 259,-1097 259,-1097 259,-1103 253,-1109 247,-1109"/>
<text text-anchor="middle" x="129.5" y="-1088.8" font-family="Courier,monospace" font-size="9.00">CIccArrayColorantInfo::~CIccArrayColorantInfo()</text>
</g>
<!-- Node0x5be8ac43f2a0 -->
<g id="node21" class="node">
<title>Node0x5be8ac43f2a0</title>
<path fill="#f0f4ff" stroke="black" d="M208,-1167C208,-1167 51,-1167 51,-1167 45,-1167 39,-1161 39,-1155 39,-1155 39,-1143 39,-1143 39,-1137 45,-1131 51,-1131 51,-1131 208,-1131 208,-1131 214,-1131 220,-1137 220,-1143 220,-1143 220,-1155 220,-1155 220,-1161 214,-1167 208,-1167"/>
<text text-anchor="middle" x="129.5" y="-1146.8" font-family="Courier,monospace" font-size="9.00">CIccArrayColorantInfo::NewCopy()</text>
</g>
<!-- Node0x5be8ac441b80 -->
<g id="node22" class="node">
<title>Node0x5be8ac441b80</title>
<path fill="#f0f4ff" stroke="black" d="M210.5,-1225C210.5,-1225 48.5,-1225 48.5,-1225 42.5,-1225 36.5,-1219 36.5,-1213 36.5,-1213 36.5,-1201 36.5,-1201 36.5,-1195 42.5,-1189 48.5,-1189 48.5,-1189 210.5,-1189 210.5,-1189 216.5,-1189 222.5,-1195 222.5,-1201 222.5,-1201 222.5,-1213 222.5,-1213 222.5,-1219 216.5,-1225 210.5,-1225"/>
<text text-anchor="middle" x="129.5" y="-1204.8" font-family="Courier,monospace" font-size="9.00">CIccArrayColorantInfo::Describe()</text>
</g>
<!-- Node0x5be8ac2076e0 -->
<g id="node23" class="node">
<title>Node0x5be8ac2076e0</title>
<path fill="#f0f4ff" stroke="black" d="M210.5,-703C210.5,-703 48.5,-703 48.5,-703 42.5,-703 36.5,-697 36.5,-691 36.5,-691 36.5,-679 36.5,-679 36.5,-673 42.5,-667 48.5,-667 48.5,-667 210.5,-667 210.5,-667 216.5,-667 222.5,-673 222.5,-679 222.5,-679 222.5,-691 222.5,-691 222.5,-697 216.5,-703 210.5,-703"/>
<text text-anchor="middle" x="129.5" y="-682.8" font-family="Courier,monospace" font-size="9.00">CIccArrayColorantInfo::Validate()</text>
</g>
<!-- Node0x5be8ac2076e0&#45;&gt;Node0x5be8ac1fde80 -->
<g id="edge15" class="edge">
<title>Node0x5be8ac2076e0&#45;&gt;Node0x5be8ac1fde80</title>
<path fill="none" stroke="#4a6fa5" d="M222.91,-701.85C271.87,-710.78 331.12,-721.59 376.61,-729.89"/>
<polygon fill="#4a6fa5" stroke="#4a6fa5" points="376.37,-731.98 382.65,-730.99 377.12,-727.85 376.37,-731.98"/>
</g>
<!-- Node0x5be8ac2076e0&#45;&gt;Node0x5be8ac1fcc90 -->
<g id="edge16" class="edge">
<title>Node0x5be8ac2076e0&#45;&gt;Node0x5be8ac1fcc90</title>
<path fill="none" stroke="#4a6fa5" d="M222.91,-685C270.81,-685 328.55,-685 373.63,-685"/>
<polygon fill="#4a6fa5" stroke="#4a6fa5" points="373.9,-687.1 379.9,-685 373.9,-682.9 373.9,-687.1"/>
</g>
<!-- Node0x5be8ac2076e0&#45;&gt;Node0x5be8ac3b1600 -->
<g id="edge17" class="edge">
<title>Node0x5be8ac2076e0&#45;&gt;Node0x5be8ac3b1600</title>
<path fill="none" stroke="#4a6fa5" d="M222.7,-670.87C235.32,-667.05 247.78,-662.18 259,-656 290.93,-638.4 285.03,-615.52 317,-598 343.29,-583.6 376.23,-576.35 402.57,-572.7"/>
<polygon fill="#4a6fa5" stroke="#4a6fa5" points="403.09,-574.75 408.77,-571.89 402.55,-570.58 403.09,-574.75"/>
</g>
<!-- Node0x5be8ac2076e0&#45;&gt;Node0x5be8ac1fd780 -->
<g id="edge18" class="edge">
<title>Node0x5be8ac2076e0&#45;&gt;Node0x5be8ac1fd780</title>
<path fill="none" stroke="#4a6fa5" d="M222.91,-668.15C260.68,-661.26 304.57,-653.25 343.55,-646.14"/>
<polygon fill="#4a6fa5" stroke="#4a6fa5" points="344.23,-648.15 349.76,-645.01 343.48,-644.02 344.23,-648.15"/>
</g>
<!-- Node0x5be8ac208650 -->
<g id="node24" class="node">
<title>Node0x5be8ac208650</title>
<path fill="#f0f4ff" stroke="black" d="M234,-152C234,-152 25,-152 25,-152 19,-152 13,-146 13,-140 13,-140 13,-128 13,-128 13,-122 19,-116 25,-116 25,-116 234,-116 234,-116 240,-116 246,-122 246,-128 246,-128 246,-140 246,-140 246,-146 240,-152 234,-152"/>
<text text-anchor="middle" x="129.5" y="-131.8" font-family="Courier,monospace" font-size="9.00">CIccArrayNamedColor::CIccArrayNamedColor()</text>
</g>
<!-- Node0x5be8ac208650&#45;&gt;Node0x5be8ac4332b0 -->
<g id="edge19" class="edge">
<title>Node0x5be8ac208650&#45;&gt;Node0x5be8ac4332b0</title>
<path fill="none" stroke="#4a6fa5" d="M246.2,-144.55C277.59,-147.41 311.41,-150.5 342.24,-153.31"/>
<polygon fill="#4a6fa5" stroke="#4a6fa5" points="342.2,-155.41 348.37,-153.87 342.58,-151.23 342.2,-155.41"/>
</g>
<!-- Node0x5be8ac208650&#45;&gt;Node0x5be8ac4381f0 -->
<g id="edge20" class="edge">
<title>Node0x5be8ac208650&#45;&gt;Node0x5be8ac4381f0</title>
<path fill="none" stroke="#4a6fa5" d="M229.37,-115.97C265.57,-109.36 306.64,-101.87 343.36,-95.18"/>
<polygon fill="#4a6fa5" stroke="#4a6fa5" points="344.16,-97.17 349.69,-94.02 343.41,-93.03 344.16,-97.17"/>
</g>
<!-- Node0x5be8ac208800 -->
<g id="node25" class="node">
<title>Node0x5be8ac208800</title>
<path fill="#f0f4ff" stroke="black" d="M236.5,-36C236.5,-36 22.5,-36 22.5,-36 16.5,-36 10.5,-30 10.5,-24 10.5,-24 10.5,-12 10.5,-12 10.5,-6 16.5,0 22.5,0 22.5,0 236.5,0 236.5,0 242.5,0 248.5,-6 248.5,-12 248.5,-12 248.5,-24 248.5,-24 248.5,-30 242.5,-36 236.5,-36"/>
<text text-anchor="middle" x="129.5" y="-15.8" font-family="Courier,monospace" font-size="9.00">CIccArrayNamedColor::~CIccArrayNamedColor()</text>
</g>
<!-- Node0x5be8ac208800&#45;&gt;Node0x5be8ac4381f0 -->
<g id="edge21" class="edge">
<title>Node0x5be8ac208800&#45;&gt;Node0x5be8ac4381f0</title>
<path fill="none" stroke="#4a6fa5" d="M229.37,-36.03C265.57,-42.64 306.64,-50.13 343.36,-56.82"/>
<polygon fill="#4a6fa5" stroke="#4a6fa5" points="343.41,-58.97 349.69,-57.98 344.16,-54.83 343.41,-58.97"/>
</g>
<!-- Node0x5be8ac2085d0 -->
<g id="node26" class="node">
<title>Node0x5be8ac2085d0</title>
<path fill="#f0f4ff" stroke="black" d="M236.5,-1283C236.5,-1283 22.5,-1283 22.5,-1283 16.5,-1283 10.5,-1277 10.5,-1271 10.5,-1271 10.5,-1259 10.5,-1259 10.5,-1253 16.5,-1247 22.5,-1247 22.5,-1247 236.5,-1247 236.5,-1247 242.5,-1247 248.5,-1253 248.5,-1259 248.5,-1259 248.5,-1271 248.5,-1271 248.5,-1277 242.5,-1283 236.5,-1283"/>
<text text-anchor="middle" x="129.5" y="-1262.8" font-family="Courier,monospace" font-size="9.00">CIccArrayNamedColor::~CIccArrayNamedColor()</text>
</g>
<!-- Node0x5be8ac208e10 -->
<g id="node27" class="node">
<title>Node0x5be8ac208e10</title>
<path fill="#f0f4ff" stroke="black" d="M202.5,-1341C202.5,-1341 56.5,-1341 56.5,-1341 50.5,-1341 44.5,-1335 44.5,-1329 44.5,-1329 44.5,-1317 44.5,-1317 44.5,-1311 50.5,-1305 56.5,-1305 56.5,-1305 202.5,-1305 202.5,-1305 208.5,-1305 214.5,-1311 214.5,-1317 214.5,-1317 214.5,-1329 214.5,-1329 214.5,-1335 208.5,-1341 202.5,-1341"/>
<text text-anchor="middle" x="129.5" y="-1320.8" font-family="Courier,monospace" font-size="9.00">CIccArrayNamedColor::NewCopy()</text>
</g>
<!-- Node0x5be8ac2092e0 -->
<g id="node28" class="node">
<title>Node0x5be8ac2092e0</title>
<path fill="#f0f4ff" stroke="black" d="M205,-1399C205,-1399 54,-1399 54,-1399 48,-1399 42,-1393 42,-1387 42,-1387 42,-1375 42,-1375 42,-1369 48,-1363 54,-1363 54,-1363 205,-1363 205,-1363 211,-1363 217,-1369 217,-1375 217,-1375 217,-1387 217,-1387 217,-1393 211,-1399 205,-1399"/>
<text text-anchor="middle" x="129.5" y="-1378.8" font-family="Courier,monospace" font-size="9.00">CIccArrayNamedColor::Describe()</text>
</g>
<!-- Node0x5be8ac4438a0 -->
<g id="node29" class="node">
<title>Node0x5be8ac4438a0</title>
<path fill="#f0f4ff" stroke="black" d="M221,-1457C221,-1457 38,-1457 38,-1457 32,-1457 26,-1451 26,-1445 26,-1445 26,-1433 26,-1433 26,-1427 32,-1421 38,-1421 38,-1421 221,-1421 221,-1421 227,-1421 233,-1427 233,-1433 233,-1433 233,-1445 233,-1445 233,-1451 227,-1457 221,-1457"/>
<text text-anchor="middle" x="129.5" y="-1436.8" font-family="Courier,monospace" font-size="9.00">CIccArrayNamedColor::SetColorSpaces()</text>
</g>
<!-- Node0x5be8ac20b340 -->
<g id="node30" class="node">
<title>Node0x5be8ac20b340</title>
<path fill="#f0f4ff" stroke="black" d="M493.5,-1457C493.5,-1457 405.5,-1457 405.5,-1457 399.5,-1457 393.5,-1451 393.5,-1445 393.5,-1445 393.5,-1433 393.5,-1433 393.5,-1427 399.5,-1421 405.5,-1421 405.5,-1421 493.5,-1421 493.5,-1421 499.5,-1421 505.5,-1427 505.5,-1433 505.5,-1433 505.5,-1445 505.5,-1445 505.5,-1451 499.5,-1457 493.5,-1457"/>
<text text-anchor="middle" x="449.5" y="-1436.8" font-family="Courier,monospace" font-size="9.00">icGetSpaceSamples()</text>
</g>
<!-- Node0x5be8ac4438a0&#45;&gt;Node0x5be8ac20b340 -->
<g id="edge22" class="edge">
<title>Node0x5be8ac4438a0&#45;&gt;Node0x5be8ac20b340</title>
<path fill="none" stroke="#4a6fa5" d="M233.31,-1439C284.09,-1439 343.64,-1439 387.21,-1439"/>
<polygon fill="#4a6fa5" stroke="#4a6fa5" points="387.25,-1441.1 393.25,-1439 387.25,-1436.9 387.25,-1441.1"/>
</g>
<!-- Node0x5be8ac444130 -->
<g id="node31" class="node">
<title>Node0x5be8ac444130</title>
<path fill="#f0f4ff" stroke="black" d="M197.5,-761C197.5,-761 61.5,-761 61.5,-761 55.5,-761 49.5,-755 49.5,-749 49.5,-749 49.5,-737 49.5,-737 49.5,-731 55.5,-725 61.5,-725 61.5,-725 197.5,-725 197.5,-725 203.5,-725 209.5,-731 209.5,-737 209.5,-737 209.5,-749 209.5,-749 209.5,-755 203.5,-761 197.5,-761"/>
<text text-anchor="middle" x="129.5" y="-740.8" font-family="Courier,monospace" font-size="9.00">CIccArrayNamedColor::Begin()</text>
</g>
<!-- Node0x5be8ac444130&#45;&gt;Node0x5be8ac1fde80 -->
<g id="edge25" class="edge">
<title>Node0x5be8ac444130&#45;&gt;Node0x5be8ac1fde80</title>
<path fill="none" stroke="#4a6fa5" d="M209.52,-743C260.67,-743 326.76,-743 376.47,-743"/>
<polygon fill="#4a6fa5" stroke="#4a6fa5" points="376.76,-745.1 382.76,-743 376.76,-740.9 376.76,-745.1"/>
</g>
<!-- Node0x5be8ac444130&#45;&gt;Node0x5be8ac1fcc90 -->
<g id="edge23" class="edge">
<title>Node0x5be8ac444130&#45;&gt;Node0x5be8ac1fcc90</title>
<path fill="none" stroke="#4a6fa5" d="M209.52,-728.59C259.8,-719.42 324.53,-707.61 373.93,-698.6"/>
<polygon fill="#4a6fa5" stroke="#4a6fa5" points="374.35,-700.66 379.88,-697.52 373.6,-696.53 374.35,-700.66"/>
</g>
<!-- Node0x5be8ac444130&#45;&gt;Node0x5be8ac20a3c0 -->
<g id="edge24" class="edge">
<title>Node0x5be8ac444130&#45;&gt;Node0x5be8ac20a3c0</title>
<path fill="none" stroke="#4a6fa5" d="M209.51,-753.49C226.5,-757.73 243.88,-763.67 259,-772 290.93,-789.6 285.03,-812.48 317,-830 330.48,-837.39 345.72,-842.89 360.92,-847"/>
<polygon fill="#4a6fa5" stroke="#4a6fa5" points="360.63,-849.09 366.96,-848.56 361.68,-845.03 360.63,-849.09"/>
</g>
<!-- Node0x5be8ac443cb0 -->
<g id="node32" class="node">
<title>Node0x5be8ac443cb0</title>
<path fill="#f0f4ff" stroke="black" d="M570,-819C570,-819 329,-819 329,-819 323,-819 317,-813 317,-807 317,-807 317,-795 317,-795 317,-789 323,-783 329,-783 329,-783 570,-783 570,-783 576,-783 582,-789 582,-795 582,-795 582,-807 582,-807 582,-813 576,-819 570,-819"/>
<text text-anchor="middle" x="449.5" y="-798.8" font-family="Courier,monospace" font-size="9.00">CIccStructNamedColor::getName[abi:cxx11]() const</text>
</g>
<!-- Node0x5be8ac444130&#45;&gt;Node0x5be8ac443cb0 -->
<g id="edge26" class="edge">
<title>Node0x5be8ac444130&#45;&gt;Node0x5be8ac443cb0</title>
<path fill="none" stroke="#4a6fa5" d="M209.52,-757.41C250.01,-764.8 299.86,-773.89 343.54,-781.86"/>
<polygon fill="#4a6fa5" stroke="#4a6fa5" points="343.38,-783.96 349.66,-782.97 344.14,-779.83 343.38,-783.96"/>
</g>
<!-- Node0x5be8ac44c390 -->
<g id="node33" class="node">
<title>Node0x5be8ac44c390</title>
<path fill="#f0f4ff" stroke="black" d="M208,-1515C208,-1515 51,-1515 51,-1515 45,-1515 39,-1509 39,-1503 39,-1503 39,-1491 39,-1491 39,-1485 45,-1479 51,-1479 51,-1479 208,-1479 208,-1479 214,-1479 220,-1485 220,-1491 220,-1491 220,-1503 220,-1503 220,-1509 214,-1515 208,-1515"/>
<text text-anchor="middle" x="129.5" y="-1494.8" font-family="Courier,monospace" font-size="9.00">CIccArrayNamedColor::FindColor()</text>
</g>
<!-- Node0x5be8ac449ab0 -->
<g id="node34" class="node">
<title>Node0x5be8ac449ab0</title>
<path fill="#f0f4ff" stroke="black" d="M150,-1573C150,-1573 109,-1573 109,-1573 103,-1573 97,-1567 97,-1561 97,-1561 97,-1549 97,-1549 97,-1543 103,-1537 109,-1537 109,-1537 150,-1537 150,-1537 156,-1537 162,-1543 162,-1549 162,-1549 162,-1561 162,-1561 162,-1567 156,-1573 150,-1573"/>
<text text-anchor="middle" x="129.5" y="-1552.8" font-family="Courier,monospace" font-size="9.00">key_comp()</text>
</g>
<!-- Node0x5be8ac45bb40 -->
<g id="node35" class="node">
<title>Node0x5be8ac45bb40</title>
<path fill="#f0f4ff" stroke="black" d="M470,-1573C470,-1573 429,-1573 429,-1573 423,-1573 417,-1567 417,-1561 417,-1561 417,-1549 417,-1549 417,-1543 423,-1537 429,-1537 429,-1537 470,-1537 470,-1537 476,-1537 482,-1543 482,-1549 482,-1549 482,-1561 482,-1561 482,-1567 476,-1573 470,-1573"/>
<text text-anchor="middle" x="449.5" y="-1552.8" font-family="Courier,monospace" font-size="9.00">key_comp()</text>
</g>
<!-- Node0x5be8ac449ab0&#45;&gt;Node0x5be8ac45bb40 -->
<g id="edge27" class="edge">
<title>Node0x5be8ac449ab0&#45;&gt;Node0x5be8ac45bb40</title>
<path fill="none" stroke="#4a6fa5" d="M162.15,-1555C221.08,-1555 347.37,-1555 410.68,-1555"/>
<polygon fill="#4a6fa5" stroke="#4a6fa5" points="410.97,-1557.1 416.97,-1555 410.97,-1552.9 410.97,-1557.1"/>
</g>
<!-- Node0x5be8ac45aa80 -->
<g id="node36" class="node">
<title>Node0x5be8ac45aa80</title>
<path fill="#f0f4ff" stroke="black" d="M223.5,-819C223.5,-819 35.5,-819 35.5,-819 29.5,-819 23.5,-813 23.5,-807 23.5,-807 23.5,-795 23.5,-795 23.5,-789 29.5,-783 35.5,-783 35.5,-783 223.5,-783 223.5,-783 229.5,-783 235.5,-789 235.5,-795 235.5,-795 235.5,-807 235.5,-807 235.5,-813 229.5,-819 223.5,-819"/>
<text text-anchor="middle" x="129.5" y="-798.8" font-family="Courier,monospace" font-size="9.00">CIccArrayNamedColor::FindDeviceColor()</text>
</g>
<!-- Node0x5be8ac45aa80&#45;&gt;Node0x5be8ac1fde80 -->
<g id="edge28" class="edge">
<title>Node0x5be8ac45aa80&#45;&gt;Node0x5be8ac1fde80</title>
<path fill="none" stroke="#4a6fa5" d="M229.37,-782.97C277.09,-774.26 333.27,-764.02 376.8,-756.08"/>
<polygon fill="#4a6fa5" stroke="#4a6fa5" points="377.33,-758.12 382.86,-754.97 376.58,-753.98 377.33,-758.12"/>
</g>
<!-- Node0x5be8ac45aa80&#45;&gt;Node0x5be8ac1fcc90 -->
<g id="edge29" class="edge">
<title>Node0x5be8ac45aa80&#45;&gt;Node0x5be8ac1fcc90</title>
<path fill="none" stroke="#4a6fa5" d="M234.46,-782.97C242.99,-779.88 251.29,-776.25 259,-772 290.93,-754.4 285.03,-731.52 317,-714 334.37,-704.48 354.65,-698.09 374.01,-693.79"/>
<polygon fill="#4a6fa5" stroke="#4a6fa5" points="374.55,-695.82 379.98,-692.52 373.68,-691.71 374.55,-695.82"/>
</g>
<!-- Node0x5be8ac45aa80&#45;&gt;Node0x5be8ac20a3c0 -->
<g id="edge30" class="edge">
<title>Node0x5be8ac45aa80&#45;&gt;Node0x5be8ac20a3c0</title>
<path fill="none" stroke="#4a6fa5" d="M229.37,-819.03C271.43,-826.7 320.06,-835.57 360.81,-843.01"/>
<polygon fill="#4a6fa5" stroke="#4a6fa5" points="360.49,-845.08 366.77,-844.09 361.24,-840.95 360.49,-845.08"/>
</g>
<!-- Node0x5be8ac45aa80&#45;&gt;Node0x5be8ac45ebe0 -->
<g id="edge31" class="edge">
<title>Node0x5be8ac45aa80&#45;&gt;Node0x5be8ac45ebe0</title>
<path fill="none" stroke="#4a6fa5" d="M234.46,-819.03C242.99,-822.12 251.29,-825.75 259,-830 290.93,-847.6 285.03,-870.48 317,-888 331.24,-895.8 347.44,-901.51 363.48,-905.68"/>
<polygon fill="#4a6fa5" stroke="#4a6fa5" points="363.05,-907.73 369.38,-907.14 364.06,-903.66 363.05,-907.73"/>
</g>
<!-- Node0x5be8ac4637c0 -->
<g id="node37" class="node">
<title>Node0x5be8ac4637c0</title>
<path fill="#f0f4ff" stroke="black" d="M229,-877C229,-877 30,-877 30,-877 24,-877 18,-871 18,-865 18,-865 18,-853 18,-853 18,-847 24,-841 30,-841 30,-841 229,-841 229,-841 235,-841 241,-847 241,-853 241,-853 241,-865 241,-865 241,-871 235,-877 229,-877"/>
<text text-anchor="middle" x="129.5" y="-856.8" font-family="Courier,monospace" font-size="9.00">CIccArrayNamedColor::FindSpectralColor()</text>
</g>
<!-- Node0x5be8ac4637c0&#45;&gt;Node0x5be8ac1fde80 -->
<g id="edge32" class="edge">
<title>Node0x5be8ac4637c0&#45;&gt;Node0x5be8ac1fde80</title>
<path fill="none" stroke="#4a6fa5" d="M234.46,-840.97C242.99,-837.88 251.29,-834.25 259,-830 290.93,-812.4 285.03,-789.52 317,-772 335.19,-762.03 356.58,-755.49 376.75,-751.2"/>
<polygon fill="#4a6fa5" stroke="#4a6fa5" points="377.22,-753.24 382.68,-749.99 376.38,-749.13 377.22,-753.24"/>
</g>
<!-- Node0x5be8ac4637c0&#45;&gt;Node0x5be8ac1fcc90 -->
<g id="edge33" class="edge">
<title>Node0x5be8ac4637c0&#45;&gt;Node0x5be8ac1fcc90</title>
<path fill="none" stroke="#4a6fa5" d="M241.18,-841.15C247.5,-837.99 253.51,-834.3 259,-830 304.37,-794.45 271.54,-749.44 317,-714 333.19,-701.38 353.76,-694 373.78,-689.76"/>
<polygon fill="#4a6fa5" stroke="#4a6fa5" points="374.21,-691.82 379.69,-688.59 373.4,-687.69 374.21,-691.82"/>
</g>
<!-- Node0x5be8ac4637c0&#45;&gt;Node0x5be8ac20a3c0 -->
<g id="edge34" class="edge">
<title>Node0x5be8ac4637c0&#45;&gt;Node0x5be8ac20a3c0</title>
<path fill="none" stroke="#4a6fa5" d="M241.27,-859C280.25,-859 323.49,-859 360.35,-859"/>
<polygon fill="#4a6fa5" stroke="#4a6fa5" points="360.68,-861.1 366.68,-859 360.68,-856.9 360.68,-861.1"/>
</g>
<!-- Node0x5be8ac4637c0&#45;&gt;Node0x5be8ac45ebe0 -->
<g id="edge35" class="edge">
<title>Node0x5be8ac4637c0&#45;&gt;Node0x5be8ac45ebe0</title>
<path fill="none" stroke="#4a6fa5" d="M229.37,-877.03C272.3,-884.86 322.08,-893.94 363.33,-901.47"/>
<polygon fill="#4a6fa5" stroke="#4a6fa5" points="363.07,-903.55 369.35,-902.56 363.83,-899.42 363.07,-903.55"/>
</g>
<!-- Node0x5be8ac463160 -->
<g id="node38" class="node">
<title>Node0x5be8ac463160</title>
<path fill="#f0f4ff" stroke="black" d="M470,-993C470,-993 429,-993 429,-993 423,-993 417,-987 417,-981 417,-981 417,-969 417,-969 417,-963 423,-957 429,-957 429,-957 470,-957 470,-957 476,-957 482,-963 482,-969 482,-969 482,-981 482,-981 482,-987 476,-993 470,-993"/>
<text text-anchor="middle" x="449.5" y="-972.8" font-family="Courier,monospace" font-size="9.00">icRmsDif()</text>
</g>
<!-- Node0x5be8ac4637c0&#45;&gt;Node0x5be8ac463160 -->
<g id="edge36" class="edge">
<title>Node0x5be8ac4637c0&#45;&gt;Node0x5be8ac463160</title>
<path fill="none" stroke="#4a6fa5" d="M234.46,-877.03C242.99,-880.12 251.29,-883.75 259,-888 290.93,-905.6 285.03,-928.48 317,-946 346.07,-961.93 383.27,-969.11 410.69,-972.34"/>
<polygon fill="#4a6fa5" stroke="#4a6fa5" points="410.53,-974.44 416.73,-973.01 411,-970.27 410.53,-974.44"/>
</g>
<!-- Node0x5be8ac46cad0 -->
<g id="node39" class="node">
<title>Node0x5be8ac46cad0</title>
<path fill="#f0f4ff" stroke="black" d="M218.5,-384C218.5,-384 40.5,-384 40.5,-384 34.5,-384 28.5,-378 28.5,-372 28.5,-372 28.5,-360 28.5,-360 28.5,-354 34.5,-348 40.5,-348 40.5,-348 218.5,-348 218.5,-348 224.5,-348 230.5,-354 230.5,-360 230.5,-360 230.5,-372 230.5,-372 230.5,-378 224.5,-384 218.5,-384"/>
<text text-anchor="middle" x="129.5" y="-363.8" font-family="Courier,monospace" font-size="9.00">CIccArrayNamedColor::GetDeviceTint()</text>
</g>
<!-- Node0x5be8ac46c850 -->
<g id="node40" class="node">
<title>Node0x5be8ac46c850</title>
<path fill="#f0f4ff" stroke="black" d="M535.5,-413C535.5,-413 363.5,-413 363.5,-413 357.5,-413 351.5,-407 351.5,-401 351.5,-401 351.5,-389 351.5,-389 351.5,-383 357.5,-377 363.5,-377 363.5,-377 535.5,-377 535.5,-377 541.5,-377 547.5,-383 547.5,-389 547.5,-389 547.5,-401 547.5,-401 547.5,-407 541.5,-413 535.5,-413"/>
<text text-anchor="middle" x="449.5" y="-392.8" font-family="Courier,monospace" font-size="9.00">CIccStructNamedColor::GetNumArray()</text>
</g>
<!-- Node0x5be8ac46cad0&#45;&gt;Node0x5be8ac46c850 -->
<g id="edge37" class="edge">
<title>Node0x5be8ac46cad0&#45;&gt;Node0x5be8ac46c850</title>
<path fill="none" stroke="#4a6fa5" d="M230.68,-375.14C267.08,-378.46 308.27,-382.21 344.95,-385.56"/>
<polygon fill="#4a6fa5" stroke="#4a6fa5" points="345.1,-387.68 351.27,-386.13 345.49,-383.5 345.1,-387.68"/>
</g>
<!-- Node0x5be8ac46c520 -->
<g id="node41" class="node">
<title>Node0x5be8ac46c520</title>
<path fill="#f0f4ff" stroke="black" d="M525,-355C525,-355 374,-355 374,-355 368,-355 362,-349 362,-343 362,-343 362,-331 362,-331 362,-325 368,-319 374,-319 374,-319 525,-319 525,-319 531,-319 537,-325 537,-331 537,-331 537,-343 537,-343 537,-349 531,-355 525,-355"/>
<text text-anchor="middle" x="449.5" y="-334.8" font-family="Courier,monospace" font-size="9.00">CIccStructNamedColor::GetTint()</text>
</g>
<!-- Node0x5be8ac46cad0&#45;&gt;Node0x5be8ac46c520 -->
<g id="edge38" class="edge">
<title>Node0x5be8ac46cad0&#45;&gt;Node0x5be8ac46c520</title>
<path fill="none" stroke="#4a6fa5" d="M230.68,-356.86C270.69,-353.22 316.47,-349.04 355.71,-345.46"/>
<polygon fill="#4a6fa5" stroke="#4a6fa5" points="356.17,-347.53 361.95,-344.89 355.79,-343.35 356.17,-347.53"/>
</g>
<!-- Node0x5be8ac46c3b0 -->
<g id="node42" class="node">
<title>Node0x5be8ac46c3b0</title>
<path fill="#f0f4ff" stroke="black" d="M210.5,-326C210.5,-326 48.5,-326 48.5,-326 42.5,-326 36.5,-320 36.5,-314 36.5,-314 36.5,-302 36.5,-302 36.5,-296 42.5,-290 48.5,-290 48.5,-290 210.5,-290 210.5,-290 216.5,-290 222.5,-296 222.5,-302 222.5,-302 222.5,-314 222.5,-314 222.5,-320 216.5,-326 210.5,-326"/>
<text text-anchor="middle" x="129.5" y="-305.8" font-family="Courier,monospace" font-size="9.00">CIccArrayNamedColor::GetPcsTint()</text>
</g>
<!-- Node0x5be8ac46c3b0&#45;&gt;Node0x5be8ac46c850 -->
<g id="edge39" class="edge">
<title>Node0x5be8ac46c3b0&#45;&gt;Node0x5be8ac46c850</title>
<path fill="none" stroke="#4a6fa5" d="M222.53,-325.92C234.93,-329.16 247.37,-332.85 259,-337 286.14,-346.69 289.83,-356.38 317,-366 326.67,-369.42 336.89,-372.53 347.19,-375.32"/>
<polygon fill="#4a6fa5" stroke="#4a6fa5" points="346.92,-377.42 353.26,-376.93 347.99,-373.36 346.92,-377.42"/>
</g>
<!-- Node0x5be8ac46c3b0&#45;&gt;Node0x5be8ac46c520 -->
<g id="edge40" class="edge">
<title>Node0x5be8ac46c3b0&#45;&gt;Node0x5be8ac46c520</title>
<path fill="none" stroke="#4a6fa5" d="M222.91,-316.43C264.68,-320.24 313.94,-324.73 355.75,-328.54"/>
<polygon fill="#4a6fa5" stroke="#4a6fa5" points="355.7,-330.65 361.87,-329.1 356.08,-326.46 355.7,-330.65"/>
</g>
<!-- Node0x5be8ac46c200 -->
<g id="node43" class="node">
<title>Node0x5be8ac46c200</title>
<path fill="#f0f4ff" stroke="black" d="M223.5,-442C223.5,-442 35.5,-442 35.5,-442 29.5,-442 23.5,-436 23.5,-430 23.5,-430 23.5,-418 23.5,-418 23.5,-412 29.5,-406 35.5,-406 35.5,-406 223.5,-406 223.5,-406 229.5,-406 235.5,-412 235.5,-418 235.5,-418 235.5,-430 235.5,-430 235.5,-436 229.5,-442 223.5,-442"/>
<text text-anchor="middle" x="129.5" y="-421.8" font-family="Courier,monospace" font-size="9.00">CIccArrayNamedColor::GetSpectralTint()</text>
</g>
<!-- Node0x5be8ac46c200&#45;&gt;Node0x5be8ac46c850 -->
<g id="edge41" class="edge">
<title>Node0x5be8ac46c200&#45;&gt;Node0x5be8ac46c850</title>
<path fill="none" stroke="#4a6fa5" d="M235.51,-414.42C270.82,-411.2 310.17,-407.62 345.34,-404.41"/>
<polygon fill="#4a6fa5" stroke="#4a6fa5" points="345.62,-406.49 351.4,-403.85 345.24,-402.31 345.62,-406.49"/>
</g>
<!-- Node0x5be8ac46c200&#45;&gt;Node0x5be8ac46c520 -->
<g id="edge42" class="edge">
<title>Node0x5be8ac46c200&#45;&gt;Node0x5be8ac46c520</title>
<path fill="none" stroke="#4a6fa5" d="M222.88,-405.99C235.16,-402.77 247.48,-399.11 259,-395 286.14,-385.31 289.83,-375.62 317,-366 329.33,-361.63 342.54,-357.79 355.67,-354.45"/>
<polygon fill="#4a6fa5" stroke="#4a6fa5" points="356.38,-356.44 361.7,-352.95 355.37,-352.37 356.38,-356.44"/>
</g>
<!-- Node0x5be8ac4686d0 -->
<g id="node44" class="node">
<title>Node0x5be8ac4686d0</title>
<path fill="#f0f4ff" stroke="black" d="M205,-558C205,-558 54,-558 54,-558 48,-558 42,-552 42,-546 42,-546 42,-534 42,-534 42,-528 48,-522 54,-522 54,-522 205,-522 205,-522 211,-522 217,-528 217,-534 217,-534 217,-546 217,-546 217,-552 211,-558 205,-558"/>
<text text-anchor="middle" x="129.5" y="-537.8" font-family="Courier,monospace" font-size="9.00">CIccArrayNamedColor::Validate()</text>
</g>
<!-- Node0x5be8ac4686d0&#45;&gt;Node0x5be8ac1fde80 -->
<g id="edge43" class="edge">
<title>Node0x5be8ac4686d0&#45;&gt;Node0x5be8ac1fde80</title>
<path fill="none" stroke="#4a6fa5" d="M192.21,-558.01C215.29,-567.11 240.38,-580.11 259,-598 300.56,-637.94 271.54,-678.56 317,-714 333.95,-727.21 355.68,-734.67 376.58,-738.81"/>
<polygon fill="#4a6fa5" stroke="#4a6fa5" points="376.46,-740.93 382.74,-739.94 377.21,-736.8 376.46,-740.93"/>
</g>
<!-- Node0x5be8ac4686d0&#45;&gt;Node0x5be8ac1fcc90 -->
<g id="edge45" class="edge">
<title>Node0x5be8ac4686d0&#45;&gt;Node0x5be8ac1fcc90</title>
<path fill="none" stroke="#4a6fa5" d="M181.55,-558.08C206.08,-567.97 235.24,-581.58 259,-598 288.99,-618.73 285.03,-638.48 317,-656 334.37,-665.52 354.65,-671.91 374.01,-676.21"/>
<polygon fill="#4a6fa5" stroke="#4a6fa5" points="373.68,-678.29 379.98,-677.48 374.55,-674.18 373.68,-678.29"/>
</g>
<!-- Node0x5be8ac4686d0&#45;&gt;Node0x5be8ac3b1600 -->
<g id="edge44" class="edge">
<title>Node0x5be8ac4686d0&#45;&gt;Node0x5be8ac3b1600</title>
<path fill="none" stroke="#4a6fa5" d="M217.39,-547.92C277.35,-553.39 354.67,-560.44 402.92,-564.84"/>
<polygon fill="#4a6fa5" stroke="#4a6fa5" points="402.78,-566.94 408.95,-565.39 403.16,-562.76 402.78,-566.94"/>
</g>
<!-- Node0x5be8ac4686d0&#45;&gt;Node0x5be8ac46c850 -->
<g id="edge47" class="edge">
<title>Node0x5be8ac4686d0&#45;&gt;Node0x5be8ac46c850</title>
<path fill="none" stroke="#4a6fa5" d="M156.99,-521.96C200.14,-492.85 284.07,-437.41 317,-424 326.14,-420.28 335.84,-416.99 345.67,-414.11"/>
<polygon fill="#4a6fa5" stroke="#4a6fa5" points="346.28,-416.12 351.47,-412.45 345.12,-412.08 346.28,-416.12"/>
</g>
<!-- Node0x5be8ac46a5b0 -->
<g id="node45" class="node">
<title>Node0x5be8ac46a5b0</title>
<path fill="#f0f4ff" stroke="black" d="M530.5,-529C530.5,-529 368.5,-529 368.5,-529 362.5,-529 356.5,-523 356.5,-517 356.5,-517 356.5,-505 356.5,-505 356.5,-499 362.5,-493 368.5,-493 368.5,-493 530.5,-493 530.5,-493 536.5,-493 542.5,-499 542.5,-505 542.5,-505 542.5,-517 542.5,-517 542.5,-523 536.5,-529 530.5,-529"/>
<text text-anchor="middle" x="449.5" y="-508.8" font-family="Courier,monospace" font-size="9.00">CIccTagStruct::GetStructHandler()</text>
</g>
<!-- Node0x5be8ac4686d0&#45;&gt;Node0x5be8ac46a5b0 -->
<g id="edge46" class="edge">
<title>Node0x5be8ac4686d0&#45;&gt;Node0x5be8ac46a5b0</title>
<path fill="none" stroke="#4a6fa5" d="M217.39,-532.08C258.5,-528.33 307.75,-523.84 350.21,-519.96"/>
<polygon fill="#4a6fa5" stroke="#4a6fa5" points="350.64,-522.03 356.43,-519.4 350.26,-517.85 350.64,-522.03"/>
</g>
<!-- Node0x5be8ac46a330 -->
<g id="node46" class="node">
<title>Node0x5be8ac46a330</title>
<path fill="#f0f4ff" stroke="black" d="M570,-471C570,-471 329,-471 329,-471 323,-471 317,-465 317,-459 317,-459 317,-447 317,-447 317,-441 323,-435 329,-435 329,-435 570,-435 570,-435 576,-435 582,-441 582,-447 582,-447 582,-459 582,-459 582,-465 576,-471 570,-471"/>
<text text-anchor="middle" x="449.5" y="-450.8" font-family="Courier,monospace" font-size="9.00">CIccTagSparseMatrixArray::GetChannelsPerMatrix()</text>
</g>
<!-- Node0x5be8ac4686d0&#45;&gt;Node0x5be8ac46a330 -->
<g id="edge48" class="edge">
<title>Node0x5be8ac4686d0&#45;&gt;Node0x5be8ac46a330</title>
<path fill="none" stroke="#4a6fa5" d="M184.42,-521.91C221.48,-509.8 271.93,-493.95 317,-482 329.44,-478.7 342.62,-475.48 355.63,-472.45"/>
<polygon fill="#4a6fa5" stroke="#4a6fa5" points="356.22,-474.47 361.6,-471.08 355.28,-470.38 356.22,-474.47"/>
</g>
<!-- Node0x5be8ac469ef0 -->
<g id="node47" class="node">
<title>Node0x5be8ac469ef0</title>
<path fill="#f0f4ff" stroke="black" d="M208,-1631C208,-1631 51,-1631 51,-1631 45,-1631 39,-1625 39,-1619 39,-1619 39,-1607 39,-1607 39,-1601 45,-1595 51,-1595 51,-1595 208,-1595 208,-1595 214,-1595 220,-1601 220,-1607 220,-1607 220,-1619 220,-1619 220,-1625 214,-1631 208,-1631"/>
<text text-anchor="middle" x="129.5" y="-1610.8" font-family="Courier,monospace" font-size="9.00">CIccArrayUnknown::GetClassName()</text>
</g>
<!-- Node0x5be8ac471400 -->
<g id="node48" class="node">
<title>Node0x5be8ac471400</title>
<path fill="#f0f4ff" stroke="black" d="M221,-1689C221,-1689 38,-1689 38,-1689 32,-1689 26,-1683 26,-1677 26,-1677 26,-1665 26,-1665 26,-1659 32,-1653 38,-1653 38,-1653 221,-1653 221,-1653 227,-1653 233,-1659 233,-1665 233,-1665 233,-1677 233,-1677 233,-1683 227,-1689 221,-1689"/>
<text text-anchor="middle" x="129.5" y="-1668.8" font-family="Courier,monospace" font-size="9.00">CIccArrayColorantInfo::GetClassName()</text>
</g>
<!-- Node0x5be8ac4711c0 -->
<g id="node49" class="node">
<title>Node0x5be8ac4711c0</title>
<path fill="#f0f4ff" stroke="black" d="M215.5,-1747C215.5,-1747 43.5,-1747 43.5,-1747 37.5,-1747 31.5,-1741 31.5,-1735 31.5,-1735 31.5,-1723 31.5,-1723 31.5,-1717 37.5,-1711 43.5,-1711 43.5,-1711 215.5,-1711 215.5,-1711 221.5,-1711 227.5,-1717 227.5,-1723 227.5,-1723 227.5,-1735 227.5,-1735 227.5,-1741 221.5,-1747 215.5,-1747"/>
<text text-anchor="middle" x="129.5" y="-1726.8" font-family="Courier,monospace" font-size="9.00">CIccArrayNamedColor::GetClassName()</text>
</g>
<!-- Node0x5be8ac470200 -->
<g id="node50" class="node">
<title>Node0x5be8ac470200</title>
<path fill="#f0f4ff" stroke="black" d="M184,-1805C184,-1805 75,-1805 75,-1805 69,-1805 63,-1799 63,-1793 63,-1793 63,-1781 63,-1781 63,-1775 69,-1769 75,-1769 75,-1769 184,-1769 184,-1769 190,-1769 196,-1775 196,-1781 196,-1781 196,-1793 196,-1793 196,-1799 190,-1805 184,-1805"/>
<text text-anchor="middle" x="129.5" y="-1784.8" font-family="Courier,monospace" font-size="9.00">IIccArray::~IIccArray()</text>
</g>
<!-- Node0x5be8ac473690 -->
<g id="node51" class="node">
<title>Node0x5be8ac473690</title>
<path fill="#f0f4ff" stroke="black" d="M179,-1863C179,-1863 80,-1863 80,-1863 74,-1863 68,-1857 68,-1851 68,-1851 68,-1839 68,-1839 68,-1833 74,-1827 80,-1827 80,-1827 179,-1827 179,-1827 185,-1827 191,-1833 191,-1839 191,-1839 191,-1851 191,-1851 191,-1857 185,-1863 179,-1863"/>
<text text-anchor="middle" x="129.5" y="-1842.8" font-family="Courier,monospace" font-size="9.00">IIccArray::Describe()</text>
</g>
<!-- Node0x5be8ac4734e0 -->
<g id="node52" class="node">
<title>Node0x5be8ac4734e0</title>
<path fill="#f0f4ff" stroke="black" d="M179,-1921C179,-1921 80,-1921 80,-1921 74,-1921 68,-1915 68,-1909 68,-1909 68,-1897 68,-1897 68,-1891 74,-1885 80,-1885 80,-1885 179,-1885 179,-1885 185,-1885 191,-1891 191,-1897 191,-1897 191,-1909 191,-1909 191,-1915 185,-1921 179,-1921"/>
<text text-anchor="middle" x="129.5" y="-1900.8" font-family="Courier,monospace" font-size="9.00">true::_Rb_tree_impl()</text>
</g>
<!-- Node0x5be8ac454300 -->
<g id="node53" class="node">
<title>Node0x5be8ac454300</title>
<path fill="#f0f4ff" stroke="black" d="M181.5,-1979C181.5,-1979 77.5,-1979 77.5,-1979 71.5,-1979 65.5,-1973 65.5,-1967 65.5,-1967 65.5,-1955 65.5,-1955 65.5,-1949 71.5,-1943 77.5,-1943 77.5,-1943 181.5,-1943 181.5,-1943 187.5,-1943 193.5,-1949 193.5,-1955 193.5,-1955 193.5,-1967 193.5,-1967 193.5,-1973 187.5,-1979 181.5,-1979"/>
<text text-anchor="middle" x="129.5" y="-1958.8" font-family="Courier,monospace" font-size="9.00">true::~_Rb_tree_impl()</text>
</g>
<!-- Node0x5be8ac20a340 -->
<g id="node54" class="node">
<title>Node0x5be8ac20a340</title>
<path fill="#f0f4ff" stroke="black" d="M158,-2037C158,-2037 101,-2037 101,-2037 95,-2037 89,-2031 89,-2025 89,-2025 89,-2013 89,-2013 89,-2007 95,-2001 101,-2001 101,-2001 158,-2001 158,-2001 164,-2001 170,-2007 170,-2013 170,-2013 170,-2025 170,-2025 170,-2031 164,-2037 158,-2037"/>
<text text-anchor="middle" x="129.5" y="-2016.8" font-family="Courier,monospace" font-size="9.00">lower_bound()</text>
</g>
<!-- Node0x5be8ac45bdc0 -->
<g id="node55" class="node">
<title>Node0x5be8ac45bdc0</title>
<path fill="#f0f4ff" stroke="black" d="M478,-2037C478,-2037 421,-2037 421,-2037 415,-2037 409,-2031 409,-2025 409,-2025 409,-2013 409,-2013 409,-2007 415,-2001 421,-2001 421,-2001 478,-2001 478,-2001 484,-2001 490,-2007 490,-2013 490,-2013 490,-2025 490,-2025 490,-2031 484,-2037 478,-2037"/>
<text text-anchor="middle" x="449.5" y="-2016.8" font-family="Courier,monospace" font-size="9.00">lower_bound()</text>
</g>
<!-- Node0x5be8ac20a340&#45;&gt;Node0x5be8ac45bdc0 -->
<g id="edge49" class="edge">
<title>Node0x5be8ac20a340&#45;&gt;Node0x5be8ac45bdc0</title>
<path fill="none" stroke="#4a6fa5" d="M170.13,-2019C229.21,-2019 340.09,-2019 402.6,-2019"/>
<polygon fill="#4a6fa5" stroke="#4a6fa5" points="402.87,-2021.1 408.87,-2019 402.87,-2016.9 402.87,-2021.1"/>
</g>
<!-- Node0x5be8ac4930f0 -->
<g id="node56" class="node">
<title>Node0x5be8ac4930f0</title>
<path fill="#f0f4ff" stroke="black" d="M147.5,-2095C147.5,-2095 111.5,-2095 111.5,-2095 105.5,-2095 99.5,-2089 99.5,-2083 99.5,-2083 99.5,-2071 99.5,-2071 99.5,-2065 105.5,-2059 111.5,-2059 111.5,-2059 147.5,-2059 147.5,-2059 153.5,-2059 159.5,-2065 159.5,-2071 159.5,-2071 159.5,-2083 159.5,-2083 159.5,-2089 153.5,-2095 147.5,-2095"/>
<text text-anchor="middle" x="129.5" y="-2074.8" font-family="Courier,monospace" font-size="9.00">compare()</text>
</g>
<!-- Node0x5be8ac44e630 -->
<g id="node57" class="node">
<title>Node0x5be8ac44e630</title>
<path fill="#f0f4ff" stroke="black" d="M145,-2153C145,-2153 114,-2153 114,-2153 108,-2153 102,-2147 102,-2141 102,-2141 102,-2129 102,-2129 102,-2123 108,-2117 114,-2117 114,-2117 145,-2117 145,-2117 151,-2117 157,-2123 157,-2129 157,-2129 157,-2141 157,-2141 157,-2147 151,-2153 145,-2153"/>
<text text-anchor="middle" x="129.5" y="-2132.8" font-family="Courier,monospace" font-size="9.00">length()</text>
</g>
<!-- Node0x5be8ac47e520 -->
<g id="node58" class="node">
<title>Node0x5be8ac47e520</title>
<path fill="#f0f4ff" stroke="black" d="M166,-2211C166,-2211 93,-2211 93,-2211 87,-2211 81,-2205 81,-2199 81,-2199 81,-2187 81,-2187 81,-2181 87,-2175 93,-2175 93,-2175 166,-2175 166,-2175 172,-2175 178,-2181 178,-2187 178,-2187 178,-2199 178,-2199 178,-2205 172,-2211 166,-2211"/>
<text text-anchor="middle" x="129.5" y="-2190.8" font-family="Courier,monospace" font-size="9.00">_Guard::_Guard()</text>
</g>
<!-- Node0x5be8ac4878c0 -->
<g id="node59" class="node">
<title>Node0x5be8ac4878c0</title>
<path fill="#f0f4ff" stroke="black" d="M168.5,-2269C168.5,-2269 90.5,-2269 90.5,-2269 84.5,-2269 78.5,-2263 78.5,-2257 78.5,-2257 78.5,-2245 78.5,-2245 78.5,-2239 84.5,-2233 90.5,-2233 90.5,-2233 168.5,-2233 168.5,-2233 174.5,-2233 180.5,-2239 180.5,-2245 180.5,-2245 180.5,-2257 180.5,-2257 180.5,-2263 174.5,-2269 168.5,-2269"/>
<text text-anchor="middle" x="129.5" y="-2248.8" font-family="Courier,monospace" font-size="9.00">_Guard::~_Guard()</text>
</g>
</g>
</svg>
