<?xml version="1.0" encoding="UTF-8" standalone="no"?>
<!DOCTYPE svg PUBLIC "-//W3C//DTD SVG 1.1//EN"
 "http://www.w3.org/Graphics/SVG/1.1/DTD/svg11.dtd">
<!-- Generated by graphviz version 2.43.0 (0)
 -->
<!-- Title: Call graph: /home/h02332/po/research/call&#45;graph/iccdev/proflib/IccApplyBPC.ll Pages: 1 -->
<svg width="2660pt" height="14400pt"
 viewBox="0.00 0.00 2660.19 14400.00" xmlns="http://www.w3.org/2000/svg" xmlns:xlink="http://www.w3.org/1999/xlink">
<g id="graph0" class="graph" transform="scale(1.02 1.02) rotate(0) translate(36 14049)">
<title>Call graph: /home/h02332/po/research/call&#45;graph/iccdev/proflib/IccApplyBPC.ll</title>
<polygon fill="white" stroke="transparent" points="-36,36 -36,-14049 2566,-14049 2566,36 -36,36"/>
<!-- Node0x5b95d0006130 -->
<g id="node1" class="node">
<title>Node0x5b95d0006130</title>
<path fill="#f0f4ff" stroke="black" d="M829,-1133C829,-1133 618,-1133 618,-1133 612,-1133 606,-1127 606,-1121 606,-1121 606,-1109 606,-1109 606,-1103 612,-1097 618,-1097 618,-1097 829,-1097 829,-1097 835,-1097 841,-1103 841,-1109 841,-1109 841,-1121 841,-1121 841,-1127 835,-1133 829,-1133"/>
<text text-anchor="middle" x="723.5" y="-1112.8" font-family="Courier,monospace" font-size="9.00">{CIccApplyBPCHint::GetNewAdjustPCSXform()}</text>
</g>
<!-- Node0x5b95d000b1d0 -->
<g id="node2" class="node">
<title>Node0x5b95d000b1d0</title>
<path fill="#f0f4ff" stroke="black" d="M1667.5,-1133C1667.5,-1133 1637.5,-1133 1637.5,-1133 1631.5,-1133 1625.5,-1127 1625.5,-1121 1625.5,-1121 1625.5,-1109 1625.5,-1109 1625.5,-1103 1631.5,-1097 1637.5,-1097 1637.5,-1097 1667.5,-1097 1667.5,-1097 1673.5,-1097 1679.5,-1103 1679.5,-1109 1679.5,-1109 1679.5,-1121 1679.5,-1121 1679.5,-1127 1673.5,-1133 1667.5,-1133"/>
<text text-anchor="middle" x="1652.5" y="-1112.8" font-family="Courier,monospace" font-size="9.00">{new()}</text>
</g>
<!-- Node0x5b95d0006130&#45;&gt;Node0x5b95d000b1d0 -->
<g id="edge1" class="edge">
<title>Node0x5b95d0006130&#45;&gt;Node0x5b95d000b1d0</title>
<path fill="none" stroke="#4a6fa5" d="M841.44,-1115C1054.28,-1115 1494.46,-1115 1618.38,-1115"/>
<polygon fill="#4a6fa5" stroke="#4a6fa5" points="1618.41,-1117.45 1625.41,-1115 1618.41,-1112.55 1618.41,-1117.45"/>
</g>
<!-- Node0x5b95d000bfc0 -->
<g id="node3" class="node">
<title>Node0x5b95d000bfc0</title>
<path fill="#f0f4ff" stroke="black" d="M1079.5,-1046C1079.5,-1046 983.5,-1046 983.5,-1046 977.5,-1046 971.5,-1040 971.5,-1034 971.5,-1034 971.5,-1022 971.5,-1022 971.5,-1016 977.5,-1010 983.5,-1010 983.5,-1010 1079.5,-1010 1079.5,-1010 1085.5,-1010 1091.5,-1016 1091.5,-1022 1091.5,-1022 1091.5,-1034 1091.5,-1034 1091.5,-1040 1085.5,-1046 1079.5,-1046"/>
<text text-anchor="middle" x="1031.5" y="-1025.8" font-family="Courier,monospace" font-size="9.00">{llvm.memset.p0.i64}</text>
</g>
<!-- Node0x5b95d0006130&#45;&gt;Node0x5b95d000bfc0 -->
<g id="edge2" class="edge">
<title>Node0x5b95d0006130&#45;&gt;Node0x5b95d000bfc0</title>
<path fill="none" stroke="#4a6fa5" d="M787.9,-1096.97C839.5,-1082.3 912.1,-1061.66 964.41,-1046.79"/>
<polygon fill="#4a6fa5" stroke="#4a6fa5" points="965.27,-1049.09 971.33,-1044.82 963.93,-1044.38 965.27,-1049.09"/>
</g>
<!-- Node0x5b95d000e720 -->
<g id="node4" class="node">
<title>Node0x5b95d000e720</title>
<path fill="#f0f4ff" stroke="black" d="M1105.5,-1229C1105.5,-1229 957.5,-1229 957.5,-1229 951.5,-1229 945.5,-1223 945.5,-1217 945.5,-1217 945.5,-1205 945.5,-1205 945.5,-1199 951.5,-1193 957.5,-1193 957.5,-1193 1105.5,-1193 1105.5,-1193 1111.5,-1193 1117.5,-1199 1117.5,-1205 1117.5,-1205 1117.5,-1217 1117.5,-1217 1117.5,-1223 1111.5,-1229 1105.5,-1229"/>
<text text-anchor="middle" x="1031.5" y="-1208.8" font-family="Courier,monospace" font-size="9.00">{CIccApplyBPC::CIccApplyBPC()}</text>
</g>
<!-- Node0x5b95d0006130&#45;&gt;Node0x5b95d000e720 -->
<g id="edge3" class="edge">
<title>Node0x5b95d0006130&#45;&gt;Node0x5b95d000e720</title>
<path fill="none" stroke="#4a6fa5" d="M782.06,-1133.06C834.44,-1149.49 911.67,-1173.72 966.09,-1190.79"/>
<polygon fill="#4a6fa5" stroke="#4a6fa5" points="965.53,-1193.18 972.94,-1192.94 967,-1188.51 965.53,-1193.18"/>
</g>
<!-- Node0x5b95d0011bc0 -->
<g id="node5" class="node">
<title>Node0x5b95d0011bc0</title>
<path fill="#f0f4ff" stroke="black" d="M1445,-1263C1445,-1263 1234,-1263 1234,-1263 1228,-1263 1222,-1257 1222,-1251 1222,-1251 1222,-1239 1222,-1239 1222,-1233 1228,-1227 1234,-1227 1234,-1227 1445,-1227 1445,-1227 1451,-1227 1457,-1233 1457,-1239 1457,-1239 1457,-1251 1457,-1251 1457,-1257 1451,-1263 1445,-1263"/>
<text text-anchor="middle" x="1339.5" y="-1242.8" font-family="Courier,monospace" font-size="9.00">{IIccAdjustPCSXform::IIccAdjustPCSXform()}</text>
</g>
<!-- Node0x5b95d000e720&#45;&gt;Node0x5b95d0011bc0 -->
<g id="edge4" class="edge">
<title>Node0x5b95d000e720&#45;&gt;Node0x5b95d0011bc0</title>
<path fill="none" stroke="#4a6fa5" d="M1117.74,-1220.47C1147.74,-1223.8 1182.1,-1227.62 1214.64,-1231.24"/>
<polygon fill="#4a6fa5" stroke="#4a6fa5" points="1214.76,-1233.72 1221.99,-1232.05 1215.3,-1228.85 1214.76,-1233.72"/>
</g>
<!-- Node0x5b95cff36600 -->
<g id="node6" class="node">
<title>Node0x5b95cff36600</title>
<path fill="#f0f4ff" stroke="black" d="M1400.5,-668C1400.5,-668 1278.5,-668 1278.5,-668 1272.5,-668 1266.5,-662 1266.5,-656 1266.5,-656 1266.5,-644 1266.5,-644 1266.5,-638 1272.5,-632 1278.5,-632 1278.5,-632 1400.5,-632 1400.5,-632 1406.5,-632 1412.5,-638 1412.5,-644 1412.5,-644 1412.5,-656 1412.5,-656 1412.5,-662 1406.5,-668 1400.5,-668"/>
<text text-anchor="middle" x="1339.5" y="-647.8" font-family="Courier,monospace" font-size="9.00">{CIccApplyBPC::lab2pcs()}</text>
</g>
<!-- Node0x5b95cff1e800 -->
<g id="node7" class="node">
<title>Node0x5b95cff1e800</title>
<path fill="#f0f4ff" stroke="black" d="M1684.5,-613C1684.5,-613 1620.5,-613 1620.5,-613 1614.5,-613 1608.5,-607 1608.5,-601 1608.5,-601 1608.5,-589 1608.5,-589 1608.5,-583 1614.5,-577 1620.5,-577 1620.5,-577 1684.5,-577 1684.5,-577 1690.5,-577 1696.5,-583 1696.5,-589 1696.5,-589 1696.5,-601 1696.5,-601 1696.5,-607 1690.5,-613 1684.5,-613"/>
<text text-anchor="middle" x="1652.5" y="-592.8" font-family="Courier,monospace" font-size="9.00">{icLabToPcs()}</text>
</g>
<!-- Node0x5b95cff36600&#45;&gt;Node0x5b95cff1e800 -->
<g id="edge5" class="edge">
<title>Node0x5b95cff36600&#45;&gt;Node0x5b95cff1e800</title>
<path fill="none" stroke="#4a6fa5" d="M1412.63,-637.24C1470.39,-627.03 1549.92,-612.96 1601.03,-603.92"/>
<polygon fill="#4a6fa5" stroke="#4a6fa5" points="1601.59,-606.32 1608.05,-602.68 1600.73,-601.49 1601.59,-606.32"/>
</g>
<!-- Node0x5b95cff194a0 -->
<g id="node8" class="node">
<title>Node0x5b95cff194a0</title>
<path fill="#f0f4ff" stroke="black" d="M1684.5,-548C1684.5,-548 1620.5,-548 1620.5,-548 1614.5,-548 1608.5,-542 1608.5,-536 1608.5,-536 1608.5,-524 1608.5,-524 1608.5,-518 1614.5,-512 1620.5,-512 1620.5,-512 1684.5,-512 1684.5,-512 1690.5,-512 1696.5,-518 1696.5,-524 1696.5,-524 1696.5,-536 1696.5,-536 1696.5,-542 1690.5,-548 1684.5,-548"/>
<text text-anchor="middle" x="1652.5" y="-527.8" font-family="Courier,monospace" font-size="9.00">{icLabtoXYZ()}</text>
</g>
<!-- Node0x5b95cff36600&#45;&gt;Node0x5b95cff194a0 -->
<g id="edge6" class="edge">
<title>Node0x5b95cff36600&#45;&gt;Node0x5b95cff194a0</title>
<path fill="none" stroke="#4a6fa5" d="M1399.32,-631.97C1418.02,-625.66 1438.61,-618.11 1457,-610 1496.85,-592.42 1502.84,-579.87 1543,-563 1561.67,-555.16 1582.86,-548.29 1601.52,-542.88"/>
<polygon fill="#4a6fa5" stroke="#4a6fa5" points="1602.21,-545.23 1608.27,-540.95 1600.87,-540.51 1602.21,-545.23"/>
</g>
<!-- Node0x5b95d00173b0 -->
<g id="node9" class="node">
<title>Node0x5b95d00173b0</title>
<path fill="#f0f4ff" stroke="black" d="M1684.5,-678C1684.5,-678 1620.5,-678 1620.5,-678 1614.5,-678 1608.5,-672 1608.5,-666 1608.5,-666 1608.5,-654 1608.5,-654 1608.5,-648 1614.5,-642 1620.5,-642 1620.5,-642 1684.5,-642 1684.5,-642 1690.5,-642 1696.5,-648 1696.5,-654 1696.5,-654 1696.5,-666 1696.5,-666 1696.5,-672 1690.5,-678 1684.5,-678"/>
<text text-anchor="middle" x="1652.5" y="-657.8" font-family="Courier,monospace" font-size="9.00">{icXyzToPcs()}</text>
</g>
<!-- Node0x5b95cff36600&#45;&gt;Node0x5b95d00173b0 -->
<g id="edge7" class="edge">
<title>Node0x5b95cff36600&#45;&gt;Node0x5b95d00173b0</title>
<path fill="none" stroke="#4a6fa5" d="M1412.63,-652.32C1470.39,-654.18 1549.92,-656.73 1601.03,-658.38"/>
<polygon fill="#4a6fa5" stroke="#4a6fa5" points="1600.98,-660.83 1608.05,-658.6 1601.13,-655.93 1600.98,-660.83"/>
</g>
<!-- Node0x5b95d0021660 -->
<g id="node10" class="node">
<title>Node0x5b95d0021660</title>
<path fill="#f0f4ff" stroke="black" d="M1400.5,-485C1400.5,-485 1278.5,-485 1278.5,-485 1272.5,-485 1266.5,-479 1266.5,-473 1266.5,-473 1266.5,-461 1266.5,-461 1266.5,-455 1272.5,-449 1278.5,-449 1278.5,-449 1400.5,-449 1400.5,-449 1406.5,-449 1412.5,-455 1412.5,-461 1412.5,-461 1412.5,-473 1412.5,-473 1412.5,-479 1406.5,-485 1400.5,-485"/>
<text text-anchor="middle" x="1339.5" y="-464.8" font-family="Courier,monospace" font-size="9.00">{CIccApplyBPC::pcs2lab()}</text>
</g>
<!-- Node0x5b95d0020d40 -->
<g id="node11" class="node">
<title>Node0x5b95d0020d40</title>
<path fill="#f0f4ff" stroke="black" d="M1690,-418C1690,-418 1615,-418 1615,-418 1609,-418 1603,-412 1603,-406 1603,-406 1603,-394 1603,-394 1603,-388 1609,-382 1615,-382 1615,-382 1690,-382 1690,-382 1696,-382 1702,-388 1702,-394 1702,-394 1702,-406 1702,-406 1702,-412 1696,-418 1690,-418"/>
<text text-anchor="middle" x="1652.5" y="-397.8" font-family="Courier,monospace" font-size="9.00">{icLabFromPcs()}</text>
</g>
<!-- Node0x5b95d0021660&#45;&gt;Node0x5b95d0020d40 -->
<g id="edge8" class="edge">
<title>Node0x5b95d0021660&#45;&gt;Node0x5b95d0020d40</title>
<path fill="none" stroke="#4a6fa5" d="M1412.63,-451.46C1468.5,-439.42 1544.75,-423 1595.94,-411.97"/>
<polygon fill="#4a6fa5" stroke="#4a6fa5" points="1596.66,-414.32 1602.99,-410.45 1595.63,-409.53 1596.66,-414.32"/>
</g>
<!-- Node0x5b95d001ef00 -->
<g id="node12" class="node">
<title>Node0x5b95d001ef00</title>
<path fill="#f0f4ff" stroke="black" d="M1690,-483C1690,-483 1615,-483 1615,-483 1609,-483 1603,-477 1603,-471 1603,-471 1603,-459 1603,-459 1603,-453 1609,-447 1615,-447 1615,-447 1690,-447 1690,-447 1696,-447 1702,-453 1702,-459 1702,-459 1702,-471 1702,-471 1702,-477 1696,-483 1690,-483"/>
<text text-anchor="middle" x="1652.5" y="-462.8" font-family="Courier,monospace" font-size="9.00">{icXyzFromPcs()}</text>
</g>
<!-- Node0x5b95d0021660&#45;&gt;Node0x5b95d001ef00 -->
<g id="edge9" class="edge">
<title>Node0x5b95d0021660&#45;&gt;Node0x5b95d001ef00</title>
<path fill="none" stroke="#4a6fa5" d="M1412.63,-466.54C1468.5,-466.18 1544.75,-465.69 1595.94,-465.36"/>
<polygon fill="#4a6fa5" stroke="#4a6fa5" points="1596.01,-467.81 1602.99,-465.31 1595.98,-462.91 1596.01,-467.81"/>
</g>
<!-- Node0x5b95cff11280 -->
<g id="node13" class="node">
<title>Node0x5b95cff11280</title>
<path fill="#f0f4ff" stroke="black" d="M1684.5,-353C1684.5,-353 1620.5,-353 1620.5,-353 1614.5,-353 1608.5,-347 1608.5,-341 1608.5,-341 1608.5,-329 1608.5,-329 1608.5,-323 1614.5,-317 1620.5,-317 1620.5,-317 1684.5,-317 1684.5,-317 1690.5,-317 1696.5,-323 1696.5,-329 1696.5,-329 1696.5,-341 1696.5,-341 1696.5,-347 1690.5,-353 1684.5,-353"/>
<text text-anchor="middle" x="1652.5" y="-332.8" font-family="Courier,monospace" font-size="9.00">{icXYZtoLab()}</text>
</g>
<!-- Node0x5b95d0021660&#45;&gt;Node0x5b95cff11280 -->
<g id="edge10" class="edge">
<title>Node0x5b95d0021660&#45;&gt;Node0x5b95cff11280</title>
<path fill="none" stroke="#4a6fa5" d="M1403.14,-448.96C1420.95,-442.91 1440.09,-435.5 1457,-427 1498.41,-406.17 1501.23,-388.09 1543,-368 1561.41,-359.15 1582.72,-352.05 1601.56,-346.74"/>
<polygon fill="#4a6fa5" stroke="#4a6fa5" points="1602.27,-349.08 1608.37,-344.86 1600.97,-344.36 1602.27,-349.08"/>
</g>
<!-- Node0x5b95d0022930 -->
<g id="node14" class="node">
<title>Node0x5b95d0022930</title>
<path fill="#f0f4ff" stroke="black" d="M1400.5,-36C1400.5,-36 1278.5,-36 1278.5,-36 1272.5,-36 1266.5,-30 1266.5,-24 1266.5,-24 1266.5,-12 1266.5,-12 1266.5,-6 1272.5,0 1278.5,0 1278.5,0 1400.5,0 1400.5,0 1406.5,0 1412.5,-6 1412.5,-12 1412.5,-12 1412.5,-24 1412.5,-24 1412.5,-30 1406.5,-36 1400.5,-36"/>
<text text-anchor="middle" x="1339.5" y="-15.8" font-family="Courier,monospace" font-size="9.00">{CIccApplyBPC::calcsum()}</text>
</g>
<!-- Node0x5b95d00226f0 -->
<g id="node15" class="node">
<title>Node0x5b95d00226f0</title>
<path fill="#f0f4ff" stroke="black" d="M1667.5,-36C1667.5,-36 1637.5,-36 1637.5,-36 1631.5,-36 1625.5,-30 1625.5,-24 1625.5,-24 1625.5,-12 1625.5,-12 1625.5,-6 1631.5,0 1637.5,0 1637.5,0 1667.5,0 1667.5,0 1673.5,0 1679.5,-6 1679.5,-12 1679.5,-12 1679.5,-24 1679.5,-24 1679.5,-30 1673.5,-36 1667.5,-36"/>
<text text-anchor="middle" x="1652.5" y="-15.8" font-family="Courier,monospace" font-size="9.00">{pow}</text>
</g>
<!-- Node0x5b95d0022930&#45;&gt;Node0x5b95d00226f0 -->
<g id="edge11" class="edge">
<title>Node0x5b95d0022930&#45;&gt;Node0x5b95d00226f0</title>
<path fill="none" stroke="#4a6fa5" d="M1412.63,-18C1477.32,-18 1569.33,-18 1618.12,-18"/>
<polygon fill="#4a6fa5" stroke="#4a6fa5" points="1618.29,-20.45 1625.29,-18 1618.29,-15.55 1618.29,-20.45"/>
</g>
<!-- Node0x5b95d0021da0 -->
<g id="node16" class="node">
<title>Node0x5b95d0021da0</title>
<path fill="#f0f4ff" stroke="black" d="M1124,-168C1124,-168 939,-168 939,-168 933,-168 927,-162 927,-156 927,-156 927,-144 927,-144 927,-138 933,-132 939,-132 939,-132 1124,-132 1124,-132 1130,-132 1136,-138 1136,-144 1136,-144 1136,-156 1136,-156 1136,-162 1130,-168 1124,-168"/>
<text text-anchor="middle" x="1031.5" y="-147.8" font-family="Courier,monospace" font-size="9.00">{CIccApplyBPC::calcQuadraticVertex()}</text>
</g>
<!-- Node0x5b95d0021da0&#45;&gt;Node0x5b95d0022930 -->
<g id="edge12" class="edge">
<title>Node0x5b95d0021da0&#45;&gt;Node0x5b95d0022930</title>
<path fill="none" stroke="#4a6fa5" d="M1062.44,-131.89C1099.04,-110.33 1163.37,-74.33 1222,-51 1233.87,-46.28 1246.66,-41.94 1259.27,-38.07"/>
<polygon fill="#4a6fa5" stroke="#4a6fa5" points="1260.26,-40.33 1266.26,-35.96 1258.85,-35.64 1260.26,-40.33"/>
</g>
<!-- Node0x5b95d00232f0 -->
<g id="node17" class="node">
<title>Node0x5b95d00232f0</title>
<path fill="#f0f4ff" stroke="black" d="M1382,-296C1382,-296 1297,-296 1297,-296 1291,-296 1285,-290 1285,-284 1285,-284 1285,-272 1285,-272 1285,-266 1291,-260 1297,-260 1297,-260 1382,-260 1382,-260 1388,-260 1394,-266 1394,-272 1394,-272 1394,-284 1394,-284 1394,-290 1388,-296 1382,-296"/>
<text text-anchor="middle" x="1339.5" y="-275.8" font-family="Courier,monospace" font-size="9.00">{llvm.fmuladd.f64}</text>
</g>
<!-- Node0x5b95d0021da0&#45;&gt;Node0x5b95d00232f0 -->
<g id="edge13" class="edge">
<title>Node0x5b95d0021da0&#45;&gt;Node0x5b95d00232f0</title>
<path fill="none" stroke="#4a6fa5" d="M1063.46,-168.13C1100.27,-189.11 1164.03,-223.62 1222,-246 1239.79,-252.87 1259.64,-258.9 1277.85,-263.81"/>
<polygon fill="#4a6fa5" stroke="#4a6fa5" points="1277.6,-266.28 1285,-265.71 1278.86,-261.55 1277.6,-266.28"/>
</g>
<!-- Node0x5b95d0022df0 -->
<g id="node18" class="node">
<title>Node0x5b95d0022df0</title>
<path fill="#f0f4ff" stroke="black" d="M1354.5,-166C1354.5,-166 1324.5,-166 1324.5,-166 1318.5,-166 1312.5,-160 1312.5,-154 1312.5,-154 1312.5,-142 1312.5,-142 1312.5,-136 1318.5,-130 1324.5,-130 1324.5,-130 1354.5,-130 1354.5,-130 1360.5,-130 1366.5,-136 1366.5,-142 1366.5,-142 1366.5,-154 1366.5,-154 1366.5,-160 1360.5,-166 1354.5,-166"/>
<text text-anchor="middle" x="1339.5" y="-145.8" font-family="Courier,monospace" font-size="9.00">{sqrt}</text>
</g>
<!-- Node0x5b95d0021da0&#45;&gt;Node0x5b95d0022df0 -->
<g id="edge14" class="edge">
<title>Node0x5b95d0021da0&#45;&gt;Node0x5b95d0022df0</title>
<path fill="none" stroke="#4a6fa5" d="M1136.1,-149.32C1195.02,-148.94 1264.9,-148.48 1305.23,-148.22"/>
<polygon fill="#4a6fa5" stroke="#4a6fa5" points="1305.42,-150.67 1312.4,-148.17 1305.39,-145.77 1305.42,-150.67"/>
</g>
<!-- Node0x5b95d00218f0 -->
<g id="node19" class="node">
<title>Node0x5b95d00218f0</title>
<path fill="#f0f4ff" stroke="black" d="M1382,-101C1382,-101 1297,-101 1297,-101 1291,-101 1285,-95 1285,-89 1285,-89 1285,-77 1285,-77 1285,-71 1291,-65 1297,-65 1297,-65 1382,-65 1382,-65 1388,-65 1394,-71 1394,-77 1394,-77 1394,-89 1394,-89 1394,-95 1388,-101 1382,-101"/>
<text text-anchor="middle" x="1339.5" y="-80.8" font-family="Courier,monospace" font-size="9.00">{llvm.fmuladd.f32}</text>
</g>
<!-- Node0x5b95d0021da0&#45;&gt;Node0x5b95d00218f0 -->
<g id="edge15" class="edge">
<title>Node0x5b95d0021da0&#45;&gt;Node0x5b95d00218f0</title>
<path fill="none" stroke="#4a6fa5" d="M1114.9,-131.96C1166.26,-120.71 1231.2,-106.49 1277.85,-96.28"/>
<polygon fill="#4a6fa5" stroke="#4a6fa5" points="1278.57,-98.63 1284.88,-94.74 1277.52,-93.84 1278.57,-98.63"/>
</g>
<!-- Node0x5b95d0023070 -->
<g id="node20" class="node">
<title>Node0x5b95d0023070</title>
<path fill="#f0f4ff" stroke="black" d="M1374,-231C1374,-231 1305,-231 1305,-231 1299,-231 1293,-225 1293,-219 1293,-219 1293,-207 1293,-207 1293,-201 1299,-195 1305,-195 1305,-195 1374,-195 1374,-195 1380,-195 1386,-201 1386,-207 1386,-207 1386,-219 1386,-219 1386,-225 1380,-231 1374,-231"/>
<text text-anchor="middle" x="1339.5" y="-210.8" font-family="Courier,monospace" font-size="9.00">{llvm.fabs.f64}</text>
</g>
<!-- Node0x5b95d0021da0&#45;&gt;Node0x5b95d0023070 -->
<g id="edge16" class="edge">
<title>Node0x5b95d0021da0&#45;&gt;Node0x5b95d0023070</title>
<path fill="none" stroke="#4a6fa5" d="M1120.19,-168.05C1173.66,-179.06 1240.25,-192.77 1285.73,-202.13"/>
<polygon fill="#4a6fa5" stroke="#4a6fa5" points="1285.49,-204.59 1292.84,-203.6 1286.48,-199.79 1285.49,-204.59"/>
</g>
<!-- Node0x5b95d0022b70 -->
<g id="node21" class="node">
<title>Node0x5b95d0022b70</title>
<path fill="#f0f4ff" stroke="black" d="M197,-818C197,-818 54,-818 54,-818 48,-818 42,-812 42,-806 42,-806 42,-794 42,-794 42,-788 48,-782 54,-782 54,-782 197,-782 197,-782 203,-782 209,-788 209,-794 209,-794 209,-806 209,-806 209,-812 203,-818 197,-818"/>
<text text-anchor="middle" x="125.5" y="-797.8" font-family="Courier,monospace" font-size="9.00">{CIccApplyBPC::CalcFactors()}</text>
</g>
<!-- Node0x5b95d0022b70&#45;&gt;Node0x5b95d00173b0 -->
<g id="edge20" class="edge">
<title>Node0x5b95d0022b70&#45;&gt;Node0x5b95d00173b0</title>
<path fill="none" stroke="#4a6fa5" d="M209.35,-806.81C324.41,-815.66 539.12,-830 722.5,-830 722.5,-830 722.5,-830 1032.5,-830 1224.65,-830 1278.55,-819.26 1457,-748 1499.14,-731.18 1501.8,-712 1543,-693 1561.47,-684.48 1582.7,-677.46 1601.46,-672.12"/>
<polygon fill="#4a6fa5" stroke="#4a6fa5" points="1602.17,-674.47 1608.25,-670.23 1600.85,-669.75 1602.17,-674.47"/>
</g>
<!-- Node0x5b95d0024f20 -->
<g id="node22" class="node">
<title>Node0x5b95d0024f20</title>
<path fill="#f0f4ff" stroke="black" d="M1398,-1068C1398,-1068 1281,-1068 1281,-1068 1275,-1068 1269,-1062 1269,-1056 1269,-1056 1269,-1044 1269,-1044 1269,-1038 1275,-1032 1281,-1032 1281,-1032 1398,-1032 1398,-1032 1404,-1032 1410,-1038 1410,-1044 1410,-1044 1410,-1056 1410,-1056 1410,-1062 1404,-1068 1398,-1068"/>
<text text-anchor="middle" x="1339.5" y="-1047.8" font-family="Courier,monospace" font-size="9.00">{CIccXform::GetIntent()}</text>
</g>
<!-- Node0x5b95d0022b70&#45;&gt;Node0x5b95d0024f20 -->
<g id="edge17" class="edge">
<title>Node0x5b95d0022b70&#45;&gt;Node0x5b95d0024f20</title>
<path fill="none" stroke="#4a6fa5" d="M194.98,-818.09C236.02,-828.64 289.32,-841.83 337,-852 689.89,-927.31 783.82,-917.45 1136,-996 1160.79,-1001.53 1218.78,-1017.09 1266.38,-1030.1"/>
<polygon fill="#4a6fa5" stroke="#4a6fa5" points="1265.93,-1032.51 1273.33,-1032 1267.22,-1027.79 1265.93,-1032.51"/>
</g>
<!-- Node0x5b95d0024800 -->
<g id="node23" class="node">
<title>Node0x5b95d0024800</title>
<path fill="#f0f4ff" stroke="black" d="M508,-697C508,-697 349,-697 349,-697 343,-697 337,-691 337,-685 337,-685 337,-673 337,-673 337,-667 343,-661 349,-661 349,-661 508,-661 508,-661 514,-661 520,-667 520,-673 520,-673 520,-685 520,-685 520,-691 514,-697 508,-697"/>
<text text-anchor="middle" x="428.5" y="-676.8" font-family="Courier,monospace" font-size="9.00">{CIccApplyBPC::calcBlackPoint()}</text>
</g>
<!-- Node0x5b95d0022b70&#45;&gt;Node0x5b95d0024800 -->
<g id="edge18" class="edge">
<title>Node0x5b95d0022b70&#45;&gt;Node0x5b95d0024800</title>
<path fill="none" stroke="#4a6fa5" d="M171.56,-781.89C226.25,-759.9 318.26,-722.91 375.78,-699.79"/>
<polygon fill="#4a6fa5" stroke="#4a6fa5" points="377.04,-701.93 382.62,-697.04 375.21,-697.38 377.04,-701.93"/>
</g>
<!-- Node0x5b95d0024440 -->
<g id="node24" class="node">
<title>Node0x5b95d0024440</title>
<path fill="#f0f4ff" stroke="black" d="M776.5,-758C776.5,-758 670.5,-758 670.5,-758 664.5,-758 658.5,-752 658.5,-746 658.5,-746 658.5,-734 658.5,-734 658.5,-728 664.5,-722 670.5,-722 670.5,-722 776.5,-722 776.5,-722 782.5,-722 788.5,-728 788.5,-734 788.5,-734 788.5,-746 788.5,-746 788.5,-752 782.5,-758 776.5,-758"/>
<text text-anchor="middle" x="723.5" y="-737.8" font-family="Courier,monospace" font-size="9.00">{CIccXform::IsInput()}</text>
</g>
<!-- Node0x5b95d0022b70&#45;&gt;Node0x5b95d0024440 -->
<g id="edge19" class="edge">
<title>Node0x5b95d0022b70&#45;&gt;Node0x5b95d0024440</title>
<path fill="none" stroke="#4a6fa5" d="M209.06,-791.69C326.49,-779.87 539.8,-758.39 650.9,-747.21"/>
<polygon fill="#4a6fa5" stroke="#4a6fa5" points="651.35,-749.63 658.07,-746.49 650.86,-744.75 651.35,-749.63"/>
</g>
<!-- Node0x5b95d0024800&#45;&gt;Node0x5b95d0024440 -->
<g id="edge21" class="edge">
<title>Node0x5b95d0024800&#45;&gt;Node0x5b95d0024440</title>
<path fill="none" stroke="#4a6fa5" d="M516.22,-697.05C559.29,-706.02 610.68,-716.72 651.39,-725.2"/>
<polygon fill="#4a6fa5" stroke="#4a6fa5" points="651,-727.62 658.35,-726.64 651.99,-722.82 651,-727.62"/>
</g>
<!-- Node0x5b95d0023f40 -->
<g id="node25" class="node">
<title>Node0x5b95d0023f40</title>
<path fill="#f0f4ff" stroke="black" d="M1118.5,-668C1118.5,-668 944.5,-668 944.5,-668 938.5,-668 932.5,-662 932.5,-656 932.5,-656 932.5,-644 932.5,-644 932.5,-638 938.5,-632 944.5,-632 944.5,-632 1118.5,-632 1118.5,-632 1124.5,-632 1130.5,-638 1130.5,-644 1130.5,-644 1130.5,-656 1130.5,-656 1130.5,-662 1124.5,-668 1118.5,-668"/>
<text text-anchor="middle" x="1031.5" y="-647.8" font-family="Courier,monospace" font-size="9.00">{CIccApplyBPC::calcSrcBlackPoint()}</text>
</g>
<!-- Node0x5b95d0024800&#45;&gt;Node0x5b95d0023f40 -->
<g id="edge22" class="edge">
<title>Node0x5b95d0024800&#45;&gt;Node0x5b95d0023f40</title>
<path fill="none" stroke="#4a6fa5" d="M520.13,-674.63C628.77,-669.38 810.52,-660.61 925.27,-655.08"/>
<polygon fill="#4a6fa5" stroke="#4a6fa5" points="925.51,-657.52 932.39,-654.73 925.28,-652.62 925.51,-657.52"/>
</g>
<!-- Node0x5b95d0023b80 -->
<g id="node26" class="node">
<title>Node0x5b95d0023b80</title>
<path fill="#f0f4ff" stroke="black" d="M810.5,-547C810.5,-547 636.5,-547 636.5,-547 630.5,-547 624.5,-541 624.5,-535 624.5,-535 624.5,-523 624.5,-523 624.5,-517 630.5,-511 636.5,-511 636.5,-511 810.5,-511 810.5,-511 816.5,-511 822.5,-517 822.5,-523 822.5,-523 822.5,-535 822.5,-535 822.5,-541 816.5,-547 810.5,-547"/>
<text text-anchor="middle" x="723.5" y="-526.8" font-family="Courier,monospace" font-size="9.00">{CIccApplyBPC::calcDstBlackPoint()}</text>
</g>
<!-- Node0x5b95d0024800&#45;&gt;Node0x5b95d0023b80 -->
<g id="edge23" class="edge">
<title>Node0x5b95d0024800&#45;&gt;Node0x5b95d0023b80</title>
<path fill="none" stroke="#4a6fa5" d="M464.84,-660.91C519.07,-633.15 622.59,-580.15 680.54,-550.48"/>
<polygon fill="#4a6fa5" stroke="#4a6fa5" points="681.92,-552.53 687.03,-547.16 679.68,-548.17 681.92,-552.53"/>
</g>
<!-- Node0x5b95d0023f40&#45;&gt;Node0x5b95cff36600 -->
<g id="edge24" class="edge">
<title>Node0x5b95d0023f40&#45;&gt;Node0x5b95cff36600</title>
<path fill="none" stroke="#4a6fa5" d="M1130.58,-650C1172.05,-650 1219.73,-650 1258.96,-650"/>
<polygon fill="#4a6fa5" stroke="#4a6fa5" points="1259.19,-652.45 1266.19,-650 1259.19,-647.55 1259.19,-652.45"/>
</g>
<!-- Node0x5b95d0023f40&#45;&gt;Node0x5b95cff194a0 -->
<g id="edge28" class="edge">
<title>Node0x5b95d0023f40&#45;&gt;Node0x5b95cff194a0</title>
<path fill="none" stroke="#4a6fa5" d="M1125.51,-631.97C1258.3,-606.23 1497.62,-559.83 1601.32,-539.73"/>
<polygon fill="#4a6fa5" stroke="#4a6fa5" points="1601.85,-542.12 1608.26,-538.38 1600.92,-537.31 1601.85,-542.12"/>
</g>
<!-- Node0x5b95d0023f40&#45;&gt;Node0x5b95d0021660 -->
<g id="edge29" class="edge">
<title>Node0x5b95d0023f40&#45;&gt;Node0x5b95d0021660</title>
<path fill="none" stroke="#4a6fa5" d="M1062.68,-631.95C1119.24,-598.13 1240.98,-525.32 1302.03,-488.81"/>
<polygon fill="#4a6fa5" stroke="#4a6fa5" points="1303.35,-490.88 1308.1,-485.18 1300.83,-486.67 1303.35,-490.88"/>
</g>
<!-- Node0x5b95d0023f40&#45;&gt;Node0x5b95d0024f20 -->
<g id="edge27" class="edge">
<title>Node0x5b95d0023f40&#45;&gt;Node0x5b95d0024f20</title>
<path fill="none" stroke="#4a6fa5" d="M1057.68,-668.11C1081.07,-686.16 1115.31,-715.89 1136,-749 1202.52,-855.44 1131.43,-931.1 1222,-1018 1233.09,-1028.64 1247.38,-1035.81 1262.12,-1040.63"/>
<polygon fill="#4a6fa5" stroke="#4a6fa5" points="1261.51,-1043 1268.92,-1042.68 1262.92,-1038.31 1261.51,-1043"/>
</g>
<!-- Node0x5b95d00261e0 -->
<g id="node27" class="node">
<title>Node0x5b95d00261e0</title>
<path fill="#f0f4ff" stroke="black" d="M1403,-938C1403,-938 1276,-938 1276,-938 1270,-938 1264,-932 1264,-926 1264,-926 1264,-914 1264,-914 1264,-908 1270,-902 1276,-902 1276,-902 1403,-902 1403,-902 1409,-902 1415,-908 1415,-914 1415,-914 1415,-926 1415,-926 1415,-932 1409,-938 1403,-938"/>
<text text-anchor="middle" x="1339.5" y="-917.8" font-family="Courier,monospace" font-size="9.00">{CIccApplyBPC::pixelXfm()}</text>
</g>
<!-- Node0x5b95d0023f40&#45;&gt;Node0x5b95d00261e0 -->
<g id="edge25" class="edge">
<title>Node0x5b95d0023f40&#45;&gt;Node0x5b95d00261e0</title>
<path fill="none" stroke="#4a6fa5" d="M1093.53,-668.01C1108.14,-673.79 1123.2,-681.08 1136,-690 1220.37,-748.82 1292.79,-849.96 1323.2,-895.97"/>
<polygon fill="#4a6fa5" stroke="#4a6fa5" points="1321.15,-897.31 1327.04,-901.82 1325.25,-894.62 1321.15,-897.31"/>
</g>
<!-- Node0x5b95d0025f60 -->
<g id="node28" class="node">
<title>Node0x5b95d0025f60</title>
<path fill="#f0f4ff" stroke="black" d="M1390,-733C1390,-733 1289,-733 1289,-733 1283,-733 1277,-727 1277,-721 1277,-721 1277,-709 1277,-709 1277,-703 1283,-697 1289,-697 1289,-697 1390,-697 1390,-697 1396,-697 1402,-703 1402,-709 1402,-709 1402,-721 1402,-721 1402,-727 1396,-733 1390,-733"/>
<text text-anchor="middle" x="1339.5" y="-712.8" font-family="Courier,monospace" font-size="9.00">{icGetSpaceSamples()}</text>
</g>
<!-- Node0x5b95d0023f40&#45;&gt;Node0x5b95d0025f60 -->
<g id="edge26" class="edge">
<title>Node0x5b95d0023f40&#45;&gt;Node0x5b95d0025f60</title>
<path fill="none" stroke="#4a6fa5" d="M1117.33,-668.02C1165.35,-678.22 1224.63,-690.81 1269.72,-700.39"/>
<polygon fill="#4a6fa5" stroke="#4a6fa5" points="1269.48,-702.84 1276.83,-701.9 1270.5,-698.05 1269.48,-702.84"/>
</g>
<!-- Node0x5b95d0023b80&#45;&gt;Node0x5b95d000bfc0 -->
<g id="edge34" class="edge">
<title>Node0x5b95d0023b80&#45;&gt;Node0x5b95d000bfc0</title>
<path fill="none" stroke="#4a6fa5" d="M736.66,-547.13C758.15,-579.27 804.02,-648.47 841,-708 908.76,-817.1 985.63,-949.85 1016.54,-1003.64"/>
<polygon fill="#4a6fa5" stroke="#4a6fa5" points="1014.47,-1004.95 1020.08,-1009.8 1018.72,-1002.51 1014.47,-1004.95"/>
</g>
<!-- Node0x5b95d0023b80&#45;&gt;Node0x5b95cff36600 -->
<g id="edge35" class="edge">
<title>Node0x5b95d0023b80&#45;&gt;Node0x5b95cff36600</title>
<path fill="none" stroke="#4a6fa5" d="M816.09,-547.05C936.26,-570.73 1145.21,-611.91 1259.03,-634.34"/>
<polygon fill="#4a6fa5" stroke="#4a6fa5" points="1258.71,-636.77 1266.05,-635.72 1259.66,-631.97 1258.71,-636.77"/>
</g>
<!-- Node0x5b95d0023b80&#45;&gt;Node0x5b95cff194a0 -->
<g id="edge38" class="edge">
<title>Node0x5b95d0023b80&#45;&gt;Node0x5b95cff194a0</title>
<path fill="none" stroke="#4a6fa5" d="M822.83,-529.11C1019.18,-529.32 1453.64,-529.79 1601.27,-529.95"/>
<polygon fill="#4a6fa5" stroke="#4a6fa5" points="1601.5,-532.4 1608.5,-529.95 1601.5,-527.5 1601.5,-532.4"/>
</g>
<!-- Node0x5b95d0023b80&#45;&gt;Node0x5b95d0021660 -->
<g id="edge37" class="edge">
<title>Node0x5b95d0023b80&#45;&gt;Node0x5b95d0021660</title>
<path fill="none" stroke="#4a6fa5" d="M822.58,-518.12C855.73,-514.5 892.97,-510.5 927,-507 1042.4,-495.12 1176.1,-482.3 1259.01,-474.46"/>
<polygon fill="#4a6fa5" stroke="#4a6fa5" points="1259.63,-476.86 1266.37,-473.76 1259.17,-471.98 1259.63,-476.86"/>
</g>
<!-- Node0x5b95d0023b80&#45;&gt;Node0x5b95cff11280 -->
<g id="edge42" class="edge">
<title>Node0x5b95d0023b80&#45;&gt;Node0x5b95cff11280</title>
<path fill="none" stroke="#4a6fa5" d="M794.12,-510.9C833.09,-500.99 882.62,-488.79 927,-479 1161.33,-427.33 1221.81,-423.64 1457,-376 1506.03,-366.07 1561.91,-354.24 1601.15,-345.84"/>
<polygon fill="#4a6fa5" stroke="#4a6fa5" points="1601.95,-348.18 1608.28,-344.32 1600.92,-343.38 1601.95,-348.18"/>
</g>
<!-- Node0x5b95d0023b80&#45;&gt;Node0x5b95d0021da0 -->
<g id="edge39" class="edge">
<title>Node0x5b95d0023b80&#45;&gt;Node0x5b95d0021da0</title>
<path fill="none" stroke="#4a6fa5" d="M730.99,-510.88C751.42,-456.15 819.54,-290.51 927,-196 938.59,-185.81 952.8,-177.54 966.93,-170.98"/>
<polygon fill="#4a6fa5" stroke="#4a6fa5" points="968.02,-173.18 973.41,-168.08 966.02,-168.7 968.02,-173.18"/>
</g>
<!-- Node0x5b95d0023b80&#45;&gt;Node0x5b95d00232f0 -->
<g id="edge41" class="edge">
<title>Node0x5b95d0023b80&#45;&gt;Node0x5b95d00232f0</title>
<path fill="none" stroke="#4a6fa5" d="M734.81,-510.72C760.59,-467.01 832.63,-356.72 927,-311 1041.22,-255.66 1194.33,-261.09 1277.87,-269.7"/>
<polygon fill="#4a6fa5" stroke="#4a6fa5" points="1277.77,-272.15 1284.99,-270.46 1278.29,-267.28 1277.77,-272.15"/>
</g>
<!-- Node0x5b95d0023b80&#45;&gt;Node0x5b95d0023070 -->
<g id="edge40" class="edge">
<title>Node0x5b95d0023b80&#45;&gt;Node0x5b95d0023070</title>
<path fill="none" stroke="#4a6fa5" d="M731.85,-510.75C753.22,-460.3 820.67,-318.74 927,-258 1041.49,-192.6 1203.22,-197.83 1285.68,-206.04"/>
<polygon fill="#4a6fa5" stroke="#4a6fa5" points="1285.72,-208.51 1292.93,-206.79 1286.22,-203.63 1285.72,-208.51"/>
</g>
<!-- Node0x5b95d0023b80&#45;&gt;Node0x5b95d0024f20 -->
<g id="edge31" class="edge">
<title>Node0x5b95d0023b80&#45;&gt;Node0x5b95d0024f20</title>
<path fill="none" stroke="#4a6fa5" d="M741.03,-547.16C774.89,-584.13 855.05,-670.33 927,-738 1016.09,-821.79 1049.64,-830.4 1136,-917 1177.63,-958.75 1172.26,-986.35 1222,-1018 1234.09,-1025.69 1248.02,-1031.56 1261.96,-1036.03"/>
<polygon fill="#4a6fa5" stroke="#4a6fa5" points="1261.38,-1038.41 1268.79,-1038.11 1262.81,-1033.72 1261.38,-1038.41"/>
</g>
<!-- Node0x5b95d0023b80&#45;&gt;Node0x5b95d0023f40 -->
<g id="edge36" class="edge">
<title>Node0x5b95d0023b80&#45;&gt;Node0x5b95d0023f40</title>
<path fill="none" stroke="#4a6fa5" d="M769.08,-547.01C810.07,-563.52 872.56,-588.59 927,-610 943.16,-616.35 960.77,-623.19 976.8,-629.38"/>
<polygon fill="#4a6fa5" stroke="#4a6fa5" points="976.16,-631.76 983.57,-632 977.92,-627.19 976.16,-631.76"/>
</g>
<!-- Node0x5b95d0025ce0 -->
<g id="node31" class="node">
<title>Node0x5b95d0025ce0</title>
<path fill="#f0f4ff" stroke="black" d="M1103,-361C1103,-361 960,-361 960,-361 954,-361 948,-355 948,-349 948,-349 948,-337 948,-337 948,-331 954,-325 960,-325 960,-325 1103,-325 1103,-325 1109,-325 1115,-331 1115,-337 1115,-337 1115,-349 1115,-349 1115,-355 1109,-361 1103,-361"/>
<text text-anchor="middle" x="1031.5" y="-340.8" font-family="Courier,monospace" font-size="9.00">{CIccProfile::IsTagPresent()}</text>
</g>
<!-- Node0x5b95d0023b80&#45;&gt;Node0x5b95d0025ce0 -->
<g id="edge32" class="edge">
<title>Node0x5b95d0023b80&#45;&gt;Node0x5b95d0025ce0</title>
<path fill="none" stroke="#4a6fa5" d="M745.74,-510.84C781.34,-481.08 856.13,-421.42 927,-383 940.24,-375.82 955.06,-369.29 969.24,-363.69"/>
<polygon fill="#4a6fa5" stroke="#4a6fa5" points="970.5,-365.83 976.14,-361.02 968.73,-361.26 970.5,-365.83"/>
</g>
<!-- Node0x5b95d0025a60 -->
<g id="node32" class="node">
<title>Node0x5b95d0025a60</title>
<path fill="#f0f4ff" stroke="black" d="M1411,-1003C1411,-1003 1268,-1003 1268,-1003 1262,-1003 1256,-997 1256,-991 1256,-991 1256,-979 1256,-979 1256,-973 1262,-967 1268,-967 1268,-967 1411,-967 1411,-967 1417,-967 1423,-973 1423,-979 1423,-979 1423,-991 1423,-991 1423,-997 1417,-1003 1411,-1003"/>
<text text-anchor="middle" x="1339.5" y="-982.8" font-family="Courier,monospace" font-size="9.00">{CIccApplyBPC::getBlackXfm()}</text>
</g>
<!-- Node0x5b95d0023b80&#45;&gt;Node0x5b95d0025a60 -->
<g id="edge33" class="edge">
<title>Node0x5b95d0023b80&#45;&gt;Node0x5b95d0025a60</title>
<path fill="none" stroke="#4a6fa5" d="M743.62,-547.23C777.83,-578.96 852.88,-644.6 927,-683 1013.49,-727.81 1063.99,-683.4 1136,-749 1208.74,-815.26 1148.02,-888.12 1222,-953 1229.96,-959.98 1239.3,-965.45 1249.18,-969.73"/>
<polygon fill="#4a6fa5" stroke="#4a6fa5" points="1248.33,-972.03 1255.74,-972.38 1250.16,-967.49 1248.33,-972.03"/>
</g>
<!-- Node0x5b95d00261e0&#45;&gt;Node0x5b95d000b1d0 -->
<g id="edge44" class="edge">
<title>Node0x5b95d00261e0&#45;&gt;Node0x5b95d000b1d0</title>
<path fill="none" stroke="#4a6fa5" d="M1415.3,-932.7C1430.02,-937.46 1444.7,-944.01 1457,-953 1512.93,-993.88 1487.29,-1041.82 1543,-1083 1564.95,-1099.22 1595.04,-1107.26 1617.96,-1111.22"/>
<polygon fill="#4a6fa5" stroke="#4a6fa5" points="1617.84,-1113.68 1625.13,-1112.37 1618.61,-1108.85 1617.84,-1113.68"/>
</g>
<!-- Node0x5b95d0025560 -->
<g id="node33" class="node">
<title>Node0x5b95d0025560</title>
<path fill="#f0f4ff" stroke="black" d="M1700.5,-1003C1700.5,-1003 1604.5,-1003 1604.5,-1003 1598.5,-1003 1592.5,-997 1592.5,-991 1592.5,-991 1592.5,-979 1592.5,-979 1592.5,-973 1598.5,-967 1604.5,-967 1604.5,-967 1700.5,-967 1700.5,-967 1706.5,-967 1712.5,-973 1712.5,-979 1712.5,-979 1712.5,-991 1712.5,-991 1712.5,-997 1706.5,-1003 1700.5,-1003"/>
<text text-anchor="middle" x="1652.5" y="-982.8" font-family="Courier,monospace" font-size="9.00">{CIccCmm::CIccCmm()}</text>
</g>
<!-- Node0x5b95d00261e0&#45;&gt;Node0x5b95d0025560 -->
<g id="edge43" class="edge">
<title>Node0x5b95d00261e0&#45;&gt;Node0x5b95d0025560</title>
<path fill="none" stroke="#4a6fa5" d="M1415.39,-935.65C1467.23,-946.49 1535.59,-960.78 1585.41,-971.19"/>
<polygon fill="#4a6fa5" stroke="#4a6fa5" points="1584.96,-973.6 1592.32,-972.63 1585.96,-968.8 1584.96,-973.6"/>
</g>
<!-- Node0x5b95d0026520 -->
<g id="node34" class="node">
<title>Node0x5b95d0026520</title>
<path fill="#f0f4ff" stroke="black" d="M1721.5,-1068C1721.5,-1068 1583.5,-1068 1583.5,-1068 1577.5,-1068 1571.5,-1062 1571.5,-1056 1571.5,-1056 1571.5,-1044 1571.5,-1044 1571.5,-1038 1577.5,-1032 1583.5,-1032 1583.5,-1032 1721.5,-1032 1721.5,-1032 1727.5,-1032 1733.5,-1038 1733.5,-1044 1733.5,-1044 1733.5,-1056 1733.5,-1056 1733.5,-1062 1727.5,-1068 1721.5,-1068"/>
<text text-anchor="middle" x="1652.5" y="-1047.8" font-family="Courier,monospace" font-size="9.00">{CIccProfile::CIccProfile()}</text>
</g>
<!-- Node0x5b95d00261e0&#45;&gt;Node0x5b95d0026520 -->
<g id="edge45" class="edge">
<title>Node0x5b95d00261e0&#45;&gt;Node0x5b95d0026520</title>
<path fill="none" stroke="#4a6fa5" d="M1415.08,-936.66C1429.35,-941.09 1443.92,-946.49 1457,-953 1499.9,-974.34 1500.22,-996.43 1543,-1018 1551.61,-1022.34 1560.9,-1026.19 1570.31,-1029.58"/>
<polygon fill="#4a6fa5" stroke="#4a6fa5" points="1569.75,-1031.98 1577.17,-1031.97 1571.36,-1027.36 1569.75,-1031.98"/>
</g>
<!-- Node0x5b95d00253a0 -->
<g id="node35" class="node">
<title>Node0x5b95d00253a0</title>
<path fill="#f0f4ff" stroke="black" d="M1674,-1198C1674,-1198 1631,-1198 1631,-1198 1625,-1198 1619,-1192 1619,-1186 1619,-1186 1619,-1174 1619,-1174 1619,-1168 1625,-1162 1631,-1162 1631,-1162 1674,-1162 1674,-1162 1680,-1162 1686,-1168 1686,-1174 1686,-1174 1686,-1186 1686,-1186 1686,-1192 1680,-1198 1674,-1198"/>
<text text-anchor="middle" x="1652.5" y="-1177.8" font-family="Courier,monospace" font-size="9.00">{delete()}</text>
</g>
<!-- Node0x5b95d00261e0&#45;&gt;Node0x5b95d00253a0 -->
<g id="edge46" class="edge">
<title>Node0x5b95d00261e0&#45;&gt;Node0x5b95d00253a0</title>
<path fill="none" stroke="#4a6fa5" d="M1415.02,-930.65C1430.18,-935.54 1445.1,-942.65 1457,-953 1528.48,-1015.15 1471.86,-1085.46 1543,-1148 1561.9,-1164.61 1589.06,-1172.61 1611.48,-1176.46"/>
<polygon fill="#4a6fa5" stroke="#4a6fa5" points="1611.28,-1178.91 1618.58,-1177.57 1612.04,-1174.07 1611.28,-1178.91"/>
</g>
<!-- Node0x5b95d0024c20 -->
<g id="node36" class="node">
<title>Node0x5b95d0024c20</title>
<path fill="#f0f4ff" stroke="black" d="M1703,-938C1703,-938 1602,-938 1602,-938 1596,-938 1590,-932 1590,-926 1590,-926 1590,-914 1590,-914 1590,-908 1596,-902 1602,-902 1602,-902 1703,-902 1703,-902 1709,-902 1715,-908 1715,-914 1715,-914 1715,-926 1715,-926 1715,-932 1709,-938 1703,-938"/>
<text text-anchor="middle" x="1652.5" y="-917.8" font-family="Courier,monospace" font-size="9.00">{CIccCmm::AddXform()}</text>
</g>
<!-- Node0x5b95d00261e0&#45;&gt;Node0x5b95d0024c20 -->
<g id="edge47" class="edge">
<title>Node0x5b95d00261e0&#45;&gt;Node0x5b95d0024c20</title>
<path fill="none" stroke="#4a6fa5" d="M1415.39,-920C1466.27,-920 1533.06,-920 1582.62,-920"/>
<polygon fill="#4a6fa5" stroke="#4a6fa5" points="1582.8,-922.45 1589.8,-920 1582.8,-917.55 1582.8,-922.45"/>
</g>
<!-- Node0x5b95d00258a0 -->
<g id="node37" class="node">
<title>Node0x5b95d00258a0</title>
<path fill="#f0f4ff" stroke="black" d="M1695,-873C1695,-873 1610,-873 1610,-873 1604,-873 1598,-867 1598,-861 1598,-861 1598,-849 1598,-849 1598,-843 1604,-837 1610,-837 1610,-837 1695,-837 1695,-837 1701,-837 1707,-843 1707,-849 1707,-849 1707,-861 1707,-861 1707,-867 1701,-873 1695,-873"/>
<text text-anchor="middle" x="1652.5" y="-852.8" font-family="Courier,monospace" font-size="9.00">{CIccCmm::Begin()}</text>
</g>
<!-- Node0x5b95d00261e0&#45;&gt;Node0x5b95d00258a0 -->
<g id="edge48" class="edge">
<title>Node0x5b95d00261e0&#45;&gt;Node0x5b95d00258a0</title>
<path fill="none" stroke="#4a6fa5" d="M1415.39,-904.35C1469.12,-893.12 1540.6,-878.18 1590.78,-867.69"/>
<polygon fill="#4a6fa5" stroke="#4a6fa5" points="1591.37,-870.07 1597.72,-866.24 1590.36,-865.27 1591.37,-870.07"/>
</g>
<!-- Node0x5b95d0025120 -->
<g id="node38" class="node">
<title>Node0x5b95d0025120</title>
<path fill="#f0f4ff" stroke="black" d="M1695,-808C1695,-808 1610,-808 1610,-808 1604,-808 1598,-802 1598,-796 1598,-796 1598,-784 1598,-784 1598,-778 1604,-772 1610,-772 1610,-772 1695,-772 1695,-772 1701,-772 1707,-778 1707,-784 1707,-784 1707,-796 1707,-796 1707,-802 1701,-808 1695,-808"/>
<text text-anchor="middle" x="1652.5" y="-787.8" font-family="Courier,monospace" font-size="9.00">{CIccCmm::Apply()}</text>
</g>
<!-- Node0x5b95d00261e0&#45;&gt;Node0x5b95d0025120 -->
<g id="edge49" class="edge">
<title>Node0x5b95d00261e0&#45;&gt;Node0x5b95d0025120</title>
<path fill="none" stroke="#4a6fa5" d="M1374.2,-901.91C1413.83,-881.1 1481.97,-846.74 1543,-823 1558.41,-817 1575.39,-811.39 1591.25,-806.55"/>
<polygon fill="#4a6fa5" stroke="#4a6fa5" points="1591.98,-808.89 1597.97,-804.53 1590.56,-804.2 1591.98,-808.89"/>
</g>
<!-- Node0x5b95d0023ec0 -->
<g id="node39" class="node">
<title>Node0x5b95d0023ec0</title>
<path fill="#f0f4ff" stroke="black" d="M1703,-743C1703,-743 1602,-743 1602,-743 1596,-743 1590,-737 1590,-731 1590,-731 1590,-719 1590,-719 1590,-713 1596,-707 1602,-707 1602,-707 1703,-707 1703,-707 1709,-707 1715,-713 1715,-719 1715,-719 1715,-731 1715,-731 1715,-737 1709,-743 1703,-743"/>
<text text-anchor="middle" x="1652.5" y="-722.8" font-family="Courier,monospace" font-size="9.00">{CIccCmm::~CIccCmm()}</text>
</g>
<!-- Node0x5b95d00261e0&#45;&gt;Node0x5b95d0023ec0 -->
<g id="edge50" class="edge">
<title>Node0x5b95d00261e0&#45;&gt;Node0x5b95d0023ec0</title>
<path fill="none" stroke="#4a6fa5" d="M1377.75,-901.96C1401.58,-889.55 1432.49,-871.78 1457,-852 1501.06,-816.44 1495.1,-788.2 1543,-758 1555.17,-750.33 1569.22,-744.35 1583.1,-739.72"/>
<polygon fill="#4a6fa5" stroke="#4a6fa5" points="1583.97,-742.02 1589.89,-737.55 1582.48,-737.35 1583.97,-742.02"/>
</g>
<!-- Node0x5b95d002d240 -->
<g id="node29" class="node">
<title>Node0x5b95d002d240</title>
<path fill="#f0f4ff" stroke="black" d="M233.5,-1406C233.5,-1406 17.5,-1406 17.5,-1406 11.5,-1406 5.5,-1400 5.5,-1394 5.5,-1394 5.5,-1382 5.5,-1382 5.5,-1376 11.5,-1370 17.5,-1370 17.5,-1370 233.5,-1370 233.5,-1370 239.5,-1370 245.5,-1376 245.5,-1382 245.5,-1382 245.5,-1394 245.5,-1394 245.5,-1400 239.5,-1406 233.5,-1406"/>
<text text-anchor="middle" x="125.5" y="-1385.8" font-family="Courier,monospace" font-size="9.00">{IIccAdjustPCSXform::~IIccAdjustPCSXform()}</text>
</g>
<!-- Node0x5b95d002e280 -->
<g id="node30" class="node">
<title>Node0x5b95d002e280</title>
<path fill="#f0f4ff" stroke="black" d="M452.5,-1406C452.5,-1406 404.5,-1406 404.5,-1406 398.5,-1406 392.5,-1400 392.5,-1394 392.5,-1394 392.5,-1382 392.5,-1382 392.5,-1376 398.5,-1370 404.5,-1370 404.5,-1370 452.5,-1370 452.5,-1370 458.5,-1370 464.5,-1376 464.5,-1382 464.5,-1382 464.5,-1394 464.5,-1394 464.5,-1400 458.5,-1406 452.5,-1406"/>
<text text-anchor="middle" x="428.5" y="-1385.8" font-family="Courier,monospace" font-size="9.00">{llvm.trap}</text>
</g>
<!-- Node0x5b95d002d240&#45;&gt;Node0x5b95d002e280 -->
<g id="edge30" class="edge">
<title>Node0x5b95d002d240&#45;&gt;Node0x5b95d002e280</title>
<path fill="none" stroke="#4a6fa5" d="M245.9,-1388C294.93,-1388 348.57,-1388 384.75,-1388"/>
<polygon fill="#4a6fa5" stroke="#4a6fa5" points="385.2,-1390.45 392.2,-1388 385.2,-1385.55 385.2,-1390.45"/>
</g>
<!-- Node0x5b95d0024880 -->
<g id="node40" class="node">
<title>Node0x5b95d0024880</title>
<path fill="#f0f4ff" stroke="black" d="M1395,-361C1395,-361 1284,-361 1284,-361 1278,-361 1272,-355 1272,-349 1272,-349 1272,-337 1272,-337 1272,-331 1278,-325 1284,-325 1284,-325 1395,-325 1395,-325 1401,-325 1407,-331 1407,-337 1407,-337 1407,-349 1407,-349 1407,-355 1401,-361 1395,-361"/>
<text text-anchor="middle" x="1339.5" y="-340.8" font-family="Courier,monospace" font-size="9.00">{CIccProfile::GetTag()}</text>
</g>
<!-- Node0x5b95d0025ce0&#45;&gt;Node0x5b95d0024880 -->
<g id="edge51" class="edge">
<title>Node0x5b95d0025ce0&#45;&gt;Node0x5b95d0024880</title>
<path fill="none" stroke="#4a6fa5" d="M1115.31,-343C1161.85,-343 1219.45,-343 1264.48,-343"/>
<polygon fill="#4a6fa5" stroke="#4a6fa5" points="1264.59,-345.45 1271.59,-343 1264.59,-340.55 1264.59,-345.45"/>
</g>
<!-- Node0x5b95d0025a60&#45;&gt;Node0x5b95d000b1d0 -->
<g id="edge52" class="edge">
<title>Node0x5b95d0025a60&#45;&gt;Node0x5b95d000b1d0</title>
<path fill="none" stroke="#4a6fa5" d="M1419.4,-1003.03C1432.27,-1007.19 1445.24,-1012.15 1457,-1018 1499.9,-1039.34 1500.22,-1061.43 1543,-1083 1566.89,-1095.05 1596.09,-1103.34 1618.17,-1108.45"/>
<polygon fill="#4a6fa5" stroke="#4a6fa5" points="1617.71,-1110.86 1625.08,-1110 1618.79,-1106.08 1617.71,-1110.86"/>
</g>
<!-- Node0x5b95d0025a60&#45;&gt;Node0x5b95d0025560 -->
<g id="edge53" class="edge">
<title>Node0x5b95d0025a60&#45;&gt;Node0x5b95d0025560</title>
<path fill="none" stroke="#4a6fa5" d="M1423.03,-985C1473.69,-985 1537.72,-985 1585.1,-985"/>
<polygon fill="#4a6fa5" stroke="#4a6fa5" points="1585.26,-987.45 1592.26,-985 1585.26,-982.55 1585.26,-987.45"/>
</g>
<!-- Node0x5b95d0025a60&#45;&gt;Node0x5b95d0026520 -->
<g id="edge55" class="edge">
<title>Node0x5b95d0025a60&#45;&gt;Node0x5b95d0026520</title>
<path fill="none" stroke="#4a6fa5" d="M1423.03,-1002.25C1466.58,-1011.35 1520.02,-1022.52 1564.26,-1031.77"/>
<polygon fill="#4a6fa5" stroke="#4a6fa5" points="1563.93,-1034.2 1571.28,-1033.23 1564.93,-1029.4 1563.93,-1034.2"/>
</g>
<!-- Node0x5b95d0025a60&#45;&gt;Node0x5b95d00253a0 -->
<g id="edge54" class="edge">
<title>Node0x5b95d0025a60&#45;&gt;Node0x5b95d00253a0</title>
<path fill="none" stroke="#4a6fa5" d="M1423.2,-1000.43C1435.2,-1004.89 1446.9,-1010.62 1457,-1018 1512.93,-1058.88 1487.29,-1106.82 1543,-1148 1563.09,-1162.85 1590.01,-1170.85 1612.01,-1175.13"/>
<polygon fill="#4a6fa5" stroke="#4a6fa5" points="1611.64,-1177.55 1618.97,-1176.39 1612.52,-1172.73 1611.64,-1177.55"/>
</g>
<!-- Node0x5b95d0025ae0 -->
<g id="node41" class="node">
<title>Node0x5b95d0025ae0</title>
<path fill="#f0f4ff" stroke="black" d="M178.5,-8056C178.5,-8056 72.5,-8056 72.5,-8056 66.5,-8056 60.5,-8050 60.5,-8044 60.5,-8044 60.5,-8032 60.5,-8032 60.5,-8026 66.5,-8020 72.5,-8020 72.5,-8020 178.5,-8020 178.5,-8020 184.5,-8020 190.5,-8026 190.5,-8032 190.5,-8032 190.5,-8044 190.5,-8044 190.5,-8050 184.5,-8056 178.5,-8056"/>
<text text-anchor="middle" x="125.5" y="-8035.8" font-family="Courier,monospace" font-size="9.00">{__gxx_personality_v0}</text>
</g>
<!-- Node0x5b95d0023370 -->
<g id="node42" class="node">
<title>Node0x5b95d0023370</title>
<path fill="#f0f4ff" stroke="black" d="M1729,-1328C1729,-1328 1576,-1328 1576,-1328 1570,-1328 1564,-1322 1564,-1316 1564,-1316 1564,-1304 1564,-1304 1564,-1298 1570,-1292 1576,-1292 1576,-1292 1729,-1292 1729,-1292 1735,-1292 1741,-1298 1741,-1304 1741,-1304 1741,-1316 1741,-1316 1741,-1322 1735,-1328 1729,-1328"/>
<text text-anchor="middle" x="1652.5" y="-1307.8" font-family="Courier,monospace" font-size="9.00">{CIccApplyBPC::~CIccApplyBPC()}</text>
</g>
<!-- Node0x5b95d002bdc0 -->
<g id="node43" class="node">
<title>Node0x5b95d002bdc0</title>
<path fill="#f0f4ff" stroke="black" d="M2128.5,-1328C2128.5,-1328 1912.5,-1328 1912.5,-1328 1906.5,-1328 1900.5,-1322 1900.5,-1316 1900.5,-1316 1900.5,-1304 1900.5,-1304 1900.5,-1298 1906.5,-1292 1912.5,-1292 1912.5,-1292 2128.5,-1292 2128.5,-1292 2134.5,-1292 2140.5,-1298 2140.5,-1304 2140.5,-1304 2140.5,-1316 2140.5,-1316 2140.5,-1322 2134.5,-1328 2128.5,-1328"/>
<text text-anchor="middle" x="2020.5" y="-1307.8" font-family="Courier,monospace" font-size="9.00">{IIccAdjustPCSXform::~IIccAdjustPCSXform()}</text>
</g>
<!-- Node0x5b95d0023370&#45;&gt;Node0x5b95d002bdc0 -->
<g id="edge56" class="edge">
<title>Node0x5b95d0023370&#45;&gt;Node0x5b95d002bdc0</title>
<path fill="none" stroke="#4a6fa5" d="M1741.17,-1310C1786.71,-1310 1843.19,-1310 1893.34,-1310"/>
<polygon fill="#4a6fa5" stroke="#4a6fa5" points="1893.38,-1312.45 1900.38,-1310 1893.38,-1307.55 1893.38,-1312.45"/>
</g>
<!-- Node0x5b95d002b640 -->
<g id="node44" class="node">
<title>Node0x5b95d002b640</title>
<path fill="#f0f4ff" stroke="black" d="M1416,-1328C1416,-1328 1263,-1328 1263,-1328 1257,-1328 1251,-1322 1251,-1316 1251,-1316 1251,-1304 1251,-1304 1251,-1298 1257,-1292 1263,-1292 1263,-1292 1416,-1292 1416,-1292 1422,-1292 1428,-1298 1428,-1304 1428,-1304 1428,-1316 1428,-1316 1428,-1322 1422,-1328 1416,-1328"/>
<text text-anchor="middle" x="1339.5" y="-1307.8" font-family="Courier,monospace" font-size="9.00">{CIccApplyBPC::~CIccApplyBPC()}</text>
</g>
<!-- Node0x5b95d002b640&#45;&gt;Node0x5b95d00253a0 -->
<g id="edge58" class="edge">
<title>Node0x5b95d002b640&#45;&gt;Node0x5b95d00253a0</title>
<path fill="none" stroke="#4a6fa5" d="M1421.87,-1291.93C1433.93,-1288.04 1445.99,-1283.42 1457,-1278 1499.98,-1256.83 1500.31,-1234.75 1543,-1213 1564.59,-1202 1590.5,-1193.95 1611.59,-1188.55"/>
<polygon fill="#4a6fa5" stroke="#4a6fa5" points="1612.34,-1190.89 1618.54,-1186.82 1611.16,-1186.14 1612.34,-1190.89"/>
</g>
<!-- Node0x5b95d002b640&#45;&gt;Node0x5b95d0023370 -->
<g id="edge57" class="edge">
<title>Node0x5b95d002b640&#45;&gt;Node0x5b95d0023370</title>
<path fill="none" stroke="#4a6fa5" d="M1428.37,-1310C1468.45,-1310 1515.96,-1310 1556.82,-1310"/>
<polygon fill="#4a6fa5" stroke="#4a6fa5" points="1556.84,-1312.45 1563.84,-1310 1556.84,-1307.55 1556.84,-1312.45"/>
</g>
<!-- Node0x5b95d002b280 -->
<g id="node45" class="node">
<title>Node0x5b95d002b280</title>
<path fill="#f0f4ff" stroke="black" d="M1750,-1263C1750,-1263 1555,-1263 1555,-1263 1549,-1263 1543,-1257 1543,-1251 1543,-1251 1543,-1239 1543,-1239 1543,-1233 1549,-1227 1555,-1227 1555,-1227 1750,-1227 1750,-1227 1756,-1227 1762,-1233 1762,-1239 1762,-1239 1762,-1251 1762,-1251 1762,-1257 1756,-1263 1750,-1263"/>
<text text-anchor="middle" x="1652.5" y="-1242.8" font-family="Courier,monospace" font-size="9.00">{CIccApplyBPCHint::~CIccApplyBPCHint()}</text>
</g>
<!-- Node0x5b95d002ac40 -->
<g id="node46" class="node">
<title>Node0x5b95d002ac40</title>
<path fill="#f0f4ff" stroke="black" d="M2181,-1263C2181,-1263 1860,-1263 1860,-1263 1854,-1263 1848,-1257 1848,-1251 1848,-1251 1848,-1239 1848,-1239 1848,-1233 1854,-1227 1860,-1227 1860,-1227 2181,-1227 2181,-1227 2187,-1227 2193,-1233 2193,-1239 2193,-1239 2193,-1251 2193,-1251 2193,-1257 2187,-1263 2181,-1263"/>
<text text-anchor="middle" x="2020.5" y="-1242.8" font-family="Courier,monospace" font-size="9.00">{CIccCreateAdjustPCSXformHint::~CIccCreateAdjustPCSXformHint()}</text>
</g>
<!-- Node0x5b95d002b280&#45;&gt;Node0x5b95d002ac40 -->
<g id="edge59" class="edge">
<title>Node0x5b95d002b280&#45;&gt;Node0x5b95d002ac40</title>
<path fill="none" stroke="#4a6fa5" d="M1762.32,-1245C1786.98,-1245 1813.81,-1245 1840.52,-1245"/>
<polygon fill="#4a6fa5" stroke="#4a6fa5" points="1840.68,-1247.45 1847.68,-1245 1840.68,-1242.55 1840.68,-1247.45"/>
</g>
<!-- Node0x5b95d002f540 -->
<g id="node51" class="node">
<title>Node0x5b95d002f540</title>
<path fill="#f0f4ff" stroke="black" d="M2518,-1263C2518,-1263 2291,-1263 2291,-1263 2285,-1263 2279,-1257 2279,-1251 2279,-1251 2279,-1239 2279,-1239 2279,-1233 2285,-1227 2291,-1227 2291,-1227 2518,-1227 2518,-1227 2524,-1227 2530,-1233 2530,-1239 2530,-1239 2530,-1251 2530,-1251 2530,-1257 2524,-1263 2518,-1263"/>
<text text-anchor="middle" x="2404.5" y="-1242.8" font-family="Courier,monospace" font-size="9.00">{IIccCreateXformHint::~IIccCreateXformHint()}</text>
</g>
<!-- Node0x5b95d002ac40&#45;&gt;Node0x5b95d002f540 -->
<g id="edge62" class="edge">
<title>Node0x5b95d002ac40&#45;&gt;Node0x5b95d002f540</title>
<path fill="none" stroke="#4a6fa5" d="M2193.22,-1245C2219.58,-1245 2246.44,-1245 2271.75,-1245"/>
<polygon fill="#4a6fa5" stroke="#4a6fa5" points="2271.84,-1247.45 2278.84,-1245 2271.84,-1242.55 2271.84,-1247.45"/>
</g>
<!-- Node0x5b95d002ce80 -->
<g id="node47" class="node">
<title>Node0x5b95d002ce80</title>
<path fill="#f0f4ff" stroke="black" d="M1437,-1198C1437,-1198 1242,-1198 1242,-1198 1236,-1198 1230,-1192 1230,-1186 1230,-1186 1230,-1174 1230,-1174 1230,-1168 1236,-1162 1242,-1162 1242,-1162 1437,-1162 1437,-1162 1443,-1162 1449,-1168 1449,-1174 1449,-1174 1449,-1186 1449,-1186 1449,-1192 1443,-1198 1437,-1198"/>
<text text-anchor="middle" x="1339.5" y="-1177.8" font-family="Courier,monospace" font-size="9.00">{CIccApplyBPCHint::~CIccApplyBPCHint()}</text>
</g>
<!-- Node0x5b95d002ce80&#45;&gt;Node0x5b95d00253a0 -->
<g id="edge61" class="edge">
<title>Node0x5b95d002ce80&#45;&gt;Node0x5b95d00253a0</title>
<path fill="none" stroke="#4a6fa5" d="M1449.27,-1180C1505.62,-1180 1570.99,-1180 1611.8,-1180"/>
<polygon fill="#4a6fa5" stroke="#4a6fa5" points="1611.88,-1182.45 1618.88,-1180 1611.88,-1177.55 1611.88,-1182.45"/>
</g>
<!-- Node0x5b95d002ce80&#45;&gt;Node0x5b95d002b280 -->
<g id="edge60" class="edge">
<title>Node0x5b95d002ce80&#45;&gt;Node0x5b95d002b280</title>
<path fill="none" stroke="#4a6fa5" d="M1426.72,-1198.02C1467.59,-1206.56 1516.48,-1216.78 1558.21,-1225.5"/>
<polygon fill="#4a6fa5" stroke="#4a6fa5" points="1557.76,-1227.91 1565.11,-1226.95 1558.76,-1223.11 1557.76,-1227.91"/>
</g>
<!-- Node0x5b95d002dd80 -->
<g id="node48" class="node">
<title>Node0x5b95d002dd80</title>
<path fill="#f0f4ff" stroke="black" d="M239,-11414C239,-11414 12,-11414 12,-11414 6,-11414 0,-11408 0,-11402 0,-11402 0,-11390 0,-11390 0,-11384 6,-11378 12,-11378 12,-11378 239,-11378 239,-11378 245,-11378 251,-11384 251,-11390 251,-11390 251,-11402 251,-11402 251,-11408 245,-11414 239,-11414"/>
<text text-anchor="middle" x="125.5" y="-11393.8" font-family="Courier,monospace" font-size="9.00">{CIccCreateAdjustPCSXformHint::GetHintType()}</text>
</g>
<!-- Node0x5b95d002d740 -->
<g id="node49" class="node">
<title>Node0x5b95d002d740</title>
<path fill="#f0f4ff" stroke="black" d="M220.5,-13125C220.5,-13125 30.5,-13125 30.5,-13125 24.5,-13125 18.5,-13119 18.5,-13113 18.5,-13113 18.5,-13101 18.5,-13101 18.5,-13095 24.5,-13089 30.5,-13089 30.5,-13089 220.5,-13089 220.5,-13089 226.5,-13089 232.5,-13095 232.5,-13101 232.5,-13101 232.5,-13113 232.5,-13113 232.5,-13119 226.5,-13125 220.5,-13125"/>
<text text-anchor="middle" x="125.5" y="-13104.8" font-family="Courier,monospace" font-size="9.00">{CIccApplyBPCHint::GetAdjustPCSType()}</text>
</g>
<!-- Node0x5b95d002fcc0 -->
<g id="node50" class="node">
<title>Node0x5b95d002fcc0</title>
<path fill="#f0f4ff" stroke="black" d="M173.5,-14013C173.5,-14013 77.5,-14013 77.5,-14013 71.5,-14013 65.5,-14007 65.5,-14001 65.5,-14001 65.5,-13989 65.5,-13989 65.5,-13983 71.5,-13977 77.5,-13977 77.5,-13977 173.5,-13977 173.5,-13977 179.5,-13977 185.5,-13983 185.5,-13989 185.5,-13989 185.5,-14001 185.5,-14001 185.5,-14007 179.5,-14013 173.5,-14013"/>
<text text-anchor="middle" x="125.5" y="-13992.8" font-family="Courier,monospace" font-size="9.00">{__cxa_pure_virtual}</text>
</g>
</g>
</svg>
