<?xml version="1.0" encoding="UTF-8" standalone="no"?>
<!DOCTYPE svg PUBLIC "-//W3C//DTD SVG 1.1//EN"
 "http://www.w3.org/Graphics/SVG/1.1/DTD/svg11.dtd">
<!-- Generated by graphviz version 2.43.0 (0)
 -->
<!-- Title: Call graph: /home/h02332/po/research/call&#45;graph/iccdev/proflib/IccArrayFactory.ll Pages: 1 -->
<svg width="890pt" height="1471pt"
 viewBox="0.00 0.00 890.20 1471.20" xmlns="http://www.w3.org/2000/svg" xmlns:xlink="http://www.w3.org/1999/xlink">
<g id="graph0" class="graph" transform="scale(1 1) rotate(0) translate(21.6 1449.6)">
<title>Call graph: /home/h02332/po/research/call&#45;graph/iccdev/proflib/IccArrayFactory.ll</title>
<polygon fill="white" stroke="transparent" points="-21.6,21.6 -21.6,-1449.6 868.6,-1449.6 868.6,21.6 -21.6,21.6"/>
<!-- Node0x5695859d2cf0 -->
<g id="node1" class="node">
<title>Node0x5695859d2cf0</title>
<path fill="#f0f4ff" stroke="black" d="M221.5,-94C221.5,-94 43.5,-94 43.5,-94 37.5,-94 31.5,-88 31.5,-82 31.5,-82 31.5,-70 31.5,-70 31.5,-64 37.5,-58 43.5,-58 43.5,-58 221.5,-58 221.5,-58 227.5,-58 233.5,-64 233.5,-70 233.5,-70 233.5,-82 233.5,-82 233.5,-88 227.5,-94 221.5,-94"/>
<text text-anchor="middle" x="132.5" y="-73.8" font-family="Courier,monospace" font-size="9.00">CIccBasicArrayFactory::CreateArray()</text>
</g>
<!-- Node0x5695859c6c90 -->
<g id="node2" class="node">
<title>Node0x5695859c6c90</title>
<path fill="#f0f4ff" stroke="black" d="M557,-152C557,-152 348,-152 348,-152 342,-152 336,-146 336,-140 336,-140 336,-128 336,-128 336,-122 342,-116 348,-116 348,-116 557,-116 557,-116 563,-116 569,-122 569,-128 569,-128 569,-140 569,-140 569,-146 563,-152 557,-152"/>
<text text-anchor="middle" x="452.5" y="-131.8" font-family="Courier,monospace" font-size="9.00">CIccArrayNamedColor::CIccArrayNamedColor()</text>
</g>
<!-- Node0x5695859d2cf0&#45;&gt;Node0x5695859c6c90 -->
<g id="edge1" class="edge">
<title>Node0x5695859d2cf0&#45;&gt;Node0x5695859c6c90</title>
<path fill="none" stroke="#4a6fa5" d="M232.37,-94.03C268.57,-100.64 309.64,-108.13 346.36,-114.82"/>
<polygon fill="#4a6fa5" stroke="#4a6fa5" points="346.41,-116.97 352.69,-115.98 347.16,-112.83 346.41,-116.97"/>
</g>
<!-- Node0x5695858f68b0 -->
<g id="node3" class="node">
<title>Node0x5695858f68b0</title>
<path fill="#f0f4ff" stroke="black" d="M541.5,-94C541.5,-94 363.5,-94 363.5,-94 357.5,-94 351.5,-88 351.5,-82 351.5,-82 351.5,-70 351.5,-70 351.5,-64 357.5,-58 363.5,-58 363.5,-58 541.5,-58 541.5,-58 547.5,-58 553.5,-64 553.5,-70 553.5,-70 553.5,-82 553.5,-82 553.5,-88 547.5,-94 541.5,-94"/>
<text text-anchor="middle" x="452.5" y="-73.8" font-family="Courier,monospace" font-size="9.00">CIccArrayUnknown::CIccArrayUnknown()</text>
</g>
<!-- Node0x5695859d2cf0&#45;&gt;Node0x5695858f68b0 -->
<g id="edge2" class="edge">
<title>Node0x5695859d2cf0&#45;&gt;Node0x5695858f68b0</title>
<path fill="none" stroke="#4a6fa5" d="M233.68,-76C269.13,-76 309.13,-76 345.08,-76"/>
<polygon fill="#4a6fa5" stroke="#4a6fa5" points="345.28,-78.1 351.28,-76 345.28,-73.9 345.28,-78.1"/>
</g>
<!-- Node0x569585910d60 -->
<g id="node4" class="node">
<title>Node0x569585910d60</title>
<path fill="#f0f4ff" stroke="black" d="M567.5,-36C567.5,-36 337.5,-36 337.5,-36 331.5,-36 325.5,-30 325.5,-24 325.5,-24 325.5,-12 325.5,-12 325.5,-6 331.5,0 337.5,0 337.5,0 567.5,0 567.5,0 573.5,0 579.5,-6 579.5,-12 579.5,-12 579.5,-24 579.5,-24 579.5,-30 573.5,-36 567.5,-36"/>
<text text-anchor="middle" x="452.5" y="-15.8" font-family="Courier,monospace" font-size="9.00">CIccArrayColorantInfo::CIccArrayColorantInfo()</text>
</g>
<!-- Node0x5695859d2cf0&#45;&gt;Node0x569585910d60 -->
<g id="edge3" class="edge">
<title>Node0x5695859d2cf0&#45;&gt;Node0x569585910d60</title>
<path fill="none" stroke="#4a6fa5" d="M232.37,-57.97C268.57,-51.36 309.64,-43.87 346.36,-37.18"/>
<polygon fill="#4a6fa5" stroke="#4a6fa5" points="347.16,-39.17 352.69,-36.02 346.41,-35.03 347.16,-39.17"/>
</g>
<!-- Node0x5695859ca6d0 -->
<g id="node5" class="node">
<title>Node0x5695859ca6d0</title>
<path fill="#f0f4ff" stroke="black" d="M232,-210C232,-210 33,-210 33,-210 27,-210 21,-204 21,-198 21,-198 21,-186 21,-186 21,-180 27,-174 33,-174 33,-174 232,-174 232,-174 238,-174 244,-180 244,-186 244,-186 244,-198 244,-198 244,-204 238,-210 232,-210"/>
<text text-anchor="middle" x="132.5" y="-189.8" font-family="Courier,monospace" font-size="9.00">CIccBasicArrayFactory::GetArraySigName()</text>
</g>
<!-- Node0x5695858ec960 -->
<g id="node6" class="node">
<title>Node0x5695858ec960</title>
<path fill="#f0f4ff" stroke="black" d="M481,-210C481,-210 424,-210 424,-210 418,-210 412,-204 412,-198 412,-198 412,-186 412,-186 412,-180 418,-174 424,-174 424,-174 481,-174 481,-174 487,-174 493,-180 493,-186 493,-186 493,-198 493,-198 493,-204 487,-210 481,-210"/>
<text text-anchor="middle" x="452.5" y="-189.8" font-family="Courier,monospace" font-size="9.00">icGetSigStr()</text>
</g>
<!-- Node0x5695859ca6d0&#45;&gt;Node0x5695858ec960 -->
<g id="edge4" class="edge">
<title>Node0x5695859ca6d0&#45;&gt;Node0x5695858ec960</title>
<path fill="none" stroke="#4a6fa5" d="M244.27,-192C299.63,-192 363.6,-192 405.65,-192"/>
<polygon fill="#4a6fa5" stroke="#4a6fa5" points="405.69,-194.1 411.69,-192 405.69,-189.9 405.69,-194.1"/>
</g>
<!-- Node0x569585951bf0 -->
<g id="node7" class="node">
<title>Node0x569585951bf0</title>
<path fill="#f0f4ff" stroke="black" d="M221.5,-297C221.5,-297 43.5,-297 43.5,-297 37.5,-297 31.5,-291 31.5,-285 31.5,-285 31.5,-273 31.5,-273 31.5,-267 37.5,-261 43.5,-261 43.5,-261 221.5,-261 221.5,-261 227.5,-261 233.5,-267 233.5,-273 233.5,-273 233.5,-285 233.5,-285 233.5,-291 227.5,-297 221.5,-297"/>
<text text-anchor="middle" x="132.5" y="-276.8" font-family="Courier,monospace" font-size="9.00">CIccBasicArrayFactory::GetArraySig()</text>
</g>
<!-- Node0x5695859d89c0 -->
<g id="node8" class="node">
<title>Node0x5695859d89c0</title>
<path fill="#f0f4ff" stroke="black" d="M478.5,-500C478.5,-500 426.5,-500 426.5,-500 420.5,-500 414.5,-494 414.5,-488 414.5,-488 414.5,-476 414.5,-476 414.5,-470 420.5,-464 426.5,-464 426.5,-464 478.5,-464 478.5,-464 484.5,-464 490.5,-470 490.5,-476 490.5,-476 490.5,-488 490.5,-488 490.5,-494 484.5,-500 478.5,-500"/>
<text text-anchor="middle" x="452.5" y="-479.8" font-family="Courier,monospace" font-size="9.00">unique_ptr()</text>
</g>
<!-- Node0x5695859e5f30 -->
<g id="node9" class="node">
<title>Node0x5695859e5f30</title>
<path fill="#f0f4ff" stroke="black" d="M772,-500C772,-500 715,-500 715,-500 709,-500 703,-494 703,-488 703,-488 703,-476 703,-476 703,-470 709,-464 715,-464 715,-464 772,-464 772,-464 778,-464 784,-470 784,-476 784,-476 784,-488 784,-488 784,-494 778,-500 772,-500"/>
<text text-anchor="middle" x="743.5" y="-479.8" font-family="Courier,monospace" font-size="9.00">get_deleter()</text>
</g>
<!-- Node0x5695859d89c0&#45;&gt;Node0x5695859e5f30 -->
<g id="edge5" class="edge">
<title>Node0x5695859d89c0&#45;&gt;Node0x5695859e5f30</title>
<path fill="none" stroke="#4a6fa5" d="M490.69,-482C543.35,-482 639.56,-482 696.6,-482"/>
<polygon fill="#4a6fa5" stroke="#4a6fa5" points="696.67,-484.1 702.67,-482 696.67,-479.9 696.67,-484.1"/>
</g>
<!-- Node0x5695859dc920 -->
<g id="node10" class="node">
<title>Node0x5695859dc920</title>
<path fill="#f0f4ff" stroke="black" d="M224,-558C224,-558 41,-558 41,-558 35,-558 29,-552 29,-546 29,-546 29,-534 29,-534 29,-528 35,-522 41,-522 41,-522 224,-522 224,-522 230,-522 236,-528 236,-534 236,-534 236,-546 236,-546 236,-552 230,-558 224,-558"/>
<text text-anchor="middle" x="132.5" y="-537.8" font-family="Courier,monospace" font-size="9.00">CIccArrayCreator::~CIccArrayCreator()</text>
</g>
<!-- Node0x5695859dcba0 -->
<g id="node11" class="node">
<title>Node0x5695859dcba0</title>
<path fill="#f0f4ff" stroke="black" d="M531,-558C531,-558 374,-558 374,-558 368,-558 362,-552 362,-546 362,-546 362,-534 362,-534 362,-528 368,-522 374,-522 374,-522 531,-522 531,-522 537,-522 543,-528 543,-534 543,-534 543,-546 543,-546 543,-552 537,-558 531,-558"/>
<text text-anchor="middle" x="452.5" y="-537.8" font-family="Courier,monospace" font-size="9.00">CIccArrayCreator::DoPopFactory()</text>
</g>
<!-- Node0x5695859dc920&#45;&gt;Node0x5695859dcba0 -->
<g id="edge6" class="edge">
<title>Node0x5695859dc920&#45;&gt;Node0x5695859dcba0</title>
<path fill="none" stroke="#4a6fa5" d="M236.31,-540C274.72,-540 318.15,-540 355.89,-540"/>
<polygon fill="#4a6fa5" stroke="#4a6fa5" points="355.89,-542.1 361.89,-540 355.89,-537.9 355.89,-542.1"/>
</g>
<!-- Node0x5695859f3880 -->
<g id="node12" class="node">
<title>Node0x5695859f3880</title>
<path fill="#f0f4ff" stroke="black" d="M766.5,-558C766.5,-558 720.5,-558 720.5,-558 714.5,-558 708.5,-552 708.5,-546 708.5,-546 708.5,-534 708.5,-534 708.5,-528 714.5,-522 720.5,-522 720.5,-522 766.5,-522 766.5,-522 772.5,-522 778.5,-528 778.5,-534 778.5,-534 778.5,-546 778.5,-546 778.5,-552 772.5,-558 766.5,-558"/>
<text text-anchor="middle" x="743.5" y="-537.8" font-family="Courier,monospace" font-size="9.00">pop_front()</text>
</g>
<!-- Node0x5695859dcba0&#45;&gt;Node0x5695859f3880 -->
<g id="edge7" class="edge">
<title>Node0x5695859dcba0&#45;&gt;Node0x5695859f3880</title>
<path fill="none" stroke="#4a6fa5" d="M543.36,-540C596.47,-540 661.13,-540 702.07,-540"/>
<polygon fill="#4a6fa5" stroke="#4a6fa5" points="702.18,-542.1 708.18,-540 702.18,-537.9 702.18,-542.1"/>
</g>
<!-- Node0x5695859f3e30 -->
<g id="node13" class="node">
<title>Node0x5695859f3e30</title>
<path fill="#f0f4ff" stroke="black" d="M208,-384C208,-384 57,-384 57,-384 51,-384 45,-378 45,-372 45,-372 45,-360 45,-360 45,-354 51,-348 57,-348 57,-348 208,-348 208,-348 214,-348 220,-354 220,-360 220,-360 220,-372 220,-372 220,-378 214,-384 208,-384"/>
<text text-anchor="middle" x="132.5" y="-363.8" font-family="Courier,monospace" font-size="9.00">CIccArrayCreator::GetInstance()</text>
</g>
<!-- Node0x5695859f3e30&#45;&gt;Node0x5695859d89c0 -->
<g id="edge10" class="edge">
<title>Node0x5695859f3e30&#45;&gt;Node0x5695859d89c0</title>
<path fill="none" stroke="#4a6fa5" d="M167.2,-384.08C204.43,-403.44 266.59,-433.92 323,-453 350.88,-462.43 383.2,-469.71 408.45,-474.61"/>
<polygon fill="#4a6fa5" stroke="#4a6fa5" points="408.09,-476.68 414.38,-475.75 408.88,-472.56 408.09,-476.68"/>
</g>
<!-- Node0x5695859fa410 -->
<g id="node14" class="node">
<title>Node0x5695859fa410</title>
<path fill="#f0f4ff" stroke="black" d="M467.5,-442C467.5,-442 437.5,-442 437.5,-442 431.5,-442 425.5,-436 425.5,-430 425.5,-430 425.5,-418 425.5,-418 425.5,-412 431.5,-406 437.5,-406 437.5,-406 467.5,-406 467.5,-406 473.5,-406 479.5,-412 479.5,-418 479.5,-418 479.5,-430 479.5,-430 479.5,-436 473.5,-442 467.5,-442"/>
<text text-anchor="middle" x="452.5" y="-421.8" font-family="Courier,monospace" font-size="9.00">get()</text>
</g>
<!-- Node0x5695859f3e30&#45;&gt;Node0x5695859fa410 -->
<g id="edge8" class="edge">
<title>Node0x5695859f3e30&#45;&gt;Node0x5695859fa410</title>
<path fill="none" stroke="#4a6fa5" d="M220.39,-381.85C286.22,-393.85 372.95,-409.67 419.19,-418.11"/>
<polygon fill="#4a6fa5" stroke="#4a6fa5" points="418.89,-420.19 425.17,-419.2 419.65,-416.06 418.89,-420.19"/>
</g>
<!-- Node0x5695859f9760 -->
<g id="node15" class="node">
<title>Node0x5695859f9760</title>
<path fill="#f0f4ff" stroke="black" d="M541.5,-384C541.5,-384 363.5,-384 363.5,-384 357.5,-384 351.5,-378 351.5,-372 351.5,-372 351.5,-360 351.5,-360 351.5,-354 357.5,-348 363.5,-348 363.5,-348 541.5,-348 541.5,-348 547.5,-348 553.5,-354 553.5,-360 553.5,-360 553.5,-372 553.5,-372 553.5,-378 547.5,-384 541.5,-384"/>
<text text-anchor="middle" x="452.5" y="-363.8" font-family="Courier,monospace" font-size="9.00">CIccArrayCreator::CIccArrayCreator()</text>
</g>
<!-- Node0x5695859f3e30&#45;&gt;Node0x5695859f9760 -->
<g id="edge9" class="edge">
<title>Node0x5695859f3e30&#45;&gt;Node0x5695859f9760</title>
<path fill="none" stroke="#4a6fa5" d="M220.39,-366C258.96,-366 304.71,-366 345.29,-366"/>
<polygon fill="#4a6fa5" stroke="#4a6fa5" points="345.5,-368.1 351.5,-366 345.5,-363.9 345.5,-368.1"/>
</g>
<!-- Node0x5695859fca20 -->
<g id="node16" class="node">
<title>Node0x5695859fca20</title>
<path fill="#f0f4ff" stroke="black" d="M567.5,-326C567.5,-326 337.5,-326 337.5,-326 331.5,-326 325.5,-320 325.5,-314 325.5,-314 325.5,-302 325.5,-302 325.5,-296 331.5,-290 337.5,-290 337.5,-290 567.5,-290 567.5,-290 573.5,-290 579.5,-296 579.5,-302 579.5,-302 579.5,-314 579.5,-314 579.5,-320 573.5,-326 567.5,-326"/>
<text text-anchor="middle" x="452.5" y="-305.8" font-family="Courier,monospace" font-size="9.00">CIccBasicArrayFactory::CIccBasicArrayFactory()</text>
</g>
<!-- Node0x5695859f3e30&#45;&gt;Node0x5695859fca20 -->
<g id="edge11" class="edge">
<title>Node0x5695859f3e30&#45;&gt;Node0x5695859fca20</title>
<path fill="none" stroke="#4a6fa5" d="M220.39,-350.15C259.39,-343.04 305.73,-334.59 346.64,-327.12"/>
<polygon fill="#4a6fa5" stroke="#4a6fa5" points="347.11,-329.17 352.64,-326.03 346.36,-325.04 347.11,-329.17"/>
</g>
<!-- Node0x5695859f9960 -->
<g id="node17" class="node">
<title>Node0x5695859f9960</title>
<path fill="#f0f4ff" stroke="black" d="M533.5,-268C533.5,-268 371.5,-268 371.5,-268 365.5,-268 359.5,-262 359.5,-256 359.5,-256 359.5,-244 359.5,-244 359.5,-238 365.5,-232 371.5,-232 371.5,-232 533.5,-232 533.5,-232 539.5,-232 545.5,-238 545.5,-244 545.5,-244 545.5,-256 545.5,-256 545.5,-262 539.5,-268 533.5,-268"/>
<text text-anchor="middle" x="452.5" y="-247.8" font-family="Courier,monospace" font-size="9.00">CIccArrayCreator::DoPushFactory()</text>
</g>
<!-- Node0x5695859f3e30&#45;&gt;Node0x5695859f9960 -->
<g id="edge12" class="edge">
<title>Node0x5695859f3e30&#45;&gt;Node0x5695859f9960</title>
<path fill="none" stroke="#4a6fa5" d="M175.78,-347.97C201.68,-336.77 235.42,-321.91 265,-308 291.08,-295.74 295.86,-288.69 323,-279 332.81,-275.5 343.2,-272.32 353.66,-269.47"/>
<polygon fill="#4a6fa5" stroke="#4a6fa5" points="354.21,-271.5 359.47,-267.92 353.13,-267.44 354.21,-271.5"/>
</g>
<!-- Node0x5695859fcf00 -->
<g id="node19" class="node">
<title>Node0x5695859fcf00</title>
<path fill="#f0f4ff" stroke="black" d="M832.5,-326C832.5,-326 654.5,-326 654.5,-326 648.5,-326 642.5,-320 642.5,-314 642.5,-314 642.5,-302 642.5,-302 642.5,-296 648.5,-290 654.5,-290 654.5,-290 832.5,-290 832.5,-290 838.5,-290 844.5,-296 844.5,-302 844.5,-302 844.5,-314 844.5,-314 844.5,-320 838.5,-326 832.5,-326"/>
<text text-anchor="middle" x="743.5" y="-305.8" font-family="Courier,monospace" font-size="9.00">IIccArrayFactory::IIccArrayFactory()</text>
</g>
<!-- Node0x5695859fca20&#45;&gt;Node0x5695859fcf00 -->
<g id="edge14" class="edge">
<title>Node0x5695859fca20&#45;&gt;Node0x5695859fcf00</title>
<path fill="none" stroke="#4a6fa5" d="M579.84,-308C598.67,-308 617.92,-308 636.28,-308"/>
<polygon fill="#4a6fa5" stroke="#4a6fa5" points="636.47,-310.1 642.47,-308 636.47,-305.9 636.47,-310.1"/>
</g>
<!-- Node0x5695859fd610 -->
<g id="node18" class="node">
<title>Node0x5695859fd610</title>
<path fill="#f0f4ff" stroke="black" d="M769.5,-268C769.5,-268 717.5,-268 717.5,-268 711.5,-268 705.5,-262 705.5,-256 705.5,-256 705.5,-244 705.5,-244 705.5,-238 711.5,-232 717.5,-232 717.5,-232 769.5,-232 769.5,-232 775.5,-232 781.5,-238 781.5,-244 781.5,-244 781.5,-256 781.5,-256 781.5,-262 775.5,-268 769.5,-268"/>
<text text-anchor="middle" x="743.5" y="-247.8" font-family="Courier,monospace" font-size="9.00">push_front()</text>
</g>
<!-- Node0x5695859f9960&#45;&gt;Node0x5695859fd610 -->
<g id="edge13" class="edge">
<title>Node0x5695859f9960&#45;&gt;Node0x5695859fd610</title>
<path fill="none" stroke="#4a6fa5" d="M545.74,-250C597.12,-250 658.68,-250 699.1,-250"/>
<polygon fill="#4a6fa5" stroke="#4a6fa5" points="699.15,-252.1 705.15,-250 699.15,-247.9 699.15,-252.1"/>
</g>
<!-- Node0x569585a01980 -->
<g id="node20" class="node">
<title>Node0x569585a01980</title>
<path fill="#f0f4ff" stroke="black" d="M213.5,-616C213.5,-616 51.5,-616 51.5,-616 45.5,-616 39.5,-610 39.5,-604 39.5,-604 39.5,-592 39.5,-592 39.5,-586 45.5,-580 51.5,-580 51.5,-580 213.5,-580 213.5,-580 219.5,-580 225.5,-586 225.5,-592 225.5,-592 225.5,-604 225.5,-604 225.5,-610 219.5,-616 213.5,-616"/>
<text text-anchor="middle" x="132.5" y="-595.8" font-family="Courier,monospace" font-size="9.00">CIccArrayCreator::DoCreateArray()</text>
</g>
<!-- Node0x5695859f0780 -->
<g id="node21" class="node">
<title>Node0x5695859f0780</title>
<path fill="#f0f4ff" stroke="black" d="M224,-674C224,-674 41,-674 41,-674 35,-674 29,-668 29,-662 29,-662 29,-650 29,-650 29,-644 35,-638 41,-638 41,-638 224,-638 224,-638 230,-638 236,-644 236,-650 236,-650 236,-662 236,-662 236,-668 230,-674 224,-674"/>
<text text-anchor="middle" x="132.5" y="-653.8" font-family="Courier,monospace" font-size="9.00">CIccArrayCreator::DoGetArraySigName()</text>
</g>
<!-- Node0x569585a04d80 -->
<g id="node22" class="node">
<title>Node0x569585a04d80</title>
<path fill="#f0f4ff" stroke="black" d="M213.5,-732C213.5,-732 51.5,-732 51.5,-732 45.5,-732 39.5,-726 39.5,-720 39.5,-720 39.5,-708 39.5,-708 39.5,-702 45.5,-696 51.5,-696 51.5,-696 213.5,-696 213.5,-696 219.5,-696 225.5,-702 225.5,-708 225.5,-708 225.5,-720 225.5,-720 225.5,-726 219.5,-732 213.5,-732"/>
<text text-anchor="middle" x="132.5" y="-711.8" font-family="Courier,monospace" font-size="9.00">CIccArrayCreator::DoGetArraySig()</text>
</g>
<!-- Node0x569585a048a0 -->
<g id="node23" class="node">
<title>Node0x569585a048a0</title>
<path fill="#f0f4ff" stroke="black" d="M570,-790C570,-790 335,-790 335,-790 329,-790 323,-784 323,-778 323,-778 323,-766 323,-766 323,-760 329,-754 335,-754 335,-754 570,-754 570,-754 576,-754 582,-760 582,-766 582,-766 582,-778 582,-778 582,-784 576,-790 570,-790"/>
<text text-anchor="middle" x="452.5" y="-769.8" font-family="Courier,monospace" font-size="9.00">CIccBasicArrayFactory::~CIccBasicArrayFactory()</text>
</g>
<!-- Node0x569585a04ec0 -->
<g id="node24" class="node">
<title>Node0x569585a04ec0</title>
<path fill="#f0f4ff" stroke="black" d="M835,-790C835,-790 652,-790 652,-790 646,-790 640,-784 640,-778 640,-778 640,-766 640,-766 640,-760 646,-754 652,-754 652,-754 835,-754 835,-754 841,-754 847,-760 847,-766 847,-766 847,-778 847,-778 847,-784 841,-790 835,-790"/>
<text text-anchor="middle" x="743.5" y="-769.8" font-family="Courier,monospace" font-size="9.00">IIccArrayFactory::~IIccArrayFactory()</text>
</g>
<!-- Node0x569585a048a0&#45;&gt;Node0x569585a04ec0 -->
<g id="edge15" class="edge">
<title>Node0x569585a048a0&#45;&gt;Node0x569585a04ec0</title>
<path fill="none" stroke="#4a6fa5" d="M582.36,-772C599.52,-772 616.98,-772 633.75,-772"/>
<polygon fill="#4a6fa5" stroke="#4a6fa5" points="633.9,-774.1 639.9,-772 633.9,-769.9 633.9,-774.1"/>
</g>
<!-- Node0x5695859e8a00 -->
<g id="node25" class="node">
<title>Node0x5695859e8a00</title>
<path fill="#f0f4ff" stroke="black" d="M250,-790C250,-790 15,-790 15,-790 9,-790 3,-784 3,-778 3,-778 3,-766 3,-766 3,-760 9,-754 15,-754 15,-754 250,-754 250,-754 256,-754 262,-760 262,-766 262,-766 262,-778 262,-778 262,-784 256,-790 250,-790"/>
<text text-anchor="middle" x="132.5" y="-769.8" font-family="Courier,monospace" font-size="9.00">CIccBasicArrayFactory::~CIccBasicArrayFactory()</text>
</g>
<!-- Node0x5695859e8a00&#45;&gt;Node0x569585a048a0 -->
<g id="edge16" class="edge">
<title>Node0x5695859e8a00&#45;&gt;Node0x569585a048a0</title>
<path fill="none" stroke="#4a6fa5" d="M262.38,-772C280.33,-772 298.8,-772 316.85,-772"/>
<polygon fill="#4a6fa5" stroke="#4a6fa5" points="316.95,-774.1 322.95,-772 316.95,-769.9 316.95,-774.1"/>
</g>
<!-- Node0x5695859ea280 -->
<g id="node26" class="node">
<title>Node0x5695859ea280</title>
<path fill="#f0f4ff" stroke="black" d="M253,-848C253,-848 12,-848 12,-848 6,-848 0,-842 0,-836 0,-836 0,-824 0,-824 0,-818 6,-812 12,-812 12,-812 253,-812 253,-812 259,-812 265,-818 265,-824 265,-824 265,-836 265,-836 265,-842 259,-848 253,-848"/>
<text text-anchor="middle" x="132.5" y="-827.8" font-family="Courier,monospace" font-size="9.00">__detail::_List_node_header::_List_node_header()</text>
</g>
<!-- Node0x5695859ea300 -->
<g id="node27" class="node">
<title>Node0x5695859ea300</title>
<path fill="#f0f4ff" stroke="black" d="M546.5,-848C546.5,-848 358.5,-848 358.5,-848 352.5,-848 346.5,-842 346.5,-836 346.5,-836 346.5,-824 346.5,-824 346.5,-818 352.5,-812 358.5,-812 358.5,-812 546.5,-812 546.5,-812 552.5,-812 558.5,-818 558.5,-824 558.5,-824 558.5,-836 558.5,-836 558.5,-842 552.5,-848 546.5,-848"/>
<text text-anchor="middle" x="452.5" y="-827.8" font-family="Courier,monospace" font-size="9.00">__detail::_List_node_header::_M_init()</text>
</g>
<!-- Node0x5695859ea280&#45;&gt;Node0x5695859ea300 -->
<g id="edge17" class="edge">
<title>Node0x5695859ea280&#45;&gt;Node0x5695859ea300</title>
<path fill="none" stroke="#4a6fa5" d="M265.14,-830C290.03,-830 315.84,-830 340.03,-830"/>
<polygon fill="#4a6fa5" stroke="#4a6fa5" points="340.14,-832.1 346.14,-830 340.14,-827.9 340.14,-832.1"/>
</g>
<!-- Node0x5695859ed660 -->
<g id="node28" class="node">
<title>Node0x5695859ed660</title>
<path fill="#f0f4ff" stroke="black" d="M147.5,-906C147.5,-906 117.5,-906 117.5,-906 111.5,-906 105.5,-900 105.5,-894 105.5,-894 105.5,-882 105.5,-882 105.5,-876 111.5,-870 117.5,-870 117.5,-870 147.5,-870 147.5,-870 153.5,-870 159.5,-876 159.5,-882 159.5,-882 159.5,-894 159.5,-894 159.5,-900 153.5,-906 147.5,-906"/>
<text text-anchor="middle" x="132.5" y="-885.8" font-family="Courier,monospace" font-size="9.00">reset()</text>
</g>
<!-- Node0x5695859ed8e0 -->
<g id="node29" class="node">
<title>Node0x5695859ed8e0</title>
<path fill="#f0f4ff" stroke="black" d="M150.5,-964C150.5,-964 114.5,-964 114.5,-964 108.5,-964 102.5,-958 102.5,-952 102.5,-952 102.5,-940 102.5,-940 102.5,-934 108.5,-928 114.5,-928 114.5,-928 150.5,-928 150.5,-928 156.5,-928 162.5,-934 162.5,-940 162.5,-940 162.5,-952 162.5,-952 162.5,-958 156.5,-964 150.5,-964"/>
<text text-anchor="middle" x="132.5" y="-943.8" font-family="Courier,monospace" font-size="9.00">release()</text>
</g>
<!-- Node0x569585a14660 -->
<g id="node30" class="node">
<title>Node0x569585a14660</title>
<path fill="#f0f4ff" stroke="black" d="M224,-1022C224,-1022 41,-1022 41,-1022 35,-1022 29,-1016 29,-1010 29,-1010 29,-998 29,-998 29,-992 35,-986 41,-986 41,-986 224,-986 224,-986 230,-986 236,-992 236,-998 236,-998 236,-1010 236,-1010 236,-1016 230,-1022 224,-1022"/>
<text text-anchor="middle" x="132.5" y="-1001.8" font-family="Courier,monospace" font-size="9.00">IIccArrayFactory::~IIccArrayFactory()</text>
</g>
<!-- Node0x5695859f5ce0 -->
<g id="node31" class="node">
<title>Node0x5695859f5ce0</title>
<path fill="#f0f4ff" stroke="black" d="M171.5,-1080C171.5,-1080 93.5,-1080 93.5,-1080 87.5,-1080 81.5,-1074 81.5,-1068 81.5,-1068 81.5,-1056 81.5,-1056 81.5,-1050 87.5,-1044 93.5,-1044 93.5,-1044 171.5,-1044 171.5,-1044 177.5,-1044 183.5,-1050 183.5,-1056 183.5,-1056 183.5,-1068 183.5,-1068 183.5,-1074 177.5,-1080 171.5,-1080"/>
<text text-anchor="middle" x="132.5" y="-1059.8" font-family="Courier,monospace" font-size="9.00">__uniq_ptr_impl()</text>
</g>
<!-- Node0x569585a18d20 -->
<g id="node32" class="node">
<title>Node0x569585a18d20</title>
<path fill="#f0f4ff" stroke="black" d="M491.5,-1080C491.5,-1080 413.5,-1080 413.5,-1080 407.5,-1080 401.5,-1074 401.5,-1068 401.5,-1068 401.5,-1056 401.5,-1056 401.5,-1050 407.5,-1044 413.5,-1044 413.5,-1044 491.5,-1044 491.5,-1044 497.5,-1044 503.5,-1050 503.5,-1056 503.5,-1056 503.5,-1068 503.5,-1068 503.5,-1074 497.5,-1080 491.5,-1080"/>
<text text-anchor="middle" x="452.5" y="-1059.8" font-family="Courier,monospace" font-size="9.00">__uniq_ptr_impl()</text>
</g>
<!-- Node0x5695859f5ce0&#45;&gt;Node0x569585a18d20 -->
<g id="edge18" class="edge">
<title>Node0x5695859f5ce0&#45;&gt;Node0x569585a18d20</title>
<path fill="none" stroke="#4a6fa5" d="M183.54,-1062C241.12,-1062 335.43,-1062 395.43,-1062"/>
<polygon fill="#4a6fa5" stroke="#4a6fa5" points="395.49,-1064.1 401.49,-1062 395.49,-1059.9 395.49,-1064.1"/>
</g>
<!-- Node0x569585a0a8b0 -->
<g id="node33" class="node">
<title>Node0x569585a0a8b0</title>
<path fill="#f0f4ff" stroke="black" d="M221.5,-1138C221.5,-1138 43.5,-1138 43.5,-1138 37.5,-1138 31.5,-1132 31.5,-1126 31.5,-1126 31.5,-1114 31.5,-1114 31.5,-1108 37.5,-1102 43.5,-1102 43.5,-1102 221.5,-1102 221.5,-1102 227.5,-1102 233.5,-1108 233.5,-1114 233.5,-1114 233.5,-1126 233.5,-1126 233.5,-1132 227.5,-1138 221.5,-1138"/>
<text text-anchor="middle" x="132.5" y="-1117.8" font-family="Courier,monospace" font-size="9.00">__detail::_List_node_base::_M_hook()</text>
</g>
<!-- Node0x569585a1c3f0 -->
<g id="node34" class="node">
<title>Node0x569585a1c3f0</title>
<path fill="#f0f4ff" stroke="black" d="M171.5,-1196C171.5,-1196 93.5,-1196 93.5,-1196 87.5,-1196 81.5,-1190 81.5,-1184 81.5,-1184 81.5,-1172 81.5,-1172 81.5,-1166 87.5,-1160 93.5,-1160 93.5,-1160 171.5,-1160 171.5,-1160 177.5,-1160 183.5,-1166 183.5,-1172 183.5,-1172 183.5,-1184 183.5,-1184 183.5,-1190 177.5,-1196 171.5,-1196"/>
<text text-anchor="middle" x="132.5" y="-1175.8" font-family="Courier,monospace" font-size="9.00">__allocated_ptr()</text>
</g>
<!-- Node0x569585a1c8e0 -->
<g id="node35" class="node">
<title>Node0x569585a1c8e0</title>
<path fill="#f0f4ff" stroke="black" d="M153,-1254C153,-1254 112,-1254 112,-1254 106,-1254 100,-1248 100,-1242 100,-1242 100,-1230 100,-1230 100,-1224 106,-1218 112,-1218 112,-1218 153,-1218 153,-1218 159,-1218 165,-1224 165,-1230 165,-1230 165,-1242 165,-1242 165,-1248 159,-1254 153,-1254"/>
<text text-anchor="middle" x="132.5" y="-1233.8" font-family="Courier,monospace" font-size="9.00">decltype()</text>
</g>
<!-- Node0x569585a1c780 -->
<g id="node36" class="node">
<title>Node0x569585a1c780</title>
<path fill="#f0f4ff" stroke="black" d="M171.5,-1312C171.5,-1312 93.5,-1312 93.5,-1312 87.5,-1312 81.5,-1306 81.5,-1300 81.5,-1300 81.5,-1288 81.5,-1288 81.5,-1282 87.5,-1276 93.5,-1276 93.5,-1276 171.5,-1276 171.5,-1276 177.5,-1276 183.5,-1282 183.5,-1288 183.5,-1288 183.5,-1300 183.5,-1300 183.5,-1306 177.5,-1312 171.5,-1312"/>
<text text-anchor="middle" x="132.5" y="-1291.8" font-family="Courier,monospace" font-size="9.00">__allocated_ptr()</text>
</g>
<!-- Node0x569585a1d9b0 -->
<g id="node37" class="node">
<title>Node0x569585a1d9b0</title>
<path fill="#f0f4ff" stroke="black" d="M226.5,-1370C226.5,-1370 38.5,-1370 38.5,-1370 32.5,-1370 26.5,-1364 26.5,-1358 26.5,-1358 26.5,-1346 26.5,-1346 26.5,-1340 32.5,-1334 38.5,-1334 38.5,-1334 226.5,-1334 226.5,-1334 232.5,-1334 238.5,-1340 238.5,-1346 238.5,-1346 238.5,-1358 238.5,-1358 238.5,-1364 232.5,-1370 226.5,-1370"/>
<text text-anchor="middle" x="132.5" y="-1349.8" font-family="Courier,monospace" font-size="9.00">__detail::_List_node_base::_M_unhook()</text>
</g>
<!-- Node0x569585a1d8b0 -->
<g id="node38" class="node">
<title>Node0x569585a1d8b0</title>
<path fill="#f0f4ff" stroke="black" d="M216,-1428C216,-1428 49,-1428 49,-1428 43,-1428 37,-1422 37,-1416 37,-1416 37,-1404 37,-1404 37,-1398 43,-1392 49,-1392 49,-1392 216,-1392 216,-1392 222,-1392 228,-1398 228,-1404 228,-1404 228,-1416 228,-1416 228,-1422 222,-1428 216,-1428"/>
<text text-anchor="middle" x="132.5" y="-1407.8" font-family="Courier,monospace" font-size="9.00">_GLOBAL__sub_I_IccArrayFactory.cpp</text>
</g>
</g>
</svg>
