<?xml version="1.0" encoding="UTF-8" standalone="no"?>
<!DOCTYPE svg PUBLIC "-//W3C//DTD SVG 1.1//EN"
 "http://www.w3.org/Graphics/SVG/1.1/DTD/svg11.dtd">
<!-- Generated by graphviz version 2.43.0 (0)
 -->
<!-- Title: Call graph: /home/h02332/po/research/call&#45;graph/iccdev/proflib/IccApplyBPC.ll Pages: 1 -->
<svg width="6264pt" height="579pt"
 viewBox="0.00 0.00 6263.50 579.00" xmlns="http://www.w3.org/2000/svg" xmlns:xlink="http://www.w3.org/1999/xlink">
<g id="graph0" class="graph" transform="scale(1 1) rotate(0) translate(4 575)">
<title>Call graph: /home/h02332/po/research/call&#45;graph/iccdev/proflib/IccApplyBPC.ll</title>
<polygon fill="white" stroke="transparent" points="-4,4 -4,-575 6259.5,-575 6259.5,4 -4,4"/>
<text text-anchor="middle" x="3127.75" y="-7.8" font-family="Times,serif" font-size="14.00">Call graph: /home/h02332/po/research/call&#45;graph/iccdev/proflib/IccApplyBPC.ll</text>
<!-- Node0x5b95d0006130 -->
<g id="node1" class="node">
<title>Node0x5b95d0006130</title>
<polygon fill="none" stroke="black" points="509,-388.5 509,-424.5 930,-424.5 930,-388.5 509,-388.5"/>
<text text-anchor="middle" x="719.5" y="-402.8" font-family="Times,serif" font-size="14.00">_ZNK16CIccApplyBPCHint20GetNewAdjustPCSXformEv</text>
</g>
<!-- Node0x5b95d000b1d0 -->
<g id="node2" class="node">
<title>Node0x5b95d000b1d0</title>
<polygon fill="none" stroke="black" points="642.5,-169.5 642.5,-205.5 710.5,-205.5 710.5,-169.5 642.5,-169.5"/>
<text text-anchor="middle" x="676.5" y="-183.8" font-family="Times,serif" font-size="14.00">_Znwm</text>
</g>
<!-- Node0x5b95d0006130&#45;&gt;Node0x5b95d000b1d0 -->
<g id="edge1" class="edge">
<title>Node0x5b95d0006130&#45;&gt;Node0x5b95d000b1d0</title>
<path fill="none" stroke="black" d="M661.74,-388.45C642.45,-380.21 622.36,-368.43 608.5,-352 586.73,-326.2 592.21,-312.43 587.5,-279 585.2,-262.72 579.4,-256.31 587.5,-242 592.89,-232.47 613.18,-219.95 633.03,-209.42"/>
<polygon fill="black" stroke="black" points="634.8,-212.44 642.07,-204.73 631.58,-206.23 634.8,-212.44"/>
</g>
<!-- Node0x5b95d000bfc0 -->
<g id="node3" class="node">
<title>Node0x5b95d000bfc0</title>
<polygon fill="none" stroke="black" points="2985.5,-315.5 2985.5,-351.5 3143.5,-351.5 3143.5,-315.5 2985.5,-315.5"/>
<text text-anchor="middle" x="3064.5" y="-329.8" font-family="Times,serif" font-size="14.00">llvm.memset.p0.i64</text>
</g>
<!-- Node0x5b95d0006130&#45;&gt;Node0x5b95d000bfc0 -->
<g id="edge2" class="edge">
<title>Node0x5b95d0006130&#45;&gt;Node0x5b95d000bfc0</title>
<path fill="none" stroke="black" d="M930.18,-399.12C1423.29,-384.19 2636.33,-347.46 2975.25,-337.2"/>
<polygon fill="black" stroke="black" points="2975.38,-340.7 2985.26,-336.9 2975.16,-333.7 2975.38,-340.7"/>
</g>
<!-- Node0x5b95d000e720 -->
<g id="node4" class="node">
<title>Node0x5b95d000e720</title>
<polygon fill="none" stroke="black" points="618,-315.5 618,-351.5 821,-351.5 821,-315.5 618,-315.5"/>
<text text-anchor="middle" x="719.5" y="-329.8" font-family="Times,serif" font-size="14.00">_ZN12CIccApplyBPCC2Ev</text>
</g>
<!-- Node0x5b95d0006130&#45;&gt;Node0x5b95d000e720 -->
<g id="edge3" class="edge">
<title>Node0x5b95d0006130&#45;&gt;Node0x5b95d000e720</title>
<path fill="none" stroke="black" d="M719.5,-388.31C719.5,-380.29 719.5,-370.55 719.5,-361.57"/>
<polygon fill="black" stroke="black" points="723,-361.53 719.5,-351.53 716,-361.53 723,-361.53"/>
</g>
<!-- Node0x5b95d0011bc0 -->
<g id="node5" class="node">
<title>Node0x5b95d0011bc0</title>
<polygon fill="none" stroke="black" points="596.5,-242.5 596.5,-278.5 842.5,-278.5 842.5,-242.5 596.5,-242.5"/>
<text text-anchor="middle" x="719.5" y="-256.8" font-family="Times,serif" font-size="14.00">_ZN18IIccAdjustPCSXformC2Ev</text>
</g>
<!-- Node0x5b95d000e720&#45;&gt;Node0x5b95d0011bc0 -->
<g id="edge4" class="edge">
<title>Node0x5b95d000e720&#45;&gt;Node0x5b95d0011bc0</title>
<path fill="none" stroke="black" d="M719.5,-315.31C719.5,-307.29 719.5,-297.55 719.5,-288.57"/>
<polygon fill="black" stroke="black" points="723,-288.53 719.5,-278.53 716,-288.53 723,-288.53"/>
</g>
<!-- Node0x5b95cff36600 -->
<g id="node6" class="node">
<title>Node0x5b95cff36600</title>
<polygon fill="none" stroke="black" points="2978.5,-242.5 2978.5,-278.5 3358.5,-278.5 3358.5,-242.5 2978.5,-242.5"/>
<text text-anchor="middle" x="3168.5" y="-256.8" font-family="Times,serif" font-size="14.00">_ZNK12CIccApplyBPC7lab2pcsEPfPK11CIccProfile</text>
</g>
<!-- Node0x5b95cff1e800 -->
<g id="node7" class="node">
<title>Node0x5b95cff1e800</title>
<polygon fill="none" stroke="black" points="3387.5,-169.5 3387.5,-205.5 3533.5,-205.5 3533.5,-169.5 3387.5,-169.5"/>
<text text-anchor="middle" x="3460.5" y="-183.8" font-family="Times,serif" font-size="14.00">_Z10icLabToPcsPf</text>
</g>
<!-- Node0x5b95cff36600&#45;&gt;Node0x5b95cff1e800 -->
<g id="edge5" class="edge">
<title>Node0x5b95cff36600&#45;&gt;Node0x5b95cff1e800</title>
<path fill="none" stroke="black" d="M3238.44,-242.49C3281.19,-232.1 3336,-218.77 3380.47,-207.96"/>
<polygon fill="black" stroke="black" points="3381.48,-211.32 3390.37,-205.55 3379.83,-204.51 3381.48,-211.32"/>
</g>
<!-- Node0x5b95cff194a0 -->
<g id="node8" class="node">
<title>Node0x5b95cff194a0</title>
<polygon fill="none" stroke="black" points="3679.5,-169.5 3679.5,-205.5 3877.5,-205.5 3877.5,-169.5 3679.5,-169.5"/>
<text text-anchor="middle" x="3778.5" y="-183.8" font-family="Times,serif" font-size="14.00">_Z10icLabtoXYZPfPKfS1_</text>
</g>
<!-- Node0x5b95cff36600&#45;&gt;Node0x5b95cff194a0 -->
<g id="edge6" class="edge">
<title>Node0x5b95cff36600&#45;&gt;Node0x5b95cff194a0</title>
<path fill="none" stroke="black" d="M3314.61,-242.49C3423.65,-229.8 3570.29,-212.73 3669.28,-201.21"/>
<polygon fill="black" stroke="black" points="3669.78,-204.68 3679.31,-200.05 3668.97,-197.73 3669.78,-204.68"/>
</g>
<!-- Node0x5b95d00173b0 -->
<g id="node9" class="node">
<title>Node0x5b95d00173b0</title>
<polygon fill="none" stroke="black" points="3224,-169.5 3224,-205.5 3369,-205.5 3369,-169.5 3224,-169.5"/>
<text text-anchor="middle" x="3296.5" y="-183.8" font-family="Times,serif" font-size="14.00">_Z10icXyzToPcsPf</text>
</g>
<!-- Node0x5b95cff36600&#45;&gt;Node0x5b95d00173b0 -->
<g id="edge7" class="edge">
<title>Node0x5b95cff36600&#45;&gt;Node0x5b95d00173b0</title>
<path fill="none" stroke="black" d="M3199.16,-242.49C3216.45,-232.9 3238.24,-220.82 3256.82,-210.51"/>
<polygon fill="black" stroke="black" points="3258.6,-213.52 3265.65,-205.61 3255.2,-207.4 3258.6,-213.52"/>
</g>
<!-- Node0x5b95d0021660 -->
<g id="node10" class="node">
<title>Node0x5b95d0021660</title>
<polygon fill="none" stroke="black" points="3844.5,-242.5 3844.5,-278.5 4224.5,-278.5 4224.5,-242.5 3844.5,-242.5"/>
<text text-anchor="middle" x="4034.5" y="-256.8" font-family="Times,serif" font-size="14.00">_ZNK12CIccApplyBPC7pcs2labEPfPK11CIccProfile</text>
</g>
<!-- Node0x5b95d0020d40 -->
<g id="node11" class="node">
<title>Node0x5b95d0020d40</title>
<polygon fill="none" stroke="black" points="3923,-169.5 3923,-205.5 4090,-205.5 4090,-169.5 3923,-169.5"/>
<text text-anchor="middle" x="4006.5" y="-183.8" font-family="Times,serif" font-size="14.00">_Z12icLabFromPcsPf</text>
</g>
<!-- Node0x5b95d0021660&#45;&gt;Node0x5b95d0020d40 -->
<g id="edge8" class="edge">
<title>Node0x5b95d0021660&#45;&gt;Node0x5b95d0020d40</title>
<path fill="none" stroke="black" d="M4027.72,-242.31C4024.49,-234.12 4020.55,-224.12 4016.94,-214.98"/>
<polygon fill="black" stroke="black" points="4020.14,-213.55 4013.22,-205.53 4013.63,-216.12 4020.14,-213.55"/>
</g>
<!-- Node0x5b95d001ef00 -->
<g id="node12" class="node">
<title>Node0x5b95d001ef00</title>
<polygon fill="none" stroke="black" points="4108,-169.5 4108,-205.5 4275,-205.5 4275,-169.5 4108,-169.5"/>
<text text-anchor="middle" x="4191.5" y="-183.8" font-family="Times,serif" font-size="14.00">_Z12icXyzFromPcsPf</text>
</g>
<!-- Node0x5b95d0021660&#45;&gt;Node0x5b95d001ef00 -->
<g id="edge9" class="edge">
<title>Node0x5b95d0021660&#45;&gt;Node0x5b95d001ef00</title>
<path fill="none" stroke="black" d="M4072.11,-242.49C4093.79,-232.69 4121.26,-220.27 4144.38,-209.81"/>
<polygon fill="black" stroke="black" points="4145.99,-212.92 4153.66,-205.61 4143.1,-206.55 4145.99,-212.92"/>
</g>
<!-- Node0x5b95cff11280 -->
<g id="node13" class="node">
<title>Node0x5b95cff11280</title>
<polygon fill="none" stroke="black" points="4472.5,-169.5 4472.5,-205.5 4670.5,-205.5 4670.5,-169.5 4472.5,-169.5"/>
<text text-anchor="middle" x="4571.5" y="-183.8" font-family="Times,serif" font-size="14.00">_Z10icXYZtoLabPfPKfS1_</text>
</g>
<!-- Node0x5b95d0021660&#45;&gt;Node0x5b95cff11280 -->
<g id="edge10" class="edge">
<title>Node0x5b95d0021660&#45;&gt;Node0x5b95cff11280</title>
<path fill="none" stroke="black" d="M4163.12,-242.49C4254.46,-230.42 4375.75,-214.38 4462.36,-202.93"/>
<polygon fill="black" stroke="black" points="4463.03,-206.37 4472.48,-201.59 4462.11,-199.43 4463.03,-206.37"/>
</g>
<!-- Node0x5b95d0022930 -->
<g id="node14" class="node">
<title>Node0x5b95d0022930</title>
<polygon fill="none" stroke="black" points="5062,-242.5 5062,-278.5 5369,-278.5 5369,-242.5 5062,-242.5"/>
<text text-anchor="middle" x="5215.5" y="-256.8" font-family="Times,serif" font-size="14.00">_ZNK12CIccApplyBPC7calcsumEPfS0_iii</text>
</g>
<!-- Node0x5b95d00226f0 -->
<g id="node15" class="node">
<title>Node0x5b95d00226f0</title>
<polygon fill="none" stroke="black" points="5188.5,-169.5 5188.5,-205.5 5242.5,-205.5 5242.5,-169.5 5188.5,-169.5"/>
<text text-anchor="middle" x="5215.5" y="-183.8" font-family="Times,serif" font-size="14.00">pow</text>
</g>
<!-- Node0x5b95d0022930&#45;&gt;Node0x5b95d00226f0 -->
<g id="edge11" class="edge">
<title>Node0x5b95d0022930&#45;&gt;Node0x5b95d00226f0</title>
<path fill="none" stroke="black" d="M5215.5,-242.31C5215.5,-234.29 5215.5,-224.55 5215.5,-215.57"/>
<polygon fill="black" stroke="black" points="5219,-215.53 5215.5,-205.53 5212,-215.53 5219,-215.53"/>
</g>
<!-- Node0x5b95d0021da0 -->
<g id="node16" class="node">
<title>Node0x5b95d0021da0</title>
<polygon fill="none" stroke="black" points="4955.5,-315.5 4955.5,-351.5 5349.5,-351.5 5349.5,-315.5 4955.5,-315.5"/>
<text text-anchor="middle" x="5152.5" y="-329.8" font-family="Times,serif" font-size="14.00">_ZNK12CIccApplyBPC19calcQuadraticVertexEPfS0_i</text>
</g>
<!-- Node0x5b95d0021da0&#45;&gt;Node0x5b95d0022930 -->
<g id="edge12" class="edge">
<title>Node0x5b95d0021da0&#45;&gt;Node0x5b95d0022930</title>
<path fill="none" stroke="black" d="M5167.75,-315.31C5175.49,-306.59 5185.03,-295.84 5193.54,-286.25"/>
<polygon fill="black" stroke="black" points="5196.37,-288.33 5200.39,-278.53 5191.13,-283.69 5196.37,-288.33"/>
</g>
<!-- Node0x5b95d00232f0 -->
<g id="node17" class="node">
<title>Node0x5b95d00232f0</title>
<polygon fill="none" stroke="black" points="4906.5,-242.5 4906.5,-278.5 5044.5,-278.5 5044.5,-242.5 4906.5,-242.5"/>
<text text-anchor="middle" x="4975.5" y="-256.8" font-family="Times,serif" font-size="14.00">llvm.fmuladd.f64</text>
</g>
<!-- Node0x5b95d0021da0&#45;&gt;Node0x5b95d00232f0 -->
<g id="edge13" class="edge">
<title>Node0x5b95d0021da0&#45;&gt;Node0x5b95d00232f0</title>
<path fill="none" stroke="black" d="M5110.1,-315.49C5085.33,-305.56 5053.86,-292.93 5027.59,-282.39"/>
<polygon fill="black" stroke="black" points="5028.75,-279.09 5018.16,-278.61 5026.14,-285.58 5028.75,-279.09"/>
</g>
<!-- Node0x5b95d0022df0 -->
<g id="node18" class="node">
<title>Node0x5b95d0022df0</title>
<polygon fill="none" stroke="black" points="5386.5,-242.5 5386.5,-278.5 5440.5,-278.5 5440.5,-242.5 5386.5,-242.5"/>
<text text-anchor="middle" x="5413.5" y="-256.8" font-family="Times,serif" font-size="14.00">sqrt</text>
</g>
<!-- Node0x5b95d0021da0&#45;&gt;Node0x5b95d0022df0 -->
<g id="edge14" class="edge">
<title>Node0x5b95d0021da0&#45;&gt;Node0x5b95d0022df0</title>
<path fill="none" stroke="black" d="M5245.73,-315.5C5284.47,-307.23 5329.79,-295.98 5376.82,-279.29"/>
<polygon fill="black" stroke="black" points="5378.04,-282.57 5386.25,-275.87 5375.66,-275.99 5378.04,-282.57"/>
</g>
<!-- Node0x5b95d00218f0 -->
<g id="node19" class="node">
<title>Node0x5b95d00218f0</title>
<polygon fill="none" stroke="black" points="5458.5,-242.5 5458.5,-278.5 5596.5,-278.5 5596.5,-242.5 5458.5,-242.5"/>
<text text-anchor="middle" x="5527.5" y="-256.8" font-family="Times,serif" font-size="14.00">llvm.fmuladd.f32</text>
</g>
<!-- Node0x5b95d0021da0&#45;&gt;Node0x5b95d00218f0 -->
<g id="edge15" class="edge">
<title>Node0x5b95d0021da0&#45;&gt;Node0x5b95d00218f0</title>
<path fill="none" stroke="black" d="M5253.06,-315.48C5308.09,-305.9 5377.7,-293.37 5448.25,-279.21"/>
<polygon fill="black" stroke="black" points="5449.1,-282.61 5458.21,-277.21 5447.72,-275.75 5449.1,-282.61"/>
</g>
<!-- Node0x5b95d0023070 -->
<g id="node20" class="node">
<title>Node0x5b95d0023070</title>
<polygon fill="none" stroke="black" points="4778.5,-242.5 4778.5,-278.5 4888.5,-278.5 4888.5,-242.5 4778.5,-242.5"/>
<text text-anchor="middle" x="4833.5" y="-256.8" font-family="Times,serif" font-size="14.00">llvm.fabs.f64</text>
</g>
<!-- Node0x5b95d0021da0&#45;&gt;Node0x5b95d0023070 -->
<g id="edge16" class="edge">
<title>Node0x5b95d0021da0&#45;&gt;Node0x5b95d0023070</title>
<path fill="none" stroke="black" d="M5064.87,-315.47C5018.05,-306.05 4959.23,-293.7 4898.39,-279.15"/>
<polygon fill="black" stroke="black" points="4899.15,-275.73 4888.6,-276.79 4897.51,-282.54 4899.15,-275.73"/>
</g>
<!-- Node0x5b95d0022b70 -->
<g id="node21" class="node">
<title>Node0x5b95d0022b70</title>
<polygon fill="none" stroke="black" points="3261.5,-534.5 3261.5,-570.5 3809.5,-570.5 3809.5,-534.5 3261.5,-534.5"/>
<text text-anchor="middle" x="3535.5" y="-548.8" font-family="Times,serif" font-size="14.00">_ZNK12CIccApplyBPC11CalcFactorsEPK11CIccProfilePK9CIccXformPfS6_</text>
</g>
<!-- Node0x5b95d0022b70&#45;&gt;Node0x5b95d00173b0 -->
<g id="edge20" class="edge">
<title>Node0x5b95d0022b70&#45;&gt;Node0x5b95d00173b0</title>
<path fill="none" stroke="black" d="M3281.89,-534.45C3123.9,-516.59 2950.5,-480.39 2950.5,-407.5 2950.5,-407.5 2950.5,-407.5 2950.5,-332.5 2950.5,-291.4 2939.57,-270.16 2969.5,-242 3007.55,-206.21 3145.31,-214.71 3213.37,-205.87"/>
<polygon fill="black" stroke="black" points="3214.32,-209.27 3223.67,-204.3 3213.26,-202.35 3214.32,-209.27"/>
</g>
<!-- Node0x5b95d0024f20 -->
<g id="node22" class="node">
<title>Node0x5b95d0024f20</title>
<polygon fill="none" stroke="black" points="4486.5,-242.5 4486.5,-278.5 4722.5,-278.5 4722.5,-242.5 4486.5,-242.5"/>
<text text-anchor="middle" x="4604.5" y="-256.8" font-family="Times,serif" font-size="14.00">_ZNK9CIccXform9GetIntentEv</text>
</g>
<!-- Node0x5b95d0022b70&#45;&gt;Node0x5b95d0024f20 -->
<g id="edge17" class="edge">
<title>Node0x5b95d0022b70&#45;&gt;Node0x5b95d0024f20</title>
<path fill="none" stroke="black" d="M3762.03,-534.47C3922.68,-517.8 4141.67,-485.66 4326.5,-425 4399.62,-401 4417.45,-391.48 4483.5,-352 4517.14,-331.9 4552.72,-304.44 4576.52,-285.05"/>
<polygon fill="black" stroke="black" points="4578.92,-287.61 4584.43,-278.56 4574.48,-282.2 4578.92,-287.61"/>
</g>
<!-- Node0x5b95d0024800 -->
<g id="node23" class="node">
<title>Node0x5b95d0024800</title>
<polygon fill="none" stroke="black" points="3413.5,-461.5 3413.5,-497.5 3955.5,-497.5 3955.5,-461.5 3413.5,-461.5"/>
<text text-anchor="middle" x="3684.5" y="-475.8" font-family="Times,serif" font-size="14.00">_ZNK12CIccApplyBPC14calcBlackPointEPK11CIccProfilePK9CIccXformPf</text>
</g>
<!-- Node0x5b95d0022b70&#45;&gt;Node0x5b95d0024800 -->
<g id="edge18" class="edge">
<title>Node0x5b95d0022b70&#45;&gt;Node0x5b95d0024800</title>
<path fill="none" stroke="black" d="M3571.19,-534.49C3591.68,-524.73 3617.6,-512.38 3639.48,-501.95"/>
<polygon fill="black" stroke="black" points="3641.06,-505.07 3648.59,-497.61 3638.05,-498.76 3641.06,-505.07"/>
</g>
<!-- Node0x5b95d0024440 -->
<g id="node24" class="node">
<title>Node0x5b95d0024440</title>
<polygon fill="none" stroke="black" points="3316.5,-388.5 3316.5,-424.5 3534.5,-424.5 3534.5,-388.5 3316.5,-388.5"/>
<text text-anchor="middle" x="3425.5" y="-402.8" font-family="Times,serif" font-size="14.00">_ZNK9CIccXform7IsInputEv</text>
</g>
<!-- Node0x5b95d0022b70&#45;&gt;Node0x5b95d0024440 -->
<g id="edge19" class="edge">
<title>Node0x5b95d0022b70&#45;&gt;Node0x5b95d0024440</title>
<path fill="none" stroke="black" d="M3452.46,-534.41C3433.64,-526.5 3415.87,-514.93 3404.5,-498 3391.59,-478.79 3399.76,-452.67 3409.42,-433.43"/>
<polygon fill="black" stroke="black" points="3412.52,-435.06 3414.2,-424.6 3406.37,-431.73 3412.52,-435.06"/>
</g>
<!-- Node0x5b95d0024800&#45;&gt;Node0x5b95d0024440 -->
<g id="edge21" class="edge">
<title>Node0x5b95d0024800&#45;&gt;Node0x5b95d0024440</title>
<path fill="none" stroke="black" d="M3622.46,-461.49C3584.94,-451.21 3536.93,-438.05 3497.7,-427.29"/>
<polygon fill="black" stroke="black" points="3498.5,-423.88 3487.93,-424.61 3496.65,-430.63 3498.5,-423.88"/>
</g>
<!-- Node0x5b95d0023f40 -->
<g id="node25" class="node">
<title>Node0x5b95d0023f40</title>
<polygon fill="none" stroke="black" points="3280.5,-315.5 3280.5,-351.5 3846.5,-351.5 3846.5,-315.5 3280.5,-315.5"/>
<text text-anchor="middle" x="3563.5" y="-329.8" font-family="Times,serif" font-size="14.00">_ZNK12CIccApplyBPC17calcSrcBlackPointEPK11CIccProfilePK9CIccXformPf</text>
</g>
<!-- Node0x5b95d0024800&#45;&gt;Node0x5b95d0023f40 -->
<g id="edge22" class="edge">
<title>Node0x5b95d0024800&#45;&gt;Node0x5b95d0023f40</title>
<path fill="none" stroke="black" d="M3670.14,-461.42C3648.86,-436.08 3608.81,-388.42 3584.31,-359.26"/>
<polygon fill="black" stroke="black" points="3586.95,-356.97 3577.84,-351.56 3581.59,-361.47 3586.95,-356.97"/>
</g>
<!-- Node0x5b95d0023b80 -->
<g id="node26" class="node">
<title>Node0x5b95d0023b80</title>
<polygon fill="none" stroke="black" points="3751.5,-388.5 3751.5,-424.5 4317.5,-424.5 4317.5,-388.5 3751.5,-388.5"/>
<text text-anchor="middle" x="4034.5" y="-402.8" font-family="Times,serif" font-size="14.00">_ZNK12CIccApplyBPC17calcDstBlackPointEPK11CIccProfilePK9CIccXformPf</text>
</g>
<!-- Node0x5b95d0024800&#45;&gt;Node0x5b95d0023b80 -->
<g id="edge23" class="edge">
<title>Node0x5b95d0024800&#45;&gt;Node0x5b95d0023b80</title>
<path fill="none" stroke="black" d="M3768.33,-461.49C3820.21,-450.97 3886.92,-437.44 3940.58,-426.55"/>
<polygon fill="black" stroke="black" points="3941.34,-429.97 3950.44,-424.55 3939.94,-423.11 3941.34,-429.97"/>
</g>
<!-- Node0x5b95d0023f40&#45;&gt;Node0x5b95cff36600 -->
<g id="edge24" class="edge">
<title>Node0x5b95d0023f40&#45;&gt;Node0x5b95cff36600</title>
<path fill="none" stroke="black" d="M3468.89,-315.49C3409.97,-304.9 3334.11,-291.27 3273.37,-280.35"/>
<polygon fill="black" stroke="black" points="3273.83,-276.88 3263.37,-278.55 3272.59,-283.77 3273.83,-276.88"/>
</g>
<!-- Node0x5b95d0023f40&#45;&gt;Node0x5b95cff194a0 -->
<g id="edge28" class="edge">
<title>Node0x5b95d0023f40&#45;&gt;Node0x5b95cff194a0</title>
<path fill="none" stroke="black" d="M3701.75,-315.46C3723.4,-307.35 3743.78,-295.69 3759.5,-279 3775.36,-262.16 3779.39,-235.6 3779.88,-215.61"/>
<polygon fill="black" stroke="black" points="3783.38,-215.54 3779.84,-205.55 3776.38,-215.56 3783.38,-215.54"/>
</g>
<!-- Node0x5b95d0023f40&#45;&gt;Node0x5b95d0021660 -->
<g id="edge29" class="edge">
<title>Node0x5b95d0023f40&#45;&gt;Node0x5b95d0021660</title>
<path fill="none" stroke="black" d="M3676.32,-315.49C3747.15,-304.82 3838.52,-291.04 3911.25,-280.08"/>
<polygon fill="black" stroke="black" points="3912.01,-283.5 3921.38,-278.55 3910.97,-276.58 3912.01,-283.5"/>
</g>
<!-- Node0x5b95d0023f40&#45;&gt;Node0x5b95d0024f20 -->
<g id="edge27" class="edge">
<title>Node0x5b95d0023f40&#45;&gt;Node0x5b95d0024f20</title>
<path fill="none" stroke="black" d="M3846.75,-321.66C4024.76,-313.45 4259.38,-300.08 4476.25,-279.08"/>
<polygon fill="black" stroke="black" points="4476.62,-282.56 4486.23,-278.11 4475.94,-275.59 4476.62,-282.56"/>
</g>
<!-- Node0x5b95d00261e0 -->
<g id="node27" class="node">
<title>Node0x5b95d00261e0</title>
<polygon fill="none" stroke="black" points="1582,-242.5 1582,-278.5 2325,-278.5 2325,-242.5 1582,-242.5"/>
<text text-anchor="middle" x="1953.5" y="-256.8" font-family="Times,serif" font-size="14.00">_ZNK12CIccApplyBPC8pixelXfmEPfS0_21icColorSpaceSignature17icRenderingIntentPK11CIccProfile</text>
</g>
<!-- Node0x5b95d0023f40&#45;&gt;Node0x5b95d00261e0 -->
<g id="edge25" class="edge">
<title>Node0x5b95d0023f40&#45;&gt;Node0x5b95d00261e0</title>
<path fill="none" stroke="black" d="M3280.28,-318.28C3256.68,-317.15 3233.18,-316.04 3210.5,-315 2916.87,-301.47 2584.6,-287.38 2335.45,-277.06"/>
<polygon fill="black" stroke="black" points="2335.27,-273.55 2325.14,-276.63 2334.98,-280.55 2335.27,-273.55"/>
</g>
<!-- Node0x5b95d0025f60 -->
<g id="node28" class="node">
<title>Node0x5b95d0025f60</title>
<polygon fill="none" stroke="black" points="3376.5,-242.5 3376.5,-278.5 3750.5,-278.5 3750.5,-242.5 3376.5,-242.5"/>
<text text-anchor="middle" x="3563.5" y="-256.8" font-family="Times,serif" font-size="14.00">_Z17icGetSpaceSamples21icColorSpaceSignature</text>
</g>
<!-- Node0x5b95d0023f40&#45;&gt;Node0x5b95d0025f60 -->
<g id="edge26" class="edge">
<title>Node0x5b95d0023f40&#45;&gt;Node0x5b95d0025f60</title>
<path fill="none" stroke="black" d="M3563.5,-315.31C3563.5,-307.29 3563.5,-297.55 3563.5,-288.57"/>
<polygon fill="black" stroke="black" points="3567,-288.53 3563.5,-278.53 3560,-288.53 3567,-288.53"/>
</g>
<!-- Node0x5b95d0023b80&#45;&gt;Node0x5b95d000bfc0 -->
<g id="edge34" class="edge">
<title>Node0x5b95d0023b80&#45;&gt;Node0x5b95d000bfc0</title>
<path fill="none" stroke="black" d="M3751.45,-393.73C3585.41,-385.33 3371.71,-371.94 3182.5,-352 3173.18,-351.02 3163.46,-349.84 3153.78,-348.55"/>
<polygon fill="black" stroke="black" points="3154.1,-345.07 3143.72,-347.19 3153.16,-352 3154.1,-345.07"/>
</g>
<!-- Node0x5b95d0023b80&#45;&gt;Node0x5b95cff36600 -->
<g id="edge35" class="edge">
<title>Node0x5b95d0023b80&#45;&gt;Node0x5b95cff36600</title>
<path fill="none" stroke="black" d="M3751.29,-394.4C3552.95,-385.13 3315.75,-370.47 3271.5,-352 3237.8,-337.93 3207.51,-308.23 3188.63,-286.68"/>
<polygon fill="black" stroke="black" points="3191.13,-284.21 3181.98,-278.87 3185.8,-288.75 3191.13,-284.21"/>
</g>
<!-- Node0x5b95d0023b80&#45;&gt;Node0x5b95cff194a0 -->
<g id="edge38" class="edge">
<title>Node0x5b95d0023b80&#45;&gt;Node0x5b95cff194a0</title>
<path fill="none" stroke="black" d="M3997.71,-388.4C3954.99,-367.22 3884.17,-327.88 3835.5,-279 3816.78,-260.2 3801.2,-234.2 3791.09,-214.89"/>
<polygon fill="black" stroke="black" points="3794.09,-213.07 3786.44,-205.74 3787.85,-216.24 3794.09,-213.07"/>
</g>
<!-- Node0x5b95d0023b80&#45;&gt;Node0x5b95d0021660 -->
<g id="edge37" class="edge">
<title>Node0x5b95d0023b80&#45;&gt;Node0x5b95d0021660</title>
<path fill="none" stroke="black" d="M4034.5,-388.42C4034.5,-363.84 4034.5,-318.25 4034.5,-288.93"/>
<polygon fill="black" stroke="black" points="4038,-288.56 4034.5,-278.56 4031,-288.56 4038,-288.56"/>
</g>
<!-- Node0x5b95d0023b80&#45;&gt;Node0x5b95cff11280 -->
<g id="edge42" class="edge">
<title>Node0x5b95d0023b80&#45;&gt;Node0x5b95cff11280</title>
<path fill="none" stroke="black" d="M4317.82,-392.27C4488.18,-377.42 4681.45,-345.9 4731.5,-279 4756.45,-245.65 4714.38,-222.78 4667.13,-208.38"/>
<polygon fill="black" stroke="black" points="4667.9,-204.95 4657.32,-205.52 4665.94,-211.68 4667.9,-204.95"/>
</g>
<!-- Node0x5b95d0023b80&#45;&gt;Node0x5b95d0021da0 -->
<g id="edge39" class="edge">
<title>Node0x5b95d0023b80&#45;&gt;Node0x5b95d0021da0</title>
<path fill="none" stroke="black" d="M4302.29,-388.49C4499.47,-375.97 4763.71,-359.19 4944.98,-347.68"/>
<polygon fill="black" stroke="black" points="4945.41,-351.16 4955.17,-347.03 4944.97,-344.17 4945.41,-351.16"/>
</g>
<!-- Node0x5b95d0023b80&#45;&gt;Node0x5b95d00232f0 -->
<g id="edge41" class="edge">
<title>Node0x5b95d0023b80&#45;&gt;Node0x5b95d00232f0</title>
<path fill="none" stroke="black" d="M4317.54,-397.37C4496.32,-389.97 4709.6,-376.34 4797.5,-352 4850.71,-337.26 4906.61,-305.83 4941.25,-284.19"/>
<polygon fill="black" stroke="black" points="4943.44,-286.94 4950.02,-278.64 4939.7,-281.03 4943.44,-286.94"/>
</g>
<!-- Node0x5b95d0023b80&#45;&gt;Node0x5b95d0023070 -->
<g id="edge40" class="edge">
<title>Node0x5b95d0023b80&#45;&gt;Node0x5b95d0023070</title>
<path fill="none" stroke="black" d="M4317.75,-395.83C4505.73,-387.52 4724.93,-373.42 4764.5,-352 4790.68,-337.82 4809.95,-308.98 4821.37,-287.64"/>
<polygon fill="black" stroke="black" points="4824.49,-289.24 4825.92,-278.74 4818.25,-286.05 4824.49,-289.24"/>
</g>
<!-- Node0x5b95d0023b80&#45;&gt;Node0x5b95d0024f20 -->
<g id="edge31" class="edge">
<title>Node0x5b95d0023b80&#45;&gt;Node0x5b95d0024f20</title>
<path fill="none" stroke="black" d="M4255.31,-388.49C4311.93,-380.58 4372.17,-368.99 4426.5,-352 4478.74,-335.67 4534.25,-305.06 4569.13,-283.99"/>
<polygon fill="black" stroke="black" points="4571.26,-286.79 4577.97,-278.59 4567.61,-280.82 4571.26,-286.79"/>
</g>
<!-- Node0x5b95d0023b80&#45;&gt;Node0x5b95d0023f40 -->
<g id="edge36" class="edge">
<title>Node0x5b95d0023b80&#45;&gt;Node0x5b95d0023f40</title>
<path fill="none" stroke="black" d="M3921.68,-388.49C3850.85,-377.82 3759.48,-364.04 3686.75,-353.08"/>
<polygon fill="black" stroke="black" points="3687.03,-349.58 3676.62,-351.55 3685.99,-356.5 3687.03,-349.58"/>
</g>
<!-- Node0x5b95d0025ce0 -->
<g id="node31" class="node">
<title>Node0x5b95d0025ce0</title>
<polygon fill="none" stroke="black" points="4139.5,-315.5 4139.5,-351.5 4417.5,-351.5 4417.5,-315.5 4139.5,-315.5"/>
<text text-anchor="middle" x="4278.5" y="-329.8" font-family="Times,serif" font-size="14.00">_ZNK11CIccProfile12IsTagPresentEj</text>
</g>
<!-- Node0x5b95d0023b80&#45;&gt;Node0x5b95d0025ce0 -->
<g id="edge32" class="edge">
<title>Node0x5b95d0023b80&#45;&gt;Node0x5b95d0025ce0</title>
<path fill="none" stroke="black" d="M4092.94,-388.49C4128.15,-378.25 4173.14,-365.16 4210.01,-354.43"/>
<polygon fill="black" stroke="black" points="4211.06,-357.77 4219.69,-351.61 4209.11,-351.05 4211.06,-357.77"/>
</g>
<!-- Node0x5b95d0025a60 -->
<g id="node32" class="node">
<title>Node0x5b95d0025a60</title>
<polygon fill="none" stroke="black" points="860.5,-242.5 860.5,-278.5 1418.5,-278.5 1418.5,-242.5 860.5,-242.5"/>
<text text-anchor="middle" x="1139.5" y="-256.8" font-family="Times,serif" font-size="14.00">_ZNK12CIccApplyBPC11getBlackXfmE17icRenderingIntentPK11CIccProfile</text>
</g>
<!-- Node0x5b95d0023b80&#45;&gt;Node0x5b95d0025a60 -->
<g id="edge33" class="edge">
<title>Node0x5b95d0023b80&#45;&gt;Node0x5b95d0025a60</title>
<path fill="none" stroke="black" d="M3751.46,-393.44C3535.36,-383.16 3266.24,-367.59 3215.5,-352 3184.46,-342.46 3183.73,-323.88 3152.5,-315 2983.59,-266.99 1748.01,-284.55 1572.5,-279 1526.08,-277.53 1476.86,-275.76 1428.91,-273.9"/>
<polygon fill="black" stroke="black" points="1428.82,-270.4 1418.69,-273.51 1428.55,-277.39 1428.82,-270.4"/>
</g>
<!-- Node0x5b95d00261e0&#45;&gt;Node0x5b95d000b1d0 -->
<g id="edge44" class="edge">
<title>Node0x5b95d00261e0&#45;&gt;Node0x5b95d000b1d0</title>
<path fill="none" stroke="black" d="M1581.95,-246.48C1250.71,-234.41 806.39,-216.93 721,-205.38"/>
<polygon fill="black" stroke="black" points="721.35,-201.89 710.91,-203.69 720.19,-208.8 721.35,-201.89"/>
</g>
<!-- Node0x5b95d0025560 -->
<g id="node33" class="node">
<title>Node0x5b95d0025560</title>
<polygon fill="none" stroke="black" points="954.5,-169.5 954.5,-205.5 1322.5,-205.5 1322.5,-169.5 954.5,-169.5"/>
<text text-anchor="middle" x="1138.5" y="-183.8" font-family="Times,serif" font-size="14.00">_ZN7CIccCmmC1E21icColorSpaceSignatureS0_b</text>
</g>
<!-- Node0x5b95d00261e0&#45;&gt;Node0x5b95d0025560 -->
<g id="edge43" class="edge">
<title>Node0x5b95d00261e0&#45;&gt;Node0x5b95d0025560</title>
<path fill="none" stroke="black" d="M1752.84,-242.48C1633.71,-232.31 1479.37,-219.05 1332.73,-206.11"/>
<polygon fill="black" stroke="black" points="1332.9,-202.61 1322.63,-205.22 1332.29,-209.58 1332.9,-202.61"/>
</g>
<!-- Node0x5b95d0026520 -->
<g id="node34" class="node">
<title>Node0x5b95d0026520</title>
<polygon fill="none" stroke="black" points="728.5,-169.5 728.5,-205.5 936.5,-205.5 936.5,-169.5 728.5,-169.5"/>
<text text-anchor="middle" x="832.5" y="-183.8" font-family="Times,serif" font-size="14.00">_ZN11CIccProfileC1ERKS_</text>
</g>
<!-- Node0x5b95d00261e0&#45;&gt;Node0x5b95d0026520 -->
<g id="edge45" class="edge">
<title>Node0x5b95d00261e0&#45;&gt;Node0x5b95d0026520</title>
<path fill="none" stroke="black" d="M1581.79,-248.71C1394.07,-241.03 1162.67,-228.18 946.46,-206.04"/>
<polygon fill="black" stroke="black" points="946.81,-202.56 936.51,-205.01 946.09,-209.52 946.81,-202.56"/>
</g>
<!-- Node0x5b95d00253a0 -->
<g id="node35" class="node">
<title>Node0x5b95d00253a0</title>
<polygon fill="none" stroke="black" points="559,-169.5 559,-205.5 624,-205.5 624,-169.5 559,-169.5"/>
<text text-anchor="middle" x="591.5" y="-183.8" font-family="Times,serif" font-size="14.00">_ZdlPv</text>
</g>
<!-- Node0x5b95d00261e0&#45;&gt;Node0x5b95d00253a0 -->
<g id="edge46" class="edge">
<title>Node0x5b95d00261e0&#45;&gt;Node0x5b95d00253a0</title>
<path fill="none" stroke="black" d="M1581.76,-246.01C1220.78,-232.69 716.56,-213.41 634.21,-204.8"/>
<polygon fill="black" stroke="black" points="634.54,-201.31 624.16,-203.39 633.57,-208.25 634.54,-201.31"/>
</g>
<!-- Node0x5b95d0024c20 -->
<g id="node36" class="node">
<title>Node0x5b95d0024c20</title>
<polygon fill="none" stroke="black" points="1340.5,-169.5 1340.5,-205.5 2566.5,-205.5 2566.5,-169.5 1340.5,-169.5"/>
<text text-anchor="middle" x="1953.5" y="-183.8" font-family="Times,serif" font-size="14.00">_ZN7CIccCmm8AddXformEP11CIccProfile17icRenderingIntent13icXformInterpP31IIccProfileConnectionConditions14icXformLutTypebP26CIccCreateXformHintManager</text>
</g>
<!-- Node0x5b95d00261e0&#45;&gt;Node0x5b95d0024c20 -->
<g id="edge47" class="edge">
<title>Node0x5b95d00261e0&#45;&gt;Node0x5b95d0024c20</title>
<path fill="none" stroke="black" d="M1953.5,-242.31C1953.5,-234.29 1953.5,-224.55 1953.5,-215.57"/>
<polygon fill="black" stroke="black" points="1957,-215.53 1953.5,-205.53 1950,-215.53 1957,-215.53"/>
</g>
<!-- Node0x5b95d00258a0 -->
<g id="node37" class="node">
<title>Node0x5b95d00258a0</title>
<polygon fill="none" stroke="black" points="2585,-169.5 2585,-205.5 2786,-205.5 2786,-169.5 2585,-169.5"/>
<text text-anchor="middle" x="2685.5" y="-183.8" font-family="Times,serif" font-size="14.00">_ZN7CIccCmm5BeginEbb</text>
</g>
<!-- Node0x5b95d00261e0&#45;&gt;Node0x5b95d00258a0 -->
<g id="edge48" class="edge">
<title>Node0x5b95d00261e0&#45;&gt;Node0x5b95d00258a0</title>
<path fill="none" stroke="black" d="M2198.75,-242.5C2310.49,-233.73 2444.64,-221.78 2574.68,-206.05"/>
<polygon fill="black" stroke="black" points="2575.33,-209.5 2584.83,-204.81 2574.48,-202.55 2575.33,-209.5"/>
</g>
<!-- Node0x5b95d0025120 -->
<g id="node38" class="node">
<title>Node0x5b95d0025120</title>
<polygon fill="none" stroke="black" points="2804,-169.5 2804,-205.5 3027,-205.5 3027,-169.5 2804,-169.5"/>
<text text-anchor="middle" x="2915.5" y="-183.8" font-family="Times,serif" font-size="14.00">_ZN7CIccCmm5ApplyEPfPKf</text>
</g>
<!-- Node0x5b95d00261e0&#45;&gt;Node0x5b95d0025120 -->
<g id="edge49" class="edge">
<title>Node0x5b95d00261e0&#45;&gt;Node0x5b95d0025120</title>
<path fill="none" stroke="black" d="M2321.43,-242.5C2465.73,-234.19 2632.88,-222.56 2793.7,-206.03"/>
<polygon fill="black" stroke="black" points="2794.21,-209.5 2803.79,-204.99 2793.49,-202.54 2794.21,-209.5"/>
</g>
<!-- Node0x5b95d0023ec0 -->
<g id="node39" class="node">
<title>Node0x5b95d0023ec0</title>
<polygon fill="none" stroke="black" points="3045,-169.5 3045,-205.5 3206,-205.5 3206,-169.5 3045,-169.5"/>
<text text-anchor="middle" x="3125.5" y="-183.8" font-family="Times,serif" font-size="14.00">_ZN7CIccCmmD1Ev</text>
</g>
<!-- Node0x5b95d00261e0&#45;&gt;Node0x5b95d0023ec0 -->
<g id="edge50" class="edge">
<title>Node0x5b95d00261e0&#45;&gt;Node0x5b95d0023ec0</title>
<path fill="none" stroke="black" d="M2325.18,-254.2C2531.6,-248.03 2792.99,-234.91 3034.6,-206"/>
<polygon fill="black" stroke="black" points="3035.12,-209.46 3044.63,-204.79 3034.29,-202.51 3035.12,-209.46"/>
</g>
<!-- Node0x5b95d002d240 -->
<g id="node29" class="node">
<title>Node0x5b95d002d240</title>
<polygon fill="none" stroke="black" points="4810,-534.5 4810,-570.5 5057,-570.5 5057,-534.5 4810,-534.5"/>
<text text-anchor="middle" x="4933.5" y="-548.8" font-family="Times,serif" font-size="14.00">_ZN18IIccAdjustPCSXformD0Ev</text>
</g>
<!-- Node0x5b95d002e280 -->
<g id="node30" class="node">
<title>Node0x5b95d002e280</title>
<polygon fill="none" stroke="black" points="4892.5,-461.5 4892.5,-497.5 4974.5,-497.5 4974.5,-461.5 4892.5,-461.5"/>
<text text-anchor="middle" x="4933.5" y="-475.8" font-family="Times,serif" font-size="14.00">llvm.trap</text>
</g>
<!-- Node0x5b95d002d240&#45;&gt;Node0x5b95d002e280 -->
<g id="edge30" class="edge">
<title>Node0x5b95d002d240&#45;&gt;Node0x5b95d002e280</title>
<path fill="none" stroke="black" d="M4933.5,-534.31C4933.5,-526.29 4933.5,-516.55 4933.5,-507.57"/>
<polygon fill="black" stroke="black" points="4937,-507.53 4933.5,-497.53 4930,-507.53 4937,-507.53"/>
</g>
<!-- Node0x5b95d0024880 -->
<g id="node40" class="node">
<title>Node0x5b95d0024880</title>
<polygon fill="none" stroke="black" points="4242.5,-242.5 4242.5,-278.5 4468.5,-278.5 4468.5,-242.5 4242.5,-242.5"/>
<text text-anchor="middle" x="4355.5" y="-256.8" font-family="Times,serif" font-size="14.00">_ZNK11CIccProfile6GetTagEj</text>
</g>
<!-- Node0x5b95d0025ce0&#45;&gt;Node0x5b95d0024880 -->
<g id="edge51" class="edge">
<title>Node0x5b95d0025ce0&#45;&gt;Node0x5b95d0024880</title>
<path fill="none" stroke="black" d="M4297.14,-315.31C4306.88,-306.33 4318.96,-295.19 4329.6,-285.39"/>
<polygon fill="black" stroke="black" points="4332.05,-287.88 4337.03,-278.53 4327.31,-282.73 4332.05,-287.88"/>
</g>
<!-- Node0x5b95d0025a60&#45;&gt;Node0x5b95d000b1d0 -->
<g id="edge52" class="edge">
<title>Node0x5b95d0025a60&#45;&gt;Node0x5b95d000b1d0</title>
<path fill="none" stroke="black" d="M920.53,-242.5C858.12,-234.87 790.24,-223.92 720.78,-206"/>
<polygon fill="black" stroke="black" points="721.53,-202.58 710.97,-203.43 719.75,-209.35 721.53,-202.58"/>
</g>
<!-- Node0x5b95d0025a60&#45;&gt;Node0x5b95d0025560 -->
<g id="edge53" class="edge">
<title>Node0x5b95d0025a60&#45;&gt;Node0x5b95d0025560</title>
<path fill="none" stroke="black" d="M1139.26,-242.31C1139.14,-234.29 1139.01,-224.55 1138.88,-215.57"/>
<polygon fill="black" stroke="black" points="1142.38,-215.48 1138.74,-205.53 1135.38,-215.58 1142.38,-215.48"/>
</g>
<!-- Node0x5b95d0025a60&#45;&gt;Node0x5b95d0026520 -->
<g id="edge55" class="edge">
<title>Node0x5b95d0025a60&#45;&gt;Node0x5b95d0026520</title>
<path fill="none" stroke="black" d="M1065.97,-242.49C1020.84,-232.06 962.91,-218.66 916.05,-207.82"/>
<polygon fill="black" stroke="black" points="916.76,-204.4 906.23,-205.55 915.19,-211.22 916.76,-204.4"/>
</g>
<!-- Node0x5b95d0025a60&#45;&gt;Node0x5b95d00253a0 -->
<g id="edge54" class="edge">
<title>Node0x5b95d0025a60&#45;&gt;Node0x5b95d00253a0</title>
<path fill="none" stroke="black" d="M918.97,-242.48C814.01,-233.18 699.2,-220.95 634.2,-205.66"/>
<polygon fill="black" stroke="black" points="634.75,-202.19 624.21,-203.18 633.07,-208.99 634.75,-202.19"/>
</g>
<!-- Node0x5b95d0025ae0 -->
<g id="node41" class="node">
<title>Node0x5b95d0025ae0</title>
<polygon fill="none" stroke="black" points="5075,-534.5 5075,-570.5 5242,-570.5 5242,-534.5 5075,-534.5"/>
<text text-anchor="middle" x="5158.5" y="-548.8" font-family="Times,serif" font-size="14.00">__gxx_personality_v0</text>
</g>
<!-- Node0x5b95d0023370 -->
<g id="node42" class="node">
<title>Node0x5b95d0023370</title>
<polygon fill="none" stroke="black" points="56.5,-169.5 56.5,-205.5 260.5,-205.5 260.5,-169.5 56.5,-169.5"/>
<text text-anchor="middle" x="158.5" y="-183.8" font-family="Times,serif" font-size="14.00">_ZN12CIccApplyBPCD2Ev</text>
</g>
<!-- Node0x5b95d002bdc0 -->
<g id="node43" class="node">
<title>Node0x5b95d002bdc0</title>
<polygon fill="none" stroke="black" points="0,-96.5 0,-132.5 247,-132.5 247,-96.5 0,-96.5"/>
<text text-anchor="middle" x="123.5" y="-110.8" font-family="Times,serif" font-size="14.00">_ZN18IIccAdjustPCSXformD2Ev</text>
</g>
<!-- Node0x5b95d0023370&#45;&gt;Node0x5b95d002bdc0 -->
<g id="edge56" class="edge">
<title>Node0x5b95d0023370&#45;&gt;Node0x5b95d002bdc0</title>
<path fill="none" stroke="black" d="M150.03,-169.31C145.94,-161.03 140.96,-150.91 136.41,-141.69"/>
<polygon fill="black" stroke="black" points="139.46,-139.95 131.89,-132.53 133.18,-143.05 139.46,-139.95"/>
</g>
<!-- Node0x5b95d002b640 -->
<g id="node44" class="node">
<title>Node0x5b95d002b640</title>
<polygon fill="none" stroke="black" points="65.5,-242.5 65.5,-278.5 269.5,-278.5 269.5,-242.5 65.5,-242.5"/>
<text text-anchor="middle" x="167.5" y="-256.8" font-family="Times,serif" font-size="14.00">_ZN12CIccApplyBPCD0Ev</text>
</g>
<!-- Node0x5b95d002b640&#45;&gt;Node0x5b95d00253a0 -->
<g id="edge58" class="edge">
<title>Node0x5b95d002b640&#45;&gt;Node0x5b95d00253a0</title>
<path fill="none" stroke="black" d="M269.97,-245.47C368.9,-231.88 508.53,-212.58 548.79,-205.19"/>
<polygon fill="black" stroke="black" points="549.71,-208.57 558.77,-203.07 548.26,-201.73 549.71,-208.57"/>
</g>
<!-- Node0x5b95d002b640&#45;&gt;Node0x5b95d0023370 -->
<g id="edge57" class="edge">
<title>Node0x5b95d002b640&#45;&gt;Node0x5b95d0023370</title>
<path fill="none" stroke="black" d="M165.32,-242.31C164.3,-234.29 163.07,-224.55 161.93,-215.57"/>
<polygon fill="black" stroke="black" points="165.39,-215.01 160.66,-205.53 158.44,-215.89 165.39,-215.01"/>
</g>
<!-- Node0x5b95d002b280 -->
<g id="node45" class="node">
<title>Node0x5b95d002b280</title>
<polygon fill="none" stroke="black" points="304.5,-169.5 304.5,-205.5 540.5,-205.5 540.5,-169.5 304.5,-169.5"/>
<text text-anchor="middle" x="422.5" y="-183.8" font-family="Times,serif" font-size="14.00">_ZN16CIccApplyBPCHintD2Ev</text>
</g>
<!-- Node0x5b95d002ac40 -->
<g id="node46" class="node">
<title>Node0x5b95d002ac40</title>
<polygon fill="none" stroke="black" points="265.5,-96.5 265.5,-132.5 597.5,-132.5 597.5,-96.5 265.5,-96.5"/>
<text text-anchor="middle" x="431.5" y="-110.8" font-family="Times,serif" font-size="14.00">_ZN28CIccCreateAdjustPCSXformHintD2Ev</text>
</g>
<!-- Node0x5b95d002b280&#45;&gt;Node0x5b95d002ac40 -->
<g id="edge59" class="edge">
<title>Node0x5b95d002b280&#45;&gt;Node0x5b95d002ac40</title>
<path fill="none" stroke="black" d="M424.68,-169.31C425.7,-161.29 426.93,-151.55 428.07,-142.57"/>
<polygon fill="black" stroke="black" points="431.56,-142.89 429.34,-132.53 424.61,-142.01 431.56,-142.89"/>
</g>
<!-- Node0x5b95d002f540 -->
<g id="node51" class="node">
<title>Node0x5b95d002f540</title>
<polygon fill="none" stroke="black" points="306,-23.5 306,-59.5 557,-59.5 557,-23.5 306,-23.5"/>
<text text-anchor="middle" x="431.5" y="-37.8" font-family="Times,serif" font-size="14.00">_ZN19IIccCreateXformHintD2Ev</text>
</g>
<!-- Node0x5b95d002ac40&#45;&gt;Node0x5b95d002f540 -->
<g id="edge62" class="edge">
<title>Node0x5b95d002ac40&#45;&gt;Node0x5b95d002f540</title>
<path fill="none" stroke="black" d="M431.5,-96.31C431.5,-88.29 431.5,-78.55 431.5,-69.57"/>
<polygon fill="black" stroke="black" points="435,-69.53 431.5,-59.53 428,-69.53 435,-69.53"/>
</g>
<!-- Node0x5b95d002ce80 -->
<g id="node47" class="node">
<title>Node0x5b95d002ce80</title>
<polygon fill="none" stroke="black" points="304.5,-242.5 304.5,-278.5 540.5,-278.5 540.5,-242.5 304.5,-242.5"/>
<text text-anchor="middle" x="422.5" y="-256.8" font-family="Times,serif" font-size="14.00">_ZN16CIccApplyBPCHintD0Ev</text>
</g>
<!-- Node0x5b95d002ce80&#45;&gt;Node0x5b95d00253a0 -->
<g id="edge61" class="edge">
<title>Node0x5b95d002ce80&#45;&gt;Node0x5b95d00253a0</title>
<path fill="none" stroke="black" d="M462.98,-242.49C489.16,-231.5 523.16,-217.21 549.61,-206.1"/>
<polygon fill="black" stroke="black" points="551.12,-209.26 558.98,-202.16 548.41,-202.81 551.12,-209.26"/>
</g>
<!-- Node0x5b95d002ce80&#45;&gt;Node0x5b95d002b280 -->
<g id="edge60" class="edge">
<title>Node0x5b95d002ce80&#45;&gt;Node0x5b95d002b280</title>
<path fill="none" stroke="black" d="M422.5,-242.31C422.5,-234.29 422.5,-224.55 422.5,-215.57"/>
<polygon fill="black" stroke="black" points="426,-215.53 422.5,-205.53 419,-215.53 426,-215.53"/>
</g>
<!-- Node0x5b95d002dd80 -->
<g id="node48" class="node">
<title>Node0x5b95d002dd80</title>
<polygon fill="none" stroke="black" points="5260,-534.5 5260,-570.5 5691,-570.5 5691,-534.5 5260,-534.5"/>
<text text-anchor="middle" x="5475.5" y="-548.8" font-family="Times,serif" font-size="14.00">_ZNK28CIccCreateAdjustPCSXformHint11GetHintTypeEv</text>
</g>
<!-- Node0x5b95d002d740 -->
<g id="node49" class="node">
<title>Node0x5b95d002d740</title>
<polygon fill="none" stroke="black" points="5709.5,-534.5 5709.5,-570.5 6089.5,-570.5 6089.5,-534.5 5709.5,-534.5"/>
<text text-anchor="middle" x="5899.5" y="-548.8" font-family="Times,serif" font-size="14.00">_ZNK16CIccApplyBPCHint16GetAdjustPCSTypeEv</text>
</g>
<!-- Node0x5b95d002fcc0 -->
<g id="node50" class="node">
<title>Node0x5b95d002fcc0</title>
<polygon fill="none" stroke="black" points="6107.5,-534.5 6107.5,-570.5 6255.5,-570.5 6255.5,-534.5 6107.5,-534.5"/>
<text text-anchor="middle" x="6181.5" y="-548.8" font-family="Times,serif" font-size="14.00">__cxa_pure_virtual</text>
</g>
</g>
</svg>
