<?xml version="1.0" encoding="UTF-8" standalone="no"?>
<!DOCTYPE svg PUBLIC "-//W3C//DTD SVG 1.1//EN"
 "http://www.w3.org/Graphics/SVG/1.1/DTD/svg11.dtd">
<!-- Generated by graphviz version 2.43.0 (0)
 -->
<!-- Title: Call graph: /home/h02332/po/research/call&#45;graph/iccdev/proflib/IccCAM.ll Pages: 1 -->
<svg width="7320pt" height="360pt"
 viewBox="0.00 0.00 7320.00 360.00" xmlns="http://www.w3.org/2000/svg" xmlns:xlink="http://www.w3.org/1999/xlink">
<g id="graph0" class="graph" transform="scale(1 1) rotate(0) translate(4 356)">
<title>Call graph: /home/h02332/po/research/call&#45;graph/iccdev/proflib/IccCAM.ll</title>
<polygon fill="white" stroke="transparent" points="-4,4 -4,-356 7316,-356 7316,4 -4,4"/>
<text text-anchor="middle" x="3656" y="-7.8" font-family="Times,serif" font-size="14.00">Call graph: /home/h02332/po/research/call&#45;graph/iccdev/proflib/IccCAM.ll</text>
<!-- Node0x61b9667a5650 -->
<g id="node1" class="node">
<title>Node0x61b9667a5650</title>
<polygon fill="none" stroke="black" points="1944.5,-169.5 1944.5,-205.5 2399.5,-205.5 2399.5,-169.5 1944.5,-169.5"/>
<text text-anchor="middle" x="2172" y="-183.8" font-family="Times,serif" font-size="14.00">_ZN16CIccCamConverter19Multiply_vect_by_mxEPKfPfPA3_f</text>
</g>
<!-- Node0x61b966787b30 -->
<g id="node2" class="node">
<title>Node0x61b966787b30</title>
<polygon fill="none" stroke="black" points="2358,-96.5 2358,-132.5 2496,-132.5 2496,-96.5 2358,-96.5"/>
<text text-anchor="middle" x="2427" y="-110.8" font-family="Times,serif" font-size="14.00">llvm.fmuladd.f32</text>
</g>
<!-- Node0x61b9667a5650&#45;&gt;Node0x61b966787b30 -->
<g id="edge1" class="edge">
<title>Node0x61b9667a5650&#45;&gt;Node0x61b966787b30</title>
<path fill="none" stroke="black" d="M2233.08,-169.49C2269.87,-159.25 2316.89,-146.16 2355.42,-135.43"/>
<polygon fill="black" stroke="black" points="2356.84,-138.67 2365.54,-132.61 2354.96,-131.92 2356.84,-138.67"/>
</g>
<!-- Node0x61b9667cd840 -->
<g id="node3" class="node">
<title>Node0x61b9667cd840</title>
<polygon fill="none" stroke="black" points="1316,-169.5 1316,-205.5 1732,-205.5 1732,-169.5 1316,-169.5"/>
<text text-anchor="middle" x="1524" y="-183.8" font-family="Times,serif" font-size="14.00">_ZN16CIccCamConverter19ReferenceConditionsEPfS0_</text>
</g>
<!-- Node0x61b9668926f0 -->
<g id="node4" class="node">
<title>Node0x61b9668926f0</title>
<polygon fill="none" stroke="black" points="3383,-169.5 3383,-205.5 3821,-205.5 3821,-169.5 3383,-169.5"/>
<text text-anchor="middle" x="3602" y="-183.8" font-family="Times,serif" font-size="14.00">_ZN16CIccCamConverter22ReferenceConditionsInvEPfS0_</text>
</g>
<!-- Node0x61b9667f2d40 -->
<g id="node5" class="node">
<title>Node0x61b9667f2d40</title>
<polygon fill="none" stroke="black" points="955.5,-96.5 955.5,-132.5 1266.5,-132.5 1266.5,-96.5 955.5,-96.5"/>
<text text-anchor="middle" x="1111" y="-110.8" font-family="Times,serif" font-size="14.00">_ZN16CIccCamConverter10F_FunctionEf</text>
</g>
<!-- Node0x61b9668d0330 -->
<g id="node6" class="node">
<title>Node0x61b9668d0330</title>
<polygon fill="none" stroke="black" points="1684,-23.5 1684,-59.5 1738,-59.5 1738,-23.5 1684,-23.5"/>
<text text-anchor="middle" x="1711" y="-37.8" font-family="Times,serif" font-size="14.00">pow</text>
</g>
<!-- Node0x61b9667f2d40&#45;&gt;Node0x61b9668d0330 -->
<g id="edge2" class="edge">
<title>Node0x61b9667f2d40&#45;&gt;Node0x61b9668d0330</title>
<path fill="none" stroke="black" d="M1254.71,-96.49C1392.72,-80.16 1591.93,-56.59 1673.77,-46.91"/>
<polygon fill="black" stroke="black" points="1674.32,-50.37 1683.83,-45.71 1673.49,-43.41 1674.32,-50.37"/>
</g>
<!-- Node0x61b9668d0270 -->
<g id="node7" class="node">
<title>Node0x61b9668d0270</title>
<polygon fill="none" stroke="black" points="1373,-96.5 1373,-132.5 1687,-132.5 1687,-96.5 1373,-96.5"/>
<text text-anchor="middle" x="1530" y="-110.8" font-family="Times,serif" font-size="14.00">_ZN16CIccCamConverter10H_FunctionEf</text>
</g>
<!-- Node0x61b9668d0270&#45;&gt;Node0x61b9668d0330 -->
<g id="edge3" class="edge">
<title>Node0x61b9668d0270&#45;&gt;Node0x61b9668d0330</title>
<path fill="none" stroke="black" d="M1573.35,-96.49C1604.17,-84.4 1645.11,-68.34 1674.32,-56.89"/>
<polygon fill="black" stroke="black" points="1675.71,-60.1 1683.74,-53.19 1673.15,-53.59 1675.71,-60.1"/>
</g>
<!-- Node0x61b9668d4e50 -->
<g id="node8" class="node">
<title>Node0x61b9668d4e50</title>
<polygon fill="none" stroke="black" points="2611,-96.5 2611,-132.5 2947,-132.5 2947,-96.5 2611,-96.5"/>
<text text-anchor="middle" x="2779" y="-110.8" font-family="Times,serif" font-size="14.00">_ZN16CIccCamConverter13H_FunctionInvEf</text>
</g>
<!-- Node0x61b9668d4e50&#45;&gt;Node0x61b9668d0330 -->
<g id="edge4" class="edge">
<title>Node0x61b9668d4e50&#45;&gt;Node0x61b9668d0330</title>
<path fill="none" stroke="black" d="M2610.8,-97.65C2603.77,-97.08 2596.82,-96.52 2590,-96 2264.46,-71.03 1870.37,-50.49 1748.63,-44.37"/>
<polygon fill="black" stroke="black" points="1748.53,-40.86 1738.36,-43.85 1748.18,-47.85 1748.53,-40.86"/>
</g>
<!-- Node0x61b9668d4980 -->
<g id="node9" class="node">
<title>Node0x61b9668d4980</title>
<polygon fill="none" stroke="black" points="912,-169.5 912,-205.5 1222,-205.5 1222,-169.5 912,-169.5"/>
<text text-anchor="middle" x="1067" y="-183.8" font-family="Times,serif" font-size="14.00">_ZN16CIccCamConverter10HyperbolicEf</text>
</g>
<!-- Node0x61b9668d4980&#45;&gt;Node0x61b9667f2d40 -->
<g id="edge6" class="edge">
<title>Node0x61b9668d4980&#45;&gt;Node0x61b9667f2d40</title>
<path fill="none" stroke="black" d="M1077.65,-169.31C1082.89,-160.85 1089.32,-150.48 1095.13,-141.11"/>
<polygon fill="black" stroke="black" points="1098.15,-142.87 1100.45,-132.53 1092.2,-139.19 1098.15,-142.87"/>
</g>
<!-- Node0x61b9668d4980&#45;&gt;Node0x61b9668d0270 -->
<g id="edge5" class="edge">
<title>Node0x61b9668d4980&#45;&gt;Node0x61b9668d0270</title>
<path fill="none" stroke="black" d="M1177.9,-169.49C1247.53,-158.82 1337.35,-145.04 1408.84,-134.08"/>
<polygon fill="black" stroke="black" points="1409.45,-137.53 1418.8,-132.55 1408.39,-130.61 1409.45,-137.53"/>
</g>
<!-- Node0x61b9668d1750 -->
<g id="node10" class="node">
<title>Node0x61b9668d1750</title>
<polygon fill="none" stroke="black" points="2637,-169.5 2637,-205.5 2969,-205.5 2969,-169.5 2637,-169.5"/>
<text text-anchor="middle" x="2803" y="-183.8" font-family="Times,serif" font-size="14.00">_ZN16CIccCamConverter13HyperbolicInvEf</text>
</g>
<!-- Node0x61b9668d1750&#45;&gt;Node0x61b9667f2d40 -->
<g id="edge7" class="edge">
<title>Node0x61b9668d1750&#45;&gt;Node0x61b9667f2d40</title>
<path fill="none" stroke="black" d="M2636.76,-169.59C2633.82,-169.38 2630.89,-169.19 2628,-169 2067.15,-133.02 1925.34,-160.4 1364,-133 1335.87,-131.63 1306.01,-129.85 1277.03,-127.95"/>
<polygon fill="black" stroke="black" points="1277.03,-124.44 1266.82,-127.28 1276.57,-131.43 1277.03,-124.44"/>
</g>
<!-- Node0x61b9668d1750&#45;&gt;Node0x61b9668d0270 -->
<g id="edge8" class="edge">
<title>Node0x61b9668d1750&#45;&gt;Node0x61b9668d0270</title>
<path fill="none" stroke="black" d="M2636.75,-169.67C2633.81,-169.44 2630.89,-169.21 2628,-169 2298.73,-144.53 1913.04,-128.7 1697.57,-121.01"/>
<polygon fill="black" stroke="black" points="1697.55,-117.51 1687.44,-120.65 1697.3,-124.5 1697.55,-117.51"/>
</g>
<!-- Node0x61b9668d1750&#45;&gt;Node0x61b9668d4e50 -->
<g id="edge9" class="edge">
<title>Node0x61b9668d1750&#45;&gt;Node0x61b9668d4e50</title>
<path fill="none" stroke="black" d="M2797.19,-169.31C2794.45,-161.2 2791.11,-151.34 2788.05,-142.28"/>
<polygon fill="black" stroke="black" points="2791.27,-140.88 2784.76,-132.53 2784.64,-143.12 2791.27,-140.88"/>
</g>
<!-- Node0x61b9668d2790 -->
<g id="node11" class="node">
<title>Node0x61b9668d2790</title>
<polygon fill="none" stroke="black" points="3870,-242.5 3870,-278.5 4160,-278.5 4160,-242.5 3870,-242.5"/>
<text text-anchor="middle" x="4015" y="-256.8" font-family="Times,serif" font-size="14.00">_ZN16CIccCamConverter8IccCam_eEf</text>
</g>
<!-- Node0x61b9668d1c50 -->
<g id="node12" class="node">
<title>Node0x61b9668d1c50</title>
<polygon fill="none" stroke="black" points="4115,-169.5 4115,-205.5 4297,-205.5 4297,-169.5 4115,-169.5"/>
<text text-anchor="middle" x="4206" y="-183.8" font-family="Times,serif" font-size="14.00">llvm.memcpy.p0.p0.i64</text>
</g>
<!-- Node0x61b9668d2790&#45;&gt;Node0x61b9668d1c50 -->
<g id="edge10" class="edge">
<title>Node0x61b9668d2790&#45;&gt;Node0x61b9668d1c50</title>
<path fill="none" stroke="black" d="M4060.75,-242.49C4087.72,-232.47 4122.03,-219.71 4150.54,-209.12"/>
<polygon fill="black" stroke="black" points="4151.81,-212.38 4159.96,-205.61 4149.37,-205.82 4151.81,-212.38"/>
</g>
<!-- Node0x61b9668d19d0 -->
<g id="node13" class="node">
<title>Node0x61b9668d19d0</title>
<polygon fill="none" stroke="black" points="1075,-242.5 1075,-278.5 1425,-278.5 1425,-242.5 1075,-242.5"/>
<text text-anchor="middle" x="1250" y="-256.8" font-family="Times,serif" font-size="14.00">_ZN16CIccCamConverter16CalcCoefficientsEv</text>
</g>
<!-- Node0x61b9668d19d0&#45;&gt;Node0x61b9667a5650 -->
<g id="edge18" class="edge">
<title>Node0x61b9668d19d0&#45;&gt;Node0x61b9667a5650</title>
<path fill="none" stroke="black" d="M1425.05,-246.02C1571.35,-234.75 1781.17,-218.6 1941.2,-206.27"/>
<polygon fill="black" stroke="black" points="1941.48,-209.76 1951.18,-205.5 1940.94,-202.78 1941.48,-209.76"/>
</g>
<!-- Node0x61b9668d19d0&#45;&gt;Node0x61b966787b30 -->
<g id="edge12" class="edge">
<title>Node0x61b9668d19d0&#45;&gt;Node0x61b966787b30</title>
<path fill="none" stroke="black" d="M1249.03,-242.33C1248.89,-221.38 1252.24,-186.56 1274,-169 1294.91,-152.13 2090.32,-125.97 2347.6,-117.93"/>
<polygon fill="black" stroke="black" points="2347.74,-121.43 2357.63,-117.62 2347.52,-114.43 2347.74,-121.43"/>
</g>
<!-- Node0x61b9668d19d0&#45;&gt;Node0x61b9667cd840 -->
<g id="edge17" class="edge">
<title>Node0x61b9668d19d0&#45;&gt;Node0x61b9667cd840</title>
<path fill="none" stroke="black" d="M1315.63,-242.49C1355.5,-232.16 1406.55,-218.93 1448.15,-208.16"/>
<polygon fill="black" stroke="black" points="1449.15,-211.51 1457.96,-205.61 1447.4,-204.73 1449.15,-211.51"/>
</g>
<!-- Node0x61b9668d19d0&#45;&gt;Node0x61b9667f2d40 -->
<g id="edge15" class="edge">
<title>Node0x61b9668d19d0&#45;&gt;Node0x61b9667f2d40</title>
<path fill="none" stroke="black" d="M1074.78,-256.5C988.55,-250.92 897.31,-237.43 870,-206 835.56,-166.37 883.47,-144.06 945.4,-131.51"/>
<polygon fill="black" stroke="black" points="946.29,-134.9 955.45,-129.58 944.97,-128.03 946.29,-134.9"/>
</g>
<!-- Node0x61b9668d19d0&#45;&gt;Node0x61b9668d0330 -->
<g id="edge11" class="edge">
<title>Node0x61b9668d19d0&#45;&gt;Node0x61b9668d0330</title>
<path fill="none" stroke="black" d="M1074.83,-246.34C976.36,-237.12 870.15,-223.34 855,-206 844.18,-193.62 847.89,-183.83 855,-169 877.43,-122.25 897.71,-114.89 946,-96 1080.9,-43.22 1539.21,-41.51 1673.64,-42.19"/>
<polygon fill="black" stroke="black" points="1673.82,-45.69 1683.84,-42.25 1673.86,-38.69 1673.82,-45.69"/>
</g>
<!-- Node0x61b9668d19d0&#45;&gt;Node0x61b9668d0270 -->
<g id="edge16" class="edge">
<title>Node0x61b9668d19d0&#45;&gt;Node0x61b9668d0270</title>
<path fill="none" stroke="black" d="M1074.72,-253.25C1000.69,-246.57 926.21,-233.07 903,-206 892.29,-193.52 891.88,-181.11 903,-169 910.78,-160.53 1179.64,-140.05 1362.73,-127.03"/>
<polygon fill="black" stroke="black" points="1363.02,-130.52 1372.75,-126.32 1362.53,-123.54 1363.02,-130.52"/>
</g>
<!-- Node0x61b9668d19d0&#45;&gt;Node0x61b9668d4980 -->
<g id="edge14" class="edge">
<title>Node0x61b9668d19d0&#45;&gt;Node0x61b9668d4980</title>
<path fill="none" stroke="black" d="M1206.17,-242.49C1180.44,-232.51 1147.74,-219.82 1120.5,-209.26"/>
<polygon fill="black" stroke="black" points="1121.7,-205.97 1111.11,-205.61 1119.17,-212.49 1121.7,-205.97"/>
</g>
<!-- Node0x61b9668d2b50 -->
<g id="node14" class="node">
<title>Node0x61b9668d2b50</title>
<polygon fill="none" stroke="black" points="1788,-169.5 1788,-205.5 1926,-205.5 1926,-169.5 1788,-169.5"/>
<text text-anchor="middle" x="1857" y="-183.8" font-family="Times,serif" font-size="14.00">llvm.fmuladd.f64</text>
</g>
<!-- Node0x61b9668d19d0&#45;&gt;Node0x61b9668d2b50 -->
<g id="edge13" class="edge">
<title>Node0x61b9668d19d0&#45;&gt;Node0x61b9668d2b50</title>
<path fill="none" stroke="black" d="M1422.33,-242.48C1516.59,-232.72 1635.35,-219.72 1741,-206 1752.83,-204.46 1765.33,-202.71 1777.56,-200.93"/>
<polygon fill="black" stroke="black" points="1778.37,-204.35 1787.75,-199.42 1777.35,-197.42 1778.37,-204.35"/>
</g>
<!-- Node0x61b9668d3db0 -->
<g id="node15" class="node">
<title>Node0x61b9668d3db0</title>
<polygon fill="none" stroke="black" points="2527,-96.5 2527,-132.5 2581,-132.5 2581,-96.5 2527,-96.5"/>
<text text-anchor="middle" x="2554" y="-110.8" font-family="Times,serif" font-size="14.00">sqrt</text>
</g>
<!-- Node0x61b9668d19d0&#45;&gt;Node0x61b9668d3db0 -->
<g id="edge19" class="edge">
<title>Node0x61b9668d19d0&#45;&gt;Node0x61b9668d3db0</title>
<path fill="none" stroke="black" d="M1258.45,-242.1C1270.45,-218.21 1292.57,-177.25 1307,-169 1422.61,-102.9 2374.14,-157.7 2505,-133 2508.98,-132.25 2513.07,-131.22 2517.11,-130.04"/>
<polygon fill="black" stroke="black" points="2518.51,-133.27 2526.95,-126.86 2516.36,-126.61 2518.51,-133.27"/>
</g>
<!-- Node0x61b9668d01f0 -->
<g id="node16" class="node">
<title>Node0x61b9668d01f0</title>
<polygon fill="none" stroke="black" points="2987,-169.5 2987,-205.5 3327,-205.5 3327,-169.5 2987,-169.5"/>
<text text-anchor="middle" x="3157" y="-183.8" font-family="Times,serif" font-size="14.00">_ZN16CIccCamConverter8ab2chDegEffRfS0_</text>
</g>
<!-- Node0x61b9668d01f0&#45;&gt;Node0x61b966787b30 -->
<g id="edge20" class="edge">
<title>Node0x61b9668d01f0&#45;&gt;Node0x61b966787b30</title>
<path fill="none" stroke="black" d="M2986.94,-169.79C2983.94,-169.52 2980.95,-169.26 2978,-169 2773.72,-151.02 2721.23,-160.41 2518,-133 2514.27,-132.5 2510.47,-131.94 2506.63,-131.34"/>
<polygon fill="black" stroke="black" points="2506.86,-127.84 2496.43,-129.68 2505.73,-134.74 2506.86,-127.84"/>
</g>
<!-- Node0x61b9668d01f0&#45;&gt;Node0x61b9668d3db0 -->
<g id="edge21" class="edge">
<title>Node0x61b9668d01f0&#45;&gt;Node0x61b9668d3db0</title>
<path fill="none" stroke="black" d="M2986.93,-169.87C2983.93,-169.57 2980.95,-169.29 2978,-169 2810.9,-152.83 2765.74,-170.05 2602,-133 2598.32,-132.17 2594.54,-131.13 2590.8,-129.98"/>
<polygon fill="black" stroke="black" points="2591.65,-126.57 2581.05,-126.72 2589.43,-133.21 2591.65,-126.57"/>
</g>
<!-- Node0x61b9668d2fd0 -->
<g id="node17" class="node">
<title>Node0x61b9668d2fd0</title>
<polygon fill="none" stroke="black" points="3128.5,-96.5 3128.5,-132.5 3185.5,-132.5 3185.5,-96.5 3128.5,-96.5"/>
<text text-anchor="middle" x="3157" y="-110.8" font-family="Times,serif" font-size="14.00">atan2</text>
</g>
<!-- Node0x61b9668d01f0&#45;&gt;Node0x61b9668d2fd0 -->
<g id="edge22" class="edge">
<title>Node0x61b9668d01f0&#45;&gt;Node0x61b9668d2fd0</title>
<path fill="none" stroke="black" d="M3157,-169.31C3157,-161.29 3157,-151.55 3157,-142.57"/>
<polygon fill="black" stroke="black" points="3160.5,-142.53 3157,-132.53 3153.5,-142.53 3160.5,-142.53"/>
</g>
<!-- Node0x61b9668edb40 -->
<g id="node18" class="node">
<title>Node0x61b9668edb40</title>
<polygon fill="none" stroke="black" points="0,-315.5 0,-351.5 236,-351.5 236,-315.5 0,-315.5"/>
<text text-anchor="middle" x="118" y="-329.8" font-family="Times,serif" font-size="14.00">_ZN16CIccCamConverterC2Ev</text>
</g>
<!-- Node0x61b9668edb40&#45;&gt;Node0x61b9668d19d0 -->
<g id="edge23" class="edge">
<title>Node0x61b9668edb40&#45;&gt;Node0x61b9668d19d0</title>
<path fill="none" stroke="black" d="M236.27,-315.87C239.2,-315.57 242.12,-315.27 245,-315 530.44,-287.78 862.9,-273.48 1064.81,-266.71"/>
<polygon fill="black" stroke="black" points="1065.05,-270.21 1074.93,-266.38 1064.81,-263.21 1065.05,-270.21"/>
</g>
<!-- Node0x61b9668f50a0 -->
<g id="node19" class="node">
<title>Node0x61b9668f50a0</title>
<polygon fill="none" stroke="black" points="4566.5,-315.5 4566.5,-351.5 4803.5,-351.5 4803.5,-315.5 4566.5,-315.5"/>
<text text-anchor="middle" x="4685" y="-329.8" font-family="Times,serif" font-size="14.00">_ZN16CIccCamConverterD2Ev</text>
</g>
<!-- Node0x61b9668f48a0 -->
<g id="node20" class="node">
<title>Node0x61b9668f48a0</title>
<polygon fill="none" stroke="black" points="4243.5,-315.5 4243.5,-351.5 4548.5,-351.5 4548.5,-315.5 4243.5,-315.5"/>
<text text-anchor="middle" x="4396" y="-329.8" font-family="Times,serif" font-size="14.00">_ZNK16CIccCamConverter7NewCopyEv</text>
</g>
<!-- Node0x61b9668f4770 -->
<g id="node21" class="node">
<title>Node0x61b9668f4770</title>
<polygon fill="none" stroke="black" points="4178,-242.5 4178,-278.5 4246,-278.5 4246,-242.5 4178,-242.5"/>
<text text-anchor="middle" x="4212" y="-256.8" font-family="Times,serif" font-size="14.00">_Znwm</text>
</g>
<!-- Node0x61b9668f48a0&#45;&gt;Node0x61b9668f4770 -->
<g id="edge24" class="edge">
<title>Node0x61b9668f48a0&#45;&gt;Node0x61b9668f4770</title>
<path fill="none" stroke="black" d="M4350.17,-315.43C4324.7,-305.87 4292.23,-293.56 4255.63,-279.21"/>
<polygon fill="black" stroke="black" points="4256.83,-275.92 4246.24,-275.52 4254.26,-282.44 4256.83,-275.92"/>
</g>
<!-- Node0x61b9668d4230 -->
<g id="node22" class="node">
<title>Node0x61b9668d4230</title>
<polygon fill="none" stroke="black" points="4264,-242.5 4264,-278.5 4528,-278.5 4528,-242.5 4264,-242.5"/>
<text text-anchor="middle" x="4396" y="-256.8" font-family="Times,serif" font-size="14.00">_ZN16CIccCamConverteraSERKS_</text>
</g>
<!-- Node0x61b9668f48a0&#45;&gt;Node0x61b9668d4230 -->
<g id="edge25" class="edge">
<title>Node0x61b9668f48a0&#45;&gt;Node0x61b9668d4230</title>
<path fill="none" stroke="black" d="M4396,-315.31C4396,-307.29 4396,-297.55 4396,-288.57"/>
<polygon fill="black" stroke="black" points="4399.5,-288.53 4396,-278.53 4392.5,-288.53 4399.5,-288.53"/>
</g>
<!-- Node0x61b9668f72d0 -->
<g id="node23" class="node">
<title>Node0x61b9668f72d0</title>
<polygon fill="none" stroke="black" points="4546.5,-242.5 4546.5,-278.5 4611.5,-278.5 4611.5,-242.5 4546.5,-242.5"/>
<text text-anchor="middle" x="4579" y="-256.8" font-family="Times,serif" font-size="14.00">_ZdlPv</text>
</g>
<!-- Node0x61b9668f48a0&#45;&gt;Node0x61b9668f72d0 -->
<g id="edge26" class="edge">
<title>Node0x61b9668f48a0&#45;&gt;Node0x61b9668f72d0</title>
<path fill="none" stroke="black" d="M4442.18,-315.4C4469.79,-305.08 4505.5,-291.54 4537,-279 4537.1,-278.96 4537.19,-278.92 4537.29,-278.88"/>
<polygon fill="black" stroke="black" points="4538.52,-282.16 4546.48,-275.17 4535.9,-275.67 4538.52,-282.16"/>
</g>
<!-- Node0x61b9668d4230&#45;&gt;Node0x61b9668d1c50 -->
<g id="edge27" class="edge">
<title>Node0x61b9668d4230&#45;&gt;Node0x61b9668d1c50</title>
<path fill="none" stroke="black" d="M4350.49,-242.49C4323.66,-232.47 4289.53,-219.71 4261.17,-209.12"/>
<polygon fill="black" stroke="black" points="4262.39,-205.84 4251.8,-205.61 4259.94,-212.39 4262.39,-205.84"/>
</g>
<!-- Node0x61b9668f6b80 -->
<g id="node24" class="node">
<title>Node0x61b9668f6b80</title>
<polygon fill="none" stroke="black" points="4821.5,-315.5 4821.5,-351.5 4988.5,-351.5 4988.5,-315.5 4821.5,-315.5"/>
<text text-anchor="middle" x="4905" y="-329.8" font-family="Times,serif" font-size="14.00">__gxx_personality_v0</text>
</g>
<!-- Node0x61b9668f6750 -->
<g id="node25" class="node">
<title>Node0x61b9668f6750</title>
<polygon fill="none" stroke="black" points="254,-315.5 254,-351.5 680,-351.5 680,-315.5 254,-315.5"/>
<text text-anchor="middle" x="467" y="-329.8" font-family="Times,serif" font-size="14.00">_ZN16CIccCamConverter23SetParameter_WhitePointEPf</text>
</g>
<!-- Node0x61b9668f6750&#45;&gt;Node0x61b9668d19d0 -->
<g id="edge28" class="edge">
<title>Node0x61b9668f6750&#45;&gt;Node0x61b9668d19d0</title>
<path fill="none" stroke="black" d="M654.55,-315.49C778.77,-304.23 941,-289.52 1064.75,-278.3"/>
<polygon fill="black" stroke="black" points="1065.07,-281.78 1074.71,-277.39 1064.44,-274.81 1065.07,-281.78"/>
</g>
<!-- Node0x61b9668f62e0 -->
<g id="node26" class="node">
<title>Node0x61b9668f62e0</title>
<polygon fill="none" stroke="black" points="698.5,-315.5 698.5,-351.5 1053.5,-351.5 1053.5,-315.5 698.5,-315.5"/>
<text text-anchor="middle" x="876" y="-329.8" font-family="Times,serif" font-size="14.00">_ZN16CIccCamConverter15SetParameter_LaEf</text>
</g>
<!-- Node0x61b9668f62e0&#45;&gt;Node0x61b9668d19d0 -->
<g id="edge29" class="edge">
<title>Node0x61b9668f62e0&#45;&gt;Node0x61b9668d19d0</title>
<path fill="none" stroke="black" d="M965.58,-315.49C1021.13,-304.95 1092.6,-291.38 1150,-280.48"/>
<polygon fill="black" stroke="black" points="1151.01,-283.86 1160.18,-278.55 1149.7,-276.98 1151.01,-283.86"/>
</g>
<!-- Node0x61b9668f8760 -->
<g id="node27" class="node">
<title>Node0x61b9668f8760</title>
<polygon fill="none" stroke="black" points="1072,-315.5 1072,-351.5 1428,-351.5 1428,-315.5 1072,-315.5"/>
<text text-anchor="middle" x="1250" y="-329.8" font-family="Times,serif" font-size="14.00">_ZN16CIccCamConverter15SetParameter_YbEf</text>
</g>
<!-- Node0x61b9668f8760&#45;&gt;Node0x61b9668d19d0 -->
<g id="edge30" class="edge">
<title>Node0x61b9668f8760&#45;&gt;Node0x61b9668d19d0</title>
<path fill="none" stroke="black" d="M1250,-315.31C1250,-307.29 1250,-297.55 1250,-288.57"/>
<polygon fill="black" stroke="black" points="1253.5,-288.53 1250,-278.53 1246.5,-288.53 1253.5,-288.53"/>
</g>
<!-- Node0x61b9668f9560 -->
<g id="node28" class="node">
<title>Node0x61b9668f9560</title>
<polygon fill="none" stroke="black" points="1446,-315.5 1446,-351.5 1794,-351.5 1794,-315.5 1446,-315.5"/>
<text text-anchor="middle" x="1620" y="-329.8" font-family="Times,serif" font-size="14.00">_ZN16CIccCamConverter14SetParameter_CEf</text>
</g>
<!-- Node0x61b9668f9560&#45;&gt;Node0x61b9668d19d0 -->
<g id="edge31" class="edge">
<title>Node0x61b9668f9560&#45;&gt;Node0x61b9668d19d0</title>
<path fill="none" stroke="black" d="M1531.38,-315.49C1476.42,-304.95 1405.72,-291.38 1348.93,-280.48"/>
<polygon fill="black" stroke="black" points="1349.34,-277 1338.86,-278.55 1348.02,-283.87 1349.34,-277"/>
</g>
<!-- Node0x61b9668f9300 -->
<g id="node29" class="node">
<title>Node0x61b9668f9300</title>
<polygon fill="none" stroke="black" points="1812.5,-315.5 1812.5,-351.5 2169.5,-351.5 2169.5,-315.5 1812.5,-315.5"/>
<text text-anchor="middle" x="1991" y="-329.8" font-family="Times,serif" font-size="14.00">_ZN16CIccCamConverter15SetParameter_NcEf</text>
</g>
<!-- Node0x61b9668f9300&#45;&gt;Node0x61b9668d19d0 -->
<g id="edge32" class="edge">
<title>Node0x61b9668f9300&#45;&gt;Node0x61b9668d19d0</title>
<path fill="none" stroke="black" d="M1813.51,-315.49C1699.21,-304.54 1550.89,-290.33 1435.12,-279.24"/>
<polygon fill="black" stroke="black" points="1435.37,-275.75 1425.08,-278.28 1434.7,-282.71 1435.37,-275.75"/>
</g>
<!-- Node0x61b9668f8af0 -->
<g id="node30" class="node">
<title>Node0x61b9668f8af0</title>
<polygon fill="none" stroke="black" points="2187.5,-315.5 2187.5,-351.5 2534.5,-351.5 2534.5,-315.5 2187.5,-315.5"/>
<text text-anchor="middle" x="2361" y="-329.8" font-family="Times,serif" font-size="14.00">_ZN16CIccCamConverter14SetParameter_FEf</text>
</g>
<!-- Node0x61b9668f8af0&#45;&gt;Node0x61b9668d19d0 -->
<g id="edge33" class="edge">
<title>Node0x61b9668f8af0&#45;&gt;Node0x61b9668d19d0</title>
<path fill="none" stroke="black" d="M2187.15,-315.71C2184.07,-315.47 2181.02,-315.23 2178,-315 1920.66,-295.28 1622.66,-279.32 1435.25,-270.12"/>
<polygon fill="black" stroke="black" points="1435.18,-266.61 1425.02,-269.62 1434.84,-273.6 1435.18,-266.61"/>
</g>
<!-- Node0x61b9668fad50 -->
<g id="node31" class="node">
<title>Node0x61b9668fad50</title>
<polygon fill="none" stroke="black" points="5006,-315.5 5006,-351.5 5434,-351.5 5434,-315.5 5006,-315.5"/>
<text text-anchor="middle" x="5220" y="-329.8" font-family="Times,serif" font-size="14.00">_ZN16CIccCamConverter23GetParameter_WhitePointEPf</text>
</g>
<!-- Node0x61b9668f3da0 -->
<g id="node32" class="node">
<title>Node0x61b9668f3da0</title>
<polygon fill="none" stroke="black" points="5452.5,-315.5 5452.5,-351.5 5811.5,-351.5 5811.5,-315.5 5452.5,-315.5"/>
<text text-anchor="middle" x="5632" y="-329.8" font-family="Times,serif" font-size="14.00">_ZN16CIccCamConverter15GetParameter_LaEv</text>
</g>
<!-- Node0x61b9668fbc10 -->
<g id="node33" class="node">
<title>Node0x61b9668fbc10</title>
<polygon fill="none" stroke="black" points="5830,-315.5 5830,-351.5 6190,-351.5 6190,-315.5 5830,-315.5"/>
<text text-anchor="middle" x="6010" y="-329.8" font-family="Times,serif" font-size="14.00">_ZN16CIccCamConverter15GetParameter_YbEv</text>
</g>
<!-- Node0x61b9668fb970 -->
<g id="node34" class="node">
<title>Node0x61b9668fb970</title>
<polygon fill="none" stroke="black" points="6208.5,-315.5 6208.5,-351.5 6561.5,-351.5 6561.5,-315.5 6208.5,-315.5"/>
<text text-anchor="middle" x="6385" y="-329.8" font-family="Times,serif" font-size="14.00">_ZN16CIccCamConverter14GetParameter_CEv</text>
</g>
<!-- Node0x61b9668f3f80 -->
<g id="node35" class="node">
<title>Node0x61b9668f3f80</title>
<polygon fill="none" stroke="black" points="6580,-315.5 6580,-351.5 6942,-351.5 6942,-315.5 6580,-315.5"/>
<text text-anchor="middle" x="6761" y="-329.8" font-family="Times,serif" font-size="14.00">_ZN16CIccCamConverter15GetParameter_NcEv</text>
</g>
<!-- Node0x61b9668de0f0 -->
<g id="node36" class="node">
<title>Node0x61b9668de0f0</title>
<polygon fill="none" stroke="black" points="6960,-315.5 6960,-351.5 7312,-351.5 7312,-315.5 6960,-315.5"/>
<text text-anchor="middle" x="7136" y="-329.8" font-family="Times,serif" font-size="14.00">_ZN16CIccCamConverter14GetParameter_FEv</text>
</g>
<!-- Node0x61b9668dc270 -->
<g id="node37" class="node">
<title>Node0x61b9668dc270</title>
<polygon fill="none" stroke="black" points="2134.5,-242.5 2134.5,-278.5 2463.5,-278.5 2463.5,-242.5 2134.5,-242.5"/>
<text text-anchor="middle" x="2299" y="-256.8" font-family="Times,serif" font-size="14.00">_ZN16CIccCamConverter8XYZToJabEPKfPfi</text>
</g>
<!-- Node0x61b9668dc270&#45;&gt;Node0x61b9667a5650 -->
<g id="edge34" class="edge">
<title>Node0x61b9668dc270&#45;&gt;Node0x61b9667a5650</title>
<path fill="none" stroke="black" d="M2268.58,-242.49C2251.43,-232.9 2229.81,-220.82 2211.37,-210.51"/>
<polygon fill="black" stroke="black" points="2213.05,-207.44 2202.61,-205.61 2209.63,-213.55 2213.05,-207.44"/>
</g>
<!-- Node0x61b9668dc270&#45;&gt;Node0x61b966787b30 -->
<g id="edge40" class="edge">
<title>Node0x61b9668dc270&#45;&gt;Node0x61b966787b30</title>
<path fill="none" stroke="black" d="M2357.25,-242.41C2375.99,-234.21 2395.19,-222.48 2408,-206 2421.97,-188.03 2426.29,-162.22 2427.37,-142.75"/>
<polygon fill="black" stroke="black" points="2430.87,-142.78 2427.68,-132.68 2423.87,-142.57 2430.87,-142.78"/>
</g>
<!-- Node0x61b9668dc270&#45;&gt;Node0x61b9667cd840 -->
<g id="edge35" class="edge">
<title>Node0x61b9668dc270&#45;&gt;Node0x61b9667cd840</title>
<path fill="none" stroke="black" d="M2134.17,-244.4C2013.01,-233.3 1847.88,-218.17 1719.96,-206.45"/>
<polygon fill="black" stroke="black" points="1719.93,-202.94 1709.65,-205.51 1719.29,-209.91 1719.93,-202.94"/>
</g>
<!-- Node0x61b9668dc270&#45;&gt;Node0x61b9668d0330 -->
<g id="edge43" class="edge">
<title>Node0x61b9668dc270&#45;&gt;Node0x61b9668d0330</title>
<path fill="none" stroke="black" d="M2134.25,-250.95C1992.79,-242.25 1807.28,-227.04 1779,-206 1735.11,-173.35 1719.38,-107.1 1713.87,-69.73"/>
<polygon fill="black" stroke="black" points="1717.31,-69.02 1712.52,-59.57 1710.37,-69.94 1717.31,-69.02"/>
</g>
<!-- Node0x61b9668dc270&#45;&gt;Node0x61b9668d4980 -->
<g id="edge36" class="edge">
<title>Node0x61b9668dc270&#45;&gt;Node0x61b9668d4980</title>
<path fill="none" stroke="black" d="M2134.39,-251.58C1937.54,-241.88 1598.11,-224.46 1307,-206 1282.91,-204.47 1257.46,-202.74 1232.5,-200.98"/>
<polygon fill="black" stroke="black" points="1232.44,-197.47 1222.22,-200.25 1231.94,-204.45 1232.44,-197.47"/>
</g>
<!-- Node0x61b9668dc270&#45;&gt;Node0x61b9668d2b50 -->
<g id="edge39" class="edge">
<title>Node0x61b9668dc270&#45;&gt;Node0x61b9668d2b50</title>
<path fill="none" stroke="black" d="M2166.76,-242.49C2100.23,-233.34 2018.16,-221.17 1936.25,-206.17"/>
<polygon fill="black" stroke="black" points="1936.74,-202.7 1926.27,-204.32 1935.47,-209.58 1936.74,-202.7"/>
</g>
<!-- Node0x61b9668dc270&#45;&gt;Node0x61b9668d3db0 -->
<g id="edge41" class="edge">
<title>Node0x61b9668dc270&#45;&gt;Node0x61b9668d3db0</title>
<path fill="none" stroke="black" d="M2348.84,-242.41C2373.87,-233.02 2404.26,-220.37 2430,-206 2448.88,-195.46 2493.63,-161.93 2523.88,-138.78"/>
<polygon fill="black" stroke="black" points="2526.19,-141.42 2532,-132.56 2521.93,-135.87 2526.19,-141.42"/>
</g>
<!-- Node0x61b9668dc270&#45;&gt;Node0x61b9668d01f0 -->
<g id="edge42" class="edge">
<title>Node0x61b9668dc270&#45;&gt;Node0x61b9668d01f0</title>
<path fill="none" stroke="black" d="M2463.72,-247.39C2598.78,-237.26 2795.24,-222.05 2976.93,-206.09"/>
<polygon fill="black" stroke="black" points="2977.29,-209.57 2986.94,-205.2 2976.67,-202.6 2977.29,-209.57"/>
</g>
<!-- Node0x61b9668f40c0 -->
<g id="node38" class="node">
<title>Node0x61b9668f40c0</title>
<polygon fill="none" stroke="black" points="2493,-169.5 2493,-205.5 2547,-205.5 2547,-169.5 2493,-169.5"/>
<text text-anchor="middle" x="2520" y="-183.8" font-family="Times,serif" font-size="14.00">sin</text>
</g>
<!-- Node0x61b9668dc270&#45;&gt;Node0x61b9668f40c0 -->
<g id="edge37" class="edge">
<title>Node0x61b9668dc270&#45;&gt;Node0x61b9668f40c0</title>
<path fill="none" stroke="black" d="M2362.89,-242.44C2397.55,-232.7 2440.97,-219.72 2479,-206 2480.41,-205.49 2481.84,-204.96 2483.28,-204.41"/>
<polygon fill="black" stroke="black" points="2484.83,-207.56 2492.83,-200.61 2482.24,-201.06 2484.83,-207.56"/>
</g>
<!-- Node0x61b9668dbd70 -->
<g id="node39" class="node">
<title>Node0x61b9668dbd70</title>
<polygon fill="none" stroke="black" points="2565,-169.5 2565,-205.5 2619,-205.5 2619,-169.5 2565,-169.5"/>
<text text-anchor="middle" x="2592" y="-183.8" font-family="Times,serif" font-size="14.00">cos</text>
</g>
<!-- Node0x61b9668dc270&#45;&gt;Node0x61b9668dbd70 -->
<g id="edge38" class="edge">
<title>Node0x61b9668dc270&#45;&gt;Node0x61b9668dbd70</title>
<path fill="none" stroke="black" d="M2410.66,-242.47C2453.72,-234.4 2503.23,-223.29 2555.07,-205.91"/>
<polygon fill="black" stroke="black" points="2556.45,-209.14 2564.78,-202.6 2554.18,-202.52 2556.45,-209.14"/>
</g>
<!-- Node0x61b966901110 -->
<g id="node40" class="node">
<title>Node0x61b966901110</title>
<polygon fill="none" stroke="black" points="3190.5,-242.5 3190.5,-278.5 3519.5,-278.5 3519.5,-242.5 3190.5,-242.5"/>
<text text-anchor="middle" x="3355" y="-256.8" font-family="Times,serif" font-size="14.00">_ZN16CIccCamConverter8JabToXYZEPKfPfi</text>
</g>
<!-- Node0x61b966901110&#45;&gt;Node0x61b9667a5650 -->
<g id="edge46" class="edge">
<title>Node0x61b966901110&#45;&gt;Node0x61b9667a5650</title>
<path fill="none" stroke="black" d="M3190.2,-249.61C2987.35,-237.43 2641.38,-216.67 2409.78,-202.77"/>
<polygon fill="black" stroke="black" points="2409.71,-199.26 2399.52,-202.16 2409.29,-206.25 2409.71,-199.26"/>
</g>
<!-- Node0x61b966901110&#45;&gt;Node0x61b966787b30 -->
<g id="edge44" class="edge">
<title>Node0x61b966901110&#45;&gt;Node0x61b966787b30</title>
<path fill="none" stroke="black" d="M3519.74,-252.74C3724.53,-243.52 4049.57,-225.86 4068,-206 4079.18,-193.94 4079.49,-180.76 4068,-169 4037.9,-138.2 2560.82,-137.58 2518,-133 2514.26,-132.6 2510.45,-132.13 2506.6,-131.6"/>
<polygon fill="black" stroke="black" points="2506.78,-128.09 2496.38,-130.08 2505.75,-135.01 2506.78,-128.09"/>
</g>
<!-- Node0x61b966901110&#45;&gt;Node0x61b9668926f0 -->
<g id="edge48" class="edge">
<title>Node0x61b966901110&#45;&gt;Node0x61b9668926f0</title>
<path fill="none" stroke="black" d="M3414.16,-242.49C3449.8,-232.25 3495.35,-219.16 3532.67,-208.43"/>
<polygon fill="black" stroke="black" points="3533.82,-211.74 3542.46,-205.61 3531.89,-205.01 3533.82,-211.74"/>
</g>
<!-- Node0x61b966901110&#45;&gt;Node0x61b9668d0330 -->
<g id="edge47" class="edge">
<title>Node0x61b966901110&#45;&gt;Node0x61b9668d0330</title>
<path fill="none" stroke="black" d="M3355.61,-242.37C3355.43,-222.72 3352.35,-190.45 3336,-169 3292.97,-112.57 3262.66,-113.93 3194,-96 3050.44,-58.51 1964.42,-45.17 1748.33,-42.87"/>
<polygon fill="black" stroke="black" points="1748.17,-39.37 1738.13,-42.77 1748.1,-46.37 1748.17,-39.37"/>
</g>
<!-- Node0x61b966901110&#45;&gt;Node0x61b9668d1750 -->
<g id="edge52" class="edge">
<title>Node0x61b966901110&#45;&gt;Node0x61b9668d1750</title>
<path fill="none" stroke="black" d="M3222.78,-242.49C3139.18,-231.74 3031.15,-217.85 2945.62,-206.84"/>
<polygon fill="black" stroke="black" points="2945.94,-203.36 2935.57,-205.55 2945.04,-210.3 2945.94,-203.36"/>
</g>
<!-- Node0x61b966901110&#45;&gt;Node0x61b9668d2b50 -->
<g id="edge53" class="edge">
<title>Node0x61b966901110&#45;&gt;Node0x61b9668d2b50</title>
<path fill="none" stroke="black" d="M3190.33,-257.08C2874.12,-251.82 2191.38,-237.32 1936.2,-205.98"/>
<polygon fill="black" stroke="black" points="1936.57,-202.5 1926.21,-204.72 1935.69,-209.44 1936.57,-202.5"/>
</g>
<!-- Node0x61b966901110&#45;&gt;Node0x61b9668d3db0 -->
<g id="edge45" class="edge">
<title>Node0x61b966901110&#45;&gt;Node0x61b9668d3db0</title>
<path fill="none" stroke="black" d="M3519.6,-251.61C3648.42,-243.7 3809.18,-229.3 3830,-206 3840.96,-193.74 3841.46,-180.8 3830,-169 3782.45,-120.04 2669.03,-145.85 2602,-133 2598.34,-132.3 2594.6,-131.36 2590.89,-130.27"/>
<polygon fill="black" stroke="black" points="2591.83,-126.9 2581.24,-127.14 2589.67,-133.56 2591.83,-126.9"/>
</g>
<!-- Node0x61b966901110&#45;&gt;Node0x61b9668d01f0 -->
<g id="edge49" class="edge">
<title>Node0x61b966901110&#45;&gt;Node0x61b9668d01f0</title>
<path fill="none" stroke="black" d="M3307.57,-242.49C3279.62,-232.47 3244.04,-219.71 3214.5,-209.12"/>
<polygon fill="black" stroke="black" points="3215.32,-205.69 3204.73,-205.61 3212.96,-212.28 3215.32,-205.69"/>
</g>
<!-- Node0x61b966901110&#45;&gt;Node0x61b9668dbd70 -->
<g id="edge50" class="edge">
<title>Node0x61b966901110&#45;&gt;Node0x61b9668dbd70</title>
<path fill="none" stroke="black" d="M3190.3,-254.59C3014.29,-248.1 2745.92,-234.32 2628.94,-205.55"/>
<polygon fill="black" stroke="black" points="2629.66,-202.12 2619.1,-202.99 2627.9,-208.89 2629.66,-202.12"/>
</g>
<!-- Node0x61b966900fc0 -->
<g id="node41" class="node">
<title>Node0x61b966900fc0</title>
<polygon fill="none" stroke="black" points="3877,-169.5 3877,-205.5 3931,-205.5 3931,-169.5 3877,-169.5"/>
<text text-anchor="middle" x="3904" y="-183.8" font-family="Times,serif" font-size="14.00">tan</text>
</g>
<!-- Node0x61b966901110&#45;&gt;Node0x61b966900fc0 -->
<g id="edge51" class="edge">
<title>Node0x61b966901110&#45;&gt;Node0x61b966900fc0</title>
<path fill="none" stroke="black" d="M3519.65,-254.58C3620.17,-248.54 3750.56,-235.21 3863,-206 3864.26,-205.67 3865.54,-205.31 3866.82,-204.92"/>
<polygon fill="black" stroke="black" points="3868.31,-208.11 3876.6,-201.51 3866.01,-201.5 3868.31,-208.11"/>
</g>
<!-- Node0x61b966900eb0 -->
<g id="node42" class="node">
<title>Node0x61b966900eb0</title>
<polygon fill="none" stroke="black" points="3949,-169.5 3949,-205.5 4059,-205.5 4059,-169.5 3949,-169.5"/>
<text text-anchor="middle" x="4004" y="-183.8" font-family="Times,serif" font-size="14.00">llvm.fabs.f64</text>
</g>
<!-- Node0x61b966901110&#45;&gt;Node0x61b966900eb0 -->
<g id="edge54" class="edge">
<title>Node0x61b966901110&#45;&gt;Node0x61b966900eb0</title>
<path fill="none" stroke="black" d="M3519.63,-252.18C3634.78,-245.23 3792.12,-232.06 3938.88,-206.02"/>
<polygon fill="black" stroke="black" points="3939.76,-209.42 3948.98,-204.2 3938.52,-202.53 3939.76,-209.42"/>
</g>
</g>
</svg>
