<?xml version="1.0" encoding="UTF-8" standalone="no"?>
<!DOCTYPE svg PUBLIC "-//W3C//DTD SVG 1.1//EN"
 "http://www.w3.org/Graphics/SVG/1.1/DTD/svg11.dtd">
<!-- Generated by graphviz version 2.43.0 (0)
 -->
<!-- Title: Call graph: /home/h02332/po/research/call&#45;graph/iccdev/proflib/IccCAM.ll Pages: 1 -->
<svg width="1459pt" height="14400pt"
 viewBox="0.00 0.00 1459.34 14400.00" xmlns="http://www.w3.org/2000/svg" xmlns:xlink="http://www.w3.org/1999/xlink">
<g id="graph0" class="graph" transform="scale(1 1) rotate(0) translate(36 14400.14)">
<title>Call graph: /home/h02332/po/research/call&#45;graph/iccdev/proflib/IccCAM.ll</title>
<polygon fill="white" stroke="transparent" points="-36,36 -36,-14400.14 1427,-14400.14 1427,36 -36,36"/>
<!-- Node0x61b9667a5650 -->
<g id="node1" class="node">
<title>Node0x61b9667a5650</title>
<path fill="#f0f4ff" stroke="black" d="M947,-651.14C947,-651.14 741,-651.14 741,-651.14 735,-651.14 729,-645.14 729,-639.14 729,-639.14 729,-627.14 729,-627.14 729,-621.14 735,-615.14 741,-615.14 741,-615.14 947,-615.14 947,-615.14 953,-615.14 959,-621.14 959,-627.14 959,-627.14 959,-639.14 959,-639.14 959,-645.14 953,-651.14 947,-651.14"/>
<text text-anchor="middle" x="844" y="-630.94" font-family="Courier,monospace" font-size="9.00">{CIccCamConverter::Multiply_vect_by_mx()}</text>
</g>
<!-- Node0x61b966787b30 -->
<g id="node2" class="node">
<title>Node0x61b966787b30</title>
<path fill="#f0f4ff" stroke="black" d="M1194.5,-591.14C1194.5,-591.14 1109.5,-591.14 1109.5,-591.14 1103.5,-591.14 1097.5,-585.14 1097.5,-579.14 1097.5,-579.14 1097.5,-567.14 1097.5,-567.14 1097.5,-561.14 1103.5,-555.14 1109.5,-555.14 1109.5,-555.14 1194.5,-555.14 1194.5,-555.14 1200.5,-555.14 1206.5,-561.14 1206.5,-567.14 1206.5,-567.14 1206.5,-579.14 1206.5,-579.14 1206.5,-585.14 1200.5,-591.14 1194.5,-591.14"/>
<text text-anchor="middle" x="1152" y="-570.94" font-family="Courier,monospace" font-size="9.00">{llvm.fmuladd.f32}</text>
</g>
<!-- Node0x61b9667a5650&#45;&gt;Node0x61b966787b30 -->
<g id="edge1" class="edge">
<title>Node0x61b9667a5650&#45;&gt;Node0x61b966787b30</title>
<path fill="none" stroke="#4a6fa5" d="M936.81,-615.13C986.44,-605.4 1046.35,-593.66 1090.18,-585.06"/>
<polygon fill="#4a6fa5" stroke="#4a6fa5" points="1090.67,-587.46 1097.07,-583.71 1089.73,-582.65 1090.67,-587.46"/>
</g>
<!-- Node0x61b9667cd840 -->
<g id="node3" class="node">
<title>Node0x61b9667cd840</title>
<path fill="#f0f4ff" stroke="black" d="M947,-964.14C947,-964.14 741,-964.14 741,-964.14 735,-964.14 729,-958.14 729,-952.14 729,-952.14 729,-940.14 729,-940.14 729,-934.14 735,-928.14 741,-928.14 741,-928.14 947,-928.14 947,-928.14 953,-928.14 959,-934.14 959,-940.14 959,-940.14 959,-952.14 959,-952.14 959,-958.14 953,-964.14 947,-964.14"/>
<text text-anchor="middle" x="844" y="-943.94" font-family="Courier,monospace" font-size="9.00">{CIccCamConverter::ReferenceConditions()}</text>
</g>
<!-- Node0x61b9668926f0 -->
<g id="node4" class="node">
<title>Node0x61b9668926f0</title>
<path fill="#f0f4ff" stroke="black" d="M955,-332.14C955,-332.14 733,-332.14 733,-332.14 727,-332.14 721,-326.14 721,-320.14 721,-320.14 721,-308.14 721,-308.14 721,-302.14 727,-296.14 733,-296.14 733,-296.14 955,-296.14 955,-296.14 961,-296.14 967,-302.14 967,-308.14 967,-308.14 967,-320.14 967,-320.14 967,-326.14 961,-332.14 955,-332.14"/>
<text text-anchor="middle" x="844" y="-311.94" font-family="Courier,monospace" font-size="9.00">{CIccCamConverter::ReferenceConditionsInv()}</text>
</g>
<!-- Node0x61b9667f2d40 -->
<g id="node5" class="node">
<title>Node0x61b9667f2d40</title>
<path fill="#f0f4ff" stroke="black" d="M1231.5,-1088.14C1231.5,-1088.14 1072.5,-1088.14 1072.5,-1088.14 1066.5,-1088.14 1060.5,-1082.14 1060.5,-1076.14 1060.5,-1076.14 1060.5,-1064.14 1060.5,-1064.14 1060.5,-1058.14 1066.5,-1052.14 1072.5,-1052.14 1072.5,-1052.14 1231.5,-1052.14 1231.5,-1052.14 1237.5,-1052.14 1243.5,-1058.14 1243.5,-1064.14 1243.5,-1064.14 1243.5,-1076.14 1243.5,-1076.14 1243.5,-1082.14 1237.5,-1088.14 1231.5,-1088.14"/>
<text text-anchor="middle" x="1152" y="-1067.94" font-family="Courier,monospace" font-size="9.00">{CIccCamConverter::F_Function()}</text>
</g>
<!-- Node0x61b9668d0330 -->
<g id="node6" class="node">
<title>Node0x61b9668d0330</title>
<path fill="#f0f4ff" stroke="black" d="M1379,-948.14C1379,-948.14 1349,-948.14 1349,-948.14 1343,-948.14 1337,-942.14 1337,-936.14 1337,-936.14 1337,-924.14 1337,-924.14 1337,-918.14 1343,-912.14 1349,-912.14 1349,-912.14 1379,-912.14 1379,-912.14 1385,-912.14 1391,-918.14 1391,-924.14 1391,-924.14 1391,-936.14 1391,-936.14 1391,-942.14 1385,-948.14 1379,-948.14"/>
<text text-anchor="middle" x="1364" y="-927.94" font-family="Courier,monospace" font-size="9.00">{pow}</text>
</g>
<!-- Node0x61b9667f2d40&#45;&gt;Node0x61b9668d0330 -->
<g id="edge2" class="edge">
<title>Node0x61b9667f2d40&#45;&gt;Node0x61b9668d0330</title>
<path fill="none" stroke="#4a6fa5" d="M1183.31,-1051.89C1202.82,-1040 1228.62,-1023.98 1251,-1009.14 1278.85,-990.67 1309.85,-968.69 1332.17,-952.6"/>
<polygon fill="#4a6fa5" stroke="#4a6fa5" points="1333.69,-954.53 1337.93,-948.44 1330.82,-950.55 1333.69,-954.53"/>
</g>
<!-- Node0x61b9668d0270 -->
<g id="node7" class="node">
<title>Node0x61b9668d0270</title>
<path fill="#f0f4ff" stroke="black" d="M1231.5,-994.14C1231.5,-994.14 1072.5,-994.14 1072.5,-994.14 1066.5,-994.14 1060.5,-988.14 1060.5,-982.14 1060.5,-982.14 1060.5,-970.14 1060.5,-970.14 1060.5,-964.14 1066.5,-958.14 1072.5,-958.14 1072.5,-958.14 1231.5,-958.14 1231.5,-958.14 1237.5,-958.14 1243.5,-964.14 1243.5,-970.14 1243.5,-970.14 1243.5,-982.14 1243.5,-982.14 1243.5,-988.14 1237.5,-994.14 1231.5,-994.14"/>
<text text-anchor="middle" x="1152" y="-973.94" font-family="Courier,monospace" font-size="9.00">{CIccCamConverter::H_Function()}</text>
</g>
<!-- Node0x61b9668d0270&#45;&gt;Node0x61b9668d0330 -->
<g id="edge3" class="edge">
<title>Node0x61b9668d0270&#45;&gt;Node0x61b9668d0330</title>
<path fill="none" stroke="#4a6fa5" d="M1235.39,-958.09C1268.38,-950.86 1304.48,-942.96 1329.84,-937.4"/>
<polygon fill="#4a6fa5" stroke="#4a6fa5" points="1330.38,-939.79 1336.7,-935.9 1329.34,-935 1330.38,-939.79"/>
</g>
<!-- Node0x61b9668d4e50 -->
<g id="node8" class="node">
<title>Node0x61b9668d4e50</title>
<path fill="#f0f4ff" stroke="black" d="M1239,-364.14C1239,-364.14 1065,-364.14 1065,-364.14 1059,-364.14 1053,-358.14 1053,-352.14 1053,-352.14 1053,-340.14 1053,-340.14 1053,-334.14 1059,-328.14 1065,-328.14 1065,-328.14 1239,-328.14 1239,-328.14 1245,-328.14 1251,-334.14 1251,-340.14 1251,-340.14 1251,-352.14 1251,-352.14 1251,-358.14 1245,-364.14 1239,-364.14"/>
<text text-anchor="middle" x="1152" y="-343.94" font-family="Courier,monospace" font-size="9.00">{CIccCamConverter::H_FunctionInv()}</text>
</g>
<!-- Node0x61b9668d4e50&#45;&gt;Node0x61b9668d0330 -->
<g id="edge4" class="edge">
<title>Node0x61b9668d4e50&#45;&gt;Node0x61b9668d0330</title>
<path fill="none" stroke="#4a6fa5" d="M1170.6,-364.35C1192.63,-388.14 1230,-431.98 1251,-476.14 1323.66,-628.93 1352.24,-833.83 1360.36,-904.74"/>
<polygon fill="#4a6fa5" stroke="#4a6fa5" points="1357.95,-905.26 1361.17,-911.95 1362.82,-904.72 1357.95,-905.26"/>
</g>
<!-- Node0x61b9668d4980 -->
<g id="node9" class="node">
<title>Node0x61b9668d4980</title>
<path fill="#f0f4ff" stroke="black" d="M923.5,-1147.14C923.5,-1147.14 764.5,-1147.14 764.5,-1147.14 758.5,-1147.14 752.5,-1141.14 752.5,-1135.14 752.5,-1135.14 752.5,-1123.14 752.5,-1123.14 752.5,-1117.14 758.5,-1111.14 764.5,-1111.14 764.5,-1111.14 923.5,-1111.14 923.5,-1111.14 929.5,-1111.14 935.5,-1117.14 935.5,-1123.14 935.5,-1123.14 935.5,-1135.14 935.5,-1135.14 935.5,-1141.14 929.5,-1147.14 923.5,-1147.14"/>
<text text-anchor="middle" x="844" y="-1126.94" font-family="Courier,monospace" font-size="9.00">{CIccCamConverter::Hyperbolic()}</text>
</g>
<!-- Node0x61b9668d4980&#45;&gt;Node0x61b9667f2d40 -->
<g id="edge6" class="edge">
<title>Node0x61b9668d4980&#45;&gt;Node0x61b9667f2d40</title>
<path fill="none" stroke="#4a6fa5" d="M935.57,-1111.67C972.65,-1104.52 1015.63,-1096.24 1053.41,-1088.95"/>
<polygon fill="#4a6fa5" stroke="#4a6fa5" points="1053.99,-1091.34 1060.4,-1087.61 1053.06,-1086.53 1053.99,-1091.34"/>
</g>
<!-- Node0x61b9668d4980&#45;&gt;Node0x61b9668d0270 -->
<g id="edge5" class="edge">
<title>Node0x61b9668d4980&#45;&gt;Node0x61b9668d0270</title>
<path fill="none" stroke="#4a6fa5" d="M909.4,-1111.13C928.31,-1105.02 948.8,-1097.57 967,-1089.14 982.33,-1082.04 1067.33,-1028.89 1116.26,-998.08"/>
<polygon fill="#4a6fa5" stroke="#4a6fa5" points="1117.72,-1000.06 1122.33,-994.25 1115.11,-995.91 1117.72,-1000.06"/>
</g>
<!-- Node0x61b9668d1750 -->
<g id="node10" class="node">
<title>Node0x61b9668d1750</title>
<path fill="#f0f4ff" stroke="black" d="M931,-267.14C931,-267.14 757,-267.14 757,-267.14 751,-267.14 745,-261.14 745,-255.14 745,-255.14 745,-243.14 745,-243.14 745,-237.14 751,-231.14 757,-231.14 757,-231.14 931,-231.14 931,-231.14 937,-231.14 943,-237.14 943,-243.14 943,-243.14 943,-255.14 943,-255.14 943,-261.14 937,-267.14 931,-267.14"/>
<text text-anchor="middle" x="844" y="-246.94" font-family="Courier,monospace" font-size="9.00">{CIccCamConverter::HyperbolicInv()}</text>
</g>
<!-- Node0x61b9668d1750&#45;&gt;Node0x61b9667f2d40 -->
<g id="edge7" class="edge">
<title>Node0x61b9668d1750&#45;&gt;Node0x61b9667f2d40</title>
<path fill="none" stroke="#4a6fa5" d="M943.28,-263.9C952.24,-268.54 960.4,-274.5 967,-282.14 1179.62,-528.42 878.55,-734.49 1053,-1009.14 1063.77,-1026.09 1081.12,-1039.11 1098.25,-1048.69"/>
<polygon fill="#4a6fa5" stroke="#4a6fa5" points="1097.21,-1050.91 1104.54,-1052.06 1099.53,-1046.6 1097.21,-1050.91"/>
</g>
<!-- Node0x61b9668d1750&#45;&gt;Node0x61b9668d0270 -->
<g id="edge8" class="edge">
<title>Node0x61b9668d1750&#45;&gt;Node0x61b9668d0270</title>
<path fill="none" stroke="#4a6fa5" d="M943.13,-264.45C952.06,-268.99 960.26,-274.78 967,-282.14 1113.98,-442.6 987.7,-556.56 1053,-764.14 1075.31,-835.07 1115.95,-913.17 1137.21,-951.77"/>
<polygon fill="#4a6fa5" stroke="#4a6fa5" points="1135.16,-953.12 1140.69,-958.06 1139.44,-950.75 1135.16,-953.12"/>
</g>
<!-- Node0x61b9668d1750&#45;&gt;Node0x61b9668d4e50 -->
<g id="edge9" class="edge">
<title>Node0x61b9668d1750&#45;&gt;Node0x61b9668d4e50</title>
<path fill="none" stroke="#4a6fa5" d="M914.92,-267.14C932.02,-271.79 950.23,-276.96 967,-282.14 1010.5,-295.57 1059.14,-312.57 1095.47,-325.68"/>
<polygon fill="#4a6fa5" stroke="#4a6fa5" points="1094.69,-328 1102.11,-328.08 1096.36,-323.39 1094.69,-328"/>
</g>
<!-- Node0x61b9668d2790 -->
<g id="node11" class="node">
<title>Node0x61b9668d2790</title>
<path fill="#f0f4ff" stroke="black" d="M560,-7737.14C560,-7737.14 412,-7737.14 412,-7737.14 406,-7737.14 400,-7731.14 400,-7725.14 400,-7725.14 400,-7713.14 400,-7713.14 400,-7707.14 406,-7701.14 412,-7701.14 412,-7701.14 560,-7701.14 560,-7701.14 566,-7701.14 572,-7707.14 572,-7713.14 572,-7713.14 572,-7725.14 572,-7725.14 572,-7731.14 566,-7737.14 560,-7737.14"/>
<text text-anchor="middle" x="486" y="-7716.94" font-family="Courier,monospace" font-size="9.00">{CIccCamConverter::IccCam_e()}</text>
</g>
<!-- Node0x61b9668d1c50 -->
<g id="node12" class="node">
<title>Node0x61b9668d1c50</title>
<path fill="#f0f4ff" stroke="black" d="M899.5,-7672.14C899.5,-7672.14 788.5,-7672.14 788.5,-7672.14 782.5,-7672.14 776.5,-7666.14 776.5,-7660.14 776.5,-7660.14 776.5,-7648.14 776.5,-7648.14 776.5,-7642.14 782.5,-7636.14 788.5,-7636.14 788.5,-7636.14 899.5,-7636.14 899.5,-7636.14 905.5,-7636.14 911.5,-7642.14 911.5,-7648.14 911.5,-7648.14 911.5,-7660.14 911.5,-7660.14 911.5,-7666.14 905.5,-7672.14 899.5,-7672.14"/>
<text text-anchor="middle" x="844" y="-7651.94" font-family="Courier,monospace" font-size="9.00">{llvm.memcpy.p0.p0.i64}</text>
</g>
<!-- Node0x61b9668d2790&#45;&gt;Node0x61b9668d1c50 -->
<g id="edge10" class="edge">
<title>Node0x61b9668d2790&#45;&gt;Node0x61b9668d1c50</title>
<path fill="none" stroke="#4a6fa5" d="M572.27,-7703.57C632.24,-7692.62 711.69,-7678.11 768.99,-7667.65"/>
<polygon fill="#4a6fa5" stroke="#4a6fa5" points="769.78,-7670 776.22,-7666.33 768.9,-7665.18 769.78,-7670"/>
</g>
<!-- Node0x61b9668d19d0 -->
<g id="node13" class="node">
<title>Node0x61b9668d19d0</title>
<path fill="#f0f4ff" stroke="black" d="M581,-1085.14C581,-1085.14 391,-1085.14 391,-1085.14 385,-1085.14 379,-1079.14 379,-1073.14 379,-1073.14 379,-1061.14 379,-1061.14 379,-1055.14 385,-1049.14 391,-1049.14 391,-1049.14 581,-1049.14 581,-1049.14 587,-1049.14 593,-1055.14 593,-1061.14 593,-1061.14 593,-1073.14 593,-1073.14 593,-1079.14 587,-1085.14 581,-1085.14"/>
<text text-anchor="middle" x="486" y="-1064.94" font-family="Courier,monospace" font-size="9.00">{CIccCamConverter::CalcCoefficients()}</text>
</g>
<!-- Node0x61b9668d19d0&#45;&gt;Node0x61b9667a5650 -->
<g id="edge18" class="edge">
<title>Node0x61b9668d19d0&#45;&gt;Node0x61b9667a5650</title>
<path fill="none" stroke="#4a6fa5" d="M495.4,-1048.77C528.38,-977.44 650.6,-720.03 721,-666.14 727,-661.54 733.6,-657.59 740.52,-654.18"/>
<polygon fill="#4a6fa5" stroke="#4a6fa5" points="741.64,-656.36 746.96,-651.2 739.58,-651.92 741.64,-656.36"/>
</g>
<!-- Node0x61b9668d19d0&#45;&gt;Node0x61b966787b30 -->
<g id="edge12" class="edge">
<title>Node0x61b9668d19d0&#45;&gt;Node0x61b966787b30</title>
<path fill="none" stroke="#4a6fa5" d="M593.03,-1049.1C732.26,-1025.22 959.98,-985.38 967,-979.14 1064.26,-892.61 992.94,-814.64 1053,-699.14 1073.44,-659.82 1106.58,-620.46 1128.58,-596.45"/>
<polygon fill="#4a6fa5" stroke="#4a6fa5" points="1130.42,-598.07 1133.37,-591.27 1126.82,-594.75 1130.42,-598.07"/>
</g>
<!-- Node0x61b9668d19d0&#45;&gt;Node0x61b9667cd840 -->
<g id="edge17" class="edge">
<title>Node0x61b9668d19d0&#45;&gt;Node0x61b9667cd840</title>
<path fill="none" stroke="#4a6fa5" d="M538.5,-1049.04C585.86,-1032.46 658.06,-1007.35 721,-986.14 740.37,-979.61 761.51,-972.63 780.68,-966.35"/>
<polygon fill="#4a6fa5" stroke="#4a6fa5" points="781.47,-968.67 787.37,-964.16 779.95,-964.01 781.47,-968.67"/>
</g>
<!-- Node0x61b9668d19d0&#45;&gt;Node0x61b9667f2d40 -->
<g id="edge15" class="edge">
<title>Node0x61b9668d19d0&#45;&gt;Node0x61b9667f2d40</title>
<path fill="none" stroke="#4a6fa5" d="M506.99,-1085.2C545.18,-1118.36 632.62,-1187.83 721,-1213.14 826.11,-1243.24 863.58,-1248.6 967,-1213.14 1036.38,-1189.35 1099.78,-1127.53 1130.87,-1093.48"/>
<polygon fill="#4a6fa5" stroke="#4a6fa5" points="1132.7,-1095.1 1135.57,-1088.26 1129.07,-1091.82 1132.7,-1095.1"/>
</g>
<!-- Node0x61b9668d19d0&#45;&gt;Node0x61b9668d0330 -->
<g id="edge11" class="edge">
<title>Node0x61b9668d19d0&#45;&gt;Node0x61b9668d0330</title>
<path fill="none" stroke="#4a6fa5" d="M502.53,-1085.34C537.04,-1124.2 624.68,-1214.38 721,-1247.14 824.51,-1282.34 860.66,-1272.56 967,-1247.14 1104.64,-1214.24 1145.8,-1197.8 1251,-1103.14 1299.2,-1059.76 1335.28,-991.11 1352.25,-954.69"/>
<polygon fill="#4a6fa5" stroke="#4a6fa5" points="1354.5,-955.67 1355.2,-948.28 1350.05,-953.62 1354.5,-955.67"/>
</g>
<!-- Node0x61b9668d19d0&#45;&gt;Node0x61b9668d0270 -->
<g id="edge16" class="edge">
<title>Node0x61b9668d19d0&#45;&gt;Node0x61b9668d0270</title>
<path fill="none" stroke="#4a6fa5" d="M515.9,-1085.21C593.52,-1131.24 811.21,-1243.68 967,-1162.14 1026.42,-1131.03 1004.58,-1084.55 1053,-1038.14 1069.45,-1022.37 1090.52,-1008.42 1108.9,-997.77"/>
<polygon fill="#4a6fa5" stroke="#4a6fa5" points="1110.15,-999.88 1115.02,-994.28 1107.72,-995.62 1110.15,-999.88"/>
</g>
<!-- Node0x61b9668d19d0&#45;&gt;Node0x61b9668d4980 -->
<g id="edge14" class="edge">
<title>Node0x61b9668d19d0&#45;&gt;Node0x61b9668d4980</title>
<path fill="none" stroke="#4a6fa5" d="M590.45,-1085.15C639.27,-1093.66 697.22,-1103.75 745.29,-1112.12"/>
<polygon fill="#4a6fa5" stroke="#4a6fa5" points="744.99,-1114.55 752.31,-1113.34 745.83,-1109.73 744.99,-1114.55"/>
</g>
<!-- Node0x61b9668d2b50 -->
<g id="node14" class="node">
<title>Node0x61b9668d2b50</title>
<path fill="#f0f4ff" stroke="black" d="M886.5,-716.14C886.5,-716.14 801.5,-716.14 801.5,-716.14 795.5,-716.14 789.5,-710.14 789.5,-704.14 789.5,-704.14 789.5,-692.14 789.5,-692.14 789.5,-686.14 795.5,-680.14 801.5,-680.14 801.5,-680.14 886.5,-680.14 886.5,-680.14 892.5,-680.14 898.5,-686.14 898.5,-692.14 898.5,-692.14 898.5,-704.14 898.5,-704.14 898.5,-710.14 892.5,-716.14 886.5,-716.14"/>
<text text-anchor="middle" x="844" y="-695.94" font-family="Courier,monospace" font-size="9.00">{llvm.fmuladd.f64}</text>
</g>
<!-- Node0x61b9668d19d0&#45;&gt;Node0x61b9668d2b50 -->
<g id="edge13" class="edge">
<title>Node0x61b9668d19d0&#45;&gt;Node0x61b9668d2b50</title>
<path fill="none" stroke="#4a6fa5" d="M494.27,-1048.86C517.79,-992.2 597.47,-818.08 721,-731.14 738.97,-718.49 761.56,-710.68 782.4,-705.87"/>
<polygon fill="#4a6fa5" stroke="#4a6fa5" points="783.07,-708.23 789.39,-704.35 782.03,-703.44 783.07,-708.23"/>
</g>
<!-- Node0x61b9668d3db0 -->
<g id="node15" class="node">
<title>Node0x61b9668d3db0</title>
<path fill="#f0f4ff" stroke="black" d="M1167,-749.14C1167,-749.14 1137,-749.14 1137,-749.14 1131,-749.14 1125,-743.14 1125,-737.14 1125,-737.14 1125,-725.14 1125,-725.14 1125,-719.14 1131,-713.14 1137,-713.14 1137,-713.14 1167,-713.14 1167,-713.14 1173,-713.14 1179,-719.14 1179,-725.14 1179,-725.14 1179,-737.14 1179,-737.14 1179,-743.14 1173,-749.14 1167,-749.14"/>
<text text-anchor="middle" x="1152" y="-728.94" font-family="Courier,monospace" font-size="9.00">{sqrt}</text>
</g>
<!-- Node0x61b9668d19d0&#45;&gt;Node0x61b9668d3db0 -->
<g id="edge19" class="edge">
<title>Node0x61b9668d19d0&#45;&gt;Node0x61b9668d3db0</title>
<path fill="none" stroke="#4a6fa5" d="M593.15,-1085.1C696.37,-1096.89 853.75,-1099.27 967,-1030.14 1020.94,-997.21 1108.23,-821.42 1139.45,-755.83"/>
<polygon fill="#4a6fa5" stroke="#4a6fa5" points="1141.68,-756.85 1142.46,-749.48 1137.25,-754.75 1141.68,-756.85"/>
</g>
<!-- Node0x61b9668d01f0 -->
<g id="node16" class="node">
<title>Node0x61b9668d01f0</title>
<path fill="#f0f4ff" stroke="black" d="M918,-527.14C918,-527.14 770,-527.14 770,-527.14 764,-527.14 758,-521.14 758,-515.14 758,-515.14 758,-503.14 758,-503.14 758,-497.14 764,-491.14 770,-491.14 770,-491.14 918,-491.14 918,-491.14 924,-491.14 930,-497.14 930,-503.14 930,-503.14 930,-515.14 930,-515.14 930,-521.14 924,-527.14 918,-527.14"/>
<text text-anchor="middle" x="844" y="-506.94" font-family="Courier,monospace" font-size="9.00">{CIccCamConverter::ab2chDeg()}</text>
</g>
<!-- Node0x61b9668d01f0&#45;&gt;Node0x61b966787b30 -->
<g id="edge20" class="edge">
<title>Node0x61b9668d01f0&#45;&gt;Node0x61b966787b30</title>
<path fill="none" stroke="#4a6fa5" d="M930.24,-526.96C981.2,-537.62 1044.74,-550.91 1090.55,-560.49"/>
<polygon fill="#4a6fa5" stroke="#4a6fa5" points="1090.11,-562.9 1097.46,-561.94 1091.11,-558.11 1090.11,-562.9"/>
</g>
<!-- Node0x61b9668d01f0&#45;&gt;Node0x61b9668d3db0 -->
<g id="edge21" class="edge">
<title>Node0x61b9668d01f0&#45;&gt;Node0x61b9668d3db0</title>
<path fill="none" stroke="#4a6fa5" d="M870.04,-527.3C925.65,-567.65 1059.33,-664.63 1120.05,-708.68"/>
<polygon fill="#4a6fa5" stroke="#4a6fa5" points="1118.94,-710.9 1126.04,-713.03 1121.81,-706.94 1118.94,-710.9"/>
</g>
<!-- Node0x61b9668d2fd0 -->
<g id="node17" class="node">
<title>Node0x61b9668d2fd0</title>
<path fill="#f0f4ff" stroke="black" d="M1167,-526.14C1167,-526.14 1137,-526.14 1137,-526.14 1131,-526.14 1125,-520.14 1125,-514.14 1125,-514.14 1125,-502.14 1125,-502.14 1125,-496.14 1131,-490.14 1137,-490.14 1137,-490.14 1167,-490.14 1167,-490.14 1173,-490.14 1179,-496.14 1179,-502.14 1179,-502.14 1179,-514.14 1179,-514.14 1179,-520.14 1173,-526.14 1167,-526.14"/>
<text text-anchor="middle" x="1152" y="-505.94" font-family="Courier,monospace" font-size="9.00">{atan2}</text>
</g>
<!-- Node0x61b9668d01f0&#45;&gt;Node0x61b9668d2fd0 -->
<g id="edge22" class="edge">
<title>Node0x61b9668d01f0&#45;&gt;Node0x61b9668d2fd0</title>
<path fill="none" stroke="#4a6fa5" d="M930.24,-508.86C992.39,-508.66 1073.23,-508.39 1117.82,-508.25"/>
<polygon fill="#4a6fa5" stroke="#4a6fa5" points="1117.93,-510.7 1124.92,-508.22 1117.91,-505.8 1117.93,-510.7"/>
</g>
<!-- Node0x61b9668edb40 -->
<g id="node18" class="node">
<title>Node0x61b9668edb40</title>
<path fill="#f0f4ff" stroke="black" d="M220.5,-1280.14C220.5,-1280.14 30.5,-1280.14 30.5,-1280.14 24.5,-1280.14 18.5,-1274.14 18.5,-1268.14 18.5,-1268.14 18.5,-1256.14 18.5,-1256.14 18.5,-1250.14 24.5,-1244.14 30.5,-1244.14 30.5,-1244.14 220.5,-1244.14 220.5,-1244.14 226.5,-1244.14 232.5,-1250.14 232.5,-1256.14 232.5,-1256.14 232.5,-1268.14 232.5,-1268.14 232.5,-1274.14 226.5,-1280.14 220.5,-1280.14"/>
<text text-anchor="middle" x="125.5" y="-1259.94" font-family="Courier,monospace" font-size="9.00">{CIccCamConverter::CIccCamConverter()}</text>
</g>
<!-- Node0x61b9668edb40&#45;&gt;Node0x61b9668d19d0 -->
<g id="edge23" class="edge">
<title>Node0x61b9668edb40&#45;&gt;Node0x61b9668d19d0</title>
<path fill="none" stroke="#4a6fa5" d="M213.28,-1244.1C226.19,-1240.21 239.13,-1235.58 251,-1230.14 333.52,-1192.29 417.89,-1125.03 459.11,-1089.91"/>
<polygon fill="#4a6fa5" stroke="#4a6fa5" points="460.92,-1091.59 464.64,-1085.18 457.73,-1087.87 460.92,-1091.59"/>
</g>
<!-- Node0x61b9668f50a0 -->
<g id="node19" class="node">
<title>Node0x61b9668f50a0</title>
<path fill="#f0f4ff" stroke="black" d="M223,-10803.14C223,-10803.14 28,-10803.14 28,-10803.14 22,-10803.14 16,-10797.14 16,-10791.14 16,-10791.14 16,-10779.14 16,-10779.14 16,-10773.14 22,-10767.14 28,-10767.14 28,-10767.14 223,-10767.14 223,-10767.14 229,-10767.14 235,-10773.14 235,-10779.14 235,-10779.14 235,-10791.14 235,-10791.14 235,-10797.14 229,-10803.14 223,-10803.14"/>
<text text-anchor="middle" x="125.5" y="-10782.94" font-family="Courier,monospace" font-size="9.00">{CIccCamConverter::~CIccCamConverter()}</text>
</g>
<!-- Node0x61b9668f48a0 -->
<g id="node20" class="node">
<title>Node0x61b9668f48a0</title>
<path fill="#f0f4ff" stroke="black" d="M197,-7607.14C197,-7607.14 54,-7607.14 54,-7607.14 48,-7607.14 42,-7601.14 42,-7595.14 42,-7595.14 42,-7583.14 42,-7583.14 42,-7577.14 48,-7571.14 54,-7571.14 54,-7571.14 197,-7571.14 197,-7571.14 203,-7571.14 209,-7577.14 209,-7583.14 209,-7583.14 209,-7595.14 209,-7595.14 209,-7601.14 203,-7607.14 197,-7607.14"/>
<text text-anchor="middle" x="125.5" y="-7586.94" font-family="Courier,monospace" font-size="9.00">{CIccCamConverter::NewCopy()}</text>
</g>
<!-- Node0x61b9668f4770 -->
<g id="node21" class="node">
<title>Node0x61b9668f4770</title>
<path fill="#f0f4ff" stroke="black" d="M501,-7672.14C501,-7672.14 471,-7672.14 471,-7672.14 465,-7672.14 459,-7666.14 459,-7660.14 459,-7660.14 459,-7648.14 459,-7648.14 459,-7642.14 465,-7636.14 471,-7636.14 471,-7636.14 501,-7636.14 501,-7636.14 507,-7636.14 513,-7642.14 513,-7648.14 513,-7648.14 513,-7660.14 513,-7660.14 513,-7666.14 507,-7672.14 501,-7672.14"/>
<text text-anchor="middle" x="486" y="-7651.94" font-family="Courier,monospace" font-size="9.00">{new()}</text>
</g>
<!-- Node0x61b9668f48a0&#45;&gt;Node0x61b9668f4770 -->
<g id="edge24" class="edge">
<title>Node0x61b9668f48a0&#45;&gt;Node0x61b9668f4770</title>
<path fill="none" stroke="#4a6fa5" d="M209.2,-7604.13C286.18,-7618.09 397.03,-7638.19 451.79,-7648.12"/>
<polygon fill="#4a6fa5" stroke="#4a6fa5" points="451.5,-7650.55 458.82,-7649.39 452.37,-7645.73 451.5,-7650.55"/>
</g>
<!-- Node0x61b9668d4230 -->
<g id="node22" class="node">
<title>Node0x61b9668d4230</title>
<path fill="#f0f4ff" stroke="black" d="M623,-7607.14C623,-7607.14 349,-7607.14 349,-7607.14 343,-7607.14 337,-7601.14 337,-7595.14 337,-7595.14 337,-7583.14 337,-7583.14 337,-7577.14 343,-7571.14 349,-7571.14 349,-7571.14 623,-7571.14 623,-7571.14 629,-7571.14 635,-7577.14 635,-7583.14 635,-7583.14 635,-7595.14 635,-7595.14 635,-7601.14 629,-7607.14 623,-7607.14"/>
<text text-anchor="middle" x="486" y="-7586.94" font-family="Courier,monospace" font-size="9.00">{CIccCamConverter::operator=(CIccCamConverter const&amp;)}</text>
</g>
<!-- Node0x61b9668f48a0&#45;&gt;Node0x61b9668d4230 -->
<g id="edge25" class="edge">
<title>Node0x61b9668f48a0&#45;&gt;Node0x61b9668d4230</title>
<path fill="none" stroke="#4a6fa5" d="M209.2,-7589.14C245.07,-7589.14 288.29,-7589.14 329.77,-7589.14"/>
<polygon fill="#4a6fa5" stroke="#4a6fa5" points="329.94,-7591.59 336.94,-7589.14 329.94,-7586.69 329.94,-7591.59"/>
</g>
<!-- Node0x61b9668f72d0 -->
<g id="node23" class="node">
<title>Node0x61b9668f72d0</title>
<path fill="#f0f4ff" stroke="black" d="M507.5,-7542.14C507.5,-7542.14 464.5,-7542.14 464.5,-7542.14 458.5,-7542.14 452.5,-7536.14 452.5,-7530.14 452.5,-7530.14 452.5,-7518.14 452.5,-7518.14 452.5,-7512.14 458.5,-7506.14 464.5,-7506.14 464.5,-7506.14 507.5,-7506.14 507.5,-7506.14 513.5,-7506.14 519.5,-7512.14 519.5,-7518.14 519.5,-7518.14 519.5,-7530.14 519.5,-7530.14 519.5,-7536.14 513.5,-7542.14 507.5,-7542.14"/>
<text text-anchor="middle" x="486" y="-7521.94" font-family="Courier,monospace" font-size="9.00">{delete()}</text>
</g>
<!-- Node0x61b9668f48a0&#45;&gt;Node0x61b9668f72d0 -->
<g id="edge26" class="edge">
<title>Node0x61b9668f48a0&#45;&gt;Node0x61b9668f72d0</title>
<path fill="none" stroke="#4a6fa5" d="M209.2,-7574.14C283.16,-7560.73 388.4,-7541.65 445.1,-7531.37"/>
<polygon fill="#4a6fa5" stroke="#4a6fa5" points="445.66,-7533.76 452.11,-7530.1 444.78,-7528.94 445.66,-7533.76"/>
</g>
<!-- Node0x61b9668d4230&#45;&gt;Node0x61b9668d1c50 -->
<g id="edge27" class="edge">
<title>Node0x61b9668d4230&#45;&gt;Node0x61b9668d1c50</title>
<path fill="none" stroke="#4a6fa5" d="M585.69,-7607.16C643.79,-7617.76 716.05,-7630.96 769.19,-7640.66"/>
<polygon fill="#4a6fa5" stroke="#4a6fa5" points="768.9,-7643.1 776.23,-7641.95 769.78,-7638.28 768.9,-7643.1"/>
</g>
<!-- Node0x61b9668f6b80 -->
<g id="node24" class="node">
<title>Node0x61b9668f6b80</title>
<path fill="#f0f4ff" stroke="black" d="M178.5,-12433.14C178.5,-12433.14 72.5,-12433.14 72.5,-12433.14 66.5,-12433.14 60.5,-12427.14 60.5,-12421.14 60.5,-12421.14 60.5,-12409.14 60.5,-12409.14 60.5,-12403.14 66.5,-12397.14 72.5,-12397.14 72.5,-12397.14 178.5,-12397.14 178.5,-12397.14 184.5,-12397.14 190.5,-12403.14 190.5,-12409.14 190.5,-12409.14 190.5,-12421.14 190.5,-12421.14 190.5,-12427.14 184.5,-12433.14 178.5,-12433.14"/>
<text text-anchor="middle" x="125.5" y="-12412.94" font-family="Courier,monospace" font-size="9.00">{__gxx_personality_v0}</text>
</g>
<!-- Node0x61b9668f6750 -->
<g id="node25" class="node">
<title>Node0x61b9668f6750</title>
<path fill="#f0f4ff" stroke="black" d="M239,-1215.14C239,-1215.14 12,-1215.14 12,-1215.14 6,-1215.14 0,-1209.14 0,-1203.14 0,-1203.14 0,-1191.14 0,-1191.14 0,-1185.14 6,-1179.14 12,-1179.14 12,-1179.14 239,-1179.14 239,-1179.14 245,-1179.14 251,-1185.14 251,-1191.14 251,-1191.14 251,-1203.14 251,-1203.14 251,-1209.14 245,-1215.14 239,-1215.14"/>
<text text-anchor="middle" x="125.5" y="-1194.94" font-family="Courier,monospace" font-size="9.00">{CIccCamConverter::SetParameter_WhitePoint()}</text>
</g>
<!-- Node0x61b9668f6750&#45;&gt;Node0x61b9668d19d0 -->
<g id="edge28" class="edge">
<title>Node0x61b9668f6750&#45;&gt;Node0x61b9668d19d0</title>
<path fill="none" stroke="#4a6fa5" d="M204.05,-1179.06C219.71,-1174.89 235.98,-1170.18 251,-1165.14 318.39,-1142.5 393.82,-1109.45 440.37,-1088.12"/>
<polygon fill="#4a6fa5" stroke="#4a6fa5" points="441.4,-1090.34 446.74,-1085.19 439.36,-1085.88 441.4,-1090.34"/>
</g>
<!-- Node0x61b9668f62e0 -->
<g id="node26" class="node">
<title>Node0x61b9668f62e0</title>
<path fill="#f0f4ff" stroke="black" d="M218,-1150.14C218,-1150.14 33,-1150.14 33,-1150.14 27,-1150.14 21,-1144.14 21,-1138.14 21,-1138.14 21,-1126.14 21,-1126.14 21,-1120.14 27,-1114.14 33,-1114.14 33,-1114.14 218,-1114.14 218,-1114.14 224,-1114.14 230,-1120.14 230,-1126.14 230,-1126.14 230,-1138.14 230,-1138.14 230,-1144.14 224,-1150.14 218,-1150.14"/>
<text text-anchor="middle" x="125.5" y="-1129.94" font-family="Courier,monospace" font-size="9.00">{CIccCamConverter::SetParameter_La()}</text>
</g>
<!-- Node0x61b9668f62e0&#45;&gt;Node0x61b9668d19d0 -->
<g id="edge29" class="edge">
<title>Node0x61b9668f62e0&#45;&gt;Node0x61b9668d19d0</title>
<path fill="none" stroke="#4a6fa5" d="M225.89,-1114.12C273.29,-1105.52 330.05,-1095.23 378.36,-1086.47"/>
<polygon fill="#4a6fa5" stroke="#4a6fa5" points="378.97,-1088.85 385.42,-1085.19 378.1,-1084.03 378.97,-1088.85"/>
</g>
<!-- Node0x61b9668f8760 -->
<g id="node27" class="node">
<title>Node0x61b9668f8760</title>
<path fill="#f0f4ff" stroke="black" d="M218,-1085.14C218,-1085.14 33,-1085.14 33,-1085.14 27,-1085.14 21,-1079.14 21,-1073.14 21,-1073.14 21,-1061.14 21,-1061.14 21,-1055.14 27,-1049.14 33,-1049.14 33,-1049.14 218,-1049.14 218,-1049.14 224,-1049.14 230,-1055.14 230,-1061.14 230,-1061.14 230,-1073.14 230,-1073.14 230,-1079.14 224,-1085.14 218,-1085.14"/>
<text text-anchor="middle" x="125.5" y="-1064.94" font-family="Courier,monospace" font-size="9.00">{CIccCamConverter::SetParameter_Yb()}</text>
</g>
<!-- Node0x61b9668f8760&#45;&gt;Node0x61b9668d19d0 -->
<g id="edge30" class="edge">
<title>Node0x61b9668f8760&#45;&gt;Node0x61b9668d19d0</title>
<path fill="none" stroke="#4a6fa5" d="M230.19,-1067.14C274.46,-1067.14 326.25,-1067.14 371.53,-1067.14"/>
<polygon fill="#4a6fa5" stroke="#4a6fa5" points="371.74,-1069.59 378.74,-1067.14 371.74,-1064.69 371.74,-1069.59"/>
</g>
<!-- Node0x61b9668f9560 -->
<g id="node28" class="node">
<title>Node0x61b9668f9560</title>
<path fill="#f0f4ff" stroke="black" d="M215.5,-1020.14C215.5,-1020.14 35.5,-1020.14 35.5,-1020.14 29.5,-1020.14 23.5,-1014.14 23.5,-1008.14 23.5,-1008.14 23.5,-996.14 23.5,-996.14 23.5,-990.14 29.5,-984.14 35.5,-984.14 35.5,-984.14 215.5,-984.14 215.5,-984.14 221.5,-984.14 227.5,-990.14 227.5,-996.14 227.5,-996.14 227.5,-1008.14 227.5,-1008.14 227.5,-1014.14 221.5,-1020.14 215.5,-1020.14"/>
<text text-anchor="middle" x="125.5" y="-999.94" font-family="Courier,monospace" font-size="9.00">{CIccCamConverter::SetParameter_C()}</text>
</g>
<!-- Node0x61b9668f9560&#45;&gt;Node0x61b9668d19d0 -->
<g id="edge31" class="edge">
<title>Node0x61b9668f9560&#45;&gt;Node0x61b9668d19d0</title>
<path fill="none" stroke="#4a6fa5" d="M225.89,-1020.16C273.29,-1028.75 330.05,-1039.04 378.36,-1047.8"/>
<polygon fill="#4a6fa5" stroke="#4a6fa5" points="378.1,-1050.24 385.42,-1049.08 378.97,-1045.42 378.1,-1050.24"/>
</g>
<!-- Node0x61b9668f9300 -->
<g id="node29" class="node">
<title>Node0x61b9668f9300</title>
<path fill="#f0f4ff" stroke="black" d="M218,-955.14C218,-955.14 33,-955.14 33,-955.14 27,-955.14 21,-949.14 21,-943.14 21,-943.14 21,-931.14 21,-931.14 21,-925.14 27,-919.14 33,-919.14 33,-919.14 218,-919.14 218,-919.14 224,-919.14 230,-925.14 230,-931.14 230,-931.14 230,-943.14 230,-943.14 230,-949.14 224,-955.14 218,-955.14"/>
<text text-anchor="middle" x="125.5" y="-934.94" font-family="Courier,monospace" font-size="9.00">{CIccCamConverter::SetParameter_Nc()}</text>
</g>
<!-- Node0x61b9668f9300&#45;&gt;Node0x61b9668d19d0 -->
<g id="edge32" class="edge">
<title>Node0x61b9668f9300&#45;&gt;Node0x61b9668d19d0</title>
<path fill="none" stroke="#4a6fa5" d="M201.05,-955.15C217.62,-959.64 235.01,-964.73 251,-970.14 317.85,-992.74 392.82,-1025.11 439.48,-1046.13"/>
<polygon fill="#4a6fa5" stroke="#4a6fa5" points="438.48,-1048.37 445.87,-1049.02 440.5,-1043.9 438.48,-1048.37"/>
</g>
<!-- Node0x61b9668f8af0 -->
<g id="node30" class="node">
<title>Node0x61b9668f8af0</title>
<path fill="#f0f4ff" stroke="black" d="M215.5,-890.14C215.5,-890.14 35.5,-890.14 35.5,-890.14 29.5,-890.14 23.5,-884.14 23.5,-878.14 23.5,-878.14 23.5,-866.14 23.5,-866.14 23.5,-860.14 29.5,-854.14 35.5,-854.14 35.5,-854.14 215.5,-854.14 215.5,-854.14 221.5,-854.14 227.5,-860.14 227.5,-866.14 227.5,-866.14 227.5,-878.14 227.5,-878.14 227.5,-884.14 221.5,-890.14 215.5,-890.14"/>
<text text-anchor="middle" x="125.5" y="-869.94" font-family="Courier,monospace" font-size="9.00">{CIccCamConverter::SetParameter_F()}</text>
</g>
<!-- Node0x61b9668f8af0&#45;&gt;Node0x61b9668d19d0 -->
<g id="edge33" class="edge">
<title>Node0x61b9668f8af0&#45;&gt;Node0x61b9668d19d0</title>
<path fill="none" stroke="#4a6fa5" d="M210.61,-890.16C224.4,-894.32 238.31,-899.28 251,-905.14 333.06,-943 417.3,-1009.45 458.73,-1044.31"/>
<polygon fill="#4a6fa5" stroke="#4a6fa5" points="457.36,-1046.36 464.28,-1049.02 460.52,-1042.62 457.36,-1046.36"/>
</g>
<!-- Node0x61b9668fad50 -->
<g id="node31" class="node">
<title>Node0x61b9668fad50</title>
<path fill="#f0f4ff" stroke="black" d="M239,-13281.14C239,-13281.14 12,-13281.14 12,-13281.14 6,-13281.14 0,-13275.14 0,-13269.14 0,-13269.14 0,-13257.14 0,-13257.14 0,-13251.14 6,-13245.14 12,-13245.14 12,-13245.14 239,-13245.14 239,-13245.14 245,-13245.14 251,-13251.14 251,-13257.14 251,-13257.14 251,-13269.14 251,-13269.14 251,-13275.14 245,-13281.14 239,-13281.14"/>
<text text-anchor="middle" x="125.5" y="-13260.94" font-family="Courier,monospace" font-size="9.00">{CIccCamConverter::GetParameter_WhitePoint()}</text>
</g>
<!-- Node0x61b9668f3da0 -->
<g id="node32" class="node">
<title>Node0x61b9668f3da0</title>
<path fill="#f0f4ff" stroke="black" d="M218,-13737.14C218,-13737.14 33,-13737.14 33,-13737.14 27,-13737.14 21,-13731.14 21,-13725.14 21,-13725.14 21,-13713.14 21,-13713.14 21,-13707.14 27,-13701.14 33,-13701.14 33,-13701.14 218,-13701.14 218,-13701.14 224,-13701.14 230,-13707.14 230,-13713.14 230,-13713.14 230,-13725.14 230,-13725.14 230,-13731.14 224,-13737.14 218,-13737.14"/>
<text text-anchor="middle" x="125.5" y="-13716.94" font-family="Courier,monospace" font-size="9.00">{CIccCamConverter::GetParameter_La()}</text>
</g>
<!-- Node0x61b9668fbc10 -->
<g id="node33" class="node">
<title>Node0x61b9668fbc10</title>
<path fill="#f0f4ff" stroke="black" d="M218,-13998.14C218,-13998.14 33,-13998.14 33,-13998.14 27,-13998.14 21,-13992.14 21,-13986.14 21,-13986.14 21,-13974.14 21,-13974.14 21,-13968.14 27,-13962.14 33,-13962.14 33,-13962.14 218,-13962.14 218,-13962.14 224,-13962.14 230,-13968.14 230,-13974.14 230,-13974.14 230,-13986.14 230,-13986.14 230,-13992.14 224,-13998.14 218,-13998.14"/>
<text text-anchor="middle" x="125.5" y="-13977.94" font-family="Courier,monospace" font-size="9.00">{CIccCamConverter::GetParameter_Yb()}</text>
</g>
<!-- Node0x61b9668fb970 -->
<g id="node34" class="node">
<title>Node0x61b9668fb970</title>
<path fill="#f0f4ff" stroke="black" d="M215.5,-14161.14C215.5,-14161.14 35.5,-14161.14 35.5,-14161.14 29.5,-14161.14 23.5,-14155.14 23.5,-14149.14 23.5,-14149.14 23.5,-14137.14 23.5,-14137.14 23.5,-14131.14 29.5,-14125.14 35.5,-14125.14 35.5,-14125.14 215.5,-14125.14 215.5,-14125.14 221.5,-14125.14 227.5,-14131.14 227.5,-14137.14 227.5,-14137.14 227.5,-14149.14 227.5,-14149.14 227.5,-14155.14 221.5,-14161.14 215.5,-14161.14"/>
<text text-anchor="middle" x="125.5" y="-14140.94" font-family="Courier,monospace" font-size="9.00">{CIccCamConverter::GetParameter_C()}</text>
</g>
<!-- Node0x61b9668f3f80 -->
<g id="node35" class="node">
<title>Node0x61b9668f3f80</title>
<path fill="#f0f4ff" stroke="black" d="M218,-14275.14C218,-14275.14 33,-14275.14 33,-14275.14 27,-14275.14 21,-14269.14 21,-14263.14 21,-14263.14 21,-14251.14 21,-14251.14 21,-14245.14 27,-14239.14 33,-14239.14 33,-14239.14 218,-14239.14 218,-14239.14 224,-14239.14 230,-14245.14 230,-14251.14 230,-14251.14 230,-14263.14 230,-14263.14 230,-14269.14 224,-14275.14 218,-14275.14"/>
<text text-anchor="middle" x="125.5" y="-14254.94" font-family="Courier,monospace" font-size="9.00">{CIccCamConverter::GetParameter_Nc()}</text>
</g>
<!-- Node0x61b9668de0f0 -->
<g id="node36" class="node">
<title>Node0x61b9668de0f0</title>
<path fill="#f0f4ff" stroke="black" d="M215.5,-14364.14C215.5,-14364.14 35.5,-14364.14 35.5,-14364.14 29.5,-14364.14 23.5,-14358.14 23.5,-14352.14 23.5,-14352.14 23.5,-14340.14 23.5,-14340.14 23.5,-14334.14 29.5,-14328.14 35.5,-14328.14 35.5,-14328.14 215.5,-14328.14 215.5,-14328.14 221.5,-14328.14 227.5,-14334.14 227.5,-14340.14 227.5,-14340.14 227.5,-14352.14 227.5,-14352.14 227.5,-14358.14 221.5,-14364.14 215.5,-14364.14"/>
<text text-anchor="middle" x="125.5" y="-14343.94" font-family="Courier,monospace" font-size="9.00">{CIccCamConverter::GetParameter_F()}</text>
</g>
<!-- Node0x61b9668dc270 -->
<g id="node37" class="node">
<title>Node0x61b9668dc270</title>
<path fill="#f0f4ff" stroke="black" d="M560,-748.14C560,-748.14 412,-748.14 412,-748.14 406,-748.14 400,-742.14 400,-736.14 400,-736.14 400,-724.14 400,-724.14 400,-718.14 406,-712.14 412,-712.14 412,-712.14 560,-712.14 560,-712.14 566,-712.14 572,-718.14 572,-724.14 572,-724.14 572,-736.14 572,-736.14 572,-742.14 566,-748.14 560,-748.14"/>
<text text-anchor="middle" x="486" y="-727.94" font-family="Courier,monospace" font-size="9.00">{CIccCamConverter::XYZToJab()}</text>
</g>
<!-- Node0x61b9668dc270&#45;&gt;Node0x61b9667a5650 -->
<g id="edge34" class="edge">
<title>Node0x61b9668dc270&#45;&gt;Node0x61b9667a5650</title>
<path fill="none" stroke="#4a6fa5" d="M552.8,-712.09C599.69,-699.24 664.2,-681.59 721,-666.14 736.65,-661.88 753.44,-657.33 769.4,-653.01"/>
<polygon fill="#4a6fa5" stroke="#4a6fa5" points="770.07,-655.37 776.19,-651.17 768.79,-650.64 770.07,-655.37"/>
</g>
<!-- Node0x61b9668dc270&#45;&gt;Node0x61b966787b30 -->
<g id="edge40" class="edge">
<title>Node0x61b9668dc270&#45;&gt;Node0x61b966787b30</title>
<path fill="none" stroke="#4a6fa5" d="M511.34,-711.91C552.18,-682.48 638.18,-625.35 721,-601.14 848.33,-563.91 1005.59,-564.82 1090.21,-568.9"/>
<polygon fill="#4a6fa5" stroke="#4a6fa5" points="1090.31,-571.36 1097.42,-569.26 1090.56,-566.46 1090.31,-571.36"/>
</g>
<!-- Node0x61b9668dc270&#45;&gt;Node0x61b9667cd840 -->
<g id="edge35" class="edge">
<title>Node0x61b9668dc270&#45;&gt;Node0x61b9667cd840</title>
<path fill="none" stroke="#4a6fa5" d="M506.44,-748.35C544.73,-783.37 633.79,-860.64 721,-906.14 735.61,-913.76 751.96,-920.32 767.82,-925.79"/>
<polygon fill="#4a6fa5" stroke="#4a6fa5" points="767.17,-928.15 774.58,-928.06 768.73,-923.51 767.17,-928.15"/>
</g>
<!-- Node0x61b9668dc270&#45;&gt;Node0x61b9668d0330 -->
<g id="edge43" class="edge">
<title>Node0x61b9668dc270&#45;&gt;Node0x61b9668d0330</title>
<path fill="none" stroke="#4a6fa5" d="M524.62,-748.23C570.12,-769.42 649.54,-804.14 721,-824.14 948.96,-887.92 1233.86,-918.3 1329.77,-927.23"/>
<polygon fill="#4a6fa5" stroke="#4a6fa5" points="1329.68,-929.68 1336.87,-927.89 1330.13,-924.81 1329.68,-929.68"/>
</g>
<!-- Node0x61b9668dc270&#45;&gt;Node0x61b9668d4980 -->
<g id="edge36" class="edge">
<title>Node0x61b9668dc270&#45;&gt;Node0x61b9668d4980</title>
<path fill="none" stroke="#4a6fa5" d="M503.22,-748.32C561.02,-813.1 756.92,-1032.66 821.88,-1105.46"/>
<polygon fill="#4a6fa5" stroke="#4a6fa5" points="820.19,-1107.26 826.68,-1110.85 823.85,-1103.99 820.19,-1107.26"/>
</g>
<!-- Node0x61b9668dc270&#45;&gt;Node0x61b9668d2b50 -->
<g id="edge39" class="edge">
<title>Node0x61b9668dc270&#45;&gt;Node0x61b9668d2b50</title>
<path fill="none" stroke="#4a6fa5" d="M572.27,-722.47C636.97,-716.66 724.36,-708.8 782.13,-703.61"/>
<polygon fill="#4a6fa5" stroke="#4a6fa5" points="782.63,-706.02 789.38,-702.96 782.19,-701.14 782.63,-706.02"/>
</g>
<!-- Node0x61b9668dc270&#45;&gt;Node0x61b9668d3db0 -->
<g id="edge41" class="edge">
<title>Node0x61b9668dc270&#45;&gt;Node0x61b9668d3db0</title>
<path fill="none" stroke="#4a6fa5" d="M535.91,-748.2C582.68,-764.44 655.56,-787.09 721,-796.14 829.3,-811.12 859.24,-814.61 967,-796.14 1022.01,-786.71 1082.42,-762.49 1118.5,-746.43"/>
<polygon fill="#4a6fa5" stroke="#4a6fa5" points="1119.57,-748.64 1124.95,-743.53 1117.56,-744.17 1119.57,-748.64"/>
</g>
<!-- Node0x61b9668dc270&#45;&gt;Node0x61b9668d01f0 -->
<g id="edge42" class="edge">
<title>Node0x61b9668dc270&#45;&gt;Node0x61b9668d01f0</title>
<path fill="none" stroke="#4a6fa5" d="M505.75,-711.92C543.52,-676.1 632.75,-595.94 721,-549.14 735.47,-541.46 751.69,-534.9 767.46,-529.44"/>
<polygon fill="#4a6fa5" stroke="#4a6fa5" points="768.34,-531.73 774.19,-527.16 766.77,-527.08 768.34,-531.73"/>
</g>
<!-- Node0x61b9668f40c0 -->
<g id="node38" class="node">
<title>Node0x61b9668f40c0</title>
<path fill="#f0f4ff" stroke="black" d="M859,-781.14C859,-781.14 829,-781.14 829,-781.14 823,-781.14 817,-775.14 817,-769.14 817,-769.14 817,-757.14 817,-757.14 817,-751.14 823,-745.14 829,-745.14 829,-745.14 859,-745.14 859,-745.14 865,-745.14 871,-751.14 871,-757.14 871,-757.14 871,-769.14 871,-769.14 871,-775.14 865,-781.14 859,-781.14"/>
<text text-anchor="middle" x="844" y="-760.94" font-family="Courier,monospace" font-size="9.00">{sin}</text>
</g>
<!-- Node0x61b9668dc270&#45;&gt;Node0x61b9668f40c0 -->
<g id="edge37" class="edge">
<title>Node0x61b9668dc270&#45;&gt;Node0x61b9668f40c0</title>
<path fill="none" stroke="#4a6fa5" d="M572.27,-738.04C648.3,-745.09 755.65,-755.04 809.47,-760.03"/>
<polygon fill="#4a6fa5" stroke="#4a6fa5" points="809.51,-762.49 816.7,-760.7 809.96,-757.61 809.51,-762.49"/>
</g>
<!-- Node0x61b9668dbd70 -->
<g id="node39" class="node">
<title>Node0x61b9668dbd70</title>
<path fill="#f0f4ff" stroke="black" d="M859,-462.14C859,-462.14 829,-462.14 829,-462.14 823,-462.14 817,-456.14 817,-450.14 817,-450.14 817,-438.14 817,-438.14 817,-432.14 823,-426.14 829,-426.14 829,-426.14 859,-426.14 859,-426.14 865,-426.14 871,-432.14 871,-438.14 871,-438.14 871,-450.14 871,-450.14 871,-456.14 865,-462.14 859,-462.14"/>
<text text-anchor="middle" x="844" y="-441.94" font-family="Courier,monospace" font-size="9.00">{cos}</text>
</g>
<!-- Node0x61b9668dc270&#45;&gt;Node0x61b9668dbd70 -->
<g id="edge38" class="edge">
<title>Node0x61b9668dc270&#45;&gt;Node0x61b9668dbd70</title>
<path fill="none" stroke="#4a6fa5" d="M498.45,-711.92C528.72,-665.28 615.82,-540.8 721,-477.14 748.28,-460.62 783.91,-452.22 809.61,-448.05"/>
<polygon fill="#4a6fa5" stroke="#4a6fa5" points="810.03,-450.46 816.58,-446.98 809.29,-445.62 810.03,-450.46"/>
</g>
<!-- Node0x61b966901110 -->
<g id="node40" class="node">
<title>Node0x61b966901110</title>
<path fill="#f0f4ff" stroke="black" d="M560,-332.14C560,-332.14 412,-332.14 412,-332.14 406,-332.14 400,-326.14 400,-320.14 400,-320.14 400,-308.14 400,-308.14 400,-302.14 406,-296.14 412,-296.14 412,-296.14 560,-296.14 560,-296.14 566,-296.14 572,-302.14 572,-308.14 572,-308.14 572,-320.14 572,-320.14 572,-326.14 566,-332.14 560,-332.14"/>
<text text-anchor="middle" x="486" y="-311.94" font-family="Courier,monospace" font-size="9.00">{CIccCamConverter::JabToXYZ()}</text>
</g>
<!-- Node0x61b966901110&#45;&gt;Node0x61b9667a5650 -->
<g id="edge46" class="edge">
<title>Node0x61b966901110&#45;&gt;Node0x61b9667a5650</title>
<path fill="none" stroke="#4a6fa5" d="M504.15,-332.41C541.85,-372.22 635.37,-469.03 721,-542.14 750.21,-567.07 785.58,-593.03 810.7,-610.81"/>
<polygon fill="#4a6fa5" stroke="#4a6fa5" points="809.4,-612.89 816.53,-614.92 812.22,-608.88 809.4,-612.89"/>
</g>
<!-- Node0x61b966901110&#45;&gt;Node0x61b966787b30 -->
<g id="edge44" class="edge">
<title>Node0x61b966901110&#45;&gt;Node0x61b966787b30</title>
<path fill="none" stroke="#4a6fa5" d="M507.7,-295.76C579.22,-234.5 819.62,-47.66 967,-165.14 1101.05,-271.99 937.41,-414.55 1053,-541.14 1062.9,-551.98 1076.53,-559.17 1090.47,-563.92"/>
<polygon fill="#4a6fa5" stroke="#4a6fa5" points="1089.92,-566.31 1097.33,-566.06 1091.38,-561.63 1089.92,-566.31"/>
</g>
<!-- Node0x61b966901110&#45;&gt;Node0x61b9668926f0 -->
<g id="edge48" class="edge">
<title>Node0x61b966901110&#45;&gt;Node0x61b9668926f0</title>
<path fill="none" stroke="#4a6fa5" d="M572.27,-314.14C614.53,-314.14 666.47,-314.14 713.51,-314.14"/>
<polygon fill="#4a6fa5" stroke="#4a6fa5" points="713.72,-316.59 720.72,-314.14 713.72,-311.69 713.72,-316.59"/>
</g>
<!-- Node0x61b966901110&#45;&gt;Node0x61b9668d0330 -->
<g id="edge47" class="edge">
<title>Node0x61b966901110&#45;&gt;Node0x61b9668d0330</title>
<path fill="none" stroke="#4a6fa5" d="M495.08,-296.04C519.77,-243.28 599.99,-89.84 721,-33.14 820,13.25 865.88,8.43 967,-33.14 1131.23,-100.65 1168.17,-157.07 1251,-314.14 1360.5,-521.77 1364.96,-817.45 1363.67,-904.88"/>
<polygon fill="#4a6fa5" stroke="#4a6fa5" points="1361.22,-904.94 1363.55,-911.98 1366.12,-905.03 1361.22,-904.94"/>
</g>
<!-- Node0x61b966901110&#45;&gt;Node0x61b9668d1750 -->
<g id="edge52" class="edge">
<title>Node0x61b966901110&#45;&gt;Node0x61b9668d1750</title>
<path fill="none" stroke="#4a6fa5" d="M572.27,-298.57C621.98,-289.49 685.07,-277.97 737.84,-268.34"/>
<polygon fill="#4a6fa5" stroke="#4a6fa5" points="738.44,-270.72 744.89,-267.05 737.56,-265.9 738.44,-270.72"/>
</g>
<!-- Node0x61b966901110&#45;&gt;Node0x61b9668d2b50 -->
<g id="edge53" class="edge">
<title>Node0x61b966901110&#45;&gt;Node0x61b9668d2b50</title>
<path fill="none" stroke="#4a6fa5" d="M493.67,-332.49C515.92,-391.07 593.52,-575.07 721,-666.14 738.85,-678.89 761.41,-686.56 782.26,-691.17"/>
<polygon fill="#4a6fa5" stroke="#4a6fa5" points="781.91,-693.6 789.26,-692.63 782.9,-688.81 781.91,-693.6"/>
</g>
<!-- Node0x61b966901110&#45;&gt;Node0x61b9668d3db0 -->
<g id="edge45" class="edge">
<title>Node0x61b966901110&#45;&gt;Node0x61b9668d3db0</title>
<path fill="none" stroke="#4a6fa5" d="M513.04,-295.97C591.19,-243.87 826.97,-104.68 967,-217.14 1105.06,-328.01 977.38,-446.03 1053,-606.14 1071.72,-645.78 1104.98,-684.39 1127.51,-707.96"/>
<polygon fill="#4a6fa5" stroke="#4a6fa5" points="1125.8,-709.72 1132.42,-713.05 1129.32,-706.31 1125.8,-709.72"/>
</g>
<!-- Node0x61b966901110&#45;&gt;Node0x61b9668d01f0 -->
<g id="edge49" class="edge">
<title>Node0x61b966901110&#45;&gt;Node0x61b9668d01f0</title>
<path fill="none" stroke="#4a6fa5" d="M507.68,-332.4C546.68,-365.9 634.92,-437.4 721,-477.14 730.62,-481.58 740.97,-485.48 751.42,-488.9"/>
<polygon fill="#4a6fa5" stroke="#4a6fa5" points="750.88,-491.3 758.29,-491.07 752.36,-486.63 750.88,-491.3"/>
</g>
<!-- Node0x61b966901110&#45;&gt;Node0x61b9668dbd70 -->
<g id="edge50" class="edge">
<title>Node0x61b966901110&#45;&gt;Node0x61b9668dbd70</title>
<path fill="none" stroke="#4a6fa5" d="M525.69,-332.31C571.57,-353.41 650.71,-388.33 721,-412.14 750.64,-422.17 785.2,-430.98 809.95,-436.8"/>
<polygon fill="#4a6fa5" stroke="#4a6fa5" points="809.61,-439.23 816.98,-438.43 810.72,-434.46 809.61,-439.23"/>
</g>
<!-- Node0x61b966900fc0 -->
<g id="node41" class="node">
<title>Node0x61b966900fc0</title>
<path fill="#f0f4ff" stroke="black" d="M859,-84.14C859,-84.14 829,-84.14 829,-84.14 823,-84.14 817,-78.14 817,-72.14 817,-72.14 817,-60.14 817,-60.14 817,-54.14 823,-48.14 829,-48.14 829,-48.14 859,-48.14 859,-48.14 865,-48.14 871,-54.14 871,-60.14 871,-60.14 871,-72.14 871,-72.14 871,-78.14 865,-84.14 859,-84.14"/>
<text text-anchor="middle" x="844" y="-63.94" font-family="Courier,monospace" font-size="9.00">{tan}</text>
</g>
<!-- Node0x61b966901110&#45;&gt;Node0x61b966900fc0 -->
<g id="edge51" class="edge">
<title>Node0x61b966901110&#45;&gt;Node0x61b966900fc0</title>
<path fill="none" stroke="#4a6fa5" d="M502.43,-296.11C537.39,-256.31 626.99,-160.18 721,-106.14 749.09,-89.99 784.6,-79.29 810.06,-73.05"/>
<polygon fill="#4a6fa5" stroke="#4a6fa5" points="810.72,-75.41 816.96,-71.41 809.58,-70.64 810.72,-75.41"/>
</g>
<!-- Node0x61b966900eb0 -->
<g id="node42" class="node">
<title>Node0x61b966900eb0</title>
<path fill="#f0f4ff" stroke="black" d="M878.5,-397.14C878.5,-397.14 809.5,-397.14 809.5,-397.14 803.5,-397.14 797.5,-391.14 797.5,-385.14 797.5,-385.14 797.5,-373.14 797.5,-373.14 797.5,-367.14 803.5,-361.14 809.5,-361.14 809.5,-361.14 878.5,-361.14 878.5,-361.14 884.5,-361.14 890.5,-367.14 890.5,-373.14 890.5,-373.14 890.5,-385.14 890.5,-385.14 890.5,-391.14 884.5,-397.14 878.5,-397.14"/>
<text text-anchor="middle" x="844" y="-376.94" font-family="Courier,monospace" font-size="9.00">{llvm.fabs.f64}</text>
</g>
<!-- Node0x61b966901110&#45;&gt;Node0x61b966900eb0 -->
<g id="edge54" class="edge">
<title>Node0x61b966901110&#45;&gt;Node0x61b966900eb0</title>
<path fill="none" stroke="#4a6fa5" d="M572.27,-329.71C639.93,-342.06 732.4,-358.94 789.87,-369.44"/>
<polygon fill="#4a6fa5" stroke="#4a6fa5" points="789.72,-371.9 797.04,-370.75 790.6,-367.08 789.72,-371.9"/>
</g>
</g>
</svg>
