<?xml version="1.0" encoding="UTF-8" standalone="no"?>
<!DOCTYPE svg PUBLIC "-//W3C//DTD SVG 1.1//EN"
 "http://www.w3.org/Graphics/SVG/1.1/DTD/svg11.dtd">
<!-- Generated by graphviz version 2.43.0 (0)
 -->
<!-- Title: Call graph: /home/h02332/po/research/call&#45;graph/iccdev/proflib/IccConvertUTF.ll Pages: 1 -->
<svg width="315pt" height="1355pt"
 viewBox="0.00 0.00 315.20 1355.20" xmlns="http://www.w3.org/2000/svg" xmlns:xlink="http://www.w3.org/1999/xlink">
<g id="graph0" class="graph" transform="scale(1 1) rotate(0) translate(21.6 1333.6)">
<title>Call graph: /home/h02332/po/research/call&#45;graph/iccdev/proflib/IccConvertUTF.ll</title>
<polygon fill="white" stroke="transparent" points="-21.6,21.6 -21.6,-1333.6 293.6,-1333.6 293.6,21.6 -21.6,21.6"/>
<!-- Node0x624617e92660 -->
<g id="node1" class="node">
<title>Node0x624617e92660</title>
<path fill="#f0f4ff" stroke="black" d="M116,-36C116,-36 17,-36 17,-36 11,-36 5,-30 5,-24 5,-24 5,-12 5,-12 5,-6 11,0 17,0 17,0 116,0 116,0 122,0 128,-6 128,-12 128,-12 128,-24 128,-24 128,-30 122,-36 116,-36"/>
<text text-anchor="middle" x="66.5" y="-15.8" font-family="Courier,monospace" font-size="9.00">icConvertUTF32toUTF16</text>
</g>
<!-- Node0x624617e929e0 -->
<g id="node2" class="node">
<title>Node0x624617e929e0</title>
<path fill="#f0f4ff" stroke="black" d="M121,-94C121,-94 12,-94 12,-94 6,-94 0,-88 0,-82 0,-82 0,-70 0,-70 0,-64 6,-58 12,-58 12,-58 121,-58 121,-58 127,-58 133,-64 133,-70 133,-70 133,-82 133,-82 133,-88 127,-94 121,-94"/>
<text text-anchor="middle" x="66.5" y="-73.8" font-family="Courier,monospace" font-size="9.00">icConvertUTF32toUTF16()</text>
</g>
<!-- Node0x624617d8ebf0 -->
<g id="node3" class="node">
<title>Node0x624617d8ebf0</title>
<path fill="#f0f4ff" stroke="black" d="M116,-152C116,-152 17,-152 17,-152 11,-152 5,-146 5,-140 5,-140 5,-128 5,-128 5,-122 11,-116 17,-116 17,-116 116,-116 116,-116 122,-116 128,-122 128,-128 128,-128 128,-140 128,-140 128,-146 122,-152 116,-152"/>
<text text-anchor="middle" x="66.5" y="-131.8" font-family="Courier,monospace" font-size="9.00">icConvertUTF16toUTF32</text>
</g>
<!-- Node0x624617d95aa0 -->
<g id="node4" class="node">
<title>Node0x624617d95aa0</title>
<path fill="#f0f4ff" stroke="black" d="M121,-210C121,-210 12,-210 12,-210 6,-210 0,-204 0,-198 0,-198 0,-186 0,-186 0,-180 6,-174 12,-174 12,-174 121,-174 121,-174 127,-174 133,-180 133,-186 133,-186 133,-198 133,-198 133,-204 127,-210 121,-210"/>
<text text-anchor="middle" x="66.5" y="-189.8" font-family="Courier,monospace" font-size="9.00">icConvertUTF16toUTF32()</text>
</g>
<!-- Node0x624617bc8820 -->
<g id="node5" class="node">
<title>Node0x624617bc8820</title>
<path fill="#f0f4ff" stroke="black" d="M113.5,-268C113.5,-268 19.5,-268 19.5,-268 13.5,-268 7.5,-262 7.5,-256 7.5,-256 7.5,-244 7.5,-244 7.5,-238 13.5,-232 19.5,-232 19.5,-232 113.5,-232 113.5,-232 119.5,-232 125.5,-238 125.5,-244 125.5,-244 125.5,-256 125.5,-256 125.5,-262 119.5,-268 113.5,-268"/>
<text text-anchor="middle" x="66.5" y="-247.8" font-family="Courier,monospace" font-size="9.00">icConvertUTF16toUTF8</text>
</g>
<!-- Node0x624617ea4ef0 -->
<g id="node6" class="node">
<title>Node0x624617ea4ef0</title>
<path fill="#f0f4ff" stroke="black" d="M118.5,-326C118.5,-326 14.5,-326 14.5,-326 8.5,-326 2.5,-320 2.5,-314 2.5,-314 2.5,-302 2.5,-302 2.5,-296 8.5,-290 14.5,-290 14.5,-290 118.5,-290 118.5,-290 124.5,-290 130.5,-296 130.5,-302 130.5,-302 130.5,-314 130.5,-314 130.5,-320 124.5,-326 118.5,-326"/>
<text text-anchor="middle" x="66.5" y="-305.8" font-family="Courier,monospace" font-size="9.00">icConvertUTF16toUTF8()</text>
</g>
<!-- Node0x624617ea5130 -->
<g id="node7" class="node">
<title>Node0x624617ea5130</title>
<path fill="#f0f4ff" stroke="black" d="M116,-674C116,-674 17,-674 17,-674 11,-674 5,-668 5,-662 5,-662 5,-650 5,-650 5,-644 11,-638 17,-638 17,-638 116,-638 116,-638 122,-638 128,-644 128,-650 128,-650 128,-662 128,-662 128,-668 122,-674 116,-674"/>
<text text-anchor="middle" x="66.5" y="-653.8" font-family="Courier,monospace" font-size="9.00">icIsLegalUTF8Sequence</text>
</g>
<!-- Node0x624617ea9970 -->
<g id="node8" class="node">
<title>Node0x624617ea9970</title>
<path fill="#f0f4ff" stroke="black" d="M260,-529C260,-529 203,-529 203,-529 197,-529 191,-523 191,-517 191,-517 191,-505 191,-505 191,-499 197,-493 203,-493 203,-493 260,-493 260,-493 266,-493 272,-499 272,-505 272,-505 272,-517 272,-517 272,-523 266,-529 260,-529"/>
<text text-anchor="middle" x="231.5" y="-508.8" font-family="Courier,monospace" font-size="9.00">isLegalUTF8()</text>
</g>
<!-- Node0x624617ea5130&#45;&gt;Node0x624617ea9970 -->
<g id="edge1" class="edge">
<title>Node0x624617ea5130&#45;&gt;Node0x624617ea9970</title>
<path fill="none" stroke="#4a6fa5" d="M115.46,-637.86C121.61,-634.66 127.63,-631.03 133,-627 167.76,-600.89 198.27,-560.15 215.53,-534.55"/>
<polygon fill="#4a6fa5" stroke="#4a6fa5" points="217.43,-535.49 219.01,-529.33 213.94,-533.16 217.43,-535.49"/>
</g>
<!-- Node0x624617eac8d0 -->
<g id="node9" class="node">
<title>Node0x624617eac8d0</title>
<path fill="#f0f4ff" stroke="black" d="M105.5,-616C105.5,-616 27.5,-616 27.5,-616 21.5,-616 15.5,-610 15.5,-604 15.5,-604 15.5,-592 15.5,-592 15.5,-586 21.5,-580 27.5,-580 27.5,-580 105.5,-580 105.5,-580 111.5,-580 117.5,-586 117.5,-592 117.5,-592 117.5,-604 117.5,-604 117.5,-610 111.5,-616 105.5,-616"/>
<text text-anchor="middle" x="66.5" y="-595.8" font-family="Courier,monospace" font-size="9.00">isLegalUTF8String</text>
</g>
<!-- Node0x624617eac8d0&#45;&gt;Node0x624617ea9970 -->
<g id="edge2" class="edge">
<title>Node0x624617eac8d0&#45;&gt;Node0x624617ea9970</title>
<path fill="none" stroke="#4a6fa5" d="M110.48,-579.85C118.06,-576.4 125.82,-572.71 133,-569 154.57,-557.86 177.97,-544 196.44,-532.63"/>
<polygon fill="#4a6fa5" stroke="#4a6fa5" points="198.01,-534.13 202,-529.18 195.8,-530.55 198.01,-534.13"/>
</g>
<!-- Node0x624617ea5770 -->
<g id="node10" class="node">
<title>Node0x624617ea5770</title>
<path fill="#f0f4ff" stroke="black" d="M113.5,-558C113.5,-558 19.5,-558 19.5,-558 13.5,-558 7.5,-552 7.5,-546 7.5,-546 7.5,-534 7.5,-534 7.5,-528 13.5,-522 19.5,-522 19.5,-522 113.5,-522 113.5,-522 119.5,-522 125.5,-528 125.5,-534 125.5,-534 125.5,-546 125.5,-546 125.5,-552 119.5,-558 113.5,-558"/>
<text text-anchor="middle" x="66.5" y="-537.8" font-family="Courier,monospace" font-size="9.00">icConvertUTF8toUTF16</text>
</g>
<!-- Node0x624617ea5770&#45;&gt;Node0x624617ea9970 -->
<g id="edge3" class="edge">
<title>Node0x624617ea5770&#45;&gt;Node0x624617ea9970</title>
<path fill="none" stroke="#4a6fa5" d="M125.89,-529.61C145.26,-526.17 166.52,-522.38 184.8,-519.13"/>
<polygon fill="#4a6fa5" stroke="#4a6fa5" points="185.33,-521.17 190.87,-518.05 184.59,-517.03 185.33,-521.17"/>
</g>
<!-- Node0x624617ea9e50 -->
<g id="node11" class="node">
<title>Node0x624617ea9e50</title>
<path fill="#f0f4ff" stroke="black" d="M118.5,-500C118.5,-500 14.5,-500 14.5,-500 8.5,-500 2.5,-494 2.5,-488 2.5,-488 2.5,-476 2.5,-476 2.5,-470 8.5,-464 14.5,-464 14.5,-464 118.5,-464 118.5,-464 124.5,-464 130.5,-470 130.5,-476 130.5,-476 130.5,-488 130.5,-488 130.5,-494 124.5,-500 118.5,-500"/>
<text text-anchor="middle" x="66.5" y="-479.8" font-family="Courier,monospace" font-size="9.00">icConvertUTF8toUTF16()</text>
</g>
<!-- Node0x624617ea9e50&#45;&gt;Node0x624617ea9970 -->
<g id="edge4" class="edge">
<title>Node0x624617ea9e50&#45;&gt;Node0x624617ea9970</title>
<path fill="none" stroke="#4a6fa5" d="M130.52,-493.21C148.55,-496.42 167.86,-499.86 184.65,-502.84"/>
<polygon fill="#4a6fa5" stroke="#4a6fa5" points="184.44,-504.94 190.72,-503.92 185.18,-500.8 184.44,-504.94"/>
</g>
<!-- Node0x624617ea9d60 -->
<g id="node12" class="node">
<title>Node0x624617ea9d60</title>
<path fill="#f0f4ff" stroke="black" d="M113.5,-732C113.5,-732 19.5,-732 19.5,-732 13.5,-732 7.5,-726 7.5,-720 7.5,-720 7.5,-708 7.5,-708 7.5,-702 13.5,-696 19.5,-696 19.5,-696 113.5,-696 113.5,-696 119.5,-696 125.5,-702 125.5,-708 125.5,-708 125.5,-720 125.5,-720 125.5,-726 119.5,-732 113.5,-732"/>
<text text-anchor="middle" x="66.5" y="-711.8" font-family="Courier,monospace" font-size="9.00">icConvertUTF32toUTF8</text>
</g>
<!-- Node0x624617eac460 -->
<g id="node13" class="node">
<title>Node0x624617eac460</title>
<path fill="#f0f4ff" stroke="black" d="M118.5,-790C118.5,-790 14.5,-790 14.5,-790 8.5,-790 2.5,-784 2.5,-778 2.5,-778 2.5,-766 2.5,-766 2.5,-760 8.5,-754 14.5,-754 14.5,-754 118.5,-754 118.5,-754 124.5,-754 130.5,-760 130.5,-766 130.5,-766 130.5,-778 130.5,-778 130.5,-784 124.5,-790 118.5,-790"/>
<text text-anchor="middle" x="66.5" y="-769.8" font-family="Courier,monospace" font-size="9.00">icConvertUTF32toUTF8()</text>
</g>
<!-- Node0x624617eada50 -->
<g id="node14" class="node">
<title>Node0x624617eada50</title>
<path fill="#f0f4ff" stroke="black" d="M113.5,-442C113.5,-442 19.5,-442 19.5,-442 13.5,-442 7.5,-436 7.5,-430 7.5,-430 7.5,-418 7.5,-418 7.5,-412 13.5,-406 19.5,-406 19.5,-406 113.5,-406 113.5,-406 119.5,-406 125.5,-412 125.5,-418 125.5,-418 125.5,-430 125.5,-430 125.5,-436 119.5,-442 113.5,-442"/>
<text text-anchor="middle" x="66.5" y="-421.8" font-family="Courier,monospace" font-size="9.00">icConvertUTF8toUTF32</text>
</g>
<!-- Node0x624617eada50&#45;&gt;Node0x624617ea9970 -->
<g id="edge5" class="edge">
<title>Node0x624617eada50&#45;&gt;Node0x624617ea9970</title>
<path fill="none" stroke="#4a6fa5" d="M110.48,-442.15C118.06,-445.6 125.82,-449.29 133,-453 154.57,-464.14 177.97,-478 196.44,-489.37"/>
<polygon fill="#4a6fa5" stroke="#4a6fa5" points="195.8,-491.45 202,-492.82 198.01,-487.87 195.8,-491.45"/>
</g>
<!-- Node0x624617ead8a0 -->
<g id="node15" class="node">
<title>Node0x624617ead8a0</title>
<path fill="#f0f4ff" stroke="black" d="M118.5,-384C118.5,-384 14.5,-384 14.5,-384 8.5,-384 2.5,-378 2.5,-372 2.5,-372 2.5,-360 2.5,-360 2.5,-354 8.5,-348 14.5,-348 14.5,-348 118.5,-348 118.5,-348 124.5,-348 130.5,-354 130.5,-360 130.5,-360 130.5,-372 130.5,-372 130.5,-378 124.5,-384 118.5,-384"/>
<text text-anchor="middle" x="66.5" y="-363.8" font-family="Courier,monospace" font-size="9.00">icConvertUTF8toUTF32()</text>
</g>
<!-- Node0x624617ead8a0&#45;&gt;Node0x624617ea9970 -->
<g id="edge6" class="edge">
<title>Node0x624617ead8a0&#45;&gt;Node0x624617ea9970</title>
<path fill="none" stroke="#4a6fa5" d="M115.46,-384.14C121.61,-387.34 127.63,-390.97 133,-395 167.76,-421.11 198.27,-461.85 215.53,-487.45"/>
<polygon fill="#4a6fa5" stroke="#4a6fa5" points="213.94,-488.84 219.01,-492.67 217.43,-486.51 213.94,-488.84"/>
</g>
<!-- Node0x624617bd8d40 -->
<g id="node16" class="node">
<title>Node0x624617bd8d40</title>
<path fill="#f0f4ff" stroke="black" d="M81.5,-848C81.5,-848 51.5,-848 51.5,-848 45.5,-848 39.5,-842 39.5,-836 39.5,-836 39.5,-824 39.5,-824 39.5,-818 45.5,-812 51.5,-812 51.5,-812 81.5,-812 81.5,-812 87.5,-812 93.5,-818 93.5,-824 93.5,-824 93.5,-836 93.5,-836 93.5,-842 87.5,-848 81.5,-848"/>
<text text-anchor="middle" x="66.5" y="-827.8" font-family="Courier,monospace" font-size="9.00">base()</text>
</g>
<!-- Node0x624617bddf60 -->
<g id="node17" class="node">
<title>Node0x624617bddf60</title>
<path fill="#f0f4ff" stroke="black" d="M87,-906C87,-906 46,-906 46,-906 40,-906 34,-900 34,-894 34,-894 34,-882 34,-882 34,-876 40,-870 46,-870 46,-870 87,-870 87,-870 93,-870 99,-876 99,-882 99,-882 99,-894 99,-894 99,-900 93,-906 87,-906"/>
<text text-anchor="middle" x="66.5" y="-885.8" font-family="Courier,monospace" font-size="9.00">max_size()</text>
</g>
<!-- Node0x624617bd8f40 -->
<g id="node18" class="node">
<title>Node0x624617bd8f40</title>
<path fill="#f0f4ff" stroke="black" d="M110.5,-964C110.5,-964 22.5,-964 22.5,-964 16.5,-964 10.5,-958 10.5,-952 10.5,-952 10.5,-940 10.5,-940 10.5,-934 16.5,-928 22.5,-928 22.5,-928 110.5,-928 110.5,-928 116.5,-928 122.5,-934 122.5,-940 122.5,-940 122.5,-952 122.5,-952 122.5,-958 116.5,-964 110.5,-964"/>
<text text-anchor="middle" x="66.5" y="-943.8" font-family="Courier,monospace" font-size="9.00">__normal_iterator()</text>
</g>
<!-- Node0x624617c00b60 -->
<g id="node19" class="node">
<title>Node0x624617c00b60</title>
<path fill="#f0f4ff" stroke="black" d="M81.5,-1022C81.5,-1022 51.5,-1022 51.5,-1022 45.5,-1022 39.5,-1016 39.5,-1010 39.5,-1010 39.5,-998 39.5,-998 39.5,-992 45.5,-986 51.5,-986 51.5,-986 81.5,-986 81.5,-986 87.5,-986 93.5,-992 93.5,-998 93.5,-998 93.5,-1010 93.5,-1010 93.5,-1016 87.5,-1022 81.5,-1022"/>
<text text-anchor="middle" x="66.5" y="-1001.8" font-family="Courier,monospace" font-size="9.00">base()</text>
</g>
<!-- Node0x624617c04640 -->
<g id="node20" class="node">
<title>Node0x624617c04640</title>
<path fill="#f0f4ff" stroke="black" d="M87,-1080C87,-1080 46,-1080 46,-1080 40,-1080 34,-1074 34,-1068 34,-1068 34,-1056 34,-1056 34,-1050 40,-1044 46,-1044 46,-1044 87,-1044 87,-1044 93,-1044 99,-1050 99,-1056 99,-1056 99,-1068 99,-1068 99,-1074 93,-1080 87,-1080"/>
<text text-anchor="middle" x="66.5" y="-1059.8" font-family="Courier,monospace" font-size="9.00">max_size()</text>
</g>
<!-- Node0x624617bff9a0 -->
<g id="node21" class="node">
<title>Node0x624617bff9a0</title>
<path fill="#f0f4ff" stroke="black" d="M110.5,-1138C110.5,-1138 22.5,-1138 22.5,-1138 16.5,-1138 10.5,-1132 10.5,-1126 10.5,-1126 10.5,-1114 10.5,-1114 10.5,-1108 16.5,-1102 22.5,-1102 22.5,-1102 110.5,-1102 110.5,-1102 116.5,-1102 122.5,-1108 122.5,-1114 122.5,-1114 122.5,-1126 122.5,-1126 122.5,-1132 116.5,-1138 110.5,-1138"/>
<text text-anchor="middle" x="66.5" y="-1117.8" font-family="Courier,monospace" font-size="9.00">__normal_iterator()</text>
</g>
<!-- Node0x624617c1e3c0 -->
<g id="node22" class="node">
<title>Node0x624617c1e3c0</title>
<path fill="#f0f4ff" stroke="black" d="M81.5,-1196C81.5,-1196 51.5,-1196 51.5,-1196 45.5,-1196 39.5,-1190 39.5,-1184 39.5,-1184 39.5,-1172 39.5,-1172 39.5,-1166 45.5,-1160 51.5,-1160 51.5,-1160 81.5,-1160 81.5,-1160 87.5,-1160 93.5,-1166 93.5,-1172 93.5,-1172 93.5,-1184 93.5,-1184 93.5,-1190 87.5,-1196 81.5,-1196"/>
<text text-anchor="middle" x="66.5" y="-1175.8" font-family="Courier,monospace" font-size="9.00">base()</text>
</g>
<!-- Node0x624617c210c0 -->
<g id="node23" class="node">
<title>Node0x624617c210c0</title>
<path fill="#f0f4ff" stroke="black" d="M87,-1254C87,-1254 46,-1254 46,-1254 40,-1254 34,-1248 34,-1242 34,-1242 34,-1230 34,-1230 34,-1224 40,-1218 46,-1218 46,-1218 87,-1218 87,-1218 93,-1218 99,-1224 99,-1230 99,-1230 99,-1242 99,-1242 99,-1248 93,-1254 87,-1254"/>
<text text-anchor="middle" x="66.5" y="-1233.8" font-family="Courier,monospace" font-size="9.00">max_size()</text>
</g>
<!-- Node0x624617c20190 -->
<g id="node24" class="node">
<title>Node0x624617c20190</title>
<path fill="#f0f4ff" stroke="black" d="M110.5,-1312C110.5,-1312 22.5,-1312 22.5,-1312 16.5,-1312 10.5,-1306 10.5,-1300 10.5,-1300 10.5,-1288 10.5,-1288 10.5,-1282 16.5,-1276 22.5,-1276 22.5,-1276 110.5,-1276 110.5,-1276 116.5,-1276 122.5,-1282 122.5,-1288 122.5,-1288 122.5,-1300 122.5,-1300 122.5,-1306 116.5,-1312 110.5,-1312"/>
<text text-anchor="middle" x="66.5" y="-1291.8" font-family="Courier,monospace" font-size="9.00">__normal_iterator()</text>
</g>
</g>
</svg>
