<?xml version="1.0" encoding="UTF-8" standalone="no"?>
<!DOCTYPE svg PUBLIC "-//W3C//DTD SVG 1.1//EN"
 "http://www.w3.org/Graphics/SVG/1.1/DTD/svg11.dtd">
<!-- Generated by graphviz version 2.43.0 (0)
 -->
<!-- Title: Call graph: /home/h02332/po/research/call&#45;graph/iccdev/proflib/IccCAM.ll Pages: 1 -->
<svg width="1272pt" height="1469pt"
 viewBox="0.00 0.00 1272.20 1469.20" xmlns="http://www.w3.org/2000/svg" xmlns:xlink="http://www.w3.org/1999/xlink">
<g id="graph0" class="graph" transform="scale(1 1) rotate(0) translate(21.6 1447.6)">
<title>Call graph: /home/h02332/po/research/call&#45;graph/iccdev/proflib/IccCAM.ll</title>
<polygon fill="white" stroke="transparent" points="-21.6,21.6 -21.6,-1447.6 1250.6,-1447.6 1250.6,21.6 -21.6,21.6"/>
<!-- Node0x56805d687650 -->
<g id="node1" class="node">
<title>Node0x56805d687650</title>
<path fill="#f0f4ff" stroke="black" d="M853,-510C853,-510 660,-510 660,-510 654,-510 648,-504 648,-498 648,-498 648,-486 648,-486 648,-480 654,-474 660,-474 660,-474 853,-474 853,-474 859,-474 865,-480 865,-486 865,-486 865,-498 865,-498 865,-504 859,-510 853,-510"/>
<text text-anchor="middle" x="756.5" y="-489.8" font-family="Courier,monospace" font-size="9.00">CIccCamConverter::Multiply_vect_by_mx()</text>
</g>
<!-- Node0x56805d6af840 -->
<g id="node2" class="node">
<title>Node0x56805d6af840</title>
<path fill="#f0f4ff" stroke="black" d="M853,-626C853,-626 660,-626 660,-626 654,-626 648,-620 648,-614 648,-614 648,-602 648,-602 648,-596 654,-590 660,-590 660,-590 853,-590 853,-590 859,-590 865,-596 865,-602 865,-602 865,-614 865,-614 865,-620 859,-626 853,-626"/>
<text text-anchor="middle" x="756.5" y="-605.8" font-family="Courier,monospace" font-size="9.00">CIccCamConverter::ReferenceConditions()</text>
</g>
<!-- Node0x56805d7746f0 -->
<g id="node3" class="node">
<title>Node0x56805d7746f0</title>
<path fill="#f0f4ff" stroke="black" d="M861,-36C861,-36 652,-36 652,-36 646,-36 640,-30 640,-24 640,-24 640,-12 640,-12 640,-6 646,0 652,0 652,0 861,0 861,0 867,0 873,-6 873,-12 873,-12 873,-24 873,-24 873,-30 867,-36 861,-36"/>
<text text-anchor="middle" x="756.5" y="-15.8" font-family="Courier,monospace" font-size="9.00">CIccCamConverter::ReferenceConditionsInv()</text>
</g>
<!-- Node0x56805d6d4d40 -->
<g id="node4" class="node">
<title>Node0x56805d6d4d40</title>
<path fill="#f0f4ff" stroke="black" d="M1097,-709C1097,-709 951,-709 951,-709 945,-709 939,-703 939,-697 939,-697 939,-685 939,-685 939,-679 945,-673 951,-673 951,-673 1097,-673 1097,-673 1103,-673 1109,-679 1109,-685 1109,-685 1109,-697 1109,-697 1109,-703 1103,-709 1097,-709"/>
<text text-anchor="middle" x="1024" y="-688.8" font-family="Courier,monospace" font-size="9.00">CIccCamConverter::F_Function()</text>
</g>
<!-- Node0x56805d7b2330 -->
<g id="node5" class="node">
<title>Node0x56805d7b2330</title>
<path fill="#f0f4ff" stroke="black" d="M1217,-521C1217,-521 1187,-521 1187,-521 1181,-521 1175,-515 1175,-509 1175,-509 1175,-497 1175,-497 1175,-491 1181,-485 1187,-485 1187,-485 1217,-485 1217,-485 1223,-485 1229,-491 1229,-497 1229,-497 1229,-509 1229,-509 1229,-515 1223,-521 1217,-521"/>
<text text-anchor="middle" x="1202" y="-500.8" font-family="Courier,monospace" font-size="9.00">pow</text>
</g>
<!-- Node0x56805d6d4d40&#45;&gt;Node0x56805d7b2330 -->
<g id="edge1" class="edge">
<title>Node0x56805d6d4d40&#45;&gt;Node0x56805d7b2330</title>
<path fill="none" stroke="#4a6fa5" d="M1041.88,-672.97C1074.12,-638.53 1144.42,-563.44 1179.78,-525.66"/>
<polygon fill="#4a6fa5" stroke="#4a6fa5" points="1181.35,-527.06 1183.92,-521.25 1178.28,-524.19 1181.35,-527.06"/>
</g>
<!-- Node0x56805d7b2270 -->
<g id="node6" class="node">
<title>Node0x56805d7b2270</title>
<path fill="#f0f4ff" stroke="black" d="M1097,-570C1097,-570 951,-570 951,-570 945,-570 939,-564 939,-558 939,-558 939,-546 939,-546 939,-540 945,-534 951,-534 951,-534 1097,-534 1097,-534 1103,-534 1109,-540 1109,-546 1109,-546 1109,-558 1109,-558 1109,-564 1103,-570 1097,-570"/>
<text text-anchor="middle" x="1024" y="-549.8" font-family="Courier,monospace" font-size="9.00">CIccCamConverter::H_Function()</text>
</g>
<!-- Node0x56805d7b2270&#45;&gt;Node0x56805d7b2330 -->
<g id="edge2" class="edge">
<title>Node0x56805d7b2270&#45;&gt;Node0x56805d7b2330</title>
<path fill="none" stroke="#4a6fa5" d="M1090.04,-533.89C1116.89,-526.42 1146.81,-518.09 1168.81,-511.96"/>
<polygon fill="#4a6fa5" stroke="#4a6fa5" points="1169.57,-513.93 1174.79,-510.3 1168.45,-509.88 1169.57,-513.93"/>
</g>
<!-- Node0x56805d7b6e50 -->
<g id="node7" class="node">
<title>Node0x56805d7b6e50</title>
<path fill="#f0f4ff" stroke="black" d="M1105,-472C1105,-472 943,-472 943,-472 937,-472 931,-466 931,-460 931,-460 931,-448 931,-448 931,-442 937,-436 943,-436 943,-436 1105,-436 1105,-436 1111,-436 1117,-442 1117,-448 1117,-448 1117,-460 1117,-460 1117,-466 1111,-472 1105,-472"/>
<text text-anchor="middle" x="1024" y="-451.8" font-family="Courier,monospace" font-size="9.00">CIccCamConverter::H_FunctionInv()</text>
</g>
<!-- Node0x56805d7b6e50&#45;&gt;Node0x56805d7b2330 -->
<g id="edge3" class="edge">
<title>Node0x56805d7b6e50&#45;&gt;Node0x56805d7b2330</title>
<path fill="none" stroke="#4a6fa5" d="M1090.04,-472.11C1116.89,-479.58 1146.81,-487.91 1168.81,-494.04"/>
<polygon fill="#4a6fa5" stroke="#4a6fa5" points="1168.45,-496.12 1174.79,-495.7 1169.57,-492.07 1168.45,-496.12"/>
</g>
<!-- Node0x56805d7b6980 -->
<g id="node8" class="node">
<title>Node0x56805d7b6980</title>
<path fill="#f0f4ff" stroke="black" d="M829.5,-730C829.5,-730 683.5,-730 683.5,-730 677.5,-730 671.5,-724 671.5,-718 671.5,-718 671.5,-706 671.5,-706 671.5,-700 677.5,-694 683.5,-694 683.5,-694 829.5,-694 829.5,-694 835.5,-694 841.5,-700 841.5,-706 841.5,-706 841.5,-718 841.5,-718 841.5,-724 835.5,-730 829.5,-730"/>
<text text-anchor="middle" x="756.5" y="-709.8" font-family="Courier,monospace" font-size="9.00">CIccCamConverter::Hyperbolic()</text>
</g>
<!-- Node0x56805d7b6980&#45;&gt;Node0x56805d6d4d40 -->
<g id="edge5" class="edge">
<title>Node0x56805d7b6980&#45;&gt;Node0x56805d6d4d40</title>
<path fill="none" stroke="#4a6fa5" d="M841.51,-705.36C870.44,-703.07 902.96,-700.49 932.4,-698.17"/>
<polygon fill="#4a6fa5" stroke="#4a6fa5" points="932.81,-700.24 938.63,-697.67 932.48,-696.05 932.81,-700.24"/>
</g>
<!-- Node0x56805d7b6980&#45;&gt;Node0x56805d7b2270 -->
<g id="edge4" class="edge">
<title>Node0x56805d7b6980&#45;&gt;Node0x56805d7b2270</title>
<path fill="none" stroke="#4a6fa5" d="M832.9,-693.93C846.64,-689.32 860.55,-683.71 873,-677 924.26,-649.36 974.28,-602.52 1001.63,-574.7"/>
<polygon fill="#4a6fa5" stroke="#4a6fa5" points="1003.14,-576.16 1005.83,-570.4 1000.13,-573.23 1003.14,-576.16"/>
</g>
<!-- Node0x56805d7b3750 -->
<g id="node9" class="node">
<title>Node0x56805d7b3750</title>
<path fill="#f0f4ff" stroke="black" d="M837.5,-452C837.5,-452 675.5,-452 675.5,-452 669.5,-452 663.5,-446 663.5,-440 663.5,-440 663.5,-428 663.5,-428 663.5,-422 669.5,-416 675.5,-416 675.5,-416 837.5,-416 837.5,-416 843.5,-416 849.5,-422 849.5,-428 849.5,-428 849.5,-440 849.5,-440 849.5,-446 843.5,-452 837.5,-452"/>
<text text-anchor="middle" x="756.5" y="-431.8" font-family="Courier,monospace" font-size="9.00">CIccCamConverter::HyperbolicInv()</text>
</g>
<!-- Node0x56805d7b3750&#45;&gt;Node0x56805d6d4d40 -->
<g id="edge6" class="edge">
<title>Node0x56805d7b3750&#45;&gt;Node0x56805d6d4d40</title>
<path fill="none" stroke="#4a6fa5" d="M849.67,-449.08C858.06,-452.77 866.01,-457.35 873,-463 918.44,-499.74 899.14,-532.01 931,-581 952.08,-613.4 981.43,-646.96 1001.26,-668.36"/>
<polygon fill="#4a6fa5" stroke="#4a6fa5" points="999.96,-670.04 1005.59,-673 1003.03,-667.18 999.96,-670.04"/>
</g>
<!-- Node0x56805d7b3750&#45;&gt;Node0x56805d7b2270 -->
<g id="edge7" class="edge">
<title>Node0x56805d7b3750&#45;&gt;Node0x56805d7b2270</title>
<path fill="none" stroke="#4a6fa5" d="M841.39,-452C852.19,-455.21 862.96,-458.87 873,-463 916.75,-481.02 962.99,-510.21 992.37,-530.21"/>
<polygon fill="#4a6fa5" stroke="#4a6fa5" points="991.51,-532.17 997.65,-533.83 993.89,-528.71 991.51,-532.17"/>
</g>
<!-- Node0x56805d7b3750&#45;&gt;Node0x56805d7b6e50 -->
<g id="edge8" class="edge">
<title>Node0x56805d7b3750&#45;&gt;Node0x56805d7b6e50</title>
<path fill="none" stroke="#4a6fa5" d="M849.61,-440.94C873.78,-442.76 899.93,-444.73 924.41,-446.57"/>
<polygon fill="#4a6fa5" stroke="#4a6fa5" points="924.46,-448.68 930.6,-447.04 924.77,-444.49 924.46,-448.68"/>
</g>
<!-- Node0x56805d7b4790 -->
<g id="node10" class="node">
<title>Node0x56805d7b4790</title>
<path fill="#f0f4ff" stroke="black" d="M187,-962C187,-962 51,-962 51,-962 45,-962 39,-956 39,-950 39,-950 39,-938 39,-938 39,-932 45,-926 51,-926 51,-926 187,-926 187,-926 193,-926 199,-932 199,-938 199,-938 199,-950 199,-950 199,-956 193,-962 187,-962"/>
<text text-anchor="middle" x="119" y="-941.8" font-family="Courier,monospace" font-size="9.00">CIccCamConverter::IccCam_e()</text>
</g>
<!-- Node0x56805d7b39d0 -->
<g id="node11" class="node">
<title>Node0x56805d7b39d0</title>
<path fill="#f0f4ff" stroke="black" d="M528,-730C528,-730 350,-730 350,-730 344,-730 338,-724 338,-718 338,-718 338,-706 338,-706 338,-700 344,-694 350,-694 350,-694 528,-694 528,-694 534,-694 540,-700 540,-706 540,-706 540,-718 540,-718 540,-724 534,-730 528,-730"/>
<text text-anchor="middle" x="439" y="-709.8" font-family="Courier,monospace" font-size="9.00">CIccCamConverter::CalcCoefficients()</text>
</g>
<!-- Node0x56805d7b39d0&#45;&gt;Node0x56805d687650 -->
<g id="edge14" class="edge">
<title>Node0x56805d7b39d0&#45;&gt;Node0x56805d687650</title>
<path fill="none" stroke="#4a6fa5" d="M453.55,-693.81C483.02,-655.62 556.97,-566.81 640,-521 645.89,-517.75 652.15,-514.86 658.59,-512.28"/>
<polygon fill="#4a6fa5" stroke="#4a6fa5" points="659.69,-514.11 664.55,-510.01 658.19,-510.19 659.69,-514.11"/>
</g>
<!-- Node0x56805d7b39d0&#45;&gt;Node0x56805d6af840 -->
<g id="edge13" class="edge">
<title>Node0x56805d7b39d0&#45;&gt;Node0x56805d6af840</title>
<path fill="none" stroke="#4a6fa5" d="M490.79,-693.88C531.11,-679.64 588.98,-659.52 640,-643 655.71,-637.91 672.7,-632.64 688.68,-627.78"/>
<polygon fill="#4a6fa5" stroke="#4a6fa5" points="689.39,-629.76 694.52,-626.01 688.17,-625.74 689.39,-629.76"/>
</g>
<!-- Node0x56805d7b39d0&#45;&gt;Node0x56805d6d4d40 -->
<g id="edge11" class="edge">
<title>Node0x56805d7b39d0&#45;&gt;Node0x56805d6d4d40</title>
<path fill="none" stroke="#4a6fa5" d="M479.57,-730.05C519.2,-747.07 582.4,-771.34 640,-781 742.13,-798.12 773.2,-808.64 873,-781 920.59,-767.82 968.24,-735.08 996.67,-712.94"/>
<polygon fill="#4a6fa5" stroke="#4a6fa5" points="997.99,-714.57 1001.41,-709.21 995.39,-711.27 997.99,-714.57"/>
</g>
<!-- Node0x56805d7b39d0&#45;&gt;Node0x56805d7b2330 -->
<g id="edge9" class="edge">
<title>Node0x56805d7b39d0&#45;&gt;Node0x56805d7b2330</title>
<path fill="none" stroke="#4a6fa5" d="M467.69,-730.07C505.01,-753.24 574.38,-792.21 640,-807 741.02,-829.77 770.96,-824.65 873,-807 986.45,-787.38 1034.5,-800.31 1117,-720 1172.32,-666.15 1191.86,-571.77 1198.21,-527.38"/>
<polygon fill="#4a6fa5" stroke="#4a6fa5" points="1200.32,-527.44 1199.05,-521.21 1196.16,-526.87 1200.32,-527.44"/>
</g>
<!-- Node0x56805d7b39d0&#45;&gt;Node0x56805d7b2270 -->
<g id="edge12" class="edge">
<title>Node0x56805d7b39d0&#45;&gt;Node0x56805d7b2270</title>
<path fill="none" stroke="#4a6fa5" d="M487.02,-730.02C570.03,-758.74 745.8,-805.42 873,-741 911.86,-721.32 904.13,-696.28 931,-662 955.13,-631.22 984.3,-596.78 1003.23,-574.78"/>
<polygon fill="#4a6fa5" stroke="#4a6fa5" points="1005.01,-575.92 1007.34,-570.01 1001.83,-573.18 1005.01,-575.92"/>
</g>
<!-- Node0x56805d7b39d0&#45;&gt;Node0x56805d7b6980 -->
<g id="edge10" class="edge">
<title>Node0x56805d7b39d0&#45;&gt;Node0x56805d7b6980</title>
<path fill="none" stroke="#4a6fa5" d="M540.26,-712C580.34,-712 626.15,-712 665.18,-712"/>
<polygon fill="#4a6fa5" stroke="#4a6fa5" points="665.38,-714.1 671.38,-712 665.38,-709.9 665.38,-714.1"/>
</g>
<!-- Node0x56805d7b5db0 -->
<g id="node12" class="node">
<title>Node0x56805d7b5db0</title>
<path fill="#f0f4ff" stroke="black" d="M1039,-348C1039,-348 1009,-348 1009,-348 1003,-348 997,-342 997,-336 997,-336 997,-324 997,-324 997,-318 1003,-312 1009,-312 1009,-312 1039,-312 1039,-312 1045,-312 1051,-318 1051,-324 1051,-324 1051,-336 1051,-336 1051,-342 1045,-348 1039,-348"/>
<text text-anchor="middle" x="1024" y="-327.8" font-family="Courier,monospace" font-size="9.00">sqrt</text>
</g>
<!-- Node0x56805d7b39d0&#45;&gt;Node0x56805d7b5db0 -->
<g id="edge15" class="edge">
<title>Node0x56805d7b39d0&#45;&gt;Node0x56805d7b5db0</title>
<path fill="none" stroke="#4a6fa5" d="M540.24,-697.4C664.25,-678.93 860.69,-648.18 873,-637 945.29,-571.3 882.61,-509.86 931,-425 947.32,-396.38 974.25,-370 994.77,-352.33"/>
<polygon fill="#4a6fa5" stroke="#4a6fa5" points="996.35,-353.74 999.57,-348.26 993.64,-350.54 996.35,-353.74"/>
</g>
<!-- Node0x56805d7b21f0 -->
<g id="node13" class="node">
<title>Node0x56805d7b21f0</title>
<path fill="#f0f4ff" stroke="black" d="M824.5,-302C824.5,-302 688.5,-302 688.5,-302 682.5,-302 676.5,-296 676.5,-290 676.5,-290 676.5,-278 676.5,-278 676.5,-272 682.5,-266 688.5,-266 688.5,-266 824.5,-266 824.5,-266 830.5,-266 836.5,-272 836.5,-278 836.5,-278 836.5,-290 836.5,-290 836.5,-296 830.5,-302 824.5,-302"/>
<text text-anchor="middle" x="756.5" y="-281.8" font-family="Courier,monospace" font-size="9.00">CIccCamConverter::ab2chDeg()</text>
</g>
<!-- Node0x56805d7b21f0&#45;&gt;Node0x56805d7b5db0 -->
<g id="edge16" class="edge">
<title>Node0x56805d7b21f0&#45;&gt;Node0x56805d7b5db0</title>
<path fill="none" stroke="#4a6fa5" d="M836.8,-297.74C888.22,-306.65 952.49,-317.78 990.5,-324.37"/>
<polygon fill="#4a6fa5" stroke="#4a6fa5" points="990.56,-326.51 996.83,-325.47 991.27,-322.37 990.56,-326.51"/>
</g>
<!-- Node0x56805d7b4fd0 -->
<g id="node14" class="node">
<title>Node0x56805d7b4fd0</title>
<path fill="#f0f4ff" stroke="black" d="M1039,-290C1039,-290 1009,-290 1009,-290 1003,-290 997,-284 997,-278 997,-278 997,-266 997,-266 997,-260 1003,-254 1009,-254 1009,-254 1039,-254 1039,-254 1045,-254 1051,-260 1051,-266 1051,-266 1051,-278 1051,-278 1051,-284 1045,-290 1039,-290"/>
<text text-anchor="middle" x="1024" y="-269.8" font-family="Courier,monospace" font-size="9.00">atan2</text>
</g>
<!-- Node0x56805d7b21f0&#45;&gt;Node0x56805d7b4fd0 -->
<g id="edge17" class="edge">
<title>Node0x56805d7b21f0&#45;&gt;Node0x56805d7b4fd0</title>
<path fill="none" stroke="#4a6fa5" d="M836.8,-280.42C888.22,-278.09 952.49,-275.19 990.5,-273.47"/>
<polygon fill="#4a6fa5" stroke="#4a6fa5" points="990.93,-275.55 996.83,-273.18 990.74,-271.36 990.93,-275.55"/>
</g>
<!-- Node0x56805d7cfb40 -->
<g id="node15" class="node">
<title>Node0x56805d7cfb40</title>
<path fill="#f0f4ff" stroke="black" d="M208,-904C208,-904 30,-904 30,-904 24,-904 18,-898 18,-892 18,-892 18,-880 18,-880 18,-874 24,-868 30,-868 30,-868 208,-868 208,-868 214,-868 220,-874 220,-880 220,-880 220,-892 220,-892 220,-898 214,-904 208,-904"/>
<text text-anchor="middle" x="119" y="-883.8" font-family="Courier,monospace" font-size="9.00">CIccCamConverter::CIccCamConverter()</text>
</g>
<!-- Node0x56805d7cfb40&#45;&gt;Node0x56805d7b39d0 -->
<g id="edge18" class="edge">
<title>Node0x56805d7cfb40&#45;&gt;Node0x56805d7b39d0</title>
<path fill="none" stroke="#4a6fa5" d="M209.54,-867.91C219.34,-864.79 229,-861.17 238,-857 308.01,-824.54 378.4,-766.08 414.06,-734.21"/>
<polygon fill="#4a6fa5" stroke="#4a6fa5" points="415.59,-735.65 418.65,-730.08 412.78,-732.53 415.59,-735.65"/>
</g>
<!-- Node0x56805d7d70a0 -->
<g id="node16" class="node">
<title>Node0x56805d7d70a0</title>
<path fill="#f0f4ff" stroke="black" d="M210.5,-1020C210.5,-1020 27.5,-1020 27.5,-1020 21.5,-1020 15.5,-1014 15.5,-1008 15.5,-1008 15.5,-996 15.5,-996 15.5,-990 21.5,-984 27.5,-984 27.5,-984 210.5,-984 210.5,-984 216.5,-984 222.5,-990 222.5,-996 222.5,-996 222.5,-1008 222.5,-1008 222.5,-1014 216.5,-1020 210.5,-1020"/>
<text text-anchor="middle" x="119" y="-999.8" font-family="Courier,monospace" font-size="9.00">CIccCamConverter::~CIccCamConverter()</text>
</g>
<!-- Node0x56805d7d68a0 -->
<g id="node17" class="node">
<title>Node0x56805d7d68a0</title>
<path fill="#f0f4ff" stroke="black" d="M184,-1078C184,-1078 54,-1078 54,-1078 48,-1078 42,-1072 42,-1066 42,-1066 42,-1054 42,-1054 42,-1048 48,-1042 54,-1042 54,-1042 184,-1042 184,-1042 190,-1042 196,-1048 196,-1054 196,-1054 196,-1066 196,-1066 196,-1072 190,-1078 184,-1078"/>
<text text-anchor="middle" x="119" y="-1057.8" font-family="Courier,monospace" font-size="9.00">CIccCamConverter::NewCopy()</text>
</g>
<!-- Node0x56805d7b6230 -->
<g id="node18" class="node">
<title>Node0x56805d7b6230</title>
<path fill="#f0f4ff" stroke="black" d="M570,-1078C570,-1078 308,-1078 308,-1078 302,-1078 296,-1072 296,-1066 296,-1066 296,-1054 296,-1054 296,-1048 302,-1042 308,-1042 308,-1042 570,-1042 570,-1042 576,-1042 582,-1048 582,-1054 582,-1054 582,-1066 582,-1066 582,-1072 576,-1078 570,-1078"/>
<text text-anchor="middle" x="439" y="-1057.8" font-family="Courier,monospace" font-size="9.00">CIccCamConverter::operator=(CIccCamConverter const&amp;)</text>
</g>
<!-- Node0x56805d7d68a0&#45;&gt;Node0x56805d7b6230 -->
<g id="edge19" class="edge">
<title>Node0x56805d7d68a0&#45;&gt;Node0x56805d7b6230</title>
<path fill="none" stroke="#4a6fa5" d="M196.17,-1060C224.36,-1060 257.38,-1060 289.8,-1060"/>
<polygon fill="#4a6fa5" stroke="#4a6fa5" points="289.84,-1062.1 295.84,-1060 289.84,-1057.9 289.84,-1062.1"/>
</g>
<!-- Node0x56805d7d8540 -->
<g id="node19" class="node">
<title>Node0x56805d7d8540</title>
<path fill="#f0f4ff" stroke="black" d="M226,-846C226,-846 12,-846 12,-846 6,-846 0,-840 0,-834 0,-834 0,-822 0,-822 0,-816 6,-810 12,-810 12,-810 226,-810 226,-810 232,-810 238,-816 238,-822 238,-822 238,-834 238,-834 238,-840 232,-846 226,-846"/>
<text text-anchor="middle" x="119" y="-825.8" font-family="Courier,monospace" font-size="9.00">CIccCamConverter::SetParameter_WhitePoint()</text>
</g>
<!-- Node0x56805d7d8540&#45;&gt;Node0x56805d7b39d0 -->
<g id="edge20" class="edge">
<title>Node0x56805d7d8540&#45;&gt;Node0x56805d7b39d0</title>
<path fill="none" stroke="#4a6fa5" d="M201.14,-809.99C213.58,-806.67 226.21,-802.98 238,-799 293.91,-780.12 355.86,-751.99 395.78,-732.86"/>
<polygon fill="#4a6fa5" stroke="#4a6fa5" points="397.01,-734.6 401.51,-730.11 395.19,-730.82 397.01,-734.6"/>
</g>
<!-- Node0x56805d7d80d0 -->
<g id="node20" class="node">
<title>Node0x56805d7d80d0</title>
<path fill="#f0f4ff" stroke="black" d="M205,-788C205,-788 33,-788 33,-788 27,-788 21,-782 21,-776 21,-776 21,-764 21,-764 21,-758 27,-752 33,-752 33,-752 205,-752 205,-752 211,-752 217,-758 217,-764 217,-764 217,-776 217,-776 217,-782 211,-788 205,-788"/>
<text text-anchor="middle" x="119" y="-767.8" font-family="Courier,monospace" font-size="9.00">CIccCamConverter::SetParameter_La()</text>
</g>
<!-- Node0x56805d7d80d0&#45;&gt;Node0x56805d7b39d0 -->
<g id="edge21" class="edge">
<title>Node0x56805d7d80d0&#45;&gt;Node0x56805d7b39d0</title>
<path fill="none" stroke="#4a6fa5" d="M217.14,-752.28C253.89,-745.58 295.88,-737.92 333.3,-731.1"/>
<polygon fill="#4a6fa5" stroke="#4a6fa5" points="333.74,-733.15 339.26,-730.01 332.98,-729.02 333.74,-733.15"/>
</g>
<!-- Node0x56805d7da550 -->
<g id="node21" class="node">
<title>Node0x56805d7da550</title>
<path fill="#f0f4ff" stroke="black" d="M205,-730C205,-730 33,-730 33,-730 27,-730 21,-724 21,-718 21,-718 21,-706 21,-706 21,-700 27,-694 33,-694 33,-694 205,-694 205,-694 211,-694 217,-700 217,-706 217,-706 217,-718 217,-718 217,-724 211,-730 205,-730"/>
<text text-anchor="middle" x="119" y="-709.8" font-family="Courier,monospace" font-size="9.00">CIccCamConverter::SetParameter_Yb()</text>
</g>
<!-- Node0x56805d7da550&#45;&gt;Node0x56805d7b39d0 -->
<g id="edge22" class="edge">
<title>Node0x56805d7da550&#45;&gt;Node0x56805d7b39d0</title>
<path fill="none" stroke="#4a6fa5" d="M217.14,-712C253.31,-712 294.55,-712 331.51,-712"/>
<polygon fill="#4a6fa5" stroke="#4a6fa5" points="331.88,-714.1 337.88,-712 331.88,-709.9 331.88,-714.1"/>
</g>
<!-- Node0x56805d7db350 -->
<g id="node22" class="node">
<title>Node0x56805d7db350</title>
<path fill="#f0f4ff" stroke="black" d="M202.5,-672C202.5,-672 35.5,-672 35.5,-672 29.5,-672 23.5,-666 23.5,-660 23.5,-660 23.5,-648 23.5,-648 23.5,-642 29.5,-636 35.5,-636 35.5,-636 202.5,-636 202.5,-636 208.5,-636 214.5,-642 214.5,-648 214.5,-648 214.5,-660 214.5,-660 214.5,-666 208.5,-672 202.5,-672"/>
<text text-anchor="middle" x="119" y="-651.8" font-family="Courier,monospace" font-size="9.00">CIccCamConverter::SetParameter_C()</text>
</g>
<!-- Node0x56805d7db350&#45;&gt;Node0x56805d7b39d0 -->
<g id="edge23" class="edge">
<title>Node0x56805d7db350&#45;&gt;Node0x56805d7b39d0</title>
<path fill="none" stroke="#4a6fa5" d="M214.55,-671.24C251.83,-678.04 294.79,-685.88 333.03,-692.85"/>
<polygon fill="#4a6fa5" stroke="#4a6fa5" points="332.84,-694.95 339.12,-693.97 333.6,-690.82 332.84,-694.95"/>
</g>
<!-- Node0x56805d7db0f0 -->
<g id="node23" class="node">
<title>Node0x56805d7db0f0</title>
<path fill="#f0f4ff" stroke="black" d="M205,-614C205,-614 33,-614 33,-614 27,-614 21,-608 21,-602 21,-602 21,-590 21,-590 21,-584 27,-578 33,-578 33,-578 205,-578 205,-578 211,-578 217,-584 217,-590 217,-590 217,-602 217,-602 217,-608 211,-614 205,-614"/>
<text text-anchor="middle" x="119" y="-593.8" font-family="Courier,monospace" font-size="9.00">CIccCamConverter::SetParameter_Nc()</text>
</g>
<!-- Node0x56805d7db0f0&#45;&gt;Node0x56805d7b39d0 -->
<g id="edge24" class="edge">
<title>Node0x56805d7db0f0&#45;&gt;Node0x56805d7b39d0</title>
<path fill="none" stroke="#4a6fa5" d="M201.14,-614.01C213.58,-617.33 226.21,-621.02 238,-625 293.91,-643.88 355.86,-672.01 395.78,-691.14"/>
<polygon fill="#4a6fa5" stroke="#4a6fa5" points="395.19,-693.18 401.51,-693.89 397.01,-689.4 395.19,-693.18"/>
</g>
<!-- Node0x56805d7da8e0 -->
<g id="node24" class="node">
<title>Node0x56805d7da8e0</title>
<path fill="#f0f4ff" stroke="black" d="M202.5,-556C202.5,-556 35.5,-556 35.5,-556 29.5,-556 23.5,-550 23.5,-544 23.5,-544 23.5,-532 23.5,-532 23.5,-526 29.5,-520 35.5,-520 35.5,-520 202.5,-520 202.5,-520 208.5,-520 214.5,-526 214.5,-532 214.5,-532 214.5,-544 214.5,-544 214.5,-550 208.5,-556 202.5,-556"/>
<text text-anchor="middle" x="119" y="-535.8" font-family="Courier,monospace" font-size="9.00">CIccCamConverter::SetParameter_F()</text>
</g>
<!-- Node0x56805d7da8e0&#45;&gt;Node0x56805d7b39d0 -->
<g id="edge25" class="edge">
<title>Node0x56805d7da8e0&#45;&gt;Node0x56805d7b39d0</title>
<path fill="none" stroke="#4a6fa5" d="M209.54,-556.09C219.34,-559.21 229,-562.83 238,-567 308.01,-599.46 378.4,-657.92 414.06,-689.79"/>
<polygon fill="#4a6fa5" stroke="#4a6fa5" points="412.78,-691.47 418.65,-693.92 415.59,-688.35 412.78,-691.47"/>
</g>
<!-- Node0x56805d7dcb40 -->
<g id="node25" class="node">
<title>Node0x56805d7dcb40</title>
<path fill="#f0f4ff" stroke="black" d="M226,-1136C226,-1136 12,-1136 12,-1136 6,-1136 0,-1130 0,-1124 0,-1124 0,-1112 0,-1112 0,-1106 6,-1100 12,-1100 12,-1100 226,-1100 226,-1100 232,-1100 238,-1106 238,-1112 238,-1112 238,-1124 238,-1124 238,-1130 232,-1136 226,-1136"/>
<text text-anchor="middle" x="119" y="-1115.8" font-family="Courier,monospace" font-size="9.00">CIccCamConverter::GetParameter_WhitePoint()</text>
</g>
<!-- Node0x56805d7d5da0 -->
<g id="node26" class="node">
<title>Node0x56805d7d5da0</title>
<path fill="#f0f4ff" stroke="black" d="M205,-1194C205,-1194 33,-1194 33,-1194 27,-1194 21,-1188 21,-1182 21,-1182 21,-1170 21,-1170 21,-1164 27,-1158 33,-1158 33,-1158 205,-1158 205,-1158 211,-1158 217,-1164 217,-1170 217,-1170 217,-1182 217,-1182 217,-1188 211,-1194 205,-1194"/>
<text text-anchor="middle" x="119" y="-1173.8" font-family="Courier,monospace" font-size="9.00">CIccCamConverter::GetParameter_La()</text>
</g>
<!-- Node0x56805d7dda00 -->
<g id="node27" class="node">
<title>Node0x56805d7dda00</title>
<path fill="#f0f4ff" stroke="black" d="M205,-1252C205,-1252 33,-1252 33,-1252 27,-1252 21,-1246 21,-1240 21,-1240 21,-1228 21,-1228 21,-1222 27,-1216 33,-1216 33,-1216 205,-1216 205,-1216 211,-1216 217,-1222 217,-1228 217,-1228 217,-1240 217,-1240 217,-1246 211,-1252 205,-1252"/>
<text text-anchor="middle" x="119" y="-1231.8" font-family="Courier,monospace" font-size="9.00">CIccCamConverter::GetParameter_Yb()</text>
</g>
<!-- Node0x56805d7dd760 -->
<g id="node28" class="node">
<title>Node0x56805d7dd760</title>
<path fill="#f0f4ff" stroke="black" d="M202.5,-1310C202.5,-1310 35.5,-1310 35.5,-1310 29.5,-1310 23.5,-1304 23.5,-1298 23.5,-1298 23.5,-1286 23.5,-1286 23.5,-1280 29.5,-1274 35.5,-1274 35.5,-1274 202.5,-1274 202.5,-1274 208.5,-1274 214.5,-1280 214.5,-1286 214.5,-1286 214.5,-1298 214.5,-1298 214.5,-1304 208.5,-1310 202.5,-1310"/>
<text text-anchor="middle" x="119" y="-1289.8" font-family="Courier,monospace" font-size="9.00">CIccCamConverter::GetParameter_C()</text>
</g>
<!-- Node0x56805d7d5f80 -->
<g id="node29" class="node">
<title>Node0x56805d7d5f80</title>
<path fill="#f0f4ff" stroke="black" d="M205,-1368C205,-1368 33,-1368 33,-1368 27,-1368 21,-1362 21,-1356 21,-1356 21,-1344 21,-1344 21,-1338 27,-1332 33,-1332 33,-1332 205,-1332 205,-1332 211,-1332 217,-1338 217,-1344 217,-1344 217,-1356 217,-1356 217,-1362 211,-1368 205,-1368"/>
<text text-anchor="middle" x="119" y="-1347.8" font-family="Courier,monospace" font-size="9.00">CIccCamConverter::GetParameter_Nc()</text>
</g>
<!-- Node0x56805d7c00f0 -->
<g id="node30" class="node">
<title>Node0x56805d7c00f0</title>
<path fill="#f0f4ff" stroke="black" d="M202.5,-1426C202.5,-1426 35.5,-1426 35.5,-1426 29.5,-1426 23.5,-1420 23.5,-1414 23.5,-1414 23.5,-1402 23.5,-1402 23.5,-1396 29.5,-1390 35.5,-1390 35.5,-1390 202.5,-1390 202.5,-1390 208.5,-1390 214.5,-1396 214.5,-1402 214.5,-1402 214.5,-1414 214.5,-1414 214.5,-1420 208.5,-1426 202.5,-1426"/>
<text text-anchor="middle" x="119" y="-1405.8" font-family="Courier,monospace" font-size="9.00">CIccCamConverter::GetParameter_F()</text>
</g>
<!-- Node0x56805d7be270 -->
<g id="node31" class="node">
<title>Node0x56805d7be270</title>
<path fill="#f0f4ff" stroke="black" d="M507,-455C507,-455 371,-455 371,-455 365,-455 359,-449 359,-443 359,-443 359,-431 359,-431 359,-425 365,-419 371,-419 371,-419 507,-419 507,-419 513,-419 519,-425 519,-431 519,-431 519,-443 519,-443 519,-449 513,-455 507,-455"/>
<text text-anchor="middle" x="439" y="-434.8" font-family="Courier,monospace" font-size="9.00">CIccCamConverter::XYZToJab()</text>
</g>
<!-- Node0x56805d7be270&#45;&gt;Node0x56805d687650 -->
<g id="edge26" class="edge">
<title>Node0x56805d7be270&#45;&gt;Node0x56805d687650</title>
<path fill="none" stroke="#4a6fa5" d="M519.21,-450.81C557.57,-457.5 604.25,-465.63 645.96,-472.9"/>
<polygon fill="#4a6fa5" stroke="#4a6fa5" points="645.8,-475.01 652.07,-473.97 646.52,-470.87 645.8,-475.01"/>
</g>
<!-- Node0x56805d7be270&#45;&gt;Node0x56805d6af840 -->
<g id="edge27" class="edge">
<title>Node0x56805d7be270&#45;&gt;Node0x56805d6af840</title>
<path fill="none" stroke="#4a6fa5" d="M459.99,-455.13C494.29,-485.27 567.67,-545.68 640,-579 647.26,-582.34 654.96,-585.34 662.8,-588.01"/>
<polygon fill="#4a6fa5" stroke="#4a6fa5" points="662.46,-590.11 668.82,-590 663.77,-586.12 662.46,-590.11"/>
</g>
<!-- Node0x56805d7be270&#45;&gt;Node0x56805d7b2330 -->
<g id="edge33" class="edge">
<title>Node0x56805d7be270&#45;&gt;Node0x56805d7b2330</title>
<path fill="none" stroke="#4a6fa5" d="M519.46,-421.32C556.01,-414.87 600.04,-408.18 640,-405 851.52,-388.19 922.83,-339.43 1117,-425 1144.13,-436.96 1168.14,-461.42 1183.46,-479.78"/>
<polygon fill="#4a6fa5" stroke="#4a6fa5" points="1182.13,-481.46 1187.55,-484.78 1185.38,-478.8 1182.13,-481.46"/>
</g>
<!-- Node0x56805d7be270&#45;&gt;Node0x56805d7b6980 -->
<g id="edge28" class="edge">
<title>Node0x56805d7be270&#45;&gt;Node0x56805d7b6980</title>
<path fill="none" stroke="#4a6fa5" d="M455.73,-455.11C488.1,-491.81 565.39,-576.59 640,-637 664.88,-657.14 695.32,-676.73 718.71,-690.83"/>
<polygon fill="#4a6fa5" stroke="#4a6fa5" points="717.66,-692.65 723.89,-693.94 719.82,-689.05 717.66,-692.65"/>
</g>
<!-- Node0x56805d7be270&#45;&gt;Node0x56805d7b5db0 -->
<g id="edge31" class="edge">
<title>Node0x56805d7be270&#45;&gt;Node0x56805d7b5db0</title>
<path fill="none" stroke="#4a6fa5" d="M480.46,-418.98C520.23,-402.1 583.08,-377.63 640,-365 767.56,-336.7 923.9,-331.21 990.48,-330.2"/>
<polygon fill="#4a6fa5" stroke="#4a6fa5" points="990.67,-332.3 996.64,-330.12 990.61,-328.1 990.67,-332.3"/>
</g>
<!-- Node0x56805d7be270&#45;&gt;Node0x56805d7b21f0 -->
<g id="edge32" class="edge">
<title>Node0x56805d7be270&#45;&gt;Node0x56805d7b21f0</title>
<path fill="none" stroke="#4a6fa5" d="M466.09,-418.85C503.27,-393.62 574.29,-347.84 640,-319 652.76,-313.4 666.68,-308.35 680.3,-303.94"/>
<polygon fill="#4a6fa5" stroke="#4a6fa5" points="681.04,-305.91 686.12,-302.08 679.77,-301.9 681.04,-305.91"/>
</g>
<!-- Node0x56805d7d60c0 -->
<g id="node32" class="node">
<title>Node0x56805d7d60c0</title>
<path fill="#f0f4ff" stroke="black" d="M771.5,-568C771.5,-568 741.5,-568 741.5,-568 735.5,-568 729.5,-562 729.5,-556 729.5,-556 729.5,-544 729.5,-544 729.5,-538 735.5,-532 741.5,-532 741.5,-532 771.5,-532 771.5,-532 777.5,-532 783.5,-538 783.5,-544 783.5,-544 783.5,-556 783.5,-556 783.5,-562 777.5,-568 771.5,-568"/>
<text text-anchor="middle" x="756.5" y="-547.8" font-family="Courier,monospace" font-size="9.00">sin</text>
</g>
<!-- Node0x56805d7be270&#45;&gt;Node0x56805d7d60c0 -->
<g id="edge29" class="edge">
<title>Node0x56805d7be270&#45;&gt;Node0x56805d7d60c0</title>
<path fill="none" stroke="#4a6fa5" d="M478.05,-455.02C517.81,-473.37 582.3,-501.76 640,-521 667.73,-530.24 700.05,-538.12 723.44,-543.32"/>
<polygon fill="#4a6fa5" stroke="#4a6fa5" points="723.18,-545.42 729.49,-544.65 724.08,-541.31 723.18,-545.42"/>
</g>
<!-- Node0x56805d7bdd70 -->
<g id="node33" class="node">
<title>Node0x56805d7bdd70</title>
<path fill="#f0f4ff" stroke="black" d="M771.5,-244C771.5,-244 741.5,-244 741.5,-244 735.5,-244 729.5,-238 729.5,-232 729.5,-232 729.5,-220 729.5,-220 729.5,-214 735.5,-208 741.5,-208 741.5,-208 771.5,-208 771.5,-208 777.5,-208 783.5,-214 783.5,-220 783.5,-220 783.5,-232 783.5,-232 783.5,-238 777.5,-244 771.5,-244"/>
<text text-anchor="middle" x="756.5" y="-223.8" font-family="Courier,monospace" font-size="9.00">cos</text>
</g>
<!-- Node0x56805d7be270&#45;&gt;Node0x56805d7bdd70 -->
<g id="edge30" class="edge">
<title>Node0x56805d7be270&#45;&gt;Node0x56805d7bdd70</title>
<path fill="none" stroke="#4a6fa5" d="M454.45,-418.86C484.75,-382.07 558.9,-298.48 640,-255 666.09,-241.01 699.14,-233.6 723.19,-229.78"/>
<polygon fill="#4a6fa5" stroke="#4a6fa5" points="723.79,-231.81 729.41,-228.84 723.16,-227.66 723.79,-231.81"/>
</g>
<!-- Node0x56805d7e3310 -->
<g id="node34" class="node">
<title>Node0x56805d7e3310</title>
<path fill="#f0f4ff" stroke="black" d="M507,-218C507,-218 371,-218 371,-218 365,-218 359,-212 359,-206 359,-206 359,-194 359,-194 359,-188 365,-182 371,-182 371,-182 507,-182 507,-182 513,-182 519,-188 519,-194 519,-194 519,-206 519,-206 519,-212 513,-218 507,-218"/>
<text text-anchor="middle" x="439" y="-197.8" font-family="Courier,monospace" font-size="9.00">CIccCamConverter::JabToXYZ()</text>
</g>
<!-- Node0x56805d7e3310&#45;&gt;Node0x56805d687650 -->
<g id="edge35" class="edge">
<title>Node0x56805d7e3310&#45;&gt;Node0x56805d687650</title>
<path fill="none" stroke="#4a6fa5" d="M451.44,-218.05C485.89,-271.87 589.37,-429.59 640,-463 644.69,-466.09 649.68,-468.86 654.87,-471.33"/>
<polygon fill="#4a6fa5" stroke="#4a6fa5" points="654.23,-473.34 660.56,-473.89 655.95,-469.51 654.23,-473.34"/>
</g>
<!-- Node0x56805d7e3310&#45;&gt;Node0x56805d7746f0 -->
<g id="edge37" class="edge">
<title>Node0x56805d7e3310&#45;&gt;Node0x56805d7746f0</title>
<path fill="none" stroke="#4a6fa5" d="M458.11,-181.93C491.26,-149.89 565.19,-83.09 640,-47 646.9,-43.67 654.22,-40.7 661.7,-38.05"/>
<polygon fill="#4a6fa5" stroke="#4a6fa5" points="662.45,-40.01 667.44,-36.08 661.09,-36.04 662.45,-40.01"/>
</g>
<!-- Node0x56805d7e3310&#45;&gt;Node0x56805d7b2330 -->
<g id="edge36" class="edge">
<title>Node0x56805d7e3310&#45;&gt;Node0x56805d7b2330</title>
<path fill="none" stroke="#4a6fa5" d="M495.79,-181.91C626.38,-143.45 953.18,-70.49 1117,-243 1181.37,-310.79 1196.42,-428.29 1199.93,-478.79"/>
<polygon fill="#4a6fa5" stroke="#4a6fa5" points="1197.84,-479.04 1200.32,-484.89 1202.03,-478.77 1197.84,-479.04"/>
</g>
<!-- Node0x56805d7e3310&#45;&gt;Node0x56805d7b3750 -->
<g id="edge41" class="edge">
<title>Node0x56805d7e3310&#45;&gt;Node0x56805d7b3750</title>
<path fill="none" stroke="#4a6fa5" d="M464.49,-218.17C521.67,-260.57 663.76,-365.96 725.77,-411.95"/>
<polygon fill="#4a6fa5" stroke="#4a6fa5" points="724.73,-413.8 730.8,-415.68 727.24,-410.42 724.73,-413.8"/>
</g>
<!-- Node0x56805d7e3310&#45;&gt;Node0x56805d7b5db0 -->
<g id="edge34" class="edge">
<title>Node0x56805d7e3310&#45;&gt;Node0x56805d7b5db0</title>
<path fill="none" stroke="#4a6fa5" d="M498.41,-181.93C586.41,-158.37 755.18,-127.81 873,-197 918.64,-223.8 889.97,-267.57 931,-301 947.91,-314.78 971.44,-322.05 990.46,-325.86"/>
<polygon fill="#4a6fa5" stroke="#4a6fa5" points="990.44,-327.99 996.73,-327.02 991.21,-323.86 990.44,-327.99"/>
</g>
<!-- Node0x56805d7e3310&#45;&gt;Node0x56805d7b21f0 -->
<g id="edge38" class="edge">
<title>Node0x56805d7e3310&#45;&gt;Node0x56805d7b21f0</title>
<path fill="none" stroke="#4a6fa5" d="M504.3,-218.08C543.47,-228.99 594.55,-243.05 640,-255 651.86,-258.12 664.42,-261.35 676.72,-264.47"/>
<polygon fill="#4a6fa5" stroke="#4a6fa5" points="676.4,-266.56 682.73,-265.99 677.43,-262.48 676.4,-266.56"/>
</g>
<!-- Node0x56805d7e3310&#45;&gt;Node0x56805d7bdd70 -->
<g id="edge39" class="edge">
<title>Node0x56805d7e3310&#45;&gt;Node0x56805d7bdd70</title>
<path fill="none" stroke="#4a6fa5" d="M519.21,-206.53C585.06,-211.95 675.44,-219.4 723.08,-223.33"/>
<polygon fill="#4a6fa5" stroke="#4a6fa5" points="723.08,-225.44 729.23,-223.84 723.43,-221.25 723.08,-225.44"/>
</g>
<!-- Node0x56805d7e31c0 -->
<g id="node35" class="node">
<title>Node0x56805d7e31c0</title>
<path fill="#f0f4ff" stroke="black" d="M771.5,-94C771.5,-94 741.5,-94 741.5,-94 735.5,-94 729.5,-88 729.5,-82 729.5,-82 729.5,-70 729.5,-70 729.5,-64 735.5,-58 741.5,-58 741.5,-58 771.5,-58 771.5,-58 777.5,-58 783.5,-64 783.5,-70 783.5,-70 783.5,-82 783.5,-82 783.5,-88 777.5,-94 771.5,-94"/>
<text text-anchor="middle" x="756.5" y="-73.8" font-family="Courier,monospace" font-size="9.00">tan</text>
</g>
<!-- Node0x56805d7e3310&#45;&gt;Node0x56805d7e31c0 -->
<g id="edge40" class="edge">
<title>Node0x56805d7e3310&#45;&gt;Node0x56805d7e31c0</title>
<path fill="none" stroke="#4a6fa5" d="M477.02,-181.86C516.74,-162.79 581.95,-132.62 640,-111 667.58,-100.73 699.66,-91.19 723,-84.68"/>
<polygon fill="#4a6fa5" stroke="#4a6fa5" points="723.82,-86.63 729.04,-83.01 722.7,-82.58 723.82,-86.63"/>
</g>
</g>
</svg>
