<?xml version="1.0" encoding="UTF-8" standalone="no"?>
<!DOCTYPE svg PUBLIC "-//W3C//DTD SVG 1.1//EN"
 "http://www.w3.org/Graphics/SVG/1.1/DTD/svg11.dtd">
<!-- Generated by graphviz version 2.43.0 (0)
 -->
<!-- Title: Call graph: /home/h02332/po/research/call&#45;graph/iccdev/proflib/IccEval.ll Pages: 1 -->
<svg width="1526pt" height="14400pt"
 viewBox="0.00 0.00 1525.82 14400.00" xmlns="http://www.w3.org/2000/svg" xmlns:xlink="http://www.w3.org/1999/xlink">
<g id="graph0" class="graph" transform="scale(1.92 1.92) rotate(0) translate(36 7448)">
<title>Call graph: /home/h02332/po/research/call&#45;graph/iccdev/proflib/IccEval.ll</title>
<polygon fill="white" stroke="transparent" points="-36,36 -36,-7448 757,-7448 757,36 -36,36"/>
<!-- Node0x5988f7136b50 -->
<g id="node1" class="node">
<title>Node0x5988f7136b50</title>
<path fill="#f0f4ff" stroke="black" d="M482,-361C482,-361 302,-361 302,-361 296,-361 290,-355 290,-349 290,-349 290,-337 290,-337 290,-331 296,-325 302,-325 302,-325 482,-325 482,-325 488,-325 494,-331 494,-337 494,-337 494,-349 494,-349 494,-355 488,-361 482,-361"/>
<text text-anchor="middle" x="392" y="-340.8" font-family="Courier,monospace" font-size="9.00">{CIccEvalCompare::EvaluateProfile()}</text>
</g>
<!-- Node0x5988f71371e0 -->
<g id="node2" class="node">
<title>Node0x5988f71371e0</title>
<path fill="#f0f4ff" stroke="black" d="M698.5,-686C698.5,-686 602.5,-686 602.5,-686 596.5,-686 590.5,-680 590.5,-674 590.5,-674 590.5,-662 590.5,-662 590.5,-656 596.5,-650 602.5,-650 602.5,-650 698.5,-650 698.5,-650 704.5,-650 710.5,-656 710.5,-662 710.5,-662 710.5,-674 710.5,-674 710.5,-680 704.5,-686 698.5,-686"/>
<text text-anchor="middle" x="650.5" y="-665.8" font-family="Courier,monospace" font-size="9.00">{CIccCmm::CIccCmm()}</text>
</g>
<!-- Node0x5988f7136b50&#45;&gt;Node0x5988f71371e0 -->
<g id="edge1" class="edge">
<title>Node0x5988f7136b50&#45;&gt;Node0x5988f71371e0</title>
<path fill="none" stroke="#4a6fa5" d="M400.28,-361.34C421.07,-411.64 485.4,-553.51 580,-636 584.39,-639.83 589.31,-643.28 594.46,-646.38"/>
<polygon fill="#4a6fa5" stroke="#4a6fa5" points="593.29,-648.53 600.59,-649.85 595.71,-644.27 593.29,-648.53"/>
</g>
<!-- Node0x5988f7137570 -->
<g id="node3" class="node">
<title>Node0x5988f7137570</title>
<path fill="#f0f4ff" stroke="black" d="M701,-621C701,-621 600,-621 600,-621 594,-621 588,-615 588,-609 588,-609 588,-597 588,-597 588,-591 594,-585 600,-585 600,-585 701,-585 701,-585 707,-585 713,-591 713,-597 713,-597 713,-609 713,-609 713,-615 707,-621 701,-621"/>
<text text-anchor="middle" x="650.5" y="-600.8" font-family="Courier,monospace" font-size="9.00">{CIccCmm::~CIccCmm()}</text>
</g>
<!-- Node0x5988f7136b50&#45;&gt;Node0x5988f7137570 -->
<g id="edge2" class="edge">
<title>Node0x5988f7136b50&#45;&gt;Node0x5988f7137570</title>
<path fill="none" stroke="#4a6fa5" d="M403.72,-361.03C429.39,-402.9 498.36,-507.94 580,-571 585.02,-574.88 590.58,-578.42 596.31,-581.62"/>
<polygon fill="#4a6fa5" stroke="#4a6fa5" points="595.25,-583.83 602.58,-584.96 597.55,-579.5 595.25,-583.83"/>
</g>
<!-- Node0x5988f7149e80 -->
<g id="node4" class="node">
<title>Node0x5988f7149e80</title>
<path fill="#f0f4ff" stroke="black" d="M701,-556C701,-556 600,-556 600,-556 594,-556 588,-550 588,-544 588,-544 588,-532 588,-532 588,-526 594,-520 600,-520 600,-520 701,-520 701,-520 707,-520 713,-526 713,-532 713,-532 713,-544 713,-544 713,-550 707,-556 701,-556"/>
<text text-anchor="middle" x="650.5" y="-535.8" font-family="Courier,monospace" font-size="9.00">{CIccCmm::AddXform()}</text>
</g>
<!-- Node0x5988f7136b50&#45;&gt;Node0x5988f7149e80 -->
<g id="edge3" class="edge">
<title>Node0x5988f7136b50&#45;&gt;Node0x5988f7149e80</title>
<path fill="none" stroke="#4a6fa5" d="M410.18,-361.05C441.57,-393.29 511.3,-461.55 580,-506 585.86,-509.79 592.23,-513.37 598.67,-516.67"/>
<polygon fill="#4a6fa5" stroke="#4a6fa5" points="597.75,-518.95 605.11,-519.87 599.93,-514.56 597.75,-518.95"/>
</g>
<!-- Node0x5988f7189af0 -->
<g id="node5" class="node">
<title>Node0x5988f7189af0</title>
<path fill="#f0f4ff" stroke="black" d="M693,-491C693,-491 608,-491 608,-491 602,-491 596,-485 596,-479 596,-479 596,-467 596,-467 596,-461 602,-455 608,-455 608,-455 693,-455 693,-455 699,-455 705,-461 705,-467 705,-467 705,-479 705,-479 705,-485 699,-491 693,-491"/>
<text text-anchor="middle" x="650.5" y="-470.8" font-family="Courier,monospace" font-size="9.00">{CIccCmm::Begin()}</text>
</g>
<!-- Node0x5988f7136b50&#45;&gt;Node0x5988f7189af0 -->
<g id="edge4" class="edge">
<title>Node0x5988f7136b50&#45;&gt;Node0x5988f7189af0</title>
<path fill="none" stroke="#4a6fa5" d="M426.18,-361.05C463.36,-381.11 525.57,-414.23 580,-441 587.36,-444.62 595.21,-448.35 602.88,-451.94"/>
<polygon fill="#4a6fa5" stroke="#4a6fa5" points="601.89,-454.18 609.28,-454.9 603.96,-449.73 601.89,-454.18"/>
</g>
<!-- Node0x5988f718b1f0 -->
<g id="node6" class="node">
<title>Node0x5988f718b1f0</title>
<path fill="#f0f4ff" stroke="black" d="M688,-426C688,-426 613,-426 613,-426 607,-426 601,-420 601,-414 601,-414 601,-402 601,-402 601,-396 607,-390 613,-390 613,-390 688,-390 688,-390 694,-390 700,-396 700,-402 700,-402 700,-414 700,-414 700,-420 694,-426 688,-426"/>
<text text-anchor="middle" x="650.5" y="-405.8" font-family="Courier,monospace" font-size="9.00">{icLabFromPcs()}</text>
</g>
<!-- Node0x5988f7136b50&#45;&gt;Node0x5988f718b1f0 -->
<g id="edge5" class="edge">
<title>Node0x5988f7136b50&#45;&gt;Node0x5988f718b1f0</title>
<path fill="none" stroke="#4a6fa5" d="M464.11,-361.02C505.14,-371.42 555.99,-384.3 594.05,-393.95"/>
<polygon fill="#4a6fa5" stroke="#4a6fa5" points="593.61,-396.36 601,-395.71 594.82,-391.61 593.61,-396.36"/>
</g>
<!-- Node0x5988f718a570 -->
<g id="node7" class="node">
<title>Node0x5988f718a570</title>
<path fill="#f0f4ff" stroke="black" d="M693,-361C693,-361 608,-361 608,-361 602,-361 596,-355 596,-349 596,-349 596,-337 596,-337 596,-331 602,-325 608,-325 608,-325 693,-325 693,-325 699,-325 705,-331 705,-337 705,-337 705,-349 705,-349 705,-355 699,-361 693,-361"/>
<text text-anchor="middle" x="650.5" y="-340.8" font-family="Courier,monospace" font-size="9.00">{CIccCmm::Apply()}</text>
</g>
<!-- Node0x5988f7136b50&#45;&gt;Node0x5988f718a570 -->
<g id="edge6" class="edge">
<title>Node0x5988f7136b50&#45;&gt;Node0x5988f718a570</title>
<path fill="none" stroke="#4a6fa5" d="M494.01,-343C526.06,-343 560.49,-343 588.79,-343"/>
<polygon fill="#4a6fa5" stroke="#4a6fa5" points="588.84,-345.45 595.84,-343 588.84,-340.55 588.84,-345.45"/>
</g>
<!-- Node0x5988f718a7f0 -->
<g id="node8" class="node">
<title>Node0x5988f718a7f0</title>
<path fill="#f0f4ff" stroke="black" d="M669.5,-296C669.5,-296 631.5,-296 631.5,-296 625.5,-296 619.5,-290 619.5,-284 619.5,-284 619.5,-272 619.5,-272 619.5,-266 625.5,-260 631.5,-260 631.5,-260 669.5,-260 669.5,-260 675.5,-260 681.5,-266 681.5,-272 681.5,-272 681.5,-284 681.5,-284 681.5,-290 675.5,-296 669.5,-296"/>
<text text-anchor="middle" x="650.5" y="-275.8" font-family="Courier,monospace" font-size="9.00">{icMin()}</text>
</g>
<!-- Node0x5988f7136b50&#45;&gt;Node0x5988f718a7f0 -->
<g id="edge7" class="edge">
<title>Node0x5988f7136b50&#45;&gt;Node0x5988f718a7f0</title>
<path fill="none" stroke="#4a6fa5" d="M464.11,-324.98C512.12,-312.81 573.57,-297.24 612.24,-287.44"/>
<polygon fill="#4a6fa5" stroke="#4a6fa5" points="613.01,-289.78 619.19,-285.68 611.8,-285.03 613.01,-289.78"/>
</g>
<!-- Node0x5988f7187cf0 -->
<g id="node9" class="node">
<title>Node0x5988f7187cf0</title>
<path fill="#f0f4ff" stroke="black" d="M701,-231C701,-231 600,-231 600,-231 594,-231 588,-225 588,-219 588,-219 588,-207 588,-207 588,-201 594,-195 600,-195 600,-195 701,-195 701,-195 707,-195 713,-201 713,-207 713,-207 713,-219 713,-219 713,-225 707,-231 701,-231"/>
<text text-anchor="middle" x="650.5" y="-210.8" font-family="Courier,monospace" font-size="9.00">{icGetSpaceSamples()}</text>
</g>
<!-- Node0x5988f7136b50&#45;&gt;Node0x5988f7187cf0 -->
<g id="edge8" class="edge">
<title>Node0x5988f7136b50&#45;&gt;Node0x5988f7187cf0</title>
<path fill="none" stroke="#4a6fa5" d="M461.11,-324.93C472.36,-320.96 483.71,-316.32 494,-311 536.56,-289 539.04,-270.85 580,-246 586.73,-241.92 594.05,-237.96 601.33,-234.3"/>
<polygon fill="#4a6fa5" stroke="#4a6fa5" points="602.78,-236.31 607.98,-231.02 600.62,-231.92 602.78,-236.31"/>
</g>
<!-- Node0x5988f7187d70 -->
<g id="node10" class="node">
<title>Node0x5988f7187d70</title>
<path fill="#f0f4ff" stroke="black" d="M709,-166C709,-166 592,-166 592,-166 586,-166 580,-160 580,-154 580,-154 580,-142 580,-142 580,-136 586,-130 592,-130 592,-130 709,-130 709,-130 715,-130 721,-136 721,-142 721,-142 721,-154 721,-154 721,-160 715,-166 709,-166"/>
<text text-anchor="middle" x="650.5" y="-145.8" font-family="Courier,monospace" font-size="9.00">{CIccProfile::FindTag()}</text>
</g>
<!-- Node0x5988f7136b50&#45;&gt;Node0x5988f7187d70 -->
<g id="edge9" class="edge">
<title>Node0x5988f7136b50&#45;&gt;Node0x5988f7187d70</title>
<path fill="none" stroke="#4a6fa5" d="M469.69,-324.95C478.33,-321.14 486.66,-316.54 494,-311 549.29,-269.26 527.68,-226.41 580,-181 584.89,-176.76 590.42,-172.94 596.17,-169.53"/>
<polygon fill="#4a6fa5" stroke="#4a6fa5" points="597.57,-171.56 602.48,-166 595.17,-167.28 597.57,-171.56"/>
</g>
<!-- Node0x5988f718acf0 -->
<g id="node11" class="node">
<title>Node0x5988f718acf0</title>
<path fill="#f0f4ff" stroke="black" d="M709,-101C709,-101 592,-101 592,-101 586,-101 580,-95 580,-89 580,-89 580,-77 580,-77 580,-71 586,-65 592,-65 592,-65 709,-65 709,-65 715,-65 721,-71 721,-77 721,-77 721,-89 721,-89 721,-95 715,-101 709,-101"/>
<text text-anchor="middle" x="650.5" y="-80.8" font-family="Courier,monospace" font-size="9.00">{CIccCLUT::GridPoints()}</text>
</g>
<!-- Node0x5988f7136b50&#45;&gt;Node0x5988f718acf0 -->
<g id="edge10" class="edge">
<title>Node0x5988f7136b50&#45;&gt;Node0x5988f718acf0</title>
<path fill="none" stroke="#4a6fa5" d="M473.18,-324.88C480.72,-321.1 487.84,-316.53 494,-311 564.51,-247.75 513.96,-183.91 580,-116 584.08,-111.8 588.81,-108.07 593.83,-104.78"/>
<polygon fill="#4a6fa5" stroke="#4a6fa5" points="595.15,-106.84 599.85,-101.1 592.59,-102.66 595.15,-106.84"/>
</g>
<!-- Node0x5988f7189f70 -->
<g id="node12" class="node">
<title>Node0x5988f7189f70</title>
<path fill="#f0f4ff" stroke="black" d="M698.5,-36C698.5,-36 602.5,-36 602.5,-36 596.5,-36 590.5,-30 590.5,-24 590.5,-24 590.5,-12 590.5,-12 590.5,-6 596.5,0 602.5,0 602.5,0 698.5,0 698.5,0 704.5,0 710.5,-6 710.5,-12 710.5,-12 710.5,-24 710.5,-24 710.5,-30 704.5,-36 698.5,-36"/>
<text text-anchor="middle" x="650.5" y="-15.8" font-family="Courier,monospace" font-size="9.00">{CIccMBB::GetCLUT()}</text>
</g>
<!-- Node0x5988f7136b50&#45;&gt;Node0x5988f7189f70 -->
<g id="edge11" class="edge">
<title>Node0x5988f7136b50&#45;&gt;Node0x5988f7189f70</title>
<path fill="none" stroke="#4a6fa5" d="M474.72,-324.95C481.79,-321.15 488.37,-316.56 494,-311 580.61,-225.48 499.43,-142.23 580,-51 583.67,-46.85 587.97,-43.17 592.61,-39.93"/>
<polygon fill="#4a6fa5" stroke="#4a6fa5" points="594.08,-41.9 598.64,-36.06 591.43,-37.78 594.08,-41.9"/>
</g>
<!-- Node0x5988f718ba70 -->
<g id="node13" class="node">
<title>Node0x5988f718ba70</title>
<path fill="#f0f4ff" stroke="black" d="M155,-7412C155,-7412 49,-7412 49,-7412 43,-7412 37,-7406 37,-7400 37,-7400 37,-7388 37,-7388 37,-7382 43,-7376 49,-7376 49,-7376 155,-7376 155,-7376 161,-7376 167,-7382 167,-7388 167,-7388 167,-7400 167,-7400 167,-7406 161,-7412 155,-7412"/>
<text text-anchor="middle" x="102" y="-7391.8" font-family="Courier,monospace" font-size="9.00">{__gxx_personality_v0}</text>
</g>
<!-- Node0x5988f718a4f0 -->
<g id="node14" class="node">
<title>Node0x5988f718a4f0</title>
<path fill="#f0f4ff" stroke="black" d="M192,-328C192,-328 12,-328 12,-328 6,-328 0,-322 0,-316 0,-316 0,-304 0,-304 0,-298 6,-292 12,-292 12,-292 192,-292 192,-292 198,-292 204,-298 204,-304 204,-304 204,-316 204,-316 204,-322 198,-328 192,-328"/>
<text text-anchor="middle" x="102" y="-307.8" font-family="Courier,monospace" font-size="9.00">{CIccEvalCompare::EvaluateProfile()}</text>
</g>
<!-- Node0x5988f718a4f0&#45;&gt;Node0x5988f7136b50 -->
<g id="edge13" class="edge">
<title>Node0x5988f718a4f0&#45;&gt;Node0x5988f7136b50</title>
<path fill="none" stroke="#4a6fa5" d="M204.13,-321.59C229.47,-324.49 256.75,-327.62 282.43,-330.56"/>
<polygon fill="#4a6fa5" stroke="#4a6fa5" points="282.39,-333.02 289.62,-331.38 282.95,-328.15 282.39,-333.02"/>
</g>
<!-- Node0x5988f718b2b0 -->
<g id="node15" class="node">
<title>Node0x5988f718b2b0</title>
<path fill="#f0f4ff" stroke="black" d="M434.5,-296C434.5,-296 349.5,-296 349.5,-296 343.5,-296 337.5,-290 337.5,-284 337.5,-284 337.5,-272 337.5,-272 337.5,-266 343.5,-260 349.5,-260 349.5,-260 434.5,-260 434.5,-260 440.5,-260 446.5,-266 446.5,-272 446.5,-272 446.5,-284 446.5,-284 446.5,-290 440.5,-296 434.5,-296"/>
<text text-anchor="middle" x="392" y="-275.8" font-family="Courier,monospace" font-size="9.00">{ReadIccProfile()}</text>
</g>
<!-- Node0x5988f718a4f0&#45;&gt;Node0x5988f718b2b0 -->
<g id="edge12" class="edge">
<title>Node0x5988f718a4f0&#45;&gt;Node0x5988f718b2b0</title>
<path fill="none" stroke="#4a6fa5" d="M204.13,-298.76C246.22,-294.09 293.69,-288.81 330.25,-284.75"/>
<polygon fill="#4a6fa5" stroke="#4a6fa5" points="330.72,-287.16 337.41,-283.95 330.18,-282.29 330.72,-287.16"/>
</g>
</g>
</svg>
