<?xml version="1.0" encoding="UTF-8" standalone="no"?>
<!DOCTYPE svg PUBLIC "-//W3C//DTD SVG 1.1//EN"
 "http://www.w3.org/Graphics/SVG/1.1/DTD/svg11.dtd">
<!-- Generated by graphviz version 2.43.0 (0)
 -->
<!-- Title: Call graph: /home/h02332/po/research/call&#45;graph/iccdev/proflib/IccEnvVar.ll Pages: 1 -->
<svg width="1053pt" height="1239pt"
 viewBox="0.00 0.00 1053.20 1239.20" xmlns="http://www.w3.org/2000/svg" xmlns:xlink="http://www.w3.org/1999/xlink">
<g id="graph0" class="graph" transform="scale(1 1) rotate(0) translate(21.6 1217.6)">
<title>Call graph: /home/h02332/po/research/call&#45;graph/iccdev/proflib/IccEnvVar.ll</title>
<polygon fill="white" stroke="transparent" points="-21.6,21.6 -21.6,-1217.6 1031.6,-1217.6 1031.6,21.6 -21.6,21.6"/>
<!-- Node0x62b549991a20 -->
<g id="node1" class="node">
<title>Node0x62b549991a20</title>
<path fill="#f0f4ff" stroke="black" d="M253,-94C253,-94 75,-94 75,-94 69,-94 63,-88 63,-82 63,-82 63,-70 63,-70 63,-64 69,-58 75,-58 75,-58 253,-58 253,-58 259,-58 265,-64 265,-70 265,-70 265,-82 265,-82 265,-88 259,-94 253,-94"/>
<text text-anchor="middle" x="164" y="-73.8" font-family="Courier,monospace" font-size="9.00">CIccCmmVarLookup::CIccCmmVarLookup()</text>
</g>
<!-- Node0x62b5499be390 -->
<g id="node2" class="node">
<title>Node0x62b5499be390</title>
<path fill="#f0f4ff" stroke="black" d="M654.5,-94C654.5,-94 445.5,-94 445.5,-94 439.5,-94 433.5,-88 433.5,-82 433.5,-82 433.5,-70 433.5,-70 433.5,-64 439.5,-58 445.5,-58 445.5,-58 654.5,-58 654.5,-58 660.5,-58 666.5,-64 666.5,-70 666.5,-70 666.5,-82 666.5,-82 666.5,-88 660.5,-94 654.5,-94"/>
<text text-anchor="middle" x="550" y="-73.8" font-family="Courier,monospace" font-size="9.00">IIccCmmEnvVarLookup::IIccCmmEnvVarLookup()</text>
</g>
<!-- Node0x62b549991a20&#45;&gt;Node0x62b5499be390 -->
<g id="edge1" class="edge">
<title>Node0x62b549991a20&#45;&gt;Node0x62b5499be390</title>
<path fill="none" stroke="#4a6fa5" d="M265.14,-76C314.78,-76 375.14,-76 427.42,-76"/>
<polygon fill="#4a6fa5" stroke="#4a6fa5" points="427.43,-78.1 433.43,-76 427.43,-73.9 427.43,-78.1"/>
</g>
<!-- Node0x62b5498d1960 -->
<g id="node3" class="node">
<title>Node0x62b5498d1960</title>
<path fill="#f0f4ff" stroke="black" d="M657,-36C657,-36 443,-36 443,-36 437,-36 431,-30 431,-24 431,-24 431,-12 431,-12 431,-6 437,0 443,0 443,0 657,0 657,0 663,0 669,-6 669,-12 669,-12 669,-24 669,-24 669,-30 663,-36 657,-36"/>
<text text-anchor="middle" x="550" y="-15.8" font-family="Courier,monospace" font-size="9.00">IIccCmmEnvVarLookup::~IIccCmmEnvVarLookup()</text>
</g>
<!-- Node0x62b549991a20&#45;&gt;Node0x62b5498d1960 -->
<g id="edge2" class="edge">
<title>Node0x62b549991a20&#45;&gt;Node0x62b5498d1960</title>
<path fill="none" stroke="#4a6fa5" d="M265.14,-60.87C314.03,-53.49 373.32,-44.53 425.05,-36.72"/>
<polygon fill="#4a6fa5" stroke="#4a6fa5" points="425.37,-38.8 430.99,-35.82 424.75,-34.64 425.37,-38.8"/>
</g>
<!-- Node0x62b549925490 -->
<g id="node4" class="node">
<title>Node0x62b549925490</title>
<path fill="#f0f4ff" stroke="black" d="M255.5,-36C255.5,-36 72.5,-36 72.5,-36 66.5,-36 60.5,-30 60.5,-24 60.5,-24 60.5,-12 60.5,-12 60.5,-6 66.5,0 72.5,0 72.5,0 255.5,0 255.5,0 261.5,0 267.5,-6 267.5,-12 267.5,-12 267.5,-24 267.5,-24 267.5,-30 261.5,-36 255.5,-36"/>
<text text-anchor="middle" x="164" y="-15.8" font-family="Courier,monospace" font-size="9.00">CIccCmmVarLookup::~CIccCmmVarLookup()</text>
</g>
<!-- Node0x62b549925490&#45;&gt;Node0x62b5498d1960 -->
<g id="edge3" class="edge">
<title>Node0x62b549925490&#45;&gt;Node0x62b5498d1960</title>
<path fill="none" stroke="#4a6fa5" d="M267.65,-18C315.9,-18 373.84,-18 424.56,-18"/>
<polygon fill="#4a6fa5" stroke="#4a6fa5" points="424.71,-20.1 430.71,-18 424.71,-15.9 424.71,-20.1"/>
</g>
<!-- Node0x62b5498b85b0 -->
<g id="node5" class="node">
<title>Node0x62b5498b85b0</title>
<path fill="#f0f4ff" stroke="black" d="M255.5,-152C255.5,-152 72.5,-152 72.5,-152 66.5,-152 60.5,-146 60.5,-140 60.5,-140 60.5,-128 60.5,-128 60.5,-122 66.5,-116 72.5,-116 72.5,-116 255.5,-116 255.5,-116 261.5,-116 267.5,-122 267.5,-128 267.5,-128 267.5,-140 267.5,-140 267.5,-146 261.5,-152 255.5,-152"/>
<text text-anchor="middle" x="164" y="-131.8" font-family="Courier,monospace" font-size="9.00">CIccCmmVarLookup::~CIccCmmVarLookup()</text>
</g>
<!-- Node0x62b5498b9070 -->
<g id="node6" class="node">
<title>Node0x62b5498b9070</title>
<path fill="#f0f4ff" stroke="black" d="M234.5,-210C234.5,-210 93.5,-210 93.5,-210 87.5,-210 81.5,-204 81.5,-198 81.5,-198 81.5,-186 81.5,-186 81.5,-180 87.5,-174 93.5,-174 93.5,-174 234.5,-174 234.5,-174 240.5,-174 246.5,-180 246.5,-186 246.5,-186 246.5,-198 246.5,-198 246.5,-204 240.5,-210 234.5,-210"/>
<text text-anchor="middle" x="164" y="-189.8" font-family="Courier,monospace" font-size="9.00">CIccCmmVarLookup::GetEnvVar()</text>
</g>
<!-- Node0x62b5499d8f20 -->
<g id="node7" class="node">
<title>Node0x62b5499d8f20</title>
<path fill="#f0f4ff" stroke="black" d="M245,-268C245,-268 83,-268 83,-268 77,-268 71,-262 71,-256 71,-256 71,-244 71,-244 71,-238 77,-232 83,-232 83,-232 245,-232 245,-232 251,-232 257,-238 257,-244 257,-244 257,-256 257,-256 257,-262 251,-268 245,-268"/>
<text text-anchor="middle" x="164" y="-247.8" font-family="Courier,monospace" font-size="9.00">CIccCmmVarLookup::IndexedEnvVar()</text>
</g>
<!-- Node0x62b5499dfaa0 -->
<g id="node8" class="node">
<title>Node0x62b5499dfaa0</title>
<path fill="#f0f4ff" stroke="black" d="M258,-384C258,-384 70,-384 70,-384 64,-384 58,-378 58,-372 58,-372 58,-360 58,-360 58,-354 64,-348 70,-348 70,-348 258,-348 258,-348 264,-348 270,-354 270,-360 270,-360 270,-372 270,-372 270,-378 264,-384 258,-384"/>
<text text-anchor="middle" x="164" y="-363.8" font-family="Courier,monospace" font-size="9.00">CIccCmmEnvVarHint::CIccCmmEnvVarHint()</text>
</g>
<!-- Node0x62b5499df310 -->
<g id="node9" class="node">
<title>Node0x62b5499df310</title>
<path fill="#f0f4ff" stroke="black" d="M702,-384C702,-384 398,-384 398,-384 392,-384 386,-378 386,-372 386,-372 386,-360 386,-360 386,-354 392,-348 398,-348 398,-348 702,-348 702,-348 708,-348 714,-354 714,-360 714,-360 714,-372 714,-372 714,-378 708,-384 702,-384"/>
<text text-anchor="middle" x="550" y="-363.8" font-family="Courier,monospace" font-size="9.00">CIccCreateCmmEnvVarXformHint::CIccCreateCmmEnvVarXformHint()</text>
</g>
<!-- Node0x62b5499dfaa0&#45;&gt;Node0x62b5499df310 -->
<g id="edge4" class="edge">
<title>Node0x62b5499dfaa0&#45;&gt;Node0x62b5499df310</title>
<path fill="none" stroke="#4a6fa5" d="M270.18,-366C303.98,-366 342.32,-366 379.51,-366"/>
<polygon fill="#4a6fa5" stroke="#4a6fa5" points="379.96,-368.1 385.96,-366 379.96,-363.9 379.96,-368.1"/>
</g>
<!-- Node0x62b5499e1e10 -->
<g id="node10" class="node">
<title>Node0x62b5499e1e10</title>
<path fill="#f0f4ff" stroke="black" d="M702,-326C702,-326 398,-326 398,-326 392,-326 386,-320 386,-314 386,-314 386,-302 386,-302 386,-296 392,-290 398,-290 398,-290 702,-290 702,-290 708,-290 714,-296 714,-302 714,-302 714,-314 714,-314 714,-320 708,-326 702,-326"/>
<text text-anchor="middle" x="550" y="-305.8" font-family="Courier,monospace" font-size="9.00">CIccCreateCmmEnvVarXformHint::~CIccCreateCmmEnvVarXformHi...</text>
</g>
<!-- Node0x62b5499dfaa0&#45;&gt;Node0x62b5499e1e10 -->
<g id="edge5" class="edge">
<title>Node0x62b5499dfaa0&#45;&gt;Node0x62b5499e1e10</title>
<path fill="none" stroke="#4a6fa5" d="M270.18,-350.11C317.66,-342.94 374.1,-334.42 423.75,-326.92"/>
<polygon fill="#4a6fa5" stroke="#4a6fa5" points="424.15,-328.98 429.77,-326.01 423.52,-324.83 424.15,-328.98"/>
</g>
<!-- Node0x62b5499e4460 -->
<g id="node11" class="node">
<title>Node0x62b5499e4460</title>
<path fill="#f0f4ff" stroke="black" d="M995.5,-442C995.5,-442 786.5,-442 786.5,-442 780.5,-442 774.5,-436 774.5,-430 774.5,-430 774.5,-418 774.5,-418 774.5,-412 780.5,-406 786.5,-406 786.5,-406 995.5,-406 995.5,-406 1001.5,-406 1007.5,-412 1007.5,-418 1007.5,-418 1007.5,-430 1007.5,-430 1007.5,-436 1001.5,-442 995.5,-442"/>
<text text-anchor="middle" x="891" y="-421.8" font-family="Courier,monospace" font-size="9.00">IIccCreateXformHint::IIccCreateXformHint()</text>
</g>
<!-- Node0x62b5499df310&#45;&gt;Node0x62b5499e4460 -->
<g id="edge6" class="edge">
<title>Node0x62b5499df310&#45;&gt;Node0x62b5499e4460</title>
<path fill="none" stroke="#4a6fa5" d="M656.4,-384.03C695.15,-390.66 739.13,-398.19 778.4,-404.91"/>
<polygon fill="#4a6fa5" stroke="#4a6fa5" points="778.39,-407.04 784.66,-405.98 779.1,-402.9 778.39,-407.04"/>
</g>
<!-- Node0x62b5499e9710 -->
<g id="node26" class="node">
<title>Node0x62b5499e9710</title>
<path fill="#f0f4ff" stroke="black" d="M998,-384C998,-384 784,-384 784,-384 778,-384 772,-378 772,-372 772,-372 772,-360 772,-360 772,-354 778,-348 784,-348 784,-348 998,-348 998,-348 1004,-348 1010,-354 1010,-360 1010,-360 1010,-372 1010,-372 1010,-378 1004,-384 998,-384"/>
<text text-anchor="middle" x="891" y="-363.8" font-family="Courier,monospace" font-size="9.00">IIccCreateXformHint::~IIccCreateXformHint()</text>
</g>
<!-- Node0x62b5499e1e10&#45;&gt;Node0x62b5499e9710 -->
<g id="edge12" class="edge">
<title>Node0x62b5499e1e10&#45;&gt;Node0x62b5499e9710</title>
<path fill="none" stroke="#4a6fa5" d="M656.4,-326.03C695.15,-332.66 739.13,-340.19 778.4,-346.91"/>
<polygon fill="#4a6fa5" stroke="#4a6fa5" points="778.39,-349.04 784.66,-347.98 779.1,-344.9 778.39,-349.04"/>
</g>
<!-- Node0x62b5499e3ec0 -->
<g id="node12" class="node">
<title>Node0x62b5499e3ec0</title>
<path fill="#f0f4ff" stroke="black" d="M260.5,-326C260.5,-326 67.5,-326 67.5,-326 61.5,-326 55.5,-320 55.5,-314 55.5,-314 55.5,-302 55.5,-302 55.5,-296 61.5,-290 67.5,-290 67.5,-290 260.5,-290 260.5,-290 266.5,-290 272.5,-296 272.5,-302 272.5,-302 272.5,-314 272.5,-314 272.5,-320 266.5,-326 260.5,-326"/>
<text text-anchor="middle" x="164" y="-305.8" font-family="Courier,monospace" font-size="9.00">CIccCmmEnvVarHint::~CIccCmmEnvVarHint()</text>
</g>
<!-- Node0x62b5499e3ec0&#45;&gt;Node0x62b5499e1e10 -->
<g id="edge7" class="edge">
<title>Node0x62b5499e3ec0&#45;&gt;Node0x62b5499e1e10</title>
<path fill="none" stroke="#4a6fa5" d="M272.73,-308C305.87,-308 343.18,-308 379.41,-308"/>
<polygon fill="#4a6fa5" stroke="#4a6fa5" points="379.69,-310.1 385.69,-308 379.69,-305.9 379.69,-310.1"/>
</g>
<!-- Node0x62b5499e1d90 -->
<g id="node13" class="node">
<title>Node0x62b5499e1d90</title>
<path fill="#f0f4ff" stroke="black" d="M260.5,-558C260.5,-558 67.5,-558 67.5,-558 61.5,-558 55.5,-552 55.5,-546 55.5,-546 55.5,-534 55.5,-534 55.5,-528 61.5,-522 67.5,-522 67.5,-522 260.5,-522 260.5,-522 266.5,-522 272.5,-528 272.5,-534 272.5,-534 272.5,-546 272.5,-546 272.5,-552 266.5,-558 260.5,-558"/>
<text text-anchor="middle" x="164" y="-537.8" font-family="Courier,monospace" font-size="9.00">CIccCmmEnvVarHint::~CIccCmmEnvVarHint()</text>
</g>
<!-- Node0x62b5499e25a0 -->
<g id="node14" class="node">
<title>Node0x62b5499e25a0</title>
<path fill="#f0f4ff" stroke="black" d="M274,-500C274,-500 54,-500 54,-500 48,-500 42,-494 42,-488 42,-488 42,-476 42,-476 42,-470 48,-464 54,-464 54,-464 274,-464 274,-464 280,-464 286,-470 286,-476 286,-476 286,-488 286,-488 286,-494 280,-500 274,-500"/>
<text text-anchor="middle" x="164" y="-479.8" font-family="Courier,monospace" font-size="9.00">CIccCmmPccEnvVarHint::CIccCmmPccEnvVarHint()</text>
</g>
<!-- Node0x62b5499e4bf0 -->
<g id="node15" class="node">
<title>Node0x62b5499e4bf0</title>
<path fill="#f0f4ff" stroke="black" d="M702,-500C702,-500 398,-500 398,-500 392,-500 386,-494 386,-488 386,-488 386,-476 386,-476 386,-470 392,-464 398,-464 398,-464 702,-464 702,-464 708,-464 714,-470 714,-476 714,-476 714,-488 714,-488 714,-494 708,-500 702,-500"/>
<text text-anchor="middle" x="550" y="-479.8" font-family="Courier,monospace" font-size="9.00">CIccCreateCmmPccEnvVarXformHint::CIccCreateCmmPccEnvVarXf...</text>
</g>
<!-- Node0x62b5499e25a0&#45;&gt;Node0x62b5499e4bf0 -->
<g id="edge8" class="edge">
<title>Node0x62b5499e25a0&#45;&gt;Node0x62b5499e4bf0</title>
<path fill="none" stroke="#4a6fa5" d="M286.24,-482C315.91,-482 348.2,-482 379.67,-482"/>
<polygon fill="#4a6fa5" stroke="#4a6fa5" points="379.95,-484.1 385.95,-482 379.95,-479.9 379.95,-484.1"/>
</g>
<!-- Node0x62b5499e64d0 -->
<g id="node16" class="node">
<title>Node0x62b5499e64d0</title>
<path fill="#f0f4ff" stroke="black" d="M702,-442C702,-442 398,-442 398,-442 392,-442 386,-436 386,-430 386,-430 386,-418 386,-418 386,-412 392,-406 398,-406 398,-406 702,-406 702,-406 708,-406 714,-412 714,-418 714,-418 714,-430 714,-430 714,-436 708,-442 702,-442"/>
<text text-anchor="middle" x="550" y="-421.8" font-family="Courier,monospace" font-size="9.00">CIccCreateCmmPccEnvVarXformHint::~CIccCreateCmmPccEnvVarX...</text>
</g>
<!-- Node0x62b5499e25a0&#45;&gt;Node0x62b5499e64d0 -->
<g id="edge9" class="edge">
<title>Node0x62b5499e25a0&#45;&gt;Node0x62b5499e64d0</title>
<path fill="none" stroke="#4a6fa5" d="M284.4,-463.97C328.64,-457.28 378.92,-449.69 423.68,-442.93"/>
<polygon fill="#4a6fa5" stroke="#4a6fa5" points="424.06,-445 429.68,-442.02 423.43,-440.84 424.06,-445"/>
</g>
<!-- Node0x62b5499e4bf0&#45;&gt;Node0x62b5499e4460 -->
<g id="edge10" class="edge">
<title>Node0x62b5499e4bf0&#45;&gt;Node0x62b5499e4460</title>
<path fill="none" stroke="#4a6fa5" d="M656.4,-463.97C695.15,-457.34 739.13,-449.81 778.4,-443.09"/>
<polygon fill="#4a6fa5" stroke="#4a6fa5" points="779.1,-445.1 784.66,-442.02 778.39,-440.96 779.1,-445.1"/>
</g>
<!-- Node0x62b5499e64d0&#45;&gt;Node0x62b5499e9710 -->
<g id="edge13" class="edge">
<title>Node0x62b5499e64d0&#45;&gt;Node0x62b5499e9710</title>
<path fill="none" stroke="#4a6fa5" d="M656.4,-405.97C695.15,-399.34 739.13,-391.81 778.4,-385.09"/>
<polygon fill="#4a6fa5" stroke="#4a6fa5" points="779.1,-387.1 784.66,-384.02 778.39,-382.96 779.1,-387.1"/>
</g>
<!-- Node0x62b5499e6220 -->
<g id="node17" class="node">
<title>Node0x62b5499e6220</title>
<path fill="#f0f4ff" stroke="black" d="M276.5,-442C276.5,-442 51.5,-442 51.5,-442 45.5,-442 39.5,-436 39.5,-430 39.5,-430 39.5,-418 39.5,-418 39.5,-412 45.5,-406 51.5,-406 51.5,-406 276.5,-406 276.5,-406 282.5,-406 288.5,-412 288.5,-418 288.5,-418 288.5,-430 288.5,-430 288.5,-436 282.5,-442 276.5,-442"/>
<text text-anchor="middle" x="164" y="-421.8" font-family="Courier,monospace" font-size="9.00">CIccCmmPccEnvVarHint::~CIccCmmPccEnvVarHint()</text>
</g>
<!-- Node0x62b5499e6220&#45;&gt;Node0x62b5499e64d0 -->
<g id="edge11" class="edge">
<title>Node0x62b5499e6220&#45;&gt;Node0x62b5499e64d0</title>
<path fill="none" stroke="#4a6fa5" d="M288.61,-424C317.6,-424 348.97,-424 379.57,-424"/>
<polygon fill="#4a6fa5" stroke="#4a6fa5" points="379.68,-426.1 385.68,-424 379.68,-421.9 379.68,-426.1"/>
</g>
<!-- Node0x62b5499e60b0 -->
<g id="node18" class="node">
<title>Node0x62b5499e60b0</title>
<path fill="#f0f4ff" stroke="black" d="M276.5,-616C276.5,-616 51.5,-616 51.5,-616 45.5,-616 39.5,-610 39.5,-604 39.5,-604 39.5,-592 39.5,-592 39.5,-586 45.5,-580 51.5,-580 51.5,-580 276.5,-580 276.5,-580 282.5,-580 288.5,-586 288.5,-592 288.5,-592 288.5,-604 288.5,-604 288.5,-610 282.5,-616 276.5,-616"/>
<text text-anchor="middle" x="164" y="-595.8" font-family="Courier,monospace" font-size="9.00">CIccCmmPccEnvVarHint::~CIccCmmPccEnvVarHint()</text>
</g>
<!-- Node0x62b5499e5f80 -->
<g id="node19" class="node">
<title>Node0x62b5499e5f80</title>
<path fill="#f0f4ff" stroke="black" d="M271,-674C271,-674 57,-674 57,-674 51,-674 45,-668 45,-662 45,-662 45,-650 45,-650 45,-644 51,-638 57,-638 57,-638 271,-638 271,-638 277,-638 283,-644 283,-650 283,-650 283,-662 283,-662 283,-668 277,-674 271,-674"/>
<text text-anchor="middle" x="164" y="-653.8" font-family="Courier,monospace" font-size="9.00">CIccCreateCmmEnvVarXformHint::GetHintType()</text>
</g>
<!-- Node0x62b5499e6ff0 -->
<g id="node20" class="node">
<title>Node0x62b5499e6ff0</title>
<path fill="#f0f4ff" stroke="black" d="M268.5,-732C268.5,-732 59.5,-732 59.5,-732 53.5,-732 47.5,-726 47.5,-720 47.5,-720 47.5,-708 47.5,-708 47.5,-702 53.5,-696 59.5,-696 59.5,-696 268.5,-696 268.5,-696 274.5,-696 280.5,-702 280.5,-708 280.5,-708 280.5,-720 280.5,-720 280.5,-726 274.5,-732 268.5,-732"/>
<text text-anchor="middle" x="164" y="-711.8" font-family="Courier,monospace" font-size="9.00">CIccCmmEnvVarHint::GetNewCmmEnvVarLookup()</text>
</g>
<!-- Node0x62b5499e9410 -->
<g id="node21" class="node">
<title>Node0x62b5499e9410</title>
<path fill="#f0f4ff" stroke="black" d="M279,-790C279,-790 49,-790 49,-790 43,-790 37,-784 37,-778 37,-778 37,-766 37,-766 37,-760 43,-754 49,-754 49,-754 279,-754 279,-754 285,-754 291,-760 291,-766 291,-766 291,-778 291,-778 291,-784 285,-790 279,-790"/>
<text text-anchor="middle" x="164" y="-769.8" font-family="Courier,monospace" font-size="9.00">CIccCreateCmmPccEnvVarXformHint::GetHintType()</text>
</g>
<!-- Node0x62b5499e78f0 -->
<g id="node22" class="node">
<title>Node0x62b5499e78f0</title>
<path fill="#f0f4ff" stroke="black" d="M276.5,-848C276.5,-848 51.5,-848 51.5,-848 45.5,-848 39.5,-842 39.5,-836 39.5,-836 39.5,-824 39.5,-824 39.5,-818 45.5,-812 51.5,-812 51.5,-812 276.5,-812 276.5,-812 282.5,-812 288.5,-818 288.5,-824 288.5,-824 288.5,-836 288.5,-836 288.5,-842 282.5,-848 276.5,-848"/>
<text text-anchor="middle" x="164" y="-827.8" font-family="Courier,monospace" font-size="9.00">CIccCmmPccEnvVarHint::GetNewCmmEnvVarLookup()</text>
</g>
<!-- Node0x62b5499e77f0 -->
<g id="node23" class="node">
<title>Node0x62b5499e77f0</title>
<path fill="#f0f4ff" stroke="black" d="M271,-906C271,-906 57,-906 57,-906 51,-906 45,-900 45,-894 45,-894 45,-882 45,-882 45,-876 51,-870 57,-870 57,-870 271,-870 271,-870 277,-870 283,-876 283,-882 283,-882 283,-894 283,-894 283,-900 277,-906 271,-906"/>
<text text-anchor="middle" x="164" y="-885.8" font-family="Courier,monospace" font-size="9.00">IIccCmmEnvVarLookup::~IIccCmmEnvVarLookup()</text>
</g>
<!-- Node0x62b5499e0fe0 -->
<g id="node24" class="node">
<title>Node0x62b5499e0fe0</title>
<path fill="#f0f4ff" stroke="black" d="M213.5,-964C213.5,-964 114.5,-964 114.5,-964 108.5,-964 102.5,-958 102.5,-952 102.5,-952 102.5,-940 102.5,-940 102.5,-934 108.5,-928 114.5,-928 114.5,-928 213.5,-928 213.5,-928 219.5,-928 225.5,-934 225.5,-940 225.5,-940 225.5,-952 225.5,-952 225.5,-958 219.5,-964 213.5,-964"/>
<text text-anchor="middle" x="164" y="-943.8" font-family="Courier,monospace" font-size="9.00">true::_Rb_tree_impl()</text>
</g>
<!-- Node0x62b549a01f30 -->
<g id="node25" class="node">
<title>Node0x62b549a01f30</title>
<path fill="#f0f4ff" stroke="black" d="M216,-1022C216,-1022 112,-1022 112,-1022 106,-1022 100,-1016 100,-1010 100,-1010 100,-998 100,-998 100,-992 106,-986 112,-986 112,-986 216,-986 216,-986 222,-986 228,-992 228,-998 228,-998 228,-1010 228,-1010 228,-1016 222,-1022 216,-1022"/>
<text text-anchor="middle" x="164" y="-1001.8" font-family="Courier,monospace" font-size="9.00">true::~_Rb_tree_impl()</text>
</g>
<!-- Node0x62b5499fe3b0 -->
<g id="node27" class="node">
<title>Node0x62b5499fe3b0</title>
<path fill="#f0f4ff" stroke="black" d="M316,-1080C316,-1080 12,-1080 12,-1080 6,-1080 0,-1074 0,-1068 0,-1068 0,-1056 0,-1056 0,-1050 6,-1044 12,-1044 12,-1044 316,-1044 316,-1044 322,-1044 328,-1050 328,-1056 328,-1056 328,-1068 328,-1068 328,-1074 322,-1080 316,-1080"/>
<text text-anchor="middle" x="164" y="-1059.8" font-family="Courier,monospace" font-size="9.00">CIccCreateCmmEnvVarXformHint::~CIccCreateCmmEnvVarXformHi...</text>
</g>
<!-- Node0x62b5499efd50 -->
<g id="node28" class="node">
<title>Node0x62b5499efd50</title>
<path fill="#f0f4ff" stroke="black" d="M271,-1138C271,-1138 57,-1138 57,-1138 51,-1138 45,-1132 45,-1126 45,-1126 45,-1114 45,-1114 45,-1108 51,-1102 57,-1102 57,-1102 271,-1102 271,-1102 277,-1102 283,-1108 283,-1114 283,-1114 283,-1126 283,-1126 283,-1132 277,-1138 271,-1138"/>
<text text-anchor="middle" x="164" y="-1117.8" font-family="Courier,monospace" font-size="9.00">IIccCreateXformHint::~IIccCreateXformHint()</text>
</g>
<!-- Node0x62b5499e9b20 -->
<g id="node29" class="node">
<title>Node0x62b5499e9b20</title>
<path fill="#f0f4ff" stroke="black" d="M316,-1196C316,-1196 12,-1196 12,-1196 6,-1196 0,-1190 0,-1184 0,-1184 0,-1172 0,-1172 0,-1166 6,-1160 12,-1160 12,-1160 316,-1160 316,-1160 322,-1160 328,-1166 328,-1172 328,-1172 328,-1184 328,-1184 328,-1190 322,-1196 316,-1196"/>
<text text-anchor="middle" x="164" y="-1175.8" font-family="Courier,monospace" font-size="9.00">CIccCreateCmmPccEnvVarXformHint::~CIccCreateCmmPccEnvVarX...</text>
</g>
</g>
</svg>
