<?xml version="1.0" encoding="UTF-8" standalone="no"?>
<!DOCTYPE svg PUBLIC "-//W3C//DTD SVG 1.1//EN"
 "http://www.w3.org/Graphics/SVG/1.1/DTD/svg11.dtd">
<!-- Generated by graphviz version 2.43.0 (0)
 -->
<!-- Title: Call graph: /home/h02332/po/research/call&#45;graph/iccdev/proflib/IccEncoding.ll Pages: 1 -->
<svg width="1508pt" height="2660pt"
 viewBox="0.00 0.00 1508.20 2660.20" xmlns="http://www.w3.org/2000/svg" xmlns:xlink="http://www.w3.org/1999/xlink">
<g id="graph0" class="graph" transform="scale(1 1) rotate(0) translate(21.6 2638.6)">
<title>Call graph: /home/h02332/po/research/call&#45;graph/iccdev/proflib/IccEncoding.ll</title>
<polygon fill="white" stroke="transparent" points="-21.6,21.6 -21.6,-2638.6 1486.6,-2638.6 1486.6,21.6 -21.6,21.6"/>
<!-- Node0x61bc47d89450 -->
<g id="node1" class="node">
<title>Node0x61bc47d89450</title>
<path fill="#f0f4ff" stroke="black" d="M649.5,-384C649.5,-384 450.5,-384 450.5,-384 444.5,-384 438.5,-378 438.5,-372 438.5,-372 438.5,-360 438.5,-360 438.5,-354 444.5,-348 450.5,-348 450.5,-348 649.5,-348 649.5,-348 655.5,-348 661.5,-354 661.5,-360 661.5,-360 661.5,-372 661.5,-372 661.5,-378 655.5,-384 649.5,-384"/>
<text text-anchor="middle" x="550" y="-363.8" font-family="Courier,monospace" font-size="9.00">IIccEncProfileCacheHandler::GetHandler()</text>
</g>
<!-- Node0x61bc47d945f0 -->
<g id="node2" class="node">
<title>Node0x61bc47d945f0</title>
<path fill="#f0f4ff" stroke="black" d="M1088,-384C1088,-384 784,-384 784,-384 778,-384 772,-378 772,-372 772,-372 772,-360 772,-360 772,-354 778,-348 784,-348 784,-348 1088,-348 1088,-348 1094,-348 1100,-354 1100,-360 1100,-360 1100,-372 1100,-372 1100,-378 1094,-384 1088,-384"/>
<text text-anchor="middle" x="936" y="-363.8" font-family="Courier,monospace" font-size="9.00">CIccDefaultEncProfileCacheHandler::CIccDefaultEncProfileC...</text>
</g>
<!-- Node0x61bc47d89450&#45;&gt;Node0x61bc47d945f0 -->
<g id="edge1" class="edge">
<title>Node0x61bc47d89450&#45;&gt;Node0x61bc47d945f0</title>
<path fill="none" stroke="#4a6fa5" d="M661.55,-366C694.02,-366 730.3,-366 765.55,-366"/>
<polygon fill="#4a6fa5" stroke="#4a6fa5" points="765.65,-368.1 771.65,-366 765.65,-363.9 765.65,-368.1"/>
</g>
<!-- Node0x61bc47d4f3a0 -->
<g id="node3" class="node">
<title>Node0x61bc47d4f3a0</title>
<path fill="#f0f4ff" stroke="black" d="M1453,-384C1453,-384 1170,-384 1170,-384 1164,-384 1158,-378 1158,-372 1158,-372 1158,-360 1158,-360 1158,-354 1164,-348 1170,-348 1170,-348 1453,-348 1453,-348 1459,-348 1465,-354 1465,-360 1465,-360 1465,-372 1465,-372 1465,-378 1459,-384 1453,-384"/>
<text text-anchor="middle" x="1311.5" y="-363.8" font-family="Courier,monospace" font-size="9.00">IIccEncProfileCacheHandler::IIccEncProfileCacheHandler()</text>
</g>
<!-- Node0x61bc47d945f0&#45;&gt;Node0x61bc47d4f3a0 -->
<g id="edge2" class="edge">
<title>Node0x61bc47d945f0&#45;&gt;Node0x61bc47d4f3a0</title>
<path fill="none" stroke="#4a6fa5" d="M1100.01,-366C1117.15,-366 1134.57,-366 1151.67,-366"/>
<polygon fill="#4a6fa5" stroke="#4a6fa5" points="1151.95,-368.1 1157.95,-366 1151.95,-363.9 1151.95,-368.1"/>
</g>
<!-- Node0x61bc47c58170 -->
<g id="node4" class="node">
<title>Node0x61bc47c58170</title>
<path fill="#f0f4ff" stroke="black" d="M284.5,-761C284.5,-761 43.5,-761 43.5,-761 37.5,-761 31.5,-755 31.5,-749 31.5,-749 31.5,-737 31.5,-737 31.5,-731 37.5,-725 43.5,-725 43.5,-725 284.5,-725 284.5,-725 290.5,-725 296.5,-731 296.5,-737 296.5,-737 296.5,-749 296.5,-749 296.5,-755 290.5,-761 284.5,-761"/>
<text text-anchor="middle" x="164" y="-740.8" font-family="Courier,monospace" font-size="9.00">IIccEncProfileCacheHandler::SetEncCacheHandler()</text>
</g>
<!-- Node0x61bc47d65db0 -->
<g id="node5" class="node">
<title>Node0x61bc47d65db0</title>
<path fill="#f0f4ff" stroke="black" d="M292,-1312C292,-1312 36,-1312 36,-1312 30,-1312 24,-1306 24,-1300 24,-1300 24,-1288 24,-1288 24,-1282 30,-1276 36,-1276 36,-1276 292,-1276 292,-1276 298,-1276 304,-1282 304,-1288 304,-1288 304,-1300 304,-1300 304,-1306 298,-1312 292,-1312"/>
<text text-anchor="middle" x="164" y="-1291.8" font-family="Courier,monospace" font-size="9.00">CIccDefaultEncProfileConverter::ConvertFromParams()</text>
</g>
<!-- Node0x61bc47c1b650 -->
<g id="node6" class="node">
<title>Node0x61bc47c1b650</title>
<path fill="#f0f4ff" stroke="black" d="M625.5,-2182C625.5,-2182 474.5,-2182 474.5,-2182 468.5,-2182 462.5,-2176 462.5,-2170 462.5,-2170 462.5,-2158 462.5,-2158 462.5,-2152 468.5,-2146 474.5,-2146 474.5,-2146 625.5,-2146 625.5,-2146 631.5,-2146 637.5,-2152 637.5,-2158 637.5,-2158 637.5,-2170 637.5,-2170 637.5,-2176 631.5,-2182 625.5,-2182"/>
<text text-anchor="middle" x="550" y="-2161.8" font-family="Courier,monospace" font-size="9.00">CIccTagStruct::FindElemOfType()</text>
</g>
<!-- Node0x61bc47d65db0&#45;&gt;Node0x61bc47c1b650 -->
<g id="edge3" class="edge">
<title>Node0x61bc47d65db0&#45;&gt;Node0x61bc47c1b650</title>
<path fill="none" stroke="#4a6fa5" d="M184.36,-1312.08C220.02,-1346.74 295.42,-1426.61 328,-1511 378.16,-1640.92 291.72,-2032.51 386,-2135 403.93,-2154.49 430.05,-2163.7 456.16,-2167.52"/>
<polygon fill="#4a6fa5" stroke="#4a6fa5" points="456.22,-2169.64 462.44,-2168.34 456.76,-2165.48 456.22,-2169.64"/>
</g>
<!-- Node0x61bc47c1e010 -->
<g id="node7" class="node">
<title>Node0x61bc47c1e010</title>
<path fill="#f0f4ff" stroke="black" d="M607.5,-2124C607.5,-2124 492.5,-2124 492.5,-2124 486.5,-2124 480.5,-2118 480.5,-2112 480.5,-2112 480.5,-2100 480.5,-2100 480.5,-2094 486.5,-2088 492.5,-2088 492.5,-2088 607.5,-2088 607.5,-2088 613.5,-2088 619.5,-2094 619.5,-2100 619.5,-2100 619.5,-2112 619.5,-2112 619.5,-2118 613.5,-2124 607.5,-2124"/>
<text text-anchor="middle" x="550" y="-2103.8" font-family="Courier,monospace" font-size="9.00">CIccProfile::AttachTag()</text>
</g>
<!-- Node0x61bc47d65db0&#45;&gt;Node0x61bc47c1e010 -->
<g id="edge4" class="edge">
<title>Node0x61bc47d65db0&#45;&gt;Node0x61bc47c1e010</title>
<path fill="none" stroke="#4a6fa5" d="M184.28,-1312.11C219.82,-1346.82 295.02,-1426.76 328,-1511 374.1,-1628.73 299.96,-1984.35 386,-2077 408.1,-2100.79 442.43,-2109.23 473.9,-2111.24"/>
<polygon fill="#4a6fa5" stroke="#4a6fa5" points="474.05,-2113.35 480.15,-2111.56 474.27,-2109.16 474.05,-2113.35"/>
</g>
<!-- Node0x61bc47da1590 -->
<g id="node8" class="node">
<title>Node0x61bc47da1590</title>
<path fill="#f0f4ff" stroke="black" d="M597,-2066C597,-2066 503,-2066 503,-2066 497,-2066 491,-2060 491,-2054 491,-2054 491,-2042 491,-2042 491,-2036 497,-2030 503,-2030 503,-2030 597,-2030 597,-2030 603,-2030 609,-2036 609,-2042 609,-2042 609,-2054 609,-2054 609,-2060 603,-2066 597,-2066"/>
<text text-anchor="middle" x="550" y="-2045.8" font-family="Courier,monospace" font-size="9.00">CIccMpeCAM::SetCAM()</text>
</g>
<!-- Node0x61bc47d65db0&#45;&gt;Node0x61bc47da1590 -->
<g id="edge5" class="edge">
<title>Node0x61bc47d65db0&#45;&gt;Node0x61bc47da1590</title>
<path fill="none" stroke="#4a6fa5" d="M184.19,-1312.15C219.58,-1346.91 294.53,-1426.95 328,-1511 370.04,-1616.56 308.2,-1936.19 386,-2019 410.73,-2045.33 450.47,-2052.79 484.51,-2053.57"/>
<polygon fill="#4a6fa5" stroke="#4a6fa5" points="484.77,-2055.68 490.8,-2053.64 484.82,-2051.48 484.77,-2055.68"/>
</g>
<!-- Node0x61bc47c188c0 -->
<g id="node9" class="node">
<title>Node0x61bc47c188c0</title>
<path fill="#f0f4ff" stroke="black" d="M612.5,-2008C612.5,-2008 487.5,-2008 487.5,-2008 481.5,-2008 475.5,-2002 475.5,-1996 475.5,-1996 475.5,-1984 475.5,-1984 475.5,-1978 481.5,-1972 487.5,-1972 487.5,-1972 612.5,-1972 612.5,-1972 618.5,-1972 624.5,-1978 624.5,-1984 624.5,-1984 624.5,-1996 624.5,-1996 624.5,-2002 618.5,-2008 612.5,-2008"/>
<text text-anchor="middle" x="550" y="-1987.8" font-family="Courier,monospace" font-size="9.00">CIccProfile::CIccProfile()</text>
</g>
<!-- Node0x61bc47d65db0&#45;&gt;Node0x61bc47c188c0 -->
<g id="edge6" class="edge">
<title>Node0x61bc47d65db0&#45;&gt;Node0x61bc47c188c0</title>
<path fill="none" stroke="#4a6fa5" d="M184.08,-1312.19C219.27,-1347.04 293.92,-1427.2 328,-1511 365.98,-1604.4 316.43,-1888.02 386,-1961 407.29,-1983.33 439.38,-1992.04 469.48,-1994.61"/>
<polygon fill="#4a6fa5" stroke="#4a6fa5" points="469.33,-1996.71 475.47,-1995.05 469.64,-1992.52 469.33,-1996.71"/>
</g>
<!-- Node0x61bc47c1a120 -->
<g id="node10" class="node">
<title>Node0x61bc47c1a120</title>
<path fill="#f0f4ff" stroke="black" d="M702,-1950C702,-1950 398,-1950 398,-1950 392,-1950 386,-1944 386,-1938 386,-1938 386,-1926 386,-1926 386,-1920 392,-1914 398,-1914 398,-1914 702,-1914 702,-1914 708,-1914 714,-1920 714,-1926 714,-1926 714,-1938 714,-1938 714,-1944 708,-1950 702,-1950"/>
<text text-anchor="middle" x="550" y="-1929.8" font-family="Courier,monospace" font-size="9.00">CIccTagFloatNum&lt;float, (icTagTypeSignature)1718367026&gt;::o...</text>
</g>
<!-- Node0x61bc47d65db0&#45;&gt;Node0x61bc47c1a120 -->
<g id="edge7" class="edge">
<title>Node0x61bc47d65db0&#45;&gt;Node0x61bc47c1a120</title>
<path fill="none" stroke="#4a6fa5" d="M183.93,-1312.25C218.88,-1347.2 293.14,-1427.52 328,-1511 395.86,-1673.52 263.3,-1776.66 386,-1903 388.44,-1905.51 391.02,-1907.85 393.71,-1910.03"/>
<polygon fill="#4a6fa5" stroke="#4a6fa5" points="392.63,-1911.84 398.69,-1913.77 395.16,-1908.49 392.63,-1911.84"/>
</g>
<!-- Node0x61bc47c1b6d0 -->
<g id="node11" class="node">
<title>Node0x61bc47c1b6d0</title>
<path fill="#f0f4ff" stroke="black" d="M589,-1892C589,-1892 511,-1892 511,-1892 505,-1892 499,-1886 499,-1880 499,-1880 499,-1868 499,-1868 499,-1862 505,-1856 511,-1856 511,-1856 589,-1856 589,-1856 595,-1856 601,-1862 601,-1868 601,-1868 601,-1880 601,-1880 601,-1886 595,-1892 589,-1892"/>
<text text-anchor="middle" x="550" y="-1871.8" font-family="Courier,monospace" font-size="9.00">icYxy2XYZVector()</text>
</g>
<!-- Node0x61bc47d65db0&#45;&gt;Node0x61bc47c1b6d0 -->
<g id="edge8" class="edge">
<title>Node0x61bc47d65db0&#45;&gt;Node0x61bc47c1b6d0</title>
<path fill="none" stroke="#4a6fa5" d="M183.47,-1312.06C217.98,-1347 292,-1427.75 328,-1511 387.79,-1649.29 279.68,-1738.24 386,-1845 413.42,-1872.53 457.33,-1879.07 492.67,-1879.12"/>
<polygon fill="#4a6fa5" stroke="#4a6fa5" points="492.73,-1881.22 498.71,-1879.06 492.69,-1877.02 492.73,-1881.22"/>
</g>
<!-- Node0x61bc47c1acc0 -->
<g id="node12" class="node">
<title>Node0x61bc47c1acc0</title>
<path fill="#f0f4ff" stroke="black" d="M565.5,-1834C565.5,-1834 534.5,-1834 534.5,-1834 528.5,-1834 522.5,-1828 522.5,-1822 522.5,-1822 522.5,-1810 522.5,-1810 522.5,-1804 528.5,-1798 534.5,-1798 534.5,-1798 565.5,-1798 565.5,-1798 571.5,-1798 577.5,-1804 577.5,-1810 577.5,-1810 577.5,-1822 577.5,-1822 577.5,-1828 571.5,-1834 565.5,-1834"/>
<text text-anchor="middle" x="550" y="-1813.8" font-family="Courier,monospace" font-size="9.00">icDtoF()</text>
</g>
<!-- Node0x61bc47d65db0&#45;&gt;Node0x61bc47c1acc0 -->
<g id="edge9" class="edge">
<title>Node0x61bc47d65db0&#45;&gt;Node0x61bc47c1acc0</title>
<path fill="none" stroke="#4a6fa5" d="M183.2,-1312.18C217.25,-1347.32 290.55,-1428.39 328,-1511 379.76,-1625.16 296,-1699.75 386,-1787 420.53,-1820.47 479.55,-1822.58 516.3,-1820.02"/>
<polygon fill="#4a6fa5" stroke="#4a6fa5" points="516.63,-1822.1 522.45,-1819.54 516.3,-1817.92 516.63,-1822.1"/>
</g>
<!-- Node0x61bc47da41b0 -->
<g id="node13" class="node">
<title>Node0x61bc47da41b0</title>
<path fill="#f0f4ff" stroke="black" d="M641.5,-1776C641.5,-1776 458.5,-1776 458.5,-1776 452.5,-1776 446.5,-1770 446.5,-1764 446.5,-1764 446.5,-1752 446.5,-1752 446.5,-1746 452.5,-1740 458.5,-1740 458.5,-1740 641.5,-1740 641.5,-1740 647.5,-1740 653.5,-1746 653.5,-1752 653.5,-1752 653.5,-1764 653.5,-1764 653.5,-1770 647.5,-1776 641.5,-1776"/>
<text text-anchor="middle" x="550" y="-1755.8" font-family="Courier,monospace" font-size="9.00">CIccCamConverter::~CIccCamConverter()</text>
</g>
<!-- Node0x61bc47d65db0&#45;&gt;Node0x61bc47da41b0 -->
<g id="edge10" class="edge">
<title>Node0x61bc47d65db0&#45;&gt;Node0x61bc47da41b0</title>
<path fill="none" stroke="#4a6fa5" d="M182.54,-1312.1C215.8,-1347.4 288.27,-1429.2 328,-1511 371.8,-1601.19 312.19,-1661.14 386,-1729 401.02,-1742.81 420.25,-1751.19 440.19,-1756.09"/>
<polygon fill="#4a6fa5" stroke="#4a6fa5" points="439.8,-1758.16 446.11,-1757.44 440.73,-1754.06 439.8,-1758.16"/>
</g>
<!-- Node0x61bc47da06d0 -->
<g id="node14" class="node">
<title>Node0x61bc47da06d0</title>
<path fill="#f0f4ff" stroke="black" d="M631,-1718C631,-1718 469,-1718 469,-1718 463,-1718 457,-1712 457,-1706 457,-1706 457,-1694 457,-1694 457,-1688 463,-1682 469,-1682 469,-1682 631,-1682 631,-1682 637,-1682 643,-1688 643,-1694 643,-1694 643,-1706 643,-1706 643,-1712 637,-1718 631,-1718"/>
<text text-anchor="middle" x="550" y="-1697.8" font-family="Courier,monospace" font-size="9.00">CIccMultiProcessElement::Create()</text>
</g>
<!-- Node0x61bc47d65db0&#45;&gt;Node0x61bc47da06d0 -->
<g id="edge11" class="edge">
<title>Node0x61bc47d65db0&#45;&gt;Node0x61bc47da06d0</title>
<path fill="none" stroke="#4a6fa5" d="M181.64,-1312.15C213.69,-1347.87 284.61,-1430.81 328,-1511 364,-1577.52 328.13,-1622.3 386,-1671 404.15,-1686.27 427.53,-1694.71 450.88,-1699.13"/>
<polygon fill="#4a6fa5" stroke="#4a6fa5" points="450.54,-1701.21 456.82,-1700.17 451.27,-1697.07 450.54,-1701.21"/>
</g>
<!-- Node0x61bc47da1010 -->
<g id="node15" class="node">
<title>Node0x61bc47da1010</title>
<path fill="#f0f4ff" stroke="black" d="M652,-1660C652,-1660 448,-1660 448,-1660 442,-1660 436,-1654 436,-1648 436,-1648 436,-1636 436,-1636 436,-1630 442,-1624 448,-1624 448,-1624 652,-1624 652,-1624 658,-1624 664,-1630 664,-1636 664,-1636 664,-1648 664,-1648 664,-1654 658,-1660 652,-1660"/>
<text text-anchor="middle" x="550" y="-1639.8" font-family="Courier,monospace" font-size="9.00">CIccTagMultiProcessElement::SetChannels()</text>
</g>
<!-- Node0x61bc47d65db0&#45;&gt;Node0x61bc47da1010 -->
<g id="edge12" class="edge">
<title>Node0x61bc47d65db0&#45;&gt;Node0x61bc47da1010</title>
<path fill="none" stroke="#4a6fa5" d="M179.77,-1312.01C209.41,-1348.48 277.6,-1434.18 328,-1511 356.61,-1554.6 343.4,-1582.92 386,-1613 399.17,-1622.3 414.4,-1628.92 430.15,-1633.59"/>
<polygon fill="#4a6fa5" stroke="#4a6fa5" points="429.63,-1635.62 435.98,-1635.22 430.77,-1631.58 429.63,-1635.62"/>
</g>
<!-- Node0x61bc47d9fe00 -->
<g id="node16" class="node">
<title>Node0x61bc47d9fe00</title>
<path fill="#f0f4ff" stroke="black" d="M607.5,-1602C607.5,-1602 492.5,-1602 492.5,-1602 486.5,-1602 480.5,-1596 480.5,-1590 480.5,-1590 480.5,-1578 480.5,-1578 480.5,-1572 486.5,-1566 492.5,-1566 492.5,-1566 607.5,-1566 607.5,-1566 613.5,-1566 619.5,-1572 619.5,-1578 619.5,-1578 619.5,-1590 619.5,-1590 619.5,-1596 613.5,-1602 607.5,-1602"/>
<text text-anchor="middle" x="550" y="-1581.8" font-family="Courier,monospace" font-size="9.00">CIccTagXYZ::CIccTagXYZ()</text>
</g>
<!-- Node0x61bc47d65db0&#45;&gt;Node0x61bc47d9fe00 -->
<g id="edge13" class="edge">
<title>Node0x61bc47d65db0&#45;&gt;Node0x61bc47d9fe00</title>
<path fill="none" stroke="#4a6fa5" d="M177.78,-1312.08C216.23,-1365.97 331.58,-1523.69 386,-1555 412.52,-1570.26 445.16,-1577.84 474.25,-1581.49"/>
<polygon fill="#4a6fa5" stroke="#4a6fa5" points="474.19,-1583.6 480.4,-1582.21 474.68,-1579.43 474.19,-1583.6"/>
</g>
<!-- Node0x61bc47da1290 -->
<g id="node17" class="node">
<title>Node0x61bc47da1290</title>
<path fill="#f0f4ff" stroke="black" d="M589,-1544C589,-1544 511,-1544 511,-1544 505,-1544 499,-1538 499,-1532 499,-1532 499,-1520 499,-1520 499,-1514 505,-1508 511,-1508 511,-1508 589,-1508 589,-1508 595,-1508 601,-1514 601,-1520 601,-1520 601,-1532 601,-1532 601,-1538 595,-1544 589,-1544"/>
<text text-anchor="middle" x="550" y="-1523.8" font-family="Courier,monospace" font-size="9.00">CIccTag::Create()</text>
</g>
<!-- Node0x61bc47d65db0&#45;&gt;Node0x61bc47da1290 -->
<g id="edge14" class="edge">
<title>Node0x61bc47d65db0&#45;&gt;Node0x61bc47da1290</title>
<path fill="none" stroke="#4a6fa5" d="M178.69,-1312.26C210.26,-1352.88 292.61,-1450.79 386,-1497 419.23,-1513.44 460.34,-1520.68 492.97,-1523.81"/>
<polygon fill="#4a6fa5" stroke="#4a6fa5" points="492.8,-1525.9 498.96,-1524.35 493.17,-1521.72 492.8,-1525.9"/>
</g>
<!-- Node0x61bc47da3b70 -->
<g id="node18" class="node">
<title>Node0x61bc47da3b70</title>
<path fill="#f0f4ff" stroke="black" d="M639,-1486C639,-1486 461,-1486 461,-1486 455,-1486 449,-1480 449,-1474 449,-1474 449,-1462 449,-1462 449,-1456 455,-1450 461,-1450 461,-1450 639,-1450 639,-1450 645,-1450 651,-1456 651,-1462 651,-1462 651,-1474 651,-1474 651,-1480 645,-1486 639,-1486"/>
<text text-anchor="middle" x="550" y="-1465.8" font-family="Courier,monospace" font-size="9.00">CIccCamConverter::CIccCamConverter()</text>
</g>
<!-- Node0x61bc47d65db0&#45;&gt;Node0x61bc47da3b70 -->
<g id="edge15" class="edge">
<title>Node0x61bc47d65db0&#45;&gt;Node0x61bc47da3b70</title>
<path fill="none" stroke="#4a6fa5" d="M185.93,-1312.01C223.35,-1343.2 305.4,-1406.96 386,-1439 403.91,-1446.12 423.63,-1451.5 442.97,-1455.56"/>
<polygon fill="#4a6fa5" stroke="#4a6fa5" points="442.66,-1457.64 448.96,-1456.78 443.5,-1453.53 442.66,-1457.64"/>
</g>
<!-- Node0x61bc47d9f2b0 -->
<g id="node19" class="node">
<title>Node0x61bc47d9f2b0</title>
<path fill="#f0f4ff" stroke="black" d="M599.5,-1428C599.5,-1428 500.5,-1428 500.5,-1428 494.5,-1428 488.5,-1422 488.5,-1416 488.5,-1416 488.5,-1404 488.5,-1404 488.5,-1398 494.5,-1392 500.5,-1392 500.5,-1392 599.5,-1392 599.5,-1392 605.5,-1392 611.5,-1398 611.5,-1404 611.5,-1404 611.5,-1416 611.5,-1416 611.5,-1422 605.5,-1428 599.5,-1428"/>
<text text-anchor="middle" x="550" y="-1407.8" font-family="Courier,monospace" font-size="9.00">CIccTagXYZ::SetSize()</text>
</g>
<!-- Node0x61bc47d65db0&#45;&gt;Node0x61bc47d9f2b0 -->
<g id="edge16" class="edge">
<title>Node0x61bc47d65db0&#45;&gt;Node0x61bc47d9f2b0</title>
<path fill="none" stroke="#4a6fa5" d="M204.1,-1312.15C247.65,-1331.7 320.53,-1362.49 386,-1381 417.12,-1389.8 452.36,-1396.46 482.1,-1401.17"/>
<polygon fill="#4a6fa5" stroke="#4a6fa5" points="482.1,-1403.3 488.36,-1402.15 482.75,-1399.15 482.1,-1403.3"/>
</g>
<!-- Node0x61bc47da3870 -->
<g id="node20" class="node">
<title>Node0x61bc47da3870</title>
<path fill="#f0f4ff" stroke="black" d="M681,-1370C681,-1370 419,-1370 419,-1370 413,-1370 407,-1364 407,-1358 407,-1358 407,-1346 407,-1346 407,-1340 413,-1334 419,-1334 419,-1334 681,-1334 681,-1334 687,-1334 693,-1340 693,-1346 693,-1346 693,-1358 693,-1358 693,-1364 687,-1370 681,-1370"/>
<text text-anchor="middle" x="550" y="-1349.8" font-family="Courier,monospace" font-size="9.00">CIccCamConverter::operator=(CIccCamConverter const&amp;)</text>
</g>
<!-- Node0x61bc47d65db0&#45;&gt;Node0x61bc47da3870 -->
<g id="edge17" class="edge">
<title>Node0x61bc47d65db0&#45;&gt;Node0x61bc47da3870</title>
<path fill="none" stroke="#4a6fa5" d="M284.4,-1312.03C328.64,-1318.72 378.92,-1326.31 423.68,-1333.07"/>
<polygon fill="#4a6fa5" stroke="#4a6fa5" points="423.43,-1335.16 429.68,-1333.98 424.06,-1331 423.43,-1335.16"/>
</g>
<!-- Node0x61bc47da4570 -->
<g id="node21" class="node">
<title>Node0x61bc47da4570</title>
<path fill="#f0f4ff" stroke="black" d="M633.5,-1312C633.5,-1312 466.5,-1312 466.5,-1312 460.5,-1312 454.5,-1306 454.5,-1300 454.5,-1300 454.5,-1288 454.5,-1288 454.5,-1282 460.5,-1276 466.5,-1276 466.5,-1276 633.5,-1276 633.5,-1276 639.5,-1276 645.5,-1282 645.5,-1288 645.5,-1288 645.5,-1300 645.5,-1300 645.5,-1306 639.5,-1312 633.5,-1312"/>
<text text-anchor="middle" x="550" y="-1291.8" font-family="Courier,monospace" font-size="9.00">CIccCamConverter::SetParameter_F()</text>
</g>
<!-- Node0x61bc47d65db0&#45;&gt;Node0x61bc47da4570 -->
<g id="edge18" class="edge">
<title>Node0x61bc47d65db0&#45;&gt;Node0x61bc47da4570</title>
<path fill="none" stroke="#4a6fa5" d="M304.18,-1294C351.84,-1294 404.21,-1294 448.24,-1294"/>
<polygon fill="#4a6fa5" stroke="#4a6fa5" points="448.39,-1296.1 454.39,-1294 448.39,-1291.9 448.39,-1296.1"/>
</g>
<!-- Node0x61bc47da0280 -->
<g id="node22" class="node">
<title>Node0x61bc47da0280</title>
<path fill="#f0f4ff" stroke="black" d="M636,-1254C636,-1254 464,-1254 464,-1254 458,-1254 452,-1248 452,-1242 452,-1242 452,-1230 452,-1230 452,-1224 458,-1218 464,-1218 464,-1218 636,-1218 636,-1218 642,-1218 648,-1224 648,-1230 648,-1230 648,-1242 648,-1242 648,-1248 642,-1254 636,-1254"/>
<text text-anchor="middle" x="550" y="-1233.8" font-family="Courier,monospace" font-size="9.00">CIccCamConverter::SetParameter_Nc()</text>
</g>
<!-- Node0x61bc47d65db0&#45;&gt;Node0x61bc47da0280 -->
<g id="edge19" class="edge">
<title>Node0x61bc47d65db0&#45;&gt;Node0x61bc47da0280</title>
<path fill="none" stroke="#4a6fa5" d="M284.4,-1275.97C336.12,-1268.15 396.1,-1259.09 445.85,-1251.58"/>
<polygon fill="#4a6fa5" stroke="#4a6fa5" points="446.25,-1253.64 451.87,-1250.67 445.62,-1249.49 446.25,-1253.64"/>
</g>
<!-- Node0x61bc47da20d0 -->
<g id="node23" class="node">
<title>Node0x61bc47da20d0</title>
<path fill="#f0f4ff" stroke="black" d="M633.5,-1196C633.5,-1196 466.5,-1196 466.5,-1196 460.5,-1196 454.5,-1190 454.5,-1184 454.5,-1184 454.5,-1172 454.5,-1172 454.5,-1166 460.5,-1160 466.5,-1160 466.5,-1160 633.5,-1160 633.5,-1160 639.5,-1160 645.5,-1166 645.5,-1172 645.5,-1172 645.5,-1184 645.5,-1184 645.5,-1190 639.5,-1196 633.5,-1196"/>
<text text-anchor="middle" x="550" y="-1175.8" font-family="Courier,monospace" font-size="9.00">CIccCamConverter::SetParameter_C()</text>
</g>
<!-- Node0x61bc47d65db0&#45;&gt;Node0x61bc47da20d0 -->
<g id="edge20" class="edge">
<title>Node0x61bc47d65db0&#45;&gt;Node0x61bc47da20d0</title>
<path fill="none" stroke="#4a6fa5" d="M204.1,-1275.85C247.65,-1256.3 320.53,-1225.51 386,-1207 405.89,-1201.38 427.46,-1196.62 448.21,-1192.7"/>
<polygon fill="#4a6fa5" stroke="#4a6fa5" points="448.81,-1194.72 454.32,-1191.56 448.04,-1190.59 448.81,-1194.72"/>
</g>
<!-- Node0x61bc47d9e450 -->
<g id="node24" class="node">
<title>Node0x61bc47d9e450</title>
<path fill="#f0f4ff" stroke="black" d="M654.5,-1138C654.5,-1138 445.5,-1138 445.5,-1138 439.5,-1138 433.5,-1132 433.5,-1126 433.5,-1126 433.5,-1114 433.5,-1114 433.5,-1108 439.5,-1102 445.5,-1102 445.5,-1102 654.5,-1102 654.5,-1102 660.5,-1102 666.5,-1108 666.5,-1114 666.5,-1114 666.5,-1126 666.5,-1126 666.5,-1132 660.5,-1138 654.5,-1138"/>
<text text-anchor="middle" x="550" y="-1117.8" font-family="Courier,monospace" font-size="9.00">CIccTagXYZ::operator[](unsigned int) const</text>
</g>
<!-- Node0x61bc47d65db0&#45;&gt;Node0x61bc47d9e450 -->
<g id="edge21" class="edge">
<title>Node0x61bc47d65db0&#45;&gt;Node0x61bc47d9e450</title>
<path fill="none" stroke="#4a6fa5" d="M185.93,-1275.99C223.35,-1244.8 305.4,-1181.04 386,-1149 399.09,-1143.8 413.14,-1139.52 427.3,-1136.01"/>
<polygon fill="#4a6fa5" stroke="#4a6fa5" points="428.03,-1138 433.38,-1134.56 427.05,-1133.91 428.03,-1138"/>
</g>
<!-- Node0x61bc47da3170 -->
<g id="node25" class="node">
<title>Node0x61bc47da3170</title>
<path fill="#f0f4ff" stroke="black" d="M636,-1080C636,-1080 464,-1080 464,-1080 458,-1080 452,-1074 452,-1068 452,-1068 452,-1056 452,-1056 452,-1050 458,-1044 464,-1044 464,-1044 636,-1044 636,-1044 642,-1044 648,-1050 648,-1056 648,-1056 648,-1068 648,-1068 648,-1074 642,-1080 636,-1080"/>
<text text-anchor="middle" x="550" y="-1059.8" font-family="Courier,monospace" font-size="9.00">CIccCamConverter::SetParameter_Yb()</text>
</g>
<!-- Node0x61bc47d65db0&#45;&gt;Node0x61bc47da3170 -->
<g id="edge22" class="edge">
<title>Node0x61bc47d65db0&#45;&gt;Node0x61bc47da3170</title>
<path fill="none" stroke="#4a6fa5" d="M178.69,-1275.74C210.26,-1235.12 292.61,-1137.21 386,-1091 404.41,-1081.89 425.23,-1075.61 445.7,-1071.28"/>
<polygon fill="#4a6fa5" stroke="#4a6fa5" points="446.28,-1073.31 451.75,-1070.06 445.45,-1069.19 446.28,-1073.31"/>
</g>
<!-- Node0x61bc47da33f0 -->
<g id="node26" class="node">
<title>Node0x61bc47da33f0</title>
<path fill="#f0f4ff" stroke="black" d="M636,-1022C636,-1022 464,-1022 464,-1022 458,-1022 452,-1016 452,-1010 452,-1010 452,-998 452,-998 452,-992 458,-986 464,-986 464,-986 636,-986 636,-986 642,-986 648,-992 648,-998 648,-998 648,-1010 648,-1010 648,-1016 642,-1022 636,-1022"/>
<text text-anchor="middle" x="550" y="-1001.8" font-family="Courier,monospace" font-size="9.00">CIccCamConverter::SetParameter_La()</text>
</g>
<!-- Node0x61bc47d65db0&#45;&gt;Node0x61bc47da33f0 -->
<g id="edge23" class="edge">
<title>Node0x61bc47d65db0&#45;&gt;Node0x61bc47da33f0</title>
<path fill="none" stroke="#4a6fa5" d="M174.48,-1275.71C200.72,-1227.11 279.47,-1094.3 386,-1033 404.03,-1022.63 424.88,-1015.8 445.53,-1011.35"/>
<polygon fill="#4a6fa5" stroke="#4a6fa5" points="446.18,-1013.36 451.64,-1010.1 445.34,-1009.24 446.18,-1013.36"/>
</g>
<!-- Node0x61bc47da3670 -->
<g id="node27" class="node">
<title>Node0x61bc47da3670</title>
<path fill="#f0f4ff" stroke="black" d="M657,-964C657,-964 443,-964 443,-964 437,-964 431,-958 431,-952 431,-952 431,-940 431,-940 431,-934 437,-928 443,-928 443,-928 657,-928 657,-928 663,-928 669,-934 669,-940 669,-940 669,-952 669,-952 669,-958 663,-964 657,-964"/>
<text text-anchor="middle" x="550" y="-943.8" font-family="Courier,monospace" font-size="9.00">CIccCamConverter::SetParameter_WhitePoint()</text>
</g>
<!-- Node0x61bc47d65db0&#45;&gt;Node0x61bc47da3670 -->
<g id="edge24" class="edge">
<title>Node0x61bc47d65db0&#45;&gt;Node0x61bc47da3670</title>
<path fill="none" stroke="#4a6fa5" d="M171.69,-1275.8C193.12,-1220.28 265.79,-1052.14 386,-975 397.85,-967.39 411.14,-961.64 424.88,-957.3"/>
<polygon fill="#4a6fa5" stroke="#4a6fa5" points="425.65,-959.26 430.79,-955.53 424.44,-955.24 425.65,-959.26"/>
</g>
<!-- Node0x61bc47da2410 -->
<g id="node28" class="node">
<title>Node0x61bc47da2410</title>
<path fill="#f0f4ff" stroke="black" d="M636,-906C636,-906 464,-906 464,-906 458,-906 452,-900 452,-894 452,-894 452,-882 452,-882 452,-876 458,-870 464,-870 464,-870 636,-870 636,-870 642,-870 648,-876 648,-882 648,-882 648,-894 648,-894 648,-900 642,-906 636,-906"/>
<text text-anchor="middle" x="550" y="-885.8" font-family="Courier,monospace" font-size="9.00">CIccTagStruct::GetElemNumberValue()</text>
</g>
<!-- Node0x61bc47d65db0&#45;&gt;Node0x61bc47da2410 -->
<g id="edge25" class="edge">
<title>Node0x61bc47d65db0&#45;&gt;Node0x61bc47da2410</title>
<path fill="none" stroke="#4a6fa5" d="M169.77,-1275.69C186.94,-1213.71 251.83,-1010.44 386,-917 403.57,-904.76 424.72,-897.19 445.87,-892.61"/>
<polygon fill="#4a6fa5" stroke="#4a6fa5" points="446.38,-894.65 451.84,-891.39 445.54,-890.53 446.38,-894.65"/>
</g>
<!-- Node0x61bc47da0910 -->
<g id="node29" class="node">
<title>Node0x61bc47da0910</title>
<path fill="#f0f4ff" stroke="black" d="M568,-848C568,-848 532,-848 532,-848 526,-848 520,-842 520,-836 520,-836 520,-824 520,-824 520,-818 526,-812 532,-812 532,-812 568,-812 568,-812 574,-812 580,-818 580,-824 580,-824 580,-836 580,-836 580,-842 574,-848 568,-848"/>
<text text-anchor="middle" x="550" y="-827.8" font-family="Courier,monospace" font-size="9.00">GetSize()</text>
</g>
<!-- Node0x61bc47d65db0&#45;&gt;Node0x61bc47da0910 -->
<g id="edge26" class="edge">
<title>Node0x61bc47d65db0&#45;&gt;Node0x61bc47da0910</title>
<path fill="none" stroke="#4a6fa5" d="M168.27,-1275.83C181.46,-1208.21 237.37,-969.3 386,-859 423.05,-831.51 477.72,-827.09 513.35,-827.62"/>
<polygon fill="#4a6fa5" stroke="#4a6fa5" points="513.72,-829.73 519.77,-827.77 513.82,-825.53 513.72,-829.73"/>
</g>
<!-- Node0x61bc47da2190 -->
<g id="node30" class="node">
<title>Node0x61bc47da2190</title>
<path fill="#f0f4ff" stroke="black" d="M673,-790C673,-790 427,-790 427,-790 421,-790 415,-784 415,-778 415,-778 415,-766 415,-766 415,-760 421,-754 427,-754 427,-754 673,-754 673,-754 679,-754 685,-760 685,-766 685,-766 685,-778 685,-778 685,-784 679,-790 673,-790"/>
<text text-anchor="middle" x="550" y="-769.8" font-family="Courier,monospace" font-size="9.00">CIccTagSpectralViewingConditions::setIlluminant()</text>
</g>
<!-- Node0x61bc47d65db0&#45;&gt;Node0x61bc47da2190 -->
<g id="edge27" class="edge">
<title>Node0x61bc47d65db0&#45;&gt;Node0x61bc47da2190</title>
<path fill="none" stroke="#4a6fa5" d="M167.16,-1275.53C176.82,-1202.04 222.96,-928.25 386,-801 393.09,-795.47 400.88,-790.85 409.09,-787.02"/>
<polygon fill="#4a6fa5" stroke="#4a6fa5" points="410.2,-788.83 414.84,-784.49 408.5,-784.98 410.2,-788.83"/>
</g>
<!-- Node0x61bc47da2c70 -->
<g id="node31" class="node">
<title>Node0x61bc47da2c70</title>
<path fill="#f0f4ff" stroke="black" d="M594,-732C594,-732 506,-732 506,-732 500,-732 494,-726 494,-720 494,-720 494,-708 494,-708 494,-702 500,-696 506,-696 506,-696 594,-696 594,-696 600,-696 606,-702 606,-708 606,-708 606,-720 606,-720 606,-726 600,-732 594,-732"/>
<text text-anchor="middle" x="550" y="-711.8" font-family="Courier,monospace" font-size="9.00">icMatrixInvert3x3()</text>
</g>
<!-- Node0x61bc47d65db0&#45;&gt;Node0x61bc47da2c70 -->
<g id="edge28" class="edge">
<title>Node0x61bc47d65db0&#45;&gt;Node0x61bc47da2c70</title>
<path fill="none" stroke="#4a6fa5" d="M166.2,-1275.86C172.41,-1197.79 207.87,-887.84 386,-743 414.24,-720.04 454.42,-712.7 487.82,-711.14"/>
<polygon fill="#4a6fa5" stroke="#4a6fa5" points="488.05,-713.23 493.97,-710.91 487.9,-709.04 488.05,-713.23"/>
</g>
<!-- Node0x61bc47da2ef0 -->
<g id="node32" class="node">
<title>Node0x61bc47da2ef0</title>
<path fill="#f0f4ff" stroke="black" d="M615,-674C615,-674 485,-674 485,-674 479,-674 473,-668 473,-662 473,-662 473,-650 473,-650 473,-644 479,-638 485,-638 485,-638 615,-638 615,-638 621,-638 627,-644 627,-650 627,-650 627,-662 627,-662 627,-668 621,-674 615,-674"/>
<text text-anchor="middle" x="550" y="-653.8" font-family="Courier,monospace" font-size="9.00">CIccMpeCurveSet::SetCurve()</text>
</g>
<!-- Node0x61bc47d65db0&#45;&gt;Node0x61bc47da2ef0 -->
<g id="edge29" class="edge">
<title>Node0x61bc47d65db0&#45;&gt;Node0x61bc47da2ef0</title>
<path fill="none" stroke="#4a6fa5" d="M170.4,-1275.86C199.37,-1179.07 336.83,-726.36 386,-685 408.28,-666.26 438.45,-657.81 466.77,-654.44"/>
<polygon fill="#4a6fa5" stroke="#4a6fa5" points="467.05,-656.52 472.79,-653.79 466.6,-652.34 467.05,-656.52"/>
</g>
<!-- Node0x61bc47da1510 -->
<g id="node33" class="node">
<title>Node0x61bc47da1510</title>
<path fill="#f0f4ff" stroke="black" d="M612.5,-616C612.5,-616 487.5,-616 487.5,-616 481.5,-616 475.5,-610 475.5,-604 475.5,-604 475.5,-592 475.5,-592 475.5,-586 481.5,-580 487.5,-580 487.5,-580 612.5,-580 612.5,-580 618.5,-580 624.5,-586 624.5,-592 624.5,-592 624.5,-604 624.5,-604 624.5,-610 618.5,-616 612.5,-616"/>
<text text-anchor="middle" x="550" y="-595.8" font-family="Courier,monospace" font-size="9.00">CIccMpeCurveSet::SetSize()</text>
</g>
<!-- Node0x61bc47d65db0&#45;&gt;Node0x61bc47da1510 -->
<g id="edge30" class="edge">
<title>Node0x61bc47d65db0&#45;&gt;Node0x61bc47da1510</title>
<path fill="none" stroke="#4a6fa5" d="M170.45,-1275.81C201.88,-1171.19 359.45,-649.98 386,-627 408.72,-607.33 440.08,-598.89 469.22,-595.79"/>
<polygon fill="#4a6fa5" stroke="#4a6fa5" points="469.63,-597.86 475.4,-595.21 469.23,-593.68 469.63,-597.86"/>
</g>
<!-- Node0x61bc47da1790 -->
<g id="node34" class="node">
<title>Node0x61bc47da1790</title>
<path fill="#f0f4ff" stroke="black" d="M631,-558C631,-558 469,-558 469,-558 463,-558 457,-552 457,-546 457,-546 457,-534 457,-534 457,-528 463,-522 469,-522 469,-522 631,-522 631,-522 637,-522 643,-528 643,-534 643,-534 643,-546 643,-546 643,-552 637,-558 631,-558"/>
<text text-anchor="middle" x="550" y="-537.8" font-family="Courier,monospace" font-size="9.00">CIccTagSegmentedCurve::GetCurve()</text>
</g>
<!-- Node0x61bc47d65db0&#45;&gt;Node0x61bc47da1790 -->
<g id="edge31" class="edge">
<title>Node0x61bc47d65db0&#45;&gt;Node0x61bc47da1790</title>
<path fill="none" stroke="#4a6fa5" d="M170.94,-1275.56C192.55,-1208.31 268.86,-969.84 328,-772 354.88,-682.1 316.35,-631.87 386,-569 403.8,-552.93 427.31,-544.26 450.92,-539.86"/>
<polygon fill="#4a6fa5" stroke="#4a6fa5" points="451.36,-541.92 456.92,-538.84 450.65,-537.78 451.36,-541.92"/>
</g>
<!-- Node0x61bc47da1b50 -->
<g id="node35" class="node">
<title>Node0x61bc47da1b50</title>
<path fill="#f0f4ff" stroke="black" d="M612.5,-500C612.5,-500 487.5,-500 487.5,-500 481.5,-500 475.5,-494 475.5,-488 475.5,-488 475.5,-476 475.5,-476 475.5,-470 481.5,-464 487.5,-464 487.5,-464 612.5,-464 612.5,-464 618.5,-464 624.5,-470 624.5,-476 624.5,-476 624.5,-488 624.5,-488 624.5,-494 618.5,-500 612.5,-500"/>
<text text-anchor="middle" x="550" y="-479.8" font-family="Courier,monospace" font-size="9.00">CIccMpeMatrix::GetMatrix()</text>
</g>
<!-- Node0x61bc47d65db0&#45;&gt;Node0x61bc47da1b50 -->
<g id="edge32" class="edge">
<title>Node0x61bc47d65db0&#45;&gt;Node0x61bc47da1b50</title>
<path fill="none" stroke="#4a6fa5" d="M171.34,-1275.67C194.33,-1208.81 274.78,-971.52 328,-772 358.63,-657.18 300.2,-593.22 386,-511 407.89,-490.02 439.42,-481.41 468.93,-478.53"/>
<polygon fill="#4a6fa5" stroke="#4a6fa5" points="469.39,-480.6 475.19,-478 469.04,-476.41 469.39,-480.6"/>
</g>
<!-- Node0x61bc47da1f10 -->
<g id="node36" class="node">
<title>Node0x61bc47da1f10</title>
<path fill="#f0f4ff" stroke="black" d="M607.5,-442C607.5,-442 492.5,-442 492.5,-442 486.5,-442 480.5,-436 480.5,-430 480.5,-430 480.5,-418 480.5,-418 480.5,-412 486.5,-406 492.5,-406 492.5,-406 607.5,-406 607.5,-406 613.5,-406 619.5,-412 619.5,-418 619.5,-418 619.5,-430 619.5,-430 619.5,-436 613.5,-442 607.5,-442"/>
<text text-anchor="middle" x="550" y="-421.8" font-family="Courier,monospace" font-size="9.00">CIccMpeMatrix::SetSize()</text>
</g>
<!-- Node0x61bc47d65db0&#45;&gt;Node0x61bc47da1f10 -->
<g id="edge33" class="edge">
<title>Node0x61bc47d65db0&#45;&gt;Node0x61bc47da1f10</title>
<path fill="none" stroke="#4a6fa5" d="M171.6,-1275.74C195.5,-1209.11 278.66,-972.52 328,-772 362.43,-632.07 283.91,-554.7 386,-453 408.81,-430.27 442.88,-421.88 473.97,-419.64"/>
<polygon fill="#4a6fa5" stroke="#4a6fa5" points="474.28,-421.72 480.15,-419.27 474.03,-417.53 474.28,-421.72"/>
</g>
<!-- Node0x61bc47dc6230 -->
<g id="node37" class="node">
<title>Node0x61bc47dc6230</title>
<path fill="#f0f4ff" stroke="black" d="M179.5,-1558C179.5,-1558 148.5,-1558 148.5,-1558 142.5,-1558 136.5,-1552 136.5,-1546 136.5,-1546 136.5,-1534 136.5,-1534 136.5,-1528 142.5,-1522 148.5,-1522 148.5,-1522 179.5,-1522 179.5,-1522 185.5,-1522 191.5,-1528 191.5,-1534 191.5,-1534 191.5,-1546 191.5,-1546 191.5,-1552 185.5,-1558 179.5,-1558"/>
<text text-anchor="middle" x="164" y="-1537.8" font-family="Courier,monospace" font-size="9.00">length()</text>
</g>
<!-- Node0x61bc47da1810 -->
<g id="node38" class="node">
<title>Node0x61bc47da1810</title>
<path fill="#f0f4ff" stroke="black" d="M641.5,-326C641.5,-326 458.5,-326 458.5,-326 452.5,-326 446.5,-320 446.5,-314 446.5,-314 446.5,-302 446.5,-302 446.5,-296 452.5,-290 458.5,-290 458.5,-290 641.5,-290 641.5,-290 647.5,-290 653.5,-296 653.5,-302 653.5,-302 653.5,-314 653.5,-314 653.5,-320 647.5,-326 641.5,-326"/>
<text text-anchor="middle" x="550" y="-305.8" font-family="Courier,monospace" font-size="9.00">IIccEncProfileConverter::GetHandler()</text>
</g>
<!-- Node0x61bc47da1d50 -->
<g id="node39" class="node">
<title>Node0x61bc47da1d50</title>
<path fill="#f0f4ff" stroke="black" d="M1088,-326C1088,-326 784,-326 784,-326 778,-326 772,-320 772,-314 772,-314 772,-302 772,-302 772,-296 778,-290 784,-290 784,-290 1088,-290 1088,-290 1094,-290 1100,-296 1100,-302 1100,-302 1100,-314 1100,-314 1100,-320 1094,-326 1088,-326"/>
<text text-anchor="middle" x="936" y="-305.8" font-family="Courier,monospace" font-size="9.00">CIccDefaultEncProfileConverter::CIccDefaultEncProfileConv...</text>
</g>
<!-- Node0x61bc47da1810&#45;&gt;Node0x61bc47da1d50 -->
<g id="edge34" class="edge">
<title>Node0x61bc47da1810&#45;&gt;Node0x61bc47da1d50</title>
<path fill="none" stroke="#4a6fa5" d="M653.65,-308C688.13,-308 727.56,-308 765.77,-308"/>
<polygon fill="#4a6fa5" stroke="#4a6fa5" points="765.89,-310.1 771.89,-308 765.89,-305.9 765.89,-310.1"/>
</g>
<!-- Node0x61bc47da9ea0 -->
<g id="node40" class="node">
<title>Node0x61bc47da9ea0</title>
<path fill="#f0f4ff" stroke="black" d="M1437,-326C1437,-326 1186,-326 1186,-326 1180,-326 1174,-320 1174,-314 1174,-314 1174,-302 1174,-302 1174,-296 1180,-290 1186,-290 1186,-290 1437,-290 1437,-290 1443,-290 1449,-296 1449,-302 1449,-302 1449,-314 1449,-314 1449,-320 1443,-326 1437,-326"/>
<text text-anchor="middle" x="1311.5" y="-305.8" font-family="Courier,monospace" font-size="9.00">IIccEncProfileConverter::IIccEncProfileConverter()</text>
</g>
<!-- Node0x61bc47da1d50&#45;&gt;Node0x61bc47da9ea0 -->
<g id="edge35" class="edge">
<title>Node0x61bc47da1d50&#45;&gt;Node0x61bc47da9ea0</title>
<path fill="none" stroke="#4a6fa5" d="M1100.01,-308C1122.54,-308 1145.55,-308 1167.68,-308"/>
<polygon fill="#4a6fa5" stroke="#4a6fa5" points="1167.89,-310.1 1173.89,-308 1167.89,-305.9 1167.89,-310.1"/>
</g>
<!-- Node0x61bc47daa9e0 -->
<g id="node41" class="node">
<title>Node0x61bc47daa9e0</title>
<path fill="#f0f4ff" stroke="black" d="M287,-1993C287,-1993 41,-1993 41,-1993 35,-1993 29,-1987 29,-1981 29,-1981 29,-1969 29,-1969 29,-1963 35,-1957 41,-1957 41,-1957 287,-1957 287,-1957 293,-1957 299,-1963 299,-1969 299,-1969 299,-1981 299,-1981 299,-1987 293,-1993 287,-1993"/>
<text text-anchor="middle" x="164" y="-1972.8" font-family="Courier,monospace" font-size="9.00">IIccEncProfileConverter::SetEncProfileConverter()</text>
</g>
<!-- Node0x61bc47daa760 -->
<g id="node42" class="node">
<title>Node0x61bc47daa760</title>
<path fill="#f0f4ff" stroke="black" d="M226.5,-210C226.5,-210 101.5,-210 101.5,-210 95.5,-210 89.5,-204 89.5,-198 89.5,-198 89.5,-186 89.5,-186 89.5,-180 95.5,-174 101.5,-174 101.5,-174 226.5,-174 226.5,-174 232.5,-174 238.5,-180 238.5,-186 238.5,-186 238.5,-198 238.5,-198 238.5,-204 232.5,-210 226.5,-210"/>
<text text-anchor="middle" x="164" y="-189.8" font-family="Courier,monospace" font-size="9.00">icConvertEncodingProfile()</text>
</g>
<!-- Node0x61bc47daa760&#45;&gt;Node0x61bc47d89450 -->
<g id="edge40" class="edge">
<title>Node0x61bc47daa760&#45;&gt;Node0x61bc47d89450</title>
<path fill="none" stroke="#4a6fa5" d="M185.93,-210.01C223.35,-241.2 305.4,-304.96 386,-337 400.5,-342.76 416.18,-347.39 431.89,-351.1"/>
<polygon fill="#4a6fa5" stroke="#4a6fa5" points="431.83,-353.24 438.15,-352.52 432.77,-349.14 431.83,-353.24"/>
</g>
<!-- Node0x61bc47daa760&#45;&gt;Node0x61bc47da1810 -->
<g id="edge38" class="edge">
<title>Node0x61bc47daa760&#45;&gt;Node0x61bc47da1810</title>
<path fill="none" stroke="#4a6fa5" d="M204.1,-210.15C247.65,-229.7 320.53,-260.49 386,-279 403.27,-283.88 421.81,-288.11 439.98,-291.71"/>
<polygon fill="#4a6fa5" stroke="#4a6fa5" points="439.83,-293.82 446.12,-292.91 440.64,-289.7 439.83,-293.82"/>
</g>
<!-- Node0x61bc47daa120 -->
<g id="node43" class="node">
<title>Node0x61bc47daa120</title>
<path fill="#f0f4ff" stroke="black" d="M618,-268C618,-268 482,-268 482,-268 476,-268 470,-262 470,-256 470,-256 470,-244 470,-244 470,-238 476,-232 482,-232 482,-232 618,-232 618,-232 624,-232 630,-238 630,-244 630,-244 630,-256 630,-256 630,-262 624,-268 618,-268"/>
<text text-anchor="middle" x="550" y="-247.8" font-family="Courier,monospace" font-size="9.00">CIccProfile::FindTagOfType()</text>
</g>
<!-- Node0x61bc47daa760&#45;&gt;Node0x61bc47daa120 -->
<g id="edge36" class="edge">
<title>Node0x61bc47daa760&#45;&gt;Node0x61bc47daa120</title>
<path fill="none" stroke="#4a6fa5" d="M238.58,-203.11C302.85,-212.82 396.15,-226.91 463.67,-237.11"/>
<polygon fill="#4a6fa5" stroke="#4a6fa5" points="463.47,-239.2 469.71,-238.02 464.09,-235.05 463.47,-239.2"/>
</g>
<!-- Node0x61bc47da9e20 -->
<g id="node44" class="node">
<title>Node0x61bc47da9e20</title>
<path fill="#f0f4ff" stroke="black" d="M612.5,-210C612.5,-210 487.5,-210 487.5,-210 481.5,-210 475.5,-204 475.5,-198 475.5,-198 475.5,-186 475.5,-186 475.5,-180 481.5,-174 487.5,-174 487.5,-174 612.5,-174 612.5,-174 618.5,-174 624.5,-180 624.5,-186 624.5,-186 624.5,-198 624.5,-198 624.5,-204 618.5,-210 612.5,-210"/>
<text text-anchor="middle" x="550" y="-189.8" font-family="Courier,monospace" font-size="9.00">CIccTagUtf8Text::GetText()</text>
</g>
<!-- Node0x61bc47daa760&#45;&gt;Node0x61bc47da9e20 -->
<g id="edge37" class="edge">
<title>Node0x61bc47daa760&#45;&gt;Node0x61bc47da9e20</title>
<path fill="none" stroke="#4a6fa5" d="M238.58,-192C304.65,-192 401.39,-192 469.27,-192"/>
<polygon fill="#4a6fa5" stroke="#4a6fa5" points="469.34,-194.1 475.34,-192 469.34,-189.9 469.34,-194.1"/>
</g>
<!-- Node0x61bc47daec20 -->
<g id="node45" class="node">
<title>Node0x61bc47daec20</title>
<path fill="#f0f4ff" stroke="black" d="M615,-152C615,-152 485,-152 485,-152 479,-152 473,-146 473,-140 473,-140 473,-128 473,-128 473,-122 479,-116 485,-116 485,-116 615,-116 615,-116 621,-116 627,-122 627,-128 627,-128 627,-140 627,-140 627,-146 621,-152 615,-152"/>
<text text-anchor="middle" x="550" y="-131.8" font-family="Courier,monospace" font-size="9.00">CIccTagStruct::AttachElem()</text>
</g>
<!-- Node0x61bc47daa760&#45;&gt;Node0x61bc47daec20 -->
<g id="edge39" class="edge">
<title>Node0x61bc47daa760&#45;&gt;Node0x61bc47daec20</title>
<path fill="none" stroke="#4a6fa5" d="M238.58,-180.89C303.8,-171.04 398.92,-156.67 466.65,-146.44"/>
<polygon fill="#4a6fa5" stroke="#4a6fa5" points="467.09,-148.5 472.71,-145.52 466.46,-144.34 467.09,-148.5"/>
</g>
<!-- Node0x61bc47da61a0 -->
<g id="node46" class="node">
<title>Node0x61bc47da61a0</title>
<path fill="#f0f4ff" stroke="black" d="M615,-94C615,-94 485,-94 485,-94 479,-94 473,-88 473,-82 473,-82 473,-70 473,-70 473,-64 479,-58 485,-58 485,-58 615,-58 615,-58 621,-58 627,-64 627,-70 627,-70 627,-82 627,-82 627,-88 621,-94 615,-94"/>
<text text-anchor="middle" x="550" y="-73.8" font-family="Courier,monospace" font-size="9.00">CIccTagStruct::DeleteElem()</text>
</g>
<!-- Node0x61bc47daa760&#45;&gt;Node0x61bc47da61a0 -->
<g id="edge41" class="edge">
<title>Node0x61bc47daa760&#45;&gt;Node0x61bc47da61a0</title>
<path fill="none" stroke="#4a6fa5" d="M204.1,-173.85C247.65,-154.3 320.53,-123.51 386,-105 411.86,-97.69 440.58,-91.85 466.61,-87.38"/>
<polygon fill="#4a6fa5" stroke="#4a6fa5" points="467.25,-89.4 472.82,-86.33 466.55,-85.26 467.25,-89.4"/>
</g>
<!-- Node0x61bc47da92e0 -->
<g id="node47" class="node">
<title>Node0x61bc47da92e0</title>
<path fill="#f0f4ff" stroke="black" d="M646.5,-36C646.5,-36 453.5,-36 453.5,-36 447.5,-36 441.5,-30 441.5,-24 441.5,-24 441.5,-12 441.5,-12 441.5,-6 447.5,0 453.5,0 453.5,0 646.5,0 646.5,0 652.5,0 658.5,-6 658.5,-12 658.5,-12 658.5,-24 658.5,-24 658.5,-30 652.5,-36 646.5,-36"/>
<text text-anchor="middle" x="550" y="-15.8" font-family="Courier,monospace" font-size="9.00">CIccTagStruct::GetElemList[abi:cxx11]()</text>
</g>
<!-- Node0x61bc47daa760&#45;&gt;Node0x61bc47da92e0 -->
<g id="edge42" class="edge">
<title>Node0x61bc47daa760&#45;&gt;Node0x61bc47da92e0</title>
<path fill="none" stroke="#4a6fa5" d="M185.93,-173.99C223.35,-142.8 305.4,-79.04 386,-47 401.46,-40.85 418.27,-36 435.02,-32.18"/>
<polygon fill="#4a6fa5" stroke="#4a6fa5" points="435.78,-34.16 441.18,-30.82 434.87,-30.06 435.78,-34.16"/>
</g>
<!-- Node0x61bc47db10e0 -->
<g id="node48" class="node">
<title>Node0x61bc47db10e0</title>
<path fill="#f0f4ff" stroke="black" d="M702,-2240C702,-2240 398,-2240 398,-2240 392,-2240 386,-2234 386,-2228 386,-2228 386,-2216 386,-2216 386,-2210 392,-2204 398,-2204 398,-2204 702,-2204 702,-2204 708,-2204 714,-2210 714,-2216 714,-2216 714,-2228 714,-2228 714,-2234 708,-2240 702,-2240"/>
<text text-anchor="middle" x="550" y="-2219.8" font-family="Courier,monospace" font-size="9.00">CIccDefaultEncProfileConverter::~CIccDefaultEncProfileCon...</text>
</g>
<!-- Node0x61bc47db0d20 -->
<g id="node49" class="node">
<title>Node0x61bc47db0d20</title>
<path fill="#f0f4ff" stroke="black" d="M1064,-2240C1064,-2240 808,-2240 808,-2240 802,-2240 796,-2234 796,-2228 796,-2228 796,-2216 796,-2216 796,-2210 802,-2204 808,-2204 808,-2204 1064,-2204 1064,-2204 1070,-2204 1076,-2210 1076,-2216 1076,-2216 1076,-2228 1076,-2228 1076,-2234 1070,-2240 1064,-2240"/>
<text text-anchor="middle" x="936" y="-2219.8" font-family="Courier,monospace" font-size="9.00">IIccEncProfileConverter::~IIccEncProfileConverter()</text>
</g>
<!-- Node0x61bc47db10e0&#45;&gt;Node0x61bc47db0d20 -->
<g id="edge43" class="edge">
<title>Node0x61bc47db10e0&#45;&gt;Node0x61bc47db0d20</title>
<path fill="none" stroke="#4a6fa5" d="M714.13,-2222C739.17,-2222 764.89,-2222 789.52,-2222"/>
<polygon fill="#4a6fa5" stroke="#4a6fa5" points="789.76,-2224.1 795.76,-2222 789.76,-2219.9 789.76,-2224.1"/>
</g>
<!-- Node0x61bc47db06e0 -->
<g id="node50" class="node">
<title>Node0x61bc47db06e0</title>
<path fill="#f0f4ff" stroke="black" d="M316,-2240C316,-2240 12,-2240 12,-2240 6,-2240 0,-2234 0,-2228 0,-2228 0,-2216 0,-2216 0,-2210 6,-2204 12,-2204 12,-2204 316,-2204 316,-2204 322,-2204 328,-2210 328,-2216 328,-2216 328,-2228 328,-2228 328,-2234 322,-2240 316,-2240"/>
<text text-anchor="middle" x="164" y="-2219.8" font-family="Courier,monospace" font-size="9.00">CIccDefaultEncProfileConverter::~CIccDefaultEncProfileCon...</text>
</g>
<!-- Node0x61bc47db06e0&#45;&gt;Node0x61bc47db10e0 -->
<g id="edge44" class="edge">
<title>Node0x61bc47db06e0&#45;&gt;Node0x61bc47db10e0</title>
<path fill="none" stroke="#4a6fa5" d="M328.13,-2222C345.14,-2222 362.46,-2222 379.54,-2222"/>
<polygon fill="#4a6fa5" stroke="#4a6fa5" points="379.82,-2224.1 385.82,-2222 379.82,-2219.9 379.82,-2224.1"/>
</g>
<!-- Node0x61bc47db0320 -->
<g id="node51" class="node">
<title>Node0x61bc47db0320</title>
<path fill="#f0f4ff" stroke="black" d="M702,-2298C702,-2298 398,-2298 398,-2298 392,-2298 386,-2292 386,-2286 386,-2286 386,-2274 386,-2274 386,-2268 392,-2262 398,-2262 398,-2262 702,-2262 702,-2262 708,-2262 714,-2268 714,-2274 714,-2274 714,-2286 714,-2286 714,-2292 708,-2298 702,-2298"/>
<text text-anchor="middle" x="550" y="-2277.8" font-family="Courier,monospace" font-size="9.00">CIccDefaultEncProfileCacheHandler::~CIccDefaultEncProfile...</text>
</g>
<!-- Node0x61bc47db4420 -->
<g id="node52" class="node">
<title>Node0x61bc47db4420</title>
<path fill="#f0f4ff" stroke="black" d="M1080,-2298C1080,-2298 792,-2298 792,-2298 786,-2298 780,-2292 780,-2286 780,-2286 780,-2274 780,-2274 780,-2268 786,-2262 792,-2262 792,-2262 1080,-2262 1080,-2262 1086,-2262 1092,-2268 1092,-2274 1092,-2274 1092,-2286 1092,-2286 1092,-2292 1086,-2298 1080,-2298"/>
<text text-anchor="middle" x="936" y="-2277.8" font-family="Courier,monospace" font-size="9.00">IIccEncProfileCacheHandler::~IIccEncProfileCacheHandler()</text>
</g>
<!-- Node0x61bc47db0320&#45;&gt;Node0x61bc47db4420 -->
<g id="edge45" class="edge">
<title>Node0x61bc47db0320&#45;&gt;Node0x61bc47db4420</title>
<path fill="none" stroke="#4a6fa5" d="M714.13,-2280C733.84,-2280 753.98,-2280 773.66,-2280"/>
<polygon fill="#4a6fa5" stroke="#4a6fa5" points="773.76,-2282.1 779.76,-2280 773.76,-2277.9 773.76,-2282.1"/>
</g>
<!-- Node0x61bc47db41a0 -->
<g id="node53" class="node">
<title>Node0x61bc47db41a0</title>
<path fill="#f0f4ff" stroke="black" d="M316,-2298C316,-2298 12,-2298 12,-2298 6,-2298 0,-2292 0,-2286 0,-2286 0,-2274 0,-2274 0,-2268 6,-2262 12,-2262 12,-2262 316,-2262 316,-2262 322,-2262 328,-2268 328,-2274 328,-2274 328,-2286 328,-2286 328,-2292 322,-2298 316,-2298"/>
<text text-anchor="middle" x="164" y="-2277.8" font-family="Courier,monospace" font-size="9.00">CIccDefaultEncProfileCacheHandler::~CIccDefaultEncProfile...</text>
</g>
<!-- Node0x61bc47db41a0&#45;&gt;Node0x61bc47db0320 -->
<g id="edge46" class="edge">
<title>Node0x61bc47db41a0&#45;&gt;Node0x61bc47db0320</title>
<path fill="none" stroke="#4a6fa5" d="M328.13,-2280C345.14,-2280 362.46,-2280 379.54,-2280"/>
<polygon fill="#4a6fa5" stroke="#4a6fa5" points="379.82,-2282.1 385.82,-2280 379.82,-2277.9 379.82,-2282.1"/>
</g>
<!-- Node0x61bc47db4060 -->
<g id="node54" class="node">
<title>Node0x61bc47db4060</title>
<path fill="#f0f4ff" stroke="black" d="M302.5,-2385C302.5,-2385 25.5,-2385 25.5,-2385 19.5,-2385 13.5,-2379 13.5,-2373 13.5,-2373 13.5,-2361 13.5,-2361 13.5,-2355 19.5,-2349 25.5,-2349 25.5,-2349 302.5,-2349 302.5,-2349 308.5,-2349 314.5,-2355 314.5,-2361 314.5,-2361 314.5,-2373 314.5,-2373 314.5,-2379 308.5,-2385 302.5,-2385"/>
<text text-anchor="middle" x="164" y="-2364.8" font-family="Courier,monospace" font-size="9.00">CIccDefaultEncProfileCacheHandler::GetEncodingProfile()</text>
</g>
<!-- Node0x61bc47db44e0 -->
<g id="node55" class="node">
<title>Node0x61bc47db44e0</title>
<path fill="#f0f4ff" stroke="black" d="M565,-2414C565,-2414 535,-2414 535,-2414 529,-2414 523,-2408 523,-2402 523,-2402 523,-2390 523,-2390 523,-2384 529,-2378 535,-2378 535,-2378 565,-2378 565,-2378 571,-2378 577,-2384 577,-2390 577,-2390 577,-2402 577,-2402 577,-2408 571,-2414 565,-2414"/>
<text text-anchor="middle" x="550" y="-2393.8" font-family="Courier,monospace" font-size="9.00">c_str()</text>
</g>
<!-- Node0x61bc47db4060&#45;&gt;Node0x61bc47db44e0 -->
<g id="edge47" class="edge">
<title>Node0x61bc47db4060&#45;&gt;Node0x61bc47db44e0</title>
<path fill="none" stroke="#4a6fa5" d="M314.56,-2378.3C388.98,-2383.92 472.35,-2390.21 516.87,-2393.57"/>
<polygon fill="#4a6fa5" stroke="#4a6fa5" points="516.74,-2395.67 522.88,-2394.03 517.06,-2391.48 516.74,-2395.67"/>
</g>
<!-- Node0x61bc47daa1e0 -->
<g id="node56" class="node">
<title>Node0x61bc47daa1e0</title>
<path fill="#f0f4ff" stroke="black" d="M586.5,-2356C586.5,-2356 513.5,-2356 513.5,-2356 507.5,-2356 501.5,-2350 501.5,-2344 501.5,-2344 501.5,-2332 501.5,-2332 501.5,-2326 507.5,-2320 513.5,-2320 513.5,-2320 586.5,-2320 586.5,-2320 592.5,-2320 598.5,-2326 598.5,-2332 598.5,-2332 598.5,-2344 598.5,-2344 598.5,-2350 592.5,-2356 586.5,-2356"/>
<text text-anchor="middle" x="550" y="-2335.8" font-family="Courier,monospace" font-size="9.00">OpenIccProfile()</text>
</g>
<!-- Node0x61bc47db4060&#45;&gt;Node0x61bc47daa1e0 -->
<g id="edge48" class="edge">
<title>Node0x61bc47db4060&#45;&gt;Node0x61bc47daa1e0</title>
<path fill="none" stroke="#4a6fa5" d="M314.56,-2355.7C378.25,-2350.9 448.49,-2345.59 495.33,-2342.05"/>
<polygon fill="#4a6fa5" stroke="#4a6fa5" points="495.67,-2344.13 501.49,-2341.59 495.35,-2339.95 495.67,-2344.13"/>
</g>
<!-- Node0x61bc47dc1fa0 -->
<g id="node57" class="node">
<title>Node0x61bc47dc1fa0</title>
<path fill="#f0f4ff" stroke="black" d="M308,-2443C308,-2443 20,-2443 20,-2443 14,-2443 8,-2437 8,-2431 8,-2431 8,-2419 8,-2419 8,-2413 14,-2407 20,-2407 20,-2407 308,-2407 308,-2407 314,-2407 320,-2413 320,-2419 320,-2419 320,-2431 320,-2431 320,-2437 314,-2443 308,-2443"/>
<text text-anchor="middle" x="164" y="-2422.8" font-family="Courier,monospace" font-size="9.00">IIccEncProfileCacheHandler::~IIccEncProfileCacheHandler()</text>
</g>
<!-- Node0x61bc47dca370 -->
<g id="node58" class="node">
<title>Node0x61bc47dca370</title>
<path fill="#f0f4ff" stroke="black" d="M200.5,-2501C200.5,-2501 127.5,-2501 127.5,-2501 121.5,-2501 115.5,-2495 115.5,-2489 115.5,-2489 115.5,-2477 115.5,-2477 115.5,-2471 121.5,-2465 127.5,-2465 127.5,-2465 200.5,-2465 200.5,-2465 206.5,-2465 212.5,-2471 212.5,-2477 212.5,-2477 212.5,-2489 212.5,-2489 212.5,-2495 206.5,-2501 200.5,-2501"/>
<text text-anchor="middle" x="164" y="-2480.8" font-family="Courier,monospace" font-size="9.00">_Guard::_Guard()</text>
</g>
<!-- Node0x61bc47dccd60 -->
<g id="node59" class="node">
<title>Node0x61bc47dccd60</title>
<path fill="#f0f4ff" stroke="black" d="M203,-2559C203,-2559 125,-2559 125,-2559 119,-2559 113,-2553 113,-2547 113,-2547 113,-2535 113,-2535 113,-2529 119,-2523 125,-2523 125,-2523 203,-2523 203,-2523 209,-2523 215,-2529 215,-2535 215,-2535 215,-2547 215,-2547 215,-2553 209,-2559 203,-2559"/>
<text text-anchor="middle" x="164" y="-2538.8" font-family="Courier,monospace" font-size="9.00">_Guard::~_Guard()</text>
</g>
<!-- Node0x61bc47dca980 -->
<g id="node60" class="node">
<title>Node0x61bc47dca980</title>
<path fill="#f0f4ff" stroke="black" d="M292,-2617C292,-2617 36,-2617 36,-2617 30,-2617 24,-2611 24,-2605 24,-2605 24,-2593 24,-2593 24,-2587 30,-2581 36,-2581 36,-2581 292,-2581 292,-2581 298,-2581 304,-2587 304,-2593 304,-2593 304,-2605 304,-2605 304,-2611 298,-2617 292,-2617"/>
<text text-anchor="middle" x="164" y="-2596.8" font-family="Courier,monospace" font-size="9.00">IIccEncProfileConverter::~IIccEncProfileConverter()</text>
</g>
</g>
</svg>
