<?xml version="1.0" encoding="UTF-8" standalone="no"?>
<!DOCTYPE svg PUBLIC "-//W3C//DTD SVG 1.1//EN"
 "http://www.w3.org/Graphics/SVG/1.1/DTD/svg11.dtd">
<!-- Generated by graphviz version 2.43.0 (0)
 -->
<!-- Title: Call graph: /home/h02332/po/research/call&#45;graph/iccdev/proflib/IccEval.ll Pages: 1 -->
<svg width="669pt" height="659pt"
 viewBox="0.00 0.00 669.20 659.20" xmlns="http://www.w3.org/2000/svg" xmlns:xlink="http://www.w3.org/1999/xlink">
<g id="graph0" class="graph" transform="scale(1 1) rotate(0) translate(21.6 637.6)">
<title>Call graph: /home/h02332/po/research/call&#45;graph/iccdev/proflib/IccEval.ll</title>
<polygon fill="white" stroke="transparent" points="-21.6,21.6 -21.6,-637.6 647.6,-637.6 647.6,21.6 -21.6,21.6"/>
<!-- Node0x5d82133b34d0 -->
<g id="node1" class="node">
<title>Node0x5d82133b34d0</title>
<path fill="#f0f4ff" stroke="black" d="M428,-326C428,-326 261,-326 261,-326 255,-326 249,-320 249,-314 249,-314 249,-302 249,-302 249,-296 255,-290 261,-290 261,-290 428,-290 428,-290 434,-290 440,-296 440,-302 440,-302 440,-314 440,-314 440,-320 434,-326 428,-326"/>
<text text-anchor="middle" x="344.5" y="-305.8" font-family="Courier,monospace" font-size="9.00">CIccEvalCompare::EvaluateProfile()</text>
</g>
<!-- Node0x5d82133b3c50 -->
<g id="node2" class="node">
<title>Node0x5d82133b3c50</title>
<path fill="#f0f4ff" stroke="black" d="M603.5,-616C603.5,-616 520.5,-616 520.5,-616 514.5,-616 508.5,-610 508.5,-604 508.5,-604 508.5,-592 508.5,-592 508.5,-586 514.5,-580 520.5,-580 520.5,-580 603.5,-580 603.5,-580 609.5,-580 615.5,-586 615.5,-592 615.5,-592 615.5,-604 615.5,-604 615.5,-610 609.5,-616 603.5,-616"/>
<text text-anchor="middle" x="562" y="-595.8" font-family="Courier,monospace" font-size="9.00">CIccCmm::CIccCmm()</text>
</g>
<!-- Node0x5d82133b34d0&#45;&gt;Node0x5d82133b3c50 -->
<g id="edge1" class="edge">
<title>Node0x5d82133b34d0&#45;&gt;Node0x5d82133b3c50</title>
<path fill="none" stroke="#4a6fa5" d="M351.64,-326C368.22,-372.23 418.12,-496.54 498,-569 500.98,-571.71 504.27,-574.2 507.72,-576.49"/>
<polygon fill="#4a6fa5" stroke="#4a6fa5" points="507.05,-578.55 513.25,-579.93 509.26,-574.98 507.05,-578.55"/>
</g>
<!-- Node0x5d82133b3340 -->
<g id="node3" class="node">
<title>Node0x5d82133b3340</title>
<path fill="#f0f4ff" stroke="black" d="M606,-558C606,-558 518,-558 518,-558 512,-558 506,-552 506,-546 506,-546 506,-534 506,-534 506,-528 512,-522 518,-522 518,-522 606,-522 606,-522 612,-522 618,-528 618,-534 618,-534 618,-546 618,-546 618,-552 612,-558 606,-558"/>
<text text-anchor="middle" x="562" y="-537.8" font-family="Courier,monospace" font-size="9.00">CIccCmm::~CIccCmm()</text>
</g>
<!-- Node0x5d82133b34d0&#45;&gt;Node0x5d82133b3340 -->
<g id="edge2" class="edge">
<title>Node0x5d82133b34d0&#45;&gt;Node0x5d82133b3340</title>
<path fill="none" stroke="#4a6fa5" d="M354.98,-326.1C376,-364.73 430.08,-456.19 498,-511 501.48,-513.81 505.27,-516.41 509.22,-518.81"/>
<polygon fill="#4a6fa5" stroke="#4a6fa5" points="508.43,-520.78 514.68,-521.95 510.53,-517.14 508.43,-520.78"/>
</g>
<!-- Node0x5d82133b41b0 -->
<g id="node4" class="node">
<title>Node0x5d82133b41b0</title>
<path fill="#f0f4ff" stroke="black" d="M606,-500C606,-500 518,-500 518,-500 512,-500 506,-494 506,-488 506,-488 506,-476 506,-476 506,-470 512,-464 518,-464 518,-464 606,-464 606,-464 612,-464 618,-470 618,-476 618,-476 618,-488 618,-488 618,-494 612,-500 606,-500"/>
<text text-anchor="middle" x="562" y="-479.8" font-family="Courier,monospace" font-size="9.00">CIccCmm::AddXform()</text>
</g>
<!-- Node0x5d82133b34d0&#45;&gt;Node0x5d82133b41b0 -->
<g id="edge3" class="edge">
<title>Node0x5d82133b34d0&#45;&gt;Node0x5d82133b41b0</title>
<path fill="none" stroke="#4a6fa5" d="M360.86,-326.04C386.74,-355.6 441.76,-414.87 498,-453 502.23,-455.87 506.78,-458.58 511.44,-461.11"/>
<polygon fill="#4a6fa5" stroke="#4a6fa5" points="510.65,-463.07 516.94,-463.99 512.6,-459.35 510.65,-463.07"/>
</g>
<!-- Node0x5d8213405bb0 -->
<g id="node5" class="node">
<title>Node0x5d8213405bb0</title>
<path fill="#f0f4ff" stroke="black" d="M598.5,-442C598.5,-442 525.5,-442 525.5,-442 519.5,-442 513.5,-436 513.5,-430 513.5,-430 513.5,-418 513.5,-418 513.5,-412 519.5,-406 525.5,-406 525.5,-406 598.5,-406 598.5,-406 604.5,-406 610.5,-412 610.5,-418 610.5,-418 610.5,-430 610.5,-430 610.5,-436 604.5,-442 598.5,-442"/>
<text text-anchor="middle" x="562" y="-421.8" font-family="Courier,monospace" font-size="9.00">CIccCmm::Begin()</text>
</g>
<!-- Node0x5d82133b34d0&#45;&gt;Node0x5d8213405bb0 -->
<g id="edge4" class="edge">
<title>Node0x5d82133b34d0&#45;&gt;Node0x5d8213405bb0</title>
<path fill="none" stroke="#4a6fa5" d="M375.45,-326.12C405.9,-344.29 454.63,-372.7 498,-395 503.38,-397.77 509.08,-400.56 514.76,-403.27"/>
<polygon fill="#4a6fa5" stroke="#4a6fa5" points="514.1,-405.29 520.42,-405.95 515.89,-401.49 514.1,-405.29"/>
</g>
<!-- Node0x5d82134044d0 -->
<g id="node6" class="node">
<title>Node0x5d82134044d0</title>
<path fill="#f0f4ff" stroke="black" d="M593,-384C593,-384 531,-384 531,-384 525,-384 519,-378 519,-372 519,-372 519,-360 519,-360 519,-354 525,-348 531,-348 531,-348 593,-348 593,-348 599,-348 605,-354 605,-360 605,-360 605,-372 605,-372 605,-378 599,-384 593,-384"/>
<text text-anchor="middle" x="562" y="-363.8" font-family="Courier,monospace" font-size="9.00">icLabFromPcs()</text>
</g>
<!-- Node0x5d82133b34d0&#45;&gt;Node0x5d82134044d0 -->
<g id="edge5" class="edge">
<title>Node0x5d82133b34d0&#45;&gt;Node0x5d82134044d0</title>
<path fill="none" stroke="#4a6fa5" d="M412.5,-326.03C445.05,-334.79 483.42,-345.12 513,-353.08"/>
<polygon fill="#4a6fa5" stroke="#4a6fa5" points="512.46,-355.11 518.8,-354.64 513.55,-351.05 512.46,-355.11"/>
</g>
<!-- Node0x5d82134066b0 -->
<g id="node7" class="node">
<title>Node0x5d82134066b0</title>
<path fill="#f0f4ff" stroke="black" d="M598.5,-326C598.5,-326 525.5,-326 525.5,-326 519.5,-326 513.5,-320 513.5,-314 513.5,-314 513.5,-302 513.5,-302 513.5,-296 519.5,-290 525.5,-290 525.5,-290 598.5,-290 598.5,-290 604.5,-290 610.5,-296 610.5,-302 610.5,-302 610.5,-314 610.5,-314 610.5,-320 604.5,-326 598.5,-326"/>
<text text-anchor="middle" x="562" y="-305.8" font-family="Courier,monospace" font-size="9.00">CIccCmm::Apply()</text>
</g>
<!-- Node0x5d82133b34d0&#45;&gt;Node0x5d82134066b0 -->
<g id="edge6" class="edge">
<title>Node0x5d82133b34d0&#45;&gt;Node0x5d82134066b0</title>
<path fill="none" stroke="#4a6fa5" d="M440.02,-308C462.98,-308 486.75,-308 507.08,-308"/>
<polygon fill="#4a6fa5" stroke="#4a6fa5" points="507.27,-310.1 513.27,-308 507.27,-305.9 507.27,-310.1"/>
</g>
<!-- Node0x5d8213406930 -->
<g id="node8" class="node">
<title>Node0x5d8213406930</title>
<path fill="#f0f4ff" stroke="black" d="M577,-268C577,-268 547,-268 547,-268 541,-268 535,-262 535,-256 535,-256 535,-244 535,-244 535,-238 541,-232 547,-232 547,-232 577,-232 577,-232 583,-232 589,-238 589,-244 589,-244 589,-256 589,-256 589,-262 583,-268 577,-268"/>
<text text-anchor="middle" x="562" y="-247.8" font-family="Courier,monospace" font-size="9.00">icMin()</text>
</g>
<!-- Node0x5d82133b34d0&#45;&gt;Node0x5d8213406930 -->
<g id="edge7" class="edge">
<title>Node0x5d82133b34d0&#45;&gt;Node0x5d8213406930</title>
<path fill="none" stroke="#4a6fa5" d="M412.5,-289.97C451.31,-279.52 498.38,-266.85 528.98,-258.62"/>
<polygon fill="#4a6fa5" stroke="#4a6fa5" points="529.62,-260.62 534.87,-257.03 528.53,-256.56 529.62,-260.62"/>
</g>
<!-- Node0x5d8213405860 -->
<g id="node9" class="node">
<title>Node0x5d8213405860</title>
<path fill="#f0f4ff" stroke="black" d="M606,-210C606,-210 518,-210 518,-210 512,-210 506,-204 506,-198 506,-198 506,-186 506,-186 506,-180 512,-174 518,-174 518,-174 606,-174 606,-174 612,-174 618,-180 618,-186 618,-186 618,-198 618,-198 618,-204 612,-210 606,-210"/>
<text text-anchor="middle" x="562" y="-189.8" font-family="Courier,monospace" font-size="9.00">icGetSpaceSamples()</text>
</g>
<!-- Node0x5d82133b34d0&#45;&gt;Node0x5d8213405860 -->
<g id="edge8" class="edge">
<title>Node0x5d82133b34d0&#45;&gt;Node0x5d8213405860</title>
<path fill="none" stroke="#4a6fa5" d="M417.79,-289.89C425.53,-286.77 433.09,-283.16 440,-279 471.24,-260.21 468.09,-241.84 498,-221 502.12,-218.13 506.57,-215.43 511.13,-212.91"/>
<polygon fill="#4a6fa5" stroke="#4a6fa5" points="512.21,-214.72 516.52,-210.05 510.24,-211.01 512.21,-214.72"/>
</g>
<!-- Node0x5d8213404ed0 -->
<g id="node10" class="node">
<title>Node0x5d8213404ed0</title>
<path fill="#f0f4ff" stroke="black" d="M614,-152C614,-152 510,-152 510,-152 504,-152 498,-146 498,-140 498,-140 498,-128 498,-128 498,-122 504,-116 510,-116 510,-116 614,-116 614,-116 620,-116 626,-122 626,-128 626,-128 626,-140 626,-140 626,-146 620,-152 614,-152"/>
<text text-anchor="middle" x="562" y="-131.8" font-family="Courier,monospace" font-size="9.00">CIccProfile::FindTag()</text>
</g>
<!-- Node0x5d82133b34d0&#45;&gt;Node0x5d8213404ed0 -->
<g id="edge9" class="edge">
<title>Node0x5d82133b34d0&#45;&gt;Node0x5d8213404ed0</title>
<path fill="none" stroke="#4a6fa5" d="M423.54,-289.89C429.44,-286.81 435.02,-283.21 440,-279 483.99,-241.76 456.59,-203.1 498,-163 500.78,-160.31 503.86,-157.83 507.11,-155.56"/>
<polygon fill="#4a6fa5" stroke="#4a6fa5" points="508.46,-157.19 512.35,-152.17 506.18,-153.67 508.46,-157.19"/>
</g>
<!-- Node0x5d8213406f70 -->
<g id="node11" class="node">
<title>Node0x5d8213406f70</title>
<path fill="#f0f4ff" stroke="black" d="M614,-94C614,-94 510,-94 510,-94 504,-94 498,-88 498,-82 498,-82 498,-70 498,-70 498,-64 504,-58 510,-58 510,-58 614,-58 614,-58 620,-58 626,-64 626,-70 626,-70 626,-82 626,-82 626,-88 620,-94 614,-94"/>
<text text-anchor="middle" x="562" y="-73.8" font-family="Courier,monospace" font-size="9.00">CIccCLUT::GridPoints()</text>
</g>
<!-- Node0x5d82133b34d0&#45;&gt;Node0x5d8213406f70 -->
<g id="edge10" class="edge">
<title>Node0x5d82133b34d0&#45;&gt;Node0x5d8213406f70</title>
<path fill="none" stroke="#4a6fa5" d="M425.57,-289.86C430.81,-286.79 435.7,-283.2 440,-279 498.33,-222.05 443.6,-165.71 498,-105 500.31,-102.42 502.9,-100.06 505.67,-97.89"/>
<polygon fill="#4a6fa5" stroke="#4a6fa5" points="507.17,-99.4 510.83,-94.2 504.73,-95.98 507.17,-99.4"/>
</g>
<!-- Node0x5d82134061b0 -->
<g id="node12" class="node">
<title>Node0x5d82134061b0</title>
<path fill="#f0f4ff" stroke="black" d="M603.5,-36C603.5,-36 520.5,-36 520.5,-36 514.5,-36 508.5,-30 508.5,-24 508.5,-24 508.5,-12 508.5,-12 508.5,-6 514.5,0 520.5,0 520.5,0 603.5,0 603.5,0 609.5,0 615.5,-6 615.5,-12 615.5,-12 615.5,-24 615.5,-24 615.5,-30 609.5,-36 603.5,-36"/>
<text text-anchor="middle" x="562" y="-15.8" font-family="Courier,monospace" font-size="9.00">CIccMBB::GetCLUT()</text>
</g>
<!-- Node0x5d82133b34d0&#45;&gt;Node0x5d82134061b0 -->
<g id="edge11" class="edge">
<title>Node0x5d82133b34d0&#45;&gt;Node0x5d82134061b0</title>
<path fill="none" stroke="#4a6fa5" d="M426.38,-289.95C431.37,-286.85 435.98,-283.23 440,-279 513.15,-201.89 430.17,-128.82 498,-47 500.16,-44.39 502.61,-42.01 505.25,-39.83"/>
<polygon fill="#4a6fa5" stroke="#4a6fa5" points="506.66,-41.4 510.2,-36.13 504.14,-38.04 506.66,-41.4"/>
</g>
<!-- Node0x5d82134079b0 -->
<g id="node13" class="node">
<title>Node0x5d82134079b0</title>
<path fill="#f0f4ff" stroke="black" d="M179,-297C179,-297 12,-297 12,-297 6,-297 0,-291 0,-285 0,-285 0,-273 0,-273 0,-267 6,-261 12,-261 12,-261 179,-261 179,-261 185,-261 191,-267 191,-273 191,-273 191,-285 191,-285 191,-291 185,-297 179,-297"/>
<text text-anchor="middle" x="95.5" y="-276.8" font-family="Courier,monospace" font-size="9.00">CIccEvalCompare::EvaluateProfile()</text>
</g>
<!-- Node0x5d82134079b0&#45;&gt;Node0x5d82133b34d0 -->
<g id="edge13" class="edge">
<title>Node0x5d82134079b0&#45;&gt;Node0x5d82133b34d0</title>
<path fill="none" stroke="#4a6fa5" d="M191.29,-290.13C208.13,-292.11 225.73,-294.17 242.73,-296.17"/>
<polygon fill="#4a6fa5" stroke="#4a6fa5" points="242.76,-298.29 248.96,-296.9 243.25,-294.12 242.76,-298.29"/>
</g>
<!-- Node0x5d8213407030 -->
<g id="node14" class="node">
<title>Node0x5d8213407030</title>
<path fill="#f0f4ff" stroke="black" d="M381,-268C381,-268 308,-268 308,-268 302,-268 296,-262 296,-256 296,-256 296,-244 296,-244 296,-238 302,-232 308,-232 308,-232 381,-232 381,-232 387,-232 393,-238 393,-244 393,-244 393,-256 393,-256 393,-262 387,-268 381,-268"/>
<text text-anchor="middle" x="344.5" y="-247.8" font-family="Courier,monospace" font-size="9.00">ReadIccProfile()</text>
</g>
<!-- Node0x5d82134079b0&#45;&gt;Node0x5d8213407030 -->
<g id="edge12" class="edge">
<title>Node0x5d82134079b0&#45;&gt;Node0x5d8213407030</title>
<path fill="none" stroke="#4a6fa5" d="M191.29,-267.87C224.69,-263.95 261.06,-259.68 289.87,-256.3"/>
<polygon fill="#4a6fa5" stroke="#4a6fa5" points="290.19,-258.37 295.9,-255.59 289.7,-254.2 290.19,-258.37"/>
</g>
</g>
</svg>
