<?xml version="1.0" encoding="UTF-8" standalone="no"?>
<!DOCTYPE svg PUBLIC "-//W3C//DTD SVG 1.1//EN"
 "http://www.w3.org/Graphics/SVG/1.1/DTD/svg11.dtd">
<!-- Generated by graphviz version 2.43.0 (0)
 -->
<!-- Title: Call graph: /home/h02332/po/research/call&#45;graph/iccdev/proflib/IccEval.ll Pages: 1 -->
<svg width="3696pt" height="214pt"
 viewBox="0.00 0.00 3696.00 214.00" xmlns="http://www.w3.org/2000/svg" xmlns:xlink="http://www.w3.org/1999/xlink">
<g id="graph0" class="graph" transform="scale(1 1) rotate(0) translate(4 210)">
<title>Call graph: /home/h02332/po/research/call&#45;graph/iccdev/proflib/IccEval.ll</title>
<polygon fill="white" stroke="transparent" points="-4,4 -4,-210 3692,-210 3692,4 -4,4"/>
<text text-anchor="middle" x="1844" y="-7.8" font-family="Times,serif" font-size="14.00">Call graph: /home/h02332/po/research/call&#45;graph/iccdev/proflib/IccEval.ll</text>
<!-- Node0x5988f7136b50 -->
<g id="node1" class="node">
<title>Node0x5988f7136b50</title>
<polygon fill="none" stroke="black" points="1968,-96.5 1968,-132.5 2684,-132.5 2684,-96.5 1968,-96.5"/>
<text text-anchor="middle" x="2326" y="-110.8" font-family="Times,serif" font-size="14.00">_ZN15CIccEvalCompare15EvaluateProfileEP11CIccProfileh17icRenderingIntent13icXformInterpb</text>
</g>
<!-- Node0x5988f71371e0 -->
<g id="node2" class="node">
<title>Node0x5988f71371e0</title>
<polygon fill="none" stroke="black" points="0,-23.5 0,-59.5 368,-59.5 368,-23.5 0,-23.5"/>
<text text-anchor="middle" x="184" y="-37.8" font-family="Times,serif" font-size="14.00">_ZN7CIccCmmC1E21icColorSpaceSignatureS0_b</text>
</g>
<!-- Node0x5988f7136b50&#45;&gt;Node0x5988f71371e0 -->
<g id="edge1" class="edge">
<title>Node0x5988f7136b50&#45;&gt;Node0x5988f71371e0</title>
<path fill="none" stroke="black" d="M1967.83,-110.42C1579.04,-105.52 939.66,-92.89 378.45,-60.06"/>
<polygon fill="black" stroke="black" points="378.3,-56.55 368.12,-59.45 377.89,-63.54 378.3,-56.55"/>
</g>
<!-- Node0x5988f7137570 -->
<g id="node3" class="node">
<title>Node0x5988f7137570</title>
<polygon fill="none" stroke="black" points="386.5,-23.5 386.5,-59.5 547.5,-59.5 547.5,-23.5 386.5,-23.5"/>
<text text-anchor="middle" x="467" y="-37.8" font-family="Times,serif" font-size="14.00">_ZN7CIccCmmD1Ev</text>
</g>
<!-- Node0x5988f7136b50&#45;&gt;Node0x5988f7137570 -->
<g id="edge2" class="edge">
<title>Node0x5988f7136b50&#45;&gt;Node0x5988f7137570</title>
<path fill="none" stroke="black" d="M1967.54,-109.61C1536.36,-103.72 836.73,-90.01 558.06,-60.11"/>
<polygon fill="black" stroke="black" points="558.24,-56.61 547.92,-59 557.48,-63.57 558.24,-56.61"/>
</g>
<!-- Node0x5988f7149e80 -->
<g id="node4" class="node">
<title>Node0x5988f7149e80</title>
<polygon fill="none" stroke="black" points="565.5,-23.5 565.5,-59.5 1792.5,-59.5 1792.5,-23.5 565.5,-23.5"/>
<text text-anchor="middle" x="1179" y="-37.8" font-family="Times,serif" font-size="14.00">_ZN7CIccCmm8AddXformER11CIccProfile17icRenderingIntent13icXformInterpP31IIccProfileConnectionConditions14icXformLutTypebP26CIccCreateXformHintManager</text>
</g>
<!-- Node0x5988f7136b50&#45;&gt;Node0x5988f7149e80 -->
<g id="edge3" class="edge">
<title>Node0x5988f7136b50&#45;&gt;Node0x5988f7149e80</title>
<path fill="none" stroke="black" d="M2051.26,-96.49C1873.85,-85.51 1643.52,-71.25 1464.1,-60.15"/>
<polygon fill="black" stroke="black" points="1464.17,-56.65 1453.98,-59.52 1463.74,-63.63 1464.17,-56.65"/>
</g>
<!-- Node0x5988f7189af0 -->
<g id="node5" class="node">
<title>Node0x5988f7189af0</title>
<polygon fill="none" stroke="black" points="1810.5,-23.5 1810.5,-59.5 2011.5,-59.5 2011.5,-23.5 1810.5,-23.5"/>
<text text-anchor="middle" x="1911" y="-37.8" font-family="Times,serif" font-size="14.00">_ZN7CIccCmm5BeginEbb</text>
</g>
<!-- Node0x5988f7136b50&#45;&gt;Node0x5988f7189af0 -->
<g id="edge4" class="edge">
<title>Node0x5988f7136b50&#45;&gt;Node0x5988f7189af0</title>
<path fill="none" stroke="black" d="M2226.6,-96.49C2164.57,-85.88 2084.67,-72.21 2020.78,-61.28"/>
<polygon fill="black" stroke="black" points="2021.12,-57.79 2010.67,-59.55 2019.94,-64.69 2021.12,-57.79"/>
</g>
<!-- Node0x5988f718b1f0 -->
<g id="node6" class="node">
<title>Node0x5988f718b1f0</title>
<polygon fill="none" stroke="black" points="2029.5,-23.5 2029.5,-59.5 2196.5,-59.5 2196.5,-23.5 2029.5,-23.5"/>
<text text-anchor="middle" x="2113" y="-37.8" font-family="Times,serif" font-size="14.00">_Z12icLabFromPcsPf</text>
</g>
<!-- Node0x5988f7136b50&#45;&gt;Node0x5988f718b1f0 -->
<g id="edge5" class="edge">
<title>Node0x5988f7136b50&#45;&gt;Node0x5988f718b1f0</title>
<path fill="none" stroke="black" d="M2274.98,-96.49C2244.64,-86.38 2205.97,-73.49 2174.02,-62.84"/>
<polygon fill="black" stroke="black" points="2174.93,-59.46 2164.34,-59.61 2172.72,-66.1 2174.93,-59.46"/>
</g>
<!-- Node0x5988f718a570 -->
<g id="node7" class="node">
<title>Node0x5988f718a570</title>
<polygon fill="none" stroke="black" points="2214.5,-23.5 2214.5,-59.5 2437.5,-59.5 2437.5,-23.5 2214.5,-23.5"/>
<text text-anchor="middle" x="2326" y="-37.8" font-family="Times,serif" font-size="14.00">_ZN7CIccCmm5ApplyEPfPKf</text>
</g>
<!-- Node0x5988f7136b50&#45;&gt;Node0x5988f718a570 -->
<g id="edge6" class="edge">
<title>Node0x5988f7136b50&#45;&gt;Node0x5988f718a570</title>
<path fill="none" stroke="black" d="M2326,-96.31C2326,-88.29 2326,-78.55 2326,-69.57"/>
<polygon fill="black" stroke="black" points="2329.5,-69.53 2326,-59.53 2322.5,-69.53 2329.5,-69.53"/>
</g>
<!-- Node0x5988f718a7f0 -->
<g id="node8" class="node">
<title>Node0x5988f718a7f0</title>
<polygon fill="none" stroke="black" points="2456,-23.5 2456,-59.5 2548,-59.5 2548,-23.5 2456,-23.5"/>
<text text-anchor="middle" x="2502" y="-37.8" font-family="Times,serif" font-size="14.00">_Z5icMinff</text>
</g>
<!-- Node0x5988f7136b50&#45;&gt;Node0x5988f718a7f0 -->
<g id="edge7" class="edge">
<title>Node0x5988f7136b50&#45;&gt;Node0x5988f718a7f0</title>
<path fill="none" stroke="black" d="M2368.16,-96.49C2392.79,-86.56 2424.08,-73.93 2450.21,-63.39"/>
<polygon fill="black" stroke="black" points="2451.61,-66.6 2459.58,-59.61 2448.99,-60.11 2451.61,-66.6"/>
</g>
<!-- Node0x5988f7187cf0 -->
<g id="node9" class="node">
<title>Node0x5988f7187cf0</title>
<polygon fill="none" stroke="black" points="2566,-23.5 2566,-59.5 2940,-59.5 2940,-23.5 2566,-23.5"/>
<text text-anchor="middle" x="2753" y="-37.8" font-family="Times,serif" font-size="14.00">_Z17icGetSpaceSamples21icColorSpaceSignature</text>
</g>
<!-- Node0x5988f7136b50&#45;&gt;Node0x5988f7187cf0 -->
<g id="edge8" class="edge">
<title>Node0x5988f7136b50&#45;&gt;Node0x5988f7187cf0</title>
<path fill="none" stroke="black" d="M2428.28,-96.49C2492.23,-85.86 2574.65,-72.16 2640.45,-61.21"/>
<polygon fill="black" stroke="black" points="2641.16,-64.64 2650.45,-59.55 2640.01,-57.74 2641.16,-64.64"/>
</g>
<!-- Node0x5988f7187d70 -->
<g id="node10" class="node">
<title>Node0x5988f7187d70</title>
<polygon fill="none" stroke="black" points="2958,-23.5 2958,-59.5 3180,-59.5 3180,-23.5 2958,-23.5"/>
<text text-anchor="middle" x="3069" y="-37.8" font-family="Times,serif" font-size="14.00">_ZN11CIccProfile7FindTagEj</text>
</g>
<!-- Node0x5988f7136b50&#45;&gt;Node0x5988f7187d70 -->
<g id="edge9" class="edge">
<title>Node0x5988f7136b50&#45;&gt;Node0x5988f7187d70</title>
<path fill="none" stroke="black" d="M2562.63,-96.49C2676.3,-87.5 2814.68,-75.35 2947.9,-60.09"/>
<polygon fill="black" stroke="black" points="2948.35,-63.56 2957.89,-58.94 2947.55,-56.61 2948.35,-63.56"/>
</g>
<!-- Node0x5988f718acf0 -->
<g id="node11" class="node">
<title>Node0x5988f718acf0</title>
<polygon fill="none" stroke="black" points="3198,-23.5 3198,-59.5 3446,-59.5 3446,-23.5 3198,-23.5"/>
<text text-anchor="middle" x="3322" y="-37.8" font-family="Times,serif" font-size="14.00">_ZNK8CIccCLUT10GridPointsEv</text>
</g>
<!-- Node0x5988f7136b50&#45;&gt;Node0x5988f718acf0 -->
<g id="edge10" class="edge">
<title>Node0x5988f7136b50&#45;&gt;Node0x5988f718acf0</title>
<path fill="none" stroke="black" d="M2636.67,-96.5C2833.49,-85.3 3070.75,-70.91 3187.54,-60.09"/>
<polygon fill="black" stroke="black" points="3188.16,-63.55 3197.79,-59.12 3187.5,-56.58 3188.16,-63.55"/>
</g>
<!-- Node0x5988f7189f70 -->
<g id="node12" class="node">
<title>Node0x5988f7189f70</title>
<polygon fill="none" stroke="black" points="3464,-23.5 3464,-59.5 3688,-59.5 3688,-23.5 3464,-23.5"/>
<text text-anchor="middle" x="3576" y="-37.8" font-family="Times,serif" font-size="14.00">_ZNK7CIccMBB7GetCLUTEv</text>
</g>
<!-- Node0x5988f7136b50&#45;&gt;Node0x5988f7189f70 -->
<g id="edge11" class="edge">
<title>Node0x5988f7136b50&#45;&gt;Node0x5988f7189f70</title>
<path fill="none" stroke="black" d="M2683.89,-96.48C2687.27,-96.32 2690.65,-96.16 2694,-96 3028.92,-80.11 3116.24,-92.03 3453.91,-60.05"/>
<polygon fill="black" stroke="black" points="3454.35,-63.52 3463.98,-59.09 3453.69,-56.55 3454.35,-63.52"/>
</g>
<!-- Node0x5988f718ba70 -->
<g id="node13" class="node">
<title>Node0x5988f718ba70</title>
<polygon fill="none" stroke="black" points="2899.5,-169.5 2899.5,-205.5 3066.5,-205.5 3066.5,-169.5 2899.5,-169.5"/>
<text text-anchor="middle" x="2983" y="-183.8" font-family="Times,serif" font-size="14.00">__gxx_personality_v0</text>
</g>
<!-- Node0x5988f718a4f0 -->
<g id="node14" class="node">
<title>Node0x5988f718a4f0</title>
<polygon fill="none" stroke="black" points="2242.5,-169.5 2242.5,-205.5 2881.5,-205.5 2881.5,-169.5 2242.5,-169.5"/>
<text text-anchor="middle" x="2562" y="-183.8" font-family="Times,serif" font-size="14.00">_ZN15CIccEvalCompare15EvaluateProfileEPKch17icRenderingIntent13icXformInterpb</text>
</g>
<!-- Node0x5988f718a4f0&#45;&gt;Node0x5988f7136b50 -->
<g id="edge13" class="edge">
<title>Node0x5988f718a4f0&#45;&gt;Node0x5988f7136b50</title>
<path fill="none" stroke="black" d="M2505.47,-169.49C2471.57,-159.29 2428.27,-146.27 2392.7,-135.57"/>
<polygon fill="black" stroke="black" points="2393.47,-132.14 2382.88,-132.61 2391.45,-138.85 2393.47,-132.14"/>
</g>
<!-- Node0x5988f718b2b0 -->
<g id="node15" class="node">
<title>Node0x5988f718b2b0</title>
<polygon fill="none" stroke="black" points="2702.5,-96.5 2702.5,-132.5 2893.5,-132.5 2893.5,-96.5 2702.5,-96.5"/>
<text text-anchor="middle" x="2798" y="-110.8" font-family="Times,serif" font-size="14.00">_Z14ReadIccProfilePKcb</text>
</g>
<!-- Node0x5988f718a4f0&#45;&gt;Node0x5988f718b2b0 -->
<g id="edge12" class="edge">
<title>Node0x5988f718a4f0&#45;&gt;Node0x5988f718b2b0</title>
<path fill="none" stroke="black" d="M2618.53,-169.49C2652.43,-159.29 2695.73,-146.27 2731.3,-135.57"/>
<polygon fill="black" stroke="black" points="2732.55,-138.85 2741.12,-132.61 2730.53,-132.14 2732.55,-138.85"/>
</g>
</g>
</svg>
