<?xml version="1.0" encoding="UTF-8" standalone="no"?>
<!DOCTYPE svg PUBLIC "-//W3C//DTD SVG 1.1//EN"
 "http://www.w3.org/Graphics/SVG/1.1/DTD/svg11.dtd">
<!-- Generated by graphviz version 2.43.0 (0)
 -->
<!-- Title: Call graph: /home/h02332/po/research/call&#45;graph/iccdev/proflib/IccIO.ll Pages: 1 -->
<svg width="516pt" height="3617pt"
 viewBox="0.00 0.00 516.20 3617.20" xmlns="http://www.w3.org/2000/svg" xmlns:xlink="http://www.w3.org/1999/xlink">
<g id="graph0" class="graph" transform="scale(1 1) rotate(0) translate(21.6 3595.6)">
<title>Call graph: /home/h02332/po/research/call&#45;graph/iccdev/proflib/IccIO.ll</title>
<polygon fill="white" stroke="transparent" points="-21.6,21.6 -21.6,-3595.6 494.6,-3595.6 494.6,21.6 -21.6,21.6"/>
<!-- Node0x5a9b16ca1840 -->
<g id="node1" class="node">
<title>Node0x5a9b16ca1840</title>
<path fill="#f0f4ff" stroke="black" d="M118.5,-36C118.5,-36 35.5,-36 35.5,-36 29.5,-36 23.5,-30 23.5,-24 23.5,-24 23.5,-12 23.5,-12 23.5,-6 29.5,0 35.5,0 35.5,0 118.5,0 118.5,0 124.5,0 130.5,-6 130.5,-12 130.5,-12 130.5,-24 130.5,-24 130.5,-30 124.5,-36 118.5,-36"/>
<text text-anchor="middle" x="77" y="-15.8" font-family="Courier,monospace" font-size="9.00">CIccIO::ReadLine()</text>
</g>
<!-- Node0x5a9b16ca3670 -->
<g id="node2" class="node">
<title>Node0x5a9b16ca3670</title>
<path fill="#f0f4ff" stroke="black" d="M304.5,-152C304.5,-152 231.5,-152 231.5,-152 225.5,-152 219.5,-146 219.5,-140 219.5,-140 219.5,-128 219.5,-128 219.5,-122 225.5,-116 231.5,-116 231.5,-116 304.5,-116 304.5,-116 310.5,-116 316.5,-122 316.5,-128 316.5,-128 316.5,-140 316.5,-140 316.5,-146 310.5,-152 304.5,-152"/>
<text text-anchor="middle" x="268" y="-131.8" font-family="Courier,monospace" font-size="9.00">CIccIO::Read16()</text>
</g>
<!-- Node0x5a9b16ca4cb0 -->
<g id="node3" class="node">
<title>Node0x5a9b16ca4cb0</title>
<path fill="#f0f4ff" stroke="black" d="M461,-152C461,-152 394,-152 394,-152 388,-152 382,-146 382,-140 382,-140 382,-128 382,-128 382,-122 388,-116 394,-116 394,-116 461,-116 461,-116 467,-116 473,-122 473,-128 473,-128 473,-140 473,-140 473,-146 467,-152 461,-152"/>
<text text-anchor="middle" x="427.5" y="-131.8" font-family="Courier,monospace" font-size="9.00">icSwab16Array()</text>
</g>
<!-- Node0x5a9b16ca3670&#45;&gt;Node0x5a9b16ca4cb0 -->
<g id="edge1" class="edge">
<title>Node0x5a9b16ca3670&#45;&gt;Node0x5a9b16ca4cb0</title>
<path fill="none" stroke="#4a6fa5" d="M316.68,-134C335.31,-134 356.7,-134 375.62,-134"/>
<polygon fill="#4a6fa5" stroke="#4a6fa5" points="375.94,-136.1 381.94,-134 375.94,-131.9 375.94,-136.1"/>
</g>
<!-- Node0x5a9b16ca6270 -->
<g id="node4" class="node">
<title>Node0x5a9b16ca6270</title>
<path fill="#f0f4ff" stroke="black" d="M307,-268C307,-268 229,-268 229,-268 223,-268 217,-262 217,-256 217,-256 217,-244 217,-244 217,-238 223,-232 229,-232 229,-232 307,-232 307,-232 313,-232 319,-238 319,-244 319,-244 319,-256 319,-256 319,-262 313,-268 307,-268"/>
<text text-anchor="middle" x="268" y="-247.8" font-family="Courier,monospace" font-size="9.00">CIccIO::Write16()</text>
</g>
<!-- Node0x5a9b16c9d0a0 -->
<g id="node5" class="node">
<title>Node0x5a9b16c9d0a0</title>
<path fill="#f0f4ff" stroke="black" d="M456,-268C456,-268 399,-268 399,-268 393,-268 387,-262 387,-256 387,-256 387,-244 387,-244 387,-238 393,-232 399,-232 399,-232 456,-232 456,-232 462,-232 468,-238 468,-244 468,-244 468,-256 468,-256 468,-262 462,-268 456,-268"/>
<text text-anchor="middle" x="427.5" y="-247.8" font-family="Courier,monospace" font-size="9.00">icSwab16Ptr()</text>
</g>
<!-- Node0x5a9b16ca6270&#45;&gt;Node0x5a9b16c9d0a0 -->
<g id="edge2" class="edge">
<title>Node0x5a9b16ca6270&#45;&gt;Node0x5a9b16c9d0a0</title>
<path fill="none" stroke="#4a6fa5" d="M319.27,-250C339.01,-250 361.51,-250 380.78,-250"/>
<polygon fill="#4a6fa5" stroke="#4a6fa5" points="380.92,-252.1 386.92,-250 380.92,-247.9 380.92,-252.1"/>
</g>
<!-- Node0x5a9b16af1190 -->
<g id="node6" class="node">
<title>Node0x5a9b16af1190</title>
<path fill="#f0f4ff" stroke="black" d="M304.5,-326C304.5,-326 231.5,-326 231.5,-326 225.5,-326 219.5,-320 219.5,-314 219.5,-314 219.5,-302 219.5,-302 219.5,-296 225.5,-290 231.5,-290 231.5,-290 304.5,-290 304.5,-290 310.5,-290 316.5,-296 316.5,-302 316.5,-302 316.5,-314 316.5,-314 316.5,-320 310.5,-326 304.5,-326"/>
<text text-anchor="middle" x="268" y="-305.8" font-family="Courier,monospace" font-size="9.00">CIccIO::Read32()</text>
</g>
<!-- Node0x5a9b16c57b70 -->
<g id="node7" class="node">
<title>Node0x5a9b16c57b70</title>
<path fill="#f0f4ff" stroke="black" d="M461,-326C461,-326 394,-326 394,-326 388,-326 382,-320 382,-314 382,-314 382,-302 382,-302 382,-296 388,-290 394,-290 394,-290 461,-290 461,-290 467,-290 473,-296 473,-302 473,-302 473,-314 473,-314 473,-320 467,-326 461,-326"/>
<text text-anchor="middle" x="427.5" y="-305.8" font-family="Courier,monospace" font-size="9.00">icSwab32Array()</text>
</g>
<!-- Node0x5a9b16af1190&#45;&gt;Node0x5a9b16c57b70 -->
<g id="edge3" class="edge">
<title>Node0x5a9b16af1190&#45;&gt;Node0x5a9b16c57b70</title>
<path fill="none" stroke="#4a6fa5" d="M316.68,-308C335.31,-308 356.7,-308 375.62,-308"/>
<polygon fill="#4a6fa5" stroke="#4a6fa5" points="375.94,-310.1 381.94,-308 375.94,-305.9 375.94,-310.1"/>
</g>
<!-- Node0x5a9b16bd0600 -->
<g id="node8" class="node">
<title>Node0x5a9b16bd0600</title>
<path fill="#f0f4ff" stroke="black" d="M307,-384C307,-384 229,-384 229,-384 223,-384 217,-378 217,-372 217,-372 217,-360 217,-360 217,-354 223,-348 229,-348 229,-348 307,-348 307,-348 313,-348 319,-354 319,-360 319,-360 319,-372 319,-372 319,-378 313,-384 307,-384"/>
<text text-anchor="middle" x="268" y="-363.8" font-family="Courier,monospace" font-size="9.00">CIccIO::Write32()</text>
</g>
<!-- Node0x5a9b16c9d010 -->
<g id="node9" class="node">
<title>Node0x5a9b16c9d010</title>
<path fill="#f0f4ff" stroke="black" d="M456,-384C456,-384 399,-384 399,-384 393,-384 387,-378 387,-372 387,-372 387,-360 387,-360 387,-354 393,-348 399,-348 399,-348 456,-348 456,-348 462,-348 468,-354 468,-360 468,-360 468,-372 468,-372 468,-378 462,-384 456,-384"/>
<text text-anchor="middle" x="427.5" y="-363.8" font-family="Courier,monospace" font-size="9.00">icSwab32Ptr()</text>
</g>
<!-- Node0x5a9b16bd0600&#45;&gt;Node0x5a9b16c9d010 -->
<g id="edge4" class="edge">
<title>Node0x5a9b16bd0600&#45;&gt;Node0x5a9b16c9d010</title>
<path fill="none" stroke="#4a6fa5" d="M319.27,-366C339.01,-366 361.51,-366 380.78,-366"/>
<polygon fill="#4a6fa5" stroke="#4a6fa5" points="380.92,-368.1 386.92,-366 380.92,-363.9 380.92,-368.1"/>
</g>
<!-- Node0x5a9b16af6f90 -->
<g id="node10" class="node">
<title>Node0x5a9b16af6f90</title>
<path fill="#f0f4ff" stroke="black" d="M113.5,-442C113.5,-442 40.5,-442 40.5,-442 34.5,-442 28.5,-436 28.5,-430 28.5,-430 28.5,-418 28.5,-418 28.5,-412 34.5,-406 40.5,-406 40.5,-406 113.5,-406 113.5,-406 119.5,-406 125.5,-412 125.5,-418 125.5,-418 125.5,-430 125.5,-430 125.5,-436 119.5,-442 113.5,-442"/>
<text text-anchor="middle" x="77" y="-421.8" font-family="Courier,monospace" font-size="9.00">CIccIO::Read64()</text>
</g>
<!-- Node0x5a9b16ccbd30 -->
<g id="node11" class="node">
<title>Node0x5a9b16ccbd30</title>
<path fill="#f0f4ff" stroke="black" d="M301.5,-442C301.5,-442 234.5,-442 234.5,-442 228.5,-442 222.5,-436 222.5,-430 222.5,-430 222.5,-418 222.5,-418 222.5,-412 228.5,-406 234.5,-406 234.5,-406 301.5,-406 301.5,-406 307.5,-406 313.5,-412 313.5,-418 313.5,-418 313.5,-430 313.5,-430 313.5,-436 307.5,-442 301.5,-442"/>
<text text-anchor="middle" x="268" y="-421.8" font-family="Courier,monospace" font-size="9.00">icSwab64Array()</text>
</g>
<!-- Node0x5a9b16af6f90&#45;&gt;Node0x5a9b16ccbd30 -->
<g id="edge5" class="edge">
<title>Node0x5a9b16af6f90&#45;&gt;Node0x5a9b16ccbd30</title>
<path fill="none" stroke="#4a6fa5" d="M125.69,-424C153.24,-424 187.9,-424 215.99,-424"/>
<polygon fill="#4a6fa5" stroke="#4a6fa5" points="216.25,-426.1 222.25,-424 216.25,-421.9 216.25,-426.1"/>
</g>
<!-- Node0x5a9b16cc4c20 -->
<g id="node12" class="node">
<title>Node0x5a9b16cc4c20</title>
<path fill="#f0f4ff" stroke="black" d="M116,-500C116,-500 38,-500 38,-500 32,-500 26,-494 26,-488 26,-488 26,-476 26,-476 26,-470 32,-464 38,-464 38,-464 116,-464 116,-464 122,-464 128,-470 128,-476 128,-476 128,-488 128,-488 128,-494 122,-500 116,-500"/>
<text text-anchor="middle" x="77" y="-479.8" font-family="Courier,monospace" font-size="9.00">CIccIO::Write64()</text>
</g>
<!-- Node0x5a9b16cacd40 -->
<g id="node13" class="node">
<title>Node0x5a9b16cacd40</title>
<path fill="#f0f4ff" stroke="black" d="M296.5,-500C296.5,-500 239.5,-500 239.5,-500 233.5,-500 227.5,-494 227.5,-488 227.5,-488 227.5,-476 227.5,-476 227.5,-470 233.5,-464 239.5,-464 239.5,-464 296.5,-464 296.5,-464 302.5,-464 308.5,-470 308.5,-476 308.5,-476 308.5,-488 308.5,-488 308.5,-494 302.5,-500 296.5,-500"/>
<text text-anchor="middle" x="268" y="-479.8" font-family="Courier,monospace" font-size="9.00">icSwab64Ptr()</text>
</g>
<!-- Node0x5a9b16cc4c20&#45;&gt;Node0x5a9b16cacd40 -->
<g id="edge6" class="edge">
<title>Node0x5a9b16cc4c20&#45;&gt;Node0x5a9b16cacd40</title>
<path fill="none" stroke="#4a6fa5" d="M128.15,-482C157.03,-482 193.04,-482 221.16,-482"/>
<polygon fill="#4a6fa5" stroke="#4a6fa5" points="221.4,-484.1 227.4,-482 221.4,-479.9 221.4,-484.1"/>
</g>
<!-- Node0x5a9b16cd1990 -->
<g id="node14" class="node">
<title>Node0x5a9b16cd1990</title>
<path fill="#f0f4ff" stroke="black" d="M142,-384C142,-384 12,-384 12,-384 6,-384 0,-378 0,-372 0,-372 0,-360 0,-360 0,-354 6,-348 12,-348 12,-348 142,-348 142,-348 148,-348 154,-354 154,-360 154,-360 154,-372 154,-372 154,-378 148,-384 142,-384"/>
<text text-anchor="middle" x="77" y="-363.8" font-family="Courier,monospace" font-size="9.00">CIccIO::WriteFloat32Float()</text>
</g>
<!-- Node0x5a9b16cd1990&#45;&gt;Node0x5a9b16bd0600 -->
<g id="edge7" class="edge">
<title>Node0x5a9b16cd1990&#45;&gt;Node0x5a9b16bd0600</title>
<path fill="none" stroke="#4a6fa5" d="M154.06,-366C172.88,-366 192.71,-366 210.42,-366"/>
<polygon fill="#4a6fa5" stroke="#4a6fa5" points="210.84,-368.1 216.84,-366 210.84,-363.9 210.84,-368.1"/>
</g>
<!-- Node0x5a9b16af1ce0 -->
<g id="node15" class="node">
<title>Node0x5a9b16af1ce0</title>
<path fill="#f0f4ff" stroke="black" d="M134.5,-558C134.5,-558 19.5,-558 19.5,-558 13.5,-558 7.5,-552 7.5,-546 7.5,-546 7.5,-534 7.5,-534 7.5,-528 13.5,-522 19.5,-522 19.5,-522 134.5,-522 134.5,-522 140.5,-522 146.5,-528 146.5,-534 146.5,-534 146.5,-546 146.5,-546 146.5,-552 140.5,-558 134.5,-558"/>
<text text-anchor="middle" x="77" y="-537.8" font-family="Courier,monospace" font-size="9.00">CIccIO::ReadUInt8Float()</text>
</g>
<!-- Node0x5a9b16ccd710 -->
<g id="node16" class="node">
<title>Node0x5a9b16ccd710</title>
<path fill="#f0f4ff" stroke="black" d="M137,-616C137,-616 17,-616 17,-616 11,-616 5,-610 5,-604 5,-604 5,-592 5,-592 5,-586 11,-580 17,-580 17,-580 137,-580 137,-580 143,-580 149,-586 149,-592 149,-592 149,-604 149,-604 149,-610 143,-616 137,-616"/>
<text text-anchor="middle" x="77" y="-595.8" font-family="Courier,monospace" font-size="9.00">CIccIO::WriteUInt8Float()</text>
</g>
<!-- Node0x5a9b16ccf660 -->
<g id="node17" class="node">
<title>Node0x5a9b16ccf660</title>
<path fill="#f0f4ff" stroke="black" d="M137,-152C137,-152 17,-152 17,-152 11,-152 5,-146 5,-140 5,-140 5,-128 5,-128 5,-122 11,-116 17,-116 17,-116 137,-116 137,-116 143,-116 149,-122 149,-128 149,-128 149,-140 149,-140 149,-146 143,-152 137,-152"/>
<text text-anchor="middle" x="77" y="-131.8" font-family="Courier,monospace" font-size="9.00">CIccIO::ReadUInt16Float()</text>
</g>
<!-- Node0x5a9b16ccf660&#45;&gt;Node0x5a9b16ca3670 -->
<g id="edge8" class="edge">
<title>Node0x5a9b16ccf660&#45;&gt;Node0x5a9b16ca3670</title>
<path fill="none" stroke="#4a6fa5" d="M149.18,-134C170.43,-134 193.34,-134 213.27,-134"/>
<polygon fill="#4a6fa5" stroke="#4a6fa5" points="213.35,-136.1 219.35,-134 213.35,-131.9 213.35,-136.1"/>
</g>
<!-- Node0x5a9b16ccf490 -->
<g id="node18" class="node">
<title>Node0x5a9b16ccf490</title>
<path fill="#f0f4ff" stroke="black" d="M139.5,-268C139.5,-268 14.5,-268 14.5,-268 8.5,-268 2.5,-262 2.5,-256 2.5,-256 2.5,-244 2.5,-244 2.5,-238 8.5,-232 14.5,-232 14.5,-232 139.5,-232 139.5,-232 145.5,-232 151.5,-238 151.5,-244 151.5,-244 151.5,-256 151.5,-256 151.5,-262 145.5,-268 139.5,-268"/>
<text text-anchor="middle" x="77" y="-247.8" font-family="Courier,monospace" font-size="9.00">CIccIO::WriteUInt16Float()</text>
</g>
<!-- Node0x5a9b16ccf490&#45;&gt;Node0x5a9b16ca6270 -->
<g id="edge9" class="edge">
<title>Node0x5a9b16ccf490&#45;&gt;Node0x5a9b16ca6270</title>
<path fill="none" stroke="#4a6fa5" d="M151.61,-250C171.26,-250 192.18,-250 210.73,-250"/>
<polygon fill="#4a6fa5" stroke="#4a6fa5" points="210.93,-252.1 216.93,-250 210.93,-247.9 210.93,-252.1"/>
</g>
<!-- Node0x5a9b16ccf2a0 -->
<g id="node19" class="node">
<title>Node0x5a9b16ccf2a0</title>
<path fill="#f0f4ff" stroke="black" d="M139.5,-94C139.5,-94 14.5,-94 14.5,-94 8.5,-94 2.5,-88 2.5,-82 2.5,-82 2.5,-70 2.5,-70 2.5,-64 8.5,-58 14.5,-58 14.5,-58 139.5,-58 139.5,-58 145.5,-58 151.5,-64 151.5,-70 151.5,-70 151.5,-82 151.5,-82 151.5,-88 145.5,-94 139.5,-94"/>
<text text-anchor="middle" x="77" y="-73.8" font-family="Courier,monospace" font-size="9.00">CIccIO::ReadFloat16Float()</text>
</g>
<!-- Node0x5a9b16ccf2a0&#45;&gt;Node0x5a9b16ca3670 -->
<g id="edge10" class="edge">
<title>Node0x5a9b16ccf2a0&#45;&gt;Node0x5a9b16ca3670</title>
<path fill="none" stroke="#4a6fa5" d="M136.76,-94.03C161.24,-101.54 189.46,-110.21 213.37,-117.54"/>
<polygon fill="#4a6fa5" stroke="#4a6fa5" points="213,-119.62 219.35,-119.38 214.23,-115.61 213,-119.62"/>
</g>
<!-- Node0x5a9b16cced20 -->
<g id="node20" class="node">
<title>Node0x5a9b16cced20</title>
<path fill="#f0f4ff" stroke="black" d="M288.5,-94C288.5,-94 247.5,-94 247.5,-94 241.5,-94 235.5,-88 235.5,-82 235.5,-82 235.5,-70 235.5,-70 235.5,-64 241.5,-58 247.5,-58 247.5,-58 288.5,-58 288.5,-58 294.5,-58 300.5,-64 300.5,-70 300.5,-70 300.5,-82 300.5,-82 300.5,-88 294.5,-94 288.5,-94"/>
<text text-anchor="middle" x="268" y="-73.8" font-family="Courier,monospace" font-size="9.00">icF16toF()</text>
</g>
<!-- Node0x5a9b16ccf2a0&#45;&gt;Node0x5a9b16cced20 -->
<g id="edge11" class="edge">
<title>Node0x5a9b16ccf2a0&#45;&gt;Node0x5a9b16cced20</title>
<path fill="none" stroke="#4a6fa5" d="M151.61,-76C178.14,-76 206.98,-76 229.19,-76"/>
<polygon fill="#4a6fa5" stroke="#4a6fa5" points="229.27,-78.1 235.27,-76 229.27,-73.9 229.27,-78.1"/>
</g>
<!-- Node0x5a9b16ccd950 -->
<g id="node21" class="node">
<title>Node0x5a9b16ccd950</title>
<path fill="#f0f4ff" stroke="black" d="M142,-210C142,-210 12,-210 12,-210 6,-210 0,-204 0,-198 0,-198 0,-186 0,-186 0,-180 6,-174 12,-174 12,-174 142,-174 142,-174 148,-174 154,-180 154,-186 154,-186 154,-198 154,-198 154,-204 148,-210 142,-210"/>
<text text-anchor="middle" x="77" y="-189.8" font-family="Courier,monospace" font-size="9.00">CIccIO::WriteFloat16Float()</text>
</g>
<!-- Node0x5a9b16ccd950&#45;&gt;Node0x5a9b16ca6270 -->
<g id="edge13" class="edge">
<title>Node0x5a9b16ccd950&#45;&gt;Node0x5a9b16ca6270</title>
<path fill="none" stroke="#4a6fa5" d="M136.76,-210.03C160.44,-217.3 187.63,-225.64 211.01,-232.82"/>
<polygon fill="#4a6fa5" stroke="#4a6fa5" points="210.52,-234.86 216.87,-234.62 211.75,-230.85 210.52,-234.86"/>
</g>
<!-- Node0x5a9b16cd2180 -->
<g id="node22" class="node">
<title>Node0x5a9b16cd2180</title>
<path fill="#f0f4ff" stroke="black" d="M288.5,-210C288.5,-210 247.5,-210 247.5,-210 241.5,-210 235.5,-204 235.5,-198 235.5,-198 235.5,-186 235.5,-186 235.5,-180 241.5,-174 247.5,-174 247.5,-174 288.5,-174 288.5,-174 294.5,-174 300.5,-180 300.5,-186 300.5,-186 300.5,-198 300.5,-198 300.5,-204 294.5,-210 288.5,-210"/>
<text text-anchor="middle" x="268" y="-189.8" font-family="Courier,monospace" font-size="9.00">icFtoF16()</text>
</g>
<!-- Node0x5a9b16ccd950&#45;&gt;Node0x5a9b16cd2180 -->
<g id="edge12" class="edge">
<title>Node0x5a9b16ccd950&#45;&gt;Node0x5a9b16cd2180</title>
<path fill="none" stroke="#4a6fa5" d="M154.06,-192C179.82,-192 207.49,-192 229,-192"/>
<polygon fill="#4a6fa5" stroke="#4a6fa5" points="229.18,-194.1 235.18,-192 229.18,-189.9 229.18,-194.1"/>
</g>
<!-- Node0x5a9b16b11820 -->
<g id="node23" class="node">
<title>Node0x5a9b16b11820</title>
<path fill="#f0f4ff" stroke="black" d="M118.5,-674C118.5,-674 35.5,-674 35.5,-674 29.5,-674 23.5,-668 23.5,-662 23.5,-662 23.5,-650 23.5,-650 23.5,-644 29.5,-638 35.5,-638 35.5,-638 118.5,-638 118.5,-638 124.5,-638 130.5,-644 130.5,-650 130.5,-650 130.5,-662 130.5,-662 130.5,-668 124.5,-674 118.5,-674"/>
<text text-anchor="middle" x="77" y="-653.8" font-family="Courier,monospace" font-size="9.00">CIccMemIO::Close()</text>
</g>
<!-- Node0x5a9b16cd2030 -->
<g id="node24" class="node">
<title>Node0x5a9b16cd2030</title>
<path fill="#f0f4ff" stroke="black" d="M139.5,-326C139.5,-326 14.5,-326 14.5,-326 8.5,-326 2.5,-320 2.5,-314 2.5,-314 2.5,-302 2.5,-302 2.5,-296 8.5,-290 14.5,-290 14.5,-290 139.5,-290 139.5,-290 145.5,-290 151.5,-296 151.5,-302 151.5,-302 151.5,-314 151.5,-314 151.5,-320 145.5,-326 139.5,-326"/>
<text text-anchor="middle" x="77" y="-305.8" font-family="Courier,monospace" font-size="9.00">CIccIO::ReadFloat32Float()</text>
</g>
<!-- Node0x5a9b16cd2030&#45;&gt;Node0x5a9b16af1190 -->
<g id="edge14" class="edge">
<title>Node0x5a9b16cd2030&#45;&gt;Node0x5a9b16af1190</title>
<path fill="none" stroke="#4a6fa5" d="M151.61,-308C172.1,-308 193.97,-308 213.09,-308"/>
<polygon fill="#4a6fa5" stroke="#4a6fa5" points="213.47,-310.1 219.47,-308 213.47,-305.9 213.47,-310.1"/>
</g>
<!-- Node0x5a9b16cd14f0 -->
<g id="node25" class="node">
<title>Node0x5a9b16cd14f0</title>
<path fill="#f0f4ff" stroke="black" d="M116,-732C116,-732 38,-732 38,-732 32,-732 26,-726 26,-720 26,-720 26,-708 26,-708 26,-702 32,-696 38,-696 38,-696 116,-696 116,-696 122,-696 128,-702 128,-708 128,-708 128,-720 128,-720 128,-726 122,-732 116,-732"/>
<text text-anchor="middle" x="77" y="-711.8" font-family="Courier,monospace" font-size="9.00">CIccIO::Align32()</text>
</g>
<!-- Node0x5a9b16cb3320 -->
<g id="node26" class="node">
<title>Node0x5a9b16cb3320</title>
<path fill="#f0f4ff" stroke="black" d="M113.5,-790C113.5,-790 40.5,-790 40.5,-790 34.5,-790 28.5,-784 28.5,-778 28.5,-778 28.5,-766 28.5,-766 28.5,-760 34.5,-754 40.5,-754 40.5,-754 113.5,-754 113.5,-754 119.5,-754 125.5,-760 125.5,-766 125.5,-766 125.5,-778 125.5,-778 125.5,-784 119.5,-790 113.5,-790"/>
<text text-anchor="middle" x="77" y="-769.8" font-family="Courier,monospace" font-size="9.00">CIccIO::Sync32()</text>
</g>
<!-- Node0x5a9b16cb2e20 -->
<g id="node27" class="node">
<title>Node0x5a9b16cb2e20</title>
<path fill="#f0f4ff" stroke="black" d="M134.5,-1022C134.5,-1022 19.5,-1022 19.5,-1022 13.5,-1022 7.5,-1016 7.5,-1010 7.5,-1010 7.5,-998 7.5,-998 7.5,-992 13.5,-986 19.5,-986 19.5,-986 134.5,-986 134.5,-986 140.5,-986 146.5,-992 146.5,-998 146.5,-998 146.5,-1010 146.5,-1010 146.5,-1016 140.5,-1022 134.5,-1022"/>
<text text-anchor="middle" x="77" y="-1001.8" font-family="Courier,monospace" font-size="9.00">CIccFileIO::CIccFileIO()</text>
</g>
<!-- Node0x5a9b16cd3480 -->
<g id="node28" class="node">
<title>Node0x5a9b16cd3480</title>
<path fill="#f0f4ff" stroke="black" d="M304.5,-935C304.5,-935 231.5,-935 231.5,-935 225.5,-935 219.5,-929 219.5,-923 219.5,-923 219.5,-911 219.5,-911 219.5,-905 225.5,-899 231.5,-899 231.5,-899 304.5,-899 304.5,-899 310.5,-899 316.5,-905 316.5,-911 316.5,-911 316.5,-923 316.5,-923 316.5,-929 310.5,-935 304.5,-935"/>
<text text-anchor="middle" x="268" y="-914.8" font-family="Courier,monospace" font-size="9.00">CIccIO::CIccIO()</text>
</g>
<!-- Node0x5a9b16cb2e20&#45;&gt;Node0x5a9b16cd3480 -->
<g id="edge15" class="edge">
<title>Node0x5a9b16cb2e20&#45;&gt;Node0x5a9b16cd3480</title>
<path fill="none" stroke="#4a6fa5" d="M127.79,-985.9C136.59,-982.45 145.62,-978.74 154,-975 179.25,-963.74 206.87,-949.6 228.49,-938.1"/>
<polygon fill="#4a6fa5" stroke="#4a6fa5" points="229.54,-939.91 233.85,-935.24 227.56,-936.21 229.54,-939.91"/>
</g>
<!-- Node0x5a9b16cd33d0 -->
<g id="node29" class="node">
<title>Node0x5a9b16cd33d0</title>
<path fill="#f0f4ff" stroke="black" d="M137,-1312C137,-1312 17,-1312 17,-1312 11,-1312 5,-1306 5,-1300 5,-1300 5,-1288 5,-1288 5,-1282 11,-1276 17,-1276 17,-1276 137,-1276 137,-1276 143,-1276 149,-1282 149,-1288 149,-1288 149,-1300 149,-1300 149,-1306 143,-1312 137,-1312"/>
<text text-anchor="middle" x="77" y="-1291.8" font-family="Courier,monospace" font-size="9.00">CIccFileIO::~CIccFileIO()</text>
</g>
<!-- Node0x5a9b16cd2970 -->
<g id="node30" class="node">
<title>Node0x5a9b16cd2970</title>
<path fill="#f0f4ff" stroke="black" d="M307,-1196C307,-1196 229,-1196 229,-1196 223,-1196 217,-1190 217,-1184 217,-1184 217,-1172 217,-1172 217,-1166 223,-1160 229,-1160 229,-1160 307,-1160 307,-1160 313,-1160 319,-1166 319,-1172 319,-1172 319,-1184 319,-1184 319,-1190 313,-1196 307,-1196"/>
<text text-anchor="middle" x="268" y="-1175.8" font-family="Courier,monospace" font-size="9.00">CIccIO::~CIccIO()</text>
</g>
<!-- Node0x5a9b16cd33d0&#45;&gt;Node0x5a9b16cd2970 -->
<g id="edge16" class="edge">
<title>Node0x5a9b16cd33d0&#45;&gt;Node0x5a9b16cd2970</title>
<path fill="none" stroke="#4a6fa5" d="M131.24,-1275.97C139.04,-1272.68 146.85,-1269 154,-1265 186.74,-1246.67 220.31,-1219.56 242.26,-1200.48"/>
<polygon fill="#4a6fa5" stroke="#4a6fa5" points="243.91,-1201.83 247.04,-1196.3 241.14,-1198.67 243.91,-1201.83"/>
</g>
<!-- Node0x5a9b16cd7450 -->
<g id="node31" class="node">
<title>Node0x5a9b16cd7450</title>
<path fill="#f0f4ff" stroke="black" d="M137,-1370C137,-1370 17,-1370 17,-1370 11,-1370 5,-1364 5,-1358 5,-1358 5,-1346 5,-1346 5,-1340 11,-1334 17,-1334 17,-1334 137,-1334 137,-1334 143,-1334 149,-1340 149,-1346 149,-1346 149,-1358 149,-1358 149,-1364 143,-1370 137,-1370"/>
<text text-anchor="middle" x="77" y="-1349.8" font-family="Courier,monospace" font-size="9.00">CIccFileIO::~CIccFileIO()</text>
</g>
<!-- Node0x5a9b16cba220 -->
<g id="node32" class="node">
<title>Node0x5a9b16cba220</title>
<path fill="#f0f4ff" stroke="black" d="M118.5,-1428C118.5,-1428 35.5,-1428 35.5,-1428 29.5,-1428 23.5,-1422 23.5,-1416 23.5,-1416 23.5,-1404 23.5,-1404 23.5,-1398 29.5,-1392 35.5,-1392 35.5,-1392 118.5,-1392 118.5,-1392 124.5,-1392 130.5,-1398 130.5,-1404 130.5,-1404 130.5,-1416 130.5,-1416 130.5,-1422 124.5,-1428 118.5,-1428"/>
<text text-anchor="middle" x="77" y="-1407.8" font-family="Courier,monospace" font-size="9.00">CIccFileIO::Open()</text>
</g>
<!-- Node0x5a9b16cb89e0 -->
<g id="node33" class="node">
<title>Node0x5a9b16cb89e0</title>
<path fill="#f0f4ff" stroke="black" d="M124,-1486C124,-1486 30,-1486 30,-1486 24,-1486 18,-1480 18,-1474 18,-1474 18,-1462 18,-1462 18,-1456 24,-1450 30,-1450 30,-1450 124,-1450 124,-1450 130,-1450 136,-1456 136,-1462 136,-1462 136,-1474 136,-1474 136,-1480 130,-1486 124,-1486"/>
<text text-anchor="middle" x="77" y="-1465.8" font-family="Courier,monospace" font-size="9.00">CIccFileIO::Attach()</text>
</g>
<!-- Node0x5a9b16cdda90 -->
<g id="node34" class="node">
<title>Node0x5a9b16cdda90</title>
<path fill="#f0f4ff" stroke="black" d="M124,-1544C124,-1544 30,-1544 30,-1544 24,-1544 18,-1538 18,-1532 18,-1532 18,-1520 18,-1520 18,-1514 24,-1508 30,-1508 30,-1508 124,-1508 124,-1508 130,-1508 136,-1514 136,-1520 136,-1520 136,-1532 136,-1532 136,-1538 130,-1544 124,-1544"/>
<text text-anchor="middle" x="77" y="-1523.8" font-family="Courier,monospace" font-size="9.00">CIccFileIO::Detach()</text>
</g>
<!-- Node0x5a9b16cdd840 -->
<g id="node35" class="node">
<title>Node0x5a9b16cdd840</title>
<path fill="#f0f4ff" stroke="black" d="M121,-1602C121,-1602 33,-1602 33,-1602 27,-1602 21,-1596 21,-1590 21,-1590 21,-1578 21,-1578 21,-1572 27,-1566 33,-1566 33,-1566 121,-1566 121,-1566 127,-1566 133,-1572 133,-1578 133,-1578 133,-1590 133,-1590 133,-1596 127,-1602 121,-1602"/>
<text text-anchor="middle" x="77" y="-1581.8" font-family="Courier,monospace" font-size="9.00">CIccFileIO::Close()</text>
</g>
<!-- Node0x5a9b16cdd180 -->
<g id="node36" class="node">
<title>Node0x5a9b16cdd180</title>
<path fill="#f0f4ff" stroke="black" d="M121,-1660C121,-1660 33,-1660 33,-1660 27,-1660 21,-1654 21,-1648 21,-1648 21,-1636 21,-1636 21,-1630 27,-1624 33,-1624 33,-1624 121,-1624 121,-1624 127,-1624 133,-1630 133,-1636 133,-1636 133,-1648 133,-1648 133,-1654 127,-1660 121,-1660"/>
<text text-anchor="middle" x="77" y="-1639.8" font-family="Courier,monospace" font-size="9.00">CIccFileIO::Read8()</text>
</g>
<!-- Node0x5a9b16ce0cb0 -->
<g id="node37" class="node">
<title>Node0x5a9b16ce0cb0</title>
<path fill="#f0f4ff" stroke="black" d="M124,-1718C124,-1718 30,-1718 30,-1718 24,-1718 18,-1712 18,-1706 18,-1706 18,-1694 18,-1694 18,-1688 24,-1682 30,-1682 30,-1682 124,-1682 124,-1682 130,-1682 136,-1688 136,-1694 136,-1694 136,-1706 136,-1706 136,-1712 130,-1718 124,-1718"/>
<text text-anchor="middle" x="77" y="-1697.8" font-family="Courier,monospace" font-size="9.00">CIccFileIO::Write8()</text>
</g>
<!-- Node0x5a9b16ccfdf0 -->
<g id="node38" class="node">
<title>Node0x5a9b16ccfdf0</title>
<path fill="#f0f4ff" stroke="black" d="M131.5,-1776C131.5,-1776 22.5,-1776 22.5,-1776 16.5,-1776 10.5,-1770 10.5,-1764 10.5,-1764 10.5,-1752 10.5,-1752 10.5,-1746 16.5,-1740 22.5,-1740 22.5,-1740 131.5,-1740 131.5,-1740 137.5,-1740 143.5,-1746 143.5,-1752 143.5,-1752 143.5,-1764 143.5,-1764 143.5,-1770 137.5,-1776 131.5,-1776"/>
<text text-anchor="middle" x="77" y="-1755.8" font-family="Courier,monospace" font-size="9.00">CIccFileIO::GetLength()</text>
</g>
<!-- Node0x5a9b16ca9920 -->
<g id="node39" class="node">
<title>Node0x5a9b16ca9920</title>
<path fill="#f0f4ff" stroke="black" d="M118.5,-1834C118.5,-1834 35.5,-1834 35.5,-1834 29.5,-1834 23.5,-1828 23.5,-1822 23.5,-1822 23.5,-1810 23.5,-1810 23.5,-1804 29.5,-1798 35.5,-1798 35.5,-1798 118.5,-1798 118.5,-1798 124.5,-1798 130.5,-1804 130.5,-1810 130.5,-1810 130.5,-1822 130.5,-1822 130.5,-1828 124.5,-1834 118.5,-1834"/>
<text text-anchor="middle" x="77" y="-1813.8" font-family="Courier,monospace" font-size="9.00">CIccFileIO::Seek()</text>
</g>
<!-- Node0x5a9b16ca97e0 -->
<g id="node40" class="node">
<title>Node0x5a9b16ca97e0</title>
<path fill="#f0f4ff" stroke="black" d="M118.5,-1892C118.5,-1892 35.5,-1892 35.5,-1892 29.5,-1892 23.5,-1886 23.5,-1880 23.5,-1880 23.5,-1868 23.5,-1868 23.5,-1862 29.5,-1856 35.5,-1856 35.5,-1856 118.5,-1856 118.5,-1856 124.5,-1856 130.5,-1862 130.5,-1868 130.5,-1868 130.5,-1880 130.5,-1880 130.5,-1886 124.5,-1892 118.5,-1892"/>
<text text-anchor="middle" x="77" y="-1871.8" font-family="Courier,monospace" font-size="9.00">CIccFileIO::Tell()</text>
</g>
<!-- Node0x5a9b16cc1160 -->
<g id="node41" class="node">
<title>Node0x5a9b16cc1160</title>
<path fill="#f0f4ff" stroke="black" d="M139.5,-964C139.5,-964 14.5,-964 14.5,-964 8.5,-964 2.5,-958 2.5,-952 2.5,-952 2.5,-940 2.5,-940 2.5,-934 8.5,-928 14.5,-928 14.5,-928 139.5,-928 139.5,-928 145.5,-928 151.5,-934 151.5,-940 151.5,-940 151.5,-952 151.5,-952 151.5,-958 145.5,-964 139.5,-964"/>
<text text-anchor="middle" x="77" y="-943.8" font-family="Courier,monospace" font-size="9.00">CIccEmbedIO::CIccEmbedIO()</text>
</g>
<!-- Node0x5a9b16cc1160&#45;&gt;Node0x5a9b16cd3480 -->
<g id="edge17" class="edge">
<title>Node0x5a9b16cc1160&#45;&gt;Node0x5a9b16cd3480</title>
<path fill="none" stroke="#4a6fa5" d="M151.61,-934.7C172.1,-931.56 193.97,-928.21 213.09,-925.27"/>
<polygon fill="#4a6fa5" stroke="#4a6fa5" points="213.86,-927.28 219.47,-924.29 213.22,-923.13 213.86,-927.28"/>
</g>
<!-- Node0x5a9b16cdbae0 -->
<g id="node42" class="node">
<title>Node0x5a9b16cdbae0</title>
<path fill="#f0f4ff" stroke="black" d="M142,-1254C142,-1254 12,-1254 12,-1254 6,-1254 0,-1248 0,-1242 0,-1242 0,-1230 0,-1230 0,-1224 6,-1218 12,-1218 12,-1218 142,-1218 142,-1218 148,-1218 154,-1224 154,-1230 154,-1230 154,-1242 154,-1242 154,-1248 148,-1254 142,-1254"/>
<text text-anchor="middle" x="77" y="-1233.8" font-family="Courier,monospace" font-size="9.00">CIccEmbedIO::~CIccEmbedIO()</text>
</g>
<!-- Node0x5a9b16cdbae0&#45;&gt;Node0x5a9b16cd2970 -->
<g id="edge18" class="edge">
<title>Node0x5a9b16cdbae0&#45;&gt;Node0x5a9b16cd2970</title>
<path fill="none" stroke="#4a6fa5" d="M136.76,-1217.97C160.44,-1210.7 187.63,-1202.36 211.01,-1195.18"/>
<polygon fill="#4a6fa5" stroke="#4a6fa5" points="211.75,-1197.15 216.87,-1193.38 210.52,-1193.14 211.75,-1197.15"/>
</g>
<!-- Node0x5a9b16ce9cb0 -->
<g id="node43" class="node">
<title>Node0x5a9b16ce9cb0</title>
<path fill="#f0f4ff" stroke="black" d="M142,-1950C142,-1950 12,-1950 12,-1950 6,-1950 0,-1944 0,-1938 0,-1938 0,-1926 0,-1926 0,-1920 6,-1914 12,-1914 12,-1914 142,-1914 142,-1914 148,-1914 154,-1920 154,-1926 154,-1926 154,-1938 154,-1938 154,-1944 148,-1950 142,-1950"/>
<text text-anchor="middle" x="77" y="-1929.8" font-family="Courier,monospace" font-size="9.00">CIccEmbedIO::~CIccEmbedIO()</text>
</g>
<!-- Node0x5a9b16ce98f0 -->
<g id="node44" class="node">
<title>Node0x5a9b16ce98f0</title>
<path fill="#f0f4ff" stroke="black" d="M126.5,-2008C126.5,-2008 27.5,-2008 27.5,-2008 21.5,-2008 15.5,-2002 15.5,-1996 15.5,-1996 15.5,-1984 15.5,-1984 15.5,-1978 21.5,-1972 27.5,-1972 27.5,-1972 126.5,-1972 126.5,-1972 132.5,-1972 138.5,-1978 138.5,-1984 138.5,-1984 138.5,-1996 138.5,-1996 138.5,-2002 132.5,-2008 126.5,-2008"/>
<text text-anchor="middle" x="77" y="-1987.8" font-family="Courier,monospace" font-size="9.00">CIccEmbedIO::Attach()</text>
</g>
<!-- Node0x5a9b16ce9670 -->
<g id="node45" class="node">
<title>Node0x5a9b16ce9670</title>
<path fill="#f0f4ff" stroke="black" d="M124,-2066C124,-2066 30,-2066 30,-2066 24,-2066 18,-2060 18,-2054 18,-2054 18,-2042 18,-2042 18,-2036 24,-2030 30,-2030 30,-2030 124,-2030 124,-2030 130,-2030 136,-2036 136,-2042 136,-2042 136,-2054 136,-2054 136,-2060 130,-2066 124,-2066"/>
<text text-anchor="middle" x="77" y="-2045.8" font-family="Courier,monospace" font-size="9.00">CIccEmbedIO::Close()</text>
</g>
<!-- Node0x5a9b16ce9030 -->
<g id="node46" class="node">
<title>Node0x5a9b16ce9030</title>
<path fill="#f0f4ff" stroke="black" d="M124,-2124C124,-2124 30,-2124 30,-2124 24,-2124 18,-2118 18,-2112 18,-2112 18,-2100 18,-2100 18,-2094 24,-2088 30,-2088 30,-2088 124,-2088 124,-2088 130,-2088 136,-2094 136,-2100 136,-2100 136,-2112 136,-2112 136,-2118 130,-2124 124,-2124"/>
<text text-anchor="middle" x="77" y="-2103.8" font-family="Courier,monospace" font-size="9.00">CIccEmbedIO::Read8()</text>
</g>
<!-- Node0x5a9b16ce8ef0 -->
<g id="node47" class="node">
<title>Node0x5a9b16ce8ef0</title>
<path fill="#f0f4ff" stroke="black" d="M126.5,-2182C126.5,-2182 27.5,-2182 27.5,-2182 21.5,-2182 15.5,-2176 15.5,-2170 15.5,-2170 15.5,-2158 15.5,-2158 15.5,-2152 21.5,-2146 27.5,-2146 27.5,-2146 126.5,-2146 126.5,-2146 132.5,-2146 138.5,-2152 138.5,-2158 138.5,-2158 138.5,-2170 138.5,-2170 138.5,-2176 132.5,-2182 126.5,-2182"/>
<text text-anchor="middle" x="77" y="-2161.8" font-family="Courier,monospace" font-size="9.00">CIccEmbedIO::Write8()</text>
</g>
<!-- Node0x5a9b16afea00 -->
<g id="node48" class="node">
<title>Node0x5a9b16afea00</title>
<path fill="#f0f4ff" stroke="black" d="M134.5,-2240C134.5,-2240 19.5,-2240 19.5,-2240 13.5,-2240 7.5,-2234 7.5,-2228 7.5,-2228 7.5,-2216 7.5,-2216 7.5,-2210 13.5,-2204 19.5,-2204 19.5,-2204 134.5,-2204 134.5,-2204 140.5,-2204 146.5,-2210 146.5,-2216 146.5,-2216 146.5,-2228 146.5,-2228 146.5,-2234 140.5,-2240 134.5,-2240"/>
<text text-anchor="middle" x="77" y="-2219.8" font-family="Courier,monospace" font-size="9.00">CIccEmbedIO::GetLength()</text>
</g>
<!-- Node0x5a9b16affe00 -->
<g id="node49" class="node">
<title>Node0x5a9b16affe00</title>
<path fill="#f0f4ff" stroke="black" d="M121,-2298C121,-2298 33,-2298 33,-2298 27,-2298 21,-2292 21,-2286 21,-2286 21,-2274 21,-2274 21,-2268 27,-2262 33,-2262 33,-2262 121,-2262 121,-2262 127,-2262 133,-2268 133,-2274 133,-2274 133,-2286 133,-2286 133,-2292 127,-2298 121,-2298"/>
<text text-anchor="middle" x="77" y="-2277.8" font-family="Courier,monospace" font-size="9.00">CIccEmbedIO::Seek()</text>
</g>
<!-- Node0x5a9b16b05450 -->
<g id="node50" class="node">
<title>Node0x5a9b16b05450</title>
<path fill="#f0f4ff" stroke="black" d="M121,-2356C121,-2356 33,-2356 33,-2356 27,-2356 21,-2350 21,-2344 21,-2344 21,-2332 21,-2332 21,-2326 27,-2320 33,-2320 33,-2320 121,-2320 121,-2320 127,-2320 133,-2326 133,-2332 133,-2332 133,-2344 133,-2344 133,-2350 127,-2356 121,-2356"/>
<text text-anchor="middle" x="77" y="-2335.8" font-family="Courier,monospace" font-size="9.00">CIccEmbedIO::Tell()</text>
</g>
<!-- Node0x5a9b16b043e0 -->
<g id="node51" class="node">
<title>Node0x5a9b16b043e0</title>
<path fill="#f0f4ff" stroke="black" d="M129,-906C129,-906 25,-906 25,-906 19,-906 13,-900 13,-894 13,-894 13,-882 13,-882 13,-876 19,-870 25,-870 25,-870 129,-870 129,-870 135,-870 141,-876 141,-882 141,-882 141,-894 141,-894 141,-900 135,-906 129,-906"/>
<text text-anchor="middle" x="77" y="-885.8" font-family="Courier,monospace" font-size="9.00">CIccMemIO::CIccMemIO()</text>
</g>
<!-- Node0x5a9b16b043e0&#45;&gt;Node0x5a9b16cd3480 -->
<g id="edge19" class="edge">
<title>Node0x5a9b16b043e0&#45;&gt;Node0x5a9b16cd3480</title>
<path fill="none" stroke="#4a6fa5" d="M141.2,-897.7C164.64,-901.29 190.99,-905.34 213.48,-908.79"/>
<polygon fill="#4a6fa5" stroke="#4a6fa5" points="213.17,-910.86 219.42,-909.7 213.81,-906.71 213.17,-910.86"/>
</g>
<!-- Node0x5a9b16b03620 -->
<g id="node52" class="node">
<title>Node0x5a9b16b03620</title>
<path fill="#f0f4ff" stroke="black" d="M131.5,-1196C131.5,-1196 22.5,-1196 22.5,-1196 16.5,-1196 10.5,-1190 10.5,-1184 10.5,-1184 10.5,-1172 10.5,-1172 10.5,-1166 16.5,-1160 22.5,-1160 22.5,-1160 131.5,-1160 131.5,-1160 137.5,-1160 143.5,-1166 143.5,-1172 143.5,-1172 143.5,-1184 143.5,-1184 143.5,-1190 137.5,-1196 131.5,-1196"/>
<text text-anchor="middle" x="77" y="-1175.8" font-family="Courier,monospace" font-size="9.00">CIccMemIO::~CIccMemIO()</text>
</g>
<!-- Node0x5a9b16b03620&#45;&gt;Node0x5a9b16cd2970 -->
<g id="edge20" class="edge">
<title>Node0x5a9b16b03620&#45;&gt;Node0x5a9b16cd2970</title>
<path fill="none" stroke="#4a6fa5" d="M143.57,-1178C165.41,-1178 189.52,-1178 210.6,-1178"/>
<polygon fill="#4a6fa5" stroke="#4a6fa5" points="210.74,-1180.1 216.74,-1178 210.74,-1175.9 210.74,-1180.1"/>
</g>
<!-- Node0x5a9b16ce9730 -->
<g id="node53" class="node">
<title>Node0x5a9b16ce9730</title>
<path fill="#f0f4ff" stroke="black" d="M131.5,-2414C131.5,-2414 22.5,-2414 22.5,-2414 16.5,-2414 10.5,-2408 10.5,-2402 10.5,-2402 10.5,-2390 10.5,-2390 10.5,-2384 16.5,-2378 22.5,-2378 22.5,-2378 131.5,-2378 131.5,-2378 137.5,-2378 143.5,-2384 143.5,-2390 143.5,-2390 143.5,-2402 143.5,-2402 143.5,-2408 137.5,-2414 131.5,-2414"/>
<text text-anchor="middle" x="77" y="-2393.8" font-family="Courier,monospace" font-size="9.00">CIccMemIO::~CIccMemIO()</text>
</g>
<!-- Node0x5a9b16b10eb0 -->
<g id="node54" class="node">
<title>Node0x5a9b16b10eb0</title>
<path fill="#f0f4ff" stroke="black" d="M118.5,-2472C118.5,-2472 35.5,-2472 35.5,-2472 29.5,-2472 23.5,-2466 23.5,-2460 23.5,-2460 23.5,-2448 23.5,-2448 23.5,-2442 29.5,-2436 35.5,-2436 35.5,-2436 118.5,-2436 118.5,-2436 124.5,-2436 130.5,-2442 130.5,-2448 130.5,-2448 130.5,-2460 130.5,-2460 130.5,-2466 124.5,-2472 118.5,-2472"/>
<text text-anchor="middle" x="77" y="-2451.8" font-family="Courier,monospace" font-size="9.00">CIccMemIO::Alloc()</text>
</g>
<!-- Node0x5a9b16b176a0 -->
<g id="node55" class="node">
<title>Node0x5a9b16b176a0</title>
<path fill="#f0f4ff" stroke="black" d="M312,-2472C312,-2472 224,-2472 224,-2472 218,-2472 212,-2466 212,-2460 212,-2460 212,-2448 212,-2448 212,-2442 218,-2436 224,-2436 224,-2436 312,-2436 312,-2436 318,-2436 324,-2442 324,-2448 324,-2448 324,-2460 324,-2460 324,-2466 318,-2472 312,-2472"/>
<text text-anchor="middle" x="268" y="-2451.8" font-family="Courier,monospace" font-size="9.00">CIccMemIO::Attach()</text>
</g>
<!-- Node0x5a9b16b10eb0&#45;&gt;Node0x5a9b16b176a0 -->
<g id="edge21" class="edge">
<title>Node0x5a9b16b10eb0&#45;&gt;Node0x5a9b16b176a0</title>
<path fill="none" stroke="#4a6fa5" d="M130.65,-2454C153.91,-2454 181.41,-2454 205.59,-2454"/>
<polygon fill="#4a6fa5" stroke="#4a6fa5" points="205.67,-2456.1 211.67,-2454 205.67,-2451.9 205.67,-2456.1"/>
</g>
<!-- Node0x5a9b16b29b90 -->
<g id="node56" class="node">
<title>Node0x5a9b16b29b90</title>
<path fill="#f0f4ff" stroke="black" d="M118.5,-2530C118.5,-2530 35.5,-2530 35.5,-2530 29.5,-2530 23.5,-2524 23.5,-2518 23.5,-2518 23.5,-2506 23.5,-2506 23.5,-2500 29.5,-2494 35.5,-2494 35.5,-2494 118.5,-2494 118.5,-2494 124.5,-2494 130.5,-2500 130.5,-2506 130.5,-2506 130.5,-2518 130.5,-2518 130.5,-2524 124.5,-2530 118.5,-2530"/>
<text text-anchor="middle" x="77" y="-2509.8" font-family="Courier,monospace" font-size="9.00">CIccMemIO::Read8()</text>
</g>
<!-- Node0x5a9b16b252a0 -->
<g id="node57" class="node">
<title>Node0x5a9b16b252a0</title>
<path fill="#f0f4ff" stroke="black" d="M121,-2588C121,-2588 33,-2588 33,-2588 27,-2588 21,-2582 21,-2576 21,-2576 21,-2564 21,-2564 21,-2558 27,-2552 33,-2552 33,-2552 121,-2552 121,-2552 127,-2552 133,-2558 133,-2564 133,-2564 133,-2576 133,-2576 133,-2582 127,-2588 121,-2588"/>
<text text-anchor="middle" x="77" y="-2567.8" font-family="Courier,monospace" font-size="9.00">CIccMemIO::Write8()</text>
</g>
<!-- Node0x5a9b16b23b40 -->
<g id="node58" class="node">
<title>Node0x5a9b16b23b40</title>
<path fill="#f0f4ff" stroke="black" d="M129,-2646C129,-2646 25,-2646 25,-2646 19,-2646 13,-2640 13,-2634 13,-2634 13,-2622 13,-2622 13,-2616 19,-2610 25,-2610 25,-2610 129,-2610 129,-2610 135,-2610 141,-2616 141,-2622 141,-2622 141,-2634 141,-2634 141,-2640 135,-2646 129,-2646"/>
<text text-anchor="middle" x="77" y="-2625.8" font-family="Courier,monospace" font-size="9.00">CIccMemIO::GetLength()</text>
</g>
<!-- Node0x5a9b16b2fd20 -->
<g id="node59" class="node">
<title>Node0x5a9b16b2fd20</title>
<path fill="#f0f4ff" stroke="black" d="M116,-2704C116,-2704 38,-2704 38,-2704 32,-2704 26,-2698 26,-2692 26,-2692 26,-2680 26,-2680 26,-2674 32,-2668 38,-2668 38,-2668 116,-2668 116,-2668 122,-2668 128,-2674 128,-2680 128,-2680 128,-2692 128,-2692 128,-2698 122,-2704 116,-2704"/>
<text text-anchor="middle" x="77" y="-2683.8" font-family="Courier,monospace" font-size="9.00">CIccMemIO::Seek()</text>
</g>
<!-- Node0x5a9b16b2d900 -->
<g id="node60" class="node">
<title>Node0x5a9b16b2d900</title>
<path fill="#f0f4ff" stroke="black" d="M116,-2762C116,-2762 38,-2762 38,-2762 32,-2762 26,-2756 26,-2750 26,-2750 26,-2738 26,-2738 26,-2732 32,-2726 38,-2726 38,-2726 116,-2726 116,-2726 122,-2726 128,-2732 128,-2738 128,-2738 128,-2750 128,-2750 128,-2756 122,-2762 116,-2762"/>
<text text-anchor="middle" x="77" y="-2741.8" font-family="Courier,monospace" font-size="9.00">CIccMemIO::Tell()</text>
</g>
<!-- Node0x5a9b16b2c5b0 -->
<g id="node61" class="node">
<title>Node0x5a9b16b2c5b0</title>
<path fill="#f0f4ff" stroke="black" d="M134.5,-848C134.5,-848 19.5,-848 19.5,-848 13.5,-848 7.5,-842 7.5,-836 7.5,-836 7.5,-824 7.5,-824 7.5,-818 13.5,-812 19.5,-812 19.5,-812 134.5,-812 134.5,-812 140.5,-812 146.5,-818 146.5,-824 146.5,-824 146.5,-836 146.5,-836 146.5,-842 140.5,-848 134.5,-848"/>
<text text-anchor="middle" x="77" y="-827.8" font-family="Courier,monospace" font-size="9.00">CIccNullIO::CIccNullIO()</text>
</g>
<!-- Node0x5a9b16b2c5b0&#45;&gt;Node0x5a9b16cd3480 -->
<g id="edge22" class="edge">
<title>Node0x5a9b16b2c5b0&#45;&gt;Node0x5a9b16cd3480</title>
<path fill="none" stroke="#4a6fa5" d="M127.79,-848.1C136.59,-851.55 145.62,-855.26 154,-859 179.25,-870.26 206.87,-884.4 228.49,-895.9"/>
<polygon fill="#4a6fa5" stroke="#4a6fa5" points="227.56,-897.79 233.85,-898.76 229.54,-894.09 227.56,-897.79"/>
</g>
<!-- Node0x5a9b16b2c3f0 -->
<g id="node62" class="node">
<title>Node0x5a9b16b2c3f0</title>
<path fill="#f0f4ff" stroke="black" d="M137,-1138C137,-1138 17,-1138 17,-1138 11,-1138 5,-1132 5,-1126 5,-1126 5,-1114 5,-1114 5,-1108 11,-1102 17,-1102 17,-1102 137,-1102 137,-1102 143,-1102 149,-1108 149,-1114 149,-1114 149,-1126 149,-1126 149,-1132 143,-1138 137,-1138"/>
<text text-anchor="middle" x="77" y="-1117.8" font-family="Courier,monospace" font-size="9.00">CIccNullIO::~CIccNullIO()</text>
</g>
<!-- Node0x5a9b16b2c3f0&#45;&gt;Node0x5a9b16cd2970 -->
<g id="edge23" class="edge">
<title>Node0x5a9b16b2c3f0&#45;&gt;Node0x5a9b16cd2970</title>
<path fill="none" stroke="#4a6fa5" d="M136.76,-1138.03C160.44,-1145.3 187.63,-1153.64 211.01,-1160.82"/>
<polygon fill="#4a6fa5" stroke="#4a6fa5" points="210.52,-1162.86 216.87,-1162.62 211.75,-1158.85 210.52,-1162.86"/>
</g>
<!-- Node0x5a9b16b2bb60 -->
<g id="node63" class="node">
<title>Node0x5a9b16b2bb60</title>
<path fill="#f0f4ff" stroke="black" d="M137,-2820C137,-2820 17,-2820 17,-2820 11,-2820 5,-2814 5,-2808 5,-2808 5,-2796 5,-2796 5,-2790 11,-2784 17,-2784 17,-2784 137,-2784 137,-2784 143,-2784 149,-2790 149,-2796 149,-2796 149,-2808 149,-2808 149,-2814 143,-2820 137,-2820"/>
<text text-anchor="middle" x="77" y="-2799.8" font-family="Courier,monospace" font-size="9.00">CIccNullIO::~CIccNullIO()</text>
</g>
<!-- Node0x5a9b16b34bd0 -->
<g id="node64" class="node">
<title>Node0x5a9b16b34bd0</title>
<path fill="#f0f4ff" stroke="black" d="M118.5,-2878C118.5,-2878 35.5,-2878 35.5,-2878 29.5,-2878 23.5,-2872 23.5,-2866 23.5,-2866 23.5,-2854 23.5,-2854 23.5,-2848 29.5,-2842 35.5,-2842 35.5,-2842 118.5,-2842 118.5,-2842 124.5,-2842 130.5,-2848 130.5,-2854 130.5,-2854 130.5,-2866 130.5,-2866 130.5,-2872 124.5,-2878 118.5,-2878"/>
<text text-anchor="middle" x="77" y="-2857.8" font-family="Courier,monospace" font-size="9.00">CIccNullIO::Open()</text>
</g>
<!-- Node0x5a9b16b403f0 -->
<g id="node65" class="node">
<title>Node0x5a9b16b403f0</title>
<path fill="#f0f4ff" stroke="black" d="M121,-2936C121,-2936 33,-2936 33,-2936 27,-2936 21,-2930 21,-2924 21,-2924 21,-2912 21,-2912 21,-2906 27,-2900 33,-2900 33,-2900 121,-2900 121,-2900 127,-2900 133,-2906 133,-2912 133,-2912 133,-2924 133,-2924 133,-2930 127,-2936 121,-2936"/>
<text text-anchor="middle" x="77" y="-2915.8" font-family="Courier,monospace" font-size="9.00">CIccNullIO::Close()</text>
</g>
<!-- Node0x5a9b16b3e080 -->
<g id="node66" class="node">
<title>Node0x5a9b16b3e080</title>
<path fill="#f0f4ff" stroke="black" d="M121,-2994C121,-2994 33,-2994 33,-2994 27,-2994 21,-2988 21,-2982 21,-2982 21,-2970 21,-2970 21,-2964 27,-2958 33,-2958 33,-2958 121,-2958 121,-2958 127,-2958 133,-2964 133,-2970 133,-2970 133,-2982 133,-2982 133,-2988 127,-2994 121,-2994"/>
<text text-anchor="middle" x="77" y="-2973.8" font-family="Courier,monospace" font-size="9.00">CIccNullIO::Read8()</text>
</g>
<!-- Node0x5a9b16b36160 -->
<g id="node67" class="node">
<title>Node0x5a9b16b36160</title>
<path fill="#f0f4ff" stroke="black" d="M124,-3052C124,-3052 30,-3052 30,-3052 24,-3052 18,-3046 18,-3040 18,-3040 18,-3028 18,-3028 18,-3022 24,-3016 30,-3016 30,-3016 124,-3016 124,-3016 130,-3016 136,-3022 136,-3028 136,-3028 136,-3040 136,-3040 136,-3046 130,-3052 124,-3052"/>
<text text-anchor="middle" x="77" y="-3031.8" font-family="Courier,monospace" font-size="9.00">CIccNullIO::Write8()</text>
</g>
<!-- Node0x5a9b16b41710 -->
<g id="node68" class="node">
<title>Node0x5a9b16b41710</title>
<path fill="#f0f4ff" stroke="black" d="M131.5,-3110C131.5,-3110 22.5,-3110 22.5,-3110 16.5,-3110 10.5,-3104 10.5,-3098 10.5,-3098 10.5,-3086 10.5,-3086 10.5,-3080 16.5,-3074 22.5,-3074 22.5,-3074 131.5,-3074 131.5,-3074 137.5,-3074 143.5,-3080 143.5,-3086 143.5,-3086 143.5,-3098 143.5,-3098 143.5,-3104 137.5,-3110 131.5,-3110"/>
<text text-anchor="middle" x="77" y="-3089.8" font-family="Courier,monospace" font-size="9.00">CIccNullIO::GetLength()</text>
</g>
<!-- Node0x5a9b16b52340 -->
<g id="node69" class="node">
<title>Node0x5a9b16b52340</title>
<path fill="#f0f4ff" stroke="black" d="M118.5,-3168C118.5,-3168 35.5,-3168 35.5,-3168 29.5,-3168 23.5,-3162 23.5,-3156 23.5,-3156 23.5,-3144 23.5,-3144 23.5,-3138 29.5,-3132 35.5,-3132 35.5,-3132 118.5,-3132 118.5,-3132 124.5,-3132 130.5,-3138 130.5,-3144 130.5,-3144 130.5,-3156 130.5,-3156 130.5,-3162 124.5,-3168 118.5,-3168"/>
<text text-anchor="middle" x="77" y="-3147.8" font-family="Courier,monospace" font-size="9.00">CIccNullIO::Seek()</text>
</g>
<!-- Node0x5a9b16b45240 -->
<g id="node70" class="node">
<title>Node0x5a9b16b45240</title>
<path fill="#f0f4ff" stroke="black" d="M118.5,-3226C118.5,-3226 35.5,-3226 35.5,-3226 29.5,-3226 23.5,-3220 23.5,-3214 23.5,-3214 23.5,-3202 23.5,-3202 23.5,-3196 29.5,-3190 35.5,-3190 35.5,-3190 118.5,-3190 118.5,-3190 124.5,-3190 130.5,-3196 130.5,-3202 130.5,-3202 130.5,-3214 130.5,-3214 130.5,-3220 124.5,-3226 118.5,-3226"/>
<text text-anchor="middle" x="77" y="-3205.8" font-family="Courier,monospace" font-size="9.00">CIccNullIO::Tell()</text>
</g>
<!-- Node0x5a9b16b42740 -->
<g id="node71" class="node">
<title>Node0x5a9b16b42740</title>
<path fill="#f0f4ff" stroke="black" d="M116,-1080C116,-1080 38,-1080 38,-1080 32,-1080 26,-1074 26,-1068 26,-1068 26,-1056 26,-1056 26,-1050 32,-1044 38,-1044 38,-1044 116,-1044 116,-1044 122,-1044 128,-1050 128,-1056 128,-1056 128,-1068 128,-1068 128,-1074 122,-1080 116,-1080"/>
<text text-anchor="middle" x="77" y="-1059.8" font-family="Courier,monospace" font-size="9.00">CIccIO::~CIccIO()</text>
</g>
<!-- Node0x5a9b16b42740&#45;&gt;Node0x5a9b16cd2970 -->
<g id="edge24" class="edge">
<title>Node0x5a9b16b42740&#45;&gt;Node0x5a9b16cd2970</title>
<path fill="none" stroke="#4a6fa5" d="M128.01,-1078.69C136.88,-1082.31 145.87,-1086.45 154,-1091 186.74,-1109.33 220.31,-1136.44 242.26,-1155.52"/>
<polygon fill="#4a6fa5" stroke="#4a6fa5" points="241.14,-1157.33 247.04,-1159.7 243.91,-1154.17 241.14,-1157.33"/>
</g>
<!-- Node0x5a9b16b41d60 -->
<g id="node72" class="node">
<title>Node0x5a9b16b41d60</title>
<path fill="#f0f4ff" stroke="black" d="M110.5,-3284C110.5,-3284 43.5,-3284 43.5,-3284 37.5,-3284 31.5,-3278 31.5,-3272 31.5,-3272 31.5,-3260 31.5,-3260 31.5,-3254 37.5,-3248 43.5,-3248 43.5,-3248 110.5,-3248 110.5,-3248 116.5,-3248 122.5,-3254 122.5,-3260 122.5,-3260 122.5,-3272 122.5,-3272 122.5,-3278 116.5,-3284 110.5,-3284"/>
<text text-anchor="middle" x="77" y="-3263.8" font-family="Courier,monospace" font-size="9.00">CIccIO::Close()</text>
</g>
<!-- Node0x5a9b16b6c9a0 -->
<g id="node73" class="node">
<title>Node0x5a9b16b6c9a0</title>
<path fill="#f0f4ff" stroke="black" d="M110.5,-3342C110.5,-3342 43.5,-3342 43.5,-3342 37.5,-3342 31.5,-3336 31.5,-3330 31.5,-3330 31.5,-3318 31.5,-3318 31.5,-3312 37.5,-3306 43.5,-3306 43.5,-3306 110.5,-3306 110.5,-3306 116.5,-3306 122.5,-3312 122.5,-3318 122.5,-3318 122.5,-3330 122.5,-3330 122.5,-3336 116.5,-3342 110.5,-3342"/>
<text text-anchor="middle" x="77" y="-3321.8" font-family="Courier,monospace" font-size="9.00">CIccIO::Read8()</text>
</g>
<!-- Node0x5a9b16b59ce0 -->
<g id="node74" class="node">
<title>Node0x5a9b16b59ce0</title>
<path fill="#f0f4ff" stroke="black" d="M113.5,-3400C113.5,-3400 40.5,-3400 40.5,-3400 34.5,-3400 28.5,-3394 28.5,-3388 28.5,-3388 28.5,-3376 28.5,-3376 28.5,-3370 34.5,-3364 40.5,-3364 40.5,-3364 113.5,-3364 113.5,-3364 119.5,-3364 125.5,-3370 125.5,-3376 125.5,-3376 125.5,-3388 125.5,-3388 125.5,-3394 119.5,-3400 113.5,-3400"/>
<text text-anchor="middle" x="77" y="-3379.8" font-family="Courier,monospace" font-size="9.00">CIccIO::Write8()</text>
</g>
<!-- Node0x5a9b16b59050 -->
<g id="node75" class="node">
<title>Node0x5a9b16b59050</title>
<path fill="#f0f4ff" stroke="black" d="M121,-3458C121,-3458 33,-3458 33,-3458 27,-3458 21,-3452 21,-3446 21,-3446 21,-3434 21,-3434 21,-3428 27,-3422 33,-3422 33,-3422 121,-3422 121,-3422 127,-3422 133,-3428 133,-3434 133,-3434 133,-3446 133,-3446 133,-3452 127,-3458 121,-3458"/>
<text text-anchor="middle" x="77" y="-3437.8" font-family="Courier,monospace" font-size="9.00">CIccIO::GetLength()</text>
</g>
<!-- Node0x5a9b16b1f480 -->
<g id="node76" class="node">
<title>Node0x5a9b16b1f480</title>
<path fill="#f0f4ff" stroke="black" d="M108,-3516C108,-3516 46,-3516 46,-3516 40,-3516 34,-3510 34,-3504 34,-3504 34,-3492 34,-3492 34,-3486 40,-3480 46,-3480 46,-3480 108,-3480 108,-3480 114,-3480 120,-3486 120,-3492 120,-3492 120,-3504 120,-3504 120,-3510 114,-3516 108,-3516"/>
<text text-anchor="middle" x="77" y="-3495.8" font-family="Courier,monospace" font-size="9.00">CIccIO::Seek()</text>
</g>
<!-- Node0x5a9b16bb4010 -->
<g id="node77" class="node">
<title>Node0x5a9b16bb4010</title>
<path fill="#f0f4ff" stroke="black" d="M108,-3574C108,-3574 46,-3574 46,-3574 40,-3574 34,-3568 34,-3562 34,-3562 34,-3550 34,-3550 34,-3544 40,-3538 46,-3538 46,-3538 108,-3538 108,-3538 114,-3538 120,-3544 120,-3550 120,-3550 120,-3562 120,-3562 120,-3568 114,-3574 108,-3574"/>
<text text-anchor="middle" x="77" y="-3553.8" font-family="Courier,monospace" font-size="9.00">CIccIO::Tell()</text>
</g>
</g>
</svg>
