<?xml version="1.0" encoding="UTF-8" standalone="no"?>
<!DOCTYPE svg PUBLIC "-//W3C//DTD SVG 1.1//EN"
 "http://www.w3.org/Graphics/SVG/1.1/DTD/svg11.dtd">
<!-- Generated by graphviz version 2.43.0 (0)
 -->
<!-- Title: Call graph: /home/h02332/po/research/call&#45;graph/iccdev/proflib/IccIO.ll Pages: 1 -->
<svg width="1044pt" height="14400pt"
 viewBox="0.00 0.00 1044.10 14400.00" xmlns="http://www.w3.org/2000/svg" xmlns:xlink="http://www.w3.org/1999/xlink">
<g id="graph0" class="graph" transform="scale(1.54 1.54) rotate(0) translate(36 9301)">
<title>Call graph: /home/h02332/po/research/call&#45;graph/iccdev/proflib/IccIO.ll</title>
<polygon fill="white" stroke="transparent" points="-36,36 -36,-9301 641,-9301 641,36 -36,36"/>
<!-- Node0x57550a5f3840 -->
<g id="node1" class="node">
<title>Node0x57550a5f3840</title>
<path fill="#f0f4ff" stroke="black" d="M131.5,-36C131.5,-36 35.5,-36 35.5,-36 29.5,-36 23.5,-30 23.5,-24 23.5,-24 23.5,-12 23.5,-12 23.5,-6 29.5,0 35.5,0 35.5,0 131.5,0 131.5,0 137.5,0 143.5,-6 143.5,-12 143.5,-12 143.5,-24 143.5,-24 143.5,-30 137.5,-36 131.5,-36"/>
<text text-anchor="middle" x="83.5" y="-15.8" font-family="Courier,monospace" font-size="9.00">{CIccIO::ReadLine()}</text>
</g>
<!-- Node0x57550a5f5670 -->
<g id="node2" class="node">
<title>Node0x57550a5f5670</title>
<path fill="#f0f4ff" stroke="black" d="M366,-2733C366,-2733 281,-2733 281,-2733 275,-2733 269,-2727 269,-2721 269,-2721 269,-2709 269,-2709 269,-2703 275,-2697 281,-2697 281,-2697 366,-2697 366,-2697 372,-2697 378,-2703 378,-2709 378,-2709 378,-2721 378,-2721 378,-2727 372,-2733 366,-2733"/>
<text text-anchor="middle" x="323.5" y="-2712.8" font-family="Courier,monospace" font-size="9.00">{CIccIO::Read16()}</text>
</g>
<!-- Node0x57550a5f6cb0 -->
<g id="node3" class="node">
<title>Node0x57550a5f6cb0</title>
<path fill="#f0f4ff" stroke="black" d="M582.5,-2733C582.5,-2733 502.5,-2733 502.5,-2733 496.5,-2733 490.5,-2727 490.5,-2721 490.5,-2721 490.5,-2709 490.5,-2709 490.5,-2703 496.5,-2697 502.5,-2697 502.5,-2697 582.5,-2697 582.5,-2697 588.5,-2697 594.5,-2703 594.5,-2709 594.5,-2709 594.5,-2721 594.5,-2721 594.5,-2727 588.5,-2733 582.5,-2733"/>
<text text-anchor="middle" x="542.5" y="-2712.8" font-family="Courier,monospace" font-size="9.00">{icSwab16Array()}</text>
</g>
<!-- Node0x57550a5f5670&#45;&gt;Node0x57550a5f6cb0 -->
<g id="edge1" class="edge">
<title>Node0x57550a5f5670&#45;&gt;Node0x57550a5f6cb0</title>
<path fill="none" stroke="#4a6fa5" d="M378.14,-2715C409.99,-2715 450.41,-2715 483.07,-2715"/>
<polygon fill="#4a6fa5" stroke="#4a6fa5" points="483.34,-2717.45 490.34,-2715 483.34,-2712.55 483.34,-2717.45"/>
</g>
<!-- Node0x57550a5f8270 -->
<g id="node4" class="node">
<title>Node0x57550a5f8270</title>
<path fill="#f0f4ff" stroke="black" d="M368.5,-2928C368.5,-2928 278.5,-2928 278.5,-2928 272.5,-2928 266.5,-2922 266.5,-2916 266.5,-2916 266.5,-2904 266.5,-2904 266.5,-2898 272.5,-2892 278.5,-2892 278.5,-2892 368.5,-2892 368.5,-2892 374.5,-2892 380.5,-2898 380.5,-2904 380.5,-2904 380.5,-2916 380.5,-2916 380.5,-2922 374.5,-2928 368.5,-2928"/>
<text text-anchor="middle" x="323.5" y="-2907.8" font-family="Courier,monospace" font-size="9.00">{CIccIO::Write16()}</text>
</g>
<!-- Node0x57550a5ef0a0 -->
<g id="node5" class="node">
<title>Node0x57550a5ef0a0</title>
<path fill="#f0f4ff" stroke="black" d="M577,-2928C577,-2928 508,-2928 508,-2928 502,-2928 496,-2922 496,-2916 496,-2916 496,-2904 496,-2904 496,-2898 502,-2892 508,-2892 508,-2892 577,-2892 577,-2892 583,-2892 589,-2898 589,-2904 589,-2904 589,-2916 589,-2916 589,-2922 583,-2928 577,-2928"/>
<text text-anchor="middle" x="542.5" y="-2907.8" font-family="Courier,monospace" font-size="9.00">{icSwab16Ptr()}</text>
</g>
<!-- Node0x57550a5f8270&#45;&gt;Node0x57550a5ef0a0 -->
<g id="edge2" class="edge">
<title>Node0x57550a5f8270&#45;&gt;Node0x57550a5ef0a0</title>
<path fill="none" stroke="#4a6fa5" d="M380.67,-2910C413.94,-2910 455.85,-2910 488.54,-2910"/>
<polygon fill="#4a6fa5" stroke="#4a6fa5" points="488.79,-2912.45 495.79,-2910 488.79,-2907.55 488.79,-2912.45"/>
</g>
<!-- Node0x57550a442ab0 -->
<g id="node6" class="node">
<title>Node0x57550a442ab0</title>
<path fill="#f0f4ff" stroke="black" d="M366,-3058C366,-3058 281,-3058 281,-3058 275,-3058 269,-3052 269,-3046 269,-3046 269,-3034 269,-3034 269,-3028 275,-3022 281,-3022 281,-3022 366,-3022 366,-3022 372,-3022 378,-3028 378,-3034 378,-3034 378,-3046 378,-3046 378,-3052 372,-3058 366,-3058"/>
<text text-anchor="middle" x="323.5" y="-3037.8" font-family="Courier,monospace" font-size="9.00">{CIccIO::Read32()}</text>
</g>
<!-- Node0x57550a522600 -->
<g id="node7" class="node">
<title>Node0x57550a522600</title>
<path fill="#f0f4ff" stroke="black" d="M582.5,-3058C582.5,-3058 502.5,-3058 502.5,-3058 496.5,-3058 490.5,-3052 490.5,-3046 490.5,-3046 490.5,-3034 490.5,-3034 490.5,-3028 496.5,-3022 502.5,-3022 502.5,-3022 582.5,-3022 582.5,-3022 588.5,-3022 594.5,-3028 594.5,-3034 594.5,-3034 594.5,-3046 594.5,-3046 594.5,-3052 588.5,-3058 582.5,-3058"/>
<text text-anchor="middle" x="542.5" y="-3037.8" font-family="Courier,monospace" font-size="9.00">{icSwab32Array()}</text>
</g>
<!-- Node0x57550a442ab0&#45;&gt;Node0x57550a522600 -->
<g id="edge3" class="edge">
<title>Node0x57550a442ab0&#45;&gt;Node0x57550a522600</title>
<path fill="none" stroke="#4a6fa5" d="M378.14,-3040C409.99,-3040 450.41,-3040 483.07,-3040"/>
<polygon fill="#4a6fa5" stroke="#4a6fa5" points="483.34,-3042.45 490.34,-3040 483.34,-3037.55 483.34,-3042.45"/>
</g>
<!-- Node0x57550a48f940 -->
<g id="node8" class="node">
<title>Node0x57550a48f940</title>
<path fill="#f0f4ff" stroke="black" d="M368.5,-3123C368.5,-3123 278.5,-3123 278.5,-3123 272.5,-3123 266.5,-3117 266.5,-3111 266.5,-3111 266.5,-3099 266.5,-3099 266.5,-3093 272.5,-3087 278.5,-3087 278.5,-3087 368.5,-3087 368.5,-3087 374.5,-3087 380.5,-3093 380.5,-3099 380.5,-3099 380.5,-3111 380.5,-3111 380.5,-3117 374.5,-3123 368.5,-3123"/>
<text text-anchor="middle" x="323.5" y="-3102.8" font-family="Courier,monospace" font-size="9.00">{CIccIO::Write32()}</text>
</g>
<!-- Node0x57550a5ef010 -->
<g id="node9" class="node">
<title>Node0x57550a5ef010</title>
<path fill="#f0f4ff" stroke="black" d="M577,-3123C577,-3123 508,-3123 508,-3123 502,-3123 496,-3117 496,-3111 496,-3111 496,-3099 496,-3099 496,-3093 502,-3087 508,-3087 508,-3087 577,-3087 577,-3087 583,-3087 589,-3093 589,-3099 589,-3099 589,-3111 589,-3111 589,-3117 583,-3123 577,-3123"/>
<text text-anchor="middle" x="542.5" y="-3102.8" font-family="Courier,monospace" font-size="9.00">{icSwab32Ptr()}</text>
</g>
<!-- Node0x57550a48f940&#45;&gt;Node0x57550a5ef010 -->
<g id="edge4" class="edge">
<title>Node0x57550a48f940&#45;&gt;Node0x57550a5ef010</title>
<path fill="none" stroke="#4a6fa5" d="M380.67,-3105C413.94,-3105 455.85,-3105 488.54,-3105"/>
<polygon fill="#4a6fa5" stroke="#4a6fa5" points="488.79,-3107.45 495.79,-3105 488.79,-3102.55 488.79,-3107.45"/>
</g>
<!-- Node0x57550a448da0 -->
<g id="node10" class="node">
<title>Node0x57550a448da0</title>
<path fill="#f0f4ff" stroke="black" d="M126,-3188C126,-3188 41,-3188 41,-3188 35,-3188 29,-3182 29,-3176 29,-3176 29,-3164 29,-3164 29,-3158 35,-3152 41,-3152 41,-3152 126,-3152 126,-3152 132,-3152 138,-3158 138,-3164 138,-3164 138,-3176 138,-3176 138,-3182 132,-3188 126,-3188"/>
<text text-anchor="middle" x="83.5" y="-3167.8" font-family="Courier,monospace" font-size="9.00">{CIccIO::Read64()}</text>
</g>
<!-- Node0x57550a61dd30 -->
<g id="node11" class="node">
<title>Node0x57550a61dd30</title>
<path fill="#f0f4ff" stroke="black" d="M363.5,-3188C363.5,-3188 283.5,-3188 283.5,-3188 277.5,-3188 271.5,-3182 271.5,-3176 271.5,-3176 271.5,-3164 271.5,-3164 271.5,-3158 277.5,-3152 283.5,-3152 283.5,-3152 363.5,-3152 363.5,-3152 369.5,-3152 375.5,-3158 375.5,-3164 375.5,-3164 375.5,-3176 375.5,-3176 375.5,-3182 369.5,-3188 363.5,-3188"/>
<text text-anchor="middle" x="323.5" y="-3167.8" font-family="Courier,monospace" font-size="9.00">{icSwab64Array()}</text>
</g>
<!-- Node0x57550a448da0&#45;&gt;Node0x57550a61dd30 -->
<g id="edge5" class="edge">
<title>Node0x57550a448da0&#45;&gt;Node0x57550a61dd30</title>
<path fill="none" stroke="#4a6fa5" d="M138.21,-3170C175.77,-3170 225.89,-3170 264.39,-3170"/>
<polygon fill="#4a6fa5" stroke="#4a6fa5" points="264.43,-3172.45 271.43,-3170 264.43,-3167.55 264.43,-3172.45"/>
</g>
<!-- Node0x57550a61da20 -->
<g id="node12" class="node">
<title>Node0x57550a61da20</title>
<path fill="#f0f4ff" stroke="black" d="M128.5,-4537C128.5,-4537 38.5,-4537 38.5,-4537 32.5,-4537 26.5,-4531 26.5,-4525 26.5,-4525 26.5,-4513 26.5,-4513 26.5,-4507 32.5,-4501 38.5,-4501 38.5,-4501 128.5,-4501 128.5,-4501 134.5,-4501 140.5,-4507 140.5,-4513 140.5,-4513 140.5,-4525 140.5,-4525 140.5,-4531 134.5,-4537 128.5,-4537"/>
<text text-anchor="middle" x="83.5" y="-4516.8" font-family="Courier,monospace" font-size="9.00">{CIccIO::Write64()}</text>
</g>
<!-- Node0x57550a616ae0 -->
<g id="node13" class="node">
<title>Node0x57550a616ae0</title>
<path fill="#f0f4ff" stroke="black" d="M358,-4537C358,-4537 289,-4537 289,-4537 283,-4537 277,-4531 277,-4525 277,-4525 277,-4513 277,-4513 277,-4507 283,-4501 289,-4501 289,-4501 358,-4501 358,-4501 364,-4501 370,-4507 370,-4513 370,-4513 370,-4525 370,-4525 370,-4531 364,-4537 358,-4537"/>
<text text-anchor="middle" x="323.5" y="-4516.8" font-family="Courier,monospace" font-size="9.00">{icSwab64Ptr()}</text>
</g>
<!-- Node0x57550a61da20&#45;&gt;Node0x57550a616ae0 -->
<g id="edge6" class="edge">
<title>Node0x57550a61da20&#45;&gt;Node0x57550a616ae0</title>
<path fill="none" stroke="#4a6fa5" d="M140.6,-4519C179.51,-4519 231.01,-4519 269.28,-4519"/>
<polygon fill="#4a6fa5" stroke="#4a6fa5" points="269.75,-4521.45 276.75,-4519 269.75,-4516.55 269.75,-4521.45"/>
</g>
<!-- Node0x57550a625270 -->
<g id="node14" class="node">
<title>Node0x57550a625270</title>
<path fill="#f0f4ff" stroke="black" d="M155,-3123C155,-3123 12,-3123 12,-3123 6,-3123 0,-3117 0,-3111 0,-3111 0,-3099 0,-3099 0,-3093 6,-3087 12,-3087 12,-3087 155,-3087 155,-3087 161,-3087 167,-3093 167,-3099 167,-3099 167,-3111 167,-3111 167,-3117 161,-3123 155,-3123"/>
<text text-anchor="middle" x="83.5" y="-3102.8" font-family="Courier,monospace" font-size="9.00">{CIccIO::WriteFloat32Float()}</text>
</g>
<!-- Node0x57550a625270&#45;&gt;Node0x57550a48f940 -->
<g id="edge7" class="edge">
<title>Node0x57550a625270&#45;&gt;Node0x57550a48f940</title>
<path fill="none" stroke="#4a6fa5" d="M167.07,-3105C197.27,-3105 230.94,-3105 259.19,-3105"/>
<polygon fill="#4a6fa5" stroke="#4a6fa5" points="259.25,-3107.45 266.25,-3105 259.25,-3102.55 259.25,-3107.45"/>
</g>
<!-- Node0x57550a5fed40 -->
<g id="node15" class="node">
<title>Node0x57550a5fed40</title>
<path fill="#f0f4ff" stroke="black" d="M147,-5244C147,-5244 20,-5244 20,-5244 14,-5244 8,-5238 8,-5232 8,-5232 8,-5220 8,-5220 8,-5214 14,-5208 20,-5208 20,-5208 147,-5208 147,-5208 153,-5208 159,-5214 159,-5220 159,-5220 159,-5232 159,-5232 159,-5238 153,-5244 147,-5244"/>
<text text-anchor="middle" x="83.5" y="-5223.8" font-family="Courier,monospace" font-size="9.00">{CIccIO::ReadUInt8Float()}</text>
</g>
<!-- Node0x57550a443ce0 -->
<g id="node16" class="node">
<title>Node0x57550a443ce0</title>
<path fill="#f0f4ff" stroke="black" d="M149.5,-2798C149.5,-2798 17.5,-2798 17.5,-2798 11.5,-2798 5.5,-2792 5.5,-2786 5.5,-2786 5.5,-2774 5.5,-2774 5.5,-2768 11.5,-2762 17.5,-2762 17.5,-2762 149.5,-2762 149.5,-2762 155.5,-2762 161.5,-2768 161.5,-2774 161.5,-2774 161.5,-2786 161.5,-2786 161.5,-2792 155.5,-2798 149.5,-2798"/>
<text text-anchor="middle" x="83.5" y="-2777.8" font-family="Courier,monospace" font-size="9.00">{CIccIO::WriteUInt8Float()}</text>
</g>
<!-- Node0x57550a620e80 -->
<g id="node17" class="node">
<title>Node0x57550a620e80</title>
<path fill="#f0f4ff" stroke="black" d="M355.5,-2863C355.5,-2863 291.5,-2863 291.5,-2863 285.5,-2863 279.5,-2857 279.5,-2851 279.5,-2851 279.5,-2839 279.5,-2839 279.5,-2833 285.5,-2827 291.5,-2827 291.5,-2827 355.5,-2827 355.5,-2827 361.5,-2827 367.5,-2833 367.5,-2839 367.5,-2839 367.5,-2851 367.5,-2851 367.5,-2857 361.5,-2863 355.5,-2863"/>
<text text-anchor="middle" x="323.5" y="-2842.8" font-family="Courier,monospace" font-size="9.00">{std::isnan()}</text>
</g>
<!-- Node0x57550a443ce0&#45;&gt;Node0x57550a620e80 -->
<g id="edge8" class="edge">
<title>Node0x57550a443ce0&#45;&gt;Node0x57550a620e80</title>
<path fill="none" stroke="#4a6fa5" d="M150.48,-2798.02C189.04,-2808.55 236.94,-2821.63 272.39,-2831.32"/>
<polygon fill="#4a6fa5" stroke="#4a6fa5" points="271.92,-2833.72 279.31,-2833.21 273.21,-2829 271.92,-2833.72"/>
</g>
<!-- Node0x57550a61f920 -->
<g id="node18" class="node">
<title>Node0x57550a61f920</title>
<path fill="#f0f4ff" stroke="black" d="M366,-2798C366,-2798 281,-2798 281,-2798 275,-2798 269,-2792 269,-2786 269,-2786 269,-2774 269,-2774 269,-2768 275,-2762 281,-2762 281,-2762 366,-2762 366,-2762 372,-2762 378,-2768 378,-2774 378,-2774 378,-2786 378,-2786 378,-2792 372,-2798 366,-2798"/>
<text text-anchor="middle" x="323.5" y="-2777.8" font-family="Courier,monospace" font-size="9.00">{llvm.fmuladd.f64}</text>
</g>
<!-- Node0x57550a443ce0&#45;&gt;Node0x57550a61f920 -->
<g id="edge9" class="edge">
<title>Node0x57550a443ce0&#45;&gt;Node0x57550a61f920</title>
<path fill="none" stroke="#4a6fa5" d="M161.77,-2780C194.19,-2780 231.34,-2780 261.75,-2780"/>
<polygon fill="#4a6fa5" stroke="#4a6fa5" points="261.93,-2782.45 268.93,-2780 261.93,-2777.55 261.93,-2782.45"/>
</g>
<!-- Node0x57550a61ed40 -->
<g id="node19" class="node">
<title>Node0x57550a61ed40</title>
<path fill="#f0f4ff" stroke="black" d="M593,-2863C593,-2863 492,-2863 492,-2863 486,-2863 480,-2857 480,-2851 480,-2851 480,-2839 480,-2839 480,-2833 486,-2827 492,-2827 492,-2827 593,-2827 593,-2827 599,-2827 605,-2833 605,-2839 605,-2839 605,-2851 605,-2851 605,-2857 599,-2863 593,-2863"/>
<text text-anchor="middle" x="542.5" y="-2842.8" font-family="Courier,monospace" font-size="9.00">{llvm.is.fpclass.f32}</text>
</g>
<!-- Node0x57550a620e80&#45;&gt;Node0x57550a61ed40 -->
<g id="edge10" class="edge">
<title>Node0x57550a620e80&#45;&gt;Node0x57550a61ed40</title>
<path fill="none" stroke="#4a6fa5" d="M367.63,-2845C397.63,-2845 438.27,-2845 472.71,-2845"/>
<polygon fill="#4a6fa5" stroke="#4a6fa5" points="472.96,-2847.45 479.96,-2845 472.96,-2842.55 472.96,-2847.45"/>
</g>
<!-- Node0x57550a61eaf0 -->
<g id="node20" class="node">
<title>Node0x57550a61eaf0</title>
<path fill="#f0f4ff" stroke="black" d="M149.5,-2733C149.5,-2733 17.5,-2733 17.5,-2733 11.5,-2733 5.5,-2727 5.5,-2721 5.5,-2721 5.5,-2709 5.5,-2709 5.5,-2703 11.5,-2697 17.5,-2697 17.5,-2697 149.5,-2697 149.5,-2697 155.5,-2697 161.5,-2703 161.5,-2709 161.5,-2709 161.5,-2721 161.5,-2721 161.5,-2727 155.5,-2733 149.5,-2733"/>
<text text-anchor="middle" x="83.5" y="-2712.8" font-family="Courier,monospace" font-size="9.00">{CIccIO::ReadUInt16Float()}</text>
</g>
<!-- Node0x57550a61eaf0&#45;&gt;Node0x57550a5f5670 -->
<g id="edge11" class="edge">
<title>Node0x57550a61eaf0&#45;&gt;Node0x57550a5f5670</title>
<path fill="none" stroke="#4a6fa5" d="M161.77,-2715C194.19,-2715 231.34,-2715 261.75,-2715"/>
<polygon fill="#4a6fa5" stroke="#4a6fa5" points="261.93,-2717.45 268.93,-2715 261.93,-2712.55 261.93,-2717.45"/>
</g>
<!-- Node0x57550a621680 -->
<g id="node21" class="node">
<title>Node0x57550a621680</title>
<path fill="#f0f4ff" stroke="black" d="M152.5,-2863C152.5,-2863 14.5,-2863 14.5,-2863 8.5,-2863 2.5,-2857 2.5,-2851 2.5,-2851 2.5,-2839 2.5,-2839 2.5,-2833 8.5,-2827 14.5,-2827 14.5,-2827 152.5,-2827 152.5,-2827 158.5,-2827 164.5,-2833 164.5,-2839 164.5,-2839 164.5,-2851 164.5,-2851 164.5,-2857 158.5,-2863 152.5,-2863"/>
<text text-anchor="middle" x="83.5" y="-2842.8" font-family="Courier,monospace" font-size="9.00">{CIccIO::WriteUInt16Float()}</text>
</g>
<!-- Node0x57550a621680&#45;&gt;Node0x57550a5f8270 -->
<g id="edge14" class="edge">
<title>Node0x57550a621680&#45;&gt;Node0x57550a5f8270</title>
<path fill="none" stroke="#4a6fa5" d="M150.48,-2863.02C184.51,-2872.31 225.82,-2883.6 259.43,-2892.77"/>
<polygon fill="#4a6fa5" stroke="#4a6fa5" points="259.08,-2895.22 266.48,-2894.7 260.37,-2890.49 259.08,-2895.22"/>
</g>
<!-- Node0x57550a621680&#45;&gt;Node0x57550a620e80 -->
<g id="edge12" class="edge">
<title>Node0x57550a621680&#45;&gt;Node0x57550a620e80</title>
<path fill="none" stroke="#4a6fa5" d="M164.74,-2845C200.23,-2845 240.87,-2845 272.01,-2845"/>
<polygon fill="#4a6fa5" stroke="#4a6fa5" points="272.31,-2847.45 279.31,-2845 272.31,-2842.55 272.31,-2847.45"/>
</g>
<!-- Node0x57550a621680&#45;&gt;Node0x57550a61f920 -->
<g id="edge13" class="edge">
<title>Node0x57550a621680&#45;&gt;Node0x57550a61f920</title>
<path fill="none" stroke="#4a6fa5" d="M150.48,-2826.98C185.29,-2817.47 227.7,-2805.89 261.7,-2796.61"/>
<polygon fill="#4a6fa5" stroke="#4a6fa5" points="262.71,-2798.87 268.82,-2794.66 261.42,-2794.14 262.71,-2798.87"/>
</g>
<!-- Node0x57550a622ff0 -->
<g id="node22" class="node">
<title>Node0x57550a622ff0</title>
<path fill="#f0f4ff" stroke="black" d="M152.5,-2668C152.5,-2668 14.5,-2668 14.5,-2668 8.5,-2668 2.5,-2662 2.5,-2656 2.5,-2656 2.5,-2644 2.5,-2644 2.5,-2638 8.5,-2632 14.5,-2632 14.5,-2632 152.5,-2632 152.5,-2632 158.5,-2632 164.5,-2638 164.5,-2644 164.5,-2644 164.5,-2656 164.5,-2656 164.5,-2662 158.5,-2668 152.5,-2668"/>
<text text-anchor="middle" x="83.5" y="-2647.8" font-family="Courier,monospace" font-size="9.00">{CIccIO::ReadFloat16Float()}</text>
</g>
<!-- Node0x57550a622ff0&#45;&gt;Node0x57550a5f5670 -->
<g id="edge15" class="edge">
<title>Node0x57550a622ff0&#45;&gt;Node0x57550a5f5670</title>
<path fill="none" stroke="#4a6fa5" d="M150.48,-2668.02C185.29,-2677.53 227.7,-2689.11 261.7,-2698.39"/>
<polygon fill="#4a6fa5" stroke="#4a6fa5" points="261.42,-2700.86 268.82,-2700.34 262.71,-2696.13 261.42,-2700.86"/>
</g>
<!-- Node0x57550a622ad0 -->
<g id="node23" class="node">
<title>Node0x57550a622ad0</title>
<path fill="#f0f4ff" stroke="black" d="M350.5,-2668C350.5,-2668 296.5,-2668 296.5,-2668 290.5,-2668 284.5,-2662 284.5,-2656 284.5,-2656 284.5,-2644 284.5,-2644 284.5,-2638 290.5,-2632 296.5,-2632 296.5,-2632 350.5,-2632 350.5,-2632 356.5,-2632 362.5,-2638 362.5,-2644 362.5,-2644 362.5,-2656 362.5,-2656 362.5,-2662 356.5,-2668 350.5,-2668"/>
<text text-anchor="middle" x="323.5" y="-2647.8" font-family="Courier,monospace" font-size="9.00">{icF16toF()}</text>
</g>
<!-- Node0x57550a622ff0&#45;&gt;Node0x57550a622ad0 -->
<g id="edge16" class="edge">
<title>Node0x57550a622ff0&#45;&gt;Node0x57550a622ad0</title>
<path fill="none" stroke="#4a6fa5" d="M164.74,-2650C202.1,-2650 245.17,-2650 276.86,-2650"/>
<polygon fill="#4a6fa5" stroke="#4a6fa5" points="277.26,-2652.45 284.26,-2650 277.26,-2647.55 277.26,-2652.45"/>
</g>
<!-- Node0x57550a61ca30 -->
<g id="node24" class="node">
<title>Node0x57550a61ca30</title>
<path fill="#f0f4ff" stroke="black" d="M155,-2961C155,-2961 12,-2961 12,-2961 6,-2961 0,-2955 0,-2949 0,-2949 0,-2937 0,-2937 0,-2931 6,-2925 12,-2925 12,-2925 155,-2925 155,-2925 161,-2925 167,-2931 167,-2937 167,-2937 167,-2949 167,-2949 167,-2955 161,-2961 155,-2961"/>
<text text-anchor="middle" x="83.5" y="-2940.8" font-family="Courier,monospace" font-size="9.00">{CIccIO::WriteFloat16Float()}</text>
</g>
<!-- Node0x57550a61ca30&#45;&gt;Node0x57550a5f8270 -->
<g id="edge18" class="edge">
<title>Node0x57550a61ca30&#45;&gt;Node0x57550a5f8270</title>
<path fill="none" stroke="#4a6fa5" d="M167.07,-2931.55C197.27,-2927.36 230.94,-2922.7 259.19,-2918.78"/>
<polygon fill="#4a6fa5" stroke="#4a6fa5" points="259.66,-2921.19 266.25,-2917.8 258.98,-2916.33 259.66,-2921.19"/>
</g>
<!-- Node0x57550a621710 -->
<g id="node25" class="node">
<title>Node0x57550a621710</title>
<path fill="#f0f4ff" stroke="black" d="M350.5,-2993C350.5,-2993 296.5,-2993 296.5,-2993 290.5,-2993 284.5,-2987 284.5,-2981 284.5,-2981 284.5,-2969 284.5,-2969 284.5,-2963 290.5,-2957 296.5,-2957 296.5,-2957 350.5,-2957 350.5,-2957 356.5,-2957 362.5,-2963 362.5,-2969 362.5,-2969 362.5,-2981 362.5,-2981 362.5,-2987 356.5,-2993 350.5,-2993"/>
<text text-anchor="middle" x="323.5" y="-2972.8" font-family="Courier,monospace" font-size="9.00">{icFtoF16()}</text>
</g>
<!-- Node0x57550a61ca30&#45;&gt;Node0x57550a621710 -->
<g id="edge17" class="edge">
<title>Node0x57550a61ca30&#45;&gt;Node0x57550a621710</title>
<path fill="none" stroke="#4a6fa5" d="M167.07,-2954.1C203.99,-2959.07 246.08,-2964.72 277.14,-2968.9"/>
<polygon fill="#4a6fa5" stroke="#4a6fa5" points="277.13,-2971.37 284.39,-2969.88 277.78,-2966.51 277.13,-2971.37"/>
</g>
<!-- Node0x57550a4696a0 -->
<g id="node26" class="node">
<title>Node0x57550a4696a0</title>
<path fill="#f0f4ff" stroke="black" d="M131.5,-5695C131.5,-5695 35.5,-5695 35.5,-5695 29.5,-5695 23.5,-5689 23.5,-5683 23.5,-5683 23.5,-5671 23.5,-5671 23.5,-5665 29.5,-5659 35.5,-5659 35.5,-5659 131.5,-5659 131.5,-5659 137.5,-5659 143.5,-5665 143.5,-5671 143.5,-5671 143.5,-5683 143.5,-5683 143.5,-5689 137.5,-5695 131.5,-5695"/>
<text text-anchor="middle" x="83.5" y="-5674.8" font-family="Courier,monospace" font-size="9.00">{CIccMemIO::Close()}</text>
</g>
<!-- Node0x57550a46ad60 -->
<g id="node27" class="node">
<title>Node0x57550a46ad60</title>
<path fill="#f0f4ff" stroke="black" d="M338.5,-5695C338.5,-5695 308.5,-5695 308.5,-5695 302.5,-5695 296.5,-5689 296.5,-5683 296.5,-5683 296.5,-5671 296.5,-5671 296.5,-5665 302.5,-5659 308.5,-5659 308.5,-5659 338.5,-5659 338.5,-5659 344.5,-5659 350.5,-5665 350.5,-5671 350.5,-5671 350.5,-5683 350.5,-5683 350.5,-5689 344.5,-5695 338.5,-5695"/>
<text text-anchor="middle" x="323.5" y="-5674.8" font-family="Courier,monospace" font-size="9.00">{free}</text>
</g>
<!-- Node0x57550a4696a0&#45;&gt;Node0x57550a46ad60 -->
<g id="edge19" class="edge">
<title>Node0x57550a4696a0&#45;&gt;Node0x57550a46ad60</title>
<path fill="none" stroke="#4a6fa5" d="M143.64,-5677C189.58,-5677 251.63,-5677 289.26,-5677"/>
<polygon fill="#4a6fa5" stroke="#4a6fa5" points="289.45,-5679.45 296.45,-5677 289.45,-5674.55 289.45,-5679.45"/>
</g>
<!-- Node0x57550a623270 -->
<g id="node28" class="node">
<title>Node0x57550a623270</title>
<path fill="#f0f4ff" stroke="black" d="M152.5,-3058C152.5,-3058 14.5,-3058 14.5,-3058 8.5,-3058 2.5,-3052 2.5,-3046 2.5,-3046 2.5,-3034 2.5,-3034 2.5,-3028 8.5,-3022 14.5,-3022 14.5,-3022 152.5,-3022 152.5,-3022 158.5,-3022 164.5,-3028 164.5,-3034 164.5,-3034 164.5,-3046 164.5,-3046 164.5,-3052 158.5,-3058 152.5,-3058"/>
<text text-anchor="middle" x="83.5" y="-3037.8" font-family="Courier,monospace" font-size="9.00">{CIccIO::ReadFloat32Float()}</text>
</g>
<!-- Node0x57550a623270&#45;&gt;Node0x57550a442ab0 -->
<g id="edge20" class="edge">
<title>Node0x57550a623270&#45;&gt;Node0x57550a442ab0</title>
<path fill="none" stroke="#4a6fa5" d="M164.74,-3040C196.34,-3040 232.04,-3040 261.47,-3040"/>
<polygon fill="#4a6fa5" stroke="#4a6fa5" points="261.81,-3042.45 268.81,-3040 261.81,-3037.55 261.81,-3042.45"/>
</g>
<!-- Node0x57550a624940 -->
<g id="node29" class="node">
<title>Node0x57550a624940</title>
<path fill="#f0f4ff" stroke="black" d="M128.5,-6310C128.5,-6310 38.5,-6310 38.5,-6310 32.5,-6310 26.5,-6304 26.5,-6298 26.5,-6298 26.5,-6286 26.5,-6286 26.5,-6280 32.5,-6274 38.5,-6274 38.5,-6274 128.5,-6274 128.5,-6274 134.5,-6274 140.5,-6280 140.5,-6286 140.5,-6286 140.5,-6298 140.5,-6298 140.5,-6304 134.5,-6310 128.5,-6310"/>
<text text-anchor="middle" x="83.5" y="-6289.8" font-family="Courier,monospace" font-size="9.00">{CIccIO::Align32()}</text>
</g>
<!-- Node0x57550a6246a0 -->
<g id="node30" class="node">
<title>Node0x57550a6246a0</title>
<path fill="#f0f4ff" stroke="black" d="M371.5,-6115C371.5,-6115 275.5,-6115 275.5,-6115 269.5,-6115 263.5,-6109 263.5,-6103 263.5,-6103 263.5,-6091 263.5,-6091 263.5,-6085 269.5,-6079 275.5,-6079 275.5,-6079 371.5,-6079 371.5,-6079 377.5,-6079 383.5,-6085 383.5,-6091 383.5,-6091 383.5,-6103 383.5,-6103 383.5,-6109 377.5,-6115 371.5,-6115"/>
<text text-anchor="middle" x="323.5" y="-6094.8" font-family="Courier,monospace" font-size="9.00">{llvm.memset.p0.i64}</text>
</g>
<!-- Node0x57550a624940&#45;&gt;Node0x57550a6246a0 -->
<g id="edge21" class="edge">
<title>Node0x57550a624940&#45;&gt;Node0x57550a6246a0</title>
<path fill="none" stroke="#4a6fa5" d="M140.75,-6274.03C149.87,-6270.05 158.95,-6265.38 167,-6260 225.7,-6220.74 278.95,-6155.78 305.24,-6120.9"/>
<polygon fill="#4a6fa5" stroke="#4a6fa5" points="307.3,-6122.23 309.53,-6115.16 303.37,-6119.3 307.3,-6122.23"/>
</g>
<!-- Node0x57550a6243f0 -->
<g id="node31" class="node">
<title>Node0x57550a6243f0</title>
<path fill="#f0f4ff" stroke="black" d="M126,-6455C126,-6455 41,-6455 41,-6455 35,-6455 29,-6449 29,-6443 29,-6443 29,-6431 29,-6431 29,-6425 35,-6419 41,-6419 41,-6419 126,-6419 126,-6419 132,-6419 138,-6425 138,-6431 138,-6431 138,-6443 138,-6443 138,-6449 132,-6455 126,-6455"/>
<text text-anchor="middle" x="83.5" y="-6434.8" font-family="Courier,monospace" font-size="9.00">{CIccIO::Sync32()}</text>
</g>
<!-- Node0x57550a6242a0 -->
<g id="node32" class="node">
<title>Node0x57550a6242a0</title>
<path fill="#f0f4ff" stroke="black" d="M147,-5920C147,-5920 20,-5920 20,-5920 14,-5920 8,-5914 8,-5908 8,-5908 8,-5896 8,-5896 8,-5890 14,-5884 20,-5884 20,-5884 147,-5884 147,-5884 153,-5884 159,-5890 159,-5896 159,-5896 159,-5908 159,-5908 159,-5914 153,-5920 147,-5920"/>
<text text-anchor="middle" x="83.5" y="-5899.8" font-family="Courier,monospace" font-size="9.00">{CIccFileIO::CIccFileIO()}</text>
</g>
<!-- Node0x57550a6242a0&#45;&gt;Node0x57550a6246a0 -->
<g id="edge22" class="edge">
<title>Node0x57550a6242a0&#45;&gt;Node0x57550a6246a0</title>
<path fill="none" stroke="#4a6fa5" d="M140.07,-5920.03C149.47,-5924.23 158.81,-5929.21 167,-5935 214.31,-5968.46 212.52,-5991.54 253,-6033 266.74,-6047.07 282.85,-6062 296.1,-6073.89"/>
<polygon fill="#4a6fa5" stroke="#4a6fa5" points="294.73,-6075.96 301.59,-6078.79 298,-6072.3 294.73,-6075.96"/>
</g>
<!-- Node0x57550a6052a0 -->
<g id="node33" class="node">
<title>Node0x57550a6052a0</title>
<path fill="#f0f4ff" stroke="black" d="M366,-6018C366,-6018 281,-6018 281,-6018 275,-6018 269,-6012 269,-6006 269,-6006 269,-5994 269,-5994 269,-5988 275,-5982 281,-5982 281,-5982 366,-5982 366,-5982 372,-5982 378,-5988 378,-5994 378,-5994 378,-6006 378,-6006 378,-6012 372,-6018 366,-6018"/>
<text text-anchor="middle" x="323.5" y="-5997.8" font-family="Courier,monospace" font-size="9.00">{CIccIO::CIccIO()}</text>
</g>
<!-- Node0x57550a6242a0&#45;&gt;Node0x57550a6052a0 -->
<g id="edge23" class="edge">
<title>Node0x57550a6242a0&#45;&gt;Node0x57550a6052a0</title>
<path fill="none" stroke="#4a6fa5" d="M129.94,-5920.03C142,-5924.86 155.01,-5930.09 167,-5935 202.5,-5949.52 242.42,-5966.21 272.92,-5979.05"/>
<polygon fill="#4a6fa5" stroke="#4a6fa5" points="272.27,-5981.43 279.67,-5981.89 274.17,-5976.91 272.27,-5981.43"/>
</g>
<!-- Node0x57550a607560 -->
<g id="node34" class="node">
<title>Node0x57550a607560</title>
<path fill="#f0f4ff" stroke="black" d="M149.5,-7015C149.5,-7015 17.5,-7015 17.5,-7015 11.5,-7015 5.5,-7009 5.5,-7003 5.5,-7003 5.5,-6991 5.5,-6991 5.5,-6985 11.5,-6979 17.5,-6979 17.5,-6979 149.5,-6979 149.5,-6979 155.5,-6979 161.5,-6985 161.5,-6991 161.5,-6991 161.5,-7003 161.5,-7003 161.5,-7009 155.5,-7015 149.5,-7015"/>
<text text-anchor="middle" x="83.5" y="-6994.8" font-family="Courier,monospace" font-size="9.00">{CIccFileIO::~CIccFileIO()}</text>
</g>
<!-- Node0x57550a607420 -->
<g id="node35" class="node">
<title>Node0x57550a607420</title>
<path fill="#f0f4ff" stroke="black" d="M368.5,-6950C368.5,-6950 278.5,-6950 278.5,-6950 272.5,-6950 266.5,-6944 266.5,-6938 266.5,-6938 266.5,-6926 266.5,-6926 266.5,-6920 272.5,-6914 278.5,-6914 278.5,-6914 368.5,-6914 368.5,-6914 374.5,-6914 380.5,-6920 380.5,-6926 380.5,-6926 380.5,-6938 380.5,-6938 380.5,-6944 374.5,-6950 368.5,-6950"/>
<text text-anchor="middle" x="323.5" y="-6929.8" font-family="Courier,monospace" font-size="9.00">{CIccIO::~CIccIO()}</text>
</g>
<!-- Node0x57550a607560&#45;&gt;Node0x57550a607420 -->
<g id="edge24" class="edge">
<title>Node0x57550a607560&#45;&gt;Node0x57550a607420</title>
<path fill="none" stroke="#4a6fa5" d="M150.48,-6978.98C184.51,-6969.69 225.82,-6958.4 259.43,-6949.23"/>
<polygon fill="#4a6fa5" stroke="#4a6fa5" points="260.37,-6951.51 266.48,-6947.3 259.08,-6946.78 260.37,-6951.51"/>
</g>
<!-- Node0x57550a6072e0 -->
<g id="node36" class="node">
<title>Node0x57550a6072e0</title>
<path fill="#f0f4ff" stroke="black" d="M382,-7015C382,-7015 265,-7015 265,-7015 259,-7015 253,-7009 253,-7003 253,-7003 253,-6991 253,-6991 253,-6985 259,-6979 265,-6979 265,-6979 382,-6979 382,-6979 388,-6979 394,-6985 394,-6991 394,-6991 394,-7003 394,-7003 394,-7009 388,-7015 382,-7015"/>
<text text-anchor="middle" x="323.5" y="-6994.8" font-family="Courier,monospace" font-size="9.00">{__clang_call_terminate}</text>
</g>
<!-- Node0x57550a607560&#45;&gt;Node0x57550a6072e0 -->
<g id="edge25" class="edge">
<title>Node0x57550a607560&#45;&gt;Node0x57550a6072e0</title>
<path fill="none" stroke="#4a6fa5" d="M161.77,-6997C188.68,-6997 218.86,-6997 245.73,-6997"/>
<polygon fill="#4a6fa5" stroke="#4a6fa5" points="245.85,-6999.45 252.85,-6997 245.85,-6994.55 245.85,-6999.45"/>
</g>
<!-- Node0x57550a62b810 -->
<g id="node38" class="node">
<title>Node0x57550a62b810</title>
<path fill="#f0f4ff" stroke="black" d="M587.5,-7047C587.5,-7047 497.5,-7047 497.5,-7047 491.5,-7047 485.5,-7041 485.5,-7035 485.5,-7035 485.5,-7023 485.5,-7023 485.5,-7017 491.5,-7011 497.5,-7011 497.5,-7011 587.5,-7011 587.5,-7011 593.5,-7011 599.5,-7017 599.5,-7023 599.5,-7023 599.5,-7035 599.5,-7035 599.5,-7041 593.5,-7047 587.5,-7047"/>
<text text-anchor="middle" x="542.5" y="-7026.8" font-family="Courier,monospace" font-size="9.00">{__cxa_begin_catch}</text>
</g>
<!-- Node0x57550a6072e0&#45;&gt;Node0x57550a62b810 -->
<g id="edge26" class="edge">
<title>Node0x57550a6072e0&#45;&gt;Node0x57550a62b810</title>
<path fill="none" stroke="#4a6fa5" d="M394.06,-7007.26C421.14,-7011.25 451.96,-7015.8 478.39,-7019.69"/>
<polygon fill="#4a6fa5" stroke="#4a6fa5" points="478.08,-7022.12 485.36,-7020.72 478.8,-7017.28 478.08,-7022.12"/>
</g>
<!-- Node0x57550a62b680 -->
<g id="node39" class="node">
<title>Node0x57550a62b680</title>
<path fill="#f0f4ff" stroke="black" d="M585,-6982C585,-6982 500,-6982 500,-6982 494,-6982 488,-6976 488,-6970 488,-6970 488,-6958 488,-6958 488,-6952 494,-6946 500,-6946 500,-6946 585,-6946 585,-6946 591,-6946 597,-6952 597,-6958 597,-6958 597,-6970 597,-6970 597,-6976 591,-6982 585,-6982"/>
<text text-anchor="middle" x="542.5" y="-6961.8" font-family="Courier,monospace" font-size="9.00">{std::terminate()}</text>
</g>
<!-- Node0x57550a6072e0&#45;&gt;Node0x57550a62b680 -->
<g id="edge27" class="edge">
<title>Node0x57550a6072e0&#45;&gt;Node0x57550a62b680</title>
<path fill="none" stroke="#4a6fa5" d="M394.06,-6986.42C421.94,-6982.18 453.77,-6977.34 480.71,-6973.24"/>
<polygon fill="#4a6fa5" stroke="#4a6fa5" points="481.26,-6975.64 487.81,-6972.17 480.52,-6970.8 481.26,-6975.64"/>
</g>
<!-- Node0x57550a606020 -->
<g id="node37" class="node">
<title>Node0x57550a606020</title>
<path fill="#f0f4ff" stroke="black" d="M136.5,-7165C136.5,-7165 30.5,-7165 30.5,-7165 24.5,-7165 18.5,-7159 18.5,-7153 18.5,-7153 18.5,-7141 18.5,-7141 18.5,-7135 24.5,-7129 30.5,-7129 30.5,-7129 136.5,-7129 136.5,-7129 142.5,-7129 148.5,-7135 148.5,-7141 148.5,-7141 148.5,-7153 148.5,-7153 148.5,-7159 142.5,-7165 136.5,-7165"/>
<text text-anchor="middle" x="83.5" y="-7144.8" font-family="Courier,monospace" font-size="9.00">{__gxx_personality_v0}</text>
</g>
<!-- Node0x57550a62a880 -->
<g id="node40" class="node">
<title>Node0x57550a62a880</title>
<path fill="#f0f4ff" stroke="black" d="M149.5,-6560C149.5,-6560 17.5,-6560 17.5,-6560 11.5,-6560 5.5,-6554 5.5,-6548 5.5,-6548 5.5,-6536 5.5,-6536 5.5,-6530 11.5,-6524 17.5,-6524 17.5,-6524 149.5,-6524 149.5,-6524 155.5,-6524 161.5,-6530 161.5,-6536 161.5,-6536 161.5,-6548 161.5,-6548 161.5,-6554 155.5,-6560 149.5,-6560"/>
<text text-anchor="middle" x="83.5" y="-6539.8" font-family="Courier,monospace" font-size="9.00">{CIccFileIO::~CIccFileIO()}</text>
</g>
<!-- Node0x57550a6299a0 -->
<g id="node41" class="node">
<title>Node0x57550a6299a0</title>
<path fill="#f0f4ff" stroke="black" d="M345,-6690C345,-6690 302,-6690 302,-6690 296,-6690 290,-6684 290,-6678 290,-6678 290,-6666 290,-6666 290,-6660 296,-6654 302,-6654 302,-6654 345,-6654 345,-6654 351,-6654 357,-6660 357,-6666 357,-6666 357,-6678 357,-6678 357,-6684 351,-6690 345,-6690"/>
<text text-anchor="middle" x="323.5" y="-6669.8" font-family="Courier,monospace" font-size="9.00">{delete()}</text>
</g>
<!-- Node0x57550a62a880&#45;&gt;Node0x57550a6299a0 -->
<g id="edge28" class="edge">
<title>Node0x57550a62a880&#45;&gt;Node0x57550a6299a0</title>
<path fill="none" stroke="#4a6fa5" d="M133.99,-6560.14C145.02,-6564.64 156.54,-6569.7 167,-6575 211.57,-6597.59 259.97,-6628.96 290.73,-6649.85"/>
<polygon fill="#4a6fa5" stroke="#4a6fa5" points="289.48,-6651.96 296.64,-6653.88 292.24,-6647.91 289.48,-6651.96"/>
</g>
<!-- Node0x57550a629eb0 -->
<g id="node42" class="node">
<title>Node0x57550a629eb0</title>
<path fill="#f0f4ff" stroke="black" d="M131.5,-7240C131.5,-7240 35.5,-7240 35.5,-7240 29.5,-7240 23.5,-7234 23.5,-7228 23.5,-7228 23.5,-7216 23.5,-7216 23.5,-7210 29.5,-7204 35.5,-7204 35.5,-7204 131.5,-7204 131.5,-7204 137.5,-7204 143.5,-7210 143.5,-7216 143.5,-7216 143.5,-7228 143.5,-7228 143.5,-7234 137.5,-7240 131.5,-7240"/>
<text text-anchor="middle" x="83.5" y="-7219.8" font-family="Courier,monospace" font-size="9.00">{CIccFileIO::Open()}</text>
</g>
<!-- Node0x57550a62dc20 -->
<g id="node43" class="node">
<title>Node0x57550a62dc20</title>
<path fill="#f0f4ff" stroke="black" d="M340,-7305C340,-7305 307,-7305 307,-7305 301,-7305 295,-7299 295,-7293 295,-7293 295,-7281 295,-7281 295,-7275 301,-7269 307,-7269 307,-7269 340,-7269 340,-7269 346,-7269 352,-7275 352,-7281 352,-7281 352,-7293 352,-7293 352,-7299 346,-7305 340,-7305"/>
<text text-anchor="middle" x="323.5" y="-7284.8" font-family="Courier,monospace" font-size="9.00">{fclose}</text>
</g>
<!-- Node0x57550a629eb0&#45;&gt;Node0x57550a62dc20 -->
<g id="edge29" class="edge">
<title>Node0x57550a629eb0&#45;&gt;Node0x57550a62dc20</title>
<path fill="none" stroke="#4a6fa5" d="M143.64,-7238.15C189.13,-7250.57 250.4,-7267.31 288.14,-7277.61"/>
<polygon fill="#4a6fa5" stroke="#4a6fa5" points="287.5,-7279.98 294.9,-7279.46 288.79,-7275.25 287.5,-7279.98"/>
</g>
<!-- Node0x57550a60bb60 -->
<g id="node44" class="node">
<title>Node0x57550a60bb60</title>
<path fill="#f0f4ff" stroke="black" d="M338.5,-7240C338.5,-7240 308.5,-7240 308.5,-7240 302.5,-7240 296.5,-7234 296.5,-7228 296.5,-7228 296.5,-7216 296.5,-7216 296.5,-7210 302.5,-7204 308.5,-7204 308.5,-7204 338.5,-7204 338.5,-7204 344.5,-7204 350.5,-7210 350.5,-7216 350.5,-7216 350.5,-7228 350.5,-7228 350.5,-7234 344.5,-7240 338.5,-7240"/>
<text text-anchor="middle" x="323.5" y="-7219.8" font-family="Courier,monospace" font-size="9.00">{fopen}</text>
</g>
<!-- Node0x57550a629eb0&#45;&gt;Node0x57550a60bb60 -->
<g id="edge30" class="edge">
<title>Node0x57550a629eb0&#45;&gt;Node0x57550a60bb60</title>
<path fill="none" stroke="#4a6fa5" d="M143.64,-7222C189.58,-7222 251.63,-7222 289.26,-7222"/>
<polygon fill="#4a6fa5" stroke="#4a6fa5" points="289.45,-7224.45 296.45,-7222 289.45,-7219.55 289.45,-7224.45"/>
</g>
<!-- Node0x57550a60c220 -->
<g id="node45" class="node">
<title>Node0x57550a60c220</title>
<path fill="#f0f4ff" stroke="black" d="M136.5,-7370C136.5,-7370 30.5,-7370 30.5,-7370 24.5,-7370 18.5,-7364 18.5,-7358 18.5,-7358 18.5,-7346 18.5,-7346 18.5,-7340 24.5,-7334 30.5,-7334 30.5,-7334 136.5,-7334 136.5,-7334 142.5,-7334 148.5,-7340 148.5,-7346 148.5,-7346 148.5,-7358 148.5,-7358 148.5,-7364 142.5,-7370 136.5,-7370"/>
<text text-anchor="middle" x="83.5" y="-7349.8" font-family="Courier,monospace" font-size="9.00">{CIccFileIO::Attach()}</text>
</g>
<!-- Node0x57550a60c220&#45;&gt;Node0x57550a62dc20 -->
<g id="edge31" class="edge">
<title>Node0x57550a60c220&#45;&gt;Node0x57550a62dc20</title>
<path fill="none" stroke="#4a6fa5" d="M148.59,-7334.5C193.38,-7322.26 251.46,-7306.4 287.86,-7296.46"/>
<polygon fill="#4a6fa5" stroke="#4a6fa5" points="288.74,-7298.76 294.84,-7294.55 287.44,-7294.03 288.74,-7298.76"/>
</g>
<!-- Node0x57550a60b660 -->
<g id="node46" class="node">
<title>Node0x57550a60b660</title>
<path fill="#f0f4ff" stroke="black" d="M136.5,-7440C136.5,-7440 30.5,-7440 30.5,-7440 24.5,-7440 18.5,-7434 18.5,-7428 18.5,-7428 18.5,-7416 18.5,-7416 18.5,-7410 24.5,-7404 30.5,-7404 30.5,-7404 136.5,-7404 136.5,-7404 142.5,-7404 148.5,-7410 148.5,-7416 148.5,-7416 148.5,-7428 148.5,-7428 148.5,-7434 142.5,-7440 136.5,-7440"/>
<text text-anchor="middle" x="83.5" y="-7419.8" font-family="Courier,monospace" font-size="9.00">{CIccFileIO::Detach()}</text>
</g>
<!-- Node0x57550a62e410 -->
<g id="node47" class="node">
<title>Node0x57550a62e410</title>
<path fill="#f0f4ff" stroke="black" d="M134,-7305C134,-7305 33,-7305 33,-7305 27,-7305 21,-7299 21,-7293 21,-7293 21,-7281 21,-7281 21,-7275 27,-7269 33,-7269 33,-7269 134,-7269 134,-7269 140,-7269 146,-7275 146,-7281 146,-7281 146,-7293 146,-7293 146,-7299 140,-7305 134,-7305"/>
<text text-anchor="middle" x="83.5" y="-7284.8" font-family="Courier,monospace" font-size="9.00">{CIccFileIO::Close()}</text>
</g>
<!-- Node0x57550a62e410&#45;&gt;Node0x57550a62dc20 -->
<g id="edge32" class="edge">
<title>Node0x57550a62e410&#45;&gt;Node0x57550a62dc20</title>
<path fill="none" stroke="#4a6fa5" d="M146.1,-7287C191.16,-7287 250.67,-7287 287.76,-7287"/>
<polygon fill="#4a6fa5" stroke="#4a6fa5" points="287.86,-7289.45 294.86,-7287 287.86,-7284.55 287.86,-7289.45"/>
</g>
<!-- Node0x57550a62faf0 -->
<g id="node48" class="node">
<title>Node0x57550a62faf0</title>
<path fill="#f0f4ff" stroke="black" d="M134,-7508C134,-7508 33,-7508 33,-7508 27,-7508 21,-7502 21,-7496 21,-7496 21,-7484 21,-7484 21,-7478 27,-7472 33,-7472 33,-7472 134,-7472 134,-7472 140,-7472 146,-7478 146,-7484 146,-7484 146,-7496 146,-7496 146,-7502 140,-7508 134,-7508"/>
<text text-anchor="middle" x="83.5" y="-7487.8" font-family="Courier,monospace" font-size="9.00">{CIccFileIO::Read8()}</text>
</g>
<!-- Node0x57550a62f8a0 -->
<g id="node49" class="node">
<title>Node0x57550a62f8a0</title>
<path fill="#f0f4ff" stroke="black" d="M338.5,-7508C338.5,-7508 308.5,-7508 308.5,-7508 302.5,-7508 296.5,-7502 296.5,-7496 296.5,-7496 296.5,-7484 296.5,-7484 296.5,-7478 302.5,-7472 308.5,-7472 308.5,-7472 338.5,-7472 338.5,-7472 344.5,-7472 350.5,-7478 350.5,-7484 350.5,-7484 350.5,-7496 350.5,-7496 350.5,-7502 344.5,-7508 338.5,-7508"/>
<text text-anchor="middle" x="323.5" y="-7487.8" font-family="Courier,monospace" font-size="9.00">{fread}</text>
</g>
<!-- Node0x57550a62faf0&#45;&gt;Node0x57550a62f8a0 -->
<g id="edge33" class="edge">
<title>Node0x57550a62faf0&#45;&gt;Node0x57550a62f8a0</title>
<path fill="none" stroke="#4a6fa5" d="M146.1,-7490C191.81,-7490 252.38,-7490 289.34,-7490"/>
<polygon fill="#4a6fa5" stroke="#4a6fa5" points="289.4,-7492.45 296.4,-7490 289.4,-7487.55 289.4,-7492.45"/>
</g>
<!-- Node0x57550a62f1e0 -->
<g id="node50" class="node">
<title>Node0x57550a62f1e0</title>
<path fill="#f0f4ff" stroke="black" d="M136.5,-7574C136.5,-7574 30.5,-7574 30.5,-7574 24.5,-7574 18.5,-7568 18.5,-7562 18.5,-7562 18.5,-7550 18.5,-7550 18.5,-7544 24.5,-7538 30.5,-7538 30.5,-7538 136.5,-7538 136.5,-7538 142.5,-7538 148.5,-7544 148.5,-7550 148.5,-7550 148.5,-7562 148.5,-7562 148.5,-7568 142.5,-7574 136.5,-7574"/>
<text text-anchor="middle" x="83.5" y="-7553.8" font-family="Courier,monospace" font-size="9.00">{CIccFileIO::Write8()}</text>
</g>
<!-- Node0x57550a60f6a0 -->
<g id="node51" class="node">
<title>Node0x57550a60f6a0</title>
<path fill="#f0f4ff" stroke="black" d="M340,-7574C340,-7574 307,-7574 307,-7574 301,-7574 295,-7568 295,-7562 295,-7562 295,-7550 295,-7550 295,-7544 301,-7538 307,-7538 307,-7538 340,-7538 340,-7538 346,-7538 352,-7544 352,-7550 352,-7550 352,-7562 352,-7562 352,-7568 346,-7574 340,-7574"/>
<text text-anchor="middle" x="323.5" y="-7553.8" font-family="Courier,monospace" font-size="9.00">{fwrite}</text>
</g>
<!-- Node0x57550a62f1e0&#45;&gt;Node0x57550a60f6a0 -->
<g id="edge34" class="edge">
<title>Node0x57550a62f1e0&#45;&gt;Node0x57550a60f6a0</title>
<path fill="none" stroke="#4a6fa5" d="M148.59,-7556C193.2,-7556 250.98,-7556 287.41,-7556"/>
<polygon fill="#4a6fa5" stroke="#4a6fa5" points="287.84,-7558.45 294.84,-7556 287.84,-7553.55 287.84,-7558.45"/>
</g>
<!-- Node0x57550a632d50 -->
<g id="node52" class="node">
<title>Node0x57550a632d50</title>
<path fill="#f0f4ff" stroke="black" d="M144.5,-7770C144.5,-7770 22.5,-7770 22.5,-7770 16.5,-7770 10.5,-7764 10.5,-7758 10.5,-7758 10.5,-7746 10.5,-7746 10.5,-7740 16.5,-7734 22.5,-7734 22.5,-7734 144.5,-7734 144.5,-7734 150.5,-7734 156.5,-7740 156.5,-7746 156.5,-7746 156.5,-7758 156.5,-7758 156.5,-7764 150.5,-7770 144.5,-7770"/>
<text text-anchor="middle" x="83.5" y="-7749.8" font-family="Courier,monospace" font-size="9.00">{CIccFileIO::GetLength()}</text>
</g>
<!-- Node0x57550a631490 -->
<g id="node53" class="node">
<title>Node0x57550a631490</title>
<path fill="#f0f4ff" stroke="black" d="M340,-7803C340,-7803 307,-7803 307,-7803 301,-7803 295,-7797 295,-7791 295,-7791 295,-7779 295,-7779 295,-7773 301,-7767 307,-7767 307,-7767 340,-7767 340,-7767 346,-7767 352,-7773 352,-7779 352,-7779 352,-7791 352,-7791 352,-7797 346,-7803 340,-7803"/>
<text text-anchor="middle" x="323.5" y="-7782.8" font-family="Courier,monospace" font-size="9.00">{fflush}</text>
</g>
<!-- Node0x57550a632d50&#45;&gt;Node0x57550a631490 -->
<g id="edge35" class="edge">
<title>Node0x57550a632d50&#45;&gt;Node0x57550a631490</title>
<path fill="none" stroke="#4a6fa5" d="M156.55,-7761.99C200.11,-7768.03 253.66,-7775.45 287.93,-7780.21"/>
<polygon fill="#4a6fa5" stroke="#4a6fa5" points="287.67,-7782.64 294.94,-7781.18 288.35,-7777.79 287.67,-7782.64"/>
</g>
<!-- Node0x57550a621e40 -->
<g id="node54" class="node">
<title>Node0x57550a621e40</title>
<path fill="#f0f4ff" stroke="black" d="M338.5,-7673C338.5,-7673 308.5,-7673 308.5,-7673 302.5,-7673 296.5,-7667 296.5,-7661 296.5,-7661 296.5,-7649 296.5,-7649 296.5,-7643 302.5,-7637 308.5,-7637 308.5,-7637 338.5,-7637 338.5,-7637 344.5,-7637 350.5,-7643 350.5,-7649 350.5,-7649 350.5,-7661 350.5,-7661 350.5,-7667 344.5,-7673 338.5,-7673"/>
<text text-anchor="middle" x="323.5" y="-7652.8" font-family="Courier,monospace" font-size="9.00">{ftell}</text>
</g>
<!-- Node0x57550a632d50&#45;&gt;Node0x57550a621e40 -->
<g id="edge36" class="edge">
<title>Node0x57550a632d50&#45;&gt;Node0x57550a621e40</title>
<path fill="none" stroke="#4a6fa5" d="M131.7,-7733.93C143.27,-7729.44 155.6,-7724.59 167,-7720 209.52,-7702.87 258.23,-7682.37 289.63,-7669.03"/>
<polygon fill="#4a6fa5" stroke="#4a6fa5" points="290.96,-7671.13 296.45,-7666.13 289.05,-7666.62 290.96,-7671.13"/>
</g>
<!-- Node0x57550a60f620 -->
<g id="node55" class="node">
<title>Node0x57550a60f620</title>
<path fill="#f0f4ff" stroke="black" d="M338.5,-7738C338.5,-7738 308.5,-7738 308.5,-7738 302.5,-7738 296.5,-7732 296.5,-7726 296.5,-7726 296.5,-7714 296.5,-7714 296.5,-7708 302.5,-7702 308.5,-7702 308.5,-7702 338.5,-7702 338.5,-7702 344.5,-7702 350.5,-7708 350.5,-7714 350.5,-7714 350.5,-7726 350.5,-7726 350.5,-7732 344.5,-7738 338.5,-7738"/>
<text text-anchor="middle" x="323.5" y="-7717.8" font-family="Courier,monospace" font-size="9.00">{fseek}</text>
</g>
<!-- Node0x57550a632d50&#45;&gt;Node0x57550a60f620 -->
<g id="edge37" class="edge">
<title>Node0x57550a632d50&#45;&gt;Node0x57550a60f620</title>
<path fill="none" stroke="#4a6fa5" d="M156.55,-7742.31C200.75,-7736.37 255.23,-7729.04 289.43,-7724.45"/>
<polygon fill="#4a6fa5" stroke="#4a6fa5" points="289.8,-7726.87 296.41,-7723.51 289.14,-7722.01 289.8,-7726.87"/>
</g>
<!-- Node0x57550a44a280 -->
<g id="node56" class="node">
<title>Node0x57550a44a280</title>
<path fill="#f0f4ff" stroke="black" d="M131.5,-7705C131.5,-7705 35.5,-7705 35.5,-7705 29.5,-7705 23.5,-7699 23.5,-7693 23.5,-7693 23.5,-7681 23.5,-7681 23.5,-7675 29.5,-7669 35.5,-7669 35.5,-7669 131.5,-7669 131.5,-7669 137.5,-7669 143.5,-7675 143.5,-7681 143.5,-7681 143.5,-7693 143.5,-7693 143.5,-7699 137.5,-7705 131.5,-7705"/>
<text text-anchor="middle" x="83.5" y="-7684.8" font-family="Courier,monospace" font-size="9.00">{CIccFileIO::Seek()}</text>
</g>
<!-- Node0x57550a44a280&#45;&gt;Node0x57550a621e40 -->
<g id="edge39" class="edge">
<title>Node0x57550a44a280&#45;&gt;Node0x57550a621e40</title>
<path fill="none" stroke="#4a6fa5" d="M143.64,-7679.05C189.58,-7672.87 251.63,-7664.53 289.26,-7659.47"/>
<polygon fill="#4a6fa5" stroke="#4a6fa5" points="289.84,-7661.86 296.45,-7658.5 289.19,-7657.01 289.84,-7661.86"/>
</g>
<!-- Node0x57550a44a280&#45;&gt;Node0x57550a60f620 -->
<g id="edge38" class="edge">
<title>Node0x57550a44a280&#45;&gt;Node0x57550a60f620</title>
<path fill="none" stroke="#4a6fa5" d="M143.64,-7695.2C189.58,-7701.57 251.63,-7710.17 289.26,-7715.39"/>
<polygon fill="#4a6fa5" stroke="#4a6fa5" points="289.18,-7717.85 296.45,-7716.39 289.86,-7713 289.18,-7717.85"/>
</g>
<!-- Node0x57550a5fbe70 -->
<g id="node57" class="node">
<title>Node0x57550a5fbe70</title>
<path fill="#f0f4ff" stroke="black" d="M131.5,-7640C131.5,-7640 35.5,-7640 35.5,-7640 29.5,-7640 23.5,-7634 23.5,-7628 23.5,-7628 23.5,-7616 23.5,-7616 23.5,-7610 29.5,-7604 35.5,-7604 35.5,-7604 131.5,-7604 131.5,-7604 137.5,-7604 143.5,-7610 143.5,-7616 143.5,-7616 143.5,-7628 143.5,-7628 143.5,-7634 137.5,-7640 131.5,-7640"/>
<text text-anchor="middle" x="83.5" y="-7619.8" font-family="Courier,monospace" font-size="9.00">{CIccFileIO::Tell()}</text>
</g>
<!-- Node0x57550a5fbe70&#45;&gt;Node0x57550a621e40 -->
<g id="edge40" class="edge">
<title>Node0x57550a5fbe70&#45;&gt;Node0x57550a621e40</title>
<path fill="none" stroke="#4a6fa5" d="M143.64,-7630.2C189.58,-7636.57 251.63,-7645.17 289.26,-7650.39"/>
<polygon fill="#4a6fa5" stroke="#4a6fa5" points="289.18,-7652.85 296.45,-7651.39 289.86,-7648 289.18,-7652.85"/>
</g>
<!-- Node0x57550a5fbba0 -->
<g id="node58" class="node">
<title>Node0x57550a5fbba0</title>
<path fill="#f0f4ff" stroke="black" d="M152.5,-6115C152.5,-6115 14.5,-6115 14.5,-6115 8.5,-6115 2.5,-6109 2.5,-6103 2.5,-6103 2.5,-6091 2.5,-6091 2.5,-6085 8.5,-6079 14.5,-6079 14.5,-6079 152.5,-6079 152.5,-6079 158.5,-6079 164.5,-6085 164.5,-6091 164.5,-6091 164.5,-6103 164.5,-6103 164.5,-6109 158.5,-6115 152.5,-6115"/>
<text text-anchor="middle" x="83.5" y="-6094.8" font-family="Courier,monospace" font-size="9.00">{CIccEmbedIO::CIccEmbedIO()}</text>
</g>
<!-- Node0x57550a5fbba0&#45;&gt;Node0x57550a6246a0 -->
<g id="edge41" class="edge">
<title>Node0x57550a5fbba0&#45;&gt;Node0x57550a6246a0</title>
<path fill="none" stroke="#4a6fa5" d="M164.74,-6097C194.48,-6097 227.83,-6097 256.19,-6097"/>
<polygon fill="#4a6fa5" stroke="#4a6fa5" points="256.29,-6099.45 263.29,-6097 256.29,-6094.55 256.29,-6099.45"/>
</g>
<!-- Node0x57550a5fbba0&#45;&gt;Node0x57550a6052a0 -->
<g id="edge42" class="edge">
<title>Node0x57550a5fbba0&#45;&gt;Node0x57550a6052a0</title>
<path fill="none" stroke="#4a6fa5" d="M131.7,-6078.93C143.27,-6074.44 155.6,-6069.59 167,-6065 202.7,-6050.62 242.77,-6033.85 273.3,-6020.95"/>
<polygon fill="#4a6fa5" stroke="#4a6fa5" points="274.56,-6023.08 280.05,-6018.09 272.65,-6018.56 274.56,-6023.08"/>
</g>
<!-- Node0x57550a5fba60 -->
<g id="node59" class="node">
<title>Node0x57550a5fba60</title>
<path fill="#f0f4ff" stroke="black" d="M155,-6950C155,-6950 12,-6950 12,-6950 6,-6950 0,-6944 0,-6938 0,-6938 0,-6926 0,-6926 0,-6920 6,-6914 12,-6914 12,-6914 155,-6914 155,-6914 161,-6914 167,-6920 167,-6926 167,-6926 167,-6938 167,-6938 167,-6944 161,-6950 155,-6950"/>
<text text-anchor="middle" x="83.5" y="-6929.8" font-family="Courier,monospace" font-size="9.00">{CIccEmbedIO::~CIccEmbedIO()}</text>
</g>
<!-- Node0x57550a5fba60&#45;&gt;Node0x57550a607420 -->
<g id="edge43" class="edge">
<title>Node0x57550a5fba60&#45;&gt;Node0x57550a607420</title>
<path fill="none" stroke="#4a6fa5" d="M167.07,-6932C197.27,-6932 230.94,-6932 259.19,-6932"/>
<polygon fill="#4a6fa5" stroke="#4a6fa5" points="259.25,-6934.45 266.25,-6932 259.25,-6929.55 259.25,-6934.45"/>
</g>
<!-- Node0x57550a5fba60&#45;&gt;Node0x57550a6072e0 -->
<g id="edge44" class="edge">
<title>Node0x57550a5fba60&#45;&gt;Node0x57550a6072e0</title>
<path fill="none" stroke="#4a6fa5" d="M150.48,-6950.02C181.18,-6958.4 217.79,-6968.4 249.33,-6977.02"/>
<polygon fill="#4a6fa5" stroke="#4a6fa5" points="248.99,-6979.46 256.39,-6978.95 250.28,-6974.74 248.99,-6979.46"/>
</g>
<!-- Node0x57550a5fb920 -->
<g id="node60" class="node">
<title>Node0x57550a5fb920</title>
<path fill="#f0f4ff" stroke="black" d="M155,-6755C155,-6755 12,-6755 12,-6755 6,-6755 0,-6749 0,-6743 0,-6743 0,-6731 0,-6731 0,-6725 6,-6719 12,-6719 12,-6719 155,-6719 155,-6719 161,-6719 167,-6725 167,-6731 167,-6731 167,-6743 167,-6743 167,-6749 161,-6755 155,-6755"/>
<text text-anchor="middle" x="83.5" y="-6734.8" font-family="Courier,monospace" font-size="9.00">{CIccEmbedIO::~CIccEmbedIO()}</text>
</g>
<!-- Node0x57550a5fb920&#45;&gt;Node0x57550a6299a0 -->
<g id="edge45" class="edge">
<title>Node0x57550a5fb920&#45;&gt;Node0x57550a6299a0</title>
<path fill="none" stroke="#4a6fa5" d="M150.48,-6718.98C193.04,-6707.36 246.97,-6692.63 283,-6682.79"/>
<polygon fill="#4a6fa5" stroke="#4a6fa5" points="283.85,-6685.1 289.95,-6680.89 282.56,-6680.37 283.85,-6685.1"/>
</g>
<!-- Node0x57550a5fb7e0 -->
<g id="node61" class="node">
<title>Node0x57550a5fb7e0</title>
<path fill="#f0f4ff" stroke="black" d="M139,-7835C139,-7835 28,-7835 28,-7835 22,-7835 16,-7829 16,-7823 16,-7823 16,-7811 16,-7811 16,-7805 22,-7799 28,-7799 28,-7799 139,-7799 139,-7799 145,-7799 151,-7805 151,-7811 151,-7811 151,-7823 151,-7823 151,-7829 145,-7835 139,-7835"/>
<text text-anchor="middle" x="83.5" y="-7814.8" font-family="Courier,monospace" font-size="9.00">{CIccEmbedIO::Attach()}</text>
</g>
<!-- Node0x57550a44e8c0 -->
<g id="node62" class="node">
<title>Node0x57550a44e8c0</title>
<path fill="#f0f4ff" stroke="black" d="M136.5,-7900C136.5,-7900 30.5,-7900 30.5,-7900 24.5,-7900 18.5,-7894 18.5,-7888 18.5,-7888 18.5,-7876 18.5,-7876 18.5,-7870 24.5,-7864 30.5,-7864 30.5,-7864 136.5,-7864 136.5,-7864 142.5,-7864 148.5,-7870 148.5,-7876 148.5,-7876 148.5,-7888 148.5,-7888 148.5,-7894 142.5,-7900 136.5,-7900"/>
<text text-anchor="middle" x="83.5" y="-7879.8" font-family="Courier,monospace" font-size="9.00">{CIccEmbedIO::Close()}</text>
</g>
<!-- Node0x57550a44e080 -->
<g id="node63" class="node">
<title>Node0x57550a44e080</title>
<path fill="#f0f4ff" stroke="black" d="M136.5,-7965C136.5,-7965 30.5,-7965 30.5,-7965 24.5,-7965 18.5,-7959 18.5,-7953 18.5,-7953 18.5,-7941 18.5,-7941 18.5,-7935 24.5,-7929 30.5,-7929 30.5,-7929 136.5,-7929 136.5,-7929 142.5,-7929 148.5,-7935 148.5,-7941 148.5,-7941 148.5,-7953 148.5,-7953 148.5,-7959 142.5,-7965 136.5,-7965"/>
<text text-anchor="middle" x="83.5" y="-7944.8" font-family="Courier,monospace" font-size="9.00">{CIccEmbedIO::Read8()}</text>
</g>
<!-- Node0x57550a63b6b0 -->
<g id="node64" class="node">
<title>Node0x57550a63b6b0</title>
<path fill="#f0f4ff" stroke="black" d="M139,-8030C139,-8030 28,-8030 28,-8030 22,-8030 16,-8024 16,-8018 16,-8018 16,-8006 16,-8006 16,-8000 22,-7994 28,-7994 28,-7994 139,-7994 139,-7994 145,-7994 151,-8000 151,-8006 151,-8006 151,-8018 151,-8018 151,-8024 145,-8030 139,-8030"/>
<text text-anchor="middle" x="83.5" y="-8009.8" font-family="Courier,monospace" font-size="9.00">{CIccEmbedIO::Write8()}</text>
</g>
<!-- Node0x57550a63bd70 -->
<g id="node65" class="node">
<title>Node0x57550a63bd70</title>
<path fill="#f0f4ff" stroke="black" d="M147,-8095C147,-8095 20,-8095 20,-8095 14,-8095 8,-8089 8,-8083 8,-8083 8,-8071 8,-8071 8,-8065 14,-8059 20,-8059 20,-8059 147,-8059 147,-8059 153,-8059 159,-8065 159,-8071 159,-8071 159,-8083 159,-8083 159,-8089 153,-8095 147,-8095"/>
<text text-anchor="middle" x="83.5" y="-8074.8" font-family="Courier,monospace" font-size="9.00">{CIccEmbedIO::GetLength()}</text>
</g>
<!-- Node0x57550a63b870 -->
<g id="node66" class="node">
<title>Node0x57550a63b870</title>
<path fill="#f0f4ff" stroke="black" d="M134,-8160C134,-8160 33,-8160 33,-8160 27,-8160 21,-8154 21,-8148 21,-8148 21,-8136 21,-8136 21,-8130 27,-8124 33,-8124 33,-8124 134,-8124 134,-8124 140,-8124 146,-8130 146,-8136 146,-8136 146,-8148 146,-8148 146,-8154 140,-8160 134,-8160"/>
<text text-anchor="middle" x="83.5" y="-8139.8" font-family="Courier,monospace" font-size="9.00">{CIccEmbedIO::Seek()}</text>
</g>
<!-- Node0x57550a455620 -->
<g id="node67" class="node">
<title>Node0x57550a455620</title>
<path fill="#f0f4ff" stroke="black" d="M134,-8225C134,-8225 33,-8225 33,-8225 27,-8225 21,-8219 21,-8213 21,-8213 21,-8201 21,-8201 21,-8195 27,-8189 33,-8189 33,-8189 134,-8189 134,-8189 140,-8189 146,-8195 146,-8201 146,-8201 146,-8213 146,-8213 146,-8219 140,-8225 134,-8225"/>
<text text-anchor="middle" x="83.5" y="-8204.8" font-family="Courier,monospace" font-size="9.00">{CIccEmbedIO::Tell()}</text>
</g>
<!-- Node0x57550a4597c0 -->
<g id="node68" class="node">
<title>Node0x57550a4597c0</title>
<path fill="#f0f4ff" stroke="black" d="M142,-6050C142,-6050 25,-6050 25,-6050 19,-6050 13,-6044 13,-6038 13,-6038 13,-6026 13,-6026 13,-6020 19,-6014 25,-6014 25,-6014 142,-6014 142,-6014 148,-6014 154,-6020 154,-6026 154,-6026 154,-6038 154,-6038 154,-6044 148,-6050 142,-6050"/>
<text text-anchor="middle" x="83.5" y="-6029.8" font-family="Courier,monospace" font-size="9.00">{CIccMemIO::CIccMemIO()}</text>
</g>
<!-- Node0x57550a4597c0&#45;&gt;Node0x57550a6246a0 -->
<g id="edge46" class="edge">
<title>Node0x57550a4597c0&#45;&gt;Node0x57550a6246a0</title>
<path fill="none" stroke="#4a6fa5" d="M150.48,-6050.02C183.49,-6059.03 223.34,-6069.92 256.36,-6078.94"/>
<polygon fill="#4a6fa5" stroke="#4a6fa5" points="255.91,-6081.35 263.3,-6080.83 257.2,-6076.63 255.91,-6081.35"/>
</g>
<!-- Node0x57550a4597c0&#45;&gt;Node0x57550a6052a0 -->
<g id="edge47" class="edge">
<title>Node0x57550a4597c0&#45;&gt;Node0x57550a6052a0</title>
<path fill="none" stroke="#4a6fa5" d="M154.3,-6022.62C188.35,-6018.04 228.92,-6012.58 261.68,-6008.18"/>
<polygon fill="#4a6fa5" stroke="#4a6fa5" points="262.36,-6010.56 268.97,-6007.2 261.71,-6005.7 262.36,-6010.56"/>
</g>
<!-- Node0x57550a458f30 -->
<g id="node69" class="node">
<title>Node0x57550a458f30</title>
<path fill="#f0f4ff" stroke="black" d="M144.5,-6885C144.5,-6885 22.5,-6885 22.5,-6885 16.5,-6885 10.5,-6879 10.5,-6873 10.5,-6873 10.5,-6861 10.5,-6861 10.5,-6855 16.5,-6849 22.5,-6849 22.5,-6849 144.5,-6849 144.5,-6849 150.5,-6849 156.5,-6855 156.5,-6861 156.5,-6861 156.5,-6873 156.5,-6873 156.5,-6879 150.5,-6885 144.5,-6885"/>
<text text-anchor="middle" x="83.5" y="-6864.8" font-family="Courier,monospace" font-size="9.00">{CIccMemIO::~CIccMemIO()}</text>
</g>
<!-- Node0x57550a458f30&#45;&gt;Node0x57550a607420 -->
<g id="edge48" class="edge">
<title>Node0x57550a458f30&#45;&gt;Node0x57550a607420</title>
<path fill="none" stroke="#4a6fa5" d="M150.48,-6885.02C184.51,-6894.31 225.82,-6905.6 259.43,-6914.77"/>
<polygon fill="#4a6fa5" stroke="#4a6fa5" points="259.08,-6917.22 266.48,-6916.7 260.37,-6912.49 259.08,-6917.22"/>
</g>
<!-- Node0x57550a458f30&#45;&gt;Node0x57550a6072e0 -->
<g id="edge49" class="edge">
<title>Node0x57550a458f30&#45;&gt;Node0x57550a6072e0</title>
<path fill="none" stroke="#4a6fa5" d="M136.1,-6885.18C146.57,-6889.54 157.33,-6894.54 167,-6900 208.72,-6923.55 211.89,-6940.39 253,-6965 259.37,-6968.81 266.27,-6972.49 273.17,-6975.9"/>
<polygon fill="#4a6fa5" stroke="#4a6fa5" points="272.12,-6978.11 279.49,-6978.96 274.25,-6973.7 272.12,-6978.11"/>
</g>
<!-- Node0x57550a451e00 -->
<g id="node70" class="node">
<title>Node0x57550a451e00</title>
<path fill="#f0f4ff" stroke="black" d="M144.5,-6690C144.5,-6690 22.5,-6690 22.5,-6690 16.5,-6690 10.5,-6684 10.5,-6678 10.5,-6678 10.5,-6666 10.5,-6666 10.5,-6660 16.5,-6654 22.5,-6654 22.5,-6654 144.5,-6654 144.5,-6654 150.5,-6654 156.5,-6660 156.5,-6666 156.5,-6666 156.5,-6678 156.5,-6678 156.5,-6684 150.5,-6690 144.5,-6690"/>
<text text-anchor="middle" x="83.5" y="-6669.8" font-family="Courier,monospace" font-size="9.00">{CIccMemIO::~CIccMemIO()}</text>
</g>
<!-- Node0x57550a451e00&#45;&gt;Node0x57550a6299a0 -->
<g id="edge50" class="edge">
<title>Node0x57550a451e00&#45;&gt;Node0x57550a6299a0</title>
<path fill="none" stroke="#4a6fa5" d="M156.55,-6672C197.94,-6672 248.34,-6672 282.67,-6672"/>
<polygon fill="#4a6fa5" stroke="#4a6fa5" points="282.74,-6674.45 289.74,-6672 282.74,-6669.55 282.74,-6674.45"/>
</g>
<!-- Node0x57550a457450 -->
<g id="node71" class="node">
<title>Node0x57550a457450</title>
<path fill="#f0f4ff" stroke="black" d="M131.5,-5630C131.5,-5630 35.5,-5630 35.5,-5630 29.5,-5630 23.5,-5624 23.5,-5618 23.5,-5618 23.5,-5606 23.5,-5606 23.5,-5600 29.5,-5594 35.5,-5594 35.5,-5594 131.5,-5594 131.5,-5594 137.5,-5594 143.5,-5600 143.5,-5606 143.5,-5606 143.5,-5618 143.5,-5618 143.5,-5624 137.5,-5630 131.5,-5630"/>
<text text-anchor="middle" x="83.5" y="-5609.8" font-family="Courier,monospace" font-size="9.00">{CIccMemIO::Alloc()}</text>
</g>
<!-- Node0x57550a457450&#45;&gt;Node0x57550a46ad60 -->
<g id="edge53" class="edge">
<title>Node0x57550a457450&#45;&gt;Node0x57550a46ad60</title>
<path fill="none" stroke="#4a6fa5" d="M143.64,-5628.15C189.58,-5640.7 251.63,-5657.65 289.26,-5667.92"/>
<polygon fill="#4a6fa5" stroke="#4a6fa5" points="289.06,-5670.41 296.45,-5669.89 290.35,-5665.68 289.06,-5670.41"/>
</g>
<!-- Node0x57550a456be0 -->
<g id="node72" class="node">
<title>Node0x57550a456be0</title>
<path fill="#f0f4ff" stroke="black" d="M340,-5630C340,-5630 307,-5630 307,-5630 301,-5630 295,-5624 295,-5618 295,-5618 295,-5606 295,-5606 295,-5600 301,-5594 307,-5594 307,-5594 340,-5594 340,-5594 346,-5594 352,-5600 352,-5606 352,-5606 352,-5618 352,-5618 352,-5624 346,-5630 340,-5630"/>
<text text-anchor="middle" x="323.5" y="-5609.8" font-family="Courier,monospace" font-size="9.00">{malloc}</text>
</g>
<!-- Node0x57550a457450&#45;&gt;Node0x57550a456be0 -->
<g id="edge51" class="edge">
<title>Node0x57550a457450&#45;&gt;Node0x57550a456be0</title>
<path fill="none" stroke="#4a6fa5" d="M143.64,-5612C188.94,-5612 249.89,-5612 287.66,-5612"/>
<polygon fill="#4a6fa5" stroke="#4a6fa5" points="287.9,-5614.45 294.9,-5612 287.9,-5609.55 287.9,-5614.45"/>
</g>
<!-- Node0x57550a463820 -->
<g id="node73" class="node">
<title>Node0x57550a463820</title>
<path fill="#f0f4ff" stroke="black" d="M374,-5565C374,-5565 273,-5565 273,-5565 267,-5565 261,-5559 261,-5553 261,-5553 261,-5541 261,-5541 261,-5535 267,-5529 273,-5529 273,-5529 374,-5529 374,-5529 380,-5529 386,-5535 386,-5541 386,-5541 386,-5553 386,-5553 386,-5559 380,-5565 374,-5565"/>
<text text-anchor="middle" x="323.5" y="-5544.8" font-family="Courier,monospace" font-size="9.00">{CIccMemIO::Attach()}</text>
</g>
<!-- Node0x57550a457450&#45;&gt;Node0x57550a463820 -->
<g id="edge52" class="edge">
<title>Node0x57550a457450&#45;&gt;Node0x57550a463820</title>
<path fill="none" stroke="#4a6fa5" d="M143.64,-5595.85C177.07,-5586.72 219.01,-5575.26 253.88,-5565.74"/>
<polygon fill="#4a6fa5" stroke="#4a6fa5" points="254.65,-5568.07 260.76,-5563.86 253.36,-5563.34 254.65,-5568.07"/>
</g>
<!-- Node0x57550a465ba0 -->
<g id="node74" class="node">
<title>Node0x57550a465ba0</title>
<path fill="#f0f4ff" stroke="black" d="M131.5,-8355C131.5,-8355 35.5,-8355 35.5,-8355 29.5,-8355 23.5,-8349 23.5,-8343 23.5,-8343 23.5,-8331 23.5,-8331 23.5,-8325 29.5,-8319 35.5,-8319 35.5,-8319 131.5,-8319 131.5,-8319 137.5,-8319 143.5,-8325 143.5,-8331 143.5,-8331 143.5,-8343 143.5,-8343 143.5,-8349 137.5,-8355 131.5,-8355"/>
<text text-anchor="middle" x="83.5" y="-8334.8" font-family="Courier,monospace" font-size="9.00">{CIccMemIO::Read8()}</text>
</g>
<!-- Node0x57550a475b40 -->
<g id="node75" class="node">
<title>Node0x57550a475b40</title>
<path fill="#f0f4ff" stroke="black" d="M379,-8322C379,-8322 268,-8322 268,-8322 262,-8322 256,-8316 256,-8310 256,-8310 256,-8298 256,-8298 256,-8292 262,-8286 268,-8286 268,-8286 379,-8286 379,-8286 385,-8286 391,-8292 391,-8298 391,-8298 391,-8310 391,-8310 391,-8316 385,-8322 379,-8322"/>
<text text-anchor="middle" x="323.5" y="-8301.8" font-family="Courier,monospace" font-size="9.00">{llvm.memcpy.p0.p0.i64}</text>
</g>
<!-- Node0x57550a465ba0&#45;&gt;Node0x57550a475b40 -->
<g id="edge54" class="edge">
<title>Node0x57550a465ba0&#45;&gt;Node0x57550a475b40</title>
<path fill="none" stroke="#4a6fa5" d="M143.64,-8328.8C175.38,-8324.4 214.82,-8318.93 248.57,-8314.25"/>
<polygon fill="#4a6fa5" stroke="#4a6fa5" points="249.09,-8316.65 255.68,-8313.26 248.41,-8311.8 249.09,-8316.65"/>
</g>
<!-- Node0x57550a47c4a0 -->
<g id="node76" class="node">
<title>Node0x57550a47c4a0</title>
<path fill="#f0f4ff" stroke="black" d="M134,-8290C134,-8290 33,-8290 33,-8290 27,-8290 21,-8284 21,-8278 21,-8278 21,-8266 21,-8266 21,-8260 27,-8254 33,-8254 33,-8254 134,-8254 134,-8254 140,-8254 146,-8260 146,-8266 146,-8266 146,-8278 146,-8278 146,-8284 140,-8290 134,-8290"/>
<text text-anchor="middle" x="83.5" y="-8269.8" font-family="Courier,monospace" font-size="9.00">{CIccMemIO::Write8()}</text>
</g>
<!-- Node0x57550a47c4a0&#45;&gt;Node0x57550a475b40 -->
<g id="edge55" class="edge">
<title>Node0x57550a47c4a0&#45;&gt;Node0x57550a475b40</title>
<path fill="none" stroke="#4a6fa5" d="M146.1,-8280.28C177.48,-8284.5 215.85,-8289.66 248.79,-8294.09"/>
<polygon fill="#4a6fa5" stroke="#4a6fa5" points="248.46,-8296.52 255.73,-8295.02 249.12,-8291.66 248.46,-8296.52"/>
</g>
<!-- Node0x57550a47b9d0 -->
<g id="node77" class="node">
<title>Node0x57550a47b9d0</title>
<path fill="#f0f4ff" stroke="black" d="M142,-8420C142,-8420 25,-8420 25,-8420 19,-8420 13,-8414 13,-8408 13,-8408 13,-8396 13,-8396 13,-8390 19,-8384 25,-8384 25,-8384 142,-8384 142,-8384 148,-8384 154,-8390 154,-8396 154,-8396 154,-8408 154,-8408 154,-8414 148,-8420 142,-8420"/>
<text text-anchor="middle" x="83.5" y="-8399.8" font-family="Courier,monospace" font-size="9.00">{CIccMemIO::GetLength()}</text>
</g>
<!-- Node0x57550a477570 -->
<g id="node78" class="node">
<title>Node0x57550a477570</title>
<path fill="#f0f4ff" stroke="black" d="M128.5,-6245C128.5,-6245 38.5,-6245 38.5,-6245 32.5,-6245 26.5,-6239 26.5,-6233 26.5,-6233 26.5,-6221 26.5,-6221 26.5,-6215 32.5,-6209 38.5,-6209 38.5,-6209 128.5,-6209 128.5,-6209 134.5,-6209 140.5,-6215 140.5,-6221 140.5,-6221 140.5,-6233 140.5,-6233 140.5,-6239 134.5,-6245 128.5,-6245"/>
<text text-anchor="middle" x="83.5" y="-6224.8" font-family="Courier,monospace" font-size="9.00">{CIccMemIO::Seek()}</text>
</g>
<!-- Node0x57550a477570&#45;&gt;Node0x57550a6246a0 -->
<g id="edge56" class="edge">
<title>Node0x57550a477570&#45;&gt;Node0x57550a6246a0</title>
<path fill="none" stroke="#4a6fa5" d="M135.78,-6208.88C146.27,-6204.68 157.12,-6199.97 167,-6195 212.03,-6172.34 260.7,-6140.33 291.37,-6119.14"/>
<polygon fill="#4a6fa5" stroke="#4a6fa5" points="292.9,-6121.06 297.25,-6115.05 290.11,-6117.03 292.9,-6121.06"/>
</g>
<!-- Node0x57550a47e5b0 -->
<g id="node79" class="node">
<title>Node0x57550a47e5b0</title>
<path fill="#f0f4ff" stroke="black" d="M128.5,-8485C128.5,-8485 38.5,-8485 38.5,-8485 32.5,-8485 26.5,-8479 26.5,-8473 26.5,-8473 26.5,-8461 26.5,-8461 26.5,-8455 32.5,-8449 38.5,-8449 38.5,-8449 128.5,-8449 128.5,-8449 134.5,-8449 140.5,-8455 140.5,-8461 140.5,-8461 140.5,-8473 140.5,-8473 140.5,-8479 134.5,-8485 128.5,-8485"/>
<text text-anchor="middle" x="83.5" y="-8464.8" font-family="Courier,monospace" font-size="9.00">{CIccMemIO::Tell()}</text>
</g>
<!-- Node0x57550a4825c0 -->
<g id="node80" class="node">
<title>Node0x57550a4825c0</title>
<path fill="#f0f4ff" stroke="black" d="M147,-5985C147,-5985 20,-5985 20,-5985 14,-5985 8,-5979 8,-5973 8,-5973 8,-5961 8,-5961 8,-5955 14,-5949 20,-5949 20,-5949 147,-5949 147,-5949 153,-5949 159,-5955 159,-5961 159,-5961 159,-5973 159,-5973 159,-5979 153,-5985 147,-5985"/>
<text text-anchor="middle" x="83.5" y="-5964.8" font-family="Courier,monospace" font-size="9.00">{CIccNullIO::CIccNullIO()}</text>
</g>
<!-- Node0x57550a4825c0&#45;&gt;Node0x57550a6246a0 -->
<g id="edge57" class="edge">
<title>Node0x57550a4825c0&#45;&gt;Node0x57550a6246a0</title>
<path fill="none" stroke="#4a6fa5" d="M133.99,-5985.14C145.02,-5989.64 156.54,-5994.7 167,-6000 211.57,-6022.59 259.97,-6053.96 290.73,-6074.85"/>
<polygon fill="#4a6fa5" stroke="#4a6fa5" points="289.48,-6076.96 296.64,-6078.88 292.24,-6072.91 289.48,-6076.96"/>
</g>
<!-- Node0x57550a4825c0&#45;&gt;Node0x57550a6052a0 -->
<g id="edge58" class="edge">
<title>Node0x57550a4825c0&#45;&gt;Node0x57550a6052a0</title>
<path fill="none" stroke="#4a6fa5" d="M159.15,-5977.35C192.23,-5981.94 230.64,-5987.26 261.91,-5991.6"/>
<polygon fill="#4a6fa5" stroke="#4a6fa5" points="261.6,-5994.03 268.87,-5992.56 262.27,-5989.18 261.6,-5994.03"/>
</g>
<!-- Node0x57550a481d20 -->
<g id="node81" class="node">
<title>Node0x57550a481d20</title>
<path fill="#f0f4ff" stroke="black" d="M149.5,-7080C149.5,-7080 17.5,-7080 17.5,-7080 11.5,-7080 5.5,-7074 5.5,-7068 5.5,-7068 5.5,-7056 5.5,-7056 5.5,-7050 11.5,-7044 17.5,-7044 17.5,-7044 149.5,-7044 149.5,-7044 155.5,-7044 161.5,-7050 161.5,-7056 161.5,-7056 161.5,-7068 161.5,-7068 161.5,-7074 155.5,-7080 149.5,-7080"/>
<text text-anchor="middle" x="83.5" y="-7059.8" font-family="Courier,monospace" font-size="9.00">{CIccNullIO::~CIccNullIO()}</text>
</g>
<!-- Node0x57550a481d20&#45;&gt;Node0x57550a607420 -->
<g id="edge59" class="edge">
<title>Node0x57550a481d20&#45;&gt;Node0x57550a607420</title>
<path fill="none" stroke="#4a6fa5" d="M137.43,-7043.98C147.48,-7039.87 157.74,-7035.16 167,-7030 208.85,-7006.67 212.04,-6989.85 253,-6965 259.73,-6960.92 267.05,-6956.96 274.33,-6953.3"/>
<polygon fill="#4a6fa5" stroke="#4a6fa5" points="275.78,-6955.31 280.98,-6950.02 273.62,-6950.92 275.78,-6955.31"/>
</g>
<!-- Node0x57550a481d20&#45;&gt;Node0x57550a6072e0 -->
<g id="edge60" class="edge">
<title>Node0x57550a481d20&#45;&gt;Node0x57550a6072e0</title>
<path fill="none" stroke="#4a6fa5" d="M150.48,-7043.98C181.18,-7035.6 217.79,-7025.6 249.33,-7016.98"/>
<polygon fill="#4a6fa5" stroke="#4a6fa5" points="250.28,-7019.26 256.39,-7015.05 248.99,-7014.54 250.28,-7019.26"/>
</g>
<!-- Node0x57550a481b80 -->
<g id="node82" class="node">
<title>Node0x57550a481b80</title>
<path fill="#f0f4ff" stroke="black" d="M149.5,-6625C149.5,-6625 17.5,-6625 17.5,-6625 11.5,-6625 5.5,-6619 5.5,-6613 5.5,-6613 5.5,-6601 5.5,-6601 5.5,-6595 11.5,-6589 17.5,-6589 17.5,-6589 149.5,-6589 149.5,-6589 155.5,-6589 161.5,-6595 161.5,-6601 161.5,-6601 161.5,-6613 161.5,-6613 161.5,-6619 155.5,-6625 149.5,-6625"/>
<text text-anchor="middle" x="83.5" y="-6604.8" font-family="Courier,monospace" font-size="9.00">{CIccNullIO::~CIccNullIO()}</text>
</g>
<!-- Node0x57550a481b80&#45;&gt;Node0x57550a6299a0 -->
<g id="edge61" class="edge">
<title>Node0x57550a481b80&#45;&gt;Node0x57550a6299a0</title>
<path fill="none" stroke="#4a6fa5" d="M150.48,-6625.02C193.04,-6636.64 246.97,-6651.37 283,-6661.21"/>
<polygon fill="#4a6fa5" stroke="#4a6fa5" points="282.56,-6663.63 289.95,-6663.11 283.85,-6658.9 282.56,-6663.63"/>
</g>
<!-- Node0x57550a480240 -->
<g id="node83" class="node">
<title>Node0x57550a480240</title>
<path fill="#f0f4ff" stroke="black" d="M131.5,-8550C131.5,-8550 35.5,-8550 35.5,-8550 29.5,-8550 23.5,-8544 23.5,-8538 23.5,-8538 23.5,-8526 23.5,-8526 23.5,-8520 29.5,-8514 35.5,-8514 35.5,-8514 131.5,-8514 131.5,-8514 137.5,-8514 143.5,-8520 143.5,-8526 143.5,-8526 143.5,-8538 143.5,-8538 143.5,-8544 137.5,-8550 131.5,-8550"/>
<text text-anchor="middle" x="83.5" y="-8529.8" font-family="Courier,monospace" font-size="9.00">{CIccNullIO::Open()}</text>
</g>
<!-- Node0x57550a47eec0 -->
<g id="node84" class="node">
<title>Node0x57550a47eec0</title>
<path fill="#f0f4ff" stroke="black" d="M134,-8615C134,-8615 33,-8615 33,-8615 27,-8615 21,-8609 21,-8603 21,-8603 21,-8591 21,-8591 21,-8585 27,-8579 33,-8579 33,-8579 134,-8579 134,-8579 140,-8579 146,-8585 146,-8591 146,-8591 146,-8603 146,-8603 146,-8609 140,-8615 134,-8615"/>
<text text-anchor="middle" x="83.5" y="-8594.8" font-family="Courier,monospace" font-size="9.00">{CIccNullIO::Close()}</text>
</g>
<!-- Node0x57550a493710 -->
<g id="node85" class="node">
<title>Node0x57550a493710</title>
<path fill="#f0f4ff" stroke="black" d="M134,-6180C134,-6180 33,-6180 33,-6180 27,-6180 21,-6174 21,-6168 21,-6168 21,-6156 21,-6156 21,-6150 27,-6144 33,-6144 33,-6144 134,-6144 134,-6144 140,-6144 146,-6150 146,-6156 146,-6156 146,-6168 146,-6168 146,-6174 140,-6180 134,-6180"/>
<text text-anchor="middle" x="83.5" y="-6159.8" font-family="Courier,monospace" font-size="9.00">{CIccNullIO::Read8()}</text>
</g>
<!-- Node0x57550a493710&#45;&gt;Node0x57550a6246a0 -->
<g id="edge62" class="edge">
<title>Node0x57550a493710&#45;&gt;Node0x57550a6246a0</title>
<path fill="none" stroke="#4a6fa5" d="M146.1,-6145.18C179.93,-6135.94 221.9,-6124.47 256.41,-6115.05"/>
<polygon fill="#4a6fa5" stroke="#4a6fa5" points="257.1,-6117.4 263.21,-6113.19 255.81,-6112.67 257.1,-6117.4"/>
</g>
<!-- Node0x57550a4923f0 -->
<g id="node86" class="node">
<title>Node0x57550a4923f0</title>
<path fill="#f0f4ff" stroke="black" d="M136.5,-8680C136.5,-8680 30.5,-8680 30.5,-8680 24.5,-8680 18.5,-8674 18.5,-8668 18.5,-8668 18.5,-8656 18.5,-8656 18.5,-8650 24.5,-8644 30.5,-8644 30.5,-8644 136.5,-8644 136.5,-8644 142.5,-8644 148.5,-8650 148.5,-8656 148.5,-8656 148.5,-8668 148.5,-8668 148.5,-8674 142.5,-8680 136.5,-8680"/>
<text text-anchor="middle" x="83.5" y="-8659.8" font-family="Courier,monospace" font-size="9.00">{CIccNullIO::Write8()}</text>
</g>
<!-- Node0x57550a490080 -->
<g id="node87" class="node">
<title>Node0x57550a490080</title>
<path fill="#f0f4ff" stroke="black" d="M144.5,-8745C144.5,-8745 22.5,-8745 22.5,-8745 16.5,-8745 10.5,-8739 10.5,-8733 10.5,-8733 10.5,-8721 10.5,-8721 10.5,-8715 16.5,-8709 22.5,-8709 22.5,-8709 144.5,-8709 144.5,-8709 150.5,-8709 156.5,-8715 156.5,-8721 156.5,-8721 156.5,-8733 156.5,-8733 156.5,-8739 150.5,-8745 144.5,-8745"/>
<text text-anchor="middle" x="83.5" y="-8724.8" font-family="Courier,monospace" font-size="9.00">{CIccNullIO::GetLength()}</text>
</g>
<!-- Node0x57550a488160 -->
<g id="node88" class="node">
<title>Node0x57550a488160</title>
<path fill="#f0f4ff" stroke="black" d="M131.5,-8810C131.5,-8810 35.5,-8810 35.5,-8810 29.5,-8810 23.5,-8804 23.5,-8798 23.5,-8798 23.5,-8786 23.5,-8786 23.5,-8780 29.5,-8774 35.5,-8774 35.5,-8774 131.5,-8774 131.5,-8774 137.5,-8774 143.5,-8780 143.5,-8786 143.5,-8786 143.5,-8798 143.5,-8798 143.5,-8804 137.5,-8810 131.5,-8810"/>
<text text-anchor="middle" x="83.5" y="-8789.8" font-family="Courier,monospace" font-size="9.00">{CIccNullIO::Seek()}</text>
</g>
<!-- Node0x57550a4711b0 -->
<g id="node89" class="node">
<title>Node0x57550a4711b0</title>
<path fill="#f0f4ff" stroke="black" d="M131.5,-8875C131.5,-8875 35.5,-8875 35.5,-8875 29.5,-8875 23.5,-8869 23.5,-8863 23.5,-8863 23.5,-8851 23.5,-8851 23.5,-8845 29.5,-8839 35.5,-8839 35.5,-8839 131.5,-8839 131.5,-8839 137.5,-8839 143.5,-8845 143.5,-8851 143.5,-8851 143.5,-8863 143.5,-8863 143.5,-8869 137.5,-8875 131.5,-8875"/>
<text text-anchor="middle" x="83.5" y="-8854.8" font-family="Courier,monospace" font-size="9.00">{CIccNullIO::Tell()}</text>
</g>
<!-- Node0x57550a4a4340 -->
<g id="node90" class="node">
<title>Node0x57550a4a4340</title>
<path fill="#f0f4ff" stroke="black" d="M128.5,-6820C128.5,-6820 38.5,-6820 38.5,-6820 32.5,-6820 26.5,-6814 26.5,-6808 26.5,-6808 26.5,-6796 26.5,-6796 26.5,-6790 32.5,-6784 38.5,-6784 38.5,-6784 128.5,-6784 128.5,-6784 134.5,-6784 140.5,-6790 140.5,-6796 140.5,-6796 140.5,-6808 140.5,-6808 140.5,-6814 134.5,-6820 128.5,-6820"/>
<text text-anchor="middle" x="83.5" y="-6799.8" font-family="Courier,monospace" font-size="9.00">{CIccIO::~CIccIO()}</text>
</g>
<!-- Node0x57550a4a4340&#45;&gt;Node0x57550a607420 -->
<g id="edge63" class="edge">
<title>Node0x57550a4a4340&#45;&gt;Node0x57550a607420</title>
<path fill="none" stroke="#4a6fa5" d="M133.99,-6820.14C145.02,-6824.64 156.54,-6829.7 167,-6835 211.57,-6857.59 259.97,-6888.96 290.73,-6909.85"/>
<polygon fill="#4a6fa5" stroke="#4a6fa5" points="289.48,-6911.96 296.64,-6913.88 292.24,-6907.91 289.48,-6911.96"/>
</g>
<!-- Node0x57550a4a4340&#45;&gt;Node0x57550a6299a0 -->
<g id="edge64" class="edge">
<title>Node0x57550a4a4340&#45;&gt;Node0x57550a6299a0</title>
<path fill="none" stroke="#4a6fa5" d="M135.78,-6783.88C146.27,-6779.68 157.12,-6774.97 167,-6770 212.03,-6747.34 260.7,-6715.33 291.37,-6694.14"/>
<polygon fill="#4a6fa5" stroke="#4a6fa5" points="292.9,-6696.06 297.25,-6690.05 290.11,-6692.03 292.9,-6696.06"/>
</g>
<!-- Node0x57550a4a41b0 -->
<g id="node91" class="node">
<title>Node0x57550a4a41b0</title>
<path fill="#f0f4ff" stroke="black" d="M123.5,-8940C123.5,-8940 43.5,-8940 43.5,-8940 37.5,-8940 31.5,-8934 31.5,-8928 31.5,-8928 31.5,-8916 31.5,-8916 31.5,-8910 37.5,-8904 43.5,-8904 43.5,-8904 123.5,-8904 123.5,-8904 129.5,-8904 135.5,-8910 135.5,-8916 135.5,-8916 135.5,-8928 135.5,-8928 135.5,-8934 129.5,-8940 123.5,-8940"/>
<text text-anchor="middle" x="83.5" y="-8919.8" font-family="Courier,monospace" font-size="9.00">{CIccIO::Close()}</text>
</g>
<!-- Node0x57550a4954c0 -->
<g id="node92" class="node">
<title>Node0x57550a4954c0</title>
<path fill="#f0f4ff" stroke="black" d="M123.5,-9005C123.5,-9005 43.5,-9005 43.5,-9005 37.5,-9005 31.5,-8999 31.5,-8993 31.5,-8993 31.5,-8981 31.5,-8981 31.5,-8975 37.5,-8969 43.5,-8969 43.5,-8969 123.5,-8969 123.5,-8969 129.5,-8969 135.5,-8975 135.5,-8981 135.5,-8981 135.5,-8993 135.5,-8993 135.5,-8999 129.5,-9005 123.5,-9005"/>
<text text-anchor="middle" x="83.5" y="-8984.8" font-family="Courier,monospace" font-size="9.00">{CIccIO::Read8()}</text>
</g>
<!-- Node0x57550a4a76d0 -->
<g id="node93" class="node">
<title>Node0x57550a4a76d0</title>
<path fill="#f0f4ff" stroke="black" d="M126,-9070C126,-9070 41,-9070 41,-9070 35,-9070 29,-9064 29,-9058 29,-9058 29,-9046 29,-9046 29,-9040 35,-9034 41,-9034 41,-9034 126,-9034 126,-9034 132,-9034 138,-9040 138,-9046 138,-9046 138,-9058 138,-9058 138,-9064 132,-9070 126,-9070"/>
<text text-anchor="middle" x="83.5" y="-9049.8" font-family="Courier,monospace" font-size="9.00">{CIccIO::Write8()}</text>
</g>
<!-- Node0x57550a4d5980 -->
<g id="node94" class="node">
<title>Node0x57550a4d5980</title>
<path fill="#f0f4ff" stroke="black" d="M134,-9135C134,-9135 33,-9135 33,-9135 27,-9135 21,-9129 21,-9123 21,-9123 21,-9111 21,-9111 21,-9105 27,-9099 33,-9099 33,-9099 134,-9099 134,-9099 140,-9099 146,-9105 146,-9111 146,-9111 146,-9123 146,-9123 146,-9129 140,-9135 134,-9135"/>
<text text-anchor="middle" x="83.5" y="-9114.8" font-family="Courier,monospace" font-size="9.00">{CIccIO::GetLength()}</text>
</g>
<!-- Node0x57550a44d8d0 -->
<g id="node95" class="node">
<title>Node0x57550a44d8d0</title>
<path fill="#f0f4ff" stroke="black" d="M121,-9200C121,-9200 46,-9200 46,-9200 40,-9200 34,-9194 34,-9188 34,-9188 34,-9176 34,-9176 34,-9170 40,-9164 46,-9164 46,-9164 121,-9164 121,-9164 127,-9164 133,-9170 133,-9176 133,-9176 133,-9188 133,-9188 133,-9194 127,-9200 121,-9200"/>
<text text-anchor="middle" x="83.5" y="-9179.8" font-family="Courier,monospace" font-size="9.00">{CIccIO::Seek()}</text>
</g>
<!-- Node0x57550a4ab1d0 -->
<g id="node96" class="node">
<title>Node0x57550a4ab1d0</title>
<path fill="#f0f4ff" stroke="black" d="M121,-9265C121,-9265 46,-9265 46,-9265 40,-9265 34,-9259 34,-9253 34,-9253 34,-9241 34,-9241 34,-9235 40,-9229 46,-9229 46,-9229 121,-9229 121,-9229 127,-9229 133,-9235 133,-9241 133,-9241 133,-9253 133,-9253 133,-9259 127,-9265 121,-9265"/>
<text text-anchor="middle" x="83.5" y="-9244.8" font-family="Courier,monospace" font-size="9.00">{CIccIO::Tell()}</text>
</g>
</g>
</svg>
