<?xml version="1.0" encoding="UTF-8" standalone="no"?>
<!DOCTYPE svg PUBLIC "-//W3C//DTD SVG 1.1//EN"
 "http://www.w3.org/Graphics/SVG/1.1/DTD/svg11.dtd">
<!-- Generated by graphviz version 2.43.0 (0)
 -->
<!-- Title: Call graph: /home/h02332/po/research/call&#45;graph/iccdev/proflib/IccMpeACS.ll Pages: 1 -->
<svg width="1201pt" height="14400pt"
 viewBox="0.00 0.00 1201.08 14400.00" xmlns="http://www.w3.org/2000/svg" xmlns:xlink="http://www.w3.org/1999/xlink">
<g id="graph0" class="graph" transform="scale(1 1) rotate(0) translate(36 14435)">
<title>Call graph: /home/h02332/po/research/call&#45;graph/iccdev/proflib/IccMpeACS.ll</title>
<polygon fill="white" stroke="transparent" points="-36,36 -36,-14435 1171,-14435 1171,36 -36,36"/>
<!-- Node0x6027651d2790 -->
<g id="node1" class="node">
<title>Node0x6027651d2790</title>
<path fill="#f0f4ff" stroke="black" d="M631,-393C631,-393 504,-393 504,-393 498,-393 492,-387 492,-381 492,-381 492,-369 492,-369 492,-363 498,-357 504,-357 504,-357 631,-357 631,-357 637,-357 643,-363 643,-369 643,-369 643,-381 643,-381 643,-387 637,-393 631,-393"/>
<text text-anchor="middle" x="567.5" y="-372.8" font-family="Courier,monospace" font-size="9.00">{CIccMpeAcs::CIccMpeAcs()}</text>
</g>
<!-- Node0x6027651d4ca0 -->
<g id="node2" class="node">
<title>Node0x6027651d4ca0</title>
<path fill="#f0f4ff" stroke="black" d="M1120.5,-393C1120.5,-393 856.5,-393 856.5,-393 850.5,-393 844.5,-387 844.5,-381 844.5,-381 844.5,-369 844.5,-369 844.5,-363 850.5,-357 856.5,-357 856.5,-357 1120.5,-357 1120.5,-357 1126.5,-357 1132.5,-363 1132.5,-369 1132.5,-369 1132.5,-381 1132.5,-381 1132.5,-387 1126.5,-393 1120.5,-393"/>
<text text-anchor="middle" x="988.5" y="-372.8" font-family="Courier,monospace" font-size="9.00">{CIccMultiProcessElement::CIccMultiProcessElement()}</text>
</g>
<!-- Node0x6027651d2790&#45;&gt;Node0x6027651d4ca0 -->
<g id="edge1" class="edge">
<title>Node0x6027651d2790&#45;&gt;Node0x6027651d4ca0</title>
<path fill="none" stroke="#4a6fa5" d="M643.41,-375C697.12,-375 771.3,-375 837.04,-375"/>
<polygon fill="#4a6fa5" stroke="#4a6fa5" points="837.19,-377.45 844.19,-375 837.19,-372.55 837.19,-377.45"/>
</g>
<!-- Node0x6027651e5980 -->
<g id="node3" class="node">
<title>Node0x6027651e5980</title>
<path fill="#f0f4ff" stroke="black" d="M205,-6600C205,-6600 88,-6600 88,-6600 82,-6600 76,-6594 76,-6588 76,-6588 76,-6576 76,-6576 76,-6570 82,-6564 88,-6564 88,-6564 205,-6564 205,-6564 211,-6564 217,-6570 217,-6576 217,-6576 217,-6588 217,-6588 217,-6594 211,-6600 205,-6600"/>
<text text-anchor="middle" x="146.5" y="-6579.8" font-family="Courier,monospace" font-size="9.00">{CIccMpeAcs::Validate()}</text>
</g>
<!-- Node0x6027651e55c0 -->
<g id="node4" class="node">
<title>Node0x6027651e55c0</title>
<path fill="#f0f4ff" stroke="black" d="M707,-6665C707,-6665 428,-6665 428,-6665 422,-6665 416,-6659 416,-6653 416,-6653 416,-6641 416,-6641 416,-6635 422,-6629 428,-6629 428,-6629 707,-6629 707,-6629 713,-6629 719,-6635 719,-6641 719,-6641 719,-6653 719,-6653 719,-6659 713,-6665 707,-6665"/>
<text text-anchor="middle" x="567.5" y="-6644.8" font-family="Courier,monospace" font-size="9.00">{basic_string&lt;char, std::char_traits &gt;::basic_string()}</text>
</g>
<!-- Node0x6027651e5980&#45;&gt;Node0x6027651e55c0 -->
<g id="edge2" class="edge">
<title>Node0x6027651e5980&#45;&gt;Node0x6027651e55c0</title>
<path fill="none" stroke="#4a6fa5" d="M217.16,-6592.81C278.59,-6602.34 369.54,-6616.45 443.24,-6627.88"/>
<polygon fill="#4a6fa5" stroke="#4a6fa5" points="443.03,-6630.32 450.32,-6628.98 443.78,-6625.48 443.03,-6630.32"/>
</g>
<!-- Node0x6027651e5200 -->
<g id="node5" class="node">
<title>Node0x6027651e5200</title>
<path fill="#f0f4ff" stroke="black" d="M660,-6600C660,-6600 475,-6600 475,-6600 469,-6600 463,-6594 463,-6588 463,-6588 463,-6576 463,-6576 463,-6570 469,-6564 475,-6564 475,-6564 660,-6564 660,-6564 666,-6564 672,-6570 672,-6576 672,-6576 672,-6588 672,-6588 672,-6594 666,-6600 660,-6600"/>
<text text-anchor="middle" x="567.5" y="-6579.8" font-family="Courier,monospace" font-size="9.00">{CIccMultiProcessElement::Validate()}</text>
</g>
<!-- Node0x6027651e5980&#45;&gt;Node0x6027651e5200 -->
<g id="edge3" class="edge">
<title>Node0x6027651e5980&#45;&gt;Node0x6027651e5200</title>
<path fill="none" stroke="#4a6fa5" d="M217.16,-6582C282.08,-6582 379.98,-6582 455.64,-6582"/>
<polygon fill="#4a6fa5" stroke="#4a6fa5" points="455.89,-6584.45 462.89,-6582 455.89,-6579.55 455.89,-6584.45"/>
</g>
<!-- Node0x6027651e4720 -->
<g id="node6" class="node">
<title>Node0x6027651e4720</title>
<path fill="#f0f4ff" stroke="black" d="M710,-6535C710,-6535 425,-6535 425,-6535 419,-6535 413,-6529 413,-6523 413,-6523 413,-6511 413,-6511 413,-6505 419,-6499 425,-6499 425,-6499 710,-6499 710,-6499 716,-6499 722,-6505 722,-6511 722,-6511 722,-6523 722,-6523 722,-6529 716,-6535 710,-6535"/>
<text text-anchor="middle" x="567.5" y="-6514.8" font-family="Courier,monospace" font-size="9.00">{basic_string&lt;char, std::char_traits &gt;::~basic_string()}</text>
</g>
<!-- Node0x6027651e5980&#45;&gt;Node0x6027651e4720 -->
<g id="edge4" class="edge">
<title>Node0x6027651e5980&#45;&gt;Node0x6027651e4720</title>
<path fill="none" stroke="#4a6fa5" d="M217.16,-6571.19C278.59,-6561.66 369.54,-6547.55 443.24,-6536.12"/>
<polygon fill="#4a6fa5" stroke="#4a6fa5" points="443.78,-6538.52 450.32,-6535.02 443.03,-6533.68 443.78,-6538.52"/>
</g>
<!-- Node0x60276521a470 -->
<g id="node7" class="node">
<title>Node0x60276521a470</title>
<path fill="#f0f4ff" stroke="black" d="M212.5,-6665C212.5,-6665 80.5,-6665 80.5,-6665 74.5,-6665 68.5,-6659 68.5,-6653 68.5,-6653 68.5,-6641 68.5,-6641 68.5,-6635 74.5,-6629 80.5,-6629 80.5,-6629 212.5,-6629 212.5,-6629 218.5,-6629 224.5,-6635 224.5,-6641 224.5,-6641 224.5,-6653 224.5,-6653 224.5,-6659 218.5,-6665 212.5,-6665"/>
<text text-anchor="middle" x="146.5" y="-6644.8" font-family="Courier,monospace" font-size="9.00">{CIccMpeEAcs::GetEAcsSig()}</text>
</g>
<!-- Node0x6027651d5710 -->
<g id="node8" class="node">
<title>Node0x6027651d5710</title>
<path fill="#f0f4ff" stroke="black" d="M633.5,-556C633.5,-556 501.5,-556 501.5,-556 495.5,-556 489.5,-550 489.5,-544 489.5,-544 489.5,-532 489.5,-532 489.5,-526 495.5,-520 501.5,-520 501.5,-520 633.5,-520 633.5,-520 639.5,-520 645.5,-526 645.5,-532 645.5,-532 645.5,-544 645.5,-544 645.5,-550 639.5,-556 633.5,-556"/>
<text text-anchor="middle" x="567.5" y="-535.8" font-family="Courier,monospace" font-size="9.00">{CIccMpeAcs::~CIccMpeAcs()}</text>
</g>
<!-- Node0x6027651d75e0 -->
<g id="node9" class="node">
<title>Node0x6027651d75e0</title>
<path fill="#f0f4ff" stroke="black" d="M1003.5,-296C1003.5,-296 973.5,-296 973.5,-296 967.5,-296 961.5,-290 961.5,-284 961.5,-284 961.5,-272 961.5,-272 961.5,-266 967.5,-260 973.5,-260 973.5,-260 1003.5,-260 1003.5,-260 1009.5,-260 1015.5,-266 1015.5,-272 1015.5,-272 1015.5,-284 1015.5,-284 1015.5,-290 1009.5,-296 1003.5,-296"/>
<text text-anchor="middle" x="988.5" y="-275.8" font-family="Courier,monospace" font-size="9.00">{free}</text>
</g>
<!-- Node0x6027651d5710&#45;&gt;Node0x6027651d75e0 -->
<g id="edge5" class="edge">
<title>Node0x6027651d5710&#45;&gt;Node0x6027651d75e0</title>
<path fill="none" stroke="#4a6fa5" d="M595.11,-519.87C631.66,-494.86 699.31,-448.21 756,-407 794.76,-378.83 800.68,-366.25 842,-342 878.95,-320.31 924.6,-301.39 954.8,-289.86"/>
<polygon fill="#4a6fa5" stroke="#4a6fa5" points="955.7,-292.14 961.38,-287.37 953.97,-287.55 955.7,-292.14"/>
</g>
<!-- Node0x6027651539d0 -->
<g id="node10" class="node">
<title>Node0x6027651539d0</title>
<path fill="#f0f4ff" stroke="black" d="M1123,-556C1123,-556 854,-556 854,-556 848,-556 842,-550 842,-544 842,-544 842,-532 842,-532 842,-526 848,-520 854,-520 854,-520 1123,-520 1123,-520 1129,-520 1135,-526 1135,-532 1135,-532 1135,-544 1135,-544 1135,-550 1129,-556 1123,-556"/>
<text text-anchor="middle" x="988.5" y="-535.8" font-family="Courier,monospace" font-size="9.00">{CIccMultiProcessElement::~CIccMultiProcessElement()}</text>
</g>
<!-- Node0x6027651d5710&#45;&gt;Node0x6027651539d0 -->
<g id="edge6" class="edge">
<title>Node0x6027651d5710&#45;&gt;Node0x6027651539d0</title>
<path fill="none" stroke="#4a6fa5" d="M645.84,-538C698.66,-538 770.43,-538 834.56,-538"/>
<polygon fill="#4a6fa5" stroke="#4a6fa5" points="834.94,-540.45 841.94,-538 834.94,-535.55 834.94,-540.45"/>
</g>
<!-- Node0x602765147e00 -->
<g id="node11" class="node">
<title>Node0x602765147e00</title>
<path fill="#f0f4ff" stroke="black" d="M212.5,-6730C212.5,-6730 80.5,-6730 80.5,-6730 74.5,-6730 68.5,-6724 68.5,-6718 68.5,-6718 68.5,-6706 68.5,-6706 68.5,-6700 74.5,-6694 80.5,-6694 80.5,-6694 212.5,-6694 212.5,-6694 218.5,-6694 224.5,-6700 224.5,-6706 224.5,-6706 224.5,-6718 224.5,-6718 224.5,-6724 218.5,-6730 212.5,-6730"/>
<text text-anchor="middle" x="146.5" y="-6709.8" font-family="Courier,monospace" font-size="9.00">{CIccMpeAcs::~CIccMpeAcs()}</text>
</g>
<!-- Node0x6027651df260 -->
<g id="node12" class="node">
<title>Node0x6027651df260</title>
<path fill="#f0f4ff" stroke="black" d="M591.5,-6730C591.5,-6730 543.5,-6730 543.5,-6730 537.5,-6730 531.5,-6724 531.5,-6718 531.5,-6718 531.5,-6706 531.5,-6706 531.5,-6700 537.5,-6694 543.5,-6694 543.5,-6694 591.5,-6694 591.5,-6694 597.5,-6694 603.5,-6700 603.5,-6706 603.5,-6706 603.5,-6718 603.5,-6718 603.5,-6724 597.5,-6730 591.5,-6730"/>
<text text-anchor="middle" x="567.5" y="-6709.8" font-family="Courier,monospace" font-size="9.00">{llvm.trap}</text>
</g>
<!-- Node0x602765147e00&#45;&gt;Node0x6027651df260 -->
<g id="edge7" class="edge">
<title>Node0x602765147e00&#45;&gt;Node0x6027651df260</title>
<path fill="none" stroke="#4a6fa5" d="M224.84,-6712C313.02,-6712 453.99,-6712 524.08,-6712"/>
<polygon fill="#4a6fa5" stroke="#4a6fa5" points="524.45,-6714.45 531.45,-6712 524.45,-6709.55 524.45,-6714.45"/>
</g>
<!-- Node0x602765143a70 -->
<g id="node13" class="node">
<title>Node0x602765143a70</title>
<path fill="#f0f4ff" stroke="black" d="M205,-6860C205,-6860 88,-6860 88,-6860 82,-6860 76,-6854 76,-6848 76,-6848 76,-6836 76,-6836 76,-6830 82,-6824 88,-6824 88,-6824 205,-6824 205,-6824 211,-6824 217,-6830 217,-6836 217,-6836 217,-6848 217,-6848 217,-6854 211,-6860 205,-6860"/>
<text text-anchor="middle" x="146.5" y="-6839.8" font-family="Courier,monospace" font-size="9.00">{CIccMpeAcs::Describe()}</text>
</g>
<!-- Node0x60276514f4e0 -->
<g id="node14" class="node">
<title>Node0x60276514f4e0</title>
<path fill="#f0f4ff" stroke="black" d="M744,-6925C744,-6925 391,-6925 391,-6925 385,-6925 379,-6919 379,-6913 379,-6913 379,-6901 379,-6901 379,-6895 385,-6889 391,-6889 391,-6889 744,-6889 744,-6889 750,-6889 756,-6895 756,-6901 756,-6901 756,-6913 756,-6913 756,-6919 750,-6925 744,-6925"/>
<text text-anchor="middle" x="567.5" y="-6904.8" font-family="Courier,monospace" font-size="9.00">{std::basic_string&lt;char, std::char_traits &gt;::operator+=(char const*)}</text>
</g>
<!-- Node0x602765143a70&#45;&gt;Node0x60276514f4e0 -->
<g id="edge8" class="edge">
<title>Node0x602765143a70&#45;&gt;Node0x60276514f4e0</title>
<path fill="none" stroke="#4a6fa5" d="M217.16,-6852.81C278.59,-6862.34 369.54,-6876.45 443.24,-6887.88"/>
<polygon fill="#4a6fa5" stroke="#4a6fa5" points="443.03,-6890.32 450.32,-6888.98 443.78,-6885.48 443.03,-6890.32"/>
</g>
<!-- Node0x6027651e08b0 -->
<g id="node15" class="node">
<title>Node0x6027651e08b0</title>
<path fill="#f0f4ff" stroke="black" d="M597,-6860C597,-6860 538,-6860 538,-6860 532,-6860 526,-6854 526,-6848 526,-6848 526,-6836 526,-6836 526,-6830 532,-6824 538,-6824 538,-6824 597,-6824 597,-6824 603,-6824 609,-6830 609,-6836 609,-6836 609,-6848 609,-6848 609,-6854 603,-6860 597,-6860"/>
<text text-anchor="middle" x="567.5" y="-6839.8" font-family="Courier,monospace" font-size="9.00">{icMemDump()}</text>
</g>
<!-- Node0x602765143a70&#45;&gt;Node0x6027651e08b0 -->
<g id="edge9" class="edge">
<title>Node0x602765143a70&#45;&gt;Node0x6027651e08b0</title>
<path fill="none" stroke="#4a6fa5" d="M217.16,-6842C302.43,-6842 444.57,-6842 518.51,-6842"/>
<polygon fill="#4a6fa5" stroke="#4a6fa5" points="518.88,-6844.45 525.88,-6842 518.88,-6839.55 518.88,-6844.45"/>
</g>
<!-- Node0x602765147d80 -->
<g id="node16" class="node">
<title>Node0x602765147d80</title>
<path fill="#f0f4ff" stroke="black" d="M594.5,-6795C594.5,-6795 540.5,-6795 540.5,-6795 534.5,-6795 528.5,-6789 528.5,-6783 528.5,-6783 528.5,-6771 528.5,-6771 528.5,-6765 534.5,-6759 540.5,-6759 540.5,-6759 594.5,-6759 594.5,-6759 600.5,-6759 606.5,-6765 606.5,-6771 606.5,-6771 606.5,-6783 606.5,-6783 606.5,-6789 600.5,-6795 594.5,-6795"/>
<text text-anchor="middle" x="567.5" y="-6774.8" font-family="Courier,monospace" font-size="9.00">{icGetSig()}</text>
</g>
<!-- Node0x602765143a70&#45;&gt;Node0x602765147d80 -->
<g id="edge10" class="edge">
<title>Node0x602765143a70&#45;&gt;Node0x602765147d80</title>
<path fill="none" stroke="#4a6fa5" d="M217.16,-6831.19C303.44,-6817.81 447.95,-6795.39 521.11,-6784.04"/>
<polygon fill="#4a6fa5" stroke="#4a6fa5" points="521.85,-6786.41 528.4,-6782.91 521.1,-6781.56 521.85,-6786.41"/>
</g>
<!-- Node0x60276514ae90 -->
<g id="node17" class="node">
<title>Node0x60276514ae90</title>
<path fill="#f0f4ff" stroke="black" d="M194.5,-36C194.5,-36 98.5,-36 98.5,-36 92.5,-36 86.5,-30 86.5,-24 86.5,-24 86.5,-12 86.5,-12 86.5,-6 92.5,0 98.5,0 98.5,0 194.5,0 194.5,0 200.5,0 206.5,-6 206.5,-12 206.5,-12 206.5,-24 206.5,-24 206.5,-30 200.5,-36 194.5,-36"/>
<text text-anchor="middle" x="146.5" y="-15.8" font-family="Courier,monospace" font-size="9.00">{CIccMpeAcs::Read()}</text>
</g>
<!-- Node0x6027651e05d0 -->
<g id="node18" class="node">
<title>Node0x6027651e05d0</title>
<path fill="#f0f4ff" stroke="black" d="M610,-101C610,-101 525,-101 525,-101 519,-101 513,-95 513,-89 513,-89 513,-77 513,-77 513,-71 519,-65 525,-65 525,-65 610,-65 610,-65 616,-65 622,-71 622,-77 622,-77 622,-89 622,-89 622,-95 616,-101 610,-101"/>
<text text-anchor="middle" x="567.5" y="-80.8" font-family="Courier,monospace" font-size="9.00">{CIccIO::Read32()}</text>
</g>
<!-- Node0x60276514ae90&#45;&gt;Node0x6027651e05d0 -->
<g id="edge11" class="edge">
<title>Node0x60276514ae90&#45;&gt;Node0x6027651e05d0</title>
<path fill="none" stroke="#4a6fa5" d="M206.64,-27.18C285.91,-39.47 425.88,-61.19 505.89,-73.6"/>
<polygon fill="#4a6fa5" stroke="#4a6fa5" points="505.67,-76.04 512.96,-74.69 506.42,-71.2 505.67,-76.04"/>
</g>
<!-- Node0x6027651e1470 -->
<g id="node19" class="node">
<title>Node0x6027651e1470</title>
<path fill="#f0f4ff" stroke="black" d="M610,-36C610,-36 525,-36 525,-36 519,-36 513,-30 513,-24 513,-24 513,-12 513,-12 513,-6 519,0 525,0 525,0 610,0 610,0 616,0 622,-6 622,-12 622,-12 622,-24 622,-24 622,-30 616,-36 610,-36"/>
<text text-anchor="middle" x="567.5" y="-15.8" font-family="Courier,monospace" font-size="9.00">{CIccIO::Read16()}</text>
</g>
<!-- Node0x60276514ae90&#45;&gt;Node0x6027651e1470 -->
<g id="edge12" class="edge">
<title>Node0x60276514ae90&#45;&gt;Node0x6027651e1470</title>
<path fill="none" stroke="#4a6fa5" d="M206.64,-18C285.91,-18 425.88,-18 505.89,-18"/>
<polygon fill="#4a6fa5" stroke="#4a6fa5" points="505.96,-20.45 512.96,-18 505.96,-15.55 505.96,-20.45"/>
</g>
<!-- Node0x6027651e2560 -->
<g id="node20" class="node">
<title>Node0x6027651e2560</title>
<path fill="#f0f4ff" stroke="black" d="M628.5,-166C628.5,-166 506.5,-166 506.5,-166 500.5,-166 494.5,-160 494.5,-154 494.5,-154 494.5,-142 494.5,-142 494.5,-136 500.5,-130 506.5,-130 506.5,-130 628.5,-130 628.5,-130 634.5,-130 640.5,-136 640.5,-142 640.5,-142 640.5,-154 640.5,-154 640.5,-160 634.5,-166 628.5,-166"/>
<text text-anchor="middle" x="567.5" y="-145.8" font-family="Courier,monospace" font-size="9.00">{CIccMpeAcs::AllocData()}</text>
</g>
<!-- Node0x60276514ae90&#45;&gt;Node0x6027651e2560 -->
<g id="edge13" class="edge">
<title>Node0x60276514ae90&#45;&gt;Node0x6027651e2560</title>
<path fill="none" stroke="#4a6fa5" d="M206.71,-25.1C233.88,-29.83 265.99,-37.55 293,-50 336.51,-70.05 335.07,-95.87 379,-115 412.81,-129.72 452.76,-137.88 487.08,-142.4"/>
<polygon fill="#4a6fa5" stroke="#4a6fa5" points="487.06,-144.87 494.31,-143.31 487.67,-140 487.06,-144.87"/>
</g>
<!-- Node0x6027651e2560&#45;&gt;Node0x6027651d75e0 -->
<g id="edge14" class="edge">
<title>Node0x6027651e2560&#45;&gt;Node0x6027651d75e0</title>
<path fill="none" stroke="#4a6fa5" d="M640.61,-156.33C675.84,-161.4 718.6,-169.05 756,-180 829.51,-201.52 911.02,-239.59 955.02,-261.4"/>
<polygon fill="#4a6fa5" stroke="#4a6fa5" points="954.14,-263.7 961.5,-264.63 956.33,-259.31 954.14,-263.7"/>
</g>
<!-- Node0x6027651e20b0 -->
<g id="node21" class="node">
<title>Node0x6027651e20b0</title>
<path fill="#f0f4ff" stroke="black" d="M1005,-166C1005,-166 972,-166 972,-166 966,-166 960,-160 960,-154 960,-154 960,-142 960,-142 960,-136 966,-130 972,-130 972,-130 1005,-130 1005,-130 1011,-130 1017,-136 1017,-142 1017,-142 1017,-154 1017,-154 1017,-160 1011,-166 1005,-166"/>
<text text-anchor="middle" x="988.5" y="-145.8" font-family="Courier,monospace" font-size="9.00">{malloc}</text>
</g>
<!-- Node0x6027651e2560&#45;&gt;Node0x6027651e20b0 -->
<g id="edge15" class="edge">
<title>Node0x6027651e2560&#45;&gt;Node0x6027651e20b0</title>
<path fill="none" stroke="#4a6fa5" d="M640.53,-148C731.51,-148 884.42,-148 952.72,-148"/>
<polygon fill="#4a6fa5" stroke="#4a6fa5" points="952.84,-150.45 959.84,-148 952.84,-145.55 952.84,-150.45"/>
</g>
<!-- Node0x6027651e1e20 -->
<g id="node22" class="node">
<title>Node0x6027651e1e20</title>
<path fill="#f0f4ff" stroke="black" d="M197,-6990C197,-6990 96,-6990 96,-6990 90,-6990 84,-6984 84,-6978 84,-6978 84,-6966 84,-6966 84,-6960 90,-6954 96,-6954 96,-6954 197,-6954 197,-6954 203,-6954 209,-6960 209,-6966 209,-6966 209,-6978 209,-6978 209,-6984 203,-6990 197,-6990"/>
<text text-anchor="middle" x="146.5" y="-6969.8" font-family="Courier,monospace" font-size="9.00">{CIccMpeAcs::Write()}</text>
</g>
<!-- Node0x6027651e3820 -->
<g id="node23" class="node">
<title>Node0x6027651e3820</title>
<path fill="#f0f4ff" stroke="black" d="M612.5,-7055C612.5,-7055 522.5,-7055 522.5,-7055 516.5,-7055 510.5,-7049 510.5,-7043 510.5,-7043 510.5,-7031 510.5,-7031 510.5,-7025 516.5,-7019 522.5,-7019 522.5,-7019 612.5,-7019 612.5,-7019 618.5,-7019 624.5,-7025 624.5,-7031 624.5,-7031 624.5,-7043 624.5,-7043 624.5,-7049 618.5,-7055 612.5,-7055"/>
<text text-anchor="middle" x="567.5" y="-7034.8" font-family="Courier,monospace" font-size="9.00">{CIccIO::Write32()}</text>
</g>
<!-- Node0x6027651e1e20&#45;&gt;Node0x6027651e3820 -->
<g id="edge16" class="edge">
<title>Node0x6027651e1e20&#45;&gt;Node0x6027651e3820</title>
<path fill="none" stroke="#4a6fa5" d="M209.32,-6981.59C288.21,-6993.83 423.94,-7014.88 503.42,-7027.21"/>
<polygon fill="#4a6fa5" stroke="#4a6fa5" points="503.17,-7029.65 510.46,-7028.31 503.92,-7024.81 503.17,-7029.65"/>
</g>
<!-- Node0x6027651e3fa0 -->
<g id="node24" class="node">
<title>Node0x6027651e3fa0</title>
<path fill="#f0f4ff" stroke="black" d="M612.5,-6990C612.5,-6990 522.5,-6990 522.5,-6990 516.5,-6990 510.5,-6984 510.5,-6978 510.5,-6978 510.5,-6966 510.5,-6966 510.5,-6960 516.5,-6954 522.5,-6954 522.5,-6954 612.5,-6954 612.5,-6954 618.5,-6954 624.5,-6960 624.5,-6966 624.5,-6966 624.5,-6978 624.5,-6978 624.5,-6984 618.5,-6990 612.5,-6990"/>
<text text-anchor="middle" x="567.5" y="-6969.8" font-family="Courier,monospace" font-size="9.00">{CIccIO::Write16()}</text>
</g>
<!-- Node0x6027651e1e20&#45;&gt;Node0x6027651e3fa0 -->
<g id="edge17" class="edge">
<title>Node0x6027651e1e20&#45;&gt;Node0x6027651e3fa0</title>
<path fill="none" stroke="#4a6fa5" d="M209.32,-6972C288.21,-6972 423.94,-6972 503.42,-6972"/>
<polygon fill="#4a6fa5" stroke="#4a6fa5" points="503.46,-6974.45 510.46,-6972 503.46,-6969.55 503.46,-6974.45"/>
</g>
<!-- Node0x6027651e3d20 -->
<g id="node25" class="node">
<title>Node0x6027651e3d20</title>
<path fill="#f0f4ff" stroke="black" d="M197,-10012C197,-10012 96,-10012 96,-10012 90,-10012 84,-10006 84,-10000 84,-10000 84,-9988 84,-9988 84,-9982 90,-9976 96,-9976 96,-9976 197,-9976 197,-9976 203,-9976 209,-9982 209,-9988 209,-9988 209,-10000 209,-10000 209,-10006 203,-10012 197,-10012"/>
<text text-anchor="middle" x="146.5" y="-9991.8" font-family="Courier,monospace" font-size="9.00">{CIccMpeAcs::Begin()}</text>
</g>
<!-- Node0x6027651e3aa0 -->
<g id="node26" class="node">
<title>Node0x6027651e3aa0</title>
<path fill="#f0f4ff" stroke="black" d="M197,-296C197,-296 96,-296 96,-296 90,-296 84,-290 84,-284 84,-284 84,-272 84,-272 84,-266 90,-260 96,-260 96,-260 197,-260 197,-260 203,-260 209,-266 209,-272 209,-272 209,-284 209,-284 209,-290 203,-296 197,-296"/>
<text text-anchor="middle" x="146.5" y="-275.8" font-family="Courier,monospace" font-size="9.00">{CIccMpeAcs::Apply()}</text>
</g>
<!-- Node0x6027651e4360 -->
<g id="node27" class="node">
<title>Node0x6027651e4360</title>
<path fill="#f0f4ff" stroke="black" d="M623,-231C623,-231 512,-231 512,-231 506,-231 500,-225 500,-219 500,-219 500,-207 500,-207 500,-201 506,-195 512,-195 512,-195 623,-195 623,-195 629,-195 635,-201 635,-207 635,-207 635,-219 635,-219 635,-225 629,-231 623,-231"/>
<text text-anchor="middle" x="567.5" y="-210.8" font-family="Courier,monospace" font-size="9.00">{llvm.memcpy.p0.p0.i64}</text>
</g>
<!-- Node0x6027651e3aa0&#45;&gt;Node0x6027651e4360 -->
<g id="edge18" class="edge">
<title>Node0x6027651e3aa0&#45;&gt;Node0x6027651e4360</title>
<path fill="none" stroke="#4a6fa5" d="M209.32,-268.41C284.79,-256.7 412.26,-236.93 492.76,-224.44"/>
<polygon fill="#4a6fa5" stroke="#4a6fa5" points="493.37,-226.82 499.92,-223.33 492.62,-221.98 493.37,-226.82"/>
</g>
<!-- Node0x6027651e5a40 -->
<g id="node28" class="node">
<title>Node0x6027651e5a40</title>
<path fill="#f0f4ff" stroke="black" d="M199.5,-11556C199.5,-11556 93.5,-11556 93.5,-11556 87.5,-11556 81.5,-11550 81.5,-11544 81.5,-11544 81.5,-11532 81.5,-11532 81.5,-11526 87.5,-11520 93.5,-11520 93.5,-11520 199.5,-11520 199.5,-11520 205.5,-11520 211.5,-11526 211.5,-11532 211.5,-11532 211.5,-11544 211.5,-11544 211.5,-11550 205.5,-11556 199.5,-11556"/>
<text text-anchor="middle" x="146.5" y="-11535.8" font-family="Courier,monospace" font-size="9.00">{__gxx_personality_v0}</text>
</g>
<!-- Node0x6027651e5cc0 -->
<g id="node29" class="node">
<title>Node0x6027651e5cc0</title>
<path fill="#f0f4ff" stroke="black" d="M215.5,-491C215.5,-491 77.5,-491 77.5,-491 71.5,-491 65.5,-485 65.5,-479 65.5,-479 65.5,-467 65.5,-467 65.5,-461 71.5,-455 77.5,-455 77.5,-455 215.5,-455 215.5,-455 221.5,-455 227.5,-461 227.5,-467 227.5,-467 227.5,-479 227.5,-479 227.5,-485 221.5,-491 215.5,-491"/>
<text text-anchor="middle" x="146.5" y="-470.8" font-family="Courier,monospace" font-size="9.00">{CIccMpeBAcs::CIccMpeBAcs()}</text>
</g>
<!-- Node0x6027651e5cc0&#45;&gt;Node0x6027651d2790 -->
<g id="edge19" class="edge">
<title>Node0x6027651e5cc0&#45;&gt;Node0x6027651d2790</title>
<path fill="none" stroke="#4a6fa5" d="M227.58,-454.99C248.86,-450.17 271.81,-444.92 293,-440 357.62,-424.99 430.73,-407.6 485.1,-394.58"/>
<polygon fill="#4a6fa5" stroke="#4a6fa5" points="485.73,-396.95 491.97,-392.93 484.59,-392.18 485.73,-396.95"/>
</g>
<!-- Node0x6027651e5f40 -->
<g id="node30" class="node">
<title>Node0x6027651e5f40</title>
<path fill="#f0f4ff" stroke="black" d="M215.5,-231C215.5,-231 77.5,-231 77.5,-231 71.5,-231 65.5,-225 65.5,-219 65.5,-219 65.5,-207 65.5,-207 65.5,-201 71.5,-195 77.5,-195 77.5,-195 215.5,-195 215.5,-195 221.5,-195 227.5,-201 227.5,-207 227.5,-207 227.5,-219 227.5,-219 227.5,-225 221.5,-231 215.5,-231"/>
<text text-anchor="middle" x="146.5" y="-210.8" font-family="Courier,monospace" font-size="9.00">{CIccMpeBAcs::CIccMpeBAcs()}</text>
</g>
<!-- Node0x6027651e5f40&#45;&gt;Node0x6027651d2790 -->
<g id="edge20" class="edge">
<title>Node0x6027651e5f40&#45;&gt;Node0x6027651d2790</title>
<path fill="none" stroke="#4a6fa5" d="M227.69,-227.22C249.18,-231.95 272.2,-237.87 293,-245 380.28,-274.91 476.43,-324.9 528.26,-353.39"/>
<polygon fill="#4a6fa5" stroke="#4a6fa5" points="527.36,-355.69 534.67,-356.92 529.72,-351.4 527.36,-355.69"/>
</g>
<!-- Node0x6027651e5f40&#45;&gt;Node0x6027651e2560 -->
<g id="edge21" class="edge">
<title>Node0x6027651e5f40&#45;&gt;Node0x6027651e2560</title>
<path fill="none" stroke="#4a6fa5" d="M227.79,-200.54C302.38,-188.97 412.81,-171.84 487.1,-160.32"/>
<polygon fill="#4a6fa5" stroke="#4a6fa5" points="487.64,-162.71 494.18,-159.22 486.88,-157.87 487.64,-162.71"/>
</g>
<!-- Node0x6027651e5f40&#45;&gt;Node0x6027651e4360 -->
<g id="edge22" class="edge">
<title>Node0x6027651e5f40&#45;&gt;Node0x6027651e4360</title>
<path fill="none" stroke="#4a6fa5" d="M227.79,-213C304.33,-213 418.62,-213 492.87,-213"/>
<polygon fill="#4a6fa5" stroke="#4a6fa5" points="492.93,-215.45 499.93,-213 492.93,-210.55 492.93,-215.45"/>
</g>
<!-- Node0x6027651e6600 -->
<g id="node31" class="node">
<title>Node0x6027651e6600</title>
<path fill="#f0f4ff" stroke="black" d="M257.5,-166C257.5,-166 35.5,-166 35.5,-166 29.5,-166 23.5,-160 23.5,-154 23.5,-154 23.5,-142 23.5,-142 23.5,-136 29.5,-130 35.5,-130 35.5,-130 257.5,-130 257.5,-130 263.5,-130 269.5,-136 269.5,-142 269.5,-142 269.5,-154 269.5,-154 269.5,-160 263.5,-166 257.5,-166"/>
<text text-anchor="middle" x="146.5" y="-145.8" font-family="Courier,monospace" font-size="9.00">{CIccMpeBAcs::operator=(CIccMpeBAcs const&amp;)}</text>
</g>
<!-- Node0x6027651e6600&#45;&gt;Node0x6027651e2560 -->
<g id="edge23" class="edge">
<title>Node0x6027651e6600&#45;&gt;Node0x6027651e2560</title>
<path fill="none" stroke="#4a6fa5" d="M269.54,-148C339.65,-148 425.68,-148 487.07,-148"/>
<polygon fill="#4a6fa5" stroke="#4a6fa5" points="487.43,-150.45 494.43,-148 487.43,-145.55 487.43,-150.45"/>
</g>
<!-- Node0x6027651e6600&#45;&gt;Node0x6027651e4360 -->
<g id="edge24" class="edge">
<title>Node0x6027651e6600&#45;&gt;Node0x6027651e4360</title>
<path fill="none" stroke="#4a6fa5" d="M263.66,-166.02C336.88,-177.38 429.23,-191.71 492.58,-201.53"/>
<polygon fill="#4a6fa5" stroke="#4a6fa5" points="492.48,-204 499.78,-202.65 493.24,-199.15 492.48,-204"/>
</g>
<!-- Node0x6027651e64c0 -->
<g id="node32" class="node">
<title>Node0x6027651e64c0</title>
<path fill="#f0f4ff" stroke="black" d="M218,-621C218,-621 75,-621 75,-621 69,-621 63,-615 63,-609 63,-609 63,-597 63,-597 63,-591 69,-585 75,-585 75,-585 218,-585 218,-585 224,-585 230,-591 230,-597 230,-597 230,-609 230,-609 230,-615 224,-621 218,-621"/>
<text text-anchor="middle" x="146.5" y="-600.8" font-family="Courier,monospace" font-size="9.00">{CIccMpeBAcs::~CIccMpeBAcs()}</text>
</g>
<!-- Node0x6027651e64c0&#45;&gt;Node0x6027651d5710 -->
<g id="edge25" class="edge">
<title>Node0x6027651e64c0&#45;&gt;Node0x6027651d5710</title>
<path fill="none" stroke="#4a6fa5" d="M230.28,-590.16C303.17,-578.85 408.85,-562.46 482.2,-551.08"/>
<polygon fill="#4a6fa5" stroke="#4a6fa5" points="482.65,-553.49 489.19,-549.99 481.9,-548.64 482.65,-553.49"/>
</g>
<!-- Node0x6027651e4560 -->
<g id="node33" class="node">
<title>Node0x6027651e4560</title>
<path fill="#f0f4ff" stroke="black" d="M218,-12555C218,-12555 75,-12555 75,-12555 69,-12555 63,-12549 63,-12543 63,-12543 63,-12531 63,-12531 63,-12525 69,-12519 75,-12519 75,-12519 218,-12519 218,-12519 224,-12519 230,-12525 230,-12531 230,-12531 230,-12543 230,-12543 230,-12549 224,-12555 218,-12555"/>
<text text-anchor="middle" x="146.5" y="-12534.8" font-family="Courier,monospace" font-size="9.00">{CIccMpeBAcs::~CIccMpeBAcs()}</text>
</g>
<!-- Node0x602765205340 -->
<g id="node34" class="node">
<title>Node0x602765205340</title>
<path fill="#f0f4ff" stroke="black" d="M589,-12473C589,-12473 546,-12473 546,-12473 540,-12473 534,-12467 534,-12461 534,-12461 534,-12449 534,-12449 534,-12443 540,-12437 546,-12437 546,-12437 589,-12437 589,-12437 595,-12437 601,-12443 601,-12449 601,-12449 601,-12461 601,-12461 601,-12467 595,-12473 589,-12473"/>
<text text-anchor="middle" x="567.5" y="-12452.8" font-family="Courier,monospace" font-size="9.00">{delete()}</text>
</g>
<!-- Node0x6027651e4560&#45;&gt;Node0x602765205340 -->
<g id="edge26" class="edge">
<title>Node0x6027651e4560&#45;&gt;Node0x602765205340</title>
<path fill="none" stroke="#4a6fa5" d="M230.28,-12520.8C319.79,-12503.28 458.74,-12476.09 526.55,-12462.82"/>
<polygon fill="#4a6fa5" stroke="#4a6fa5" points="527.27,-12465.17 533.67,-12461.42 526.33,-12460.36 527.27,-12465.17"/>
</g>
<!-- Node0x602765205980 -->
<g id="node35" class="node">
<title>Node0x602765205980</title>
<path fill="#f0f4ff" stroke="black" d="M215.5,-426C215.5,-426 77.5,-426 77.5,-426 71.5,-426 65.5,-420 65.5,-414 65.5,-414 65.5,-402 65.5,-402 65.5,-396 71.5,-390 77.5,-390 77.5,-390 215.5,-390 215.5,-390 221.5,-390 227.5,-396 227.5,-402 227.5,-402 227.5,-414 227.5,-414 227.5,-420 221.5,-426 215.5,-426"/>
<text text-anchor="middle" x="146.5" y="-405.8" font-family="Courier,monospace" font-size="9.00">{CIccMpeEAcs::CIccMpeEAcs()}</text>
</g>
<!-- Node0x602765205980&#45;&gt;Node0x6027651d2790 -->
<g id="edge27" class="edge">
<title>Node0x602765205980&#45;&gt;Node0x6027651d2790</title>
<path fill="none" stroke="#4a6fa5" d="M227.79,-401.68C301.57,-395.87 410.42,-387.29 484.68,-381.44"/>
<polygon fill="#4a6fa5" stroke="#4a6fa5" points="484.97,-383.88 491.76,-380.89 484.59,-378.99 484.97,-383.88"/>
</g>
<!-- Node0x6027651fe410 -->
<g id="node36" class="node">
<title>Node0x6027651fe410</title>
<path fill="#f0f4ff" stroke="black" d="M215.5,-361C215.5,-361 77.5,-361 77.5,-361 71.5,-361 65.5,-355 65.5,-349 65.5,-349 65.5,-337 65.5,-337 65.5,-331 71.5,-325 77.5,-325 77.5,-325 215.5,-325 215.5,-325 221.5,-325 227.5,-331 227.5,-337 227.5,-337 227.5,-349 227.5,-349 227.5,-355 221.5,-361 215.5,-361"/>
<text text-anchor="middle" x="146.5" y="-340.8" font-family="Courier,monospace" font-size="9.00">{CIccMpeEAcs::CIccMpeEAcs()}</text>
</g>
<!-- Node0x6027651fe410&#45;&gt;Node0x6027651d2790 -->
<g id="edge28" class="edge">
<title>Node0x6027651fe410&#45;&gt;Node0x6027651d2790</title>
<path fill="none" stroke="#4a6fa5" d="M227.79,-349.13C301.57,-354.77 410.42,-363.08 484.68,-368.75"/>
<polygon fill="#4a6fa5" stroke="#4a6fa5" points="484.59,-371.2 491.76,-369.29 484.96,-366.32 484.59,-371.2"/>
</g>
<!-- Node0x6027651fe410&#45;&gt;Node0x6027651e2560 -->
<g id="edge29" class="edge">
<title>Node0x6027651fe410&#45;&gt;Node0x6027651e2560</title>
<path fill="none" stroke="#4a6fa5" d="M227.5,-336.09C250.15,-331.27 273.82,-323.25 293,-310 349.99,-270.62 320.97,-217.83 379,-180 410.77,-159.29 451.77,-150.72 487.32,-147.57"/>
<polygon fill="#4a6fa5" stroke="#4a6fa5" points="487.58,-150.01 494.36,-147.01 487.19,-145.12 487.58,-150.01"/>
</g>
<!-- Node0x6027651fe410&#45;&gt;Node0x6027651e4360 -->
<g id="edge30" class="edge">
<title>Node0x6027651fe410&#45;&gt;Node0x6027651e4360</title>
<path fill="none" stroke="#4a6fa5" d="M227.6,-326.61C248.98,-321.75 271.98,-316.09 293,-310 370.96,-287.42 459.12,-254.84 513.76,-233.79"/>
<polygon fill="#4a6fa5" stroke="#4a6fa5" points="514.94,-235.97 520.58,-231.16 513.17,-231.4 514.94,-235.97"/>
</g>
<!-- Node0x6027651fe360 -->
<g id="node37" class="node">
<title>Node0x6027651fe360</title>
<path fill="#f0f4ff" stroke="black" d="M257.5,-101C257.5,-101 35.5,-101 35.5,-101 29.5,-101 23.5,-95 23.5,-89 23.5,-89 23.5,-77 23.5,-77 23.5,-71 29.5,-65 35.5,-65 35.5,-65 257.5,-65 257.5,-65 263.5,-65 269.5,-71 269.5,-77 269.5,-77 269.5,-89 269.5,-89 269.5,-95 263.5,-101 257.5,-101"/>
<text text-anchor="middle" x="146.5" y="-80.8" font-family="Courier,monospace" font-size="9.00">{CIccMpeEAcs::operator=(CIccMpeEAcs const&amp;)}</text>
</g>
<!-- Node0x6027651fe360&#45;&gt;Node0x6027651e2560 -->
<g id="edge31" class="edge">
<title>Node0x6027651fe360&#45;&gt;Node0x6027651e2560</title>
<path fill="none" stroke="#4a6fa5" d="M263.66,-101.02C334.78,-112.05 423.95,-125.89 487.07,-135.68"/>
<polygon fill="#4a6fa5" stroke="#4a6fa5" points="486.95,-138.14 494.24,-136.79 487.7,-133.3 486.95,-138.14"/>
</g>
<!-- Node0x6027651fe360&#45;&gt;Node0x6027651e4360 -->
<g id="edge32" class="edge">
<title>Node0x6027651fe360&#45;&gt;Node0x6027651e4360</title>
<path fill="none" stroke="#4a6fa5" d="M254.93,-101.07C268.04,-104.89 281.02,-109.48 293,-115 336.51,-135.05 335.07,-160.87 379,-180 414.65,-195.53 457.14,-203.75 492.65,-208.11"/>
<polygon fill="#4a6fa5" stroke="#4a6fa5" points="492.41,-210.55 499.65,-208.93 492.98,-205.68 492.41,-210.55"/>
</g>
<!-- Node0x6027652065b0 -->
<g id="node38" class="node">
<title>Node0x6027652065b0</title>
<path fill="#f0f4ff" stroke="black" d="M218,-556C218,-556 75,-556 75,-556 69,-556 63,-550 63,-544 63,-544 63,-532 63,-532 63,-526 69,-520 75,-520 75,-520 218,-520 218,-520 224,-520 230,-526 230,-532 230,-532 230,-544 230,-544 230,-550 224,-556 218,-556"/>
<text text-anchor="middle" x="146.5" y="-535.8" font-family="Courier,monospace" font-size="9.00">{CIccMpeEAcs::~CIccMpeEAcs()}</text>
</g>
<!-- Node0x6027652065b0&#45;&gt;Node0x6027651d5710 -->
<g id="edge33" class="edge">
<title>Node0x6027652065b0&#45;&gt;Node0x6027651d5710</title>
<path fill="none" stroke="#4a6fa5" d="M230.28,-538C303.03,-538 408.43,-538 481.75,-538"/>
<polygon fill="#4a6fa5" stroke="#4a6fa5" points="482.19,-540.45 489.19,-538 482.19,-535.55 482.19,-540.45"/>
</g>
<!-- Node0x602765208400 -->
<g id="node39" class="node">
<title>Node0x602765208400</title>
<path fill="#f0f4ff" stroke="black" d="M218,-12490C218,-12490 75,-12490 75,-12490 69,-12490 63,-12484 63,-12478 63,-12478 63,-12466 63,-12466 63,-12460 69,-12454 75,-12454 75,-12454 218,-12454 218,-12454 224,-12454 230,-12460 230,-12466 230,-12466 230,-12478 230,-12478 230,-12484 224,-12490 218,-12490"/>
<text text-anchor="middle" x="146.5" y="-12469.8" font-family="Courier,monospace" font-size="9.00">{CIccMpeEAcs::~CIccMpeEAcs()}</text>
</g>
<!-- Node0x602765208400&#45;&gt;Node0x602765205340 -->
<g id="edge34" class="edge">
<title>Node0x602765208400&#45;&gt;Node0x602765205340</title>
<path fill="none" stroke="#4a6fa5" d="M230.28,-12468.64C319.79,-12465.01 458.74,-12459.37 526.55,-12456.62"/>
<polygon fill="#4a6fa5" stroke="#4a6fa5" points="526.78,-12459.06 533.67,-12456.33 526.58,-12454.17 526.78,-12459.06"/>
</g>
<!-- Node0x6027652082b0 -->
<g id="node40" class="node">
<title>Node0x6027652082b0</title>
<path fill="#f0f4ff" stroke="black" d="M194.5,-12990C194.5,-12990 98.5,-12990 98.5,-12990 92.5,-12990 86.5,-12984 86.5,-12978 86.5,-12978 86.5,-12966 86.5,-12966 86.5,-12960 92.5,-12954 98.5,-12954 98.5,-12954 194.5,-12954 194.5,-12954 200.5,-12954 206.5,-12960 206.5,-12966 206.5,-12966 206.5,-12978 206.5,-12978 206.5,-12984 200.5,-12990 194.5,-12990"/>
<text text-anchor="middle" x="146.5" y="-12969.8" font-family="Courier,monospace" font-size="9.00">{__cxa_pure_virtual}</text>
</g>
<!-- Node0x602765207c30 -->
<g id="node41" class="node">
<title>Node0x602765207c30</title>
<path fill="#f0f4ff" stroke="black" d="M260,-13240C260,-13240 33,-13240 33,-13240 27,-13240 21,-13234 21,-13228 21,-13228 21,-13216 21,-13216 21,-13210 27,-13204 33,-13204 33,-13204 260,-13204 260,-13204 266,-13204 272,-13210 272,-13216 272,-13216 272,-13228 272,-13228 272,-13234 266,-13240 260,-13240"/>
<text text-anchor="middle" x="146.5" y="-13219.8" font-family="Courier,monospace" font-size="9.00">{CIccMultiProcessElement::NumInputChannels()}</text>
</g>
<!-- Node0x6027652066f0 -->
<g id="node42" class="node">
<title>Node0x6027652066f0</title>
<path fill="#f0f4ff" stroke="black" d="M262.5,-13397C262.5,-13397 30.5,-13397 30.5,-13397 24.5,-13397 18.5,-13391 18.5,-13385 18.5,-13385 18.5,-13373 18.5,-13373 18.5,-13367 24.5,-13361 30.5,-13361 30.5,-13361 262.5,-13361 262.5,-13361 268.5,-13361 274.5,-13367 274.5,-13373 274.5,-13373 274.5,-13385 274.5,-13385 274.5,-13391 268.5,-13397 262.5,-13397"/>
<text text-anchor="middle" x="146.5" y="-13376.8" font-family="Courier,monospace" font-size="9.00">{CIccMultiProcessElement::NumOutputChannels()}</text>
</g>
<!-- Node0x6027651eba60 -->
<g id="node43" class="node">
<title>Node0x6027651eba60</title>
<path fill="#f0f4ff" stroke="black" d="M247,-13508C247,-13508 46,-13508 46,-13508 40,-13508 34,-13502 34,-13496 34,-13496 34,-13484 34,-13484 34,-13478 40,-13472 46,-13472 46,-13472 247,-13472 247,-13472 253,-13472 259,-13478 259,-13484 259,-13484 259,-13496 259,-13496 259,-13502 253,-13508 247,-13508"/>
<text text-anchor="middle" x="146.5" y="-13487.8" font-family="Courier,monospace" font-size="9.00">{CIccMultiProcessElement::IsSupported()}</text>
</g>
<!-- Node0x6027651eb860 -->
<g id="node44" class="node">
<title>Node0x6027651eb860</title>
<path fill="#f0f4ff" stroke="black" d="M247,-13596C247,-13596 46,-13596 46,-13596 40,-13596 34,-13590 34,-13584 34,-13584 34,-13572 34,-13572 34,-13566 40,-13560 46,-13560 46,-13560 247,-13560 247,-13560 253,-13560 259,-13566 259,-13572 259,-13572 259,-13584 259,-13584 259,-13590 253,-13596 247,-13596"/>
<text text-anchor="middle" x="146.5" y="-13575.8" font-family="Courier,monospace" font-size="9.00">{CIccMultiProcessElement::GetNewApply()}</text>
</g>
<!-- Node0x6027651eb5e0 -->
<g id="node45" class="node">
<title>Node0x6027651eb5e0</title>
<path fill="#f0f4ff" stroke="black" d="M197,-13673C197,-13673 96,-13673 96,-13673 90,-13673 84,-13667 84,-13661 84,-13661 84,-13649 84,-13649 84,-13643 90,-13637 96,-13637 96,-13637 197,-13637 197,-13637 203,-13637 209,-13643 209,-13649 209,-13649 209,-13661 209,-13661 209,-13667 203,-13673 197,-13673"/>
<text text-anchor="middle" x="146.5" y="-13652.8" font-family="Courier,monospace" font-size="9.00">{CIccMpeAcs::IsAcs()}</text>
</g>
<!-- Node0x6027652089a0 -->
<g id="node46" class="node">
<title>Node0x6027652089a0</title>
<path fill="#f0f4ff" stroke="black" d="M244,-13744C244,-13744 49,-13744 49,-13744 43,-13744 37,-13738 37,-13732 37,-13732 37,-13720 37,-13720 37,-13714 43,-13708 49,-13708 49,-13708 244,-13708 244,-13708 250,-13708 256,-13714 256,-13720 256,-13720 256,-13732 256,-13732 256,-13738 250,-13744 244,-13744"/>
<text text-anchor="middle" x="146.5" y="-13723.8" font-family="Courier,monospace" font-size="9.00">{CIccMultiProcessElement::GetBAcsSig()}</text>
</g>
<!-- Node0x602765209240 -->
<g id="node47" class="node">
<title>Node0x602765209240</title>
<path fill="#f0f4ff" stroke="black" d="M244,-13812C244,-13812 49,-13812 49,-13812 43,-13812 37,-13806 37,-13800 37,-13800 37,-13788 37,-13788 37,-13782 43,-13776 49,-13776 49,-13776 244,-13776 244,-13776 250,-13776 256,-13782 256,-13788 256,-13788 256,-13800 256,-13800 256,-13806 250,-13812 244,-13812"/>
<text text-anchor="middle" x="146.5" y="-13791.8" font-family="Courier,monospace" font-size="9.00">{CIccMultiProcessElement::GetEAcsSig()}</text>
</g>
<!-- Node0x60276520d2b0 -->
<g id="node48" class="node">
<title>Node0x60276520d2b0</title>
<path fill="#f0f4ff" stroke="black" d="M249.5,-13878C249.5,-13878 43.5,-13878 43.5,-13878 37.5,-13878 31.5,-13872 31.5,-13866 31.5,-13866 31.5,-13854 31.5,-13854 31.5,-13848 37.5,-13842 43.5,-13842 43.5,-13842 249.5,-13842 249.5,-13842 255.5,-13842 261.5,-13848 261.5,-13854 261.5,-13854 261.5,-13866 261.5,-13866 261.5,-13872 255.5,-13878 249.5,-13878"/>
<text text-anchor="middle" x="146.5" y="-13857.8" font-family="Courier,monospace" font-size="9.00">{CIccMultiProcessElement::GetExtension()}</text>
</g>
<!-- Node0x60276520ce80 -->
<g id="node49" class="node">
<title>Node0x60276520ce80</title>
<path fill="#f0f4ff" stroke="black" d="M252,-13944C252,-13944 41,-13944 41,-13944 35,-13944 29,-13938 29,-13932 29,-13932 29,-13920 29,-13920 29,-13914 35,-13908 41,-13908 41,-13908 252,-13908 252,-13908 258,-13908 264,-13914 264,-13920 264,-13920 264,-13932 264,-13932 264,-13938 258,-13944 252,-13944"/>
<text text-anchor="middle" x="146.5" y="-13923.8" font-family="Courier,monospace" font-size="9.00">{CIccMultiProcessElement::IsLateBinding()}</text>
</g>
<!-- Node0x6027651f73a0 -->
<g id="node50" class="node">
<title>Node0x6027651f73a0</title>
<path fill="#f0f4ff" stroke="black" d="M281,-14009C281,-14009 12,-14009 12,-14009 6,-14009 0,-14003 0,-13997 0,-13997 0,-13985 0,-13985 0,-13979 6,-13973 12,-13973 12,-13973 281,-13973 281,-13973 287,-13973 293,-13979 293,-13985 293,-13985 293,-13997 293,-13997 293,-14003 287,-14009 281,-14009"/>
<text text-anchor="middle" x="146.5" y="-13988.8" font-family="Courier,monospace" font-size="9.00">{CIccMultiProcessElement::IsLateBindingReflectance()}</text>
</g>
<!-- Node0x60276520a6b0 -->
<g id="node51" class="node">
<title>Node0x60276520a6b0</title>
<path fill="#f0f4ff" stroke="black" d="M207.5,-14074C207.5,-14074 85.5,-14074 85.5,-14074 79.5,-14074 73.5,-14068 73.5,-14062 73.5,-14062 73.5,-14050 73.5,-14050 73.5,-14044 79.5,-14038 85.5,-14038 85.5,-14038 207.5,-14038 207.5,-14038 213.5,-14038 219.5,-14044 219.5,-14050 219.5,-14050 219.5,-14062 219.5,-14062 219.5,-14068 213.5,-14074 207.5,-14074"/>
<text text-anchor="middle" x="146.5" y="-14053.8" font-family="Courier,monospace" font-size="9.00">{CIccMpeAcs::GetAcsSig()}</text>
</g>
<!-- Node0x60276520a210 -->
<g id="node52" class="node">
<title>Node0x60276520a210</title>
<path fill="#f0f4ff" stroke="black" d="M205,-12425C205,-12425 88,-12425 88,-12425 82,-12425 76,-12419 76,-12413 76,-12413 76,-12401 76,-12401 76,-12395 82,-12389 88,-12389 88,-12389 205,-12389 205,-12389 211,-12389 217,-12395 217,-12401 217,-12401 217,-12413 217,-12413 217,-12419 211,-12425 205,-12425"/>
<text text-anchor="middle" x="146.5" y="-12404.8" font-family="Courier,monospace" font-size="9.00">{CIccMpeBAcs::NewCopy()}</text>
</g>
<!-- Node0x60276520a210&#45;&gt;Node0x602765205340 -->
<g id="edge36" class="edge">
<title>Node0x60276520a210&#45;&gt;Node0x602765205340</title>
<path fill="none" stroke="#4a6fa5" d="M217.16,-12414.98C305.8,-12425.13 455.91,-12442.33 526.96,-12450.47"/>
<polygon fill="#4a6fa5" stroke="#4a6fa5" points="526.76,-12452.91 534,-12451.28 527.32,-12448.05 526.76,-12452.91"/>
</g>
<!-- Node0x602765209f20 -->
<g id="node53" class="node">
<title>Node0x602765209f20</title>
<path fill="#f0f4ff" stroke="black" d="M582.5,-12376C582.5,-12376 552.5,-12376 552.5,-12376 546.5,-12376 540.5,-12370 540.5,-12364 540.5,-12364 540.5,-12352 540.5,-12352 540.5,-12346 546.5,-12340 552.5,-12340 552.5,-12340 582.5,-12340 582.5,-12340 588.5,-12340 594.5,-12346 594.5,-12352 594.5,-12352 594.5,-12364 594.5,-12364 594.5,-12370 588.5,-12376 582.5,-12376"/>
<text text-anchor="middle" x="567.5" y="-12355.8" font-family="Courier,monospace" font-size="9.00">{new()}</text>
</g>
<!-- Node0x60276520a210&#45;&gt;Node0x602765209f20 -->
<g id="edge35" class="edge">
<title>Node0x60276520a210&#45;&gt;Node0x602765209f20</title>
<path fill="none" stroke="#4a6fa5" d="M217.16,-12398.85C308.54,-12388.17 465.25,-12369.84 533.32,-12361.88"/>
<polygon fill="#4a6fa5" stroke="#4a6fa5" points="533.73,-12364.3 540.4,-12361.05 533.16,-12359.43 533.73,-12364.3"/>
</g>
<!-- Node0x602765209e60 -->
<g id="node54" class="node">
<title>Node0x602765209e60</title>
<path fill="#f0f4ff" stroke="black" d="M205,-14139C205,-14139 88,-14139 88,-14139 82,-14139 76,-14133 76,-14127 76,-14127 76,-14115 76,-14115 76,-14109 82,-14103 88,-14103 88,-14103 205,-14103 205,-14103 211,-14103 217,-14109 217,-14115 217,-14115 217,-14127 217,-14127 217,-14133 211,-14139 205,-14139"/>
<text text-anchor="middle" x="146.5" y="-14118.8" font-family="Courier,monospace" font-size="9.00">{CIccMpeBAcs::GetType()}</text>
</g>
<!-- Node0x602765218260 -->
<g id="node55" class="node">
<title>Node0x602765218260</title>
<path fill="#f0f4ff" stroke="black" d="M218,-14204C218,-14204 75,-14204 75,-14204 69,-14204 63,-14198 63,-14192 63,-14192 63,-14180 63,-14180 63,-14174 69,-14168 75,-14168 75,-14168 218,-14168 218,-14168 224,-14168 230,-14174 230,-14180 230,-14180 230,-14192 230,-14192 230,-14198 224,-14204 218,-14204"/>
<text text-anchor="middle" x="146.5" y="-14183.8" font-family="Courier,monospace" font-size="9.00">{CIccMpeBAcs::GetClassName()}</text>
</g>
<!-- Node0x602765219190 -->
<g id="node56" class="node">
<title>Node0x602765219190</title>
<path fill="#f0f4ff" stroke="black" d="M212.5,-14269C212.5,-14269 80.5,-14269 80.5,-14269 74.5,-14269 68.5,-14263 68.5,-14257 68.5,-14257 68.5,-14245 68.5,-14245 68.5,-14239 74.5,-14233 80.5,-14233 80.5,-14233 212.5,-14233 212.5,-14233 218.5,-14233 224.5,-14239 224.5,-14245 224.5,-14245 224.5,-14257 224.5,-14257 224.5,-14263 218.5,-14269 212.5,-14269"/>
<text text-anchor="middle" x="146.5" y="-14248.8" font-family="Courier,monospace" font-size="9.00">{CIccMpeBAcs::GetBAcsSig()}</text>
</g>
<!-- Node0x602765218790 -->
<g id="node57" class="node">
<title>Node0x602765218790</title>
<path fill="#f0f4ff" stroke="black" d="M205,-12360C205,-12360 88,-12360 88,-12360 82,-12360 76,-12354 76,-12348 76,-12348 76,-12336 76,-12336 76,-12330 82,-12324 88,-12324 88,-12324 205,-12324 205,-12324 211,-12324 217,-12330 217,-12336 217,-12336 217,-12348 217,-12348 217,-12354 211,-12360 205,-12360"/>
<text text-anchor="middle" x="146.5" y="-12339.8" font-family="Courier,monospace" font-size="9.00">{CIccMpeEAcs::NewCopy()}</text>
</g>
<!-- Node0x602765218790&#45;&gt;Node0x602765205340 -->
<g id="edge38" class="edge">
<title>Node0x602765218790&#45;&gt;Node0x602765205340</title>
<path fill="none" stroke="#4a6fa5" d="M217.28,-12356.91C241.35,-12362.3 268.43,-12368.63 293,-12375 376.87,-12396.75 473.99,-12426.19 526.98,-12442.61"/>
<polygon fill="#4a6fa5" stroke="#4a6fa5" points="526.43,-12445 533.84,-12444.74 527.88,-12440.32 526.43,-12445"/>
</g>
<!-- Node0x602765218790&#45;&gt;Node0x602765209f20 -->
<g id="edge37" class="edge">
<title>Node0x602765218790&#45;&gt;Node0x602765209f20</title>
<path fill="none" stroke="#4a6fa5" d="M217.16,-12344.66C308.54,-12348.15 465.25,-12354.13 533.32,-12356.73"/>
<polygon fill="#4a6fa5" stroke="#4a6fa5" points="533.31,-12359.18 540.4,-12357 533.5,-12354.29 533.31,-12359.18"/>
</g>
<!-- Node0x602765218650 -->
<g id="node58" class="node">
<title>Node0x602765218650</title>
<path fill="#f0f4ff" stroke="black" d="M205,-14334C205,-14334 88,-14334 88,-14334 82,-14334 76,-14328 76,-14322 76,-14322 76,-14310 76,-14310 76,-14304 82,-14298 88,-14298 88,-14298 205,-14298 205,-14298 211,-14298 217,-14304 217,-14310 217,-14310 217,-14322 217,-14322 217,-14328 211,-14334 205,-14334"/>
<text text-anchor="middle" x="146.5" y="-14313.8" font-family="Courier,monospace" font-size="9.00">{CIccMpeEAcs::GetType()}</text>
</g>
<!-- Node0x6027652183b0 -->
<g id="node59" class="node">
<title>Node0x6027652183b0</title>
<path fill="#f0f4ff" stroke="black" d="M218,-14399C218,-14399 75,-14399 75,-14399 69,-14399 63,-14393 63,-14387 63,-14387 63,-14375 63,-14375 63,-14369 69,-14363 75,-14363 75,-14363 218,-14363 218,-14363 224,-14363 230,-14369 230,-14375 230,-14375 230,-14387 230,-14387 230,-14393 224,-14399 218,-14399"/>
<text text-anchor="middle" x="146.5" y="-14378.8" font-family="Courier,monospace" font-size="9.00">{CIccMpeEAcs::GetClassName()}</text>
</g>
</g>
</svg>
