<?xml version="1.0" encoding="UTF-8" standalone="no"?>
<!DOCTYPE svg PUBLIC "-//W3C//DTD SVG 1.1//EN"
 "http://www.w3.org/Graphics/SVG/1.1/DTD/svg11.dtd">
<!-- Generated by graphviz version 2.43.0 (0)
 -->
<!-- Title: Call graph: /home/h02332/po/research/call&#45;graph/iccdev/proflib/IccMD5.ll Pages: 1 -->
<svg width="515pt" height="166pt"
 viewBox="0.00 0.00 515.20 166.20" xmlns="http://www.w3.org/2000/svg" xmlns:xlink="http://www.w3.org/1999/xlink">
<g id="graph0" class="graph" transform="scale(1 1) rotate(0) translate(21.6 144.6)">
<title>Call graph: /home/h02332/po/research/call&#45;graph/iccdev/proflib/IccMD5.ll</title>
<polygon fill="white" stroke="transparent" points="-21.6,21.6 -21.6,-144.6 493.6,-144.6 493.6,21.6 -21.6,21.6"/>
<!-- Node0x5ec028dc0430 -->
<g id="node1" class="node">
<title>Node0x5ec028dc0430</title>
<path fill="#f0f4ff" stroke="black" d="M61,-36C61,-36 15,-36 15,-36 9,-36 3,-30 3,-24 3,-24 3,-12 3,-12 3,-6 9,0 15,0 15,0 61,0 61,0 67,0 73,-6 73,-12 73,-12 73,-24 73,-24 73,-30 67,-36 61,-36"/>
<text text-anchor="middle" x="38" y="-15.8" font-family="Courier,monospace" font-size="9.00">icMD5Init()</text>
</g>
<!-- Node0x5ec028dbfbb0 -->
<g id="node2" class="node">
<title>Node0x5ec028dbfbb0</title>
<path fill="#f0f4ff" stroke="black" d="M203,-123C203,-123 146,-123 146,-123 140,-123 134,-117 134,-111 134,-111 134,-99 134,-99 134,-93 140,-87 146,-87 146,-87 203,-87 203,-87 209,-87 215,-93 215,-99 215,-99 215,-111 215,-111 215,-117 209,-123 203,-123"/>
<text text-anchor="middle" x="174.5" y="-102.8" font-family="Courier,monospace" font-size="9.00">icMD5Update()</text>
</g>
<!-- Node0x5ec028dbb040 -->
<g id="node3" class="node">
<title>Node0x5ec028dbb040</title>
<path fill="#f0f4ff" stroke="black" d="M347,-123C347,-123 285,-123 285,-123 279,-123 273,-117 273,-111 273,-111 273,-99 273,-99 273,-93 279,-87 285,-87 285,-87 347,-87 347,-87 353,-87 359,-93 359,-99 359,-99 359,-111 359,-111 359,-117 353,-123 347,-123"/>
<text text-anchor="middle" x="316" y="-102.8" font-family="Courier,monospace" font-size="9.00">MD5Transform()</text>
</g>
<!-- Node0x5ec028dbfbb0&#45;&gt;Node0x5ec028dbb040 -->
<g id="edge1" class="edge">
<title>Node0x5ec028dbfbb0&#45;&gt;Node0x5ec028dbb040</title>
<path fill="none" stroke="#4a6fa5" d="M215.1,-105C231.17,-105 249.89,-105 266.74,-105"/>
<polygon fill="#4a6fa5" stroke="#4a6fa5" points="266.86,-107.1 272.86,-105 266.86,-102.9 266.86,-107.1"/>
</g>
<!-- Node0x5ec028dbba80 -->
<g id="node4" class="node">
<title>Node0x5ec028dbba80</title>
<path fill="#f0f4ff" stroke="black" d="M460,-123C460,-123 429,-123 429,-123 423,-123 417,-117 417,-111 417,-111 417,-99 417,-99 417,-93 423,-87 429,-87 429,-87 460,-87 460,-87 466,-87 472,-93 472,-99 472,-99 472,-111 472,-111 472,-117 466,-123 460,-123"/>
<text text-anchor="middle" x="444.5" y="-102.8" font-family="Courier,monospace" font-size="9.00">Decode()</text>
</g>
<!-- Node0x5ec028dbb040&#45;&gt;Node0x5ec028dbba80 -->
<g id="edge2" class="edge">
<title>Node0x5ec028dbb040&#45;&gt;Node0x5ec028dbba80</title>
<path fill="none" stroke="#4a6fa5" d="M359.12,-105C375.87,-105 394.86,-105 410.57,-105"/>
<polygon fill="#4a6fa5" stroke="#4a6fa5" points="410.64,-107.1 416.64,-105 410.64,-102.9 410.64,-107.1"/>
</g>
<!-- Node0x5ec028d23080 -->
<g id="node5" class="node">
<title>Node0x5ec028d23080</title>
<path fill="#f0f4ff" stroke="black" d="M64,-94C64,-94 12,-94 12,-94 6,-94 0,-88 0,-82 0,-82 0,-70 0,-70 0,-64 6,-58 12,-58 12,-58 64,-58 64,-58 70,-58 76,-64 76,-70 76,-70 76,-82 76,-82 76,-88 70,-94 64,-94"/>
<text text-anchor="middle" x="38" y="-73.8" font-family="Courier,monospace" font-size="9.00">icMD5Final()</text>
</g>
<!-- Node0x5ec028d23080&#45;&gt;Node0x5ec028dbfbb0 -->
<g id="edge4" class="edge">
<title>Node0x5ec028d23080&#45;&gt;Node0x5ec028dbfbb0</title>
<path fill="none" stroke="#4a6fa5" d="M76.11,-84C92.04,-87.44 110.81,-91.48 127.6,-95.1"/>
<polygon fill="#4a6fa5" stroke="#4a6fa5" points="127.38,-97.2 133.69,-96.42 128.26,-93.1 127.38,-97.2"/>
</g>
<!-- Node0x5ec028dc27e0 -->
<g id="node6" class="node">
<title>Node0x5ec028dc27e0</title>
<path fill="#f0f4ff" stroke="black" d="M190,-65C190,-65 159,-65 159,-65 153,-65 147,-59 147,-53 147,-53 147,-41 147,-41 147,-35 153,-29 159,-29 159,-29 190,-29 190,-29 196,-29 202,-35 202,-41 202,-41 202,-53 202,-53 202,-59 196,-65 190,-65"/>
<text text-anchor="middle" x="174.5" y="-44.8" font-family="Courier,monospace" font-size="9.00">Encode()</text>
</g>
<!-- Node0x5ec028d23080&#45;&gt;Node0x5ec028dc27e0 -->
<g id="edge3" class="edge">
<title>Node0x5ec028d23080&#45;&gt;Node0x5ec028dc27e0</title>
<path fill="none" stroke="#4a6fa5" d="M76.11,-68C96.4,-63.62 121.31,-58.25 140.86,-54.04"/>
<polygon fill="#4a6fa5" stroke="#4a6fa5" points="141.32,-56.09 146.75,-52.77 140.44,-51.98 141.32,-56.09"/>
</g>
</g>
</svg>
