<?xml version="1.0" encoding="UTF-8" standalone="no"?>
<!DOCTYPE svg PUBLIC "-//W3C//DTD SVG 1.1//EN"
 "http://www.w3.org/Graphics/SVG/1.1/DTD/svg11.dtd">
<!-- Generated by graphviz version 2.43.0 (0)
 -->
<!-- Title: Call graph: /home/h02332/po/research/call&#45;graph/iccdev/proflib/IccMatrixMath.ll Pages: 1 -->
<svg width="5176pt" height="214pt"
 viewBox="0.00 0.00 5175.50 214.00" xmlns="http://www.w3.org/2000/svg" xmlns:xlink="http://www.w3.org/1999/xlink">
<g id="graph0" class="graph" transform="scale(1 1) rotate(0) translate(4 210)">
<title>Call graph: /home/h02332/po/research/call&#45;graph/iccdev/proflib/IccMatrixMath.ll</title>
<polygon fill="white" stroke="transparent" points="-4,4 -4,-210 5171.5,-210 5171.5,4 -4,4"/>
<text text-anchor="middle" x="2583.75" y="-7.8" font-family="Times,serif" font-size="14.00">Call graph: /home/h02332/po/research/call&#45;graph/iccdev/proflib/IccMatrixMath.ll</text>
<!-- Node0x5fc293970d70 -->
<g id="node1" class="node">
<title>Node0x5fc293970d70</title>
<polygon fill="none" stroke="black" points="351,-96.5 351,-132.5 581,-132.5 581,-96.5 351,-96.5"/>
<text text-anchor="middle" x="466" y="-110.8" font-family="Times,serif" font-size="14.00">_ZN14CIccMatrixMathC2Ettb</text>
</g>
<!-- Node0x5fc293965cb0 -->
<g id="node2" class="node">
<title>Node0x5fc293965cb0</title>
<polygon fill="none" stroke="black" points="200.5,-23.5 200.5,-59.5 415.5,-59.5 415.5,-23.5 200.5,-23.5"/>
<text text-anchor="middle" x="308" y="-37.8" font-family="Times,serif" font-size="14.00">llvm.umul.with.overflow.i64</text>
</g>
<!-- Node0x5fc293970d70&#45;&gt;Node0x5fc293965cb0 -->
<g id="edge1" class="edge">
<title>Node0x5fc293970d70&#45;&gt;Node0x5fc293965cb0</title>
<path fill="none" stroke="black" d="M428.16,-96.49C406.33,-86.69 378.69,-74.27 355.42,-63.81"/>
<polygon fill="black" stroke="black" points="356.64,-60.52 346.08,-59.61 353.77,-66.9 356.64,-60.52"/>
</g>
<!-- Node0x5fc293968260 -->
<g id="node3" class="node">
<title>Node0x5fc293968260</title>
<polygon fill="none" stroke="black" points="434,-23.5 434,-59.5 498,-59.5 498,-23.5 434,-23.5"/>
<text text-anchor="middle" x="466" y="-37.8" font-family="Times,serif" font-size="14.00">_Znam</text>
</g>
<!-- Node0x5fc293970d70&#45;&gt;Node0x5fc293968260 -->
<g id="edge2" class="edge">
<title>Node0x5fc293970d70&#45;&gt;Node0x5fc293968260</title>
<path fill="none" stroke="black" d="M466,-96.31C466,-88.29 466,-78.55 466,-69.57"/>
<polygon fill="black" stroke="black" points="469.5,-69.53 466,-59.53 462.5,-69.53 469.5,-69.53"/>
</g>
<!-- Node0x5fc2938cde10 -->
<g id="node4" class="node">
<title>Node0x5fc2938cde10</title>
<polygon fill="none" stroke="black" points="617,-23.5 617,-59.5 775,-59.5 775,-23.5 617,-23.5"/>
<text text-anchor="middle" x="696" y="-37.8" font-family="Times,serif" font-size="14.00">llvm.memset.p0.i64</text>
</g>
<!-- Node0x5fc293970d70&#45;&gt;Node0x5fc2938cde10 -->
<g id="edge3" class="edge">
<title>Node0x5fc293970d70&#45;&gt;Node0x5fc2938cde10</title>
<path fill="none" stroke="black" d="M521.09,-96.49C554.13,-86.29 596.33,-73.27 631,-62.57"/>
<polygon fill="black" stroke="black" points="632.04,-65.91 640.56,-59.61 629.97,-59.22 632.04,-65.91"/>
</g>
<!-- Node0x5fc2938a9840 -->
<g id="node5" class="node">
<title>Node0x5fc2938a9840</title>
<polygon fill="none" stroke="black" points="893.5,-23.5 893.5,-59.5 1142.5,-59.5 1142.5,-23.5 893.5,-23.5"/>
<text text-anchor="middle" x="1018" y="-37.8" font-family="Times,serif" font-size="14.00">_ZN14CIccMatrixMath5entryEtt</text>
</g>
<!-- Node0x5fc293970d70&#45;&gt;Node0x5fc2938a9840 -->
<g id="edge4" class="edge">
<title>Node0x5fc293970d70&#45;&gt;Node0x5fc2938a9840</title>
<path fill="none" stroke="black" d="M581.17,-97.18C584.14,-96.78 587.09,-96.39 590,-96 688.08,-82.95 798.93,-69.12 883.24,-58.79"/>
<polygon fill="black" stroke="black" points="883.89,-62.24 893.39,-57.55 883.04,-55.29 883.89,-62.24"/>
</g>
<!-- Node0x5fc2938daef0 -->
<g id="node6" class="node">
<title>Node0x5fc2938daef0</title>
<polygon fill="none" stroke="black" points="85.5,-96.5 85.5,-132.5 332.5,-132.5 332.5,-96.5 85.5,-96.5"/>
<text text-anchor="middle" x="209" y="-110.8" font-family="Times,serif" font-size="14.00">_ZN14CIccMatrixMathC2ERKS_</text>
</g>
<!-- Node0x5fc2938daef0&#45;&gt;Node0x5fc293965cb0 -->
<g id="edge5" class="edge">
<title>Node0x5fc2938daef0&#45;&gt;Node0x5fc293965cb0</title>
<path fill="none" stroke="black" d="M232.71,-96.49C245.6,-87.25 261.72,-75.69 275.73,-65.64"/>
<polygon fill="black" stroke="black" points="278.05,-68.29 284.14,-59.61 273.97,-62.6 278.05,-68.29"/>
</g>
<!-- Node0x5fc2938daef0&#45;&gt;Node0x5fc293968260 -->
<g id="edge6" class="edge">
<title>Node0x5fc2938daef0&#45;&gt;Node0x5fc293968260</title>
<path fill="none" stroke="black" d="M289.71,-96.46C330.4,-87.1 380.27,-74.46 424,-60 424.1,-59.97 424.2,-59.93 424.3,-59.9"/>
<polygon fill="black" stroke="black" points="425.39,-63.23 433.62,-56.56 423.03,-56.64 425.39,-63.23"/>
</g>
<!-- Node0x5fc2938ce390 -->
<g id="node7" class="node">
<title>Node0x5fc2938ce390</title>
<polygon fill="none" stroke="black" points="0,-23.5 0,-59.5 182,-59.5 182,-23.5 0,-23.5"/>
<text text-anchor="middle" x="91" y="-37.8" font-family="Times,serif" font-size="14.00">llvm.memcpy.p0.p0.i64</text>
</g>
<!-- Node0x5fc2938daef0&#45;&gt;Node0x5fc2938ce390 -->
<g id="edge7" class="edge">
<title>Node0x5fc2938daef0&#45;&gt;Node0x5fc2938ce390</title>
<path fill="none" stroke="black" d="M180.74,-96.49C164.94,-86.99 145.07,-75.04 128.05,-64.79"/>
<polygon fill="black" stroke="black" points="129.82,-61.77 119.44,-59.61 126.21,-67.77 129.82,-61.77"/>
</g>
<!-- Node0x5fc293974db0 -->
<g id="node8" class="node">
<title>Node0x5fc293974db0</title>
<polygon fill="none" stroke="black" points="3903,-169.5 3903,-205.5 4121,-205.5 4121,-169.5 3903,-169.5"/>
<text text-anchor="middle" x="4012" y="-183.8" font-family="Times,serif" font-size="14.00">_ZN14CIccMatrixMathD2Ev</text>
</g>
<!-- Node0x5fc293988cf0 -->
<g id="node9" class="node">
<title>Node0x5fc293988cf0</title>
<polygon fill="none" stroke="black" points="3978,-96.5 3978,-132.5 4046,-132.5 4046,-96.5 3978,-96.5"/>
<text text-anchor="middle" x="4012" y="-110.8" font-family="Times,serif" font-size="14.00">_ZdaPv</text>
</g>
<!-- Node0x5fc293974db0&#45;&gt;Node0x5fc293988cf0 -->
<g id="edge8" class="edge">
<title>Node0x5fc293974db0&#45;&gt;Node0x5fc293988cf0</title>
<path fill="none" stroke="black" d="M4012,-169.31C4012,-161.29 4012,-151.55 4012,-142.57"/>
<polygon fill="black" stroke="black" points="4015.5,-142.53 4012,-132.53 4008.5,-142.53 4015.5,-142.53"/>
</g>
<!-- Node0x5fc293988410 -->
<g id="node10" class="node">
<title>Node0x5fc293988410</title>
<polygon fill="none" stroke="black" points="1662,-96.5 1662,-132.5 1880,-132.5 1880,-96.5 1662,-96.5"/>
<text text-anchor="middle" x="1771" y="-110.8" font-family="Times,serif" font-size="14.00">_ZN14CIccMatrixMathD0Ev</text>
</g>
<!-- Node0x5fc2939761c0 -->
<g id="node11" class="node">
<title>Node0x5fc2939761c0</title>
<polygon fill="none" stroke="black" points="1875.5,-23.5 1875.5,-59.5 1940.5,-59.5 1940.5,-23.5 1875.5,-23.5"/>
<text text-anchor="middle" x="1908" y="-37.8" font-family="Times,serif" font-size="14.00">_ZdlPv</text>
</g>
<!-- Node0x5fc293988410&#45;&gt;Node0x5fc2939761c0 -->
<g id="edge9" class="edge">
<title>Node0x5fc293988410&#45;&gt;Node0x5fc2939761c0</title>
<path fill="none" stroke="black" d="M1803.81,-96.49C1822.62,-86.75 1846.41,-74.42 1866.51,-64"/>
<polygon fill="black" stroke="black" points="1868.18,-67.08 1875.45,-59.37 1864.96,-60.86 1868.18,-67.08"/>
</g>
<!-- Node0x5fc2939890b0 -->
<g id="node12" class="node">
<title>Node0x5fc2939890b0</title>
<polygon fill="none" stroke="black" points="2272,-96.5 2272,-132.5 2610,-132.5 2610,-96.5 2272,-96.5"/>
<text text-anchor="middle" x="2441" y="-110.8" font-family="Times,serif" font-size="14.00">_ZNK14CIccMatrixMath10VectorMultEPfPKf</text>
</g>
<!-- Node0x5fc29398aa10 -->
<g id="node13" class="node">
<title>Node0x5fc29398aa10</title>
<polygon fill="none" stroke="black" points="2660,-23.5 2660,-59.5 2920,-59.5 2920,-23.5 2660,-23.5"/>
<text text-anchor="middle" x="2790" y="-37.8" font-family="Times,serif" font-size="14.00">_ZNK14CIccMatrixMath5entryEtt</text>
</g>
<!-- Node0x5fc2939890b0&#45;&gt;Node0x5fc29398aa10 -->
<g id="edge10" class="edge">
<title>Node0x5fc2939890b0&#45;&gt;Node0x5fc29398aa10</title>
<path fill="none" stroke="black" d="M2524.59,-96.49C2576.33,-85.97 2642.85,-72.44 2696.35,-61.55"/>
<polygon fill="black" stroke="black" points="2697.08,-64.98 2706.18,-59.55 2695.68,-58.12 2697.08,-64.98"/>
</g>
<!-- Node0x5fc293989870 -->
<g id="node14" class="node">
<title>Node0x5fc293989870</title>
<polygon fill="none" stroke="black" points="2007,-23.5 2007,-59.5 2145,-59.5 2145,-23.5 2007,-23.5"/>
<text text-anchor="middle" x="2076" y="-37.8" font-family="Times,serif" font-size="14.00">llvm.fmuladd.f32</text>
</g>
<!-- Node0x5fc2939890b0&#45;&gt;Node0x5fc293989870 -->
<g id="edge11" class="edge">
<title>Node0x5fc2939890b0&#45;&gt;Node0x5fc293989870</title>
<path fill="none" stroke="black" d="M2353.57,-96.49C2293.16,-84.74 2213.47,-69.24 2154.98,-57.86"/>
<polygon fill="black" stroke="black" points="2155.54,-54.41 2145.05,-55.93 2154.2,-61.28 2155.54,-54.41"/>
</g>
<!-- Node0x5fc293989740 -->
<g id="node15" class="node">
<title>Node0x5fc293989740</title>
<polygon fill="none" stroke="black" points="3265.5,-96.5 3265.5,-132.5 3960.5,-132.5 3960.5,-96.5 3265.5,-96.5"/>
<text text-anchor="middle" x="3613" y="-110.8" font-family="Times,serif" font-size="14.00">_ZNK14CIccMatrixMath7dumpMtxERNSt7__cxx1112basic_stringIcSt11char_traitsIcESaIcEEE</text>
</g>
<!-- Node0x5fc293989740&#45;&gt;Node0x5fc29398aa10 -->
<g id="edge12" class="edge">
<title>Node0x5fc293989740&#45;&gt;Node0x5fc29398aa10</title>
<path fill="none" stroke="black" d="M3415.87,-96.49C3266.17,-83.58 3063.96,-66.13 2930.39,-54.61"/>
<polygon fill="black" stroke="black" points="2930.36,-51.1 2920.1,-53.72 2929.76,-58.07 2930.36,-51.1"/>
</g>
<!-- Node0x5fc29398ac60 -->
<g id="node16" class="node">
<title>Node0x5fc29398ac60</title>
<polygon fill="none" stroke="black" points="3427,-23.5 3427,-59.5 3501,-59.5 3501,-23.5 3427,-23.5"/>
<text text-anchor="middle" x="3464" y="-37.8" font-family="Times,serif" font-size="14.00">snprintf</text>
</g>
<!-- Node0x5fc293989740&#45;&gt;Node0x5fc29398ac60 -->
<g id="edge13" class="edge">
<title>Node0x5fc293989740&#45;&gt;Node0x5fc29398ac60</title>
<path fill="none" stroke="black" d="M3577.31,-96.49C3556.82,-86.73 3530.9,-74.38 3509.02,-63.95"/>
<polygon fill="black" stroke="black" points="3510.45,-60.76 3499.91,-59.61 3507.44,-67.07 3510.45,-60.76"/>
</g>
<!-- Node0x5fc29398bfd0 -->
<g id="node17" class="node">
<title>Node0x5fc29398bfd0</title>
<polygon fill="none" stroke="black" points="3519.5,-23.5 3519.5,-59.5 4004.5,-59.5 4004.5,-23.5 3519.5,-23.5"/>
<text text-anchor="middle" x="3762" y="-37.8" font-family="Times,serif" font-size="14.00">_ZNSt7__cxx1112basic_stringIcSt11char_traitsIcESaIcEEpLEPKc</text>
</g>
<!-- Node0x5fc293989740&#45;&gt;Node0x5fc29398bfd0 -->
<g id="edge14" class="edge">
<title>Node0x5fc293989740&#45;&gt;Node0x5fc29398bfd0</title>
<path fill="none" stroke="black" d="M3648.69,-96.49C3669.18,-86.73 3695.1,-74.38 3716.98,-63.95"/>
<polygon fill="black" stroke="black" points="3718.56,-67.07 3726.09,-59.61 3715.55,-60.76 3718.56,-67.07"/>
</g>
<!-- Node0x5fc29398b7e0 -->
<g id="node18" class="node">
<title>Node0x5fc29398b7e0</title>
<polygon fill="none" stroke="black" points="1936,-96.5 1936,-132.5 2216,-132.5 2216,-96.5 1936,-96.5"/>
<text text-anchor="middle" x="2076" y="-110.8" font-family="Times,serif" font-size="14.00">_ZNK14CIccMatrixMath4MultEPKS_</text>
</g>
<!-- Node0x5fc29398b7e0&#45;&gt;Node0x5fc2938a9840 -->
<g id="edge17" class="edge">
<title>Node0x5fc29398b7e0&#45;&gt;Node0x5fc2938a9840</title>
<path fill="none" stroke="black" d="M1935.89,-99.9C1920.08,-98.51 1904.2,-97.18 1889,-96 1628.72,-75.83 1324.2,-58.58 1152.93,-49.45"/>
<polygon fill="black" stroke="black" points="1153.02,-45.95 1142.85,-48.91 1152.65,-52.94 1153.02,-45.95"/>
</g>
<!-- Node0x5fc29398b7e0&#45;&gt;Node0x5fc2939761c0 -->
<g id="edge18" class="edge">
<title>Node0x5fc29398b7e0&#45;&gt;Node0x5fc2939761c0</title>
<path fill="none" stroke="black" d="M2035.76,-96.49C2009.82,-85.53 1976.16,-71.31 1949.91,-60.21"/>
<polygon fill="black" stroke="black" points="1951.17,-56.94 1940.59,-56.28 1948.44,-63.39 1951.17,-56.94"/>
</g>
<!-- Node0x5fc29398b7e0&#45;&gt;Node0x5fc29398aa10 -->
<g id="edge16" class="edge">
<title>Node0x5fc29398b7e0&#45;&gt;Node0x5fc29398aa10</title>
<path fill="none" stroke="black" d="M2216.21,-99.56C2341.56,-87.09 2524.29,-68.92 2649.67,-56.45"/>
<polygon fill="black" stroke="black" points="2650.13,-59.93 2659.73,-55.45 2649.43,-52.96 2650.13,-59.93"/>
</g>
<!-- Node0x5fc29398b7e0&#45;&gt;Node0x5fc293989870 -->
<g id="edge19" class="edge">
<title>Node0x5fc29398b7e0&#45;&gt;Node0x5fc293989870</title>
<path fill="none" stroke="black" d="M2076,-96.31C2076,-88.29 2076,-78.55 2076,-69.57"/>
<polygon fill="black" stroke="black" points="2079.5,-69.53 2076,-59.53 2072.5,-69.53 2079.5,-69.53"/>
</g>
<!-- Node0x5fc29398b5a0 -->
<g id="node19" class="node">
<title>Node0x5fc29398b5a0</title>
<polygon fill="none" stroke="black" points="2187,-23.5 2187,-59.5 2255,-59.5 2255,-23.5 2187,-23.5"/>
<text text-anchor="middle" x="2221" y="-37.8" font-family="Times,serif" font-size="14.00">_Znwm</text>
</g>
<!-- Node0x5fc29398b7e0&#45;&gt;Node0x5fc29398b5a0 -->
<g id="edge15" class="edge">
<title>Node0x5fc29398b7e0&#45;&gt;Node0x5fc29398b5a0</title>
<path fill="none" stroke="black" d="M2110.73,-96.49C2130.8,-86.67 2156.23,-74.22 2177.61,-63.75"/>
<polygon fill="black" stroke="black" points="2179.36,-66.79 2186.8,-59.24 2176.28,-60.5 2179.36,-66.79"/>
</g>
<!-- Node0x5fc29398b960 -->
<g id="node20" class="node">
<title>Node0x5fc29398b960</title>
<polygon fill="none" stroke="black" points="4139.5,-169.5 4139.5,-205.5 4306.5,-205.5 4306.5,-169.5 4139.5,-169.5"/>
<text text-anchor="middle" x="4223" y="-183.8" font-family="Times,serif" font-size="14.00">__gxx_personality_v0</text>
</g>
<!-- Node0x5fc29398f810 -->
<g id="node21" class="node">
<title>Node0x5fc29398f810</title>
<polygon fill="none" stroke="black" points="859.5,-96.5 859.5,-132.5 1176.5,-132.5 1176.5,-96.5 859.5,-96.5"/>
<text text-anchor="middle" x="1018" y="-110.8" font-family="Times,serif" font-size="14.00">_ZN14CIccMatrixMath11VectorScaleEPKf</text>
</g>
<!-- Node0x5fc29398f810&#45;&gt;Node0x5fc2938a9840 -->
<g id="edge20" class="edge">
<title>Node0x5fc29398f810&#45;&gt;Node0x5fc2938a9840</title>
<path fill="none" stroke="black" d="M1018,-96.31C1018,-88.29 1018,-78.55 1018,-69.57"/>
<polygon fill="black" stroke="black" points="1021.5,-69.53 1018,-59.53 1014.5,-69.53 1021.5,-69.53"/>
</g>
<!-- Node0x5fc29398f570 -->
<g id="node22" class="node">
<title>Node0x5fc29398f570</title>
<polygon fill="none" stroke="black" points="599,-96.5 599,-132.5 841,-132.5 841,-96.5 599,-96.5"/>
<text text-anchor="middle" x="720" y="-110.8" font-family="Times,serif" font-size="14.00">_ZN14CIccMatrixMath5ScaleEf</text>
</g>
<!-- Node0x5fc29398f570&#45;&gt;Node0x5fc2938a9840 -->
<g id="edge21" class="edge">
<title>Node0x5fc29398f570&#45;&gt;Node0x5fc2938a9840</title>
<path fill="none" stroke="black" d="M791.38,-96.49C835.09,-86.08 891.17,-72.72 936.61,-61.89"/>
<polygon fill="black" stroke="black" points="937.51,-65.27 946.43,-59.55 935.89,-58.47 937.51,-65.27"/>
</g>
<!-- Node0x5fc29398f050 -->
<g id="node23" class="node">
<title>Node0x5fc29398f050</title>
<polygon fill="none" stroke="black" points="4324.5,-169.5 4324.5,-205.5 4575.5,-205.5 4575.5,-169.5 4324.5,-169.5"/>
<text text-anchor="middle" x="4450" y="-183.8" font-family="Times,serif" font-size="14.00">_ZN14CIccMatrixMath6InvertEv</text>
</g>
<!-- Node0x5fc29398a0b0 -->
<g id="node24" class="node">
<title>Node0x5fc29398a0b0</title>
<polygon fill="none" stroke="black" points="4352,-96.5 4352,-132.5 4548,-132.5 4548,-96.5 4352,-96.5"/>
<text text-anchor="middle" x="4450" y="-110.8" font-family="Times,serif" font-size="14.00">_Z17icMatrixInvert3x3Pf</text>
</g>
<!-- Node0x5fc29398f050&#45;&gt;Node0x5fc29398a0b0 -->
<g id="edge22" class="edge">
<title>Node0x5fc29398f050&#45;&gt;Node0x5fc29398a0b0</title>
<path fill="none" stroke="black" d="M4450,-169.31C4450,-161.29 4450,-151.55 4450,-142.57"/>
<polygon fill="black" stroke="black" points="4453.5,-142.53 4450,-132.53 4446.5,-142.53 4453.5,-142.53"/>
</g>
<!-- Node0x5fc29397b020 -->
<g id="node25" class="node">
<title>Node0x5fc29397b020</title>
<polygon fill="none" stroke="black" points="2970,-96.5 2970,-132.5 3248,-132.5 3248,-96.5 2970,-96.5"/>
<text text-anchor="middle" x="3109" y="-110.8" font-family="Times,serif" font-size="14.00">_ZNK14CIccMatrixMath6RowSumEt</text>
</g>
<!-- Node0x5fc29397b020&#45;&gt;Node0x5fc29398aa10 -->
<g id="edge23" class="edge">
<title>Node0x5fc29397b020&#45;&gt;Node0x5fc29398aa10</title>
<path fill="none" stroke="black" d="M3032.59,-96.49C2985.6,-86.03 2925.26,-72.61 2876.52,-61.76"/>
<polygon fill="black" stroke="black" points="2877.14,-58.31 2866.61,-59.55 2875.61,-65.14 2877.14,-58.31"/>
</g>
<!-- Node0x5fc293991720 -->
<g id="node26" class="node">
<title>Node0x5fc293991720</title>
<polygon fill="none" stroke="black" points="2628.5,-96.5 2628.5,-132.5 2951.5,-132.5 2951.5,-96.5 2628.5,-96.5"/>
<text text-anchor="middle" x="2790" y="-110.8" font-family="Times,serif" font-size="14.00">_ZNK14CIccMatrixMath13isIdentityMtxEv</text>
</g>
<!-- Node0x5fc293991720&#45;&gt;Node0x5fc29398aa10 -->
<g id="edge24" class="edge">
<title>Node0x5fc293991720&#45;&gt;Node0x5fc29398aa10</title>
<path fill="none" stroke="black" d="M2790,-96.31C2790,-88.29 2790,-78.55 2790,-69.57"/>
<polygon fill="black" stroke="black" points="2793.5,-69.53 2790,-59.53 2786.5,-69.53 2793.5,-69.53"/>
</g>
<!-- Node0x5fc293991020 -->
<g id="node27" class="node">
<title>Node0x5fc293991020</title>
<polygon fill="none" stroke="black" points="1194.5,-96.5 1194.5,-132.5 1643.5,-132.5 1643.5,-96.5 1194.5,-96.5"/>
<text text-anchor="middle" x="1419" y="-110.8" font-family="Times,serif" font-size="14.00">_ZN14CIccMatrixMath8SetRangeERK15icSpectralRangeS2_</text>
</g>
<!-- Node0x5fc293991020&#45;&gt;Node0x5fc2938cde10 -->
<g id="edge28" class="edge">
<title>Node0x5fc293991020&#45;&gt;Node0x5fc2938cde10</title>
<path fill="none" stroke="black" d="M1245.82,-96.49C1100.85,-82.26 899.81,-62.51 785.31,-51.27"/>
<polygon fill="black" stroke="black" points="785.48,-47.77 775.18,-50.28 784.79,-54.74 785.48,-47.77"/>
</g>
<!-- Node0x5fc293991020&#45;&gt;Node0x5fc2938a9840 -->
<g id="edge27" class="edge">
<title>Node0x5fc293991020&#45;&gt;Node0x5fc2938a9840</title>
<path fill="none" stroke="black" d="M1322.95,-96.49C1263.14,-85.9 1186.13,-72.27 1124.46,-61.35"/>
<polygon fill="black" stroke="black" points="1124.76,-57.85 1114.31,-59.55 1123.54,-64.74 1124.76,-57.85"/>
</g>
<!-- Node0x5fc293991020&#45;&gt;Node0x5fc293989870 -->
<g id="edge26" class="edge">
<title>Node0x5fc293991020&#45;&gt;Node0x5fc293989870</title>
<path fill="none" stroke="black" d="M1604.06,-96.48C1705.93,-86.7 1834.56,-73.66 1949,-60 1964.41,-58.16 1980.85,-56.03 1996.61,-53.89"/>
<polygon fill="black" stroke="black" points="1997.42,-57.31 2006.85,-52.49 1996.47,-50.38 1997.42,-57.31"/>
</g>
<!-- Node0x5fc293990970 -->
<g id="node28" class="node">
<title>Node0x5fc293990970</title>
<polygon fill="none" stroke="black" points="1363,-23.5 1363,-59.5 1475,-59.5 1475,-23.5 1363,-23.5"/>
<text text-anchor="middle" x="1419" y="-37.8" font-family="Times,serif" font-size="14.00">_Z8icF16toFt</text>
</g>
<!-- Node0x5fc293991020&#45;&gt;Node0x5fc293990970 -->
<g id="edge25" class="edge">
<title>Node0x5fc293991020&#45;&gt;Node0x5fc293990970</title>
<path fill="none" stroke="black" d="M1419,-96.31C1419,-88.29 1419,-78.55 1419,-69.57"/>
<polygon fill="black" stroke="black" points="1422.5,-69.53 1419,-59.53 1415.5,-69.53 1422.5,-69.53"/>
</g>
<!-- Node0x5fc29397bb60 -->
<g id="node29" class="node">
<title>Node0x5fc29397bb60</title>
<polygon fill="none" stroke="black" points="1681.5,-169.5 1681.5,-205.5 2134.5,-205.5 2134.5,-169.5 1681.5,-169.5"/>
<text text-anchor="middle" x="1908" y="-183.8" font-family="Times,serif" font-size="14.00">_ZN14CIccMatrixMath8rangeMapERK15icSpectralRangeS2_</text>
</g>
<!-- Node0x5fc29397bb60&#45;&gt;Node0x5fc2939761c0 -->
<g id="edge31" class="edge">
<title>Node0x5fc29397bb60&#45;&gt;Node0x5fc2939761c0</title>
<path fill="none" stroke="black" d="M1908,-169.42C1908,-144.84 1908,-99.25 1908,-69.93"/>
<polygon fill="black" stroke="black" points="1911.5,-69.56 1908,-59.56 1904.5,-69.56 1911.5,-69.56"/>
</g>
<!-- Node0x5fc29397bb60&#45;&gt;Node0x5fc29398b5a0 -->
<g id="edge29" class="edge">
<title>Node0x5fc29397bb60&#45;&gt;Node0x5fc29398b5a0</title>
<path fill="none" stroke="black" d="M2131.85,-169.43C2174.68,-161.52 2210.68,-149.94 2225,-133 2239.61,-115.72 2236.53,-89.26 2231.03,-69.41"/>
<polygon fill="black" stroke="black" points="2234.33,-68.23 2228.02,-59.72 2227.64,-70.31 2234.33,-68.23"/>
</g>
<!-- Node0x5fc29397bb60&#45;&gt;Node0x5fc293991020 -->
<g id="edge30" class="edge">
<title>Node0x5fc29397bb60&#45;&gt;Node0x5fc293991020</title>
<path fill="none" stroke="black" d="M1790.87,-169.49C1717.19,-158.79 1622.08,-144.99 1546.5,-134.01"/>
<polygon fill="black" stroke="black" points="1546.84,-130.53 1536.44,-132.55 1545.84,-137.45 1546.84,-130.53"/>
</g>
<!-- Node0x5fc2939943c0 -->
<g id="node30" class="node">
<title>Node0x5fc2939943c0</title>
<polygon fill="none" stroke="black" points="4594,-169.5 4594,-205.5 4868,-205.5 4868,-169.5 4594,-169.5"/>
<text text-anchor="middle" x="4731" y="-183.8" font-family="Times,serif" font-size="14.00">_ZNK14CIccMatrixMath7GetColsEv</text>
</g>
<!-- Node0x5fc293994700 -->
<g id="node31" class="node">
<title>Node0x5fc293994700</title>
<polygon fill="none" stroke="black" points="4886.5,-169.5 4886.5,-205.5 5167.5,-205.5 5167.5,-169.5 4886.5,-169.5"/>
<text text-anchor="middle" x="5027" y="-183.8" font-family="Times,serif" font-size="14.00">_ZNK14CIccMatrixMath7GetRowsEv</text>
</g>
</g>
</svg>
