<?xml version="1.0" encoding="UTF-8" standalone="no"?>
<!DOCTYPE svg PUBLIC "-//W3C//DTD SVG 1.1//EN"
 "http://www.w3.org/Graphics/SVG/1.1/DTD/svg11.dtd">
<!-- Generated by graphviz version 2.43.0 (0)
 -->
<!-- Title: Call graph: /home/h02332/po/research/call&#45;graph/iccdev/proflib/IccMD5.ll Pages: 1 -->
<svg width="2870pt" height="14400pt"
 viewBox="0.00 0.00 2870.26 14400.00" xmlns="http://www.w3.org/2000/svg" xmlns:xlink="http://www.w3.org/1999/xlink">
<g id="graph0" class="graph" transform="scale(3.75 3.75) rotate(0) translate(36 3807)">
<title>Call graph: /home/h02332/po/research/call&#45;graph/iccdev/proflib/IccMD5.ll</title>
<polygon fill="white" stroke="transparent" points="-36,36 -36,-3807 730,-3807 730,36 -36,36"/>
<!-- Node0x5694d147e430 -->
<g id="node1" class="node">
<title>Node0x5694d147e430</title>
<path fill="#f0f4ff" stroke="black" d="M73.5,-36C73.5,-36 14.5,-36 14.5,-36 8.5,-36 2.5,-30 2.5,-24 2.5,-24 2.5,-12 2.5,-12 2.5,-6 8.5,0 14.5,0 14.5,0 73.5,0 73.5,0 79.5,0 85.5,-6 85.5,-12 85.5,-12 85.5,-24 85.5,-24 85.5,-30 79.5,-36 73.5,-36"/>
<text text-anchor="middle" x="44" y="-15.8" font-family="Courier,monospace" font-size="9.00">{icMD5Init()}</text>
</g>
<!-- Node0x5694d147dbb0 -->
<g id="node2" class="node">
<title>Node0x5694d147dbb0</title>
<path fill="#f0f4ff" stroke="black" d="M255,-3706C255,-3706 186,-3706 186,-3706 180,-3706 174,-3700 174,-3694 174,-3694 174,-3682 174,-3682 174,-3676 180,-3670 186,-3670 186,-3670 255,-3670 255,-3670 261,-3670 267,-3676 267,-3682 267,-3682 267,-3694 267,-3694 267,-3700 261,-3706 255,-3706"/>
<text text-anchor="middle" x="220.5" y="-3685.8" font-family="Courier,monospace" font-size="9.00">{icMD5Update()}</text>
</g>
<!-- Node0x5694d1478fc0 -->
<g id="node3" class="node">
<title>Node0x5694d1478fc0</title>
<path fill="#f0f4ff" stroke="black" d="M476,-3771C476,-3771 365,-3771 365,-3771 359,-3771 353,-3765 353,-3759 353,-3759 353,-3747 353,-3747 353,-3741 359,-3735 365,-3735 365,-3735 476,-3735 476,-3735 482,-3735 488,-3741 488,-3747 488,-3747 488,-3759 488,-3759 488,-3765 482,-3771 476,-3771"/>
<text text-anchor="middle" x="420.5" y="-3750.8" font-family="Courier,monospace" font-size="9.00">{llvm.memcpy.p0.p0.i64}</text>
</g>
<!-- Node0x5694d147dbb0&#45;&gt;Node0x5694d1478fc0 -->
<g id="edge1" class="edge">
<title>Node0x5694d147dbb0&#45;&gt;Node0x5694d1478fc0</title>
<path fill="none" stroke="#4a6fa5" d="M267.42,-3703.08C294.18,-3711.86 328.28,-3723.05 357.41,-3732.62"/>
<polygon fill="#4a6fa5" stroke="#4a6fa5" points="356.9,-3735.03 364.31,-3734.88 358.43,-3730.37 356.9,-3735.03"/>
</g>
<!-- Node0x5694d1479040 -->
<g id="node4" class="node">
<title>Node0x5694d1479040</title>
<path fill="#f0f4ff" stroke="black" d="M458,-3706C458,-3706 383,-3706 383,-3706 377,-3706 371,-3700 371,-3694 371,-3694 371,-3682 371,-3682 371,-3676 377,-3670 383,-3670 383,-3670 458,-3670 458,-3670 464,-3670 470,-3676 470,-3682 470,-3682 470,-3694 470,-3694 470,-3700 464,-3706 458,-3706"/>
<text text-anchor="middle" x="420.5" y="-3685.8" font-family="Courier,monospace" font-size="9.00">{MD5Transform()}</text>
</g>
<!-- Node0x5694d147dbb0&#45;&gt;Node0x5694d1479040 -->
<g id="edge2" class="edge">
<title>Node0x5694d147dbb0&#45;&gt;Node0x5694d1479040</title>
<path fill="none" stroke="#4a6fa5" d="M267.42,-3688C296.08,-3688 333.17,-3688 363.55,-3688"/>
<polygon fill="#4a6fa5" stroke="#4a6fa5" points="363.71,-3690.45 370.71,-3688 363.71,-3685.55 363.71,-3690.45"/>
</g>
<!-- Node0x5694d1479a80 -->
<g id="node5" class="node">
<title>Node0x5694d1479a80</title>
<path fill="#f0f4ff" stroke="black" d="M655.5,-3709C655.5,-3709 612.5,-3709 612.5,-3709 606.5,-3709 600.5,-3703 600.5,-3697 600.5,-3697 600.5,-3685 600.5,-3685 600.5,-3679 606.5,-3673 612.5,-3673 612.5,-3673 655.5,-3673 655.5,-3673 661.5,-3673 667.5,-3679 667.5,-3685 667.5,-3685 667.5,-3697 667.5,-3697 667.5,-3703 661.5,-3709 655.5,-3709"/>
<text text-anchor="middle" x="634" y="-3688.8" font-family="Courier,monospace" font-size="9.00">{Decode()}</text>
</g>
<!-- Node0x5694d1479040&#45;&gt;Node0x5694d1479a80 -->
<g id="edge3" class="edge">
<title>Node0x5694d1479040&#45;&gt;Node0x5694d1479a80</title>
<path fill="none" stroke="#4a6fa5" d="M470.02,-3688.69C507.37,-3689.22 558.34,-3689.94 593.28,-3690.44"/>
<polygon fill="#4a6fa5" stroke="#4a6fa5" points="593.45,-3692.89 600.48,-3690.54 593.52,-3687.99 593.45,-3692.89"/>
</g>
<!-- Node0x5694d13e7020 -->
<g id="node6" class="node">
<title>Node0x5694d13e7020</title>
<path fill="#f0f4ff" stroke="black" d="M682,-3644C682,-3644 586,-3644 586,-3644 580,-3644 574,-3638 574,-3632 574,-3632 574,-3620 574,-3620 574,-3614 580,-3608 586,-3608 586,-3608 682,-3608 682,-3608 688,-3608 694,-3614 694,-3620 694,-3620 694,-3632 694,-3632 694,-3638 688,-3644 682,-3644"/>
<text text-anchor="middle" x="634" y="-3623.8" font-family="Courier,monospace" font-size="9.00">{llvm.memset.p0.i64}</text>
</g>
<!-- Node0x5694d1479040&#45;&gt;Node0x5694d13e7020 -->
<g id="edge4" class="edge">
<title>Node0x5694d1479040&#45;&gt;Node0x5694d13e7020</title>
<path fill="none" stroke="#4a6fa5" d="M470.02,-3673.78C498.71,-3665.37 535.43,-3654.6 566.76,-3645.42"/>
<polygon fill="#4a6fa5" stroke="#4a6fa5" points="567.74,-3647.68 573.77,-3643.36 566.36,-3642.98 567.74,-3647.68"/>
</g>
<!-- Node0x5694d13e1080 -->
<g id="node7" class="node">
<title>Node0x5694d13e1080</title>
<path fill="#f0f4ff" stroke="black" d="M76,-3644C76,-3644 12,-3644 12,-3644 6,-3644 0,-3638 0,-3632 0,-3632 0,-3620 0,-3620 0,-3614 6,-3608 12,-3608 12,-3608 76,-3608 76,-3608 82,-3608 88,-3614 88,-3620 88,-3620 88,-3632 88,-3632 88,-3638 82,-3644 76,-3644"/>
<text text-anchor="middle" x="44" y="-3623.8" font-family="Courier,monospace" font-size="9.00">{icMD5Final()}</text>
</g>
<!-- Node0x5694d13e1080&#45;&gt;Node0x5694d147dbb0 -->
<g id="edge6" class="edge">
<title>Node0x5694d13e1080&#45;&gt;Node0x5694d147dbb0</title>
<path fill="none" stroke="#4a6fa5" d="M88.13,-3641.33C112.04,-3649.82 141.94,-3660.44 167.17,-3669.41"/>
<polygon fill="#4a6fa5" stroke="#4a6fa5" points="166.4,-3671.73 173.81,-3671.77 168.04,-3667.11 166.4,-3671.73"/>
</g>
<!-- Node0x5694d13e1080&#45;&gt;Node0x5694d13e7020 -->
<g id="edge7" class="edge">
<title>Node0x5694d13e1080&#45;&gt;Node0x5694d13e7020</title>
<path fill="none" stroke="#4a6fa5" d="M88.24,-3626C190.04,-3626 445.39,-3626 566.84,-3626"/>
<polygon fill="#4a6fa5" stroke="#4a6fa5" points="566.93,-3628.45 573.93,-3626 566.93,-3623.55 566.93,-3628.45"/>
</g>
<!-- Node0x5694d14807e0 -->
<g id="node8" class="node">
<title>Node0x5694d14807e0</title>
<path fill="#f0f4ff" stroke="black" d="M242,-3582C242,-3582 199,-3582 199,-3582 193,-3582 187,-3576 187,-3570 187,-3570 187,-3558 187,-3558 187,-3552 193,-3546 199,-3546 199,-3546 242,-3546 242,-3546 248,-3546 254,-3552 254,-3558 254,-3558 254,-3570 254,-3570 254,-3576 248,-3582 242,-3582"/>
<text text-anchor="middle" x="220.5" y="-3561.8" font-family="Courier,monospace" font-size="9.00">{Encode()}</text>
</g>
<!-- Node0x5694d13e1080&#45;&gt;Node0x5694d14807e0 -->
<g id="edge5" class="edge">
<title>Node0x5694d13e1080&#45;&gt;Node0x5694d14807e0</title>
<path fill="none" stroke="#4a6fa5" d="M88.13,-3610.67C116.33,-3600.66 152.86,-3587.68 180.24,-3577.95"/>
<polygon fill="#4a6fa5" stroke="#4a6fa5" points="181.21,-3580.2 186.99,-3575.55 179.57,-3575.59 181.21,-3580.2"/>
</g>
</g>
</svg>
