<?xml version="1.0" encoding="UTF-8" standalone="no"?>
<!DOCTYPE svg PUBLIC "-//W3C//DTD SVG 1.1//EN"
 "http://www.w3.org/Graphics/SVG/1.1/DTD/svg11.dtd">
<!-- Generated by graphviz version 2.43.0 (0)
 -->
<!-- Title: Call graph: /home/h02332/po/research/call&#45;graph/iccdev/proflib/IccMpeFactory.ll Pages: 1 -->
<svg width="1006pt" height="2283pt"
 viewBox="0.00 0.00 1006.20 2283.20" xmlns="http://www.w3.org/2000/svg" xmlns:xlink="http://www.w3.org/1999/xlink">
<g id="graph0" class="graph" transform="scale(1 1) rotate(0) translate(21.6 2261.6)">
<title>Call graph: /home/h02332/po/research/call&#45;graph/iccdev/proflib/IccMpeFactory.ll</title>
<polygon fill="white" stroke="transparent" points="-21.6,21.6 -21.6,-2261.6 984.6,-2261.6 984.6,21.6 -21.6,21.6"/>
<!-- Node0x5fdae61ba930 -->
<g id="node1" class="node">
<title>Node0x5fdae61ba930</title>
<path fill="#f0f4ff" stroke="black" d="M221.5,-529C221.5,-529 43.5,-529 43.5,-529 37.5,-529 31.5,-523 31.5,-517 31.5,-517 31.5,-505 31.5,-505 31.5,-499 37.5,-493 43.5,-493 43.5,-493 221.5,-493 221.5,-493 227.5,-493 233.5,-499 233.5,-505 233.5,-505 233.5,-517 233.5,-517 233.5,-523 227.5,-529 221.5,-529"/>
<text text-anchor="middle" x="132.5" y="-508.8" font-family="Courier,monospace" font-size="9.00">CIccBasicMpeFactory::CreateElement()</text>
</g>
<!-- Node0x5fdae61c0240 -->
<g id="node2" class="node">
<title>Node0x5fdae61c0240</title>
<path fill="#f0f4ff" stroke="black" d="M560,-1022C560,-1022 393,-1022 393,-1022 387,-1022 381,-1016 381,-1010 381,-1010 381,-998 381,-998 381,-992 387,-986 393,-986 393,-986 560,-986 560,-986 566,-986 572,-992 572,-998 572,-998 572,-1010 572,-1010 572,-1016 566,-1022 560,-1022"/>
<text text-anchor="middle" x="476.5" y="-1001.8" font-family="Courier,monospace" font-size="9.00">CIccMpeCurveSet::CIccMpeCurveSet()</text>
</g>
<!-- Node0x5fdae61ba930&#45;&gt;Node0x5fdae61c0240 -->
<g id="edge1" class="edge">
<title>Node0x5fdae61ba930&#45;&gt;Node0x5fdae61c0240</title>
<path fill="none" stroke="#4a6fa5" d="M134.94,-529.23C141.52,-599.4 175.15,-854.09 323,-975 337.71,-987.03 355.89,-994.64 374.52,-999.34"/>
<polygon fill="#4a6fa5" stroke="#4a6fa5" points="374.52,-1001.5 380.84,-1000.82 375.48,-997.41 374.52,-1001.5"/>
</g>
<!-- Node0x5fdae60d9690 -->
<g id="node3" class="node">
<title>Node0x5fdae60d9690</title>
<path fill="#f0f4ff" stroke="black" d="M555,-964C555,-964 398,-964 398,-964 392,-964 386,-958 386,-952 386,-952 386,-940 386,-940 386,-934 392,-928 398,-928 398,-928 555,-928 555,-928 561,-928 567,-934 567,-940 567,-940 567,-952 567,-952 567,-958 561,-964 555,-964"/>
<text text-anchor="middle" x="476.5" y="-943.8" font-family="Courier,monospace" font-size="9.00">CIccMpeUnknown::CIccMpeUnknown()</text>
</g>
<!-- Node0x5fdae61ba930&#45;&gt;Node0x5fdae60d9690 -->
<g id="edge2" class="edge">
<title>Node0x5fdae61ba930&#45;&gt;Node0x5fdae60d9690</title>
<path fill="none" stroke="#4a6fa5" d="M136.08,-529.18C146.24,-593.71 189.76,-813.37 323,-917 339.26,-929.65 359.42,-937.33 379.68,-941.88"/>
<polygon fill="#4a6fa5" stroke="#4a6fa5" points="379.38,-943.96 385.68,-943.14 380.24,-939.85 379.38,-943.96"/>
</g>
<!-- Node0x5fdae60e6980 -->
<g id="node4" class="node">
<title>Node0x5fdae60e6980</title>
<path fill="#f0f4ff" stroke="black" d="M549.5,-906C549.5,-906 403.5,-906 403.5,-906 397.5,-906 391.5,-900 391.5,-894 391.5,-894 391.5,-882 391.5,-882 391.5,-876 397.5,-870 403.5,-870 403.5,-870 549.5,-870 549.5,-870 555.5,-870 561.5,-876 561.5,-882 561.5,-882 561.5,-894 561.5,-894 561.5,-900 555.5,-906 549.5,-906"/>
<text text-anchor="middle" x="476.5" y="-885.8" font-family="Courier,monospace" font-size="9.00">CIccMpeMatrix::CIccMpeMatrix()</text>
</g>
<!-- Node0x5fdae61ba930&#45;&gt;Node0x5fdae60e6980 -->
<g id="edge3" class="edge">
<title>Node0x5fdae61ba930&#45;&gt;Node0x5fdae60e6980</title>
<path fill="none" stroke="#4a6fa5" d="M137.52,-529.02C151.55,-587.36 204.05,-772.26 323,-859 341.01,-872.13 363.31,-879.81 385.24,-884.18"/>
<polygon fill="#4a6fa5" stroke="#4a6fa5" points="385.13,-886.3 391.41,-885.33 385.89,-882.17 385.13,-886.3"/>
</g>
<!-- Node0x5fdae60d49e0 -->
<g id="node5" class="node">
<title>Node0x5fdae60d49e0</title>
<path fill="#f0f4ff" stroke="black" d="M539,-848C539,-848 414,-848 414,-848 408,-848 402,-842 402,-836 402,-836 402,-824 402,-824 402,-818 408,-812 414,-812 414,-812 539,-812 539,-812 545,-812 551,-818 551,-824 551,-824 551,-836 551,-836 551,-842 545,-848 539,-848"/>
<text text-anchor="middle" x="476.5" y="-827.8" font-family="Courier,monospace" font-size="9.00">CIccMpeEAcs::CIccMpeEAcs()</text>
</g>
<!-- Node0x5fdae61ba930&#45;&gt;Node0x5fdae60d49e0 -->
<g id="edge4" class="edge">
<title>Node0x5fdae61ba930&#45;&gt;Node0x5fdae60d49e0</title>
<path fill="none" stroke="#4a6fa5" d="M139.62,-529.29C158.05,-581.32 218.3,-730.9 323,-801 344.35,-815.3 370.96,-822.97 395.94,-826.96"/>
<polygon fill="#4a6fa5" stroke="#4a6fa5" points="395.67,-829.05 401.91,-827.85 396.29,-824.89 395.67,-829.05"/>
</g>
<!-- Node0x5fdae60d3aa0 -->
<g id="node6" class="node">
<title>Node0x5fdae60d3aa0</title>
<path fill="#f0f4ff" stroke="black" d="M539,-790C539,-790 414,-790 414,-790 408,-790 402,-784 402,-778 402,-778 402,-766 402,-766 402,-760 408,-754 414,-754 414,-754 539,-754 539,-754 545,-754 551,-760 551,-766 551,-766 551,-778 551,-778 551,-784 545,-790 539,-790"/>
<text text-anchor="middle" x="476.5" y="-769.8" font-family="Courier,monospace" font-size="9.00">CIccMpeBAcs::CIccMpeBAcs()</text>
</g>
<!-- Node0x5fdae61ba930&#45;&gt;Node0x5fdae60d3aa0 -->
<g id="edge5" class="edge">
<title>Node0x5fdae61ba930&#45;&gt;Node0x5fdae60d3aa0</title>
<path fill="none" stroke="#4a6fa5" d="M142.5,-529.11C165.63,-573.63 231.83,-688.74 323,-743 344.78,-755.96 371.13,-763.31 395.76,-767.43"/>
<polygon fill="#4a6fa5" stroke="#4a6fa5" points="395.73,-769.55 401.98,-768.41 396.38,-765.4 395.73,-769.55"/>
</g>
<!-- Node0x5fdae60e8a30 -->
<g id="node7" class="node">
<title>Node0x5fdae60e8a30</title>
<path fill="#f0f4ff" stroke="black" d="M539,-732C539,-732 414,-732 414,-732 408,-732 402,-726 402,-720 402,-720 402,-708 402,-708 402,-702 408,-696 414,-696 414,-696 539,-696 539,-696 545,-696 551,-702 551,-708 551,-708 551,-720 551,-720 551,-726 545,-732 539,-732"/>
<text text-anchor="middle" x="476.5" y="-711.8" font-family="Courier,monospace" font-size="9.00">CIccMpeCLUT::CIccMpeCLUT()</text>
</g>
<!-- Node0x5fdae61ba930&#45;&gt;Node0x5fdae60e8a30 -->
<g id="edge6" class="edge">
<title>Node0x5fdae61ba930&#45;&gt;Node0x5fdae60e8a30</title>
<path fill="none" stroke="#4a6fa5" d="M147.39,-529.27C175.96,-565.42 245.17,-645.92 323,-685 345.31,-696.2 371.45,-703.1 395.72,-707.33"/>
<polygon fill="#4a6fa5" stroke="#4a6fa5" points="395.58,-709.44 401.85,-708.35 396.27,-705.29 395.58,-709.44"/>
</g>
<!-- Node0x5fdae61d1050 -->
<g id="node8" class="node">
<title>Node0x5fdae61d1050</title>
<path fill="#f0f4ff" stroke="black" d="M618,-674C618,-674 335,-674 335,-674 329,-674 323,-668 323,-662 323,-662 323,-650 323,-650 323,-644 329,-638 335,-638 335,-638 618,-638 618,-638 624,-638 630,-644 630,-650 630,-650 630,-662 630,-662 630,-668 624,-674 618,-674"/>
<text text-anchor="middle" x="476.5" y="-653.8" font-family="Courier,monospace" font-size="9.00">CIccMpeReflectanceObserver::CIccMpeReflectanceObserver()</text>
</g>
<!-- Node0x5fdae61ba930&#45;&gt;Node0x5fdae61d1050 -->
<g id="edge7" class="edge">
<title>Node0x5fdae61ba930&#45;&gt;Node0x5fdae61d1050</title>
<path fill="none" stroke="#4a6fa5" d="M156.85,-529.2C191.23,-555.06 258.41,-602.05 323,-627 332.06,-630.5 341.58,-633.59 351.27,-636.31"/>
<polygon fill="#4a6fa5" stroke="#4a6fa5" points="350.98,-638.41 357.32,-637.96 352.08,-634.35 350.98,-638.41"/>
</g>
<!-- Node0x5fdae60d4e60 -->
<g id="node9" class="node">
<title>Node0x5fdae60d4e60</title>
<path fill="#f0f4ff" stroke="black" d="M602,-616C602,-616 351,-616 351,-616 345,-616 339,-610 339,-604 339,-604 339,-592 339,-592 339,-586 345,-580 351,-580 351,-580 602,-580 602,-580 608,-580 614,-586 614,-592 614,-592 614,-604 614,-604 614,-610 608,-616 602,-616"/>
<text text-anchor="middle" x="476.5" y="-595.8" font-family="Courier,monospace" font-size="9.00">CIccMpeEmissionObserver::CIccMpeEmissionObserver()</text>
</g>
<!-- Node0x5fdae61ba930&#45;&gt;Node0x5fdae60d4e60 -->
<g id="edge8" class="edge">
<title>Node0x5fdae61ba930&#45;&gt;Node0x5fdae60d4e60</title>
<path fill="none" stroke="#4a6fa5" d="M186.97,-529.08C224.7,-541.41 276.57,-557.52 323,-569 336.85,-572.43 351.49,-575.67 366.01,-578.67"/>
<polygon fill="#4a6fa5" stroke="#4a6fa5" points="365.92,-580.8 372.22,-579.94 366.76,-576.68 365.92,-580.8"/>
</g>
<!-- Node0x5fdae61cc6f0 -->
<g id="node10" class="node">
<title>Node0x5fdae61cc6f0</title>
<path fill="#f0f4ff" stroke="black" d="M555,-558C555,-558 398,-558 398,-558 392,-558 386,-552 386,-546 386,-546 386,-534 386,-534 386,-528 392,-522 398,-522 398,-522 555,-522 555,-522 561,-522 567,-528 567,-534 567,-534 567,-546 567,-546 567,-552 561,-558 555,-558"/>
<text text-anchor="middle" x="476.5" y="-537.8" font-family="Courier,monospace" font-size="9.00">CIccMpeExtCLUT::CIccMpeExtCLUT()</text>
</g>
<!-- Node0x5fdae61ba930&#45;&gt;Node0x5fdae61cc6f0 -->
<g id="edge9" class="edge">
<title>Node0x5fdae61ba930&#45;&gt;Node0x5fdae61cc6f0</title>
<path fill="none" stroke="#4a6fa5" d="M233.8,-519.51C279.92,-523.42 334.37,-528.03 379.9,-531.89"/>
<polygon fill="#4a6fa5" stroke="#4a6fa5" points="379.82,-533.99 385.98,-532.41 380.17,-529.81 379.82,-533.99"/>
</g>
<!-- Node0x5fdae6135fa0 -->
<g id="node11" class="node">
<title>Node0x5fdae6135fa0</title>
<path fill="#f0f4ff" stroke="black" d="M597,-500C597,-500 356,-500 356,-500 350,-500 344,-494 344,-488 344,-488 344,-476 344,-476 344,-470 350,-464 356,-464 356,-464 597,-464 597,-464 603,-464 609,-470 609,-476 609,-476 609,-488 609,-488 609,-494 603,-500 597,-500"/>
<text text-anchor="middle" x="476.5" y="-479.8" font-family="Courier,monospace" font-size="9.00">CIccMpeReflectanceCLUT::CIccMpeReflectanceCLUT()</text>
</g>
<!-- Node0x5fdae61ba930&#45;&gt;Node0x5fdae6135fa0 -->
<g id="edge10" class="edge">
<title>Node0x5fdae61ba930&#45;&gt;Node0x5fdae6135fa0</title>
<path fill="none" stroke="#4a6fa5" d="M233.8,-502.49C266.31,-499.74 302.96,-496.63 337.71,-493.68"/>
<polygon fill="#4a6fa5" stroke="#4a6fa5" points="337.92,-495.77 343.72,-493.17 337.57,-491.59 337.92,-495.77"/>
</g>
<!-- Node0x5fdae61ca400 -->
<g id="node12" class="node">
<title>Node0x5fdae61ca400</title>
<path fill="#f0f4ff" stroke="black" d="M581,-442C581,-442 372,-442 372,-442 366,-442 360,-436 360,-430 360,-430 360,-418 360,-418 360,-412 366,-406 372,-406 372,-406 581,-406 581,-406 587,-406 593,-412 593,-418 593,-418 593,-430 593,-430 593,-436 587,-442 581,-442"/>
<text text-anchor="middle" x="476.5" y="-421.8" font-family="Courier,monospace" font-size="9.00">CIccMpeEmissionCLUT::CIccMpeEmissionCLUT()</text>
</g>
<!-- Node0x5fdae61ba930&#45;&gt;Node0x5fdae61ca400 -->
<g id="edge11" class="edge">
<title>Node0x5fdae61ba930&#45;&gt;Node0x5fdae61ca400</title>
<path fill="none" stroke="#4a6fa5" d="M186.97,-492.92C224.7,-480.59 276.57,-464.48 323,-453 336.85,-449.57 351.49,-446.33 366.01,-443.33"/>
<polygon fill="#4a6fa5" stroke="#4a6fa5" points="366.76,-445.32 372.22,-442.06 365.92,-441.2 366.76,-445.32"/>
</g>
<!-- Node0x5fdae61bc830 -->
<g id="node13" class="node">
<title>Node0x5fdae61bc830</title>
<path fill="#f0f4ff" stroke="black" d="M570.5,-384C570.5,-384 382.5,-384 382.5,-384 376.5,-384 370.5,-378 370.5,-372 370.5,-372 370.5,-360 370.5,-360 370.5,-354 376.5,-348 382.5,-348 382.5,-348 570.5,-348 570.5,-348 576.5,-348 582.5,-354 582.5,-360 582.5,-360 582.5,-372 582.5,-372 582.5,-378 576.5,-384 570.5,-384"/>
<text text-anchor="middle" x="476.5" y="-363.8" font-family="Courier,monospace" font-size="9.00">CIccMpeCalculator::CIccMpeCalculator()</text>
</g>
<!-- Node0x5fdae61ba930&#45;&gt;Node0x5fdae61bc830 -->
<g id="edge12" class="edge">
<title>Node0x5fdae61ba930&#45;&gt;Node0x5fdae61bc830</title>
<path fill="none" stroke="#4a6fa5" d="M156.85,-492.8C191.23,-466.94 258.41,-419.95 323,-395 336.09,-389.94 350.16,-385.75 364.27,-382.26"/>
<polygon fill="#4a6fa5" stroke="#4a6fa5" points="364.98,-384.26 370.32,-380.82 364,-380.17 364.98,-384.26"/>
</g>
<!-- Node0x5fdae60d3a20 -->
<g id="node14" class="node">
<title>Node0x5fdae60d3a20</title>
<path fill="#f0f4ff" stroke="black" d="M607.5,-326C607.5,-326 345.5,-326 345.5,-326 339.5,-326 333.5,-320 333.5,-314 333.5,-314 333.5,-302 333.5,-302 333.5,-296 339.5,-290 345.5,-290 345.5,-290 607.5,-290 607.5,-290 613.5,-290 619.5,-296 619.5,-302 619.5,-302 619.5,-314 619.5,-314 619.5,-320 613.5,-326 607.5,-326"/>
<text text-anchor="middle" x="476.5" y="-305.8" font-family="Courier,monospace" font-size="9.00">CIccMpeInvEmissionMatrix::CIccMpeInvEmissionMatrix()</text>
</g>
<!-- Node0x5fdae61ba930&#45;&gt;Node0x5fdae60d3a20 -->
<g id="edge13" class="edge">
<title>Node0x5fdae61ba930&#45;&gt;Node0x5fdae60d3a20</title>
<path fill="none" stroke="#4a6fa5" d="M147.39,-492.73C175.96,-456.58 245.17,-376.08 323,-337 329.59,-333.69 336.5,-330.76 343.61,-328.16"/>
<polygon fill="#4a6fa5" stroke="#4a6fa5" points="344.65,-330.02 349.62,-326.06 343.26,-326.06 344.65,-330.02"/>
</g>
<!-- Node0x5fdae60d3970 -->
<g id="node15" class="node">
<title>Node0x5fdae60d3970</title>
<path fill="#f0f4ff" stroke="black" d="M591.5,-268C591.5,-268 361.5,-268 361.5,-268 355.5,-268 349.5,-262 349.5,-256 349.5,-256 349.5,-244 349.5,-244 349.5,-238 355.5,-232 361.5,-232 361.5,-232 591.5,-232 591.5,-232 597.5,-232 603.5,-238 603.5,-244 603.5,-244 603.5,-256 603.5,-256 603.5,-262 597.5,-268 591.5,-268"/>
<text text-anchor="middle" x="476.5" y="-247.8" font-family="Courier,monospace" font-size="9.00">CIccMpeEmissionMatrix::CIccMpeEmissionMatrix()</text>
</g>
<!-- Node0x5fdae61ba930&#45;&gt;Node0x5fdae60d3970 -->
<g id="edge14" class="edge">
<title>Node0x5fdae61ba930&#45;&gt;Node0x5fdae60d3970</title>
<path fill="none" stroke="#4a6fa5" d="M142.5,-492.89C165.63,-448.37 231.83,-333.26 323,-279 329.42,-275.18 336.24,-271.84 343.3,-268.93"/>
<polygon fill="#4a6fa5" stroke="#4a6fa5" points="344.46,-270.73 349.28,-266.59 342.93,-266.82 344.46,-270.73"/>
</g>
<!-- Node0x5fdae61387c0 -->
<g id="node16" class="node">
<title>Node0x5fdae61387c0</title>
<path fill="#f0f4ff" stroke="black" d="M565.5,-210C565.5,-210 387.5,-210 387.5,-210 381.5,-210 375.5,-204 375.5,-198 375.5,-198 375.5,-186 375.5,-186 375.5,-180 381.5,-174 387.5,-174 387.5,-174 565.5,-174 565.5,-174 571.5,-174 577.5,-180 577.5,-186 577.5,-186 577.5,-198 577.5,-198 577.5,-204 571.5,-210 565.5,-210"/>
<text text-anchor="middle" x="476.5" y="-189.8" font-family="Courier,monospace" font-size="9.00">CIccMpeTintArray::CIccMpeTintArray()</text>
</g>
<!-- Node0x5fdae61ba930&#45;&gt;Node0x5fdae61387c0 -->
<g id="edge15" class="edge">
<title>Node0x5fdae61ba930&#45;&gt;Node0x5fdae61387c0</title>
<path fill="none" stroke="#4a6fa5" d="M139.62,-492.71C158.05,-440.68 218.3,-291.1 323,-221 336.86,-211.72 352.94,-205.23 369.34,-200.73"/>
<polygon fill="#4a6fa5" stroke="#4a6fa5" points="370.12,-202.7 375.4,-199.16 369.06,-198.63 370.12,-202.7"/>
</g>
<!-- Node0x5fdae60f8b30 -->
<g id="node17" class="node">
<title>Node0x5fdae60f8b30</title>
<path fill="#f0f4ff" stroke="black" d="M560,-152C560,-152 393,-152 393,-152 387,-152 381,-146 381,-140 381,-140 381,-128 381,-128 381,-122 387,-116 393,-116 393,-116 560,-116 560,-116 566,-116 572,-122 572,-128 572,-128 572,-140 572,-140 572,-146 566,-152 560,-152"/>
<text text-anchor="middle" x="476.5" y="-131.8" font-family="Courier,monospace" font-size="9.00">CIccMpeXYZToJab::CIccMpeXYZToJab()</text>
</g>
<!-- Node0x5fdae61ba930&#45;&gt;Node0x5fdae60f8b30 -->
<g id="edge16" class="edge">
<title>Node0x5fdae61ba930&#45;&gt;Node0x5fdae60f8b30</title>
<path fill="none" stroke="#4a6fa5" d="M137.52,-492.98C151.55,-434.64 204.05,-249.74 323,-163 338.06,-152.02 356.12,-144.85 374.46,-140.24"/>
<polygon fill="#4a6fa5" stroke="#4a6fa5" points="375.32,-142.19 380.68,-138.77 374.36,-138.11 375.32,-142.19"/>
</g>
<!-- Node0x5fdae610afd0 -->
<g id="node18" class="node">
<title>Node0x5fdae610afd0</title>
<path fill="#f0f4ff" stroke="black" d="M560,-94C560,-94 393,-94 393,-94 387,-94 381,-88 381,-82 381,-82 381,-70 381,-70 381,-64 387,-58 393,-58 393,-58 560,-58 560,-58 566,-58 572,-64 572,-70 572,-70 572,-82 572,-82 572,-88 566,-94 560,-94"/>
<text text-anchor="middle" x="476.5" y="-73.8" font-family="Courier,monospace" font-size="9.00">CIccMpeJabToXYZ::CIccMpeJabToXYZ()</text>
</g>
<!-- Node0x5fdae61ba930&#45;&gt;Node0x5fdae610afd0 -->
<g id="edge17" class="edge">
<title>Node0x5fdae61ba930&#45;&gt;Node0x5fdae610afd0</title>
<path fill="none" stroke="#4a6fa5" d="M136.08,-492.82C146.24,-428.29 189.76,-208.63 323,-105 337.91,-93.41 356.08,-85.99 374.62,-81.32"/>
<polygon fill="#4a6fa5" stroke="#4a6fa5" points="375.55,-83.26 380.91,-79.85 374.59,-79.17 375.55,-83.26"/>
</g>
<!-- Node0x5fdae611d0c0 -->
<g id="node19" class="node">
<title>Node0x5fdae611d0c0</title>
<path fill="#f0f4ff" stroke="black" d="M555,-36C555,-36 398,-36 398,-36 392,-36 386,-30 386,-24 386,-24 386,-12 386,-12 386,-6 392,0 398,0 398,0 555,0 555,0 561,0 567,-6 567,-12 567,-12 567,-24 567,-24 567,-30 561,-36 555,-36"/>
<text text-anchor="middle" x="476.5" y="-15.8" font-family="Courier,monospace" font-size="9.00">CIccMpeToneMap::CIccMpeToneMap()</text>
</g>
<!-- Node0x5fdae61ba930&#45;&gt;Node0x5fdae611d0c0 -->
<g id="edge18" class="edge">
<title>Node0x5fdae61ba930&#45;&gt;Node0x5fdae611d0c0</title>
<path fill="none" stroke="#4a6fa5" d="M134.94,-492.77C141.52,-422.6 175.15,-167.91 323,-47 339.04,-33.88 359.21,-26.02 379.58,-21.46"/>
<polygon fill="#4a6fa5" stroke="#4a6fa5" points="380.17,-23.48 385.61,-20.2 379.31,-19.37 380.17,-23.48"/>
</g>
<!-- Node0x5fdae60dadb0 -->
<g id="node20" class="node">
<title>Node0x5fdae60dadb0</title>
<path fill="#f0f4ff" stroke="black" d="M951,-645C951,-645 700,-645 700,-645 694,-645 688,-639 688,-633 688,-633 688,-621 688,-621 688,-615 694,-609 700,-609 700,-609 951,-609 951,-609 957,-609 963,-615 963,-621 963,-621 963,-633 963,-633 963,-639 957,-645 951,-645"/>
<text text-anchor="middle" x="825.5" y="-624.8" font-family="Courier,monospace" font-size="9.00">CIccMpeSpectralObserver::CIccMpeSpectralObserver()</text>
</g>
<!-- Node0x5fdae61d1050&#45;&gt;Node0x5fdae60dadb0 -->
<g id="edge24" class="edge">
<title>Node0x5fdae61d1050&#45;&gt;Node0x5fdae60dadb0</title>
<path fill="none" stroke="#4a6fa5" d="M630.2,-643.24C647.29,-641.81 664.65,-640.36 681.6,-638.94"/>
<polygon fill="#4a6fa5" stroke="#4a6fa5" points="682.02,-641.01 687.83,-638.42 681.67,-636.83 682.02,-641.01"/>
</g>
<!-- Node0x5fdae60d4e60&#45;&gt;Node0x5fdae60dadb0 -->
<g id="edge23" class="edge">
<title>Node0x5fdae60d4e60&#45;&gt;Node0x5fdae60dadb0</title>
<path fill="none" stroke="#4a6fa5" d="M614.15,-609.42C636.43,-611.28 659.56,-613.22 681.99,-615.09"/>
<polygon fill="#4a6fa5" stroke="#4a6fa5" points="681.82,-617.18 687.98,-615.59 682.17,-613 681.82,-617.18"/>
</g>
<!-- Node0x5fdae61d1c00 -->
<g id="node22" class="node">
<title>Node0x5fdae61d1c00</title>
<path fill="#f0f4ff" stroke="black" d="M930,-471C930,-471 721,-471 721,-471 715,-471 709,-465 709,-459 709,-459 709,-447 709,-447 709,-441 715,-435 721,-435 721,-435 930,-435 930,-435 936,-435 942,-441 942,-447 942,-447 942,-459 942,-459 942,-465 936,-471 930,-471"/>
<text text-anchor="middle" x="825.5" y="-450.8" font-family="Courier,monospace" font-size="9.00">CIccMpeSpectralCLUT::CIccMpeSpectralCLUT()</text>
</g>
<!-- Node0x5fdae6135fa0&#45;&gt;Node0x5fdae61d1c00 -->
<g id="edge22" class="edge">
<title>Node0x5fdae6135fa0&#45;&gt;Node0x5fdae61d1c00</title>
<path fill="none" stroke="#4a6fa5" d="M609.18,-470.99C639.92,-468.43 672.51,-465.7 702.8,-463.17"/>
<polygon fill="#4a6fa5" stroke="#4a6fa5" points="703.02,-465.26 708.82,-462.67 702.67,-461.07 703.02,-465.26"/>
</g>
<!-- Node0x5fdae61ca400&#45;&gt;Node0x5fdae61d1c00 -->
<g id="edge21" class="edge">
<title>Node0x5fdae61ca400&#45;&gt;Node0x5fdae61d1c00</title>
<path fill="none" stroke="#4a6fa5" d="M593.05,-433.66C628.27,-436.6 667.09,-439.85 702.72,-442.82"/>
<polygon fill="#4a6fa5" stroke="#4a6fa5" points="702.71,-444.93 708.87,-443.34 703.06,-440.74 702.71,-444.93"/>
</g>
<!-- Node0x5fdae61d1d80 -->
<g id="node21" class="node">
<title>Node0x5fdae61d1d80</title>
<path fill="#f0f4ff" stroke="black" d="M940.5,-297C940.5,-297 710.5,-297 710.5,-297 704.5,-297 698.5,-291 698.5,-285 698.5,-285 698.5,-273 698.5,-273 698.5,-267 704.5,-261 710.5,-261 710.5,-261 940.5,-261 940.5,-261 946.5,-261 952.5,-267 952.5,-273 952.5,-273 952.5,-285 952.5,-285 952.5,-291 946.5,-297 940.5,-297"/>
<text text-anchor="middle" x="825.5" y="-276.8" font-family="Courier,monospace" font-size="9.00">CIccMpeSpectralMatrix::CIccMpeSpectralMatrix()</text>
</g>
<!-- Node0x5fdae60d3a20&#45;&gt;Node0x5fdae61d1d80 -->
<g id="edge20" class="edge">
<title>Node0x5fdae60d3a20&#45;&gt;Node0x5fdae61d1d80</title>
<path fill="none" stroke="#4a6fa5" d="M619.64,-296.12C643.71,-294.11 668.61,-292.03 692.41,-290.04"/>
<polygon fill="#4a6fa5" stroke="#4a6fa5" points="692.63,-292.13 698.44,-289.54 692.28,-287.94 692.63,-292.13"/>
</g>
<!-- Node0x5fdae60d3970&#45;&gt;Node0x5fdae61d1d80 -->
<g id="edge19" class="edge">
<title>Node0x5fdae60d3970&#45;&gt;Node0x5fdae61d1d80</title>
<path fill="none" stroke="#4a6fa5" d="M603.76,-260.55C632.52,-262.96 663.16,-265.52 692.17,-267.94"/>
<polygon fill="#4a6fa5" stroke="#4a6fa5" points="692.18,-270.05 698.34,-268.46 692.53,-265.86 692.18,-270.05"/>
</g>
<!-- Node0x5fdae60da410 -->
<g id="node23" class="node">
<title>Node0x5fdae60da410</title>
<path fill="#f0f4ff" stroke="black" d="M232,-1080C232,-1080 33,-1080 33,-1080 27,-1080 21,-1074 21,-1068 21,-1068 21,-1056 21,-1056 21,-1050 27,-1044 33,-1044 33,-1044 232,-1044 232,-1044 238,-1044 244,-1050 244,-1056 244,-1056 244,-1068 244,-1068 244,-1074 238,-1080 232,-1080"/>
<text text-anchor="middle" x="132.5" y="-1059.8" font-family="Courier,monospace" font-size="9.00">CIccBasicMpeFactory::GetElementSigName()</text>
</g>
<!-- Node0x5fdae60da650 -->
<g id="node24" class="node">
<title>Node0x5fdae60da650</title>
<path fill="#f0f4ff" stroke="black" d="M497,-1080C497,-1080 456,-1080 456,-1080 450,-1080 444,-1074 444,-1068 444,-1068 444,-1056 444,-1056 444,-1050 450,-1044 456,-1044 456,-1044 497,-1044 497,-1044 503,-1044 509,-1050 509,-1056 509,-1056 509,-1068 509,-1068 509,-1074 503,-1080 497,-1080"/>
<text text-anchor="middle" x="476.5" y="-1059.8" font-family="Courier,monospace" font-size="9.00">icGetSig()</text>
</g>
<!-- Node0x5fdae60da410&#45;&gt;Node0x5fdae60da650 -->
<g id="edge25" class="edge">
<title>Node0x5fdae60da410&#45;&gt;Node0x5fdae60da650</title>
<path fill="none" stroke="#4a6fa5" d="M244.07,-1062C310.74,-1062 391.49,-1062 437.84,-1062"/>
<polygon fill="#4a6fa5" stroke="#4a6fa5" points="437.87,-1064.1 443.87,-1062 437.87,-1059.9 437.87,-1064.1"/>
</g>
<!-- Node0x5fdae60d89a0 -->
<g id="node25" class="node">
<title>Node0x5fdae60d89a0</title>
<path fill="#f0f4ff" stroke="black" d="M502.5,-1370C502.5,-1370 450.5,-1370 450.5,-1370 444.5,-1370 438.5,-1364 438.5,-1358 438.5,-1358 438.5,-1346 438.5,-1346 438.5,-1340 444.5,-1334 450.5,-1334 450.5,-1334 502.5,-1334 502.5,-1334 508.5,-1334 514.5,-1340 514.5,-1346 514.5,-1346 514.5,-1358 514.5,-1358 514.5,-1364 508.5,-1370 502.5,-1370"/>
<text text-anchor="middle" x="476.5" y="-1349.8" font-family="Courier,monospace" font-size="9.00">unique_ptr()</text>
</g>
<!-- Node0x5fdae61d52f0 -->
<g id="node26" class="node">
<title>Node0x5fdae61d52f0</title>
<path fill="#f0f4ff" stroke="black" d="M854,-1370C854,-1370 797,-1370 797,-1370 791,-1370 785,-1364 785,-1358 785,-1358 785,-1346 785,-1346 785,-1340 791,-1334 797,-1334 797,-1334 854,-1334 854,-1334 860,-1334 866,-1340 866,-1346 866,-1346 866,-1358 866,-1358 866,-1364 860,-1370 854,-1370"/>
<text text-anchor="middle" x="825.5" y="-1349.8" font-family="Courier,monospace" font-size="9.00">get_deleter()</text>
</g>
<!-- Node0x5fdae60d89a0&#45;&gt;Node0x5fdae61d52f0 -->
<g id="edge26" class="edge">
<title>Node0x5fdae60d89a0&#45;&gt;Node0x5fdae61d52f0</title>
<path fill="none" stroke="#4a6fa5" d="M514.64,-1352C578.62,-1352 709.44,-1352 778.87,-1352"/>
<polygon fill="#4a6fa5" stroke="#4a6fa5" points="778.98,-1354.1 784.98,-1352 778.98,-1349.9 778.98,-1354.1"/>
</g>
<!-- Node0x5fdae61d3b60 -->
<g id="node27" class="node">
<title>Node0x5fdae61d3b60</title>
<path fill="#f0f4ff" stroke="black" d="M213.5,-1428C213.5,-1428 51.5,-1428 51.5,-1428 45.5,-1428 39.5,-1422 39.5,-1416 39.5,-1416 39.5,-1404 39.5,-1404 39.5,-1398 45.5,-1392 51.5,-1392 51.5,-1392 213.5,-1392 213.5,-1392 219.5,-1392 225.5,-1398 225.5,-1404 225.5,-1404 225.5,-1416 225.5,-1416 225.5,-1422 219.5,-1428 213.5,-1428"/>
<text text-anchor="middle" x="132.5" y="-1407.8" font-family="Courier,monospace" font-size="9.00">CIccMpeCreator::~CIccMpeCreator()</text>
</g>
<!-- Node0x5fdae61d3e60 -->
<g id="node28" class="node">
<title>Node0x5fdae61d3e60</title>
<path fill="#f0f4ff" stroke="black" d="M549.5,-1428C549.5,-1428 403.5,-1428 403.5,-1428 397.5,-1428 391.5,-1422 391.5,-1416 391.5,-1416 391.5,-1404 391.5,-1404 391.5,-1398 397.5,-1392 403.5,-1392 403.5,-1392 549.5,-1392 549.5,-1392 555.5,-1392 561.5,-1398 561.5,-1404 561.5,-1404 561.5,-1416 561.5,-1416 561.5,-1422 555.5,-1428 549.5,-1428"/>
<text text-anchor="middle" x="476.5" y="-1407.8" font-family="Courier,monospace" font-size="9.00">CIccMpeCreator::DoPopFactory()</text>
</g>
<!-- Node0x5fdae61d3b60&#45;&gt;Node0x5fdae61d3e60 -->
<g id="edge27" class="edge">
<title>Node0x5fdae61d3b60&#45;&gt;Node0x5fdae61d3e60</title>
<path fill="none" stroke="#4a6fa5" d="M225.6,-1410C275.12,-1410 335.94,-1410 385.19,-1410"/>
<polygon fill="#4a6fa5" stroke="#4a6fa5" points="385.44,-1412.1 391.44,-1410 385.44,-1407.9 385.44,-1412.1"/>
</g>
<!-- Node0x5fdae612b580 -->
<g id="node29" class="node">
<title>Node0x5fdae612b580</title>
<path fill="#f0f4ff" stroke="black" d="M848.5,-1428C848.5,-1428 802.5,-1428 802.5,-1428 796.5,-1428 790.5,-1422 790.5,-1416 790.5,-1416 790.5,-1404 790.5,-1404 790.5,-1398 796.5,-1392 802.5,-1392 802.5,-1392 848.5,-1392 848.5,-1392 854.5,-1392 860.5,-1398 860.5,-1404 860.5,-1404 860.5,-1416 860.5,-1416 860.5,-1422 854.5,-1428 848.5,-1428"/>
<text text-anchor="middle" x="825.5" y="-1407.8" font-family="Courier,monospace" font-size="9.00">pop_front()</text>
</g>
<!-- Node0x5fdae61d3e60&#45;&gt;Node0x5fdae612b580 -->
<g id="edge28" class="edge">
<title>Node0x5fdae61d3e60&#45;&gt;Node0x5fdae612b580</title>
<path fill="none" stroke="#4a6fa5" d="M561.94,-1410C632.45,-1410 729.87,-1410 784.04,-1410"/>
<polygon fill="#4a6fa5" stroke="#4a6fa5" points="784.11,-1412.1 790.11,-1410 784.11,-1407.9 784.11,-1412.1"/>
</g>
<!-- Node0x5fdae61eae20 -->
<g id="node30" class="node">
<title>Node0x5fdae61eae20</title>
<path fill="#f0f4ff" stroke="black" d="M203,-1254C203,-1254 62,-1254 62,-1254 56,-1254 50,-1248 50,-1242 50,-1242 50,-1230 50,-1230 50,-1224 56,-1218 62,-1218 62,-1218 203,-1218 203,-1218 209,-1218 215,-1224 215,-1230 215,-1230 215,-1242 215,-1242 215,-1248 209,-1254 203,-1254"/>
<text text-anchor="middle" x="132.5" y="-1233.8" font-family="Courier,monospace" font-size="9.00">CIccMpeCreator::GetInstance()</text>
</g>
<!-- Node0x5fdae61eae20&#45;&gt;Node0x5fdae60d89a0 -->
<g id="edge31" class="edge">
<title>Node0x5fdae61eae20&#45;&gt;Node0x5fdae60d89a0</title>
<path fill="none" stroke="#4a6fa5" d="M166.41,-1254.1C203.45,-1273.75 265.93,-1304.77 323,-1323 358.98,-1334.49 401.27,-1342.09 432.18,-1346.62"/>
<polygon fill="#4a6fa5" stroke="#4a6fa5" points="431.97,-1348.71 438.21,-1347.48 432.57,-1344.55 431.97,-1348.71"/>
</g>
<!-- Node0x5fdae61ed750 -->
<g id="node31" class="node">
<title>Node0x5fdae61ed750</title>
<path fill="#f0f4ff" stroke="black" d="M491.5,-1312C491.5,-1312 461.5,-1312 461.5,-1312 455.5,-1312 449.5,-1306 449.5,-1300 449.5,-1300 449.5,-1288 449.5,-1288 449.5,-1282 455.5,-1276 461.5,-1276 461.5,-1276 491.5,-1276 491.5,-1276 497.5,-1276 503.5,-1282 503.5,-1288 503.5,-1288 503.5,-1300 503.5,-1300 503.5,-1306 497.5,-1312 491.5,-1312"/>
<text text-anchor="middle" x="476.5" y="-1291.8" font-family="Courier,monospace" font-size="9.00">get()</text>
</g>
<!-- Node0x5fdae61eae20&#45;&gt;Node0x5fdae61ed750 -->
<g id="edge29" class="edge">
<title>Node0x5fdae61eae20&#45;&gt;Node0x5fdae61ed750</title>
<path fill="none" stroke="#4a6fa5" d="M215.42,-1249.89C288.53,-1262.29 391.78,-1279.8 443.44,-1288.56"/>
<polygon fill="#4a6fa5" stroke="#4a6fa5" points="443.21,-1290.65 449.48,-1289.59 443.91,-1286.51 443.21,-1290.65"/>
</g>
<!-- Node0x5fdae61ed350 -->
<g id="node32" class="node">
<title>Node0x5fdae61ed350</title>
<path fill="#f0f4ff" stroke="black" d="M555,-1254C555,-1254 398,-1254 398,-1254 392,-1254 386,-1248 386,-1242 386,-1242 386,-1230 386,-1230 386,-1224 392,-1218 398,-1218 398,-1218 555,-1218 555,-1218 561,-1218 567,-1224 567,-1230 567,-1230 567,-1242 567,-1242 567,-1248 561,-1254 555,-1254"/>
<text text-anchor="middle" x="476.5" y="-1233.8" font-family="Courier,monospace" font-size="9.00">CIccMpeCreator::CIccMpeCreator()</text>
</g>
<!-- Node0x5fdae61eae20&#45;&gt;Node0x5fdae61ed350 -->
<g id="edge30" class="edge">
<title>Node0x5fdae61eae20&#45;&gt;Node0x5fdae61ed350</title>
<path fill="none" stroke="#4a6fa5" d="M215.42,-1236C264.79,-1236 327.91,-1236 379.6,-1236"/>
<polygon fill="#4a6fa5" stroke="#4a6fa5" points="379.85,-1238.1 385.85,-1236 379.85,-1233.9 379.85,-1238.1"/>
</g>
<!-- Node0x5fdae61d5630 -->
<g id="node33" class="node">
<title>Node0x5fdae61d5630</title>
<path fill="#f0f4ff" stroke="black" d="M581,-1196C581,-1196 372,-1196 372,-1196 366,-1196 360,-1190 360,-1184 360,-1184 360,-1172 360,-1172 360,-1166 366,-1160 372,-1160 372,-1160 581,-1160 581,-1160 587,-1160 593,-1166 593,-1172 593,-1172 593,-1184 593,-1184 593,-1190 587,-1196 581,-1196"/>
<text text-anchor="middle" x="476.5" y="-1175.8" font-family="Courier,monospace" font-size="9.00">CIccBasicMpeFactory::CIccBasicMpeFactory()</text>
</g>
<!-- Node0x5fdae61eae20&#45;&gt;Node0x5fdae61d5630 -->
<g id="edge32" class="edge">
<title>Node0x5fdae61eae20&#45;&gt;Node0x5fdae61d5630</title>
<path fill="none" stroke="#4a6fa5" d="M215.42,-1222.11C259.67,-1214.6 314.96,-1205.23 363.17,-1197.05"/>
<polygon fill="#4a6fa5" stroke="#4a6fa5" points="363.75,-1199.08 369.32,-1196.01 363.05,-1194.94 363.75,-1199.08"/>
</g>
<!-- Node0x5fdae61da590 -->
<g id="node34" class="node">
<title>Node0x5fdae61da590</title>
<path fill="#f0f4ff" stroke="black" d="M552,-1138C552,-1138 401,-1138 401,-1138 395,-1138 389,-1132 389,-1126 389,-1126 389,-1114 389,-1114 389,-1108 395,-1102 401,-1102 401,-1102 552,-1102 552,-1102 558,-1102 564,-1108 564,-1114 564,-1114 564,-1126 564,-1126 564,-1132 558,-1138 552,-1138"/>
<text text-anchor="middle" x="476.5" y="-1117.8" font-family="Courier,monospace" font-size="9.00">CIccMpeCreator::DoPushFactory()</text>
</g>
<!-- Node0x5fdae61eae20&#45;&gt;Node0x5fdae61da590 -->
<g id="edge33" class="edge">
<title>Node0x5fdae61eae20&#45;&gt;Node0x5fdae61da590</title>
<path fill="none" stroke="#4a6fa5" d="M166.41,-1217.9C203.45,-1198.25 265.93,-1167.23 323,-1149 341.96,-1142.94 362.68,-1137.97 382.55,-1133.95"/>
<polygon fill="#4a6fa5" stroke="#4a6fa5" points="383.21,-1135.96 388.69,-1132.74 382.4,-1131.84 383.21,-1135.96"/>
</g>
<!-- Node0x5fdae61f3000 -->
<g id="node36" class="node">
<title>Node0x5fdae61f3000</title>
<path fill="#f0f4ff" stroke="black" d="M904,-1196C904,-1196 747,-1196 747,-1196 741,-1196 735,-1190 735,-1184 735,-1184 735,-1172 735,-1172 735,-1166 741,-1160 747,-1160 747,-1160 904,-1160 904,-1160 910,-1160 916,-1166 916,-1172 916,-1172 916,-1184 916,-1184 916,-1190 910,-1196 904,-1196"/>
<text text-anchor="middle" x="825.5" y="-1175.8" font-family="Courier,monospace" font-size="9.00">IIccMpeFactory::IIccMpeFactory()</text>
</g>
<!-- Node0x5fdae61d5630&#45;&gt;Node0x5fdae61f3000 -->
<g id="edge35" class="edge">
<title>Node0x5fdae61d5630&#45;&gt;Node0x5fdae61f3000</title>
<path fill="none" stroke="#4a6fa5" d="M593.05,-1178C637.11,-1178 686.81,-1178 728.83,-1178"/>
<polygon fill="#4a6fa5" stroke="#4a6fa5" points="728.97,-1180.1 734.97,-1178 728.97,-1175.9 728.97,-1180.1"/>
</g>
<!-- Node0x5fdae61ec6a0 -->
<g id="node35" class="node">
<title>Node0x5fdae61ec6a0</title>
<path fill="#f0f4ff" stroke="black" d="M851.5,-1138C851.5,-1138 799.5,-1138 799.5,-1138 793.5,-1138 787.5,-1132 787.5,-1126 787.5,-1126 787.5,-1114 787.5,-1114 787.5,-1108 793.5,-1102 799.5,-1102 799.5,-1102 851.5,-1102 851.5,-1102 857.5,-1102 863.5,-1108 863.5,-1114 863.5,-1114 863.5,-1126 863.5,-1126 863.5,-1132 857.5,-1138 851.5,-1138"/>
<text text-anchor="middle" x="825.5" y="-1117.8" font-family="Courier,monospace" font-size="9.00">push_front()</text>
</g>
<!-- Node0x5fdae61da590&#45;&gt;Node0x5fdae61ec6a0 -->
<g id="edge34" class="edge">
<title>Node0x5fdae61da590&#45;&gt;Node0x5fdae61ec6a0</title>
<path fill="none" stroke="#4a6fa5" d="M564.17,-1120C633.17,-1120 726.87,-1120 780.99,-1120"/>
<polygon fill="#4a6fa5" stroke="#4a6fa5" points="781.07,-1122.1 787.07,-1120 781.07,-1117.9 781.07,-1122.1"/>
</g>
<!-- Node0x5fdae61f3670 -->
<g id="node37" class="node">
<title>Node0x5fdae61f3670</title>
<path fill="#f0f4ff" stroke="black" d="M213.5,-1486C213.5,-1486 51.5,-1486 51.5,-1486 45.5,-1486 39.5,-1480 39.5,-1474 39.5,-1474 39.5,-1462 39.5,-1462 39.5,-1456 45.5,-1450 51.5,-1450 51.5,-1450 213.5,-1450 213.5,-1450 219.5,-1450 225.5,-1456 225.5,-1462 225.5,-1462 225.5,-1474 225.5,-1474 225.5,-1480 219.5,-1486 213.5,-1486"/>
<text text-anchor="middle" x="132.5" y="-1465.8" font-family="Courier,monospace" font-size="9.00">CIccMpeCreator::DoCreateElement()</text>
</g>
<!-- Node0x5fdae61f94a0 -->
<g id="node38" class="node">
<title>Node0x5fdae61f94a0</title>
<path fill="#f0f4ff" stroke="black" d="M224,-1544C224,-1544 41,-1544 41,-1544 35,-1544 29,-1538 29,-1532 29,-1532 29,-1520 29,-1520 29,-1514 35,-1508 41,-1508 41,-1508 224,-1508 224,-1508 230,-1508 236,-1514 236,-1520 236,-1520 236,-1532 236,-1532 236,-1538 230,-1544 224,-1544"/>
<text text-anchor="middle" x="132.5" y="-1523.8" font-family="Courier,monospace" font-size="9.00">CIccMpeCreator::DoGetElementSigName()</text>
</g>
<!-- Node0x5fdae61f8570 -->
<g id="node39" class="node">
<title>Node0x5fdae61f8570</title>
<path fill="#f0f4ff" stroke="black" d="M583.5,-1602C583.5,-1602 369.5,-1602 369.5,-1602 363.5,-1602 357.5,-1596 357.5,-1590 357.5,-1590 357.5,-1578 357.5,-1578 357.5,-1572 363.5,-1566 369.5,-1566 369.5,-1566 583.5,-1566 583.5,-1566 589.5,-1566 595.5,-1572 595.5,-1578 595.5,-1578 595.5,-1590 595.5,-1590 595.5,-1596 589.5,-1602 583.5,-1602"/>
<text text-anchor="middle" x="476.5" y="-1581.8" font-family="Courier,monospace" font-size="9.00">CIccBasicMpeFactory::~CIccBasicMpeFactory()</text>
</g>
<!-- Node0x5fdae61f82d0 -->
<g id="node40" class="node">
<title>Node0x5fdae61f82d0</title>
<path fill="#f0f4ff" stroke="black" d="M906.5,-1602C906.5,-1602 744.5,-1602 744.5,-1602 738.5,-1602 732.5,-1596 732.5,-1590 732.5,-1590 732.5,-1578 732.5,-1578 732.5,-1572 738.5,-1566 744.5,-1566 744.5,-1566 906.5,-1566 906.5,-1566 912.5,-1566 918.5,-1572 918.5,-1578 918.5,-1578 918.5,-1590 918.5,-1590 918.5,-1596 912.5,-1602 906.5,-1602"/>
<text text-anchor="middle" x="825.5" y="-1581.8" font-family="Courier,monospace" font-size="9.00">IIccMpeFactory::~IIccMpeFactory()</text>
</g>
<!-- Node0x5fdae61f8570&#45;&gt;Node0x5fdae61f82d0 -->
<g id="edge36" class="edge">
<title>Node0x5fdae61f8570&#45;&gt;Node0x5fdae61f82d0</title>
<path fill="none" stroke="#4a6fa5" d="M595.95,-1584C638.25,-1584 685.43,-1584 725.88,-1584"/>
<polygon fill="#4a6fa5" stroke="#4a6fa5" points="726.32,-1586.1 732.32,-1584 726.32,-1581.9 726.32,-1586.1"/>
</g>
<!-- Node0x5fdae61fa1d0 -->
<g id="node41" class="node">
<title>Node0x5fdae61fa1d0</title>
<path fill="#f0f4ff" stroke="black" d="M239.5,-1602C239.5,-1602 25.5,-1602 25.5,-1602 19.5,-1602 13.5,-1596 13.5,-1590 13.5,-1590 13.5,-1578 13.5,-1578 13.5,-1572 19.5,-1566 25.5,-1566 25.5,-1566 239.5,-1566 239.5,-1566 245.5,-1566 251.5,-1572 251.5,-1578 251.5,-1578 251.5,-1590 251.5,-1590 251.5,-1596 245.5,-1602 239.5,-1602"/>
<text text-anchor="middle" x="132.5" y="-1581.8" font-family="Courier,monospace" font-size="9.00">CIccBasicMpeFactory::~CIccBasicMpeFactory()</text>
</g>
<!-- Node0x5fdae61fa1d0&#45;&gt;Node0x5fdae61f8570 -->
<g id="edge37" class="edge">
<title>Node0x5fdae61fa1d0&#45;&gt;Node0x5fdae61f8570</title>
<path fill="none" stroke="#4a6fa5" d="M251.68,-1584C283.85,-1584 318.79,-1584 351.28,-1584"/>
<polygon fill="#4a6fa5" stroke="#4a6fa5" points="351.32,-1586.1 357.32,-1584 351.32,-1581.9 351.32,-1586.1"/>
</g>
<!-- Node0x5fdae61ffa20 -->
<g id="node42" class="node">
<title>Node0x5fdae61ffa20</title>
<path fill="#f0f4ff" stroke="black" d="M253,-1660C253,-1660 12,-1660 12,-1660 6,-1660 0,-1654 0,-1648 0,-1648 0,-1636 0,-1636 0,-1630 6,-1624 12,-1624 12,-1624 253,-1624 253,-1624 259,-1624 265,-1630 265,-1636 265,-1636 265,-1648 265,-1648 265,-1654 259,-1660 253,-1660"/>
<text text-anchor="middle" x="132.5" y="-1639.8" font-family="Courier,monospace" font-size="9.00">__detail::_List_node_header::_List_node_header()</text>
</g>
<!-- Node0x5fdae61ff6d0 -->
<g id="node43" class="node">
<title>Node0x5fdae61ff6d0</title>
<path fill="#f0f4ff" stroke="black" d="M570.5,-1660C570.5,-1660 382.5,-1660 382.5,-1660 376.5,-1660 370.5,-1654 370.5,-1648 370.5,-1648 370.5,-1636 370.5,-1636 370.5,-1630 376.5,-1624 382.5,-1624 382.5,-1624 570.5,-1624 570.5,-1624 576.5,-1624 582.5,-1630 582.5,-1636 582.5,-1636 582.5,-1648 582.5,-1648 582.5,-1654 576.5,-1660 570.5,-1660"/>
<text text-anchor="middle" x="476.5" y="-1639.8" font-family="Courier,monospace" font-size="9.00">__detail::_List_node_header::_M_init()</text>
</g>
<!-- Node0x5fdae61ffa20&#45;&gt;Node0x5fdae61ff6d0 -->
<g id="edge38" class="edge">
<title>Node0x5fdae61ffa20&#45;&gt;Node0x5fdae61ff6d0</title>
<path fill="none" stroke="#4a6fa5" d="M265.24,-1642C297.87,-1642 332.53,-1642 364.08,-1642"/>
<polygon fill="#4a6fa5" stroke="#4a6fa5" points="364.35,-1644.1 370.35,-1642 364.35,-1639.9 364.35,-1644.1"/>
</g>
<!-- Node0x5fdae6202c40 -->
<g id="node44" class="node">
<title>Node0x5fdae6202c40</title>
<path fill="#f0f4ff" stroke="black" d="M147.5,-1718C147.5,-1718 117.5,-1718 117.5,-1718 111.5,-1718 105.5,-1712 105.5,-1706 105.5,-1706 105.5,-1694 105.5,-1694 105.5,-1688 111.5,-1682 117.5,-1682 117.5,-1682 147.5,-1682 147.5,-1682 153.5,-1682 159.5,-1688 159.5,-1694 159.5,-1694 159.5,-1706 159.5,-1706 159.5,-1712 153.5,-1718 147.5,-1718"/>
<text text-anchor="middle" x="132.5" y="-1697.8" font-family="Courier,monospace" font-size="9.00">reset()</text>
</g>
<!-- Node0x5fdae6203250 -->
<g id="node45" class="node">
<title>Node0x5fdae6203250</title>
<path fill="#f0f4ff" stroke="black" d="M150.5,-1776C150.5,-1776 114.5,-1776 114.5,-1776 108.5,-1776 102.5,-1770 102.5,-1764 102.5,-1764 102.5,-1752 102.5,-1752 102.5,-1746 108.5,-1740 114.5,-1740 114.5,-1740 150.5,-1740 150.5,-1740 156.5,-1740 162.5,-1746 162.5,-1752 162.5,-1752 162.5,-1764 162.5,-1764 162.5,-1770 156.5,-1776 150.5,-1776"/>
<text text-anchor="middle" x="132.5" y="-1755.8" font-family="Courier,monospace" font-size="9.00">release()</text>
</g>
<!-- Node0x5fdae61e7860 -->
<g id="node46" class="node">
<title>Node0x5fdae61e7860</title>
<path fill="#f0f4ff" stroke="black" d="M213.5,-1834C213.5,-1834 51.5,-1834 51.5,-1834 45.5,-1834 39.5,-1828 39.5,-1822 39.5,-1822 39.5,-1810 39.5,-1810 39.5,-1804 45.5,-1798 51.5,-1798 51.5,-1798 213.5,-1798 213.5,-1798 219.5,-1798 225.5,-1804 225.5,-1810 225.5,-1810 225.5,-1822 225.5,-1822 225.5,-1828 219.5,-1834 213.5,-1834"/>
<text text-anchor="middle" x="132.5" y="-1813.8" font-family="Courier,monospace" font-size="9.00">IIccMpeFactory::~IIccMpeFactory()</text>
</g>
<!-- Node0x5fdae61f06a0 -->
<g id="node47" class="node">
<title>Node0x5fdae61f06a0</title>
<path fill="#f0f4ff" stroke="black" d="M171.5,-1892C171.5,-1892 93.5,-1892 93.5,-1892 87.5,-1892 81.5,-1886 81.5,-1880 81.5,-1880 81.5,-1868 81.5,-1868 81.5,-1862 87.5,-1856 93.5,-1856 93.5,-1856 171.5,-1856 171.5,-1856 177.5,-1856 183.5,-1862 183.5,-1868 183.5,-1868 183.5,-1880 183.5,-1880 183.5,-1886 177.5,-1892 171.5,-1892"/>
<text text-anchor="middle" x="132.5" y="-1871.8" font-family="Courier,monospace" font-size="9.00">__uniq_ptr_impl()</text>
</g>
<!-- Node0x5fdae61de570 -->
<g id="node48" class="node">
<title>Node0x5fdae61de570</title>
<path fill="#f0f4ff" stroke="black" d="M515.5,-1892C515.5,-1892 437.5,-1892 437.5,-1892 431.5,-1892 425.5,-1886 425.5,-1880 425.5,-1880 425.5,-1868 425.5,-1868 425.5,-1862 431.5,-1856 437.5,-1856 437.5,-1856 515.5,-1856 515.5,-1856 521.5,-1856 527.5,-1862 527.5,-1868 527.5,-1868 527.5,-1880 527.5,-1880 527.5,-1886 521.5,-1892 515.5,-1892"/>
<text text-anchor="middle" x="476.5" y="-1871.8" font-family="Courier,monospace" font-size="9.00">__uniq_ptr_impl()</text>
</g>
<!-- Node0x5fdae61f06a0&#45;&gt;Node0x5fdae61de570 -->
<g id="edge39" class="edge">
<title>Node0x5fdae61f06a0&#45;&gt;Node0x5fdae61de570</title>
<path fill="none" stroke="#4a6fa5" d="M183.6,-1874C246.32,-1874 353.49,-1874 419.06,-1874"/>
<polygon fill="#4a6fa5" stroke="#4a6fa5" points="419.27,-1876.1 425.27,-1874 419.27,-1871.9 419.27,-1876.1"/>
</g>
<!-- Node0x5fdae620ce90 -->
<g id="node49" class="node">
<title>Node0x5fdae620ce90</title>
<path fill="#f0f4ff" stroke="black" d="M221.5,-1950C221.5,-1950 43.5,-1950 43.5,-1950 37.5,-1950 31.5,-1944 31.5,-1938 31.5,-1938 31.5,-1926 31.5,-1926 31.5,-1920 37.5,-1914 43.5,-1914 43.5,-1914 221.5,-1914 221.5,-1914 227.5,-1914 233.5,-1920 233.5,-1926 233.5,-1926 233.5,-1938 233.5,-1938 233.5,-1944 227.5,-1950 221.5,-1950"/>
<text text-anchor="middle" x="132.5" y="-1929.8" font-family="Courier,monospace" font-size="9.00">__detail::_List_node_base::_M_hook()</text>
</g>
<!-- Node0x5fdae620f2e0 -->
<g id="node50" class="node">
<title>Node0x5fdae620f2e0</title>
<path fill="#f0f4ff" stroke="black" d="M171.5,-2008C171.5,-2008 93.5,-2008 93.5,-2008 87.5,-2008 81.5,-2002 81.5,-1996 81.5,-1996 81.5,-1984 81.5,-1984 81.5,-1978 87.5,-1972 93.5,-1972 93.5,-1972 171.5,-1972 171.5,-1972 177.5,-1972 183.5,-1978 183.5,-1984 183.5,-1984 183.5,-1996 183.5,-1996 183.5,-2002 177.5,-2008 171.5,-2008"/>
<text text-anchor="middle" x="132.5" y="-1987.8" font-family="Courier,monospace" font-size="9.00">__allocated_ptr()</text>
</g>
<!-- Node0x5fdae6210a10 -->
<g id="node51" class="node">
<title>Node0x5fdae6210a10</title>
<path fill="#f0f4ff" stroke="black" d="M153,-2066C153,-2066 112,-2066 112,-2066 106,-2066 100,-2060 100,-2054 100,-2054 100,-2042 100,-2042 100,-2036 106,-2030 112,-2030 112,-2030 153,-2030 153,-2030 159,-2030 165,-2036 165,-2042 165,-2042 165,-2054 165,-2054 165,-2060 159,-2066 153,-2066"/>
<text text-anchor="middle" x="132.5" y="-2045.8" font-family="Courier,monospace" font-size="9.00">decltype()</text>
</g>
<!-- Node0x5fdae62108b0 -->
<g id="node52" class="node">
<title>Node0x5fdae62108b0</title>
<path fill="#f0f4ff" stroke="black" d="M171.5,-2124C171.5,-2124 93.5,-2124 93.5,-2124 87.5,-2124 81.5,-2118 81.5,-2112 81.5,-2112 81.5,-2100 81.5,-2100 81.5,-2094 87.5,-2088 93.5,-2088 93.5,-2088 171.5,-2088 171.5,-2088 177.5,-2088 183.5,-2094 183.5,-2100 183.5,-2100 183.5,-2112 183.5,-2112 183.5,-2118 177.5,-2124 171.5,-2124"/>
<text text-anchor="middle" x="132.5" y="-2103.8" font-family="Courier,monospace" font-size="9.00">__allocated_ptr()</text>
</g>
<!-- Node0x5fdae62119d0 -->
<g id="node53" class="node">
<title>Node0x5fdae62119d0</title>
<path fill="#f0f4ff" stroke="black" d="M226.5,-2182C226.5,-2182 38.5,-2182 38.5,-2182 32.5,-2182 26.5,-2176 26.5,-2170 26.5,-2170 26.5,-2158 26.5,-2158 26.5,-2152 32.5,-2146 38.5,-2146 38.5,-2146 226.5,-2146 226.5,-2146 232.5,-2146 238.5,-2152 238.5,-2158 238.5,-2158 238.5,-2170 238.5,-2170 238.5,-2176 232.5,-2182 226.5,-2182"/>
<text text-anchor="middle" x="132.5" y="-2161.8" font-family="Courier,monospace" font-size="9.00">__detail::_List_node_base::_M_unhook()</text>
</g>
<!-- Node0x5fdae61daa30 -->
<g id="node54" class="node">
<title>Node0x5fdae61daa30</title>
<path fill="#f0f4ff" stroke="black" d="M211,-2240C211,-2240 54,-2240 54,-2240 48,-2240 42,-2234 42,-2228 42,-2228 42,-2216 42,-2216 42,-2210 48,-2204 54,-2204 54,-2204 211,-2204 211,-2204 217,-2204 223,-2210 223,-2216 223,-2216 223,-2228 223,-2228 223,-2234 217,-2240 211,-2240"/>
<text text-anchor="middle" x="132.5" y="-2219.8" font-family="Courier,monospace" font-size="9.00">_GLOBAL__sub_I_IccMpeFactory.cpp</text>
</g>
</g>
</svg>
