<?xml version="1.0" encoding="UTF-8" standalone="no"?>
<!DOCTYPE svg PUBLIC "-//W3C//DTD SVG 1.1//EN"
 "http://www.w3.org/Graphics/SVG/1.1/DTD/svg11.dtd">
<!-- Generated by graphviz version 2.43.0 (0)
 -->
<!-- Title: Call graph: /home/h02332/po/research/call&#45;graph/iccdev/proflib/IccMpeACS.ll Pages: 1 -->
<svg width="915pt" height="2196pt"
 viewBox="0.00 0.00 915.20 2196.20" xmlns="http://www.w3.org/2000/svg" xmlns:xlink="http://www.w3.org/1999/xlink">
<g id="graph0" class="graph" transform="scale(1 1) rotate(0) translate(21.6 2174.6)">
<title>Call graph: /home/h02332/po/research/call&#45;graph/iccdev/proflib/IccMpeACS.ll</title>
<polygon fill="white" stroke="transparent" points="-21.6,21.6 -21.6,-2174.6 893.6,-2174.6 893.6,21.6 -21.6,21.6"/>
<!-- Node0x59f241006790 -->
<g id="node1" class="node">
<title>Node0x59f241006790</title>
<path fill="#f0f4ff" stroke="black" d="M493.5,-326C493.5,-326 378.5,-326 378.5,-326 372.5,-326 366.5,-320 366.5,-314 366.5,-314 366.5,-302 366.5,-302 366.5,-296 372.5,-290 378.5,-290 378.5,-290 493.5,-290 493.5,-290 499.5,-290 505.5,-296 505.5,-302 505.5,-302 505.5,-314 505.5,-314 505.5,-320 499.5,-326 493.5,-326"/>
<text text-anchor="middle" x="436" y="-305.8" font-family="Courier,monospace" font-size="9.00">CIccMpeAcs::CIccMpeAcs()</text>
</g>
<!-- Node0x59f241008ca0 -->
<g id="node2" class="node">
<title>Node0x59f241008ca0</title>
<path fill="#f0f4ff" stroke="black" d="M857.5,-326C857.5,-326 606.5,-326 606.5,-326 600.5,-326 594.5,-320 594.5,-314 594.5,-314 594.5,-302 594.5,-302 594.5,-296 600.5,-290 606.5,-290 606.5,-290 857.5,-290 857.5,-290 863.5,-290 869.5,-296 869.5,-302 869.5,-302 869.5,-314 869.5,-314 869.5,-320 863.5,-326 857.5,-326"/>
<text text-anchor="middle" x="732" y="-305.8" font-family="Courier,monospace" font-size="9.00">CIccMultiProcessElement::CIccMultiProcessElement()</text>
</g>
<!-- Node0x59f241006790&#45;&gt;Node0x59f241008ca0 -->
<g id="edge1" class="edge">
<title>Node0x59f241006790&#45;&gt;Node0x59f241008ca0</title>
<path fill="none" stroke="#4a6fa5" d="M505.56,-308C530.35,-308 559.35,-308 588.14,-308"/>
<polygon fill="#4a6fa5" stroke="#4a6fa5" points="588.28,-310.1 594.28,-308 588.28,-305.9 588.28,-310.1"/>
</g>
<!-- Node0x59f241019840 -->
<g id="node3" class="node">
<title>Node0x59f241019840</title>
<path fill="#f0f4ff" stroke="black" d="M192,-471C192,-471 88,-471 88,-471 82,-471 76,-465 76,-459 76,-459 76,-447 76,-447 76,-441 82,-435 88,-435 88,-435 192,-435 192,-435 198,-435 204,-441 204,-447 204,-447 204,-459 204,-459 204,-465 198,-471 192,-471"/>
<text text-anchor="middle" x="140" y="-450.8" font-family="Courier,monospace" font-size="9.00">CIccMpeAcs::Validate()</text>
</g>
<!-- Node0x59f241018720 -->
<g id="node4" class="node">
<title>Node0x59f241018720</title>
<path fill="#f0f4ff" stroke="black" d="M522,-471C522,-471 350,-471 350,-471 344,-471 338,-465 338,-459 338,-459 338,-447 338,-447 338,-441 344,-435 350,-435 350,-435 522,-435 522,-435 528,-435 534,-441 534,-447 534,-447 534,-459 534,-459 534,-465 528,-471 522,-471"/>
<text text-anchor="middle" x="436" y="-450.8" font-family="Courier,monospace" font-size="9.00">CIccMultiProcessElement::Validate()</text>
</g>
<!-- Node0x59f241019840&#45;&gt;Node0x59f241018720 -->
<g id="edge2" class="edge">
<title>Node0x59f241019840&#45;&gt;Node0x59f241018720</title>
<path fill="none" stroke="#4a6fa5" d="M204.07,-453C241.22,-453 289.12,-453 331.66,-453"/>
<polygon fill="#4a6fa5" stroke="#4a6fa5" points="331.89,-455.1 337.89,-453 331.89,-450.9 331.89,-455.1"/>
</g>
<!-- Node0x59f24104e4b0 -->
<g id="node5" class="node">
<title>Node0x59f24104e4b0</title>
<path fill="#f0f4ff" stroke="black" d="M200,-529C200,-529 80,-529 80,-529 74,-529 68,-523 68,-517 68,-517 68,-505 68,-505 68,-499 74,-493 80,-493 80,-493 200,-493 200,-493 206,-493 212,-499 212,-505 212,-505 212,-517 212,-517 212,-523 206,-529 200,-529"/>
<text text-anchor="middle" x="140" y="-508.8" font-family="Courier,monospace" font-size="9.00">CIccMpeEAcs::GetEAcsSig()</text>
</g>
<!-- Node0x59f241009710 -->
<g id="node6" class="node">
<title>Node0x59f241009710</title>
<path fill="#f0f4ff" stroke="black" d="M496,-616C496,-616 376,-616 376,-616 370,-616 364,-610 364,-604 364,-604 364,-592 364,-592 364,-586 370,-580 376,-580 376,-580 496,-580 496,-580 502,-580 508,-586 508,-592 508,-592 508,-604 508,-604 508,-610 502,-616 496,-616"/>
<text text-anchor="middle" x="436" y="-595.8" font-family="Courier,monospace" font-size="9.00">CIccMpeAcs::~CIccMpeAcs()</text>
</g>
<!-- Node0x59f240f879d0 -->
<g id="node7" class="node">
<title>Node0x59f240f879d0</title>
<path fill="#f0f4ff" stroke="black" d="M860,-616C860,-616 604,-616 604,-616 598,-616 592,-610 592,-604 592,-604 592,-592 592,-592 592,-586 598,-580 604,-580 604,-580 860,-580 860,-580 866,-580 872,-586 872,-592 872,-592 872,-604 872,-604 872,-610 866,-616 860,-616"/>
<text text-anchor="middle" x="732" y="-595.8" font-family="Courier,monospace" font-size="9.00">CIccMultiProcessElement::~CIccMultiProcessElement()</text>
</g>
<!-- Node0x59f241009710&#45;&gt;Node0x59f240f879d0 -->
<g id="edge3" class="edge">
<title>Node0x59f241009710&#45;&gt;Node0x59f240f879d0</title>
<path fill="none" stroke="#4a6fa5" d="M508.17,-598C531.71,-598 558.82,-598 585.85,-598"/>
<polygon fill="#4a6fa5" stroke="#4a6fa5" points="585.98,-600.1 591.98,-598 585.98,-595.9 585.98,-600.1"/>
</g>
<!-- Node0x59f240f7bbc0 -->
<g id="node8" class="node">
<title>Node0x59f240f7bbc0</title>
<path fill="#f0f4ff" stroke="black" d="M200,-703C200,-703 80,-703 80,-703 74,-703 68,-697 68,-691 68,-691 68,-679 68,-679 68,-673 74,-667 80,-667 80,-667 200,-667 200,-667 206,-667 212,-673 212,-679 212,-679 212,-691 212,-691 212,-697 206,-703 200,-703"/>
<text text-anchor="middle" x="140" y="-682.8" font-family="Courier,monospace" font-size="9.00">CIccMpeAcs::~CIccMpeAcs()</text>
</g>
<!-- Node0x59f240f76940 -->
<g id="node9" class="node">
<title>Node0x59f240f76940</title>
<path fill="#f0f4ff" stroke="black" d="M192,-761C192,-761 88,-761 88,-761 82,-761 76,-755 76,-749 76,-749 76,-737 76,-737 76,-731 82,-725 88,-725 88,-725 192,-725 192,-725 198,-725 204,-731 204,-737 204,-737 204,-749 204,-749 204,-755 198,-761 192,-761"/>
<text text-anchor="middle" x="140" y="-740.8" font-family="Courier,monospace" font-size="9.00">CIccMpeAcs::Describe()</text>
</g>
<!-- Node0x59f240f7bfb0 -->
<g id="node10" class="node">
<title>Node0x59f240f7bfb0</title>
<path fill="#f0f4ff" stroke="black" d="M459,-790C459,-790 413,-790 413,-790 407,-790 401,-784 401,-778 401,-778 401,-766 401,-766 401,-760 407,-754 413,-754 413,-754 459,-754 459,-754 465,-754 471,-760 471,-766 471,-766 471,-778 471,-778 471,-784 465,-790 459,-790"/>
<text text-anchor="middle" x="436" y="-769.8" font-family="Courier,monospace" font-size="9.00">icMemDump()</text>
</g>
<!-- Node0x59f240f76940&#45;&gt;Node0x59f240f7bfb0 -->
<g id="edge4" class="edge">
<title>Node0x59f240f76940&#45;&gt;Node0x59f240f7bfb0</title>
<path fill="none" stroke="#4a6fa5" d="M204.07,-749.22C261.83,-754.92 345.6,-763.18 394.77,-768.03"/>
<polygon fill="#4a6fa5" stroke="#4a6fa5" points="394.71,-770.14 400.88,-768.63 395.12,-765.96 394.71,-770.14"/>
</g>
<!-- Node0x59f2410143f0 -->
<g id="node11" class="node">
<title>Node0x59f2410143f0</title>
<path fill="#f0f4ff" stroke="black" d="M456.5,-732C456.5,-732 415.5,-732 415.5,-732 409.5,-732 403.5,-726 403.5,-720 403.5,-720 403.5,-708 403.5,-708 403.5,-702 409.5,-696 415.5,-696 415.5,-696 456.5,-696 456.5,-696 462.5,-696 468.5,-702 468.5,-708 468.5,-708 468.5,-720 468.5,-720 468.5,-726 462.5,-732 456.5,-732"/>
<text text-anchor="middle" x="436" y="-711.8" font-family="Courier,monospace" font-size="9.00">icGetSig()</text>
</g>
<!-- Node0x59f240f76940&#45;&gt;Node0x59f2410143f0 -->
<g id="edge5" class="edge">
<title>Node0x59f240f76940&#45;&gt;Node0x59f2410143f0</title>
<path fill="none" stroke="#4a6fa5" d="M204.07,-736.78C262.81,-730.99 348.42,-722.54 397.22,-717.73"/>
<polygon fill="#4a6fa5" stroke="#4a6fa5" points="397.51,-719.81 403.27,-717.13 397.09,-715.63 397.51,-719.81"/>
</g>
<!-- Node0x59f2410146d0 -->
<g id="node12" class="node">
<title>Node0x59f2410146d0</title>
<path fill="#f0f4ff" stroke="black" d="M181.5,-65C181.5,-65 98.5,-65 98.5,-65 92.5,-65 86.5,-59 86.5,-53 86.5,-53 86.5,-41 86.5,-41 86.5,-35 92.5,-29 98.5,-29 98.5,-29 181.5,-29 181.5,-29 187.5,-29 193.5,-35 193.5,-41 193.5,-41 193.5,-53 193.5,-53 193.5,-59 187.5,-65 181.5,-65"/>
<text text-anchor="middle" x="140" y="-44.8" font-family="Courier,monospace" font-size="9.00">CIccMpeAcs::Read()</text>
</g>
<!-- Node0x59f241014540 -->
<g id="node13" class="node">
<title>Node0x59f241014540</title>
<path fill="#f0f4ff" stroke="black" d="M472.5,-94C472.5,-94 399.5,-94 399.5,-94 393.5,-94 387.5,-88 387.5,-82 387.5,-82 387.5,-70 387.5,-70 387.5,-64 393.5,-58 399.5,-58 399.5,-58 472.5,-58 472.5,-58 478.5,-58 484.5,-64 484.5,-70 484.5,-70 484.5,-82 484.5,-82 484.5,-88 478.5,-94 472.5,-94"/>
<text text-anchor="middle" x="436" y="-73.8" font-family="Courier,monospace" font-size="9.00">CIccIO::Read32()</text>
</g>
<!-- Node0x59f2410146d0&#45;&gt;Node0x59f241014540 -->
<g id="edge6" class="edge">
<title>Node0x59f2410146d0&#45;&gt;Node0x59f241014540</title>
<path fill="none" stroke="#4a6fa5" d="M193.56,-52.18C246.52,-57.41 327.84,-65.43 381.23,-70.7"/>
<polygon fill="#4a6fa5" stroke="#4a6fa5" points="381.09,-72.79 387.27,-71.29 381.51,-68.61 381.09,-72.79"/>
</g>
<!-- Node0x59f240f7dd80 -->
<g id="node14" class="node">
<title>Node0x59f240f7dd80</title>
<path fill="#f0f4ff" stroke="black" d="M472.5,-36C472.5,-36 399.5,-36 399.5,-36 393.5,-36 387.5,-30 387.5,-24 387.5,-24 387.5,-12 387.5,-12 387.5,-6 393.5,0 399.5,0 399.5,0 472.5,0 472.5,0 478.5,0 484.5,-6 484.5,-12 484.5,-12 484.5,-24 484.5,-24 484.5,-30 478.5,-36 472.5,-36"/>
<text text-anchor="middle" x="436" y="-15.8" font-family="Courier,monospace" font-size="9.00">CIccIO::Read16()</text>
</g>
<!-- Node0x59f2410146d0&#45;&gt;Node0x59f240f7dd80 -->
<g id="edge7" class="edge">
<title>Node0x59f2410146d0&#45;&gt;Node0x59f240f7dd80</title>
<path fill="none" stroke="#4a6fa5" d="M193.56,-41.82C246.52,-36.59 327.84,-28.57 381.23,-23.3"/>
<polygon fill="#4a6fa5" stroke="#4a6fa5" points="381.51,-25.39 387.27,-22.71 381.09,-21.21 381.51,-25.39"/>
</g>
<!-- Node0x59f241016260 -->
<g id="node15" class="node">
<title>Node0x59f241016260</title>
<path fill="#f0f4ff" stroke="black" d="M490.5,-181C490.5,-181 381.5,-181 381.5,-181 375.5,-181 369.5,-175 369.5,-169 369.5,-169 369.5,-157 369.5,-157 369.5,-151 375.5,-145 381.5,-145 381.5,-145 490.5,-145 490.5,-145 496.5,-145 502.5,-151 502.5,-157 502.5,-157 502.5,-169 502.5,-169 502.5,-175 496.5,-181 490.5,-181"/>
<text text-anchor="middle" x="436" y="-160.8" font-family="Courier,monospace" font-size="9.00">CIccMpeAcs::AllocData()</text>
</g>
<!-- Node0x59f2410146d0&#45;&gt;Node0x59f241016260 -->
<g id="edge8" class="edge">
<title>Node0x59f2410146d0&#45;&gt;Node0x59f241016260</title>
<path fill="none" stroke="#4a6fa5" d="M193.55,-54.07C220.03,-58.6 252.3,-65.62 280,-76 303.96,-84.98 361.93,-118.84 399.78,-141.57"/>
<polygon fill="#4a6fa5" stroke="#4a6fa5" points="398.99,-143.55 405.22,-144.84 401.16,-139.95 398.99,-143.55"/>
</g>
<!-- Node0x59f241015670 -->
<g id="node16" class="node">
<title>Node0x59f241015670</title>
<path fill="#f0f4ff" stroke="black" d="M184,-877C184,-877 96,-877 96,-877 90,-877 84,-871 84,-865 84,-865 84,-853 84,-853 84,-847 90,-841 96,-841 96,-841 184,-841 184,-841 190,-841 196,-847 196,-853 196,-853 196,-865 196,-865 196,-871 190,-877 184,-877"/>
<text text-anchor="middle" x="140" y="-856.8" font-family="Courier,monospace" font-size="9.00">CIccMpeAcs::Write()</text>
</g>
<!-- Node0x59f241016ce0 -->
<g id="node17" class="node">
<title>Node0x59f241016ce0</title>
<path fill="#f0f4ff" stroke="black" d="M475,-906C475,-906 397,-906 397,-906 391,-906 385,-900 385,-894 385,-894 385,-882 385,-882 385,-876 391,-870 397,-870 397,-870 475,-870 475,-870 481,-870 487,-876 487,-882 487,-882 487,-894 487,-894 487,-900 481,-906 475,-906"/>
<text text-anchor="middle" x="436" y="-885.8" font-family="Courier,monospace" font-size="9.00">CIccIO::Write32()</text>
</g>
<!-- Node0x59f241015670&#45;&gt;Node0x59f241016ce0 -->
<g id="edge9" class="edge">
<title>Node0x59f241015670&#45;&gt;Node0x59f241016ce0</title>
<path fill="none" stroke="#4a6fa5" d="M196.3,-864.45C248.41,-869.59 326.11,-877.26 378.58,-882.43"/>
<polygon fill="#4a6fa5" stroke="#4a6fa5" points="378.67,-884.55 384.85,-883.05 379.09,-880.37 378.67,-884.55"/>
</g>
<!-- Node0x59f241017e60 -->
<g id="node18" class="node">
<title>Node0x59f241017e60</title>
<path fill="#f0f4ff" stroke="black" d="M475,-848C475,-848 397,-848 397,-848 391,-848 385,-842 385,-836 385,-836 385,-824 385,-824 385,-818 391,-812 397,-812 397,-812 475,-812 475,-812 481,-812 487,-818 487,-824 487,-824 487,-836 487,-836 487,-842 481,-848 475,-848"/>
<text text-anchor="middle" x="436" y="-827.8" font-family="Courier,monospace" font-size="9.00">CIccIO::Write16()</text>
</g>
<!-- Node0x59f241015670&#45;&gt;Node0x59f241017e60 -->
<g id="edge10" class="edge">
<title>Node0x59f241015670&#45;&gt;Node0x59f241017e60</title>
<path fill="none" stroke="#4a6fa5" d="M196.3,-853.55C248.41,-848.41 326.11,-840.74 378.58,-835.57"/>
<polygon fill="#4a6fa5" stroke="#4a6fa5" points="379.09,-837.63 384.85,-834.95 378.67,-833.45 379.09,-837.63"/>
</g>
<!-- Node0x59f241017be0 -->
<g id="node19" class="node">
<title>Node0x59f241017be0</title>
<path fill="#f0f4ff" stroke="black" d="M184,-935C184,-935 96,-935 96,-935 90,-935 84,-929 84,-923 84,-923 84,-911 84,-911 84,-905 90,-899 96,-899 96,-899 184,-899 184,-899 190,-899 196,-905 196,-911 196,-911 196,-923 196,-923 196,-929 190,-935 184,-935"/>
<text text-anchor="middle" x="140" y="-914.8" font-family="Courier,monospace" font-size="9.00">CIccMpeAcs::Begin()</text>
</g>
<!-- Node0x59f241017960 -->
<g id="node20" class="node">
<title>Node0x59f241017960</title>
<path fill="#f0f4ff" stroke="black" d="M184,-993C184,-993 96,-993 96,-993 90,-993 84,-987 84,-981 84,-981 84,-969 84,-969 84,-963 90,-957 96,-957 96,-957 184,-957 184,-957 190,-957 196,-963 196,-969 196,-969 196,-981 196,-981 196,-987 190,-993 184,-993"/>
<text text-anchor="middle" x="140" y="-972.8" font-family="Courier,monospace" font-size="9.00">CIccMpeAcs::Apply()</text>
</g>
<!-- Node0x59f24101a300 -->
<g id="node21" class="node">
<title>Node0x59f24101a300</title>
<path fill="#f0f4ff" stroke="black" d="M202.5,-355C202.5,-355 77.5,-355 77.5,-355 71.5,-355 65.5,-349 65.5,-343 65.5,-343 65.5,-331 65.5,-331 65.5,-325 71.5,-319 77.5,-319 77.5,-319 202.5,-319 202.5,-319 208.5,-319 214.5,-325 214.5,-331 214.5,-331 214.5,-343 214.5,-343 214.5,-349 208.5,-355 202.5,-355"/>
<text text-anchor="middle" x="140" y="-334.8" font-family="Courier,monospace" font-size="9.00">CIccMpeBAcs::CIccMpeBAcs()</text>
</g>
<!-- Node0x59f24101a300&#45;&gt;Node0x59f241006790 -->
<g id="edge11" class="edge">
<title>Node0x59f24101a300&#45;&gt;Node0x59f241006790</title>
<path fill="none" stroke="#4a6fa5" d="M214.81,-329.72C259.16,-325.34 315.44,-319.79 360,-315.4"/>
<polygon fill="#4a6fa5" stroke="#4a6fa5" points="360.45,-317.46 366.21,-314.79 360.03,-313.28 360.45,-317.46"/>
</g>
<!-- Node0x59f24101a600 -->
<g id="node22" class="node">
<title>Node0x59f24101a600</title>
<path fill="#f0f4ff" stroke="black" d="M202.5,-239C202.5,-239 77.5,-239 77.5,-239 71.5,-239 65.5,-233 65.5,-227 65.5,-227 65.5,-215 65.5,-215 65.5,-209 71.5,-203 77.5,-203 77.5,-203 202.5,-203 202.5,-203 208.5,-203 214.5,-209 214.5,-215 214.5,-215 214.5,-227 214.5,-227 214.5,-233 208.5,-239 202.5,-239"/>
<text text-anchor="middle" x="140" y="-218.8" font-family="Courier,monospace" font-size="9.00">CIccMpeBAcs::CIccMpeBAcs()</text>
</g>
<!-- Node0x59f24101a600&#45;&gt;Node0x59f241006790 -->
<g id="edge12" class="edge">
<title>Node0x59f24101a600&#45;&gt;Node0x59f241006790</title>
<path fill="none" stroke="#4a6fa5" d="M214.74,-234.21C235.97,-238.59 259.04,-243.93 280,-250 316.22,-260.49 356.05,-275.47 386.26,-287.58"/>
<polygon fill="#4a6fa5" stroke="#4a6fa5" points="385.82,-289.66 392.17,-289.96 387.39,-285.77 385.82,-289.66"/>
</g>
<!-- Node0x59f24101a600&#45;&gt;Node0x59f241016260 -->
<g id="edge13" class="edge">
<title>Node0x59f24101a600&#45;&gt;Node0x59f241016260</title>
<path fill="none" stroke="#4a6fa5" d="M214.81,-206.44C260.23,-197.48 318.16,-186.05 363.2,-177.16"/>
<polygon fill="#4a6fa5" stroke="#4a6fa5" points="363.71,-179.21 369.19,-175.98 362.89,-175.08 363.71,-179.21"/>
</g>
<!-- Node0x59f24101a4c0 -->
<g id="node23" class="node">
<title>Node0x59f24101a4c0</title>
<path fill="#f0f4ff" stroke="black" d="M244.5,-123C244.5,-123 35.5,-123 35.5,-123 29.5,-123 23.5,-117 23.5,-111 23.5,-111 23.5,-99 23.5,-99 23.5,-93 29.5,-87 35.5,-87 35.5,-87 244.5,-87 244.5,-87 250.5,-87 256.5,-93 256.5,-99 256.5,-99 256.5,-111 256.5,-111 256.5,-117 250.5,-123 244.5,-123"/>
<text text-anchor="middle" x="140" y="-102.8" font-family="Courier,monospace" font-size="9.00">CIccMpeBAcs::operator=(CIccMpeBAcs const&amp;)</text>
</g>
<!-- Node0x59f24101a4c0&#45;&gt;Node0x59f241016260 -->
<g id="edge14" class="edge">
<title>Node0x59f24101a4c0&#45;&gt;Node0x59f241016260</title>
<path fill="none" stroke="#4a6fa5" d="M232.41,-123.03C274.49,-131.34 323.7,-141.04 363.08,-148.81"/>
<polygon fill="#4a6fa5" stroke="#4a6fa5" points="363.02,-150.94 369.32,-150.04 363.84,-146.82 363.02,-150.94"/>
</g>
<!-- Node0x59f24101a380 -->
<g id="node24" class="node">
<title>Node0x59f24101a380</title>
<path fill="#f0f4ff" stroke="black" d="M205,-645C205,-645 75,-645 75,-645 69,-645 63,-639 63,-633 63,-633 63,-621 63,-621 63,-615 69,-609 75,-609 75,-609 205,-609 205,-609 211,-609 217,-615 217,-621 217,-621 217,-633 217,-633 217,-639 211,-645 205,-645"/>
<text text-anchor="middle" x="140" y="-624.8" font-family="Courier,monospace" font-size="9.00">CIccMpeBAcs::~CIccMpeBAcs()</text>
</g>
<!-- Node0x59f24101a380&#45;&gt;Node0x59f241009710 -->
<g id="edge15" class="edge">
<title>Node0x59f24101a380&#45;&gt;Node0x59f241009710</title>
<path fill="none" stroke="#4a6fa5" d="M217.09,-619.49C260.32,-615.23 314.3,-609.91 357.72,-605.62"/>
<polygon fill="#4a6fa5" stroke="#4a6fa5" points="358.01,-607.7 363.77,-605.03 357.59,-603.53 358.01,-607.7"/>
</g>
<!-- Node0x59f241039280 -->
<g id="node25" class="node">
<title>Node0x59f241039280</title>
<path fill="#f0f4ff" stroke="black" d="M205,-1051C205,-1051 75,-1051 75,-1051 69,-1051 63,-1045 63,-1039 63,-1039 63,-1027 63,-1027 63,-1021 69,-1015 75,-1015 75,-1015 205,-1015 205,-1015 211,-1015 217,-1021 217,-1027 217,-1027 217,-1039 217,-1039 217,-1045 211,-1051 205,-1051"/>
<text text-anchor="middle" x="140" y="-1030.8" font-family="Courier,monospace" font-size="9.00">CIccMpeBAcs::~CIccMpeBAcs()</text>
</g>
<!-- Node0x59f241032560 -->
<g id="node26" class="node">
<title>Node0x59f241032560</title>
<path fill="#f0f4ff" stroke="black" d="M202.5,-413C202.5,-413 77.5,-413 77.5,-413 71.5,-413 65.5,-407 65.5,-401 65.5,-401 65.5,-389 65.5,-389 65.5,-383 71.5,-377 77.5,-377 77.5,-377 202.5,-377 202.5,-377 208.5,-377 214.5,-383 214.5,-389 214.5,-389 214.5,-401 214.5,-401 214.5,-407 208.5,-413 202.5,-413"/>
<text text-anchor="middle" x="140" y="-392.8" font-family="Courier,monospace" font-size="9.00">CIccMpeEAcs::CIccMpeEAcs()</text>
</g>
<!-- Node0x59f241032560&#45;&gt;Node0x59f241006790 -->
<g id="edge16" class="edge">
<title>Node0x59f241032560&#45;&gt;Node0x59f241006790</title>
<path fill="none" stroke="#4a6fa5" d="M214.74,-381.79C235.97,-377.41 259.04,-372.07 280,-366 316.22,-355.51 356.05,-340.53 386.26,-328.42"/>
<polygon fill="#4a6fa5" stroke="#4a6fa5" points="387.39,-330.23 392.17,-326.04 385.82,-326.34 387.39,-330.23"/>
</g>
<!-- Node0x59f241032360 -->
<g id="node27" class="node">
<title>Node0x59f241032360</title>
<path fill="#f0f4ff" stroke="black" d="M202.5,-297C202.5,-297 77.5,-297 77.5,-297 71.5,-297 65.5,-291 65.5,-285 65.5,-285 65.5,-273 65.5,-273 65.5,-267 71.5,-261 77.5,-261 77.5,-261 202.5,-261 202.5,-261 208.5,-261 214.5,-267 214.5,-273 214.5,-273 214.5,-285 214.5,-285 214.5,-291 208.5,-297 202.5,-297"/>
<text text-anchor="middle" x="140" y="-276.8" font-family="Courier,monospace" font-size="9.00">CIccMpeEAcs::CIccMpeEAcs()</text>
</g>
<!-- Node0x59f241032360&#45;&gt;Node0x59f241006790 -->
<g id="edge17" class="edge">
<title>Node0x59f241032360&#45;&gt;Node0x59f241006790</title>
<path fill="none" stroke="#4a6fa5" d="M214.81,-286.28C259.16,-290.66 315.44,-296.21 360,-300.6"/>
<polygon fill="#4a6fa5" stroke="#4a6fa5" points="360.03,-302.72 366.21,-301.21 360.45,-298.54 360.03,-302.72"/>
</g>
<!-- Node0x59f241032360&#45;&gt;Node0x59f241016260 -->
<g id="edge18" class="edge">
<title>Node0x59f241032360&#45;&gt;Node0x59f241016260</title>
<path fill="none" stroke="#4a6fa5" d="M214.69,-267.98C236.14,-263.62 259.34,-257.74 280,-250 325.34,-233.01 373.34,-204.16 403.7,-184.37"/>
<polygon fill="#4a6fa5" stroke="#4a6fa5" points="404.92,-186.08 408.78,-181.03 402.62,-182.57 404.92,-186.08"/>
</g>
<!-- Node0x59f241018b40 -->
<g id="node28" class="node">
<title>Node0x59f241018b40</title>
<path fill="#f0f4ff" stroke="black" d="M244.5,-181C244.5,-181 35.5,-181 35.5,-181 29.5,-181 23.5,-175 23.5,-169 23.5,-169 23.5,-157 23.5,-157 23.5,-151 29.5,-145 35.5,-145 35.5,-145 244.5,-145 244.5,-145 250.5,-145 256.5,-151 256.5,-157 256.5,-157 256.5,-169 256.5,-169 256.5,-175 250.5,-181 244.5,-181"/>
<text text-anchor="middle" x="140" y="-160.8" font-family="Courier,monospace" font-size="9.00">CIccMpeEAcs::operator=(CIccMpeEAcs const&amp;)</text>
</g>
<!-- Node0x59f241018b40&#45;&gt;Node0x59f241016260 -->
<g id="edge19" class="edge">
<title>Node0x59f241018b40&#45;&gt;Node0x59f241016260</title>
<path fill="none" stroke="#4a6fa5" d="M256.77,-163C292.63,-163 331.08,-163 363.06,-163"/>
<polygon fill="#4a6fa5" stroke="#4a6fa5" points="363.36,-165.1 369.36,-163 363.36,-160.9 363.36,-165.1"/>
</g>
<!-- Node0x59f24103a310 -->
<g id="node29" class="node">
<title>Node0x59f24103a310</title>
<path fill="#f0f4ff" stroke="black" d="M205,-587C205,-587 75,-587 75,-587 69,-587 63,-581 63,-575 63,-575 63,-563 63,-563 63,-557 69,-551 75,-551 75,-551 205,-551 205,-551 211,-551 217,-557 217,-563 217,-563 217,-575 217,-575 217,-581 211,-587 205,-587"/>
<text text-anchor="middle" x="140" y="-566.8" font-family="Courier,monospace" font-size="9.00">CIccMpeEAcs::~CIccMpeEAcs()</text>
</g>
<!-- Node0x59f24103a310&#45;&gt;Node0x59f241009710 -->
<g id="edge20" class="edge">
<title>Node0x59f24103a310&#45;&gt;Node0x59f241009710</title>
<path fill="none" stroke="#4a6fa5" d="M217.09,-576.51C260.32,-580.77 314.3,-586.09 357.72,-590.38"/>
<polygon fill="#4a6fa5" stroke="#4a6fa5" points="357.59,-592.47 363.77,-590.97 358.01,-588.3 357.59,-592.47"/>
</g>
<!-- Node0x59f24103c2b0 -->
<g id="node30" class="node">
<title>Node0x59f24103c2b0</title>
<path fill="#f0f4ff" stroke="black" d="M205,-1109C205,-1109 75,-1109 75,-1109 69,-1109 63,-1103 63,-1097 63,-1097 63,-1085 63,-1085 63,-1079 69,-1073 75,-1073 75,-1073 205,-1073 205,-1073 211,-1073 217,-1079 217,-1085 217,-1085 217,-1097 217,-1097 217,-1103 211,-1109 205,-1109"/>
<text text-anchor="middle" x="140" y="-1088.8" font-family="Courier,monospace" font-size="9.00">CIccMpeEAcs::~CIccMpeEAcs()</text>
</g>
<!-- Node0x59f24103a780 -->
<g id="node31" class="node">
<title>Node0x59f24103a780</title>
<path fill="#f0f4ff" stroke="black" d="M247,-1167C247,-1167 33,-1167 33,-1167 27,-1167 21,-1161 21,-1155 21,-1155 21,-1143 21,-1143 21,-1137 27,-1131 33,-1131 33,-1131 247,-1131 247,-1131 253,-1131 259,-1137 259,-1143 259,-1143 259,-1155 259,-1155 259,-1161 253,-1167 247,-1167"/>
<text text-anchor="middle" x="140" y="-1146.8" font-family="Courier,monospace" font-size="9.00">CIccMultiProcessElement::NumInputChannels()</text>
</g>
<!-- Node0x59f24103a3a0 -->
<g id="node32" class="node">
<title>Node0x59f24103a3a0</title>
<path fill="#f0f4ff" stroke="black" d="M250,-1225C250,-1225 30,-1225 30,-1225 24,-1225 18,-1219 18,-1213 18,-1213 18,-1201 18,-1201 18,-1195 24,-1189 30,-1189 30,-1189 250,-1189 250,-1189 256,-1189 262,-1195 262,-1201 262,-1201 262,-1213 262,-1213 262,-1219 256,-1225 250,-1225"/>
<text text-anchor="middle" x="140" y="-1204.8" font-family="Courier,monospace" font-size="9.00">CIccMultiProcessElement::NumOutputChannels()</text>
</g>
<!-- Node0x59f24101fae0 -->
<g id="node33" class="node">
<title>Node0x59f24101fae0</title>
<path fill="#f0f4ff" stroke="black" d="M234,-1283C234,-1283 46,-1283 46,-1283 40,-1283 34,-1277 34,-1271 34,-1271 34,-1259 34,-1259 34,-1253 40,-1247 46,-1247 46,-1247 234,-1247 234,-1247 240,-1247 246,-1253 246,-1259 246,-1259 246,-1271 246,-1271 246,-1277 240,-1283 234,-1283"/>
<text text-anchor="middle" x="140" y="-1262.8" font-family="Courier,monospace" font-size="9.00">CIccMultiProcessElement::IsSupported()</text>
</g>
<!-- Node0x59f24101f720 -->
<g id="node34" class="node">
<title>Node0x59f24101f720</title>
<path fill="#f0f4ff" stroke="black" d="M234,-1341C234,-1341 46,-1341 46,-1341 40,-1341 34,-1335 34,-1329 34,-1329 34,-1317 34,-1317 34,-1311 40,-1305 46,-1305 46,-1305 234,-1305 234,-1305 240,-1305 246,-1311 246,-1317 246,-1317 246,-1329 246,-1329 246,-1335 240,-1341 234,-1341"/>
<text text-anchor="middle" x="140" y="-1320.8" font-family="Courier,monospace" font-size="9.00">CIccMultiProcessElement::GetNewApply()</text>
</g>
<!-- Node0x59f24103cc50 -->
<g id="node35" class="node">
<title>Node0x59f24103cc50</title>
<path fill="#f0f4ff" stroke="black" d="M184,-1399C184,-1399 96,-1399 96,-1399 90,-1399 84,-1393 84,-1387 84,-1387 84,-1375 84,-1375 84,-1369 90,-1363 96,-1363 96,-1363 184,-1363 184,-1363 190,-1363 196,-1369 196,-1375 196,-1375 196,-1387 196,-1387 196,-1393 190,-1399 184,-1399"/>
<text text-anchor="middle" x="140" y="-1378.8" font-family="Courier,monospace" font-size="9.00">CIccMpeAcs::IsAcs()</text>
</g>
<!-- Node0x59f24103c8e0 -->
<g id="node36" class="node">
<title>Node0x59f24103c8e0</title>
<path fill="#f0f4ff" stroke="black" d="M231.5,-1457C231.5,-1457 48.5,-1457 48.5,-1457 42.5,-1457 36.5,-1451 36.5,-1445 36.5,-1445 36.5,-1433 36.5,-1433 36.5,-1427 42.5,-1421 48.5,-1421 48.5,-1421 231.5,-1421 231.5,-1421 237.5,-1421 243.5,-1427 243.5,-1433 243.5,-1433 243.5,-1445 243.5,-1445 243.5,-1451 237.5,-1457 231.5,-1457"/>
<text text-anchor="middle" x="140" y="-1436.8" font-family="Courier,monospace" font-size="9.00">CIccMultiProcessElement::GetBAcsSig()</text>
</g>
<!-- Node0x59f24103d300 -->
<g id="node37" class="node">
<title>Node0x59f24103d300</title>
<path fill="#f0f4ff" stroke="black" d="M231.5,-1515C231.5,-1515 48.5,-1515 48.5,-1515 42.5,-1515 36.5,-1509 36.5,-1503 36.5,-1503 36.5,-1491 36.5,-1491 36.5,-1485 42.5,-1479 48.5,-1479 48.5,-1479 231.5,-1479 231.5,-1479 237.5,-1479 243.5,-1485 243.5,-1491 243.5,-1491 243.5,-1503 243.5,-1503 243.5,-1509 237.5,-1515 231.5,-1515"/>
<text text-anchor="middle" x="140" y="-1494.8" font-family="Courier,monospace" font-size="9.00">CIccMultiProcessElement::GetEAcsSig()</text>
</g>
<!-- Node0x59f24103d080 -->
<g id="node38" class="node">
<title>Node0x59f24103d080</title>
<path fill="#f0f4ff" stroke="black" d="M236.5,-1573C236.5,-1573 43.5,-1573 43.5,-1573 37.5,-1573 31.5,-1567 31.5,-1561 31.5,-1561 31.5,-1549 31.5,-1549 31.5,-1543 37.5,-1537 43.5,-1537 43.5,-1537 236.5,-1537 236.5,-1537 242.5,-1537 248.5,-1543 248.5,-1549 248.5,-1549 248.5,-1561 248.5,-1561 248.5,-1567 242.5,-1573 236.5,-1573"/>
<text text-anchor="middle" x="140" y="-1552.8" font-family="Courier,monospace" font-size="9.00">CIccMultiProcessElement::GetExtension()</text>
</g>
<!-- Node0x59f241040f30 -->
<g id="node39" class="node">
<title>Node0x59f241040f30</title>
<path fill="#f0f4ff" stroke="black" d="M239.5,-1631C239.5,-1631 40.5,-1631 40.5,-1631 34.5,-1631 28.5,-1625 28.5,-1619 28.5,-1619 28.5,-1607 28.5,-1607 28.5,-1601 34.5,-1595 40.5,-1595 40.5,-1595 239.5,-1595 239.5,-1595 245.5,-1595 251.5,-1601 251.5,-1607 251.5,-1607 251.5,-1619 251.5,-1619 251.5,-1625 245.5,-1631 239.5,-1631"/>
<text text-anchor="middle" x="140" y="-1610.8" font-family="Courier,monospace" font-size="9.00">CIccMultiProcessElement::IsLateBinding()</text>
</g>
<!-- Node0x59f24102aae0 -->
<g id="node40" class="node">
<title>Node0x59f24102aae0</title>
<path fill="#f0f4ff" stroke="black" d="M268,-1689C268,-1689 12,-1689 12,-1689 6,-1689 0,-1683 0,-1677 0,-1677 0,-1665 0,-1665 0,-1659 6,-1653 12,-1653 12,-1653 268,-1653 268,-1653 274,-1653 280,-1659 280,-1665 280,-1665 280,-1677 280,-1677 280,-1683 274,-1689 268,-1689"/>
<text text-anchor="middle" x="140" y="-1668.8" font-family="Courier,monospace" font-size="9.00">CIccMultiProcessElement::IsLateBindingReflectance()</text>
</g>
<!-- Node0x59f24103e7e0 -->
<g id="node41" class="node">
<title>Node0x59f24103e7e0</title>
<path fill="#f0f4ff" stroke="black" d="M194.5,-1747C194.5,-1747 85.5,-1747 85.5,-1747 79.5,-1747 73.5,-1741 73.5,-1735 73.5,-1735 73.5,-1723 73.5,-1723 73.5,-1717 79.5,-1711 85.5,-1711 85.5,-1711 194.5,-1711 194.5,-1711 200.5,-1711 206.5,-1717 206.5,-1723 206.5,-1723 206.5,-1735 206.5,-1735 206.5,-1741 200.5,-1747 194.5,-1747"/>
<text text-anchor="middle" x="140" y="-1726.8" font-family="Courier,monospace" font-size="9.00">CIccMpeAcs::GetAcsSig()</text>
</g>
<!-- Node0x59f24103e340 -->
<g id="node42" class="node">
<title>Node0x59f24103e340</title>
<path fill="#f0f4ff" stroke="black" d="M192,-1805C192,-1805 88,-1805 88,-1805 82,-1805 76,-1799 76,-1793 76,-1793 76,-1781 76,-1781 76,-1775 82,-1769 88,-1769 88,-1769 192,-1769 192,-1769 198,-1769 204,-1775 204,-1781 204,-1781 204,-1793 204,-1793 204,-1799 198,-1805 192,-1805"/>
<text text-anchor="middle" x="140" y="-1784.8" font-family="Courier,monospace" font-size="9.00">CIccMpeBAcs::NewCopy()</text>
</g>
<!-- Node0x59f24103df90 -->
<g id="node43" class="node">
<title>Node0x59f24103df90</title>
<path fill="#f0f4ff" stroke="black" d="M192,-1863C192,-1863 88,-1863 88,-1863 82,-1863 76,-1857 76,-1851 76,-1851 76,-1839 76,-1839 76,-1833 82,-1827 88,-1827 88,-1827 192,-1827 192,-1827 198,-1827 204,-1833 204,-1839 204,-1839 204,-1851 204,-1851 204,-1857 198,-1863 192,-1863"/>
<text text-anchor="middle" x="140" y="-1842.8" font-family="Courier,monospace" font-size="9.00">CIccMpeBAcs::GetType()</text>
</g>
<!-- Node0x59f24104c2a0 -->
<g id="node44" class="node">
<title>Node0x59f24104c2a0</title>
<path fill="#f0f4ff" stroke="black" d="M205,-1921C205,-1921 75,-1921 75,-1921 69,-1921 63,-1915 63,-1909 63,-1909 63,-1897 63,-1897 63,-1891 69,-1885 75,-1885 75,-1885 205,-1885 205,-1885 211,-1885 217,-1891 217,-1897 217,-1897 217,-1909 217,-1909 217,-1915 211,-1921 205,-1921"/>
<text text-anchor="middle" x="140" y="-1900.8" font-family="Courier,monospace" font-size="9.00">CIccMpeBAcs::GetClassName()</text>
</g>
<!-- Node0x59f24104d1d0 -->
<g id="node45" class="node">
<title>Node0x59f24104d1d0</title>
<path fill="#f0f4ff" stroke="black" d="M200,-1979C200,-1979 80,-1979 80,-1979 74,-1979 68,-1973 68,-1967 68,-1967 68,-1955 68,-1955 68,-1949 74,-1943 80,-1943 80,-1943 200,-1943 200,-1943 206,-1943 212,-1949 212,-1955 212,-1955 212,-1967 212,-1967 212,-1973 206,-1979 200,-1979"/>
<text text-anchor="middle" x="140" y="-1958.8" font-family="Courier,monospace" font-size="9.00">CIccMpeBAcs::GetBAcsSig()</text>
</g>
<!-- Node0x59f24104c7d0 -->
<g id="node46" class="node">
<title>Node0x59f24104c7d0</title>
<path fill="#f0f4ff" stroke="black" d="M192,-2037C192,-2037 88,-2037 88,-2037 82,-2037 76,-2031 76,-2025 76,-2025 76,-2013 76,-2013 76,-2007 82,-2001 88,-2001 88,-2001 192,-2001 192,-2001 198,-2001 204,-2007 204,-2013 204,-2013 204,-2025 204,-2025 204,-2031 198,-2037 192,-2037"/>
<text text-anchor="middle" x="140" y="-2016.8" font-family="Courier,monospace" font-size="9.00">CIccMpeEAcs::NewCopy()</text>
</g>
<!-- Node0x59f24104c690 -->
<g id="node47" class="node">
<title>Node0x59f24104c690</title>
<path fill="#f0f4ff" stroke="black" d="M192,-2095C192,-2095 88,-2095 88,-2095 82,-2095 76,-2089 76,-2083 76,-2083 76,-2071 76,-2071 76,-2065 82,-2059 88,-2059 88,-2059 192,-2059 192,-2059 198,-2059 204,-2065 204,-2071 204,-2071 204,-2083 204,-2083 204,-2089 198,-2095 192,-2095"/>
<text text-anchor="middle" x="140" y="-2074.8" font-family="Courier,monospace" font-size="9.00">CIccMpeEAcs::GetType()</text>
</g>
<!-- Node0x59f24104c3f0 -->
<g id="node48" class="node">
<title>Node0x59f24104c3f0</title>
<path fill="#f0f4ff" stroke="black" d="M205,-2153C205,-2153 75,-2153 75,-2153 69,-2153 63,-2147 63,-2141 63,-2141 63,-2129 63,-2129 63,-2123 69,-2117 75,-2117 75,-2117 205,-2117 205,-2117 211,-2117 217,-2123 217,-2129 217,-2129 217,-2141 217,-2141 217,-2147 211,-2153 205,-2153"/>
<text text-anchor="middle" x="140" y="-2132.8" font-family="Courier,monospace" font-size="9.00">CIccMpeEAcs::GetClassName()</text>
</g>
</g>
</svg>
