<?xml version="1.0" encoding="UTF-8" standalone="no"?>
<!DOCTYPE svg PUBLIC "-//W3C//DTD SVG 1.1//EN"
 "http://www.w3.org/Graphics/SVG/1.1/DTD/svg11.dtd">
<!-- Generated by graphviz version 2.43.0 (0)
 -->
<!-- Title: Call graph: /home/h02332/po/research/call&#45;graph/iccdev/proflib/IccMatrixMath.ll Pages: 1 -->
<svg width="659pt" height="717pt"
 viewBox="0.00 0.00 659.20 717.20" xmlns="http://www.w3.org/2000/svg" xmlns:xlink="http://www.w3.org/1999/xlink">
<g id="graph0" class="graph" transform="scale(1 1) rotate(0) translate(21.6 695.6)">
<title>Call graph: /home/h02332/po/research/call&#45;graph/iccdev/proflib/IccMatrixMath.ll</title>
<polygon fill="white" stroke="transparent" points="-21.6,21.6 -21.6,-695.6 637.6,-695.6 637.6,21.6 -21.6,21.6"/>
<!-- Node0x5de985e8cd70 -->
<g id="node1" class="node">
<title>Node0x5de985e8cd70</title>
<path fill="#f0f4ff" stroke="black" d="M413,-500C413,-500 256,-500 256,-500 250,-500 244,-494 244,-488 244,-488 244,-476 244,-476 244,-470 250,-464 256,-464 256,-464 413,-464 413,-464 419,-464 425,-470 425,-476 425,-476 425,-488 425,-488 425,-494 419,-500 413,-500"/>
<text text-anchor="middle" x="334.5" y="-479.8" font-family="Courier,monospace" font-size="9.00">CIccMatrixMath::CIccMatrixMath()</text>
</g>
<!-- Node0x5de985dc5840 -->
<g id="node2" class="node">
<title>Node0x5de985dc5840</title>
<path fill="#f0f4ff" stroke="black" d="M604,-384C604,-384 495,-384 495,-384 489,-384 483,-378 483,-372 483,-372 483,-360 483,-360 483,-354 489,-348 495,-348 495,-348 604,-348 604,-348 610,-348 616,-354 616,-360 616,-360 616,-372 616,-372 616,-378 610,-384 604,-384"/>
<text text-anchor="middle" x="549.5" y="-363.8" font-family="Courier,monospace" font-size="9.00">CIccMatrixMath::entry()</text>
</g>
<!-- Node0x5de985e8cd70&#45;&gt;Node0x5de985dc5840 -->
<g id="edge1" class="edge">
<title>Node0x5de985e8cd70&#45;&gt;Node0x5de985dc5840</title>
<path fill="none" stroke="#4a6fa5" d="M399.52,-463.87C408.25,-460.65 416.96,-457.02 425,-453 460.92,-435.05 498.05,-407.45 522.09,-388.16"/>
<polygon fill="#4a6fa5" stroke="#4a6fa5" points="523.67,-389.59 527.02,-384.18 521.03,-386.32 523.67,-389.59"/>
</g>
<!-- Node0x5de985df6ef0 -->
<g id="node3" class="node">
<title>Node0x5de985df6ef0</title>
<path fill="#f0f4ff" stroke="black" d="M171.5,-384C171.5,-384 14.5,-384 14.5,-384 8.5,-384 2.5,-378 2.5,-372 2.5,-372 2.5,-360 2.5,-360 2.5,-354 8.5,-348 14.5,-348 14.5,-348 171.5,-348 171.5,-348 177.5,-348 183.5,-354 183.5,-360 183.5,-360 183.5,-372 183.5,-372 183.5,-378 177.5,-384 171.5,-384"/>
<text text-anchor="middle" x="93" y="-363.8" font-family="Courier,monospace" font-size="9.00">CIccMatrixMath::CIccMatrixMath()</text>
</g>
<!-- Node0x5de985e90db0 -->
<g id="node4" class="node">
<title>Node0x5de985e90db0</title>
<path fill="#f0f4ff" stroke="black" d="M174,-442C174,-442 12,-442 12,-442 6,-442 0,-436 0,-430 0,-430 0,-418 0,-418 0,-412 6,-406 12,-406 12,-406 174,-406 174,-406 180,-406 186,-412 186,-418 186,-418 186,-430 186,-430 186,-436 180,-442 174,-442"/>
<text text-anchor="middle" x="93" y="-421.8" font-family="Courier,monospace" font-size="9.00">CIccMatrixMath::~CIccMatrixMath()</text>
</g>
<!-- Node0x5de985ea4410 -->
<g id="node5" class="node">
<title>Node0x5de985ea4410</title>
<path fill="#f0f4ff" stroke="black" d="M174,-500C174,-500 12,-500 12,-500 6,-500 0,-494 0,-488 0,-488 0,-476 0,-476 0,-470 6,-464 12,-464 12,-464 174,-464 174,-464 180,-464 186,-470 186,-476 186,-476 186,-488 186,-488 186,-494 180,-500 174,-500"/>
<text text-anchor="middle" x="93" y="-479.8" font-family="Courier,monospace" font-size="9.00">CIccMatrixMath::~CIccMatrixMath()</text>
</g>
<!-- Node0x5de985ea50b0 -->
<g id="node6" class="node">
<title>Node0x5de985ea50b0</title>
<path fill="#f0f4ff" stroke="black" d="M402.5,-36C402.5,-36 266.5,-36 266.5,-36 260.5,-36 254.5,-30 254.5,-24 254.5,-24 254.5,-12 254.5,-12 254.5,-6 260.5,0 266.5,0 266.5,0 402.5,0 402.5,0 408.5,0 414.5,-6 414.5,-12 414.5,-12 414.5,-24 414.5,-24 414.5,-30 408.5,-36 402.5,-36"/>
<text text-anchor="middle" x="334.5" y="-15.8" font-family="Courier,monospace" font-size="9.00">CIccMatrixMath::VectorMult()</text>
</g>
<!-- Node0x5de985ea6a10 -->
<g id="node7" class="node">
<title>Node0x5de985ea6a10</title>
<path fill="#f0f4ff" stroke="black" d="M604,-152C604,-152 495,-152 495,-152 489,-152 483,-146 483,-140 483,-140 483,-128 483,-128 483,-122 489,-116 495,-116 495,-116 604,-116 604,-116 610,-116 616,-122 616,-128 616,-128 616,-140 616,-140 616,-146 610,-152 604,-152"/>
<text text-anchor="middle" x="549.5" y="-131.8" font-family="Courier,monospace" font-size="9.00">CIccMatrixMath::entry()</text>
</g>
<!-- Node0x5de985ea50b0&#45;&gt;Node0x5de985ea6a10 -->
<g id="edge2" class="edge">
<title>Node0x5de985ea50b0&#45;&gt;Node0x5de985ea6a10</title>
<path fill="none" stroke="#4a6fa5" d="M399.52,-36.13C408.25,-39.35 416.96,-42.98 425,-47 460.92,-64.95 498.05,-92.55 522.09,-111.84"/>
<polygon fill="#4a6fa5" stroke="#4a6fa5" points="521.03,-113.68 527.02,-115.82 523.67,-110.41 521.03,-113.68"/>
</g>
<!-- Node0x5de985ea5740 -->
<g id="node8" class="node">
<title>Node0x5de985ea5740</title>
<path fill="#f0f4ff" stroke="black" d="M394.5,-210C394.5,-210 274.5,-210 274.5,-210 268.5,-210 262.5,-204 262.5,-198 262.5,-198 262.5,-186 262.5,-186 262.5,-180 268.5,-174 274.5,-174 274.5,-174 394.5,-174 394.5,-174 400.5,-174 406.5,-180 406.5,-186 406.5,-186 406.5,-198 406.5,-198 406.5,-204 400.5,-210 394.5,-210"/>
<text text-anchor="middle" x="334.5" y="-189.8" font-family="Courier,monospace" font-size="9.00">CIccMatrixMath::dumpMtx()</text>
</g>
<!-- Node0x5de985ea5740&#45;&gt;Node0x5de985ea6a10 -->
<g id="edge3" class="edge">
<title>Node0x5de985ea5740&#45;&gt;Node0x5de985ea6a10</title>
<path fill="none" stroke="#4a6fa5" d="M401.73,-173.97C425.48,-167.5 452.37,-160.18 476.59,-153.58"/>
<polygon fill="#4a6fa5" stroke="#4a6fa5" points="477.44,-155.53 482.68,-151.92 476.34,-151.47 477.44,-155.53"/>
</g>
<!-- Node0x5de985ea77e0 -->
<g id="node9" class="node">
<title>Node0x5de985ea77e0</title>
<path fill="#f0f4ff" stroke="black" d="M386.5,-268C386.5,-268 282.5,-268 282.5,-268 276.5,-268 270.5,-262 270.5,-256 270.5,-256 270.5,-244 270.5,-244 270.5,-238 276.5,-232 282.5,-232 282.5,-232 386.5,-232 386.5,-232 392.5,-232 398.5,-238 398.5,-244 398.5,-244 398.5,-256 398.5,-256 398.5,-262 392.5,-268 386.5,-268"/>
<text text-anchor="middle" x="334.5" y="-247.8" font-family="Courier,monospace" font-size="9.00">CIccMatrixMath::Mult()</text>
</g>
<!-- Node0x5de985ea77e0&#45;&gt;Node0x5de985dc5840 -->
<g id="edge5" class="edge">
<title>Node0x5de985ea77e0&#45;&gt;Node0x5de985dc5840</title>
<path fill="none" stroke="#4a6fa5" d="M398.8,-266.33C407.91,-269.86 416.92,-274.05 425,-279 456.09,-298.04 452.93,-316.38 483,-337 487.2,-339.88 491.74,-342.58 496.39,-345.09"/>
<polygon fill="#4a6fa5" stroke="#4a6fa5" points="495.6,-347.05 501.89,-347.94 497.53,-343.32 495.6,-347.05"/>
</g>
<!-- Node0x5de985ea77e0&#45;&gt;Node0x5de985ea6a10 -->
<g id="edge4" class="edge">
<title>Node0x5de985ea77e0&#45;&gt;Node0x5de985ea6a10</title>
<path fill="none" stroke="#4a6fa5" d="M398.57,-232.22C407.62,-228.91 416.67,-225.16 425,-221 460.92,-203.05 498.05,-175.45 522.09,-156.16"/>
<polygon fill="#4a6fa5" stroke="#4a6fa5" points="523.67,-157.59 527.02,-152.18 521.03,-154.32 523.67,-157.59"/>
</g>
<!-- Node0x5de985eab810 -->
<g id="node10" class="node">
<title>Node0x5de985eab810</title>
<path fill="#f0f4ff" stroke="black" d="M405,-442C405,-442 264,-442 264,-442 258,-442 252,-436 252,-430 252,-430 252,-418 252,-418 252,-412 258,-406 264,-406 264,-406 405,-406 405,-406 411,-406 417,-412 417,-418 417,-418 417,-430 417,-430 417,-436 411,-442 405,-442"/>
<text text-anchor="middle" x="334.5" y="-421.8" font-family="Courier,monospace" font-size="9.00">CIccMatrixMath::VectorScale()</text>
</g>
<!-- Node0x5de985eab810&#45;&gt;Node0x5de985dc5840 -->
<g id="edge6" class="edge">
<title>Node0x5de985eab810&#45;&gt;Node0x5de985dc5840</title>
<path fill="none" stroke="#4a6fa5" d="M401.73,-405.97C425.48,-399.5 452.37,-392.18 476.59,-385.58"/>
<polygon fill="#4a6fa5" stroke="#4a6fa5" points="477.44,-387.53 482.68,-383.92 476.34,-383.47 477.44,-387.53"/>
</g>
<!-- Node0x5de985eab570 -->
<g id="node11" class="node">
<title>Node0x5de985eab570</title>
<path fill="#f0f4ff" stroke="black" d="M389,-384C389,-384 280,-384 280,-384 274,-384 268,-378 268,-372 268,-372 268,-360 268,-360 268,-354 274,-348 280,-348 280,-348 389,-348 389,-348 395,-348 401,-354 401,-360 401,-360 401,-372 401,-372 401,-378 395,-384 389,-384"/>
<text text-anchor="middle" x="334.5" y="-363.8" font-family="Courier,monospace" font-size="9.00">CIccMatrixMath::Scale()</text>
</g>
<!-- Node0x5de985eab570&#45;&gt;Node0x5de985dc5840 -->
<g id="edge7" class="edge">
<title>Node0x5de985eab570&#45;&gt;Node0x5de985dc5840</title>
<path fill="none" stroke="#4a6fa5" d="M401.15,-366C425.03,-366 452.16,-366 476.56,-366"/>
<polygon fill="#4a6fa5" stroke="#4a6fa5" points="476.71,-368.1 482.71,-366 476.71,-363.9 476.71,-368.1"/>
</g>
<!-- Node0x5de985eab050 -->
<g id="node12" class="node">
<title>Node0x5de985eab050</title>
<path fill="#f0f4ff" stroke="black" d="M150.5,-558C150.5,-558 35.5,-558 35.5,-558 29.5,-558 23.5,-552 23.5,-546 23.5,-546 23.5,-534 23.5,-534 23.5,-528 29.5,-522 35.5,-522 35.5,-522 150.5,-522 150.5,-522 156.5,-522 162.5,-528 162.5,-534 162.5,-534 162.5,-546 162.5,-546 162.5,-552 156.5,-558 150.5,-558"/>
<text text-anchor="middle" x="93" y="-537.8" font-family="Courier,monospace" font-size="9.00">CIccMatrixMath::Invert()</text>
</g>
<!-- Node0x5de985ea60b0 -->
<g id="node13" class="node">
<title>Node0x5de985ea60b0</title>
<path fill="#f0f4ff" stroke="black" d="M378.5,-558C378.5,-558 290.5,-558 290.5,-558 284.5,-558 278.5,-552 278.5,-546 278.5,-546 278.5,-534 278.5,-534 278.5,-528 284.5,-522 290.5,-522 290.5,-522 378.5,-522 378.5,-522 384.5,-522 390.5,-528 390.5,-534 390.5,-534 390.5,-546 390.5,-546 390.5,-552 384.5,-558 378.5,-558"/>
<text text-anchor="middle" x="334.5" y="-537.8" font-family="Courier,monospace" font-size="9.00">icMatrixInvert3x3()</text>
</g>
<!-- Node0x5de985eab050&#45;&gt;Node0x5de985ea60b0 -->
<g id="edge8" class="edge">
<title>Node0x5de985eab050&#45;&gt;Node0x5de985ea60b0</title>
<path fill="none" stroke="#4a6fa5" d="M162.63,-540C197.11,-540 238.56,-540 272,-540"/>
<polygon fill="#4a6fa5" stroke="#4a6fa5" points="272.14,-542.1 278.14,-540 272.14,-537.9 272.14,-542.1"/>
</g>
<!-- Node0x5de985e97020 -->
<g id="node14" class="node">
<title>Node0x5de985e97020</title>
<path fill="#f0f4ff" stroke="black" d="M392,-152C392,-152 277,-152 277,-152 271,-152 265,-146 265,-140 265,-140 265,-128 265,-128 265,-122 271,-116 277,-116 277,-116 392,-116 392,-116 398,-116 404,-122 404,-128 404,-128 404,-140 404,-140 404,-146 398,-152 392,-152"/>
<text text-anchor="middle" x="334.5" y="-131.8" font-family="Courier,monospace" font-size="9.00">CIccMatrixMath::RowSum()</text>
</g>
<!-- Node0x5de985e97020&#45;&gt;Node0x5de985ea6a10 -->
<g id="edge9" class="edge">
<title>Node0x5de985e97020&#45;&gt;Node0x5de985ea6a10</title>
<path fill="none" stroke="#4a6fa5" d="M404.07,-134C427.29,-134 453.28,-134 476.74,-134"/>
<polygon fill="#4a6fa5" stroke="#4a6fa5" points="476.96,-136.1 482.96,-134 476.96,-131.9 476.96,-136.1"/>
</g>
<!-- Node0x5de985ead720 -->
<g id="node15" class="node">
<title>Node0x5de985ead720</title>
<path fill="#f0f4ff" stroke="black" d="M410,-94C410,-94 259,-94 259,-94 253,-94 247,-88 247,-82 247,-82 247,-70 247,-70 247,-64 253,-58 259,-58 259,-58 410,-58 410,-58 416,-58 422,-64 422,-70 422,-70 422,-82 422,-82 422,-88 416,-94 410,-94"/>
<text text-anchor="middle" x="334.5" y="-73.8" font-family="Courier,monospace" font-size="9.00">CIccMatrixMath::isIdentityMtx()</text>
</g>
<!-- Node0x5de985ead720&#45;&gt;Node0x5de985ea6a10 -->
<g id="edge10" class="edge">
<title>Node0x5de985ead720&#45;&gt;Node0x5de985ea6a10</title>
<path fill="none" stroke="#4a6fa5" d="M401.73,-94.03C425.48,-100.5 452.37,-107.82 476.59,-114.42"/>
<polygon fill="#4a6fa5" stroke="#4a6fa5" points="476.34,-116.53 482.68,-116.08 477.44,-112.47 476.34,-116.53"/>
</g>
<!-- Node0x5de985ead020 -->
<g id="node16" class="node">
<title>Node0x5de985ead020</title>
<path fill="#f0f4ff" stroke="black" d="M397,-326C397,-326 272,-326 272,-326 266,-326 260,-320 260,-314 260,-314 260,-302 260,-302 260,-296 266,-290 272,-290 272,-290 397,-290 397,-290 403,-290 409,-296 409,-302 409,-302 409,-314 409,-314 409,-320 403,-326 397,-326"/>
<text text-anchor="middle" x="334.5" y="-305.8" font-family="Courier,monospace" font-size="9.00">CIccMatrixMath::SetRange()</text>
</g>
<!-- Node0x5de985ead020&#45;&gt;Node0x5de985dc5840 -->
<g id="edge12" class="edge">
<title>Node0x5de985ead020&#45;&gt;Node0x5de985dc5840</title>
<path fill="none" stroke="#4a6fa5" d="M401.73,-326.03C425.48,-332.5 452.37,-339.82 476.59,-346.42"/>
<polygon fill="#4a6fa5" stroke="#4a6fa5" points="476.34,-348.53 482.68,-348.08 477.44,-344.47 476.34,-348.53"/>
</g>
<!-- Node0x5de985eac970 -->
<g id="node17" class="node">
<title>Node0x5de985eac970</title>
<path fill="#f0f4ff" stroke="black" d="M570,-326C570,-326 529,-326 529,-326 523,-326 517,-320 517,-314 517,-314 517,-302 517,-302 517,-296 523,-290 529,-290 529,-290 570,-290 570,-290 576,-290 582,-296 582,-302 582,-302 582,-314 582,-314 582,-320 576,-326 570,-326"/>
<text text-anchor="middle" x="549.5" y="-305.8" font-family="Courier,monospace" font-size="9.00">icF16toF()</text>
</g>
<!-- Node0x5de985ead020&#45;&gt;Node0x5de985eac970 -->
<g id="edge11" class="edge">
<title>Node0x5de985ead020&#45;&gt;Node0x5de985eac970</title>
<path fill="none" stroke="#4a6fa5" d="M409.1,-308C443.31,-308 482.54,-308 510.65,-308"/>
<polygon fill="#4a6fa5" stroke="#4a6fa5" points="510.83,-310.1 516.83,-308 510.83,-305.9 510.83,-310.1"/>
</g>
<!-- Node0x5de985eb02a0 -->
<g id="node18" class="node">
<title>Node0x5de985eb02a0</title>
<path fill="#f0f4ff" stroke="black" d="M155.5,-326C155.5,-326 30.5,-326 30.5,-326 24.5,-326 18.5,-320 18.5,-314 18.5,-314 18.5,-302 18.5,-302 18.5,-296 24.5,-290 30.5,-290 30.5,-290 155.5,-290 155.5,-290 161.5,-290 167.5,-296 167.5,-302 167.5,-302 167.5,-314 167.5,-314 167.5,-320 161.5,-326 155.5,-326"/>
<text text-anchor="middle" x="93" y="-305.8" font-family="Courier,monospace" font-size="9.00">CIccMatrixMath::rangeMap()</text>
</g>
<!-- Node0x5de985eb02a0&#45;&gt;Node0x5de985ead020 -->
<g id="edge13" class="edge">
<title>Node0x5de985eb02a0&#45;&gt;Node0x5de985ead020</title>
<path fill="none" stroke="#4a6fa5" d="M167.81,-308C195.03,-308 225.98,-308 253.7,-308"/>
<polygon fill="#4a6fa5" stroke="#4a6fa5" points="253.93,-310.1 259.93,-308 253.93,-305.9 253.93,-310.1"/>
</g>
<!-- Node0x5de985eb36b0 -->
<g id="node19" class="node">
<title>Node0x5de985eb36b0</title>
<path fill="#f0f4ff" stroke="black" d="M153,-616C153,-616 33,-616 33,-616 27,-616 21,-610 21,-604 21,-604 21,-592 21,-592 21,-586 27,-580 33,-580 33,-580 153,-580 153,-580 159,-580 165,-586 165,-592 165,-592 165,-604 165,-604 165,-610 159,-616 153,-616"/>
<text text-anchor="middle" x="93" y="-595.8" font-family="Courier,monospace" font-size="9.00">CIccMatrixMath::GetCols()</text>
</g>
<!-- Node0x5de985eaaea0 -->
<g id="node20" class="node">
<title>Node0x5de985eaaea0</title>
<path fill="#f0f4ff" stroke="black" d="M153,-674C153,-674 33,-674 33,-674 27,-674 21,-668 21,-662 21,-662 21,-650 21,-650 21,-644 27,-638 33,-638 33,-638 153,-638 153,-638 159,-638 165,-644 165,-650 165,-650 165,-662 165,-662 165,-668 159,-674 153,-674"/>
<text text-anchor="middle" x="93" y="-653.8" font-family="Courier,monospace" font-size="9.00">CIccMatrixMath::GetRows()</text>
</g>
</g>
</svg>
