<?xml version="1.0" encoding="UTF-8" standalone="no"?>
<!DOCTYPE svg PUBLIC "-//W3C//DTD SVG 1.1//EN"
 "http://www.w3.org/Graphics/SVG/1.1/DTD/svg11.dtd">
<!-- Generated by graphviz version 2.43.0 (0)
 -->
<!-- Title: Call graph: /home/h02332/po/research/call&#45;graph/iccdev/proflib/IccMD5.ll Pages: 1 -->
<svg width="623pt" height="287pt"
 viewBox="0.00 0.00 622.50 287.00" xmlns="http://www.w3.org/2000/svg" xmlns:xlink="http://www.w3.org/1999/xlink">
<g id="graph0" class="graph" transform="scale(1 1) rotate(0) translate(4 283)">
<title>Call graph: /home/h02332/po/research/call&#45;graph/iccdev/proflib/IccMD5.ll</title>
<polygon fill="white" stroke="transparent" points="-4,4 -4,-283 618.5,-283 618.5,4 -4,4"/>
<text text-anchor="middle" x="307.25" y="-7.8" font-family="Times,serif" font-size="14.00">Call graph: /home/h02332/po/research/call&#45;graph/iccdev/proflib/IccMD5.ll</text>
<!-- Node0x5694d147e430 -->
<g id="node1" class="node">
<title>Node0x5694d147e430</title>
<polygon fill="none" stroke="black" points="103.5,-242.5 103.5,-278.5 306.5,-278.5 306.5,-242.5 103.5,-242.5"/>
<text text-anchor="middle" x="205" y="-256.8" font-family="Times,serif" font-size="14.00">_Z9icMD5InitP7MD5_CTX</text>
</g>
<!-- Node0x5694d147dbb0 -->
<g id="node2" class="node">
<title>Node0x5694d147dbb0</title>
<polygon fill="none" stroke="black" points="153.5,-169.5 153.5,-205.5 416.5,-205.5 416.5,-169.5 153.5,-169.5"/>
<text text-anchor="middle" x="285" y="-183.8" font-family="Times,serif" font-size="14.00">_Z11icMD5UpdateP7MD5_CTXPhj</text>
</g>
<!-- Node0x5694d1478fc0 -->
<g id="node3" class="node">
<title>Node0x5694d1478fc0</title>
<polygon fill="none" stroke="black" points="0,-96.5 0,-132.5 182,-132.5 182,-96.5 0,-96.5"/>
<text text-anchor="middle" x="91" y="-110.8" font-family="Times,serif" font-size="14.00">llvm.memcpy.p0.p0.i64</text>
</g>
<!-- Node0x5694d147dbb0&#45;&gt;Node0x5694d1478fc0 -->
<g id="edge1" class="edge">
<title>Node0x5694d147dbb0&#45;&gt;Node0x5694d1478fc0</title>
<path fill="none" stroke="black" d="M238.53,-169.49C211.14,-159.47 176.29,-146.71 147.33,-136.12"/>
<polygon fill="black" stroke="black" points="148.35,-132.76 137.76,-132.61 145.95,-139.34 148.35,-132.76"/>
</g>
<!-- Node0x5694d1479040 -->
<g id="node4" class="node">
<title>Node0x5694d1479040</title>
<polygon fill="none" stroke="black" points="200,-96.5 200,-132.5 402,-132.5 402,-96.5 200,-96.5"/>
<text text-anchor="middle" x="301" y="-110.8" font-family="Times,serif" font-size="14.00">_ZL12MD5TransformPjPh</text>
</g>
<!-- Node0x5694d147dbb0&#45;&gt;Node0x5694d1479040 -->
<g id="edge2" class="edge">
<title>Node0x5694d147dbb0&#45;&gt;Node0x5694d1479040</title>
<path fill="none" stroke="black" d="M288.87,-169.31C290.68,-161.29 292.88,-151.55 294.9,-142.57"/>
<polygon fill="black" stroke="black" points="298.38,-143.05 297.16,-132.53 291.55,-141.51 298.38,-143.05"/>
</g>
<!-- Node0x5694d1479a80 -->
<g id="node5" class="node">
<title>Node0x5694d1479a80</title>
<polygon fill="none" stroke="black" points="206.5,-23.5 206.5,-59.5 347.5,-59.5 347.5,-23.5 206.5,-23.5"/>
<text text-anchor="middle" x="277" y="-37.8" font-family="Times,serif" font-size="14.00">_ZL6DecodePjPhj</text>
</g>
<!-- Node0x5694d1479040&#45;&gt;Node0x5694d1479a80 -->
<g id="edge3" class="edge">
<title>Node0x5694d1479040&#45;&gt;Node0x5694d1479a80</title>
<path fill="none" stroke="black" d="M295.19,-96.31C292.45,-88.2 289.11,-78.34 286.05,-69.28"/>
<polygon fill="black" stroke="black" points="289.27,-67.88 282.76,-59.53 282.64,-70.12 289.27,-67.88"/>
</g>
<!-- Node0x5694d13e7020 -->
<g id="node6" class="node">
<title>Node0x5694d13e7020</title>
<polygon fill="none" stroke="black" points="366,-23.5 366,-59.5 524,-59.5 524,-23.5 366,-23.5"/>
<text text-anchor="middle" x="445" y="-37.8" font-family="Times,serif" font-size="14.00">llvm.memset.p0.i64</text>
</g>
<!-- Node0x5694d1479040&#45;&gt;Node0x5694d13e7020 -->
<g id="edge4" class="edge">
<title>Node0x5694d1479040&#45;&gt;Node0x5694d13e7020</title>
<path fill="none" stroke="black" d="M335.49,-96.49C355.21,-86.77 380.13,-74.49 401.21,-64.09"/>
<polygon fill="black" stroke="black" points="402.87,-67.18 410.29,-59.61 399.77,-60.9 402.87,-67.18"/>
</g>
<!-- Node0x5694d13e1080 -->
<g id="node7" class="node">
<title>Node0x5694d13e1080</title>
<polygon fill="none" stroke="black" points="324,-242.5 324,-278.5 566,-278.5 566,-242.5 324,-242.5"/>
<text text-anchor="middle" x="445" y="-256.8" font-family="Times,serif" font-size="14.00">_Z10icMD5FinalPhP7MD5_CTX</text>
</g>
<!-- Node0x5694d13e1080&#45;&gt;Node0x5694d147dbb0 -->
<g id="edge6" class="edge">
<title>Node0x5694d13e1080&#45;&gt;Node0x5694d147dbb0</title>
<path fill="none" stroke="black" d="M406.68,-242.49C384.48,-232.64 356.34,-220.16 332.71,-209.67"/>
<polygon fill="black" stroke="black" points="334.13,-206.47 323.57,-205.61 331.29,-212.87 334.13,-206.47"/>
</g>
<!-- Node0x5694d13e1080&#45;&gt;Node0x5694d13e7020 -->
<g id="edge7" class="edge">
<title>Node0x5694d13e1080&#45;&gt;Node0x5694d13e7020</title>
<path fill="none" stroke="black" d="M445,-242.47C445,-205.01 445,-115.18 445,-69.76"/>
<polygon fill="black" stroke="black" points="448.5,-69.75 445,-59.75 441.5,-69.75 448.5,-69.75"/>
</g>
<!-- Node0x5694d14807e0 -->
<g id="node8" class="node">
<title>Node0x5694d14807e0</title>
<polygon fill="none" stroke="black" points="473.5,-169.5 473.5,-205.5 614.5,-205.5 614.5,-169.5 473.5,-169.5"/>
<text text-anchor="middle" x="544" y="-183.8" font-family="Times,serif" font-size="14.00">_ZL6EncodePhPjj</text>
</g>
<!-- Node0x5694d13e1080&#45;&gt;Node0x5694d14807e0 -->
<g id="edge5" class="edge">
<title>Node0x5694d13e1080&#45;&gt;Node0x5694d14807e0</title>
<path fill="none" stroke="black" d="M468.71,-242.49C481.6,-233.25 497.72,-221.69 511.73,-211.64"/>
<polygon fill="black" stroke="black" points="514.05,-214.29 520.14,-205.61 509.97,-208.6 514.05,-214.29"/>
</g>
</g>
</svg>
