<?xml version="1.0" encoding="UTF-8" standalone="no"?>
<!DOCTYPE svg PUBLIC "-//W3C//DTD SVG 1.1//EN"
 "http://www.w3.org/Graphics/SVG/1.1/DTD/svg11.dtd">
<!-- Generated by graphviz version 2.43.0 (0)
 -->
<!-- Title: Call graph: /home/h02332/po/research/call&#45;graph/iccdev/proflib/IccPcc.ll Pages: 1 -->
<svg width="12196pt" height="214pt"
 viewBox="0.00 0.00 12196.00 214.00" xmlns="http://www.w3.org/2000/svg" xmlns:xlink="http://www.w3.org/1999/xlink">
<g id="graph0" class="graph" transform="scale(1 1) rotate(0) translate(4 210)">
<title>Call graph: /home/h02332/po/research/call&#45;graph/iccdev/proflib/IccPcc.ll</title>
<polygon fill="white" stroke="transparent" points="-4,4 -4,-210 12192,-210 12192,4 -4,4"/>
<text text-anchor="middle" x="6094" y="-7.8" font-family="Times,serif" font-size="14.00">Call graph: /home/h02332/po/research/call&#45;graph/iccdev/proflib/IccPcc.ll</text>
<!-- Node0x5affe5fcac20 -->
<g id="node1" class="node">
<title>Node0x5affe5fcac20</title>
<polygon fill="none" stroke="black" points="1522.5,-169.5 1522.5,-205.5 1983.5,-205.5 1983.5,-169.5 1522.5,-169.5"/>
<text text-anchor="middle" x="1753" y="-183.8" font-family="Times,serif" font-size="14.00">_ZN31IIccProfileConnectionConditions15isEquivalentPccERS_</text>
</g>
<!-- Node0x5affe5ef3d30 -->
<g id="node2" class="node">
<title>Node0x5affe5ef3d30</title>
<polygon fill="none" stroke="black" points="1296,-96.5 1296,-132.5 1746,-132.5 1746,-96.5 1296,-96.5"/>
<text text-anchor="middle" x="1521" y="-110.8" font-family="Times,serif" font-size="14.00">_ZN31IIccProfileConnectionConditions16getPccIlluminantEv</text>
</g>
<!-- Node0x5affe5fcac20&#45;&gt;Node0x5affe5ef3d30 -->
<g id="edge1" class="edge">
<title>Node0x5affe5fcac20&#45;&gt;Node0x5affe5ef3d30</title>
<path fill="none" stroke="black" d="M1697.43,-169.49C1664.1,-159.29 1621.54,-146.27 1586.57,-135.57"/>
<polygon fill="black" stroke="black" points="1587.51,-132.19 1576.92,-132.61 1585.46,-138.89 1587.51,-132.19"/>
</g>
<!-- Node0x5affe5fc20a0 -->
<g id="node3" class="node">
<title>Node0x5affe5fc20a0</title>
<polygon fill="none" stroke="black" points="834.5,-96.5 834.5,-132.5 1277.5,-132.5 1277.5,-96.5 834.5,-96.5"/>
<text text-anchor="middle" x="1056" y="-110.8" font-family="Times,serif" font-size="14.00">_ZN31IIccProfileConnectionConditions14getPccObserverEv</text>
</g>
<!-- Node0x5affe5fcac20&#45;&gt;Node0x5affe5fc20a0 -->
<g id="edge2" class="edge">
<title>Node0x5affe5fcac20&#45;&gt;Node0x5affe5fc20a0</title>
<path fill="none" stroke="black" d="M1586.05,-169.49C1479.53,-158.64 1341.61,-144.59 1233.16,-133.55"/>
<polygon fill="black" stroke="black" points="1233.4,-130.05 1223.1,-132.52 1232.69,-137.02 1233.4,-130.05"/>
</g>
<!-- Node0x5affe5fd12c0 -->
<g id="node4" class="node">
<title>Node0x5affe5fd12c0</title>
<polygon fill="none" stroke="black" points="4770,-96.5 4770,-132.5 5228,-132.5 5228,-96.5 4770,-96.5"/>
<text text-anchor="middle" x="4999" y="-110.8" font-family="Times,serif" font-size="14.00">_ZN31IIccProfileConnectionConditions16hasIlluminantSPDEv</text>
</g>
<!-- Node0x5affe5fcac20&#45;&gt;Node0x5affe5fd12c0 -->
<g id="edge3" class="edge">
<title>Node0x5affe5fcac20&#45;&gt;Node0x5affe5fd12c0</title>
<path fill="none" stroke="black" d="M1983.93,-185.72C2482.56,-183.3 3697.11,-173.39 4714,-133 4728.93,-132.41 4744.3,-131.71 4759.79,-130.94"/>
<polygon fill="black" stroke="black" points="4760.18,-134.43 4769.99,-130.43 4759.83,-127.44 4760.18,-134.43"/>
</g>
<!-- Node0x5affe5ef3e50 -->
<g id="node5" class="node">
<title>Node0x5affe5ef3e50</title>
<polygon fill="none" stroke="black" points="4307,-96.5 4307,-132.5 4705,-132.5 4705,-96.5 4307,-96.5"/>
<text text-anchor="middle" x="4506" y="-110.8" font-family="Times,serif" font-size="14.00">_ZN31IIccProfileConnectionConditions9getPccCCTEv</text>
</g>
<!-- Node0x5affe5fcac20&#45;&gt;Node0x5affe5ef3e50 -->
<g id="edge4" class="edge">
<title>Node0x5affe5fcac20&#45;&gt;Node0x5affe5ef3e50</title>
<path fill="none" stroke="black" d="M1983.82,-186.03C2428.85,-184.15 3436.41,-175.13 4283,-133 4287.54,-132.77 4292.13,-132.53 4296.76,-132.28"/>
<polygon fill="black" stroke="black" points="4297.16,-135.76 4306.95,-131.69 4296.76,-128.77 4297.16,-135.76"/>
</g>
<!-- Node0x5affe5fd2520 -->
<g id="node6" class="node">
<title>Node0x5affe5fd2520</title>
<polygon fill="none" stroke="black" points="492.5,-23.5 492.5,-59.5 965.5,-59.5 965.5,-23.5 492.5,-23.5"/>
<text text-anchor="middle" x="729" y="-37.8" font-family="Times,serif" font-size="14.00">_ZNK32CIccTagSpectralViewingConditions15getStdIllumiantEv</text>
</g>
<!-- Node0x5affe5ef3d30&#45;&gt;Node0x5affe5fd2520 -->
<g id="edge5" class="edge">
<title>Node0x5affe5ef3d30&#45;&gt;Node0x5affe5fd2520</title>
<path fill="none" stroke="black" d="M1331.3,-96.49C1209.89,-85.61 1052.59,-71.51 929.2,-60.45"/>
<polygon fill="black" stroke="black" points="929.14,-56.93 918.87,-59.52 928.52,-63.9 929.14,-56.93"/>
</g>
<!-- Node0x5affe5fd3090 -->
<g id="node7" class="node">
<title>Node0x5affe5fd3090</title>
<polygon fill="none" stroke="black" points="0,-23.5 0,-59.5 474,-59.5 474,-23.5 0,-23.5"/>
<text text-anchor="middle" x="237" y="-37.8" font-family="Times,serif" font-size="14.00">_ZNK32CIccTagSpectralViewingConditions14getStdObserverEv</text>
</g>
<!-- Node0x5affe5fc20a0&#45;&gt;Node0x5affe5fd3090 -->
<g id="edge6" class="edge">
<title>Node0x5affe5fc20a0&#45;&gt;Node0x5affe5fd3090</title>
<path fill="none" stroke="black" d="M859.83,-96.49C734.16,-85.6 571.3,-71.48 443.64,-60.41"/>
<polygon fill="black" stroke="black" points="443.61,-56.9 433.34,-59.52 443,-63.87 443.61,-56.9"/>
</g>
<!-- Node0x5affe5fd3a40 -->
<g id="node9" class="node">
<title>Node0x5affe5fd3a40</title>
<polygon fill="none" stroke="black" points="4782,-23.5 4782,-59.5 5376,-59.5 5376,-23.5 4782,-23.5"/>
<text text-anchor="middle" x="5079" y="-37.8" font-family="Times,serif" font-size="14.00">_ZNK32CIccTagSpectralViewingConditions13getIlluminantER15icSpectralRange</text>
</g>
<!-- Node0x5affe5fd12c0&#45;&gt;Node0x5affe5fd3a40 -->
<g id="edge8" class="edge">
<title>Node0x5affe5fd12c0&#45;&gt;Node0x5affe5fd3a40</title>
<path fill="none" stroke="black" d="M5018.37,-96.31C5028.49,-87.33 5041.04,-76.19 5052.09,-66.39"/>
<polygon fill="black" stroke="black" points="5054.66,-68.78 5059.81,-59.53 5050.01,-63.55 5054.66,-68.78"/>
</g>
<!-- Node0x5affe5ef0b30 -->
<g id="node8" class="node">
<title>Node0x5affe5ef0b30</title>
<polygon fill="none" stroke="black" points="4276.5,-23.5 4276.5,-59.5 4763.5,-59.5 4763.5,-23.5 4276.5,-23.5"/>
<text text-anchor="middle" x="4520" y="-37.8" font-family="Times,serif" font-size="14.00">_ZNK32CIccTagSpectralViewingConditions16getIlluminantCCTEv</text>
</g>
<!-- Node0x5affe5ef3e50&#45;&gt;Node0x5affe5ef0b30 -->
<g id="edge7" class="edge">
<title>Node0x5affe5ef3e50&#45;&gt;Node0x5affe5ef0b30</title>
<path fill="none" stroke="black" d="M4509.39,-96.31C4510.97,-88.29 4512.89,-78.55 4514.66,-69.57"/>
<polygon fill="black" stroke="black" points="4518.14,-70.02 4516.64,-59.53 4511.27,-68.66 4518.14,-70.02"/>
</g>
<!-- Node0x5affe5fd4710 -->
<g id="node10" class="node">
<title>Node0x5affe5fd4710</title>
<polygon fill="none" stroke="black" points="1073.5,-169.5 1073.5,-205.5 1504.5,-205.5 1504.5,-169.5 1073.5,-169.5"/>
<text text-anchor="middle" x="1289" y="-183.8" font-family="Times,serif" font-size="14.00">_ZN31IIccProfileConnectionConditions13isStandardPccEv</text>
</g>
<!-- Node0x5affe5fd4710&#45;&gt;Node0x5affe5ef3d30 -->
<g id="edge9" class="edge">
<title>Node0x5affe5fd4710&#45;&gt;Node0x5affe5ef3d30</title>
<path fill="none" stroke="black" d="M1344.57,-169.49C1377.9,-159.29 1420.46,-146.27 1455.43,-135.57"/>
<polygon fill="black" stroke="black" points="1456.54,-138.89 1465.08,-132.61 1454.49,-132.19 1456.54,-138.89"/>
</g>
<!-- Node0x5affe5fd4710&#45;&gt;Node0x5affe5fc20a0 -->
<g id="edge10" class="edge">
<title>Node0x5affe5fd4710&#45;&gt;Node0x5affe5fc20a0</title>
<path fill="none" stroke="black" d="M1233.19,-169.49C1199.72,-159.29 1156.97,-146.27 1121.85,-135.57"/>
<polygon fill="black" stroke="black" points="1122.75,-132.18 1112.16,-132.61 1120.71,-138.88 1122.75,-132.18"/>
</g>
<!-- Node0x5affe5fd4490 -->
<g id="node11" class="node">
<title>Node0x5affe5fd4490</title>
<polygon fill="none" stroke="black" points="5293.5,-96.5 5293.5,-132.5 5868.5,-132.5 5868.5,-96.5 5293.5,-96.5"/>
<text text-anchor="middle" x="5581" y="-110.8" font-family="Times,serif" font-size="14.00">_ZN31IIccProfileConnectionConditions32getObserverIlluminantScaleFactorEv</text>
</g>
<!-- Node0x5affe5fd4490&#45;&gt;Node0x5affe5fd3a40 -->
<g id="edge11" class="edge">
<title>Node0x5affe5fd4490&#45;&gt;Node0x5affe5fd3a40</title>
<path fill="none" stroke="black" d="M5460.76,-96.49C5385.11,-85.79 5287.48,-71.99 5209.89,-61.01"/>
<polygon fill="black" stroke="black" points="5209.96,-57.49 5199.56,-59.55 5208.98,-64.42 5209.96,-57.49"/>
</g>
<!-- Node0x5affe5fd3cd0 -->
<g id="node12" class="node">
<title>Node0x5affe5fd3cd0</title>
<polygon fill="none" stroke="black" points="5951.5,-23.5 5951.5,-59.5 6538.5,-59.5 6538.5,-23.5 5951.5,-23.5"/>
<text text-anchor="middle" x="6245" y="-37.8" font-family="Times,serif" font-size="14.00">_ZNK32CIccTagSpectralViewingConditions11getObserverER15icSpectralRange</text>
</g>
<!-- Node0x5affe5fd4490&#45;&gt;Node0x5affe5fd3cd0 -->
<g id="edge12" class="edge">
<title>Node0x5affe5fd4490&#45;&gt;Node0x5affe5fd3cd0</title>
<path fill="none" stroke="black" d="M5740.04,-96.49C5841.32,-85.66 5972.38,-71.65 6075.6,-60.61"/>
<polygon fill="black" stroke="black" points="6076.24,-64.06 6085.82,-59.52 6075.5,-57.1 6076.24,-64.06"/>
</g>
<!-- Node0x5affe5fd4990 -->
<g id="node13" class="node">
<title>Node0x5affe5fd4990</title>
<polygon fill="none" stroke="black" points="6556.5,-23.5 6556.5,-59.5 7009.5,-59.5 7009.5,-23.5 6556.5,-23.5"/>
<text text-anchor="middle" x="6783" y="-37.8" font-family="Times,serif" font-size="14.00">_ZN14CIccMatrixMath8rangeMapERK15icSpectralRangeS2_</text>
</g>
<!-- Node0x5affe5fd4490&#45;&gt;Node0x5affe5fd4990 -->
<g id="edge13" class="edge">
<title>Node0x5affe5fd4490&#45;&gt;Node0x5affe5fd4990</title>
<path fill="none" stroke="black" d="M5868.48,-96.48C5871.33,-96.32 5874.17,-96.16 5877,-96 6171.39,-79.39 6247.7,-79.03 6546.04,-60.05"/>
<polygon fill="black" stroke="black" points="6546.53,-63.53 6556.29,-59.4 6546.09,-56.54 6546.53,-63.53"/>
</g>
<!-- Node0x5affe5fd5750 -->
<g id="node14" class="node">
<title>Node0x5affe5fd5750</title>
<polygon fill="none" stroke="black" points="5394.5,-23.5 5394.5,-59.5 5609.5,-59.5 5609.5,-23.5 5394.5,-23.5"/>
<text text-anchor="middle" x="5502" y="-37.8" font-family="Times,serif" font-size="14.00">llvm.umul.with.overflow.i64</text>
</g>
<!-- Node0x5affe5fd4490&#45;&gt;Node0x5affe5fd5750 -->
<g id="edge14" class="edge">
<title>Node0x5affe5fd4490&#45;&gt;Node0x5affe5fd5750</title>
<path fill="none" stroke="black" d="M5561.88,-96.31C5551.88,-87.33 5539.49,-76.19 5528.58,-66.39"/>
<polygon fill="black" stroke="black" points="5530.72,-63.61 5520.95,-59.53 5526.05,-68.82 5530.72,-63.61"/>
</g>
<!-- Node0x5affe5fd4e90 -->
<g id="node15" class="node">
<title>Node0x5affe5fd4e90</title>
<polygon fill="none" stroke="black" points="5628,-23.5 5628,-59.5 5692,-59.5 5692,-23.5 5628,-23.5"/>
<text text-anchor="middle" x="5660" y="-37.8" font-family="Times,serif" font-size="14.00">_Znam</text>
</g>
<!-- Node0x5affe5fd4490&#45;&gt;Node0x5affe5fd4e90 -->
<g id="edge15" class="edge">
<title>Node0x5affe5fd4490&#45;&gt;Node0x5affe5fd4e90</title>
<path fill="none" stroke="black" d="M5600.12,-96.31C5610.12,-87.33 5622.51,-76.19 5633.42,-66.39"/>
<polygon fill="black" stroke="black" points="5635.95,-68.82 5641.05,-59.53 5631.28,-63.61 5635.95,-68.82"/>
</g>
<!-- Node0x5affe5fd4c10 -->
<g id="node16" class="node">
<title>Node0x5affe5fd4c10</title>
<polygon fill="none" stroke="black" points="5796,-23.5 5796,-59.5 5934,-59.5 5934,-23.5 5796,-23.5"/>
<text text-anchor="middle" x="5865" y="-37.8" font-family="Times,serif" font-size="14.00">llvm.fmuladd.f32</text>
</g>
<!-- Node0x5affe5fd4490&#45;&gt;Node0x5affe5fd4c10 -->
<g id="edge16" class="edge">
<title>Node0x5affe5fd4490&#45;&gt;Node0x5affe5fd4c10</title>
<path fill="none" stroke="black" d="M5649.03,-96.49C5690.43,-86.14 5743.49,-72.88 5786.65,-62.09"/>
<polygon fill="black" stroke="black" points="5787.69,-65.43 5796.55,-59.61 5786,-58.64 5787.69,-65.43"/>
</g>
<!-- Node0x5affe5fd59d0 -->
<g id="node17" class="node">
<title>Node0x5affe5fd59d0</title>
<polygon fill="none" stroke="black" points="5710,-23.5 5710,-59.5 5778,-59.5 5778,-23.5 5710,-23.5"/>
<text text-anchor="middle" x="5744" y="-37.8" font-family="Times,serif" font-size="14.00">_ZdaPv</text>
</g>
<!-- Node0x5affe5fd4490&#45;&gt;Node0x5affe5fd59d0 -->
<g id="edge17" class="edge">
<title>Node0x5affe5fd4490&#45;&gt;Node0x5affe5fd59d0</title>
<path fill="none" stroke="black" d="M5620.04,-96.49C5644.35,-85.91 5675.64,-72.28 5700.7,-61.36"/>
<polygon fill="black" stroke="black" points="5702.2,-64.52 5709.97,-57.32 5699.41,-58.11 5702.2,-64.52"/>
</g>
<!-- Node0x5affe5fd5590 -->
<g id="node18" class="node">
<title>Node0x5affe5fd5590</title>
<polygon fill="none" stroke="black" points="5886.5,-96.5 5886.5,-132.5 6603.5,-132.5 6603.5,-96.5 5886.5,-96.5"/>
<text text-anchor="middle" x="6245" y="-110.8" font-family="Times,serif" font-size="14.00">_ZN31IIccProfileConnectionConditions27getObserverWhiteScaleFactorEPKfRK15icSpectralRange</text>
</g>
<!-- Node0x5affe5fd5590&#45;&gt;Node0x5affe5fd3cd0 -->
<g id="edge18" class="edge">
<title>Node0x5affe5fd5590&#45;&gt;Node0x5affe5fd3cd0</title>
<path fill="none" stroke="black" d="M6245,-96.31C6245,-88.29 6245,-78.55 6245,-69.57"/>
<polygon fill="black" stroke="black" points="6248.5,-69.53 6245,-59.53 6241.5,-69.53 6248.5,-69.53"/>
</g>
<!-- Node0x5affe5fd5590&#45;&gt;Node0x5affe5fd4990 -->
<g id="edge19" class="edge">
<title>Node0x5affe5fd5590&#45;&gt;Node0x5affe5fd4990</title>
<path fill="none" stroke="black" d="M6373.86,-96.49C6455.27,-85.75 6560.42,-71.87 6643.74,-60.88"/>
<polygon fill="black" stroke="black" points="6644.33,-64.33 6653.79,-59.55 6643.42,-57.39 6644.33,-64.33"/>
</g>
<!-- Node0x5affe5fd5590&#45;&gt;Node0x5affe5fd5750 -->
<g id="edge20" class="edge">
<title>Node0x5affe5fd5590&#45;&gt;Node0x5affe5fd5750</title>
<path fill="none" stroke="black" d="M6003.85,-96.47C5890.24,-87.56 5752.65,-75.49 5619.68,-60.04"/>
<polygon fill="black" stroke="black" points="5620.05,-56.56 5609.71,-58.87 5619.23,-63.51 5620.05,-56.56"/>
</g>
<!-- Node0x5affe5fd5590&#45;&gt;Node0x5affe5fd4e90 -->
<g id="edge21" class="edge">
<title>Node0x5affe5fd5590&#45;&gt;Node0x5affe5fd4e90</title>
<path fill="none" stroke="black" d="M5907.39,-96.46C5841.53,-88.84 5773.27,-77.9 5702.38,-59.95"/>
<polygon fill="black" stroke="black" points="5702.92,-56.47 5692.36,-57.37 5701.17,-63.25 5702.92,-56.47"/>
</g>
<!-- Node0x5affe5fd5590&#45;&gt;Node0x5affe5fd4c10 -->
<g id="edge22" class="edge">
<title>Node0x5affe5fd5590&#45;&gt;Node0x5affe5fd4c10</title>
<path fill="none" stroke="black" d="M6141.34,-96.48C6085.34,-86.98 6014.78,-74.52 5944.19,-60.4"/>
<polygon fill="black" stroke="black" points="5944.72,-56.94 5934.23,-58.4 5943.34,-63.8 5944.72,-56.94"/>
</g>
<!-- Node0x5affe5fd5590&#45;&gt;Node0x5affe5fd59d0 -->
<g id="edge23" class="edge">
<title>Node0x5affe5fd5590&#45;&gt;Node0x5affe5fd59d0</title>
<path fill="none" stroke="black" d="M5993.46,-96.47C5928.8,-88.9 5859.53,-77.99 5788.5,-60.04"/>
<polygon fill="black" stroke="black" points="5789.02,-56.56 5778.46,-57.46 5787.28,-63.34 5789.02,-56.56"/>
</g>
<!-- Node0x5affe5fd47d0 -->
<g id="node19" class="node">
<title>Node0x5affe5fd47d0</title>
<polygon fill="none" stroke="black" points="6803.5,-96.5 6803.5,-132.5 7474.5,-132.5 7474.5,-96.5 6803.5,-96.5"/>
<text text-anchor="middle" x="7139" y="-110.8" font-family="Times,serif" font-size="14.00">_ZN31IIccProfileConnectionConditions19getEmissiveObserverERK15icSpectralRangePKfPf</text>
</g>
<!-- Node0x5affe5fd47d0&#45;&gt;Node0x5affe5fd3cd0 -->
<g id="edge24" class="edge">
<title>Node0x5affe5fd47d0&#45;&gt;Node0x5affe5fd3cd0</title>
<path fill="none" stroke="black" d="M6924.86,-96.49C6787.27,-85.57 6608.84,-71.4 6469.3,-60.31"/>
<polygon fill="black" stroke="black" points="6469.57,-56.82 6459.32,-59.52 6469.01,-63.8 6469.57,-56.82"/>
</g>
<!-- Node0x5affe5fd47d0&#45;&gt;Node0x5affe5fd4990 -->
<g id="edge26" class="edge">
<title>Node0x5affe5fd47d0&#45;&gt;Node0x5affe5fd4990</title>
<path fill="none" stroke="black" d="M7053.73,-96.49C7000.96,-85.97 6933.11,-72.44 6878.53,-61.55"/>
<polygon fill="black" stroke="black" points="6878.99,-58.08 6868.5,-59.55 6877.62,-64.94 6878.99,-58.08"/>
</g>
<!-- Node0x5affe5fd47d0&#45;&gt;Node0x5affe5fd4c10 -->
<g id="edge30" class="edge">
<title>Node0x5affe5fd47d0&#45;&gt;Node0x5affe5fd4c10</title>
<path fill="none" stroke="black" d="M6803.37,-101.57C6489.9,-89.95 6055.17,-72.43 5944.4,-60.08"/>
<polygon fill="black" stroke="black" points="5944.5,-56.57 5934.15,-58.83 5943.65,-63.52 5944.5,-56.57"/>
</g>
<!-- Node0x5affe5fd4b90 -->
<g id="node20" class="node">
<title>Node0x5affe5fd4b90</title>
<polygon fill="none" stroke="black" points="8135.5,-23.5 8135.5,-59.5 8198.5,-59.5 8198.5,-23.5 8135.5,-23.5"/>
<text text-anchor="middle" x="8167" y="-37.8" font-family="Times,serif" font-size="14.00">malloc</text>
</g>
<!-- Node0x5affe5fd47d0&#45;&gt;Node0x5affe5fd4b90 -->
<g id="edge25" class="edge">
<title>Node0x5affe5fd47d0&#45;&gt;Node0x5affe5fd4b90</title>
<path fill="none" stroke="black" d="M7465,-96.49C7727.1,-82.72 8060.75,-64.95 8124.85,-58.69"/>
<polygon fill="black" stroke="black" points="8125.66,-62.11 8135.13,-57.35 8124.76,-55.17 8125.66,-62.11"/>
</g>
<!-- Node0x5affe5fd4e10 -->
<g id="node21" class="node">
<title>Node0x5affe5fd4e10</title>
<polygon fill="none" stroke="black" points="7028,-23.5 7028,-59.5 7246,-59.5 7246,-23.5 7028,-23.5"/>
<text text-anchor="middle" x="7137" y="-37.8" font-family="Times,serif" font-size="14.00">_ZN14CIccMatrixMathD1Ev</text>
</g>
<!-- Node0x5affe5fd47d0&#45;&gt;Node0x5affe5fd4e10 -->
<g id="edge27" class="edge">
<title>Node0x5affe5fd47d0&#45;&gt;Node0x5affe5fd4e10</title>
<path fill="none" stroke="black" d="M7138.52,-96.31C7138.29,-88.29 7138.02,-78.55 7137.76,-69.57"/>
<polygon fill="black" stroke="black" points="7141.26,-69.43 7137.48,-59.53 7134.26,-69.62 7141.26,-69.43"/>
</g>
<!-- Node0x5affe5fd5950 -->
<g id="node22" class="node">
<title>Node0x5affe5fd5950</title>
<polygon fill="none" stroke="black" points="7264,-23.5 7264,-59.5 7602,-59.5 7602,-23.5 7264,-23.5"/>
<text text-anchor="middle" x="7433" y="-37.8" font-family="Times,serif" font-size="14.00">_ZNK14CIccMatrixMath10VectorMultEPfPKf</text>
</g>
<!-- Node0x5affe5fd47d0&#45;&gt;Node0x5affe5fd5950 -->
<g id="edge28" class="edge">
<title>Node0x5affe5fd47d0&#45;&gt;Node0x5affe5fd5950</title>
<path fill="none" stroke="black" d="M7209.42,-96.49C7252.46,-86.1 7307.64,-72.77 7352.42,-61.96"/>
<polygon fill="black" stroke="black" points="7353.49,-65.3 7362.39,-59.55 7351.85,-58.5 7353.49,-65.3"/>
</g>
<!-- Node0x5affe5fd5c50 -->
<g id="node23" class="node">
<title>Node0x5affe5fd5c50</title>
<polygon fill="none" stroke="black" points="8217,-23.5 8217,-59.5 8399,-59.5 8399,-23.5 8217,-23.5"/>
<text text-anchor="middle" x="8308" y="-37.8" font-family="Times,serif" font-size="14.00">llvm.memcpy.p0.p0.i64</text>
</g>
<!-- Node0x5affe5fd47d0&#45;&gt;Node0x5affe5fd5c50 -->
<g id="edge29" class="edge">
<title>Node0x5affe5fd47d0&#45;&gt;Node0x5affe5fd5c50</title>
<path fill="none" stroke="black" d="M7474.07,-96.5C7477.39,-96.33 7480.71,-96.17 7484,-96 7805.33,-79.85 7887.24,-95.53 8207,-60 8207.1,-59.99 8207.2,-59.98 8207.31,-59.97"/>
<polygon fill="black" stroke="black" points="8207.45,-63.47 8216.95,-58.8 8206.61,-56.52 8207.45,-63.47"/>
</g>
<!-- Node0x5affe5fe7ef0 -->
<g id="node24" class="node">
<title>Node0x5affe5fe7ef0</title>
<polygon fill="none" stroke="black" points="7620,-23.5 7620,-59.5 7850,-59.5 7850,-23.5 7620,-23.5"/>
<text text-anchor="middle" x="7735" y="-37.8" font-family="Times,serif" font-size="14.00">_ZN14CIccMatrixMathC1Ettb</text>
</g>
<!-- Node0x5affe5fd47d0&#45;&gt;Node0x5affe5fe7ef0 -->
<g id="edge31" class="edge">
<title>Node0x5affe5fd47d0&#45;&gt;Node0x5affe5fe7ef0</title>
<path fill="none" stroke="black" d="M7298.89,-96.48C7387.59,-86.76 7500.15,-74 7609.6,-60.16"/>
<polygon fill="black" stroke="black" points="7610.36,-63.59 7619.84,-58.86 7609.47,-56.65 7610.36,-63.59"/>
</g>
<!-- Node0x5affe5fd4410 -->
<g id="node25" class="node">
<title>Node0x5affe5fd4410</title>
<polygon fill="none" stroke="black" points="7868.5,-23.5 7868.5,-59.5 8117.5,-59.5 8117.5,-23.5 7868.5,-23.5"/>
<text text-anchor="middle" x="7993" y="-37.8" font-family="Times,serif" font-size="14.00">_ZN14CIccMatrixMath5entryEtt</text>
</g>
<!-- Node0x5affe5fd47d0&#45;&gt;Node0x5affe5fd4410 -->
<g id="edge32" class="edge">
<title>Node0x5affe5fd47d0&#45;&gt;Node0x5affe5fd4410</title>
<path fill="none" stroke="black" d="M7416.69,-96.49C7547.65,-87.56 7706.29,-75.45 7858.21,-60.05"/>
<polygon fill="black" stroke="black" points="7858.61,-63.53 7868.2,-59.03 7857.9,-56.56 7858.61,-63.53"/>
</g>
<!-- Node0x5affe5fea4f0 -->
<g id="node26" class="node">
<title>Node0x5affe5fea4f0</title>
<polygon fill="none" stroke="black" points="6001.5,-169.5 6001.5,-205.5 6168.5,-205.5 6168.5,-169.5 6001.5,-169.5"/>
<text text-anchor="middle" x="6085" y="-183.8" font-family="Times,serif" font-size="14.00">__gxx_personality_v0</text>
</g>
<!-- Node0x5affe5fec360 -->
<g id="node27" class="node">
<title>Node0x5affe5fec360</title>
<polygon fill="none" stroke="black" points="9107,-96.5 9107,-132.5 9755,-132.5 9755,-96.5 9107,-96.5"/>
<text text-anchor="middle" x="9431" y="-110.8" font-family="Times,serif" font-size="14.00">_ZN31IIccProfileConnectionConditions22getReflectanceObserverERK15icSpectralRange</text>
</g>
<!-- Node0x5affe5fec360&#45;&gt;Node0x5affe5fd3a40 -->
<g id="edge33" class="edge">
<title>Node0x5affe5fec360&#45;&gt;Node0x5affe5fd3a40</title>
<path fill="none" stroke="black" d="M9112.87,-96.49C9107.88,-96.32 9102.92,-96.15 9098,-96 7448.5,-44.68 7034.38,-115.13 5385,-60 5383.69,-59.96 5382.38,-59.91 5381.06,-59.87"/>
<polygon fill="black" stroke="black" points="5381.05,-56.36 5370.93,-59.5 5380.8,-63.36 5381.05,-56.36"/>
</g>
<!-- Node0x5affe5fec360&#45;&gt;Node0x5affe5fd4990 -->
<g id="edge34" class="edge">
<title>Node0x5affe5fec360&#45;&gt;Node0x5affe5fd4990</title>
<path fill="none" stroke="black" d="M9111.55,-96.49C9107,-96.32 9102.48,-96.16 9098,-96 8174.42,-63.75 7942.18,-102.19 7019,-60 7018.89,-60 7018.79,-59.99 7018.68,-59.99"/>
<polygon fill="black" stroke="black" points="7018.92,-56.49 7008.77,-59.51 7018.59,-63.49 7018.92,-56.49"/>
</g>
<!-- Node0x5affe5feb960 -->
<g id="node28" class="node">
<title>Node0x5affe5feb960</title>
<polygon fill="none" stroke="black" points="9903.5,-23.5 9903.5,-59.5 10548.5,-59.5 10548.5,-23.5 9903.5,-23.5"/>
<text text-anchor="middle" x="10226" y="-37.8" font-family="Times,serif" font-size="14.00">_ZNK32CIccTagSpectralViewingConditions17getObserverMatrixERK15icSpectralRange</text>
</g>
<!-- Node0x5affe5fec360&#45;&gt;Node0x5affe5feb960 -->
<g id="edge35" class="edge">
<title>Node0x5affe5fec360&#45;&gt;Node0x5affe5feb960</title>
<path fill="none" stroke="black" d="M9621.42,-96.49C9743.41,-85.6 9901.5,-71.48 10025.42,-60.41"/>
<polygon fill="black" stroke="black" points="10025.76,-63.9 10035.41,-59.52 10025.14,-56.92 10025.76,-63.9"/>
</g>
<!-- Node0x5affe5fd6850 -->
<g id="node29" class="node">
<title>Node0x5affe5fd6850</title>
<polygon fill="none" stroke="black" points="8714,-23.5 8714,-59.5 8994,-59.5 8994,-23.5 8714,-23.5"/>
<text text-anchor="middle" x="8854" y="-37.8" font-family="Times,serif" font-size="14.00">_ZNK14CIccMatrixMath4MultEPKS_</text>
</g>
<!-- Node0x5affe5fec360&#45;&gt;Node0x5affe5fd6850 -->
<g id="edge36" class="edge">
<title>Node0x5affe5fec360&#45;&gt;Node0x5affe5fd6850</title>
<path fill="none" stroke="black" d="M9292.79,-96.49C9205.15,-85.71 9091.82,-71.76 9002.29,-60.75"/>
<polygon fill="black" stroke="black" points="9002.68,-57.27 8992.33,-59.52 9001.82,-64.22 9002.68,-57.27"/>
</g>
<!-- Node0x5affe5fee5b0 -->
<g id="node30" class="node">
<title>Node0x5affe5fee5b0</title>
<polygon fill="none" stroke="black" points="9012,-23.5 9012,-59.5 9254,-59.5 9254,-23.5 9012,-23.5"/>
<text text-anchor="middle" x="9133" y="-37.8" font-family="Times,serif" font-size="14.00">_ZN14CIccMatrixMath5ScaleEf</text>
</g>
<!-- Node0x5affe5fec360&#45;&gt;Node0x5affe5fee5b0 -->
<g id="edge37" class="edge">
<title>Node0x5affe5fec360&#45;&gt;Node0x5affe5fee5b0</title>
<path fill="none" stroke="black" d="M9359.62,-96.49C9315.91,-86.08 9259.83,-72.72 9214.39,-61.89"/>
<polygon fill="black" stroke="black" points="9215.11,-58.47 9204.57,-59.55 9213.49,-65.27 9215.11,-58.47"/>
</g>
<!-- Node0x5affe5fea570 -->
<g id="node31" class="node">
<title>Node0x5affe5fea570</title>
<polygon fill="none" stroke="black" points="9272.5,-23.5 9272.5,-59.5 9589.5,-59.5 9589.5,-23.5 9272.5,-23.5"/>
<text text-anchor="middle" x="9431" y="-37.8" font-family="Times,serif" font-size="14.00">_ZN14CIccMatrixMath11VectorScaleEPKf</text>
</g>
<!-- Node0x5affe5fec360&#45;&gt;Node0x5affe5fea570 -->
<g id="edge38" class="edge">
<title>Node0x5affe5fec360&#45;&gt;Node0x5affe5fea570</title>
<path fill="none" stroke="black" d="M9431,-96.31C9431,-88.29 9431,-78.55 9431,-69.57"/>
<polygon fill="black" stroke="black" points="9434.5,-69.53 9431,-59.53 9427.5,-69.53 9434.5,-69.53"/>
</g>
<!-- Node0x5affe5fee780 -->
<g id="node32" class="node">
<title>Node0x5affe5fee780</title>
<polygon fill="none" stroke="black" points="9608,-23.5 9608,-59.5 9886,-59.5 9886,-23.5 9608,-23.5"/>
<text text-anchor="middle" x="9747" y="-37.8" font-family="Times,serif" font-size="14.00">_ZNK14CIccMatrixMath6RowSumEt</text>
</g>
<!-- Node0x5affe5fec360&#45;&gt;Node0x5affe5fee780 -->
<g id="edge39" class="edge">
<title>Node0x5affe5fec360&#45;&gt;Node0x5affe5fee780</title>
<path fill="none" stroke="black" d="M9506.69,-96.49C9553.24,-86.03 9613.01,-72.61 9661.3,-61.76"/>
<polygon fill="black" stroke="black" points="9662.12,-65.16 9671.11,-59.55 9660.58,-58.33 9662.12,-65.16"/>
</g>
<!-- Node0x5affe5fed270 -->
<g id="node33" class="node">
<title>Node0x5affe5fed270</title>
<polygon fill="none" stroke="black" points="2555.5,-96.5 2555.5,-132.5 3278.5,-132.5 3278.5,-96.5 2555.5,-96.5"/>
<text text-anchor="middle" x="2917" y="-110.8" font-family="Times,serif" font-size="14.00">_ZN32CIccCombinedConnectionConditionsC2EP11CIccProfileP31IIccProfileConnectionConditionsb</text>
</g>
<!-- Node0x5affe5fed270&#45;&gt;Node0x5affe5fd2520 -->
<g id="edge45" class="edge">
<title>Node0x5affe5fed270&#45;&gt;Node0x5affe5fd2520</title>
<path fill="none" stroke="black" d="M2555.32,-108.23C2167.55,-101.49 1533.58,-87.34 975.58,-60.01"/>
<polygon fill="black" stroke="black" points="975.47,-56.5 965.31,-59.51 975.13,-63.5 975.47,-56.5"/>
</g>
<!-- Node0x5affe5fed270&#45;&gt;Node0x5affe5ef0b30 -->
<g id="edge46" class="edge">
<title>Node0x5affe5fed270&#45;&gt;Node0x5affe5ef0b30</title>
<path fill="none" stroke="black" d="M3278.83,-102.05C3548.1,-92.84 3924.93,-78.48 4266.2,-60.03"/>
<polygon fill="black" stroke="black" points="4266.5,-63.52 4276.29,-59.49 4266.12,-56.53 4266.5,-63.52"/>
</g>
<!-- Node0x5affe5fed270&#45;&gt;Node0x5affe5fd3a40 -->
<g id="edge44" class="edge">
<title>Node0x5affe5fed270&#45;&gt;Node0x5affe5fd3a40</title>
<path fill="none" stroke="black" d="M3278.79,-106.07C3652.74,-97.69 4253.36,-82.26 4772,-60 4772.35,-59.98 4772.7,-59.97 4773.05,-59.95"/>
<polygon fill="black" stroke="black" points="4773.44,-63.44 4783.27,-59.51 4773.13,-56.45 4773.44,-63.44"/>
</g>
<!-- Node0x5affe5fed0a0 -->
<g id="node34" class="node">
<title>Node0x5affe5fed0a0</title>
<polygon fill="none" stroke="black" points="984,-23.5 984,-59.5 1314,-59.5 1314,-23.5 984,-23.5"/>
<text text-anchor="middle" x="1149" y="-37.8" font-family="Times,serif" font-size="14.00">_ZN31IIccProfileConnectionConditionsC2Ev</text>
</g>
<!-- Node0x5affe5fed270&#45;&gt;Node0x5affe5fed0a0 -->
<g id="edge40" class="edge">
<title>Node0x5affe5fed270&#45;&gt;Node0x5affe5fed0a0</title>
<path fill="none" stroke="black" d="M2555.41,-108.23C2234.63,-101.94 1753.12,-88.52 1324.41,-60.07"/>
<polygon fill="black" stroke="black" points="1324.51,-56.57 1314.29,-59.39 1324.04,-63.55 1324.51,-56.57"/>
</g>
<!-- Node0x5affe5feeb10 -->
<g id="node35" class="node">
<title>Node0x5affe5feeb10</title>
<polygon fill="none" stroke="black" points="1332.5,-23.5 1332.5,-59.5 1915.5,-59.5 1915.5,-23.5 1332.5,-23.5"/>
<text text-anchor="middle" x="1624" y="-37.8" font-family="Times,serif" font-size="14.00">_ZN11CIccProfile17calcMediaWhiteXYZEPfP31IIccProfileConnectionConditions</text>
</g>
<!-- Node0x5affe5fed270&#45;&gt;Node0x5affe5feeb10 -->
<g id="edge41" class="edge">
<title>Node0x5affe5fed270&#45;&gt;Node0x5affe5feeb10</title>
<path fill="none" stroke="black" d="M2595.32,-96.49C2404.02,-86.3 2156.24,-72.94 1925.81,-60.04"/>
<polygon fill="black" stroke="black" points="1925.72,-56.53 1915.54,-59.47 1925.33,-63.52 1925.72,-56.53"/>
</g>
<!-- Node0x5affe5fef840 -->
<g id="node36" class="node">
<title>Node0x5affe5fef840</title>
<polygon fill="none" stroke="black" points="3927.5,-23.5 3927.5,-59.5 4258.5,-59.5 4258.5,-23.5 3927.5,-23.5"/>
<text text-anchor="middle" x="4093" y="-37.8" font-family="Times,serif" font-size="14.00">_ZN31IIccProfileConnectionConditionsD2Ev</text>
</g>
<!-- Node0x5affe5fed270&#45;&gt;Node0x5affe5fef840 -->
<g id="edge42" class="edge">
<title>Node0x5affe5fed270&#45;&gt;Node0x5affe5fef840</title>
<path fill="none" stroke="black" d="M3278.66,-98.21C3466.16,-89.28 3699.13,-76.62 3917.17,-60.04"/>
<polygon fill="black" stroke="black" points="3917.51,-63.53 3927.21,-59.28 3916.98,-56.55 3917.51,-63.53"/>
</g>
<!-- Node0x5affe5fefae0 -->
<g id="node37" class="node">
<title>Node0x5affe5fefae0</title>
<polygon fill="none" stroke="black" points="1934,-23.5 1934,-59.5 2536,-59.5 2536,-23.5 1934,-23.5"/>
<text text-anchor="middle" x="2235" y="-37.8" font-family="Times,serif" font-size="14.00">_ZN11CIccProfile20calcLumIlluminantXYZEPfP31IIccProfileConnectionConditions</text>
</g>
<!-- Node0x5affe5fed270&#45;&gt;Node0x5affe5fefae0 -->
<g id="edge43" class="edge">
<title>Node0x5affe5fed270&#45;&gt;Node0x5affe5fefae0</title>
<path fill="none" stroke="black" d="M2753.64,-96.49C2649.52,-85.65 2514.74,-71.62 2408.67,-60.58"/>
<polygon fill="black" stroke="black" points="2408.81,-57.08 2398.5,-59.52 2408.08,-64.04 2408.81,-57.08"/>
</g>
<!-- Node0x5affe5fef650 -->
<g id="node38" class="node">
<title>Node0x5affe5fef650</title>
<polygon fill="none" stroke="black" points="2554,-23.5 2554,-59.5 3280,-59.5 3280,-23.5 2554,-23.5"/>
<text text-anchor="middle" x="2917" y="-37.8" font-family="Times,serif" font-size="14.00">_ZN32CIccTagSpectralViewingConditions13setIlluminantE12icIlluminantRK15icSpectralRangePKff</text>
</g>
<!-- Node0x5affe5fed270&#45;&gt;Node0x5affe5fef650 -->
<g id="edge47" class="edge">
<title>Node0x5affe5fed270&#45;&gt;Node0x5affe5fef650</title>
<path fill="none" stroke="black" d="M2917,-96.31C2917,-88.29 2917,-78.55 2917,-69.57"/>
<polygon fill="black" stroke="black" points="2920.5,-69.53 2917,-59.53 2913.5,-69.53 2920.5,-69.53"/>
</g>
<!-- Node0x5affe5feefb0 -->
<g id="node39" class="node">
<title>Node0x5affe5feefb0</title>
<polygon fill="none" stroke="black" points="3298.5,-23.5 3298.5,-59.5 3909.5,-59.5 3909.5,-23.5 3298.5,-23.5"/>
<text text-anchor="middle" x="3604" y="-37.8" font-family="Times,serif" font-size="14.00">_ZN11CIccProfile21calcNormIlluminantXYZEPfP31IIccProfileConnectionConditions</text>
</g>
<!-- Node0x5affe5fed270&#45;&gt;Node0x5affe5feefb0 -->
<g id="edge48" class="edge">
<title>Node0x5affe5fed270&#45;&gt;Node0x5affe5feefb0</title>
<path fill="none" stroke="black" d="M3081.55,-96.49C3186.44,-85.65 3322.21,-71.62 3429.05,-60.58"/>
<polygon fill="black" stroke="black" points="3429.72,-64.03 3439.3,-59.52 3429,-57.07 3429.72,-64.03"/>
</g>
<!-- Node0x5affe5ff0b70 -->
<g id="node40" class="node">
<title>Node0x5affe5ff0b70</title>
<polygon fill="none" stroke="black" points="3912,-96.5 3912,-132.5 4274,-132.5 4274,-96.5 3912,-96.5"/>
<text text-anchor="middle" x="4093" y="-110.8" font-family="Times,serif" font-size="14.00">_ZN32CIccCombinedConnectionConditionsD2Ev</text>
</g>
<!-- Node0x5affe5ff0b70&#45;&gt;Node0x5affe5fef840 -->
<g id="edge49" class="edge">
<title>Node0x5affe5ff0b70&#45;&gt;Node0x5affe5fef840</title>
<path fill="none" stroke="black" d="M4093,-96.31C4093,-88.29 4093,-78.55 4093,-69.57"/>
<polygon fill="black" stroke="black" points="4096.5,-69.53 4093,-59.53 4089.5,-69.53 4096.5,-69.53"/>
</g>
<!-- Node0x5affe5ff0ac0 -->
<g id="node41" class="node">
<title>Node0x5affe5ff0ac0</title>
<polygon fill="none" stroke="black" points="9625,-169.5 9625,-205.5 9987,-205.5 9987,-169.5 9625,-169.5"/>
<text text-anchor="middle" x="9806" y="-183.8" font-family="Times,serif" font-size="14.00">_ZN32CIccCombinedConnectionConditionsD0Ev</text>
</g>
<!-- Node0x5affe5ff0440 -->
<g id="node42" class="node">
<title>Node0x5affe5ff0440</title>
<polygon fill="none" stroke="black" points="9773.5,-96.5 9773.5,-132.5 9838.5,-132.5 9838.5,-96.5 9773.5,-96.5"/>
<text text-anchor="middle" x="9806" y="-110.8" font-family="Times,serif" font-size="14.00">_ZdlPv</text>
</g>
<!-- Node0x5affe5ff0ac0&#45;&gt;Node0x5affe5ff0440 -->
<g id="edge50" class="edge">
<title>Node0x5affe5ff0ac0&#45;&gt;Node0x5affe5ff0440</title>
<path fill="none" stroke="black" d="M9806,-169.31C9806,-161.29 9806,-151.55 9806,-142.57"/>
<polygon fill="black" stroke="black" points="9809.5,-142.53 9806,-132.53 9802.5,-142.53 9809.5,-142.53"/>
</g>
<!-- Node0x5affe5ff02f0 -->
<g id="node43" class="node">
<title>Node0x5affe5ff02f0</title>
<polygon fill="none" stroke="black" points="10005.5,-169.5 10005.5,-205.5 10546.5,-205.5 10546.5,-169.5 10005.5,-169.5"/>
<text text-anchor="middle" x="10276" y="-183.8" font-family="Times,serif" font-size="14.00">_ZN32CIccCombinedConnectionConditions23getPccViewingConditionsEv</text>
</g>
<!-- Node0x5affe5ff4e50 -->
<g id="node44" class="node">
<title>Node0x5affe5ff4e50</title>
<polygon fill="none" stroke="black" points="10564.5,-169.5 10564.5,-205.5 11109.5,-205.5 11109.5,-169.5 10564.5,-169.5"/>
<text text-anchor="middle" x="10837" y="-183.8" font-family="Times,serif" font-size="14.00">_ZN32CIccCombinedConnectionConditions22getCustomToStandardPccEv</text>
</g>
<!-- Node0x5affe5ff6ed0 -->
<g id="node45" class="node">
<title>Node0x5affe5ff6ed0</title>
<polygon fill="none" stroke="black" points="11127.5,-169.5 11127.5,-205.5 11672.5,-205.5 11672.5,-169.5 11127.5,-169.5"/>
<text text-anchor="middle" x="11400" y="-183.8" font-family="Times,serif" font-size="14.00">_ZN32CIccCombinedConnectionConditions22getStandardToCustomPccEv</text>
</g>
<!-- Node0x5affe5ff6b20 -->
<g id="node46" class="node">
<title>Node0x5affe5ff6b20</title>
<polygon fill="none" stroke="black" points="7493,-96.5 7493,-132.5 8025,-132.5 8025,-96.5 7493,-96.5"/>
<text text-anchor="middle" x="7759" y="-110.8" font-family="Times,serif" font-size="14.00">_ZN32CIccCombinedConnectionConditions20getNormIlluminantXYZEPf</text>
</g>
<!-- Node0x5affe5ff6b20&#45;&gt;Node0x5affe5fd5c50 -->
<g id="edge51" class="edge">
<title>Node0x5affe5ff6b20&#45;&gt;Node0x5affe5fd5c50</title>
<path fill="none" stroke="black" d="M7918.92,-96.47C8004.52,-86.84 8111.67,-73.94 8207,-60 8207.1,-59.99 8207.2,-59.97 8207.31,-59.96"/>
<polygon fill="black" stroke="black" points="8207.55,-63.46 8216.92,-58.51 8206.51,-56.54 8207.55,-63.46"/>
</g>
<!-- Node0x5affe5ff5150 -->
<g id="node47" class="node">
<title>Node0x5affe5ff5150</title>
<polygon fill="none" stroke="black" points="8043.5,-96.5 8043.5,-132.5 8566.5,-132.5 8566.5,-96.5 8043.5,-96.5"/>
<text text-anchor="middle" x="8305" y="-110.8" font-family="Times,serif" font-size="14.00">_ZN32CIccCombinedConnectionConditions19getLumIlluminantXYZEPf</text>
</g>
<!-- Node0x5affe5ff5150&#45;&gt;Node0x5affe5fd5c50 -->
<g id="edge52" class="edge">
<title>Node0x5affe5ff5150&#45;&gt;Node0x5affe5fd5c50</title>
<path fill="none" stroke="black" d="M8305.73,-96.31C8306.07,-88.29 8306.48,-78.55 8306.86,-69.57"/>
<polygon fill="black" stroke="black" points="8310.36,-69.67 8307.28,-59.53 8303.36,-69.37 8310.36,-69.67"/>
</g>
<!-- Node0x5affe5fe0440 -->
<g id="node48" class="node">
<title>Node0x5affe5fe0440</title>
<polygon fill="none" stroke="black" points="8585,-96.5 8585,-132.5 9089,-132.5 9089,-96.5 8585,-96.5"/>
<text text-anchor="middle" x="8837" y="-110.8" font-family="Times,serif" font-size="14.00">_ZN32CIccCombinedConnectionConditions16getMediaWhiteXYZEPf</text>
</g>
<!-- Node0x5affe5fe0440&#45;&gt;Node0x5affe5fd5c50 -->
<g id="edge53" class="edge">
<title>Node0x5affe5fe0440&#45;&gt;Node0x5affe5fd5c50</title>
<path fill="none" stroke="black" d="M8710.29,-96.49C8618.12,-84.12 8494.96,-67.59 8409.3,-56.1"/>
<polygon fill="black" stroke="black" points="8409.68,-52.62 8399.31,-54.75 8408.75,-59.55 8409.68,-52.62"/>
</g>
<!-- Node0x5affe5ffa770 -->
<g id="node49" class="node">
<title>Node0x5affe5ffa770</title>
<polygon fill="none" stroke="black" points="11690.5,-169.5 11690.5,-205.5 12021.5,-205.5 12021.5,-169.5 11690.5,-169.5"/>
<text text-anchor="middle" x="11856" y="-183.8" font-family="Times,serif" font-size="14.00">_ZN31IIccProfileConnectionConditionsD0Ev</text>
</g>
<!-- Node0x5affe5fe10c0 -->
<g id="node50" class="node">
<title>Node0x5affe5fe10c0</title>
<polygon fill="none" stroke="black" points="11815,-96.5 11815,-132.5 11897,-132.5 11897,-96.5 11815,-96.5"/>
<text text-anchor="middle" x="11856" y="-110.8" font-family="Times,serif" font-size="14.00">llvm.trap</text>
</g>
<!-- Node0x5affe5ffa770&#45;&gt;Node0x5affe5fe10c0 -->
<g id="edge54" class="edge">
<title>Node0x5affe5ffa770&#45;&gt;Node0x5affe5fe10c0</title>
<path fill="none" stroke="black" d="M11856,-169.31C11856,-161.29 11856,-151.55 11856,-142.57"/>
<polygon fill="black" stroke="black" points="11859.5,-142.53 11856,-132.53 11852.5,-142.53 11859.5,-142.53"/>
</g>
<!-- Node0x5affe5fe1140 -->
<g id="node51" class="node">
<title>Node0x5affe5fe1140</title>
<polygon fill="none" stroke="black" points="12040,-169.5 12040,-205.5 12188,-205.5 12188,-169.5 12040,-169.5"/>
<text text-anchor="middle" x="12114" y="-183.8" font-family="Times,serif" font-size="14.00">__cxa_pure_virtual</text>
</g>
</g>
</svg>
