<?xml version="1.0" encoding="UTF-8" standalone="no"?>
<!DOCTYPE svg PUBLIC "-//W3C//DTD SVG 1.1//EN"
 "http://www.w3.org/Graphics/SVG/1.1/DTD/svg11.dtd">
<!-- Generated by graphviz version 2.43.0 (0)
 -->
<!-- Title: Call graph: /home/h02332/po/research/call&#45;graph/iccdev/proflib/IccPcc.ll Pages: 1 -->
<svg width="1143pt" height="1645pt"
 viewBox="0.00 0.00 1143.20 1645.20" xmlns="http://www.w3.org/2000/svg" xmlns:xlink="http://www.w3.org/1999/xlink">
<g id="graph0" class="graph" transform="scale(1 1) rotate(0) translate(21.6 1623.6)">
<title>Call graph: /home/h02332/po/research/call&#45;graph/iccdev/proflib/IccPcc.ll</title>
<polygon fill="white" stroke="transparent" points="-21.6,21.6 -21.6,-1623.6 1121.6,-1623.6 1121.6,21.6 -21.6,21.6"/>
<!-- Node0x5ee86082ac20 -->
<g id="node1" class="node">
<title>Node0x5ee86082ac20</title>
<path fill="#f0f4ff" stroke="black" d="M289.5,-1080C289.5,-1080 38.5,-1080 38.5,-1080 32.5,-1080 26.5,-1074 26.5,-1068 26.5,-1068 26.5,-1056 26.5,-1056 26.5,-1050 32.5,-1044 38.5,-1044 38.5,-1044 289.5,-1044 289.5,-1044 295.5,-1044 301.5,-1050 301.5,-1056 301.5,-1056 301.5,-1068 301.5,-1068 301.5,-1074 295.5,-1080 289.5,-1080"/>
<text text-anchor="middle" x="164" y="-1059.8" font-family="Courier,monospace" font-size="9.00">IIccProfileConnectionConditions::isEquivalentPcc()</text>
</g>
<!-- Node0x5ee860753d30 -->
<g id="node2" class="node">
<title>Node0x5ee860753d30</title>
<path fill="#f0f4ff" stroke="black" d="M678,-1138C678,-1138 422,-1138 422,-1138 416,-1138 410,-1132 410,-1126 410,-1126 410,-1114 410,-1114 410,-1108 416,-1102 422,-1102 422,-1102 678,-1102 678,-1102 684,-1102 690,-1108 690,-1114 690,-1114 690,-1126 690,-1126 690,-1132 684,-1138 678,-1138"/>
<text text-anchor="middle" x="550" y="-1117.8" font-family="Courier,monospace" font-size="9.00">IIccProfileConnectionConditions::getPccIlluminant()</text>
</g>
<!-- Node0x5ee86082ac20&#45;&gt;Node0x5ee860753d30 -->
<g id="edge1" class="edge">
<title>Node0x5ee86082ac20&#45;&gt;Node0x5ee860753d30</title>
<path fill="none" stroke="#4a6fa5" d="M284.4,-1080.03C328.64,-1086.72 378.92,-1094.31 423.68,-1101.07"/>
<polygon fill="#4a6fa5" stroke="#4a6fa5" points="423.43,-1103.16 429.68,-1101.98 424.06,-1099 423.43,-1103.16"/>
</g>
<!-- Node0x5ee8608220a0 -->
<g id="node3" class="node">
<title>Node0x5ee8608220a0</title>
<path fill="#f0f4ff" stroke="black" d="M673,-1196C673,-1196 427,-1196 427,-1196 421,-1196 415,-1190 415,-1184 415,-1184 415,-1172 415,-1172 415,-1166 421,-1160 427,-1160 427,-1160 673,-1160 673,-1160 679,-1160 685,-1166 685,-1172 685,-1172 685,-1184 685,-1184 685,-1190 679,-1196 673,-1196"/>
<text text-anchor="middle" x="550" y="-1175.8" font-family="Courier,monospace" font-size="9.00">IIccProfileConnectionConditions::getPccObserver()</text>
</g>
<!-- Node0x5ee86082ac20&#45;&gt;Node0x5ee8608220a0 -->
<g id="edge2" class="edge">
<title>Node0x5ee86082ac20&#45;&gt;Node0x5ee8608220a0</title>
<path fill="none" stroke="#4a6fa5" d="M301.85,-1079.84C310.91,-1082.99 319.72,-1086.68 328,-1091 360.32,-1107.86 353.68,-1132.14 386,-1149 393.21,-1152.76 400.82,-1156.04 408.64,-1158.91"/>
<polygon fill="#4a6fa5" stroke="#4a6fa5" points="408.31,-1161.02 414.67,-1161.02 409.7,-1157.05 408.31,-1161.02"/>
</g>
<!-- Node0x5ee8608312c0 -->
<g id="node4" class="node">
<title>Node0x5ee8608312c0</title>
<path fill="#f0f4ff" stroke="black" d="M678,-674C678,-674 422,-674 422,-674 416,-674 410,-668 410,-662 410,-662 410,-650 410,-650 410,-644 416,-638 422,-638 422,-638 678,-638 678,-638 684,-638 690,-644 690,-650 690,-650 690,-662 690,-662 690,-668 684,-674 678,-674"/>
<text text-anchor="middle" x="550" y="-653.8" font-family="Courier,monospace" font-size="9.00">IIccProfileConnectionConditions::hasIlluminantSPD()</text>
</g>
<!-- Node0x5ee86082ac20&#45;&gt;Node0x5ee8608312c0 -->
<g id="edge3" class="edge">
<title>Node0x5ee86082ac20&#45;&gt;Node0x5ee8608312c0</title>
<path fill="none" stroke="#4a6fa5" d="M169.77,-1043.69C186.94,-981.71 251.83,-778.44 386,-685 391.8,-680.96 398,-677.42 404.46,-674.34"/>
<polygon fill="#4a6fa5" stroke="#4a6fa5" points="405.34,-676.24 409.94,-671.85 403.61,-672.42 405.34,-676.24"/>
</g>
<!-- Node0x5ee860753e50 -->
<g id="node5" class="node">
<title>Node0x5ee860753e50</title>
<path fill="#f0f4ff" stroke="black" d="M660,-1080C660,-1080 440,-1080 440,-1080 434,-1080 428,-1074 428,-1068 428,-1068 428,-1056 428,-1056 428,-1050 434,-1044 440,-1044 440,-1044 660,-1044 660,-1044 666,-1044 672,-1050 672,-1056 672,-1056 672,-1068 672,-1068 672,-1074 666,-1080 660,-1080"/>
<text text-anchor="middle" x="550" y="-1059.8" font-family="Courier,monospace" font-size="9.00">IIccProfileConnectionConditions::getPccCCT()</text>
</g>
<!-- Node0x5ee86082ac20&#45;&gt;Node0x5ee860753e50 -->
<g id="edge4" class="edge">
<title>Node0x5ee86082ac20&#45;&gt;Node0x5ee860753e50</title>
<path fill="none" stroke="#4a6fa5" d="M301.74,-1062C340.8,-1062 383.21,-1062 421.69,-1062"/>
<polygon fill="#4a6fa5" stroke="#4a6fa5" points="421.83,-1064.1 427.83,-1062 421.83,-1059.9 421.83,-1064.1"/>
</g>
<!-- Node0x5ee860832520 -->
<g id="node6" class="node">
<title>Node0x5ee860832520</title>
<path fill="#f0f4ff" stroke="black" d="M1064,-1138C1064,-1138 808,-1138 808,-1138 802,-1138 796,-1132 796,-1126 796,-1126 796,-1114 796,-1114 796,-1108 802,-1102 808,-1102 808,-1102 1064,-1102 1064,-1102 1070,-1102 1076,-1108 1076,-1114 1076,-1114 1076,-1126 1076,-1126 1076,-1132 1070,-1138 1064,-1138"/>
<text text-anchor="middle" x="936" y="-1117.8" font-family="Courier,monospace" font-size="9.00">CIccTagSpectralViewingConditions::getStdIllumiant()</text>
</g>
<!-- Node0x5ee860753d30&#45;&gt;Node0x5ee860832520 -->
<g id="edge5" class="edge">
<title>Node0x5ee860753d30&#45;&gt;Node0x5ee860832520</title>
<path fill="none" stroke="#4a6fa5" d="M690.18,-1120C722.61,-1120 757.22,-1120 789.9,-1120"/>
<polygon fill="#4a6fa5" stroke="#4a6fa5" points="789.98,-1122.1 795.98,-1120 789.98,-1117.9 789.98,-1122.1"/>
</g>
<!-- Node0x5ee860833090 -->
<g id="node7" class="node">
<title>Node0x5ee860833090</title>
<path fill="#f0f4ff" stroke="black" d="M1061.5,-1196C1061.5,-1196 810.5,-1196 810.5,-1196 804.5,-1196 798.5,-1190 798.5,-1184 798.5,-1184 798.5,-1172 798.5,-1172 798.5,-1166 804.5,-1160 810.5,-1160 810.5,-1160 1061.5,-1160 1061.5,-1160 1067.5,-1160 1073.5,-1166 1073.5,-1172 1073.5,-1172 1073.5,-1184 1073.5,-1184 1073.5,-1190 1067.5,-1196 1061.5,-1196"/>
<text text-anchor="middle" x="936" y="-1175.8" font-family="Courier,monospace" font-size="9.00">CIccTagSpectralViewingConditions::getStdObserver()</text>
</g>
<!-- Node0x5ee8608220a0&#45;&gt;Node0x5ee860833090 -->
<g id="edge6" class="edge">
<title>Node0x5ee8608220a0&#45;&gt;Node0x5ee860833090</title>
<path fill="none" stroke="#4a6fa5" d="M685.03,-1178C719.7,-1178 757.15,-1178 792.25,-1178"/>
<polygon fill="#4a6fa5" stroke="#4a6fa5" points="792.32,-1180.1 798.32,-1178 792.32,-1175.9 792.32,-1180.1"/>
</g>
<!-- Node0x5ee860833a40 -->
<g id="node9" class="node">
<title>Node0x5ee860833a40</title>
<path fill="#f0f4ff" stroke="black" d="M1059,-674C1059,-674 813,-674 813,-674 807,-674 801,-668 801,-662 801,-662 801,-650 801,-650 801,-644 807,-638 813,-638 813,-638 1059,-638 1059,-638 1065,-638 1071,-644 1071,-650 1071,-650 1071,-662 1071,-662 1071,-668 1065,-674 1059,-674"/>
<text text-anchor="middle" x="936" y="-653.8" font-family="Courier,monospace" font-size="9.00">CIccTagSpectralViewingConditions::getIlluminant()</text>
</g>
<!-- Node0x5ee8608312c0&#45;&gt;Node0x5ee860833a40 -->
<g id="edge8" class="edge">
<title>Node0x5ee8608312c0&#45;&gt;Node0x5ee860833a40</title>
<path fill="none" stroke="#4a6fa5" d="M690.18,-656C724.12,-656 760.46,-656 794.47,-656"/>
<polygon fill="#4a6fa5" stroke="#4a6fa5" points="794.79,-658.1 800.79,-656 794.79,-653.9 794.79,-658.1"/>
</g>
<!-- Node0x5ee860750b30 -->
<g id="node8" class="node">
<title>Node0x5ee860750b30</title>
<path fill="#f0f4ff" stroke="black" d="M1067,-1080C1067,-1080 805,-1080 805,-1080 799,-1080 793,-1074 793,-1068 793,-1068 793,-1056 793,-1056 793,-1050 799,-1044 805,-1044 805,-1044 1067,-1044 1067,-1044 1073,-1044 1079,-1050 1079,-1056 1079,-1056 1079,-1068 1079,-1068 1079,-1074 1073,-1080 1067,-1080"/>
<text text-anchor="middle" x="936" y="-1059.8" font-family="Courier,monospace" font-size="9.00">CIccTagSpectralViewingConditions::getIlluminantCCT()</text>
</g>
<!-- Node0x5ee860753e50&#45;&gt;Node0x5ee860750b30 -->
<g id="edge7" class="edge">
<title>Node0x5ee860753e50&#45;&gt;Node0x5ee860750b30</title>
<path fill="none" stroke="#4a6fa5" d="M672.24,-1062C708.64,-1062 748.99,-1062 786.93,-1062"/>
<polygon fill="#4a6fa5" stroke="#4a6fa5" points="786.99,-1064.1 792.99,-1062 786.99,-1059.9 786.99,-1064.1"/>
</g>
<!-- Node0x5ee860834710 -->
<g id="node10" class="node">
<title>Node0x5ee860834710</title>
<path fill="#f0f4ff" stroke="black" d="M284.5,-1138C284.5,-1138 43.5,-1138 43.5,-1138 37.5,-1138 31.5,-1132 31.5,-1126 31.5,-1126 31.5,-1114 31.5,-1114 31.5,-1108 37.5,-1102 43.5,-1102 43.5,-1102 284.5,-1102 284.5,-1102 290.5,-1102 296.5,-1108 296.5,-1114 296.5,-1114 296.5,-1126 296.5,-1126 296.5,-1132 290.5,-1138 284.5,-1138"/>
<text text-anchor="middle" x="164" y="-1117.8" font-family="Courier,monospace" font-size="9.00">IIccProfileConnectionConditions::isStandardPcc()</text>
</g>
<!-- Node0x5ee860834710&#45;&gt;Node0x5ee860753d30 -->
<g id="edge9" class="edge">
<title>Node0x5ee860834710&#45;&gt;Node0x5ee860753d30</title>
<path fill="none" stroke="#4a6fa5" d="M296.61,-1120C331.09,-1120 368.47,-1120 403.62,-1120"/>
<polygon fill="#4a6fa5" stroke="#4a6fa5" points="403.7,-1122.1 409.7,-1120 403.7,-1117.9 403.7,-1122.1"/>
</g>
<!-- Node0x5ee860834710&#45;&gt;Node0x5ee8608220a0 -->
<g id="edge10" class="edge">
<title>Node0x5ee860834710&#45;&gt;Node0x5ee8608220a0</title>
<path fill="none" stroke="#4a6fa5" d="M284.4,-1138.03C328.64,-1144.72 378.92,-1152.31 423.68,-1159.07"/>
<polygon fill="#4a6fa5" stroke="#4a6fa5" points="423.43,-1161.16 429.68,-1159.98 424.06,-1157 423.43,-1161.16"/>
</g>
<!-- Node0x5ee860834490 -->
<g id="node11" class="node">
<title>Node0x5ee860834490</title>
<path fill="#f0f4ff" stroke="black" d="M702,-616C702,-616 398,-616 398,-616 392,-616 386,-610 386,-604 386,-604 386,-592 386,-592 386,-586 392,-580 398,-580 398,-580 702,-580 702,-580 708,-580 714,-586 714,-592 714,-592 714,-604 714,-604 714,-610 708,-616 702,-616"/>
<text text-anchor="middle" x="550" y="-595.8" font-family="Courier,monospace" font-size="9.00">IIccProfileConnectionConditions::getObserverIlluminantSca...</text>
</g>
<!-- Node0x5ee860834490&#45;&gt;Node0x5ee860833a40 -->
<g id="edge11" class="edge">
<title>Node0x5ee860834490&#45;&gt;Node0x5ee860833a40</title>
<path fill="none" stroke="#4a6fa5" d="M670.4,-616.03C714.64,-622.72 764.92,-630.31 809.68,-637.07"/>
<polygon fill="#4a6fa5" stroke="#4a6fa5" points="809.43,-639.16 815.68,-637.98 810.06,-635 809.43,-639.16"/>
</g>
<!-- Node0x5ee860833cd0 -->
<g id="node12" class="node">
<title>Node0x5ee860833cd0</title>
<path fill="#f0f4ff" stroke="black" d="M1053.5,-616C1053.5,-616 818.5,-616 818.5,-616 812.5,-616 806.5,-610 806.5,-604 806.5,-604 806.5,-592 806.5,-592 806.5,-586 812.5,-580 818.5,-580 818.5,-580 1053.5,-580 1053.5,-580 1059.5,-580 1065.5,-586 1065.5,-592 1065.5,-592 1065.5,-604 1065.5,-604 1065.5,-610 1059.5,-616 1053.5,-616"/>
<text text-anchor="middle" x="936" y="-595.8" font-family="Courier,monospace" font-size="9.00">CIccTagSpectralViewingConditions::getObserver()</text>
</g>
<!-- Node0x5ee860834490&#45;&gt;Node0x5ee860833cd0 -->
<g id="edge12" class="edge">
<title>Node0x5ee860834490&#45;&gt;Node0x5ee860833cd0</title>
<path fill="none" stroke="#4a6fa5" d="M714.13,-598C742.81,-598 772.36,-598 800.16,-598"/>
<polygon fill="#4a6fa5" stroke="#4a6fa5" points="800.43,-600.1 806.43,-598 800.43,-595.9 800.43,-600.1"/>
</g>
<!-- Node0x5ee860834990 -->
<g id="node13" class="node">
<title>Node0x5ee860834990</title>
<path fill="#f0f4ff" stroke="black" d="M998.5,-558C998.5,-558 873.5,-558 873.5,-558 867.5,-558 861.5,-552 861.5,-546 861.5,-546 861.5,-534 861.5,-534 861.5,-528 867.5,-522 873.5,-522 873.5,-522 998.5,-522 998.5,-522 1004.5,-522 1010.5,-528 1010.5,-534 1010.5,-534 1010.5,-546 1010.5,-546 1010.5,-552 1004.5,-558 998.5,-558"/>
<text text-anchor="middle" x="936" y="-537.8" font-family="Courier,monospace" font-size="9.00">CIccMatrixMath::rangeMap()</text>
</g>
<!-- Node0x5ee860834490&#45;&gt;Node0x5ee860834990 -->
<g id="edge13" class="edge">
<title>Node0x5ee860834490&#45;&gt;Node0x5ee860834990</title>
<path fill="none" stroke="#4a6fa5" d="M670.4,-579.97C730.5,-570.89 801.73,-560.13 855.14,-552.06"/>
<polygon fill="#4a6fa5" stroke="#4a6fa5" points="855.61,-554.12 861.23,-551.14 854.98,-549.96 855.61,-554.12"/>
</g>
<!-- Node0x5ee860835590 -->
<g id="node14" class="node">
<title>Node0x5ee860835590</title>
<path fill="#f0f4ff" stroke="black" d="M702,-558C702,-558 398,-558 398,-558 392,-558 386,-552 386,-546 386,-546 386,-534 386,-534 386,-528 392,-522 398,-522 398,-522 702,-522 702,-522 708,-522 714,-528 714,-534 714,-534 714,-546 714,-546 714,-552 708,-558 702,-558"/>
<text text-anchor="middle" x="550" y="-537.8" font-family="Courier,monospace" font-size="9.00">IIccProfileConnectionConditions::getObserverWhiteScaleFac...</text>
</g>
<!-- Node0x5ee860835590&#45;&gt;Node0x5ee860833cd0 -->
<g id="edge14" class="edge">
<title>Node0x5ee860835590&#45;&gt;Node0x5ee860833cd0</title>
<path fill="none" stroke="#4a6fa5" d="M670.4,-558.03C714.64,-564.72 764.92,-572.31 809.68,-579.07"/>
<polygon fill="#4a6fa5" stroke="#4a6fa5" points="809.43,-581.16 815.68,-579.98 810.06,-577 809.43,-581.16"/>
</g>
<!-- Node0x5ee860835590&#45;&gt;Node0x5ee860834990 -->
<g id="edge15" class="edge">
<title>Node0x5ee860835590&#45;&gt;Node0x5ee860834990</title>
<path fill="none" stroke="#4a6fa5" d="M714.13,-540C762.9,-540 814.21,-540 855.09,-540"/>
<polygon fill="#4a6fa5" stroke="#4a6fa5" points="855.3,-542.1 861.3,-540 855.3,-537.9 855.3,-542.1"/>
</g>
<!-- Node0x5ee8608347d0 -->
<g id="node15" class="node">
<title>Node0x5ee8608347d0</title>
<path fill="#f0f4ff" stroke="black" d="M686,-471C686,-471 414,-471 414,-471 408,-471 402,-465 402,-459 402,-459 402,-447 402,-447 402,-441 408,-435 414,-435 414,-435 686,-435 686,-435 692,-435 698,-441 698,-447 698,-447 698,-459 698,-459 698,-465 692,-471 686,-471"/>
<text text-anchor="middle" x="550" y="-450.8" font-family="Courier,monospace" font-size="9.00">IIccProfileConnectionConditions::getEmissiveObserver()</text>
</g>
<!-- Node0x5ee8608347d0&#45;&gt;Node0x5ee860833cd0 -->
<g id="edge16" class="edge">
<title>Node0x5ee8608347d0&#45;&gt;Node0x5ee860833cd0</title>
<path fill="none" stroke="#4a6fa5" d="M623.14,-471.11C652.67,-480.4 686.32,-493.51 714,-511 744.82,-530.48 739.68,-552.14 772,-569 780.95,-573.67 790.51,-577.6 800.34,-580.91"/>
<polygon fill="#4a6fa5" stroke="#4a6fa5" points="799.81,-582.94 806.16,-582.79 801.1,-578.95 799.81,-582.94"/>
</g>
<!-- Node0x5ee8608347d0&#45;&gt;Node0x5ee860834990 -->
<g id="edge17" class="edge">
<title>Node0x5ee8608347d0&#45;&gt;Node0x5ee860834990</title>
<path fill="none" stroke="#4a6fa5" d="M614.5,-471.12C658.49,-483.31 718.54,-499.25 772,-511 799.01,-516.94 828.75,-522.51 855.34,-527.15"/>
<polygon fill="#4a6fa5" stroke="#4a6fa5" points="855.05,-529.23 861.32,-528.19 855.77,-525.09 855.05,-529.23"/>
</g>
<!-- Node0x5ee860834e10 -->
<g id="node16" class="node">
<title>Node0x5ee860834e10</title>
<path fill="#f0f4ff" stroke="black" d="M1017,-326C1017,-326 855,-326 855,-326 849,-326 843,-320 843,-314 843,-314 843,-302 843,-302 843,-296 849,-290 855,-290 855,-290 1017,-290 1017,-290 1023,-290 1029,-296 1029,-302 1029,-302 1029,-314 1029,-314 1029,-320 1023,-326 1017,-326"/>
<text text-anchor="middle" x="936" y="-305.8" font-family="Courier,monospace" font-size="9.00">CIccMatrixMath::~CIccMatrixMath()</text>
</g>
<!-- Node0x5ee8608347d0&#45;&gt;Node0x5ee860834e10 -->
<g id="edge18" class="edge">
<title>Node0x5ee8608347d0&#45;&gt;Node0x5ee860834e10</title>
<path fill="none" stroke="#4a6fa5" d="M578.7,-434.86C619.36,-409.08 698.41,-362.18 772,-337 792.51,-329.98 815.08,-324.58 836.71,-320.46"/>
<polygon fill="#4a6fa5" stroke="#4a6fa5" points="837.28,-322.49 842.79,-319.33 836.51,-318.36 837.28,-322.49"/>
</g>
<!-- Node0x5ee860835950 -->
<g id="node17" class="node">
<title>Node0x5ee860835950</title>
<path fill="#f0f4ff" stroke="black" d="M1004,-500C1004,-500 868,-500 868,-500 862,-500 856,-494 856,-488 856,-488 856,-476 856,-476 856,-470 862,-464 868,-464 868,-464 1004,-464 1004,-464 1010,-464 1016,-470 1016,-476 1016,-476 1016,-488 1016,-488 1016,-494 1010,-500 1004,-500"/>
<text text-anchor="middle" x="936" y="-479.8" font-family="Courier,monospace" font-size="9.00">CIccMatrixMath::VectorMult()</text>
</g>
<!-- Node0x5ee8608347d0&#45;&gt;Node0x5ee860835950 -->
<g id="edge19" class="edge">
<title>Node0x5ee8608347d0&#45;&gt;Node0x5ee860835950</title>
<path fill="none" stroke="#4a6fa5" d="M698.09,-464.11C749.33,-467.98 805.08,-472.19 849.62,-475.55"/>
<polygon fill="#4a6fa5" stroke="#4a6fa5" points="849.69,-477.66 855.83,-476.02 850.01,-473.48 849.69,-477.66"/>
</g>
<!-- Node0x5ee860847ef0 -->
<g id="node18" class="node">
<title>Node0x5ee860847ef0</title>
<path fill="#f0f4ff" stroke="black" d="M1014.5,-442C1014.5,-442 857.5,-442 857.5,-442 851.5,-442 845.5,-436 845.5,-430 845.5,-430 845.5,-418 845.5,-418 845.5,-412 851.5,-406 857.5,-406 857.5,-406 1014.5,-406 1014.5,-406 1020.5,-406 1026.5,-412 1026.5,-418 1026.5,-418 1026.5,-430 1026.5,-430 1026.5,-436 1020.5,-442 1014.5,-442"/>
<text text-anchor="middle" x="936" y="-421.8" font-family="Courier,monospace" font-size="9.00">CIccMatrixMath::CIccMatrixMath()</text>
</g>
<!-- Node0x5ee8608347d0&#45;&gt;Node0x5ee860847ef0 -->
<g id="edge20" class="edge">
<title>Node0x5ee8608347d0&#45;&gt;Node0x5ee860847ef0</title>
<path fill="none" stroke="#4a6fa5" d="M698.09,-441.89C745.39,-438.32 796.54,-434.46 839.16,-431.24"/>
<polygon fill="#4a6fa5" stroke="#4a6fa5" points="839.57,-433.31 845.39,-430.77 839.25,-429.13 839.57,-433.31"/>
</g>
<!-- Node0x5ee860834410 -->
<g id="node19" class="node">
<title>Node0x5ee860834410</title>
<path fill="#f0f4ff" stroke="black" d="M990.5,-384C990.5,-384 881.5,-384 881.5,-384 875.5,-384 869.5,-378 869.5,-372 869.5,-372 869.5,-360 869.5,-360 869.5,-354 875.5,-348 881.5,-348 881.5,-348 990.5,-348 990.5,-348 996.5,-348 1002.5,-354 1002.5,-360 1002.5,-360 1002.5,-372 1002.5,-372 1002.5,-378 996.5,-384 990.5,-384"/>
<text text-anchor="middle" x="936" y="-363.8" font-family="Courier,monospace" font-size="9.00">CIccMatrixMath::entry()</text>
</g>
<!-- Node0x5ee8608347d0&#45;&gt;Node0x5ee860834410 -->
<g id="edge21" class="edge">
<title>Node0x5ee8608347d0&#45;&gt;Node0x5ee860834410</title>
<path fill="none" stroke="#4a6fa5" d="M614.5,-434.88C658.49,-422.69 718.54,-406.75 772,-395 801.75,-388.46 834.79,-382.37 863.31,-377.47"/>
<polygon fill="#4a6fa5" stroke="#4a6fa5" points="863.77,-379.52 869.33,-376.44 863.06,-375.38 863.77,-379.52"/>
</g>
<!-- Node0x5ee86084c360 -->
<g id="node20" class="node">
<title>Node0x5ee86084c360</title>
<path fill="#f0f4ff" stroke="black" d="M694,-210C694,-210 406,-210 406,-210 400,-210 394,-204 394,-198 394,-198 394,-186 394,-186 394,-180 400,-174 406,-174 406,-174 694,-174 694,-174 700,-174 706,-180 706,-186 706,-186 706,-198 706,-198 706,-204 700,-210 694,-210"/>
<text text-anchor="middle" x="550" y="-189.8" font-family="Courier,monospace" font-size="9.00">IIccProfileConnectionConditions::getReflectanceObserver()</text>
</g>
<!-- Node0x5ee86084c360&#45;&gt;Node0x5ee860833a40 -->
<g id="edge22" class="edge">
<title>Node0x5ee86084c360&#45;&gt;Node0x5ee860833a40</title>
<path fill="none" stroke="#4a6fa5" d="M567.06,-210.2C599.34,-247.65 672.54,-337.15 714,-424 754.42,-508.68 702.35,-564.13 772,-627 778.93,-633.26 786.73,-638.4 795.07,-642.6"/>
<polygon fill="#4a6fa5" stroke="#4a6fa5" points="794.6,-644.7 800.92,-645.36 796.39,-640.9 794.6,-644.7"/>
</g>
<!-- Node0x5ee86084c360&#45;&gt;Node0x5ee860834990 -->
<g id="edge23" class="edge">
<title>Node0x5ee86084c360&#45;&gt;Node0x5ee860834990</title>
<path fill="none" stroke="#4a6fa5" d="M564.04,-210.24C591.89,-249.25 659.09,-343.77 714,-424 740.25,-462.35 733.11,-485.55 772,-511 796.48,-527.02 827.25,-534.88 855.44,-538.54"/>
<polygon fill="#4a6fa5" stroke="#4a6fa5" points="855.21,-540.63 861.42,-539.26 855.71,-536.46 855.21,-540.63"/>
</g>
<!-- Node0x5ee86084b960 -->
<g id="node21" class="node">
<title>Node0x5ee86084b960</title>
<path fill="#f0f4ff" stroke="black" d="M1069.5,-94C1069.5,-94 802.5,-94 802.5,-94 796.5,-94 790.5,-88 790.5,-82 790.5,-82 790.5,-70 790.5,-70 790.5,-64 796.5,-58 802.5,-58 802.5,-58 1069.5,-58 1069.5,-58 1075.5,-58 1081.5,-64 1081.5,-70 1081.5,-70 1081.5,-82 1081.5,-82 1081.5,-88 1075.5,-94 1069.5,-94"/>
<text text-anchor="middle" x="936" y="-73.8" font-family="Courier,monospace" font-size="9.00">CIccTagSpectralViewingConditions::getObserverMatrix()</text>
</g>
<!-- Node0x5ee86084c360&#45;&gt;Node0x5ee86084b960 -->
<g id="edge24" class="edge">
<title>Node0x5ee86084c360&#45;&gt;Node0x5ee86084b960</title>
<path fill="none" stroke="#4a6fa5" d="M590.1,-173.85C633.65,-154.3 706.53,-123.51 772,-105 784.59,-101.44 797.86,-98.23 811.17,-95.35"/>
<polygon fill="#4a6fa5" stroke="#4a6fa5" points="811.85,-97.36 817.28,-94.06 810.98,-93.25 811.85,-97.36"/>
</g>
<!-- Node0x5ee860836850 -->
<g id="node22" class="node">
<title>Node0x5ee860836850</title>
<path fill="#f0f4ff" stroke="black" d="M988,-36C988,-36 884,-36 884,-36 878,-36 872,-30 872,-24 872,-24 872,-12 872,-12 872,-6 878,0 884,0 884,0 988,0 988,0 994,0 1000,-6 1000,-12 1000,-12 1000,-24 1000,-24 1000,-30 994,-36 988,-36"/>
<text text-anchor="middle" x="936" y="-15.8" font-family="Courier,monospace" font-size="9.00">CIccMatrixMath::Mult()</text>
</g>
<!-- Node0x5ee86084c360&#45;&gt;Node0x5ee860836850 -->
<g id="edge25" class="edge">
<title>Node0x5ee86084c360&#45;&gt;Node0x5ee860836850</title>
<path fill="none" stroke="#4a6fa5" d="M571.93,-173.99C609.35,-142.8 691.4,-79.04 772,-47 801.55,-35.25 836,-28.24 865.6,-24.07"/>
<polygon fill="#4a6fa5" stroke="#4a6fa5" points="866.17,-26.11 871.84,-23.22 865.61,-21.95 866.17,-26.11"/>
</g>
<!-- Node0x5ee86084e5b0 -->
<g id="node23" class="node">
<title>Node0x5ee86084e5b0</title>
<path fill="#f0f4ff" stroke="black" d="M990.5,-268C990.5,-268 881.5,-268 881.5,-268 875.5,-268 869.5,-262 869.5,-256 869.5,-256 869.5,-244 869.5,-244 869.5,-238 875.5,-232 881.5,-232 881.5,-232 990.5,-232 990.5,-232 996.5,-232 1002.5,-238 1002.5,-244 1002.5,-244 1002.5,-256 1002.5,-256 1002.5,-262 996.5,-268 990.5,-268"/>
<text text-anchor="middle" x="936" y="-247.8" font-family="Courier,monospace" font-size="9.00">CIccMatrixMath::Scale()</text>
</g>
<!-- Node0x5ee86084c360&#45;&gt;Node0x5ee86084e5b0 -->
<g id="edge26" class="edge">
<title>Node0x5ee86084c360&#45;&gt;Node0x5ee86084e5b0</title>
<path fill="none" stroke="#4a6fa5" d="M670.4,-210.03C733.57,-219.58 809.04,-230.98 863.19,-239.15"/>
<polygon fill="#4a6fa5" stroke="#4a6fa5" points="863.1,-241.26 869.35,-240.08 863.73,-237.11 863.1,-241.26"/>
</g>
<!-- Node0x5ee86084a570 -->
<g id="node24" class="node">
<title>Node0x5ee86084a570</title>
<path fill="#f0f4ff" stroke="black" d="M1006.5,-210C1006.5,-210 865.5,-210 865.5,-210 859.5,-210 853.5,-204 853.5,-198 853.5,-198 853.5,-186 853.5,-186 853.5,-180 859.5,-174 865.5,-174 865.5,-174 1006.5,-174 1006.5,-174 1012.5,-174 1018.5,-180 1018.5,-186 1018.5,-186 1018.5,-198 1018.5,-198 1018.5,-204 1012.5,-210 1006.5,-210"/>
<text text-anchor="middle" x="936" y="-189.8" font-family="Courier,monospace" font-size="9.00">CIccMatrixMath::VectorScale()</text>
</g>
<!-- Node0x5ee86084c360&#45;&gt;Node0x5ee86084a570 -->
<g id="edge27" class="edge">
<title>Node0x5ee86084c360&#45;&gt;Node0x5ee86084a570</title>
<path fill="none" stroke="#4a6fa5" d="M706.08,-192C754.19,-192 805.52,-192 847.35,-192"/>
<polygon fill="#4a6fa5" stroke="#4a6fa5" points="847.45,-194.1 853.45,-192 847.45,-189.9 847.45,-194.1"/>
</g>
<!-- Node0x5ee86084e780 -->
<g id="node25" class="node">
<title>Node0x5ee86084e780</title>
<path fill="#f0f4ff" stroke="black" d="M993.5,-152C993.5,-152 878.5,-152 878.5,-152 872.5,-152 866.5,-146 866.5,-140 866.5,-140 866.5,-128 866.5,-128 866.5,-122 872.5,-116 878.5,-116 878.5,-116 993.5,-116 993.5,-116 999.5,-116 1005.5,-122 1005.5,-128 1005.5,-128 1005.5,-140 1005.5,-140 1005.5,-146 999.5,-152 993.5,-152"/>
<text text-anchor="middle" x="936" y="-131.8" font-family="Courier,monospace" font-size="9.00">CIccMatrixMath::RowSum()</text>
</g>
<!-- Node0x5ee86084c360&#45;&gt;Node0x5ee86084e780 -->
<g id="edge28" class="edge">
<title>Node0x5ee86084c360&#45;&gt;Node0x5ee86084e780</title>
<path fill="none" stroke="#4a6fa5" d="M670.4,-173.97C732.4,-164.6 806.26,-153.45 860.17,-145.3"/>
<polygon fill="#4a6fa5" stroke="#4a6fa5" points="860.69,-147.35 866.31,-144.38 860.06,-143.19 860.69,-147.35"/>
</g>
<!-- Node0x5ee86084d480 -->
<g id="node26" class="node">
<title>Node0x5ee86084d480</title>
<path fill="#f0f4ff" stroke="black" d="M702,-906C702,-906 398,-906 398,-906 392,-906 386,-900 386,-894 386,-894 386,-882 386,-882 386,-876 392,-870 398,-870 398,-870 702,-870 702,-870 708,-870 714,-876 714,-882 714,-882 714,-894 714,-894 714,-900 708,-906 702,-906"/>
<text text-anchor="middle" x="550" y="-885.8" font-family="Courier,monospace" font-size="9.00">CIccCombinedConnectionConditions::CIccCombinedConnectionC...</text>
</g>
<!-- Node0x5ee86084d480&#45;&gt;Node0x5ee860832520 -->
<g id="edge34" class="edge">
<title>Node0x5ee86084d480&#45;&gt;Node0x5ee860832520</title>
<path fill="none" stroke="#4a6fa5" d="M572.19,-906.16C603.63,-933.25 664.27,-986.09 714,-1033 740.52,-1058.01 739.68,-1074.14 772,-1091 778.27,-1094.27 784.84,-1097.18 791.6,-1099.77"/>
<polygon fill="#4a6fa5" stroke="#4a6fa5" points="790.96,-1101.77 797.32,-1101.87 792.41,-1097.83 790.96,-1101.77"/>
</g>
<!-- Node0x5ee86084d480&#45;&gt;Node0x5ee860750b30 -->
<g id="edge35" class="edge">
<title>Node0x5ee86084d480&#45;&gt;Node0x5ee860750b30</title>
<path fill="none" stroke="#4a6fa5" d="M571.93,-906.01C609.35,-937.2 691.4,-1000.96 772,-1033 780.85,-1036.52 790.13,-1039.61 799.6,-1042.33"/>
<polygon fill="#4a6fa5" stroke="#4a6fa5" points="799.17,-1044.39 805.51,-1043.97 800.3,-1040.34 799.17,-1044.39"/>
</g>
<!-- Node0x5ee86084d480&#45;&gt;Node0x5ee860833a40 -->
<g id="edge33" class="edge">
<title>Node0x5ee86084d480&#45;&gt;Node0x5ee860833a40</title>
<path fill="none" stroke="#4a6fa5" d="M572.19,-869.84C603.63,-842.75 664.27,-789.91 714,-743 740.52,-717.99 739.68,-701.86 772,-685 779.21,-681.24 786.82,-677.96 794.64,-675.09"/>
<polygon fill="#4a6fa5" stroke="#4a6fa5" points="795.7,-676.95 800.67,-672.98 794.31,-672.98 795.7,-676.95"/>
</g>
<!-- Node0x5ee86084d2b0 -->
<g id="node27" class="node">
<title>Node0x5ee86084d2b0</title>
<path fill="#f0f4ff" stroke="black" d="M1088,-848C1088,-848 784,-848 784,-848 778,-848 772,-842 772,-836 772,-836 772,-824 772,-824 772,-818 778,-812 784,-812 784,-812 1088,-812 1088,-812 1094,-812 1100,-818 1100,-824 1100,-824 1100,-836 1100,-836 1100,-842 1094,-848 1088,-848"/>
<text text-anchor="middle" x="936" y="-827.8" font-family="Courier,monospace" font-size="9.00">IIccProfileConnectionConditions::IIccProfileConnectionCon...</text>
</g>
<!-- Node0x5ee86084d480&#45;&gt;Node0x5ee86084d2b0 -->
<g id="edge29" class="edge">
<title>Node0x5ee86084d480&#45;&gt;Node0x5ee86084d2b0</title>
<path fill="none" stroke="#4a6fa5" d="M670.4,-869.97C714.64,-863.28 764.92,-855.69 809.68,-848.93"/>
<polygon fill="#4a6fa5" stroke="#4a6fa5" points="810.06,-851 815.68,-848.02 809.43,-846.84 810.06,-851"/>
</g>
<!-- Node0x5ee86084eb10 -->
<g id="node28" class="node">
<title>Node0x5ee86084eb10</title>
<path fill="#f0f4ff" stroke="black" d="M1014.5,-790C1014.5,-790 857.5,-790 857.5,-790 851.5,-790 845.5,-784 845.5,-778 845.5,-778 845.5,-766 845.5,-766 845.5,-760 851.5,-754 857.5,-754 857.5,-754 1014.5,-754 1014.5,-754 1020.5,-754 1026.5,-760 1026.5,-766 1026.5,-766 1026.5,-778 1026.5,-778 1026.5,-784 1020.5,-790 1014.5,-790"/>
<text text-anchor="middle" x="936" y="-769.8" font-family="Courier,monospace" font-size="9.00">CIccProfile::calcMediaWhiteXYZ()</text>
</g>
<!-- Node0x5ee86084d480&#45;&gt;Node0x5ee86084eb10 -->
<g id="edge30" class="edge">
<title>Node0x5ee86084d480&#45;&gt;Node0x5ee86084eb10</title>
<path fill="none" stroke="#4a6fa5" d="M590.1,-869.85C633.65,-850.3 706.53,-819.51 772,-801 793.58,-794.9 817.15,-789.82 839.49,-785.71"/>
<polygon fill="#4a6fa5" stroke="#4a6fa5" points="839.92,-787.77 845.45,-784.63 839.17,-783.64 839.92,-787.77"/>
</g>
<!-- Node0x5ee86084f840 -->
<g id="node29" class="node">
<title>Node0x5ee86084f840</title>
<path fill="#f0f4ff" stroke="black" d="M1088,-732C1088,-732 784,-732 784,-732 778,-732 772,-726 772,-720 772,-720 772,-708 772,-708 772,-702 778,-696 784,-696 784,-696 1088,-696 1088,-696 1094,-696 1100,-702 1100,-708 1100,-708 1100,-720 1100,-720 1100,-726 1094,-732 1088,-732"/>
<text text-anchor="middle" x="936" y="-711.8" font-family="Courier,monospace" font-size="9.00">IIccProfileConnectionConditions::~IIccProfileConnectionCo...</text>
</g>
<!-- Node0x5ee86084d480&#45;&gt;Node0x5ee86084f840 -->
<g id="edge31" class="edge">
<title>Node0x5ee86084d480&#45;&gt;Node0x5ee86084f840</title>
<path fill="none" stroke="#4a6fa5" d="M571.93,-869.99C609.35,-838.8 691.4,-775.04 772,-743 780.85,-739.48 790.13,-736.39 799.6,-733.67"/>
<polygon fill="#4a6fa5" stroke="#4a6fa5" points="800.3,-735.66 805.51,-732.03 799.17,-731.61 800.3,-735.66"/>
</g>
<!-- Node0x5ee86084fae0 -->
<g id="node30" class="node">
<title>Node0x5ee86084fae0</title>
<path fill="#f0f4ff" stroke="black" d="M1022,-1022C1022,-1022 850,-1022 850,-1022 844,-1022 838,-1016 838,-1010 838,-1010 838,-998 838,-998 838,-992 844,-986 850,-986 850,-986 1022,-986 1022,-986 1028,-986 1034,-992 1034,-998 1034,-998 1034,-1010 1034,-1010 1034,-1016 1028,-1022 1022,-1022"/>
<text text-anchor="middle" x="936" y="-1001.8" font-family="Courier,monospace" font-size="9.00">CIccProfile::calcLumIlluminantXYZ()</text>
</g>
<!-- Node0x5ee86084d480&#45;&gt;Node0x5ee86084fae0 -->
<g id="edge32" class="edge">
<title>Node0x5ee86084d480&#45;&gt;Node0x5ee86084fae0</title>
<path fill="none" stroke="#4a6fa5" d="M590.1,-906.15C633.65,-925.7 706.53,-956.49 772,-975 791.13,-980.41 811.83,-985.01 831.84,-988.85"/>
<polygon fill="#4a6fa5" stroke="#4a6fa5" points="831.46,-990.92 837.74,-989.97 832.24,-986.79 831.46,-990.92"/>
</g>
<!-- Node0x5ee86084f650 -->
<g id="node31" class="node">
<title>Node0x5ee86084f650</title>
<path fill="#f0f4ff" stroke="black" d="M1059,-964C1059,-964 813,-964 813,-964 807,-964 801,-958 801,-952 801,-952 801,-940 801,-940 801,-934 807,-928 813,-928 813,-928 1059,-928 1059,-928 1065,-928 1071,-934 1071,-940 1071,-940 1071,-952 1071,-952 1071,-958 1065,-964 1059,-964"/>
<text text-anchor="middle" x="936" y="-943.8" font-family="Courier,monospace" font-size="9.00">CIccTagSpectralViewingConditions::setIlluminant()</text>
</g>
<!-- Node0x5ee86084d480&#45;&gt;Node0x5ee86084f650 -->
<g id="edge36" class="edge">
<title>Node0x5ee86084d480&#45;&gt;Node0x5ee86084f650</title>
<path fill="none" stroke="#4a6fa5" d="M670.4,-906.03C714.64,-912.72 764.92,-920.31 809.68,-927.07"/>
<polygon fill="#4a6fa5" stroke="#4a6fa5" points="809.43,-929.16 815.68,-927.98 810.06,-925 809.43,-929.16"/>
</g>
<!-- Node0x5ee86084efb0 -->
<g id="node32" class="node">
<title>Node0x5ee86084efb0</title>
<path fill="#f0f4ff" stroke="black" d="M1025,-906C1025,-906 847,-906 847,-906 841,-906 835,-900 835,-894 835,-894 835,-882 835,-882 835,-876 841,-870 847,-870 847,-870 1025,-870 1025,-870 1031,-870 1037,-876 1037,-882 1037,-882 1037,-894 1037,-894 1037,-900 1031,-906 1025,-906"/>
<text text-anchor="middle" x="936" y="-885.8" font-family="Courier,monospace" font-size="9.00">CIccProfile::calcNormIlluminantXYZ()</text>
</g>
<!-- Node0x5ee86084d480&#45;&gt;Node0x5ee86084efb0 -->
<g id="edge37" class="edge">
<title>Node0x5ee86084d480&#45;&gt;Node0x5ee86084efb0</title>
<path fill="none" stroke="#4a6fa5" d="M714.13,-888C752.94,-888 793.37,-888 828.86,-888"/>
<polygon fill="#4a6fa5" stroke="#4a6fa5" points="828.97,-890.1 834.97,-888 828.97,-885.9 828.97,-890.1"/>
</g>
<!-- Node0x5ee860850b70 -->
<g id="node33" class="node">
<title>Node0x5ee860850b70</title>
<path fill="#f0f4ff" stroke="black" d="M702,-732C702,-732 398,-732 398,-732 392,-732 386,-726 386,-720 386,-720 386,-708 386,-708 386,-702 392,-696 398,-696 398,-696 702,-696 702,-696 708,-696 714,-702 714,-708 714,-708 714,-720 714,-720 714,-726 708,-732 702,-732"/>
<text text-anchor="middle" x="550" y="-711.8" font-family="Courier,monospace" font-size="9.00">CIccCombinedConnectionConditions::~CIccCombinedConnection...</text>
</g>
<!-- Node0x5ee860850b70&#45;&gt;Node0x5ee86084f840 -->
<g id="edge38" class="edge">
<title>Node0x5ee860850b70&#45;&gt;Node0x5ee86084f840</title>
<path fill="none" stroke="#4a6fa5" d="M714.13,-714C731.14,-714 748.46,-714 765.54,-714"/>
<polygon fill="#4a6fa5" stroke="#4a6fa5" points="765.82,-716.1 771.82,-714 765.82,-711.9 765.82,-716.1"/>
</g>
<!-- Node0x5ee860850ac0 -->
<g id="node34" class="node">
<title>Node0x5ee860850ac0</title>
<path fill="#f0f4ff" stroke="black" d="M316,-1196C316,-1196 12,-1196 12,-1196 6,-1196 0,-1190 0,-1184 0,-1184 0,-1172 0,-1172 0,-1166 6,-1160 12,-1160 12,-1160 316,-1160 316,-1160 322,-1160 328,-1166 328,-1172 328,-1172 328,-1184 328,-1184 328,-1190 322,-1196 316,-1196"/>
<text text-anchor="middle" x="164" y="-1175.8" font-family="Courier,monospace" font-size="9.00">CIccCombinedConnectionConditions::~CIccCombinedConnection...</text>
</g>
<!-- Node0x5ee8608502f0 -->
<g id="node35" class="node">
<title>Node0x5ee8608502f0</title>
<path fill="#f0f4ff" stroke="black" d="M313,-1254C313,-1254 15,-1254 15,-1254 9,-1254 3,-1248 3,-1242 3,-1242 3,-1230 3,-1230 3,-1224 9,-1218 15,-1218 15,-1218 313,-1218 313,-1218 319,-1218 325,-1224 325,-1230 325,-1230 325,-1242 325,-1242 325,-1248 319,-1254 313,-1254"/>
<text text-anchor="middle" x="164" y="-1233.8" font-family="Courier,monospace" font-size="9.00">CIccCombinedConnectionConditions::getPccViewingConditions()</text>
</g>
<!-- Node0x5ee860855200 -->
<g id="node36" class="node">
<title>Node0x5ee860855200</title>
<path fill="#f0f4ff" stroke="black" d="M310.5,-1312C310.5,-1312 17.5,-1312 17.5,-1312 11.5,-1312 5.5,-1306 5.5,-1300 5.5,-1300 5.5,-1288 5.5,-1288 5.5,-1282 11.5,-1276 17.5,-1276 17.5,-1276 310.5,-1276 310.5,-1276 316.5,-1276 322.5,-1282 322.5,-1288 322.5,-1288 322.5,-1300 322.5,-1300 322.5,-1306 316.5,-1312 310.5,-1312"/>
<text text-anchor="middle" x="164" y="-1291.8" font-family="Courier,monospace" font-size="9.00">CIccCombinedConnectionConditions::getCustomToStandardPcc()</text>
</g>
<!-- Node0x5ee860856b60 -->
<g id="node37" class="node">
<title>Node0x5ee860856b60</title>
<path fill="#f0f4ff" stroke="black" d="M310.5,-1370C310.5,-1370 17.5,-1370 17.5,-1370 11.5,-1370 5.5,-1364 5.5,-1358 5.5,-1358 5.5,-1346 5.5,-1346 5.5,-1340 11.5,-1334 17.5,-1334 17.5,-1334 310.5,-1334 310.5,-1334 316.5,-1334 322.5,-1340 322.5,-1346 322.5,-1346 322.5,-1358 322.5,-1358 322.5,-1364 316.5,-1370 310.5,-1370"/>
<text text-anchor="middle" x="164" y="-1349.8" font-family="Courier,monospace" font-size="9.00">CIccCombinedConnectionConditions::getStandardToCustomPcc()</text>
</g>
<!-- Node0x5ee8608569d0 -->
<g id="node38" class="node">
<title>Node0x5ee8608569d0</title>
<path fill="#f0f4ff" stroke="black" d="M305.5,-1428C305.5,-1428 22.5,-1428 22.5,-1428 16.5,-1428 10.5,-1422 10.5,-1416 10.5,-1416 10.5,-1404 10.5,-1404 10.5,-1398 16.5,-1392 22.5,-1392 22.5,-1392 305.5,-1392 305.5,-1392 311.5,-1392 317.5,-1398 317.5,-1404 317.5,-1404 317.5,-1416 317.5,-1416 317.5,-1422 311.5,-1428 305.5,-1428"/>
<text text-anchor="middle" x="164" y="-1407.8" font-family="Courier,monospace" font-size="9.00">CIccCombinedConnectionConditions::getNormIlluminantXYZ()</text>
</g>
<!-- Node0x5ee860854ec0 -->
<g id="node39" class="node">
<title>Node0x5ee860854ec0</title>
<path fill="#f0f4ff" stroke="black" d="M302.5,-1486C302.5,-1486 25.5,-1486 25.5,-1486 19.5,-1486 13.5,-1480 13.5,-1474 13.5,-1474 13.5,-1462 13.5,-1462 13.5,-1456 19.5,-1450 25.5,-1450 25.5,-1450 302.5,-1450 302.5,-1450 308.5,-1450 314.5,-1456 314.5,-1462 314.5,-1462 314.5,-1474 314.5,-1474 314.5,-1480 308.5,-1486 302.5,-1486"/>
<text text-anchor="middle" x="164" y="-1465.8" font-family="Courier,monospace" font-size="9.00">CIccCombinedConnectionConditions::getLumIlluminantXYZ()</text>
</g>
<!-- Node0x5ee86083ad80 -->
<g id="node40" class="node">
<title>Node0x5ee86083ad80</title>
<path fill="#f0f4ff" stroke="black" d="M295,-1544C295,-1544 33,-1544 33,-1544 27,-1544 21,-1538 21,-1532 21,-1532 21,-1520 21,-1520 21,-1514 27,-1508 33,-1508 33,-1508 295,-1508 295,-1508 301,-1508 307,-1514 307,-1520 307,-1520 307,-1532 307,-1532 307,-1538 301,-1544 295,-1544"/>
<text text-anchor="middle" x="164" y="-1523.8" font-family="Courier,monospace" font-size="9.00">CIccCombinedConnectionConditions::getMediaWhiteXYZ()</text>
</g>
<!-- Node0x5ee86085a400 -->
<g id="node41" class="node">
<title>Node0x5ee86085a400</title>
<path fill="#f0f4ff" stroke="black" d="M316,-1602C316,-1602 12,-1602 12,-1602 6,-1602 0,-1596 0,-1590 0,-1590 0,-1578 0,-1578 0,-1572 6,-1566 12,-1566 12,-1566 316,-1566 316,-1566 322,-1566 328,-1572 328,-1578 328,-1578 328,-1590 328,-1590 328,-1596 322,-1602 316,-1602"/>
<text text-anchor="middle" x="164" y="-1581.8" font-family="Courier,monospace" font-size="9.00">IIccProfileConnectionConditions::~IIccProfileConnectionCo...</text>
</g>
</g>
</svg>
