<?xml version="1.0" encoding="UTF-8" standalone="no"?>
<!DOCTYPE svg PUBLIC "-//W3C//DTD SVG 1.1//EN"
 "http://www.w3.org/Graphics/SVG/1.1/DTD/svg11.dtd">
<!-- Generated by graphviz version 2.43.0 (0)
 -->
<!-- Title: Call graph: /home/h02332/po/research/call&#45;graph/iccdev/proflib/IccPrmg.ll Pages: 1 -->
<svg width="2649pt" height="14400pt"
 viewBox="0.00 0.00 2649.49 14400.00" xmlns="http://www.w3.org/2000/svg" xmlns:xlink="http://www.w3.org/1999/xlink">
<g id="graph0" class="graph" transform="scale(1.92 1.92) rotate(0) translate(36 7448)">
<title>Call graph: /home/h02332/po/research/call&#45;graph/iccdev/proflib/IccPrmg.ll</title>
<polygon fill="white" stroke="transparent" points="-36,36 -36,-7448 1341,-7448 1341,36 -36,36"/>
<!-- Node0x62e342ec8100 -->
<g id="node1" class="node">
<title>Node0x62e342ec8100</title>
<path fill="#f0f4ff" stroke="black" d="M136.5,-166C136.5,-166 30.5,-166 30.5,-166 24.5,-166 18.5,-160 18.5,-154 18.5,-154 18.5,-142 18.5,-142 18.5,-136 24.5,-130 30.5,-130 30.5,-130 136.5,-130 136.5,-130 142.5,-130 148.5,-136 148.5,-142 148.5,-142 148.5,-154 148.5,-154 148.5,-160 142.5,-166 136.5,-166"/>
<text text-anchor="middle" x="83.5" y="-145.8" font-family="Courier,monospace" font-size="9.00">{CIccPRMG::CIccPRMG()}</text>
</g>
<!-- Node0x62e342f1f550 -->
<g id="node2" class="node">
<title>Node0x62e342f1f550</title>
<path fill="#f0f4ff" stroke="black" d="M1098,-718C1098,-718 987,-718 987,-718 981,-718 975,-712 975,-706 975,-706 975,-694 975,-694 975,-688 981,-682 987,-682 987,-682 1098,-682 1098,-682 1104,-682 1110,-688 1110,-694 1110,-694 1110,-706 1110,-706 1110,-712 1104,-718 1098,-718"/>
<text text-anchor="middle" x="1042.5" y="-697.8" font-family="Courier,monospace" font-size="9.00">{CIccPRMG::GetChroma()}</text>
</g>
<!-- Node0x62e342f1f4c0 -->
<g id="node3" class="node">
<title>Node0x62e342f1f4c0</title>
<path fill="#f0f4ff" stroke="black" d="M1293,-751C1293,-751 1208,-751 1208,-751 1202,-751 1196,-745 1196,-739 1196,-739 1196,-727 1196,-727 1196,-721 1202,-715 1208,-715 1208,-715 1293,-715 1293,-715 1299,-715 1305,-721 1305,-727 1305,-727 1305,-739 1305,-739 1305,-745 1299,-751 1293,-751"/>
<text text-anchor="middle" x="1250.5" y="-730.8" font-family="Courier,monospace" font-size="9.00">{llvm.fmuladd.f32}</text>
</g>
<!-- Node0x62e342f1f550&#45;&gt;Node0x62e342f1f4c0 -->
<g id="edge1" class="edge">
<title>Node0x62e342f1f550&#45;&gt;Node0x62e342f1f4c0</title>
<path fill="none" stroke="#4a6fa5" d="M1110.1,-710.67C1135.35,-714.71 1163.95,-719.29 1188.64,-723.25"/>
<polygon fill="#4a6fa5" stroke="#4a6fa5" points="1188.53,-725.71 1195.83,-724.4 1189.31,-720.88 1188.53,-725.71"/>
</g>
<!-- Node0x62e342f21fe0 -->
<g id="node4" class="node">
<title>Node0x62e342f21fe0</title>
<path fill="#f0f4ff" stroke="black" d="M1274.5,-686C1274.5,-686 1226.5,-686 1226.5,-686 1220.5,-686 1214.5,-680 1214.5,-674 1214.5,-674 1214.5,-662 1214.5,-662 1214.5,-656 1220.5,-650 1226.5,-650 1226.5,-650 1274.5,-650 1274.5,-650 1280.5,-650 1286.5,-656 1286.5,-662 1286.5,-662 1286.5,-674 1286.5,-674 1286.5,-680 1280.5,-686 1274.5,-686"/>
<text text-anchor="middle" x="1250.5" y="-665.8" font-family="Courier,monospace" font-size="9.00">{icClamp()}</text>
</g>
<!-- Node0x62e342f1f550&#45;&gt;Node0x62e342f21fe0 -->
<g id="edge2" class="edge">
<title>Node0x62e342f1f550&#45;&gt;Node0x62e342f21fe0</title>
<path fill="none" stroke="#4a6fa5" d="M1110.1,-689.65C1141.93,-684.71 1179.09,-678.94 1207.03,-674.6"/>
<polygon fill="#4a6fa5" stroke="#4a6fa5" points="1207.75,-676.96 1214.29,-673.47 1207,-672.12 1207.75,-676.96"/>
</g>
<!-- Node0x62e342eac5d0 -->
<g id="node5" class="node">
<title>Node0x62e342eac5d0</title>
<path fill="#f0f4ff" stroke="black" d="M877,-718C877,-718 776,-718 776,-718 770,-718 764,-712 764,-706 764,-706 764,-694 764,-694 764,-688 770,-682 776,-682 776,-682 877,-682 877,-682 883,-682 889,-688 889,-694 889,-694 889,-706 889,-706 889,-712 883,-718 877,-718"/>
<text text-anchor="middle" x="826.5" y="-697.8" font-family="Courier,monospace" font-size="9.00">{CIccPRMG::InGamut()}</text>
</g>
<!-- Node0x62e342eac5d0&#45;&gt;Node0x62e342f1f550 -->
<g id="edge3" class="edge">
<title>Node0x62e342eac5d0&#45;&gt;Node0x62e342f1f550</title>
<path fill="none" stroke="#4a6fa5" d="M889.11,-700C913.6,-700 941.99,-700 967.58,-700"/>
<polygon fill="#4a6fa5" stroke="#4a6fa5" points="967.71,-702.45 974.71,-700 967.71,-697.55 967.71,-702.45"/>
</g>
<!-- Node0x62e342f28d30 -->
<g id="node6" class="node">
<title>Node0x62e342f28d30</title>
<path fill="#f0f4ff" stroke="black" d="M642.5,-686C642.5,-686 541.5,-686 541.5,-686 535.5,-686 529.5,-680 529.5,-674 529.5,-674 529.5,-662 529.5,-662 529.5,-656 535.5,-650 541.5,-650 541.5,-650 642.5,-650 642.5,-650 648.5,-650 654.5,-656 654.5,-662 654.5,-662 654.5,-674 654.5,-674 654.5,-680 648.5,-686 642.5,-686"/>
<text text-anchor="middle" x="592" y="-665.8" font-family="Courier,monospace" font-size="9.00">{CIccPRMG::InGamut()}</text>
</g>
<!-- Node0x62e342f28d30&#45;&gt;Node0x62e342eac5d0 -->
<g id="edge5" class="edge">
<title>Node0x62e342f28d30&#45;&gt;Node0x62e342eac5d0</title>
<path fill="none" stroke="#4a6fa5" d="M654.7,-676.49C686.09,-680.81 724.35,-686.08 756.69,-690.53"/>
<polygon fill="#4a6fa5" stroke="#4a6fa5" points="756.65,-693 763.92,-691.52 757.32,-688.14 756.65,-693"/>
</g>
<!-- Node0x62e342f28a50 -->
<g id="node7" class="node">
<title>Node0x62e342f28a50</title>
<path fill="#f0f4ff" stroke="black" d="M856,-653C856,-653 797,-653 797,-653 791,-653 785,-647 785,-641 785,-641 785,-629 785,-629 785,-623 791,-617 797,-617 797,-617 856,-617 856,-617 862,-617 868,-623 868,-629 868,-629 868,-641 868,-641 868,-647 862,-653 856,-653"/>
<text text-anchor="middle" x="826.5" y="-632.8" font-family="Courier,monospace" font-size="9.00">{icLab2Lch()}</text>
</g>
<!-- Node0x62e342f28d30&#45;&gt;Node0x62e342f28a50 -->
<g id="edge4" class="edge">
<title>Node0x62e342f28d30&#45;&gt;Node0x62e342f28a50</title>
<path fill="none" stroke="#4a6fa5" d="M654.7,-659.24C693.29,-653.77 742.26,-646.82 777.86,-641.76"/>
<polygon fill="#4a6fa5" stroke="#4a6fa5" points="778.21,-644.19 784.79,-640.78 777.52,-639.34 778.21,-644.19"/>
</g>
<!-- Node0x62e342f28620 -->
<g id="node8" class="node">
<title>Node0x62e342f28620</title>
<path fill="#f0f4ff" stroke="black" d="M408,-361C408,-361 265,-361 265,-361 259,-361 253,-355 253,-349 253,-349 253,-337 253,-337 253,-331 259,-325 265,-325 265,-325 408,-325 408,-325 414,-325 420,-331 420,-337 420,-337 420,-349 420,-349 420,-355 414,-361 408,-361"/>
<text text-anchor="middle" x="336.5" y="-340.8" font-family="Courier,monospace" font-size="9.00">{CIccPRMG::EvaluateProfile()}</text>
</g>
<!-- Node0x62e342f28620&#45;&gt;Node0x62e342f28d30 -->
<g id="edge15" class="edge">
<title>Node0x62e342f28620&#45;&gt;Node0x62e342f28d30</title>
<path fill="none" stroke="#4a6fa5" d="M343.12,-361.33C359.63,-412.24 412.78,-556.76 506,-636 511.03,-640.27 516.69,-644.01 522.63,-647.26"/>
<polygon fill="#4a6fa5" stroke="#4a6fa5" points="521.83,-649.6 529.18,-650.6 524.06,-645.24 521.83,-649.6"/>
</g>
<!-- Node0x62e342eac3a0 -->
<g id="node9" class="node">
<title>Node0x62e342eac3a0</title>
<path fill="#f0f4ff" stroke="black" d="M650.5,-621C650.5,-621 533.5,-621 533.5,-621 527.5,-621 521.5,-615 521.5,-609 521.5,-609 521.5,-597 521.5,-597 521.5,-591 527.5,-585 533.5,-585 533.5,-585 650.5,-585 650.5,-585 656.5,-585 662.5,-591 662.5,-597 662.5,-597 662.5,-609 662.5,-609 662.5,-615 656.5,-621 650.5,-621"/>
<text text-anchor="middle" x="592" y="-600.8" font-family="Courier,monospace" font-size="9.00">{CIccProfile::FindTag()}</text>
</g>
<!-- Node0x62e342f28620&#45;&gt;Node0x62e342eac3a0 -->
<g id="edge6" class="edge">
<title>Node0x62e342f28620&#45;&gt;Node0x62e342eac3a0</title>
<path fill="none" stroke="#4a6fa5" d="M346.24,-361.15C367.63,-403.75 426.68,-511.05 506,-571 511.27,-574.98 517.08,-578.51 523.13,-581.64"/>
<polygon fill="#4a6fa5" stroke="#4a6fa5" points="522.4,-584.01 529.76,-584.88 524.55,-579.61 522.4,-584.01"/>
</g>
<!-- Node0x62e342f29bf0 -->
<g id="node10" class="node">
<title>Node0x62e342f29bf0</title>
<path fill="#f0f4ff" stroke="black" d="M666,-556C666,-556 518,-556 518,-556 512,-556 506,-550 506,-544 506,-544 506,-532 506,-532 506,-526 512,-520 518,-520 518,-520 666,-520 666,-520 672,-520 678,-526 678,-532 678,-532 678,-544 678,-544 678,-550 672,-556 666,-556"/>
<text text-anchor="middle" x="592" y="-535.8" font-family="Courier,monospace" font-size="9.00">{CIccTagSignature::GetValue()}</text>
</g>
<!-- Node0x62e342f28620&#45;&gt;Node0x62e342f29bf0 -->
<g id="edge7" class="edge">
<title>Node0x62e342f28620&#45;&gt;Node0x62e342f29bf0</title>
<path fill="none" stroke="#4a6fa5" d="M351.87,-361.15C378.85,-394.15 440.32,-464.41 506,-506 512.43,-510.07 519.45,-513.74 526.61,-517.02"/>
<polygon fill="#4a6fa5" stroke="#4a6fa5" points="525.83,-519.35 533.22,-519.92 527.8,-514.86 525.83,-519.35"/>
</g>
<!-- Node0x62e342f2a070 -->
<g id="node11" class="node">
<title>Node0x62e342f2a070</title>
<path fill="#f0f4ff" stroke="black" d="M640,-491C640,-491 544,-491 544,-491 538,-491 532,-485 532,-479 532,-479 532,-467 532,-467 532,-461 538,-455 544,-455 544,-455 640,-455 640,-455 646,-455 652,-461 652,-467 652,-467 652,-479 652,-479 652,-485 646,-491 640,-491"/>
<text text-anchor="middle" x="592" y="-470.8" font-family="Courier,monospace" font-size="9.00">{CIccCmm::CIccCmm()}</text>
</g>
<!-- Node0x62e342f28620&#45;&gt;Node0x62e342f2a070 -->
<g id="edge8" class="edge">
<title>Node0x62e342f28620&#45;&gt;Node0x62e342f2a070</title>
<path fill="none" stroke="#4a6fa5" d="M365.34,-361.13C398.13,-382.03 454.64,-416.61 506,-441 514.29,-444.94 523.19,-448.73 532.02,-452.26"/>
<polygon fill="#4a6fa5" stroke="#4a6fa5" points="531.32,-454.62 538.73,-454.89 533.11,-450.05 531.32,-454.62"/>
</g>
<!-- Node0x62e342f2a0f0 -->
<g id="node12" class="node">
<title>Node0x62e342f2a0f0</title>
<path fill="#f0f4ff" stroke="black" d="M642.5,-426C642.5,-426 541.5,-426 541.5,-426 535.5,-426 529.5,-420 529.5,-414 529.5,-414 529.5,-402 529.5,-402 529.5,-396 535.5,-390 541.5,-390 541.5,-390 642.5,-390 642.5,-390 648.5,-390 654.5,-396 654.5,-402 654.5,-402 654.5,-414 654.5,-414 654.5,-420 648.5,-426 642.5,-426"/>
<text text-anchor="middle" x="592" y="-405.8" font-family="Courier,monospace" font-size="9.00">{CIccCmm::AddXform()}</text>
</g>
<!-- Node0x62e342f28620&#45;&gt;Node0x62e342f2a0f0 -->
<g id="edge9" class="edge">
<title>Node0x62e342f28620&#45;&gt;Node0x62e342f2a0f0</title>
<path fill="none" stroke="#4a6fa5" d="M407.78,-361.02C443.49,-370.18 486.73,-381.26 522.23,-390.37"/>
<polygon fill="#4a6fa5" stroke="#4a6fa5" points="521.83,-392.79 529.22,-392.16 523.05,-388.05 521.83,-392.79"/>
</g>
<!-- Node0x62e342f29e70 -->
<g id="node13" class="node">
<title>Node0x62e342f29e70</title>
<path fill="#f0f4ff" stroke="black" d="M642.5,-361C642.5,-361 541.5,-361 541.5,-361 535.5,-361 529.5,-355 529.5,-349 529.5,-349 529.5,-337 529.5,-337 529.5,-331 535.5,-325 541.5,-325 541.5,-325 642.5,-325 642.5,-325 648.5,-325 654.5,-331 654.5,-337 654.5,-337 654.5,-349 654.5,-349 654.5,-355 648.5,-361 642.5,-361"/>
<text text-anchor="middle" x="592" y="-340.8" font-family="Courier,monospace" font-size="9.00">{CIccCmm::~CIccCmm()}</text>
</g>
<!-- Node0x62e342f28620&#45;&gt;Node0x62e342f29e70 -->
<g id="edge10" class="edge">
<title>Node0x62e342f28620&#45;&gt;Node0x62e342f29e70</title>
<path fill="none" stroke="#4a6fa5" d="M420.15,-343C453.2,-343 490.81,-343 522.32,-343"/>
<polygon fill="#4a6fa5" stroke="#4a6fa5" points="522.36,-345.45 529.36,-343 522.36,-340.55 522.36,-345.45"/>
</g>
<!-- Node0x62e342f273c0 -->
<g id="node14" class="node">
<title>Node0x62e342f273c0</title>
<path fill="#f0f4ff" stroke="black" d="M619,-296C619,-296 565,-296 565,-296 559,-296 553,-290 553,-284 553,-284 553,-272 553,-272 553,-266 559,-260 565,-260 565,-260 619,-260 619,-260 625,-260 631,-266 631,-272 631,-272 631,-284 631,-284 631,-290 625,-296 619,-296"/>
<text text-anchor="middle" x="592" y="-275.8" font-family="Courier,monospace" font-size="9.00">{icDeltaE()}</text>
</g>
<!-- Node0x62e342f28620&#45;&gt;Node0x62e342f273c0 -->
<g id="edge11" class="edge">
<title>Node0x62e342f28620&#45;&gt;Node0x62e342f273c0</title>
<path fill="none" stroke="#4a6fa5" d="M407.78,-324.98C451.92,-313.66 507.55,-299.4 545.86,-289.57"/>
<polygon fill="#4a6fa5" stroke="#4a6fa5" points="546.64,-291.9 552.81,-287.79 545.42,-287.16 546.64,-291.9"/>
</g>
<!-- Node0x62e342f2a7c0 -->
<g id="node15" class="node">
<title>Node0x62e342f2a7c0</title>
<path fill="#f0f4ff" stroke="black" d="M634.5,-231C634.5,-231 549.5,-231 549.5,-231 543.5,-231 537.5,-225 537.5,-219 537.5,-219 537.5,-207 537.5,-207 537.5,-201 543.5,-195 549.5,-195 549.5,-195 634.5,-195 634.5,-195 640.5,-195 646.5,-201 646.5,-207 646.5,-207 646.5,-219 646.5,-219 646.5,-225 640.5,-231 634.5,-231"/>
<text text-anchor="middle" x="592" y="-210.8" font-family="Courier,monospace" font-size="9.00">{CIccCmm::Begin()}</text>
</g>
<!-- Node0x62e342f28620&#45;&gt;Node0x62e342f2a7c0 -->
<g id="edge12" class="edge">
<title>Node0x62e342f28620&#45;&gt;Node0x62e342f2a7c0</title>
<path fill="none" stroke="#4a6fa5" d="M390.43,-324.98C400.48,-320.87 410.74,-316.16 420,-311 461.85,-287.67 464.16,-269.34 506,-246 513.93,-241.58 522.58,-237.48 531.22,-233.78"/>
<polygon fill="#4a6fa5" stroke="#4a6fa5" points="532.3,-235.99 537.82,-231.03 530.41,-231.46 532.3,-235.99"/>
</g>
<!-- Node0x62e342f2b010 -->
<g id="node16" class="node">
<title>Node0x62e342f2b010</title>
<path fill="#f0f4ff" stroke="black" d="M647.5,-166C647.5,-166 536.5,-166 536.5,-166 530.5,-166 524.5,-160 524.5,-154 524.5,-154 524.5,-142 524.5,-142 524.5,-136 530.5,-130 536.5,-130 536.5,-130 647.5,-130 647.5,-130 653.5,-130 659.5,-136 659.5,-142 659.5,-142 659.5,-154 659.5,-154 659.5,-160 653.5,-166 647.5,-166"/>
<text text-anchor="middle" x="592" y="-145.8" font-family="Courier,monospace" font-size="9.00">{llvm.memcpy.p0.p0.i64}</text>
</g>
<!-- Node0x62e342f28620&#45;&gt;Node0x62e342f2b010 -->
<g id="edge13" class="edge">
<title>Node0x62e342f28620&#45;&gt;Node0x62e342f2b010</title>
<path fill="none" stroke="#4a6fa5" d="M397.62,-324.81C405.58,-320.96 413.3,-316.4 420,-311 473.95,-267.54 452.06,-224.47 506,-181 511.45,-176.6 517.56,-172.74 523.94,-169.36"/>
<polygon fill="#4a6fa5" stroke="#4a6fa5" points="525.22,-171.46 530.38,-166.14 523.03,-167.08 525.22,-171.46"/>
</g>
<!-- Node0x62e342f250e0 -->
<g id="node17" class="node">
<title>Node0x62e342f250e0</title>
<path fill="#f0f4ff" stroke="black" d="M629.5,-101C629.5,-101 554.5,-101 554.5,-101 548.5,-101 542.5,-95 542.5,-89 542.5,-89 542.5,-77 542.5,-77 542.5,-71 548.5,-65 554.5,-65 554.5,-65 629.5,-65 629.5,-65 635.5,-65 641.5,-71 641.5,-77 641.5,-77 641.5,-89 641.5,-89 641.5,-95 635.5,-101 629.5,-101"/>
<text text-anchor="middle" x="592" y="-80.8" font-family="Courier,monospace" font-size="9.00">{icLabFromPcs()}</text>
</g>
<!-- Node0x62e342f28620&#45;&gt;Node0x62e342f250e0 -->
<g id="edge14" class="edge">
<title>Node0x62e342f28620&#45;&gt;Node0x62e342f250e0</title>
<path fill="none" stroke="#4a6fa5" d="M400.17,-324.94C407.39,-321.12 414.22,-316.52 420,-311 488.48,-245.56 437.53,-181.45 506,-116 514.34,-108.03 524.82,-101.92 535.54,-97.26"/>
<polygon fill="#4a6fa5" stroke="#4a6fa5" points="536.67,-99.45 542.24,-94.55 534.83,-94.91 536.67,-99.45"/>
</g>
<!-- Node0x62e342f27280 -->
<g id="node18" class="node">
<title>Node0x62e342f27280</title>
<path fill="#f0f4ff" stroke="black" d="M634.5,-36C634.5,-36 549.5,-36 549.5,-36 543.5,-36 537.5,-30 537.5,-24 537.5,-24 537.5,-12 537.5,-12 537.5,-6 543.5,0 549.5,0 549.5,0 634.5,0 634.5,0 640.5,0 646.5,-6 646.5,-12 646.5,-12 646.5,-24 646.5,-24 646.5,-30 640.5,-36 634.5,-36"/>
<text text-anchor="middle" x="592" y="-15.8" font-family="Courier,monospace" font-size="9.00">{CIccCmm::Apply()}</text>
</g>
<!-- Node0x62e342f28620&#45;&gt;Node0x62e342f27280 -->
<g id="edge16" class="edge">
<title>Node0x62e342f28620&#45;&gt;Node0x62e342f27280</title>
<path fill="none" stroke="#4a6fa5" d="M401.51,-325C408.34,-321.18 414.71,-316.57 420,-311 503.86,-222.79 422.15,-139.23 506,-51 512.91,-43.73 521.61,-38.03 530.79,-33.58"/>
<polygon fill="#4a6fa5" stroke="#4a6fa5" points="531.82,-35.8 537.2,-30.69 529.81,-31.33 531.82,-35.8"/>
</g>
<!-- Node0x62e342f2bda0 -->
<g id="node19" class="node">
<title>Node0x62e342f2bda0</title>
<path fill="#f0f4ff" stroke="black" d="M136.5,-7412C136.5,-7412 30.5,-7412 30.5,-7412 24.5,-7412 18.5,-7406 18.5,-7400 18.5,-7400 18.5,-7388 18.5,-7388 18.5,-7382 24.5,-7376 30.5,-7376 30.5,-7376 136.5,-7376 136.5,-7376 142.5,-7376 148.5,-7382 148.5,-7388 148.5,-7388 148.5,-7400 148.5,-7400 148.5,-7406 142.5,-7412 136.5,-7412"/>
<text text-anchor="middle" x="83.5" y="-7391.8" font-family="Courier,monospace" font-size="9.00">{__gxx_personality_v0}</text>
</g>
<!-- Node0x62e342f2bba0 -->
<g id="node20" class="node">
<title>Node0x62e342f2bba0</title>
<path fill="#f0f4ff" stroke="black" d="M155,-328C155,-328 12,-328 12,-328 6,-328 0,-322 0,-316 0,-316 0,-304 0,-304 0,-298 6,-292 12,-292 12,-292 155,-292 155,-292 161,-292 167,-298 167,-304 167,-304 167,-316 167,-316 167,-322 161,-328 155,-328"/>
<text text-anchor="middle" x="83.5" y="-307.8" font-family="Courier,monospace" font-size="9.00">{CIccPRMG::EvaluateProfile()}</text>
</g>
<!-- Node0x62e342f2bba0&#45;&gt;Node0x62e342f28620 -->
<g id="edge18" class="edge">
<title>Node0x62e342f2bba0&#45;&gt;Node0x62e342f28620</title>
<path fill="none" stroke="#4a6fa5" d="M167.03,-320.85C192.24,-324.17 220.08,-327.82 245.74,-331.2"/>
<polygon fill="#4a6fa5" stroke="#4a6fa5" points="245.66,-333.66 252.92,-332.14 246.3,-328.8 245.66,-333.66"/>
</g>
<!-- Node0x62e342f2b8a0 -->
<g id="node21" class="node">
<title>Node0x62e342f2b8a0</title>
<path fill="#f0f4ff" stroke="black" d="M379,-296C379,-296 294,-296 294,-296 288,-296 282,-290 282,-284 282,-284 282,-272 282,-272 282,-266 288,-260 294,-260 294,-260 379,-260 379,-260 385,-260 391,-266 391,-272 391,-272 391,-284 391,-284 391,-290 385,-296 379,-296"/>
<text text-anchor="middle" x="336.5" y="-275.8" font-family="Courier,monospace" font-size="9.00">{ReadIccProfile()}</text>
</g>
<!-- Node0x62e342f2bba0&#45;&gt;Node0x62e342f2b8a0 -->
<g id="edge17" class="edge">
<title>Node0x62e342f2bba0&#45;&gt;Node0x62e342f2b8a0</title>
<path fill="none" stroke="#4a6fa5" d="M167.03,-299.48C202.1,-295.01 242.26,-289.89 274.57,-285.77"/>
<polygon fill="#4a6fa5" stroke="#4a6fa5" points="275.13,-288.17 281.76,-284.85 274.51,-283.31 275.13,-288.17"/>
</g>
</g>
</svg>
