<?xml version="1.0" encoding="UTF-8" standalone="no"?>
<!DOCTYPE svg PUBLIC "-//W3C//DTD SVG 1.1//EN"
 "http://www.w3.org/Graphics/SVG/1.1/DTD/svg11.dtd">
<!-- Generated by graphviz version 2.43.0 (0)
 -->
<!-- Title: Call graph: /home/h02332/po/research/call&#45;graph/iccdev/proflib/IccPrmg.ll Pages: 1 -->
<svg width="1096pt" height="630pt"
 viewBox="0.00 0.00 1096.20 630.20" xmlns="http://www.w3.org/2000/svg" xmlns:xlink="http://www.w3.org/1999/xlink">
<g id="graph0" class="graph" transform="scale(1 1) rotate(0) translate(21.6 608.6)">
<title>Call graph: /home/h02332/po/research/call&#45;graph/iccdev/proflib/IccPrmg.ll</title>
<polygon fill="white" stroke="transparent" points="-21.6,21.6 -21.6,-608.6 1074.6,-608.6 1074.6,21.6 -21.6,21.6"/>
<!-- Node0x5a5ce0762100 -->
<g id="node1" class="node">
<title>Node0x5a5ce0762100</title>
<path fill="#f0f4ff" stroke="black" d="M124,-210C124,-210 30,-210 30,-210 24,-210 18,-204 18,-198 18,-198 18,-186 18,-186 18,-180 24,-174 30,-174 30,-174 124,-174 124,-174 130,-174 136,-180 136,-186 136,-186 136,-198 136,-198 136,-204 130,-210 124,-210"/>
<text text-anchor="middle" x="77" y="-189.8" font-family="Courier,monospace" font-size="9.00">CIccPRMG::CIccPRMG()</text>
</g>
<!-- Node0x5a5ce07b9550 -->
<g id="node2" class="node">
<title>Node0x5a5ce07b9550</title>
<path fill="#f0f4ff" stroke="black" d="M923,-587C923,-587 824,-587 824,-587 818,-587 812,-581 812,-575 812,-575 812,-563 812,-563 812,-557 818,-551 824,-551 824,-551 923,-551 923,-551 929,-551 935,-557 935,-563 935,-563 935,-575 935,-575 935,-581 929,-587 923,-587"/>
<text text-anchor="middle" x="873.5" y="-566.8" font-family="Courier,monospace" font-size="9.00">CIccPRMG::GetChroma()</text>
</g>
<!-- Node0x5a5ce07bbfe0 -->
<g id="node3" class="node">
<title>Node0x5a5ce07bbfe0</title>
<path fill="#f0f4ff" stroke="black" d="M1041,-587C1041,-587 1005,-587 1005,-587 999,-587 993,-581 993,-575 993,-575 993,-563 993,-563 993,-557 999,-551 1005,-551 1005,-551 1041,-551 1041,-551 1047,-551 1053,-557 1053,-563 1053,-563 1053,-575 1053,-575 1053,-581 1047,-587 1041,-587"/>
<text text-anchor="middle" x="1023" y="-566.8" font-family="Courier,monospace" font-size="9.00">icClamp()</text>
</g>
<!-- Node0x5a5ce07b9550&#45;&gt;Node0x5a5ce07bbfe0 -->
<g id="edge1" class="edge">
<title>Node0x5a5ce07b9550&#45;&gt;Node0x5a5ce07bbfe0</title>
<path fill="none" stroke="#4a6fa5" d="M935.35,-569C952.7,-569 971.05,-569 986.37,-569"/>
<polygon fill="#4a6fa5" stroke="#4a6fa5" points="986.73,-571.1 992.73,-569 986.73,-566.9 986.73,-571.1"/>
</g>
<!-- Node0x5a5ce07465d0 -->
<g id="node4" class="node">
<title>Node0x5a5ce07465d0</title>
<path fill="#f0f4ff" stroke="black" d="M742,-587C742,-587 654,-587 654,-587 648,-587 642,-581 642,-575 642,-575 642,-563 642,-563 642,-557 648,-551 654,-551 654,-551 742,-551 742,-551 748,-551 754,-557 754,-563 754,-563 754,-575 754,-575 754,-581 748,-587 742,-587"/>
<text text-anchor="middle" x="698" y="-566.8" font-family="Courier,monospace" font-size="9.00">CIccPRMG::InGamut()</text>
</g>
<!-- Node0x5a5ce07465d0&#45;&gt;Node0x5a5ce07b9550 -->
<g id="edge2" class="edge">
<title>Node0x5a5ce07465d0&#45;&gt;Node0x5a5ce07b9550</title>
<path fill="none" stroke="#4a6fa5" d="M754.37,-569C770.71,-569 788.77,-569 805.75,-569"/>
<polygon fill="#4a6fa5" stroke="#4a6fa5" points="805.95,-571.1 811.95,-569 805.95,-566.9 805.95,-571.1"/>
</g>
<!-- Node0x5a5ce07c2d30 -->
<g id="node5" class="node">
<title>Node0x5a5ce07c2d30</title>
<path fill="#f0f4ff" stroke="black" d="M548,-558C548,-558 460,-558 460,-558 454,-558 448,-552 448,-546 448,-546 448,-534 448,-534 448,-528 454,-522 460,-522 460,-522 548,-522 548,-522 554,-522 560,-528 560,-534 560,-534 560,-546 560,-546 560,-552 554,-558 548,-558"/>
<text text-anchor="middle" x="504" y="-537.8" font-family="Courier,monospace" font-size="9.00">CIccPRMG::InGamut()</text>
</g>
<!-- Node0x5a5ce07c2d30&#45;&gt;Node0x5a5ce07465d0 -->
<g id="edge4" class="edge">
<title>Node0x5a5ce07c2d30&#45;&gt;Node0x5a5ce07465d0</title>
<path fill="none" stroke="#4a6fa5" d="M560.02,-548.31C583.72,-551.89 611.52,-556.09 635.86,-559.77"/>
<polygon fill="#4a6fa5" stroke="#4a6fa5" points="635.73,-561.87 641.97,-560.69 636.35,-557.72 635.73,-561.87"/>
</g>
<!-- Node0x5a5ce07c2a50 -->
<g id="node6" class="node">
<title>Node0x5a5ce07c2a50</title>
<path fill="#f0f4ff" stroke="black" d="M721,-529C721,-529 675,-529 675,-529 669,-529 663,-523 663,-517 663,-517 663,-505 663,-505 663,-499 669,-493 675,-493 675,-493 721,-493 721,-493 727,-493 733,-499 733,-505 733,-505 733,-517 733,-517 733,-523 727,-529 721,-529"/>
<text text-anchor="middle" x="698" y="-508.8" font-family="Courier,monospace" font-size="9.00">icLab2Lch()</text>
</g>
<!-- Node0x5a5ce07c2d30&#45;&gt;Node0x5a5ce07c2a50 -->
<g id="edge3" class="edge">
<title>Node0x5a5ce07c2d30&#45;&gt;Node0x5a5ce07c2a50</title>
<path fill="none" stroke="#4a6fa5" d="M560.02,-531.69C590.82,-527.04 628.56,-521.34 656.61,-517.1"/>
<polygon fill="#4a6fa5" stroke="#4a6fa5" points="657.19,-519.14 662.81,-516.16 656.56,-514.98 657.19,-519.14"/>
</g>
<!-- Node0x5a5ce07c2620 -->
<g id="node7" class="node">
<title>Node0x5a5ce07c2620</title>
<path fill="#f0f4ff" stroke="black" d="M354,-297C354,-297 224,-297 224,-297 218,-297 212,-291 212,-285 212,-285 212,-273 212,-273 212,-267 218,-261 224,-261 224,-261 354,-261 354,-261 360,-261 366,-267 366,-273 366,-273 366,-285 366,-285 366,-291 360,-297 354,-297"/>
<text text-anchor="middle" x="289" y="-276.8" font-family="Courier,monospace" font-size="9.00">CIccPRMG::EvaluateProfile()</text>
</g>
<!-- Node0x5a5ce07c2620&#45;&gt;Node0x5a5ce07c2d30 -->
<g id="edge13" class="edge">
<title>Node0x5a5ce07c2620&#45;&gt;Node0x5a5ce07c2d30</title>
<path fill="none" stroke="#4a6fa5" d="M295.67,-297.22C310.03,-340.49 351.92,-450.36 424,-511 429.42,-515.56 435.61,-519.43 442.09,-522.71"/>
<polygon fill="#4a6fa5" stroke="#4a6fa5" points="441.28,-524.64 447.6,-525.33 443.08,-520.85 441.28,-524.64"/>
</g>
<!-- Node0x5a5ce07463a0 -->
<g id="node8" class="node">
<title>Node0x5a5ce07463a0</title>
<path fill="#f0f4ff" stroke="black" d="M556,-500C556,-500 452,-500 452,-500 446,-500 440,-494 440,-488 440,-488 440,-476 440,-476 440,-470 446,-464 452,-464 452,-464 556,-464 556,-464 562,-464 568,-470 568,-476 568,-476 568,-488 568,-488 568,-494 562,-500 556,-500"/>
<text text-anchor="middle" x="504" y="-479.8" font-family="Courier,monospace" font-size="9.00">CIccProfile::FindTag()</text>
</g>
<!-- Node0x5a5ce07c2620&#45;&gt;Node0x5a5ce07463a0 -->
<g id="edge5" class="edge">
<title>Node0x5a5ce07c2620&#45;&gt;Node0x5a5ce07463a0</title>
<path fill="none" stroke="#4a6fa5" d="M299.43,-297.24C318.4,-332.27 364.52,-409.34 424,-453 428.06,-455.98 432.47,-458.69 437.04,-461.14"/>
<polygon fill="#4a6fa5" stroke="#4a6fa5" points="436.19,-463.06 442.49,-463.89 438.08,-459.31 436.19,-463.06"/>
</g>
<!-- Node0x5a5ce07c3bf0 -->
<g id="node9" class="node">
<title>Node0x5a5ce07c3bf0</title>
<path fill="#f0f4ff" stroke="black" d="M572,-442C572,-442 436,-442 436,-442 430,-442 424,-436 424,-430 424,-430 424,-418 424,-418 424,-412 430,-406 436,-406 436,-406 572,-406 572,-406 578,-406 584,-412 584,-418 584,-418 584,-430 584,-430 584,-436 578,-442 572,-442"/>
<text text-anchor="middle" x="504" y="-421.8" font-family="Courier,monospace" font-size="9.00">CIccTagSignature::GetValue()</text>
</g>
<!-- Node0x5a5ce07c2620&#45;&gt;Node0x5a5ce07c3bf0 -->
<g id="edge6" class="edge">
<title>Node0x5a5ce07c2620&#45;&gt;Node0x5a5ce07c3bf0</title>
<path fill="none" stroke="#4a6fa5" d="M307,-297.42C330.99,-322.48 377.08,-367.34 424,-395 429.19,-398.06 434.76,-400.89 440.45,-403.48"/>
<polygon fill="#4a6fa5" stroke="#4a6fa5" points="439.84,-405.5 446.17,-405.99 441.52,-401.65 439.84,-405.5"/>
</g>
<!-- Node0x5a5ce07c4070 -->
<g id="node10" class="node">
<title>Node0x5a5ce07c4070</title>
<path fill="#f0f4ff" stroke="black" d="M545.5,-384C545.5,-384 462.5,-384 462.5,-384 456.5,-384 450.5,-378 450.5,-372 450.5,-372 450.5,-360 450.5,-360 450.5,-354 456.5,-348 462.5,-348 462.5,-348 545.5,-348 545.5,-348 551.5,-348 557.5,-354 557.5,-360 557.5,-360 557.5,-372 557.5,-372 557.5,-378 551.5,-384 545.5,-384"/>
<text text-anchor="middle" x="504" y="-363.8" font-family="Courier,monospace" font-size="9.00">CIccCmm::CIccCmm()</text>
</g>
<!-- Node0x5a5ce07c2620&#45;&gt;Node0x5a5ce07c4070 -->
<g id="edge7" class="edge">
<title>Node0x5a5ce07c2620&#45;&gt;Node0x5a5ce07c4070</title>
<path fill="none" stroke="#4a6fa5" d="M330.21,-297.11C356.69,-308.87 392.22,-324.3 424,-337 431.24,-339.89 438.9,-342.84 446.49,-345.7"/>
<polygon fill="#4a6fa5" stroke="#4a6fa5" points="445.91,-347.72 452.26,-347.86 447.38,-343.79 445.91,-347.72"/>
</g>
<!-- Node0x5a5ce07c40f0 -->
<g id="node11" class="node">
<title>Node0x5a5ce07c40f0</title>
<path fill="#f0f4ff" stroke="black" d="M548,-326C548,-326 460,-326 460,-326 454,-326 448,-320 448,-314 448,-314 448,-302 448,-302 448,-296 454,-290 460,-290 460,-290 548,-290 548,-290 554,-290 560,-296 560,-302 560,-302 560,-314 560,-314 560,-320 554,-326 548,-326"/>
<text text-anchor="middle" x="504" y="-305.8" font-family="Courier,monospace" font-size="9.00">CIccCmm::AddXform()</text>
</g>
<!-- Node0x5a5ce07c2620&#45;&gt;Node0x5a5ce07c40f0 -->
<g id="edge8" class="edge">
<title>Node0x5a5ce07c2620&#45;&gt;Node0x5a5ce07c40f0</title>
<path fill="none" stroke="#4a6fa5" d="M366.3,-289.39C391.06,-292.76 418.2,-296.45 441.73,-299.66"/>
<polygon fill="#4a6fa5" stroke="#4a6fa5" points="441.71,-301.78 447.94,-300.5 442.28,-297.61 441.71,-301.78"/>
</g>
<!-- Node0x5a5ce07c3e70 -->
<g id="node12" class="node">
<title>Node0x5a5ce07c3e70</title>
<path fill="#f0f4ff" stroke="black" d="M548,-268C548,-268 460,-268 460,-268 454,-268 448,-262 448,-256 448,-256 448,-244 448,-244 448,-238 454,-232 460,-232 460,-232 548,-232 548,-232 554,-232 560,-238 560,-244 560,-244 560,-256 560,-256 560,-262 554,-268 548,-268"/>
<text text-anchor="middle" x="504" y="-247.8" font-family="Courier,monospace" font-size="9.00">CIccCmm::~CIccCmm()</text>
</g>
<!-- Node0x5a5ce07c2620&#45;&gt;Node0x5a5ce07c3e70 -->
<g id="edge9" class="edge">
<title>Node0x5a5ce07c2620&#45;&gt;Node0x5a5ce07c3e70</title>
<path fill="none" stroke="#4a6fa5" d="M366.3,-268.61C391.06,-265.24 418.2,-261.55 441.73,-258.34"/>
<polygon fill="#4a6fa5" stroke="#4a6fa5" points="442.28,-260.39 447.94,-257.5 441.71,-256.22 442.28,-260.39"/>
</g>
<!-- Node0x5a5ce07c13c0 -->
<g id="node13" class="node">
<title>Node0x5a5ce07c13c0</title>
<path fill="#f0f4ff" stroke="black" d="M524.5,-210C524.5,-210 483.5,-210 483.5,-210 477.5,-210 471.5,-204 471.5,-198 471.5,-198 471.5,-186 471.5,-186 471.5,-180 477.5,-174 483.5,-174 483.5,-174 524.5,-174 524.5,-174 530.5,-174 536.5,-180 536.5,-186 536.5,-186 536.5,-198 536.5,-198 536.5,-204 530.5,-210 524.5,-210"/>
<text text-anchor="middle" x="504" y="-189.8" font-family="Courier,monospace" font-size="9.00">icDeltaE()</text>
</g>
<!-- Node0x5a5ce07c2620&#45;&gt;Node0x5a5ce07c13c0 -->
<g id="edge10" class="edge">
<title>Node0x5a5ce07c2620&#45;&gt;Node0x5a5ce07c13c0</title>
<path fill="none" stroke="#4a6fa5" d="M339.35,-260.99C348.28,-257.49 357.47,-253.75 366,-250 392.38,-238.4 397.54,-232.43 424,-221 437.26,-215.27 452.06,-209.64 465.23,-204.89"/>
<polygon fill="#4a6fa5" stroke="#4a6fa5" points="466.22,-206.77 471.16,-202.77 464.8,-202.82 466.22,-206.77"/>
</g>
<!-- Node0x5a5ce07c47c0 -->
<g id="node14" class="node">
<title>Node0x5a5ce07c47c0</title>
<path fill="#f0f4ff" stroke="black" d="M540.5,-152C540.5,-152 467.5,-152 467.5,-152 461.5,-152 455.5,-146 455.5,-140 455.5,-140 455.5,-128 455.5,-128 455.5,-122 461.5,-116 467.5,-116 467.5,-116 540.5,-116 540.5,-116 546.5,-116 552.5,-122 552.5,-128 552.5,-128 552.5,-140 552.5,-140 552.5,-146 546.5,-152 540.5,-152"/>
<text text-anchor="middle" x="504" y="-131.8" font-family="Courier,monospace" font-size="9.00">CIccCmm::Begin()</text>
</g>
<!-- Node0x5a5ce07c2620&#45;&gt;Node0x5a5ce07c47c0 -->
<g id="edge11" class="edge">
<title>Node0x5a5ce07c2620&#45;&gt;Node0x5a5ce07c47c0</title>
<path fill="none" stroke="#4a6fa5" d="M348.88,-260.85C354.97,-257.74 360.81,-254.14 366,-250 402.32,-221.01 387.5,-191.76 424,-163 431.6,-157.01 440.56,-152.18 449.66,-148.31"/>
<polygon fill="#4a6fa5" stroke="#4a6fa5" points="450.56,-150.21 455.34,-146.02 448.99,-146.31 450.56,-150.21"/>
</g>
<!-- Node0x5a5ce07bf0e0 -->
<g id="node15" class="node">
<title>Node0x5a5ce07bf0e0</title>
<path fill="#f0f4ff" stroke="black" d="M535,-94C535,-94 473,-94 473,-94 467,-94 461,-88 461,-82 461,-82 461,-70 461,-70 461,-64 467,-58 473,-58 473,-58 535,-58 535,-58 541,-58 547,-64 547,-70 547,-70 547,-82 547,-82 547,-88 541,-94 535,-94"/>
<text text-anchor="middle" x="504" y="-73.8" font-family="Courier,monospace" font-size="9.00">icLabFromPcs()</text>
</g>
<!-- Node0x5a5ce07c2620&#45;&gt;Node0x5a5ce07bf0e0 -->
<g id="edge12" class="edge">
<title>Node0x5a5ce07c2620&#45;&gt;Node0x5a5ce07bf0e0</title>
<path fill="none" stroke="#4a6fa5" d="M351.67,-260.81C356.89,-257.74 361.77,-254.16 366,-250 415.47,-201.31 374.22,-153.37 424,-105 432.57,-96.68 443.72,-90.71 454.93,-86.45"/>
<polygon fill="#4a6fa5" stroke="#4a6fa5" points="455.83,-88.36 460.78,-84.37 454.43,-84.4 455.83,-88.36"/>
</g>
<!-- Node0x5a5ce07c1280 -->
<g id="node16" class="node">
<title>Node0x5a5ce07c1280</title>
<path fill="#f0f4ff" stroke="black" d="M540.5,-36C540.5,-36 467.5,-36 467.5,-36 461.5,-36 455.5,-30 455.5,-24 455.5,-24 455.5,-12 455.5,-12 455.5,-6 461.5,0 467.5,0 467.5,0 540.5,0 540.5,0 546.5,0 552.5,-6 552.5,-12 552.5,-12 552.5,-24 552.5,-24 552.5,-30 546.5,-36 540.5,-36"/>
<text text-anchor="middle" x="504" y="-15.8" font-family="Courier,monospace" font-size="9.00">CIccCmm::Apply()</text>
</g>
<!-- Node0x5a5ce07c2620&#45;&gt;Node0x5a5ce07c1280 -->
<g id="edge14" class="edge">
<title>Node0x5a5ce07c2620&#45;&gt;Node0x5a5ce07c1280</title>
<path fill="none" stroke="#4a6fa5" d="M352.86,-260.79C357.7,-257.73 362.18,-254.16 366,-250 429.43,-180.85 360.13,-115.74 424,-47 430.98,-39.48 440.08,-33.91 449.6,-29.78"/>
<polygon fill="#4a6fa5" stroke="#4a6fa5" points="450.46,-31.69 455.25,-27.51 448.9,-27.8 450.46,-31.69"/>
</g>
<!-- Node0x5a5ce07c5ba0 -->
<g id="node17" class="node">
<title>Node0x5a5ce07c5ba0</title>
<path fill="#f0f4ff" stroke="black" d="M142,-268C142,-268 12,-268 12,-268 6,-268 0,-262 0,-256 0,-256 0,-244 0,-244 0,-238 6,-232 12,-232 12,-232 142,-232 142,-232 148,-232 154,-238 154,-244 154,-244 154,-256 154,-256 154,-262 148,-268 142,-268"/>
<text text-anchor="middle" x="77" y="-247.8" font-family="Courier,monospace" font-size="9.00">CIccPRMG::EvaluateProfile()</text>
</g>
<!-- Node0x5a5ce07c5ba0&#45;&gt;Node0x5a5ce07c2620 -->
<g id="edge16" class="edge">
<title>Node0x5a5ce07c5ba0&#45;&gt;Node0x5a5ce07c2620</title>
<path fill="none" stroke="#4a6fa5" d="M154.11,-260.51C170.84,-262.82 188.63,-265.28 205.59,-267.62"/>
<polygon fill="#4a6fa5" stroke="#4a6fa5" points="205.56,-269.74 211.8,-268.48 206.14,-265.58 205.56,-269.74"/>
</g>
<!-- Node0x5a5ce07c58a0 -->
<g id="node18" class="node">
<title>Node0x5a5ce07c58a0</title>
<path fill="#f0f4ff" stroke="black" d="M325.5,-239C325.5,-239 252.5,-239 252.5,-239 246.5,-239 240.5,-233 240.5,-227 240.5,-227 240.5,-215 240.5,-215 240.5,-209 246.5,-203 252.5,-203 252.5,-203 325.5,-203 325.5,-203 331.5,-203 337.5,-209 337.5,-215 337.5,-215 337.5,-227 337.5,-227 337.5,-233 331.5,-239 325.5,-239"/>
<text text-anchor="middle" x="289" y="-218.8" font-family="Courier,monospace" font-size="9.00">ReadIccProfile()</text>
</g>
<!-- Node0x5a5ce07c5ba0&#45;&gt;Node0x5a5ce07c58a0 -->
<g id="edge15" class="edge">
<title>Node0x5a5ce07c5ba0&#45;&gt;Node0x5a5ce07c58a0</title>
<path fill="none" stroke="#4a6fa5" d="M154.11,-239.49C180.62,-235.83 209.8,-231.8 234.13,-228.44"/>
<polygon fill="#4a6fa5" stroke="#4a6fa5" points="234.55,-230.5 240.21,-227.6 233.97,-226.34 234.55,-230.5"/>
</g>
</g>
</svg>
