<?xml version="1.0" encoding="UTF-8" standalone="no"?>
<!DOCTYPE svg PUBLIC "-//W3C//DTD SVG 1.1//EN"
 "http://www.w3.org/Graphics/SVG/1.1/DTD/svg11.dtd">
<!-- Generated by graphviz version 2.43.0 (0)
 -->
<!-- Title: Call graph: /home/h02332/po/research/call&#45;graph/iccdev/proflib/IccPcc.ll Pages: 1 -->
<svg width="1392pt" height="14400pt"
 viewBox="0.00 0.00 1391.62 14400.00" xmlns="http://www.w3.org/2000/svg" xmlns:xlink="http://www.w3.org/1999/xlink">
<g id="graph0" class="graph" transform="scale(1 1) rotate(0) translate(36 14399)">
<title>Call graph: /home/h02332/po/research/call&#45;graph/iccdev/proflib/IccPcc.ll</title>
<polygon fill="white" stroke="transparent" points="-36,36 -36,-14399 1359,-14399 1359,36 -36,36"/>
<!-- Node0x5affe5fcac20 -->
<g id="node1" class="node">
<title>Node0x5affe5fcac20</title>
<path fill="#f0f4ff" stroke="black" d="M325.5,-1328C325.5,-1328 61.5,-1328 61.5,-1328 55.5,-1328 49.5,-1322 49.5,-1316 49.5,-1316 49.5,-1304 49.5,-1304 49.5,-1298 55.5,-1292 61.5,-1292 61.5,-1292 325.5,-1292 325.5,-1292 331.5,-1292 337.5,-1298 337.5,-1304 337.5,-1304 337.5,-1316 337.5,-1316 337.5,-1322 331.5,-1328 325.5,-1328"/>
<text text-anchor="middle" x="193.5" y="-1307.8" font-family="Courier,monospace" font-size="9.00">{IIccProfileConnectionConditions::isEquivalentPcc()}</text>
</g>
<!-- Node0x5affe5ef3d30 -->
<g id="node2" class="node">
<title>Node0x5affe5ef3d30</title>
<path fill="#f0f4ff" stroke="black" d="M801,-1515C801,-1515 532,-1515 532,-1515 526,-1515 520,-1509 520,-1503 520,-1503 520,-1491 520,-1491 520,-1485 526,-1479 532,-1479 532,-1479 801,-1479 801,-1479 807,-1479 813,-1485 813,-1491 813,-1491 813,-1503 813,-1503 813,-1509 807,-1515 801,-1515"/>
<text text-anchor="middle" x="666.5" y="-1494.8" font-family="Courier,monospace" font-size="9.00">{IIccProfileConnectionConditions::getPccIlluminant()}</text>
</g>
<!-- Node0x5affe5fcac20&#45;&gt;Node0x5affe5ef3d30 -->
<g id="edge1" class="edge">
<title>Node0x5affe5fcac20&#45;&gt;Node0x5affe5ef3d30</title>
<path fill="none" stroke="#4a6fa5" d="M240.09,-1328.1C328.02,-1363.01 520.53,-1439.44 613.38,-1476.31"/>
<polygon fill="#4a6fa5" stroke="#4a6fa5" points="612.48,-1478.58 619.89,-1478.89 614.28,-1474.03 612.48,-1478.58"/>
</g>
<!-- Node0x5affe5fc20a0 -->
<g id="node3" class="node">
<title>Node0x5affe5fc20a0</title>
<path fill="#f0f4ff" stroke="black" d="M795.5,-1580C795.5,-1580 537.5,-1580 537.5,-1580 531.5,-1580 525.5,-1574 525.5,-1568 525.5,-1568 525.5,-1556 525.5,-1556 525.5,-1550 531.5,-1544 537.5,-1544 537.5,-1544 795.5,-1544 795.5,-1544 801.5,-1544 807.5,-1550 807.5,-1556 807.5,-1556 807.5,-1568 807.5,-1568 807.5,-1574 801.5,-1580 795.5,-1580"/>
<text text-anchor="middle" x="666.5" y="-1559.8" font-family="Courier,monospace" font-size="9.00">{IIccProfileConnectionConditions::getPccObserver()}</text>
</g>
<!-- Node0x5affe5fcac20&#45;&gt;Node0x5affe5fc20a0 -->
<g id="edge2" class="edge">
<title>Node0x5affe5fcac20&#45;&gt;Node0x5affe5fc20a0</title>
<path fill="none" stroke="#4a6fa5" d="M214.79,-1328.26C268.59,-1376.28 414.68,-1504.19 473,-1530 487.24,-1536.3 502.57,-1541.37 518.14,-1545.45"/>
<polygon fill="#4a6fa5" stroke="#4a6fa5" points="517.92,-1547.92 525.31,-1547.25 519.12,-1543.17 517.92,-1547.92"/>
</g>
<!-- Node0x5affe5fd12c0 -->
<g id="node4" class="node">
<title>Node0x5affe5fd12c0</title>
<path fill="#f0f4ff" stroke="black" d="M801,-1141C801,-1141 532,-1141 532,-1141 526,-1141 520,-1135 520,-1129 520,-1129 520,-1117 520,-1117 520,-1111 526,-1105 532,-1105 532,-1105 801,-1105 801,-1105 807,-1105 813,-1111 813,-1117 813,-1117 813,-1129 813,-1129 813,-1135 807,-1141 801,-1141"/>
<text text-anchor="middle" x="666.5" y="-1120.8" font-family="Courier,monospace" font-size="9.00">{IIccProfileConnectionConditions::hasIlluminantSPD()}</text>
</g>
<!-- Node0x5affe5fcac20&#45;&gt;Node0x5affe5fd12c0 -->
<g id="edge3" class="edge">
<title>Node0x5affe5fcac20&#45;&gt;Node0x5affe5fd12c0</title>
<path fill="none" stroke="#4a6fa5" d="M220.36,-1291.76C267.96,-1259.11 373.68,-1190.85 473,-1156 487.98,-1150.74 503.91,-1146.31 519.96,-1142.57"/>
<polygon fill="#4a6fa5" stroke="#4a6fa5" points="520.56,-1144.94 526.84,-1141 519.47,-1140.16 520.56,-1144.94"/>
</g>
<!-- Node0x5affe5ef3e50 -->
<g id="node5" class="node">
<title>Node0x5affe5ef3e50</title>
<path fill="#f0f4ff" stroke="black" d="M782.5,-1206C782.5,-1206 550.5,-1206 550.5,-1206 544.5,-1206 538.5,-1200 538.5,-1194 538.5,-1194 538.5,-1182 538.5,-1182 538.5,-1176 544.5,-1170 550.5,-1170 550.5,-1170 782.5,-1170 782.5,-1170 788.5,-1170 794.5,-1176 794.5,-1182 794.5,-1182 794.5,-1194 794.5,-1194 794.5,-1200 788.5,-1206 782.5,-1206"/>
<text text-anchor="middle" x="666.5" y="-1185.8" font-family="Courier,monospace" font-size="9.00">{IIccProfileConnectionConditions::getPccCCT()}</text>
</g>
<!-- Node0x5affe5fcac20&#45;&gt;Node0x5affe5ef3e50 -->
<g id="edge4" class="edge">
<title>Node0x5affe5fcac20&#45;&gt;Node0x5affe5ef3e50</title>
<path fill="none" stroke="#4a6fa5" d="M243.71,-1291.97C298.9,-1272.29 391.39,-1240.93 473,-1221 493.81,-1215.92 516.06,-1211.34 537.79,-1207.31"/>
<polygon fill="#4a6fa5" stroke="#4a6fa5" points="538.38,-1209.7 544.82,-1206.03 537.5,-1204.88 538.38,-1209.7"/>
</g>
<!-- Node0x5affe5fd2520 -->
<g id="node6" class="node">
<title>Node0x5affe5fd2520</title>
<path fill="#f0f4ff" stroke="black" d="M1269,-1661C1269,-1661 1000,-1661 1000,-1661 994,-1661 988,-1655 988,-1649 988,-1649 988,-1637 988,-1637 988,-1631 994,-1625 1000,-1625 1000,-1625 1269,-1625 1269,-1625 1275,-1625 1281,-1631 1281,-1637 1281,-1637 1281,-1649 1281,-1649 1281,-1655 1275,-1661 1269,-1661"/>
<text text-anchor="middle" x="1134.5" y="-1640.8" font-family="Courier,monospace" font-size="9.00">{CIccTagSpectralViewingConditions::getStdIllumiant()}</text>
</g>
<!-- Node0x5affe5ef3d30&#45;&gt;Node0x5affe5fd2520 -->
<g id="edge5" class="edge">
<title>Node0x5affe5ef3d30&#45;&gt;Node0x5affe5fd2520</title>
<path fill="none" stroke="#4a6fa5" d="M813.14,-1512.5C829.4,-1516.98 845.36,-1522.7 860,-1530 906.99,-1553.43 899,-1587.58 946,-1611 957.1,-1616.53 968.97,-1621.13 981.16,-1624.94"/>
<polygon fill="#4a6fa5" stroke="#4a6fa5" points="980.55,-1627.32 987.96,-1626.98 981.96,-1622.62 980.55,-1627.32"/>
</g>
<!-- Node0x5affe5fd3090 -->
<g id="node7" class="node">
<title>Node0x5affe5fd3090</title>
<path fill="#f0f4ff" stroke="black" d="M1266.5,-1726C1266.5,-1726 1002.5,-1726 1002.5,-1726 996.5,-1726 990.5,-1720 990.5,-1714 990.5,-1714 990.5,-1702 990.5,-1702 990.5,-1696 996.5,-1690 1002.5,-1690 1002.5,-1690 1266.5,-1690 1266.5,-1690 1272.5,-1690 1278.5,-1696 1278.5,-1702 1278.5,-1702 1278.5,-1714 1278.5,-1714 1278.5,-1720 1272.5,-1726 1266.5,-1726"/>
<text text-anchor="middle" x="1134.5" y="-1705.8" font-family="Courier,monospace" font-size="9.00">{CIccTagSpectralViewingConditions::getStdObserver()}</text>
</g>
<!-- Node0x5affe5fc20a0&#45;&gt;Node0x5affe5fd3090 -->
<g id="edge6" class="edge">
<title>Node0x5affe5fc20a0&#45;&gt;Node0x5affe5fd3090</title>
<path fill="none" stroke="#4a6fa5" d="M704.41,-1580.17C756.88,-1605.29 856.6,-1650.41 946,-1676 962.75,-1680.79 980.55,-1684.97 998.27,-1688.58"/>
<polygon fill="#4a6fa5" stroke="#4a6fa5" points="997.97,-1691.02 1005.32,-1689.99 998.93,-1686.21 997.97,-1691.02"/>
</g>
<!-- Node0x5affe5fd3a40 -->
<g id="node9" class="node">
<title>Node0x5affe5fd3a40</title>
<path fill="#f0f4ff" stroke="black" d="M1263.5,-1141C1263.5,-1141 1005.5,-1141 1005.5,-1141 999.5,-1141 993.5,-1135 993.5,-1129 993.5,-1129 993.5,-1117 993.5,-1117 993.5,-1111 999.5,-1105 1005.5,-1105 1005.5,-1105 1263.5,-1105 1263.5,-1105 1269.5,-1105 1275.5,-1111 1275.5,-1117 1275.5,-1117 1275.5,-1129 1275.5,-1129 1275.5,-1135 1269.5,-1141 1263.5,-1141"/>
<text text-anchor="middle" x="1134.5" y="-1120.8" font-family="Courier,monospace" font-size="9.00">{CIccTagSpectralViewingConditions::getIlluminant()}</text>
</g>
<!-- Node0x5affe5fd12c0&#45;&gt;Node0x5affe5fd3a40 -->
<g id="edge8" class="edge">
<title>Node0x5affe5fd12c0&#45;&gt;Node0x5affe5fd3a40</title>
<path fill="none" stroke="#4a6fa5" d="M813.03,-1123C868.22,-1123 931.07,-1123 986.4,-1123"/>
<polygon fill="#4a6fa5" stroke="#4a6fa5" points="986.46,-1125.45 993.46,-1123 986.46,-1120.55 986.46,-1125.45"/>
</g>
<!-- Node0x5affe5ef0b30 -->
<g id="node8" class="node">
<title>Node0x5affe5ef0b30</title>
<path fill="#f0f4ff" stroke="black" d="M1271.5,-1206C1271.5,-1206 997.5,-1206 997.5,-1206 991.5,-1206 985.5,-1200 985.5,-1194 985.5,-1194 985.5,-1182 985.5,-1182 985.5,-1176 991.5,-1170 997.5,-1170 997.5,-1170 1271.5,-1170 1271.5,-1170 1277.5,-1170 1283.5,-1176 1283.5,-1182 1283.5,-1182 1283.5,-1194 1283.5,-1194 1283.5,-1200 1277.5,-1206 1271.5,-1206"/>
<text text-anchor="middle" x="1134.5" y="-1185.8" font-family="Courier,monospace" font-size="9.00">{CIccTagSpectralViewingConditions::getIlluminantCCT()}</text>
</g>
<!-- Node0x5affe5ef3e50&#45;&gt;Node0x5affe5ef0b30 -->
<g id="edge7" class="edge">
<title>Node0x5affe5ef3e50&#45;&gt;Node0x5affe5ef0b30</title>
<path fill="none" stroke="#4a6fa5" d="M794.53,-1188C851.11,-1188 918.29,-1188 977.86,-1188"/>
<polygon fill="#4a6fa5" stroke="#4a6fa5" points="978.09,-1190.45 985.09,-1188 978.09,-1185.55 978.09,-1190.45"/>
</g>
<!-- Node0x5affe5fd4710 -->
<g id="node10" class="node">
<title>Node0x5affe5fd4710</title>
<path fill="#f0f4ff" stroke="black" d="M320,-1527C320,-1527 67,-1527 67,-1527 61,-1527 55,-1521 55,-1515 55,-1515 55,-1503 55,-1503 55,-1497 61,-1491 67,-1491 67,-1491 320,-1491 320,-1491 326,-1491 332,-1497 332,-1503 332,-1503 332,-1515 332,-1515 332,-1521 326,-1527 320,-1527"/>
<text text-anchor="middle" x="193.5" y="-1506.8" font-family="Courier,monospace" font-size="9.00">{IIccProfileConnectionConditions::isStandardPcc()}</text>
</g>
<!-- Node0x5affe5fd4710&#45;&gt;Node0x5affe5ef3d30 -->
<g id="edge9" class="edge">
<title>Node0x5affe5fd4710&#45;&gt;Node0x5affe5ef3d30</title>
<path fill="none" stroke="#4a6fa5" d="M332.32,-1505.49C388.93,-1504.05 454.69,-1502.37 512.76,-1500.89"/>
<polygon fill="#4a6fa5" stroke="#4a6fa5" points="512.87,-1503.34 519.81,-1500.71 512.75,-1498.44 512.87,-1503.34"/>
</g>
<!-- Node0x5affe5fd4710&#45;&gt;Node0x5affe5fc20a0 -->
<g id="edge10" class="edge">
<title>Node0x5affe5fd4710&#45;&gt;Node0x5affe5fc20a0</title>
<path fill="none" stroke="#4a6fa5" d="M332.32,-1524.51C390.62,-1531.07 458.64,-1538.72 517.96,-1545.4"/>
<polygon fill="#4a6fa5" stroke="#4a6fa5" points="517.92,-1547.86 525.15,-1546.21 518.47,-1542.99 517.92,-1547.86"/>
</g>
<!-- Node0x5affe5fd4490 -->
<g id="node11" class="node">
<title>Node0x5affe5fd4490</title>
<path fill="#f0f4ff" stroke="black" d="M843,-946C843,-946 490,-946 490,-946 484,-946 478,-940 478,-934 478,-934 478,-922 478,-922 478,-916 484,-910 490,-910 490,-910 843,-910 843,-910 849,-910 855,-916 855,-922 855,-922 855,-934 855,-934 855,-940 849,-946 843,-946"/>
<text text-anchor="middle" x="666.5" y="-925.8" font-family="Courier,monospace" font-size="9.00">{IIccProfileConnectionConditions::getObserverIlluminantScaleFactor()}</text>
</g>
<!-- Node0x5affe5fd4490&#45;&gt;Node0x5affe5fd3a40 -->
<g id="edge11" class="edge">
<title>Node0x5affe5fd4490&#45;&gt;Node0x5affe5fd3a40</title>
<path fill="none" stroke="#4a6fa5" d="M691.34,-946.03C737.7,-980.14 844.4,-1054 946,-1091 959.13,-1095.78 973.05,-1099.86 987.13,-1103.33"/>
<polygon fill="#4a6fa5" stroke="#4a6fa5" points="986.67,-1105.74 994.05,-1104.99 987.81,-1100.98 986.67,-1105.74"/>
</g>
<!-- Node0x5affe5fd3cd0 -->
<g id="node12" class="node">
<title>Node0x5affe5fd3cd0</title>
<path fill="#f0f4ff" stroke="black" d="M1258.5,-816C1258.5,-816 1010.5,-816 1010.5,-816 1004.5,-816 998.5,-810 998.5,-804 998.5,-804 998.5,-792 998.5,-792 998.5,-786 1004.5,-780 1010.5,-780 1010.5,-780 1258.5,-780 1258.5,-780 1264.5,-780 1270.5,-786 1270.5,-792 1270.5,-792 1270.5,-804 1270.5,-804 1270.5,-810 1264.5,-816 1258.5,-816"/>
<text text-anchor="middle" x="1134.5" y="-795.8" font-family="Courier,monospace" font-size="9.00">{CIccTagSpectralViewingConditions::getObserver()}</text>
</g>
<!-- Node0x5affe5fd4490&#45;&gt;Node0x5affe5fd3cd0 -->
<g id="edge12" class="edge">
<title>Node0x5affe5fd4490&#45;&gt;Node0x5affe5fd3cd0</title>
<path fill="none" stroke="#4a6fa5" d="M819.26,-909.94C833.3,-906.15 847.08,-901.55 860,-896 904.02,-877.08 902.07,-850.13 946,-831 960.19,-824.82 975.46,-819.8 990.95,-815.71"/>
<polygon fill="#4a6fa5" stroke="#4a6fa5" points="991.89,-818 998.07,-813.9 990.69,-813.25 991.89,-818"/>
</g>
<!-- Node0x5affe5fd4990 -->
<g id="node13" class="node">
<title>Node0x5affe5fd4990</title>
<path fill="#f0f4ff" stroke="black" d="M1203.5,-751C1203.5,-751 1065.5,-751 1065.5,-751 1059.5,-751 1053.5,-745 1053.5,-739 1053.5,-739 1053.5,-727 1053.5,-727 1053.5,-721 1059.5,-715 1065.5,-715 1065.5,-715 1203.5,-715 1203.5,-715 1209.5,-715 1215.5,-721 1215.5,-727 1215.5,-727 1215.5,-739 1215.5,-739 1215.5,-745 1209.5,-751 1203.5,-751"/>
<text text-anchor="middle" x="1134.5" y="-730.8" font-family="Courier,monospace" font-size="9.00">{CIccMatrixMath::rangeMap()}</text>
</g>
<!-- Node0x5affe5fd4490&#45;&gt;Node0x5affe5fd4990 -->
<g id="edge13" class="edge">
<title>Node0x5affe5fd4490&#45;&gt;Node0x5affe5fd4990</title>
<path fill="none" stroke="#4a6fa5" d="M833.23,-909.95C842.61,-906.05 851.62,-901.44 860,-896 918.12,-858.29 888.06,-803.98 946,-766 975.29,-746.8 1012.46,-737.84 1045.96,-733.93"/>
<polygon fill="#4a6fa5" stroke="#4a6fa5" points="1046.35,-736.35 1053.05,-733.17 1045.83,-731.48 1046.35,-736.35"/>
</g>
<!-- Node0x5affe5fd5750 -->
<g id="node14" class="node">
<title>Node0x5affe5fd5750</title>
<path fill="#f0f4ff" stroke="black" d="M1206,-1076C1206,-1076 1063,-1076 1063,-1076 1057,-1076 1051,-1070 1051,-1064 1051,-1064 1051,-1052 1051,-1052 1051,-1046 1057,-1040 1063,-1040 1063,-1040 1206,-1040 1206,-1040 1212,-1040 1218,-1046 1218,-1052 1218,-1052 1218,-1064 1218,-1064 1218,-1070 1212,-1076 1206,-1076"/>
<text text-anchor="middle" x="1134.5" y="-1055.8" font-family="Courier,monospace" font-size="9.00">{llvm.umul.with.overflow.i64}</text>
</g>
<!-- Node0x5affe5fd4490&#45;&gt;Node0x5affe5fd5750 -->
<g id="edge14" class="edge">
<title>Node0x5affe5fd4490&#45;&gt;Node0x5affe5fd5750</title>
<path fill="none" stroke="#4a6fa5" d="M711.64,-946.15C765.96,-967.88 861.4,-1004.07 946,-1026 977.5,-1034.17 1012.53,-1040.79 1043.71,-1045.84"/>
<polygon fill="#4a6fa5" stroke="#4a6fa5" points="1043.42,-1048.28 1050.72,-1046.96 1044.19,-1043.44 1043.42,-1048.28"/>
</g>
<!-- Node0x5affe5fd4e90 -->
<g id="node15" class="node">
<title>Node0x5affe5fd4e90</title>
<path fill="#f0f4ff" stroke="black" d="M1211,-1011C1211,-1011 1058,-1011 1058,-1011 1052,-1011 1046,-1005 1046,-999 1046,-999 1046,-987 1046,-987 1046,-981 1052,-975 1058,-975 1058,-975 1211,-975 1211,-975 1217,-975 1223,-981 1223,-987 1223,-987 1223,-999 1223,-999 1223,-1005 1217,-1011 1211,-1011"/>
<text text-anchor="middle" x="1134.5" y="-990.8" font-family="Courier,monospace" font-size="9.00">{operator new[](unsigned long)}</text>
</g>
<!-- Node0x5affe5fd4490&#45;&gt;Node0x5affe5fd4e90 -->
<g id="edge15" class="edge">
<title>Node0x5affe5fd4490&#45;&gt;Node0x5affe5fd4e90</title>
<path fill="none" stroke="#4a6fa5" d="M796.69,-946.02C873.38,-956.72 968.93,-970.05 1038.65,-979.77"/>
<polygon fill="#4a6fa5" stroke="#4a6fa5" points="1038.47,-982.22 1045.74,-980.76 1039.15,-977.37 1038.47,-982.22"/>
</g>
<!-- Node0x5affe5fd4c10 -->
<g id="node16" class="node">
<title>Node0x5affe5fd4c10</title>
<path fill="#f0f4ff" stroke="black" d="M1177,-881C1177,-881 1092,-881 1092,-881 1086,-881 1080,-875 1080,-869 1080,-869 1080,-857 1080,-857 1080,-851 1086,-845 1092,-845 1092,-845 1177,-845 1177,-845 1183,-845 1189,-851 1189,-857 1189,-857 1189,-869 1189,-869 1189,-875 1183,-881 1177,-881"/>
<text text-anchor="middle" x="1134.5" y="-860.8" font-family="Courier,monospace" font-size="9.00">{llvm.fmuladd.f32}</text>
</g>
<!-- Node0x5affe5fd4490&#45;&gt;Node0x5affe5fd4c10 -->
<g id="edge16" class="edge">
<title>Node0x5affe5fd4490&#45;&gt;Node0x5affe5fd4c10</title>
<path fill="none" stroke="#4a6fa5" d="M796.69,-909.98C886.92,-897.39 1003.26,-881.17 1072.92,-871.45"/>
<polygon fill="#4a6fa5" stroke="#4a6fa5" points="1073.34,-873.87 1079.93,-870.47 1072.66,-869.01 1073.34,-873.87"/>
</g>
<!-- Node0x5affe5fd59d0 -->
<g id="node17" class="node">
<title>Node0x5affe5fd59d0</title>
<path fill="#f0f4ff" stroke="black" d="M1198,-946C1198,-946 1071,-946 1071,-946 1065,-946 1059,-940 1059,-934 1059,-934 1059,-922 1059,-922 1059,-916 1065,-910 1071,-910 1071,-910 1198,-910 1198,-910 1204,-910 1210,-916 1210,-922 1210,-922 1210,-934 1210,-934 1210,-940 1204,-946 1198,-946"/>
<text text-anchor="middle" x="1134.5" y="-925.8" font-family="Courier,monospace" font-size="9.00">{operator delete[](void*)}</text>
</g>
<!-- Node0x5affe5fd4490&#45;&gt;Node0x5affe5fd59d0 -->
<g id="edge17" class="edge">
<title>Node0x5affe5fd4490&#45;&gt;Node0x5affe5fd59d0</title>
<path fill="none" stroke="#4a6fa5" d="M855.03,-928C923.4,-928 997.22,-928 1051.66,-928"/>
<polygon fill="#4a6fa5" stroke="#4a6fa5" points="1051.87,-930.45 1058.87,-928 1051.87,-925.55 1051.87,-930.45"/>
</g>
<!-- Node0x5affe5fd5590 -->
<g id="node18" class="node">
<title>Node0x5affe5fd5590</title>
<path fill="#f0f4ff" stroke="black" d="M830,-881C830,-881 503,-881 503,-881 497,-881 491,-875 491,-869 491,-869 491,-857 491,-857 491,-851 497,-845 503,-845 503,-845 830,-845 830,-845 836,-845 842,-851 842,-857 842,-857 842,-869 842,-869 842,-875 836,-881 830,-881"/>
<text text-anchor="middle" x="666.5" y="-860.8" font-family="Courier,monospace" font-size="9.00">{IIccProfileConnectionConditions::getObserverWhiteScaleFactor()}</text>
</g>
<!-- Node0x5affe5fd5590&#45;&gt;Node0x5affe5fd3cd0 -->
<g id="edge18" class="edge">
<title>Node0x5affe5fd5590&#45;&gt;Node0x5affe5fd3cd0</title>
<path fill="none" stroke="#4a6fa5" d="M796.69,-844.98C858.93,-836.3 933.61,-825.88 996.81,-817.07"/>
<polygon fill="#4a6fa5" stroke="#4a6fa5" points="997.47,-819.45 1004.06,-816.05 996.79,-814.6 997.47,-819.45"/>
</g>
<!-- Node0x5affe5fd5590&#45;&gt;Node0x5affe5fd4990 -->
<g id="edge19" class="edge">
<title>Node0x5affe5fd5590&#45;&gt;Node0x5affe5fd4990</title>
<path fill="none" stroke="#4a6fa5" d="M712.16,-844.94C766.59,-823.51 861.77,-787.93 946,-766 978.26,-757.6 1014.21,-750.7 1045.93,-745.41"/>
<polygon fill="#4a6fa5" stroke="#4a6fa5" points="1046.55,-747.8 1053.06,-744.24 1045.75,-742.96 1046.55,-747.8"/>
</g>
<!-- Node0x5affe5fd5590&#45;&gt;Node0x5affe5fd5750 -->
<g id="edge20" class="edge">
<title>Node0x5affe5fd5590&#45;&gt;Node0x5affe5fd5750</title>
<path fill="none" stroke="#4a6fa5" d="M831.34,-881.16C841.4,-885.26 851.05,-890.16 860,-896 918.02,-933.85 887.97,-988.17 946,-1026 974.67,-1044.69 1010.85,-1053.49 1043.77,-1057.35"/>
<polygon fill="#4a6fa5" stroke="#4a6fa5" points="1043.52,-1059.78 1050.74,-1058.1 1044.04,-1054.91 1043.52,-1059.78"/>
</g>
<!-- Node0x5affe5fd5590&#45;&gt;Node0x5affe5fd4e90 -->
<g id="edge21" class="edge">
<title>Node0x5affe5fd5590&#45;&gt;Node0x5affe5fd4e90</title>
<path fill="none" stroke="#4a6fa5" d="M815.96,-881.01C831.14,-885.04 846.07,-889.97 860,-896 903.97,-915.03 902.02,-941.98 946,-961 974.76,-973.44 1007.96,-981.05 1038.36,-985.71"/>
<polygon fill="#4a6fa5" stroke="#4a6fa5" points="1038.33,-988.18 1045.62,-986.77 1039.05,-983.33 1038.33,-988.18"/>
</g>
<!-- Node0x5affe5fd5590&#45;&gt;Node0x5affe5fd4c10 -->
<g id="edge22" class="edge">
<title>Node0x5affe5fd5590&#45;&gt;Node0x5affe5fd4c10</title>
<path fill="none" stroke="#4a6fa5" d="M842.02,-863C923.04,-863 1014.16,-863 1072.61,-863"/>
<polygon fill="#4a6fa5" stroke="#4a6fa5" points="1072.93,-865.45 1079.93,-863 1072.93,-860.55 1072.93,-865.45"/>
</g>
<!-- Node0x5affe5fd5590&#45;&gt;Node0x5affe5fd59d0 -->
<g id="edge23" class="edge">
<title>Node0x5affe5fd5590&#45;&gt;Node0x5affe5fd59d0</title>
<path fill="none" stroke="#4a6fa5" d="M796.69,-881.02C878.33,-892.41 981.34,-906.78 1051.81,-916.61"/>
<polygon fill="#4a6fa5" stroke="#4a6fa5" points="1051.68,-919.06 1058.96,-917.6 1052.36,-914.21 1051.68,-919.06"/>
</g>
<!-- Node0x5affe5fd47d0 -->
<g id="node19" class="node">
<title>Node0x5affe5fd47d0</title>
<path fill="#f0f4ff" stroke="black" d="M809,-621C809,-621 524,-621 524,-621 518,-621 512,-615 512,-609 512,-609 512,-597 512,-597 512,-591 518,-585 524,-585 524,-585 809,-585 809,-585 815,-585 821,-591 821,-597 821,-597 821,-609 821,-609 821,-615 815,-621 809,-621"/>
<text text-anchor="middle" x="666.5" y="-600.8" font-family="Courier,monospace" font-size="9.00">{IIccProfileConnectionConditions::getEmissiveObserver()}</text>
</g>
<!-- Node0x5affe5fd47d0&#45;&gt;Node0x5affe5fd3cd0 -->
<g id="edge24" class="edge">
<title>Node0x5affe5fd47d0&#45;&gt;Node0x5affe5fd3cd0</title>
<path fill="none" stroke="#4a6fa5" d="M691.34,-621.03C737.7,-655.14 844.4,-729 946,-766 960.4,-771.24 975.73,-775.64 991.19,-779.32"/>
<polygon fill="#4a6fa5" stroke="#4a6fa5" points="990.93,-781.77 998.31,-780.96 992.04,-777 990.93,-781.77"/>
</g>
<!-- Node0x5affe5fd47d0&#45;&gt;Node0x5affe5fd4990 -->
<g id="edge26" class="edge">
<title>Node0x5affe5fd47d0&#45;&gt;Node0x5affe5fd4990</title>
<path fill="none" stroke="#4a6fa5" d="M711.64,-621.15C765.96,-642.88 861.4,-679.07 946,-701 978.39,-709.4 1014.52,-716.16 1046.35,-721.27"/>
<polygon fill="#4a6fa5" stroke="#4a6fa5" points="1046.2,-723.73 1053.5,-722.4 1046.96,-718.89 1046.2,-723.73"/>
</g>
<!-- Node0x5affe5fd47d0&#45;&gt;Node0x5affe5fd4c10 -->
<g id="edge30" class="edge">
<title>Node0x5affe5fd47d0&#45;&gt;Node0x5affe5fd4c10</title>
<path fill="none" stroke="#4a6fa5" d="M683.23,-621.18C722.55,-665.3 830.28,-778.28 946,-831 985.72,-849.1 1034.42,-857.04 1072.22,-860.49"/>
<polygon fill="#4a6fa5" stroke="#4a6fa5" points="1072.45,-862.96 1079.63,-861.12 1072.87,-858.08 1072.45,-862.96"/>
</g>
<!-- Node0x5affe5fd4b90 -->
<g id="node20" class="node">
<title>Node0x5affe5fd4b90</title>
<path fill="#f0f4ff" stroke="black" d="M1151,-621C1151,-621 1118,-621 1118,-621 1112,-621 1106,-615 1106,-609 1106,-609 1106,-597 1106,-597 1106,-591 1112,-585 1118,-585 1118,-585 1151,-585 1151,-585 1157,-585 1163,-591 1163,-597 1163,-597 1163,-609 1163,-609 1163,-615 1157,-621 1151,-621"/>
<text text-anchor="middle" x="1134.5" y="-600.8" font-family="Courier,monospace" font-size="9.00">{malloc}</text>
</g>
<!-- Node0x5affe5fd47d0&#45;&gt;Node0x5affe5fd4b90 -->
<g id="edge25" class="edge">
<title>Node0x5affe5fd47d0&#45;&gt;Node0x5affe5fd4b90</title>
<path fill="none" stroke="#4a6fa5" d="M821.05,-603C919.98,-603 1040.62,-603 1098.81,-603"/>
<polygon fill="#4a6fa5" stroke="#4a6fa5" points="1098.93,-605.45 1105.93,-603 1098.93,-600.55 1098.93,-605.45"/>
</g>
<!-- Node0x5affe5fd4e10 -->
<g id="node21" class="node">
<title>Node0x5affe5fd4e10</title>
<path fill="#f0f4ff" stroke="black" d="M1221.5,-556C1221.5,-556 1047.5,-556 1047.5,-556 1041.5,-556 1035.5,-550 1035.5,-544 1035.5,-544 1035.5,-532 1035.5,-532 1035.5,-526 1041.5,-520 1047.5,-520 1047.5,-520 1221.5,-520 1221.5,-520 1227.5,-520 1233.5,-526 1233.5,-532 1233.5,-532 1233.5,-544 1233.5,-544 1233.5,-550 1227.5,-556 1221.5,-556"/>
<text text-anchor="middle" x="1134.5" y="-535.8" font-family="Courier,monospace" font-size="9.00">{CIccMatrixMath::~CIccMatrixMath()}</text>
</g>
<!-- Node0x5affe5fd47d0&#45;&gt;Node0x5affe5fd4e10 -->
<g id="edge27" class="edge">
<title>Node0x5affe5fd47d0&#45;&gt;Node0x5affe5fd4e10</title>
<path fill="none" stroke="#4a6fa5" d="M796.69,-584.98C869.6,-574.81 959.57,-562.26 1028.17,-552.69"/>
<polygon fill="#4a6fa5" stroke="#4a6fa5" points="1028.57,-555.11 1035.16,-551.72 1027.89,-550.26 1028.57,-555.11"/>
</g>
<!-- Node0x5affe5fd5950 -->
<g id="node22" class="node">
<title>Node0x5affe5fd5950</title>
<path fill="#f0f4ff" stroke="black" d="M1208.5,-491C1208.5,-491 1060.5,-491 1060.5,-491 1054.5,-491 1048.5,-485 1048.5,-479 1048.5,-479 1048.5,-467 1048.5,-467 1048.5,-461 1054.5,-455 1060.5,-455 1060.5,-455 1208.5,-455 1208.5,-455 1214.5,-455 1220.5,-461 1220.5,-467 1220.5,-467 1220.5,-479 1220.5,-479 1220.5,-485 1214.5,-491 1208.5,-491"/>
<text text-anchor="middle" x="1134.5" y="-470.8" font-family="Courier,monospace" font-size="9.00">{CIccMatrixMath::VectorMult()}</text>
</g>
<!-- Node0x5affe5fd47d0&#45;&gt;Node0x5affe5fd5950 -->
<g id="edge28" class="edge">
<title>Node0x5affe5fd47d0&#45;&gt;Node0x5affe5fd5950</title>
<path fill="none" stroke="#4a6fa5" d="M712.16,-584.94C766.59,-563.51 861.77,-527.93 946,-506 976.65,-498.02 1010.62,-491.39 1041.14,-486.22"/>
<polygon fill="#4a6fa5" stroke="#4a6fa5" points="1041.91,-488.58 1048.41,-485 1041.1,-483.74 1041.91,-488.58"/>
</g>
<!-- Node0x5affe5fd5c50 -->
<g id="node23" class="node">
<title>Node0x5affe5fd5c50</title>
<path fill="#f0f4ff" stroke="black" d="M1190,-361C1190,-361 1079,-361 1079,-361 1073,-361 1067,-355 1067,-349 1067,-349 1067,-337 1067,-337 1067,-331 1073,-325 1079,-325 1079,-325 1190,-325 1190,-325 1196,-325 1202,-331 1202,-337 1202,-337 1202,-349 1202,-349 1202,-355 1196,-361 1190,-361"/>
<text text-anchor="middle" x="1134.5" y="-340.8" font-family="Courier,monospace" font-size="9.00">{llvm.memcpy.p0.p0.i64}</text>
</g>
<!-- Node0x5affe5fd47d0&#45;&gt;Node0x5affe5fd5c50 -->
<g id="edge29" class="edge">
<title>Node0x5affe5fd47d0&#45;&gt;Node0x5affe5fd5c50</title>
<path fill="none" stroke="#4a6fa5" d="M688.9,-584.98C751.53,-532.29 931,-381.83 946,-375 981.5,-358.83 1024.16,-350.77 1059.81,-346.77"/>
<polygon fill="#4a6fa5" stroke="#4a6fa5" points="1060.14,-349.2 1066.84,-346.03 1059.63,-344.33 1060.14,-349.2"/>
</g>
<!-- Node0x5affe5fe7ef0 -->
<g id="node24" class="node">
<title>Node0x5affe5fe7ef0</title>
<path fill="#f0f4ff" stroke="black" d="M1219,-426C1219,-426 1050,-426 1050,-426 1044,-426 1038,-420 1038,-414 1038,-414 1038,-402 1038,-402 1038,-396 1044,-390 1050,-390 1050,-390 1219,-390 1219,-390 1225,-390 1231,-396 1231,-402 1231,-402 1231,-414 1231,-414 1231,-420 1225,-426 1219,-426"/>
<text text-anchor="middle" x="1134.5" y="-405.8" font-family="Courier,monospace" font-size="9.00">{CIccMatrixMath::CIccMatrixMath()}</text>
</g>
<!-- Node0x5affe5fd47d0&#45;&gt;Node0x5affe5fe7ef0 -->
<g id="edge31" class="edge">
<title>Node0x5affe5fd47d0&#45;&gt;Node0x5affe5fe7ef0</title>
<path fill="none" stroke="#4a6fa5" d="M691.34,-584.97C737.7,-550.86 844.4,-477 946,-440 972.75,-430.26 1002.74,-423.45 1030.76,-418.7"/>
<polygon fill="#4a6fa5" stroke="#4a6fa5" points="1031.32,-421.09 1037.83,-417.54 1030.53,-416.26 1031.32,-421.09"/>
</g>
<!-- Node0x5affe5fd4410 -->
<g id="node25" class="node">
<title>Node0x5affe5fd4410</title>
<path fill="#f0f4ff" stroke="black" d="M1195.5,-686C1195.5,-686 1073.5,-686 1073.5,-686 1067.5,-686 1061.5,-680 1061.5,-674 1061.5,-674 1061.5,-662 1061.5,-662 1061.5,-656 1067.5,-650 1073.5,-650 1073.5,-650 1195.5,-650 1195.5,-650 1201.5,-650 1207.5,-656 1207.5,-662 1207.5,-662 1207.5,-674 1207.5,-674 1207.5,-680 1201.5,-686 1195.5,-686"/>
<text text-anchor="middle" x="1134.5" y="-665.8" font-family="Courier,monospace" font-size="9.00">{CIccMatrixMath::entry()}</text>
</g>
<!-- Node0x5affe5fd47d0&#45;&gt;Node0x5affe5fd4410 -->
<g id="edge32" class="edge">
<title>Node0x5affe5fd47d0&#45;&gt;Node0x5affe5fd4410</title>
<path fill="none" stroke="#4a6fa5" d="M796.69,-621.02C879.24,-632.53 983.64,-647.1 1054.16,-656.93"/>
<polygon fill="#4a6fa5" stroke="#4a6fa5" points="1054.03,-659.39 1061.3,-657.93 1054.71,-654.54 1054.03,-659.39"/>
</g>
<!-- Node0x5affe5fea4f0 -->
<g id="node26" class="node">
<title>Node0x5affe5fea4f0</title>
<path fill="#f0f4ff" stroke="black" d="M246.5,-7831C246.5,-7831 140.5,-7831 140.5,-7831 134.5,-7831 128.5,-7825 128.5,-7819 128.5,-7819 128.5,-7807 128.5,-7807 128.5,-7801 134.5,-7795 140.5,-7795 140.5,-7795 246.5,-7795 246.5,-7795 252.5,-7795 258.5,-7801 258.5,-7807 258.5,-7807 258.5,-7819 258.5,-7819 258.5,-7825 252.5,-7831 246.5,-7831"/>
<text text-anchor="middle" x="193.5" y="-7810.8" font-family="Courier,monospace" font-size="9.00">{__gxx_personality_v0}</text>
</g>
<!-- Node0x5affe5fec360 -->
<g id="node27" class="node">
<title>Node0x5affe5fec360</title>
<path fill="#f0f4ff" stroke="black" d="M816.5,-231C816.5,-231 516.5,-231 516.5,-231 510.5,-231 504.5,-225 504.5,-219 504.5,-219 504.5,-207 504.5,-207 504.5,-201 510.5,-195 516.5,-195 516.5,-195 816.5,-195 816.5,-195 822.5,-195 828.5,-201 828.5,-207 828.5,-207 828.5,-219 828.5,-219 828.5,-225 822.5,-231 816.5,-231"/>
<text text-anchor="middle" x="666.5" y="-210.8" font-family="Courier,monospace" font-size="9.00">{IIccProfileConnectionConditions::getReflectanceObserver()}</text>
</g>
<!-- Node0x5affe5fec360&#45;&gt;Node0x5affe5fd3a40 -->
<g id="edge33" class="edge">
<title>Node0x5affe5fec360&#45;&gt;Node0x5affe5fd3a40</title>
<path fill="none" stroke="#4a6fa5" d="M828.92,-222.45C840.48,-228.12 851.07,-235.49 860,-245 989.32,-382.79 816.98,-952.93 946,-1091 957.25,-1103.03 971.23,-1111.59 986.45,-1117.58"/>
<polygon fill="#4a6fa5" stroke="#4a6fa5" points="985.63,-1119.88 993.04,-1119.98 987.31,-1115.28 985.63,-1119.88"/>
</g>
<!-- Node0x5affe5fec360&#45;&gt;Node0x5affe5fd4990 -->
<g id="edge34" class="edge">
<title>Node0x5affe5fec360&#45;&gt;Node0x5affe5fd4990</title>
<path fill="none" stroke="#4a6fa5" d="M828.52,-223.51C840.09,-228.96 850.8,-236 860,-245 1007.41,-389.24 798.91,-556.44 946,-701 972.17,-726.71 1010.93,-736.14 1046.43,-738.57"/>
<polygon fill="#4a6fa5" stroke="#4a6fa5" points="1046.36,-741.02 1053.49,-738.96 1046.63,-736.12 1046.36,-741.02"/>
</g>
<!-- Node0x5affe5feb960 -->
<g id="node28" class="node">
<title>Node0x5affe5feb960</title>
<path fill="#f0f4ff" stroke="black" d="M1274,-231C1274,-231 995,-231 995,-231 989,-231 983,-225 983,-219 983,-219 983,-207 983,-207 983,-201 989,-195 995,-195 995,-195 1274,-195 1274,-195 1280,-195 1286,-201 1286,-207 1286,-207 1286,-219 1286,-219 1286,-225 1280,-231 1274,-231"/>
<text text-anchor="middle" x="1134.5" y="-210.8" font-family="Courier,monospace" font-size="9.00">{CIccTagSpectralViewingConditions::getObserverMatrix()}</text>
</g>
<!-- Node0x5affe5fec360&#45;&gt;Node0x5affe5feb960 -->
<g id="edge35" class="edge">
<title>Node0x5affe5fec360&#45;&gt;Node0x5affe5feb960</title>
<path fill="none" stroke="#4a6fa5" d="M828.52,-213C876.07,-213 928.04,-213 975.4,-213"/>
<polygon fill="#4a6fa5" stroke="#4a6fa5" points="975.66,-215.45 982.66,-213 975.66,-210.55 975.66,-215.45"/>
</g>
<!-- Node0x5affe5fd6850 -->
<g id="node29" class="node">
<title>Node0x5affe5fd6850</title>
<path fill="#f0f4ff" stroke="black" d="M1193,-166C1193,-166 1076,-166 1076,-166 1070,-166 1064,-160 1064,-154 1064,-154 1064,-142 1064,-142 1064,-136 1070,-130 1076,-130 1076,-130 1193,-130 1193,-130 1199,-130 1205,-136 1205,-142 1205,-142 1205,-154 1205,-154 1205,-160 1199,-166 1193,-166"/>
<text text-anchor="middle" x="1134.5" y="-145.8" font-family="Courier,monospace" font-size="9.00">{CIccMatrixMath::Mult()}</text>
</g>
<!-- Node0x5affe5fec360&#45;&gt;Node0x5affe5fd6850 -->
<g id="edge36" class="edge">
<title>Node0x5affe5fec360&#45;&gt;Node0x5affe5fd6850</title>
<path fill="none" stroke="#4a6fa5" d="M796.69,-194.98C880.28,-183.32 986.28,-168.53 1056.81,-158.7"/>
<polygon fill="#4a6fa5" stroke="#4a6fa5" points="1057.36,-161.09 1063.95,-157.7 1056.68,-156.24 1057.36,-161.09"/>
</g>
<!-- Node0x5affe5fee5b0 -->
<g id="node30" class="node">
<title>Node0x5affe5fee5b0</title>
<path fill="#f0f4ff" stroke="black" d="M1195.5,-101C1195.5,-101 1073.5,-101 1073.5,-101 1067.5,-101 1061.5,-95 1061.5,-89 1061.5,-89 1061.5,-77 1061.5,-77 1061.5,-71 1067.5,-65 1073.5,-65 1073.5,-65 1195.5,-65 1195.5,-65 1201.5,-65 1207.5,-71 1207.5,-77 1207.5,-77 1207.5,-89 1207.5,-89 1207.5,-95 1201.5,-101 1195.5,-101"/>
<text text-anchor="middle" x="1134.5" y="-80.8" font-family="Courier,monospace" font-size="9.00">{CIccMatrixMath::Scale()}</text>
</g>
<!-- Node0x5affe5fec360&#45;&gt;Node0x5affe5fee5b0 -->
<g id="edge37" class="edge">
<title>Node0x5affe5fec360&#45;&gt;Node0x5affe5fee5b0</title>
<path fill="none" stroke="#4a6fa5" d="M711.64,-194.85C765.96,-173.12 861.4,-136.93 946,-115 981.07,-105.91 1020.51,-98.73 1054.14,-93.5"/>
<polygon fill="#4a6fa5" stroke="#4a6fa5" points="1054.67,-95.9 1061.22,-92.41 1053.93,-91.05 1054.67,-95.9"/>
</g>
<!-- Node0x5affe5fea570 -->
<g id="node31" class="node">
<title>Node0x5affe5fea570</title>
<path fill="#f0f4ff" stroke="black" d="M1211,-36C1211,-36 1058,-36 1058,-36 1052,-36 1046,-30 1046,-24 1046,-24 1046,-12 1046,-12 1046,-6 1052,0 1058,0 1058,0 1211,0 1211,0 1217,0 1223,-6 1223,-12 1223,-12 1223,-24 1223,-24 1223,-30 1217,-36 1211,-36"/>
<text text-anchor="middle" x="1134.5" y="-15.8" font-family="Courier,monospace" font-size="9.00">{CIccMatrixMath::VectorScale()}</text>
</g>
<!-- Node0x5affe5fec360&#45;&gt;Node0x5affe5fea570 -->
<g id="edge38" class="edge">
<title>Node0x5affe5fec360&#45;&gt;Node0x5affe5fea570</title>
<path fill="none" stroke="#4a6fa5" d="M691.34,-194.97C737.7,-160.86 844.4,-87 946,-50 975.3,-39.33 1008.5,-32.18 1038.73,-27.4"/>
<polygon fill="#4a6fa5" stroke="#4a6fa5" points="1039.39,-29.77 1045.94,-26.29 1038.65,-24.93 1039.39,-29.77"/>
</g>
<!-- Node0x5affe5fee780 -->
<g id="node32" class="node">
<title>Node0x5affe5fee780</title>
<path fill="#f0f4ff" stroke="black" d="M1198,-296C1198,-296 1071,-296 1071,-296 1065,-296 1059,-290 1059,-284 1059,-284 1059,-272 1059,-272 1059,-266 1065,-260 1071,-260 1071,-260 1198,-260 1198,-260 1204,-260 1210,-266 1210,-272 1210,-272 1210,-284 1210,-284 1210,-290 1204,-296 1198,-296"/>
<text text-anchor="middle" x="1134.5" y="-275.8" font-family="Courier,monospace" font-size="9.00">{CIccMatrixMath::RowSum()}</text>
</g>
<!-- Node0x5affe5fec360&#45;&gt;Node0x5affe5fee780 -->
<g id="edge39" class="edge">
<title>Node0x5affe5fec360&#45;&gt;Node0x5affe5fee780</title>
<path fill="none" stroke="#4a6fa5" d="M796.69,-231.02C878.33,-242.41 981.34,-256.78 1051.81,-266.61"/>
<polygon fill="#4a6fa5" stroke="#4a6fa5" points="1051.68,-269.06 1058.96,-267.6 1052.36,-264.21 1051.68,-269.06"/>
</g>
<!-- Node0x5affe5fed270 -->
<g id="node33" class="node">
<title>Node0x5affe5fed270</title>
<path fill="#f0f4ff" stroke="black" d="M845.5,-1401C845.5,-1401 487.5,-1401 487.5,-1401 481.5,-1401 475.5,-1395 475.5,-1389 475.5,-1389 475.5,-1377 475.5,-1377 475.5,-1371 481.5,-1365 487.5,-1365 487.5,-1365 845.5,-1365 845.5,-1365 851.5,-1365 857.5,-1371 857.5,-1377 857.5,-1377 857.5,-1389 857.5,-1389 857.5,-1395 851.5,-1401 845.5,-1401"/>
<text text-anchor="middle" x="666.5" y="-1380.8" font-family="Courier,monospace" font-size="9.00">{CIccCombinedConnectionConditions::CIccCombinedConnectionConditions()}</text>
</g>
<!-- Node0x5affe5fed270&#45;&gt;Node0x5affe5fd2520 -->
<g id="edge45" class="edge">
<title>Node0x5affe5fed270&#45;&gt;Node0x5affe5fd2520</title>
<path fill="none" stroke="#4a6fa5" d="M738.01,-1401.14C777.31,-1413.98 825.2,-1434.44 860,-1465 916.59,-1514.69 884,-1568.24 946,-1611 956.67,-1618.36 968.47,-1624.21 980.8,-1628.85"/>
<polygon fill="#4a6fa5" stroke="#4a6fa5" points="980.29,-1631.26 987.71,-1631.3 981.93,-1626.65 980.29,-1631.26"/>
</g>
<!-- Node0x5affe5fed270&#45;&gt;Node0x5affe5ef0b30 -->
<g id="edge46" class="edge">
<title>Node0x5affe5fed270&#45;&gt;Node0x5affe5ef0b30</title>
<path fill="none" stroke="#4a6fa5" d="M708.47,-1364.98C748.24,-1346.88 809.81,-1317.26 860,-1286 900.67,-1260.67 902.07,-1240.13 946,-1221 957.63,-1215.93 969.99,-1211.64 982.6,-1208.01"/>
<polygon fill="#4a6fa5" stroke="#4a6fa5" points="983.54,-1210.3 989.63,-1206.06 982.23,-1205.58 983.54,-1210.3"/>
</g>
<!-- Node0x5affe5fed270&#45;&gt;Node0x5affe5fd3a40 -->
<g id="edge44" class="edge">
<title>Node0x5affe5fed270&#45;&gt;Node0x5affe5fd3a40</title>
<path fill="none" stroke="#4a6fa5" d="M720.54,-1364.93C761.9,-1348.92 819.02,-1322.42 860,-1286 911.78,-1239.98 888.06,-1193.98 946,-1156 958.35,-1147.9 972.11,-1141.63 986.39,-1136.78"/>
<polygon fill="#4a6fa5" stroke="#4a6fa5" points="987.53,-1138.99 993.45,-1134.52 986.03,-1134.32 987.53,-1138.99"/>
</g>
<!-- Node0x5affe5fed0a0 -->
<g id="node34" class="node">
<title>Node0x5affe5fed0a0</title>
<path fill="#f0f4ff" stroke="black" d="M1308.5,-1531C1308.5,-1531 960.5,-1531 960.5,-1531 954.5,-1531 948.5,-1525 948.5,-1519 948.5,-1519 948.5,-1507 948.5,-1507 948.5,-1501 954.5,-1495 960.5,-1495 960.5,-1495 1308.5,-1495 1308.5,-1495 1314.5,-1495 1320.5,-1501 1320.5,-1507 1320.5,-1507 1320.5,-1519 1320.5,-1519 1320.5,-1525 1314.5,-1531 1308.5,-1531"/>
<text text-anchor="middle" x="1134.5" y="-1510.8" font-family="Courier,monospace" font-size="9.00">{IIccProfileConnectionConditions::IIccProfileConnectionConditions()}</text>
</g>
<!-- Node0x5affe5fed270&#45;&gt;Node0x5affe5fed0a0 -->
<g id="edge40" class="edge">
<title>Node0x5affe5fed270&#45;&gt;Node0x5affe5fed0a0</title>
<path fill="none" stroke="#4a6fa5" d="M711.64,-1401.15C765.96,-1422.88 861.4,-1459.07 946,-1481 964.29,-1485.74 983.77,-1489.96 1003,-1493.66"/>
<polygon fill="#4a6fa5" stroke="#4a6fa5" points="1002.74,-1496.1 1010.07,-1495 1003.65,-1491.29 1002.74,-1496.1"/>
</g>
<!-- Node0x5affe5feeb10 -->
<g id="node35" class="node">
<title>Node0x5affe5feeb10</title>
<path fill="#f0f4ff" stroke="black" d="M1219,-1466C1219,-1466 1050,-1466 1050,-1466 1044,-1466 1038,-1460 1038,-1454 1038,-1454 1038,-1442 1038,-1442 1038,-1436 1044,-1430 1050,-1430 1050,-1430 1219,-1430 1219,-1430 1225,-1430 1231,-1436 1231,-1442 1231,-1442 1231,-1454 1231,-1454 1231,-1460 1225,-1466 1219,-1466"/>
<text text-anchor="middle" x="1134.5" y="-1445.8" font-family="Courier,monospace" font-size="9.00">{CIccProfile::calcMediaWhiteXYZ()}</text>
</g>
<!-- Node0x5affe5fed270&#45;&gt;Node0x5affe5feeb10 -->
<g id="edge41" class="edge">
<title>Node0x5affe5fed270&#45;&gt;Node0x5affe5feeb10</title>
<path fill="none" stroke="#4a6fa5" d="M796.69,-1401.02C870.52,-1411.32 961.82,-1424.05 1030.73,-1433.67"/>
<polygon fill="#4a6fa5" stroke="#4a6fa5" points="1030.48,-1436.1 1037.75,-1434.64 1031.16,-1431.25 1030.48,-1436.1"/>
</g>
<!-- Node0x5affe5fef840 -->
<g id="node36" class="node">
<title>Node0x5affe5fef840</title>
<path fill="#f0f4ff" stroke="black" d="M1311,-1271C1311,-1271 958,-1271 958,-1271 952,-1271 946,-1265 946,-1259 946,-1259 946,-1247 946,-1247 946,-1241 952,-1235 958,-1235 958,-1235 1311,-1235 1311,-1235 1317,-1235 1323,-1241 1323,-1247 1323,-1247 1323,-1259 1323,-1259 1323,-1265 1317,-1271 1311,-1271"/>
<text text-anchor="middle" x="1134.5" y="-1250.8" font-family="Courier,monospace" font-size="9.00">{IIccProfileConnectionConditions::~IIccProfileConnectionConditions()}</text>
</g>
<!-- Node0x5affe5fed270&#45;&gt;Node0x5affe5fef840 -->
<g id="edge42" class="edge">
<title>Node0x5affe5fed270&#45;&gt;Node0x5affe5fef840</title>
<path fill="none" stroke="#4a6fa5" d="M712.16,-1364.94C766.59,-1343.51 861.77,-1307.93 946,-1286 965.54,-1280.91 986.43,-1276.37 1006.92,-1272.41"/>
<polygon fill="#4a6fa5" stroke="#4a6fa5" points="1007.43,-1274.81 1013.85,-1271.09 1006.52,-1270 1007.43,-1274.81"/>
</g>
<!-- Node0x5affe5fefae0 -->
<g id="node37" class="node">
<title>Node0x5affe5fefae0</title>
<path fill="#f0f4ff" stroke="black" d="M1227,-1401C1227,-1401 1042,-1401 1042,-1401 1036,-1401 1030,-1395 1030,-1389 1030,-1389 1030,-1377 1030,-1377 1030,-1371 1036,-1365 1042,-1365 1042,-1365 1227,-1365 1227,-1365 1233,-1365 1239,-1371 1239,-1377 1239,-1377 1239,-1389 1239,-1389 1239,-1395 1233,-1401 1227,-1401"/>
<text text-anchor="middle" x="1134.5" y="-1380.8" font-family="Courier,monospace" font-size="9.00">{CIccProfile::calcLumIlluminantXYZ()}</text>
</g>
<!-- Node0x5affe5fed270&#45;&gt;Node0x5affe5fefae0 -->
<g id="edge43" class="edge">
<title>Node0x5affe5fed270&#45;&gt;Node0x5affe5fefae0</title>
<path fill="none" stroke="#4a6fa5" d="M857.71,-1383C913.84,-1383 973.4,-1383 1022.75,-1383"/>
<polygon fill="#4a6fa5" stroke="#4a6fa5" points="1022.96,-1385.45 1029.96,-1383 1022.96,-1380.55 1022.96,-1385.45"/>
</g>
<!-- Node0x5affe5fef650 -->
<g id="node38" class="node">
<title>Node0x5affe5fef650</title>
<path fill="#f0f4ff" stroke="black" d="M1263.5,-1336C1263.5,-1336 1005.5,-1336 1005.5,-1336 999.5,-1336 993.5,-1330 993.5,-1324 993.5,-1324 993.5,-1312 993.5,-1312 993.5,-1306 999.5,-1300 1005.5,-1300 1005.5,-1300 1263.5,-1300 1263.5,-1300 1269.5,-1300 1275.5,-1306 1275.5,-1312 1275.5,-1312 1275.5,-1324 1275.5,-1324 1275.5,-1330 1269.5,-1336 1263.5,-1336"/>
<text text-anchor="middle" x="1134.5" y="-1315.8" font-family="Courier,monospace" font-size="9.00">{CIccTagSpectralViewingConditions::setIlluminant()}</text>
</g>
<!-- Node0x5affe5fed270&#45;&gt;Node0x5affe5fef650 -->
<g id="edge47" class="edge">
<title>Node0x5affe5fed270&#45;&gt;Node0x5affe5fef650</title>
<path fill="none" stroke="#4a6fa5" d="M796.69,-1364.98C858.93,-1356.3 933.61,-1345.88 996.81,-1337.07"/>
<polygon fill="#4a6fa5" stroke="#4a6fa5" points="997.47,-1339.45 1004.06,-1336.05 996.79,-1334.6 997.47,-1339.45"/>
</g>
<!-- Node0x5affe5feefb0 -->
<g id="node39" class="node">
<title>Node0x5affe5feefb0</title>
<path fill="#f0f4ff" stroke="black" d="M1229.5,-1596C1229.5,-1596 1039.5,-1596 1039.5,-1596 1033.5,-1596 1027.5,-1590 1027.5,-1584 1027.5,-1584 1027.5,-1572 1027.5,-1572 1027.5,-1566 1033.5,-1560 1039.5,-1560 1039.5,-1560 1229.5,-1560 1229.5,-1560 1235.5,-1560 1241.5,-1566 1241.5,-1572 1241.5,-1572 1241.5,-1584 1241.5,-1584 1241.5,-1590 1235.5,-1596 1229.5,-1596"/>
<text text-anchor="middle" x="1134.5" y="-1575.8" font-family="Courier,monospace" font-size="9.00">{CIccProfile::calcNormIlluminantXYZ()}</text>
</g>
<!-- Node0x5affe5fed270&#45;&gt;Node0x5affe5feefb0 -->
<g id="edge48" class="edge">
<title>Node0x5affe5fed270&#45;&gt;Node0x5affe5feefb0</title>
<path fill="none" stroke="#4a6fa5" d="M724.04,-1401.11C763.85,-1415.25 817.44,-1437.17 860,-1465 903.95,-1493.73 899,-1522.58 946,-1546 968.83,-1557.37 994.95,-1564.8 1020.3,-1569.62"/>
<polygon fill="#4a6fa5" stroke="#4a6fa5" points="1020.1,-1572.07 1027.43,-1570.91 1020.98,-1567.25 1020.1,-1572.07"/>
</g>
<!-- Node0x5affe5ff0b70 -->
<g id="node40" class="node">
<title>Node0x5affe5ff0b70</title>
<path fill="#f0f4ff" stroke="black" d="M848,-1271C848,-1271 485,-1271 485,-1271 479,-1271 473,-1265 473,-1259 473,-1259 473,-1247 473,-1247 473,-1241 479,-1235 485,-1235 485,-1235 848,-1235 848,-1235 854,-1235 860,-1241 860,-1247 860,-1247 860,-1259 860,-1259 860,-1265 854,-1271 848,-1271"/>
<text text-anchor="middle" x="666.5" y="-1250.8" font-family="Courier,monospace" font-size="9.00">{CIccCombinedConnectionConditions::~CIccCombinedConnectionConditions()}</text>
</g>
<!-- Node0x5affe5ff0b70&#45;&gt;Node0x5affe5fef840 -->
<g id="edge49" class="edge">
<title>Node0x5affe5ff0b70&#45;&gt;Node0x5affe5fef840</title>
<path fill="none" stroke="#4a6fa5" d="M860.07,-1253C885.95,-1253 912.51,-1253 938.43,-1253"/>
<polygon fill="#4a6fa5" stroke="#4a6fa5" points="938.73,-1255.45 945.73,-1253 938.73,-1250.55 938.73,-1255.45"/>
</g>
<!-- Node0x5affe5ff0ac0 -->
<g id="node41" class="node">
<title>Node0x5affe5ff0ac0</title>
<path fill="#f0f4ff" stroke="black" d="M375,-11016C375,-11016 12,-11016 12,-11016 6,-11016 0,-11010 0,-11004 0,-11004 0,-10992 0,-10992 0,-10986 6,-10980 12,-10980 12,-10980 375,-10980 375,-10980 381,-10980 387,-10986 387,-10992 387,-10992 387,-11004 387,-11004 387,-11010 381,-11016 375,-11016"/>
<text text-anchor="middle" x="193.5" y="-10995.8" font-family="Courier,monospace" font-size="9.00">{CIccCombinedConnectionConditions::~CIccCombinedConnectionConditions()}</text>
</g>
<!-- Node0x5affe5ff0440 -->
<g id="node42" class="node">
<title>Node0x5affe5ff0440</title>
<path fill="#f0f4ff" stroke="black" d="M688,-11016C688,-11016 645,-11016 645,-11016 639,-11016 633,-11010 633,-11004 633,-11004 633,-10992 633,-10992 633,-10986 639,-10980 645,-10980 645,-10980 688,-10980 688,-10980 694,-10980 700,-10986 700,-10992 700,-10992 700,-11004 700,-11004 700,-11010 694,-11016 688,-11016"/>
<text text-anchor="middle" x="666.5" y="-10995.8" font-family="Courier,monospace" font-size="9.00">{delete()}</text>
</g>
<!-- Node0x5affe5ff0ac0&#45;&gt;Node0x5affe5ff0440 -->
<g id="edge50" class="edge">
<title>Node0x5affe5ff0ac0&#45;&gt;Node0x5affe5ff0440</title>
<path fill="none" stroke="#4a6fa5" d="M387.09,-10998C475.71,-10998 572.72,-10998 625.61,-10998"/>
<polygon fill="#4a6fa5" stroke="#4a6fa5" points="625.77,-11000.45 632.77,-10998 625.77,-10995.55 625.77,-11000.45"/>
</g>
<!-- Node0x5affe5ff02f0 -->
<g id="node43" class="node">
<title>Node0x5affe5ff02f0</title>
<path fill="#f0f4ff" stroke="black" d="M349,-12641C349,-12641 38,-12641 38,-12641 32,-12641 26,-12635 26,-12629 26,-12629 26,-12617 26,-12617 26,-12611 32,-12605 38,-12605 38,-12605 349,-12605 349,-12605 355,-12605 361,-12611 361,-12617 361,-12617 361,-12629 361,-12629 361,-12635 355,-12641 349,-12641"/>
<text text-anchor="middle" x="193.5" y="-12620.8" font-family="Courier,monospace" font-size="9.00">{CIccCombinedConnectionConditions::getPccViewingConditions()}</text>
</g>
<!-- Node0x5affe5ff4e50 -->
<g id="node44" class="node">
<title>Node0x5affe5ff4e50</title>
<path fill="#f0f4ff" stroke="black" d="M346.5,-13486C346.5,-13486 40.5,-13486 40.5,-13486 34.5,-13486 28.5,-13480 28.5,-13474 28.5,-13474 28.5,-13462 28.5,-13462 28.5,-13456 34.5,-13450 40.5,-13450 40.5,-13450 346.5,-13450 346.5,-13450 352.5,-13450 358.5,-13456 358.5,-13462 358.5,-13462 358.5,-13474 358.5,-13474 358.5,-13480 352.5,-13486 346.5,-13486"/>
<text text-anchor="middle" x="193.5" y="-13465.8" font-family="Courier,monospace" font-size="9.00">{CIccCombinedConnectionConditions::getCustomToStandardPcc()}</text>
</g>
<!-- Node0x5affe5ff6ed0 -->
<g id="node45" class="node">
<title>Node0x5affe5ff6ed0</title>
<path fill="#f0f4ff" stroke="black" d="M346.5,-13941C346.5,-13941 40.5,-13941 40.5,-13941 34.5,-13941 28.5,-13935 28.5,-13929 28.5,-13929 28.5,-13917 28.5,-13917 28.5,-13911 34.5,-13905 40.5,-13905 40.5,-13905 346.5,-13905 346.5,-13905 352.5,-13905 358.5,-13911 358.5,-13917 358.5,-13917 358.5,-13929 358.5,-13929 358.5,-13935 352.5,-13941 346.5,-13941"/>
<text text-anchor="middle" x="193.5" y="-13920.8" font-family="Courier,monospace" font-size="9.00">{CIccCombinedConnectionConditions::getStandardToCustomPcc()}</text>
</g>
<!-- Node0x5affe5ff6b20 -->
<g id="node46" class="node">
<title>Node0x5affe5ff6b20</title>
<path fill="#f0f4ff" stroke="black" d="M814,-426C814,-426 519,-426 519,-426 513,-426 507,-420 507,-414 507,-414 507,-402 507,-402 507,-396 513,-390 519,-390 519,-390 814,-390 814,-390 820,-390 826,-396 826,-402 826,-402 826,-414 826,-414 826,-420 820,-426 814,-426"/>
<text text-anchor="middle" x="666.5" y="-405.8" font-family="Courier,monospace" font-size="9.00">{CIccCombinedConnectionConditions::getNormIlluminantXYZ()}</text>
</g>
<!-- Node0x5affe5ff6b20&#45;&gt;Node0x5affe5fd5c50 -->
<g id="edge51" class="edge">
<title>Node0x5affe5ff6b20&#45;&gt;Node0x5affe5fd5c50</title>
<path fill="none" stroke="#4a6fa5" d="M796.69,-389.98C881.45,-378.16 989.26,-363.12 1059.76,-353.29"/>
<polygon fill="#4a6fa5" stroke="#4a6fa5" points="1060.29,-355.69 1066.89,-352.29 1059.62,-350.83 1060.29,-355.69"/>
</g>
<!-- Node0x5affe5ff5150 -->
<g id="node47" class="node">
<title>Node0x5affe5ff5150</title>
<path fill="#f0f4ff" stroke="black" d="M811.5,-361C811.5,-361 521.5,-361 521.5,-361 515.5,-361 509.5,-355 509.5,-349 509.5,-349 509.5,-337 509.5,-337 509.5,-331 515.5,-325 521.5,-325 521.5,-325 811.5,-325 811.5,-325 817.5,-325 823.5,-331 823.5,-337 823.5,-337 823.5,-349 823.5,-349 823.5,-355 817.5,-361 811.5,-361"/>
<text text-anchor="middle" x="666.5" y="-340.8" font-family="Courier,monospace" font-size="9.00">{CIccCombinedConnectionConditions::getLumIlluminantXYZ()}</text>
</g>
<!-- Node0x5affe5ff5150&#45;&gt;Node0x5affe5fd5c50 -->
<g id="edge52" class="edge">
<title>Node0x5affe5ff5150&#45;&gt;Node0x5affe5fd5c50</title>
<path fill="none" stroke="#4a6fa5" d="M823.64,-343C903.36,-343 996.59,-343 1059.81,-343"/>
<polygon fill="#4a6fa5" stroke="#4a6fa5" points="1059.98,-345.45 1066.98,-343 1059.98,-340.55 1059.98,-345.45"/>
</g>
<!-- Node0x5affe5fe0440 -->
<g id="node48" class="node">
<title>Node0x5affe5fe0440</title>
<path fill="#f0f4ff" stroke="black" d="M803.5,-296C803.5,-296 529.5,-296 529.5,-296 523.5,-296 517.5,-290 517.5,-284 517.5,-284 517.5,-272 517.5,-272 517.5,-266 523.5,-260 529.5,-260 529.5,-260 803.5,-260 803.5,-260 809.5,-260 815.5,-266 815.5,-272 815.5,-272 815.5,-284 815.5,-284 815.5,-290 809.5,-296 803.5,-296"/>
<text text-anchor="middle" x="666.5" y="-275.8" font-family="Courier,monospace" font-size="9.00">{CIccCombinedConnectionConditions::getMediaWhiteXYZ()}</text>
</g>
<!-- Node0x5affe5fe0440&#45;&gt;Node0x5affe5fd5c50 -->
<g id="edge53" class="edge">
<title>Node0x5affe5fe0440&#45;&gt;Node0x5affe5fd5c50</title>
<path fill="none" stroke="#4a6fa5" d="M796.69,-296.02C881.45,-307.84 989.26,-322.88 1059.76,-332.71"/>
<polygon fill="#4a6fa5" stroke="#4a6fa5" points="1059.62,-335.17 1066.89,-333.71 1060.29,-330.31 1059.62,-335.17"/>
</g>
<!-- Node0x5affe5ffa770 -->
<g id="node49" class="node">
<title>Node0x5affe5ffa770</title>
<path fill="#f0f4ff" stroke="black" d="M370,-14201C370,-14201 17,-14201 17,-14201 11,-14201 5,-14195 5,-14189 5,-14189 5,-14177 5,-14177 5,-14171 11,-14165 17,-14165 17,-14165 370,-14165 370,-14165 376,-14165 382,-14171 382,-14177 382,-14177 382,-14189 382,-14189 382,-14195 376,-14201 370,-14201"/>
<text text-anchor="middle" x="193.5" y="-14180.8" font-family="Courier,monospace" font-size="9.00">{IIccProfileConnectionConditions::~IIccProfileConnectionConditions()}</text>
</g>
<!-- Node0x5affe5fe10c0 -->
<g id="node50" class="node">
<title>Node0x5affe5fe10c0</title>
<path fill="#f0f4ff" stroke="black" d="M690.5,-14201C690.5,-14201 642.5,-14201 642.5,-14201 636.5,-14201 630.5,-14195 630.5,-14189 630.5,-14189 630.5,-14177 630.5,-14177 630.5,-14171 636.5,-14165 642.5,-14165 642.5,-14165 690.5,-14165 690.5,-14165 696.5,-14165 702.5,-14171 702.5,-14177 702.5,-14177 702.5,-14189 702.5,-14189 702.5,-14195 696.5,-14201 690.5,-14201"/>
<text text-anchor="middle" x="666.5" y="-14180.8" font-family="Courier,monospace" font-size="9.00">{llvm.trap}</text>
</g>
<!-- Node0x5affe5ffa770&#45;&gt;Node0x5affe5fe10c0 -->
<g id="edge54" class="edge">
<title>Node0x5affe5ffa770&#45;&gt;Node0x5affe5fe10c0</title>
<path fill="none" stroke="#4a6fa5" d="M382.01,-14183C470.64,-14183 568.74,-14183 623.17,-14183"/>
<polygon fill="#4a6fa5" stroke="#4a6fa5" points="623.24,-14185.45 630.24,-14183 623.24,-14180.55 623.24,-14185.45"/>
</g>
<!-- Node0x5affe5fe1140 -->
<g id="node51" class="node">
<title>Node0x5affe5fe1140</title>
<path fill="#f0f4ff" stroke="black" d="M241.5,-14363C241.5,-14363 145.5,-14363 145.5,-14363 139.5,-14363 133.5,-14357 133.5,-14351 133.5,-14351 133.5,-14339 133.5,-14339 133.5,-14333 139.5,-14327 145.5,-14327 145.5,-14327 241.5,-14327 241.5,-14327 247.5,-14327 253.5,-14333 253.5,-14339 253.5,-14339 253.5,-14351 253.5,-14351 253.5,-14357 247.5,-14363 241.5,-14363"/>
<text text-anchor="middle" x="193.5" y="-14342.8" font-family="Courier,monospace" font-size="9.00">{__cxa_pure_virtual}</text>
</g>
</g>
</svg>
