<?xml version="1.0" encoding="UTF-8" standalone="no"?>
<!DOCTYPE svg PUBLIC "-//W3C//DTD SVG 1.1//EN"
 "http://www.w3.org/Graphics/SVG/1.1/DTD/svg11.dtd">
<!-- Generated by graphviz version 2.43.0 (0)
 -->
<!-- Title: Call graph: /home/h02332/po/research/call&#45;graph/iccdev/proflib/IccSolve.ll Pages: 1 -->
<svg width="2722pt" height="287pt"
 viewBox="0.00 0.00 2721.50 287.00" xmlns="http://www.w3.org/2000/svg" xmlns:xlink="http://www.w3.org/1999/xlink">
<g id="graph0" class="graph" transform="scale(1 1) rotate(0) translate(4 283)">
<title>Call graph: /home/h02332/po/research/call&#45;graph/iccdev/proflib/IccSolve.ll</title>
<polygon fill="white" stroke="transparent" points="-4,4 -4,-283 2717.5,-283 2717.5,4 -4,4"/>
<text text-anchor="middle" x="1356.75" y="-7.8" font-family="Times,serif" font-size="14.00">Call graph: /home/h02332/po/research/call&#45;graph/iccdev/proflib/IccSolve.ll</text>
<!-- Node0x6326574a8c30 -->
<g id="node1" class="node">
<title>Node0x6326574a8c30</title>
<polygon fill="none" stroke="black" points="110,-169.5 110,-205.5 275,-205.5 275,-169.5 110,-169.5"/>
<text text-anchor="middle" x="192.5" y="-183.8" font-family="Times,serif" font-size="14.00">__cxx_global_var_init</text>
</g>
<!-- Node0x6326574a8790 -->
<g id="node2" class="node">
<title>Node0x6326574a8790</title>
<polygon fill="none" stroke="black" points="0,-96.5 0,-132.5 275,-132.5 275,-96.5 0,-96.5"/>
<text text-anchor="middle" x="137.5" y="-110.8" font-family="Times,serif" font-size="14.00">_ZN22CIccSimpleMatrixSolverC2Ev</text>
</g>
<!-- Node0x6326574a8c30&#45;&gt;Node0x6326574a8790 -->
<g id="edge1" class="edge">
<title>Node0x6326574a8c30&#45;&gt;Node0x6326574a8790</title>
<path fill="none" stroke="black" d="M179.19,-169.31C172.5,-160.68 164.27,-150.06 156.89,-140.53"/>
<polygon fill="black" stroke="black" points="159.58,-138.29 150.69,-132.53 154.05,-142.58 159.58,-138.29"/>
</g>
<!-- Node0x6326574a8400 -->
<g id="node3" class="node">
<title>Node0x6326574a8400</title>
<polygon fill="none" stroke="black" points="27,-23.5 27,-59.5 248,-59.5 248,-23.5 27,-23.5"/>
<text text-anchor="middle" x="137.5" y="-37.8" font-family="Times,serif" font-size="14.00">_ZN16IIccMatrixSolverC2Ev</text>
</g>
<!-- Node0x6326574a8790&#45;&gt;Node0x6326574a8400 -->
<g id="edge2" class="edge">
<title>Node0x6326574a8790&#45;&gt;Node0x6326574a8400</title>
<path fill="none" stroke="black" d="M137.5,-96.31C137.5,-88.29 137.5,-78.55 137.5,-69.57"/>
<polygon fill="black" stroke="black" points="141,-69.53 137.5,-59.53 134,-69.53 141,-69.53"/>
</g>
<!-- Node0x6326574a8230 -->
<g id="node4" class="node">
<title>Node0x6326574a8230</title>
<polygon fill="none" stroke="black" points="476.5,-242.5 476.5,-278.5 812.5,-278.5 812.5,-242.5 476.5,-242.5"/>
<text text-anchor="middle" x="644.5" y="-256.8" font-family="Times,serif" font-size="14.00">_Z18IccSetMatrixSolverP16IIccMatrixSolver</text>
</g>
<!-- Node0x6326574a94c0 -->
<g id="node5" class="node">
<title>Node0x6326574a94c0</title>
<polygon fill="none" stroke="black" points="830,-242.5 830,-278.5 1081,-278.5 1081,-242.5 830,-242.5"/>
<text text-anchor="middle" x="955.5" y="-256.8" font-family="Times,serif" font-size="14.00">_Z25IccGetDefaultMatrixSolverv</text>
</g>
<!-- Node0x6326574aad50 -->
<g id="node6" class="node">
<title>Node0x6326574aad50</title>
<polygon fill="none" stroke="black" points="321,-169.5 321,-205.5 500,-205.5 500,-169.5 321,-169.5"/>
<text text-anchor="middle" x="410.5" y="-183.8" font-family="Times,serif" font-size="14.00">__cxx_global_var_init.1</text>
</g>
<!-- Node0x6326574aa790 -->
<g id="node7" class="node">
<title>Node0x6326574aa790</title>
<polygon fill="none" stroke="black" points="293.5,-96.5 293.5,-132.5 581.5,-132.5 581.5,-96.5 293.5,-96.5"/>
<text text-anchor="middle" x="437.5" y="-110.8" font-family="Times,serif" font-size="14.00">_ZN24CIccSimpleMatrixInverterC2Ev</text>
</g>
<!-- Node0x6326574aad50&#45;&gt;Node0x6326574aa790 -->
<g id="edge3" class="edge">
<title>Node0x6326574aad50&#45;&gt;Node0x6326574aa790</title>
<path fill="none" stroke="black" d="M417.04,-169.31C420.15,-161.12 423.95,-151.12 427.43,-141.98"/>
<polygon fill="black" stroke="black" points="430.74,-143.12 431.02,-132.53 424.2,-140.63 430.74,-143.12"/>
</g>
<!-- Node0x6326574a9f80 -->
<g id="node8" class="node">
<title>Node0x6326574a9f80</title>
<polygon fill="none" stroke="black" points="321,-23.5 321,-59.5 554,-59.5 554,-23.5 321,-23.5"/>
<text text-anchor="middle" x="437.5" y="-37.8" font-family="Times,serif" font-size="14.00">_ZN18IIccMatrixInverterC2Ev</text>
</g>
<!-- Node0x6326574aa790&#45;&gt;Node0x6326574a9f80 -->
<g id="edge4" class="edge">
<title>Node0x6326574aa790&#45;&gt;Node0x6326574a9f80</title>
<path fill="none" stroke="black" d="M437.5,-96.31C437.5,-88.29 437.5,-78.55 437.5,-69.57"/>
<polygon fill="black" stroke="black" points="441,-69.53 437.5,-59.53 434,-69.53 441,-69.53"/>
</g>
<!-- Node0x6326574ab530 -->
<g id="node9" class="node">
<title>Node0x6326574ab530</title>
<polygon fill="none" stroke="black" points="1099.5,-242.5 1099.5,-278.5 1461.5,-278.5 1461.5,-242.5 1099.5,-242.5"/>
<text text-anchor="middle" x="1280.5" y="-256.8" font-family="Times,serif" font-size="14.00">_Z20IccSetMatrixInverterP18IIccMatrixInverter</text>
</g>
<!-- Node0x632657496d10 -->
<g id="node10" class="node">
<title>Node0x632657496d10</title>
<polygon fill="none" stroke="black" points="1479.5,-242.5 1479.5,-278.5 1743.5,-278.5 1743.5,-242.5 1479.5,-242.5"/>
<text text-anchor="middle" x="1611.5" y="-256.8" font-family="Times,serif" font-size="14.00">_Z27IccGetDefaultMatrixInverterv</text>
</g>
<!-- Node0x632657495910 -->
<g id="node11" class="node">
<title>Node0x632657495910</title>
<polygon fill="none" stroke="black" points="2162.5,-242.5 2162.5,-278.5 2536.5,-278.5 2536.5,-242.5 2162.5,-242.5"/>
<text text-anchor="middle" x="2349.5" y="-256.8" font-family="Times,serif" font-size="14.00">_ZN22CIccSimpleMatrixSolver5SolveEPfPKfS2_tt</text>
</g>
<!-- Node0x632657494710 -->
<g id="node12" class="node">
<title>Node0x632657494710</title>
<polygon fill="none" stroke="black" points="2047.5,-169.5 2047.5,-205.5 2229.5,-205.5 2229.5,-169.5 2047.5,-169.5"/>
<text text-anchor="middle" x="2138.5" y="-183.8" font-family="Times,serif" font-size="14.00">llvm.memcpy.p0.p0.i64</text>
</g>
<!-- Node0x632657495910&#45;&gt;Node0x632657494710 -->
<g id="edge5" class="edge">
<title>Node0x632657495910&#45;&gt;Node0x632657494710</title>
<path fill="none" stroke="black" d="M2298.96,-242.49C2268.91,-232.38 2230.6,-219.49 2198.95,-208.84"/>
<polygon fill="black" stroke="black" points="2199.95,-205.49 2189.36,-205.61 2197.72,-212.12 2199.95,-205.49"/>
</g>
<!-- Node0x6326574a7090 -->
<g id="node13" class="node">
<title>Node0x6326574a7090</title>
<polygon fill="none" stroke="black" points="1833.5,-169.5 1833.5,-205.5 2029.5,-205.5 2029.5,-169.5 1833.5,-169.5"/>
<text text-anchor="middle" x="1931.5" y="-183.8" font-family="Times,serif" font-size="14.00">_Z17icMatrixInvert3x3Pf</text>
</g>
<!-- Node0x632657495910&#45;&gt;Node0x6326574a7090 -->
<g id="edge6" class="edge">
<title>Node0x632657495910&#45;&gt;Node0x6326574a7090</title>
<path fill="none" stroke="black" d="M2249.38,-242.49C2186.22,-231.77 2104.65,-217.91 2039.95,-206.92"/>
<polygon fill="black" stroke="black" points="2040.17,-203.41 2029.72,-205.18 2038.99,-210.31 2040.17,-203.41"/>
</g>
<!-- Node0x6326574b0ad0 -->
<g id="node14" class="node">
<title>Node0x6326574b0ad0</title>
<polygon fill="none" stroke="black" points="2247.5,-169.5 2247.5,-205.5 2537.5,-205.5 2537.5,-169.5 2247.5,-169.5"/>
<text text-anchor="middle" x="2392.5" y="-183.8" font-family="Times,serif" font-size="14.00">_Z22icVectorApplyMatrix3x3PfPKfS1_</text>
</g>
<!-- Node0x632657495910&#45;&gt;Node0x6326574b0ad0 -->
<g id="edge7" class="edge">
<title>Node0x632657495910&#45;&gt;Node0x6326574b0ad0</title>
<path fill="none" stroke="black" d="M2359.91,-242.31C2365.03,-233.85 2371.31,-223.48 2376.99,-214.11"/>
<polygon fill="black" stroke="black" points="2380,-215.9 2382.19,-205.53 2374.01,-212.27 2380,-215.9"/>
</g>
<!-- Node0x6326574affa0 -->
<g id="node15" class="node">
<title>Node0x6326574affa0</title>
<polygon fill="none" stroke="black" points="2555.5,-169.5 2555.5,-205.5 2713.5,-205.5 2713.5,-169.5 2555.5,-169.5"/>
<text text-anchor="middle" x="2634.5" y="-183.8" font-family="Times,serif" font-size="14.00">llvm.memset.p0.i64</text>
</g>
<!-- Node0x632657495910&#45;&gt;Node0x6326574affa0 -->
<g id="edge8" class="edge">
<title>Node0x632657495910&#45;&gt;Node0x6326574affa0</title>
<path fill="none" stroke="black" d="M2417.76,-242.49C2459.32,-232.14 2512.56,-218.88 2555.87,-208.09"/>
<polygon fill="black" stroke="black" points="2556.95,-211.43 2565.8,-205.61 2555.26,-204.63 2556.95,-211.43"/>
</g>
<!-- Node0x6326574a7390 -->
<g id="node16" class="node">
<title>Node0x6326574a7390</title>
<polygon fill="none" stroke="black" points="2554.5,-242.5 2554.5,-278.5 2702.5,-278.5 2702.5,-242.5 2554.5,-242.5"/>
<text text-anchor="middle" x="2628.5" y="-256.8" font-family="Times,serif" font-size="14.00">__cxa_pure_virtual</text>
</g>
<!-- Node0x6326574a6d60 -->
<g id="node17" class="node">
<title>Node0x6326574a6d60</title>
<polygon fill="none" stroke="black" points="1761.5,-242.5 1761.5,-278.5 2101.5,-278.5 2101.5,-242.5 1761.5,-242.5"/>
<text text-anchor="middle" x="1931.5" y="-256.8" font-family="Times,serif" font-size="14.00">_ZN24CIccSimpleMatrixInverter6InvertEPftt</text>
</g>
<!-- Node0x6326574a6d60&#45;&gt;Node0x6326574a7090 -->
<g id="edge9" class="edge">
<title>Node0x6326574a6d60&#45;&gt;Node0x6326574a7090</title>
<path fill="none" stroke="black" d="M1931.5,-242.31C1931.5,-234.29 1931.5,-224.55 1931.5,-215.57"/>
<polygon fill="black" stroke="black" points="1935,-215.53 1931.5,-205.53 1928,-215.53 1935,-215.53"/>
</g>
<!-- Node0x63265749afd0 -->
<g id="node18" class="node">
<title>Node0x63265749afd0</title>
<polygon fill="none" stroke="black" points="227,-242.5 227,-278.5 458,-278.5 458,-242.5 227,-242.5"/>
<text text-anchor="middle" x="342.5" y="-256.8" font-family="Times,serif" font-size="14.00">_GLOBAL__sub_I_IccSolve.cpp</text>
</g>
<!-- Node0x63265749afd0&#45;&gt;Node0x6326574a8c30 -->
<g id="edge10" class="edge">
<title>Node0x63265749afd0&#45;&gt;Node0x6326574a8c30</title>
<path fill="none" stroke="black" d="M306.57,-242.49C285.94,-232.73 259.84,-220.38 237.82,-209.95"/>
<polygon fill="black" stroke="black" points="239.19,-206.73 228.66,-205.61 236.2,-213.06 239.19,-206.73"/>
</g>
<!-- Node0x63265749afd0&#45;&gt;Node0x6326574aad50 -->
<g id="edge11" class="edge">
<title>Node0x63265749afd0&#45;&gt;Node0x6326574aad50</title>
<path fill="none" stroke="black" d="M358.96,-242.31C367.4,-233.5 377.82,-222.63 387.08,-212.96"/>
<polygon fill="black" stroke="black" points="389.8,-215.17 394.19,-205.53 384.75,-210.33 389.8,-215.17"/>
</g>
</g>
</svg>
