<?xml version="1.0" encoding="UTF-8" standalone="no"?>
<!DOCTYPE svg PUBLIC "-//W3C//DTD SVG 1.1//EN"
 "http://www.w3.org/Graphics/SVG/1.1/DTD/svg11.dtd">
<!-- Generated by graphviz version 2.43.0 (0)
 -->
<!-- Title: Call graph: /home/h02332/po/research/call&#45;graph/iccdev/proflib/IccSolve.ll Pages: 1 -->
<svg width="610pt" height="543pt"
 viewBox="0.00 0.00 610.20 543.20" xmlns="http://www.w3.org/2000/svg" xmlns:xlink="http://www.w3.org/1999/xlink">
<g id="graph0" class="graph" transform="scale(1 1) rotate(0) translate(21.6 521.6)">
<title>Call graph: /home/h02332/po/research/call&#45;graph/iccdev/proflib/IccSolve.ll</title>
<polygon fill="white" stroke="transparent" points="-21.6,21.6 -21.6,-521.6 588.6,-521.6 588.6,21.6 -21.6,21.6"/>
<!-- Node0x61983a470a10 -->
<g id="node1" class="node">
<title>Node0x61983a470a10</title>
<path fill="#f0f4ff" stroke="black" d="M263.5,-36C263.5,-36 22.5,-36 22.5,-36 16.5,-36 10.5,-30 10.5,-24 10.5,-24 10.5,-12 10.5,-12 10.5,-6 16.5,0 22.5,0 22.5,0 263.5,0 263.5,0 269.5,0 275.5,-6 275.5,-12 275.5,-12 275.5,-24 275.5,-24 275.5,-30 269.5,-36 263.5,-36"/>
<text text-anchor="middle" x="143" y="-15.8" font-family="Courier,monospace" font-size="9.00">CIccSimpleMatrixSolver::CIccSimpleMatrixSolver()</text>
</g>
<!-- Node0x61983a470530 -->
<g id="node2" class="node">
<title>Node0x61983a470530</title>
<path fill="#f0f4ff" stroke="black" d="M544.5,-36C544.5,-36 366.5,-36 366.5,-36 360.5,-36 354.5,-30 354.5,-24 354.5,-24 354.5,-12 354.5,-12 354.5,-6 360.5,0 366.5,0 366.5,0 544.5,0 544.5,0 550.5,0 556.5,-6 556.5,-12 556.5,-12 556.5,-24 556.5,-24 556.5,-30 550.5,-36 544.5,-36"/>
<text text-anchor="middle" x="455.5" y="-15.8" font-family="Courier,monospace" font-size="9.00">IIccMatrixSolver::IIccMatrixSolver()</text>
</g>
<!-- Node0x61983a470a10&#45;&gt;Node0x61983a470530 -->
<g id="edge1" class="edge">
<title>Node0x61983a470a10&#45;&gt;Node0x61983a470530</title>
<path fill="none" stroke="#4a6fa5" d="M275.68,-18C299.8,-18 324.71,-18 347.98,-18"/>
<polygon fill="#4a6fa5" stroke="#4a6fa5" points="348.18,-20.1 354.18,-18 348.18,-15.9 348.18,-20.1"/>
</g>
<!-- Node0x61983a4702b0 -->
<g id="node3" class="node">
<title>Node0x61983a4702b0</title>
<path fill="#f0f4ff" stroke="black" d="M190,-94C190,-94 96,-94 96,-94 90,-94 84,-88 84,-82 84,-82 84,-70 84,-70 84,-64 90,-58 96,-58 96,-58 190,-58 190,-58 196,-58 202,-64 202,-70 202,-70 202,-82 202,-82 202,-88 196,-94 190,-94"/>
<text text-anchor="middle" x="143" y="-73.8" font-family="Courier,monospace" font-size="9.00">IccSetMatrixSolver()</text>
</g>
<!-- Node0x61983a471e20 -->
<g id="node4" class="node">
<title>Node0x61983a471e20</title>
<path fill="#f0f4ff" stroke="black" d="M208,-152C208,-152 78,-152 78,-152 72,-152 66,-146 66,-140 66,-140 66,-128 66,-128 66,-122 72,-116 78,-116 78,-116 208,-116 208,-116 214,-116 220,-122 220,-128 220,-128 220,-140 220,-140 220,-146 214,-152 208,-152"/>
<text text-anchor="middle" x="143" y="-131.8" font-family="Courier,monospace" font-size="9.00">IccGetDefaultMatrixSolver()</text>
</g>
<!-- Node0x61983a4728d0 -->
<g id="node5" class="node">
<title>Node0x61983a4728d0</title>
<path fill="#f0f4ff" stroke="black" d="M274,-210C274,-210 12,-210 12,-210 6,-210 0,-204 0,-198 0,-198 0,-186 0,-186 0,-180 6,-174 12,-174 12,-174 274,-174 274,-174 280,-174 286,-180 286,-186 286,-186 286,-198 286,-198 286,-204 280,-210 274,-210"/>
<text text-anchor="middle" x="143" y="-189.8" font-family="Courier,monospace" font-size="9.00">CIccSimpleMatrixInverter::CIccSimpleMatrixInverter()</text>
</g>
<!-- Node0x61983a472630 -->
<g id="node6" class="node">
<title>Node0x61983a472630</title>
<path fill="#f0f4ff" stroke="black" d="M555,-210C555,-210 356,-210 356,-210 350,-210 344,-204 344,-198 344,-198 344,-186 344,-186 344,-180 350,-174 356,-174 356,-174 555,-174 555,-174 561,-174 567,-180 567,-186 567,-186 567,-198 567,-198 567,-204 561,-210 555,-210"/>
<text text-anchor="middle" x="455.5" y="-189.8" font-family="Courier,monospace" font-size="9.00">IIccMatrixInverter::IIccMatrixInverter()</text>
</g>
<!-- Node0x61983a4728d0&#45;&gt;Node0x61983a472630 -->
<g id="edge2" class="edge">
<title>Node0x61983a4728d0&#45;&gt;Node0x61983a472630</title>
<path fill="none" stroke="#4a6fa5" d="M286.07,-192C303.28,-192 320.71,-192 337.5,-192"/>
<polygon fill="#4a6fa5" stroke="#4a6fa5" points="337.65,-194.1 343.65,-192 337.65,-189.9 337.65,-194.1"/>
</g>
<!-- Node0x61983a4735d0 -->
<g id="node7" class="node">
<title>Node0x61983a4735d0</title>
<path fill="#f0f4ff" stroke="black" d="M195,-268C195,-268 91,-268 91,-268 85,-268 79,-262 79,-256 79,-256 79,-244 79,-244 79,-238 85,-232 91,-232 91,-232 195,-232 195,-232 201,-232 207,-238 207,-244 207,-244 207,-256 207,-256 207,-262 201,-268 195,-268"/>
<text text-anchor="middle" x="143" y="-247.8" font-family="Courier,monospace" font-size="9.00">IccSetMatrixInverter()</text>
</g>
<!-- Node0x61983a45ee50 -->
<g id="node8" class="node">
<title>Node0x61983a45ee50</title>
<path fill="#f0f4ff" stroke="black" d="M213.5,-326C213.5,-326 72.5,-326 72.5,-326 66.5,-326 60.5,-320 60.5,-314 60.5,-314 60.5,-302 60.5,-302 60.5,-296 66.5,-290 72.5,-290 72.5,-290 213.5,-290 213.5,-290 219.5,-290 225.5,-296 225.5,-302 225.5,-302 225.5,-314 225.5,-314 225.5,-320 219.5,-326 213.5,-326"/>
<text text-anchor="middle" x="143" y="-305.8" font-family="Courier,monospace" font-size="9.00">IccGetDefaultMatrixInverter()</text>
</g>
<!-- Node0x61983a45ea90 -->
<g id="node9" class="node">
<title>Node0x61983a45ea90</title>
<path fill="#f0f4ff" stroke="black" d="M218.5,-384C218.5,-384 67.5,-384 67.5,-384 61.5,-384 55.5,-378 55.5,-372 55.5,-372 55.5,-360 55.5,-360 55.5,-354 61.5,-348 67.5,-348 67.5,-348 218.5,-348 218.5,-348 224.5,-348 230.5,-354 230.5,-360 230.5,-360 230.5,-372 230.5,-372 230.5,-378 224.5,-384 218.5,-384"/>
<text text-anchor="middle" x="143" y="-363.8" font-family="Courier,monospace" font-size="9.00">CIccSimpleMatrixSolver::Solve()</text>
</g>
<!-- Node0x61983a46f1c0 -->
<g id="node10" class="node">
<title>Node0x61983a46f1c0</title>
<path fill="#f0f4ff" stroke="black" d="M499.5,-442C499.5,-442 411.5,-442 411.5,-442 405.5,-442 399.5,-436 399.5,-430 399.5,-430 399.5,-418 399.5,-418 399.5,-412 405.5,-406 411.5,-406 411.5,-406 499.5,-406 499.5,-406 505.5,-406 511.5,-412 511.5,-418 511.5,-418 511.5,-430 511.5,-430 511.5,-436 505.5,-442 499.5,-442"/>
<text text-anchor="middle" x="455.5" y="-421.8" font-family="Courier,monospace" font-size="9.00">icMatrixInvert3x3()</text>
</g>
<!-- Node0x61983a45ea90&#45;&gt;Node0x61983a46f1c0 -->
<g id="edge3" class="edge">
<title>Node0x61983a45ea90&#45;&gt;Node0x61983a46f1c0</title>
<path fill="none" stroke="#4a6fa5" d="M230.9,-382.23C282.59,-391.89 346.89,-403.9 393.26,-412.56"/>
<polygon fill="#4a6fa5" stroke="#4a6fa5" points="393.11,-414.67 399.39,-413.71 393.88,-410.54 393.11,-414.67"/>
</g>
<!-- Node0x61983a4790e0 -->
<g id="node11" class="node">
<title>Node0x61983a4790e0</title>
<path fill="#f0f4ff" stroke="black" d="M513,-384C513,-384 398,-384 398,-384 392,-384 386,-378 386,-372 386,-372 386,-360 386,-360 386,-354 392,-348 398,-348 398,-348 513,-348 513,-348 519,-348 525,-354 525,-360 525,-360 525,-372 525,-372 525,-378 519,-384 513,-384"/>
<text text-anchor="middle" x="455.5" y="-363.8" font-family="Courier,monospace" font-size="9.00">icVectorApplyMatrix3x3()</text>
</g>
<!-- Node0x61983a45ea90&#45;&gt;Node0x61983a4790e0 -->
<g id="edge4" class="edge">
<title>Node0x61983a45ea90&#45;&gt;Node0x61983a4790e0</title>
<path fill="none" stroke="#4a6fa5" d="M230.9,-366C277.68,-366 334.8,-366 379.6,-366"/>
<polygon fill="#4a6fa5" stroke="#4a6fa5" points="379.84,-368.1 385.84,-366 379.84,-363.9 379.84,-368.1"/>
</g>
<!-- Node0x61983a46eec0 -->
<g id="node12" class="node">
<title>Node0x61983a46eec0</title>
<path fill="#f0f4ff" stroke="black" d="M226.5,-442C226.5,-442 59.5,-442 59.5,-442 53.5,-442 47.5,-436 47.5,-430 47.5,-430 47.5,-418 47.5,-418 47.5,-412 53.5,-406 59.5,-406 59.5,-406 226.5,-406 226.5,-406 232.5,-406 238.5,-412 238.5,-418 238.5,-418 238.5,-430 238.5,-430 238.5,-436 232.5,-442 226.5,-442"/>
<text text-anchor="middle" x="143" y="-421.8" font-family="Courier,monospace" font-size="9.00">CIccSimpleMatrixInverter::Invert()</text>
</g>
<!-- Node0x61983a46eec0&#45;&gt;Node0x61983a46f1c0 -->
<g id="edge5" class="edge">
<title>Node0x61983a46eec0&#45;&gt;Node0x61983a46f1c0</title>
<path fill="none" stroke="#4a6fa5" d="M238.85,-424C289.1,-424 349.35,-424 393.37,-424"/>
<polygon fill="#4a6fa5" stroke="#4a6fa5" points="393.48,-426.1 399.47,-424 393.47,-421.9 393.48,-426.1"/>
</g>
<!-- Node0x61983a463450 -->
<g id="node13" class="node">
<title>Node0x61983a463450</title>
<path fill="#f0f4ff" stroke="black" d="M208,-500C208,-500 78,-500 78,-500 72,-500 66,-494 66,-488 66,-488 66,-476 66,-476 66,-470 72,-464 78,-464 78,-464 208,-464 208,-464 214,-464 220,-470 220,-476 220,-476 220,-488 220,-488 220,-494 214,-500 208,-500"/>
<text text-anchor="middle" x="143" y="-479.8" font-family="Courier,monospace" font-size="9.00">_GLOBAL__sub_I_IccSolve.cpp</text>
</g>
</g>
</svg>
