<?xml version="1.0" encoding="UTF-8" standalone="no"?>
<!DOCTYPE svg PUBLIC "-//W3C//DTD SVG 1.1//EN"
 "http://www.w3.org/Graphics/SVG/1.1/DTD/svg11.dtd">
<!-- Generated by graphviz version 2.43.0 (0)
 -->
<!-- Title: Call graph: /home/h02332/po/research/call&#45;graph/iccdev/proflib/IccSparseMatrix.ll Pages: 1 -->
<svg width="1656pt" height="2371pt"
 viewBox="0.00 0.00 1656.20 2371.00" xmlns="http://www.w3.org/2000/svg" xmlns:xlink="http://www.w3.org/1999/xlink">
<g id="graph0" class="graph" transform="scale(1 1) rotate(0) translate(21.6 2349.4)">
<title>Call graph: /home/h02332/po/research/call&#45;graph/iccdev/proflib/IccSparseMatrix.ll</title>
<polygon fill="white" stroke="transparent" points="-21.6,21.6 -21.6,-2349.4 1634.6,-2349.4 1634.6,21.6 -21.6,21.6"/>
<!-- Node0x577f82066d20 -->
<g id="node1" class="node">
<title>Node0x577f82066d20</title>
<path fill="#f0f4ff" stroke="black" d="M234.5,-181.8C234.5,-181.8 56.5,-181.8 56.5,-181.8 50.5,-181.8 44.5,-175.8 44.5,-169.8 44.5,-169.8 44.5,-157.8 44.5,-157.8 44.5,-151.8 50.5,-145.8 56.5,-145.8 56.5,-145.8 234.5,-145.8 234.5,-145.8 240.5,-145.8 246.5,-151.8 246.5,-157.8 246.5,-157.8 246.5,-169.8 246.5,-169.8 246.5,-175.8 240.5,-181.8 234.5,-181.8"/>
<text text-anchor="middle" x="145.5" y="-161.6" font-family="Courier,monospace" font-size="9.00">CIccSparseMatrix::CIccSparseMatrix()</text>
</g>
<!-- Node0x577f81f14530 -->
<g id="node2" class="node">
<title>Node0x577f81f14530</title>
<path fill="#f0f4ff" stroke="black" d="M552,-239.8C552,-239.8 437,-239.8 437,-239.8 431,-239.8 425,-233.8 425,-227.8 425,-227.8 425,-215.8 425,-215.8 425,-209.8 431,-203.8 437,-203.8 437,-203.8 552,-203.8 552,-203.8 558,-203.8 564,-209.8 564,-215.8 564,-215.8 564,-227.8 564,-227.8 564,-233.8 558,-239.8 552,-239.8"/>
<text text-anchor="middle" x="494.5" y="-219.6" font-family="Courier,monospace" font-size="9.00">CIccSparseMatrix::Init()</text>
</g>
<!-- Node0x577f82066d20&#45;&gt;Node0x577f81f14530 -->
<g id="edge1" class="edge">
<title>Node0x577f82066d20&#45;&gt;Node0x577f81f14530</title>
<path fill="none" stroke="#4a6fa5" d="M246.87,-180.58C301.78,-189.76 368.66,-200.94 418.91,-209.34"/>
<polygon fill="#4a6fa5" stroke="#4a6fa5" points="418.69,-211.43 424.96,-210.35 419.38,-207.29 418.69,-211.43"/>
</g>
<!-- Node0x577f8206dfe0 -->
<g id="node3" class="node">
<title>Node0x577f8206dfe0</title>
<path fill="#f0f4ff" stroke="black" d="M956,-355.8C956,-355.8 726,-355.8 726,-355.8 720,-355.8 714,-349.8 714,-343.8 714,-343.8 714,-331.8 714,-331.8 714,-325.8 720,-319.8 726,-319.8 726,-319.8 956,-319.8 956,-319.8 962,-319.8 968,-325.8 968,-331.8 968,-331.8 968,-343.8 968,-343.8 968,-349.8 962,-355.8 956,-355.8"/>
<text text-anchor="middle" x="841" y="-335.6" font-family="Courier,monospace" font-size="9.00">CIccSparseMatrixUInt8::CIccSparseMatrixUInt8()</text>
</g>
<!-- Node0x577f81f14530&#45;&gt;Node0x577f8206dfe0 -->
<g id="edge2" class="edge">
<title>Node0x577f81f14530&#45;&gt;Node0x577f8206dfe0</title>
<path fill="none" stroke="#4a6fa5" d="M531.23,-239.81C571.05,-259.24 637.75,-289.93 698,-308.8 709.04,-312.26 720.7,-315.42 732.39,-318.26"/>
<polygon fill="#4a6fa5" stroke="#4a6fa5" points="732.18,-320.37 738.51,-319.72 733.16,-316.28 732.18,-320.37"/>
</g>
<!-- Node0x577f8205d920 -->
<g id="node4" class="node">
<title>Node0x577f8205d920</title>
<path fill="#f0f4ff" stroke="black" d="M972,-297.8C972,-297.8 710,-297.8 710,-297.8 704,-297.8 698,-291.8 698,-285.8 698,-285.8 698,-273.8 698,-273.8 698,-267.8 704,-261.8 710,-261.8 710,-261.8 972,-261.8 972,-261.8 978,-261.8 984,-267.8 984,-273.8 984,-273.8 984,-285.8 984,-285.8 984,-291.8 978,-297.8 972,-297.8"/>
<text text-anchor="middle" x="841" y="-277.6" font-family="Courier,monospace" font-size="9.00">CIccSparseMatrixFloatNum::CIccSparseMatrixFloatNum()</text>
</g>
<!-- Node0x577f81f14530&#45;&gt;Node0x577f8205d920 -->
<g id="edge3" class="edge">
<title>Node0x577f81f14530&#45;&gt;Node0x577f8205d920</title>
<path fill="none" stroke="#4a6fa5" d="M564.39,-233.4C610.8,-241.22 673.11,-251.71 726.74,-260.74"/>
<polygon fill="#4a6fa5" stroke="#4a6fa5" points="726.63,-262.85 732.9,-261.77 727.33,-258.71 726.63,-262.85"/>
</g>
<!-- Node0x577f82056cc0 -->
<g id="node5" class="node">
<title>Node0x577f82056cc0</title>
<path fill="#f0f4ff" stroke="black" d="M961.5,-181.8C961.5,-181.8 720.5,-181.8 720.5,-181.8 714.5,-181.8 708.5,-175.8 708.5,-169.8 708.5,-169.8 708.5,-157.8 708.5,-157.8 708.5,-151.8 714.5,-145.8 720.5,-145.8 720.5,-145.8 961.5,-145.8 961.5,-145.8 967.5,-145.8 973.5,-151.8 973.5,-157.8 973.5,-157.8 973.5,-169.8 973.5,-169.8 973.5,-175.8 967.5,-181.8 961.5,-181.8"/>
<text text-anchor="middle" x="841" y="-161.6" font-family="Courier,monospace" font-size="9.00">CIccSparseMatrixUInt16::CIccSparseMatrixUInt16()</text>
</g>
<!-- Node0x577f81f14530&#45;&gt;Node0x577f82056cc0 -->
<g id="edge4" class="edge">
<title>Node0x577f81f14530&#45;&gt;Node0x577f82056cc0</title>
<path fill="none" stroke="#4a6fa5" d="M564.39,-210.21C610.8,-202.39 673.11,-191.9 726.74,-182.87"/>
<polygon fill="#4a6fa5" stroke="#4a6fa5" points="727.33,-184.9 732.9,-181.84 726.63,-180.76 727.33,-184.9"/>
</g>
<!-- Node0x577f8205c7d0 -->
<g id="node6" class="node">
<title>Node0x577f8205c7d0</title>
<path fill="#f0f4ff" stroke="black" d="M966.5,-239.8C966.5,-239.8 715.5,-239.8 715.5,-239.8 709.5,-239.8 703.5,-233.8 703.5,-227.8 703.5,-227.8 703.5,-215.8 703.5,-215.8 703.5,-209.8 709.5,-203.8 715.5,-203.8 715.5,-203.8 966.5,-203.8 966.5,-203.8 972.5,-203.8 978.5,-209.8 978.5,-215.8 978.5,-215.8 978.5,-227.8 978.5,-227.8 978.5,-233.8 972.5,-239.8 966.5,-239.8"/>
<text text-anchor="middle" x="841" y="-219.6" font-family="Courier,monospace" font-size="9.00">CIccSparseMatrixFloat32::CIccSparseMatrixFloat32()</text>
</g>
<!-- Node0x577f81f14530&#45;&gt;Node0x577f8205c7d0 -->
<g id="edge5" class="edge">
<title>Node0x577f81f14530&#45;&gt;Node0x577f8205c7d0</title>
<path fill="none" stroke="#4a6fa5" d="M564.39,-221.8C602.44,-221.8 651.17,-221.8 697.05,-221.8"/>
<polygon fill="#4a6fa5" stroke="#4a6fa5" points="697.21,-223.9 703.21,-221.8 697.21,-219.7 697.21,-223.9"/>
</g>
<!-- Node0x577f820532b0 -->
<g id="node7" class="node">
<title>Node0x577f820532b0</title>
<path fill="#f0f4ff" stroke="black" d="M966.5,-123.8C966.5,-123.8 715.5,-123.8 715.5,-123.8 709.5,-123.8 703.5,-117.8 703.5,-111.8 703.5,-111.8 703.5,-99.8 703.5,-99.8 703.5,-93.8 709.5,-87.8 715.5,-87.8 715.5,-87.8 966.5,-87.8 966.5,-87.8 972.5,-87.8 978.5,-93.8 978.5,-99.8 978.5,-99.8 978.5,-111.8 978.5,-111.8 978.5,-117.8 972.5,-123.8 966.5,-123.8"/>
<text text-anchor="middle" x="841" y="-103.6" font-family="Courier,monospace" font-size="9.00">CIccSparseMatrixFloat16::CIccSparseMatrixFloat16()</text>
</g>
<!-- Node0x577f81f14530&#45;&gt;Node0x577f820532b0 -->
<g id="edge6" class="edge">
<title>Node0x577f81f14530&#45;&gt;Node0x577f820532b0</title>
<path fill="none" stroke="#4a6fa5" d="M531.23,-203.8C571.05,-184.37 637.75,-153.68 698,-134.8 709.04,-131.34 720.7,-128.19 732.39,-125.35"/>
<polygon fill="#4a6fa5" stroke="#4a6fa5" points="733.16,-127.32 738.51,-123.89 732.18,-123.24 733.16,-127.32"/>
</g>
<!-- Node0x577f82050b60 -->
<g id="node9" class="node">
<title>Node0x577f82050b60</title>
<path fill="#f0f4ff" stroke="black" d="M1226,-341.8C1226,-341.8 1117,-341.8 1117,-341.8 1111,-341.8 1105,-335.8 1105,-329.8 1105,-329.8 1105,-317.8 1105,-317.8 1105,-311.8 1111,-305.8 1117,-305.8 1117,-305.8 1226,-305.8 1226,-305.8 1232,-305.8 1238,-311.8 1238,-317.8 1238,-317.8 1238,-329.8 1238,-329.8 1238,-335.8 1232,-341.8 1226,-341.8"/>
<text text-anchor="middle" x="1171.5" y="-321.6" font-family="Courier,monospace" font-size="9.00">CIccSparseMatrixEntry()</text>
</g>
<!-- Node0x577f8206dfe0&#45;&gt;Node0x577f82050b60 -->
<g id="edge13" class="edge">
<title>Node0x577f8206dfe0&#45;&gt;Node0x577f82050b60</title>
<path fill="none" stroke="#4a6fa5" d="M968.07,-332.43C1012.38,-330.54 1060.61,-328.49 1098.88,-326.86"/>
<polygon fill="#4a6fa5" stroke="#4a6fa5" points="1099.03,-328.95 1104.94,-326.6 1098.85,-324.76 1099.03,-328.95"/>
</g>
<!-- Node0x577f82041470 -->
<g id="node11" class="node">
<title>Node0x577f82041470</title>
<path fill="#f0f4ff" stroke="black" d="M1226,-268.8C1226,-268.8 1117,-268.8 1117,-268.8 1111,-268.8 1105,-262.8 1105,-256.8 1105,-256.8 1105,-244.8 1105,-244.8 1105,-238.8 1111,-232.8 1117,-232.8 1117,-232.8 1226,-232.8 1226,-232.8 1232,-232.8 1238,-238.8 1238,-244.8 1238,-244.8 1238,-256.8 1238,-256.8 1238,-262.8 1232,-268.8 1226,-268.8"/>
<text text-anchor="middle" x="1171.5" y="-248.6" font-family="Courier,monospace" font-size="9.00">CIccSparseMatrixEntry()</text>
</g>
<!-- Node0x577f8205d920&#45;&gt;Node0x577f82041470 -->
<g id="edge17" class="edge">
<title>Node0x577f8205d920&#45;&gt;Node0x577f82041470</title>
<path fill="none" stroke="#4a6fa5" d="M984.17,-267.25C1023.68,-263.77 1064.92,-260.12 1098.53,-257.16"/>
<polygon fill="#4a6fa5" stroke="#4a6fa5" points="1098.92,-259.23 1104.71,-256.61 1098.55,-255.05 1098.92,-259.23"/>
</g>
<!-- Node0x577f82056d50 -->
<g id="node10" class="node">
<title>Node0x577f82056d50</title>
<path fill="#f0f4ff" stroke="black" d="M1226,-181.8C1226,-181.8 1117,-181.8 1117,-181.8 1111,-181.8 1105,-175.8 1105,-169.8 1105,-169.8 1105,-157.8 1105,-157.8 1105,-151.8 1111,-145.8 1117,-145.8 1117,-145.8 1226,-145.8 1226,-145.8 1232,-145.8 1238,-151.8 1238,-157.8 1238,-157.8 1238,-169.8 1238,-169.8 1238,-175.8 1232,-181.8 1226,-181.8"/>
<text text-anchor="middle" x="1171.5" y="-161.6" font-family="Courier,monospace" font-size="9.00">CIccSparseMatrixEntry()</text>
</g>
<!-- Node0x577f82056cc0&#45;&gt;Node0x577f82056d50 -->
<g id="edge14" class="edge">
<title>Node0x577f82056cc0&#45;&gt;Node0x577f82056d50</title>
<path fill="none" stroke="#4a6fa5" d="M973.72,-163.8C1016.24,-163.8 1061.79,-163.8 1098.35,-163.8"/>
<polygon fill="#4a6fa5" stroke="#4a6fa5" points="1098.6,-165.9 1104.6,-163.8 1098.6,-161.7 1098.6,-165.9"/>
</g>
<!-- Node0x577f8205c7d0&#45;&gt;Node0x577f82041470 -->
<g id="edge16" class="edge">
<title>Node0x577f8205c7d0&#45;&gt;Node0x577f82041470</title>
<path fill="none" stroke="#4a6fa5" d="M978.93,-233.89C1020.04,-237.52 1063.49,-241.36 1098.61,-244.46"/>
<polygon fill="#4a6fa5" stroke="#4a6fa5" points="1098.45,-246.55 1104.61,-244.99 1098.82,-242.37 1098.45,-246.55"/>
</g>
<!-- Node0x577f820532b0&#45;&gt;Node0x577f82056d50 -->
<g id="edge15" class="edge">
<title>Node0x577f820532b0&#45;&gt;Node0x577f82056d50</title>
<path fill="none" stroke="#4a6fa5" d="M944.14,-123.84C994.25,-132.69 1053.4,-143.13 1098.67,-151.12"/>
<polygon fill="#4a6fa5" stroke="#4a6fa5" points="1098.41,-153.21 1104.68,-152.18 1099.14,-149.07 1098.41,-153.21"/>
</g>
<!-- Node0x577f8204fec0 -->
<g id="node8" class="node">
<title>Node0x577f8204fec0</title>
<path fill="#f0f4ff" stroke="black" d="M234.5,-413.8C234.5,-413.8 56.5,-413.8 56.5,-413.8 50.5,-413.8 44.5,-407.8 44.5,-401.8 44.5,-401.8 44.5,-389.8 44.5,-389.8 44.5,-383.8 50.5,-377.8 56.5,-377.8 56.5,-377.8 234.5,-377.8 234.5,-377.8 240.5,-377.8 246.5,-383.8 246.5,-389.8 246.5,-389.8 246.5,-401.8 246.5,-401.8 246.5,-407.8 240.5,-413.8 234.5,-413.8"/>
<text text-anchor="middle" x="145.5" y="-393.6" font-family="Courier,monospace" font-size="9.00">CIccSparseMatrix::CIccSparseMatrix()</text>
</g>
<!-- Node0x577f8204fec0&#45;&gt;Node0x577f81f14530 -->
<g id="edge8" class="edge">
<title>Node0x577f8204fec0&#45;&gt;Node0x577f81f14530</title>
<path fill="none" stroke="#4a6fa5" d="M246.66,-387.77C262.54,-383.22 277.99,-376.53 291,-366.8 335.27,-333.72 305.39,-290.76 349,-256.8 368.81,-241.38 394.42,-232.62 418.57,-227.7"/>
<polygon fill="#4a6fa5" stroke="#4a6fa5" points="419.18,-229.72 424.67,-226.52 418.39,-225.59 419.18,-229.72"/>
</g>
<!-- Node0x577f8204fec0&#45;&gt;Node0x577f8206dfe0 -->
<g id="edge7" class="edge">
<title>Node0x577f8204fec0&#45;&gt;Node0x577f8206dfe0</title>
<path fill="none" stroke="#4a6fa5" d="M237.34,-413.82C272.12,-419.87 312.25,-425.83 349,-428.8 477.91,-439.24 513.6,-456.21 640,-428.8 701.47,-415.48 766.73,-381.56 805.39,-359.11"/>
<polygon fill="#4a6fa5" stroke="#4a6fa5" points="806.78,-360.73 810.9,-355.89 804.66,-357.11 806.78,-360.73"/>
</g>
<!-- Node0x577f8204fec0&#45;&gt;Node0x577f8205d920 -->
<g id="edge10" class="edge">
<title>Node0x577f8204fec0&#45;&gt;Node0x577f8205d920</title>
<path fill="none" stroke="#4a6fa5" d="M246.53,-403.04C370.52,-410.31 573.58,-416.22 640,-382.8 677.33,-364.02 662.46,-330.78 698,-308.8 703.14,-305.63 708.56,-302.79 714.17,-300.26"/>
<polygon fill="#4a6fa5" stroke="#4a6fa5" points="715.15,-302.13 719.83,-297.83 713.49,-298.27 715.15,-302.13"/>
</g>
<!-- Node0x577f8204fec0&#45;&gt;Node0x577f82056cc0 -->
<g id="edge9" class="edge">
<title>Node0x577f8204fec0&#45;&gt;Node0x577f82056cc0</title>
<path fill="none" stroke="#4a6fa5" d="M246.65,-379.68C261.72,-376.12 276.91,-371.86 291,-366.8 318.51,-356.93 321.27,-345.06 349,-335.8 473.14,-294.37 531.61,-364.15 640,-290.8 681.92,-262.44 656.78,-222.17 698,-192.8 702.2,-189.81 706.63,-187.12 711.24,-184.68"/>
<polygon fill="#4a6fa5" stroke="#4a6fa5" points="712.29,-186.51 716.73,-181.95 710.42,-182.75 712.29,-186.51"/>
</g>
<!-- Node0x577f8204fec0&#45;&gt;Node0x577f8205c7d0 -->
<g id="edge11" class="edge">
<title>Node0x577f8204fec0&#45;&gt;Node0x577f8205c7d0</title>
<path fill="none" stroke="#4a6fa5" d="M246.61,-388.31C381.13,-377.55 607.21,-356.83 640,-336.8 679.35,-312.78 659.68,-276.43 698,-250.8 702.61,-247.72 707.47,-244.96 712.52,-242.47"/>
<polygon fill="#4a6fa5" stroke="#4a6fa5" points="713.51,-244.33 718.06,-239.89 711.74,-240.52 713.51,-244.33"/>
</g>
<!-- Node0x577f8204fec0&#45;&gt;Node0x577f820532b0 -->
<g id="edge12" class="edge">
<title>Node0x577f8204fec0&#45;&gt;Node0x577f820532b0</title>
<path fill="none" stroke="#4a6fa5" d="M246.55,-385.64C262.17,-381.31 277.57,-375.25 291,-366.8 327.26,-343.99 312.02,-311.43 349,-289.8 461.64,-223.92 533.81,-326.64 640,-250.8 686.91,-217.3 652.26,-169.88 698,-134.8 701.86,-131.84 705.95,-129.16 710.21,-126.74"/>
<polygon fill="#4a6fa5" stroke="#4a6fa5" points="711.39,-128.49 715.69,-123.81 709.41,-124.79 711.39,-128.49"/>
</g>
<!-- Node0x577f8208fd10 -->
<g id="node29" class="node">
<title>Node0x577f8208fd10</title>
<path fill="#f0f4ff" stroke="black" d="M1601,-268.8C1601,-268.8 1371,-268.8 1371,-268.8 1365,-268.8 1359,-262.8 1359,-256.8 1359,-256.8 1359,-244.8 1359,-244.8 1359,-238.8 1365,-232.8 1371,-232.8 1371,-232.8 1601,-232.8 1601,-232.8 1607,-232.8 1613,-238.8 1613,-244.8 1613,-244.8 1613,-256.8 1613,-256.8 1613,-262.8 1607,-268.8 1601,-268.8"/>
<text text-anchor="middle" x="1486" y="-248.6" font-family="Courier,monospace" font-size="9.00">IIccSparseMatrixEntry::IIccSparseMatrixEntry()</text>
</g>
<!-- Node0x577f82050b60&#45;&gt;Node0x577f8208fd10 -->
<g id="edge30" class="edge">
<title>Node0x577f82050b60&#45;&gt;Node0x577f8208fd10</title>
<path fill="none" stroke="#4a6fa5" d="M1238.01,-308.5C1285.66,-297.37 1350.54,-282.21 1401.85,-270.23"/>
<polygon fill="#4a6fa5" stroke="#4a6fa5" points="1402.35,-272.27 1407.72,-268.86 1401.4,-268.18 1402.35,-272.27"/>
</g>
<!-- Node0x577f82056d50&#45;&gt;Node0x577f8208fd10 -->
<g id="edge33" class="edge">
<title>Node0x577f82056d50&#45;&gt;Node0x577f8208fd10</title>
<path fill="none" stroke="#4a6fa5" d="M1237.25,-181.83C1288.89,-196.21 1361.12,-216.32 1414.27,-231.11"/>
<polygon fill="#4a6fa5" stroke="#4a6fa5" points="1413.99,-233.21 1420.33,-232.8 1415.12,-229.17 1413.99,-233.21"/>
</g>
<!-- Node0x577f82041470&#45;&gt;Node0x577f8208fd10 -->
<g id="edge41" class="edge">
<title>Node0x577f82041470&#45;&gt;Node0x577f8208fd10</title>
<path fill="none" stroke="#4a6fa5" d="M1238.01,-250.8C1271.31,-250.8 1313.02,-250.8 1352.63,-250.8"/>
<polygon fill="#4a6fa5" stroke="#4a6fa5" points="1352.97,-252.9 1358.97,-250.8 1352.97,-248.7 1352.97,-252.9"/>
</g>
<!-- Node0x577f82043350 -->
<g id="node12" class="node">
<title>Node0x577f82043350</title>
<path fill="#f0f4ff" stroke="black" d="M237,-471.8C237,-471.8 54,-471.8 54,-471.8 48,-471.8 42,-465.8 42,-459.8 42,-459.8 42,-447.8 42,-447.8 42,-441.8 48,-435.8 54,-435.8 54,-435.8 237,-435.8 237,-435.8 243,-435.8 249,-441.8 249,-447.8 249,-447.8 249,-459.8 249,-459.8 249,-465.8 243,-471.8 237,-471.8"/>
<text text-anchor="middle" x="145.5" y="-451.6" font-family="Courier,monospace" font-size="9.00">CIccSparseMatrix::~CIccSparseMatrix()</text>
</g>
<!-- Node0x577f82045c50 -->
<g id="node13" class="node">
<title>Node0x577f82045c50</title>
<path fill="#f0f4ff" stroke="black" d="M237,-529.8C237,-529.8 54,-529.8 54,-529.8 48,-529.8 42,-523.8 42,-517.8 42,-517.8 42,-505.8 42,-505.8 42,-499.8 48,-493.8 54,-493.8 54,-493.8 237,-493.8 237,-493.8 243,-493.8 249,-499.8 249,-505.8 249,-505.8 249,-517.8 249,-517.8 249,-523.8 243,-529.8 237,-529.8"/>
<text text-anchor="middle" x="145.5" y="-509.6" font-family="Courier,monospace" font-size="9.00">CIccSparseMatrix::~CIccSparseMatrix()</text>
</g>
<!-- Node0x577f82044f20 -->
<g id="node14" class="node">
<title>Node0x577f82044f20</title>
<path fill="#f0f4ff" stroke="black" d="M276.5,-65.8C276.5,-65.8 14.5,-65.8 14.5,-65.8 8.5,-65.8 2.5,-59.8 2.5,-53.8 2.5,-53.8 2.5,-41.8 2.5,-41.8 2.5,-35.8 8.5,-29.8 14.5,-29.8 14.5,-29.8 276.5,-29.8 276.5,-29.8 282.5,-29.8 288.5,-35.8 288.5,-41.8 288.5,-41.8 288.5,-53.8 288.5,-53.8 288.5,-59.8 282.5,-65.8 276.5,-65.8"/>
<text text-anchor="middle" x="145.5" y="-45.6" font-family="Courier,monospace" font-size="9.00">CIccSparseMatrix::operator=(CIccSparseMatrix const&amp;)</text>
</g>
<!-- Node0x577f82044f20&#45;&gt;Node0x577f81f14530 -->
<g id="edge19" class="edge">
<title>Node0x577f82044f20&#45;&gt;Node0x577f81f14530</title>
<path fill="none" stroke="#4a6fa5" d="M272.88,-65.8C279.27,-68.95 285.36,-72.59 291,-76.8 335.27,-109.89 305.39,-152.85 349,-186.8 368.81,-202.23 394.42,-210.98 418.57,-215.91"/>
<polygon fill="#4a6fa5" stroke="#4a6fa5" points="418.39,-218.02 424.67,-217.08 419.18,-213.89 418.39,-218.02"/>
</g>
<!-- Node0x577f82044f20&#45;&gt;Node0x577f8206dfe0 -->
<g id="edge18" class="edge">
<title>Node0x577f82044f20&#45;&gt;Node0x577f8206dfe0</title>
<path fill="none" stroke="#4a6fa5" d="M268.25,-65.83C276.18,-68.93 283.85,-72.56 291,-76.8 325.47,-97.23 314.15,-126.04 349,-145.8 462.95,-210.44 534.42,-115.24 640,-192.8 686.45,-226.93 652.26,-273.72 698,-308.8 701.86,-311.77 705.95,-314.44 710.21,-316.87"/>
<polygon fill="#4a6fa5" stroke="#4a6fa5" points="709.41,-318.82 715.69,-319.8 711.39,-315.12 709.41,-318.82"/>
</g>
<!-- Node0x577f82044f20&#45;&gt;Node0x577f8205d920 -->
<g id="edge21" class="edge">
<title>Node0x577f82044f20&#45;&gt;Node0x577f8205d920</title>
<path fill="none" stroke="#4a6fa5" d="M251.84,-65.89C265.15,-69.07 278.48,-72.7 291,-76.8 318.02,-85.66 321.85,-95.37 349,-103.8 474.25,-142.72 531.87,-78.57 640,-152.8 681.73,-181.45 656.78,-221.44 698,-250.8 702.2,-253.79 706.63,-256.49 711.24,-258.92"/>
<polygon fill="#4a6fa5" stroke="#4a6fa5" points="710.42,-260.86 716.73,-261.66 712.29,-257.1 710.42,-260.86"/>
</g>
<!-- Node0x577f82044f20&#45;&gt;Node0x577f82056cc0 -->
<g id="edge20" class="edge">
<title>Node0x577f82044f20&#45;&gt;Node0x577f82056cc0</title>
<path fill="none" stroke="#4a6fa5" d="M288.63,-38.34C412.27,-32.48 580.67,-30.95 640,-60.8 677.33,-79.59 662.46,-112.83 698,-134.8 703.14,-137.98 708.56,-140.81 714.17,-143.35"/>
<polygon fill="#4a6fa5" stroke="#4a6fa5" points="713.49,-145.34 719.83,-145.78 715.15,-141.48 713.49,-145.34"/>
</g>
<!-- Node0x577f82044f20&#45;&gt;Node0x577f8205c7d0 -->
<g id="edge22" class="edge">
<title>Node0x577f82044f20&#45;&gt;Node0x577f8205c7d0</title>
<path fill="none" stroke="#4a6fa5" d="M288.64,-58.75C423.68,-70.12 610.43,-88.75 640,-106.8 679.35,-130.83 659.68,-167.18 698,-192.8 702.61,-195.89 707.47,-198.65 712.52,-201.13"/>
<polygon fill="#4a6fa5" stroke="#4a6fa5" points="711.74,-203.09 718.06,-203.72 713.51,-199.28 711.74,-203.09"/>
</g>
<!-- Node0x577f82044f20&#45;&gt;Node0x577f820532b0 -->
<g id="edge23" class="edge">
<title>Node0x577f82044f20&#45;&gt;Node0x577f820532b0</title>
<path fill="none" stroke="#4a6fa5" d="M222.71,-29.72C320.49,-9.46 494.82,16.67 640,-14.8 701.47,-28.13 766.73,-62.04 805.39,-84.49"/>
<polygon fill="#4a6fa5" stroke="#4a6fa5" points="804.66,-86.5 810.9,-87.72 806.78,-82.88 804.66,-86.5"/>
</g>
<!-- Node0x577f81f630b0 -->
<g id="node15" class="node">
<title>Node0x577f81f630b0</title>
<path fill="#f0f4ff" stroke="black" d="M205.5,-123.8C205.5,-123.8 85.5,-123.8 85.5,-123.8 79.5,-123.8 73.5,-117.8 73.5,-111.8 73.5,-111.8 73.5,-99.8 73.5,-99.8 73.5,-93.8 79.5,-87.8 85.5,-87.8 85.5,-87.8 205.5,-87.8 205.5,-87.8 211.5,-87.8 217.5,-93.8 217.5,-99.8 217.5,-99.8 217.5,-111.8 217.5,-111.8 217.5,-117.8 211.5,-123.8 205.5,-123.8"/>
<text text-anchor="middle" x="145.5" y="-103.6" font-family="Courier,monospace" font-size="9.00">CIccSparseMatrix::Reset()</text>
</g>
<!-- Node0x577f81f630b0&#45;&gt;Node0x577f81f14530 -->
<g id="edge24" class="edge">
<title>Node0x577f81f630b0&#45;&gt;Node0x577f81f14530</title>
<path fill="none" stroke="#4a6fa5" d="M217.7,-112.41C241.88,-116.62 268.47,-123.51 291,-134.8 321.95,-150.31 318.36,-170.69 349,-186.8 370.48,-198.1 395.68,-205.82 418.96,-211.07"/>
<polygon fill="#4a6fa5" stroke="#4a6fa5" points="418.53,-213.13 424.84,-212.35 419.42,-209.02 418.53,-213.13"/>
</g>
<!-- Node0x577f81ed56b0 -->
<g id="node16" class="node">
<title>Node0x577f81ed56b0</title>
<path fill="#f0f4ff" stroke="black" d="M554.5,-587.8C554.5,-587.8 434.5,-587.8 434.5,-587.8 428.5,-587.8 422.5,-581.8 422.5,-575.8 422.5,-575.8 422.5,-563.8 422.5,-563.8 422.5,-557.8 428.5,-551.8 434.5,-551.8 434.5,-551.8 554.5,-551.8 554.5,-551.8 560.5,-551.8 566.5,-557.8 566.5,-563.8 566.5,-563.8 566.5,-575.8 566.5,-575.8 566.5,-581.8 560.5,-587.8 554.5,-587.8"/>
<text text-anchor="middle" x="494.5" y="-567.6" font-family="Courier,monospace" font-size="9.00">CIccSparseMatrix::Clear()</text>
</g>
<!-- Node0x577f81f62440 -->
<g id="node17" class="node">
<title>Node0x577f81f62440</title>
<path fill="#f0f4ff" stroke="black" d="M203,-355.8C203,-355.8 88,-355.8 88,-355.8 82,-355.8 76,-349.8 76,-343.8 76,-343.8 76,-331.8 76,-331.8 76,-325.8 82,-319.8 88,-319.8 88,-319.8 203,-319.8 203,-319.8 209,-319.8 215,-325.8 215,-331.8 215,-331.8 215,-343.8 215,-343.8 215,-349.8 209,-355.8 203,-355.8"/>
<text text-anchor="middle" x="145.5" y="-335.6" font-family="Courier,monospace" font-size="9.00">CIccSparseMatrix::Copy()</text>
</g>
<!-- Node0x577f81f62440&#45;&gt;Node0x577f81f14530 -->
<g id="edge25" class="edge">
<title>Node0x577f81f62440&#45;&gt;Node0x577f81f14530</title>
<path fill="none" stroke="#4a6fa5" d="M215.13,-331.64C239.99,-327.47 267.67,-320.5 291,-308.8 321.95,-293.3 318.36,-272.92 349,-256.8 370.48,-245.5 395.68,-237.78 418.96,-232.54"/>
<polygon fill="#4a6fa5" stroke="#4a6fa5" points="419.42,-234.59 424.84,-231.26 418.53,-230.48 419.42,-234.59"/>
</g>
<!-- Node0x577f81eb9030 -->
<g id="node18" class="node">
<title>Node0x577f81eb9030</title>
<path fill="#f0f4ff" stroke="black" d="M239.5,-587.8C239.5,-587.8 51.5,-587.8 51.5,-587.8 45.5,-587.8 39.5,-581.8 39.5,-575.8 39.5,-575.8 39.5,-563.8 39.5,-563.8 39.5,-557.8 45.5,-551.8 51.5,-551.8 51.5,-551.8 239.5,-551.8 239.5,-551.8 245.5,-551.8 251.5,-557.8 251.5,-563.8 251.5,-563.8 251.5,-575.8 251.5,-575.8 251.5,-581.8 245.5,-587.8 239.5,-587.8"/>
<text text-anchor="middle" x="145.5" y="-567.6" font-family="Courier,monospace" font-size="9.00">CIccSparseMatrix::FillFromFullMatrix()</text>
</g>
<!-- Node0x577f81eb9030&#45;&gt;Node0x577f81ed56b0 -->
<g id="edge26" class="edge">
<title>Node0x577f81eb9030&#45;&gt;Node0x577f81ed56b0</title>
<path fill="none" stroke="#4a6fa5" d="M251.55,-569.8C304.54,-569.8 367.67,-569.8 416.16,-569.8"/>
<polygon fill="#4a6fa5" stroke="#4a6fa5" points="416.3,-571.9 422.3,-569.8 416.3,-567.7 416.3,-571.9"/>
</g>
<!-- Node0x577f81ec1a00 -->
<g id="node19" class="node">
<title>Node0x577f81ec1a00</title>
<path fill="#f0f4ff" stroke="black" d="M229,-645.8C229,-645.8 62,-645.8 62,-645.8 56,-645.8 50,-639.8 50,-633.8 50,-633.8 50,-621.8 50,-621.8 50,-615.8 56,-609.8 62,-609.8 62,-609.8 229,-609.8 229,-609.8 235,-609.8 241,-615.8 241,-621.8 241,-621.8 241,-633.8 241,-633.8 241,-639.8 235,-645.8 229,-645.8"/>
<text text-anchor="middle" x="145.5" y="-625.6" font-family="Courier,monospace" font-size="9.00">CIccSparseMatrix::MultiplyVector()</text>
</g>
<!-- Node0x577f82090960 -->
<g id="node20" class="node">
<title>Node0x577f82090960</title>
<path fill="#f0f4ff" stroke="black" d="M263,-935.8C263,-935.8 28,-935.8 28,-935.8 22,-935.8 16,-929.8 16,-923.8 16,-923.8 16,-911.8 16,-911.8 16,-905.8 22,-899.8 28,-899.8 28,-899.8 263,-899.8 263,-899.8 269,-899.8 275,-905.8 275,-911.8 275,-911.8 275,-923.8 275,-923.8 275,-929.8 269,-935.8 263,-935.8"/>
<text text-anchor="middle" x="145.5" y="-915.6" font-family="Courier,monospace" font-size="9.00">CIccSparseMatrixUInt8::~CIccSparseMatrixUInt8()</text>
</g>
<!-- Node0x577f82091710 -->
<g id="node21" class="node">
<title>Node0x577f82091710</title>
<path fill="#f0f4ff" stroke="black" d="M612,-935.8C612,-935.8 377,-935.8 377,-935.8 371,-935.8 365,-929.8 365,-923.8 365,-923.8 365,-911.8 365,-911.8 365,-905.8 371,-899.8 377,-899.8 377,-899.8 612,-899.8 612,-899.8 618,-899.8 624,-905.8 624,-911.8 624,-911.8 624,-923.8 624,-923.8 624,-929.8 618,-935.8 612,-935.8"/>
<text text-anchor="middle" x="494.5" y="-915.6" font-family="Courier,monospace" font-size="9.00">CIccSparseMatrixUInt8::~CIccSparseMatrixUInt8()</text>
</g>
<!-- Node0x577f82090960&#45;&gt;Node0x577f82091710 -->
<g id="edge27" class="edge">
<title>Node0x577f82090960&#45;&gt;Node0x577f82091710</title>
<path fill="none" stroke="#4a6fa5" d="M275.22,-917.8C302.47,-917.8 331.31,-917.8 358.78,-917.8"/>
<polygon fill="#4a6fa5" stroke="#4a6fa5" points="358.99,-919.9 364.99,-917.8 358.99,-915.7 358.99,-919.9"/>
</g>
<!-- Node0x577f82090bb0 -->
<g id="node30" class="node">
<title>Node0x577f82090bb0</title>
<path fill="#f0f4ff" stroke="black" d="M895.5,-920.8C895.5,-920.8 786.5,-920.8 786.5,-920.8 780.5,-920.8 774.5,-914.8 774.5,-908.8 774.5,-908.8 774.5,-896.8 774.5,-896.8 774.5,-890.8 780.5,-884.8 786.5,-884.8 786.5,-884.8 895.5,-884.8 895.5,-884.8 901.5,-884.8 907.5,-890.8 907.5,-896.8 907.5,-896.8 907.5,-908.8 907.5,-908.8 907.5,-914.8 901.5,-920.8 895.5,-920.8"/>
<text text-anchor="middle" x="841" y="-900.6" font-family="Courier,monospace" font-size="9.00">CIccSparseMatrixEntry()</text>
</g>
<!-- Node0x577f82091710&#45;&gt;Node0x577f82090bb0 -->
<g id="edge31" class="edge">
<title>Node0x577f82091710&#45;&gt;Node0x577f82090bb0</title>
<path fill="none" stroke="#4a6fa5" d="M624.27,-912.2C672.9,-910.08 726.49,-907.75 768.09,-905.94"/>
<polygon fill="#4a6fa5" stroke="#4a6fa5" points="768.23,-908.03 774.13,-905.67 768.05,-903.83 768.23,-908.03"/>
</g>
<!-- Node0x577f820906e0 -->
<g id="node22" class="node">
<title>Node0x577f820906e0</title>
<path fill="#f0f4ff" stroke="black" d="M160.5,-993.8C160.5,-993.8 130.5,-993.8 130.5,-993.8 124.5,-993.8 118.5,-987.8 118.5,-981.8 118.5,-981.8 118.5,-969.8 118.5,-969.8 118.5,-963.8 124.5,-957.8 130.5,-957.8 130.5,-957.8 160.5,-957.8 160.5,-957.8 166.5,-957.8 172.5,-963.8 172.5,-969.8 172.5,-969.8 172.5,-981.8 172.5,-981.8 172.5,-987.8 166.5,-993.8 160.5,-993.8"/>
<text text-anchor="middle" x="145.5" y="-973.6" font-family="Courier,monospace" font-size="9.00">init()</text>
</g>
<!-- Node0x577f81f21910 -->
<g id="node23" class="node">
<title>Node0x577f81f21910</title>
<path fill="#f0f4ff" stroke="black" d="M208,-297.8C208,-297.8 83,-297.8 83,-297.8 77,-297.8 71,-291.8 71,-285.8 71,-285.8 71,-273.8 71,-273.8 71,-267.8 77,-261.8 83,-261.8 83,-261.8 208,-261.8 208,-261.8 214,-261.8 220,-267.8 220,-273.8 220,-273.8 220,-285.8 220,-285.8 220,-291.8 214,-297.8 208,-297.8"/>
<text text-anchor="middle" x="145.5" y="-277.6" font-family="Courier,monospace" font-size="9.00">CIccSparseMatrix::Interp()</text>
</g>
<!-- Node0x577f81f21910&#45;&gt;Node0x577f81f14530 -->
<g id="edge28" class="edge">
<title>Node0x577f81f21910&#45;&gt;Node0x577f81f14530</title>
<path fill="none" stroke="#4a6fa5" d="M220.09,-267.5C278.56,-257.73 360,-244.12 418.76,-234.3"/>
<polygon fill="#4a6fa5" stroke="#4a6fa5" points="419.16,-236.36 424.74,-233.3 418.47,-232.22 419.16,-236.36"/>
</g>
<!-- Node0x577f81f19a70 -->
<g id="node24" class="node">
<title>Node0x577f81f19a70</title>
<path fill="#f0f4ff" stroke="black" d="M205.5,-239.8C205.5,-239.8 85.5,-239.8 85.5,-239.8 79.5,-239.8 73.5,-233.8 73.5,-227.8 73.5,-227.8 73.5,-215.8 73.5,-215.8 73.5,-209.8 79.5,-203.8 85.5,-203.8 85.5,-203.8 205.5,-203.8 205.5,-203.8 211.5,-203.8 217.5,-209.8 217.5,-215.8 217.5,-215.8 217.5,-227.8 217.5,-227.8 217.5,-233.8 211.5,-239.8 205.5,-239.8"/>
<text text-anchor="middle" x="145.5" y="-219.6" font-family="Courier,monospace" font-size="9.00">CIccSparseMatrix::Union()</text>
</g>
<!-- Node0x577f81f19a70&#45;&gt;Node0x577f81f14530 -->
<g id="edge29" class="edge">
<title>Node0x577f81f19a70&#45;&gt;Node0x577f81f14530</title>
<path fill="none" stroke="#4a6fa5" d="M217.56,-221.8C276.22,-221.8 359.22,-221.8 418.84,-221.8"/>
<polygon fill="#4a6fa5" stroke="#4a6fa5" points="418.9,-223.9 424.9,-221.8 418.9,-219.7 418.9,-223.9"/>
</g>
<!-- Node0x577f8207a740 -->
<g id="node25" class="node">
<title>Node0x577f8207a740</title>
<path fill="#f0f4ff" stroke="black" d="M210.5,-1051.8C210.5,-1051.8 80.5,-1051.8 80.5,-1051.8 74.5,-1051.8 68.5,-1045.8 68.5,-1039.8 68.5,-1039.8 68.5,-1027.8 68.5,-1027.8 68.5,-1021.8 74.5,-1015.8 80.5,-1015.8 80.5,-1015.8 210.5,-1015.8 210.5,-1015.8 216.5,-1015.8 222.5,-1021.8 222.5,-1027.8 222.5,-1027.8 222.5,-1039.8 222.5,-1039.8 222.5,-1045.8 216.5,-1051.8 210.5,-1051.8"/>
<text text-anchor="middle" x="145.5" y="-1031.6" font-family="Courier,monospace" font-size="9.00">CIccSparseMatrix::IsValid()</text>
</g>
<!-- Node0x577f8208fbe0 -->
<g id="node26" class="node">
<title>Node0x577f8208fbe0</title>
<path fill="#f0f4ff" stroke="black" d="M218.5,-1109.8C218.5,-1109.8 72.5,-1109.8 72.5,-1109.8 66.5,-1109.8 60.5,-1103.8 60.5,-1097.8 60.5,-1097.8 60.5,-1085.8 60.5,-1085.8 60.5,-1079.8 66.5,-1073.8 72.5,-1073.8 72.5,-1073.8 218.5,-1073.8 218.5,-1073.8 224.5,-1073.8 230.5,-1079.8 230.5,-1085.8 230.5,-1085.8 230.5,-1097.8 230.5,-1097.8 230.5,-1103.8 224.5,-1109.8 218.5,-1109.8"/>
<text text-anchor="middle" x="145.5" y="-1089.6" font-family="Courier,monospace" font-size="9.00">CIccSparseMatrix::MaxEntries()</text>
</g>
<!-- Node0x577f8207c290 -->
<g id="node27" class="node">
<title>Node0x577f8207c290</title>
<path fill="#f0f4ff" stroke="black" d="M210.5,-1167.8C210.5,-1167.8 80.5,-1167.8 80.5,-1167.8 74.5,-1167.8 68.5,-1161.8 68.5,-1155.8 68.5,-1155.8 68.5,-1143.8 68.5,-1143.8 68.5,-1137.8 74.5,-1131.8 80.5,-1131.8 80.5,-1131.8 210.5,-1131.8 210.5,-1131.8 216.5,-1131.8 222.5,-1137.8 222.5,-1143.8 222.5,-1143.8 222.5,-1155.8 222.5,-1155.8 222.5,-1161.8 216.5,-1167.8 210.5,-1167.8"/>
<text text-anchor="middle" x="145.5" y="-1147.6" font-family="Courier,monospace" font-size="9.00">CIccSparseMatrix::MemSize()</text>
</g>
<!-- Node0x577f8207a880 -->
<g id="node28" class="node">
<title>Node0x577f8207a880</title>
<path fill="#f0f4ff" stroke="black" d="M216,-1225.8C216,-1225.8 75,-1225.8 75,-1225.8 69,-1225.8 63,-1219.8 63,-1213.8 63,-1213.8 63,-1201.8 63,-1201.8 63,-1195.8 69,-1189.8 75,-1189.8 75,-1189.8 216,-1189.8 216,-1189.8 222,-1189.8 228,-1195.8 228,-1201.8 228,-1201.8 228,-1213.8 228,-1213.8 228,-1219.8 222,-1225.8 216,-1225.8"/>
<text text-anchor="middle" x="145.5" y="-1205.6" font-family="Courier,monospace" font-size="9.00">CIccSparseMatrix::EntrySize()</text>
</g>
<!-- Node0x577f82095ea0 -->
<g id="node34" class="node">
<title>Node0x577f82095ea0</title>
<path fill="#f0f4ff" stroke="black" d="M1289,-848.8C1289,-848.8 1054,-848.8 1054,-848.8 1048,-848.8 1042,-842.8 1042,-836.8 1042,-836.8 1042,-824.8 1042,-824.8 1042,-818.8 1048,-812.8 1054,-812.8 1054,-812.8 1289,-812.8 1289,-812.8 1295,-812.8 1301,-818.8 1301,-824.8 1301,-824.8 1301,-836.8 1301,-836.8 1301,-842.8 1295,-848.8 1289,-848.8"/>
<text text-anchor="middle" x="1171.5" y="-828.6" font-family="Courier,monospace" font-size="9.00">IIccSparseMatrixEntry::~IIccSparseMatrixEntry()</text>
</g>
<!-- Node0x577f82090bb0&#45;&gt;Node0x577f82095ea0 -->
<g id="edge32" class="edge">
<title>Node0x577f82090bb0&#45;&gt;Node0x577f82095ea0</title>
<path fill="none" stroke="#4a6fa5" d="M907.69,-888.41C957.82,-877.42 1027.39,-862.17 1082.36,-850.12"/>
<polygon fill="#4a6fa5" stroke="#4a6fa5" points="1082.9,-852.15 1088.31,-848.82 1082,-848.05 1082.9,-852.15"/>
</g>
<!-- Node0x577f82094970 -->
<g id="node31" class="node">
<title>Node0x577f82094970</title>
<path fill="#f0f4ff" stroke="black" d="M213.5,-1283.8C213.5,-1283.8 77.5,-1283.8 77.5,-1283.8 71.5,-1283.8 65.5,-1277.8 65.5,-1271.8 65.5,-1271.8 65.5,-1259.8 65.5,-1259.8 65.5,-1253.8 71.5,-1247.8 77.5,-1247.8 77.5,-1247.8 213.5,-1247.8 213.5,-1247.8 219.5,-1247.8 225.5,-1253.8 225.5,-1259.8 225.5,-1259.8 225.5,-1271.8 225.5,-1271.8 225.5,-1277.8 219.5,-1283.8 213.5,-1283.8"/>
<text text-anchor="middle" x="145.5" y="-1263.6" font-family="Courier,monospace" font-size="9.00">CIccSparseMatrixUInt8::get()</text>
</g>
<!-- Node0x577f8208f6b0 -->
<g id="node32" class="node">
<title>Node0x577f8208f6b0</title>
<path fill="#f0f4ff" stroke="black" d="M213.5,-1341.8C213.5,-1341.8 77.5,-1341.8 77.5,-1341.8 71.5,-1341.8 65.5,-1335.8 65.5,-1329.8 65.5,-1329.8 65.5,-1317.8 65.5,-1317.8 65.5,-1311.8 71.5,-1305.8 77.5,-1305.8 77.5,-1305.8 213.5,-1305.8 213.5,-1305.8 219.5,-1305.8 225.5,-1311.8 225.5,-1317.8 225.5,-1317.8 225.5,-1329.8 225.5,-1329.8 225.5,-1335.8 219.5,-1341.8 213.5,-1341.8"/>
<text text-anchor="middle" x="145.5" y="-1321.6" font-family="Courier,monospace" font-size="9.00">CIccSparseMatrixUInt8::set()</text>
</g>
<!-- Node0x577f82092380 -->
<g id="node33" class="node">
<title>Node0x577f82092380</title>
<path fill="#f0f4ff" stroke="black" d="M161,-1399.8C161,-1399.8 130,-1399.8 130,-1399.8 124,-1399.8 118,-1393.8 118,-1387.8 118,-1387.8 118,-1375.8 118,-1375.8 118,-1369.8 124,-1363.8 130,-1363.8 130,-1363.8 161,-1363.8 161,-1363.8 167,-1363.8 173,-1369.8 173,-1375.8 173,-1375.8 173,-1387.8 173,-1387.8 173,-1393.8 167,-1399.8 161,-1399.8"/>
<text text-anchor="middle" x="145.5" y="-1379.6" font-family="Courier,monospace" font-size="9.00">getPtr()</text>
</g>
<!-- Node0x577f82095800 -->
<g id="node35" class="node">
<title>Node0x577f82095800</title>
<path fill="#f0f4ff" stroke="black" d="M200,-1457.8C200,-1457.8 91,-1457.8 91,-1457.8 85,-1457.8 79,-1451.8 79,-1445.8 79,-1445.8 79,-1433.8 79,-1433.8 79,-1427.8 85,-1421.8 91,-1421.8 91,-1421.8 200,-1421.8 200,-1421.8 206,-1421.8 212,-1427.8 212,-1433.8 212,-1433.8 212,-1445.8 212,-1445.8 212,-1451.8 206,-1457.8 200,-1457.8"/>
<text text-anchor="middle" x="145.5" y="-1437.6" font-family="Courier,monospace" font-size="9.00">CIccSparseMatrixEntry()</text>
</g>
<!-- Node0x577f82097390 -->
<g id="node36" class="node">
<title>Node0x577f82097390</title>
<path fill="#f0f4ff" stroke="black" d="M263,-1515.8C263,-1515.8 28,-1515.8 28,-1515.8 22,-1515.8 16,-1509.8 16,-1503.8 16,-1503.8 16,-1491.8 16,-1491.8 16,-1485.8 22,-1479.8 28,-1479.8 28,-1479.8 263,-1479.8 263,-1479.8 269,-1479.8 275,-1485.8 275,-1491.8 275,-1491.8 275,-1503.8 275,-1503.8 275,-1509.8 269,-1515.8 263,-1515.8"/>
<text text-anchor="middle" x="145.5" y="-1495.6" font-family="Courier,monospace" font-size="9.00">IIccSparseMatrixEntry::~IIccSparseMatrixEntry()</text>
</g>
<!-- Node0x577f820971b0 -->
<g id="node37" class="node">
<title>Node0x577f820971b0</title>
<path fill="#f0f4ff" stroke="black" d="M617.5,-877.8C617.5,-877.8 371.5,-877.8 371.5,-877.8 365.5,-877.8 359.5,-871.8 359.5,-865.8 359.5,-865.8 359.5,-853.8 359.5,-853.8 359.5,-847.8 365.5,-841.8 371.5,-841.8 371.5,-841.8 617.5,-841.8 617.5,-841.8 623.5,-841.8 629.5,-847.8 629.5,-853.8 629.5,-853.8 629.5,-865.8 629.5,-865.8 629.5,-871.8 623.5,-877.8 617.5,-877.8"/>
<text text-anchor="middle" x="494.5" y="-857.6" font-family="Courier,monospace" font-size="9.00">CIccSparseMatrixUInt16::~CIccSparseMatrixUInt16()</text>
</g>
<!-- Node0x577f82096880 -->
<g id="node38" class="node">
<title>Node0x577f82096880</title>
<path fill="#f0f4ff" stroke="black" d="M895.5,-848.8C895.5,-848.8 786.5,-848.8 786.5,-848.8 780.5,-848.8 774.5,-842.8 774.5,-836.8 774.5,-836.8 774.5,-824.8 774.5,-824.8 774.5,-818.8 780.5,-812.8 786.5,-812.8 786.5,-812.8 895.5,-812.8 895.5,-812.8 901.5,-812.8 907.5,-818.8 907.5,-824.8 907.5,-824.8 907.5,-836.8 907.5,-836.8 907.5,-842.8 901.5,-848.8 895.5,-848.8"/>
<text text-anchor="middle" x="841" y="-828.6" font-family="Courier,monospace" font-size="9.00">CIccSparseMatrixEntry()</text>
</g>
<!-- Node0x577f820971b0&#45;&gt;Node0x577f82096880 -->
<g id="edge34" class="edge">
<title>Node0x577f820971b0&#45;&gt;Node0x577f82096880</title>
<path fill="none" stroke="#4a6fa5" d="M629.68,-848.51C676.84,-844.54 728.02,-840.23 768.08,-836.86"/>
<polygon fill="#4a6fa5" stroke="#4a6fa5" points="768.6,-838.92 774.41,-836.33 768.25,-834.74 768.6,-838.92"/>
</g>
<!-- Node0x577f82096880&#45;&gt;Node0x577f82095ea0 -->
<g id="edge36" class="edge">
<title>Node0x577f82096880&#45;&gt;Node0x577f82095ea0</title>
<path fill="none" stroke="#4a6fa5" d="M907.69,-830.8C944.35,-830.8 991.4,-830.8 1035.54,-830.8"/>
<polygon fill="#4a6fa5" stroke="#4a6fa5" points="1035.75,-832.9 1041.75,-830.8 1035.75,-828.7 1035.75,-832.9"/>
</g>
<!-- Node0x577f820965e0 -->
<g id="node39" class="node">
<title>Node0x577f820965e0</title>
<path fill="#f0f4ff" stroke="black" d="M268.5,-877.8C268.5,-877.8 22.5,-877.8 22.5,-877.8 16.5,-877.8 10.5,-871.8 10.5,-865.8 10.5,-865.8 10.5,-853.8 10.5,-853.8 10.5,-847.8 16.5,-841.8 22.5,-841.8 22.5,-841.8 268.5,-841.8 268.5,-841.8 274.5,-841.8 280.5,-847.8 280.5,-853.8 280.5,-853.8 280.5,-865.8 280.5,-865.8 280.5,-871.8 274.5,-877.8 268.5,-877.8"/>
<text text-anchor="middle" x="145.5" y="-857.6" font-family="Courier,monospace" font-size="9.00">CIccSparseMatrixUInt16::~CIccSparseMatrixUInt16()</text>
</g>
<!-- Node0x577f820965e0&#45;&gt;Node0x577f820971b0 -->
<g id="edge35" class="edge">
<title>Node0x577f820965e0&#45;&gt;Node0x577f820971b0</title>
<path fill="none" stroke="#4a6fa5" d="M280.66,-859.8C304.48,-859.8 329.35,-859.8 353.33,-859.8"/>
<polygon fill="#4a6fa5" stroke="#4a6fa5" points="353.41,-861.9 359.41,-859.8 353.41,-857.7 353.41,-861.9"/>
</g>
<!-- Node0x577f82082480 -->
<g id="node40" class="node">
<title>Node0x577f82082480</title>
<path fill="#f0f4ff" stroke="black" d="M160.5,-1573.8C160.5,-1573.8 130.5,-1573.8 130.5,-1573.8 124.5,-1573.8 118.5,-1567.8 118.5,-1561.8 118.5,-1561.8 118.5,-1549.8 118.5,-1549.8 118.5,-1543.8 124.5,-1537.8 130.5,-1537.8 130.5,-1537.8 160.5,-1537.8 160.5,-1537.8 166.5,-1537.8 172.5,-1543.8 172.5,-1549.8 172.5,-1549.8 172.5,-1561.8 172.5,-1561.8 172.5,-1567.8 166.5,-1573.8 160.5,-1573.8"/>
<text text-anchor="middle" x="145.5" y="-1553.6" font-family="Courier,monospace" font-size="9.00">init()</text>
</g>
<!-- Node0x577f82094030 -->
<g id="node41" class="node">
<title>Node0x577f82094030</title>
<path fill="#f0f4ff" stroke="black" d="M216,-1631.8C216,-1631.8 75,-1631.8 75,-1631.8 69,-1631.8 63,-1625.8 63,-1619.8 63,-1619.8 63,-1607.8 63,-1607.8 63,-1601.8 69,-1595.8 75,-1595.8 75,-1595.8 216,-1595.8 216,-1595.8 222,-1595.8 228,-1601.8 228,-1607.8 228,-1607.8 228,-1619.8 228,-1619.8 228,-1625.8 222,-1631.8 216,-1631.8"/>
<text text-anchor="middle" x="145.5" y="-1611.6" font-family="Courier,monospace" font-size="9.00">CIccSparseMatrixUInt16::get()</text>
</g>
<!-- Node0x577f82093e30 -->
<g id="node42" class="node">
<title>Node0x577f82093e30</title>
<path fill="#f0f4ff" stroke="black" d="M216,-1689.8C216,-1689.8 75,-1689.8 75,-1689.8 69,-1689.8 63,-1683.8 63,-1677.8 63,-1677.8 63,-1665.8 63,-1665.8 63,-1659.8 69,-1653.8 75,-1653.8 75,-1653.8 216,-1653.8 216,-1653.8 222,-1653.8 228,-1659.8 228,-1665.8 228,-1665.8 228,-1677.8 228,-1677.8 228,-1683.8 222,-1689.8 216,-1689.8"/>
<text text-anchor="middle" x="145.5" y="-1669.6" font-family="Courier,monospace" font-size="9.00">CIccSparseMatrixUInt16::set()</text>
</g>
<!-- Node0x577f8209c030 -->
<g id="node43" class="node">
<title>Node0x577f8209c030</title>
<path fill="#f0f4ff" stroke="black" d="M161,-1747.8C161,-1747.8 130,-1747.8 130,-1747.8 124,-1747.8 118,-1741.8 118,-1735.8 118,-1735.8 118,-1723.8 118,-1723.8 118,-1717.8 124,-1711.8 130,-1711.8 130,-1711.8 161,-1711.8 161,-1711.8 167,-1711.8 173,-1717.8 173,-1723.8 173,-1723.8 173,-1735.8 173,-1735.8 173,-1741.8 167,-1747.8 161,-1747.8"/>
<text text-anchor="middle" x="145.5" y="-1727.6" font-family="Courier,monospace" font-size="9.00">getPtr()</text>
</g>
<!-- Node0x577f8209db50 -->
<g id="node44" class="node">
<title>Node0x577f8209db50</title>
<path fill="#f0f4ff" stroke="black" d="M200,-1805.8C200,-1805.8 91,-1805.8 91,-1805.8 85,-1805.8 79,-1799.8 79,-1793.8 79,-1793.8 79,-1781.8 79,-1781.8 79,-1775.8 85,-1769.8 91,-1769.8 91,-1769.8 200,-1769.8 200,-1769.8 206,-1769.8 212,-1775.8 212,-1781.8 212,-1781.8 212,-1793.8 212,-1793.8 212,-1799.8 206,-1805.8 200,-1805.8"/>
<text text-anchor="middle" x="145.5" y="-1785.6" font-family="Courier,monospace" font-size="9.00">CIccSparseMatrixEntry()</text>
</g>
<!-- Node0x577f8209d750 -->
<g id="node45" class="node">
<title>Node0x577f8209d750</title>
<path fill="#f0f4ff" stroke="black" d="M622.5,-819.8C622.5,-819.8 366.5,-819.8 366.5,-819.8 360.5,-819.8 354.5,-813.8 354.5,-807.8 354.5,-807.8 354.5,-795.8 354.5,-795.8 354.5,-789.8 360.5,-783.8 366.5,-783.8 366.5,-783.8 622.5,-783.8 622.5,-783.8 628.5,-783.8 634.5,-789.8 634.5,-795.8 634.5,-795.8 634.5,-807.8 634.5,-807.8 634.5,-813.8 628.5,-819.8 622.5,-819.8"/>
<text text-anchor="middle" x="494.5" y="-799.6" font-family="Courier,monospace" font-size="9.00">CIccSparseMatrixFloat16::~CIccSparseMatrixFloat16()</text>
</g>
<!-- Node0x577f8209d750&#45;&gt;Node0x577f82096880 -->
<g id="edge37" class="edge">
<title>Node0x577f8209d750&#45;&gt;Node0x577f82096880</title>
<path fill="none" stroke="#4a6fa5" d="M634.63,-813.52C680.36,-817.37 729.33,-821.49 767.98,-824.74"/>
<polygon fill="#4a6fa5" stroke="#4a6fa5" points="767.93,-826.84 774.09,-825.26 768.29,-822.66 767.93,-826.84"/>
</g>
<!-- Node0x577f8209d5c0 -->
<g id="node46" class="node">
<title>Node0x577f8209d5c0</title>
<path fill="#f0f4ff" stroke="black" d="M273.5,-819.8C273.5,-819.8 17.5,-819.8 17.5,-819.8 11.5,-819.8 5.5,-813.8 5.5,-807.8 5.5,-807.8 5.5,-795.8 5.5,-795.8 5.5,-789.8 11.5,-783.8 17.5,-783.8 17.5,-783.8 273.5,-783.8 273.5,-783.8 279.5,-783.8 285.5,-789.8 285.5,-795.8 285.5,-795.8 285.5,-807.8 285.5,-807.8 285.5,-813.8 279.5,-819.8 273.5,-819.8"/>
<text text-anchor="middle" x="145.5" y="-799.6" font-family="Courier,monospace" font-size="9.00">CIccSparseMatrixFloat16::~CIccSparseMatrixFloat16()</text>
</g>
<!-- Node0x577f8209d5c0&#45;&gt;Node0x577f8209d750 -->
<g id="edge38" class="edge">
<title>Node0x577f8209d5c0&#45;&gt;Node0x577f8209d750</title>
<path fill="none" stroke="#4a6fa5" d="M285.64,-801.8C306.23,-801.8 327.5,-801.8 348.21,-801.8"/>
<polygon fill="#4a6fa5" stroke="#4a6fa5" points="348.33,-803.9 354.33,-801.8 348.33,-799.7 348.33,-803.9"/>
</g>
<!-- Node0x577f8209c7c0 -->
<g id="node47" class="node">
<title>Node0x577f8209c7c0</title>
<path fill="#f0f4ff" stroke="black" d="M218.5,-1863.8C218.5,-1863.8 72.5,-1863.8 72.5,-1863.8 66.5,-1863.8 60.5,-1857.8 60.5,-1851.8 60.5,-1851.8 60.5,-1839.8 60.5,-1839.8 60.5,-1833.8 66.5,-1827.8 72.5,-1827.8 72.5,-1827.8 218.5,-1827.8 218.5,-1827.8 224.5,-1827.8 230.5,-1833.8 230.5,-1839.8 230.5,-1839.8 230.5,-1851.8 230.5,-1851.8 230.5,-1857.8 224.5,-1863.8 218.5,-1863.8"/>
<text text-anchor="middle" x="145.5" y="-1843.6" font-family="Courier,monospace" font-size="9.00">CIccSparseMatrixFloat16::get()</text>
</g>
<!-- Node0x577f8209ff70 -->
<g id="node48" class="node">
<title>Node0x577f8209ff70</title>
<path fill="#f0f4ff" stroke="black" d="M515,-1863.8C515,-1863.8 474,-1863.8 474,-1863.8 468,-1863.8 462,-1857.8 462,-1851.8 462,-1851.8 462,-1839.8 462,-1839.8 462,-1833.8 468,-1827.8 474,-1827.8 474,-1827.8 515,-1827.8 515,-1827.8 521,-1827.8 527,-1833.8 527,-1839.8 527,-1839.8 527,-1851.8 527,-1851.8 527,-1857.8 521,-1863.8 515,-1863.8"/>
<text text-anchor="middle" x="494.5" y="-1843.6" font-family="Courier,monospace" font-size="9.00">icF16toF()</text>
</g>
<!-- Node0x577f8209c7c0&#45;&gt;Node0x577f8209ff70 -->
<g id="edge39" class="edge">
<title>Node0x577f8209c7c0&#45;&gt;Node0x577f8209ff70</title>
<path fill="none" stroke="#4a6fa5" d="M230.94,-1845.8C302.46,-1845.8 401.68,-1845.8 455.35,-1845.8"/>
<polygon fill="#4a6fa5" stroke="#4a6fa5" points="455.66,-1847.9 461.66,-1845.8 455.66,-1843.7 455.66,-1847.9"/>
</g>
<!-- Node0x577f8209fb60 -->
<g id="node49" class="node">
<title>Node0x577f8209fb60</title>
<path fill="#f0f4ff" stroke="black" d="M218.5,-1921.8C218.5,-1921.8 72.5,-1921.8 72.5,-1921.8 66.5,-1921.8 60.5,-1915.8 60.5,-1909.8 60.5,-1909.8 60.5,-1897.8 60.5,-1897.8 60.5,-1891.8 66.5,-1885.8 72.5,-1885.8 72.5,-1885.8 218.5,-1885.8 218.5,-1885.8 224.5,-1885.8 230.5,-1891.8 230.5,-1897.8 230.5,-1897.8 230.5,-1909.8 230.5,-1909.8 230.5,-1915.8 224.5,-1921.8 218.5,-1921.8"/>
<text text-anchor="middle" x="145.5" y="-1901.6" font-family="Courier,monospace" font-size="9.00">CIccSparseMatrixFloat16::set()</text>
</g>
<!-- Node0x577f82087fc0 -->
<g id="node50" class="node">
<title>Node0x577f82087fc0</title>
<path fill="#f0f4ff" stroke="black" d="M515,-1921.8C515,-1921.8 474,-1921.8 474,-1921.8 468,-1921.8 462,-1915.8 462,-1909.8 462,-1909.8 462,-1897.8 462,-1897.8 462,-1891.8 468,-1885.8 474,-1885.8 474,-1885.8 515,-1885.8 515,-1885.8 521,-1885.8 527,-1891.8 527,-1897.8 527,-1897.8 527,-1909.8 527,-1909.8 527,-1915.8 521,-1921.8 515,-1921.8"/>
<text text-anchor="middle" x="494.5" y="-1901.6" font-family="Courier,monospace" font-size="9.00">icFtoF16()</text>
</g>
<!-- Node0x577f8209fb60&#45;&gt;Node0x577f82087fc0 -->
<g id="edge40" class="edge">
<title>Node0x577f8209fb60&#45;&gt;Node0x577f82087fc0</title>
<path fill="none" stroke="#4a6fa5" d="M230.94,-1903.8C302.46,-1903.8 401.68,-1903.8 455.35,-1903.8"/>
<polygon fill="#4a6fa5" stroke="#4a6fa5" points="455.66,-1905.9 461.66,-1903.8 455.66,-1901.7 455.66,-1905.9"/>
</g>
<!-- Node0x577f82088040 -->
<g id="node51" class="node">
<title>Node0x577f82088040</title>
<path fill="#f0f4ff" stroke="black" d="M622.5,-761.8C622.5,-761.8 366.5,-761.8 366.5,-761.8 360.5,-761.8 354.5,-755.8 354.5,-749.8 354.5,-749.8 354.5,-737.8 354.5,-737.8 354.5,-731.8 360.5,-725.8 366.5,-725.8 366.5,-725.8 622.5,-725.8 622.5,-725.8 628.5,-725.8 634.5,-731.8 634.5,-737.8 634.5,-737.8 634.5,-749.8 634.5,-749.8 634.5,-755.8 628.5,-761.8 622.5,-761.8"/>
<text text-anchor="middle" x="494.5" y="-741.6" font-family="Courier,monospace" font-size="9.00">CIccSparseMatrixFloat32::~CIccSparseMatrixFloat32()</text>
</g>
<!-- Node0x577f820a1f60 -->
<g id="node52" class="node">
<title>Node0x577f820a1f60</title>
<path fill="#f0f4ff" stroke="black" d="M895.5,-761.8C895.5,-761.8 786.5,-761.8 786.5,-761.8 780.5,-761.8 774.5,-755.8 774.5,-749.8 774.5,-749.8 774.5,-737.8 774.5,-737.8 774.5,-731.8 780.5,-725.8 786.5,-725.8 786.5,-725.8 895.5,-725.8 895.5,-725.8 901.5,-725.8 907.5,-731.8 907.5,-737.8 907.5,-737.8 907.5,-749.8 907.5,-749.8 907.5,-755.8 901.5,-761.8 895.5,-761.8"/>
<text text-anchor="middle" x="841" y="-741.6" font-family="Courier,monospace" font-size="9.00">CIccSparseMatrixEntry()</text>
</g>
<!-- Node0x577f82088040&#45;&gt;Node0x577f820a1f60 -->
<g id="edge42" class="edge">
<title>Node0x577f82088040&#45;&gt;Node0x577f820a1f60</title>
<path fill="none" stroke="#4a6fa5" d="M634.63,-743.8C680.36,-743.8 729.33,-743.8 767.98,-743.8"/>
<polygon fill="#4a6fa5" stroke="#4a6fa5" points="768.09,-745.9 774.09,-743.8 768.09,-741.7 768.09,-745.9"/>
</g>
<!-- Node0x577f820a1f60&#45;&gt;Node0x577f82095ea0 -->
<g id="edge44" class="edge">
<title>Node0x577f820a1f60&#45;&gt;Node0x577f82095ea0</title>
<path fill="none" stroke="#4a6fa5" d="M907.69,-761.2C962.15,-775.63 1039.57,-796.13 1096.27,-811.15"/>
<polygon fill="#4a6fa5" stroke="#4a6fa5" points="1096.05,-813.26 1102.38,-812.76 1097.12,-809.2 1096.05,-813.26"/>
</g>
<!-- Node0x577f820a1b80 -->
<g id="node53" class="node">
<title>Node0x577f820a1b80</title>
<path fill="#f0f4ff" stroke="black" d="M273.5,-761.8C273.5,-761.8 17.5,-761.8 17.5,-761.8 11.5,-761.8 5.5,-755.8 5.5,-749.8 5.5,-749.8 5.5,-737.8 5.5,-737.8 5.5,-731.8 11.5,-725.8 17.5,-725.8 17.5,-725.8 273.5,-725.8 273.5,-725.8 279.5,-725.8 285.5,-731.8 285.5,-737.8 285.5,-737.8 285.5,-749.8 285.5,-749.8 285.5,-755.8 279.5,-761.8 273.5,-761.8"/>
<text text-anchor="middle" x="145.5" y="-741.6" font-family="Courier,monospace" font-size="9.00">CIccSparseMatrixFloat32::~CIccSparseMatrixFloat32()</text>
</g>
<!-- Node0x577f820a1b80&#45;&gt;Node0x577f82088040 -->
<g id="edge43" class="edge">
<title>Node0x577f820a1b80&#45;&gt;Node0x577f82088040</title>
<path fill="none" stroke="#4a6fa5" d="M285.64,-743.8C306.23,-743.8 327.5,-743.8 348.21,-743.8"/>
<polygon fill="#4a6fa5" stroke="#4a6fa5" points="348.33,-745.9 354.33,-743.8 348.33,-741.7 348.33,-745.9"/>
</g>
<!-- Node0x577f820a1a30 -->
<g id="node54" class="node">
<title>Node0x577f820a1a30</title>
<path fill="#f0f4ff" stroke="black" d="M160.5,-1979.8C160.5,-1979.8 130.5,-1979.8 130.5,-1979.8 124.5,-1979.8 118.5,-1973.8 118.5,-1967.8 118.5,-1967.8 118.5,-1955.8 118.5,-1955.8 118.5,-1949.8 124.5,-1943.8 130.5,-1943.8 130.5,-1943.8 160.5,-1943.8 160.5,-1943.8 166.5,-1943.8 172.5,-1949.8 172.5,-1955.8 172.5,-1955.8 172.5,-1967.8 172.5,-1967.8 172.5,-1973.8 166.5,-1979.8 160.5,-1979.8"/>
<text text-anchor="middle" x="145.5" y="-1959.6" font-family="Courier,monospace" font-size="9.00">init()</text>
</g>
<!-- Node0x577f820a17e0 -->
<g id="node55" class="node">
<title>Node0x577f820a17e0</title>
<path fill="#f0f4ff" stroke="black" d="M218.5,-2037.8C218.5,-2037.8 72.5,-2037.8 72.5,-2037.8 66.5,-2037.8 60.5,-2031.8 60.5,-2025.8 60.5,-2025.8 60.5,-2013.8 60.5,-2013.8 60.5,-2007.8 66.5,-2001.8 72.5,-2001.8 72.5,-2001.8 218.5,-2001.8 218.5,-2001.8 224.5,-2001.8 230.5,-2007.8 230.5,-2013.8 230.5,-2013.8 230.5,-2025.8 230.5,-2025.8 230.5,-2031.8 224.5,-2037.8 218.5,-2037.8"/>
<text text-anchor="middle" x="145.5" y="-2017.6" font-family="Courier,monospace" font-size="9.00">CIccSparseMatrixFloat32::get()</text>
</g>
<!-- Node0x577f8209a600 -->
<g id="node56" class="node">
<title>Node0x577f8209a600</title>
<path fill="#f0f4ff" stroke="black" d="M218.5,-2095.8C218.5,-2095.8 72.5,-2095.8 72.5,-2095.8 66.5,-2095.8 60.5,-2089.8 60.5,-2083.8 60.5,-2083.8 60.5,-2071.8 60.5,-2071.8 60.5,-2065.8 66.5,-2059.8 72.5,-2059.8 72.5,-2059.8 218.5,-2059.8 218.5,-2059.8 224.5,-2059.8 230.5,-2065.8 230.5,-2071.8 230.5,-2071.8 230.5,-2083.8 230.5,-2083.8 230.5,-2089.8 224.5,-2095.8 218.5,-2095.8"/>
<text text-anchor="middle" x="145.5" y="-2075.6" font-family="Courier,monospace" font-size="9.00">CIccSparseMatrixFloat32::set()</text>
</g>
<!-- Node0x577f820a5010 -->
<g id="node57" class="node">
<title>Node0x577f820a5010</title>
<path fill="#f0f4ff" stroke="black" d="M161,-2153.8C161,-2153.8 130,-2153.8 130,-2153.8 124,-2153.8 118,-2147.8 118,-2141.8 118,-2141.8 118,-2129.8 118,-2129.8 118,-2123.8 124,-2117.8 130,-2117.8 130,-2117.8 161,-2117.8 161,-2117.8 167,-2117.8 173,-2123.8 173,-2129.8 173,-2129.8 173,-2141.8 173,-2141.8 173,-2147.8 167,-2153.8 161,-2153.8"/>
<text text-anchor="middle" x="145.5" y="-2133.6" font-family="Courier,monospace" font-size="9.00">getPtr()</text>
</g>
<!-- Node0x577f820a27f0 -->
<g id="node58" class="node">
<title>Node0x577f820a27f0</title>
<path fill="#f0f4ff" stroke="black" d="M200,-2211.8C200,-2211.8 91,-2211.8 91,-2211.8 85,-2211.8 79,-2205.8 79,-2199.8 79,-2199.8 79,-2187.8 79,-2187.8 79,-2181.8 85,-2175.8 91,-2175.8 91,-2175.8 200,-2175.8 200,-2175.8 206,-2175.8 212,-2181.8 212,-2187.8 212,-2187.8 212,-2199.8 212,-2199.8 212,-2205.8 206,-2211.8 200,-2211.8"/>
<text text-anchor="middle" x="145.5" y="-2191.6" font-family="Courier,monospace" font-size="9.00">CIccSparseMatrixEntry()</text>
</g>
<!-- Node0x577f820a6430 -->
<g id="node59" class="node">
<title>Node0x577f820a6430</title>
<path fill="#f0f4ff" stroke="black" d="M628,-703.8C628,-703.8 361,-703.8 361,-703.8 355,-703.8 349,-697.8 349,-691.8 349,-691.8 349,-679.8 349,-679.8 349,-673.8 355,-667.8 361,-667.8 361,-667.8 628,-667.8 628,-667.8 634,-667.8 640,-673.8 640,-679.8 640,-679.8 640,-691.8 640,-691.8 640,-697.8 634,-703.8 628,-703.8"/>
<text text-anchor="middle" x="494.5" y="-683.6" font-family="Courier,monospace" font-size="9.00">CIccSparseMatrixFloatNum::~CIccSparseMatrixFloatNum()</text>
</g>
<!-- Node0x577f820a6430&#45;&gt;Node0x577f820a1f60 -->
<g id="edge45" class="edge">
<title>Node0x577f820a6430&#45;&gt;Node0x577f820a1f60</title>
<path fill="none" stroke="#4a6fa5" d="M602.61,-703.84C656.5,-712.91 720.37,-723.66 768.27,-731.73"/>
<polygon fill="#4a6fa5" stroke="#4a6fa5" points="768.06,-733.82 774.33,-732.75 768.76,-729.68 768.06,-733.82"/>
</g>
<!-- Node0x577f820aaae0 -->
<g id="node60" class="node">
<title>Node0x577f820aaae0</title>
<path fill="#f0f4ff" stroke="black" d="M279,-703.8C279,-703.8 12,-703.8 12,-703.8 6,-703.8 0,-697.8 0,-691.8 0,-691.8 0,-679.8 0,-679.8 0,-673.8 6,-667.8 12,-667.8 12,-667.8 279,-667.8 279,-667.8 285,-667.8 291,-673.8 291,-679.8 291,-679.8 291,-691.8 291,-691.8 291,-697.8 285,-703.8 279,-703.8"/>
<text text-anchor="middle" x="145.5" y="-683.6" font-family="Courier,monospace" font-size="9.00">CIccSparseMatrixFloatNum::~CIccSparseMatrixFloatNum()</text>
</g>
<!-- Node0x577f820aaae0&#45;&gt;Node0x577f820a6430 -->
<g id="edge46" class="edge">
<title>Node0x577f820aaae0&#45;&gt;Node0x577f820a6430</title>
<path fill="none" stroke="#4a6fa5" d="M291.15,-685.8C308.12,-685.8 325.48,-685.8 342.54,-685.8"/>
<polygon fill="#4a6fa5" stroke="#4a6fa5" points="342.81,-687.9 348.81,-685.8 342.81,-683.7 342.81,-687.9"/>
</g>
<!-- Node0x577f820aaa30 -->
<g id="node61" class="node">
<title>Node0x577f820aaa30</title>
<path fill="#f0f4ff" stroke="black" d="M221,-2269.8C221,-2269.8 70,-2269.8 70,-2269.8 64,-2269.8 58,-2263.8 58,-2257.8 58,-2257.8 58,-2245.8 58,-2245.8 58,-2239.8 64,-2233.8 70,-2233.8 70,-2233.8 221,-2233.8 221,-2233.8 227,-2233.8 233,-2239.8 233,-2245.8 233,-2245.8 233,-2257.8 233,-2257.8 233,-2263.8 227,-2269.8 221,-2269.8"/>
<text text-anchor="middle" x="145.5" y="-2249.6" font-family="Courier,monospace" font-size="9.00">CIccSparseMatrixFloatNum::get()</text>
</g>
<!-- Node0x577f81ec3480 -->
<g id="node62" class="node">
<title>Node0x577f81ec3480</title>
<path fill="#f0f4ff" stroke="black" d="M221,-2327.8C221,-2327.8 70,-2327.8 70,-2327.8 64,-2327.8 58,-2321.8 58,-2315.8 58,-2315.8 58,-2303.8 58,-2303.8 58,-2297.8 64,-2291.8 70,-2291.8 70,-2291.8 221,-2291.8 221,-2291.8 227,-2291.8 233,-2297.8 233,-2303.8 233,-2303.8 233,-2315.8 233,-2315.8 233,-2321.8 227,-2327.8 221,-2327.8"/>
<text text-anchor="middle" x="145.5" y="-2307.6" font-family="Courier,monospace" font-size="9.00">CIccSparseMatrixFloatNum::set()</text>
</g>
</g>
</svg>
