<?xml version="1.0" encoding="UTF-8" standalone="no"?>
<!DOCTYPE svg PUBLIC "-//W3C//DTD SVG 1.1//EN"
 "http://www.w3.org/Graphics/SVG/1.1/DTD/svg11.dtd">
<!-- Generated by graphviz version 2.43.0 (0)
 -->
<!-- Title: Call graph: /home/h02332/po/research/call&#45;graph/iccdev/proflib/IccSparseMatrix.ll Pages: 1 -->
<svg width="3256pt" height="14400pt"
 viewBox="0.00 0.00 3255.91 14400.00" xmlns="http://www.w3.org/2000/svg" xmlns:xlink="http://www.w3.org/1999/xlink">
<g id="graph0" class="graph" transform="scale(1.62 1.62) rotate(0) translate(36 8836)">
<title>Call graph: /home/h02332/po/research/call&#45;graph/iccdev/proflib/IccSparseMatrix.ll</title>
<polygon fill="white" stroke="transparent" points="-36,36 -36,-8836 1970,-8836 1970,36 -36,36"/>
<!-- Node0x63237b9bed20 -->
<g id="node1" class="node">
<title>Node0x63237b9bed20</title>
<path fill="#f0f4ff" stroke="black" d="M273,-772C273,-772 83,-772 83,-772 77,-772 71,-766 71,-760 71,-760 71,-748 71,-748 71,-742 77,-736 83,-736 83,-736 273,-736 273,-736 279,-736 285,-742 285,-748 285,-748 285,-760 285,-760 285,-766 279,-772 273,-772"/>
<text text-anchor="middle" x="178" y="-751.8" font-family="Courier,monospace" font-size="9.00">{CIccSparseMatrix::CIccSparseMatrix()}</text>
</g>
<!-- Node0x63237b86c530 -->
<g id="node2" class="node">
<title>Node0x63237b86c530</title>
<path fill="#f0f4ff" stroke="black" d="M657,-739C657,-739 530,-739 530,-739 524,-739 518,-733 518,-727 518,-727 518,-715 518,-715 518,-709 524,-703 530,-703 530,-703 657,-703 657,-703 663,-703 669,-709 669,-715 669,-715 669,-727 669,-727 669,-733 663,-739 657,-739"/>
<text text-anchor="middle" x="593.5" y="-718.8" font-family="Courier,monospace" font-size="9.00">{CIccSparseMatrix::Init()}</text>
</g>
<!-- Node0x63237b9bed20&#45;&gt;Node0x63237b86c530 -->
<g id="edge1" class="edge">
<title>Node0x63237b9bed20&#45;&gt;Node0x63237b86c530</title>
<path fill="none" stroke="#4a6fa5" d="M285.22,-745.52C355.38,-739.92 445.95,-732.7 510.55,-727.54"/>
<polygon fill="#4a6fa5" stroke="#4a6fa5" points="511.12,-729.95 517.9,-726.95 510.73,-725.07 511.12,-729.95"/>
</g>
<!-- Node0x63237b9c30d0 -->
<g id="node3" class="node">
<title>Node0x63237b9c30d0</title>
<path fill="#f0f4ff" stroke="black" d="M997.5,-801C997.5,-801 967.5,-801 967.5,-801 961.5,-801 955.5,-795 955.5,-789 955.5,-789 955.5,-777 955.5,-777 955.5,-771 961.5,-765 967.5,-765 967.5,-765 997.5,-765 997.5,-765 1003.5,-765 1009.5,-771 1009.5,-777 1009.5,-777 1009.5,-789 1009.5,-789 1009.5,-795 1003.5,-801 997.5,-801"/>
<text text-anchor="middle" x="982.5" y="-780.8" font-family="Courier,monospace" font-size="9.00">{new()}</text>
</g>
<!-- Node0x63237b86c530&#45;&gt;Node0x63237b9c30d0 -->
<g id="edge2" class="edge">
<title>Node0x63237b86c530&#45;&gt;Node0x63237b9c30d0</title>
<path fill="none" stroke="#4a6fa5" d="M669.12,-732.95C753.33,-746.45 886.6,-767.8 948.22,-777.67"/>
<polygon fill="#4a6fa5" stroke="#4a6fa5" points="948.08,-780.13 955.37,-778.81 948.85,-775.29 948.08,-780.13"/>
</g>
<!-- Node0x63237b9c5fe0 -->
<g id="node4" class="node">
<title>Node0x63237b9c5fe0</title>
<path fill="#f0f4ff" stroke="black" d="M1104,-1352C1104,-1352 861,-1352 861,-1352 855,-1352 849,-1346 849,-1340 849,-1340 849,-1328 849,-1328 849,-1322 855,-1316 861,-1316 861,-1316 1104,-1316 1104,-1316 1110,-1316 1116,-1322 1116,-1328 1116,-1328 1116,-1340 1116,-1340 1116,-1346 1110,-1352 1104,-1352"/>
<text text-anchor="middle" x="982.5" y="-1331.8" font-family="Courier,monospace" font-size="9.00">{CIccSparseMatrixUInt8::CIccSparseMatrixUInt8()}</text>
</g>
<!-- Node0x63237b86c530&#45;&gt;Node0x63237b9c5fe0 -->
<g id="edge3" class="edge">
<title>Node0x63237b86c530&#45;&gt;Node0x63237b9c5fe0</title>
<path fill="none" stroke="#4a6fa5" d="M597.68,-739.18C611.56,-813.63 673.39,-1098.92 831,-1262 853.46,-1285.23 884.92,-1301.89 913.28,-1313.29"/>
<polygon fill="#4a6fa5" stroke="#4a6fa5" points="912.62,-1315.66 920.03,-1315.93 914.4,-1311.1 912.62,-1315.66"/>
</g>
<!-- Node0x63237b9c7aa0 -->
<g id="node5" class="node">
<title>Node0x63237b9c7aa0</title>
<path fill="#f0f4ff" stroke="black" d="M1004,-491C1004,-491 961,-491 961,-491 955,-491 949,-485 949,-479 949,-479 949,-467 949,-467 949,-461 955,-455 961,-455 961,-455 1004,-455 1004,-455 1010,-455 1016,-461 1016,-467 1016,-467 1016,-479 1016,-479 1016,-485 1010,-491 1004,-491"/>
<text text-anchor="middle" x="982.5" y="-470.8" font-family="Courier,monospace" font-size="9.00">{delete()}</text>
</g>
<!-- Node0x63237b86c530&#45;&gt;Node0x63237b9c7aa0 -->
<g id="edge4" class="edge">
<title>Node0x63237b86c530&#45;&gt;Node0x63237b9c7aa0</title>
<path fill="none" stroke="#4a6fa5" d="M669.11,-716.07C694.75,-711.65 722.62,-703.58 745,-689 799.68,-653.39 783.65,-614.9 831,-570 864.73,-538.02 910.41,-510.3 942.56,-492.78"/>
<polygon fill="#4a6fa5" stroke="#4a6fa5" points="943.81,-494.9 948.8,-489.42 941.48,-490.58 943.81,-494.9"/>
</g>
<!-- Node0x63237b9b5920 -->
<g id="node6" class="node">
<title>Node0x63237b9b5920</title>
<path fill="#f0f4ff" stroke="black" d="M1119.5,-1247C1119.5,-1247 845.5,-1247 845.5,-1247 839.5,-1247 833.5,-1241 833.5,-1235 833.5,-1235 833.5,-1223 833.5,-1223 833.5,-1217 839.5,-1211 845.5,-1211 845.5,-1211 1119.5,-1211 1119.5,-1211 1125.5,-1211 1131.5,-1217 1131.5,-1223 1131.5,-1223 1131.5,-1235 1131.5,-1235 1131.5,-1241 1125.5,-1247 1119.5,-1247"/>
<text text-anchor="middle" x="982.5" y="-1226.8" font-family="Courier,monospace" font-size="9.00">{CIccSparseMatrixFloatNum::CIccSparseMatrixFloatNum()}</text>
</g>
<!-- Node0x63237b86c530&#45;&gt;Node0x63237b9b5920 -->
<g id="edge5" class="edge">
<title>Node0x63237b86c530&#45;&gt;Node0x63237b9b5920</title>
<path fill="none" stroke="#4a6fa5" d="M598.41,-739.22C614.19,-808.27 679.71,-1056.3 831,-1183 843.83,-1193.74 859.14,-1201.98 875,-1208.29"/>
<polygon fill="#4a6fa5" stroke="#4a6fa5" points="874.41,-1210.69 881.83,-1210.88 876.15,-1206.11 874.41,-1210.69"/>
</g>
<!-- Node0x63237b9aecc0 -->
<g id="node7" class="node">
<title>Node0x63237b9aecc0</title>
<path fill="#f0f4ff" stroke="black" d="M1109,-1037C1109,-1037 856,-1037 856,-1037 850,-1037 844,-1031 844,-1025 844,-1025 844,-1013 844,-1013 844,-1007 850,-1001 856,-1001 856,-1001 1109,-1001 1109,-1001 1115,-1001 1121,-1007 1121,-1013 1121,-1013 1121,-1025 1121,-1025 1121,-1031 1115,-1037 1109,-1037"/>
<text text-anchor="middle" x="982.5" y="-1016.8" font-family="Courier,monospace" font-size="9.00">{CIccSparseMatrixUInt16::CIccSparseMatrixUInt16()}</text>
</g>
<!-- Node0x63237b86c530&#45;&gt;Node0x63237b9aecc0 -->
<g id="edge6" class="edge">
<title>Node0x63237b86c530&#45;&gt;Node0x63237b9aecc0</title>
<path fill="none" stroke="#4a6fa5" d="M607.94,-739.23C641.17,-783.13 731.69,-895.89 831,-961 855.08,-976.78 884.09,-989.25 910.19,-998.51"/>
<polygon fill="#4a6fa5" stroke="#4a6fa5" points="909.69,-1000.93 917.11,-1000.91 911.3,-996.3 909.69,-1000.93"/>
</g>
<!-- Node0x63237b9b47d0 -->
<g id="node8" class="node">
<title>Node0x63237b9b47d0</title>
<path fill="#f0f4ff" stroke="black" d="M1114.5,-1168C1114.5,-1168 850.5,-1168 850.5,-1168 844.5,-1168 838.5,-1162 838.5,-1156 838.5,-1156 838.5,-1144 838.5,-1144 838.5,-1138 844.5,-1132 850.5,-1132 850.5,-1132 1114.5,-1132 1114.5,-1132 1120.5,-1132 1126.5,-1138 1126.5,-1144 1126.5,-1144 1126.5,-1156 1126.5,-1156 1126.5,-1162 1120.5,-1168 1114.5,-1168"/>
<text text-anchor="middle" x="982.5" y="-1147.8" font-family="Courier,monospace" font-size="9.00">{CIccSparseMatrixFloat32::CIccSparseMatrixFloat32()}</text>
</g>
<!-- Node0x63237b86c530&#45;&gt;Node0x63237b9b47d0 -->
<g id="edge7" class="edge">
<title>Node0x63237b86c530&#45;&gt;Node0x63237b9b47d0</title>
<path fill="none" stroke="#4a6fa5" d="M604.29,-739.28C633.36,-792.4 723.88,-949.41 831,-1052 863.72,-1083.34 907.79,-1110.68 939.78,-1128.46"/>
<polygon fill="#4a6fa5" stroke="#4a6fa5" points="938.69,-1130.66 946.01,-1131.88 941.05,-1126.36 938.69,-1130.66"/>
</g>
<!-- Node0x63237b9ab2b0 -->
<g id="node9" class="node">
<title>Node0x63237b9ab2b0</title>
<path fill="#f0f4ff" stroke="black" d="M1114.5,-946C1114.5,-946 850.5,-946 850.5,-946 844.5,-946 838.5,-940 838.5,-934 838.5,-934 838.5,-922 838.5,-922 838.5,-916 844.5,-910 850.5,-910 850.5,-910 1114.5,-910 1114.5,-910 1120.5,-910 1126.5,-916 1126.5,-922 1126.5,-922 1126.5,-934 1126.5,-934 1126.5,-940 1120.5,-946 1114.5,-946"/>
<text text-anchor="middle" x="982.5" y="-925.8" font-family="Courier,monospace" font-size="9.00">{CIccSparseMatrixFloat16::CIccSparseMatrixFloat16()}</text>
</g>
<!-- Node0x63237b86c530&#45;&gt;Node0x63237b9ab2b0 -->
<g id="edge8" class="edge">
<title>Node0x63237b86c530&#45;&gt;Node0x63237b9ab2b0</title>
<path fill="none" stroke="#4a6fa5" d="M628.17,-739.01C699.36,-777.09 864.88,-865.62 941.4,-906.55"/>
<polygon fill="#4a6fa5" stroke="#4a6fa5" points="940.31,-908.75 947.64,-909.89 942.62,-904.42 940.31,-908.75"/>
</g>
<!-- Node0x63237b9a8b60 -->
<g id="node11" class="node">
<title>Node0x63237b9a8b60</title>
<path fill="#f0f4ff" stroke="black" d="M1558.5,-1332C1558.5,-1332 1237.5,-1332 1237.5,-1332 1231.5,-1332 1225.5,-1326 1225.5,-1320 1225.5,-1320 1225.5,-1308 1225.5,-1308 1225.5,-1302 1231.5,-1296 1237.5,-1296 1237.5,-1296 1558.5,-1296 1558.5,-1296 1564.5,-1296 1570.5,-1302 1570.5,-1308 1570.5,-1308 1570.5,-1320 1570.5,-1320 1570.5,-1326 1564.5,-1332 1558.5,-1332"/>
<text text-anchor="middle" x="1398" y="-1311.8" font-family="Courier,monospace" font-size="9.00">{CIccSparseMatrixEntry&lt;unsigned char&gt;::CIccSparseMatrixEntry()}</text>
</g>
<!-- Node0x63237b9c5fe0&#45;&gt;Node0x63237b9a8b60 -->
<g id="edge17" class="edge">
<title>Node0x63237b9c5fe0&#45;&gt;Node0x63237b9a8b60</title>
<path fill="none" stroke="#4a6fa5" d="M1116.04,-1327.59C1148.46,-1326.02 1183.69,-1324.32 1217.88,-1322.66"/>
<polygon fill="#4a6fa5" stroke="#4a6fa5" points="1218.29,-1325.1 1225.16,-1322.31 1218.05,-1320.2 1218.29,-1325.1"/>
</g>
<!-- Node0x63237b999470 -->
<g id="node14" class="node">
<title>Node0x63237b999470</title>
<path fill="#f0f4ff" stroke="black" d="M1537.5,-1201C1537.5,-1201 1258.5,-1201 1258.5,-1201 1252.5,-1201 1246.5,-1195 1246.5,-1189 1246.5,-1189 1246.5,-1177 1246.5,-1177 1246.5,-1171 1252.5,-1165 1258.5,-1165 1258.5,-1165 1537.5,-1165 1537.5,-1165 1543.5,-1165 1549.5,-1171 1549.5,-1177 1549.5,-1177 1549.5,-1189 1549.5,-1189 1549.5,-1195 1543.5,-1201 1537.5,-1201"/>
<text text-anchor="middle" x="1398" y="-1180.8" font-family="Courier,monospace" font-size="9.00">{CIccSparseMatrixEntry&lt;float&gt;::CIccSparseMatrixEntry()}</text>
</g>
<!-- Node0x63237b9b5920&#45;&gt;Node0x63237b999470 -->
<g id="edge21" class="edge">
<title>Node0x63237b9b5920&#45;&gt;Node0x63237b999470</title>
<path fill="none" stroke="#4a6fa5" d="M1131.62,-1212.52C1166.59,-1208.63 1204.01,-1204.47 1239.39,-1200.53"/>
<polygon fill="#4a6fa5" stroke="#4a6fa5" points="1239.75,-1202.96 1246.44,-1199.75 1239.21,-1198.09 1239.75,-1202.96"/>
</g>
<!-- Node0x63237b9aed50 -->
<g id="node13" class="node">
<title>Node0x63237b9aed50</title>
<path fill="#f0f4ff" stroke="black" d="M1561.5,-1037C1561.5,-1037 1234.5,-1037 1234.5,-1037 1228.5,-1037 1222.5,-1031 1222.5,-1025 1222.5,-1025 1222.5,-1013 1222.5,-1013 1222.5,-1007 1228.5,-1001 1234.5,-1001 1234.5,-1001 1561.5,-1001 1561.5,-1001 1567.5,-1001 1573.5,-1007 1573.5,-1013 1573.5,-1013 1573.5,-1025 1573.5,-1025 1573.5,-1031 1567.5,-1037 1561.5,-1037"/>
<text text-anchor="middle" x="1398" y="-1016.8" font-family="Courier,monospace" font-size="9.00">{CIccSparseMatrixEntry&lt;unsigned short&gt;::CIccSparseMatrixEntry()}</text>
</g>
<!-- Node0x63237b9aecc0&#45;&gt;Node0x63237b9aed50 -->
<g id="edge18" class="edge">
<title>Node0x63237b9aecc0&#45;&gt;Node0x63237b9aed50</title>
<path fill="none" stroke="#4a6fa5" d="M1121.19,-1019C1151.33,-1019 1183.69,-1019 1215.25,-1019"/>
<polygon fill="#4a6fa5" stroke="#4a6fa5" points="1215.4,-1021.45 1222.4,-1019 1215.4,-1016.55 1215.4,-1021.45"/>
</g>
<!-- Node0x63237b9b47d0&#45;&gt;Node0x63237b999470 -->
<g id="edge20" class="edge">
<title>Node0x63237b9b47d0&#45;&gt;Node0x63237b999470</title>
<path fill="none" stroke="#4a6fa5" d="M1126.67,-1161.43C1162.88,-1164.32 1201.96,-1167.43 1238.86,-1170.38"/>
<polygon fill="#4a6fa5" stroke="#4a6fa5" points="1239.04,-1172.85 1246.21,-1170.97 1239.43,-1167.97 1239.04,-1172.85"/>
</g>
<!-- Node0x63237b9ab2b0&#45;&gt;Node0x63237b9aed50 -->
<g id="edge19" class="edge">
<title>Node0x63237b9ab2b0&#45;&gt;Node0x63237b9aed50</title>
<path fill="none" stroke="#4a6fa5" d="M1065.69,-946.09C1135.74,-961.5 1236.19,-983.61 1308.1,-999.44"/>
<polygon fill="#4a6fa5" stroke="#4a6fa5" points="1307.6,-1001.83 1314.97,-1000.95 1308.66,-997.05 1307.6,-1001.83"/>
</g>
<!-- Node0x63237b9a7ec0 -->
<g id="node10" class="node">
<title>Node0x63237b9a7ec0</title>
<path fill="#f0f4ff" stroke="black" d="M273,-947C273,-947 83,-947 83,-947 77,-947 71,-941 71,-935 71,-935 71,-923 71,-923 71,-917 77,-911 83,-911 83,-911 273,-911 273,-911 279,-911 285,-917 285,-923 285,-923 285,-935 285,-935 285,-941 279,-947 273,-947"/>
<text text-anchor="middle" x="178" y="-926.8" font-family="Courier,monospace" font-size="9.00">{CIccSparseMatrix::CIccSparseMatrix()}</text>
</g>
<!-- Node0x63237b9a7ec0&#45;&gt;Node0x63237b86c530 -->
<g id="edge12" class="edge">
<title>Node0x63237b9a7ec0&#45;&gt;Node0x63237b86c530</title>
<path fill="none" stroke="#4a6fa5" d="M201.89,-910.86C245.92,-876.81 346.52,-802.97 442,-761 463.64,-751.49 488.06,-743.8 510.84,-737.81"/>
<polygon fill="#4a6fa5" stroke="#4a6fa5" points="511.68,-740.13 517.85,-736.01 510.46,-735.38 511.68,-740.13"/>
</g>
<!-- Node0x63237b9a7ec0&#45;&gt;Node0x63237b9c30d0 -->
<g id="edge9" class="edge">
<title>Node0x63237b9a7ec0&#45;&gt;Node0x63237b9c30d0</title>
<path fill="none" stroke="#4a6fa5" d="M212.69,-910.84C261.61,-885.46 355.87,-840.23 442,-820 629.38,-775.99 862.66,-778.74 948.13,-781.58"/>
<polygon fill="#4a6fa5" stroke="#4a6fa5" points="948.15,-784.03 955.23,-781.83 948.32,-779.14 948.15,-784.03"/>
</g>
<!-- Node0x63237b9a7ec0&#45;&gt;Node0x63237b9c5fe0 -->
<g id="edge10" class="edge">
<title>Node0x63237b9a7ec0&#45;&gt;Node0x63237b9c5fe0</title>
<path fill="none" stroke="#4a6fa5" d="M230.16,-947.03C267.77,-962.01 318.62,-986.04 356,-1018 405.87,-1060.64 389.71,-1098.36 442,-1138 572.22,-1236.73 756.98,-1289.4 872.97,-1314.5"/>
<polygon fill="#4a6fa5" stroke="#4a6fa5" points="872.46,-1316.9 879.82,-1315.97 873.49,-1312.11 872.46,-1316.9"/>
</g>
<!-- Node0x63237b9a7ec0&#45;&gt;Node0x63237b9c7aa0 -->
<g id="edge11" class="edge">
<title>Node0x63237b9a7ec0&#45;&gt;Node0x63237b9c7aa0</title>
<path fill="none" stroke="#4a6fa5" d="M210.3,-910.96C249.24,-887.1 315.55,-841.61 356,-787 417.26,-704.3 362.36,-637.18 442,-572 461.58,-555.98 820.44,-498.33 941.79,-479.21"/>
<polygon fill="#4a6fa5" stroke="#4a6fa5" points="942.22,-481.62 948.75,-478.12 941.45,-476.78 942.22,-481.62"/>
</g>
<!-- Node0x63237b9a7ec0&#45;&gt;Node0x63237b9b5920 -->
<g id="edge14" class="edge">
<title>Node0x63237b9a7ec0&#45;&gt;Node0x63237b9b5920</title>
<path fill="none" stroke="#4a6fa5" d="M216.24,-947.03C252.26,-964.62 308.25,-992.41 356,-1018 394.78,-1038.78 401.56,-1049.67 442,-1067 596.15,-1133.05 785.86,-1183.3 894.33,-1209.28"/>
<polygon fill="#4a6fa5" stroke="#4a6fa5" points="893.97,-1211.72 901.35,-1210.96 895.11,-1206.95 893.97,-1211.72"/>
</g>
<!-- Node0x63237b9a7ec0&#45;&gt;Node0x63237b9aecc0 -->
<g id="edge13" class="edge">
<title>Node0x63237b9a7ec0&#45;&gt;Node0x63237b9aecc0</title>
<path fill="none" stroke="#4a6fa5" d="M285.15,-940.9C426.71,-956.78 677.86,-984.95 836.7,-1002.76"/>
<polygon fill="#4a6fa5" stroke="#4a6fa5" points="836.49,-1005.2 843.72,-1003.55 837.04,-1000.33 836.49,-1005.2"/>
</g>
<!-- Node0x63237b9a7ec0&#45;&gt;Node0x63237b9b47d0 -->
<g id="edge15" class="edge">
<title>Node0x63237b9a7ec0&#45;&gt;Node0x63237b9b47d0</title>
<path fill="none" stroke="#4a6fa5" d="M244.67,-947.09C393.32,-988.02 754.61,-1087.52 909.29,-1130.11"/>
<polygon fill="#4a6fa5" stroke="#4a6fa5" points="908.65,-1132.48 916.05,-1131.97 909.95,-1127.75 908.65,-1132.48"/>
</g>
<!-- Node0x63237b9a7ec0&#45;&gt;Node0x63237b9ab2b0 -->
<g id="edge16" class="edge">
<title>Node0x63237b9a7ec0&#45;&gt;Node0x63237b9ab2b0</title>
<path fill="none" stroke="#4a6fa5" d="M285.15,-928.87C425.14,-928.69 672.28,-928.39 831.37,-928.19"/>
<polygon fill="#4a6fa5" stroke="#4a6fa5" points="831.41,-930.64 838.4,-928.18 831.4,-925.74 831.41,-930.64"/>
</g>
<!-- Node0x63237b9e7d10 -->
<g id="node35" class="node">
<title>Node0x63237b9e7d10</title>
<path fill="#f0f4ff" stroke="black" d="M1919.5,-1201C1919.5,-1201 1676.5,-1201 1676.5,-1201 1670.5,-1201 1664.5,-1195 1664.5,-1189 1664.5,-1189 1664.5,-1177 1664.5,-1177 1664.5,-1171 1670.5,-1165 1676.5,-1165 1676.5,-1165 1919.5,-1165 1919.5,-1165 1925.5,-1165 1931.5,-1171 1931.5,-1177 1931.5,-1177 1931.5,-1189 1931.5,-1189 1931.5,-1195 1925.5,-1201 1919.5,-1201"/>
<text text-anchor="middle" x="1798" y="-1180.8" font-family="Courier,monospace" font-size="9.00">{IIccSparseMatrixEntry::IIccSparseMatrixEntry()}</text>
</g>
<!-- Node0x63237b9a8b60&#45;&gt;Node0x63237b9e7d10 -->
<g id="edge44" class="edge">
<title>Node0x63237b9a8b60&#45;&gt;Node0x63237b9e7d10</title>
<path fill="none" stroke="#4a6fa5" d="M1453.92,-1295.92C1527.61,-1271.67 1658.12,-1228.71 1735.17,-1203.35"/>
<polygon fill="#4a6fa5" stroke="#4a6fa5" points="1736.12,-1205.62 1742,-1201.1 1734.59,-1200.96 1736.12,-1205.62"/>
</g>
<!-- Node0x63237b9a6ba0 -->
<g id="node12" class="node">
<title>Node0x63237b9a6ba0</title>
<path fill="#f0f4ff" stroke="black" d="M231,-1217C231,-1217 125,-1217 125,-1217 119,-1217 113,-1211 113,-1205 113,-1205 113,-1193 113,-1193 113,-1187 119,-1181 125,-1181 125,-1181 231,-1181 231,-1181 237,-1181 243,-1187 243,-1193 243,-1193 243,-1205 243,-1205 243,-1211 237,-1217 231,-1217"/>
<text text-anchor="middle" x="178" y="-1196.8" font-family="Courier,monospace" font-size="9.00">{__gxx_personality_v0}</text>
</g>
<!-- Node0x63237b9aed50&#45;&gt;Node0x63237b9e7d10 -->
<g id="edge50" class="edge">
<title>Node0x63237b9aed50&#45;&gt;Node0x63237b9e7d10</title>
<path fill="none" stroke="#4a6fa5" d="M1442.73,-1037.02C1517.02,-1067.63 1667.46,-1129.62 1746.26,-1162.09"/>
<polygon fill="#4a6fa5" stroke="#4a6fa5" points="1745.79,-1164.55 1753.2,-1164.95 1747.66,-1160.02 1745.79,-1164.55"/>
</g>
<!-- Node0x63237b999470&#45;&gt;Node0x63237b9e7d10 -->
<g id="edge62" class="edge">
<title>Node0x63237b999470&#45;&gt;Node0x63237b9e7d10</title>
<path fill="none" stroke="#4a6fa5" d="M1549.75,-1183C1584.98,-1183 1622.35,-1183 1657.08,-1183"/>
<polygon fill="#4a6fa5" stroke="#4a6fa5" points="1657.45,-1185.45 1664.45,-1183 1657.45,-1180.55 1657.45,-1185.45"/>
</g>
<!-- Node0x63237b99b350 -->
<g id="node15" class="node">
<title>Node0x63237b99b350</title>
<path fill="#f0f4ff" stroke="black" d="M275.5,-1392C275.5,-1392 80.5,-1392 80.5,-1392 74.5,-1392 68.5,-1386 68.5,-1380 68.5,-1380 68.5,-1368 68.5,-1368 68.5,-1362 74.5,-1356 80.5,-1356 80.5,-1356 275.5,-1356 275.5,-1356 281.5,-1356 287.5,-1362 287.5,-1368 287.5,-1368 287.5,-1380 287.5,-1380 287.5,-1386 281.5,-1392 275.5,-1392"/>
<text text-anchor="middle" x="178" y="-1371.8" font-family="Courier,monospace" font-size="9.00">{CIccSparseMatrix::~CIccSparseMatrix()}</text>
</g>
<!-- Node0x63237b99dc50 -->
<g id="node16" class="node">
<title>Node0x63237b99dc50</title>
<path fill="#f0f4ff" stroke="black" d="M691,-491C691,-491 496,-491 496,-491 490,-491 484,-485 484,-479 484,-479 484,-467 484,-467 484,-461 490,-455 496,-455 496,-455 691,-455 691,-455 697,-455 703,-461 703,-467 703,-467 703,-479 703,-479 703,-485 697,-491 691,-491"/>
<text text-anchor="middle" x="593.5" y="-470.8" font-family="Courier,monospace" font-size="9.00">{CIccSparseMatrix::~CIccSparseMatrix()}</text>
</g>
<!-- Node0x63237b99dc50&#45;&gt;Node0x63237b9c7aa0 -->
<g id="edge22" class="edge">
<title>Node0x63237b99dc50&#45;&gt;Node0x63237b9c7aa0</title>
<path fill="none" stroke="#4a6fa5" d="M703.07,-473C782.46,-473 885.64,-473 941.43,-473"/>
<polygon fill="#4a6fa5" stroke="#4a6fa5" points="941.66,-475.45 948.66,-473 941.66,-470.55 941.66,-475.45"/>
</g>
<!-- Node0x63237b99cf20 -->
<g id="node17" class="node">
<title>Node0x63237b99cf20</title>
<path fill="#f0f4ff" stroke="black" d="M315,-1068C315,-1068 41,-1068 41,-1068 35,-1068 29,-1062 29,-1056 29,-1056 29,-1044 29,-1044 29,-1038 35,-1032 41,-1032 41,-1032 315,-1032 315,-1032 321,-1032 327,-1038 327,-1044 327,-1044 327,-1056 327,-1056 327,-1062 321,-1068 315,-1068"/>
<text text-anchor="middle" x="178" y="-1047.8" font-family="Courier,monospace" font-size="9.00">{CIccSparseMatrix::operator=(CIccSparseMatrix const&amp;)}</text>
</g>
<!-- Node0x63237b99cf20&#45;&gt;Node0x63237b86c530 -->
<g id="edge26" class="edge">
<title>Node0x63237b99cf20&#45;&gt;Node0x63237b86c530</title>
<path fill="none" stroke="#4a6fa5" d="M234.12,-1031.9C271.73,-1017.47 320.9,-994.3 356,-962 410.3,-912.04 390.81,-873.14 442,-820 473.33,-787.48 517.19,-760.15 549.48,-742.51"/>
<polygon fill="#4a6fa5" stroke="#4a6fa5" points="550.78,-744.59 555.78,-739.11 548.45,-740.28 550.78,-744.59"/>
</g>
<!-- Node0x63237b99cf20&#45;&gt;Node0x63237b9c30d0 -->
<g id="edge23" class="edge">
<title>Node0x63237b99cf20&#45;&gt;Node0x63237b9c30d0</title>
<path fill="none" stroke="#4a6fa5" d="M228.79,-1031.93C281.57,-1012.88 367.44,-982.2 442,-957 633.12,-892.4 864.08,-819.69 948.54,-793.28"/>
<polygon fill="#4a6fa5" stroke="#4a6fa5" points="949.36,-795.59 955.31,-791.16 947.9,-790.91 949.36,-795.59"/>
</g>
<!-- Node0x63237b99cf20&#45;&gt;Node0x63237b9c5fe0 -->
<g id="edge24" class="edge">
<title>Node0x63237b99cf20&#45;&gt;Node0x63237b9c5fe0</title>
<path fill="none" stroke="#4a6fa5" d="M220.62,-1068.13C260.4,-1087.39 319.57,-1121.37 356,-1167 423.57,-1251.64 352.92,-1333.4 442,-1395 598.87,-1503.49 844.82,-1402.36 941.02,-1355.21"/>
<polygon fill="#4a6fa5" stroke="#4a6fa5" points="942.22,-1357.35 947.41,-1352.05 940.05,-1352.96 942.22,-1357.35"/>
</g>
<!-- Node0x63237b99cf20&#45;&gt;Node0x63237b9c7aa0 -->
<g id="edge25" class="edge">
<title>Node0x63237b99cf20&#45;&gt;Node0x63237b9c7aa0</title>
<path fill="none" stroke="#4a6fa5" d="M245.93,-1031.95C283.46,-1018.52 328.19,-996.44 356,-962 453.38,-841.4 329.49,-730.63 442,-624 541.64,-529.57 613.12,-602.12 745,-564 816.1,-543.45 895.88,-510.61 942.23,-490.51"/>
<polygon fill="#4a6fa5" stroke="#4a6fa5" points="943.38,-492.68 948.82,-487.64 941.43,-488.19 943.38,-492.68"/>
</g>
<!-- Node0x63237b99cf20&#45;&gt;Node0x63237b9b5920 -->
<g id="edge28" class="edge">
<title>Node0x63237b99cf20&#45;&gt;Node0x63237b9b5920</title>
<path fill="none" stroke="#4a6fa5" d="M212.93,-1068.02C250.36,-1088.86 311.21,-1125.64 356,-1167 401.59,-1209.1 386.22,-1249.81 442,-1277 606.63,-1357.26 833.05,-1287.6 931.93,-1249.7"/>
<polygon fill="#4a6fa5" stroke="#4a6fa5" points="932.9,-1251.95 938.55,-1247.14 931.13,-1247.38 932.9,-1251.95"/>
</g>
<!-- Node0x63237b99cf20&#45;&gt;Node0x63237b9aecc0 -->
<g id="edge27" class="edge">
<title>Node0x63237b99cf20&#45;&gt;Node0x63237b9aecc0</title>
<path fill="none" stroke="#4a6fa5" d="M327.18,-1050.75C441.43,-1050.58 603.32,-1048.7 745,-1041 774.64,-1039.39 806.31,-1036.94 836.52,-1034.26"/>
<polygon fill="#4a6fa5" stroke="#4a6fa5" points="837,-1036.68 843.76,-1033.61 836.57,-1031.8 837,-1036.68"/>
</g>
<!-- Node0x63237b99cf20&#45;&gt;Node0x63237b9b47d0 -->
<g id="edge29" class="edge">
<title>Node0x63237b99cf20&#45;&gt;Node0x63237b9b47d0</title>
<path fill="none" stroke="#4a6fa5" d="M210.9,-1068.09C259.12,-1094.28 354.26,-1141.54 442,-1159 574.6,-1185.39 729.17,-1179.16 838.79,-1168.71"/>
<polygon fill="#4a6fa5" stroke="#4a6fa5" points="839.21,-1171.13 845.94,-1168.01 838.74,-1166.25 839.21,-1171.13"/>
</g>
<!-- Node0x63237b99cf20&#45;&gt;Node0x63237b9ab2b0 -->
<g id="edge30" class="edge">
<title>Node0x63237b99cf20&#45;&gt;Node0x63237b9ab2b0</title>
<path fill="none" stroke="#4a6fa5" d="M297.41,-1032C446.87,-1009.28 702.87,-970.36 855.73,-947.12"/>
<polygon fill="#4a6fa5" stroke="#4a6fa5" points="856.38,-949.5 862.93,-946.03 855.64,-944.66 856.38,-949.5"/>
</g>
<!-- Node0x63237b8bb0b0 -->
<g id="node18" class="node">
<title>Node0x63237b8bb0b0</title>
<path fill="#f0f4ff" stroke="black" d="M244,-707C244,-707 112,-707 112,-707 106,-707 100,-701 100,-695 100,-695 100,-683 100,-683 100,-677 106,-671 112,-671 112,-671 244,-671 244,-671 250,-671 256,-677 256,-683 256,-683 256,-695 256,-695 256,-701 250,-707 244,-707"/>
<text text-anchor="middle" x="178" y="-686.8" font-family="Courier,monospace" font-size="9.00">{CIccSparseMatrix::Reset()}</text>
</g>
<!-- Node0x63237b8bb0b0&#45;&gt;Node0x63237b86c530 -->
<g id="edge31" class="edge">
<title>Node0x63237b8bb0b0&#45;&gt;Node0x63237b86c530</title>
<path fill="none" stroke="#4a6fa5" d="M256.29,-694.98C328.75,-700.59 436.72,-708.94 510.63,-714.66"/>
<polygon fill="#4a6fa5" stroke="#4a6fa5" points="510.51,-717.11 517.68,-715.21 510.89,-712.23 510.51,-717.11"/>
</g>
<!-- Node0x63237b82d6b0 -->
<g id="node19" class="node">
<title>Node0x63237b82d6b0</title>
<path fill="#f0f4ff" stroke="black" d="M659.5,-1512C659.5,-1512 527.5,-1512 527.5,-1512 521.5,-1512 515.5,-1506 515.5,-1500 515.5,-1500 515.5,-1488 515.5,-1488 515.5,-1482 521.5,-1476 527.5,-1476 527.5,-1476 659.5,-1476 659.5,-1476 665.5,-1476 671.5,-1482 671.5,-1488 671.5,-1488 671.5,-1500 671.5,-1500 671.5,-1506 665.5,-1512 659.5,-1512"/>
<text text-anchor="middle" x="593.5" y="-1491.8" font-family="Courier,monospace" font-size="9.00">{CIccSparseMatrix::Clear()}</text>
</g>
<!-- Node0x63237b9947d0 -->
<g id="node20" class="node">
<title>Node0x63237b9947d0</title>
<path fill="#f0f4ff" stroke="black" d="M1030.5,-1512C1030.5,-1512 934.5,-1512 934.5,-1512 928.5,-1512 922.5,-1506 922.5,-1500 922.5,-1500 922.5,-1488 922.5,-1488 922.5,-1482 928.5,-1476 934.5,-1476 934.5,-1476 1030.5,-1476 1030.5,-1476 1036.5,-1476 1042.5,-1482 1042.5,-1488 1042.5,-1488 1042.5,-1500 1042.5,-1500 1042.5,-1506 1036.5,-1512 1030.5,-1512"/>
<text text-anchor="middle" x="982.5" y="-1491.8" font-family="Courier,monospace" font-size="9.00">{llvm.memset.p0.i64}</text>
</g>
<!-- Node0x63237b82d6b0&#45;&gt;Node0x63237b9947d0 -->
<g id="edge32" class="edge">
<title>Node0x63237b82d6b0&#45;&gt;Node0x63237b9947d0</title>
<path fill="none" stroke="#4a6fa5" d="M671.89,-1494C743.07,-1494 847.54,-1494 915.04,-1494"/>
<polygon fill="#4a6fa5" stroke="#4a6fa5" points="915.27,-1496.45 922.27,-1494 915.27,-1491.55 915.27,-1496.45"/>
</g>
<!-- Node0x63237b8ba440 -->
<g id="node21" class="node">
<title>Node0x63237b8ba440</title>
<path fill="#f0f4ff" stroke="black" d="M241.5,-343C241.5,-343 114.5,-343 114.5,-343 108.5,-343 102.5,-337 102.5,-331 102.5,-331 102.5,-319 102.5,-319 102.5,-313 108.5,-307 114.5,-307 114.5,-307 241.5,-307 241.5,-307 247.5,-307 253.5,-313 253.5,-319 253.5,-319 253.5,-331 253.5,-331 253.5,-337 247.5,-343 241.5,-343"/>
<text text-anchor="middle" x="178" y="-322.8" font-family="Courier,monospace" font-size="9.00">{CIccSparseMatrix::Copy()}</text>
</g>
<!-- Node0x63237b8ba440&#45;&gt;Node0x63237b86c530 -->
<g id="edge33" class="edge">
<title>Node0x63237b8ba440&#45;&gt;Node0x63237b86c530</title>
<path fill="none" stroke="#4a6fa5" d="M199.66,-343.2C235.02,-375.13 307.95,-444.47 356,-514 405.27,-585.29 373.63,-635.75 442,-689 461.56,-704.24 486.73,-712.63 510.86,-717.14"/>
<polygon fill="#4a6fa5" stroke="#4a6fa5" points="510.66,-719.6 517.97,-718.37 511.49,-714.77 510.66,-719.6"/>
</g>
<!-- Node0x63237b871170 -->
<g id="node22" class="node">
<title>Node0x63237b871170</title>
<path fill="#f0f4ff" stroke="black" d="M649,-166C649,-166 538,-166 538,-166 532,-166 526,-160 526,-154 526,-154 526,-142 526,-142 526,-136 532,-130 538,-130 538,-130 649,-130 649,-130 655,-130 661,-136 661,-142 661,-142 661,-154 661,-154 661,-160 655,-166 649,-166"/>
<text text-anchor="middle" x="593.5" y="-145.8" font-family="Courier,monospace" font-size="9.00">{llvm.memcpy.p0.p0.i64}</text>
</g>
<!-- Node0x63237b8ba440&#45;&gt;Node0x63237b871170 -->
<g id="edge34" class="edge">
<title>Node0x63237b8ba440&#45;&gt;Node0x63237b871170</title>
<path fill="none" stroke="#4a6fa5" d="M227.41,-306.87C263.84,-292.41 314.42,-270.56 356,-246 397.25,-221.63 398.48,-201.04 442,-181 465.87,-170.01 493.59,-162.59 518.69,-157.63"/>
<polygon fill="#4a6fa5" stroke="#4a6fa5" points="519.28,-160.01 525.69,-156.29 518.36,-155.19 519.28,-160.01"/>
</g>
<!-- Node0x63237b811030 -->
<g id="node23" class="node">
<title>Node0x63237b811030</title>
<path fill="#f0f4ff" stroke="black" d="M278.5,-1512C278.5,-1512 77.5,-1512 77.5,-1512 71.5,-1512 65.5,-1506 65.5,-1500 65.5,-1500 65.5,-1488 65.5,-1488 65.5,-1482 71.5,-1476 77.5,-1476 77.5,-1476 278.5,-1476 278.5,-1476 284.5,-1476 290.5,-1482 290.5,-1488 290.5,-1488 290.5,-1500 290.5,-1500 290.5,-1506 284.5,-1512 278.5,-1512"/>
<text text-anchor="middle" x="178" y="-1491.8" font-family="Courier,monospace" font-size="9.00">{CIccSparseMatrix::FillFromFullMatrix()}</text>
</g>
<!-- Node0x63237b811030&#45;&gt;Node0x63237b82d6b0 -->
<g id="edge35" class="edge">
<title>Node0x63237b811030&#45;&gt;Node0x63237b82d6b0</title>
<path fill="none" stroke="#4a6fa5" d="M290.63,-1494C359.15,-1494 445.49,-1494 508.26,-1494"/>
<polygon fill="#4a6fa5" stroke="#4a6fa5" points="508.41,-1496.45 515.41,-1494 508.41,-1491.55 508.41,-1496.45"/>
</g>
<!-- Node0x63237b819a00 -->
<g id="node24" class="node">
<title>Node0x63237b819a00</title>
<path fill="#f0f4ff" stroke="black" d="M268,-166C268,-166 88,-166 88,-166 82,-166 76,-160 76,-154 76,-154 76,-142 76,-142 76,-136 82,-130 88,-130 88,-130 268,-130 268,-130 274,-130 280,-136 280,-142 280,-142 280,-154 280,-154 280,-160 274,-166 268,-166"/>
<text text-anchor="middle" x="178" y="-145.8" font-family="Courier,monospace" font-size="9.00">{CIccSparseMatrix::MultiplyVector()}</text>
</g>
<!-- Node0x63237b880a00 -->
<g id="node25" class="node">
<title>Node0x63237b880a00</title>
<path fill="#f0f4ff" stroke="black" d="M636,-101C636,-101 551,-101 551,-101 545,-101 539,-95 539,-89 539,-89 539,-77 539,-77 539,-71 545,-65 551,-65 551,-65 636,-65 636,-65 642,-65 648,-71 648,-77 648,-77 648,-89 648,-89 648,-95 642,-101 636,-101"/>
<text text-anchor="middle" x="593.5" y="-80.8" font-family="Courier,monospace" font-size="9.00">{llvm.fmuladd.f32}</text>
</g>
<!-- Node0x63237b819a00&#45;&gt;Node0x63237b880a00 -->
<g id="edge36" class="edge">
<title>Node0x63237b819a00&#45;&gt;Node0x63237b880a00</title>
<path fill="none" stroke="#4a6fa5" d="M280.15,-132.1C358.93,-119.72 465.67,-102.94 531.76,-92.55"/>
<polygon fill="#4a6fa5" stroke="#4a6fa5" points="532.29,-94.95 538.82,-91.44 531.52,-90.1 532.29,-94.95"/>
</g>
<!-- Node0x63237b9e8960 -->
<g id="node26" class="node">
<title>Node0x63237b9e8960</title>
<path fill="#f0f4ff" stroke="black" d="M717.5,-674C717.5,-674 469.5,-674 469.5,-674 463.5,-674 457.5,-668 457.5,-662 457.5,-662 457.5,-650 457.5,-650 457.5,-644 463.5,-638 469.5,-638 469.5,-638 717.5,-638 717.5,-638 723.5,-638 729.5,-644 729.5,-650 729.5,-650 729.5,-662 729.5,-662 729.5,-668 723.5,-674 717.5,-674"/>
<text text-anchor="middle" x="593.5" y="-653.8" font-family="Courier,monospace" font-size="9.00">{CIccSparseMatrixUInt8::~CIccSparseMatrixUInt8()}</text>
</g>
<!-- Node0x63237b9e8960&#45;&gt;Node0x63237b9c7aa0 -->
<g id="edge38" class="edge">
<title>Node0x63237b9e8960&#45;&gt;Node0x63237b9c7aa0</title>
<path fill="none" stroke="#4a6fa5" d="M679.5,-637.91C701.27,-632.07 724.35,-624.78 745,-616 786.14,-598.52 892.67,-530.74 947.62,-495.13"/>
<polygon fill="#4a6fa5" stroke="#4a6fa5" points="949.19,-497.03 953.73,-491.16 946.53,-492.92 949.19,-497.03"/>
</g>
<!-- Node0x63237b9e9710 -->
<g id="node27" class="node">
<title>Node0x63237b9e9710</title>
<path fill="#f0f4ff" stroke="black" d="M1106.5,-620C1106.5,-620 858.5,-620 858.5,-620 852.5,-620 846.5,-614 846.5,-608 846.5,-608 846.5,-596 846.5,-596 846.5,-590 852.5,-584 858.5,-584 858.5,-584 1106.5,-584 1106.5,-584 1112.5,-584 1118.5,-590 1118.5,-596 1118.5,-596 1118.5,-608 1118.5,-608 1118.5,-614 1112.5,-620 1106.5,-620"/>
<text text-anchor="middle" x="982.5" y="-599.8" font-family="Courier,monospace" font-size="9.00">{CIccSparseMatrixUInt8::~CIccSparseMatrixUInt8()}</text>
</g>
<!-- Node0x63237b9e8960&#45;&gt;Node0x63237b9e9710 -->
<g id="edge37" class="edge">
<title>Node0x63237b9e8960&#45;&gt;Node0x63237b9e9710</title>
<path fill="none" stroke="#4a6fa5" d="M723.63,-637.98C762.64,-632.54 805.58,-626.55 845.05,-621.04"/>
<polygon fill="#4a6fa5" stroke="#4a6fa5" points="845.78,-623.41 852.38,-620.02 845.11,-618.56 845.78,-623.41"/>
</g>
<!-- Node0x63237b9e8bb0 -->
<g id="node36" class="node">
<title>Node0x63237b9e8bb0</title>
<path fill="#f0f4ff" stroke="black" d="M1561.5,-513C1561.5,-513 1234.5,-513 1234.5,-513 1228.5,-513 1222.5,-507 1222.5,-501 1222.5,-501 1222.5,-489 1222.5,-489 1222.5,-483 1228.5,-477 1234.5,-477 1234.5,-477 1561.5,-477 1561.5,-477 1567.5,-477 1573.5,-483 1573.5,-489 1573.5,-489 1573.5,-501 1573.5,-501 1573.5,-507 1567.5,-513 1561.5,-513"/>
<text text-anchor="middle" x="1398" y="-492.8" font-family="Courier,monospace" font-size="9.00">{CIccSparseMatrixEntry&lt;unsigned char&gt;::~CIccSparseMatrixEntry()}</text>
</g>
<!-- Node0x63237b9e9710&#45;&gt;Node0x63237b9e8bb0 -->
<g id="edge45" class="edge">
<title>Node0x63237b9e9710&#45;&gt;Node0x63237b9e8bb0</title>
<path fill="none" stroke="#4a6fa5" d="M1053.18,-583.97C1127.24,-564.8 1244.02,-534.59 1320.56,-514.78"/>
<polygon fill="#4a6fa5" stroke="#4a6fa5" points="1321.22,-517.14 1327.38,-513.01 1319.99,-512.4 1321.22,-517.14"/>
</g>
<!-- Node0x63237b9e86e0 -->
<g id="node28" class="node">
<title>Node0x63237b9e86e0</title>
<path fill="#f0f4ff" stroke="black" d="M294,-4376C294,-4376 62,-4376 62,-4376 56,-4376 50,-4370 50,-4364 50,-4364 50,-4352 50,-4352 50,-4346 56,-4340 62,-4340 62,-4340 294,-4340 294,-4340 300,-4340 306,-4346 306,-4352 306,-4352 306,-4364 306,-4364 306,-4370 300,-4376 294,-4376"/>
<text text-anchor="middle" x="178" y="-4355.8" font-family="Courier,monospace" font-size="9.00">{CIccSparseMatrixEntry&lt;unsigned char&gt;::init()}</text>
</g>
<!-- Node0x63237b879910 -->
<g id="node29" class="node">
<title>Node0x63237b879910</title>
<path fill="#f0f4ff" stroke="black" d="M247,-231C247,-231 109,-231 109,-231 103,-231 97,-225 97,-219 97,-219 97,-207 97,-207 97,-201 103,-195 109,-195 109,-195 247,-195 247,-195 253,-195 259,-201 259,-207 259,-207 259,-219 259,-219 259,-225 253,-231 247,-231"/>
<text text-anchor="middle" x="178" y="-210.8" font-family="Courier,monospace" font-size="9.00">{CIccSparseMatrix::Interp()}</text>
</g>
<!-- Node0x63237b879910&#45;&gt;Node0x63237b86c530 -->
<g id="edge39" class="edge">
<title>Node0x63237b879910&#45;&gt;Node0x63237b86c530</title>
<path fill="none" stroke="#4a6fa5" d="M256.94,-231.01C292.09,-242.98 331.19,-262.32 356,-293 469.26,-433.03 314.37,-561.93 442,-689 460.17,-707.09 485.87,-716.11 510.9,-720.33"/>
<polygon fill="#4a6fa5" stroke="#4a6fa5" points="510.64,-722.76 517.93,-721.39 511.38,-717.92 510.64,-722.76"/>
</g>
<!-- Node0x63237b879910&#45;&gt;Node0x63237b871170 -->
<g id="edge40" class="edge">
<title>Node0x63237b879910&#45;&gt;Node0x63237b871170</title>
<path fill="none" stroke="#4a6fa5" d="M259.22,-200.39C334.41,-188.57 445.89,-171.05 518.87,-159.57"/>
<polygon fill="#4a6fa5" stroke="#4a6fa5" points="519.28,-161.99 525.81,-158.48 518.52,-157.15 519.28,-161.99"/>
</g>
<!-- Node0x63237b879910&#45;&gt;Node0x63237b880a00 -->
<g id="edge41" class="edge">
<title>Node0x63237b879910&#45;&gt;Node0x63237b880a00</title>
<path fill="none" stroke="#4a6fa5" d="M259.31,-206.54C290.46,-201.98 325.83,-194.22 356,-181 399.88,-161.77 398.48,-136.04 442,-116 470.11,-103.06 503.55,-95.07 531.76,-90.21"/>
<polygon fill="#4a6fa5" stroke="#4a6fa5" points="532.31,-92.6 538.82,-89.04 531.51,-87.77 532.31,-92.6"/>
</g>
<!-- Node0x63237b871a70 -->
<g id="node30" class="node">
<title>Node0x63237b871a70</title>
<path fill="#f0f4ff" stroke="black" d="M244,-564C244,-564 112,-564 112,-564 106,-564 100,-558 100,-552 100,-552 100,-540 100,-540 100,-534 106,-528 112,-528 112,-528 244,-528 244,-528 250,-528 256,-534 256,-540 256,-540 256,-552 256,-552 256,-558 250,-564 244,-564"/>
<text text-anchor="middle" x="178" y="-543.8" font-family="Courier,monospace" font-size="9.00">{CIccSparseMatrix::Union()}</text>
</g>
<!-- Node0x63237b871a70&#45;&gt;Node0x63237b86c530 -->
<g id="edge42" class="edge">
<title>Node0x63237b871a70&#45;&gt;Node0x63237b86c530</title>
<path fill="none" stroke="#4a6fa5" d="M206.15,-564.23C252.52,-594.55 350.83,-655.33 442,-689 463.8,-697.05 488.17,-703.33 510.83,-708.1"/>
<polygon fill="#4a6fa5" stroke="#4a6fa5" points="510.46,-710.53 517.81,-709.54 511.45,-705.73 510.46,-710.53"/>
</g>
<!-- Node0x63237b871a70&#45;&gt;Node0x63237b871170 -->
<g id="edge43" class="edge">
<title>Node0x63237b871a70&#45;&gt;Node0x63237b871170</title>
<path fill="none" stroke="#4a6fa5" d="M199.7,-527.94C235.12,-496.25 308.15,-427.38 356,-358 405.66,-286 373.29,-235.12 442,-181 463.7,-163.91 492.38,-155.23 518.89,-150.97"/>
<polygon fill="#4a6fa5" stroke="#4a6fa5" points="519.37,-153.38 525.93,-149.93 518.65,-148.53 519.37,-153.38"/>
</g>
<!-- Node0x63237b9d2740 -->
<g id="node31" class="node">
<title>Node0x63237b9d2740</title>
<path fill="#f0f4ff" stroke="black" d="M249.5,-5841C249.5,-5841 106.5,-5841 106.5,-5841 100.5,-5841 94.5,-5835 94.5,-5829 94.5,-5829 94.5,-5817 94.5,-5817 94.5,-5811 100.5,-5805 106.5,-5805 106.5,-5805 249.5,-5805 249.5,-5805 255.5,-5805 261.5,-5811 261.5,-5817 261.5,-5817 261.5,-5829 261.5,-5829 261.5,-5835 255.5,-5841 249.5,-5841"/>
<text text-anchor="middle" x="178" y="-5820.8" font-family="Courier,monospace" font-size="9.00">{CIccSparseMatrix::IsValid()}</text>
</g>
<!-- Node0x63237b9e7be0 -->
<g id="node32" class="node">
<title>Node0x63237b9e7be0</title>
<path fill="#f0f4ff" stroke="black" d="M257.5,-6606C257.5,-6606 98.5,-6606 98.5,-6606 92.5,-6606 86.5,-6600 86.5,-6594 86.5,-6594 86.5,-6582 86.5,-6582 86.5,-6576 92.5,-6570 98.5,-6570 98.5,-6570 257.5,-6570 257.5,-6570 263.5,-6570 269.5,-6576 269.5,-6582 269.5,-6582 269.5,-6594 269.5,-6594 269.5,-6600 263.5,-6606 257.5,-6606"/>
<text text-anchor="middle" x="178" y="-6585.8" font-family="Courier,monospace" font-size="9.00">{CIccSparseMatrix::MaxEntries()}</text>
</g>
<!-- Node0x63237b9d4290 -->
<g id="node33" class="node">
<title>Node0x63237b9d4290</title>
<path fill="#f0f4ff" stroke="black" d="M249.5,-7021C249.5,-7021 106.5,-7021 106.5,-7021 100.5,-7021 94.5,-7015 94.5,-7009 94.5,-7009 94.5,-6997 94.5,-6997 94.5,-6991 100.5,-6985 106.5,-6985 106.5,-6985 249.5,-6985 249.5,-6985 255.5,-6985 261.5,-6991 261.5,-6997 261.5,-6997 261.5,-7009 261.5,-7009 261.5,-7015 255.5,-7021 249.5,-7021"/>
<text text-anchor="middle" x="178" y="-7000.8" font-family="Courier,monospace" font-size="9.00">{CIccSparseMatrix::MemSize()}</text>
</g>
<!-- Node0x63237b9d2880 -->
<g id="node34" class="node">
<title>Node0x63237b9d2880</title>
<path fill="#f0f4ff" stroke="black" d="M254.5,-7261C254.5,-7261 101.5,-7261 101.5,-7261 95.5,-7261 89.5,-7255 89.5,-7249 89.5,-7249 89.5,-7237 89.5,-7237 89.5,-7231 95.5,-7225 101.5,-7225 101.5,-7225 254.5,-7225 254.5,-7225 260.5,-7225 266.5,-7231 266.5,-7237 266.5,-7237 266.5,-7249 266.5,-7249 266.5,-7255 260.5,-7261 254.5,-7261"/>
<text text-anchor="middle" x="178" y="-7240.8" font-family="Courier,monospace" font-size="9.00">{CIccSparseMatrix::EntrySize()}</text>
</g>
<!-- Node0x63237b9ed800 -->
<g id="node41" class="node">
<title>Node0x63237b9ed800</title>
<path fill="#f0f4ff" stroke="black" d="M1922,-394C1922,-394 1674,-394 1674,-394 1668,-394 1662,-388 1662,-382 1662,-382 1662,-370 1662,-370 1662,-364 1668,-358 1674,-358 1674,-358 1922,-358 1922,-358 1928,-358 1934,-364 1934,-370 1934,-370 1934,-382 1934,-382 1934,-388 1928,-394 1922,-394"/>
<text text-anchor="middle" x="1798" y="-373.8" font-family="Courier,monospace" font-size="9.00">{IIccSparseMatrixEntry::~IIccSparseMatrixEntry()}</text>
</g>
<!-- Node0x63237b9e8bb0&#45;&gt;Node0x63237b9ed800 -->
<g id="edge47" class="edge">
<title>Node0x63237b9e8bb0&#45;&gt;Node0x63237b9ed800</title>
<path fill="none" stroke="#4a6fa5" d="M1459.45,-476.93C1532.27,-455.15 1654.25,-418.68 1729.91,-396.06"/>
<polygon fill="#4a6fa5" stroke="#4a6fa5" points="1730.63,-398.4 1736.64,-394.05 1729.23,-393.71 1730.63,-398.4"/>
</g>
<!-- Node0x63237b9e7740 -->
<g id="node37" class="node">
<title>Node0x63237b9e7740</title>
<path fill="#f0f4ff" stroke="black" d="M252,-7413C252,-7413 104,-7413 104,-7413 98,-7413 92,-7407 92,-7401 92,-7401 92,-7389 92,-7389 92,-7383 98,-7377 104,-7377 104,-7377 252,-7377 252,-7377 258,-7377 264,-7383 264,-7389 264,-7389 264,-7401 264,-7401 264,-7407 258,-7413 252,-7413"/>
<text text-anchor="middle" x="178" y="-7392.8" font-family="Courier,monospace" font-size="9.00">{CIccSparseMatrixUInt8::get()}</text>
</g>
<!-- Node0x63237b9e74a0 -->
<g id="node38" class="node">
<title>Node0x63237b9e74a0</title>
<path fill="#f0f4ff" stroke="black" d="M252,-101C252,-101 104,-101 104,-101 98,-101 92,-95 92,-89 92,-89 92,-77 92,-77 92,-71 98,-65 104,-65 104,-65 252,-65 252,-65 258,-65 264,-71 264,-77 264,-77 264,-89 264,-89 264,-95 258,-101 252,-101"/>
<text text-anchor="middle" x="178" y="-80.8" font-family="Courier,monospace" font-size="9.00">{CIccSparseMatrixUInt8::set()}</text>
</g>
<!-- Node0x63237b9e74a0&#45;&gt;Node0x63237b880a00 -->
<g id="edge46" class="edge">
<title>Node0x63237b9e74a0&#45;&gt;Node0x63237b880a00</title>
<path fill="none" stroke="#4a6fa5" d="M264.18,-83C343.95,-83 461.17,-83 531.83,-83"/>
<polygon fill="#4a6fa5" stroke="#4a6fa5" points="531.95,-85.45 538.95,-83 531.95,-80.55 531.95,-85.45"/>
</g>
<!-- Node0x63237b9eb8a0 -->
<g id="node39" class="node">
<title>Node0x63237b9eb8a0</title>
<path fill="#f0f4ff" stroke="black" d="M294,-7522C294,-7522 62,-7522 62,-7522 56,-7522 50,-7516 50,-7510 50,-7510 50,-7498 50,-7498 50,-7492 56,-7486 62,-7486 62,-7486 294,-7486 294,-7486 300,-7486 306,-7492 306,-7498 306,-7498 306,-7510 306,-7510 306,-7516 300,-7522 294,-7522"/>
<text text-anchor="middle" x="178" y="-7501.8" font-family="Courier,monospace" font-size="9.00">{CIccSparseMatrixEntry&lt;unsigned char&gt;::size()}</text>
</g>
<!-- Node0x63237b9ea380 -->
<g id="node40" class="node">
<title>Node0x63237b9ea380</title>
<path fill="#f0f4ff" stroke="black" d="M299.5,-7609C299.5,-7609 56.5,-7609 56.5,-7609 50.5,-7609 44.5,-7603 44.5,-7597 44.5,-7597 44.5,-7585 44.5,-7585 44.5,-7579 50.5,-7573 56.5,-7573 56.5,-7573 299.5,-7573 299.5,-7573 305.5,-7573 311.5,-7579 311.5,-7585 311.5,-7585 311.5,-7597 311.5,-7597 311.5,-7603 305.5,-7609 299.5,-7609"/>
<text text-anchor="middle" x="178" y="-7588.8" font-family="Courier,monospace" font-size="9.00">{CIccSparseMatrixEntry&lt;unsigned char&gt;::getPtr()}</text>
</g>
<!-- Node0x63237b9ed360 -->
<g id="node42" class="node">
<title>Node0x63237b9ed360</title>
<path fill="#f0f4ff" stroke="black" d="M341.5,-7880C341.5,-7880 14.5,-7880 14.5,-7880 8.5,-7880 2.5,-7874 2.5,-7868 2.5,-7868 2.5,-7856 2.5,-7856 2.5,-7850 8.5,-7844 14.5,-7844 14.5,-7844 341.5,-7844 341.5,-7844 347.5,-7844 353.5,-7850 353.5,-7856 353.5,-7856 353.5,-7868 353.5,-7868 353.5,-7874 347.5,-7880 341.5,-7880"/>
<text text-anchor="middle" x="178" y="-7859.8" font-family="Courier,monospace" font-size="9.00">{CIccSparseMatrixEntry&lt;unsigned char&gt;::~CIccSparseMatrixEntry()}</text>
</g>
<!-- Node0x63237b9ecfd0 -->
<g id="node43" class="node">
<title>Node0x63237b9ecfd0</title>
<path fill="#f0f4ff" stroke="black" d="M617.5,-7783C617.5,-7783 569.5,-7783 569.5,-7783 563.5,-7783 557.5,-7777 557.5,-7771 557.5,-7771 557.5,-7759 557.5,-7759 557.5,-7753 563.5,-7747 569.5,-7747 569.5,-7747 617.5,-7747 617.5,-7747 623.5,-7747 629.5,-7753 629.5,-7759 629.5,-7759 629.5,-7771 629.5,-7771 629.5,-7777 623.5,-7783 617.5,-7783"/>
<text text-anchor="middle" x="593.5" y="-7762.8" font-family="Courier,monospace" font-size="9.00">{llvm.trap}</text>
</g>
<!-- Node0x63237b9ed360&#45;&gt;Node0x63237b9ecfd0 -->
<g id="edge48" class="edge">
<title>Node0x63237b9ed360&#45;&gt;Node0x63237b9ecfd0</title>
<path fill="none" stroke="#4a6fa5" d="M287.42,-7843.98C310.16,-7839.76 333.92,-7835.02 356,-7830 424.72,-7814.38 503.43,-7791.79 550.5,-7777.77"/>
<polygon fill="#4a6fa5" stroke="#4a6fa5" points="551.48,-7780.03 557.49,-7775.68 550.08,-7775.34 551.48,-7780.03"/>
</g>
<!-- Node0x63237b9ece00 -->
<g id="node44" class="node">
<title>Node0x63237b9ece00</title>
<path fill="#f0f4ff" stroke="black" d="M226,-7950C226,-7950 130,-7950 130,-7950 124,-7950 118,-7944 118,-7938 118,-7938 118,-7926 118,-7926 118,-7920 124,-7914 130,-7914 130,-7914 226,-7914 226,-7914 232,-7914 238,-7920 238,-7926 238,-7926 238,-7938 238,-7938 238,-7944 232,-7950 226,-7950"/>
<text text-anchor="middle" x="178" y="-7929.8" font-family="Courier,monospace" font-size="9.00">{__cxa_pure_virtual}</text>
</g>
<!-- Node0x63237b9ef1b0 -->
<g id="node45" class="node">
<title>Node0x63237b9ef1b0</title>
<path fill="#f0f4ff" stroke="black" d="M302,-7815C302,-7815 54,-7815 54,-7815 48,-7815 42,-7809 42,-7803 42,-7803 42,-7791 42,-7791 42,-7785 48,-7779 54,-7779 54,-7779 302,-7779 302,-7779 308,-7779 314,-7785 314,-7791 314,-7791 314,-7803 314,-7803 314,-7809 308,-7815 302,-7815"/>
<text text-anchor="middle" x="178" y="-7794.8" font-family="Courier,monospace" font-size="9.00">{IIccSparseMatrixEntry::~IIccSparseMatrixEntry()}</text>
</g>
<!-- Node0x63237b9ef1b0&#45;&gt;Node0x63237b9ecfd0 -->
<g id="edge49" class="edge">
<title>Node0x63237b9ef1b0&#45;&gt;Node0x63237b9ecfd0</title>
<path fill="none" stroke="#4a6fa5" d="M314.11,-7786.54C395.96,-7780.21 494.9,-7772.55 550.06,-7768.28"/>
<polygon fill="#4a6fa5" stroke="#4a6fa5" points="550.43,-7770.71 557.22,-7767.73 550.05,-7765.83 550.43,-7770.71"/>
</g>
<!-- Node0x63237b9ee880 -->
<g id="node46" class="node">
<title>Node0x63237b9ee880</title>
<path fill="#f0f4ff" stroke="black" d="M1111.5,-426C1111.5,-426 853.5,-426 853.5,-426 847.5,-426 841.5,-420 841.5,-414 841.5,-414 841.5,-402 841.5,-402 841.5,-396 847.5,-390 853.5,-390 853.5,-390 1111.5,-390 1111.5,-390 1117.5,-390 1123.5,-396 1123.5,-402 1123.5,-402 1123.5,-414 1123.5,-414 1123.5,-420 1117.5,-426 1111.5,-426"/>
<text text-anchor="middle" x="982.5" y="-405.8" font-family="Courier,monospace" font-size="9.00">{CIccSparseMatrixUInt16::~CIccSparseMatrixUInt16()}</text>
</g>
<!-- Node0x63237b9ee5e0 -->
<g id="node47" class="node">
<title>Node0x63237b9ee5e0</title>
<path fill="#f0f4ff" stroke="black" d="M1564,-394C1564,-394 1232,-394 1232,-394 1226,-394 1220,-388 1220,-382 1220,-382 1220,-370 1220,-370 1220,-364 1226,-358 1232,-358 1232,-358 1564,-358 1564,-358 1570,-358 1576,-364 1576,-370 1576,-370 1576,-382 1576,-382 1576,-388 1570,-394 1564,-394"/>
<text text-anchor="middle" x="1398" y="-373.8" font-family="Courier,monospace" font-size="9.00">{CIccSparseMatrixEntry&lt;unsigned short&gt;::~CIccSparseMatrixEntry()}</text>
</g>
<!-- Node0x63237b9ee880&#45;&gt;Node0x63237b9ee5e0 -->
<g id="edge51" class="edge">
<title>Node0x63237b9ee880&#45;&gt;Node0x63237b9ee5e0</title>
<path fill="none" stroke="#4a6fa5" d="M1123.78,-397.14C1152.4,-394.93 1182.93,-392.57 1212.81,-390.25"/>
<polygon fill="#4a6fa5" stroke="#4a6fa5" points="1213.2,-392.68 1219.99,-389.7 1212.82,-387.8 1213.2,-392.68"/>
</g>
<!-- Node0x63237b9ee5e0&#45;&gt;Node0x63237b9ed800 -->
<g id="edge55" class="edge">
<title>Node0x63237b9ee5e0&#45;&gt;Node0x63237b9ed800</title>
<path fill="none" stroke="#4a6fa5" d="M1576.18,-376C1602.44,-376 1629.22,-376 1654.64,-376"/>
<polygon fill="#4a6fa5" stroke="#4a6fa5" points="1654.78,-378.45 1661.78,-376 1654.78,-373.55 1654.78,-378.45"/>
</g>
<!-- Node0x63237b9ee1e0 -->
<g id="node48" class="node">
<title>Node0x63237b9ee1e0</title>
<path fill="#f0f4ff" stroke="black" d="M722.5,-426C722.5,-426 464.5,-426 464.5,-426 458.5,-426 452.5,-420 452.5,-414 452.5,-414 452.5,-402 452.5,-402 452.5,-396 458.5,-390 464.5,-390 464.5,-390 722.5,-390 722.5,-390 728.5,-390 734.5,-396 734.5,-402 734.5,-402 734.5,-414 734.5,-414 734.5,-420 728.5,-426 722.5,-426"/>
<text text-anchor="middle" x="593.5" y="-405.8" font-family="Courier,monospace" font-size="9.00">{CIccSparseMatrixUInt16::~CIccSparseMatrixUInt16()}</text>
</g>
<!-- Node0x63237b9ee1e0&#45;&gt;Node0x63237b9c7aa0 -->
<g id="edge53" class="edge">
<title>Node0x63237b9ee1e0&#45;&gt;Node0x63237b9c7aa0</title>
<path fill="none" stroke="#4a6fa5" d="M701.79,-426.02C781.59,-439.42 885.98,-456.96 941.95,-466.36"/>
<polygon fill="#4a6fa5" stroke="#4a6fa5" points="941.55,-468.77 948.86,-467.52 942.36,-463.94 941.55,-468.77"/>
</g>
<!-- Node0x63237b9ee1e0&#45;&gt;Node0x63237b9ee880 -->
<g id="edge52" class="edge">
<title>Node0x63237b9ee1e0&#45;&gt;Node0x63237b9ee880</title>
<path fill="none" stroke="#4a6fa5" d="M734.76,-408C767.04,-408 801.46,-408 834.03,-408"/>
<polygon fill="#4a6fa5" stroke="#4a6fa5" points="834.39,-410.45 841.39,-408 834.39,-405.55 834.39,-410.45"/>
</g>
<!-- Node0x63237b9d9780 -->
<g id="node49" class="node">
<title>Node0x63237b9d9780</title>
<path fill="#f0f4ff" stroke="black" d="M296.5,-8018C296.5,-8018 59.5,-8018 59.5,-8018 53.5,-8018 47.5,-8012 47.5,-8006 47.5,-8006 47.5,-7994 47.5,-7994 47.5,-7988 53.5,-7982 59.5,-7982 59.5,-7982 296.5,-7982 296.5,-7982 302.5,-7982 308.5,-7988 308.5,-7994 308.5,-7994 308.5,-8006 308.5,-8006 308.5,-8012 302.5,-8018 296.5,-8018"/>
<text text-anchor="middle" x="178" y="-7997.8" font-family="Courier,monospace" font-size="9.00">{CIccSparseMatrixEntry&lt;unsigned short&gt;::init()}</text>
</g>
<!-- Node0x63237b9ebe30 -->
<g id="node50" class="node">
<title>Node0x63237b9ebe30</title>
<path fill="#f0f4ff" stroke="black" d="M254.5,-8084C254.5,-8084 101.5,-8084 101.5,-8084 95.5,-8084 89.5,-8078 89.5,-8072 89.5,-8072 89.5,-8060 89.5,-8060 89.5,-8054 95.5,-8048 101.5,-8048 101.5,-8048 254.5,-8048 254.5,-8048 260.5,-8048 266.5,-8054 266.5,-8060 266.5,-8060 266.5,-8072 266.5,-8072 266.5,-8078 260.5,-8084 254.5,-8084"/>
<text text-anchor="middle" x="178" y="-8063.8" font-family="Courier,monospace" font-size="9.00">{CIccSparseMatrixUInt16::get()}</text>
</g>
<!-- Node0x63237b9db600 -->
<g id="node51" class="node">
<title>Node0x63237b9db600</title>
<path fill="#f0f4ff" stroke="black" d="M254.5,-36C254.5,-36 101.5,-36 101.5,-36 95.5,-36 89.5,-30 89.5,-24 89.5,-24 89.5,-12 89.5,-12 89.5,-6 95.5,0 101.5,0 101.5,0 254.5,0 254.5,0 260.5,0 266.5,-6 266.5,-12 266.5,-12 266.5,-24 266.5,-24 266.5,-30 260.5,-36 254.5,-36"/>
<text text-anchor="middle" x="178" y="-15.8" font-family="Courier,monospace" font-size="9.00">{CIccSparseMatrixUInt16::set()}</text>
</g>
<!-- Node0x63237b9db600&#45;&gt;Node0x63237b880a00 -->
<g id="edge54" class="edge">
<title>Node0x63237b9db600&#45;&gt;Node0x63237b880a00</title>
<path fill="none" stroke="#4a6fa5" d="M266.69,-31.78C346.34,-44.3 461.74,-62.45 531.69,-73.44"/>
<polygon fill="#4a6fa5" stroke="#4a6fa5" points="531.43,-75.88 538.73,-74.55 532.19,-71.04 531.43,-75.88"/>
</g>
<!-- Node0x63237b9da480 -->
<g id="node52" class="node">
<title>Node0x63237b9da480</title>
<path fill="#f0f4ff" stroke="black" d="M296.5,-8150C296.5,-8150 59.5,-8150 59.5,-8150 53.5,-8150 47.5,-8144 47.5,-8138 47.5,-8138 47.5,-8126 47.5,-8126 47.5,-8120 53.5,-8114 59.5,-8114 59.5,-8114 296.5,-8114 296.5,-8114 302.5,-8114 308.5,-8120 308.5,-8126 308.5,-8126 308.5,-8138 308.5,-8138 308.5,-8144 302.5,-8150 296.5,-8150"/>
<text text-anchor="middle" x="178" y="-8129.8" font-family="Courier,monospace" font-size="9.00">{CIccSparseMatrixEntry&lt;unsigned short&gt;::size()}</text>
</g>
<!-- Node0x63237b9ec200 -->
<g id="node53" class="node">
<title>Node0x63237b9ec200</title>
<path fill="#f0f4ff" stroke="black" d="M302,-8215C302,-8215 54,-8215 54,-8215 48,-8215 42,-8209 42,-8203 42,-8203 42,-8191 42,-8191 42,-8185 48,-8179 54,-8179 54,-8179 302,-8179 302,-8179 308,-8179 314,-8185 314,-8191 314,-8191 314,-8203 314,-8203 314,-8209 308,-8215 302,-8215"/>
<text text-anchor="middle" x="178" y="-8194.8" font-family="Courier,monospace" font-size="9.00">{CIccSparseMatrixEntry&lt;unsigned short&gt;::getPtr()}</text>
</g>
<!-- Node0x63237b9f5750 -->
<g id="node54" class="node">
<title>Node0x63237b9f5750</title>
<path fill="#f0f4ff" stroke="black" d="M344,-7750C344,-7750 12,-7750 12,-7750 6,-7750 0,-7744 0,-7738 0,-7738 0,-7726 0,-7726 0,-7720 6,-7714 12,-7714 12,-7714 344,-7714 344,-7714 350,-7714 356,-7720 356,-7726 356,-7726 356,-7738 356,-7738 356,-7744 350,-7750 344,-7750"/>
<text text-anchor="middle" x="178" y="-7729.8" font-family="Courier,monospace" font-size="9.00">{CIccSparseMatrixEntry&lt;unsigned short&gt;::~CIccSparseMatrixEntry()}</text>
</g>
<!-- Node0x63237b9f5750&#45;&gt;Node0x63237b9ecfd0 -->
<g id="edge56" class="edge">
<title>Node0x63237b9f5750&#45;&gt;Node0x63237b9ecfd0</title>
<path fill="none" stroke="#4a6fa5" d="M356.16,-7746.14C427.74,-7751.85 504.14,-7757.95 550.11,-7761.62"/>
<polygon fill="#4a6fa5" stroke="#4a6fa5" points="550.04,-7764.07 557.22,-7762.18 550.43,-7759.19 550.04,-7764.07"/>
</g>
<!-- Node0x63237b9f55c0 -->
<g id="node55" class="node">
<title>Node0x63237b9f55c0</title>
<path fill="#f0f4ff" stroke="black" d="M1117,-361C1117,-361 848,-361 848,-361 842,-361 836,-355 836,-349 836,-349 836,-337 836,-337 836,-331 842,-325 848,-325 848,-325 1117,-325 1117,-325 1123,-325 1129,-331 1129,-337 1129,-337 1129,-349 1129,-349 1129,-355 1123,-361 1117,-361"/>
<text text-anchor="middle" x="982.5" y="-340.8" font-family="Courier,monospace" font-size="9.00">{CIccSparseMatrixFloat16::~CIccSparseMatrixFloat16()}</text>
</g>
<!-- Node0x63237b9f55c0&#45;&gt;Node0x63237b9ee5e0 -->
<g id="edge57" class="edge">
<title>Node0x63237b9f55c0&#45;&gt;Node0x63237b9ee5e0</title>
<path fill="none" stroke="#4a6fa5" d="M1129.28,-354.63C1156.29,-356.79 1184.83,-359.07 1212.8,-361.3"/>
<polygon fill="#4a6fa5" stroke="#4a6fa5" points="1212.73,-363.75 1219.9,-361.87 1213.12,-358.87 1212.73,-363.75"/>
</g>
<!-- Node0x63237b9f4030 -->
<g id="node56" class="node">
<title>Node0x63237b9f4030</title>
<path fill="#f0f4ff" stroke="black" d="M728,-361C728,-361 459,-361 459,-361 453,-361 447,-355 447,-349 447,-349 447,-337 447,-337 447,-331 453,-325 459,-325 459,-325 728,-325 728,-325 734,-325 740,-331 740,-337 740,-337 740,-349 740,-349 740,-355 734,-361 728,-361"/>
<text text-anchor="middle" x="593.5" y="-340.8" font-family="Courier,monospace" font-size="9.00">{CIccSparseMatrixFloat16::~CIccSparseMatrixFloat16()}</text>
</g>
<!-- Node0x63237b9f4030&#45;&gt;Node0x63237b9c7aa0 -->
<g id="edge59" class="edge">
<title>Node0x63237b9f4030&#45;&gt;Node0x63237b9c7aa0</title>
<path fill="none" stroke="#4a6fa5" d="M703.63,-361.04C717.86,-365.09 732,-370.01 745,-376 788.52,-396.04 787.42,-421.1 831,-441 866.43,-457.18 910.32,-465.31 941.55,-469.31"/>
<polygon fill="#4a6fa5" stroke="#4a6fa5" points="941.56,-471.78 948.8,-470.19 942.15,-466.92 941.56,-471.78"/>
</g>
<!-- Node0x63237b9f4030&#45;&gt;Node0x63237b9f55c0 -->
<g id="edge58" class="edge">
<title>Node0x63237b9f4030&#45;&gt;Node0x63237b9f55c0</title>
<path fill="none" stroke="#4a6fa5" d="M740.26,-343C769.1,-343 799.44,-343 828.51,-343"/>
<polygon fill="#4a6fa5" stroke="#4a6fa5" points="828.87,-345.45 835.87,-343 828.87,-340.55 828.87,-345.45"/>
</g>
<!-- Node0x63237b9ec580 -->
<g id="node57" class="node">
<title>Node0x63237b9ec580</title>
<path fill="#f0f4ff" stroke="black" d="M257.5,-8280C257.5,-8280 98.5,-8280 98.5,-8280 92.5,-8280 86.5,-8274 86.5,-8268 86.5,-8268 86.5,-8256 86.5,-8256 86.5,-8250 92.5,-8244 98.5,-8244 98.5,-8244 257.5,-8244 257.5,-8244 263.5,-8244 269.5,-8250 269.5,-8256 269.5,-8256 269.5,-8268 269.5,-8268 269.5,-8274 263.5,-8280 257.5,-8280"/>
<text text-anchor="middle" x="178" y="-8259.8" font-family="Courier,monospace" font-size="9.00">{CIccSparseMatrixFloat16::get()}</text>
</g>
<!-- Node0x63237b9f7b60 -->
<g id="node58" class="node">
<title>Node0x63237b9f7b60</title>
<path fill="#f0f4ff" stroke="black" d="M620.5,-8280C620.5,-8280 566.5,-8280 566.5,-8280 560.5,-8280 554.5,-8274 554.5,-8268 554.5,-8268 554.5,-8256 554.5,-8256 554.5,-8250 560.5,-8244 566.5,-8244 566.5,-8244 620.5,-8244 620.5,-8244 626.5,-8244 632.5,-8250 632.5,-8256 632.5,-8256 632.5,-8268 632.5,-8268 632.5,-8274 626.5,-8280 620.5,-8280"/>
<text text-anchor="middle" x="593.5" y="-8259.8" font-family="Courier,monospace" font-size="9.00">{icF16toF()}</text>
</g>
<!-- Node0x63237b9ec580&#45;&gt;Node0x63237b9f7b60 -->
<g id="edge60" class="edge">
<title>Node0x63237b9ec580&#45;&gt;Node0x63237b9f7b60</title>
<path fill="none" stroke="#4a6fa5" d="M269.74,-8262C355.65,-8262 481.05,-8262 547.42,-8262"/>
<polygon fill="#4a6fa5" stroke="#4a6fa5" points="547.43,-8264.45 554.43,-8262 547.43,-8259.55 547.43,-8264.45"/>
</g>
<!-- Node0x63237b9dffc0 -->
<g id="node59" class="node">
<title>Node0x63237b9dffc0</title>
<path fill="#f0f4ff" stroke="black" d="M257.5,-8345C257.5,-8345 98.5,-8345 98.5,-8345 92.5,-8345 86.5,-8339 86.5,-8333 86.5,-8333 86.5,-8321 86.5,-8321 86.5,-8315 92.5,-8309 98.5,-8309 98.5,-8309 257.5,-8309 257.5,-8309 263.5,-8309 269.5,-8315 269.5,-8321 269.5,-8321 269.5,-8333 269.5,-8333 269.5,-8339 263.5,-8345 257.5,-8345"/>
<text text-anchor="middle" x="178" y="-8324.8" font-family="Courier,monospace" font-size="9.00">{CIccSparseMatrixFloat16::set()}</text>
</g>
<!-- Node0x63237b9e0040 -->
<g id="node60" class="node">
<title>Node0x63237b9e0040</title>
<path fill="#f0f4ff" stroke="black" d="M620.5,-8345C620.5,-8345 566.5,-8345 566.5,-8345 560.5,-8345 554.5,-8339 554.5,-8333 554.5,-8333 554.5,-8321 554.5,-8321 554.5,-8315 560.5,-8309 566.5,-8309 566.5,-8309 620.5,-8309 620.5,-8309 626.5,-8309 632.5,-8315 632.5,-8321 632.5,-8321 632.5,-8333 632.5,-8333 632.5,-8339 626.5,-8345 620.5,-8345"/>
<text text-anchor="middle" x="593.5" y="-8324.8" font-family="Courier,monospace" font-size="9.00">{icFtoF16()}</text>
</g>
<!-- Node0x63237b9dffc0&#45;&gt;Node0x63237b9e0040 -->
<g id="edge61" class="edge">
<title>Node0x63237b9dffc0&#45;&gt;Node0x63237b9e0040</title>
<path fill="none" stroke="#4a6fa5" d="M269.74,-8327C355.65,-8327 481.05,-8327 547.42,-8327"/>
<polygon fill="#4a6fa5" stroke="#4a6fa5" points="547.43,-8329.45 554.43,-8327 547.43,-8324.55 547.43,-8329.45"/>
</g>
<!-- Node0x63237b9dfb40 -->
<g id="node61" class="node">
<title>Node0x63237b9dfb40</title>
<path fill="#f0f4ff" stroke="black" d="M1117,-296C1117,-296 848,-296 848,-296 842,-296 836,-290 836,-284 836,-284 836,-272 836,-272 836,-266 842,-260 848,-260 848,-260 1117,-260 1117,-260 1123,-260 1129,-266 1129,-272 1129,-272 1129,-284 1129,-284 1129,-290 1123,-296 1117,-296"/>
<text text-anchor="middle" x="982.5" y="-275.8" font-family="Courier,monospace" font-size="9.00">{CIccSparseMatrixFloat32::~CIccSparseMatrixFloat32()}</text>
</g>
<!-- Node0x63237b9f9b80 -->
<g id="node62" class="node">
<title>Node0x63237b9f9b80</title>
<path fill="#f0f4ff" stroke="black" d="M1540.5,-296C1540.5,-296 1255.5,-296 1255.5,-296 1249.5,-296 1243.5,-290 1243.5,-284 1243.5,-284 1243.5,-272 1243.5,-272 1243.5,-266 1249.5,-260 1255.5,-260 1255.5,-260 1540.5,-260 1540.5,-260 1546.5,-260 1552.5,-266 1552.5,-272 1552.5,-272 1552.5,-284 1552.5,-284 1552.5,-290 1546.5,-296 1540.5,-296"/>
<text text-anchor="middle" x="1398" y="-275.8" font-family="Courier,monospace" font-size="9.00">{CIccSparseMatrixEntry&lt;float&gt;::~CIccSparseMatrixEntry()}</text>
</g>
<!-- Node0x63237b9dfb40&#45;&gt;Node0x63237b9f9b80 -->
<g id="edge63" class="edge">
<title>Node0x63237b9dfb40&#45;&gt;Node0x63237b9f9b80</title>
<path fill="none" stroke="#4a6fa5" d="M1129.28,-278C1163.94,-278 1201.11,-278 1236.4,-278"/>
<polygon fill="#4a6fa5" stroke="#4a6fa5" points="1236.43,-280.45 1243.43,-278 1236.42,-275.55 1236.43,-280.45"/>
</g>
<!-- Node0x63237b9f9b80&#45;&gt;Node0x63237b9ed800 -->
<g id="edge66" class="edge">
<title>Node0x63237b9f9b80&#45;&gt;Node0x63237b9ed800</title>
<path fill="none" stroke="#4a6fa5" d="M1472.46,-296.09C1541.77,-313.15 1645.4,-338.67 1716.82,-356.26"/>
<polygon fill="#4a6fa5" stroke="#4a6fa5" points="1716.25,-358.64 1723.63,-357.93 1717.42,-353.88 1716.25,-358.64"/>
</g>
<!-- Node0x63237b9f9930 -->
<g id="node63" class="node">
<title>Node0x63237b9f9930</title>
<path fill="#f0f4ff" stroke="black" d="M728,-296C728,-296 459,-296 459,-296 453,-296 447,-290 447,-284 447,-284 447,-272 447,-272 447,-266 453,-260 459,-260 459,-260 728,-260 728,-260 734,-260 740,-266 740,-272 740,-272 740,-284 740,-284 740,-290 734,-296 728,-296"/>
<text text-anchor="middle" x="593.5" y="-275.8" font-family="Courier,monospace" font-size="9.00">{CIccSparseMatrixFloat32::~CIccSparseMatrixFloat32()}</text>
</g>
<!-- Node0x63237b9f9930&#45;&gt;Node0x63237b9c7aa0 -->
<g id="edge65" class="edge">
<title>Node0x63237b9f9930&#45;&gt;Node0x63237b9c7aa0</title>
<path fill="none" stroke="#4a6fa5" d="M716.66,-296.06C726.68,-300.11 736.29,-305.02 745,-311 802.13,-350.18 773.74,-402 831,-441 863.84,-463.37 909.33,-470.55 941.68,-472.63"/>
<polygon fill="#4a6fa5" stroke="#4a6fa5" points="941.66,-475.09 948.78,-473.03 941.93,-470.19 941.66,-475.09"/>
</g>
<!-- Node0x63237b9f9930&#45;&gt;Node0x63237b9dfb40 -->
<g id="edge64" class="edge">
<title>Node0x63237b9f9930&#45;&gt;Node0x63237b9dfb40</title>
<path fill="none" stroke="#4a6fa5" d="M740.26,-278C769.1,-278 799.44,-278 828.51,-278"/>
<polygon fill="#4a6fa5" stroke="#4a6fa5" points="828.87,-280.45 835.87,-278 828.87,-275.55 828.87,-280.45"/>
</g>
<!-- Node0x63237b9f97e0 -->
<g id="node64" class="node">
<title>Node0x63237b9f97e0</title>
<path fill="#f0f4ff" stroke="black" d="M273,-8410C273,-8410 83,-8410 83,-8410 77,-8410 71,-8404 71,-8398 71,-8398 71,-8386 71,-8386 71,-8380 77,-8374 83,-8374 83,-8374 273,-8374 273,-8374 279,-8374 285,-8380 285,-8386 285,-8386 285,-8398 285,-8398 285,-8404 279,-8410 273,-8410"/>
<text text-anchor="middle" x="178" y="-8389.8" font-family="Courier,monospace" font-size="9.00">{CIccSparseMatrixEntry&lt;float&gt;::init()}</text>
</g>
<!-- Node0x63237b9f9120 -->
<g id="node65" class="node">
<title>Node0x63237b9f9120</title>
<path fill="#f0f4ff" stroke="black" d="M257.5,-8475C257.5,-8475 98.5,-8475 98.5,-8475 92.5,-8475 86.5,-8469 86.5,-8463 86.5,-8463 86.5,-8451 86.5,-8451 86.5,-8445 92.5,-8439 98.5,-8439 98.5,-8439 257.5,-8439 257.5,-8439 263.5,-8439 269.5,-8445 269.5,-8451 269.5,-8451 269.5,-8463 269.5,-8463 269.5,-8469 263.5,-8475 257.5,-8475"/>
<text text-anchor="middle" x="178" y="-8454.8" font-family="Courier,monospace" font-size="9.00">{CIccSparseMatrixFloat32::get()}</text>
</g>
<!-- Node0x63237b9e39c0 -->
<g id="node66" class="node">
<title>Node0x63237b9e39c0</title>
<path fill="#f0f4ff" stroke="black" d="M257.5,-8540C257.5,-8540 98.5,-8540 98.5,-8540 92.5,-8540 86.5,-8534 86.5,-8528 86.5,-8528 86.5,-8516 86.5,-8516 86.5,-8510 92.5,-8504 98.5,-8504 98.5,-8504 257.5,-8504 257.5,-8504 263.5,-8504 269.5,-8510 269.5,-8516 269.5,-8516 269.5,-8528 269.5,-8528 269.5,-8534 263.5,-8540 257.5,-8540"/>
<text text-anchor="middle" x="178" y="-8519.8" font-family="Courier,monospace" font-size="9.00">{CIccSparseMatrixFloat32::set()}</text>
</g>
<!-- Node0x63237b9fd020 -->
<g id="node67" class="node">
<title>Node0x63237b9fd020</title>
<path fill="#f0f4ff" stroke="black" d="M273,-8605C273,-8605 83,-8605 83,-8605 77,-8605 71,-8599 71,-8593 71,-8593 71,-8581 71,-8581 71,-8575 77,-8569 83,-8569 83,-8569 273,-8569 273,-8569 279,-8569 285,-8575 285,-8581 285,-8581 285,-8593 285,-8593 285,-8599 279,-8605 273,-8605"/>
<text text-anchor="middle" x="178" y="-8584.8" font-family="Courier,monospace" font-size="9.00">{CIccSparseMatrixEntry&lt;float&gt;::size()}</text>
</g>
<!-- Node0x63237b9fc840 -->
<g id="node68" class="node">
<title>Node0x63237b9fc840</title>
<path fill="#f0f4ff" stroke="black" d="M278.5,-8670C278.5,-8670 77.5,-8670 77.5,-8670 71.5,-8670 65.5,-8664 65.5,-8658 65.5,-8658 65.5,-8646 65.5,-8646 65.5,-8640 71.5,-8634 77.5,-8634 77.5,-8634 278.5,-8634 278.5,-8634 284.5,-8634 290.5,-8640 290.5,-8646 290.5,-8646 290.5,-8658 290.5,-8658 290.5,-8664 284.5,-8670 278.5,-8670"/>
<text text-anchor="middle" x="178" y="-8649.8" font-family="Courier,monospace" font-size="9.00">{CIccSparseMatrixEntry&lt;float&gt;::getPtr()}</text>
</g>
<!-- Node0x63237b9f25d0 -->
<g id="node69" class="node">
<title>Node0x63237b9f25d0</title>
<path fill="#f0f4ff" stroke="black" d="M320.5,-7685C320.5,-7685 35.5,-7685 35.5,-7685 29.5,-7685 23.5,-7679 23.5,-7673 23.5,-7673 23.5,-7661 23.5,-7661 23.5,-7655 29.5,-7649 35.5,-7649 35.5,-7649 320.5,-7649 320.5,-7649 326.5,-7649 332.5,-7655 332.5,-7661 332.5,-7661 332.5,-7673 332.5,-7673 332.5,-7679 326.5,-7685 320.5,-7685"/>
<text text-anchor="middle" x="178" y="-7664.8" font-family="Courier,monospace" font-size="9.00">{CIccSparseMatrixEntry&lt;float&gt;::~CIccSparseMatrixEntry()}</text>
</g>
<!-- Node0x63237b9f25d0&#45;&gt;Node0x63237b9ecfd0 -->
<g id="edge67" class="edge">
<title>Node0x63237b9f25d0&#45;&gt;Node0x63237b9ecfd0</title>
<path fill="none" stroke="#4a6fa5" d="M283.66,-7685.01C307.51,-7689.53 332.7,-7694.64 356,-7700 424.68,-7715.81 503.4,-7738.35 550.48,-7752.3"/>
<polygon fill="#4a6fa5" stroke="#4a6fa5" points="550.07,-7754.74 557.47,-7754.38 551.46,-7750.04 550.07,-7754.74"/>
</g>
<!-- Node0x63237b81b7d0 -->
<g id="node70" class="node">
<title>Node0x63237b81b7d0</title>
<path fill="#f0f4ff" stroke="black" d="M1122,-231C1122,-231 843,-231 843,-231 837,-231 831,-225 831,-219 831,-219 831,-207 831,-207 831,-201 837,-195 843,-195 843,-195 1122,-195 1122,-195 1128,-195 1134,-201 1134,-207 1134,-207 1134,-219 1134,-219 1134,-225 1128,-231 1122,-231"/>
<text text-anchor="middle" x="982.5" y="-210.8" font-family="Courier,monospace" font-size="9.00">{CIccSparseMatrixFloatNum::~CIccSparseMatrixFloatNum()}</text>
</g>
<!-- Node0x63237b81b7d0&#45;&gt;Node0x63237b9f9b80 -->
<g id="edge68" class="edge">
<title>Node0x63237b81b7d0&#45;&gt;Node0x63237b9f9b80</title>
<path fill="none" stroke="#4a6fa5" d="M1098.13,-231.02C1153.14,-239.67 1219.09,-250.03 1275.02,-258.83"/>
<polygon fill="#4a6fa5" stroke="#4a6fa5" points="1274.85,-261.28 1282.14,-259.95 1275.61,-256.44 1274.85,-261.28"/>
</g>
<!-- Node0x63237ba027b0 -->
<g id="node71" class="node">
<title>Node0x63237ba027b0</title>
<path fill="#f0f4ff" stroke="black" d="M733,-231C733,-231 454,-231 454,-231 448,-231 442,-225 442,-219 442,-219 442,-207 442,-207 442,-201 448,-195 454,-195 454,-195 733,-195 733,-195 739,-195 745,-201 745,-207 745,-207 745,-219 745,-219 745,-225 739,-231 733,-231"/>
<text text-anchor="middle" x="593.5" y="-210.8" font-family="Courier,monospace" font-size="9.00">{CIccSparseMatrixFloatNum::~CIccSparseMatrixFloatNum()}</text>
</g>
<!-- Node0x63237ba027b0&#45;&gt;Node0x63237b9c7aa0 -->
<g id="edge70" class="edge">
<title>Node0x63237ba027b0&#45;&gt;Node0x63237b9c7aa0</title>
<path fill="none" stroke="#4a6fa5" d="M721.13,-231.06C729.68,-235.15 737.75,-240.07 745,-246 818.32,-305.97 757.49,-381.26 831,-441 862.12,-466.3 908.51,-472.93 941.55,-474.09"/>
<polygon fill="#4a6fa5" stroke="#4a6fa5" points="941.75,-476.54 948.8,-474.26 941.86,-471.64 941.75,-476.54"/>
</g>
<!-- Node0x63237ba027b0&#45;&gt;Node0x63237b81b7d0 -->
<g id="edge69" class="edge">
<title>Node0x63237ba027b0&#45;&gt;Node0x63237b81b7d0</title>
<path fill="none" stroke="#4a6fa5" d="M745.23,-213C770.94,-213 797.7,-213 823.58,-213"/>
<polygon fill="#4a6fa5" stroke="#4a6fa5" points="823.86,-215.45 830.86,-213 823.86,-210.55 823.86,-215.45"/>
</g>
<!-- Node0x63237b81b480 -->
<g id="node72" class="node">
<title>Node0x63237b81b480</title>
<path fill="#f0f4ff" stroke="black" d="M260,-8735C260,-8735 96,-8735 96,-8735 90,-8735 84,-8729 84,-8723 84,-8723 84,-8711 84,-8711 84,-8705 90,-8699 96,-8699 96,-8699 260,-8699 260,-8699 266,-8699 272,-8705 272,-8711 272,-8711 272,-8723 272,-8723 272,-8729 266,-8735 260,-8735"/>
<text text-anchor="middle" x="178" y="-8714.8" font-family="Courier,monospace" font-size="9.00">{CIccSparseMatrixFloatNum::get()}</text>
</g>
<!-- Node0x63237b9fe580 -->
<g id="node73" class="node">
<title>Node0x63237b9fe580</title>
<path fill="#f0f4ff" stroke="black" d="M260,-8800C260,-8800 96,-8800 96,-8800 90,-8800 84,-8794 84,-8788 84,-8788 84,-8776 84,-8776 84,-8770 90,-8764 96,-8764 96,-8764 260,-8764 260,-8764 266,-8764 272,-8770 272,-8776 272,-8776 272,-8788 272,-8788 272,-8794 266,-8800 260,-8800"/>
<text text-anchor="middle" x="178" y="-8779.8" font-family="Courier,monospace" font-size="9.00">{CIccSparseMatrixFloatNum::set()}</text>
</g>
</g>
</svg>
