<?xml version="1.0" encoding="UTF-8" standalone="no"?>
<!DOCTYPE svg PUBLIC "-//W3C//DTD SVG 1.1//EN"
 "http://www.w3.org/Graphics/SVG/1.1/DTD/svg11.dtd">
<!-- Generated by graphviz version 2.43.0 (0)
 -->
<!-- Title: Call graph: /home/h02332/po/research/call&#45;graph/iccdev/proflib/IccSolve.ll Pages: 1 -->
<svg width="1225pt" height="14400pt"
 viewBox="0.00 0.00 1224.98 14400.00" xmlns="http://www.w3.org/2000/svg" xmlns:xlink="http://www.w3.org/1999/xlink">
<g id="graph0" class="graph" transform="scale(1.01 1.01) rotate(0) translate(36 14282)">
<title>Call graph: /home/h02332/po/research/call&#45;graph/iccdev/proflib/IccSolve.ll</title>
<polygon fill="white" stroke="transparent" points="-36,36 -36,-14282 1182,-14282 1182,36 -36,36"/>
<!-- Node0x6326574a8c30 -->
<g id="node1" class="node">
<title>Node0x6326574a8c30</title>
<path fill="#f0f4ff" stroke="black" d="M421,-101C421,-101 310,-101 310,-101 304,-101 298,-95 298,-89 298,-89 298,-77 298,-77 298,-71 304,-65 310,-65 310,-65 421,-65 421,-65 427,-65 433,-71 433,-77 433,-77 433,-89 433,-89 433,-95 427,-101 421,-101"/>
<text text-anchor="middle" x="365.5" y="-80.8" font-family="Courier,monospace" font-size="9.00">{__cxx_global_var_init}</text>
</g>
<!-- Node0x6326574a8790 -->
<g id="node2" class="node">
<title>Node0x6326574a8790</title>
<path fill="#f0f4ff" stroke="black" d="M802.5,-101C802.5,-101 549.5,-101 549.5,-101 543.5,-101 537.5,-95 537.5,-89 537.5,-89 537.5,-77 537.5,-77 537.5,-71 543.5,-65 549.5,-65 549.5,-65 802.5,-65 802.5,-65 808.5,-65 814.5,-71 814.5,-77 814.5,-77 814.5,-89 814.5,-89 814.5,-95 808.5,-101 802.5,-101"/>
<text text-anchor="middle" x="676" y="-80.8" font-family="Courier,monospace" font-size="9.00">{CIccSimpleMatrixSolver::CIccSimpleMatrixSolver()}</text>
</g>
<!-- Node0x6326574a8c30&#45;&gt;Node0x6326574a8790 -->
<g id="edge1" class="edge">
<title>Node0x6326574a8c30&#45;&gt;Node0x6326574a8790</title>
<path fill="none" stroke="#4a6fa5" d="M433.06,-83C461.59,-83 496.1,-83 530.02,-83"/>
<polygon fill="#4a6fa5" stroke="#4a6fa5" points="530.25,-85.45 537.25,-83 530.25,-80.55 530.25,-85.45"/>
</g>
<!-- Node0x6326574a8400 -->
<g id="node3" class="node">
<title>Node0x6326574a8400</title>
<path fill="#f0f4ff" stroke="black" d="M1123.5,-101C1123.5,-101 933.5,-101 933.5,-101 927.5,-101 921.5,-95 921.5,-89 921.5,-89 921.5,-77 921.5,-77 921.5,-71 927.5,-65 933.5,-65 933.5,-65 1123.5,-65 1123.5,-65 1129.5,-65 1135.5,-71 1135.5,-77 1135.5,-77 1135.5,-89 1135.5,-89 1135.5,-95 1129.5,-101 1123.5,-101"/>
<text text-anchor="middle" x="1028.5" y="-80.8" font-family="Courier,monospace" font-size="9.00">{IIccMatrixSolver::IIccMatrixSolver()}</text>
</g>
<!-- Node0x6326574a8790&#45;&gt;Node0x6326574a8400 -->
<g id="edge2" class="edge">
<title>Node0x6326574a8790&#45;&gt;Node0x6326574a8400</title>
<path fill="none" stroke="#4a6fa5" d="M814.52,-83C847.51,-83 882.36,-83 914.11,-83"/>
<polygon fill="#4a6fa5" stroke="#4a6fa5" points="914.26,-85.45 921.26,-83 914.26,-80.55 914.26,-85.45"/>
</g>
<!-- Node0x6326574a8230 -->
<g id="node4" class="node">
<title>Node0x6326574a8230</title>
<path fill="#f0f4ff" stroke="black" d="M155,-7087C155,-7087 49,-7087 49,-7087 43,-7087 37,-7081 37,-7075 37,-7075 37,-7063 37,-7063 37,-7057 43,-7051 49,-7051 49,-7051 155,-7051 155,-7051 161,-7051 167,-7057 167,-7063 167,-7063 167,-7075 167,-7075 167,-7081 161,-7087 155,-7087"/>
<text text-anchor="middle" x="102" y="-7066.8" font-family="Courier,monospace" font-size="9.00">{IccSetMatrixSolver()}</text>
</g>
<!-- Node0x6326574a94c0 -->
<g id="node5" class="node">
<title>Node0x6326574a94c0</title>
<path fill="#f0f4ff" stroke="black" d="M173.5,-10629C173.5,-10629 30.5,-10629 30.5,-10629 24.5,-10629 18.5,-10623 18.5,-10617 18.5,-10617 18.5,-10605 18.5,-10605 18.5,-10599 24.5,-10593 30.5,-10593 30.5,-10593 173.5,-10593 173.5,-10593 179.5,-10593 185.5,-10599 185.5,-10605 185.5,-10605 185.5,-10617 185.5,-10617 185.5,-10623 179.5,-10629 173.5,-10629"/>
<text text-anchor="middle" x="102" y="-10608.8" font-family="Courier,monospace" font-size="9.00">{IccGetDefaultMatrixSolver()}</text>
</g>
<!-- Node0x6326574aad50 -->
<g id="node6" class="node">
<title>Node0x6326574aad50</title>
<path fill="#f0f4ff" stroke="black" d="M426.5,-36C426.5,-36 304.5,-36 304.5,-36 298.5,-36 292.5,-30 292.5,-24 292.5,-24 292.5,-12 292.5,-12 292.5,-6 298.5,0 304.5,0 304.5,0 426.5,0 426.5,0 432.5,0 438.5,-6 438.5,-12 438.5,-12 438.5,-24 438.5,-24 438.5,-30 432.5,-36 426.5,-36"/>
<text text-anchor="middle" x="365.5" y="-15.8" font-family="Courier,monospace" font-size="9.00">{__cxx_global_var_init.1}</text>
</g>
<!-- Node0x6326574aa790 -->
<g id="node7" class="node">
<title>Node0x6326574aa790</title>
<path fill="#f0f4ff" stroke="black" d="M813,-36C813,-36 539,-36 539,-36 533,-36 527,-30 527,-24 527,-24 527,-12 527,-12 527,-6 533,0 539,0 539,0 813,0 813,0 819,0 825,-6 825,-12 825,-12 825,-24 825,-24 825,-30 819,-36 813,-36"/>
<text text-anchor="middle" x="676" y="-15.8" font-family="Courier,monospace" font-size="9.00">{CIccSimpleMatrixInverter::CIccSimpleMatrixInverter()}</text>
</g>
<!-- Node0x6326574aad50&#45;&gt;Node0x6326574aa790 -->
<g id="edge3" class="edge">
<title>Node0x6326574aad50&#45;&gt;Node0x6326574aa790</title>
<path fill="none" stroke="#4a6fa5" d="M438.83,-18C463.21,-18 491.44,-18 519.71,-18"/>
<polygon fill="#4a6fa5" stroke="#4a6fa5" points="519.9,-20.45 526.9,-18 519.9,-15.55 519.9,-20.45"/>
</g>
<!-- Node0x6326574a9f80 -->
<g id="node8" class="node">
<title>Node0x6326574a9f80</title>
<path fill="#f0f4ff" stroke="black" d="M1134,-36C1134,-36 923,-36 923,-36 917,-36 911,-30 911,-24 911,-24 911,-12 911,-12 911,-6 917,0 923,0 923,0 1134,0 1134,0 1140,0 1146,-6 1146,-12 1146,-12 1146,-24 1146,-24 1146,-30 1140,-36 1134,-36"/>
<text text-anchor="middle" x="1028.5" y="-15.8" font-family="Courier,monospace" font-size="9.00">{IIccMatrixInverter::IIccMatrixInverter()}</text>
</g>
<!-- Node0x6326574aa790&#45;&gt;Node0x6326574a9f80 -->
<g id="edge4" class="edge">
<title>Node0x6326574aa790&#45;&gt;Node0x6326574a9f80</title>
<path fill="none" stroke="#4a6fa5" d="M825.14,-18C851.35,-18 878.39,-18 903.84,-18"/>
<polygon fill="#4a6fa5" stroke="#4a6fa5" points="903.98,-20.45 910.98,-18 903.98,-15.55 903.98,-20.45"/>
</g>
<!-- Node0x6326574ab530 -->
<g id="node9" class="node">
<title>Node0x6326574ab530</title>
<path fill="#f0f4ff" stroke="black" d="M160.5,-12433C160.5,-12433 43.5,-12433 43.5,-12433 37.5,-12433 31.5,-12427 31.5,-12421 31.5,-12421 31.5,-12409 31.5,-12409 31.5,-12403 37.5,-12397 43.5,-12397 43.5,-12397 160.5,-12397 160.5,-12397 166.5,-12397 172.5,-12403 172.5,-12409 172.5,-12409 172.5,-12421 172.5,-12421 172.5,-12427 166.5,-12433 160.5,-12433"/>
<text text-anchor="middle" x="102" y="-12412.8" font-family="Courier,monospace" font-size="9.00">{IccSetMatrixInverter()}</text>
</g>
<!-- Node0x632657496d10 -->
<g id="node10" class="node">
<title>Node0x632657496d10</title>
<path fill="#f0f4ff" stroke="black" d="M178.5,-13367C178.5,-13367 25.5,-13367 25.5,-13367 19.5,-13367 13.5,-13361 13.5,-13355 13.5,-13355 13.5,-13343 13.5,-13343 13.5,-13337 19.5,-13331 25.5,-13331 25.5,-13331 178.5,-13331 178.5,-13331 184.5,-13331 190.5,-13337 190.5,-13343 190.5,-13343 190.5,-13355 190.5,-13355 190.5,-13361 184.5,-13367 178.5,-13367"/>
<text text-anchor="middle" x="102" y="-13346.8" font-family="Courier,monospace" font-size="9.00">{IccGetDefaultMatrixInverter()}</text>
</g>
<!-- Node0x632657495910 -->
<g id="node11" class="node">
<title>Node0x632657495910</title>
<path fill="#f0f4ff" stroke="black" d="M184,-13867C184,-13867 20,-13867 20,-13867 14,-13867 8,-13861 8,-13855 8,-13855 8,-13843 8,-13843 8,-13837 14,-13831 20,-13831 20,-13831 184,-13831 184,-13831 190,-13831 196,-13837 196,-13843 196,-13843 196,-13855 196,-13855 196,-13861 190,-13867 184,-13867"/>
<text text-anchor="middle" x="102" y="-13846.8" font-family="Courier,monospace" font-size="9.00">{CIccSimpleMatrixSolver::Solve()}</text>
</g>
<!-- Node0x632657494710 -->
<g id="node12" class="node">
<title>Node0x632657494710</title>
<path fill="#f0f4ff" stroke="black" d="M421,-13899C421,-13899 310,-13899 310,-13899 304,-13899 298,-13893 298,-13887 298,-13887 298,-13875 298,-13875 298,-13869 304,-13863 310,-13863 310,-13863 421,-13863 421,-13863 427,-13863 433,-13869 433,-13875 433,-13875 433,-13887 433,-13887 433,-13893 427,-13899 421,-13899"/>
<text text-anchor="middle" x="365.5" y="-13878.8" font-family="Courier,monospace" font-size="9.00">{llvm.memcpy.p0.p0.i64}</text>
</g>
<!-- Node0x632657495910&#45;&gt;Node0x632657494710 -->
<g id="edge5" class="edge">
<title>Node0x632657495910&#45;&gt;Node0x632657494710</title>
<path fill="none" stroke="#4a6fa5" d="M196.3,-13860.42C227.4,-13864.22 261.58,-13868.41 290.96,-13872"/>
<polygon fill="#4a6fa5" stroke="#4a6fa5" points="290.68,-13874.44 297.93,-13872.85 291.28,-13869.57 290.68,-13874.44"/>
</g>
<!-- Node0x6326574a7090 -->
<g id="node13" class="node">
<title>Node0x6326574a7090</title>
<path fill="#f0f4ff" stroke="black" d="M416,-13964C416,-13964 315,-13964 315,-13964 309,-13964 303,-13958 303,-13952 303,-13952 303,-13940 303,-13940 303,-13934 309,-13928 315,-13928 315,-13928 416,-13928 416,-13928 422,-13928 428,-13934 428,-13940 428,-13940 428,-13952 428,-13952 428,-13958 422,-13964 416,-13964"/>
<text text-anchor="middle" x="365.5" y="-13943.8" font-family="Courier,monospace" font-size="9.00">{icMatrixInvert3x3()}</text>
</g>
<!-- Node0x632657495910&#45;&gt;Node0x6326574a7090 -->
<g id="edge6" class="edge">
<title>Node0x632657495910&#45;&gt;Node0x6326574a7090</title>
<path fill="none" stroke="#4a6fa5" d="M151.57,-13867.02C196.2,-13883.57 262.31,-13908.09 309,-13925.41"/>
<polygon fill="#4a6fa5" stroke="#4a6fa5" points="308.33,-13927.78 315.74,-13927.91 310.03,-13923.18 308.33,-13927.78"/>
</g>
<!-- Node0x6326574b0ad0 -->
<g id="node14" class="node">
<title>Node0x6326574b0ad0</title>
<path fill="#f0f4ff" stroke="black" d="M429,-13834C429,-13834 302,-13834 302,-13834 296,-13834 290,-13828 290,-13822 290,-13822 290,-13810 290,-13810 290,-13804 296,-13798 302,-13798 302,-13798 429,-13798 429,-13798 435,-13798 441,-13804 441,-13810 441,-13810 441,-13822 441,-13822 441,-13828 435,-13834 429,-13834"/>
<text text-anchor="middle" x="365.5" y="-13813.8" font-family="Courier,monospace" font-size="9.00">{icVectorApplyMatrix3x3()}</text>
</g>
<!-- Node0x632657495910&#45;&gt;Node0x6326574b0ad0 -->
<g id="edge7" class="edge">
<title>Node0x632657495910&#45;&gt;Node0x6326574b0ad0</title>
<path fill="none" stroke="#4a6fa5" d="M196.3,-13837.23C224.44,-13833.67 255.11,-13829.8 282.46,-13826.35"/>
<polygon fill="#4a6fa5" stroke="#4a6fa5" points="283.07,-13828.75 289.71,-13825.44 282.46,-13823.88 283.07,-13828.75"/>
</g>
<!-- Node0x6326574affa0 -->
<g id="node15" class="node">
<title>Node0x6326574affa0</title>
<path fill="#f0f4ff" stroke="black" d="M413.5,-13769C413.5,-13769 317.5,-13769 317.5,-13769 311.5,-13769 305.5,-13763 305.5,-13757 305.5,-13757 305.5,-13745 305.5,-13745 305.5,-13739 311.5,-13733 317.5,-13733 317.5,-13733 413.5,-13733 413.5,-13733 419.5,-13733 425.5,-13739 425.5,-13745 425.5,-13745 425.5,-13757 425.5,-13757 425.5,-13763 419.5,-13769 413.5,-13769"/>
<text text-anchor="middle" x="365.5" y="-13748.8" font-family="Courier,monospace" font-size="9.00">{llvm.memset.p0.i64}</text>
</g>
<!-- Node0x632657495910&#45;&gt;Node0x6326574affa0 -->
<g id="edge8" class="edge">
<title>Node0x632657495910&#45;&gt;Node0x6326574affa0</title>
<path fill="none" stroke="#4a6fa5" d="M151.27,-13830.91C196,-13814.15 262.49,-13789.23 309.31,-13771.68"/>
<polygon fill="#4a6fa5" stroke="#4a6fa5" points="310.38,-13773.9 316.07,-13769.15 308.66,-13769.31 310.38,-13773.9"/>
</g>
<!-- Node0x6326574a7390 -->
<g id="node16" class="node">
<title>Node0x6326574a7390</title>
<path fill="#f0f4ff" stroke="black" d="M150,-14246C150,-14246 54,-14246 54,-14246 48,-14246 42,-14240 42,-14234 42,-14234 42,-14222 42,-14222 42,-14216 48,-14210 54,-14210 54,-14210 150,-14210 150,-14210 156,-14210 162,-14216 162,-14222 162,-14222 162,-14234 162,-14234 162,-14240 156,-14246 150,-14246"/>
<text text-anchor="middle" x="102" y="-14225.8" font-family="Courier,monospace" font-size="9.00">{__cxa_pure_virtual}</text>
</g>
<!-- Node0x6326574a6d60 -->
<g id="node17" class="node">
<title>Node0x6326574a6d60</title>
<path fill="#f0f4ff" stroke="black" d="M192,-13964C192,-13964 12,-13964 12,-13964 6,-13964 0,-13958 0,-13952 0,-13952 0,-13940 0,-13940 0,-13934 6,-13928 12,-13928 12,-13928 192,-13928 192,-13928 198,-13928 204,-13934 204,-13940 204,-13940 204,-13952 204,-13952 204,-13958 198,-13964 192,-13964"/>
<text text-anchor="middle" x="102" y="-13943.8" font-family="Courier,monospace" font-size="9.00">{CIccSimpleMatrixInverter::Invert()}</text>
</g>
<!-- Node0x6326574a6d60&#45;&gt;Node0x6326574a7090 -->
<g id="edge9" class="edge">
<title>Node0x6326574a6d60&#45;&gt;Node0x6326574a7090</title>
<path fill="none" stroke="#4a6fa5" d="M204.1,-13946C234.84,-13946 267.89,-13946 295.95,-13946"/>
<polygon fill="#4a6fa5" stroke="#4a6fa5" points="295.97,-13948.45 302.97,-13946 295.97,-13943.55 295.97,-13948.45"/>
</g>
<!-- Node0x63265749afd0 -->
<g id="node18" class="node">
<title>Node0x63265749afd0</title>
<path fill="#f0f4ff" stroke="black" d="M173.5,-68C173.5,-68 30.5,-68 30.5,-68 24.5,-68 18.5,-62 18.5,-56 18.5,-56 18.5,-44 18.5,-44 18.5,-38 24.5,-32 30.5,-32 30.5,-32 173.5,-32 173.5,-32 179.5,-32 185.5,-38 185.5,-44 185.5,-44 185.5,-56 185.5,-56 185.5,-62 179.5,-68 173.5,-68"/>
<text text-anchor="middle" x="102" y="-47.8" font-family="Courier,monospace" font-size="9.00">{_GLOBAL__sub_I_IccSolve.cpp}</text>
</g>
<!-- Node0x63265749afd0&#45;&gt;Node0x6326574a8c30 -->
<g id="edge10" class="edge">
<title>Node0x63265749afd0&#45;&gt;Node0x6326574a8c30</title>
<path fill="none" stroke="#4a6fa5" d="M185.74,-60.44C219.27,-64.67 257.68,-69.52 290.29,-73.63"/>
<polygon fill="#4a6fa5" stroke="#4a6fa5" points="290.33,-76.11 297.58,-74.56 290.94,-71.25 290.33,-76.11"/>
</g>
<!-- Node0x63265749afd0&#45;&gt;Node0x6326574aad50 -->
<g id="edge11" class="edge">
<title>Node0x63265749afd0&#45;&gt;Node0x6326574aad50</title>
<path fill="none" stroke="#4a6fa5" d="M185.74,-39.88C217.6,-35.98 253.87,-31.54 285.38,-27.68"/>
<polygon fill="#4a6fa5" stroke="#4a6fa5" points="285.79,-30.1 292.44,-26.82 285.19,-25.24 285.79,-30.1"/>
</g>
</g>
</svg>
