<?xml version="1.0" encoding="UTF-8" standalone="no"?>
<!DOCTYPE svg PUBLIC "-//W3C//DTD SVG 1.1//EN"
 "http://www.w3.org/Graphics/SVG/1.1/DTD/svg11.dtd">
<!-- Generated by graphviz version 2.43.0 (0)
 -->
<!-- Title: Call graph: /home/h02332/po/research/call&#45;graph/iccdev/proflib/IccStructBasic.ll Pages: 1 -->
<svg width="1720pt" height="2776pt"
 viewBox="0.00 0.00 1720.20 2776.20" xmlns="http://www.w3.org/2000/svg" xmlns:xlink="http://www.w3.org/1999/xlink">
<g id="graph0" class="graph" transform="scale(1 1) rotate(0) translate(21.6 2754.6)">
<title>Call graph: /home/h02332/po/research/call&#45;graph/iccdev/proflib/IccStructBasic.ll</title>
<polygon fill="white" stroke="transparent" points="-21.6,21.6 -21.6,-2754.6 1698.6,-2754.6 1698.6,21.6 -21.6,21.6"/>
<!-- Node0x5797c7dcee80 -->
<g id="node1" class="node">
<title>Node0x5797c7dcee80</title>
<path fill="#f0f4ff" stroke="black" d="M1030,-181C1030,-181 842,-181 842,-181 836,-181 830,-175 830,-169 830,-169 830,-157 830,-157 830,-151 836,-145 842,-145 842,-145 1030,-145 1030,-145 1036,-145 1042,-151 1042,-157 1042,-157 1042,-169 1042,-169 1042,-175 1036,-181 1030,-181"/>
<text text-anchor="middle" x="936" y="-160.8" font-family="Courier,monospace" font-size="9.00">CIccStructUnknown::CIccStructUnknown()</text>
</g>
<!-- Node0x5797c7dbcea0 -->
<g id="node2" class="node">
<title>Node0x5797c7dbcea0</title>
<path fill="#f0f4ff" stroke="black" d="M1324,-181C1324,-181 1209,-181 1209,-181 1203,-181 1197,-175 1197,-169 1197,-169 1197,-157 1197,-157 1197,-151 1203,-145 1209,-145 1209,-145 1324,-145 1324,-145 1330,-145 1336,-151 1336,-157 1336,-157 1336,-169 1336,-169 1336,-175 1330,-181 1324,-181"/>
<text text-anchor="middle" x="1266.5" y="-160.8" font-family="Courier,monospace" font-size="9.00">IIccStruct::IIccStruct()</text>
</g>
<!-- Node0x5797c7dcee80&#45;&gt;Node0x5797c7dbcea0 -->
<g id="edge1" class="edge">
<title>Node0x5797c7dcee80&#45;&gt;Node0x5797c7dbcea0</title>
<path fill="none" stroke="#4a6fa5" d="M1042.29,-163C1090.51,-163 1146.54,-163 1190.4,-163"/>
<polygon fill="#4a6fa5" stroke="#4a6fa5" points="1190.51,-165.1 1196.51,-163 1190.51,-160.9 1190.51,-165.1"/>
</g>
<!-- Node0x5797c7dbfa20 -->
<g id="node3" class="node">
<title>Node0x5797c7dbfa20</title>
<path fill="#f0f4ff" stroke="black" d="M1032.5,-529C1032.5,-529 839.5,-529 839.5,-529 833.5,-529 827.5,-523 827.5,-517 827.5,-517 827.5,-505 827.5,-505 827.5,-499 833.5,-493 839.5,-493 839.5,-493 1032.5,-493 1032.5,-493 1038.5,-493 1044.5,-499 1044.5,-505 1044.5,-505 1044.5,-517 1044.5,-517 1044.5,-523 1038.5,-529 1032.5,-529"/>
<text text-anchor="middle" x="936" y="-508.8" font-family="Courier,monospace" font-size="9.00">CIccStructUnknown::~CIccStructUnknown()</text>
</g>
<!-- Node0x5797c7dca590 -->
<g id="node4" class="node">
<title>Node0x5797c7dca590</title>
<path fill="#f0f4ff" stroke="black" d="M1326.5,-529C1326.5,-529 1206.5,-529 1206.5,-529 1200.5,-529 1194.5,-523 1194.5,-517 1194.5,-517 1194.5,-505 1194.5,-505 1194.5,-499 1200.5,-493 1206.5,-493 1206.5,-493 1326.5,-493 1326.5,-493 1332.5,-493 1338.5,-499 1338.5,-505 1338.5,-505 1338.5,-517 1338.5,-517 1338.5,-523 1332.5,-529 1326.5,-529"/>
<text text-anchor="middle" x="1266.5" y="-508.8" font-family="Courier,monospace" font-size="9.00">IIccStruct::~IIccStruct()</text>
</g>
<!-- Node0x5797c7dbfa20&#45;&gt;Node0x5797c7dca590 -->
<g id="edge2" class="edge">
<title>Node0x5797c7dbfa20&#45;&gt;Node0x5797c7dca590</title>
<path fill="none" stroke="#4a6fa5" d="M1044.56,-511C1091.47,-511 1145.4,-511 1188.24,-511"/>
<polygon fill="#4a6fa5" stroke="#4a6fa5" points="1188.48,-513.1 1194.48,-511 1188.48,-508.9 1188.48,-513.1"/>
</g>
<!-- Node0x5797c7df22c0 -->
<g id="node5" class="node">
<title>Node0x5797c7df22c0</title>
<path fill="#f0f4ff" stroke="black" d="M316,-509C316,-509 12,-509 12,-509 6,-509 0,-503 0,-497 0,-497 0,-485 0,-485 0,-479 6,-473 12,-473 12,-473 316,-473 316,-473 322,-473 328,-479 328,-485 328,-485 328,-497 328,-497 328,-503 322,-509 316,-509"/>
<text text-anchor="middle" x="164" y="-488.8" font-family="Courier,monospace" font-size="9.00">CIccStructColorEncodingParams::~CIccStructColorEncodingPa...</text>
</g>
<!-- Node0x5797c7defee0 -->
<g id="node6" class="node">
<title>Node0x5797c7defee0</title>
<path fill="#f0f4ff" stroke="black" d="M263.5,-585C263.5,-585 64.5,-585 64.5,-585 58.5,-585 52.5,-579 52.5,-573 52.5,-573 52.5,-561 52.5,-561 52.5,-555 58.5,-549 64.5,-549 64.5,-549 263.5,-549 263.5,-549 269.5,-549 275.5,-555 275.5,-561 275.5,-561 275.5,-573 275.5,-573 275.5,-579 269.5,-585 263.5,-585"/>
<text text-anchor="middle" x="164" y="-564.8" font-family="Courier,monospace" font-size="9.00">CIccStructColorEncodingParams::NewCopy()</text>
</g>
<!-- Node0x5797c7dcc4d0 -->
<g id="node7" class="node">
<title>Node0x5797c7dcc4d0</title>
<path fill="#f0f4ff" stroke="black" d="M260.5,-679C260.5,-679 67.5,-679 67.5,-679 61.5,-679 55.5,-673 55.5,-667 55.5,-667 55.5,-655 55.5,-655 55.5,-649 61.5,-643 67.5,-643 67.5,-643 260.5,-643 260.5,-643 266.5,-643 272.5,-649 272.5,-655 272.5,-655 272.5,-667 272.5,-667 272.5,-673 266.5,-679 260.5,-679"/>
<text text-anchor="middle" x="164" y="-658.8" font-family="Courier,monospace" font-size="9.00">CIccStructUnknown::~CIccStructUnknown()</text>
</g>
<!-- Node0x5797c7dc9b20 -->
<g id="node8" class="node">
<title>Node0x5797c7dc9b20</title>
<path fill="#f0f4ff" stroke="black" d="M232,-809C232,-809 96,-809 96,-809 90,-809 84,-803 84,-797 84,-797 84,-785 84,-785 84,-779 90,-773 96,-773 96,-773 232,-773 232,-773 238,-773 244,-779 244,-785 244,-785 244,-797 244,-797 244,-803 238,-809 232,-809"/>
<text text-anchor="middle" x="164" y="-788.8" font-family="Courier,monospace" font-size="9.00">CIccStructUnknown::NewCopy()</text>
</g>
<!-- Node0x5797c7cc1ca0 -->
<g id="node9" class="node">
<title>Node0x5797c7cc1ca0</title>
<path fill="#f0f4ff" stroke="black" d="M1006.5,-1282C1006.5,-1282 865.5,-1282 865.5,-1282 859.5,-1282 853.5,-1276 853.5,-1270 853.5,-1270 853.5,-1258 853.5,-1258 853.5,-1252 859.5,-1246 865.5,-1246 865.5,-1246 1006.5,-1246 1006.5,-1246 1012.5,-1246 1018.5,-1252 1018.5,-1258 1018.5,-1258 1018.5,-1270 1018.5,-1270 1018.5,-1276 1012.5,-1282 1006.5,-1282"/>
<text text-anchor="middle" x="936" y="-1261.8" font-family="Courier,monospace" font-size="9.00">CIccStructUnknown::Describe()</text>
</g>
<!-- Node0x5797c7cbbdd0 -->
<g id="node10" class="node">
<title>Node0x5797c7cbbdd0</title>
<path fill="#f0f4ff" stroke="black" d="M1313.5,-1143C1313.5,-1143 1219.5,-1143 1219.5,-1143 1213.5,-1143 1207.5,-1137 1207.5,-1131 1207.5,-1131 1207.5,-1119 1207.5,-1119 1207.5,-1113 1213.5,-1107 1219.5,-1107 1219.5,-1107 1313.5,-1107 1313.5,-1107 1319.5,-1107 1325.5,-1113 1325.5,-1119 1325.5,-1119 1325.5,-1131 1325.5,-1131 1325.5,-1137 1319.5,-1143 1313.5,-1143"/>
<text text-anchor="middle" x="1266.5" y="-1122.8" font-family="Courier,monospace" font-size="9.00">CIccInfo::CIccInfo()</text>
</g>
<!-- Node0x5797c7cc1ca0&#45;&gt;Node0x5797c7cbbdd0 -->
<g id="edge3" class="edge">
<title>Node0x5797c7cc1ca0&#45;&gt;Node0x5797c7cbbdd0</title>
<path fill="none" stroke="#4a6fa5" d="M1018.63,-1246.21C1045.73,-1238.2 1075.27,-1227.07 1100,-1212 1131.13,-1193.04 1126.44,-1172.25 1158,-1154 1171.22,-1146.35 1186.52,-1140.66 1201.36,-1136.45"/>
<polygon fill="#4a6fa5" stroke="#4a6fa5" points="1202,-1138.45 1207.24,-1134.85 1200.89,-1134.4 1202,-1138.45"/>
</g>
<!-- Node0x5797c7cf1230 -->
<g id="node11" class="node">
<title>Node0x5797c7cf1230</title>
<path fill="#f0f4ff" stroke="black" d="M1363,-1305C1363,-1305 1170,-1305 1170,-1305 1164,-1305 1158,-1299 1158,-1293 1158,-1293 1158,-1281 1158,-1281 1158,-1275 1164,-1269 1170,-1269 1170,-1269 1363,-1269 1363,-1269 1369,-1269 1375,-1275 1375,-1281 1375,-1281 1375,-1293 1375,-1293 1375,-1299 1369,-1305 1363,-1305"/>
<text text-anchor="middle" x="1266.5" y="-1284.8" font-family="Courier,monospace" font-size="9.00">CIccTagStruct::GetElemList[abi:cxx11]()</text>
</g>
<!-- Node0x5797c7cc1ca0&#45;&gt;Node0x5797c7cf1230 -->
<g id="edge4" class="edge">
<title>Node0x5797c7cc1ca0&#45;&gt;Node0x5797c7cf1230</title>
<path fill="none" stroke="#4a6fa5" d="M1018.62,-1269.71C1058.82,-1272.53 1107.95,-1275.97 1151.76,-1279.04"/>
<polygon fill="#4a6fa5" stroke="#4a6fa5" points="1151.78,-1281.14 1157.91,-1279.47 1152.07,-1276.95 1151.78,-1281.14"/>
</g>
<!-- Node0x5797c7dba100 -->
<g id="node12" class="node">
<title>Node0x5797c7dba100</title>
<path fill="#f0f4ff" stroke="black" d="M1316,-1201C1316,-1201 1217,-1201 1217,-1201 1211,-1201 1205,-1195 1205,-1189 1205,-1189 1205,-1177 1205,-1177 1205,-1171 1211,-1165 1217,-1165 1217,-1165 1316,-1165 1316,-1165 1322,-1165 1328,-1171 1328,-1177 1328,-1177 1328,-1189 1328,-1189 1328,-1195 1322,-1201 1316,-1201"/>
<text text-anchor="middle" x="1266.5" y="-1180.8" font-family="Courier,monospace" font-size="9.00">CIccInfo::~CIccInfo()</text>
</g>
<!-- Node0x5797c7cc1ca0&#45;&gt;Node0x5797c7dba100 -->
<g id="edge5" class="edge">
<title>Node0x5797c7cc1ca0&#45;&gt;Node0x5797c7dba100</title>
<path fill="none" stroke="#4a6fa5" d="M1010.31,-1245.92C1066.78,-1232 1144.19,-1212.91 1198.9,-1199.42"/>
<polygon fill="#4a6fa5" stroke="#4a6fa5" points="1199.46,-1201.45 1204.79,-1197.97 1198.46,-1197.37 1199.46,-1201.45"/>
</g>
<!-- Node0x5797c7c94970 -->
<g id="node13" class="node">
<title>Node0x5797c7c94970</title>
<path fill="#f0f4ff" stroke="black" d="M1281.5,-1363C1281.5,-1363 1251.5,-1363 1251.5,-1363 1245.5,-1363 1239.5,-1357 1239.5,-1351 1239.5,-1351 1239.5,-1339 1239.5,-1339 1239.5,-1333 1245.5,-1327 1251.5,-1327 1251.5,-1327 1281.5,-1327 1281.5,-1327 1287.5,-1327 1293.5,-1333 1293.5,-1339 1293.5,-1339 1293.5,-1351 1293.5,-1351 1293.5,-1357 1287.5,-1363 1281.5,-1363"/>
<text text-anchor="middle" x="1266.5" y="-1342.8" font-family="Courier,monospace" font-size="9.00">c_str()</text>
</g>
<!-- Node0x5797c7cc1ca0&#45;&gt;Node0x5797c7c94970 -->
<g id="edge6" class="edge">
<title>Node0x5797c7cc1ca0&#45;&gt;Node0x5797c7c94970</title>
<path fill="none" stroke="#4a6fa5" d="M1010.31,-1282.08C1080.09,-1299.28 1181.84,-1324.37 1233.23,-1337.04"/>
<polygon fill="#4a6fa5" stroke="#4a6fa5" points="1232.91,-1339.13 1239.24,-1338.53 1233.92,-1335.05 1232.91,-1339.13"/>
</g>
<!-- Node0x5797c7c953c0 -->
<g id="node14" class="node">
<title>Node0x5797c7c953c0</title>
<path fill="#f0f4ff" stroke="black" d="M1088,-1201C1088,-1201 784,-1201 784,-1201 778,-1201 772,-1195 772,-1189 772,-1189 772,-1177 772,-1177 772,-1171 778,-1165 784,-1165 784,-1165 1088,-1165 1088,-1165 1094,-1165 1100,-1171 1100,-1177 1100,-1177 1100,-1189 1100,-1189 1100,-1195 1094,-1201 1088,-1201"/>
<text text-anchor="middle" x="936" y="-1180.8" font-family="Courier,monospace" font-size="9.00">CIccStructUnknown::GetElemName[abi:cxx11](unsigned int) c...</text>
</g>
<!-- Node0x5797c7c953c0&#45;&gt;Node0x5797c7cbbdd0 -->
<g id="edge8" class="edge">
<title>Node0x5797c7c953c0&#45;&gt;Node0x5797c7cbbdd0</title>
<path fill="none" stroke="#4a6fa5" d="M1039.14,-1164.97C1092.13,-1155.61 1155.24,-1144.47 1201.35,-1136.33"/>
<polygon fill="#4a6fa5" stroke="#4a6fa5" points="1201.91,-1138.36 1207.45,-1135.25 1201.18,-1134.22 1201.91,-1138.36"/>
</g>
<!-- Node0x5797c7c953c0&#45;&gt;Node0x5797c7dba100 -->
<g id="edge7" class="edge">
<title>Node0x5797c7c953c0&#45;&gt;Node0x5797c7dba100</title>
<path fill="none" stroke="#4a6fa5" d="M1100.29,-1183C1135.16,-1183 1170.1,-1183 1198.8,-1183"/>
<polygon fill="#4a6fa5" stroke="#4a6fa5" points="1198.83,-1185.1 1204.83,-1183 1198.83,-1180.9 1198.83,-1185.1"/>
</g>
<!-- Node0x5797c7ded7c0 -->
<g id="node15" class="node">
<title>Node0x5797c7ded7c0</title>
<path fill="#f0f4ff" stroke="black" d="M239.5,-935C239.5,-935 88.5,-935 88.5,-935 82.5,-935 76.5,-929 76.5,-923 76.5,-923 76.5,-911 76.5,-911 76.5,-905 82.5,-899 88.5,-899 88.5,-899 239.5,-899 239.5,-899 245.5,-899 251.5,-905 251.5,-911 251.5,-911 251.5,-923 251.5,-923 251.5,-929 245.5,-935 239.5,-935"/>
<text text-anchor="middle" x="164" y="-914.8" font-family="Courier,monospace" font-size="9.00">CIccStructUnknown::GetElemSig()</text>
</g>
<!-- Node0x5797c7ded900 -->
<g id="node16" class="node">
<title>Node0x5797c7ded900</title>
<path fill="#f0f4ff" stroke="black" d="M1004,-877C1004,-877 868,-877 868,-877 862,-877 856,-871 856,-865 856,-865 856,-853 856,-853 856,-847 862,-841 868,-841 868,-841 1004,-841 1004,-841 1010,-841 1016,-847 1016,-853 1016,-853 1016,-865 1016,-865 1016,-871 1010,-877 1004,-877"/>
<text text-anchor="middle" x="936" y="-856.8" font-family="Courier,monospace" font-size="9.00">CIccStructUnknown::GetElem()</text>
</g>
<!-- Node0x5797c7def820 -->
<g id="node17" class="node">
<title>Node0x5797c7def820</title>
<path fill="#f0f4ff" stroke="black" d="M1326.5,-877C1326.5,-877 1206.5,-877 1206.5,-877 1200.5,-877 1194.5,-871 1194.5,-865 1194.5,-865 1194.5,-853 1194.5,-853 1194.5,-847 1200.5,-841 1206.5,-841 1206.5,-841 1326.5,-841 1326.5,-841 1332.5,-841 1338.5,-847 1338.5,-853 1338.5,-853 1338.5,-865 1338.5,-865 1338.5,-871 1332.5,-877 1326.5,-877"/>
<text text-anchor="middle" x="1266.5" y="-856.8" font-family="Courier,monospace" font-size="9.00">CIccTagStruct::FindElem()</text>
</g>
<!-- Node0x5797c7ded900&#45;&gt;Node0x5797c7def820 -->
<g id="edge9" class="edge">
<title>Node0x5797c7ded900&#45;&gt;Node0x5797c7def820</title>
<path fill="none" stroke="#4a6fa5" d="M1016.1,-859C1068.28,-859 1136.3,-859 1188.12,-859"/>
<polygon fill="#4a6fa5" stroke="#4a6fa5" points="1188.36,-861.1 1194.36,-859 1188.36,-856.9 1188.36,-861.1"/>
</g>
<!-- Node0x5797c7def5a0 -->
<g id="node18" class="node">
<title>Node0x5797c7def5a0</title>
<path fill="#f0f4ff" stroke="black" d="M1337,-1085C1337,-1085 1196,-1085 1196,-1085 1190,-1085 1184,-1079 1184,-1073 1184,-1073 1184,-1061 1184,-1061 1184,-1055 1190,-1049 1196,-1049 1196,-1049 1337,-1049 1337,-1049 1343,-1049 1349,-1055 1349,-1061 1349,-1061 1349,-1073 1349,-1073 1349,-1079 1343,-1085 1337,-1085"/>
<text text-anchor="middle" x="1266.5" y="-1064.8" font-family="Courier,monospace" font-size="9.00">CIccStructUnknown::Validate()</text>
</g>
<!-- Node0x5797c7def320 -->
<g id="node19" class="node">
<title>Node0x5797c7def320</title>
<path fill="#f0f4ff" stroke="black" d="M1665,-1130C1665,-1130 1445,-1130 1445,-1130 1439,-1130 1433,-1124 1433,-1118 1433,-1118 1433,-1106 1433,-1106 1433,-1100 1439,-1094 1445,-1094 1445,-1094 1665,-1094 1665,-1094 1671,-1094 1677,-1100 1677,-1106 1677,-1106 1677,-1118 1677,-1118 1677,-1124 1671,-1130 1665,-1130"/>
<text text-anchor="middle" x="1555" y="-1109.8" font-family="Courier,monospace" font-size="9.00">IIccStruct::getTagEntries[abi:cxx11]() const</text>
</g>
<!-- Node0x5797c7def5a0&#45;&gt;Node0x5797c7def320 -->
<g id="edge10" class="edge">
<title>Node0x5797c7def5a0&#45;&gt;Node0x5797c7def320</title>
<path fill="none" stroke="#4a6fa5" d="M1349.22,-1079.83C1375.39,-1083.95 1404.94,-1088.59 1433.29,-1093.04"/>
<polygon fill="#4a6fa5" stroke="#4a6fa5" points="1433.07,-1095.13 1439.32,-1093.99 1433.72,-1090.98 1433.07,-1095.13"/>
</g>
<!-- Node0x5797c7def1e0 -->
<g id="node20" class="node">
<title>Node0x5797c7def1e0</title>
<path fill="#f0f4ff" stroke="black" d="M1646.5,-1072C1646.5,-1072 1463.5,-1072 1463.5,-1072 1457.5,-1072 1451.5,-1066 1451.5,-1060 1451.5,-1060 1451.5,-1048 1451.5,-1048 1451.5,-1042 1457.5,-1036 1463.5,-1036 1463.5,-1036 1646.5,-1036 1646.5,-1036 1652.5,-1036 1658.5,-1042 1658.5,-1048 1658.5,-1048 1658.5,-1060 1658.5,-1060 1658.5,-1066 1652.5,-1072 1646.5,-1072"/>
<text text-anchor="middle" x="1555" y="-1051.8" font-family="Courier,monospace" font-size="9.00">icGetSigPath[abi:cxx11](unsigned int)</text>
</g>
<!-- Node0x5797c7def5a0&#45;&gt;Node0x5797c7def1e0 -->
<g id="edge11" class="edge">
<title>Node0x5797c7def5a0&#45;&gt;Node0x5797c7def1e0</title>
<path fill="none" stroke="#4a6fa5" d="M1349.22,-1063.29C1379.06,-1061.94 1413.31,-1060.38 1445.15,-1058.94"/>
<polygon fill="#4a6fa5" stroke="#4a6fa5" points="1445.59,-1061.02 1451.49,-1058.65 1445.4,-1056.83 1445.59,-1061.02"/>
</g>
<!-- Node0x5797c7df04a0 -->
<g id="node21" class="node">
<title>Node0x5797c7df04a0</title>
<path fill="#f0f4ff" stroke="black" d="M1583.5,-1001C1583.5,-1001 1526.5,-1001 1526.5,-1001 1520.5,-1001 1514.5,-995 1514.5,-989 1514.5,-989 1514.5,-977 1514.5,-977 1514.5,-971 1520.5,-965 1526.5,-965 1526.5,-965 1583.5,-965 1583.5,-965 1589.5,-965 1595.5,-971 1595.5,-977 1595.5,-977 1595.5,-989 1595.5,-989 1595.5,-995 1589.5,-1001 1583.5,-1001"/>
<text text-anchor="middle" x="1555" y="-980.8" font-family="Courier,monospace" font-size="9.00">icMaxStatus()</text>
</g>
<!-- Node0x5797c7def5a0&#45;&gt;Node0x5797c7df04a0 -->
<g id="edge12" class="edge">
<title>Node0x5797c7def5a0&#45;&gt;Node0x5797c7df04a0</title>
<path fill="none" stroke="#4a6fa5" d="M1335.84,-1048.95C1348.87,-1045.4 1362.37,-1041.64 1375,-1038 1420.47,-1024.88 1472.11,-1008.9 1508.2,-997.55"/>
<polygon fill="#4a6fa5" stroke="#4a6fa5" points="1509.21,-999.43 1514.3,-995.63 1507.95,-995.43 1509.21,-999.43"/>
</g>
<!-- Node0x5797c7defe60 -->
<g id="node22" class="node">
<title>Node0x5797c7defe60</title>
<path fill="#f0f4ff" stroke="black" d="M628.5,-326C628.5,-326 471.5,-326 471.5,-326 465.5,-326 459.5,-320 459.5,-314 459.5,-314 459.5,-302 459.5,-302 459.5,-296 465.5,-290 471.5,-290 471.5,-290 628.5,-290 628.5,-290 634.5,-290 640.5,-296 640.5,-302 640.5,-302 640.5,-314 640.5,-314 640.5,-320 634.5,-326 628.5,-326"/>
<text text-anchor="middle" x="550" y="-305.8" font-family="Courier,monospace" font-size="9.00">CIccStructBRDF::CIccStructBRDF()</text>
</g>
<!-- Node0x5797c7defe60&#45;&gt;Node0x5797c7dcee80 -->
<g id="edge13" class="edge">
<title>Node0x5797c7defe60&#45;&gt;Node0x5797c7dcee80</title>
<path fill="none" stroke="#4a6fa5" d="M640.66,-297.13C664.85,-292.83 690.75,-286.96 714,-279 784.57,-254.85 860.16,-210.73 902.11,-184.41"/>
<polygon fill="#4a6fa5" stroke="#4a6fa5" points="903.35,-186.12 907.3,-181.14 901.11,-182.56 903.35,-186.12"/>
</g>
<!-- Node0x5797c7dead30 -->
<g id="node23" class="node">
<title>Node0x5797c7dead30</title>
<path fill="#f0f4ff" stroke="black" d="M631,-674C631,-674 469,-674 469,-674 463,-674 457,-668 457,-662 457,-662 457,-650 457,-650 457,-644 463,-638 469,-638 469,-638 631,-638 631,-638 637,-638 643,-644 643,-650 643,-650 643,-662 643,-662 643,-668 637,-674 631,-674"/>
<text text-anchor="middle" x="550" y="-653.8" font-family="Courier,monospace" font-size="9.00">CIccStructBRDF::~CIccStructBRDF()</text>
</g>
<!-- Node0x5797c7dead30&#45;&gt;Node0x5797c7dbfa20 -->
<g id="edge14" class="edge">
<title>Node0x5797c7dead30&#45;&gt;Node0x5797c7dbfa20</title>
<path fill="none" stroke="#4a6fa5" d="M643.21,-644.67C666.66,-640.42 691.56,-634.68 714,-627 784.57,-602.85 860.16,-558.73 902.11,-532.41"/>
<polygon fill="#4a6fa5" stroke="#4a6fa5" points="903.35,-534.12 907.3,-529.14 901.11,-530.56 903.35,-534.12"/>
</g>
<!-- Node0x5797c7df1e80 -->
<g id="node24" class="node">
<title>Node0x5797c7df1e80</title>
<path fill="#f0f4ff" stroke="black" d="M245,-993C245,-993 83,-993 83,-993 77,-993 71,-987 71,-981 71,-981 71,-969 71,-969 71,-963 77,-957 83,-957 83,-957 245,-957 245,-957 251,-957 257,-963 257,-969 257,-969 257,-981 257,-981 257,-987 251,-993 245,-993"/>
<text text-anchor="middle" x="164" y="-972.8" font-family="Courier,monospace" font-size="9.00">CIccStructBRDF::~CIccStructBRDF()</text>
</g>
<!-- Node0x5797c7df1d40 -->
<g id="node25" class="node">
<title>Node0x5797c7df1d40</title>
<path fill="#f0f4ff" stroke="black" d="M224,-1051C224,-1051 104,-1051 104,-1051 98,-1051 92,-1045 92,-1039 92,-1039 92,-1027 92,-1027 92,-1021 98,-1015 104,-1015 104,-1015 224,-1015 224,-1015 230,-1015 236,-1021 236,-1027 236,-1027 236,-1039 236,-1039 236,-1045 230,-1051 224,-1051"/>
<text text-anchor="middle" x="164" y="-1030.8" font-family="Courier,monospace" font-size="9.00">CIccStructBRDF::NewCopy()</text>
</g>
<!-- Node0x5797c7df1ac0 -->
<g id="node26" class="node">
<title>Node0x5797c7df1ac0</title>
<path fill="#f0f4ff" stroke="black" d="M620.5,-790C620.5,-790 479.5,-790 479.5,-790 473.5,-790 467.5,-784 467.5,-778 467.5,-778 467.5,-766 467.5,-766 467.5,-760 473.5,-754 479.5,-754 479.5,-754 620.5,-754 620.5,-754 626.5,-754 632.5,-760 632.5,-766 632.5,-766 632.5,-778 632.5,-778 632.5,-784 626.5,-790 620.5,-790"/>
<text text-anchor="middle" x="550" y="-769.8" font-family="Courier,monospace" font-size="9.00">CIccStructBRDF::GetBRDFType()</text>
</g>
<!-- Node0x5797c7df1ac0&#45;&gt;Node0x5797c7ded900 -->
<g id="edge15" class="edge">
<title>Node0x5797c7df1ac0&#45;&gt;Node0x5797c7ded900</title>
<path fill="none" stroke="#4a6fa5" d="M614.5,-790.12C658.49,-802.31 718.54,-818.25 772,-830 797.21,-835.54 824.79,-840.76 849.98,-845.21"/>
<polygon fill="#4a6fa5" stroke="#4a6fa5" points="849.71,-847.29 855.98,-846.26 850.44,-843.16 849.71,-847.29"/>
</g>
<!-- Node0x5797c7df1980 -->
<g id="node27" class="node">
<title>Node0x5797c7df1980</title>
<path fill="#f0f4ff" stroke="black" d="M967,-761C967,-761 905,-761 905,-761 899,-761 893,-755 893,-749 893,-749 893,-737 893,-737 893,-731 899,-725 905,-725 905,-725 967,-725 967,-725 973,-725 979,-731 979,-737 979,-737 979,-749 979,-749 979,-755 973,-761 967,-761"/>
<text text-anchor="middle" x="936" y="-740.8" font-family="Courier,monospace" font-size="9.00">__dynamic_cast</text>
</g>
<!-- Node0x5797c7df1ac0&#45;&gt;Node0x5797c7df1980 -->
<g id="edge16" class="edge">
<title>Node0x5797c7df1ac0&#45;&gt;Node0x5797c7df1980</title>
<path fill="none" stroke="#4a6fa5" d="M632.91,-765.81C710.15,-759.98 823.3,-751.44 886.94,-746.63"/>
<polygon fill="#4a6fa5" stroke="#4a6fa5" points="887.11,-748.72 892.94,-746.18 886.8,-744.53 887.11,-748.72"/>
</g>
<!-- Node0x5797c7deb420 -->
<g id="node28" class="node">
<title>Node0x5797c7deb420</title>
<path fill="#f0f4ff" stroke="black" d="M1004,-703C1004,-703 868,-703 868,-703 862,-703 856,-697 856,-691 856,-691 856,-679 856,-679 856,-673 862,-667 868,-667 868,-667 1004,-667 1004,-667 1010,-667 1016,-673 1016,-679 1016,-679 1016,-691 1016,-691 1016,-697 1010,-703 1004,-703"/>
<text text-anchor="middle" x="936" y="-682.8" font-family="Courier,monospace" font-size="9.00">CIccTagSignature::GetValue()</text>
</g>
<!-- Node0x5797c7df1ac0&#45;&gt;Node0x5797c7deb420 -->
<g id="edge17" class="edge">
<title>Node0x5797c7df1ac0&#45;&gt;Node0x5797c7deb420</title>
<path fill="none" stroke="#4a6fa5" d="M632.56,-762.2C658.95,-757.79 688.08,-751.59 714,-743 741.36,-733.94 744.64,-723.06 772,-714 796.75,-705.8 824.44,-699.77 849.86,-695.4"/>
<polygon fill="#4a6fa5" stroke="#4a6fa5" points="850.36,-697.45 855.93,-694.38 849.66,-693.31 850.36,-697.45"/>
</g>
<!-- Node0x5797c7deed60 -->
<g id="node29" class="node">
<title>Node0x5797c7deed60</title>
<path fill="#f0f4ff" stroke="black" d="M631,-732C631,-732 469,-732 469,-732 463,-732 457,-726 457,-720 457,-720 457,-708 457,-708 457,-702 463,-696 469,-696 469,-696 631,-696 631,-696 637,-696 643,-702 643,-708 643,-708 643,-720 643,-720 643,-726 637,-732 631,-732"/>
<text text-anchor="middle" x="550" y="-711.8" font-family="Courier,monospace" font-size="9.00">CIccStructBRDF::GetBRDFFunction()</text>
</g>
<!-- Node0x5797c7deed60&#45;&gt;Node0x5797c7ded900 -->
<g id="edge18" class="edge">
<title>Node0x5797c7deed60&#45;&gt;Node0x5797c7ded900</title>
<path fill="none" stroke="#4a6fa5" d="M643.39,-717.4C667.84,-721.66 693.2,-729.39 714,-743 752.89,-768.45 733.11,-804.55 772,-830 794.81,-844.92 823.08,-852.77 849.65,-856.74"/>
<polygon fill="#4a6fa5" stroke="#4a6fa5" points="849.41,-858.82 855.64,-857.57 849.99,-854.66 849.41,-858.82"/>
</g>
<!-- Node0x5797c7deed60&#45;&gt;Node0x5797c7df1980 -->
<g id="edge19" class="edge">
<title>Node0x5797c7deed60&#45;&gt;Node0x5797c7df1980</title>
<path fill="none" stroke="#4a6fa5" d="M643.47,-720.98C720.06,-726.77 825.87,-734.76 886.7,-739.35"/>
<polygon fill="#4a6fa5" stroke="#4a6fa5" points="886.66,-741.46 892.8,-739.81 886.98,-737.27 886.66,-741.46"/>
</g>
<!-- Node0x5797c7deed60&#45;&gt;Node0x5797c7deb420 -->
<g id="edge20" class="edge">
<title>Node0x5797c7deed60&#45;&gt;Node0x5797c7deb420</title>
<path fill="none" stroke="#4a6fa5" d="M643.47,-707.02C706.22,-702.28 788.59,-696.06 849.76,-691.44"/>
<polygon fill="#4a6fa5" stroke="#4a6fa5" points="850.16,-693.51 855.99,-690.97 849.85,-689.32 850.16,-693.51"/>
</g>
<!-- Node0x5797c7deeea0 -->
<g id="node30" class="node">
<title>Node0x5797c7deeea0</title>
<path fill="#f0f4ff" stroke="black" d="M998.5,-1143C998.5,-1143 873.5,-1143 873.5,-1143 867.5,-1143 861.5,-1137 861.5,-1131 861.5,-1131 861.5,-1119 861.5,-1119 861.5,-1113 867.5,-1107 873.5,-1107 873.5,-1107 998.5,-1107 998.5,-1107 1004.5,-1107 1010.5,-1113 1010.5,-1119 1010.5,-1119 1010.5,-1131 1010.5,-1131 1010.5,-1137 1004.5,-1143 998.5,-1143"/>
<text text-anchor="middle" x="936" y="-1122.8" font-family="Courier,monospace" font-size="9.00">CIccStructBRDF::Validate()</text>
</g>
<!-- Node0x5797c7deeea0&#45;&gt;Node0x5797c7cbbdd0 -->
<g id="edge24" class="edge">
<title>Node0x5797c7deeea0&#45;&gt;Node0x5797c7cbbdd0</title>
<path fill="none" stroke="#4a6fa5" d="M1010.72,-1125C1067.92,-1125 1146.41,-1125 1201.1,-1125"/>
<polygon fill="#4a6fa5" stroke="#4a6fa5" points="1201.31,-1127.1 1207.31,-1125 1201.31,-1122.9 1201.31,-1127.1"/>
</g>
<!-- Node0x5797c7deeea0&#45;&gt;Node0x5797c7dba100 -->
<g id="edge26" class="edge">
<title>Node0x5797c7deeea0&#45;&gt;Node0x5797c7dba100</title>
<path fill="none" stroke="#4a6fa5" d="M1010.72,-1138.02C1067.1,-1147.97 1144.16,-1161.58 1198.73,-1171.21"/>
<polygon fill="#4a6fa5" stroke="#4a6fa5" points="1198.66,-1173.33 1204.94,-1172.31 1199.39,-1169.2 1198.66,-1173.33"/>
</g>
<!-- Node0x5797c7deeea0&#45;&gt;Node0x5797c7def820 -->
<g id="edge21" class="edge">
<title>Node0x5797c7deeea0&#45;&gt;Node0x5797c7def820</title>
<path fill="none" stroke="#4a6fa5" d="M1010.86,-1125.93C1041.01,-1122.94 1074.67,-1114.92 1100,-1096 1146.18,-1061.5 1125.69,-1027.73 1158,-980 1183.1,-942.91 1218.61,-905.11 1241.85,-881.85"/>
<polygon fill="#4a6fa5" stroke="#4a6fa5" points="1243.55,-883.12 1246.32,-877.4 1240.59,-880.14 1243.55,-883.12"/>
</g>
<!-- Node0x5797c7deeea0&#45;&gt;Node0x5797c7def5a0 -->
<g id="edge23" class="edge">
<title>Node0x5797c7deeea0&#45;&gt;Node0x5797c7def5a0</title>
<path fill="none" stroke="#4a6fa5" d="M1010.72,-1111.98C1060.27,-1103.24 1125.79,-1091.67 1177.98,-1082.45"/>
<polygon fill="#4a6fa5" stroke="#4a6fa5" points="1178.41,-1084.51 1183.95,-1081.4 1177.68,-1080.37 1178.41,-1084.51"/>
</g>
<!-- Node0x5797c7deeea0&#45;&gt;Node0x5797c7df04a0 -->
<g id="edge22" class="edge">
<title>Node0x5797c7deeea0&#45;&gt;Node0x5797c7df04a0</title>
<path fill="none" stroke="#4a6fa5" d="M1010.66,-1128.58C1039.78,-1132.38 1072.73,-1139.78 1100,-1154 1132.32,-1170.86 1124.32,-1198.05 1158,-1212 1247.1,-1248.91 1297.36,-1269.21 1375,-1212 1445.05,-1160.38 1372.5,-1087.55 1433,-1025 1452.82,-1004.51 1483.14,-994 1508.47,-988.63"/>
<polygon fill="#4a6fa5" stroke="#4a6fa5" points="1508.99,-990.67 1514.46,-987.43 1508.16,-986.55 1508.99,-990.67"/>
</g>
<!-- Node0x5797c7deded0 -->
<g id="node31" class="node">
<title>Node0x5797c7deded0</title>
<path fill="#f0f4ff" stroke="black" d="M1329,-1027C1329,-1027 1204,-1027 1204,-1027 1198,-1027 1192,-1021 1192,-1015 1192,-1015 1192,-1003 1192,-1003 1192,-997 1198,-991 1204,-991 1204,-991 1329,-991 1329,-991 1335,-991 1341,-997 1341,-1003 1341,-1003 1341,-1015 1341,-1015 1341,-1021 1335,-1027 1329,-1027"/>
<text text-anchor="middle" x="1266.5" y="-1006.8" font-family="Courier,monospace" font-size="9.00">CIccInfo::GetSigPathName()</text>
</g>
<!-- Node0x5797c7deeea0&#45;&gt;Node0x5797c7deded0 -->
<g id="edge25" class="edge">
<title>Node0x5797c7deeea0&#45;&gt;Node0x5797c7deded0</title>
<path fill="none" stroke="#4a6fa5" d="M1010.66,-1121.42C1039.78,-1117.62 1072.73,-1110.22 1100,-1096 1132.32,-1079.14 1126.44,-1056.25 1158,-1038 1166.67,-1032.98 1176.24,-1028.81 1185.98,-1025.34"/>
<polygon fill="#4a6fa5" stroke="#4a6fa5" points="1186.73,-1027.31 1191.73,-1023.38 1185.38,-1023.33 1186.73,-1027.31"/>
</g>
<!-- Node0x5797c7df6d30 -->
<g id="node32" class="node">
<title>Node0x5797c7df6d30</title>
<path fill="#f0f4ff" stroke="black" d="M702,-268C702,-268 398,-268 398,-268 392,-268 386,-262 386,-256 386,-256 386,-244 386,-244 386,-238 392,-232 398,-232 398,-232 702,-232 702,-232 708,-232 714,-238 714,-244 714,-244 714,-256 714,-256 714,-262 708,-268 702,-268"/>
<text text-anchor="middle" x="550" y="-247.8" font-family="Courier,monospace" font-size="9.00">CIccStructColorEncodingParams::CIccStructColorEncodingPar...</text>
</g>
<!-- Node0x5797c7df6d30&#45;&gt;Node0x5797c7dcee80 -->
<g id="edge27" class="edge">
<title>Node0x5797c7df6d30&#45;&gt;Node0x5797c7dcee80</title>
<path fill="none" stroke="#4a6fa5" d="M659.52,-231.95C677.76,-228.56 696.45,-224.86 714,-221 765.06,-209.78 822.13,-194.74 865.48,-182.78"/>
<polygon fill="#4a6fa5" stroke="#4a6fa5" points="866.28,-184.74 871.5,-181.12 865.16,-180.69 866.28,-184.74"/>
</g>
<!-- Node0x5797c7df4e50 -->
<g id="node33" class="node">
<title>Node0x5797c7df4e50</title>
<path fill="#f0f4ff" stroke="black" d="M702,-616C702,-616 398,-616 398,-616 392,-616 386,-610 386,-604 386,-604 386,-592 386,-592 386,-586 392,-580 398,-580 398,-580 702,-580 702,-580 708,-580 714,-586 714,-592 714,-592 714,-604 714,-604 714,-610 708,-616 702,-616"/>
<text text-anchor="middle" x="550" y="-595.8" font-family="Courier,monospace" font-size="9.00">CIccStructColorEncodingParams::~CIccStructColorEncodingPa...</text>
</g>
<!-- Node0x5797c7df4e50&#45;&gt;Node0x5797c7dbfa20 -->
<g id="edge28" class="edge">
<title>Node0x5797c7df4e50&#45;&gt;Node0x5797c7dbfa20</title>
<path fill="none" stroke="#4a6fa5" d="M659.52,-579.95C677.76,-576.56 696.45,-572.86 714,-569 765.06,-557.78 822.13,-542.74 865.48,-530.78"/>
<polygon fill="#4a6fa5" stroke="#4a6fa5" points="866.28,-532.74 871.5,-529.12 865.16,-528.69 866.28,-532.74"/>
</g>
<!-- Node0x5797c7df8270 -->
<g id="node34" class="node">
<title>Node0x5797c7df8270</title>
<path fill="#f0f4ff" stroke="black" d="M670.5,-210C670.5,-210 429.5,-210 429.5,-210 423.5,-210 417.5,-204 417.5,-198 417.5,-198 417.5,-186 417.5,-186 417.5,-180 423.5,-174 429.5,-174 429.5,-174 670.5,-174 670.5,-174 676.5,-174 682.5,-180 682.5,-186 682.5,-186 682.5,-198 682.5,-198 682.5,-204 676.5,-210 670.5,-210"/>
<text text-anchor="middle" x="550" y="-189.8" font-family="Courier,monospace" font-size="9.00">CIccStructColorantInfo::CIccStructColorantInfo()</text>
</g>
<!-- Node0x5797c7df8270&#45;&gt;Node0x5797c7dcee80 -->
<g id="edge29" class="edge">
<title>Node0x5797c7df8270&#45;&gt;Node0x5797c7dcee80</title>
<path fill="none" stroke="#4a6fa5" d="M682.61,-182.06C728.54,-178.59 779.61,-174.74 823.72,-171.4"/>
<polygon fill="#4a6fa5" stroke="#4a6fa5" points="824.07,-173.48 829.9,-170.94 823.75,-169.3 824.07,-173.48"/>
</g>
<!-- Node0x5797c7df9330 -->
<g id="node35" class="node">
<title>Node0x5797c7df9330</title>
<path fill="#f0f4ff" stroke="black" d="M673,-558C673,-558 427,-558 427,-558 421,-558 415,-552 415,-546 415,-546 415,-534 415,-534 415,-528 421,-522 427,-522 427,-522 673,-522 673,-522 679,-522 685,-528 685,-534 685,-534 685,-546 685,-546 685,-552 679,-558 673,-558"/>
<text text-anchor="middle" x="550" y="-537.8" font-family="Courier,monospace" font-size="9.00">CIccStructColorantInfo::~CIccStructColorantInfo()</text>
</g>
<!-- Node0x5797c7df9330&#45;&gt;Node0x5797c7dbfa20 -->
<g id="edge30" class="edge">
<title>Node0x5797c7df9330&#45;&gt;Node0x5797c7dbfa20</title>
<path fill="none" stroke="#4a6fa5" d="M685.03,-529.88C729.46,-526.52 778.46,-522.82 821.22,-519.59"/>
<polygon fill="#4a6fa5" stroke="#4a6fa5" points="821.38,-521.69 827.21,-519.14 821.07,-517.5 821.38,-521.69"/>
</g>
<!-- Node0x5797c7df8e30 -->
<g id="node36" class="node">
<title>Node0x5797c7df8e30</title>
<path fill="#f0f4ff" stroke="black" d="M287,-1109C287,-1109 41,-1109 41,-1109 35,-1109 29,-1103 29,-1097 29,-1097 29,-1085 29,-1085 29,-1079 35,-1073 41,-1073 41,-1073 287,-1073 287,-1073 293,-1073 299,-1079 299,-1085 299,-1085 299,-1097 299,-1097 299,-1103 293,-1109 287,-1109"/>
<text text-anchor="middle" x="164" y="-1088.8" font-family="Courier,monospace" font-size="9.00">CIccStructColorantInfo::~CIccStructColorantInfo()</text>
</g>
<!-- Node0x5797c7df8770 -->
<g id="node37" class="node">
<title>Node0x5797c7df8770</title>
<path fill="#f0f4ff" stroke="black" d="M245,-1167C245,-1167 83,-1167 83,-1167 77,-1167 71,-1161 71,-1155 71,-1155 71,-1143 71,-1143 71,-1137 77,-1131 83,-1131 83,-1131 245,-1131 245,-1131 251,-1131 257,-1137 257,-1143 257,-1143 257,-1155 257,-1155 257,-1161 251,-1167 245,-1167"/>
<text text-anchor="middle" x="164" y="-1146.8" font-family="Courier,monospace" font-size="9.00">CIccStructColorantInfo::NewCopy()</text>
</g>
<!-- Node0x5797c7df8630 -->
<g id="node38" class="node">
<title>Node0x5797c7df8630</title>
<path fill="#f0f4ff" stroke="black" d="M1019.5,-1027C1019.5,-1027 852.5,-1027 852.5,-1027 846.5,-1027 840.5,-1021 840.5,-1015 840.5,-1015 840.5,-1003 840.5,-1003 840.5,-997 846.5,-991 852.5,-991 852.5,-991 1019.5,-991 1019.5,-991 1025.5,-991 1031.5,-997 1031.5,-1003 1031.5,-1003 1031.5,-1015 1031.5,-1015 1031.5,-1021 1025.5,-1027 1019.5,-1027"/>
<text text-anchor="middle" x="936" y="-1006.8" font-family="Courier,monospace" font-size="9.00">CIccStructColorantInfo::Validate()</text>
</g>
<!-- Node0x5797c7df8630&#45;&gt;Node0x5797c7cbbdd0 -->
<g id="edge32" class="edge">
<title>Node0x5797c7df8630&#45;&gt;Node0x5797c7cbbdd0</title>
<path fill="none" stroke="#4a6fa5" d="M1031.58,-1015.87C1054.87,-1020.21 1079.1,-1027.1 1100,-1038 1132.32,-1054.86 1126.44,-1077.75 1158,-1096 1171.22,-1103.65 1186.52,-1109.34 1201.36,-1113.55"/>
<polygon fill="#4a6fa5" stroke="#4a6fa5" points="1200.89,-1115.6 1207.24,-1115.15 1202,-1111.55 1200.89,-1115.6"/>
</g>
<!-- Node0x5797c7df8630&#45;&gt;Node0x5797c7dba100 -->
<g id="edge36" class="edge">
<title>Node0x5797c7df8630&#45;&gt;Node0x5797c7dba100</title>
<path fill="none" stroke="#4a6fa5" d="M1031.82,-1010.96C1055.88,-1015.27 1080.43,-1023.38 1100,-1038 1146.18,-1072.5 1113.37,-1117.52 1158,-1154 1169.76,-1163.61 1184.43,-1170.06 1199.11,-1174.37"/>
<polygon fill="#4a6fa5" stroke="#4a6fa5" points="1198.61,-1176.41 1204.95,-1175.98 1199.72,-1172.36 1198.61,-1176.41"/>
</g>
<!-- Node0x5797c7df8630&#45;&gt;Node0x5797c7def820 -->
<g id="edge31" class="edge">
<title>Node0x5797c7df8630&#45;&gt;Node0x5797c7def820</title>
<path fill="none" stroke="#4a6fa5" d="M967.69,-990.96C1009.67,-966.76 1087.81,-923.45 1158,-894 1170.83,-888.62 1184.79,-883.53 1198.28,-878.99"/>
<polygon fill="#4a6fa5" stroke="#4a6fa5" points="1199,-880.97 1204.03,-877.08 1197.67,-876.98 1199,-880.97"/>
</g>
<!-- Node0x5797c7df8630&#45;&gt;Node0x5797c7def5a0 -->
<g id="edge35" class="edge">
<title>Node0x5797c7df8630&#45;&gt;Node0x5797c7def5a0</title>
<path fill="none" stroke="#4a6fa5" d="M1031.58,-1025.7C1077.65,-1033.83 1132.7,-1043.55 1177.83,-1051.52"/>
<polygon fill="#4a6fa5" stroke="#4a6fa5" points="1177.57,-1053.61 1183.84,-1052.58 1178.3,-1049.47 1177.57,-1053.61"/>
</g>
<!-- Node0x5797c7df8630&#45;&gt;Node0x5797c7df04a0 -->
<g id="edge34" class="edge">
<title>Node0x5797c7df8630&#45;&gt;Node0x5797c7df04a0</title>
<path fill="none" stroke="#4a6fa5" d="M980.93,-990.94C1024.87,-973.92 1094.82,-949.63 1158,-940 1253.34,-925.46 1279.22,-928.66 1375,-940 1421.05,-945.45 1472.41,-958.54 1508.26,-968.85"/>
<polygon fill="#4a6fa5" stroke="#4a6fa5" points="1507.97,-970.96 1514.32,-970.61 1509.15,-966.92 1507.97,-970.96"/>
</g>
<!-- Node0x5797c7df8630&#45;&gt;Node0x5797c7deded0 -->
<g id="edge33" class="edge">
<title>Node0x5797c7df8630&#45;&gt;Node0x5797c7deded0</title>
<path fill="none" stroke="#4a6fa5" d="M1031.58,-1009C1080.37,-1009 1139.24,-1009 1185.71,-1009"/>
<polygon fill="#4a6fa5" stroke="#4a6fa5" points="1185.89,-1011.1 1191.89,-1009 1185.89,-1006.9 1185.89,-1011.1"/>
</g>
<!-- Node0x5797c7df83b0 -->
<g id="node39" class="node">
<title>Node0x5797c7df83b0</title>
<path fill="#f0f4ff" stroke="black" d="M686,-152C686,-152 414,-152 414,-152 408,-152 402,-146 402,-140 402,-140 402,-128 402,-128 402,-122 408,-116 414,-116 414,-116 686,-116 686,-116 692,-116 698,-122 698,-128 698,-128 698,-140 698,-140 698,-146 692,-152 686,-152"/>
<text text-anchor="middle" x="550" y="-131.8" font-family="Courier,monospace" font-size="9.00">CIccStructMeasurementInfo::CIccStructMeasurementInfo()</text>
</g>
<!-- Node0x5797c7df83b0&#45;&gt;Node0x5797c7dcee80 -->
<g id="edge37" class="edge">
<title>Node0x5797c7df83b0&#45;&gt;Node0x5797c7dcee80</title>
<path fill="none" stroke="#4a6fa5" d="M698.09,-145.11C739.77,-148.26 784.44,-151.63 823.64,-154.59"/>
<polygon fill="#4a6fa5" stroke="#4a6fa5" points="823.74,-156.7 829.88,-155.06 824.05,-152.52 823.74,-156.7"/>
</g>
<!-- Node0x5797c7dfb3b0 -->
<g id="node40" class="node">
<title>Node0x5797c7dfb3b0</title>
<path fill="#f0f4ff" stroke="black" d="M688.5,-500C688.5,-500 411.5,-500 411.5,-500 405.5,-500 399.5,-494 399.5,-488 399.5,-488 399.5,-476 399.5,-476 399.5,-470 405.5,-464 411.5,-464 411.5,-464 688.5,-464 688.5,-464 694.5,-464 700.5,-470 700.5,-476 700.5,-476 700.5,-488 700.5,-488 700.5,-494 694.5,-500 688.5,-500"/>
<text text-anchor="middle" x="550" y="-479.8" font-family="Courier,monospace" font-size="9.00">CIccStructMeasurementInfo::~CIccStructMeasurementInfo()</text>
</g>
<!-- Node0x5797c7dfb3b0&#45;&gt;Node0x5797c7dbfa20 -->
<g id="edge38" class="edge">
<title>Node0x5797c7dfb3b0&#45;&gt;Node0x5797c7dbfa20</title>
<path fill="none" stroke="#4a6fa5" d="M700.56,-493.3C740.74,-496.33 783.53,-499.56 821.4,-502.42"/>
<polygon fill="#4a6fa5" stroke="#4a6fa5" points="821.3,-504.52 827.44,-502.88 821.62,-500.33 821.3,-504.52"/>
</g>
<!-- Node0x5797c7dfaeb0 -->
<g id="node41" class="node">
<title>Node0x5797c7dfaeb0</title>
<path fill="#f0f4ff" stroke="black" d="M302.5,-1225C302.5,-1225 25.5,-1225 25.5,-1225 19.5,-1225 13.5,-1219 13.5,-1213 13.5,-1213 13.5,-1201 13.5,-1201 13.5,-1195 19.5,-1189 25.5,-1189 25.5,-1189 302.5,-1189 302.5,-1189 308.5,-1189 314.5,-1195 314.5,-1201 314.5,-1201 314.5,-1213 314.5,-1213 314.5,-1219 308.5,-1225 302.5,-1225"/>
<text text-anchor="middle" x="164" y="-1204.8" font-family="Courier,monospace" font-size="9.00">CIccStructMeasurementInfo::~CIccStructMeasurementInfo()</text>
</g>
<!-- Node0x5797c7dfac30 -->
<g id="node42" class="node">
<title>Node0x5797c7dfac30</title>
<path fill="#f0f4ff" stroke="black" d="M253,-1283C253,-1283 75,-1283 75,-1283 69,-1283 63,-1277 63,-1271 63,-1271 63,-1259 63,-1259 63,-1253 69,-1247 75,-1247 75,-1247 253,-1247 253,-1247 259,-1247 265,-1253 265,-1259 265,-1259 265,-1271 265,-1271 265,-1277 259,-1283 253,-1283"/>
<text text-anchor="middle" x="164" y="-1262.8" font-family="Courier,monospace" font-size="9.00">CIccStructMeasurementInfo::NewCopy()</text>
</g>
<!-- Node0x5797c7dfa9b0 -->
<g id="node43" class="node">
<title>Node0x5797c7dfa9b0</title>
<path fill="#f0f4ff" stroke="black" d="M660,-94C660,-94 440,-94 440,-94 434,-94 428,-88 428,-82 428,-82 428,-70 428,-70 428,-64 434,-58 440,-58 440,-58 660,-58 660,-58 666,-58 672,-64 672,-70 672,-70 672,-82 672,-82 672,-88 666,-94 660,-94"/>
<text text-anchor="middle" x="550" y="-73.8" font-family="Courier,monospace" font-size="9.00">CIccStructNamedColor::CIccStructNamedColor()</text>
</g>
<!-- Node0x5797c7dfa9b0&#45;&gt;Node0x5797c7dcee80 -->
<g id="edge39" class="edge">
<title>Node0x5797c7dfa9b0&#45;&gt;Node0x5797c7dcee80</title>
<path fill="none" stroke="#4a6fa5" d="M659.52,-94.05C677.76,-97.44 696.45,-101.14 714,-105 765.06,-116.22 822.13,-131.26 865.48,-143.22"/>
<polygon fill="#4a6fa5" stroke="#4a6fa5" points="865.16,-145.31 871.5,-144.88 866.28,-141.26 865.16,-145.31"/>
</g>
<!-- Node0x5797c7dfa5f0 -->
<g id="node44" class="node">
<title>Node0x5797c7dfa5f0</title>
<path fill="#f0f4ff" stroke="black" d="M662.5,-442C662.5,-442 437.5,-442 437.5,-442 431.5,-442 425.5,-436 425.5,-430 425.5,-430 425.5,-418 425.5,-418 425.5,-412 431.5,-406 437.5,-406 437.5,-406 662.5,-406 662.5,-406 668.5,-406 674.5,-412 674.5,-418 674.5,-418 674.5,-430 674.5,-430 674.5,-436 668.5,-442 662.5,-442"/>
<text text-anchor="middle" x="550" y="-421.8" font-family="Courier,monospace" font-size="9.00">CIccStructNamedColor::~CIccStructNamedColor()</text>
</g>
<!-- Node0x5797c7dfa5f0&#45;&gt;Node0x5797c7dbfa20 -->
<g id="edge40" class="edge">
<title>Node0x5797c7dfa5f0&#45;&gt;Node0x5797c7dbfa20</title>
<path fill="none" stroke="#4a6fa5" d="M659.52,-442.05C677.76,-445.44 696.45,-449.14 714,-453 765.06,-464.22 822.13,-479.26 865.48,-491.22"/>
<polygon fill="#4a6fa5" stroke="#4a6fa5" points="865.16,-493.31 871.5,-492.88 866.28,-489.26 865.16,-493.31"/>
</g>
<!-- Node0x5797c7dfc3f0 -->
<g id="node45" class="node">
<title>Node0x5797c7dfc3f0</title>
<path fill="#f0f4ff" stroke="black" d="M276.5,-1341C276.5,-1341 51.5,-1341 51.5,-1341 45.5,-1341 39.5,-1335 39.5,-1329 39.5,-1329 39.5,-1317 39.5,-1317 39.5,-1311 45.5,-1305 51.5,-1305 51.5,-1305 276.5,-1305 276.5,-1305 282.5,-1305 288.5,-1311 288.5,-1317 288.5,-1317 288.5,-1329 288.5,-1329 288.5,-1335 282.5,-1341 276.5,-1341"/>
<text text-anchor="middle" x="164" y="-1320.8" font-family="Courier,monospace" font-size="9.00">CIccStructNamedColor::~CIccStructNamedColor()</text>
</g>
<!-- Node0x5797c7dfc2b0 -->
<g id="node46" class="node">
<title>Node0x5797c7dfc2b0</title>
<path fill="#f0f4ff" stroke="black" d="M239.5,-1399C239.5,-1399 88.5,-1399 88.5,-1399 82.5,-1399 76.5,-1393 76.5,-1387 76.5,-1387 76.5,-1375 76.5,-1375 76.5,-1369 82.5,-1363 88.5,-1363 88.5,-1363 239.5,-1363 239.5,-1363 245.5,-1363 251.5,-1369 251.5,-1375 251.5,-1375 251.5,-1387 251.5,-1387 251.5,-1393 245.5,-1399 239.5,-1399"/>
<text text-anchor="middle" x="164" y="-1378.8" font-family="Courier,monospace" font-size="9.00">CIccStructNamedColor::NewCopy()</text>
</g>
<!-- Node0x5797c7dfc170 -->
<g id="node47" class="node">
<title>Node0x5797c7dfc170</title>
<path fill="#f0f4ff" stroke="black" d="M1056.5,-819C1056.5,-819 815.5,-819 815.5,-819 809.5,-819 803.5,-813 803.5,-807 803.5,-807 803.5,-795 803.5,-795 803.5,-789 809.5,-783 815.5,-783 815.5,-783 1056.5,-783 1056.5,-783 1062.5,-783 1068.5,-789 1068.5,-795 1068.5,-795 1068.5,-807 1068.5,-807 1068.5,-813 1062.5,-819 1056.5,-819"/>
<text text-anchor="middle" x="936" y="-798.8" font-family="Courier,monospace" font-size="9.00">CIccStructNamedColor::getName[abi:cxx11]() const</text>
</g>
<!-- Node0x5797c7dfc170&#45;&gt;Node0x5797c7def820 -->
<g id="edge41" class="edge">
<title>Node0x5797c7dfc170&#45;&gt;Node0x5797c7def820</title>
<path fill="none" stroke="#4a6fa5" d="M1039.14,-819.03C1087.36,-827.55 1143.95,-837.54 1188.48,-845.4"/>
<polygon fill="#4a6fa5" stroke="#4a6fa5" points="1188.13,-847.47 1194.41,-846.45 1188.87,-843.34 1188.13,-847.47"/>
</g>
<!-- Node0x5797c7dfc030 -->
<g id="node48" class="node">
<title>Node0x5797c7dfc030</title>
<path fill="#f0f4ff" stroke="black" d="M1329,-819C1329,-819 1204,-819 1204,-819 1198,-819 1192,-813 1192,-807 1192,-807 1192,-795 1192,-795 1192,-789 1198,-783 1204,-783 1204,-783 1329,-783 1329,-783 1335,-783 1341,-789 1341,-795 1341,-795 1341,-807 1341,-807 1341,-813 1335,-819 1329,-819"/>
<text text-anchor="middle" x="1266.5" y="-798.8" font-family="Courier,monospace" font-size="9.00">CIccTagUtf8Text::GetText()</text>
</g>
<!-- Node0x5797c7dfc170&#45;&gt;Node0x5797c7dfc030 -->
<g id="edge42" class="edge">
<title>Node0x5797c7dfc170&#45;&gt;Node0x5797c7dfc030</title>
<path fill="none" stroke="#4a6fa5" d="M1068.72,-801C1108.37,-801 1150.66,-801 1185.83,-801"/>
<polygon fill="#4a6fa5" stroke="#4a6fa5" points="1185.86,-803.1 1191.86,-801 1185.86,-798.9 1185.86,-803.1"/>
</g>
<!-- Node0x5797c7dfbdb0 -->
<g id="node49" class="node">
<title>Node0x5797c7dfbdb0</title>
<path fill="#f0f4ff" stroke="black" d="M636,-877C636,-877 464,-877 464,-877 458,-877 452,-871 452,-865 452,-865 452,-853 452,-853 452,-847 458,-841 464,-841 464,-841 636,-841 636,-841 642,-841 648,-847 648,-853 648,-853 648,-865 648,-865 648,-871 642,-877 636,-877"/>
<text text-anchor="middle" x="550" y="-856.8" font-family="Courier,monospace" font-size="9.00">CIccStructNamedColor::GetNumArray()</text>
</g>
<!-- Node0x5797c7dfbdb0&#45;&gt;Node0x5797c7ded900 -->
<g id="edge43" class="edge">
<title>Node0x5797c7dfbdb0&#45;&gt;Node0x5797c7ded900</title>
<path fill="none" stroke="#4a6fa5" d="M648.4,-859C710.48,-859 790.15,-859 849.73,-859"/>
<polygon fill="#4a6fa5" stroke="#4a6fa5" points="849.8,-861.1 855.8,-859 849.8,-856.9 849.8,-861.1"/>
</g>
<!-- Node0x5797c7dfbc70 -->
<g id="node50" class="node">
<title>Node0x5797c7dfbc70</title>
<path fill="#f0f4ff" stroke="black" d="M239.5,-877C239.5,-877 88.5,-877 88.5,-877 82.5,-877 76.5,-871 76.5,-865 76.5,-865 76.5,-853 76.5,-853 76.5,-847 82.5,-841 88.5,-841 88.5,-841 239.5,-841 239.5,-841 245.5,-841 251.5,-847 251.5,-853 251.5,-853 251.5,-865 251.5,-865 251.5,-871 245.5,-877 239.5,-877"/>
<text text-anchor="middle" x="164" y="-856.8" font-family="Courier,monospace" font-size="9.00">CIccStructNamedColor::GetTint()</text>
</g>
<!-- Node0x5797c7dfbc70&#45;&gt;Node0x5797c7dfbdb0 -->
<g id="edge44" class="edge">
<title>Node0x5797c7dfbc70&#45;&gt;Node0x5797c7dfbdb0</title>
<path fill="none" stroke="#4a6fa5" d="M251.66,-859C309.18,-859 384.99,-859 445.66,-859"/>
<polygon fill="#4a6fa5" stroke="#4a6fa5" points="445.85,-861.1 451.85,-859 445.85,-856.9 445.85,-861.1"/>
</g>
<!-- Node0x5797c7dfcdf0 -->
<g id="node51" class="node">
<title>Node0x5797c7dfcdf0</title>
<path fill="#f0f4ff" stroke="black" d="M1014.5,-1085C1014.5,-1085 857.5,-1085 857.5,-1085 851.5,-1085 845.5,-1079 845.5,-1073 845.5,-1073 845.5,-1061 845.5,-1061 845.5,-1055 851.5,-1049 857.5,-1049 857.5,-1049 1014.5,-1049 1014.5,-1049 1020.5,-1049 1026.5,-1055 1026.5,-1061 1026.5,-1061 1026.5,-1073 1026.5,-1073 1026.5,-1079 1020.5,-1085 1014.5,-1085"/>
<text text-anchor="middle" x="936" y="-1064.8" font-family="Courier,monospace" font-size="9.00">CIccStructNamedColor::Validate()</text>
</g>
<!-- Node0x5797c7dfcdf0&#45;&gt;Node0x5797c7cbbdd0 -->
<g id="edge46" class="edge">
<title>Node0x5797c7dfcdf0&#45;&gt;Node0x5797c7cbbdd0</title>
<path fill="none" stroke="#4a6fa5" d="M1026.76,-1082.85C1082.08,-1092.61 1151.68,-1104.9 1201.44,-1113.69"/>
<polygon fill="#4a6fa5" stroke="#4a6fa5" points="1201.14,-1115.77 1207.41,-1114.74 1201.87,-1111.63 1201.14,-1115.77"/>
</g>
<!-- Node0x5797c7dfcdf0&#45;&gt;Node0x5797c7dba100 -->
<g id="edge50" class="edge">
<title>Node0x5797c7dfcdf0&#45;&gt;Node0x5797c7dba100</title>
<path fill="none" stroke="#4a6fa5" d="M1026.91,-1073.04C1051.6,-1077.3 1077.7,-1084.37 1100,-1096 1132.32,-1112.86 1126.44,-1135.75 1158,-1154 1170.44,-1161.2 1184.73,-1166.66 1198.74,-1170.79"/>
<polygon fill="#4a6fa5" stroke="#4a6fa5" points="1198.38,-1172.87 1204.72,-1172.48 1199.52,-1168.83 1198.38,-1172.87"/>
</g>
<!-- Node0x5797c7dfcdf0&#45;&gt;Node0x5797c7def820 -->
<g id="edge45" class="edge">
<title>Node0x5797c7dfcdf0&#45;&gt;Node0x5797c7def820</title>
<path fill="none" stroke="#4a6fa5" d="M1026.91,-1064.83C1052.28,-1060.7 1078.74,-1052.74 1100,-1038 1141.59,-1009.16 1124.26,-977.72 1158,-940 1178.91,-916.62 1207.45,-895.49 1229.87,-880.67"/>
<polygon fill="#4a6fa5" stroke="#4a6fa5" points="1231.26,-882.27 1235.14,-877.23 1228.96,-878.76 1231.26,-882.27"/>
</g>
<!-- Node0x5797c7dfcdf0&#45;&gt;Node0x5797c7def5a0 -->
<g id="edge49" class="edge">
<title>Node0x5797c7dfcdf0&#45;&gt;Node0x5797c7def5a0</title>
<path fill="none" stroke="#4a6fa5" d="M1026.76,-1067C1073.76,-1067 1131.08,-1067 1177.77,-1067"/>
<polygon fill="#4a6fa5" stroke="#4a6fa5" points="1177.99,-1069.1 1183.99,-1067 1177.99,-1064.9 1177.99,-1069.1"/>
</g>
<!-- Node0x5797c7dfcdf0&#45;&gt;Node0x5797c7df04a0 -->
<g id="edge48" class="edge">
<title>Node0x5797c7dfcdf0&#45;&gt;Node0x5797c7df04a0</title>
<path fill="none" stroke="#4a6fa5" d="M1026.91,-1060.96C1051.6,-1056.7 1077.7,-1049.63 1100,-1038 1132.32,-1021.14 1124.32,-993.95 1158,-980 1247.1,-943.09 1278.56,-979.19 1375,-980 1420.25,-980.38 1471.92,-981.3 1508.07,-982.02"/>
<polygon fill="#4a6fa5" stroke="#4a6fa5" points="1508.15,-984.12 1514.19,-982.14 1508.23,-979.92 1508.15,-984.12"/>
</g>
<!-- Node0x5797c7dfcdf0&#45;&gt;Node0x5797c7deded0 -->
<g id="edge47" class="edge">
<title>Node0x5797c7dfcdf0&#45;&gt;Node0x5797c7deded0</title>
<path fill="none" stroke="#4a6fa5" d="M1026.76,-1051.15C1076.5,-1042.37 1137.79,-1031.55 1185.82,-1023.07"/>
<polygon fill="#4a6fa5" stroke="#4a6fa5" points="1186.36,-1025.11 1191.91,-1021.99 1185.63,-1020.97 1186.36,-1025.11"/>
</g>
<!-- Node0x5797c7dfd570 -->
<g id="node52" class="node">
<title>Node0x5797c7dfd570</title>
<path fill="#f0f4ff" stroke="black" d="M665,-36C665,-36 435,-36 435,-36 429,-36 423,-30 423,-24 423,-24 423,-12 423,-12 423,-6 429,0 435,0 435,0 665,0 665,0 671,0 677,-6 677,-12 677,-12 677,-24 677,-24 677,-30 671,-36 665,-36"/>
<text text-anchor="middle" x="550" y="-15.8" font-family="Courier,monospace" font-size="9.00">CIccStructProfileInfo::CIccStructProfileInfo()</text>
</g>
<!-- Node0x5797c7dfd570&#45;&gt;Node0x5797c7dcee80 -->
<g id="edge51" class="edge">
<title>Node0x5797c7dfd570&#45;&gt;Node0x5797c7dcee80</title>
<path fill="none" stroke="#4a6fa5" d="M675.72,-36.09C688.79,-39.2 701.76,-42.81 714,-47 784.57,-71.15 860.16,-115.27 902.11,-141.59"/>
<polygon fill="#4a6fa5" stroke="#4a6fa5" points="901.11,-143.44 907.3,-144.86 903.35,-139.88 901.11,-143.44"/>
</g>
<!-- Node0x5797c7deb7e0 -->
<g id="node53" class="node">
<title>Node0x5797c7deb7e0</title>
<path fill="#f0f4ff" stroke="black" d="M667.5,-384C667.5,-384 432.5,-384 432.5,-384 426.5,-384 420.5,-378 420.5,-372 420.5,-372 420.5,-360 420.5,-360 420.5,-354 426.5,-348 432.5,-348 432.5,-348 667.5,-348 667.5,-348 673.5,-348 679.5,-354 679.5,-360 679.5,-360 679.5,-372 679.5,-372 679.5,-378 673.5,-384 667.5,-384"/>
<text text-anchor="middle" x="550" y="-363.8" font-family="Courier,monospace" font-size="9.00">CIccStructProfileInfo::~CIccStructProfileInfo()</text>
</g>
<!-- Node0x5797c7deb7e0&#45;&gt;Node0x5797c7dbfa20 -->
<g id="edge52" class="edge">
<title>Node0x5797c7deb7e0&#45;&gt;Node0x5797c7dbfa20</title>
<path fill="none" stroke="#4a6fa5" d="M675.72,-384.09C688.79,-387.2 701.76,-390.81 714,-395 784.57,-419.15 860.16,-463.27 902.11,-489.59"/>
<polygon fill="#4a6fa5" stroke="#4a6fa5" points="901.11,-491.44 907.3,-492.86 903.35,-487.88 901.11,-491.44"/>
</g>
<!-- Node0x5797c7dfda70 -->
<g id="node54" class="node">
<title>Node0x5797c7dfda70</title>
<path fill="#f0f4ff" stroke="black" d="M281.5,-1457C281.5,-1457 46.5,-1457 46.5,-1457 40.5,-1457 34.5,-1451 34.5,-1445 34.5,-1445 34.5,-1433 34.5,-1433 34.5,-1427 40.5,-1421 46.5,-1421 46.5,-1421 281.5,-1421 281.5,-1421 287.5,-1421 293.5,-1427 293.5,-1433 293.5,-1433 293.5,-1445 293.5,-1445 293.5,-1451 287.5,-1457 281.5,-1457"/>
<text text-anchor="middle" x="164" y="-1436.8" font-family="Courier,monospace" font-size="9.00">CIccStructProfileInfo::~CIccStructProfileInfo()</text>
</g>
<!-- Node0x5797c7dfd930 -->
<g id="node55" class="node">
<title>Node0x5797c7dfd930</title>
<path fill="#f0f4ff" stroke="black" d="M242.5,-1515C242.5,-1515 85.5,-1515 85.5,-1515 79.5,-1515 73.5,-1509 73.5,-1503 73.5,-1503 73.5,-1491 73.5,-1491 73.5,-1485 79.5,-1479 85.5,-1479 85.5,-1479 242.5,-1479 242.5,-1479 248.5,-1479 254.5,-1485 254.5,-1491 254.5,-1491 254.5,-1503 254.5,-1503 254.5,-1509 248.5,-1515 242.5,-1515"/>
<text text-anchor="middle" x="164" y="-1494.8" font-family="Courier,monospace" font-size="9.00">CIccStructProfileInfo::NewCopy()</text>
</g>
<!-- Node0x5797c7dfd7f0 -->
<g id="node56" class="node">
<title>Node0x5797c7dfd7f0</title>
<path fill="#f0f4ff" stroke="black" d="M263.5,-94C263.5,-94 64.5,-94 64.5,-94 58.5,-94 52.5,-88 52.5,-82 52.5,-82 52.5,-70 52.5,-70 52.5,-64 58.5,-58 64.5,-58 64.5,-58 263.5,-58 263.5,-58 269.5,-58 275.5,-64 275.5,-70 275.5,-70 275.5,-82 275.5,-82 275.5,-88 269.5,-94 263.5,-94"/>
<text text-anchor="middle" x="164" y="-73.8" font-family="Courier,monospace" font-size="9.00">CIccStructTintZero::CIccStructTintZero()</text>
</g>
<!-- Node0x5797c7dfd7f0&#45;&gt;Node0x5797c7dfa9b0 -->
<g id="edge53" class="edge">
<title>Node0x5797c7dfd7f0&#45;&gt;Node0x5797c7dfa9b0</title>
<path fill="none" stroke="#4a6fa5" d="M275.55,-76C321.24,-76 374.47,-76 421.76,-76"/>
<polygon fill="#4a6fa5" stroke="#4a6fa5" points="421.8,-78.1 427.8,-76 421.8,-73.9 421.8,-78.1"/>
</g>
<!-- Node0x5797c7e06620 -->
<g id="node57" class="node">
<title>Node0x5797c7e06620</title>
<path fill="#f0f4ff" stroke="black" d="M266,-442C266,-442 62,-442 62,-442 56,-442 50,-436 50,-430 50,-430 50,-418 50,-418 50,-412 56,-406 62,-406 62,-406 266,-406 266,-406 272,-406 278,-412 278,-418 278,-418 278,-430 278,-430 278,-436 272,-442 266,-442"/>
<text text-anchor="middle" x="164" y="-421.8" font-family="Courier,monospace" font-size="9.00">CIccStructTintZero::~CIccStructTintZero()</text>
</g>
<!-- Node0x5797c7e06620&#45;&gt;Node0x5797c7dfa5f0 -->
<g id="edge54" class="edge">
<title>Node0x5797c7e06620&#45;&gt;Node0x5797c7dfa5f0</title>
<path fill="none" stroke="#4a6fa5" d="M278.14,-424C322.39,-424 373.4,-424 419.14,-424"/>
<polygon fill="#4a6fa5" stroke="#4a6fa5" points="419.27,-426.1 425.27,-424 419.27,-421.9 419.27,-426.1"/>
</g>
<!-- Node0x5797c7e0b7c0 -->
<g id="node58" class="node">
<title>Node0x5797c7e0b7c0</title>
<path fill="#f0f4ff" stroke="black" d="M266,-1573C266,-1573 62,-1573 62,-1573 56,-1573 50,-1567 50,-1561 50,-1561 50,-1549 50,-1549 50,-1543 56,-1537 62,-1537 62,-1537 266,-1537 266,-1537 272,-1537 278,-1543 278,-1549 278,-1549 278,-1561 278,-1561 278,-1567 272,-1573 266,-1573"/>
<text text-anchor="middle" x="164" y="-1552.8" font-family="Courier,monospace" font-size="9.00">CIccStructTintZero::~CIccStructTintZero()</text>
</g>
<!-- Node0x5797c7e0b100 -->
<g id="node59" class="node">
<title>Node0x5797c7e0b100</title>
<path fill="#f0f4ff" stroke="black" d="M234.5,-1631C234.5,-1631 93.5,-1631 93.5,-1631 87.5,-1631 81.5,-1625 81.5,-1619 81.5,-1619 81.5,-1607 81.5,-1607 81.5,-1601 87.5,-1595 93.5,-1595 93.5,-1595 234.5,-1595 234.5,-1595 240.5,-1595 246.5,-1601 246.5,-1607 246.5,-1607 246.5,-1619 246.5,-1619 246.5,-1625 240.5,-1631 234.5,-1631"/>
<text text-anchor="middle" x="164" y="-1610.8" font-family="Courier,monospace" font-size="9.00">CIccStructTintZero::NewCopy()</text>
</g>
<!-- Node0x5797c7e0afc0 -->
<g id="node60" class="node">
<title>Node0x5797c7e0afc0</title>
<path fill="#f0f4ff" stroke="black" d="M245,-1689C245,-1689 83,-1689 83,-1689 77,-1689 71,-1683 71,-1677 71,-1677 71,-1665 71,-1665 71,-1659 77,-1653 83,-1653 83,-1653 245,-1653 245,-1653 251,-1653 257,-1659 257,-1665 257,-1665 257,-1677 257,-1677 257,-1683 251,-1689 245,-1689"/>
<text text-anchor="middle" x="164" y="-1668.8" font-family="Courier,monospace" font-size="9.00">CIccStructUnknown::GetClassName()</text>
</g>
<!-- Node0x5797c7dfdb30 -->
<g id="node61" class="node">
<title>Node0x5797c7dfdb30</title>
<path fill="#f0f4ff" stroke="black" d="M250,-1747C250,-1747 78,-1747 78,-1747 72,-1747 66,-1741 66,-1735 66,-1735 66,-1723 66,-1723 66,-1717 72,-1711 78,-1711 78,-1711 250,-1711 250,-1711 256,-1711 262,-1717 262,-1723 262,-1723 262,-1735 262,-1735 262,-1741 256,-1747 250,-1747"/>
<text text-anchor="middle" x="164" y="-1726.8" font-family="Courier,monospace" font-size="9.00">CIccStructUnknown::GetDisplayName()</text>
</g>
<!-- Node0x5797c7dfd770 -->
<g id="node62" class="node">
<title>Node0x5797c7dfd770</title>
<path fill="#f0f4ff" stroke="black" d="M237,-1805C237,-1805 91,-1805 91,-1805 85,-1805 79,-1799 79,-1793 79,-1793 79,-1781 79,-1781 79,-1775 85,-1769 91,-1769 91,-1769 237,-1769 237,-1769 243,-1769 249,-1775 249,-1781 249,-1781 249,-1793 249,-1793 249,-1799 243,-1805 237,-1805"/>
<text text-anchor="middle" x="164" y="-1784.8" font-family="Courier,monospace" font-size="9.00">CIccStructBRDF::GetClassName()</text>
</g>
<!-- Node0x5797c7e0f4a0 -->
<g id="node63" class="node">
<title>Node0x5797c7e0f4a0</title>
<path fill="#f0f4ff" stroke="black" d="M242.5,-1863C242.5,-1863 85.5,-1863 85.5,-1863 79.5,-1863 73.5,-1857 73.5,-1851 73.5,-1851 73.5,-1839 73.5,-1839 73.5,-1833 79.5,-1827 85.5,-1827 85.5,-1827 242.5,-1827 242.5,-1827 248.5,-1827 254.5,-1833 254.5,-1839 254.5,-1839 254.5,-1851 254.5,-1851 254.5,-1857 248.5,-1863 242.5,-1863"/>
<text text-anchor="middle" x="164" y="-1842.8" font-family="Courier,monospace" font-size="9.00">CIccStructBRDF::GetDisplayName()</text>
</g>
<!-- Node0x5797c7e0df30 -->
<g id="node64" class="node">
<title>Node0x5797c7e0df30</title>
<path fill="#f0f4ff" stroke="black" d="M276.5,-1921C276.5,-1921 51.5,-1921 51.5,-1921 45.5,-1921 39.5,-1915 39.5,-1909 39.5,-1909 39.5,-1897 39.5,-1897 39.5,-1891 45.5,-1885 51.5,-1885 51.5,-1885 276.5,-1885 276.5,-1885 282.5,-1885 288.5,-1891 288.5,-1897 288.5,-1897 288.5,-1909 288.5,-1909 288.5,-1915 282.5,-1921 276.5,-1921"/>
<text text-anchor="middle" x="164" y="-1900.8" font-family="Courier,monospace" font-size="9.00">CIccStructColorEncodingParams::GetClassName()</text>
</g>
<!-- Node0x5797c7e0dc80 -->
<g id="node65" class="node">
<title>Node0x5797c7e0dc80</title>
<path fill="#f0f4ff" stroke="black" d="M281.5,-1979C281.5,-1979 46.5,-1979 46.5,-1979 40.5,-1979 34.5,-1973 34.5,-1967 34.5,-1967 34.5,-1955 34.5,-1955 34.5,-1949 40.5,-1943 46.5,-1943 46.5,-1943 281.5,-1943 281.5,-1943 287.5,-1943 293.5,-1949 293.5,-1955 293.5,-1955 293.5,-1967 293.5,-1967 293.5,-1973 287.5,-1979 281.5,-1979"/>
<text text-anchor="middle" x="164" y="-1958.8" font-family="Courier,monospace" font-size="9.00">CIccStructColorEncodingParams::GetDisplayName()</text>
</g>
<!-- Node0x5797c7e0cca0 -->
<g id="node66" class="node">
<title>Node0x5797c7e0cca0</title>
<path fill="#f0f4ff" stroke="black" d="M258,-2037C258,-2037 70,-2037 70,-2037 64,-2037 58,-2031 58,-2025 58,-2025 58,-2013 58,-2013 58,-2007 64,-2001 70,-2001 70,-2001 258,-2001 258,-2001 264,-2001 270,-2007 270,-2013 270,-2013 270,-2025 270,-2025 270,-2031 264,-2037 258,-2037"/>
<text text-anchor="middle" x="164" y="-2016.8" font-family="Courier,monospace" font-size="9.00">CIccStructColorantInfo::GetClassName()</text>
</g>
<!-- Node0x5797c7dfd270 -->
<g id="node67" class="node">
<title>Node0x5797c7dfd270</title>
<path fill="#f0f4ff" stroke="black" d="M263.5,-2095C263.5,-2095 64.5,-2095 64.5,-2095 58.5,-2095 52.5,-2089 52.5,-2083 52.5,-2083 52.5,-2071 52.5,-2071 52.5,-2065 58.5,-2059 64.5,-2059 64.5,-2059 263.5,-2059 263.5,-2059 269.5,-2059 275.5,-2065 275.5,-2071 275.5,-2071 275.5,-2083 275.5,-2083 275.5,-2089 269.5,-2095 263.5,-2095"/>
<text text-anchor="middle" x="164" y="-2074.8" font-family="Courier,monospace" font-size="9.00">CIccStructColorantInfo::GetDisplayName()</text>
</g>
<!-- Node0x5797c7dfc4b0 -->
<g id="node68" class="node">
<title>Node0x5797c7dfc4b0</title>
<path fill="#f0f4ff" stroke="black" d="M266,-2153C266,-2153 62,-2153 62,-2153 56,-2153 50,-2147 50,-2141 50,-2141 50,-2129 50,-2129 50,-2123 56,-2117 62,-2117 62,-2117 266,-2117 266,-2117 272,-2117 278,-2123 278,-2129 278,-2129 278,-2141 278,-2141 278,-2147 272,-2153 266,-2153"/>
<text text-anchor="middle" x="164" y="-2132.8" font-family="Courier,monospace" font-size="9.00">CIccStructMeasurementInfo::GetClassName()</text>
</g>
<!-- Node0x5797c7e0d760 -->
<g id="node69" class="node">
<title>Node0x5797c7e0d760</title>
<path fill="#f0f4ff" stroke="black" d="M271,-2211C271,-2211 57,-2211 57,-2211 51,-2211 45,-2205 45,-2199 45,-2199 45,-2187 45,-2187 45,-2181 51,-2175 57,-2175 57,-2175 271,-2175 271,-2175 277,-2175 283,-2181 283,-2187 283,-2187 283,-2199 283,-2199 283,-2205 277,-2211 271,-2211"/>
<text text-anchor="middle" x="164" y="-2190.8" font-family="Courier,monospace" font-size="9.00">CIccStructMeasurementInfo::GetDisplayName()</text>
</g>
<!-- Node0x5797c7dfcc30 -->
<g id="node70" class="node">
<title>Node0x5797c7dfcc30</title>
<path fill="#f0f4ff" stroke="black" d="M253,-2269C253,-2269 75,-2269 75,-2269 69,-2269 63,-2263 63,-2257 63,-2257 63,-2245 63,-2245 63,-2239 69,-2233 75,-2233 75,-2233 253,-2233 253,-2233 259,-2233 265,-2239 265,-2245 265,-2245 265,-2257 265,-2257 265,-2263 259,-2269 253,-2269"/>
<text text-anchor="middle" x="164" y="-2248.8" font-family="Courier,monospace" font-size="9.00">CIccStructNamedColor::GetClassName()</text>
</g>
<!-- Node0x5797c7dfb970 -->
<g id="node71" class="node">
<title>Node0x5797c7dfb970</title>
<path fill="#f0f4ff" stroke="black" d="M258,-2327C258,-2327 70,-2327 70,-2327 64,-2327 58,-2321 58,-2315 58,-2315 58,-2303 58,-2303 58,-2297 64,-2291 70,-2291 70,-2291 258,-2291 258,-2291 264,-2291 270,-2297 270,-2303 270,-2303 270,-2315 270,-2315 270,-2321 264,-2327 258,-2327"/>
<text text-anchor="middle" x="164" y="-2306.8" font-family="Courier,monospace" font-size="9.00">CIccStructNamedColor::GetDisplayName()</text>
</g>
<!-- Node0x5797c7dfc370 -->
<g id="node72" class="node">
<title>Node0x5797c7dfc370</title>
<path fill="#f0f4ff" stroke="black" d="M255.5,-2385C255.5,-2385 72.5,-2385 72.5,-2385 66.5,-2385 60.5,-2379 60.5,-2373 60.5,-2373 60.5,-2361 60.5,-2361 60.5,-2355 66.5,-2349 72.5,-2349 72.5,-2349 255.5,-2349 255.5,-2349 261.5,-2349 267.5,-2355 267.5,-2361 267.5,-2361 267.5,-2373 267.5,-2373 267.5,-2379 261.5,-2385 255.5,-2385"/>
<text text-anchor="middle" x="164" y="-2364.8" font-family="Courier,monospace" font-size="9.00">CIccStructProfileInfo::GetClassName()</text>
</g>
<!-- Node0x5797c7dfc730 -->
<g id="node73" class="node">
<title>Node0x5797c7dfc730</title>
<path fill="#f0f4ff" stroke="black" d="M260.5,-2443C260.5,-2443 67.5,-2443 67.5,-2443 61.5,-2443 55.5,-2437 55.5,-2431 55.5,-2431 55.5,-2419 55.5,-2419 55.5,-2413 61.5,-2407 67.5,-2407 67.5,-2407 260.5,-2407 260.5,-2407 266.5,-2407 272.5,-2413 272.5,-2419 272.5,-2419 272.5,-2431 272.5,-2431 272.5,-2437 266.5,-2443 260.5,-2443"/>
<text text-anchor="middle" x="164" y="-2422.8" font-family="Courier,monospace" font-size="9.00">CIccStructProfileInfo::GetDisplayName()</text>
</g>
<!-- Node0x5797c7e16150 -->
<g id="node74" class="node">
<title>Node0x5797c7e16150</title>
<path fill="#f0f4ff" stroke="black" d="M247.5,-2501C247.5,-2501 80.5,-2501 80.5,-2501 74.5,-2501 68.5,-2495 68.5,-2489 68.5,-2489 68.5,-2477 68.5,-2477 68.5,-2471 74.5,-2465 80.5,-2465 80.5,-2465 247.5,-2465 247.5,-2465 253.5,-2465 259.5,-2471 259.5,-2477 259.5,-2477 259.5,-2489 259.5,-2489 259.5,-2495 253.5,-2501 247.5,-2501"/>
<text text-anchor="middle" x="164" y="-2480.8" font-family="Courier,monospace" font-size="9.00">CIccStructTintZero::GetClassName()</text>
</g>
<!-- Node0x5797c7e167c0 -->
<g id="node75" class="node">
<title>Node0x5797c7e167c0</title>
<path fill="#f0f4ff" stroke="black" d="M253,-2559C253,-2559 75,-2559 75,-2559 69,-2559 63,-2553 63,-2547 63,-2547 63,-2535 63,-2535 63,-2529 69,-2523 75,-2523 75,-2523 253,-2523 253,-2523 259,-2523 265,-2529 265,-2535 265,-2535 265,-2547 265,-2547 265,-2553 259,-2559 253,-2559"/>
<text text-anchor="middle" x="164" y="-2538.8" font-family="Courier,monospace" font-size="9.00">CIccStructTintZero::GetDisplayName()</text>
</g>
<!-- Node0x5797c7dea970 -->
<g id="node76" class="node">
<title>Node0x5797c7dea970</title>
<path fill="#f0f4ff" stroke="black" d="M179.5,-2617C179.5,-2617 148.5,-2617 148.5,-2617 142.5,-2617 136.5,-2611 136.5,-2605 136.5,-2605 136.5,-2593 136.5,-2593 136.5,-2587 142.5,-2581 148.5,-2581 148.5,-2581 179.5,-2581 179.5,-2581 185.5,-2581 191.5,-2587 191.5,-2593 191.5,-2593 191.5,-2605 191.5,-2605 191.5,-2611 185.5,-2617 179.5,-2617"/>
<text text-anchor="middle" x="164" y="-2596.8" font-family="Courier,monospace" font-size="9.00">length()</text>
</g>
<!-- Node0x5797c7e1c810 -->
<g id="node77" class="node">
<title>Node0x5797c7e1c810</title>
<path fill="#f0f4ff" stroke="black" d="M200.5,-2675C200.5,-2675 127.5,-2675 127.5,-2675 121.5,-2675 115.5,-2669 115.5,-2663 115.5,-2663 115.5,-2651 115.5,-2651 115.5,-2645 121.5,-2639 127.5,-2639 127.5,-2639 200.5,-2639 200.5,-2639 206.5,-2639 212.5,-2645 212.5,-2651 212.5,-2651 212.5,-2663 212.5,-2663 212.5,-2669 206.5,-2675 200.5,-2675"/>
<text text-anchor="middle" x="164" y="-2654.8" font-family="Courier,monospace" font-size="9.00">_Guard::_Guard()</text>
</g>
<!-- Node0x5797c7dfb5b0 -->
<g id="node78" class="node">
<title>Node0x5797c7dfb5b0</title>
<path fill="#f0f4ff" stroke="black" d="M203,-2733C203,-2733 125,-2733 125,-2733 119,-2733 113,-2727 113,-2721 113,-2721 113,-2709 113,-2709 113,-2703 119,-2697 125,-2697 125,-2697 203,-2697 203,-2697 209,-2697 215,-2703 215,-2709 215,-2709 215,-2721 215,-2721 215,-2727 209,-2733 203,-2733"/>
<text text-anchor="middle" x="164" y="-2712.8" font-family="Courier,monospace" font-size="9.00">_Guard::~_Guard()</text>
</g>
</g>
</svg>
