<?xml version="1.0" encoding="UTF-8" standalone="no"?>
<!DOCTYPE svg PUBLIC "-//W3C//DTD SVG 1.1//EN"
 "http://www.w3.org/Graphics/SVG/1.1/DTD/svg11.dtd">
<!-- Generated by graphviz version 2.43.0 (0)
 -->
<!-- Title: Call graph: /home/h02332/po/research/call&#45;graph/iccdev/proflib/IccStructFactory.ll Pages: 1 -->
<svg width="974pt" height="1761pt"
 viewBox="0.00 0.00 974.20 1761.20" xmlns="http://www.w3.org/2000/svg" xmlns:xlink="http://www.w3.org/1999/xlink">
<g id="graph0" class="graph" transform="scale(1 1) rotate(0) translate(21.6 1739.6)">
<title>Call graph: /home/h02332/po/research/call&#45;graph/iccdev/proflib/IccStructFactory.ll</title>
<polygon fill="white" stroke="transparent" points="-21.6,21.6 -21.6,-1739.6 952.6,-1739.6 952.6,21.6 -21.6,21.6"/>
<!-- Node0x638d3bc3f460 -->
<g id="node1" class="node">
<title>Node0x638d3bc3f460</title>
<path fill="#f0f4ff" stroke="black" d="M229,-239C229,-239 41,-239 41,-239 35,-239 29,-233 29,-227 29,-227 29,-215 29,-215 29,-209 35,-203 41,-203 41,-203 229,-203 229,-203 235,-203 241,-209 241,-215 241,-215 241,-227 241,-227 241,-233 235,-239 229,-239"/>
<text text-anchor="middle" x="135" y="-218.8" font-family="Courier,monospace" font-size="9.00">CIccBasicStructFactory::CreateStruct()</text>
</g>
<!-- Node0x638d3bc48050 -->
<g id="node2" class="node">
<title>Node0x638d3bc48050</title>
<path fill="#f0f4ff" stroke="black" d="M570.5,-442C570.5,-442 413.5,-442 413.5,-442 407.5,-442 401.5,-436 401.5,-430 401.5,-430 401.5,-418 401.5,-418 401.5,-412 407.5,-406 413.5,-406 413.5,-406 570.5,-406 570.5,-406 576.5,-406 582.5,-412 582.5,-418 582.5,-418 582.5,-430 582.5,-430 582.5,-436 576.5,-442 570.5,-442"/>
<text text-anchor="middle" x="492" y="-421.8" font-family="Courier,monospace" font-size="9.00">CIccStructBRDF::CIccStructBRDF()</text>
</g>
<!-- Node0x638d3bc3f460&#45;&gt;Node0x638d3bc48050 -->
<g id="edge1" class="edge">
<title>Node0x638d3bc3f460&#45;&gt;Node0x638d3bc48050</title>
<path fill="none" stroke="#4a6fa5" d="M149.87,-239.07C178.71,-275.21 249.05,-356.26 328,-395 348.73,-405.17 372.49,-411.81 395.35,-416.14"/>
<polygon fill="#4a6fa5" stroke="#4a6fa5" points="395.18,-418.24 401.46,-417.25 395.93,-414.11 395.18,-418.24"/>
</g>
<!-- Node0x638d3bb9fe90 -->
<g id="node3" class="node">
<title>Node0x638d3bb9fe90</title>
<path fill="#f0f4ff" stroke="black" d="M586,-384C586,-384 398,-384 398,-384 392,-384 386,-378 386,-372 386,-372 386,-360 386,-360 386,-354 392,-348 398,-348 398,-348 586,-348 586,-348 592,-348 598,-354 598,-360 598,-360 598,-372 598,-372 598,-378 592,-384 586,-384"/>
<text text-anchor="middle" x="492" y="-363.8" font-family="Courier,monospace" font-size="9.00">CIccStructUnknown::CIccStructUnknown()</text>
</g>
<!-- Node0x638d3bc3f460&#45;&gt;Node0x638d3bb9fe90 -->
<g id="edge2" class="edge">
<title>Node0x638d3bc3f460&#45;&gt;Node0x638d3bb9fe90</title>
<path fill="none" stroke="#4a6fa5" d="M159.37,-239.08C194.12,-265 262.39,-312.32 328,-337 344.44,-343.18 362.31,-348.07 380,-351.92"/>
<polygon fill="#4a6fa5" stroke="#4a6fa5" points="379.69,-354 385.99,-353.18 380.56,-349.89 379.69,-354"/>
</g>
<!-- Node0x638d3bb8ebc0 -->
<g id="node4" class="node">
<title>Node0x638d3bb8ebc0</title>
<path fill="#f0f4ff" stroke="black" d="M612.5,-326C612.5,-326 371.5,-326 371.5,-326 365.5,-326 359.5,-320 359.5,-314 359.5,-314 359.5,-302 359.5,-302 359.5,-296 365.5,-290 371.5,-290 371.5,-290 612.5,-290 612.5,-290 618.5,-290 624.5,-296 624.5,-302 624.5,-302 624.5,-314 624.5,-314 624.5,-320 618.5,-326 612.5,-326"/>
<text text-anchor="middle" x="492" y="-305.8" font-family="Courier,monospace" font-size="9.00">CIccStructColorantInfo::CIccStructColorantInfo()</text>
</g>
<!-- Node0x638d3bc3f460&#45;&gt;Node0x638d3bb8ebc0 -->
<g id="edge3" class="edge">
<title>Node0x638d3bc3f460&#45;&gt;Node0x638d3bb8ebc0</title>
<path fill="none" stroke="#4a6fa5" d="M189.75,-239.08C227.99,-251.5 280.76,-267.7 328,-279 342.56,-282.48 357.94,-285.75 373.21,-288.74"/>
<polygon fill="#4a6fa5" stroke="#4a6fa5" points="372.99,-290.84 379.28,-289.92 373.79,-286.71 372.99,-290.84"/>
</g>
<!-- Node0x638d3bba3fd0 -->
<g id="node5" class="node">
<title>Node0x638d3bba3fd0</title>
<path fill="#f0f4ff" stroke="black" d="M591.5,-268C591.5,-268 392.5,-268 392.5,-268 386.5,-268 380.5,-262 380.5,-256 380.5,-256 380.5,-244 380.5,-244 380.5,-238 386.5,-232 392.5,-232 392.5,-232 591.5,-232 591.5,-232 597.5,-232 603.5,-238 603.5,-244 603.5,-244 603.5,-256 603.5,-256 603.5,-262 597.5,-268 591.5,-268"/>
<text text-anchor="middle" x="492" y="-247.8" font-family="Courier,monospace" font-size="9.00">CIccStructTintZero::CIccStructTintZero()</text>
</g>
<!-- Node0x638d3bc3f460&#45;&gt;Node0x638d3bba3fd0 -->
<g id="edge4" class="edge">
<title>Node0x638d3bc3f460&#45;&gt;Node0x638d3bba3fd0</title>
<path fill="none" stroke="#4a6fa5" d="M241.07,-229.58C282.96,-233 331.34,-236.96 374.31,-240.47"/>
<polygon fill="#4a6fa5" stroke="#4a6fa5" points="374.18,-242.56 380.33,-240.96 374.53,-238.38 374.18,-242.56"/>
</g>
<!-- Node0x638d3bbacbf0 -->
<g id="node6" class="node">
<title>Node0x638d3bbacbf0</title>
<path fill="#f0f4ff" stroke="black" d="M607,-210C607,-210 377,-210 377,-210 371,-210 365,-204 365,-198 365,-198 365,-186 365,-186 365,-180 371,-174 377,-174 377,-174 607,-174 607,-174 613,-174 619,-180 619,-186 619,-186 619,-198 619,-198 619,-204 613,-210 607,-210"/>
<text text-anchor="middle" x="492" y="-189.8" font-family="Courier,monospace" font-size="9.00">CIccStructProfileInfo::CIccStructProfileInfo()</text>
</g>
<!-- Node0x638d3bc3f460&#45;&gt;Node0x638d3bbacbf0 -->
<g id="edge5" class="edge">
<title>Node0x638d3bc3f460&#45;&gt;Node0x638d3bbacbf0</title>
<path fill="none" stroke="#4a6fa5" d="M241.07,-212.42C277.94,-209.4 319.85,-205.98 358.67,-202.81"/>
<polygon fill="#4a6fa5" stroke="#4a6fa5" points="359.06,-204.88 364.87,-202.3 358.72,-200.7 359.06,-204.88"/>
</g>
<!-- Node0x638d3bb86150 -->
<g id="node7" class="node">
<title>Node0x638d3bb86150</title>
<path fill="#f0f4ff" stroke="black" d="M644,-152C644,-152 340,-152 340,-152 334,-152 328,-146 328,-140 328,-140 328,-128 328,-128 328,-122 334,-116 340,-116 340,-116 644,-116 644,-116 650,-116 656,-122 656,-128 656,-128 656,-140 656,-140 656,-146 650,-152 644,-152"/>
<text text-anchor="middle" x="492" y="-131.8" font-family="Courier,monospace" font-size="9.00">CIccStructColorEncodingParams::CIccStructColorEncodingPar...</text>
</g>
<!-- Node0x638d3bc3f460&#45;&gt;Node0x638d3bb86150 -->
<g id="edge6" class="edge">
<title>Node0x638d3bc3f460&#45;&gt;Node0x638d3bb86150</title>
<path fill="none" stroke="#4a6fa5" d="M189.75,-202.92C227.99,-190.5 280.76,-174.3 328,-163 342.56,-159.52 357.94,-156.25 373.21,-153.26"/>
<polygon fill="#4a6fa5" stroke="#4a6fa5" points="373.79,-155.29 379.28,-152.08 372.99,-151.16 373.79,-155.29"/>
</g>
<!-- Node0x638d3bb96670 -->
<g id="node8" class="node">
<title>Node0x638d3bb96670</title>
<path fill="#f0f4ff" stroke="black" d="M602,-94C602,-94 382,-94 382,-94 376,-94 370,-88 370,-82 370,-82 370,-70 370,-70 370,-64 376,-58 382,-58 382,-58 602,-58 602,-58 608,-58 614,-64 614,-70 614,-70 614,-82 614,-82 614,-88 608,-94 602,-94"/>
<text text-anchor="middle" x="492" y="-73.8" font-family="Courier,monospace" font-size="9.00">CIccStructNamedColor::CIccStructNamedColor()</text>
</g>
<!-- Node0x638d3bc3f460&#45;&gt;Node0x638d3bb96670 -->
<g id="edge7" class="edge">
<title>Node0x638d3bc3f460&#45;&gt;Node0x638d3bb96670</title>
<path fill="none" stroke="#4a6fa5" d="M159.37,-202.92C194.12,-177 262.39,-129.68 328,-105 339.44,-100.7 351.59,-97.02 363.88,-93.89"/>
<polygon fill="#4a6fa5" stroke="#4a6fa5" points="364.6,-95.87 369.92,-92.39 363.59,-91.79 364.6,-95.87"/>
</g>
<!-- Node0x638d3bb6e440 -->
<g id="node9" class="node">
<title>Node0x638d3bb6e440</title>
<path fill="#f0f4ff" stroke="black" d="M628,-36C628,-36 356,-36 356,-36 350,-36 344,-30 344,-24 344,-24 344,-12 344,-12 344,-6 350,0 356,0 356,0 628,0 628,0 634,0 640,-6 640,-12 640,-12 640,-24 640,-24 640,-30 634,-36 628,-36"/>
<text text-anchor="middle" x="492" y="-15.8" font-family="Courier,monospace" font-size="9.00">CIccStructMeasurementInfo::CIccStructMeasurementInfo()</text>
</g>
<!-- Node0x638d3bc3f460&#45;&gt;Node0x638d3bb6e440 -->
<g id="edge8" class="edge">
<title>Node0x638d3bc3f460&#45;&gt;Node0x638d3bb6e440</title>
<path fill="none" stroke="#4a6fa5" d="M149.87,-202.93C178.71,-166.79 249.05,-85.74 328,-47 334.89,-43.62 342.11,-40.63 349.53,-37.98"/>
<polygon fill="#4a6fa5" stroke="#4a6fa5" points="350.24,-39.96 355.23,-36.03 348.88,-35.99 350.24,-39.96"/>
</g>
<!-- Node0x638d3bc50f40 -->
<g id="node10" class="node">
<title>Node0x638d3bc50f40</title>
<path fill="#f0f4ff" stroke="black" d="M239.5,-500C239.5,-500 30.5,-500 30.5,-500 24.5,-500 18.5,-494 18.5,-488 18.5,-488 18.5,-476 18.5,-476 18.5,-470 24.5,-464 30.5,-464 30.5,-464 239.5,-464 239.5,-464 245.5,-464 251.5,-470 251.5,-476 251.5,-476 251.5,-488 251.5,-488 251.5,-494 245.5,-500 239.5,-500"/>
<text text-anchor="middle" x="135" y="-479.8" font-family="Courier,monospace" font-size="9.00">CIccBasicStructFactory::GetStructSigName()</text>
</g>
<!-- Node0x638d3bc4dd90 -->
<g id="node11" class="node">
<title>Node0x638d3bc4dd90</title>
<path fill="#f0f4ff" stroke="black" d="M520.5,-500C520.5,-500 463.5,-500 463.5,-500 457.5,-500 451.5,-494 451.5,-488 451.5,-488 451.5,-476 451.5,-476 451.5,-470 457.5,-464 463.5,-464 463.5,-464 520.5,-464 520.5,-464 526.5,-464 532.5,-470 532.5,-476 532.5,-476 532.5,-488 532.5,-488 532.5,-494 526.5,-500 520.5,-500"/>
<text text-anchor="middle" x="492" y="-479.8" font-family="Courier,monospace" font-size="9.00">icGetSigStr()</text>
</g>
<!-- Node0x638d3bc50f40&#45;&gt;Node0x638d3bc4dd90 -->
<g id="edge9" class="edge">
<title>Node0x638d3bc50f40&#45;&gt;Node0x638d3bc4dd90</title>
<path fill="none" stroke="#4a6fa5" d="M251.75,-482C317.72,-482 396.7,-482 445.36,-482"/>
<polygon fill="#4a6fa5" stroke="#4a6fa5" points="445.43,-484.1 451.43,-482 445.43,-479.9 445.43,-484.1"/>
</g>
<!-- Node0x638d3bc52970 -->
<g id="node12" class="node">
<title>Node0x638d3bc52970</title>
<path fill="#f0f4ff" stroke="black" d="M229,-587C229,-587 41,-587 41,-587 35,-587 29,-581 29,-575 29,-575 29,-563 29,-563 29,-557 35,-551 41,-551 41,-551 229,-551 229,-551 235,-551 241,-557 241,-563 241,-563 241,-575 241,-575 241,-581 235,-587 229,-587"/>
<text text-anchor="middle" x="135" y="-566.8" font-family="Courier,monospace" font-size="9.00">CIccBasicStructFactory::GetStructSig()</text>
</g>
<!-- Node0x638d3bc5b830 -->
<g id="node13" class="node">
<title>Node0x638d3bc5b830</title>
<path fill="#f0f4ff" stroke="black" d="M518,-790C518,-790 466,-790 466,-790 460,-790 454,-784 454,-778 454,-778 454,-766 454,-766 454,-760 460,-754 466,-754 466,-754 518,-754 518,-754 524,-754 530,-760 530,-766 530,-766 530,-778 530,-778 530,-784 524,-790 518,-790"/>
<text text-anchor="middle" x="492" y="-769.8" font-family="Courier,monospace" font-size="9.00">unique_ptr()</text>
</g>
<!-- Node0x638d3bc66da0 -->
<g id="node14" class="node">
<title>Node0x638d3bc66da0</title>
<path fill="#f0f4ff" stroke="black" d="M851,-790C851,-790 794,-790 794,-790 788,-790 782,-784 782,-778 782,-778 782,-766 782,-766 782,-760 788,-754 794,-754 794,-754 851,-754 851,-754 857,-754 863,-760 863,-766 863,-766 863,-778 863,-778 863,-784 857,-790 851,-790"/>
<text text-anchor="middle" x="822.5" y="-769.8" font-family="Courier,monospace" font-size="9.00">get_deleter()</text>
</g>
<!-- Node0x638d3bc5b830&#45;&gt;Node0x638d3bc66da0 -->
<g id="edge10" class="edge">
<title>Node0x638d3bc5b830&#45;&gt;Node0x638d3bc66da0</title>
<path fill="none" stroke="#4a6fa5" d="M530.04,-772C590.43,-772 709.93,-772 775.6,-772"/>
<polygon fill="#4a6fa5" stroke="#4a6fa5" points="775.79,-774.1 781.79,-772 775.79,-769.9 775.79,-774.1"/>
</g>
<!-- Node0x638d3bc5be00 -->
<g id="node15" class="node">
<title>Node0x638d3bc5be00</title>
<path fill="#f0f4ff" stroke="black" d="M231.5,-848C231.5,-848 38.5,-848 38.5,-848 32.5,-848 26.5,-842 26.5,-836 26.5,-836 26.5,-824 26.5,-824 26.5,-818 32.5,-812 38.5,-812 38.5,-812 231.5,-812 231.5,-812 237.5,-812 243.5,-818 243.5,-824 243.5,-824 243.5,-836 243.5,-836 243.5,-842 237.5,-848 231.5,-848"/>
<text text-anchor="middle" x="135" y="-827.8" font-family="Courier,monospace" font-size="9.00">CIccStructCreator::~CIccStructCreator()</text>
</g>
<!-- Node0x638d3bc6a0b0 -->
<g id="node16" class="node">
<title>Node0x638d3bc6a0b0</title>
<path fill="#f0f4ff" stroke="black" d="M573,-848C573,-848 411,-848 411,-848 405,-848 399,-842 399,-836 399,-836 399,-824 399,-824 399,-818 405,-812 411,-812 411,-812 573,-812 573,-812 579,-812 585,-818 585,-824 585,-824 585,-836 585,-836 585,-842 579,-848 573,-848"/>
<text text-anchor="middle" x="492" y="-827.8" font-family="Courier,monospace" font-size="9.00">CIccStructCreator::DoPopFactory()</text>
</g>
<!-- Node0x638d3bc5be00&#45;&gt;Node0x638d3bc6a0b0 -->
<g id="edge11" class="edge">
<title>Node0x638d3bc5be00&#45;&gt;Node0x638d3bc6a0b0</title>
<path fill="none" stroke="#4a6fa5" d="M243.96,-830C291.3,-830 346.48,-830 392.67,-830"/>
<polygon fill="#4a6fa5" stroke="#4a6fa5" points="392.83,-832.1 398.83,-830 392.83,-827.9 392.83,-832.1"/>
</g>
<!-- Node0x638d3bc6bf30 -->
<g id="node17" class="node">
<title>Node0x638d3bc6bf30</title>
<path fill="#f0f4ff" stroke="black" d="M845.5,-848C845.5,-848 799.5,-848 799.5,-848 793.5,-848 787.5,-842 787.5,-836 787.5,-836 787.5,-824 787.5,-824 787.5,-818 793.5,-812 799.5,-812 799.5,-812 845.5,-812 845.5,-812 851.5,-812 857.5,-818 857.5,-824 857.5,-824 857.5,-836 857.5,-836 857.5,-842 851.5,-848 845.5,-848"/>
<text text-anchor="middle" x="822.5" y="-827.8" font-family="Courier,monospace" font-size="9.00">pop_front()</text>
</g>
<!-- Node0x638d3bc6a0b0&#45;&gt;Node0x638d3bc6bf30 -->
<g id="edge12" class="edge">
<title>Node0x638d3bc6a0b0&#45;&gt;Node0x638d3bc6bf30</title>
<path fill="none" stroke="#4a6fa5" d="M585.38,-830C649.8,-830 732.6,-830 781.08,-830"/>
<polygon fill="#4a6fa5" stroke="#4a6fa5" points="781.11,-832.1 787.11,-830 781.11,-827.9 781.11,-832.1"/>
</g>
<!-- Node0x638d3bc6eed0 -->
<g id="node18" class="node">
<title>Node0x638d3bc6eed0</title>
<path fill="#f0f4ff" stroke="black" d="M213.5,-674C213.5,-674 56.5,-674 56.5,-674 50.5,-674 44.5,-668 44.5,-662 44.5,-662 44.5,-650 44.5,-650 44.5,-644 50.5,-638 56.5,-638 56.5,-638 213.5,-638 213.5,-638 219.5,-638 225.5,-644 225.5,-650 225.5,-650 225.5,-662 225.5,-662 225.5,-668 219.5,-674 213.5,-674"/>
<text text-anchor="middle" x="135" y="-653.8" font-family="Courier,monospace" font-size="9.00">CIccStructCreator::GetInstance()</text>
</g>
<!-- Node0x638d3bc6eed0&#45;&gt;Node0x638d3bc5b830 -->
<g id="edge15" class="edge">
<title>Node0x638d3bc6eed0&#45;&gt;Node0x638d3bc5b830</title>
<path fill="none" stroke="#4a6fa5" d="M168.99,-674.03C206.47,-693.77 269.98,-725 328,-743 367.67,-755.3 414.49,-762.96 447.75,-767.29"/>
<polygon fill="#4a6fa5" stroke="#4a6fa5" points="447.58,-769.39 453.8,-768.06 448.11,-765.22 447.58,-769.39"/>
</g>
<!-- Node0x638d3bc6ffd0 -->
<g id="node19" class="node">
<title>Node0x638d3bc6ffd0</title>
<path fill="#f0f4ff" stroke="black" d="M507,-732C507,-732 477,-732 477,-732 471,-732 465,-726 465,-720 465,-720 465,-708 465,-708 465,-702 471,-696 477,-696 477,-696 507,-696 507,-696 513,-696 519,-702 519,-708 519,-708 519,-720 519,-720 519,-726 513,-732 507,-732"/>
<text text-anchor="middle" x="492" y="-711.8" font-family="Courier,monospace" font-size="9.00">get()</text>
</g>
<!-- Node0x638d3bc6eed0&#45;&gt;Node0x638d3bc6ffd0 -->
<g id="edge13" class="edge">
<title>Node0x638d3bc6eed0&#45;&gt;Node0x638d3bc6ffd0</title>
<path fill="none" stroke="#4a6fa5" d="M225.58,-670.64C301.57,-683.05 406.32,-700.17 458.6,-708.71"/>
<polygon fill="#4a6fa5" stroke="#4a6fa5" points="458.45,-710.81 464.71,-709.7 459.12,-706.66 458.45,-710.81"/>
</g>
<!-- Node0x638d3bc6ff20 -->
<g id="node20" class="node">
<title>Node0x638d3bc6ff20</title>
<path fill="#f0f4ff" stroke="black" d="M586,-674C586,-674 398,-674 398,-674 392,-674 386,-668 386,-662 386,-662 386,-650 386,-650 386,-644 392,-638 398,-638 398,-638 586,-638 586,-638 592,-638 598,-644 598,-650 598,-650 598,-662 598,-662 598,-668 592,-674 586,-674"/>
<text text-anchor="middle" x="492" y="-653.8" font-family="Courier,monospace" font-size="9.00">CIccStructCreator::CIccStructCreator()</text>
</g>
<!-- Node0x638d3bc6eed0&#45;&gt;Node0x638d3bc6ff20 -->
<g id="edge14" class="edge">
<title>Node0x638d3bc6eed0&#45;&gt;Node0x638d3bc6ff20</title>
<path fill="none" stroke="#4a6fa5" d="M225.58,-656C272.46,-656 330.28,-656 379.98,-656"/>
<polygon fill="#4a6fa5" stroke="#4a6fa5" points="380,-658.1 386,-656 380,-653.9 380,-658.1"/>
</g>
<!-- Node0x638d3bc724d0 -->
<g id="node21" class="node">
<title>Node0x638d3bc724d0</title>
<path fill="#f0f4ff" stroke="black" d="M612.5,-616C612.5,-616 371.5,-616 371.5,-616 365.5,-616 359.5,-610 359.5,-604 359.5,-604 359.5,-592 359.5,-592 359.5,-586 365.5,-580 371.5,-580 371.5,-580 612.5,-580 612.5,-580 618.5,-580 624.5,-586 624.5,-592 624.5,-592 624.5,-604 624.5,-604 624.5,-610 618.5,-616 612.5,-616"/>
<text text-anchor="middle" x="492" y="-595.8" font-family="Courier,monospace" font-size="9.00">CIccBasicStructFactory::CIccBasicStructFactory()</text>
</g>
<!-- Node0x638d3bc6eed0&#45;&gt;Node0x638d3bc724d0 -->
<g id="edge16" class="edge">
<title>Node0x638d3bc6eed0&#45;&gt;Node0x638d3bc724d0</title>
<path fill="none" stroke="#4a6fa5" d="M225.58,-641.36C270.79,-633.98 326.17,-624.93 374.63,-617.01"/>
<polygon fill="#4a6fa5" stroke="#4a6fa5" points="375.23,-619.04 380.81,-616 374.55,-614.9 375.23,-619.04"/>
</g>
<!-- Node0x638d3bc72260 -->
<g id="node22" class="node">
<title>Node0x638d3bc72260</title>
<path fill="#f0f4ff" stroke="black" d="M575.5,-558C575.5,-558 408.5,-558 408.5,-558 402.5,-558 396.5,-552 396.5,-546 396.5,-546 396.5,-534 396.5,-534 396.5,-528 402.5,-522 408.5,-522 408.5,-522 575.5,-522 575.5,-522 581.5,-522 587.5,-528 587.5,-534 587.5,-534 587.5,-546 587.5,-546 587.5,-552 581.5,-558 575.5,-558"/>
<text text-anchor="middle" x="492" y="-537.8" font-family="Courier,monospace" font-size="9.00">CIccStructCreator::DoPushFactory()</text>
</g>
<!-- Node0x638d3bc6eed0&#45;&gt;Node0x638d3bc72260 -->
<g id="edge17" class="edge">
<title>Node0x638d3bc6eed0&#45;&gt;Node0x638d3bc72260</title>
<path fill="none" stroke="#4a6fa5" d="M179.42,-637.92C205.78,-626.77 240.01,-611.97 270,-598 296.12,-585.83 300.64,-578.06 328,-569 347.74,-562.46 369.35,-557.3 390.18,-553.26"/>
<polygon fill="#4a6fa5" stroke="#4a6fa5" points="390.82,-555.28 396.33,-552.1 390.04,-551.15 390.82,-555.28"/>
</g>
<!-- Node0x638d3bc77f20 -->
<g id="node24" class="node">
<title>Node0x638d3bc77f20</title>
<path fill="#f0f4ff" stroke="black" d="M916.5,-616C916.5,-616 728.5,-616 728.5,-616 722.5,-616 716.5,-610 716.5,-604 716.5,-604 716.5,-592 716.5,-592 716.5,-586 722.5,-580 728.5,-580 728.5,-580 916.5,-580 916.5,-580 922.5,-580 928.5,-586 928.5,-592 928.5,-592 928.5,-604 928.5,-604 928.5,-610 922.5,-616 916.5,-616"/>
<text text-anchor="middle" x="822.5" y="-595.8" font-family="Courier,monospace" font-size="9.00">IIccStructFactory::IIccStructFactory()</text>
</g>
<!-- Node0x638d3bc724d0&#45;&gt;Node0x638d3bc77f20 -->
<g id="edge19" class="edge">
<title>Node0x638d3bc724d0&#45;&gt;Node0x638d3bc77f20</title>
<path fill="none" stroke="#4a6fa5" d="M624.72,-598C653.01,-598 682.65,-598 710.09,-598"/>
<polygon fill="#4a6fa5" stroke="#4a6fa5" points="710.27,-600.1 716.27,-598 710.27,-595.9 710.27,-600.1"/>
</g>
<!-- Node0x638d3bc76440 -->
<g id="node23" class="node">
<title>Node0x638d3bc76440</title>
<path fill="#f0f4ff" stroke="black" d="M848.5,-558C848.5,-558 796.5,-558 796.5,-558 790.5,-558 784.5,-552 784.5,-546 784.5,-546 784.5,-534 784.5,-534 784.5,-528 790.5,-522 796.5,-522 796.5,-522 848.5,-522 848.5,-522 854.5,-522 860.5,-528 860.5,-534 860.5,-534 860.5,-546 860.5,-546 860.5,-552 854.5,-558 848.5,-558"/>
<text text-anchor="middle" x="822.5" y="-537.8" font-family="Courier,monospace" font-size="9.00">push_front()</text>
</g>
<!-- Node0x638d3bc72260&#45;&gt;Node0x638d3bc76440 -->
<g id="edge18" class="edge">
<title>Node0x638d3bc72260&#45;&gt;Node0x638d3bc76440</title>
<path fill="none" stroke="#4a6fa5" d="M587.58,-540C650.47,-540 730.09,-540 778.34,-540"/>
<polygon fill="#4a6fa5" stroke="#4a6fa5" points="778.36,-542.1 784.36,-540 778.36,-537.9 778.36,-542.1"/>
</g>
<!-- Node0x638d3bc77830 -->
<g id="node25" class="node">
<title>Node0x638d3bc77830</title>
<path fill="#f0f4ff" stroke="black" d="M221,-906C221,-906 49,-906 49,-906 43,-906 37,-900 37,-894 37,-894 37,-882 37,-882 37,-876 43,-870 49,-870 49,-870 221,-870 221,-870 227,-870 233,-876 233,-882 233,-882 233,-894 233,-894 233,-900 227,-906 221,-906"/>
<text text-anchor="middle" x="135" y="-885.8" font-family="Courier,monospace" font-size="9.00">CIccStructCreator::DoCreateStruct()</text>
</g>
<!-- Node0x638d3bc7b110 -->
<g id="node26" class="node">
<title>Node0x638d3bc7b110</title>
<path fill="#f0f4ff" stroke="black" d="M231.5,-964C231.5,-964 38.5,-964 38.5,-964 32.5,-964 26.5,-958 26.5,-952 26.5,-952 26.5,-940 26.5,-940 26.5,-934 32.5,-928 38.5,-928 38.5,-928 231.5,-928 231.5,-928 237.5,-928 243.5,-934 243.5,-940 243.5,-940 243.5,-952 243.5,-952 243.5,-958 237.5,-964 231.5,-964"/>
<text text-anchor="middle" x="135" y="-943.8" font-family="Courier,monospace" font-size="9.00">CIccStructCreator::DoGetStructSigName()</text>
</g>
<!-- Node0x638d3bc7a810 -->
<g id="node27" class="node">
<title>Node0x638d3bc7a810</title>
<path fill="#f0f4ff" stroke="black" d="M221,-1022C221,-1022 49,-1022 49,-1022 43,-1022 37,-1016 37,-1010 37,-1010 37,-998 37,-998 37,-992 43,-986 49,-986 49,-986 221,-986 221,-986 227,-986 233,-992 233,-998 233,-998 233,-1010 233,-1010 233,-1016 227,-1022 221,-1022"/>
<text text-anchor="middle" x="135" y="-1001.8" font-family="Courier,monospace" font-size="9.00">CIccStructCreator::DoGetStructSig()</text>
</g>
<!-- Node0x638d3bc7c1e0 -->
<g id="node28" class="node">
<title>Node0x638d3bc7c1e0</title>
<path fill="#f0f4ff" stroke="black" d="M615,-1080C615,-1080 369,-1080 369,-1080 363,-1080 357,-1074 357,-1068 357,-1068 357,-1056 357,-1056 357,-1050 363,-1044 369,-1044 369,-1044 615,-1044 615,-1044 621,-1044 627,-1050 627,-1056 627,-1056 627,-1068 627,-1068 627,-1074 621,-1080 615,-1080"/>
<text text-anchor="middle" x="492" y="-1059.8" font-family="Courier,monospace" font-size="9.00">CIccBasicStructFactory::~CIccBasicStructFactory()</text>
</g>
<!-- Node0x638d3bc5f230 -->
<g id="node29" class="node">
<title>Node0x638d3bc5f230</title>
<path fill="#f0f4ff" stroke="black" d="M919,-1080C919,-1080 726,-1080 726,-1080 720,-1080 714,-1074 714,-1068 714,-1068 714,-1056 714,-1056 714,-1050 720,-1044 726,-1044 726,-1044 919,-1044 919,-1044 925,-1044 931,-1050 931,-1056 931,-1056 931,-1068 931,-1068 931,-1074 925,-1080 919,-1080"/>
<text text-anchor="middle" x="822.5" y="-1059.8" font-family="Courier,monospace" font-size="9.00">IIccStructFactory::~IIccStructFactory()</text>
</g>
<!-- Node0x638d3bc7c1e0&#45;&gt;Node0x638d3bc5f230 -->
<g id="edge20" class="edge">
<title>Node0x638d3bc7c1e0&#45;&gt;Node0x638d3bc5f230</title>
<path fill="none" stroke="#4a6fa5" d="M627.09,-1062C653.86,-1062 681.74,-1062 707.75,-1062"/>
<polygon fill="#4a6fa5" stroke="#4a6fa5" points="707.96,-1064.1 713.96,-1062 707.96,-1059.9 707.96,-1064.1"/>
</g>
<!-- Node0x638d3bc7ce80 -->
<g id="node30" class="node">
<title>Node0x638d3bc7ce80</title>
<path fill="#f0f4ff" stroke="black" d="M258,-1080C258,-1080 12,-1080 12,-1080 6,-1080 0,-1074 0,-1068 0,-1068 0,-1056 0,-1056 0,-1050 6,-1044 12,-1044 12,-1044 258,-1044 258,-1044 264,-1044 270,-1050 270,-1056 270,-1056 270,-1068 270,-1068 270,-1074 264,-1080 258,-1080"/>
<text text-anchor="middle" x="135" y="-1059.8" font-family="Courier,monospace" font-size="9.00">CIccBasicStructFactory::~CIccBasicStructFactory()</text>
</g>
<!-- Node0x638d3bc7ce80&#45;&gt;Node0x638d3bc7c1e0 -->
<g id="edge21" class="edge">
<title>Node0x638d3bc7ce80&#45;&gt;Node0x638d3bc7c1e0</title>
<path fill="none" stroke="#4a6fa5" d="M270.21,-1062C296.59,-1062 324.32,-1062 350.89,-1062"/>
<polygon fill="#4a6fa5" stroke="#4a6fa5" points="350.89,-1064.1 356.89,-1062 350.89,-1059.9 350.89,-1064.1"/>
</g>
<!-- Node0x638d3bc60830 -->
<g id="node31" class="node">
<title>Node0x638d3bc60830</title>
<path fill="#f0f4ff" stroke="black" d="M255.5,-1138C255.5,-1138 14.5,-1138 14.5,-1138 8.5,-1138 2.5,-1132 2.5,-1126 2.5,-1126 2.5,-1114 2.5,-1114 2.5,-1108 8.5,-1102 14.5,-1102 14.5,-1102 255.5,-1102 255.5,-1102 261.5,-1102 267.5,-1108 267.5,-1114 267.5,-1114 267.5,-1126 267.5,-1126 267.5,-1132 261.5,-1138 255.5,-1138"/>
<text text-anchor="middle" x="135" y="-1117.8" font-family="Courier,monospace" font-size="9.00">__detail::_List_node_header::_List_node_header()</text>
</g>
<!-- Node0x638d3bc63e90 -->
<g id="node32" class="node">
<title>Node0x638d3bc63e90</title>
<path fill="#f0f4ff" stroke="black" d="M586,-1138C586,-1138 398,-1138 398,-1138 392,-1138 386,-1132 386,-1126 386,-1126 386,-1114 386,-1114 386,-1108 392,-1102 398,-1102 398,-1102 586,-1102 586,-1102 592,-1102 598,-1108 598,-1114 598,-1114 598,-1126 598,-1126 598,-1132 592,-1138 586,-1138"/>
<text text-anchor="middle" x="492" y="-1117.8" font-family="Courier,monospace" font-size="9.00">__detail::_List_node_header::_M_init()</text>
</g>
<!-- Node0x638d3bc60830&#45;&gt;Node0x638d3bc63e90 -->
<g id="edge22" class="edge">
<title>Node0x638d3bc60830&#45;&gt;Node0x638d3bc63e90</title>
<path fill="none" stroke="#4a6fa5" d="M267.68,-1120C304.52,-1120 344.19,-1120 379.72,-1120"/>
<polygon fill="#4a6fa5" stroke="#4a6fa5" points="379.85,-1122.1 385.85,-1120 379.85,-1117.9 379.85,-1122.1"/>
</g>
<!-- Node0x638d3bc64610 -->
<g id="node33" class="node">
<title>Node0x638d3bc64610</title>
<path fill="#f0f4ff" stroke="black" d="M150,-1196C150,-1196 120,-1196 120,-1196 114,-1196 108,-1190 108,-1184 108,-1184 108,-1172 108,-1172 108,-1166 114,-1160 120,-1160 120,-1160 150,-1160 150,-1160 156,-1160 162,-1166 162,-1172 162,-1172 162,-1184 162,-1184 162,-1190 156,-1196 150,-1196"/>
<text text-anchor="middle" x="135" y="-1175.8" font-family="Courier,monospace" font-size="9.00">reset()</text>
</g>
<!-- Node0x638d3bc73c60 -->
<g id="node34" class="node">
<title>Node0x638d3bc73c60</title>
<path fill="#f0f4ff" stroke="black" d="M153,-1254C153,-1254 117,-1254 117,-1254 111,-1254 105,-1248 105,-1242 105,-1242 105,-1230 105,-1230 105,-1224 111,-1218 117,-1218 117,-1218 153,-1218 153,-1218 159,-1218 165,-1224 165,-1230 165,-1230 165,-1242 165,-1242 165,-1248 159,-1254 153,-1254"/>
<text text-anchor="middle" x="135" y="-1233.8" font-family="Courier,monospace" font-size="9.00">release()</text>
</g>
<!-- Node0x638d3bc89dc0 -->
<g id="node35" class="node">
<title>Node0x638d3bc89dc0</title>
<path fill="#f0f4ff" stroke="black" d="M231.5,-1312C231.5,-1312 38.5,-1312 38.5,-1312 32.5,-1312 26.5,-1306 26.5,-1300 26.5,-1300 26.5,-1288 26.5,-1288 26.5,-1282 32.5,-1276 38.5,-1276 38.5,-1276 231.5,-1276 231.5,-1276 237.5,-1276 243.5,-1282 243.5,-1288 243.5,-1288 243.5,-1300 243.5,-1300 243.5,-1306 237.5,-1312 231.5,-1312"/>
<text text-anchor="middle" x="135" y="-1291.8" font-family="Courier,monospace" font-size="9.00">IIccStructFactory::~IIccStructFactory()</text>
</g>
<!-- Node0x638d3bc74c50 -->
<g id="node36" class="node">
<title>Node0x638d3bc74c50</title>
<path fill="#f0f4ff" stroke="black" d="M174,-1370C174,-1370 96,-1370 96,-1370 90,-1370 84,-1364 84,-1358 84,-1358 84,-1346 84,-1346 84,-1340 90,-1334 96,-1334 96,-1334 174,-1334 174,-1334 180,-1334 186,-1340 186,-1346 186,-1346 186,-1358 186,-1358 186,-1364 180,-1370 174,-1370"/>
<text text-anchor="middle" x="135" y="-1349.8" font-family="Courier,monospace" font-size="9.00">__uniq_ptr_impl()</text>
</g>
<!-- Node0x638d3bc8e400 -->
<g id="node37" class="node">
<title>Node0x638d3bc8e400</title>
<path fill="#f0f4ff" stroke="black" d="M531,-1370C531,-1370 453,-1370 453,-1370 447,-1370 441,-1364 441,-1358 441,-1358 441,-1346 441,-1346 441,-1340 447,-1334 453,-1334 453,-1334 531,-1334 531,-1334 537,-1334 543,-1340 543,-1346 543,-1346 543,-1358 543,-1358 543,-1364 537,-1370 531,-1370"/>
<text text-anchor="middle" x="492" y="-1349.8" font-family="Courier,monospace" font-size="9.00">__uniq_ptr_impl()</text>
</g>
<!-- Node0x638d3bc74c50&#45;&gt;Node0x638d3bc8e400 -->
<g id="edge23" class="edge">
<title>Node0x638d3bc74c50&#45;&gt;Node0x638d3bc8e400</title>
<path fill="none" stroke="#4a6fa5" d="M186.11,-1352C251.69,-1352 366.32,-1352 434.79,-1352"/>
<polygon fill="#4a6fa5" stroke="#4a6fa5" points="434.86,-1354.1 440.86,-1352 434.86,-1349.9 434.86,-1354.1"/>
</g>
<!-- Node0x638d3bc8f080 -->
<g id="node38" class="node">
<title>Node0x638d3bc8f080</title>
<path fill="#f0f4ff" stroke="black" d="M224,-1428C224,-1428 46,-1428 46,-1428 40,-1428 34,-1422 34,-1416 34,-1416 34,-1404 34,-1404 34,-1398 40,-1392 46,-1392 46,-1392 224,-1392 224,-1392 230,-1392 236,-1398 236,-1404 236,-1404 236,-1416 236,-1416 236,-1422 230,-1428 224,-1428"/>
<text text-anchor="middle" x="135" y="-1407.8" font-family="Courier,monospace" font-size="9.00">__detail::_List_node_base::_M_hook()</text>
</g>
<!-- Node0x638d3bc91f40 -->
<g id="node39" class="node">
<title>Node0x638d3bc91f40</title>
<path fill="#f0f4ff" stroke="black" d="M174,-1486C174,-1486 96,-1486 96,-1486 90,-1486 84,-1480 84,-1474 84,-1474 84,-1462 84,-1462 84,-1456 90,-1450 96,-1450 96,-1450 174,-1450 174,-1450 180,-1450 186,-1456 186,-1462 186,-1462 186,-1474 186,-1474 186,-1480 180,-1486 174,-1486"/>
<text text-anchor="middle" x="135" y="-1465.8" font-family="Courier,monospace" font-size="9.00">__allocated_ptr()</text>
</g>
<!-- Node0x638d3bc91de0 -->
<g id="node40" class="node">
<title>Node0x638d3bc91de0</title>
<path fill="#f0f4ff" stroke="black" d="M155.5,-1544C155.5,-1544 114.5,-1544 114.5,-1544 108.5,-1544 102.5,-1538 102.5,-1532 102.5,-1532 102.5,-1520 102.5,-1520 102.5,-1514 108.5,-1508 114.5,-1508 114.5,-1508 155.5,-1508 155.5,-1508 161.5,-1508 167.5,-1514 167.5,-1520 167.5,-1520 167.5,-1532 167.5,-1532 167.5,-1538 161.5,-1544 155.5,-1544"/>
<text text-anchor="middle" x="135" y="-1523.8" font-family="Courier,monospace" font-size="9.00">decltype()</text>
</g>
<!-- Node0x638d3bc91b80 -->
<g id="node41" class="node">
<title>Node0x638d3bc91b80</title>
<path fill="#f0f4ff" stroke="black" d="M174,-1602C174,-1602 96,-1602 96,-1602 90,-1602 84,-1596 84,-1590 84,-1590 84,-1578 84,-1578 84,-1572 90,-1566 96,-1566 96,-1566 174,-1566 174,-1566 180,-1566 186,-1572 186,-1578 186,-1578 186,-1590 186,-1590 186,-1596 180,-1602 174,-1602"/>
<text text-anchor="middle" x="135" y="-1581.8" font-family="Courier,monospace" font-size="9.00">__allocated_ptr()</text>
</g>
<!-- Node0x638d3bc93c00 -->
<g id="node42" class="node">
<title>Node0x638d3bc93c00</title>
<path fill="#f0f4ff" stroke="black" d="M229,-1660C229,-1660 41,-1660 41,-1660 35,-1660 29,-1654 29,-1648 29,-1648 29,-1636 29,-1636 29,-1630 35,-1624 41,-1624 41,-1624 229,-1624 229,-1624 235,-1624 241,-1630 241,-1636 241,-1636 241,-1648 241,-1648 241,-1654 235,-1660 229,-1660"/>
<text text-anchor="middle" x="135" y="-1639.8" font-family="Courier,monospace" font-size="9.00">__detail::_List_node_base::_M_unhook()</text>
</g>
<!-- Node0x638d3bb60e50 -->
<g id="node43" class="node">
<title>Node0x638d3bb60e50</title>
<path fill="#f0f4ff" stroke="black" d="M221,-1718C221,-1718 49,-1718 49,-1718 43,-1718 37,-1712 37,-1706 37,-1706 37,-1694 37,-1694 37,-1688 43,-1682 49,-1682 49,-1682 221,-1682 221,-1682 227,-1682 233,-1688 233,-1694 233,-1694 233,-1706 233,-1706 233,-1712 227,-1718 221,-1718"/>
<text text-anchor="middle" x="135" y="-1697.8" font-family="Courier,monospace" font-size="9.00">_GLOBAL__sub_I_IccStructFactory.cpp</text>
</g>
</g>
</svg>
