<?xml version="1.0" encoding="UTF-8" standalone="no"?>
<!DOCTYPE svg PUBLIC "-//W3C//DTD SVG 1.1//EN"
 "http://www.w3.org/Graphics/SVG/1.1/DTD/svg11.dtd">
<!-- Generated by graphviz version 2.43.0 (0)
 -->
<!-- Title: Call graph: /home/h02332/po/research/call&#45;graph/iccdev/proflib/IccTagComposite.ll Pages: 1 -->
<svg width="1335pt" height="4353pt"
 viewBox="0.00 0.00 1335.20 4353.20" xmlns="http://www.w3.org/2000/svg" xmlns:xlink="http://www.w3.org/1999/xlink">
<g id="graph0" class="graph" transform="scale(1 1) rotate(0) translate(21.6 4331.6)">
<title>Call graph: /home/h02332/po/research/call&#45;graph/iccdev/proflib/IccTagComposite.ll</title>
<polygon fill="white" stroke="transparent" points="-21.6,21.6 -21.6,-4331.6 1313.6,-4331.6 1313.6,21.6 -21.6,21.6"/>
<!-- Node0x62fcd1bf5e80 -->
<g id="node1" class="node">
<title>Node0x62fcd1bf5e80</title>
<path fill="#f0f4ff" stroke="black" d="M701,-587C701,-587 597,-587 597,-587 591,-587 585,-581 585,-575 585,-575 585,-563 585,-563 585,-557 591,-551 597,-551 597,-551 701,-551 701,-551 707,-551 713,-557 713,-563 713,-563 713,-575 713,-575 713,-581 707,-587 701,-587"/>
<text text-anchor="middle" x="649" y="-566.8" font-family="Courier,monospace" font-size="9.00">IIccStruct::Describe()</text>
</g>
<!-- Node0x62fcd1bf2e40 -->
<g id="node2" class="node">
<title>Node0x62fcd1bf2e40</title>
<path fill="#f0f4ff" stroke="black" d="M955.5,-500C955.5,-500 861.5,-500 861.5,-500 855.5,-500 849.5,-494 849.5,-488 849.5,-488 849.5,-476 849.5,-476 849.5,-470 855.5,-464 861.5,-464 861.5,-464 955.5,-464 955.5,-464 961.5,-464 967.5,-470 967.5,-476 967.5,-476 967.5,-488 967.5,-488 967.5,-494 961.5,-500 955.5,-500"/>
<text text-anchor="middle" x="908.5" y="-479.8" font-family="Courier,monospace" font-size="9.00">CIccInfo::CIccInfo()</text>
</g>
<!-- Node0x62fcd1bf5e80&#45;&gt;Node0x62fcd1bf2e40 -->
<g id="edge1" class="edge">
<title>Node0x62fcd1bf5e80&#45;&gt;Node0x62fcd1bf2e40</title>
<path fill="none" stroke="#4a6fa5" d="M693.21,-550.9C722.95,-538.79 763.51,-522.94 800,-511 813.91,-506.45 828.98,-502.06 843.33,-498.12"/>
<polygon fill="#4a6fa5" stroke="#4a6fa5" points="844.19,-500.07 849.43,-496.47 843.09,-496.01 844.19,-500.07"/>
</g>
<!-- Node0x62fcd1bea210 -->
<g id="node3" class="node">
<title>Node0x62fcd1bea210</title>
<path fill="#f0f4ff" stroke="black" d="M976.5,-616C976.5,-616 840.5,-616 840.5,-616 834.5,-616 828.5,-610 828.5,-604 828.5,-604 828.5,-592 828.5,-592 828.5,-586 834.5,-580 840.5,-580 840.5,-580 976.5,-580 976.5,-580 982.5,-580 988.5,-586 988.5,-592 988.5,-592 988.5,-604 988.5,-604 988.5,-610 982.5,-616 976.5,-616"/>
<text text-anchor="middle" x="908.5" y="-595.8" font-family="Courier,monospace" font-size="9.00">CIccInfo::GetStructSigName()</text>
</g>
<!-- Node0x62fcd1bf5e80&#45;&gt;Node0x62fcd1bea210 -->
<g id="edge2" class="edge">
<title>Node0x62fcd1bf5e80&#45;&gt;Node0x62fcd1bea210</title>
<path fill="none" stroke="#4a6fa5" d="M713.32,-576.13C746.12,-579.83 786.64,-584.39 822.16,-588.39"/>
<polygon fill="#4a6fa5" stroke="#4a6fa5" points="822.07,-590.49 828.27,-589.08 822.54,-586.32 822.07,-590.49"/>
</g>
<!-- Node0x62fcd18c3c40 -->
<g id="node4" class="node">
<title>Node0x62fcd18c3c40</title>
<path fill="#f0f4ff" stroke="black" d="M958,-442C958,-442 859,-442 859,-442 853,-442 847,-436 847,-430 847,-430 847,-418 847,-418 847,-412 853,-406 859,-406 859,-406 958,-406 958,-406 964,-406 970,-412 970,-418 970,-418 970,-430 970,-430 970,-436 964,-442 958,-442"/>
<text text-anchor="middle" x="908.5" y="-421.8" font-family="Courier,monospace" font-size="9.00">CIccInfo::~CIccInfo()</text>
</g>
<!-- Node0x62fcd1bf5e80&#45;&gt;Node0x62fcd18c3c40 -->
<g id="edge3" class="edge">
<title>Node0x62fcd1bf5e80&#45;&gt;Node0x62fcd18c3c40</title>
<path fill="none" stroke="#4a6fa5" d="M682.7,-550.81C700.83,-540.13 723.41,-525.85 742,-511 770.48,-488.25 768.44,-471.25 800,-453 812.44,-445.8 826.73,-440.34 840.74,-436.21"/>
<polygon fill="#4a6fa5" stroke="#4a6fa5" points="841.52,-438.17 846.72,-434.52 840.38,-434.13 841.52,-438.17"/>
</g>
<!-- Node0x62fcd1bf0660 -->
<g id="node5" class="node">
<title>Node0x62fcd1bf0660</title>
<path fill="#f0f4ff" stroke="black" d="M1005,-674C1005,-674 812,-674 812,-674 806,-674 800,-668 800,-662 800,-662 800,-650 800,-650 800,-644 806,-638 812,-638 812,-638 1005,-638 1005,-638 1011,-638 1017,-644 1017,-650 1017,-650 1017,-662 1017,-662 1017,-668 1011,-674 1005,-674"/>
<text text-anchor="middle" x="908.5" y="-653.8" font-family="Courier,monospace" font-size="9.00">CIccTagStruct::GetElemList[abi:cxx11]()</text>
</g>
<!-- Node0x62fcd1bf5e80&#45;&gt;Node0x62fcd1bf0660 -->
<g id="edge4" class="edge">
<title>Node0x62fcd1bf5e80&#45;&gt;Node0x62fcd1bf0660</title>
<path fill="none" stroke="#4a6fa5" d="M693.21,-587.1C722.95,-599.21 763.51,-615.06 800,-627 809.75,-630.19 820.08,-633.31 830.33,-636.24"/>
<polygon fill="#4a6fa5" stroke="#4a6fa5" points="830.01,-638.33 836.35,-637.94 831.15,-634.29 830.01,-638.33"/>
</g>
<!-- Node0x62fcd190eec0 -->
<g id="node6" class="node">
<title>Node0x62fcd190eec0</title>
<path fill="#f0f4ff" stroke="black" d="M242.5,-790C242.5,-790 22.5,-790 22.5,-790 16.5,-790 10.5,-784 10.5,-778 10.5,-778 10.5,-766 10.5,-766 10.5,-760 16.5,-754 22.5,-754 22.5,-754 242.5,-754 242.5,-754 248.5,-754 254.5,-760 254.5,-766 254.5,-766 254.5,-778 254.5,-778 254.5,-784 248.5,-790 242.5,-790"/>
<text text-anchor="middle" x="132.5" y="-769.8" font-family="Courier,monospace" font-size="9.00">IIccStruct::getTagEntries[abi:cxx11]() const</text>
</g>
<!-- Node0x62fcd18fb710 -->
<g id="node7" class="node">
<title>Node0x62fcd18fb710</title>
<path fill="#f0f4ff" stroke="black" d="M205.5,-1294C205.5,-1294 59.5,-1294 59.5,-1294 53.5,-1294 47.5,-1288 47.5,-1282 47.5,-1282 47.5,-1270 47.5,-1270 47.5,-1264 53.5,-1258 59.5,-1258 59.5,-1258 205.5,-1258 205.5,-1258 211.5,-1258 217.5,-1264 217.5,-1270 217.5,-1270 217.5,-1282 217.5,-1282 217.5,-1288 211.5,-1294 205.5,-1294"/>
<text text-anchor="middle" x="132.5" y="-1273.8" font-family="Courier,monospace" font-size="9.00">CIccTagStruct::CIccTagStruct()</text>
</g>
<!-- Node0x62fcd195a8c0 -->
<g id="node8" class="node">
<title>Node0x62fcd195a8c0</title>
<path fill="#f0f4ff" stroke="black" d="M452,-1410C452,-1410 369,-1410 369,-1410 363,-1410 357,-1404 357,-1398 357,-1398 357,-1386 357,-1386 357,-1380 363,-1374 369,-1374 369,-1374 452,-1374 452,-1374 458,-1374 464,-1380 464,-1386 464,-1386 464,-1398 464,-1398 464,-1404 458,-1410 452,-1410"/>
<text text-anchor="middle" x="410.5" y="-1389.8" font-family="Courier,monospace" font-size="9.00">CIccTag::CIccTag()</text>
</g>
<!-- Node0x62fcd18fb710&#45;&gt;Node0x62fcd195a8c0 -->
<g id="edge5" class="edge">
<title>Node0x62fcd18fb710&#45;&gt;Node0x62fcd195a8c0</title>
<path fill="none" stroke="#4a6fa5" d="M217.51,-1290.25C233.56,-1294.16 250.02,-1299.02 265,-1305 287.55,-1314 341.53,-1347.85 376.75,-1370.58"/>
<polygon fill="#4a6fa5" stroke="#4a6fa5" points="375.63,-1372.35 381.8,-1373.84 377.91,-1368.82 375.63,-1372.35"/>
</g>
<!-- Node0x62fcd1972120 -->
<g id="node9" class="node">
<title>Node0x62fcd1972120</title>
<path fill="#f0f4ff" stroke="black" d="M454.5,-1323C454.5,-1323 366.5,-1323 366.5,-1323 360.5,-1323 354.5,-1317 354.5,-1311 354.5,-1311 354.5,-1299 354.5,-1299 354.5,-1293 360.5,-1287 366.5,-1287 366.5,-1287 454.5,-1287 454.5,-1287 460.5,-1287 466.5,-1293 466.5,-1299 466.5,-1299 466.5,-1311 466.5,-1311 466.5,-1317 460.5,-1323 454.5,-1323"/>
<text text-anchor="middle" x="410.5" y="-1302.8" font-family="Courier,monospace" font-size="9.00">CIccTag::~CIccTag()</text>
</g>
<!-- Node0x62fcd18fb710&#45;&gt;Node0x62fcd1972120 -->
<g id="edge6" class="edge">
<title>Node0x62fcd18fb710&#45;&gt;Node0x62fcd1972120</title>
<path fill="none" stroke="#4a6fa5" d="M217.81,-1284.86C259.94,-1289.29 309.99,-1294.54 348.38,-1298.58"/>
<polygon fill="#4a6fa5" stroke="#4a6fa5" points="348.25,-1300.68 354.43,-1299.21 348.69,-1296.5 348.25,-1300.68"/>
</g>
<!-- Node0x62fcd1a79980 -->
<g id="node10" class="node">
<title>Node0x62fcd1a79980</title>
<path fill="#f0f4ff" stroke="black" d="M205.5,-1468C205.5,-1468 59.5,-1468 59.5,-1468 53.5,-1468 47.5,-1462 47.5,-1456 47.5,-1456 47.5,-1444 47.5,-1444 47.5,-1438 53.5,-1432 59.5,-1432 59.5,-1432 205.5,-1432 205.5,-1432 211.5,-1432 217.5,-1438 217.5,-1444 217.5,-1444 217.5,-1456 217.5,-1456 217.5,-1462 211.5,-1468 205.5,-1468"/>
<text text-anchor="middle" x="132.5" y="-1447.8" font-family="Courier,monospace" font-size="9.00">CIccTagStruct::CIccTagStruct()</text>
</g>
<!-- Node0x62fcd1a79980&#45;&gt;Node0x62fcd195a8c0 -->
<g id="edge7" class="edge">
<title>Node0x62fcd1a79980&#45;&gt;Node0x62fcd195a8c0</title>
<path fill="none" stroke="#4a6fa5" d="M217.81,-1432.28C260.85,-1423.24 312.14,-1412.46 350.83,-1404.33"/>
<polygon fill="#4a6fa5" stroke="#4a6fa5" points="351.49,-1406.34 356.93,-1403.05 350.62,-1402.23 351.49,-1406.34"/>
</g>
<!-- Node0x62fcd1a79980&#45;&gt;Node0x62fcd1972120 -->
<g id="edge8" class="edge">
<title>Node0x62fcd1a79980&#45;&gt;Node0x62fcd1972120</title>
<path fill="none" stroke="#4a6fa5" d="M217.81,-1438.86C234.08,-1434.68 250.55,-1428.92 265,-1421 296.97,-1403.48 294.84,-1386.15 323,-1363 338.94,-1349.9 357.85,-1336.95 373.92,-1326.63"/>
<polygon fill="#4a6fa5" stroke="#4a6fa5" points="375.32,-1328.23 379.26,-1323.23 373.07,-1324.68 375.32,-1328.23"/>
</g>
<!-- Node0x62fcd181dac0 -->
<g id="node11" class="node">
<title>Node0x62fcd181dac0</title>
<path fill="#f0f4ff" stroke="black" d="M247.5,-1120C247.5,-1120 17.5,-1120 17.5,-1120 11.5,-1120 5.5,-1114 5.5,-1108 5.5,-1108 5.5,-1096 5.5,-1096 5.5,-1090 11.5,-1084 17.5,-1084 17.5,-1084 247.5,-1084 247.5,-1084 253.5,-1084 259.5,-1090 259.5,-1096 259.5,-1096 259.5,-1108 259.5,-1108 259.5,-1114 253.5,-1120 247.5,-1120"/>
<text text-anchor="middle" x="132.5" y="-1099.8" font-family="Courier,monospace" font-size="9.00">CIccTagStruct::operator=(CIccTagStruct const&amp;)</text>
</g>
<!-- Node0x62fcd181fe60 -->
<g id="node12" class="node">
<title>Node0x62fcd181fe60</title>
<path fill="#f0f4ff" stroke="black" d="M468,-1143C468,-1143 353,-1143 353,-1143 347,-1143 341,-1137 341,-1131 341,-1131 341,-1119 341,-1119 341,-1113 347,-1107 353,-1107 353,-1107 468,-1107 468,-1107 474,-1107 480,-1113 480,-1119 480,-1119 480,-1131 480,-1131 480,-1137 474,-1143 468,-1143"/>
<text text-anchor="middle" x="410.5" y="-1122.8" font-family="Courier,monospace" font-size="9.00">CIccTagStruct::Cleanup()</text>
</g>
<!-- Node0x62fcd181dac0&#45;&gt;Node0x62fcd181fe60 -->
<g id="edge9" class="edge">
<title>Node0x62fcd181dac0&#45;&gt;Node0x62fcd181fe60</title>
<path fill="none" stroke="#4a6fa5" d="M259.79,-1112.52C285.46,-1114.66 311.67,-1116.85 334.84,-1118.78"/>
<polygon fill="#4a6fa5" stroke="#4a6fa5" points="334.82,-1120.88 340.98,-1119.29 335.17,-1116.7 334.82,-1120.88"/>
</g>
<!-- Node0x62fcd1c0dea0 -->
<g id="node13" class="node">
<title>Node0x62fcd1c0dea0</title>
<path fill="#f0f4ff" stroke="black" d="M208,-1236C208,-1236 57,-1236 57,-1236 51,-1236 45,-1230 45,-1224 45,-1224 45,-1212 45,-1212 45,-1206 51,-1200 57,-1200 57,-1200 208,-1200 208,-1200 214,-1200 220,-1206 220,-1212 220,-1212 220,-1224 220,-1224 220,-1230 214,-1236 208,-1236"/>
<text text-anchor="middle" x="132.5" y="-1215.8" font-family="Courier,monospace" font-size="9.00">CIccTagStruct::~CIccTagStruct()</text>
</g>
<!-- Node0x62fcd1c0dea0&#45;&gt;Node0x62fcd1972120 -->
<g id="edge11" class="edge">
<title>Node0x62fcd1c0dea0&#45;&gt;Node0x62fcd1972120</title>
<path fill="none" stroke="#4a6fa5" d="M220.33,-1235.02C235.34,-1238.57 250.7,-1242.59 265,-1247 298.76,-1257.42 335.71,-1272.32 363.8,-1284.41"/>
<polygon fill="#4a6fa5" stroke="#4a6fa5" points="363.31,-1286.48 369.65,-1286.94 364.98,-1282.63 363.31,-1286.48"/>
</g>
<!-- Node0x62fcd1c0dea0&#45;&gt;Node0x62fcd181fe60 -->
<g id="edge10" class="edge">
<title>Node0x62fcd1c0dea0&#45;&gt;Node0x62fcd181fe60</title>
<path fill="none" stroke="#4a6fa5" d="M220.11,-1201.49C235.22,-1197.87 250.67,-1193.7 265,-1189 300.93,-1177.21 340.05,-1159.57 368.51,-1145.79"/>
<polygon fill="#4a6fa5" stroke="#4a6fa5" points="369.59,-1147.6 374.06,-1143.09 367.75,-1143.83 369.59,-1147.6"/>
</g>
<!-- Node0x62fcd1c10c80 -->
<g id="node14" class="node">
<title>Node0x62fcd1c10c80</title>
<path fill="#f0f4ff" stroke="black" d="M208,-1584C208,-1584 57,-1584 57,-1584 51,-1584 45,-1578 45,-1572 45,-1572 45,-1560 45,-1560 45,-1554 51,-1548 57,-1548 57,-1548 208,-1548 208,-1548 214,-1548 220,-1554 220,-1560 220,-1560 220,-1572 220,-1572 220,-1578 214,-1584 208,-1584"/>
<text text-anchor="middle" x="132.5" y="-1563.8" font-family="Courier,monospace" font-size="9.00">CIccTagStruct::~CIccTagStruct()</text>
</g>
<!-- Node0x62fcd1c108c0 -->
<g id="node15" class="node">
<title>Node0x62fcd1c108c0</title>
<path fill="#f0f4ff" stroke="black" d="M730,-1700C730,-1700 568,-1700 568,-1700 562,-1700 556,-1694 556,-1688 556,-1688 556,-1676 556,-1676 556,-1670 562,-1664 568,-1664 568,-1664 730,-1664 730,-1664 736,-1664 742,-1670 742,-1676 742,-1676 742,-1688 742,-1688 742,-1694 736,-1700 730,-1700"/>
<text text-anchor="middle" x="649" y="-1679.8" font-family="Courier,monospace" font-size="9.00">CIccTagStruct::SetTagStructType()</text>
</g>
<!-- Node0x62fcd1c10640 -->
<g id="node16" class="node">
<title>Node0x62fcd1c10640</title>
<path fill="#f0f4ff" stroke="black" d="M989.5,-1671C989.5,-1671 827.5,-1671 827.5,-1671 821.5,-1671 815.5,-1665 815.5,-1659 815.5,-1659 815.5,-1647 815.5,-1647 815.5,-1641 821.5,-1635 827.5,-1635 827.5,-1635 989.5,-1635 989.5,-1635 995.5,-1635 1001.5,-1641 1001.5,-1647 1001.5,-1647 1001.5,-1659 1001.5,-1659 1001.5,-1665 995.5,-1671 989.5,-1671"/>
<text text-anchor="middle" x="908.5" y="-1650.8" font-family="Courier,monospace" font-size="9.00">CIccStructCreator::CreateStruct()</text>
</g>
<!-- Node0x62fcd1c108c0&#45;&gt;Node0x62fcd1c10640 -->
<g id="edge12" class="edge">
<title>Node0x62fcd1c108c0&#45;&gt;Node0x62fcd1c10640</title>
<path fill="none" stroke="#4a6fa5" d="M742.24,-1671.61C764,-1669.16 787.28,-1666.54 809.3,-1664.06"/>
<polygon fill="#4a6fa5" stroke="#4a6fa5" points="809.75,-1666.12 815.48,-1663.36 809.28,-1661.95 809.75,-1666.12"/>
</g>
<!-- Node0x62fcd1c10500 -->
<g id="node17" class="node">
<title>Node0x62fcd1c10500</title>
<path fill="#f0f4ff" stroke="black" d="M1262,-1642C1262,-1642 1105,-1642 1105,-1642 1099,-1642 1093,-1636 1093,-1630 1093,-1630 1093,-1618 1093,-1618 1093,-1612 1099,-1606 1105,-1606 1105,-1606 1262,-1606 1262,-1606 1268,-1606 1274,-1612 1274,-1618 1274,-1618 1274,-1630 1274,-1630 1274,-1636 1268,-1642 1262,-1642"/>
<text text-anchor="middle" x="1183.5" y="-1621.8" font-family="Courier,monospace" font-size="9.00">CIccStructCreator::GetInstance()</text>
</g>
<!-- Node0x62fcd1c10640&#45;&gt;Node0x62fcd1c10500 -->
<g id="edge13" class="edge">
<title>Node0x62fcd1c10640&#45;&gt;Node0x62fcd1c10500</title>
<path fill="none" stroke="#4a6fa5" d="M1001.54,-1643.22C1028.89,-1640.32 1058.9,-1637.13 1086.49,-1634.2"/>
<polygon fill="#4a6fa5" stroke="#4a6fa5" points="1086.96,-1636.26 1092.71,-1633.54 1086.52,-1632.08 1086.96,-1636.26"/>
</g>
<!-- Node0x62fcd1c10280 -->
<g id="node18" class="node">
<title>Node0x62fcd1c10280</title>
<path fill="#f0f4ff" stroke="black" d="M1269.5,-1700C1269.5,-1700 1097.5,-1700 1097.5,-1700 1091.5,-1700 1085.5,-1694 1085.5,-1688 1085.5,-1688 1085.5,-1676 1085.5,-1676 1085.5,-1670 1091.5,-1664 1097.5,-1664 1097.5,-1664 1269.5,-1664 1269.5,-1664 1275.5,-1664 1281.5,-1670 1281.5,-1676 1281.5,-1676 1281.5,-1688 1281.5,-1688 1281.5,-1694 1275.5,-1700 1269.5,-1700"/>
<text text-anchor="middle" x="1183.5" y="-1679.8" font-family="Courier,monospace" font-size="9.00">CIccStructCreator::DoCreateStruct()</text>
</g>
<!-- Node0x62fcd1c10640&#45;&gt;Node0x62fcd1c10280 -->
<g id="edge14" class="edge">
<title>Node0x62fcd1c10640&#45;&gt;Node0x62fcd1c10280</title>
<path fill="none" stroke="#4a6fa5" d="M1001.54,-1662.78C1026.48,-1665.43 1053.64,-1668.31 1079.15,-1671.02"/>
<polygon fill="#4a6fa5" stroke="#4a6fa5" points="1079.06,-1673.12 1085.25,-1671.67 1079.51,-1668.95 1079.06,-1673.12"/>
</g>
<!-- Node0x62fcd1c11900 -->
<g id="node19" class="node">
<title>Node0x62fcd1c11900</title>
<path fill="#f0f4ff" stroke="black" d="M192.5,-1758C192.5,-1758 72.5,-1758 72.5,-1758 66.5,-1758 60.5,-1752 60.5,-1746 60.5,-1746 60.5,-1734 60.5,-1734 60.5,-1728 66.5,-1722 72.5,-1722 72.5,-1722 192.5,-1722 192.5,-1722 198.5,-1722 204.5,-1728 204.5,-1734 204.5,-1734 204.5,-1746 204.5,-1746 204.5,-1752 198.5,-1758 192.5,-1758"/>
<text text-anchor="middle" x="132.5" y="-1737.8" font-family="Courier,monospace" font-size="9.00">CIccTagStruct::ParseMem()</text>
</g>
<!-- Node0x62fcd1c12ec0 -->
<g id="node20" class="node">
<title>Node0x62fcd1c12ec0</title>
<path fill="#f0f4ff" stroke="black" d="M462.5,-1816C462.5,-1816 358.5,-1816 358.5,-1816 352.5,-1816 346.5,-1810 346.5,-1804 346.5,-1804 346.5,-1792 346.5,-1792 346.5,-1786 352.5,-1780 358.5,-1780 358.5,-1780 462.5,-1780 462.5,-1780 468.5,-1780 474.5,-1786 474.5,-1792 474.5,-1792 474.5,-1804 474.5,-1804 474.5,-1810 468.5,-1816 462.5,-1816"/>
<text text-anchor="middle" x="410.5" y="-1795.8" font-family="Courier,monospace" font-size="9.00">CIccMemIO::CIccMemIO()</text>
</g>
<!-- Node0x62fcd1c11900&#45;&gt;Node0x62fcd1c12ec0 -->
<g id="edge15" class="edge">
<title>Node0x62fcd1c11900&#45;&gt;Node0x62fcd1c12ec0</title>
<path fill="none" stroke="#4a6fa5" d="M204.58,-1754.94C246.29,-1763.7 298.76,-1774.73 340.17,-1783.43"/>
<polygon fill="#4a6fa5" stroke="#4a6fa5" points="339.89,-1785.52 346.2,-1784.7 340.76,-1781.41 339.89,-1785.52"/>
</g>
<!-- Node0x62fcd1c12c40 -->
<g id="node21" class="node">
<title>Node0x62fcd1c12c40</title>
<path fill="#f0f4ff" stroke="black" d="M454.5,-1758C454.5,-1758 366.5,-1758 366.5,-1758 360.5,-1758 354.5,-1752 354.5,-1746 354.5,-1746 354.5,-1734 354.5,-1734 354.5,-1728 360.5,-1722 366.5,-1722 366.5,-1722 454.5,-1722 454.5,-1722 460.5,-1722 466.5,-1728 466.5,-1734 466.5,-1734 466.5,-1746 466.5,-1746 466.5,-1752 460.5,-1758 454.5,-1758"/>
<text text-anchor="middle" x="410.5" y="-1737.8" font-family="Courier,monospace" font-size="9.00">CIccMemIO::Attach()</text>
</g>
<!-- Node0x62fcd1c11900&#45;&gt;Node0x62fcd1c12c40 -->
<g id="edge16" class="edge">
<title>Node0x62fcd1c11900&#45;&gt;Node0x62fcd1c12c40</title>
<path fill="none" stroke="#4a6fa5" d="M204.58,-1740C249.03,-1740 305.7,-1740 348.18,-1740"/>
<polygon fill="#4a6fa5" stroke="#4a6fa5" points="348.34,-1742.1 354.34,-1740 348.34,-1737.9 348.34,-1742.1"/>
</g>
<!-- Node0x62fcd1c12b00 -->
<g id="node22" class="node">
<title>Node0x62fcd1c12b00</title>
<path fill="#f0f4ff" stroke="black" d="M465,-1700C465,-1700 356,-1700 356,-1700 350,-1700 344,-1694 344,-1688 344,-1688 344,-1676 344,-1676 344,-1670 350,-1664 356,-1664 356,-1664 465,-1664 465,-1664 471,-1664 477,-1670 477,-1676 477,-1676 477,-1688 477,-1688 477,-1694 471,-1700 465,-1700"/>
<text text-anchor="middle" x="410.5" y="-1679.8" font-family="Courier,monospace" font-size="9.00">CIccMemIO::~CIccMemIO()</text>
</g>
<!-- Node0x62fcd1c11900&#45;&gt;Node0x62fcd1c12b00 -->
<g id="edge17" class="edge">
<title>Node0x62fcd1c11900&#45;&gt;Node0x62fcd1c12b00</title>
<path fill="none" stroke="#4a6fa5" d="M204.58,-1725.06C245.53,-1716.46 296.85,-1705.67 337.89,-1697.05"/>
<polygon fill="#4a6fa5" stroke="#4a6fa5" points="338.43,-1699.08 343.87,-1695.79 337.57,-1694.97 338.43,-1699.08"/>
</g>
<!-- Node0x62fcd1c12100 -->
<g id="node23" class="node">
<title>Node0x62fcd1c12100</title>
<path fill="#f0f4ff" stroke="black" d="M709,-1555C709,-1555 589,-1555 589,-1555 583,-1555 577,-1549 577,-1543 577,-1543 577,-1531 577,-1531 577,-1525 583,-1519 589,-1519 589,-1519 709,-1519 709,-1519 715,-1519 721,-1525 721,-1531 721,-1531 721,-1543 721,-1543 721,-1549 715,-1555 709,-1555"/>
<text text-anchor="middle" x="649" y="-1534.8" font-family="Courier,monospace" font-size="9.00">CIccTagStruct::Describe()</text>
</g>
<!-- Node0x62fcd1c12100&#45;&gt;Node0x62fcd1c10640 -->
<g id="edge20" class="edge">
<title>Node0x62fcd1c12100&#45;&gt;Node0x62fcd1c10640</title>
<path fill="none" stroke="#4a6fa5" d="M679.18,-1555.15C715.56,-1577.57 775.89,-1613.96 800,-1624 807.97,-1627.32 816.44,-1630.37 824.98,-1633.13"/>
<polygon fill="#4a6fa5" stroke="#4a6fa5" points="824.55,-1635.2 830.91,-1635 825.82,-1631.19 824.55,-1635.2"/>
</g>
<!-- Node0x62fcd1c13dc0 -->
<g id="node24" class="node">
<title>Node0x62fcd1c13dc0</title>
<path fill="#f0f4ff" stroke="black" d="M1000,-1613C1000,-1613 817,-1613 817,-1613 811,-1613 805,-1607 805,-1601 805,-1601 805,-1589 805,-1589 805,-1583 811,-1577 817,-1577 817,-1577 1000,-1577 1000,-1577 1006,-1577 1012,-1583 1012,-1589 1012,-1589 1012,-1601 1012,-1601 1012,-1607 1006,-1613 1000,-1613"/>
<text text-anchor="middle" x="908.5" y="-1592.8" font-family="Courier,monospace" font-size="9.00">CIccStructCreator::GetStructSigName()</text>
</g>
<!-- Node0x62fcd1c12100&#45;&gt;Node0x62fcd1c13dc0 -->
<g id="edge18" class="edge">
<title>Node0x62fcd1c12100&#45;&gt;Node0x62fcd1c13dc0</title>
<path fill="none" stroke="#4a6fa5" d="M721.04,-1553C752.02,-1559.98 788.6,-1568.22 821.13,-1575.55"/>
<polygon fill="#4a6fa5" stroke="#4a6fa5" points="820.84,-1577.63 827.15,-1576.9 821.76,-1573.54 820.84,-1577.63"/>
</g>
<!-- Node0x62fcd1c147c0 -->
<g id="node25" class="node">
<title>Node0x62fcd1c147c0</title>
<path fill="#f0f4ff" stroke="black" d="M1005,-1555C1005,-1555 812,-1555 812,-1555 806,-1555 800,-1549 800,-1543 800,-1543 800,-1531 800,-1531 800,-1525 806,-1519 812,-1519 812,-1519 1005,-1519 1005,-1519 1011,-1519 1017,-1525 1017,-1531 1017,-1531 1017,-1543 1017,-1543 1017,-1549 1011,-1555 1005,-1555"/>
<text text-anchor="middle" x="908.5" y="-1534.8" font-family="Courier,monospace" font-size="9.00">CIccStructUnknown::~CIccStructUnknown()</text>
</g>
<!-- Node0x62fcd1c12100&#45;&gt;Node0x62fcd1c147c0 -->
<g id="edge19" class="edge">
<title>Node0x62fcd1c12100&#45;&gt;Node0x62fcd1c147c0</title>
<path fill="none" stroke="#4a6fa5" d="M721.04,-1537C743.41,-1537 768.71,-1537 793.3,-1537"/>
<polygon fill="#4a6fa5" stroke="#4a6fa5" points="793.53,-1539.1 799.53,-1537 793.53,-1534.9 793.53,-1539.1"/>
</g>
<!-- Node0x62fcd1c14cc0 -->
<g id="node26" class="node">
<title>Node0x62fcd1c14cc0</title>
<path fill="#f0f4ff" stroke="black" d="M979,-1497C979,-1497 838,-1497 838,-1497 832,-1497 826,-1491 826,-1485 826,-1485 826,-1473 826,-1473 826,-1467 832,-1461 838,-1461 838,-1461 979,-1461 979,-1461 985,-1461 991,-1467 991,-1473 991,-1473 991,-1485 991,-1485 991,-1491 985,-1497 979,-1497"/>
<text text-anchor="middle" x="908.5" y="-1476.8" font-family="Courier,monospace" font-size="9.00">CIccStructUnknown::Describe()</text>
</g>
<!-- Node0x62fcd1c12100&#45;&gt;Node0x62fcd1c14cc0 -->
<g id="edge21" class="edge">
<title>Node0x62fcd1c12100&#45;&gt;Node0x62fcd1c14cc0</title>
<path fill="none" stroke="#4a6fa5" d="M721.04,-1521C752.02,-1514.02 788.6,-1505.78 821.13,-1498.45"/>
<polygon fill="#4a6fa5" stroke="#4a6fa5" points="821.76,-1500.46 827.15,-1497.1 820.84,-1496.37 821.76,-1500.46"/>
</g>
<!-- Node0x62fcd1c14f40 -->
<g id="node27" class="node">
<title>Node0x62fcd1c14f40</title>
<path fill="#f0f4ff" stroke="black" d="M1002.5,-1439C1002.5,-1439 814.5,-1439 814.5,-1439 808.5,-1439 802.5,-1433 802.5,-1427 802.5,-1427 802.5,-1415 802.5,-1415 802.5,-1409 808.5,-1403 814.5,-1403 814.5,-1403 1002.5,-1403 1002.5,-1403 1008.5,-1403 1014.5,-1409 1014.5,-1415 1014.5,-1415 1014.5,-1427 1014.5,-1427 1014.5,-1433 1008.5,-1439 1002.5,-1439"/>
<text text-anchor="middle" x="908.5" y="-1418.8" font-family="Courier,monospace" font-size="9.00">CIccStructUnknown::CIccStructUnknown()</text>
</g>
<!-- Node0x62fcd1c12100&#45;&gt;Node0x62fcd1c14f40 -->
<g id="edge22" class="edge">
<title>Node0x62fcd1c12100&#45;&gt;Node0x62fcd1c14f40</title>
<path fill="none" stroke="#4a6fa5" d="M676.27,-1518.9C705.38,-1499.53 754.28,-1469.04 800,-1450 807.97,-1446.68 816.44,-1443.63 824.98,-1440.87"/>
<polygon fill="#4a6fa5" stroke="#4a6fa5" points="825.82,-1442.81 830.91,-1439 824.55,-1438.8 825.82,-1442.81"/>
</g>
<!-- Node0x62fcd1c13dc0&#45;&gt;Node0x62fcd1c10500 -->
<g id="edge23" class="edge">
<title>Node0x62fcd1c13dc0&#45;&gt;Node0x62fcd1c10500</title>
<path fill="none" stroke="#4a6fa5" d="M1012.32,-1605.92C1036.7,-1608.51 1062.62,-1611.27 1086.68,-1613.82"/>
<polygon fill="#4a6fa5" stroke="#4a6fa5" points="1086.56,-1615.92 1092.75,-1614.47 1087.01,-1611.74 1086.56,-1615.92"/>
</g>
<!-- Node0x62fcd1c15800 -->
<g id="node30" class="node">
<title>Node0x62fcd1c15800</title>
<path fill="#f0f4ff" stroke="black" d="M1280,-1584C1280,-1584 1087,-1584 1087,-1584 1081,-1584 1075,-1578 1075,-1572 1075,-1572 1075,-1560 1075,-1560 1075,-1554 1081,-1548 1087,-1548 1087,-1548 1280,-1548 1280,-1548 1286,-1548 1292,-1554 1292,-1560 1292,-1560 1292,-1572 1292,-1572 1292,-1578 1286,-1584 1280,-1584"/>
<text text-anchor="middle" x="1183.5" y="-1563.8" font-family="Courier,monospace" font-size="9.00">CIccStructCreator::DoGetStructSigName()</text>
</g>
<!-- Node0x62fcd1c13dc0&#45;&gt;Node0x62fcd1c15800 -->
<g id="edge24" class="edge">
<title>Node0x62fcd1c13dc0&#45;&gt;Node0x62fcd1c15800</title>
<path fill="none" stroke="#4a6fa5" d="M1012.32,-1584.08C1030.65,-1582.13 1049.85,-1580.09 1068.47,-1578.11"/>
<polygon fill="#4a6fa5" stroke="#4a6fa5" points="1069.02,-1580.17 1074.76,-1577.44 1068.58,-1575.99 1069.02,-1580.17"/>
</g>
<!-- Node0x62fcd1c59770 -->
<g id="node28" class="node">
<title>Node0x62fcd1c59770</title>
<path fill="#f0f4ff" stroke="black" d="M197.5,-1816C197.5,-1816 67.5,-1816 67.5,-1816 61.5,-1816 55.5,-1810 55.5,-1804 55.5,-1804 55.5,-1792 55.5,-1792 55.5,-1786 61.5,-1780 67.5,-1780 67.5,-1780 197.5,-1780 197.5,-1780 203.5,-1780 209.5,-1786 209.5,-1792 209.5,-1792 209.5,-1804 209.5,-1804 209.5,-1810 203.5,-1816 197.5,-1816"/>
<text text-anchor="middle" x="132.5" y="-1795.8" font-family="Courier,monospace" font-size="9.00">CIccTag::GetTagStructType()</text>
</g>
<!-- Node0x62fcd1c577e0 -->
<g id="node29" class="node">
<title>Node0x62fcd1c577e0</title>
<path fill="#f0f4ff" stroke="black" d="M208,-1874C208,-1874 57,-1874 57,-1874 51,-1874 45,-1868 45,-1862 45,-1862 45,-1850 45,-1850 45,-1844 51,-1838 57,-1838 57,-1838 208,-1838 208,-1838 214,-1838 220,-1844 220,-1850 220,-1850 220,-1862 220,-1862 220,-1868 214,-1874 208,-1874"/>
<text text-anchor="middle" x="132.5" y="-1853.8" font-family="Courier,monospace" font-size="9.00">CIccTagArray::GetTagArrayType()</text>
</g>
<!-- Node0x62fcd1c0dce0 -->
<g id="node31" class="node">
<title>Node0x62fcd1c0dce0</title>
<path fill="#f0f4ff" stroke="black" d="M182,-1062C182,-1062 83,-1062 83,-1062 77,-1062 71,-1056 71,-1050 71,-1050 71,-1038 71,-1038 71,-1032 77,-1026 83,-1026 83,-1026 182,-1026 182,-1026 188,-1026 194,-1032 194,-1038 194,-1038 194,-1050 194,-1050 194,-1056 188,-1062 182,-1062"/>
<text text-anchor="middle" x="132.5" y="-1041.8" font-family="Courier,monospace" font-size="9.00">CIccTagStruct::Read()</text>
</g>
<!-- Node0x62fcd1c0dce0&#45;&gt;Node0x62fcd181fe60 -->
<g id="edge25" class="edge">
<title>Node0x62fcd1c0dce0&#45;&gt;Node0x62fcd181fe60</title>
<path fill="none" stroke="#4a6fa5" d="M194.26,-1055.27C216.69,-1059.99 242.2,-1066.01 265,-1073 291.51,-1081.12 296.96,-1086.48 323,-1096 331.1,-1098.96 339.66,-1101.97 348.13,-1104.88"/>
<polygon fill="#4a6fa5" stroke="#4a6fa5" points="347.61,-1106.93 353.97,-1106.88 348.97,-1102.95 347.61,-1106.93"/>
</g>
<!-- Node0x62fcd1c0d7d0 -->
<g id="node32" class="node">
<title>Node0x62fcd1c0d7d0</title>
<path fill="#f0f4ff" stroke="black" d="M685.5,-1030C685.5,-1030 612.5,-1030 612.5,-1030 606.5,-1030 600.5,-1024 600.5,-1018 600.5,-1018 600.5,-1006 600.5,-1006 600.5,-1000 606.5,-994 612.5,-994 612.5,-994 685.5,-994 685.5,-994 691.5,-994 697.5,-1000 697.5,-1006 697.5,-1006 697.5,-1018 697.5,-1018 697.5,-1024 691.5,-1030 685.5,-1030"/>
<text text-anchor="middle" x="649" y="-1009.8" font-family="Courier,monospace" font-size="9.00">CIccIO::Read32()</text>
</g>
<!-- Node0x62fcd1c0dce0&#45;&gt;Node0x62fcd1c0d7d0 -->
<g id="edge26" class="edge">
<title>Node0x62fcd1c0dce0&#45;&gt;Node0x62fcd1c0d7d0</title>
<path fill="none" stroke="#4a6fa5" d="M194.03,-1040.24C295.27,-1033.94 497.34,-1021.37 594.03,-1015.36"/>
<polygon fill="#4a6fa5" stroke="#4a6fa5" points="594.38,-1017.44 600.24,-1014.97 594.12,-1013.25 594.38,-1017.44"/>
</g>
<!-- Node0x62fcd1c10e80 -->
<g id="node33" class="node">
<title>Node0x62fcd1c10e80</title>
<path fill="#f0f4ff" stroke="black" d="M470.5,-1085C470.5,-1085 350.5,-1085 350.5,-1085 344.5,-1085 338.5,-1079 338.5,-1073 338.5,-1073 338.5,-1061 338.5,-1061 338.5,-1055 344.5,-1049 350.5,-1049 350.5,-1049 470.5,-1049 470.5,-1049 476.5,-1049 482.5,-1055 482.5,-1061 482.5,-1061 482.5,-1073 482.5,-1073 482.5,-1079 476.5,-1085 470.5,-1085"/>
<text text-anchor="middle" x="410.5" y="-1064.8" font-family="Courier,monospace" font-size="9.00">CIccTagStruct::LoadElem()</text>
</g>
<!-- Node0x62fcd1c0dce0&#45;&gt;Node0x62fcd1c10e80 -->
<g id="edge27" class="edge">
<title>Node0x62fcd1c0dce0&#45;&gt;Node0x62fcd1c10e80</title>
<path fill="none" stroke="#4a6fa5" d="M194.07,-1049.05C234.69,-1052.43 288.53,-1056.92 332.23,-1060.56"/>
<polygon fill="#4a6fa5" stroke="#4a6fa5" points="332.17,-1062.66 338.33,-1061.07 332.52,-1058.48 332.17,-1062.66"/>
</g>
<!-- Node0x62fcd1c10e80&#45;&gt;Node0x62fcd1c0d7d0 -->
<g id="edge28" class="edge">
<title>Node0x62fcd1c10e80&#45;&gt;Node0x62fcd1c0d7d0</title>
<path fill="none" stroke="#4a6fa5" d="M482.78,-1050.42C518.63,-1042.09 561.36,-1032.15 594.38,-1024.47"/>
<polygon fill="#4a6fa5" stroke="#4a6fa5" points="595.06,-1026.47 600.43,-1023.06 594.11,-1022.38 595.06,-1026.47"/>
</g>
<!-- Node0x62fcd1c11240 -->
<g id="node34" class="node">
<title>Node0x62fcd1c11240</title>
<path fill="#f0f4ff" stroke="black" d="M688,-1088C688,-1088 610,-1088 610,-1088 604,-1088 598,-1082 598,-1076 598,-1076 598,-1064 598,-1064 598,-1058 604,-1052 610,-1052 610,-1052 688,-1052 688,-1052 694,-1052 700,-1058 700,-1064 700,-1064 700,-1076 700,-1076 700,-1082 694,-1088 688,-1088"/>
<text text-anchor="middle" x="649" y="-1067.8" font-family="Courier,monospace" font-size="9.00">CIccTag::Create()</text>
</g>
<!-- Node0x62fcd1c10e80&#45;&gt;Node0x62fcd1c11240 -->
<g id="edge29" class="edge">
<title>Node0x62fcd1c10e80&#45;&gt;Node0x62fcd1c11240</title>
<path fill="none" stroke="#4a6fa5" d="M482.78,-1067.9C517.59,-1068.35 558.88,-1068.87 591.48,-1069.28"/>
<polygon fill="#4a6fa5" stroke="#4a6fa5" points="591.85,-1071.39 597.88,-1069.36 591.9,-1067.19 591.85,-1071.39"/>
</g>
<!-- Node0x62fcd1c0cb90 -->
<g id="node35" class="node">
<title>Node0x62fcd1c0cb90</title>
<path fill="#f0f4ff" stroke="black" d="M184.5,-1990C184.5,-1990 80.5,-1990 80.5,-1990 74.5,-1990 68.5,-1984 68.5,-1978 68.5,-1978 68.5,-1966 68.5,-1966 68.5,-1960 74.5,-1954 80.5,-1954 80.5,-1954 184.5,-1954 184.5,-1954 190.5,-1954 196.5,-1960 196.5,-1966 196.5,-1966 196.5,-1978 196.5,-1978 196.5,-1984 190.5,-1990 184.5,-1990"/>
<text text-anchor="middle" x="132.5" y="-1969.8" font-family="Courier,monospace" font-size="9.00">CIccTagStruct::Write()</text>
</g>
<!-- Node0x62fcd1c0ccd0 -->
<g id="node36" class="node">
<title>Node0x62fcd1c0ccd0</title>
<path fill="#f0f4ff" stroke="black" d="M449.5,-1990C449.5,-1990 371.5,-1990 371.5,-1990 365.5,-1990 359.5,-1984 359.5,-1978 359.5,-1978 359.5,-1966 359.5,-1966 359.5,-1960 365.5,-1954 371.5,-1954 371.5,-1954 449.5,-1954 449.5,-1954 455.5,-1954 461.5,-1960 461.5,-1966 461.5,-1966 461.5,-1978 461.5,-1978 461.5,-1984 455.5,-1990 449.5,-1990"/>
<text text-anchor="middle" x="410.5" y="-1969.8" font-family="Courier,monospace" font-size="9.00">CIccIO::Write32()</text>
</g>
<!-- Node0x62fcd1c0cb90&#45;&gt;Node0x62fcd1c0ccd0 -->
<g id="edge30" class="edge">
<title>Node0x62fcd1c0cb90&#45;&gt;Node0x62fcd1c0ccd0</title>
<path fill="none" stroke="#4a6fa5" d="M196.82,-1972C244.04,-1972 307.94,-1972 353.35,-1972"/>
<polygon fill="#4a6fa5" stroke="#4a6fa5" points="353.35,-1974.1 359.35,-1972 353.35,-1969.9 353.35,-1974.1"/>
</g>
<!-- Node0x62fcd1c0f180 -->
<g id="node37" class="node">
<title>Node0x62fcd1c0f180</title>
<path fill="#f0f4ff" stroke="black" d="M449.5,-1932C449.5,-1932 371.5,-1932 371.5,-1932 365.5,-1932 359.5,-1926 359.5,-1920 359.5,-1920 359.5,-1908 359.5,-1908 359.5,-1902 365.5,-1896 371.5,-1896 371.5,-1896 449.5,-1896 449.5,-1896 455.5,-1896 461.5,-1902 461.5,-1908 461.5,-1908 461.5,-1920 461.5,-1920 461.5,-1926 455.5,-1932 449.5,-1932"/>
<text text-anchor="middle" x="410.5" y="-1911.8" font-family="Courier,monospace" font-size="9.00">CIccIO::Align32()</text>
</g>
<!-- Node0x62fcd1c0cb90&#45;&gt;Node0x62fcd1c0f180 -->
<g id="edge31" class="edge">
<title>Node0x62fcd1c0cb90&#45;&gt;Node0x62fcd1c0f180</title>
<path fill="none" stroke="#4a6fa5" d="M196.82,-1958.69C244.04,-1948.77 307.94,-1935.34 353.35,-1925.8"/>
<polygon fill="#4a6fa5" stroke="#4a6fa5" points="353.91,-1927.83 359.35,-1924.54 353.04,-1923.72 353.91,-1927.83"/>
</g>
<!-- Node0x62fcd1c0f7c0 -->
<g id="node38" class="node">
<title>Node0x62fcd1c0f7c0</title>
<path fill="#f0f4ff" stroke="black" d="M709,-326C709,-326 589,-326 589,-326 583,-326 577,-320 577,-314 577,-314 577,-302 577,-302 577,-296 583,-290 589,-290 589,-290 709,-290 709,-290 715,-290 721,-296 721,-302 721,-302 721,-314 721,-314 721,-320 715,-326 709,-326"/>
<text text-anchor="middle" x="649" y="-305.8" font-family="Courier,monospace" font-size="9.00">CIccTagStruct::Validate()</text>
</g>
<!-- Node0x62fcd1c0f7c0&#45;&gt;Node0x62fcd1bf2e40 -->
<g id="edge33" class="edge">
<title>Node0x62fcd1c0f7c0&#45;&gt;Node0x62fcd1bf2e40</title>
<path fill="none" stroke="#4a6fa5" d="M663.59,-326.15C687.64,-356.95 740.77,-419.4 800,-453 813.28,-460.54 828.61,-466.18 843.45,-470.39"/>
<polygon fill="#4a6fa5" stroke="#4a6fa5" points="842.99,-472.44 849.33,-471.99 844.09,-468.39 842.99,-472.44"/>
</g>
<!-- Node0x62fcd1c0f7c0&#45;&gt;Node0x62fcd18c3c40 -->
<g id="edge34" class="edge">
<title>Node0x62fcd1c0f7c0&#45;&gt;Node0x62fcd18c3c40</title>
<path fill="none" stroke="#4a6fa5" d="M676.27,-326.1C705.38,-345.47 754.28,-375.96 800,-395 812.96,-400.4 827.22,-405.06 841,-408.98"/>
<polygon fill="#4a6fa5" stroke="#4a6fa5" points="840.52,-411.03 846.87,-410.62 841.65,-406.99 840.52,-411.03"/>
</g>
<!-- Node0x62fcd1c13700 -->
<g id="node39" class="node">
<title>Node0x62fcd1c13700</title>
<path fill="#f0f4ff" stroke="black" d="M952.5,-268C952.5,-268 864.5,-268 864.5,-268 858.5,-268 852.5,-262 852.5,-256 852.5,-256 852.5,-244 852.5,-244 852.5,-238 858.5,-232 864.5,-232 864.5,-232 952.5,-232 952.5,-232 958.5,-232 964.5,-238 964.5,-244 964.5,-244 964.5,-256 964.5,-256 964.5,-262 958.5,-268 952.5,-268"/>
<text text-anchor="middle" x="908.5" y="-247.8" font-family="Courier,monospace" font-size="9.00">CIccTag::Validate()</text>
</g>
<!-- Node0x62fcd1c0f7c0&#45;&gt;Node0x62fcd1c13700 -->
<g id="edge32" class="edge">
<title>Node0x62fcd1c0f7c0&#45;&gt;Node0x62fcd1c13700</title>
<path fill="none" stroke="#4a6fa5" d="M721.04,-292C760.33,-283.15 808.65,-272.27 846.25,-263.8"/>
<polygon fill="#4a6fa5" stroke="#4a6fa5" points="846.8,-265.82 852.19,-262.46 845.88,-261.73 846.8,-265.82"/>
</g>
<!-- Node0x62fcd1c0ca50 -->
<g id="node40" class="node">
<title>Node0x62fcd1c0ca50</title>
<path fill="#f0f4ff" stroke="black" d="M971,-210C971,-210 846,-210 846,-210 840,-210 834,-204 834,-198 834,-198 834,-186 834,-186 834,-180 840,-174 846,-174 846,-174 971,-174 971,-174 977,-174 983,-180 983,-186 983,-186 983,-198 983,-198 983,-204 977,-210 971,-210"/>
<text text-anchor="middle" x="908.5" y="-189.8" font-family="Courier,monospace" font-size="9.00">CIccInfo::GetSigPathName()</text>
</g>
<!-- Node0x62fcd1c0f7c0&#45;&gt;Node0x62fcd1c0ca50 -->
<g id="edge35" class="edge">
<title>Node0x62fcd1c0f7c0&#45;&gt;Node0x62fcd1c0ca50</title>
<path fill="none" stroke="#4a6fa5" d="M679.18,-289.85C715.56,-267.43 775.89,-231.04 800,-221 808.87,-217.31 818.34,-213.96 827.85,-210.95"/>
<polygon fill="#4a6fa5" stroke="#4a6fa5" points="828.66,-212.9 833.78,-209.13 827.42,-208.89 828.66,-212.9"/>
</g>
<!-- Node0x62fcd1c12d00 -->
<g id="node41" class="node">
<title>Node0x62fcd1c12d00</title>
<path fill="#f0f4ff" stroke="black" d="M984,-384C984,-384 833,-384 833,-384 827,-384 821,-378 821,-372 821,-372 821,-360 821,-360 821,-354 827,-348 833,-348 833,-348 984,-348 984,-348 990,-348 996,-354 996,-360 996,-360 996,-372 996,-372 996,-378 990,-384 984,-384"/>
<text text-anchor="middle" x="908.5" y="-363.8" font-family="Courier,monospace" font-size="9.00">CIccTagStruct::AreElemsUnique()</text>
</g>
<!-- Node0x62fcd1c0f7c0&#45;&gt;Node0x62fcd1c12d00 -->
<g id="edge36" class="edge">
<title>Node0x62fcd1c0f7c0&#45;&gt;Node0x62fcd1c12d00</title>
<path fill="none" stroke="#4a6fa5" d="M721.04,-324C752.02,-330.98 788.6,-339.22 821.13,-346.55"/>
<polygon fill="#4a6fa5" stroke="#4a6fa5" points="820.84,-348.63 827.15,-347.9 821.76,-344.54 820.84,-348.63"/>
</g>
<!-- Node0x62fcd1c13ac0 -->
<g id="node42" class="node">
<title>Node0x62fcd1c13ac0</title>
<path fill="#f0f4ff" stroke="black" d="M937,-152C937,-152 880,-152 880,-152 874,-152 868,-146 868,-140 868,-140 868,-128 868,-128 868,-122 874,-116 880,-116 880,-116 937,-116 937,-116 943,-116 949,-122 949,-128 949,-128 949,-140 949,-140 949,-146 943,-152 937,-152"/>
<text text-anchor="middle" x="908.5" y="-131.8" font-family="Courier,monospace" font-size="9.00">icMaxStatus()</text>
</g>
<!-- Node0x62fcd1c0f7c0&#45;&gt;Node0x62fcd1c13ac0 -->
<g id="edge37" class="edge">
<title>Node0x62fcd1c0f7c0&#45;&gt;Node0x62fcd1c13ac0</title>
<path fill="none" stroke="#4a6fa5" d="M686.12,-289.93C704.19,-279.78 725.64,-265.95 742,-250 775.28,-217.56 762.26,-190.12 800,-163 818,-150.06 841.45,-142.9 861.85,-138.93"/>
<polygon fill="#4a6fa5" stroke="#4a6fa5" points="862.27,-140.99 867.79,-137.84 861.51,-136.85 862.27,-140.99"/>
</g>
<!-- Node0x62fcd1c0d920 -->
<g id="node43" class="node">
<title>Node0x62fcd1c0d920</title>
<path fill="#f0f4ff" stroke="black" d="M1000,-326C1000,-326 817,-326 817,-326 811,-326 805,-320 805,-314 805,-314 805,-302 805,-302 805,-296 811,-290 817,-290 817,-290 1000,-290 1000,-290 1006,-290 1012,-296 1012,-302 1012,-302 1012,-314 1012,-314 1012,-320 1006,-326 1000,-326"/>
<text text-anchor="middle" x="908.5" y="-305.8" font-family="Courier,monospace" font-size="9.00">icGetSigPath[abi:cxx11](unsigned int)</text>
</g>
<!-- Node0x62fcd1c0f7c0&#45;&gt;Node0x62fcd1c0d920 -->
<g id="edge38" class="edge">
<title>Node0x62fcd1c0f7c0&#45;&gt;Node0x62fcd1c0d920</title>
<path fill="none" stroke="#4a6fa5" d="M721.04,-308C745.02,-308 772.37,-308 798.59,-308"/>
<polygon fill="#4a6fa5" stroke="#4a6fa5" points="798.88,-310.1 804.88,-308 798.88,-305.9 798.88,-310.1"/>
</g>
<!-- Node0x62fcd1c2c700 -->
<g id="node44" class="node">
<title>Node0x62fcd1c2c700</title>
<path fill="#f0f4ff" stroke="black" d="M706.5,-2106C706.5,-2106 591.5,-2106 591.5,-2106 585.5,-2106 579.5,-2100 579.5,-2094 579.5,-2094 579.5,-2082 579.5,-2082 579.5,-2076 585.5,-2070 591.5,-2070 591.5,-2070 706.5,-2070 706.5,-2070 712.5,-2070 718.5,-2076 718.5,-2082 718.5,-2082 718.5,-2094 718.5,-2094 718.5,-2100 712.5,-2106 706.5,-2106"/>
<text text-anchor="middle" x="649" y="-2085.8" font-family="Courier,monospace" font-size="9.00">CIccTagStruct::GetElem()</text>
</g>
<!-- Node0x62fcd1c2f8f0 -->
<g id="node45" class="node">
<title>Node0x62fcd1c2f8f0</title>
<path fill="#f0f4ff" stroke="black" d="M468,-2280C468,-2280 353,-2280 353,-2280 347,-2280 341,-2274 341,-2268 341,-2268 341,-2256 341,-2256 341,-2250 347,-2244 353,-2244 353,-2244 468,-2244 468,-2244 474,-2244 480,-2250 480,-2256 480,-2256 480,-2268 480,-2268 480,-2274 474,-2280 468,-2280"/>
<text text-anchor="middle" x="410.5" y="-2259.8" font-family="Courier,monospace" font-size="9.00">CIccTagStruct::GetElem()</text>
</g>
<!-- Node0x62fcd1c2f7b0 -->
<g id="node46" class="node">
<title>Node0x62fcd1c2f7b0</title>
<path fill="#f0f4ff" stroke="black" d="M470.5,-2164C470.5,-2164 350.5,-2164 350.5,-2164 344.5,-2164 338.5,-2158 338.5,-2152 338.5,-2152 338.5,-2140 338.5,-2140 338.5,-2134 344.5,-2128 350.5,-2128 350.5,-2128 470.5,-2128 470.5,-2128 476.5,-2128 482.5,-2134 482.5,-2140 482.5,-2140 482.5,-2152 482.5,-2152 482.5,-2158 476.5,-2164 470.5,-2164"/>
<text text-anchor="middle" x="410.5" y="-2143.8" font-family="Courier,monospace" font-size="9.00">CIccTagStruct::FindElem()</text>
</g>
<!-- Node0x62fcd1c2f7b0&#45;&gt;Node0x62fcd1c2c700 -->
<g id="edge39" class="edge">
<title>Node0x62fcd1c2f7b0&#45;&gt;Node0x62fcd1c2c700</title>
<path fill="none" stroke="#4a6fa5" d="M482.78,-2128.52C511.35,-2121.51 544.29,-2113.44 573.2,-2106.34"/>
<polygon fill="#4a6fa5" stroke="#4a6fa5" points="573.98,-2108.32 579.3,-2104.85 572.98,-2104.24 573.98,-2108.32"/>
</g>
<!-- Node0x62fcd1c2e340 -->
<g id="node47" class="node">
<title>Node0x62fcd1c2e340</title>
<path fill="#f0f4ff" stroke="black" d="M486,-2106C486,-2106 335,-2106 335,-2106 329,-2106 323,-2100 323,-2094 323,-2094 323,-2082 323,-2082 323,-2076 329,-2070 335,-2070 335,-2070 486,-2070 486,-2070 492,-2070 498,-2076 498,-2082 498,-2082 498,-2094 498,-2094 498,-2100 492,-2106 486,-2106"/>
<text text-anchor="middle" x="410.5" y="-2085.8" font-family="Courier,monospace" font-size="9.00">CIccTagStruct::FindElemOfType()</text>
</g>
<!-- Node0x62fcd1c2e340&#45;&gt;Node0x62fcd1c2c700 -->
<g id="edge40" class="edge">
<title>Node0x62fcd1c2e340&#45;&gt;Node0x62fcd1c2c700</title>
<path fill="none" stroke="#4a6fa5" d="M498.22,-2088C522.89,-2088 549.54,-2088 573.42,-2088"/>
<polygon fill="#4a6fa5" stroke="#4a6fa5" points="573.43,-2090.1 579.43,-2088 573.43,-2085.9 573.43,-2090.1"/>
</g>
<!-- Node0x62fcd1c2e1c0 -->
<g id="node48" class="node">
<title>Node0x62fcd1c2e1c0</title>
<path fill="#f0f4ff" stroke="black" d="M218.5,-2164C218.5,-2164 46.5,-2164 46.5,-2164 40.5,-2164 34.5,-2158 34.5,-2152 34.5,-2152 34.5,-2140 34.5,-2140 34.5,-2134 40.5,-2128 46.5,-2128 46.5,-2128 218.5,-2128 218.5,-2128 224.5,-2128 230.5,-2134 230.5,-2140 230.5,-2140 230.5,-2152 230.5,-2152 230.5,-2158 224.5,-2164 218.5,-2164"/>
<text text-anchor="middle" x="132.5" y="-2143.8" font-family="Courier,monospace" font-size="9.00">CIccTagStruct::GetElemNumberValue()</text>
</g>
<!-- Node0x62fcd1c2e1c0&#45;&gt;Node0x62fcd1c2f7b0 -->
<g id="edge41" class="edge">
<title>Node0x62fcd1c2e1c0&#45;&gt;Node0x62fcd1c2f7b0</title>
<path fill="none" stroke="#4a6fa5" d="M230.81,-2146C263.98,-2146 300.6,-2146 332.01,-2146"/>
<polygon fill="#4a6fa5" stroke="#4a6fa5" points="332.22,-2148.1 338.22,-2146 332.22,-2143.9 332.22,-2148.1"/>
</g>
<!-- Node0x62fcd1c121c0 -->
<g id="node49" class="node">
<title>Node0x62fcd1c121c0</title>
<path fill="#f0f4ff" stroke="black" d="M475.5,-2048C475.5,-2048 345.5,-2048 345.5,-2048 339.5,-2048 333.5,-2042 333.5,-2036 333.5,-2036 333.5,-2024 333.5,-2024 333.5,-2018 339.5,-2012 345.5,-2012 345.5,-2012 475.5,-2012 475.5,-2012 481.5,-2012 487.5,-2018 487.5,-2024 487.5,-2024 487.5,-2036 487.5,-2036 487.5,-2042 481.5,-2048 475.5,-2048"/>
<text text-anchor="middle" x="410.5" y="-2027.8" font-family="Courier,monospace" font-size="9.00">CIccTagStruct::AttachElem()</text>
</g>
<!-- Node0x62fcd1c121c0&#45;&gt;Node0x62fcd1c2c700 -->
<g id="edge42" class="edge">
<title>Node0x62fcd1c121c0&#45;&gt;Node0x62fcd1c2c700</title>
<path fill="none" stroke="#4a6fa5" d="M485.03,-2048.03C513.14,-2054.93 545.19,-2062.79 573.39,-2069.7"/>
<polygon fill="#4a6fa5" stroke="#4a6fa5" points="573.02,-2071.77 579.35,-2071.16 574.02,-2067.7 573.02,-2071.77"/>
</g>
<!-- Node0x62fcd1c1c670 -->
<g id="node50" class="node">
<title>Node0x62fcd1c1c670</title>
<path fill="#f0f4ff" stroke="black" d="M197.5,-2222C197.5,-2222 67.5,-2222 67.5,-2222 61.5,-2222 55.5,-2216 55.5,-2210 55.5,-2210 55.5,-2198 55.5,-2198 55.5,-2192 61.5,-2186 67.5,-2186 67.5,-2186 197.5,-2186 197.5,-2186 203.5,-2186 209.5,-2192 209.5,-2198 209.5,-2198 209.5,-2210 209.5,-2210 209.5,-2216 203.5,-2222 197.5,-2222"/>
<text text-anchor="middle" x="132.5" y="-2201.8" font-family="Courier,monospace" font-size="9.00">CIccTagStruct::DeleteElem()</text>
</g>
<!-- Node0x62fcd1c1c670&#45;&gt;Node0x62fcd1c2f8f0 -->
<g id="edge44" class="edge">
<title>Node0x62fcd1c1c670&#45;&gt;Node0x62fcd1c2f8f0</title>
<path fill="none" stroke="#4a6fa5" d="M209.65,-2220C248.57,-2228.18 295.78,-2238.1 334.53,-2246.25"/>
<polygon fill="#4a6fa5" stroke="#4a6fa5" points="334.37,-2248.36 340.68,-2247.54 335.24,-2244.25 334.37,-2248.36"/>
</g>
<!-- Node0x62fcd1c2e6c0 -->
<g id="node51" class="node">
<title>Node0x62fcd1c2e6c0</title>
<path fill="#f0f4ff" stroke="black" d="M475.5,-2222C475.5,-2222 345.5,-2222 345.5,-2222 339.5,-2222 333.5,-2216 333.5,-2210 333.5,-2210 333.5,-2198 333.5,-2198 333.5,-2192 339.5,-2186 345.5,-2186 345.5,-2186 475.5,-2186 475.5,-2186 481.5,-2186 487.5,-2192 487.5,-2198 487.5,-2198 487.5,-2210 487.5,-2210 487.5,-2216 481.5,-2222 475.5,-2222"/>
<text text-anchor="middle" x="410.5" y="-2201.8" font-family="Courier,monospace" font-size="9.00">CIccTagStruct::DetachElem()</text>
</g>
<!-- Node0x62fcd1c1c670&#45;&gt;Node0x62fcd1c2e6c0 -->
<g id="edge43" class="edge">
<title>Node0x62fcd1c1c670&#45;&gt;Node0x62fcd1c2e6c0</title>
<path fill="none" stroke="#4a6fa5" d="M209.65,-2204C246,-2204 289.57,-2204 326.74,-2204"/>
<polygon fill="#4a6fa5" stroke="#4a6fa5" points="327.12,-2206.1 333.12,-2204 327.12,-2201.9 327.12,-2206.1"/>
</g>
<!-- Node0x62fcd1c389a0 -->
<g id="node52" class="node">
<title>Node0x62fcd1c389a0</title>
<path fill="#f0f4ff" stroke="black" d="M730,-1642C730,-1642 568,-1642 568,-1642 562,-1642 556,-1636 556,-1630 556,-1630 556,-1618 556,-1618 556,-1612 562,-1606 568,-1606 568,-1606 730,-1606 730,-1606 736,-1606 742,-1612 742,-1618 742,-1618 742,-1630 742,-1630 742,-1636 736,-1642 730,-1642"/>
<text text-anchor="middle" x="649" y="-1621.8" font-family="Courier,monospace" font-size="9.00">CIccTagStruct::GetStructHandler()</text>
</g>
<!-- Node0x62fcd1c389a0&#45;&gt;Node0x62fcd1c10640 -->
<g id="edge45" class="edge">
<title>Node0x62fcd1c389a0&#45;&gt;Node0x62fcd1c10640</title>
<path fill="none" stroke="#4a6fa5" d="M742.24,-1634.39C764,-1636.84 787.28,-1639.46 809.3,-1641.94"/>
<polygon fill="#4a6fa5" stroke="#4a6fa5" points="809.28,-1644.05 815.48,-1642.64 809.75,-1639.88 809.28,-1644.05"/>
</g>
<!-- Node0x62fcd1c363e0 -->
<g id="node53" class="node">
<title>Node0x62fcd1c363e0</title>
<path fill="#f0f4ff" stroke="black" d="M200.5,-1526C200.5,-1526 64.5,-1526 64.5,-1526 58.5,-1526 52.5,-1520 52.5,-1514 52.5,-1514 52.5,-1502 52.5,-1502 52.5,-1496 58.5,-1490 64.5,-1490 64.5,-1490 200.5,-1490 200.5,-1490 206.5,-1490 212.5,-1496 212.5,-1502 212.5,-1502 212.5,-1514 212.5,-1514 212.5,-1520 206.5,-1526 200.5,-1526"/>
<text text-anchor="middle" x="132.5" y="-1505.8" font-family="Courier,monospace" font-size="9.00">CIccTagArray::CIccTagArray()</text>
</g>
<!-- Node0x62fcd1c363e0&#45;&gt;Node0x62fcd195a8c0 -->
<g id="edge46" class="edge">
<title>Node0x62fcd1c363e0&#45;&gt;Node0x62fcd195a8c0</title>
<path fill="none" stroke="#4a6fa5" d="M212.64,-1494.91C230.2,-1490.81 248.5,-1485.58 265,-1479 307.51,-1462.05 351.96,-1433.37 380.15,-1413.6"/>
<polygon fill="#4a6fa5" stroke="#4a6fa5" points="381.53,-1415.2 385.22,-1410.02 379.11,-1411.77 381.53,-1415.2"/>
</g>
<!-- Node0x62fcd1c370c0 -->
<g id="node54" class="node">
<title>Node0x62fcd1c370c0</title>
<path fill="#f0f4ff" stroke="black" d="M200.5,-1410C200.5,-1410 64.5,-1410 64.5,-1410 58.5,-1410 52.5,-1404 52.5,-1398 52.5,-1398 52.5,-1386 52.5,-1386 52.5,-1380 58.5,-1374 64.5,-1374 64.5,-1374 200.5,-1374 200.5,-1374 206.5,-1374 212.5,-1380 212.5,-1386 212.5,-1386 212.5,-1398 212.5,-1398 212.5,-1404 206.5,-1410 200.5,-1410"/>
<text text-anchor="middle" x="132.5" y="-1389.8" font-family="Courier,monospace" font-size="9.00">CIccTagArray::CIccTagArray()</text>
</g>
<!-- Node0x62fcd1c370c0&#45;&gt;Node0x62fcd195a8c0 -->
<g id="edge47" class="edge">
<title>Node0x62fcd1c370c0&#45;&gt;Node0x62fcd195a8c0</title>
<path fill="none" stroke="#4a6fa5" d="M212.59,-1392C256.44,-1392 310.06,-1392 350.26,-1392"/>
<polygon fill="#4a6fa5" stroke="#4a6fa5" points="350.6,-1394.1 356.6,-1392 350.6,-1389.9 350.6,-1394.1"/>
</g>
<!-- Node0x62fcd1c370c0&#45;&gt;Node0x62fcd1972120 -->
<g id="edge48" class="edge">
<title>Node0x62fcd1c370c0&#45;&gt;Node0x62fcd1972120</title>
<path fill="none" stroke="#4a6fa5" d="M212.63,-1376.76C230.02,-1372.8 248.25,-1368.17 265,-1363 298.76,-1352.58 335.71,-1337.68 363.8,-1325.59"/>
<polygon fill="#4a6fa5" stroke="#4a6fa5" points="364.98,-1327.37 369.65,-1323.06 363.31,-1323.52 364.98,-1327.37"/>
</g>
<!-- Node0x62fcd1c36fc0 -->
<g id="node55" class="node">
<title>Node0x62fcd1c36fc0</title>
<path fill="#f0f4ff" stroke="black" d="M200.5,-1352C200.5,-1352 64.5,-1352 64.5,-1352 58.5,-1352 52.5,-1346 52.5,-1340 52.5,-1340 52.5,-1328 52.5,-1328 52.5,-1322 58.5,-1316 64.5,-1316 64.5,-1316 200.5,-1316 200.5,-1316 206.5,-1316 212.5,-1322 212.5,-1328 212.5,-1328 212.5,-1340 212.5,-1340 212.5,-1346 206.5,-1352 200.5,-1352"/>
<text text-anchor="middle" x="132.5" y="-1331.8" font-family="Courier,monospace" font-size="9.00">CIccTagArray::CIccTagArray()</text>
</g>
<!-- Node0x62fcd1c36fc0&#45;&gt;Node0x62fcd195a8c0 -->
<g id="edge49" class="edge">
<title>Node0x62fcd1c36fc0&#45;&gt;Node0x62fcd195a8c0</title>
<path fill="none" stroke="#4a6fa5" d="M212.59,-1350.62C256.44,-1359.84 310.06,-1371.1 350.26,-1379.55"/>
<polygon fill="#4a6fa5" stroke="#4a6fa5" points="350.29,-1381.7 356.6,-1380.88 351.16,-1377.59 350.29,-1381.7"/>
</g>
<!-- Node0x62fcd1c36fc0&#45;&gt;Node0x62fcd1972120 -->
<g id="edge50" class="edge">
<title>Node0x62fcd1c36fc0&#45;&gt;Node0x62fcd1972120</title>
<path fill="none" stroke="#4a6fa5" d="M212.59,-1325.69C255.68,-1321.16 308.21,-1315.64 348.17,-1311.44"/>
<polygon fill="#4a6fa5" stroke="#4a6fa5" points="348.73,-1313.5 354.47,-1310.78 348.29,-1309.32 348.73,-1313.5"/>
</g>
<!-- Node0x62fcd1c4ce70 -->
<g id="node56" class="node">
<title>Node0x62fcd1c4ce70</title>
<path fill="#f0f4ff" stroke="black" d="M153,-2280C153,-2280 112,-2280 112,-2280 106,-2280 100,-2274 100,-2268 100,-2268 100,-2256 100,-2256 100,-2250 106,-2244 112,-2244 112,-2244 153,-2244 153,-2244 159,-2244 165,-2250 165,-2256 165,-2256 165,-2268 165,-2268 165,-2274 159,-2280 153,-2280"/>
<text text-anchor="middle" x="132.5" y="-2259.8" font-family="Courier,monospace" font-size="9.00">decltype()</text>
</g>
<!-- Node0x62fcd1c31e60 -->
<g id="node57" class="node">
<title>Node0x62fcd1c31e60</title>
<path fill="#f0f4ff" stroke="black" d="M171.5,-2338C171.5,-2338 93.5,-2338 93.5,-2338 87.5,-2338 81.5,-2332 81.5,-2326 81.5,-2326 81.5,-2314 81.5,-2314 81.5,-2308 87.5,-2302 93.5,-2302 93.5,-2302 171.5,-2302 171.5,-2302 177.5,-2302 183.5,-2308 183.5,-2314 183.5,-2314 183.5,-2326 183.5,-2326 183.5,-2332 177.5,-2338 171.5,-2338"/>
<text text-anchor="middle" x="132.5" y="-2317.8" font-family="Courier,monospace" font-size="9.00">__allocated_ptr()</text>
</g>
<!-- Node0x62fcd1c39c70 -->
<g id="node58" class="node">
<title>Node0x62fcd1c39c70</title>
<path fill="#f0f4ff" stroke="black" d="M242.5,-981C242.5,-981 22.5,-981 22.5,-981 16.5,-981 10.5,-975 10.5,-969 10.5,-969 10.5,-957 10.5,-957 10.5,-951 16.5,-945 22.5,-945 22.5,-945 242.5,-945 242.5,-945 248.5,-945 254.5,-951 254.5,-957 254.5,-957 254.5,-969 254.5,-969 254.5,-975 248.5,-981 242.5,-981"/>
<text text-anchor="middle" x="132.5" y="-960.8" font-family="Courier,monospace" font-size="9.00">CIccTagArray::operator=(CIccTagArray const&amp;)</text>
</g>
<!-- Node0x62fcd1c39ac0 -->
<g id="node59" class="node">
<title>Node0x62fcd1c39ac0</title>
<path fill="#f0f4ff" stroke="black" d="M465,-981C465,-981 356,-981 356,-981 350,-981 344,-975 344,-969 344,-969 344,-957 344,-957 344,-951 350,-945 356,-945 356,-945 465,-945 465,-945 471,-945 477,-951 477,-957 477,-957 477,-969 477,-969 477,-975 471,-981 465,-981"/>
<text text-anchor="middle" x="410.5" y="-960.8" font-family="Courier,monospace" font-size="9.00">CIccTagArray::Cleanup()</text>
</g>
<!-- Node0x62fcd1c39c70&#45;&gt;Node0x62fcd1c39ac0 -->
<g id="edge51" class="edge">
<title>Node0x62fcd1c39c70&#45;&gt;Node0x62fcd1c39ac0</title>
<path fill="none" stroke="#4a6fa5" d="M254.56,-963C282.98,-963 312.39,-963 337.84,-963"/>
<polygon fill="#4a6fa5" stroke="#4a6fa5" points="337.88,-965.1 343.88,-963 337.88,-960.9 337.88,-965.1"/>
</g>
<!-- Node0x62fcd1c3d350 -->
<g id="node60" class="node">
<title>Node0x62fcd1c3d350</title>
<path fill="#f0f4ff" stroke="black" d="M203,-1178C203,-1178 62,-1178 62,-1178 56,-1178 50,-1172 50,-1166 50,-1166 50,-1154 50,-1154 50,-1148 56,-1142 62,-1142 62,-1142 203,-1142 203,-1142 209,-1142 215,-1148 215,-1154 215,-1154 215,-1166 215,-1166 215,-1172 209,-1178 203,-1178"/>
<text text-anchor="middle" x="132.5" y="-1157.8" font-family="Courier,monospace" font-size="9.00">CIccTagArray::~CIccTagArray()</text>
</g>
<!-- Node0x62fcd1c3d350&#45;&gt;Node0x62fcd1972120 -->
<g id="edge53" class="edge">
<title>Node0x62fcd1c3d350&#45;&gt;Node0x62fcd1972120</title>
<path fill="none" stroke="#4a6fa5" d="M215.08,-1171.88C232.07,-1176.03 249.5,-1181.58 265,-1189 314.09,-1212.52 361.42,-1255.63 387.86,-1282.15"/>
<polygon fill="#4a6fa5" stroke="#4a6fa5" points="386.53,-1283.79 392.24,-1286.58 389.52,-1280.84 386.53,-1283.79"/>
</g>
<!-- Node0x62fcd1c3d350&#45;&gt;Node0x62fcd1c39ac0 -->
<g id="edge52" class="edge">
<title>Node0x62fcd1c3d350&#45;&gt;Node0x62fcd1c39ac0</title>
<path fill="none" stroke="#4a6fa5" d="M215.25,-1152.44C232.77,-1148.06 250.39,-1141.32 265,-1131 304.78,-1102.89 291.36,-1075.04 323,-1038 339.99,-1018.11 362.38,-998.85 380.12,-984.82"/>
<polygon fill="#4a6fa5" stroke="#4a6fa5" points="381.56,-986.36 384.99,-981.01 378.97,-983.05 381.56,-986.36"/>
</g>
<!-- Node0x62fcd1c2a550 -->
<g id="node61" class="node">
<title>Node0x62fcd1c2a550</title>
<path fill="#f0f4ff" stroke="black" d="M203,-2396C203,-2396 62,-2396 62,-2396 56,-2396 50,-2390 50,-2384 50,-2384 50,-2372 50,-2372 50,-2366 56,-2360 62,-2360 62,-2360 203,-2360 203,-2360 209,-2360 215,-2366 215,-2372 215,-2372 215,-2384 215,-2384 215,-2390 209,-2396 203,-2396"/>
<text text-anchor="middle" x="132.5" y="-2375.8" font-family="Courier,monospace" font-size="9.00">CIccTagArray::~CIccTagArray()</text>
</g>
<!-- Node0x62fcd1c3c370 -->
<g id="node62" class="node">
<title>Node0x62fcd1c3c370</title>
<path fill="#f0f4ff" stroke="black" d="M724.5,-761C724.5,-761 573.5,-761 573.5,-761 567.5,-761 561.5,-755 561.5,-749 561.5,-749 561.5,-737 561.5,-737 561.5,-731 567.5,-725 573.5,-725 573.5,-725 724.5,-725 724.5,-725 730.5,-725 736.5,-731 736.5,-737 736.5,-737 736.5,-749 736.5,-749 736.5,-755 730.5,-761 724.5,-761"/>
<text text-anchor="middle" x="649" y="-740.8" font-family="Courier,monospace" font-size="9.00">CIccTagArray::SetTagArrayType()</text>
</g>
<!-- Node0x62fcd1c3da90 -->
<g id="node63" class="node">
<title>Node0x62fcd1c3da90</title>
<path fill="#f0f4ff" stroke="black" d="M984,-732C984,-732 833,-732 833,-732 827,-732 821,-726 821,-720 821,-720 821,-708 821,-708 821,-702 827,-696 833,-696 833,-696 984,-696 984,-696 990,-696 996,-702 996,-708 996,-708 996,-720 996,-720 996,-726 990,-732 984,-732"/>
<text text-anchor="middle" x="908.5" y="-711.8" font-family="Courier,monospace" font-size="9.00">CIccArrayCreator::CreateArray()</text>
</g>
<!-- Node0x62fcd1c3c370&#45;&gt;Node0x62fcd1c3da90 -->
<g id="edge54" class="edge">
<title>Node0x62fcd1c3c370&#45;&gt;Node0x62fcd1c3da90</title>
<path fill="none" stroke="#4a6fa5" d="M736.82,-733.22C761.83,-730.41 789.2,-727.32 814.56,-724.47"/>
<polygon fill="#4a6fa5" stroke="#4a6fa5" points="814.89,-726.54 820.62,-723.78 814.42,-722.37 814.89,-726.54"/>
</g>
<!-- Node0x62fcd1c3d5c0 -->
<g id="node64" class="node">
<title>Node0x62fcd1c3d5c0</title>
<path fill="#f0f4ff" stroke="black" d="M1259,-645C1259,-645 1108,-645 1108,-645 1102,-645 1096,-639 1096,-633 1096,-633 1096,-621 1096,-621 1096,-615 1102,-609 1108,-609 1108,-609 1259,-609 1259,-609 1265,-609 1271,-615 1271,-621 1271,-621 1271,-633 1271,-633 1271,-639 1265,-645 1259,-645"/>
<text text-anchor="middle" x="1183.5" y="-624.8" font-family="Courier,monospace" font-size="9.00">CIccArrayCreator::GetInstance()</text>
</g>
<!-- Node0x62fcd1c3da90&#45;&gt;Node0x62fcd1c3d5c0 -->
<g id="edge55" class="edge">
<title>Node0x62fcd1c3da90&#45;&gt;Node0x62fcd1c3d5c0</title>
<path fill="none" stroke="#4a6fa5" d="M979.4,-695.95C991.96,-692.47 1004.91,-688.75 1017,-685 1054.37,-673.43 1095.93,-658.86 1128.05,-647.22"/>
<polygon fill="#4a6fa5" stroke="#4a6fa5" points="1129.01,-649.1 1133.93,-645.08 1127.58,-645.16 1129.01,-649.1"/>
</g>
<!-- Node0x62fcd1c2af50 -->
<g id="node65" class="node">
<title>Node0x62fcd1c2af50</title>
<path fill="#f0f4ff" stroke="black" d="M1264.5,-732C1264.5,-732 1102.5,-732 1102.5,-732 1096.5,-732 1090.5,-726 1090.5,-720 1090.5,-720 1090.5,-708 1090.5,-708 1090.5,-702 1096.5,-696 1102.5,-696 1102.5,-696 1264.5,-696 1264.5,-696 1270.5,-696 1276.5,-702 1276.5,-708 1276.5,-708 1276.5,-720 1276.5,-720 1276.5,-726 1270.5,-732 1264.5,-732"/>
<text text-anchor="middle" x="1183.5" y="-711.8" font-family="Courier,monospace" font-size="9.00">CIccArrayCreator::DoCreateArray()</text>
</g>
<!-- Node0x62fcd1c3da90&#45;&gt;Node0x62fcd1c2af50 -->
<g id="edge56" class="edge">
<title>Node0x62fcd1c3da90&#45;&gt;Node0x62fcd1c2af50</title>
<path fill="none" stroke="#4a6fa5" d="M996.25,-714C1024.24,-714 1055.46,-714 1084.22,-714"/>
<polygon fill="#4a6fa5" stroke="#4a6fa5" points="1084.31,-716.1 1090.31,-714 1084.31,-711.9 1084.31,-716.1"/>
</g>
<!-- Node0x62fcd1c2b150 -->
<g id="node66" class="node">
<title>Node0x62fcd1c2b150</title>
<path fill="#f0f4ff" stroke="black" d="M200.5,-2454C200.5,-2454 64.5,-2454 64.5,-2454 58.5,-2454 52.5,-2448 52.5,-2442 52.5,-2442 52.5,-2430 52.5,-2430 52.5,-2424 58.5,-2418 64.5,-2418 64.5,-2418 200.5,-2418 200.5,-2418 206.5,-2418 212.5,-2424 212.5,-2430 212.5,-2430 212.5,-2442 212.5,-2442 212.5,-2448 206.5,-2454 200.5,-2454"/>
<text text-anchor="middle" x="132.5" y="-2433.8" font-family="Courier,monospace" font-size="9.00">CIccTagArray::AreAllOfType()</text>
</g>
<!-- Node0x62fcd1c407a0 -->
<g id="node67" class="node">
<title>Node0x62fcd1c407a0</title>
<path fill="#f0f4ff" stroke="black" d="M468,-2454C468,-2454 353,-2454 353,-2454 347,-2454 341,-2448 341,-2442 341,-2442 341,-2430 341,-2430 341,-2424 347,-2418 353,-2418 353,-2418 468,-2418 468,-2418 474,-2418 480,-2424 480,-2430 480,-2430 480,-2442 480,-2442 480,-2448 474,-2454 468,-2454"/>
<text text-anchor="middle" x="410.5" y="-2433.8" font-family="Courier,monospace" font-size="9.00">CIccTagArray::GetIndex()</text>
</g>
<!-- Node0x62fcd1c2b150&#45;&gt;Node0x62fcd1c407a0 -->
<g id="edge57" class="edge">
<title>Node0x62fcd1c2b150&#45;&gt;Node0x62fcd1c407a0</title>
<path fill="none" stroke="#4a6fa5" d="M212.59,-2436C250.84,-2436 296.52,-2436 334.25,-2436"/>
<polygon fill="#4a6fa5" stroke="#4a6fa5" points="334.71,-2438.1 340.71,-2436 334.71,-2433.9 334.71,-2438.1"/>
</g>
<!-- Node0x62fcd1c40590 -->
<g id="node68" class="node">
<title>Node0x62fcd1c40590</title>
<path fill="#f0f4ff" stroke="black" d="M706.5,-500C706.5,-500 591.5,-500 591.5,-500 585.5,-500 579.5,-494 579.5,-488 579.5,-488 579.5,-476 579.5,-476 579.5,-470 585.5,-464 591.5,-464 591.5,-464 706.5,-464 706.5,-464 712.5,-464 718.5,-470 718.5,-476 718.5,-476 718.5,-488 718.5,-488 718.5,-494 712.5,-500 706.5,-500"/>
<text text-anchor="middle" x="649" y="-479.8" font-family="Courier,monospace" font-size="9.00">CIccTagArray::Describe()</text>
</g>
<!-- Node0x62fcd1c40590&#45;&gt;Node0x62fcd1bf2e40 -->
<g id="edge58" class="edge">
<title>Node0x62fcd1c40590&#45;&gt;Node0x62fcd1bf2e40</title>
<path fill="none" stroke="#4a6fa5" d="M718.67,-482C757.42,-482 805.52,-482 843.49,-482"/>
<polygon fill="#4a6fa5" stroke="#4a6fa5" points="843.49,-484.1 849.49,-482 843.49,-479.9 843.49,-484.1"/>
</g>
<!-- Node0x62fcd1c40590&#45;&gt;Node0x62fcd18c3c40 -->
<g id="edge60" class="edge">
<title>Node0x62fcd1c40590&#45;&gt;Node0x62fcd18c3c40</title>
<path fill="none" stroke="#4a6fa5" d="M718.67,-466.53C756.57,-458 803.42,-447.44 840.98,-438.98"/>
<polygon fill="#4a6fa5" stroke="#4a6fa5" points="841.53,-441.01 846.92,-437.64 840.61,-436.91 841.53,-441.01"/>
</g>
<!-- Node0x62fcd1c3f850 -->
<g id="node69" class="node">
<title>Node0x62fcd1c3f850</title>
<path fill="#f0f4ff" stroke="black" d="M994.5,-558C994.5,-558 822.5,-558 822.5,-558 816.5,-558 810.5,-552 810.5,-546 810.5,-546 810.5,-534 810.5,-534 810.5,-528 816.5,-522 822.5,-522 822.5,-522 994.5,-522 994.5,-522 1000.5,-522 1006.5,-528 1006.5,-534 1006.5,-534 1006.5,-546 1006.5,-546 1006.5,-552 1000.5,-558 994.5,-558"/>
<text text-anchor="middle" x="908.5" y="-537.8" font-family="Courier,monospace" font-size="9.00">CIccArrayCreator::GetArraySigName()</text>
</g>
<!-- Node0x62fcd1c40590&#45;&gt;Node0x62fcd1c3f850 -->
<g id="edge59" class="edge">
<title>Node0x62fcd1c40590&#45;&gt;Node0x62fcd1c3f850</title>
<path fill="none" stroke="#4a6fa5" d="M718.67,-497.47C750.08,-504.54 787.65,-513.01 820.98,-520.51"/>
<polygon fill="#4a6fa5" stroke="#4a6fa5" points="820.84,-522.63 827.15,-521.9 821.76,-518.53 820.84,-522.63"/>
</g>
<!-- Node0x62fcd1c3f850&#45;&gt;Node0x62fcd1c3d5c0 -->
<g id="edge61" class="edge">
<title>Node0x62fcd1c3f850&#45;&gt;Node0x62fcd1c3d5c0</title>
<path fill="none" stroke="#4a6fa5" d="M979.4,-558.05C991.96,-561.53 1004.91,-565.25 1017,-569 1054.37,-580.57 1095.93,-595.14 1128.05,-606.78"/>
<polygon fill="#4a6fa5" stroke="#4a6fa5" points="1127.58,-608.84 1133.93,-608.92 1129.01,-604.9 1127.58,-608.84"/>
</g>
<!-- Node0x62fcd1c3f6a0 -->
<g id="node70" class="node">
<title>Node0x62fcd1c3f6a0</title>
<path fill="#f0f4ff" stroke="black" d="M1275,-558C1275,-558 1092,-558 1092,-558 1086,-558 1080,-552 1080,-546 1080,-546 1080,-534 1080,-534 1080,-528 1086,-522 1092,-522 1092,-522 1275,-522 1275,-522 1281,-522 1287,-528 1287,-534 1287,-534 1287,-546 1287,-546 1287,-552 1281,-558 1275,-558"/>
<text text-anchor="middle" x="1183.5" y="-537.8" font-family="Courier,monospace" font-size="9.00">CIccArrayCreator::DoGetArraySigName()</text>
</g>
<!-- Node0x62fcd1c3f850&#45;&gt;Node0x62fcd1c3f6a0 -->
<g id="edge62" class="edge">
<title>Node0x62fcd1c3f850&#45;&gt;Node0x62fcd1c3f6a0</title>
<path fill="none" stroke="#4a6fa5" d="M1006.52,-540C1028.23,-540 1051.4,-540 1073.56,-540"/>
<polygon fill="#4a6fa5" stroke="#4a6fa5" points="1073.79,-542.1 1079.79,-540 1073.79,-537.9 1073.79,-542.1"/>
</g>
<!-- Node0x62fcd1c3ed20 -->
<g id="node71" class="node">
<title>Node0x62fcd1c3ed20</title>
<path fill="#f0f4ff" stroke="black" d="M179.5,-900C179.5,-900 85.5,-900 85.5,-900 79.5,-900 73.5,-894 73.5,-888 73.5,-888 73.5,-876 73.5,-876 73.5,-870 79.5,-864 85.5,-864 85.5,-864 179.5,-864 179.5,-864 185.5,-864 191.5,-870 191.5,-876 191.5,-876 191.5,-888 191.5,-888 191.5,-894 185.5,-900 179.5,-900"/>
<text text-anchor="middle" x="132.5" y="-879.8" font-family="Courier,monospace" font-size="9.00">CIccTagArray::Read()</text>
</g>
<!-- Node0x62fcd1c3ed20&#45;&gt;Node0x62fcd1c0d7d0 -->
<g id="edge64" class="edge">
<title>Node0x62fcd1c3ed20&#45;&gt;Node0x62fcd1c0d7d0</title>
<path fill="none" stroke="#4a6fa5" d="M191.67,-884.27C264.76,-888.47 393.32,-900.4 498,-934 540.49,-947.64 585.42,-972.59 614.9,-990.6"/>
<polygon fill="#4a6fa5" stroke="#4a6fa5" points="614.01,-992.52 620.22,-993.88 616.22,-988.95 614.01,-992.52"/>
</g>
<!-- Node0x62fcd1c3ed20&#45;&gt;Node0x62fcd1c39ac0 -->
<g id="edge63" class="edge">
<title>Node0x62fcd1c3ed20&#45;&gt;Node0x62fcd1c39ac0</title>
<path fill="none" stroke="#4a6fa5" d="M191.7,-899.08C235.68,-911.99 296.14,-929.73 342.2,-943.25"/>
<polygon fill="#4a6fa5" stroke="#4a6fa5" points="341.69,-945.29 348.03,-944.96 342.87,-941.26 341.69,-945.29"/>
</g>
<!-- Node0x62fcd1c3e6f0 -->
<g id="node72" class="node">
<title>Node0x62fcd1c3e6f0</title>
<path fill="#f0f4ff" stroke="black" d="M475.5,-877C475.5,-877 345.5,-877 345.5,-877 339.5,-877 333.5,-871 333.5,-865 333.5,-865 333.5,-853 333.5,-853 333.5,-847 339.5,-841 345.5,-841 345.5,-841 475.5,-841 475.5,-841 481.5,-841 487.5,-847 487.5,-853 487.5,-853 487.5,-865 487.5,-865 487.5,-871 481.5,-877 475.5,-877"/>
<text text-anchor="middle" x="410.5" y="-856.8" font-family="Courier,monospace" font-size="9.00">CIccTagCreator::CreateTag()</text>
</g>
<!-- Node0x62fcd1c3ed20&#45;&gt;Node0x62fcd1c3e6f0 -->
<g id="edge65" class="edge">
<title>Node0x62fcd1c3ed20&#45;&gt;Node0x62fcd1c3e6f0</title>
<path fill="none" stroke="#4a6fa5" d="M191.7,-877.15C231.04,-873.87 283.58,-869.49 327.2,-865.86"/>
<polygon fill="#4a6fa5" stroke="#4a6fa5" points="327.49,-867.94 333.29,-865.35 327.14,-863.76 327.49,-867.94"/>
</g>
<!-- Node0x62fcd1c42340 -->
<g id="node73" class="node">
<title>Node0x62fcd1c42340</title>
<path fill="#f0f4ff" stroke="black" d="M465,-819C465,-819 356,-819 356,-819 350,-819 344,-813 344,-807 344,-807 344,-795 344,-795 344,-789 350,-783 356,-783 356,-783 465,-783 465,-783 471,-783 477,-789 477,-795 477,-795 477,-807 477,-807 477,-813 471,-819 465,-819"/>
<text text-anchor="middle" x="410.5" y="-798.8" font-family="Courier,monospace" font-size="9.00">CIccTagArray::SetSize()</text>
</g>
<!-- Node0x62fcd1c3ed20&#45;&gt;Node0x62fcd1c42340 -->
<g id="edge66" class="edge">
<title>Node0x62fcd1c3ed20&#45;&gt;Node0x62fcd1c42340</title>
<path fill="none" stroke="#4a6fa5" d="M191.7,-864.92C235.68,-852.01 296.14,-834.27 342.2,-820.75"/>
<polygon fill="#4a6fa5" stroke="#4a6fa5" points="342.87,-822.74 348.03,-819.04 341.69,-818.71 342.87,-822.74"/>
</g>
<!-- Node0x62fcd1c43150 -->
<g id="node75" class="node">
<title>Node0x62fcd1c43150</title>
<path fill="#f0f4ff" stroke="black" d="M719.5,-877C719.5,-877 578.5,-877 578.5,-877 572.5,-877 566.5,-871 566.5,-865 566.5,-865 566.5,-853 566.5,-853 566.5,-847 572.5,-841 578.5,-841 578.5,-841 719.5,-841 719.5,-841 725.5,-841 731.5,-847 731.5,-853 731.5,-853 731.5,-865 731.5,-865 731.5,-871 725.5,-877 719.5,-877"/>
<text text-anchor="middle" x="649" y="-856.8" font-family="Courier,monospace" font-size="9.00">CIccTagCreator::GetInstance()</text>
</g>
<!-- Node0x62fcd1c3e6f0&#45;&gt;Node0x62fcd1c43150 -->
<g id="edge68" class="edge">
<title>Node0x62fcd1c3e6f0&#45;&gt;Node0x62fcd1c43150</title>
<path fill="none" stroke="#4a6fa5" d="M487.63,-859C510.79,-859 536.42,-859 560.27,-859"/>
<polygon fill="#4a6fa5" stroke="#4a6fa5" points="560.29,-861.1 566.29,-859 560.29,-856.9 560.29,-861.1"/>
</g>
<!-- Node0x62fcd1c42f80 -->
<g id="node76" class="node">
<title>Node0x62fcd1c42f80</title>
<path fill="#f0f4ff" stroke="black" d="M719.5,-935C719.5,-935 578.5,-935 578.5,-935 572.5,-935 566.5,-929 566.5,-923 566.5,-923 566.5,-911 566.5,-911 566.5,-905 572.5,-899 578.5,-899 578.5,-899 719.5,-899 719.5,-899 725.5,-899 731.5,-905 731.5,-911 731.5,-911 731.5,-923 731.5,-923 731.5,-929 725.5,-935 719.5,-935"/>
<text text-anchor="middle" x="649" y="-914.8" font-family="Courier,monospace" font-size="9.00">CIccTagCreator::DoCreateTag()</text>
</g>
<!-- Node0x62fcd1c3e6f0&#45;&gt;Node0x62fcd1c42f80 -->
<g id="edge69" class="edge">
<title>Node0x62fcd1c3e6f0&#45;&gt;Node0x62fcd1c42f80</title>
<path fill="none" stroke="#4a6fa5" d="M485.03,-877.03C511.51,-883.53 541.49,-890.88 568.45,-897.49"/>
<polygon fill="#4a6fa5" stroke="#4a6fa5" points="568.18,-899.59 574.51,-898.98 569.18,-895.51 568.18,-899.59"/>
</g>
<!-- Node0x62fcd1c42d20 -->
<g id="node74" class="node">
<title>Node0x62fcd1c42d20</title>
<path fill="#f0f4ff" stroke="black" d="M672,-819C672,-819 626,-819 626,-819 620,-819 614,-813 614,-807 614,-807 614,-795 614,-795 614,-789 620,-783 626,-783 626,-783 672,-783 672,-783 678,-783 684,-789 684,-795 684,-795 684,-807 684,-807 684,-813 678,-819 672,-819"/>
<text text-anchor="middle" x="649" y="-798.8" font-family="Courier,monospace" font-size="9.00">icRealloc()</text>
</g>
<!-- Node0x62fcd1c42340&#45;&gt;Node0x62fcd1c42d20 -->
<g id="edge67" class="edge">
<title>Node0x62fcd1c42340&#45;&gt;Node0x62fcd1c42d20</title>
<path fill="none" stroke="#4a6fa5" d="M477.06,-801C518.93,-801 571.88,-801 607.67,-801"/>
<polygon fill="#4a6fa5" stroke="#4a6fa5" points="607.7,-803.1 613.7,-801 607.7,-798.9 607.7,-803.1"/>
</g>
<!-- Node0x62fcd1c42ed0 -->
<g id="node77" class="node">
<title>Node0x62fcd1c42ed0</title>
<path fill="#f0f4ff" stroke="black" d="M182,-1932C182,-1932 83,-1932 83,-1932 77,-1932 71,-1926 71,-1920 71,-1920 71,-1908 71,-1908 71,-1902 77,-1896 83,-1896 83,-1896 182,-1896 182,-1896 188,-1896 194,-1902 194,-1908 194,-1908 194,-1920 194,-1920 194,-1926 188,-1932 182,-1932"/>
<text text-anchor="middle" x="132.5" y="-1911.8" font-family="Courier,monospace" font-size="9.00">CIccTagArray::Write()</text>
</g>
<!-- Node0x62fcd1c42ed0&#45;&gt;Node0x62fcd1c0ccd0 -->
<g id="edge70" class="edge">
<title>Node0x62fcd1c42ed0&#45;&gt;Node0x62fcd1c0ccd0</title>
<path fill="none" stroke="#4a6fa5" d="M194.07,-1926.73C241.45,-1936.69 306.84,-1950.43 353.11,-1960.15"/>
<polygon fill="#4a6fa5" stroke="#4a6fa5" points="352.92,-1962.26 359.23,-1961.44 353.79,-1958.15 352.92,-1962.26"/>
</g>
<!-- Node0x62fcd1c42ed0&#45;&gt;Node0x62fcd1c0f180 -->
<g id="edge71" class="edge">
<title>Node0x62fcd1c42ed0&#45;&gt;Node0x62fcd1c0f180</title>
<path fill="none" stroke="#4a6fa5" d="M194.07,-1914C241.45,-1914 306.84,-1914 353.11,-1914"/>
<polygon fill="#4a6fa5" stroke="#4a6fa5" points="353.23,-1916.1 359.23,-1914 353.23,-1911.9 353.23,-1916.1"/>
</g>
<!-- Node0x62fcd1c43f50 -->
<g id="node78" class="node">
<title>Node0x62fcd1c43f50</title>
<path fill="#f0f4ff" stroke="black" d="M706.5,-239C706.5,-239 591.5,-239 591.5,-239 585.5,-239 579.5,-233 579.5,-227 579.5,-227 579.5,-215 579.5,-215 579.5,-209 585.5,-203 591.5,-203 591.5,-203 706.5,-203 706.5,-203 712.5,-203 718.5,-209 718.5,-215 718.5,-215 718.5,-227 718.5,-227 718.5,-233 712.5,-239 706.5,-239"/>
<text text-anchor="middle" x="649" y="-218.8" font-family="Courier,monospace" font-size="9.00">CIccTagArray::Validate()</text>
</g>
<!-- Node0x62fcd1c43f50&#45;&gt;Node0x62fcd1bf2e40 -->
<g id="edge73" class="edge">
<title>Node0x62fcd1c43f50&#45;&gt;Node0x62fcd1bf2e40</title>
<path fill="none" stroke="#4a6fa5" d="M691.26,-239.1C709.02,-248.71 728.72,-262.06 742,-279 792.3,-343.15 740.7,-397.06 800,-453 811.79,-464.12 827.4,-471.07 843.05,-475.39"/>
<polygon fill="#4a6fa5" stroke="#4a6fa5" points="842.94,-477.53 849.27,-476.97 843.98,-473.46 842.94,-477.53"/>
</g>
<!-- Node0x62fcd1c43f50&#45;&gt;Node0x62fcd18c3c40 -->
<g id="edge75" class="edge">
<title>Node0x62fcd1c43f50&#45;&gt;Node0x62fcd18c3c40</title>
<path fill="none" stroke="#4a6fa5" d="M688.8,-239.25C706.68,-249.1 727.17,-262.63 742,-279 780.69,-321.72 755.37,-358.52 800,-395 811.76,-404.61 826.43,-411.06 841.11,-415.37"/>
<polygon fill="#4a6fa5" stroke="#4a6fa5" points="840.61,-417.41 846.95,-416.98 841.72,-413.36 840.61,-417.41"/>
</g>
<!-- Node0x62fcd1c43f50&#45;&gt;Node0x62fcd1c13700 -->
<g id="edge72" class="edge">
<title>Node0x62fcd1c43f50&#45;&gt;Node0x62fcd1c13700</title>
<path fill="none" stroke="#4a6fa5" d="M718.67,-228.73C758.41,-233.21 807.99,-238.79 846.37,-243.12"/>
<polygon fill="#4a6fa5" stroke="#4a6fa5" points="846.24,-245.21 852.44,-243.8 846.71,-241.04 846.24,-245.21"/>
</g>
<!-- Node0x62fcd1c43f50&#45;&gt;Node0x62fcd1c0ca50 -->
<g id="edge77" class="edge">
<title>Node0x62fcd1c43f50&#45;&gt;Node0x62fcd1c0ca50</title>
<path fill="none" stroke="#4a6fa5" d="M718.67,-213.27C752.19,-209.49 792.71,-204.93 827.61,-201"/>
<polygon fill="#4a6fa5" stroke="#4a6fa5" points="827.88,-203.08 833.61,-200.32 827.41,-198.91 827.88,-203.08"/>
</g>
<!-- Node0x62fcd1c43f50&#45;&gt;Node0x62fcd1c13ac0 -->
<g id="edge76" class="edge">
<title>Node0x62fcd1c43f50&#45;&gt;Node0x62fcd1c13ac0</title>
<path fill="none" stroke="#4a6fa5" d="M693.21,-202.9C722.95,-190.79 763.51,-174.94 800,-163 820.15,-156.41 842.76,-150.14 862.03,-145.13"/>
<polygon fill="#4a6fa5" stroke="#4a6fa5" points="862.61,-147.15 867.89,-143.62 861.56,-143.09 862.61,-147.15"/>
</g>
<!-- Node0x62fcd1c43f50&#45;&gt;Node0x62fcd1c0d920 -->
<g id="edge74" class="edge">
<title>Node0x62fcd1c43f50&#45;&gt;Node0x62fcd1c0d920</title>
<path fill="none" stroke="#4a6fa5" d="M693.21,-239.1C722.95,-251.21 763.51,-267.06 800,-279 809.75,-282.19 820.08,-285.31 830.33,-288.24"/>
<polygon fill="#4a6fa5" stroke="#4a6fa5" points="830.01,-290.33 836.35,-289.94 831.15,-286.29 830.01,-290.33"/>
</g>
<!-- Node0x62fcd1c24170 -->
<g id="node79" class="node">
<title>Node0x62fcd1c24170</title>
<path fill="#f0f4ff" stroke="black" d="M987,-36C987,-36 830,-36 830,-36 824,-36 818,-30 818,-24 818,-24 818,-12 818,-12 818,-6 824,0 830,0 830,0 987,0 987,0 993,0 999,-6 999,-12 999,-12 999,-24 999,-24 999,-30 993,-36 987,-36"/>
<text text-anchor="middle" x="908.5" y="-15.8" font-family="Courier,monospace" font-size="9.00">icGetMaterialColorSpaceSamples()</text>
</g>
<!-- Node0x62fcd1c43f50&#45;&gt;Node0x62fcd1c24170 -->
<g id="edge78" class="edge">
<title>Node0x62fcd1c43f50&#45;&gt;Node0x62fcd1c24170</title>
<path fill="none" stroke="#4a6fa5" d="M660.44,-202.85C681.86,-167.28 734.33,-88.3 800,-47 805.03,-43.84 810.41,-41.01 815.97,-38.5"/>
<polygon fill="#4a6fa5" stroke="#4a6fa5" points="816.9,-40.38 821.59,-36.08 815.24,-36.52 816.9,-40.38"/>
</g>
<!-- Node0x62fcd1c45970 -->
<g id="node80" class="node">
<title>Node0x62fcd1c45970</title>
<path fill="#f0f4ff" stroke="black" d="M960.5,-94C960.5,-94 856.5,-94 856.5,-94 850.5,-94 844.5,-88 844.5,-82 844.5,-82 844.5,-70 844.5,-70 844.5,-64 850.5,-58 856.5,-58 856.5,-58 960.5,-58 960.5,-58 966.5,-58 972.5,-64 972.5,-70 972.5,-70 972.5,-82 972.5,-82 972.5,-88 966.5,-94 960.5,-94"/>
<text text-anchor="middle" x="908.5" y="-73.8" font-family="Courier,monospace" font-size="9.00">icGetFirstSigPathSig()</text>
</g>
<!-- Node0x62fcd1c43f50&#45;&gt;Node0x62fcd1c45970 -->
<g id="edge79" class="edge">
<title>Node0x62fcd1c43f50&#45;&gt;Node0x62fcd1c45970</title>
<path fill="none" stroke="#4a6fa5" d="M668.22,-202.94C694.91,-177.48 747.22,-131.21 800,-105 811.94,-99.07 825.24,-94.24 838.31,-90.33"/>
<polygon fill="#4a6fa5" stroke="#4a6fa5" points="839.11,-92.28 844.29,-88.6 837.94,-88.25 839.11,-92.28"/>
</g>
<!-- Node0x62fcd1c44c50 -->
<g id="node81" class="node">
<title>Node0x62fcd1c44c50</title>
<path fill="#f0f4ff" stroke="black" d="M192.5,-2512C192.5,-2512 72.5,-2512 72.5,-2512 66.5,-2512 60.5,-2506 60.5,-2500 60.5,-2500 60.5,-2488 60.5,-2488 60.5,-2482 66.5,-2476 72.5,-2476 72.5,-2476 192.5,-2476 192.5,-2476 198.5,-2476 204.5,-2482 204.5,-2488 204.5,-2488 204.5,-2500 204.5,-2500 204.5,-2506 198.5,-2512 192.5,-2512"/>
<text text-anchor="middle" x="132.5" y="-2491.8" font-family="Courier,monospace" font-size="9.00">CIccTagArray::AttachTag()</text>
</g>
<!-- Node0x62fcd1c25070 -->
<g id="node82" class="node">
<title>Node0x62fcd1c25070</title>
<path fill="#f0f4ff" stroke="black" d="M192.5,-2570C192.5,-2570 72.5,-2570 72.5,-2570 66.5,-2570 60.5,-2564 60.5,-2558 60.5,-2558 60.5,-2546 60.5,-2546 60.5,-2540 66.5,-2534 72.5,-2534 72.5,-2534 192.5,-2534 192.5,-2534 198.5,-2534 204.5,-2540 204.5,-2546 204.5,-2546 204.5,-2558 204.5,-2558 204.5,-2564 198.5,-2570 192.5,-2570"/>
<text text-anchor="middle" x="132.5" y="-2549.8" font-family="Courier,monospace" font-size="9.00">CIccTagArray::DetachTag()</text>
</g>
<!-- Node0x62fcd1c26410 -->
<g id="node83" class="node">
<title>Node0x62fcd1c26410</title>
<path fill="#f0f4ff" stroke="black" d="M724.5,-703C724.5,-703 573.5,-703 573.5,-703 567.5,-703 561.5,-697 561.5,-691 561.5,-691 561.5,-679 561.5,-679 561.5,-673 567.5,-667 573.5,-667 573.5,-667 724.5,-667 724.5,-667 730.5,-667 736.5,-673 736.5,-679 736.5,-679 736.5,-691 736.5,-691 736.5,-697 730.5,-703 724.5,-703"/>
<text text-anchor="middle" x="649" y="-682.8" font-family="Courier,monospace" font-size="9.00">CIccTagArray::GetArrayHandler()</text>
</g>
<!-- Node0x62fcd1c26410&#45;&gt;Node0x62fcd1c3da90 -->
<g id="edge80" class="edge">
<title>Node0x62fcd1c26410&#45;&gt;Node0x62fcd1c3da90</title>
<path fill="none" stroke="#4a6fa5" d="M736.82,-694.78C761.83,-697.59 789.2,-700.68 814.56,-703.53"/>
<polygon fill="#4a6fa5" stroke="#4a6fa5" points="814.42,-705.63 820.62,-704.22 814.89,-701.46 814.42,-705.63"/>
</g>
<!-- Node0x62fcd1c25570 -->
<g id="node84" class="node">
<title>Node0x62fcd1c25570</title>
<path fill="#f0f4ff" stroke="black" d="M465,-1642C465,-1642 356,-1642 356,-1642 350,-1642 344,-1636 344,-1630 344,-1630 344,-1618 344,-1618 344,-1612 350,-1606 356,-1606 356,-1606 465,-1606 465,-1606 471,-1606 477,-1612 477,-1618 477,-1618 477,-1630 477,-1630 477,-1636 471,-1642 465,-1642"/>
<text text-anchor="middle" x="410.5" y="-1621.8" font-family="Courier,monospace" font-size="9.00">icGetTagStructHandler()</text>
</g>
<!-- Node0x62fcd1c25570&#45;&gt;Node0x62fcd1c389a0 -->
<g id="edge81" class="edge">
<title>Node0x62fcd1c25570&#45;&gt;Node0x62fcd1c389a0</title>
<path fill="none" stroke="#4a6fa5" d="M477.06,-1624C499.5,-1624 525.11,-1624 549.56,-1624"/>
<polygon fill="#4a6fa5" stroke="#4a6fa5" points="549.74,-1626.1 555.74,-1624 549.74,-1621.9 549.74,-1626.1"/>
</g>
<!-- Node0x62fcd1c46460 -->
<g id="node85" class="node">
<title>Node0x62fcd1c46460</title>
<path fill="#f0f4ff" stroke="black" d="M203,-1642C203,-1642 62,-1642 62,-1642 56,-1642 50,-1636 50,-1630 50,-1630 50,-1618 50,-1618 50,-1612 56,-1606 62,-1606 62,-1606 203,-1606 203,-1606 209,-1606 215,-1612 215,-1618 215,-1618 215,-1630 215,-1630 215,-1636 209,-1642 203,-1642"/>
<text text-anchor="middle" x="132.5" y="-1621.8" font-family="Courier,monospace" font-size="9.00">icGetTagStructHandlerOfType()</text>
</g>
<!-- Node0x62fcd1c46460&#45;&gt;Node0x62fcd1c25570 -->
<g id="edge82" class="edge">
<title>Node0x62fcd1c46460&#45;&gt;Node0x62fcd1c25570</title>
<path fill="none" stroke="#4a6fa5" d="M215.19,-1624C253.96,-1624 299.88,-1624 337.35,-1624"/>
<polygon fill="#4a6fa5" stroke="#4a6fa5" points="337.76,-1626.1 343.76,-1624 337.76,-1621.9 337.76,-1626.1"/>
</g>
<!-- Node0x62fcd1c463e0 -->
<g id="node86" class="node">
<title>Node0x62fcd1c463e0</title>
<path fill="#f0f4ff" stroke="black" d="M462.5,-703C462.5,-703 358.5,-703 358.5,-703 352.5,-703 346.5,-697 346.5,-691 346.5,-691 346.5,-679 346.5,-679 346.5,-673 352.5,-667 358.5,-667 358.5,-667 462.5,-667 462.5,-667 468.5,-667 474.5,-673 474.5,-679 474.5,-679 474.5,-691 474.5,-691 474.5,-697 468.5,-703 462.5,-703"/>
<text text-anchor="middle" x="410.5" y="-682.8" font-family="Courier,monospace" font-size="9.00">icGetTagArrayHandler()</text>
</g>
<!-- Node0x62fcd1c463e0&#45;&gt;Node0x62fcd1c26410 -->
<g id="edge83" class="edge">
<title>Node0x62fcd1c463e0&#45;&gt;Node0x62fcd1c26410</title>
<path fill="none" stroke="#4a6fa5" d="M474.57,-685C499.25,-685 528.06,-685 555.03,-685"/>
<polygon fill="#4a6fa5" stroke="#4a6fa5" points="555.12,-687.1 561.12,-685 555.12,-682.9 555.12,-687.1"/>
</g>
<!-- Node0x62fcd1c24ff0 -->
<g id="node87" class="node">
<title>Node0x62fcd1c24ff0</title>
<path fill="#f0f4ff" stroke="black" d="M200.5,-703C200.5,-703 64.5,-703 64.5,-703 58.5,-703 52.5,-697 52.5,-691 52.5,-691 52.5,-679 52.5,-679 52.5,-673 58.5,-667 64.5,-667 64.5,-667 200.5,-667 200.5,-667 206.5,-667 212.5,-673 212.5,-679 212.5,-679 212.5,-691 212.5,-691 212.5,-697 206.5,-703 200.5,-703"/>
<text text-anchor="middle" x="132.5" y="-682.8" font-family="Courier,monospace" font-size="9.00">icGetTagArrayHandlerOfType()</text>
</g>
<!-- Node0x62fcd1c24ff0&#45;&gt;Node0x62fcd1c463e0 -->
<g id="edge84" class="edge">
<title>Node0x62fcd1c24ff0&#45;&gt;Node0x62fcd1c463e0</title>
<path fill="none" stroke="#4a6fa5" d="M212.59,-685C252.81,-685 301.25,-685 340.02,-685"/>
<polygon fill="#4a6fa5" stroke="#4a6fa5" points="340.16,-687.1 346.16,-685 340.16,-682.9 340.16,-687.1"/>
</g>
<!-- Node0x62fcd1c28dd0 -->
<g id="node88" class="node">
<title>Node0x62fcd1c28dd0</title>
<path fill="#f0f4ff" stroke="black" d="M192.5,-2628C192.5,-2628 72.5,-2628 72.5,-2628 66.5,-2628 60.5,-2622 60.5,-2616 60.5,-2616 60.5,-2604 60.5,-2604 60.5,-2598 66.5,-2592 72.5,-2592 72.5,-2592 192.5,-2592 192.5,-2592 198.5,-2592 204.5,-2598 204.5,-2604 204.5,-2604 204.5,-2616 204.5,-2616 204.5,-2622 198.5,-2628 192.5,-2628"/>
<text text-anchor="middle" x="132.5" y="-2607.8" font-family="Courier,monospace" font-size="9.00">IIccStruct::~IIccStruct()</text>
</g>
<!-- Node0x62fcd1c130a0 -->
<g id="node89" class="node">
<title>Node0x62fcd1c130a0</title>
<path fill="#f0f4ff" stroke="black" d="M192.5,-2686C192.5,-2686 72.5,-2686 72.5,-2686 66.5,-2686 60.5,-2680 60.5,-2674 60.5,-2674 60.5,-2662 60.5,-2662 60.5,-2656 66.5,-2650 72.5,-2650 72.5,-2650 192.5,-2650 192.5,-2650 198.5,-2650 204.5,-2656 204.5,-2662 204.5,-2662 204.5,-2674 204.5,-2674 204.5,-2680 198.5,-2686 192.5,-2686"/>
<text text-anchor="middle" x="132.5" y="-2665.8" font-family="Courier,monospace" font-size="9.00">IIccStruct::~IIccStruct()</text>
</g>
<!-- Node0x62fcd1c14b00 -->
<g id="node90" class="node">
<title>Node0x62fcd1c14b00</title>
<path fill="#f0f4ff" stroke="black" d="M190,-2744C190,-2744 75,-2744 75,-2744 69,-2744 63,-2738 63,-2732 63,-2732 63,-2720 63,-2720 63,-2714 69,-2708 75,-2708 75,-2708 190,-2708 190,-2708 196,-2708 202,-2714 202,-2720 202,-2720 202,-2732 202,-2732 202,-2738 196,-2744 190,-2744"/>
<text text-anchor="middle" x="132.5" y="-2723.8" font-family="Courier,monospace" font-size="9.00">CIccTagStruct::NewCopy()</text>
</g>
<!-- Node0x62fcd1c54780 -->
<g id="node91" class="node">
<title>Node0x62fcd1c54780</title>
<path fill="#f0f4ff" stroke="black" d="M190,-2802C190,-2802 75,-2802 75,-2802 69,-2802 63,-2796 63,-2790 63,-2790 63,-2778 63,-2778 63,-2772 69,-2766 75,-2766 75,-2766 190,-2766 190,-2766 196,-2766 202,-2772 202,-2778 202,-2778 202,-2790 202,-2790 202,-2796 196,-2802 190,-2802"/>
<text text-anchor="middle" x="132.5" y="-2781.8" font-family="Courier,monospace" font-size="9.00">CIccTagStruct::GetType()</text>
</g>
<!-- Node0x62fcd1c53b50 -->
<g id="node92" class="node">
<title>Node0x62fcd1c53b50</title>
<path fill="#f0f4ff" stroke="black" d="M213.5,-2860C213.5,-2860 51.5,-2860 51.5,-2860 45.5,-2860 39.5,-2854 39.5,-2848 39.5,-2848 39.5,-2836 39.5,-2836 39.5,-2830 45.5,-2824 51.5,-2824 51.5,-2824 213.5,-2824 213.5,-2824 219.5,-2824 225.5,-2830 225.5,-2836 225.5,-2836 225.5,-2848 225.5,-2848 225.5,-2854 219.5,-2860 213.5,-2860"/>
<text text-anchor="middle" x="132.5" y="-2839.8" font-family="Courier,monospace" font-size="9.00">CIccTagStruct::GetTagStructType()</text>
</g>
<!-- Node0x62fcd1c533b0 -->
<g id="node93" class="node">
<title>Node0x62fcd1c533b0</title>
<path fill="#f0f4ff" stroke="black" d="M195,-2918C195,-2918 70,-2918 70,-2918 64,-2918 58,-2912 58,-2906 58,-2906 58,-2894 58,-2894 58,-2888 64,-2882 70,-2882 70,-2882 195,-2882 195,-2882 201,-2882 207,-2888 207,-2894 207,-2894 207,-2906 207,-2906 207,-2912 201,-2918 195,-2918"/>
<text text-anchor="middle" x="132.5" y="-2897.8" font-family="Courier,monospace" font-size="9.00">CIccTag::GetTagArrayType()</text>
</g>
<!-- Node0x62fcd1c54a40 -->
<g id="node94" class="node">
<title>Node0x62fcd1c54a40</title>
<path fill="#f0f4ff" stroke="black" d="M184.5,-2976C184.5,-2976 80.5,-2976 80.5,-2976 74.5,-2976 68.5,-2970 68.5,-2964 68.5,-2964 68.5,-2952 68.5,-2952 68.5,-2946 74.5,-2940 80.5,-2940 80.5,-2940 184.5,-2940 184.5,-2940 190.5,-2940 196.5,-2946 196.5,-2952 196.5,-2952 196.5,-2964 196.5,-2964 196.5,-2970 190.5,-2976 184.5,-2976"/>
<text text-anchor="middle" x="132.5" y="-2955.8" font-family="Courier,monospace" font-size="9.00">CIccTag::IsArrayType()</text>
</g>
<!-- Node0x62fcd1c57ea0 -->
<g id="node95" class="node">
<title>Node0x62fcd1c57ea0</title>
<path fill="#f0f4ff" stroke="black" d="M179.5,-3034C179.5,-3034 85.5,-3034 85.5,-3034 79.5,-3034 73.5,-3028 73.5,-3022 73.5,-3022 73.5,-3010 73.5,-3010 73.5,-3004 79.5,-2998 85.5,-2998 85.5,-2998 179.5,-2998 179.5,-2998 185.5,-2998 191.5,-3004 191.5,-3010 191.5,-3010 191.5,-3022 191.5,-3022 191.5,-3028 185.5,-3034 179.5,-3034"/>
<text text-anchor="middle" x="132.5" y="-3013.8" font-family="Courier,monospace" font-size="9.00">CIccTag::IsMBBType()</text>
</g>
<!-- Node0x62fcd1c54490 -->
<g id="node96" class="node">
<title>Node0x62fcd1c54490</title>
<path fill="#f0f4ff" stroke="black" d="M192.5,-3092C192.5,-3092 72.5,-3092 72.5,-3092 66.5,-3092 60.5,-3086 60.5,-3080 60.5,-3080 60.5,-3068 60.5,-3068 60.5,-3062 66.5,-3056 72.5,-3056 72.5,-3056 192.5,-3056 192.5,-3056 198.5,-3056 204.5,-3062 204.5,-3068 204.5,-3068 204.5,-3080 204.5,-3080 204.5,-3086 198.5,-3092 192.5,-3092"/>
<text text-anchor="middle" x="132.5" y="-3071.8" font-family="Courier,monospace" font-size="9.00">CIccTag::IsNumArrayType()</text>
</g>
<!-- Node0x62fcd1c55c70 -->
<g id="node97" class="node">
<title>Node0x62fcd1c55c70</title>
<path fill="#f0f4ff" stroke="black" d="M203,-3150C203,-3150 62,-3150 62,-3150 56,-3150 50,-3144 50,-3138 50,-3138 50,-3126 50,-3126 50,-3120 56,-3114 62,-3114 62,-3114 203,-3114 203,-3114 209,-3114 215,-3120 215,-3126 215,-3126 215,-3138 215,-3138 215,-3144 209,-3150 203,-3150"/>
<text text-anchor="middle" x="132.5" y="-3129.8" font-family="Courier,monospace" font-size="9.00">CIccTagStruct::GetClassName()</text>
</g>
<!-- Node0x62fcd1c55180 -->
<g id="node98" class="node">
<title>Node0x62fcd1c55180</title>
<path fill="#f0f4ff" stroke="black" d="M187,-3208C187,-3208 78,-3208 78,-3208 72,-3208 66,-3202 66,-3196 66,-3196 66,-3184 66,-3184 66,-3178 72,-3172 78,-3172 78,-3172 187,-3172 187,-3172 193,-3172 199,-3178 199,-3184 199,-3184 199,-3196 199,-3196 199,-3202 193,-3208 187,-3208"/>
<text text-anchor="middle" x="132.5" y="-3187.8" font-family="Courier,monospace" font-size="9.00">CIccTag::GetExtension()</text>
</g>
<!-- Node0x62fcd1c58870 -->
<g id="node99" class="node">
<title>Node0x62fcd1c58870</title>
<path fill="#f0f4ff" stroke="black" d="M184.5,-3266C184.5,-3266 80.5,-3266 80.5,-3266 74.5,-3266 68.5,-3260 68.5,-3254 68.5,-3254 68.5,-3242 68.5,-3242 68.5,-3236 74.5,-3230 80.5,-3230 80.5,-3230 184.5,-3230 184.5,-3230 190.5,-3230 196.5,-3236 196.5,-3242 196.5,-3242 196.5,-3254 196.5,-3254 196.5,-3260 190.5,-3266 184.5,-3266"/>
<text text-anchor="middle" x="132.5" y="-3245.8" font-family="Courier,monospace" font-size="9.00">CIccTag::IsSupported()</text>
</g>
<!-- Node0x62fcd1c585c0 -->
<g id="node100" class="node">
<title>Node0x62fcd1c585c0</title>
<path fill="#f0f4ff" stroke="black" d="M174,-3324C174,-3324 91,-3324 91,-3324 85,-3324 79,-3318 79,-3312 79,-3312 79,-3300 79,-3300 79,-3294 85,-3288 91,-3288 91,-3288 174,-3288 174,-3288 180,-3288 186,-3294 186,-3300 186,-3300 186,-3312 186,-3312 186,-3318 180,-3324 174,-3324"/>
<text text-anchor="middle" x="132.5" y="-3303.8" font-family="Courier,monospace" font-size="9.00">CIccTag::ReadAll()</text>
</g>
<!-- Node0x62fcd1c58460 -->
<g id="node101" class="node">
<title>Node0x62fcd1c58460</title>
<path fill="#f0f4ff" stroke="black" d="M176.5,-3382C176.5,-3382 88.5,-3382 88.5,-3382 82.5,-3382 76.5,-3376 76.5,-3370 76.5,-3370 76.5,-3358 76.5,-3358 76.5,-3352 82.5,-3346 88.5,-3346 88.5,-3346 176.5,-3346 176.5,-3346 182.5,-3346 188.5,-3352 188.5,-3358 188.5,-3358 188.5,-3370 188.5,-3370 188.5,-3376 182.5,-3382 176.5,-3382"/>
<text text-anchor="middle" x="132.5" y="-3361.8" font-family="Courier,monospace" font-size="9.00">CIccTag::DetachIO()</text>
</g>
<!-- Node0x62fcd1c58160 -->
<g id="node102" class="node">
<title>Node0x62fcd1c58160</title>
<path fill="#f0f4ff" stroke="black" d="M166,-3440C166,-3440 99,-3440 99,-3440 93,-3440 87,-3434 87,-3428 87,-3428 87,-3416 87,-3416 87,-3410 93,-3404 99,-3404 99,-3404 166,-3404 166,-3404 172,-3404 178,-3410 178,-3416 178,-3416 178,-3428 178,-3428 178,-3434 172,-3440 166,-3440"/>
<text text-anchor="middle" x="132.5" y="-3419.8" font-family="Courier,monospace" font-size="9.00">CIccTag::Read()</text>
</g>
<!-- Node0x62fcd1c59b10 -->
<g id="node103" class="node">
<title>Node0x62fcd1c59b10</title>
<path fill="#f0f4ff" stroke="black" d="M187,-3498C187,-3498 78,-3498 78,-3498 72,-3498 66,-3492 66,-3486 66,-3486 66,-3474 66,-3474 66,-3468 72,-3462 78,-3462 78,-3462 187,-3462 187,-3462 193,-3462 199,-3468 199,-3474 199,-3474 199,-3486 199,-3486 199,-3492 193,-3498 187,-3498"/>
<text text-anchor="middle" x="132.5" y="-3477.8" font-family="Courier,monospace" font-size="9.00">CIccTagArray::NewCopy()</text>
</g>
<!-- Node0x62fcd1c59a10 -->
<g id="node104" class="node">
<title>Node0x62fcd1c59a10</title>
<path fill="#f0f4ff" stroke="black" d="M187,-3556C187,-3556 78,-3556 78,-3556 72,-3556 66,-3550 66,-3544 66,-3544 66,-3532 66,-3532 66,-3526 72,-3520 78,-3520 78,-3520 187,-3520 187,-3520 193,-3520 199,-3526 199,-3532 199,-3532 199,-3544 199,-3544 199,-3550 193,-3556 187,-3556"/>
<text text-anchor="middle" x="132.5" y="-3535.8" font-family="Courier,monospace" font-size="9.00">CIccTagArray::GetType()</text>
</g>
<!-- Node0x62fcd1c5a270 -->
<g id="node105" class="node">
<title>Node0x62fcd1c5a270</title>
<path fill="#f0f4ff" stroke="black" d="M200.5,-3614C200.5,-3614 64.5,-3614 64.5,-3614 58.5,-3614 52.5,-3608 52.5,-3602 52.5,-3602 52.5,-3590 52.5,-3590 52.5,-3584 58.5,-3578 64.5,-3578 64.5,-3578 200.5,-3578 200.5,-3578 206.5,-3578 212.5,-3584 212.5,-3590 212.5,-3590 212.5,-3602 212.5,-3602 212.5,-3608 206.5,-3614 200.5,-3614"/>
<text text-anchor="middle" x="132.5" y="-3593.8" font-family="Courier,monospace" font-size="9.00">CIccTagArray::GetClassName()</text>
</g>
<!-- Node0x62fcd1c5aba0 -->
<g id="node106" class="node">
<title>Node0x62fcd1c5aba0</title>
<path fill="#f0f4ff" stroke="black" d="M253,-3672C253,-3672 12,-3672 12,-3672 6,-3672 0,-3666 0,-3660 0,-3660 0,-3648 0,-3648 0,-3642 6,-3636 12,-3636 12,-3636 253,-3636 253,-3636 259,-3636 265,-3642 265,-3648 265,-3648 265,-3660 265,-3660 265,-3666 259,-3672 253,-3672"/>
<text text-anchor="middle" x="132.5" y="-3651.8" font-family="Courier,monospace" font-size="9.00">__detail::_List_node_header::_List_node_header()</text>
</g>
<!-- Node0x62fcd1853b20 -->
<g id="node107" class="node">
<title>Node0x62fcd1853b20</title>
<path fill="#f0f4ff" stroke="black" d="M221.5,-3730C221.5,-3730 43.5,-3730 43.5,-3730 37.5,-3730 31.5,-3724 31.5,-3718 31.5,-3718 31.5,-3706 31.5,-3706 31.5,-3700 37.5,-3694 43.5,-3694 43.5,-3694 221.5,-3694 221.5,-3694 227.5,-3694 233.5,-3700 233.5,-3706 233.5,-3706 233.5,-3718 233.5,-3718 233.5,-3724 227.5,-3730 221.5,-3730"/>
<text text-anchor="middle" x="132.5" y="-3709.8" font-family="Courier,monospace" font-size="9.00">__detail::_List_node_base::_M_hook()</text>
</g>
<!-- Node0x62fcd1c4cdf0 -->
<g id="node108" class="node">
<title>Node0x62fcd1c4cdf0</title>
<path fill="#f0f4ff" stroke="black" d="M171.5,-3788C171.5,-3788 93.5,-3788 93.5,-3788 87.5,-3788 81.5,-3782 81.5,-3776 81.5,-3776 81.5,-3764 81.5,-3764 81.5,-3758 87.5,-3752 93.5,-3752 93.5,-3752 171.5,-3752 171.5,-3752 177.5,-3752 183.5,-3758 183.5,-3764 183.5,-3764 183.5,-3776 183.5,-3776 183.5,-3782 177.5,-3788 171.5,-3788"/>
<text text-anchor="middle" x="132.5" y="-3767.8" font-family="Courier,monospace" font-size="9.00">__allocated_ptr()</text>
</g>
<!-- Node0x62fcd1c34a90 -->
<g id="node109" class="node">
<title>Node0x62fcd1c34a90</title>
<path fill="#f0f4ff" stroke="black" d="M171.5,-3846C171.5,-3846 93.5,-3846 93.5,-3846 87.5,-3846 81.5,-3840 81.5,-3834 81.5,-3834 81.5,-3822 81.5,-3822 81.5,-3816 87.5,-3810 93.5,-3810 93.5,-3810 171.5,-3810 171.5,-3810 177.5,-3810 183.5,-3816 183.5,-3822 183.5,-3822 183.5,-3834 183.5,-3834 183.5,-3840 177.5,-3846 171.5,-3846"/>
<text text-anchor="middle" x="132.5" y="-3825.8" font-family="Courier,monospace" font-size="9.00">__allocated_ptr()</text>
</g>
<!-- Node0x62fcd1c34740 -->
<g id="node110" class="node">
<title>Node0x62fcd1c34740</title>
<path fill="#f0f4ff" stroke="black" d="M153,-3904C153,-3904 112,-3904 112,-3904 106,-3904 100,-3898 100,-3892 100,-3892 100,-3880 100,-3880 100,-3874 106,-3868 112,-3868 112,-3868 153,-3868 153,-3868 159,-3868 165,-3874 165,-3880 165,-3880 165,-3892 165,-3892 165,-3898 159,-3904 153,-3904"/>
<text text-anchor="middle" x="132.5" y="-3883.8" font-family="Courier,monospace" font-size="9.00">decltype()</text>
</g>
<!-- Node0x62fcd1c4a330 -->
<g id="node111" class="node">
<title>Node0x62fcd1c4a330</title>
<path fill="#f0f4ff" stroke="black" d="M171.5,-3962C171.5,-3962 93.5,-3962 93.5,-3962 87.5,-3962 81.5,-3956 81.5,-3950 81.5,-3950 81.5,-3938 81.5,-3938 81.5,-3932 87.5,-3926 93.5,-3926 93.5,-3926 171.5,-3926 171.5,-3926 177.5,-3926 183.5,-3932 183.5,-3938 183.5,-3938 183.5,-3950 183.5,-3950 183.5,-3956 177.5,-3962 171.5,-3962"/>
<text text-anchor="middle" x="132.5" y="-3941.8" font-family="Courier,monospace" font-size="9.00">__allocated_ptr()</text>
</g>
<!-- Node0x62fcd1c16a40 -->
<g id="node112" class="node">
<title>Node0x62fcd1c16a40</title>
<path fill="#f0f4ff" stroke="black" d="M147.5,-4020C147.5,-4020 117.5,-4020 117.5,-4020 111.5,-4020 105.5,-4014 105.5,-4008 105.5,-4008 105.5,-3996 105.5,-3996 105.5,-3990 111.5,-3984 117.5,-3984 117.5,-3984 147.5,-3984 147.5,-3984 153.5,-3984 159.5,-3990 159.5,-3996 159.5,-3996 159.5,-4008 159.5,-4008 159.5,-4014 153.5,-4020 147.5,-4020"/>
<text text-anchor="middle" x="132.5" y="-3999.8" font-family="Courier,monospace" font-size="9.00">c_str()</text>
</g>
<!-- Node0x62fcd1c16c00 -->
<g id="node113" class="node">
<title>Node0x62fcd1c16c00</title>
<path fill="#f0f4ff" stroke="black" d="M148,-4078C148,-4078 117,-4078 117,-4078 111,-4078 105,-4072 105,-4066 105,-4066 105,-4054 105,-4054 105,-4048 111,-4042 117,-4042 117,-4042 148,-4042 148,-4042 154,-4042 160,-4048 160,-4054 160,-4054 160,-4066 160,-4066 160,-4072 154,-4078 148,-4078"/>
<text text-anchor="middle" x="132.5" y="-4057.8" font-family="Courier,monospace" font-size="9.00">length()</text>
</g>
<!-- Node0x62fcd1c16340 -->
<g id="node114" class="node">
<title>Node0x62fcd1c16340</title>
<path fill="#f0f4ff" stroke="black" d="M166,-4136C166,-4136 99,-4136 99,-4136 93,-4136 87,-4130 87,-4124 87,-4124 87,-4112 87,-4112 87,-4106 93,-4100 99,-4100 99,-4100 166,-4100 166,-4100 172,-4100 178,-4106 178,-4112 178,-4112 178,-4124 178,-4124 178,-4130 172,-4136 166,-4136"/>
<text text-anchor="middle" x="132.5" y="-4115.8" font-family="Courier,monospace" font-size="9.00">get_allocator()</text>
</g>
<!-- Node0x62fcd1c4a970 -->
<g id="node115" class="node">
<title>Node0x62fcd1c4a970</title>
<path fill="#f0f4ff" stroke="black" d="M150.5,-4194C150.5,-4194 114.5,-4194 114.5,-4194 108.5,-4194 102.5,-4188 102.5,-4182 102.5,-4182 102.5,-4170 102.5,-4170 102.5,-4164 108.5,-4158 114.5,-4158 114.5,-4158 150.5,-4158 150.5,-4158 156.5,-4158 162.5,-4164 162.5,-4170 162.5,-4170 162.5,-4182 162.5,-4182 162.5,-4188 156.5,-4194 150.5,-4194"/>
<text text-anchor="middle" x="132.5" y="-4173.8" font-family="Courier,monospace" font-size="9.00">reserve()</text>
</g>
<!-- Node0x62fcd1c4a4c0 -->
<g id="node116" class="node">
<title>Node0x62fcd1c4a4c0</title>
<path fill="#f0f4ff" stroke="black" d="M148,-4252C148,-4252 117,-4252 117,-4252 111,-4252 105,-4246 105,-4240 105,-4240 105,-4228 105,-4228 105,-4222 111,-4216 117,-4216 117,-4216 148,-4216 148,-4216 154,-4216 160,-4222 160,-4228 160,-4228 160,-4240 160,-4240 160,-4246 154,-4252 148,-4252"/>
<text text-anchor="middle" x="132.5" y="-4231.8" font-family="Courier,monospace" font-size="9.00">append()</text>
</g>
<!-- Node0x62fcd1c6ba20 -->
<g id="node117" class="node">
<title>Node0x62fcd1c6ba20</title>
<path fill="#f0f4ff" stroke="black" d="M226.5,-4310C226.5,-4310 38.5,-4310 38.5,-4310 32.5,-4310 26.5,-4304 26.5,-4298 26.5,-4298 26.5,-4286 26.5,-4286 26.5,-4280 32.5,-4274 38.5,-4274 38.5,-4274 226.5,-4274 226.5,-4274 232.5,-4274 238.5,-4280 238.5,-4286 238.5,-4286 238.5,-4298 238.5,-4298 238.5,-4304 232.5,-4310 226.5,-4310"/>
<text text-anchor="middle" x="132.5" y="-4289.8" font-family="Courier,monospace" font-size="9.00">__detail::_List_node_base::_M_unhook()</text>
</g>
</g>
</svg>
