<?xml version="1.0" encoding="UTF-8" standalone="no"?>
<!DOCTYPE svg PUBLIC "-//W3C//DTD SVG 1.1//EN"
 "http://www.w3.org/Graphics/SVG/1.1/DTD/svg11.dtd">
<!-- Generated by graphviz version 2.43.0 (0)
 -->
<!-- Title: Call graph: /home/h02332/po/research/call&#45;graph/iccdev/proflib/IccTagMPE.ll Pages: 1 -->
<svg width="1186pt" height="6198pt"
 viewBox="0.00 0.00 1186.20 6198.20" xmlns="http://www.w3.org/2000/svg" xmlns:xlink="http://www.w3.org/1999/xlink">
<g id="graph0" class="graph" transform="scale(1 1) rotate(0) translate(21.6 6176.6)">
<title>Call graph: /home/h02332/po/research/call&#45;graph/iccdev/proflib/IccTagMPE.ll</title>
<polygon fill="white" stroke="transparent" points="-21.6,21.6 -21.6,-6176.6 1164.6,-6176.6 1164.6,21.6 -21.6,21.6"/>
<!-- Node0x63fe85074c90 -->
<g id="node1" class="node">
<title>Node0x63fe85074c90</title>
<path fill="#f0f4ff" stroke="black" d="M232,-65C232,-65 96,-65 96,-65 90,-65 84,-59 84,-53 84,-53 84,-41 84,-41 84,-35 90,-29 96,-29 96,-29 232,-29 232,-29 238,-29 244,-35 244,-41 244,-41 244,-53 244,-53 244,-59 238,-65 232,-65"/>
<text text-anchor="middle" x="164" y="-44.8" font-family="Courier,monospace" font-size="9.00">CIccApplyMpe::CIccApplyMpe()</text>
</g>
<!-- Node0x63fe85046ec0 -->
<g id="node2" class="node">
<title>Node0x63fe85046ec0</title>
<path fill="#f0f4ff" stroke="black" d="M226.5,-500C226.5,-500 101.5,-500 101.5,-500 95.5,-500 89.5,-494 89.5,-488 89.5,-488 89.5,-476 89.5,-476 89.5,-470 95.5,-464 101.5,-464 101.5,-464 226.5,-464 226.5,-464 232.5,-464 238.5,-470 238.5,-476 238.5,-476 238.5,-488 238.5,-488 238.5,-494 232.5,-500 226.5,-500"/>
<text text-anchor="middle" x="164" y="-479.8" font-family="Courier,monospace" font-size="9.00">CIccMpeUnknown::Validate()</text>
</g>
<!-- Node0x63fe85045c70 -->
<g id="node3" class="node">
<title>Node0x63fe85045c70</title>
<path fill="#f0f4ff" stroke="black" d="M573,-616C573,-616 479,-616 479,-616 473,-616 467,-610 467,-604 467,-604 467,-592 467,-592 467,-586 473,-580 479,-580 479,-580 573,-580 573,-580 579,-580 585,-586 585,-592 585,-592 585,-604 585,-604 585,-610 579,-616 573,-616"/>
<text text-anchor="middle" x="526" y="-595.8" font-family="Courier,monospace" font-size="9.00">CIccInfo::CIccInfo()</text>
</g>
<!-- Node0x63fe85046ec0&#45;&gt;Node0x63fe85045c70 -->
<g id="edge1" class="edge">
<title>Node0x63fe85046ec0&#45;&gt;Node0x63fe85045c70</title>
<path fill="none" stroke="#4a6fa5" d="M238.66,-485.58C267.78,-489.38 300.73,-496.78 328,-511 360.32,-527.86 353.93,-551.67 386,-569 408.79,-581.32 436.29,-588.41 460.8,-592.49"/>
<polygon fill="#4a6fa5" stroke="#4a6fa5" points="460.71,-594.6 466.96,-593.47 461.36,-590.45 460.71,-594.6"/>
</g>
<!-- Node0x63fe85046c10 -->
<g id="node4" class="node">
<title>Node0x63fe85046c10</title>
<path fill="#f0f4ff" stroke="black" d="M588.5,-558C588.5,-558 463.5,-558 463.5,-558 457.5,-558 451.5,-552 451.5,-546 451.5,-546 451.5,-534 451.5,-534 451.5,-528 457.5,-522 463.5,-522 463.5,-522 588.5,-522 588.5,-522 594.5,-522 600.5,-528 600.5,-534 600.5,-534 600.5,-546 600.5,-546 600.5,-552 594.5,-558 588.5,-558"/>
<text text-anchor="middle" x="526" y="-537.8" font-family="Courier,monospace" font-size="9.00">CIccInfo::GetSigPathName()</text>
</g>
<!-- Node0x63fe85046ec0&#45;&gt;Node0x63fe85046c10 -->
<g id="edge2" class="edge">
<title>Node0x63fe85046ec0&#45;&gt;Node0x63fe85046c10</title>
<path fill="none" stroke="#4a6fa5" d="M238.72,-493.88C298.78,-503.55 383.44,-517.19 445.11,-527.13"/>
<polygon fill="#4a6fa5" stroke="#4a6fa5" points="445.12,-529.26 451.38,-528.14 445.79,-525.11 445.12,-529.26"/>
</g>
<!-- Node0x63fe85046ba0 -->
<g id="node5" class="node">
<title>Node0x63fe85046ba0</title>
<path fill="#f0f4ff" stroke="black" d="M575.5,-500C575.5,-500 476.5,-500 476.5,-500 470.5,-500 464.5,-494 464.5,-488 464.5,-488 464.5,-476 464.5,-476 464.5,-470 470.5,-464 476.5,-464 476.5,-464 575.5,-464 575.5,-464 581.5,-464 587.5,-470 587.5,-476 587.5,-476 587.5,-488 587.5,-488 587.5,-494 581.5,-500 575.5,-500"/>
<text text-anchor="middle" x="526" y="-479.8" font-family="Courier,monospace" font-size="9.00">CIccInfo::~CIccInfo()</text>
</g>
<!-- Node0x63fe85046ec0&#45;&gt;Node0x63fe85046ba0 -->
<g id="edge3" class="edge">
<title>Node0x63fe85046ec0&#45;&gt;Node0x63fe85046ba0</title>
<path fill="none" stroke="#4a6fa5" d="M238.72,-482C303.06,-482 395.62,-482 457.91,-482"/>
<polygon fill="#4a6fa5" stroke="#4a6fa5" points="458.22,-484.1 464.22,-482 458.22,-479.9 458.22,-484.1"/>
</g>
<!-- Node0x63fe853e31d0 -->
<g id="node6" class="node">
<title>Node0x63fe853e31d0</title>
<path fill="#f0f4ff" stroke="black" d="M546.5,-210C546.5,-210 505.5,-210 505.5,-210 499.5,-210 493.5,-204 493.5,-198 493.5,-198 493.5,-186 493.5,-186 493.5,-180 499.5,-174 505.5,-174 505.5,-174 546.5,-174 546.5,-174 552.5,-174 558.5,-180 558.5,-186 558.5,-186 558.5,-198 558.5,-198 558.5,-204 552.5,-210 546.5,-210"/>
<text text-anchor="middle" x="526" y="-189.8" font-family="Courier,monospace" font-size="9.00">icGetSig()</text>
</g>
<!-- Node0x63fe85046ec0&#45;&gt;Node0x63fe853e31d0 -->
<g id="edge4" class="edge">
<title>Node0x63fe85046ec0&#45;&gt;Node0x63fe853e31d0</title>
<path fill="none" stroke="#4a6fa5" d="M221.88,-463.93C256.91,-450.14 300.27,-427.84 328,-395 380.59,-332.71 325.11,-275.2 386,-221 413.62,-196.41 456.59,-190.68 487.45,-190.15"/>
<polygon fill="#4a6fa5" stroke="#4a6fa5" points="487.46,-192.25 493.45,-190.11 487.43,-188.05 487.46,-192.25"/>
</g>
<!-- Node0x63fe8504a2f0 -->
<g id="node7" class="node">
<title>Node0x63fe8504a2f0</title>
<path fill="#f0f4ff" stroke="black" d="M250,-558C250,-558 78,-558 78,-558 72,-558 66,-552 66,-546 66,-546 66,-534 66,-534 66,-528 72,-522 78,-522 78,-522 250,-522 250,-522 256,-522 262,-528 262,-534 262,-534 262,-546 262,-546 262,-552 256,-558 250,-558"/>
<text text-anchor="middle" x="164" y="-537.8" font-family="Courier,monospace" font-size="9.00">CIccMultiProcessElement::Validate()</text>
</g>
<!-- Node0x63fe8504a2f0&#45;&gt;Node0x63fe85045c70 -->
<g id="edge5" class="edge">
<title>Node0x63fe8504a2f0&#45;&gt;Node0x63fe85045c70</title>
<path fill="none" stroke="#4a6fa5" d="M262.42,-555.7C325.38,-565.84 405.55,-578.75 460.64,-587.63"/>
<polygon fill="#4a6fa5" stroke="#4a6fa5" points="460.64,-589.76 466.9,-588.64 461.31,-585.61 460.64,-589.76"/>
</g>
<!-- Node0x63fe8504a2f0&#45;&gt;Node0x63fe85046c10 -->
<g id="edge7" class="edge">
<title>Node0x63fe8504a2f0&#45;&gt;Node0x63fe85046c10</title>
<path fill="none" stroke="#4a6fa5" d="M262.42,-540C319.77,-540 391.39,-540 445.34,-540"/>
<polygon fill="#4a6fa5" stroke="#4a6fa5" points="445.49,-542.1 451.49,-540 445.49,-537.9 445.49,-542.1"/>
</g>
<!-- Node0x63fe8504a2f0&#45;&gt;Node0x63fe85046ba0 -->
<g id="edge8" class="edge">
<title>Node0x63fe8504a2f0&#45;&gt;Node0x63fe85046ba0</title>
<path fill="none" stroke="#4a6fa5" d="M262.42,-524.3C324.38,-514.32 403,-501.66 457.99,-492.8"/>
<polygon fill="#4a6fa5" stroke="#4a6fa5" points="458.65,-494.82 464.24,-491.79 457.99,-490.67 458.65,-494.82"/>
</g>
<!-- Node0x63fe85046f30 -->
<g id="node8" class="node">
<title>Node0x63fe85046f30</title>
<path fill="#f0f4ff" stroke="black" d="M617.5,-442C617.5,-442 434.5,-442 434.5,-442 428.5,-442 422.5,-436 422.5,-430 422.5,-430 422.5,-418 422.5,-418 422.5,-412 428.5,-406 434.5,-406 434.5,-406 617.5,-406 617.5,-406 623.5,-406 629.5,-412 629.5,-418 629.5,-418 629.5,-430 629.5,-430 629.5,-436 623.5,-442 617.5,-442"/>
<text text-anchor="middle" x="526" y="-421.8" font-family="Courier,monospace" font-size="9.00">icGetSigPath[abi:cxx11](unsigned int)</text>
</g>
<!-- Node0x63fe8504a2f0&#45;&gt;Node0x63fe85046f30 -->
<g id="edge6" class="edge">
<title>Node0x63fe8504a2f0&#45;&gt;Node0x63fe85046f30</title>
<path fill="none" stroke="#4a6fa5" d="M262.14,-532.64C284.64,-528.28 307.87,-521.5 328,-511 360.32,-494.14 353.93,-470.33 386,-453 395.51,-447.86 405.85,-443.63 416.45,-440.14"/>
<polygon fill="#4a6fa5" stroke="#4a6fa5" points="417.26,-442.09 422.36,-438.28 416,-438.08 417.26,-442.09"/>
</g>
<!-- Node0x63fe8506d850 -->
<g id="node9" class="node">
<title>Node0x63fe8506d850</title>
<path fill="#f0f4ff" stroke="black" d="M234.5,-616C234.5,-616 93.5,-616 93.5,-616 87.5,-616 81.5,-610 81.5,-604 81.5,-604 81.5,-592 81.5,-592 81.5,-586 87.5,-580 93.5,-580 93.5,-580 234.5,-580 234.5,-580 240.5,-580 246.5,-586 246.5,-592 246.5,-592 246.5,-604 246.5,-604 246.5,-610 240.5,-616 234.5,-616"/>
<text text-anchor="middle" x="164" y="-595.8" font-family="Courier,monospace" font-size="9.00">CIccApplyMpe::~CIccApplyMpe()</text>
</g>
<!-- Node0x63fe85582210 -->
<g id="node10" class="node">
<title>Node0x63fe85582210</title>
<path fill="#f0f4ff" stroke="black" d="M234.5,-674C234.5,-674 93.5,-674 93.5,-674 87.5,-674 81.5,-668 81.5,-662 81.5,-662 81.5,-650 81.5,-650 81.5,-644 87.5,-638 93.5,-638 93.5,-638 234.5,-638 234.5,-638 240.5,-638 246.5,-644 246.5,-650 246.5,-650 246.5,-662 246.5,-662 246.5,-668 240.5,-674 234.5,-674"/>
<text text-anchor="middle" x="164" y="-653.8" font-family="Courier,monospace" font-size="9.00">CIccApplyMpe::~CIccApplyMpe()</text>
</g>
<!-- Node0x63fe850cecd0 -->
<g id="node11" class="node">
<title>Node0x63fe850cecd0</title>
<path fill="#f0f4ff" stroke="black" d="M607,-848C607,-848 445,-848 445,-848 439,-848 433,-842 433,-836 433,-836 433,-824 433,-824 433,-818 439,-812 445,-812 445,-812 607,-812 607,-812 613,-812 619,-818 619,-824 619,-824 619,-836 619,-836 619,-842 613,-848 607,-848"/>
<text text-anchor="middle" x="526" y="-827.8" font-family="Courier,monospace" font-size="9.00">CIccMultiProcessElement::Create()</text>
</g>
<!-- Node0x63fe850a7a60 -->
<g id="node12" class="node">
<title>Node0x63fe850a7a60</title>
<path fill="#f0f4ff" stroke="black" d="M887,-848C887,-848 736,-848 736,-848 730,-848 724,-842 724,-836 724,-836 724,-824 724,-824 724,-818 730,-812 736,-812 736,-812 887,-812 887,-812 893,-812 899,-818 899,-824 899,-824 899,-836 899,-836 899,-842 893,-848 887,-848"/>
<text text-anchor="middle" x="811.5" y="-827.8" font-family="Courier,monospace" font-size="9.00">CIccMpeCreator::CreateElement()</text>
</g>
<!-- Node0x63fe850cecd0&#45;&gt;Node0x63fe850a7a60 -->
<g id="edge9" class="edge">
<title>Node0x63fe850cecd0&#45;&gt;Node0x63fe850a7a60</title>
<path fill="none" stroke="#4a6fa5" d="M619.04,-830C650.57,-830 685.86,-830 717.46,-830"/>
<polygon fill="#4a6fa5" stroke="#4a6fa5" points="717.73,-832.1 723.73,-830 717.73,-827.9 717.73,-832.1"/>
</g>
<!-- Node0x63fe85090250 -->
<g id="node13" class="node">
<title>Node0x63fe85090250</title>
<path fill="#f0f4ff" stroke="black" d="M1120.5,-877C1120.5,-877 979.5,-877 979.5,-877 973.5,-877 967.5,-871 967.5,-865 967.5,-865 967.5,-853 967.5,-853 967.5,-847 973.5,-841 979.5,-841 979.5,-841 1120.5,-841 1120.5,-841 1126.5,-841 1132.5,-847 1132.5,-853 1132.5,-853 1132.5,-865 1132.5,-865 1132.5,-871 1126.5,-877 1120.5,-877"/>
<text text-anchor="middle" x="1050" y="-856.8" font-family="Courier,monospace" font-size="9.00">CIccMpeCreator::GetInstance()</text>
</g>
<!-- Node0x63fe850a7a60&#45;&gt;Node0x63fe85090250 -->
<g id="edge10" class="edge">
<title>Node0x63fe850a7a60&#45;&gt;Node0x63fe85090250</title>
<path fill="none" stroke="#4a6fa5" d="M899.22,-840.63C919.5,-843.12 941.11,-845.77 961.43,-848.26"/>
<polygon fill="#4a6fa5" stroke="#4a6fa5" points="961.19,-850.35 967.4,-848.99 961.7,-846.18 961.19,-850.35"/>
</g>
<!-- Node0x63fe850de7d0 -->
<g id="node14" class="node">
<title>Node0x63fe850de7d0</title>
<path fill="#f0f4ff" stroke="black" d="M1131,-819C1131,-819 969,-819 969,-819 963,-819 957,-813 957,-807 957,-807 957,-795 957,-795 957,-789 963,-783 969,-783 969,-783 1131,-783 1131,-783 1137,-783 1143,-789 1143,-795 1143,-795 1143,-807 1143,-807 1143,-813 1137,-819 1131,-819"/>
<text text-anchor="middle" x="1050" y="-798.8" font-family="Courier,monospace" font-size="9.00">CIccMpeCreator::DoCreateElement()</text>
</g>
<!-- Node0x63fe850a7a60&#45;&gt;Node0x63fe850de7d0 -->
<g id="edge11" class="edge">
<title>Node0x63fe850a7a60&#45;&gt;Node0x63fe850de7d0</title>
<path fill="none" stroke="#4a6fa5" d="M899.22,-819.37C915.89,-817.32 933.47,-815.17 950.48,-813.08"/>
<polygon fill="#4a6fa5" stroke="#4a6fa5" points="951.02,-815.13 956.72,-812.32 950.51,-810.96 951.02,-815.13"/>
</g>
<!-- Node0x63fe850f8650 -->
<g id="node15" class="node">
<title>Node0x63fe850f8650</title>
<path fill="#f0f4ff" stroke="black" d="M258,-848C258,-848 70,-848 70,-848 64,-848 58,-842 58,-836 58,-836 58,-824 58,-824 58,-818 64,-812 70,-812 70,-812 258,-812 258,-812 264,-812 270,-818 270,-824 270,-824 270,-836 270,-836 270,-842 264,-848 258,-848"/>
<text text-anchor="middle" x="164" y="-827.8" font-family="Courier,monospace" font-size="9.00">CIccMultiProcessElement::GetNewApply()</text>
</g>
<!-- Node0x63fe85100700 -->
<g id="node16" class="node">
<title>Node0x63fe85100700</title>
<path fill="#f0f4ff" stroke="black" d="M242.5,-964C242.5,-964 85.5,-964 85.5,-964 79.5,-964 73.5,-958 73.5,-952 73.5,-952 73.5,-940 73.5,-940 73.5,-934 79.5,-928 85.5,-928 85.5,-928 242.5,-928 242.5,-928 248.5,-928 254.5,-934 254.5,-940 254.5,-940 254.5,-952 254.5,-952 254.5,-958 248.5,-964 242.5,-964"/>
<text text-anchor="middle" x="164" y="-943.8" font-family="Courier,monospace" font-size="9.00">CIccMpeUnknown::CIccMpeUnknown()</text>
</g>
<!-- Node0x63fe851210f0 -->
<g id="node17" class="node">
<title>Node0x63fe851210f0</title>
<path fill="#f0f4ff" stroke="black" d="M651.5,-935C651.5,-935 400.5,-935 400.5,-935 394.5,-935 388.5,-929 388.5,-923 388.5,-923 388.5,-911 388.5,-911 388.5,-905 394.5,-899 400.5,-899 400.5,-899 651.5,-899 651.5,-899 657.5,-899 663.5,-905 663.5,-911 663.5,-911 663.5,-923 663.5,-923 663.5,-929 657.5,-935 651.5,-935"/>
<text text-anchor="middle" x="526" y="-914.8" font-family="Courier,monospace" font-size="9.00">CIccMultiProcessElement::CIccMultiProcessElement()</text>
</g>
<!-- Node0x63fe85100700&#45;&gt;Node0x63fe851210f0 -->
<g id="edge12" class="edge">
<title>Node0x63fe85100700&#45;&gt;Node0x63fe851210f0</title>
<path fill="none" stroke="#4a6fa5" d="M254.91,-938.76C293.4,-935.66 339.29,-931.96 382.23,-928.5"/>
<polygon fill="#4a6fa5" stroke="#4a6fa5" points="382.46,-930.59 388.27,-928.01 382.12,-926.4 382.46,-930.59"/>
</g>
<!-- Node0x63fe85119a20 -->
<g id="node18" class="node">
<title>Node0x63fe85119a20</title>
<path fill="#f0f4ff" stroke="black" d="M242.5,-906C242.5,-906 85.5,-906 85.5,-906 79.5,-906 73.5,-900 73.5,-894 73.5,-894 73.5,-882 73.5,-882 73.5,-876 79.5,-870 85.5,-870 85.5,-870 242.5,-870 242.5,-870 248.5,-870 254.5,-876 254.5,-882 254.5,-882 254.5,-894 254.5,-894 254.5,-900 248.5,-906 242.5,-906"/>
<text text-anchor="middle" x="164" y="-885.8" font-family="Courier,monospace" font-size="9.00">CIccMpeUnknown::CIccMpeUnknown()</text>
</g>
<!-- Node0x63fe85119a20&#45;&gt;Node0x63fe851210f0 -->
<g id="edge13" class="edge">
<title>Node0x63fe85119a20&#45;&gt;Node0x63fe851210f0</title>
<path fill="none" stroke="#4a6fa5" d="M254.91,-895.24C293.4,-898.34 339.29,-902.04 382.23,-905.5"/>
<polygon fill="#4a6fa5" stroke="#4a6fa5" points="382.12,-907.6 388.27,-905.99 382.46,-903.41 382.12,-907.6"/>
</g>
<!-- Node0x63fe851e71e0 -->
<g id="node19" class="node">
<title>Node0x63fe851e71e0</title>
<path fill="#f0f4ff" stroke="black" d="M284.5,-1022C284.5,-1022 43.5,-1022 43.5,-1022 37.5,-1022 31.5,-1016 31.5,-1010 31.5,-1010 31.5,-998 31.5,-998 31.5,-992 37.5,-986 43.5,-986 43.5,-986 284.5,-986 284.5,-986 290.5,-986 296.5,-992 296.5,-998 296.5,-998 296.5,-1010 296.5,-1010 296.5,-1016 290.5,-1022 284.5,-1022"/>
<text text-anchor="middle" x="164" y="-1001.8" font-family="Courier,monospace" font-size="9.00">CIccMpeUnknown::operator=(CIccMpeUnknown const&amp;)</text>
</g>
<!-- Node0x63fe85175c90 -->
<g id="node20" class="node">
<title>Node0x63fe85175c90</title>
<path fill="#f0f4ff" stroke="black" d="M245,-1080C245,-1080 83,-1080 83,-1080 77,-1080 71,-1074 71,-1068 71,-1068 71,-1056 71,-1056 71,-1050 77,-1044 83,-1044 83,-1044 245,-1044 245,-1044 251,-1044 257,-1050 257,-1056 257,-1056 257,-1068 257,-1068 257,-1074 251,-1080 245,-1080"/>
<text text-anchor="middle" x="164" y="-1059.8" font-family="Courier,monospace" font-size="9.00">CIccMpeUnknown::~CIccMpeUnknown()</text>
</g>
<!-- Node0x63fe852035c0 -->
<g id="node21" class="node">
<title>Node0x63fe852035c0</title>
<path fill="#f0f4ff" stroke="black" d="M654,-1080C654,-1080 398,-1080 398,-1080 392,-1080 386,-1074 386,-1068 386,-1068 386,-1056 386,-1056 386,-1050 392,-1044 398,-1044 398,-1044 654,-1044 654,-1044 660,-1044 666,-1050 666,-1056 666,-1056 666,-1068 666,-1068 666,-1074 660,-1080 654,-1080"/>
<text text-anchor="middle" x="526" y="-1059.8" font-family="Courier,monospace" font-size="9.00">CIccMultiProcessElement::~CIccMultiProcessElement()</text>
</g>
<!-- Node0x63fe85175c90&#45;&gt;Node0x63fe852035c0 -->
<g id="edge14" class="edge">
<title>Node0x63fe85175c90&#45;&gt;Node0x63fe852035c0</title>
<path fill="none" stroke="#4a6fa5" d="M257.24,-1062C294.47,-1062 338.33,-1062 379.66,-1062"/>
<polygon fill="#4a6fa5" stroke="#4a6fa5" points="379.74,-1064.1 385.74,-1062 379.74,-1059.9 379.74,-1064.1"/>
</g>
<!-- Node0x63fe852537e0 -->
<g id="node22" class="node">
<title>Node0x63fe852537e0</title>
<path fill="#f0f4ff" stroke="black" d="M245,-1138C245,-1138 83,-1138 83,-1138 77,-1138 71,-1132 71,-1126 71,-1126 71,-1114 71,-1114 71,-1108 77,-1102 83,-1102 83,-1102 245,-1102 245,-1102 251,-1102 257,-1108 257,-1114 257,-1114 257,-1126 257,-1126 257,-1132 251,-1138 245,-1138"/>
<text text-anchor="middle" x="164" y="-1117.8" font-family="Courier,monospace" font-size="9.00">CIccMpeUnknown::~CIccMpeUnknown()</text>
</g>
<!-- Node0x63fe85250d80 -->
<g id="node23" class="node">
<title>Node0x63fe85250d80</title>
<path fill="#f0f4ff" stroke="black" d="M224,-1196C224,-1196 104,-1196 104,-1196 98,-1196 92,-1190 92,-1184 92,-1184 92,-1172 92,-1172 92,-1166 98,-1160 104,-1160 104,-1160 224,-1160 224,-1160 230,-1160 236,-1166 236,-1172 236,-1172 236,-1184 236,-1184 236,-1190 230,-1196 224,-1196"/>
<text text-anchor="middle" x="164" y="-1175.8" font-family="Courier,monospace" font-size="9.00">CIccMpeUnknown::SetType()</text>
</g>
<!-- Node0x63fe85227d70 -->
<g id="node24" class="node">
<title>Node0x63fe85227d70</title>
<path fill="#f0f4ff" stroke="black" d="M234.5,-1254C234.5,-1254 93.5,-1254 93.5,-1254 87.5,-1254 81.5,-1248 81.5,-1242 81.5,-1242 81.5,-1230 81.5,-1230 81.5,-1224 87.5,-1218 93.5,-1218 93.5,-1218 234.5,-1218 234.5,-1218 240.5,-1218 246.5,-1224 246.5,-1230 246.5,-1230 246.5,-1242 246.5,-1242 246.5,-1248 240.5,-1254 234.5,-1254"/>
<text text-anchor="middle" x="164" y="-1233.8" font-family="Courier,monospace" font-size="9.00">CIccMpeUnknown::SetChannels()</text>
</g>
<!-- Node0x63fe85267590 -->
<g id="node25" class="node">
<title>Node0x63fe85267590</title>
<path fill="#f0f4ff" stroke="black" d="M226.5,-123C226.5,-123 101.5,-123 101.5,-123 95.5,-123 89.5,-117 89.5,-111 89.5,-111 89.5,-99 89.5,-99 89.5,-93 95.5,-87 101.5,-87 101.5,-87 226.5,-87 226.5,-87 232.5,-87 238.5,-93 238.5,-99 238.5,-99 238.5,-111 238.5,-111 238.5,-117 232.5,-123 226.5,-123"/>
<text text-anchor="middle" x="164" y="-102.8" font-family="Courier,monospace" font-size="9.00">CIccMpeUnknown::Describe()</text>
</g>
<!-- Node0x63fe85267590&#45;&gt;Node0x63fe853e31d0 -->
<g id="edge15" class="edge">
<title>Node0x63fe85267590&#45;&gt;Node0x63fe853e31d0</title>
<path fill="none" stroke="#4a6fa5" d="M230.06,-123.01C273.96,-134.93 333.29,-150.59 386,-163 420.13,-171.03 459.25,-179.09 487.27,-184.67"/>
<polygon fill="#4a6fa5" stroke="#4a6fa5" points="487.14,-186.78 493.43,-185.89 487.96,-182.66 487.14,-186.78"/>
</g>
<!-- Node0x63fe85429c80 -->
<g id="node26" class="node">
<title>Node0x63fe85429c80</title>
<path fill="#f0f4ff" stroke="black" d="M549,-36C549,-36 503,-36 503,-36 497,-36 491,-30 491,-24 491,-24 491,-12 491,-12 491,-6 497,0 503,0 503,0 549,0 549,0 555,0 561,-6 561,-12 561,-12 561,-24 561,-24 561,-30 555,-36 549,-36"/>
<text text-anchor="middle" x="526" y="-15.8" font-family="Courier,monospace" font-size="9.00">icMemDump()</text>
</g>
<!-- Node0x63fe85267590&#45;&gt;Node0x63fe85429c80 -->
<g id="edge16" class="edge">
<title>Node0x63fe85267590&#45;&gt;Node0x63fe85429c80</title>
<path fill="none" stroke="#4a6fa5" d="M238.73,-96.47C267.09,-92.01 299.49,-85.44 328,-76 355.36,-66.94 358.78,-56.47 386,-47 418.36,-35.75 456.56,-28.16 484.71,-23.58"/>
<polygon fill="#4a6fa5" stroke="#4a6fa5" points="485.32,-25.61 490.92,-22.6 484.66,-21.47 485.32,-25.61"/>
</g>
<!-- Node0x63fe854c4200 -->
<g id="node27" class="node">
<title>Node0x63fe854c4200</title>
<path fill="#f0f4ff" stroke="black" d="M596.5,-674C596.5,-674 455.5,-674 455.5,-674 449.5,-674 443.5,-668 443.5,-662 443.5,-662 443.5,-650 443.5,-650 443.5,-644 449.5,-638 455.5,-638 455.5,-638 596.5,-638 596.5,-638 602.5,-638 608.5,-644 608.5,-650 608.5,-650 608.5,-662 608.5,-662 608.5,-668 602.5,-674 596.5,-674"/>
<text text-anchor="middle" x="526" y="-653.8" font-family="Courier,monospace" font-size="9.00">CIccMpeUnknown::SetDataSize()</text>
</g>
<!-- Node0x63fe8549d6f0 -->
<g id="node28" class="node">
<title>Node0x63fe8549d6f0</title>
<path fill="#f0f4ff" stroke="black" d="M216,-732C216,-732 112,-732 112,-732 106,-732 100,-726 100,-720 100,-720 100,-708 100,-708 100,-702 106,-696 112,-696 112,-696 216,-696 216,-696 222,-696 228,-702 228,-708 228,-708 228,-720 228,-720 228,-726 222,-732 216,-732"/>
<text text-anchor="middle" x="164" y="-711.8" font-family="Courier,monospace" font-size="9.00">CIccMpeUnknown::Read()</text>
</g>
<!-- Node0x63fe8549d6f0&#45;&gt;Node0x63fe854c4200 -->
<g id="edge19" class="edge">
<title>Node0x63fe8549d6f0&#45;&gt;Node0x63fe854c4200</title>
<path fill="none" stroke="#4a6fa5" d="M228.12,-703.83C286.04,-694.5 372.41,-680.58 437.08,-670.17"/>
<polygon fill="#4a6fa5" stroke="#4a6fa5" points="437.68,-672.2 443.27,-669.17 437.01,-668.05 437.68,-672.2"/>
</g>
<!-- Node0x63fe8544f1d0 -->
<g id="node29" class="node">
<title>Node0x63fe8544f1d0</title>
<path fill="#f0f4ff" stroke="black" d="M562.5,-790C562.5,-790 489.5,-790 489.5,-790 483.5,-790 477.5,-784 477.5,-778 477.5,-778 477.5,-766 477.5,-766 477.5,-760 483.5,-754 489.5,-754 489.5,-754 562.5,-754 562.5,-754 568.5,-754 574.5,-760 574.5,-766 574.5,-766 574.5,-778 574.5,-778 574.5,-784 568.5,-790 562.5,-790"/>
<text text-anchor="middle" x="526" y="-769.8" font-family="Courier,monospace" font-size="9.00">CIccIO::Read32()</text>
</g>
<!-- Node0x63fe8549d6f0&#45;&gt;Node0x63fe8544f1d0 -->
<g id="edge17" class="edge">
<title>Node0x63fe8549d6f0&#45;&gt;Node0x63fe8544f1d0</title>
<path fill="none" stroke="#4a6fa5" d="M228.12,-724.17C297.08,-735.28 406.36,-752.89 471.34,-763.35"/>
<polygon fill="#4a6fa5" stroke="#4a6fa5" points="471.23,-765.46 477.48,-764.34 471.89,-761.32 471.23,-765.46"/>
</g>
<!-- Node0x63fe8543a670 -->
<g id="node30" class="node">
<title>Node0x63fe8543a670</title>
<path fill="#f0f4ff" stroke="black" d="M562.5,-732C562.5,-732 489.5,-732 489.5,-732 483.5,-732 477.5,-726 477.5,-720 477.5,-720 477.5,-708 477.5,-708 477.5,-702 483.5,-696 489.5,-696 489.5,-696 562.5,-696 562.5,-696 568.5,-696 574.5,-702 574.5,-708 574.5,-708 574.5,-720 574.5,-720 574.5,-726 568.5,-732 562.5,-732"/>
<text text-anchor="middle" x="526" y="-711.8" font-family="Courier,monospace" font-size="9.00">CIccIO::Read16()</text>
</g>
<!-- Node0x63fe8549d6f0&#45;&gt;Node0x63fe8543a670 -->
<g id="edge18" class="edge">
<title>Node0x63fe8549d6f0&#45;&gt;Node0x63fe8543a670</title>
<path fill="none" stroke="#4a6fa5" d="M228.12,-714C297.08,-714 406.36,-714 471.34,-714"/>
<polygon fill="#4a6fa5" stroke="#4a6fa5" points="471.48,-716.1 477.48,-714 471.48,-711.9 471.48,-716.1"/>
</g>
<!-- Node0x63fe85046af0 -->
<g id="node31" class="node">
<title>Node0x63fe85046af0</title>
<path fill="#f0f4ff" stroke="black" d="M218.5,-1370C218.5,-1370 109.5,-1370 109.5,-1370 103.5,-1370 97.5,-1364 97.5,-1358 97.5,-1358 97.5,-1346 97.5,-1346 97.5,-1340 103.5,-1334 109.5,-1334 109.5,-1334 218.5,-1334 218.5,-1334 224.5,-1334 230.5,-1340 230.5,-1346 230.5,-1346 230.5,-1358 230.5,-1358 230.5,-1364 224.5,-1370 218.5,-1370"/>
<text text-anchor="middle" x="164" y="-1349.8" font-family="Courier,monospace" font-size="9.00">CIccMpeUnknown::Write()</text>
</g>
<!-- Node0x63fe850452e0 -->
<g id="node32" class="node">
<title>Node0x63fe850452e0</title>
<path fill="#f0f4ff" stroke="black" d="M565,-1312C565,-1312 487,-1312 487,-1312 481,-1312 475,-1306 475,-1300 475,-1300 475,-1288 475,-1288 475,-1282 481,-1276 487,-1276 487,-1276 565,-1276 565,-1276 571,-1276 577,-1282 577,-1288 577,-1288 577,-1300 577,-1300 577,-1306 571,-1312 565,-1312"/>
<text text-anchor="middle" x="526" y="-1291.8" font-family="Courier,monospace" font-size="9.00">CIccIO::Write32()</text>
</g>
<!-- Node0x63fe85046af0&#45;&gt;Node0x63fe850452e0 -->
<g id="edge20" class="edge">
<title>Node0x63fe85046af0&#45;&gt;Node0x63fe850452e0</title>
<path fill="none" stroke="#4a6fa5" d="M230.61,-1341.43C298.79,-1330.45 404.34,-1313.44 468.8,-1303.05"/>
<polygon fill="#4a6fa5" stroke="#4a6fa5" points="469.32,-1305.1 474.91,-1302.07 468.65,-1300.95 469.32,-1305.1"/>
</g>
<!-- Node0x63fe850472a0 -->
<g id="node33" class="node">
<title>Node0x63fe850472a0</title>
<path fill="#f0f4ff" stroke="black" d="M565,-1370C565,-1370 487,-1370 487,-1370 481,-1370 475,-1364 475,-1358 475,-1358 475,-1346 475,-1346 475,-1340 481,-1334 487,-1334 487,-1334 565,-1334 565,-1334 571,-1334 577,-1340 577,-1346 577,-1346 577,-1358 577,-1358 577,-1364 571,-1370 565,-1370"/>
<text text-anchor="middle" x="526" y="-1349.8" font-family="Courier,monospace" font-size="9.00">CIccIO::Write16()</text>
</g>
<!-- Node0x63fe85046af0&#45;&gt;Node0x63fe850472a0 -->
<g id="edge21" class="edge">
<title>Node0x63fe85046af0&#45;&gt;Node0x63fe850472a0</title>
<path fill="none" stroke="#4a6fa5" d="M230.61,-1352C298.79,-1352 404.34,-1352 468.8,-1352"/>
<polygon fill="#4a6fa5" stroke="#4a6fa5" points="468.91,-1354.1 474.91,-1352 468.91,-1349.9 468.91,-1354.1"/>
</g>
<!-- Node0x63fe855ede80 -->
<g id="node34" class="node">
<title>Node0x63fe855ede80</title>
<path fill="#f0f4ff" stroke="black" d="M258,-384C258,-384 70,-384 70,-384 64,-384 58,-378 58,-372 58,-372 58,-360 58,-360 58,-354 64,-348 70,-348 70,-348 258,-348 258,-348 264,-348 270,-354 270,-360 270,-360 270,-372 270,-372 270,-378 264,-384 258,-384"/>
<text text-anchor="middle" x="164" y="-363.8" font-family="Courier,monospace" font-size="9.00">CIccTagMultiProcessElement::Validate()</text>
</g>
<!-- Node0x63fe855ede80&#45;&gt;Node0x63fe85045c70 -->
<g id="edge22" class="edge">
<title>Node0x63fe855ede80&#45;&gt;Node0x63fe85045c70</title>
<path fill="none" stroke="#4a6fa5" d="M216.91,-384.04C251.84,-398.32 297.01,-421.17 328,-453 368.21,-494.3 340.34,-533.82 386,-569 407.15,-585.3 435.29,-592.99 460.71,-596.45"/>
<polygon fill="#4a6fa5" stroke="#4a6fa5" points="460.56,-598.55 466.77,-597.2 461.08,-594.38 460.56,-598.55"/>
</g>
<!-- Node0x63fe855ede80&#45;&gt;Node0x63fe85046c10 -->
<g id="edge23" class="edge">
<title>Node0x63fe855ede80&#45;&gt;Node0x63fe85046c10</title>
<path fill="none" stroke="#4a6fa5" d="M206.84,-384.13C241.01,-399.9 289.73,-424.64 328,-453 357.29,-474.71 353.93,-493.67 386,-511 404.06,-520.76 425.08,-527.24 445.22,-531.54"/>
<polygon fill="#4a6fa5" stroke="#4a6fa5" points="444.86,-533.61 451.16,-532.75 445.7,-529.5 444.86,-533.61"/>
</g>
<!-- Node0x63fe855ede80&#45;&gt;Node0x63fe85046ba0 -->
<g id="edge24" class="edge">
<title>Node0x63fe855ede80&#45;&gt;Node0x63fe85046ba0</title>
<path fill="none" stroke="#4a6fa5" d="M205.01,-384.13C248.73,-403.38 321.21,-433.64 386,-453 409.2,-459.93 435.06,-465.81 458.12,-470.43"/>
<polygon fill="#4a6fa5" stroke="#4a6fa5" points="457.94,-472.54 464.23,-471.64 458.76,-468.42 457.94,-472.54"/>
</g>
<!-- Node0x63fe855ede80&#45;&gt;Node0x63fe85046f30 -->
<g id="edge26" class="edge">
<title>Node0x63fe855ede80&#45;&gt;Node0x63fe85046f30</title>
<path fill="none" stroke="#4a6fa5" d="M270.09,-382.93C315.98,-390.32 369.76,-398.99 416.07,-406.45"/>
<polygon fill="#4a6fa5" stroke="#4a6fa5" points="416,-408.57 422.26,-407.45 416.67,-404.42 416,-408.57"/>
</g>
<!-- Node0x63fe855bb4c0 -->
<g id="node35" class="node">
<title>Node0x63fe855bb4c0</title>
<path fill="#f0f4ff" stroke="black" d="M554.5,-268C554.5,-268 497.5,-268 497.5,-268 491.5,-268 485.5,-262 485.5,-256 485.5,-256 485.5,-244 485.5,-244 485.5,-238 491.5,-232 497.5,-232 497.5,-232 554.5,-232 554.5,-232 560.5,-232 566.5,-238 566.5,-244 566.5,-244 566.5,-256 566.5,-256 566.5,-262 560.5,-268 554.5,-268"/>
<text text-anchor="middle" x="526" y="-247.8" font-family="Courier,monospace" font-size="9.00">icMaxStatus()</text>
</g>
<!-- Node0x63fe855ede80&#45;&gt;Node0x63fe855bb4c0 -->
<g id="edge25" class="edge">
<title>Node0x63fe855ede80&#45;&gt;Node0x63fe855bb4c0</title>
<path fill="none" stroke="#4a6fa5" d="M205.01,-347.87C248.73,-328.62 321.21,-298.36 386,-279 416.63,-269.85 451.9,-262.52 479.25,-257.53"/>
<polygon fill="#4a6fa5" stroke="#4a6fa5" points="479.78,-259.57 485.31,-256.43 479.03,-255.43 479.78,-259.57"/>
</g>
<!-- Node0x63fe855f60c0 -->
<g id="node36" class="node">
<title>Node0x63fe855f60c0</title>
<path fill="#f0f4ff" stroke="black" d="M591,-152C591,-152 461,-152 461,-152 455,-152 449,-146 449,-140 449,-140 449,-128 449,-128 449,-122 455,-116 461,-116 461,-116 591,-116 591,-116 597,-116 603,-122 603,-128 603,-128 603,-140 603,-140 603,-146 597,-152 591,-152"/>
<text text-anchor="middle" x="526" y="-131.8" font-family="Courier,monospace" font-size="9.00">icGetSpectralSpaceSamples()</text>
</g>
<!-- Node0x63fe855ede80&#45;&gt;Node0x63fe855f60c0 -->
<g id="edge27" class="edge">
<title>Node0x63fe855ede80&#45;&gt;Node0x63fe855f60c0</title>
<path fill="none" stroke="#4a6fa5" d="M178.79,-347.94C210.56,-307.72 293.31,-210.59 386,-163 403.49,-154.02 423.57,-147.82 442.93,-143.54"/>
<polygon fill="#4a6fa5" stroke="#4a6fa5" points="443.48,-145.57 448.92,-142.27 442.61,-141.46 443.48,-145.57"/>
</g>
<!-- Node0x63fe855f4930 -->
<g id="node37" class="node">
<title>Node0x63fe855f4930</title>
<path fill="#f0f4ff" stroke="black" d="M604.5,-94C604.5,-94 447.5,-94 447.5,-94 441.5,-94 435.5,-88 435.5,-82 435.5,-82 435.5,-70 435.5,-70 435.5,-64 441.5,-58 447.5,-58 447.5,-58 604.5,-58 604.5,-58 610.5,-58 616.5,-64 616.5,-70 616.5,-70 616.5,-82 616.5,-82 616.5,-88 610.5,-94 604.5,-94"/>
<text text-anchor="middle" x="526" y="-73.8" font-family="Courier,monospace" font-size="9.00">icGetMaterialColorSpaceSamples()</text>
</g>
<!-- Node0x63fe855ede80&#45;&gt;Node0x63fe855f4930 -->
<g id="edge28" class="edge">
<title>Node0x63fe855ede80&#45;&gt;Node0x63fe855f4930</title>
<path fill="none" stroke="#4a6fa5" d="M174.58,-347.88C201.08,-299.71 280.39,-167.87 386,-105 399.18,-97.15 414.17,-91.41 429.31,-87.2"/>
<polygon fill="#4a6fa5" stroke="#4a6fa5" points="430.08,-89.17 435.34,-85.61 429,-85.11 430.08,-89.17"/>
</g>
<!-- Node0x63fe855e7970 -->
<g id="node38" class="node">
<title>Node0x63fe855e7970</title>
<path fill="#f0f4ff" stroke="black" d="M578,-384C578,-384 474,-384 474,-384 468,-384 462,-378 462,-372 462,-372 462,-360 462,-360 462,-354 468,-348 474,-348 474,-348 578,-348 578,-348 584,-348 590,-354 590,-360 590,-360 590,-372 590,-372 590,-378 584,-384 578,-384"/>
<text text-anchor="middle" x="526" y="-363.8" font-family="Courier,monospace" font-size="9.00">icGetFirstSigPathSig()</text>
</g>
<!-- Node0x63fe855ede80&#45;&gt;Node0x63fe855e7970 -->
<g id="edge29" class="edge">
<title>Node0x63fe855ede80&#45;&gt;Node0x63fe855e7970</title>
<path fill="none" stroke="#4a6fa5" d="M270.09,-366C329.82,-366 402.95,-366 455.53,-366"/>
<polygon fill="#4a6fa5" stroke="#4a6fa5" points="455.84,-368.1 461.84,-366 455.84,-363.9 455.84,-368.1"/>
</g>
<!-- Node0x63fe855d6fa0 -->
<g id="node39" class="node">
<title>Node0x63fe855d6fa0</title>
<path fill="#f0f4ff" stroke="black" d="M570,-326C570,-326 482,-326 482,-326 476,-326 470,-320 470,-314 470,-314 470,-302 470,-302 470,-296 476,-290 482,-290 482,-290 570,-290 570,-290 576,-290 582,-296 582,-302 582,-302 582,-314 582,-314 582,-320 576,-326 570,-326"/>
<text text-anchor="middle" x="526" y="-305.8" font-family="Courier,monospace" font-size="9.00">icGetSpaceSamples()</text>
</g>
<!-- Node0x63fe855ede80&#45;&gt;Node0x63fe855d6fa0 -->
<g id="edge30" class="edge">
<title>Node0x63fe855ede80&#45;&gt;Node0x63fe855d6fa0</title>
<path fill="none" stroke="#4a6fa5" d="M270.09,-349.07C333.04,-338.93 410.87,-326.39 463.85,-317.85"/>
<polygon fill="#4a6fa5" stroke="#4a6fa5" points="464.27,-319.91 469.86,-316.88 463.61,-315.76 464.27,-319.91"/>
</g>
<!-- Node0x63fe8505b220 -->
<g id="node40" class="node">
<title>Node0x63fe8505b220</title>
<path fill="#f0f4ff" stroke="black" d="M263.5,-1428C263.5,-1428 64.5,-1428 64.5,-1428 58.5,-1428 52.5,-1422 52.5,-1416 52.5,-1416 52.5,-1404 52.5,-1404 52.5,-1398 58.5,-1392 64.5,-1392 64.5,-1392 263.5,-1392 263.5,-1392 269.5,-1392 275.5,-1398 275.5,-1404 275.5,-1404 275.5,-1416 275.5,-1416 275.5,-1422 269.5,-1428 263.5,-1428"/>
<text text-anchor="middle" x="164" y="-1407.8" font-family="Courier,monospace" font-size="9.00">CIccDblPixelBuffer::CIccDblPixelBuffer()</text>
</g>
<!-- Node0x63fe8559bb30 -->
<g id="node41" class="node">
<title>Node0x63fe8559bb30</title>
<path fill="#f0f4ff" stroke="black" d="M263.5,-1486C263.5,-1486 64.5,-1486 64.5,-1486 58.5,-1486 52.5,-1480 52.5,-1474 52.5,-1474 52.5,-1462 52.5,-1462 52.5,-1456 58.5,-1450 64.5,-1450 64.5,-1450 263.5,-1450 263.5,-1450 269.5,-1450 275.5,-1456 275.5,-1462 275.5,-1462 275.5,-1474 275.5,-1474 275.5,-1480 269.5,-1486 263.5,-1486"/>
<text text-anchor="middle" x="164" y="-1465.8" font-family="Courier,monospace" font-size="9.00">CIccDblPixelBuffer::CIccDblPixelBuffer()</text>
</g>
<!-- Node0x63fe8559ba30 -->
<g id="node42" class="node">
<title>Node0x63fe8559ba30</title>
<path fill="#f0f4ff" stroke="black" d="M305.5,-1602C305.5,-1602 22.5,-1602 22.5,-1602 16.5,-1602 10.5,-1596 10.5,-1590 10.5,-1590 10.5,-1578 10.5,-1578 10.5,-1572 16.5,-1566 22.5,-1566 22.5,-1566 305.5,-1566 305.5,-1566 311.5,-1566 317.5,-1572 317.5,-1578 317.5,-1578 317.5,-1590 317.5,-1590 317.5,-1596 311.5,-1602 305.5,-1602"/>
<text text-anchor="middle" x="164" y="-1581.8" font-family="Courier,monospace" font-size="9.00">CIccDblPixelBuffer::operator=(CIccDblPixelBuffer const&amp;)</text>
</g>
<!-- Node0x63fe8505b570 -->
<g id="node43" class="node">
<title>Node0x63fe8505b570</title>
<path fill="#f0f4ff" stroke="black" d="M591,-1573C591,-1573 461,-1573 461,-1573 455,-1573 449,-1567 449,-1561 449,-1561 449,-1549 449,-1549 449,-1543 455,-1537 461,-1537 461,-1537 591,-1537 591,-1537 597,-1537 603,-1543 603,-1549 603,-1549 603,-1561 603,-1561 603,-1567 597,-1573 591,-1573"/>
<text text-anchor="middle" x="526" y="-1552.8" font-family="Courier,monospace" font-size="9.00">CIccDblPixelBuffer::Clean()</text>
</g>
<!-- Node0x63fe8559ba30&#45;&gt;Node0x63fe8505b570 -->
<g id="edge31" class="edge">
<title>Node0x63fe8559ba30&#45;&gt;Node0x63fe8505b570</title>
<path fill="none" stroke="#4a6fa5" d="M317.67,-1571.7C360.43,-1568.26 405.28,-1564.64 442.3,-1561.66"/>
<polygon fill="#4a6fa5" stroke="#4a6fa5" points="442.83,-1563.73 448.64,-1561.15 442.49,-1559.54 442.83,-1563.73"/>
</g>
<!-- Node0x63fe8559bf40 -->
<g id="node44" class="node">
<title>Node0x63fe8559bf40</title>
<path fill="#f0f4ff" stroke="black" d="M266,-1544C266,-1544 62,-1544 62,-1544 56,-1544 50,-1538 50,-1532 50,-1532 50,-1520 50,-1520 50,-1514 56,-1508 62,-1508 62,-1508 266,-1508 266,-1508 272,-1508 278,-1514 278,-1520 278,-1520 278,-1532 278,-1532 278,-1538 272,-1544 266,-1544"/>
<text text-anchor="middle" x="164" y="-1523.8" font-family="Courier,monospace" font-size="9.00">CIccDblPixelBuffer::~CIccDblPixelBuffer()</text>
</g>
<!-- Node0x63fe8559bf40&#45;&gt;Node0x63fe8505b570 -->
<g id="edge32" class="edge">
<title>Node0x63fe8559bf40&#45;&gt;Node0x63fe8505b570</title>
<path fill="none" stroke="#4a6fa5" d="M278.41,-1535.14C331.68,-1539.43 394,-1544.45 442.66,-1548.37"/>
<polygon fill="#4a6fa5" stroke="#4a6fa5" points="442.68,-1550.48 448.83,-1548.86 443.02,-1546.29 442.68,-1550.48"/>
</g>
<!-- Node0x63fe8505f370 -->
<g id="node45" class="node">
<title>Node0x63fe8505f370</title>
<path fill="#f0f4ff" stroke="black" d="M266,-1747C266,-1747 62,-1747 62,-1747 56,-1747 50,-1741 50,-1735 50,-1735 50,-1723 50,-1723 50,-1717 56,-1711 62,-1711 62,-1711 266,-1711 266,-1711 272,-1711 278,-1717 278,-1723 278,-1723 278,-1735 278,-1735 278,-1741 272,-1747 266,-1747"/>
<text text-anchor="middle" x="164" y="-1726.8" font-family="Courier,monospace" font-size="9.00">CIccDblPixelBuffer::~CIccDblPixelBuffer()</text>
</g>
<!-- Node0x63fe8559c360 -->
<g id="node46" class="node">
<title>Node0x63fe8559c360</title>
<path fill="#f0f4ff" stroke="black" d="M591,-2211C591,-2211 461,-2211 461,-2211 455,-2211 449,-2205 449,-2199 449,-2199 449,-2187 449,-2187 449,-2181 455,-2175 461,-2175 461,-2175 591,-2175 591,-2175 597,-2175 603,-2181 603,-2187 603,-2187 603,-2199 603,-2199 603,-2205 597,-2211 591,-2211"/>
<text text-anchor="middle" x="526" y="-2190.8" font-family="Courier,monospace" font-size="9.00">CIccDblPixelBuffer::Begin()</text>
</g>
<!-- Node0x63fe8505f780 -->
<g id="node47" class="node">
<title>Node0x63fe8505f780</title>
<path fill="#f0f4ff" stroke="black" d="M247.5,-2211C247.5,-2211 80.5,-2211 80.5,-2211 74.5,-2211 68.5,-2205 68.5,-2199 68.5,-2199 68.5,-2187 68.5,-2187 68.5,-2181 74.5,-2175 80.5,-2175 80.5,-2175 247.5,-2175 247.5,-2175 253.5,-2175 259.5,-2181 259.5,-2187 259.5,-2187 259.5,-2199 259.5,-2199 259.5,-2205 253.5,-2211 247.5,-2211"/>
<text text-anchor="middle" x="164" y="-2190.8" font-family="Courier,monospace" font-size="9.00">CIccApplyTagMpe::CIccApplyTagMpe()</text>
</g>
<!-- Node0x63fe8559ce70 -->
<g id="node48" class="node">
<title>Node0x63fe8559ce70</title>
<path fill="#f0f4ff" stroke="black" d="M250,-2269C250,-2269 78,-2269 78,-2269 72,-2269 66,-2263 66,-2257 66,-2257 66,-2245 66,-2245 66,-2239 72,-2233 78,-2233 78,-2233 250,-2233 250,-2233 256,-2233 262,-2239 262,-2245 262,-2245 262,-2257 262,-2257 262,-2263 256,-2269 250,-2269"/>
<text text-anchor="middle" x="164" y="-2248.8" font-family="Courier,monospace" font-size="9.00">CIccApplyTagMpe::~CIccApplyTagMpe()</text>
</g>
<!-- Node0x63fe85063c60 -->
<g id="node49" class="node">
<title>Node0x63fe85063c60</title>
<path fill="#f0f4ff" stroke="black" d="M250,-2327C250,-2327 78,-2327 78,-2327 72,-2327 66,-2321 66,-2315 66,-2315 66,-2303 66,-2303 66,-2297 72,-2291 78,-2291 78,-2291 250,-2291 250,-2291 256,-2291 262,-2297 262,-2303 262,-2303 262,-2315 262,-2315 262,-2321 256,-2327 250,-2327"/>
<text text-anchor="middle" x="164" y="-2306.8" font-family="Courier,monospace" font-size="9.00">CIccApplyTagMpe::~CIccApplyTagMpe()</text>
</g>
<!-- Node0x63fe853db7d0 -->
<g id="node50" class="node">
<title>Node0x63fe853db7d0</title>
<path fill="#f0f4ff" stroke="black" d="M234.5,-2385C234.5,-2385 93.5,-2385 93.5,-2385 87.5,-2385 81.5,-2379 81.5,-2373 81.5,-2373 81.5,-2361 81.5,-2361 81.5,-2355 87.5,-2349 93.5,-2349 93.5,-2349 234.5,-2349 234.5,-2349 240.5,-2349 246.5,-2355 246.5,-2361 246.5,-2361 246.5,-2373 246.5,-2373 246.5,-2379 240.5,-2385 234.5,-2385"/>
<text text-anchor="middle" x="164" y="-2364.8" font-family="Courier,monospace" font-size="9.00">CIccApplyTagMpe::AppendElem()</text>
</g>
<!-- Node0x63fe853ddd80 -->
<g id="node51" class="node">
<title>Node0x63fe853ddd80</title>
<path fill="#f0f4ff" stroke="black" d="M305.5,-2559C305.5,-2559 22.5,-2559 22.5,-2559 16.5,-2559 10.5,-2553 10.5,-2547 10.5,-2547 10.5,-2535 10.5,-2535 10.5,-2529 16.5,-2523 22.5,-2523 22.5,-2523 305.5,-2523 305.5,-2523 311.5,-2523 317.5,-2529 317.5,-2535 317.5,-2535 317.5,-2547 317.5,-2547 317.5,-2553 311.5,-2559 305.5,-2559"/>
<text text-anchor="middle" x="164" y="-2538.8" font-family="Courier,monospace" font-size="9.00">CIccTagMultiProcessElement::CIccTagMultiProcessElement()</text>
</g>
<!-- Node0x63fe853dd580 -->
<g id="node52" class="node">
<title>Node0x63fe853dd580</title>
<path fill="#f0f4ff" stroke="black" d="M567.5,-2545C567.5,-2545 484.5,-2545 484.5,-2545 478.5,-2545 472.5,-2539 472.5,-2533 472.5,-2533 472.5,-2521 472.5,-2521 472.5,-2515 478.5,-2509 484.5,-2509 484.5,-2509 567.5,-2509 567.5,-2509 573.5,-2509 579.5,-2515 579.5,-2521 579.5,-2521 579.5,-2533 579.5,-2533 579.5,-2539 573.5,-2545 567.5,-2545"/>
<text text-anchor="middle" x="526" y="-2524.8" font-family="Courier,monospace" font-size="9.00">CIccTag::CIccTag()</text>
</g>
<!-- Node0x63fe853ddd80&#45;&gt;Node0x63fe853dd580 -->
<g id="edge33" class="edge">
<title>Node0x63fe853ddd80&#45;&gt;Node0x63fe853dd580</title>
<path fill="none" stroke="#4a6fa5" d="M317.67,-2535.06C370.06,-2533.03 425.61,-2530.87 466.01,-2529.29"/>
<polygon fill="#4a6fa5" stroke="#4a6fa5" points="466.45,-2531.38 472.36,-2529.05 466.29,-2527.18 466.45,-2531.38"/>
</g>
<!-- Node0x63fe855a7240 -->
<g id="node53" class="node">
<title>Node0x63fe855a7240</title>
<path fill="#f0f4ff" stroke="black" d="M305.5,-2501C305.5,-2501 22.5,-2501 22.5,-2501 16.5,-2501 10.5,-2495 10.5,-2489 10.5,-2489 10.5,-2477 10.5,-2477 10.5,-2471 16.5,-2465 22.5,-2465 22.5,-2465 305.5,-2465 305.5,-2465 311.5,-2465 317.5,-2471 317.5,-2477 317.5,-2477 317.5,-2489 317.5,-2489 317.5,-2495 311.5,-2501 305.5,-2501"/>
<text text-anchor="middle" x="164" y="-2480.8" font-family="Courier,monospace" font-size="9.00">CIccTagMultiProcessElement::CIccTagMultiProcessElement()</text>
</g>
<!-- Node0x63fe855a7240&#45;&gt;Node0x63fe853dd580 -->
<g id="edge34" class="edge">
<title>Node0x63fe855a7240&#45;&gt;Node0x63fe853dd580</title>
<path fill="none" stroke="#4a6fa5" d="M312.46,-2501.02C366.51,-2507.63 424.6,-2514.73 466.36,-2519.83"/>
<polygon fill="#4a6fa5" stroke="#4a6fa5" points="466.2,-2521.93 472.41,-2520.57 466.71,-2517.76 466.2,-2521.93"/>
</g>
<!-- Node0x63fe855ab400 -->
<g id="node54" class="node">
<title>Node0x63fe855ab400</title>
<path fill="#f0f4ff" stroke="black" d="M570,-2472C570,-2472 482,-2472 482,-2472 476,-2472 470,-2466 470,-2460 470,-2460 470,-2448 470,-2448 470,-2442 476,-2436 482,-2436 482,-2436 570,-2436 570,-2436 576,-2436 582,-2442 582,-2448 582,-2448 582,-2460 582,-2460 582,-2466 576,-2472 570,-2472"/>
<text text-anchor="middle" x="526" y="-2451.8" font-family="Courier,monospace" font-size="9.00">CIccTag::~CIccTag()</text>
</g>
<!-- Node0x63fe855a7240&#45;&gt;Node0x63fe855ab400 -->
<g id="edge35" class="edge">
<title>Node0x63fe855a7240&#45;&gt;Node0x63fe855ab400</title>
<path fill="none" stroke="#4a6fa5" d="M317.67,-2470.7C368.97,-2466.57 423.3,-2462.19 463.47,-2458.96"/>
<polygon fill="#4a6fa5" stroke="#4a6fa5" points="463.98,-2461.02 469.79,-2458.45 463.64,-2456.84 463.98,-2461.02"/>
</g>
<!-- Node0x63fe855dcc30 -->
<g id="node55" class="node">
<title>Node0x63fe855dcc30</title>
<path fill="#f0f4ff" stroke="black" d="M300,-2617C300,-2617 28,-2617 28,-2617 22,-2617 16,-2611 16,-2605 16,-2605 16,-2593 16,-2593 16,-2587 22,-2581 28,-2581 28,-2581 300,-2581 300,-2581 306,-2581 312,-2587 312,-2593 312,-2593 312,-2605 312,-2605 312,-2611 306,-2617 300,-2617"/>
<text text-anchor="middle" x="164" y="-2596.8" font-family="Courier,monospace" font-size="9.00">CIccTagMultiProcessElement::IsLateBindingReflectance()</text>
</g>
<!-- Node0x63fe855a6a40 -->
<g id="node56" class="node">
<title>Node0x63fe855a6a40</title>
<path fill="#f0f4ff" stroke="black" d="M316,-2675C316,-2675 12,-2675 12,-2675 6,-2675 0,-2669 0,-2663 0,-2663 0,-2651 0,-2651 0,-2645 6,-2639 12,-2639 12,-2639 316,-2639 316,-2639 322,-2639 328,-2645 328,-2651 328,-2651 328,-2663 328,-2663 328,-2669 322,-2675 316,-2675"/>
<text text-anchor="middle" x="164" y="-2654.8" font-family="Courier,monospace" font-size="9.00">CIccTagMultiProcessElement::operator=(CIccTagMultiProcess...</text>
</g>
<!-- Node0x63fe853dd010 -->
<g id="node57" class="node">
<title>Node0x63fe853dd010</title>
<path fill="#f0f4ff" stroke="black" d="M308,-2443C308,-2443 20,-2443 20,-2443 14,-2443 8,-2437 8,-2431 8,-2431 8,-2419 8,-2419 8,-2413 14,-2407 20,-2407 20,-2407 308,-2407 308,-2407 314,-2407 320,-2413 320,-2419 320,-2419 320,-2431 320,-2431 320,-2437 314,-2443 308,-2443"/>
<text text-anchor="middle" x="164" y="-2422.8" font-family="Courier,monospace" font-size="9.00">CIccTagMultiProcessElement::~CIccTagMultiProcessElement()</text>
</g>
<!-- Node0x63fe853dd010&#45;&gt;Node0x63fe855ab400 -->
<g id="edge36" class="edge">
<title>Node0x63fe853dd010&#45;&gt;Node0x63fe855ab400</title>
<path fill="none" stroke="#4a6fa5" d="M320.02,-2437.49C370.64,-2441.57 423.94,-2445.86 463.5,-2449.05"/>
<polygon fill="#4a6fa5" stroke="#4a6fa5" points="463.58,-2451.16 469.73,-2449.55 463.91,-2446.97 463.58,-2451.16"/>
</g>
<!-- Node0x63fe853dce50 -->
<g id="node58" class="node">
<title>Node0x63fe853dce50</title>
<path fill="#f0f4ff" stroke="black" d="M308,-2733C308,-2733 20,-2733 20,-2733 14,-2733 8,-2727 8,-2721 8,-2721 8,-2709 8,-2709 8,-2703 14,-2697 20,-2697 20,-2697 308,-2697 308,-2697 314,-2697 320,-2703 320,-2709 320,-2709 320,-2721 320,-2721 320,-2727 314,-2733 308,-2733"/>
<text text-anchor="middle" x="164" y="-2712.8" font-family="Courier,monospace" font-size="9.00">CIccTagMultiProcessElement::~CIccTagMultiProcessElement()</text>
</g>
<!-- Node0x63fe853dced0 -->
<g id="node59" class="node">
<title>Node0x63fe853dced0</title>
<path fill="#f0f4ff" stroke="black" d="M250,-2791C250,-2791 78,-2791 78,-2791 72,-2791 66,-2785 66,-2779 66,-2779 66,-2767 66,-2767 66,-2761 72,-2755 78,-2755 78,-2755 250,-2755 250,-2755 256,-2755 262,-2761 262,-2767 262,-2767 262,-2779 262,-2779 262,-2785 256,-2791 250,-2791"/>
<text text-anchor="middle" x="164" y="-2770.8" font-family="Courier,monospace" font-size="9.00">CIccTagMultiProcessElement::Clean()</text>
</g>
<!-- Node0x63fe855cde60 -->
<g id="node60" class="node">
<title>Node0x63fe855cde60</title>
<path fill="#f0f4ff" stroke="black" d="M266,-2849C266,-2849 62,-2849 62,-2849 56,-2849 50,-2843 50,-2837 50,-2837 50,-2825 50,-2825 50,-2819 56,-2813 62,-2813 62,-2813 266,-2813 266,-2813 272,-2813 278,-2819 278,-2825 278,-2825 278,-2837 278,-2837 278,-2843 272,-2849 266,-2849"/>
<text text-anchor="middle" x="164" y="-2828.8" font-family="Courier,monospace" font-size="9.00">CIccTagMultiProcessElement::IsSupported()</text>
</g>
<!-- Node0x63fe855cdc50 -->
<g id="node61" class="node">
<title>Node0x63fe855cdc50</title>
<path fill="#f0f4ff" stroke="black" d="M258,-2907C258,-2907 70,-2907 70,-2907 64,-2907 58,-2901 58,-2895 58,-2895 58,-2883 58,-2883 58,-2877 64,-2871 70,-2871 70,-2871 258,-2871 258,-2871 264,-2871 270,-2877 270,-2883 270,-2883 270,-2895 270,-2895 270,-2901 264,-2907 258,-2907"/>
<text text-anchor="middle" x="164" y="-2886.8" font-family="Courier,monospace" font-size="9.00">CIccTagMultiProcessElement::Describe()</text>
</g>
<!-- Node0x63fe855cdad0 -->
<g id="node62" class="node">
<title>Node0x63fe855cdad0</title>
<path fill="#f0f4ff" stroke="black" d="M253,-2965C253,-2965 75,-2965 75,-2965 69,-2965 63,-2959 63,-2953 63,-2953 63,-2941 63,-2941 63,-2935 69,-2929 75,-2929 75,-2929 253,-2929 253,-2929 259,-2929 265,-2935 265,-2941 265,-2941 265,-2953 265,-2953 265,-2959 259,-2965 253,-2965"/>
<text text-anchor="middle" x="164" y="-2944.8" font-family="Courier,monospace" font-size="9.00">CIccTagMultiProcessElement::Attach()</text>
</g>
<!-- Node0x63fe855cc360 -->
<g id="node63" class="node">
<title>Node0x63fe855cc360</title>
<path fill="#f0f4ff" stroke="black" d="M253,-3023C253,-3023 75,-3023 75,-3023 69,-3023 63,-3017 63,-3011 63,-3011 63,-2999 63,-2999 63,-2993 69,-2987 75,-2987 75,-2987 253,-2987 253,-2987 259,-2987 265,-2993 265,-2999 265,-2999 265,-3011 265,-3011 265,-3017 259,-3023 253,-3023"/>
<text text-anchor="middle" x="164" y="-3002.8" font-family="Courier,monospace" font-size="9.00">CIccTagMultiProcessElement::Insert()</text>
</g>
<!-- Node0x63fe855cb880 -->
<g id="node64" class="node">
<title>Node0x63fe855cb880</title>
<path fill="#f0f4ff" stroke="black" d="M552,-3023C552,-3023 500,-3023 500,-3023 494,-3023 488,-3017 488,-3011 488,-3011 488,-2999 488,-2999 488,-2993 494,-2987 500,-2987 500,-2987 552,-2987 552,-2987 558,-2987 564,-2993 564,-2999 564,-2999 564,-3011 564,-3011 564,-3017 558,-3023 552,-3023"/>
<text text-anchor="middle" x="526" y="-3002.8" font-family="Courier,monospace" font-size="9.00">push_front()</text>
</g>
<!-- Node0x63fe855cc360&#45;&gt;Node0x63fe855cb880 -->
<g id="edge37" class="edge">
<title>Node0x63fe855cc360&#45;&gt;Node0x63fe855cb880</title>
<path fill="none" stroke="#4a6fa5" d="M265.28,-3005C336.45,-3005 428.46,-3005 481.69,-3005"/>
<polygon fill="#4a6fa5" stroke="#4a6fa5" points="481.99,-3007.1 487.99,-3005 481.99,-3002.9 481.99,-3007.1"/>
</g>
<!-- Node0x63fe855cb5d0 -->
<g id="node65" class="node">
<title>Node0x63fe855cb5d0</title>
<path fill="#f0f4ff" stroke="black" d="M247.5,-790C247.5,-790 80.5,-790 80.5,-790 74.5,-790 68.5,-784 68.5,-778 68.5,-778 68.5,-766 68.5,-766 68.5,-760 74.5,-754 80.5,-754 80.5,-754 247.5,-754 247.5,-754 253.5,-754 259.5,-760 259.5,-766 259.5,-766 259.5,-778 259.5,-778 259.5,-784 253.5,-790 247.5,-790"/>
<text text-anchor="middle" x="164" y="-769.8" font-family="Courier,monospace" font-size="9.00">CIccTagMultiProcessElement::Read()</text>
</g>
<!-- Node0x63fe855cb5d0&#45;&gt;Node0x63fe850cecd0 -->
<g id="edge40" class="edge">
<title>Node0x63fe855cb5d0&#45;&gt;Node0x63fe850cecd0</title>
<path fill="none" stroke="#4a6fa5" d="M259.59,-787.24C311.14,-795.54 374.86,-805.81 426.94,-814.2"/>
<polygon fill="#4a6fa5" stroke="#4a6fa5" points="426.65,-816.28 432.91,-815.16 427.32,-812.14 426.65,-816.28"/>
</g>
<!-- Node0x63fe855cb5d0&#45;&gt;Node0x63fe8544f1d0 -->
<g id="edge38" class="edge">
<title>Node0x63fe855cb5d0&#45;&gt;Node0x63fe8544f1d0</title>
<path fill="none" stroke="#4a6fa5" d="M259.59,-772C326.99,-772 415.18,-772 470.98,-772"/>
<polygon fill="#4a6fa5" stroke="#4a6fa5" points="471.29,-774.1 477.29,-772 471.29,-769.9 471.29,-774.1"/>
</g>
<!-- Node0x63fe855cb5d0&#45;&gt;Node0x63fe8543a670 -->
<g id="edge39" class="edge">
<title>Node0x63fe855cb5d0&#45;&gt;Node0x63fe8543a670</title>
<path fill="none" stroke="#4a6fa5" d="M259.59,-756.76C327.12,-745.88 415.54,-731.63 471.32,-722.65"/>
<polygon fill="#4a6fa5" stroke="#4a6fa5" points="471.7,-724.71 477.29,-721.69 471.03,-720.57 471.7,-724.71"/>
</g>
<!-- Node0x63fe855d5cb0 -->
<g id="node66" class="node">
<title>Node0x63fe855d5cb0</title>
<path fill="#f0f4ff" stroke="black" d="M250,-1312C250,-1312 78,-1312 78,-1312 72,-1312 66,-1306 66,-1300 66,-1300 66,-1288 66,-1288 66,-1282 72,-1276 78,-1276 78,-1276 250,-1276 250,-1276 256,-1276 262,-1282 262,-1288 262,-1288 262,-1300 262,-1300 262,-1306 256,-1312 250,-1312"/>
<text text-anchor="middle" x="164" y="-1291.8" font-family="Courier,monospace" font-size="9.00">CIccTagMultiProcessElement::Write()</text>
</g>
<!-- Node0x63fe855d5cb0&#45;&gt;Node0x63fe850452e0 -->
<g id="edge41" class="edge">
<title>Node0x63fe855d5cb0&#45;&gt;Node0x63fe850452e0</title>
<path fill="none" stroke="#4a6fa5" d="M262.42,-1294C328.39,-1294 413.25,-1294 468.36,-1294"/>
<polygon fill="#4a6fa5" stroke="#4a6fa5" points="468.6,-1296.1 474.6,-1294 468.6,-1291.9 468.6,-1296.1"/>
</g>
<!-- Node0x63fe855d5cb0&#45;&gt;Node0x63fe850472a0 -->
<g id="edge42" class="edge">
<title>Node0x63fe855d5cb0&#45;&gt;Node0x63fe850472a0</title>
<path fill="none" stroke="#4a6fa5" d="M262.42,-1309.7C328.39,-1320.32 413.25,-1334 468.36,-1342.88"/>
<polygon fill="#4a6fa5" stroke="#4a6fa5" points="468.34,-1345 474.6,-1343.88 469.01,-1340.85 468.34,-1345"/>
</g>
<!-- Node0x63fe855d3220 -->
<g id="node67" class="node">
<title>Node0x63fe855d3220</title>
<path fill="#f0f4ff" stroke="black" d="M565,-1254C565,-1254 487,-1254 487,-1254 481,-1254 475,-1248 475,-1242 475,-1242 475,-1230 475,-1230 475,-1224 481,-1218 487,-1218 487,-1218 565,-1218 565,-1218 571,-1218 577,-1224 577,-1230 577,-1230 577,-1242 577,-1242 577,-1248 571,-1254 565,-1254"/>
<text text-anchor="middle" x="526" y="-1233.8" font-family="Courier,monospace" font-size="9.00">CIccIO::Align32()</text>
</g>
<!-- Node0x63fe855d5cb0&#45;&gt;Node0x63fe855d3220 -->
<g id="edge43" class="edge">
<title>Node0x63fe855d5cb0&#45;&gt;Node0x63fe855d3220</title>
<path fill="none" stroke="#4a6fa5" d="M262.42,-1278.3C328.39,-1267.68 413.25,-1254 468.36,-1245.12"/>
<polygon fill="#4a6fa5" stroke="#4a6fa5" points="469.01,-1247.15 474.6,-1244.12 468.34,-1243 469.01,-1247.15"/>
</g>
<!-- Node0x63fe855c4280 -->
<g id="node68" class="node">
<title>Node0x63fe855c4280</title>
<path fill="#f0f4ff" stroke="black" d="M263.5,-3081C263.5,-3081 64.5,-3081 64.5,-3081 58.5,-3081 52.5,-3075 52.5,-3069 52.5,-3069 52.5,-3057 52.5,-3057 52.5,-3051 58.5,-3045 64.5,-3045 64.5,-3045 263.5,-3045 263.5,-3045 269.5,-3045 275.5,-3051 275.5,-3057 275.5,-3057 275.5,-3069 275.5,-3069 275.5,-3075 269.5,-3081 263.5,-3081"/>
<text text-anchor="middle" x="164" y="-3060.8" font-family="Courier,monospace" font-size="9.00">CIccTagMultiProcessElement::GetElement()</text>
</g>
<!-- Node0x63fe855d4c00 -->
<g id="node69" class="node">
<title>Node0x63fe855d4c00</title>
<path fill="#f0f4ff" stroke="black" d="M287,-3139C287,-3139 41,-3139 41,-3139 35,-3139 29,-3133 29,-3127 29,-3127 29,-3115 29,-3115 29,-3109 35,-3103 41,-3103 41,-3103 287,-3103 287,-3103 293,-3103 299,-3109 299,-3115 299,-3115 299,-3127 299,-3127 299,-3133 293,-3139 287,-3139"/>
<text text-anchor="middle" x="164" y="-3118.8" font-family="Courier,monospace" font-size="9.00">CIccTagMultiProcessElement::GetNextElemIterator()</text>
</g>
<!-- Node0x63fe855dc730 -->
<g id="node70" class="node">
<title>Node0x63fe855dc730</title>
<path fill="#f0f4ff" stroke="black" d="M271,-3197C271,-3197 57,-3197 57,-3197 51,-3197 45,-3191 45,-3185 45,-3185 45,-3173 45,-3173 45,-3167 51,-3161 57,-3161 57,-3161 271,-3161 271,-3161 277,-3161 283,-3167 283,-3173 283,-3173 283,-3185 283,-3185 283,-3191 277,-3197 271,-3197"/>
<text text-anchor="middle" x="164" y="-3176.8" font-family="Courier,monospace" font-size="9.00">CIccTagMultiProcessElement::IsLateBinding()</text>
</g>
<!-- Node0x63fe85603b60 -->
<g id="node71" class="node">
<title>Node0x63fe85603b60</title>
<path fill="#f0f4ff" stroke="black" d="M213.5,-3255C213.5,-3255 114.5,-3255 114.5,-3255 108.5,-3255 102.5,-3249 102.5,-3243 102.5,-3243 102.5,-3231 102.5,-3231 102.5,-3225 108.5,-3219 114.5,-3219 114.5,-3219 213.5,-3219 213.5,-3219 219.5,-3219 225.5,-3225 225.5,-3231 225.5,-3231 225.5,-3243 225.5,-3243 225.5,-3249 219.5,-3255 213.5,-3255"/>
<text text-anchor="middle" x="164" y="-3234.8" font-family="Courier,monospace" font-size="9.00">true::_Rb_tree_impl()</text>
</g>
<!-- Node0x63fe855d77b0 -->
<g id="node72" class="node">
<title>Node0x63fe855d77b0</title>
<path fill="#f0f4ff" stroke="black" d="M250,-3313C250,-3313 78,-3313 78,-3313 72,-3313 66,-3307 66,-3301 66,-3301 66,-3289 66,-3289 66,-3283 72,-3277 78,-3277 78,-3277 250,-3277 250,-3277 256,-3277 262,-3283 262,-3289 262,-3289 262,-3301 262,-3301 262,-3307 256,-3313 250,-3313"/>
<text text-anchor="middle" x="164" y="-3292.8" font-family="Courier,monospace" font-size="9.00">CIccTagMultiProcessElement::Begin()</text>
</g>
<!-- Node0x63fe855d7830 -->
<g id="node73" class="node">
<title>Node0x63fe855d7830</title>
<path fill="#f0f4ff" stroke="black" d="M268.5,-3371C268.5,-3371 59.5,-3371 59.5,-3371 53.5,-3371 47.5,-3365 47.5,-3359 47.5,-3359 47.5,-3347 47.5,-3347 47.5,-3341 53.5,-3335 59.5,-3335 59.5,-3335 268.5,-3335 268.5,-3335 274.5,-3335 280.5,-3341 280.5,-3347 280.5,-3347 280.5,-3359 280.5,-3359 280.5,-3365 274.5,-3371 268.5,-3371"/>
<text text-anchor="middle" x="164" y="-3350.8" font-family="Courier,monospace" font-size="9.00">CIccTagMultiProcessElement::ElementIndex()</text>
</g>
<!-- Node0x63fe855be120 -->
<g id="node74" class="node">
<title>Node0x63fe855be120</title>
<path fill="#f0f4ff" stroke="black" d="M268.5,-3429C268.5,-3429 59.5,-3429 59.5,-3429 53.5,-3429 47.5,-3423 47.5,-3417 47.5,-3417 47.5,-3405 47.5,-3405 47.5,-3399 53.5,-3393 59.5,-3393 59.5,-3393 268.5,-3393 268.5,-3393 274.5,-3393 280.5,-3399 280.5,-3405 280.5,-3405 280.5,-3417 280.5,-3417 280.5,-3423 274.5,-3429 268.5,-3429"/>
<text text-anchor="middle" x="164" y="-3408.8" font-family="Courier,monospace" font-size="9.00">CIccTagMultiProcessElement::GetFirstElem()</text>
</g>
<!-- Node0x63fe855dfb20 -->
<g id="node75" class="node">
<title>Node0x63fe855dfb20</title>
<path fill="#f0f4ff" stroke="black" d="M266,-3487C266,-3487 62,-3487 62,-3487 56,-3487 50,-3481 50,-3475 50,-3475 50,-3463 50,-3463 50,-3457 56,-3451 62,-3451 62,-3451 266,-3451 266,-3451 272,-3451 278,-3457 278,-3463 278,-3463 278,-3475 278,-3475 278,-3481 272,-3487 266,-3487"/>
<text text-anchor="middle" x="164" y="-3466.8" font-family="Courier,monospace" font-size="9.00">CIccTagMultiProcessElement::GetLastElem()</text>
</g>
<!-- Node0x63fe855bdea0 -->
<g id="node76" class="node">
<title>Node0x63fe855bdea0</title>
<path fill="#f0f4ff" stroke="black" d="M266,-2153C266,-2153 62,-2153 62,-2153 56,-2153 50,-2147 50,-2141 50,-2141 50,-2129 50,-2129 50,-2123 56,-2117 62,-2117 62,-2117 266,-2117 266,-2117 272,-2117 278,-2123 278,-2129 278,-2129 278,-2141 278,-2141 278,-2147 272,-2153 266,-2153"/>
<text text-anchor="middle" x="164" y="-2132.8" font-family="Courier,monospace" font-size="9.00">CIccTagMultiProcessElement::GetNewApply()</text>
</g>
<!-- Node0x63fe855bdea0&#45;&gt;Node0x63fe8559c360 -->
<g id="edge46" class="edge">
<title>Node0x63fe855bdea0&#45;&gt;Node0x63fe8559c360</title>
<path fill="none" stroke="#4a6fa5" d="M276.93,-2153.03C330.48,-2161.66 393.44,-2171.8 442.54,-2179.71"/>
<polygon fill="#4a6fa5" stroke="#4a6fa5" points="442.5,-2181.84 448.76,-2180.72 443.17,-2177.69 442.5,-2181.84"/>
</g>
<!-- Node0x63fe855ded40 -->
<g id="node77" class="node">
<title>Node0x63fe855ded40</title>
<path fill="#f0f4ff" stroke="black" d="M586,-2095C586,-2095 466,-2095 466,-2095 460,-2095 454,-2089 454,-2083 454,-2083 454,-2071 454,-2071 454,-2065 460,-2059 466,-2059 466,-2059 586,-2059 586,-2059 592,-2059 598,-2065 598,-2071 598,-2071 598,-2083 598,-2083 598,-2089 592,-2095 586,-2095"/>
<text text-anchor="middle" x="526" y="-2074.8" font-family="Courier,monospace" font-size="9.00">CIccApplyTagMpe::GetBuf()</text>
</g>
<!-- Node0x63fe855bdea0&#45;&gt;Node0x63fe855ded40 -->
<g id="edge44" class="edge">
<title>Node0x63fe855bdea0&#45;&gt;Node0x63fe855ded40</title>
<path fill="none" stroke="#4a6fa5" d="M276.93,-2116.97C332.47,-2108.02 398.14,-2097.44 447.96,-2089.41"/>
<polygon fill="#4a6fa5" stroke="#4a6fa5" points="448.37,-2091.47 453.96,-2088.45 447.7,-2087.33 448.37,-2091.47"/>
</g>
<!-- Node0x63fe855c00c0 -->
<g id="node78" class="node">
<title>Node0x63fe855c00c0</title>
<path fill="#f0f4ff" stroke="black" d="M615,-2153C615,-2153 437,-2153 437,-2153 431,-2153 425,-2147 425,-2141 425,-2141 425,-2129 425,-2129 425,-2123 431,-2117 437,-2117 437,-2117 615,-2117 615,-2117 621,-2117 627,-2123 627,-2129 627,-2129 627,-2141 627,-2141 627,-2147 621,-2153 615,-2153"/>
<text text-anchor="middle" x="526" y="-2132.8" font-family="Courier,monospace" font-size="9.00">CIccDblPixelBuffer::UpdateChannels()</text>
</g>
<!-- Node0x63fe855bdea0&#45;&gt;Node0x63fe855c00c0 -->
<g id="edge45" class="edge">
<title>Node0x63fe855bdea0&#45;&gt;Node0x63fe855c00c0</title>
<path fill="none" stroke="#4a6fa5" d="M278.41,-2135C323.29,-2135 374.6,-2135 418.75,-2135"/>
<polygon fill="#4a6fa5" stroke="#4a6fa5" points="418.93,-2137.1 424.93,-2135 418.93,-2132.9 418.93,-2137.1"/>
</g>
<!-- Node0x63fe855c0140 -->
<g id="node79" class="node">
<title>Node0x63fe855c0140</title>
<path fill="#f0f4ff" stroke="black" d="M250,-1863C250,-1863 78,-1863 78,-1863 72,-1863 66,-1857 66,-1851 66,-1851 66,-1839 66,-1839 66,-1833 72,-1827 78,-1827 78,-1827 250,-1827 250,-1827 256,-1827 262,-1833 262,-1839 262,-1839 262,-1851 262,-1851 262,-1857 256,-1863 250,-1863"/>
<text text-anchor="middle" x="164" y="-1842.8" font-family="Courier,monospace" font-size="9.00">CIccTagMultiProcessElement::Apply()</text>
</g>
<!-- Node0x63fe855c0140&#45;&gt;Node0x63fe855ded40 -->
<g id="edge49" class="edge">
<title>Node0x63fe855c0140&#45;&gt;Node0x63fe855ded40</title>
<path fill="none" stroke="#4a6fa5" d="M178.79,-1863.06C210.56,-1903.28 293.31,-2000.41 386,-2048 404.96,-2057.74 426.97,-2064.2 447.81,-2068.5"/>
<polygon fill="#4a6fa5" stroke="#4a6fa5" points="447.65,-2070.61 453.94,-2069.71 448.46,-2066.49 447.65,-2070.61"/>
</g>
<!-- Node0x63fe855bf2a0 -->
<g id="node80" class="node">
<title>Node0x63fe855bf2a0</title>
<path fill="#f0f4ff" stroke="black" d="M617.5,-2037C617.5,-2037 434.5,-2037 434.5,-2037 428.5,-2037 422.5,-2031 422.5,-2025 422.5,-2025 422.5,-2013 422.5,-2013 422.5,-2007 428.5,-2001 434.5,-2001 434.5,-2001 617.5,-2001 617.5,-2001 623.5,-2001 629.5,-2007 629.5,-2013 629.5,-2013 629.5,-2025 629.5,-2025 629.5,-2031 623.5,-2037 617.5,-2037"/>
<text text-anchor="middle" x="526" y="-2016.8" font-family="Courier,monospace" font-size="9.00">CIccApplyTagMpe::GetList[abi:cxx11]()</text>
</g>
<!-- Node0x63fe855c0140&#45;&gt;Node0x63fe855bf2a0 -->
<g id="edge47" class="edge">
<title>Node0x63fe855c0140&#45;&gt;Node0x63fe855bf2a0</title>
<path fill="none" stroke="#4a6fa5" d="M186.33,-1863.01C224.04,-1893.91 306.1,-1956.86 386,-1990 395.7,-1994.02 406.03,-1997.51 416.49,-2000.53"/>
<polygon fill="#4a6fa5" stroke="#4a6fa5" points="415.98,-2002.57 422.32,-2002.16 417.11,-1998.52 415.98,-2002.57"/>
</g>
<!-- Node0x63fe855c2c40 -->
<g id="node81" class="node">
<title>Node0x63fe855c2c40</title>
<path fill="#f0f4ff" stroke="black" d="M575.5,-1979C575.5,-1979 476.5,-1979 476.5,-1979 470.5,-1979 464.5,-1973 464.5,-1967 464.5,-1967 464.5,-1955 464.5,-1955 464.5,-1949 470.5,-1943 476.5,-1943 476.5,-1943 575.5,-1943 575.5,-1943 581.5,-1943 587.5,-1949 587.5,-1955 587.5,-1955 587.5,-1967 587.5,-1967 587.5,-1973 581.5,-1979 575.5,-1979"/>
<text text-anchor="middle" x="526" y="-1958.8" font-family="Courier,monospace" font-size="9.00">CIccApplyMpe::Apply()</text>
</g>
<!-- Node0x63fe855c0140&#45;&gt;Node0x63fe855c2c40 -->
<g id="edge48" class="edge">
<title>Node0x63fe855c0140&#45;&gt;Node0x63fe855c2c40</title>
<path fill="none" stroke="#4a6fa5" d="M205.01,-1863.13C248.73,-1882.38 321.21,-1912.64 386,-1932 409.2,-1938.93 435.06,-1944.81 458.12,-1949.43"/>
<polygon fill="#4a6fa5" stroke="#4a6fa5" points="457.94,-1951.54 464.23,-1950.64 458.76,-1947.42 457.94,-1951.54"/>
</g>
<!-- Node0x63fe855c03c0 -->
<g id="node82" class="node">
<title>Node0x63fe855c03c0</title>
<path fill="#f0f4ff" stroke="black" d="M583.5,-1921C583.5,-1921 468.5,-1921 468.5,-1921 462.5,-1921 456.5,-1915 456.5,-1909 456.5,-1909 456.5,-1897 456.5,-1897 456.5,-1891 462.5,-1885 468.5,-1885 468.5,-1885 583.5,-1885 583.5,-1885 589.5,-1885 595.5,-1891 595.5,-1897 595.5,-1897 595.5,-1909 595.5,-1909 595.5,-1915 589.5,-1921 583.5,-1921"/>
<text text-anchor="middle" x="526" y="-1900.8" font-family="Courier,monospace" font-size="9.00">CIccApplyTagMpe::begin()</text>
</g>
<!-- Node0x63fe855c0140&#45;&gt;Node0x63fe855c03c0 -->
<g id="edge50" class="edge">
<title>Node0x63fe855c0140&#45;&gt;Node0x63fe855c03c0</title>
<path fill="none" stroke="#4a6fa5" d="M262.42,-1860.7C321.47,-1870.21 395.66,-1882.16 450.1,-1890.93"/>
<polygon fill="#4a6fa5" stroke="#4a6fa5" points="450.05,-1893.05 456.3,-1891.93 450.71,-1888.9 450.05,-1893.05"/>
</g>
<!-- Node0x63fe855c2ec0 -->
<g id="node83" class="node">
<title>Node0x63fe855c2ec0</title>
<path fill="#f0f4ff" stroke="black" d="M601.5,-1863C601.5,-1863 450.5,-1863 450.5,-1863 444.5,-1863 438.5,-1857 438.5,-1851 438.5,-1851 438.5,-1839 438.5,-1839 438.5,-1833 444.5,-1827 450.5,-1827 450.5,-1827 601.5,-1827 601.5,-1827 607.5,-1827 613.5,-1833 613.5,-1839 613.5,-1839 613.5,-1851 613.5,-1851 613.5,-1857 607.5,-1863 601.5,-1863"/>
<text text-anchor="middle" x="526" y="-1842.8" font-family="Courier,monospace" font-size="9.00">CIccDblPixelBuffer::GetSrcBuf()</text>
</g>
<!-- Node0x63fe855c0140&#45;&gt;Node0x63fe855c2ec0 -->
<g id="edge51" class="edge">
<title>Node0x63fe855c0140&#45;&gt;Node0x63fe855c2ec0</title>
<path fill="none" stroke="#4a6fa5" d="M262.42,-1845C315.15,-1845 379.94,-1845 431.97,-1845"/>
<polygon fill="#4a6fa5" stroke="#4a6fa5" points="432.25,-1847.1 438.25,-1845 432.25,-1842.9 432.25,-1847.1"/>
</g>
<!-- Node0x63fe855c2580 -->
<g id="node84" class="node">
<title>Node0x63fe855c2580</title>
<path fill="#f0f4ff" stroke="black" d="M578,-1805C578,-1805 474,-1805 474,-1805 468,-1805 462,-1799 462,-1793 462,-1793 462,-1781 462,-1781 462,-1775 468,-1769 474,-1769 474,-1769 578,-1769 578,-1769 584,-1769 590,-1775 590,-1781 590,-1781 590,-1793 590,-1793 590,-1799 584,-1805 578,-1805"/>
<text text-anchor="middle" x="526" y="-1784.8" font-family="Courier,monospace" font-size="9.00">CIccApplyTagMpe::end()</text>
</g>
<!-- Node0x63fe855c0140&#45;&gt;Node0x63fe855c2580 -->
<g id="edge52" class="edge">
<title>Node0x63fe855c0140&#45;&gt;Node0x63fe855c2580</title>
<path fill="none" stroke="#4a6fa5" d="M262.42,-1829.3C323.48,-1819.47 400.71,-1807.02 455.58,-1798.19"/>
<polygon fill="#4a6fa5" stroke="#4a6fa5" points="456.23,-1800.21 461.82,-1797.18 455.56,-1796.06 456.23,-1800.21"/>
</g>
<!-- Node0x63fe855c0b40 -->
<g id="node85" class="node">
<title>Node0x63fe855c0b40</title>
<path fill="#f0f4ff" stroke="black" d="M601.5,-1747C601.5,-1747 450.5,-1747 450.5,-1747 444.5,-1747 438.5,-1741 438.5,-1735 438.5,-1735 438.5,-1723 438.5,-1723 438.5,-1717 444.5,-1711 450.5,-1711 450.5,-1711 601.5,-1711 601.5,-1711 607.5,-1711 613.5,-1717 613.5,-1723 613.5,-1723 613.5,-1735 613.5,-1735 613.5,-1741 607.5,-1747 601.5,-1747"/>
<text text-anchor="middle" x="526" y="-1726.8" font-family="Courier,monospace" font-size="9.00">CIccDblPixelBuffer::GetDstBuf()</text>
</g>
<!-- Node0x63fe855c0140&#45;&gt;Node0x63fe855c0b40 -->
<g id="edge53" class="edge">
<title>Node0x63fe855c0140&#45;&gt;Node0x63fe855c0b40</title>
<path fill="none" stroke="#4a6fa5" d="M205.01,-1826.87C248.73,-1807.62 321.21,-1777.36 386,-1758 400.8,-1753.58 416.69,-1749.58 432.25,-1746.07"/>
<polygon fill="#4a6fa5" stroke="#4a6fa5" points="433.02,-1748.05 438.42,-1744.69 432.11,-1743.95 433.02,-1748.05"/>
</g>
<!-- Node0x63fe855c0340 -->
<g id="node86" class="node">
<title>Node0x63fe855c0340</title>
<path fill="#f0f4ff" stroke="black" d="M594,-1689C594,-1689 458,-1689 458,-1689 452,-1689 446,-1683 446,-1677 446,-1677 446,-1665 446,-1665 446,-1659 452,-1653 458,-1653 458,-1653 594,-1653 594,-1653 600,-1653 606,-1659 606,-1665 606,-1665 606,-1677 606,-1677 606,-1683 600,-1689 594,-1689"/>
<text text-anchor="middle" x="526" y="-1668.8" font-family="Courier,monospace" font-size="9.00">CIccDblPixelBuffer::Switch()</text>
</g>
<!-- Node0x63fe855c0140&#45;&gt;Node0x63fe855c0340 -->
<g id="edge54" class="edge">
<title>Node0x63fe855c0140&#45;&gt;Node0x63fe855c0340</title>
<path fill="none" stroke="#4a6fa5" d="M206.84,-1826.87C241.01,-1811.1 289.73,-1786.36 328,-1758 357.29,-1736.29 353.93,-1717.33 386,-1700 402.37,-1691.15 421.16,-1685 439.54,-1680.73"/>
<polygon fill="#4a6fa5" stroke="#4a6fa5" points="440.34,-1682.7 445.75,-1679.35 439.43,-1678.6 440.34,-1682.7"/>
</g>
<!-- Node0x63fe855c3500 -->
<g id="node87" class="node">
<title>Node0x63fe855c3500</title>
<path fill="#f0f4ff" stroke="black" d="M580.5,-1631C580.5,-1631 471.5,-1631 471.5,-1631 465.5,-1631 459.5,-1625 459.5,-1619 459.5,-1619 459.5,-1607 459.5,-1607 459.5,-1601 465.5,-1595 471.5,-1595 471.5,-1595 580.5,-1595 580.5,-1595 586.5,-1595 592.5,-1601 592.5,-1607 592.5,-1607 592.5,-1619 592.5,-1619 592.5,-1625 586.5,-1631 580.5,-1631"/>
<text text-anchor="middle" x="526" y="-1610.8" font-family="Courier,monospace" font-size="9.00">CIccApplyMpe::GetElem()</text>
</g>
<!-- Node0x63fe855c0140&#45;&gt;Node0x63fe855c3500 -->
<g id="edge55" class="edge">
<title>Node0x63fe855c0140&#45;&gt;Node0x63fe855c3500</title>
<path fill="none" stroke="#4a6fa5" d="M216.91,-1826.96C251.84,-1812.68 297.01,-1789.83 328,-1758 368.21,-1716.7 340.34,-1677.18 386,-1642 405.09,-1627.29 429.87,-1619.59 453.21,-1615.68"/>
<polygon fill="#4a6fa5" stroke="#4a6fa5" points="453.82,-1617.72 459.43,-1614.73 453.18,-1613.56 453.82,-1617.72"/>
</g>
<!-- Node0x63fe855ab480 -->
<g id="node88" class="node">
<title>Node0x63fe855ab480</title>
<path fill="#f0f4ff" stroke="black" d="M292,-3545C292,-3545 36,-3545 36,-3545 30,-3545 24,-3539 24,-3533 24,-3533 24,-3521 24,-3521 24,-3515 30,-3509 36,-3509 36,-3509 292,-3509 292,-3509 298,-3509 304,-3515 304,-3521 304,-3521 304,-3533 304,-3533 304,-3539 298,-3545 292,-3545"/>
<text text-anchor="middle" x="164" y="-3524.8" font-family="Courier,monospace" font-size="9.00">CIccMultiProcessElement::~CIccMultiProcessElement()</text>
</g>
<!-- Node0x63fe855f7570 -->
<g id="node89" class="node">
<title>Node0x63fe855f7570</title>
<path fill="#f0f4ff" stroke="black" d="M271,-3603C271,-3603 57,-3603 57,-3603 51,-3603 45,-3597 45,-3591 45,-3591 45,-3579 45,-3579 45,-3573 51,-3567 57,-3567 57,-3567 271,-3567 271,-3567 277,-3567 283,-3573 283,-3579 283,-3579 283,-3591 283,-3591 283,-3597 277,-3603 271,-3603"/>
<text text-anchor="middle" x="164" y="-3582.8" font-family="Courier,monospace" font-size="9.00">CIccMultiProcessElement::NumInputChannels()</text>
</g>
<!-- Node0x63fe855f8410 -->
<g id="node90" class="node">
<title>Node0x63fe855f8410</title>
<path fill="#f0f4ff" stroke="black" d="M274,-3661C274,-3661 54,-3661 54,-3661 48,-3661 42,-3655 42,-3649 42,-3649 42,-3637 42,-3637 42,-3631 48,-3625 54,-3625 54,-3625 274,-3625 274,-3625 280,-3625 286,-3631 286,-3637 286,-3637 286,-3649 286,-3649 286,-3655 280,-3661 274,-3661"/>
<text text-anchor="middle" x="164" y="-3640.8" font-family="Courier,monospace" font-size="9.00">CIccMultiProcessElement::NumOutputChannels()</text>
</g>
<!-- Node0x63fe855f82e0 -->
<g id="node91" class="node">
<title>Node0x63fe855f82e0</title>
<path fill="#f0f4ff" stroke="black" d="M258,-3719C258,-3719 70,-3719 70,-3719 64,-3719 58,-3713 58,-3707 58,-3707 58,-3695 58,-3695 58,-3689 64,-3683 70,-3683 70,-3683 258,-3683 258,-3683 264,-3683 270,-3689 270,-3695 270,-3695 270,-3707 270,-3707 270,-3713 264,-3719 258,-3719"/>
<text text-anchor="middle" x="164" y="-3698.8" font-family="Courier,monospace" font-size="9.00">CIccMultiProcessElement::IsSupported()</text>
</g>
<!-- Node0x63fe855fa3f0 -->
<g id="node92" class="node">
<title>Node0x63fe855fa3f0</title>
<path fill="#f0f4ff" stroke="black" d="M242.5,-3777C242.5,-3777 85.5,-3777 85.5,-3777 79.5,-3777 73.5,-3771 73.5,-3765 73.5,-3765 73.5,-3753 73.5,-3753 73.5,-3747 79.5,-3741 85.5,-3741 85.5,-3741 242.5,-3741 242.5,-3741 248.5,-3741 254.5,-3747 254.5,-3753 254.5,-3753 254.5,-3765 254.5,-3765 254.5,-3771 248.5,-3777 242.5,-3777"/>
<text text-anchor="middle" x="164" y="-3756.8" font-family="Courier,monospace" font-size="9.00">CIccMultiProcessElement::IsAcs()</text>
</g>
<!-- Node0x63fe855aac00 -->
<g id="node93" class="node">
<title>Node0x63fe855aac00</title>
<path fill="#f0f4ff" stroke="black" d="M255.5,-3835C255.5,-3835 72.5,-3835 72.5,-3835 66.5,-3835 60.5,-3829 60.5,-3823 60.5,-3823 60.5,-3811 60.5,-3811 60.5,-3805 66.5,-3799 72.5,-3799 72.5,-3799 255.5,-3799 255.5,-3799 261.5,-3799 267.5,-3805 267.5,-3811 267.5,-3811 267.5,-3823 267.5,-3823 267.5,-3829 261.5,-3835 255.5,-3835"/>
<text text-anchor="middle" x="164" y="-3814.8" font-family="Courier,monospace" font-size="9.00">CIccMultiProcessElement::GetBAcsSig()</text>
</g>
<!-- Node0x63fe855f9880 -->
<g id="node94" class="node">
<title>Node0x63fe855f9880</title>
<path fill="#f0f4ff" stroke="black" d="M255.5,-3893C255.5,-3893 72.5,-3893 72.5,-3893 66.5,-3893 60.5,-3887 60.5,-3881 60.5,-3881 60.5,-3869 60.5,-3869 60.5,-3863 66.5,-3857 72.5,-3857 72.5,-3857 255.5,-3857 255.5,-3857 261.5,-3857 267.5,-3863 267.5,-3869 267.5,-3869 267.5,-3881 267.5,-3881 267.5,-3887 261.5,-3893 255.5,-3893"/>
<text text-anchor="middle" x="164" y="-3872.8" font-family="Courier,monospace" font-size="9.00">CIccMultiProcessElement::GetEAcsSig()</text>
</g>
<!-- Node0x63fe855f95d0 -->
<g id="node95" class="node">
<title>Node0x63fe855f95d0</title>
<path fill="#f0f4ff" stroke="black" d="M260.5,-3951C260.5,-3951 67.5,-3951 67.5,-3951 61.5,-3951 55.5,-3945 55.5,-3939 55.5,-3939 55.5,-3927 55.5,-3927 55.5,-3921 61.5,-3915 67.5,-3915 67.5,-3915 260.5,-3915 260.5,-3915 266.5,-3915 272.5,-3921 272.5,-3927 272.5,-3927 272.5,-3939 272.5,-3939 272.5,-3945 266.5,-3951 260.5,-3951"/>
<text text-anchor="middle" x="164" y="-3930.8" font-family="Courier,monospace" font-size="9.00">CIccMultiProcessElement::GetExtension()</text>
</g>
<!-- Node0x63fe855dd9b0 -->
<g id="node96" class="node">
<title>Node0x63fe855dd9b0</title>
<path fill="#f0f4ff" stroke="black" d="M263.5,-4009C263.5,-4009 64.5,-4009 64.5,-4009 58.5,-4009 52.5,-4003 52.5,-3997 52.5,-3997 52.5,-3985 52.5,-3985 52.5,-3979 58.5,-3973 64.5,-3973 64.5,-3973 263.5,-3973 263.5,-3973 269.5,-3973 275.5,-3979 275.5,-3985 275.5,-3985 275.5,-3997 275.5,-3997 275.5,-4003 269.5,-4009 263.5,-4009"/>
<text text-anchor="middle" x="164" y="-3988.8" font-family="Courier,monospace" font-size="9.00">CIccMultiProcessElement::IsLateBinding()</text>
</g>
<!-- Node0x63fe855ef000 -->
<g id="node97" class="node">
<title>Node0x63fe855ef000</title>
<path fill="#f0f4ff" stroke="black" d="M292,-4067C292,-4067 36,-4067 36,-4067 30,-4067 24,-4061 24,-4055 24,-4055 24,-4043 24,-4043 24,-4037 30,-4031 36,-4031 36,-4031 292,-4031 292,-4031 298,-4031 304,-4037 304,-4043 304,-4043 304,-4055 304,-4055 304,-4061 298,-4067 292,-4067"/>
<text text-anchor="middle" x="164" y="-4046.8" font-family="Courier,monospace" font-size="9.00">CIccMultiProcessElement::IsLateBindingReflectance()</text>
</g>
<!-- Node0x63fe855dd5e0 -->
<g id="node98" class="node">
<title>Node0x63fe855dd5e0</title>
<path fill="#f0f4ff" stroke="black" d="M218.5,-4125C218.5,-4125 109.5,-4125 109.5,-4125 103.5,-4125 97.5,-4119 97.5,-4113 97.5,-4113 97.5,-4101 97.5,-4101 97.5,-4095 103.5,-4089 109.5,-4089 109.5,-4089 218.5,-4089 218.5,-4089 224.5,-4089 230.5,-4095 230.5,-4101 230.5,-4101 230.5,-4113 230.5,-4113 230.5,-4119 224.5,-4125 218.5,-4125"/>
<text text-anchor="middle" x="164" y="-4104.8" font-family="Courier,monospace" font-size="9.00">CIccApplyMpe::GetType()</text>
</g>
<!-- Node0x63fe855fa780 -->
<g id="node99" class="node">
<title>Node0x63fe855fa780</title>
<path fill="#f0f4ff" stroke="black" d="M232,-4183C232,-4183 96,-4183 96,-4183 90,-4183 84,-4177 84,-4171 84,-4171 84,-4159 84,-4159 84,-4153 90,-4147 96,-4147 96,-4147 232,-4147 232,-4147 238,-4147 244,-4153 244,-4159 244,-4159 244,-4171 244,-4171 244,-4177 238,-4183 232,-4183"/>
<text text-anchor="middle" x="164" y="-4162.8" font-family="Courier,monospace" font-size="9.00">CIccApplyMpe::GetClassName()</text>
</g>
<!-- Node0x63fe855fe670 -->
<g id="node100" class="node">
<title>Node0x63fe855fe670</title>
<path fill="#f0f4ff" stroke="black" d="M224,-4241C224,-4241 104,-4241 104,-4241 98,-4241 92,-4235 92,-4229 92,-4229 92,-4217 92,-4217 92,-4211 98,-4205 104,-4205 104,-4205 224,-4205 224,-4205 230,-4205 236,-4211 236,-4217 236,-4217 236,-4229 236,-4229 236,-4235 230,-4241 224,-4241"/>
<text text-anchor="middle" x="164" y="-4220.8" font-family="Courier,monospace" font-size="9.00">CIccMpeUnknown::NewCopy()</text>
</g>
<!-- Node0x63fe855fe130 -->
<g id="node101" class="node">
<title>Node0x63fe855fe130</title>
<path fill="#f0f4ff" stroke="black" d="M224,-4299C224,-4299 104,-4299 104,-4299 98,-4299 92,-4293 92,-4287 92,-4287 92,-4275 92,-4275 92,-4269 98,-4263 104,-4263 104,-4263 224,-4263 224,-4263 230,-4263 236,-4269 236,-4275 236,-4275 236,-4287 236,-4287 236,-4293 230,-4299 224,-4299"/>
<text text-anchor="middle" x="164" y="-4278.8" font-family="Courier,monospace" font-size="9.00">CIccMpeUnknown::GetType()</text>
</g>
<!-- Node0x63fe855fdec0 -->
<g id="node102" class="node">
<title>Node0x63fe855fdec0</title>
<path fill="#f0f4ff" stroke="black" d="M237,-4357C237,-4357 91,-4357 91,-4357 85,-4357 79,-4351 79,-4345 79,-4345 79,-4333 79,-4333 79,-4327 85,-4321 91,-4321 91,-4321 237,-4321 237,-4321 243,-4321 249,-4327 249,-4333 249,-4333 249,-4345 249,-4345 249,-4351 243,-4357 237,-4357"/>
<text text-anchor="middle" x="164" y="-4336.8" font-family="Courier,monospace" font-size="9.00">CIccMpeUnknown::GetClassName()</text>
</g>
<!-- Node0x63fe855fd600 -->
<g id="node103" class="node">
<title>Node0x63fe855fd600</title>
<path fill="#f0f4ff" stroke="black" d="M234.5,-4415C234.5,-4415 93.5,-4415 93.5,-4415 87.5,-4415 81.5,-4409 81.5,-4403 81.5,-4403 81.5,-4391 81.5,-4391 81.5,-4385 87.5,-4379 93.5,-4379 93.5,-4379 234.5,-4379 234.5,-4379 240.5,-4379 246.5,-4385 246.5,-4391 246.5,-4391 246.5,-4403 246.5,-4403 246.5,-4409 240.5,-4415 234.5,-4415"/>
<text text-anchor="middle" x="164" y="-4394.8" font-family="Courier,monospace" font-size="9.00">CIccMpeUnknown::IsSupported()</text>
</g>
<!-- Node0x63fe855fcf40 -->
<g id="node104" class="node">
<title>Node0x63fe855fcf40</title>
<path fill="#f0f4ff" stroke="black" d="M218.5,-4473C218.5,-4473 109.5,-4473 109.5,-4473 103.5,-4473 97.5,-4467 97.5,-4461 97.5,-4461 97.5,-4449 97.5,-4449 97.5,-4443 103.5,-4437 109.5,-4437 109.5,-4437 218.5,-4437 218.5,-4437 224.5,-4437 230.5,-4443 230.5,-4449 230.5,-4449 230.5,-4461 230.5,-4461 230.5,-4467 224.5,-4473 218.5,-4473"/>
<text text-anchor="middle" x="164" y="-4452.8" font-family="Courier,monospace" font-size="9.00">CIccMpeUnknown::Begin()</text>
</g>
<!-- Node0x63fe855fee50 -->
<g id="node105" class="node">
<title>Node0x63fe855fee50</title>
<path fill="#f0f4ff" stroke="black" d="M234.5,-4531C234.5,-4531 93.5,-4531 93.5,-4531 87.5,-4531 81.5,-4525 81.5,-4519 81.5,-4519 81.5,-4507 81.5,-4507 81.5,-4501 87.5,-4495 93.5,-4495 93.5,-4495 234.5,-4495 234.5,-4495 240.5,-4495 246.5,-4501 246.5,-4507 246.5,-4507 246.5,-4519 246.5,-4519 246.5,-4525 240.5,-4531 234.5,-4531"/>
<text text-anchor="middle" x="164" y="-4510.8" font-family="Courier,monospace" font-size="9.00">CIccMpeUnknown::GetNewApply()</text>
</g>
<!-- Node0x63fe855f07c0 -->
<g id="node106" class="node">
<title>Node0x63fe855f07c0</title>
<path fill="#f0f4ff" stroke="black" d="M218.5,-4589C218.5,-4589 109.5,-4589 109.5,-4589 103.5,-4589 97.5,-4583 97.5,-4577 97.5,-4577 97.5,-4565 97.5,-4565 97.5,-4559 103.5,-4553 109.5,-4553 109.5,-4553 218.5,-4553 218.5,-4553 224.5,-4553 230.5,-4559 230.5,-4565 230.5,-4565 230.5,-4577 230.5,-4577 230.5,-4583 224.5,-4589 218.5,-4589"/>
<text text-anchor="middle" x="164" y="-4568.8" font-family="Courier,monospace" font-size="9.00">CIccMpeUnknown::Apply()</text>
</g>
<!-- Node0x63fe855ef840 -->
<g id="node107" class="node">
<title>Node0x63fe855ef840</title>
<path fill="#f0f4ff" stroke="black" d="M255.5,-4647C255.5,-4647 72.5,-4647 72.5,-4647 66.5,-4647 60.5,-4641 60.5,-4635 60.5,-4635 60.5,-4623 60.5,-4623 60.5,-4617 66.5,-4611 72.5,-4611 72.5,-4611 255.5,-4611 255.5,-4611 261.5,-4611 267.5,-4617 267.5,-4623 267.5,-4623 267.5,-4635 267.5,-4635 267.5,-4641 261.5,-4647 255.5,-4647"/>
<text text-anchor="middle" x="164" y="-4626.8" font-family="Courier,monospace" font-size="9.00">CIccTagMultiProcessElement::NewCopy()</text>
</g>
<!-- Node0x63fe855ef8c0 -->
<g id="node108" class="node">
<title>Node0x63fe855ef8c0</title>
<path fill="#f0f4ff" stroke="black" d="M255.5,-4705C255.5,-4705 72.5,-4705 72.5,-4705 66.5,-4705 60.5,-4699 60.5,-4693 60.5,-4693 60.5,-4681 60.5,-4681 60.5,-4675 66.5,-4669 72.5,-4669 72.5,-4669 255.5,-4669 255.5,-4669 261.5,-4669 267.5,-4675 267.5,-4681 267.5,-4681 267.5,-4693 267.5,-4693 267.5,-4699 261.5,-4705 255.5,-4705"/>
<text text-anchor="middle" x="164" y="-4684.8" font-family="Courier,monospace" font-size="9.00">CIccTagMultiProcessElement::GetType()</text>
</g>
<!-- Node0x63fe855ffa50 -->
<g id="node109" class="node">
<title>Node0x63fe855ffa50</title>
<path fill="#f0f4ff" stroke="black" d="M229,-4763C229,-4763 99,-4763 99,-4763 93,-4763 87,-4757 87,-4751 87,-4751 87,-4739 87,-4739 87,-4733 93,-4727 99,-4727 99,-4727 229,-4727 229,-4727 235,-4727 241,-4733 241,-4739 241,-4739 241,-4751 241,-4751 241,-4757 235,-4763 229,-4763"/>
<text text-anchor="middle" x="164" y="-4742.8" font-family="Courier,monospace" font-size="9.00">CIccTag::GetTagStructType()</text>
</g>
<!-- Node0x63fe855ff780 -->
<g id="node110" class="node">
<title>Node0x63fe855ff780</title>
<path fill="#f0f4ff" stroke="black" d="M226.5,-4821C226.5,-4821 101.5,-4821 101.5,-4821 95.5,-4821 89.5,-4815 89.5,-4809 89.5,-4809 89.5,-4797 89.5,-4797 89.5,-4791 95.5,-4785 101.5,-4785 101.5,-4785 226.5,-4785 226.5,-4785 232.5,-4785 238.5,-4791 238.5,-4797 238.5,-4797 238.5,-4809 238.5,-4809 238.5,-4815 232.5,-4821 226.5,-4821"/>
<text text-anchor="middle" x="164" y="-4800.8" font-family="Courier,monospace" font-size="9.00">CIccTag::GetTagArrayType()</text>
</g>
<!-- Node0x63fe855ff5a0 -->
<g id="node111" class="node">
<title>Node0x63fe855ff5a0</title>
<path fill="#f0f4ff" stroke="black" d="M216,-4879C216,-4879 112,-4879 112,-4879 106,-4879 100,-4873 100,-4867 100,-4867 100,-4855 100,-4855 100,-4849 106,-4843 112,-4843 112,-4843 216,-4843 216,-4843 222,-4843 228,-4849 228,-4855 228,-4855 228,-4867 228,-4867 228,-4873 222,-4879 216,-4879"/>
<text text-anchor="middle" x="164" y="-4858.8" font-family="Courier,monospace" font-size="9.00">CIccTag::IsArrayType()</text>
</g>
<!-- Node0x63fe855ff240 -->
<g id="node112" class="node">
<title>Node0x63fe855ff240</title>
<path fill="#f0f4ff" stroke="black" d="M211,-4937C211,-4937 117,-4937 117,-4937 111,-4937 105,-4931 105,-4925 105,-4925 105,-4913 105,-4913 105,-4907 111,-4901 117,-4901 117,-4901 211,-4901 211,-4901 217,-4901 223,-4907 223,-4913 223,-4913 223,-4925 223,-4925 223,-4931 217,-4937 211,-4937"/>
<text text-anchor="middle" x="164" y="-4916.8" font-family="Courier,monospace" font-size="9.00">CIccTag::IsMBBType()</text>
</g>
<!-- Node0x63fe85600650 -->
<g id="node113" class="node">
<title>Node0x63fe85600650</title>
<path fill="#f0f4ff" stroke="black" d="M224,-4995C224,-4995 104,-4995 104,-4995 98,-4995 92,-4989 92,-4983 92,-4983 92,-4971 92,-4971 92,-4965 98,-4959 104,-4959 104,-4959 224,-4959 224,-4959 230,-4959 236,-4965 236,-4971 236,-4971 236,-4983 236,-4983 236,-4989 230,-4995 224,-4995"/>
<text text-anchor="middle" x="164" y="-4974.8" font-family="Courier,monospace" font-size="9.00">CIccTag::IsNumArrayType()</text>
</g>
<!-- Node0x63fe856003e0 -->
<g id="node114" class="node">
<title>Node0x63fe856003e0</title>
<path fill="#f0f4ff" stroke="black" d="M268.5,-5053C268.5,-5053 59.5,-5053 59.5,-5053 53.5,-5053 47.5,-5047 47.5,-5041 47.5,-5041 47.5,-5029 47.5,-5029 47.5,-5023 53.5,-5017 59.5,-5017 59.5,-5017 268.5,-5017 268.5,-5017 274.5,-5017 280.5,-5023 280.5,-5029 280.5,-5029 280.5,-5041 280.5,-5041 280.5,-5047 274.5,-5053 268.5,-5053"/>
<text text-anchor="middle" x="164" y="-5032.8" font-family="Courier,monospace" font-size="9.00">CIccTagMultiProcessElement::GetClassName()</text>
</g>
<!-- Node0x63fe855e94e0 -->
<g id="node115" class="node">
<title>Node0x63fe855e94e0</title>
<path fill="#f0f4ff" stroke="black" d="M218.5,-5111C218.5,-5111 109.5,-5111 109.5,-5111 103.5,-5111 97.5,-5105 97.5,-5099 97.5,-5099 97.5,-5087 97.5,-5087 97.5,-5081 103.5,-5075 109.5,-5075 109.5,-5075 218.5,-5075 218.5,-5075 224.5,-5075 230.5,-5081 230.5,-5087 230.5,-5087 230.5,-5099 230.5,-5099 230.5,-5105 224.5,-5111 218.5,-5111"/>
<text text-anchor="middle" x="164" y="-5090.8" font-family="Courier,monospace" font-size="9.00">CIccTag::GetExtension()</text>
</g>
<!-- Node0x63fe855ffcd0 -->
<g id="node116" class="node">
<title>Node0x63fe855ffcd0</title>
<path fill="#f0f4ff" stroke="black" d="M205.5,-5169C205.5,-5169 122.5,-5169 122.5,-5169 116.5,-5169 110.5,-5163 110.5,-5157 110.5,-5157 110.5,-5145 110.5,-5145 110.5,-5139 116.5,-5133 122.5,-5133 122.5,-5133 205.5,-5133 205.5,-5133 211.5,-5133 217.5,-5139 217.5,-5145 217.5,-5145 217.5,-5157 217.5,-5157 217.5,-5163 211.5,-5169 205.5,-5169"/>
<text text-anchor="middle" x="164" y="-5148.8" font-family="Courier,monospace" font-size="9.00">CIccTag::ReadAll()</text>
</g>
<!-- Node0x63fe85600c30 -->
<g id="node117" class="node">
<title>Node0x63fe85600c30</title>
<path fill="#f0f4ff" stroke="black" d="M208,-5227C208,-5227 120,-5227 120,-5227 114,-5227 108,-5221 108,-5215 108,-5215 108,-5203 108,-5203 108,-5197 114,-5191 120,-5191 120,-5191 208,-5191 208,-5191 214,-5191 220,-5197 220,-5203 220,-5203 220,-5215 220,-5215 220,-5221 214,-5227 208,-5227"/>
<text text-anchor="middle" x="164" y="-5206.8" font-family="Courier,monospace" font-size="9.00">CIccTag::DetachIO()</text>
</g>
<!-- Node0x63fe85602ba0 -->
<g id="node118" class="node">
<title>Node0x63fe85602ba0</title>
<path fill="#f0f4ff" stroke="black" d="M197.5,-5285C197.5,-5285 130.5,-5285 130.5,-5285 124.5,-5285 118.5,-5279 118.5,-5273 118.5,-5273 118.5,-5261 118.5,-5261 118.5,-5255 124.5,-5249 130.5,-5249 130.5,-5249 197.5,-5249 197.5,-5249 203.5,-5249 209.5,-5255 209.5,-5261 209.5,-5261 209.5,-5273 209.5,-5273 209.5,-5279 203.5,-5285 197.5,-5285"/>
<text text-anchor="middle" x="164" y="-5264.8" font-family="Courier,monospace" font-size="9.00">CIccTag::Read()</text>
</g>
<!-- Node0x63fe85605a20 -->
<g id="node119" class="node">
<title>Node0x63fe85605a20</title>
<path fill="#f0f4ff" stroke="black" d="M284.5,-5343C284.5,-5343 43.5,-5343 43.5,-5343 37.5,-5343 31.5,-5337 31.5,-5331 31.5,-5331 31.5,-5319 31.5,-5319 31.5,-5313 37.5,-5307 43.5,-5307 43.5,-5307 284.5,-5307 284.5,-5307 290.5,-5307 296.5,-5313 296.5,-5319 296.5,-5319 296.5,-5331 296.5,-5331 296.5,-5337 290.5,-5343 284.5,-5343"/>
<text text-anchor="middle" x="164" y="-5322.8" font-family="Courier,monospace" font-size="9.00">__detail::_List_node_header::_List_node_header()</text>
</g>
<!-- Node0x63fe856060e0 -->
<g id="node120" class="node">
<title>Node0x63fe856060e0</title>
<path fill="#f0f4ff" stroke="black" d="M620,-5343C620,-5343 432,-5343 432,-5343 426,-5343 420,-5337 420,-5331 420,-5331 420,-5319 420,-5319 420,-5313 426,-5307 432,-5307 432,-5307 620,-5307 620,-5307 626,-5307 632,-5313 632,-5319 632,-5319 632,-5331 632,-5331 632,-5337 626,-5343 620,-5343"/>
<text text-anchor="middle" x="526" y="-5322.8" font-family="Courier,monospace" font-size="9.00">__detail::_List_node_header::_M_init()</text>
</g>
<!-- Node0x63fe85605a20&#45;&gt;Node0x63fe856060e0 -->
<g id="edge56" class="edge">
<title>Node0x63fe85605a20&#45;&gt;Node0x63fe856060e0</title>
<path fill="none" stroke="#4a6fa5" d="M296.75,-5325C335.09,-5325 376.58,-5325 413.54,-5325"/>
<polygon fill="#4a6fa5" stroke="#4a6fa5" points="413.9,-5327.1 419.9,-5325 413.9,-5322.9 413.9,-5327.1"/>
</g>
<!-- Node0x63fe85618c40 -->
<g id="node121" class="node">
<title>Node0x63fe85618c40</title>
<path fill="#f0f4ff" stroke="black" d="M213.5,-5401C213.5,-5401 114.5,-5401 114.5,-5401 108.5,-5401 102.5,-5395 102.5,-5389 102.5,-5389 102.5,-5377 102.5,-5377 102.5,-5371 108.5,-5365 114.5,-5365 114.5,-5365 213.5,-5365 213.5,-5365 219.5,-5365 225.5,-5371 225.5,-5377 225.5,-5377 225.5,-5389 225.5,-5389 225.5,-5395 219.5,-5401 213.5,-5401"/>
<text text-anchor="middle" x="164" y="-5380.8" font-family="Courier,monospace" font-size="9.00">true::_Rb_tree_impl()</text>
</g>
<!-- Node0x63fe856202d0 -->
<g id="node122" class="node">
<title>Node0x63fe856202d0</title>
<path fill="#f0f4ff" stroke="black" d="M216,-5459C216,-5459 112,-5459 112,-5459 106,-5459 100,-5453 100,-5447 100,-5447 100,-5435 100,-5435 100,-5429 106,-5423 112,-5423 112,-5423 216,-5423 216,-5423 222,-5423 228,-5429 228,-5435 228,-5435 228,-5447 228,-5447 228,-5453 222,-5459 216,-5459"/>
<text text-anchor="middle" x="164" y="-5438.8" font-family="Courier,monospace" font-size="9.00">true::~_Rb_tree_impl()</text>
</g>
<!-- Node0x63fe85626f70 -->
<g id="node123" class="node">
<title>Node0x63fe85626f70</title>
<path fill="#f0f4ff" stroke="black" d="M216,-5517C216,-5517 112,-5517 112,-5517 106,-5517 100,-5511 100,-5505 100,-5505 100,-5493 100,-5493 100,-5487 106,-5481 112,-5481 112,-5481 216,-5481 216,-5481 222,-5481 228,-5487 228,-5493 228,-5493 228,-5505 228,-5505 228,-5511 222,-5517 216,-5517"/>
<text text-anchor="middle" x="164" y="-5496.8" font-family="Courier,monospace" font-size="9.00">true::~_Rb_tree_impl()</text>
</g>
<!-- Node0x63fe8560fc70 -->
<g id="node124" class="node">
<title>Node0x63fe8560fc70</title>
<path fill="#f0f4ff" stroke="black" d="M253,-5575C253,-5575 75,-5575 75,-5575 69,-5575 63,-5569 63,-5563 63,-5563 63,-5551 63,-5551 63,-5545 69,-5539 75,-5539 75,-5539 253,-5539 253,-5539 259,-5539 265,-5545 265,-5551 265,-5551 265,-5563 265,-5563 265,-5569 259,-5575 253,-5575"/>
<text text-anchor="middle" x="164" y="-5554.8" font-family="Courier,monospace" font-size="9.00">__detail::_List_node_base::_M_hook()</text>
</g>
<!-- Node0x63fe85611dd0 -->
<g id="node125" class="node">
<title>Node0x63fe85611dd0</title>
<path fill="#f0f4ff" stroke="black" d="M203,-5633C203,-5633 125,-5633 125,-5633 119,-5633 113,-5627 113,-5621 113,-5621 113,-5609 113,-5609 113,-5603 119,-5597 125,-5597 125,-5597 203,-5597 203,-5597 209,-5597 215,-5603 215,-5609 215,-5609 215,-5621 215,-5621 215,-5627 209,-5633 203,-5633"/>
<text text-anchor="middle" x="164" y="-5612.8" font-family="Courier,monospace" font-size="9.00">__allocated_ptr()</text>
</g>
<!-- Node0x63fe855a9d60 -->
<g id="node126" class="node">
<title>Node0x63fe855a9d60</title>
<path fill="#f0f4ff" stroke="black" d="M184.5,-5691C184.5,-5691 143.5,-5691 143.5,-5691 137.5,-5691 131.5,-5685 131.5,-5679 131.5,-5679 131.5,-5667 131.5,-5667 131.5,-5661 137.5,-5655 143.5,-5655 143.5,-5655 184.5,-5655 184.5,-5655 190.5,-5655 196.5,-5661 196.5,-5667 196.5,-5667 196.5,-5679 196.5,-5679 196.5,-5685 190.5,-5691 184.5,-5691"/>
<text text-anchor="middle" x="164" y="-5670.8" font-family="Courier,monospace" font-size="9.00">decltype()</text>
</g>
<!-- Node0x63fe855fb720 -->
<g id="node127" class="node">
<title>Node0x63fe855fb720</title>
<path fill="#f0f4ff" stroke="black" d="M203,-5749C203,-5749 125,-5749 125,-5749 119,-5749 113,-5743 113,-5737 113,-5737 113,-5725 113,-5725 113,-5719 119,-5713 125,-5713 125,-5713 203,-5713 203,-5713 209,-5713 215,-5719 215,-5725 215,-5725 215,-5737 215,-5737 215,-5743 209,-5749 203,-5749"/>
<text text-anchor="middle" x="164" y="-5728.8" font-family="Courier,monospace" font-size="9.00">__allocated_ptr()</text>
</g>
<!-- Node0x63fe856372d0 -->
<g id="node128" class="node">
<title>Node0x63fe856372d0</title>
<path fill="#f0f4ff" stroke="black" d="M203,-5807C203,-5807 125,-5807 125,-5807 119,-5807 113,-5801 113,-5795 113,-5795 113,-5783 113,-5783 113,-5777 119,-5771 125,-5771 125,-5771 203,-5771 203,-5771 209,-5771 215,-5777 215,-5783 215,-5783 215,-5795 215,-5795 215,-5801 209,-5807 203,-5807"/>
<text text-anchor="middle" x="164" y="-5786.8" font-family="Courier,monospace" font-size="9.00">__allocated_ptr()</text>
</g>
<!-- Node0x63fe85636dd0 -->
<g id="node129" class="node">
<title>Node0x63fe85636dd0</title>
<path fill="#f0f4ff" stroke="black" d="M184.5,-5865C184.5,-5865 143.5,-5865 143.5,-5865 137.5,-5865 131.5,-5859 131.5,-5853 131.5,-5853 131.5,-5841 131.5,-5841 131.5,-5835 137.5,-5829 143.5,-5829 143.5,-5829 184.5,-5829 184.5,-5829 190.5,-5829 196.5,-5835 196.5,-5841 196.5,-5841 196.5,-5853 196.5,-5853 196.5,-5859 190.5,-5865 184.5,-5865"/>
<text text-anchor="middle" x="164" y="-5844.8" font-family="Courier,monospace" font-size="9.00">decltype()</text>
</g>
<!-- Node0x63fe85636960 -->
<g id="node130" class="node">
<title>Node0x63fe85636960</title>
<path fill="#f0f4ff" stroke="black" d="M203,-5923C203,-5923 125,-5923 125,-5923 119,-5923 113,-5917 113,-5911 113,-5911 113,-5899 113,-5899 113,-5893 119,-5887 125,-5887 125,-5887 203,-5887 203,-5887 209,-5887 215,-5893 215,-5899 215,-5899 215,-5911 215,-5911 215,-5917 209,-5923 203,-5923"/>
<text text-anchor="middle" x="164" y="-5902.8" font-family="Courier,monospace" font-size="9.00">__allocated_ptr()</text>
</g>
<!-- Node0x63fe855b8160 -->
<g id="node131" class="node">
<title>Node0x63fe855b8160</title>
<path fill="#f0f4ff" stroke="black" d="M192.5,-5981C192.5,-5981 135.5,-5981 135.5,-5981 129.5,-5981 123.5,-5975 123.5,-5969 123.5,-5969 123.5,-5957 123.5,-5957 123.5,-5951 129.5,-5945 135.5,-5945 135.5,-5945 192.5,-5945 192.5,-5945 198.5,-5945 204.5,-5951 204.5,-5957 204.5,-5957 204.5,-5969 204.5,-5969 204.5,-5975 198.5,-5981 192.5,-5981"/>
<text text-anchor="middle" x="164" y="-5960.8" font-family="Courier,monospace" font-size="9.00">lower_bound()</text>
</g>
<!-- Node0x63fe85641770 -->
<g id="node132" class="node">
<title>Node0x63fe85641770</title>
<path fill="#f0f4ff" stroke="black" d="M554.5,-5981C554.5,-5981 497.5,-5981 497.5,-5981 491.5,-5981 485.5,-5975 485.5,-5969 485.5,-5969 485.5,-5957 485.5,-5957 485.5,-5951 491.5,-5945 497.5,-5945 497.5,-5945 554.5,-5945 554.5,-5945 560.5,-5945 566.5,-5951 566.5,-5957 566.5,-5957 566.5,-5969 566.5,-5969 566.5,-5975 560.5,-5981 554.5,-5981"/>
<text text-anchor="middle" x="526" y="-5960.8" font-family="Courier,monospace" font-size="9.00">lower_bound()</text>
</g>
<!-- Node0x63fe855b8160&#45;&gt;Node0x63fe85641770 -->
<g id="edge57" class="edge">
<title>Node0x63fe855b8160&#45;&gt;Node0x63fe85641770</title>
<path fill="none" stroke="#4a6fa5" d="M204.56,-5963C271.75,-5963 407.83,-5963 479.11,-5963"/>
<polygon fill="#4a6fa5" stroke="#4a6fa5" points="479.38,-5965.1 485.38,-5963 479.38,-5960.9 479.38,-5965.1"/>
</g>
<!-- Node0x63fe855c9320 -->
<g id="node133" class="node">
<title>Node0x63fe855c9320</title>
<path fill="#f0f4ff" stroke="black" d="M184.5,-6039C184.5,-6039 143.5,-6039 143.5,-6039 137.5,-6039 131.5,-6033 131.5,-6027 131.5,-6027 131.5,-6015 131.5,-6015 131.5,-6009 137.5,-6003 143.5,-6003 143.5,-6003 184.5,-6003 184.5,-6003 190.5,-6003 196.5,-6009 196.5,-6015 196.5,-6015 196.5,-6027 196.5,-6027 196.5,-6033 190.5,-6039 184.5,-6039"/>
<text text-anchor="middle" x="164" y="-6018.8" font-family="Courier,monospace" font-size="9.00">key_comp()</text>
</g>
<!-- Node0x63fe85644940 -->
<g id="node134" class="node">
<title>Node0x63fe85644940</title>
<path fill="#f0f4ff" stroke="black" d="M546.5,-6039C546.5,-6039 505.5,-6039 505.5,-6039 499.5,-6039 493.5,-6033 493.5,-6027 493.5,-6027 493.5,-6015 493.5,-6015 493.5,-6009 499.5,-6003 505.5,-6003 505.5,-6003 546.5,-6003 546.5,-6003 552.5,-6003 558.5,-6009 558.5,-6015 558.5,-6015 558.5,-6027 558.5,-6027 558.5,-6033 552.5,-6039 546.5,-6039"/>
<text text-anchor="middle" x="526" y="-6018.8" font-family="Courier,monospace" font-size="9.00">key_comp()</text>
</g>
<!-- Node0x63fe855c9320&#45;&gt;Node0x63fe85644940 -->
<g id="edge58" class="edge">
<title>Node0x63fe855c9320&#45;&gt;Node0x63fe85644940</title>
<path fill="none" stroke="#4a6fa5" d="M196.63,-6021C262.84,-6021 415.75,-6021 487.08,-6021"/>
<polygon fill="#4a6fa5" stroke="#4a6fa5" points="487.31,-6023.1 493.31,-6021 487.31,-6018.9 487.31,-6023.1"/>
</g>
<!-- Node0x63fe855ceb80 -->
<g id="node135" class="node">
<title>Node0x63fe855ceb80</title>
<path fill="#f0f4ff" stroke="black" d="M192.5,-6097C192.5,-6097 135.5,-6097 135.5,-6097 129.5,-6097 123.5,-6091 123.5,-6085 123.5,-6085 123.5,-6073 123.5,-6073 123.5,-6067 129.5,-6061 135.5,-6061 135.5,-6061 192.5,-6061 192.5,-6061 198.5,-6061 204.5,-6067 204.5,-6073 204.5,-6073 204.5,-6085 204.5,-6085 204.5,-6091 198.5,-6097 192.5,-6097"/>
<text text-anchor="middle" x="164" y="-6076.8" font-family="Courier,monospace" font-size="9.00">lower_bound()</text>
</g>
<!-- Node0x63fe855db790 -->
<g id="node136" class="node">
<title>Node0x63fe855db790</title>
<path fill="#f0f4ff" stroke="black" d="M554.5,-6097C554.5,-6097 497.5,-6097 497.5,-6097 491.5,-6097 485.5,-6091 485.5,-6085 485.5,-6085 485.5,-6073 485.5,-6073 485.5,-6067 491.5,-6061 497.5,-6061 497.5,-6061 554.5,-6061 554.5,-6061 560.5,-6061 566.5,-6067 566.5,-6073 566.5,-6073 566.5,-6085 566.5,-6085 566.5,-6091 560.5,-6097 554.5,-6097"/>
<text text-anchor="middle" x="526" y="-6076.8" font-family="Courier,monospace" font-size="9.00">lower_bound()</text>
</g>
<!-- Node0x63fe855ceb80&#45;&gt;Node0x63fe855db790 -->
<g id="edge59" class="edge">
<title>Node0x63fe855ceb80&#45;&gt;Node0x63fe855db790</title>
<path fill="none" stroke="#4a6fa5" d="M204.56,-6079C271.75,-6079 407.83,-6079 479.11,-6079"/>
<polygon fill="#4a6fa5" stroke="#4a6fa5" points="479.38,-6081.1 485.38,-6079 479.38,-6076.9 479.38,-6081.1"/>
</g>
<!-- Node0x63fe855d1d20 -->
<g id="node137" class="node">
<title>Node0x63fe855d1d20</title>
<path fill="#f0f4ff" stroke="black" d="M184.5,-6155C184.5,-6155 143.5,-6155 143.5,-6155 137.5,-6155 131.5,-6149 131.5,-6143 131.5,-6143 131.5,-6131 131.5,-6131 131.5,-6125 137.5,-6119 143.5,-6119 143.5,-6119 184.5,-6119 184.5,-6119 190.5,-6119 196.5,-6125 196.5,-6131 196.5,-6131 196.5,-6143 196.5,-6143 196.5,-6149 190.5,-6155 184.5,-6155"/>
<text text-anchor="middle" x="164" y="-6134.8" font-family="Courier,monospace" font-size="9.00">key_comp()</text>
</g>
<!-- Node0x63fe8565d8c0 -->
<g id="node138" class="node">
<title>Node0x63fe8565d8c0</title>
<path fill="#f0f4ff" stroke="black" d="M546.5,-6155C546.5,-6155 505.5,-6155 505.5,-6155 499.5,-6155 493.5,-6149 493.5,-6143 493.5,-6143 493.5,-6131 493.5,-6131 493.5,-6125 499.5,-6119 505.5,-6119 505.5,-6119 546.5,-6119 546.5,-6119 552.5,-6119 558.5,-6125 558.5,-6131 558.5,-6131 558.5,-6143 558.5,-6143 558.5,-6149 552.5,-6155 546.5,-6155"/>
<text text-anchor="middle" x="526" y="-6134.8" font-family="Courier,monospace" font-size="9.00">key_comp()</text>
</g>
<!-- Node0x63fe855d1d20&#45;&gt;Node0x63fe8565d8c0 -->
<g id="edge60" class="edge">
<title>Node0x63fe855d1d20&#45;&gt;Node0x63fe8565d8c0</title>
<path fill="none" stroke="#4a6fa5" d="M196.63,-6137C262.84,-6137 415.75,-6137 487.08,-6137"/>
<polygon fill="#4a6fa5" stroke="#4a6fa5" points="487.31,-6139.1 493.31,-6137 487.31,-6134.9 487.31,-6139.1"/>
</g>
</g>
</svg>
