<?xml version="1.0" encoding="UTF-8" standalone="no"?>
<!DOCTYPE svg PUBLIC "-//W3C//DTD SVG 1.1//EN"
 "http://www.w3.org/Graphics/SVG/1.1/DTD/svg11.dtd">
<!-- Generated by graphviz version 2.43.0 (0)
 -->
<!-- Title: Call graph: /home/h02332/po/research/call&#45;graph/iccdev/proflib/IccTagProfSeqId.ll Pages: 1 -->
<svg width="1111pt" height="2863pt"
 viewBox="0.00 0.00 1111.20 2863.20" xmlns="http://www.w3.org/2000/svg" xmlns:xlink="http://www.w3.org/1999/xlink">
<g id="graph0" class="graph" transform="scale(1 1) rotate(0) translate(21.6 2841.6)">
<title>Call graph: /home/h02332/po/research/call&#45;graph/iccdev/proflib/IccTagProfSeqId.ll</title>
<polygon fill="white" stroke="transparent" points="-21.6,21.6 -21.6,-2841.6 1089.6,-2841.6 1089.6,21.6 -21.6,21.6"/>
<!-- Node0x555a222b09b0 -->
<g id="node1" class="node">
<title>Node0x555a222b09b0</title>
<path fill="#f0f4ff" stroke="black" d="M628,-500C628,-500 440,-500 440,-500 434,-500 428,-494 428,-488 428,-488 428,-476 428,-476 428,-470 434,-464 440,-464 440,-464 628,-464 628,-464 634,-464 640,-470 640,-476 640,-476 640,-488 640,-488 640,-494 634,-500 628,-500"/>
<text text-anchor="middle" x="534" y="-479.8" font-family="Courier,monospace" font-size="9.00">CIccProfileIdDesc::CIccProfileIdDesc()</text>
</g>
<!-- Node0x555a222b7380 -->
<g id="node2" class="node">
<title>Node0x555a222b7380</title>
<path fill="#f0f4ff" stroke="black" d="M1056,-442C1056,-442 752,-442 752,-442 746,-442 740,-436 740,-430 740,-430 740,-418 740,-418 740,-412 746,-406 752,-406 752,-406 1056,-406 1056,-406 1062,-406 1068,-412 1068,-418 1068,-418 1068,-430 1068,-430 1068,-436 1062,-442 1056,-442"/>
<text text-anchor="middle" x="904" y="-421.8" font-family="Courier,monospace" font-size="9.00">CIccTagMultiLocalizedUnicode::CIccTagMultiLocalizedUnicode()</text>
</g>
<!-- Node0x555a222b09b0&#45;&gt;Node0x555a222b7380 -->
<g id="edge1" class="edge">
<title>Node0x555a222b09b0&#45;&gt;Node0x555a222b7380</title>
<path fill="none" stroke="#4a6fa5" d="M640.45,-465.38C684.77,-458.4 736.56,-450.23 782.38,-443.01"/>
<polygon fill="#4a6fa5" stroke="#4a6fa5" points="782.91,-445.05 788.51,-442.04 782.26,-440.9 782.91,-445.05"/>
</g>
<!-- Node0x555a222b4300 -->
<g id="node3" class="node">
<title>Node0x555a222b4300</title>
<path fill="#f0f4ff" stroke="black" d="M628,-210C628,-210 440,-210 440,-210 434,-210 428,-204 428,-198 428,-198 428,-186 428,-186 428,-180 434,-174 440,-174 440,-174 628,-174 628,-174 634,-174 640,-180 640,-186 640,-186 640,-198 640,-198 640,-204 634,-210 628,-210"/>
<text text-anchor="middle" x="534" y="-189.8" font-family="Courier,monospace" font-size="9.00">CIccProfileIdDesc::CIccProfileIdDesc()</text>
</g>
<!-- Node0x555a222b4300&#45;&gt;Node0x555a222b7380 -->
<g id="edge2" class="edge">
<title>Node0x555a222b4300&#45;&gt;Node0x555a222b7380</title>
<path fill="none" stroke="#4a6fa5" d="M640.21,-198.59C655.51,-203.38 670.09,-210.51 682,-221 743.18,-274.87 678.32,-341.71 740,-395 743.14,-397.71 746.44,-400.21 749.88,-402.51"/>
<polygon fill="#4a6fa5" stroke="#4a6fa5" points="749.2,-404.56 755.4,-405.97 751.43,-401 749.2,-404.56"/>
</g>
<!-- Node0x555a222abf90 -->
<g id="node4" class="node">
<title>Node0x555a222abf90</title>
<path fill="#f0f4ff" stroke="black" d="M956,-268C956,-268 852,-268 852,-268 846,-268 840,-262 840,-256 840,-256 840,-244 840,-244 840,-238 846,-232 852,-232 852,-232 956,-232 956,-232 962,-232 968,-238 968,-244 968,-244 968,-256 968,-256 968,-262 962,-268 956,-268"/>
<text text-anchor="middle" x="904" y="-247.8" font-family="Courier,monospace" font-size="9.00">CIccProfile::FindTag()</text>
</g>
<!-- Node0x555a222b4300&#45;&gt;Node0x555a222abf90 -->
<g id="edge3" class="edge">
<title>Node0x555a222b4300&#45;&gt;Node0x555a222abf90</title>
<path fill="none" stroke="#4a6fa5" d="M640.45,-208.62C702.52,-218.4 779.27,-230.5 833.72,-239.08"/>
<polygon fill="#4a6fa5" stroke="#4a6fa5" points="833.66,-241.2 839.91,-240.06 834.31,-237.05 833.66,-241.2"/>
</g>
<!-- Node0x555a222af140 -->
<g id="node5" class="node">
<title>Node0x555a222af140</title>
<path fill="#f0f4ff" stroke="black" d="M1056,-384C1056,-384 752,-384 752,-384 746,-384 740,-378 740,-372 740,-372 740,-360 740,-360 740,-354 746,-348 752,-348 752,-348 1056,-348 1056,-348 1062,-348 1068,-354 1068,-360 1068,-360 1068,-372 1068,-372 1068,-378 1062,-384 1056,-384"/>
<text text-anchor="middle" x="904" y="-363.8" font-family="Courier,monospace" font-size="9.00">CIccTagMultiLocalizedUnicode::~CIccTagMultiLocalizedUnico...</text>
</g>
<!-- Node0x555a222b4300&#45;&gt;Node0x555a222af140 -->
<g id="edge4" class="edge">
<title>Node0x555a222b4300&#45;&gt;Node0x555a222af140</title>
<path fill="none" stroke="#4a6fa5" d="M640.11,-200.45C655.16,-205.04 669.69,-211.62 682,-221 727.85,-255.93 693.82,-302.5 740,-337 743.89,-339.9 747.97,-342.55 752.2,-344.96"/>
<polygon fill="#4a6fa5" stroke="#4a6fa5" points="751.37,-346.89 757.65,-347.89 753.36,-343.2 751.37,-346.89"/>
</g>
<!-- Node0x555a222aa2f0 -->
<g id="node6" class="node">
<title>Node0x555a222aa2f0</title>
<path fill="#f0f4ff" stroke="black" d="M1056,-326C1056,-326 752,-326 752,-326 746,-326 740,-320 740,-314 740,-314 740,-302 740,-302 740,-296 746,-290 752,-290 752,-290 1056,-290 1056,-290 1062,-290 1068,-296 1068,-302 1068,-302 1068,-314 1068,-314 1068,-320 1062,-326 1056,-326"/>
<text text-anchor="middle" x="904" y="-305.8" font-family="Courier,monospace" font-size="9.00">CIccTagMultiLocalizedUnicode::operator=(CIccTagMultiLocal...</text>
</g>
<!-- Node0x555a222b4300&#45;&gt;Node0x555a222aa2f0 -->
<g id="edge5" class="edge">
<title>Node0x555a222b4300&#45;&gt;Node0x555a222aa2f0</title>
<path fill="none" stroke="#4a6fa5" d="M640.05,-204.78C654.63,-208.81 669.03,-214.08 682,-221 714.16,-238.16 707.68,-262.14 740,-279 746.27,-282.27 752.84,-285.18 759.6,-287.77"/>
<polygon fill="#4a6fa5" stroke="#4a6fa5" points="758.96,-289.77 765.32,-289.87 760.41,-285.83 758.96,-289.77"/>
</g>
<!-- Node0x555a222a8b20 -->
<g id="node7" class="node">
<title>Node0x555a222a8b20</title>
<path fill="#f0f4ff" stroke="black" d="M985,-210C985,-210 823,-210 823,-210 817,-210 811,-204 811,-198 811,-198 811,-186 811,-186 811,-180 817,-174 823,-174 823,-174 985,-174 985,-174 991,-174 997,-180 997,-186 997,-186 997,-198 997,-198 997,-204 991,-210 985,-210"/>
<text text-anchor="middle" x="904" y="-189.8" font-family="Courier,monospace" font-size="9.00">CIccTagTextDescription::GetText()</text>
</g>
<!-- Node0x555a222b4300&#45;&gt;Node0x555a222a8b20 -->
<g id="edge6" class="edge">
<title>Node0x555a222b4300&#45;&gt;Node0x555a222a8b20</title>
<path fill="none" stroke="#4a6fa5" d="M640.45,-192C692.19,-192 754.13,-192 804.85,-192"/>
<polygon fill="#4a6fa5" stroke="#4a6fa5" points="804.98,-194.1 810.98,-192 804.98,-189.9 804.98,-194.1"/>
</g>
<!-- Node0x555a222a8ea0 -->
<g id="node8" class="node">
<title>Node0x555a222a8ea0</title>
<path fill="#f0f4ff" stroke="black" d="M1000.5,-152C1000.5,-152 807.5,-152 807.5,-152 801.5,-152 795.5,-146 795.5,-140 795.5,-140 795.5,-128 795.5,-128 795.5,-122 801.5,-116 807.5,-116 807.5,-116 1000.5,-116 1000.5,-116 1006.5,-116 1012.5,-122 1012.5,-128 1012.5,-128 1012.5,-140 1012.5,-140 1012.5,-146 1006.5,-152 1000.5,-152"/>
<text text-anchor="middle" x="904" y="-131.8" font-family="Courier,monospace" font-size="9.00">CIccTagMultiLocalizedUnicode::SetText()</text>
</g>
<!-- Node0x555a222b4300&#45;&gt;Node0x555a222a8ea0 -->
<g id="edge7" class="edge">
<title>Node0x555a222b4300&#45;&gt;Node0x555a222a8ea0</title>
<path fill="none" stroke="#4a6fa5" d="M640.45,-175.38C686.99,-168.04 741.79,-159.41 789.25,-151.93"/>
<polygon fill="#4a6fa5" stroke="#4a6fa5" points="789.69,-153.98 795.29,-150.98 789.04,-149.84 789.69,-153.98"/>
</g>
<!-- Node0x555a222a6c20 -->
<g id="node9" class="node">
<title>Node0x555a222a6c20</title>
<path fill="#f0f4ff" stroke="black" d="M956,-94C956,-94 852,-94 852,-94 846,-94 840,-88 840,-82 840,-82 840,-70 840,-70 840,-64 846,-58 852,-58 852,-58 956,-58 956,-58 962,-58 968,-64 968,-70 968,-70 968,-82 968,-82 968,-88 962,-94 956,-94"/>
<text text-anchor="middle" x="904" y="-73.8" font-family="Courier,monospace" font-size="9.00">CIccTagText::GetText()</text>
</g>
<!-- Node0x555a222b4300&#45;&gt;Node0x555a222a6c20 -->
<g id="edge8" class="edge">
<title>Node0x555a222b4300&#45;&gt;Node0x555a222a6c20</title>
<path fill="none" stroke="#4a6fa5" d="M570.75,-173.9C610.95,-154.24 678.66,-123.22 740,-105 770.23,-96.02 804.48,-89.41 833.75,-84.79"/>
<polygon fill="#4a6fa5" stroke="#4a6fa5" points="834.32,-86.83 839.92,-83.84 833.67,-82.68 834.32,-86.83"/>
</g>
<!-- Node0x555a22174e40 -->
<g id="node10" class="node">
<title>Node0x555a22174e40</title>
<path fill="#f0f4ff" stroke="black" d="M628,-442C628,-442 440,-442 440,-442 434,-442 428,-436 428,-430 428,-430 428,-418 428,-418 428,-412 434,-406 440,-406 440,-406 628,-406 628,-406 634,-406 640,-412 640,-418 640,-418 640,-430 640,-430 640,-436 634,-442 628,-442"/>
<text text-anchor="middle" x="534" y="-421.8" font-family="Courier,monospace" font-size="9.00">CIccProfileIdDesc::CIccProfileIdDesc()</text>
</g>
<!-- Node0x555a22174e40&#45;&gt;Node0x555a222b7380 -->
<g id="edge9" class="edge">
<title>Node0x555a22174e40&#45;&gt;Node0x555a222b7380</title>
<path fill="none" stroke="#4a6fa5" d="M640.45,-424C669.52,-424 701.82,-424 733.53,-424"/>
<polygon fill="#4a6fa5" stroke="#4a6fa5" points="733.86,-426.1 739.86,-424 733.86,-421.9 733.86,-426.1"/>
</g>
<!-- Node0x555a22174e40&#45;&gt;Node0x555a222af140 -->
<g id="edge11" class="edge">
<title>Node0x555a22174e40&#45;&gt;Node0x555a222af140</title>
<path fill="none" stroke="#4a6fa5" d="M640.45,-407.38C684.77,-400.4 736.56,-392.23 782.38,-385.01"/>
<polygon fill="#4a6fa5" stroke="#4a6fa5" points="782.91,-387.05 788.51,-384.04 782.26,-382.9 782.91,-387.05"/>
</g>
<!-- Node0x555a22174e40&#45;&gt;Node0x555a222aa2f0 -->
<g id="edge10" class="edge">
<title>Node0x555a22174e40&#45;&gt;Node0x555a222aa2f0</title>
<path fill="none" stroke="#4a6fa5" d="M640.05,-411.22C654.63,-407.19 669.03,-401.92 682,-395 714.16,-377.84 707.68,-353.86 740,-337 746.27,-333.73 752.84,-330.82 759.6,-328.23"/>
<polygon fill="#4a6fa5" stroke="#4a6fa5" points="760.41,-330.17 765.32,-326.13 758.96,-326.23 760.41,-330.17"/>
</g>
<!-- Node0x555a22159910 -->
<g id="node11" class="node">
<title>Node0x555a22159910</title>
<path fill="#f0f4ff" stroke="black" d="M628,-384C628,-384 440,-384 440,-384 434,-384 428,-378 428,-372 428,-372 428,-360 428,-360 428,-354 434,-348 440,-348 440,-348 628,-348 628,-348 634,-348 640,-354 640,-360 640,-360 640,-372 640,-372 640,-378 634,-384 628,-384"/>
<text text-anchor="middle" x="534" y="-363.8" font-family="Courier,monospace" font-size="9.00">CIccProfileIdDesc::CIccProfileIdDesc()</text>
</g>
<!-- Node0x555a22159910&#45;&gt;Node0x555a222b7380 -->
<g id="edge12" class="edge">
<title>Node0x555a22159910&#45;&gt;Node0x555a222b7380</title>
<path fill="none" stroke="#4a6fa5" d="M640.45,-382.62C684.77,-389.6 736.56,-397.77 782.38,-404.99"/>
<polygon fill="#4a6fa5" stroke="#4a6fa5" points="782.26,-407.1 788.51,-405.96 782.91,-402.95 782.26,-407.1"/>
</g>
<!-- Node0x555a22159910&#45;&gt;Node0x555a222af140 -->
<g id="edge14" class="edge">
<title>Node0x555a22159910&#45;&gt;Node0x555a222af140</title>
<path fill="none" stroke="#4a6fa5" d="M640.45,-366C669.52,-366 701.82,-366 733.53,-366"/>
<polygon fill="#4a6fa5" stroke="#4a6fa5" points="733.86,-368.1 739.86,-366 733.86,-363.9 733.86,-368.1"/>
</g>
<!-- Node0x555a22159910&#45;&gt;Node0x555a222aa2f0 -->
<g id="edge13" class="edge">
<title>Node0x555a22159910&#45;&gt;Node0x555a222aa2f0</title>
<path fill="none" stroke="#4a6fa5" d="M640.45,-349.38C684.77,-342.4 736.56,-334.23 782.38,-327.01"/>
<polygon fill="#4a6fa5" stroke="#4a6fa5" points="782.91,-329.05 788.51,-326.04 782.26,-324.9 782.91,-329.05"/>
</g>
<!-- Node0x555a22154c90 -->
<g id="node12" class="node">
<title>Node0x555a22154c90</title>
<path fill="#f0f4ff" stroke="black" d="M670,-268C670,-268 398,-268 398,-268 392,-268 386,-262 386,-256 386,-256 386,-244 386,-244 386,-238 392,-232 398,-232 398,-232 670,-232 670,-232 676,-232 682,-238 682,-244 682,-244 682,-256 682,-256 682,-262 676,-268 670,-268"/>
<text text-anchor="middle" x="534" y="-247.8" font-family="Courier,monospace" font-size="9.00">CIccProfileIdDesc::operator=(CIccProfileIdDesc const&amp;)</text>
</g>
<!-- Node0x555a22154c90&#45;&gt;Node0x555a222aa2f0 -->
<g id="edge15" class="edge">
<title>Node0x555a22154c90&#45;&gt;Node0x555a222aa2f0</title>
<path fill="none" stroke="#4a6fa5" d="M649.42,-268.03C691.74,-274.7 739.81,-282.28 782.64,-289.03"/>
<polygon fill="#4a6fa5" stroke="#4a6fa5" points="782.4,-291.12 788.65,-289.98 783.05,-286.97 782.4,-291.12"/>
</g>
<!-- Node0x555a221b5410 -->
<g id="node13" class="node">
<title>Node0x555a221b5410</title>
<path fill="#f0f4ff" stroke="black" d="M604.5,-558C604.5,-558 463.5,-558 463.5,-558 457.5,-558 451.5,-552 451.5,-546 451.5,-546 451.5,-534 451.5,-534 451.5,-528 457.5,-522 463.5,-522 463.5,-522 604.5,-522 604.5,-522 610.5,-522 616.5,-528 616.5,-534 616.5,-534 616.5,-546 616.5,-546 616.5,-552 610.5,-558 604.5,-558"/>
<text text-anchor="middle" x="534" y="-537.8" font-family="Courier,monospace" font-size="9.00">CIccProfileIdDesc::Describe()</text>
</g>
<!-- Node0x555a222aa010 -->
<g id="node14" class="node">
<title>Node0x555a222aa010</title>
<path fill="#f0f4ff" stroke="black" d="M1003.5,-558C1003.5,-558 804.5,-558 804.5,-558 798.5,-558 792.5,-552 792.5,-546 792.5,-546 792.5,-534 792.5,-534 792.5,-528 798.5,-522 804.5,-522 804.5,-522 1003.5,-522 1003.5,-522 1009.5,-522 1015.5,-528 1015.5,-534 1015.5,-534 1015.5,-546 1015.5,-546 1015.5,-552 1009.5,-558 1003.5,-558"/>
<text text-anchor="middle" x="904" y="-537.8" font-family="Courier,monospace" font-size="9.00">CIccTagMultiLocalizedUnicode::Describe()</text>
</g>
<!-- Node0x555a221b5410&#45;&gt;Node0x555a222aa010 -->
<g id="edge16" class="edge">
<title>Node0x555a221b5410&#45;&gt;Node0x555a222aa010</title>
<path fill="none" stroke="#4a6fa5" d="M616.67,-540C666.42,-540 730.8,-540 785.92,-540"/>
<polygon fill="#4a6fa5" stroke="#4a6fa5" points="786.24,-542.1 792.24,-540 786.24,-537.9 786.24,-542.1"/>
</g>
<!-- Node0x555a222948c0 -->
<g id="node15" class="node">
<title>Node0x555a222948c0</title>
<path fill="#f0f4ff" stroke="black" d="M594,-94C594,-94 474,-94 474,-94 468,-94 462,-88 462,-82 462,-82 462,-70 462,-70 462,-64 468,-58 474,-58 474,-58 594,-58 594,-58 600,-58 606,-64 606,-70 606,-70 606,-82 606,-82 606,-88 600,-94 594,-94"/>
<text text-anchor="middle" x="534" y="-73.8" font-family="Courier,monospace" font-size="9.00">CIccProfileIdDesc::Read()</text>
</g>
<!-- Node0x555a222894d0 -->
<g id="node16" class="node">
<title>Node0x555a222894d0</title>
<path fill="#f0f4ff" stroke="black" d="M993,-36C993,-36 815,-36 815,-36 809,-36 803,-30 803,-24 803,-24 803,-12 803,-12 803,-6 809,0 815,0 815,0 993,0 993,0 999,0 1005,-6 1005,-12 1005,-12 1005,-24 1005,-24 1005,-30 999,-36 993,-36"/>
<text text-anchor="middle" x="904" y="-15.8" font-family="Courier,monospace" font-size="9.00">CIccTagMultiLocalizedUnicode::Read()</text>
</g>
<!-- Node0x555a222948c0&#45;&gt;Node0x555a222894d0 -->
<g id="edge17" class="edge">
<title>Node0x555a222948c0&#45;&gt;Node0x555a222894d0</title>
<path fill="none" stroke="#4a6fa5" d="M606.39,-64.75C660.45,-56.23 735.57,-44.39 796.69,-34.76"/>
<polygon fill="#4a6fa5" stroke="#4a6fa5" points="797.33,-36.78 802.93,-33.77 796.68,-32.63 797.33,-36.78"/>
</g>
<!-- Node0x555a22255b70 -->
<g id="node17" class="node">
<title>Node0x555a22255b70</title>
<path fill="#f0f4ff" stroke="black" d="M596.5,-732C596.5,-732 471.5,-732 471.5,-732 465.5,-732 459.5,-726 459.5,-720 459.5,-720 459.5,-708 459.5,-708 459.5,-702 465.5,-696 471.5,-696 471.5,-696 596.5,-696 596.5,-696 602.5,-696 608.5,-702 608.5,-708 608.5,-708 608.5,-720 608.5,-720 608.5,-726 602.5,-732 596.5,-732"/>
<text text-anchor="middle" x="534" y="-711.8" font-family="Courier,monospace" font-size="9.00">CIccProfileIdDesc::Write()</text>
</g>
<!-- Node0x555a22111e80 -->
<g id="node18" class="node">
<title>Node0x555a22111e80</title>
<path fill="#f0f4ff" stroke="black" d="M995.5,-732C995.5,-732 812.5,-732 812.5,-732 806.5,-732 800.5,-726 800.5,-720 800.5,-720 800.5,-708 800.5,-708 800.5,-702 806.5,-696 812.5,-696 812.5,-696 995.5,-696 995.5,-696 1001.5,-696 1007.5,-702 1007.5,-708 1007.5,-708 1007.5,-720 1007.5,-720 1007.5,-726 1001.5,-732 995.5,-732"/>
<text text-anchor="middle" x="904" y="-711.8" font-family="Courier,monospace" font-size="9.00">CIccTagMultiLocalizedUnicode::Write()</text>
</g>
<!-- Node0x555a22255b70&#45;&gt;Node0x555a22111e80 -->
<g id="edge18" class="edge">
<title>Node0x555a22255b70&#45;&gt;Node0x555a22111e80</title>
<path fill="none" stroke="#4a6fa5" d="M608.59,-714C661.72,-714 734.34,-714 794.16,-714"/>
<polygon fill="#4a6fa5" stroke="#4a6fa5" points="794.27,-716.1 800.27,-714 794.27,-711.9 794.27,-716.1"/>
</g>
<!-- Node0x555a22111550 -->
<g id="node19" class="node">
<title>Node0x555a22111550</title>
<path fill="#f0f4ff" stroke="black" d="M604.5,-1138C604.5,-1138 463.5,-1138 463.5,-1138 457.5,-1138 451.5,-1132 451.5,-1126 451.5,-1126 451.5,-1114 451.5,-1114 451.5,-1108 457.5,-1102 463.5,-1102 463.5,-1102 604.5,-1102 604.5,-1102 610.5,-1102 616.5,-1108 616.5,-1114 616.5,-1114 616.5,-1126 616.5,-1126 616.5,-1132 610.5,-1138 604.5,-1138"/>
<text text-anchor="middle" x="534" y="-1117.8" font-family="Courier,monospace" font-size="9.00">CIccProfileIdDesc::Validate()</text>
</g>
<!-- Node0x555a22112a40 -->
<g id="node20" class="node">
<title>Node0x555a22112a40</title>
<path fill="#f0f4ff" stroke="black" d="M1003.5,-1138C1003.5,-1138 804.5,-1138 804.5,-1138 798.5,-1138 792.5,-1132 792.5,-1126 792.5,-1126 792.5,-1114 792.5,-1114 792.5,-1108 798.5,-1102 804.5,-1102 804.5,-1102 1003.5,-1102 1003.5,-1102 1009.5,-1102 1015.5,-1108 1015.5,-1114 1015.5,-1114 1015.5,-1126 1015.5,-1126 1015.5,-1132 1009.5,-1138 1003.5,-1138"/>
<text text-anchor="middle" x="904" y="-1117.8" font-family="Courier,monospace" font-size="9.00">CIccTagMultiLocalizedUnicode::Validate()</text>
</g>
<!-- Node0x555a22111550&#45;&gt;Node0x555a22112a40 -->
<g id="edge19" class="edge">
<title>Node0x555a22111550&#45;&gt;Node0x555a22112a40</title>
<path fill="none" stroke="#4a6fa5" d="M616.67,-1120C666.42,-1120 730.8,-1120 785.92,-1120"/>
<polygon fill="#4a6fa5" stroke="#4a6fa5" points="786.24,-1122.1 792.24,-1120 786.24,-1117.9 786.24,-1122.1"/>
</g>
<!-- Node0x555a22112d20 -->
<g id="node21" class="node">
<title>Node0x555a22112d20</title>
<path fill="#f0f4ff" stroke="black" d="M295,-1196C295,-1196 33,-1196 33,-1196 27,-1196 21,-1190 21,-1184 21,-1184 21,-1172 21,-1172 21,-1166 27,-1160 33,-1160 33,-1160 295,-1160 295,-1160 301,-1160 307,-1166 307,-1172 307,-1172 307,-1184 307,-1184 307,-1190 301,-1196 295,-1196"/>
<text text-anchor="middle" x="164" y="-1175.8" font-family="Courier,monospace" font-size="9.00">CIccTagProfileSequenceId::CIccTagProfileSequenceId()</text>
</g>
<!-- Node0x555a22118210 -->
<g id="node22" class="node">
<title>Node0x555a22118210</title>
<path fill="#f0f4ff" stroke="black" d="M575.5,-1254C575.5,-1254 492.5,-1254 492.5,-1254 486.5,-1254 480.5,-1248 480.5,-1242 480.5,-1242 480.5,-1230 480.5,-1230 480.5,-1224 486.5,-1218 492.5,-1218 492.5,-1218 575.5,-1218 575.5,-1218 581.5,-1218 587.5,-1224 587.5,-1230 587.5,-1230 587.5,-1242 587.5,-1242 587.5,-1248 581.5,-1254 575.5,-1254"/>
<text text-anchor="middle" x="534" y="-1233.8" font-family="Courier,monospace" font-size="9.00">CIccTag::CIccTag()</text>
</g>
<!-- Node0x555a22112d20&#45;&gt;Node0x555a22118210 -->
<g id="edge20" class="edge">
<title>Node0x555a22112d20&#45;&gt;Node0x555a22118210</title>
<path fill="none" stroke="#4a6fa5" d="M279.42,-1196.03C344.03,-1206.22 422.05,-1218.51 474.34,-1226.75"/>
<polygon fill="#4a6fa5" stroke="#4a6fa5" points="474.01,-1228.83 480.27,-1227.69 474.67,-1224.68 474.01,-1228.83"/>
</g>
<!-- Node0x555a222c81a0 -->
<g id="node23" class="node">
<title>Node0x555a222c81a0</title>
<path fill="#f0f4ff" stroke="black" d="M578,-1196C578,-1196 490,-1196 490,-1196 484,-1196 478,-1190 478,-1184 478,-1184 478,-1172 478,-1172 478,-1166 484,-1160 490,-1160 490,-1160 578,-1160 578,-1160 584,-1160 590,-1166 590,-1172 590,-1172 590,-1184 590,-1184 590,-1190 584,-1196 578,-1196"/>
<text text-anchor="middle" x="534" y="-1175.8" font-family="Courier,monospace" font-size="9.00">CIccTag::~CIccTag()</text>
</g>
<!-- Node0x555a22112d20&#45;&gt;Node0x555a222c81a0 -->
<g id="edge21" class="edge">
<title>Node0x555a22112d20&#45;&gt;Node0x555a222c81a0</title>
<path fill="none" stroke="#4a6fa5" d="M307.02,-1178C364.03,-1178 426.73,-1178 471.59,-1178"/>
<polygon fill="#4a6fa5" stroke="#4a6fa5" points="471.8,-1180.1 477.8,-1178 471.8,-1175.9 471.8,-1180.1"/>
</g>
<!-- Node0x555a2211aa70 -->
<g id="node24" class="node">
<title>Node0x555a2211aa70</title>
<path fill="#f0f4ff" stroke="black" d="M295,-1254C295,-1254 33,-1254 33,-1254 27,-1254 21,-1248 21,-1242 21,-1242 21,-1230 21,-1230 21,-1224 27,-1218 33,-1218 33,-1218 295,-1218 295,-1218 301,-1218 307,-1224 307,-1230 307,-1230 307,-1242 307,-1242 307,-1248 301,-1254 295,-1254"/>
<text text-anchor="middle" x="164" y="-1233.8" font-family="Courier,monospace" font-size="9.00">CIccTagProfileSequenceId::CIccTagProfileSequenceId()</text>
</g>
<!-- Node0x555a2211aa70&#45;&gt;Node0x555a22118210 -->
<g id="edge22" class="edge">
<title>Node0x555a2211aa70&#45;&gt;Node0x555a22118210</title>
<path fill="none" stroke="#4a6fa5" d="M307.02,-1236C365,-1236 428.86,-1236 473.86,-1236"/>
<polygon fill="#4a6fa5" stroke="#4a6fa5" points="474.08,-1238.1 480.08,-1236 474.08,-1233.9 474.08,-1238.1"/>
</g>
<!-- Node0x555a2211aa70&#45;&gt;Node0x555a222c81a0 -->
<g id="edge23" class="edge">
<title>Node0x555a2211aa70&#45;&gt;Node0x555a222c81a0</title>
<path fill="none" stroke="#4a6fa5" d="M279.42,-1217.97C343.01,-1207.94 419.6,-1195.87 471.85,-1187.64"/>
<polygon fill="#4a6fa5" stroke="#4a6fa5" points="472.19,-1189.71 477.79,-1186.7 471.53,-1185.56 472.19,-1189.71"/>
</g>
<!-- Node0x555a222cb4e0 -->
<g id="node25" class="node">
<title>Node0x555a222cb4e0</title>
<path fill="#f0f4ff" stroke="black" d="M316,-1312C316,-1312 12,-1312 12,-1312 6,-1312 0,-1306 0,-1300 0,-1300 0,-1288 0,-1288 0,-1282 6,-1276 12,-1276 12,-1276 316,-1276 316,-1276 322,-1276 328,-1282 328,-1288 328,-1288 328,-1300 328,-1300 328,-1306 322,-1312 316,-1312"/>
<text text-anchor="middle" x="164" y="-1291.8" font-family="Courier,monospace" font-size="9.00">CIccTagProfileSequenceId::operator=(CIccTagProfileSequenc...</text>
</g>
<!-- Node0x555a222cadd0 -->
<g id="node26" class="node">
<title>Node0x555a222cadd0</title>
<path fill="#f0f4ff" stroke="black" d="M297.5,-1138C297.5,-1138 30.5,-1138 30.5,-1138 24.5,-1138 18.5,-1132 18.5,-1126 18.5,-1126 18.5,-1114 18.5,-1114 18.5,-1108 24.5,-1102 30.5,-1102 30.5,-1102 297.5,-1102 297.5,-1102 303.5,-1102 309.5,-1108 309.5,-1114 309.5,-1114 309.5,-1126 309.5,-1126 309.5,-1132 303.5,-1138 297.5,-1138"/>
<text text-anchor="middle" x="164" y="-1117.8" font-family="Courier,monospace" font-size="9.00">CIccTagProfileSequenceId::~CIccTagProfileSequenceId()</text>
</g>
<!-- Node0x555a222cadd0&#45;&gt;Node0x555a222c81a0 -->
<g id="edge24" class="edge">
<title>Node0x555a222cadd0&#45;&gt;Node0x555a222c81a0</title>
<path fill="none" stroke="#4a6fa5" d="M279.42,-1138.03C343.01,-1148.06 419.6,-1160.13 471.85,-1168.36"/>
<polygon fill="#4a6fa5" stroke="#4a6fa5" points="471.53,-1170.44 477.79,-1169.3 472.19,-1166.29 471.53,-1170.44"/>
</g>
<!-- Node0x555a222cc7f0 -->
<g id="node27" class="node">
<title>Node0x555a222cc7f0</title>
<path fill="#f0f4ff" stroke="black" d="M297.5,-1370C297.5,-1370 30.5,-1370 30.5,-1370 24.5,-1370 18.5,-1364 18.5,-1358 18.5,-1358 18.5,-1346 18.5,-1346 18.5,-1340 24.5,-1334 30.5,-1334 30.5,-1334 297.5,-1334 297.5,-1334 303.5,-1334 309.5,-1340 309.5,-1346 309.5,-1346 309.5,-1358 309.5,-1358 309.5,-1364 303.5,-1370 297.5,-1370"/>
<text text-anchor="middle" x="164" y="-1349.8" font-family="Courier,monospace" font-size="9.00">CIccTagProfileSequenceId::~CIccTagProfileSequenceId()</text>
</g>
<!-- Node0x555a222cc6b0 -->
<g id="node28" class="node">
<title>Node0x555a222cc6b0</title>
<path fill="#f0f4ff" stroke="black" d="M253,-1428C253,-1428 75,-1428 75,-1428 69,-1428 63,-1422 63,-1416 63,-1416 63,-1404 63,-1404 63,-1398 69,-1392 75,-1392 75,-1392 253,-1392 253,-1392 259,-1392 265,-1398 265,-1404 265,-1404 265,-1416 265,-1416 265,-1422 259,-1428 253,-1428"/>
<text text-anchor="middle" x="164" y="-1407.8" font-family="Courier,monospace" font-size="9.00">CIccTagProfileSequenceId::ParseMem()</text>
</g>
<!-- Node0x555a222cc320 -->
<g id="node29" class="node">
<title>Node0x555a222cc320</title>
<path fill="#f0f4ff" stroke="black" d="M586,-1486C586,-1486 482,-1486 482,-1486 476,-1486 470,-1480 470,-1474 470,-1474 470,-1462 470,-1462 470,-1456 476,-1450 482,-1450 482,-1450 586,-1450 586,-1450 592,-1450 598,-1456 598,-1462 598,-1462 598,-1474 598,-1474 598,-1480 592,-1486 586,-1486"/>
<text text-anchor="middle" x="534" y="-1465.8" font-family="Courier,monospace" font-size="9.00">CIccMemIO::CIccMemIO()</text>
</g>
<!-- Node0x555a222cc6b0&#45;&gt;Node0x555a222cc320 -->
<g id="edge25" class="edge">
<title>Node0x555a222cc6b0&#45;&gt;Node0x555a222cc320</title>
<path fill="none" stroke="#4a6fa5" d="M265.07,-1425.77C328.12,-1435.71 407.89,-1448.28 463.93,-1457.11"/>
<polygon fill="#4a6fa5" stroke="#4a6fa5" points="463.71,-1459.21 469.96,-1458.06 464.36,-1455.06 463.71,-1459.21"/>
</g>
<!-- Node0x555a222cf710 -->
<g id="node30" class="node">
<title>Node0x555a222cf710</title>
<path fill="#f0f4ff" stroke="black" d="M578,-1428C578,-1428 490,-1428 490,-1428 484,-1428 478,-1422 478,-1416 478,-1416 478,-1404 478,-1404 478,-1398 484,-1392 490,-1392 490,-1392 578,-1392 578,-1392 584,-1392 590,-1398 590,-1404 590,-1404 590,-1416 590,-1416 590,-1422 584,-1428 578,-1428"/>
<text text-anchor="middle" x="534" y="-1407.8" font-family="Courier,monospace" font-size="9.00">CIccMemIO::Attach()</text>
</g>
<!-- Node0x555a222cc6b0&#45;&gt;Node0x555a222cf710 -->
<g id="edge26" class="edge">
<title>Node0x555a222cc6b0&#45;&gt;Node0x555a222cf710</title>
<path fill="none" stroke="#4a6fa5" d="M265.07,-1410C331.09,-1410 415.46,-1410 471.71,-1410"/>
<polygon fill="#4a6fa5" stroke="#4a6fa5" points="471.75,-1412.1 477.75,-1410 471.75,-1407.9 471.75,-1412.1"/>
</g>
<!-- Node0x555a222d0610 -->
<g id="node31" class="node">
<title>Node0x555a222d0610</title>
<path fill="#f0f4ff" stroke="black" d="M588.5,-1370C588.5,-1370 479.5,-1370 479.5,-1370 473.5,-1370 467.5,-1364 467.5,-1358 467.5,-1358 467.5,-1346 467.5,-1346 467.5,-1340 473.5,-1334 479.5,-1334 479.5,-1334 588.5,-1334 588.5,-1334 594.5,-1334 600.5,-1340 600.5,-1346 600.5,-1346 600.5,-1358 600.5,-1358 600.5,-1364 594.5,-1370 588.5,-1370"/>
<text text-anchor="middle" x="534" y="-1349.8" font-family="Courier,monospace" font-size="9.00">CIccMemIO::~CIccMemIO()</text>
</g>
<!-- Node0x555a222cc6b0&#45;&gt;Node0x555a222d0610 -->
<g id="edge27" class="edge">
<title>Node0x555a222cc6b0&#45;&gt;Node0x555a222d0610</title>
<path fill="none" stroke="#4a6fa5" d="M265.07,-1394.23C327.19,-1384.44 405.55,-1372.09 461.45,-1363.28"/>
<polygon fill="#4a6fa5" stroke="#4a6fa5" points="461.87,-1365.34 467.47,-1362.33 461.22,-1361.19 461.87,-1365.34"/>
</g>
<!-- Node0x555a222cffd0 -->
<g id="node32" class="node">
<title>Node0x555a222cffd0</title>
<path fill="#f0f4ff" stroke="black" d="M253,-558C253,-558 75,-558 75,-558 69,-558 63,-552 63,-546 63,-546 63,-534 63,-534 63,-528 69,-522 75,-522 75,-522 253,-522 253,-522 259,-522 265,-528 265,-534 265,-534 265,-546 265,-546 265,-552 259,-558 253,-558"/>
<text text-anchor="middle" x="164" y="-537.8" font-family="Courier,monospace" font-size="9.00">CIccTagProfileSequenceId::Describe()</text>
</g>
<!-- Node0x555a222cffd0&#45;&gt;Node0x555a221b5410 -->
<g id="edge28" class="edge">
<title>Node0x555a222cffd0&#45;&gt;Node0x555a221b5410</title>
<path fill="none" stroke="#4a6fa5" d="M265.07,-540C321.33,-540 390.9,-540 445.05,-540"/>
<polygon fill="#4a6fa5" stroke="#4a6fa5" points="445.25,-542.1 451.25,-540 445.25,-537.9 445.25,-542.1"/>
</g>
<!-- Node0x555a222d2ad0 -->
<g id="node33" class="node">
<title>Node0x555a222d2ad0</title>
<path fill="#f0f4ff" stroke="black" d="M242.5,-94C242.5,-94 85.5,-94 85.5,-94 79.5,-94 73.5,-88 73.5,-82 73.5,-82 73.5,-70 73.5,-70 73.5,-64 79.5,-58 85.5,-58 85.5,-58 242.5,-58 242.5,-58 248.5,-58 254.5,-64 254.5,-70 254.5,-70 254.5,-82 254.5,-82 254.5,-88 248.5,-94 242.5,-94"/>
<text text-anchor="middle" x="164" y="-73.8" font-family="Courier,monospace" font-size="9.00">CIccTagProfileSequenceId::Read()</text>
</g>
<!-- Node0x555a222d2ad0&#45;&gt;Node0x555a222948c0 -->
<g id="edge31" class="edge">
<title>Node0x555a222d2ad0&#45;&gt;Node0x555a222948c0</title>
<path fill="none" stroke="#4a6fa5" d="M254.55,-76C316.03,-76 396.81,-76 455.52,-76"/>
<polygon fill="#4a6fa5" stroke="#4a6fa5" points="455.85,-78.1 461.85,-76 455.85,-73.9 455.85,-78.1"/>
</g>
<!-- Node0x555a222d2710 -->
<g id="node34" class="node">
<title>Node0x555a222d2710</title>
<path fill="#f0f4ff" stroke="black" d="M570.5,-36C570.5,-36 497.5,-36 497.5,-36 491.5,-36 485.5,-30 485.5,-24 485.5,-24 485.5,-12 485.5,-12 485.5,-6 491.5,0 497.5,0 497.5,0 570.5,0 570.5,0 576.5,0 582.5,-6 582.5,-12 582.5,-12 582.5,-24 582.5,-24 582.5,-30 576.5,-36 570.5,-36"/>
<text text-anchor="middle" x="534" y="-15.8" font-family="Courier,monospace" font-size="9.00">CIccIO::Read32()</text>
</g>
<!-- Node0x555a222d2ad0&#45;&gt;Node0x555a222d2710 -->
<g id="edge29" class="edge">
<title>Node0x555a222d2ad0&#45;&gt;Node0x555a222d2710</title>
<path fill="none" stroke="#4a6fa5" d="M254.55,-61.89C324.9,-50.8 420.51,-35.73 479.42,-26.44"/>
<polygon fill="#4a6fa5" stroke="#4a6fa5" points="479.76,-28.52 485.36,-25.51 479.1,-24.37 479.76,-28.52"/>
</g>
<!-- Node0x555a222d4290 -->
<g id="node35" class="node">
<title>Node0x555a222d4290</title>
<path fill="#f0f4ff" stroke="black" d="M630.5,-326C630.5,-326 437.5,-326 437.5,-326 431.5,-326 425.5,-320 425.5,-314 425.5,-314 425.5,-302 425.5,-302 425.5,-296 431.5,-290 437.5,-290 437.5,-290 630.5,-290 630.5,-290 636.5,-290 642.5,-296 642.5,-302 642.5,-302 642.5,-314 642.5,-314 642.5,-320 636.5,-326 630.5,-326"/>
<text text-anchor="middle" x="534" y="-305.8" font-family="Courier,monospace" font-size="9.00">CIccProfileIdDesc::~CIccProfileIdDesc()</text>
</g>
<!-- Node0x555a222d2ad0&#45;&gt;Node0x555a222d4290 -->
<g id="edge30" class="edge">
<title>Node0x555a222d2ad0&#45;&gt;Node0x555a222d4290</title>
<path fill="none" stroke="#4a6fa5" d="M178.76,-94.13C210.45,-134.5 293.05,-231.92 386,-279 396.57,-284.35 408.03,-288.72 419.73,-292.28"/>
<polygon fill="#4a6fa5" stroke="#4a6fa5" points="419.15,-294.3 425.49,-293.97 420.32,-290.27 419.15,-294.3"/>
</g>
<!-- Node0x555a222d4290&#45;&gt;Node0x555a222af140 -->
<g id="edge32" class="edge">
<title>Node0x555a222d4290&#45;&gt;Node0x555a222af140</title>
<path fill="none" stroke="#4a6fa5" d="M642.93,-325.01C686.77,-331.92 737.6,-339.93 782.64,-347.03"/>
<polygon fill="#4a6fa5" stroke="#4a6fa5" points="782.41,-349.12 788.67,-347.98 783.07,-344.97 782.41,-349.12"/>
</g>
<!-- Node0x555a222d0bf0 -->
<g id="node36" class="node">
<title>Node0x555a222d0bf0</title>
<path fill="#f0f4ff" stroke="black" d="M245,-674C245,-674 83,-674 83,-674 77,-674 71,-668 71,-662 71,-662 71,-650 71,-650 71,-644 77,-638 83,-638 83,-638 245,-638 245,-638 251,-638 257,-644 257,-650 257,-650 257,-662 257,-662 257,-668 251,-674 245,-674"/>
<text text-anchor="middle" x="164" y="-653.8" font-family="Courier,monospace" font-size="9.00">CIccTagProfileSequenceId::Write()</text>
</g>
<!-- Node0x555a222d0bf0&#45;&gt;Node0x555a22255b70 -->
<g id="edge35" class="edge">
<title>Node0x555a222d0bf0&#45;&gt;Node0x555a22255b70</title>
<path fill="none" stroke="#4a6fa5" d="M257.39,-670.56C317.68,-680.06 395.59,-692.34 453.19,-701.42"/>
<polygon fill="#4a6fa5" stroke="#4a6fa5" points="453.14,-703.54 459.4,-702.4 453.8,-699.39 453.14,-703.54"/>
</g>
<!-- Node0x555a222ce3d0 -->
<g id="node37" class="node">
<title>Node0x555a222ce3d0</title>
<path fill="#f0f4ff" stroke="black" d="M573,-674C573,-674 495,-674 495,-674 489,-674 483,-668 483,-662 483,-662 483,-650 483,-650 483,-644 489,-638 495,-638 495,-638 573,-638 573,-638 579,-638 585,-644 585,-650 585,-650 585,-662 585,-662 585,-668 579,-674 573,-674"/>
<text text-anchor="middle" x="534" y="-653.8" font-family="Courier,monospace" font-size="9.00">CIccIO::Write32()</text>
</g>
<!-- Node0x555a222d0bf0&#45;&gt;Node0x555a222ce3d0 -->
<g id="edge33" class="edge">
<title>Node0x555a222d0bf0&#45;&gt;Node0x555a222ce3d0</title>
<path fill="none" stroke="#4a6fa5" d="M257.39,-656C326.31,-656 418.25,-656 476.55,-656"/>
<polygon fill="#4a6fa5" stroke="#4a6fa5" points="476.79,-658.1 482.79,-656 476.79,-653.9 476.79,-658.1"/>
</g>
<!-- Node0x555a222ce8d0 -->
<g id="node38" class="node">
<title>Node0x555a222ce8d0</title>
<path fill="#f0f4ff" stroke="black" d="M573,-616C573,-616 495,-616 495,-616 489,-616 483,-610 483,-604 483,-604 483,-592 483,-592 483,-586 489,-580 495,-580 495,-580 573,-580 573,-580 579,-580 585,-586 585,-592 585,-592 585,-604 585,-604 585,-610 579,-616 573,-616"/>
<text text-anchor="middle" x="534" y="-595.8" font-family="Courier,monospace" font-size="9.00">CIccIO::Align32()</text>
</g>
<!-- Node0x555a222d0bf0&#45;&gt;Node0x555a222ce8d0 -->
<g id="edge34" class="edge">
<title>Node0x555a222d0bf0&#45;&gt;Node0x555a222ce8d0</title>
<path fill="none" stroke="#4a6fa5" d="M257.39,-641.44C326.31,-630.58 418.25,-616.09 476.55,-606.9"/>
<polygon fill="#4a6fa5" stroke="#4a6fa5" points="477.19,-608.92 482.79,-605.91 476.53,-604.77 477.19,-608.92"/>
</g>
<!-- Node0x555a222cd530 -->
<g id="node39" class="node">
<title>Node0x555a222cd530</title>
<path fill="#f0f4ff" stroke="black" d="M253,-964C253,-964 75,-964 75,-964 69,-964 63,-958 63,-952 63,-952 63,-940 63,-940 63,-934 69,-928 75,-928 75,-928 253,-928 253,-928 259,-928 265,-934 265,-940 265,-940 265,-952 265,-952 265,-958 259,-964 253,-964"/>
<text text-anchor="middle" x="164" y="-943.8" font-family="Courier,monospace" font-size="9.00">CIccTagProfileSequenceId::Validate()</text>
</g>
<!-- Node0x555a222cd530&#45;&gt;Node0x555a22111550 -->
<g id="edge41" class="edge">
<title>Node0x555a222cd530&#45;&gt;Node0x555a22111550</title>
<path fill="none" stroke="#4a6fa5" d="M186.29,-964.11C223.95,-995.14 305.92,-1058.3 386,-1091 404.63,-1098.61 425.43,-1104.27 445.38,-1108.46"/>
<polygon fill="#4a6fa5" stroke="#4a6fa5" points="444.96,-1110.52 451.26,-1109.66 445.8,-1106.4 444.96,-1110.52"/>
</g>
<!-- Node0x555a222cd7b0 -->
<g id="node40" class="node">
<title>Node0x555a222cd7b0</title>
<path fill="#f0f4ff" stroke="black" d="M578,-1080C578,-1080 490,-1080 490,-1080 484,-1080 478,-1074 478,-1068 478,-1068 478,-1056 478,-1056 478,-1050 484,-1044 490,-1044 490,-1044 578,-1044 578,-1044 584,-1044 590,-1050 590,-1056 590,-1056 590,-1068 590,-1068 590,-1074 584,-1080 578,-1080"/>
<text text-anchor="middle" x="534" y="-1059.8" font-family="Courier,monospace" font-size="9.00">CIccTag::Validate()</text>
</g>
<!-- Node0x555a222cd530&#45;&gt;Node0x555a222cd7b0 -->
<g id="edge36" class="edge">
<title>Node0x555a222cd530&#45;&gt;Node0x555a222cd7b0</title>
<path fill="none" stroke="#4a6fa5" d="M204.57,-964.09C248.21,-983.45 320.9,-1013.94 386,-1033 413.85,-1041.16 445.34,-1047.71 472.02,-1052.51"/>
<polygon fill="#4a6fa5" stroke="#4a6fa5" points="471.71,-1054.59 477.98,-1053.57 472.44,-1050.45 471.71,-1054.59"/>
</g>
<!-- Node0x555a222cd8f0 -->
<g id="node41" class="node">
<title>Node0x555a222cd8f0</title>
<path fill="#f0f4ff" stroke="black" d="M581,-1022C581,-1022 487,-1022 487,-1022 481,-1022 475,-1016 475,-1010 475,-1010 475,-998 475,-998 475,-992 481,-986 487,-986 487,-986 581,-986 581,-986 587,-986 593,-992 593,-998 593,-998 593,-1010 593,-1010 593,-1016 587,-1022 581,-1022"/>
<text text-anchor="middle" x="534" y="-1001.8" font-family="Courier,monospace" font-size="9.00">CIccInfo::CIccInfo()</text>
</g>
<!-- Node0x555a222cd530&#45;&gt;Node0x555a222cd8f0 -->
<g id="edge37" class="edge">
<title>Node0x555a222cd530&#45;&gt;Node0x555a222cd8f0</title>
<path fill="none" stroke="#4a6fa5" d="M265.07,-961.77C329.96,-972 412.58,-985.02 468.8,-993.88"/>
<polygon fill="#4a6fa5" stroke="#4a6fa5" points="468.58,-995.97 474.84,-994.83 469.24,-991.82 468.58,-995.97"/>
</g>
<!-- Node0x555a222d1c90 -->
<g id="node42" class="node">
<title>Node0x555a222d1c90</title>
<path fill="#f0f4ff" stroke="black" d="M583.5,-964C583.5,-964 484.5,-964 484.5,-964 478.5,-964 472.5,-958 472.5,-952 472.5,-952 472.5,-940 472.5,-940 472.5,-934 478.5,-928 484.5,-928 484.5,-928 583.5,-928 583.5,-928 589.5,-928 595.5,-934 595.5,-940 595.5,-940 595.5,-952 595.5,-952 595.5,-958 589.5,-964 583.5,-964"/>
<text text-anchor="middle" x="534" y="-943.8" font-family="Courier,monospace" font-size="9.00">CIccInfo::~CIccInfo()</text>
</g>
<!-- Node0x555a222cd530&#45;&gt;Node0x555a222d1c90 -->
<g id="edge38" class="edge">
<title>Node0x555a222cd530&#45;&gt;Node0x555a222d1c90</title>
<path fill="none" stroke="#4a6fa5" d="M265.07,-946C329.04,-946 410.23,-946 466.38,-946"/>
<polygon fill="#4a6fa5" stroke="#4a6fa5" points="466.42,-948.1 472.42,-946 466.42,-943.9 466.42,-948.1"/>
</g>
<!-- Node0x555a222d7d80 -->
<g id="node43" class="node">
<title>Node0x555a222d7d80</title>
<path fill="#f0f4ff" stroke="black" d="M596.5,-906C596.5,-906 471.5,-906 471.5,-906 465.5,-906 459.5,-900 459.5,-894 459.5,-894 459.5,-882 459.5,-882 459.5,-876 465.5,-870 471.5,-870 471.5,-870 596.5,-870 596.5,-870 602.5,-870 608.5,-876 608.5,-882 608.5,-882 608.5,-894 608.5,-894 608.5,-900 602.5,-906 596.5,-906"/>
<text text-anchor="middle" x="534" y="-885.8" font-family="Courier,monospace" font-size="9.00">CIccInfo::GetSigPathName()</text>
</g>
<!-- Node0x555a222cd530&#45;&gt;Node0x555a222d7d80 -->
<g id="edge39" class="edge">
<title>Node0x555a222cd530&#45;&gt;Node0x555a222d7d80</title>
<path fill="none" stroke="#4a6fa5" d="M265.07,-930.23C324.21,-920.91 398.08,-909.26 453.26,-900.57"/>
<polygon fill="#4a6fa5" stroke="#4a6fa5" points="453.62,-902.64 459.22,-899.63 452.97,-898.49 453.62,-902.64"/>
</g>
<!-- Node0x555a222df720 -->
<g id="node44" class="node">
<title>Node0x555a222df720</title>
<path fill="#f0f4ff" stroke="black" d="M625.5,-848C625.5,-848 442.5,-848 442.5,-848 436.5,-848 430.5,-842 430.5,-836 430.5,-836 430.5,-824 430.5,-824 430.5,-818 436.5,-812 442.5,-812 442.5,-812 625.5,-812 625.5,-812 631.5,-812 637.5,-818 637.5,-824 637.5,-824 637.5,-836 637.5,-836 637.5,-842 631.5,-848 625.5,-848"/>
<text text-anchor="middle" x="534" y="-827.8" font-family="Courier,monospace" font-size="9.00">icGetSigPath[abi:cxx11](unsigned int)</text>
</g>
<!-- Node0x555a222cd530&#45;&gt;Node0x555a222df720 -->
<g id="edge40" class="edge">
<title>Node0x555a222cd530&#45;&gt;Node0x555a222df720</title>
<path fill="none" stroke="#4a6fa5" d="M204.57,-927.91C248.21,-908.55 320.9,-878.06 386,-859 398.34,-855.39 411.39,-852.09 424.43,-849.11"/>
<polygon fill="#4a6fa5" stroke="#4a6fa5" points="425.02,-851.13 430.41,-847.77 424.1,-847.04 425.02,-851.13"/>
</g>
<!-- Node0x555a222d0ab0 -->
<g id="node45" class="node">
<title>Node0x555a222d0ab0</title>
<path fill="#f0f4ff" stroke="black" d="M562.5,-790C562.5,-790 505.5,-790 505.5,-790 499.5,-790 493.5,-784 493.5,-778 493.5,-778 493.5,-766 493.5,-766 493.5,-760 499.5,-754 505.5,-754 505.5,-754 562.5,-754 562.5,-754 568.5,-754 574.5,-760 574.5,-766 574.5,-766 574.5,-778 574.5,-778 574.5,-784 568.5,-790 562.5,-790"/>
<text text-anchor="middle" x="534" y="-769.8" font-family="Courier,monospace" font-size="9.00">icMaxStatus()</text>
</g>
<!-- Node0x555a222cd530&#45;&gt;Node0x555a222d0ab0 -->
<g id="edge42" class="edge">
<title>Node0x555a222cd530&#45;&gt;Node0x555a222d0ab0</title>
<path fill="none" stroke="#4a6fa5" d="M186.29,-927.89C223.95,-896.86 305.92,-833.7 386,-801 418.49,-787.73 457.56,-780.39 487.25,-776.42"/>
<polygon fill="#4a6fa5" stroke="#4a6fa5" points="487.75,-778.47 493.44,-775.62 487.22,-774.31 487.75,-778.47"/>
</g>
<!-- Node0x555a222e2800 -->
<g id="node46" class="node">
<title>Node0x555a222e2800</title>
<path fill="#f0f4ff" stroke="black" d="M287,-1486C287,-1486 41,-1486 41,-1486 35,-1486 29,-1480 29,-1474 29,-1474 29,-1462 29,-1462 29,-1456 35,-1450 41,-1450 41,-1450 287,-1450 287,-1450 293,-1450 299,-1456 299,-1462 299,-1462 299,-1474 299,-1474 299,-1480 293,-1486 287,-1486"/>
<text text-anchor="middle" x="164" y="-1465.8" font-family="Courier,monospace" font-size="9.00">CIccTagProfileSequenceId::AddProfileDescription()</text>
</g>
<!-- Node0x555a222e0ca0 -->
<g id="node47" class="node">
<title>Node0x555a222e0ca0</title>
<path fill="#f0f4ff" stroke="black" d="M253,-1544C253,-1544 75,-1544 75,-1544 69,-1544 63,-1538 63,-1532 63,-1532 63,-1520 63,-1520 63,-1514 69,-1508 75,-1508 75,-1508 253,-1508 253,-1508 259,-1508 265,-1514 265,-1520 265,-1520 265,-1532 265,-1532 265,-1538 259,-1544 253,-1544"/>
<text text-anchor="middle" x="164" y="-1523.8" font-family="Courier,monospace" font-size="9.00">CIccTagProfileSequenceId::GetFirst()</text>
</g>
<!-- Node0x555a222e8070 -->
<g id="node48" class="node">
<title>Node0x555a222e8070</title>
<path fill="#f0f4ff" stroke="black" d="M250,-1602C250,-1602 78,-1602 78,-1602 72,-1602 66,-1596 66,-1590 66,-1590 66,-1578 66,-1578 66,-1572 72,-1566 78,-1566 78,-1566 250,-1566 250,-1566 256,-1566 262,-1572 262,-1578 262,-1578 262,-1590 262,-1590 262,-1596 256,-1602 250,-1602"/>
<text text-anchor="middle" x="164" y="-1581.8" font-family="Courier,monospace" font-size="9.00">CIccTagProfileSequenceId::GetLast()</text>
</g>
<!-- Node0x555a222e7dd0 -->
<g id="node49" class="node">
<title>Node0x555a222e7dd0</title>
<path fill="#f0f4ff" stroke="black" d="M549.5,-1602C549.5,-1602 518.5,-1602 518.5,-1602 512.5,-1602 506.5,-1596 506.5,-1590 506.5,-1590 506.5,-1578 506.5,-1578 506.5,-1572 512.5,-1566 518.5,-1566 518.5,-1566 549.5,-1566 549.5,-1566 555.5,-1566 561.5,-1572 561.5,-1578 561.5,-1578 561.5,-1590 561.5,-1590 561.5,-1596 555.5,-1602 549.5,-1602"/>
<text text-anchor="middle" x="534" y="-1581.8" font-family="Courier,monospace" font-size="9.00">rbegin()</text>
</g>
<!-- Node0x555a222e8070&#45;&gt;Node0x555a222e7dd0 -->
<g id="edge43" class="edge">
<title>Node0x555a222e8070&#45;&gt;Node0x555a222e7dd0</title>
<path fill="none" stroke="#4a6fa5" d="M262.17,-1584C340.95,-1584 447.29,-1584 500.22,-1584"/>
<polygon fill="#4a6fa5" stroke="#4a6fa5" points="500.41,-1586.1 506.41,-1584 500.41,-1581.9 500.41,-1586.1"/>
</g>
<!-- Node0x555a222e6000 -->
<g id="node50" class="node">
<title>Node0x555a222e6000</title>
<path fill="#f0f4ff" stroke="black" d="M945.5,-1602C945.5,-1602 862.5,-1602 862.5,-1602 856.5,-1602 850.5,-1596 850.5,-1590 850.5,-1590 850.5,-1578 850.5,-1578 850.5,-1572 856.5,-1566 862.5,-1566 862.5,-1566 945.5,-1566 945.5,-1566 951.5,-1566 957.5,-1572 957.5,-1578 957.5,-1578 957.5,-1590 957.5,-1590 957.5,-1596 951.5,-1602 945.5,-1602"/>
<text text-anchor="middle" x="904" y="-1581.8" font-family="Courier,monospace" font-size="9.00">reverse_iterator()</text>
</g>
<!-- Node0x555a222e7dd0&#45;&gt;Node0x555a222e6000 -->
<g id="edge44" class="edge">
<title>Node0x555a222e7dd0&#45;&gt;Node0x555a222e6000</title>
<path fill="none" stroke="#4a6fa5" d="M561.76,-1584C620.76,-1584 763.18,-1584 844.15,-1584"/>
<polygon fill="#4a6fa5" stroke="#4a6fa5" points="844.35,-1586.1 850.35,-1584 844.35,-1581.9 844.35,-1586.1"/>
</g>
<!-- Node0x555a222d0ed0 -->
<g id="node51" class="node">
<title>Node0x555a222d0ed0</title>
<path fill="#f0f4ff" stroke="black" d="M250,-1660C250,-1660 78,-1660 78,-1660 72,-1660 66,-1654 66,-1648 66,-1648 66,-1636 66,-1636 66,-1630 72,-1624 78,-1624 78,-1624 250,-1624 250,-1624 256,-1624 262,-1630 262,-1636 262,-1636 262,-1648 262,-1648 262,-1654 256,-1660 250,-1660"/>
<text text-anchor="middle" x="164" y="-1639.8" font-family="Courier,monospace" font-size="9.00">CIccTagProfileSequenceId::NewCopy()</text>
</g>
<!-- Node0x555a222df110 -->
<g id="node52" class="node">
<title>Node0x555a222df110</title>
<path fill="#f0f4ff" stroke="black" d="M250,-1718C250,-1718 78,-1718 78,-1718 72,-1718 66,-1712 66,-1706 66,-1706 66,-1694 66,-1694 66,-1688 72,-1682 78,-1682 78,-1682 250,-1682 250,-1682 256,-1682 262,-1688 262,-1694 262,-1694 262,-1706 262,-1706 262,-1712 256,-1718 250,-1718"/>
<text text-anchor="middle" x="164" y="-1697.8" font-family="Courier,monospace" font-size="9.00">CIccTagProfileSequenceId::GetType()</text>
</g>
<!-- Node0x555a222e75d0 -->
<g id="node53" class="node">
<title>Node0x555a222e75d0</title>
<path fill="#f0f4ff" stroke="black" d="M229,-1776C229,-1776 99,-1776 99,-1776 93,-1776 87,-1770 87,-1764 87,-1764 87,-1752 87,-1752 87,-1746 93,-1740 99,-1740 99,-1740 229,-1740 229,-1740 235,-1740 241,-1746 241,-1752 241,-1752 241,-1764 241,-1764 241,-1770 235,-1776 229,-1776"/>
<text text-anchor="middle" x="164" y="-1755.8" font-family="Courier,monospace" font-size="9.00">CIccTag::GetTagStructType()</text>
</g>
<!-- Node0x555a222e06e0 -->
<g id="node54" class="node">
<title>Node0x555a222e06e0</title>
<path fill="#f0f4ff" stroke="black" d="M226.5,-1834C226.5,-1834 101.5,-1834 101.5,-1834 95.5,-1834 89.5,-1828 89.5,-1822 89.5,-1822 89.5,-1810 89.5,-1810 89.5,-1804 95.5,-1798 101.5,-1798 101.5,-1798 226.5,-1798 226.5,-1798 232.5,-1798 238.5,-1804 238.5,-1810 238.5,-1810 238.5,-1822 238.5,-1822 238.5,-1828 232.5,-1834 226.5,-1834"/>
<text text-anchor="middle" x="164" y="-1813.8" font-family="Courier,monospace" font-size="9.00">CIccTag::GetTagArrayType()</text>
</g>
<!-- Node0x555a222dad10 -->
<g id="node55" class="node">
<title>Node0x555a222dad10</title>
<path fill="#f0f4ff" stroke="black" d="M216,-1892C216,-1892 112,-1892 112,-1892 106,-1892 100,-1886 100,-1880 100,-1880 100,-1868 100,-1868 100,-1862 106,-1856 112,-1856 112,-1856 216,-1856 216,-1856 222,-1856 228,-1862 228,-1868 228,-1868 228,-1880 228,-1880 228,-1886 222,-1892 216,-1892"/>
<text text-anchor="middle" x="164" y="-1871.8" font-family="Courier,monospace" font-size="9.00">CIccTag::IsArrayType()</text>
</g>
<!-- Node0x555a222dabb0 -->
<g id="node56" class="node">
<title>Node0x555a222dabb0</title>
<path fill="#f0f4ff" stroke="black" d="M211,-1950C211,-1950 117,-1950 117,-1950 111,-1950 105,-1944 105,-1938 105,-1938 105,-1926 105,-1926 105,-1920 111,-1914 117,-1914 117,-1914 211,-1914 211,-1914 217,-1914 223,-1920 223,-1926 223,-1926 223,-1938 223,-1938 223,-1944 217,-1950 211,-1950"/>
<text text-anchor="middle" x="164" y="-1929.8" font-family="Courier,monospace" font-size="9.00">CIccTag::IsMBBType()</text>
</g>
<!-- Node0x555a222da770 -->
<g id="node57" class="node">
<title>Node0x555a222da770</title>
<path fill="#f0f4ff" stroke="black" d="M224,-2008C224,-2008 104,-2008 104,-2008 98,-2008 92,-2002 92,-1996 92,-1996 92,-1984 92,-1984 92,-1978 98,-1972 104,-1972 104,-1972 224,-1972 224,-1972 230,-1972 236,-1978 236,-1984 236,-1984 236,-1996 236,-1996 236,-2002 230,-2008 224,-2008"/>
<text text-anchor="middle" x="164" y="-1987.8" font-family="Courier,monospace" font-size="9.00">CIccTag::IsNumArrayType()</text>
</g>
<!-- Node0x555a222da580 -->
<g id="node58" class="node">
<title>Node0x555a222da580</title>
<path fill="#f0f4ff" stroke="black" d="M263.5,-2066C263.5,-2066 64.5,-2066 64.5,-2066 58.5,-2066 52.5,-2060 52.5,-2054 52.5,-2054 52.5,-2042 52.5,-2042 52.5,-2036 58.5,-2030 64.5,-2030 64.5,-2030 263.5,-2030 263.5,-2030 269.5,-2030 275.5,-2036 275.5,-2042 275.5,-2042 275.5,-2054 275.5,-2054 275.5,-2060 269.5,-2066 263.5,-2066"/>
<text text-anchor="middle" x="164" y="-2045.8" font-family="Courier,monospace" font-size="9.00">CIccTagProfileSequenceId::GetClassName()</text>
</g>
<!-- Node0x555a222ee960 -->
<g id="node59" class="node">
<title>Node0x555a222ee960</title>
<path fill="#f0f4ff" stroke="black" d="M218.5,-2124C218.5,-2124 109.5,-2124 109.5,-2124 103.5,-2124 97.5,-2118 97.5,-2112 97.5,-2112 97.5,-2100 97.5,-2100 97.5,-2094 103.5,-2088 109.5,-2088 109.5,-2088 218.5,-2088 218.5,-2088 224.5,-2088 230.5,-2094 230.5,-2100 230.5,-2100 230.5,-2112 230.5,-2112 230.5,-2118 224.5,-2124 218.5,-2124"/>
<text text-anchor="middle" x="164" y="-2103.8" font-family="Courier,monospace" font-size="9.00">CIccTag::GetExtension()</text>
</g>
<!-- Node0x555a222d0310 -->
<g id="node60" class="node">
<title>Node0x555a222d0310</title>
<path fill="#f0f4ff" stroke="black" d="M216,-2182C216,-2182 112,-2182 112,-2182 106,-2182 100,-2176 100,-2170 100,-2170 100,-2158 100,-2158 100,-2152 106,-2146 112,-2146 112,-2146 216,-2146 216,-2146 222,-2146 228,-2152 228,-2158 228,-2158 228,-2170 228,-2170 228,-2176 222,-2182 216,-2182"/>
<text text-anchor="middle" x="164" y="-2161.8" font-family="Courier,monospace" font-size="9.00">CIccTag::IsSupported()</text>
</g>
<!-- Node0x555a222ee5c0 -->
<g id="node61" class="node">
<title>Node0x555a222ee5c0</title>
<path fill="#f0f4ff" stroke="black" d="M205.5,-2240C205.5,-2240 122.5,-2240 122.5,-2240 116.5,-2240 110.5,-2234 110.5,-2228 110.5,-2228 110.5,-2216 110.5,-2216 110.5,-2210 116.5,-2204 122.5,-2204 122.5,-2204 205.5,-2204 205.5,-2204 211.5,-2204 217.5,-2210 217.5,-2216 217.5,-2216 217.5,-2228 217.5,-2228 217.5,-2234 211.5,-2240 205.5,-2240"/>
<text text-anchor="middle" x="164" y="-2219.8" font-family="Courier,monospace" font-size="9.00">CIccTag::ReadAll()</text>
</g>
<!-- Node0x555a222dae80 -->
<g id="node62" class="node">
<title>Node0x555a222dae80</title>
<path fill="#f0f4ff" stroke="black" d="M208,-2298C208,-2298 120,-2298 120,-2298 114,-2298 108,-2292 108,-2286 108,-2286 108,-2274 108,-2274 108,-2268 114,-2262 120,-2262 120,-2262 208,-2262 208,-2262 214,-2262 220,-2268 220,-2274 220,-2274 220,-2286 220,-2286 220,-2292 214,-2298 208,-2298"/>
<text text-anchor="middle" x="164" y="-2277.8" font-family="Courier,monospace" font-size="9.00">CIccTag::DetachIO()</text>
</g>
<!-- Node0x555a222f1500 -->
<g id="node63" class="node">
<title>Node0x555a222f1500</title>
<path fill="#f0f4ff" stroke="black" d="M197.5,-2356C197.5,-2356 130.5,-2356 130.5,-2356 124.5,-2356 118.5,-2350 118.5,-2344 118.5,-2344 118.5,-2332 118.5,-2332 118.5,-2326 124.5,-2320 130.5,-2320 130.5,-2320 197.5,-2320 197.5,-2320 203.5,-2320 209.5,-2326 209.5,-2332 209.5,-2332 209.5,-2344 209.5,-2344 209.5,-2350 203.5,-2356 197.5,-2356"/>
<text text-anchor="middle" x="164" y="-2335.8" font-family="Courier,monospace" font-size="9.00">CIccTag::Read()</text>
</g>
<!-- Node0x555a222f0030 -->
<g id="node64" class="node">
<title>Node0x555a222f0030</title>
<path fill="#f0f4ff" stroke="black" d="M284.5,-2414C284.5,-2414 43.5,-2414 43.5,-2414 37.5,-2414 31.5,-2408 31.5,-2402 31.5,-2402 31.5,-2390 31.5,-2390 31.5,-2384 37.5,-2378 43.5,-2378 43.5,-2378 284.5,-2378 284.5,-2378 290.5,-2378 296.5,-2384 296.5,-2390 296.5,-2390 296.5,-2402 296.5,-2402 296.5,-2408 290.5,-2414 284.5,-2414"/>
<text text-anchor="middle" x="164" y="-2393.8" font-family="Courier,monospace" font-size="9.00">__detail::_List_node_header::_List_node_header()</text>
</g>
<!-- Node0x555a22306640 -->
<g id="node65" class="node">
<title>Node0x555a22306640</title>
<path fill="#f0f4ff" stroke="black" d="M258,-2472C258,-2472 70,-2472 70,-2472 64,-2472 58,-2466 58,-2460 58,-2460 58,-2448 58,-2448 58,-2442 64,-2436 70,-2436 70,-2436 258,-2436 258,-2436 264,-2436 270,-2442 270,-2448 270,-2448 270,-2460 270,-2460 270,-2466 264,-2472 258,-2472"/>
<text text-anchor="middle" x="164" y="-2451.8" font-family="Courier,monospace" font-size="9.00">__detail::_List_node_base::_M_unhook()</text>
</g>
<!-- Node0x555a22300f70 -->
<g id="node66" class="node">
<title>Node0x555a22300f70</title>
<path fill="#f0f4ff" stroke="black" d="M197.5,-2530C197.5,-2530 130.5,-2530 130.5,-2530 124.5,-2530 118.5,-2524 118.5,-2518 118.5,-2518 118.5,-2506 118.5,-2506 118.5,-2500 124.5,-2494 130.5,-2494 130.5,-2494 197.5,-2494 197.5,-2494 203.5,-2494 209.5,-2500 209.5,-2506 209.5,-2506 209.5,-2518 209.5,-2518 209.5,-2524 203.5,-2530 197.5,-2530"/>
<text text-anchor="middle" x="164" y="-2509.8" font-family="Courier,monospace" font-size="9.00">get_allocator()</text>
</g>
<!-- Node0x555a222f6890 -->
<g id="node67" class="node">
<title>Node0x555a222f6890</title>
<path fill="#f0f4ff" stroke="black" d="M179.5,-2588C179.5,-2588 148.5,-2588 148.5,-2588 142.5,-2588 136.5,-2582 136.5,-2576 136.5,-2576 136.5,-2564 136.5,-2564 136.5,-2558 142.5,-2552 148.5,-2552 148.5,-2552 179.5,-2552 179.5,-2552 185.5,-2552 191.5,-2558 191.5,-2564 191.5,-2564 191.5,-2576 191.5,-2576 191.5,-2582 185.5,-2588 179.5,-2588"/>
<text text-anchor="middle" x="164" y="-2567.8" font-family="Courier,monospace" font-size="9.00">splice()</text>
</g>
<!-- Node0x555a223051b0 -->
<g id="node68" class="node">
<title>Node0x555a223051b0</title>
<path fill="#f0f4ff" stroke="black" d="M549.5,-2588C549.5,-2588 518.5,-2588 518.5,-2588 512.5,-2588 506.5,-2582 506.5,-2576 506.5,-2576 506.5,-2564 506.5,-2564 506.5,-2558 512.5,-2552 518.5,-2552 518.5,-2552 549.5,-2552 549.5,-2552 555.5,-2552 561.5,-2558 561.5,-2564 561.5,-2564 561.5,-2576 561.5,-2576 561.5,-2582 555.5,-2588 549.5,-2588"/>
<text text-anchor="middle" x="534" y="-2567.8" font-family="Courier,monospace" font-size="9.00">splice()</text>
</g>
<!-- Node0x555a222f6890&#45;&gt;Node0x555a223051b0 -->
<g id="edge45" class="edge">
<title>Node0x555a222f6890&#45;&gt;Node0x555a223051b0</title>
<path fill="none" stroke="#4a6fa5" d="M191.76,-2570C257.75,-2570 428.09,-2570 500.09,-2570"/>
<polygon fill="#4a6fa5" stroke="#4a6fa5" points="500.34,-2572.1 506.34,-2570 500.34,-2567.9 500.34,-2572.1"/>
</g>
<!-- Node0x555a222fa770 -->
<g id="node69" class="node">
<title>Node0x555a222fa770</title>
<path fill="#f0f4ff" stroke="black" d="M253,-2646C253,-2646 75,-2646 75,-2646 69,-2646 63,-2640 63,-2634 63,-2634 63,-2622 63,-2622 63,-2616 69,-2610 75,-2610 75,-2610 253,-2610 253,-2610 259,-2610 265,-2616 265,-2622 265,-2622 265,-2634 265,-2634 265,-2640 259,-2646 253,-2646"/>
<text text-anchor="middle" x="164" y="-2625.8" font-family="Courier,monospace" font-size="9.00">__detail::_List_node_base::_M_hook()</text>
</g>
<!-- Node0x555a222f93f0 -->
<g id="node70" class="node">
<title>Node0x555a222f93f0</title>
<path fill="#f0f4ff" stroke="black" d="M203,-2704C203,-2704 125,-2704 125,-2704 119,-2704 113,-2698 113,-2692 113,-2692 113,-2680 113,-2680 113,-2674 119,-2668 125,-2668 125,-2668 203,-2668 203,-2668 209,-2668 215,-2674 215,-2680 215,-2680 215,-2692 215,-2692 215,-2698 209,-2704 203,-2704"/>
<text text-anchor="middle" x="164" y="-2683.8" font-family="Courier,monospace" font-size="9.00">__allocated_ptr()</text>
</g>
<!-- Node0x555a222f8c70 -->
<g id="node71" class="node">
<title>Node0x555a222f8c70</title>
<path fill="#f0f4ff" stroke="black" d="M184.5,-2762C184.5,-2762 143.5,-2762 143.5,-2762 137.5,-2762 131.5,-2756 131.5,-2750 131.5,-2750 131.5,-2738 131.5,-2738 131.5,-2732 137.5,-2726 143.5,-2726 143.5,-2726 184.5,-2726 184.5,-2726 190.5,-2726 196.5,-2732 196.5,-2738 196.5,-2738 196.5,-2750 196.5,-2750 196.5,-2756 190.5,-2762 184.5,-2762"/>
<text text-anchor="middle" x="164" y="-2741.8" font-family="Courier,monospace" font-size="9.00">decltype()</text>
</g>
<!-- Node0x555a222d8a90 -->
<g id="node72" class="node">
<title>Node0x555a222d8a90</title>
<path fill="#f0f4ff" stroke="black" d="M203,-2820C203,-2820 125,-2820 125,-2820 119,-2820 113,-2814 113,-2808 113,-2808 113,-2796 113,-2796 113,-2790 119,-2784 125,-2784 125,-2784 203,-2784 203,-2784 209,-2784 215,-2790 215,-2796 215,-2796 215,-2808 215,-2808 215,-2814 209,-2820 203,-2820"/>
<text text-anchor="middle" x="164" y="-2799.8" font-family="Courier,monospace" font-size="9.00">__allocated_ptr()</text>
</g>
</g>
</svg>
