<?xml version="1.0" encoding="UTF-8" standalone="no"?>
<!DOCTYPE svg PUBLIC "-//W3C//DTD SVG 1.1//EN"
 "http://www.w3.org/Graphics/SVG/1.1/DTD/svg11.dtd">
<!-- Generated by graphviz version 2.43.0 (0)
 -->
<!-- Title: Call graph: /home/h02332/po/research/call&#45;graph/iccdev/proflib/IccTagEmbedIcc.ll Pages: 1 -->
<svg width="737pt" height="3182pt"
 viewBox="0.00 0.00 737.20 3182.20" xmlns="http://www.w3.org/2000/svg" xmlns:xlink="http://www.w3.org/1999/xlink">
<g id="graph0" class="graph" transform="scale(1 1) rotate(0) translate(21.6 3160.6)">
<title>Call graph: /home/h02332/po/research/call&#45;graph/iccdev/proflib/IccTagEmbedIcc.ll</title>
<polygon fill="white" stroke="transparent" points="-21.6,21.6 -21.6,-3160.6 715.6,-3160.6 715.6,21.6 -21.6,21.6"/>
<!-- Node0x576a373bc900 -->
<g id="node1" class="node">
<title>Node0x576a373bc900</title>
<path fill="#f0f4ff" stroke="black" d="M284.5,-152C284.5,-152 43.5,-152 43.5,-152 37.5,-152 31.5,-146 31.5,-140 31.5,-140 31.5,-128 31.5,-128 31.5,-122 37.5,-116 43.5,-116 43.5,-116 284.5,-116 284.5,-116 290.5,-116 296.5,-122 296.5,-128 296.5,-128 296.5,-140 296.5,-140 296.5,-146 290.5,-152 284.5,-152"/>
<text text-anchor="middle" x="164" y="-131.8" font-family="Courier,monospace" font-size="9.00">CIccTagEmbeddedProfile::CIccTagEmbeddedProfile()</text>
</g>
<!-- Node0x576a37504a00 -->
<g id="node2" class="node">
<title>Node0x576a37504a00</title>
<path fill="#f0f4ff" stroke="black" d="M525.5,-123C525.5,-123 442.5,-123 442.5,-123 436.5,-123 430.5,-117 430.5,-111 430.5,-111 430.5,-99 430.5,-99 430.5,-93 436.5,-87 442.5,-87 442.5,-87 525.5,-87 525.5,-87 531.5,-87 537.5,-93 537.5,-99 537.5,-99 537.5,-111 537.5,-111 537.5,-117 531.5,-123 525.5,-123"/>
<text text-anchor="middle" x="484" y="-102.8" font-family="Courier,monospace" font-size="9.00">CIccTag::CIccTag()</text>
</g>
<!-- Node0x576a373bc900&#45;&gt;Node0x576a37504a00 -->
<g id="edge1" class="edge">
<title>Node0x576a373bc900&#45;&gt;Node0x576a37504a00</title>
<path fill="none" stroke="#4a6fa5" d="M296.64,-122C341.06,-117.94 388.41,-113.63 424.27,-110.36"/>
<polygon fill="#4a6fa5" stroke="#4a6fa5" points="424.59,-112.44 430.38,-109.8 424.21,-108.25 424.59,-112.44"/>
</g>
<!-- Node0x576a373b8200 -->
<g id="node3" class="node">
<title>Node0x576a373b8200</title>
<path fill="#f0f4ff" stroke="black" d="M567.5,-877C567.5,-877 400.5,-877 400.5,-877 394.5,-877 388.5,-871 388.5,-865 388.5,-865 388.5,-853 388.5,-853 388.5,-847 394.5,-841 400.5,-841 400.5,-841 567.5,-841 567.5,-841 573.5,-841 579.5,-847 579.5,-853 579.5,-853 579.5,-865 579.5,-865 579.5,-871 573.5,-877 567.5,-877"/>
<text text-anchor="middle" x="484" y="-856.8" font-family="Courier,monospace" font-size="9.00">CIccInfo::GetRenderingIntentName()</text>
</g>
<!-- Node0x576a375112f0 -->
<g id="node4" class="node">
<title>Node0x576a375112f0</title>
<path fill="#f0f4ff" stroke="black" d="M567.5,-819C567.5,-819 400.5,-819 400.5,-819 394.5,-819 388.5,-813 388.5,-807 388.5,-807 388.5,-795 388.5,-795 388.5,-789 394.5,-783 400.5,-783 400.5,-783 567.5,-783 567.5,-783 573.5,-783 579.5,-789 579.5,-795 579.5,-795 579.5,-807 579.5,-807 579.5,-813 573.5,-819 567.5,-819"/>
<text text-anchor="middle" x="484" y="-798.8" font-family="Courier,monospace" font-size="9.00">CIccInfo::GetProfileClassSigName()</text>
</g>
<!-- Node0x576a373b96f0 -->
<g id="node5" class="node">
<title>Node0x576a373b96f0</title>
<path fill="#f0f4ff" stroke="black" d="M546.5,-761C546.5,-761 421.5,-761 421.5,-761 415.5,-761 409.5,-755 409.5,-749 409.5,-749 409.5,-737 409.5,-737 409.5,-731 415.5,-725 421.5,-725 421.5,-725 546.5,-725 546.5,-725 552.5,-725 558.5,-731 558.5,-737 558.5,-737 558.5,-749 558.5,-749 558.5,-755 552.5,-761 546.5,-761"/>
<text text-anchor="middle" x="484" y="-740.8" font-family="Courier,monospace" font-size="9.00">CIccInfo::GetVersionName()</text>
</g>
<!-- Node0x576a373b91b0 -->
<g id="node6" class="node">
<title>Node0x576a373b91b0</title>
<path fill="#f0f4ff" stroke="black" d="M567.5,-703C567.5,-703 400.5,-703 400.5,-703 394.5,-703 388.5,-697 388.5,-691 388.5,-691 388.5,-679 388.5,-679 388.5,-673 394.5,-667 400.5,-667 400.5,-667 567.5,-667 567.5,-667 573.5,-667 579.5,-673 579.5,-679 579.5,-679 579.5,-691 579.5,-691 579.5,-697 573.5,-703 567.5,-703"/>
<text text-anchor="middle" x="484" y="-682.8" font-family="Courier,monospace" font-size="9.00">CIccInfo::GetSubClassVersionName()</text>
</g>
<!-- Node0x576a373b8460 -->
<g id="node7" class="node">
<title>Node0x576a373b8460</title>
<path fill="#f0f4ff" stroke="black" d="M499.5,-645C499.5,-645 468.5,-645 468.5,-645 462.5,-645 456.5,-639 456.5,-633 456.5,-633 456.5,-621 456.5,-621 456.5,-615 462.5,-609 468.5,-609 468.5,-609 499.5,-609 499.5,-609 505.5,-609 511.5,-615 511.5,-621 511.5,-621 511.5,-633 511.5,-633 511.5,-639 505.5,-645 499.5,-645"/>
<text text-anchor="middle" x="484" y="-624.8" font-family="Courier,monospace" font-size="9.00">icFtoD()</text>
</g>
<!-- Node0x576a373b9940 -->
<g id="node8" class="node">
<title>Node0x576a373b9940</title>
<path fill="#f0f4ff" stroke="black" d="M570,-587C570,-587 398,-587 398,-587 392,-587 386,-581 386,-575 386,-575 386,-563 386,-563 386,-557 392,-551 398,-551 398,-551 570,-551 570,-551 576,-551 582,-557 582,-563 582,-563 582,-575 582,-575 582,-581 576,-587 570,-587"/>
<text text-anchor="middle" x="484" y="-566.8" font-family="Courier,monospace" font-size="9.00">CIccInfo::GetSpectralColorSigName()</text>
</g>
<!-- Node0x576a37511840 -->
<g id="node9" class="node">
<title>Node0x576a37511840</title>
<path fill="#f0f4ff" stroke="black" d="M504.5,-529C504.5,-529 463.5,-529 463.5,-529 457.5,-529 451.5,-523 451.5,-517 451.5,-517 451.5,-505 451.5,-505 451.5,-499 457.5,-493 463.5,-493 463.5,-493 504.5,-493 504.5,-493 510.5,-493 516.5,-499 516.5,-505 516.5,-505 516.5,-517 516.5,-517 516.5,-523 510.5,-529 504.5,-529"/>
<text text-anchor="middle" x="484" y="-508.8" font-family="Courier,monospace" font-size="9.00">icF16toF()</text>
</g>
<!-- Node0x576a374c62d0 -->
<g id="node10" class="node">
<title>Node0x576a374c62d0</title>
<path fill="#f0f4ff" stroke="black" d="M284.5,-94C284.5,-94 43.5,-94 43.5,-94 37.5,-94 31.5,-88 31.5,-82 31.5,-82 31.5,-70 31.5,-70 31.5,-64 37.5,-58 43.5,-58 43.5,-58 284.5,-58 284.5,-58 290.5,-58 296.5,-64 296.5,-70 296.5,-70 296.5,-82 296.5,-82 296.5,-88 290.5,-94 284.5,-94"/>
<text text-anchor="middle" x="164" y="-73.8" font-family="Courier,monospace" font-size="9.00">CIccTagEmbeddedProfile::CIccTagEmbeddedProfile()</text>
</g>
<!-- Node0x576a374c62d0&#45;&gt;Node0x576a37504a00 -->
<g id="edge2" class="edge">
<title>Node0x576a374c62d0&#45;&gt;Node0x576a37504a00</title>
<path fill="none" stroke="#4a6fa5" d="M296.64,-88C341.06,-92.06 388.41,-96.37 424.27,-99.64"/>
<polygon fill="#4a6fa5" stroke="#4a6fa5" points="424.21,-101.75 430.38,-100.2 424.59,-97.56 424.21,-101.75"/>
</g>
<!-- Node0x576a373eae00 -->
<g id="node11" class="node">
<title>Node0x576a373eae00</title>
<path fill="#f0f4ff" stroke="black" d="M528,-65C528,-65 440,-65 440,-65 434,-65 428,-59 428,-53 428,-53 428,-41 428,-41 428,-35 434,-29 440,-29 440,-29 528,-29 528,-29 534,-29 540,-35 540,-41 540,-41 540,-53 540,-53 540,-59 534,-65 528,-65"/>
<text text-anchor="middle" x="484" y="-44.8" font-family="Courier,monospace" font-size="9.00">CIccTag::~CIccTag()</text>
</g>
<!-- Node0x576a374c62d0&#45;&gt;Node0x576a373eae00 -->
<g id="edge3" class="edge">
<title>Node0x576a374c62d0&#45;&gt;Node0x576a373eae00</title>
<path fill="none" stroke="#4a6fa5" d="M296.64,-64C340.09,-60.03 386.35,-55.81 421.91,-52.57"/>
<polygon fill="#4a6fa5" stroke="#4a6fa5" points="422.19,-54.65 427.97,-52.02 421.81,-50.47 422.19,-54.65"/>
</g>
<!-- Node0x576a3747e3c0 -->
<g id="node12" class="node">
<title>Node0x576a3747e3c0</title>
<path fill="#f0f4ff" stroke="black" d="M316,-1413C316,-1413 12,-1413 12,-1413 6,-1413 0,-1407 0,-1401 0,-1401 0,-1389 0,-1389 0,-1383 6,-1377 12,-1377 12,-1377 316,-1377 316,-1377 322,-1377 328,-1383 328,-1389 328,-1389 328,-1401 328,-1401 328,-1407 322,-1413 316,-1413"/>
<text text-anchor="middle" x="164" y="-1392.8" font-family="Courier,monospace" font-size="9.00">CIccTagEmbeddedProfile::operator=(CIccTagEmbeddedProfile ...</text>
</g>
<!-- Node0x576a3740e2c0 -->
<g id="node13" class="node">
<title>Node0x576a3740e2c0</title>
<path fill="#f0f4ff" stroke="black" d="M287,-36C287,-36 41,-36 41,-36 35,-36 29,-30 29,-24 29,-24 29,-12 29,-12 29,-6 35,0 41,0 41,0 287,0 287,0 293,0 299,-6 299,-12 299,-12 299,-24 299,-24 299,-30 293,-36 287,-36"/>
<text text-anchor="middle" x="164" y="-15.8" font-family="Courier,monospace" font-size="9.00">CIccTagEmbeddedProfile::~CIccTagEmbeddedProfile()</text>
</g>
<!-- Node0x576a3740e2c0&#45;&gt;Node0x576a373eae00 -->
<g id="edge4" class="edge">
<title>Node0x576a3740e2c0&#45;&gt;Node0x576a373eae00</title>
<path fill="none" stroke="#4a6fa5" d="M299.4,-30.26C341.85,-34.13 386.69,-38.22 421.44,-41.39"/>
<polygon fill="#4a6fa5" stroke="#4a6fa5" points="421.64,-43.51 427.8,-41.97 422.02,-39.33 421.64,-43.51"/>
</g>
<!-- Node0x576a373f6210 -->
<g id="node14" class="node">
<title>Node0x576a373f6210</title>
<path fill="#f0f4ff" stroke="black" d="M287,-1500C287,-1500 41,-1500 41,-1500 35,-1500 29,-1494 29,-1488 29,-1488 29,-1476 29,-1476 29,-1470 35,-1464 41,-1464 41,-1464 287,-1464 287,-1464 293,-1464 299,-1470 299,-1476 299,-1476 299,-1488 299,-1488 299,-1494 293,-1500 287,-1500"/>
<text text-anchor="middle" x="164" y="-1479.8" font-family="Courier,monospace" font-size="9.00">CIccTagEmbeddedProfile::~CIccTagEmbeddedProfile()</text>
</g>
<!-- Node0x576a373af4e0 -->
<g id="node15" class="node">
<title>Node0x576a373af4e0</title>
<path fill="#f0f4ff" stroke="black" d="M253,-1616C253,-1616 75,-1616 75,-1616 69,-1616 63,-1610 63,-1604 63,-1604 63,-1592 63,-1592 63,-1586 69,-1580 75,-1580 75,-1580 253,-1580 253,-1580 259,-1580 265,-1586 265,-1592 265,-1592 265,-1604 265,-1604 265,-1610 259,-1616 253,-1616"/>
<text text-anchor="middle" x="164" y="-1595.8" font-family="Courier,monospace" font-size="9.00">CIccTagEmbeddedProfile::SetProfile()</text>
</g>
<!-- Node0x576a373af1f0 -->
<g id="node16" class="node">
<title>Node0x576a373af1f0</title>
<path fill="#f0f4ff" stroke="black" d="M237,-1921C237,-1921 91,-1921 91,-1921 85,-1921 79,-1915 79,-1909 79,-1909 79,-1897 79,-1897 79,-1891 85,-1885 91,-1885 91,-1885 237,-1885 237,-1885 243,-1885 249,-1891 249,-1897 249,-1897 249,-1909 249,-1909 249,-1915 243,-1921 237,-1921"/>
<text text-anchor="middle" x="164" y="-1900.8" font-family="Courier,monospace" font-size="9.00">CIccTagEmbeddedProfile::Read()</text>
</g>
<!-- Node0x576a373af170 -->
<g id="node17" class="node">
<title>Node0x576a373af170</title>
<path fill="#f0f4ff" stroke="black" d="M520.5,-2095C520.5,-2095 447.5,-2095 447.5,-2095 441.5,-2095 435.5,-2089 435.5,-2083 435.5,-2083 435.5,-2071 435.5,-2071 435.5,-2065 441.5,-2059 447.5,-2059 447.5,-2059 520.5,-2059 520.5,-2059 526.5,-2059 532.5,-2065 532.5,-2071 532.5,-2071 532.5,-2083 532.5,-2083 532.5,-2089 526.5,-2095 520.5,-2095"/>
<text text-anchor="middle" x="484" y="-2074.8" font-family="Courier,monospace" font-size="9.00">CIccIO::Read32()</text>
</g>
<!-- Node0x576a373af1f0&#45;&gt;Node0x576a373af170 -->
<g id="edge5" class="edge">
<title>Node0x576a373af1f0&#45;&gt;Node0x576a373af170</title>
<path fill="none" stroke="#4a6fa5" d="M187.55,-1921.03C226.14,-1951.11 308.2,-2011.79 386,-2048 399.53,-2054.29 414.74,-2059.6 429.05,-2063.89"/>
<polygon fill="#4a6fa5" stroke="#4a6fa5" points="428.77,-2065.99 435.11,-2065.66 429.94,-2061.96 428.77,-2065.99"/>
</g>
<!-- Node0x576a375100c0 -->
<g id="node18" class="node">
<title>Node0x576a375100c0</title>
<path fill="#f0f4ff" stroke="black" d="M528,-2037C528,-2037 440,-2037 440,-2037 434,-2037 428,-2031 428,-2025 428,-2025 428,-2013 428,-2013 428,-2007 434,-2001 440,-2001 440,-2001 528,-2001 528,-2001 534,-2001 540,-2007 540,-2013 540,-2013 540,-2025 540,-2025 540,-2031 534,-2037 528,-2037"/>
<text text-anchor="middle" x="484" y="-2016.8" font-family="Courier,monospace" font-size="9.00">CIccProfile::Read()</text>
</g>
<!-- Node0x576a373af1f0&#45;&gt;Node0x576a375100c0 -->
<g id="edge6" class="edge">
<title>Node0x576a373af1f0&#45;&gt;Node0x576a375100c0</title>
<path fill="none" stroke="#4a6fa5" d="M207.79,-1921.09C252.02,-1939.49 323.26,-1968.31 386,-1990 397.56,-1994 410.01,-1997.96 422.01,-2001.62"/>
<polygon fill="#4a6fa5" stroke="#4a6fa5" points="421.5,-2003.66 427.85,-2003.39 422.72,-1999.64 421.5,-2003.66"/>
</g>
<!-- Node0x576a3750e940 -->
<g id="node19" class="node">
<title>Node0x576a3750e940</title>
<path fill="#f0f4ff" stroke="black" d="M546.5,-1805C546.5,-1805 421.5,-1805 421.5,-1805 415.5,-1805 409.5,-1799 409.5,-1793 409.5,-1793 409.5,-1781 409.5,-1781 409.5,-1775 415.5,-1769 421.5,-1769 421.5,-1769 546.5,-1769 546.5,-1769 552.5,-1769 558.5,-1775 558.5,-1781 558.5,-1781 558.5,-1793 558.5,-1793 558.5,-1799 552.5,-1805 546.5,-1805"/>
<text text-anchor="middle" x="484" y="-1784.8" font-family="Courier,monospace" font-size="9.00">CIccEmbedIO::CIccEmbedIO()</text>
</g>
<!-- Node0x576a373af1f0&#45;&gt;Node0x576a3750e940 -->
<g id="edge7" class="edge">
<title>Node0x576a373af1f0&#45;&gt;Node0x576a3750e940</title>
<path fill="none" stroke="#4a6fa5" d="M207.79,-1884.91C252.02,-1866.51 323.26,-1837.69 386,-1816 395.01,-1812.89 404.56,-1809.79 414.01,-1806.84"/>
<polygon fill="#4a6fa5" stroke="#4a6fa5" points="414.76,-1808.81 419.88,-1805.03 413.52,-1804.79 414.76,-1808.81"/>
</g>
<!-- Node0x576a3750fb50 -->
<g id="node20" class="node">
<title>Node0x576a3750fb50</title>
<path fill="#f0f4ff" stroke="black" d="M533.5,-1747C533.5,-1747 434.5,-1747 434.5,-1747 428.5,-1747 422.5,-1741 422.5,-1735 422.5,-1735 422.5,-1723 422.5,-1723 422.5,-1717 428.5,-1711 434.5,-1711 434.5,-1711 533.5,-1711 533.5,-1711 539.5,-1711 545.5,-1717 545.5,-1723 545.5,-1723 545.5,-1735 545.5,-1735 545.5,-1741 539.5,-1747 533.5,-1747"/>
<text text-anchor="middle" x="484" y="-1726.8" font-family="Courier,monospace" font-size="9.00">CIccEmbedIO::Attach()</text>
</g>
<!-- Node0x576a373af1f0&#45;&gt;Node0x576a3750fb50 -->
<g id="edge8" class="edge">
<title>Node0x576a373af1f0&#45;&gt;Node0x576a3750fb50</title>
<path fill="none" stroke="#4a6fa5" d="M187.55,-1884.97C226.14,-1854.89 308.2,-1794.21 386,-1758 395.68,-1753.49 406.23,-1749.49 416.69,-1746.01"/>
<polygon fill="#4a6fa5" stroke="#4a6fa5" points="417.43,-1747.98 422.48,-1744.13 416.13,-1743.99 417.43,-1747.98"/>
</g>
<!-- Node0x576a373b51e0 -->
<g id="node21" class="node">
<title>Node0x576a373b51e0</title>
<path fill="#f0f4ff" stroke="black" d="M533.5,-1979C533.5,-1979 434.5,-1979 434.5,-1979 428.5,-1979 422.5,-1973 422.5,-1967 422.5,-1967 422.5,-1955 422.5,-1955 422.5,-1949 428.5,-1943 434.5,-1943 434.5,-1943 533.5,-1943 533.5,-1943 539.5,-1943 545.5,-1949 545.5,-1955 545.5,-1955 545.5,-1967 545.5,-1967 545.5,-1973 539.5,-1979 533.5,-1979"/>
<text text-anchor="middle" x="484" y="-1958.8" font-family="Courier,monospace" font-size="9.00">CIccProfile::Attach()</text>
</g>
<!-- Node0x576a373af1f0&#45;&gt;Node0x576a373b51e0 -->
<g id="edge9" class="edge">
<title>Node0x576a373af1f0&#45;&gt;Node0x576a373b51e0</title>
<path fill="none" stroke="#4a6fa5" d="M249.38,-1918.39C301.61,-1927.92 367.74,-1939.98 416.29,-1948.83"/>
<polygon fill="#4a6fa5" stroke="#4a6fa5" points="416.15,-1950.94 422.43,-1949.95 416.9,-1946.81 416.15,-1950.94"/>
</g>
<!-- Node0x576a3750f860 -->
<g id="node22" class="node">
<title>Node0x576a3750f860</title>
<path fill="#f0f4ff" stroke="black" d="M531,-1921C531,-1921 437,-1921 437,-1921 431,-1921 425,-1915 425,-1909 425,-1909 425,-1897 425,-1897 425,-1891 431,-1885 437,-1885 437,-1885 531,-1885 531,-1885 537,-1885 543,-1891 543,-1897 543,-1897 543,-1909 543,-1909 543,-1915 537,-1921 531,-1921"/>
<text text-anchor="middle" x="484" y="-1900.8" font-family="Courier,monospace" font-size="9.00">CIccProfile::HasIO()</text>
</g>
<!-- Node0x576a373af1f0&#45;&gt;Node0x576a3750f860 -->
<g id="edge10" class="edge">
<title>Node0x576a373af1f0&#45;&gt;Node0x576a3750f860</title>
<path fill="none" stroke="#4a6fa5" d="M249.38,-1903C302.5,-1903 369.98,-1903 418.74,-1903"/>
<polygon fill="#4a6fa5" stroke="#4a6fa5" points="418.89,-1905.1 424.89,-1903 418.89,-1900.9 418.89,-1905.1"/>
</g>
<!-- Node0x576a3750f9e0 -->
<g id="node23" class="node">
<title>Node0x576a3750f9e0</title>
<path fill="#f0f4ff" stroke="black" d="M546.5,-1863C546.5,-1863 421.5,-1863 421.5,-1863 415.5,-1863 409.5,-1857 409.5,-1851 409.5,-1851 409.5,-1839 409.5,-1839 409.5,-1833 415.5,-1827 421.5,-1827 421.5,-1827 546.5,-1827 546.5,-1827 552.5,-1827 558.5,-1833 558.5,-1839 558.5,-1839 558.5,-1851 558.5,-1851 558.5,-1857 552.5,-1863 546.5,-1863"/>
<text text-anchor="middle" x="484" y="-1842.8" font-family="Courier,monospace" font-size="9.00">CIccProfile::CIccProfile()</text>
</g>
<!-- Node0x576a373af1f0&#45;&gt;Node0x576a3750f9e0 -->
<g id="edge11" class="edge">
<title>Node0x576a373af1f0&#45;&gt;Node0x576a3750f9e0</title>
<path fill="none" stroke="#4a6fa5" d="M249.38,-1887.61C297.11,-1878.9 356.45,-1868.08 403.37,-1859.52"/>
<polygon fill="#4a6fa5" stroke="#4a6fa5" points="403.8,-1861.58 409.33,-1858.44 403.05,-1857.45 403.8,-1861.58"/>
</g>
<!-- Node0x576a373b5b20 -->
<g id="node24" class="node">
<title>Node0x576a373b5b20</title>
<path fill="#f0f4ff" stroke="black" d="M245,-2153C245,-2153 83,-2153 83,-2153 77,-2153 71,-2147 71,-2141 71,-2141 71,-2129 71,-2129 71,-2123 77,-2117 83,-2117 83,-2117 245,-2117 245,-2117 251,-2117 257,-2123 257,-2129 257,-2129 257,-2141 257,-2141 257,-2147 251,-2153 245,-2153"/>
<text text-anchor="middle" x="164" y="-2132.8" font-family="Courier,monospace" font-size="9.00">CIccTagEmbeddedProfile::ReadAll()</text>
</g>
<!-- Node0x576a373b58e0 -->
<g id="node25" class="node">
<title>Node0x576a373b58e0</title>
<path fill="#f0f4ff" stroke="black" d="M538.5,-2153C538.5,-2153 429.5,-2153 429.5,-2153 423.5,-2153 417.5,-2147 417.5,-2141 417.5,-2141 417.5,-2129 417.5,-2129 417.5,-2123 423.5,-2117 429.5,-2117 429.5,-2117 538.5,-2117 538.5,-2117 544.5,-2117 550.5,-2123 550.5,-2129 550.5,-2129 550.5,-2141 550.5,-2141 550.5,-2147 544.5,-2153 538.5,-2153"/>
<text text-anchor="middle" x="484" y="-2132.8" font-family="Courier,monospace" font-size="9.00">CIccProfile::ReadTags()</text>
</g>
<!-- Node0x576a373b5b20&#45;&gt;Node0x576a373b58e0 -->
<g id="edge12" class="edge">
<title>Node0x576a373b5b20&#45;&gt;Node0x576a373b58e0</title>
<path fill="none" stroke="#4a6fa5" d="M257.41,-2135C306.37,-2135 365.62,-2135 411.11,-2135"/>
<polygon fill="#4a6fa5" stroke="#4a6fa5" points="411.15,-2137.1 417.15,-2135 411.15,-2132.9 411.15,-2137.1"/>
</g>
<!-- Node0x576a37510800 -->
<g id="node26" class="node">
<title>Node0x576a37510800</title>
<path fill="#f0f4ff" stroke="black" d="M239.5,-1689C239.5,-1689 88.5,-1689 88.5,-1689 82.5,-1689 76.5,-1683 76.5,-1677 76.5,-1677 76.5,-1665 76.5,-1665 76.5,-1659 82.5,-1653 88.5,-1653 88.5,-1653 239.5,-1653 239.5,-1653 245.5,-1653 251.5,-1659 251.5,-1665 251.5,-1665 251.5,-1677 251.5,-1677 251.5,-1683 245.5,-1689 239.5,-1689"/>
<text text-anchor="middle" x="164" y="-1668.8" font-family="Courier,monospace" font-size="9.00">CIccTagEmbeddedProfile::Write()</text>
</g>
<!-- Node0x576a37510800&#45;&gt;Node0x576a3750e940 -->
<g id="edge15" class="edge">
<title>Node0x576a37510800&#45;&gt;Node0x576a3750e940</title>
<path fill="none" stroke="#4a6fa5" d="M207.79,-1689.09C252.02,-1707.49 323.26,-1736.31 386,-1758 395.01,-1761.11 404.56,-1764.21 414.01,-1767.16"/>
<polygon fill="#4a6fa5" stroke="#4a6fa5" points="413.52,-1769.21 419.88,-1768.97 414.76,-1765.19 413.52,-1769.21"/>
</g>
<!-- Node0x576a37510800&#45;&gt;Node0x576a3750fb50 -->
<g id="edge16" class="edge">
<title>Node0x576a37510800&#45;&gt;Node0x576a3750fb50</title>
<path fill="none" stroke="#4a6fa5" d="M251.89,-1686.85C303.74,-1696.31 368.57,-1708.13 416.36,-1716.84"/>
<polygon fill="#4a6fa5" stroke="#4a6fa5" points="416.11,-1718.93 422.39,-1717.95 416.87,-1714.8 416.11,-1718.93"/>
</g>
<!-- Node0x576a37510b40 -->
<g id="node27" class="node">
<title>Node0x576a37510b40</title>
<path fill="#f0f4ff" stroke="black" d="M523,-1689C523,-1689 445,-1689 445,-1689 439,-1689 433,-1683 433,-1677 433,-1677 433,-1665 433,-1665 433,-1659 439,-1653 445,-1653 445,-1653 523,-1653 523,-1653 529,-1653 535,-1659 535,-1665 535,-1665 535,-1677 535,-1677 535,-1683 529,-1689 523,-1689"/>
<text text-anchor="middle" x="484" y="-1668.8" font-family="Courier,monospace" font-size="9.00">CIccIO::Write32()</text>
</g>
<!-- Node0x576a37510800&#45;&gt;Node0x576a37510b40 -->
<g id="edge13" class="edge">
<title>Node0x576a37510800&#45;&gt;Node0x576a37510b40</title>
<path fill="none" stroke="#4a6fa5" d="M251.89,-1671C307.62,-1671 378.34,-1671 426.78,-1671"/>
<polygon fill="#4a6fa5" stroke="#4a6fa5" points="426.88,-1673.1 432.88,-1671 426.88,-1668.9 426.88,-1673.1"/>
</g>
<!-- Node0x576a373b63c0 -->
<g id="node28" class="node">
<title>Node0x576a373b63c0</title>
<path fill="#f0f4ff" stroke="black" d="M549,-1631C549,-1631 419,-1631 419,-1631 413,-1631 407,-1625 407,-1619 407,-1619 407,-1607 407,-1607 407,-1601 413,-1595 419,-1595 419,-1595 549,-1595 549,-1595 555,-1595 561,-1601 561,-1607 561,-1607 561,-1619 561,-1619 561,-1625 555,-1631 549,-1631"/>
<text text-anchor="middle" x="484" y="-1610.8" font-family="Courier,monospace" font-size="9.00">CIccEmbedIO::~CIccEmbedIO()</text>
</g>
<!-- Node0x576a37510800&#45;&gt;Node0x576a373b63c0 -->
<g id="edge14" class="edge">
<title>Node0x576a37510800&#45;&gt;Node0x576a373b63c0</title>
<path fill="none" stroke="#4a6fa5" d="M251.89,-1655.15C298.27,-1646.69 355.03,-1636.34 400.69,-1628.01"/>
<polygon fill="#4a6fa5" stroke="#4a6fa5" points="401.24,-1630.05 406.77,-1626.9 400.49,-1625.91 401.24,-1630.05"/>
</g>
<!-- Node0x576a373b5f20 -->
<g id="node29" class="node">
<title>Node0x576a373b5f20</title>
<path fill="#f0f4ff" stroke="black" d="M531,-1573C531,-1573 437,-1573 437,-1573 431,-1573 425,-1567 425,-1561 425,-1561 425,-1549 425,-1549 425,-1543 431,-1537 437,-1537 437,-1537 531,-1537 531,-1537 537,-1537 543,-1543 543,-1549 543,-1549 543,-1561 543,-1561 543,-1567 537,-1573 531,-1573"/>
<text text-anchor="middle" x="484" y="-1552.8" font-family="Courier,monospace" font-size="9.00">CIccProfile::Write()</text>
</g>
<!-- Node0x576a37510800&#45;&gt;Node0x576a373b5f20 -->
<g id="edge17" class="edge">
<title>Node0x576a37510800&#45;&gt;Node0x576a373b5f20</title>
<path fill="none" stroke="#4a6fa5" d="M251.77,-1653.99C277.06,-1647.34 304.26,-1638.49 328,-1627 356.88,-1613.02 357.31,-1598.37 386,-1584 396.31,-1578.84 407.7,-1574.42 418.94,-1570.7"/>
<polygon fill="#4a6fa5" stroke="#4a6fa5" points="419.73,-1572.65 424.8,-1568.82 418.44,-1568.65 419.73,-1572.65"/>
</g>
<!-- Node0x576a37510900 -->
<g id="node30" class="node">
<title>Node0x576a37510900</title>
<path fill="#f0f4ff" stroke="black" d="M247.5,-703C247.5,-703 80.5,-703 80.5,-703 74.5,-703 68.5,-697 68.5,-691 68.5,-691 68.5,-679 68.5,-679 68.5,-673 74.5,-667 80.5,-667 80.5,-667 247.5,-667 247.5,-667 253.5,-667 259.5,-673 259.5,-679 259.5,-679 259.5,-691 259.5,-691 259.5,-697 253.5,-703 247.5,-703"/>
<text text-anchor="middle" x="164" y="-682.8" font-family="Courier,monospace" font-size="9.00">CIccTagEmbeddedProfile::Describe()</text>
</g>
<!-- Node0x576a37510900&#45;&gt;Node0x576a373b8200 -->
<g id="edge35" class="edge">
<title>Node0x576a37510900&#45;&gt;Node0x576a373b8200</title>
<path fill="none" stroke="#4a6fa5" d="M187.55,-703.03C226.14,-733.11 308.2,-793.79 386,-830 392.98,-833.25 400.42,-836.24 407.95,-838.96"/>
<polygon fill="#4a6fa5" stroke="#4a6fa5" points="407.36,-840.98 413.72,-840.98 408.75,-837.01 407.36,-840.98"/>
</g>
<!-- Node0x576a37510900&#45;&gt;Node0x576a375112f0 -->
<g id="edge34" class="edge">
<title>Node0x576a37510900&#45;&gt;Node0x576a375112f0</title>
<path fill="none" stroke="#4a6fa5" d="M207.79,-703.09C252.02,-721.49 323.26,-750.31 386,-772 395.01,-775.11 404.56,-778.21 414.01,-781.16"/>
<polygon fill="#4a6fa5" stroke="#4a6fa5" points="413.52,-783.21 419.88,-782.97 414.76,-779.19 413.52,-783.21"/>
</g>
<!-- Node0x576a37510900&#45;&gt;Node0x576a373b96f0 -->
<g id="edge33" class="edge">
<title>Node0x576a37510900&#45;&gt;Node0x576a373b96f0</title>
<path fill="none" stroke="#4a6fa5" d="M259.55,-702.24C305.27,-710.58 359.56,-720.49 403.17,-728.44"/>
<polygon fill="#4a6fa5" stroke="#4a6fa5" points="402.98,-730.54 409.26,-729.55 403.73,-726.41 402.98,-730.54"/>
</g>
<!-- Node0x576a37510900&#45;&gt;Node0x576a373b91b0 -->
<g id="edge32" class="edge">
<title>Node0x576a37510900&#45;&gt;Node0x576a373b91b0</title>
<path fill="none" stroke="#4a6fa5" d="M259.55,-685C298.13,-685 342.8,-685 382.02,-685"/>
<polygon fill="#4a6fa5" stroke="#4a6fa5" points="382.27,-687.1 388.27,-685 382.27,-682.9 382.27,-687.1"/>
</g>
<!-- Node0x576a37510900&#45;&gt;Node0x576a373b8460 -->
<g id="edge30" class="edge">
<title>Node0x576a37510900&#45;&gt;Node0x576a373b8460</title>
<path fill="none" stroke="#4a6fa5" d="M259.55,-667.76C324.07,-655.99 405.64,-641.11 450.22,-632.98"/>
<polygon fill="#4a6fa5" stroke="#4a6fa5" points="450.73,-635.02 456.25,-631.88 449.97,-630.89 450.73,-635.02"/>
</g>
<!-- Node0x576a37510900&#45;&gt;Node0x576a373b9940 -->
<g id="edge29" class="edge">
<title>Node0x576a37510900&#45;&gt;Node0x576a373b9940</title>
<path fill="none" stroke="#4a6fa5" d="M207.79,-666.91C252.02,-648.51 323.26,-619.69 386,-598 395.01,-594.89 404.56,-591.79 414.01,-588.84"/>
<polygon fill="#4a6fa5" stroke="#4a6fa5" points="414.76,-590.81 419.88,-587.03 413.52,-586.79 414.76,-590.81"/>
</g>
<!-- Node0x576a37510900&#45;&gt;Node0x576a37511840 -->
<g id="edge28" class="edge">
<title>Node0x576a37510900&#45;&gt;Node0x576a37511840</title>
<path fill="none" stroke="#4a6fa5" d="M187.55,-666.97C226.14,-636.89 308.2,-576.21 386,-540 404.76,-531.27 426.77,-524.44 445.08,-519.6"/>
<polygon fill="#4a6fa5" stroke="#4a6fa5" points="445.85,-521.57 451.14,-518.04 444.8,-517.51 445.85,-521.57"/>
</g>
<!-- Node0x576a373b76f0 -->
<g id="node31" class="node">
<title>Node0x576a373b76f0</title>
<path fill="#f0f4ff" stroke="black" d="M531,-1225C531,-1225 437,-1225 437,-1225 431,-1225 425,-1219 425,-1213 425,-1213 425,-1201 425,-1201 425,-1195 431,-1189 437,-1189 437,-1189 531,-1189 531,-1189 537,-1189 543,-1195 543,-1201 543,-1201 543,-1213 543,-1213 543,-1219 537,-1225 531,-1225"/>
<text text-anchor="middle" x="484" y="-1204.8" font-family="Courier,monospace" font-size="9.00">CIccInfo::CIccInfo()</text>
</g>
<!-- Node0x576a37510900&#45;&gt;Node0x576a373b76f0 -->
<g id="edge18" class="edge">
<title>Node0x576a37510900&#45;&gt;Node0x576a373b76f0</title>
<path fill="none" stroke="#4a6fa5" d="M167.68,-703.43C179.15,-775.64 230.86,-1041.94 386,-1178 395.37,-1186.22 406.99,-1192.11 418.89,-1196.33"/>
<polygon fill="#4a6fa5" stroke="#4a6fa5" points="418.4,-1198.38 424.75,-1198.27 419.72,-1194.39 418.4,-1198.38"/>
</g>
<!-- Node0x576a373b71d0 -->
<g id="node32" class="node">
<title>Node0x576a373b71d0</title>
<path fill="#f0f4ff" stroke="black" d="M565,-471C565,-471 403,-471 403,-471 397,-471 391,-465 391,-459 391,-459 391,-447 391,-447 391,-441 397,-435 403,-435 403,-435 565,-435 565,-435 571,-435 577,-441 577,-447 577,-447 577,-459 577,-459 577,-465 571,-471 565,-471"/>
<text text-anchor="middle" x="484" y="-450.8" font-family="Courier,monospace" font-size="9.00">CIccInfo::IsProfileIDCalculated()</text>
</g>
<!-- Node0x576a37510900&#45;&gt;Node0x576a373b71d0 -->
<g id="edge19" class="edge">
<title>Node0x576a37510900&#45;&gt;Node0x576a373b71d0</title>
<path fill="none" stroke="#4a6fa5" d="M179.58,-666.91C212.32,-627.47 295.86,-533.22 386,-482 391.62,-478.81 397.62,-475.94 403.78,-473.36"/>
<polygon fill="#4a6fa5" stroke="#4a6fa5" points="404.69,-475.25 409.48,-471.07 403.13,-471.36 404.69,-475.25"/>
</g>
<!-- Node0x576a373bb3c0 -->
<g id="node33" class="node">
<title>Node0x576a373bb3c0</title>
<path fill="#f0f4ff" stroke="black" d="M533.5,-1167C533.5,-1167 434.5,-1167 434.5,-1167 428.5,-1167 422.5,-1161 422.5,-1155 422.5,-1155 422.5,-1143 422.5,-1143 422.5,-1137 428.5,-1131 434.5,-1131 434.5,-1131 533.5,-1131 533.5,-1131 539.5,-1131 545.5,-1137 545.5,-1143 545.5,-1143 545.5,-1155 545.5,-1155 545.5,-1161 539.5,-1167 533.5,-1167"/>
<text text-anchor="middle" x="484" y="-1146.8" font-family="Courier,monospace" font-size="9.00">CIccInfo::~CIccInfo()</text>
</g>
<!-- Node0x576a37510900&#45;&gt;Node0x576a373bb3c0 -->
<g id="edge20" class="edge">
<title>Node0x576a37510900&#45;&gt;Node0x576a373bb3c0</title>
<path fill="none" stroke="#4a6fa5" d="M168.79,-703.09C183.66,-769.42 244.24,-1001.66 386,-1120 394.85,-1127.39 405.53,-1132.89 416.52,-1136.99"/>
<polygon fill="#4a6fa5" stroke="#4a6fa5" points="415.93,-1139.01 422.29,-1139.01 417.32,-1135.05 415.93,-1139.01"/>
</g>
<!-- Node0x576a373b6f80 -->
<g id="node34" class="node">
<title>Node0x576a373b6f80</title>
<path fill="#f0f4ff" stroke="black" d="M541.5,-413C541.5,-413 426.5,-413 426.5,-413 420.5,-413 414.5,-407 414.5,-401 414.5,-401 414.5,-389 414.5,-389 414.5,-383 420.5,-377 426.5,-377 426.5,-377 541.5,-377 541.5,-377 547.5,-377 553.5,-383 553.5,-389 553.5,-389 553.5,-401 553.5,-401 553.5,-407 547.5,-413 541.5,-413"/>
<text text-anchor="middle" x="484" y="-392.8" font-family="Courier,monospace" font-size="9.00">CIccInfo::GetProfileID()</text>
</g>
<!-- Node0x576a37510900&#45;&gt;Node0x576a373b6f80 -->
<g id="edge21" class="edge">
<title>Node0x576a37510900&#45;&gt;Node0x576a373b6f80</title>
<path fill="none" stroke="#4a6fa5" d="M175.28,-666.68C202.92,-619.16 283.65,-490.96 386,-424 393.05,-419.39 400.86,-415.48 408.9,-412.19"/>
<polygon fill="#4a6fa5" stroke="#4a6fa5" points="409.67,-414.14 414.5,-410 408.15,-410.23 409.67,-414.14"/>
</g>
<!-- Node0x576a373b9b90 -->
<g id="node35" class="node">
<title>Node0x576a373b9b90</title>
<path fill="#f0f4ff" stroke="black" d="M512.5,-355C512.5,-355 455.5,-355 455.5,-355 449.5,-355 443.5,-349 443.5,-343 443.5,-343 443.5,-331 443.5,-331 443.5,-325 449.5,-319 455.5,-319 455.5,-319 512.5,-319 512.5,-319 518.5,-319 524.5,-325 524.5,-331 524.5,-331 524.5,-343 524.5,-343 524.5,-349 518.5,-355 512.5,-355"/>
<text text-anchor="middle" x="484" y="-334.8" font-family="Courier,monospace" font-size="9.00">fillColumns()</text>
</g>
<!-- Node0x576a37510900&#45;&gt;Node0x576a373b9b90 -->
<g id="edge22" class="edge">
<title>Node0x576a37510900&#45;&gt;Node0x576a373b9b90</title>
<path fill="none" stroke="#4a6fa5" d="M172.42,-666.63C195.42,-612.06 270.94,-449.49 386,-366 400.95,-355.15 419.97,-348.32 437.21,-344.04"/>
<polygon fill="#4a6fa5" stroke="#4a6fa5" points="438.1,-345.99 443.46,-342.58 437.14,-341.9 438.1,-345.99"/>
</g>
<!-- Node0x576a373b6620 -->
<g id="node36" class="node">
<title>Node0x576a373b6620</title>
<path fill="#f0f4ff" stroke="black" d="M554.5,-297C554.5,-297 413.5,-297 413.5,-297 407.5,-297 401.5,-291 401.5,-285 401.5,-285 401.5,-273 401.5,-273 401.5,-267 407.5,-261 413.5,-261 413.5,-261 554.5,-261 554.5,-261 560.5,-261 566.5,-267 566.5,-273 566.5,-273 566.5,-285 566.5,-285 566.5,-291 560.5,-297 554.5,-297"/>
<text text-anchor="middle" x="484" y="-276.8" font-family="Courier,monospace" font-size="9.00">CIccInfo::GetDeviceAttrName()</text>
</g>
<!-- Node0x576a37510900&#45;&gt;Node0x576a373b6620 -->
<g id="edge23" class="edge">
<title>Node0x576a37510900&#45;&gt;Node0x576a373b6620</title>
<path fill="none" stroke="#4a6fa5" d="M170.32,-666.84C189.02,-606.17 257.7,-408.72 386,-308 389.79,-305.02 393.88,-302.35 398.17,-299.95"/>
<polygon fill="#4a6fa5" stroke="#4a6fa5" points="399.35,-301.71 403.69,-297.06 397.4,-297.99 399.35,-301.71"/>
</g>
<!-- Node0x576a373b7de0 -->
<g id="node37" class="node">
<title>Node0x576a373b7de0</title>
<path fill="#f0f4ff" stroke="black" d="M504.5,-239C504.5,-239 463.5,-239 463.5,-239 457.5,-239 451.5,-233 451.5,-227 451.5,-227 451.5,-215 451.5,-215 451.5,-209 457.5,-203 463.5,-203 463.5,-203 504.5,-203 504.5,-203 510.5,-203 516.5,-209 516.5,-215 516.5,-215 516.5,-227 516.5,-227 516.5,-233 510.5,-239 504.5,-239"/>
<text text-anchor="middle" x="484" y="-218.8" font-family="Courier,monospace" font-size="9.00">icGetSig()</text>
</g>
<!-- Node0x576a37510900&#45;&gt;Node0x576a373b7de0 -->
<g id="edge24" class="edge">
<title>Node0x576a37510900&#45;&gt;Node0x576a373b7de0</title>
<path fill="none" stroke="#4a6fa5" d="M168.79,-666.91C183.66,-600.58 244.24,-368.34 386,-250 402.63,-236.12 425.73,-228.88 445.22,-225.11"/>
<polygon fill="#4a6fa5" stroke="#4a6fa5" points="445.6,-227.17 451.14,-224.04 444.86,-223.04 445.6,-227.17"/>
</g>
<!-- Node0x576a37510e00 -->
<g id="node38" class="node">
<title>Node0x576a37510e00</title>
<path fill="#f0f4ff" stroke="black" d="M544,-181C544,-181 424,-181 424,-181 418,-181 412,-175 412,-169 412,-169 412,-157 412,-157 412,-151 418,-145 424,-145 424,-145 544,-145 544,-145 550,-145 556,-151 556,-157 556,-157 556,-169 556,-169 556,-175 550,-181 544,-181"/>
<text text-anchor="middle" x="484" y="-160.8" font-family="Courier,monospace" font-size="9.00">CIccInfo::GetCmmSigName()</text>
</g>
<!-- Node0x576a37510900&#45;&gt;Node0x576a37510e00 -->
<g id="edge25" class="edge">
<title>Node0x576a37510900&#45;&gt;Node0x576a37510e00</title>
<path fill="none" stroke="#4a6fa5" d="M167.68,-666.57C179.15,-594.36 230.86,-328.06 386,-192 392,-186.74 398.93,-182.43 406.26,-178.9"/>
<polygon fill="#4a6fa5" stroke="#4a6fa5" points="407.33,-180.72 411.94,-176.35 405.61,-176.89 407.33,-180.72"/>
</g>
<!-- Node0x576a373bad30 -->
<g id="node39" class="node">
<title>Node0x576a373bad30</title>
<path fill="#f0f4ff" stroke="black" d="M544,-1109C544,-1109 424,-1109 424,-1109 418,-1109 412,-1103 412,-1097 412,-1097 412,-1085 412,-1085 412,-1079 418,-1073 424,-1073 424,-1073 544,-1073 544,-1073 550,-1073 556,-1079 556,-1085 556,-1085 556,-1097 556,-1097 556,-1103 550,-1109 544,-1109"/>
<text text-anchor="middle" x="484" y="-1088.8" font-family="Courier,monospace" font-size="9.00">CIccInfo::GetTagSigName()</text>
</g>
<!-- Node0x576a37510900&#45;&gt;Node0x576a373bad30 -->
<g id="edge26" class="edge">
<title>Node0x576a37510900&#45;&gt;Node0x576a373bad30</title>
<path fill="none" stroke="#4a6fa5" d="M170.32,-703.16C189.02,-763.83 257.7,-961.28 386,-1062 392.06,-1066.76 398.89,-1070.73 406.04,-1074.06"/>
<polygon fill="#4a6fa5" stroke="#4a6fa5" points="405.23,-1076 411.57,-1076.48 406.92,-1072.15 405.23,-1076"/>
</g>
<!-- Node0x576a373b7fb0 -->
<g id="node40" class="node">
<title>Node0x576a373b7fb0</title>
<path fill="#f0f4ff" stroke="black" d="M562.5,-1051C562.5,-1051 405.5,-1051 405.5,-1051 399.5,-1051 393.5,-1045 393.5,-1039 393.5,-1039 393.5,-1027 393.5,-1027 393.5,-1021 399.5,-1015 405.5,-1015 405.5,-1015 562.5,-1015 562.5,-1015 568.5,-1015 574.5,-1021 574.5,-1027 574.5,-1027 574.5,-1039 574.5,-1039 574.5,-1045 568.5,-1051 562.5,-1051"/>
<text text-anchor="middle" x="484" y="-1030.8" font-family="Courier,monospace" font-size="9.00">CIccInfo::GetColorSpaceSigName()</text>
</g>
<!-- Node0x576a37510900&#45;&gt;Node0x576a373b7fb0 -->
<g id="edge27" class="edge">
<title>Node0x576a37510900&#45;&gt;Node0x576a373b7fb0</title>
<path fill="none" stroke="#4a6fa5" d="M172.42,-703.37C195.42,-757.94 270.94,-920.51 386,-1004 390.19,-1007.04 394.7,-1009.77 399.41,-1012.21"/>
<polygon fill="#4a6fa5" stroke="#4a6fa5" points="398.7,-1014.2 405.01,-1014.95 400.54,-1010.43 398.7,-1014.2"/>
</g>
<!-- Node0x576a373b8fe0 -->
<g id="node41" class="node">
<title>Node0x576a373b8fe0</title>
<path fill="#f0f4ff" stroke="black" d="M559.5,-993C559.5,-993 408.5,-993 408.5,-993 402.5,-993 396.5,-987 396.5,-981 396.5,-981 396.5,-969 396.5,-969 396.5,-963 402.5,-957 408.5,-957 408.5,-957 559.5,-957 559.5,-957 565.5,-957 571.5,-963 571.5,-969 571.5,-969 571.5,-981 571.5,-981 571.5,-987 565.5,-993 559.5,-993"/>
<text text-anchor="middle" x="484" y="-972.8" font-family="Courier,monospace" font-size="9.00">CIccInfo::GetProfileFlagsName()</text>
</g>
<!-- Node0x576a37510900&#45;&gt;Node0x576a373b8fe0 -->
<g id="edge31" class="edge">
<title>Node0x576a37510900&#45;&gt;Node0x576a373b8fe0</title>
<path fill="none" stroke="#4a6fa5" d="M175.28,-703.32C202.92,-750.84 283.65,-879.04 386,-946 390.75,-949.11 395.85,-951.9 401.13,-954.39"/>
<polygon fill="#4a6fa5" stroke="#4a6fa5" points="400.59,-956.45 406.93,-956.99 402.31,-952.62 400.59,-956.45"/>
</g>
<!-- Node0x576a373b8a50 -->
<g id="node42" class="node">
<title>Node0x576a373b8a50</title>
<path fill="#f0f4ff" stroke="black" d="M557,-935C557,-935 411,-935 411,-935 405,-935 399,-929 399,-923 399,-923 399,-911 399,-911 399,-905 405,-899 411,-899 411,-899 557,-899 557,-899 563,-899 569,-905 569,-911 569,-911 569,-923 569,-923 569,-929 563,-935 557,-935"/>
<text text-anchor="middle" x="484" y="-914.8" font-family="Courier,monospace" font-size="9.00">CIccInfo::GetPlatformSigName()</text>
</g>
<!-- Node0x576a37510900&#45;&gt;Node0x576a373b8a50 -->
<g id="edge36" class="edge">
<title>Node0x576a37510900&#45;&gt;Node0x576a373b8a50</title>
<path fill="none" stroke="#4a6fa5" d="M179.58,-703.09C212.32,-742.53 295.86,-836.78 386,-888 391.62,-891.19 397.62,-894.06 403.78,-896.64"/>
<polygon fill="#4a6fa5" stroke="#4a6fa5" points="403.13,-898.64 409.48,-898.93 404.69,-894.75 403.13,-898.64"/>
</g>
<!-- Node0x576a373bb110 -->
<g id="node43" class="node">
<title>Node0x576a373bb110</title>
<path fill="#f0f4ff" stroke="black" d="M682,-355C682,-355 652,-355 652,-355 646,-355 640,-349 640,-343 640,-343 640,-331 640,-331 640,-325 646,-319 652,-319 652,-319 682,-319 682,-319 688,-319 694,-325 694,-331 694,-331 694,-343 694,-343 694,-349 688,-355 682,-355"/>
<text text-anchor="middle" x="667" y="-334.8" font-family="Courier,monospace" font-size="9.00">c_str()</text>
</g>
<!-- Node0x576a373b9b90&#45;&gt;Node0x576a373bb110 -->
<g id="edge37" class="edge">
<title>Node0x576a373b9b90&#45;&gt;Node0x576a373bb110</title>
<path fill="none" stroke="#4a6fa5" d="M524.72,-337C557.36,-337 603.04,-337 633.53,-337"/>
<polygon fill="#4a6fa5" stroke="#4a6fa5" points="633.79,-339.1 639.79,-337 633.79,-334.9 633.79,-339.1"/>
</g>
<!-- Node0x576a3751a530 -->
<g id="node44" class="node">
<title>Node0x576a3751a530</title>
<path fill="#f0f4ff" stroke="black" d="M247.5,-1341C247.5,-1341 80.5,-1341 80.5,-1341 74.5,-1341 68.5,-1335 68.5,-1329 68.5,-1329 68.5,-1317 68.5,-1317 68.5,-1311 74.5,-1305 80.5,-1305 80.5,-1305 247.5,-1305 247.5,-1305 253.5,-1305 259.5,-1311 259.5,-1317 259.5,-1317 259.5,-1329 259.5,-1329 259.5,-1335 253.5,-1341 247.5,-1341"/>
<text text-anchor="middle" x="164" y="-1320.8" font-family="Courier,monospace" font-size="9.00">CIccTagEmbeddedProfile::Validate()</text>
</g>
<!-- Node0x576a3751a530&#45;&gt;Node0x576a373b76f0 -->
<g id="edge39" class="edge">
<title>Node0x576a3751a530&#45;&gt;Node0x576a373b76f0</title>
<path fill="none" stroke="#4a6fa5" d="M207.79,-1304.91C252.02,-1286.51 323.26,-1257.69 386,-1236 396.61,-1232.33 407.96,-1228.69 419.03,-1225.29"/>
<polygon fill="#4a6fa5" stroke="#4a6fa5" points="419.66,-1227.29 424.78,-1223.53 418.43,-1223.28 419.66,-1227.29"/>
</g>
<!-- Node0x576a3751a530&#45;&gt;Node0x576a373bb3c0 -->
<g id="edge40" class="edge">
<title>Node0x576a3751a530&#45;&gt;Node0x576a373bb3c0</title>
<path fill="none" stroke="#4a6fa5" d="M187.55,-1304.97C226.14,-1274.89 308.2,-1214.21 386,-1178 395.68,-1173.49 406.23,-1169.49 416.69,-1166.01"/>
<polygon fill="#4a6fa5" stroke="#4a6fa5" points="417.43,-1167.98 422.48,-1164.13 416.13,-1163.99 417.43,-1167.98"/>
</g>
<!-- Node0x576a37517810 -->
<g id="node45" class="node">
<title>Node0x576a37517810</title>
<path fill="#f0f4ff" stroke="black" d="M528,-1399C528,-1399 440,-1399 440,-1399 434,-1399 428,-1393 428,-1387 428,-1387 428,-1375 428,-1375 428,-1369 434,-1363 440,-1363 440,-1363 528,-1363 528,-1363 534,-1363 540,-1369 540,-1375 540,-1375 540,-1387 540,-1387 540,-1393 534,-1399 528,-1399"/>
<text text-anchor="middle" x="484" y="-1378.8" font-family="Courier,monospace" font-size="9.00">CIccTag::Validate()</text>
</g>
<!-- Node0x576a3751a530&#45;&gt;Node0x576a37517810 -->
<g id="edge38" class="edge">
<title>Node0x576a3751a530&#45;&gt;Node0x576a37517810</title>
<path fill="none" stroke="#4a6fa5" d="M259.55,-1340.24C311.94,-1349.8 375.57,-1361.4 421.5,-1369.78"/>
<polygon fill="#4a6fa5" stroke="#4a6fa5" points="421.3,-1371.88 427.58,-1370.89 422.06,-1367.75 421.3,-1371.88"/>
</g>
<!-- Node0x576a37517e50 -->
<g id="node46" class="node">
<title>Node0x576a37517e50</title>
<path fill="#f0f4ff" stroke="black" d="M546.5,-1341C546.5,-1341 421.5,-1341 421.5,-1341 415.5,-1341 409.5,-1335 409.5,-1329 409.5,-1329 409.5,-1317 409.5,-1317 409.5,-1311 415.5,-1305 421.5,-1305 421.5,-1305 546.5,-1305 546.5,-1305 552.5,-1305 558.5,-1311 558.5,-1317 558.5,-1317 558.5,-1329 558.5,-1329 558.5,-1335 552.5,-1341 546.5,-1341"/>
<text text-anchor="middle" x="484" y="-1320.8" font-family="Courier,monospace" font-size="9.00">CIccInfo::GetSigPathName()</text>
</g>
<!-- Node0x576a3751a530&#45;&gt;Node0x576a37517e50 -->
<g id="edge41" class="edge">
<title>Node0x576a3751a530&#45;&gt;Node0x576a37517e50</title>
<path fill="none" stroke="#4a6fa5" d="M259.55,-1323C305.27,-1323 359.56,-1323 403.17,-1323"/>
<polygon fill="#4a6fa5" stroke="#4a6fa5" points="403.26,-1325.1 409.26,-1323 403.26,-1320.9 403.26,-1325.1"/>
</g>
<!-- Node0x576a375180d0 -->
<g id="node47" class="node">
<title>Node0x576a375180d0</title>
<path fill="#f0f4ff" stroke="black" d="M512.5,-1283C512.5,-1283 455.5,-1283 455.5,-1283 449.5,-1283 443.5,-1277 443.5,-1271 443.5,-1271 443.5,-1259 443.5,-1259 443.5,-1253 449.5,-1247 455.5,-1247 455.5,-1247 512.5,-1247 512.5,-1247 518.5,-1247 524.5,-1253 524.5,-1259 524.5,-1259 524.5,-1271 524.5,-1271 524.5,-1277 518.5,-1283 512.5,-1283"/>
<text text-anchor="middle" x="484" y="-1262.8" font-family="Courier,monospace" font-size="9.00">icMaxStatus()</text>
</g>
<!-- Node0x576a3751a530&#45;&gt;Node0x576a375180d0 -->
<g id="edge42" class="edge">
<title>Node0x576a3751a530&#45;&gt;Node0x576a375180d0</title>
<path fill="none" stroke="#4a6fa5" d="M259.55,-1305.76C318.25,-1295.05 391.05,-1281.77 437.28,-1273.34"/>
<polygon fill="#4a6fa5" stroke="#4a6fa5" points="437.81,-1275.38 443.34,-1272.23 437.06,-1271.24 437.81,-1275.38"/>
</g>
<!-- Node0x576a3751b630 -->
<g id="node48" class="node">
<title>Node0x576a3751b630</title>
<path fill="#f0f4ff" stroke="black" d="M528,-1515C528,-1515 440,-1515 440,-1515 434,-1515 428,-1509 428,-1503 428,-1503 428,-1491 428,-1491 428,-1485 434,-1479 440,-1479 440,-1479 528,-1479 528,-1479 534,-1479 540,-1485 540,-1491 540,-1491 540,-1503 540,-1503 540,-1509 534,-1515 528,-1515"/>
<text text-anchor="middle" x="484" y="-1494.8" font-family="Courier,monospace" font-size="9.00">icGetSpaceSamples()</text>
</g>
<!-- Node0x576a3751a530&#45;&gt;Node0x576a3751b630 -->
<g id="edge43" class="edge">
<title>Node0x576a3751a530&#45;&gt;Node0x576a3751b630</title>
<path fill="none" stroke="#4a6fa5" d="M259.63,-1334.62C283.69,-1340.99 308.28,-1350.83 328,-1366 369.33,-1397.8 345.19,-1435.53 386,-1468 396.44,-1476.3 409.21,-1482.23 422.01,-1486.47"/>
<polygon fill="#4a6fa5" stroke="#4a6fa5" points="421.54,-1488.52 427.89,-1488.29 422.78,-1484.51 421.54,-1488.52"/>
</g>
<!-- Node0x576a37519850 -->
<g id="node49" class="node">
<title>Node0x576a37519850</title>
<path fill="#f0f4ff" stroke="black" d="M538.5,-1457C538.5,-1457 429.5,-1457 429.5,-1457 423.5,-1457 417.5,-1451 417.5,-1445 417.5,-1445 417.5,-1433 417.5,-1433 417.5,-1427 423.5,-1421 429.5,-1421 429.5,-1421 538.5,-1421 538.5,-1421 544.5,-1421 550.5,-1427 550.5,-1433 550.5,-1433 550.5,-1445 550.5,-1445 550.5,-1451 544.5,-1457 538.5,-1457"/>
<text text-anchor="middle" x="484" y="-1436.8" font-family="Courier,monospace" font-size="9.00">CIccProfile::Validate()</text>
</g>
<!-- Node0x576a3751a530&#45;&gt;Node0x576a37519850 -->
<g id="edge44" class="edge">
<title>Node0x576a3751a530&#45;&gt;Node0x576a37519850</title>
<path fill="none" stroke="#4a6fa5" d="M258.64,-1341.02C281.95,-1347.3 306.43,-1355.49 328,-1366 357.09,-1380.17 357.15,-1395.35 386,-1410 394.04,-1414.08 402.74,-1417.69 411.53,-1420.85"/>
<polygon fill="#4a6fa5" stroke="#4a6fa5" points="410.95,-1422.87 417.31,-1422.86 412.34,-1418.91 410.95,-1422.87"/>
</g>
<!-- Node0x576a37519fb0 -->
<g id="node50" class="node">
<title>Node0x576a37519fb0</title>
<path fill="#f0f4ff" stroke="black" d="M245,-2211C245,-2211 83,-2211 83,-2211 77,-2211 71,-2205 71,-2199 71,-2199 71,-2187 71,-2187 71,-2181 77,-2175 83,-2175 83,-2175 245,-2175 245,-2175 251,-2175 257,-2181 257,-2187 257,-2187 257,-2199 257,-2199 257,-2205 251,-2211 245,-2211"/>
<text text-anchor="middle" x="164" y="-2190.8" font-family="Courier,monospace" font-size="9.00">CIccTagEmbeddedProfile::NewCopy()</text>
</g>
<!-- Node0x576a3751a330 -->
<g id="node51" class="node">
<title>Node0x576a3751a330</title>
<path fill="#f0f4ff" stroke="black" d="M245,-2269C245,-2269 83,-2269 83,-2269 77,-2269 71,-2263 71,-2257 71,-2257 71,-2245 71,-2245 71,-2239 77,-2233 83,-2233 83,-2233 245,-2233 245,-2233 251,-2233 257,-2239 257,-2245 257,-2245 257,-2257 257,-2257 257,-2263 251,-2269 245,-2269"/>
<text text-anchor="middle" x="164" y="-2248.8" font-family="Courier,monospace" font-size="9.00">CIccTagEmbeddedProfile::GetType()</text>
</g>
<!-- Node0x576a3751ac30 -->
<g id="node52" class="node">
<title>Node0x576a3751ac30</title>
<path fill="#f0f4ff" stroke="black" d="M229,-2327C229,-2327 99,-2327 99,-2327 93,-2327 87,-2321 87,-2315 87,-2315 87,-2303 87,-2303 87,-2297 93,-2291 99,-2291 99,-2291 229,-2291 229,-2291 235,-2291 241,-2297 241,-2303 241,-2303 241,-2315 241,-2315 241,-2321 235,-2327 229,-2327"/>
<text text-anchor="middle" x="164" y="-2306.8" font-family="Courier,monospace" font-size="9.00">CIccTag::GetTagStructType()</text>
</g>
<!-- Node0x576a3751f320 -->
<g id="node53" class="node">
<title>Node0x576a3751f320</title>
<path fill="#f0f4ff" stroke="black" d="M226.5,-2385C226.5,-2385 101.5,-2385 101.5,-2385 95.5,-2385 89.5,-2379 89.5,-2373 89.5,-2373 89.5,-2361 89.5,-2361 89.5,-2355 95.5,-2349 101.5,-2349 101.5,-2349 226.5,-2349 226.5,-2349 232.5,-2349 238.5,-2355 238.5,-2361 238.5,-2361 238.5,-2373 238.5,-2373 238.5,-2379 232.5,-2385 226.5,-2385"/>
<text text-anchor="middle" x="164" y="-2364.8" font-family="Courier,monospace" font-size="9.00">CIccTag::GetTagArrayType()</text>
</g>
<!-- Node0x576a375204a0 -->
<g id="node54" class="node">
<title>Node0x576a375204a0</title>
<path fill="#f0f4ff" stroke="black" d="M216,-2443C216,-2443 112,-2443 112,-2443 106,-2443 100,-2437 100,-2431 100,-2431 100,-2419 100,-2419 100,-2413 106,-2407 112,-2407 112,-2407 216,-2407 216,-2407 222,-2407 228,-2413 228,-2419 228,-2419 228,-2431 228,-2431 228,-2437 222,-2443 216,-2443"/>
<text text-anchor="middle" x="164" y="-2422.8" font-family="Courier,monospace" font-size="9.00">CIccTag::IsArrayType()</text>
</g>
<!-- Node0x576a3751ffa0 -->
<g id="node55" class="node">
<title>Node0x576a3751ffa0</title>
<path fill="#f0f4ff" stroke="black" d="M211,-2501C211,-2501 117,-2501 117,-2501 111,-2501 105,-2495 105,-2489 105,-2489 105,-2477 105,-2477 105,-2471 111,-2465 117,-2465 117,-2465 211,-2465 211,-2465 217,-2465 223,-2471 223,-2477 223,-2477 223,-2489 223,-2489 223,-2495 217,-2501 211,-2501"/>
<text text-anchor="middle" x="164" y="-2480.8" font-family="Courier,monospace" font-size="9.00">CIccTag::IsMBBType()</text>
</g>
<!-- Node0x576a3751fbe0 -->
<g id="node56" class="node">
<title>Node0x576a3751fbe0</title>
<path fill="#f0f4ff" stroke="black" d="M224,-2559C224,-2559 104,-2559 104,-2559 98,-2559 92,-2553 92,-2547 92,-2547 92,-2535 92,-2535 92,-2529 98,-2523 104,-2523 104,-2523 224,-2523 224,-2523 230,-2523 236,-2529 236,-2535 236,-2535 236,-2547 236,-2547 236,-2553 230,-2559 224,-2559"/>
<text text-anchor="middle" x="164" y="-2538.8" font-family="Courier,monospace" font-size="9.00">CIccTag::IsNumArrayType()</text>
</g>
<!-- Node0x576a3751ff20 -->
<g id="node57" class="node">
<title>Node0x576a3751ff20</title>
<path fill="#f0f4ff" stroke="black" d="M258,-2617C258,-2617 70,-2617 70,-2617 64,-2617 58,-2611 58,-2605 58,-2605 58,-2593 58,-2593 58,-2587 64,-2581 70,-2581 70,-2581 258,-2581 258,-2581 264,-2581 270,-2587 270,-2593 270,-2593 270,-2605 270,-2605 270,-2611 264,-2617 258,-2617"/>
<text text-anchor="middle" x="164" y="-2596.8" font-family="Courier,monospace" font-size="9.00">CIccTagEmbeddedProfile::GetClassName()</text>
</g>
<!-- Node0x576a3751e9e0 -->
<g id="node58" class="node">
<title>Node0x576a3751e9e0</title>
<path fill="#f0f4ff" stroke="black" d="M218.5,-2675C218.5,-2675 109.5,-2675 109.5,-2675 103.5,-2675 97.5,-2669 97.5,-2663 97.5,-2663 97.5,-2651 97.5,-2651 97.5,-2645 103.5,-2639 109.5,-2639 109.5,-2639 218.5,-2639 218.5,-2639 224.5,-2639 230.5,-2645 230.5,-2651 230.5,-2651 230.5,-2663 230.5,-2663 230.5,-2669 224.5,-2675 218.5,-2675"/>
<text text-anchor="middle" x="164" y="-2654.8" font-family="Courier,monospace" font-size="9.00">CIccTag::GetExtension()</text>
</g>
<!-- Node0x576a37517950 -->
<g id="node59" class="node">
<title>Node0x576a37517950</title>
<path fill="#f0f4ff" stroke="black" d="M255.5,-2733C255.5,-2733 72.5,-2733 72.5,-2733 66.5,-2733 60.5,-2727 60.5,-2721 60.5,-2721 60.5,-2709 60.5,-2709 60.5,-2703 66.5,-2697 72.5,-2697 72.5,-2697 255.5,-2697 255.5,-2697 261.5,-2697 267.5,-2703 267.5,-2709 267.5,-2709 267.5,-2721 267.5,-2721 267.5,-2727 261.5,-2733 255.5,-2733"/>
<text text-anchor="middle" x="164" y="-2712.8" font-family="Courier,monospace" font-size="9.00">CIccTagEmbeddedProfile::IsSupported()</text>
</g>
<!-- Node0x576a3751fca0 -->
<g id="node60" class="node">
<title>Node0x576a3751fca0</title>
<path fill="#f0f4ff" stroke="black" d="M237,-2791C237,-2791 91,-2791 91,-2791 85,-2791 79,-2785 79,-2779 79,-2779 79,-2767 79,-2767 79,-2761 85,-2755 91,-2755 91,-2755 237,-2755 237,-2755 243,-2755 249,-2761 249,-2767 249,-2767 249,-2779 249,-2779 249,-2785 243,-2791 237,-2791"/>
<text text-anchor="middle" x="164" y="-2770.8" font-family="Courier,monospace" font-size="9.00">CIccTagEmbeddedProfile::Read()</text>
</g>
<!-- Node0x576a37520520 -->
<g id="node61" class="node">
<title>Node0x576a37520520</title>
<path fill="#f0f4ff" stroke="black" d="M208,-2849C208,-2849 120,-2849 120,-2849 114,-2849 108,-2843 108,-2837 108,-2837 108,-2825 108,-2825 108,-2819 114,-2813 120,-2813 120,-2813 208,-2813 208,-2813 214,-2813 220,-2819 220,-2825 220,-2825 220,-2837 220,-2837 220,-2843 214,-2849 208,-2849"/>
<text text-anchor="middle" x="164" y="-2828.8" font-family="Courier,monospace" font-size="9.00">CIccTag::DetachIO()</text>
</g>
<!-- Node0x576a37517d10 -->
<g id="node62" class="node">
<title>Node0x576a37517d10</title>
<path fill="#f0f4ff" stroke="black" d="M253,-2907C253,-2907 75,-2907 75,-2907 69,-2907 63,-2901 63,-2895 63,-2895 63,-2883 63,-2883 63,-2877 69,-2871 75,-2871 75,-2871 253,-2871 253,-2871 259,-2871 265,-2877 265,-2883 265,-2883 265,-2895 265,-2895 265,-2901 259,-2907 253,-2907"/>
<text text-anchor="middle" x="164" y="-2886.8" font-family="Courier,monospace" font-size="9.00">CIccTagEmbeddedProfile::GetProfile()</text>
</g>
<!-- Node0x576a37519050 -->
<g id="node63" class="node">
<title>Node0x576a37519050</title>
<path fill="#f0f4ff" stroke="black" d="M179.5,-2965C179.5,-2965 148.5,-2965 148.5,-2965 142.5,-2965 136.5,-2959 136.5,-2953 136.5,-2953 136.5,-2941 136.5,-2941 136.5,-2935 142.5,-2929 148.5,-2929 148.5,-2929 179.5,-2929 179.5,-2929 185.5,-2929 191.5,-2935 191.5,-2941 191.5,-2941 191.5,-2953 191.5,-2953 191.5,-2959 185.5,-2965 179.5,-2965"/>
<text text-anchor="middle" x="164" y="-2944.8" font-family="Courier,monospace" font-size="9.00">length()</text>
</g>
<!-- Node0x576a3751df90 -->
<g id="node64" class="node">
<title>Node0x576a3751df90</title>
<path fill="#f0f4ff" stroke="black" d="M200.5,-3023C200.5,-3023 127.5,-3023 127.5,-3023 121.5,-3023 115.5,-3017 115.5,-3011 115.5,-3011 115.5,-2999 115.5,-2999 115.5,-2993 121.5,-2987 127.5,-2987 127.5,-2987 200.5,-2987 200.5,-2987 206.5,-2987 212.5,-2993 212.5,-2999 212.5,-2999 212.5,-3011 212.5,-3011 212.5,-3017 206.5,-3023 200.5,-3023"/>
<text text-anchor="middle" x="164" y="-3002.8" font-family="Courier,monospace" font-size="9.00">_Guard::_Guard()</text>
</g>
<!-- Node0x576a37537160 -->
<g id="node65" class="node">
<title>Node0x576a37537160</title>
<path fill="#f0f4ff" stroke="black" d="M203,-3081C203,-3081 125,-3081 125,-3081 119,-3081 113,-3075 113,-3069 113,-3069 113,-3057 113,-3057 113,-3051 119,-3045 125,-3045 125,-3045 203,-3045 203,-3045 209,-3045 215,-3051 215,-3057 215,-3057 215,-3069 215,-3069 215,-3075 209,-3081 203,-3081"/>
<text text-anchor="middle" x="164" y="-3060.8" font-family="Courier,monospace" font-size="9.00">_Guard::~_Guard()</text>
</g>
<!-- Node0x576a374a7640 -->
<g id="node66" class="node">
<title>Node0x576a374a7640</title>
<path fill="#f0f4ff" stroke="black" d="M179.5,-3139C179.5,-3139 148.5,-3139 148.5,-3139 142.5,-3139 136.5,-3133 136.5,-3127 136.5,-3127 136.5,-3115 136.5,-3115 136.5,-3109 142.5,-3103 148.5,-3103 148.5,-3103 179.5,-3103 179.5,-3103 185.5,-3103 191.5,-3109 191.5,-3115 191.5,-3115 191.5,-3127 191.5,-3127 191.5,-3133 185.5,-3139 179.5,-3139"/>
<text text-anchor="middle" x="164" y="-3118.8" font-family="Courier,monospace" font-size="9.00">append()</text>
</g>
</g>
</svg>
