<?xml version="1.0" encoding="UTF-8" standalone="no"?>
<!DOCTYPE svg PUBLIC "-//W3C//DTD SVG 1.1//EN"
 "http://www.w3.org/Graphics/SVG/1.1/DTD/svg11.dtd">
<!-- Generated by graphviz version 2.43.0 (0)
 -->
<!-- Title: Call graph: /home/h02332/po/research/call&#45;graph/iccdev/proflib/IccWrapper.ll Pages: 1 -->
<svg width="8504pt" height="287pt"
 viewBox="0.00 0.00 8504.00 287.00" xmlns="http://www.w3.org/2000/svg" xmlns:xlink="http://www.w3.org/1999/xlink">
<g id="graph0" class="graph" transform="scale(1 1) rotate(0) translate(4 283)">
<title>Call graph: /home/h02332/po/research/call&#45;graph/iccdev/proflib/IccWrapper.ll</title>
<polygon fill="white" stroke="transparent" points="-4,4 -4,-283 8500,-283 8500,4 -4,4"/>
<text text-anchor="middle" x="4248" y="-7.8" font-family="Times,serif" font-size="14.00">Call graph: /home/h02332/po/research/call&#45;graph/iccdev/proflib/IccWrapper.ll</text>
<!-- Node0x59ac9f4641f0 -->
<g id="node1" class="node">
<title>Node0x59ac9f4641f0</title>
<polygon fill="none" stroke="black" points="0,-242.5 0,-278.5 507,-278.5 507,-242.5 0,-242.5"/>
<text text-anchor="middle" x="253.5" y="-256.8" font-family="Times,serif" font-size="14.00">_ZN21CIccCmmEnvVarsWrapper9GetEnvVarE14icSigCmmEnvVarRf</text>
</g>
<!-- Node0x59ac9f456030 -->
<g id="node2" class="node">
<title>Node0x59ac9f456030</title>
<polygon fill="none" stroke="black" points="525,-242.5 525,-278.5 1088,-278.5 1088,-242.5 525,-242.5"/>
<text text-anchor="middle" x="806.5" y="-256.8" font-family="Times,serif" font-size="14.00">_ZN21CIccCmmEnvVarsWrapper13IndexedEnvVarEjR14icSigCmmEnvVarRf</text>
</g>
<!-- Node0x59ac9f452480 -->
<g id="node3" class="node">
<title>Node0x59ac9f452480</title>
<polygon fill="none" stroke="black" points="2387.5,-242.5 2387.5,-278.5 2509.5,-278.5 2509.5,-242.5 2387.5,-242.5"/>
<text text-anchor="middle" x="2448.5" y="-256.8" font-family="Times,serif" font-size="14.00">IccCmmCreate</text>
</g>
<!-- Node0x59ac9f45fd90 -->
<g id="node4" class="node">
<title>Node0x59ac9f45fd90</title>
<polygon fill="none" stroke="black" points="2283.5,-169.5 2283.5,-205.5 2351.5,-205.5 2351.5,-169.5 2283.5,-169.5"/>
<text text-anchor="middle" x="2317.5" y="-183.8" font-family="Times,serif" font-size="14.00">_Znwm</text>
</g>
<!-- Node0x59ac9f452480&#45;&gt;Node0x59ac9f45fd90 -->
<g id="edge1" class="edge">
<title>Node0x59ac9f452480&#45;&gt;Node0x59ac9f45fd90</title>
<path fill="none" stroke="black" d="M2417.12,-242.49C2399.43,-232.9 2377.13,-220.82 2358.11,-210.51"/>
<polygon fill="black" stroke="black" points="2359.54,-207.3 2349.08,-205.61 2356.2,-213.46 2359.54,-207.3"/>
</g>
<!-- Node0x59ac9f446620 -->
<g id="node5" class="node">
<title>Node0x59ac9f446620</title>
<polygon fill="none" stroke="black" points="2369.5,-169.5 2369.5,-205.5 2737.5,-205.5 2737.5,-169.5 2369.5,-169.5"/>
<text text-anchor="middle" x="2553.5" y="-183.8" font-family="Times,serif" font-size="14.00">_ZN7CIccCmmC1E21icColorSpaceSignatureS0_b</text>
</g>
<!-- Node0x59ac9f452480&#45;&gt;Node0x59ac9f446620 -->
<g id="edge2" class="edge">
<title>Node0x59ac9f452480&#45;&gt;Node0x59ac9f446620</title>
<path fill="none" stroke="black" d="M2473.65,-242.49C2487.45,-233.17 2504.74,-221.47 2519.7,-211.36"/>
<polygon fill="black" stroke="black" points="2521.87,-214.11 2528.19,-205.61 2517.95,-208.32 2521.87,-214.11"/>
</g>
<!-- Node0x59ac9f445620 -->
<g id="node6" class="node">
<title>Node0x59ac9f445620</title>
<polygon fill="none" stroke="black" points="2756,-169.5 2756,-205.5 2821,-205.5 2821,-169.5 2756,-169.5"/>
<text text-anchor="middle" x="2788.5" y="-183.8" font-family="Times,serif" font-size="14.00">_ZdlPv</text>
</g>
<!-- Node0x59ac9f452480&#45;&gt;Node0x59ac9f445620 -->
<g id="edge3" class="edge">
<title>Node0x59ac9f452480&#45;&gt;Node0x59ac9f445620</title>
<path fill="none" stroke="black" d="M2509.51,-243.91C2512.55,-243.24 2515.55,-242.6 2518.5,-242 2615.89,-222.18 2645.92,-233.18 2745.86,-205.79"/>
<polygon fill="black" stroke="black" points="2747.07,-209.08 2755.75,-203.01 2745.18,-202.34 2747.07,-209.08"/>
</g>
<!-- Node0x59ac9f3c1730 -->
<g id="node7" class="node">
<title>Node0x59ac9f3c1730</title>
<polygon fill="none" stroke="black" points="3917,-242.5 3917,-278.5 4084,-278.5 4084,-242.5 3917,-242.5"/>
<text text-anchor="middle" x="4000.5" y="-256.8" font-family="Times,serif" font-size="14.00">__gxx_personality_v0</text>
</g>
<!-- Node0x59ac9f3ba820 -->
<g id="node8" class="node">
<title>Node0x59ac9f3ba820</title>
<polygon fill="none" stroke="black" points="1416.5,-242.5 1416.5,-278.5 1610.5,-278.5 1610.5,-242.5 1416.5,-242.5"/>
<text text-anchor="middle" x="1513.5" y="-256.8" font-family="Times,serif" font-size="14.00">IccCmmAttachProfileFile</text>
</g>
<!-- Node0x59ac9f3ba820&#45;&gt;Node0x59ac9f45fd90 -->
<g id="edge5" class="edge">
<title>Node0x59ac9f3ba820&#45;&gt;Node0x59ac9f45fd90</title>
<path fill="none" stroke="black" d="M1610.56,-256.49C1782.13,-250.55 2133.29,-235.47 2272.99,-205.85"/>
<polygon fill="black" stroke="black" points="2274.08,-209.2 2283.07,-203.6 2272.55,-202.37 2274.08,-209.2"/>
</g>
<!-- Node0x59ac9f3ba820&#45;&gt;Node0x59ac9f445620 -->
<g id="edge11" class="edge">
<title>Node0x59ac9f3ba820&#45;&gt;Node0x59ac9f445620</title>
<path fill="none" stroke="black" d="M1610.89,-257.24C1876.12,-250.8 2600.55,-231.34 2746.02,-205.35"/>
<polygon fill="black" stroke="black" points="2746.72,-208.78 2755.84,-203.39 2745.35,-201.91 2746.72,-208.78"/>
</g>
<!-- Node0x59ac9f3babb0 -->
<g id="node9" class="node">
<title>Node0x59ac9f3babb0</title>
<polygon fill="none" stroke="black" points="145,-169.5 145,-205.5 464,-205.5 464,-169.5 145,-169.5"/>
<text text-anchor="middle" x="304.5" y="-183.8" font-family="Times,serif" font-size="14.00">_ZN26CIccCreateXformHintManagerC2Ev</text>
</g>
<!-- Node0x59ac9f3ba820&#45;&gt;Node0x59ac9f3babb0 -->
<g id="edge4" class="edge">
<title>Node0x59ac9f3ba820&#45;&gt;Node0x59ac9f3babb0</title>
<path fill="none" stroke="black" d="M1416.43,-249.07C1389.59,-246.46 1360.44,-243.87 1333.5,-242 955.22,-215.71 856.78,-233.4 474.39,-206.03"/>
<polygon fill="black" stroke="black" points="474.37,-202.52 464.15,-205.3 473.87,-209.51 474.37,-202.52"/>
</g>
<!-- Node0x59ac9f3b9a10 -->
<g id="node10" class="node">
<title>Node0x59ac9f3b9a10</title>
<polygon fill="none" stroke="black" points="482.5,-169.5 482.5,-205.5 640.5,-205.5 640.5,-169.5 482.5,-169.5"/>
<text text-anchor="middle" x="561.5" y="-183.8" font-family="Times,serif" font-size="14.00">llvm.memset.p0.i64</text>
</g>
<!-- Node0x59ac9f3ba820&#45;&gt;Node0x59ac9f3b9a10 -->
<g id="edge6" class="edge">
<title>Node0x59ac9f3ba820&#45;&gt;Node0x59ac9f3b9a10</title>
<path fill="none" stroke="black" d="M1416.41,-249.27C1389.58,-246.65 1360.43,-244.02 1333.5,-242 1033.19,-219.51 953.28,-243.26 650.51,-206.02"/>
<polygon fill="black" stroke="black" points="650.92,-202.54 640.57,-204.78 650.06,-209.49 650.92,-202.54"/>
</g>
<!-- Node0x59ac9f3b9b60 -->
<g id="node11" class="node">
<title>Node0x59ac9f3b9b60</title>
<polygon fill="none" stroke="black" points="659,-169.5 659,-205.5 894,-205.5 894,-169.5 659,-169.5"/>
<text text-anchor="middle" x="776.5" y="-183.8" font-family="Times,serif" font-size="14.00">_ZN16CIccApplyBPCHintC2Ev</text>
</g>
<!-- Node0x59ac9f3ba820&#45;&gt;Node0x59ac9f3b9b60 -->
<g id="edge7" class="edge">
<title>Node0x59ac9f3ba820&#45;&gt;Node0x59ac9f3b9b60</title>
<path fill="none" stroke="black" d="M1416.37,-249.81C1389.53,-247.2 1360.39,-244.43 1333.5,-242 1145.33,-224.99 1095.25,-227.15 904.27,-206.17"/>
<polygon fill="black" stroke="black" points="904.51,-202.67 894.18,-205.05 903.74,-209.63 904.51,-202.67"/>
</g>
<!-- Node0x59ac9f3bab10 -->
<g id="node12" class="node">
<title>Node0x59ac9f3bab10</title>
<polygon fill="none" stroke="black" points="1391.5,-169.5 1391.5,-205.5 1927.5,-205.5 1927.5,-169.5 1391.5,-169.5"/>
<text text-anchor="middle" x="1659.5" y="-183.8" font-family="Times,serif" font-size="14.00">_ZN26CIccCreateXformHintManager7AddHintEP19IIccCreateXformHint</text>
</g>
<!-- Node0x59ac9f3ba820&#45;&gt;Node0x59ac9f3bab10 -->
<g id="edge8" class="edge">
<title>Node0x59ac9f3ba820&#45;&gt;Node0x59ac9f3bab10</title>
<path fill="none" stroke="black" d="M1548.47,-242.49C1568.46,-232.77 1593.72,-220.49 1615.1,-210.09"/>
<polygon fill="black" stroke="black" points="1616.85,-213.13 1624.31,-205.61 1613.79,-206.84 1616.85,-213.13"/>
</g>
<!-- Node0x59ac9f41db50 -->
<g id="node13" class="node">
<title>Node0x59ac9f41db50</title>
<polygon fill="none" stroke="black" points="1945.5,-169.5 1945.5,-205.5 2265.5,-205.5 2265.5,-169.5 1945.5,-169.5"/>
<text text-anchor="middle" x="2105.5" y="-183.8" font-family="Times,serif" font-size="14.00">_ZN26CIccCreateXformHintManagerD1Ev</text>
</g>
<!-- Node0x59ac9f3ba820&#45;&gt;Node0x59ac9f41db50 -->
<g id="edge9" class="edge">
<title>Node0x59ac9f3ba820&#45;&gt;Node0x59ac9f41db50</title>
<path fill="none" stroke="black" d="M1610.59,-247.86C1703.64,-236.7 1845.48,-219.68 1953.5,-206.73"/>
<polygon fill="black" stroke="black" points="1954,-210.19 1963.51,-205.53 1953.17,-203.24 1954,-210.19"/>
</g>
<!-- Node0x59ac9f46bd80 -->
<g id="node14" class="node">
<title>Node0x59ac9f46bd80</title>
<polygon fill="none" stroke="black" points="912,-169.5 912,-205.5 1373,-205.5 1373,-169.5 912,-169.5"/>
<text text-anchor="middle" x="1142.5" y="-183.8" font-family="Times,serif" font-size="14.00">_ZN24CIccCmmEnvVarWrapperHintC2EP14SIccCmmEnvVars</text>
</g>
<!-- Node0x59ac9f3ba820&#45;&gt;Node0x59ac9f46bd80 -->
<g id="edge10" class="edge">
<title>Node0x59ac9f3ba820&#45;&gt;Node0x59ac9f46bd80</title>
<path fill="none" stroke="black" d="M1424.64,-242.49C1369.53,-231.95 1298.64,-218.38 1241.7,-207.48"/>
<polygon fill="black" stroke="black" points="1242.08,-203.99 1231.6,-205.55 1240.77,-210.87 1242.08,-203.99"/>
</g>
<!-- Node0x59ac9f469e20 -->
<g id="node15" class="node">
<title>Node0x59ac9f469e20</title>
<polygon fill="none" stroke="black" points="614,-96.5 614,-132.5 945,-132.5 945,-96.5 614,-96.5"/>
<text text-anchor="middle" x="779.5" y="-110.8" font-family="Times,serif" font-size="14.00">_ZN28CIccCreateAdjustPCSXformHintC2Ev</text>
</g>
<!-- Node0x59ac9f3b9b60&#45;&gt;Node0x59ac9f469e20 -->
<g id="edge12" class="edge">
<title>Node0x59ac9f3b9b60&#45;&gt;Node0x59ac9f469e20</title>
<path fill="none" stroke="black" d="M777.23,-169.31C777.57,-161.29 777.98,-151.55 778.36,-142.57"/>
<polygon fill="black" stroke="black" points="781.86,-142.67 778.78,-132.53 774.86,-142.37 781.86,-142.67"/>
</g>
<!-- Node0x59ac9f468940 -->
<g id="node16" class="node">
<title>Node0x59ac9f468940</title>
<polygon fill="none" stroke="black" points="965.5,-96.5 965.5,-132.5 1309.5,-132.5 1309.5,-96.5 965.5,-96.5"/>
<text text-anchor="middle" x="1137.5" y="-110.8" font-family="Times,serif" font-size="14.00">_ZN28CIccCreateCmmEnvVarXformHintC2Ev</text>
</g>
<!-- Node0x59ac9f46bd80&#45;&gt;Node0x59ac9f468940 -->
<g id="edge13" class="edge">
<title>Node0x59ac9f46bd80&#45;&gt;Node0x59ac9f468940</title>
<path fill="none" stroke="black" d="M1141.29,-169.31C1140.72,-161.29 1140.04,-151.55 1139.41,-142.57"/>
<polygon fill="black" stroke="black" points="1142.89,-142.26 1138.7,-132.53 1135.91,-142.75 1142.89,-142.26"/>
</g>
<!-- Node0x59ac9f471840 -->
<g id="node44" class="node">
<title>Node0x59ac9f471840</title>
<polygon fill="none" stroke="black" points="834.5,-23.5 834.5,-59.5 1084.5,-59.5 1084.5,-23.5 834.5,-23.5"/>
<text text-anchor="middle" x="959.5" y="-37.8" font-family="Times,serif" font-size="14.00">_ZN19IIccCreateXformHintC2Ev</text>
</g>
<!-- Node0x59ac9f469e20&#45;&gt;Node0x59ac9f471840 -->
<g id="edge36" class="edge">
<title>Node0x59ac9f469e20&#45;&gt;Node0x59ac9f471840</title>
<path fill="none" stroke="black" d="M822.61,-96.49C847.81,-86.56 879.81,-73.93 906.53,-63.39"/>
<polygon fill="black" stroke="black" points="908.1,-66.54 916.11,-59.61 905.53,-60.03 908.1,-66.54"/>
</g>
<!-- Node0x59ac9f468940&#45;&gt;Node0x59ac9f471840 -->
<g id="edge40" class="edge">
<title>Node0x59ac9f468940&#45;&gt;Node0x59ac9f471840</title>
<path fill="none" stroke="black" d="M1094.86,-96.49C1069.95,-86.56 1038.31,-73.93 1011.88,-63.39"/>
<polygon fill="black" stroke="black" points="1012.99,-60.07 1002.4,-59.61 1010.4,-66.57 1012.99,-60.07"/>
</g>
<!-- Node0x59ac9f46d5e0 -->
<g id="node17" class="node">
<title>Node0x59ac9f46d5e0</title>
<polygon fill="none" stroke="black" points="1106.5,-242.5 1106.5,-278.5 1324.5,-278.5 1324.5,-242.5 1106.5,-242.5"/>
<text text-anchor="middle" x="1215.5" y="-256.8" font-family="Times,serif" font-size="14.00">IccCmmAttachProfileHandle</text>
</g>
<!-- Node0x59ac9f46d5e0&#45;&gt;Node0x59ac9f45fd90 -->
<g id="edge15" class="edge">
<title>Node0x59ac9f46d5e0&#45;&gt;Node0x59ac9f45fd90</title>
<path fill="none" stroke="black" d="M1324.58,-248.62C1351.65,-246.17 1380.61,-243.78 1407.5,-242 1596.72,-229.46 2070.01,-246.37 2273.04,-205.8"/>
<polygon fill="black" stroke="black" points="2274.02,-209.17 2283.09,-203.69 2272.59,-202.32 2274.02,-209.17"/>
</g>
<!-- Node0x59ac9f46d5e0&#45;&gt;Node0x59ac9f445620 -->
<g id="edge21" class="edge">
<title>Node0x59ac9f46d5e0&#45;&gt;Node0x59ac9f445620</title>
<path fill="none" stroke="black" d="M1324.56,-248.34C1351.64,-245.9 1380.6,-243.59 1407.5,-242 1701.46,-224.67 2439.35,-267.36 2746.02,-205.49"/>
<polygon fill="black" stroke="black" points="2746.78,-208.91 2755.85,-203.44 2745.35,-202.06 2746.78,-208.91"/>
</g>
<!-- Node0x59ac9f46d5e0&#45;&gt;Node0x59ac9f3babb0 -->
<g id="edge14" class="edge">
<title>Node0x59ac9f46d5e0&#45;&gt;Node0x59ac9f3babb0</title>
<path fill="none" stroke="black" d="M1106.28,-243.06C1102.99,-242.68 1099.72,-242.33 1096.5,-242 823.96,-214.14 751.71,-227.94 474.52,-206.06"/>
<polygon fill="black" stroke="black" points="474.4,-202.53 464.15,-205.23 473.84,-209.51 474.4,-202.53"/>
</g>
<!-- Node0x59ac9f46d5e0&#45;&gt;Node0x59ac9f3b9a10 -->
<g id="edge16" class="edge">
<title>Node0x59ac9f46d5e0&#45;&gt;Node0x59ac9f3b9a10</title>
<path fill="none" stroke="black" d="M1106.27,-243.15C1102.98,-242.75 1099.72,-242.37 1096.5,-242 901.75,-219.86 848.66,-233.03 650.73,-206.08"/>
<polygon fill="black" stroke="black" points="650.97,-202.57 640.58,-204.68 650.01,-209.51 650.97,-202.57"/>
</g>
<!-- Node0x59ac9f46d5e0&#45;&gt;Node0x59ac9f3b9b60 -->
<g id="edge17" class="edge">
<title>Node0x59ac9f46d5e0&#45;&gt;Node0x59ac9f3b9b60</title>
<path fill="none" stroke="black" d="M1110.35,-242.49C1044.6,-231.86 959.86,-218.16 892.21,-207.21"/>
<polygon fill="black" stroke="black" points="892.36,-203.69 881.93,-205.55 891.25,-210.6 892.36,-203.69"/>
</g>
<!-- Node0x59ac9f46d5e0&#45;&gt;Node0x59ac9f3bab10 -->
<g id="edge18" class="edge">
<title>Node0x59ac9f46d5e0&#45;&gt;Node0x59ac9f3bab10</title>
<path fill="none" stroke="black" d="M1321.85,-242.49C1388.48,-231.84 1474.4,-218.1 1542.89,-207.15"/>
<polygon fill="black" stroke="black" points="1543.54,-210.59 1552.87,-205.55 1542.44,-203.67 1543.54,-210.59"/>
</g>
<!-- Node0x59ac9f46d5e0&#45;&gt;Node0x59ac9f41db50 -->
<g id="edge19" class="edge">
<title>Node0x59ac9f46d5e0&#45;&gt;Node0x59ac9f41db50</title>
<path fill="none" stroke="black" d="M1324.61,-249.12C1351.69,-246.66 1380.64,-244.14 1407.5,-242 1639.09,-223.57 1699.99,-226.06 1935.15,-206.1"/>
<polygon fill="black" stroke="black" points="1935.73,-209.56 1945.39,-205.22 1935.13,-202.59 1935.73,-209.56"/>
</g>
<!-- Node0x59ac9f46d5e0&#45;&gt;Node0x59ac9f46bd80 -->
<g id="edge20" class="edge">
<title>Node0x59ac9f46d5e0&#45;&gt;Node0x59ac9f46bd80</title>
<path fill="none" stroke="black" d="M1197.83,-242.31C1188.68,-233.42 1177.36,-222.41 1167.35,-212.67"/>
<polygon fill="black" stroke="black" points="1169.62,-209.99 1160.01,-205.53 1164.74,-215.01 1169.62,-209.99"/>
</g>
<!-- Node0x59ac9f46d4a0 -->
<g id="node18" class="node">
<title>Node0x59ac9f46d4a0</title>
<polygon fill="none" stroke="black" points="4107.5,-242.5 4107.5,-278.5 4223.5,-278.5 4223.5,-242.5 4107.5,-242.5"/>
<text text-anchor="middle" x="4165.5" y="-256.8" font-family="Times,serif" font-size="14.00">IccCmmBegin</text>
</g>
<!-- Node0x59ac9f46d220 -->
<g id="node19" class="node">
<title>Node0x59ac9f46d220</title>
<polygon fill="none" stroke="black" points="4244.5,-242.5 4244.5,-278.5 4384.5,-278.5 4384.5,-242.5 4244.5,-242.5"/>
<text text-anchor="middle" x="4314.5" y="-256.8" font-family="Times,serif" font-size="14.00">IccCmmGetApply</text>
</g>
<!-- Node0x59ac9f46cda0 -->
<g id="node20" class="node">
<title>Node0x59ac9f46cda0</title>
<polygon fill="none" stroke="black" points="4404.5,-242.5 4404.5,-278.5 4532.5,-278.5 4532.5,-242.5 4404.5,-242.5"/>
<text text-anchor="middle" x="4468.5" y="-256.8" font-family="Times,serif" font-size="14.00">IccCmmGetInfo</text>
</g>
<!-- Node0x59ac9f46d9a0 -->
<g id="node21" class="node">
<title>Node0x59ac9f46d9a0</title>
<polygon fill="none" stroke="black" points="3978,-169.5 3978,-205.5 4265,-205.5 4265,-169.5 3978,-169.5"/>
<text text-anchor="middle" x="4121.5" y="-183.8" font-family="Times,serif" font-size="14.00">_ZNK7CIccCmm14GetSourceSpaceEv</text>
</g>
<!-- Node0x59ac9f46cda0&#45;&gt;Node0x59ac9f46d9a0 -->
<g id="edge22" class="edge">
<title>Node0x59ac9f46cda0&#45;&gt;Node0x59ac9f46d9a0</title>
<path fill="none" stroke="black" d="M4404.3,-244.36C4400.65,-243.55 4397.03,-242.76 4393.5,-242 4337.04,-229.86 4273.74,-217.35 4222.43,-207.48"/>
<polygon fill="black" stroke="black" points="4222.81,-203.99 4212.33,-205.54 4221.49,-210.86 4222.81,-203.99"/>
</g>
<!-- Node0x59ac9f46e120 -->
<g id="node22" class="node">
<title>Node0x59ac9f46e120</title>
<polygon fill="none" stroke="black" points="4283,-169.5 4283,-205.5 4588,-205.5 4588,-169.5 4283,-169.5"/>
<text text-anchor="middle" x="4435.5" y="-183.8" font-family="Times,serif" font-size="14.00">_ZNK7CIccCmm16GetSourceSamplesEv</text>
</g>
<!-- Node0x59ac9f46cda0&#45;&gt;Node0x59ac9f46e120 -->
<g id="edge23" class="edge">
<title>Node0x59ac9f46cda0&#45;&gt;Node0x59ac9f46e120</title>
<path fill="none" stroke="black" d="M4460.51,-242.31C4456.66,-234.03 4451.96,-223.91 4447.67,-214.69"/>
<polygon fill="black" stroke="black" points="4450.8,-213.12 4443.41,-205.53 4444.46,-216.07 4450.8,-213.12"/>
</g>
<!-- Node0x59ac9f46dfe0 -->
<g id="node23" class="node">
<title>Node0x59ac9f46dfe0</title>
<polygon fill="none" stroke="black" points="4606,-169.5 4606,-205.5 4877,-205.5 4877,-169.5 4606,-169.5"/>
<text text-anchor="middle" x="4741.5" y="-183.8" font-family="Times,serif" font-size="14.00">_ZNK7CIccCmm12GetDestSpaceEv</text>
</g>
<!-- Node0x59ac9f46cda0&#45;&gt;Node0x59ac9f46dfe0 -->
<g id="edge24" class="edge">
<title>Node0x59ac9f46cda0&#45;&gt;Node0x59ac9f46dfe0</title>
<path fill="none" stroke="black" d="M4532.51,-242.85C4572.48,-232.46 4624.15,-219.02 4666.11,-208.11"/>
<polygon fill="black" stroke="black" points="4667.2,-211.44 4676,-205.54 4665.44,-204.66 4667.2,-211.44"/>
</g>
<!-- Node0x59ac9f46dd60 -->
<g id="node24" class="node">
<title>Node0x59ac9f46dd60</title>
<polygon fill="none" stroke="black" points="4895,-169.5 4895,-205.5 5184,-205.5 5184,-169.5 4895,-169.5"/>
<text text-anchor="middle" x="5039.5" y="-183.8" font-family="Times,serif" font-size="14.00">_ZNK7CIccCmm14GetDestSamplesEv</text>
</g>
<!-- Node0x59ac9f46cda0&#45;&gt;Node0x59ac9f46dd60 -->
<g id="edge25" class="edge">
<title>Node0x59ac9f46cda0&#45;&gt;Node0x59ac9f46dd60</title>
<path fill="none" stroke="black" d="M4532.89,-243.58C4535.79,-243.01 4538.67,-242.48 4541.5,-242 4689.76,-216.58 4730.93,-222.41 4884.54,-206.09"/>
<polygon fill="black" stroke="black" points="4885.25,-209.53 4894.82,-204.98 4884.51,-202.57 4885.25,-209.53"/>
</g>
<!-- Node0x59ac9f46dae0 -->
<g id="node27" class="node">
<title>Node0x59ac9f46dae0</title>
<polygon fill="none" stroke="black" points="4550.5,-96.5 4550.5,-132.5 4924.5,-132.5 4924.5,-96.5 4550.5,-96.5"/>
<text text-anchor="middle" x="4737.5" y="-110.8" font-family="Times,serif" font-size="14.00">_Z17icGetSpaceSamples21icColorSpaceSignature</text>
</g>
<!-- Node0x59ac9f46e120&#45;&gt;Node0x59ac9f46dae0 -->
<g id="edge27" class="edge">
<title>Node0x59ac9f46e120&#45;&gt;Node0x59ac9f46dae0</title>
<path fill="none" stroke="black" d="M4507.84,-169.49C4552.14,-159.08 4608.97,-145.72 4655.02,-134.89"/>
<polygon fill="black" stroke="black" points="4656.04,-138.25 4664.97,-132.55 4654.43,-131.43 4656.04,-138.25"/>
</g>
<!-- Node0x59ac9f46dd60&#45;&gt;Node0x59ac9f46dae0 -->
<g id="edge28" class="edge">
<title>Node0x59ac9f46dd60&#45;&gt;Node0x59ac9f46dae0</title>
<path fill="none" stroke="black" d="M4967.16,-169.49C4922.86,-159.08 4866.03,-145.72 4819.98,-134.89"/>
<polygon fill="black" stroke="black" points="4820.57,-131.43 4810.03,-132.55 4818.96,-138.25 4820.57,-131.43"/>
</g>
<!-- Node0x59ac9f490870 -->
<g id="node25" class="node">
<title>Node0x59ac9f490870</title>
<polygon fill="none" stroke="black" points="2839,-169.5 2839,-205.5 3276,-205.5 3276,-169.5 2839,-169.5"/>
<text text-anchor="middle" x="3057.5" y="-183.8" font-family="Times,serif" font-size="14.00">_ZN21CIccCmmEnvVarsWrapperC2EP14SIccCmmEnvVars</text>
</g>
<!-- Node0x59ac9f4901a0 -->
<g id="node26" class="node">
<title>Node0x59ac9f4901a0</title>
<polygon fill="none" stroke="black" points="2668.5,-96.5 2668.5,-132.5 2936.5,-132.5 2936.5,-96.5 2668.5,-96.5"/>
<text text-anchor="middle" x="2802.5" y="-110.8" font-family="Times,serif" font-size="14.00">_ZN19IIccCmmEnvVarLookupC2Ev</text>
</g>
<!-- Node0x59ac9f490870&#45;&gt;Node0x59ac9f4901a0 -->
<g id="edge26" class="edge">
<title>Node0x59ac9f490870&#45;&gt;Node0x59ac9f4901a0</title>
<path fill="none" stroke="black" d="M2996.42,-169.49C2959.63,-159.25 2912.61,-146.16 2874.08,-135.43"/>
<polygon fill="black" stroke="black" points="2874.54,-131.92 2863.96,-132.61 2872.66,-138.67 2874.54,-131.92"/>
</g>
<!-- Node0x59ac9f46fec0 -->
<g id="node28" class="node">
<title>Node0x59ac9f46fec0</title>
<polygon fill="none" stroke="black" points="4550.5,-242.5 4550.5,-278.5 4702.5,-278.5 4702.5,-242.5 4550.5,-242.5"/>
<text text-anchor="middle" x="4626.5" y="-256.8" font-family="Times,serif" font-size="14.00">IccCmmApplyFloat</text>
</g>
<!-- Node0x59ac9f46f880 -->
<g id="node29" class="node">
<title>Node0x59ac9f46f880</title>
<polygon fill="none" stroke="black" points="4720.5,-242.5 4720.5,-278.5 4910.5,-278.5 4910.5,-242.5 4720.5,-242.5"/>
<text text-anchor="middle" x="4815.5" y="-256.8" font-family="Times,serif" font-size="14.00">IccCmmApplyFloatMulti</text>
</g>
<!-- Node0x59ac9f46f4c0 -->
<g id="node30" class="node">
<title>Node0x59ac9f46f4c0</title>
<polygon fill="none" stroke="black" points="4929,-242.5 4929,-278.5 5036,-278.5 5036,-242.5 4929,-242.5"/>
<text text-anchor="middle" x="4982.5" y="-256.8" font-family="Times,serif" font-size="14.00">IccCmmFree</text>
</g>
<!-- Node0x59ac9f46eb20 -->
<g id="node31" class="node">
<title>Node0x59ac9f46eb20</title>
<polygon fill="none" stroke="black" points="5054,-242.5 5054,-278.5 5209,-278.5 5209,-242.5 5054,-242.5"/>
<text text-anchor="middle" x="5131.5" y="-256.8" font-family="Times,serif" font-size="14.00">IccApplyApplyFloat</text>
</g>
<!-- Node0x59ac9f46b240 -->
<g id="node32" class="node">
<title>Node0x59ac9f46b240</title>
<polygon fill="none" stroke="black" points="5227,-242.5 5227,-278.5 5420,-278.5 5420,-242.5 5227,-242.5"/>
<text text-anchor="middle" x="5323.5" y="-256.8" font-family="Times,serif" font-size="14.00">IccApplyApplyFloatMulti</text>
</g>
<!-- Node0x59ac9f470f00 -->
<g id="node33" class="node">
<title>Node0x59ac9f470f00</title>
<polygon fill="none" stroke="black" points="5438.5,-242.5 5438.5,-278.5 5548.5,-278.5 5548.5,-242.5 5438.5,-242.5"/>
<text text-anchor="middle" x="5493.5" y="-256.8" font-family="Times,serif" font-size="14.00">IccApplyFree</text>
</g>
<!-- Node0x59ac9f470a00 -->
<g id="node34" class="node">
<title>Node0x59ac9f470a00</title>
<polygon fill="none" stroke="black" points="5566.5,-242.5 5566.5,-278.5 5736.5,-278.5 5736.5,-242.5 5566.5,-242.5"/>
<text text-anchor="middle" x="5651.5" y="-256.8" font-family="Times,serif" font-size="14.00">IccProfileReadHandle</text>
</g>
<!-- Node0x59ac9f470640 -->
<g id="node35" class="node">
<title>Node0x59ac9f470640</title>
<polygon fill="none" stroke="black" points="5556,-169.5 5556,-205.5 5747,-205.5 5747,-169.5 5556,-169.5"/>
<text text-anchor="middle" x="5651.5" y="-183.8" font-family="Times,serif" font-size="14.00">_Z14ReadIccProfilePKcb</text>
</g>
<!-- Node0x59ac9f470a00&#45;&gt;Node0x59ac9f470640 -->
<g id="edge29" class="edge">
<title>Node0x59ac9f470a00&#45;&gt;Node0x59ac9f470640</title>
<path fill="none" stroke="black" d="M5651.5,-242.31C5651.5,-234.29 5651.5,-224.55 5651.5,-215.57"/>
<polygon fill="black" stroke="black" points="5655,-215.53 5651.5,-205.53 5648,-215.53 5655,-215.53"/>
</g>
<!-- Node0x59ac9f470200 -->
<g id="node36" class="node">
<title>Node0x59ac9f470200</title>
<polygon fill="none" stroke="black" points="5775.5,-242.5 5775.5,-278.5 5947.5,-278.5 5947.5,-242.5 5775.5,-242.5"/>
<text text-anchor="middle" x="5861.5" y="-256.8" font-family="Times,serif" font-size="14.00">IccProfileOpenHandle</text>
</g>
<!-- Node0x59ac9f46d520 -->
<g id="node37" class="node">
<title>Node0x59ac9f46d520</title>
<polygon fill="none" stroke="black" points="5765.5,-169.5 5765.5,-205.5 5957.5,-205.5 5957.5,-169.5 5765.5,-169.5"/>
<text text-anchor="middle" x="5861.5" y="-183.8" font-family="Times,serif" font-size="14.00">_Z14OpenIccProfilePKcb</text>
</g>
<!-- Node0x59ac9f470200&#45;&gt;Node0x59ac9f46d520 -->
<g id="edge30" class="edge">
<title>Node0x59ac9f470200&#45;&gt;Node0x59ac9f46d520</title>
<path fill="none" stroke="black" d="M5861.5,-242.31C5861.5,-234.29 5861.5,-224.55 5861.5,-215.57"/>
<polygon fill="black" stroke="black" points="5865,-215.53 5861.5,-205.53 5858,-215.53 5865,-215.53"/>
</g>
<!-- Node0x59ac9f46d8e0 -->
<g id="node38" class="node">
<title>Node0x59ac9f46d8e0</title>
<polygon fill="none" stroke="black" points="5986,-242.5 5986,-278.5 6147,-278.5 6147,-242.5 5986,-242.5"/>
<text text-anchor="middle" x="6066.5" y="-256.8" font-family="Times,serif" font-size="14.00">IccProfileGetHeader</text>
</g>
<!-- Node0x59ac9f46f800 -->
<g id="node39" class="node">
<title>Node0x59ac9f46f800</title>
<polygon fill="none" stroke="black" points="5975.5,-169.5 5975.5,-205.5 6157.5,-205.5 6157.5,-169.5 5975.5,-169.5"/>
<text text-anchor="middle" x="6066.5" y="-183.8" font-family="Times,serif" font-size="14.00">llvm.memcpy.p0.p0.i64</text>
</g>
<!-- Node0x59ac9f46d8e0&#45;&gt;Node0x59ac9f46f800 -->
<g id="edge31" class="edge">
<title>Node0x59ac9f46d8e0&#45;&gt;Node0x59ac9f46f800</title>
<path fill="none" stroke="black" d="M6066.5,-242.31C6066.5,-234.29 6066.5,-224.55 6066.5,-215.57"/>
<polygon fill="black" stroke="black" points="6070,-215.53 6066.5,-205.53 6063,-215.53 6070,-215.53"/>
</g>
<!-- Node0x59ac9f46ebe0 -->
<g id="node40" class="node">
<title>Node0x59ac9f46ebe0</title>
<polygon fill="none" stroke="black" points="3067.5,-242.5 3067.5,-278.5 3183.5,-278.5 3183.5,-242.5 3067.5,-242.5"/>
<text text-anchor="middle" x="3125.5" y="-256.8" font-family="Times,serif" font-size="14.00">IccProfileFree</text>
</g>
<!-- Node0x59ac9f46ebe0&#45;&gt;Node0x59ac9f445620 -->
<g id="edge32" class="edge">
<title>Node0x59ac9f46ebe0&#45;&gt;Node0x59ac9f445620</title>
<path fill="none" stroke="black" d="M3067.48,-243.97C3064.45,-243.27 3061.44,-242.61 3058.5,-242 2960.8,-221.61 2930.41,-233.63 2831.18,-206.14"/>
<polygon fill="black" stroke="black" points="2831.94,-202.72 2821.36,-203.36 2830.03,-209.45 2831.94,-202.72"/>
</g>
<!-- Node0x59ac9f46cf20 -->
<g id="node41" class="node">
<title>Node0x59ac9f46cf20</title>
<polygon fill="none" stroke="black" points="3294,-169.5 3294,-205.5 3585,-205.5 3585,-169.5 3294,-169.5"/>
<text text-anchor="middle" x="3439.5" y="-183.8" font-family="Times,serif" font-size="14.00">_ZN21CIccCmmEnvVarsWrapperD2Ev</text>
</g>
<!-- Node0x59ac9f46d1a0 -->
<g id="node42" class="node">
<title>Node0x59ac9f46d1a0</title>
<polygon fill="none" stroke="black" points="3305,-96.5 3305,-132.5 3574,-132.5 3574,-96.5 3305,-96.5"/>
<text text-anchor="middle" x="3439.5" y="-110.8" font-family="Times,serif" font-size="14.00">_ZN19IIccCmmEnvVarLookupD2Ev</text>
</g>
<!-- Node0x59ac9f46cf20&#45;&gt;Node0x59ac9f46d1a0 -->
<g id="edge33" class="edge">
<title>Node0x59ac9f46cf20&#45;&gt;Node0x59ac9f46d1a0</title>
<path fill="none" stroke="black" d="M3439.5,-169.31C3439.5,-161.29 3439.5,-151.55 3439.5,-142.57"/>
<polygon fill="black" stroke="black" points="3443,-142.53 3439.5,-132.53 3436,-142.53 3443,-142.53"/>
</g>
<!-- Node0x59ac9f46f0a0 -->
<g id="node43" class="node">
<title>Node0x59ac9f46f0a0</title>
<polygon fill="none" stroke="black" points="3236,-242.5 3236,-278.5 3527,-278.5 3527,-242.5 3236,-242.5"/>
<text text-anchor="middle" x="3381.5" y="-256.8" font-family="Times,serif" font-size="14.00">_ZN21CIccCmmEnvVarsWrapperD0Ev</text>
</g>
<!-- Node0x59ac9f46f0a0&#45;&gt;Node0x59ac9f445620 -->
<g id="edge35" class="edge">
<title>Node0x59ac9f46f0a0&#45;&gt;Node0x59ac9f445620</title>
<path fill="none" stroke="black" d="M3235.92,-245.93C3090.1,-232.27 2881.19,-212.48 2831.24,-205.28"/>
<polygon fill="black" stroke="black" points="2831.77,-201.82 2821.31,-203.53 2830.56,-208.71 2831.77,-201.82"/>
</g>
<!-- Node0x59ac9f46f0a0&#45;&gt;Node0x59ac9f46cf20 -->
<g id="edge34" class="edge">
<title>Node0x59ac9f46f0a0&#45;&gt;Node0x59ac9f46cf20</title>
<path fill="none" stroke="black" d="M3395.54,-242.31C3402.59,-233.68 3411.27,-223.06 3419.05,-213.53"/>
<polygon fill="black" stroke="black" points="3421.97,-215.49 3425.59,-205.53 3416.55,-211.06 3421.97,-215.49"/>
</g>
<!-- Node0x59ac9f4764c0 -->
<g id="node45" class="node">
<title>Node0x59ac9f4764c0</title>
<polygon fill="none" stroke="black" points="2954.5,-96.5 2954.5,-132.5 3286.5,-132.5 3286.5,-96.5 2954.5,-96.5"/>
<text text-anchor="middle" x="3120.5" y="-110.8" font-family="Times,serif" font-size="14.00">_ZN28CIccCreateAdjustPCSXformHintD2Ev</text>
</g>
<!-- Node0x59ac9f475d10 -->
<g id="node46" class="node">
<title>Node0x59ac9f475d10</title>
<polygon fill="none" stroke="black" points="3317,-23.5 3317,-59.5 3568,-59.5 3568,-23.5 3317,-23.5"/>
<text text-anchor="middle" x="3442.5" y="-37.8" font-family="Times,serif" font-size="14.00">_ZN19IIccCreateXformHintD2Ev</text>
</g>
<!-- Node0x59ac9f4764c0&#45;&gt;Node0x59ac9f475d10 -->
<g id="edge37" class="edge">
<title>Node0x59ac9f4764c0&#45;&gt;Node0x59ac9f475d10</title>
<path fill="none" stroke="black" d="M3197.63,-96.49C3245.06,-86.03 3305.97,-72.61 3355.17,-61.76"/>
<polygon fill="black" stroke="black" points="3356.15,-65.12 3365.17,-59.55 3354.65,-58.29 3356.15,-65.12"/>
</g>
<!-- Node0x59ac9f474a80 -->
<g id="node47" class="node">
<title>Node0x59ac9f474a80</title>
<polygon fill="none" stroke="black" points="6165.5,-242.5 6165.5,-278.5 6497.5,-278.5 6497.5,-242.5 6165.5,-242.5"/>
<text text-anchor="middle" x="6331.5" y="-256.8" font-family="Times,serif" font-size="14.00">_ZN28CIccCreateAdjustPCSXformHintD0Ev</text>
</g>
<!-- Node0x59ac9f476dc0 -->
<g id="node48" class="node">
<title>Node0x59ac9f476dc0</title>
<polygon fill="none" stroke="black" points="6758.5,-169.5 6758.5,-205.5 6840.5,-205.5 6840.5,-169.5 6758.5,-169.5"/>
<text text-anchor="middle" x="6799.5" y="-183.8" font-family="Times,serif" font-size="14.00">llvm.trap</text>
</g>
<!-- Node0x59ac9f474a80&#45;&gt;Node0x59ac9f476dc0 -->
<g id="edge38" class="edge">
<title>Node0x59ac9f474a80&#45;&gt;Node0x59ac9f476dc0</title>
<path fill="none" stroke="black" d="M6443.6,-242.49C6540.25,-227.83 6675.4,-207.33 6748.2,-196.28"/>
<polygon fill="black" stroke="black" points="6749.11,-199.68 6758.47,-194.72 6748.06,-192.76 6749.11,-199.68"/>
</g>
<!-- Node0x59ac9f48b230 -->
<g id="node49" class="node">
<title>Node0x59ac9f48b230</title>
<polygon fill="none" stroke="black" points="7435,-242.5 7435,-278.5 7866,-278.5 7866,-242.5 7435,-242.5"/>
<text text-anchor="middle" x="7650.5" y="-256.8" font-family="Times,serif" font-size="14.00">_ZNK28CIccCreateAdjustPCSXformHint11GetHintTypeEv</text>
</g>
<!-- Node0x59ac9f48aea0 -->
<g id="node50" class="node">
<title>Node0x59ac9f48aea0</title>
<polygon fill="none" stroke="black" points="7884.5,-242.5 7884.5,-278.5 8032.5,-278.5 8032.5,-242.5 7884.5,-242.5"/>
<text text-anchor="middle" x="7958.5" y="-256.8" font-family="Times,serif" font-size="14.00">__cxa_pure_virtual</text>
</g>
<!-- Node0x59ac9f48a290 -->
<g id="node51" class="node">
<title>Node0x59ac9f48a290</title>
<polygon fill="none" stroke="black" points="6516,-242.5 6516,-278.5 6767,-278.5 6767,-242.5 6516,-242.5"/>
<text text-anchor="middle" x="6641.5" y="-256.8" font-family="Times,serif" font-size="14.00">_ZN19IIccCreateXformHintD0Ev</text>
</g>
<!-- Node0x59ac9f48a290&#45;&gt;Node0x59ac9f476dc0 -->
<g id="edge39" class="edge">
<title>Node0x59ac9f48a290&#45;&gt;Node0x59ac9f476dc0</title>
<path fill="none" stroke="black" d="M6679.34,-242.49C6701.17,-232.69 6728.81,-220.27 6752.08,-209.81"/>
<polygon fill="black" stroke="black" points="6753.73,-212.9 6761.42,-205.61 6750.86,-206.52 6753.73,-212.9"/>
</g>
<!-- Node0x59ac9f48c390 -->
<g id="node52" class="node">
<title>Node0x59ac9f48c390</title>
<polygon fill="none" stroke="black" points="3605,-169.5 3605,-205.5 3920,-205.5 3920,-169.5 3605,-169.5"/>
<text text-anchor="middle" x="3762.5" y="-183.8" font-family="Times,serif" font-size="14.00">_ZN24CIccCmmEnvVarWrapperHintD2Ev</text>
</g>
<!-- Node0x59ac9f48e780 -->
<g id="node53" class="node">
<title>Node0x59ac9f48e780</title>
<polygon fill="none" stroke="black" points="3592,-96.5 3592,-132.5 3937,-132.5 3937,-96.5 3592,-96.5"/>
<text text-anchor="middle" x="3764.5" y="-110.8" font-family="Times,serif" font-size="14.00">_ZN28CIccCreateCmmEnvVarXformHintD2Ev</text>
</g>
<!-- Node0x59ac9f48c390&#45;&gt;Node0x59ac9f48e780 -->
<g id="edge41" class="edge">
<title>Node0x59ac9f48c390&#45;&gt;Node0x59ac9f48e780</title>
<path fill="none" stroke="black" d="M3762.98,-169.31C3763.21,-161.29 3763.48,-151.55 3763.74,-142.57"/>
<polygon fill="black" stroke="black" points="3767.24,-142.62 3764.02,-132.53 3760.24,-142.43 3767.24,-142.62"/>
</g>
<!-- Node0x59ac9f48e780&#45;&gt;Node0x59ac9f475d10 -->
<g id="edge47" class="edge">
<title>Node0x59ac9f48e780&#45;&gt;Node0x59ac9f475d10</title>
<path fill="none" stroke="black" d="M3687.37,-96.49C3639.94,-86.03 3579.03,-72.61 3529.83,-61.76"/>
<polygon fill="black" stroke="black" points="3530.35,-58.29 3519.83,-59.55 3528.85,-65.12 3530.35,-58.29"/>
</g>
<!-- Node0x59ac9f48e500 -->
<g id="node54" class="node">
<title>Node0x59ac9f48e500</title>
<polygon fill="none" stroke="black" points="3571,-242.5 3571,-278.5 3886,-278.5 3886,-242.5 3571,-242.5"/>
<text text-anchor="middle" x="3728.5" y="-256.8" font-family="Times,serif" font-size="14.00">_ZN24CIccCmmEnvVarWrapperHintD0Ev</text>
</g>
<!-- Node0x59ac9f48e500&#45;&gt;Node0x59ac9f445620 -->
<g id="edge43" class="edge">
<title>Node0x59ac9f48e500&#45;&gt;Node0x59ac9f445620</title>
<path fill="none" stroke="black" d="M3570.81,-244.69C3558.87,-243.72 3546.99,-242.81 3535.5,-242 3381.94,-231.13 2998.33,-240.97 2831.25,-205.88"/>
<polygon fill="black" stroke="black" points="2831.8,-202.41 2821.28,-203.67 2830.29,-209.25 2831.8,-202.41"/>
</g>
<!-- Node0x59ac9f48e500&#45;&gt;Node0x59ac9f48c390 -->
<g id="edge42" class="edge">
<title>Node0x59ac9f48e500&#45;&gt;Node0x59ac9f48c390</title>
<path fill="none" stroke="black" d="M3736.73,-242.31C3740.7,-234.03 3745.54,-223.91 3749.96,-214.69"/>
<polygon fill="black" stroke="black" points="3753.18,-216.06 3754.35,-205.53 3746.87,-213.04 3753.18,-216.06"/>
</g>
<!-- Node0x59ac9f48e3b0 -->
<g id="node55" class="node">
<title>Node0x59ac9f48e3b0</title>
<polygon fill="none" stroke="black" points="8051,-242.5 8051,-278.5 8496,-278.5 8496,-242.5 8051,-242.5"/>
<text text-anchor="middle" x="8273.5" y="-256.8" font-family="Times,serif" font-size="14.00">_ZNK28CIccCreateCmmEnvVarXformHint11GetHintTypeEv</text>
</g>
<!-- Node0x59ac9f48ca20 -->
<g id="node56" class="node">
<title>Node0x59ac9f48ca20</title>
<polygon fill="none" stroke="black" points="2527.5,-242.5 2527.5,-278.5 3049.5,-278.5 3049.5,-242.5 2527.5,-242.5"/>
<text text-anchor="middle" x="2788.5" y="-256.8" font-family="Times,serif" font-size="14.00">_ZNK24CIccCmmEnvVarWrapperHint21GetNewCmmEnvVarLookupEv</text>
</g>
<!-- Node0x59ac9f48ca20&#45;&gt;Node0x59ac9f45fd90 -->
<g id="edge44" class="edge">
<title>Node0x59ac9f48ca20&#45;&gt;Node0x59ac9f45fd90</title>
<path fill="none" stroke="black" d="M2562.6,-242.47C2499.72,-234.86 2431.59,-223.92 2361.82,-206.01"/>
<polygon fill="black" stroke="black" points="2362.53,-202.58 2351.97,-203.43 2360.76,-209.35 2362.53,-202.58"/>
</g>
<!-- Node0x59ac9f48ca20&#45;&gt;Node0x59ac9f445620 -->
<g id="edge46" class="edge">
<title>Node0x59ac9f48ca20&#45;&gt;Node0x59ac9f445620</title>
<path fill="none" stroke="black" d="M2788.5,-242.31C2788.5,-234.29 2788.5,-224.55 2788.5,-215.57"/>
<polygon fill="black" stroke="black" points="2792,-215.53 2788.5,-205.53 2785,-215.53 2792,-215.53"/>
</g>
<!-- Node0x59ac9f48ca20&#45;&gt;Node0x59ac9f490870 -->
<g id="edge45" class="edge">
<title>Node0x59ac9f48ca20&#45;&gt;Node0x59ac9f490870</title>
<path fill="none" stroke="black" d="M2852.93,-242.49C2891.99,-232.18 2941.98,-218.99 2982.77,-208.22"/>
<polygon fill="black" stroke="black" points="2983.89,-211.55 2992.66,-205.61 2982.1,-204.78 2983.89,-211.55"/>
</g>
<!-- Node0x59ac9f490440 -->
<g id="node57" class="node">
<title>Node0x59ac9f490440</title>
<polygon fill="none" stroke="black" points="6785,-242.5 6785,-278.5 7130,-278.5 7130,-242.5 6785,-242.5"/>
<text text-anchor="middle" x="6957.5" y="-256.8" font-family="Times,serif" font-size="14.00">_ZN28CIccCreateCmmEnvVarXformHintD0Ev</text>
</g>
<!-- Node0x59ac9f490440&#45;&gt;Node0x59ac9f476dc0 -->
<g id="edge48" class="edge">
<title>Node0x59ac9f490440&#45;&gt;Node0x59ac9f476dc0</title>
<path fill="none" stroke="black" d="M6919.66,-242.49C6897.83,-232.69 6870.19,-220.27 6846.92,-209.81"/>
<polygon fill="black" stroke="black" points="6848.14,-206.52 6837.58,-205.61 6845.27,-212.9 6848.14,-206.52"/>
</g>
<!-- Node0x59ac9f48fcc0 -->
<g id="node58" class="node">
<title>Node0x59ac9f48fcc0</title>
<polygon fill="none" stroke="black" points="7148,-242.5 7148,-278.5 7417,-278.5 7417,-242.5 7148,-242.5"/>
<text text-anchor="middle" x="7282.5" y="-256.8" font-family="Times,serif" font-size="14.00">_ZN19IIccCmmEnvVarLookupD0Ev</text>
</g>
<!-- Node0x59ac9f48fcc0&#45;&gt;Node0x59ac9f476dc0 -->
<g id="edge49" class="edge">
<title>Node0x59ac9f48fcc0&#45;&gt;Node0x59ac9f476dc0</title>
<path fill="none" stroke="black" d="M7166.81,-242.49C7066.32,-227.72 6925.51,-207.02 6850.79,-196.04"/>
<polygon fill="black" stroke="black" points="6851.1,-192.55 6840.7,-194.56 6850.08,-199.47 6851.1,-192.55"/>
</g>
</g>
</svg>
