<?xml version="1.0" encoding="UTF-8" standalone="no"?>
<!DOCTYPE svg PUBLIC "-//W3C//DTD SVG 1.1//EN"
 "http://www.w3.org/Graphics/SVG/1.1/DTD/svg11.dtd">
<!-- Generated by graphviz version 2.43.0 (0)
 -->
<!-- Title: Call graph: /home/h02332/po/research/call&#45;graph/iccdev/proflib/IccWrapper.ll Pages: 1 -->
<svg width="1587pt" height="14400pt"
 viewBox="0.00 0.00 1587.28 14400.00" xmlns="http://www.w3.org/2000/svg" xmlns:xlink="http://www.w3.org/1999/xlink">
<g id="graph0" class="graph" transform="scale(1 1) rotate(0) translate(36 14434)">
<title>Call graph: /home/h02332/po/research/call&#45;graph/iccdev/proflib/IccWrapper.ll</title>
<polygon fill="white" stroke="transparent" points="-36,36 -36,-14434 1559,-14434 1559,36 -36,36"/>
<!-- Node0x59ac9f4641f0 -->
<g id="node1" class="node">
<title>Node0x59ac9f4641f0</title>
<path fill="#f0f4ff" stroke="black" d="M262.5,-41C262.5,-41 82.5,-41 82.5,-41 76.5,-41 70.5,-35 70.5,-29 70.5,-29 70.5,-17 70.5,-17 70.5,-11 76.5,-5 82.5,-5 82.5,-5 262.5,-5 262.5,-5 268.5,-5 274.5,-11 274.5,-17 274.5,-17 274.5,-29 274.5,-29 274.5,-35 268.5,-41 262.5,-41"/>
<text text-anchor="middle" x="172.5" y="-20.8" font-family="Courier,monospace" font-size="9.00">{CIccCmmEnvVarsWrapper::GetEnvVar()}</text>
</g>
<!-- Node0x59ac9f456030 -->
<g id="node2" class="node">
<title>Node0x59ac9f456030</title>
<path fill="#f0f4ff" stroke="black" d="M273,-138C273,-138 72,-138 72,-138 66,-138 60,-132 60,-126 60,-126 60,-114 60,-114 60,-108 66,-102 72,-102 72,-102 273,-102 273,-102 279,-102 285,-108 285,-114 285,-114 285,-126 285,-126 285,-132 279,-138 273,-138"/>
<text text-anchor="middle" x="172.5" y="-117.8" font-family="Courier,monospace" font-size="9.00">{CIccCmmEnvVarsWrapper::IndexedEnvVar()}</text>
</g>
<!-- Node0x59ac9f452480 -->
<g id="node3" class="node">
<title>Node0x59ac9f452480</title>
<path fill="#f0f4ff" stroke="black" d="M204.5,-621C204.5,-621 140.5,-621 140.5,-621 134.5,-621 128.5,-615 128.5,-609 128.5,-609 128.5,-597 128.5,-597 128.5,-591 134.5,-585 140.5,-585 140.5,-585 204.5,-585 204.5,-585 210.5,-585 216.5,-591 216.5,-597 216.5,-597 216.5,-609 216.5,-609 216.5,-615 210.5,-621 204.5,-621"/>
<text text-anchor="middle" x="172.5" y="-600.8" font-family="Courier,monospace" font-size="9.00">{IccCmmCreate}</text>
</g>
<!-- Node0x59ac9f45fd90 -->
<g id="node4" class="node">
<title>Node0x59ac9f45fd90</title>
<path fill="#f0f4ff" stroke="black" d="M608,-621C608,-621 578,-621 578,-621 572,-621 566,-615 566,-609 566,-609 566,-597 566,-597 566,-591 572,-585 578,-585 578,-585 608,-585 608,-585 614,-585 620,-591 620,-597 620,-597 620,-609 620,-609 620,-615 614,-621 608,-621"/>
<text text-anchor="middle" x="593" y="-600.8" font-family="Courier,monospace" font-size="9.00">{new()}</text>
</g>
<!-- Node0x59ac9f452480&#45;&gt;Node0x59ac9f45fd90 -->
<g id="edge1" class="edge">
<title>Node0x59ac9f452480&#45;&gt;Node0x59ac9f45fd90</title>
<path fill="none" stroke="#4a6fa5" d="M216.71,-603C300.4,-603 482.99,-603 558.39,-603"/>
<polygon fill="#4a6fa5" stroke="#4a6fa5" points="558.77,-605.45 565.77,-603 558.77,-600.55 558.77,-605.45"/>
</g>
<!-- Node0x59ac9f446620 -->
<g id="node5" class="node">
<title>Node0x59ac9f446620</title>
<path fill="#f0f4ff" stroke="black" d="M641,-686C641,-686 545,-686 545,-686 539,-686 533,-680 533,-674 533,-674 533,-662 533,-662 533,-656 539,-650 545,-650 545,-650 641,-650 641,-650 647,-650 653,-656 653,-662 653,-662 653,-674 653,-674 653,-680 647,-686 641,-686"/>
<text text-anchor="middle" x="593" y="-665.8" font-family="Courier,monospace" font-size="9.00">{CIccCmm::CIccCmm()}</text>
</g>
<!-- Node0x59ac9f452480&#45;&gt;Node0x59ac9f446620 -->
<g id="edge2" class="edge">
<title>Node0x59ac9f452480&#45;&gt;Node0x59ac9f446620</title>
<path fill="none" stroke="#4a6fa5" d="M216.71,-609.71C290.04,-621.1 439.3,-644.28 525.85,-657.73"/>
<polygon fill="#4a6fa5" stroke="#4a6fa5" points="525.71,-660.18 533,-658.84 526.46,-655.34 525.71,-660.18"/>
</g>
<!-- Node0x59ac9f445620 -->
<g id="node6" class="node">
<title>Node0x59ac9f445620</title>
<path fill="#f0f4ff" stroke="black" d="M614.5,-556C614.5,-556 571.5,-556 571.5,-556 565.5,-556 559.5,-550 559.5,-544 559.5,-544 559.5,-532 559.5,-532 559.5,-526 565.5,-520 571.5,-520 571.5,-520 614.5,-520 614.5,-520 620.5,-520 626.5,-526 626.5,-532 626.5,-532 626.5,-544 626.5,-544 626.5,-550 620.5,-556 614.5,-556"/>
<text text-anchor="middle" x="593" y="-535.8" font-family="Courier,monospace" font-size="9.00">{delete()}</text>
</g>
<!-- Node0x59ac9f452480&#45;&gt;Node0x59ac9f445620 -->
<g id="edge3" class="edge">
<title>Node0x59ac9f452480&#45;&gt;Node0x59ac9f445620</title>
<path fill="none" stroke="#4a6fa5" d="M216.71,-596.29C298.14,-583.64 473.2,-556.45 552.06,-544.2"/>
<polygon fill="#4a6fa5" stroke="#4a6fa5" points="552.84,-546.56 559.38,-543.07 552.09,-541.72 552.84,-546.56"/>
</g>
<!-- Node0x59ac9f3c1730 -->
<g id="node7" class="node">
<title>Node0x59ac9f3c1730</title>
<path fill="#f0f4ff" stroke="black" d="M225.5,-751C225.5,-751 119.5,-751 119.5,-751 113.5,-751 107.5,-745 107.5,-739 107.5,-739 107.5,-727 107.5,-727 107.5,-721 113.5,-715 119.5,-715 119.5,-715 225.5,-715 225.5,-715 231.5,-715 237.5,-721 237.5,-727 237.5,-727 237.5,-739 237.5,-739 237.5,-745 231.5,-751 225.5,-751"/>
<text text-anchor="middle" x="172.5" y="-730.8" font-family="Courier,monospace" font-size="9.00">{__gxx_personality_v0}</text>
</g>
<!-- Node0x59ac9f3ba820 -->
<g id="node8" class="node">
<title>Node0x59ac9f3ba820</title>
<path fill="#f0f4ff" stroke="black" d="M233.5,-361C233.5,-361 111.5,-361 111.5,-361 105.5,-361 99.5,-355 99.5,-349 99.5,-349 99.5,-337 99.5,-337 99.5,-331 105.5,-325 111.5,-325 111.5,-325 233.5,-325 233.5,-325 239.5,-325 245.5,-331 245.5,-337 245.5,-337 245.5,-349 245.5,-349 245.5,-355 239.5,-361 233.5,-361"/>
<text text-anchor="middle" x="172.5" y="-340.8" font-family="Courier,monospace" font-size="9.00">{IccCmmAttachProfileFile}</text>
</g>
<!-- Node0x59ac9f3ba820&#45;&gt;Node0x59ac9f45fd90 -->
<g id="edge5" class="edge">
<title>Node0x59ac9f3ba820&#45;&gt;Node0x59ac9f45fd90</title>
<path fill="none" stroke="#4a6fa5" d="M245.71,-341.6C279.01,-344.42 317.22,-353 345,-375 419.25,-433.82 357.28,-510.53 431,-570 467.39,-599.35 523.15,-604.65 558.58,-604.66"/>
<polygon fill="#4a6fa5" stroke="#4a6fa5" points="558.84,-607.11 565.81,-604.59 558.79,-602.21 558.84,-607.11"/>
</g>
<!-- Node0x59ac9f3ba820&#45;&gt;Node0x59ac9f445620 -->
<g id="edge11" class="edge">
<title>Node0x59ac9f3ba820&#45;&gt;Node0x59ac9f445620</title>
<path fill="none" stroke="#4a6fa5" d="M245.85,-343.91C278.41,-347.34 315.97,-355.75 345,-375 402.74,-413.28 373.6,-466.21 431,-505 467.09,-529.39 517.38,-536.42 552.11,-538.13"/>
<polygon fill="#4a6fa5" stroke="#4a6fa5" points="552.18,-540.59 559.27,-538.42 552.37,-535.69 552.18,-540.59"/>
</g>
<!-- Node0x59ac9f3babb0 -->
<g id="node9" class="node">
<title>Node0x59ac9f3babb0</title>
<path fill="#f0f4ff" stroke="black" d="M740.5,-231C740.5,-231 445.5,-231 445.5,-231 439.5,-231 433.5,-225 433.5,-219 433.5,-219 433.5,-207 433.5,-207 433.5,-201 439.5,-195 445.5,-195 445.5,-195 740.5,-195 740.5,-195 746.5,-195 752.5,-201 752.5,-207 752.5,-207 752.5,-219 752.5,-219 752.5,-225 746.5,-231 740.5,-231"/>
<text text-anchor="middle" x="593" y="-210.8" font-family="Courier,monospace" font-size="9.00">{CIccCreateXformHintManager::CIccCreateXformHintManager()}</text>
</g>
<!-- Node0x59ac9f3ba820&#45;&gt;Node0x59ac9f3babb0 -->
<g id="edge4" class="edge">
<title>Node0x59ac9f3ba820&#45;&gt;Node0x59ac9f3babb0</title>
<path fill="none" stroke="#4a6fa5" d="M245.61,-334.1C277.05,-328.55 313.78,-319.75 345,-306 387.89,-287.12 387.96,-263.53 431,-245 441.72,-240.38 453.13,-236.43 464.74,-233.03"/>
<polygon fill="#4a6fa5" stroke="#4a6fa5" points="465.52,-235.36 471.59,-231.1 464.19,-230.64 465.52,-235.36"/>
</g>
<!-- Node0x59ac9f3b9a10 -->
<g id="node10" class="node">
<title>Node0x59ac9f3b9a10</title>
<path fill="#f0f4ff" stroke="black" d="M641,-166C641,-166 545,-166 545,-166 539,-166 533,-160 533,-154 533,-154 533,-142 533,-142 533,-136 539,-130 545,-130 545,-130 641,-130 641,-130 647,-130 653,-136 653,-142 653,-142 653,-154 653,-154 653,-160 647,-166 641,-166"/>
<text text-anchor="middle" x="593" y="-145.8" font-family="Courier,monospace" font-size="9.00">{llvm.memset.p0.i64}</text>
</g>
<!-- Node0x59ac9f3ba820&#45;&gt;Node0x59ac9f3b9a10 -->
<g id="edge6" class="edge">
<title>Node0x59ac9f3ba820&#45;&gt;Node0x59ac9f3b9a10</title>
<path fill="none" stroke="#4a6fa5" d="M245.82,-339.49C278.38,-335 315.94,-325.55 345,-306 401.26,-268.16 374.44,-217.39 431,-180 458.73,-161.67 494.62,-153.4 525.47,-149.83"/>
<polygon fill="#4a6fa5" stroke="#4a6fa5" points="526.08,-152.23 532.79,-149.06 525.57,-147.35 526.08,-152.23"/>
</g>
<!-- Node0x59ac9f3b9b60 -->
<g id="node11" class="node">
<title>Node0x59ac9f3b9b60</title>
<path fill="#f0f4ff" stroke="black" d="M688,-491C688,-491 498,-491 498,-491 492,-491 486,-485 486,-479 486,-479 486,-467 486,-467 486,-461 492,-455 498,-455 498,-455 688,-455 688,-455 694,-455 700,-461 700,-467 700,-467 700,-479 700,-479 700,-485 694,-491 688,-491"/>
<text text-anchor="middle" x="593" y="-470.8" font-family="Courier,monospace" font-size="9.00">{CIccApplyBPCHint::CIccApplyBPCHint()}</text>
</g>
<!-- Node0x59ac9f3ba820&#45;&gt;Node0x59ac9f3b9b60 -->
<g id="edge7" class="edge">
<title>Node0x59ac9f3ba820&#45;&gt;Node0x59ac9f3b9b60</title>
<path fill="none" stroke="#4a6fa5" d="M245.79,-348.98C277.26,-353.46 313.97,-361.3 345,-375 388.83,-394.35 387.34,-420.26 431,-440 446.01,-446.79 462.45,-452.19 478.89,-456.5"/>
<polygon fill="#4a6fa5" stroke="#4a6fa5" points="478.55,-458.94 485.94,-458.27 479.75,-454.18 478.55,-458.94"/>
</g>
<!-- Node0x59ac9f3bab10 -->
<g id="node12" class="node">
<title>Node0x59ac9f3bab10</title>
<path fill="#f0f4ff" stroke="black" d="M690.5,-361C690.5,-361 495.5,-361 495.5,-361 489.5,-361 483.5,-355 483.5,-349 483.5,-349 483.5,-337 483.5,-337 483.5,-331 489.5,-325 495.5,-325 495.5,-325 690.5,-325 690.5,-325 696.5,-325 702.5,-331 702.5,-337 702.5,-337 702.5,-349 702.5,-349 702.5,-355 696.5,-361 690.5,-361"/>
<text text-anchor="middle" x="593" y="-340.8" font-family="Courier,monospace" font-size="9.00">{CIccCreateXformHintManager::AddHint()}</text>
</g>
<!-- Node0x59ac9f3ba820&#45;&gt;Node0x59ac9f3bab10 -->
<g id="edge8" class="edge">
<title>Node0x59ac9f3ba820&#45;&gt;Node0x59ac9f3bab10</title>
<path fill="none" stroke="#4a6fa5" d="M245.92,-343C309.26,-343 402.4,-343 476.1,-343"/>
<polygon fill="#4a6fa5" stroke="#4a6fa5" points="476.17,-345.45 483.17,-343 476.17,-340.55 476.17,-345.45"/>
</g>
<!-- Node0x59ac9f41db50 -->
<g id="node13" class="node">
<title>Node0x59ac9f41db50</title>
<path fill="#f0f4ff" stroke="black" d="M743,-296C743,-296 443,-296 443,-296 437,-296 431,-290 431,-284 431,-284 431,-272 431,-272 431,-266 437,-260 443,-260 443,-260 743,-260 743,-260 749,-260 755,-266 755,-272 755,-272 755,-284 755,-284 755,-290 749,-296 743,-296"/>
<text text-anchor="middle" x="593" y="-275.8" font-family="Courier,monospace" font-size="9.00">{CIccCreateXformHintManager::~CIccCreateXformHintManager()}</text>
</g>
<!-- Node0x59ac9f3ba820&#45;&gt;Node0x59ac9f41db50 -->
<g id="edge9" class="edge">
<title>Node0x59ac9f3ba820&#45;&gt;Node0x59ac9f41db50</title>
<path fill="none" stroke="#4a6fa5" d="M245.92,-331.75C307.22,-322.23 396.43,-308.37 468.92,-297.12"/>
<polygon fill="#4a6fa5" stroke="#4a6fa5" points="469.34,-299.53 475.88,-296.03 468.59,-294.69 469.34,-299.53"/>
</g>
<!-- Node0x59ac9f46bd80 -->
<g id="node14" class="node">
<title>Node0x59ac9f46bd80</title>
<path fill="#f0f4ff" stroke="black" d="M730,-426C730,-426 456,-426 456,-426 450,-426 444,-420 444,-414 444,-414 444,-402 444,-402 444,-396 450,-390 456,-390 456,-390 730,-390 730,-390 736,-390 742,-396 742,-402 742,-402 742,-414 742,-414 742,-420 736,-426 730,-426"/>
<text text-anchor="middle" x="593" y="-405.8" font-family="Courier,monospace" font-size="9.00">{CIccCmmEnvVarWrapperHint::CIccCmmEnvVarWrapperHint()}</text>
</g>
<!-- Node0x59ac9f3ba820&#45;&gt;Node0x59ac9f46bd80 -->
<g id="edge10" class="edge">
<title>Node0x59ac9f3ba820&#45;&gt;Node0x59ac9f46bd80</title>
<path fill="none" stroke="#4a6fa5" d="M245.92,-354.25C307.22,-363.77 396.43,-377.63 468.92,-388.88"/>
<polygon fill="#4a6fa5" stroke="#4a6fa5" points="468.59,-391.31 475.88,-389.97 469.34,-386.47 468.59,-391.31"/>
</g>
<!-- Node0x59ac9f469e20 -->
<g id="node15" class="node">
<title>Node0x59ac9f469e20</title>
<path fill="#f0f4ff" stroke="black" d="M1171.5,-491C1171.5,-491 855.5,-491 855.5,-491 849.5,-491 843.5,-485 843.5,-479 843.5,-479 843.5,-467 843.5,-467 843.5,-461 849.5,-455 855.5,-455 855.5,-455 1171.5,-455 1171.5,-455 1177.5,-455 1183.5,-461 1183.5,-467 1183.5,-467 1183.5,-479 1183.5,-479 1183.5,-485 1177.5,-491 1171.5,-491"/>
<text text-anchor="middle" x="1013.5" y="-470.8" font-family="Courier,monospace" font-size="9.00">{CIccCreateAdjustPCSXformHint::CIccCreateAdjustPCSXformHint()}</text>
</g>
<!-- Node0x59ac9f3b9b60&#45;&gt;Node0x59ac9f469e20 -->
<g id="edge12" class="edge">
<title>Node0x59ac9f3b9b60&#45;&gt;Node0x59ac9f469e20</title>
<path fill="none" stroke="#4a6fa5" d="M700.15,-473C741.49,-473 790,-473 836.29,-473"/>
<polygon fill="#4a6fa5" stroke="#4a6fa5" points="836.4,-475.45 843.4,-473 836.4,-470.55 836.4,-475.45"/>
</g>
<!-- Node0x59ac9f468940 -->
<g id="node16" class="node">
<title>Node0x59ac9f468940</title>
<path fill="#f0f4ff" stroke="black" d="M1171.5,-426C1171.5,-426 855.5,-426 855.5,-426 849.5,-426 843.5,-420 843.5,-414 843.5,-414 843.5,-402 843.5,-402 843.5,-396 849.5,-390 855.5,-390 855.5,-390 1171.5,-390 1171.5,-390 1177.5,-390 1183.5,-396 1183.5,-402 1183.5,-402 1183.5,-414 1183.5,-414 1183.5,-420 1177.5,-426 1171.5,-426"/>
<text text-anchor="middle" x="1013.5" y="-405.8" font-family="Courier,monospace" font-size="9.00">{CIccCreateCmmEnvVarXformHint::CIccCreateCmmEnvVarXformHint()}</text>
</g>
<!-- Node0x59ac9f46bd80&#45;&gt;Node0x59ac9f468940 -->
<g id="edge13" class="edge">
<title>Node0x59ac9f46bd80&#45;&gt;Node0x59ac9f468940</title>
<path fill="none" stroke="#4a6fa5" d="M742.14,-408C772.63,-408 805.02,-408 836.4,-408"/>
<polygon fill="#4a6fa5" stroke="#4a6fa5" points="836.5,-410.45 843.5,-408 836.5,-405.55 836.5,-410.45"/>
</g>
<!-- Node0x59ac9f471840 -->
<g id="node44" class="node">
<title>Node0x59ac9f471840</title>
<path fill="#f0f4ff" stroke="black" d="M1508.5,-458C1508.5,-458 1286.5,-458 1286.5,-458 1280.5,-458 1274.5,-452 1274.5,-446 1274.5,-446 1274.5,-434 1274.5,-434 1274.5,-428 1280.5,-422 1286.5,-422 1286.5,-422 1508.5,-422 1508.5,-422 1514.5,-422 1520.5,-428 1520.5,-434 1520.5,-434 1520.5,-446 1520.5,-446 1520.5,-452 1514.5,-458 1508.5,-458"/>
<text text-anchor="middle" x="1397.5" y="-437.8" font-family="Courier,monospace" font-size="9.00">{IIccCreateXformHint::IIccCreateXformHint()}</text>
</g>
<!-- Node0x59ac9f469e20&#45;&gt;Node0x59ac9f471840 -->
<g id="edge36" class="edge">
<title>Node0x59ac9f469e20&#45;&gt;Node0x59ac9f471840</title>
<path fill="none" stroke="#4a6fa5" d="M1183.72,-458.38C1211.75,-455.96 1240.41,-453.48 1267.25,-451.17"/>
<polygon fill="#4a6fa5" stroke="#4a6fa5" points="1267.64,-453.59 1274.4,-450.55 1267.22,-448.71 1267.64,-453.59"/>
</g>
<!-- Node0x59ac9f468940&#45;&gt;Node0x59ac9f471840 -->
<g id="edge40" class="edge">
<title>Node0x59ac9f468940&#45;&gt;Node0x59ac9f471840</title>
<path fill="none" stroke="#4a6fa5" d="M1183.72,-422.18C1211.75,-424.52 1240.41,-426.92 1267.25,-429.17"/>
<polygon fill="#4a6fa5" stroke="#4a6fa5" points="1267.22,-431.63 1274.4,-429.77 1267.63,-426.75 1267.22,-431.63"/>
</g>
<!-- Node0x59ac9f46d5e0 -->
<g id="node17" class="node">
<title>Node0x59ac9f46d5e0</title>
<path fill="#f0f4ff" stroke="black" d="M238.5,-426C238.5,-426 106.5,-426 106.5,-426 100.5,-426 94.5,-420 94.5,-414 94.5,-414 94.5,-402 94.5,-402 94.5,-396 100.5,-390 106.5,-390 106.5,-390 238.5,-390 238.5,-390 244.5,-390 250.5,-396 250.5,-402 250.5,-402 250.5,-414 250.5,-414 250.5,-420 244.5,-426 238.5,-426"/>
<text text-anchor="middle" x="172.5" y="-405.8" font-family="Courier,monospace" font-size="9.00">{IccCmmAttachProfileHandle}</text>
</g>
<!-- Node0x59ac9f46d5e0&#45;&gt;Node0x59ac9f45fd90 -->
<g id="edge15" class="edge">
<title>Node0x59ac9f46d5e0&#45;&gt;Node0x59ac9f45fd90</title>
<path fill="none" stroke="#4a6fa5" d="M208.46,-426.02C243.69,-444.58 299.25,-474.96 345,-505 385.05,-531.3 387.34,-550.26 431,-570 472.57,-588.8 525.03,-596.99 558.55,-600.49"/>
<polygon fill="#4a6fa5" stroke="#4a6fa5" points="558.61,-602.96 565.82,-601.2 559.09,-598.08 558.61,-602.96"/>
</g>
<!-- Node0x59ac9f46d5e0&#45;&gt;Node0x59ac9f445620 -->
<g id="edge21" class="edge">
<title>Node0x59ac9f46d5e0&#45;&gt;Node0x59ac9f445620</title>
<path fill="none" stroke="#4a6fa5" d="M215.18,-426.04C265.54,-447.29 353.21,-482.53 431,-505 471.65,-516.74 519.22,-525.95 552.06,-531.63"/>
<polygon fill="#4a6fa5" stroke="#4a6fa5" points="551.94,-534.09 559.25,-532.85 552.77,-529.26 551.94,-534.09"/>
</g>
<!-- Node0x59ac9f46d5e0&#45;&gt;Node0x59ac9f3babb0 -->
<g id="edge14" class="edge">
<title>Node0x59ac9f46d5e0&#45;&gt;Node0x59ac9f3babb0</title>
<path fill="none" stroke="#4a6fa5" d="M250.57,-406.05C282.01,-402.12 317.38,-393.42 345,-375 402.63,-336.56 373.48,-283.62 431,-245 437.25,-240.8 443.92,-237.13 450.87,-233.92"/>
<polygon fill="#4a6fa5" stroke="#4a6fa5" points="451.88,-236.15 457.32,-231.1 449.92,-231.66 451.88,-236.15"/>
</g>
<!-- Node0x59ac9f46d5e0&#45;&gt;Node0x59ac9f3b9a10 -->
<g id="edge16" class="edge">
<title>Node0x59ac9f46d5e0&#45;&gt;Node0x59ac9f3b9a10</title>
<path fill="none" stroke="#4a6fa5" d="M250.9,-408.42C282.94,-404.96 318.68,-395.97 345,-375 419.08,-315.97 357.1,-239.25 431,-180 457.46,-158.79 494.11,-150.38 525.76,-147.46"/>
<polygon fill="#4a6fa5" stroke="#4a6fa5" points="526.06,-149.89 532.84,-146.89 525.67,-145.01 526.06,-149.89"/>
</g>
<!-- Node0x59ac9f46d5e0&#45;&gt;Node0x59ac9f3b9b60 -->
<g id="edge17" class="edge">
<title>Node0x59ac9f46d5e0&#45;&gt;Node0x59ac9f3b9b60</title>
<path fill="none" stroke="#4a6fa5" d="M250.75,-420C314.7,-429.93 406.45,-444.18 478.71,-455.4"/>
<polygon fill="#4a6fa5" stroke="#4a6fa5" points="478.35,-457.83 485.64,-456.48 479.1,-452.98 478.35,-457.83"/>
</g>
<!-- Node0x59ac9f46d5e0&#45;&gt;Node0x59ac9f3bab10 -->
<g id="edge18" class="edge">
<title>Node0x59ac9f46d5e0&#45;&gt;Node0x59ac9f3bab10</title>
<path fill="none" stroke="#4a6fa5" d="M250.75,-396C313.88,-386.2 404.11,-372.18 475.94,-361.03"/>
<polygon fill="#4a6fa5" stroke="#4a6fa5" points="476.73,-363.38 483.27,-359.89 475.98,-358.54 476.73,-363.38"/>
</g>
<!-- Node0x59ac9f46d5e0&#45;&gt;Node0x59ac9f41db50 -->
<g id="edge19" class="edge">
<title>Node0x59ac9f46d5e0&#45;&gt;Node0x59ac9f41db50</title>
<path fill="none" stroke="#4a6fa5" d="M250.9,-400.75C281.19,-395.97 315.64,-388.07 345,-375 388.77,-355.52 387.29,-329.61 431,-310 441.23,-305.41 452.11,-301.48 463.21,-298.11"/>
<polygon fill="#4a6fa5" stroke="#4a6fa5" points="464.12,-300.39 470.15,-296.08 462.74,-295.69 464.12,-300.39"/>
</g>
<!-- Node0x59ac9f46d5e0&#45;&gt;Node0x59ac9f46bd80 -->
<g id="edge20" class="edge">
<title>Node0x59ac9f46d5e0&#45;&gt;Node0x59ac9f46bd80</title>
<path fill="none" stroke="#4a6fa5" d="M250.75,-408C302.71,-408 373.03,-408 436.34,-408"/>
<polygon fill="#4a6fa5" stroke="#4a6fa5" points="436.62,-410.45 443.62,-408 436.62,-405.55 436.62,-410.45"/>
</g>
<!-- Node0x59ac9f46d4a0 -->
<g id="node18" class="node">
<title>Node0x59ac9f46d4a0</title>
<path fill="#f0f4ff" stroke="black" d="M202,-816C202,-816 143,-816 143,-816 137,-816 131,-810 131,-804 131,-804 131,-792 131,-792 131,-786 137,-780 143,-780 143,-780 202,-780 202,-780 208,-780 214,-786 214,-792 214,-792 214,-804 214,-804 214,-810 208,-816 202,-816"/>
<text text-anchor="middle" x="172.5" y="-795.8" font-family="Courier,monospace" font-size="9.00">{IccCmmBegin}</text>
</g>
<!-- Node0x59ac9f46d220 -->
<g id="node19" class="node">
<title>Node0x59ac9f46d220</title>
<path fill="#f0f4ff" stroke="black" d="M210,-881C210,-881 135,-881 135,-881 129,-881 123,-875 123,-869 123,-869 123,-857 123,-857 123,-851 129,-845 135,-845 135,-845 210,-845 210,-845 216,-845 222,-851 222,-857 222,-857 222,-869 222,-869 222,-875 216,-881 210,-881"/>
<text text-anchor="middle" x="172.5" y="-860.8" font-family="Courier,monospace" font-size="9.00">{IccCmmGetApply}</text>
</g>
<!-- Node0x59ac9f46cda0 -->
<g id="node20" class="node">
<title>Node0x59ac9f46cda0</title>
<path fill="#f0f4ff" stroke="black" d="M207,-946C207,-946 138,-946 138,-946 132,-946 126,-940 126,-934 126,-934 126,-922 126,-922 126,-916 132,-910 138,-910 138,-910 207,-910 207,-910 213,-910 219,-916 219,-922 219,-922 219,-934 219,-934 219,-940 213,-946 207,-946"/>
<text text-anchor="middle" x="172.5" y="-925.8" font-family="Courier,monospace" font-size="9.00">{IccCmmGetInfo}</text>
</g>
<!-- Node0x59ac9f46d9a0 -->
<g id="node21" class="node">
<title>Node0x59ac9f46d9a0</title>
<path fill="#f0f4ff" stroke="black" d="M659,-1027C659,-1027 527,-1027 527,-1027 521,-1027 515,-1021 515,-1015 515,-1015 515,-1003 515,-1003 515,-997 521,-991 527,-991 527,-991 659,-991 659,-991 665,-991 671,-997 671,-1003 671,-1003 671,-1015 671,-1015 671,-1021 665,-1027 659,-1027"/>
<text text-anchor="middle" x="593" y="-1006.8" font-family="Courier,monospace" font-size="9.00">{CIccCmm::GetSourceSpace()}</text>
</g>
<!-- Node0x59ac9f46cda0&#45;&gt;Node0x59ac9f46d9a0 -->
<g id="edge22" class="edge">
<title>Node0x59ac9f46cda0&#45;&gt;Node0x59ac9f46d9a0</title>
<path fill="none" stroke="#4a6fa5" d="M219.08,-936.82C288.28,-950.22 420.98,-975.9 507.98,-992.74"/>
<polygon fill="#4a6fa5" stroke="#4a6fa5" points="507.61,-995.16 514.94,-994.09 508.54,-990.35 507.61,-995.16"/>
</g>
<!-- Node0x59ac9f46e120 -->
<g id="node22" class="node">
<title>Node0x59ac9f46e120</title>
<path fill="#f0f4ff" stroke="black" d="M664.5,-962C664.5,-962 521.5,-962 521.5,-962 515.5,-962 509.5,-956 509.5,-950 509.5,-950 509.5,-938 509.5,-938 509.5,-932 515.5,-926 521.5,-926 521.5,-926 664.5,-926 664.5,-926 670.5,-926 676.5,-932 676.5,-938 676.5,-938 676.5,-950 676.5,-950 676.5,-956 670.5,-962 664.5,-962"/>
<text text-anchor="middle" x="593" y="-941.8" font-family="Courier,monospace" font-size="9.00">{CIccCmm::GetSourceSamples()}</text>
</g>
<!-- Node0x59ac9f46cda0&#45;&gt;Node0x59ac9f46e120 -->
<g id="edge23" class="edge">
<title>Node0x59ac9f46cda0&#45;&gt;Node0x59ac9f46e120</title>
<path fill="none" stroke="#4a6fa5" d="M219.08,-929.74C286.77,-932.33 415.21,-937.24 502.21,-940.57"/>
<polygon fill="#4a6fa5" stroke="#4a6fa5" points="502.36,-943.02 509.45,-940.84 502.55,-938.13 502.36,-943.02"/>
</g>
<!-- Node0x59ac9f46dfe0 -->
<g id="node23" class="node">
<title>Node0x59ac9f46dfe0</title>
<path fill="#f0f4ff" stroke="black" d="M654,-897C654,-897 532,-897 532,-897 526,-897 520,-891 520,-885 520,-885 520,-873 520,-873 520,-867 526,-861 532,-861 532,-861 654,-861 654,-861 660,-861 666,-867 666,-873 666,-873 666,-885 666,-885 666,-891 660,-897 654,-897"/>
<text text-anchor="middle" x="593" y="-876.8" font-family="Courier,monospace" font-size="9.00">{CIccCmm::GetDestSpace()}</text>
</g>
<!-- Node0x59ac9f46cda0&#45;&gt;Node0x59ac9f46dfe0 -->
<g id="edge24" class="edge">
<title>Node0x59ac9f46cda0&#45;&gt;Node0x59ac9f46dfe0</title>
<path fill="none" stroke="#4a6fa5" d="M219.08,-922.66C289.55,-914.41 425.87,-898.45 512.72,-888.28"/>
<polygon fill="#4a6fa5" stroke="#4a6fa5" points="513.26,-890.69 519.93,-887.44 512.69,-885.82 513.26,-890.69"/>
</g>
<!-- Node0x59ac9f46dd60 -->
<g id="node24" class="node">
<title>Node0x59ac9f46dd60</title>
<path fill="#f0f4ff" stroke="black" d="M659,-832C659,-832 527,-832 527,-832 521,-832 515,-826 515,-820 515,-820 515,-808 515,-808 515,-802 521,-796 527,-796 527,-796 659,-796 659,-796 665,-796 671,-802 671,-808 671,-808 671,-820 671,-820 671,-826 665,-832 659,-832"/>
<text text-anchor="middle" x="593" y="-811.8" font-family="Courier,monospace" font-size="9.00">{CIccCmm::GetDestSamples()}</text>
</g>
<!-- Node0x59ac9f46cda0&#45;&gt;Node0x59ac9f46dd60 -->
<g id="edge25" class="edge">
<title>Node0x59ac9f46cda0&#45;&gt;Node0x59ac9f46dd60</title>
<path fill="none" stroke="#4a6fa5" d="M219.01,-923.36C254.22,-918.8 303.76,-910.24 345,-895 386.26,-879.75 389.78,-861.38 431,-846 455.28,-836.94 482.63,-830.28 507.81,-825.46"/>
<polygon fill="#4a6fa5" stroke="#4a6fa5" points="508.41,-827.84 514.84,-824.14 507.51,-823.02 508.41,-827.84"/>
</g>
<!-- Node0x59ac9f46dae0 -->
<g id="node27" class="node">
<title>Node0x59ac9f46dae0</title>
<path fill="#f0f4ff" stroke="black" d="M1064,-848C1064,-848 963,-848 963,-848 957,-848 951,-842 951,-836 951,-836 951,-824 951,-824 951,-818 957,-812 963,-812 963,-812 1064,-812 1064,-812 1070,-812 1076,-818 1076,-824 1076,-824 1076,-836 1076,-836 1076,-842 1070,-848 1064,-848"/>
<text text-anchor="middle" x="1013.5" y="-827.8" font-family="Courier,monospace" font-size="9.00">{icGetSpaceSamples()}</text>
</g>
<!-- Node0x59ac9f46e120&#45;&gt;Node0x59ac9f46dae0 -->
<g id="edge27" class="edge">
<title>Node0x59ac9f46e120&#45;&gt;Node0x59ac9f46dae0</title>
<path fill="none" stroke="#4a6fa5" d="M676.69,-928.74C701.95,-923.63 729.73,-917.55 755,-911 824.03,-893.12 901.98,-867.88 953.85,-850.34"/>
<polygon fill="#4a6fa5" stroke="#4a6fa5" points="954.83,-852.59 960.68,-848.03 953.26,-847.95 954.83,-852.59"/>
</g>
<!-- Node0x59ac9f46dd60&#45;&gt;Node0x59ac9f46dae0 -->
<g id="edge28" class="edge">
<title>Node0x59ac9f46dd60&#45;&gt;Node0x59ac9f46dae0</title>
<path fill="none" stroke="#4a6fa5" d="M671.25,-816.95C749.27,-819.94 868.67,-824.5 943.57,-827.36"/>
<polygon fill="#4a6fa5" stroke="#4a6fa5" points="943.59,-829.82 950.68,-827.64 943.78,-824.92 943.59,-829.82"/>
</g>
<!-- Node0x59ac9f490870 -->
<g id="node25" class="node">
<title>Node0x59ac9f490870</title>
<path fill="#f0f4ff" stroke="black" d="M714.5,-751C714.5,-751 471.5,-751 471.5,-751 465.5,-751 459.5,-745 459.5,-739 459.5,-739 459.5,-727 459.5,-727 459.5,-721 465.5,-715 471.5,-715 471.5,-715 714.5,-715 714.5,-715 720.5,-715 726.5,-721 726.5,-727 726.5,-727 726.5,-739 726.5,-739 726.5,-745 720.5,-751 714.5,-751"/>
<text text-anchor="middle" x="593" y="-730.8" font-family="Courier,monospace" font-size="9.00">{CIccCmmEnvVarsWrapper::CIccCmmEnvVarsWrapper()}</text>
</g>
<!-- Node0x59ac9f4901a0 -->
<g id="node26" class="node">
<title>Node0x59ac9f4901a0</title>
<path fill="#f0f4ff" stroke="black" d="M1124.5,-751C1124.5,-751 902.5,-751 902.5,-751 896.5,-751 890.5,-745 890.5,-739 890.5,-739 890.5,-727 890.5,-727 890.5,-721 896.5,-715 902.5,-715 902.5,-715 1124.5,-715 1124.5,-715 1130.5,-715 1136.5,-721 1136.5,-727 1136.5,-727 1136.5,-739 1136.5,-739 1136.5,-745 1130.5,-751 1124.5,-751"/>
<text text-anchor="middle" x="1013.5" y="-730.8" font-family="Courier,monospace" font-size="9.00">{IIccCmmEnvVarLookup::IIccCmmEnvVarLookup()}</text>
</g>
<!-- Node0x59ac9f490870&#45;&gt;Node0x59ac9f4901a0 -->
<g id="edge26" class="edge">
<title>Node0x59ac9f490870&#45;&gt;Node0x59ac9f4901a0</title>
<path fill="none" stroke="#4a6fa5" d="M726.7,-733C776.68,-733 833.4,-733 883.07,-733"/>
<polygon fill="#4a6fa5" stroke="#4a6fa5" points="883.35,-735.45 890.35,-733 883.35,-730.55 883.35,-735.45"/>
</g>
<!-- Node0x59ac9f46fec0 -->
<g id="node28" class="node">
<title>Node0x59ac9f46fec0</title>
<path fill="#f0f4ff" stroke="black" d="M215,-7218C215,-7218 130,-7218 130,-7218 124,-7218 118,-7212 118,-7206 118,-7206 118,-7194 118,-7194 118,-7188 124,-7182 130,-7182 130,-7182 215,-7182 215,-7182 221,-7182 227,-7188 227,-7194 227,-7194 227,-7206 227,-7206 227,-7212 221,-7218 215,-7218"/>
<text text-anchor="middle" x="172.5" y="-7197.8" font-family="Courier,monospace" font-size="9.00">{IccCmmApplyFloat}</text>
</g>
<!-- Node0x59ac9f46f880 -->
<g id="node29" class="node">
<title>Node0x59ac9f46f880</title>
<path fill="#f0f4ff" stroke="black" d="M228,-10386C228,-10386 117,-10386 117,-10386 111,-10386 105,-10380 105,-10374 105,-10374 105,-10362 105,-10362 105,-10356 111,-10350 117,-10350 117,-10350 228,-10350 228,-10350 234,-10350 240,-10356 240,-10362 240,-10362 240,-10374 240,-10374 240,-10380 234,-10386 228,-10386"/>
<text text-anchor="middle" x="172.5" y="-10365.8" font-family="Courier,monospace" font-size="9.00">{IccCmmApplyFloatMulti}</text>
</g>
<!-- Node0x59ac9f46f4c0 -->
<g id="node30" class="node">
<title>Node0x59ac9f46f4c0</title>
<path fill="#f0f4ff" stroke="black" d="M199.5,-12003C199.5,-12003 145.5,-12003 145.5,-12003 139.5,-12003 133.5,-11997 133.5,-11991 133.5,-11991 133.5,-11979 133.5,-11979 133.5,-11973 139.5,-11967 145.5,-11967 145.5,-11967 199.5,-11967 199.5,-11967 205.5,-11967 211.5,-11973 211.5,-11979 211.5,-11979 211.5,-11991 211.5,-11991 211.5,-11997 205.5,-12003 199.5,-12003"/>
<text text-anchor="middle" x="172.5" y="-11982.8" font-family="Courier,monospace" font-size="9.00">{IccCmmFree}</text>
</g>
<!-- Node0x59ac9f46eb20 -->
<g id="node31" class="node">
<title>Node0x59ac9f46eb20</title>
<path fill="#f0f4ff" stroke="black" d="M220.5,-12844C220.5,-12844 124.5,-12844 124.5,-12844 118.5,-12844 112.5,-12838 112.5,-12832 112.5,-12832 112.5,-12820 112.5,-12820 112.5,-12814 118.5,-12808 124.5,-12808 124.5,-12808 220.5,-12808 220.5,-12808 226.5,-12808 232.5,-12814 232.5,-12820 232.5,-12820 232.5,-12832 232.5,-12832 232.5,-12838 226.5,-12844 220.5,-12844"/>
<text text-anchor="middle" x="172.5" y="-12823.8" font-family="Courier,monospace" font-size="9.00">{IccApplyApplyFloat}</text>
</g>
<!-- Node0x59ac9f46b240 -->
<g id="node32" class="node">
<title>Node0x59ac9f46b240</title>
<path fill="#f0f4ff" stroke="black" d="M233.5,-13297C233.5,-13297 111.5,-13297 111.5,-13297 105.5,-13297 99.5,-13291 99.5,-13285 99.5,-13285 99.5,-13273 99.5,-13273 99.5,-13267 105.5,-13261 111.5,-13261 111.5,-13261 233.5,-13261 233.5,-13261 239.5,-13261 245.5,-13267 245.5,-13273 245.5,-13273 245.5,-13285 245.5,-13285 245.5,-13291 239.5,-13297 233.5,-13297"/>
<text text-anchor="middle" x="172.5" y="-13276.8" font-family="Courier,monospace" font-size="9.00">{IccApplyApplyFloatMulti}</text>
</g>
<!-- Node0x59ac9f470f00 -->
<g id="node33" class="node">
<title>Node0x59ac9f470f00</title>
<path fill="#f0f4ff" stroke="black" d="M204.5,-13556C204.5,-13556 140.5,-13556 140.5,-13556 134.5,-13556 128.5,-13550 128.5,-13544 128.5,-13544 128.5,-13532 128.5,-13532 128.5,-13526 134.5,-13520 140.5,-13520 140.5,-13520 204.5,-13520 204.5,-13520 210.5,-13520 216.5,-13526 216.5,-13532 216.5,-13532 216.5,-13544 216.5,-13544 216.5,-13550 210.5,-13556 204.5,-13556"/>
<text text-anchor="middle" x="172.5" y="-13535.8" font-family="Courier,monospace" font-size="9.00">{IccApplyFree}</text>
</g>
<!-- Node0x59ac9f470a00 -->
<g id="node34" class="node">
<title>Node0x59ac9f470a00</title>
<path fill="#f0f4ff" stroke="black" d="M225.5,-13718C225.5,-13718 119.5,-13718 119.5,-13718 113.5,-13718 107.5,-13712 107.5,-13706 107.5,-13706 107.5,-13694 107.5,-13694 107.5,-13688 113.5,-13682 119.5,-13682 119.5,-13682 225.5,-13682 225.5,-13682 231.5,-13682 237.5,-13688 237.5,-13694 237.5,-13694 237.5,-13706 237.5,-13706 237.5,-13712 231.5,-13718 225.5,-13718"/>
<text text-anchor="middle" x="172.5" y="-13697.8" font-family="Courier,monospace" font-size="9.00">{IccProfileReadHandle}</text>
</g>
<!-- Node0x59ac9f470640 -->
<g id="node35" class="node">
<title>Node0x59ac9f470640</title>
<path fill="#f0f4ff" stroke="black" d="M635.5,-13718C635.5,-13718 550.5,-13718 550.5,-13718 544.5,-13718 538.5,-13712 538.5,-13706 538.5,-13706 538.5,-13694 538.5,-13694 538.5,-13688 544.5,-13682 550.5,-13682 550.5,-13682 635.5,-13682 635.5,-13682 641.5,-13682 647.5,-13688 647.5,-13694 647.5,-13694 647.5,-13706 647.5,-13706 647.5,-13712 641.5,-13718 635.5,-13718"/>
<text text-anchor="middle" x="593" y="-13697.8" font-family="Courier,monospace" font-size="9.00">{ReadIccProfile()}</text>
</g>
<!-- Node0x59ac9f470a00&#45;&gt;Node0x59ac9f470640 -->
<g id="edge29" class="edge">
<title>Node0x59ac9f470a00&#45;&gt;Node0x59ac9f470640</title>
<path fill="none" stroke="#4a6fa5" d="M237.52,-13700C317.26,-13700 452.53,-13700 530.9,-13700"/>
<polygon fill="#4a6fa5" stroke="#4a6fa5" points="531.3,-13702.45 538.3,-13700 531.3,-13697.55 531.3,-13702.45"/>
</g>
<!-- Node0x59ac9f470200 -->
<g id="node36" class="node">
<title>Node0x59ac9f470200</title>
<path fill="#f0f4ff" stroke="black" d="M225.5,-13831C225.5,-13831 119.5,-13831 119.5,-13831 113.5,-13831 107.5,-13825 107.5,-13819 107.5,-13819 107.5,-13807 107.5,-13807 107.5,-13801 113.5,-13795 119.5,-13795 119.5,-13795 225.5,-13795 225.5,-13795 231.5,-13795 237.5,-13801 237.5,-13807 237.5,-13807 237.5,-13819 237.5,-13819 237.5,-13825 231.5,-13831 225.5,-13831"/>
<text text-anchor="middle" x="172.5" y="-13810.8" font-family="Courier,monospace" font-size="9.00">{IccProfileOpenHandle}</text>
</g>
<!-- Node0x59ac9f46d520 -->
<g id="node37" class="node">
<title>Node0x59ac9f46d520</title>
<path fill="#f0f4ff" stroke="black" d="M635.5,-13831C635.5,-13831 550.5,-13831 550.5,-13831 544.5,-13831 538.5,-13825 538.5,-13819 538.5,-13819 538.5,-13807 538.5,-13807 538.5,-13801 544.5,-13795 550.5,-13795 550.5,-13795 635.5,-13795 635.5,-13795 641.5,-13795 647.5,-13801 647.5,-13807 647.5,-13807 647.5,-13819 647.5,-13819 647.5,-13825 641.5,-13831 635.5,-13831"/>
<text text-anchor="middle" x="593" y="-13810.8" font-family="Courier,monospace" font-size="9.00">{OpenIccProfile()}</text>
</g>
<!-- Node0x59ac9f470200&#45;&gt;Node0x59ac9f46d520 -->
<g id="edge30" class="edge">
<title>Node0x59ac9f470200&#45;&gt;Node0x59ac9f46d520</title>
<path fill="none" stroke="#4a6fa5" d="M237.52,-13813C317.26,-13813 452.53,-13813 530.9,-13813"/>
<polygon fill="#4a6fa5" stroke="#4a6fa5" points="531.3,-13815.45 538.3,-13813 531.3,-13810.55 531.3,-13815.45"/>
</g>
<!-- Node0x59ac9f46d8e0 -->
<g id="node38" class="node">
<title>Node0x59ac9f46d8e0</title>
<path fill="#f0f4ff" stroke="black" d="M223,-13898C223,-13898 122,-13898 122,-13898 116,-13898 110,-13892 110,-13886 110,-13886 110,-13874 110,-13874 110,-13868 116,-13862 122,-13862 122,-13862 223,-13862 223,-13862 229,-13862 235,-13868 235,-13874 235,-13874 235,-13886 235,-13886 235,-13892 229,-13898 223,-13898"/>
<text text-anchor="middle" x="172.5" y="-13877.8" font-family="Courier,monospace" font-size="9.00">{IccProfileGetHeader}</text>
</g>
<!-- Node0x59ac9f46f800 -->
<g id="node39" class="node">
<title>Node0x59ac9f46f800</title>
<path fill="#f0f4ff" stroke="black" d="M648.5,-13898C648.5,-13898 537.5,-13898 537.5,-13898 531.5,-13898 525.5,-13892 525.5,-13886 525.5,-13886 525.5,-13874 525.5,-13874 525.5,-13868 531.5,-13862 537.5,-13862 537.5,-13862 648.5,-13862 648.5,-13862 654.5,-13862 660.5,-13868 660.5,-13874 660.5,-13874 660.5,-13886 660.5,-13886 660.5,-13892 654.5,-13898 648.5,-13898"/>
<text text-anchor="middle" x="593" y="-13877.8" font-family="Courier,monospace" font-size="9.00">{llvm.memcpy.p0.p0.i64}</text>
</g>
<!-- Node0x59ac9f46d8e0&#45;&gt;Node0x59ac9f46f800 -->
<g id="edge31" class="edge">
<title>Node0x59ac9f46d8e0&#45;&gt;Node0x59ac9f46f800</title>
<path fill="none" stroke="#4a6fa5" d="M235.25,-13880C310.62,-13880 437.94,-13880 518.35,-13880"/>
<polygon fill="#4a6fa5" stroke="#4a6fa5" points="518.5,-13882.45 525.5,-13880 518.5,-13877.55 518.5,-13882.45"/>
</g>
<!-- Node0x59ac9f46ebe0 -->
<g id="node40" class="node">
<title>Node0x59ac9f46ebe0</title>
<path fill="#f0f4ff" stroke="black" d="M210,-556C210,-556 135,-556 135,-556 129,-556 123,-550 123,-544 123,-544 123,-532 123,-532 123,-526 129,-520 135,-520 135,-520 210,-520 210,-520 216,-520 222,-526 222,-532 222,-532 222,-544 222,-544 222,-550 216,-556 210,-556"/>
<text text-anchor="middle" x="172.5" y="-535.8" font-family="Courier,monospace" font-size="9.00">{IccProfileFree}</text>
</g>
<!-- Node0x59ac9f46ebe0&#45;&gt;Node0x59ac9f445620 -->
<g id="edge32" class="edge">
<title>Node0x59ac9f46ebe0&#45;&gt;Node0x59ac9f445620</title>
<path fill="none" stroke="#4a6fa5" d="M222.33,-538C305.98,-538 475.13,-538 552.17,-538"/>
<polygon fill="#4a6fa5" stroke="#4a6fa5" points="552.33,-540.45 559.33,-538 552.33,-535.55 552.33,-540.45"/>
</g>
<!-- Node0x59ac9f46cf20 -->
<g id="node41" class="node">
<title>Node0x59ac9f46cf20</title>
<path fill="#f0f4ff" stroke="black" d="M717,-101C717,-101 469,-101 469,-101 463,-101 457,-95 457,-89 457,-89 457,-77 457,-77 457,-71 463,-65 469,-65 469,-65 717,-65 717,-65 723,-65 729,-71 729,-77 729,-77 729,-89 729,-89 729,-95 723,-101 717,-101"/>
<text text-anchor="middle" x="593" y="-80.8" font-family="Courier,monospace" font-size="9.00">{CIccCmmEnvVarsWrapper::~CIccCmmEnvVarsWrapper()}</text>
</g>
<!-- Node0x59ac9f46d1a0 -->
<g id="node42" class="node">
<title>Node0x59ac9f46d1a0</title>
<path fill="#f0f4ff" stroke="black" d="M1127,-101C1127,-101 900,-101 900,-101 894,-101 888,-95 888,-89 888,-89 888,-77 888,-77 888,-71 894,-65 900,-65 900,-65 1127,-65 1127,-65 1133,-65 1139,-71 1139,-77 1139,-77 1139,-89 1139,-89 1139,-95 1133,-101 1127,-101"/>
<text text-anchor="middle" x="1013.5" y="-80.8" font-family="Courier,monospace" font-size="9.00">{IIccCmmEnvVarLookup::~IIccCmmEnvVarLookup()}</text>
</g>
<!-- Node0x59ac9f46cf20&#45;&gt;Node0x59ac9f46d1a0 -->
<g id="edge33" class="edge">
<title>Node0x59ac9f46cf20&#45;&gt;Node0x59ac9f46d1a0</title>
<path fill="none" stroke="#4a6fa5" d="M729.01,-83C777.62,-83 832.37,-83 880.7,-83"/>
<polygon fill="#4a6fa5" stroke="#4a6fa5" points="880.79,-85.45 887.79,-83 880.79,-80.55 880.79,-85.45"/>
</g>
<!-- Node0x59ac9f46f0a0 -->
<g id="node43" class="node">
<title>Node0x59ac9f46f0a0</title>
<path fill="#f0f4ff" stroke="black" d="M296.5,-292C296.5,-292 48.5,-292 48.5,-292 42.5,-292 36.5,-286 36.5,-280 36.5,-280 36.5,-268 36.5,-268 36.5,-262 42.5,-256 48.5,-256 48.5,-256 296.5,-256 296.5,-256 302.5,-256 308.5,-262 308.5,-268 308.5,-268 308.5,-280 308.5,-280 308.5,-286 302.5,-292 296.5,-292"/>
<text text-anchor="middle" x="172.5" y="-271.8" font-family="Courier,monospace" font-size="9.00">{CIccCmmEnvVarsWrapper::~CIccCmmEnvVarsWrapper()}</text>
</g>
<!-- Node0x59ac9f46f0a0&#45;&gt;Node0x59ac9f445620 -->
<g id="edge35" class="edge">
<title>Node0x59ac9f46f0a0&#45;&gt;Node0x59ac9f445620</title>
<path fill="none" stroke="#4a6fa5" d="M308.86,-289.31C321.9,-294.53 334.25,-301.28 345,-310 418.58,-369.65 357.28,-445.53 431,-505 465.21,-532.6 516.54,-538.93 552.01,-539.6"/>
<polygon fill="#4a6fa5" stroke="#4a6fa5" points="552.3,-542.05 559.32,-539.66 552.34,-537.15 552.3,-542.05"/>
</g>
<!-- Node0x59ac9f46f0a0&#45;&gt;Node0x59ac9f46cf20 -->
<g id="edge34" class="edge">
<title>Node0x59ac9f46f0a0&#45;&gt;Node0x59ac9f46cf20</title>
<path fill="none" stroke="#4a6fa5" d="M296.51,-255.88C313.63,-250.21 330.35,-242.76 345,-233 399,-197.01 376.32,-149.94 431,-115 437.62,-110.77 444.68,-107.08 452.01,-103.86"/>
<polygon fill="#4a6fa5" stroke="#4a6fa5" points="453.28,-105.99 458.81,-101.04 451.41,-101.46 453.28,-105.99"/>
</g>
<!-- Node0x59ac9f4764c0 -->
<g id="node45" class="node">
<title>Node0x59ac9f4764c0</title>
<path fill="#f0f4ff" stroke="black" d="M1174,-166C1174,-166 853,-166 853,-166 847,-166 841,-160 841,-154 841,-154 841,-142 841,-142 841,-136 847,-130 853,-130 853,-130 1174,-130 1174,-130 1180,-130 1186,-136 1186,-142 1186,-142 1186,-154 1186,-154 1186,-160 1180,-166 1174,-166"/>
<text text-anchor="middle" x="1013.5" y="-145.8" font-family="Courier,monospace" font-size="9.00">{CIccCreateAdjustPCSXformHint::~CIccCreateAdjustPCSXformHint()}</text>
</g>
<!-- Node0x59ac9f475d10 -->
<g id="node46" class="node">
<title>Node0x59ac9f475d10</title>
<path fill="#f0f4ff" stroke="black" d="M1511,-101C1511,-101 1284,-101 1284,-101 1278,-101 1272,-95 1272,-89 1272,-89 1272,-77 1272,-77 1272,-71 1278,-65 1284,-65 1284,-65 1511,-65 1511,-65 1517,-65 1523,-71 1523,-77 1523,-77 1523,-89 1523,-89 1523,-95 1517,-101 1511,-101"/>
<text text-anchor="middle" x="1397.5" y="-80.8" font-family="Courier,monospace" font-size="9.00">{IIccCreateXformHint::~IIccCreateXformHint()}</text>
</g>
<!-- Node0x59ac9f4764c0&#45;&gt;Node0x59ac9f475d10 -->
<g id="edge37" class="edge">
<title>Node0x59ac9f4764c0&#45;&gt;Node0x59ac9f475d10</title>
<path fill="none" stroke="#4a6fa5" d="M1120.4,-129.98C1171.01,-121.37 1231.65,-111.05 1283.18,-102.28"/>
<polygon fill="#4a6fa5" stroke="#4a6fa5" points="1283.9,-104.64 1290.39,-101.05 1283.08,-99.81 1283.9,-104.64"/>
</g>
<!-- Node0x59ac9f474a80 -->
<g id="node47" class="node">
<title>Node0x59ac9f474a80</title>
<path fill="#f0f4ff" stroke="black" d="M333,-14182C333,-14182 12,-14182 12,-14182 6,-14182 0,-14176 0,-14170 0,-14170 0,-14158 0,-14158 0,-14152 6,-14146 12,-14146 12,-14146 333,-14146 333,-14146 339,-14146 345,-14152 345,-14158 345,-14158 345,-14170 345,-14170 345,-14176 339,-14182 333,-14182"/>
<text text-anchor="middle" x="172.5" y="-14161.8" font-family="Courier,monospace" font-size="9.00">{CIccCreateAdjustPCSXformHint::~CIccCreateAdjustPCSXformHint()}</text>
</g>
<!-- Node0x59ac9f476dc0 -->
<g id="node48" class="node">
<title>Node0x59ac9f476dc0</title>
<path fill="#f0f4ff" stroke="black" d="M617,-14084C617,-14084 569,-14084 569,-14084 563,-14084 557,-14078 557,-14072 557,-14072 557,-14060 557,-14060 557,-14054 563,-14048 569,-14048 569,-14048 617,-14048 617,-14048 623,-14048 629,-14054 629,-14060 629,-14060 629,-14072 629,-14072 629,-14078 623,-14084 617,-14084"/>
<text text-anchor="middle" x="593" y="-14063.8" font-family="Courier,monospace" font-size="9.00">{llvm.trap}</text>
</g>
<!-- Node0x59ac9f474a80&#45;&gt;Node0x59ac9f476dc0 -->
<g id="edge38" class="edge">
<title>Node0x59ac9f474a80&#45;&gt;Node0x59ac9f476dc0</title>
<path fill="none" stroke="#4a6fa5" d="M277.15,-14145.98C299.59,-14141.72 323.14,-14136.95 345,-14132 417.41,-14115.6 500.65,-14092.45 549.65,-14078.38"/>
<polygon fill="#4a6fa5" stroke="#4a6fa5" points="550.58,-14080.66 556.63,-14076.37 549.22,-14075.95 550.58,-14080.66"/>
</g>
<!-- Node0x59ac9f48b230 -->
<g id="node49" class="node">
<title>Node0x59ac9f48b230</title>
<path fill="#f0f4ff" stroke="black" d="M286,-14259C286,-14259 59,-14259 59,-14259 53,-14259 47,-14253 47,-14247 47,-14247 47,-14235 47,-14235 47,-14229 53,-14223 59,-14223 59,-14223 286,-14223 286,-14223 292,-14223 298,-14229 298,-14235 298,-14235 298,-14247 298,-14247 298,-14253 292,-14259 286,-14259"/>
<text text-anchor="middle" x="172.5" y="-14238.8" font-family="Courier,monospace" font-size="9.00">{CIccCreateAdjustPCSXformHint::GetHintType()}</text>
</g>
<!-- Node0x59ac9f48aea0 -->
<g id="node50" class="node">
<title>Node0x59ac9f48aea0</title>
<path fill="#f0f4ff" stroke="black" d="M220.5,-14330C220.5,-14330 124.5,-14330 124.5,-14330 118.5,-14330 112.5,-14324 112.5,-14318 112.5,-14318 112.5,-14306 112.5,-14306 112.5,-14300 118.5,-14294 124.5,-14294 124.5,-14294 220.5,-14294 220.5,-14294 226.5,-14294 232.5,-14300 232.5,-14306 232.5,-14306 232.5,-14318 232.5,-14318 232.5,-14324 226.5,-14330 220.5,-14330"/>
<text text-anchor="middle" x="172.5" y="-14309.8" font-family="Courier,monospace" font-size="9.00">{__cxa_pure_virtual}</text>
</g>
<!-- Node0x59ac9f48a290 -->
<g id="node51" class="node">
<title>Node0x59ac9f48a290</title>
<path fill="#f0f4ff" stroke="black" d="M286,-14117C286,-14117 59,-14117 59,-14117 53,-14117 47,-14111 47,-14105 47,-14105 47,-14093 47,-14093 47,-14087 53,-14081 59,-14081 59,-14081 286,-14081 286,-14081 292,-14081 298,-14087 298,-14093 298,-14093 298,-14105 298,-14105 298,-14111 292,-14117 286,-14117"/>
<text text-anchor="middle" x="172.5" y="-14096.8" font-family="Courier,monospace" font-size="9.00">{IIccCreateXformHint::~IIccCreateXformHint()}</text>
</g>
<!-- Node0x59ac9f48a290&#45;&gt;Node0x59ac9f476dc0 -->
<g id="edge39" class="edge">
<title>Node0x59ac9f48a290&#45;&gt;Node0x59ac9f476dc0</title>
<path fill="none" stroke="#4a6fa5" d="M298.21,-14089.17C383.46,-14082.44 491.21,-14073.95 549.63,-14069.34"/>
<polygon fill="#4a6fa5" stroke="#4a6fa5" points="550.07,-14071.76 556.85,-14068.77 549.68,-14066.88 550.07,-14071.76"/>
</g>
<!-- Node0x59ac9f48c390 -->
<g id="node52" class="node">
<title>Node0x59ac9f48c390</title>
<path fill="#f0f4ff" stroke="black" d="M732.5,-36C732.5,-36 453.5,-36 453.5,-36 447.5,-36 441.5,-30 441.5,-24 441.5,-24 441.5,-12 441.5,-12 441.5,-6 447.5,0 453.5,0 453.5,0 732.5,0 732.5,0 738.5,0 744.5,-6 744.5,-12 744.5,-12 744.5,-24 744.5,-24 744.5,-30 738.5,-36 732.5,-36"/>
<text text-anchor="middle" x="593" y="-15.8" font-family="Courier,monospace" font-size="9.00">{CIccCmmEnvVarWrapperHint::~CIccCmmEnvVarWrapperHint()}</text>
</g>
<!-- Node0x59ac9f48e780 -->
<g id="node53" class="node">
<title>Node0x59ac9f48e780</title>
<path fill="#f0f4ff" stroke="black" d="M1174,-36C1174,-36 853,-36 853,-36 847,-36 841,-30 841,-24 841,-24 841,-12 841,-12 841,-6 847,0 853,0 853,0 1174,0 1174,0 1180,0 1186,-6 1186,-12 1186,-12 1186,-24 1186,-24 1186,-30 1180,-36 1174,-36"/>
<text text-anchor="middle" x="1013.5" y="-15.8" font-family="Courier,monospace" font-size="9.00">{CIccCreateCmmEnvVarXformHint::~CIccCreateCmmEnvVarXformHint()}</text>
</g>
<!-- Node0x59ac9f48c390&#45;&gt;Node0x59ac9f48e780 -->
<g id="edge41" class="edge">
<title>Node0x59ac9f48c390&#45;&gt;Node0x59ac9f48e780</title>
<path fill="none" stroke="#4a6fa5" d="M744.79,-18C773.63,-18 804.08,-18 833.7,-18"/>
<polygon fill="#4a6fa5" stroke="#4a6fa5" points="833.81,-20.45 840.81,-18 833.81,-15.55 833.81,-20.45"/>
</g>
<!-- Node0x59ac9f48e780&#45;&gt;Node0x59ac9f475d10 -->
<g id="edge47" class="edge">
<title>Node0x59ac9f48e780&#45;&gt;Node0x59ac9f475d10</title>
<path fill="none" stroke="#4a6fa5" d="M1120.4,-36.02C1171.01,-44.63 1231.65,-54.95 1283.18,-63.72"/>
<polygon fill="#4a6fa5" stroke="#4a6fa5" points="1283.08,-66.19 1290.39,-64.95 1283.9,-61.36 1283.08,-66.19"/>
</g>
<!-- Node0x59ac9f48e500 -->
<g id="node54" class="node">
<title>Node0x59ac9f48e500</title>
<path fill="#f0f4ff" stroke="black" d="M312,-219C312,-219 33,-219 33,-219 27,-219 21,-213 21,-207 21,-207 21,-195 21,-195 21,-189 27,-183 33,-183 33,-183 312,-183 312,-183 318,-183 324,-189 324,-195 324,-195 324,-207 324,-207 324,-213 318,-219 312,-219"/>
<text text-anchor="middle" x="172.5" y="-198.8" font-family="Courier,monospace" font-size="9.00">{CIccCmmEnvVarWrapperHint::~CIccCmmEnvVarWrapperHint()}</text>
</g>
<!-- Node0x59ac9f48e500&#45;&gt;Node0x59ac9f445620 -->
<g id="edge43" class="edge">
<title>Node0x59ac9f48e500&#45;&gt;Node0x59ac9f445620</title>
<path fill="none" stroke="#4a6fa5" d="M311.15,-219.15C323.52,-224.75 335.09,-231.9 345,-241 435.92,-324.44 338.96,-422.8 431,-505 463.98,-534.46 516.03,-540.34 551.98,-540.4"/>
<polygon fill="#4a6fa5" stroke="#4a6fa5" points="552.42,-542.85 559.39,-540.33 552.37,-537.95 552.42,-542.85"/>
</g>
<!-- Node0x59ac9f48e500&#45;&gt;Node0x59ac9f48c390 -->
<g id="edge42" class="edge">
<title>Node0x59ac9f48e500&#45;&gt;Node0x59ac9f48c390</title>
<path fill="none" stroke="#4a6fa5" d="M273.94,-182.98C298.42,-175.78 323.68,-165.79 345,-152 394.78,-119.79 379.94,-80.14 431,-50 438.29,-45.7 446.05,-41.97 454.08,-38.73"/>
<polygon fill="#4a6fa5" stroke="#4a6fa5" points="455.22,-40.91 460.88,-36.12 453.46,-36.34 455.22,-40.91"/>
</g>
<!-- Node0x59ac9f48e3b0 -->
<g id="node55" class="node">
<title>Node0x59ac9f48e3b0</title>
<path fill="#f0f4ff" stroke="black" d="M286,-14398C286,-14398 59,-14398 59,-14398 53,-14398 47,-14392 47,-14386 47,-14386 47,-14374 47,-14374 47,-14368 53,-14362 59,-14362 59,-14362 286,-14362 286,-14362 292,-14362 298,-14368 298,-14374 298,-14374 298,-14386 298,-14386 298,-14392 292,-14398 286,-14398"/>
<text text-anchor="middle" x="172.5" y="-14377.8" font-family="Courier,monospace" font-size="9.00">{CIccCreateCmmEnvVarXformHint::GetHintType()}</text>
</g>
<!-- Node0x59ac9f48ca20 -->
<g id="node56" class="node">
<title>Node0x59ac9f48ca20</title>
<path fill="#f0f4ff" stroke="black" d="M301.5,-686C301.5,-686 43.5,-686 43.5,-686 37.5,-686 31.5,-680 31.5,-674 31.5,-674 31.5,-662 31.5,-662 31.5,-656 37.5,-650 43.5,-650 43.5,-650 301.5,-650 301.5,-650 307.5,-650 313.5,-656 313.5,-662 313.5,-662 313.5,-674 313.5,-674 313.5,-680 307.5,-686 301.5,-686"/>
<text text-anchor="middle" x="172.5" y="-665.8" font-family="Courier,monospace" font-size="9.00">{CIccCmmEnvVarWrapperHint::GetNewCmmEnvVarLookup()}</text>
</g>
<!-- Node0x59ac9f48ca20&#45;&gt;Node0x59ac9f45fd90 -->
<g id="edge44" class="edge">
<title>Node0x59ac9f48ca20&#45;&gt;Node0x59ac9f45fd90</title>
<path fill="none" stroke="#4a6fa5" d="M289.52,-649.98C380.69,-635.82 501.53,-617.05 558.97,-608.13"/>
<polygon fill="#4a6fa5" stroke="#4a6fa5" points="559.44,-610.54 565.98,-607.04 558.69,-605.69 559.44,-610.54"/>
</g>
<!-- Node0x59ac9f48ca20&#45;&gt;Node0x59ac9f445620 -->
<g id="edge46" class="edge">
<title>Node0x59ac9f48ca20&#45;&gt;Node0x59ac9f445620</title>
<path fill="none" stroke="#4a6fa5" d="M302.39,-649.89C317.06,-645.88 331.56,-640.98 345,-635 388.77,-615.52 387.29,-589.61 431,-570 469.92,-552.54 518.37,-544.56 551.9,-540.94"/>
<polygon fill="#4a6fa5" stroke="#4a6fa5" points="552.52,-543.34 559.24,-540.19 552.02,-538.46 552.52,-543.34"/>
</g>
<!-- Node0x59ac9f48ca20&#45;&gt;Node0x59ac9f490870 -->
<g id="edge45" class="edge">
<title>Node0x59ac9f48ca20&#45;&gt;Node0x59ac9f490870</title>
<path fill="none" stroke="#4a6fa5" d="M289.52,-686.02C345.19,-694.67 411.94,-705.03 468.55,-713.83"/>
<polygon fill="#4a6fa5" stroke="#4a6fa5" points="468.46,-716.29 475.75,-714.95 469.21,-711.45 468.46,-716.29"/>
</g>
<!-- Node0x59ac9f490440 -->
<g id="node57" class="node">
<title>Node0x59ac9f490440</title>
<path fill="#f0f4ff" stroke="black" d="M333,-14052C333,-14052 12,-14052 12,-14052 6,-14052 0,-14046 0,-14040 0,-14040 0,-14028 0,-14028 0,-14022 6,-14016 12,-14016 12,-14016 333,-14016 333,-14016 339,-14016 345,-14022 345,-14028 345,-14028 345,-14040 345,-14040 345,-14046 339,-14052 333,-14052"/>
<text text-anchor="middle" x="172.5" y="-14031.8" font-family="Courier,monospace" font-size="9.00">{CIccCreateCmmEnvVarXformHint::~CIccCreateCmmEnvVarXformHint()}</text>
</g>
<!-- Node0x59ac9f490440&#45;&gt;Node0x59ac9f476dc0 -->
<g id="edge48" class="edge">
<title>Node0x59ac9f490440&#45;&gt;Node0x59ac9f476dc0</title>
<path fill="none" stroke="#4a6fa5" d="M345.23,-14047.13C420.12,-14052.86 501.63,-14059.09 549.7,-14062.77"/>
<polygon fill="#4a6fa5" stroke="#4a6fa5" points="549.66,-14065.22 556.83,-14063.31 550.04,-14060.33 549.66,-14065.22"/>
</g>
<!-- Node0x59ac9f48fcc0 -->
<g id="node58" class="node">
<title>Node0x59ac9f48fcc0</title>
<path fill="#f0f4ff" stroke="black" d="M286,-13987C286,-13987 59,-13987 59,-13987 53,-13987 47,-13981 47,-13975 47,-13975 47,-13963 47,-13963 47,-13957 53,-13951 59,-13951 59,-13951 286,-13951 286,-13951 292,-13951 298,-13957 298,-13963 298,-13963 298,-13975 298,-13975 298,-13981 292,-13987 286,-13987"/>
<text text-anchor="middle" x="172.5" y="-13966.8" font-family="Courier,monospace" font-size="9.00">{IIccCmmEnvVarLookup::~IIccCmmEnvVarLookup()}</text>
</g>
<!-- Node0x59ac9f48fcc0&#45;&gt;Node0x59ac9f476dc0 -->
<g id="edge49" class="edge">
<title>Node0x59ac9f48fcc0&#45;&gt;Node0x59ac9f476dc0</title>
<path fill="none" stroke="#4a6fa5" d="M273.03,-13987.04C296.68,-13991.64 321.78,-13996.76 345,-14002 417.49,-14018.35 501.04,-14040.75 550.02,-14054.26"/>
<polygon fill="#4a6fa5" stroke="#4a6fa5" points="549.59,-14056.68 556.99,-14056.18 550.9,-14051.96 549.59,-14056.68"/>
</g>
</g>
</svg>
