<?xml version="1.0" encoding="UTF-8" standalone="no"?>
<!DOCTYPE svg PUBLIC "-//W3C//DTD SVG 1.1//EN"
 "http://www.w3.org/Graphics/SVG/1.1/DTD/svg11.dtd">
<!-- Generated by graphviz version 2.43.0 (0)
 -->
<!-- Title: Call graph: /home/h02332/po/research/call&#45;graph/iccdev/proflib/IccWrapper.ll Pages: 1 -->
<svg width="1423pt" height="1819pt"
 viewBox="0.00 0.00 1423.20 1819.20" xmlns="http://www.w3.org/2000/svg" xmlns:xlink="http://www.w3.org/1999/xlink">
<g id="graph0" class="graph" transform="scale(1 1) rotate(0) translate(21.6 1797.6)">
<title>Call graph: /home/h02332/po/research/call&#45;graph/iccdev/proflib/IccWrapper.ll</title>
<polygon fill="white" stroke="transparent" points="-21.6,21.6 -21.6,-1797.6 1401.6,-1797.6 1401.6,21.6 -21.6,21.6"/>
<!-- Node0x56f53a1cfe50 -->
<g id="node1" class="node">
<title>Node0x56f53a1cfe50</title>
<path fill="#f0f4ff" stroke="black" d="M247.5,-36C247.5,-36 80.5,-36 80.5,-36 74.5,-36 68.5,-30 68.5,-24 68.5,-24 68.5,-12 68.5,-12 68.5,-6 74.5,0 80.5,0 80.5,0 247.5,0 247.5,0 253.5,0 259.5,-6 259.5,-12 259.5,-12 259.5,-24 259.5,-24 259.5,-30 253.5,-36 247.5,-36"/>
<text text-anchor="middle" x="164" y="-15.8" font-family="Courier,monospace" font-size="9.00">CIccCmmEnvVarsWrapper::GetEnvVar()</text>
</g>
<!-- Node0x56f53a1dc340 -->
<g id="node2" class="node">
<title>Node0x56f53a1dc340</title>
<path fill="#f0f4ff" stroke="black" d="M258,-94C258,-94 70,-94 70,-94 64,-94 58,-88 58,-82 58,-82 58,-70 58,-70 58,-64 64,-58 70,-58 70,-58 258,-58 258,-58 264,-58 270,-64 270,-70 270,-70 270,-82 270,-82 270,-88 264,-94 258,-94"/>
<text text-anchor="middle" x="164" y="-73.8" font-family="Courier,monospace" font-size="9.00">CIccCmmEnvVarsWrapper::IndexedEnvVar()</text>
</g>
<!-- Node0x56f53a1c9480 -->
<g id="node3" class="node">
<title>Node0x56f53a1c9480</title>
<path fill="#f0f4ff" stroke="black" d="M190,-152C190,-152 138,-152 138,-152 132,-152 126,-146 126,-140 126,-140 126,-128 126,-128 126,-122 132,-116 138,-116 138,-116 190,-116 190,-116 196,-116 202,-122 202,-128 202,-128 202,-140 202,-140 202,-146 196,-152 190,-152"/>
<text text-anchor="middle" x="164" y="-131.8" font-family="Courier,monospace" font-size="9.00">IccCmmCreate</text>
</g>
<!-- Node0x56f53a12f8a0 -->
<g id="node4" class="node">
<title>Node0x56f53a12f8a0</title>
<path fill="#f0f4ff" stroke="black" d="M583.5,-152C583.5,-152 500.5,-152 500.5,-152 494.5,-152 488.5,-146 488.5,-140 488.5,-140 488.5,-128 488.5,-128 488.5,-122 494.5,-116 500.5,-116 500.5,-116 583.5,-116 583.5,-116 589.5,-116 595.5,-122 595.5,-128 595.5,-128 595.5,-140 595.5,-140 595.5,-146 589.5,-152 583.5,-152"/>
<text text-anchor="middle" x="542" y="-131.8" font-family="Courier,monospace" font-size="9.00">CIccCmm::CIccCmm()</text>
</g>
<!-- Node0x56f53a1c9480&#45;&gt;Node0x56f53a12f8a0 -->
<g id="edge1" class="edge">
<title>Node0x56f53a1c9480&#45;&gt;Node0x56f53a12f8a0</title>
<path fill="none" stroke="#4a6fa5" d="M202.08,-134C267.54,-134 404.03,-134 482.36,-134"/>
<polygon fill="#4a6fa5" stroke="#4a6fa5" points="482.37,-136.1 488.37,-134 482.37,-131.9 482.37,-136.1"/>
</g>
<!-- Node0x56f53a131b10 -->
<g id="node5" class="node">
<title>Node0x56f53a131b10</title>
<path fill="#f0f4ff" stroke="black" d="M218.5,-355C218.5,-355 109.5,-355 109.5,-355 103.5,-355 97.5,-349 97.5,-343 97.5,-343 97.5,-331 97.5,-331 97.5,-325 103.5,-319 109.5,-319 109.5,-319 218.5,-319 218.5,-319 224.5,-319 230.5,-325 230.5,-331 230.5,-331 230.5,-343 230.5,-343 230.5,-349 224.5,-355 218.5,-355"/>
<text text-anchor="middle" x="164" y="-334.8" font-family="Courier,monospace" font-size="9.00">IccCmmAttachProfileFile</text>
</g>
<!-- Node0x56f53a130ca0 -->
<g id="node6" class="node">
<title>Node0x56f53a130ca0</title>
<path fill="#f0f4ff" stroke="black" d="M683.5,-384C683.5,-384 400.5,-384 400.5,-384 394.5,-384 388.5,-378 388.5,-372 388.5,-372 388.5,-360 388.5,-360 388.5,-354 394.5,-348 400.5,-348 400.5,-348 683.5,-348 683.5,-348 689.5,-348 695.5,-354 695.5,-360 695.5,-360 695.5,-372 695.5,-372 695.5,-378 689.5,-384 683.5,-384"/>
<text text-anchor="middle" x="542" y="-363.8" font-family="Courier,monospace" font-size="9.00">CIccCreateXformHintManager::CIccCreateXformHintManager()</text>
</g>
<!-- Node0x56f53a131b10&#45;&gt;Node0x56f53a130ca0 -->
<g id="edge2" class="edge">
<title>Node0x56f53a131b10&#45;&gt;Node0x56f53a130ca0</title>
<path fill="none" stroke="#4a6fa5" d="M230.92,-342.08C272.9,-345.32 329.19,-349.66 382.28,-353.76"/>
<polygon fill="#4a6fa5" stroke="#4a6fa5" points="382.26,-355.86 388.41,-354.23 382.59,-351.68 382.26,-355.86"/>
</g>
<!-- Node0x56f53a130c20 -->
<g id="node7" class="node">
<title>Node0x56f53a130c20</title>
<path fill="#f0f4ff" stroke="black" d="M631,-326C631,-326 453,-326 453,-326 447,-326 441,-320 441,-314 441,-314 441,-302 441,-302 441,-296 447,-290 453,-290 453,-290 631,-290 631,-290 637,-290 643,-296 643,-302 643,-302 643,-314 643,-314 643,-320 637,-326 631,-326"/>
<text text-anchor="middle" x="542" y="-305.8" font-family="Courier,monospace" font-size="9.00">CIccApplyBPCHint::CIccApplyBPCHint()</text>
</g>
<!-- Node0x56f53a131b10&#45;&gt;Node0x56f53a130c20 -->
<g id="edge3" class="edge">
<title>Node0x56f53a131b10&#45;&gt;Node0x56f53a130c20</title>
<path fill="none" stroke="#4a6fa5" d="M230.92,-331.92C287.14,-327.58 369,-321.27 434.5,-316.21"/>
<polygon fill="#4a6fa5" stroke="#4a6fa5" points="434.96,-318.28 440.78,-315.73 434.64,-314.1 434.96,-318.28"/>
</g>
<!-- Node0x56f53a130e50 -->
<g id="node8" class="node">
<title>Node0x56f53a130e50</title>
<path fill="#f0f4ff" stroke="black" d="M633.5,-210C633.5,-210 450.5,-210 450.5,-210 444.5,-210 438.5,-204 438.5,-198 438.5,-198 438.5,-186 438.5,-186 438.5,-180 444.5,-174 450.5,-174 450.5,-174 633.5,-174 633.5,-174 639.5,-174 645.5,-180 645.5,-186 645.5,-186 645.5,-198 645.5,-198 645.5,-204 639.5,-210 633.5,-210"/>
<text text-anchor="middle" x="542" y="-189.8" font-family="Courier,monospace" font-size="9.00">CIccCreateXformHintManager::AddHint()</text>
</g>
<!-- Node0x56f53a131b10&#45;&gt;Node0x56f53a130e50 -->
<g id="edge4" class="edge">
<title>Node0x56f53a131b10&#45;&gt;Node0x56f53a130e50</title>
<path fill="none" stroke="#4a6fa5" d="M230.89,-337.03C262.46,-334.25 299.5,-326.65 328,-308 366.89,-282.55 347.23,-246.62 386,-221 399.83,-211.86 415.8,-205.42 432.11,-200.92"/>
<polygon fill="#4a6fa5" stroke="#4a6fa5" points="432.85,-202.89 438.13,-199.34 431.79,-198.83 432.85,-202.89"/>
</g>
<!-- Node0x56f53a1e2b80 -->
<g id="node9" class="node">
<title>Node0x56f53a1e2b80</title>
<path fill="#f0f4ff" stroke="black" d="M686,-442C686,-442 398,-442 398,-442 392,-442 386,-436 386,-430 386,-430 386,-418 386,-418 386,-412 392,-406 398,-406 398,-406 686,-406 686,-406 692,-406 698,-412 698,-418 698,-418 698,-430 698,-430 698,-436 692,-442 686,-442"/>
<text text-anchor="middle" x="542" y="-421.8" font-family="Courier,monospace" font-size="9.00">CIccCreateXformHintManager::~CIccCreateXformHintManager()</text>
</g>
<!-- Node0x56f53a131b10&#45;&gt;Node0x56f53a1e2b80 -->
<g id="edge5" class="edge">
<title>Node0x56f53a131b10&#45;&gt;Node0x56f53a1e2b80</title>
<path fill="none" stroke="#4a6fa5" d="M230.67,-352.16C260.48,-359.29 296.13,-368.15 328,-377 354.01,-384.22 359.8,-388.51 386,-395 399.95,-398.46 414.7,-401.72 429.33,-404.71"/>
<polygon fill="#4a6fa5" stroke="#4a6fa5" points="429.29,-406.85 435.59,-405.98 430.13,-402.73 429.29,-406.85"/>
</g>
<!-- Node0x56f53a1e2040 -->
<g id="node10" class="node">
<title>Node0x56f53a1e2040</title>
<path fill="#f0f4ff" stroke="black" d="M673,-268C673,-268 411,-268 411,-268 405,-268 399,-262 399,-256 399,-256 399,-244 399,-244 399,-238 405,-232 411,-232 411,-232 673,-232 673,-232 679,-232 685,-238 685,-244 685,-244 685,-256 685,-256 685,-262 679,-268 673,-268"/>
<text text-anchor="middle" x="542" y="-247.8" font-family="Courier,monospace" font-size="9.00">CIccCmmEnvVarWrapperHint::CIccCmmEnvVarWrapperHint()</text>
</g>
<!-- Node0x56f53a131b10&#45;&gt;Node0x56f53a1e2040 -->
<g id="edge6" class="edge">
<title>Node0x56f53a131b10&#45;&gt;Node0x56f53a1e2040</title>
<path fill="none" stroke="#4a6fa5" d="M230.71,-329.7C260.86,-325.24 296.76,-318.35 328,-308 355.36,-298.94 358.68,-288.18 386,-279 396.61,-275.43 407.78,-272.27 419.06,-269.46"/>
<polygon fill="#4a6fa5" stroke="#4a6fa5" points="419.64,-271.49 424.97,-268.03 418.65,-267.4 419.64,-271.49"/>
</g>
<!-- Node0x56f53a136780 -->
<g id="node11" class="node">
<title>Node0x56f53a136780</title>
<path fill="#f0f4ff" stroke="black" d="M1072,-326C1072,-326 768,-326 768,-326 762,-326 756,-320 756,-314 756,-314 756,-302 756,-302 756,-296 762,-290 768,-290 768,-290 1072,-290 1072,-290 1078,-290 1084,-296 1084,-302 1084,-302 1084,-314 1084,-314 1084,-320 1078,-326 1072,-326"/>
<text text-anchor="middle" x="920" y="-305.8" font-family="Courier,monospace" font-size="9.00">CIccCreateAdjustPCSXformHint::CIccCreateAdjustPCSXformHint()</text>
</g>
<!-- Node0x56f53a130c20&#45;&gt;Node0x56f53a136780 -->
<g id="edge7" class="edge">
<title>Node0x56f53a130c20&#45;&gt;Node0x56f53a136780</title>
<path fill="none" stroke="#4a6fa5" d="M643.27,-308C675.97,-308 713.23,-308 749.56,-308"/>
<polygon fill="#4a6fa5" stroke="#4a6fa5" points="749.85,-310.1 755.85,-308 749.85,-305.9 749.85,-310.1"/>
</g>
<!-- Node0x56f53a1e1130 -->
<g id="node12" class="node">
<title>Node0x56f53a1e1130</title>
<path fill="#f0f4ff" stroke="black" d="M1072,-268C1072,-268 768,-268 768,-268 762,-268 756,-262 756,-256 756,-256 756,-244 756,-244 756,-238 762,-232 768,-232 768,-232 1072,-232 1072,-232 1078,-232 1084,-238 1084,-244 1084,-244 1084,-256 1084,-256 1084,-262 1078,-268 1072,-268"/>
<text text-anchor="middle" x="920" y="-247.8" font-family="Courier,monospace" font-size="9.00">CIccCreateCmmEnvVarXformHint::CIccCreateCmmEnvVarXformHint()</text>
</g>
<!-- Node0x56f53a1e2040&#45;&gt;Node0x56f53a1e1130 -->
<g id="edge8" class="edge">
<title>Node0x56f53a1e2040&#45;&gt;Node0x56f53a1e1130</title>
<path fill="none" stroke="#4a6fa5" d="M685.15,-250C706.25,-250 728.17,-250 749.76,-250"/>
<polygon fill="#4a6fa5" stroke="#4a6fa5" points="749.84,-252.1 755.84,-250 749.84,-247.9 749.84,-252.1"/>
</g>
<!-- Node0x56f53a1eba80 -->
<g id="node39" class="node">
<title>Node0x56f53a1eba80</title>
<path fill="#f0f4ff" stroke="black" d="M1365.5,-297C1365.5,-297 1156.5,-297 1156.5,-297 1150.5,-297 1144.5,-291 1144.5,-285 1144.5,-285 1144.5,-273 1144.5,-273 1144.5,-267 1150.5,-261 1156.5,-261 1156.5,-261 1365.5,-261 1365.5,-261 1371.5,-261 1377.5,-267 1377.5,-273 1377.5,-273 1377.5,-285 1377.5,-285 1377.5,-291 1371.5,-297 1365.5,-297"/>
<text text-anchor="middle" x="1261" y="-276.8" font-family="Courier,monospace" font-size="9.00">IIccCreateXformHint::IIccCreateXformHint()</text>
</g>
<!-- Node0x56f53a136780&#45;&gt;Node0x56f53a1eba80 -->
<g id="edge25" class="edge">
<title>Node0x56f53a136780&#45;&gt;Node0x56f53a1eba80</title>
<path fill="none" stroke="#4a6fa5" d="M1084.05,-294.05C1102.17,-292.5 1120.4,-290.94 1137.9,-289.45"/>
<polygon fill="#4a6fa5" stroke="#4a6fa5" points="1138.51,-291.5 1144.31,-288.9 1138.15,-287.32 1138.51,-291.5"/>
</g>
<!-- Node0x56f53a1e1130&#45;&gt;Node0x56f53a1eba80 -->
<g id="edge27" class="edge">
<title>Node0x56f53a1e1130&#45;&gt;Node0x56f53a1eba80</title>
<path fill="none" stroke="#4a6fa5" d="M1084.05,-263.95C1102.17,-265.5 1120.4,-267.06 1137.9,-268.55"/>
<polygon fill="#4a6fa5" stroke="#4a6fa5" points="1138.15,-270.68 1144.31,-269.1 1138.51,-266.5 1138.15,-270.68"/>
</g>
<!-- Node0x56f53a1e4360 -->
<g id="node13" class="node">
<title>Node0x56f53a1e4360</title>
<path fill="#f0f4ff" stroke="black" d="M224,-297C224,-297 104,-297 104,-297 98,-297 92,-291 92,-285 92,-285 92,-273 92,-273 92,-267 98,-261 104,-261 104,-261 224,-261 224,-261 230,-261 236,-267 236,-273 236,-273 236,-285 236,-285 236,-291 230,-297 224,-297"/>
<text text-anchor="middle" x="164" y="-276.8" font-family="Courier,monospace" font-size="9.00">IccCmmAttachProfileHandle</text>
</g>
<!-- Node0x56f53a1e4360&#45;&gt;Node0x56f53a130ca0 -->
<g id="edge9" class="edge">
<title>Node0x56f53a1e4360&#45;&gt;Node0x56f53a130ca0</title>
<path fill="none" stroke="#4a6fa5" d="M236.3,-287.15C265.23,-291.61 298.67,-298.28 328,-308 355.36,-317.06 358.68,-327.82 386,-337 396.61,-340.57 407.78,-343.73 419.06,-346.54"/>
<polygon fill="#4a6fa5" stroke="#4a6fa5" points="418.65,-348.6 424.97,-347.97 419.64,-344.51 418.65,-348.6"/>
</g>
<!-- Node0x56f53a1e4360&#45;&gt;Node0x56f53a130c20 -->
<g id="edge10" class="edge">
<title>Node0x56f53a1e4360&#45;&gt;Node0x56f53a130c20</title>
<path fill="none" stroke="#4a6fa5" d="M236.16,-284.49C292.16,-288.81 371.07,-294.89 434.57,-299.79"/>
<polygon fill="#4a6fa5" stroke="#4a6fa5" points="434.53,-301.89 440.67,-300.26 434.85,-297.71 434.53,-301.89"/>
</g>
<!-- Node0x56f53a1e4360&#45;&gt;Node0x56f53a130e50 -->
<g id="edge11" class="edge">
<title>Node0x56f53a1e4360&#45;&gt;Node0x56f53a130e50</title>
<path fill="none" stroke="#4a6fa5" d="M229.01,-260.9C272.98,-248.79 332.78,-232.95 386,-221 400.97,-217.64 416.82,-214.36 432.45,-211.29"/>
<polygon fill="#4a6fa5" stroke="#4a6fa5" points="433.17,-213.29 438.65,-210.07 432.36,-209.16 433.17,-213.29"/>
</g>
<!-- Node0x56f53a1e4360&#45;&gt;Node0x56f53a1e2b80 -->
<g id="edge12" class="edge">
<title>Node0x56f53a1e4360&#45;&gt;Node0x56f53a1e2b80</title>
<path fill="none" stroke="#4a6fa5" d="M236.13,-279.47C266.5,-282.62 301.06,-290.37 328,-308 366.89,-333.45 347.23,-369.38 386,-395 390.61,-398.05 395.46,-400.8 400.48,-403.27"/>
<polygon fill="#4a6fa5" stroke="#4a6fa5" points="399.67,-405.21 405.99,-405.85 401.45,-401.41 399.67,-405.21"/>
</g>
<!-- Node0x56f53a1e4360&#45;&gt;Node0x56f53a1e2040 -->
<g id="edge13" class="edge">
<title>Node0x56f53a1e4360&#45;&gt;Node0x56f53a1e2040</title>
<path fill="none" stroke="#4a6fa5" d="M236.16,-273.51C280.34,-270.1 338.78,-265.6 392.67,-261.44"/>
<polygon fill="#4a6fa5" stroke="#4a6fa5" points="393.05,-263.52 398.87,-260.96 392.73,-259.33 393.05,-263.52"/>
</g>
<!-- Node0x56f53a1e3fa0 -->
<g id="node14" class="node">
<title>Node0x56f53a1e3fa0</title>
<path fill="#f0f4ff" stroke="black" d="M187,-424C187,-424 141,-424 141,-424 135,-424 129,-418 129,-412 129,-412 129,-400 129,-400 129,-394 135,-388 141,-388 141,-388 187,-388 187,-388 193,-388 199,-394 199,-400 199,-400 199,-412 199,-412 199,-418 193,-424 187,-424"/>
<text text-anchor="middle" x="164" y="-403.8" font-family="Courier,monospace" font-size="9.00">IccCmmBegin</text>
</g>
<!-- Node0x56f53a1e3ce0 -->
<g id="node15" class="node">
<title>Node0x56f53a1e3ce0</title>
<path fill="#f0f4ff" stroke="black" d="M195,-525C195,-525 133,-525 133,-525 127,-525 121,-519 121,-513 121,-513 121,-501 121,-501 121,-495 127,-489 133,-489 133,-489 195,-489 195,-489 201,-489 207,-495 207,-501 207,-501 207,-513 207,-513 207,-519 201,-525 195,-525"/>
<text text-anchor="middle" x="164" y="-504.8" font-family="Courier,monospace" font-size="9.00">IccCmmGetApply</text>
</g>
<!-- Node0x56f53a1e38e0 -->
<g id="node16" class="node">
<title>Node0x56f53a1e38e0</title>
<path fill="#f0f4ff" stroke="black" d="M192.5,-605C192.5,-605 135.5,-605 135.5,-605 129.5,-605 123.5,-599 123.5,-593 123.5,-593 123.5,-581 123.5,-581 123.5,-575 129.5,-569 135.5,-569 135.5,-569 192.5,-569 192.5,-569 198.5,-569 204.5,-575 204.5,-581 204.5,-581 204.5,-593 204.5,-593 204.5,-599 198.5,-605 192.5,-605"/>
<text text-anchor="middle" x="164" y="-584.8" font-family="Courier,monospace" font-size="9.00">IccCmmGetInfo</text>
</g>
<!-- Node0x56f53a1e4ea0 -->
<g id="node17" class="node">
<title>Node0x56f53a1e4ea0</title>
<path fill="#f0f4ff" stroke="black" d="M602,-674C602,-674 482,-674 482,-674 476,-674 470,-668 470,-662 470,-662 470,-650 470,-650 470,-644 476,-638 482,-638 482,-638 602,-638 602,-638 608,-638 614,-644 614,-650 614,-650 614,-662 614,-662 614,-668 608,-674 602,-674"/>
<text text-anchor="middle" x="542" y="-653.8" font-family="Courier,monospace" font-size="9.00">CIccCmm::GetSourceSpace()</text>
</g>
<!-- Node0x56f53a1e38e0&#45;&gt;Node0x56f53a1e4ea0 -->
<g id="edge14" class="edge">
<title>Node0x56f53a1e38e0&#45;&gt;Node0x56f53a1e4ea0</title>
<path fill="none" stroke="#4a6fa5" d="M204.53,-594.25C265.81,-605.5 384.89,-627.35 463.68,-641.81"/>
<polygon fill="#4a6fa5" stroke="#4a6fa5" points="463.47,-643.91 469.75,-642.93 464.23,-639.78 463.47,-643.91"/>
</g>
<!-- Node0x56f53a1e4c20 -->
<g id="node18" class="node">
<title>Node0x56f53a1e4c20</title>
<path fill="#f0f4ff" stroke="black" d="M607,-616C607,-616 477,-616 477,-616 471,-616 465,-610 465,-604 465,-604 465,-592 465,-592 465,-586 471,-580 477,-580 477,-580 607,-580 607,-580 613,-580 619,-586 619,-592 619,-592 619,-604 619,-604 619,-610 613,-616 607,-616"/>
<text text-anchor="middle" x="542" y="-595.8" font-family="Courier,monospace" font-size="9.00">CIccCmm::GetSourceSamples()</text>
</g>
<!-- Node0x56f53a1e38e0&#45;&gt;Node0x56f53a1e4c20 -->
<g id="edge15" class="edge">
<title>Node0x56f53a1e38e0&#45;&gt;Node0x56f53a1e4c20</title>
<path fill="none" stroke="#4a6fa5" d="M204.53,-588.16C264.53,-589.91 379.91,-593.29 458.67,-595.59"/>
<polygon fill="#4a6fa5" stroke="#4a6fa5" points="458.69,-597.69 464.75,-595.77 458.81,-593.49 458.69,-597.69"/>
</g>
<!-- Node0x56f53a1e4ae0 -->
<g id="node19" class="node">
<title>Node0x56f53a1e4ae0</title>
<path fill="#f0f4ff" stroke="black" d="M596.5,-558C596.5,-558 487.5,-558 487.5,-558 481.5,-558 475.5,-552 475.5,-546 475.5,-546 475.5,-534 475.5,-534 475.5,-528 481.5,-522 487.5,-522 487.5,-522 596.5,-522 596.5,-522 602.5,-522 608.5,-528 608.5,-534 608.5,-534 608.5,-546 608.5,-546 608.5,-552 602.5,-558 596.5,-558"/>
<text text-anchor="middle" x="542" y="-537.8" font-family="Courier,monospace" font-size="9.00">CIccCmm::GetDestSpace()</text>
</g>
<!-- Node0x56f53a1e38e0&#45;&gt;Node0x56f53a1e4ae0 -->
<g id="edge16" class="edge">
<title>Node0x56f53a1e38e0&#45;&gt;Node0x56f53a1e4ae0</title>
<path fill="none" stroke="#4a6fa5" d="M204.53,-582.06C267.28,-574.21 390.63,-558.8 469.28,-548.97"/>
<polygon fill="#4a6fa5" stroke="#4a6fa5" points="469.64,-551.04 475.33,-548.21 469.12,-546.87 469.64,-551.04"/>
</g>
<!-- Node0x56f53a1e4860 -->
<g id="node20" class="node">
<title>Node0x56f53a1e4860</title>
<path fill="#f0f4ff" stroke="black" d="M602,-500C602,-500 482,-500 482,-500 476,-500 470,-494 470,-488 470,-488 470,-476 470,-476 470,-470 476,-464 482,-464 482,-464 602,-464 602,-464 608,-464 614,-470 614,-476 614,-476 614,-488 614,-488 614,-494 608,-500 602,-500"/>
<text text-anchor="middle" x="542" y="-479.8" font-family="Courier,monospace" font-size="9.00">CIccCmm::GetDestSamples()</text>
</g>
<!-- Node0x56f53a1e38e0&#45;&gt;Node0x56f53a1e4860 -->
<g id="edge17" class="edge">
<title>Node0x56f53a1e38e0&#45;&gt;Node0x56f53a1e4860</title>
<path fill="none" stroke="#4a6fa5" d="M204.58,-575.87C237.83,-566.22 286.44,-551.41 328,-536 354.32,-526.24 359.15,-519.19 386,-511 410.97,-503.39 438.84,-497.42 463.99,-492.93"/>
<polygon fill="#4a6fa5" stroke="#4a6fa5" points="464.44,-494.99 469.99,-491.88 463.71,-490.85 464.44,-494.99"/>
</g>
<!-- Node0x56f53a1e5120 -->
<g id="node23" class="node">
<title>Node0x56f53a1e5120</title>
<path fill="#f0f4ff" stroke="black" d="M964,-558C964,-558 876,-558 876,-558 870,-558 864,-552 864,-546 864,-546 864,-534 864,-534 864,-528 870,-522 876,-522 876,-522 964,-522 964,-522 970,-522 976,-528 976,-534 976,-534 976,-546 976,-546 976,-552 970,-558 964,-558"/>
<text text-anchor="middle" x="920" y="-537.8" font-family="Courier,monospace" font-size="9.00">icGetSpaceSamples()</text>
</g>
<!-- Node0x56f53a1e4c20&#45;&gt;Node0x56f53a1e5120 -->
<g id="edge19" class="edge">
<title>Node0x56f53a1e4c20&#45;&gt;Node0x56f53a1e5120</title>
<path fill="none" stroke="#4a6fa5" d="M619.09,-586.26C689.35,-575.42 792.41,-559.53 857.57,-549.48"/>
<polygon fill="#4a6fa5" stroke="#4a6fa5" points="858.15,-551.51 863.76,-548.52 857.51,-547.36 858.15,-551.51"/>
</g>
<!-- Node0x56f53a1e4860&#45;&gt;Node0x56f53a1e5120 -->
<g id="edge20" class="edge">
<title>Node0x56f53a1e4860&#45;&gt;Node0x56f53a1e5120</title>
<path fill="none" stroke="#4a6fa5" d="M614.16,-492.98C684.5,-503.83 790.97,-520.25 857.67,-530.54"/>
<polygon fill="#4a6fa5" stroke="#4a6fa5" points="857.75,-532.68 864,-531.52 858.39,-528.53 857.75,-532.68"/>
</g>
<!-- Node0x56f53a206ad0 -->
<g id="node21" class="node">
<title>Node0x56f53a206ad0</title>
<path fill="#f0f4ff" stroke="black" d="M657,-732C657,-732 427,-732 427,-732 421,-732 415,-726 415,-720 415,-720 415,-708 415,-708 415,-702 421,-696 427,-696 427,-696 657,-696 657,-696 663,-696 669,-702 669,-708 669,-708 669,-720 669,-720 669,-726 663,-732 657,-732"/>
<text text-anchor="middle" x="542" y="-711.8" font-family="Courier,monospace" font-size="9.00">CIccCmmEnvVarsWrapper::CIccCmmEnvVarsWrapper()</text>
</g>
<!-- Node0x56f53a205d20 -->
<g id="node22" class="node">
<title>Node0x56f53a205d20</title>
<path fill="#f0f4ff" stroke="black" d="M1024.5,-732C1024.5,-732 815.5,-732 815.5,-732 809.5,-732 803.5,-726 803.5,-720 803.5,-720 803.5,-708 803.5,-708 803.5,-702 809.5,-696 815.5,-696 815.5,-696 1024.5,-696 1024.5,-696 1030.5,-696 1036.5,-702 1036.5,-708 1036.5,-708 1036.5,-720 1036.5,-720 1036.5,-726 1030.5,-732 1024.5,-732"/>
<text text-anchor="middle" x="920" y="-711.8" font-family="Courier,monospace" font-size="9.00">IIccCmmEnvVarLookup::IIccCmmEnvVarLookup()</text>
</g>
<!-- Node0x56f53a206ad0&#45;&gt;Node0x56f53a205d20 -->
<g id="edge18" class="edge">
<title>Node0x56f53a206ad0&#45;&gt;Node0x56f53a205d20</title>
<path fill="none" stroke="#4a6fa5" d="M669.25,-714C710.53,-714 756.27,-714 797.22,-714"/>
<polygon fill="#4a6fa5" stroke="#4a6fa5" points="797.22,-716.1 803.22,-714 797.22,-711.9 797.22,-716.1"/>
</g>
<!-- Node0x56f53a1e5b20 -->
<g id="node24" class="node">
<title>Node0x56f53a1e5b20</title>
<path fill="#f0f4ff" stroke="black" d="M200.5,-790C200.5,-790 127.5,-790 127.5,-790 121.5,-790 115.5,-784 115.5,-778 115.5,-778 115.5,-766 115.5,-766 115.5,-760 121.5,-754 127.5,-754 127.5,-754 200.5,-754 200.5,-754 206.5,-754 212.5,-760 212.5,-766 212.5,-766 212.5,-778 212.5,-778 212.5,-784 206.5,-790 200.5,-790"/>
<text text-anchor="middle" x="164" y="-769.8" font-family="Courier,monospace" font-size="9.00">IccCmmApplyFloat</text>
</g>
<!-- Node0x56f53a1e5620 -->
<g id="node25" class="node">
<title>Node0x56f53a1e5620</title>
<path fill="#f0f4ff" stroke="black" d="M213.5,-848C213.5,-848 114.5,-848 114.5,-848 108.5,-848 102.5,-842 102.5,-836 102.5,-836 102.5,-824 102.5,-824 102.5,-818 108.5,-812 114.5,-812 114.5,-812 213.5,-812 213.5,-812 219.5,-812 225.5,-818 225.5,-824 225.5,-824 225.5,-836 225.5,-836 225.5,-842 219.5,-848 213.5,-848"/>
<text text-anchor="middle" x="164" y="-827.8" font-family="Courier,monospace" font-size="9.00">IccCmmApplyFloatMulti</text>
</g>
<!-- Node0x56f53a1e53a0 -->
<g id="node26" class="node">
<title>Node0x56f53a1e53a0</title>
<path fill="#f0f4ff" stroke="black" d="M184.5,-906C184.5,-906 143.5,-906 143.5,-906 137.5,-906 131.5,-900 131.5,-894 131.5,-894 131.5,-882 131.5,-882 131.5,-876 137.5,-870 143.5,-870 143.5,-870 184.5,-870 184.5,-870 190.5,-870 196.5,-876 196.5,-882 196.5,-882 196.5,-894 196.5,-894 196.5,-900 190.5,-906 184.5,-906"/>
<text text-anchor="middle" x="164" y="-885.8" font-family="Courier,monospace" font-size="9.00">IccCmmFree</text>
</g>
<!-- Node0x56f53a1e7000 -->
<g id="node27" class="node">
<title>Node0x56f53a1e7000</title>
<path fill="#f0f4ff" stroke="black" d="M205.5,-964C205.5,-964 122.5,-964 122.5,-964 116.5,-964 110.5,-958 110.5,-952 110.5,-952 110.5,-940 110.5,-940 110.5,-934 116.5,-928 122.5,-928 122.5,-928 205.5,-928 205.5,-928 211.5,-928 217.5,-934 217.5,-940 217.5,-940 217.5,-952 217.5,-952 217.5,-958 211.5,-964 205.5,-964"/>
<text text-anchor="middle" x="164" y="-943.8" font-family="Courier,monospace" font-size="9.00">IccApplyApplyFloat</text>
</g>
<!-- Node0x56f53a1e7780 -->
<g id="node28" class="node">
<title>Node0x56f53a1e7780</title>
<path fill="#f0f4ff" stroke="black" d="M218.5,-1022C218.5,-1022 109.5,-1022 109.5,-1022 103.5,-1022 97.5,-1016 97.5,-1010 97.5,-1010 97.5,-998 97.5,-998 97.5,-992 103.5,-986 109.5,-986 109.5,-986 218.5,-986 218.5,-986 224.5,-986 230.5,-992 230.5,-998 230.5,-998 230.5,-1010 230.5,-1010 230.5,-1016 224.5,-1022 218.5,-1022"/>
<text text-anchor="middle" x="164" y="-1001.8" font-family="Courier,monospace" font-size="9.00">IccApplyApplyFloatMulti</text>
</g>
<!-- Node0x56f53a1e7500 -->
<g id="node29" class="node">
<title>Node0x56f53a1e7500</title>
<path fill="#f0f4ff" stroke="black" d="M190,-1080C190,-1080 138,-1080 138,-1080 132,-1080 126,-1074 126,-1068 126,-1068 126,-1056 126,-1056 126,-1050 132,-1044 138,-1044 138,-1044 190,-1044 190,-1044 196,-1044 202,-1050 202,-1056 202,-1056 202,-1068 202,-1068 202,-1074 196,-1080 190,-1080"/>
<text text-anchor="middle" x="164" y="-1059.8" font-family="Courier,monospace" font-size="9.00">IccApplyFree</text>
</g>
<!-- Node0x56f53a1e7280 -->
<g id="node30" class="node">
<title>Node0x56f53a1e7280</title>
<path fill="#f0f4ff" stroke="black" d="M211,-1138C211,-1138 117,-1138 117,-1138 111,-1138 105,-1132 105,-1126 105,-1126 105,-1114 105,-1114 105,-1108 111,-1102 117,-1102 117,-1102 211,-1102 211,-1102 217,-1102 223,-1108 223,-1114 223,-1114 223,-1126 223,-1126 223,-1132 217,-1138 211,-1138"/>
<text text-anchor="middle" x="164" y="-1117.8" font-family="Courier,monospace" font-size="9.00">IccProfileReadHandle</text>
</g>
<!-- Node0x56f53a1e2240 -->
<g id="node31" class="node">
<title>Node0x56f53a1e2240</title>
<path fill="#f0f4ff" stroke="black" d="M578.5,-1138C578.5,-1138 505.5,-1138 505.5,-1138 499.5,-1138 493.5,-1132 493.5,-1126 493.5,-1126 493.5,-1114 493.5,-1114 493.5,-1108 499.5,-1102 505.5,-1102 505.5,-1102 578.5,-1102 578.5,-1102 584.5,-1102 590.5,-1108 590.5,-1114 590.5,-1114 590.5,-1126 590.5,-1126 590.5,-1132 584.5,-1138 578.5,-1138"/>
<text text-anchor="middle" x="542" y="-1117.8" font-family="Courier,monospace" font-size="9.00">ReadIccProfile()</text>
</g>
<!-- Node0x56f53a1e7280&#45;&gt;Node0x56f53a1e2240 -->
<g id="edge21" class="edge">
<title>Node0x56f53a1e7280&#45;&gt;Node0x56f53a1e2240</title>
<path fill="none" stroke="#4a6fa5" d="M223.34,-1120C295.42,-1120 417.09,-1120 487.07,-1120"/>
<polygon fill="#4a6fa5" stroke="#4a6fa5" points="487.27,-1122.1 493.27,-1120 487.27,-1117.9 487.27,-1122.1"/>
</g>
<!-- Node0x56f53a1e6800 -->
<g id="node32" class="node">
<title>Node0x56f53a1e6800</title>
<path fill="#f0f4ff" stroke="black" d="M211,-1196C211,-1196 117,-1196 117,-1196 111,-1196 105,-1190 105,-1184 105,-1184 105,-1172 105,-1172 105,-1166 111,-1160 117,-1160 117,-1160 211,-1160 211,-1160 217,-1160 223,-1166 223,-1172 223,-1172 223,-1184 223,-1184 223,-1190 217,-1196 211,-1196"/>
<text text-anchor="middle" x="164" y="-1175.8" font-family="Courier,monospace" font-size="9.00">IccProfileOpenHandle</text>
</g>
<!-- Node0x56f53a1e70c0 -->
<g id="node33" class="node">
<title>Node0x56f53a1e70c0</title>
<path fill="#f0f4ff" stroke="black" d="M578.5,-1196C578.5,-1196 505.5,-1196 505.5,-1196 499.5,-1196 493.5,-1190 493.5,-1184 493.5,-1184 493.5,-1172 493.5,-1172 493.5,-1166 499.5,-1160 505.5,-1160 505.5,-1160 578.5,-1160 578.5,-1160 584.5,-1160 590.5,-1166 590.5,-1172 590.5,-1172 590.5,-1184 590.5,-1184 590.5,-1190 584.5,-1196 578.5,-1196"/>
<text text-anchor="middle" x="542" y="-1175.8" font-family="Courier,monospace" font-size="9.00">OpenIccProfile()</text>
</g>
<!-- Node0x56f53a1e6800&#45;&gt;Node0x56f53a1e70c0 -->
<g id="edge22" class="edge">
<title>Node0x56f53a1e6800&#45;&gt;Node0x56f53a1e70c0</title>
<path fill="none" stroke="#4a6fa5" d="M223.34,-1178C295.42,-1178 417.09,-1178 487.07,-1178"/>
<polygon fill="#4a6fa5" stroke="#4a6fa5" points="487.27,-1180.1 493.27,-1178 487.27,-1175.9 487.27,-1180.1"/>
</g>
<!-- Node0x56f53a1e7d40 -->
<g id="node34" class="node">
<title>Node0x56f53a1e7d40</title>
<path fill="#f0f4ff" stroke="black" d="M208,-1254C208,-1254 120,-1254 120,-1254 114,-1254 108,-1248 108,-1242 108,-1242 108,-1230 108,-1230 108,-1224 114,-1218 120,-1218 120,-1218 208,-1218 208,-1218 214,-1218 220,-1224 220,-1230 220,-1230 220,-1242 220,-1242 220,-1248 214,-1254 208,-1254"/>
<text text-anchor="middle" x="164" y="-1233.8" font-family="Courier,monospace" font-size="9.00">IccProfileGetHeader</text>
</g>
<!-- Node0x56f53a1e80c0 -->
<g id="node35" class="node">
<title>Node0x56f53a1e80c0</title>
<path fill="#f0f4ff" stroke="black" d="M195,-1312C195,-1312 133,-1312 133,-1312 127,-1312 121,-1306 121,-1300 121,-1300 121,-1288 121,-1288 121,-1282 127,-1276 133,-1276 133,-1276 195,-1276 195,-1276 201,-1276 207,-1282 207,-1288 207,-1288 207,-1300 207,-1300 207,-1306 201,-1312 195,-1312"/>
<text text-anchor="middle" x="164" y="-1291.8" font-family="Courier,monospace" font-size="9.00">IccProfileFree</text>
</g>
<!-- Node0x56f53a1e5920 -->
<g id="node36" class="node">
<title>Node0x56f53a1e5920</title>
<path fill="#f0f4ff" stroke="black" d="M659.5,-1370C659.5,-1370 424.5,-1370 424.5,-1370 418.5,-1370 412.5,-1364 412.5,-1358 412.5,-1358 412.5,-1346 412.5,-1346 412.5,-1340 418.5,-1334 424.5,-1334 424.5,-1334 659.5,-1334 659.5,-1334 665.5,-1334 671.5,-1340 671.5,-1346 671.5,-1346 671.5,-1358 671.5,-1358 671.5,-1364 665.5,-1370 659.5,-1370"/>
<text text-anchor="middle" x="542" y="-1349.8" font-family="Courier,monospace" font-size="9.00">CIccCmmEnvVarsWrapper::~CIccCmmEnvVarsWrapper()</text>
</g>
<!-- Node0x56f53a1e75c0 -->
<g id="node37" class="node">
<title>Node0x56f53a1e75c0</title>
<path fill="#f0f4ff" stroke="black" d="M1027,-1370C1027,-1370 813,-1370 813,-1370 807,-1370 801,-1364 801,-1358 801,-1358 801,-1346 801,-1346 801,-1340 807,-1334 813,-1334 813,-1334 1027,-1334 1027,-1334 1033,-1334 1039,-1340 1039,-1346 1039,-1346 1039,-1358 1039,-1358 1039,-1364 1033,-1370 1027,-1370"/>
<text text-anchor="middle" x="920" y="-1349.8" font-family="Courier,monospace" font-size="9.00">IIccCmmEnvVarLookup::~IIccCmmEnvVarLookup()</text>
</g>
<!-- Node0x56f53a1e5920&#45;&gt;Node0x56f53a1e75c0 -->
<g id="edge23" class="edge">
<title>Node0x56f53a1e5920&#45;&gt;Node0x56f53a1e75c0</title>
<path fill="none" stroke="#4a6fa5" d="M671.61,-1352C711.38,-1352 755.1,-1352 794.57,-1352"/>
<polygon fill="#4a6fa5" stroke="#4a6fa5" points="794.87,-1354.1 800.87,-1352 794.87,-1349.9 794.87,-1354.1"/>
</g>
<!-- Node0x56f53a1e5be0 -->
<g id="node38" class="node">
<title>Node0x56f53a1e5be0</title>
<path fill="#f0f4ff" stroke="black" d="M281.5,-1370C281.5,-1370 46.5,-1370 46.5,-1370 40.5,-1370 34.5,-1364 34.5,-1358 34.5,-1358 34.5,-1346 34.5,-1346 34.5,-1340 40.5,-1334 46.5,-1334 46.5,-1334 281.5,-1334 281.5,-1334 287.5,-1334 293.5,-1340 293.5,-1346 293.5,-1346 293.5,-1358 293.5,-1358 293.5,-1364 287.5,-1370 281.5,-1370"/>
<text text-anchor="middle" x="164" y="-1349.8" font-family="Courier,monospace" font-size="9.00">CIccCmmEnvVarsWrapper::~CIccCmmEnvVarsWrapper()</text>
</g>
<!-- Node0x56f53a1e5be0&#45;&gt;Node0x56f53a1e5920 -->
<g id="edge24" class="edge">
<title>Node0x56f53a1e5be0&#45;&gt;Node0x56f53a1e5920</title>
<path fill="none" stroke="#4a6fa5" d="M293.61,-1352C329.9,-1352 369.47,-1352 406.12,-1352"/>
<polygon fill="#4a6fa5" stroke="#4a6fa5" points="406.45,-1354.1 412.45,-1352 406.45,-1349.9 406.45,-1354.1"/>
</g>
<!-- Node0x56f53a1e8840 -->
<g id="node40" class="node">
<title>Node0x56f53a1e8840</title>
<path fill="#f0f4ff" stroke="black" d="M1072,-1486C1072,-1486 768,-1486 768,-1486 762,-1486 756,-1480 756,-1474 756,-1474 756,-1462 756,-1462 756,-1456 762,-1450 768,-1450 768,-1450 1072,-1450 1072,-1450 1078,-1450 1084,-1456 1084,-1462 1084,-1462 1084,-1474 1084,-1474 1084,-1480 1078,-1486 1072,-1486"/>
<text text-anchor="middle" x="920" y="-1465.8" font-family="Courier,monospace" font-size="9.00">CIccCreateAdjustPCSXformHint::~CIccCreateAdjustPCSXformHi...</text>
</g>
<!-- Node0x56f53a1e87c0 -->
<g id="node41" class="node">
<title>Node0x56f53a1e87c0</title>
<path fill="#f0f4ff" stroke="black" d="M1368,-1457C1368,-1457 1154,-1457 1154,-1457 1148,-1457 1142,-1451 1142,-1445 1142,-1445 1142,-1433 1142,-1433 1142,-1427 1148,-1421 1154,-1421 1154,-1421 1368,-1421 1368,-1421 1374,-1421 1380,-1427 1380,-1433 1380,-1433 1380,-1445 1380,-1445 1380,-1451 1374,-1457 1368,-1457"/>
<text text-anchor="middle" x="1261" y="-1436.8" font-family="Courier,monospace" font-size="9.00">IIccCreateXformHint::~IIccCreateXformHint()</text>
</g>
<!-- Node0x56f53a1e8840&#45;&gt;Node0x56f53a1e87c0 -->
<g id="edge26" class="edge">
<title>Node0x56f53a1e8840&#45;&gt;Node0x56f53a1e87c0</title>
<path fill="none" stroke="#4a6fa5" d="M1084.05,-1454.05C1101.42,-1452.57 1118.88,-1451.07 1135.7,-1449.63"/>
<polygon fill="#4a6fa5" stroke="#4a6fa5" points="1136.07,-1451.71 1141.87,-1449.11 1135.71,-1447.52 1136.07,-1451.71"/>
</g>
<!-- Node0x56f53a1ecd10 -->
<g id="node42" class="node">
<title>Node0x56f53a1ecd10</title>
<path fill="#f0f4ff" stroke="black" d="M316,-1486C316,-1486 12,-1486 12,-1486 6,-1486 0,-1480 0,-1474 0,-1474 0,-1462 0,-1462 0,-1456 6,-1450 12,-1450 12,-1450 316,-1450 316,-1450 322,-1450 328,-1456 328,-1462 328,-1462 328,-1474 328,-1474 328,-1480 322,-1486 316,-1486"/>
<text text-anchor="middle" x="164" y="-1465.8" font-family="Courier,monospace" font-size="9.00">CIccCreateAdjustPCSXformHint::~CIccCreateAdjustPCSXformHi...</text>
</g>
<!-- Node0x56f53a201290 -->
<g id="node43" class="node">
<title>Node0x56f53a201290</title>
<path fill="#f0f4ff" stroke="black" d="M271,-1544C271,-1544 57,-1544 57,-1544 51,-1544 45,-1538 45,-1532 45,-1532 45,-1520 45,-1520 45,-1514 51,-1508 57,-1508 57,-1508 271,-1508 271,-1508 277,-1508 283,-1514 283,-1520 283,-1520 283,-1532 283,-1532 283,-1538 277,-1544 271,-1544"/>
<text text-anchor="middle" x="164" y="-1523.8" font-family="Courier,monospace" font-size="9.00">CIccCreateAdjustPCSXformHint::GetHintType()</text>
</g>
<!-- Node0x56f53a1edb40 -->
<g id="node44" class="node">
<title>Node0x56f53a1edb40</title>
<path fill="#f0f4ff" stroke="black" d="M271,-1602C271,-1602 57,-1602 57,-1602 51,-1602 45,-1596 45,-1590 45,-1590 45,-1578 45,-1578 45,-1572 51,-1566 57,-1566 57,-1566 271,-1566 271,-1566 277,-1566 283,-1572 283,-1578 283,-1578 283,-1590 283,-1590 283,-1596 277,-1602 271,-1602"/>
<text text-anchor="middle" x="164" y="-1581.8" font-family="Courier,monospace" font-size="9.00">IIccCreateXformHint::~IIccCreateXformHint()</text>
</g>
<!-- Node0x56f53a203c70 -->
<g id="node45" class="node">
<title>Node0x56f53a203c70</title>
<path fill="#f0f4ff" stroke="black" d="M675.5,-1428C675.5,-1428 408.5,-1428 408.5,-1428 402.5,-1428 396.5,-1422 396.5,-1416 396.5,-1416 396.5,-1404 396.5,-1404 396.5,-1398 402.5,-1392 408.5,-1392 408.5,-1392 675.5,-1392 675.5,-1392 681.5,-1392 687.5,-1398 687.5,-1404 687.5,-1404 687.5,-1416 687.5,-1416 687.5,-1422 681.5,-1428 675.5,-1428"/>
<text text-anchor="middle" x="542" y="-1407.8" font-family="Courier,monospace" font-size="9.00">CIccCmmEnvVarWrapperHint::~CIccCmmEnvVarWrapperHint()</text>
</g>
<!-- Node0x56f53a203b30 -->
<g id="node46" class="node">
<title>Node0x56f53a203b30</title>
<path fill="#f0f4ff" stroke="black" d="M1072,-1428C1072,-1428 768,-1428 768,-1428 762,-1428 756,-1422 756,-1416 756,-1416 756,-1404 756,-1404 756,-1398 762,-1392 768,-1392 768,-1392 1072,-1392 1072,-1392 1078,-1392 1084,-1398 1084,-1404 1084,-1404 1084,-1416 1084,-1416 1084,-1422 1078,-1428 1072,-1428"/>
<text text-anchor="middle" x="920" y="-1407.8" font-family="Courier,monospace" font-size="9.00">CIccCreateCmmEnvVarXformHint::~CIccCreateCmmEnvVarXformHi...</text>
</g>
<!-- Node0x56f53a203c70&#45;&gt;Node0x56f53a203b30 -->
<g id="edge28" class="edge">
<title>Node0x56f53a203c70&#45;&gt;Node0x56f53a203b30</title>
<path fill="none" stroke="#4a6fa5" d="M687.56,-1410C707.91,-1410 728.98,-1410 749.73,-1410"/>
<polygon fill="#4a6fa5" stroke="#4a6fa5" points="749.87,-1412.1 755.87,-1410 749.87,-1407.9 749.87,-1412.1"/>
</g>
<!-- Node0x56f53a203b30&#45;&gt;Node0x56f53a1e87c0 -->
<g id="edge31" class="edge">
<title>Node0x56f53a203b30&#45;&gt;Node0x56f53a1e87c0</title>
<path fill="none" stroke="#4a6fa5" d="M1084.05,-1423.95C1101.42,-1425.43 1118.88,-1426.93 1135.7,-1428.37"/>
<polygon fill="#4a6fa5" stroke="#4a6fa5" points="1135.71,-1430.48 1141.87,-1428.89 1136.07,-1426.29 1135.71,-1430.48"/>
</g>
<!-- Node0x56f53a2035a0 -->
<g id="node47" class="node">
<title>Node0x56f53a2035a0</title>
<path fill="#f0f4ff" stroke="black" d="M297.5,-1428C297.5,-1428 30.5,-1428 30.5,-1428 24.5,-1428 18.5,-1422 18.5,-1416 18.5,-1416 18.5,-1404 18.5,-1404 18.5,-1398 24.5,-1392 30.5,-1392 30.5,-1392 297.5,-1392 297.5,-1392 303.5,-1392 309.5,-1398 309.5,-1404 309.5,-1404 309.5,-1416 309.5,-1416 309.5,-1422 303.5,-1428 297.5,-1428"/>
<text text-anchor="middle" x="164" y="-1407.8" font-family="Courier,monospace" font-size="9.00">CIccCmmEnvVarWrapperHint::~CIccCmmEnvVarWrapperHint()</text>
</g>
<!-- Node0x56f53a2035a0&#45;&gt;Node0x56f53a203c70 -->
<g id="edge29" class="edge">
<title>Node0x56f53a2035a0&#45;&gt;Node0x56f53a203c70</title>
<path fill="none" stroke="#4a6fa5" d="M309.56,-1410C336.02,-1410 363.7,-1410 390.33,-1410"/>
<polygon fill="#4a6fa5" stroke="#4a6fa5" points="390.35,-1412.1 396.35,-1410 390.35,-1407.9 390.35,-1412.1"/>
</g>
<!-- Node0x56f53a202f30 -->
<g id="node48" class="node">
<title>Node0x56f53a202f30</title>
<path fill="#f0f4ff" stroke="black" d="M271,-1660C271,-1660 57,-1660 57,-1660 51,-1660 45,-1654 45,-1648 45,-1648 45,-1636 45,-1636 45,-1630 51,-1624 57,-1624 57,-1624 271,-1624 271,-1624 277,-1624 283,-1630 283,-1636 283,-1636 283,-1648 283,-1648 283,-1654 277,-1660 271,-1660"/>
<text text-anchor="middle" x="164" y="-1639.8" font-family="Courier,monospace" font-size="9.00">CIccCreateCmmEnvVarXformHint::GetHintType()</text>
</g>
<!-- Node0x56f53a205700 -->
<g id="node49" class="node">
<title>Node0x56f53a205700</title>
<path fill="#f0f4ff" stroke="black" d="M287,-732C287,-732 41,-732 41,-732 35,-732 29,-726 29,-720 29,-720 29,-708 29,-708 29,-702 35,-696 41,-696 41,-696 287,-696 287,-696 293,-696 299,-702 299,-708 299,-708 299,-720 299,-720 299,-726 293,-732 287,-732"/>
<text text-anchor="middle" x="164" y="-711.8" font-family="Courier,monospace" font-size="9.00">CIccCmmEnvVarWrapperHint::GetNewCmmEnvVarLookup()</text>
</g>
<!-- Node0x56f53a205700&#45;&gt;Node0x56f53a206ad0 -->
<g id="edge30" class="edge">
<title>Node0x56f53a205700&#45;&gt;Node0x56f53a206ad0</title>
<path fill="none" stroke="#4a6fa5" d="M299.15,-714C334.74,-714 373.14,-714 408.63,-714"/>
<polygon fill="#4a6fa5" stroke="#4a6fa5" points="408.76,-716.1 414.76,-714 408.76,-711.9 408.76,-716.1"/>
</g>
<!-- Node0x56f53a206a40 -->
<g id="node50" class="node">
<title>Node0x56f53a206a40</title>
<path fill="#f0f4ff" stroke="black" d="M316,-1718C316,-1718 12,-1718 12,-1718 6,-1718 0,-1712 0,-1706 0,-1706 0,-1694 0,-1694 0,-1688 6,-1682 12,-1682 12,-1682 316,-1682 316,-1682 322,-1682 328,-1688 328,-1694 328,-1694 328,-1706 328,-1706 328,-1712 322,-1718 316,-1718"/>
<text text-anchor="middle" x="164" y="-1697.8" font-family="Courier,monospace" font-size="9.00">CIccCreateCmmEnvVarXformHint::~CIccCreateCmmEnvVarXformHi...</text>
</g>
<!-- Node0x56f53a205810 -->
<g id="node51" class="node">
<title>Node0x56f53a205810</title>
<path fill="#f0f4ff" stroke="black" d="M271,-1776C271,-1776 57,-1776 57,-1776 51,-1776 45,-1770 45,-1764 45,-1764 45,-1752 45,-1752 45,-1746 51,-1740 57,-1740 57,-1740 271,-1740 271,-1740 277,-1740 283,-1746 283,-1752 283,-1752 283,-1764 283,-1764 283,-1770 277,-1776 271,-1776"/>
<text text-anchor="middle" x="164" y="-1755.8" font-family="Courier,monospace" font-size="9.00">IIccCmmEnvVarLookup::~IIccCmmEnvVarLookup()</text>
</g>
</g>
</svg>
