<?xml version="1.0" encoding="UTF-8" standalone="no"?>
<!DOCTYPE svg PUBLIC "-//W3C//DTD SVG 1.1//EN"
 "http://www.w3.org/Graphics/SVG/1.1/DTD/svg11.dtd">
<!-- Generated by graphviz version 2.43.0 (0)
 -->
<!-- Title: Call graph: /home/h02332/po/research/call&#45;graph/iccdev/proflib/IccXformFactory.ll Pages: 1 -->
<svg width="880pt" height="1587pt"
 viewBox="0.00 0.00 880.20 1587.20" xmlns="http://www.w3.org/2000/svg" xmlns:xlink="http://www.w3.org/1999/xlink">
<g id="graph0" class="graph" transform="scale(1 1) rotate(0) translate(21.6 1565.6)">
<title>Call graph: /home/h02332/po/research/call&#45;graph/iccdev/proflib/IccXformFactory.ll</title>
<polygon fill="white" stroke="transparent" points="-21.6,21.6 -21.6,-1565.6 858.6,-1565.6 858.6,21.6 -21.6,21.6"/>
<!-- Node0x6141376cfbe0 -->
<g id="node1" class="node">
<title>Node0x6141376cfbe0</title>
<path fill="#f0f4ff" stroke="black" d="M218.5,-239C218.5,-239 46.5,-239 46.5,-239 40.5,-239 34.5,-233 34.5,-227 34.5,-227 34.5,-215 34.5,-215 34.5,-209 40.5,-203 46.5,-203 46.5,-203 218.5,-203 218.5,-203 224.5,-203 230.5,-209 230.5,-215 230.5,-215 230.5,-227 230.5,-227 230.5,-233 224.5,-239 218.5,-239"/>
<text text-anchor="middle" x="132.5" y="-218.8" font-family="Courier,monospace" font-size="9.00">CIccBaseXformFactory::CreateXform()</text>
</g>
<!-- Node0x6141376d2a30 -->
<g id="node2" class="node">
<title>Node0x6141376d2a30</title>
<path fill="#f0f4ff" stroke="black" d="M547,-442C547,-442 348,-442 348,-442 342,-442 336,-436 336,-430 336,-430 336,-418 336,-418 336,-412 342,-406 348,-406 348,-406 547,-406 547,-406 553,-406 559,-412 559,-418 559,-418 559,-430 559,-430 559,-436 553,-442 547,-442"/>
<text text-anchor="middle" x="447.5" y="-421.8" font-family="Courier,monospace" font-size="9.00">CIccXformMatrixTRC::CIccXformMatrixTRC()</text>
</g>
<!-- Node0x6141376cfbe0&#45;&gt;Node0x6141376d2a30 -->
<g id="edge1" class="edge">
<title>Node0x6141376cfbe0&#45;&gt;Node0x6141376d2a30</title>
<path fill="none" stroke="#4a6fa5" d="M147.76,-239.27C176.72,-275.04 246.22,-354.37 323,-395 329.24,-398.3 335.84,-401.23 342.63,-403.83"/>
<polygon fill="#4a6fa5" stroke="#4a6fa5" points="342.02,-405.84 348.38,-405.93 343.47,-401.89 342.02,-405.84"/>
</g>
<!-- Node0x61413764ab00 -->
<g id="node3" class="node">
<title>Node0x61413764ab00</title>
<path fill="#f0f4ff" stroke="black" d="M552,-384C552,-384 343,-384 343,-384 337,-384 331,-378 331,-372 331,-372 331,-360 331,-360 331,-354 337,-348 343,-348 343,-348 552,-348 552,-348 558,-348 564,-354 564,-360 564,-360 564,-372 564,-372 564,-378 558,-384 552,-384"/>
<text text-anchor="middle" x="447.5" y="-363.8" font-family="Courier,monospace" font-size="9.00">CIccXformMonochrome::CIccXformMonochrome()</text>
</g>
<!-- Node0x6141376cfbe0&#45;&gt;Node0x61413764ab00 -->
<g id="edge2" class="edge">
<title>Node0x6141376cfbe0&#45;&gt;Node0x61413764ab00</title>
<path fill="none" stroke="#4a6fa5" d="M157.29,-239.05C191.93,-264.5 259.14,-310.75 323,-337 331.27,-340.4 340.03,-343.45 348.9,-346.18"/>
<polygon fill="#4a6fa5" stroke="#4a6fa5" points="348.4,-348.22 354.75,-347.92 349.6,-344.19 348.4,-348.22"/>
</g>
<!-- Node0x6141376cf2e0 -->
<g id="node4" class="node">
<title>Node0x6141376cf2e0</title>
<path fill="#f0f4ff" stroke="black" d="M526,-326C526,-326 369,-326 369,-326 363,-326 357,-320 357,-314 357,-314 357,-302 357,-302 357,-296 363,-290 369,-290 369,-290 526,-290 526,-290 532,-290 538,-296 538,-302 538,-302 538,-314 538,-314 538,-320 532,-326 526,-326"/>
<text text-anchor="middle" x="447.5" y="-305.8" font-family="Courier,monospace" font-size="9.00">CIccXform3DLut::CIccXform3DLut()</text>
</g>
<!-- Node0x6141376cfbe0&#45;&gt;Node0x6141376cf2e0 -->
<g id="edge3" class="edge">
<title>Node0x6141376cfbe0&#45;&gt;Node0x6141376cf2e0</title>
<path fill="none" stroke="#4a6fa5" d="M189.19,-239.11C226.8,-251.08 277.66,-266.75 323,-279 334.97,-282.23 347.64,-285.45 360.14,-288.49"/>
<polygon fill="#4a6fa5" stroke="#4a6fa5" points="359.93,-290.6 366.25,-289.97 360.92,-286.52 359.93,-290.6"/>
</g>
<!-- Node0x6141376d0450 -->
<g id="node5" class="node">
<title>Node0x6141376d0450</title>
<path fill="#f0f4ff" stroke="black" d="M515.5,-268C515.5,-268 379.5,-268 379.5,-268 373.5,-268 367.5,-262 367.5,-256 367.5,-256 367.5,-244 367.5,-244 367.5,-238 373.5,-232 379.5,-232 379.5,-232 515.5,-232 515.5,-232 521.5,-232 527.5,-238 527.5,-244 527.5,-244 527.5,-256 527.5,-256 527.5,-262 521.5,-268 515.5,-268"/>
<text text-anchor="middle" x="447.5" y="-247.8" font-family="Courier,monospace" font-size="9.00">CIccXformMpe::CIccXformMpe()</text>
</g>
<!-- Node0x6141376cfbe0&#45;&gt;Node0x6141376d0450 -->
<g id="edge4" class="edge">
<title>Node0x6141376cfbe0&#45;&gt;Node0x6141376d0450</title>
<path fill="none" stroke="#4a6fa5" d="M230.82,-230.02C272.47,-233.88 320.68,-238.34 360.94,-242.07"/>
<polygon fill="#4a6fa5" stroke="#4a6fa5" points="361.16,-244.2 367.33,-242.66 361.55,-240.02 361.16,-244.2"/>
</g>
<!-- Node0x61413763cac0 -->
<g id="node6" class="node">
<title>Node0x61413763cac0</title>
<path fill="#f0f4ff" stroke="black" d="M552,-210C552,-210 343,-210 343,-210 337,-210 331,-204 331,-198 331,-198 331,-186 331,-186 331,-180 337,-174 343,-174 343,-174 552,-174 552,-174 558,-174 564,-180 564,-186 564,-186 564,-198 564,-198 564,-204 558,-210 552,-210"/>
<text text-anchor="middle" x="447.5" y="-189.8" font-family="Courier,monospace" font-size="9.00">CIccXformNamedColor::CIccXformNamedColor()</text>
</g>
<!-- Node0x6141376cfbe0&#45;&gt;Node0x61413763cac0 -->
<g id="edge5" class="edge">
<title>Node0x6141376cfbe0&#45;&gt;Node0x61413763cac0</title>
<path fill="none" stroke="#4a6fa5" d="M230.82,-211.98C260.51,-209.23 293.54,-206.17 324.65,-203.29"/>
<polygon fill="#4a6fa5" stroke="#4a6fa5" points="325.06,-205.36 330.84,-202.72 324.67,-201.18 325.06,-205.36"/>
</g>
<!-- Node0x614137634ff0 -->
<g id="node7" class="node">
<title>Node0x614137634ff0</title>
<path fill="#f0f4ff" stroke="black" d="M526,-152C526,-152 369,-152 369,-152 363,-152 357,-146 357,-140 357,-140 357,-128 357,-128 357,-122 363,-116 369,-116 369,-116 526,-116 526,-116 532,-116 538,-122 538,-128 538,-128 538,-140 538,-140 538,-146 532,-152 526,-152"/>
<text text-anchor="middle" x="447.5" y="-131.8" font-family="Courier,monospace" font-size="9.00">CIccXform4DLut::CIccXform4DLut()</text>
</g>
<!-- Node0x6141376cfbe0&#45;&gt;Node0x614137634ff0 -->
<g id="edge6" class="edge">
<title>Node0x6141376cfbe0&#45;&gt;Node0x614137634ff0</title>
<path fill="none" stroke="#4a6fa5" d="M189.19,-202.89C226.8,-190.92 277.66,-175.25 323,-163 334.97,-159.77 347.64,-156.55 360.14,-153.51"/>
<polygon fill="#4a6fa5" stroke="#4a6fa5" points="360.92,-155.48 366.25,-152.03 359.93,-151.4 360.92,-155.48"/>
</g>
<!-- Node0x6141376cef60 -->
<g id="node8" class="node">
<title>Node0x6141376cef60</title>
<path fill="#f0f4ff" stroke="black" d="M539,-94C539,-94 356,-94 356,-94 350,-94 344,-88 344,-82 344,-82 344,-70 344,-70 344,-64 350,-58 356,-58 356,-58 539,-58 539,-58 545,-58 551,-64 551,-70 551,-70 551,-82 551,-82 551,-88 545,-94 539,-94"/>
<text text-anchor="middle" x="447.5" y="-73.8" font-family="Courier,monospace" font-size="9.00">CIccCreateXformHintManager::GetHint()</text>
</g>
<!-- Node0x6141376cfbe0&#45;&gt;Node0x6141376cef60 -->
<g id="edge7" class="edge">
<title>Node0x6141376cfbe0&#45;&gt;Node0x6141376cef60</title>
<path fill="none" stroke="#4a6fa5" d="M157.29,-202.95C191.93,-177.5 259.14,-131.25 323,-105 331.27,-101.6 340.03,-98.55 348.9,-95.82"/>
<polygon fill="#4a6fa5" stroke="#4a6fa5" points="349.6,-97.81 354.75,-94.08 348.4,-93.78 349.6,-97.81"/>
</g>
<!-- Node0x61413761ccd0 -->
<g id="node9" class="node">
<title>Node0x61413761ccd0</title>
<path fill="#f0f4ff" stroke="black" d="M526,-36C526,-36 369,-36 369,-36 363,-36 357,-30 357,-24 357,-24 357,-12 357,-12 357,-6 363,0 369,0 369,0 526,0 526,0 532,0 538,-6 538,-12 538,-12 538,-24 538,-24 538,-30 532,-36 526,-36"/>
<text text-anchor="middle" x="447.5" y="-15.8" font-family="Courier,monospace" font-size="9.00">CIccXformNDLut::CIccXformNDLut()</text>
</g>
<!-- Node0x6141376cfbe0&#45;&gt;Node0x61413761ccd0 -->
<g id="edge8" class="edge">
<title>Node0x6141376cfbe0&#45;&gt;Node0x61413761ccd0</title>
<path fill="none" stroke="#4a6fa5" d="M147.76,-202.73C176.72,-166.96 246.22,-87.63 323,-47 331.79,-42.35 341.32,-38.44 351.05,-35.15"/>
<polygon fill="#4a6fa5" stroke="#4a6fa5" points="351.74,-37.13 356.8,-33.28 350.45,-33.14 351.74,-37.13"/>
</g>
<!-- Node0x6141376e5ba0 -->
<g id="node10" class="node">
<title>Node0x6141376e5ba0</title>
<path fill="#f0f4ff" stroke="black" d="M473.5,-732C473.5,-732 421.5,-732 421.5,-732 415.5,-732 409.5,-726 409.5,-720 409.5,-720 409.5,-708 409.5,-708 409.5,-702 415.5,-696 421.5,-696 421.5,-696 473.5,-696 473.5,-696 479.5,-696 485.5,-702 485.5,-708 485.5,-708 485.5,-720 485.5,-720 485.5,-726 479.5,-732 473.5,-732"/>
<text text-anchor="middle" x="447.5" y="-711.8" font-family="Courier,monospace" font-size="9.00">unique_ptr()</text>
</g>
<!-- Node0x6141376e4b20 -->
<g id="node11" class="node">
<title>Node0x6141376e4b20</title>
<path fill="#f0f4ff" stroke="black" d="M762,-732C762,-732 705,-732 705,-732 699,-732 693,-726 693,-720 693,-720 693,-708 693,-708 693,-702 699,-696 705,-696 705,-696 762,-696 762,-696 768,-696 774,-702 774,-708 774,-708 774,-720 774,-720 774,-726 768,-732 762,-732"/>
<text text-anchor="middle" x="733.5" y="-711.8" font-family="Courier,monospace" font-size="9.00">get_deleter()</text>
</g>
<!-- Node0x6141376e5ba0&#45;&gt;Node0x6141376e4b20 -->
<g id="edge9" class="edge">
<title>Node0x6141376e5ba0&#45;&gt;Node0x6141376e4b20</title>
<path fill="none" stroke="#4a6fa5" d="M485.63,-714C537.17,-714 630.35,-714 686.32,-714"/>
<polygon fill="#4a6fa5" stroke="#4a6fa5" points="686.62,-716.1 692.62,-714 686.62,-711.9 686.62,-716.1"/>
</g>
<!-- Node0x6141376e7070 -->
<g id="node12" class="node">
<title>Node0x6141376e7070</title>
<path fill="#f0f4ff" stroke="black" d="M224,-790C224,-790 41,-790 41,-790 35,-790 29,-784 29,-778 29,-778 29,-766 29,-766 29,-760 35,-754 41,-754 41,-754 224,-754 224,-754 230,-754 236,-760 236,-766 236,-766 236,-778 236,-778 236,-784 230,-790 224,-790"/>
<text text-anchor="middle" x="132.5" y="-769.8" font-family="Courier,monospace" font-size="9.00">CIccXformCreator::~CIccXformCreator()</text>
</g>
<!-- Node0x6141376e74c0 -->
<g id="node13" class="node">
<title>Node0x6141376e74c0</title>
<path fill="#f0f4ff" stroke="black" d="M526,-790C526,-790 369,-790 369,-790 363,-790 357,-784 357,-778 357,-778 357,-766 357,-766 357,-760 363,-754 369,-754 369,-754 526,-754 526,-754 532,-754 538,-760 538,-766 538,-766 538,-778 538,-778 538,-784 532,-790 526,-790"/>
<text text-anchor="middle" x="447.5" y="-769.8" font-family="Courier,monospace" font-size="9.00">CIccXformCreator::DoPopFactory()</text>
</g>
<!-- Node0x6141376e7070&#45;&gt;Node0x6141376e74c0 -->
<g id="edge10" class="edge">
<title>Node0x6141376e7070&#45;&gt;Node0x6141376e74c0</title>
<path fill="none" stroke="#4a6fa5" d="M236.42,-772C273.22,-772 314.52,-772 350.7,-772"/>
<polygon fill="#4a6fa5" stroke="#4a6fa5" points="350.93,-774.1 356.93,-772 350.93,-769.9 350.93,-774.1"/>
</g>
<!-- Node0x6141376f01c0 -->
<g id="node14" class="node">
<title>Node0x6141376f01c0</title>
<path fill="#f0f4ff" stroke="black" d="M756.5,-790C756.5,-790 710.5,-790 710.5,-790 704.5,-790 698.5,-784 698.5,-778 698.5,-778 698.5,-766 698.5,-766 698.5,-760 704.5,-754 710.5,-754 710.5,-754 756.5,-754 756.5,-754 762.5,-754 768.5,-760 768.5,-766 768.5,-766 768.5,-778 768.5,-778 768.5,-784 762.5,-790 756.5,-790"/>
<text text-anchor="middle" x="733.5" y="-769.8" font-family="Courier,monospace" font-size="9.00">pop_front()</text>
</g>
<!-- Node0x6141376e74c0&#45;&gt;Node0x6141376f01c0 -->
<g id="edge11" class="edge">
<title>Node0x6141376e74c0&#45;&gt;Node0x6141376f01c0</title>
<path fill="none" stroke="#4a6fa5" d="M538.36,-772C590.03,-772 652.41,-772 692.26,-772"/>
<polygon fill="#4a6fa5" stroke="#4a6fa5" points="692.45,-774.1 698.45,-772 692.45,-769.9 692.45,-774.1"/>
</g>
<!-- Node0x6141376fc7b0 -->
<g id="node15" class="node">
<title>Node0x6141376fc7b0</title>
<path fill="#f0f4ff" stroke="black" d="M208,-616C208,-616 57,-616 57,-616 51,-616 45,-610 45,-604 45,-604 45,-592 45,-592 45,-586 51,-580 57,-580 57,-580 208,-580 208,-580 214,-580 220,-586 220,-592 220,-592 220,-604 220,-604 220,-610 214,-616 208,-616"/>
<text text-anchor="middle" x="132.5" y="-595.8" font-family="Courier,monospace" font-size="9.00">CIccXformCreator::GetInstance()</text>
</g>
<!-- Node0x6141376fc7b0&#45;&gt;Node0x6141376e5ba0 -->
<g id="edge14" class="edge">
<title>Node0x6141376fc7b0&#45;&gt;Node0x6141376e5ba0</title>
<path fill="none" stroke="#4a6fa5" d="M167.57,-616.17C204.87,-635.45 266.84,-665.73 323,-685 349.21,-693.99 379.5,-701.15 403.52,-706.11"/>
<polygon fill="#4a6fa5" stroke="#4a6fa5" points="403.18,-708.18 409.48,-707.32 404.02,-704.07 403.18,-708.18"/>
</g>
<!-- Node0x6141376fbbf0 -->
<g id="node16" class="node">
<title>Node0x6141376fbbf0</title>
<path fill="#f0f4ff" stroke="black" d="M462.5,-674C462.5,-674 432.5,-674 432.5,-674 426.5,-674 420.5,-668 420.5,-662 420.5,-662 420.5,-650 420.5,-650 420.5,-644 426.5,-638 432.5,-638 432.5,-638 462.5,-638 462.5,-638 468.5,-638 474.5,-644 474.5,-650 474.5,-650 474.5,-662 474.5,-662 474.5,-668 468.5,-674 462.5,-674"/>
<text text-anchor="middle" x="447.5" y="-653.8" font-family="Courier,monospace" font-size="9.00">get()</text>
</g>
<!-- Node0x6141376fc7b0&#45;&gt;Node0x6141376fbbf0 -->
<g id="edge12" class="edge">
<title>Node0x6141376fc7b0&#45;&gt;Node0x6141376fbbf0</title>
<path fill="none" stroke="#4a6fa5" d="M220.27,-614.08C284.72,-626.02 369.01,-641.64 414.32,-650.04"/>
<polygon fill="#4a6fa5" stroke="#4a6fa5" points="414.17,-652.14 420.45,-651.17 414.94,-648.02 414.17,-652.14"/>
</g>
<!-- Node0x6141376fe2c0 -->
<g id="node17" class="node">
<title>Node0x6141376fe2c0</title>
<path fill="#f0f4ff" stroke="black" d="M536.5,-616C536.5,-616 358.5,-616 358.5,-616 352.5,-616 346.5,-610 346.5,-604 346.5,-604 346.5,-592 346.5,-592 346.5,-586 352.5,-580 358.5,-580 358.5,-580 536.5,-580 536.5,-580 542.5,-580 548.5,-586 548.5,-592 548.5,-592 548.5,-604 548.5,-604 548.5,-610 542.5,-616 536.5,-616"/>
<text text-anchor="middle" x="447.5" y="-595.8" font-family="Courier,monospace" font-size="9.00">CIccXformCreator::CIccXformCreator()</text>
</g>
<!-- Node0x6141376fc7b0&#45;&gt;Node0x6141376fe2c0 -->
<g id="edge13" class="edge">
<title>Node0x6141376fc7b0&#45;&gt;Node0x6141376fe2c0</title>
<path fill="none" stroke="#4a6fa5" d="M220.27,-598C257.37,-598 301.03,-598 340.05,-598"/>
<polygon fill="#4a6fa5" stroke="#4a6fa5" points="340.27,-600.1 346.27,-598 340.27,-595.9 340.27,-600.1"/>
</g>
<!-- Node0x6141376fc170 -->
<g id="node18" class="node">
<title>Node0x6141376fc170</title>
<path fill="#f0f4ff" stroke="black" d="M557.5,-558C557.5,-558 337.5,-558 337.5,-558 331.5,-558 325.5,-552 325.5,-546 325.5,-546 325.5,-534 325.5,-534 325.5,-528 331.5,-522 337.5,-522 337.5,-522 557.5,-522 557.5,-522 563.5,-522 569.5,-528 569.5,-534 569.5,-534 569.5,-546 569.5,-546 569.5,-552 563.5,-558 557.5,-558"/>
<text text-anchor="middle" x="447.5" y="-537.8" font-family="Courier,monospace" font-size="9.00">CIccBaseXformFactory::CIccBaseXformFactory()</text>
</g>
<!-- Node0x6141376fc7b0&#45;&gt;Node0x6141376fc170 -->
<g id="edge15" class="edge">
<title>Node0x6141376fc7b0&#45;&gt;Node0x6141376fc170</title>
<path fill="none" stroke="#4a6fa5" d="M220.27,-581.92C258.31,-574.87 303.26,-566.54 343.02,-559.17"/>
<polygon fill="#4a6fa5" stroke="#4a6fa5" points="343.84,-561.16 349.36,-558 343.08,-557.03 343.84,-561.16"/>
</g>
<!-- Node0x614137702820 -->
<g id="node19" class="node">
<title>Node0x614137702820</title>
<path fill="#f0f4ff" stroke="black" d="M528.5,-500C528.5,-500 366.5,-500 366.5,-500 360.5,-500 354.5,-494 354.5,-488 354.5,-488 354.5,-476 354.5,-476 354.5,-470 360.5,-464 366.5,-464 366.5,-464 528.5,-464 528.5,-464 534.5,-464 540.5,-470 540.5,-476 540.5,-476 540.5,-488 540.5,-488 540.5,-494 534.5,-500 528.5,-500"/>
<text text-anchor="middle" x="447.5" y="-479.8" font-family="Courier,monospace" font-size="9.00">CIccXformCreator::DoPushFactory()</text>
</g>
<!-- Node0x6141376fc7b0&#45;&gt;Node0x614137702820 -->
<g id="edge16" class="edge">
<title>Node0x6141376fc7b0&#45;&gt;Node0x614137702820</title>
<path fill="none" stroke="#4a6fa5" d="M167.57,-579.83C204.87,-560.55 266.84,-530.27 323,-511 332.93,-507.59 343.45,-504.45 353.98,-501.59"/>
<polygon fill="#4a6fa5" stroke="#4a6fa5" points="354.58,-503.6 359.84,-500.03 353.5,-499.54 354.58,-503.6"/>
</g>
<!-- Node0x614137703b40 -->
<g id="node21" class="node">
<title>Node0x614137703b40</title>
<path fill="#f0f4ff" stroke="black" d="M822.5,-558C822.5,-558 644.5,-558 644.5,-558 638.5,-558 632.5,-552 632.5,-546 632.5,-546 632.5,-534 632.5,-534 632.5,-528 638.5,-522 644.5,-522 644.5,-522 822.5,-522 822.5,-522 828.5,-522 834.5,-528 834.5,-534 834.5,-534 834.5,-546 834.5,-546 834.5,-552 828.5,-558 822.5,-558"/>
<text text-anchor="middle" x="733.5" y="-537.8" font-family="Courier,monospace" font-size="9.00">IIccXformFactory::IIccXformFactory()</text>
</g>
<!-- Node0x6141376fc170&#45;&gt;Node0x614137703b40 -->
<g id="edge18" class="edge">
<title>Node0x6141376fc170&#45;&gt;Node0x614137703b40</title>
<path fill="none" stroke="#4a6fa5" d="M569.77,-540C588.46,-540 607.64,-540 625.98,-540"/>
<polygon fill="#4a6fa5" stroke="#4a6fa5" points="626.16,-542.1 632.16,-540 626.16,-537.9 626.16,-542.1"/>
</g>
<!-- Node0x614137702b10 -->
<g id="node20" class="node">
<title>Node0x614137702b10</title>
<path fill="#f0f4ff" stroke="black" d="M759.5,-500C759.5,-500 707.5,-500 707.5,-500 701.5,-500 695.5,-494 695.5,-488 695.5,-488 695.5,-476 695.5,-476 695.5,-470 701.5,-464 707.5,-464 707.5,-464 759.5,-464 759.5,-464 765.5,-464 771.5,-470 771.5,-476 771.5,-476 771.5,-488 771.5,-488 771.5,-494 765.5,-500 759.5,-500"/>
<text text-anchor="middle" x="733.5" y="-479.8" font-family="Courier,monospace" font-size="9.00">push_front()</text>
</g>
<!-- Node0x614137702820&#45;&gt;Node0x614137702b10 -->
<g id="edge17" class="edge">
<title>Node0x614137702820&#45;&gt;Node0x614137702b10</title>
<path fill="none" stroke="#4a6fa5" d="M540.71,-482C590.52,-482 649.69,-482 689,-482"/>
<polygon fill="#4a6fa5" stroke="#4a6fa5" points="689.14,-484.1 695.14,-482 689.14,-479.9 689.14,-484.1"/>
</g>
<!-- Node0x614137704eb0 -->
<g id="node22" class="node">
<title>Node0x614137704eb0</title>
<path fill="#f0f4ff" stroke="black" d="M213.5,-848C213.5,-848 51.5,-848 51.5,-848 45.5,-848 39.5,-842 39.5,-836 39.5,-836 39.5,-824 39.5,-824 39.5,-818 45.5,-812 51.5,-812 51.5,-812 213.5,-812 213.5,-812 219.5,-812 225.5,-818 225.5,-824 225.5,-824 225.5,-836 225.5,-836 225.5,-842 219.5,-848 213.5,-848"/>
<text text-anchor="middle" x="132.5" y="-827.8" font-family="Courier,monospace" font-size="9.00">CIccXformCreator::DoCreateXform()</text>
</g>
<!-- Node0x61413770db80 -->
<g id="node23" class="node">
<title>Node0x61413770db80</title>
<path fill="#f0f4ff" stroke="black" d="M560,-906C560,-906 335,-906 335,-906 329,-906 323,-900 323,-894 323,-894 323,-882 323,-882 323,-876 329,-870 335,-870 335,-870 560,-870 560,-870 566,-870 572,-876 572,-882 572,-882 572,-894 572,-894 572,-900 566,-906 560,-906"/>
<text text-anchor="middle" x="447.5" y="-885.8" font-family="Courier,monospace" font-size="9.00">CIccBaseXformFactory::~CIccBaseXformFactory()</text>
</g>
<!-- Node0x61413770d990 -->
<g id="node24" class="node">
<title>Node0x61413770d990</title>
<path fill="#f0f4ff" stroke="black" d="M825,-906C825,-906 642,-906 642,-906 636,-906 630,-900 630,-894 630,-894 630,-882 630,-882 630,-876 636,-870 642,-870 642,-870 825,-870 825,-870 831,-870 837,-876 837,-882 837,-882 837,-894 837,-894 837,-900 831,-906 825,-906"/>
<text text-anchor="middle" x="733.5" y="-885.8" font-family="Courier,monospace" font-size="9.00">IIccXformFactory::~IIccXformFactory()</text>
</g>
<!-- Node0x61413770db80&#45;&gt;Node0x61413770d990 -->
<g id="edge19" class="edge">
<title>Node0x61413770db80&#45;&gt;Node0x61413770d990</title>
<path fill="none" stroke="#4a6fa5" d="M572.24,-888C589.28,-888 606.68,-888 623.43,-888"/>
<polygon fill="#4a6fa5" stroke="#4a6fa5" points="623.57,-890.1 629.57,-888 623.57,-885.9 623.57,-890.1"/>
</g>
<!-- Node0x6141376fa160 -->
<g id="node25" class="node">
<title>Node0x6141376fa160</title>
<path fill="#f0f4ff" stroke="black" d="M245,-906C245,-906 20,-906 20,-906 14,-906 8,-900 8,-894 8,-894 8,-882 8,-882 8,-876 14,-870 20,-870 20,-870 245,-870 245,-870 251,-870 257,-876 257,-882 257,-882 257,-894 257,-894 257,-900 251,-906 245,-906"/>
<text text-anchor="middle" x="132.5" y="-885.8" font-family="Courier,monospace" font-size="9.00">CIccBaseXformFactory::~CIccBaseXformFactory()</text>
</g>
<!-- Node0x6141376fa160&#45;&gt;Node0x61413770db80 -->
<g id="edge20" class="edge">
<title>Node0x6141376fa160&#45;&gt;Node0x61413770db80</title>
<path fill="none" stroke="#4a6fa5" d="M257.21,-888C276.8,-888 297.1,-888 316.82,-888"/>
<polygon fill="#4a6fa5" stroke="#4a6fa5" points="316.92,-890.1 322.92,-888 316.92,-885.9 316.92,-890.1"/>
</g>
<!-- Node0x6141377110c0 -->
<g id="node26" class="node">
<title>Node0x6141377110c0</title>
<path fill="#f0f4ff" stroke="black" d="M253,-964C253,-964 12,-964 12,-964 6,-964 0,-958 0,-952 0,-952 0,-940 0,-940 0,-934 6,-928 12,-928 12,-928 253,-928 253,-928 259,-928 265,-934 265,-940 265,-940 265,-952 265,-952 265,-958 259,-964 253,-964"/>
<text text-anchor="middle" x="132.5" y="-943.8" font-family="Courier,monospace" font-size="9.00">__detail::_List_node_header::_List_node_header()</text>
</g>
<!-- Node0x6141376f46f0 -->
<g id="node27" class="node">
<title>Node0x6141376f46f0</title>
<path fill="#f0f4ff" stroke="black" d="M541.5,-964C541.5,-964 353.5,-964 353.5,-964 347.5,-964 341.5,-958 341.5,-952 341.5,-952 341.5,-940 341.5,-940 341.5,-934 347.5,-928 353.5,-928 353.5,-928 541.5,-928 541.5,-928 547.5,-928 553.5,-934 553.5,-940 553.5,-940 553.5,-952 553.5,-952 553.5,-958 547.5,-964 541.5,-964"/>
<text text-anchor="middle" x="447.5" y="-943.8" font-family="Courier,monospace" font-size="9.00">__detail::_List_node_header::_M_init()</text>
</g>
<!-- Node0x6141377110c0&#45;&gt;Node0x6141376f46f0 -->
<g id="edge21" class="edge">
<title>Node0x6141377110c0&#45;&gt;Node0x6141376f46f0</title>
<path fill="none" stroke="#4a6fa5" d="M265.33,-946C288.64,-946 312.71,-946 335.38,-946"/>
<polygon fill="#4a6fa5" stroke="#4a6fa5" points="335.42,-948.1 341.42,-946 335.42,-943.9 335.42,-948.1"/>
</g>
<!-- Node0x6141376f40b0 -->
<g id="node28" class="node">
<title>Node0x6141376f40b0</title>
<path fill="#f0f4ff" stroke="black" d="M147.5,-1022C147.5,-1022 117.5,-1022 117.5,-1022 111.5,-1022 105.5,-1016 105.5,-1010 105.5,-1010 105.5,-998 105.5,-998 105.5,-992 111.5,-986 117.5,-986 117.5,-986 147.5,-986 147.5,-986 153.5,-986 159.5,-992 159.5,-998 159.5,-998 159.5,-1010 159.5,-1010 159.5,-1016 153.5,-1022 147.5,-1022"/>
<text text-anchor="middle" x="132.5" y="-1001.8" font-family="Courier,monospace" font-size="9.00">reset()</text>
</g>
<!-- Node0x6141377116f0 -->
<g id="node29" class="node">
<title>Node0x6141377116f0</title>
<path fill="#f0f4ff" stroke="black" d="M150.5,-1080C150.5,-1080 114.5,-1080 114.5,-1080 108.5,-1080 102.5,-1074 102.5,-1068 102.5,-1068 102.5,-1056 102.5,-1056 102.5,-1050 108.5,-1044 114.5,-1044 114.5,-1044 150.5,-1044 150.5,-1044 156.5,-1044 162.5,-1050 162.5,-1056 162.5,-1056 162.5,-1068 162.5,-1068 162.5,-1074 156.5,-1080 150.5,-1080"/>
<text text-anchor="middle" x="132.5" y="-1059.8" font-family="Courier,monospace" font-size="9.00">release()</text>
</g>
<!-- Node0x6141376eef80 -->
<g id="node30" class="node">
<title>Node0x6141376eef80</title>
<path fill="#f0f4ff" stroke="black" d="M224,-1138C224,-1138 41,-1138 41,-1138 35,-1138 29,-1132 29,-1126 29,-1126 29,-1114 29,-1114 29,-1108 35,-1102 41,-1102 41,-1102 224,-1102 224,-1102 230,-1102 236,-1108 236,-1114 236,-1114 236,-1126 236,-1126 236,-1132 230,-1138 224,-1138"/>
<text text-anchor="middle" x="132.5" y="-1117.8" font-family="Courier,monospace" font-size="9.00">IIccXformFactory::~IIccXformFactory()</text>
</g>
<!-- Node0x614137703a10 -->
<g id="node31" class="node">
<title>Node0x614137703a10</title>
<path fill="#f0f4ff" stroke="black" d="M171.5,-1196C171.5,-1196 93.5,-1196 93.5,-1196 87.5,-1196 81.5,-1190 81.5,-1184 81.5,-1184 81.5,-1172 81.5,-1172 81.5,-1166 87.5,-1160 93.5,-1160 93.5,-1160 171.5,-1160 171.5,-1160 177.5,-1160 183.5,-1166 183.5,-1172 183.5,-1172 183.5,-1184 183.5,-1184 183.5,-1190 177.5,-1196 171.5,-1196"/>
<text text-anchor="middle" x="132.5" y="-1175.8" font-family="Courier,monospace" font-size="9.00">__uniq_ptr_impl()</text>
</g>
<!-- Node0x61413771d940 -->
<g id="node32" class="node">
<title>Node0x61413771d940</title>
<path fill="#f0f4ff" stroke="black" d="M486.5,-1196C486.5,-1196 408.5,-1196 408.5,-1196 402.5,-1196 396.5,-1190 396.5,-1184 396.5,-1184 396.5,-1172 396.5,-1172 396.5,-1166 402.5,-1160 408.5,-1160 408.5,-1160 486.5,-1160 486.5,-1160 492.5,-1160 498.5,-1166 498.5,-1172 498.5,-1172 498.5,-1184 498.5,-1184 498.5,-1190 492.5,-1196 486.5,-1196"/>
<text text-anchor="middle" x="447.5" y="-1175.8" font-family="Courier,monospace" font-size="9.00">__uniq_ptr_impl()</text>
</g>
<!-- Node0x614137703a10&#45;&gt;Node0x61413771d940 -->
<g id="edge22" class="edge">
<title>Node0x614137703a10&#45;&gt;Node0x61413771d940</title>
<path fill="none" stroke="#4a6fa5" d="M183.79,-1178C240.14,-1178 331.29,-1178 390.05,-1178"/>
<polygon fill="#4a6fa5" stroke="#4a6fa5" points="390.34,-1180.1 396.34,-1178 390.34,-1175.9 390.34,-1180.1"/>
</g>
<!-- Node0x614137722430 -->
<g id="node33" class="node">
<title>Node0x614137722430</title>
<path fill="#f0f4ff" stroke="black" d="M221.5,-1254C221.5,-1254 43.5,-1254 43.5,-1254 37.5,-1254 31.5,-1248 31.5,-1242 31.5,-1242 31.5,-1230 31.5,-1230 31.5,-1224 37.5,-1218 43.5,-1218 43.5,-1218 221.5,-1218 221.5,-1218 227.5,-1218 233.5,-1224 233.5,-1230 233.5,-1230 233.5,-1242 233.5,-1242 233.5,-1248 227.5,-1254 221.5,-1254"/>
<text text-anchor="middle" x="132.5" y="-1233.8" font-family="Courier,monospace" font-size="9.00">__detail::_List_node_base::_M_hook()</text>
</g>
<!-- Node0x614137722200 -->
<g id="node34" class="node">
<title>Node0x614137722200</title>
<path fill="#f0f4ff" stroke="black" d="M171.5,-1312C171.5,-1312 93.5,-1312 93.5,-1312 87.5,-1312 81.5,-1306 81.5,-1300 81.5,-1300 81.5,-1288 81.5,-1288 81.5,-1282 87.5,-1276 93.5,-1276 93.5,-1276 171.5,-1276 171.5,-1276 177.5,-1276 183.5,-1282 183.5,-1288 183.5,-1288 183.5,-1300 183.5,-1300 183.5,-1306 177.5,-1312 171.5,-1312"/>
<text text-anchor="middle" x="132.5" y="-1291.8" font-family="Courier,monospace" font-size="9.00">__allocated_ptr()</text>
</g>
<!-- Node0x6141376e85d0 -->
<g id="node35" class="node">
<title>Node0x6141376e85d0</title>
<path fill="#f0f4ff" stroke="black" d="M153,-1370C153,-1370 112,-1370 112,-1370 106,-1370 100,-1364 100,-1358 100,-1358 100,-1346 100,-1346 100,-1340 106,-1334 112,-1334 112,-1334 153,-1334 153,-1334 159,-1334 165,-1340 165,-1346 165,-1346 165,-1358 165,-1358 165,-1364 159,-1370 153,-1370"/>
<text text-anchor="middle" x="132.5" y="-1349.8" font-family="Courier,monospace" font-size="9.00">decltype()</text>
</g>
<!-- Node0x614137723850 -->
<g id="node36" class="node">
<title>Node0x614137723850</title>
<path fill="#f0f4ff" stroke="black" d="M171.5,-1428C171.5,-1428 93.5,-1428 93.5,-1428 87.5,-1428 81.5,-1422 81.5,-1416 81.5,-1416 81.5,-1404 81.5,-1404 81.5,-1398 87.5,-1392 93.5,-1392 93.5,-1392 171.5,-1392 171.5,-1392 177.5,-1392 183.5,-1398 183.5,-1404 183.5,-1404 183.5,-1416 183.5,-1416 183.5,-1422 177.5,-1428 171.5,-1428"/>
<text text-anchor="middle" x="132.5" y="-1407.8" font-family="Courier,monospace" font-size="9.00">__allocated_ptr()</text>
</g>
<!-- Node0x614137726580 -->
<g id="node37" class="node">
<title>Node0x614137726580</title>
<path fill="#f0f4ff" stroke="black" d="M226.5,-1486C226.5,-1486 38.5,-1486 38.5,-1486 32.5,-1486 26.5,-1480 26.5,-1474 26.5,-1474 26.5,-1462 26.5,-1462 26.5,-1456 32.5,-1450 38.5,-1450 38.5,-1450 226.5,-1450 226.5,-1450 232.5,-1450 238.5,-1456 238.5,-1462 238.5,-1462 238.5,-1474 238.5,-1474 238.5,-1480 232.5,-1486 226.5,-1486"/>
<text text-anchor="middle" x="132.5" y="-1465.8" font-family="Courier,monospace" font-size="9.00">__detail::_List_node_base::_M_unhook()</text>
</g>
<!-- Node0x6141377264d0 -->
<g id="node38" class="node">
<title>Node0x6141377264d0</title>
<path fill="#f0f4ff" stroke="black" d="M216,-1544C216,-1544 49,-1544 49,-1544 43,-1544 37,-1538 37,-1532 37,-1532 37,-1520 37,-1520 37,-1514 43,-1508 49,-1508 49,-1508 216,-1508 216,-1508 222,-1508 228,-1514 228,-1520 228,-1520 228,-1532 228,-1532 228,-1538 222,-1544 216,-1544"/>
<text text-anchor="middle" x="132.5" y="-1523.8" font-family="Courier,monospace" font-size="9.00">_GLOBAL__sub_I_IccXformFactory.cpp</text>
</g>
</g>
</svg>
